mtllib material.mtl
usemtl Material-7024油漆.001
v 0.03817400 0.00391600 -0.23768100
v 0.03737800 0.00366000 -0.23575000
v 0.03202600 0.00378300 -0.23527100
v 0.02636600 0.00205400 -0.22862000
v 0.03422100 0.00200100 -0.23028700
v 0.02863500 0.00177500 -0.22860700
v 0.03130800 0.00238100 -0.23040100
v 0.03066600 0.00273300 -0.23109000
v 0.03557600 0.00278600 -0.23229600
v 0.03207100 0.00309900 -0.23241500
v 0.02551400 0.00327500 -0.23151400
v 0.03660300 0.00331200 -0.23414300
v 0.03083000 0.00347300 -0.23346000
v 0.02856200 0.00393200 -0.23569600
v 0.02391100 0.00242700 -0.22883600
v 0.02383600 0.00294100 -0.23010300
v 0.02034800 0.00348500 -0.23114500
v 0.02484800 0.00361300 -0.23273000
v 0.02562100 0.00375800 -0.23366100
v 0.02263000 0.00389800 -0.23405400
v 0.02033600 0.00397100 -0.23442900
v 0.03317500 0.00399900 -0.23786100
v 0.01386500 0.00145100 -0.22472700
v 0.02483300 0.00147600 -0.22723700
v 0.02397000 0.00110600 -0.22644600
v 0.01409300 0.00174100 -0.22527200
v 0.01418700 0.00201600 -0.22580200
v 0.01503600 0.00228100 -0.22652900
v 0.01727200 0.00263400 -0.22782200
v 0.01584700 0.00316900 -0.22898900
v 0.01538600 0.00361900 -0.23062300
v 0.01918000 0.00376800 -0.23227000
v 0.01181400 0.00104600 -0.22363200
v 0.02062000 0.00075300 -0.22518500
v 0.01350500 0.00297000 -0.22786100
v 0.01495400 0.00390400 -0.23237600
v 0.00552900 0.00349700 -0.22785000
v 0.01742500 0.00333000 -0.22989000
v 0.00946400 0.00372300 -0.22983500
v 0.00893100 0.00395300 -0.23158400
v 0.00562400 0.00142300 -0.22280700
v -0.00068100 0.00169000 -0.22184800
v 0.00415900 0.00198300 -0.22347900
v 0.00400200 0.00226100 -0.22400100
v 0.00350200 0.00250900 -0.22443200
v 0.00235800 0.00294400 -0.22527800
v 0.00896000 0.00274000 -0.22622000
v 0.00194900 0.00313300 -0.22574300
v 0.00467100 0.00331700 -0.22697100
v 0.00176700 0.00390200 -0.22938300
v 0.01019400 0.00382000 -0.23061800
v 0.00549000 0.00400000 -0.23164300
v 0.01511300 0.00400000 -0.23399600
v -0.00303200 0.00275300 -0.22355000
v -0.00477500 0.00373600 -0.22670000
v -0.00338600 0.00361400 -0.22636900
v -0.00704000 0.00383300 -0.22682300
v -0.00478400 0.00395600 -0.22854000
v 0.00157800 0.00080200 -0.22096000
v -0.00576000 0.00329500 -0.22453800
v -0.01023700 0.00399900 -0.22796000
v -0.00654300 0.00160800 -0.22038700
v -0.00238800 0.00107600 -0.22047400
v -0.00426900 0.00204200 -0.22169400
v -0.00981800 0.00227000 -0.22089700
v -0.01050700 0.00254900 -0.22136900
v -0.00878000 0.00298900 -0.22289600
v -0.01059700 0.00347900 -0.22414700
v -0.01363200 0.00390100 -0.22590100
v -0.01224800 0.00168700 -0.21923700
v -0.00838400 0.00096700 -0.21894300
v -0.01447500 0.00287400 -0.22128700
v -0.01535600 0.00329400 -0.22236400
v -0.01518100 0.00362100 -0.22374400
v -0.01605400 0.00375700 -0.22426100
v -0.01949900 0.00394200 -0.22499200
v -0.01521700 0.00122500 -0.21781200
v -0.01306000 0.00060100 -0.21739600
v -0.01792600 0.00194100 -0.21841200
v -0.03019300 0.00399800 -0.22351900
v -0.01989800 0.00239100 -0.21888500
v -0.02009700 0.00275700 -0.21971000
v -0.02087200 0.00311600 -0.22053800
v -0.02230200 0.00349100 -0.22155200
v -0.02778500 0.00368700 -0.22121200
v -0.02278200 0.00379100 -0.22296700
v -0.02076600 0.00129700 -0.21667100
v -0.01955800 0.00074400 -0.21613600
v -0.02249600 0.00201900 -0.21754200
v -0.02471300 0.00283700 -0.21884900
v -0.02635900 0.00334000 -0.22004800
v -0.02921700 0.00391900 -0.22251900
v 0.03289200 0.00120400 -0.22858400
v 0.01590000 0.00052900 -0.22383700
v 0.01113100 0.00051700 -0.22274700
v 0.02440400 0.00012900 -0.22524500
v 0.03873700 0.00400000 -0.23962800
v 0.00795000 0.00051800 -0.22203200
v 0.00476800 0.00051900 -0.22131800
v -0.00319000 0.00053700 -0.21954800
v 0.02569500 0.00400000 -0.28080900
v 0.01511300 0.00400000 -0.23399600
v 0.01511300 0.00400000 -0.23399600
v 0.02221700 0.00400000 -0.28340100
v 0.02843700 0.00400000 -0.27827400
v 0.03094500 0.00400000 -0.27553200
v 0.03408500 0.00400000 -0.27119900
v -0.02028100 0.00400000 -0.28460300
v -0.00628200 0.00400000 -0.28964600
v -0.00628200 0.00400000 -0.28964600
v 0.00033000 0.00399900 -0.29015600
v 0.00606100 0.00400000 -0.28965700
v 0.01169000 0.00400000 -0.28841500
v 0.01169000 0.00400000 -0.28841500
v -0.01571300 0.00400000 -0.28693900
v 0.01773600 0.00400000 -0.28600800
v 0.03658200 0.00400000 -0.26646200
v 0.03821600 0.00400000 -0.26223200
v 0.03317500 0.00399900 -0.23786100
v 0.03317500 0.00399900 -0.23786100
v 0.03317500 0.00399900 -0.23786100
v 0.04009300 0.00400000 -0.24919600
v 0.04009300 0.00400000 -0.24919600
v 0.03873700 0.00400000 -0.23962800
v 0.03912100 0.00400000 -0.25881100
v 0.03912100 0.00400000 -0.25881100
v 0.03912100 0.00400000 -0.25881100
v -0.03057200 0.00400000 -0.27596300
v 0.00549000 0.00400000 -0.23164300
v 0.00549000 0.00400000 -0.23164300
v -0.01099100 0.00400000 -0.28856400
v -0.01099100 0.00400000 -0.28856400
v -0.02406700 0.00400000 -0.28211000
v -0.02772500 0.00400000 -0.27899400
v -0.03558100 0.00400000 -0.26851200
v -0.03330100 0.00400000 -0.27238900
v -0.03768400 0.00400000 -0.26383300
v -0.01023700 0.00399900 -0.22796000
v -0.01023700 0.00399900 -0.22796000
v -0.04010900 0.00400000 -0.25123900
v -0.04010900 0.00400000 -0.25123900
v -0.03946000 0.00400000 -0.25743500
v -0.03019300 0.00399800 -0.22351900
v -0.03019300 0.00399800 -0.22351900
v -0.03927400 0.00400000 -0.24165900
v -0.03927400 0.00400000 -0.24165900
v -0.03587200 0.00400000 -0.23207800
v -0.03997600 0.00400000 -0.24674000
v 0.00969700 -0.00077500 -0.22085500
v 0.01270100 -0.00077700 -0.22153000
v 0.01264300 -0.00215100 -0.22006600
v 0.00669400 -0.00077400 -0.22018000
v 0.00982300 -0.00215000 -0.21943300
v 0.01782400 -0.00361500 -0.21988800
v 0.01729000 -0.00512200 -0.21855900
v 0.01484700 -0.00511700 -0.21801200
v 0.01240500 -0.00511200 -0.21746600
v 0.01828300 -0.00215500 -0.22133200
v 0.00752000 -0.00510300 -0.21637300
v 0.00418300 -0.00214600 -0.21816600
v 0.02171100 -0.00078100 -0.22355300
v 0.02523900 -0.00082500 -0.22430100
v 0.02409400 -0.00245300 -0.22233800
v 0.01870800 -0.00078000 -0.22287900
v 0.02110400 -0.00215700 -0.22196500
v 0.02931900 -0.00008900 -0.22607300
v 0.02986300 -0.00072900 -0.22544500
v 0.02440400 0.00012900 -0.22524500
v 0.02767400 -0.00200000 -0.22358700
v 0.02580600 -0.00351300 -0.22176500
v 0.02355700 -0.00526600 -0.21985100
v 0.02274800 -0.00455400 -0.22022100
v 0.02109600 -0.00359800 -0.22064000
v 0.01989800 -0.00545800 -0.21889300
v 0.02034500 -0.00434500 -0.21984900
v 0.01993400 -0.00659800 -0.21811400
v 0.01719900 -0.00665000 -0.21746800
v 0.01966100 -0.00798700 -0.21717700
v 0.02178200 -0.00656400 -0.21854800
v 0.01685500 -0.00750600 -0.21684500
v 0.01574900 -0.00863700 -0.21593500
v 0.01835300 -0.00876100 -0.21644700
v 0.01223700 -0.00669500 -0.21631800
v 0.01205800 -0.00831500 -0.21528700
v 0.01000700 -0.00830800 -0.21482900
v 0.00795500 -0.00830100 -0.21437100
v 0.01448400 -0.00670200 -0.21682000
v 0.01434600 -0.00830100 -0.21581200
v 0.01321100 -0.00989600 -0.21469700
v 0.01184500 -0.00982200 -0.21443200
v 0.00997200 -0.00981200 -0.21401500
v -0.01627200 -0.00008000 -0.21581900
v -0.01306000 0.00060100 -0.21739600
v -0.01181800 -0.00080300 -0.21598100
v -0.01674800 -0.00058800 -0.21511000
v -0.01056000 -0.00259100 -0.21440400
v -0.01371300 -0.00199300 -0.21427900
v -0.00832400 -0.00076600 -0.21680700
v -0.00532100 -0.00076800 -0.21748200
v -0.00709800 -0.00213900 -0.21563400
v -0.00991800 -0.00213700 -0.21500000
v -0.00658000 -0.00357400 -0.21443100
v -0.00427800 -0.00214100 -0.21626700
v -0.00551200 -0.00431100 -0.21405500
v -0.00321700 -0.00360900 -0.21515500
v -0.00224900 -0.00508400 -0.21418800
v -0.00482800 -0.00537900 -0.21338300
v -0.00809500 -0.00472000 -0.21313700
v -0.01088100 -0.00374000 -0.21330200
v 0.00369000 -0.00077200 -0.21950600
v 0.00068700 -0.00077100 -0.21883100
v 0.00136200 -0.00214400 -0.21753300
v 0.00263500 -0.00509300 -0.21528100
v 0.00019300 -0.00508800 -0.21473400
v -0.00172900 -0.00658800 -0.21324700
v 0.00099900 -0.00666200 -0.21380900
v 0.00324700 -0.00666900 -0.21431100
v 0.00180100 -0.00828100 -0.21299600
v -0.00109500 -0.00747600 -0.21282100
v -0.00024500 -0.00857600 -0.21236700
v 0.00385200 -0.00828800 -0.21345500
v 0.00226300 -0.00971700 -0.21232800
v 0.00060500 -0.00976200 -0.21193100
v -0.00439500 -0.00648600 -0.21271000
v -0.00685800 -0.00617400 -0.21235600
v -0.00368400 -0.00799200 -0.21191300
v -0.00220000 -0.00871500 -0.21184600
v 0.01559200 -0.00984200 -0.21526600
v 0.01411800 -0.01085600 -0.21444800
v 0.01124400 -0.01128600 -0.21360200
v 0.03289200 0.00120400 -0.22858400
v 0.02397000 0.00110600 -0.22644600
v 0.02397000 0.00110600 -0.22644600
v 0.02062000 0.00075300 -0.22518500
v 0.01590000 0.00052900 -0.22383700
v 0.01113100 0.00051700 -0.22274700
v 0.00795000 0.00051800 -0.22203200
v 0.00809900 -0.00980200 -0.21359800
v 0.00836100 -0.01144600 -0.21288600
v 0.00690400 -0.01140700 -0.21257500
v 0.00544500 -0.01129100 -0.21229800
v 0.00435200 -0.00978200 -0.21276500
v 0.00238300 -0.01083900 -0.21181500
v 0.00476800 0.00051900 -0.22131800
v -0.00319000 0.00053700 -0.21954800
v 0.00157800 0.00080200 -0.22096000
v -0.00838400 0.00096700 -0.21894300
v -0.01306000 0.00060100 -0.21739600
v -0.01955800 0.00074400 -0.21613600
v -0.00839300 -0.00082100 -0.21228600
v -0.01158800 0.00044400 -0.21275500
v -0.01142400 -0.00119700 -0.21323200
v -0.00473400 0.00123700 -0.21103600
v -0.00555800 -0.00200900 -0.21215400
v -0.01180400 0.00286200 -0.21204300
v -0.01488900 0.00123700 -0.21368300
v -0.01674800 -0.00058800 -0.21511000
v -0.01371300 -0.00199300 -0.21427900
v -0.01809600 0.00200400 -0.21490700
v -0.01835300 0.00367400 -0.21445900
v -0.02184300 0.00357600 -0.21650600
v -0.02921700 0.00391900 -0.22251900
v -0.02778500 0.00368700 -0.22121200
v -0.02717000 0.00448100 -0.22030400
v -0.00083900 0.00002500 -0.21111500
v 0.00228200 -0.00201300 -0.21181700
v -0.00363000 0.00263500 -0.21048600
v -0.01955800 0.00074400 -0.21613600
v -0.00532700 0.00448700 -0.21010400
v -0.01325100 0.00448700 -0.21199400
v -0.02063300 0.00448700 -0.21544000
v -0.02076600 0.00129700 -0.21667100
v -0.02249600 0.00201900 -0.21754200
v -0.02471300 0.00283700 -0.21884900
v -0.02476200 0.00407500 -0.21841400
v -0.02635900 0.00334000 -0.22004800
v -0.03259200 0.00448700 -0.22638200
v -0.03019300 0.00399800 -0.22351900
v -0.03587200 0.00400000 -0.23207800
v -0.03668000 0.00448700 -0.23342900
v -0.03927400 0.00400000 -0.24165900
v -0.00083900 0.00002500 -0.21111500
v -0.00083900 0.00002500 -0.21111500
v -0.00083900 0.00002500 -0.21111500
v 0.01643800 -0.00067600 -0.21500600
v 0.01840400 0.00089800 -0.21544900
v 0.01840400 0.00089800 -0.21544900
v 0.02191900 0.00448700 -0.21624100
v -0.00363000 0.00263500 -0.21048600
v -0.00363000 0.00263500 -0.21048600
v 0.01431000 -0.00201300 -0.21452700
v 0.01431000 -0.00201300 -0.21452700
v 0.02192800 0.00650000 -0.21624300
v -0.00533500 0.00650000 -0.21010200
v -0.00532700 0.00448700 -0.21010400
v 0.00228200 -0.00201300 -0.21181700
v 0.01954600 -0.00531100 -0.21712000
v 0.01774200 -0.00313200 -0.21611500
v 0.01689500 -0.00874000 -0.21566100
v 0.02125000 -0.00468300 -0.21819700
v 0.01966100 -0.00798700 -0.21717700
v 0.02178200 -0.00656400 -0.21854800
v 0.02355700 -0.00526600 -0.21985100
v 0.02514500 -0.00257700 -0.22115800
v 0.02311200 -0.00261600 -0.21951600
v 0.02580600 -0.00351300 -0.22176500
v 0.01835300 -0.00876100 -0.21644700
v 0.02767400 -0.00200000 -0.22358700
v 0.02129000 -0.00201300 -0.21822100
v 0.01431000 -0.00201300 -0.21452700
v 0.01419500 -0.00637000 -0.21448100
v 0.01411800 -0.01085600 -0.21444800
v 0.01419500 -0.00637000 -0.21448100
v 0.00831200 -0.00437200 -0.21310100
v 0.00825000 -0.00830100 -0.21296200
v 0.01124400 -0.01128600 -0.21360200
v 0.00836100 -0.01144600 -0.21288600
v 0.01411800 -0.01085600 -0.21444800
v 0.00228200 -0.00201300 -0.21181700
v 0.00831200 -0.00437200 -0.21310100
v 0.01431000 -0.00201300 -0.21452700
v 0.00240600 -0.00637100 -0.21182600
v 0.00825000 -0.00830100 -0.21296200
v 0.00544500 -0.01129100 -0.21229800
v 0.00690400 -0.01140700 -0.21257500
v 0.00836100 -0.01144600 -0.21288600
v 0.00238300 -0.01083900 -0.21181500
v -0.00685800 -0.00617400 -0.21235600
v -0.00789600 -0.00263100 -0.21256800
v -0.01088100 -0.00374000 -0.21330200
v -0.00555800 -0.00200900 -0.21215400
v -0.00556000 -0.00471200 -0.21215800
v -0.00150400 -0.00313300 -0.21178100
v -0.00368400 -0.00799200 -0.21191300
v -0.00355200 -0.00530400 -0.21191500
v -0.00052300 -0.00901900 -0.21173600
v -0.00220000 -0.00871500 -0.21184600
v 0.00228200 -0.00201300 -0.21181700
v -0.01050000 -0.00256600 -0.21320700
v 0.00240600 -0.00637100 -0.21182600
v -0.01371300 -0.00199300 -0.21427900
v 0.00238300 -0.01083900 -0.21181500
v -0.02721800 0.00650000 -0.22034800
v 0.03920100 0.00650000 -0.24086700
v -0.03149800 0.00650000 -0.22494200
v -0.03497400 0.00650000 -0.23008000
v 0.04013900 0.00650000 -0.24699900
v -0.02227500 0.00650000 -0.21647600
v 0.03730400 0.00650000 -0.23488100
v 0.02663800 0.00650000 -0.21982600
v -0.01118300 0.00650000 -0.21133400
v -0.00533500 0.00650000 -0.21010200
v 0.03090300 0.00650000 -0.22420900
v -0.01685900 0.00650000 -0.21345100
v 0.03449900 0.00650000 -0.22926400
v 0.04013500 0.00650000 -0.25305700
v -0.03756800 0.00650000 -0.23555500
v -0.03976400 0.00650000 -0.25622900
v -0.04021900 0.00650000 -0.24844700
v 0.03325400 0.00650000 -0.27267700
v -0.03770500 0.00650000 -0.26408300
v 0.02802700 0.00650000 -0.27888900
v -0.03926500 0.00650000 -0.24115500
v 0.03700200 0.00650000 -0.26584100
v -0.03401900 0.00650000 -0.27151100
v 0.01408500 0.00650000 -0.28770500
v -0.02888900 0.00650000 -0.27802500
v -0.01584100 0.00650000 -0.28700100
v -0.02267700 0.00650000 -0.28325300
v 0.00623100 0.00650000 -0.28976400
v 0.03926700 0.00650000 -0.25884400
v 0.02192800 0.00650000 -0.21624300
v -0.00155100 0.00650000 -0.29021900
v -0.00884400 0.00650000 -0.28926600
v 0.02151200 0.00650000 -0.28401900
v 0.02651900 0.00549300 -0.21972000
v 0.02663800 0.00650000 -0.21982600
v 0.02384300 0.00628700 -0.21755300
v 0.02191900 0.00448700 -0.21624100
v 0.02192800 0.00650000 -0.21624300
v 0.02426000 0.00549300 -0.21788200
v 0.02826800 0.00448700 -0.22134600
v 0.03090300 0.00650000 -0.22420900
v 0.03449900 0.00650000 -0.22926400
v 0.03346400 0.00448900 -0.22763200
v 0.03730400 0.00650000 -0.23488100
v 0.03727900 0.00448400 -0.23482100
v 0.03920100 0.00650000 -0.24086700
v 0.04013500 0.00650000 -0.25305700
v 0.04013900 0.00650000 -0.24699900
v 0.04024400 0.00448700 -0.25075600
v 0.03957200 0.00448700 -0.24263700
v 0.03325400 0.00650000 -0.27267700
v 0.03226700 0.00454000 -0.27409000
v 0.03008900 0.00448700 -0.27673400
v 0.03700200 0.00650000 -0.26584100
v 0.03681800 0.00446600 -0.26630400
v 0.03474400 0.00443900 -0.27036900
v 0.02151200 0.00650000 -0.28401900
v 0.02056700 0.00454500 -0.28461800
v 0.01756800 0.00448700 -0.28621400
v 0.00623100 0.00650000 -0.28976400
v 0.00124500 0.00449200 -0.29024500
v -0.00155100 0.00650000 -0.29021900
v 0.01408500 0.00650000 -0.28770500
v 0.01125400 0.00448700 -0.28864400
v 0.02802700 0.00650000 -0.27888900
v 0.02427900 0.00446000 -0.28212600
v 0.03926700 0.00448700 -0.25884400
v -0.00317900 0.00456300 -0.29015300
v -0.00884400 0.00650000 -0.28926600
v 0.03833300 0.00436900 -0.26231200
v 0.03926700 0.00650000 -0.25884400
v 0.02775800 0.00452700 -0.27917200
v 0.01445500 0.00452900 -0.28758300
v 0.00793100 0.00454000 -0.28947800
v 0.00462100 0.00448700 -0.28998300
v -0.00662800 0.00448700 -0.28970000
v -0.00998700 0.00453100 -0.28900900
v -0.01318500 0.00448700 -0.28802800
v -0.01584100 0.00650000 -0.28700100
v -0.01633900 0.00454900 -0.28680300
v -0.01936800 0.00448700 -0.28528200
v -0.03401900 0.00650000 -0.27151100
v -0.03461200 0.00454800 -0.27057700
v -0.03621300 0.00448700 -0.26756600
v -0.03976400 0.00650000 -0.25622900
v -0.04024500 0.00444800 -0.25127300
v -0.04021900 0.00650000 -0.24844700
v -0.03770500 0.00650000 -0.26408300
v -0.03864400 0.00448700 -0.26125200
v -0.02888900 0.00650000 -0.27802500
v -0.03213200 0.00446800 -0.27427000
v -0.03926500 0.00650000 -0.24115500
v -0.03926500 0.00448700 -0.24115500
v -0.03756800 0.00650000 -0.23555500
v -0.03668000 0.00448700 -0.23342900
v -0.03497400 0.00650000 -0.23008000
v -0.03987000 0.00447400 -0.24445400
v -0.03259200 0.00448700 -0.22638200
v -0.03149800 0.00650000 -0.22494200
v -0.02721800 0.00650000 -0.22034800
v -0.02717000 0.00448100 -0.22030400
v -0.02227500 0.00650000 -0.21647600
v -0.02063300 0.00448700 -0.21544000
v -0.01685900 0.00650000 -0.21345100
v -0.00533500 0.00650000 -0.21010200
v -0.01118300 0.00650000 -0.21133400
v -0.00755900 0.00628800 -0.21045100
v -0.01028000 0.00567500 -0.21105900
v -0.00532700 0.00448700 -0.21010400
v -0.01325100 0.00448700 -0.21199400
v -0.02587700 0.00442300 -0.28084300
v -0.02267700 0.00650000 -0.28325300
v -0.02228000 0.00455100 -0.28354200
v -0.02917500 0.00454400 -0.27775300
v -0.03757600 0.00454800 -0.26447200
v -0.03998300 0.00448700 -0.25462000
v -0.04019200 0.00448700 -0.24785700
v -0.03947400 0.00452500 -0.25794600
v 0.03528800 0.00353600 -0.23119400
v 0.03422100 0.00200100 -0.23028700
v 0.03557600 0.00278600 -0.23229600
v 0.02903400 0.00211900 -0.22318400
v 0.02605800 -0.00116600 -0.22161600
v 0.02767400 -0.00200000 -0.22358700
v 0.02645400 0.00270100 -0.22039600
v 0.02986300 -0.00072900 -0.22544500
v 0.03660300 0.00331200 -0.23414300
v 0.03727900 0.00448400 -0.23482100
v 0.03737800 0.00366000 -0.23575000
v 0.03926700 0.00448700 -0.25884400
v 0.04024400 0.00448700 -0.25075600
v 0.03912100 0.00400000 -0.25881100
v 0.04009300 0.00400000 -0.24919600
v 0.03957200 0.00448700 -0.24263700
v 0.03817400 0.00391600 -0.23768100
v 0.03873700 0.00400000 -0.23962800
v 0.02129000 -0.00201300 -0.21822100
v 0.01431000 -0.00201300 -0.21452700
v 0.01643800 -0.00067600 -0.21500600
v 0.02363000 0.00049200 -0.21893300
v 0.02043100 -0.00021300 -0.21700700
v 0.01840400 0.00089800 -0.21544900
v 0.03120100 0.00266200 -0.22545200
v 0.03289200 0.00120400 -0.22858400
v 0.03346400 0.00448900 -0.22763200
v 0.02826800 0.00448700 -0.22134600
v 0.02191900 0.00448700 -0.21624100
v -0.03927400 0.00400000 -0.24165900
v -0.03926500 0.00448700 -0.24115500
v -0.03987000 0.00447400 -0.24445400
v -0.03997600 0.00400000 -0.24674000
v -0.04019200 0.00448700 -0.24785700
v -0.04010900 0.00400000 -0.25123900
v -0.04024500 0.00444800 -0.25127300
v -0.03998300 0.00448700 -0.25462000
v -0.03946000 0.00400000 -0.25743500
v -0.03947400 0.00452500 -0.25794600
v -0.03864400 0.00448700 -0.26125200
v -0.03768400 0.00400000 -0.26383300
v -0.03757600 0.00454800 -0.26447200
v -0.03621300 0.00448700 -0.26756600
v -0.03057200 0.00400000 -0.27596300
v -0.02917500 0.00454400 -0.27775300
v -0.02772500 0.00400000 -0.27899400
v -0.02587700 0.00442300 -0.28084300
v -0.02406700 0.00400000 -0.28211000
v -0.03213200 0.00446800 -0.27427000
v -0.02028100 0.00400000 -0.28460300
v -0.02228000 0.00455100 -0.28354200
v -0.01936800 0.00448700 -0.28528200
v -0.01571300 0.00400000 -0.28693900
v -0.01318500 0.00448700 -0.28802800
v -0.01099100 0.00400000 -0.28856400
v -0.03558100 0.00400000 -0.26851200
v -0.03461200 0.00454800 -0.27057700
v -0.03330100 0.00400000 -0.27238900
v -0.00998700 0.00453100 -0.28900900
v -0.00628200 0.00400000 -0.28964600
v 0.00606100 0.00400000 -0.28965700
v 0.00033000 0.00399900 -0.29015600
v 0.00462100 0.00448700 -0.28998300
v -0.00317900 0.00456300 -0.29015300
v 0.00124500 0.00449200 -0.29024500
v 0.01773600 0.00400000 -0.28600800
v 0.02056700 0.00454500 -0.28461800
v 0.02221700 0.00400000 -0.28340100
v 0.02427900 0.00446000 -0.28212600
v 0.02569500 0.00400000 -0.28080900
v 0.02843700 0.00400000 -0.27827400
v 0.02775800 0.00452700 -0.27917200
v 0.03008900 0.00448700 -0.27673400
v 0.03408500 0.00400000 -0.27119900
v 0.03094500 0.00400000 -0.27553200
v 0.03226700 0.00454000 -0.27409000
v 0.03474400 0.00443900 -0.27036900
v 0.03658200 0.00400000 -0.26646200
v 0.03681800 0.00446600 -0.26630400
v 0.03821600 0.00400000 -0.26223200
v 0.03833300 0.00436900 -0.26231200
v 0.03926700 0.00448700 -0.25884400
v -0.00662800 0.00448700 -0.28970000
v -0.03926500 0.00448700 -0.24115500
v 0.01431000 -0.00201300 -0.21452700
v -0.01633900 0.00454900 -0.28680300
v 0.00793100 0.00454000 -0.28947800
v 0.01125400 0.00448700 -0.28864400
v 0.01169000 0.00400000 -0.28841500
v 0.01445500 0.00452900 -0.28758300
v 0.01756800 0.00448700 -0.28621400
v 0.03912100 0.00400000 -0.25881100
vn -0.02210000 -0.99490000 -0.09820000
vn -0.04340000 -0.98030000 -0.19250000
vn -0.03460000 -0.98760000 -0.15340000
vn -0.10210000 -0.88570000 -0.45300000
vn -0.10340000 -0.88240000 -0.45890000
vn -0.10890000 -0.86840000 -0.48380000
vn -0.09320000 -0.90550000 -0.41390000
vn -0.08250000 -0.92690000 -0.36620000
vn -0.08110000 -0.92940000 -0.36010000
vn -0.06980000 -0.94820000 -0.30980000
vn -0.06270000 -0.95850000 -0.27830000
vn -0.06110000 -0.96070000 -0.27100000
vn -0.05340000 -0.97000000 -0.23720000
vn -0.01990000 -0.99590000 -0.08830000
vn -0.09190000 -0.90840000 -0.40800000
vn -0.07550000 -0.93920000 -0.33500000
vn -0.05300000 -0.97060000 -0.23490000
vn -0.04570000 -0.97800000 -0.20350000
vn -0.03660000 -0.98610000 -0.16240000
vn -0.02360000 -0.99420000 -0.10470000
vn -0.01280000 -0.99830000 -0.05660000
vn -0.00620000 -0.99960000 -0.02760000
vn -0.11660000 -0.84760000 -0.51770000
vn -0.11600000 -0.84930000 -0.51500000
vn -0.12420000 -0.82490000 -0.55140000
vn -0.10990000 -0.86600000 -0.48780000
vn -0.10310000 -0.88320000 -0.45750000
vn -0.09600000 -0.89970000 -0.42590000
vn -0.08560000 -0.92090000 -0.38020000
vn -0.06700000 -0.95240000 -0.29740000
vn -0.04560000 -0.97830000 -0.20210000
vn -0.03590000 -0.98660000 -0.15900000
vn -0.12540000 -0.82120000 -0.55680000
vn -0.13130000 -0.80180000 -0.58300000
vn -0.07410000 -0.94090000 -0.33040000
vn -0.02300000 -0.99450000 -0.10190000
vn -0.05240000 -0.97120000 -0.23250000
vn -0.06030000 -0.96170000 -0.26750000
vn -0.03890000 -0.98420000 -0.17250000
vn -0.01610000 -0.99730000 -0.07120000
vn -0.11750000 -0.84510000 -0.52150000
vn -0.11130000 -0.86240000 -0.49390000
vn -0.10390000 -0.88110000 -0.46140000
vn -0.09650000 -0.89840000 -0.42860000
vn -0.08940000 -0.91350000 -0.39680000
vn -0.07530000 -0.93960000 -0.33400000
vn -0.08220000 -0.92740000 -0.36490000
vn -0.06860000 -0.95030000 -0.30370000
vn -0.06090000 -0.96090000 -0.27020000
vn -0.02320000 -0.99440000 -0.10270000
vn -0.03140000 -0.98980000 -0.13900000
vn -0.00590000 -0.99960000 -0.02630000
vn -0.00370000 -0.99990000 -0.01640000
vn -0.08180000 -0.92820000 -0.36310000
vn -0.03800000 -0.98500000 -0.16860000
vn -0.04590000 -0.97800000 -0.20360000
vn -0.03020000 -0.99050000 -0.13410000
vn -0.01550000 -0.99750000 -0.06860000
vn -0.13040000 -0.80460000 -0.57930000
vn -0.06190000 -0.95950000 -0.27480000
vn -0.00760000 -0.99940000 -0.03360000
vn -0.11320000 -0.85710000 -0.50250000
vn -0.12490000 -0.82270000 -0.55460000
vn -0.10250000 -0.88470000 -0.45470000
vn -0.09640000 -0.89870000 -0.42780000
vn -0.08810000 -0.91600000 -0.39130000
vn -0.07380000 -0.94200000 -0.32740000
vn -0.05330000 -0.97010000 -0.23660000
vn -0.02330000 -0.99440000 -0.10340000
vn -0.11140000 -0.86210000 -0.49440000
vn -0.12730000 -0.81490000 -0.56550000
vn -0.07770000 -0.93530000 -0.34520000
vn -0.06210000 -0.95930000 -0.27560000
vn -0.04560000 -0.97830000 -0.20200000
vn -0.03670000 -0.98600000 -0.16290000
vn -0.01820000 -0.99660000 -0.08090000
vn -0.12180000 -0.83220000 -0.54090000
vn -0.13430000 -0.79140000 -0.59640000
vn -0.10520000 -0.87800000 -0.46700000
vn -0.00690000 -0.99950000 -0.03040000
vn -0.09290000 -0.90620000 -0.41250000
vn -0.08170000 -0.92840000 -0.36260000
vn -0.06930000 -0.94910000 -0.30740000
vn -0.05280000 -0.97070000 -0.23430000
vn -0.04180000 -0.98180000 -0.18520000
vn -0.03400000 -0.98800000 -0.15080000
vn -0.12030000 -0.83670000 -0.53430000
vn -0.13160000 -0.80090000 -0.58420000
vn -0.10310000 -0.88310000 -0.45760000
vn -0.07930000 -0.93260000 -0.35210000
vn -0.06010000 -0.96190000 -0.26680000
vn -0.02170000 -0.99510000 -0.09610000
vn -0.12220000 -0.83100000 -0.54260000
vn -0.13540000 -0.78750000 -0.60130000
vn -0.13560000 -0.78660000 -0.60230000
vn -0.14240000 -0.76120000 -0.63270000
vn -0.00000000 -1.00000000 -0.00000000
vn -0.13560000 -0.78670000 -0.60230000
vn -0.13560000 -0.78670000 -0.60220000
vn -0.13530000 -0.78780000 -0.60090000
vn -0.00000000 -1.00000000 -0.00000000
vn -0.00000000 -1.00000000 -0.00000000
vn -0.00010000 -1.00000000 -0.00010000
vn -0.00000000 -1.00000000 -0.00000000
vn -0.00000000 -1.00000000 -0.00000000
vn -0.00000000 -1.00000000 -0.00000000
vn -0.00000000 -1.00000000 -0.00000000
vn -0.00000000 -1.00000000 -0.00000000
vn -0.00000000 -1.00000000 0.00010000
vn -0.00000000 -1.00000000 -0.00000000
vn -0.00000000 -1.00000000 -0.00000000
vn -0.00000000 -1.00000000 -0.00000000
vn -0.00000000 -1.00000000 0.00010000
vn -0.00000000 -1.00000000 -0.00000000
vn -0.00000000 -1.00000000 -0.00000000
vn -0.00000000 -1.00000000 -0.00000000
vn -0.00000000 -1.00000000 -0.00000000
vn -0.00000000 -1.00000000 -0.00000000
vn -0.00010000 -1.00000000 -0.00010000
vn -0.00020000 -1.00000000 -0.00000000
vn 0.00010000 -1.00000000 -0.00000000
vn 0.00010000 -1.00000000 -0.00000000
vn -0.00020000 -1.00000000 -0.00000000
vn -0.00020000 -1.00000000 -0.00000000
vn -0.00000000 -1.00000000 -0.00000000
vn -0.00010000 -1.00000000 -0.00010000
vn 0.00010000 -1.00000000 -0.00000000
vn -0.00000000 -1.00000000 -0.00000000
vn 0.00000000 -1.00000000 -0.00010000
vn -0.00000000 -1.00000000 -0.00000000
vn -0.00000000 -1.00000000 0.00010000
vn -0.00000000 -1.00000000 -0.00000000
vn -0.00000000 -1.00000000 -0.00000000
vn -0.00000000 -1.00000000 -0.00000000
vn -0.00000000 -1.00000000 -0.00000000
vn -0.00000000 -1.00000000 -0.00000000
vn -0.00000000 -1.00000000 -0.00000000
vn -0.00000000 -1.00000000 -0.00000000
vn 0.00000000 -1.00000000 -0.00010000
vn -0.00000000 -1.00000000 -0.00000000
vn 0.00000000 -1.00000000 -0.00010000
vn -0.00000000 -1.00000000 -0.00000000
vn -0.00000000 -1.00000000 -0.00000000
vn 0.00000000 -1.00000000 -0.00010000
vn -0.00000000 -1.00000000 -0.00000000
vn 0.00000000 -1.00000000 -0.00010000
vn -0.00000000 -1.00000000 -0.00000000
vn -0.00000000 -1.00000000 -0.00000000
vn -0.14740000 -0.74120000 -0.65480000
vn -0.14750000 -0.74100000 -0.65510000
vn -0.15840000 -0.69270000 -0.70360000
vn -0.14750000 -0.74110000 -0.65500000
vn -0.15840000 -0.69270000 -0.70360000
vn -0.16850000 -0.64170000 -0.74820000
vn -0.17730000 -0.59030000 -0.78750000
vn -0.17730000 -0.59050000 -0.78740000
vn -0.17720000 -0.59060000 -0.78720000
vn -0.15840000 -0.69260000 -0.70370000
vn -0.17720000 -0.59100000 -0.78700000
vn -0.15840000 -0.69290000 -0.70350000
vn -0.14720000 -0.74100000 -0.65520000
vn -0.14790000 -0.73940000 -0.65680000
vn -0.16070000 -0.68190000 -0.71360000
vn -0.14750000 -0.74090000 -0.65520000
vn -0.15840000 -0.69260000 -0.70380000
vn -0.14150000 -0.76500000 -0.62840000
vn -0.14710000 -0.74260000 -0.65340000
vn -0.13940000 -0.77300000 -0.61900000
vn -0.15730000 -0.69780000 -0.69880000
vn -0.16780000 -0.64510000 -0.74540000
vn -0.17810000 -0.58520000 -0.79110000
vn -0.17410000 -0.60940000 -0.77350000
vn -0.16830000 -0.64230000 -0.74770000
vn -0.17910000 -0.57890000 -0.79550000
vn -0.17290000 -0.61660000 -0.76800000
vn -0.18470000 -0.54130000 -0.82030000
vn -0.18490000 -0.53970000 -0.82130000
vn -0.19070000 -0.49640000 -0.84690000
vn -0.18460000 -0.54220000 -0.81970000
vn -0.18870000 -0.51210000 -0.83800000
vn -0.19320000 -0.47630000 -0.85780000
vn -0.19370000 -0.47240000 -0.85990000
vn -0.18510000 -0.53820000 -0.82220000
vn -0.19200000 -0.48650000 -0.85230000
vn -0.19190000 -0.48670000 -0.85220000
vn -0.19190000 -0.48690000 -0.85210000
vn -0.18470000 -0.53820000 -0.82230000
vn -0.19190000 -0.48690000 -0.85210000
vn -0.19760000 -0.43750000 -0.87720000
vn -0.19730000 -0.43990000 -0.87610000
vn -0.19730000 -0.44020000 -0.87600000
vn -0.14130000 -0.76550000 -0.62770000
vn -0.13490000 -0.78940000 -0.59890000
vn -0.14780000 -0.74010000 -0.65610000
vn -0.14590000 -0.74750000 -0.64800000
vn -0.16170000 -0.67700000 -0.71800000
vn -0.15730000 -0.69800000 -0.69860000
vn -0.14740000 -0.74130000 -0.65470000
vn -0.14740000 -0.74130000 -0.65480000
vn -0.15830000 -0.69310000 -0.70330000
vn -0.15830000 -0.69310000 -0.70320000
vn -0.16820000 -0.64320000 -0.74700000
vn -0.15830000 -0.69300000 -0.70330000
vn -0.17270000 -0.61780000 -0.76710000
vn -0.16840000 -0.64190000 -0.74810000
vn -0.17710000 -0.59180000 -0.78640000
vn -0.17870000 -0.58170000 -0.79350000
vn -0.17510000 -0.60370000 -0.77780000
vn -0.16930000 -0.63710000 -0.75200000
vn -0.14750000 -0.74110000 -0.65500000
vn -0.14740000 -0.74120000 -0.65490000
vn -0.15840000 -0.69290000 -0.70340000
vn -0.17710000 -0.59130000 -0.78670000
vn -0.17710000 -0.59150000 -0.78660000
vn -0.18460000 -0.54200000 -0.81980000
vn -0.18530000 -0.53950000 -0.82130000
vn -0.18510000 -0.53920000 -0.82160000
vn -0.19180000 -0.48760000 -0.85170000
vn -0.18870000 -0.51320000 -0.83730000
vn -0.19300000 -0.47820000 -0.85680000
vn -0.19190000 -0.48740000 -0.85180000
vn -0.19700000 -0.44310000 -0.87460000
vn -0.19710000 -0.44170000 -0.87520000
vn -0.18420000 -0.54520000 -0.81780000
vn -0.18270000 -0.55530000 -0.81130000
vn -0.19070000 -0.49650000 -0.84680000
vn -0.19350000 -0.47380000 -0.85910000
vn -0.19740000 -0.43930000 -0.87640000
vn -0.20050000 -0.40890000 -0.89030000
vn -0.20170000 -0.39600000 -0.89580000
vn -0.12850000 -0.81100000 -0.57080000
vn -0.12950000 -0.80780000 -0.57510000
vn -0.12950000 -0.80770000 -0.57520000
vn -0.13330000 -0.79480000 -0.59210000
vn -0.13550000 -0.78710000 -0.60180000
vn -0.13560000 -0.78660000 -0.60230000
vn -0.13560000 -0.78670000 -0.60230000
vn -0.19740000 -0.44010000 -0.87600000
vn -0.20220000 -0.39140000 -0.89770000
vn -0.20210000 -0.39260000 -0.89720000
vn -0.20180000 -0.39600000 -0.89580000
vn -0.19720000 -0.44110000 -0.87550000
vn -0.20050000 -0.40940000 -0.89010000
vn -0.13560000 -0.78680000 -0.60220000
vn -0.13540000 -0.78740000 -0.60140000
vn -0.13280000 -0.79650000 -0.58990000
vn -0.13110000 -0.80230000 -0.58230000
vn -0.13480000 -0.78940000 -0.59890000
vn -0.13330000 -0.79470000 -0.59220000
vn -0.20760000 -0.29400000 0.93300000
vn -0.28400000 -0.29410000 0.91260000
vn -0.28360000 -0.29410000 0.91270000
vn -0.11530000 -0.29410000 0.94880000
vn -0.13860000 -0.29410000 0.94570000
vn -0.28380000 -0.29410000 0.91270000
vn -0.36260000 -0.29410000 0.88430000
vn -0.41360000 -0.29400000 0.86170000
vn -0.34250000 -0.29400000 0.89230000
vn -0.43810000 -0.29410000 0.84940000
vn -0.43850000 -0.29410000 0.84920000
vn -0.52220000 -0.29400000 0.80060000
vn -0.69630000 -0.29380000 0.65490000
vn -0.66380000 -0.29400000 0.68770000
vn -0.64520000 -0.29410000 0.70520000
vn -0.02090000 -0.29400000 0.95560000
vn 0.05700000 -0.29410000 0.95410000
vn -0.08750000 -0.29410000 0.95180000
vn -0.47810000 -0.29400000 0.82760000
vn -0.12650000 -0.29410000 0.94740000
vn -0.31470000 -0.29410000 0.90250000
vn -0.49000000 -0.29410000 0.82060000
vn -0.50540000 -0.29410000 0.81120000
vn -0.54450000 -0.29410000 0.78550000
vn -0.59400000 -0.29390000 0.74890000
vn -0.58970000 -0.29400000 0.75220000
vn -0.63150000 -0.29410000 0.71750000
vn -0.77400000 -0.29410000 0.56080000
vn -0.71870000 -0.29370000 0.63030000
vn -0.85500000 -0.29410000 0.42710000
vn -0.87100000 -0.29410000 0.39350000
vn -0.93500000 -0.29370000 0.19860000
vn 0.21970000 0.00010000 0.97560000
vn 0.21970000 -0.00010000 0.97560000
vn 0.21970000 0.00000000 0.97560000
vn 0.21970000 0.00000000 0.97560000
vn 0.21970000 0.00000000 0.97560000
vn 0.21970000 -0.00010000 0.97560000
vn 0.21970000 0.00000000 0.97560000
vn 0.21970000 0.00000000 0.97560000
vn 0.21970000 -0.00010000 0.97560000
vn 0.21970000 0.00010000 0.97560000
vn 0.21970000 0.00000000 0.97560000
vn 0.21970000 0.00000000 0.97560000
vn 0.21970000 0.00000000 0.97560000
vn 0.21970000 0.00000000 0.97560000
vn 0.21970000 0.00010000 0.97560000
vn 0.51090000 0.00000000 0.85960000
vn 0.46380000 -0.00010000 0.88590000
vn 0.44140000 -0.00000000 0.89730000
vn 0.55560000 -0.00000000 0.83150000
vn 0.51380000 -0.00000000 0.85790000
vn 0.56930000 -0.00000000 0.82210000
vn 0.61570000 -0.00000000 0.78800000
vn 0.65720000 -0.00000000 0.75380000
vn 0.60420000 -0.00000000 0.79690000
vn 0.67470000 0.00000000 0.73810000
vn 0.47980000 -0.00000000 0.87740000
vn 0.72340000 0.00000000 0.69040000
vn 0.55660000 -0.00000000 0.83080000
vn 0.37410000 -0.00020000 0.92740000
vn 0.37100000 -0.00010000 0.92860000
vn 0.36900000 0.00000000 0.92940000
vn 0.25780000 0.00330000 0.96620000
vn 0.21970000 0.03100000 0.97510000
vn 0.21750000 0.03100000 0.97560000
vn 0.26020000 0.02400000 0.96530000
vn 0.21970000 0.03100000 0.97510000
vn 0.29820000 0.00180000 0.95450000
vn 0.21980000 0.00440000 0.97550000
vn 0.21960000 0.03100000 0.97510000
vn 0.21940000 0.05760000 0.97390000
vn 0.18130000 0.00330000 0.98340000
vn 0.21560000 0.03160000 0.97600000
vn 0.17870000 0.02370000 0.98360000
vn 0.19910000 0.02920000 0.97960000
vn 0.21970000 0.03100000 0.97510000
vn 0.13840000 0.00100000 0.99040000
vn -0.17920000 -0.00000000 0.98380000
vn -0.20640000 -0.00000000 0.97850000
vn -0.28430000 -0.00000000 0.95870000
vn -0.14530000 -0.00000000 0.98940000
vn -0.14540000 -0.00000000 0.98940000
vn -0.03930000 -0.00010000 0.99920000
vn -0.09620000 -0.00000000 0.99540000
vn -0.09290000 0.00000000 0.99570000
vn -0.01360000 -0.00000000 0.99990000
vn -0.05760000 -0.00000000 0.99830000
vn 0.05970000 -0.00020000 0.99820000
vn -0.27440000 -0.00000000 0.96160000
vn 0.06300000 -0.00010000 0.99800000
vn -0.35840000 0.00000000 0.93360000
vn 0.06240000 0.00000000 0.99810000
vn 0.00000000 1.00000000 0.00000000
vn 0.00000000 1.00000000 0.00000000
vn 0.00000000 1.00000000 0.00000000
vn 0.00000000 1.00000000 0.00000000
vn 0.00000000 1.00000000 0.00000000
vn 0.00000000 1.00000000 0.00000000
vn 0.00000000 1.00000000 0.00000000
vn 0.00000000 1.00000000 0.00000000
vn 0.00000000 1.00000000 0.00000000
vn 0.00000000 1.00000000 0.00000000
vn 0.00000000 1.00000000 0.00000000
vn 0.00000000 1.00000000 0.00000000
vn 0.00000000 1.00000000 0.00000000
vn 0.00000000 1.00000000 0.00000000
vn 0.00000000 1.00000000 0.00000000
vn 0.00000000 1.00000000 0.00000000
vn 0.00000000 1.00000000 0.00000000
vn 0.00000000 1.00000000 0.00000000
vn 0.00000000 1.00000000 0.00000000
vn 0.00000000 1.00000000 0.00000000
vn 0.00000000 1.00000000 0.00000000
vn 0.00000000 1.00000000 0.00000000
vn 0.00000000 1.00000000 0.00000000
vn 0.00000000 1.00000000 0.00000000
vn 0.00000000 1.00000000 0.00000000
vn 0.00000000 1.00000000 0.00000000
vn 0.00000000 1.00000000 0.00000000
vn 0.00000000 1.00000000 0.00000000
vn 0.00000000 1.00000000 0.00000000
vn 0.00000000 1.00000000 0.00000000
vn 0.00000000 1.00000000 0.00000000
vn 0.00000000 1.00000000 0.00000000
vn 0.00000000 1.00000000 0.00000000
vn 0.65880000 0.00000000 0.75230000
vn 0.66180000 0.00000000 0.74970000
vn 0.59210000 -0.00000000 0.80580000
vn 0.54450000 0.00000000 0.83870000
vn 0.54470000 0.00000000 0.83860000
vn 0.60270000 0.00000000 0.79800000
vn 0.70230000 0.00000000 0.71190000
vn 0.76770000 0.00000000 0.64080000
vn 0.85710000 -0.00000000 0.51520000
vn 0.83140000 -0.00000000 0.55570000
vn 0.92680000 -0.00000000 0.37560000
vn 0.92620000 -0.00000000 0.37710000
vn 0.97390000 0.00000000 0.22690000
vn 0.99710000 0.00000000 -0.07600000
vn 0.99720000 -0.00000000 0.07450000
vn 0.99980000 -0.00000000 -0.01880000
vn 0.98310000 0.00000000 0.18290000
vn 0.82620000 0.00000000 -0.56340000
vn 0.80130000 -0.00000000 -0.59820000
vn 0.74750000 -0.00000000 -0.66420000
vn 0.91930000 0.00000000 -0.39360000
vn 0.91430000 0.00000000 -0.40490000
vn 0.86270000 -0.00000000 -0.50580000
vn 0.53440000 -0.00000000 -0.84520000
vn 0.51080000 -0.00000000 -0.85970000
vn 0.43640000 0.00000000 -0.89970000
vn 0.15480000 -0.00000000 -0.98790000
vn 0.03090000 0.00000000 -0.99950000
vn -0.03860000 0.00000000 -0.99930000
vn 0.34990000 -0.00000000 -0.93680000
vn 0.27960000 -0.00000000 -0.96010000
vn 0.69630000 -0.00000000 -0.71780000
vn 0.60290000 0.00000000 -0.79780000
vn 0.97560000 0.00000000 -0.21980000
vn -0.07890000 0.00000000 -0.99690000
vn -0.21970000 -0.00000000 -0.97560000
vn 0.95210000 -0.00000000 -0.30580000
vn 0.97560000 0.00000000 -0.21980000
vn 0.68930000 0.00000000 -0.72450000
vn 0.35900000 0.00000000 -0.93340000
vn 0.19700000 0.00000000 -0.98040000
vn 0.11480000 0.00000000 -0.99340000
vn -0.16470000 0.00000000 -0.98630000
vn -0.24810000 0.00000000 -0.96870000
vn -0.32760000 0.00000000 -0.94480000
vn -0.39360000 0.00000000 -0.91930000
vn -0.40580000 -0.00000000 -0.91400000
vn -0.48120000 0.00000000 -0.87660000
vn -0.84520000 -0.00000000 -0.53440000
vn -0.85960000 -0.00000000 -0.51100000
vn -0.89970000 0.00000000 -0.43640000
vn -0.98790000 -0.00000000 -0.15480000
vn -0.99950000 -0.00000000 -0.03160000
vn -0.99930000 -0.00000000 0.03860000
vn -0.93680000 -0.00000000 -0.34990000
vn -0.96010000 0.00000000 -0.27960000
vn -0.71780000 0.00000000 -0.69630000
vn -0.79800000 -0.00000000 -0.60270000
vn -0.97560000 0.00000000 0.21970000
vn -0.97560000 -0.00000000 0.21980000
vn -0.93340000 0.00000000 0.35890000
vn -0.91130000 -0.00000000 0.41170000
vn -0.86900000 -0.00000000 0.49490000
vn -0.99050000 0.00000000 0.13780000
vn -0.80980000 0.00000000 0.58680000
vn -0.78260000 -0.00000000 0.62260000
vn -0.67620000 0.00000000 0.73670000
vn -0.67500000 -0.00000000 0.73780000
vn -0.55340000 -0.00000000 0.83290000
vn -0.51260000 -0.00000000 0.85860000
vn -0.41890000 -0.00000000 0.90800000
vn -0.13260000 -0.00000000 0.99120000
vn -0.27790000 -0.00000000 0.96060000
vn -0.18770000 -0.00000000 0.98220000
vn -0.25530000 0.00000000 0.96690000
vn -0.13240000 0.00000000 0.99120000
vn -0.32920000 0.00000000 0.94420000
vn -0.64280000 0.00000000 -0.76610000
vn -0.56340000 -0.00000000 -0.82620000
vn -0.55330000 -0.00000000 -0.83300000
vn -0.72450000 0.00000000 -0.68920000
vn -0.93320000 -0.00000000 -0.35940000
vn -0.99340000 0.00000000 -0.11480000
vn -0.99860000 -0.00000000 0.05320000
vn -0.98030000 -0.00000000 -0.19740000
vn 0.84350000 -0.29390000 0.44960000
vn 0.82820000 -0.29400000 0.47710000
vn 0.85570000 -0.29400000 0.42580000
vn 0.70220000 -0.29410000 0.64840000
vn 0.64640000 -0.29400000 0.70410000
vn 0.69140000 -0.29410000 0.65990000
vn 0.63670000 -0.29410000 0.71280000
vn 0.73830000 -0.29400000 0.60710000
vn 0.87700000 -0.29410000 0.37990000
vn 0.88520000 -0.29410000 0.36040000
vn 0.89310000 -0.29400000 0.34050000
vn 0.93240000 -0.29410000 -0.21000000
vn 0.95560000 -0.29410000 -0.01800000
vn 0.93240000 -0.29410000 -0.21000000
vn 0.95560000 -0.29410000 0.01910000
vn 0.93970000 -0.29410000 0.17480000
vn 0.90960000 -0.29390000 0.29360000
vn 0.92330000 -0.29410000 0.24720000
vn 0.53200000 -0.29410000 0.79410000
vn 0.35760000 -0.29410000 0.88640000
vn 0.40640000 -0.29410000 0.86510000
vn 0.57870000 -0.29400000 0.76070000
vn 0.50330000 -0.29410000 0.81260000
vn 0.44930000 -0.29410000 0.84360000
vn 0.75110000 -0.29400000 0.59110000
vn 0.80100000 -0.29400000 0.52150000
vn 0.79460000 -0.29410000 0.53110000
vn 0.67120000 -0.29410000 0.68040000
vn 0.52050000 -0.29410000 0.80160000
vn -0.93500000 -0.29380000 0.19850000
vn -0.93240000 -0.29410000 0.21000000
vn -0.94670000 -0.29400000 0.13170000
vn -0.95260000 -0.29400000 0.07770000
vn -0.95440000 -0.29410000 0.05090000
vn -0.95540000 -0.29390000 -0.02950000
vn -0.95530000 -0.29400000 -0.03020000
vn -0.94950000 -0.29410000 -0.10970000
vn -0.93940000 -0.29370000 -0.17700000
vn -0.93700000 -0.29400000 -0.18870000
vn -0.91770000 -0.29410000 -0.26720000
vn -0.89730000 -0.29380000 -0.32940000
vn -0.89190000 -0.29400000 -0.34350000
vn -0.85990000 -0.29410000 -0.41710000
vn -0.72850000 -0.29400000 -0.61870000
vn -0.69250000 -0.29410000 -0.65880000
vn -0.66060000 -0.29400000 -0.69080000
vn -0.61430000 -0.29400000 -0.73220000
vn -0.57330000 -0.29390000 -0.76480000
vn -0.76270000 -0.29390000 -0.57610000
vn -0.48330000 -0.29400000 -0.82460000
vn -0.52890000 -0.29410000 -0.79610000
vn -0.45990000 -0.29410000 -0.83780000
vn -0.37420000 -0.29380000 -0.87960000
vn -0.31310000 -0.29410000 -0.90300000
vn -0.26200000 -0.29410000 -0.91920000
vn -0.84790000 -0.29400000 -0.44120000
vn -0.82160000 -0.29400000 -0.48850000
vn -0.79320000 -0.29390000 -0.53330000
vn -0.23710000 -0.29400000 -0.92590000
vn -0.14960000 -0.29390000 -0.94410000
vn 0.14440000 -0.29400000 -0.94480000
vn 0.00780000 -0.29370000 -0.95590000
vn 0.10970000 -0.29410000 -0.94950000
vn -0.07550000 -0.29400000 -0.95280000
vn 0.02960000 -0.29400000 -0.95530000
vn 0.42240000 -0.29390000 -0.85750000
vn 0.48820000 -0.29410000 -0.82170000
vn 0.52930000 -0.29400000 -0.79590000
vn 0.57630000 -0.29400000 -0.76250000
vn 0.61220000 -0.29400000 -0.73410000
vn 0.67780000 -0.29410000 -0.67390000
vn 0.65890000 -0.29400000 -0.69240000
vn 0.71450000 -0.29410000 -0.63480000
vn 0.81170000 -0.29380000 -0.50490000
vn 0.73720000 -0.29400000 -0.60830000
vn 0.76590000 -0.29410000 -0.57180000
vn 0.82460000 -0.29390000 -0.48350000
vn 0.87160000 -0.29400000 -0.39220000
vn 0.87400000 -0.29390000 -0.38700000
vn 0.91030000 -0.29390000 -0.29140000
vn 0.91000000 -0.29390000 -0.29230000
vn 0.93240000 -0.29410000 -0.21000000
vn -0.15740000 -0.29410000 -0.94270000
vn -0.93240000 -0.29410000 0.21000000
vn 0.21970000 0.00440000 0.97550000
vn -0.38780000 -0.29400000 -0.87360000
vn 0.18820000 -0.29400000 -0.93710000
vn 0.26720000 -0.29410000 -0.91770000
vn 0.27830000 -0.29380000 -0.91450000
vn 0.34310000 -0.29400000 -0.89210000
vn 0.41710000 -0.29410000 -0.85990000
vn 0.93240000 -0.29410000 -0.21010000
vt 0.11190700 0.09313600
vt 0.11275200 0.08128800
vt 0.13662600 0.08626600
vt 0.15494100 0.04647900
vt 0.11717300 0.04566100
vt 0.14309200 0.04217800
vt 0.13278500 0.05186200
vt 0.13730000 0.05836000
vt 0.11496400 0.05920000
vt 0.13261500 0.06597800
vt 0.16259200 0.07011200
vt 0.11364300 0.07109100
vt 0.13999900 0.07547200
vt 0.15228800 0.09430300
vt 0.16758800 0.05265900
vt 0.16927200 0.06255900
vt 0.18587700 0.07574700
vt 0.16660300 0.07980100
vt 0.16376500 0.08508800
vt 0.17692000 0.09224800
vt 0.18663300 0.09820100
vt 0.13402600 0.10179700
vt 0.21461400 0.03741900
vt 0.16065900 0.03781600
vt 0.16396400 0.03263500
vt 0.21354500 0.04161900
vt 0.21314500 0.04583400
vt 0.20914600 0.05017200
vt 0.19882200 0.05641300
vt 0.20558100 0.06758500
vt 0.20748000 0.07992300
vt 0.19126400 0.08546300
vt 0.22481500 0.03185200
vt 0.18010800 0.02802400
vt 0.21616200 0.06316900
vt 0.20912300 0.09256200
vt 0.25061200 0.07598300
vt 0.19861400 0.07149400
vt 0.23278800 0.08370300
vt 0.23398500 0.09634300
vt 0.25526000 0.03688100
vt 0.28546900 0.04076400
vt 0.26119200 0.04528200
vt 0.26128900 0.04980900
vt 0.26296000 0.05413200
vt 0.26684000 0.06261700
vt 0.23711100 0.05848100
vt 0.26794500 0.06671200
vt 0.25511700 0.07111900
vt 0.26444800 0.09237300
vt 0.22936700 0.08792800
vt 0.24765300 0.10192800
vt 0.20811100 0.10316000
vt 0.29233300 0.05869900
vt 0.29367800 0.08411500
vt 0.28872300 0.07964000
vt 0.30226900 0.08844100
vt 0.29090600 0.09662900
vt 0.27684200 0.02853300
vt 0.30143600 0.07049900
vt 0.31244400 0.10098900
vt 0.31441100 0.03954300
vt 0.29606100 0.03214900
vt 0.30136000 0.04618900
vt 0.32651700 0.04987100
vt 0.32801000 0.05483300
vt 0.31710200 0.06353900
vt 0.32134200 0.07541100
vt 0.32900800 0.09223900
vt 0.34180800 0.04067400
vt 0.32675000 0.03055600
vt 0.34391900 0.06109500
vt 0.34413100 0.07039000
vt 0.33974100 0.07979800
vt 0.34171600 0.08475400
vt 0.35255800 0.09502800
vt 0.35939600 0.03410200
vt 0.35234400 0.02595300
vt 0.36749300 0.04447400
vt 0.39449500 0.10134700
vt 0.37311900 0.05192700
vt 0.37071100 0.05871700
vt 0.37059100 0.06623300
vt 0.37243700 0.07565600
vt 0.39322000 0.08186900
vt 0.36981100 0.08624200
vt 0.38645500 0.03504400
vt 0.38460500 0.02777100
vt 0.38874100 0.04576100
vt 0.39111400 0.06014800
vt 0.39233100 0.07148700
vt 0.39399600 0.09307100
vt 0.11978000 0.03388300
vt 0.20393700 0.02529600
vt 0.22844200 0.02512200
vt 0.15926000 0.02051700
vt 0.11175700 0.10520100
vt 0.24479900 0.02512200
vt 0.26115600 0.02512200
vt 0.30201800 0.02529500
vt 0.37561400 0.44186100
vt 0.41769300 0.71858000
vt 0.41769300 0.71858000
vt 0.38944600 0.42654400
vt 0.36471200 0.45685000
vt 0.35473900 0.47305900
vt 0.34225000 0.49866800
vt 0.55843900 0.41943500
vt 0.50277100 0.38962700
vt 0.50277100 0.38962700
vt 0.47647900 0.38661200
vt 0.45368900 0.38956500
vt 0.43130400 0.39690700
vt 0.43130400 0.39690700
vt 0.54027400 0.40562600
vt 0.40726200 0.41113100
vt 0.33232100 0.52667200
vt 0.32582600 0.55167300
vt 0.34586900 0.69573600
vt 0.34586900 0.69573600
vt 0.34586900 0.69573600
vt 0.31836000 0.62873000
vt 0.31836000 0.62873000
vt 0.32375300 0.68528800
vt 0.32222500 0.57189500
vt 0.32222500 0.57189500
vt 0.32222500 0.57189500
vt 0.59935900 0.47050900
vt 0.45595900 0.73248900
vt 0.45595900 0.73248900
vt 0.52149500 0.39602400
vt 0.52149500 0.39602400
vt 0.57349500 0.43417100
vt 0.58804000 0.45259400
vt 0.61927900 0.51455200
vt 0.61021300 0.49163600
vt 0.62764000 0.54221000
vt 0.51849800 0.75426000
vt 0.51849800 0.75426000
vt 0.63728300 0.61665400
vt 0.63728300 0.61665400
vt 0.63470200 0.58002900
vt 0.59785200 0.78051100
vt 0.59785200 0.78051100
vt 0.63396300 0.67328500
vt 0.63396300 0.67328500
vt 0.62043600 0.72991600
vt 0.63675600 0.64324900
vt 0.20991200 0.18980200
vt 0.19694500 0.18980200
vt 0.19694500 0.17595200
vt 0.22288000 0.18980200
vt 0.20991200 0.17595200
vt 0.17101000 0.16210100
vt 0.17101000 0.14825100
vt 0.18397700 0.14825100
vt 0.19694500 0.14825100
vt 0.17101000 0.17595200
vt 0.22288000 0.14825100
vt 0.23584700 0.17595200
vt 0.15804300 0.18980200
vt 0.14268300 0.18938300
vt 0.14350500 0.17304000
vt 0.17101000 0.18980200
vt 0.15804300 0.17595200
vt 0.12742900 0.19711200
vt 0.12303200 0.19037500
vt 0.14856600 0.19947700
vt 0.12846000 0.17747300
vt 0.13199600 0.16304500
vt 0.13722400 0.14704400
vt 0.14390200 0.15343800
vt 0.15493100 0.16226900
vt 0.15622600 0.14529400
vt 0.15681000 0.15532600
vt 0.15281000 0.13541500
vt 0.16843200 0.13492700
vt 0.15011300 0.12375600
vt 0.14242600 0.13573700
vt 0.16859200 0.12769500
vt 0.17284200 0.11762500
vt 0.15572500 0.11649000
vt 0.19694500 0.13440100
vt 0.19694500 0.12055100
vt 0.20991200 0.12055100
vt 0.22288000 0.12055100
vt 0.18397700 0.13440100
vt 0.18248600 0.12073100
vt 0.18735100 0.10604900
vt 0.19694500 0.10670100
vt 0.20991200 0.10670100
vt 0.31836500 0.19698200
vt 0.30177300 0.20442500
vt 0.30300100 0.18940900
vt 0.32316000 0.19162400
vt 0.30589400 0.17153800
vt 0.31728600 0.17727200
vt 0.28771700 0.18980200
vt 0.27474900 0.18980200
vt 0.28771700 0.17595200
vt 0.30068400 0.17595200
vt 0.29117300 0.16243200
vt 0.27474900 0.17595200
vt 0.28886300 0.15536300
vt 0.27474900 0.16210100
vt 0.27474900 0.14825100
vt 0.28978600 0.14549600
vt 0.30407200 0.15141600
vt 0.31328500 0.16080100
vt 0.23584700 0.18980200
vt 0.24881500 0.18980200
vt 0.24881500 0.17595200
vt 0.24881500 0.14825100
vt 0.26178200 0.14825100
vt 0.27728900 0.13498500
vt 0.26178200 0.13440100
vt 0.24881500 0.13440100
vt 0.26178200 0.12055100
vt 0.27692500 0.12747900
vt 0.27595900 0.11767300
vt 0.24881500 0.12055100
vt 0.26312800 0.10719700
vt 0.27474900 0.10670100
vt 0.29223900 0.13577300
vt 0.30472800 0.13838000
vt 0.29511000 0.12308900
vt 0.28919800 0.11620200
vt 0.17101000 0.10670100
vt 0.17889400 0.09806900
vt 0.19959100 0.09434200
vt 0.11704600 0.21160500
vt 0.15292800 0.21046500
vt 0.15274700 0.21047000
vt 0.16511400 0.20629500
vt 0.18400400 0.20381000
vt 0.20342900 0.20365200
vt 0.21639600 0.20365200
vt 0.22288000 0.10670100
vt 0.22163500 0.09286200
vt 0.23284400 0.09306100
vt 0.24389400 0.09389100
vt 0.24881500 0.10670100
vt 0.26588800 0.09742700
vt 0.22936300 0.20365200
vt 0.26175500 0.20381000
vt 0.24178800 0.20676100
vt 0.28130000 0.20861600
vt 0.30172900 0.20440800
vt 0.32729800 0.20606500
vt 0.43124700 0.03652000
vt 0.44455300 0.04434000
vt 0.44448500 0.03419200
vt 0.41547600 0.04924300
vt 0.41942700 0.02916800
vt 0.44452600 0.05929300
vt 0.45861400 0.04924300
vt 0.46801100 0.03796300
vt 0.45498500 0.02926200
vt 0.47262200 0.05398700
vt 0.47270100 0.06431800
vt 0.48899300 0.06371200
vt 0.52728400 0.06585300
vt 0.51951100 0.06439600
vt 0.51521900 0.06930600
vt 0.39953600 0.04174900
vt 0.38642600 0.02914300
vt 0.41076600 0.05789000
vt 0.48028500 0.04619400
vt 0.41737900 0.06934300
vt 0.44999100 0.06934300
vt 0.48260400 0.06934300
vt 0.48565400 0.04961900
vt 0.49351600 0.05408000
vt 0.50389600 0.05913800
vt 0.50297600 0.06680000
vt 0.51211800 0.06225000
vt 0.54782800 0.06934300
vt 0.53286400 0.06627800
vt 0.57416600 0.06633400
vt 0.58044000 0.06934300
vt 0.61504200 0.06631100
vt 0.14496400 0.03827700
vt 0.14496400 0.03827700
vt 0.14496400 0.03827700
vt 0.07453800 0.04241700
vt 0.06652700 0.03311200
vt 0.06652700 0.03311200
vt 0.05219800 0.01190200
vt 0.15634000 0.02284900
vt 0.15634000 0.02284900
vt 0.08321400 0.05032400
vt 0.08321400 0.05032400
vt 0.05216300 -0.00000000
vt 0.16329000 -0.00000000
vt 0.16325600 0.01190200
vt 0.13224000 0.05032400
vt 0.12139200 0.74919300
vt 0.11241100 0.76475000
vt 0.13539200 0.77099200
vt 0.11880800 0.73459100
vt 0.13228900 0.74795500
vt 0.12647700 0.72985600
vt 0.12116300 0.71422200
vt 0.11007300 0.69972000
vt 0.11025000 0.71830200
vt 0.11393600 0.69342100
vt 0.13539600 0.75880700
vt 0.10768000 0.67516500
vt 0.10772700 0.73445300
vt 0.10772700 0.79369000
vt 0.12577300 0.79369000
vt 0.14378800 0.79335800
vt 0.12577300 0.79369000
vt 0.11710900 0.83758300
vt 0.13272500 0.83829000
vt 0.14508000 0.81536400
vt 0.14525800 0.83758300
vt 0.14379400 0.79336700
vt 0.10772700 0.88147700
vt 0.11710900 0.83758300
vt 0.10772700 0.79369000
vt 0.12577500 0.88147700
vt 0.13277200 0.83834200
vt 0.14509800 0.85982800
vt 0.14533500 0.84877200
vt 0.14525800 0.83758300
vt 0.14374300 0.88258700
vt 0.12490100 0.95011200
vt 0.11030700 0.95750500
vt 0.11487800 0.97933000
vt 0.10771400 0.94034800
vt 0.11892800 0.94057300
vt 0.11241500 0.91045700
vt 0.13230700 0.92719200
vt 0.12135900 0.92592300
vt 0.13652100 0.90408800
vt 0.13523200 0.91641100
vt 0.10772700 0.88147700
vt 0.11002500 0.97655700
vt 0.12577500 0.88147700
vt 0.10765800 1.00026600
vt 0.14372500 0.88261700
vt 0.03175600 0.11263300
vt 0.30734600 0.14468400
vt 0.01916600 0.14468400
vt 0.01016900 0.17882900
vt 0.31634200 0.17882900
vt 0.04754700 0.08388200
vt 0.29475500 0.11263300
vt 0.24022300 0.03966700
vt 0.08608500 0.03982600
vt 0.10769300 0.02512200
vt 0.26059700 0.05940300
vt 0.06591500 0.05940300
vt 0.27896400 0.08388200
vt 0.32161900 0.21376800
vt 0.00489300 0.21376800
vt 0.01443900 0.33584500
vt 0.00587300 0.29156000
vt 0.31207300 0.33584500
vt 0.02929100 0.37846000
vt 0.29722100 0.37846000
vt 0.00320100 0.24826700
vt 0.32063800 0.29156000
vt 0.05008000 0.41650300
vt 0.25083900 0.44740600
vt 0.07567200 0.44740600
vt 0.13413200 0.48221700
vt 0.10434000 0.46948400
vt 0.22217100 0.46948400
vt 0.32331000 0.24826700
vt 0.21881900 0.02512200
vt 0.19238000 0.48221700
vt 0.16325600 0.48618900
vt 0.27643100 0.41650300
vt 0.13166000 0.03107300
vt 0.13230800 0.02512300
vt 0.11750300 0.02638500
vt 0.10772700 0.03702400
vt 0.10775500 0.02511900
vt 0.11969300 0.03107300
vt 0.14131900 0.03702400
vt 0.15681700 0.02512200
vt 0.18108900 0.02512200
vt 0.17358200 0.03700700
vt 0.20536100 0.02512200
vt 0.20510800 0.03703800
vt 0.22963300 0.02512200
vt 0.27817800 0.02512200
vt 0.25390600 0.02512200
vt 0.26887100 0.03702400
vt 0.23666100 0.03702400
vt 0.36530300 0.02512200
vt 0.37206000 0.03670400
vt 0.38531200 0.03702400
vt 0.33387700 0.02512200
vt 0.33594900 0.03714000
vt 0.35445500 0.03730900
vt 0.42815700 0.02512200
vt 0.43237300 0.03667400
vt 0.44520000 0.03702400
vt 0.49101000 0.02512200
vt 0.51098500 0.03699500
vt 0.52243700 0.02512200
vt 0.45958300 0.02512200
vt 0.47100100 0.03702400
vt 0.39673000 0.02512200
vt 0.41551900 0.03718500
vt 0.30245000 0.03702400
vt 0.52916400 0.03657300
vt 0.55386300 0.02512200
vt 0.31805700 0.03772500
vt 0.30245000 0.02512200
vt 0.39821900 0.03677900
vt 0.45809600 0.03677100
vt 0.48425000 0.03670800
vt 0.49742500 0.03702400
vt 0.54400200 0.03702400
vt 0.55900400 0.03676100
vt 0.57337700 0.03702400
vt 0.58529000 0.02512200
vt 0.58751700 0.03665200
vt 0.60128600 0.03702400
vt 0.67957000 0.02512200
vt 0.68373900 0.03666100
vt 0.69661300 0.03702400
vt 0.74242300 0.02512200
vt 0.76227700 0.03725400
vt 0.77385000 0.02512200
vt 0.71099700 0.02512200
vt 0.72241500 0.03702400
vt 0.64814300 0.02512200
vt 0.66697000 0.03714100
vt 0.80527700 0.02512200
vt 0.80527700 0.03702400
vt 0.82954900 0.02512200
vt 0.83885600 0.03702400
vt 0.85382100 0.02512200
vt 0.79069700 0.03710400
vt 0.87106600 0.03702400
vt 0.87809300 0.02512200
vt 0.90236600 0.02512200
vt 0.90261600 0.03705900
vt 0.92663800 0.02512200
vt 0.93418200 0.03702400
vt 0.95091000 0.02512200
vt 0.99997200 0.02511900
vt 0.97518200 0.02512200
vt 0.99051600 0.02637800
vt 0.97900000 0.02999800
vt 1.00000000 0.03702400
vt 0.96640800 0.03702400
vt 0.63233000 0.03740500
vt 0.61671700 0.02512200
vt 0.61480000 0.03664000
vt 0.64965000 0.03668000
vt 0.70943500 0.03665900
vt 0.74883800 0.03702400
vt 0.77629900 0.03702400
vt 0.73559700 0.03679200
vt 0.72745500 0.06346500
vt 0.73276300 0.05397400
vt 0.72295100 0.05882100
vt 0.76861400 0.05470000
vt 0.78189300 0.03438300
vt 0.77126700 0.02922100
vt 0.78407400 0.05830000
vt 0.75937900 0.03708800
vt 0.71444600 0.06207500
vt 0.71088300 0.06932800
vt 0.70727600 0.06422300
vt 0.61305200 0.06934300
vt 0.64566400 0.06934300
vt 0.61305200 0.06633400
vt 0.65191000 0.06633400
vt 0.67827600 0.06934300
vt 0.69890100 0.06583000
vt 0.69076800 0.06633400
vt 0.80640900 0.02914300
vt 0.83967900 0.02914300
vt 0.83071600 0.03741600
vt 0.79675200 0.04463700
vt 0.81215600 0.04027800
vt 0.82263000 0.04715200
vt 0.75594000 0.05806100
vt 0.74150600 0.04904600
vt 0.74346300 0.06936100
vt 0.77611300 0.06934300
vt 0.80872500 0.06934300
vt 0.38644600 0.83115100
vt 0.38428200 0.83414500
vt 0.39895100 0.83408900
vt 0.40896200 0.83113600
vt 0.41391200 0.83414500
vt 0.42873100 0.83113300
vt 0.42885800 0.83391300
vt 0.44354300 0.83414500
vt 0.45608200 0.83112800
vt 0.45827000 0.83437700
vt 0.47317400 0.83414500
vt 0.48522800 0.83113300
vt 0.48800900 0.83451500
vt 0.50280500 0.83414500
vt 0.54724100 0.83113600
vt 0.55717500 0.83449400
vt 0.56550400 0.83113500
vt 0.57694400 0.83379100
vt 0.58659900 0.83113300
vt 0.53717400 0.83405200
vt 0.60650100 0.83113600
vt 0.59660700 0.83453500
vt 0.61145200 0.83414500
vt 0.62903200 0.83113300
vt 0.64108200 0.83414500
vt 0.65095900 0.83113600
vt 0.50775600 0.83113600
vt 0.51772600 0.83451500
vt 0.52750100 0.83113300
vt 0.65570500 0.83440800
vt 0.67217700 0.83113500
vt 0.72653800 0.83113400
vt 0.70128400 0.83112700
vt 0.72009800 0.83414500
vt 0.68592600 0.83460400
vt 0.70529000 0.83418400
vt 0.78042100 0.83113700
vt 0.79422400 0.83450000
vt 0.80317900 0.83113600
vt 0.81378300 0.83400700
vt 0.82222500 0.83113500
vt 0.83862200 0.83113600
vt 0.83375000 0.83439000
vt 0.84849800 0.83414500
vt 0.87843100 0.83113900
vt 0.85493700 0.83113500
vt 0.86348100 0.83447000
vt 0.88303200 0.83386300
vt 0.90194800 0.83113600
vt 0.90299400 0.83401200
vt 0.92185300 0.83113500
vt 0.92167900 0.83345100
vt 0.93739100 0.83414500
vt 0.67071300 0.83414500
vt 0.61305200 0.06934300
vt 0.10772700 0.79369000
vt 0.62628300 0.83452200
vt 0.73473900 0.83446500
vt 0.74972900 0.83414500
vt 0.75185200 0.83113000
vt 0.76447600 0.83439800
vt 0.77936000 0.83414500
vt 0.93739100 0.83113600
f 1/1/1 2/2/2 3/3/3
f 4/4/4 5/5/5 6/6/6
f 5/5/5 4/4/4 7/7/7
f 7/7/7 8/8/8 9/9/9
f 8/8/8 10/10/10 9/9/9
f 11/11/11 12/12/12 10/10/10
f 13/13/13 2/2/2 12/12/12
f 1/1/1 3/3/3 14/14/14
f 15/15/15 8/8/8 4/4/4
f 15/15/15 16/16/16 8/8/8
f 16/16/16 11/11/11 8/8/8
f 17/17/17 13/13/13 11/11/11
f 18/18/18 2/2/2 13/13/13
f 19/19/19 3/3/3 2/2/2
f 18/18/18 19/19/19 2/2/2
f 20/20/20 14/14/14 19/19/19
f 21/21/21 22/22/22 14/14/14
f 23/23/23 26/26/26 25/25/25
f 26/26/26 27/27/27 24/24/24
f 27/27/27 4/4/4 6/6/6
f 28/28/28 15/15/15 4/4/4
f 29/29/29 16/16/16 15/15/15
f 30/30/30 38/38/38 16/16/16
f 31/31/31 18/18/18 17/17/17
f 32/32/32 19/19/19 18/18/18
f 21/21/21 14/14/14 20/20/20
f 33/33/33 23/23/23 34/34/34
f 35/35/35 16/16/16 29/29/29
f 36/36/36 20/20/20 32/32/32
f 37/37/37 17/17/17 38/38/38
f 39/39/39 51/51/51 31/31/31
f 40/40/40 21/21/21 36/36/36
f 41/41/41 23/23/23 33/33/33
f 42/42/42 43/43/43 23/23/23
f 43/43/43 27/27/27 26/26/26
f 44/44/44 28/28/28 27/27/27
f 45/45/45 29/29/29 28/28/28
f 46/46/46 35/35/35 47/47/47
f 48/48/48 49/49/49 35/35/35
f 49/49/49 37/37/37 30/30/30
f 50/50/50 36/36/36 51/51/51
f 52/52/52 53/53/53 40/40/40
f 54/54/54 47/47/47 45/45/45
f 55/55/55 39/39/39 56/56/56
f 57/57/57 51/51/51 55/55/55
f 58/58/58 40/40/40 50/50/50
f 42/42/42 41/41/41 59/59/59
f 60/60/60 49/49/49 48/48/48
f 61/61/61 52/52/52 58/58/58
f 62/62/62 42/42/42 63/63/63
f 64/64/64 44/44/44 42/42/42
f 65/65/65 45/45/45 64/64/64
f 66/66/66 54/54/54 65/65/65
f 67/67/67 46/46/46 54/54/54
f 60/60/60 48/48/48 67/67/67
f 68/68/68 37/37/37 60/60/60
f 65/65/65 64/64/64 62/62/62
f 69/69/69 50/50/50 57/57/57
f 70/70/70 62/62/62 71/71/71
f 72/72/72 54/54/54 66/66/66
f 73/73/73 60/60/60 67/67/67
f 74/74/74 55/55/55 68/68/68
f 75/75/75 57/57/57 74/74/74
f 76/76/76 58/58/58 69/69/69
f 77/77/77 71/71/71 78/78/78
f 79/79/79 65/65/65 70/70/70
f 76/76/76 69/69/69 75/75/75
f 80/80/80 61/61/61 76/76/76
f 79/79/79 70/70/70 77/77/77
f 65/65/65 79/79/79 66/66/66
f 82/82/82 72/72/72 81/81/81
f 83/83/83 73/73/73 82/82/82
f 84/84/84 68/68/68 73/73/73
f 85/85/85 75/75/75 84/84/84
f 85/85/85 86/86/86 75/75/75
f 87/87/87 79/79/79 88/88/88
f 79/79/79 87/87/87 81/81/81
f 81/81/81 89/89/89 82/82/82
f 90/90/90 83/83/83 82/82/82
f 83/83/83 91/91/91 73/73/73
f 86/86/86 92/92/92 76/76/76
f 92/92/92 86/86/86 85/85/85
f 9/9/9 5/5/5 7/7/7
f 5/5/5 93/93/93 6/6/6
f 33/33/33 94/94/94 95/95/95
f 96/96/96 34/34/34 25/25/25
f 33/33/33 34/34/34 94/94/94
f 10/10/10 12/12/12 9/9/9
f 97/97/97 1/1/1 22/22/22
f 22/22/22 21/21/21 53/53/53
f 41/41/41 33/33/33 98/98/98
f 41/41/41 98/98/98 99/99/99
f 63/63/63 59/59/59 100/100/100
f 59/59/59 41/41/41 99/99/99
f 71/71/71 62/62/62 100/100/100
f 83/83/83 90/90/90 91/91/91
f 91/91/91 85/85/85 84/84/84
f 101/101/101 102/102/102 104/104/104
f 105/105/105 102/102/102 101/101/101
f 102/102/102 105/105/105 106/106/106
f 106/106/106 107/107/107 102/102/102
f 104/104/104 102/102/102 108/108/108
f 110/110/110 111/111/111 112/112/112
f 110/110/110 112/112/112 114/114/114
f 115/115/115 114/114/114 116/116/116
f 108/108/108 116/116/116 104/104/104
f 117/117/117 118/118/118 102/102/102
f 120/120/120 123/123/123 124/124/124
f 122/122/122 121/121/121 127/127/127
f 125/125/125 102/102/102 118/118/118
f 102/102/102 107/107/107 117/117/117
f 103/103/103 126/126/126 119/119/119
f 128/128/128 102/102/102 130/130/130
f 109/109/109 113/113/113 131/131/131
f 114/114/114 115/115/115 132/132/132
f 116/116/116 108/108/108 115/115/115
f 102/102/102 133/133/133 108/108/108
f 102/102/102 134/134/134 133/133/133
f 134/134/134 102/102/102 128/128/128
f 130/130/130 135/135/135 136/136/136
f 128/128/128 130/130/130 136/136/136
f 130/130/130 137/137/137 135/135/135
f 129/129/129 139/139/139 141/141/141
f 130/130/130 142/142/142 137/137/137
f 139/139/139 144/144/144 146/146/146
f 147/147/147 145/145/145 143/143/143
f 142/142/142 130/130/130 140/140/140
f 138/138/138 145/145/145 148/148/148
f 138/138/138 148/148/148 140/140/140
f 151/151/151 153/153/153 149/149/149
f 152/152/152 149/149/149 153/153/153
f 154/154/154 155/155/155 156/156/156
f 156/156/156 157/157/157 151/151/151
f 151/151/151 150/150/150 158/158/158
f 154/154/154 156/156/156 151/151/151
f 153/153/153 151/151/151 157/157/157
f 159/159/159 160/160/160 153/153/153
f 157/157/157 159/159/159 153/153/153
f 161/161/161 168/168/168 162/162/162
f 164/164/164 161/161/161 165/165/165
f 167/167/167 169/169/169 166/166/166
f 168/168/168 166/166/166 162/162/162
f 169/169/169 170/170/170 162/162/162
f 170/170/170 171/171/171 172/172/172
f 158/158/158 165/165/165 173/173/173
f 170/170/170 172/172/172 163/163/163
f 163/163/163 173/173/173 165/165/165
f 172/172/172 171/171/171 174/174/174
f 174/174/174 175/175/175 172/172/172
f 155/155/155 154/154/154 174/174/174
f 154/154/154 158/158/158 175/175/175
f 177/177/177 155/155/155 176/176/176
f 171/171/171 179/179/179 174/174/174
f 178/178/178 176/176/176 179/179/179
f 180/180/180 177/177/177 178/178/178
f 178/178/178 181/181/181 180/180/180
f 178/178/178 182/182/182 181/181/181
f 183/183/183 184/184/184 185/185/185
f 185/185/185 186/186/186 159/159/159
f 159/159/159 157/157/157 183/183/183
f 183/183/183 185/185/185 159/159/159
f 187/187/187 183/183/183 157/157/157
f 177/177/177 187/187/187 156/156/156
f 188/188/188 187/187/187 181/181/181
f 187/187/187 177/177/177 180/180/180
f 188/188/188 184/184/184 183/183/183
f 189/189/189 190/190/190 184/184/184
f 184/184/184 188/188/188 189/189/189
f 191/191/191 238/238/238 186/186/186
f 190/190/190 191/191/191 185/185/185
f 192/192/192 193/193/193 194/194/194
f 194/194/194 197/197/197 192/192/192
f 194/194/194 196/196/196 197/197/197
f 198/198/198 199/199/199 200/200/200
f 194/194/194 198/198/198 201/201/201
f 196/196/196 201/201/201 200/200/200
f 202/202/202 196/196/196 200/200/200
f 200/200/200 203/203/203 202/202/202
f 202/202/202 203/203/203 204/204/204
f 204/204/204 205/205/205 207/207/207
f 204/204/204 207/207/207 208/208/208
f 202/202/202 208/208/208 196/196/196
f 210/210/210 152/152/152 160/160/160
f 210/210/210 160/160/160 212/212/212
f 213/213/213 212/212/212 160/160/160
f 159/159/159 213/213/213 160/160/160
f 214/214/214 206/206/206 205/205/205
f 203/203/203 211/211/211 212/212/212
f 212/212/212 213/213/213 214/214/214
f 214/214/214 205/205/205 212/212/212
f 214/214/214 216/216/216 215/215/215
f 213/213/213 217/217/217 216/216/216
f 217/217/217 221/221/221 218/218/218
f 219/219/219 215/215/215 216/216/216
f 219/219/219 216/216/216 220/220/220
f 217/217/217 213/213/213 159/159/159
f 186/186/186 221/221/221 217/217/217
f 159/159/159 186/186/186 217/217/217
f 220/220/220 218/218/218 223/223/223
f 221/221/221 242/242/242 222/222/222
f 208/208/208 207/207/207 225/225/225
f 224/224/224 226/226/226 225/225/225
f 207/207/207 206/206/206 224/224/224
f 224/224/224 215/215/215 226/226/226
f 220/220/220 227/227/227 219/219/219
f 189/189/189 228/228/228 229/229/229
f 228/228/228 181/181/181 182/182/182
f 229/229/229 228/228/228 182/182/182
f 230/230/230 189/189/189 229/229/229
f 190/190/190 230/230/230 191/191/191
f 166/166/166 231/231/231 167/167/167
f 232/232/232 231/231/231 166/166/166
f 166/166/166 168/168/168 233/233/233
f 161/161/161 234/234/234 168/168/168
f 234/234/234 161/161/161 164/164/164
f 234/234/234 164/164/164 235/235/235
f 164/164/164 158/158/158 235/235/235
f 150/150/150 149/149/149 236/236/236
f 149/149/149 237/237/237 236/236/236
f 236/236/236 235/235/235 150/150/150
f 238/238/238 191/191/191 239/239/239
f 238/238/238 239/239/239 240/240/240
f 240/240/240 241/241/241 242/242/242
f 186/186/186 238/238/238 242/242/242
f 242/242/242 238/238/238 240/240/240
f 242/242/242 243/243/243 222/222/222
f 242/242/242 241/241/241 243/243/243
f 243/243/243 223/223/223 222/222/222
f 223/223/223 227/227/227 220/220/220
f 227/227/227 223/223/223 243/243/243
f 152/152/152 210/210/210 244/244/244
f 199/199/199 245/245/245 203/203/203
f 210/210/210 211/211/211 246/246/246
f 209/209/209 208/208/208 225/225/225
f 246/246/246 211/211/211 245/245/245
f 199/199/199 247/247/247 245/245/245
f 193/193/193 247/247/247 194/194/194
f 247/247/247 199/199/199 198/198/198
f 152/152/152 237/237/237 149/149/149
f 196/196/196 209/209/209 197/197/197
f 248/248/248 192/192/192 249/249/249
f 249/249/249 192/192/192 195/195/195
f 191/191/191 230/230/230 239/239/239
f 250/250/250 251/251/251 252/252/252
f 253/253/253 250/250/250 254/254/254
f 250/250/250 253/253/253 251/251/251
f 253/253/253 255/255/255 251/251/251
f 256/256/256 257/257/257 258/258/258
f 259/259/259 257/257/257 256/256/256
f 258/258/258 252/252/252 251/251/251
f 261/261/261 272/272/272 260/260/260
f 255/255/255 256/256/256 251/251/251
f 256/256/256 255/255/255 259/259/259
f 262/262/262 263/263/263 264/264/264
f 265/265/265 254/254/254 266/266/266
f 250/250/250 252/252/252 254/254/254
f 258/258/258 254/254/254 252/252/252
f 265/265/265 253/253/253 254/254/254
f 267/267/267 253/253/253 265/265/265
f 268/268/268 257/257/257 259/259/259
f 269/269/269 255/255/255 267/267/267
f 255/255/255 253/253/253 267/267/267
f 270/270/270 255/255/255 269/269/269
f 260/260/260 259/259/259 270/270/270
f 271/271/271 260/260/260 270/270/270
f 272/272/272 261/261/261 273/273/273
f 261/261/261 260/260/260 271/271/271
f 261/261/261 275/275/275 273/273/273
f 275/275/275 261/261/261 271/271/271
f 259/259/259 272/272/272 268/268/268
f 275/275/275 276/276/276 274/274/274
f 264/264/264 263/263/263 276/276/276
f 264/264/264 276/276/276 275/275/275
f 271/271/271 264/264/264 275/275/275
f 264/264/264 277/277/277 262/262/262
f 277/277/277 278/278/278 262/262/262
f 279/279/279 280/280/280 281/281/281
f 277/277/277 280/280/280 279/279/279
f 278/278/278 277/277/277 279/279/279
f 284/284/284 285/285/285 286/286/286
f 286/286/286 288/288/288 289/289/289
f 285/285/285 284/284/284 292/292/292
f 294/294/294 295/295/295 288/288/288
f 289/289/289 288/288/288 295/295/295
f 287/287/287 290/290/290 283/283/283
f 296/296/296 291/291/291 282/282/282
f 298/298/298 311/311/311 299/299/299
f 300/300/300 309/309/309 297/297/297
f 300/300/300 297/297/297 302/302/302
f 303/303/303 304/304/304 305/305/305
f 306/306/306 304/304/304 303/303/303
f 305/305/305 309/309/309 300/300/300
f 299/299/299 301/301/301 297/297/297
f 307/307/307 301/301/301 299/299/299
f 308/308/308 304/304/304 306/306/306
f 309/309/309 305/305/305 304/304/304
f 310/310/310 298/298/298 309/309/309
f 300/300/300 302/302/302 303/303/303
f 311/311/311 298/298/298 310/310/310
f 311/311/311 312/312/312 299/299/299
f 307/307/307 299/299/299 312/312/312
f 315/315/315 316/316/316 313/313/313
f 317/317/317 316/316/316 315/315/315
f 318/318/318 313/313/313 316/316/316
f 319/319/319 320/320/320 321/321/321
f 319/319/319 322/322/322 320/320/320
f 323/323/323 320/320/320 322/322/322
f 324/324/324 323/323/323 322/322/322
f 325/325/325 326/326/326 323/323/323
f 322/322/322 327/327/327 324/324/324
f 325/325/325 323/323/323 324/324/324
f 328/328/328 329/329/329 330/330/330
f 331/331/331 329/329/329 332/332/332
f 328/328/328 332/332/332 329/329/329
f 332/332/332 335/335/335 331/331/331
f 334/334/334 335/335/335 328/328/328
f 336/336/336 340/340/340 333/333/333
f 337/337/337 336/336/336 334/334/334
f 333/333/333 338/338/338 331/331/331
f 339/339/339 329/329/329 331/331/331
f 333/333/333 340/340/340 338/338/338
f 341/341/341 339/339/339 331/331/331
f 341/341/341 330/330/330 339/339/339
f 342/342/342 336/336/336 337/337/337
f 336/336/336 342/342/342 340/340/340
f 343/343/343 344/344/344 345/345/345
f 346/346/346 345/345/345 347/347/347
f 343/343/343 348/348/348 349/349/349
f 350/350/350 351/351/351 352/352/352
f 351/351/351 353/353/353 354/354/354
f 348/348/348 354/354/354 355/355/355
f 356/356/356 357/357/357 346/346/346
f 358/358/358 359/359/359 360/360/360
f 361/361/361 358/358/358 362/362/362
f 363/363/363 364/364/364 359/359/359
f 365/365/365 366/366/366 367/367/367
f 368/368/368 369/369/369 370/370/370
f 369/369/369 367/367/367 366/366/366
f 361/361/361 362/362/362 365/365/365
f 371/371/371 364/364/364 357/357/357
f 352/352/352 372/372/372 350/350/350
f 350/350/350 353/353/353 351/351/351
f 354/354/354 353/353/353 355/355/355
f 349/349/349 344/344/344 343/343/343
f 356/356/356 346/346/346 347/347/347
f 345/345/345 344/344/344 347/347/347
f 355/355/355 349/349/349 348/348/348
f 356/356/356 371/371/371 357/357/357
f 370/370/370 373/373/373 368/368/368
f 373/373/373 374/374/374 368/368/368
f 370/370/370 369/369/369 366/366/366
f 362/362/362 358/358/358 360/360/360
f 365/365/365 375/375/375 366/366/366
f 365/365/365 362/362/362 375/375/375
f 360/360/360 359/359/359 364/364/364
f 376/376/376 377/377/377 378/378/378
f 379/379/379 378/378/378 380/380/380
f 378/378/378 379/379/379 381/381/381
f 382/382/382 376/376/376 381/381/381
f 376/376/376 383/383/383 377/377/377
f 378/378/378 377/377/377 380/380/380
f 384/384/384 383/383/383 385/385/385
f 385/385/385 383/383/383 376/376/376
f 386/386/386 387/387/387 388/388/388
f 389/389/389 390/390/390 391/391/391
f 390/390/390 388/388/388 392/392/392
f 384/384/384 385/385/385 387/387/387
f 393/393/393 394/394/394 395/395/395
f 396/396/396 397/397/397 398/398/398
f 399/399/399 400/400/400 401/401/401
f 402/402/402 403/403/403 404/404/404
f 405/405/405 406/406/406 402/402/402
f 407/407/407 408/408/408 399/399/399
f 389/389/389 391/391/391 409/409/409
f 404/404/404 410/410/410 411/411/411
f 376/376/376 382/382/382 385/385/385
f 412/412/412 413/413/413 409/409/409
f 391/391/391 390/390/390 392/392/392
f 407/407/407 395/395/395 414/414/414
f 394/394/394 393/393/393 398/398/398
f 397/397/397 396/396/396 412/412/412
f 407/407/407 414/414/414 408/408/408
f 399/399/399 408/408/408 400/400/400
f 415/415/415 405/405/405 401/401/401
f 402/402/402 416/416/416 417/417/417
f 410/410/410 404/404/404 403/403/403
f 403/403/403 402/402/402 417/417/417
f 406/406/406 405/405/405 415/415/415
f 418/418/418 419/419/419 411/411/411
f 419/419/419 420/420/420 411/411/411
f 421/421/421 422/422/422 423/423/423
f 424/424/424 425/425/425 426/426/426
f 427/427/427 428/428/428 429/429/429
f 430/430/430 431/431/431 427/427/427
f 432/432/432 433/433/433 424/424/424
f 434/434/434 435/435/435 436/436/436
f 436/436/436 437/437/437 438/438/438
f 429/429/429 439/439/439 434/434/434
f 438/438/438 440/440/440 441/441/441
f 442/442/442 443/443/443 444/444/444
f 441/441/441 440/440/440 443/443/443
f 444/444/444 445/445/445 446/446/446
f 420/420/420 421/421/421 411/411/411
f 447/447/447 448/448/448 449/449/449
f 448/448/448 450/450/450 449/449/449
f 450/450/450 451/451/451 449/449/449
f 450/450/450 446/446/446 452/452/452
f 447/447/447 449/449/449 451/451/451
f 448/448/448 446/446/446 450/450/450
f 421/421/421 420/420/420 422/422/422
f 453/453/453 454/454/454 455/455/455
f 455/455/455 454/454/454 423/423/423
f 433/433/433 432/432/432 456/456/456
f 430/430/430 426/426/426 457/457/457
f 425/425/425 424/424/424 433/433/433
f 456/456/456 432/432/432 453/453/453
f 430/430/430 457/457/457 431/431/431
f 427/427/427 458/458/458 428/428/428
f 429/429/429 428/428/428 459/459/459
f 458/458/458 427/427/427 460/460/460
f 435/435/435 434/434/434 439/439/439
f 446/446/446 445/445/445 452/452/452
f 450/450/450 452/452/452 451/451/451
f 440/440/440 438/438/438 437/437/437
f 439/439/439 429/429/429 459/459/459
f 461/461/461 462/462/462 463/463/463
f 464/464/464 467/467/467 465/465/465
f 468/468/468 464/464/464 466/466/466
f 461/461/461 463/463/463 469/469/469
f 470/470/470 469/469/469 471/471/471
f 469/469/469 470/470/470 461/461/461
f 472/472/472 473/473/473 474/474/474
f 475/475/475 474/474/474 473/473/473
f 476/476/476 475/475/475 473/473/473
f 476/476/476 477/477/477 478/478/478
f 476/476/476 470/470/470 477/477/477
f 475/475/475 476/476/476 478/478/478
f 470/470/470 471/471/471 477/477/477
f 466/466/466 465/465/465 479/479/479
f 480/480/480 479/479/479 481/481/481
f 479/479/479 482/482/482 483/483/483
f 482/482/482 479/479/479 465/465/465
f 483/483/483 484/484/484 481/481/481
f 483/483/483 481/481/481 479/479/479
f 485/485/485 486/486/486 487/487/487
f 462/462/462 487/487/487 486/486/486
f 470/470/470 487/487/487 461/461/461
f 485/485/485 468/468/468 486/486/486
f 488/488/488 464/464/464 485/485/485
f 467/467/467 464/464/464 488/488/488
f 487/487/487 488/488/488 485/485/485
f 489/489/489 483/483/483 482/482/482
f 488/488/488 489/489/489 467/467/467
f 482/482/482 467/467/467 489/489/489
f 489/489/489 484/484/484 483/483/483
f 490/490/490 491/491/491 492/492/492
f 493/493/493 494/494/494 495/495/495
f 495/495/495 496/496/496 497/497/497
f 493/493/493 492/492/492 494/494/494
f 498/498/498 499/499/499 500/500/500
f 501/501/501 502/502/502 503/503/503
f 501/501/501 500/500/500 502/502/502
f 504/504/504 505/505/505 506/506/506
f 506/506/506 507/507/507 508/508/508
f 504/504/504 509/509/509 505/505/505
f 510/510/510 511/511/511 512/512/512
f 513/513/513 514/514/514 515/515/515
f 510/510/510 512/512/512 513/513/513
f 508/508/508 507/507/507 511/511/511
f 516/516/516 517/517/517 518/518/518
f 519/519/519 520/520/520 515/515/515
f 521/521/521 522/522/522 523/523/523
f 522/522/522 524/524/524 525/525/525
f 526/526/526 527/527/527 528/528/528
f 528/528/528 529/529/529 530/530/530
f 531/531/531 532/532/532 533/533/533
f 534/534/534 535/535/535 536/536/536
f 535/535/535 533/533/533 536/536/536
f 530/530/530 532/532/532 531/531/531
f 534/534/534 537/537/537 538/538/538
f 538/538/538 539/539/539 540/540/540
f 540/540/540 541/541/541 542/542/542
f 534/534/534 536/536/536 537/537/537
f 543/543/543 520/520/520 519/519/519
f 24/24/24 93/93/93 25/25/25
f 6/6/6 93/93/93 24/24/24
f 13/13/13 12/12/12 11/11/11
f 22/22/22 1/1/1 14/14/14
f 18/18/18 13/13/13 17/17/17
f 14/14/14 3/3/3 19/19/19
f 28/28/28 4/4/4 27/27/27
f 29/29/29 15/15/15 28/28/28
f 17/17/17 11/11/11 38/38/38
f 32/32/32 18/18/18 31/31/31
f 20/20/20 19/19/19 32/32/32
f 30/30/30 16/16/16 35/35/35
f 36/36/36 32/32/32 51/51/51
f 21/21/21 20/20/20 36/36/36
f 35/35/35 29/29/29 47/47/47
f 31/31/31 17/17/17 37/37/37
f 53/53/53 21/21/21 40/40/40
f 42/42/42 23/23/23 41/41/41
f 44/44/44 27/27/27 43/43/43
f 45/45/45 28/28/28 44/44/44
f 47/47/47 29/29/29 45/45/45
f 48/48/48 35/35/35 46/46/46
f 39/39/39 31/31/31 37/37/37
f 40/40/40 36/36/36 50/50/50
f 46/46/46 47/47/47 54/54/54
f 39/39/39 37/37/37 56/56/56
f 51/51/51 39/39/39 55/55/55
f 50/50/50 51/51/51 57/57/57
f 52/52/52 40/40/40 58/58/58
f 37/37/37 49/49/49 60/60/60
f 42/42/42 59/59/59 63/63/63
f 48/48/48 46/46/46 67/67/67
f 56/56/56 37/37/37 68/68/68
f 64/64/64 42/42/42 62/62/62
f 58/58/58 50/50/50 69/69/69
f 65/65/65 62/62/62 70/70/70
f 67/67/67 54/54/54 72/72/72
f 68/68/68 60/60/60 73/73/73
f 69/69/69 57/57/57 75/75/75
f 61/61/61 58/58/58 76/76/76
f 70/70/70 71/71/71 77/77/77
f 73/73/73 67/67/67 72/72/72
f 74/74/74 68/68/68 84/84/84
f 76/76/76 75/75/75 86/86/86
f 77/77/77 78/78/78 88/88/88
f 84/84/84 73/73/73 91/91/91
f 80/80/80 76/76/76 92/92/92
f 33/33/33 95/95/95 98/98/98
f 152/152/152 153/153/153 160/160/160
f 161/161/161 163/163/163 165/165/165
f 164/164/164 165/165/165 158/158/158
f 173/173/173 172/172/172 175/175/175
f 181/181/181 228/228/228 188/188/188
f 190/190/190 189/189/189 230/230/230
f 194/194/194 201/201/201 196/196/196
f 199/199/199 203/203/203 200/200/200
f 198/198/198 200/200/200 201/201/201
f 202/202/202 204/204/204 208/208/208
f 152/152/152 244/244/244 237/237/237
f 210/210/210 246/246/246 244/244/244
f 280/280/280 544/544/544 281/281/281
f 309/309/309 304/304/304 308/308/308
f 545/545/545 314/314/314 313/313/313
f 330/330/330 329/329/329 339/339/339
f 334/334/334 336/336/336 335/335/335
f 376/376/376 378/378/378 381/381/381
f 382/382/382 381/381/381 379/379/379
f 387/387/387 392/392/392 388/388/388
f 384/384/384 387/387/387 386/386/386
f 413/413/413 412/412/412 396/396/396
f 393/393/393 395/395/395 407/407/407
f 396/396/396 398/398/398 393/393/393
f 399/399/399 401/401/401 405/405/405
f 406/406/406 416/416/416 402/402/402
f 389/389/389 409/409/409 413/413/413
f 410/410/410 418/418/418 411/411/411
f 454/454/454 453/453/453 432/432/432
f 421/421/421 423/423/423 454/454/454
f 424/424/424 426/426/426 430/430/430
f 431/431/431 460/460/460 427/427/427
f 435/435/435 437/437/437 436/436/436
f 443/443/443 445/445/445 444/444/444
f 441/441/441 443/443/443 442/442/442
f 487/487/487 462/462/462 461/461/461
f 464/464/464 468/468/468 485/485/485
f 482/482/482 465/465/465 467/467/467
f 490/490/490 492/492/492 493/493/493
f 494/494/494 496/496/496 495/495/495
f 495/495/495 497/497/497 498/498/498
f 498/498/498 500/500/500 501/501/501
f 503/503/503 517/517/517 516/516/516
f 501/501/501 503/503/503 516/516/516
f 497/497/497 499/499/499 498/498/498
f 517/517/517 509/509/509 518/518/518
f 518/518/518 509/509/509 504/504/504
f 505/505/505 507/507/507 506/506/506
f 508/508/508 511/511/511 510/510/510
f 514/514/514 519/519/519 515/515/515
f 546/546/546 514/514/514 513/513/513
f 512/512/512 546/546/546 513/513/513
f 543/543/543 524/524/524 520/520/520
f 520/520/520 524/524/524 522/522/522
f 521/521/521 523/523/523 547/547/547
f 522/522/522 525/525/525 523/523/523
f 547/547/547 548/548/548 549/549/549
f 548/548/548 550/550/550 549/549/549
f 550/550/550 551/551/551 526/526/526
f 551/551/551 527/527/527 526/526/526
f 549/549/549 550/550/550 526/526/526
f 521/521/521 547/547/547 549/549/549
f 529/529/529 532/532/532 530/530/530
f 531/531/531 533/533/533 535/535/535
f 537/537/537 539/539/539 538/538/538
f 539/539/539 541/541/541 540/540/540
f 540/540/540 542/542/542 552/552/552
f 527/527/527 529/529/529 528/528/528
f 8/8/8 7/7/7 4/4/4
f 11/11/11 10/10/10 8/8/8
f 26/26/26 24/24/24 25/25/25
f 27/27/27 6/6/6 24/24/24
f 38/38/38 11/11/11 16/16/16
f 23/23/23 25/25/25 34/34/34
f 51/51/51 32/32/32 31/31/31
f 43/43/43 26/26/26 23/23/23
f 49/49/49 30/30/30 35/35/35
f 37/37/37 38/38/38 30/30/30
f 44/44/44 43/43/43 42/42/42
f 45/45/45 44/44/44 64/64/64
f 54/54/54 45/45/45 65/65/65
f 55/55/55 56/56/56 68/68/68
f 57/57/57 55/55/55 74/74/74
f 79/79/79 81/81/81 66/66/66
f 72/72/72 66/66/66 81/81/81
f 73/73/73 72/72/72 82/82/82
f 75/75/75 74/74/74 84/84/84
f 79/79/79 77/77/77 88/88/88
f 87/87/87 89/89/89 81/81/81
f 89/89/89 90/90/90 82/82/82
f 62/62/62 63/63/63 100/100/100
f 151/151/151 149/149/149 150/150/150
f 151/151/151 158/158/158 154/154/154
f 161/161/161 162/162/162 163/163/163
f 169/169/169 162/162/162 166/166/166
f 170/170/170 163/163/163 162/162/162
f 172/172/172 173/173/173 163/163/163
f 154/154/154 175/175/175 174/174/174
f 158/158/158 173/173/173 175/175/175
f 155/155/155 174/174/174 176/176/176
f 179/179/179 176/176/176 174/174/174
f 177/177/177 176/176/176 178/178/178
f 187/187/187 157/157/157 156/156/156
f 177/177/177 156/156/156 155/155/155
f 187/187/187 180/180/180 181/181/181
f 188/188/188 183/183/183 187/187/187
f 191/191/191 186/186/186 185/185/185
f 190/190/190 185/185/185 184/184/184
f 197/197/197 195/195/195 192/192/192
f 203/203/203 205/205/205 204/204/204
f 205/205/205 206/206/206 207/207/207
f 208/208/208 209/209/209 196/196/196
f 210/210/210 212/212/212 211/211/211
f 203/203/203 212/212/212 205/205/205
f 214/214/214 215/215/215 206/206/206
f 213/213/213 216/216/216 214/214/214
f 217/217/217 218/218/218 216/216/216
f 216/216/216 218/218/218 220/220/220
f 218/218/218 222/222/222 223/223/223
f 221/221/221 222/222/222 218/218/218
f 207/207/207 224/224/224 225/225/225
f 206/206/206 215/215/215 224/224/224
f 215/215/215 219/219/219 226/226/226
f 227/227/227 226/226/226 219/219/219
f 158/158/158 150/150/150 235/235/235
f 186/186/186 242/242/242 221/221/221
f 245/245/245 211/211/211 203/203/203
f 247/247/247 198/198/198 194/194/194
f 258/258/258 251/251/251 256/256/256
f 272/272/272 259/259/259 260/260/260
f 259/259/259 255/255/255 270/270/270
f 275/275/275 274/274/274 273/273/273
f 294/294/294 288/288/288 293/293/293
f 298/298/298 299/299/299 297/297/297
f 309/309/309 298/298/298 297/297/297
f 297/297/297 301/301/301 302/302/302
f 305/305/305 300/300/300 303/303/303
f 315/315/315 313/313/313 314/314/314
f 335/335/335 333/333/333 331/331/331
f 335/335/335 332/332/332 328/328/328
f 336/336/336 333/333/333 335/335/335
f 364/364/364 363/363/363 357/357/357
f 464/464/464 465/465/465 466/466/466
f 228/228/228 189/189/189 188/188/188

