mtllib material.mtl
usemtl Material-7011油漆.001
v -0.01099900 -0.03958200 -0.28871600
v -0.00424700 -0.03908100 -0.29008100
v 0.00216000 -0.03958200 -0.29021800
v 0.00216000 -0.03958200 -0.29021800
v 0.03888500 -0.03955700 -0.23921300
v 0.04033100 -0.02661200 -0.24744200
v 0.03776700 -0.02660900 -0.23568400
v 0.02466200 -0.03958700 -0.21801300
v 0.03170700 -0.02661000 -0.22484900
v 0.02447000 -0.02660400 -0.21803100
v 0.01828300 -0.02720500 -0.21405300
v 0.01544900 -0.03955000 -0.21277800
v 0.00913600 -0.02660200 -0.21066900
v 0.00791900 -0.03957200 -0.21052400
v 0.03566400 -0.03957100 -0.23135500
v 0.03927900 -0.03952000 -0.25889200
v 0.03989800 -0.02708500 -0.25588400
v 0.04028700 -0.03956700 -0.24867800
v -0.00039100 -0.03957500 -0.20961800
v -0.00018800 -0.02660500 -0.20971500
v -0.00810900 -0.02660400 -0.21054900
v -0.00858500 -0.03907200 -0.21061200
v -0.01710300 -0.02660300 -0.21338800
v -0.02290900 -0.03957900 -0.21680100
v -0.02538500 -0.02711700 -0.21870400
v -0.02982900 -0.03910200 -0.22289700
v -0.03926500 -0.03310000 -0.24115500
v -0.03847300 -0.03957000 -0.23802900
v -0.03543200 -0.03956800 -0.23060800
v -0.03091600 -0.02660400 -0.22410800
v -0.03660600 -0.02660400 -0.23300100
v -0.03993300 -0.02660500 -0.24466700
v -0.03926500 -0.03310000 -0.24115500
v -0.04025000 -0.03957100 -0.24870700
v -0.03847300 -0.03957000 -0.23802900
v -0.04028100 -0.02660900 -0.25262000
v -0.03972000 -0.03956700 -0.25697700
v -0.03824000 -0.02660700 -0.26266600
v -0.03667900 -0.03957300 -0.26680300
v -0.03448400 -0.02661100 -0.27094500
v -0.03178500 -0.03904000 -0.27476300
v -0.02935600 -0.02661500 -0.27757700
v -0.02524400 -0.03958600 -0.28148400
v -0.02174700 -0.02662400 -0.28399600
v -0.03993300 -0.02660500 -0.24466700
v -0.00516700 -0.02669100 -0.29002800
v -0.01099900 -0.03958200 -0.28871600
v -0.01345500 -0.02662100 -0.28793000
v -0.00424700 -0.03908100 -0.29008100
v 0.00216000 -0.03958200 -0.29021800
v 0.01005800 -0.03899000 -0.28909000
v 0.00883000 -0.02693800 -0.28934700
v 0.01788400 -0.02660100 -0.28617200
v 0.00199500 -0.02669900 -0.29018700
v 0.02432500 -0.03954600 -0.28220700
v 0.02539100 -0.02677800 -0.28127900
v 0.03195100 -0.02673100 -0.27486000
v 0.03166000 -0.03957600 -0.27502700
v 0.03638300 -0.03957100 -0.26720500
v 0.01659400 -0.03958200 -0.28667000
v 0.03927900 -0.03952000 -0.25889200
v 0.03698000 -0.02660800 -0.26591000
v 0.03989800 -0.02708500 -0.25588400
v 0.03566400 -0.03957100 -0.23135500
v 0.03196700 -0.03906500 -0.22543800
v 0.02466200 -0.03958700 -0.21801300
v -0.02290900 -0.03957900 -0.21680100
v -0.02982900 -0.03910200 -0.22289700
v -0.03543200 -0.03956800 -0.23060800
v 0.03638300 -0.03957100 -0.26720500
v 0.03195000 -0.03960000 -0.25719600
v 0.02862900 -0.03960000 -0.26590600
v 0.03927900 -0.03952000 -0.25889200
v 0.03166000 -0.03957600 -0.27502700
v 0.02298800 -0.03960000 -0.27332700
v 0.03268400 -0.03960000 -0.24790300
v 0.04028700 -0.03956700 -0.24867800
v 0.03566400 -0.03957100 -0.23135500
v 0.03076900 -0.03960000 -0.23878000
v 0.03888500 -0.03955700 -0.23921300
v 0.02466200 -0.03958700 -0.21801300
v 0.02636200 -0.03960000 -0.23056600
v 0.01659400 -0.03958200 -0.28667000
v 0.02432500 -0.03954600 -0.28220700
v 0.01548500 -0.03960000 -0.27885800
v 0.00672700 -0.03960000 -0.28205100
v 0.00216000 -0.03958200 -0.29021800
v -0.00257600 -0.03960000 -0.28264800
v -0.01099900 -0.03958200 -0.28871600
v -0.01166900 -0.03960000 -0.28060000
v -0.01981800 -0.03960000 -0.27607200
v -0.02524400 -0.03958600 -0.28148400
v -0.02636000 -0.03960000 -0.26943200
v 0.01544900 -0.03955000 -0.21277800
v 0.01544900 -0.03955000 -0.21277800
v 0.01167100 -0.03960000 -0.21939900
v 0.01981900 -0.03960000 -0.22392700
v 0.00791900 -0.03957200 -0.21052400
v -0.00039100 -0.03957500 -0.20961800
v 0.00257700 -0.03960000 -0.21735100
v -0.00672500 -0.03960000 -0.21794700
v -0.01483500 -0.03957700 -0.21258000
v -0.01548300 -0.03960000 -0.22114100
v -0.02290900 -0.03957900 -0.21680100
v -0.02298600 -0.03960000 -0.22667200
v -0.03972000 -0.03956700 -0.25697700
v -0.03076800 -0.03960000 -0.26121800
v -0.03268200 -0.03960000 -0.25209500
v -0.03667900 -0.03957300 -0.26680300
v -0.04025000 -0.03957100 -0.24870700
v -0.03194900 -0.03960000 -0.24280300
v -0.03847300 -0.03957000 -0.23802900
v -0.02862700 -0.03960000 -0.23409300
v -0.03543200 -0.03956800 -0.23060800
v 0.00199500 -0.02669900 -0.29018700
v 0.01788400 -0.02660100 -0.28617200
v 0.01788400 -0.02660100 -0.28617200
v 0.01788400 -0.02660100 -0.28617200
v 0.01788400 -0.02660100 -0.28617200
v 0.01788400 -0.02660100 -0.28617200
v 0.01788400 -0.02660100 -0.28617200
v 0.01788400 -0.02660100 -0.28617200
v 0.01788400 -0.02660100 -0.28617200
v 0.01788400 -0.02660100 -0.28617200
v 0.00883000 -0.02693800 -0.28934700
v -0.00516700 -0.02669100 -0.29002800
v -0.01345500 -0.02662100 -0.28793000
v -0.02174700 -0.02662400 -0.28399600
v 0.03195100 -0.02673100 -0.27486000
v 0.02539100 -0.02677800 -0.28127900
v 0.03698000 -0.02660800 -0.26591000
v 0.03698000 -0.02660800 -0.26591000
v 0.04033100 -0.02661200 -0.24744200
v 0.04033100 -0.02661200 -0.24744200
v 0.03776700 -0.02660900 -0.23568400
v 0.03776700 -0.02660900 -0.23568400
v 0.03170700 -0.02661000 -0.22484900
v 0.03170700 -0.02661000 -0.22484900
v -0.02935600 -0.02661500 -0.27757700
v -0.03448400 -0.02661100 -0.27094500
v -0.03448400 -0.02661100 -0.27094500
v -0.03824000 -0.02660700 -0.26266600
v -0.03824000 -0.02660700 -0.26266600
v -0.04028100 -0.02660900 -0.25262000
v -0.04028100 -0.02660900 -0.25262000
v -0.03660600 -0.02660400 -0.23300100
v -0.03660600 -0.02660400 -0.23300100
v -0.03993300 -0.02660500 -0.24466700
v -0.03993300 -0.02660500 -0.24466700
v -0.03091600 -0.02660400 -0.22410800
v -0.03091600 -0.02660400 -0.22410800
v 0.00913600 -0.02660200 -0.21066900
v 0.00913600 -0.02660200 -0.21066900
v 0.02447000 -0.02660400 -0.21803100
v 0.02447000 -0.02660400 -0.21803100
v -0.01710300 -0.02660300 -0.21338800
v -0.01710300 -0.02660300 -0.21338800
v -0.00810900 -0.02660400 -0.21054900
v -0.00018800 -0.02660500 -0.20971500
v -0.00018800 -0.02660500 -0.20971500
v 0.00824800 -0.04709400 -0.28179500
v 0.01493500 -0.04662400 -0.27918600
v 0.02107100 -0.04709500 -0.27518800
v -0.03194900 -0.03960000 -0.24280300
v -0.03267600 -0.04708900 -0.24784800
v -0.03115100 -0.04709100 -0.23960900
v -0.03268200 -0.03960000 -0.25209500
v -0.03243100 -0.04709100 -0.25498800
v -0.03076800 -0.03960000 -0.26121800
v -0.02983300 -0.04709500 -0.26372300
v -0.02636000 -0.03960000 -0.26943200
v -0.02600400 -0.04662400 -0.26996400
v -0.02104100 -0.04709300 -0.27523300
v -0.01981800 -0.03960000 -0.27607200
v -0.01180100 -0.04709400 -0.28081900
v -0.01166900 -0.03960000 -0.28060000
v -0.00257600 -0.03960000 -0.28264800
v -0.00099400 -0.04709400 -0.28286200
v 0.00672700 -0.03960000 -0.28205100
v 0.00824800 -0.04709400 -0.28179500
v 0.01548500 -0.03960000 -0.27885800
v 0.01493500 -0.04662400 -0.27918600
v 0.02107100 -0.04709500 -0.27518800
v 0.02298800 -0.03960000 -0.27332700
v 0.02716200 -0.04709100 -0.26841100
v 0.02862900 -0.03960000 -0.26590600
v 0.03044500 -0.04709000 -0.26206600
v 0.03195000 -0.03960000 -0.25719600
v 0.03260000 -0.04709100 -0.25396200
v 0.03268400 -0.03960000 -0.24790300
v 0.03242200 -0.04708300 -0.24497000
v 0.03260000 -0.04709100 -0.25396200
v 0.03076900 -0.03960000 -0.23878000
v 0.02983100 -0.04708900 -0.23626900
v 0.02636200 -0.03960000 -0.23056600
v 0.02600600 -0.04662400 -0.23003500
v 0.03195000 -0.03960000 -0.25719600
v 0.02092800 -0.04700500 -0.22464600
v 0.01981900 -0.03960000 -0.22392700
v 0.01304100 -0.04693700 -0.21981900
v 0.01167100 -0.03960000 -0.21939900
v 0.00238000 -0.04709800 -0.21706800
v -0.00672500 -0.03960000 -0.21794700
v -0.00899800 -0.04703500 -0.21839600
v -0.01548300 -0.03960000 -0.22114100
v -0.01923300 -0.04701600 -0.22326400
v 0.00257700 -0.03960000 -0.21735100
v -0.02298600 -0.03960000 -0.22667200
v -0.02713900 -0.04707700 -0.23155700
v -0.02862700 -0.03960000 -0.23409300
v -0.03115100 -0.04709100 -0.23960900
v -0.03194900 -0.03960000 -0.24280300
v -0.02983300 -0.04709500 -0.26372300
v -0.02983300 -0.04709500 -0.26372300
v -0.02104100 -0.04709300 -0.27523300
v -0.02104100 -0.04709300 -0.27523300
v 0.00238000 -0.04709800 -0.21706800
v 0.00238000 -0.04709800 -0.21706800
v 0.00238000 -0.04709800 -0.21706800
v 0.00238000 -0.04709800 -0.21706800
v 0.00238000 -0.04709800 -0.21706800
v 0.00238000 -0.04709800 -0.21706800
v 0.00238000 -0.04709800 -0.21706800
v 0.00238000 -0.04709800 -0.21706800
v 0.03044500 -0.04709000 -0.26206600
v 0.03044500 -0.04709000 -0.26206600
v 0.03260000 -0.04709100 -0.25396200
v 0.03260000 -0.04709100 -0.25396200
v 0.02716200 -0.04709100 -0.26841100
v 0.02716200 -0.04709100 -0.26841100
v 0.02107100 -0.04709500 -0.27518800
v 0.02107100 -0.04709500 -0.27518800
v 0.02983100 -0.04708900 -0.23626900
v 0.02983100 -0.04708900 -0.23626900
v 0.03242200 -0.04708300 -0.24497000
v 0.03242200 -0.04708300 -0.24497000
v 0.02092800 -0.04700500 -0.22464600
v 0.00824800 -0.04709400 -0.28179500
v 0.00824800 -0.04709400 -0.28179500
v -0.00099400 -0.04709400 -0.28286200
v -0.01180100 -0.04709400 -0.28081900
v -0.01180100 -0.04709400 -0.28081900
v 0.01304100 -0.04693700 -0.21981900
v -0.00899800 -0.04703500 -0.21839600
v -0.01923300 -0.04701600 -0.22326400
v -0.03243100 -0.04709100 -0.25498800
v -0.03243100 -0.04709100 -0.25498800
v -0.02713900 -0.04707700 -0.23155700
v -0.03115100 -0.04709100 -0.23960900
v -0.03115100 -0.04709100 -0.23960900
v -0.03267600 -0.04708900 -0.24784800
v -0.03267600 -0.04708900 -0.24784800
v 0.03989800 -0.02708500 -0.25588400
v 0.03698000 -0.02660800 -0.26591000
v 0.04033100 -0.02661200 -0.24744200
v -0.03667900 -0.03957300 -0.26680300
v -0.03178500 -0.03904000 -0.27476300
v -0.02524400 -0.03958600 -0.28148400
v -0.02524400 -0.03958600 -0.28148400
v -0.01748600 -0.03898700 -0.28631800
v 0.01005800 -0.03899000 -0.28909000
v 0.01659400 -0.03958200 -0.28667000
v 0.03196700 -0.03906500 -0.22543800
v -0.01483500 -0.03957700 -0.21258000
v -0.01748600 -0.03898700 -0.28631800
v -0.00039100 -0.03957500 -0.20961800
v -0.00858500 -0.03907200 -0.21061200
v -0.01483500 -0.03957700 -0.21258000
v -0.02983300 -0.04709500 -0.26372300
v -0.02600400 -0.04662400 -0.26996400
v -0.02104100 -0.04709300 -0.27523300
v 0.02983100 -0.04708900 -0.23626900
v 0.02600600 -0.04662400 -0.23003500
v 0.02092800 -0.04700500 -0.22464600
v -0.02538500 -0.02711700 -0.21870400
v -0.01710300 -0.02660300 -0.21338800
v -0.03091600 -0.02660400 -0.22410800
v 0.01828300 -0.02720500 -0.21405300
v 0.02447000 -0.02660400 -0.21803100
v 0.00913600 -0.02660200 -0.21066900
vn -0.19430000 -0.70490000 -0.68220000
vn -0.07450000 -0.70670000 -0.70360000
vn 0.03800000 -0.70460000 -0.70860000
vn 0.03790000 -0.70460000 -0.70860000
vn 0.96360000 -0.00000000 0.26730000
vn 0.99800000 0.00000000 0.06340000
vn 0.93510000 0.00000000 0.35430000
vn 0.61050000 0.00000000 0.79200000
vn 0.78350000 -0.00000000 0.62140000
vn 0.60780000 0.00000000 0.79410000
vn 0.45340000 -0.00000000 0.89130000
vn 0.38330000 -0.00000000 0.92360000
vn 0.22620000 -0.00000000 0.97410000
vn 0.19660000 -0.00000000 0.98050000
vn 0.88620000 0.00000000 0.46320000
vn 0.97540000 -0.00000000 -0.22060000
vn 0.98930000 -0.00000000 -0.14580000
vn 0.99950000 0.00000000 0.03280000
vn -0.00970000 0.00000000 1.00000000
vn -0.00470000 0.00000000 1.00000000
vn -0.20140000 0.00000000 0.97950000
vn -0.21300000 0.00000000 0.97710000
vn -0.42320000 0.00000000 0.90600000
vn -0.56800000 -0.00000000 0.82310000
vn -0.63000000 0.00000000 0.77660000
vn -0.74010000 -0.00000000 0.67250000
vn -0.97560000 -0.00000000 0.21970000
vn -0.95480000 -0.00000000 0.29720000
vn -0.87720000 0.00000000 0.48010000
vn -0.76670000 0.00000000 0.64200000
vn -0.90700000 -0.00000000 0.42110000
vn -0.99110000 0.00000000 0.13300000
vn -0.97560000 0.00000000 0.21980000
vn -0.99950000 0.00000000 0.03210000
vn -0.95500000 0.00000000 0.29660000
vn -0.99790000 -0.00000000 -0.06490000
vn -0.98490000 0.00000000 -0.17300000
vn -0.94930000 0.00000000 -0.31440000
vn -0.90920000 -0.00000000 -0.41640000
vn -0.85470000 -0.00000000 -0.51910000
vn -0.78880000 -0.00000000 -0.61460000
vn -0.72880000 0.00000000 -0.68470000
vn -0.62550000 -0.00000000 -0.78020000
vn -0.53890000 -0.00000000 -0.84240000
vn -0.99120000 -0.00000000 0.13210000
vn -0.12810000 0.00000000 -0.99180000
vn -0.27320000 -0.00000000 -0.96190000
vn -0.33430000 -0.00000000 -0.94250000
vn -0.10540000 0.00000000 -0.99440000
vn 0.05360000 -0.00000000 -0.99860000
vn 0.24910000 0.00020000 -0.96850000
vn 0.21890000 -0.00000000 -0.97570000
vn 0.44310000 0.00000000 -0.89650000
vn 0.04950000 0.00010000 -0.99880000
vn 0.60260000 -0.00000000 -0.79800000
vn 0.63020000 0.00000000 -0.77640000
vn 0.78920000 -0.00000000 -0.61410000
vn 0.78450000 -0.00000000 -0.62020000
vn 0.90400000 -0.00000000 -0.42750000
vn 0.41230000 0.00000000 -0.91100000
vn 0.97530000 -0.00000000 -0.22110000
vn 0.91860000 -0.00000000 -0.39520000
vn 0.98920000 -0.00000000 -0.14630000
vn 0.62770000 -0.70570000 0.32860000
vn 0.56110000 -0.70670000 0.43100000
vn 0.43570000 -0.70180000 0.56350000
vn -0.40610000 -0.70170000 0.58530000
vn -0.52360000 -0.70660000 0.47590000
vn -0.62130000 -0.70570000 0.34040000
vn 0.00000000 -1.00000000 0.00000000
vn 0.00000000 -1.00000000 0.00000000
vn 0.00000000 -1.00000000 0.00000000
vn 0.00000000 -1.00000000 0.00000000
vn 0.00000000 -1.00000000 0.00000000
vn 0.00000000 -1.00000000 0.00000000
vn 0.00000000 -1.00000000 0.00000000
vn 0.00000000 -1.00000000 0.00000000
vn 0.00000000 -1.00000000 0.00000000
vn 0.00000000 -1.00000000 0.00000000
vn 0.00000000 -1.00000000 0.00000000
vn 0.00000000 -1.00000000 0.00000000
vn 0.00000000 -1.00000000 0.00000000
vn 0.00000000 -1.00000000 0.00000000
vn 0.00000000 -1.00000000 0.00000000
vn 0.00000000 -1.00000000 0.00000000
vn 0.00000000 -1.00000000 0.00000000
vn 0.00000000 -1.00000000 0.00000000
vn 0.00000000 -1.00000000 0.00000000
vn 0.00000000 -1.00000000 0.00000000
vn 0.00000000 -1.00000000 0.00000000
vn 0.00000000 -1.00000000 0.00000000
vn 0.00000000 -1.00000000 0.00000000
vn 0.00000000 -1.00000000 0.00000000
vn 0.00000000 -1.00000000 0.00000000
vn -0.00010000 -1.00000000 0.00000000
vn 0.00000000 -1.00000000 0.00000000
vn 0.00000000 -1.00000000 0.00000000
vn 0.00000000 -1.00000000 0.00000000
vn 0.00000000 -1.00000000 0.00000000
vn 0.00000000 -1.00000000 0.00000000
vn 0.00000000 -1.00000000 0.00000000
vn 0.00000000 -1.00000000 0.00000000
vn 0.00000000 -1.00000000 0.00000000
vn 0.00000000 -1.00000000 0.00000000
vn 0.00000000 -1.00000000 0.00000000
vn 0.00000000 -1.00000000 0.00000000
vn 0.00000000 -1.00000000 0.00000000
vn 0.00000000 -1.00000000 0.00000000
vn 0.00000000 -1.00000000 0.00000000
vn 0.00000000 -1.00000000 0.00000000
vn 0.00000000 -1.00000000 0.00000000
vn 0.00000000 -1.00000000 0.00000000
vn 0.00000000 -1.00000000 0.00000000
vn 0.00000000 -1.00000000 0.00000000
vn -0.00000000 1.00000000 -0.00000000
vn -0.00020000 1.00000000 -0.00020000
vn 0.00020000 1.00000000 0.00000000
vn -0.00010000 1.00000000 -0.00010000
vn 0.00010000 1.00000000 0.00010000
vn 0.00010000 1.00000000 -0.00000000
vn -0.00000000 1.00000000 -0.00010000
vn -0.00000000 1.00000000 -0.00000000
vn -0.00010000 1.00000000 0.00000000
vn -0.00010000 1.00000000 0.00020000
vn -0.00000000 1.00000000 -0.00000000
vn -0.00000000 1.00000000 -0.00000000
vn -0.00000000 1.00000000 -0.00000000
vn -0.00000000 1.00000000 -0.00000000
vn -0.00000000 1.00000000 -0.00000000
vn -0.00000000 1.00000000 -0.00000000
vn -0.00000000 1.00000000 -0.00010000
vn -0.00000000 1.00000000 -0.00000000
vn 0.00010000 1.00000000 -0.00000000
vn -0.00000000 1.00000000 -0.00010000
vn 0.00010000 1.00000000 -0.00000000
vn 0.00010000 1.00000000 0.00010000
vn -0.00010000 1.00000000 0.00000000
vn 0.00010000 1.00000000 0.00010000
vn -0.00000000 1.00000000 -0.00000000
vn -0.00010000 1.00000000 -0.00010000
vn -0.00000000 1.00000000 -0.00000000
vn -0.00010000 1.00000000 0.00020000
vn -0.00010000 1.00000000 -0.00010000
vn -0.00010000 1.00000000 0.00020000
vn -0.00020000 1.00000000 -0.00020000
vn -0.00000000 1.00000000 -0.00000000
vn -0.00010000 1.00000000 -0.00010000
vn -0.00020000 1.00000000 -0.00020000
vn -0.00010000 1.00000000 -0.00010000
vn -0.00000000 1.00000000 -0.00000000
vn -0.00010000 1.00000000 0.00000000
vn 0.00010000 1.00000000 -0.00000000
vn 0.00020000 1.00000000 0.00000000
vn -0.00010000 1.00000000 0.00000000
vn 0.00010000 1.00000000 -0.00000000
vn -0.00010000 1.00000000 0.00000000
vn 0.00010000 1.00000000 0.00010000
vn 0.00010000 1.00000000 0.00010000
vn 0.00020000 1.00000000 0.00000000
vn 0.00010000 1.00000000 0.00010000
vn 0.17820000 -0.70580000 -0.68560000
vn 0.32240000 -0.70640000 -0.63010000
vn 0.45450000 -0.70480000 -0.54460000
vn -0.97560000 0.00000000 0.21980000
vn -0.99780000 -0.00000000 0.06580000
vn -0.94900000 -0.00000000 0.31540000
vn -0.99790000 -0.00000000 -0.06400000
vn -0.98840000 -0.00000000 -0.15210000
vn -0.93950000 0.00000000 -0.34260000
vn -0.90850000 0.00000000 -0.41780000
vn -0.80490000 0.00000000 -0.59340000
vn -0.79320000 -0.00000000 -0.60900000
vn -0.64040000 0.00000000 -0.76800000
vn -0.60510000 0.00000000 -0.79610000
vn -0.35760000 -0.00000000 -0.93390000
vn -0.35630000 0.00000000 -0.93440000
vn -0.07870000 0.00000000 -0.99690000
vn -0.03010000 0.00000000 -0.99950000
vn 0.20540000 0.00000000 -0.97870000
vn 0.25110000 0.00000000 -0.96800000
vn 0.47280000 -0.00000000 -0.88120000
vn 0.45550000 -0.00000000 -0.89020000
vn 0.64170000 0.00000000 -0.76700000
vn 0.70190000 -0.00000000 -0.71230000
vn 0.82770000 0.00000000 -0.56120000
vn 0.87410000 0.00000000 -0.48570000
vn 0.92970000 0.00000000 -0.36840000
vn 0.97560000 -0.00000000 -0.21970000
vn 0.99260000 0.00000000 -0.12170000
vn 0.99790000 -0.00000000 0.06400000
vn 0.98820000 -0.00000000 0.15330000
vn 0.99270000 -0.00000000 -0.12040000
vn 0.93950000 0.00000000 0.34260000
vn 0.90840000 0.00000000 0.41800000
vn 0.80490000 0.00000000 0.59340000
vn 0.79320000 0.00000000 0.60900000
vn 0.97560000 -0.00000000 -0.21970000
vn 0.63650000 0.00000000 0.77120000
vn 0.60510000 -0.00000000 0.79610000
vn 0.39660000 0.00000000 0.91800000
vn 0.35630000 0.00000000 0.93440000
vn 0.07210000 -0.00000000 0.99740000
vn -0.20540000 -0.00000000 0.97870000
vn -0.27380000 -0.00000000 0.96180000
vn -0.47280000 0.00000000 0.88120000
vn -0.58410000 0.00000000 0.81160000
vn 0.07870000 -0.00000000 0.99690000
vn -0.70190000 -0.00000000 0.71230000
vn -0.82710000 0.00000000 0.56210000
vn -0.87410000 -0.00000000 0.48570000
vn -0.94850000 0.00000000 0.31670000
vn -0.97560000 -0.00000000 0.21970000
vn -0.00010000 -1.00000000 0.00000000
vn -0.00010000 -1.00000000 0.00020000
vn -0.00010000 -1.00000000 0.00020000
vn -0.00020000 -1.00000000 -0.00000000
vn -0.00000000 -1.00000000 -0.00020000
vn -0.00000000 -1.00000000 -0.00010000
vn -0.00010000 -1.00000000 -0.00010000
vn -0.00010000 -1.00000000 0.00020000
vn -0.00020000 -1.00000000 -0.00000000
vn 0.00000000 -1.00000000 0.00010000
vn -0.00010000 -1.00000000 0.00000000
vn 0.00000000 -1.00000000 0.00000000
vn -0.00000000 -1.00000000 -0.00020000
vn -0.00010000 -1.00000000 0.00000000
vn -0.00000000 -1.00000000 -0.00020000
vn 0.00000000 -1.00000000 0.00000000
vn 0.00000000 -1.00000000 0.00000000
vn -0.00010000 -1.00000000 0.00000000
vn 0.00000000 -1.00000000 0.00000000
vn -0.00010000 -1.00000000 -0.00010000
vn 0.00000000 -1.00000000 0.00000000
vn -0.00000000 -1.00000000 -0.00010000
vn -0.00000000 -1.00000000 -0.00010000
vn 0.00000000 -1.00000000 0.00000000
vn 0.00000000 -1.00000000 0.00000000
vn -0.00010000 -1.00000000 -0.00010000
vn -0.00000000 -1.00000000 -0.00010000
vn -0.00000000 -1.00000000 -0.00010000
vn -0.00000000 -1.00000000 -0.00010000
vn -0.00020000 -1.00000000 -0.00000000
vn 0.00000000 -1.00000000 0.00000000
vn 0.00000000 -1.00000000 0.00000000
vn 0.00000000 -1.00000000 0.00000000
vn -0.00010000 -1.00000000 0.00000000
vn 0.00000000 -1.00000000 0.00000000
vn 0.00000000 -1.00000000 0.00000000
vn 0.00000000 -1.00000000 0.00000000
vn 0.00000000 -1.00000000 0.00010000
vn 0.00000000 -1.00000000 0.00000000
vn 0.00000000 -1.00000000 0.00010000
vn 0.70010000 0.70650000 -0.10340000
vn 0.66660000 0.69120000 -0.27910000
vn 0.70720000 0.70560000 0.04470000
vn -0.64450000 -0.70490000 -0.29630000
vn -0.55790000 -0.70700000 -0.43460000
vn -0.44520000 -0.70350000 -0.55400000
vn -0.44410000 -0.70300000 -0.55550000
vn -0.30690000 -0.70700000 -0.63720000
vn 0.17640000 -0.70640000 -0.68550000
vn 0.29220000 -0.70510000 -0.64610000
vn 0.79290000 0.00000000 0.60930000
vn -0.36850000 0.00000000 0.92960000
vn -0.43380000 -0.00000000 -0.90100000
vn -0.00740000 -0.70510000 0.70910000
vn -0.15060000 -0.70670000 0.69130000
vn -0.26110000 -0.70560000 0.65870000
vn -0.64410000 -0.70480000 -0.29720000
vn -0.56140000 -0.70640000 -0.43100000
vn -0.45400000 -0.70590000 -0.54370000
vn 0.64410000 -0.70480000 0.29730000
vn 0.56140000 -0.70640000 0.43100000
vn 0.45140000 -0.70570000 0.54610000
vn -0.44570000 0.70680000 0.54930000
vn -0.30080000 0.70490000 0.64240000
vn -0.54280000 0.70570000 0.45540000
vn 0.32070000 0.70670000 0.63070000
vn 0.43090000 0.70500000 0.56330000
vn 0.16300000 0.70170000 0.69360000
vt 0.74466400 0.99566700
vt 0.77159900 1.00018300
vt 0.79654900 0.99554700
vt 0.79654900 0.99554700
vt 0.55455600 0.52500300
vt 0.52497600 0.63455000
vt 0.56765000 0.63459400
vt 0.64639500 0.52474700
vt 0.61165500 0.63457400
vt 0.64689400 0.63462700
vt 0.67298700 0.62954100
vt 0.68399300 0.52506300
vt 0.70757300 0.63464400
vt 0.71189000 0.52488200
vt 0.58468800 0.52488600
vt 0.48415600 0.52546400
vt 0.49502700 0.63052400
vt 0.52061700 0.52492100
vt 0.74153200 0.52486400
vt 0.74081600 0.63461800
vt 0.76908500 0.63462500
vt 0.77078000 0.52911400
vt 0.80252700 0.63464000
vt 0.82636300 0.52482200
vt 0.83742600 0.63028400
vt 0.85908500 0.52886000
vt 0.93273400 0.57965200
vt 0.92130200 0.52495300
vt 0.89288000 0.52491900
vt 0.86484600 0.63462200
vt 0.90230100 0.63466400
vt 0.94538800 0.63463600
vt 0.48430900 0.57965200
vt 0.51135200 0.52487400
vt 0.47289400 0.52489200
vt 0.52520900 0.63459500
vt 0.54074900 0.52492800
vt 0.56159100 0.63459700
vt 0.57724400 0.52486200
vt 0.59385000 0.63456500
vt 0.61040400 0.52938300
vt 0.62358000 0.63453300
vt 0.64367700 0.52475900
vt 0.65891400 0.63446700
vt 0.49699900 0.63456100
vt 0.72182200 0.63388700
vt 0.70063700 0.52480000
vt 0.69148500 0.63447800
vt 0.72507800 0.52903700
vt 0.74780100 0.52479700
vt 0.77608400 0.52981200
vt 0.77165600 0.63179700
vt 0.80568600 0.63465300
vt 0.74722100 0.63382400
vt 0.83248000 0.52509500
vt 0.83747300 0.63315000
vt 0.86997000 0.63353200
vt 0.86887500 0.52484800
vt 0.90130000 0.52490200
vt 0.80080200 0.52480000
vt 0.93256500 0.52537500
vt 0.90635900 0.63459800
vt 0.94345700 0.63056300
vt 0.61717600 0.99630400
vt 0.64438200 1.00029400
vt 0.68504400 0.99386400
vt 0.88312400 0.99325400
vt 0.91894500 0.99999500
vt 0.95617300 0.99686800
vt 0.00657500 0.22377100
vt 0.04278800 0.19040400
vt 0.02927700 0.26239900
vt 0.02015700 0.15669200
vt -0.00119600 0.29883800
vt 0.02481300 0.34056000
vt 0.06425100 0.13040900
vt 0.04324400 0.08954600
vt 0.09827500 0.01355200
vt 0.09192900 0.08727400
vt 0.07049300 0.04130400
vt 0.15932100 -0.00044900
vt 0.12357700 0.06449400
vt 0.00738600 0.45866400
vt -0.00080700 0.38569500
vt 0.02975800 0.41855700
vt 0.04371200 0.49006900
vt 0.03468500 0.56626400
vt 0.06554300 0.54930400
vt 0.07144900 0.63601800
vt 0.09348300 0.59146300
vt 0.12526900 0.61313000
vt 0.12530400 0.67798600
vt 0.15832500 0.61254900
vt 0.19555000 0.02335400
vt 0.19555000 0.02335400
vt 0.18841900 0.08558000
vt 0.15663400 0.06391300
vt 0.22008400 0.05492100
vt 0.24319400 0.09922800
vt 0.21636000 0.12773900
vt 0.23819100 0.18697400
vt 0.27198700 0.20337800
vt 0.25214400 0.25848600
vt 0.28164900 0.27695300
vt 0.25708900 0.33648300
vt 0.22305900 0.61796200
vt 0.18997400 0.58976900
vt 0.21765100 0.54663400
vt 0.19079400 0.65855700
vt 0.24512700 0.57164600
vt 0.23911500 0.48663900
vt 0.26744500 0.49711200
vt 0.25262500 0.41464400
vt 0.27842900 0.43450600
vt 0.27496700 0.10771300
vt 0.24518900 0.22682000
vt 0.24518900 0.22682000
vt 0.24518900 0.22682000
vt 0.24518900 0.22682000
vt 0.24518900 0.22682000
vt 0.24518900 0.22682000
vt 0.24518900 0.22682000
vt 0.24518900 0.22682000
vt 0.24518900 0.22682000
vt 0.25988200 0.15356500
vt 0.29332100 0.06580200
vt 0.31936800 0.02877000
vt 0.35002300 0.00269200
vt 0.23827800 0.37868400
vt 0.23866000 0.30103200
vt 0.24811300 0.46233100
vt 0.24811300 0.46233100
vt 0.28602000 0.59289600
vt 0.28602000 0.59289600
vt 0.32193500 0.64791000
vt 0.32193500 0.64791000
vt 0.36430000 0.67648200
vt 0.36430000 0.67648200
vt 0.38520100 -0.00442500
vt 0.41469000 0.00457300
vt 0.41469000 0.00457300
vt 0.44487100 0.03163700
vt 0.44487100 0.03163700
vt 0.47518100 0.07953800
vt 0.47518100 0.07953800
vt 0.51516200 0.21892500
vt 0.51516200 0.21892500
vt 0.49425000 0.12921100
vt 0.49425000 0.12921100
vt 0.52319200 0.30619300
vt 0.52319200 0.30619300
vt 0.45645800 0.62627200
vt 0.45645800 0.62627200
vt 0.39954500 0.67397800
vt 0.39954500 0.67397800
vt 0.51543600 0.45298700
vt 0.51543600 0.45298700
vt 0.50000200 0.52379700
vt 0.48223100 0.57618700
vt 0.48223100 0.57618700
vt 0.72219300 0.90699200
vt 0.75018200 0.90993500
vt 0.77871000 0.90654200
vt 0.44253000 0.58346000
vt 0.46061700 0.52007700
vt 0.43088600 0.52005000
vt 0.47570000 0.58346000
vt 0.48597000 0.52006400
vt 0.50887000 0.58346000
vt 0.51831400 0.52002600
vt 0.54203900 0.58346000
vt 0.54430300 0.52402900
vt 0.56999100 0.52006800
vt 0.57520900 0.58346000
vt 0.60821800 0.52006300
vt 0.60837900 0.58346000
vt 0.64154900 0.58346000
vt 0.64716000 0.52005200
vt 0.67471900 0.58346000
vt 0.68014800 0.52005900
vt 0.70788800 0.58346000
vt 0.70562300 0.52402900
vt 0.73161900 0.52002500
vt 0.74105800 0.58346000
vt 0.76395800 0.52005900
vt 0.77422800 0.58346000
vt 0.78930900 0.52007000
vt 0.80739800 0.58346000
vt 0.81906600 0.52004600
vt 0.47570000 0.58346000
vt 0.48611700 0.52012600
vt 0.45419600 0.52003900
vt 0.50887000 0.58346000
vt 0.51834100 0.52007400
vt 0.54203900 0.58346000
vt 0.54430400 0.52402900
vt 0.44253000 0.58346000
vt 0.57057400 0.52080900
vt 0.57520900 0.58346000
vt 0.60335200 0.52138600
vt 0.60837900 0.58346000
vt 0.64232000 0.52002300
vt 0.67471900 0.58346000
vt 0.68289600 0.52054500
vt 0.70788800 0.58346000
vt 0.72310900 0.52066700
vt 0.64154900 0.58346000
vt 0.74105800 0.58346000
vt 0.76382600 0.52017500
vt 0.77422800 0.58346000
vt 0.79575700 0.52004400
vt 0.80739800 0.58346000
vt 0.20383000 0.63308400
vt 0.20383000 0.63308400
vt 0.15292100 0.64934700
vt 0.15292100 0.64934700
vt 0.24004300 0.16114500
vt 0.24004300 0.16114500
vt 0.24004300 0.16114500
vt 0.24004300 0.16114500
vt 0.24004300 0.16114500
vt 0.24004300 0.16114500
vt 0.24004300 0.16114500
vt 0.24004300 0.16114500
vt 0.05683100 0.26247700
vt 0.05683100 0.26247700
vt 0.07174700 0.20108600
vt 0.07174700 0.20108600
vt 0.04915200 0.32009000
vt 0.04915200 0.32009000
vt 0.04743300 0.39708700
vt 0.04743300 0.39708700
vt 0.12305800 0.11177700
vt 0.12305800 0.11177700
vt 0.09474200 0.14834500
vt 0.09474200 0.14834500
vt 0.17453000 0.09549700
vt 0.06302100 0.51335700
vt 0.06302100 0.51335700
vt 0.08352000 0.57503900
vt 0.11574400 0.62748200
vt 0.11574400 0.62748200
vt 0.20641500 0.11380000
vt 0.26523900 0.23718900
vt 0.27870300 0.32755200
vt 0.23224800 0.59636200
vt 0.23224800 0.59636200
vt 0.27773600 0.42448500
vt 0.26760200 0.49667900
vt 0.26760200 0.49667900
vt 0.25076900 0.55510300
vt 0.25076900 0.55510300
vt 0.69242600 0.51838800
vt 0.72876200 0.53843600
vt 0.66278800 0.52291400
vt 0.60906100 0.99623400
vt 0.64541000 1.00052900
vt 0.68205100 0.99505100
vt 0.68209500 0.99483400
vt 0.71768900 1.00095400
vt 0.82768000 1.00079700
vt 0.85489500 0.99580100
vt 0.60944800 0.52917100
vt 0.79402300 0.52483800
vt 0.67609300 0.52982900
vt 0.78969600 0.99628200
vt 0.82183300 1.00027200
vt 0.84746900 0.99615300
vt 0.54420000 0.90653400
vt 0.57272100 0.90993500
vt 0.60092400 0.90718900
vt 0.54423100 0.90655200
vt 0.57272100 0.90993500
vt 0.60155300 0.90792500
vt 0.35419500 0.51804500
vt 0.38861800 0.52353100
vt 0.32719400 0.52318800
vt 0.51661300 0.51714100
vt 0.54236000 0.52440300
vt 0.48251800 0.52719600
f 1/1/1 2/2/2 3/3/3
f 5/5/5 18/18/18 6/6/6
f 8/8/8 263/263/263 9/9/9
f 8/8/8 10/10/10 11/11/11
f 13/13/13 14/14/14 12/12/12
f 9/9/9 263/263/263 15/15/15
f 6/6/6 18/18/18 17/17/17
f 13/13/13 20/20/20 14/14/14
f 21/21/21 22/22/22 20/20/20
f 23/23/23 264/264/264 21/21/21
f 25/25/25 30/30/30 26/26/26
f 27/27/27 28/28/28 29/29/29
f 29/29/29 26/26/26 30/30/30
f 24/24/24 23/23/23 25/25/25
f 27/27/27 29/29/29 31/31/31
f 27/27/27 31/31/31 32/32/32
f 33/33/33 34/34/34 35/35/35
f 36/36/36 34/34/34 33/33/33
f 34/34/34 36/36/36 37/37/37
f 37/37/37 38/38/38 39/39/39
f 39/39/39 38/38/38 40/40/40
f 41/41/41 40/40/40 42/42/42
f 43/43/43 42/42/42 44/44/44
f 33/33/33 45/45/45 36/36/36
f 46/46/46 49/49/49 47/47/47
f 46/46/46 54/54/54 49/49/49
f 53/53/53 60/60/60 51/51/51
f 52/52/52 51/51/51 50/50/50
f 55/55/55 60/60/60 53/53/53
f 57/57/57 58/58/58 56/56/56
f 57/57/57 62/62/62 59/59/59
f 61/61/61 59/59/59 62/62/62
f 64/64/64 65/65/65 66/66/66
f 67/67/67 68/68/68 69/69/69
f 70/70/70 73/73/73 71/71/71
f 72/72/72 75/75/75 74/74/74
f 76/76/76 71/71/71 77/77/77
f 78/78/78 79/79/79 80/80/80
f 78/78/78 81/81/81 82/82/82
f 82/82/82 79/79/79 78/78/78
f 77/77/77 80/80/80 76/76/76
f 84/84/84 75/75/75 85/85/85
f 75/75/75 84/84/84 74/74/74
f 83/83/83 86/86/86 87/87/87
f 88/88/88 87/87/87 86/86/86
f 83/83/83 85/85/85 86/86/86
f 89/89/89 87/87/87 88/88/88
f 88/88/88 90/90/90 89/89/89
f 91/91/91 92/92/92 90/90/90
f 89/89/89 90/90/90 92/92/92
f 93/93/93 92/92/92 91/91/91
f 96/96/96 97/97/97 95/95/95
f 98/98/98 100/100/100 96/96/96
f 99/99/99 100/100/100 98/98/98
f 101/101/101 100/100/100 99/99/99
f 101/101/101 99/99/99 102/102/102
f 101/101/101 102/102/102 103/103/103
f 104/104/104 103/103/103 102/102/102
f 103/103/103 104/104/104 105/105/105
f 106/106/106 107/107/107 108/108/108
f 107/107/107 109/109/109 93/93/93
f 108/108/108 110/110/110 106/106/106
f 111/111/111 110/110/110 108/108/108
f 92/92/92 93/93/93 109/109/109
f 109/109/109 107/107/107 106/106/106
f 113/113/113 114/114/114 112/112/112
f 105/105/105 114/114/114 113/113/113
f 114/114/114 105/105/105 104/104/104
f 110/110/110 111/111/111 112/112/112
f 97/97/97 82/82/82 81/81/81
f 115/115/115 122/122/122 125/125/125
f 126/126/126 122/122/122 115/115/115
f 127/127/127 122/122/122 126/126/126
f 128/128/128 122/122/122 127/127/127
f 122/122/122 129/129/129 130/130/130
f 132/132/132 129/129/129 122/122/122
f 131/131/131 121/121/121 134/134/134
f 133/133/133 120/120/120 135/135/135
f 136/136/136 119/119/119 138/138/138
f 139/139/139 141/141/141 122/122/122
f 143/143/143 118/118/118 140/140/140
f 124/124/124 142/142/142 144/144/144
f 147/147/147 118/118/118 149/149/149
f 146/146/146 150/150/150 122/122/122
f 145/145/145 148/148/148 116/116/116
f 120/120/120 152/152/152 155/155/155
f 137/137/137 123/123/123 154/154/154
f 157/157/157 158/158/158 119/119/119
f 159/159/159 153/153/153 117/117/117
f 119/119/119 158/158/158 160/160/160
f 151/151/151 156/156/156 123/123/123
f 139/139/139 122/122/122 128/128/128
f 161/161/161 162/162/162 163/163/163
f 164/164/164 165/165/165 166/166/166
f 167/167/167 168/168/168 165/165/165
f 169/169/169 170/170/170 168/168/168
f 170/170/170 169/169/169 171/171/171
f 167/167/167 165/165/165 164/164/164
f 171/171/171 174/174/174 173/173/173
f 169/169/169 168/168/168 167/167/167
f 174/174/174 176/176/176 175/175/175
f 175/175/175 176/176/176 177/177/177
f 178/178/178 177/177/177 179/179/179
f 180/180/180 179/179/179 181/181/181
f 181/181/181 184/184/184 183/183/183
f 183/183/183 184/184/184 185/185/185
f 186/186/186 187/187/187 185/185/185
f 186/186/186 188/188/188 187/187/187
f 189/189/189 187/187/187 188/188/188
f 190/190/190 191/191/191 192/192/192
f 193/193/193 194/194/194 191/191/191
f 194/194/194 193/193/193 195/195/195
f 190/190/190 192/192/192 197/197/197
f 195/195/195 199/199/199 198/198/198
f 193/193/193 191/191/191 190/190/190
f 199/199/199 201/201/201 200/200/200
f 201/201/201 207/207/207 202/202/202
f 202/202/202 207/207/207 203/203/203
f 205/205/205 206/206/206 204/204/204
f 206/206/206 208/208/208 209/209/209
f 205/205/205 204/204/204 203/203/203
f 208/208/208 206/206/206 205/205/205
f 210/210/210 211/211/211 209/209/209
f 210/210/210 212/212/212 211/211/211
f 214/214/214 215/215/215 220/220/220
f 225/225/225 227/227/227 217/217/217
f 226/226/226 223/223/223 230/230/230
f 231/231/231 229/229/229 224/224/224
f 234/234/234 218/218/218 235/235/235
f 237/237/237 224/224/224 233/233/233
f 228/228/228 236/236/236 224/224/224
f 219/219/219 238/238/238 232/232/232
f 239/239/239 218/218/218 240/240/240
f 241/241/241 240/240/240 218/218/218
f 221/221/221 216/216/216 242/242/242
f 237/237/237 243/243/243 224/224/224
f 244/244/244 245/245/245 224/224/224
f 223/223/223 246/246/246 213/213/213
f 224/224/224 248/248/248 249/249/249
f 248/248/248 224/224/224 245/245/245
f 247/247/247 224/224/224 251/251/251
f 252/252/252 222/222/222 250/250/250
f 253/253/253 254/254/254 255/255/255
f 256/256/256 257/257/257 258/258/258
f 259/259/259 260/260/260 1/1/1
f 4/4/4 261/261/261 262/262/262
f 5/5/5 7/7/7 15/15/15
f 264/264/264 23/23/23 24/24/24
f 36/36/36 38/38/38 37/37/37
f 39/39/39 40/40/40 41/41/41
f 44/44/44 48/48/48 265/265/265
f 43/43/43 44/44/44 265/265/265
f 41/41/41 42/42/42 43/43/43
f 265/265/265 48/48/48 47/47/47
f 266/266/266 267/267/267 268/268/268
f 269/269/269 270/270/270 271/271/271
f 186/186/186 185/185/185 184/184/184
f 210/210/210 209/209/209 208/208/208
f 272/272/272 273/273/273 274/274/274
f 275/275/275 276/276/276 277/277/277
f 278/278/278 279/279/279 280/280/280
f 5/5/5 6/6/6 7/7/7
f 8/8/8 9/9/9 10/10/10
f 8/8/8 11/11/11 12/12/12
f 13/13/13 12/12/12 11/11/11
f 9/9/9 15/15/15 7/7/7
f 18/18/18 16/16/16 17/17/17
f 20/20/20 19/19/19 14/14/14
f 22/22/22 19/19/19 20/20/20
f 264/264/264 22/22/22 21/21/21
f 25/25/25 26/26/26 24/24/24
f 29/29/29 30/30/30 31/31/31
f 46/46/46 47/47/47 48/48/48
f 54/54/54 50/50/50 49/49/49
f 53/53/53 51/51/51 52/52/52
f 52/52/52 50/50/50 54/54/54
f 55/55/55 53/53/53 56/56/56
f 58/58/58 55/55/55 56/56/56
f 57/57/57 59/59/59 58/58/58
f 61/61/61 62/62/62 63/63/63
f 70/70/70 71/71/71 72/72/72
f 72/72/72 74/74/74 70/70/70
f 71/71/71 73/73/73 77/77/77
f 80/80/80 79/79/79 76/76/76
f 84/84/84 85/85/85 83/83/83
f 97/97/97 81/81/81 94/94/94
f 98/98/98 96/96/96 94/94/94
f 113/113/113 112/112/112 111/111/111
f 170/170/170 171/171/171 172/172/172
f 171/171/171 173/173/173 172/172/172
f 174/174/174 175/175/175 173/173/173
f 175/175/175 177/177/177 178/178/178
f 178/178/178 179/179/179 180/180/180
f 180/180/180 181/181/181 182/182/182
f 181/181/181 183/183/183 182/182/182
f 194/194/194 195/195/195 196/196/196
f 195/195/195 198/198/198 196/196/196
f 199/199/199 200/200/200 198/198/198
f 201/201/201 202/202/202 200/200/200
f 202/202/202 203/203/203 204/204/204

