mtllib material.mtl
usemtl Material-7011油漆.001
v 0.03890000 -0.03858300 -0.23981100
v 0.04021900 -0.03857400 -0.25041600
v 0.04004300 -0.03809200 -0.24552000
v 0.03864200 -0.03857800 -0.26127700
v 0.03442900 -0.03860000 -0.26990300
v 0.03487200 -0.03812200 -0.27019300
v 0.03993200 -0.03805100 -0.25542700
v 0.02916100 -0.03857400 -0.27775900
v 0.02916100 -0.03857400 -0.27775900
v 0.02199400 -0.03856600 -0.28368100
v 0.02570700 -0.03810000 -0.28097000
v 0.01367000 -0.03857800 -0.28785800
v 0.01776700 -0.03810000 -0.28611600
v 0.00289600 -0.03857600 -0.29010900
v 0.00289600 -0.03857600 -0.29010900
v 0.00785100 -0.03807500 -0.28951500
v -0.00723400 -0.03858100 -0.28956400
v -0.00214600 -0.03807800 -0.29023900
v -0.01691000 -0.03860000 -0.28600400
v -0.01148400 -0.03813300 -0.28859500
v -0.03404800 -0.03857400 -0.27146400
v -0.03767300 -0.03860000 -0.26279600
v -0.03808700 -0.03810900 -0.26314800
v -0.02771000 -0.03857700 -0.27918600
v -0.03097100 -0.03810000 -0.27570700
v -0.02393500 -0.03857500 -0.28232700
v -0.01994400 -0.03806800 -0.28499600
v -0.03988100 -0.03809900 -0.25599100
v -0.03926600 -0.03210000 -0.25884400
v -0.03988100 -0.03809900 -0.25599100
v -0.04024600 -0.03810000 -0.24943300
v -0.04024600 -0.02610000 -0.24943300
v -0.03994700 -0.03808800 -0.24470000
v -0.03867000 -0.03810900 -0.23865400
v -0.03877200 -0.02612000 -0.23905600
v -0.03696600 -0.03810000 -0.23407500
v -0.03701000 -0.02590200 -0.23420800
v -0.03492900 -0.03856500 -0.23004200
v -0.03483100 -0.02560600 -0.22977300
v -0.03222700 -0.03810000 -0.22588500
v -0.02905700 -0.03857900 -0.22213600
v -0.03150300 -0.02591700 -0.22491600
v -0.02570700 -0.03810000 -0.21902800
v -0.02698700 -0.02609000 -0.22008700
v -0.02155700 -0.03857100 -0.21603600
v -0.02184200 -0.02592500 -0.21614600
v -0.01660600 -0.03805700 -0.21327900
v -0.01045400 -0.03858000 -0.21112000
v -0.01619900 -0.02612100 -0.21308600
v -0.03989700 -0.02608500 -0.25588400
v -0.00455700 -0.02578700 -0.21000000
v -0.01005100 -0.02613600 -0.21097900
v -0.00573700 -0.03810000 -0.21016000
v -0.00096900 -0.03811400 -0.20974000
v 0.00345500 -0.03858600 -0.20992100
v 0.00103900 -0.02560200 -0.20979500
v 0.01297500 -0.03810000 -0.21189800
v 0.01737900 -0.03813200 -0.21367500
v 0.01456500 -0.02591700 -0.21246600
v 0.00850800 -0.03856800 -0.21066900
v 0.01009100 -0.02564000 -0.21106200
v 0.00525100 -0.02611800 -0.21007200
v 0.02151100 -0.03810000 -0.21598000
v 0.02545100 -0.03858200 -0.21878200
v 0.02050400 -0.02571600 -0.21532100
v 0.02885800 -0.03810000 -0.22194100
v 0.02986600 -0.02611200 -0.22293400
v 0.03196100 -0.03813500 -0.22550500
v 0.03435700 -0.03858500 -0.22908000
v 0.03387700 -0.02590300 -0.22824300
v 0.03611600 -0.03810000 -0.23223200
v 0.03611600 -0.02610000 -0.23223200
v 0.03926600 -0.03210000 -0.24115500
v 0.03739900 -0.03810000 -0.23512100
v 0.03890000 -0.03858300 -0.23981100
v 0.03989700 -0.02608500 -0.24411500
v 0.03810000 -0.02609600 -0.23688800
v 0.03926600 -0.03210000 -0.24115500
v 0.03890000 -0.03858300 -0.23981100
v 0.04004300 -0.03809200 -0.24552000
v 0.04021900 -0.03857400 -0.25041600
v 0.03993200 -0.03805100 -0.25542700
v 0.04024600 -0.02610000 -0.25056500
v 0.03864200 -0.03857800 -0.26127700
v 0.03986500 -0.02613300 -0.25582000
v 0.03696600 -0.03810000 -0.26592400
v 0.03857600 -0.02613900 -0.26162400
v 0.03487200 -0.03812200 -0.27019300
v 0.03695400 -0.02590100 -0.26592400
v 0.03222700 -0.03810000 -0.27411300
v 0.03217400 -0.02565200 -0.27414800
v 0.02570700 -0.03810000 -0.28097000
v 0.02585100 -0.02585400 -0.28083200
v 0.02916100 -0.03857400 -0.27775900
v 0.02939500 -0.02613700 -0.27753600
v 0.02199400 -0.03856600 -0.28368100
v 0.01776700 -0.03810000 -0.28611600
v 0.02191600 -0.02611600 -0.28381500
v 0.01367000 -0.03857800 -0.28785800
v 0.00785100 -0.03807500 -0.28951500
v 0.01349100 -0.02585700 -0.28795600
v 0.01776700 -0.02610000 -0.28611600
v 0.03989700 -0.02608500 -0.24411500
v 0.00289600 -0.03857600 -0.29010900
v 0.00742600 -0.02609600 -0.28960800
v -0.00214600 -0.03807800 -0.29023900
v -0.00723400 -0.03858100 -0.28956400
v -0.00685500 -0.02610000 -0.28966100
v 0.00259300 -0.02610000 -0.29016600
v -0.01592400 -0.03810000 -0.28696500
v -0.01994400 -0.03806800 -0.28499600
v -0.01592400 -0.02610000 -0.28696500
v -0.01148400 -0.03813300 -0.28859500
v -0.01161600 -0.02560100 -0.28856300
v -0.02393500 -0.03857500 -0.28232700
v -0.02771000 -0.03857700 -0.27918600
v -0.02536400 -0.02578100 -0.28126000
v -0.03097100 -0.03810000 -0.27570700
v -0.02885800 -0.02610000 -0.27805700
v -0.03404800 -0.03857400 -0.27146400
v -0.03197100 -0.02609200 -0.27448200
v -0.03611600 -0.03810000 -0.26776600
v -0.03580100 -0.02591300 -0.26853700
v -0.03926600 -0.03210000 -0.25884400
v -0.03808700 -0.03810900 -0.26314800
v -0.03988100 -0.03809900 -0.25599100
v -0.02048900 -0.02589500 -0.28468200
v -0.03989700 -0.02608500 -0.25588400
v -0.03810000 -0.02609600 -0.26311100
v -0.03957000 -0.03860000 -0.25461800
v -0.03963400 -0.03860000 -0.24588800
v -0.04024600 -0.03810000 -0.24943300
v -0.03799700 -0.03860000 -0.23821200
v -0.03867000 -0.03810900 -0.23865400
v -0.03492900 -0.03856500 -0.23004200
v -0.03696600 -0.03810000 -0.23407500
v -0.02905700 -0.03857900 -0.22213600
v -0.03222700 -0.03810000 -0.22588500
v -0.02155700 -0.03857100 -0.21603600
v -0.02155700 -0.03857100 -0.21603600
v -0.01045400 -0.03858000 -0.21112000
v -0.01660600 -0.03805700 -0.21327900
v -0.02570700 -0.03810000 -0.21902800
v 0.00345500 -0.03858600 -0.20992100
v -0.00096900 -0.03811400 -0.20974000
v 0.00850800 -0.03856800 -0.21066900
v 0.01592900 -0.03860000 -0.21350400
v 0.01297500 -0.03810000 -0.21189800
v 0.02545100 -0.03858200 -0.21878200
v 0.03435700 -0.03858500 -0.22908000
v 0.03435700 -0.03858500 -0.22908000
v 0.03196100 -0.03813500 -0.22550500
v 0.03890000 -0.03858300 -0.23981100
v 0.03611600 -0.03810000 -0.23223200
v 0.01737900 -0.03813200 -0.21367500
v -0.03194900 -0.03860000 -0.25719600
v -0.03767300 -0.03860000 -0.26279600
v -0.03404800 -0.03857400 -0.27146400
v -0.03957000 -0.03860000 -0.25461800
v -0.02771000 -0.03857700 -0.27918600
v -0.02862800 -0.03860000 -0.26590600
v -0.02298700 -0.03860000 -0.27332700
v -0.03268300 -0.03860000 -0.24790300
v -0.03963400 -0.03860000 -0.24588800
v -0.03799700 -0.03860000 -0.23821200
v -0.02636100 -0.03860000 -0.23056600
v -0.03492900 -0.03856500 -0.23004200
v -0.02905700 -0.03857900 -0.22213600
v -0.03076800 -0.03860000 -0.23878000
v -0.01691000 -0.03860000 -0.28600400
v -0.01548400 -0.03860000 -0.27885800
v -0.02393500 -0.03857500 -0.28232700
v -0.00723400 -0.03858100 -0.28956400
v -0.00672600 -0.03860000 -0.28205100
v 0.00289600 -0.03857600 -0.29010900
v 0.00257700 -0.03860000 -0.28264800
v 0.01167000 -0.03860000 -0.28059900
v 0.01367000 -0.03857800 -0.28785800
v 0.01981900 -0.03860000 -0.27607200
v 0.02199400 -0.03856600 -0.28368100
v 0.02916100 -0.03857400 -0.27775900
v 0.02636100 -0.03860000 -0.26943200
v -0.01981900 -0.03860000 -0.22392700
v -0.02155700 -0.03857100 -0.21603600
v -0.01045400 -0.03858000 -0.21112000
v -0.01167000 -0.03860000 -0.21939900
v -0.00257700 -0.03860000 -0.21735100
v 0.00345500 -0.03858600 -0.20992100
v 0.00850800 -0.03856800 -0.21066900
v 0.00672600 -0.03860000 -0.21794700
v 0.01592900 -0.03860000 -0.21350400
v 0.01548400 -0.03860000 -0.22114100
v 0.02298700 -0.03860000 -0.22667200
v 0.02545100 -0.03858200 -0.21878200
v 0.04021900 -0.03857400 -0.25041600
v 0.03268300 -0.03860000 -0.25209500
v 0.03076800 -0.03860000 -0.26121800
v 0.03864200 -0.03857800 -0.26127700
v 0.03194900 -0.03860000 -0.24280300
v 0.03890000 -0.03858300 -0.23981100
v 0.03442900 -0.03860000 -0.26990300
v 0.03435700 -0.03858500 -0.22908000
v 0.02862800 -0.03860000 -0.23409300
v -0.03150300 -0.02591700 -0.22491600
v -0.02575000 -0.02560000 -0.21965600
v -0.02575000 -0.02560000 -0.21965600
v -0.02575000 -0.02560000 -0.21965600
v -0.03483100 -0.02560600 -0.22977300
v -0.03483100 -0.02560600 -0.22977300
v -0.01161600 -0.02560100 -0.28856300
v -0.01161600 -0.02560100 -0.28856300
v -0.01161600 -0.02560100 -0.28856300
v -0.03861400 -0.02560000 -0.24037100
v -0.03861400 -0.02560000 -0.24037100
v -0.03932500 -0.02560000 -0.25623700
v -0.03932500 -0.02560000 -0.25623700
v -0.03702800 -0.02560000 -0.26464400
v -0.03702800 -0.02560000 -0.26464400
v -0.03979300 -0.02560000 -0.24838000
v -0.03979300 -0.02560000 -0.24838000
v 0.03861400 -0.02560000 -0.25962800
v 0.03861400 -0.02560000 -0.25962800
v 0.03861400 -0.02560000 -0.25962800
v 0.03861400 -0.02560000 -0.25962800
v 0.02067900 -0.02560000 -0.28394700
v 0.00694100 -0.02560000 -0.28919900
v 0.00694100 -0.02560000 -0.28919900
v 0.03217400 -0.02565200 -0.27414800
v 0.02050400 -0.02571600 -0.21532100
v 0.03034300 -0.02560000 -0.22424900
v 0.03034300 -0.02560000 -0.22424900
v 0.03034300 -0.02560000 -0.22424900
v 0.03034300 -0.02560000 -0.22424900
v 0.03034300 -0.02560000 -0.22424900
v 0.01009100 -0.02564000 -0.21106200
v 0.00103900 -0.02560200 -0.20979500
v 0.00103900 -0.02560200 -0.20979500
v 0.00103900 -0.02560200 -0.20979500
v -0.01464600 -0.02560000 -0.21298000
v -0.01464600 -0.02560000 -0.21298000
v -0.00192400 -0.02576600 -0.29019700
v -0.02536400 -0.02578100 -0.28126000
v -0.02048900 -0.02589500 -0.28468200
v 0.02585100 -0.02585400 -0.28083200
v -0.03580100 -0.02591300 -0.26853700
v -0.03034300 -0.02560000 -0.27575000
v -0.03701000 -0.02590200 -0.23420800
v 0.03695400 -0.02590100 -0.26592400
v 0.03479300 -0.02575500 -0.27022900
v 0.03979200 -0.02559900 -0.25161900
v 0.03979200 -0.02559900 -0.25161900
v 0.03932500 -0.02560000 -0.24376200
v 0.03932500 -0.02560000 -0.24376200
v 0.03702800 -0.02559900 -0.23535500
v 0.03702800 -0.02559900 -0.23535500
v 0.03387700 -0.02590300 -0.22824300
v -0.02184200 -0.02592500 -0.21614600
v 0.01456500 -0.02591700 -0.21246600
v -0.00455700 -0.02578700 -0.21000000
v 0.02545800 -0.02591200 -0.21881800
v 0.03205500 -0.04561100 -0.24316100
v 0.03063900 -0.04610000 -0.23963000
v 0.03226400 -0.04610000 -0.24783200
v 0.03266800 -0.04561600 -0.25257900
v 0.03156200 -0.04610000 -0.25741800
v 0.03276800 -0.04532700 -0.24771200
v 0.03200400 -0.04529200 -0.25747900
v 0.02851500 -0.04548700 -0.26634300
v 0.02816500 -0.04610000 -0.26585700
v 0.02451100 -0.04610000 -0.27103200
v 0.01872500 -0.04609600 -0.27681700
v 0.02270000 -0.04538300 -0.27376600
v 0.02522900 -0.04558500 -0.27091800
v 0.03019400 -0.04558800 -0.26273500
v -0.00543800 -0.04609500 -0.28227400
v -0.00543800 -0.04609500 -0.28227400
v 0.00034400 -0.04559400 -0.28277200
v 0.00437800 -0.04609600 -0.28242300
v -0.02676900 -0.04610000 -0.26829000
v -0.02283000 -0.04560900 -0.27350300
v -0.02035800 -0.04610000 -0.27511100
v -0.03063900 -0.04610000 -0.26036900
v -0.03060600 -0.04545300 -0.26197200
v -0.03205500 -0.04561100 -0.25683800
v -0.02693400 -0.04561300 -0.26889800
v 0.03268300 -0.03860000 -0.25209500
v 0.03276800 -0.04532700 -0.24771200
v 0.03266800 -0.04561600 -0.25257900
v 0.03194900 -0.03860000 -0.24280300
v 0.03200400 -0.04529200 -0.25747900
v 0.02851500 -0.04548700 -0.26634300
v 0.03076800 -0.03860000 -0.26121800
v 0.03019400 -0.04558800 -0.26273500
v 0.02636100 -0.03860000 -0.26943200
v 0.03205500 -0.04561100 -0.24316100
v 0.02522900 -0.04558500 -0.27091800
v 0.02270000 -0.04538300 -0.27376600
v 0.01981900 -0.03860000 -0.27607200
v 0.01872500 -0.04609600 -0.27681700
v 0.01167000 -0.03860000 -0.28059900
v 0.01605600 -0.04210000 -0.27854400
v 0.01436600 -0.04609600 -0.27941700
v 0.00950100 -0.04559100 -0.28138800
v 0.00719100 -0.04206900 -0.28194500
v 0.00437800 -0.04609600 -0.28242300
v 0.00257700 -0.03860000 -0.28264800
v 0.00034400 -0.04559400 -0.28277200
v -0.00269600 -0.04210000 -0.28263800
v -0.00543800 -0.04609500 -0.28227400
v -0.00672600 -0.03860000 -0.28205100
v -0.01080500 -0.04547400 -0.28104200
v -0.01548400 -0.03860000 -0.27885800
v -0.01498900 -0.04609200 -0.27904900
v -0.01937700 -0.04545900 -0.27654100
v -0.02298700 -0.03860000 -0.27332700
v -0.02283000 -0.04560900 -0.27350300
v -0.02693400 -0.04561300 -0.26889800
v -0.02862800 -0.03860000 -0.26590600
v -0.03060600 -0.04545300 -0.26197200
v -0.03194900 -0.03860000 -0.25719600
v -0.03205500 -0.04561100 -0.25683800
v -0.03019400 -0.04558800 -0.23726300
v -0.02810800 -0.04584200 -0.23315000
v -0.02910600 -0.04209200 -0.23499300
v -0.02052500 -0.04581500 -0.22437300
v -0.02356800 -0.04208800 -0.22726400
v -0.02522100 -0.04609900 -0.22915800
v -0.03268300 -0.03860000 -0.24790300
v -0.03276800 -0.04532700 -0.25228700
v -0.03266800 -0.04561600 -0.24742000
v -0.03194900 -0.03860000 -0.25719600
v -0.03219900 -0.04210000 -0.24401600
v -0.03076800 -0.03860000 -0.23878000
v -0.03178500 -0.04605500 -0.24206700
v -0.02636100 -0.03860000 -0.23056600
v -0.03205500 -0.04561100 -0.25683800
v -0.01981900 -0.03860000 -0.22392700
v -0.01167000 -0.03860000 -0.21939900
v -0.01605600 -0.04210000 -0.22145500
v -0.01417800 -0.04601700 -0.22048300
v -0.00950100 -0.04559100 -0.21861100
v -0.00719100 -0.04206900 -0.21805300
v -0.00436900 -0.04607600 -0.21757200
v -0.00257700 -0.03860000 -0.21735100
v -0.00034400 -0.04559400 -0.21722700
v 0.00269600 -0.04210000 -0.21736100
v 0.00543400 -0.04608600 -0.21772200
v 0.00672600 -0.03860000 -0.21794700
v 0.01080400 -0.04547400 -0.21895700
v 0.01548400 -0.03860000 -0.22114100
v 0.01497900 -0.04608700 -0.22094300
v 0.01937800 -0.04545900 -0.22345800
v 0.02298700 -0.03860000 -0.22667200
v 0.02283000 -0.04560900 -0.22649600
v 0.02693400 -0.04561300 -0.23110000
v 0.02862800 -0.03860000 -0.23409300
v 0.03060600 -0.04545300 -0.23802700
v 0.03194900 -0.03860000 -0.24280300
v 0.03205500 -0.04561100 -0.24316100
v -0.03205500 -0.04561100 -0.25683800
v -0.03063900 -0.04610000 -0.26036900
v -0.03226400 -0.04610000 -0.25216800
v -0.03266800 -0.04561600 -0.24742000
v -0.03178500 -0.04605500 -0.24206700
v -0.03178500 -0.04605500 -0.24206700
v -0.03276800 -0.04532700 -0.25228700
v -0.02810800 -0.04584200 -0.23315000
v -0.03019400 -0.04558800 -0.23726300
v 0.00543400 -0.04608600 -0.21772200
v 0.00543400 -0.04608600 -0.21772200
v -0.00034400 -0.04559400 -0.21722700
v -0.00436900 -0.04607600 -0.21757200
v 0.02676900 -0.04610000 -0.23170800
v 0.02283000 -0.04560900 -0.22649600
v 0.02035800 -0.04610000 -0.22488700
v 0.03063900 -0.04610000 -0.23963000
v 0.03060600 -0.04545300 -0.23802700
v 0.03205500 -0.04561100 -0.24316100
v 0.02693400 -0.04561300 -0.23110000
v -0.02522100 -0.04609900 -0.22915800
v -0.02522100 -0.04609900 -0.22915800
v -0.02522100 -0.04609900 -0.22915800
v -0.02522100 -0.04609900 -0.22915800
v -0.03226400 -0.04610000 -0.25216800
v -0.03226400 -0.04610000 -0.25216800
v -0.03063900 -0.04610000 -0.26036900
v -0.03063900 -0.04610000 -0.26036900
v -0.02676900 -0.04610000 -0.26829000
v -0.02676900 -0.04610000 -0.26829000
v -0.02810800 -0.04584200 -0.23315000
v -0.03178500 -0.04605500 -0.24206700
v -0.01498900 -0.04609200 -0.27904900
v -0.02035800 -0.04610000 -0.27511100
v -0.02035800 -0.04610000 -0.27511100
v -0.00543800 -0.04609500 -0.28227400
v -0.00543800 -0.04609500 -0.28227400
v 0.00437800 -0.04609600 -0.28242300
v 0.00437800 -0.04609600 -0.28242300
v 0.01436600 -0.04609600 -0.27941700
v 0.01872500 -0.04609600 -0.27681700
v 0.02451100 -0.04610000 -0.27103200
v -0.01417800 -0.04601700 -0.22048300
v -0.02052500 -0.04581500 -0.22437300
v -0.00436900 -0.04607600 -0.21757200
v 0.00543400 -0.04608600 -0.21772200
v 0.01497900 -0.04608700 -0.22094300
v 0.02035800 -0.04610000 -0.22488700
v 0.03226400 -0.04610000 -0.24783200
v 0.03156200 -0.04610000 -0.25741800
v 0.02816500 -0.04610000 -0.26585700
v 0.02676900 -0.04610000 -0.23170800
v 0.03063900 -0.04610000 -0.23963000
v -0.03989700 -0.02608500 -0.25588400
v -0.03932500 -0.02560000 -0.25623700
v -0.03810000 -0.02609600 -0.26311100
v -0.03702800 -0.02560000 -0.26464400
v -0.03580100 -0.02591300 -0.26853700
v -0.03580100 -0.02591300 -0.26853700
v -0.03034300 -0.02560000 -0.27575000
v -0.02885800 -0.02610000 -0.27805700
v -0.03197100 -0.02609200 -0.27448200
v -0.02536400 -0.02578100 -0.28126000
v -0.00685500 -0.02610000 -0.28966100
v -0.01161600 -0.02560100 -0.28856300
v -0.00192400 -0.02576600 -0.29019700
v 0.00742600 -0.02609600 -0.28960800
v 0.00259300 -0.02610000 -0.29016600
v 0.00694100 -0.02560000 -0.28919900
v 0.02939500 -0.02613700 -0.27753600
v 0.02585100 -0.02585400 -0.28083200
v 0.03217400 -0.02565200 -0.27414800
v 0.01776700 -0.02610000 -0.28611600
v 0.01349100 -0.02585700 -0.28795600
v 0.02067900 -0.02560000 -0.28394700
v 0.03986500 -0.02613300 -0.25582000
v 0.03861400 -0.02560000 -0.25962800
v 0.03979200 -0.02559900 -0.25161900
v 0.04024600 -0.02610000 -0.25056500
v 0.03857600 -0.02613900 -0.26162400
v 0.03989700 -0.02608500 -0.24411500
v 0.03932500 -0.02560000 -0.24376200
v 0.03989700 -0.02608500 -0.24411500
v 0.03932500 -0.02560000 -0.24376200
v 0.03810000 -0.02609600 -0.23688800
v 0.03702800 -0.02559900 -0.23535500
v 0.03611600 -0.02610000 -0.23223200
v 0.02986600 -0.02611200 -0.22293400
v 0.03034300 -0.02560000 -0.22424900
v 0.02545800 -0.02591200 -0.21881800
v 0.03387700 -0.02590300 -0.22824300
v 0.03387700 -0.02590300 -0.22824300
v 0.00525100 -0.02611800 -0.21007200
v 0.01009100 -0.02564000 -0.21106200
v 0.00103900 -0.02560200 -0.20979500
v -0.01464600 -0.02560000 -0.21298000
v -0.01005100 -0.02613600 -0.21097900
v -0.00455700 -0.02578700 -0.21000000
v -0.01619900 -0.02612100 -0.21308600
v -0.02698700 -0.02609000 -0.22008700
v -0.02575000 -0.02560000 -0.21965600
v -0.03150300 -0.02591700 -0.22491600
v -0.02184200 -0.02592500 -0.21614600
v -0.03992000 -0.02611800 -0.24470400
v -0.03861400 -0.02560000 -0.24037100
v -0.03979300 -0.02560000 -0.24838000
v -0.04024600 -0.02610000 -0.24943300
v -0.03877200 -0.02612000 -0.23905600
v -0.03989700 -0.02608500 -0.25588400
v -0.03932500 -0.02560000 -0.25623700
v 0.03696600 -0.03810000 -0.26592400
v 0.03222700 -0.03810000 -0.27411300
v -0.01592400 -0.03810000 -0.28696500
v -0.03611600 -0.03810000 -0.26776600
v -0.03957000 -0.03860000 -0.25461800
v -0.03992000 -0.02611800 -0.24470400
v 0.02545800 -0.02591200 -0.21881800
v 0.03479300 -0.02575500 -0.27022900
v -0.00192400 -0.02576600 -0.29019700
v -0.03988100 -0.03809900 -0.25599100
v -0.03994700 -0.03808800 -0.24470000
v -0.00573700 -0.03810000 -0.21016000
v 0.02885800 -0.03810000 -0.22194100
v 0.03739900 -0.03810000 -0.23512100
v 0.02151100 -0.03810000 -0.21598000
v 0.01349100 -0.02585700 -0.28795600
v 0.01436600 -0.04609600 -0.27941700
v 0.00950100 -0.04559100 -0.28138800
v -0.01498900 -0.04609200 -0.27904900
v -0.01080500 -0.04547400 -0.28104200
v -0.01937700 -0.04545900 -0.27654100
v -0.01417800 -0.04601700 -0.22048300
v -0.00950100 -0.04559100 -0.21861100
v 0.01497900 -0.04608700 -0.22094300
v 0.01080400 -0.04547400 -0.21895700
v 0.01937800 -0.04545900 -0.22345800
v -0.02048900 -0.02589500 -0.28468200
v -0.01592400 -0.02610000 -0.28696500
v 0.02191600 -0.02611600 -0.28381500
v 0.03695400 -0.02590100 -0.26592400
v -0.03701000 -0.02590200 -0.23420800
vn 0.68610000 -0.70500000 0.17970000
vn 0.70810000 -0.70600000 -0.00750000
vn 0.70310000 -0.70670000 0.07880000
vn 0.68050000 -0.70530000 -0.19880000
vn 0.61230000 -0.70700000 -0.35390000
vn 0.61240000 -0.70650000 -0.35460000
vn 0.70080000 -0.70690000 -0.09520000
vn 0.51320000 -0.70560000 -0.48860000
vn 0.51330000 -0.70560000 -0.48860000
vn 0.38720000 -0.70600000 -0.59300000
vn 0.45160000 -0.70710000 -0.54410000
vn 0.24070000 -0.70550000 -0.66660000
vn 0.31210000 -0.70710000 -0.63450000
vn 0.05110000 -0.70600000 -0.70630000
vn 0.05110000 -0.70610000 -0.70630000
vn 0.13780000 -0.70690000 -0.69380000
vn -0.12750000 -0.70550000 -0.69720000
vn -0.03780000 -0.70680000 -0.70640000
vn -0.30070000 -0.70690000 -0.64020000
vn -0.20170000 -0.70670000 -0.67820000
vn -0.59950000 -0.70570000 -0.37770000
vn -0.66980000 -0.70680000 -0.22750000
vn -0.66880000 -0.70670000 -0.23080000
vn -0.48770000 -0.70600000 -0.51350000
vn -0.54410000 -0.70710000 -0.45160000
vn -0.42130000 -0.70620000 -0.56900000
vn -0.35030000 -0.70700000 -0.61440000
vn -0.70130000 -0.70510000 -0.10520000
vn -0.97560000 -0.00000000 -0.21980000
vn -0.98890000 0.00000000 -0.14840000
vn -0.99990000 -0.00000000 0.01410000
vn -0.99990000 -0.00000000 0.01410000
vn -0.99130000 0.00000000 0.13160000
vn -0.95960000 -0.00000000 0.28150000
vn -0.96240000 0.00000000 0.27160000
vn -0.91840000 -0.00000000 0.39570000
vn -0.91980000 0.00000000 0.39240000
vn -0.86830000 0.00000000 0.49610000
vn -0.86480000 0.00000000 0.50220000
vn -0.80070000 -0.00000000 0.59910000
vn -0.72180000 -0.00000000 0.69210000
vn -0.78230000 -0.00000000 0.62290000
vn -0.63870000 -0.00000000 0.76950000
vn -0.66990000 -0.00000000 0.74250000
vn -0.53590000 -0.00000000 0.84430000
vn -0.54210000 -0.00000000 0.84030000
vn -0.41200000 -0.00000000 0.91120000
vn -0.25970000 0.00000000 0.96570000
vn -0.40180000 -0.00000000 0.91570000
vn -0.98930000 0.00000000 -0.14580000
vn -0.11310000 0.00000000 0.99360000
vn -0.24940000 0.00000000 0.96840000
vn -0.14250000 0.00000000 0.98980000
vn -0.02400000 -0.00000000 0.99970000
vn 0.08590000 -0.00000000 0.99630000
vn 0.02580000 0.00000000 0.99970000
vn 0.32230000 -0.00000000 0.94660000
vn 0.43160000 -0.00000000 0.90210000
vn 0.36180000 0.00000000 0.93230000
vn 0.21140000 0.00000000 0.97740000
vn 0.25090000 0.00000000 0.96800000
vn 0.13040000 0.00000000 0.99150000
vn 0.53450000 -0.00000000 0.84520000
vn 0.63190000 -0.00010000 0.77500000
vn 0.50900000 0.00000000 0.86080000
vn 0.71700000 -0.00000000 0.69710000
vn 0.74100000 0.00000000 0.67150000
vn 0.79370000 -0.00000000 0.60830000
vn 0.85410000 0.00000000 0.52000000
vn 0.84140000 -0.00000000 0.54040000
vn 0.89730000 0.00000000 0.44140000
vn 0.89730000 0.00000000 0.44140000
vn 0.97560000 -0.00000000 0.21980000
vn 0.92920000 0.00000000 0.36970000
vn 0.96730000 0.00000000 0.25360000
vn 0.98920000 0.00000000 0.14630000
vn 0.94560000 -0.00000000 0.32540000
vn 0.97560000 0.00000000 0.21970000
vn 0.96740000 0.00000000 0.25320000
vn 0.99380000 0.00000000 0.11120000
vn 0.99990000 -0.00000000 -0.01040000
vn 0.99090000 0.00000000 -0.13470000
vn 0.99990000 -0.00000000 -0.01410000
vn 0.96000000 -0.00000000 -0.28010000
vn 0.98950000 0.00000000 -0.14450000
vn 0.91840000 -0.00000000 -0.39560000
vn 0.95750000 -0.00000000 -0.28850000
vn 0.86540000 0.00000000 -0.50110000
vn 0.91830000 0.00000000 -0.39580000
vn 0.80070000 0.00000000 -0.59910000
vn 0.79980000 0.00000000 -0.60030000
vn 0.63870000 -0.00000000 -0.76950000
vn 0.64250000 -0.00000000 -0.76630000
vn 0.72430000 -0.00000000 -0.68950000
vn 0.72970000 0.00000000 -0.68370000
vn 0.54670000 -0.00000000 -0.83730000
vn 0.44140000 0.00000000 -0.89730000
vn 0.54390000 0.00000000 -0.83920000
vn 0.33960000 -0.00000000 -0.94060000
vn 0.19490000 -0.00000000 -0.98080000
vn 0.33480000 -0.00000000 -0.94230000
vn 0.44140000 0.00000000 -0.89730000
vn 0.98930000 -0.00000000 0.14580000
vn 0.07200000 -0.00000000 -0.99740000
vn 0.18430000 0.00000000 -0.98290000
vn -0.05330000 -0.00000000 -0.99860000
vn -0.17980000 -0.00000000 -0.98370000
vn -0.17030000 0.00000000 -0.98540000
vn 0.06440000 0.00000000 -0.99790000
vn -0.39570000 0.00000000 -0.91840000
vn -0.49510000 -0.00000000 -0.86880000
vn -0.39560000 0.00000000 -0.91840000
vn -0.28520000 -0.00000000 -0.95850000
vn -0.28830000 -0.00000000 -0.95750000
vn -0.59510000 -0.00000000 -0.80370000
vn -0.68850000 -0.00000000 -0.72520000
vn -0.63010000 0.00000000 -0.77660000
vn -0.76950000 -0.00000000 -0.63870000
vn -0.71700000 0.00000000 -0.69710000
vn -0.84590000 -0.00000000 -0.53330000
vn -0.79400000 0.00000000 -0.60800000
vn -0.89730000 -0.00000000 -0.44140000
vn -0.88800000 -0.00000000 -0.45980000
vn -0.97560000 -0.00000000 -0.21980000
vn -0.94530000 -0.00000000 -0.32630000
vn -0.98880000 -0.00000000 -0.14890000
vn -0.50870000 0.00000000 -0.86100000
vn -0.98920000 -0.00000000 -0.14630000
vn -0.94560000 0.00000000 -0.32540000
vn -0.70270000 -0.70680000 -0.08200000
vn -0.70420000 -0.70620000 0.07310000
vn -0.70700000 -0.70710000 0.00990000
vn -0.67570000 -0.70680000 0.20960000
vn -0.67900000 -0.70660000 0.19930000
vn -0.61480000 -0.70610000 0.35130000
vn -0.64940000 -0.70710000 0.27970000
vn -0.51150000 -0.70540000 0.49060000
vn -0.56620000 -0.70710000 0.42360000
vn -0.37960000 -0.70570000 0.59830000
vn -0.37960000 -0.70570000 0.59820000
vn -0.18400000 -0.70500000 0.68500000
vn -0.29160000 -0.70690000 0.64440000
vn -0.45160000 -0.70710000 0.54410000
vn 0.06070000 -0.70550000 0.70610000
vn -0.01690000 -0.70680000 0.70720000
vn 0.14950000 -0.70660000 0.69160000
vn 0.28320000 -0.70650000 0.64860000
vn 0.22790000 -0.70710000 0.66930000
vn 0.44860000 -0.70460000 0.54990000
vn 0.60500000 -0.70570000 0.36860000
vn 0.60510000 -0.70570000 0.36860000
vn 0.56160000 -0.70670000 0.43030000
vn 0.68670000 -0.70430000 0.18030000
vn 0.63450000 -0.70710000 0.31210000
vn 0.30530000 -0.70670000 0.63820000
vn 0.00000000 -1.00000000 0.00000000
vn 0.00000000 -1.00000000 0.00000000
vn 0.00000000 -1.00000000 0.00000000
vn 0.00000000 -1.00000000 0.00000000
vn 0.00000000 -1.00000000 0.00000000
vn 0.00000000 -1.00000000 0.00000000
vn 0.00000000 -1.00000000 0.00000000
vn 0.00000000 -1.00000000 0.00000000
vn 0.00000000 -1.00000000 0.00000000
vn 0.00000000 -1.00000000 0.00000000
vn 0.00000000 -1.00000000 0.00000000
vn 0.00000000 -1.00000000 0.00000000
vn 0.00000000 -1.00000000 0.00000000
vn 0.00000000 -1.00000000 0.00000000
vn 0.00000000 -1.00000000 0.00000000
vn 0.00000000 -1.00000000 0.00000000
vn 0.00000000 -1.00000000 0.00000000
vn 0.00000000 -1.00000000 0.00000000
vn 0.00000000 -1.00000000 0.00000000
vn 0.00000000 -1.00000000 0.00000000
vn 0.00000000 -1.00000000 0.00000000
vn 0.00000000 -1.00000000 0.00000000
vn 0.00000000 -1.00000000 0.00000000
vn 0.00000000 -1.00000000 0.00000000
vn 0.00000000 -1.00000000 0.00000000
vn 0.00000000 -1.00000000 0.00000000
vn 0.00000000 -1.00000000 0.00000000
vn 0.00000000 -1.00000000 0.00000000
vn 0.00000000 -1.00000000 0.00000000
vn 0.00000000 -1.00000000 0.00000000
vn 0.00000000 -1.00000000 0.00000000
vn 0.00000000 -1.00000000 0.00000000
vn 0.00000000 -1.00000000 0.00000000
vn 0.00000000 -1.00000000 0.00000000
vn 0.00000000 -1.00000000 0.00000000
vn 0.00000000 -1.00000000 0.00000000
vn 0.00000000 -1.00000000 0.00000000
vn 0.00000000 -1.00000000 0.00000000
vn 0.00000000 -1.00000000 0.00000000
vn 0.00000000 -1.00000000 0.00000000
vn 0.00000000 -1.00000000 0.00000000
vn 0.00000000 -1.00000000 0.00000000
vn 0.00000000 -1.00000000 0.00000000
vn 0.00000000 -1.00000000 0.00000000
vn 0.00000000 -1.00000000 0.00000000
vn 0.00000000 -1.00000000 0.00000000
vn 0.00000000 -1.00000000 0.00000000
vn 0.00000000 -1.00000000 0.00000000
vn 0.00000000 1.00000000 0.00000000
vn -0.00010000 1.00000000 -0.00000000
vn 0.00000000 1.00000000 0.00000000
vn -0.00000000 1.00000000 0.00010000
vn -0.00010000 1.00000000 -0.00000000
vn 0.00000000 1.00000000 0.00000000
vn 0.00010000 1.00000000 0.00000000
vn 0.00000000 1.00000000 0.00000000
vn -0.00010000 1.00000000 -0.00000000
vn 0.00010000 1.00000000 0.00000000
vn 0.00000000 1.00000000 0.00000000
vn 0.00010000 1.00000000 0.00000000
vn 0.00000000 1.00000000 0.00000000
vn 0.00010000 1.00000000 0.00000000
vn 0.00000000 1.00000000 0.00000000
vn 0.00000000 1.00000000 0.00000000
vn 0.00010000 1.00000000 0.00000000
vn -0.00020000 1.00000000 -0.00010000
vn -0.00010000 1.00000000 -0.00000000
vn 0.00000000 1.00000000 0.00000000
vn -0.00000000 1.00000000 0.00010000
vn 0.00000000 1.00000000 0.00000000
vn -0.00010000 1.00000000 -0.00000000
vn 0.00000000 1.00000000 0.00000000
vn 0.00000000 1.00000000 0.00000000
vn 0.00000000 1.00000000 0.00000000
vn 0.00000000 1.00000000 0.00000000
vn -0.00020000 1.00000000 -0.00010000
vn 0.00010000 1.00000000 0.00010000
vn -0.00030000 1.00000000 -0.00010000
vn -0.00010000 1.00000000 -0.00000000
vn 0.00000000 1.00000000 0.00000000
vn -0.00000000 1.00000000 0.00010000
vn -0.00010000 1.00000000 -0.00000000
vn 0.00000000 1.00000000 0.00000000
vn -0.00000000 1.00000000 0.00010000
vn 0.00000000 1.00000000 0.00000000
vn 0.00000000 1.00000000 0.00000000
vn 0.00000000 1.00000000 0.00000000
vn 0.00000000 1.00000000 0.00000000
vn 0.00000000 1.00000000 0.00000000
vn 0.00000000 1.00000000 0.00000000
vn 0.00000000 1.00000000 0.00000000
vn 0.00000000 1.00000000 0.00000000
vn 0.00000000 1.00000000 0.00000000
vn 0.00000000 1.00000000 0.00000000
vn -0.00020000 1.00000000 -0.00010000
vn 0.00010000 1.00000000 0.00010000
vn 0.00010000 1.00000000 0.00010000
vn -0.00030000 1.00000000 -0.00010000
vn 0.00000000 1.00000000 0.00000000
vn -0.00030000 1.00000000 -0.00010000
vn 0.00000000 1.00000000 0.00000000
vn 0.00000000 1.00000000 0.00000000
vn 0.00000000 1.00000000 0.00000000
vn 0.00000000 1.00000000 0.00000000
vn 0.00000000 1.00000000 0.00000000
vn 0.69190000 -0.70660000 0.14790000
vn 0.67320000 -0.70380000 0.22680000
vn 0.70640000 -0.70630000 0.04730000
vn 0.70530000 -0.70670000 -0.05570000
vn 0.69020000 -0.70510000 -0.16230000
vn 0.70530000 -0.70720000 0.04920000
vn 0.68850000 -0.70720000 -0.16100000
vn 0.61450000 -0.70610000 -0.35190000
vn 0.61690000 -0.70630000 -0.34720000
vn 0.53700000 -0.70660000 -0.46080000
vn 0.40560000 -0.70590000 -0.58070000
vn 0.48890000 -0.70620000 -0.51210000
vn 0.54440000 -0.70700000 -0.45150000
vn 0.65160000 -0.70700000 -0.27490000
vn -0.11800000 -0.70490000 -0.69950000
vn -0.11800000 -0.70480000 -0.69950000
vn 0.00740000 -0.70670000 -0.70750000
vn 0.09490000 -0.70520000 -0.70260000
vn -0.58550000 -0.70510000 -0.40000000
vn -0.49290000 -0.70680000 -0.50750000
vn -0.44590000 -0.70620000 -0.54990000
vn -0.67020000 -0.70670000 -0.22680000
vn -0.65910000 -0.70660000 -0.25760000
vn -0.69240000 -0.70620000 -0.14780000
vn -0.58010000 -0.70560000 -0.40690000
vn 0.99800000 -0.00000000 -0.06400000
vn 0.99760000 -0.00000000 0.06970000
vn 0.99690000 0.00000000 -0.07870000
vn 0.97560000 0.00000000 0.21970000
vn 0.97380000 -0.00000000 -0.22760000
vn 0.86760000 0.00000000 -0.49720000
vn 0.93950000 -0.00000000 -0.34260000
vn 0.92140000 -0.00000000 -0.38870000
vn 0.80490000 0.00000000 -0.59340000
vn 0.97800000 0.00000000 0.20860000
vn 0.76980000 0.00000000 -0.63830000
vn 0.69070000 -0.00000000 -0.72310000
vn 0.60520000 0.00000000 -0.79610000
vn 0.57240000 -0.00000000 -0.82000000
vn 0.35630000 -0.00000000 -0.93440000
vn 0.49030000 -0.00000000 -0.87160000
vn 0.43880000 -0.00000000 -0.89860000
vn 0.28970000 0.00000000 -0.95710000
vn 0.21960000 -0.00000000 -0.97560000
vn 0.13380000 -0.00000000 -0.99100000
vn 0.07870000 0.00000000 -0.99690000
vn 0.01050000 0.00000000 -0.99990000
vn -0.08230000 -0.00000000 -0.99660000
vn -0.16610000 0.00000000 -0.98610000
vn -0.20540000 -0.00000000 -0.97870000
vn -0.32870000 -0.00000000 -0.94440000
vn -0.47280000 -0.00000000 -0.88120000
vn -0.45860000 0.00000000 -0.88870000
vn -0.58970000 -0.00000000 -0.80760000
vn -0.70190000 -0.00000000 -0.71230000
vn -0.69670000 0.00000000 -0.71730000
vn -0.81870000 0.00000000 -0.57430000
vn -0.87410000 -0.00000000 -0.48570000
vn -0.93130000 0.00000000 -0.36430000
vn -0.97560000 -0.00000000 -0.21980000
vn -0.97800000 0.00000000 -0.20870000
vn -0.92140000 0.00000000 0.38860000
vn -0.85770000 -0.00000000 0.51420000
vn -0.88880000 -0.00000000 0.45830000
vn -0.62510000 0.00000000 0.78060000
vn -0.71970000 0.00000000 0.69430000
vn -0.77090000 0.00000000 0.63700000
vn -0.99790000 -0.00000000 0.06400000
vn -0.99760000 -0.00000000 -0.06970000
vn -0.99690000 -0.00000000 0.07870000
vn -0.97560000 -0.00000000 -0.21970000
vn -0.98320000 -0.00000000 0.18270000
vn -0.93950000 -0.00000000 0.34260000
vn -0.97020000 -0.00000000 0.24220000
vn -0.80490000 0.00000000 0.59340000
vn -0.97800000 -0.00000000 -0.20860000
vn -0.60520000 0.00000000 0.79610000
vn -0.35630000 -0.00000000 0.93440000
vn -0.49020000 0.00000000 0.87160000
vn -0.43300000 0.00000000 0.90140000
vn -0.28970000 -0.00000000 0.95710000
vn -0.21960000 0.00000000 0.97560000
vn -0.13360000 -0.00000000 0.99100000
vn -0.07870000 0.00000000 0.99690000
vn -0.01050000 0.00000000 0.99990000
vn 0.08230000 0.00000000 0.99660000
vn 0.16590000 -0.00000000 0.98610000
vn 0.20540000 0.00000000 0.97870000
vn 0.32870000 -0.00000000 0.94440000
vn 0.47280000 -0.00000000 0.88120000
vn 0.45820000 -0.00000000 0.88880000
vn 0.58970000 -0.00000000 0.80760000
vn 0.70190000 -0.00000000 0.71230000
vn 0.69670000 -0.00000000 0.71730000
vn 0.81870000 0.00000000 0.57430000
vn 0.87410000 -0.00000000 0.48570000
vn 0.93130000 0.00000000 0.36430000
vn 0.97560000 -0.00000000 0.21980000
vn 0.97800000 0.00000000 0.20870000
vn -0.69200000 -0.70660000 -0.14790000
vn -0.67320000 -0.70380000 -0.22680000
vn -0.70640000 -0.70630000 -0.04740000
vn -0.70530000 -0.70670000 0.05570000
vn -0.68830000 -0.70470000 0.17200000
vn -0.68840000 -0.70470000 0.17200000
vn -0.70530000 -0.70720000 -0.04920000
vn -0.60740000 -0.70600000 0.36410000
vn -0.65170000 -0.70700000 0.27480000
vn 0.11790000 -0.70490000 0.69950000
vn 0.11780000 -0.70490000 0.69950000
vn -0.00740000 -0.70680000 0.70740000
vn -0.09470000 -0.70520000 0.70260000
vn 0.58550000 -0.70510000 0.40000000
vn 0.49290000 -0.70680000 0.50750000
vn 0.44590000 -0.70630000 0.54990000
vn 0.67020000 -0.70670000 0.22680000
vn 0.65910000 -0.70660000 0.25760000
vn 0.69230000 -0.70630000 0.14780000
vn 0.58000000 -0.70570000 0.40700000
vn 0.00000000 -1.00000000 0.00000000
vn -0.00010000 -1.00000000 -0.00010000
vn 0.00020000 -1.00000000 0.00000000
vn 0.00010000 -1.00000000 0.00000000
vn 0.00020000 -1.00000000 0.00000000
vn 0.00000000 -1.00000000 0.00000000
vn 0.00020000 -1.00000000 0.00000000
vn 0.00000000 -1.00000000 0.00000000
vn 0.00010000 -1.00000000 0.00000000
vn 0.00000000 -1.00000000 0.00000000
vn 0.00000000 -1.00000000 0.00000000
vn 0.00000000 -1.00000000 0.00000000
vn 0.00000000 -1.00000000 0.00000000
vn 0.00010000 -1.00000000 0.00000000
vn 0.00000000 -1.00000000 0.00000000
vn -0.00010000 -1.00000000 -0.00010000
vn 0.00000000 -1.00000000 0.00000000
vn 0.00000000 -1.00000000 0.00000000
vn -0.00010000 -1.00000000 -0.00010000
vn 0.00000000 -1.00000000 0.00000000
vn 0.00000000 -1.00000000 0.00000000
vn 0.00000000 -1.00000000 0.00000000
vn 0.00000000 -1.00000000 0.00000000
vn 0.00000000 -1.00000000 0.00000000
vn 0.00000000 -1.00000000 0.00000000
vn 0.00000000 -1.00000000 0.00000000
vn 0.00000000 -1.00000000 0.00000000
vn 0.00000000 -1.00000000 0.00000000
vn 0.00000000 -1.00000000 0.00000000
vn 0.00000000 -1.00000000 0.00000000
vn 0.00000000 -1.00000000 0.00000000
vn 0.00000000 -1.00000000 0.00000000
vn 0.00000000 -1.00000000 0.00000000
vn -0.70160000 0.70500000 -0.10370000
vn -0.70010000 0.70530000 -0.11160000
vn -0.66890000 0.70680000 -0.23030000
vn -0.65810000 0.70660000 -0.26020000
vn -0.62860000 0.70640000 -0.32560000
vn -0.62850000 0.70640000 -0.32560000
vn -0.53940000 0.70670000 -0.45780000
vn -0.50700000 0.70710000 -0.49290000
vn -0.56150000 0.70680000 -0.43020000
vn -0.44580000 0.70670000 -0.54950000
vn -0.12040000 0.70710000 -0.69680000
vn -0.20440000 0.70580000 -0.67830000
vn -0.03380000 0.70610000 -0.70730000
vn 0.13040000 0.70670000 -0.69540000
vn 0.04560000 0.70710000 -0.70570000
vn 0.12340000 0.70660000 -0.69680000
vn 0.51620000 0.70690000 -0.48350000
vn 0.45470000 0.70660000 -0.54220000
vn 0.56580000 0.70660000 -0.42490000
vn 0.31210000 0.70710000 -0.63450000
vn 0.23710000 0.70630000 -0.66700000
vn 0.36790000 0.70710000 -0.60390000
vn 0.69990000 0.70690000 -0.10210000
vn 0.68650000 0.70670000 -0.17120000
vn 0.70730000 0.70640000 -0.02880000
vn 0.70700000 0.70710000 -0.00990000
vn 0.67730000 0.70690000 -0.20410000
vn 0.70010000 0.70650000 0.10340000
vn 0.69850000 0.70700000 0.11080000
vn 0.70160000 0.70500000 0.10370000
vn 0.70010000 0.70530000 0.11160000
vn 0.66890000 0.70680000 0.23030000
vn 0.65810000 0.70660000 0.26030000
vn 0.63450000 0.70710000 0.31210000
vn 0.52430000 0.70660000 0.47510000
vn 0.53950000 0.70670000 0.45780000
vn 0.44740000 0.70660000 0.54820000
vn 0.59540000 0.70660000 0.38240000
vn 0.59540000 0.70660000 0.38250000
vn 0.09210000 0.70700000 0.70120000
vn 0.17780000 0.70650000 0.68500000
vn 0.01850000 0.70620000 0.70780000
vn -0.26040000 0.70650000 0.65800000
vn -0.17630000 0.70690000 0.68500000
vn -0.08020000 0.70600000 0.70370000
vn -0.28430000 0.70660000 0.64790000
vn -0.47400000 0.70660000 0.52540000
vn -0.45780000 0.70670000 0.53940000
vn -0.55360000 0.70660000 0.44080000
vn -0.38370000 0.70660000 0.59460000
vn -0.70110000 0.70690000 0.09290000
vn -0.68650000 0.70670000 0.17120000
vn -0.70720000 0.70640000 0.02880000
vn -0.70700000 0.70710000 0.00990000
vn -0.68080000 0.70680000 0.19210000
vn -0.70010000 0.70650000 -0.10340000
vn -0.69850000 0.70700000 -0.11080000
vn 0.64940000 -0.70710000 -0.27980000
vn 0.56620000 -0.70710000 -0.42360000
vn -0.27980000 -0.70710000 -0.64940000
vn -0.63450000 -0.70710000 -0.31210000
vn -0.70570000 -0.70360000 -0.08290000
vn -0.99130000 0.00000000 0.13150000
vn 0.63240000 0.00000000 0.77460000
vn 0.86450000 0.00000000 -0.50260000
vn -0.04780000 -0.00000000 -0.99890000
vn -0.69950000 -0.70680000 -0.10510000
vn -0.70120000 -0.70680000 0.09300000
vn -0.10080000 -0.70710000 0.69990000
vn 0.50700000 -0.70710000 0.49290000
vn 0.65700000 -0.70710000 0.26140000
vn 0.37790000 -0.70710000 0.59760000
vn 0.00000000 1.00000000 0.00000000
vn 0.31080000 -0.70560000 -0.63680000
vn 0.20500000 -0.70660000 -0.67730000
vn -0.32470000 -0.70610000 -0.62930000
vn -0.23240000 -0.70650000 -0.66850000
vn -0.41740000 -0.70660000 -0.57140000
vn -0.30660000 -0.70570000 0.63880000
vn -0.20500000 -0.70660000 0.67730000
vn 0.32440000 -0.70610000 0.62950000
vn 0.23250000 -0.70650000 0.66850000
vn 0.41740000 -0.70660000 0.57140000
vn -0.36000000 0.70650000 -0.60940000
vn -0.27980000 0.70710000 -0.64940000
vn 0.38460000 0.70680000 -0.59370000
vn 0.64970000 0.70680000 -0.27990000
vn -0.65070000 0.70680000 0.27750000
vt 0.50118800 0.99542800
vt 0.54317000 0.99634000
vt 0.52399600 1.00007700
vt 0.58614300 0.99589500
vt 0.62380000 0.99401600
vt 0.62392400 0.99974900
vt 0.56270700 1.00050300
vt 0.66099100 0.99616400
vt 0.66099100 0.99616400
vt 0.69734200 0.99637700
vt 0.67937500 1.00000000
vt 0.73373000 0.99606800
vt 0.71637000 1.00000000
vt 0.77683100 0.99623400
vt 0.77683100 0.99623400
vt 0.75737900 1.00024800
vt 0.81657000 0.99586800
vt 0.79654900 1.00022600
vt 0.85710000 0.99401900
vt 0.83353600 0.99963000
vt 0.94648500 0.99623700
vt 0.98336700 0.99404500
vt 0.98261200 0.99989900
vt 0.90736400 0.99633700
vt 0.92601000 1.00000000
vt 0.88821200 0.99638900
vt 0.86950200 1.00033600
vt 1.01148300 0.99906800
vt 0.48430900 0.57965200
vt 0.49464300 0.52892500
vt 0.51794100 0.52887700
vt 0.51794100 0.63042700
vt 0.53476000 0.52898000
vt 0.55666500 0.52880300
vt 0.55520000 0.63026200
vt 0.57399400 0.52887700
vt 0.57349700 0.63210100
vt 0.59003000 0.52494500
vt 0.59102800 0.63460600
vt 0.60762600 0.52887700
vt 0.62504800 0.52482400
vt 0.61191500 0.63197400
vt 0.64125800 0.52887700
vt 0.63537400 0.63051500
vt 0.65941900 0.52489400
vt 0.65835800 0.63190800
vt 0.67952700 0.52923800
vt 0.70265000 0.52481200
vt 0.68111800 0.63024300
vt 0.49502600 0.63052400
vt 0.72395800 0.63307800
vt 0.70415800 0.63011700
vt 0.71973200 0.52887700
vt 0.73671300 0.52875500
vt 0.75242000 0.52476200
vt 0.74383200 0.63464400
vt 0.78699600 0.52887700
vt 0.80384400 0.52860500
vt 0.79298200 0.63197900
vt 0.77055300 0.52491600
vt 0.77634300 0.63432300
vt 0.75881100 0.63027100
vt 0.82062800 0.52887700
vt 0.83777700 0.52479900
vt 0.81636400 0.63368000
vt 0.85426000 0.52887700
vt 0.85926900 0.63032400
vt 0.87102100 0.52858400
vt 0.88629300 0.52477200
vt 0.88287200 0.63209500
vt 0.89910200 0.52887700
vt 0.89910200 0.63042700
vt 0.93273400 0.57965200
vt 0.91031300 0.52887700
vt 0.92777500 0.52481900
vt 0.94345700 0.63056300
vt 0.91705100 0.63045500
vt 0.48430900 0.57965200
vt 0.47938500 0.52478500
vt 0.50003100 0.52895100
vt 0.51741100 0.52487500
vt 0.53521900 0.52929100
vt 0.51794100 0.63042700
vt 0.55646400 0.52483300
vt 0.53662700 0.63014800
vt 0.57399400 0.52887700
vt 0.55771000 0.63009800
vt 0.59085600 0.52869400
vt 0.57401200 0.63210800
vt 0.60762600 0.52887700
vt 0.60783500 0.63422000
vt 0.64125800 0.52887700
vt 0.64055200 0.63251100
vt 0.62452600 0.52486600
vt 0.62338200 0.63011100
vt 0.65757500 0.52492900
vt 0.67489000 0.52887700
vt 0.65806500 0.63029000
vt 0.69068400 0.52483200
vt 0.71215100 0.52908600
vt 0.69140100 0.63248300
vt 0.67489000 0.63042700
vt 0.49502700 0.63052400
vt 0.72985900 0.52485000
vt 0.71369100 0.63046200
vt 0.74775200 0.52906100
vt 0.76595900 0.52480600
vt 0.76457500 0.63042700
vt 0.73094300 0.63042700
vt 0.79820700 0.52887700
vt 0.81408100 0.52914800
vt 0.79820700 0.63042700
vt 0.78142700 0.52859700
vt 0.78190600 0.63464900
vt 0.83111800 0.52485700
vt 0.84854800 0.52484000
vt 0.83744100 0.63312700
vt 0.86547000 0.52887700
vt 0.85426000 0.63042700
vt 0.88407100 0.52486900
vt 0.87107700 0.63049600
vt 0.89910200 0.52887700
vt 0.89615700 0.63201000
vt 0.93273400 0.57965200
vt 0.91691000 0.52880400
vt 0.94307500 0.52888200
vt 0.81631000 0.63216300
vt 0.94345700 0.63056300
vt 0.91705000 0.63045500
vt 0.52325100 0.99431100
vt 0.55775900 0.99398500
vt 0.54372600 1.00000000
vt 0.58874200 0.99401100
vt 0.58635100 0.99988800
vt 0.62303400 0.99645500
vt 0.60538500 1.00000000
vt 0.66155700 0.99606200
vt 0.64238000 1.00000000
vt 0.69934600 0.99605600
vt 0.69934600 0.99605600
vt 0.74692200 0.99574100
vt 0.72144000 1.00044300
vt 0.67937500 1.00000000
vt 0.80169700 0.99575100
vt 0.78440500 0.99984200
vt 0.82157000 0.99693400
vt 0.85278800 0.99402100
vt 0.83968700 1.00000000
vt 0.89556600 0.99552700
vt 0.94889400 0.99605400
vt 0.94889400 0.99605400
vt 0.93213800 0.99961300
vt 0.99460400 0.99493600
vt 0.96300500 1.00000000
vt 0.85819400 0.99964000
vt 0.04278800 0.19040400
vt 0.01439500 0.18966500
vt 0.00174900 0.26322200
vt 0.03014300 0.12937700
vt -0.00172500 0.34735700
vt 0.02927700 0.26239900
vt 0.02481300 0.34056000
vt 0.06425100 0.13040900
vt 0.05187500 0.07675600
vt 0.07522900 0.04061600
vt 0.12357700 0.06449400
vt 0.10340900 0.01009300
vt 0.13795900 -0.00208100
vt 0.09192900 0.08727400
vt 0.00826000 0.45278100
vt 0.02975800 0.41855700
vt -0.00013400 0.38873800
vt 0.02360000 0.53198200
vt 0.04371200 0.49006900
vt 0.04763300 0.59586000
vt 0.06554300 0.54930400
vt 0.09348300 0.59146300
vt 0.08029600 0.64686700
vt 0.12526900 0.61313000
vt 0.11164400 0.67167700
vt 0.14446600 0.67913100
vt 0.15832500 0.61254900
vt 0.15663400 0.06391300
vt 0.17206200 0.00629400
vt 0.21223200 0.04331600
vt 0.18841900 0.08558000
vt 0.21636000 0.12773900
vt 0.25011400 0.11937100
vt 0.26091100 0.15408100
vt 0.23819100 0.18697400
vt 0.27241100 0.21545600
vt 0.25214400 0.25848600
vt 0.25708900 0.33648300
vt 0.28305500 0.30401500
vt 0.24076000 0.58168500
vt 0.21765100 0.54663400
vt 0.18997400 0.58976900
vt 0.20957000 0.63723700
vt 0.23911500 0.48663900
vt 0.26404400 0.51032800
vt 0.17737700 0.66364100
vt 0.27956300 0.41893000
vt 0.25262500 0.41464400
vt 0.36464100 0.67494100
vt 0.39225700 0.67191800
vt 0.39225700 0.67191800
vt 0.39225700 0.67191800
vt 0.34411700 0.66570800
vt 0.34411700 0.66570800
vt 0.25490800 0.17500700
vt 0.25490800 0.17500700
vt 0.25490800 0.17500700
vt 0.30805700 0.62493700
vt 0.30805700 0.62493700
vt 0.26648600 0.53425100
vt 0.26648600 0.53425100
vt 0.25116500 0.47020200
vt 0.25116500 0.47020200
vt 0.28501600 0.58406700
vt 0.28501600 0.58406700
vt 0.45342200 0.04758300
vt 0.45342200 0.04758300
vt 0.45342200 0.04758300
vt 0.45342200 0.04758300
vt 0.34746500 0.00938200
vt 0.29984900 0.06016000
vt 0.29984900 0.06016000
vt 0.40086100 -0.00076600
vt 0.51908600 0.42105300
vt 0.52140000 0.30877700
vt 0.52140000 0.30877700
vt 0.52140000 0.30877700
vt 0.52140000 0.30877700
vt 0.52140000 0.30877700
vt 0.50367300 0.50886000
vt 0.48416200 0.57062100
vt 0.48416200 0.57062100
vt 0.48416200 0.57062100
vt 0.43684300 0.64542300
vt 0.43684300 0.64542300
vt 0.27511900 0.10725100
vt 0.23874700 0.30097500
vt 0.24236500 0.25131400
vt 0.36824700 -0.00293800
vt 0.24445400 0.43957600
vt 0.24007800 0.36374400
vt 0.32753000 0.65221500
vt 0.43347300 0.01984100
vt 0.41725200 0.00705300
vt 0.47646200 0.08845700
vt 0.47646200 0.08845700
vt 0.49499300 0.13827000
vt 0.49499300 0.13827000
vt 0.51031200 0.20232200
vt 0.51031200 0.20232200
vt 0.52024600 0.26373100
vt 0.41086000 0.66954000
vt 0.51138300 0.47370000
vt 0.46961200 0.60286300
vt 0.52276800 0.37051000
vt 0.46216200 0.91010900
vt 0.44746100 0.90297100
vt 0.48053100 0.90430100
vt 0.49914300 0.91004600
vt 0.51858900 0.90418000
vt 0.48017500 0.91260300
vt 0.51841100 0.91297900
vt 0.55548400 0.91100200
vt 0.55457900 0.90425600
vt 0.57968200 0.90425300
vt 0.61188200 0.90636000
vt 0.59234700 0.91173700
vt 0.57752800 0.91039500
vt 0.54007000 0.91036700
vt 0.71108500 0.90587200
vt 0.71108500 0.90587200
vt 0.68842600 0.91023000
vt 0.67260000 0.90607800
vt 0.81386600 0.90414400
vt 0.78823200 0.91011100
vt 0.77679300 0.90423400
vt 0.84875400 0.90459500
vt 0.84284100 0.91151800
vt 0.86358400 0.90989400
vt 0.81224700 0.91003500
vt 0.47570000 0.58346000
vt 0.46016900 0.52655400
vt 0.47741300 0.52409100
vt 0.44253000 0.58346000
vt 0.49493300 0.52685200
vt 0.52871300 0.52520500
vt 0.50887000 0.58346000
vt 0.51462200 0.52432400
vt 0.54203900 0.58346000
vt 0.44385100 0.52412800
vt 0.54866500 0.52434600
vt 0.56214900 0.52609000
vt 0.57520900 0.58346000
vt 0.57991000 0.52003200
vt 0.60837900 0.58346000
vt 0.59118800 0.55384100
vt 0.59793400 0.52002800
vt 0.61656000 0.52429500
vt 0.62498300 0.55410100
vt 0.63510600 0.52002900
vt 0.64154900 0.58346000
vt 0.64947800 0.52428300
vt 0.66026600 0.55384100
vt 0.67007800 0.52003000
vt 0.67471900 0.58346000
vt 0.68959200 0.52531200
vt 0.70788800 0.58346000
vt 0.70602100 0.52005900
vt 0.72393600 0.52543800
vt 0.74105800 0.58346000
vt 0.74022500 0.52414400
vt 0.76207500 0.52412800
vt 0.77422800 0.58346000
vt 0.78981600 0.52549500
vt 0.80739800 0.58346000
vt 0.80872100 0.52413000
vt 0.51462200 0.52432400
vt 0.53097800 0.52218400
vt 0.52354900 0.55390900
vt 0.57226200 0.52240300
vt 0.55739100 0.55394500
vt 0.54847300 0.51999900
vt 0.47570000 0.58346000
vt 0.46017000 0.52655300
vt 0.47741300 0.52409100
vt 0.44253000 0.58346000
vt 0.48960000 0.55384100
vt 0.50887000 0.58346000
vt 0.49666700 0.52038500
vt 0.54203900 0.58346000
vt 0.44385200 0.52412800
vt 0.57520900 0.58346000
vt 0.60837900 0.58346000
vt 0.59118800 0.55384100
vt 0.59868500 0.52069400
vt 0.61656100 0.52429500
vt 0.62498300 0.55410100
vt 0.63513700 0.52019700
vt 0.64154900 0.58346000
vt 0.64947700 0.52428300
vt 0.66026600 0.55384100
vt 0.67006000 0.52011300
vt 0.67471900 0.58346000
vt 0.68959200 0.52531200
vt 0.70788800 0.58346000
vt 0.70597800 0.52010300
vt 0.72393600 0.52543800
vt 0.74105800 0.58346000
vt 0.74022400 0.52414400
vt 0.76207500 0.52412700
vt 0.77422800 0.58346000
vt 0.78981700 0.52549500
vt 0.80739800 0.58346000
vt 0.80872100 0.52413000
vt 0.46216200 0.91010900
vt 0.44746200 0.90297000
vt 0.48052700 0.90429800
vt 0.49914400 0.91004600
vt 0.52037500 0.90617800
vt 0.52037500 0.90617800
vt 0.48017500 0.91260100
vt 0.55807800 0.90835100
vt 0.54007000 0.91036700
vt 0.71106400 0.90593800
vt 0.71106400 0.90593800
vt 0.68842500 0.91023000
vt 0.67263500 0.90620200
vt 0.81386600 0.90414600
vt 0.78823200 0.91011100
vt 0.77679300 0.90423400
vt 0.84875300 0.90459600
vt 0.84284100 0.91151800
vt 0.86358400 0.90989400
vt 0.81224700 0.91003500
vt 0.15245100 0.09681100
vt 0.15245100 0.09681100
vt 0.15245100 0.09681100
vt 0.15245100 0.09681100
vt 0.07708800 0.19235600
vt 0.07708800 0.19235600
vt 0.06060000 0.25115100
vt 0.06060000 0.25115100
vt 0.05043800 0.32170700
vt 0.05043800 0.32170700
vt 0.13519900 0.10342900
vt 0.10361800 0.13475600
vt 0.05299800 0.45658000
vt 0.04941000 0.40088600
vt 0.04941000 0.40088600
vt 0.06886300 0.53302500
vt 0.06886300 0.53302500
vt 0.09310400 0.59265400
vt 0.09310400 0.59265400
vt 0.12568800 0.63444000
vt 0.14313700 0.64496400
vt 0.17215400 0.64497200
vt 0.20189300 0.11099700
vt 0.17623000 0.09617200
vt 0.23379000 0.15225400
vt 0.25799500 0.21181300
vt 0.27385600 0.28820300
vt 0.27745300 0.34399600
vt 0.24977300 0.55253600
vt 0.22397400 0.60570100
vt 0.19429300 0.63586500
vt 0.27642600 0.42317500
vt 0.26626300 0.49373100
vt 0.24948100 0.51989900
vt 0.25108600 0.52795900
vt 0.27560700 0.51830100
vt 0.28195600 0.52669900
vt 0.29621900 0.52010700
vt 0.29621900 0.52010700
vt 0.32806200 0.52675600
vt 0.33759500 0.51829800
vt 0.32101100 0.51845000
vt 0.35422800 0.52124000
vt 0.42616600 0.51829800
vt 0.40902500 0.52363400
vt 0.44354500 0.52210900
vt 0.47641100 0.51830700
vt 0.45937900 0.51829800
vt 0.47500600 0.52677400
vt 0.56560700 0.51789500
vt 0.54866400 0.52099900
vt 0.58095800 0.52272100
vt 0.51473600 0.51829800
vt 0.49842000 0.52078200
vt 0.52741300 0.52676000
vt 0.65129500 0.51787000
vt 0.63726900 0.52675900
vt 0.66597400 0.52685500
vt 0.66973400 0.51829800
vt 0.63045800 0.51785600
vt 0.69242600 0.51838800
vt 0.69390400 0.52628500
vt 0.24948100 0.51989900
vt 0.25108700 0.52796200
vt 0.27560600 0.51830100
vt 0.28195700 0.52670800
vt 0.29331000 0.51829800
vt 0.33264400 0.51818700
vt 0.32806200 0.52675700
vt 0.35379600 0.52026200
vt 0.30936100 0.52030600
vt 0.30936100 0.52030600
vt 0.43188400 0.51807600
vt 0.41448500 0.52299400
vt 0.44661500 0.52369500
vt 0.50340100 0.52677500
vt 0.48579600 0.51782200
vt 0.46625500 0.52210300
vt 0.50857700 0.51806400
vt 0.55375400 0.51854200
vt 0.54948800 0.52675700
vt 0.57692900 0.52016600
vt 0.53108500 0.51991100
vt 0.65315200 0.51810000
vt 0.63726900 0.52675900
vt 0.66597400 0.52684800
vt 0.66973400 0.51829800
vt 0.63294200 0.51811500
vt 0.69242600 0.51838800
vt 0.69390400 0.52628100
vt 0.60538500 1.00000000
vt 0.64238000 1.00000000
vt 0.85201900 1.00000000
vt 0.96300500 1.00000000
vt 1.01654900 0.99213600
vt 0.53475900 0.63027200
vt 0.83787600 0.63202000
vt 0.59110600 0.63334800
vt 0.74697600 0.63325700
vt 0.51808800 1.00018900
vt 0.56222700 1.00014700
vt 0.76569700 1.00000000
vt 0.91367800 1.00000000
vt 0.97533700 1.00000000
vt 0.87668300 1.00000000
vt 0.31939000 0.02841000
vt 0.63169200 0.90631600
vt 0.65221300 0.91030300
vt 0.75062500 0.90638000
vt 0.73250900 0.91132300
vt 0.77036800 0.91145200
vt 0.63253200 0.90689100
vt 0.65221300 0.91030300
vt 0.75057800 0.90641800
vt 0.73250800 0.91132300
vt 0.77036900 0.91145200
vt 0.37507600 0.52038700
vt 0.39295200 0.51829800
vt 0.53132700 0.51805500
vt 0.61437200 0.52028600
vt 0.61488400 0.52029300
f 1/1/1 2/2/2 3/3/3
f 4/4/4 5/5/5 6/6/6
f 2/2/2 4/4/4 7/7/7
f 8/8/8 471/471/471 5/5/5
f 9/9/9 10/10/10 11/11/11
f 10/10/10 12/12/12 13/13/13
f 12/12/12 14/14/14 16/16/16
f 15/15/15 17/17/17 18/18/18
f 17/17/17 19/19/19 20/20/20
f 21/21/21 22/22/22 23/23/23
f 24/24/24 21/21/21 25/25/25
f 19/19/19 26/26/26 27/27/27
f 28/28/28 23/23/23 22/22/22
f 29/29/29 30/30/30 31/31/31
f 32/32/32 29/29/29 31/31/31
f 33/33/33 475/475/475 31/31/31
f 35/35/35 475/475/475 33/33/33
f 37/37/37 35/35/35 34/34/34
f 39/39/39 37/37/37 36/36/36
f 40/40/40 42/42/42 39/39/39
f 41/41/41 44/44/44 42/42/42
f 41/41/41 43/43/43 44/44/44
f 46/46/46 44/44/44 43/43/43
f 47/47/47 49/49/49 46/46/46
f 48/48/48 52/52/52 47/47/47
f 29/29/29 32/32/32 50/50/50
f 52/52/52 48/48/48 53/53/53
f 55/55/55 62/62/62 56/56/56
f 54/54/54 56/56/56 51/51/51
f 57/57/57 58/58/58 59/59/59
f 61/61/61 62/62/62 60/60/60
f 55/55/55 60/60/60 62/62/62
f 64/64/64 476/476/476 63/63/63
f 67/67/67 476/476/476 66/66/66
f 66/66/66 68/68/68 67/67/67
f 68/68/68 69/69/69 70/70/70
f 72/72/72 70/70/70 69/69/69
f 73/73/73 74/74/74 75/75/75
f 73/73/73 71/71/71 74/74/74
f 65/65/65 59/59/59 58/58/58
f 73/73/73 76/76/76 77/77/77
f 77/77/77 72/72/72 73/73/73
f 72/72/72 71/71/71 73/73/73
f 78/78/78 79/79/79 80/80/80
f 78/78/78 80/80/80 81/81/81
f 82/82/82 85/85/85 83/83/83
f 84/84/84 87/87/87 82/82/82
f 86/86/86 89/89/89 87/87/87
f 88/88/88 477/477/477 89/89/89
f 91/91/91 477/477/477 90/90/90
f 93/93/93 95/95/95 92/92/92
f 95/95/95 91/91/91 90/90/90
f 97/97/97 102/102/102 98/98/98
f 100/100/100 105/105/105 101/101/101
f 99/99/99 101/101/101 97/97/97
f 98/98/98 93/93/93 92/92/92
f 78/78/78 83/83/83 103/103/103
f 78/78/78 81/81/81 83/83/83
f 104/104/104 109/109/109 100/100/100
f 108/108/108 478/478/478 106/106/106
f 106/106/106 478/478/478 109/109/109
f 111/111/111 127/127/127 112/112/112
f 110/110/110 112/112/112 113/113/113
f 114/114/114 108/108/108 113/113/113
f 116/116/116 119/119/119 117/117/117
f 116/116/116 118/118/118 119/119/119
f 118/118/118 120/120/120 121/121/121
f 123/123/123 121/121/121 120/120/120
f 124/124/124 122/122/122 125/125/125
f 124/124/124 125/125/125 126/126/126
f 115/115/115 117/117/117 127/127/127
f 124/124/124 123/123/123 122/122/122
f 124/124/124 128/128/128 129/129/129
f 129/129/129 123/123/123 124/124/124
f 130/130/130 131/131/131 132/132/132
f 131/131/131 133/133/133 134/134/134
f 133/133/133 135/135/135 136/136/136
f 135/135/135 137/137/137 138/138/138
f 140/140/140 141/141/141 142/142/142
f 137/137/137 139/139/139 143/143/143
f 141/141/141 144/144/144 145/145/145
f 146/146/146 147/147/147 148/148/148
f 149/149/149 151/151/151 152/152/152
f 150/150/150 153/153/153 154/154/154
f 147/147/147 149/149/149 155/155/155
f 158/158/158 161/161/161 157/157/157
f 159/159/159 157/157/157 156/156/156
f 160/160/160 162/162/162 158/158/158
f 159/159/159 156/156/156 163/163/163
f 165/165/165 169/169/169 167/167/167
f 168/168/168 167/167/167 166/166/166
f 169/169/169 165/165/165 163/163/163
f 170/170/170 171/171/171 172/172/172
f 162/162/162 172/172/172 171/171/171
f 162/162/162 160/160/160 172/172/172
f 174/174/174 171/171/171 170/170/170
f 176/176/176 174/174/174 173/173/173
f 175/175/175 178/178/178 176/176/176
f 178/178/178 180/180/180 177/177/177
f 181/181/181 182/182/182 179/179/179
f 168/168/168 183/183/183 184/184/184
f 183/183/183 186/186/186 184/184/184
f 188/188/188 185/185/185 187/187/187
f 187/187/187 190/190/190 188/188/188
f 190/190/190 192/192/192 191/191/191
f 192/192/192 193/193/193 194/194/194
f 194/194/194 191/191/191 192/192/192
f 197/197/197 198/198/198 196/196/196
f 182/182/182 201/201/201 197/197/197
f 196/196/196 195/195/195 199/199/199
f 181/181/181 201/201/201 182/182/182
f 199/199/199 200/200/200 203/203/203
f 193/193/193 203/203/203 202/202/202
f 194/194/194 193/193/193 202/202/202
f 183/183/183 168/168/168 166/166/166
f 204/204/204 206/206/206 209/209/209
f 209/209/209 211/211/211 214/214/214
f 212/212/212 208/208/208 205/205/205
f 215/215/215 210/210/210 217/217/217
f 210/210/210 220/220/220 213/213/213
f 219/219/219 211/211/211 216/216/216
f 225/225/225 227/227/227 223/223/223
f 205/205/205 226/226/226 212/212/212
f 223/223/223 228/228/228 225/225/225
f 229/229/229 230/230/230 235/235/235
f 236/236/236 207/207/207 239/239/239
f 224/224/224 207/207/207 236/236/236
f 230/230/230 238/238/238 235/235/235
f 237/237/237 234/234/234 222/222/222
f 227/227/227 241/241/241 211/211/211
f 242/242/242 211/211/211 243/243/243
f 225/225/225 228/228/228 244/244/244
f 245/245/245 218/218/218 246/246/246
f 246/246/246 218/218/218 211/211/211
f 211/211/211 242/242/242 246/246/246
f 214/214/214 247/247/247 209/209/209
f 223/223/223 248/248/248 249/249/249
f 223/223/223 249/249/249 228/228/228
f 231/231/231 250/250/250 221/221/221
f 232/232/232 252/252/252 251/251/251
f 253/253/253 233/233/233 255/255/255
f 256/256/256 254/254/254 230/230/230
f 257/257/257 240/240/240 206/206/206
f 258/258/258 229/229/229 235/235/235
f 240/240/240 259/259/259 238/238/238
f 260/260/260 230/230/230 229/229/229
f 261/261/261 262/262/262 263/263/263
f 264/264/264 263/263/263 265/265/265
f 261/261/261 263/263/263 266/266/266
f 264/264/264 265/265/265 267/267/267
f 268/268/268 269/269/269 270/270/270
f 271/271/271 272/272/272 270/270/270
f 273/273/273 268/268/268 270/270/270
f 269/269/269 268/268/268 274/274/274
f 265/265/265 269/269/269 274/274/274
f 274/274/274 267/267/267 265/265/265
f 273/273/273 270/270/270 272/272/272
f 276/276/276 277/277/277 278/278/278
f 279/279/279 280/280/280 281/281/281
f 279/279/279 282/282/282 283/283/283
f 282/282/282 284/284/284 283/283/283
f 279/279/279 285/285/285 280/280/280
f 286/286/286 287/287/287 288/288/288
f 286/286/286 289/289/289 287/287/287
f 286/286/286 288/288/288 290/290/290
f 291/291/291 292/292/292 293/293/293
f 290/290/290 293/293/293 292/292/292
f 294/294/294 292/292/292 291/291/291
f 286/286/286 290/290/290 292/292/292
f 295/295/295 287/287/287 289/289/289
f 294/294/294 291/291/291 296/296/296
f 297/297/297 298/298/298 294/294/294
f 298/298/298 297/297/297 299/299/299
f 296/296/296 297/297/297 294/294/294
f 300/300/300 298/298/298 301/301/301
f 300/300/300 301/301/301 303/303/303
f 303/303/303 304/304/304 300/300/300
f 299/299/299 301/301/301 298/298/298
f 303/303/303 305/305/305 304/304/304
f 305/305/305 307/307/307 306/306/306
f 306/306/306 307/307/307 308/308/308
f 309/309/309 310/310/310 308/308/308
f 306/306/306 308/308/308 310/310/310
f 310/310/310 311/311/311 312/312/312
f 313/313/313 312/312/312 311/311/311
f 313/313/313 314/314/314 312/312/312
f 309/309/309 311/311/311 310/310/310
f 300/300/300 304/304/304 306/306/306
f 315/315/315 312/312/312 314/314/314
f 315/315/315 316/316/316 317/317/317
f 318/318/318 315/315/315 317/317/317
f 314/314/314 316/316/316 315/315/315
f 318/318/318 317/317/317 319/319/319
f 320/320/320 318/318/318 319/319/319
f 319/319/319 321/321/321 320/320/320
f 322/322/322 323/323/323 324/324/324
f 325/325/325 326/326/326 327/327/327
f 328/328/328 329/329/329 330/330/330
f 328/328/328 331/331/331 329/329/329
f 328/328/328 330/330/330 332/332/332
f 334/334/334 322/322/322 332/332/332
f 324/324/324 333/333/333 322/322/322
f 335/335/335 333/333/333 324/324/324
f 328/328/328 332/332/332 333/333/333
f 336/336/336 329/329/329 331/331/331
f 335/335/335 323/323/323 327/327/327
f 337/337/337 326/326/326 325/325/325
f 326/326/326 337/337/337 335/335/335
f 327/327/327 326/326/326 335/335/335
f 338/338/338 337/337/337 339/339/339
f 338/338/338 339/339/339 340/340/340
f 341/341/341 342/342/342 338/338/338
f 325/325/325 339/339/339 337/337/337
f 341/341/341 343/343/343 342/342/342
f 343/343/343 345/345/345 344/344/344
f 344/344/344 345/345/345 346/346/346
f 347/347/347 348/348/348 346/346/346
f 344/344/344 346/346/346 348/348/348
f 348/348/348 349/349/349 350/350/350
f 351/351/351 350/350/350 349/349/349
f 351/351/351 352/352/352 350/350/350
f 347/347/347 349/349/349 348/348/348
f 338/338/338 342/342/342 344/344/344
f 353/353/353 350/350/350 352/352/352
f 353/353/353 354/354/354 355/355/355
f 356/356/356 353/353/353 355/355/355
f 352/352/352 354/354/354 353/353/353
f 356/356/356 355/355/355 357/357/357
f 358/358/358 356/356/356 357/357/357
f 357/357/357 359/359/359 358/358/358
f 360/360/360 361/361/361 362/362/362
f 363/363/363 362/362/362 364/364/364
f 360/360/360 362/362/362 366/366/366
f 365/365/365 367/367/367 368/368/368
f 369/369/369 371/371/371 372/372/372
f 373/373/373 374/374/374 375/375/375
f 373/373/373 376/376/376 377/377/377
f 376/376/376 378/378/378 377/377/377
f 373/373/373 379/379/379 374/374/374
f 382/382/382 384/384/384 386/386/386
f 380/380/380 387/387/387 389/389/389
f 390/390/390 391/391/391 380/380/380
f 380/380/380 391/391/391 385/385/385
f 392/392/392 380/380/380 394/394/394
f 383/383/383 388/388/388 393/393/393
f 380/380/380 392/392/392 396/396/396
f 395/395/395 398/398/398 381/381/381
f 399/399/399 380/380/380 397/397/397
f 400/400/400 380/380/380 399/399/399
f 400/400/400 401/401/401 380/380/380
f 402/402/402 403/403/403 380/380/380
f 402/402/402 380/380/380 404/404/404
f 380/380/380 405/405/405 404/404/404
f 380/380/380 406/406/406 405/405/405
f 380/380/380 407/407/407 406/406/406
f 408/408/408 380/380/380 409/409/409
f 410/410/410 380/380/380 401/401/401
f 410/410/410 409/409/409 380/380/380
f 411/411/411 407/407/407 380/380/380
f 412/412/412 411/411/411 380/380/380
f 408/408/408 412/412/412 380/380/380
f 413/413/413 414/414/414 415/415/415
f 416/416/416 417/417/417 415/415/415
f 419/419/419 420/420/420 421/421/421
f 420/420/420 419/419/419 422/422/422
f 423/423/423 424/424/424 425/425/425
f 426/426/426 427/427/427 428/428/428
f 427/427/427 425/425/425 428/428/428
f 429/429/429 430/430/430 431/431/431
f 432/432/432 433/433/433 434/434/434
f 435/435/435 436/436/436 437/437/437
f 435/435/435 437/437/437 438/438/438
f 436/436/436 435/435/435 439/439/439
f 440/440/440 437/437/437 441/441/441
f 440/440/440 438/438/438 437/437/437
f 442/442/442 443/443/443 444/444/444
f 445/445/445 446/446/446 444/444/444
f 447/447/447 448/448/448 449/449/449
f 448/448/448 447/447/447 450/450/450
f 446/446/446 445/445/445 451/451/451
f 452/452/452 453/453/453 454/454/454
f 455/455/455 456/456/456 457/457/457
f 455/455/455 458/458/458 456/456/456
f 459/459/459 460/460/460 461/461/461
f 460/460/460 459/459/459 462/462/462
f 458/458/458 455/455/455 462/462/462
f 463/463/463 464/464/464 465/465/465
f 463/463/463 465/465/465 466/466/466
f 464/464/464 463/463/463 467/467/467
f 468/468/468 465/465/465 469/469/469
f 468/468/468 466/466/466 465/465/465
f 4/4/4 6/6/6 470/470/470
f 19/19/19 472/472/472 20/20/20
f 19/19/19 27/27/27 472/472/472
f 21/21/21 23/23/23 473/473/473
f 28/28/28 22/22/22 474/474/474
f 57/57/57 59/59/59 61/61/61
f 68/68/68 70/70/70 67/67/67
f 118/118/118 121/121/121 119/119/119
f 130/130/130 132/132/132 479/479/479
f 131/131/131 480/480/480 132/132/132
f 131/131/131 134/134/134 480/480/480
f 133/133/133 136/136/136 134/134/134
f 141/141/141 145/145/145 481/481/481
f 147/147/147 155/155/155 148/148/148
f 149/149/149 152/152/152 482/482/482
f 153/153/153 483/483/483 154/154/154
f 149/149/149 484/484/484 155/155/155
f 225/225/225 485/485/485 227/227/227
f 263/263/263 264/264/264 266/266/266
f 486/486/486 278/278/278 487/487/487
f 488/488/488 489/489/489 275/275/275
f 281/281/281 490/490/490 488/488/488
f 281/281/281 280/280/280 490/490/490
f 279/279/279 283/283/283 285/285/285
f 301/301/301 299/299/299 302/302/302
f 308/308/308 307/307/307 309/309/309
f 332/332/332 330/330/330 334/334/334
f 339/339/339 325/325/325 340/340/340
f 346/346/346 345/345/345 347/347/347
f 335/335/335 324/324/324 323/323/323
f 362/362/362 363/363/363 366/366/366
f 491/491/491 372/372/372 492/492/492
f 493/493/493 494/494/494 370/370/370
f 375/375/375 495/495/495 493/493/493
f 375/375/375 374/374/374 495/495/495
f 373/373/373 377/377/377 379/379/379
f 414/414/414 416/416/416 415/415/415
f 418/418/418 419/419/419 421/421/421
f 496/496/496 424/424/424 497/497/497
f 433/433/433 426/426/426 428/428/428
f 434/434/434 430/430/430 498/498/498
f 432/432/432 434/434/434 498/498/498
f 499/499/499 436/436/436 439/439/439
f 443/443/443 445/445/445 444/444/444
f 500/500/500 464/464/464 467/467/467
f 471/471/471 6/6/6 5/5/5
f 475/475/475 32/32/32 31/31/31
f 35/35/35 33/33/33 34/34/34
f 37/37/37 34/34/34 36/36/36
f 39/39/39 36/36/36 38/38/38
f 40/40/40 39/39/39 38/38/38
f 41/41/41 42/42/42 40/40/40
f 46/46/46 43/43/43 45/45/45
f 47/47/47 46/46/46 45/45/45
f 52/52/52 49/49/49 47/47/47
f 52/52/52 53/53/53 51/51/51
f 55/55/55 56/56/56 54/54/54
f 54/54/54 51/51/51 53/53/53
f 61/61/61 60/60/60 57/57/57
f 476/476/476 65/65/65 63/63/63
f 476/476/476 64/64/64 66/66/66
f 72/72/72 69/69/69 71/71/71
f 65/65/65 58/58/58 63/63/63
f 82/82/82 83/83/83 81/81/81
f 87/87/87 85/85/85 82/82/82
f 86/86/86 87/87/87 84/84/84
f 88/88/88 89/89/89 86/86/86
f 477/477/477 88/88/88 90/90/90
f 95/95/95 94/94/94 92/92/92
f 95/95/95 90/90/90 94/94/94
f 97/97/97 98/98/98 96/96/96
f 100/100/100 101/101/101 99/99/99
f 101/101/101 102/102/102 97/97/97
f 98/98/98 92/92/92 96/96/96
f 109/109/109 105/105/105 100/100/100
f 108/108/108 106/106/106 107/107/107
f 106/106/106 109/109/109 104/104/104
f 111/111/111 112/112/112 110/110/110
f 112/112/112 114/114/114 113/113/113
f 108/108/108 107/107/107 113/113/113
f 116/116/116 117/117/117 115/115/115
f 123/123/123 120/120/120 122/122/122
f 115/115/115 127/127/127 111/111/111
f 161/161/161 156/156/156 157/157/157
f 162/162/162 161/161/161 158/158/158
f 159/159/159 163/163/163 164/164/164
f 169/169/169 166/166/166 167/167/167
f 165/165/165 164/164/164 163/163/163
f 174/174/174 170/170/170 173/173/173
f 176/176/176 173/173/173 175/175/175
f 178/178/178 177/177/177 176/176/176
f 180/180/180 179/179/179 177/177/177
f 181/181/181 179/179/179 180/180/180
f 186/186/186 185/185/185 184/184/184
f 185/185/185 186/186/186 187/187/187
f 190/190/190 189/189/189 188/188/188
f 190/190/190 191/191/191 189/189/189
f 198/198/198 195/195/195 196/196/196
f 201/201/201 198/198/198 197/197/197
f 195/195/195 200/200/200 199/199/199
f 200/200/200 202/202/202 203/203/203
f 227/227/227 206/206/206 223/223/223
f 301/301/301 302/302/302 303/303/303
f 305/305/305 306/306/306 304/304/304
f 322/322/322 333/333/333 332/332/332
f 338/338/338 340/340/340 341/341/341
f 343/343/343 344/344/344 342/342/342

