mtllib material.mtl
usemtl Material-7011油漆.001
v -0.01886300 0.02289200 -0.03136500
v -0.01886300 0.02289200 -0.03136500
v -0.01886300 0.02289200 -0.03136500
v -0.01747300 0.02259900 -0.02905300
v -0.01610000 0.02233500 -0.02677000
v -0.01829900 0.02289200 -0.03169700
v -0.01695000 0.02259900 -0.02936100
v -0.01561800 0.02233500 -0.02705400
v -0.01773000 0.02289200 -0.03201900
v -0.01773000 0.02289200 -0.03201900
v -0.01773000 0.02289200 -0.03201900
v -0.01642300 0.02259900 -0.02965900
v -0.01513300 0.02233500 -0.02732900
v -0.02001600 0.02308000 -0.03254700
v -0.02001600 0.02308000 -0.03254700
v -0.02014900 0.02312800 -0.03293700
v -0.02014900 0.02312800 -0.03293700
v -0.02012200 0.02316900 -0.03334900
v -0.02012200 0.02316900 -0.03334900
v -0.01994000 0.02319700 -0.03372100
v -0.01962700 0.02320600 -0.03399500
v -0.01962700 0.02320600 -0.03399500
v -0.01923400 0.02319700 -0.03412900
v -0.01882000 0.02316900 -0.03410100
v -0.01845000 0.02312800 -0.03391800
v -0.01845000 0.02312800 -0.03391800
v -0.01817800 0.02308000 -0.03360700
v -0.01791400 0.02301700 -0.03314900
v -0.01791400 0.02301700 -0.03314900
v -0.01764900 0.02295500 -0.03269000
v -0.01764900 0.02295500 -0.03269000
v -0.01764900 0.02295500 -0.03269000
v -0.01738400 0.02289500 -0.03223100
v -0.01738400 0.02289500 -0.03223100
v -0.01711900 0.02283500 -0.03177200
v -0.01711900 0.02283500 -0.03177200
v -0.01685400 0.02277600 -0.03131400
v -0.01658900 0.02271900 -0.03085500
v -0.01658900 0.02271900 -0.03085500
v -0.01632400 0.02266200 -0.03039600
v -0.01632400 0.02266200 -0.03039600
v -0.01605900 0.02260600 -0.02993600
v -0.01605900 0.02260600 -0.02993600
v -0.01579400 0.02255200 -0.02947700
v -0.01552900 0.02249800 -0.02901800
v -0.01552900 0.02249800 -0.02901800
v -0.01526300 0.02244500 -0.02855900
v -0.01499800 0.02239400 -0.02809900
v -0.01499800 0.02239400 -0.02809900
v -0.01499800 0.02239400 -0.02809900
v -0.01473300 0.02234300 -0.02764000
v -0.01473300 0.02234300 -0.02764000
v -0.01446700 0.02229300 -0.02718000
v -0.01446700 0.02229300 -0.02718000
v -0.01420200 0.02224500 -0.02672000
v -0.01420200 0.02224500 -0.02672000
v -0.01393600 0.02219700 -0.02626000
v -0.01393600 0.02219700 -0.02626000
v -0.01380300 0.02216100 -0.02586900
v -0.01380300 0.02216100 -0.02586900
v -0.01383000 0.02213100 -0.02545600
v -0.01383000 0.02213100 -0.02545600
v -0.01383000 0.02213100 -0.02545600
v -0.01401300 0.02211100 -0.02508400
v -0.01432500 0.02210300 -0.02481100
v -0.01472500 0.02211100 -0.02467700
v -0.01472500 0.02211100 -0.02467700
v -0.01513100 0.02213100 -0.02470500
v -0.01549600 0.02216100 -0.02488300
v -0.01577400 0.02219700 -0.02519900
v -0.01577400 0.02219700 -0.02519900
v -0.01603900 0.02224500 -0.02565900
v -0.01603900 0.02224500 -0.02565900
v -0.01630500 0.02229300 -0.02611900
v -0.01657000 0.02234300 -0.02657900
v -0.01657000 0.02234300 -0.02657900
v -0.01683500 0.02239400 -0.02703800
v -0.01710100 0.02244500 -0.02749800
v -0.01710100 0.02244500 -0.02749800
v -0.01736600 0.02249800 -0.02795700
v -0.01736600 0.02249800 -0.02795700
v -0.01763100 0.02255200 -0.02841700
v -0.01763100 0.02255200 -0.02841700
v -0.01789600 0.02260600 -0.02887600
v -0.01789600 0.02260600 -0.02887600
v -0.01816100 0.02266200 -0.02933500
v -0.01842600 0.02271900 -0.02979400
v -0.01842600 0.02271900 -0.02979400
v -0.01869100 0.02277600 -0.03025300
v -0.01869100 0.02277600 -0.03025300
v -0.01895600 0.02283500 -0.03071200
v -0.01922100 0.02289500 -0.03117100
v -0.01922100 0.02289500 -0.03117100
v -0.01948600 0.02295500 -0.03162900
v -0.01948600 0.02295500 -0.03162900
v -0.01975100 0.02301700 -0.03208800
v -0.01975100 0.02301700 -0.03208800
v -0.01954300 0.02304500 -0.03249500
v -0.01954300 0.02304500 -0.03249500
v -0.01954300 0.02304500 -0.03249500
v -0.01895800 0.02304500 -0.03284000
v -0.01858100 0.02289200 -0.03153200
v -0.01925100 0.02304500 -0.03266900
v -0.01836900 0.02304500 -0.03317300
v -0.01836900 0.02304500 -0.03317300
v -0.01801500 0.02289200 -0.03185900
v -0.01866400 0.02304500 -0.03300800
v -0.01866400 0.02304500 -0.03300800
v -0.01615800 0.02259900 -0.02980400
v -0.01615800 0.02259900 -0.02980400
v -0.01707200 0.02274100 -0.03083100
v -0.01679700 0.02274100 -0.03098200
v -0.01679700 0.02274100 -0.03098200
v -0.01679700 0.02274100 -0.03098200
v -0.01488800 0.02233500 -0.02746200
v -0.01488800 0.02233500 -0.02746200
v -0.01488800 0.02233500 -0.02746200
v -0.01577300 0.02246300 -0.02848600
v -0.01551900 0.02246300 -0.02862500
v -0.01551900 0.02246300 -0.02862500
v -0.01551900 0.02246300 -0.02862500
v -0.01551900 0.02246300 -0.02862500
v -0.01551900 0.02246300 -0.02862500
v -0.01450100 0.02221600 -0.02618800
v -0.01450100 0.02221600 -0.02618800
v -0.01426700 0.02221600 -0.02631600
v -0.01426700 0.02221600 -0.02631600
v -0.01426700 0.02221600 -0.02631600
v -0.01426700 0.02221600 -0.02631600
v -0.01496600 0.02221600 -0.02592500
v -0.01537600 0.02233500 -0.02719200
v -0.01473400 0.02221600 -0.02605700
v -0.01473400 0.02221600 -0.02605700
v -0.01542800 0.02221600 -0.02565300
v -0.01542800 0.02221600 -0.02565300
v -0.01586000 0.02233500 -0.02691300
v -0.01519800 0.02221600 -0.02579000
v -0.01519800 0.02221600 -0.02579000
v -0.01633800 0.02233500 -0.02662600
v -0.01633800 0.02233500 -0.02662600
v -0.01633800 0.02233500 -0.02662600
v -0.01633800 0.02233500 -0.02662600
v -0.01565600 0.02221600 -0.02551400
v -0.01565600 0.02221600 -0.02551400
v -0.01678100 0.02246300 -0.02790400
v -0.01773100 0.02259900 -0.02889600
v -0.01773100 0.02259900 -0.02889600
v -0.01703000 0.02246300 -0.02775300
v -0.01703000 0.02246300 -0.02775300
v -0.01703000 0.02246300 -0.02775300
v -0.01816300 0.02274100 -0.03020100
v -0.01843200 0.02274100 -0.03003800
v -0.01843200 0.02274100 -0.03003800
v -0.02004700 0.02258300 -0.03259700
v -0.02003100 0.02283100 -0.03257200
v -0.02001600 0.02308000 -0.03254700
v -0.01993000 0.02270300 -0.03382400
v -0.01991500 0.02295100 -0.03379700
v -0.01872700 0.02266100 -0.03411300
v -0.01871200 0.02290900 -0.03408600
v -0.01790200 0.02251100 -0.03313100
v -0.01788800 0.02275900 -0.03310600
v -0.01788800 0.02275900 -0.03310600
v -0.01724500 0.02236000 -0.03199400
v -0.01724500 0.02236000 -0.03199400
v -0.01723200 0.02260900 -0.03197000
v -0.01658900 0.02221600 -0.03085700
v -0.01657600 0.02246400 -0.03083300
v -0.01657600 0.02246400 -0.03083300
v -0.01593200 0.02207800 -0.02971900
v -0.01591900 0.02232600 -0.02969600
v -0.01591900 0.02232600 -0.02969600
v -0.01527400 0.02194500 -0.02858100
v -0.01526300 0.02219400 -0.02855900
v -0.01526300 0.02219400 -0.02855900
v -0.01526300 0.02219400 -0.02855900
v -0.01461600 0.02181900 -0.02744100
v -0.01461600 0.02181900 -0.02744100
v -0.01460600 0.02206800 -0.02742100
v -0.01460600 0.02206800 -0.02742100
v -0.01460600 0.02206800 -0.02742100
v -0.01460600 0.02206800 -0.02742100
v -0.01395700 0.02169900 -0.02629900
v -0.01395700 0.02169900 -0.02629900
v -0.01394700 0.02194800 -0.02628000
v -0.01394700 0.02194800 -0.02628000
v -0.01407400 0.02161000 -0.02507300
v -0.01406300 0.02185900 -0.02505400
v -0.01527100 0.02164100 -0.02478100
v -0.01526000 0.02189000 -0.02476300
v -0.01610400 0.02175400 -0.02576900
v -0.01610400 0.02175400 -0.02576900
v -0.01609200 0.02200300 -0.02575000
v -0.01609200 0.02200300 -0.02575000
v -0.01676200 0.02187700 -0.02690800
v -0.01676200 0.02187700 -0.02690800
v -0.01675000 0.02212600 -0.02688800
v -0.01675000 0.02212600 -0.02688800
v -0.01675000 0.02212600 -0.02688800
v -0.01675000 0.02212600 -0.02688800
v -0.01742000 0.02200600 -0.02804700
v -0.01742000 0.02200600 -0.02804700
v -0.01740600 0.02225500 -0.02802600
v -0.01740600 0.02225500 -0.02802600
v -0.01740600 0.02225500 -0.02802600
v -0.01807700 0.02214100 -0.02918500
v -0.01806300 0.02239000 -0.02916300
v -0.01806300 0.02239000 -0.02916300
v -0.01873400 0.02228200 -0.03032300
v -0.01871900 0.02253100 -0.03030000
v -0.01939000 0.02243000 -0.03146000
v -0.01939000 0.02243000 -0.03146000
v -0.01939000 0.02243000 -0.03146000
v -0.01937500 0.02267800 -0.03143600
v -0.01937500 0.02267800 -0.03143600
v -0.01937500 0.02267800 -0.03143600
v -0.02004700 0.02258300 -0.03259700
v -0.02003100 0.02283100 -0.03257200
v -0.02003100 0.02283100 -0.03257200
v -0.02003100 0.02283100 -0.03257200
v -0.02001600 0.02308000 -0.03254700
v -0.01975100 0.02301700 -0.03208800
v -0.01975100 0.02301700 -0.03208800
v -0.01948600 0.02295500 -0.03162900
v -0.01948600 0.02295500 -0.03162900
v -0.01922100 0.02289500 -0.03117100
v -0.01922100 0.02289500 -0.03117100
v -0.01895600 0.02283500 -0.03071200
v -0.01869100 0.02277600 -0.03025300
v -0.01842600 0.02271900 -0.02979400
v -0.01816100 0.02266200 -0.02933500
v -0.01789600 0.02260600 -0.02887600
v -0.01789600 0.02260600 -0.02887600
v -0.01763100 0.02255200 -0.02841700
v -0.01763100 0.02255200 -0.02841700
v -0.01763100 0.02255200 -0.02841700
v -0.01736600 0.02249800 -0.02795700
v -0.01710100 0.02244500 -0.02749800
v -0.01710100 0.02244500 -0.02749800
v -0.01683500 0.02239400 -0.02703800
v -0.01683500 0.02239400 -0.02703800
v -0.01657000 0.02234300 -0.02657900
v -0.01657000 0.02234300 -0.02657900
v -0.01630500 0.02229300 -0.02611900
v -0.01630500 0.02229300 -0.02611900
v -0.01630500 0.02229300 -0.02611900
v -0.01603900 0.02224500 -0.02565900
v -0.01577400 0.02219700 -0.02519900
v -0.01577400 0.02219700 -0.02519900
v -0.01549600 0.02216100 -0.02488300
v -0.01513100 0.02213100 -0.02470500
v -0.01472500 0.02211100 -0.02467700
v -0.01432500 0.02210300 -0.02481100
v -0.01401300 0.02211100 -0.02508400
v -0.01383000 0.02213100 -0.02545600
v -0.01380300 0.02216100 -0.02586900
v -0.01393600 0.02219700 -0.02626000
v -0.01393600 0.02219700 -0.02626000
v -0.01420200 0.02224500 -0.02672000
v -0.01420200 0.02224500 -0.02672000
v -0.01446700 0.02229300 -0.02718000
v -0.01473300 0.02234300 -0.02764000
v -0.01499800 0.02239400 -0.02809900
v -0.01499800 0.02239400 -0.02809900
v -0.01526300 0.02244500 -0.02855900
v -0.01526300 0.02244500 -0.02855900
v -0.01552900 0.02249800 -0.02901800
v -0.01579400 0.02255200 -0.02947700
v -0.01605900 0.02260600 -0.02993600
v -0.01632400 0.02266200 -0.03039600
v -0.01632400 0.02266200 -0.03039600
v -0.01658900 0.02271900 -0.03085500
v -0.01685400 0.02277600 -0.03131400
v -0.01711900 0.02283500 -0.03177200
v -0.01738400 0.02289500 -0.03223100
v -0.01764900 0.02295500 -0.03269000
v -0.01791400 0.02301700 -0.03314900
v -0.01791400 0.02301700 -0.03314900
v -0.01817800 0.02308000 -0.03360700
v -0.01845000 0.02312800 -0.03391800
v -0.01882000 0.02316900 -0.03410100
v -0.01923400 0.02319700 -0.03412900
v -0.01962700 0.02320600 -0.03399500
v -0.01994000 0.02319700 -0.03372100
v -0.02012200 0.02316900 -0.03334900
v -0.02014900 0.02312800 -0.03293700
vn 0.05820000 0.99360000 0.09660000
vn 0.05820000 0.99360000 0.09670000
vn 0.05800000 0.99360000 0.09670000
vn 0.05300000 0.99470000 0.08860000
vn 0.04840000 0.99560000 0.08040000
vn 0.05640000 0.99360000 0.09770000
vn 0.05170000 0.99460000 0.08950000
vn 0.04690000 0.99560000 0.08120000
vn 0.05470000 0.99360000 0.09860000
vn 0.05460000 0.99360000 0.09870000
vn 0.05470000 0.99360000 0.09870000
vn 0.05020000 0.99470000 0.09020000
vn 0.04550000 0.99560000 0.08210000
vn 0.06200000 0.99300000 0.10090000
vn 0.06210000 0.99300000 0.10090000
vn 0.06250000 0.99280000 0.10230000
vn 0.06260000 0.99280000 0.10230000
vn 0.06260000 0.99260000 0.10370000
vn 0.06250000 0.99260000 0.10370000
vn 0.06200000 0.99260000 0.10490000
vn 0.06110000 0.99250000 0.10580000
vn 0.06100000 0.99250000 0.10570000
vn 0.05980000 0.99260000 0.10610000
vn 0.05850000 0.99260000 0.10600000
vn 0.05730000 0.99280000 0.10530000
vn 0.05730000 0.99280000 0.10540000
vn 0.05640000 0.99300000 0.10420000
vn 0.05550000 0.99320000 0.10250000
vn 0.05540000 0.99320000 0.10260000
vn 0.05460000 0.99340000 0.10100000
vn 0.05450000 0.99340000 0.10090000
vn 0.05450000 0.99340000 0.10100000
vn 0.05360000 0.99360000 0.09920000
vn 0.05360000 0.99360000 0.09930000
vn 0.05280000 0.99380000 0.09780000
vn 0.05260000 0.99380000 0.09770000
vn 0.05170000 0.99400000 0.09610000
vn 0.05080000 0.99420000 0.09460000
vn 0.05080000 0.99420000 0.09440000
vn 0.04990000 0.99440000 0.09280000
vn 0.04990000 0.99440000 0.09290000
vn 0.04890000 0.99460000 0.09120000
vn 0.04900000 0.99460000 0.09130000
vn 0.04800000 0.99480000 0.08960000
vn 0.04690000 0.99500000 0.08780000
vn 0.04710000 0.99500000 0.08800000
vn 0.04610000 0.99520000 0.08640000
vn 0.04520000 0.99540000 0.08460000
vn 0.04510000 0.99540000 0.08470000
vn 0.04520000 0.99540000 0.08470000
vn 0.04430000 0.99560000 0.08310000
vn 0.04420000 0.99560000 0.08300000
vn 0.04340000 0.99570000 0.08140000
vn 0.04340000 0.99570000 0.08150000
vn 0.04240000 0.99590000 0.07970000
vn 0.04240000 0.99590000 0.07980000
vn 0.04150000 0.99610000 0.07820000
vn 0.04150000 0.99610000 0.07810000
vn 0.04100000 0.99620000 0.07680000
vn 0.04090000 0.99620000 0.07680000
vn 0.04100000 0.99630000 0.07530000
vn 0.04100000 0.99630000 0.07540000
vn 0.04090000 0.99630000 0.07540000
vn 0.04140000 0.99640000 0.07410000
vn 0.04230000 0.99640000 0.07330000
vn 0.04350000 0.99640000 0.07300000
vn 0.04350000 0.99640000 0.07290000
vn 0.04480000 0.99630000 0.07310000
vn 0.04600000 0.99620000 0.07380000
vn 0.04700000 0.99610000 0.07500000
vn 0.04690000 0.99610000 0.07500000
vn 0.04790000 0.99590000 0.07660000
vn 0.04780000 0.99590000 0.07650000
vn 0.04880000 0.99570000 0.07820000
vn 0.04980000 0.99560000 0.08000000
vn 0.04980000 0.99560000 0.07980000
vn 0.05070000 0.99540000 0.08150000
vn 0.05170000 0.99520000 0.08310000
vn 0.05170000 0.99520000 0.08320000
vn 0.05260000 0.99500000 0.08480000
vn 0.05260000 0.99500000 0.08470000
vn 0.05350000 0.99480000 0.08630000
vn 0.05360000 0.99480000 0.08640000
vn 0.05460000 0.99460000 0.08810000
vn 0.05450000 0.99460000 0.08800000
vn 0.05550000 0.99440000 0.08960000
vn 0.05640000 0.99420000 0.09120000
vn 0.05650000 0.99420000 0.09120000
vn 0.05730000 0.99400000 0.09290000
vn 0.05740000 0.99400000 0.09280000
vn 0.05830000 0.99380000 0.09450000
vn 0.05920000 0.99360000 0.09620000
vn 0.05920000 0.99360000 0.09610000
vn 0.06020000 0.99340000 0.09770000
vn 0.06020000 0.99340000 0.09780000
vn 0.06120000 0.99320000 0.09940000
vn 0.06100000 0.99320000 0.09930000
vn 0.06050000 0.99310000 0.10070000
vn 0.06050000 0.99310000 0.10060000
vn 0.06060000 0.99310000 0.10060000
vn 0.05870000 0.99310000 0.10170000
vn 0.05710000 0.99360000 0.09710000
vn 0.05960000 0.99310000 0.10120000
vn 0.05690000 0.99310000 0.10270000
vn 0.05690000 0.99310000 0.10280000
vn 0.05550000 0.99360000 0.09810000
vn 0.05780000 0.99310000 0.10230000
vn 0.05770000 0.99310000 0.10210000
vn 0.04920000 0.99470000 0.09080000
vn 0.04920000 0.99460000 0.09080000
vn 0.05230000 0.99410000 0.09450000
vn 0.05140000 0.99410000 0.09500000
vn 0.05150000 0.99410000 0.09500000
vn 0.05150000 0.99420000 0.09490000
vn 0.04480000 0.99560000 0.08240000
vn 0.04470000 0.99560000 0.08250000
vn 0.04480000 0.99560000 0.08260000
vn 0.04770000 0.99510000 0.08620000
vn 0.04690000 0.99510000 0.08660000
vn 0.04700000 0.99510000 0.08650000
vn 0.04680000 0.99510000 0.08670000
vn 0.04710000 0.99510000 0.08660000
vn 0.04700000 0.99510000 0.08660000
vn 0.04320000 0.99600000 0.07810000
vn 0.04320000 0.99600000 0.07800000
vn 0.04260000 0.99600000 0.07840000
vn 0.04250000 0.99600000 0.07840000
vn 0.04250000 0.99600000 0.07830000
vn 0.04240000 0.99600000 0.07850000
vn 0.04460000 0.99600000 0.07730000
vn 0.04620000 0.99560000 0.08170000
vn 0.04390000 0.99600000 0.07760000
vn 0.04400000 0.99600000 0.07770000
vn 0.04600000 0.99600000 0.07640000
vn 0.04590000 0.99600000 0.07640000
vn 0.04760000 0.99560000 0.08100000
vn 0.04530000 0.99600000 0.07680000
vn 0.04530000 0.99600000 0.07700000
vn 0.04900000 0.99560000 0.08000000
vn 0.04910000 0.99560000 0.07990000
vn 0.04870000 0.99560000 0.08020000
vn 0.04910000 0.99560000 0.08000000
vn 0.04660000 0.99600000 0.07600000
vn 0.04670000 0.99600000 0.07600000
vn 0.05070000 0.99510000 0.08440000
vn 0.05400000 0.99460000 0.08820000
vn 0.05400000 0.99470000 0.08800000
vn 0.05150000 0.99510000 0.08390000
vn 0.05150000 0.99510000 0.08400000
vn 0.05140000 0.99510000 0.08400000
vn 0.05570000 0.99410000 0.09260000
vn 0.05650000 0.99410000 0.09210000
vn 0.05650000 0.99420000 0.09200000
vn -0.86570000 0.00320000 0.50060000
vn -0.86580000 0.00330000 0.50040000
vn -0.86580000 0.00320000 0.50040000
vn -0.75390000 0.11570000 -0.64670000
vn -0.75400000 0.11570000 -0.64660000
vn 0.38110000 0.07600000 -0.92140000
vn 0.38090000 0.07600000 -0.92150000
vn 0.86620000 0.00330000 -0.49970000
vn 0.86620000 0.00330000 -0.49970000
vn 0.86620000 0.00340000 -0.49970000
vn 0.86620000 0.00340000 -0.49970000
vn 0.86620000 0.00330000 -0.49970000
vn 0.86620000 0.00340000 -0.49970000
vn 0.86620000 0.00340000 -0.49970000
vn 0.86620000 0.00340000 -0.49970000
vn 0.86620000 0.00350000 -0.49970000
vn 0.86620000 0.00340000 -0.49970000
vn 0.86620000 0.00350000 -0.49970000
vn 0.86620000 0.00340000 -0.49970000
vn 0.86620000 0.00340000 -0.49970000
vn 0.86620000 0.00340000 -0.49980000
vn 0.86620000 0.00330000 -0.49980000
vn 0.86620000 0.00340000 -0.49970000
vn 0.86620000 0.00330000 -0.49980000
vn 0.86620000 0.00340000 -0.49970000
vn 0.86610000 0.00330000 -0.49980000
vn 0.86610000 0.00320000 -0.49980000
vn 0.86620000 0.00330000 -0.49980000
vn 0.86620000 0.00340000 -0.49980000
vn 0.86640000 0.00320000 -0.49930000
vn 0.86640000 0.00320000 -0.49940000
vn 0.86610000 0.00320000 -0.49980000
vn 0.86630000 0.00320000 -0.49950000
vn 0.75490000 -0.08000000 0.65090000
vn 0.75490000 -0.08000000 0.65090000
vn -0.37360000 -0.05210000 0.92610000
vn -0.37270000 -0.05210000 0.92650000
vn -0.86590000 0.00320000 0.50020000
vn -0.86590000 0.00330000 0.50030000
vn -0.86590000 0.00330000 0.50020000
vn -0.86590000 0.00320000 0.50020000
vn -0.86590000 0.00330000 0.50030000
vn -0.86590000 0.00340000 0.50030000
vn -0.86590000 0.00320000 0.50020000
vn -0.86590000 0.00340000 0.50030000
vn -0.86590000 0.00330000 0.50030000
vn -0.86590000 0.00330000 0.50020000
vn -0.86590000 0.00340000 0.50030000
vn -0.86580000 0.00340000 0.50030000
vn -0.86590000 0.00330000 0.50030000
vn -0.86580000 0.00340000 0.50030000
vn -0.86590000 0.00340000 0.50030000
vn -0.86580000 0.00340000 0.50030000
vn -0.86580000 0.00340000 0.50030000
vn -0.86580000 0.00350000 0.50030000
vn -0.86580000 0.00340000 0.50030000
vn -0.86580000 0.00340000 0.50030000
vn -0.86580000 0.00340000 0.50030000
vn -0.86580000 0.00330000 0.50030000
vn -0.86580000 0.00340000 0.50040000
vn -0.86580000 0.00330000 0.50040000
vn -0.86580000 0.00340000 0.50030000
vn -0.86580000 0.00340000 0.50040000
vn -0.86580000 0.00330000 0.50030000
vn -0.86580000 0.00330000 0.50040000
vn -0.86580000 0.00330000 0.50030000
vn -0.86580000 0.00340000 0.50040000
vn -0.86580000 0.00330000 0.50040000
vn -0.86580000 0.00330000 0.50040000
vn -0.86580000 0.00340000 0.50040000
vn -0.86580000 0.00330000 0.50040000
vn -0.86580000 0.00340000 0.50040000
vn -0.86580000 0.00340000 0.50030000
vn -0.86580000 0.00330000 0.50040000
vn -0.86580000 0.00340000 0.50030000
vn -0.86580000 0.00340000 0.50030000
vn -0.86580000 0.00340000 0.50030000
vn -0.86580000 0.00340000 0.50030000
vn -0.86580000 0.00350000 0.50030000
vn -0.86580000 0.00340000 0.50030000
vn -0.86580000 0.00340000 0.50030000
vn -0.86580000 0.00350000 0.50030000
vn -0.86590000 0.00340000 0.50030000
vn -0.86590000 0.00340000 0.50030000
vn -0.86590000 0.00340000 0.50030000
vn -0.86590000 0.00330000 0.50030000
vn -0.86590000 0.00330000 0.50030000
vn -0.86590000 0.00330000 0.50020000
vn -0.86590000 0.00330000 0.50020000
vn -0.86590000 0.00340000 0.50030000
vn -0.86590000 0.00320000 0.50020000
vn -0.86590000 0.00330000 0.50020000
vn -0.86590000 0.00340000 0.50030000
vn -0.86590000 0.00320000 0.50020000
vn -0.86660000 0.00330000 0.49890000
vn -0.86670000 0.00330000 0.49890000
vn -0.60520000 -0.03220000 0.79550000
vn -0.26120000 -0.05940000 0.96350000
vn 0.12020000 -0.07650000 0.98980000
vn 0.49810000 -0.08490000 0.86300000
vn 0.79280000 -0.07820000 0.60450000
vn 0.96550000 -0.05900000 0.25360000
vn 0.99060000 -0.03050000 -0.13360000
vn 0.86630000 0.00320000 -0.49960000
vn 0.86630000 0.00320000 -0.49950000
vn 0.86610000 0.00320000 -0.49980000
vn 0.86610000 0.00330000 -0.49980000
vn 0.86610000 0.00330000 -0.49980000
vn 0.86610000 0.00330000 -0.49980000
vn 0.86610000 0.00330000 -0.49980000
vn 0.86620000 0.00340000 -0.49980000
vn 0.86620000 0.00340000 -0.49980000
vn 0.86620000 0.00340000 -0.49970000
vn 0.86620000 0.00340000 -0.49970000
vn 0.86620000 0.00340000 -0.49970000
vn 0.86620000 0.00340000 -0.49970000
vn 0.86620000 0.00350000 -0.49970000
vn 0.86620000 0.00340000 -0.49970000
vn 0.86620000 0.00340000 -0.49970000
vn 0.86620000 0.00340000 -0.49970000
vn 0.86620000 0.00340000 -0.49970000
vn 0.86620000 0.00340000 -0.49970000
vn 0.86620000 0.00340000 -0.49970000
vn 0.86620000 0.00340000 -0.49970000
vn 0.86620000 0.00330000 -0.49970000
vn 0.86620000 0.00330000 -0.49970000
vn 0.61370000 0.04830000 -0.78810000
vn 0.26610000 0.08700000 -0.96000000
vn -0.12270000 0.11310000 -0.98600000
vn -0.49640000 0.12240000 -0.85940000
vn -0.79250000 0.11310000 -0.59930000
vn -0.96450000 0.08700000 -0.24950000
vn -0.98940000 0.04830000 0.13720000
vt 0.04999500 0.10781400
vt 0.04999500 0.10781400
vt 0.04999500 0.10781400
vt 0.04999500 0.22019900
vt 0.04999500 0.33425100
vt 0.07911100 0.10781400
vt 0.07911100 0.22019900
vt 0.07911100 0.33425100
vt 0.10825800 0.10781400
vt 0.10825800 0.10781400
vt 0.10825800 0.10781400
vt 0.10825800 0.22019900
vt 0.10825800 0.33425100
vt 0.03388500 0.04216500
vt 0.03388500 0.04216500
vt 0.03771800 0.02589500
vt 0.03771800 0.02589500
vt 0.04764300 0.01225500
vt 0.04764300 0.01225500
vt 0.06211700 0.00317100
vt 0.07905300 0.00000000
vt 0.07905300 0.00000000
vt 0.09601300 0.00317300
vt 0.11054500 0.01225700
vt 0.12052900 0.02589900
vt 0.12052900 0.02589900
vt 0.12438500 0.04216800
vt 0.12502400 0.06366100
vt 0.12502400 0.06366100
vt 0.12568000 0.08526300
vt 0.12568000 0.08526300
vt 0.12568000 0.08526300
vt 0.12635600 0.10697500
vt 0.12635600 0.10697500
vt 0.12705100 0.12880100
vt 0.12705100 0.12880100
vt 0.12776800 0.15074100
vt 0.12850600 0.17279800
vt 0.12850600 0.17279800
vt 0.12926800 0.19497500
vt 0.12926800 0.19497500
vt 0.13005400 0.21727300
vt 0.13005400 0.21727300
vt 0.13086500 0.23969600
vt 0.13170300 0.26224500
vt 0.13170300 0.26224500
vt 0.13256900 0.28492300
vt 0.13346400 0.30773300
vt 0.13346400 0.30773300
vt 0.13346400 0.30773300
vt 0.13439000 0.33067700
vt 0.13439000 0.33067700
vt 0.13534900 0.35375900
vt 0.13534900 0.35375900
vt 0.13634100 0.37698100
vt 0.13634100 0.37698100
vt 0.13736800 0.40034600
vt 0.13736800 0.40034600
vt 0.13369600 0.41838900
vt 0.13369600 0.41838900
vt 0.12137900 0.43397300
vt 0.12137900 0.43397300
vt 0.12137900 0.43397300
vt 0.10215100 0.44456900
vt 0.07904600 0.44830200
vt 0.05560100 0.44441200
vt 0.05560100 0.44441200
vt 0.03686500 0.43397000
vt 0.02478200 0.41872900
vt 0.02102300 0.40035400
vt 0.02102300 0.40035400
vt 0.02204000 0.37698800
vt 0.02204000 0.37698800
vt 0.02302200 0.35376500
vt 0.02397000 0.33068200
vt 0.02397000 0.33068200
vt 0.02488800 0.30773700
vt 0.02577400 0.28492600
vt 0.02577400 0.28492600
vt 0.02663200 0.26224700
vt 0.02663200 0.26224700
vt 0.02746200 0.23969700
vt 0.02746200 0.23969700
vt 0.02826600 0.21727400
vt 0.02826600 0.21727400
vt 0.02904500 0.19497500
vt 0.02980000 0.17279700
vt 0.02980000 0.17279700
vt 0.03053100 0.15073900
vt 0.03053100 0.15073900
vt 0.03124200 0.12879800
vt 0.03193100 0.10697200
vt 0.03193100 0.10697200
vt 0.03260100 0.08525900
vt 0.03260100 0.08525900
vt 0.03325200 0.06365600
vt 0.03325200 0.06365600
vt 0.04999500 0.05390700
vt 0.04999500 0.05390700
vt 0.04999500 0.05390700
vt 0.07911100 0.05390700
vt 0.06455300 0.10781400
vt 0.06455300 0.05390700
vt 0.10825800 0.05390700
vt 0.10825800 0.05390700
vt 0.09368400 0.10781400
vt 0.09368400 0.05390700
vt 0.09368400 0.05390700
vt 0.12283100 0.22019900
vt 0.12283100 0.22019900
vt 0.10825800 0.16400700
vt 0.12283100 0.16400700
vt 0.12283100 0.16400700
vt 0.12283100 0.16400700
vt 0.12283100 0.33425100
vt 0.12283100 0.33425100
vt 0.12283100 0.33425100
vt 0.10825800 0.27722500
vt 0.12283100 0.27722500
vt 0.12283100 0.27722500
vt 0.12283100 0.27722500
vt 0.12283100 0.27722500
vt 0.12283100 0.27722500
vt 0.10825800 0.39127700
vt 0.10825800 0.39127700
vt 0.12283100 0.39127700
vt 0.12283100 0.39127700
vt 0.12283100 0.39127700
vt 0.12283100 0.39127700
vt 0.07911100 0.39127700
vt 0.09368400 0.33425100
vt 0.09368400 0.39127700
vt 0.09368400 0.39127700
vt 0.04999500 0.39127700
vt 0.04999500 0.39127700
vt 0.06455300 0.33425100
vt 0.06455300 0.39127700
vt 0.06455300 0.39127700
vt 0.03548900 0.33425100
vt 0.03548900 0.33425100
vt 0.03548900 0.33425100
vt 0.03548900 0.33425100
vt 0.03548900 0.39127700
vt 0.03548900 0.39127700
vt 0.04999500 0.27722500
vt 0.03548900 0.22019900
vt 0.03548900 0.22019900
vt 0.03548900 0.27722500
vt 0.03548900 0.27722500
vt 0.03548900 0.27722500
vt 0.04999500 0.16400700
vt 0.03548900 0.16400700
vt 0.03548900 0.16400700
vt 0.01955800 0.00000000
vt 0.00977900 0.00000000
vt 0.00000000 0.00000000
vt 0.01955800 0.05615300
vt 0.00977900 0.05615300
vt 0.01955800 0.11233900
vt 0.00977900 0.11233900
vt 0.01955800 0.16788900
vt 0.00977900 0.16788900
vt 0.00977900 0.16788900
vt 0.01955800 0.22265300
vt 0.01955800 0.22265300
vt 0.00977900 0.22265300
vt 0.01955800 0.27741900
vt 0.00977900 0.27741900
vt 0.00977900 0.27741900
vt 0.01955800 0.33218700
vt 0.00977900 0.33218700
vt 0.00977900 0.33218700
vt 0.01955800 0.38695500
vt 0.00977900 0.38695500
vt 0.00977900 0.38695500
vt 0.00977900 0.38695500
vt 0.01955800 0.44172200
vt 0.01955800 0.44172200
vt 0.00977900 0.44172200
vt 0.00977900 0.44172200
vt 0.00977900 0.44172200
vt 0.00977900 0.44172200
vt 0.01955800 0.49660000
vt 0.01955800 0.49660000
vt 0.00977900 0.49660000
vt 0.00977900 0.49660000
vt 0.01955800 0.55264000
vt 0.00977900 0.55264000
vt 0.01955800 0.61188900
vt 0.00977900 0.61188900
vt 0.01955800 0.66993400
vt 0.01955800 0.66993400
vt 0.00977900 0.66993400
vt 0.00977900 0.66993400
vt 0.01955800 0.72469800
vt 0.01955800 0.72469800
vt 0.00977900 0.72469800
vt 0.00977900 0.72469800
vt 0.00977900 0.72469800
vt 0.00977900 0.72469800
vt 0.01955800 0.77946400
vt 0.01955800 0.77946400
vt 0.00977900 0.77946400
vt 0.00977900 0.77946400
vt 0.00977900 0.77946400
vt 0.01955800 0.83423200
vt 0.00977900 0.83423200
vt 0.00977900 0.83423200
vt 0.01955800 0.88900000
vt 0.00977900 0.88900000
vt 0.01955800 0.94376700
vt 0.01955800 0.94376700
vt 0.01955800 0.94376700
vt 0.00977900 0.94376700
vt 0.00977900 0.94376700
vt 0.00977900 0.94376700
vt 0.01955800 0.99853500
vt 0.00977900 0.99853500
vt 0.00977900 0.99853500
vt 0.00977900 0.99853500
vt 0.00000000 0.99853500
vt 0.00000000 0.97639800
vt 0.00000000 0.97639800
vt 0.00000000 0.95426200
vt 0.00000000 0.95426200
vt 0.00000000 0.93212700
vt 0.00000000 0.93212700
vt 0.00000000 0.90999100
vt 0.00000000 0.88785600
vt 0.00000000 0.86572100
vt 0.00000000 0.84358500
vt 0.00000000 0.82145000
vt 0.00000000 0.82145000
vt 0.00000000 0.79931400
vt 0.00000000 0.79931400
vt 0.00000000 0.79931400
vt 0.00000000 0.77717900
vt 0.00000000 0.75504400
vt 0.00000000 0.75504400
vt 0.00000000 0.73290800
vt 0.00000000 0.73290800
vt 0.00000000 0.71077300
vt 0.00000000 0.71077300
vt 0.00000000 0.68863700
vt 0.00000000 0.68863700
vt 0.00000000 0.68863700
vt 0.00000000 0.66650200
vt 0.00000000 0.64436700
vt 0.00000000 0.64436700
vt 0.00000000 0.62520300
vt 0.00000000 0.60603900
vt 0.00000000 0.58687600
vt 0.00000000 0.56771200
vt 0.00000000 0.54992700
vt 0.00000000 0.53214200
vt 0.00000000 0.51437200
vt 0.00000000 0.49660200
vt 0.00000000 0.49660200
vt 0.00000000 0.47446800
vt 0.00000000 0.47446800
vt 0.00000000 0.45233300
vt 0.00000000 0.43019900
vt 0.00000000 0.40806400
vt 0.00000000 0.40806400
vt 0.00000000 0.38592900
vt 0.00000000 0.38592900
vt 0.00000000 0.36379500
vt 0.00000000 0.34166000
vt 0.00000000 0.31952600
vt 0.00000000 0.29739100
vt 0.00000000 0.29739100
vt 0.00000000 0.27525700
vt 0.00000000 0.25312200
vt 0.00000000 0.23098700
vt 0.00000000 0.20885300
vt 0.00000000 0.18671800
vt 0.00000000 0.16458400
vt 0.00000000 0.16458400
vt 0.00000000 0.14244900
vt 0.00000000 0.12465100
vt 0.00000000 0.10685300
vt 0.00000000 0.08903700
vt 0.00000000 0.07122000
vt 0.00000000 0.05340500
vt 0.00000000 0.03558900
vt 0.00000000 0.01779300
f 4/4/4 151/151/151 147/147/147
f 3/3/3 152/152/152 151/151/151
f 5/5/5 145/145/145 150/150/150
f 145/145/145 4/4/4 150/150/150
f 134/134/134 5/5/5 141/141/141
f 6/6/6 101/101/101 102/102/102
f 102/102/102 103/103/103 100/100/100
f 151/151/151 102/102/102 3/3/3
f 102/102/102 7/7/7 6/6/6
f 7/7/7 151/151/151 4/4/4
f 151/151/151 7/7/7 102/102/102
f 136/136/136 145/145/145 5/5/5
f 145/145/145 7/7/7 4/4/4
f 7/7/7 136/136/136 8/8/8
f 136/136/136 7/7/7 145/145/145
f 138/138/138 136/136/136 134/134/134
f 130/130/130 8/8/8 138/138/138
f 11/11/11 105/105/105 108/108/108
f 106/106/106 108/108/108 6/6/6
f 106/106/106 111/111/111 11/11/11
f 111/111/111 7/7/7 12/12/12
f 7/7/7 106/106/106 6/6/6
f 106/106/106 7/7/7 111/111/111
f 118/118/118 131/131/131 13/13/13
f 131/131/131 7/7/7 8/8/8
f 7/7/7 118/118/118 12/12/12
f 118/118/118 7/7/7 131/131/131
f 133/133/133 131/131/131 8/8/8
f 125/125/125 13/13/13 131/131/131
f 109/109/109 112/112/112 12/12/12
f 112/112/112 11/11/11 111/111/111
f 115/115/115 122/122/122 13/13/13
f 122/122/122 109/109/109 118/118/118
f 127/127/127 115/115/115 13/13/13
f 1/1/1 93/93/93 91/91/91
f 99/99/99 97/97/97 95/95/95
f 2/2/2 94/94/94 92/92/92
f 86/86/86 85/85/85 147/147/147
f 153/153/153 90/90/90 87/87/87
f 152/152/152 88/88/88 86/86/86
f 89/89/89 152/152/152 91/91/91
f 18/18/18 17/17/17 98/98/98
f 20/20/20 19/19/19 100/100/100
f 21/21/21 20/20/20 103/103/103
f 100/100/100 14/14/14 96/96/96
f 152/152/152 3/3/3 91/91/91
f 16/16/16 15/15/15 98/98/98
f 100/100/100 94/94/94 3/3/3
f 100/100/100 103/103/103 20/20/20
f 152/152/152 86/86/86 147/147/147
f 77/77/77 75/75/75 142/142/142
f 81/81/81 79/79/79 149/149/149
f 78/78/78 77/77/77 148/148/148
f 143/143/143 71/71/71 69/69/69
f 74/74/74 72/72/72 143/143/143
f 74/74/74 140/140/140 76/76/76
f 144/144/144 73/73/73 70/70/70
f 149/149/149 83/83/83 80/80/80
f 83/83/83 149/149/149 147/147/147
f 74/74/74 143/143/143 140/140/140
f 77/77/77 139/139/139 149/149/149
f 67/67/67 135/135/135 68/68/68
f 144/144/144 68/68/68 134/134/134
f 65/65/65 138/138/138 67/67/67
f 135/135/135 66/66/66 137/137/137
f 65/65/65 130/130/130 138/138/138
f 69/69/69 68/68/68 144/144/144
f 146/146/146 84/84/84 82/82/82
f 21/21/21 103/103/103 101/101/101
f 108/108/108 21/21/21 101/101/101
f 23/23/23 22/22/22 107/107/107
f 24/24/24 23/23/23 105/105/105
f 25/25/25 24/24/24 105/105/105
f 23/23/23 108/108/108 105/105/105
f 105/105/105 11/11/11 32/32/32
f 112/112/112 36/36/36 11/11/11
f 26/26/26 104/104/104 27/27/27
f 104/104/104 29/29/29 27/27/27
f 9/9/9 34/34/34 31/31/31
f 104/104/104 30/30/30 28/28/28
f 113/113/113 37/37/37 36/36/36
f 109/109/109 41/41/41 112/112/112
f 114/114/114 40/40/40 39/39/39
f 112/112/112 38/38/38 37/37/37
f 10/10/10 35/35/35 33/33/33
f 110/110/110 43/43/43 40/40/40
f 50/50/50 120/120/120 116/116/116
f 122/122/122 44/44/44 109/109/109
f 133/133/133 65/65/65 64/64/64
f 124/124/124 132/132/132 64/64/64
f 62/62/62 128/128/128 125/125/125
f 59/59/59 128/128/128 63/63/63
f 64/64/64 61/61/61 125/125/125
f 127/127/127 53/53/53 115/115/115
f 130/130/130 65/65/65 133/133/133
f 45/45/45 121/121/121 47/47/47
f 48/48/48 117/117/117 51/51/51
f 47/47/47 119/119/119 49/49/49
f 126/126/126 56/56/56 53/53/53
f 54/54/54 52/52/52 116/116/116
f 128/128/128 60/60/60 58/58/58
f 55/55/55 129/129/129 57/57/57
f 44/44/44 123/123/123 46/46/46
f 44/44/44 42/42/42 109/109/109
f 158/158/158 157/157/157 154/154/154
f 160/160/160 159/159/159 158/158/158
f 162/162/162 161/161/161 160/160/160
f 166/166/166 164/164/164 163/163/163
f 168/168/168 167/167/167 166/166/166
f 172/172/172 170/170/170 168/168/168
f 176/176/176 173/173/173 172/172/172
f 181/181/181 177/177/177 175/175/175
f 185/185/185 184/184/184 180/180/180
f 188/188/188 187/187/187 186/186/186
f 190/190/190 189/189/189 188/188/188
f 194/194/194 191/191/191 189/189/189
f 199/199/199 195/195/195 192/192/192
f 205/205/205 201/201/201 196/196/196
f 207/207/207 206/206/206 202/202/202
f 210/210/210 209/209/209 206/206/206
f 215/215/215 211/211/211 209/209/209
f 219/219/219 217/217/217 212/212/212
f 286/286/286 155/155/155 156/156/156
f 155/155/155 286/286/286 285/285/285
f 158/158/158 285/285/285 284/284/284
f 158/158/158 283/283/283 282/282/282
f 283/283/283 158/158/158 284/284/284
f 282/282/282 160/160/160 158/158/158
f 280/280/280 160/160/160 281/281/281
f 163/163/163 276/276/276 166/166/166
f 160/160/160 280/280/280 279/279/279
f 169/169/169 270/270/270 171/171/171
f 166/166/166 274/274/274 273/273/273
f 172/172/172 268/268/268 267/267/267
f 174/174/174 264/264/264 182/182/182
f 179/179/179 261/261/261 260/260/260
f 282/282/282 281/281/281 160/160/160
f 163/163/163 277/277/277 276/276/276
f 278/278/278 162/162/162 279/279/279
f 166/166/166 275/275/275 274/274/274
f 168/168/168 273/273/273 272/272/272
f 268/268/268 172/172/172 269/269/269
f 174/174/174 265/265/265 264/264/264
f 179/179/179 262/262/262 261/261/261
f 266/266/266 176/176/176 267/267/267
f 271/271/271 168/168/168 272/272/272
f 259/259/259 258/258/258 186/186/186
f 256/256/256 186/186/186 257/257/257
f 254/254/254 188/188/188 255/255/255
f 186/186/186 256/256/256 255/255/255
f 186/186/186 255/255/255 188/188/188
f 188/188/188 254/254/254 253/253/253
f 252/252/252 251/251/251 190/190/190
f 252/252/252 188/188/188 253/253/253
f 190/190/190 188/188/188 252/252/252
f 249/249/249 190/190/190 250/250/250
f 193/193/193 245/245/245 200/200/200
f 194/194/194 190/190/190 249/249/249
f 204/204/204 234/234/234 207/207/207
f 199/199/199 240/240/240 239/239/239
f 207/207/207 231/231/231 230/230/230
f 210/210/210 228/228/228 215/215/215
f 216/216/216 225/225/225 223/223/223
f 251/251/251 250/250/250 190/190/190
f 194/194/194 248/248/248 247/247/247
f 244/244/244 194/194/194 247/247/247
f 205/205/205 237/237/237 236/236/236
f 237/237/237 205/205/205 238/238/238
f 241/241/241 200/200/200 242/242/242
f 207/207/207 233/233/233 231/231/231
f 210/210/210 230/230/230 229/229/229
f 218/218/218 222/222/222 221/221/221
f 224/224/224 214/214/214 227/227/227
f 228/228/228 210/210/210 229/229/229
f 151/151/151 152/152/152 147/147/147
f 5/5/5 150/150/150 141/141/141
f 4/4/4 147/147/147 150/150/150
f 134/134/134 141/141/141 143/143/143
f 101/101/101 103/103/103 102/102/102
f 102/102/102 100/100/100 3/3/3
f 136/136/136 5/5/5 134/134/134
f 8/8/8 136/136/136 138/138/138
f 11/11/11 108/108/108 106/106/106
f 108/108/108 101/101/101 6/6/6
f 133/133/133 8/8/8 130/130/130
f 125/125/125 131/131/131 133/133/133
f 112/112/112 111/111/111 12/12/12
f 122/122/122 118/118/118 13/13/13
f 109/109/109 12/12/12 118/118/118
f 127/127/127 13/13/13 125/125/125
f 158/158/158 154/154/154 155/155/155
f 159/159/159 157/157/157 158/158/158
f 161/161/161 159/159/159 160/160/160
f 165/165/165 161/161/161 162/162/162
f 167/167/167 164/164/164 166/166/166
f 170/170/170 167/167/167 168/168/168
f 173/173/173 170/170/170 172/172/172
f 178/178/178 173/173/173 176/176/176
f 184/184/184 177/177/177 181/181/181
f 187/187/187 183/183/183 186/186/186
f 189/189/189 187/187/187 188/188/188
f 194/194/194 189/189/189 190/190/190
f 197/197/197 191/191/191 194/194/194
f 203/203/203 195/195/195 199/199/199
f 207/207/207 202/202/202 204/204/204
f 210/210/210 206/206/206 207/207/207
f 215/215/215 209/209/209 210/210/210
f 220/220/220 213/213/213 216/216/216
f 155/155/155 285/285/285 158/158/158
f 276/276/276 275/275/275 166/166/166
f 160/160/160 279/279/279 162/162/162
f 271/271/271 269/269/269 172/172/172
f 166/166/166 273/273/273 168/168/168
f 172/172/172 267/267/267 176/176/176
f 263/263/263 262/262/262 179/179/179
f 179/179/179 260/260/260 186/186/186
f 246/246/246 243/243/243 198/198/198
f 235/235/235 232/232/232 208/208/208
f 198/198/198 238/238/238 205/205/205
f 207/207/207 230/230/230 210/210/210
f 228/228/228 226/226/226 215/215/215
f 214/214/214 222/222/222 218/218/218

