mtllib material.mtl
usemtl Material-7011油漆
v -0.01773200 0.02289100 0.03200400
v -0.01773200 0.02289100 0.03200400
v -0.01773200 0.02289100 0.03200400
v -0.01642500 0.02259800 0.02964400
v -0.01513400 0.02233400 0.02731400
v -0.01830000 0.02289100 0.03168200
v -0.01695100 0.02259800 0.02934600
v -0.01561900 0.02233400 0.02704000
v -0.01886300 0.02289100 0.03135000
v -0.01886300 0.02289100 0.03135000
v -0.01886300 0.02289100 0.03135000
v -0.01747200 0.02259800 0.02903900
v -0.01609900 0.02233400 0.02675600
v -0.01393600 0.02219600 0.02624600
v -0.01393600 0.02219600 0.02624600
v -0.01420200 0.02224400 0.02670600
v -0.01446700 0.02229200 0.02716600
v -0.01473300 0.02234200 0.02762600
v -0.01499800 0.02239300 0.02808500
v -0.01526400 0.02244400 0.02854500
v -0.01526400 0.02244400 0.02854500
v -0.01552900 0.02249700 0.02900400
v -0.01579400 0.02255000 0.02946300
v -0.01605900 0.02260500 0.02992300
v -0.01605900 0.02260500 0.02992300
v -0.01632400 0.02266100 0.03038200
v -0.01632400 0.02266100 0.03038200
v -0.01658900 0.02271700 0.03084100
v -0.01658900 0.02271700 0.03084100
v -0.01685400 0.02277500 0.03130000
v -0.01685400 0.02277500 0.03130000
v -0.01711900 0.02283400 0.03175900
v -0.01711900 0.02283400 0.03175900
v -0.01738400 0.02289300 0.03221700
v -0.01738400 0.02289300 0.03221700
v -0.01764900 0.02295400 0.03267600
v -0.01764900 0.02295400 0.03267600
v -0.01764900 0.02295400 0.03267600
v -0.01791400 0.02301600 0.03313500
v -0.01817900 0.02307800 0.03359300
v -0.01817900 0.02307800 0.03359300
v -0.01845000 0.02312600 0.03390400
v -0.01882000 0.02316700 0.03408700
v -0.01923400 0.02319500 0.03411500
v -0.01923400 0.02319500 0.03411500
v -0.01962700 0.02320500 0.03398100
v -0.01993900 0.02319500 0.03370800
v -0.01993900 0.02319500 0.03370800
v -0.02012200 0.02316800 0.03333500
v -0.02012200 0.02316800 0.03333500
v -0.02014900 0.02312600 0.03292300
v -0.02001600 0.02307800 0.03253300
v -0.01975100 0.02301600 0.03207400
v -0.01948600 0.02295400 0.03161500
v -0.01948600 0.02295400 0.03161500
v -0.01922100 0.02289300 0.03115700
v -0.01922100 0.02289300 0.03115700
v -0.01895600 0.02283400 0.03069800
v -0.01869100 0.02277500 0.03023900
v -0.01869100 0.02277500 0.03023900
v -0.01842600 0.02271700 0.02978000
v -0.01816100 0.02266100 0.02932100
v -0.01789600 0.02260500 0.02886200
v -0.01763100 0.02255000 0.02840300
v -0.01763100 0.02255000 0.02840300
v -0.01736600 0.02249700 0.02794300
v -0.01736600 0.02249700 0.02794300
v -0.01710100 0.02244400 0.02748400
v -0.01710100 0.02244400 0.02748400
v -0.01683500 0.02239300 0.02702500
v -0.01683500 0.02239300 0.02702500
v -0.01657000 0.02234200 0.02656500
v -0.01630500 0.02229200 0.02610500
v -0.01603900 0.02224400 0.02564500
v -0.01603900 0.02224400 0.02564500
v -0.01577400 0.02219600 0.02518500
v -0.01577400 0.02219600 0.02518500
v -0.01549600 0.02216000 0.02486900
v -0.01513100 0.02213000 0.02469100
v -0.01472500 0.02211000 0.02466300
v -0.01432500 0.02210200 0.02479700
v -0.01401300 0.02211000 0.02507100
v -0.01383000 0.02213000 0.02544200
v -0.01383000 0.02213000 0.02544200
v -0.01380300 0.02216000 0.02585500
v -0.01380300 0.02216000 0.02585500
v -0.01450200 0.02221400 0.02617300
v -0.01450200 0.02221400 0.02617300
v -0.01488900 0.02233400 0.02744800
v -0.01488900 0.02233400 0.02744800
v -0.01488900 0.02233400 0.02744800
v -0.01426800 0.02221400 0.02630200
v -0.01426800 0.02221400 0.02630200
v -0.01426800 0.02221400 0.02630200
v -0.01577500 0.02246200 0.02847100
v -0.01615900 0.02259800 0.02979000
v -0.01615900 0.02259800 0.02979000
v -0.01615900 0.02259800 0.02979000
v -0.01615900 0.02259800 0.02979000
v -0.01552000 0.02246200 0.02861100
v -0.01552000 0.02246200 0.02861100
v -0.01552000 0.02246200 0.02861100
v -0.01707400 0.02274000 0.03081600
v -0.01679800 0.02274000 0.03096700
v -0.01679800 0.02274000 0.03096700
v -0.01837200 0.02304400 0.03315700
v -0.01896000 0.02304400 0.03282400
v -0.01801700 0.02289100 0.03184400
v -0.01866600 0.02304400 0.03299200
v -0.01866600 0.02304400 0.03299200
v -0.01954300 0.02304400 0.03248100
v -0.01954300 0.02304400 0.03248100
v -0.01954300 0.02304400 0.03248100
v -0.01858200 0.02289100 0.03151800
v -0.01925200 0.02304400 0.03265400
v -0.01773100 0.02259800 0.02888200
v -0.01773100 0.02259800 0.02888200
v -0.01773100 0.02259800 0.02888200
v -0.01773100 0.02259800 0.02888200
v -0.01816300 0.02274000 0.03018700
v -0.01843200 0.02274000 0.03002300
v -0.01843200 0.02274000 0.03002300
v -0.01843200 0.02274000 0.03002300
v -0.01633800 0.02233400 0.02661100
v -0.01633800 0.02233400 0.02661100
v -0.01633800 0.02233400 0.02661100
v -0.01633800 0.02233400 0.02661100
v -0.01678100 0.02246200 0.02789000
v -0.01703000 0.02246200 0.02773800
v -0.01703000 0.02246200 0.02773800
v -0.01703000 0.02246200 0.02773800
v -0.01542700 0.02221400 0.02563900
v -0.01542700 0.02221400 0.02563900
v -0.01542700 0.02221400 0.02563900
v -0.01565500 0.02221400 0.02550000
v -0.01565500 0.02221400 0.02550000
v -0.01565500 0.02221400 0.02550000
v -0.01496600 0.02221400 0.02591100
v -0.01585900 0.02233400 0.02689900
v -0.01519700 0.02221400 0.02577600
v -0.01519700 0.02221400 0.02577600
v -0.01537700 0.02233400 0.02717800
v -0.01473500 0.02221400 0.02604300
v -0.01473500 0.02221400 0.02604300
v -0.01395700 0.02169800 0.02628500
v -0.01395700 0.02169800 0.02628500
v -0.01394700 0.02194700 0.02626600
v -0.01394700 0.02194700 0.02626600
v -0.01393600 0.02219600 0.02624600
v -0.01461500 0.02181800 0.02742500
v -0.01461500 0.02181800 0.02742500
v -0.01460400 0.02206700 0.02740400
v -0.01460400 0.02206700 0.02740400
v -0.01460400 0.02206700 0.02740400
v -0.01460400 0.02206700 0.02740400
v -0.01460400 0.02206700 0.02740400
v -0.01460400 0.02206700 0.02740400
v -0.01527600 0.02194400 0.02857000
v -0.01526500 0.02219300 0.02854800
v -0.01526500 0.02219300 0.02854800
v -0.01593000 0.02207600 0.02970200
v -0.01591800 0.02232500 0.02968000
v -0.01658700 0.02221400 0.03084000
v -0.01657400 0.02246300 0.03081700
v -0.01724400 0.02235900 0.03197800
v -0.01724400 0.02235900 0.03197800
v -0.01723100 0.02260700 0.03195300
v -0.01723100 0.02260700 0.03195300
v -0.01790000 0.02250900 0.03311500
v -0.01788600 0.02275800 0.03308900
v -0.01788600 0.02275800 0.03308900
v -0.01788600 0.02275800 0.03308900
v -0.01872300 0.02265900 0.03409700
v -0.01870900 0.02290700 0.03407100
v -0.01992700 0.02270200 0.03381300
v -0.01991200 0.02295000 0.03378700
v -0.02004700 0.02258200 0.03258300
v -0.02004700 0.02258200 0.03258300
v -0.02003100 0.02283000 0.03255800
v -0.02003100 0.02283000 0.03255800
v -0.02003100 0.02283000 0.03255800
v -0.01939200 0.02242900 0.03144900
v -0.01939200 0.02242900 0.03144900
v -0.01937700 0.02267700 0.03142500
v -0.01937700 0.02267700 0.03142500
v -0.01873100 0.02228000 0.03030400
v -0.01873100 0.02228000 0.03030400
v -0.01871600 0.02252900 0.03028100
v -0.01871600 0.02252900 0.03028100
v -0.01871600 0.02252900 0.03028100
v -0.01807800 0.02214000 0.02917400
v -0.01807800 0.02214000 0.02917400
v -0.01806500 0.02238900 0.02915200
v -0.01806500 0.02238900 0.02915200
v -0.01806500 0.02238900 0.02915200
v -0.01742100 0.02200500 0.02803600
v -0.01740800 0.02225400 0.02801400
v -0.01740800 0.02225400 0.02801400
v -0.01676400 0.02187600 0.02689700
v -0.01676400 0.02187600 0.02689700
v -0.01675100 0.02212500 0.02687700
v -0.01675100 0.02212500 0.02687700
v -0.01675100 0.02212500 0.02687700
v -0.01610600 0.02175300 0.02575700
v -0.01610600 0.02175300 0.02575700
v -0.01610600 0.02175300 0.02575700
v -0.01609400 0.02200200 0.02573800
v -0.01609400 0.02200200 0.02573800
v -0.01609400 0.02200200 0.02573800
v -0.01528200 0.02164100 0.02477200
v -0.01527100 0.02189000 0.02475300
v -0.01407600 0.02160900 0.02505500
v -0.01406600 0.02185800 0.02503700
v -0.01395700 0.02169800 0.02628500
v -0.01394700 0.02194700 0.02626600
v -0.01393600 0.02219600 0.02624600
v -0.01380300 0.02216000 0.02585500
v -0.01383000 0.02213000 0.02544200
v -0.01401300 0.02211000 0.02507100
v -0.01432500 0.02210200 0.02479700
v -0.01472500 0.02211000 0.02466300
v -0.01513100 0.02213000 0.02469100
v -0.01549600 0.02216000 0.02486900
v -0.01577400 0.02219600 0.02518500
v -0.01603900 0.02224400 0.02564500
v -0.01630500 0.02229200 0.02610500
v -0.01630500 0.02229200 0.02610500
v -0.01630500 0.02229200 0.02610500
v -0.01657000 0.02234200 0.02656500
v -0.01657000 0.02234200 0.02656500
v -0.01683500 0.02239300 0.02702500
v -0.01683500 0.02239300 0.02702500
v -0.01710100 0.02244400 0.02748400
v -0.01710100 0.02244400 0.02748400
v -0.01736600 0.02249700 0.02794300
v -0.01763100 0.02255000 0.02840300
v -0.01763100 0.02255000 0.02840300
v -0.01789600 0.02260500 0.02886200
v -0.01816100 0.02266100 0.02932100
v -0.01816100 0.02266100 0.02932100
v -0.01842600 0.02271700 0.02978000
v -0.01842600 0.02271700 0.02978000
v -0.01842600 0.02271700 0.02978000
v -0.01869100 0.02277500 0.03023900
v -0.01895600 0.02283400 0.03069800
v -0.01922100 0.02289300 0.03115700
v -0.01948600 0.02295400 0.03161500
v -0.01975100 0.02301600 0.03207400
v -0.01975100 0.02301600 0.03207400
v -0.02001600 0.02307800 0.03253300
v -0.02014900 0.02312600 0.03292300
v -0.02012200 0.02316800 0.03333500
v -0.01993900 0.02319500 0.03370800
v -0.01962700 0.02320500 0.03398100
v -0.01923400 0.02319500 0.03411500
v -0.01882000 0.02316700 0.03408700
v -0.01845000 0.02312600 0.03390400
v -0.01817900 0.02307800 0.03359300
v -0.01791400 0.02301600 0.03313500
v -0.01764900 0.02295400 0.03267600
v -0.01764900 0.02295400 0.03267600
v -0.01764900 0.02295400 0.03267600
v -0.01738400 0.02289300 0.03221700
v -0.01738400 0.02289300 0.03221700
v -0.01711900 0.02283400 0.03175900
v -0.01711900 0.02283400 0.03175900
v -0.01685400 0.02277500 0.03130000
v -0.01658900 0.02271700 0.03084100
v -0.01632400 0.02266100 0.03038200
v -0.01605900 0.02260500 0.02992300
v -0.01579400 0.02255000 0.02946300
v -0.01552900 0.02249700 0.02900400
v -0.01526400 0.02244400 0.02854500
v -0.01499800 0.02239300 0.02808500
v -0.01499800 0.02239300 0.02808500
v -0.01473300 0.02234200 0.02762600
v -0.01473300 0.02234200 0.02762600
v -0.01446700 0.02229200 0.02716600
v -0.01420200 0.02224400 0.02670600
v -0.01420200 0.02224400 0.02670600
v -0.01420200 0.02224400 0.02670600
vn 0.05470000 0.99360000 -0.09870000
vn 0.05460000 0.99360000 -0.09860000
vn 0.05470000 0.99360000 -0.09860000
vn 0.04990000 0.99470000 -0.09030000
vn 0.04550000 0.99560000 -0.08200000
vn 0.05630000 0.99360000 -0.09750000
vn 0.05170000 0.99470000 -0.08940000
vn 0.04690000 0.99560000 -0.08120000
vn 0.05810000 0.99360000 -0.09660000
vn 0.05810000 0.99360000 -0.09670000
vn 0.05820000 0.99360000 -0.09660000
vn 0.05300000 0.99470000 -0.08860000
vn 0.04840000 0.99560000 -0.08040000
vn 0.04150000 0.99610000 -0.07800000
vn 0.04150000 0.99610000 -0.07820000
vn 0.04240000 0.99590000 -0.07970000
vn 0.04330000 0.99570000 -0.08140000
vn 0.04430000 0.99560000 -0.08300000
vn 0.04520000 0.99540000 -0.08460000
vn 0.04610000 0.99520000 -0.08620000
vn 0.04610000 0.99520000 -0.08630000
vn 0.04710000 0.99500000 -0.08790000
vn 0.04800000 0.99480000 -0.08950000
vn 0.04900000 0.99460000 -0.09120000
vn 0.04890000 0.99460000 -0.09120000
vn 0.04990000 0.99440000 -0.09280000
vn 0.04980000 0.99440000 -0.09280000
vn 0.05080000 0.99420000 -0.09460000
vn 0.05080000 0.99420000 -0.09440000
vn 0.05160000 0.99400000 -0.09600000
vn 0.05170000 0.99400000 -0.09600000
vn 0.05270000 0.99380000 -0.09770000
vn 0.05260000 0.99380000 -0.09770000
vn 0.05360000 0.99360000 -0.09920000
vn 0.05380000 0.99360000 -0.09940000
vn 0.05460000 0.99340000 -0.10090000
vn 0.05450000 0.99340000 -0.10090000
vn 0.05450000 0.99340000 -0.10070000
vn 0.05540000 0.99320000 -0.10260000
vn 0.05640000 0.99300000 -0.10410000
vn 0.05630000 0.99300000 -0.10400000
vn 0.05730000 0.99280000 -0.10520000
vn 0.05850000 0.99270000 -0.10590000
vn 0.05990000 0.99250000 -0.10620000
vn 0.05980000 0.99260000 -0.10610000
vn 0.06110000 0.99250000 -0.10570000
vn 0.06200000 0.99260000 -0.10490000
vn 0.06200000 0.99260000 -0.10480000
vn 0.06260000 0.99260000 -0.10360000
vn 0.06250000 0.99270000 -0.10360000
vn 0.06260000 0.99280000 -0.10220000
vn 0.06210000 0.99300000 -0.10090000
vn 0.06110000 0.99320000 -0.09930000
vn 0.06020000 0.99340000 -0.09760000
vn 0.06010000 0.99340000 -0.09770000
vn 0.05920000 0.99360000 -0.09600000
vn 0.05920000 0.99360000 -0.09610000
vn 0.05830000 0.99380000 -0.09440000
vn 0.05740000 0.99400000 -0.09280000
vn 0.05730000 0.99400000 -0.09280000
vn 0.05640000 0.99420000 -0.09120000
vn 0.05550000 0.99440000 -0.08960000
vn 0.05450000 0.99460000 -0.08790000
vn 0.05350000 0.99480000 -0.08630000
vn 0.05360000 0.99480000 -0.08630000
vn 0.05260000 0.99500000 -0.08460000
vn 0.05270000 0.99500000 -0.08470000
vn 0.05170000 0.99520000 -0.08310000
vn 0.05180000 0.99520000 -0.08310000
vn 0.05070000 0.99540000 -0.08150000
vn 0.05070000 0.99540000 -0.08140000
vn 0.04980000 0.99560000 -0.07980000
vn 0.04880000 0.99570000 -0.07820000
vn 0.04790000 0.99590000 -0.07660000
vn 0.04780000 0.99590000 -0.07660000
vn 0.04700000 0.99610000 -0.07490000
vn 0.04690000 0.99610000 -0.07490000
vn 0.04600000 0.99620000 -0.07380000
vn 0.04480000 0.99630000 -0.07310000
vn 0.04350000 0.99640000 -0.07290000
vn 0.04230000 0.99640000 -0.07320000
vn 0.04140000 0.99640000 -0.07410000
vn 0.04100000 0.99630000 -0.07530000
vn 0.04090000 0.99630000 -0.07530000
vn 0.04100000 0.99620000 -0.07670000
vn 0.04110000 0.99620000 -0.07670000
vn 0.04320000 0.99600000 -0.07790000
vn 0.04320000 0.99600000 -0.07800000
vn 0.04470000 0.99560000 -0.08240000
vn 0.04480000 0.99560000 -0.08240000
vn 0.04480000 0.99560000 -0.08250000
vn 0.04250000 0.99600000 -0.07830000
vn 0.04240000 0.99600000 -0.07840000
vn 0.04250000 0.99600000 -0.07840000
vn 0.04770000 0.99510000 -0.08610000
vn 0.04920000 0.99470000 -0.09080000
vn 0.04950000 0.99470000 -0.09070000
vn 0.04930000 0.99470000 -0.09070000
vn 0.04920000 0.99470000 -0.09070000
vn 0.04700000 0.99510000 -0.08660000
vn 0.04720000 0.99510000 -0.08630000
vn 0.04700000 0.99510000 -0.08650000
vn 0.05230000 0.99420000 -0.09440000
vn 0.05140000 0.99420000 -0.09500000
vn 0.05150000 0.99420000 -0.09490000
vn 0.05690000 0.99310000 -0.10270000
vn 0.05870000 0.99310000 -0.10170000
vn 0.05550000 0.99360000 -0.09810000
vn 0.05780000 0.99310000 -0.10220000
vn 0.05780000 0.99310000 -0.10210000
vn 0.06030000 0.99310000 -0.10060000
vn 0.06060000 0.99310000 -0.10060000
vn 0.06050000 0.99310000 -0.10060000
vn 0.05720000 0.99360000 -0.09710000
vn 0.05960000 0.99310000 -0.10110000
vn 0.05400000 0.99470000 -0.08790000
vn 0.05400000 0.99470000 -0.08800000
vn 0.05400000 0.99460000 -0.08810000
vn 0.05410000 0.99470000 -0.08800000
vn 0.05570000 0.99420000 -0.09250000
vn 0.05650000 0.99420000 -0.09210000
vn 0.05640000 0.99420000 -0.09210000
vn 0.05650000 0.99420000 -0.09200000
vn 0.04910000 0.99560000 -0.07990000
vn 0.04900000 0.99560000 -0.07990000
vn 0.04910000 0.99560000 -0.08000000
vn 0.04900000 0.99560000 -0.07980000
vn 0.05070000 0.99510000 -0.08440000
vn 0.05150000 0.99510000 -0.08390000
vn 0.05160000 0.99510000 -0.08390000
vn 0.05130000 0.99510000 -0.08410000
vn 0.04590000 0.99600000 -0.07630000
vn 0.04600000 0.99600000 -0.07640000
vn 0.04590000 0.99600000 -0.07640000
vn 0.04670000 0.99600000 -0.07590000
vn 0.04660000 0.99600000 -0.07600000
vn 0.04660000 0.99600000 -0.07590000
vn 0.04460000 0.99600000 -0.07720000
vn 0.04760000 0.99560000 -0.08110000
vn 0.04520000 0.99600000 -0.07670000
vn 0.04530000 0.99600000 -0.07680000
vn 0.04630000 0.99560000 -0.08170000
vn 0.04400000 0.99600000 -0.07770000
vn 0.04390000 0.99600000 -0.07750000
vn 0.86620000 0.00330000 0.49970000
vn 0.86610000 0.00310000 0.49980000
vn 0.86610000 0.00310000 0.49980000
vn 0.86610000 0.00320000 0.49980000
vn 0.86610000 0.00310000 0.49980000
vn 0.86620000 0.00340000 0.49970000
vn 0.86620000 0.00330000 0.49970000
vn 0.86620000 0.00340000 0.49970000
vn 0.86620000 0.00330000 0.49980000
vn 0.86610000 0.00330000 0.49980000
vn 0.86610000 0.00310000 0.49980000
vn 0.86620000 0.00330000 0.49970000
vn 0.86610000 0.00320000 0.49980000
vn 0.86620000 0.00340000 0.49970000
vn 0.86620000 0.00340000 0.49970000
vn 0.86620000 0.00330000 0.49970000
vn 0.86620000 0.00340000 0.49970000
vn 0.86620000 0.00340000 0.49970000
vn 0.86620000 0.00340000 0.49970000
vn 0.86620000 0.00340000 0.49970000
vn 0.86620000 0.00330000 0.49970000
vn 0.86620000 0.00340000 0.49970000
vn 0.86620000 0.00330000 0.49970000
vn 0.86620000 0.00340000 0.49970000
vn 0.86620000 0.00330000 0.49970000
vn 0.86620000 0.00330000 0.49970000
vn 0.86620000 0.00340000 0.49970000
vn 0.86620000 0.00330000 0.49960000
vn 0.38440000 0.07580000 0.92000000
vn 0.38430000 0.07560000 0.92010000
vn -0.75100000 0.11580000 0.65000000
vn -0.75110000 0.11580000 0.64990000
vn -0.86580000 0.00330000 -0.50040000
vn -0.86580000 0.00330000 -0.50030000
vn -0.86580000 0.00330000 -0.50040000
vn -0.86580000 0.00340000 -0.50040000
vn -0.86580000 0.00330000 -0.50030000
vn -0.86580000 0.00330000 -0.50040000
vn -0.86580000 0.00340000 -0.50040000
vn -0.86580000 0.00330000 -0.50040000
vn -0.86580000 0.00340000 -0.50040000
vn -0.86580000 0.00340000 -0.50040000
vn -0.86580000 0.00340000 -0.50030000
vn -0.86580000 0.00340000 -0.50030000
vn -0.86580000 0.00340000 -0.50040000
vn -0.86580000 0.00350000 -0.50030000
vn -0.86580000 0.00340000 -0.50030000
vn -0.86580000 0.00350000 -0.50030000
vn -0.86580000 0.00340000 -0.50030000
vn -0.86580000 0.00350000 -0.50030000
vn -0.86580000 0.00350000 -0.50040000
vn -0.86580000 0.00340000 -0.50030000
vn -0.86580000 0.00340000 -0.50030000
vn -0.86580000 0.00350000 -0.50030000
vn -0.86590000 0.00340000 -0.50030000
vn -0.86580000 0.00340000 -0.50030000
vn -0.86580000 0.00340000 -0.50030000
vn -0.86590000 0.00340000 -0.50030000
vn -0.86590000 0.00330000 -0.50030000
vn -0.86590000 0.00330000 -0.50030000
vn -0.86590000 0.00320000 -0.50030000
vn -0.86590000 0.00340000 -0.50030000
vn -0.86590000 0.00330000 -0.50030000
vn -0.86590000 0.00320000 -0.50020000
vn -0.86590000 0.00320000 -0.50030000
vn -0.38360000 -0.05110000 -0.92210000
vn -0.38280000 -0.05140000 -0.92240000
vn 0.75250000 -0.08010000 -0.65370000
vn 0.75240000 -0.08010000 -0.65380000
vn 0.86600000 0.00320000 0.50000000
vn 0.86600000 0.00320000 0.50010000
vn 0.86590000 0.00320000 0.50020000
vn 0.99060000 -0.03050000 0.13360000
vn 0.96550000 -0.05900000 -0.25380000
vn 0.79300000 -0.07810000 -0.60420000
vn 0.49860000 -0.08480000 -0.86270000
vn 0.11990000 -0.07650000 -0.98980000
vn -0.26140000 -0.05930000 -0.96340000
vn -0.60520000 -0.03220000 -0.79540000
vn -0.86660000 0.00330000 -0.49900000
vn -0.86590000 0.00320000 -0.50020000
vn -0.86590000 0.00340000 -0.50030000
vn -0.86590000 0.00320000 -0.50020000
vn -0.86590000 0.00330000 -0.50030000
vn -0.86590000 0.00330000 -0.50030000
vn -0.86590000 0.00340000 -0.50030000
vn -0.86590000 0.00340000 -0.50030000
vn -0.86590000 0.00330000 -0.50030000
vn -0.86580000 0.00340000 -0.50030000
vn -0.86590000 0.00340000 -0.50030000
vn -0.86580000 0.00340000 -0.50030000
vn -0.86580000 0.00340000 -0.50030000
vn -0.86580000 0.00350000 -0.50030000
vn -0.86580000 0.00350000 -0.50030000
vn -0.86580000 0.00350000 -0.50030000
vn -0.86580000 0.00350000 -0.50040000
vn -0.86580000 0.00350000 -0.50040000
vn -0.86580000 0.00350000 -0.50030000
vn -0.86580000 0.00340000 -0.50040000
vn -0.86580000 0.00340000 -0.50040000
vn -0.86580000 0.00340000 -0.50040000
vn -0.86580000 0.00340000 -0.50040000
vn -0.86580000 0.00340000 -0.50040000
vn -0.86580000 0.00340000 -0.50040000
vn -0.86580000 0.00330000 -0.50040000
vn -0.86580000 0.00330000 -0.50040000
vn -0.98940000 0.04830000 -0.13720000
vn -0.96450000 0.08700000 0.24940000
vn -0.79240000 0.11310000 0.59950000
vn -0.49530000 0.12230000 0.86010000
vn -0.12290000 0.11300000 0.98600000
vn 0.26620000 0.08690000 0.96000000
vn 0.61360000 0.04830000 0.78810000
vn 0.86620000 0.00330000 0.49960000
vn 0.86620000 0.00330000 0.49960000
vn 0.86620000 0.00330000 0.49960000
vn 0.86620000 0.00330000 0.49970000
vn 0.86620000 0.00340000 0.49970000
vn 0.86620000 0.00340000 0.49970000
vn 0.86620000 0.00330000 0.49970000
vn 0.86620000 0.00330000 0.49970000
vn 0.86620000 0.00340000 0.49970000
vn 0.86620000 0.00340000 0.49970000
vn 0.86620000 0.00340000 0.49970000
vn 0.86620000 0.00340000 0.49970000
vn 0.86620000 0.00340000 0.49970000
vn 0.86620000 0.00340000 0.49970000
vn 0.86620000 0.00340000 0.49970000
vn 0.86620000 0.00340000 0.49970000
vn 0.86620000 0.00330000 0.49980000
vn 0.86620000 0.00340000 0.49970000
vn 0.86620000 0.00330000 0.49980000
vn 0.86610000 0.00330000 0.49980000
vn 0.86610000 0.00330000 0.49980000
vn 0.86610000 0.00310000 0.49980000
vn 0.86610000 0.00330000 0.49980000
vn 0.86610000 0.00320000 0.49980000
vt 0.05018900 0.10781300
vt 0.05018900 0.10781300
vt 0.05018900 0.10781300
vt 0.05018900 0.22019900
vt 0.05018900 0.33425100
vt 0.07928300 0.10781300
vt 0.07928300 0.22019900
vt 0.07928300 0.33425100
vt 0.10834600 0.10781300
vt 0.10834600 0.10781300
vt 0.10834600 0.10781300
vt 0.10834600 0.22019900
vt 0.10834600 0.33425100
vt 0.02102300 0.40035300
vt 0.02102300 0.40035300
vt 0.02204400 0.37698300
vt 0.02302900 0.35376000
vt 0.02398100 0.33067700
vt 0.02490100 0.30773100
vt 0.02579000 0.28492000
vt 0.02579000 0.28492000
vt 0.02665000 0.26224100
vt 0.02748200 0.23969100
vt 0.02828800 0.21726700
vt 0.02828800 0.21726700
vt 0.02906900 0.19496800
vt 0.02906900 0.19496800
vt 0.02982500 0.17279000
vt 0.02982500 0.17279000
vt 0.03055800 0.15073200
vt 0.03055800 0.15073200
vt 0.03127000 0.12879100
vt 0.03127000 0.12879100
vt 0.03196000 0.10696500
vt 0.03196000 0.10696500
vt 0.03263100 0.08525200
vt 0.03263100 0.08525200
vt 0.03263100 0.08525200
vt 0.03328300 0.06365000
vt 0.03391800 0.04215600
vt 0.03391800 0.04215600
vt 0.03777400 0.02589100
vt 0.04775200 0.01225200
vt 0.06228000 0.00316700
vt 0.06228000 0.00316700
vt 0.07923700 0.00000000
vt 0.09617800 0.00316000
vt 0.09617800 0.00316000
vt 0.11065600 0.01224200
vt 0.11065600 0.01224200
vt 0.12058300 0.02588100
vt 0.12442600 0.04214600
vt 0.12506300 0.06363900
vt 0.12571900 0.08524100
vt 0.12571900 0.08524100
vt 0.12639300 0.10695300
vt 0.12639300 0.10695300
vt 0.12708600 0.12877800
vt 0.12780100 0.15071800
vt 0.12780100 0.15071800
vt 0.12853800 0.17277500
vt 0.12929700 0.19495100
vt 0.13008100 0.21724900
vt 0.13089000 0.23967200
vt 0.13089000 0.23967200
vt 0.13172500 0.26222000
vt 0.13172500 0.26222000
vt 0.13258800 0.28489900
vt 0.13258800 0.28489900
vt 0.13348100 0.30770800
vt 0.13348100 0.30770800
vt 0.13440300 0.33065300
vt 0.13535800 0.35373400
vt 0.13634700 0.37695600
vt 0.13634700 0.37695600
vt 0.13737000 0.40032200
vt 0.13737000 0.40032200
vt 0.13361400 0.41870200
vt 0.12153400 0.43394900
vt 0.10279800 0.44440000
vt 0.07934800 0.44830300
vt 0.05624600 0.44456400
vt 0.03701500 0.43397300
vt 0.03701500 0.43397300
vt 0.02469100 0.41839300
vt 0.02469100 0.41839300
vt 0.05018900 0.39127700
vt 0.05018900 0.39127700
vt 0.03558700 0.33425100
vt 0.03558700 0.33425100
vt 0.03558700 0.33425100
vt 0.03558700 0.39127700
vt 0.03558700 0.39127700
vt 0.03558700 0.39127700
vt 0.05018900 0.27722500
vt 0.03558700 0.22019900
vt 0.03558700 0.22019900
vt 0.03558700 0.22019900
vt 0.03558700 0.22019900
vt 0.03558700 0.27722500
vt 0.03558700 0.27722500
vt 0.03558700 0.27722500
vt 0.05018900 0.16400600
vt 0.03558700 0.16400600
vt 0.03558700 0.16400600
vt 0.05018900 0.05390700
vt 0.07928300 0.05390700
vt 0.06473600 0.10781300
vt 0.06473600 0.05390700
vt 0.06473600 0.05390700
vt 0.10834600 0.05390700
vt 0.10834600 0.05390700
vt 0.10834600 0.05390700
vt 0.09381400 0.10781300
vt 0.09381400 0.05390700
vt 0.12287700 0.22019900
vt 0.12287700 0.22019900
vt 0.12287700 0.22019900
vt 0.12287700 0.22019900
vt 0.10834600 0.16400600
vt 0.12287700 0.16400600
vt 0.12287700 0.16400600
vt 0.12287700 0.16400600
vt 0.12287700 0.33425100
vt 0.12287700 0.33425100
vt 0.12287700 0.33425100
vt 0.12287700 0.33425100
vt 0.10834600 0.27722500
vt 0.12287700 0.27722500
vt 0.12287700 0.27722500
vt 0.12287700 0.27722500
vt 0.10834600 0.39127700
vt 0.10834600 0.39127700
vt 0.10834600 0.39127700
vt 0.12287700 0.39127700
vt 0.12287700 0.39127700
vt 0.12287700 0.39127700
vt 0.07928300 0.39127700
vt 0.09381400 0.33425100
vt 0.09381400 0.39127700
vt 0.09381400 0.39127700
vt 0.06473600 0.33425100
vt 0.06473600 0.39127700
vt 0.06473600 0.39127700
vt 0.01955800 0.00000000
vt 0.01955800 0.00000000
vt 0.00977900 0.00000000
vt 0.00977900 0.00000000
vt 0.00000000 0.00000000
vt 0.01955800 0.05476000
vt 0.01955800 0.05476000
vt 0.00977900 0.05476000
vt 0.00977900 0.05476000
vt 0.00977900 0.05476000
vt 0.00977900 0.05476000
vt 0.00977900 0.05476000
vt 0.00977900 0.05476000
vt 0.01955800 0.10979200
vt 0.00977900 0.10979200
vt 0.00977900 0.10979200
vt 0.01955800 0.16429300
vt 0.00977900 0.16429300
vt 0.01955800 0.21906100
vt 0.00977900 0.21906100
vt 0.01955800 0.27382900
vt 0.01955800 0.27382900
vt 0.00977900 0.27382900
vt 0.00977900 0.27382900
vt 0.01955800 0.32859700
vt 0.00977900 0.32859700
vt 0.00977900 0.32859700
vt 0.00977900 0.32859700
vt 0.01955800 0.38410200
vt 0.00977900 0.38410200
vt 0.01955800 0.44026900
vt 0.00977900 0.44026900
vt 0.01955800 0.49660600
vt 0.01955800 0.49660600
vt 0.00977900 0.49660600
vt 0.00977900 0.49660600
vt 0.00977900 0.49660600
vt 0.01955800 0.55125400
vt 0.01955800 0.55125400
vt 0.00977900 0.55125400
vt 0.00977900 0.55125400
vt 0.01955800 0.60639500
vt 0.01955800 0.60639500
vt 0.00977900 0.60639500
vt 0.00977900 0.60639500
vt 0.00977900 0.60639500
vt 0.01955800 0.66078600
vt 0.01955800 0.66078600
vt 0.00977900 0.66078600
vt 0.00977900 0.66078600
vt 0.00977900 0.66078600
vt 0.01955800 0.71555400
vt 0.00977900 0.71555400
vt 0.00977900 0.71555400
vt 0.01955800 0.77032200
vt 0.01955800 0.77032200
vt 0.00977900 0.77032200
vt 0.00977900 0.77032200
vt 0.00977900 0.77032200
vt 0.01955800 0.82509000
vt 0.01955800 0.82509000
vt 0.01955800 0.82509000
vt 0.00977900 0.82509000
vt 0.00977900 0.82509000
vt 0.00977900 0.82509000
vt 0.01955800 0.88270800
vt 0.00977900 0.88270800
vt 0.01955800 0.94231200
vt 0.00977900 0.94231200
vt 0.01955800 0.99853500
vt 0.00977900 0.99853500
vt 0.00000000 0.99853500
vt 0.00000000 0.98076100
vt 0.00000000 0.96298900
vt 0.00000000 0.94520900
vt 0.00000000 0.92742800
vt 0.00000000 0.90826300
vt 0.00000000 0.88909700
vt 0.00000000 0.86993100
vt 0.00000000 0.85076500
vt 0.00000000 0.82863000
vt 0.00000000 0.80649500
vt 0.00000000 0.80649500
vt 0.00000000 0.80649500
vt 0.00000000 0.78436000
vt 0.00000000 0.78436000
vt 0.00000000 0.76222600
vt 0.00000000 0.76222600
vt 0.00000000 0.74009100
vt 0.00000000 0.74009100
vt 0.00000000 0.71795600
vt 0.00000000 0.69582100
vt 0.00000000 0.69582100
vt 0.00000000 0.67368700
vt 0.00000000 0.65155200
vt 0.00000000 0.65155200
vt 0.00000000 0.62941700
vt 0.00000000 0.62941700
vt 0.00000000 0.62941700
vt 0.00000000 0.60728300
vt 0.00000000 0.58514800
vt 0.00000000 0.56301300
vt 0.00000000 0.54087800
vt 0.00000000 0.51874400
vt 0.00000000 0.51874400
vt 0.00000000 0.49660900
vt 0.00000000 0.47881500
vt 0.00000000 0.46102100
vt 0.00000000 0.44320000
vt 0.00000000 0.42537900
vt 0.00000000 0.40756400
vt 0.00000000 0.38974900
vt 0.00000000 0.37195700
vt 0.00000000 0.35416600
vt 0.00000000 0.33203100
vt 0.00000000 0.30989500
vt 0.00000000 0.30989500
vt 0.00000000 0.30989500
vt 0.00000000 0.28776000
vt 0.00000000 0.28776000
vt 0.00000000 0.26562400
vt 0.00000000 0.26562400
vt 0.00000000 0.24348800
vt 0.00000000 0.22135300
vt 0.00000000 0.19921700
vt 0.00000000 0.17708200
vt 0.00000000 0.15494600
vt 0.00000000 0.13281100
vt 0.00000000 0.11067500
vt 0.00000000 0.08854000
vt 0.00000000 0.08854000
vt 0.00000000 0.06640400
vt 0.00000000 0.06640400
vt 0.00000000 0.04426900
vt 0.00000000 0.02213300
vt 0.00000000 0.02213300
vt 0.00000000 0.02213300
f 4/4/4 103/103/103 97/97/97
f 3/3/3 105/105/105 103/103/103
f 5/5/5 95/95/95 90/90/90
f 95/95/95 4/4/4 97/97/97
f 88/88/88 5/5/5 90/90/90
f 6/6/6 107/107/107 108/108/108
f 108/108/108 110/110/110 106/106/106
f 103/103/103 108/108/108 3/3/3
f 108/108/108 7/7/7 6/6/6
f 7/7/7 103/103/103 4/4/4
f 103/103/103 7/7/7 108/108/108
f 142/142/142 95/95/95 5/5/5
f 95/95/95 7/7/7 4/4/4
f 7/7/7 142/142/142 8/8/8
f 142/142/142 7/7/7 95/95/95
f 143/143/143 142/142/142 88/88/88
f 138/138/138 8/8/8 142/142/142
f 11/11/11 111/111/111 114/114/114
f 114/114/114 115/115/115 107/107/107
f 114/114/114 120/120/120 11/11/11
f 120/120/120 7/7/7 12/12/12
f 7/7/7 114/114/114 6/6/6
f 114/114/114 7/7/7 120/120/120
f 128/128/128 139/139/139 13/13/13
f 139/139/139 7/7/7 8/8/8
f 7/7/7 128/128/128 12/12/12
f 128/128/128 7/7/7 139/139/139
f 141/141/141 139/139/139 138/138/138
f 133/133/133 13/13/13 139/139/139
f 119/119/119 122/122/122 12/12/12
f 122/122/122 11/11/11 120/120/120
f 124/124/124 131/131/131 13/13/13
f 131/131/131 119/119/119 12/12/12
f 136/136/136 124/124/124 133/133/133
f 1/1/1 38/38/38 35/35/35
f 106/106/106 41/41/41 39/39/39
f 106/106/106 39/39/39 37/37/37
f 105/105/105 29/29/29 26/26/26
f 105/105/105 33/33/33 31/31/31
f 104/104/104 30/30/30 28/28/28
f 32/32/32 2/2/2 34/34/34
f 43/43/43 42/42/42 106/106/106
f 45/45/45 43/43/43 106/106/106
f 46/46/46 45/45/45 110/110/110
f 33/33/33 105/105/105 1/1/1
f 3/3/3 106/106/106 36/36/36
f 46/46/46 110/110/110 107/107/107
f 109/109/109 44/44/44 106/106/106
f 97/97/97 105/105/105 27/27/27
f 107/107/107 115/115/115 46/46/46
f 106/106/106 42/42/42 40/40/40
f 19/19/19 18/18/18 89/89/89
f 22/22/22 20/20/20 102/102/102
f 21/21/21 19/19/19 102/102/102
f 92/92/92 14/14/14 86/86/86
f 17/17/17 16/16/16 94/94/94
f 17/17/17 91/91/91 18/18/18
f 93/93/93 16/16/16 15/15/15
f 100/100/100 23/23/23 22/22/22
f 23/23/23 100/100/100 99/99/99
f 26/26/26 24/24/24 96/96/96
f 101/101/101 19/19/19 90/90/90
f 17/17/17 92/92/92 89/89/89
f 92/92/92 85/85/85 83/83/83
f 87/87/87 92/92/92 84/84/84
f 82/82/82 144/144/144 87/87/87
f 81/81/81 143/143/143 82/82/82
f 84/84/84 82/82/82 87/87/87
f 25/25/25 23/23/23 98/98/98
f 47/47/47 115/115/115 111/111/111
f 46/46/46 115/115/115 47/47/47
f 50/50/50 48/48/48 113/113/113
f 51/51/51 49/49/49 113/113/113
f 54/54/54 113/113/113 9/9/9
f 62/62/62 123/123/123 117/117/117
f 122/122/122 58/58/58 11/11/11
f 51/51/51 113/113/113 52/52/52
f 112/112/112 53/53/53 52/52/52
f 11/11/11 57/57/57 54/54/54
f 113/113/113 55/55/55 53/53/53
f 123/123/123 60/60/60 58/58/58
f 116/116/116 63/63/63 62/62/62
f 121/121/121 62/62/62 61/61/61
f 123/123/123 61/61/61 59/59/59
f 10/10/10 58/58/58 56/56/56
f 64/64/64 63/63/63 118/118/118
f 81/81/81 141/141/141 138/138/138
f 70/70/70 129/129/129 125/125/125
f 80/80/80 140/140/140 81/81/81
f 79/79/79 137/137/137 132/132/132
f 78/78/78 136/136/136 79/79/79
f 80/80/80 79/79/79 134/134/134
f 80/80/80 132/132/132 141/141/141
f 136/136/136 73/73/73 124/124/124
f 143/143/143 81/81/81 138/138/138
f 66/66/66 130/130/130 68/68/68
f 71/71/71 127/127/127 72/72/72
f 69/69/69 129/129/129 71/71/71
f 136/136/136 75/75/75 73/73/73
f 73/73/73 72/72/72 126/126/126
f 136/136/136 78/78/78 76/76/76
f 74/74/74 135/135/135 77/77/77
f 65/65/65 129/129/129 67/67/67
f 131/131/131 65/65/65 119/119/119
f 156/156/156 151/151/151 145/145/145
f 159/159/159 158/158/158 150/150/150
f 162/162/162 161/161/161 158/158/158
f 164/164/164 163/163/163 161/161/161
f 168/168/168 166/166/166 163/163/163
f 170/170/170 169/169/169 165/165/165
f 174/174/174 173/173/173 172/172/172
f 176/176/176 175/175/175 173/173/173
f 181/181/181 178/178/178 176/176/176
f 185/185/185 183/183/183 180/180/180
f 189/189/189 186/186/186 185/185/185
f 194/194/194 192/192/192 190/190/190
f 197/197/197 196/196/196 193/193/193
f 201/201/201 200/200/200 197/197/197
f 207/207/207 204/204/204 203/203/203
f 211/211/211 210/210/210 209/209/209
f 213/213/213 212/212/212 210/210/210
f 215/215/215 214/214/214 212/212/212
f 147/147/147 149/149/149 279/279/279
f 148/148/148 281/281/281 157/157/157
f 153/153/153 276/276/276 274/274/274
f 277/277/277 154/154/154 278/278/278
f 275/275/275 273/273/273 159/159/159
f 271/271/271 162/162/162 272/272/272
f 164/164/164 267/267/267 168/168/168
f 162/162/162 270/270/270 269/269/269
f 273/273/273 272/272/272 159/159/159
f 172/172/172 258/258/258 174/174/174
f 174/174/174 255/255/255 176/176/176
f 168/168/168 263/263/263 262/262/262
f 176/176/176 252/252/252 181/181/181
f 162/162/162 159/159/159 272/272/272
f 162/162/162 271/271/271 270/270/270
f 164/164/164 269/269/269 268/268/268
f 264/264/264 167/167/167 265/265/265
f 267/267/267 164/164/164 268/268/268
f 172/172/172 259/259/259 258/258/258
f 174/174/174 257/257/257 256/256/256
f 176/176/176 253/253/253 252/252/252
f 253/253/253 176/176/176 254/254/254
f 255/255/255 174/174/174 256/256/256
f 259/259/259 172/172/172 260/260/260
f 251/251/251 250/250/250 181/181/181
f 249/249/249 179/179/179 250/250/250
f 247/247/247 185/185/185 248/248/248
f 249/249/249 184/184/184 179/179/179
f 185/185/185 246/246/246 245/245/245
f 185/185/185 247/247/247 246/246/246
f 189/189/189 245/245/245 244/244/244
f 244/244/244 243/243/243 189/189/189
f 238/238/238 194/194/194 239/239/239
f 197/197/197 233/233/233 201/201/201
f 194/194/194 238/238/238 237/237/237
f 240/240/240 195/195/195 241/241/241
f 209/209/209 224/224/224 211/211/211
f 211/211/211 221/221/221 213/213/213
f 202/202/202 230/230/230 226/226/226
f 213/213/213 218/218/218 215/215/215
f 190/190/190 242/242/242 194/194/194
f 197/197/197 235/235/235 233/233/233
f 235/235/235 197/197/197 236/236/236
f 203/203/203 232/232/232 229/229/229
f 208/208/208 227/227/227 225/225/225
f 211/211/211 222/222/222 221/221/221
f 222/222/222 211/211/211 223/223/223
f 213/213/213 220/220/220 219/219/219
f 215/215/215 217/217/217 216/216/216
f 218/218/218 213/213/213 219/219/219
f 224/224/224 208/208/208 225/225/225
f 103/103/103 105/105/105 97/97/97
f 95/95/95 101/101/101 90/90/90
f 95/95/95 97/97/97 101/101/101
f 88/88/88 90/90/90 94/94/94
f 107/107/107 110/110/110 108/108/108
f 108/108/108 106/106/106 3/3/3
f 142/142/142 5/5/5 88/88/88
f 138/138/138 142/142/142 143/143/143
f 111/111/111 115/115/115 114/114/114
f 114/114/114 107/107/107 6/6/6
f 139/139/139 8/8/8 138/138/138
f 133/133/133 139/139/139 141/141/141
f 122/122/122 120/120/120 12/12/12
f 131/131/131 128/128/128 13/13/13
f 131/131/131 12/12/12 128/128/128
f 124/124/124 13/13/13 133/133/133
f 155/155/155 146/146/146 147/147/147
f 160/160/160 151/151/151 156/156/156
f 162/162/162 158/158/158 159/159/159
f 164/164/164 161/161/161 162/162/162
f 168/168/168 163/163/163 164/164/164
f 171/171/171 166/166/166 168/168/168
f 173/173/173 169/169/169 172/172/172
f 176/176/176 173/173/173 174/174/174
f 178/178/178 175/175/175 176/176/176
f 182/182/182 177/177/177 179/179/179
f 186/186/186 183/183/183 185/185/185
f 191/191/191 187/187/187 188/188/188
f 196/196/196 191/191/191 193/193/193
f 200/200/200 196/196/196 197/197/197
f 206/206/206 199/199/199 202/202/202
f 210/210/210 205/205/205 209/209/209
f 213/213/213 210/210/210 211/211/211
f 215/215/215 212/212/212 213/213/213
f 280/280/280 278/278/278 154/154/154
f 152/152/152 275/275/275 159/159/159
f 267/267/267 266/266/266 168/168/168
f 162/162/162 269/269/269 164/164/164
f 258/258/258 257/257/257 174/174/174
f 255/255/255 254/254/254 176/176/176
f 167/167/167 261/261/261 170/170/170
f 252/252/252 251/251/251 181/181/181
f 185/185/185 245/245/245 189/189/189
f 234/234/234 231/231/231 202/202/202
f 194/194/194 237/237/237 198/198/198
f 224/224/224 223/223/223 211/211/211
f 221/221/221 220/220/220 213/213/213
f 203/203/203 228/228/228 207/207/207
f 218/218/218 217/217/217 215/215/215

