mtllib material.mtl
usemtl Material-7011油漆.005
v 0.03509300 0.02272800 -0.00128000
v 0.03509300 0.02272800 -0.00128000
v 0.03509300 0.02272800 -0.00128000
v 0.03509300 0.02272900 -0.00149200
v 0.03509300 0.02272900 -0.00149200
v 0.03509300 0.02272900 -0.00149200
v 0.03509300 0.02272900 -0.00149200
v 0.03509300 0.02273000 -0.00170400
v 0.03509300 0.02273000 -0.00170400
v 0.03509300 0.02273000 -0.00170400
v 0.03509300 0.02273000 -0.00170400
v 0.03509300 0.02273100 -0.00191600
v 0.03509300 0.02273100 -0.00191600
v 0.03509300 0.02273100 -0.00191600
v 0.03509300 0.02273100 -0.00191600
v 0.03509300 0.02273300 -0.00212800
v 0.03509300 0.02273300 -0.00212800
v 0.03509300 0.02273300 -0.00212800
v 0.03848700 0.02312000 0.00211400
v 0.03848700 0.02312000 0.00211400
v 0.03848700 0.02312000 0.00211400
v 0.03848700 0.02311800 0.00169000
v 0.03848700 0.02311800 0.00169000
v 0.03848700 0.02311800 0.00169000
v 0.03848700 0.02311800 0.00169000
v 0.03848700 0.02311800 0.00169000
v 0.03848700 0.02311800 0.00169000
v 0.03848700 0.02311600 0.00126600
v 0.03848700 0.02311600 0.00126600
v 0.03848700 0.02311600 0.00126600
v 0.03848700 0.02311600 0.00126600
v 0.03848700 0.02311500 0.00084200
v 0.03848700 0.02311500 0.00084200
v 0.03848700 0.02311500 0.00084200
v 0.03848700 0.02311500 0.00084200
v 0.03848700 0.02311400 0.00041700
v 0.03848700 0.02311400 0.00041700
v 0.03848700 0.02311400 0.00041700
v 0.03848700 0.02311400 0.00041700
v 0.03843900 0.02310800 0.00000000
v 0.03843900 0.02310800 0.00000000
v 0.03843900 0.02310800 0.00000000
v 0.03826900 0.02308800 -0.00042300
v 0.03826900 0.02308800 -0.00042300
v 0.03826900 0.02308800 -0.00042300
v 0.03826900 0.02308800 -0.00042300
v 0.03799000 0.02305500 -0.00078300
v 0.03799000 0.02305500 -0.00078300
v 0.03799000 0.02305500 -0.00078300
v 0.03799000 0.02305500 -0.00078300
v 0.03772800 0.02302500 -0.00100000
v 0.03772800 0.02302500 -0.00100000
v 0.03772800 0.02302500 -0.00100000
v 0.03772800 0.02302500 -0.00100000
v 0.03744100 0.02299200 -0.00115600
v 0.03744100 0.02299200 -0.00115600
v 0.03744100 0.02299200 -0.00115600
v 0.03744100 0.02299200 -0.00115600
v 0.03712800 0.02295600 -0.00124900
v 0.03712800 0.02295600 -0.00124900
v 0.03712800 0.02295600 -0.00124900
v 0.03712800 0.02295600 -0.00124900
v 0.03712800 0.02295600 -0.00124900
v 0.03679000 0.02291700 -0.00128000
v 0.03679000 0.02291700 -0.00128000
v 0.03679000 0.02291700 -0.00128000
v 0.03636600 0.02286900 -0.00128000
v 0.03636600 0.02286900 -0.00128000
v 0.03636600 0.02286900 -0.00128000
v 0.03594200 0.02282100 -0.00128000
v 0.03594200 0.02282100 -0.00128000
v 0.03594200 0.02282100 -0.00128000
v 0.03594200 0.02282100 -0.00128000
v 0.03551800 0.02277500 -0.00128000
v 0.03551800 0.02277500 -0.00128000
v 0.03551800 0.02277500 -0.00128000
v 0.03551800 0.02277500 -0.00128000
v 0.03933500 0.02322400 0.00211400
v 0.03933500 0.02322400 0.00211400
v 0.03933500 0.02322400 0.00211400
v 0.03912300 0.02319800 0.00211400
v 0.03912300 0.02319800 0.00211400
v 0.03912300 0.02319800 0.00211400
v 0.03912300 0.02319800 0.00211400
v 0.03891100 0.02317200 0.00211400
v 0.03891100 0.02317200 0.00211400
v 0.03891100 0.02317200 0.00211400
v 0.03891100 0.02317200 0.00211400
v 0.03891100 0.02317200 0.00211400
v 0.03869900 0.02314600 0.00211400
v 0.03869900 0.02314600 0.00211400
v 0.03869900 0.02314600 0.00211400
v 0.03869900 0.02314600 0.00211400
v 0.03551800 0.02277900 -0.00212800
v 0.03551800 0.02277900 -0.00212800
v 0.03551800 0.02277900 -0.00212800
v 0.03551800 0.02277900 -0.00212800
v 0.03594200 0.02282600 -0.00212800
v 0.03594200 0.02282600 -0.00212800
v 0.03594200 0.02282600 -0.00212800
v 0.03636600 0.02287300 -0.00212800
v 0.03636600 0.02287300 -0.00212800
v 0.03636600 0.02287300 -0.00212800
v 0.03679000 0.02292100 -0.00212800
v 0.03679000 0.02292100 -0.00212800
v 0.03679000 0.02292100 -0.00212800
v 0.03729700 0.02298000 -0.00208200
v 0.03729700 0.02298000 -0.00208200
v 0.03729700 0.02298000 -0.00208200
v 0.03729700 0.02298000 -0.00208200
v 0.03776600 0.02303400 -0.00194200
v 0.03776600 0.02303400 -0.00194200
v 0.03776600 0.02303400 -0.00194200
v 0.03819700 0.02308300 -0.00170900
v 0.03819700 0.02308300 -0.00170900
v 0.03819700 0.02308300 -0.00170900
v 0.03819700 0.02308300 -0.00170900
v 0.03859000 0.02312900 -0.00138300
v 0.03859000 0.02312900 -0.00138300
v 0.03859000 0.02312900 -0.00138300
v 0.03859000 0.02312900 -0.00138300
v 0.03885200 0.02315900 -0.00108100
v 0.03885200 0.02315900 -0.00108100
v 0.03885200 0.02315900 -0.00108100
v 0.03906000 0.02318400 -0.00075100
v 0.03906000 0.02318400 -0.00075100
v 0.03906000 0.02318400 -0.00075100
v 0.03906000 0.02318400 -0.00075100
v 0.03921200 0.02320200 -0.00039100
v 0.03921200 0.02320200 -0.00039100
v 0.03921200 0.02320200 -0.00039100
v 0.03930400 0.02321300 0.00000000
v 0.03930400 0.02321300 0.00000000
v 0.03930400 0.02321300 0.00000000
v 0.03930400 0.02321300 0.00000000
v 0.03933500 0.02321700 0.00041700
v 0.03933500 0.02321700 0.00041700
v 0.03933500 0.02321700 0.00041700
v 0.03933500 0.02321700 0.00041700
v 0.03933500 0.02321800 0.00084200
v 0.03933500 0.02321800 0.00084200
v 0.03933500 0.02321800 0.00084200
v 0.03933500 0.02321800 0.00084200
v 0.03933500 0.02321900 0.00126600
v 0.03933500 0.02321900 0.00126600
v 0.03933500 0.02321900 0.00126600
v 0.03933500 0.02321900 0.00126600
v 0.03933500 0.02322100 0.00169000
v 0.03933500 0.02322100 0.00169000
v 0.03933500 0.02322100 0.00169000
v 0.03933500 0.02322100 0.00169000
v 0.03514700 0.02223100 -0.00128200
v 0.03514700 0.02223100 -0.00128200
v 0.03514700 0.02223100 -0.00128200
v 0.03509300 0.02272800 -0.00128000
v 0.03509300 0.02272800 -0.00128000
v 0.03509300 0.02272800 -0.00128000
v 0.03514700 0.02223300 -0.00170700
v 0.03514700 0.02223300 -0.00170700
v 0.03514700 0.02223300 -0.00170700
v 0.03514700 0.02223300 -0.00170700
v 0.03514700 0.02223300 -0.00170700
v 0.03514700 0.02223500 -0.00213200
v 0.03514700 0.02223500 -0.00213200
v 0.03514700 0.02223500 -0.00213200
v 0.03509300 0.02273200 -0.00212800
v 0.03509300 0.02273200 -0.00212800
v 0.03509300 0.02273200 -0.00212800
v 0.03509300 0.02273100 -0.00191600
v 0.03509300 0.02273100 -0.00191600
v 0.03509300 0.02273100 -0.00191600
v 0.03509300 0.02273100 -0.00191600
v 0.03509300 0.02273000 -0.00170400
v 0.03509300 0.02273000 -0.00170400
v 0.03509300 0.02273000 -0.00170400
v 0.03509300 0.02273000 -0.00170400
v 0.03509300 0.02272900 -0.00149200
v 0.03509300 0.02272900 -0.00149200
v 0.03509300 0.02272900 -0.00149200
v 0.03512000 0.02248400 -0.00213000
v 0.03512000 0.02248400 -0.00213000
v 0.03512000 0.02248400 -0.00213000
v 0.03512000 0.02248400 -0.00213000
v 0.03512000 0.02247900 -0.00128100
v 0.03512000 0.02247900 -0.00128100
v 0.03512000 0.02247900 -0.00128100
v 0.03854600 0.02262300 0.00211800
v 0.03854600 0.02262300 0.00211800
v 0.03854600 0.02262300 0.00211800
v 0.03848600 0.02312000 0.00211400
v 0.03848600 0.02312000 0.00211400
v 0.03848600 0.02312000 0.00211400
v 0.03854600 0.02261900 0.00124700
v 0.03854600 0.02261900 0.00124700
v 0.03854600 0.02261900 0.00124700
v 0.03854600 0.02261900 0.00124700
v 0.03854600 0.02261900 0.00124700
v 0.03854600 0.02261900 0.00124700
v 0.03854600 0.02261700 0.00039300
v 0.03831300 0.02258900 -0.00044900
v 0.03772000 0.02252000 -0.00104500
v 0.03684700 0.02242000 -0.00128100
v 0.03684700 0.02242000 -0.00128100
v 0.03684700 0.02242000 -0.00128100
v 0.03601300 0.02232600 -0.00128100
v 0.03601300 0.02232600 -0.00128100
v 0.03601300 0.02232600 -0.00128100
v 0.03514700 0.02223100 -0.00128100
v 0.03514700 0.02223100 -0.00128100
v 0.03514700 0.02223100 -0.00128100
v 0.03509300 0.02272800 -0.00127900
v 0.03509300 0.02272800 -0.00127900
v 0.03509300 0.02272800 -0.00127900
v 0.03551800 0.02277400 -0.00127900
v 0.03551800 0.02277400 -0.00127900
v 0.03551800 0.02277400 -0.00127900
v 0.03594200 0.02282100 -0.00127900
v 0.03594200 0.02282100 -0.00127900
v 0.03594200 0.02282100 -0.00127900
v 0.03636600 0.02286800 -0.00127900
v 0.03636600 0.02286800 -0.00127900
v 0.03636600 0.02286800 -0.00127900
v 0.03679000 0.02291600 -0.00127900
v 0.03679000 0.02291600 -0.00127900
v 0.03679000 0.02291600 -0.00127900
v 0.03712800 0.02295500 -0.00124800
v 0.03744100 0.02299100 -0.00115500
v 0.03772800 0.02302400 -0.00100000
v 0.03799000 0.02305500 -0.00078200
v 0.03826900 0.02308700 -0.00042300
v 0.03843800 0.02310700 0.00000000
v 0.03848600 0.02311300 0.00041700
v 0.03848600 0.02311400 0.00084200
v 0.03848600 0.02311400 0.00084200
v 0.03848600 0.02311400 0.00084200
v 0.03848600 0.02311500 0.00126600
v 0.03848600 0.02311500 0.00126600
v 0.03848600 0.02311500 0.00126600
v 0.03848600 0.02311500 0.00126600
v 0.03848600 0.02311700 0.00169000
v 0.03848600 0.02311700 0.00169000
v 0.03848600 0.02311700 0.00169000
v 0.03848600 0.02311700 0.00169000
v 0.03848600 0.02311700 0.00169000
v 0.03512000 0.02247900 -0.00128000
v 0.03512000 0.02247900 -0.00128000
v 0.03512000 0.02247900 -0.00128000
v 0.03851600 0.02287200 0.00211600
v 0.03851600 0.02287200 0.00211600
v 0.03851600 0.02287200 0.00211600
v 0.03851600 0.02287200 0.00211600
v 0.03939700 0.02272700 0.00211800
v 0.03939700 0.02272700 0.00211800
v 0.03939700 0.02272700 0.00211800
v 0.03933500 0.02322300 0.00211500
v 0.03933500 0.02322300 0.00211500
v 0.03933500 0.02322300 0.00211500
v 0.03897200 0.02267500 0.00211800
v 0.03897200 0.02267500 0.00211800
v 0.03897200 0.02267500 0.00211800
v 0.03854700 0.02262300 0.00211800
v 0.03854700 0.02262300 0.00211800
v 0.03854700 0.02262300 0.00211800
v 0.03848700 0.02312000 0.00211500
v 0.03848700 0.02312000 0.00211500
v 0.03848700 0.02312000 0.00211500
v 0.03869900 0.02314600 0.00211500
v 0.03869900 0.02314600 0.00211500
v 0.03869900 0.02314600 0.00211500
v 0.03891100 0.02317100 0.00211500
v 0.03891100 0.02317100 0.00211500
v 0.03891100 0.02317100 0.00211500
v 0.03912300 0.02319700 0.00211500
v 0.03912300 0.02319700 0.00211500
v 0.03912300 0.02319700 0.00211500
v 0.03851700 0.02287200 0.00211600
v 0.03851700 0.02287200 0.00211600
v 0.03936600 0.02297500 0.00211600
v 0.03936600 0.02297500 0.00211600
v 0.03936600 0.02297500 0.00211600
v 0.03514700 0.02223500 -0.00213200
v 0.03514700 0.02223500 -0.00213200
v 0.03514700 0.02223500 -0.00213200
v 0.03509300 0.02273200 -0.00212900
v 0.03509300 0.02273200 -0.00212900
v 0.03509300 0.02273200 -0.00212900
v 0.03607100 0.02233700 -0.00213200
v 0.03607100 0.02233700 -0.00213200
v 0.03607100 0.02233700 -0.00213200
v 0.03604300 0.02258500 -0.00213000
v 0.03697200 0.02243900 -0.00212900
v 0.03694400 0.02268700 -0.00212800
v 0.03788200 0.02254300 -0.00192200
v 0.03785300 0.02279100 -0.00192000
v 0.03865000 0.02263200 -0.00138500
v 0.03862000 0.02288000 -0.00138400
v 0.03917500 0.02269300 -0.00064300
v 0.03914400 0.02294200 -0.00064300
v 0.03939300 0.02272000 0.00025900
v 0.03936200 0.02296800 0.00025900
v 0.03939700 0.02272200 0.00118800
v 0.03939700 0.02272200 0.00118800
v 0.03939700 0.02272200 0.00118800
v 0.03939700 0.02272200 0.00118800
v 0.03936600 0.02297000 0.00118700
v 0.03936600 0.02297000 0.00118700
v 0.03936600 0.02297000 0.00118700
v 0.03936600 0.02297000 0.00118700
v 0.03939700 0.02272700 0.00211800
v 0.03939700 0.02272700 0.00211800
v 0.03939700 0.02272700 0.00211800
v 0.03933600 0.02322300 0.00211400
v 0.03933600 0.02322300 0.00211400
v 0.03933600 0.02322300 0.00211400
v 0.03933600 0.02322100 0.00169000
v 0.03933600 0.02322100 0.00169000
v 0.03933600 0.02322100 0.00169000
v 0.03933600 0.02322100 0.00169000
v 0.03933600 0.02322100 0.00169000
v 0.03933600 0.02321900 0.00126600
v 0.03933600 0.02321900 0.00126600
v 0.03933600 0.02321900 0.00126600
v 0.03933600 0.02321900 0.00126600
v 0.03933600 0.02321700 0.00084200
v 0.03933600 0.02321700 0.00084200
v 0.03933600 0.02321700 0.00084200
v 0.03933600 0.02321700 0.00041700
v 0.03930500 0.02321200 -0.00000000
v 0.03921200 0.02320100 -0.00039100
v 0.03906000 0.02318300 -0.00075100
v 0.03885200 0.02315900 -0.00108100
v 0.03859000 0.02312800 -0.00138300
v 0.03819800 0.02308300 -0.00171000
v 0.03776700 0.02303300 -0.00194300
v 0.03729700 0.02297900 -0.00208200
v 0.03679000 0.02292100 -0.00212900
v 0.03636600 0.02287300 -0.00212900
v 0.03636600 0.02287300 -0.00212900
v 0.03636600 0.02287300 -0.00212900
v 0.03594200 0.02282500 -0.00212900
v 0.03594200 0.02282500 -0.00212900
v 0.03594200 0.02282500 -0.00212900
v 0.03551800 0.02277900 -0.00212900
v 0.03551800 0.02277900 -0.00212900
v 0.03551800 0.02277900 -0.00212900
v 0.03512000 0.02248400 -0.00213000
v 0.03512000 0.02248400 -0.00213000
v 0.03936600 0.02297500 0.00211600
v 0.03936600 0.02297500 0.00211600
v 0.03936600 0.02297500 0.00211600
v 0.03936600 0.02297500 0.00211600
v 0.03936600 0.02297500 0.00211600
v 0.03509300 0.02272700 -0.00128000
v 0.03509300 0.02272700 -0.00128000
v 0.03509300 0.02272700 -0.00128000
v 0.03509300 0.02272800 -0.00149200
v 0.03509300 0.02272800 -0.00149200
v 0.03509300 0.02272800 -0.00149200
v 0.03509300 0.02272800 -0.00149200
v 0.03509300 0.02272900 -0.00170400
v 0.03509300 0.02272900 -0.00170400
v 0.03509300 0.02272900 -0.00170400
v 0.03509300 0.02272900 -0.00170400
v 0.03509300 0.02272900 -0.00170400
v 0.03509300 0.02273000 -0.00191600
v 0.03509300 0.02273000 -0.00191600
v 0.03509300 0.02273000 -0.00191600
v 0.03509300 0.02273000 -0.00191600
v 0.03509300 0.02273200 -0.00212800
v 0.03509300 0.02273200 -0.00212800
v 0.03509300 0.02273200 -0.00212800
v 0.03848700 0.02311900 0.00211400
v 0.03848700 0.02311900 0.00211400
v 0.03848700 0.02311900 0.00211400
v 0.03848700 0.02311700 0.00169000
v 0.03848700 0.02311700 0.00169000
v 0.03848700 0.02311700 0.00169000
v 0.03848700 0.02311700 0.00169000
v 0.03848700 0.02311700 0.00169000
v 0.03848700 0.02311700 0.00169000
v 0.03848700 0.02311700 0.00169000
v 0.03848700 0.02311500 0.00126600
v 0.03848700 0.02311500 0.00126600
v 0.03848700 0.02311500 0.00126600
v 0.03848700 0.02311500 0.00126600
v 0.03848700 0.02311500 0.00126600
v 0.03848700 0.02311400 0.00084200
v 0.03848700 0.02311400 0.00084200
v 0.03848700 0.02311400 0.00084200
v 0.03848700 0.02311400 0.00084200
v 0.03848700 0.02311400 0.00084200
v 0.03848700 0.02311300 0.00041700
v 0.03848700 0.02311300 0.00041700
v 0.03848700 0.02311300 0.00041700
v 0.03848700 0.02311300 0.00041700
v 0.03848700 0.02311300 0.00041700
v 0.03843900 0.02310700 0.00000000
v 0.03843900 0.02310700 0.00000000
v 0.03843900 0.02310700 0.00000000
v 0.03843900 0.02310700 0.00000000
v 0.03843900 0.02310700 0.00000000
v 0.03826900 0.02308700 -0.00042300
v 0.03826900 0.02308700 -0.00042300
v 0.03826900 0.02308700 -0.00042300
v 0.03826900 0.02308700 -0.00042300
v 0.03826900 0.02308700 -0.00042300
v 0.03826900 0.02308700 -0.00042300
v 0.03799000 0.02305400 -0.00078300
v 0.03799000 0.02305400 -0.00078300
v 0.03799000 0.02305400 -0.00078300
v 0.03799000 0.02305400 -0.00078300
v 0.03799000 0.02305400 -0.00078300
v 0.03799000 0.02305400 -0.00078300
v 0.03772800 0.02302400 -0.00100000
v 0.03772800 0.02302400 -0.00100000
v 0.03772800 0.02302400 -0.00100000
v 0.03772800 0.02302400 -0.00100000
v 0.03772800 0.02302400 -0.00100000
v 0.03744100 0.02299100 -0.00115600
v 0.03744100 0.02299100 -0.00115600
v 0.03744100 0.02299100 -0.00115600
v 0.03744100 0.02299100 -0.00115600
v 0.03744100 0.02299100 -0.00115600
v 0.03712800 0.02295500 -0.00124900
v 0.03712800 0.02295500 -0.00124900
v 0.03712800 0.02295500 -0.00124900
v 0.03712800 0.02295500 -0.00124900
v 0.03712800 0.02295500 -0.00124900
v 0.03679000 0.02291600 -0.00128000
v 0.03679000 0.02291600 -0.00128000
v 0.03679000 0.02291600 -0.00128000
v 0.03679000 0.02291600 -0.00128000
v 0.03679000 0.02291600 -0.00128000
v 0.03636600 0.02286800 -0.00128000
v 0.03636600 0.02286800 -0.00128000
v 0.03636600 0.02286800 -0.00128000
v 0.03636600 0.02286800 -0.00128000
v 0.03594200 0.02282000 -0.00128000
v 0.03594200 0.02282000 -0.00128000
v 0.03594200 0.02282000 -0.00128000
v 0.03594200 0.02282000 -0.00128000
v 0.03594200 0.02282000 -0.00128000
v 0.03551800 0.02277400 -0.00128000
v 0.03551800 0.02277400 -0.00128000
v 0.03551800 0.02277400 -0.00128000
v 0.03551800 0.02277400 -0.00128000
v 0.03551800 0.02277400 -0.00128000
v 0.03551800 0.02277400 -0.00128000
v 0.03551800 0.02277400 -0.00128000
v 0.03933500 0.02322300 0.00211400
v 0.03933500 0.02322300 0.00211400
v 0.03933500 0.02322300 0.00211400
v 0.03912300 0.02319700 0.00211400
v 0.03912300 0.02319700 0.00211400
v 0.03912300 0.02319700 0.00211400
v 0.03912300 0.02319700 0.00211400
v 0.03891100 0.02317100 0.00211400
v 0.03891100 0.02317100 0.00211400
v 0.03891100 0.02317100 0.00211400
v 0.03891100 0.02317100 0.00211400
v 0.03891100 0.02317100 0.00211400
v 0.03869900 0.02314500 0.00211400
v 0.03869900 0.02314500 0.00211400
v 0.03869900 0.02314500 0.00211400
v 0.03869900 0.02314500 0.00211400
v 0.03551800 0.02277800 -0.00212800
v 0.03551800 0.02277800 -0.00212800
v 0.03551800 0.02277800 -0.00212800
v 0.03551800 0.02277800 -0.00212800
v 0.03551800 0.02277800 -0.00212800
v 0.03551800 0.02277800 -0.00212800
v 0.03594200 0.02282500 -0.00212800
v 0.03594200 0.02282500 -0.00212800
v 0.03594200 0.02282500 -0.00212800
v 0.03594200 0.02282500 -0.00212800
v 0.03594200 0.02282500 -0.00212800
v 0.03636600 0.02287200 -0.00212800
v 0.03636600 0.02287200 -0.00212800
v 0.03636600 0.02287200 -0.00212800
v 0.03636600 0.02287200 -0.00212800
v 0.03636600 0.02287200 -0.00212800
v 0.03636600 0.02287200 -0.00212800
v 0.03679000 0.02292000 -0.00212800
v 0.03679000 0.02292000 -0.00212800
v 0.03679000 0.02292000 -0.00212800
v 0.03679000 0.02292000 -0.00212800
v 0.03679000 0.02292000 -0.00212800
v 0.03729700 0.02297900 -0.00208200
v 0.03729700 0.02297900 -0.00208200
v 0.03729700 0.02297900 -0.00208200
v 0.03729700 0.02297900 -0.00208200
v 0.03729700 0.02297900 -0.00208200
v 0.03776600 0.02303300 -0.00194200
v 0.03776600 0.02303300 -0.00194200
v 0.03776600 0.02303300 -0.00194200
v 0.03776600 0.02303300 -0.00194200
v 0.03776600 0.02303300 -0.00194200
v 0.03819700 0.02308200 -0.00170900
v 0.03819700 0.02308200 -0.00170900
v 0.03819700 0.02308200 -0.00170900
v 0.03819700 0.02308200 -0.00170900
v 0.03819700 0.02308200 -0.00170900
v 0.03859000 0.02312800 -0.00138300
v 0.03859000 0.02312800 -0.00138300
v 0.03859000 0.02312800 -0.00138300
v 0.03859000 0.02312800 -0.00138300
v 0.03885200 0.02315800 -0.00108100
v 0.03885200 0.02315800 -0.00108100
v 0.03885200 0.02315800 -0.00108100
v 0.03885200 0.02315800 -0.00108100
v 0.03885200 0.02315800 -0.00108100
v 0.03906000 0.02318300 -0.00075100
v 0.03906000 0.02318300 -0.00075100
v 0.03906000 0.02318300 -0.00075100
v 0.03906000 0.02318300 -0.00075100
v 0.03921200 0.02320100 -0.00039100
v 0.03921200 0.02320100 -0.00039100
v 0.03921200 0.02320100 -0.00039100
v 0.03921200 0.02320100 -0.00039100
v 0.03921200 0.02320100 -0.00039100
v 0.03930400 0.02321200 0.00000000
v 0.03930400 0.02321200 0.00000000
v 0.03930400 0.02321200 0.00000000
v 0.03930400 0.02321200 0.00000000
v 0.03930400 0.02321200 0.00000000
v 0.03933500 0.02321600 0.00041700
v 0.03933500 0.02321600 0.00041700
v 0.03933500 0.02321600 0.00041700
v 0.03933500 0.02321600 0.00041700
v 0.03933500 0.02321600 0.00041700
v 0.03933500 0.02321700 0.00084200
v 0.03933500 0.02321700 0.00084200
v 0.03933500 0.02321700 0.00084200
v 0.03933500 0.02321700 0.00084200
v 0.03933500 0.02321700 0.00084200
v 0.03933500 0.02321800 0.00126600
v 0.03933500 0.02321800 0.00126600
v 0.03933500 0.02321800 0.00126600
v 0.03933500 0.02321800 0.00126600
v 0.03933500 0.02321800 0.00126600
v 0.03933500 0.02322000 0.00169000
v 0.03933500 0.02322000 0.00169000
v 0.03933500 0.02322000 0.00169000
v 0.03933500 0.02322000 0.00169000
v 0.03933500 0.02322000 0.00169000
v 0.03933500 0.02322000 0.00169000
v 0.03514800 0.02223100 -0.00128200
v 0.03514800 0.02223100 -0.00128200
v 0.03514800 0.02223100 -0.00128200
v 0.03509400 0.02272800 -0.00128000
v 0.03509400 0.02272800 -0.00128000
v 0.03509400 0.02272800 -0.00128000
v 0.03514800 0.02223300 -0.00170700
v 0.03514800 0.02223300 -0.00170700
v 0.03514800 0.02223300 -0.00170700
v 0.03514800 0.02223300 -0.00170700
v 0.03514800 0.02223300 -0.00170700
v 0.03514800 0.02223500 -0.00213200
v 0.03514800 0.02223500 -0.00213200
v 0.03514800 0.02223500 -0.00213200
v 0.03509400 0.02273200 -0.00212800
v 0.03509400 0.02273200 -0.00212800
v 0.03509400 0.02273200 -0.00212800
v 0.03509400 0.02273100 -0.00191600
v 0.03509400 0.02273100 -0.00191600
v 0.03509400 0.02273100 -0.00191600
v 0.03509400 0.02273100 -0.00191600
v 0.03509400 0.02273000 -0.00170400
v 0.03509400 0.02273000 -0.00170400
v 0.03509400 0.02273000 -0.00170400
v 0.03509400 0.02273000 -0.00170400
v 0.03509400 0.02272900 -0.00149200
v 0.03509400 0.02272900 -0.00149200
v 0.03509400 0.02272900 -0.00149200
v 0.03509400 0.02272900 -0.00149200
v 0.03512100 0.02248400 -0.00213000
v 0.03512100 0.02248400 -0.00213000
v 0.03512100 0.02248400 -0.00213000
v 0.03512100 0.02248400 -0.00213000
v 0.03512100 0.02247900 -0.00128100
v 0.03512100 0.02247900 -0.00128100
v 0.03512100 0.02247900 -0.00128100
v 0.03512100 0.02247900 -0.00128100
v 0.03854700 0.02262400 0.00211800
v 0.03854700 0.02262400 0.00211800
v 0.03854700 0.02262400 0.00211800
v 0.03848700 0.02312000 0.00211400
v 0.03848700 0.02312000 0.00211400
v 0.03848700 0.02312000 0.00211400
v 0.03854700 0.02261900 0.00124700
v 0.03854700 0.02261900 0.00124700
v 0.03854700 0.02261900 0.00124700
v 0.03854700 0.02261900 0.00124700
v 0.03854700 0.02261900 0.00124700
v 0.03854700 0.02261900 0.00124700
v 0.03854700 0.02261700 0.00039300
v 0.03831400 0.02258900 -0.00045000
v 0.03772000 0.02252000 -0.00104600
v 0.03684700 0.02242000 -0.00128200
v 0.03684700 0.02242000 -0.00128200
v 0.03684700 0.02242000 -0.00128200
v 0.03601300 0.02232600 -0.00128200
v 0.03601300 0.02232600 -0.00128200
v 0.03601300 0.02232600 -0.00128200
v 0.03514700 0.02223100 -0.00128200
v 0.03514700 0.02223100 -0.00128200
v 0.03514700 0.02223100 -0.00128200
v 0.03509300 0.02272800 -0.00128000
v 0.03509300 0.02272800 -0.00128000
v 0.03509300 0.02272800 -0.00128000
v 0.03551800 0.02277400 -0.00128000
v 0.03551800 0.02277400 -0.00128000
v 0.03551800 0.02277400 -0.00128000
v 0.03594200 0.02282100 -0.00128000
v 0.03594200 0.02282100 -0.00128000
v 0.03594200 0.02282100 -0.00128000
v 0.03636600 0.02286800 -0.00128000
v 0.03636600 0.02286800 -0.00128000
v 0.03636600 0.02286800 -0.00128000
v 0.03679000 0.02291600 -0.00128000
v 0.03679000 0.02291600 -0.00128000
v 0.03679000 0.02291600 -0.00128000
v 0.03712800 0.02295500 -0.00124900
v 0.03744100 0.02299100 -0.00115600
v 0.03772900 0.02302400 -0.00100100
v 0.03799000 0.02305500 -0.00078300
v 0.03827000 0.02308700 -0.00042300
v 0.03843900 0.02310700 -0.00000000
v 0.03848700 0.02311300 0.00041700
v 0.03848700 0.02311400 0.00084200
v 0.03848700 0.02311400 0.00084200
v 0.03848700 0.02311400 0.00084200
v 0.03848700 0.02311500 0.00126600
v 0.03848700 0.02311500 0.00126600
v 0.03848700 0.02311500 0.00126600
v 0.03848700 0.02311500 0.00126600
v 0.03848700 0.02311700 0.00169000
v 0.03848700 0.02311700 0.00169000
v 0.03848700 0.02311700 0.00169000
v 0.03848700 0.02311700 0.00169000
v 0.03848700 0.02311700 0.00169000
v 0.03512000 0.02247900 -0.00128100
v 0.03512000 0.02247900 -0.00128100
v 0.03512000 0.02247900 -0.00128100
v 0.03851700 0.02287200 0.00211600
v 0.03851700 0.02287200 0.00211600
v 0.03851700 0.02287200 0.00211600
v 0.03851700 0.02287200 0.00211600
v 0.03939700 0.02272700 0.00211700
v 0.03939700 0.02272700 0.00211700
v 0.03939700 0.02272700 0.00211700
v 0.03933500 0.02322300 0.00211400
v 0.03933500 0.02322300 0.00211400
v 0.03933500 0.02322300 0.00211400
v 0.03897200 0.02267500 0.00211700
v 0.03897200 0.02267500 0.00211700
v 0.03897200 0.02267500 0.00211700
v 0.03854700 0.02262300 0.00211700
v 0.03854700 0.02262300 0.00211700
v 0.03854700 0.02262300 0.00211700
v 0.03848700 0.02312000 0.00211400
v 0.03848700 0.02312000 0.00211400
v 0.03848700 0.02312000 0.00211400
v 0.03869900 0.02314600 0.00211400
v 0.03869900 0.02314600 0.00211400
v 0.03869900 0.02314600 0.00211400
v 0.03891100 0.02317100 0.00211400
v 0.03891100 0.02317100 0.00211400
v 0.03891100 0.02317100 0.00211400
v 0.03912300 0.02319700 0.00211400
v 0.03912300 0.02319700 0.00211400
v 0.03912300 0.02319700 0.00211400
v 0.03851700 0.02287200 0.00211500
v 0.03851700 0.02287200 0.00211500
v 0.03936600 0.02297500 0.00211500
v 0.03936600 0.02297500 0.00211500
v 0.03936600 0.02297500 0.00211500
v 0.03514700 0.02223500 -0.00213100
v 0.03514700 0.02223500 -0.00213100
v 0.03514700 0.02223500 -0.00213100
v 0.03509300 0.02273200 -0.00212800
v 0.03509300 0.02273200 -0.00212800
v 0.03509300 0.02273200 -0.00212800
v 0.03607100 0.02233700 -0.00213100
v 0.03607100 0.02233700 -0.00213100
v 0.03607100 0.02233700 -0.00213100
v 0.03604300 0.02258500 -0.00212900
v 0.03604300 0.02258500 -0.00212900
v 0.03697200 0.02243900 -0.00212800
v 0.03694400 0.02268700 -0.00212700
v 0.03788100 0.02254300 -0.00192100
v 0.03785200 0.02279100 -0.00191900
v 0.03865000 0.02263200 -0.00138500
v 0.03862000 0.02288000 -0.00138400
v 0.03917400 0.02269300 -0.00064300
v 0.03914300 0.02294100 -0.00064200
v 0.03939200 0.02272000 0.00025900
v 0.03936100 0.02296800 0.00025900
v 0.03939600 0.02272200 0.00118800
v 0.03939600 0.02272200 0.00118800
v 0.03939600 0.02272200 0.00118800
v 0.03939600 0.02272200 0.00118800
v 0.03936500 0.02297000 0.00118700
v 0.03936500 0.02297000 0.00118700
v 0.03936500 0.02297000 0.00118700
v 0.03936500 0.02297000 0.00118700
v 0.03936500 0.02297000 0.00118700
v 0.03939600 0.02272700 0.00211800
v 0.03939600 0.02272700 0.00211800
v 0.03939600 0.02272700 0.00211800
v 0.03933500 0.02322300 0.00211400
v 0.03933500 0.02322300 0.00211400
v 0.03933500 0.02322300 0.00211400
v 0.03933500 0.02322100 0.00169000
v 0.03933500 0.02322100 0.00169000
v 0.03933500 0.02322100 0.00169000
v 0.03933500 0.02322100 0.00169000
v 0.03933500 0.02322100 0.00169000
v 0.03933500 0.02321900 0.00126600
v 0.03933500 0.02321900 0.00126600
v 0.03933500 0.02321900 0.00126600
v 0.03933500 0.02321900 0.00126600
v 0.03933500 0.02321700 0.00084200
v 0.03933500 0.02321700 0.00084200
v 0.03933500 0.02321700 0.00084200
v 0.03933500 0.02321600 0.00041700
v 0.03930400 0.02321200 0.00000000
v 0.03921100 0.02320100 -0.00039000
v 0.03906000 0.02318300 -0.00075000
v 0.03885200 0.02315900 -0.00108100
v 0.03859000 0.02312800 -0.00138300
v 0.03819700 0.02308300 -0.00170900
v 0.03776600 0.02303300 -0.00194200
v 0.03729700 0.02297900 -0.00208100
v 0.03679000 0.02292100 -0.00212800
v 0.03636600 0.02287300 -0.00212800
v 0.03636600 0.02287300 -0.00212800
v 0.03636600 0.02287300 -0.00212800
v 0.03594200 0.02282500 -0.00212800
v 0.03594200 0.02282500 -0.00212800
v 0.03594200 0.02282500 -0.00212800
v 0.03551800 0.02277900 -0.00212800
v 0.03551800 0.02277900 -0.00212800
v 0.03551800 0.02277900 -0.00212800
v 0.03512000 0.02248400 -0.00212900
v 0.03512000 0.02248400 -0.00212900
v 0.03936500 0.02297500 0.00211600
v 0.03936500 0.02297500 0.00211600
v 0.03936500 0.02297500 0.00211600
v 0.03936500 0.02297500 0.00211600
v 0.03936500 0.02297500 0.00211600
vn 0.00080000 -0.00520000 1.00000000
vn -0.10760000 0.99420000 0.00400000
vn -0.99400000 -0.10940000 -0.00110000
vn -0.99440000 -0.10540000 -0.00140000
vn -0.10760000 0.99420000 0.00460000
vn -0.10760000 0.99420000 0.00450000
vn -0.99400000 -0.10910000 0.00020000
vn -0.99450000 -0.10440000 0.00050000
vn -0.10750000 0.99420000 0.00530000
vn -0.10750000 0.99420000 0.00520000
vn -0.99390000 -0.11070000 -0.00160000
vn -0.10750000 0.99420000 0.00590000
vn -0.99400000 -0.10910000 -0.00150000
vn -0.99370000 -0.11180000 0.00040000
vn -0.10750000 0.99420000 0.00580000
vn -0.00030000 0.00510000 -1.00000000
vn -0.10760000 0.99420000 0.00650000
vn -0.99400000 -0.10940000 0.00000000
vn -0.00000000 0.00530000 1.00000000
vn -0.11950000 0.99280000 -0.00650000
vn -0.99270000 -0.12060000 0.00040000
vn -0.99280000 -0.12000000 0.00130000
vn -0.11950000 0.99280000 -0.00520000
vn -0.11960000 0.99280000 -0.00540000
vn -0.11950000 0.99280000 -0.00530000
vn -0.11960000 0.99280000 -0.00520000
vn -0.99220000 -0.12430000 -0.00100000
vn -0.11940000 0.99280000 -0.00400000
vn -0.99210000 -0.12500000 0.00210000
vn -0.99220000 -0.12430000 -0.00130000
vn -0.11940000 0.99280000 -0.00390000
vn -0.99220000 -0.12500000 0.00190000
vn -0.11950000 0.99280000 -0.00260000
vn -0.99220000 -0.12430000 -0.00130000
vn -0.11960000 0.99280000 -0.00260000
vn -0.11960000 0.99280000 -0.00130000
vn -0.98610000 -0.12150000 0.11330000
vn -0.99220000 -0.12500000 0.00170000
vn -0.11950000 0.99280000 -0.00130000
vn -0.98570000 -0.12180000 0.11630000
vn -0.11930000 0.99290000 0.00000000
vn -0.92010000 -0.11620000 0.37400000
vn -0.91900000 -0.11550000 0.37690000
vn -0.11870000 0.99290000 0.00120000
vn -0.11870000 0.99290000 0.00130000
vn -0.78300000 -0.09440000 0.61480000
vn -0.11770000 0.99300000 0.00240000
vn -0.78120000 -0.09390000 0.61720000
vn -0.63370000 -0.07720000 0.76970000
vn -0.11770000 0.99300000 0.00250000
vn -0.47090000 -0.05690000 0.88040000
vn -0.63140000 -0.07770000 0.77150000
vn -0.11680000 0.99320000 0.00310000
vn -0.11690000 0.99310000 0.00310000
vn -0.28250000 -0.03830000 0.95850000
vn -0.46820000 -0.05740000 0.88170000
vn -0.11580000 0.99330000 0.00360000
vn -0.11570000 0.99330000 0.00350000
vn -0.27990000 -0.03870000 0.95930000
vn -0.11470000 0.99340000 0.00380000
vn -0.11460000 0.99340000 0.00400000
vn -0.11470000 0.99340000 0.00390000
vn -0.09070000 -0.01540000 0.99580000
vn -0.00090000 -0.00550000 1.00000000
vn -0.11350000 0.99350000 0.00400000
vn -0.08810000 -0.01590000 0.99600000
vn -0.11200000 0.99370000 0.00400000
vn 0.00190000 -0.00580000 1.00000000
vn -0.00060000 -0.00610000 1.00000000
vn -0.11050000 0.99390000 0.00390000
vn -0.00060000 -0.00600000 1.00000000
vn -0.11050000 0.99390000 0.00400000
vn 0.00210000 -0.00520000 1.00000000
vn -0.10900000 0.99400000 0.00390000
vn -0.10900000 0.99400000 0.00400000
vn 0.00210000 -0.00500000 1.00000000
vn -0.00030000 -0.00490000 1.00000000
vn 0.99230000 0.12370000 -0.00110000
vn -0.00130000 0.00540000 1.00000000
vn -0.12240000 0.99250000 -0.00650000
vn -0.00140000 0.00480000 1.00000000
vn -0.00010000 0.00580000 1.00000000
vn -0.12170000 0.99250000 -0.00660000
vn -0.12180000 0.99250000 -0.00650000
vn -0.12100000 0.99260000 -0.00660000
vn 0.00030000 0.00610000 1.00000000
vn -0.12090000 0.99260000 -0.00650000
vn -0.12100000 0.99260000 -0.00650000
vn -0.00160000 0.00570000 1.00000000
vn 0.00030000 0.00490000 1.00000000
vn -0.12010000 0.99270000 -0.00640000
vn -0.12020000 0.99270000 -0.00650000
vn -0.00120000 0.00540000 1.00000000
vn -0.00130000 0.00560000 -1.00000000
vn 0.00080000 0.00470000 -1.00000000
vn -0.10890000 0.99400000 0.00640000
vn -0.10900000 0.99400000 0.00650000
vn 0.00080000 0.00460000 -1.00000000
vn -0.11050000 0.99390000 0.00650000
vn -0.00200000 0.00500000 -1.00000000
vn -0.00200000 0.00490000 -1.00000000
vn -0.11200000 0.99370000 0.00650000
vn 0.00100000 0.00530000 -1.00000000
vn -0.11350000 0.99350000 0.00660000
vn -0.00180000 0.00430000 -1.00000000
vn 0.09080000 0.01530000 -0.99570000
vn 0.08810000 0.01460000 -0.99600000
vn -0.11530000 0.99330000 0.00650000
vn -0.11530000 0.99330000 0.00640000
vn 0.28180000 0.03670000 -0.95880000
vn -0.11690000 0.99310000 0.00600000
vn 0.47200000 0.05910000 -0.87960000
vn 0.27930000 0.03600000 -0.95950000
vn -0.11840000 0.99290000 0.00520000
vn 0.46970000 0.05850000 -0.88090000
vn -0.11840000 0.99300000 0.00530000
vn 0.63450000 0.07630000 -0.76910000
vn -0.11980000 0.99280000 0.00430000
vn 0.74790000 0.09480000 -0.65700000
vn 0.63260000 0.07560000 -0.77080000
vn -0.11970000 0.99280000 0.00430000
vn -0.12080000 0.99270000 0.00340000
vn 0.83940000 0.10690000 -0.53290000
vn 0.74590000 0.09510000 -0.65930000
vn -0.12150000 0.99260000 0.00230000
vn 0.83790000 0.10650000 -0.53540000
vn 0.91440000 0.11340000 -0.38860000
vn -0.12150000 0.99260000 0.00240000
vn -0.12200000 0.99250000 0.00120000
vn 0.96600000 0.11760000 -0.23040000
vn 0.91310000 0.11390000 -0.39160000
vn -0.12230000 0.99250000 0.00000000
vn 0.96530000 0.11750000 -0.23330000
vn 0.99040000 0.11750000 -0.07320000
vn -0.12240000 0.99250000 0.00000000
vn 0.99020000 0.11690000 -0.07630000
vn 0.99270000 0.12020000 0.00140000
vn -0.12250000 0.99250000 -0.00130000
vn -0.12240000 0.99250000 -0.00130000
vn -0.12250000 0.99250000 -0.00260000
vn 0.99280000 0.11950000 -0.00170000
vn 0.99170000 0.12870000 0.00130000
vn -0.12240000 0.99250000 -0.00260000
vn 0.99220000 0.12430000 0.00100000
vn -0.12240000 0.99250000 -0.00390000
vn 0.99180000 0.12800000 -0.00190000
vn -0.12240000 0.99250000 -0.00400000
vn 0.99220000 0.12430000 -0.00010000
vn -0.12240000 0.99250000 -0.00530000
vn 0.99230000 0.12360000 -0.00200000
vn -0.12240000 0.99250000 -0.00520000
vn -0.99420000 -0.10780000 -0.00050000
vn 0.00000000 -0.00400000 1.00000000
vn 0.10750000 -0.99420000 -0.00460000
vn -0.00010000 -0.00390000 1.00000000
vn -0.99420000 -0.10780000 -0.00050000
vn -0.10730000 0.99420000 0.00420000
vn 0.10750000 -0.99420000 -0.00460000
vn -0.99420000 -0.10780000 -0.00050000
vn -0.99420000 -0.10780000 -0.00060000
vn -0.99420000 -0.10780000 -0.00070000
vn 0.10750000 -0.99420000 -0.00590000
vn 0.10750000 -0.99420000 -0.00590000
vn -0.00020000 0.00660000 -1.00000000
vn -0.99420000 -0.10780000 -0.00060000
vn -0.10750000 0.99420000 0.00620000
vn -0.00020000 0.00650000 -1.00000000
vn -0.99420000 -0.10780000 -0.00070000
vn -0.10750000 0.99420000 0.00620000
vn -0.99420000 -0.10780000 -0.00070000
vn -0.99410000 -0.10810000 -0.00070000
vn -0.10680000 0.99430000 0.00580000
vn -0.99420000 -0.10780000 -0.00050000
vn -0.10670000 0.99430000 0.00520000
vn -0.99410000 -0.10810000 -0.00050000
vn -0.10660000 0.99430000 0.00490000
vn -0.10730000 0.99420000 0.00420000
vn -0.10660000 0.99430000 0.00490000
vn -0.99420000 -0.10780000 -0.00050000
vn -0.99410000 -0.10810000 -0.00080000
vn -0.00020000 0.00650000 -1.00000000
vn -0.99420000 -0.10780000 -0.00070000
vn 0.00010000 0.00670000 -1.00000000
vn -0.99420000 -0.10780000 -0.00050000
vn -0.00010000 -0.00390000 1.00000000
vn 0.00000000 -0.00400000 1.00000000
vn -0.99280000 -0.11960000 0.00060000
vn 0.00000000 0.00660000 1.00000000
vn 0.11860000 -0.99290000 0.00520000
vn -0.99280000 -0.11970000 0.00070000
vn 0.00000000 0.00660000 1.00000000
vn -0.11720000 0.99310000 -0.00590000
vn -0.99280000 -0.11980000 0.00070000
vn -0.99280000 -0.11980000 0.00020000
vn -0.99280000 -0.11970000 0.00040000
vn 0.11860000 -0.99290000 0.00520000
vn -0.39760000 -0.91760000 0.00240000
vn -0.99280000 -0.11960000 0.00060000
vn -0.59300000 -0.77880000 0.20460000
vn -0.46750000 -0.77630000 0.42280000
vn -0.18770000 -0.73850000 0.64770000
vn 0.11200000 -0.99360000 0.01520000
vn 0.00040000 -0.00390000 1.00000000
vn -0.09960000 -0.88070000 0.46320000
vn 0.00040000 -0.00390000 1.00000000
vn 0.10900000 -0.99400000 -0.00420000
vn 0.11200000 -0.99360000 0.01520000
vn 0.10900000 -0.99400000 -0.00420000
vn 0.00040000 -0.00390000 1.00000000
vn -0.99420000 -0.10770000 -0.00070000
vn -0.99420000 -0.10780000 -0.00070000
vn -0.10820000 0.99410000 0.00210000
vn 0.00040000 -0.00390000 1.00000000
vn 0.00040000 -0.00390000 1.00000000
vn -0.10820000 0.99410000 0.00210000
vn -0.10970000 0.99400000 0.00430000
vn -0.10970000 0.99400000 0.00430000
vn 0.00040000 -0.00390000 1.00000000
vn -0.11130000 0.99380000 0.00210000
vn 0.00040000 -0.00390000 1.00000000
vn -0.11280000 0.99360000 0.00430000
vn -0.11130000 0.99380000 0.00210000
vn 0.00040000 -0.00390000 1.00000000
vn -0.11280000 0.99360000 0.00430000
vn -0.15230000 0.79310000 0.58980000
vn -0.32070000 0.72500000 0.60950000
vn -0.27190000 0.78000000 0.56360000
vn -0.46570000 0.69720000 0.54500000
vn -0.58330000 0.70150000 0.40940000
vn -0.66540000 0.67590000 0.31700000
vn -0.68640000 0.68930000 0.23180000
vn -0.77450000 0.63170000 -0.03360000
vn -0.88280000 0.46970000 -0.00120000
vn -0.11860000 0.99290000 -0.00330000
vn -0.99280000 -0.11970000 0.00040000
vn -0.11840000 0.99300000 -0.00450000
vn -0.11860000 0.99290000 -0.00330000
vn -0.99280000 -0.11970000 0.00040000
vn -0.99280000 -0.11980000 0.00020000
vn -0.99280000 -0.11970000 0.00060000
vn -0.11720000 0.99310000 -0.00590000
vn -0.99280000 -0.11980000 0.00070000
vn -0.99280000 -0.11970000 0.00070000
vn -0.11810000 0.99300000 -0.00460000
vn -0.99420000 -0.10780000 -0.00070000
vn 0.00040000 -0.00390000 1.00000000
vn -0.99420000 -0.10770000 -0.00070000
vn -0.99280000 -0.11980000 0.00070000
vn 0.00000000 0.00660000 1.00000000
vn -0.99280000 -0.11960000 0.00060000
vn -0.99280000 -0.11970000 0.00070000
vn 0.99250000 0.12260000 -0.00090000
vn 0.12170000 -0.99250000 0.00640000
vn -0.00080000 0.00650000 1.00000000
vn 0.99240000 0.12270000 -0.00090000
vn -0.12210000 0.99250000 -0.00640000
vn -0.00080000 0.00650000 1.00000000
vn 0.12020000 -0.99270000 0.00640000
vn -0.00080000 0.00650000 1.00000000
vn 0.12170000 -0.99250000 0.00640000
vn 0.12020000 -0.99270000 0.00640000
vn -0.00080000 0.00650000 1.00000000
vn -0.99280000 -0.11960000 0.00090000
vn -0.11990000 0.99280000 -0.00640000
vn -0.00080000 0.00650000 1.00000000
vn -0.99280000 -0.11960000 0.00090000
vn -0.11990000 0.99280000 -0.00640000
vn -0.00080000 0.00650000 1.00000000
vn -0.12060000 0.99270000 -0.00850000
vn -0.00080000 0.00650000 1.00000000
vn -0.12130000 0.99260000 -0.00640000
vn -0.12060000 0.99270000 -0.00850000
vn -0.00080000 0.00650000 1.00000000
vn -0.12130000 0.99260000 -0.00640000
vn -0.12210000 0.99250000 -0.00640000
vn -0.00080000 0.00650000 1.00000000
vn -0.99280000 -0.11960000 0.00090000
vn 0.99240000 0.12270000 -0.00090000
vn -0.00080000 0.00650000 1.00000000
vn 0.99250000 0.12260000 -0.00090000
vn 0.10920000 -0.99400000 -0.00980000
vn -0.99420000 -0.10780000 -0.00070000
vn -0.00070000 0.00650000 -1.00000000
vn -0.10830000 0.99410000 0.00640000
vn -0.00070000 0.00650000 -1.00000000
vn -0.99420000 -0.10780000 -0.00070000
vn -0.00070000 0.00650000 -1.00000000
vn 0.10920000 -0.99400000 -0.00980000
vn 0.07750000 -0.69690000 -0.71300000
vn -0.00070000 0.00650000 -1.00000000
vn 0.07770000 -0.66400000 -0.74370000
vn 0.04160000 0.01140000 -0.99910000
vn 0.37430000 -0.62330000 -0.68660000
vn 0.40060000 0.05290000 -0.91470000
vn 0.59550000 -0.60110000 -0.53300000
vn 0.69930000 0.08770000 -0.70950000
vn 0.75090000 -0.58020000 -0.31550000
vn 0.90080000 0.11150000 -0.41970000
vn 0.79720000 -0.58020000 -0.16680000
vn 0.99090000 0.12240000 -0.05540000
vn 0.78990000 -0.61330000 0.00310000
vn 0.12230000 -0.99250000 0.00510000
vn 0.99250000 0.12260000 -0.00030000
vn 0.99240000 0.12270000 -0.00060000
vn 0.99250000 0.12250000 -0.00030000
vn 0.99250000 0.12260000 -0.00030000
vn 0.99250000 0.12260000 -0.00040000
vn 0.99250000 0.12260000 -0.00050000
vn -0.00050000 0.00660000 1.00000000
vn 0.99240000 0.12270000 -0.00060000
vn 0.12230000 -0.99250000 0.00510000
vn -0.12130000 0.99260000 -0.00590000
vn 0.99240000 0.12270000 -0.00070000
vn 0.00000000 0.00660000 1.00000000
vn 0.99240000 0.12270000 -0.00070000
vn 0.99250000 0.12250000 -0.00070000
vn -0.12130000 0.99260000 -0.00460000
vn -0.12130000 0.99260000 -0.00590000
vn 0.99240000 0.12270000 -0.00060000
vn 0.99250000 0.12260000 -0.00040000
vn 0.99240000 0.12270000 -0.00060000
vn -0.12130000 0.99260000 -0.00460000
vn -0.11810000 0.99300000 -0.00330000
vn 0.99250000 0.12260000 -0.00040000
vn -0.11810000 0.99300000 -0.00330000
vn 0.77770000 0.62860000 0.00550000
vn 0.63500000 0.77250000 0.00950000
vn 0.69330000 0.72010000 -0.02790000
vn 0.72240000 0.68480000 -0.09580000
vn 0.59100000 0.73690000 -0.32820000
vn 0.64700000 0.66960000 -0.36470000
vn 0.44030000 0.72020000 -0.53610000
vn 0.46680000 0.68500000 -0.55940000
vn 0.21390000 0.69670000 -0.68470000
vn 0.21900000 0.62200000 -0.75180000
vn -0.02020000 0.70690000 -0.70700000
vn -0.11130000 0.99380000 0.00430000
vn -0.06450000 0.52970000 -0.84570000
vn -0.00070000 0.00650000 -1.00000000
vn -0.00070000 0.00650000 -1.00000000
vn -0.11130000 0.99380000 0.00430000
vn -0.10970000 0.99390000 0.00850000
vn -0.10970000 0.99390000 0.00850000
vn -0.00070000 0.00650000 -1.00000000
vn -0.10830000 0.99410000 0.00640000
vn -0.99420000 -0.10780000 -0.00070000
vn -0.00070000 0.00650000 -1.00000000
vn 0.99240000 0.12270000 -0.00060000
vn 0.00000000 0.00660000 1.00000000
vn -0.00050000 0.00660000 1.00000000
vn 0.99240000 0.12270000 -0.00070000
vn 0.99240000 0.12280000 -0.00060000
vn 0.00110000 -0.00430000 1.00000000
vn -0.99410000 -0.10850000 -0.00070000
vn 0.10850000 -0.99410000 -0.00490000
vn 0.10930000 -0.99400000 -0.00570000
vn -0.99410000 -0.10850000 -0.00050000
vn -0.99460000 -0.10390000 -0.00110000
vn 0.10820000 -0.99410000 -0.00360000
vn 0.11030000 -0.99390000 -0.00520000
vn -0.99460000 -0.10380000 -0.00100000
vn 0.10800000 -0.99410000 -0.00650000
vn -0.99390000 -0.11010000 -0.00010000
vn 0.10800000 -0.99410000 -0.00390000
vn -0.99390000 -0.11020000 0.00010000
vn -0.99410000 -0.10830000 -0.00060000
vn 0.10940000 -0.99400000 -0.00470000
vn 0.10820000 -0.99410000 -0.00710000
vn -0.99410000 -0.10850000 -0.00040000
vn 0.00010000 0.00610000 -1.00000000
vn 0.10860000 -0.99410000 -0.00550000
vn -0.99280000 -0.11970000 0.00010000
vn -0.00040000 0.00620000 1.00000000
vn 0.12040000 -0.99270000 0.00560000
vn 0.12050000 -0.99270000 0.00660000
vn -0.99280000 -0.11950000 0.00070000
vn 0.12190000 -0.99250000 0.00620000
vn 0.12090000 -0.99270000 0.00300000
vn 0.12250000 -0.99250000 0.00450000
vn 0.11980000 -0.99280000 0.00650000
vn -0.99240000 -0.12280000 0.00060000
vn -0.99240000 -0.12270000 0.00050000
vn 0.12090000 -0.99270000 0.00160000
vn -0.99240000 -0.12290000 0.00120000
vn 0.12160000 -0.99260000 0.00610000
vn 0.12260000 -0.99240000 0.00320000
vn 0.12160000 -0.99260000 0.00480000
vn -0.99240000 -0.12290000 0.00030000
vn -0.99240000 -0.12290000 0.00110000
vn 0.12090000 -0.99270000 0.00040000
vn 0.12250000 -0.99250000 0.00190000
vn -0.99240000 -0.12300000 0.00090000
vn 0.12250000 -0.99250000 0.00060000
vn -0.98610000 -0.11980000 0.11470000
vn 0.12070000 -0.99270000 -0.00100000
vn 0.12160000 -0.99260000 0.00340000
vn 0.12230000 -0.99250000 -0.00070000
vn 0.12140000 -0.99260000 0.00190000
vn -0.92010000 -0.11410000 0.37470000
vn -0.98610000 -0.11980000 0.11530000
vn 0.12030000 -0.99270000 -0.00280000
vn 0.12190000 -0.99250000 -0.00190000
vn -0.91990000 -0.11380000 0.37540000
vn -0.78270000 -0.09220000 0.61550000
vn 0.11880000 -0.99290000 -0.00430000
vn 0.12100000 -0.99270000 0.00030000
vn 0.12110000 -0.99260000 -0.00300000
vn -0.78220000 -0.09210000 0.61620000
vn -0.63260000 -0.07570000 0.77070000
vn 0.12030000 -0.99270000 -0.00400000
vn 0.11910000 -0.99290000 -0.00500000
vn 0.12050000 -0.99270000 -0.00160000
vn 0.11690000 -0.99310000 -0.00470000
vn 0.11770000 -0.99300000 -0.00590000
vn -0.46960000 -0.05540000 0.88110000
vn -0.63220000 -0.07580000 0.77110000
vn 0.11960000 -0.99280000 -0.00350000
vn 0.11560000 -0.99330000 -0.00520000
vn -0.46910000 -0.05540000 0.88140000
vn 0.11420000 -0.99340000 -0.00540000
vn 0.11850000 -0.99290000 -0.00450000
vn 0.11610000 -0.99320000 -0.00650000
vn -0.28130000 -0.03680000 0.95890000
vn -0.28070000 -0.03690000 0.95910000
vn 0.11700000 -0.99310000 -0.00530000
vn 0.11290000 -0.99360000 -0.00530000
vn 0.11440000 -0.99340000 -0.00680000
vn -0.08950000 -0.01400000 0.99590000
vn 0.11130000 -0.99380000 -0.00530000
vn 0.00030000 -0.00380000 1.00000000
vn 0.11280000 -0.99360000 -0.00670000
vn 0.11550000 -0.99330000 -0.00580000
vn -0.08890000 -0.01400000 0.99590000
vn -0.00030000 -0.00400000 1.00000000
vn 0.00120000 -0.00390000 1.00000000
vn 0.11000000 -0.99390000 -0.00600000
vn 0.11400000 -0.99350000 -0.00600000
vn 0.11270000 -0.99360000 -0.00530000
vn 0.11120000 -0.99380000 -0.00680000
vn 0.10850000 -0.99410000 -0.00600000
vn -0.00030000 -0.00390000 1.00000000
vn 0.00060000 -0.00370000 1.00000000
vn 0.11120000 -0.99380000 -0.00530000
vn 0.00020000 -0.00380000 1.00000000
vn 0.10970000 -0.99390000 -0.00680000
vn 0.10740000 -0.99420000 -0.00430000
vn 0.10750000 -0.99420000 -0.00500000
vn 0.00050000 -0.00360000 1.00000000
vn 0.10810000 -0.99410000 -0.00620000
vn 0.12150000 -0.99260000 0.00560000
vn 0.99220000 0.12460000 -0.00130000
vn -0.00110000 0.00630000 1.00000000
vn 0.12060000 -0.99270000 0.00480000
vn -0.00080000 0.00650000 1.00000000
vn -0.00140000 0.00630000 1.00000000
vn 0.12280000 -0.99240000 0.00590000
vn 0.12100000 -0.99260000 0.00390000
vn -0.00040000 0.00640000 1.00000000
vn 0.11970000 -0.99280000 0.00600000
vn 0.12230000 -0.99250000 0.00600000
vn -0.00120000 0.00650000 1.00000000
vn 0.11930000 -0.99280000 0.00590000
vn 0.12130000 -0.99260000 0.00470000
vn -0.00010000 0.00640000 1.00000000
vn -0.00080000 0.00610000 1.00000000
vn 0.11100000 -0.99380000 -0.00450000
vn 0.00000000 0.00670000 -1.00000000
vn 0.10750000 -0.99420000 -0.00550000
vn 0.10760000 -0.99420000 -0.00610000
vn 0.10810000 -0.99410000 -0.00430000
vn -0.00080000 0.00640000 -1.00000000
vn 0.10830000 -0.99410000 -0.00510000
vn -0.00080000 0.00680000 -1.00000000
vn 0.00000000 0.00660000 -1.00000000
vn 0.11250000 -0.99360000 -0.00450000
vn 0.10980000 -0.99390000 -0.00380000
vn 0.11130000 -0.99380000 -0.00380000
vn 0.10980000 -0.99390000 -0.00520000
vn -0.00080000 0.00670000 -1.00000000
vn -0.00060000 0.00670000 -1.00000000
vn 0.11420000 -0.99340000 -0.00520000
vn 0.11270000 -0.99360000 -0.00380000
vn 0.08960000 0.01710000 -0.99580000
vn 0.11580000 -0.99330000 -0.00490000
vn 0.11140000 -0.99380000 -0.00450000
vn -0.00140000 0.00650000 -1.00000000
vn 0.11400000 -0.99350000 -0.00380000
vn 0.11710000 -0.99310000 -0.00440000
vn 0.11520000 -0.99330000 -0.00370000
vn 0.08840000 0.01680000 -0.99590000
vn 0.28060000 0.03840000 -0.95910000
vn 0.11290000 -0.99360000 -0.00470000
vn 0.47090000 0.06080000 -0.88010000
vn 0.11630000 -0.99320000 -0.00320000
vn 0.11830000 -0.99300000 -0.00360000
vn 0.11420000 -0.99340000 -0.00470000
vn 0.27950000 0.03810000 -0.95940000
vn 0.11930000 -0.99290000 -0.00280000
vn 0.63350000 0.07780000 -0.76980000
vn 0.47000000 0.06050000 -0.88060000
vn 0.11740000 -0.99310000 -0.00270000
vn 0.11570000 -0.99330000 -0.00460000
vn 0.11690000 -0.99310000 -0.00410000
vn 0.74710000 0.09670000 -0.65760000
vn 0.63280000 0.07770000 -0.77040000
vn 0.11970000 -0.99280000 -0.00150000
vn 0.11810000 -0.99300000 -0.00410000
vn 0.74670000 0.09690000 -0.65810000
vn 0.83860000 0.10850000 -0.53390000
vn 0.12050000 -0.99270000 -0.00080000
vn 0.11810000 -0.99300000 -0.00160000
vn 0.83820000 0.10850000 -0.53450000
vn 0.91380000 0.11550000 -0.38950000
vn 0.12030000 -0.99270000 0.00050000
vn 0.11880000 -0.99290000 -0.00320000
vn 0.96550000 0.11930000 -0.23150000
vn 0.11980000 -0.99280000 -0.00270000
vn 0.12090000 -0.99270000 0.00120000
vn 0.91350000 0.11560000 -0.39000000
vn 0.11890000 -0.99290000 -0.00050000
vn 0.12100000 -0.99260000 0.00240000
vn 0.96530000 0.11940000 -0.23210000
vn 0.11930000 -0.99290000 0.00080000
vn 0.99010000 0.11910000 -0.07470000
vn 0.12020000 -0.99270000 -0.00170000
vn 0.99000000 0.11900000 -0.07540000
vn 0.12030000 -0.99270000 -0.00070000
vn 0.12100000 -0.99260000 0.00360000
vn 0.99260000 0.12180000 -0.00030000
vn 0.11940000 -0.99280000 0.00200000
vn 0.12030000 -0.99270000 0.00050000
vn 0.12100000 -0.99260000 0.00500000
vn 0.99260000 0.12160000 -0.00090000
vn 0.99150000 0.13030000 -0.00050000
vn 0.11930000 -0.99280000 0.00330000
vn 0.99150000 0.13000000 -0.00110000
vn 0.99210000 0.12580000 -0.00060000
vn 0.12100000 -0.99260000 0.00610000
vn 0.12030000 -0.99270000 0.00180000
vn 0.11940000 -0.99280000 0.00470000
vn 0.12140000 -0.99260000 0.00670000
vn 0.12030000 -0.99270000 0.00320000
vn 0.12210000 -0.99250000 0.00660000
vn 0.99220000 0.12490000 -0.00070000
vn 0.12000000 -0.99280000 0.00620000
vn 0.99210000 0.12570000 -0.00120000
vn 0.10750000 -0.99420000 -0.00460000
vn 0.00000000 -0.00400000 1.00000000
vn 0.99420000 0.10780000 0.00050000
vn 0.99420000 0.10770000 0.00050000
vn -0.10730000 0.99420000 0.00420000
vn -0.00010000 -0.00390000 1.00000000
vn 0.99420000 0.10780000 0.00050000
vn 0.99420000 0.10780000 0.00060000
vn 0.10750000 -0.99420000 -0.00460000
vn 0.99420000 0.10780000 0.00070000
vn 0.10750000 -0.99420000 -0.00590000
vn 0.10750000 -0.99420000 -0.00590000
vn 0.99420000 0.10780000 0.00060000
vn -0.00020000 0.00660000 -1.00000000
vn -0.00020000 0.00650000 -1.00000000
vn 0.99420000 0.10780000 0.00070000
vn -0.10750000 0.99420000 0.00620000
vn 0.99420000 0.10800000 0.00080000
vn 0.99420000 0.10780000 0.00070000
vn -0.10690000 0.99430000 0.00530000
vn -0.10750000 0.99420000 0.00620000
vn -0.10690000 0.99430000 0.00560000
vn -0.10660000 0.99430000 0.00490000
vn 0.99420000 0.10780000 0.00030000
vn 0.99420000 0.10780000 0.00050000
vn -0.10660000 0.99430000 0.00490000
vn 0.99420000 0.10770000 0.00050000
vn -0.10730000 0.99420000 0.00420000
vn 0.99420000 0.10780000 0.00050000
vn 0.99420000 0.10780000 0.00070000
vn 0.99420000 0.10770000 0.00100000
vn -0.00020000 0.00650000 -1.00000000
vn -0.00010000 0.00630000 -1.00000000
vn 0.99420000 0.10780000 0.00050000
vn 0.99420000 0.10770000 0.00050000
vn 0.00000000 -0.00400000 1.00000000
vn -0.00010000 -0.00390000 1.00000000
vn 0.99280000 0.11960000 -0.00060000
vn 0.00000000 0.00660000 1.00000000
vn 0.11860000 -0.99290000 0.00520000
vn 0.00000000 0.00660000 1.00000000
vn -0.11720000 0.99310000 -0.00590000
vn 0.99280000 0.11960000 -0.00070000
vn 0.99280000 0.11970000 -0.00040000
vn 0.99280000 0.11940000 -0.00040000
vn 0.58310000 -0.81240000 0.00200000
vn 0.99280000 0.11980000 -0.00070000
vn 0.99280000 0.11960000 -0.00060000
vn 0.11860000 -0.99290000 0.00520000
vn 0.84110000 -0.53990000 0.03220000
vn 0.76000000 -0.56600000 -0.31940000
vn 0.52630000 -0.58550000 -0.61660000
vn 0.15570000 -0.46560000 -0.87120000
vn 0.11200000 -0.99360000 0.01520000
vn -0.00040000 0.00390000 -1.00000000
vn 0.11200000 -0.99360000 0.01520000
vn -0.00040000 0.00390000 -1.00000000
vn 0.10900000 -0.99400000 -0.00420000
vn -0.99420000 -0.10770000 -0.00070000
vn -0.00040000 0.00390000 -1.00000000
vn 0.10900000 -0.99400000 -0.00420000
vn -0.99420000 -0.10780000 -0.00070000
vn -0.10820000 0.99410000 0.00210000
vn -0.00040000 0.00390000 -1.00000000
vn -0.00040000 0.00390000 -1.00000000
vn -0.10970000 0.99400000 0.00430000
vn -0.10820000 0.99410000 0.00210000
vn -0.00040000 0.00390000 -1.00000000
vn -0.11130000 0.99380000 0.00210000
vn -0.10970000 0.99400000 0.00430000
vn -0.11130000 0.99380000 0.00210000
vn -0.11280000 0.99360000 0.00430000
vn -0.00040000 0.00390000 -1.00000000
vn -0.11280000 0.99360000 0.00430000
vn 0.00490000 0.59760000 -0.80180000
vn -0.00040000 0.00390000 -1.00000000
vn -0.00590000 0.69360000 -0.72040000
vn 0.17900000 0.61930000 -0.76450000
vn 0.34740000 0.71570000 -0.60580000
vn 0.40060000 0.72510000 -0.56010000
vn 0.57350000 0.73060000 -0.37050000
vn 0.62600000 0.73370000 -0.26420000
vn 0.68790000 0.72410000 -0.04970000
vn 0.99280000 0.11970000 -0.00040000
vn 0.74590000 0.66610000 -0.00180000
vn -0.11860000 0.99290000 -0.00330000
vn 0.99280000 0.11970000 -0.00040000
vn -0.11860000 0.99290000 -0.00330000
vn 0.99280000 0.12000000 -0.00050000
vn -0.11820000 0.99300000 -0.00490000
vn -0.11720000 0.99310000 -0.00590000
vn 0.99280000 0.11960000 -0.00070000
vn 0.99280000 0.11970000 -0.00060000
vn -0.11810000 0.99300000 -0.00460000
vn 0.99280000 0.11980000 -0.00070000
vn -0.99420000 -0.10770000 -0.00070000
vn -0.99420000 -0.10780000 -0.00070000
vn -0.00040000 0.00390000 -1.00000000
vn 0.00000000 0.00660000 1.00000000
vn 0.99280000 0.11980000 -0.00070000
vn 0.99280000 0.11960000 -0.00060000
vn 0.99280000 0.11960000 -0.00070000
vn 0.99250000 0.12260000 -0.00090000
vn 0.00080000 -0.00650000 -1.00000000
vn 0.12170000 -0.99250000 0.00640000
vn 0.00080000 -0.00650000 -1.00000000
vn -0.12210000 0.99250000 -0.00640000
vn 0.99240000 0.12270000 -0.00090000
vn 0.00080000 -0.00650000 -1.00000000
vn 0.12020000 -0.99270000 0.00640000
vn 0.12170000 -0.99250000 0.00640000
vn 0.00080000 -0.00650000 -1.00000000
vn -0.99280000 -0.11960000 0.00090000
vn 0.12020000 -0.99270000 0.00640000
vn 0.00080000 -0.00650000 -1.00000000
vn -0.99280000 -0.11960000 0.00090000
vn -0.11990000 0.99280000 -0.00640000
vn 0.00080000 -0.00650000 -1.00000000
vn -0.12060000 0.99270000 -0.00850000
vn -0.11990000 0.99280000 -0.00640000
vn 0.00080000 -0.00650000 -1.00000000
vn -0.12060000 0.99270000 -0.00850000
vn -0.12130000 0.99260000 -0.00640000
vn 0.00080000 -0.00650000 -1.00000000
vn -0.12210000 0.99250000 -0.00640000
vn -0.12130000 0.99260000 -0.00640000
vn 0.00080000 -0.00650000 -1.00000000
vn -0.99280000 -0.11960000 0.00090000
vn 0.99240000 0.12270000 -0.00090000
vn 0.00080000 -0.00650000 -1.00000000
vn 0.99250000 0.12260000 -0.00090000
vn -0.99420000 -0.10780000 -0.00070000
vn 0.00070000 -0.00650000 1.00000000
vn 0.10920000 -0.99400000 -0.00980000
vn -0.99420000 -0.10780000 -0.00070000
vn 0.00070000 -0.00650000 1.00000000
vn -0.10830000 0.99410000 0.00640000
vn 0.07480000 -0.70980000 0.70040000
vn 0.10920000 -0.99400000 -0.00980000
vn 0.00070000 -0.00650000 1.00000000
vn 0.00070000 -0.00650000 1.00000000
vn -0.00520000 -0.00430000 1.00000000
vn -0.00480000 -0.68740000 0.72630000
vn -0.08380000 -0.05920000 0.99470000
vn -0.17530000 -0.78190000 0.59830000
vn -0.38430000 -0.01870000 0.92300000
vn -0.37470000 -0.79920000 0.47000000
vn -0.68270000 -0.05520000 0.72860000
vn -0.50690000 -0.81730000 0.27400000
vn -0.89540000 -0.07820000 0.43840000
vn -0.63770000 -0.76510000 0.08960000
vn -0.99110000 -0.06240000 0.11770000
vn 0.12230000 -0.99250000 0.00510000
vn -0.99240000 -0.12270000 0.00060000
vn -0.61250000 -0.79040000 0.01010000
vn -0.99250000 -0.12240000 0.00050000
vn -0.99250000 -0.12250000 0.00030000
vn -0.99250000 -0.12250000 0.00070000
vn -0.99290000 -0.11830000 0.00900000
vn -0.99250000 -0.12260000 0.00040000
vn -0.99240000 -0.12300000 0.00070000
vn -0.00050000 0.00660000 1.00000000
vn 0.12230000 -0.99250000 0.00510000
vn -0.99240000 -0.12270000 0.00060000
vn -0.99250000 -0.12260000 0.00070000
vn 0.00000000 0.00660000 1.00000000
vn -0.12130000 0.99260000 -0.00590000
vn -0.12130000 0.99260000 -0.00590000
vn -0.99250000 -0.12260000 0.00070000
vn -0.12130000 0.99260000 -0.00460000
vn -0.99240000 -0.12310000 0.00060000
vn -0.99240000 -0.12270000 0.00060000
vn -0.99250000 -0.12260000 0.00040000
vn -0.11810000 0.99300000 -0.00330000
vn -0.99240000 -0.12270000 0.00060000
vn -0.12130000 0.99260000 -0.00460000
vn -0.99250000 -0.12260000 0.00040000
vn -0.11810000 0.99300000 -0.00330000
vn -0.90150000 0.43270000 0.01180000
vn -0.78520000 0.61920000 -0.00400000
vn -0.72480000 0.65000000 0.22820000
vn -0.75510000 0.65080000 0.07960000
vn -0.66520000 0.65960000 0.35000000
vn -0.68870000 0.66330000 0.29270000
vn -0.55920000 0.68110000 0.47260000
vn -0.35370000 0.71190000 0.60670000
vn -0.32230000 0.70470000 0.63200000
vn -0.33290000 0.70660000 0.62440000
vn -0.08920000 0.68790000 0.72030000
vn -0.11130000 0.99380000 0.00430000
vn 0.00070000 -0.00650000 1.00000000
vn -0.06760000 0.52420000 0.84890000
vn -0.11130000 0.99380000 0.00430000
vn -0.10970000 0.99390000 0.00850000
vn 0.00070000 -0.00650000 1.00000000
vn -0.10830000 0.99410000 0.00640000
vn 0.00070000 -0.00650000 1.00000000
vn -0.10970000 0.99390000 0.00850000
vn 0.00070000 -0.00650000 1.00000000
vn -0.99420000 -0.10780000 -0.00070000
vn -0.99240000 -0.12280000 0.00060000
vn -0.99240000 -0.12270000 0.00060000
vn -0.00050000 0.00660000 1.00000000
vn -0.99250000 -0.12260000 0.00070000
vn 0.00000000 0.00660000 1.00000000
vt 0.24965400 0.12681100
vt 0.24965400 0.12681100
vt 0.24965400 0.12681100
vt 0.25080700 0.09497000
vt 0.25080700 0.09497000
vt 0.25080700 0.09497000
vt 0.25080700 0.09497000
vt 0.25213700 0.06322000
vt 0.25213700 0.06322000
vt 0.25213700 0.06322000
vt 0.25213700 0.06322000
vt 0.25364200 0.03156300
vt 0.25364200 0.03156300
vt 0.25364200 0.03156300
vt 0.25364200 0.03156300
vt 0.25532400 0.00000000
vt 0.25532400 0.00000000
vt 0.25532400 0.00000000
vt 0.71446500 0.61169500
vt 0.71446500 0.61169500
vt 0.71446500 0.61169500
vt 0.71167100 0.55390500
vt 0.71167100 0.55390500
vt 0.71167100 0.55390500
vt 0.71167100 0.55390500
vt 0.71167100 0.55390500
vt 0.71167100 0.55390500
vt 0.70949900 0.49581000
vt 0.70949900 0.49581000
vt 0.70949900 0.49581000
vt 0.70949900 0.49581000
vt 0.70794900 0.43741900
vt 0.70794900 0.43741900
vt 0.70794900 0.43741900
vt 0.70794900 0.43741900
vt 0.70702400 0.37874100
vt 0.70702400 0.37874100
vt 0.70702400 0.37874100
vt 0.70702400 0.37874100
vt 0.70031200 0.32076000
vt 0.70031200 0.32076000
vt 0.70031200 0.32076000
vt 0.67794700 0.26162300
vt 0.67794700 0.26162300
vt 0.67794700 0.26162300
vt 0.67794700 0.26162300
vt 0.64132300 0.21080000
vt 0.64132300 0.21080000
vt 0.64132300 0.21080000
vt 0.64132300 0.21080000
vt 0.60688800 0.17941200
vt 0.60688800 0.17941200
vt 0.60688800 0.17941200
vt 0.60688800 0.17941200
vt 0.56884200 0.15637700
vt 0.56884200 0.15637700
vt 0.56884200 0.15637700
vt 0.56884200 0.15637700
vt 0.52706400 0.14176100
vt 0.52706400 0.14176100
vt 0.52706400 0.14176100
vt 0.52706400 0.14176100
vt 0.52706400 0.14176100
vt 0.48145900 0.13568900
vt 0.48145900 0.13568900
vt 0.48145900 0.13568900
vt 0.42387800 0.13354700
vt 0.42387800 0.13354700
vt 0.42387800 0.13354700
vt 0.36605300 0.13135500
vt 0.36605300 0.13135500
vt 0.36605300 0.13135500
vt 0.36605300 0.13135500
vt 0.30798300 0.12911100
vt 0.30798300 0.12911100
vt 0.30798300 0.12911100
vt 0.30798300 0.12911100
vt 0.82706000 0.60549700
vt 0.82706000 0.60549700
vt 0.82706000 0.60549700
vt 0.79900400 0.60702100
vt 0.79900400 0.60702100
vt 0.79900400 0.60702100
vt 0.79900400 0.60702100
vt 0.77088400 0.60856200
vt 0.77088400 0.60856200
vt 0.77088400 0.60856200
vt 0.77088400 0.60856200
vt 0.77088400 0.60856200
vt 0.74270500 0.61012000
vt 0.74270500 0.61012000
vt 0.74270500 0.61012000
vt 0.74270500 0.61012000
vt 0.31356100 0.00377900
vt 0.31356100 0.00377900
vt 0.31356100 0.00377900
vt 0.31356100 0.00377900
vt 0.37154200 0.00747000
vt 0.37154200 0.00747000
vt 0.37154200 0.00747000
vt 0.42928000 0.01107400
vt 0.42928000 0.01107400
vt 0.42928000 0.01107400
vt 0.48677700 0.01459600
vt 0.48677700 0.01459600
vt 0.48677700 0.01459600
vt 0.55490000 0.02520300
vt 0.55490000 0.02520300
vt 0.55490000 0.02520300
vt 0.55490000 0.02520300
vt 0.61694000 0.04816200
vt 0.61694000 0.04816200
vt 0.61694000 0.04816200
vt 0.67314300 0.08319400
vt 0.67314300 0.08319400
vt 0.67314300 0.08319400
vt 0.67314300 0.08319400
vt 0.72379600 0.13014200
vt 0.72379600 0.13014200
vt 0.72379600 0.13014200
vt 0.72379600 0.13014200
vt 0.75738400 0.17250100
vt 0.75738400 0.17250100
vt 0.75738400 0.17250100
vt 0.78399500 0.21817900
vt 0.78399500 0.21817900
vt 0.78399500 0.21817900
vt 0.78399500 0.21817900
vt 0.80341600 0.26748200
vt 0.80341600 0.26748200
vt 0.80341600 0.26748200
vt 0.81543700 0.32075700
vt 0.81543700 0.32075700
vt 0.81543700 0.32075700
vt 0.81543700 0.32075700
vt 0.81983400 0.37749300
vt 0.81983400 0.37749300
vt 0.81983400 0.37749300
vt 0.81983400 0.37749300
vt 0.82073300 0.43491400
vt 0.82073300 0.43491400
vt 0.82073300 0.43491400
vt 0.82073300 0.43491400
vt 0.82223800 0.49206100
vt 0.82223800 0.49206100
vt 0.82223800 0.49206100
vt 0.82223800 0.49206100
vt 0.82434700 0.54892500
vt 0.82434700 0.54892500
vt 0.82434700 0.54892500
vt 0.82434700 0.54892500
vt 0.00000000 0.00000000
vt 0.00000000 0.00000000
vt 0.00000000 0.00000000
vt 0.00000000 0.06725300
vt 0.00000000 0.06725300
vt 0.00000000 0.06725300
vt 0.05684200 0.00000000
vt 0.05684200 0.00000000
vt 0.05684200 0.00000000
vt 0.05684200 0.00000000
vt 0.05684200 0.00000000
vt 0.11368300 0.00000000
vt 0.11368300 0.00000000
vt 0.11368300 0.00000000
vt 0.11368300 0.06725300
vt 0.11368300 0.06725300
vt 0.11368300 0.06725300
vt 0.08526200 0.06725300
vt 0.08526200 0.06725300
vt 0.08526200 0.06725300
vt 0.08526200 0.06725300
vt 0.05684100 0.06725300
vt 0.05684100 0.06725300
vt 0.05684100 0.06725300
vt 0.05684100 0.06725300
vt 0.02842000 0.06725300
vt 0.02842000 0.06725300
vt 0.02842000 0.06725300
vt 0.11368300 0.03362700
vt 0.11368300 0.03362700
vt 0.11368300 0.03362700
vt 0.11368300 0.03362700
vt 0.00000000 0.03362700
vt 0.00000000 0.03362700
vt 0.00000000 0.03362700
vt 0.18093600 0.00000000
vt 0.18093600 0.00000000
vt 0.18093600 0.00000000
vt 0.11514800 0.00000000
vt 0.11514800 0.00000000
vt 0.11514800 0.00000000
vt 0.18093600 0.11616300
vt 0.18093600 0.11616300
vt 0.18093600 0.11616300
vt 0.18093600 0.11616300
vt 0.18093600 0.11616300
vt 0.18093600 0.11616300
vt 0.18093600 0.23020900
vt 0.18093600 0.34927800
vt 0.18093600 0.46427800
vt 0.18093600 0.59130700
vt 0.18093600 0.59130700
vt 0.18093600 0.59130700
vt 0.18093600 0.70336500
vt 0.18093600 0.70336500
vt 0.18093600 0.70336500
vt 0.18093600 0.81952800
vt 0.18093600 0.81952800
vt 0.18093600 0.81952800
vt 0.11514800 0.81952800
vt 0.11514800 0.81952800
vt 0.11514800 0.81952800
vt 0.11514800 0.76248800
vt 0.11514800 0.76248800
vt 0.11514800 0.76248800
vt 0.11514800 0.70543100
vt 0.11514800 0.70543100
vt 0.11514800 0.70543100
vt 0.11514800 0.64837500
vt 0.11514800 0.64837500
vt 0.11514800 0.64837500
vt 0.11514800 0.59131900
vt 0.11514800 0.59131900
vt 0.11514800 0.59131900
vt 0.11514800 0.54529300
vt 0.11514800 0.49926600
vt 0.11514800 0.45323900
vt 0.11514800 0.40721100
vt 0.11514800 0.34522600
vt 0.11514800 0.28324100
vt 0.11514800 0.22682400
vt 0.11514800 0.17011800
vt 0.11514800 0.17011800
vt 0.11514800 0.17011800
vt 0.11514800 0.11341200
vt 0.11514800 0.11341200
vt 0.11514800 0.11341200
vt 0.11514800 0.11341200
vt 0.11514800 0.05670600
vt 0.11514800 0.05670600
vt 0.11514800 0.05670600
vt 0.11514800 0.05670600
vt 0.11514800 0.05670600
vt 0.14804200 0.81952800
vt 0.14804200 0.81952800
vt 0.14804200 0.81952800
vt 0.14804200 0.00000000
vt 0.14804200 0.00000000
vt 0.14804200 0.00000000
vt 0.14804200 0.00000000
vt 0.00000000 0.50000500
vt 0.00000000 0.50000500
vt 0.00000000 0.50000500
vt 0.00000000 0.56725700
vt 0.00000000 0.56725700
vt 0.00000000 0.56725700
vt 0.05684200 0.50000500
vt 0.05684200 0.50000500
vt 0.05684200 0.50000500
vt 0.11368300 0.50000500
vt 0.11368300 0.50000500
vt 0.11368300 0.50000500
vt 0.11368300 0.56725700
vt 0.11368300 0.56725700
vt 0.11368300 0.56725700
vt 0.08527000 0.56725700
vt 0.08527000 0.56725700
vt 0.08527000 0.56725700
vt 0.05684700 0.56725700
vt 0.05684700 0.56725700
vt 0.05684700 0.56725700
vt 0.02842300 0.56725700
vt 0.02842300 0.56725700
vt 0.02842300 0.56725700
vt 0.11368300 0.53363100
vt 0.11368300 0.53363100
vt 0.00000000 0.53363100
vt 0.00000000 0.53363100
vt 0.00000000 0.53363100
vt 0.24818900 0.00000000
vt 0.24818900 0.00000000
vt 0.24818900 0.00000000
vt 0.18240100 0.00000000
vt 0.18240100 0.00000000
vt 0.18240100 0.00000000
vt 0.24818900 0.12348400
vt 0.24818900 0.12348400
vt 0.24818900 0.12348400
vt 0.21529500 0.12348400
vt 0.24818900 0.24372100
vt 0.21529500 0.24372100
vt 0.24818900 0.37337900
vt 0.21529500 0.37337900
vt 0.24818900 0.50216700
vt 0.21529500 0.50216700
vt 0.24818900 0.62617200
vt 0.21529500 0.62617200
vt 0.24818900 0.75154300
vt 0.21529500 0.75154300
vt 0.24818900 0.87505100
vt 0.24818900 0.87505100
vt 0.24818900 0.87505100
vt 0.24818900 0.87505100
vt 0.21529500 0.87505100
vt 0.21529500 0.87505100
vt 0.21529500 0.87505100
vt 0.21529500 0.87505100
vt 0.24818900 0.99853500
vt 0.24818900 0.99853500
vt 0.24818900 0.99853500
vt 0.18240100 0.99853500
vt 0.18240100 0.99853500
vt 0.18240100 0.99853500
vt 0.18240100 0.94207700
vt 0.18240100 0.94207700
vt 0.18240100 0.94207700
vt 0.18240100 0.94207700
vt 0.18240100 0.94207700
vt 0.18240100 0.88561800
vt 0.18240100 0.88561800
vt 0.18240100 0.88561800
vt 0.18240100 0.88561800
vt 0.18240100 0.82915900
vt 0.18240100 0.82915900
vt 0.18240100 0.82915900
vt 0.18240100 0.77270100
vt 0.18240100 0.71690600
vt 0.18240100 0.66322000
vt 0.18240100 0.60953300
vt 0.18240100 0.55584700
vt 0.18240100 0.50216100
vt 0.18240100 0.43342300
vt 0.18240100 0.36468500
vt 0.18240100 0.29594800
vt 0.18240100 0.22721100
vt 0.18240100 0.17040400
vt 0.18240100 0.17040400
vt 0.18240100 0.17040400
vt 0.18240100 0.11359700
vt 0.18240100 0.11359700
vt 0.18240100 0.11359700
vt 0.18240100 0.05679000
vt 0.18240100 0.05679000
vt 0.18240100 0.05679000
vt 0.21529500 0.00000000
vt 0.21529500 0.00000000
vt 0.21529500 0.99853500
vt 0.21529500 0.99853500
vt 0.21529500 0.99853500
vt 0.21529500 0.99853500
vt 0.21529500 0.99853500
vt 0.24965400 0.12681100
vt 0.24965400 0.12681100
vt 0.24965400 0.12681100
vt 0.25080700 0.09497000
vt 0.25080700 0.09497000
vt 0.25080700 0.09497000
vt 0.25080700 0.09497000
vt 0.25213700 0.06322000
vt 0.25213700 0.06322000
vt 0.25213700 0.06322000
vt 0.25213700 0.06322000
vt 0.25213700 0.06322000
vt 0.25364200 0.03156300
vt 0.25364200 0.03156300
vt 0.25364200 0.03156300
vt 0.25364200 0.03156300
vt 0.25532400 0.00000000
vt 0.25532400 0.00000000
vt 0.25532400 0.00000000
vt 0.71446500 0.61169500
vt 0.71446500 0.61169500
vt 0.71446500 0.61169500
vt 0.71167100 0.55390500
vt 0.71167100 0.55390500
vt 0.71167100 0.55390500
vt 0.71167100 0.55390500
vt 0.71167100 0.55390500
vt 0.71167100 0.55390500
vt 0.71167100 0.55390500
vt 0.70949900 0.49581000
vt 0.70949900 0.49581000
vt 0.70949900 0.49581000
vt 0.70949900 0.49581000
vt 0.70949900 0.49581000
vt 0.70794900 0.43741900
vt 0.70794900 0.43741900
vt 0.70794900 0.43741900
vt 0.70794900 0.43741900
vt 0.70794900 0.43741900
vt 0.70702400 0.37874100
vt 0.70702400 0.37874100
vt 0.70702400 0.37874100
vt 0.70702400 0.37874100
vt 0.70702400 0.37874100
vt 0.70031200 0.32076000
vt 0.70031200 0.32076000
vt 0.70031200 0.32076000
vt 0.70031200 0.32076000
vt 0.70031200 0.32076000
vt 0.67794700 0.26162300
vt 0.67794700 0.26162300
vt 0.67794700 0.26162300
vt 0.67794700 0.26162300
vt 0.67794700 0.26162300
vt 0.67794700 0.26162300
vt 0.64132300 0.21080000
vt 0.64132300 0.21080000
vt 0.64132300 0.21080000
vt 0.64132300 0.21080000
vt 0.64132300 0.21080000
vt 0.64132300 0.21080000
vt 0.60688800 0.17941200
vt 0.60688800 0.17941200
vt 0.60688800 0.17941200
vt 0.60688800 0.17941200
vt 0.60688800 0.17941200
vt 0.56884200 0.15637700
vt 0.56884200 0.15637700
vt 0.56884200 0.15637700
vt 0.56884200 0.15637700
vt 0.56884200 0.15637700
vt 0.52706400 0.14176100
vt 0.52706400 0.14176100
vt 0.52706400 0.14176100
vt 0.52706400 0.14176100
vt 0.52706400 0.14176100
vt 0.48145900 0.13568900
vt 0.48145900 0.13568900
vt 0.48145900 0.13568900
vt 0.48145900 0.13568900
vt 0.48145900 0.13568900
vt 0.42387800 0.13354700
vt 0.42387800 0.13354700
vt 0.42387800 0.13354700
vt 0.42387800 0.13354700
vt 0.36605300 0.13135500
vt 0.36605300 0.13135500
vt 0.36605300 0.13135500
vt 0.36605300 0.13135500
vt 0.36605300 0.13135500
vt 0.30798300 0.12911100
vt 0.30798300 0.12911100
vt 0.30798300 0.12911100
vt 0.30798300 0.12911100
vt 0.30798300 0.12911100
vt 0.30798300 0.12911100
vt 0.30798300 0.12911100
vt 0.82706000 0.60549700
vt 0.82706000 0.60549700
vt 0.82706000 0.60549700
vt 0.79900400 0.60702100
vt 0.79900400 0.60702100
vt 0.79900400 0.60702100
vt 0.79900400 0.60702100
vt 0.77088400 0.60856200
vt 0.77088400 0.60856200
vt 0.77088400 0.60856200
vt 0.77088400 0.60856200
vt 0.77088400 0.60856200
vt 0.74270500 0.61012000
vt 0.74270500 0.61012000
vt 0.74270500 0.61012000
vt 0.74270500 0.61012000
vt 0.31356100 0.00377900
vt 0.31356100 0.00377900
vt 0.31356100 0.00377900
vt 0.31356100 0.00377900
vt 0.31356100 0.00377900
vt 0.31356100 0.00377900
vt 0.37154200 0.00747000
vt 0.37154200 0.00747000
vt 0.37154200 0.00747000
vt 0.37154200 0.00747000
vt 0.37154200 0.00747000
vt 0.42928000 0.01107400
vt 0.42928000 0.01107400
vt 0.42928000 0.01107400
vt 0.42928000 0.01107400
vt 0.42928000 0.01107400
vt 0.42928000 0.01107400
vt 0.48677700 0.01459600
vt 0.48677700 0.01459600
vt 0.48677700 0.01459600
vt 0.48677700 0.01459600
vt 0.48677700 0.01459600
vt 0.55490000 0.02520300
vt 0.55490000 0.02520300
vt 0.55490000 0.02520300
vt 0.55490000 0.02520300
vt 0.55490000 0.02520300
vt 0.61694000 0.04816200
vt 0.61694000 0.04816200
vt 0.61694000 0.04816200
vt 0.61694000 0.04816200
vt 0.61694000 0.04816200
vt 0.67314300 0.08319400
vt 0.67314300 0.08319400
vt 0.67314300 0.08319400
vt 0.67314300 0.08319400
vt 0.67314300 0.08319400
vt 0.72379600 0.13014200
vt 0.72379600 0.13014200
vt 0.72379600 0.13014200
vt 0.72379600 0.13014200
vt 0.75738400 0.17250100
vt 0.75738400 0.17250100
vt 0.75738400 0.17250100
vt 0.75738400 0.17250100
vt 0.75738400 0.17250100
vt 0.78399500 0.21817900
vt 0.78399500 0.21817900
vt 0.78399500 0.21817900
vt 0.78399500 0.21817900
vt 0.80341600 0.26748200
vt 0.80341600 0.26748200
vt 0.80341600 0.26748200
vt 0.80341600 0.26748200
vt 0.80341600 0.26748200
vt 0.81543700 0.32075700
vt 0.81543700 0.32075700
vt 0.81543700 0.32075700
vt 0.81543700 0.32075700
vt 0.81543700 0.32075700
vt 0.81983400 0.37749300
vt 0.81983400 0.37749300
vt 0.81983400 0.37749300
vt 0.81983400 0.37749300
vt 0.81983400 0.37749300
vt 0.82073300 0.43491400
vt 0.82073300 0.43491400
vt 0.82073300 0.43491400
vt 0.82073300 0.43491400
vt 0.82073300 0.43491400
vt 0.82223800 0.49206100
vt 0.82223800 0.49206100
vt 0.82223800 0.49206100
vt 0.82223800 0.49206100
vt 0.82223800 0.49206100
vt 0.82434700 0.54892500
vt 0.82434700 0.54892500
vt 0.82434700 0.54892500
vt 0.82434700 0.54892500
vt 0.82434700 0.54892500
vt 0.82434700 0.54892500
vt 0.00000000 0.00000000
vt 0.00000000 0.00000000
vt 0.00000000 0.00000000
vt 0.00000000 0.06725300
vt 0.00000000 0.06725300
vt 0.00000000 0.06725300
vt 0.05684200 0.00000000
vt 0.05684200 0.00000000
vt 0.05684200 0.00000000
vt 0.05684200 0.00000000
vt 0.05684200 0.00000000
vt 0.11368300 0.00000000
vt 0.11368300 0.00000000
vt 0.11368300 0.00000000
vt 0.11368300 0.06725300
vt 0.11368300 0.06725300
vt 0.11368300 0.06725300
vt 0.08526200 0.06725300
vt 0.08526200 0.06725300
vt 0.08526200 0.06725300
vt 0.08526200 0.06725300
vt 0.05684100 0.06725300
vt 0.05684100 0.06725300
vt 0.05684100 0.06725300
vt 0.05684100 0.06725300
vt 0.02842000 0.06725300
vt 0.02842000 0.06725300
vt 0.02842000 0.06725300
vt 0.02842000 0.06725300
vt 0.11368300 0.03362700
vt 0.11368300 0.03362700
vt 0.11368300 0.03362700
vt 0.11368300 0.03362700
vt 0.00000000 0.03362700
vt 0.00000000 0.03362700
vt 0.00000000 0.03362700
vt 0.00000000 0.03362700
vt 0.18093600 0.00000000
vt 0.18093600 0.00000000
vt 0.18093600 0.00000000
vt 0.11514800 0.00000000
vt 0.11514800 0.00000000
vt 0.11514800 0.00000000
vt 0.18093600 0.11616300
vt 0.18093600 0.11616300
vt 0.18093600 0.11616300
vt 0.18093600 0.11616300
vt 0.18093600 0.11616300
vt 0.18093600 0.11616300
vt 0.18093600 0.23020900
vt 0.18093600 0.34927800
vt 0.18093600 0.46427800
vt 0.18093600 0.59130700
vt 0.18093600 0.59130700
vt 0.18093600 0.59130700
vt 0.18093600 0.70336500
vt 0.18093600 0.70336500
vt 0.18093600 0.70336500
vt 0.18093600 0.81952800
vt 0.18093600 0.81952800
vt 0.18093600 0.81952800
vt 0.11514800 0.81952800
vt 0.11514800 0.81952800
vt 0.11514800 0.81952800
vt 0.11514800 0.76248800
vt 0.11514800 0.76248800
vt 0.11514800 0.76248800
vt 0.11514800 0.70543100
vt 0.11514800 0.70543100
vt 0.11514800 0.70543100
vt 0.11514800 0.64837500
vt 0.11514800 0.64837500
vt 0.11514800 0.64837500
vt 0.11514800 0.59131900
vt 0.11514800 0.59131900
vt 0.11514800 0.59131900
vt 0.11514800 0.54529300
vt 0.11514800 0.49926600
vt 0.11514800 0.45323900
vt 0.11514800 0.40721100
vt 0.11514800 0.34522600
vt 0.11514800 0.28324100
vt 0.11514800 0.22682400
vt 0.11514800 0.17011800
vt 0.11514800 0.17011800
vt 0.11514800 0.17011800
vt 0.11514800 0.11341200
vt 0.11514800 0.11341200
vt 0.11514800 0.11341200
vt 0.11514800 0.11341200
vt 0.11514800 0.05670600
vt 0.11514800 0.05670600
vt 0.11514800 0.05670600
vt 0.11514800 0.05670600
vt 0.11514800 0.05670600
vt 0.14804200 0.81952800
vt 0.14804200 0.81952800
vt 0.14804200 0.81952800
vt 0.14804200 0.00000000
vt 0.14804200 0.00000000
vt 0.14804200 0.00000000
vt 0.14804200 0.00000000
vt 0.00000000 0.50000500
vt 0.00000000 0.50000500
vt 0.00000000 0.50000500
vt 0.00000000 0.56725700
vt 0.00000000 0.56725700
vt 0.00000000 0.56725700
vt 0.05684200 0.50000500
vt 0.05684200 0.50000500
vt 0.05684200 0.50000500
vt 0.11368300 0.50000500
vt 0.11368300 0.50000500
vt 0.11368300 0.50000500
vt 0.11368300 0.56725700
vt 0.11368300 0.56725700
vt 0.11368300 0.56725700
vt 0.08527000 0.56725700
vt 0.08527000 0.56725700
vt 0.08527000 0.56725700
vt 0.05684700 0.56725700
vt 0.05684700 0.56725700
vt 0.05684700 0.56725700
vt 0.02842300 0.56725700
vt 0.02842300 0.56725700
vt 0.02842300 0.56725700
vt 0.11368300 0.53363100
vt 0.11368300 0.53363100
vt 0.00000000 0.53363100
vt 0.00000000 0.53363100
vt 0.00000000 0.53363100
vt 0.24818900 0.00000000
vt 0.24818900 0.00000000
vt 0.24818900 0.00000000
vt 0.18240100 0.00000000
vt 0.18240100 0.00000000
vt 0.18240100 0.00000000
vt 0.24818900 0.12348400
vt 0.24818900 0.12348400
vt 0.24818900 0.12348400
vt 0.21529500 0.12348400
vt 0.21529500 0.12348400
vt 0.24818900 0.24372100
vt 0.21529500 0.24372100
vt 0.24818900 0.37337900
vt 0.21529500 0.37337900
vt 0.24818900 0.50216700
vt 0.21529500 0.50216700
vt 0.24818900 0.62617200
vt 0.21529500 0.62617200
vt 0.24818900 0.75154300
vt 0.21529500 0.75154300
vt 0.24818900 0.87505100
vt 0.24818900 0.87505100
vt 0.24818900 0.87505100
vt 0.24818900 0.87505100
vt 0.21529500 0.87505100
vt 0.21529500 0.87505100
vt 0.21529500 0.87505100
vt 0.21529500 0.87505100
vt 0.21529500 0.87505100
vt 0.24818900 0.99853500
vt 0.24818900 0.99853500
vt 0.24818900 0.99853500
vt 0.18240100 0.99853500
vt 0.18240100 0.99853500
vt 0.18240100 0.99853500
vt 0.18240100 0.94207700
vt 0.18240100 0.94207700
vt 0.18240100 0.94207700
vt 0.18240100 0.94207700
vt 0.18240100 0.94207700
vt 0.18240100 0.88561800
vt 0.18240100 0.88561800
vt 0.18240100 0.88561800
vt 0.18240100 0.88561800
vt 0.18240100 0.82915900
vt 0.18240100 0.82915900
vt 0.18240100 0.82915900
vt 0.18240100 0.77270100
vt 0.18240100 0.71690600
vt 0.18240100 0.66322000
vt 0.18240100 0.60953300
vt 0.18240100 0.55584700
vt 0.18240100 0.50216100
vt 0.18240100 0.43342300
vt 0.18240100 0.36468500
vt 0.18240100 0.29594800
vt 0.18240100 0.22721100
vt 0.18240100 0.17040400
vt 0.18240100 0.17040400
vt 0.18240100 0.17040400
vt 0.18240100 0.11359700
vt 0.18240100 0.11359700
vt 0.18240100 0.11359700
vt 0.18240100 0.05679000
vt 0.18240100 0.05679000
vt 0.18240100 0.05679000
vt 0.21529500 0.00000000
vt 0.21529500 0.00000000
vt 0.21529500 0.99853500
vt 0.21529500 0.99853500
vt 0.21529500 0.99853500
vt 0.21529500 0.99853500
vt 0.21529500 0.99853500
f 57/57/57 111/111/111 108/108/108
f 109/109/109 104/104/104 60/60/60
f 65/65/65 104/104/104 102/102/102
f 58/58/58 53/53/53 111/111/111
f 121/121/121 114/114/114 50/50/50
f 61/61/61 104/104/104 65/65/65
f 57/57/57 109/109/109 62/62/62
f 47/47/47 122/122/122 118/118/118
f 116/116/116 111/111/111 53/53/53
f 67/67/67 65/65/65 102/102/102
f 75/75/75 97/97/97 10/10/10
f 17/17/17 15/15/15 96/96/96
f 10/10/10 97/97/97 12/12/12
f 74/74/74 99/99/99 97/97/97
f 72/72/72 99/99/99 75/75/75
f 2/2/2 74/74/74 6/6/6
f 74/74/74 9/9/9 5/5/5
f 70/70/70 102/102/102 99/99/99
f 72/72/72 67/67/67 102/102/102
f 135/135/135 39/39/39 138/138/138
f 129/129/129 128/128/128 45/45/45
f 129/129/129 41/41/41 132/132/132
f 143/143/143 139/139/139 33/33/33
f 84/84/84 80/80/80 149/149/149
f 23/23/23 151/151/151 147/147/147
f 83/83/83 149/149/149 85/85/85
f 28/28/28 145/145/145 140/140/140
f 88/88/88 149/149/149 26/26/26
f 39/39/39 132/132/132 41/41/41
f 47/47/47 114/114/114 54/54/54
f 44/44/44 122/122/122 47/47/47
f 129/129/129 45/45/45 41/41/41
f 24/24/24 20/20/20 91/91/91
f 143/143/143 33/33/33 31/31/31
f 31/31/31 23/23/23 147/147/147
f 139/139/139 36/36/36 35/35/35
f 25/25/25 92/92/92 87/87/87
f 45/45/45 125/125/125 122/122/122
f 184/184/184 179/179/179 159/159/159
f 184/184/184 156/156/156 179/179/179
f 179/179/179 173/173/173 159/159/159
f 159/159/159 152/152/152 184/184/184
f 180/180/180 165/165/165 160/160/160
f 168/168/168 182/182/182 170/170/170
f 161/161/161 170/170/170 182/182/182
f 175/175/175 171/171/171 160/160/160
f 198/198/198 187/187/187 250/250/250
f 251/251/251 190/190/190 243/243/243
f 193/193/193 248/248/248 242/242/242
f 197/197/197 233/233/233 199/199/199
f 199/199/199 231/231/231 200/200/200
f 194/194/194 240/240/240 239/239/239
f 195/195/195 238/238/238 235/235/235
f 199/199/199 232/232/232 231/231/231
f 200/200/200 230/230/230 229/229/229
f 229/229/229 201/201/201 200/200/200
f 201/201/201 228/228/228 227/227/227
f 229/229/229 228/228/228 201/201/201
f 201/201/201 227/227/227 226/226/226
f 246/246/246 209/209/209 205/205/205
f 203/203/203 223/223/223 220/220/220
f 246/246/246 205/205/205 214/214/214
f 204/204/204 226/226/226 225/225/225
f 205/205/205 220/220/220 218/218/218
f 246/246/246 214/214/214 213/213/213
f 214/214/214 205/205/205 218/218/218
f 279/279/279 259/259/259 254/254/254
f 257/257/257 273/273/273 279/279/279
f 259/259/259 279/279/279 273/273/273
f 273/273/273 270/270/270 259/259/259
f 276/276/276 259/259/259 268/268/268
f 268/268/268 259/259/259 270/270/270
f 276/276/276 268/268/268 265/265/265
f 262/262/262 259/259/259 276/276/276
f 292/292/292 291/291/291 290/290/290
f 294/294/294 293/293/293 291/291/291
f 296/296/296 295/295/295 294/294/294
f 298/298/298 297/297/297 295/295/295
f 300/300/300 299/299/299 298/298/298
f 308/308/308 301/301/301 300/300/300
f 347/347/347 290/290/290 283/283/283
f 347/347/347 285/285/285 344/344/344
f 290/290/290 338/338/338 292/292/292
f 290/290/290 347/347/347 344/344/344
f 292/292/292 335/335/335 294/294/294
f 290/290/290 344/344/344 340/340/340
f 339/339/339 290/290/290 340/340/340
f 333/333/333 332/332/332 296/296/296
f 333/333/333 294/294/294 334/334/334
f 335/335/335 292/292/292 336/336/336
f 296/296/296 294/294/294 333/333/333
f 296/296/296 331/331/331 298/298/298
f 298/298/298 329/329/329 300/300/300
f 332/332/332 331/331/331 296/296/296
f 310/310/310 304/304/304 348/348/348
f 300/300/300 327/327/327 326/326/326
f 352/352/352 307/307/307 316/316/316
f 298/298/298 330/330/330 329/329/329
f 300/300/300 328/328/328 327/327/327
f 307/307/307 324/324/324 320/320/320
f 351/351/351 315/315/315 313/313/313
f 319/319/319 305/305/305 321/321/321
f 233/233/233 232/232/232 199/199/199
f 231/231/231 230/230/230 200/200/200
f 201/201/201 226/226/226 204/204/204
f 203/203/203 220/220/220 205/205/205
f 291/291/291 289/289/289 290/290/290
f 294/294/294 291/291/291 292/292/292
f 295/295/295 293/293/293 294/294/294
f 298/298/298 295/295/295 296/296/296
f 299/299/299 297/297/297 298/298/298
f 301/301/301 299/299/299 300/300/300
f 290/290/290 287/287/287 283/283/283
f 338/338/338 336/336/336 292/292/292
f 335/335/335 334/334/334 294/294/294
f 331/331/331 330/330/330 298/298/298
f 329/329/329 328/328/328 300/300/300
f 303/303/303 306/306/306 348/348/348
f 300/300/300 326/326/326 308/308/308
f 422/422/422 488/488/488 496/496/496
f 492/492/492 427/427/427 484/484/484
f 431/431/431 481/481/481 485/485/485
f 421/421/421 494/494/494 418/418/418
f 503/503/503 411/411/411 498/498/498
f 426/426/426 432/432/432 487/487/487
f 420/420/420 425/425/425 489/489/489
f 410/410/410 506/506/506 507/507/507
f 502/502/502 414/414/414 495/495/495
f 437/437/437 482/482/482 429/429/429
f 449/449/449 360/360/360 470/470/470
f 371/371/371 469/469/469 368/368/368
f 362/362/362 367/367/367 468/468/468
f 445/445/445 466/466/466 472/472/472
f 440/440/440 443/443/443 476/476/476
f 355/355/355 359/359/359 446/446/446
f 447/447/447 356/356/356 364/364/364
f 439/439/439 475/475/475 478/478/478
f 438/438/438 477/477/477 436/436/436
f 521/521/521 527/527/527 393/393/393
f 517/517/517 402/402/402 514/514/514
f 518/518/518 525/525/525 397/397/397
f 531/531/531 391/391/391 528/528/528
f 456/456/456 543/543/543 450/450/450
f 379/379/379 538/538/538 542/542/542
f 453/453/453 460/460/460 541/541/541
f 386/386/386 532/532/532 539/539/539
f 457/457/457 377/377/377 545/545/545
f 395/395/395 398/398/398 523/523/523
f 413/413/413 417/417/417 501/501/501
f 405/405/405 412/412/412 511/511/511
f 520/520/520 401/401/401 406/406/406
f 380/380/380 462/462/462 374/374/374
f 535/535/535 383/383/383 387/387/387
f 385/385/385 540/540/540 378/378/378
f 530/530/530 390/390/390 396/396/396
f 375/375/375 459/459/459 463/463/463
f 407/407/407 510/510/510 515/515/515
f 580/580/580 553/553/553 575/575/575
f 581/581/581 573/573/573 550/550/550
f 575/575/575 553/553/553 571/571/571
f 553/553/553 580/580/580 549/549/549
f 577/577/577 554/554/554 559/559/559
f 562/562/562 565/565/565 576/576/576
f 556/556/556 576/576/576 565/565/565
f 570/570/570 554/554/554 564/564/564
f 594/594/594 647/647/647 584/584/584
f 648/648/648 638/638/638 589/589/589
f 593/593/593 641/641/641 646/646/646
f 592/592/592 596/596/596 631/631/631
f 596/596/596 597/597/597 628/628/628
f 591/591/591 635/635/635 639/639/639
f 590/590/590 630/630/630 633/633/633
f 596/596/596 628/628/628 629/629/629
f 597/597/597 626/626/626 627/627/627
f 626/626/626 597/597/597 598/598/598
f 598/598/598 624/624/624 625/625/625
f 626/626/626 598/598/598 625/625/625
f 598/598/598 623/623/623 624/624/624
f 644/644/644 603/603/603 606/606/606
f 601/601/601 619/619/619 622/622/622
f 644/644/644 611/611/611 603/603/603
f 599/599/599 621/621/621 623/623/623
f 603/603/603 614/614/614 619/619/619
f 644/644/644 610/610/610 611/611/611
f 611/611/611 614/614/614 603/603/603
f 676/676/676 650/650/650 655/655/655
f 652/652/652 676/676/676 670/670/670
f 655/655/655 670/670/670 676/676/676
f 670/670/670 655/655/655 667/667/667
f 673/673/673 664/664/664 655/655/655
f 664/664/664 667/667/667 655/655/655
f 673/673/673 661/661/661 664/664/664
f 658/658/658 673/673/673 655/655/655
f 690/690/690 688/688/688 689/689/689
f 692/692/692 689/689/689 691/691/691
f 694/694/694 692/692/692 693/693/693
f 696/696/696 693/693/693 695/695/695
f 698/698/698 696/696/696 697/697/697
f 705/705/705 698/698/698 701/701/701
f 745/745/745 679/679/679 687/687/687
f 745/745/745 743/743/743 682/682/682
f 688/688/688 690/690/690 738/738/738
f 687/687/687 743/743/743 745/745/745
f 690/690/690 692/692/692 734/734/734
f 687/687/687 741/741/741 743/743/743
f 737/737/737 741/741/741 687/687/687
f 732/732/732 694/694/694 731/731/731
f 732/732/732 733/733/733 692/692/692
f 734/734/734 735/735/735 690/690/690
f 694/694/694 732/732/732 692/692/692
f 694/694/694 696/696/696 730/730/730
f 696/696/696 698/698/698 728/728/728
f 731/731/731 694/694/694 730/730/730
f 710/710/710 748/748/748 700/700/700
f 698/698/698 725/725/725 726/726/726
f 747/747/747 717/717/717 704/704/704
f 696/696/696 728/728/728 729/729/729
f 698/698/698 726/726/726 727/727/727
f 706/706/706 719/719/719 723/723/723
f 750/750/750 711/711/711 715/715/715
f 718/718/718 721/721/721 703/703/703
f 631/631/631 596/596/596 629/629/629
f 628/628/628 597/597/597 627/627/627
f 598/598/598 599/599/599 623/623/623
f 601/601/601 603/603/603 619/619/619
f 689/689/689 688/688/688 684/684/684
f 692/692/692 690/690/690 689/689/689
f 693/693/693 692/692/692 691/691/691
f 696/696/696 694/694/694 693/693/693
f 697/697/697 696/696/696 695/695/695
f 701/701/701 698/698/698 697/697/697
f 687/687/687 679/679/679 686/686/686
f 738/738/738 690/690/690 735/735/735
f 734/734/734 692/692/692 733/733/733
f 730/730/730 696/696/696 729/729/729
f 728/728/728 698/698/698 727/727/727
f 702/702/702 748/748/748 707/707/707
f 698/698/698 705/705/705 725/725/725
f 3/3/3 7/7/7 357/357/357
f 357/357/357 354/354/354 3/3/3
f 11/11/11 14/14/14 365/365/365
f 365/365/365 363/363/363 11/11/11
f 212/212/212 215/215/215 613/613/613
f 613/613/613 609/609/609 212/212/212
f 27/27/27 29/29/29 384/384/384
f 384/384/384 381/381/381 27/27/27
f 34/34/34 38/38/38 392/392/392
f 392/392/392 388/388/388 34/34/34
f 42/42/42 43/43/43 403/403/403
f 403/403/403 399/399/399 42/42/42
f 280/280/280 252/252/252 649/649/649
f 649/649/649 677/677/677 280/280/280
f 49/49/49 52/52/52 416/416/416
f 416/416/416 409/409/409 49/49/49
f 55/55/55 59/59/59 424/424/424
f 424/424/424 423/423/423 55/55/55
f 64/64/64 68/68/68 435/435/435
f 435/435/435 430/430/430 64/64/64
f 191/191/191 249/249/249 645/645/645
f 645/645/645 587/587/587 191/191/191
f 286/286/286 346/346/346 746/746/746
f 746/746/746 681/681/681 286/286/286
f 79/79/79 82/82/82 454/454/454
f 454/454/454 452/452/452 79/79/79
f 95/95/95 100/100/100 473/473/473
f 473/473/473 467/467/467 95/95/95
f 123/123/123 126/126/126 512/512/512
f 512/512/512 509/509/509 123/123/123
f 130/130/130 133/133/133 522/522/522
f 522/522/522 516/516/516 130/130/130
f 148/148/148 78/78/78 451/451/451
f 451/451/451 544/544/544 148/148/148
f 154/154/154 158/158/158 555/555/555
f 555/555/555 547/547/547 154/154/154
f 162/162/162 163/163/163 558/558/558
f 558/558/558 557/557/557 162/162/162
f 166/166/166 169/169/169 567/567/567
f 567/567/567 563/563/563 166/166/166
f 271/271/271 274/274/274 672/672/672
f 672/672/672 669/669/669 271/271/271
f 189/189/189 196/196/196 595/595/595
f 595/595/595 586/586/586 189/189/189
f 197/197/197 199/199/199 596/596/596
f 596/596/596 592/592/592 197/197/197
f 186/186/186 153/153/153 548/548/548
f 548/548/548 582/582/582 186/186/186
f 202/202/202 207/207/207 602/602/602
f 602/602/602 600/600/600 202/202/202
f 225/225/225 226/226/226 623/623/623
f 623/623/623 621/621/621 225/225/225
f 249/249/249 188/188/188 585/585/585
f 585/585/585 645/645/645 249/249/249
f 216/216/216 217/217/217 616/616/616
f 616/616/616 612/612/612 216/216/216
f 226/226/226 227/227/227 624/624/624
f 624/624/624 623/623/623 226/226/226
f 327/327/327 328/328/328 727/727/727
f 727/727/727 726/726/726 327/327/327
f 210/210/210 247/247/247 642/642/642
f 642/642/642 605/605/605 210/210/210
f 98/98/98 101/101/101 479/479/479
f 479/479/479 474/474/474 98/98/98
f 245/245/245 211/211/211 608/608/608
f 608/608/608 643/643/643 245/245/245
f 253/253/253 260/260/260 657/657/657
f 657/657/657 651/651/651 253/253/253
f 258/258/258 261/261/261 660/660/660
f 660/660/660 656/656/656 258/258/258
f 181/181/181 167/167/167 561/561/561
f 561/561/561 578/578/578 181/181/181
f 227/227/227 228/228/228 625/625/625
f 625/625/625 624/624/624 227/227/227
f 281/281/281 288/288/288 685/685/685
f 685/685/685 680/680/680 281/281/281
f 349/349/349 314/314/314 712/712/712
f 712/712/712 751/751/751 349/349/349
f 291/291/291 293/293/293 691/691/691
f 691/691/691 689/689/689 291/291/291
f 176/176/176 178/178/178 572/572/572
f 572/572/572 569/569/569 176/176/176
f 323/323/323 325/325/325 724/724/724
f 724/724/724 720/720/720 323/323/323
f 77/77/77 1/1/1 353/353/353
f 353/353/353 444/444/444 77/77/77
f 297/297/297 299/299/299 697/697/697
f 697/697/697 695/695/695 297/297/297
f 299/299/299 301/301/301 701/701/701
f 701/701/701 697/697/697 299/299/299
f 106/106/106 107/107/107 490/490/490
f 490/490/490 483/483/483 106/106/106
f 302/302/302 311/311/311 709/709/709
f 709/709/709 699/699/699 302/302/302
f 326/326/326 327/327/327 726/726/726
f 726/726/726 725/725/725 326/326/326
f 328/328/328 329/329/329 728/728/728
f 728/728/728 727/727/727 328/328/328
f 330/330/330 331/331/331 730/730/730
f 730/730/730 729/729/729 330/330/330
f 332/332/332 333/333/333 732/732/732
f 732/732/732 731/731/731 332/332/332
f 336/336/336 338/338/338 738/738/738
f 738/738/738 735/735/735 336/336/336
f 342/342/342 343/343/343 744/744/744
f 744/744/744 740/740/740 342/342/342
f 346/346/346 282/282/282 678/678/678
f 678/678/678 746/746/746 346/346/346
f 309/309/309 350/350/350 749/749/749
f 749/749/749 708/708/708 309/309/309
f 112/112/112 115/115/115 500/500/500
f 500/500/500 493/493/493 112/112/112
f 289/289/289 291/291/291 689/689/689
f 689/689/689 684/684/684 289/289/289
f 231/231/231 232/232/232 629/629/629
f 629/629/629 628/628/628 231/231/231
f 264/264/264 267/267/267 666/666/666
f 666/666/666 663/663/663 264/264/264
f 329/329/329 330/330/330 729/729/729
f 729/729/729 728/728/728 329/329/329
f 16/16/16 94/94/94 471/471/471
f 471/471/471 370/370/370 16/16/16
f 331/331/331 332/332/332 731/731/731
f 731/731/731 730/730/730 331/331/331
f 219/219/219 222/222/222 617/617/617
f 617/617/617 615/615/615 219/219/219
f 127/127/127 131/131/131 519/519/519
f 519/519/519 513/513/513 127/127/127
f 293/293/293 295/295/295 693/693/693
f 693/693/693 691/691/691 293/293/293
f 200/200/200 201/201/201 598/598/598
f 598/598/598 597/597/597 200/200/200
f 333/333/333 334/334/334 733/733/733
f 733/733/733 732/732/732 333/333/333
f 295/295/295 297/297/297 695/695/695
f 695/695/695 693/693/693 295/295/295
f 277/277/277 266/266/266 662/662/662
f 662/662/662 674/674/674 277/277/277
f 142/142/142 146/146/146 536/536/536
f 536/536/536 534/534/534 142/142/142
f 71/71/71 76/76/76 448/448/448
f 448/448/448 441/441/441 71/71/71
f 337/337/337 341/341/341 739/739/739
f 739/739/739 736/736/736 337/337/337
f 4/4/4 8/8/8 361/361/361
f 361/361/361 358/358/358 4/4/4
f 13/13/13 18/18/18 369/369/369
f 369/369/369 366/366/366 13/13/13
f 21/21/21 22/22/22 376/376/376
f 376/376/376 372/372/372 21/21/21
f 30/30/30 32/32/32 389/389/389
f 389/389/389 382/382/382 30/30/30
f 37/37/37 40/40/40 400/400/400
f 400/400/400 394/394/394 37/37/37
f 46/46/46 48/48/48 408/408/408
f 408/408/408 404/404/404 46/46/46
f 51/51/51 56/56/56 419/419/419
f 419/419/419 415/415/415 51/51/51
f 63/63/63 66/66/66 433/433/433
f 433/433/433 428/428/428 63/63/63
f 69/69/69 73/73/73 442/442/442
f 442/442/442 434/434/434 69/69/69
f 255/255/255 278/278/278 675/675/675
f 675/675/675 654/654/654 255/255/255
f 81/81/81 86/86/86 461/461/461
f 461/461/461 455/455/455 81/81/81
f 93/93/93 19/19/19 373/373/373
f 373/373/373 465/465/465 93/93/93
f 263/263/263 277/277/277 674/674/674
f 674/674/674 659/659/659 263/263/263
f 119/119/119 124/124/124 508/508/508
f 508/508/508 504/504/504 119/119/119
f 134/134/134 136/136/136 526/526/526
f 526/526/526 524/524/524 134/134/134
f 221/221/221 224/224/224 620/620/620
f 620/620/620 618/618/618 221/221/221
f 172/172/172 174/174/174 568/568/568
f 568/568/568 566/566/566 172/172/172
f 177/177/177 157/157/157 551/551/551
f 551/551/551 574/574/574 177/177/177
f 164/164/164 183/183/183 579/579/579
f 579/579/579 560/560/560 164/164/164
f 199/199/199 200/200/200 597/597/597
f 597/597/597 596/596/596 199/199/199
f 201/201/201 204/204/204 599/599/599
f 599/599/599 598/598/598 201/201/201
f 206/206/206 208/208/208 607/607/607
f 607/607/607 604/604/604 206/206/206
f 155/155/155 185/185/185 583/583/583
f 583/583/583 552/552/552 155/155/155
f 229/229/229 230/230/230 627/627/627
f 627/627/627 626/626/626 229/229/229
f 234/234/234 237/237/237 634/634/634
f 634/634/634 632/632/632 234/234/234
f 241/241/241 192/192/192 588/588/588
f 588/588/588 637/637/637 241/241/241
f 317/317/317 322/322/322 722/722/722
f 722/722/722 716/716/716 317/317/317
f 269/269/269 272/272/272 668/668/668
f 668/668/668 665/665/665 269/269/269
f 275/275/275 256/256/256 653/653/653
f 653/653/653 671/671/671 275/275/275
f 103/103/103 105/105/105 486/486/486
f 486/486/486 480/480/480 103/103/103
f 228/228/228 229/229/229 626/626/626
f 626/626/626 625/625/625 228/228/228
f 110/110/110 113/113/113 497/497/497
f 497/497/497 491/491/491 110/110/110
f 335/335/335 336/336/336 735/735/735
f 735/735/735 734/734/734 335/335/335
f 345/345/345 284/284/284 683/683/683
f 683/683/683 742/742/742 345/345/345
f 230/230/230 231/231/231 628/628/628
f 628/628/628 627/627/627 230/230/230
f 117/117/117 120/120/120 505/505/505
f 505/505/505 499/499/499 117/117/117
f 232/232/232 233/233/233 631/631/631
f 631/631/631 629/629/629 232/232/232
f 236/236/236 244/244/244 640/640/640
f 640/640/640 636/636/636 236/236/236
f 89/89/89 90/90/90 464/464/464
f 464/464/464 458/458/458 89/89/89
f 312/312/312 318/318/318 714/714/714
f 714/714/714 713/713/713 312/312/312
f 334/334/334 335/335/335 734/734/734
f 734/734/734 733/733/733 334/334/334
f 137/137/137 141/141/141 533/533/533
f 533/533/533 529/529/529 137/137/137
f 144/144/144 150/150/150 546/546/546
f 546/546/546 537/537/537 144/144/144

