mtllib material.mtl
usemtl Material-塑胶__3_.004
v -0.02508000 -0.01927100 -0.00212400
v -0.02614900 -0.01935000 -0.00213000
v -0.02456600 -0.01922800 -0.00001500
v -0.02456600 -0.01922800 -0.00001500
v -0.02456600 -0.01922800 -0.00001500
v -0.02402600 -0.01919200 -0.00071700
v -0.02402600 -0.01919200 -0.00071700
v -0.02349000 -0.01915500 -0.00000700
v -0.02349000 -0.01915500 -0.00000700
v -0.02349000 -0.01915500 -0.00000700
v -0.02296600 -0.01912700 -0.00212900
v -0.02190700 -0.01905900 -0.00212700
v -0.02612800 -0.01934600 0.00210300
v -0.02402600 -0.01919200 0.00070300
v -0.02402600 -0.01919200 0.00070300
v -0.02506200 -0.01962000 0.00211600
v -0.02296700 -0.01912700 0.00211400
v -0.02190600 -0.01905900 0.00211400
v -0.02503300 -0.01997100 -0.00212400
v -0.02452200 -0.01992700 -0.00002300
v -0.02452200 -0.01992700 -0.00002300
v -0.02452200 -0.01992700 -0.00002300
v -0.02609500 -0.02004800 -0.00212400
v -0.02397800 -0.01989100 -0.00071600
v -0.02397800 -0.01989100 -0.00071600
v -0.02344400 -0.01985400 -0.00000700
v -0.02344400 -0.01985400 -0.00000700
v -0.02344400 -0.01985400 -0.00000700
v -0.02292000 -0.01982600 -0.00212600
v -0.02186800 -0.01975900 -0.00211900
v -0.02506200 -0.01962100 0.00211600
v -0.02606600 -0.02004500 0.00208400
v -0.02397900 -0.01989100 0.00070400
v -0.02397900 -0.01989100 0.00070400
v -0.02292000 -0.01982600 0.00211200
v -0.02186600 -0.01975900 0.00210600
v -0.02348900 -0.01915500 -0.00000700
v -0.02348900 -0.01915500 -0.00000700
v -0.02348900 -0.01915500 -0.00000700
v -0.02344400 -0.01985400 -0.00000700
v -0.02344400 -0.01985400 -0.00000700
v -0.02344400 -0.01985400 -0.00000700
v -0.02190700 -0.01906000 -0.00212700
v -0.02190700 -0.01906000 -0.00212700
v -0.02190700 -0.01906000 -0.00212700
v -0.02190600 -0.01905900 0.00211400
v -0.02190600 -0.01905900 0.00211400
v -0.02190600 -0.01905900 0.00211400
v -0.02186600 -0.01975800 0.00210600
v -0.02186600 -0.01975800 0.00210600
v -0.02186600 -0.01975800 0.00210600
v -0.02186600 -0.01975800 0.00210600
v -0.02344400 -0.01985400 -0.00000700
v -0.02344400 -0.01985400 -0.00000700
v -0.02344400 -0.01985400 -0.00000700
v -0.02292000 -0.01982500 0.00211300
v -0.02292000 -0.01982500 0.00211300
v -0.02292000 -0.01982500 0.00211300
v -0.02190600 -0.01906000 0.00211500
v -0.02190600 -0.01906000 0.00211500
v -0.02190600 -0.01906000 0.00211500
v -0.02296700 -0.01912700 0.00211500
v -0.02296700 -0.01912700 0.00211500
v -0.02296700 -0.01912700 0.00211500
v -0.02186600 -0.01975800 0.00210700
v -0.02186600 -0.01975800 0.00210700
v -0.02186600 -0.01975800 0.00210700
v -0.02186600 -0.01975800 0.00210700
v -0.02296800 -0.01912700 0.00211400
v -0.02296800 -0.01912700 0.00211400
v -0.02296800 -0.01912700 0.00211400
v -0.02296800 -0.01912700 0.00211400
v -0.02402600 -0.01919300 0.00070300
v -0.02402600 -0.01919300 0.00070300
v -0.02402600 -0.01919300 0.00070300
v -0.02397900 -0.01989100 0.00070500
v -0.02397900 -0.01989100 0.00070500
v -0.02397900 -0.01989100 0.00070500
v -0.02397900 -0.01989100 0.00070500
v -0.02292100 -0.01982500 0.00211200
v -0.02292100 -0.01982500 0.00211200
v -0.02292100 -0.01982500 0.00211200
v -0.02506100 -0.01962100 0.00211600
v -0.02506100 -0.01962100 0.00211600
v -0.02506100 -0.01962100 0.00211600
v -0.02397800 -0.01989100 0.00070500
v -0.02397800 -0.01989100 0.00070500
v -0.02397800 -0.01989100 0.00070500
v -0.02402500 -0.01919200 0.00070300
v -0.02402500 -0.01919200 0.00070300
v -0.02402500 -0.01919200 0.00070300
v -0.02612800 -0.01934700 0.00210300
v -0.02612800 -0.01934700 0.00210300
v -0.02612800 -0.01934700 0.00210300
v -0.02606600 -0.02004400 0.00208500
v -0.02606600 -0.02004400 0.00208500
v -0.02606600 -0.02004400 0.00208500
v -0.02506200 -0.01962100 0.00211600
v -0.02506200 -0.01962100 0.00211600
v -0.02506200 -0.01962100 0.00211600
v -0.02456600 -0.01922800 -0.00001600
v -0.02456600 -0.01922800 -0.00001600
v -0.02456600 -0.01922800 -0.00001600
v -0.02456600 -0.01922800 -0.00001600
v -0.02452300 -0.01992700 -0.00002400
v -0.02452300 -0.01992700 -0.00002400
v -0.02452300 -0.01992700 -0.00002400
v -0.02606600 -0.02004400 0.00208400
v -0.02606600 -0.02004400 0.00208400
v -0.02606600 -0.02004400 0.00208400
v -0.02614900 -0.01935000 -0.00213000
v -0.02614900 -0.01935000 -0.00213000
v -0.02614900 -0.01935000 -0.00213000
v -0.02609500 -0.02004800 -0.00212400
v -0.02609500 -0.02004800 -0.00212400
v -0.02609500 -0.02004800 -0.00212400
v -0.02456600 -0.01922800 -0.00001500
v -0.02456600 -0.01922800 -0.00001500
v -0.02456600 -0.01922800 -0.00001500
v -0.02503300 -0.01997000 -0.00212400
v -0.02503300 -0.01997000 -0.00212400
v -0.02503300 -0.01997000 -0.00212400
v -0.02609500 -0.02004800 -0.00212500
v -0.02609500 -0.02004800 -0.00212500
v -0.02609500 -0.02004800 -0.00212500
v -0.02614900 -0.01935000 -0.00213100
v -0.02614900 -0.01935000 -0.00213100
v -0.02614900 -0.01935000 -0.00213100
v -0.02508000 -0.01927200 -0.00212400
v -0.02508000 -0.01927200 -0.00212400
v -0.02508000 -0.01927200 -0.00212400
v -0.02397800 -0.01989100 -0.00071600
v -0.02397800 -0.01989100 -0.00071600
v -0.02397800 -0.01989100 -0.00071600
v -0.02397800 -0.01989100 -0.00071600
v -0.02507900 -0.01927200 -0.00212400
v -0.02507900 -0.01927200 -0.00212400
v -0.02507900 -0.01927200 -0.00212400
v -0.02507900 -0.01927200 -0.00212400
v -0.02402500 -0.01919200 -0.00071700
v -0.02402500 -0.01919200 -0.00071700
v -0.02402500 -0.01919200 -0.00071700
v -0.02503200 -0.01997000 -0.00212400
v -0.02503200 -0.01997000 -0.00212400
v -0.02503200 -0.01997000 -0.00212400
v -0.02397800 -0.01989100 -0.00071600
v -0.02397800 -0.01989100 -0.00071600
v -0.02397800 -0.01989100 -0.00071600
v -0.02397800 -0.01989100 -0.00071600
v -0.02296700 -0.01912700 -0.00212900
v -0.02296700 -0.01912700 -0.00212900
v -0.02296700 -0.01912700 -0.00212900
v -0.02296700 -0.01912700 -0.00212900
v -0.02292100 -0.01982500 -0.00212600
v -0.02292100 -0.01982500 -0.00212600
v -0.02292100 -0.01982500 -0.00212600
v -0.02402600 -0.01919300 -0.00071700
v -0.02402600 -0.01919300 -0.00071700
v -0.02402600 -0.01919300 -0.00071700
v -0.02190700 -0.01906000 -0.00212800
v -0.02190700 -0.01906000 -0.00212800
v -0.02190700 -0.01906000 -0.00212800
v -0.02186800 -0.01975900 -0.00211900
v -0.02186800 -0.01975900 -0.00211900
v -0.02186800 -0.01975900 -0.00211900
v -0.02292000 -0.01982500 -0.00212700
v -0.02292000 -0.01982500 -0.00212700
v -0.02292000 -0.01982500 -0.00212700
v -0.02296600 -0.01912700 -0.00212900
v -0.02296600 -0.01912700 -0.00212900
v -0.02296600 -0.01912700 -0.00212900
v -0.02186700 -0.01975900 -0.00211800
v -0.02186700 -0.01975900 -0.00211800
v -0.02186700 -0.01975900 -0.00211800
v -0.02348900 -0.01915500 -0.00000700
v -0.02348900 -0.01915500 -0.00000700
v -0.02348900 -0.01915500 -0.00000700
v -0.02348900 -0.01915500 -0.00000700
v -0.02612800 -0.01934700 0.00210200
v -0.02612800 -0.01934700 0.00210200
v -0.02612800 -0.01934700 0.00210200
v -0.02452300 -0.01992700 -0.00002300
v -0.02452300 -0.01992700 -0.00002300
v -0.02452300 -0.01992700 -0.00002300
v -0.02508000 -0.01927200 -0.00212400
v -0.02614900 -0.01935100 -0.00213000
v -0.02456600 -0.01922900 -0.00001500
v -0.02456600 -0.01922900 -0.00001500
v -0.02456600 -0.01922900 -0.00001500
v -0.02402600 -0.01919300 -0.00071700
v -0.02402600 -0.01919300 -0.00071700
v -0.02349000 -0.01915600 -0.00000700
v -0.02349000 -0.01915600 -0.00000700
v -0.02349000 -0.01915600 -0.00000700
v -0.02296600 -0.01912800 -0.00212900
v -0.02190700 -0.01906000 -0.00212700
v -0.02612800 -0.01934700 0.00210200
v -0.02402600 -0.01919300 0.00070300
v -0.02402600 -0.01919300 0.00070300
v -0.02506200 -0.01962100 0.00211500
v -0.02296700 -0.01912800 0.00211400
v -0.02190600 -0.01906000 0.00211400
v -0.02503300 -0.01997000 -0.00212400
v -0.02452200 -0.01992600 -0.00002300
v -0.02452200 -0.01992600 -0.00002300
v -0.02452200 -0.01992600 -0.00002300
v -0.02609500 -0.02004700 -0.00212400
v -0.02397800 -0.01989000 -0.00071600
v -0.02397800 -0.01989000 -0.00071600
v -0.02344400 -0.01985300 -0.00000700
v -0.02344400 -0.01985300 -0.00000700
v -0.02344400 -0.01985300 -0.00000700
v -0.02292000 -0.01982500 -0.00212600
v -0.02186800 -0.01975800 -0.00211900
v -0.02506200 -0.01962000 0.00211500
v -0.02606600 -0.02004400 0.00208400
v -0.02397900 -0.01989000 0.00070400
v -0.02397900 -0.01989000 0.00070400
v -0.02292000 -0.01982500 0.00211200
v -0.02186600 -0.01975800 0.00210600
v -0.02349000 -0.01915500 -0.00000700
v -0.02349000 -0.01915500 -0.00000700
v -0.02349000 -0.01915500 -0.00000700
v -0.02349000 -0.01915500 -0.00000700
v -0.02344500 -0.01985400 -0.00000700
v -0.02344500 -0.01985400 -0.00000700
v -0.02344500 -0.01985400 -0.00000700
v -0.02190800 -0.01906000 -0.00212700
v -0.02190800 -0.01906000 -0.00212700
v -0.02190800 -0.01906000 -0.00212700
v -0.02190700 -0.01906000 0.00211400
v -0.02190700 -0.01906000 0.00211400
v -0.02190700 -0.01906000 0.00211400
v -0.02186700 -0.01975900 0.00210700
v -0.02186700 -0.01975900 0.00210700
v -0.02186700 -0.01975900 0.00210700
v -0.02186700 -0.01975900 0.00210700
v -0.02344500 -0.01985400 -0.00000700
v -0.02344500 -0.01985400 -0.00000700
v -0.02344500 -0.01985400 -0.00000700
v -0.02292000 -0.01982500 0.00211200
v -0.02292000 -0.01982500 0.00211200
v -0.02292000 -0.01982500 0.00211200
v -0.02190600 -0.01906000 0.00211400
v -0.02190600 -0.01906000 0.00211400
v -0.02190600 -0.01906000 0.00211400
v -0.02296700 -0.01912700 0.00211400
v -0.02296700 -0.01912700 0.00211400
v -0.02296700 -0.01912700 0.00211400
v -0.02296700 -0.01912700 0.00211400
v -0.02186600 -0.01975800 0.00210600
v -0.02186600 -0.01975800 0.00210600
v -0.02186600 -0.01975800 0.00210600
v -0.02186600 -0.01975800 0.00210600
v -0.02296700 -0.01912700 0.00211400
v -0.02296700 -0.01912700 0.00211400
v -0.02296700 -0.01912700 0.00211400
v -0.02296700 -0.01912700 0.00211400
v -0.02402500 -0.01919200 0.00070300
v -0.02402500 -0.01919200 0.00070300
v -0.02402500 -0.01919200 0.00070300
v -0.02397800 -0.01989100 0.00070400
v -0.02397800 -0.01989100 0.00070400
v -0.02397800 -0.01989100 0.00070400
v -0.02397800 -0.01989100 0.00070400
v -0.02292000 -0.01982500 0.00211200
v -0.02292000 -0.01982500 0.00211200
v -0.02292000 -0.01982500 0.00211200
v -0.02506200 -0.01962100 0.00211500
v -0.02506200 -0.01962100 0.00211500
v -0.02506200 -0.01962100 0.00211500
v -0.02397900 -0.01989100 0.00070400
v -0.02397900 -0.01989100 0.00070400
v -0.02397900 -0.01989100 0.00070400
v -0.02402600 -0.01919300 0.00070300
v -0.02402600 -0.01919300 0.00070300
v -0.02402600 -0.01919300 0.00070300
v -0.02612800 -0.01934700 0.00210200
v -0.02612800 -0.01934700 0.00210200
v -0.02612800 -0.01934700 0.00210200
v -0.02606600 -0.02004400 0.00208400
v -0.02606600 -0.02004400 0.00208400
v -0.02606600 -0.02004400 0.00208400
v -0.02506200 -0.01962100 0.00211500
v -0.02506200 -0.01962100 0.00211500
v -0.02506200 -0.01962100 0.00211500
v -0.02456500 -0.01922800 -0.00001500
v -0.02456500 -0.01922800 -0.00001500
v -0.02456500 -0.01922800 -0.00001500
v -0.02456500 -0.01922800 -0.00001500
v -0.02452200 -0.01992700 -0.00002300
v -0.02452200 -0.01992700 -0.00002300
v -0.02452200 -0.01992700 -0.00002300
v -0.02606500 -0.02004400 0.00208500
v -0.02606500 -0.02004400 0.00208500
v -0.02606500 -0.02004400 0.00208500
v -0.02606500 -0.02004400 0.00208500
v -0.02614800 -0.01935000 -0.00213100
v -0.02614800 -0.01935000 -0.00213100
v -0.02614800 -0.01935000 -0.00213100
v -0.02614800 -0.01935000 -0.00213100
v -0.02609400 -0.02004800 -0.00212500
v -0.02609400 -0.02004800 -0.00212500
v -0.02609400 -0.02004800 -0.00212500
v -0.02456500 -0.01922800 -0.00001600
v -0.02456500 -0.01922800 -0.00001600
v -0.02456500 -0.01922800 -0.00001600
v -0.02503300 -0.01997000 -0.00212300
v -0.02503300 -0.01997000 -0.00212300
v -0.02503300 -0.01997000 -0.00212300
v -0.02503300 -0.01997000 -0.00212300
v -0.02609500 -0.02004800 -0.00212400
v -0.02609500 -0.02004800 -0.00212400
v -0.02609500 -0.02004800 -0.00212400
v -0.02614900 -0.01935000 -0.00213000
v -0.02614900 -0.01935000 -0.00213000
v -0.02614900 -0.01935000 -0.00213000
v -0.02614900 -0.01935000 -0.00213000
v -0.02508000 -0.01927200 -0.00212300
v -0.02508000 -0.01927200 -0.00212300
v -0.02508000 -0.01927200 -0.00212300
v -0.02397800 -0.01989100 -0.00071500
v -0.02397800 -0.01989100 -0.00071500
v -0.02397800 -0.01989100 -0.00071500
v -0.02397800 -0.01989100 -0.00071500
v -0.02508000 -0.01927200 -0.00212300
v -0.02508000 -0.01927200 -0.00212300
v -0.02508000 -0.01927200 -0.00212300
v -0.02508000 -0.01927200 -0.00212300
v -0.02402600 -0.01919300 -0.00071700
v -0.02402600 -0.01919300 -0.00071700
v -0.02402600 -0.01919300 -0.00071700
v -0.02503300 -0.01997000 -0.00212400
v -0.02503300 -0.01997000 -0.00212400
v -0.02503300 -0.01997000 -0.00212400
v -0.02397800 -0.01989100 -0.00071500
v -0.02397800 -0.01989100 -0.00071500
v -0.02397800 -0.01989100 -0.00071500
v -0.02397800 -0.01989100 -0.00071500
v -0.02296600 -0.01912700 -0.00212900
v -0.02296600 -0.01912700 -0.00212900
v -0.02296600 -0.01912700 -0.00212900
v -0.02296600 -0.01912700 -0.00212900
v -0.02292000 -0.01982500 -0.00212600
v -0.02292000 -0.01982500 -0.00212600
v -0.02292000 -0.01982500 -0.00212600
v -0.02402500 -0.01919200 -0.00071700
v -0.02402500 -0.01919200 -0.00071700
v -0.02402500 -0.01919200 -0.00071700
v -0.02190700 -0.01906000 -0.00212700
v -0.02190700 -0.01906000 -0.00212700
v -0.02190700 -0.01906000 -0.00212700
v -0.02186800 -0.01975900 -0.00211800
v -0.02186800 -0.01975900 -0.00211800
v -0.02186800 -0.01975900 -0.00211800
v -0.02186800 -0.01975900 -0.00211800
v -0.02292000 -0.01982500 -0.00212600
v -0.02292000 -0.01982500 -0.00212600
v -0.02292000 -0.01982500 -0.00212600
v -0.02296600 -0.01912700 -0.00212800
v -0.02296600 -0.01912700 -0.00212800
v -0.02296600 -0.01912700 -0.00212800
v -0.02296600 -0.01912700 -0.00212800
v -0.02186800 -0.01975900 -0.00211900
v -0.02186800 -0.01975900 -0.00211900
v -0.02186800 -0.01975900 -0.00211900
v -0.02186800 -0.01975900 -0.00211900
v -0.02349000 -0.01915500 -0.00000700
v -0.02349000 -0.01915500 -0.00000700
v -0.02349000 -0.01915500 -0.00000700
v -0.02349000 -0.01915500 -0.00000700
v -0.02612800 -0.01934700 0.00210300
v -0.02612800 -0.01934700 0.00210300
v -0.02612800 -0.01934700 0.00210300
v -0.02452200 -0.01992700 -0.00002400
v -0.02452200 -0.01992700 -0.00002400
v -0.02452200 -0.01992700 -0.00002400
v -0.02452200 -0.01992700 -0.00002400
vn 0.30320000 0.64220000 -0.70400000
vn -0.78300000 0.49900000 -0.37150000
vn -0.07000000 0.99750000 -0.00010000
vn -0.06990000 0.99760000 -0.00000000
vn -0.70710000 0.70710000 0.00640000
vn -0.06800000 0.99770000 -0.00200000
vn -0.06050000 0.88920000 -0.45350000
vn -0.06610000 0.99780000 -0.00010000
vn 0.64640000 0.76300000 -0.00020000
vn -0.06610000 0.99780000 -0.00000000
vn -0.39250000 0.59480000 -0.70150000
vn 0.70490000 0.60050000 -0.37740000
vn -0.49790000 0.79780000 0.34010000
vn -0.06800000 0.99770000 0.00190000
vn -0.10200000 0.89370000 0.43700000
vn -0.01430000 -0.25860000 0.96590000
vn -0.39280000 0.59400000 0.70210000
vn 0.70850000 0.60110000 0.36970000
vn 0.39120000 -0.59450000 -0.70250000
vn -0.60930000 -0.79290000 0.00820000
vn 0.06990000 -0.99760000 0.00010000
vn 0.06990000 -0.99760000 0.00000000
vn -0.70020000 -0.60830000 -0.37370000
vn 0.06130000 -0.88750000 -0.45670000
vn 0.06800000 -0.99770000 0.00190000
vn 0.06620000 -0.99780000 0.00010000
vn 0.06620000 -0.99780000 -0.00010000
vn 0.74650000 -0.66540000 -0.00010000
vn -0.30380000 -0.64200000 -0.70390000
vn 0.78120000 -0.50700000 -0.36430000
vn 0.92540000 -0.08960000 0.36820000
vn -0.37890000 -0.86500000 0.32880000
vn 0.05970000 -0.90080000 0.43000000
vn 0.06800000 -0.99770000 -0.00200000
vn -0.30370000 -0.64230000 0.70370000
vn 0.77650000 -0.50810000 0.37280000
vn -0.06480000 0.99790000 -0.00040000
vn -0.59790000 -0.03740000 0.80070000
vn 0.79820000 0.05290000 0.60010000
vn 0.79830000 0.05300000 0.60000000
vn -0.59920000 -0.04030000 0.79960000
vn 0.06590000 -0.99780000 0.00270000
vn -0.06610000 0.99780000 -0.00240000
vn 0.79850000 0.05210000 0.59970000
vn 0.59920000 0.02300000 -0.80030000
vn -0.06630000 0.99780000 0.00380000
vn 0.79850000 0.05210000 -0.59980000
vn 0.59910000 0.02420000 0.80030000
vn 0.59990000 0.02610000 0.79970000
vn 0.79870000 0.05210000 -0.59950000
vn 0.06360000 -0.99800000 -0.00270000
vn 0.79860000 0.05200000 -0.59960000
vn 0.06570000 -0.99780000 -0.00270000
vn 0.79830000 0.05290000 -0.60000000
vn -0.59920000 -0.04020000 -0.79960000
vn -0.99740000 -0.07240000 0.00650000
vn 0.06010000 -0.99820000 -0.00300000
vn 0.00030000 -0.00590000 1.00000000
vn -0.05830000 0.99820000 0.01030000
vn 0.99840000 0.05720000 0.00410000
vn 0.00040000 -0.00590000 1.00000000
vn -0.99810000 -0.06160000 -0.00030000
vn 0.00040000 -0.00590000 1.00000000
vn -0.06880000 0.99760000 0.00880000
vn 0.06570000 -0.99770000 -0.01450000
vn 0.00030000 -0.00590000 1.00000000
vn 0.00030000 -0.00580000 1.00000000
vn 0.99830000 0.05730000 -0.00670000
vn -0.79720000 -0.05500000 0.60130000
vn -0.79720000 -0.05490000 0.60110000
vn 0.60030000 0.03750000 0.79890000
vn -0.06720000 0.99770000 0.00250000
vn -0.06230000 0.99810000 0.00410000
vn -0.79700000 -0.05550000 0.60140000
vn -0.59710000 -0.04200000 -0.80110000
vn -0.79720000 -0.05560000 0.60120000
vn 0.06420000 -0.99790000 -0.00440000
vn -0.79710000 -0.05550000 0.60130000
vn -0.60210000 -0.04190000 -0.79730000
vn 0.06530000 -0.99790000 -0.00480000
vn 0.60040000 0.03890000 0.79880000
vn -0.79740000 -0.05500000 0.60090000
vn 0.79700000 0.05390000 0.60150000
vn -0.04820000 -0.98700000 0.15310000
vn -0.18460000 0.97010000 0.15760000
vn 0.60100000 0.03870000 -0.79830000
vn -0.04680000 -0.98730000 0.15190000
vn 0.79730000 0.05310000 0.60120000
vn -0.18580000 0.96980000 0.15810000
vn 0.79720000 0.05320000 0.60140000
vn 0.59910000 0.03870000 -0.79980000
vn 0.00050000 -0.00610000 1.00000000
vn -0.99450000 -0.10480000 0.00240000
vn 0.22440000 0.97440000 0.01530000
vn 0.40330000 -0.91400000 -0.04490000
vn 0.00040000 -0.00610000 1.00000000
vn -0.99740000 -0.06280000 -0.03640000
vn 0.27640000 0.96040000 0.03620000
vn 0.00040000 -0.00610000 1.00000000
vn 0.39250000 -0.91970000 0.00920000
vn 0.60020000 0.05610000 -0.79790000
vn -0.79790000 -0.05600000 -0.60020000
vn -0.06970000 0.99760000 -0.00120000
vn -0.79780000 -0.05600000 -0.60030000
vn -0.79800000 -0.05600000 -0.60010000
vn 0.58000000 0.03500000 -0.81380000
vn 0.06520000 -0.99760000 -0.02340000
vn 0.06940000 -0.99750000 0.01020000
vn -0.79760000 -0.05680000 -0.60040000
vn -0.59390000 -0.06730000 0.80170000
vn -0.07390000 0.99730000 -0.00070000
vn -0.79750000 -0.05680000 0.60060000
vn -0.59810000 -0.05370000 -0.79960000
vn -0.59810000 -0.05320000 -0.79960000
vn -0.79780000 -0.05670000 0.60030000
vn 0.07410000 -0.99720000 0.00140000
vn 0.60000000 0.02830000 0.79950000
vn -0.79780000 -0.05620000 0.60040000
vn -0.07390000 0.99730000 -0.00140000
vn 0.07120000 -0.99740000 0.00540000
vn 0.99760000 0.06990000 -0.00260000
vn 0.00040000 -0.00610000 -1.00000000
vn 0.07550000 -0.99710000 0.00640000
vn -0.99700000 -0.07770000 0.00110000
vn 0.00040000 -0.00620000 -1.00000000
vn 0.00050000 -0.00620000 -1.00000000
vn -0.99710000 -0.07610000 -0.00340000
vn -0.07190000 0.99730000 -0.01210000
vn 0.99810000 0.06080000 0.01180000
vn -0.07920000 0.99690000 0.00260000
vn 0.00050000 -0.00610000 -1.00000000
vn 0.59960000 0.04300000 0.79910000
vn 0.06900000 -0.99760000 0.00380000
vn 0.79730000 0.05320000 -0.60130000
vn 0.79730000 0.05310000 -0.60130000
vn -0.59970000 -0.03880000 -0.79930000
vn 0.79690000 0.05380000 -0.60160000
vn -0.06880000 0.99760000 -0.00540000
vn 0.79690000 0.05380000 -0.60170000
vn 0.79710000 0.05320000 -0.60150000
vn -0.06950000 0.99760000 -0.00360000
vn 0.59950000 0.04150000 0.79930000
vn 0.07060000 -0.99750000 0.00270000
vn -0.59980000 -0.04130000 -0.79910000
vn 0.79700000 0.05380000 -0.60150000
vn -0.59960000 -0.03940000 0.79930000
vn -0.79720000 -0.05560000 -0.60120000
vn 0.06720000 -0.99770000 0.00520000
vn -0.79740000 -0.05550000 -0.60090000
vn -0.79730000 -0.05490000 -0.60100000
vn -0.06580000 0.99780000 -0.00250000
vn -0.79730000 -0.05510000 -0.60110000
vn 0.60020000 0.03650000 -0.79900000
vn -0.79740000 -0.05500000 -0.60100000
vn 0.06700000 -0.99770000 0.00370000
vn 0.59980000 0.03570000 -0.79940000
vn -0.79700000 -0.05560000 -0.60150000
vn -0.06550000 0.99790000 -0.00170000
vn -0.59950000 -0.04000000 0.79940000
vn -0.05710000 0.99830000 -0.00690000
vn 0.99850000 0.05490000 -0.00300000
vn 0.00040000 -0.00590000 -1.00000000
vn 0.99820000 0.05940000 0.00910000
vn 0.00030000 -0.00590000 -1.00000000
vn 0.06470000 -0.99780000 0.01410000
vn 0.06130000 -0.99810000 -0.00020000
vn -0.99730000 -0.07250000 -0.00710000
vn 0.00030000 -0.00600000 -1.00000000
vn -0.99830000 -0.05870000 -0.00230000
vn 0.00040000 -0.00600000 -1.00000000
vn -0.06980000 0.99750000 -0.00820000
vn 0.59990000 0.02500000 -0.79970000
vn 0.06360000 -0.99800000 0.00280000
vn 0.79870000 0.05210000 0.59950000
vn 0.79810000 0.05300000 -0.60020000
vn -0.59800000 -0.03740000 -0.80060000
vn -0.06510000 0.99790000 0.00180000
vn 0.79820000 0.05290000 -0.60010000
vn -0.06140000 0.99810000 0.00900000
vn -0.58970000 -0.08100000 0.80360000
vn -0.79750000 -0.05680000 -0.60060000
vn -0.79800000 -0.05600000 0.60000000
vn 0.07340000 -0.99730000 0.00120000
vn 0.60010000 0.02880000 0.79940000
vn 0.39980000 -0.59600000 -0.69640000
vn -0.69950000 -0.60750000 -0.37630000
vn -0.68250000 -0.73080000 0.00770000
vn 0.06530000 -0.99790000 0.00230000
vn 0.06530000 -0.99790000 -0.00230000
vn 0.06060000 -0.89030000 -0.45130000
vn 0.06800000 -0.99770000 0.00050000
vn 0.06950000 -0.99760000 0.00170000
vn 0.74230000 -0.67010000 -0.00010000
vn 0.06960000 -0.99760000 -0.00170000
vn -0.31290000 -0.64370000 -0.69840000
vn 0.78020000 -0.50700000 -0.36630000
vn -0.60330000 -0.73820000 -0.30170000
vn 0.06800000 -0.99770000 -0.00040000
vn 0.10350000 -0.94260000 0.31740000
vn 0.75850000 -0.45320000 0.46830000
vn -0.31290000 -0.64450000 0.69770000
vn 0.77590000 -0.50730000 0.37500000
vn 0.30840000 0.64140000 -0.70240000
vn -0.06530000 0.99790000 0.00230000
vn -0.78020000 0.62550000 0.00630000
vn -0.06500000 0.99790000 -0.00240000
vn -0.78410000 0.49820000 -0.37000000
vn -0.06210000 0.88530000 -0.46080000
vn -0.06800000 0.99770000 -0.00050000
vn -0.06920000 0.99760000 -0.00160000
vn -0.06900000 0.99760000 0.00140000
vn 0.65190000 0.75830000 0.00030000
vn -0.38670000 0.58950000 -0.70920000
vn 0.70580000 0.60090000 -0.37510000
vn -0.54030000 0.61900000 0.57010000
vn -0.51210000 0.83880000 0.18480000
vn -0.06800000 0.99770000 -0.00010000
vn -0.06260000 0.94580000 0.31880000
vn -0.38760000 0.59000000 0.70830000
vn 0.71010000 0.60020000 0.36810000
vn -0.80010000 -0.05260000 -0.59750000
vn -0.06660000 0.99780000 -0.00200000
vn -0.59980000 -0.03830000 0.79930000
vn -0.79950000 -0.05040000 -0.59850000
vn -0.79840000 -0.05320000 -0.59970000
vn -0.59960000 -0.03810000 0.79940000
vn 0.06430000 -0.99790000 0.00440000
vn 0.60040000 0.02380000 -0.79930000
vn -0.06520000 0.99790000 -0.00090000
vn -0.79940000 -0.05380000 -0.59840000
vn 0.60030000 0.02490000 0.79940000
vn -0.79930000 -0.05370000 0.59850000
vn -0.06540000 0.99790000 0.00230000
vn -0.79940000 -0.05200000 0.59850000
vn 0.06400000 -0.99790000 -0.00330000
vn 0.60000000 0.02470000 0.79960000
vn -0.79870000 -0.05180000 0.59950000
vn 0.06410000 -0.99790000 -0.00430000
vn -0.79840000 -0.05320000 0.59970000
vn -0.59950000 -0.03810000 -0.79940000
vn 0.05750000 -0.99830000 -0.01170000
vn -0.99760000 -0.06990000 -0.00220000
vn -0.00850000 -0.00340000 -1.00000000
vn -0.06370000 0.99800000 0.00480000
vn 0.99800000 0.06270000 -0.00130000
vn 0.00480000 0.01160000 -0.99990000
vn -0.00320000 0.00660000 -1.00000000
vn -0.99750000 -0.07050000 -0.00180000
vn -0.06230000 0.99800000 0.00520000
vn -0.00020000 0.00570000 -1.00000000
vn -0.00530000 0.01400000 -0.99990000
vn 0.99800000 0.06270000 -0.00120000
vn 0.05730000 -0.99830000 -0.01110000
vn -0.00900000 0.00790000 -0.99990000
vn 0.79720000 0.05490000 -0.60120000
vn -0.06430000 0.99790000 0.00460000
vn 0.60000000 0.03810000 0.79910000
vn 0.79700000 0.05460000 -0.60150000
vn 0.79960000 0.05190000 -0.59830000
vn -0.06670000 0.99780000 0.00450000
vn -0.60000000 -0.04460000 -0.79880000
vn 0.79650000 0.05520000 -0.60210000
vn 0.79590000 0.05170000 -0.60330000
vn 0.06500000 -0.99790000 -0.00460000
vn -0.59920000 -0.04460000 -0.79940000
vn 0.79680000 0.05600000 -0.60170000
vn 0.59960000 0.03800000 0.79940000
vn 0.06400000 -0.99790000 -0.00480000
vn -0.79740000 -0.05390000 -0.60110000
vn -0.18540000 0.96990000 0.15780000
vn -0.04820000 -0.98720000 0.15230000
vn -0.79640000 -0.05470000 -0.60230000
vn -0.04860000 -0.98720000 0.15170000
vn 0.59980000 0.03760000 -0.79920000
vn 0.60020000 0.03780000 -0.79900000
vn -0.79780000 -0.05480000 -0.60040000
vn -0.18420000 0.97010000 0.15810000
vn -0.00520000 0.01170000 -0.99990000
vn 0.26400000 0.96450000 0.00670000
vn -0.99790000 -0.06410000 -0.00570000
vn 0.41200000 -0.91120000 -0.00430000
vn -0.99720000 -0.07420000 0.00360000
vn 0.02930000 0.05550000 -0.99800000
vn 0.25310000 0.96740000 0.00230000
vn 0.41590000 -0.90910000 -0.02370000
vn 0.04230000 0.00920000 -0.99910000
vn 0.59870000 0.03260000 -0.80030000
vn 0.79530000 0.04930000 0.60420000
vn 0.80570000 0.05830000 0.58940000
vn -0.06120000 0.99810000 0.00370000
vn 0.08220000 -0.99660000 -0.00740000
vn 0.59890000 0.03300000 -0.80010000
vn 0.81310000 0.03390000 0.58110000
vn 0.08270000 -0.99650000 -0.01070000
vn 0.80770000 0.05990000 0.58660000
vn 0.79970000 0.06250000 0.59710000
vn -0.59630000 -0.07680000 0.79910000
vn 0.79780000 0.05620000 -0.60030000
vn 0.79800000 0.05670000 -0.60000000
vn -0.59850000 -0.05320000 -0.79930000
vn -0.07460000 0.99720000 -0.00140000
vn 0.07410000 -0.99720000 0.00140000
vn 0.79780000 0.05670000 -0.60030000
vn -0.59810000 -0.05320000 -0.79960000
vn 0.60000000 0.02830000 0.79950000
vn 0.79780000 0.05620000 -0.60040000
vn -0.07390000 0.99730000 -0.00140000
vn 0.99830000 0.05870000 0.00260000
vn 0.07460000 -0.99720000 0.00490000
vn 0.00230000 0.00180000 1.00000000
vn -0.00270000 0.00660000 1.00000000
vn 0.07270000 -0.99730000 0.00450000
vn -0.99720000 -0.07490000 -0.00080000
vn 0.00130000 0.00810000 1.00000000
vn -0.00840000 0.00790000 0.99990000
vn -0.00290000 0.01000000 0.99990000
vn -0.99720000 -0.07520000 -0.00020000
vn -0.08160000 0.99670000 -0.00440000
vn -0.07900000 0.99680000 -0.00960000
vn 0.99820000 0.06070000 -0.00050000
vn -0.01180000 -0.00700000 0.99990000
vn -0.79810000 -0.05290000 0.60020000
vn 0.06880000 -0.99760000 0.00260000
vn 0.60000000 0.04220000 0.79890000
vn -0.79750000 -0.05260000 0.60100000
vn -0.07000000 0.99750000 -0.00400000
vn -0.60070000 -0.04010000 -0.79850000
vn -0.79770000 -0.05230000 0.60080000
vn -0.79840000 -0.05340000 0.59970000
vn 0.60020000 0.04240000 0.79870000
vn -0.06920000 0.99760000 -0.00490000
vn -0.79760000 -0.05410000 0.60070000
vn -0.79750000 -0.05470000 0.60090000
vn -0.60060000 -0.03990000 -0.79860000
vn 0.06900000 -0.99760000 0.00200000
vn 0.79770000 0.05580000 0.60050000
vn 0.79740000 0.05550000 0.60090000
vn 0.06810000 -0.99770000 0.00390000
vn -0.59960000 -0.03940000 0.79930000
vn 0.60030000 0.03580000 -0.79890000
vn 0.79760000 0.05520000 0.60070000
vn 0.79740000 0.05500000 0.60100000
vn -0.06570000 0.99780000 -0.00180000
vn 0.60030000 0.03580000 -0.79900000
vn 0.06750000 -0.99770000 0.00400000
vn 0.79780000 0.05440000 0.60040000
vn -0.60010000 -0.03950000 0.79890000
vn -0.06580000 0.99780000 -0.00260000
vn 0.79750000 0.05490000 0.60090000
vn -0.06510000 0.99790000 -0.00230000
vn 0.99800000 0.06290000 0.00150000
vn 0.00400000 0.01080000 0.99990000
vn -0.01260000 0.00880000 0.99990000
vn 0.05600000 -0.99840000 0.00840000
vn -0.00700000 0.01670000 0.99980000
vn 0.99800000 0.06250000 0.00040000
vn 0.05610000 -0.99840000 0.00880000
vn -0.99770000 -0.06730000 0.00190000
vn -0.00880000 -0.00370000 1.00000000
vn -0.99770000 -0.06830000 0.00150000
vn -0.06300000 0.99800000 -0.00220000
vn -0.00210000 0.00880000 1.00000000
vn -0.00700000 0.00750000 0.99990000
vn -0.79950000 -0.05190000 -0.59840000
vn 0.60010000 0.02360000 -0.79960000
vn 0.06430000 -0.99790000 0.00340000
vn -0.79880000 -0.05190000 -0.59930000
vn -0.80010000 -0.05260000 0.59750000
vn -0.79950000 -0.05050000 0.59860000
vn -0.59980000 -0.03830000 -0.79930000
vn -0.06680000 0.99780000 0.00340000
vn -0.59690000 -0.07520000 0.79880000
vn -0.06440000 0.99790000 -0.00100000
vn 0.80320000 0.04890000 0.59370000
vn 0.07390000 -0.99730000 0.00210000
vn 0.79760000 0.05670000 -0.60050000
vn 0.79750000 0.05610000 -0.60060000
vn 0.59960000 0.02850000 0.79980000
vt 0.96707000 0.98001200
vt 0.96760800 0.97340600
vt 0.98226000 0.98377600
vt 0.98226000 0.98377600
vt 0.98226000 0.98377600
vt 0.97701300 0.98703200
vt 0.97701300 0.98703200
vt 0.98244500 0.99053500
vt 0.98244500 0.99053500
vt 0.98244500 0.99053500
vt 0.96574400 0.99326500
vt 0.96508200 1.00003200
vt 0.99744100 0.97355200
vt 0.98788200 0.98703500
vt 0.98788200 0.98703500
vt 0.99786800 0.97993100
vt 0.99914200 0.99326600
vt 0.99981400 1.00004600
vt 0.96703800 0.97999000
vt 0.98220300 0.98373900
vt 0.98220300 0.98373900
vt 0.98220300 0.98373900
vt 0.96761800 0.97341400
vt 0.97701300 0.98703200
vt 0.97701300 0.98703200
vt 0.98244500 0.99053100
vt 0.98244500 0.99053100
vt 0.98244500 0.99053100
vt 0.96573100 0.99326400
vt 0.96511900 1.00002000
vt 0.99781900 0.97990700
vt 0.99731900 0.97360900
vt 0.98794000 0.98704200
vt 0.98794000 0.98704200
vt 0.99916200 0.99327200
vt 0.99978300 1.00003600
vt -0.00001900 -0.00000000
vt -0.00001900 -0.00000000
vt -0.00001900 -0.00000000
vt -0.00003500 0.01145100
vt -0.00003500 0.01145100
vt -0.00003500 0.01145100
vt 0.01257400 0.00000700
vt 0.01257400 0.00000700
vt 0.01257400 0.00000700
vt 0.09244600 0.00000300
vt 0.09244600 0.00000300
vt 0.09244600 0.00000300
vt 0.09247600 0.01143600
vt 0.09247600 0.01143600
vt 0.09247600 0.01143600
vt 0.09247600 0.01143600
vt 0.10512700 0.01145100
vt 0.10512700 0.01145100
vt 0.10512700 0.01145100
vt 0.08730700 0.01143700
vt 0.08730700 0.01143700
vt 0.08730700 0.01143700
vt 0.09239100 -0.00002700
vt 0.09239100 -0.00002700
vt 0.09239100 -0.00002700
vt 0.08731300 -0.00001200
vt 0.08731300 -0.00001200
vt 0.08731300 -0.00001200
vt 0.09238500 0.01141600
vt 0.09238500 0.01141600
vt 0.09238500 0.01141600
vt 0.09238500 0.01141600
vt 0.08730300 -0.00000900
vt 0.08730300 -0.00000900
vt 0.08730300 -0.00000900
vt 0.08730300 -0.00000900
vt 0.07885600 0.00000000
vt 0.07885600 0.00000000
vt 0.07885600 0.00000000
vt 0.07886300 0.01144100
vt 0.07886300 0.01144100
vt 0.07886300 0.01144100
vt 0.07886300 0.01144100
vt 0.08727900 0.01144200
vt 0.08727900 0.01144200
vt 0.08727900 0.01144200
vt 0.07033800 0.00571900
vt 0.07033800 0.00571900
vt 0.07033800 0.00571900
vt 0.07876500 0.01145500
vt 0.07876500 0.01145500
vt 0.07876500 0.01145500
vt 0.07885600 0.00000000
vt 0.07885600 0.00000000
vt 0.07885600 0.00000000
vt 0.06538500 -0.00003300
vt 0.06538500 -0.00003300
vt 0.06538500 -0.00003300
vt 0.06543700 0.01140800
vt 0.06543700 0.01140800
vt 0.06543700 0.01140800
vt 0.07037600 0.00572000
vt 0.07037600 0.00572000
vt 0.07037600 0.00572000
vt 0.05255000 -0.00001200
vt 0.05255000 -0.00001200
vt 0.05255000 -0.00001200
vt 0.05255000 -0.00001200
vt 0.05253700 0.01142800
vt 0.05253700 0.01142800
vt 0.05253700 0.01142800
vt 0.06507300 0.01144600
vt 0.06507300 0.01144600
vt 0.06507300 0.01144600
vt 0.03981500 -0.00000700
vt 0.03981500 -0.00000700
vt 0.03981500 -0.00000700
vt 0.03979700 0.01144400
vt 0.03979700 0.01144400
vt 0.03979700 0.01144400
vt 0.05232400 0.00002300
vt 0.05232400 0.00002300
vt 0.05232400 0.00002300
vt 0.03473300 0.01143900
vt 0.03473300 0.01143900
vt 0.03473300 0.01143900
vt 0.03983600 0.01142800
vt 0.03983600 0.01142800
vt 0.03983600 0.01142800
vt 0.03984100 -0.00001700
vt 0.03984100 -0.00001700
vt 0.03984100 -0.00001700
vt 0.03471900 0.00000300
vt 0.03471900 0.00000300
vt 0.03471900 0.00000300
vt 0.02627800 0.01144300
vt 0.02627800 0.01144300
vt 0.02627800 0.01144300
vt 0.02627800 0.01144300
vt 0.03481600 0.00001800
vt 0.03481600 0.00001800
vt 0.03481600 0.00001800
vt 0.03481600 0.00001800
vt 0.02627700 0.00000000
vt 0.02627700 0.00000000
vt 0.02627700 0.00000000
vt 0.03478100 0.01144900
vt 0.03478100 0.01144900
vt 0.03478100 0.01144900
vt 0.02627400 0.01144300
vt 0.02627400 0.01144300
vt 0.02627400 0.01144300
vt 0.02627400 0.01144300
vt 0.01784400 -0.00000400
vt 0.01784400 -0.00000400
vt 0.01784400 -0.00000400
vt 0.01784400 -0.00000400
vt 0.01785400 0.01144200
vt 0.01785400 0.01144200
vt 0.01785400 0.01144200
vt 0.02627700 0.00000000
vt 0.02627700 0.00000000
vt 0.02627700 0.00000000
vt 0.01274700 -0.00002200
vt 0.01274700 -0.00002200
vt 0.01274700 -0.00002200
vt 0.01275400 0.01141700
vt 0.01275400 0.01141700
vt 0.01275400 0.01141700
vt 0.01782500 0.01143700
vt 0.01782500 0.01143700
vt 0.01782500 0.01143700
vt 0.01781500 -0.00001400
vt 0.01781500 -0.00001400
vt 0.01781500 -0.00001400
vt 0.01258600 0.01143600
vt 0.01258600 0.01143600
vt 0.01258600 0.01143600
vt 0.10512900 -0.00000000
vt 0.10512900 -0.00000000
vt 0.10512900 -0.00000000
vt 0.10512900 -0.00000000
vt 0.06515900 -0.00000800
vt 0.06515900 -0.00000800
vt 0.06515900 -0.00000800
vt 0.05235000 0.01144900
vt 0.05235000 0.01144900
vt 0.05235000 0.01144900
vt 0.96707000 0.98001200
vt 0.96760800 0.97340600
vt 0.98226000 0.98377600
vt 0.98226000 0.98377600
vt 0.98226000 0.98377600
vt 0.97701300 0.98703200
vt 0.97701300 0.98703200
vt 0.98244500 0.99053500
vt 0.98244500 0.99053500
vt 0.98244500 0.99053500
vt 0.96574400 0.99326500
vt 0.96508200 1.00003200
vt 0.99744100 0.97355200
vt 0.98788200 0.98703500
vt 0.98788200 0.98703500
vt 0.99786800 0.97993100
vt 0.99914200 0.99326600
vt 0.99981400 1.00004600
vt 0.96703800 0.97999000
vt 0.98220300 0.98373900
vt 0.98220300 0.98373900
vt 0.98220300 0.98373900
vt 0.96761800 0.97341400
vt 0.97701300 0.98703200
vt 0.97701300 0.98703200
vt 0.98244500 0.99053100
vt 0.98244500 0.99053100
vt 0.98244500 0.99053100
vt 0.96573100 0.99326400
vt 0.96511900 1.00002000
vt 0.99781900 0.97990700
vt 0.99731900 0.97360900
vt 0.98794000 0.98704200
vt 0.98794000 0.98704200
vt 0.99916200 0.99327200
vt 0.99978300 1.00003600
vt -0.00001900 -0.00000000
vt -0.00001900 -0.00000000
vt -0.00001900 -0.00000000
vt -0.00001900 -0.00000000
vt -0.00003500 0.01145100
vt -0.00003500 0.01145100
vt -0.00003500 0.01145100
vt 0.01257400 0.00000700
vt 0.01257400 0.00000700
vt 0.01257400 0.00000700
vt 0.09244600 0.00000300
vt 0.09244600 0.00000300
vt 0.09244600 0.00000300
vt 0.09247600 0.01143600
vt 0.09247600 0.01143600
vt 0.09247600 0.01143600
vt 0.09247600 0.01143600
vt 0.10512700 0.01145100
vt 0.10512700 0.01145100
vt 0.10512700 0.01145100
vt 0.08730700 0.01143700
vt 0.08730700 0.01143700
vt 0.08730700 0.01143700
vt 0.09239100 -0.00002700
vt 0.09239100 -0.00002700
vt 0.09239100 -0.00002700
vt 0.08731300 -0.00001200
vt 0.08731300 -0.00001200
vt 0.08731300 -0.00001200
vt 0.08731300 -0.00001200
vt 0.09238500 0.01141600
vt 0.09238500 0.01141600
vt 0.09238500 0.01141600
vt 0.09238500 0.01141600
vt 0.08730300 -0.00000900
vt 0.08730300 -0.00000900
vt 0.08730300 -0.00000900
vt 0.08730300 -0.00000900
vt 0.07885600 0.00000000
vt 0.07885600 0.00000000
vt 0.07885600 0.00000000
vt 0.07886300 0.01144100
vt 0.07886300 0.01144100
vt 0.07886300 0.01144100
vt 0.07886300 0.01144100
vt 0.08727900 0.01144200
vt 0.08727900 0.01144200
vt 0.08727900 0.01144200
vt 0.07033800 0.00571900
vt 0.07033800 0.00571900
vt 0.07033800 0.00571900
vt 0.07876500 0.01145500
vt 0.07876500 0.01145500
vt 0.07876500 0.01145500
vt 0.07885600 0.00000000
vt 0.07885600 0.00000000
vt 0.07885600 0.00000000
vt 0.06538500 -0.00003300
vt 0.06538500 -0.00003300
vt 0.06538500 -0.00003300
vt 0.06543700 0.01140800
vt 0.06543700 0.01140800
vt 0.06543700 0.01140800
vt 0.07037600 0.00572000
vt 0.07037600 0.00572000
vt 0.07037600 0.00572000
vt 0.05255000 -0.00001200
vt 0.05255000 -0.00001200
vt 0.05255000 -0.00001200
vt 0.05255000 -0.00001200
vt 0.05253700 0.01142800
vt 0.05253700 0.01142800
vt 0.05253700 0.01142800
vt 0.06507300 0.01144600
vt 0.06507300 0.01144600
vt 0.06507300 0.01144600
vt 0.06507300 0.01144600
vt 0.03981500 -0.00000700
vt 0.03981500 -0.00000700
vt 0.03981500 -0.00000700
vt 0.03981500 -0.00000700
vt 0.03979700 0.01144400
vt 0.03979700 0.01144400
vt 0.03979700 0.01144400
vt 0.05232400 0.00002300
vt 0.05232400 0.00002300
vt 0.05232400 0.00002300
vt 0.03473300 0.01143900
vt 0.03473300 0.01143900
vt 0.03473300 0.01143900
vt 0.03473300 0.01143900
vt 0.03983600 0.01142800
vt 0.03983600 0.01142800
vt 0.03983600 0.01142800
vt 0.03984100 -0.00001700
vt 0.03984100 -0.00001700
vt 0.03984100 -0.00001700
vt 0.03984100 -0.00001700
vt 0.03471900 0.00000300
vt 0.03471900 0.00000300
vt 0.03471900 0.00000300
vt 0.02627800 0.01144300
vt 0.02627800 0.01144300
vt 0.02627800 0.01144300
vt 0.02627800 0.01144300
vt 0.03481600 0.00001800
vt 0.03481600 0.00001800
vt 0.03481600 0.00001800
vt 0.03481600 0.00001800
vt 0.02627700 0.00000000
vt 0.02627700 0.00000000
vt 0.02627700 0.00000000
vt 0.03478100 0.01144900
vt 0.03478100 0.01144900
vt 0.03478100 0.01144900
vt 0.02627400 0.01144300
vt 0.02627400 0.01144300
vt 0.02627400 0.01144300
vt 0.02627400 0.01144300
vt 0.01784400 -0.00000400
vt 0.01784400 -0.00000400
vt 0.01784400 -0.00000400
vt 0.01784400 -0.00000400
vt 0.01785400 0.01144200
vt 0.01785400 0.01144200
vt 0.01785400 0.01144200
vt 0.02627700 0.00000000
vt 0.02627700 0.00000000
vt 0.02627700 0.00000000
vt 0.01274700 -0.00002200
vt 0.01274700 -0.00002200
vt 0.01274700 -0.00002200
vt 0.01275400 0.01141700
vt 0.01275400 0.01141700
vt 0.01275400 0.01141700
vt 0.01275400 0.01141700
vt 0.01782500 0.01143700
vt 0.01782500 0.01143700
vt 0.01782500 0.01143700
vt 0.01781500 -0.00001400
vt 0.01781500 -0.00001400
vt 0.01781500 -0.00001400
vt 0.01781500 -0.00001400
vt 0.01258600 0.01143600
vt 0.01258600 0.01143600
vt 0.01258600 0.01143600
vt 0.01258600 0.01143600
vt 0.10512900 -0.00000000
vt 0.10512900 -0.00000000
vt 0.10512900 -0.00000000
vt 0.10512900 -0.00000000
vt 0.06515900 -0.00000800
vt 0.06515900 -0.00000800
vt 0.06515900 -0.00000800
vt 0.05235000 0.01144900
vt 0.05235000 0.01144900
vt 0.05235000 0.01144900
vt 0.05235000 0.01144900
f 1/1/1 2/2/2 5/5/5
f 7/7/7 1/1/1 5/5/5
f 3/3/3 14/14/14 8/8/8
f 11/11/11 7/7/7 9/9/9
f 9/9/9 12/12/12 11/11/11
f 13/13/13 15/15/15 5/5/5
f 16/16/16 15/15/15 13/13/13
f 9/9/9 15/15/15 17/17/17
f 9/9/9 17/17/17 18/18/18
f 19/19/19 20/20/20 23/23/23
f 24/24/24 20/20/20 19/19/19
f 27/27/27 34/34/34 22/22/22
f 29/29/29 28/28/28 24/24/24
f 28/28/28 29/29/29 30/30/30
f 31/31/31 32/32/32 33/33/33
f 32/32/32 20/20/20 33/33/33
f 28/28/28 35/35/35 33/33/33
f 28/28/28 36/36/36 35/35/35
f 40/40/40 174/174/174 39/39/39
f 54/54/54 178/178/178 50/50/50
f 58/58/58 67/67/67 63/63/63
f 78/78/78 82/82/82 69/69/69
f 83/83/83 88/88/88 90/90/90
f 92/92/92 96/96/96 99/99/99
f 109/109/109 181/181/181 104/104/104
f 115/115/115 182/182/182 112/112/112
f 126/126/126 131/131/131 122/122/122
f 135/135/135 145/145/145 137/137/137
f 149/149/149 157/157/157 152/152/152
f 168/168/168 170/170/170 164/164/164
f 4/4/4 10/10/10 6/6/6
f 26/26/26 21/21/21 25/25/25
f 174/174/174 44/44/44 39/39/39
f 175/175/175 47/47/47 52/52/52
f 66/66/66 61/61/61 63/63/63
f 76/76/76 70/70/70 74/74/74
f 109/109/109 102/102/102 105/105/105
f 182/182/182 118/118/118 112/112/112
f 126/126/126 122/122/122 125/125/125
f 134/134/134 139/139/139 140/140/140
f 147/147/147 150/150/150 154/154/154
f 170/170/170 162/162/162 164/164/164
f 185/185/185 187/187/187 186/186/186
f 190/190/190 187/187/187 185/185/185
f 189/189/189 194/194/194 198/198/198
f 195/195/195 193/193/193 190/190/190
f 193/193/193 195/195/195 196/196/196
f 197/197/197 187/187/187 199/199/199
f 200/200/200 197/197/197 199/199/199
f 193/193/193 201/201/201 199/199/199
f 193/193/193 202/202/202 201/201/201
f 203/203/203 207/207/207 205/205/205
f 208/208/208 203/203/203 205/205/205
f 211/211/211 204/204/204 217/217/217
f 213/213/213 208/208/208 212/212/212
f 212/212/212 214/214/214 213/213/213
f 215/215/215 218/218/218 216/216/216
f 216/216/216 218/218/218 205/205/205
f 212/212/212 218/218/218 219/219/219
f 212/212/212 219/219/219 220/220/220
f 225/225/225 224/224/224 364/364/364
f 239/239/239 234/234/234 369/369/369
f 243/243/243 250/250/250 254/254/254
f 262/262/262 258/258/258 266/266/266
f 269/269/269 276/276/276 272/272/272
f 278/278/278 286/286/286 283/283/283
f 296/296/296 289/289/289 374/374/374
f 303/303/303 298/298/298 377/377/377
f 315/315/315 310/310/310 321/321/321
f 322/322/322 328/328/328 333/333/333
f 337/337/337 341/341/341 349/349/349
f 359/359/359 353/353/353 362/362/362
f 188/188/188 191/191/191 192/192/192
f 210/210/210 209/209/209 206/206/206
f 367/367/367 221/221/221 230/230/230
f 368/368/368 237/237/237 232/232/232
f 251/251/251 247/247/247 246/246/246
f 263/263/263 259/259/259 255/255/255
f 295/295/295 293/293/293 288/288/288
f 376/376/376 299/299/299 306/306/306
f 316/316/316 314/314/314 311/311/311
f 325/325/325 332/332/332 329/329/329
f 336/336/336 346/346/346 342/342/342
f 363/363/363 355/355/355 352/352/352
f 2/2/2 1/1/1 185/185/185
f 185/185/185 186/186/186 2/2/2
f 12/12/12 9/9/9 193/193/193
f 193/193/193 196/196/196 12/12/12
f 13/13/13 5/5/5 187/187/187
f 187/187/187 197/197/197 13/13/13
f 16/16/16 13/13/13 197/197/197
f 197/197/197 200/200/200 16/16/16
f 9/9/9 18/18/18 202/202/202
f 202/202/202 193/193/193 9/9/9
f 19/19/19 23/23/23 207/207/207
f 207/207/207 203/203/203 19/19/19
f 24/24/24 19/19/19 203/203/203
f 203/203/203 208/208/208 24/24/24
f 1/1/1 7/7/7 190/190/190
f 190/190/190 185/185/185 1/1/1
f 29/29/29 24/24/24 208/208/208
f 208/208/208 213/213/213 29/29/29
f 28/28/28 30/30/30 214/214/214
f 214/214/214 212/212/212 28/28/28
f 5/5/5 2/2/2 186/186/186
f 186/186/186 187/187/187 5/5/5
f 32/32/32 31/31/31 215/215/215
f 215/215/215 216/216/216 32/32/32
f 33/33/33 35/35/35 219/219/219
f 219/219/219 218/218/218 33/33/33
f 41/41/41 38/38/38 223/223/223
f 223/223/223 226/226/226 41/41/41
f 37/37/37 43/43/43 229/229/229
f 229/229/229 222/222/222 37/37/37
f 49/49/49 48/48/48 231/231/231
f 231/231/231 236/236/236 49/49/49
f 53/53/53 51/51/51 235/235/235
f 235/235/235 238/238/238 53/53/53
f 56/56/56 62/62/62 248/248/248
f 248/248/248 242/242/242 56/56/56
f 65/65/65 57/57/57 241/241/241
f 241/241/241 253/253/253 65/65/65
f 73/73/73 72/72/72 256/256/256
f 256/256/256 260/260/260 73/73/73
f 35/35/35 36/36/36 220/220/220
f 220/220/220 219/219/219 35/35/35
f 80/80/80 77/77/77 264/264/264
f 264/264/264 268/268/268 80/80/80
f 87/87/87 84/84/84 271/271/271
f 271/271/271 273/273/273 87/87/87
f 85/85/85 89/89/89 277/277/277
f 277/277/277 270/270/270 85/85/85
f 100/100/100 95/95/95 281/281/281
f 281/281/281 285/285/285 100/100/100
f 97/97/97 93/93/93 280/280/280
f 280/280/280 282/282/282 97/97/97
f 94/94/94 98/98/98 284/284/284
f 284/284/284 279/279/279 94/94/94
f 114/114/114 113/113/113 300/300/300
f 300/300/300 304/304/304 114/114/114
f 111/111/111 119/119/119 307/307/307
f 307/307/307 301/301/301 111/111/111
f 7/7/7 11/11/11 195/195/195
f 195/195/195 190/190/190 7/7/7
f 123/123/123 120/120/120 309/309/309
f 309/309/309 312/312/312 123/123/123
f 130/130/130 128/128/128 318/318/318
f 318/318/318 319/319/319 130/130/130
f 143/143/143 133/133/133 323/323/323
f 323/323/323 335/335/335 143/143/143
f 148/148/148 155/155/155 345/345/345
f 345/345/345 338/338/338 148/148/148
f 159/159/159 146/146/146 339/339/339
f 339/339/339 347/347/347 159/159/159
f 163/163/163 161/161/161 351/351/351
f 351/351/351 356/356/356 163/163/163
f 166/166/166 165/165/165 354/354/354
f 354/354/354 357/357/357 166/166/166
f 169/169/169 167/167/167 358/358/358
f 358/358/358 360/360/360 169/169/169
f 173/173/173 42/42/42 227/227/227
f 227/227/227 366/366/366 173/173/173
f 176/176/176 55/55/55 240/240/240
f 240/240/240 370/370/370 176/176/176
f 180/180/180 110/110/110 297/297/297
f 297/297/297 372/372/372 180/180/180
f 183/183/183 116/116/116 302/302/302
f 302/302/302 375/375/375 183/183/183
f 151/151/151 158/158/158 348/348/348
f 348/348/348 343/343/343 151/151/151
f 11/11/11 12/12/12 196/196/196
f 196/196/196 195/195/195 11/11/11
f 31/31/31 33/33/33 218/218/218
f 218/218/218 215/215/215 31/31/31
f 160/160/160 171/171/171 361/361/361
f 361/361/361 350/350/350 160/160/160
f 106/106/106 101/101/101 287/287/287
f 287/287/287 292/292/292 106/106/106
f 91/91/91 86/86/86 274/274/274
f 274/274/274 275/275/275 91/91/91
f 15/15/15 16/16/16 200/200/200
f 200/200/200 199/199/199 15/15/15
f 17/17/17 15/15/15 199/199/199
f 199/199/199 201/201/201 17/17/17
f 18/18/18 17/17/17 201/201/201
f 201/201/201 202/202/202 18/18/18
f 45/45/45 172/172/172 365/365/365
f 365/365/365 228/228/228 45/45/45
f 64/64/64 59/59/59 244/244/244
f 244/244/244 249/249/249 64/64/64
f 121/121/121 129/129/129 320/320/320
f 320/320/320 308/308/308 121/121/121
f 108/108/108 107/107/107 291/291/291
f 291/291/291 294/294/294 108/108/108
f 127/127/127 124/124/124 313/313/313
f 313/313/313 317/317/317 127/127/127
f 60/60/60 68/68/68 252/252/252
f 252/252/252 245/245/245 60/60/60
f 23/23/23 20/20/20 205/205/205
f 205/205/205 207/207/207 23/23/23
f 103/103/103 179/179/179 373/373/373
f 373/373/373 290/290/290 103/103/103
f 132/132/132 142/142/142 330/330/330
f 330/330/330 324/324/324 132/132/132
f 71/71/71 81/81/81 267/267/267
f 267/267/267 257/257/257 71/71/71
f 20/20/20 32/32/32 216/216/216
f 216/216/216 205/205/205 20/20/20
f 79/79/79 75/75/75 261/261/261
f 261/261/261 265/265/265 79/79/79
f 136/136/136 144/144/144 334/334/334
f 334/334/334 327/327/327 136/136/136
f 46/46/46 177/177/177 371/371/371
f 371/371/371 233/233/233 46/46/46
f 156/156/156 153/153/153 340/340/340
f 340/340/340 344/344/344 156/156/156
f 30/30/30 29/29/29 213/213/213
f 213/213/213 214/214/214 30/30/30
f 117/117/117 184/184/184 378/378/378
f 378/378/378 305/305/305 117/117/117
f 141/141/141 138/138/138 326/326/326
f 326/326/326 331/331/331 141/141/141
f 36/36/36 28/28/28 212/212/212
f 212/212/212 220/220/220 36/36/36

