mtllib material.mtl
usemtl Material-塑胶__3_.001
v 0.01382300 -0.01958500 0.02562200
v 0.01382300 -0.01958500 0.02562200
v 0.01382800 -0.01960800 0.02592100
v 0.01395800 -0.01964100 0.02628700
v 0.01660400 -0.02016000 0.03087000
v 0.01819300 -0.02052200 0.03362300
v 0.01819300 -0.02052200 0.03362300
v 0.01819300 -0.02052200 0.03362300
v 0.01766800 -0.02029600 0.03168500
v 0.01594300 -0.01985100 0.02777000
v 0.01594300 -0.01985100 0.02777000
v 0.01497300 -0.01982900 0.02804500
v 0.01497300 -0.01982900 0.02804500
v 0.01596400 -0.01995700 0.02898400
v 0.01468100 -0.01967700 0.02633700
v 0.01888600 -0.02050400 0.03307300
v 0.01888600 -0.02050400 0.03307300
v 0.01888600 -0.02050400 0.03307300
v 0.01731600 -0.02012100 0.03004300
v 0.01540400 -0.01967600 0.02591300
v 0.01540400 -0.01967600 0.02591300
v 0.01847800 -0.02029500 0.03121100
v 0.01999000 -0.02050900 0.03248400
v 0.01999000 -0.02050900 0.03248400
v 0.01723700 -0.01997200 0.02842000
v 0.01822100 -0.02011300 0.02942100
v 0.01687800 -0.01984100 0.02709600
v 0.01580500 -0.01964200 0.02523400
v 0.01580500 -0.01964200 0.02523400
v 0.01559300 -0.01961300 0.02496900
v 0.01527600 -0.01958400 0.02476900
v 0.01527600 -0.01958400 0.02476900
v 0.01839200 -0.02056100 0.03388200
v 0.01874800 -0.02060500 0.03410700
v 0.01874800 -0.02060500 0.03410700
v 0.01906200 -0.02063100 0.03417500
v 0.01938200 -0.02064700 0.03414600
v 0.01983800 -0.02065000 0.03390300
v 0.01983800 -0.02065000 0.03390300
v 0.01421800 -0.01954900 0.02492100
v 0.01397400 -0.01955900 0.02519400
v 0.01397400 -0.01955900 0.02519400
v 0.02010400 -0.02063100 0.03356500
v 0.02018900 -0.02058600 0.03309000
v 0.02018900 -0.02058600 0.03309000
v 0.02009400 -0.02053800 0.03267400
v 0.01500000 -0.01956600 0.02469900
v 0.01500000 -0.01956600 0.02469900
v 0.01454100 -0.01955000 0.02474600
v 0.01687500 -0.02092200 0.03133300
v 0.01819800 -0.02107700 0.03216600
v 0.01815700 -0.02121700 0.03355500
v 0.01815700 -0.02121700 0.03355500
v 0.01720500 -0.02083900 0.03025900
v 0.01652900 -0.02066800 0.02875500
v 0.01652900 -0.02066800 0.02875500
v 0.01506100 -0.02045200 0.02703200
v 0.01543100 -0.02062000 0.02883200
v 0.01852900 -0.02102800 0.03147600
v 0.01603800 -0.02051300 0.02721900
v 0.01999700 -0.02121800 0.03249700
v 0.02007200 -0.02132200 0.03345700
v 0.01752800 -0.02075400 0.02915400
v 0.01854100 -0.02088500 0.02998000
v 0.01678600 -0.02052700 0.02694000
v 0.01496300 -0.02026000 0.02464900
v 0.01496300 -0.02026000 0.02464900
v 0.01578100 -0.02034100 0.02519700
v 0.01556100 -0.02031100 0.02491700
v 0.01835200 -0.02125600 0.03380900
v 0.01870700 -0.02130000 0.03403300
v 0.01870700 -0.02130000 0.03403300
v 0.01979400 -0.02134300 0.03383000
v 0.01979400 -0.02134300 0.03383000
v 0.01934000 -0.02134200 0.03407200
v 0.01902000 -0.02132600 0.03410100
v 0.01902000 -0.02132600 0.03410100
v 0.01393000 -0.02033800 0.02623400
v 0.01379900 -0.02030500 0.02586700
v 0.01394500 -0.02025600 0.02514200
v 0.01419400 -0.02024400 0.02486600
v 0.01379400 -0.02028200 0.02556900
v 0.02014500 -0.02128100 0.03301800
v 0.01451100 -0.02024700 0.02469500
v 0.01524400 -0.02028100 0.02471800
v 0.01497300 -0.01982900 0.02804500
v 0.01497300 -0.01982900 0.02804500
v 0.01393000 -0.02033800 0.02623400
v 0.01543100 -0.02062000 0.02883200
v 0.01543100 -0.02062000 0.02883200
v 0.01543100 -0.02062000 0.02883200
v 0.01660400 -0.02016000 0.03087000
v 0.01660400 -0.02016000 0.03087000
v 0.01660400 -0.02016000 0.03087000
v 0.01687500 -0.02092200 0.03133300
v 0.01687500 -0.02092200 0.03133300
v 0.01687500 -0.02092200 0.03133300
v 0.01822300 -0.02088100 0.03366700
v 0.01839200 -0.02056100 0.03388200
v 0.01819300 -0.02052200 0.03362300
v 0.01874800 -0.02060500 0.03410700
v 0.01870700 -0.02130000 0.03403300
v 0.01902000 -0.02132600 0.03410100
v 0.01938200 -0.02064700 0.03414600
v 0.01934000 -0.02134200 0.03407200
v 0.01979400 -0.02134300 0.03383000
v 0.01983800 -0.02065000 0.03390300
v 0.02010400 -0.02063100 0.03356500
v 0.01906200 -0.02063100 0.03417500
v 0.01815700 -0.02121700 0.03355500
v 0.01835200 -0.02125600 0.03380900
v 0.02018900 -0.02058600 0.03309000
v 0.02014500 -0.02128100 0.03301800
v 0.02009400 -0.02053800 0.03267400
v 0.01999000 -0.02050900 0.03248400
v 0.01999000 -0.02050900 0.03248400
v 0.01854100 -0.02088500 0.02998000
v 0.01854100 -0.02088500 0.02998000
v 0.01854100 -0.02088500 0.02998000
v 0.01822100 -0.02011300 0.02942100
v 0.01687800 -0.01984100 0.02709600
v 0.01687800 -0.01984100 0.02709600
v 0.01687800 -0.01984100 0.02709600
v 0.01678600 -0.02052700 0.02694000
v 0.01678600 -0.02052700 0.02694000
v 0.01580500 -0.01964200 0.02523400
v 0.01580500 -0.01964200 0.02523400
v 0.01559300 -0.01961300 0.02496900
v 0.01556100 -0.02031100 0.02491700
v 0.01524400 -0.02028100 0.02471800
v 0.01500000 -0.01956600 0.02469900
v 0.01496300 -0.02026000 0.02464900
v 0.01451100 -0.02024700 0.02469500
v 0.01527600 -0.01958400 0.02476900
v 0.01421800 -0.01954900 0.02492100
v 0.01419400 -0.02024400 0.02486600
v 0.01394500 -0.02025600 0.02514200
v 0.01382300 -0.01958500 0.02562200
v 0.01379400 -0.02028200 0.02556900
v 0.01382800 -0.01960800 0.02592100
v 0.01379900 -0.02030500 0.02586700
v 0.01395800 -0.01964100 0.02628700
v 0.01397400 -0.01955900 0.02519400
v 0.01454100 -0.01955000 0.02474600
v 0.01578100 -0.02034100 0.02519700
v 0.02007200 -0.02132200 0.03345700
v 0.01395800 -0.01964100 0.02628700
v 0.01999700 -0.02121800 0.03249700
v 0.01393000 -0.02033800 0.02623400
vn 0.04090000 0.99630000 0.07570000
vn 0.04090000 0.99630000 0.07580000
vn 0.04100000 0.99620000 0.07680000
vn 0.04150000 0.99610000 0.07810000
vn 0.05080000 0.99420000 0.09440000
vn 0.05630000 0.99300000 0.10400000
vn 0.05640000 0.99300000 0.10410000
vn 0.05630000 0.99300000 0.10410000
vn 0.05430000 0.99380000 0.09740000
vn 0.04800000 0.99530000 0.08360000
vn 0.04800000 0.99530000 0.08350000
vn 0.04510000 0.99540000 0.08440000
vn 0.04500000 0.99540000 0.08430000
vn 0.04830000 0.99500000 0.08780000
vn 0.04370000 0.99600000 0.07840000
vn 0.05850000 0.99300000 0.10240000
vn 0.05850000 0.99300000 0.10230000
vn 0.05840000 0.99300000 0.10230000
vn 0.05290000 0.99440000 0.09160000
vn 0.04590000 0.99600000 0.07720000
vn 0.04580000 0.99600000 0.07710000
vn 0.05680000 0.99380000 0.09590000
vn 0.06180000 0.99300000 0.10050000
vn 0.06190000 0.99300000 0.10050000
vn 0.05220000 0.99490000 0.08610000
vn 0.05550000 0.99440000 0.08990000
vn 0.05090000 0.99540000 0.08150000
vn 0.04700000 0.99610000 0.07500000
vn 0.04690000 0.99610000 0.07500000
vn 0.04620000 0.99620000 0.07400000
vn 0.04520000 0.99630000 0.07320000
vn 0.04520000 0.99630000 0.07330000
vn 0.05700000 0.99280000 0.10500000
vn 0.05820000 0.99270000 0.10580000
vn 0.05820000 0.99270000 0.10590000
vn 0.05920000 0.99260000 0.10610000
vn 0.06020000 0.99250000 0.10600000
vn 0.06160000 0.99250000 0.10530000
vn 0.06170000 0.99250000 0.10530000
vn 0.04190000 0.99640000 0.07350000
vn 0.04120000 0.99640000 0.07430000
vn 0.04130000 0.99640000 0.07430000
vn 0.06250000 0.99260000 0.10430000
vn 0.06270000 0.99270000 0.10260000
vn 0.06260000 0.99270000 0.10260000
vn 0.06230000 0.99290000 0.10120000
vn 0.04430000 0.99630000 0.07300000
vn 0.04430000 0.99640000 0.07290000
vn 0.04290000 0.99640000 0.07300000
vn -0.05180000 -0.99400000 -0.09620000
vn -0.05620000 -0.99340000 -0.09950000
vn -0.05630000 -0.99300000 -0.10420000
vn -0.05630000 -0.99300000 -0.10410000
vn -0.05270000 -0.99430000 -0.09260000
vn -0.05050000 -0.99490000 -0.08700000
vn -0.05020000 -0.99490000 -0.08730000
vn -0.04510000 -0.99570000 -0.08110000
vn -0.04670000 -0.99510000 -0.08740000
vn -0.05710000 -0.99360000 -0.09710000
vn -0.04810000 -0.99550000 -0.08180000
vn -0.06200000 -0.99300000 -0.10080000
vn -0.06250000 -0.99260000 -0.10410000
vn -0.05350000 -0.99460000 -0.08890000
vn -0.05690000 -0.99410000 -0.09190000
vn -0.05050000 -0.99540000 -0.08130000
vn -0.04430000 -0.99640000 -0.07290000
vn -0.04430000 -0.99640000 -0.07300000
vn -0.04700000 -0.99610000 -0.07500000
vn -0.04620000 -0.99620000 -0.07400000
vn -0.05700000 -0.99280000 -0.10510000
vn -0.05820000 -0.99270000 -0.10580000
vn -0.05810000 -0.99270000 -0.10590000
vn -0.06160000 -0.99250000 -0.10530000
vn -0.06160000 -0.99250000 -0.10540000
vn -0.06020000 -0.99250000 -0.10610000
vn -0.05920000 -0.99260000 -0.10600000
vn -0.05920000 -0.99260000 -0.10610000
vn -0.04150000 -0.99610000 -0.07810000
vn -0.04100000 -0.99620000 -0.07680000
vn -0.04120000 -0.99640000 -0.07430000
vn -0.04190000 -0.99640000 -0.07350000
vn -0.04090000 -0.99630000 -0.07580000
vn -0.06260000 -0.99270000 -0.10260000
vn -0.04290000 -0.99640000 -0.07300000
vn -0.04520000 -0.99630000 -0.07330000
vn -0.86620000 -0.00330000 0.49970000
vn -0.86610000 -0.00310000 0.49990000
vn -0.86610000 -0.00310000 0.49990000
vn -0.86620000 -0.00330000 0.49970000
vn -0.86610000 -0.00310000 0.49990000
vn -0.86620000 -0.00340000 0.49970000
vn -0.86620000 -0.00340000 0.49970000
vn -0.86620000 -0.00330000 0.49970000
vn -0.86630000 -0.00300000 0.49950000
vn -0.86640000 -0.00320000 0.49930000
vn -0.86650000 -0.00320000 0.49920000
vn -0.86630000 -0.00290000 0.49950000
vn -0.83350000 -0.01060000 0.55240000
vn -0.69430000 -0.03620000 0.71870000
vn -0.86530000 -0.00350000 0.50120000
vn -0.36070000 -0.07800000 0.92940000
vn -0.36010000 -0.07810000 0.92970000
vn -0.06840000 -0.10220000 0.99240000
vn 0.23600000 -0.11750000 0.96460000
vn 0.23530000 -0.11750000 0.96480000
vn 0.66580000 -0.11960000 0.73650000
vn 0.66610000 -0.11950000 0.73620000
vn 0.90680000 -0.10000000 0.40960000
vn -0.06860000 -0.10220000 0.99240000
vn -0.86410000 -0.00380000 0.50330000
vn -0.69400000 -0.03630000 0.71910000
vn 0.99780000 -0.05990000 -0.02930000
vn 0.99780000 -0.05990000 -0.02940000
vn 0.90910000 -0.01420000 -0.41640000
vn 0.86590000 -0.00340000 -0.50020000
vn 0.86580000 -0.00340000 -0.50040000
vn 0.86570000 -0.00320000 -0.50050000
vn 0.86580000 -0.00340000 -0.50040000
vn 0.86580000 -0.00320000 -0.50030000
vn 0.86580000 -0.00340000 -0.50040000
vn 0.86580000 -0.00340000 -0.50040000
vn 0.86580000 -0.00320000 -0.50030000
vn 0.86590000 -0.00320000 -0.50030000
vn 0.86600000 -0.00320000 -0.50010000
vn 0.86600000 -0.00320000 -0.50000000
vn 0.86480000 -0.00310000 -0.50220000
vn 0.86470000 -0.00300000 -0.50220000
vn 0.67500000 0.02340000 -0.73740000
vn 0.67420000 0.02350000 -0.73810000
vn 0.37510000 0.05120000 -0.92560000
vn 0.12000000 0.06700000 -0.99050000
vn 0.11450000 0.06730000 -0.99110000
vn -0.31580000 0.08290000 -0.94520000
vn 0.37630000 0.05080000 -0.92510000
vn -0.61890000 0.08320000 -0.78100000
vn -0.61400000 0.08370000 -0.78480000
vn -0.84940000 0.07420000 -0.52250000
vn -0.99140000 0.04980000 -0.12080000
vn -0.99130000 0.04980000 -0.12170000
vn -0.98690000 0.02810000 0.15910000
vn -0.98690000 0.02830000 0.15890000
vn -0.86550000 -0.00320000 0.50090000
vn -0.84930000 0.07420000 -0.52260000
vn -0.31500000 0.08270000 -0.94550000
vn 0.86290000 -0.00270000 -0.50540000
vn 0.92040000 -0.09770000 0.37870000
vn -0.86610000 -0.00310000 0.49990000
vn 0.86960000 -0.00420000 -0.49380000
vn -0.86430000 -0.00340000 0.50290000
vt 0.95060200 0.99739200
vt 0.95060200 0.99739200
vt 0.94696000 0.99576300
vt 0.94554000 0.99340200
vt 0.94960500 0.96192800
vt 0.95141900 0.94384000
vt 0.95141900 0.94384000
vt 0.95141900 0.94384000
vt 0.96122400 0.95490400
vt 0.97082500 0.97975500
vt 0.97082500 0.97975500
vt 0.94715700 0.98112600
vt 0.94715700 0.98112600
vt 0.95725100 0.97342000
vt 0.96109800 0.99102500
vt 0.96903200 0.94465700
vt 0.96903200 0.94465700
vt 0.96903200 0.94465700
vt 0.97204200 0.96414200
vt 0.98237200 0.99107400
vt 0.98237200 0.99107400
vt 0.98097700 0.95495000
vt 0.99406100 0.94430000
vt 0.99406100 0.94430000
vt 0.98914800 0.97254100
vt 0.99613600 0.96452900
vt 0.99823500 0.98033800
vt 0.99997100 0.99332400
vt 0.99997100 0.99332400
vt 0.99903600 0.99539600
vt 0.99472400 0.99746500
vt 0.99472400 0.99746500
vt 0.95251500 0.94203500
vt 0.95653800 0.93997600
vt 0.95653800 0.93997600
vt 0.96130000 0.93880000
vt 0.96703300 0.93806700
vt 0.97707600 0.93796800
vt 0.97707600 0.93796800
vt 0.96871100 1.00000000
vt 0.95947900 0.99926500
vt 0.95947900 0.99926500
vt 0.98489500 0.93883500
vt 0.99113500 0.94086000
vt 0.99113500 0.94086000
vt 0.99379700 0.94312100
vt 0.98955100 0.99873000
vt 0.98955100 0.99873000
vt 0.97847000 0.99993500
vt 0.94995900 0.95838900
vt 0.96594300 0.95057200
vt 0.95140800 0.94380500
vt 0.95140800 0.94380500
vt 0.96759000 0.96293800
vt 0.97111900 0.97255800
vt 0.97111900 0.97255800
vt 0.96101300 0.98582800
vt 0.94796500 0.97527500
vt 0.97911700 0.95302800
vt 0.97944900 0.98192500
vt 0.99410600 0.94377600
vt 0.98542200 0.93896100
vt 0.98610700 0.96752400
vt 0.99558400 0.96034600
vt 0.99831500 0.98102300
vt 0.98930200 0.99868300
vt 0.98930200 0.99868300
vt 0.99995000 0.99321200
vt 0.99903600 0.99539600
vt 0.95251500 0.94203500
vt 0.95653900 0.93997500
vt 0.95653900 0.93997500
vt 0.97711400 0.93796300
vt 0.97711400 0.93796300
vt 0.96703300 0.93806700
vt 0.96130000 0.93880000
vt 0.96130000 0.93880000
vt 0.94550400 0.99336900
vt 0.94694600 0.99576200
vt 0.95948000 0.99926500
vt 0.96900800 0.99995900
vt 0.95059600 0.99739000
vt 0.99111500 0.94085800
vt 0.97847000 0.99993500
vt 0.99476300 0.99746900
vt 0.04696300 0.00001300
vt 0.04696300 0.00001300
vt 0.00010200 0.01194000
vt 0.06962400 0.01193500
vt 0.06962400 0.01193500
vt 0.06962400 0.01193500
vt 0.12241600 0.00001700
vt 0.12241600 0.00001700
vt 0.12241600 0.00001700
vt 0.13662900 0.01194700
vt 0.13662900 0.01194700
vt 0.13662900 0.01194700
vt 0.19821900 0.00597000
vt 0.20369300 0.00000000
vt 0.19604400 -0.00000600
vt 0.21354300 -0.00000600
vt 0.21354300 0.01193300
vt 0.22106000 0.01194000
vt 0.22857500 0.00000000
vt 0.22857500 0.01194000
vt 0.24053100 0.01192400
vt 0.24054900 0.00000000
vt 0.25052500 0.00001500
vt 0.22106000 0.00000000
vt 0.19616400 0.01192600
vt 0.20369300 0.01194000
vt 0.26172200 -0.00000300
vt 0.26172500 0.01194000
vt 0.27169500 0.00000000
vt 0.27671200 0.00000400
vt 0.27671200 0.00000400
vt 0.34205500 0.01196700
vt 0.34205500 0.01196700
vt 0.34205500 0.01196700
vt 0.35874500 0.00001300
vt 0.42092700 0.00001500
vt 0.42092700 0.00001500
vt 0.42092700 0.00001500
vt 0.42357400 0.01195000
vt 0.42357400 0.01195000
vt 0.47066100 -0.00000200
vt 0.47066100 -0.00000200
vt 0.47855500 -0.00000000
vt 0.47855500 0.01194000
vt 0.48728500 0.01194000
vt 0.49394600 0.00000000
vt 0.49408000 0.01188300
vt 0.50468000 0.01194000
vt 0.48728900 -0.00000600
vt 0.51321000 0.00000000
vt 0.51307400 0.01189900
vt 0.52174000 0.01194000
vt 0.53223700 -0.00000700
vt 0.53224000 0.01193400
vt 0.53924600 -0.00000100
vt 0.53924700 0.01194000
vt 0.54830400 -0.00001300
vt 0.52174000 0.00000000
vt 0.50468000 0.00000000
vt 0.47023300 0.01193300
vt 0.25134600 0.01193100
vt 0.00003500 -0.00001300
vt 0.27444200 0.01192900
vt 0.54836000 0.01192100
f 1/1/1 3/3/3 4/4/4
f 5/5/5 8/8/8 9/9/9
f 10/10/10 12/12/12 14/14/14
f 15/15/15 4/4/4 13/13/13
f 9/9/9 8/8/8 18/18/18
f 9/9/9 22/22/22 19/19/19
f 19/19/19 25/25/25 14/14/14
f 11/11/11 27/27/27 20/20/20
f 22/22/22 9/9/9 18/18/18
f 18/18/18 23/23/23 22/22/22
f 26/26/26 19/19/19 22/22/22
f 27/27/27 11/11/11 25/25/25
f 27/27/27 29/29/29 20/20/20
f 30/30/30 31/31/31 28/28/28
f 33/33/33 34/34/34 6/6/6
f 16/16/16 36/36/36 37/37/37
f 34/34/34 36/36/36 18/18/18
f 38/38/38 18/18/18 37/37/37
f 5/5/5 14/14/14 13/13/13
f 20/20/20 49/49/49 40/40/40
f 15/15/15 40/40/40 41/41/41
f 2/2/2 15/15/15 42/42/42
f 2/2/2 4/4/4 15/15/15
f 43/43/43 45/45/45 39/39/39
f 24/24/24 44/44/44 46/46/46
f 20/20/20 47/47/47 49/49/49
f 31/31/31 48/48/48 21/21/21
f 26/26/26 27/27/27 25/25/25
f 50/50/50 51/51/51 53/53/53
f 54/54/54 59/59/59 50/50/50
f 55/55/55 54/54/54 50/50/50
f 57/57/57 60/60/60 58/58/58
f 61/61/61 62/62/62 59/59/59
f 60/60/60 65/65/65 55/55/55
f 61/61/61 59/59/59 64/64/64
f 65/65/65 60/60/60 68/68/68
f 69/69/69 68/68/68 66/66/66
f 70/70/70 52/52/52 72/72/72
f 74/74/74 75/75/75 77/77/77
f 71/71/71 73/73/73 76/76/76
f 59/59/59 62/62/62 51/51/51
f 57/57/57 78/78/78 79/79/79
f 57/57/57 58/58/58 78/78/78
f 57/57/57 80/80/80 81/81/81
f 82/82/82 80/80/80 57/57/57
f 61/61/61 83/83/83 62/62/62
f 81/81/81 84/84/84 67/67/67
f 66/66/66 85/85/85 69/69/69
f 64/64/64 63/63/63 65/65/65
f 87/87/87 88/88/88 90/90/90
f 92/92/92 91/91/91 95/95/95
f 98/98/98 99/99/99 100/100/100
f 101/101/101 99/99/99 98/98/98
f 103/103/103 109/109/109 102/102/102
f 106/106/106 107/107/107 104/104/104
f 106/106/106 146/146/146 108/108/108
f 105/105/105 104/104/104 109/109/109
f 110/110/110 111/111/111 98/98/98
f 110/110/110 100/100/100 97/97/97
f 101/101/101 98/98/98 102/102/102
f 102/102/102 98/98/98 111/111/111
f 100/100/100 94/94/94 96/96/96
f 113/113/113 148/148/148 114/114/114
f 116/116/116 118/118/118 120/120/120
f 120/120/120 118/118/118 121/121/121
f 123/123/123 124/124/124 126/126/126
f 130/130/130 134/134/134 128/128/128
f 133/133/133 144/144/144 132/132/132
f 132/132/132 131/131/131 134/134/134
f 137/137/137 143/143/143 135/135/135
f 139/139/139 141/141/141 140/140/140
f 141/141/141 149/149/149 140/140/140
f 139/139/139 138/138/138 143/143/143
f 136/136/136 135/135/135 144/144/144
f 129/129/129 128/128/128 127/127/127
f 112/112/112 108/108/108 146/146/146
f 15/15/15 13/13/13 11/11/11
f 7/7/7 35/35/35 18/18/18
f 14/14/14 5/5/5 19/19/19
f 24/24/24 18/18/18 45/45/45
f 26/26/26 22/22/22 23/23/23
f 25/25/25 19/19/19 26/26/26
f 32/32/32 21/21/21 29/29/29
f 82/82/82 57/57/57 79/79/79
f 51/51/51 71/71/71 53/53/53
f 55/55/55 50/50/50 58/58/58
f 73/73/73 71/71/71 51/51/51
f 81/81/81 66/66/66 57/57/57
f 63/63/63 64/64/64 54/54/54
f 63/63/63 54/54/54 56/56/56
f 98/98/98 100/100/100 110/110/110
f 147/147/147 88/88/88 87/87/87
f 86/86/86 89/89/89 93/93/93
f 114/114/114 148/148/148 115/115/115
f 148/148/148 117/117/117 115/115/115
f 119/119/119 125/125/125 122/122/122
f 124/124/124 145/145/145 127/127/127
f 9/9/9 19/19/19 5/5/5
f 25/25/25 11/11/11 14/14/14
f 11/11/11 20/20/20 15/15/15
f 20/20/20 40/40/40 15/15/15
f 45/45/45 17/17/17 38/38/38
f 59/59/59 51/51/51 50/50/50
f 60/60/60 55/55/55 58/58/58
f 65/65/65 63/63/63 55/55/55
f 60/60/60 66/66/66 68/68/68
f 62/62/62 73/73/73 51/51/51
f 109/109/109 101/101/101 102/102/102
f 106/106/106 104/104/104 105/105/105
f 106/106/106 108/108/108 107/107/107
f 105/105/105 109/109/109 103/103/103
f 113/113/113 114/114/114 112/112/112
f 130/130/130 128/128/128 129/129/129
f 144/144/144 131/131/131 132/132/132
f 132/132/132 134/134/134 130/130/130
f 137/137/137 135/135/135 136/136/136
f 139/139/139 140/140/140 138/138/138
f 149/149/149 142/142/142 140/140/140
f 139/139/139 143/143/143 137/137/137
f 136/136/136 144/144/144 133/133/133
f 129/129/129 127/127/127 145/145/145
f 112/112/112 146/146/146 113/113/113
f 66/66/66 60/60/60 57/57/57
f 64/64/64 59/59/59 54/54/54

