mtllib material.mtl
usemtl Material-塑胶__3_.003
v -0.03800900 -0.02050100 -0.00186700
v -0.03800900 -0.02050100 -0.00186700
v -0.03781100 -0.02047400 -0.00098600
v -0.03781100 -0.02047400 -0.00098600
v -0.03740500 -0.02043200 -0.00208600
v -0.03740500 -0.02043200 -0.00208600
v -0.03731000 -0.02041700 -0.00123700
v -0.03731000 -0.02041700 -0.00123700
v -0.03731000 -0.02041700 -0.00123700
v -0.03679900 -0.02035800 -0.00128200
v -0.03679900 -0.02035800 -0.00128200
v -0.03679900 -0.02035800 -0.00128200
v -0.03879000 -0.02059200 -0.00126700
v -0.03879000 -0.02059200 -0.00126700
v -0.03825200 -0.02052500 -0.00056300
v -0.03825200 -0.02052500 -0.00056300
v -0.03514800 -0.02017800 -0.00213200
v -0.03683200 -0.02036600 -0.00213200
v -0.03683200 -0.02036600 -0.00213200
v -0.03514800 -0.02017400 -0.00128200
v -0.03940200 -0.02066400 0.00036000
v -0.03854700 -0.02056000 0.00041100
v -0.03854700 -0.02056000 0.00041100
v -0.03922800 -0.02064300 -0.00054300
v -0.03922800 -0.02064300 -0.00054300
v -0.03939700 -0.02067100 0.00211800
v -0.03854700 -0.02056600 0.00211700
v -0.03850000 -0.02055500 -0.00002300
v -0.03747900 -0.02114100 -0.00114400
v -0.03747900 -0.02114100 -0.00114400
v -0.03747900 -0.02114100 -0.00114400
v -0.03760700 -0.02116000 -0.00200900
v -0.03760700 -0.02116000 -0.00200900
v -0.03672500 -0.02105300 -0.00127900
v -0.03672500 -0.02105300 -0.00127900
v -0.03860400 -0.02127400 -0.00138900
v -0.03860400 -0.02127400 -0.00138900
v -0.03814600 -0.02121700 -0.00059700
v -0.03814600 -0.02121700 -0.00059700
v -0.03840700 -0.02124800 -0.00006300
v -0.03840700 -0.02124800 -0.00006300
v -0.03840700 -0.02124800 -0.00006300
v -0.03919900 -0.02134500 -0.00042100
v -0.03919900 -0.02134500 -0.00042100
v -0.03507200 -0.02087400 -0.00212700
v -0.03675700 -0.02106200 -0.00212700
v -0.03675700 -0.02106200 -0.00212700
v -0.03507200 -0.02087000 -0.00127900
v -0.03931100 -0.02136500 0.00211300
v -0.03931300 -0.02135800 0.00041900
v -0.03846300 -0.02126100 0.00211300
v -0.03846300 -0.02125500 0.00039900
v -0.03846300 -0.02125500 0.00039900
v -0.03514800 -0.02017800 -0.00213200
v -0.03675700 -0.02106200 -0.00212700
v -0.03683200 -0.02036600 -0.00213200
v -0.03683200 -0.02036600 -0.00213200
v -0.03800900 -0.02050100 -0.00186700
v -0.03760700 -0.02116000 -0.00200900
v -0.03860400 -0.02127400 -0.00138900
v -0.03740500 -0.02043200 -0.00208600
v -0.03879000 -0.02059200 -0.00126700
v -0.03919900 -0.02134500 -0.00042100
v -0.03940200 -0.02066400 0.00036000
v -0.03931300 -0.02135800 0.00041900
v -0.03931100 -0.02136500 0.00211300
v -0.03507200 -0.02087400 -0.00212700
v -0.03507200 -0.02087400 -0.00212700
v -0.03514800 -0.02017800 -0.00213200
v -0.03514800 -0.02017400 -0.00128200
v -0.03514800 -0.02017400 -0.00128200
v -0.03507200 -0.02087000 -0.00127900
v -0.03850000 -0.02055500 -0.00002300
v -0.03840700 -0.02124800 -0.00006300
v -0.03825200 -0.02052500 -0.00056300
v -0.03854700 -0.02056000 0.00041100
v -0.03846300 -0.02125500 0.00039900
v -0.03854700 -0.02056600 0.00211700
v -0.03846300 -0.02126100 0.00211300
v -0.03814600 -0.02121700 -0.00059700
v -0.03781100 -0.02047400 -0.00098600
v -0.03731000 -0.02041700 -0.00123700
v -0.03747900 -0.02114100 -0.00114400
v -0.03672500 -0.02105300 -0.00127900
v -0.03672500 -0.02105300 -0.00127900
v -0.03514800 -0.02017400 -0.00128200
v -0.03507200 -0.02087000 -0.00127900
v -0.03507200 -0.02087000 -0.00127900
v -0.03854700 -0.02056600 0.00211700
v -0.03939700 -0.02067100 0.00211800
v -0.03939700 -0.02067100 0.00211800
v -0.03931100 -0.02136500 0.00211300
v -0.03846300 -0.02126100 0.00211300
v -0.03846300 -0.02126100 0.00211300
v -0.03507200 -0.02087400 -0.00212700
v -0.03922800 -0.02064300 -0.00054300
v -0.03939700 -0.02067100 0.00211800
v -0.03939700 -0.02067100 0.00211800
v -0.03679900 -0.02035800 -0.00128200
v -0.03679900 -0.02035800 -0.00128200
v -0.03679900 -0.02035800 -0.00128200
vn -0.11760000 0.99300000 -0.00580000
vn -0.11760000 0.99300000 -0.00570000
vn -0.11690000 0.99310000 -0.00310000
vn -0.11700000 0.99310000 -0.00310000
vn -0.11550000 0.99330000 -0.00650000
vn -0.11550000 0.99330000 -0.00640000
vn -0.11520000 0.99330000 -0.00400000
vn -0.11520000 0.99330000 -0.00390000
vn -0.11510000 0.99330000 -0.00380000
vn -0.11340000 0.99350000 -0.00400000
vn -0.11330000 0.99360000 -0.00400000
vn -0.11330000 0.99360000 -0.00390000
vn -0.12020000 0.99270000 -0.00390000
vn -0.12030000 0.99270000 -0.00390000
vn -0.11840000 0.99300000 -0.00170000
vn -0.11850000 0.99300000 -0.00170000
vn -0.10760000 0.99420000 -0.00650000
vn -0.11350000 0.99350000 -0.00660000
vn -0.11340000 0.99350000 -0.00650000
vn -0.10750000 0.99420000 -0.00390000
vn -0.12250000 0.99250000 0.00110000
vn -0.11940000 0.99280000 0.00140000
vn -0.11950000 0.99280000 0.00130000
vn -0.12190000 0.99250000 -0.00170000
vn -0.12180000 0.99250000 -0.00170000
vn -0.12250000 0.99250000 0.00660000
vn -0.11950000 0.99280000 0.00660000
vn -0.11930000 0.99290000 -0.00010000
vn 0.11610000 -0.99320000 0.00360000
vn 0.11610000 -0.99320000 0.00350000
vn 0.11600000 -0.99320000 0.00350000
vn 0.11640000 -0.99320000 0.00620000
vn 0.11650000 -0.99320000 0.00620000
vn 0.11330000 -0.99350000 0.00400000
vn 0.11340000 -0.99350000 0.00400000
vn 0.11990000 -0.99280000 0.00430000
vn 0.12000000 -0.99280000 0.00430000
vn 0.11830000 -0.99300000 0.00190000
vn 0.11840000 -0.99300000 0.00190000
vn 0.11930000 -0.99290000 0.00010000
vn 0.11930000 -0.99290000 0.00020000
vn 0.11920000 -0.99290000 0.00020000
vn 0.12200000 -0.99250000 0.00130000
vn 0.12210000 -0.99250000 0.00130000
vn 0.10750000 -0.99420000 0.00650000
vn 0.11360000 -0.99350000 0.00650000
vn 0.11340000 -0.99350000 0.00660000
vn 0.10750000 -0.99420000 0.00390000
vn 0.12250000 -0.99250000 -0.00650000
vn 0.12240000 -0.99250000 -0.00130000
vn 0.11950000 -0.99280000 -0.00660000
vn 0.11970000 -0.99280000 -0.00120000
vn 0.11950000 -0.99280000 -0.00120000
vn 0.00070000 -0.00650000 -1.00000000
vn 0.00150000 -0.00630000 -1.00000000
vn 0.00070000 -0.00650000 -1.00000000
vn 0.00070000 -0.00630000 -1.00000000
vn -0.45240000 -0.05890000 -0.88990000
vn -0.31630000 -0.04320000 -0.94770000
vn -0.70610000 -0.08840000 -0.70260000
vn -0.20020000 -0.02970000 -0.97930000
vn -0.74290000 -0.09290000 -0.66290000
vn -0.93960000 -0.11610000 -0.32190000
vn -0.99250000 -0.12240000 -0.00820000
vn -0.99250000 -0.12240000 -0.00110000
vn -0.99250000 -0.12250000 -0.00080000
vn 0.99420000 0.10740000 -0.00070000
vn 0.99420000 0.10760000 -0.00070000
vn 0.99420000 0.10760000 -0.00070000
vn 0.99420000 0.10760000 -0.00050000
vn 0.99420000 0.10780000 -0.00060000
vn 0.99420000 0.10780000 -0.00060000
vn 0.96170000 0.11600000 0.24820000
vn 0.95490000 0.11520000 0.27360000
vn 0.80460000 0.09740000 0.58580000
vn 0.99280000 0.11980000 0.00400000
vn 0.99280000 0.11990000 0.00780000
vn 0.99280000 0.11940000 -0.00010000
vn 0.99290000 0.11930000 -0.00130000
vn 0.79000000 0.09570000 0.60560000
vn 0.56920000 0.06960000 0.81930000
vn 0.25200000 0.03310000 0.96720000
vn 0.40910000 0.05110000 0.91100000
vn -0.00200000 0.00340000 1.00000000
vn -0.00210000 0.00340000 1.00000000
vn -0.00020000 0.00400000 1.00000000
vn -0.00050000 0.00390000 1.00000000
vn -0.00060000 0.00370000 1.00000000
vn 0.00070000 -0.00650000 1.00000000
vn 0.00080000 -0.00650000 1.00000000
vn 0.00080000 -0.00660000 1.00000000
vn 0.00080000 -0.00650000 1.00000000
vn 0.00080000 -0.00650000 1.00000000
vn 0.00070000 -0.00650000 1.00000000
vn 0.00070000 -0.00650000 -1.00000000
vn -0.91990000 -0.11390000 -0.37520000
vn -0.99250000 -0.12250000 -0.00090000
vn -0.99250000 -0.12240000 -0.00080000
vn -0.00050000 0.00300000 1.00000000
vn -0.00060000 0.00370000 1.00000000
vn -0.00060000 0.00340000 1.00000000
vt 0.97952800 0.98290200
vt 0.97952800 0.98290200
vt 0.98404100 0.98425200
vt 0.98404100 0.98425200
vt 0.97822800 0.98638300
vt 0.97822800 0.98638300
vt 0.98265200 0.98714500
vt 0.98265200 0.98714500
vt 0.98265200 0.98714500
vt 0.98232900 0.99016700
vt 0.98232900 0.99016700
vt 0.98232900 0.99016700
vt 0.98275100 0.97848700
vt 0.98275100 0.97848700
vt 0.98628200 0.98172900
vt 0.98628200 0.98172900
vt 0.97733100 0.99973200
vt 0.97782900 0.98972800
vt 0.97782900 0.98972800
vt 0.98197800 0.99999000
vt 0.99101400 0.97509700
vt 0.99130900 0.98000700
vt 0.99130900 0.98000700
vt 0.98644600 0.97605100
vt 0.98644600 0.97605100
vt 0.99978100 0.97477500
vt 0.99999000 0.97972800
vt 0.98908400 0.98030100
vt 0.98315900 0.98568500
vt 0.98315900 0.98568500
vt 0.98315900 0.98568500
vt 0.97867800 0.98473500
vt 0.97867800 0.98473500
vt 0.98234300 0.99012900
vt 0.98234300 0.99012900
vt 0.98210200 0.97906900
vt 0.98210200 0.97906900
vt 0.98609500 0.98185900
vt 0.98609500 0.98185900
vt 0.98886200 0.98035600
vt 0.98886200 0.98035600
vt 0.98886200 0.98035600
vt 0.98705800 0.97573200
vt 0.98705800 0.97573200
vt 0.97730900 0.99974000
vt 0.97783200 0.98969600
vt 0.97783200 0.98969600
vt 0.98198900 1.00000600
vt 0.99977800 0.97477000
vt 0.99131600 0.97510500
vt 0.99998800 0.97973100
vt 0.99126000 0.98002000
vt 0.99126000 0.98002000
vt -0.00000200 -0.00000100
vt 0.00877300 0.01242300
vt 0.00874700 0.00000000
vt 0.00874700 0.00000000
vt 0.01512400 0.00000000
vt 0.01328600 0.01242400
vt 0.01946700 0.01239200
vt 0.01175100 0.00000000
vt 0.02030500 -0.00000800
vt 0.02547500 0.01241600
vt 0.02959400 -0.00000100
vt 0.02990500 0.01241500
vt 0.03868100 0.01242000
vt 0.07907100 0.01240600
vt 0.07907100 0.01240600
vt 0.07907700 -0.00002000
vt 0.07469700 -0.00001600
vt 0.07469700 -0.00001600
vt 0.07470300 0.01242200
vt 0.05414600 -0.00000100
vt 0.05436000 0.01241200
vt 0.05729000 -0.00000000
vt 0.05185900 0.00000200
vt 0.05191600 0.01242200
vt 0.04308900 -0.00000400
vt 0.04309500 0.01242300
vt 0.05751200 0.01241500
vt 0.06050000 0.00000000
vt 0.06340100 0.00001100
vt 0.06202800 0.01242300
vt 0.06617500 0.01241500
vt 0.06617500 0.01241500
vt 0.07470200 0.00000400
vt 0.07469600 0.01242700
vt 0.07469600 0.01242700
vt 0.04308900 -0.00001500
vt 0.03868100 -0.00000300
vt 0.03868100 -0.00000300
vt 0.03868100 0.01242100
vt 0.04308900 0.01240400
vt 0.04308900 0.01240400
vt 0.00000200 0.01241900
vt 0.02476700 0.00000200
vt 0.03868300 -0.00000100
vt 0.03868300 -0.00000100
vt 0.06619700 -0.00000300
vt 0.06619700 -0.00000300
vt 0.06619700 -0.00000300
f 3/3/3 9/9/9 1/1/1
f 12/12/12 18/18/18 6/6/6
f 14/14/14 15/15/15 4/4/4
f 11/11/11 20/20/20 17/17/17
f 22/22/22 28/28/28 21/21/21
f 27/27/27 23/23/23 26/26/26
f 15/15/15 14/14/14 24/24/24
f 32/32/32 46/46/46 35/35/35
f 29/29/29 36/36/36 33/33/33
f 36/36/36 30/30/30 38/38/38
f 37/37/37 38/38/38 43/43/43
f 45/45/45 48/48/48 34/34/34
f 50/50/50 53/53/53 51/51/51
f 43/43/43 42/42/42 50/50/50
f 54/54/54 95/95/95 56/56/56
f 58/58/58 59/59/59 60/60/60
f 55/55/55 59/59/59 61/61/61
f 63/63/63 96/96/96 62/62/62
f 64/64/64 96/96/96 63/63/63
f 66/66/66 97/97/97 65/65/65
f 71/71/71 72/72/72 67/67/67
f 74/74/74 80/80/80 75/75/75
f 77/77/77 74/74/74 73/73/73
f 79/79/79 77/77/77 76/76/76
f 75/75/75 80/80/80 81/81/81
f 82/82/82 83/83/83 85/85/85
f 81/81/81 83/83/83 82/82/82
f 86/86/86 101/101/101 87/87/87
f 92/92/92 93/93/93 90/90/90
f 61/61/61 59/59/59 58/58/58
f 58/58/58 60/60/60 62/62/62
f 80/80/80 83/83/83 81/81/81
f 82/82/82 85/85/85 99/99/99
f 8/8/8 5/5/5 1/1/1
f 10/10/10 6/6/6 7/7/7
f 13/13/13 3/3/3 2/2/2
f 11/11/11 17/17/17 19/19/19
f 28/28/28 24/24/24 21/21/21
f 23/23/23 21/21/21 26/26/26
f 16/16/16 25/25/25 28/28/28
f 33/33/33 35/35/35 31/31/31
f 39/39/39 41/41/41 44/44/44
f 45/45/45 34/34/34 47/47/47
f 50/50/50 51/51/51 49/49/49
f 40/40/40 52/52/52 50/50/50
f 95/95/95 55/55/55 56/56/56
f 55/55/55 61/61/61 57/57/57
f 63/63/63 62/62/62 60/60/60
f 64/64/64 63/63/63 65/65/65
f 98/98/98 64/64/64 65/65/65
f 70/70/70 68/68/68 69/69/69
f 74/74/74 75/75/75 73/73/73
f 77/77/77 73/73/73 76/76/76
f 79/79/79 76/76/76 78/78/78
f 100/100/100 84/84/84 88/88/88
f 94/94/94 89/89/89 91/91/91

