mtllib material.mtl
usemtl Material-塑胶__3_.005
v -0.03101900 -0.01975800 -0.00116200
v -0.03016900 -0.01968400 -0.00213100
v -0.03016900 -0.01968400 -0.00213100
v -0.03101900 -0.01976300 -0.00213200
v -0.03059500 -0.01971700 -0.00007500
v -0.03059500 -0.01971700 -0.00007500
v -0.03101900 -0.01975700 0.00077900
v -0.03016900 -0.01967900 -0.00072200
v -0.03016900 -0.01967900 -0.00072200
v -0.02962500 -0.01962900 0.00025800
v -0.02843400 -0.01952700 0.00008900
v -0.02891100 -0.01956800 -0.00069400
v -0.02891100 -0.01956800 -0.00069400
v -0.02891100 -0.01956800 -0.00069400
v -0.02831800 -0.01952100 -0.00148300
v -0.02733500 -0.01944100 -0.00155500
v -0.02733500 -0.01944100 -0.00155500
v -0.02733500 -0.01944100 -0.00155500
v -0.02783200 -0.01948400 -0.00213200
v -0.02761900 -0.01946100 -0.00099700
v -0.02677000 -0.01939400 -0.00103300
v -0.02677000 -0.01939400 -0.00103300
v -0.02677000 -0.01939900 -0.00213200
v -0.02791800 -0.01948500 -0.00059900
v -0.02791800 -0.01948500 -0.00059900
v -0.02737700 -0.01944100 -0.00031400
v -0.02737700 -0.01944100 -0.00031400
v -0.02677000 -0.01939200 -0.00006500
v -0.02677000 -0.01939200 -0.00006500
v -0.02677000 -0.01939200 -0.00006500
v -0.02761900 -0.01946000 0.00016500
v -0.02761900 -0.01946000 0.00016500
v -0.03016900 -0.01968000 0.00098300
v -0.03016900 -0.01968000 0.00098300
v -0.03016900 -0.01968000 0.00098300
v -0.02945100 -0.01961700 0.00144300
v -0.02945100 -0.01961700 0.00144300
v -0.03101900 -0.01976300 0.00211800
v -0.03101900 -0.01976300 0.00211800
v -0.03042500 -0.01970600 0.00171100
v -0.02995700 -0.01966600 0.00211800
v -0.02995700 -0.01966600 0.00211800
v -0.02896400 -0.01957300 0.00079400
v -0.02896400 -0.01957300 0.00079400
v -0.02677000 -0.01939300 0.00051000
v -0.02677000 -0.01939500 0.00124900
v -0.02677000 -0.01939500 0.00124900
v -0.02761900 -0.01946100 0.00082400
v -0.02761900 -0.01946300 0.00147000
v -0.02677000 -0.01939900 0.00211800
v -0.02677000 -0.01939900 0.00211800
v -0.02761900 -0.01946600 0.00211800
v -0.03095400 -0.02045400 -0.00094000
v -0.03095400 -0.02046000 -0.00212700
v -0.03010600 -0.02038100 -0.00212700
v -0.03054000 -0.02041500 -0.00005700
v -0.03054000 -0.02041500 -0.00005700
v -0.03010600 -0.02037600 -0.00071200
v -0.02956200 -0.02032700 0.00025500
v -0.02956200 -0.02032700 0.00025500
v -0.02885100 -0.02026600 -0.00069300
v -0.02885100 -0.02026600 -0.00069300
v -0.02885100 -0.02026600 -0.00069300
v -0.02837500 -0.02022500 0.00008900
v -0.02827600 -0.02021900 -0.00145900
v -0.02827600 -0.02021900 -0.00145900
v -0.02777500 -0.02018100 -0.00212700
v -0.02777500 -0.02018100 -0.00212700
v -0.02727900 -0.02013800 -0.00155200
v -0.02727900 -0.02013800 -0.00155200
v -0.02671500 -0.02009600 -0.00212700
v -0.02756300 -0.02015900 -0.00099400
v -0.02756300 -0.02015900 -0.00099400
v -0.02671500 -0.02009200 -0.00103100
v -0.02671500 -0.02009200 -0.00103100
v -0.02786000 -0.02018200 -0.00059800
v -0.02786000 -0.02018200 -0.00059800
v -0.02732100 -0.02013800 -0.00031400
v -0.02732100 -0.02013800 -0.00031400
v -0.02671500 -0.02009000 -0.00007700
v -0.02671500 -0.02009000 -0.00007700
v -0.02756300 -0.02015700 0.00015900
v -0.02756300 -0.02015700 0.00015900
v -0.03095400 -0.02045500 0.00100200
v -0.03095400 -0.02045500 0.00100200
v -0.03010600 -0.02037700 0.00098100
v -0.03010600 -0.02037700 0.00098100
v -0.03010600 -0.02037700 0.00098100
v -0.02938600 -0.02031400 0.00143700
v -0.02938600 -0.02031400 0.00143700
v -0.03095400 -0.02046000 0.00211300
v -0.03095400 -0.02046000 0.00211300
v -0.03036200 -0.02040300 0.00170700
v -0.03036200 -0.02040300 0.00170700
v -0.03036200 -0.02040300 0.00170700
v -0.02890200 -0.02027000 0.00079100
v -0.02890200 -0.02027000 0.00079100
v -0.02989400 -0.02036300 0.00211300
v -0.02989400 -0.02036300 0.00211300
v -0.02671500 -0.02009100 0.00051100
v -0.02671500 -0.02009100 0.00051100
v -0.02671500 -0.02009100 0.00051100
v -0.02671500 -0.02009200 0.00124700
v -0.02756300 -0.02015800 0.00082700
v -0.02756300 -0.02015800 0.00082700
v -0.02756300 -0.02016100 0.00146300
v -0.02671500 -0.02009700 0.00211300
v -0.02756300 -0.02016400 0.00211300
v -0.02671500 -0.02009600 -0.00212700
v -0.02671500 -0.02009600 -0.00212700
v -0.02783200 -0.01948400 -0.00213200
v -0.02783200 -0.01948400 -0.00213200
v -0.02677000 -0.01939900 -0.00213200
v -0.02777500 -0.02018100 -0.00212700
v -0.02671500 -0.02009000 -0.00007700
v -0.02671500 -0.02009000 -0.00007700
v -0.02671500 -0.02009000 -0.00007700
v -0.02671500 -0.02009000 -0.00007700
v -0.02677000 -0.01939200 -0.00006500
v -0.02677000 -0.01939200 -0.00006500
v -0.02677000 -0.01939200 -0.00006500
v -0.02671500 -0.02009100 0.00051100
v -0.02671500 -0.02009100 0.00051100
v -0.02671500 -0.02009100 0.00051100
v -0.02671500 -0.02009100 0.00051100
v -0.02671500 -0.02009100 0.00051100
v -0.02677000 -0.01939300 0.00051000
v -0.02677000 -0.01939300 0.00051000
v -0.02677000 -0.01939500 0.00124900
v -0.02677000 -0.01939500 0.00124900
v -0.02677000 -0.01939900 0.00211800
v -0.02677000 -0.01939900 0.00211800
v -0.02677000 -0.01939900 0.00211800
v -0.02671500 -0.02009700 0.00211300
v -0.02671500 -0.02009200 0.00124700
v -0.02671500 -0.02009200 0.00124700
v -0.02677000 -0.01939400 -0.00103300
v -0.02677000 -0.01939400 -0.00103300
v -0.02671500 -0.02009200 -0.00103100
v -0.02671500 -0.02009200 -0.00103100
v -0.02677000 -0.01939900 -0.00213200
v -0.02677000 -0.01939900 -0.00213200
v -0.02677000 -0.01939900 -0.00213200
v -0.02761900 -0.01946600 0.00211800
v -0.02756300 -0.02016400 0.00211300
v -0.02756300 -0.02016400 0.00211300
v -0.02671500 -0.02009700 0.00211300
v -0.02677000 -0.01939900 0.00211800
v -0.02677000 -0.01939900 0.00211800
v -0.02756300 -0.02015700 0.00015900
v -0.02756300 -0.02015700 0.00015900
v -0.02756300 -0.02015700 0.00015900
v -0.02761900 -0.01946000 0.00016500
v -0.02761900 -0.01946000 0.00016500
v -0.02761900 -0.01946000 0.00016500
v -0.02761900 -0.01946100 -0.00099700
v -0.02761900 -0.01946100 -0.00099700
v -0.02761900 -0.01946100 0.00082400
v -0.02761900 -0.01946100 0.00082400
v -0.02756300 -0.02015900 -0.00099400
v -0.02756300 -0.02015800 0.00082700
v -0.02756300 -0.02015800 0.00082700
v -0.02756300 -0.02015800 0.00082700
v -0.02756300 -0.02016100 0.00146300
v -0.02761900 -0.01946300 0.00147000
v -0.02761900 -0.01946300 0.00147000
v -0.02761900 -0.01946300 0.00147000
v -0.02761900 -0.01946600 0.00211800
v -0.02756300 -0.02016400 0.00211300
v -0.02756300 -0.02016400 0.00211300
v -0.02995700 -0.01966600 0.00211800
v -0.02938600 -0.02031400 0.00143700
v -0.02938600 -0.02031400 0.00143700
v -0.02938600 -0.02031400 0.00143700
v -0.02945100 -0.01961700 0.00144300
v -0.02945100 -0.01961700 0.00144300
v -0.02989400 -0.02036300 0.00211300
v -0.02989400 -0.02036300 0.00211300
v -0.02896400 -0.01957300 0.00079400
v -0.02896400 -0.01957300 0.00079400
v -0.02896400 -0.01957300 0.00079400
v -0.02844200 -0.01988800 0.00014000
v -0.02844200 -0.01988800 0.00014000
v -0.02844200 -0.01988800 0.00014000
v -0.02844200 -0.01988800 0.00014000
v -0.02844200 -0.01988800 0.00014000
v -0.02844200 -0.01988800 0.00014000
v -0.02844200 -0.01988800 0.00014000
v -0.02890200 -0.02027000 0.00079100
v -0.02890200 -0.02027000 0.00079100
v -0.02761900 -0.01946100 -0.00099700
v -0.02791800 -0.01948500 -0.00059900
v -0.02791800 -0.01948500 -0.00059900
v -0.02791800 -0.01948500 -0.00059900
v -0.02756300 -0.02015900 -0.00099400
v -0.02756300 -0.02015900 -0.00099400
v -0.02756300 -0.02015900 -0.00099400
v -0.02843400 -0.01952700 0.00008900
v -0.02843400 -0.01952700 0.00008900
v -0.02837500 -0.02022500 0.00008900
v -0.02837500 -0.02022500 0.00008900
v -0.02786000 -0.02018200 -0.00059800
v -0.02786000 -0.02018200 -0.00059800
v -0.03101900 -0.01976300 0.00211800
v -0.03095400 -0.02046000 0.00211300
v -0.03095400 -0.02046000 0.00211300
v -0.02995700 -0.01966600 0.00211800
v -0.02995700 -0.01966600 0.00211800
v -0.02989400 -0.02036300 0.00211300
v -0.03095400 -0.02046000 -0.00212700
v -0.03095400 -0.02046000 -0.00212700
v -0.03101900 -0.01975800 -0.00116200
v -0.03101900 -0.01975800 -0.00116200
v -0.03101900 -0.01976300 -0.00213200
v -0.03095400 -0.02045400 -0.00094000
v -0.03095400 -0.02045400 -0.00094000
v -0.03095400 -0.02045400 -0.00094000
v -0.03101900 -0.01975700 0.00077900
v -0.03101900 -0.01975700 0.00077900
v -0.03101900 -0.01975700 0.00077900
v -0.03095400 -0.02046000 0.00211300
v -0.03101900 -0.01976300 0.00211800
v -0.03101900 -0.01976300 0.00211800
v -0.03095400 -0.02045500 0.00100200
v -0.03095400 -0.02045500 0.00100200
v -0.03095400 -0.02045500 0.00100200
v -0.03010600 -0.02038100 -0.00212700
v -0.03010600 -0.02038100 -0.00212700
v -0.03101900 -0.01976300 -0.00213200
v -0.03016900 -0.01968400 -0.00213100
v -0.03095400 -0.02046000 -0.00212700
v -0.03016900 -0.01968000 0.00098300
v -0.03016900 -0.01968000 0.00098300
v -0.03010600 -0.02037700 0.00098100
v -0.03010600 -0.02037600 -0.00071200
v -0.03010600 -0.02037600 -0.00071200
v -0.03010600 -0.02037600 -0.00071200
v -0.03016900 -0.01967900 -0.00072200
v -0.03016900 -0.01967900 -0.00072200
v -0.03016900 -0.01967900 -0.00072200
v -0.03016900 -0.01968400 -0.00213100
v -0.02777500 -0.02018100 -0.00212700
v -0.02777500 -0.02018100 -0.00212700
v -0.02831800 -0.01952100 -0.00148300
v -0.02831800 -0.01952100 -0.00148300
v -0.02831800 -0.01952100 -0.00148300
v -0.02783200 -0.01948400 -0.00213200
v -0.02827600 -0.02021900 -0.00145900
v -0.02827600 -0.02021900 -0.00145900
v -0.02827600 -0.02021900 -0.00145900
v -0.02885100 -0.02026600 -0.00069300
v -0.02885100 -0.02026600 -0.00069300
v -0.02891100 -0.01956800 -0.00069400
v -0.02891100 -0.01956800 -0.00069400
v -0.02891100 -0.01956800 -0.00069400
v -0.02891100 -0.01956800 -0.00069400
v -0.02956200 -0.02032700 0.00025500
v -0.02956200 -0.02032700 0.00025500
v -0.02956200 -0.02032700 0.00025500
v -0.02962500 -0.01962900 0.00025800
v -0.02962500 -0.01962900 0.00025800
v -0.02962500 -0.01962900 0.00025800
v -0.03010600 -0.02037700 0.00098100
v -0.03010600 -0.02037700 0.00098100
v -0.02671500 -0.02009600 -0.00212700
v -0.03010600 -0.02038100 -0.00212700
v -0.03010600 -0.02038100 -0.00212700
v -0.03016900 -0.01968000 0.00098300
vn -0.09290000 0.99570000 -0.00350000
vn -0.08990000 0.99590000 -0.00630000
vn -0.08990000 0.99590000 -0.00640000
vn -0.09290000 0.99570000 -0.00640000
vn -0.09140000 0.99580000 -0.00020000
vn -0.09130000 0.99580000 -0.00020000
vn -0.09290000 0.99570000 0.00230000
vn -0.08980000 0.99600000 -0.00210000
vn -0.08990000 0.99600000 -0.00220000
vn -0.08790000 0.99610000 0.00080000
vn -0.08370000 0.99650000 0.00030000
vn -0.08530000 0.99640000 -0.00200000
vn -0.08530000 0.99640000 -0.00210000
vn -0.08540000 0.99630000 -0.00200000
vn -0.08330000 0.99650000 -0.00440000
vn -0.07980000 0.99680000 -0.00450000
vn -0.07990000 0.99680000 -0.00450000
vn -0.07980000 0.99680000 -0.00460000
vn -0.08160000 0.99660000 -0.00620000
vn -0.08080000 0.99670000 -0.00290000
vn -0.07770000 0.99700000 -0.00300000
vn -0.07780000 0.99700000 -0.00300000
vn -0.07780000 0.99690000 -0.00620000
vn -0.08190000 0.99660000 -0.00170000
vn -0.08190000 0.99660000 -0.00180000
vn -0.07990000 0.99680000 -0.00090000
vn -0.08000000 0.99680000 -0.00090000
vn -0.07770000 0.99700000 -0.00020000
vn -0.07780000 0.99700000 -0.00020000
vn -0.07770000 0.99700000 -0.00010000
vn -0.08080000 0.99670000 0.00040000
vn -0.08080000 0.99670000 0.00050000
vn -0.08980000 0.99600000 0.00300000
vn -0.08990000 0.99590000 0.00300000
vn -0.08980000 0.99600000 0.00290000
vn -0.08730000 0.99620000 0.00420000
vn -0.08730000 0.99620000 0.00430000
vn -0.09290000 0.99570000 0.00640000
vn -0.09290000 0.99570000 0.00630000
vn -0.09080000 0.99590000 0.00510000
vn -0.08920000 0.99600000 0.00630000
vn -0.08910000 0.99600000 0.00630000
vn -0.08560000 0.99630000 0.00230000
vn -0.08570000 0.99630000 0.00240000
vn -0.07780000 0.99700000 0.00150000
vn -0.07790000 0.99700000 0.00370000
vn -0.07780000 0.99700000 0.00360000
vn -0.08080000 0.99670000 0.00240000
vn -0.08080000 0.99670000 0.00430000
vn -0.07780000 0.99690000 0.00620000
vn -0.07790000 0.99690000 0.00610000
vn -0.08090000 0.99670000 0.00620000
vn 0.09280000 -0.99570000 0.00280000
vn 0.09290000 -0.99570000 0.00640000
vn 0.08990000 -0.99590000 0.00630000
vn 0.09140000 -0.99580000 0.00010000
vn 0.09200000 -0.99580000 0.00030000
vn 0.08990000 -0.99600000 0.00210000
vn 0.08790000 -0.99610000 -0.00080000
vn 0.08790000 -0.99610000 -0.00070000
vn 0.08530000 -0.99640000 0.00210000
vn 0.08540000 -0.99630000 0.00200000
vn 0.08530000 -0.99640000 0.00200000
vn 0.08370000 -0.99650000 -0.00030000
vn 0.08340000 -0.99650000 0.00420000
vn 0.08330000 -0.99650000 0.00430000
vn 0.08160000 -0.99660000 0.00630000
vn 0.08150000 -0.99670000 0.00620000
vn 0.07980000 -0.99680000 0.00450000
vn 0.07980000 -0.99680000 0.00460000
vn 0.07780000 -0.99690000 0.00620000
vn 0.08080000 -0.99670000 0.00290000
vn 0.08080000 -0.99670000 0.00300000
vn 0.07780000 -0.99700000 0.00300000
vn 0.07790000 -0.99700000 0.00300000
vn 0.08190000 -0.99660000 0.00180000
vn 0.08190000 -0.99660000 0.00170000
vn 0.07980000 -0.99680000 0.00080000
vn 0.07990000 -0.99680000 0.00090000
vn 0.07790000 -0.99700000 0.00020000
vn 0.07780000 -0.99700000 0.00020000
vn 0.08080000 -0.99670000 -0.00050000
vn 0.08070000 -0.99670000 -0.00050000
vn 0.09290000 -0.99570000 -0.00300000
vn 0.09280000 -0.99570000 -0.00300000
vn 0.08980000 -0.99600000 -0.00300000
vn 0.08990000 -0.99590000 -0.00290000
vn 0.08980000 -0.99600000 -0.00290000
vn 0.08730000 -0.99620000 -0.00430000
vn 0.08730000 -0.99620000 -0.00420000
vn 0.09290000 -0.99570000 -0.00630000
vn 0.09290000 -0.99570000 -0.00640000
vn 0.09070000 -0.99590000 -0.00510000
vn 0.09080000 -0.99590000 -0.00510000
vn 0.09080000 -0.99590000 -0.00520000
vn 0.08560000 -0.99630000 -0.00230000
vn 0.08570000 -0.99630000 -0.00240000
vn 0.08910000 -0.99600000 -0.00620000
vn 0.08920000 -0.99600000 -0.00630000
vn 0.07780000 -0.99700000 -0.00150000
vn 0.07790000 -0.99700000 -0.00140000
vn 0.07790000 -0.99700000 -0.00150000
vn 0.07780000 -0.99700000 -0.00360000
vn 0.08070000 -0.99670000 -0.00240000
vn 0.08080000 -0.99670000 -0.00240000
vn 0.08080000 -0.99670000 -0.00430000
vn 0.07780000 -0.99690000 -0.00620000
vn 0.08080000 -0.99670000 -0.00620000
vn 0.00030000 -0.00660000 -1.00000000
vn 0.00060000 -0.00600000 -1.00000000
vn 0.00040000 -0.00630000 -1.00000000
vn 0.00060000 -0.00600000 -1.00000000
vn 0.00060000 -0.00600000 -1.00000000
vn 0.00030000 -0.00660000 -1.00000000
vn 0.99700000 0.07770000 0.00010000
vn 0.99700000 0.07780000 0.00010000
vn 0.99700000 0.07780000 0.00000000
vn 0.99700000 0.07780000 -0.00010000
vn 0.99700000 0.07780000 -0.00010000
vn 0.99700000 0.07780000 0.00000000
vn 0.99700000 0.07780000 0.00010000
vn 0.99700000 0.07780000 0.00010000
vn 0.99700000 0.07800000 0.00020000
vn 0.99700000 0.07780000 0.00000000
vn 0.99700000 0.07780000 0.00020000
vn 0.99700000 0.07770000 0.00030000
vn 0.99700000 0.07780000 0.00020000
vn 0.99700000 0.07780000 0.00000000
vn 0.99700000 0.07780000 0.00020000
vn 0.99700000 0.07770000 0.00030000
vn 0.99700000 0.07770000 0.00030000
vn 0.99700000 0.07780000 0.00030000
vn 0.99700000 0.07800000 0.00020000
vn 0.99700000 0.07780000 0.00030000
vn 0.99700000 0.07780000 0.00030000
vn 0.99700000 0.07800000 0.00020000
vn 0.99700000 0.07760000 -0.00030000
vn 0.99700000 0.07780000 -0.00010000
vn 0.99700000 0.07780000 -0.00030000
vn 0.99700000 0.07780000 -0.00020000
vn 0.99700000 0.07760000 -0.00030000
vn 0.99700000 0.07790000 -0.00040000
vn 0.99700000 0.07780000 -0.00030000
vn 0.00080000 -0.00610000 1.00000000
vn 0.00060000 -0.00590000 1.00000000
vn 0.00080000 -0.00610000 1.00000000
vn 0.00060000 -0.00590000 1.00000000
vn 0.00080000 -0.00610000 1.00000000
vn 0.00060000 -0.00590000 1.00000000
vn -0.99670000 -0.08080000 -0.00020000
vn -0.99670000 -0.08070000 0.00000000
vn -0.99670000 -0.08080000 0.00010000
vn -0.99670000 -0.08080000 0.00020000
vn -0.99670000 -0.08090000 -0.00010000
vn -0.99670000 -0.08070000 0.00000000
vn -0.99670000 -0.08080000 0.00020000
vn -0.99670000 -0.08080000 0.00010000
vn -0.99670000 -0.08090000 -0.00030000
vn -0.99670000 -0.08090000 -0.00010000
vn -0.99670000 -0.08080000 0.00010000
vn -0.99670000 -0.08090000 -0.00030000
vn -0.99670000 -0.08090000 -0.00010000
vn -0.99670000 -0.08080000 -0.00010000
vn -0.99670000 -0.08080000 -0.00040000
vn -0.99670000 -0.08090000 -0.00030000
vn -0.99670000 -0.08090000 -0.00050000
vn -0.99670000 -0.08080000 -0.00040000
vn -0.99670000 -0.08090000 -0.00050000
vn -0.99670000 -0.08090000 -0.00050000
vn -0.99670000 -0.08080000 -0.00040000
vn 0.79570000 0.06740000 0.60190000
vn 0.79580000 0.06720000 0.60180000
vn 0.79600000 0.06700000 0.60160000
vn 0.79590000 0.06720000 0.60170000
vn 0.79580000 0.06710000 0.60190000
vn 0.79580000 0.06720000 0.60180000
vn 0.79580000 0.06720000 0.60180000
vn 0.79570000 0.06740000 0.60190000
vn 0.79590000 0.06680000 0.60170000
vn 0.79580000 0.06720000 0.60180000
vn 0.79600000 0.06700000 0.60160000
vn 0.79610000 0.06680000 0.60150000
vn 0.79610000 0.06660000 0.60150000
vn 0.79600000 0.06700000 0.60160000
vn 0.79590000 0.06680000 0.60170000
vn 0.79620000 0.06690000 0.60130000
vn 0.79620000 0.06670000 0.60130000
vn 0.79620000 0.06640000 0.60140000
vn 0.79590000 0.06720000 0.60170000
vn 0.79600000 0.06710000 0.60160000
vn 0.79620000 0.06630000 0.60140000
vn 0.79620000 0.06630000 0.60140000
vn 0.79610000 0.06680000 0.60150000
vn 0.79620000 0.06640000 0.60140000
vn 0.79620000 0.06630000 0.60140000
vn 0.79620000 0.06640000 0.60140000
vn 0.79620000 0.06690000 0.60130000
vn 0.79610000 0.06680000 0.60150000
vn 0.79590000 0.06680000 0.60170000
vn 0.79620000 0.06670000 0.60130000
vn 0.79610000 0.06660000 0.60150000
vn 0.79620000 0.06670000 0.60130000
vn 0.79620000 0.06690000 0.60130000
vn 0.00060000 -0.00630000 1.00000000
vn 0.00060000 -0.00630000 1.00000000
vn 0.00060000 -0.00640000 1.00000000
vn 0.00060000 -0.00640000 1.00000000
vn 0.00060000 -0.00630000 1.00000000
vn 0.00060000 -0.00640000 1.00000000
vn -0.99570000 -0.09280000 0.00040000
vn -0.99570000 -0.09290000 0.00080000
vn -0.99570000 -0.09280000 0.00040000
vn -0.99570000 -0.09290000 0.00010000
vn -0.99570000 -0.09290000 0.00080000
vn -0.99570000 -0.09280000 0.00000000
vn -0.99570000 -0.09280000 0.00040000
vn -0.99570000 -0.09290000 0.00010000
vn -0.99570000 -0.09290000 0.00010000
vn -0.99570000 -0.09280000 0.00000000
vn -0.99570000 -0.09290000 -0.00040000
vn -0.99570000 -0.09280000 -0.00040000
vn -0.99570000 -0.09280000 -0.00040000
vn -0.99570000 -0.09290000 -0.00040000
vn -0.99570000 -0.09280000 -0.00040000
vn -0.99570000 -0.09280000 0.00000000
vn -0.99570000 -0.09290000 -0.00040000
vn 0.00060000 -0.00630000 -1.00000000
vn 0.00070000 -0.00630000 -1.00000000
vn 0.00070000 -0.00630000 -1.00000000
vn 0.00090000 -0.00610000 -1.00000000
vn 0.00070000 -0.00630000 -1.00000000
vn 0.99600000 0.08980000 0.00010000
vn 0.99590000 0.08990000 0.00000000
vn 0.99600000 0.08990000 0.00040000
vn 0.99600000 0.08980000 0.00010000
vn 0.99590000 0.08990000 -0.00050000
vn 0.99590000 0.08990000 0.00000000
vn 0.99590000 0.08990000 -0.00050000
vn 0.99600000 0.08980000 -0.00030000
vn 0.99600000 0.08990000 -0.00010000
vn 0.99600000 0.08970000 -0.00040000
vn -0.79620000 -0.06900000 -0.60110000
vn -0.79610000 -0.06890000 -0.60120000
vn -0.79590000 -0.06930000 -0.60140000
vn -0.79600000 -0.06920000 -0.60140000
vn -0.79600000 -0.06910000 -0.60140000
vn -0.79600000 -0.06890000 -0.60130000
vn -0.79610000 -0.06930000 -0.60110000
vn -0.79590000 -0.06930000 -0.60140000
vn -0.79610000 -0.06900000 -0.60120000
vn -0.79600000 -0.06950000 -0.60130000
vn -0.79590000 -0.06950000 -0.60150000
vn -0.79590000 -0.06950000 -0.60150000
vn -0.79590000 -0.06930000 -0.60150000
vn -0.79570000 -0.06940000 -0.60170000
vn -0.79590000 -0.06930000 -0.60140000
vn -0.79570000 -0.06980000 -0.60170000
vn -0.79590000 -0.06950000 -0.60150000
vn -0.79570000 -0.06980000 -0.60160000
vn -0.79570000 -0.06980000 -0.60170000
vn -0.79570000 -0.06980000 -0.60160000
vn -0.79560000 -0.06970000 -0.60170000
vn -0.79570000 -0.06980000 -0.60170000
vn -0.79550000 -0.07000000 -0.60190000
vn 0.99700000 0.07780000 -0.00030000
vn 0.99590000 0.08990000 -0.00050000
vn 0.99600000 0.08970000 -0.00040000
vn -0.79550000 -0.07000000 -0.60190000
vt 0.97930500 0.97392600
vt 0.97349500 0.97872400
vt 0.97349500 0.97872400
vt 0.97380600 0.97361100
vt 0.98556100 0.97660800
vt 0.98556100 0.97660800
vt 0.99049400 0.97402600
vt 0.98171200 0.97912000
vt 0.98171200 0.97912000
vt 0.98758800 0.98242300
vt 0.98657300 0.98968100
vt 0.98170600 0.98671700
vt 0.98170600 0.98671700
vt 0.98170600 0.98671700
vt 0.97668500 0.99016200
vt 0.97588400 0.99620000
vt 0.97588400 0.99620000
vt 0.97588400 0.99620000
vt 0.97243600 0.99288500
vt 0.97955400 0.99459500
vt 0.97910700 0.99987800
vt 0.97910700 0.99987800
vt 0.97191400 0.99948500
vt 0.98215400 0.99282500
vt 0.98215400 0.99282500
vt 0.98394100 0.99620000
vt 0.98394100 0.99620000
vt 0.98556700 1.00001000
vt 0.98556700 1.00001000
vt 0.98556700 1.00001000
vt 0.98706900 0.99470000
vt 0.98706900 0.99470000
vt 0.99182800 0.97904300
vt 0.99182800 0.97904300
vt 0.99182800 0.97904300
vt 0.99473900 0.98327000
vt 0.99473900 0.98327000
vt 0.99812000 0.97362400
vt 0.99812000 0.97362400
vt 0.99600700 0.97731000
vt 0.99854600 0.97998100
vt 0.99854600 0.97998100
vt 0.99092300 0.98638100
vt 0.99092300 0.98638100
vt 0.98942000 0.99997200
vt 0.99432300 0.99982300
vt 0.99432300 0.99982300
vt 0.99133800 0.99462700
vt 0.99547200 0.99445900
vt 0.99998900 0.99949400
vt 0.99998900 0.99949400
vt 0.99959000 0.99420100
vt 0.98056800 0.97399100
vt 0.97380700 0.97361700
vt 0.97349500 0.97872800
vt 0.98566900 0.97655300
vt 0.98566900 0.97655300
vt 0.98175800 0.97912100
vt 0.98757600 0.98243200
vt 0.98757600 0.98243200
vt 0.98170100 0.98672100
vt 0.98170100 0.98672100
vt 0.98170100 0.98672100
vt 0.98657300 0.98968100
vt 0.97682100 0.99006900
vt 0.97682100 0.99006900
vt 0.97243900 0.99289300
vt 0.97243900 0.99289300
vt 0.97588400 0.99620000
vt 0.97588400 0.99620000
vt 0.97191500 0.99948000
vt 0.97955400 0.99459500
vt 0.97955400 0.99459500
vt 0.97910600 0.99987800
vt 0.97910600 0.99987800
vt 0.98215400 0.99282500
vt 0.98215400 0.99282500
vt 0.98394100 0.99620000
vt 0.98394100 0.99620000
vt 0.98548200 1.00000900
vt 0.98548200 1.00000900
vt 0.98703200 0.99470000
vt 0.98703200 0.99470000
vt 0.99179600 0.97396500
vt 0.99179600 0.97396500
vt 0.99182800 0.97904300
vt 0.99182800 0.97904300
vt 0.99182800 0.97904300
vt 0.99471700 0.98328800
vt 0.99471700 0.98328800
vt 0.99811900 0.97362100
vt 0.99811900 0.97362100
vt 0.99600700 0.97731000
vt 0.99600700 0.97731000
vt 0.99600700 0.97731000
vt 0.99091300 0.98638900
vt 0.99091300 0.98638900
vt 0.99854700 0.97998200
vt 0.99854700 0.97998200
vt 0.98943500 0.99997200
vt 0.98943500 0.99997200
vt 0.98943500 0.99997200
vt 0.99432700 0.99982300
vt 0.99136900 0.99462700
vt 0.99136900 0.99462700
vt 0.99544700 0.99446000
vt 0.99999000 0.99949400
vt 0.99958900 0.99420200
vt 0.00001100 0.01179800
vt 0.00001100 0.01179800
vt 0.00496900 0.00000100
vt 0.00496900 0.00000100
vt 0.00000200 -0.00000200
vt 0.00496300 0.01179400
vt 0.11325400 0.01180300
vt 0.11325400 0.01180300
vt 0.11325400 0.01180300
vt 0.11325400 0.01180300
vt 0.11319300 0.00000000
vt 0.11319300 0.00000000
vt 0.11319300 0.00000000
vt 0.11050600 0.01179700
vt 0.11050600 0.01179700
vt 0.11050600 0.01179700
vt 0.11050600 0.01179700
vt 0.11050600 0.01179700
vt 0.11051700 -0.00000000
vt 0.11051700 -0.00000000
vt 0.10707500 0.00000100
vt 0.10707500 0.00000100
vt 0.10302400 0.00000600
vt 0.10302400 0.00000600
vt 0.10302400 0.00000600
vt 0.10302600 0.01179800
vt 0.10707200 0.01179900
vt 0.10707200 0.01179900
vt 0.11770400 0.00000000
vt 0.11770400 0.00000000
vt 0.11770500 0.01179800
vt 0.11770500 0.01179800
vt 0.12282600 0.00000700
vt 0.12282600 0.00000700
vt 0.12282600 0.00000700
vt 0.09904700 0.00000100
vt 0.09905200 0.01179700
vt 0.09905200 0.01179700
vt 0.10302500 0.01179500
vt 0.10302600 -0.00000300
vt 0.10302600 -0.00000300
vt 0.08992700 0.01179600
vt 0.08992700 0.01179600
vt 0.08992700 0.01179600
vt 0.08995600 -0.00000000
vt 0.08995600 -0.00000000
vt 0.08995600 -0.00000000
vt 0.08454500 0.00000000
vt 0.08454500 0.00000000
vt 0.09302800 -0.00000300
vt 0.09302800 -0.00000300
vt 0.08454500 0.01179800
vt 0.09305000 0.01179600
vt 0.09305000 0.01179600
vt 0.09305000 0.01179600
vt 0.09601600 0.01179400
vt 0.09603500 -0.00000300
vt 0.09603500 -0.00000300
vt 0.09603500 -0.00000300
vt 0.09905300 -0.00000300
vt 0.09905400 0.01179500
vt 0.09905400 0.01179500
vt 0.06638000 -0.00000200
vt 0.07033600 0.01179700
vt 0.07033600 0.01179700
vt 0.07033600 0.01179700
vt 0.07031400 0.00000000
vt 0.07031400 0.00000000
vt 0.06638100 0.01179700
vt 0.06638100 0.01179700
vt 0.07410100 -0.00000200
vt 0.07410100 -0.00000200
vt 0.07410100 -0.00000200
vt 0.07791800 0.00605800
vt 0.07791800 0.00605800
vt 0.07791800 0.00605800
vt 0.07791800 0.00605800
vt 0.07791800 0.00605800
vt 0.07791800 0.00605800
vt 0.07791800 0.00605800
vt 0.07411000 0.01179900
vt 0.07411000 0.01179900
vt 0.08454500 0.00000000
vt 0.08222900 0.00000000
vt 0.08222900 0.00000000
vt 0.08222900 0.00000000
vt 0.08454500 0.01179800
vt 0.08454500 0.01179800
vt 0.08454500 0.01179800
vt 0.07821600 0.00000000
vt 0.07821600 0.00000000
vt 0.07821600 0.01179800
vt 0.07821600 0.01179800
vt 0.08222900 0.01179800
vt 0.08222900 0.01179800
vt 0.06140600 -0.00000100
vt 0.06140500 0.01179900
vt 0.06140500 0.01179900
vt 0.06637800 -0.00000000
vt 0.06637800 -0.00000000
vt 0.06637900 0.01179500
vt 0.04161400 0.01179500
vt 0.04161400 0.01179500
vt 0.04613300 0.00000100
vt 0.04613300 0.00000100
vt 0.04161200 -0.00000300
vt 0.04715400 0.01180000
vt 0.04715400 0.01180000
vt 0.04715400 0.01180000
vt 0.05517500 0.00000500
vt 0.05517500 0.00000500
vt 0.05517500 0.00000500
vt 0.06140800 0.01179200
vt 0.06141000 -0.00000200
vt 0.06141000 -0.00000200
vt 0.05622300 0.01179900
vt 0.05622300 0.01179900
vt 0.05622300 0.01179900
vt 0.03764100 0.01178600
vt 0.03764100 0.01178600
vt 0.04161800 -0.00000100
vt 0.03763700 -0.00001200
vt 0.04161100 0.01179500
vt 0.02312600 0.00000400
vt 0.02312600 0.00000400
vt 0.02312700 0.01179900
vt 0.03103000 0.01180100
vt 0.03103000 0.01180100
vt 0.03103000 0.01180100
vt 0.03106700 -0.00000200
vt 0.03106700 -0.00000200
vt 0.03106700 -0.00000200
vt 0.03763700 -0.00000600
vt 0.00496800 0.01179600
vt 0.00496800 0.01179600
vt 0.00874300 0.00000000
vt 0.00874300 0.00000000
vt 0.00874300 0.00000000
vt 0.00496300 -0.00000400
vt 0.00886900 0.01179600
vt 0.00886900 0.01179600
vt 0.00886900 0.01179600
vt 0.01334500 0.01179800
vt 0.01334500 0.01179800
vt 0.01335000 0.00000100
vt 0.01335000 0.00000100
vt 0.01335000 0.00000100
vt 0.01335000 0.00000100
vt 0.01888700 0.01179900
vt 0.01888700 0.01179900
vt 0.01888700 0.01179900
vt 0.01889700 0.00000100
vt 0.01889700 0.00000100
vt 0.01889700 0.00000100
vt 0.02312700 0.01179500
vt 0.02312700 0.01179500
vt 0.12282300 0.01179600
vt 0.03763400 0.01178600
vt 0.03763400 0.01178600
vt 0.02312700 -0.00000300
f 1/1/1 2/2/2 4/4/4
f 5/5/5 1/1/1 7/7/7
f 5/5/5 3/3/3 1/1/1
f 5/5/5 9/9/9 3/3/3
f 10/10/10 43/43/43 11/11/11
f 15/15/15 20/20/20 17/17/17
f 17/17/17 22/22/22 23/23/23
f 16/16/16 23/23/23 19/19/19
f 12/12/12 11/11/11 24/24/24
f 15/15/15 25/25/25 20/20/20
f 18/18/18 20/20/20 22/22/22
f 22/22/22 26/26/26 30/30/30
f 31/31/31 27/27/27 20/20/20
f 6/6/6 35/35/35 8/8/8
f 5/5/5 7/7/7 35/35/35
f 36/36/36 44/44/44 10/10/10
f 38/38/38 40/40/40 7/7/7
f 39/39/39 41/41/41 40/40/40
f 33/33/33 40/40/40 37/37/37
f 40/40/40 34/34/34 7/7/7
f 32/32/32 48/48/48 45/45/45
f 32/32/32 29/29/29 27/27/27
f 48/48/48 49/49/49 47/47/47
f 49/49/49 52/52/52 50/50/50
f 53/53/53 54/54/54 55/55/55
f 57/57/57 53/53/53 55/55/55
f 55/55/55 58/58/58 57/57/57
f 64/64/64 96/96/96 60/60/60
f 70/70/70 73/73/73 66/66/66
f 68/68/68 71/71/71 70/70/70
f 69/69/69 71/71/71 74/74/74
f 72/72/72 76/76/76 66/66/66
f 77/77/77 64/64/64 63/63/63
f 69/69/69 75/75/75 72/72/72
f 81/81/81 79/79/79 74/74/74
f 83/83/83 78/78/78 80/80/80
f 72/72/72 79/79/79 82/82/82
f 84/84/84 53/53/53 57/57/57
f 88/88/88 57/57/57 58/58/58
f 56/56/56 87/87/87 85/85/85
f 59/59/59 97/97/97 90/90/90
f 92/92/92 84/84/84 93/93/93
f 99/99/99 91/91/91 95/95/95
f 98/98/98 94/94/94 89/89/89
f 95/95/95 84/84/84 87/87/87
f 102/102/102 104/104/104 82/82/82
f 103/103/103 106/106/106 105/105/105
f 107/107/107 108/108/108 106/106/106
f 109/109/109 114/114/114 111/111/111
f 120/120/120 128/128/128 124/124/124
f 125/125/125 127/127/127 129/129/129
f 131/131/131 126/126/126 130/130/130
f 132/132/132 134/134/134 135/135/135
f 133/133/133 136/136/136 123/123/123
f 118/118/118 138/138/138 119/119/119
f 115/115/115 140/140/140 142/142/142
f 147/147/147 149/149/149 145/145/145
f 157/157/157 160/160/160 152/152/152
f 151/151/151 161/161/161 155/155/155
f 158/158/158 161/161/161 165/165/165
f 168/168/168 166/166/166 169/169/169
f 171/171/171 178/178/178 175/175/175
f 176/176/176 172/172/172 180/180/180
f 182/182/182 174/174/174 189/189/189
f 188/188/188 196/196/196 194/194/194
f 198/198/198 182/182/182 193/193/193
f 201/201/201 183/183/183 190/190/190
f 202/202/202 187/187/187 200/200/200
f 186/186/186 203/203/203 197/197/197
f 199/199/199 179/179/179 185/185/185
f 206/206/206 209/209/209 207/207/207
f 210/210/210 216/216/216 212/212/212
f 218/218/218 213/213/213 217/217/217
f 220/220/220 226/226/226 223/223/223
f 219/219/219 215/215/215 225/225/225
f 228/228/228 231/231/231 229/229/229
f 237/237/237 239/239/239 233/233/233
f 236/236/236 266/266/266 238/238/238
f 242/242/242 248/248/248 245/245/245
f 251/251/251 255/255/255 250/250/250
f 259/259/259 261/261/261 254/254/254
f 264/264/264 268/268/268 262/262/262
f 141/141/141 137/137/137 117/117/117
f 139/139/139 265/265/265 143/143/143
f 184/184/184 181/181/181 173/173/173
f 10/10/10 11/11/11 14/14/14
f 15/15/15 17/17/17 19/19/19
f 13/13/13 25/25/25 15/15/15
f 20/20/20 27/27/27 21/21/21
f 37/37/37 10/10/10 35/35/35
f 40/40/40 42/42/42 37/37/37
f 32/32/32 45/45/45 28/28/28
f 48/48/48 47/47/47 45/45/45
f 49/49/49 51/51/51 46/46/46
f 64/64/64 60/60/60 62/62/62
f 69/69/69 66/66/66 67/67/67
f 76/76/76 61/61/61 65/65/65
f 74/74/74 79/79/79 72/72/72
f 59/59/59 89/89/89 88/88/88
f 93/93/93 86/86/86 89/89/89
f 101/101/101 82/82/82 81/81/81
f 103/103/103 105/105/105 100/100/100
f 107/107/107 106/106/106 103/103/103
f 110/110/110 112/112/112 113/113/113
f 121/121/121 122/122/122 116/116/116
f 148/148/148 144/144/144 146/146/146
f 156/156/156 150/150/150 153/153/153
f 162/162/162 159/159/159 154/154/154
f 163/163/163 164/164/164 167/167/167
f 167/167/167 164/164/164 170/170/170
f 177/177/177 172/172/172 176/176/176
f 195/195/195 191/191/191 192/192/192
f 205/205/205 208/208/208 204/204/204
f 211/211/211 213/213/213 214/214/214
f 224/224/224 221/221/221 222/222/222
f 227/227/227 229/229/229 230/230/230
f 235/235/235 232/232/232 234/234/234
f 267/267/267 241/241/241 240/240/240
f 243/243/243 246/246/246 247/247/247
f 256/256/256 244/244/244 249/249/249
f 258/258/258 253/253/253 252/252/252
f 263/263/263 260/260/260 257/257/257

