mtllib material.mtl
usemtl Material-7011油漆.001
v -0.03210500 0.07035000 -0.02427600
v -0.03099000 0.06838500 -0.02538700
v -0.03592000 0.06931300 -0.01870300
v -0.02248300 0.07035000 -0.03338500
v -0.02094400 0.06886900 -0.03445500
v -0.02779100 0.06942800 -0.02941800
v -0.02779100 0.06942800 -0.02941800
v -0.01668100 0.07035000 -0.03663100
v -0.01437100 0.06838000 -0.03740100
v -0.00388400 0.07035000 -0.04006200
v -0.00188000 0.06883200 -0.04023200
v -0.00816300 0.06884800 -0.03945600
v -0.01042500 0.07035000 -0.03887700
v 0.00276300 0.07035000 -0.04015500
v 0.00586800 0.06881500 -0.03989700
v 0.00933500 0.07035000 -0.03915300
v 0.01537400 0.06936100 -0.03745700
v 0.04024600 0.07035000 -0.00056200
v 0.04024000 0.06879100 0.00319300
v 0.03989100 0.06928000 -0.00705300
v 0.03979000 0.07035000 0.00607000
v 0.03210500 0.07035000 0.02427600
v 0.03098900 0.06838500 0.02538900
v 0.03592800 0.06930600 0.01868900
v 0.02248300 0.07035000 0.03338500
v 0.02094400 0.06886900 0.03445500
v 0.02776600 0.06942800 0.02944000
v 0.01668100 0.07035000 0.03663100
v 0.01102600 0.06906800 0.03901900
v 0.03839600 0.06927700 0.01284200
v 0.04024000 0.06879100 0.00319300
v 0.03979000 0.07035000 0.00607000
v 0.00342500 0.07044000 0.04009600
v 0.00188000 0.06883200 0.04023200
v -0.00276300 0.07035000 0.04015500
v -0.00586800 0.06881500 0.03989700
v -0.00933500 0.07035000 0.03915300
v -0.01383600 0.06883900 0.03784600
v -0.01515000 0.07044200 0.03728700
v -0.02144800 0.06923000 0.03433400
v -0.03141500 0.07035000 0.02516300
v -0.03107700 0.06838400 0.02522900
v -0.02678800 0.06934400 0.03038400
v -0.03534200 0.06937100 0.01974400
v -0.01122600 0.07806200 0.03823000
v -0.00954300 0.07457700 0.03867800
v -0.00729800 0.07453400 0.03880100
v -0.00520900 0.07346900 0.03905800
v -0.01097600 0.09229900 0.03784400
v -0.01211600 0.09248900 0.03829900
v -0.01215400 0.07850900 0.03830600
v -0.00203200 0.07555800 0.03970300
v 0.00019900 0.07874700 0.04018900
v -0.00058400 0.07925700 0.03992600
v 0.00021300 0.09104700 0.04018700
v -0.00056900 0.09372000 0.04006900
v -0.01025900 0.09384900 0.03803000
v -0.00940400 0.09599200 0.03818300
v -0.00591000 0.09714900 0.03922900
v -0.00292200 0.09553600 0.03959000
v -0.00062600 0.09209100 0.03968100
v -0.00693600 0.09609700 0.03867500
v -0.00693600 0.09609700 0.03867500
v -0.00591000 0.09714900 0.03922900
v -0.01025900 0.09384900 0.03803000
v -0.00082200 0.07845600 0.03928900
v -0.00058400 0.07925700 0.03992600
v -0.00062600 0.09209100 0.03968100
v -0.00113800 0.09316500 0.03921600
v -0.00158800 0.07676400 0.03931500
v -0.00158800 0.07676400 0.03931500
v -0.00058400 0.07925700 0.03992600
v -0.00082200 0.07845600 0.03928900
v -0.00729800 0.07453400 0.03880100
v -0.00422200 0.07504200 0.03876100
v -0.00808400 0.07537500 0.03810000
v -0.00730200 0.09525000 0.03825100
v -0.00693600 0.09609700 0.03867500
v -0.01025900 0.09384900 0.03803000
v -0.00707400 0.09518700 0.03877500
v -0.00321500 0.09537500 0.03895300
v -0.01097600 0.09229900 0.03784400
v -0.01122600 0.07806200 0.03823000
v -0.01048600 0.07745600 0.03771900
v -0.01048600 0.07745600 0.03771900
v -0.00979200 0.07608900 0.03832000
v -0.00808400 0.07537500 0.03810000
v -0.00808500 0.07600400 0.03844500
v -0.00422200 0.07504200 0.03876100
v -0.01122600 0.07806200 0.03823000
v -0.00431700 0.07566000 0.03920100
v -0.00707400 0.09518700 0.03877500
v -0.00707400 0.09518700 0.03877500
v -0.01025900 0.09384900 0.03803000
v -0.01032100 0.07947700 0.03828100
v -0.01032100 0.07947700 0.03828100
v -0.00155700 0.09115700 0.03961800
v -0.00155700 0.09115700 0.03961800
v -0.00113800 0.09316500 0.03921600
v -0.00321500 0.09537500 0.03895300
v -0.01048600 0.07745600 0.03771900
v -0.00808500 0.07600400 0.03844500
v -0.00431700 0.07566000 0.03920100
v -0.00158800 0.07676400 0.03931500
v 0.03478300 0.10146400 -0.02041100
v -0.03317800 0.10146300 -0.02278700
v 0.03846400 0.10146300 -0.01185800
v 0.04030400 0.10146300 -0.00258800
v -0.03769400 0.10146300 -0.01449800
v 0.02058100 0.10145800 -0.03504100
v 0.02058100 0.10145800 -0.03504100
v -0.01741100 0.10146400 -0.03636500
v -0.01741100 0.10146400 -0.03636500
v -0.01741100 0.10146400 -0.03636500
v 0.02901700 0.10146300 -0.02789400
v 0.02901700 0.10146300 -0.02789400
v -0.02457100 0.10146300 -0.03188000
v -0.02457100 0.10146300 -0.03188000
v 0.03476200 0.10146300 0.02029000
v 0.03802100 0.10146300 0.01320900
v -0.03923000 0.10146300 0.00900300
v 0.02998200 0.10146300 0.02685400
v 0.03979000 0.10146300 0.00607000
v -0.04023000 0.10146300 0.00127200
v 0.02384300 0.10146300 0.03242800
v -0.03242800 0.10146300 0.02384300
v 0.01669300 0.10146300 0.03662500
v 0.00127200 0.10146300 0.04023000
v 0.00900300 0.10146300 0.03923000
v -0.02029000 0.10146300 0.03476200
v -0.03979000 0.10146300 -0.00607000
v -0.00831000 0.10146200 -0.03945300
v -0.02923100 0.10146300 -0.02767000
v -0.01320900 0.10146300 0.03802100
v -0.00607000 0.10146300 0.03979000
v -0.02685400 0.10146300 0.02998200
v -0.03662500 0.10146300 0.01669300
v -0.02457100 0.10146300 -0.03188000
v -0.02300600 0.09945000 -0.03302700
v -0.02918500 0.09945000 -0.02771800
v -0.01741100 0.10146400 -0.03636500
v -0.02923100 0.10146300 -0.02767000
v -0.03317800 0.10146300 -0.02278700
v -0.03769400 0.10146300 -0.01449800
v -0.03772500 0.09939000 -0.01393400
v -0.03979000 0.09945000 -0.00607000
v -0.03416900 0.09945000 -0.02127400
v -0.04023000 0.10146300 0.00127200
v -0.04018200 0.09945000 0.00233500
v -0.03923000 0.10146300 0.00900300
v -0.03881900 0.09945000 0.01063900
v -0.03662500 0.10146300 0.01669300
v -0.03242800 0.10146300 0.02384300
v -0.03113500 0.09945000 0.02550800
v -0.02685400 0.10146300 0.02998200
v -0.02515200 0.09945000 0.03142400
v -0.02029000 0.10146300 0.03476200
v -0.03575800 0.09945000 0.01847700
v -0.03979000 0.10146300 -0.00607000
v -0.01730700 0.09920200 0.03631100
v -0.01320900 0.10146300 0.03802100
v -0.00831000 0.10146200 -0.03945300
v -0.01508600 0.09983400 -0.03736300
v -0.00811200 0.09945000 -0.03942400
v -0.01019100 0.09945100 0.03893800
v -0.00607000 0.10146300 0.03979000
v 0.00127200 0.10146300 0.04023000
v -0.00083200 0.09904000 0.04021000
v 0.00900300 0.10146300 0.03923000
v 0.00652300 0.09945000 0.03971800
v 0.01463800 0.09945000 0.03749400
v 0.01669300 0.10146300 0.03662500
v 0.02211400 0.09945000 0.03363100
v 0.02998200 0.10146300 0.02685400
v 0.02862300 0.09945000 0.02829800
v 0.03388100 0.09945000 0.02172900
v 0.03476200 0.10146300 0.02029000
v 0.03765800 0.09945000 0.01421000
v 0.03979000 0.10146300 0.00607000
v 0.03979000 0.09945000 0.00607000
v 0.04030400 0.10146300 -0.00258800
v 0.03802100 0.10146300 0.01320900
v 0.02384300 0.10146300 0.03242800
v 0.03846400 0.10146300 -0.01185800
v 0.03895700 0.09945000 -0.01011800
v 0.03612200 0.09945000 -0.01775600
v 0.02901700 0.10146300 -0.02789400
v 0.03478300 0.10146400 -0.02041100
v 0.03180700 0.09945000 -0.02466600
v 0.04017100 0.09939800 -0.00196300
v 0.02618900 0.09945000 -0.03056500
v 0.02058100 0.10145800 -0.03504100
v -0.03864800 0.06835200 -0.00944500
v -0.03995200 0.06942700 -0.00644600
v -0.03843700 0.06929600 -0.01271000
v -0.03592000 0.06931300 -0.01870300
v -0.03621300 0.06834800 -0.01658000
v -0.02325200 0.06835300 -0.03230400
v -0.02779100 0.06942800 -0.02941800
v -0.02094400 0.06886900 -0.03445500
v -0.00816300 0.06884800 -0.03945600
v -0.00188000 0.06883200 -0.04023200
v -0.00425000 0.06834900 -0.03961200
v -0.03964900 0.06835100 -0.00356000
v 0.00403900 0.06834900 -0.03960400
v 0.01201400 0.06835200 -0.03797000
v 0.00586800 0.06881500 -0.03989700
v 0.01537400 0.06936100 -0.03745700
v 0.02148900 0.06929300 -0.03433600
v 0.01824700 0.06835000 -0.03531400
v 0.02701200 0.06938000 -0.03015400
v 0.03163300 0.06936900 -0.02527600
v 0.02828000 0.06835000 -0.02793400
v 0.02358400 0.06834900 -0.03206600
v 0.03229100 0.06835000 -0.02326700
v 0.03537400 0.06936500 -0.01968700
v 0.03809100 0.06934800 -0.01376000
v 0.03545700 0.06835000 -0.01796800
v 0.03959600 0.06834800 -0.00438700
v 0.03989100 0.06928000 -0.00705300
v 0.04024000 0.06879100 0.00319300
v 0.03784900 0.06835200 -0.01230900
v 0.03964900 0.06835100 0.00356000
v 0.03864800 0.06835200 0.00944500
v 0.04024000 0.06879100 0.00319300
v 0.03839600 0.06927700 0.01284200
v 0.03592800 0.06930600 0.01868900
v 0.03621300 0.06834800 0.01658000
v 0.02325200 0.06835300 0.03230400
v 0.02776600 0.06942800 0.02944000
v 0.02094400 0.06886900 0.03445500
v 0.01102600 0.06906800 0.03901900
v 0.01796800 0.06835000 0.03545700
v 0.00188000 0.06883200 0.04023200
v 0.00425000 0.06834900 0.03961200
v 0.03964900 0.06835100 0.00356000
v -0.00403900 0.06834900 0.03960400
v -0.01201400 0.06835200 0.03797000
v -0.00586800 0.06881500 0.03989700
v -0.01383600 0.06883900 0.03784600
v -0.02144800 0.06923000 0.03433400
v -0.01824700 0.06835000 0.03531400
v -0.02358400 0.06834900 0.03206600
v -0.02678800 0.06934400 0.03038400
v -0.03534200 0.06937100 0.01974400
v -0.03808700 0.06934800 0.01377000
v -0.03545700 0.06835000 0.01796800
v -0.03959600 0.06834800 0.00438700
v -0.03989000 0.06927300 0.00705400
v -0.04048600 0.06931600 0.00025000
v -0.03784900 0.06835200 0.01230900
v -0.03964900 0.06835100 -0.00356000
v -0.03995200 0.06942700 -0.00644600
v 0.02451700 0.09620600 -0.03064600
v 0.02419800 0.09457500 -0.03026600
v 0.01716000 0.09664900 -0.03556500
v 0.04017100 0.09939800 -0.00196300
v 0.03824100 0.09294100 -0.00076800
v 0.03753400 0.09298100 -0.00739400
v 0.01763100 0.09295000 -0.03394400
v 0.01178700 0.09295000 -0.03638900
v 0.02323400 0.09295000 -0.03038500
v 0.03248900 0.09295000 -0.02018700
v 0.02828500 0.09295000 -0.02574900
v 0.03848800 0.09620000 -0.00769400
v 0.03561400 0.09295000 -0.01395300
v 0.02058100 0.10145800 -0.03504100
v 0.02618900 0.09945000 -0.03056500
v 0.03180700 0.09945000 -0.02466600
v 0.03612200 0.09945000 -0.01775600
v 0.03895700 0.09945000 -0.01011800
v 0.03804000 0.09286800 0.00476900
v 0.03979000 0.09945000 0.00607000
v -0.00591000 0.09714900 0.03922900
v -0.00199000 0.09584900 0.03911200
v -0.00083200 0.09904000 0.04021000
v 0.00059200 0.09288100 0.03827600
v -0.00940400 0.09599200 0.03818300
v -0.01730700 0.09920200 0.03631100
v -0.01199400 0.09280400 0.03630200
v -0.01019100 0.09945100 0.03893800
v 0.03804000 0.09286800 0.00476900
v 0.03979000 0.09945000 0.00607000
v 0.03765800 0.09945000 0.01421000
v 0.02884300 0.09295000 0.02512300
v 0.02862300 0.09945000 0.02829800
v 0.02069300 0.09295000 0.03216900
v 0.00790300 0.09532500 0.03829300
v 0.01090200 0.09295000 0.03666400
v 0.03470400 0.09295000 0.01608400
v 0.03388100 0.09945000 0.02172900
v 0.01463800 0.09945000 0.03749400
v 0.00652300 0.09945000 0.03971800
v 0.02211400 0.09945000 0.03363100
v -0.01950400 0.09528800 0.03387500
v -0.02934300 0.09295000 0.02453600
v -0.02133800 0.09295000 0.03174500
v -0.03113500 0.09945000 0.02550800
v -0.03575800 0.09945000 0.01847700
v -0.03502100 0.09295000 0.01538000
v -0.03881900 0.09945000 0.01063900
v -0.02515200 0.09945000 0.03142400
v -0.03792100 0.09295000 0.00500500
v -0.04018200 0.09945000 0.00233500
v -0.03770700 0.09279600 -0.00681400
v 0.03797300 0.07676100 0.00482400
v 0.03979000 0.07035000 0.00607000
v 0.03824900 0.07684500 -0.00052500
v 0.03759300 0.07685700 -0.00704400
v 0.03989100 0.06928000 -0.00705300
v 0.03809100 0.06934800 -0.01376000
v 0.04024600 0.07035000 -0.00056200
v 0.03263400 0.07685000 -0.01995100
v 0.03537400 0.06936500 -0.01968700
v 0.03163300 0.06936900 -0.02527600
v 0.02322400 0.07685000 -0.03039200
v 0.02148900 0.06929300 -0.03433600
v 0.01743500 0.07685000 -0.03404600
v 0.01537400 0.06936100 -0.03745700
v 0.01135200 0.07685000 -0.03652700
v 0.02839100 0.07685000 -0.02563200
v 0.02701200 0.06938000 -0.03015400
v 0.03573600 0.07685000 -0.01363700
v 0.00933500 0.07035000 -0.03915300
v 0.00576800 0.07685000 -0.03781300
v 0.00276300 0.07035000 -0.04015500
v 0.00005600 0.07685000 -0.03825000
v -0.00649000 0.07685000 -0.03769500
v -0.00388400 0.07035000 -0.04006200
v -0.01042500 0.07035000 -0.03887700
v -0.01310600 0.07685000 -0.03593500
v -0.01668100 0.07035000 -0.03663100
v -0.01945700 0.07685000 -0.03293100
v -0.02520100 0.07685000 -0.02877400
v -0.02779100 0.06942800 -0.02941800
v -0.03004500 0.07685000 -0.02367200
v -0.03379200 0.07685000 -0.01792100
v -0.03592000 0.06931300 -0.01870300
v -0.03635300 0.07680900 -0.01194000
v -0.03843700 0.06929600 -0.01271000
v -0.03995200 0.06942700 -0.00644600
v -0.03210500 0.07035000 -0.02427600
v -0.02248300 0.07035000 -0.03338500
v 0.00623200 0.07685300 0.03774400
v -0.00049300 0.07620800 0.03848000
v 0.00342500 0.07044000 0.04009600
v -0.03750800 0.07685000 0.00749500
v -0.03989000 0.06927300 0.00705400
v -0.03808700 0.06934800 0.01377000
v -0.03553700 0.07685000 0.01414900
v -0.03534200 0.06937100 0.01974400
v -0.02287300 0.07685000 0.03065800
v -0.02803100 0.07685000 0.02602500
v -0.02009900 0.07372100 0.03368200
v -0.01718500 0.07686500 0.03418200
v -0.03233400 0.07685000 0.02043500
v -0.03141500 0.07035000 0.02516300
v -0.03806800 0.07691400 -0.00422000
v -0.03995200 0.06942700 -0.00644600
v -0.04048600 0.06931600 0.00025000
v -0.03823100 0.07688800 0.00121500
v -0.02144800 0.06923000 0.03433400
v -0.01515000 0.07044200 0.03728700
v -0.01080600 0.07607600 0.03696500
v -0.02678800 0.06934400 0.03038400
v -0.00933500 0.07035000 0.03915300
v -0.00520900 0.07346900 0.03905800
v 0.01269100 0.07685000 0.03608300
v 0.00978100 0.07378000 0.03796800
v 0.01899700 0.07685000 0.03319900
v 0.02248300 0.07035000 0.03338500
v 0.02477000 0.07685000 0.02914600
v 0.02776600 0.06942800 0.02944000
v 0.02970200 0.07685000 0.02410100
v 0.03615600 0.07686400 0.01248900
v 0.03762100 0.07576600 0.00873500
v 0.03797300 0.07676100 0.00482400
v 0.03979000 0.07035000 0.00607000
v 0.03210500 0.07035000 0.02427600
v 0.03356700 0.07685000 0.01833800
v -0.00276300 0.07035000 0.04015500
v 0.01102600 0.06906800 0.03901900
v 0.03592800 0.06930600 0.01868900
v 0.03839600 0.06927700 0.01284200
v 0.01668100 0.07035000 0.03663100
v -0.03420500 0.09620000 -0.01925000
v -0.03377000 0.09457500 -0.01900400
v -0.03772500 0.09939000 -0.01393400
v -0.03770700 0.09279600 -0.00681400
v -0.03620200 0.09292400 -0.01234800
v -0.03979000 0.09945000 -0.00607000
v -0.02983400 0.09295000 -0.02393700
v -0.03363100 0.09295000 -0.01822200
v -0.02499200 0.09295000 -0.02895600
v -0.01932100 0.09295000 -0.03301100
v -0.01362100 0.09457500 -0.03627700
v -0.01311700 0.09295000 -0.03593000
v -0.01379700 0.09620000 -0.03674500
v -0.02918500 0.09945000 -0.02771800
v -0.03416900 0.09945000 -0.02127400
v -0.02300600 0.09945000 -0.03302700
v -0.01508600 0.09983400 -0.03736300
v -0.00811200 0.09945000 -0.03942400
v -0.00061000 0.09272900 -0.03827400
v -0.00675000 0.09294600 -0.03765200
v -0.00061000 0.09272900 -0.03827400
v -0.00061000 0.09272900 -0.03827400
v -0.00811200 0.09945000 -0.03942400
v -0.00811200 0.09945000 -0.03942400
v -0.00811200 0.09945000 -0.03942400
v 0.01716000 0.09664900 -0.03556500
v 0.01716000 0.09664900 -0.03556500
v 0.01716000 0.09664900 -0.03556500
v 0.00842700 0.09448800 -0.03689500
v -0.00831000 0.10146200 -0.03945300
v 0.02058100 0.10145800 -0.03504100
v 0.02058100 0.10145800 -0.03504100
v 0.01178700 0.09295000 -0.03638900
v -0.03344900 0.08084500 -0.01855300
v -0.03635300 0.07680900 -0.01194000
v -0.03620200 0.09292400 -0.01234800
v -0.03340800 0.08481300 -0.01862700
v -0.03729100 0.07767400 -0.00856700
v -0.03336500 0.08889600 -0.01870300
v -0.03770700 0.09279600 -0.00681400
v -0.03806800 0.07691400 -0.00422000
v -0.03004500 0.07685000 -0.02367200
v -0.02520100 0.07685000 -0.02877400
v -0.03379200 0.07685000 -0.01792100
v -0.01310600 0.07685000 -0.03593500
v -0.01945700 0.07685000 -0.03293100
v -0.01287000 0.08493900 -0.03602000
v 0.00005600 0.07685000 -0.03825000
v -0.00649000 0.07685000 -0.03769500
v -0.00017900 0.08512400 -0.03824900
v -0.02499200 0.09295000 -0.02895600
v -0.00675000 0.09294600 -0.03765200
v -0.03363100 0.09295000 -0.01822200
v -0.02983400 0.09295000 -0.02393700
v -0.01311700 0.09295000 -0.03593000
v -0.00061000 0.09272900 -0.03827400
v -0.01932100 0.09295000 -0.03301100
v 0.00573100 0.08490000 -0.03756500
v 0.00576800 0.07685000 -0.03781300
v 0.00005600 0.07685000 -0.03825000
v -0.00017900 0.08512400 -0.03824900
v -0.00061000 0.09272900 -0.03827400
v 0.00842700 0.09448800 -0.03689500
v 0.00842700 0.09448800 -0.03689500
v 0.01135200 0.07685000 -0.03652700
v 0.00576800 0.07685000 -0.03781300
v 0.00573100 0.08490000 -0.03756500
v 0.01157500 0.08512400 -0.03645600
v 0.01178700 0.09295000 -0.03638900
v 0.03824900 0.07684500 -0.00052500
v 0.03804000 0.09286800 0.00476900
v 0.03797300 0.07676100 0.00482400
v 0.03759300 0.07685700 -0.00704400
v 0.03757000 0.08481000 -0.00717700
v 0.03824100 0.09294100 -0.00076800
v 0.03755400 0.08889400 -0.00726200
v 0.01743500 0.07685000 -0.03404600
v 0.02328900 0.08493700 -0.03034200
v 0.02322400 0.07685000 -0.03039200
v 0.02839100 0.07685000 -0.02563200
v 0.03263400 0.07685000 -0.01995100
v 0.03573600 0.07685000 -0.01363700
v 0.01157500 0.08512400 -0.03645600
v 0.03248900 0.09295000 -0.02018700
v 0.01135200 0.07685000 -0.03652700
v 0.03753400 0.09298100 -0.00739400
v 0.02828500 0.09295000 -0.02574900
v 0.01763100 0.09295000 -0.03394400
v 0.02323400 0.09295000 -0.03038500
v 0.03561400 0.09295000 -0.01395300
v 0.01178700 0.09295000 -0.03638900
v -0.00940400 0.09599200 0.03818300
v -0.01199400 0.09280400 0.03630200
v -0.01211600 0.09248900 0.03829900
v -0.01215400 0.07850900 0.03830600
v -0.01199400 0.09280400 0.03630200
v -0.01204000 0.07906100 0.03630900
v -0.01211600 0.09248900 0.03829900
v -0.00954300 0.07457700 0.03867800
v -0.01080600 0.07607600 0.03696500
v -0.00520900 0.07346900 0.03905800
v -0.01204000 0.07906100 0.03630900
v -0.01215400 0.07850900 0.03830600
v 0.00019900 0.07874700 0.04018900
v -0.00049300 0.07620800 0.03848000
v 0.00068800 0.07933400 0.03831300
v -0.00203200 0.07555800 0.03970300
v -0.00520900 0.07346900 0.03905800
v 0.00021300 0.09104700 0.04018700
v 0.00019900 0.07874700 0.04018900
v 0.00059200 0.09288100 0.03827600
v 0.00068800 0.07933400 0.03831300
v -0.00056900 0.09372000 0.04006900
v -0.00199000 0.09584900 0.03911200
v -0.00292200 0.09553600 0.03959000
v -0.00591000 0.09714900 0.03922900
v 0.00059200 0.09288100 0.03827600
v 0.00021300 0.09104700 0.04018700
v -0.03770700 0.09279600 -0.00681400
v -0.03806800 0.07691400 -0.00422000
v -0.03813700 0.09126600 -0.00316400
v -0.01204000 0.07906100 0.03630900
v -0.01718500 0.07686500 0.03418200
v -0.01080600 0.07607600 0.03696500
v -0.02803100 0.07685000 0.02602500
v -0.02287300 0.07685000 0.03065800
v -0.02133800 0.09295000 0.03174500
v -0.02934300 0.09295000 0.02453600
v -0.03233400 0.07685000 0.02043500
v -0.03823100 0.07688800 0.00121500
v -0.03750800 0.07685000 0.00749500
v -0.03825100 0.08856200 0.00074600
v -0.03553700 0.07685000 0.01414900
v -0.03502100 0.09295000 0.01538000
v -0.01665700 0.08901400 0.03451700
v -0.01199400 0.09280400 0.03630200
v -0.03792100 0.09295000 0.00500500
v 0.03620900 0.08858700 0.01235800
v 0.03615600 0.07686400 0.01248900
v 0.03728500 0.07849800 0.00859700
v 0.03733400 0.09124800 0.00841300
v 0.00059200 0.09288100 0.03827600
v 0.00068800 0.07933400 0.03831300
v 0.00650100 0.08871500 0.03770000
v 0.02970200 0.07685000 0.02410100
v 0.03356700 0.07685000 0.01833800
v 0.02884300 0.09295000 0.02512300
v 0.02477000 0.07685000 0.02914600
v 0.03797300 0.07676100 0.00482400
v 0.01269100 0.07685000 0.03608300
v 0.00623200 0.07685300 0.03774400
v -0.00049300 0.07620800 0.03848000
v 0.01899700 0.07685000 0.03319900
v 0.01090200 0.09295000 0.03666400
v 0.02069300 0.09295000 0.03216900
v 0.03470400 0.09295000 0.01608400
v 0.03804000 0.09286800 0.00476900
v -0.00058400 0.07925700 0.03992600
v -0.00056900 0.09372000 0.04006900
v -0.00062600 0.09209100 0.03968100
v -0.00158800 0.07676400 0.03931500
v -0.00155700 0.09115700 0.03961800
v -0.00431700 0.07566000 0.03920100
v -0.01025900 0.09384900 0.03803000
v -0.01032100 0.07947700 0.03828100
v -0.00729800 0.07453400 0.03880100
v -0.03099000 0.06838500 -0.02538700
v -0.01437100 0.06838000 -0.03740100
v 0.03098900 0.06838500 0.02538900
v 0.01230200 0.06835000 0.03785200
v -0.03107700 0.06838400 0.02522900
v -0.03979000 0.09945000 -0.00607000
v -0.03806800 0.07691400 -0.00422000
vn -0.79760000 -0.00000000 -0.60310000
vn -0.77370000 0.00000000 -0.63360000
vn -0.88700000 -0.00000000 -0.46180000
vn -0.55860000 -0.00000000 -0.82940000
vn -0.51940000 -0.00000000 -0.85450000
vn -0.68670000 0.00000000 -0.72690000
vn -0.68670000 -0.00000000 -0.72700000
vn -0.41440000 0.00000000 -0.91010000
vn -0.35870000 0.00000000 -0.93350000
vn -0.09650000 -0.00000000 -0.99530000
vn -0.04670000 -0.00000000 -0.99890000
vn -0.20260000 -0.00000000 -0.97930000
vn -0.25900000 0.00000000 -0.96590000
vn 0.06870000 0.00000000 -0.99760000
vn 0.14550000 -0.00000000 -0.98940000
vn 0.23190000 0.00000000 -0.97270000
vn 0.37960000 0.00000000 -0.92520000
vn 0.99990000 0.00000000 -0.01400000
vn 0.99690000 -0.00000000 0.07880000
vn 0.98470000 -0.00000000 -0.17410000
vn 0.98860000 0.00000000 0.15080000
vn 0.79760000 -0.00000000 0.60310000
vn 0.77360000 -0.00000000 0.63360000
vn 0.88720000 0.00000000 0.46150000
vn 0.55860000 0.00000000 0.82950000
vn 0.51940000 0.00000000 0.85450000
vn 0.68610000 -0.00000000 0.72750000
vn 0.41440000 0.00000000 0.91010000
vn 0.27210000 0.00000000 0.96230000
vn 0.94840000 0.00000000 0.31720000
vn 0.99670000 -0.00000000 0.08110000
vn 0.98860000 0.00000000 0.15080000
vn 0.08520000 0.00000000 0.99640000
vn 0.04670000 -0.00000000 0.99890000
vn -0.06870000 -0.00000000 0.99760000
vn -0.14550000 -0.00000000 0.98940000
vn -0.23190000 0.00000000 0.97270000
vn -0.34330000 0.00000000 0.93920000
vn -0.37650000 -0.00000000 0.92640000
vn -0.52980000 0.00000000 0.84810000
vn -0.78050000 -0.00000000 0.62520000
vn -0.77640000 -0.00000000 0.63030000
vn -0.66130000 0.00000000 0.75020000
vn -0.87300000 0.00000000 0.48770000
vn -0.15080000 -0.00000000 0.98860000
vn -0.15080000 -0.00000000 0.98860000
vn -0.15080000 -0.00000000 0.98860000
vn -0.15080000 -0.00000000 0.98860000
vn -0.15080000 -0.00000000 0.98860000
vn -0.15080000 -0.00000000 0.98860000
vn -0.15080000 -0.00000000 0.98860000
vn -0.15080000 -0.00000000 0.98860000
vn -0.15080000 -0.00000000 0.98860000
vn -0.15080000 -0.00000000 0.98860000
vn -0.15080000 -0.00000000 0.98860000
vn -0.15080000 -0.00000000 0.98860000
vn -0.15080000 -0.00000000 0.98860000
vn -0.15080000 -0.00000000 0.98860000
vn -0.15080000 -0.00000000 0.98860000
vn -0.15080000 -0.00000000 0.98860000
vn -0.15080000 -0.00000000 0.98860000
vn -0.15080000 -0.00000000 0.98860000
vn 0.18800000 -0.98180000 0.02870000
vn -0.01170000 -0.99990000 -0.00170000
vn 0.72770000 -0.67690000 0.11100000
vn -0.50820000 -0.00000000 0.86120000
vn -0.96660000 0.00000000 -0.25640000
vn -0.98830000 0.00000000 0.15230000
vn 0.13050000 -0.00000000 0.99150000
vn -0.64810000 0.28570000 0.70600000
vn -0.64810000 0.28570000 0.70590000
vn -0.93930000 0.16830000 -0.29910000
vn -0.74720000 0.19780000 0.63440000
vn 0.16560000 0.95600000 0.24220000
vn -0.25930000 0.34650000 0.90150000
vn -0.04890000 -0.60510000 0.79460000
vn -0.24820000 0.31960000 0.91440000
vn 0.10000000 -0.93060000 0.35210000
vn 0.31770000 -0.34670000 0.88250000
vn -0.28240000 0.92400000 0.25780000
vn -0.28520000 0.35050000 0.89210000
vn 0.37190000 -0.00000000 0.92830000
vn 0.94080000 -0.00000000 0.33900000
vn -0.56370000 0.00000000 0.82600000
vn 0.13250000 0.13720000 0.98160000
vn 0.66390000 0.71110000 0.23130000
vn -0.01540000 0.28310000 0.95900000
vn -0.50130000 -0.77530000 0.38420000
vn 0.10100000 -0.87430000 0.47470000
vn 0.92760000 0.36430000 0.08240000
vn 0.25680000 -0.95760000 -0.13020000
vn -0.15070000 -0.00010000 0.98860000
vn -0.15080000 -0.00000000 0.98860000
vn -0.15080000 -0.00000000 0.98860000
vn -0.15080000 -0.00000000 0.98860000
vn -0.15070000 -0.00010000 0.98860000
vn -0.15070000 -0.00010000 0.98860000
vn -0.15080000 -0.00000000 0.98860000
vn -0.15080000 -0.00000000 0.98860000
vn -0.15080000 -0.00000000 0.98860000
vn -0.15080000 -0.00000000 0.98860000
vn -0.15080000 -0.00000000 0.98860000
vn -0.15080000 -0.00000000 0.98860000
vn -0.15080000 -0.00000000 0.98860000
vn -0.00000000 1.00000000 0.00000000
vn -0.00000000 1.00000000 0.00000000
vn -0.00000000 1.00000000 0.00000000
vn -0.00000000 1.00000000 0.00000000
vn -0.00000000 1.00000000 0.00000000
vn -0.00000000 1.00000000 0.00000000
vn -0.00010000 1.00000000 0.00010000
vn -0.00010000 1.00000000 0.00010000
vn -0.00000000 1.00000000 0.00000000
vn -0.00000000 1.00000000 0.00020000
vn -0.00000000 1.00000000 0.00000000
vn -0.00000000 1.00000000 0.00020000
vn -0.00000000 1.00000000 0.00020000
vn -0.00000000 1.00000000 0.00000000
vn -0.00000000 1.00000000 0.00000000
vn -0.00000000 1.00000000 0.00000000
vn -0.00000000 1.00000000 0.00000000
vn -0.00000000 1.00000000 0.00000000
vn -0.00000000 1.00000000 0.00000000
vn -0.00000000 1.00000000 0.00000000
vn -0.00000000 1.00000000 0.00000000
vn -0.00000000 1.00000000 0.00000000
vn -0.00000000 1.00000000 0.00000000
vn -0.00000000 1.00000000 0.00000000
vn -0.00000000 1.00000000 0.00000000
vn -0.00000000 1.00000000 0.00000000
vn -0.00000000 1.00000000 0.00000000
vn -0.00010000 1.00000000 0.00010000
vn -0.00000000 1.00000000 0.00000000
vn -0.00000000 1.00000000 0.00000000
vn -0.00000000 1.00000000 0.00000000
vn -0.00000000 1.00000000 0.00000000
vn -0.00000000 1.00000000 0.00000000
vn -0.61050000 0.00000000 -0.79200000
vn -0.57160000 0.00000000 -0.82060000
vn -0.72510000 -0.00000000 -0.68870000
vn -0.43180000 0.00000000 -0.90200000
vn -0.72620000 0.00000000 -0.68750000
vn -0.82430000 -0.00000000 -0.56610000
vn -0.93330000 0.00000000 -0.35900000
vn -0.93810000 -0.00000000 -0.34650000
vn -0.98860000 0.00000000 -0.15080000
vn -0.84890000 0.00000000 -0.52850000
vn -0.99950000 -0.00000000 0.03160000
vn -0.99830000 -0.00000000 0.05800000
vn -0.97470000 0.00000000 0.22370000
vn -0.96440000 0.00000000 0.26430000
vn -0.91000000 -0.00000000 0.41470000
vn -0.80570000 -0.00000000 0.59240000
vn -0.77350000 -0.00000000 0.63370000
vn -0.66720000 0.00000000 0.74490000
vn -0.62490000 -0.00000000 0.78070000
vn -0.50410000 -0.00000000 0.86360000
vn -0.88840000 -0.00000000 0.45900000
vn -0.98860000 0.00000000 -0.15080000
vn -0.43040000 0.00000000 0.90260000
vn -0.32820000 -0.00000000 0.94460000
vn -0.20620000 -0.00000000 -0.97850000
vn -0.37420000 0.00000000 -0.92740000
vn -0.20150000 0.00000000 -0.97950000
vn -0.25320000 0.00000000 0.96740000
vn -0.15080000 -0.00000000 0.98860000
vn 0.03160000 -0.00000000 0.99950000
vn -0.02090000 0.00000000 0.99980000
vn 0.22370000 -0.00000000 0.97470000
vn 0.16210000 -0.00000000 0.98680000
vn 0.36370000 -0.00000000 0.93150000
vn 0.41470000 0.00000000 0.90990000
vn 0.54940000 -0.00000000 0.83560000
vn 0.74490000 -0.00000000 0.66720000
vn 0.71110000 -0.00000000 0.70310000
vn 0.84180000 0.00000000 0.53990000
vn 0.86360000 0.00000000 0.50410000
vn 0.93560000 0.00000000 0.35310000
vn 0.98860000 0.00000000 0.15080000
vn 0.98860000 0.00000000 0.15080000
vn 0.99790000 -0.00000000 -0.06410000
vn 0.94460000 -0.00000000 0.32820000
vn 0.59240000 -0.00000000 0.80560000
vn 0.95560000 -0.00000000 -0.29460000
vn 0.96790000 0.00000000 -0.25140000
vn 0.89740000 0.00000000 -0.44110000
vn 0.72090000 0.00000000 -0.69300000
vn 0.86250000 0.00000000 -0.50610000
vn 0.79020000 0.00000000 -0.61280000
vn 0.99880000 -0.00000000 -0.04880000
vn 0.65060000 0.00000000 -0.75940000
vn 0.50640000 -0.00000000 -0.86230000
vn -0.68710000 -0.70690000 -0.16790000
vn -0.69830000 -0.70690000 -0.11260000
vn -0.67150000 -0.70690000 -0.22210000
vn -0.62730000 -0.70710000 -0.32640000
vn -0.64330000 -0.70660000 -0.29470000
vn -0.41340000 -0.70670000 -0.57420000
vn -0.48560000 -0.70720000 -0.51380000
vn -0.36750000 -0.70650000 -0.60480000
vn -0.14330000 -0.70680000 -0.69280000
vn -0.03300000 -0.70680000 -0.70670000
vn -0.07560000 -0.70650000 -0.70370000
vn -0.70560000 -0.70580000 -0.06350000
vn 0.07180000 -0.70660000 -0.70400000
vn 0.21340000 -0.70650000 -0.67480000
vn 0.10290000 -0.70630000 -0.70040000
vn 0.26830000 -0.70720000 -0.65410000
vn 0.37530000 -0.70680000 -0.59970000
vn 0.32460000 -0.70710000 -0.62820000
vn 0.47190000 -0.70730000 -0.52630000
vn 0.55250000 -0.70710000 -0.44130000
vn 0.50310000 -0.70710000 -0.49690000
vn 0.41930000 -0.70660000 -0.57000000
vn 0.57410000 -0.70680000 -0.41350000
vn 0.61820000 -0.70680000 -0.34390000
vn 0.66530000 -0.70680000 -0.24030000
vn 0.63070000 -0.70710000 -0.31960000
vn 0.70360000 -0.70630000 -0.07790000
vn 0.69680000 -0.70670000 -0.12300000
vn 0.70590000 -0.70610000 0.05600000
vn 0.67280000 -0.70680000 -0.21870000
vn 0.70450000 -0.70690000 0.06320000
vn 0.68710000 -0.70680000 0.16790000
vn 0.70790000 -0.70400000 0.05680000
vn 0.67110000 -0.70660000 0.22440000
vn 0.62750000 -0.70700000 0.32620000
vn 0.64330000 -0.70660000 0.29470000
vn 0.41340000 -0.70670000 0.57420000
vn 0.48520000 -0.70720000 0.51420000
vn 0.36750000 -0.70650000 0.60480000
vn 0.19280000 -0.70540000 0.68210000
vn 0.31960000 -0.70710000 0.63080000
vn 0.03300000 -0.70670000 0.70670000
vn 0.07560000 -0.70650000 0.70370000
vn 0.70560000 -0.70580000 0.06350000
vn -0.07180000 -0.70660000 0.70400000
vn -0.21340000 -0.70650000 0.67480000
vn -0.10290000 -0.70630000 0.70040000
vn -0.24300000 -0.70660000 0.66460000
vn -0.37480000 -0.70670000 0.60000000
vn -0.32460000 -0.70710000 0.62820000
vn -0.41920000 -0.70660000 0.57000000
vn -0.46800000 -0.70690000 0.53030000
vn -0.61780000 -0.70650000 0.34510000
vn -0.66530000 -0.70680000 0.24050000
vn -0.63070000 -0.70710000 0.31960000
vn -0.70360000 -0.70630000 0.07790000
vn -0.69680000 -0.70670000 0.12300000
vn -0.70690000 -0.70730000 0.00400000
vn -0.67280000 -0.70680000 0.21870000
vn -0.70450000 -0.70690000 -0.06320000
vn -0.69730000 -0.70780000 -0.11310000
vn 0.59690000 -0.29410000 -0.74640000
vn 0.59690000 -0.29410000 -0.74650000
vn 0.41500000 -0.29340000 -0.86120000
vn 0.95460000 -0.29420000 -0.04700000
vn 0.95560000 -0.29410000 -0.01930000
vn 0.93780000 -0.29420000 -0.18420000
vn 0.44060000 -0.29410000 -0.84820000
vn 0.29450000 -0.29410000 -0.90930000
vn 0.58060000 -0.29410000 -0.75920000
vn 0.81180000 -0.29410000 -0.50440000
vn 0.70680000 -0.29410000 -0.64340000
vn 0.93720000 -0.29410000 -0.18740000
vn 0.88990000 -0.29410000 -0.34870000
vn 0.48370000 -0.29450000 -0.82420000
vn 0.62190000 -0.29410000 -0.72580000
vn 0.75530000 -0.29410000 -0.58570000
vn 0.85770000 -0.29410000 -0.42160000
vn 0.92510000 -0.29410000 -0.24030000
vn 0.94870000 -0.29350000 0.11790000
vn 0.94480000 -0.29410000 0.14420000
vn -0.14240000 -0.29360000 0.94530000
vn -0.04870000 -0.29400000 0.95460000
vn -0.02040000 -0.29350000 0.95580000
vn 0.01470000 -0.29420000 0.95560000
vn -0.22840000 -0.29390000 0.92820000
vn -0.41210000 -0.29360000 0.86250000
vn -0.29990000 -0.29420000 0.90750000
vn -0.24200000 -0.29410000 0.92460000
vn 0.94860000 -0.29310000 0.11960000
vn 0.94480000 -0.29410000 0.14410000
vn 0.89420000 -0.29410000 0.33740000
vn 0.72070000 -0.29410000 0.62780000
vn 0.67970000 -0.29410000 0.67200000
vn 0.51710000 -0.29410000 0.80380000
vn 0.19350000 -0.29320000 0.93630000
vn 0.27240000 -0.29410000 0.91610000
vn 0.86720000 -0.29410000 0.40190000
vn 0.80450000 -0.29410000 0.51600000
vn 0.34760000 -0.29410000 0.89030000
vn 0.15490000 -0.29410000 0.94320000
vn 0.52510000 -0.29410000 0.79860000
vn -0.47720000 -0.29320000 0.82840000
vn -0.73320000 -0.29410000 0.61310000
vn -0.53320000 -0.29410000 0.79320000
vn -0.73940000 -0.29410000 0.60570000
vn -0.84910000 -0.29410000 0.43880000
vn -0.87510000 -0.29410000 0.38430000
vn -0.92180000 -0.29410000 0.25260000
vn -0.59730000 -0.29410000 0.74620000
vn -0.94760000 -0.29410000 0.12510000
vn -0.95420000 -0.29410000 0.05550000
vn -0.94100000 -0.29310000 -0.16920000
vn 0.94800000 0.29460000 0.12050000
vn 0.94480000 0.29410000 0.14410000
vn 0.95570000 0.29400000 -0.01310000
vn 0.93940000 0.29410000 -0.17600000
vn 0.94110000 0.29410000 -0.16670000
vn 0.89880000 0.29410000 -0.32510000
vn 0.95570000 0.29410000 -0.01330000
vn 0.81550000 0.29410000 -0.49850000
vn 0.83510000 0.29410000 -0.46490000
vn 0.74660000 0.29410000 -0.59670000
vn 0.58030000 0.29410000 -0.75940000
vn 0.50700000 0.29410000 -0.81020000
vn 0.43570000 0.29410000 -0.85070000
vn 0.36280000 0.29410000 -0.88420000
vn 0.28370000 0.29410000 -0.91270000
vn 0.70940000 0.29410000 -0.64050000
vn 0.63770000 0.29410000 -0.71190000
vn 0.89300000 0.29400000 -0.34080000
vn 0.22170000 0.29410000 -0.92970000
vn 0.14410000 0.29410000 -0.94480000
vn 0.06560000 0.29410000 -0.95350000
vn 0.00140000 0.29410000 -0.95580000
vn -0.16220000 0.29410000 -0.94190000
vn -0.09220000 0.29410000 -0.95130000
vn -0.24750000 0.29410000 -0.92320000
vn -0.32750000 0.29410000 -0.89790000
vn -0.39610000 0.29400000 -0.86980000
vn -0.48620000 0.29410000 -0.82290000
vn -0.62970000 0.29410000 -0.71900000
vn -0.65620000 0.29410000 -0.69490000
vn -0.75070000 0.29410000 -0.59150000
vn -0.84440000 0.29400000 -0.44780000
vn -0.84760000 0.29410000 -0.44170000
vn -0.90810000 0.29410000 -0.29820000
vn -0.90750000 0.29410000 -0.30010000
vn -0.94350000 0.29430000 -0.15210000
vn -0.76240000 0.29410000 -0.57650000
vn -0.53390000 0.29410000 -0.79280000
vn 0.15530000 0.29400000 0.94310000
vn -0.01220000 0.29360000 0.95580000
vn 0.08180000 0.29400000 0.95230000
vn -0.93720000 0.29410000 0.18730000
vn -0.94110000 0.29410000 0.16660000
vn -0.89870000 0.29410000 0.32530000
vn -0.88800000 0.29410000 0.35360000
vn -0.83430000 0.29410000 0.46630000
vn -0.57150000 0.29410000 0.76610000
vn -0.70050000 0.29380000 0.65040000
vn -0.48990000 0.29400000 0.82070000
vn -0.42890000 0.29400000 0.85420000
vn -0.80790000 0.29410000 0.51060000
vn -0.74600000 0.29410000 0.59750000
vn -0.95010000 0.29380000 -0.10460000
vn -0.94360000 0.29400000 -0.15250000
vn -0.95570000 0.29420000 0.00590000
vn -0.95530000 0.29400000 0.03140000
vn -0.50680000 0.29420000 0.81030000
vn -0.36030000 0.29390000 0.88530000
vn -0.26820000 0.29370000 0.91750000
vn -0.63200000 0.29390000 0.71710000
vn -0.22170000 0.29410000 0.92970000
vn -0.12650000 0.29370000 0.94750000
vn 0.31710000 0.29410000 0.90160000
vn 0.23860000 0.29400000 0.92550000
vn 0.47470000 0.29410000 0.82960000
vn 0.53390000 0.29410000 0.79280000
vn 0.61890000 0.29410000 0.72830000
vn 0.65570000 0.29410000 0.69540000
vn 0.74220000 0.29410000 0.60220000
vn 0.90310000 0.29400000 0.31300000
vn 0.93100000 0.29390000 0.21640000
vn 0.94830000 0.29360000 0.12070000
vn 0.94480000 0.29410000 0.14420000
vn 0.76240000 0.29410000 0.57650000
vn 0.83880000 0.29400000 0.45830000
vn -0.06560000 0.29410000 0.95350000
vn 0.26050000 0.29410000 0.91960000
vn 0.84780000 0.29410000 0.44130000
vn 0.90640000 0.29420000 0.30330000
vn 0.39610000 0.29410000 0.86980000
vn -0.83290000 -0.29410000 -0.46870000
vn -0.83290000 -0.29410000 -0.46880000
vn -0.89640000 -0.29420000 -0.33160000
vn -0.94050000 -0.29340000 -0.17100000
vn -0.90460000 -0.29410000 -0.30870000
vn -0.94480000 -0.29410000 -0.14420000
vn -0.74550000 -0.29410000 -0.59810000
vn -0.84040000 -0.29410000 -0.45530000
vn -0.62450000 -0.29410000 -0.72350000
vn -0.48280000 -0.29410000 -0.82490000
vn -0.33600000 -0.29410000 -0.89480000
vn -0.32780000 -0.29410000 -0.89780000
vn -0.33600000 -0.29410000 -0.89480000
vn -0.69300000 -0.29410000 -0.65820000
vn -0.81140000 -0.29410000 -0.50520000
vn -0.54630000 -0.29410000 -0.78430000
vn -0.35820000 -0.29400000 -0.88620000
vn -0.19260000 -0.29410000 -0.93620000
vn -0.01710000 -0.29330000 -0.95590000
vn -0.16920000 -0.29410000 -0.94070000
vn 0.15080000 -0.00010000 -0.98860000
vn 0.15080000 0.00000000 -0.98860000
vn 0.15080000 -0.00010000 -0.98860000
vn 0.15080000 0.00000000 -0.98860000
vn 0.15090000 0.00010000 -0.98860000
vn 0.15090000 0.00010000 -0.98860000
vn 0.15080000 0.00000000 -0.98860000
vn 0.15080000 -0.00010000 -0.98860000
vn 0.15080000 0.00000000 -0.98860000
vn 0.15080000 0.00000000 -0.98860000
vn 0.15080000 0.00000000 -0.98860000
vn 0.15090000 0.00010000 -0.98860000
vn 0.15080000 0.00000000 -0.98860000
vn -0.87450000 0.00000000 -0.48500000
vn -0.95010000 0.00010000 -0.31210000
vn -0.94650000 -0.00010000 -0.32280000
vn -0.87340000 -0.00000000 -0.48700000
vn -0.97460000 0.00000000 -0.22390000
vn -0.87230000 -0.00010000 -0.48900000
vn -0.98400000 -0.00000000 -0.17790000
vn -0.99390000 0.00000000 -0.11030000
vn -0.78550000 0.00010000 -0.61890000
vn -0.65890000 0.00010000 -0.75230000
vn -0.88350000 0.00010000 -0.46850000
vn -0.34260000 -0.00000000 -0.93950000
vn -0.50870000 0.00000000 -0.86100000
vn -0.33650000 -0.00000000 -0.94170000
vn 0.00140000 0.00020000 -1.00000000
vn -0.16970000 0.00000000 -0.98550000
vn -0.00460000 0.00000000 -1.00000000
vn -0.65340000 -0.00000000 -0.75700000
vn -0.17650000 -0.00010000 -0.98430000
vn -0.87930000 -0.00010000 -0.47640000
vn -0.78000000 -0.00010000 -0.62580000
vn -0.34300000 -0.00000000 -0.93930000
vn -0.01580000 -0.00020000 -0.99990000
vn -0.50510000 -0.00000000 -0.86300000
vn 0.15070000 0.03100000 -0.98810000
vn 0.15070000 0.03100000 -0.98810000
vn 0.00150000 0.00020000 -1.00000000
vn 0.08010000 0.00240000 -0.99680000
vn 0.14860000 0.00340000 -0.98890000
vn 0.17380000 0.04390000 -0.98380000
vn 0.14080000 0.02650000 -0.98970000
vn 0.29680000 0.00020000 -0.95500000
vn 0.15070000 0.03100000 -0.98810000
vn 0.15070000 0.03100000 -0.98810000
vn 0.22070000 0.00240000 -0.97530000
vn 0.15100000 0.00440000 -0.98850000
vn 0.99990000 0.00010000 -0.01380000
vn 0.99220000 -0.00000000 0.12440000
vn 0.99200000 0.00000000 0.12590000
vn 0.98290000 0.00010000 -0.18420000
vn 0.98220000 0.00000000 -0.18760000
vn 0.99980000 -0.00010000 -0.02010000
vn 0.98180000 -0.00010000 -0.18990000
vn 0.45580000 0.00010000 -0.89010000
vn 0.60890000 0.00000000 -0.79330000
vn 0.60730000 0.00000000 -0.79450000
vn 0.74230000 0.00000000 -0.67010000
vn 0.85320000 0.00010000 -0.52160000
vn 0.93430000 0.00010000 -0.35650000
vn 0.30250000 -0.00000000 -0.95310000
vn 0.84940000 -0.00010000 -0.52780000
vn 0.29680000 0.00020000 -0.95490000
vn 0.98110000 -0.00010000 -0.19330000
vn 0.73950000 -0.00000000 -0.67320000
vn 0.46100000 -0.00010000 -0.88740000
vn 0.60750000 0.00000000 -0.79430000
vn 0.93110000 -0.00010000 -0.36480000
vn 0.30820000 -0.00020000 -0.95130000
vn -0.55400000 0.83180000 -0.03560000
vn -0.94340000 0.32600000 -0.06060000
vn -0.95560000 0.28830000 -0.06140000
vn -0.99790000 0.00000000 -0.06410000
vn -0.99790000 0.00000000 -0.06410000
vn -0.99790000 0.00000000 -0.06410000
vn -0.99790000 0.00000000 -0.06410000
vn -0.55140000 -0.83350000 -0.03540000
vn -0.77610000 -0.62870000 -0.04980000
vn 0.10860000 -0.99410000 0.00700000
vn -0.98680000 -0.14910000 -0.06340000
vn -0.96980000 -0.23590000 -0.06230000
vn 0.95240000 -0.19830000 0.23170000
vn 0.77890000 -0.59790000 0.18950000
vn 0.96600000 -0.10810000 0.23500000
vn 0.65800000 -0.73580000 0.16010000
vn 0.11520000 -0.99300000 0.02800000
vn 0.97170000 -0.00000000 0.23640000
vn 0.97170000 -0.00000000 0.23640000
vn 0.97170000 -0.00000000 0.23640000
vn 0.97170000 -0.00000000 0.23640000
vn 0.84930000 0.48590000 0.20660000
vn 0.58000000 0.80230000 0.14110000
vn 0.52190000 0.84350000 0.12700000
vn 0.00930000 1.00000000 0.00230000
vn 0.91510000 0.33610000 0.22260000
vn 0.96990000 0.06090000 0.23600000
vn -0.98410000 -0.00000000 -0.17770000
vn -0.99390000 0.00000000 -0.11020000
vn -0.99660000 -0.00000000 -0.08270000
vn -0.31470000 0.00010000 0.94920000
vn -0.44920000 0.00010000 0.89340000
vn -0.28000000 0.00020000 0.96000000
vn -0.73280000 0.00010000 0.68040000
vn -0.59800000 0.00010000 0.80150000
vn -0.55780000 -0.00010000 0.82990000
vn -0.76710000 -0.00010000 0.64150000
vn -0.84530000 0.00000000 0.53420000
vn -0.99950000 0.00000000 0.03170000
vn -0.98060000 0.00010000 0.19600000
vn -0.99980000 -0.00000000 0.01950000
vn -0.92910000 0.00010000 0.36990000
vn -0.91560000 -0.00010000 0.40210000
vn -0.43460000 -0.00010000 0.90060000
vn -0.31370000 -0.00020000 0.94950000
vn -0.99140000 -0.00000000 0.13080000
vn 0.94640000 -0.00000000 0.32300000
vn 0.94520000 0.00000000 0.32650000
vn 0.97440000 0.00000000 0.22470000
vn 0.97550000 -0.00000000 0.21980000
vn 0.01560000 -0.00010000 0.99990000
vn 0.01810000 0.00010000 0.99980000
vn 0.16990000 -0.00000000 0.98550000
vn 0.77650000 0.00010000 0.63010000
vn 0.87760000 0.00010000 0.47940000
vn 0.75410000 -0.00000000 0.65680000
vn 0.64760000 0.00010000 0.76200000
vn 0.99200000 0.00000000 0.12610000
vn 0.33180000 0.00010000 0.94340000
vn 0.16290000 0.00010000 0.98660000
vn -0.01340000 0.00020000 0.99990000
vn 0.49660000 0.00010000 0.86800000
vn 0.28500000 -0.00010000 0.95850000
vn 0.54100000 -0.00010000 0.84100000
vn 0.90730000 -0.00000000 0.42050000
vn 0.99220000 -0.00000000 0.12450000
vn -0.98860000 0.00000000 -0.15080000
vn -0.98860000 0.00000000 -0.15080000
vn -0.98860000 0.00000000 -0.15080000
vn 0.83860000 0.00000000 0.54470000
vn 0.98880000 0.00000000 0.14910000
vn 0.38640000 -0.86090000 0.33100000
vn -0.93100000 -0.00010000 0.36500000
vn -0.98820000 -0.00000000 -0.15340000
vn 0.27110000 0.96150000 0.04600000
vn -0.54840000 -0.70520000 -0.44940000
vn -0.25430000 -0.70530000 -0.66170000
vn 0.54840000 -0.70520000 0.44950000
vn 0.21860000 -0.70670000 0.67290000
vn -0.55020000 -0.70550000 0.44670000
vn -0.94480000 -0.29410000 -0.14410000
vn -0.95030000 0.29300000 -0.10560000
vt 0.43990300 0.06552800
vt 0.44608700 0.05884800
vt 0.41315000 0.06196900
vt 0.49270300 0.06552800
vt 0.50012100 0.06044700
vt 0.46646100 0.06237000
vt 0.46646100 0.06237000
vt 0.51910300 0.06552800
vt 0.52875300 0.05878300
vt 0.57190300 0.06552800
vt 0.57987400 0.06032500
vt 0.55475600 0.06037300
vt 0.54550300 0.06552800
vt 0.59830300 0.06552800
vt 0.61064800 0.06025600
vt 0.62470300 0.06552800
vt 0.64953900 0.06212700
vt 0.83590300 0.06552800
vt 0.85076600 0.06018200
vt 0.81019300 0.06184100
vt 0.86230300 0.06552800
vt 0.43990300 0.06552800
vt 0.44609600 0.05884800
vt 0.41309000 0.06194300
vt 0.49270300 0.06552800
vt 0.50012100 0.06044700
vt 0.46659400 0.06237100
vt 0.51910300 0.06552800
vt 0.54338600 0.06109000
vt 0.38806100 0.06183400
vt 0.34923400 0.06026300
vt 0.36070200 0.06552800
vt 0.57372100 0.06583600
vt 0.57987400 0.06032500
vt 0.59830300 0.06552800
vt 0.61064800 0.06025600
vt 0.62470300 0.06552800
vt 0.64329500 0.06034500
vt 0.64895600 0.06584200
vt 0.67648600 0.06167200
vt 0.73030300 0.06552800
vt 0.72925300 0.05884500
vt 0.70267200 0.06206600
vt 0.75679900 0.06215600
vt 0.01713100 0.03978800
vt 0.00329200 0.04565900
vt 0.00320500 0.05333600
vt -0.00049100 0.06048900
vt 0.07363400 0.04065300
vt 0.07435800 0.03673900
vt 0.01890100 0.03661300
vt 0.00727300 0.07157800
vt 0.01984200 0.07943300
vt 0.02186600 0.07664500
vt 0.06863500 0.07947700
vt 0.07923800 0.07677300
vt 0.07954300 0.04315500
vt 0.08738200 0.04636000
vt 0.09281300 0.05824300
vt 0.08641200 0.06853500
vt 0.07273900 0.07633600
vt 0.08850300 0.05450400
vt 0.12783500 0.05863500
vt 0.12888500 0.06296500
vt 0.12495900 0.05290600
vt 0.11151100 0.06190900
vt 0.10968200 0.06165300
vt 0.11042800 0.05753100
vt 0.11217100 0.05718600
vt 0.11365000 0.07026600
vt 0.11365000 0.07026600
vt 0.10898800 0.06067800
vt 0.11379300 0.06356300
vt 0.11041100 0.09285800
vt 0.11477000 0.08181000
vt 0.11855000 0.09646800
vt 0.11683900 0.08166500
vt 0.11125400 0.08392100
vt 0.11428000 0.06973000
vt 0.12052500 0.08278300
vt 0.11769900 0.09731300
vt 0.11129500 0.06193900
vt 0.11022000 0.05736800
vt 0.11232000 0.05717300
vt 0.11489800 0.07821900
vt 0.11054300 0.07271000
vt 0.11493600 0.06645700
vt 0.11971900 0.06738500
vt 0.11912100 0.05107100
vt 0.10948200 0.08097600
vt 0.12267000 0.05138700
vt 0.10721500 0.04084800
vt 0.10721500 0.04084800
vt 0.11259000 0.02972700
vt 0.16953700 0.02959500
vt 0.16953700 0.02959500
vt 0.12320800 0.05997500
vt 0.12320800 0.05997500
vt 0.11542600 0.06101600
vt 0.10640600 0.05414900
vt 0.17745200 0.02886900
vt 0.18337000 0.03718000
vt 0.18468500 0.05041400
vt 0.18028300 0.05971800
vt 0.04110500 0.10023300
vt 0.30903500 0.12730200
vt 0.02155700 0.12730200
vt 0.00879500 0.15775500
vt 0.32178600 0.15771700
vt 0.10555200 0.05801000
vt 0.10555200 0.05801000
vt 0.25532500 0.07315700
vt 0.25532500 0.07315700
vt 0.25532500 0.07315700
vt 0.06819200 0.07786200
vt 0.06819200 0.07786200
vt 0.28072200 0.09205300
vt 0.28072200 0.09205300
vt 0.01684200 0.23812300
vt 0.00829700 0.21245000
vt 0.31375000 0.23812300
vt 0.03165700 0.26282800
vt 0.00563100 0.18735200
vt 0.32229500 0.21245000
vt 0.05239600 0.28488300
vt 0.27819600 0.28488300
vt 0.07792600 0.30279800
vt 0.13624300 0.32297900
vt 0.10652400 0.31559700
vt 0.22406700 0.31559700
vt 0.32496000 0.18735200
vt 0.22148600 0.05799500
vt 0.29647500 0.10872100
vt 0.19434900 0.32297900
vt 0.16529600 0.32528100
vt 0.25266600 0.30279800
vt 0.29893400 0.26282800
vt 0.18308500 0.05798900
vt 0.17556000 0.06488900
vt 0.20704400 0.06488900
vt 0.15001500 0.05794200
vt 0.20729900 0.05798900
vt 0.23151200 0.05798900
vt 0.26843800 0.05799800
vt 0.27070500 0.06509700
vt 0.30415100 0.06488900
vt 0.23852200 0.06488900
vt 0.33550100 0.05798900
vt 0.33987500 0.06488900
vt 0.36685100 0.05798900
vt 0.37344100 0.06488900
vt 0.39820100 0.05798900
vt 0.42955100 0.05798900
vt 0.43747900 0.06488900
vt 0.46090100 0.05798900
vt 0.46940800 0.06488900
vt 0.49225100 0.05798900
vt 0.40572500 0.06488900
vt 0.30415100 0.05798900
vt 0.50558100 0.06573700
vt 0.52360100 0.05798900
vt 0.11075300 0.05801000
vt 0.13987600 0.06349100
vt 0.10990200 0.06488900
vt 0.53677700 0.06488600
vt 0.55495100 0.05798900
vt 0.58630100 0.05798900
vt 0.57754000 0.06628700
vt 0.61765100 0.05798900
vt 0.60766900 0.06488900
vt 0.64049400 0.06488900
vt 0.64900100 0.05798900
vt 0.67242400 0.06488900
vt 0.71170100 0.05798900
vt 0.70417800 0.06488900
vt 0.73646100 0.06488900
vt 0.74305100 0.05798900
vt 0.77002800 0.06488900
vt 0.80575100 0.05798900
vt 0.80575100 0.06488900
vt 0.84141800 0.05799800
vt 0.77440100 0.05798900
vt 0.68035100 0.05798900
vt 0.87839100 0.05798900
vt 0.87138000 0.06488900
vt 0.90285800 0.06488900
vt 0.95103000 0.05798900
vt 0.91426200 0.05797200
vt 0.93434200 0.06488900
vt 0.83883700 0.06507100
vt 0.96648900 0.06488900
vt 0.99560500 0.05796900
vt 0.12382400 0.06138700
vt 0.11122800 0.05532700
vt 0.13637100 0.05577300
vt 0.16165400 0.05561800
vt 0.15376200 0.06136800
vt 0.23531800 0.06138100
vt 0.21429900 0.05515700
vt 0.24761700 0.05788900
vt 0.30156100 0.05798400
vt 0.32635000 0.05809600
vt 0.31683100 0.06137500
vt 0.10015500 0.06173700
vt 0.34974300 0.06142100
vt 0.38201400 0.06138300
vt 0.35670200 0.05817900
vt 0.39513300 0.05533500
vt 0.42190000 0.05569200
vt 0.40891800 0.06141600
vt 0.44895000 0.05526200
vt 0.47512400 0.05535000
vt 0.45852700 0.06141600
vt 0.43370900 0.06143000
vt 0.48297600 0.06138900
vt 0.50136400 0.05550600
vt 0.52677100 0.05547800
vt 0.50744100 0.06141600
vt 0.56400300 0.06143700
vt 0.55385200 0.05575800
vt 0.59392000 0.05816700
vt 0.53184500 0.06136900
vt 0.59551400 0.06130200
vt 0.12382400 0.06138700
vt 0.09851200 0.05887600
vt 0.13689600 0.05589500
vt 0.16159200 0.05565900
vt 0.15376200 0.06136800
vt 0.23531800 0.06138100
vt 0.21443100 0.05515300
vt 0.24761700 0.05788900
vt 0.29028000 0.05692800
vt 0.25975800 0.06141600
vt 0.32635000 0.05809600
vt 0.31683100 0.06137500
vt 0.10015500 0.06173700
vt 0.34974300 0.06142100
vt 0.38201400 0.06138300
vt 0.35670200 0.05817900
vt 0.38898400 0.05805600
vt 0.42176500 0.05601400
vt 0.40891800 0.06141600
vt 0.43370900 0.06143000
vt 0.44769400 0.05558000
vt 0.50107800 0.05568400
vt 0.52672400 0.05549800
vt 0.50744100 0.06141600
vt 0.56400300 0.06143700
vt 0.55384500 0.05578800
vt 0.58047100 0.05551500
vt 0.53184500 0.06136900
vt 0.59551400 0.06130200
vt 0.60673100 0.05488000
vt 0.44590300 0.07199600
vt 0.44588000 0.06614600
vt 0.40968600 0.07358800
vt 0.58181500 0.08344200
vt 0.58646100 0.06028700
vt 0.55858100 0.06043100
vt 0.41452800 0.06032000
vt 0.38792200 0.06032000
vt 0.44240700 0.06032000
vt 0.50049400 0.06032000
vt 0.47120700 0.06032000
vt 0.55804500 0.07197200
vt 0.52979000 0.06032000
vt 0.42284900 0.09064900
vt 0.45133200 0.08362500
vt 0.48386500 0.08362500
vt 0.51639800 0.08362500
vt 0.54893000 0.08362500
vt 0.60957000 0.06005900
vt 0.61399600 0.08362500
vt 0.66133800 0.51883200
vt 0.64403200 0.51409500
vt 0.63884800 0.52552400
vt 0.63235800 0.50353700
vt 0.67745400 0.51470500
vt 0.71337200 0.52609100
vt 0.69114600 0.50323800
vt 0.68004200 0.52700400
vt 0.38117500 0.50337300
vt 0.38578300 0.52700100
vt 0.42256700 0.52700100
vt 0.48504900 0.50369600
vt 0.49613500 0.52700100
vt 0.53468200 0.50369600
vt 0.59929200 0.51220900
vt 0.58431500 0.50369600
vt 0.43541600 0.50369600
vt 0.45935100 0.52700100
vt 0.56970300 0.52700100
vt 0.60648700 0.52700100
vt 0.53291900 0.52700100
vt 0.72686600 0.51207200
vt 0.78864500 0.50369600
vt 0.73901200 0.50369600
vt 0.79040700 0.52700100
vt 0.82719200 0.52700100
vt 0.83827800 0.50369600
vt 0.86397600 0.52700100
vt 0.75362300 0.52700100
vt 0.88791100 0.50369600
vt 0.90076000 0.52700100
vt 0.94226400 0.50311500
vt 0.39017700 0.50408500
vt 0.38578300 0.52700100
vt 0.41477300 0.50371500
vt 0.44490200 0.50367200
vt 0.44315600 0.53077000
vt 0.47332200 0.53053500
vt 0.41482300 0.52700100
vt 0.50874500 0.50369600
vt 0.50159500 0.53046500
vt 0.53079800 0.53046300
vt 0.57365200 0.50369600
vt 0.59005800 0.53072600
vt 0.60512900 0.50369600
vt 0.61987700 0.53048900
vt 0.63533200 0.50369600
vt 0.54134800 0.50369600
vt 0.55995800 0.53041800
vt 0.47639600 0.50369600
vt 0.64714300 0.52700100
vt 0.66166300 0.50369600
vt 0.67618300 0.52700100
vt 0.68799500 0.50369600
vt 0.71819800 0.50369600
vt 0.70522300 0.52700100
vt 0.73426300 0.52700100
vt 0.74967500 0.50369600
vt 0.76330300 0.52700100
vt 0.78197800 0.50369600
vt 0.81458200 0.50369600
vt 0.82115900 0.53024300
vt 0.84693000 0.50369600
vt 0.87849200 0.50369600
vt 0.87975900 0.53064900
vt 0.90840700 0.50384400
vt 0.90804400 0.53068900
vt 0.93605900 0.53027100
vt 0.85042400 0.52700100
vt 0.79234300 0.52700100
vt 0.71691100 0.50368200
vt 0.68599900 0.50596700
vt 0.70330900 0.52667900
vt 0.44701100 0.50369600
vt 0.44314200 0.53079600
vt 0.47336000 0.53053700
vt 0.47891800 0.50369600
vt 0.50187500 0.53044500
vt 0.57567700 0.50369600
vt 0.54379500 0.50369600
vt 0.59373700 0.51491600
vt 0.60652300 0.50364000
vt 0.51136100 0.50369600
vt 0.53098300 0.52700100
vt 0.39311000 0.50350800
vt 0.38422300 0.53023800
vt 0.41345600 0.53064200
vt 0.41812700 0.50355400
vt 0.59010700 0.53092300
vt 0.62036700 0.52667100
vt 0.63831900 0.50643300
vt 0.56137800 0.53053100
vt 0.64714300 0.52700100
vt 0.66494000 0.51587100
vt 0.74765000 0.50369600
vt 0.73256100 0.51470200
vt 0.77953200 0.50369600
vt 0.79234300 0.52700100
vt 0.81196600 0.50369600
vt 0.82102000 0.53024200
vt 0.84440900 0.50369600
vt 0.90553400 0.50364300
vt 0.92402500 0.50758200
vt 0.94192100 0.50393500
vt 0.93754400 0.52700100
vt 0.85042400 0.52700100
vt 0.87631600 0.50369600
vt 0.67618300 0.52700100
vt 0.73673900 0.53150100
vt 0.87984500 0.53067700
vt 0.90741600 0.53077000
vt 0.76330300 0.52700100
vt 0.67195400 0.07197200
vt 0.67195400 0.06614600
vt 0.64655300 0.08341400
vt 0.61854600 0.05979900
vt 0.64247500 0.06022900
vt 0.61399600 0.08362500
vt 0.69820200 0.06032000
vt 0.66937900 0.06032000
vt 0.72749700 0.06032000
vt 0.75678400 0.06032000
vt 0.78411800 0.06614600
vt 0.78558400 0.06032000
vt 0.78411800 0.07197200
vt 0.71159400 0.08362500
vt 0.67906100 0.08362500
vt 0.74412600 0.08362500
vt 0.78014700 0.08489100
vt 0.80919100 0.08362500
vt 0.83892100 0.05952100
vt 0.81319000 0.06030500
vt 0.08461300 0.07335600
vt 0.08461300 0.07335600
vt 0.05450900 0.05032400
vt 0.05450900 0.05032400
vt 0.05450900 0.05032400
vt 0.15591800 0.05992200
vt 0.15591800 0.05992200
vt 0.15591800 0.05992200
vt 0.12087800 0.06732800
vt 0.05371200 0.04343100
vt 0.16964600 0.04344400
vt 0.16964600 0.04344400
vt 0.13435500 0.07259900
vt 0.12559400 0.33995600
vt 0.10973700 0.31007200
vt 0.17363200 0.31065700
vt 0.14128600 0.33995600
vt 0.11316000 0.29474500
vt 0.15754500 0.33995600
vt 0.17320700 0.28583100
vt 0.11018900 0.27492600
vt 0.10990200 0.36505900
vt 0.10990200 0.39275700
vt 0.10990200 0.33736100
vt 0.10990200 0.44815200
vt 0.10990200 0.42045400
vt 0.14128600 0.44919100
vt 0.10990200 0.50354800
vt 0.10990200 0.47585000
vt 0.14185300 0.50354800
vt 0.17380400 0.39275700
vt 0.17379000 0.47567400
vt 0.17380400 0.33736100
vt 0.17380400 0.36505900
vt 0.17380400 0.44815200
vt 0.17290300 0.50262200
vt 0.17380400 0.42045400
vt 0.14185300 0.52899400
vt 0.10990200 0.52899400
vt 0.10990200 0.50354800
vt 0.14185300 0.50354800
vt 0.17289900 0.50265000
vt 0.18020600 0.54071100
vt 0.17993100 0.54029100
vt 0.10990200 0.55444000
vt 0.10990200 0.52899400
vt 0.14185300 0.52899400
vt 0.14185300 0.55444000
vt 0.17380400 0.55444000
vt 0.10982400 0.74806900
vt 0.17348000 0.77228400
vt 0.10957600 0.77163400
vt 0.10987800 0.72057900
vt 0.14128600 0.72070800
vt 0.17376300 0.74828500
vt 0.15754500 0.72070800
vt 0.10990200 0.58213800
vt 0.14128600 0.61014200
vt 0.10990200 0.60983600
vt 0.10990200 0.63753400
vt 0.10990200 0.66523200
vt 0.10990200 0.69293000
vt 0.14185300 0.55444000
vt 0.17380400 0.66523200
vt 0.10990200 0.55444000
vt 0.17393000 0.72051800
vt 0.17380400 0.63753400
vt 0.17380400 0.58213800
vt 0.17380400 0.60983600
vt 0.17380400 0.69293000
vt 0.17380400 0.55444000
vt 0.12629100 0.09065300
vt 0.12367200 0.08480200
vt 0.12350000 0.09159000
vt 0.10872400 0.04166000
vt 0.10075700 -0.00732500
vt 0.10079100 0.03976900
vt 0.10868800 -0.00624600
vt 0.11845500 0.09192300
vt 0.11968600 0.08620700
vt 0.11562700 0.09195900
vt 0.12177400 0.08439500
vt 0.12143700 0.09124000
vt 0.12314400 0.09124300
vt 0.12489000 0.08606400
vt 0.12278400 0.08459400
vt 0.12568600 0.09154800
vt 0.12819100 0.09207600
vt 0.11111400 -0.00130300
vt 0.11109200 0.04084700
vt 0.11883300 -0.00758800
vt 0.11878200 0.03883600
vt 0.12034500 0.09185000
vt 0.11866100 0.08987500
vt 0.11836600 0.09246200
vt 0.11615000 0.09347000
vt 0.12100600 0.08491100
vt 0.12212400 0.09158400
vt 0.17321700 0.28570700
vt 0.11014000 0.27494700
vt 0.16710400 0.26951200
vt 0.11867800 0.06152500
vt 0.10996000 0.08595300
vt 0.10685500 0.05567700
vt 0.10990200 0.14165100
vt 0.10990200 0.11376400
vt 0.17380400 0.10443800
vt 0.17380400 0.14812900
vt 0.10990200 0.16953900
vt 0.11005400 0.25153500
vt 0.10990200 0.22531400
vt 0.15634800 0.25280700
vt 0.10990200 0.19742700
vt 0.17380400 0.19094900
vt 0.15817300 0.08207100
vt 0.17322300 0.05972700
vt 0.17380400 0.23463900
vt 0.15645400 0.80626200
vt 0.10995200 0.80614300
vt 0.11641900 0.78885500
vt 0.16703400 0.78875100
vt 0.17352900 0.99832100
vt 0.11976000 0.99633900
vt 0.15698400 0.97206200
vt 0.10990200 0.86056200
vt 0.10990200 0.83267500
vt 0.17380400 0.86704000
vt 0.10990200 0.88845000
vt 0.10951700 0.77178400
vt 0.10990200 0.94422500
vt 0.10991300 0.97194600
vt 0.10740400 1.00140500
vt 0.10990200 0.91633700
vt 0.17380400 0.95355000
vt 0.17380400 0.90986000
vt 0.17380400 0.82334900
vt 0.17349800 0.77239500
vt 0.06464200 0.05744100
vt 0.12201500 0.05697000
vt 0.11555000 0.05829300
vt 0.11323300 0.06245100
vt 0.11387000 0.05783000
vt 0.12065300 0.08091400
vt 0.11310800 0.06243600
vt 0.11386500 0.05782100
vt 0.10992600 0.06252800
vt 0.19425000 0.06100400
vt 0.27589800 0.06097200
vt 0.19425800 0.06100300
vt 0.28419500 0.06139200
vt 0.47390900 0.06100400
vt 0.93754400 0.52700100
vt 0.94474600 0.50337500
f 1/1/1 2/2/2 3/3/3
f 4/4/4 5/5/5 6/6/6
f 8/8/8 9/9/9 5/5/5
f 7/7/7 2/2/2 1/1/1
f 8/8/8 5/5/5 4/4/4
f 10/10/10 11/11/11 12/12/12
f 10/10/10 12/12/12 13/13/13
f 11/11/11 10/10/10 14/14/14
f 11/11/11 14/14/14 15/15/15
f 9/9/9 8/8/8 13/13/13
f 13/13/13 12/12/12 9/9/9
f 16/16/16 17/17/17 15/15/15
f 18/18/18 19/19/19 20/20/20
f 19/19/19 18/18/18 21/21/21
f 14/14/14 16/16/16 15/15/15
f 22/22/22 23/23/23 24/24/24
f 25/25/25 26/26/26 27/27/27
f 28/28/28 29/29/29 26/26/26
f 30/30/30 31/31/31 32/32/32
f 27/27/27 23/23/23 22/22/22
f 28/28/28 26/26/26 25/25/25
f 33/33/33 34/34/34 29/29/29
f 34/34/34 33/33/33 35/35/35
f 34/34/34 35/35/35 36/36/36
f 37/37/37 38/38/38 36/36/36
f 39/39/39 40/40/40 38/38/38
f 41/41/41 42/42/42 43/43/43
f 41/41/41 44/44/44 42/42/42
f 39/39/39 38/38/38 37/37/37
f 35/35/35 37/37/37 36/36/36
f 45/45/45 46/46/46 47/47/47
f 46/46/46 48/48/48 47/47/47
f 45/45/45 49/49/49 50/50/50
f 45/45/45 51/51/51 46/46/46
f 52/52/52 47/47/47 48/48/48
f 53/53/53 54/54/54 52/52/52
f 55/55/55 56/56/56 53/53/53
f 53/53/53 56/56/56 54/54/54
f 50/50/50 49/49/49 57/57/57
f 58/58/58 50/50/50 57/57/57
f 58/58/58 57/57/57 59/59/59
f 56/56/56 60/60/60 61/61/61
f 59/59/59 62/62/62 60/60/60
f 63/63/63 64/64/64 65/65/65
f 66/66/66 67/67/67 68/68/68
f 66/66/66 68/68/68 69/69/69
f 71/71/71 72/72/72 73/73/73
f 74/74/74 75/75/75 76/76/76
f 77/77/77 78/78/78 79/79/79
f 80/80/80 81/81/81 77/77/77
f 77/77/77 81/81/81 78/78/78
f 82/82/82 83/83/83 84/84/84
f 85/85/85 86/86/86 87/87/87
f 88/88/88 87/87/87 89/89/89
f 90/90/90 86/86/86 85/85/85
f 91/91/91 88/88/88 89/89/89
f 93/93/93 94/94/94 95/95/95
f 98/98/98 99/99/99 100/100/100
f 98/98/98 100/100/100 93/93/93
f 97/97/97 92/92/92 96/96/96
f 95/95/95 101/101/101 102/102/102
f 102/102/102 103/103/103 95/95/95
f 95/95/95 103/103/103 98/98/98
f 103/103/103 104/104/104 98/98/98
f 105/105/105 106/106/106 107/107/107
f 108/108/108 107/107/107 109/109/109
f 110/110/110 113/113/113 115/115/115
f 105/105/105 115/115/115 118/118/118
f 119/119/119 120/120/120 121/121/121
f 122/122/122 119/119/119 121/121/121
f 123/123/123 124/124/124 120/120/120
f 125/125/125 126/126/126 127/127/127
f 128/128/128 129/129/129 130/130/130
f 129/129/129 127/127/127 130/130/130
f 122/122/122 126/126/126 125/125/125
f 131/131/131 124/124/124 123/123/123
f 111/111/111 132/132/132 112/112/112
f 116/116/116 114/114/114 117/117/117
f 133/133/133 106/106/106 105/105/105
f 107/107/107 106/106/106 109/109/109
f 118/118/118 133/133/133 105/105/105
f 109/109/109 131/131/131 108/108/108
f 130/130/130 134/134/134 128/128/128
f 134/134/134 135/135/135 128/128/128
f 130/130/130 127/127/127 136/136/136
f 137/137/137 122/122/122 121/121/121
f 127/127/127 126/126/126 136/136/136
f 122/122/122 137/137/137 126/126/126
f 121/121/121 120/120/120 124/124/124
f 138/138/138 139/139/139 140/140/140
f 139/139/139 138/138/138 141/141/141
f 142/142/142 140/140/140 143/143/143
f 146/146/146 159/159/159 145/145/145
f 144/144/144 143/143/143 147/147/147
f 148/148/148 149/149/149 150/150/150
f 150/150/150 151/151/151 152/152/152
f 153/153/153 154/154/154 155/155/155
f 155/155/155 156/156/156 157/157/157
f 152/152/152 158/158/158 153/153/153
f 159/159/159 146/146/146 148/148/148
f 157/157/157 160/160/160 161/161/161
f 141/141/141 162/162/162 163/163/163
f 162/162/162 164/164/164 163/163/163
f 141/141/141 163/163/163 139/139/139
f 145/145/145 144/144/144 147/147/147
f 165/165/165 166/166/166 161/161/161
f 167/167/167 166/166/166 168/168/168
f 169/169/169 170/170/170 171/171/171
f 172/172/172 171/171/171 173/173/173
f 167/167/167 168/168/168 170/170/170
f 174/174/174 175/175/175 176/176/176
f 177/177/177 176/176/176 178/178/178
f 180/180/180 190/190/190 179/179/179
f 182/182/182 178/178/178 180/180/180
f 183/183/183 173/173/173 175/175/175
f 184/184/184 185/185/185 186/186/186
f 187/187/187 188/188/188 189/189/189
f 185/185/185 184/184/184 181/181/181
f 185/185/185 181/181/181 190/190/190
f 189/189/189 191/191/191 187/187/187
f 187/187/187 191/191/191 192/192/192
f 165/165/165 168/168/168 166/166/166
f 193/193/193 194/194/194 195/195/195
f 195/195/195 196/196/196 197/197/197
f 198/198/198 199/199/199 200/200/200
f 201/201/201 202/202/202 203/203/203
f 194/194/194 193/193/193 204/204/204
f 195/195/195 197/197/197 193/193/193
f 205/205/205 203/203/203 202/202/202
f 206/206/206 207/207/207 208/208/208
f 208/208/208 209/209/209 210/210/210
f 211/211/211 212/212/212 213/213/213
f 214/214/214 209/209/209 211/211/211
f 215/215/215 212/212/212 216/216/216
f 216/216/216 217/217/217 218/218/218
f 219/219/219 220/220/220 221/221/221
f 222/222/222 217/217/217 220/220/220
f 206/206/206 205/205/205 207/207/207
f 221/221/221 223/223/223 219/219/219
f 224/224/224 225/225/225 226/226/226
f 226/226/226 227/227/227 228/228/228
f 229/229/229 230/230/230 231/231/231
f 231/231/231 232/232/232 233/233/233
f 232/232/232 234/234/234 235/235/235
f 225/225/225 224/224/224 236/236/236
f 226/226/226 228/228/228 224/224/224
f 237/237/237 235/235/235 234/234/234
f 238/238/238 239/239/239 240/240/240
f 240/240/240 241/241/241 242/242/242
f 243/243/243 241/241/241 244/244/244
f 245/245/245 246/246/246 247/247/247
f 248/248/248 249/249/249 250/250/250
f 251/251/251 246/246/246 249/249/249
f 238/238/238 237/237/237 239/239/239
f 250/250/250 252/252/252 248/248/248
f 250/250/250 253/253/253 252/252/252
f 254/254/254 255/255/255 256/256/256
f 259/259/259 265/265/265 258/258/258
f 256/256/256 260/260/260 261/261/261
f 260/260/260 256/256/256 262/262/262
f 255/255/255 263/263/263 264/264/264
f 254/254/254 263/263/263 255/255/255
f 263/263/263 265/265/265 266/266/266
f 254/254/254 265/265/265 263/263/263
f 262/262/262 255/255/255 264/264/264
f 254/254/254 256/256/256 267/267/267
f 267/267/267 268/268/268 254/254/254
f 269/269/269 254/254/254 268/268/268
f 270/270/270 254/254/254 269/269/269
f 270/270/270 265/265/265 254/254/254
f 271/271/271 265/265/265 270/270/270
f 266/266/266 265/265/265 259/259/259
f 265/265/265 271/271/271 257/257/257
f 257/257/257 273/273/273 258/258/258
f 274/274/274 275/275/275 276/276/276
f 276/276/276 275/275/275 277/277/277
f 278/278/278 281/281/281 280/280/280
f 282/282/282 283/283/283 284/284/284
f 286/286/286 294/294/294 287/287/287
f 288/288/288 289/289/289 287/287/287
f 290/290/290 291/291/291 285/285/285
f 288/288/288 293/293/293 277/277/277
f 277/277/277 289/289/289 288/288/288
f 292/292/292 288/288/288 287/287/287
f 284/284/284 291/291/291 290/290/290
f 293/293/293 288/288/288 292/292/292
f 294/294/294 292/292/292 287/287/287
f 295/295/295 296/296/296 297/297/297
f 299/299/299 300/300/300 296/296/296
f 300/300/300 299/299/299 301/301/301
f 302/302/302 296/296/296 295/295/295
f 295/295/295 280/280/280 279/279/279
f 303/303/303 304/304/304 305/305/305
f 297/297/297 280/280/280 295/295/295
f 302/302/302 295/295/295 279/279/279
f 302/302/302 298/298/298 296/296/296
f 304/304/304 303/303/303 301/301/301
f 276/276/276 281/281/281 274/274/274
f 307/307/307 312/312/312 306/306/306
f 311/311/311 323/323/323 309/309/309
f 310/310/310 309/309/309 312/312/312
f 315/315/315 321/321/321 313/313/313
f 316/316/316 322/322/322 317/317/317
f 319/319/319 324/324/324 320/320/320
f 322/322/322 316/316/316 321/321/321
f 314/314/314 313/313/313 323/323/323
f 324/324/324 325/325/325 320/320/320
f 325/325/325 324/324/324 326/326/326
f 330/330/330 331/331/331 328/328/328
f 332/332/332 343/343/343 333/333/333
f 329/329/329 328/328/328 327/327/327
f 335/335/335 342/342/342 336/336/336
f 338/338/338 340/340/340 339/339/339
f 341/341/341 558/558/558 339/339/339
f 342/342/342 338/338/338 337/337/337
f 343/343/343 335/335/335 334/334/334
f 331/331/331 330/330/330 332/332/332
f 344/344/344 345/345/345 346/346/346
f 349/349/349 350/350/350 347/347/347
f 351/351/351 356/356/356 350/350/350
f 352/352/352 353/353/353 354/354/354
f 354/354/354 355/355/355 352/352/352
f 356/356/356 351/351/351 357/357/357
f 360/360/360 361/361/361 358/358/358
f 362/362/362 363/363/363 354/354/354
f 355/355/355 363/363/363 364/364/364
f 365/365/365 354/354/354 353/353/353
f 348/348/348 347/347/347 361/361/361
f 365/365/365 353/353/353 357/357/357
f 362/362/362 354/354/354 365/365/365
f 366/366/366 364/364/364 363/363/363
f 364/364/364 366/366/366 367/367/367
f 368/368/368 369/369/369 370/370/370
f 371/371/371 373/373/373 372/372/372
f 373/373/373 379/379/379 374/374/374
f 375/375/375 376/376/376 377/377/377
f 378/378/378 377/377/377 376/376/376
f 379/379/379 383/383/383 380/380/380
f 345/345/345 381/381/381 346/346/346
f 367/367/367 381/381/381 345/345/345
f 344/344/344 346/346/346 369/369/369
f 383/383/383 384/384/384 375/375/375
f 376/376/376 375/375/375 384/384/384
f 369/369/369 382/382/382 385/385/385
f 371/371/371 370/370/370 385/385/385
f 385/385/385 370/370/370 369/369/369
f 376/376/376 384/384/384 378/378/378
f 387/387/387 390/390/390 386/386/386
f 389/389/389 391/391/391 388/388/388
f 387/387/387 392/392/392 393/393/393
f 387/387/387 386/386/386 394/394/394
f 392/392/392 387/387/387 394/394/394
f 395/395/395 394/394/394 396/396/396
f 395/395/395 396/396/396 397/397/397
f 396/396/396 394/394/394 398/398/398
f 399/399/399 386/386/386 400/400/400
f 386/386/386 399/399/399 401/401/401
f 401/401/401 402/402/402 398/398/398
f 398/398/398 386/386/386 401/401/401
f 398/398/398 402/402/402 403/403/403
f 404/404/404 405/405/405 403/403/403
f 394/394/394 386/386/386 398/398/398
f 393/393/393 390/390/390 387/387/387
f 406/406/406 408/408/408 413/413/413
f 407/407/407 412/412/412 414/414/414
f 409/409/409 415/415/415 416/416/416
f 411/411/411 410/410/410 417/417/417
f 412/412/412 418/418/418 414/414/414
f 419/419/419 420/420/420 421/421/421
f 422/422/422 419/419/419 421/421/421
f 421/421/421 420/420/420 423/423/423
f 424/424/424 422/422/422 421/421/421
f 423/423/423 425/425/425 421/421/421
f 426/426/426 423/423/423 420/420/420
f 427/427/427 419/419/419 428/428/428
f 419/419/419 427/427/427 429/429/429
f 430/430/430 431/431/431 432/432/432
f 433/433/433 434/434/434 435/435/435
f 430/430/430 432/432/432 434/434/434
f 428/428/428 432/432/432 431/431/431
f 429/429/429 420/420/420 419/419/419
f 428/428/428 419/419/419 422/422/422
f 422/422/422 432/432/432 428/428/428
f 436/436/436 422/422/422 424/424/424
f 434/434/434 432/432/432 435/435/435
f 432/432/432 437/437/437 435/435/435
f 432/432/432 422/422/422 436/436/436
f 438/438/438 439/439/439 424/424/424
f 424/424/424 439/439/439 436/436/436
f 440/440/440 437/437/437 432/432/432
f 437/437/437 441/441/441 435/435/435
f 442/442/442 440/440/440 432/432/432
f 424/424/424 421/421/421 438/438/438
f 426/426/426 425/425/425 423/423/423
f 445/445/445 446/446/446 443/443/443
f 448/448/448 443/443/443 447/447/447
f 449/449/449 453/453/453 451/451/451
f 452/452/452 449/449/449 451/451/451
f 449/449/449 454/454/454 453/453/453
f 455/455/455 460/460/460 456/456/456
f 458/458/458 459/459/459 455/455/455
f 461/461/461 460/460/460 455/455/455
f 459/459/459 461/461/461 455/455/455
f 462/462/462 463/463/463 464/464/464
f 465/465/465 463/463/463 466/466/466
f 463/463/463 465/465/465 464/464/464
f 466/466/466 459/459/459 467/467/467
f 468/468/468 463/463/463 462/462/462
f 459/459/459 458/458/458 467/467/467
f 469/469/469 459/459/459 463/463/463
f 466/466/466 463/463/463 459/459/459
f 468/468/468 462/462/462 470/470/470
f 471/471/471 460/460/460 461/461/461
f 463/463/463 472/472/472 469/469/469
f 468/468/468 473/473/473 463/463/463
f 474/474/474 463/463/463 473/473/473
f 469/469/469 461/461/461 459/459/459
f 469/469/469 475/475/475 461/461/461
f 472/472/472 463/463/463 474/474/474
f 461/461/461 475/475/475 471/471/471
f 476/476/476 473/473/473 468/468/468
f 477/477/477 478/478/478 479/479/479
f 480/480/480 483/483/483 482/482/482
f 484/484/484 485/485/485 486/486/486
f 487/487/487 485/485/485 488/488/488
f 488/488/488 485/485/485 484/484/484
f 489/489/489 490/490/490 491/491/491
f 489/489/489 492/492/492 490/490/490
f 493/493/493 490/490/490 492/492/492
f 495/495/495 497/497/497 494/494/494
f 498/498/498 499/499/499 500/500/500
f 500/500/500 499/499/499 501/501/501
f 499/499/499 498/498/498 502/502/502
f 503/503/503 502/502/502 498/498/498
f 504/504/504 505/505/505 506/506/506
f 507/507/507 508/508/508 509/509/509
f 512/512/512 513/513/513 510/510/510
f 513/513/513 514/514/514 510/510/510
f 515/515/515 516/516/516 517/517/517
f 519/519/519 522/522/522 516/516/516
f 517/517/517 505/505/505 515/515/515
f 520/520/520 508/508/508 507/507/507
f 505/505/505 517/517/517 506/506/506
f 511/511/511 508/508/508 520/520/520
f 518/518/518 514/514/514 519/519/519
f 521/521/521 520/520/520 507/507/507
f 512/512/512 511/511/511 520/520/520
f 513/513/513 519/519/519 514/514/514
f 520/520/520 521/521/521 512/512/512
f 516/516/516 522/522/522 517/517/517
f 506/506/506 522/522/522 504/504/504
f 517/517/517 522/522/522 506/506/506
f 523/523/523 524/524/524 525/525/525
f 525/525/525 526/526/526 523/523/523
f 527/527/527 528/528/528 529/529/529
f 531/531/531 541/541/541 532/532/532
f 530/530/530 532/532/532 533/533/533
f 525/525/525 524/524/524 534/534/534
f 535/535/535 529/529/529 536/536/536
f 537/537/537 536/536/536 528/528/528
f 538/538/538 540/540/540 539/539/539
f 523/523/523 531/531/531 524/524/524
f 538/538/538 533/533/533 540/540/540
f 523/523/523 541/541/541 531/531/531
f 534/534/534 526/526/526 525/525/525
f 526/526/526 534/534/534 542/542/542
f 532/532/532 540/540/540 533/533/533
f 526/526/526 542/542/542 541/541/541
f 529/529/529 539/539/539 527/527/527
f 535/535/535 539/539/539 529/529/529
f 523/523/523 526/526/526 541/541/541
f 45/45/45 50/50/50 51/51/51
f 543/543/543 544/544/544 545/545/545
f 66/66/66 69/69/69 546/546/546
f 547/547/547 546/546/546 69/69/69
f 75/75/75 70/70/70 548/548/548
f 77/77/77 79/79/79 80/80/80
f 82/82/82 84/84/84 549/549/549
f 84/84/84 550/550/550 549/549/549
f 86/86/86 551/551/551 87/87/87
f 85/85/85 87/87/87 88/88/88
f 138/138/138 140/140/140 142/142/142
f 140/140/140 147/147/147 143/143/143
f 149/149/149 151/151/151 150/150/150
f 151/151/151 158/158/158 152/152/152
f 154/154/154 156/156/156 155/155/155
f 156/156/156 160/160/160 157/157/157
f 158/158/158 154/154/154 153/153/153
f 146/146/146 149/149/149 148/148/148
f 160/160/160 165/165/165 161/161/161
f 169/169/169 171/171/171 172/172/172
f 172/172/172 173/173/173 183/183/183
f 167/167/167 170/170/170 169/169/169
f 174/174/174 176/176/176 177/177/177
f 177/177/177 178/178/178 182/182/182
f 182/182/182 180/180/180 179/179/179
f 183/183/183 175/175/175 174/174/174
f 184/184/184 186/186/186 188/188/188
f 186/186/186 189/189/189 188/188/188
f 196/196/196 552/552/552 197/197/197
f 200/200/200 553/553/553 198/198/198
f 201/201/201 203/203/203 553/553/553
f 199/199/199 198/198/198 552/552/552
f 205/205/205 202/202/202 207/207/207
f 208/208/208 210/210/210 206/206/206
f 211/211/211 213/213/213 214/214/214
f 212/212/212 215/215/215 213/213/213
f 209/209/209 214/214/214 210/210/210
f 217/217/217 222/222/222 218/218/218
f 216/216/216 218/218/218 215/215/215
f 220/220/220 219/219/219 222/222/222
f 227/227/227 554/554/554 228/228/228
f 231/231/231 233/233/233 229/229/229
f 232/232/232 555/555/555 233/233/233
f 232/232/232 235/235/235 555/555/555
f 230/230/230 229/229/229 554/554/554
f 237/237/237 234/234/234 239/239/239
f 240/240/240 242/242/242 238/238/238
f 244/244/244 556/556/556 243/243/243
f 241/241/241 243/243/243 242/242/242
f 246/246/246 251/251/251 247/247/247
f 245/245/245 247/247/247 556/556/556
f 249/249/249 248/248/248 251/251/251
f 256/256/256 255/255/255 262/262/262
f 281/281/281 278/278/278 274/274/274
f 282/282/282 284/284/284 290/290/290
f 291/291/291 286/286/286 285/285/285
f 300/300/300 301/301/301 303/303/303
f 304/304/304 557/557/557 305/305/305
f 317/317/317 319/319/319 318/318/318
f 356/356/356 357/357/357 353/353/353
f 381/381/381 367/367/367 366/366/366
f 344/344/344 369/369/369 368/368/368
f 398/398/398 403/403/403 405/405/405
f 388/388/388 400/400/400 386/386/386
f 405/405/405 397/397/397 396/396/396
f 432/432/432 436/436/436 442/442/442
f 528/528/528 536/536/536 529/529/529
f 131/131/131 123/123/123 108/108/108
f 159/159/159 144/144/144 145/145/145
f 190/190/190 181/181/181 179/179/179
f 265/265/265 257/257/257 258/258/258
f 273/273/273 272/272/272 258/258/258
f 281/281/281 279/279/279 280/280/280
f 286/286/286 287/287/287 285/285/285
f 293/293/293 276/276/276 277/277/277
f 299/299/299 296/296/296 298/298/298
f 312/312/312 308/308/308 306/306/306
f 311/311/311 309/309/309 310/310/310
f 309/309/309 308/308/308 312/312/312
f 315/315/315 313/313/313 314/314/314
f 316/316/316 317/317/317 318/318/318
f 319/319/319 320/320/320 318/318/318
f 322/322/322 321/321/321 315/315/315
f 314/314/314 323/323/323 311/311/311
f 325/325/325 326/326/326 327/327/327
f 330/330/330 328/328/328 329/329/329
f 332/332/332 333/333/333 331/331/331
f 329/329/329 327/327/327 326/326/326
f 335/335/335 336/336/336 334/334/334
f 338/338/338 339/339/339 337/337/337
f 341/341/341 339/339/339 340/340/340
f 342/342/342 337/337/337 336/336/336
f 343/343/343 334/334/334 333/333/333
f 349/349/349 347/347/347 348/348/348
f 351/351/351 350/350/350 349/349/349
f 360/360/360 358/358/358 359/359/359
f 363/363/363 355/355/355 354/354/354
f 348/348/348 361/361/361 360/360/360
f 371/371/371 372/372/372 370/370/370
f 373/373/373 374/374/374 372/372/372
f 379/379/379 380/380/380 374/374/374
f 346/346/346 382/382/382 369/369/369
f 383/383/383 375/375/375 380/380/380
f 390/390/390 388/388/388 386/386/386
f 389/389/389 388/388/388 390/390/390
f 445/445/445 443/443/443 444/444/444
f 443/443/443 446/446/446 447/447/447
f 453/453/453 450/450/450 451/451/451
f 455/455/455 456/456/456 457/457/457
f 483/483/483 481/481/481 482/482/482
f 497/497/497 496/496/496 494/494/494
f 512/512/512 510/510/510 511/511/511
f 519/519/519 516/516/516 518/518/518
f 531/531/531 532/532/532 530/530/530
f 538/538/538 539/539/539 535/535/535
f 398/398/398 405/405/405 396/396/396

