mtllib material.mtl
usemtl Material-7011油漆.004
v 0.03753700 0.11533700 -0.26452800
v -0.00258700 0.11533700 -0.20983300
v 0.03201100 0.11533700 -0.27440000
v 0.03937200 0.11533700 -0.24163700
v 0.01965900 0.11533700 -0.21487800
v 0.04009700 0.11533700 -0.25350800
v 0.00910800 0.11533700 -0.21079400
v -0.01396200 0.11533700 -0.21224900
v 0.02395600 0.11533700 -0.28234400
v -0.03753700 0.11533700 -0.23547200
v -0.00910800 0.11533700 -0.28920600
v 0.00258700 0.11533700 -0.29016700
v -0.02395600 0.11533700 -0.21765600
v 0.01396200 0.11533700 -0.28775100
v -0.02865600 0.11533700 -0.27826400
v -0.01965900 0.11533700 -0.28512200
v -0.03937200 0.11533700 -0.25836300
v -0.04009700 0.11533700 -0.24649200
v -0.03201100 0.11533700 -0.22560000
v 0.03539000 0.11533700 -0.23082700
v 0.02865600 0.11533700 -0.22173600
v -0.03539000 0.11533700 -0.26917300
v 0.03995000 0.11733700 -0.24509500
v 0.03937200 0.11533700 -0.24163700
v 0.04009700 0.11533700 -0.25350800
v 0.03805700 0.11733700 -0.23689600
v 0.03539000 0.11533700 -0.23082700
v 0.02865600 0.11533700 -0.22173600
v 0.02943700 0.11733700 -0.22255000
v 0.02308600 0.11733700 -0.21702900
v 0.03450100 0.11733700 -0.22927000
v 0.01965900 0.11533700 -0.21487800
v 0.01572700 0.11733700 -0.21295000
v 0.00910800 0.11533700 -0.21079400
v -0.00070200 0.11733700 -0.20975600
v -0.00258700 0.11533700 -0.20983300
v -0.00905400 0.11733700 -0.21078200
v -0.01396200 0.11533700 -0.21224900
v -0.01701000 0.11733700 -0.21352100
v -0.02395600 0.11533700 -0.21765600
v -0.03201100 0.11533700 -0.22560000
v -0.03037700 0.11733700 -0.22359400
v -0.03520300 0.11733700 -0.23048600
v -0.02422300 0.11733700 -0.21785500
v -0.03753700 0.11533700 -0.23547200
v -0.03849100 0.11733700 -0.23823200
v -0.04009700 0.11533700 -0.24649200
v -0.03995000 0.11733700 -0.25490500
v -0.03937200 0.11533700 -0.25836300
v -0.04009700 0.11533700 -0.24649200
v -0.03805700 0.11733700 -0.26310400
v -0.03539000 0.11533700 -0.26917300
v -0.02865600 0.11533700 -0.27826400
v -0.02943700 0.11733700 -0.27745000
v -0.02308600 0.11733700 -0.28297100
v -0.03450100 0.11733700 -0.27073000
v -0.01965900 0.11533700 -0.28512200
v -0.01572700 0.11733700 -0.28705000
v -0.00910800 0.11533700 -0.28920600
v 0.00072200 0.11731900 -0.29024300
v 0.00258700 0.11533700 -0.29016700
v 0.00905400 0.11733700 -0.28921800
v 0.01396200 0.11533700 -0.28775100
v 0.01701000 0.11733700 -0.28647900
v 0.02395600 0.11533700 -0.28234400
v 0.03201100 0.11533700 -0.27440000
v 0.03037700 0.11733700 -0.27640600
v 0.03520300 0.11733700 -0.26951400
v 0.02422300 0.11733700 -0.28214500
v 0.03753700 0.11533700 -0.26452800
v 0.03849100 0.11733700 -0.26176800
v 0.04009700 0.11533700 -0.25350800
v 0.00020900 0.12164300 -0.28986400
v 0.00020900 0.12164300 -0.28986400
v -0.00522800 0.12118500 -0.28943500
v 0.00018600 0.12276000 -0.28990500
v 0.00018600 0.12276000 -0.28990500
v 0.00196900 0.12698100 -0.29002400
v 0.00196900 0.12698100 -0.29002400
v 0.00178100 0.13958500 -0.28998000
v 0.00178100 0.13958500 -0.28998000
v 0.00278400 0.13836300 -0.29009500
v 0.00278400 0.13836300 -0.29009500
v 0.00275600 0.12549400 -0.29008500
v -0.00873900 0.12515200 -0.28907800
v -0.00873900 0.12515200 -0.28907800
v -0.00873900 0.12515200 -0.28907800
v -0.00827700 0.12293400 -0.28912800
v -0.00827700 0.12293400 -0.28912800
v -0.00969600 0.12573600 -0.28900300
v -0.00969600 0.12573600 -0.28900300
v -0.00969600 0.12573600 -0.28900300
v -0.00967600 0.13893900 -0.28900700
v -0.00886400 0.13880800 -0.28907400
v -0.00886400 0.13880800 -0.28907400
v 0.00146400 0.14174700 -0.28998600
v -0.00218000 0.14330000 -0.28966800
v -0.00218000 0.14330000 -0.28966800
v -0.00321200 0.14430700 -0.28955800
v -0.00775200 0.14245600 -0.28915600
v -0.00706200 0.14193100 -0.28923600
v -0.00218000 0.14330000 -0.28966800
v -0.00187700 0.14235800 -0.28883300
v -0.00646700 0.14169300 -0.28841000
v -0.00832600 0.13976900 -0.28832500
v -0.00706200 0.14193100 -0.28923600
v -0.00646700 0.14169300 -0.28841000
v 0.00191200 0.13851800 -0.28935700
v 0.00178100 0.13958500 -0.28998000
v 0.00196900 0.12698100 -0.29002400
v 0.00162300 0.12521900 -0.28917900
v 0.00196900 0.12698100 -0.29002400
v 0.00018600 0.12276000 -0.28990500
v -0.00875300 0.12618200 -0.28847800
v -0.00875300 0.12618200 -0.28847800
v -0.00873900 0.12515200 -0.28907800
v -0.00886400 0.13880800 -0.28907400
v -0.00886400 0.13880800 -0.28907400
v -0.00832600 0.13976900 -0.28832500
v -0.00785500 0.13880900 -0.28865700
v -0.00832600 0.13976900 -0.28832500
v -0.00646700 0.14169300 -0.28841000
v -0.00691800 0.14041500 -0.28894500
v -0.00809500 0.12440300 -0.28832500
v -0.00875300 0.12618200 -0.28847800
v -0.00832600 0.13976900 -0.28832500
v -0.00785500 0.13880900 -0.28865700
v -0.00785200 0.12643200 -0.28886400
v -0.00521000 0.12288600 -0.28909300
v -0.00547300 0.12245800 -0.28851400
v -0.00809500 0.12440300 -0.28832500
v -0.00399400 0.12195800 -0.28865900
v -0.00522800 0.12118500 -0.28943500
v -0.00246800 0.12252100 -0.28933500
v -0.00336600 0.14230300 -0.28926000
v -0.00646700 0.14169300 -0.28841000
v -0.00187700 0.14235800 -0.28883300
v 0.00135700 0.14018900 -0.28917100
v 0.00191200 0.13851800 -0.28935700
v 0.00162300 0.12521900 -0.28917900
v 0.00095400 0.13876400 -0.28958900
v 0.00091500 0.12559100 -0.28958400
v -0.00033600 0.12324000 -0.28905800
v -0.00033600 0.12324000 -0.28905800
v -0.00113900 0.12218500 -0.28899600
v -0.00399400 0.12195800 -0.28865900
v 0.00091500 0.12559100 -0.28958400
v 0.00162300 0.12521900 -0.28917900
v -0.00336600 0.14230300 -0.28926000
v -0.00336600 0.14230300 -0.28926000
v -0.00246800 0.12252100 -0.28933500
v -0.00246800 0.12252100 -0.28933500
v -0.00521000 0.12288600 -0.28909300
v -0.00521000 0.12288600 -0.28909300
v 0.00091500 0.12559100 -0.28958400
v 0.00091500 0.12559100 -0.28958400
v 0.00135700 0.14018900 -0.28917100
v 0.00095400 0.13876400 -0.28958900
v 0.00095400 0.13876400 -0.28958900
v -0.00785200 0.12643200 -0.28886400
v -0.00691800 0.14041500 -0.28894500
v -0.00691800 0.14041500 -0.28894500
v -0.00187700 0.14235800 -0.28883300
v -0.00646700 0.14169300 -0.28841000
v -0.00785500 0.13880900 -0.28865700
v -0.00809500 0.12440300 -0.28832500
v -0.02487800 0.14845000 -0.28164100
v -0.03083300 0.14845000 -0.27587200
v -0.03083300 0.14845000 -0.27587200
v -0.01079300 0.14845000 -0.21116200
v -0.01079300 0.14845000 -0.21116200
v -0.01074600 0.14845000 -0.28878900
v -0.01521500 0.14845000 -0.21268800
v -0.01521500 0.14845000 -0.21268800
v -0.01521500 0.14845000 -0.21268800
v -0.04009700 0.14845000 -0.24649200
v -0.04009700 0.14845000 -0.24649200
v 0.02587200 0.14845000 -0.28083300
v 0.01149800 0.14845000 -0.28857300
v 0.04018200 0.14845000 -0.24765700
v -0.00350800 0.14845000 -0.29009700
v 0.03141100 0.14845000 -0.22483200
v 0.01740800 0.14845000 -0.21363100
v -0.03916400 0.14845000 -0.24071500
v -0.03732700 0.14845000 -0.23494200
v -0.03457000 0.14845000 -0.22938500
v -0.03094300 0.14845000 -0.22426000
v -0.03548000 0.14845000 -0.26900500
v -0.03857300 0.14845000 -0.26149800
v -0.04006600 0.14845000 -0.25384700
v -0.02656400 0.14845000 -0.21976000
v -0.02160100 0.14845000 -0.21603700
v -0.02160100 0.14845000 -0.21603700
v -0.01802100 0.14845000 -0.28599000
v 0.02177400 0.14837000 -0.21606000
v 0.02717100 0.14845000 -0.22030500
v 0.00384700 0.14845000 -0.29006600
v 0.01900500 0.14845000 -0.28548000
v 0.03762500 0.14845000 -0.23570200
v 0.03494300 0.14845000 -0.23002400
v 0.03937500 0.14845000 -0.24165300
v 0.03599000 0.14845000 -0.26802100
v 0.03878900 0.14845000 -0.26074600
v 0.03164100 0.14845000 -0.27487800
v 0.04009700 0.14845000 -0.25350800
v 0.03141100 0.14845000 -0.22483200
v 0.03016100 0.14643700 -0.22334700
v 0.03491000 0.14643700 -0.22996600
v 0.02717100 0.14845000 -0.22030500
v 0.03494300 0.14845000 -0.23002400
v 0.03762500 0.14845000 -0.23570200
v 0.04018200 0.14845000 -0.24765700
v 0.03937500 0.14845000 -0.24165300
v 0.03994800 0.14637400 -0.24536100
v 0.04009700 0.14643700 -0.25350800
v 0.03822900 0.14643700 -0.23740600
v 0.03878900 0.14845000 -0.26074600
v 0.03849100 0.14643700 -0.26176800
v 0.03599000 0.14845000 -0.26802100
v 0.03520300 0.14643700 -0.26951400
v 0.03164100 0.14845000 -0.27487800
v 0.02587200 0.14845000 -0.28083300
v 0.02422300 0.14643700 -0.28214500
v 0.01900500 0.14845000 -0.28548000
v 0.01701000 0.14643700 -0.28647900
v 0.01149800 0.14845000 -0.28857300
v 0.03037700 0.14643700 -0.27640600
v 0.04009700 0.14845000 -0.25350800
v 0.00905400 0.14643700 -0.28921800
v 0.00384700 0.14845000 -0.29006600
v 0.01740800 0.14845000 -0.21363100
v 0.01720100 0.14643700 -0.21361100
v 0.02177400 0.14837000 -0.21606000
v 0.02417600 0.14643700 -0.21782000
v 0.00071800 0.14644700 -0.29024300
v -0.00350800 0.14845000 -0.29009700
v -0.01074600 0.14845000 -0.28878900
v -0.00768100 0.14645100 -0.28951000
v -0.01802100 0.14845000 -0.28599000
v -0.01572700 0.14643700 -0.28705000
v -0.02308600 0.14643700 -0.28297100
v -0.02487800 0.14845000 -0.28164100
v -0.02943700 0.14643700 -0.27745000
v -0.03548000 0.14845000 -0.26900500
v -0.03450100 0.14643700 -0.27073000
v -0.03805700 0.14643700 -0.26310400
v -0.03857300 0.14845000 -0.26149800
v -0.03995000 0.14643700 -0.25490500
v -0.04009700 0.14845000 -0.24649200
v -0.04009700 0.14643700 -0.24649200
v -0.03916400 0.14845000 -0.24071500
v -0.03732700 0.14845000 -0.23494200
v -0.03857100 0.14638500 -0.23860500
v -0.04006600 0.14845000 -0.25384700
v -0.03083300 0.14845000 -0.27587200
v -0.03457000 0.14845000 -0.22938500
v -0.03546100 0.14643700 -0.23095900
v -0.03090100 0.14643700 -0.22420900
v -0.02160100 0.14845000 -0.21603700
v -0.02656400 0.14845000 -0.21976000
v -0.02507500 0.14643700 -0.21851500
v -0.03094300 0.14845000 -0.22426000
v -0.01822100 0.14643700 -0.21411000
v -0.01521500 0.14845000 -0.21268800
v -0.01025100 0.14599500 -0.21120700
v -0.01079300 0.14845000 -0.21116200
v -0.01657600 0.14319200 -0.21442700
v -0.01635800 0.14156200 -0.21487200
v -0.01025100 0.14599500 -0.21120700
v -0.03857100 0.14638500 -0.23860500
v -0.03695300 0.13994100 -0.24012000
v -0.03472700 0.13995200 -0.23396400
v -0.00293200 0.13974200 -0.21185100
v -0.00910800 0.13993700 -0.21285000
v -0.01539300 0.13993700 -0.21498400
v -0.02679600 0.13993700 -0.22270500
v -0.02139700 0.13993700 -0.21829400
v -0.03557900 0.14318700 -0.23342500
v -0.03130600 0.13993700 -0.22802400
v -0.01822100 0.14643700 -0.21411000
v -0.02507500 0.14643700 -0.21851500
v -0.03090100 0.14643700 -0.22420900
v -0.03546100 0.14643700 -0.23095900
v -0.03810700 0.13992700 -0.24661900
v -0.03791700 0.14045400 -0.24367500
v -0.04009700 0.14643700 -0.24649200
v -0.00963600 0.13984000 -0.28700400
v -0.01795200 0.14318700 -0.28490400
v -0.01107500 0.14550400 -0.28839700
v -0.01908300 0.14004800 -0.28316500
v -0.01818000 0.14481200 -0.28534900
v -0.00731600 0.14265100 -0.28839000
v -0.00768100 0.14645100 -0.28951000
v 0.01311800 0.14000100 -0.28593800
v 0.00444900 0.14162800 -0.28852000
v 0.01227300 0.14318700 -0.28728200
v 0.00071800 0.14644700 -0.29024300
v 0.00457900 0.14548000 -0.28969100
v 0.00067800 0.14259900 -0.28905900
v -0.00321200 0.14430700 -0.28955800
v 0.01242900 0.14481200 -0.28775700
v -0.03728200 0.14318700 -0.26227300
v -0.03752300 0.13993700 -0.25742400
v -0.03810700 0.13992700 -0.24661900
v -0.02771100 0.13993700 -0.27636600
v -0.03396400 0.13993700 -0.26759300
v -0.03450100 0.14643700 -0.27073000
v -0.02943700 0.14643700 -0.27745000
v -0.04009700 0.14643700 -0.24649200
v -0.03995000 0.14643700 -0.25490500
v -0.03805700 0.14643700 -0.26310400
v -0.01572700 0.14643700 -0.28705000
v -0.02308600 0.14643700 -0.28297100
v 0.00259000 0.14027600 -0.28817300
v 0.03490400 0.14318700 -0.26795200
v 0.03566300 0.13993700 -0.26382700
v 0.03039300 0.13993700 -0.27322300
v 0.03823900 0.13977300 -0.25256300
v 0.02271200 0.13993700 -0.28077700
v 0.04009700 0.14643700 -0.25350800
v 0.02422300 0.14643700 -0.28214500
v 0.00905400 0.14643700 -0.28921800
v 0.01701000 0.14643700 -0.28647900
v 0.03520300 0.14643700 -0.26951400
v 0.03037700 0.14643700 -0.27640600
v 0.03849100 0.14643700 -0.26176800
v -0.03825900 0.12390600 -0.24815500
v -0.04009700 0.11733700 -0.24649200
v -0.03699500 0.12383600 -0.24025400
v -0.03520300 0.11733700 -0.23048600
v -0.03150000 0.12383700 -0.22830200
v -0.03487100 0.12383700 -0.23428100
v -0.03849100 0.11733700 -0.23823200
v -0.02699300 0.12383700 -0.22290000
v -0.03037700 0.11733700 -0.22359400
v -0.02422300 0.11733700 -0.21785500
v -0.01538200 0.12383700 -0.21497900
v -0.01701000 0.11733700 -0.21352100
v -0.00905400 0.11733700 -0.21078200
v -0.02152700 0.12383700 -0.21838300
v -0.00070200 0.11733700 -0.20975600
v -0.00239500 0.12383700 -0.21182500
v 0.00333400 0.12383700 -0.21189600
v 0.00768000 0.11733700 -0.21049000
v 0.00898800 0.12383700 -0.21282100
v 0.01521700 0.12383700 -0.21490700
v 0.01572700 0.11733700 -0.21295000
v 0.02122900 0.12383700 -0.21818200
v 0.02669100 0.12383700 -0.22260200
v 0.02943700 0.11733700 -0.22255000
v 0.03128900 0.12383700 -0.22799900
v 0.03805700 0.11733700 -0.23689600
v 0.03707100 0.12383700 -0.24057500
v 0.03478900 0.12383700 -0.23410100
v 0.03995000 0.11733700 -0.24509500
v 0.03450100 0.11733700 -0.22927000
v 0.02308600 0.11733700 -0.21702900
v 0.04009700 0.11733700 -0.25350800
v 0.03809100 0.12383800 -0.25364800
v 0.03813800 0.12383600 -0.24707400
v 0.03458400 0.12058700 -0.26856000
v 0.03414400 0.12221200 -0.26832400
v 0.03725300 0.12213100 -0.26082100
v 0.01477400 0.12383900 -0.28527600
v 0.01855200 0.12139500 -0.28429800
v 0.01115000 0.11925000 -0.28809300
v 0.00412700 0.11930000 -0.28942600
v 0.00175100 0.12307200 -0.28845100
v 0.00801900 0.12375800 -0.28742700
v 0.00072200 0.11731900 -0.29024300
v -0.00296900 0.12064300 -0.28919400
v -0.01683300 0.12168900 -0.28519700
v -0.00897100 0.12398400 -0.28719400
v -0.01116200 0.11927600 -0.28804400
v -0.01494800 0.12382700 -0.28521000
v -0.00692800 0.12165500 -0.28833700
v -0.00771000 0.11731600 -0.28950400
v -0.01879700 0.11896200 -0.28502500
v -0.03031500 0.12058700 -0.27493100
v -0.02992900 0.12221200 -0.27461400
v -0.02478500 0.12131500 -0.28013300
v 0.04009700 0.11733700 -0.25350800
v 0.03722900 0.12389500 -0.25898900
v 0.03809100 0.12383800 -0.25364800
v 0.03467400 0.12383700 -0.26615000
v 0.02658600 0.12383700 -0.27749900
v 0.03118500 0.12383700 -0.27214800
v 0.02461400 0.12221200 -0.27992900
v 0.02108500 0.12383700 -0.28191400
v 0.03849100 0.11733700 -0.26176800
v 0.02493100 0.12058700 -0.28031500
v 0.02422300 0.11733700 -0.28214500
v 0.03520300 0.11733700 -0.26951400
v 0.03037700 0.11733700 -0.27640600
v 0.01701000 0.11733700 -0.28647900
v 0.00905400 0.11733700 -0.28921800
v -0.02630600 0.12383700 -0.27776800
v -0.02086100 0.12383700 -0.28206100
v -0.03095800 0.12383700 -0.27246500
v -0.03701400 0.12221200 -0.26147000
v -0.03455700 0.12383700 -0.26639700
v -0.03695100 0.12383700 -0.25988300
v -0.03812100 0.12390200 -0.25335100
v -0.02308600 0.11733700 -0.28297100
v -0.02943700 0.11733700 -0.27745000
v -0.04009700 0.11733700 -0.24649200
v -0.03825900 0.12390600 -0.24815500
v -0.03749100 0.12058700 -0.26161800
v -0.03805700 0.11733700 -0.26310400
v -0.03995000 0.11733700 -0.25490500
v -0.03450100 0.11733700 -0.27073000
v -0.01572700 0.11733700 -0.28705000
v 0.03778600 0.14318700 -0.23938200
v 0.03730500 0.14156200 -0.23951700
v 0.03994800 0.14637400 -0.24536100
v 0.03823900 0.13977300 -0.25256300
v 0.03811500 0.13987800 -0.24681400
v 0.04009700 0.14643700 -0.25350800
v 0.03464700 0.13993700 -0.23379400
v 0.03698500 0.13993700 -0.24024500
v 0.03112900 0.13993700 -0.22777300
v 0.02657700 0.13993700 -0.22249200
v 0.02181000 0.14156200 -0.21797100
v 0.00943100 0.13993700 -0.21293100
v 0.01546600 0.13993700 -0.21501300
v 0.01255200 0.14194300 -0.21320400
v 0.02123900 0.13993700 -0.21818900
v 0.02209200 0.14318700 -0.21755800
v 0.03491000 0.14643700 -0.22996600
v 0.03822900 0.14643700 -0.23740600
v 0.03016100 0.14643700 -0.22334700
v 0.02417600 0.14643700 -0.21782000
v 0.01720100 0.14643700 -0.21361100
v 0.01255200 0.14194300 -0.21320400
v 0.01255200 0.14194300 -0.21320400
v 0.01255200 0.14194300 -0.21320400
v 0.01720100 0.14643700 -0.21361100
v 0.01720100 0.14643700 -0.21361100
v -0.01025100 0.14599500 -0.21120700
v 0.00943100 0.13993700 -0.21293100
v 0.00636100 0.13993700 -0.21266200
v 0.00636100 0.13993700 -0.21266200
v 0.00329000 0.13993700 -0.21239400
v 0.00329000 0.13993700 -0.21239400
v 0.01740800 0.14845000 -0.21363100
v -0.01079300 0.14845000 -0.21116200
v -0.01079300 0.14845000 -0.21116200
v -0.00293200 0.13974200 -0.21185100
v -0.00293200 0.13974200 -0.21185100
v -0.03699500 0.12383600 -0.24025400
v -0.03774700 0.13840100 -0.24374900
v -0.03779300 0.12546000 -0.24398300
v -0.03810700 0.13992700 -0.24661900
v -0.03825900 0.12390600 -0.24815500
v -0.03695300 0.13994100 -0.24012000
v -0.02699300 0.12383700 -0.22290000
v -0.02679600 0.13993700 -0.22270500
v -0.03130600 0.13993700 -0.22802400
v -0.03150000 0.12383700 -0.22830200
v -0.03472700 0.13995200 -0.23396400
v -0.00889200 0.12383700 -0.21279800
v -0.00910800 0.13993700 -0.21285000
v -0.01538200 0.12383700 -0.21497900
v -0.00239500 0.12383700 -0.21182500
v -0.00262900 0.13211000 -0.21184100
v -0.01539300 0.13993700 -0.21498400
v -0.02139700 0.13993700 -0.21829400
v -0.02152700 0.12383700 -0.21838300
v -0.00293200 0.13974200 -0.21185100
v -0.03487100 0.12383700 -0.23428100
v 0.00333400 0.12383700 -0.21189600
v 0.00331200 0.13188700 -0.21214500
v -0.00239500 0.12383700 -0.21182500
v -0.00293200 0.13974200 -0.21185100
v -0.00262900 0.13211000 -0.21184100
v 0.00329000 0.13993700 -0.21239400
v 0.00921600 0.13211000 -0.21287700
v 0.00636100 0.13993700 -0.21266200
v 0.00898800 0.12383700 -0.21282100
v 0.00333400 0.12383700 -0.21189600
v 0.00329000 0.13993700 -0.21239400
v 0.00331200 0.13188700 -0.21214500
v 0.00943100 0.13993700 -0.21293100
v 0.03813800 0.12383600 -0.24707400
v 0.03825800 0.12495800 -0.25054600
v 0.03811500 0.13987800 -0.24681400
v 0.03703700 0.13179800 -0.24043800
v 0.03823900 0.13977300 -0.25256300
v 0.03701200 0.13588000 -0.24034700
v 0.01521700 0.12383700 -0.21490700
v 0.02122900 0.12383700 -0.21818200
v 0.02129700 0.13192400 -0.21822800
v 0.02669100 0.12383700 -0.22260200
v 0.03128900 0.12383700 -0.22799900
v 0.03478900 0.12383700 -0.23410100
v 0.03707100 0.12383700 -0.24057500
v 0.03809100 0.12383800 -0.25364800
v 0.00921600 0.13211000 -0.21287700
v 0.03112900 0.13993700 -0.22777300
v 0.00898800 0.12383700 -0.21282100
v 0.03698500 0.13993700 -0.24024500
v 0.02657700 0.13993700 -0.22249200
v 0.01546600 0.13993700 -0.21501300
v 0.02123900 0.13993700 -0.21818900
v 0.03464700 0.13993700 -0.23379400
v 0.00943100 0.13993700 -0.21293100
v -0.00775200 0.14245600 -0.28915600
v -0.00731600 0.14265100 -0.28839000
v -0.00321200 0.14430700 -0.28955800
v -0.00963600 0.13984000 -0.28700400
v -0.00967600 0.13893900 -0.28900700
v -0.00963600 0.13984000 -0.28700400
v -0.00967600 0.13893900 -0.28900700
v -0.00969600 0.12573600 -0.28900300
v -0.00969000 0.12602900 -0.28700600
v -0.00692800 0.12165500 -0.28833700
v -0.00897100 0.12398400 -0.28719400
v -0.00827700 0.12293400 -0.28912800
v -0.00969600 0.12573600 -0.28900300
v -0.00969000 0.12602900 -0.28700600
v -0.00522800 0.12118500 -0.28943500
v -0.00296900 0.12064300 -0.28919400
v 0.00020900 0.12164300 -0.28986400
v 0.00175100 0.12307200 -0.28845100
v -0.00296900 0.12064300 -0.28919400
v -0.00522800 0.12118500 -0.28943500
v 0.00311600 0.12605000 -0.28812600
v 0.00275600 0.12549400 -0.29008500
v 0.00275600 0.12549400 -0.29008500
v 0.00313200 0.13832300 -0.28813800
v 0.00311600 0.12605000 -0.28812600
v 0.00278400 0.13836300 -0.29009500
v 0.00278400 0.13836300 -0.29009500
v 0.00259000 0.14027600 -0.28817300
v 0.00313200 0.13832300 -0.28813800
v 0.00067800 0.14259900 -0.28905900
v 0.00146400 0.14174700 -0.28998600
v -0.00321200 0.14430700 -0.28955800
v -0.00969000 0.12602900 -0.28700600
v -0.00897100 0.12398400 -0.28719400
v -0.01494800 0.12382700 -0.28521000
v -0.02630600 0.12383700 -0.27776800
v -0.02771100 0.13993700 -0.27636600
v -0.01908300 0.14004800 -0.28316500
v -0.03695100 0.12383700 -0.25988300
v -0.03812500 0.13555200 -0.25319600
v -0.03752300 0.13993700 -0.25742400
v -0.03095800 0.12383700 -0.27246500
v -0.03812100 0.12390200 -0.25335100
v -0.03396400 0.13993700 -0.26759300
v -0.03825900 0.12390600 -0.24815500
v -0.01440700 0.13594500 -0.28551500
v -0.02086100 0.12383700 -0.28206100
v -0.03455700 0.12383700 -0.26639700
v -0.03826200 0.13825100 -0.24925500
v -0.00963600 0.13984000 -0.28700400
v -0.03810700 0.13992700 -0.24661900
v -0.03825900 0.12390600 -0.24815500
v 0.03722900 0.12389500 -0.25898900
v 0.03692600 0.13557300 -0.26001200
v 0.03777100 0.13824800 -0.25610100
v 0.03809100 0.12383800 -0.25364800
v 0.03118500 0.12383700 -0.27214800
v 0.03039300 0.13993700 -0.27322300
v 0.03467400 0.12383700 -0.26615000
v 0.02658600 0.12383700 -0.27749900
v 0.01477400 0.12383900 -0.28527600
v 0.00819900 0.13646500 -0.28741100
v 0.01311800 0.14000100 -0.28593800
v 0.00175100 0.12307200 -0.28845100
v 0.00311600 0.12605000 -0.28812600
v 0.00801900 0.12375800 -0.28742700
v 0.02108500 0.12383700 -0.28191400
v 0.02271200 0.13993700 -0.28077700
v 0.03566300 0.13993700 -0.26382700
v 0.00313200 0.13832300 -0.28813800
v 0.03823900 0.13977300 -0.25256300
v 0.00259000 0.14027600 -0.28817300
v -0.00218000 0.14330000 -0.28966800
v -0.00646700 0.14169300 -0.28841000
v -0.00706200 0.14193100 -0.28923600
v -0.00218000 0.14330000 -0.28966800
v 0.00178100 0.13958500 -0.28998000
v 0.00135700 0.14018900 -0.28917100
v -0.00873900 0.12515200 -0.28907800
v -0.00809500 0.12440300 -0.28832500
v -0.00522800 0.12118500 -0.28943500
v 0.00018600 0.12276000 -0.28990500
v -0.00522800 0.12118500 -0.28943500
v -0.00113900 0.12218500 -0.28899600
v 0.00018600 0.12276000 -0.28990500
v -0.00033600 0.12324000 -0.28905800
v 0.00162300 0.12521900 -0.28917900
v -0.00522800 0.12118500 -0.28943500
v -0.00399400 0.12195800 -0.28865900
v -0.00113900 0.12218500 -0.28899600
v -0.00218000 0.14330000 -0.28966800
v 0.00135700 0.14018900 -0.28917100
v -0.00187700 0.14235800 -0.28883300
v 0.00018600 0.12276000 -0.28990500
v -0.00113900 0.12218500 -0.28899600
v -0.00033600 0.12324000 -0.28905800
v 0.00178100 0.13958500 -0.28998000
v 0.00191200 0.13851800 -0.28935700
v 0.00135700 0.14018900 -0.28917100
v -0.00873900 0.12515200 -0.28907800
v -0.00875300 0.12618200 -0.28847800
v -0.00809500 0.12440300 -0.28832500
v 0.04009700 0.11733700 -0.25350800
v 0.00768000 0.11733700 -0.21049000
v -0.04009700 0.11733700 -0.24649200
v -0.04009700 0.11733700 -0.24649200
v -0.00771000 0.11731600 -0.28950400
v 0.04009700 0.11733700 -0.25350800
v -0.00886400 0.13880800 -0.28907400
v 0.00162300 0.12521900 -0.28917900
v -0.00246800 0.12252100 -0.28933500
v -0.00033600 0.12324000 -0.28905800
v -0.00889200 0.12383700 -0.21279800
vn 0.00000000 -1.00000000 0.00000000
vn 0.00000000 -1.00000000 0.00000000
vn 0.00000000 -1.00000000 0.00000000
vn 0.00000000 -1.00000000 0.00000000
vn 0.00000000 -1.00000000 0.00000000
vn 0.00000000 -1.00000000 0.00000000
vn 0.00000000 -1.00000000 0.00000000
vn 0.00000000 -1.00000000 0.00000000
vn 0.00000000 -1.00000000 0.00000000
vn 0.00000000 -1.00000000 0.00000000
vn 0.00000000 -1.00000000 0.00000000
vn 0.00000000 -1.00000000 0.00000000
vn 0.00000000 -1.00000000 0.00000000
vn 0.00000000 -1.00000000 0.00000000
vn 0.00000000 -1.00000000 0.00000000
vn 0.00000000 -1.00000000 0.00000000
vn 0.00000000 -1.00000000 0.00000000
vn 0.00000000 -1.00000000 0.00000000
vn 0.00000000 -1.00000000 0.00000000
vn 0.00000000 -1.00000000 0.00000000
vn 0.00000000 -1.00000000 0.00000000
vn 0.00000000 -1.00000000 0.00000000
vn 0.99250000 -0.00000000 0.12190000
vn 0.97820000 -0.00000000 0.20780000
vn 0.99620000 0.00000000 -0.08720000
vn 0.94550000 -0.00000000 0.32560000
vn 0.87930000 0.00000000 0.47630000
vn 0.71200000 0.00000000 0.70220000
vn 0.73140000 -0.00000000 0.68200000
vn 0.57360000 0.00000000 0.81920000
vn 0.85720000 0.00000000 0.51500000
vn 0.48840000 -0.00000000 0.87260000
vn 0.39070000 0.00000000 0.92050000
vn 0.22630000 0.00000000 0.97410000
vn -0.01750000 0.00000000 0.99980000
vn -0.06430000 0.00000000 0.99790000
vn -0.22500000 -0.00000000 0.97440000
vn -0.34690000 0.00000000 0.93790000
vn -0.42260000 -0.00000000 0.90630000
vn -0.59520000 0.00000000 0.80360000
vn -0.79530000 0.00000000 0.60620000
vn -0.75470000 -0.00000000 0.65610000
vn -0.87460000 -0.00000000 0.48480000
vn -0.60180000 0.00000000 0.79860000
vn -0.93260000 -0.00000000 0.36090000
vn -0.95630000 -0.00000000 0.29240000
vn -0.99620000 0.00000000 0.08710000
vn -0.99250000 -0.00000000 -0.12190000
vn -0.97820000 0.00000000 -0.20780000
vn -0.99620000 0.00000000 0.08720000
vn -0.94550000 -0.00000000 -0.32560000
vn -0.87930000 0.00000000 -0.47630000
vn -0.71200000 0.00000000 -0.70220000
vn -0.73140000 -0.00000000 -0.68200000
vn -0.57360000 0.00000000 -0.81920000
vn -0.85720000 0.00000000 -0.51500000
vn -0.48840000 -0.00000000 -0.87260000
vn -0.39070000 0.00000000 -0.92050000
vn -0.22630000 -0.00000000 -0.97410000
vn 0.01790000 -0.00000000 -0.99980000
vn 0.06430000 0.00000000 -0.99790000
vn 0.22490000 -0.00000000 -0.97440000
vn 0.34690000 -0.00000000 -0.93790000
vn 0.42260000 0.00000000 -0.90630000
vn 0.59520000 0.00000000 -0.80360000
vn 0.79530000 -0.00000000 -0.60620000
vn 0.75470000 -0.00000000 -0.65610000
vn 0.87460000 -0.00000000 -0.48480000
vn 0.60180000 0.00000000 -0.79860000
vn 0.93260000 -0.00000000 -0.36090000
vn 0.95630000 -0.00000000 -0.29240000
vn 0.99620000 0.00000000 -0.08710000
vn -0.08720000 0.00000000 -0.99620000
vn -0.08710000 0.00000000 -0.99620000
vn -0.08720000 0.00000000 -0.99620000
vn -0.08720000 0.00000000 -0.99620000
vn -0.08710000 0.00000000 -0.99620000
vn -0.08730000 -0.00000000 -0.99620000
vn -0.08710000 0.00000000 -0.99620000
vn -0.08730000 -0.00000000 -0.99620000
vn -0.08710000 0.00000000 -0.99620000
vn -0.08710000 0.00000000 -0.99620000
vn -0.08730000 -0.00000000 -0.99620000
vn -0.08710000 0.00000000 -0.99620000
vn -0.08720000 0.00000000 -0.99620000
vn -0.08700000 -0.00000000 -0.99620000
vn -0.08730000 -0.00000000 -0.99620000
vn -0.08720000 0.00000000 -0.99620000
vn -0.08700000 -0.00000000 -0.99620000
vn -0.08730000 -0.00000000 -0.99620000
vn -0.08720000 0.00000000 -0.99620000
vn -0.08700000 -0.00000000 -0.99620000
vn -0.08720000 0.00000000 -0.99620000
vn -0.08730000 -0.00000000 -0.99620000
vn -0.08720000 0.00000000 -0.99620000
vn -0.08710000 0.00000000 -0.99620000
vn -0.08720000 0.00000000 -0.99620000
vn -0.08710000 0.00000000 -0.99620000
vn -0.08720000 0.00000000 -0.99620000
vn -0.08720000 0.00000000 -0.99620000
vn -0.08720000 0.00000000 -0.99620000
vn -0.19300000 -0.98110000 0.01690000
vn -0.25400000 -0.96690000 0.02220000
vn 0.51440000 -0.85640000 -0.04500000
vn 0.91270000 -0.40070000 -0.07990000
vn 0.64490000 -0.76220000 -0.05650000
vn 0.61810000 -0.78430000 -0.05410000
vn -0.99620000 0.00000000 0.08710000
vn -0.99620000 0.00000000 0.08710000
vn -0.99620000 0.00000000 0.08710000
vn -0.94020000 0.33060000 0.08230000
vn -0.99620000 0.00000000 0.08710000
vn -0.67160000 0.73850000 0.05880000
vn 0.99620000 0.00000000 -0.08720000
vn 0.99620000 0.00000000 -0.08710000
vn 0.99620000 0.00000000 -0.08710000
vn 0.99620000 0.00000000 -0.08710000
vn 0.99620000 0.00000000 -0.08720000
vn 0.99620000 0.00000000 -0.08720000
vn -0.80440000 0.26040000 -0.53400000
vn 0.53400000 -0.26810000 -0.80180000
vn -0.12780000 0.13430000 -0.98270000
vn -0.78030000 0.62160000 0.06840000
vn -0.44920000 0.00000000 -0.89340000
vn 0.75470000 -0.00000000 -0.65610000
vn -0.09040000 0.00000000 -0.99590000
vn -0.93990000 -0.00000000 -0.34160000
vn -0.99600000 -0.00000000 0.08920000
vn -0.42220000 -0.90650000 -0.00600000
vn -0.11780000 -0.00000000 -0.99300000
vn 0.08320000 0.10280000 -0.99120000
vn -0.04810000 0.20750000 -0.97710000
vn 0.40770000 0.80550000 0.43000000
vn 0.16860000 -0.98270000 0.07650000
vn 0.07120000 0.99670000 -0.03820000
vn -0.28280000 0.81640000 -0.50350000
vn 0.04340000 0.23530000 -0.97100000
vn 0.22080000 -0.00000000 -0.97530000
vn -0.78950000 0.00000000 -0.61380000
vn -0.22650000 0.00000000 -0.97400000
vn 0.97730000 -0.00000000 -0.21170000
vn 0.96230000 -0.00000000 -0.27200000
vn 0.22060000 -0.35860000 -0.90710000
vn 0.22050000 -0.35860000 -0.90710000
vn -0.29530000 0.55670000 -0.77640000
vn -0.05420000 -0.54180000 -0.83870000
vn 0.75260000 -0.31580000 -0.57790000
vn -0.62150000 0.15750000 -0.76740000
vn -0.08710000 0.00000000 -0.99620000
vn -0.08720000 0.00000000 -0.99620000
vn -0.08710000 0.00000000 -0.99620000
vn -0.08720000 0.00000000 -0.99620000
vn -0.08710000 0.00000000 -0.99620000
vn -0.08720000 0.00000000 -0.99620000
vn -0.08710000 0.00000000 -0.99620000
vn -0.08720000 0.00000000 -0.99620000
vn -0.08720000 0.00000000 -0.99620000
vn -0.08710000 0.00000000 -0.99620000
vn -0.08720000 0.00000000 -0.99620000
vn -0.08720000 0.00000000 -0.99620000
vn -0.08710000 0.00000000 -0.99620000
vn -0.08720000 0.00000000 -0.99620000
vn -0.08710000 0.00000000 -0.99620000
vn -0.08720000 0.00000000 -0.99620000
vn -0.08720000 0.00000000 -0.99620000
vn -0.08720000 0.00000000 -0.99620000
vn 0.00000000 1.00000000 0.00000000
vn -0.00010000 1.00000000 0.00000000
vn 0.00000000 1.00000000 0.00000000
vn -0.00010000 1.00000000 0.00000000
vn 0.00000000 1.00000000 0.00000000
vn 0.00000000 1.00000000 0.00000000
vn -0.00010000 1.00000000 0.00000000
vn 0.00010000 1.00000000 -0.00000000
vn 0.00000000 1.00000000 0.00000000
vn 0.00000000 1.00000000 0.00000000
vn 0.00010000 1.00000000 -0.00000000
vn 0.00000000 1.00000000 0.00000000
vn 0.00000000 1.00000000 0.00000000
vn 0.00000000 1.00000000 0.00000000
vn 0.00000000 1.00000000 0.00000000
vn 0.00000000 1.00000000 0.00000000
vn 0.00000000 1.00000000 0.00000000
vn 0.00000000 1.00000000 0.00000000
vn 0.00000000 1.00000000 0.00000000
vn 0.00000000 1.00000000 0.00000000
vn 0.00000000 1.00000000 0.00000000
vn 0.00000000 1.00000000 0.00000000
vn 0.00000000 1.00000000 0.00000000
vn 0.00000000 1.00000000 0.00000000
vn 0.00000000 1.00000000 0.00000000
vn 0.00000000 1.00000000 0.00000000
vn 0.00010000 1.00000000 -0.00000000
vn 0.00000000 1.00000000 0.00000000
vn 0.00000000 1.00000000 0.00000000
vn 0.00000000 1.00000000 0.00000000
vn 0.00000000 1.00000000 0.00000000
vn 0.00000000 1.00000000 0.00000000
vn 0.00000000 1.00000000 0.00000000
vn 0.00000000 1.00000000 0.00000000
vn 0.00000000 1.00000000 0.00000000
vn 0.00000000 1.00000000 0.00000000
vn 0.00000000 1.00000000 0.00000000
vn 0.00000000 1.00000000 0.00000000
vn 0.00000000 1.00000000 0.00000000
vn 0.78040000 0.00000000 0.62530000
vn 0.74930000 0.00000000 0.66220000
vn 0.86730000 -0.00000000 0.49770000
vn 0.67500000 0.00000000 0.73780000
vn 0.86810000 -0.00000000 0.49630000
vn 0.93480000 0.00000000 0.35520000
vn 0.99830000 0.00000000 0.05820000
vn 0.97830000 -0.00000000 0.20740000
vn 0.99330000 -0.00000000 0.11530000
vn 0.99620000 0.00000000 -0.08720000
vn 0.94980000 0.00000000 0.31290000
vn 0.96370000 -0.00000000 -0.26700000
vn 0.95630000 -0.00000000 -0.29240000
vn 0.89420000 0.00000000 -0.44770000
vn 0.87460000 -0.00000000 -0.48480000
vn 0.78610000 -0.00000000 -0.61810000
vn 0.64280000 -0.00000000 -0.76600000
vn 0.60180000 0.00000000 -0.79860000
vn 0.47220000 0.00000000 -0.88150000
vn 0.42260000 0.00000000 -0.90630000
vn 0.28570000 0.00000000 -0.95830000
vn 0.75470000 -0.00000000 -0.65610000
vn 0.99620000 0.00000000 -0.08710000
vn 0.22490000 -0.00000000 -0.97440000
vn 0.09560000 0.00000000 -0.99540000
vn 0.43180000 0.00000000 0.90200000
vn 0.42740000 0.00000000 0.90410000
vn 0.54000000 -0.00000000 0.84170000
vn 0.60070000 0.00000000 0.79950000
vn 0.01780000 -0.00000000 -0.99980000
vn -0.08720000 0.00000000 -0.99620000
vn -0.26700000 -0.00000000 -0.96370000
vn -0.19080000 0.00000000 -0.98160000
vn -0.44770000 0.00000000 -0.89420000
vn -0.39070000 0.00000000 -0.92050000
vn -0.57360000 0.00000000 -0.81920000
vn -0.61810000 0.00000000 -0.78610000
vn -0.73140000 -0.00000000 -0.68200000
vn -0.88150000 -0.00000000 -0.47220000
vn -0.85720000 0.00000000 -0.51500000
vn -0.94550000 -0.00000000 -0.32560000
vn -0.95830000 0.00000000 -0.28570000
vn -0.99250000 -0.00000000 -0.12190000
vn -0.99620000 0.00000000 0.08720000
vn -0.99620000 0.00000000 0.08720000
vn -0.97300000 -0.00000000 0.23070000
vn -0.92740000 -0.00000000 0.37410000
vn -0.95900000 -0.00000000 0.28340000
vn -0.99540000 -0.00000000 -0.09560000
vn -0.76610000 -0.00000000 -0.64280000
vn -0.85890000 0.00000000 0.51220000
vn -0.88100000 0.00000000 0.47310000
vn -0.76770000 -0.00000000 0.64080000
vn -0.53670000 0.00000000 0.84380000
vn -0.66000000 0.00000000 0.75130000
vn -0.62300000 -0.00000000 0.78230000
vn -0.76880000 0.00000000 0.63950000
vn -0.45270000 0.00000000 0.89170000
vn -0.37760000 0.00000000 0.92600000
vn -0.25580000 0.00000000 0.96670000
vn -0.26780000 0.00000000 0.96350000
vn -0.40360000 -0.29410000 0.86640000
vn -0.40350000 -0.29410000 0.86640000
vn -0.24390000 -0.29410000 0.92410000
vn -0.91650000 -0.29420000 0.27110000
vn -0.92330000 -0.29410000 0.24700000
vn -0.86790000 -0.29420000 0.40030000
vn -0.07440000 -0.29350000 0.95310000
vn -0.22760000 -0.29410000 0.92830000
vn -0.38460000 -0.29410000 0.87500000
vn -0.66960000 -0.29410000 0.68200000
vn -0.53470000 -0.29410000 0.79220000
vn -0.86640000 -0.29410000 0.40360000
vn -0.78230000 -0.29410000 0.54920000
vn -0.43270000 -0.29410000 0.85220000
vn -0.59540000 -0.29410000 0.74760000
vn -0.73380000 -0.29410000 0.61240000
vn -0.84210000 -0.29410000 0.45210000
vn -0.95200000 -0.29400000 0.08450000
vn -0.94280000 -0.29390000 0.15720000
vn -0.95210000 -0.29410000 0.08330000
vn -0.24150000 -0.29410000 -0.92480000
vn -0.43710000 -0.29410000 -0.85000000
vn -0.26470000 -0.29410000 -0.91840000
vn -0.47650000 -0.29420000 -0.82850000
vn -0.43710000 -0.29410000 -0.85000000
vn -0.17900000 -0.29410000 -0.93890000
vn -0.18240000 -0.29410000 -0.93820000
vn 0.32760000 -0.29420000 -0.89790000
vn 0.10980000 -0.29400000 -0.94950000
vn 0.29890000 -0.29410000 -0.90790000
vn 0.01700000 -0.29410000 -0.95560000
vn 0.10940000 -0.29400000 -0.94950000
vn 0.01670000 -0.29410000 -0.95560000
vn -0.07750000 -0.29350000 -0.95280000
vn 0.29880000 -0.29410000 -0.90790000
vn -0.90790000 -0.29410000 -0.29890000
vn -0.93760000 -0.29410000 -0.18550000
vn -0.95210000 -0.29400000 0.08440000
vn -0.69240000 -0.29410000 -0.65880000
vn -0.84870000 -0.29410000 -0.43960000
vn -0.81930000 -0.29410000 -0.49230000
vn -0.69900000 -0.29410000 -0.65180000
vn -0.95210000 -0.29410000 0.08330000
vn -0.94870000 -0.29410000 -0.11650000
vn -0.90370000 -0.29410000 -0.31120000
vn -0.37340000 -0.29410000 -0.87980000
vn -0.54820000 -0.29410000 -0.78290000
vn 0.06480000 -0.29450000 -0.95340000
vn 0.84990000 -0.29410000 -0.43710000
vn 0.89120000 -0.29410000 -0.34550000
vn 0.75950000 -0.29410000 -0.58030000
vn 0.95390000 -0.29300000 -0.06460000
vn 0.56750000 -0.29410000 -0.76900000
vn 0.95210000 -0.29410000 -0.08330000
vn 0.57520000 -0.29410000 -0.76330000
vn 0.21500000 -0.29410000 -0.93130000
vn 0.40400000 -0.29410000 -0.86620000
vn 0.83590000 -0.29410000 -0.46340000
vn 0.72130000 -0.29410000 -0.62700000
vn 0.91400000 -0.29410000 -0.27950000
vn -0.95500000 0.29300000 0.04630000
vn -0.95210000 0.29410000 0.08330000
vn -0.92430000 0.29400000 0.24330000
vn -0.83590000 0.29410000 0.46340000
vn -0.78710000 0.29410000 0.54220000
vn -0.87130000 0.29410000 0.39280000
vn -0.91400000 0.29410000 0.27940000
vn -0.67450000 0.29410000 0.67720000
vn -0.72130000 0.29410000 0.62710000
vn -0.57520000 0.29410000 0.76330000
vn -0.38430000 0.29410000 0.87510000
vn -0.40390000 0.29410000 0.86620000
vn -0.21500000 0.29410000 0.93130000
vn -0.53790000 0.29410000 0.79000000
vn -0.01670000 0.29410000 0.95560000
vn -0.05990000 0.29410000 0.95390000
vn 0.08330000 0.29400000 0.95220000
vn 0.18240000 0.29410000 0.93820000
vn 0.22460000 0.29410000 0.92900000
vn 0.38030000 0.29410000 0.87690000
vn 0.37350000 0.29410000 0.87980000
vn 0.53040000 0.29410000 0.79510000
vn 0.66690000 0.29410000 0.68460000
vn 0.69900000 0.29410000 0.65180000
vn 0.78180000 0.29410000 0.54980000
vn 0.90370000 0.29410000 0.31120000
vn 0.92630000 0.29410000 0.23550000
vn 0.86930000 0.29410000 0.39730000
vn 0.94870000 0.29410000 0.11650000
vn 0.81930000 0.29410000 0.49230000
vn 0.54820000 0.29410000 0.78290000
vn 0.95210000 0.29410000 -0.08330000
vn 0.95150000 0.29390000 -0.09110000
vn 0.95300000 0.29410000 0.07310000
vn 0.84220000 0.29410000 -0.45200000
vn 0.84220000 0.29410000 -0.45190000
vn 0.91800000 0.29400000 -0.26630000
vn 0.36870000 0.29420000 -0.88180000
vn 0.45470000 0.29420000 -0.84070000
vn 0.26860000 0.29390000 -0.91730000
vn 0.09950000 0.29410000 -0.95060000
vn 0.04330000 0.29370000 -0.95490000
vn 0.20010000 0.29410000 -0.93460000
vn 0.01720000 0.29410000 -0.95560000
vn -0.07240000 0.29360000 -0.95320000
vn -0.41240000 0.29340000 -0.86250000
vn -0.22500000 0.29370000 -0.92900000
vn -0.26910000 0.29410000 -0.91710000
vn -0.37350000 0.29410000 -0.87980000
vn -0.17000000 0.29380000 -0.94060000
vn -0.18310000 0.29410000 -0.93810000
vn -0.45200000 0.29410000 -0.84220000
vn -0.73820000 0.29410000 -0.60710000
vn -0.73820000 0.29410000 -0.60710000
vn -0.60710000 0.29420000 -0.73820000
vn 0.95210000 0.29410000 -0.08330000
vn 0.92940000 0.29350000 -0.22360000
vn 0.95140000 0.29410000 -0.09110000
vn 0.86640000 0.29410000 -0.40350000
vn 0.66430000 0.29410000 -0.68720000
vn 0.77920000 0.29410000 -0.55340000
vn 0.60710000 0.29410000 -0.73820000
vn 0.52690000 0.29410000 -0.79750000
vn 0.91400000 0.29410000 -0.27940000
vn 0.60710000 0.29410000 -0.73820000
vn 0.57520000 0.29410000 -0.76330000
vn 0.83590000 0.29410000 -0.46340000
vn 0.72130000 0.29410000 -0.62700000
vn 0.40390000 0.29410000 -0.86620000
vn 0.21500000 0.29410000 -0.93130000
vn -0.65730000 0.29410000 -0.69390000
vn -0.52130000 0.29410000 -0.80110000
vn -0.77360000 0.29410000 -0.56130000
vn -0.91300000 0.29410000 -0.28290000
vn -0.86350000 0.29410000 -0.40970000
vn -0.92330000 0.29410000 -0.24700000
vn -0.95220000 0.29380000 -0.08390000
vn -0.54820000 0.29410000 -0.78290000
vn -0.69900000 0.29410000 -0.65180000
vn -0.95210000 0.29410000 0.08330000
vn -0.95470000 0.29400000 0.04630000
vn -0.91290000 0.29410000 -0.28290000
vn -0.90370000 0.29410000 -0.31120000
vn -0.94860000 0.29410000 -0.11650000
vn -0.81930000 0.29410000 -0.49230000
vn -0.37350000 0.29410000 -0.87980000
vn 0.92010000 -0.29410000 0.25860000
vn 0.92010000 -0.29410000 0.25860000
vn 0.94930000 -0.29420000 0.11070000
vn 0.95390000 -0.29340000 -0.06270000
vn 0.95250000 -0.29390000 0.07990000
vn 0.95210000 -0.29410000 -0.08330000
vn 0.86580000 -0.29410000 0.40490000
vn 0.92420000 -0.29410000 0.24370000
vn 0.77790000 -0.29410000 0.55540000
vn 0.66410000 -0.29410000 0.68740000
vn 0.53800000 -0.29410000 0.79000000
vn 0.23570000 -0.29410000 0.92630000
vn 0.38710000 -0.29410000 0.87390000
vn 0.30870000 -0.29400000 0.90460000
vn 0.53070000 -0.29410000 0.79490000
vn 0.53800000 -0.29410000 0.79000000
vn 0.82900000 -0.29410000 0.47570000
vn 0.90780000 -0.29410000 0.29910000
vn 0.71620000 -0.29410000 0.63290000
vn 0.57410000 -0.29410000 0.76420000
vn 0.40850000 -0.29410000 0.86410000
vn 0.08720000 0.00000000 0.99620000
vn 0.08710000 0.00010000 0.99620000
vn 0.08720000 -0.00010000 0.99620000
vn 0.08720000 0.00000000 0.99620000
vn 0.08720000 -0.00010000 0.99620000
vn 0.08720000 -0.00010000 0.99620000
vn 0.08720000 0.00000000 0.99620000
vn 0.08710000 0.00010000 0.99620000
vn 0.08720000 0.00000000 0.99620000
vn 0.08710000 0.00010000 0.99620000
vn 0.08720000 0.00000000 0.99620000
vn 0.08720000 0.00000000 0.99620000
vn 0.08720000 0.00000000 0.99620000
vn 0.08720000 -0.00010000 0.99620000
vn 0.08720000 -0.00010000 0.99620000
vn 0.08720000 0.00000000 0.99620000
vn -0.96700000 0.00010000 0.25480000
vn -0.98660000 -0.00000000 0.16340000
vn -0.98760000 0.00000000 0.15730000
vn -0.99610000 -0.00000000 0.08840000
vn -0.99880000 0.00000000 0.04830000
vn -0.96610000 -0.00010000 0.25830000
vn -0.70570000 -0.00000000 0.70850000
vn -0.70060000 -0.00020000 0.71360000
vn -0.81850000 -0.00010000 0.57460000
vn -0.82350000 0.00000000 0.56730000
vn -0.90790000 -0.00010000 0.41920000
vn -0.23250000 0.00000000 0.97260000
vn -0.23810000 -0.00010000 0.97120000
vn -0.40210000 -0.00000000 0.91560000
vn -0.06260000 0.00020000 0.99800000
vn -0.06860000 -0.00000000 0.99760000
vn -0.40240000 0.00000000 0.91550000
vn -0.55940000 -0.00000000 0.82890000
vn -0.56280000 -0.00010000 0.82660000
vn -0.07660000 -0.00020000 0.99710000
vn -0.91160000 0.00010000 0.41100000
vn 0.08710000 0.03100000 0.99570000
vn 0.08710000 0.03100000 0.99570000
vn -0.06260000 0.00020000 0.99800000
vn 0.08540000 0.00400000 0.99630000
vn 0.01610000 0.00240000 0.99990000
vn 0.08710000 0.03100000 0.99570000
vn 0.15780000 0.00240000 0.98750000
vn 0.08710000 0.02460000 0.99590000
vn 0.23500000 0.00020000 0.97200000
vn 0.08710000 0.03100000 0.99570000
vn 0.08710000 0.03100000 0.99570000
vn 0.08710000 0.03100000 0.99570000
vn 0.08720000 0.00440000 0.99620000
vn 0.99710000 0.00010000 0.07650000
vn 0.99990000 0.00000000 -0.01420000
vn 0.99650000 -0.00010000 0.08330000
vn 0.96820000 0.00000000 0.25000000
vn 0.99780000 -0.00000000 -0.06680000
vn 0.96760000 -0.00000000 0.25240000
vn 0.39780000 0.00010000 0.91750000
vn 0.55510000 0.00000000 0.83180000
vn 0.55680000 0.00000000 0.83070000
vn 0.69780000 0.00000000 0.71630000
vn 0.81800000 0.00000000 0.57520000
vn 0.90950000 0.00010000 0.41570000
vn 0.96920000 0.00010000 0.24650000
vn 0.99540000 0.00000000 -0.09530000
vn 0.24080000 -0.00000000 0.97060000
vn 0.81380000 -0.00010000 0.58110000
vn 0.23500000 0.00020000 0.97200000
vn 0.96690000 -0.00010000 0.25510000
vn 0.69480000 -0.00000000 0.71920000
vn 0.40430000 -0.00000000 0.91460000
vn 0.55530000 0.00000000 0.83160000
vn 0.90580000 -0.00010000 0.42370000
vn 0.24660000 -0.00020000 0.96910000
vn -0.66420000 0.74750000 -0.00000000
vn -0.61040000 0.79210000 -0.00000000
vn 0.03550000 0.99940000 -0.00010000
vn -0.94230000 0.33470000 0.00000000
vn -0.97880000 0.20460000 -0.00000000
vn -1.00000000 0.00000000 0.00000000
vn -1.00000000 0.00000000 0.00000000
vn -1.00000000 0.00000000 0.00000000
vn -1.00000000 0.00000000 0.00000000
vn -0.54400000 -0.83910000 0.00000000
vn -0.87790000 -0.47890000 0.00000000
vn -0.76540000 -0.64350000 0.00000000
vn -0.98020000 -0.19780000 0.00000000
vn -0.98840000 -0.15210000 0.00000000
vn -0.29870000 -0.95440000 -0.00000000
vn 0.07590000 -0.99710000 -0.00000000
vn 0.55910000 -0.82320000 -0.09860000
vn 0.76730000 -0.62690000 -0.13530000
vn 0.06870000 -0.99760000 -0.01210000
vn -0.25880000 -0.96480000 0.04560000
vn 0.97380000 -0.14890000 -0.17170000
vn 0.95690000 -0.23630000 -0.16870000
vn 0.98480000 -0.00000000 -0.17370000
vn 0.98480000 -0.00000000 -0.17370000
vn 0.98480000 -0.00000000 -0.17370000
vn 0.98480000 -0.00000000 -0.17370000
vn 0.97840000 0.11350000 -0.17250000
vn 0.89470000 0.41780000 -0.15780000
vn 0.97910000 0.10740000 -0.17260000
vn 0.61840000 0.77830000 -0.10910000
vn 0.75560000 0.64130000 -0.13320000
vn 0.03900000 0.99920000 -0.00690000
vn -0.25330000 0.00010000 -0.96740000
vn -0.23440000 0.00010000 -0.97210000
vn -0.39080000 0.00010000 -0.92050000
vn -0.68770000 0.00010000 -0.72600000
vn -0.72450000 -0.00010000 -0.68930000
vn -0.49880000 -0.00010000 -0.86670000
vn -0.96600000 0.00000000 -0.25840000
vn -0.99650000 -0.00000000 -0.08350000
vn -0.98100000 -0.00000000 -0.19410000
vn -0.80940000 0.00000000 -0.58730000
vn -0.99620000 0.00000000 -0.08750000
vn -0.88790000 -0.00000000 -0.45990000
vn -0.99880000 0.00000000 0.04820000
vn -0.37590000 -0.00010000 -0.92670000
vn -0.54540000 0.00010000 -0.83820000
vn -0.90350000 0.00010000 -0.42870000
vn -0.99980000 -0.00000000 0.01950000
vn -0.25200000 -0.00010000 -0.96770000
vn -0.99610000 -0.00000000 0.08840000
vn -0.99880000 0.00000000 0.04820000
vn 0.97210000 0.00000000 -0.23480000
vn 0.96520000 -0.00000000 -0.26170000
vn 0.98720000 -0.00000000 -0.15950000
vn 0.99540000 0.00000000 -0.09540000
vn 0.81530000 0.00010000 -0.57900000
vn 0.79460000 -0.00010000 -0.60710000
vn 0.90650000 0.00010000 -0.42220000
vn 0.69510000 0.00010000 -0.71890000
vn 0.38630000 0.00010000 -0.92240000
vn 0.21410000 -0.00010000 -0.97680000
vn 0.34290000 -0.00010000 -0.93940000
vn 0.04500000 0.00020000 -0.99900000
vn 0.08150000 0.00010000 -0.99670000
vn 0.20950000 0.00010000 -0.97780000
vn 0.55120000 0.00010000 -0.83440000
vn 0.59380000 -0.00010000 -0.80460000
vn 0.93240000 -0.00000000 -0.36150000
vn 0.08180000 -0.00010000 -0.99660000
vn 0.99780000 -0.00000000 -0.06690000
vn 0.06750000 -0.00020000 -0.99770000
vn -0.15990000 -0.98700000 0.01400000
vn 0.56760000 -0.82180000 -0.04970000
vn 0.62830000 -0.77600000 -0.05500000
vn -0.27830000 -0.96020000 0.02440000
vn -0.92420000 -0.37320000 0.08090000
vn -0.86310000 -0.49940000 0.07550000
vn 0.93170000 0.35410000 -0.08150000
vn 0.85720000 0.50950000 -0.07500000
vn 0.30680000 0.95140000 -0.02690000
vn -0.61910000 0.78350000 0.05420000
vn 0.24870000 0.96830000 -0.02170000
vn -0.41170000 0.91060000 0.03600000
vn -0.66250000 0.74690000 0.05800000
vn -0.66720000 0.74250000 0.05840000
vn -0.93710000 0.33930000 0.08200000
vn 0.27530000 0.96100000 -0.02410000
vn 0.09950000 0.99500000 -0.00870000
vn -0.39660000 0.91740000 0.03470000
vn -0.24370000 -0.96960000 0.02130000
vn -0.84010000 -0.53750000 0.07350000
vn -0.32440000 -0.94550000 0.02840000
vn -0.65210000 0.75600000 0.05700000
vn -0.43990000 0.89720000 0.03850000
vn -0.63550000 0.77010000 0.05550000
vn -0.93700000 -0.33970000 0.08200000
vn -0.98440000 -0.15350000 0.08610000
vn -0.88610000 -0.45700000 0.07750000
vn 0.94610000 0.31330000 -0.08280000
vn 0.98630000 0.14050000 -0.08630000
vn 0.88060000 0.46750000 -0.07700000
vn 0.99620000 0.00000000 -0.08710000
vn 0.19080000 0.00000000 0.98160000
vn -0.99620000 0.00000000 0.08720000
vn -0.99620000 0.00000000 0.08710000
vn -0.19150000 -0.00000000 -0.98150000
vn 0.99620000 0.00000000 -0.08720000
vn 0.97350000 -0.21210000 -0.08520000
vn -0.99620000 0.00000000 0.08710000
vn 0.21850000 -0.95790000 -0.18640000
vn -0.08720000 0.00000000 -0.99620000
vn -0.22220000 0.29410000 0.92960000
vt 0.07784100 0.08511600
vt 0.34592700 0.10512300
vt 0.05578500 0.11888000
vt 0.15162100 0.03896200
vt 0.28295400 0.04899000
vt 0.10990200 0.05798900
vt 0.31855000 0.07259900
vt 0.36120000 0.14272600
vt 0.04547700 0.15661200
vt 0.33112800 0.25310900
vt 0.09041900 0.26562600
vt 0.06304200 0.23310200
vt 0.36349200 0.18161400
vt 0.04776900 0.19550000
vt 0.16781100 0.30335500
vt 0.12601500 0.28923600
vt 0.25734800 0.29926300
vt 0.29906700 0.28023700
vt 0.35318400 0.21934600
vt 0.19646500 0.03135700
vt 0.24115800 0.03487100
vt 0.21250400 0.30686900
vt 0.39414200 0.06552800
vt 0.40805200 0.05867400
vt 0.36070200 0.05867400
vt 0.42758300 0.06552800
vt 0.45390900 0.05867400
vt 0.49893600 0.05867400
vt 0.49446300 0.06552800
vt 0.52790300 0.06552800
vt 0.46102300 0.06552800
vt 0.54396300 0.05867400
vt 0.56134300 0.06552800
vt 0.58898900 0.05867400
vt 0.62822300 0.06552800
vt 0.63570600 0.05867400
vt 0.66166300 0.06552800
vt 0.68199800 0.05867400
vt 0.69510300 0.06552800
vt 0.72722300 0.05867400
vt 0.77225000 0.05867400
vt 0.76198300 0.06552800
vt 0.79542300 0.06552800
vt 0.72854300 0.06552800
vt 0.81727600 0.05867400
vt 0.82886300 0.06552800
vt 0.86230300 0.05867400
vt 0.39414200 0.06552800
vt 0.40805200 0.05867400
vt 0.36070200 0.05867400
vt 0.42758300 0.06552800
vt 0.45390900 0.05867400
vt 0.49893600 0.05867400
vt 0.49446300 0.06552800
vt 0.52790300 0.06552800
vt 0.46102300 0.06552800
vt 0.54396300 0.05867400
vt 0.56134300 0.06552800
vt 0.58898900 0.05867400
vt 0.62829900 0.06546800
vt 0.63570600 0.05867400
vt 0.66166300 0.06552800
vt 0.68199800 0.05867400
vt 0.69510300 0.06552800
vt 0.72722300 0.05867400
vt 0.77225000 0.05867400
vt 0.76198300 0.06552800
vt 0.79542300 0.06552800
vt 0.72854300 0.06552800
vt 0.81727600 0.05867400
vt 0.82886300 0.06552800
vt 0.86230300 0.05867400
vt 0.00361800 0.04536800
vt 0.00361800 0.04536800
vt 0.00179400 0.06406500
vt 0.00805000 0.04543700
vt 0.00805000 0.04543700
vt 0.02479300 0.03931200
vt 0.02479300 0.03931200
vt 0.07479000 0.03996700
vt 0.07479000 0.03996700
vt 0.06994400 0.03651000
vt 0.06994400 0.03651000
vt 0.01889200 0.03660700
vt 0.01753600 0.07615100
vt 0.01753600 0.07615100
vt 0.01753600 0.07615100
vt 0.00873800 0.07455800
vt 0.00873800 0.07455800
vt 0.01985500 0.07943900
vt 0.01985500 0.07943900
vt 0.01985500 0.07943900
vt 0.07222800 0.07937000
vt 0.07170700 0.07657800
vt 0.07170700 0.07657800
vt 0.08337200 0.04104900
vt 0.08951400 0.05358300
vt 0.08951400 0.05358300
vt 0.09346000 0.05714100
vt 0.08618800 0.07275800
vt 0.08409700 0.07037800
vt 0.11522800 0.06209900
vt 0.11509500 0.04818300
vt 0.11842200 0.04458200
vt 0.12075100 0.05222800
vt 0.11891300 0.06155000
vt 0.11878000 0.05093300
vt 0.06413900 0.05925500
vt 0.05990500 0.05716700
vt 0.10990200 0.05696100
vt 0.12101600 0.05504800
vt 0.12236400 0.06141600
vt 0.11898600 0.06322400
vt 0.06439700 0.05905100
vt 0.06439700 0.05905100
vt 0.06031300 0.05706300
vt 0.11448200 0.05697900
vt 0.11448200 0.05697900
vt 0.11829600 0.05987400
vt 0.11901800 0.08257200
vt 0.11341300 0.07989900
vt 0.11557500 0.06998200
vt 0.12183900 0.07485600
vt 0.11229100 0.06224200
vt 0.11086200 0.06167200
vt 0.11187200 0.05730900
vt 0.11314700 0.05761600
vt 0.11387100 0.06159100
vt 0.12169200 0.08012100
vt 0.11580200 0.07960300
vt 0.11577100 0.06736900
vt 0.11509600 0.08566500
vt 0.10551100 0.08299500
vt 0.12245100 0.09204300
vt 0.12164100 0.08697100
vt 0.11914800 0.09971300
vt 0.11651300 0.08144900
vt 0.11222200 0.06222900
vt 0.11100600 0.06169300
vt 0.11172000 0.05742200
vt 0.11365800 0.06177100
vt 0.11356700 0.05754100
vt 0.11726000 0.07086700
vt 0.11726000 0.07086700
vt 0.11364100 0.06629500
vt 0.11757500 0.05551000
vt 0.11954200 0.08161500
vt 0.11377900 0.08109000
vt 0.10669800 0.04453900
vt 0.10669800 0.04453900
vt 0.18518000 0.04145000
vt 0.18518000 0.04145000
vt 0.18372900 0.05088500
vt 0.18372900 0.05088500
vt 0.17301100 0.02982600
vt 0.17301100 0.02982600
vt 0.11479400 0.02828400
vt 0.12073800 0.02969000
vt 0.12073800 0.02969000
vt 0.16966500 0.05997300
vt 0.11419700 0.05675900
vt 0.11419700 0.05675900
vt 0.10613800 0.03938900
vt 0.10877900 0.05561000
vt 0.12057200 0.06003700
vt 0.17763500 0.06083700
vt 0.07792600 0.30279800
vt 0.05239600 0.28488300
vt 0.05239600 0.28488300
vt 0.10921600 0.05799100
vt 0.10921600 0.05799100
vt 0.13624300 0.32297900
vt 0.09226900 0.06451900
vt 0.09226900 0.06451900
vt 0.09226900 0.06451900
vt 0.00563100 0.18735100
vt 0.00563100 0.18735100
vt 0.27819600 0.28488300
vt 0.22406700 0.31559700
vt 0.32327300 0.16735200
vt 0.16529600 0.32528100
vt 0.28072200 0.09205300
vt 0.22151200 0.05799600
vt 0.00731900 0.16735200
vt 0.01258300 0.14709700
vt 0.02155700 0.12730200
vt 0.03411700 0.10872100
vt 0.03165700 0.26282800
vt 0.01684200 0.23812300
vt 0.00829700 0.21245000
vt 0.04986900 0.09205300
vt 0.06819200 0.07786200
vt 0.06819200 0.07786200
vt 0.10652400 0.31559700
vt 0.23960700 0.06498500
vt 0.26240000 0.07786200
vt 0.19434900 0.32297900
vt 0.25266600 0.30279800
vt 0.30903500 0.12730200
vt 0.29647500 0.10872100
vt 0.31800900 0.14709700
vt 0.31375000 0.23812300
vt 0.32229500 0.21245000
vt 0.29893400 0.26282800
vt 0.32496000 0.18735200
vt 0.18308500 0.05798900
vt 0.17556000 0.06488900
vt 0.20704400 0.06488900
vt 0.15887200 0.05798900
vt 0.20729900 0.05798900
vt 0.23151200 0.05798900
vt 0.27993800 0.05798900
vt 0.25572500 0.05798900
vt 0.27063700 0.06510700
vt 0.30415100 0.06488900
vt 0.23852200 0.06488900
vt 0.33550100 0.05798900
vt 0.33987500 0.06488900
vt 0.36685100 0.05798900
vt 0.37344100 0.06488900
vt 0.39820100 0.05798900
vt 0.42955100 0.05798900
vt 0.43747900 0.06488900
vt 0.46090100 0.05798900
vt 0.46940800 0.06488900
vt 0.49225100 0.05798900
vt 0.40572500 0.06488900
vt 0.30415100 0.05798900
vt 0.50223300 0.06488900
vt 0.52360100 0.05798900
vt 0.11078000 0.05800600
vt 0.10990200 0.06488900
vt 0.13143500 0.05834200
vt 0.14341300 0.06488900
vt 0.53669100 0.06485400
vt 0.55495100 0.05798900
vt 0.58630100 0.05798900
vt 0.57315000 0.06483800
vt 0.61765100 0.05798900
vt 0.60766900 0.06488900
vt 0.64049400 0.06488900
vt 0.64900100 0.05798900
vt 0.67242400 0.06488900
vt 0.71170100 0.05798900
vt 0.70417800 0.06488900
vt 0.73646100 0.06488900
vt 0.74305100 0.05798900
vt 0.77002800 0.06488900
vt 0.80575100 0.05798900
vt 0.80575100 0.06488900
vt 0.82996400 0.05798900
vt 0.85417800 0.05798900
vt 0.83880300 0.06507000
vt 0.77440100 0.05798900
vt 0.68035100 0.05798900
vt 0.87839100 0.05798900
vt 0.87138000 0.06488900
vt 0.90285800 0.06488900
vt 0.95103000 0.05798900
vt 0.92681700 0.05798900
vt 0.93434200 0.06488900
vt 0.90260400 0.05798900
vt 0.96648900 0.06488900
vt 0.97988900 0.05802000
vt 1.00142800 0.06642900
vt 0.99927000 0.05800200
vt 0.44590400 0.07199300
vt 0.44588000 0.06614600
vt 0.41736000 0.08205200
vt 0.58185000 0.08344300
vt 0.58605500 0.06033600
vt 0.55866800 0.06037500
vt 0.38842300 0.05961800
vt 0.41452800 0.06032000
vt 0.44240700 0.06032000
vt 0.50049400 0.06032000
vt 0.47120700 0.06032000
vt 0.55804500 0.07197200
vt 0.52979000 0.06032000
vt 0.45133200 0.08362500
vt 0.48386500 0.08362500
vt 0.51639800 0.08362500
vt 0.54893000 0.08362500
vt 0.61379100 0.06028700
vt 0.60148200 0.06217600
vt 0.61399600 0.08362500
vt 0.63212500 0.50339200
vt 0.59356000 0.51534900
vt 0.62770900 0.52366000
vt 0.58529400 0.50410200
vt 0.59356000 0.52117500
vt 0.64389700 0.51342700
vt 0.64325800 0.52705500
vt 0.73845200 0.50393200
vt 0.69720500 0.50975900
vt 0.73284300 0.51534900
vt 0.68011500 0.52703800
vt 0.69714100 0.52357300
vt 0.68006200 0.51324300
vt 0.66274400 0.51939000
vt 0.73284300 0.52117500
vt 0.45696200 0.51534900
vt 0.43541600 0.50369600
vt 0.38556800 0.50366200
vt 0.53468200 0.50369600
vt 0.48504900 0.50369600
vt 0.49613500 0.52700100
vt 0.53291900 0.52700100
vt 0.38578300 0.52700100
vt 0.42256700 0.52700100
vt 0.45935100 0.52700100
vt 0.60648700 0.52700100
vt 0.56970300 0.52700100
vt 0.68894500 0.50491300
vt 0.86944100 0.51534900
vt 0.88791100 0.50369600
vt 0.83827800 0.50369600
vt 0.94109500 0.50308300
vt 0.78864500 0.50369600
vt 0.93754400 0.52700100
vt 0.79040700 0.52700100
vt 0.71683900 0.52700100
vt 0.75362300 0.52700100
vt 0.86397600 0.52700100
vt 0.82719200 0.52700100
vt 0.90076000 0.52700100
vt 0.37891300 0.50336500
vt 0.38578300 0.52700100
vt 0.41567300 0.50370000
vt 0.45935100 0.52700100
vt 0.47639600 0.50369600
vt 0.44483400 0.50369600
vt 0.42256700 0.52700100
vt 0.50874500 0.50369600
vt 0.49613500 0.52700100
vt 0.53291900 0.52700100
vt 0.57365200 0.50369600
vt 0.56970300 0.52700100
vt 0.60648700 0.52700100
vt 0.54134800 0.50369600
vt 0.64327100 0.52700100
vt 0.63533200 0.50369600
vt 0.66166300 0.50369600
vt 0.68005500 0.52700100
vt 0.68799500 0.50369600
vt 0.71819800 0.50369600
vt 0.71683900 0.52700100
vt 0.74967500 0.50369600
vt 0.78197800 0.50369600
vt 0.79040700 0.52700100
vt 0.81458200 0.50369600
vt 0.86397600 0.52700100
vt 0.87849200 0.50369600
vt 0.84693000 0.50369600
vt 0.90076000 0.52700100
vt 0.82719200 0.52700100
vt 0.75362300 0.52700100
vt 0.93754400 0.52700100
vt 0.93899000 0.50367800
vt 0.90877000 0.50369800
vt 0.45696200 0.51534900
vt 0.45696200 0.50952200
vt 0.42004700 0.50980900
vt 0.57677200 0.50368500
vt 0.55925600 0.51244900
vt 0.59629800 0.52013800
vt 0.62802200 0.51996000
vt 0.63838700 0.50639100
vt 0.60930400 0.50398300
vt 0.64317700 0.52706300
vt 0.65963900 0.51515700
vt 0.72468300 0.51139600
vt 0.68805200 0.50316900
vt 0.69647200 0.52004600
vt 0.71686000 0.50373000
vt 0.67772500 0.51151700
vt 0.68019300 0.52707500
vt 0.73284300 0.52117500
vt 0.80133800 0.51534900
vt 0.80133800 0.50952200
vt 0.76722400 0.51273600
vt 0.38578300 0.52700100
vt 0.41194000 0.50347900
vt 0.38721800 0.50371600
vt 0.44701100 0.50369600
vt 0.51136100 0.50369600
vt 0.47891800 0.50369600
vt 0.52545700 0.50952200
vt 0.54379500 0.50369600
vt 0.42256700 0.52700100
vt 0.52545700 0.51534900
vt 0.53291900 0.52700100
vt 0.45935100 0.52700100
vt 0.49613500 0.52700100
vt 0.56970300 0.52700100
vt 0.60648700 0.52700100
vt 0.77953200 0.50369600
vt 0.74765000 0.50369600
vt 0.81196600 0.50369600
vt 0.86944100 0.50952200
vt 0.84440900 0.50369600
vt 0.87631600 0.50369600
vt 0.90678100 0.50345700
vt 0.75362300 0.52700100
vt 0.79040700 0.52700100
vt 0.93754400 0.52700100
vt 0.93073600 0.50351800
vt 0.86944100 0.51534900
vt 0.86397600 0.52700100
vt 0.90076000 0.52700100
vt 0.82719200 0.52700100
vt 0.71683900 0.52700100
vt 0.67195400 0.07197200
vt 0.67195400 0.06614600
vt 0.64662300 0.08340400
vt 0.61743000 0.05976200
vt 0.64142300 0.06010900
vt 0.61399600 0.08362500
vt 0.69820200 0.06032000
vt 0.66937900 0.06032000
vt 0.72749700 0.06032000
vt 0.75678400 0.06032000
vt 0.78411800 0.06614600
vt 0.84006900 0.06032000
vt 0.81313100 0.06031600
vt 0.82727000 0.06751400
vt 0.78558400 0.06032000
vt 0.78411800 0.07197200
vt 0.71159400 0.08362500
vt 0.67906100 0.08362500
vt 0.74412600 0.08362500
vt 0.77665900 0.08362500
vt 0.80919100 0.08362500
vt 0.07302200 0.06572300
vt 0.07302200 0.06572300
vt 0.07302200 0.06572300
vt 0.05450900 0.05032400
vt 0.05450900 0.05032400
vt 0.16382300 0.05183700
vt 0.08544900 0.07259900
vt 0.09767600 0.07259900
vt 0.09767600 0.07259900
vt 0.10990200 0.07259900
vt 0.10990200 0.07259900
vt 0.05368600 0.04342500
vt 0.16598200 0.04342500
vt 0.16598200 0.04342500
vt 0.13467600 0.07326600
vt 0.13467600 0.07326600
vt 0.10983000 0.31078800
vt 0.16769500 0.29422000
vt 0.11633700 0.29404200
vt 0.17378300 0.28128900
vt 0.11020500 0.27525900
vt 0.17380300 0.31011400
vt 0.10990200 0.39275700
vt 0.17380400 0.39275700
vt 0.17380400 0.36505900
vt 0.10990200 0.36505900
vt 0.17386700 0.33738600
vt 0.10990200 0.47585000
vt 0.17380400 0.47585000
vt 0.10990200 0.44815200
vt 0.10990200 0.50354800
vt 0.14185300 0.50354800
vt 0.17380400 0.44815200
vt 0.17380400 0.42045400
vt 0.10990200 0.42045400
vt 0.17301000 0.50317900
vt 0.10990200 0.33736100
vt 0.10990200 0.52899400
vt 0.14185300 0.52899400
vt 0.10990200 0.50354800
vt 0.17301000 0.50319200
vt 0.14185300 0.50354800
vt 0.17380400 0.52899400
vt 0.14185300 0.55444000
vt 0.17380400 0.54171700
vt 0.10990200 0.55444000
vt 0.10990200 0.52899400
vt 0.17380400 0.52899400
vt 0.14185300 0.52899400
vt 0.17380400 0.55444000
vt 0.10990000 0.74828300
vt 0.11434300 0.76350400
vt 0.17351600 0.74840900
vt 0.14128500 0.72073700
vt 0.17316800 0.77337800
vt 0.15754500 0.72070800
vt 0.10990200 0.58213800
vt 0.10990200 0.60983600
vt 0.14128600 0.61014200
vt 0.10990200 0.63753400
vt 0.10990200 0.66523200
vt 0.10990200 0.69293000
vt 0.10990200 0.72062800
vt 0.10992900 0.77742300
vt 0.14185300 0.55444000
vt 0.17380400 0.66523200
vt 0.10990200 0.55444000
vt 0.17380400 0.72062800
vt 0.17380400 0.63753400
vt 0.17380500 0.58234500
vt 0.17380400 0.60983600
vt 0.17380400 0.69293000
vt 0.17380400 0.55444000
vt 0.11901800 0.09210000
vt 0.11873700 0.08950600
vt 0.11592400 0.09343700
vt 0.12102600 0.08477700
vt 0.12155700 0.09164100
vt 0.11901900 -0.00749400
vt 0.11107800 -0.00440700
vt 0.11109200 0.04083600
vt 0.11901500 0.03983400
vt 0.12631000 0.08890900
vt 0.12434200 0.08504500
vt 0.12513700 0.09167400
vt 0.12314100 0.09124200
vt 0.12296600 0.08440500
vt 0.12740200 0.09266600
vt 0.12891400 0.09192700
vt 0.11852200 0.09195100
vt 0.11969000 0.08617900
vt 0.11639100 0.09151100
vt 0.11506900 0.09461700
vt 0.12177600 0.08439400
vt 0.12143500 0.09121000
vt 0.10868800 0.04166900
vt 0.10082400 -0.00229500
vt 0.10079100 0.03976300
vt 0.10871100 -0.00243400
vt 0.12281400 0.09162300
vt 0.12407200 0.08525400
vt 0.12278900 0.08481100
vt 0.12590600 0.08938900
vt 0.12511800 0.09205500
vt 0.12849900 0.09338300
vt 0.11860300 0.06153300
vt 0.11048800 0.05844100
vt 0.10986300 0.08591200
vt 0.10990200 0.14165100
vt 0.17380400 0.14812900
vt 0.17424600 0.10356000
vt 0.10990200 0.22531400
vt 0.15636600 0.25280800
vt 0.17380400 0.23463900
vt 0.10990200 0.16953900
vt 0.11016100 0.25285400
vt 0.17380400 0.19094900
vt 0.11017000 0.27525800
vt 0.15795200 0.08206200
vt 0.10990200 0.11376400
vt 0.10990200 0.19742700
vt 0.16709300 0.26964900
vt 0.17341500 0.05967600
vt 0.17376600 0.28129700
vt 0.11009600 0.27531400
vt 0.11011700 0.80108100
vt 0.15645100 0.80626000
vt 0.16709000 0.78918300
vt 0.10988800 0.77745000
vt 0.10990200 0.86056200
vt 0.17380400 0.86704000
vt 0.10990200 0.83267500
vt 0.10990200 0.88845000
vt 0.10991300 0.94511900
vt 0.16001700 0.97520500
vt 0.17405900 0.95404900
vt 0.10688900 1.00233800
vt 0.11868500 0.99646300
vt 0.10958800 0.97460300
vt 0.10990200 0.91633700
vt 0.17380400 0.90986000
vt 0.17380400 0.82334900
vt 0.16739900 0.99782300
vt 0.17316500 0.77346300
vt 0.17512900 1.00056600
vt 0.11525700 0.05934500
vt 0.11863600 0.05123700
vt 0.11892400 0.06124200
vt 0.12771100 0.06198900
vt 0.12377000 0.06038200
vt 0.12433700 0.05303100
vt 0.09877200 0.06212200
vt 0.09944700 0.05408500
vt 0.10262700 0.06148800
vt 0.11894300 0.06106500
vt 0.11485500 0.06249900
vt 0.11786400 0.05325000
vt 0.11895700 0.06142300
vt 0.11901900 0.05018300
vt 0.12101500 0.05213900
vt 0.11486200 0.06302900
vt 0.11573900 0.05074400
vt 0.11780800 0.05132000
vt 0.12774100 0.06202200
vt 0.12449400 0.04807700
vt 0.12727500 0.05053100
vt 0.11896600 0.06212300
vt 0.11793500 0.05278900
vt 0.11887800 0.05072500
vt 0.12372900 0.05962300
vt 0.12300300 0.05517600
vt 0.12428400 0.05355700
vt 0.09869300 0.05916900
vt 0.09802700 0.05569400
vt 0.09940600 0.05404600
vt 0.36070200 0.06552800
vt 0.59478300 0.06552800
vt 0.86230300 0.06552800
vt 0.36070200 0.06552800
vt 0.59466200 0.06545700
vt 0.86230300 0.06552800
vt 0.12153100 0.06134000
vt 0.11689200 0.05994000
vt 0.12100400 0.06202400
vt 0.18236400 0.03423400
vt 0.60512900 0.50369600
f 1/1/1 2/2/2 3/3/3
f 4/4/4 5/5/5 6/6/6
f 7/7/7 1/1/1 6/6/6
f 8/8/8 9/9/9 3/3/3
f 10/10/10 11/11/11 12/12/12
f 9/9/9 8/8/8 13/13/13
f 15/15/15 16/16/16 17/17/17
f 16/16/16 11/11/11 18/18/18
f 19/19/19 12/12/12 14/14/14
f 4/4/4 20/20/20 21/21/21
f 6/6/6 5/5/5 7/7/7
f 2/2/2 8/8/8 3/3/3
f 2/2/2 1/1/1 7/7/7
f 22/22/22 15/15/15 17/17/17
f 17/17/17 16/16/16 18/18/18
f 11/11/11 10/10/10 18/18/18
f 10/10/10 12/12/12 19/19/19
f 14/14/14 13/13/13 19/19/19
f 21/21/21 5/5/5 4/4/4
f 23/23/23 24/24/24 25/25/25
f 24/24/24 26/26/26 27/27/27
f 28/28/28 29/29/29 30/30/30
f 27/27/27 31/31/31 28/28/28
f 32/32/32 33/33/33 34/34/34
f 24/24/24 23/23/23 26/26/26
f 33/33/33 32/32/32 30/30/30
f 35/35/35 36/36/36 34/34/34
f 36/36/36 35/35/35 37/37/37
f 36/36/36 37/37/37 38/38/38
f 38/38/38 39/39/39 40/40/40
f 41/41/41 42/42/42 43/43/43
f 40/40/40 44/44/44 42/42/42
f 45/45/45 46/46/46 47/47/47
f 38/38/38 37/37/37 39/39/39
f 46/46/46 45/45/45 43/43/43
f 48/48/48 49/49/49 50/50/50
f 49/49/49 51/51/51 52/52/52
f 53/53/53 54/54/54 55/55/55
f 52/52/52 56/56/56 53/53/53
f 57/57/57 58/58/58 59/59/59
f 49/49/49 48/48/48 51/51/51
f 58/58/58 57/57/57 55/55/55
f 60/60/60 61/61/61 59/59/59
f 61/61/61 60/60/60 62/62/62
f 61/61/61 62/62/62 63/63/63
f 63/63/63 64/64/64 65/65/65
f 66/66/66 67/67/67 68/68/68
f 65/65/65 69/69/69 67/67/67
f 70/70/70 71/71/71 72/72/72
f 63/63/63 62/62/62 64/64/64
f 71/71/71 70/70/70 68/68/68
f 73/73/73 75/75/75 76/76/76
f 78/78/78 80/80/80 83/83/83
f 77/77/77 84/84/84 74/74/74
f 77/77/77 79/79/79 84/84/84
f 85/85/85 75/75/75 88/88/88
f 92/92/92 86/86/86 89/89/89
f 93/93/93 95/95/95 91/91/91
f 90/90/90 94/94/94 87/87/87
f 96/96/96 82/82/82 81/81/81
f 81/81/81 98/98/98 96/96/96
f 96/96/96 98/98/98 99/99/99
f 100/100/100 101/101/101 95/95/95
f 93/93/93 100/100/100 95/95/95
f 97/97/97 101/101/101 99/99/99
f 102/102/102 103/103/103 104/104/104
f 105/105/105 106/106/106 107/107/107
f 108/108/108 109/109/109 110/110/110
f 111/111/111 112/112/112 113/113/113
f 115/115/115 116/116/116 117/117/117
f 119/119/119 114/114/114 118/118/118
f 120/120/120 121/121/121 122/122/122
f 120/120/120 122/122/122 123/123/123
f 124/124/124 125/125/125 126/126/126
f 124/124/124 127/127/127 128/128/128
f 129/129/129 130/130/130 131/131/131
f 132/132/132 133/133/133 130/130/130
f 130/130/130 129/129/129 134/134/134
f 132/132/132 130/130/130 134/134/134
f 135/135/135 136/136/136 137/137/137
f 138/138/138 139/139/139 140/140/140
f 141/141/141 138/138/138 142/142/142
f 144/144/144 145/145/145 146/146/146
f 147/147/147 148/148/148 143/143/143
f 149/149/149 151/151/151 153/153/153
f 150/150/150 156/156/156 152/152/152
f 157/157/157 159/159/159 150/150/150
f 158/158/158 155/155/155 149/149/149
f 160/160/160 162/162/162 154/154/154
f 154/154/154 162/162/162 150/150/150
f 163/163/163 157/157/157 150/150/150
f 150/150/150 161/161/161 164/164/164
f 160/160/160 165/165/165 162/162/162
f 154/154/154 166/166/166 160/160/160
f 167/167/167 169/169/169 171/171/171
f 172/172/172 167/167/167 171/171/171
f 175/175/175 169/169/169 176/176/176
f 178/178/178 179/179/179 180/180/180
f 179/179/179 181/181/181 182/182/182
f 183/183/183 182/182/182 171/171/171
f 184/184/184 185/185/185 176/176/176
f 176/176/176 185/185/185 186/186/186
f 186/186/186 187/187/187 176/176/176
f 188/188/188 189/189/189 169/169/169
f 190/190/190 176/176/176 189/189/189
f 189/189/189 176/176/176 169/169/169
f 191/191/191 176/176/176 187/187/187
f 191/191/191 192/192/192 176/176/176
f 172/172/172 194/194/194 167/167/167
f 182/182/182 183/183/183 195/195/195
f 196/196/196 182/182/182 195/195/195
f 179/179/179 197/197/197 181/181/181
f 179/179/179 178/178/178 198/198/198
f 199/199/199 182/182/182 200/200/200
f 201/201/201 180/180/180 199/199/199
f 182/182/182 199/199/199 180/180/180
f 202/202/202 178/178/178 180/180/180
f 180/180/180 203/203/203 202/202/202
f 202/202/202 204/204/204 178/178/178
f 203/203/203 180/180/180 205/205/205
f 206/206/206 207/207/207 208/208/208
f 207/207/207 206/206/206 209/209/209
f 210/210/210 208/208/208 211/211/211
f 212/212/212 213/213/213 214/214/214
f 212/212/212 214/214/214 215/215/215
f 213/213/213 211/211/211 216/216/216
f 217/217/217 218/218/218 219/219/219
f 219/219/219 220/220/220 221/221/221
f 222/222/222 223/223/223 224/224/224
f 224/224/224 225/225/225 226/226/226
f 221/221/221 227/227/227 222/222/222
f 228/228/228 215/215/215 217/217/217
f 226/226/226 229/229/229 230/230/230
f 231/231/231 232/232/232 233/233/233
f 234/234/234 207/207/207 233/233/233
f 209/209/209 233/233/233 207/207/207
f 214/214/214 213/213/213 216/216/216
f 235/235/235 236/236/236 230/230/230
f 237/237/237 236/236/236 238/238/238
f 239/239/239 240/240/240 241/241/241
f 242/242/242 241/241/241 243/243/243
f 237/237/237 238/238/238 240/240/240
f 244/244/244 245/245/245 246/246/246
f 247/247/247 246/246/246 248/248/248
f 249/249/249 250/250/250 251/251/251
f 252/252/252 251/251/251 253/253/253
f 254/254/254 248/248/248 250/250/250
f 255/255/255 243/243/243 245/245/245
f 256/256/256 257/257/257 258/258/258
f 259/259/259 260/260/260 261/261/261
f 262/262/262 258/258/258 260/260/260
f 257/257/257 256/256/256 252/252/252
f 257/257/257 252/252/252 253/253/253
f 261/261/261 263/263/263 259/259/259
f 259/259/259 263/263/263 264/264/264
f 265/265/265 266/266/266 264/264/264
f 263/263/263 265/265/265 264/264/264
f 235/235/235 238/238/238 236/236/236
f 267/267/267 268/268/268 269/269/269
f 272/272/272 278/278/278 271/271/271
f 273/273/273 269/269/269 274/274/274
f 269/269/269 268/268/268 274/274/274
f 268/268/268 276/276/276 277/277/277
f 267/267/267 276/276/276 268/268/268
f 276/276/276 278/278/278 279/279/279
f 267/267/267 278/278/278 276/276/276
f 275/275/275 268/268/268 277/277/277
f 269/269/269 280/280/280 267/267/267
f 281/281/281 267/267/267 280/280/280
f 282/282/282 267/267/267 281/281/281
f 282/282/282 278/278/278 267/267/267
f 283/283/283 278/278/278 282/282/282
f 279/279/279 278/278/278 272/272/272
f 284/284/284 271/271/271 285/285/285
f 278/278/278 283/283/283 270/270/270
f 270/270/270 285/285/285 271/271/271
f 284/284/284 285/285/285 286/286/286
f 270/270/270 286/286/286 285/285/285
f 287/287/287 288/288/288 289/289/289
f 288/288/288 287/287/287 290/290/290
f 291/291/291 289/289/289 288/288/288
f 292/292/292 289/289/289 293/293/293
f 294/294/294 295/295/295 296/296/296
f 298/298/298 295/295/295 299/299/299
f 299/299/299 300/300/300 297/297/297
f 298/298/298 301/301/301 296/296/296
f 302/302/302 303/303/303 304/304/304
f 302/302/302 305/305/305 306/306/306
f 302/302/302 306/306/306 303/303/303
f 302/302/302 288/288/288 305/305/305
f 290/290/290 305/305/305 288/288/288
f 302/302/302 307/307/307 308/308/308
f 309/309/309 302/302/302 304/304/304
f 287/287/287 289/289/289 292/292/292
f 310/310/310 302/302/302 309/309/309
f 310/310/310 311/311/311 302/302/302
f 288/288/288 308/308/308 291/291/291
f 289/289/289 291/291/291 312/312/312
f 307/307/307 302/302/302 311/311/311
f 291/291/291 313/313/313 312/312/312
f 289/289/289 312/312/312 293/293/293
f 313/313/313 291/291/291 308/308/308
f 295/295/295 314/314/314 299/299/299
f 315/315/315 316/316/316 317/317/317
f 315/315/315 318/318/318 316/316/316
f 315/315/315 317/317/317 319/319/319
f 294/294/294 296/296/296 319/319/319
f 315/315/315 319/319/319 296/296/296
f 315/315/315 320/320/320 318/318/318
f 314/314/314 295/295/295 294/294/294
f 296/296/296 321/321/321 315/315/315
f 322/322/322 301/301/301 298/298/298
f 323/323/323 301/301/301 322/322/322
f 297/297/297 322/322/322 298/298/298
f 301/301/301 323/323/323 321/321/321
f 296/296/296 301/301/301 321/321/321
f 324/324/324 315/315/315 325/325/325
f 326/326/326 315/315/315 324/324/324
f 315/315/315 326/326/326 320/320/320
f 293/293/293 297/297/297 300/300/300
f 328/328/328 333/333/333 329/329/329
f 330/330/330 331/331/331 332/332/332
f 333/333/333 330/330/330 332/332/332
f 336/336/336 340/340/340 334/334/334
f 339/339/339 619/619/619 337/337/337
f 338/338/338 337/337/337 340/340/340
f 335/335/335 334/334/334 331/331/331
f 335/335/335 331/331/331 330/330/330
f 342/342/342 619/619/619 339/339/339
f 341/341/341 343/343/343 342/342/342
f 344/344/344 345/345/345 343/343/343
f 347/347/347 357/357/357 348/348/348
f 347/347/347 346/346/346 345/345/345
f 350/350/350 356/356/356 351/351/351
f 352/352/352 353/353/353 354/354/354
f 355/355/355 360/360/360 353/353/353
f 356/356/356 354/354/354 351/351/351
f 357/357/357 350/350/350 349/349/349
f 356/356/356 352/352/352 354/354/354
f 360/360/360 355/355/355 358/358/358
f 341/341/341 344/344/344 343/343/343
f 361/361/361 362/362/362 363/363/363
f 364/364/364 365/365/365 366/366/366
f 367/367/367 368/368/368 369/369/369
f 366/366/366 369/369/369 364/364/364
f 368/368/368 367/367/367 370/370/370
f 372/372/372 375/375/375 374/374/374
f 374/374/374 373/373/373 376/376/376
f 377/377/377 376/376/376 371/371/371
f 374/374/374 378/378/378 372/372/372
f 381/381/381 405/405/405 380/380/380
f 382/382/382 383/383/383 384/384/384
f 363/363/363 385/385/385 383/383/383
f 362/362/362 385/385/385 363/363/363
f 386/386/386 387/387/387 388/388/388
f 364/364/364 389/389/389 365/365/365
f 386/386/386 388/388/388 389/389/389
f 388/388/388 362/362/362 361/361/361
f 388/388/388 387/387/387 362/362/362
f 385/385/385 362/362/362 387/387/387
f 390/390/390 393/393/393 361/361/361
f 365/365/365 388/388/388 392/392/392
f 361/361/361 393/393/393 394/394/394
f 395/395/395 366/366/366 365/365/365
f 363/363/363 383/383/383 390/390/390
f 391/391/391 394/394/394 392/392/392
f 396/396/396 366/366/366 395/395/395
f 370/370/370 367/367/367 396/396/396
f 397/397/397 398/398/398 381/381/381
f 398/398/398 372/372/372 381/381/381
f 380/380/380 399/399/399 397/397/397
f 400/400/400 401/401/401 380/380/380
f 401/401/401 400/400/400 402/402/402
f 402/402/402 400/400/400 403/403/403
f 381/381/381 404/404/404 405/405/405
f 378/378/378 381/381/381 372/372/372
f 403/403/403 410/410/410 407/407/407
f 408/408/408 409/409/409 410/410/410
f 400/400/400 380/380/380 408/408/408
f 379/379/379 411/411/411 408/408/408
f 374/374/374 377/377/377 412/412/412
f 378/378/378 412/412/412 404/404/404
f 378/378/378 404/404/404 381/381/381
f 405/405/405 411/411/411 379/379/379
f 414/414/414 417/417/417 415/415/415
f 416/416/416 418/418/418 417/417/417
f 414/414/414 419/419/419 420/420/420
f 414/414/414 413/413/413 421/421/421
f 419/419/419 414/414/414 421/421/421
f 422/422/422 421/421/421 423/423/423
f 424/424/424 425/425/425 426/426/426
f 422/422/422 423/423/423 427/427/427
f 423/423/423 421/421/421 428/428/428
f 429/429/429 413/413/413 430/430/430
f 413/413/413 429/429/429 431/431/431
f 431/431/431 432/432/432 428/428/428
f 428/428/428 413/413/413 431/431/431
f 428/428/428 432/432/432 433/433/433
f 426/426/426 425/425/425 433/433/433
f 421/421/421 413/413/413 428/428/428
f 420/420/420 417/417/417 414/414/414
f 436/436/436 438/438/438 439/439/439
f 440/440/440 434/434/434 442/442/442
f 435/435/435 443/443/443 441/441/441
f 437/437/437 445/445/445 446/446/446
f 434/434/434 449/449/449 444/444/444
f 436/436/436 439/439/439 448/448/448
f 450/450/450 451/451/451 452/452/452
f 453/453/453 454/454/454 452/452/452
f 455/455/455 451/451/451 450/450/450
f 451/451/451 453/453/453 452/452/452
f 454/454/454 450/450/450 452/452/452
f 458/458/458 459/459/459 456/456/456
f 460/460/460 470/470/470 459/459/459
f 462/462/462 466/466/466 463/463/463
f 461/461/461 464/464/464 465/465/465
f 462/462/462 461/461/461 465/465/465
f 467/467/467 468/468/468 463/463/463
f 457/457/457 456/456/456 468/468/468
f 450/450/450 470/470/470 455/455/455
f 469/469/469 462/462/462 465/465/465
f 451/451/451 455/455/455 453/453/453
f 472/472/472 475/475/475 473/473/473
f 475/475/475 472/472/472 476/476/476
f 477/477/477 478/478/478 479/479/479
f 478/478/478 482/482/482 479/479/479
f 478/478/478 481/481/481 482/482/482
f 478/478/478 477/477/477 483/483/483
f 484/484/484 485/485/485 486/486/486
f 486/486/486 487/487/487 484/484/484
f 486/486/486 485/485/485 488/488/488
f 487/487/487 486/486/486 489/489/489
f 490/490/490 491/491/491 492/492/492
f 493/493/493 494/494/494 492/492/492
f 492/492/492 491/491/491 493/493/493
f 495/495/495 496/496/496 487/487/487
f 485/485/485 484/484/484 497/497/497
f 494/494/494 495/495/495 487/487/487
f 498/498/498 490/490/490 492/492/492
f 487/487/487 496/496/496 484/484/484
f 499/499/499 492/492/492 487/487/487
f 494/494/494 487/487/487 492/492/492
f 498/498/498 500/500/500 490/490/490
f 501/501/501 489/489/489 486/486/486
f 492/492/492 499/499/499 502/502/502
f 498/498/498 492/492/492 503/503/503
f 504/504/504 503/503/503 492/492/492
f 499/499/499 487/487/487 489/489/489
f 499/499/499 489/489/489 505/505/505
f 502/502/502 504/504/504 492/492/492
f 489/489/489 501/501/501 505/505/505
f 506/506/506 498/498/498 503/503/503
f 507/507/507 508/508/508 509/509/509
f 510/510/510 508/508/508 507/507/507
f 511/511/511 510/510/510 507/507/507
f 514/514/514 515/515/515 513/513/513
f 516/516/516 517/517/517 518/518/518
f 519/519/519 517/517/517 520/520/520
f 518/518/518 517/517/517 519/519/519
f 521/521/521 522/522/522 516/516/516
f 518/518/518 521/521/521 516/516/516
f 523/523/523 524/524/524 525/525/525
f 525/525/525 526/526/526 523/523/523
f 527/527/527 524/524/524 528/528/528
f 528/528/528 524/524/524 523/523/523
f 529/529/529 532/532/532 531/531/531
f 533/533/533 534/534/534 535/535/535
f 536/536/536 534/534/534 537/537/537
f 537/537/537 534/534/534 533/533/533
f 538/538/538 536/536/536 537/537/537
f 539/539/539 540/540/540 541/541/541
f 544/544/544 553/553/553 543/543/543
f 545/545/545 546/546/546 547/547/547
f 543/543/543 542/542/542 548/548/548
f 549/549/549 546/546/546 545/545/545
f 550/550/550 554/554/554 545/545/545
f 546/546/546 549/549/549 551/551/551
f 552/552/552 539/539/539 541/541/541
f 552/552/552 541/541/541 553/553/553
f 550/550/550 548/548/548 554/554/554
f 555/555/555 546/546/546 551/551/551
f 553/553/553 544/544/544 552/552/552
f 556/556/556 539/539/539 552/552/552
f 550/550/550 543/543/543 548/548/548
f 552/552/552 544/544/544 556/556/556
f 555/555/555 557/557/557 547/547/547
f 555/555/555 547/547/547 546/546/546
f 557/557/557 555/555/555 558/558/558
f 561/561/561 562/562/562 560/560/560
f 564/564/564 575/575/575 565/565/565
f 563/563/563 566/566/566 564/564/564
f 567/567/567 568/568/568 569/569/569
f 570/570/570 571/571/571 572/572/572
f 569/569/569 574/574/574 573/573/573
f 565/565/565 560/560/560 559/559/559
f 574/574/574 566/566/566 573/573/573
f 568/568/568 567/567/567 572/572/572
f 575/575/575 560/560/560 565/565/565
f 576/576/576 568/568/568 571/571/571
f 561/561/561 577/577/577 562/562/562
f 566/566/566 574/574/574 564/564/564
f 561/561/561 575/575/575 577/577/577
f 568/568/568 576/576/576 578/578/578
f 568/568/568 578/578/578 569/569/569
f 560/560/560 575/575/575 561/561/561
f 579/579/579 580/580/580 581/581/581
f 582/582/582 583/583/583 584/584/584
f 585/585/585 586/586/586 587/587/587
f 588/588/588 589/589/589 590/590/590
f 591/591/591 592/592/592 593/593/593
f 594/594/594 595/595/595 596/596/596
f 597/597/597 598/598/598 599/599/599
f 600/600/600 601/601/601 602/602/602
f 603/603/603 604/604/604 605/605/605
f 606/606/606 607/607/607 608/608/608
f 23/23/23 25/25/25 609/609/609
f 26/26/26 31/31/31 27/27/27
f 28/28/28 30/30/30 32/32/32
f 31/31/31 29/29/29 28/28/28
f 33/33/33 610/610/610 34/34/34
f 35/35/35 34/34/34 610/610/610
f 39/39/39 44/44/44 40/40/40
f 41/41/41 43/43/43 45/45/45
f 40/40/40 42/42/42 41/41/41
f 46/46/46 611/611/611 47/47/47
f 48/48/48 50/50/50 612/612/612
f 51/51/51 56/56/56 52/52/52
f 53/53/53 55/55/55 57/57/57
f 56/56/56 54/54/54 53/53/53
f 58/58/58 613/613/613 59/59/59
f 60/60/60 59/59/59 613/613/613
f 64/64/64 69/69/69 65/65/65
f 66/66/66 68/68/68 70/70/70
f 65/65/65 67/67/67 66/66/66
f 71/71/71 614/614/614 72/72/72
f 79/79/79 82/82/82 84/84/84
f 106/106/106 105/105/105 615/615/615
f 108/108/108 110/110/110 616/616/616
f 124/124/124 126/126/126 127/127/127
f 133/133/133 131/131/131 130/130/130
f 138/138/138 140/140/140 142/142/142
f 617/617/617 144/144/144 146/146/146
f 152/152/152 156/156/156 618/618/618
f 177/177/177 193/193/193 174/174/174
f 168/168/168 173/173/173 170/170/170
f 179/179/179 182/182/182 180/180/180
f 181/181/181 172/172/172 182/182/182
f 206/206/206 208/208/208 210/210/210
f 208/208/208 216/216/216 211/211/211
f 212/212/212 215/215/215 228/228/228
f 218/218/218 220/220/220 219/219/219
f 220/220/220 227/227/227 221/221/221
f 223/223/223 225/225/225 224/224/224
f 225/225/225 229/229/229 226/226/226
f 227/227/227 223/223/223 222/222/222
f 215/215/215 218/218/218 217/217/217
f 229/229/229 235/235/235 230/230/230
f 234/234/234 233/233/233 232/232/232
f 239/239/239 241/241/241 242/242/242
f 242/242/242 243/243/243 255/255/255
f 237/237/237 240/240/240 239/239/239
f 244/244/244 246/246/246 247/247/247
f 247/247/247 248/248/248 254/254/254
f 250/250/250 253/253/253 251/251/251
f 254/254/254 250/250/250 249/249/249
f 255/255/255 245/245/245 244/244/244
f 256/256/256 258/258/258 262/262/262
f 258/258/258 261/261/261 260/260/260
f 300/300/300 292/292/292 293/293/293
f 302/302/302 308/308/308 288/288/288
f 321/321/321 325/325/325 315/315/315
f 366/366/366 396/396/396 369/369/369
f 374/374/374 376/376/376 377/377/377
f 408/408/408 410/410/410 400/400/400
f 388/388/388 365/365/365 389/389/389
f 388/388/388 361/361/361 391/391/391
f 392/392/392 395/395/395 365/365/365
f 361/361/361 394/394/394 391/391/391
f 377/377/377 371/371/371 370/370/370
f 375/375/375 372/372/372 398/398/398
f 380/380/380 397/397/397 381/381/381
f 401/401/401 399/399/399 380/380/380
f 380/380/380 379/379/379 408/408/408
f 411/411/411 409/409/409 408/408/408
f 374/374/374 412/412/412 378/378/378
f 428/428/428 433/433/433 425/425/425
f 415/415/415 430/430/430 413/413/413
f 425/425/425 427/427/427 423/423/423
f 438/438/438 447/447/447 439/439/439
f 485/485/485 497/497/497 488/488/488
f 9/9/9 13/13/13 14/14/14
f 101/101/101 100/100/100 99/99/99
f 182/182/182 172/172/172 171/171/171
f 278/278/278 270/270/270 271/271/271
f 268/268/268 275/275/275 274/274/274
f 298/298/298 299/299/299 297/297/297
f 298/298/298 296/296/296 295/295/295
f 328/328/328 329/329/329 327/327/327
f 333/333/333 332/332/332 329/329/329
f 336/336/336 334/334/334 335/335/335
f 339/339/339 337/337/337 338/338/338
f 338/338/338 340/340/340 336/336/336
f 342/342/342 339/339/339 341/341/341
f 347/347/347 348/348/348 346/346/346
f 347/347/347 345/345/345 344/344/344
f 350/350/350 351/351/351 349/349/349
f 355/355/355 353/353/353 352/352/352
f 357/357/357 349/349/349 348/348/348
f 360/360/360 358/358/358 359/359/359
f 368/368/368 370/370/370 371/371/371
f 375/375/375 373/373/373 374/374/374
f 405/405/405 379/379/379 380/380/380
f 390/390/390 361/361/361 363/363/363
f 388/388/388 391/391/391 392/392/392
f 383/383/383 382/382/382 390/390/390
f 410/410/410 406/406/406 407/407/407
f 414/414/414 415/415/415 413/413/413
f 418/418/418 415/415/415 417/417/417
f 458/458/458 456/456/456 457/457/457
f 460/460/460 459/459/459 458/458/458
f 462/462/462 463/463/463 461/461/461
f 467/467/467 463/463/463 466/466/466
f 457/457/457 468/468/468 467/467/467
f 470/470/470 460/460/460 455/455/455
f 472/472/472 473/473/473 471/471/471
f 475/475/475 476/476/476 474/474/474
f 482/482/482 480/480/480 479/479/479
f 515/515/515 512/512/512 513/513/513
f 532/532/532 530/530/530 531/531/531
f 553/553/553 542/542/542 543/543/543
f 550/550/550 545/545/545 547/547/547
f 562/562/562 559/559/559 560/560/560
f 564/564/564 565/565/565 563/563/563
f 569/569/569 573/573/573 567/567/567
f 568/568/568 572/572/572 571/571/571
f 396/396/396 367/367/367 369/369/369
f 410/410/410 403/403/403 400/400/400
f 428/428/428 425/425/425 423/423/423

