mtllib material.mtl
usemtl Material-7011油漆.002
v 0.03983900 0.04446600 -0.00571500
v 0.04029500 0.04491200 0.00053900
v 0.03955200 0.04435100 0.00781300
v 0.03121400 0.04436200 0.02549600
v 0.02732100 0.04486000 0.02956300
v 0.02251100 0.04452600 0.03340800
v 0.00757100 0.04449900 0.03958900
v 0.00194700 0.04486200 0.04020900
v -0.00401200 0.04439400 0.04007200
v -0.02675100 0.04460900 0.03007400
v -0.02956500 0.04485900 0.02731900
v -0.03358000 0.04435900 0.02226900
v -0.03634900 0.04485300 0.01730100
v -0.03792800 0.04452400 0.01345900
v -0.03634900 0.04485300 0.01730100
v -0.03636100 0.06787700 0.01727200
v -0.03779600 0.06824700 0.01377600
v -0.03358000 0.04435900 0.02226900
v -0.03440000 0.06783700 0.02091200
v -0.02675100 0.04460900 0.03007400
v -0.02619500 0.06829500 0.03050600
v -0.03071800 0.06781200 0.02609500
v -0.02257500 0.04435100 0.03337200
v -0.01882100 0.06787200 0.03562200
v -0.02377600 0.06784500 0.03248100
v -0.00401200 0.04439400 0.04007200
v -0.00393000 0.06775900 0.04013400
v -0.01089000 0.04435800 0.03880100
v -0.01163500 0.06777600 0.03862600
v -0.01707300 0.04486500 0.03645300
v 0.00194700 0.04486200 0.04020900
v 0.00184500 0.06787700 0.04021200
v 0.00757100 0.04449900 0.03958900
v 0.00803400 0.06789100 0.03948900
v 0.02251100 0.04452600 0.03340800
v 0.01949500 0.06778300 0.03527800
v 0.01732400 0.04436600 0.03632300
v 0.02614100 0.06786700 0.03068400
v 0.01338600 0.06785200 0.03796900
v 0.01350000 0.04486100 0.03792300
v 0.03121400 0.04436200 0.02549600
v 0.02996200 0.06784200 0.02688300
v 0.03363000 0.06785100 0.02218100
v 0.03794600 0.04486300 0.01343700
v 0.03792900 0.06785100 0.01348300
v 0.03620600 0.06827000 0.01750200
v 0.03955200 0.04435100 0.00781300
v 0.03952400 0.06788400 0.00779000
v 0.04029500 0.04491200 0.00053900
v 0.04035500 0.06790700 0.00019700
v 0.03983900 0.04446600 -0.00571500
v 0.03956300 0.06789800 -0.00756400
v -0.03942500 0.04492600 0.00835800
v -0.03792800 0.04452400 0.01345900
v 0.03890500 0.04462100 -0.01040600
v 0.03507300 0.04485800 -0.01980100
v 0.03642200 0.06788400 -0.01712000
v 0.03728700 0.04441200 -0.01522600
v 0.03319400 0.06781200 -0.02284800
v 0.03278500 0.04437500 -0.02335600
v 0.03798300 0.06784500 -0.01327300
v 0.02493100 0.06785400 -0.03163800
v 0.02355800 0.04435100 -0.03271200
v 0.01915300 0.06784200 -0.03545200
v 0.02919300 0.04498500 -0.02783000
v 0.02885600 0.06828500 -0.02800700
v 0.00911300 0.04435700 -0.03928000
v 0.01375300 0.06786000 -0.03782800
v 0.01660800 0.04490100 -0.03675200
v 0.00954400 0.06785400 -0.03909100
v 0.00391600 0.06782500 -0.04008500
v -0.00593400 0.06786000 -0.03980100
v -0.00248800 0.04438600 -0.04018000
v -0.00683600 0.04484900 -0.03969300
v -0.00185200 0.06788700 -0.04019700
v -0.01152300 0.06778300 -0.03861400
v -0.01148500 0.04449700 -0.03860500
v 0.00206900 0.04487400 -0.04025000
v -0.01712000 0.06788300 -0.03642100
v -0.01790700 0.04447600 -0.03615000
v -0.02268700 0.06785700 -0.03328600
v -0.02427600 0.04484300 -0.03217700
v -0.03400600 0.04435500 -0.02153900
v -0.03151400 0.06784100 -0.02510500
v -0.03132600 0.04486000 -0.02533100
v -0.03548000 0.06824800 -0.01902700
v -0.02754200 0.06787900 -0.02935200
v -0.02774200 0.04435400 -0.02918500
v -0.03879300 0.04485800 -0.01082800
v -0.03782900 0.06786000 -0.01375100
v -0.03670300 0.04435100 -0.01660800
v -0.03909100 0.06785400 -0.00954500
v -0.03986400 0.04438100 -0.00582900
v -0.04007400 0.06782400 -0.00403300
v -0.03954500 0.06787000 0.00775700
v -0.04031400 0.04439500 0.00130800
v -0.03942500 0.04492600 0.00835800
v -0.04015900 0.06830600 0.00153200
v 0.03890500 0.04462100 -0.01040600
v 0.03956300 0.06789800 -0.00756400
v -0.03942500 0.04492600 0.00835800
v -0.04031400 0.04439500 0.00130800
v -0.03792800 0.04452400 0.01345900
v -0.03986400 0.04438100 -0.00582900
v -0.03879300 0.04485800 -0.01082800
v -0.03670300 0.04435100 -0.01660800
v -0.03400600 0.04435500 -0.02153900
v -0.03132600 0.04486000 -0.02533100
v -0.02774200 0.04435400 -0.02918500
v -0.02427600 0.04484300 -0.03217700
v -0.01790700 0.04447600 -0.03615000
v -0.00683600 0.04484900 -0.03969300
v -0.00248800 0.04438600 -0.04018000
v -0.01148500 0.04449700 -0.03860500
v 0.00206900 0.04487400 -0.04025000
v 0.00911300 0.04435700 -0.03928000
v 0.02355800 0.04435100 -0.03271200
v 0.02919300 0.04498500 -0.02783000
v 0.03278500 0.04437500 -0.02335600
v -0.04031400 0.04439500 0.00130800
v -0.03986400 0.04438100 -0.00582900
v -0.03358000 0.04435900 0.02226900
v -0.03358000 0.04435900 0.02226900
v -0.03670300 0.04435100 -0.01660800
v -0.03670300 0.04435100 -0.01660800
v -0.03400600 0.04435500 -0.02153900
v -0.03400600 0.04435500 -0.02153900
v -0.03400600 0.04435500 -0.02153900
v -0.02774200 0.04435400 -0.02918500
v -0.02774200 0.04435400 -0.02918500
v 0.00911300 0.04435700 -0.03928000
v 0.00911300 0.04435700 -0.03928000
v 0.00911300 0.04435700 -0.03928000
v 0.02355800 0.04435100 -0.03271200
v 0.02355800 0.04435100 -0.03271200
v -0.02257500 0.04435100 0.03337200
v -0.02257500 0.04435100 0.03337200
v -0.02257500 0.04435100 0.03337200
v -0.03792800 0.04452400 0.01345900
v -0.01089000 0.04435800 0.03880100
v -0.01089000 0.04435800 0.03880100
v 0.03552100 0.04435500 0.01899300
v 0.03552100 0.04435500 0.01899300
v 0.03121400 0.04436200 0.02549600
v -0.02675100 0.04460900 0.03007400
v 0.00757100 0.04449900 0.03958900
v -0.00401200 0.04439400 0.04007200
v 0.01732400 0.04436600 0.03632300
v 0.02251100 0.04452600 0.03340800
v -0.01790700 0.04447600 -0.03615000
v -0.00248800 0.04438600 -0.04018000
v -0.01148500 0.04449700 -0.03860500
v 0.03983900 0.04446600 -0.00571500
v 0.03728700 0.04441200 -0.01522600
v 0.03890500 0.04462100 -0.01040600
v 0.03955200 0.04435100 0.00781300
v 0.03278500 0.04437500 -0.02335600
v 0.03867900 0.06835600 -0.01003900
v 0.03956300 0.06789800 -0.00756400
v 0.03798300 0.06784500 -0.01327300
v 0.03642200 0.06788400 -0.01712000
v 0.03319400 0.06781200 -0.02284800
v 0.03454800 0.06835100 -0.01982000
v 0.01817100 0.06834800 -0.03552100
v 0.02493100 0.06785400 -0.03163800
v 0.01915300 0.06784200 -0.03545200
v 0.01375300 0.06786000 -0.03782800
v 0.00888500 0.06835000 -0.03879800
v 0.00954400 0.06785400 -0.03909100
v 0.00391600 0.06782500 -0.04008500
v -0.00185200 0.06788700 -0.04019700
v 0.00071600 0.06835000 -0.03983600
v -0.00765700 0.06835200 -0.03906800
v -0.01538300 0.06834600 -0.03673300
v -0.01152300 0.06778300 -0.03861400
v -0.01712000 0.06788300 -0.03642100
v -0.02268700 0.06785700 -0.03328600
v -0.02417600 0.06834700 -0.03175100
v -0.02754200 0.06787900 -0.02935200
v -0.03151400 0.06784100 -0.02510500
v -0.03067400 0.06835000 -0.02528100
v -0.03879800 0.06835000 -0.00888500
v -0.03782900 0.06786000 -0.01375100
v -0.03909100 0.06785400 -0.00954500
v -0.04007400 0.06782400 -0.00403300
v -0.03440000 0.06783700 0.02091200
v -0.03071800 0.06781200 0.02609500
v -0.03247600 0.06835300 0.02302200
v -0.03636100 0.06787700 0.01727200
v -0.02619500 0.06829500 0.03050600
v -0.02377600 0.06784500 0.03248100
v -0.01882100 0.06787200 0.03562200
v -0.01163500 0.06777600 0.03862600
v -0.01519600 0.06834900 0.03688700
v -0.00681500 0.06835000 0.03916100
v -0.00393000 0.06775900 0.04013400
v 0.00184500 0.06787700 0.04021200
v -0.00033900 0.06834900 0.03982000
v -0.03954500 0.06787000 0.00775700
v -0.03779600 0.06824700 0.01377600
v -0.04015900 0.06830600 0.00153200
v 0.00765500 0.06835200 0.03906800
v 0.01538000 0.06834600 0.03673400
v 0.01338600 0.06785200 0.03796900
v 0.01949500 0.06778300 0.03527800
v 0.02996200 0.06784200 0.02688300
v 0.03363000 0.06785100 0.02218100
v 0.03067400 0.06835000 0.02528100
v 0.02434000 0.06835600 0.03162900
v 0.02614100 0.06786700 0.03068400
v 0.03879800 0.06835000 0.00888600
v 0.03792900 0.06785100 0.01348300
v 0.03952400 0.06788400 0.00779000
v 0.04035500 0.06790700 0.00019700
v 0.03982700 0.06835000 0.00083600
v 0.03867900 0.06835600 -0.01003900
v 0.03956300 0.06789800 -0.00756400
v 0.03794600 0.04486300 0.01343700
v 0.03552100 0.04435500 0.01899300
v 0.01732400 0.04436600 0.03632300
v 0.01350000 0.04486100 0.03792300
v 0.00757100 0.04449900 0.03958900
v -0.01089000 0.04435800 0.03880100
v -0.01707300 0.04486500 0.03645300
v -0.02257500 0.04435100 0.03337200
v -0.02956500 0.04485900 0.02731900
v 0.02732100 0.04486000 0.02956300
v 0.03552100 0.04435500 0.01899300
v -0.03954500 0.06787000 0.00775700
v 0.01660800 0.04490100 -0.03675200
v 0.02355800 0.04435100 -0.03271200
v 0.03507300 0.04485800 -0.01980100
v 0.03728700 0.04441200 -0.01522600
v 0.02885600 0.06828500 -0.02800700
v 0.02885600 0.06828500 -0.02800700
v -0.00593400 0.06786000 -0.03980100
v -0.03548000 0.06824800 -0.01902700
v -0.04015900 0.06830600 0.00153200
v 0.00803400 0.06789100 0.03948900
v 0.03620600 0.06827000 0.01750200
v 0.03620600 0.06827000 0.01750200
vn 0.70100000 -0.70600000 -0.10060000
vn 0.70750000 -0.70670000 0.00950000
vn 0.69600000 -0.70480000 0.13710000
vn 0.54780000 -0.70700000 0.44730000
vn 0.47980000 -0.70710000 0.51940000
vn 0.39590000 -0.70620000 0.58700000
vn 0.13330000 -0.70530000 0.69630000
vn 0.03410000 -0.70710000 0.70630000
vn -0.07030000 -0.70620000 0.70460000
vn -0.47030000 -0.70660000 0.52870000
vn -0.51950000 -0.70710000 0.47980000
vn -0.59020000 -0.70580000 0.39170000
vn -0.63860000 -0.70700000 0.30390000
vn -0.66680000 -0.70670000 0.23650000
vn -0.90290000 0.00000000 0.42980000
vn -0.90330000 0.00000000 0.42900000
vn -0.93960000 0.00000000 0.34240000
vn -0.83340000 -0.00000000 0.55270000
vn -0.85450000 0.00000000 0.51950000
vn -0.66460000 -0.00000000 0.74720000
vn -0.65150000 0.00000000 0.75860000
vn -0.76210000 -0.00000000 0.64740000
vn -0.56030000 0.00000000 0.82830000
vn -0.46720000 0.00000000 0.88420000
vn -0.59060000 0.00000000 0.80690000
vn -0.09960000 -0.00000000 0.99500000
vn -0.09750000 -0.00000000 0.99520000
vn -0.27020000 0.00000000 0.96280000
vn -0.28840000 0.00000000 0.95750000
vn -0.42420000 0.00000000 0.90560000
vn 0.04840000 0.00000000 0.99880000
vn 0.04580000 -0.00000000 0.99890000
vn 0.18790000 0.00000000 0.98220000
vn 0.19940000 -0.00000000 0.97990000
vn 0.55880000 -0.00000000 0.82930000
vn 0.48370000 -0.00000000 0.87520000
vn 0.43050000 -0.00000000 0.90260000
vn 0.64850000 -0.00000000 0.76120000
vn 0.33250000 -0.00000000 0.94310000
vn 0.33540000 -0.00000000 0.94210000
vn 0.77450000 -0.00000000 0.63260000
vn 0.74430000 0.00000000 0.66780000
vn 0.83480000 0.00000000 0.55060000
vn 0.94270000 -0.00000000 0.33380000
vn 0.94230000 0.00000000 0.33480000
vn 0.90030000 0.00000000 0.43520000
vn 0.98100000 -0.00000000 0.19380000
vn 0.98110000 0.00000000 0.19340000
vn 0.99990000 -0.00000000 0.01340000
vn 1.00000000 -0.00000000 0.00490000
vn 0.98990000 -0.00000000 -0.14200000
vn 0.98220000 0.00000000 -0.18770000
vn -0.97820000 0.00000000 0.20750000
vn -0.94240000 0.00000000 0.33440000
vn 0.96610000 -0.00000000 -0.25830000
vn 0.87080000 0.00000000 -0.49160000
vn 0.90500000 0.00000000 -0.42540000
vn 0.92580000 -0.00000000 -0.37800000
vn 0.82370000 -0.00000000 -0.56700000
vn 0.81450000 0.00000000 -0.58020000
vn 0.94400000 0.00000000 -0.32990000
vn 0.61890000 0.00000000 -0.78540000
vn 0.58440000 -0.00000000 -0.81150000
vn 0.47530000 0.00000000 -0.87980000
vn 0.72380000 -0.00000000 -0.69000000
vn 0.71760000 -0.00000000 -0.69640000
vn 0.22600000 -0.00000000 -0.97410000
vn 0.34170000 0.00000000 -0.93980000
vn 0.41180000 -0.00000000 -0.91130000
vn 0.23720000 0.00000000 -0.97150000
vn 0.09720000 0.00000000 -0.99530000
vn -0.14750000 0.00000000 -0.98910000
vn -0.06180000 -0.00000000 -0.99810000
vn -0.16970000 0.00000000 -0.98550000
vn -0.04600000 0.00000000 -0.99890000
vn -0.28600000 0.00000000 -0.95820000
vn -0.28520000 0.00000000 -0.95850000
vn 0.05140000 -0.00000000 -0.99870000
vn -0.42540000 0.00000000 -0.90500000
vn -0.44380000 -0.00000000 -0.89610000
vn -0.56320000 0.00000000 -0.82630000
vn -0.60230000 -0.00000000 -0.79830000
vn -0.84480000 -0.00000000 -0.53510000
vn -0.78220000 0.00000000 -0.62310000
vn -0.77760000 -0.00000000 -0.62880000
vn -0.88120000 0.00000000 -0.47270000
vn -0.68430000 -0.00000000 -0.72920000
vn -0.68900000 0.00000000 -0.72480000
vn -0.96320000 -0.00000000 -0.26890000
vn -0.93980000 0.00000000 -0.34160000
vn -0.91110000 0.00000000 -0.41220000
vn -0.97150000 0.00000000 -0.23720000
vn -0.98950000 0.00000000 -0.14470000
vn -0.99500000 -0.00000000 -0.10010000
vn -0.98130000 0.00000000 0.19240000
vn -0.99950000 -0.00000000 0.03240000
vn -0.97830000 -0.00000000 0.20740000
vn -0.99930000 0.00000000 0.03820000
vn 0.96600000 0.00000000 -0.25840000
vn 0.98220000 -0.00000000 -0.18800000
vn -0.69180000 -0.70710000 0.14670000
vn -0.70810000 -0.70580000 0.02340000
vn -0.66950000 -0.70380000 0.23750000
vn -0.70070000 -0.70600000 -0.10250000
vn -0.68120000 -0.70690000 -0.19010000
vn -0.64510000 -0.70630000 -0.29160000
vn -0.59820000 -0.70610000 -0.37890000
vn -0.55000000 -0.70680000 -0.44480000
vn -0.48870000 -0.70460000 -0.51450000
vn -0.42610000 -0.70660000 -0.56490000
vn -0.31360000 -0.70690000 -0.63400000
vn -0.12020000 -0.70690000 -0.69700000
vn -0.04360000 -0.70560000 -0.70730000
vn -0.20190000 -0.70570000 -0.67910000
vn 0.03620000 -0.70680000 -0.70650000
vn 0.16090000 -0.70450000 -0.69120000
vn 0.41480000 -0.70480000 -0.57550000
vn 0.51210000 -0.70670000 -0.48820000
vn 0.57710000 -0.70550000 -0.41130000
vn -0.00000000 -1.00000000 0.00000000
vn -0.00000000 -1.00000000 0.00000000
vn 0.00010000 -1.00000000 -0.00000000
vn -0.00000000 -1.00000000 0.00000000
vn 0.00010000 -1.00000000 -0.00000000
vn -0.00000000 -1.00000000 0.00000000
vn -0.00000000 -1.00000000 0.00000000
vn -0.00010000 -1.00000000 -0.00020000
vn 0.00010000 -1.00000000 0.00010000
vn -0.00000000 -1.00000000 0.00000000
vn 0.00010000 -1.00000000 0.00010000
vn -0.00010000 -1.00000000 -0.00020000
vn -0.00000000 -1.00000000 0.00000000
vn 0.00010000 -1.00000000 0.00010000
vn -0.00010000 -1.00000000 -0.00020000
vn -0.00000000 -1.00000000 0.00000000
vn 0.00000000 -1.00000000 0.00010000
vn 0.00010000 -1.00000000 -0.00000000
vn -0.00000000 -1.00000000 0.00000000
vn -0.00000000 -1.00000000 0.00000000
vn 0.00000000 -1.00000000 0.00010000
vn -0.00000000 -1.00000000 0.00000000
vn -0.00000000 -1.00000000 0.00000000
vn 0.00000000 -1.00000000 0.00010000
vn -0.00000000 -1.00000000 0.00000000
vn -0.00000000 -1.00000000 0.00000000
vn -0.00000000 -1.00000000 0.00000000
vn -0.00000000 -1.00000000 0.00000000
vn -0.00000000 -1.00000000 0.00000000
vn -0.00000000 -1.00000000 0.00000000
vn -0.00000000 -1.00000000 0.00000000
vn -0.00000000 -1.00000000 0.00000000
vn -0.00000000 -1.00000000 0.00000000
vn -0.00000000 -1.00000000 0.00000000
vn -0.00000000 -1.00000000 0.00000000
vn -0.00000000 -1.00000000 0.00000000
vn -0.00000000 -1.00000000 0.00000000
vn -0.00000000 -1.00000000 0.00000000
vn 0.68550000 0.70590000 -0.17830000
vn 0.69570000 0.70590000 -0.13290000
vn 0.66750000 0.70710000 -0.23320000
vn 0.64020000 0.70680000 -0.30100000
vn 0.58280000 0.70680000 -0.40100000
vn 0.61380000 0.70650000 -0.35230000
vn 0.32260000 0.70580000 -0.63070000
vn 0.43800000 0.70670000 -0.55560000
vn 0.33640000 0.70670000 -0.62240000
vn 0.24170000 0.70690000 -0.66470000
vn 0.15800000 0.70660000 -0.68970000
vn 0.16770000 0.70710000 -0.68690000
vn 0.06860000 0.70680000 -0.70400000
vn -0.03250000 0.70680000 -0.70660000
vn 0.01290000 0.70640000 -0.70770000
vn -0.13620000 0.70650000 -0.69450000
vn -0.27330000 0.70660000 -0.65280000
vn -0.20220000 0.70690000 -0.67780000
vn -0.30100000 0.70680000 -0.64020000
vn -0.39840000 0.70670000 -0.58470000
vn -0.42900000 0.70580000 -0.56380000
vn -0.48410000 0.70680000 -0.51580000
vn -0.55330000 0.70670000 -0.44090000
vn -0.54560000 0.70710000 -0.44970000
vn -0.68970000 0.70660000 -0.15800000
vn -0.66470000 0.70690000 -0.24170000
vn -0.68690000 0.70710000 -0.16780000
vn -0.70380000 0.70680000 -0.07070000
vn -0.60420000 0.70710000 0.36730000
vn -0.53920000 0.70680000 0.45800000
vn -0.57740000 0.70650000 0.40920000
vn -0.63890000 0.70680000 0.30360000
vn -0.46180000 0.70510000 0.53810000
vn -0.41770000 0.70710000 0.57050000
vn -0.33050000 0.70660000 0.62570000
vn -0.20430000 0.70650000 0.67760000
vn -0.26960000 0.70600000 0.65490000
vn -0.12120000 0.70710000 0.69670000
vn -0.06880000 0.70690000 0.70390000
vn 0.03240000 0.70680000 0.70660000
vn -0.00620000 0.70660000 0.70760000
vn -0.69510000 0.70590000 0.13620000
vn -0.66520000 0.70620000 0.24260000
vn -0.71570000 0.69780000 0.02990000
vn 0.13610000 0.70650000 0.69450000
vn 0.27320000 0.70660000 0.65280000
vn 0.23520000 0.70700000 0.66700000
vn 0.34230000 0.70670000 0.61910000
vn 0.52640000 0.70710000 0.47220000
vn 0.59060000 0.70670000 0.38940000
vn 0.54570000 0.70710000 0.44970000
vn 0.43200000 0.70560000 0.56170000
vn 0.45910000 0.70650000 0.53860000
vn 0.68970000 0.70670000 0.15800000
vn 0.66630000 0.70700000 0.23690000
vn 0.69420000 0.70660000 0.13690000
vn 0.70830000 0.70590000 0.00350000
vn 0.70760000 0.70650000 0.01500000
vn 0.68760000 0.70400000 -0.17760000
vn 0.69470000 0.70700000 -0.13280000
vn 0.66660000 -0.70710000 0.23590000
vn 0.62490000 -0.70570000 0.33380000
vn 0.30490000 -0.70620000 0.63900000
vn 0.23720000 -0.70710000 0.66620000
vn 0.13350000 -0.70430000 0.69720000
vn -0.19180000 -0.70590000 0.68180000
vn -0.29980000 -0.70710000 0.64040000
vn -0.39670000 -0.70610000 0.58660000
vn -0.73450000 -0.00000000 0.67870000
vn 0.67870000 -0.00000000 0.73440000
vn 0.88180000 -0.00000000 0.47160000
vn -0.98130000 -0.00000000 0.19270000
vn 0.29140000 -0.70680000 -0.64460000
vn 0.41460000 -0.70350000 -0.57720000
vn 0.61590000 -0.70690000 -0.34780000
vn 0.65570000 -0.70600000 -0.26770000
vn 0.50890000 0.70480000 -0.49420000
vn 0.50890000 0.70480000 -0.49430000
vn -0.10430000 0.70700000 -0.69950000
vn -0.62450000 0.70570000 -0.33470000
vn -0.70770000 0.70600000 0.02700000
vn 0.14100000 0.70660000 0.69340000
vn 0.63780000 0.70580000 0.30840000
vn 0.63780000 0.70580000 0.30830000
vt 0.52290200 0.99693800
vt 0.54741400 1.00037300
vt 0.57581100 0.99581700
vt 0.65263100 0.99707700
vt 0.67463500 1.00007200
vt 0.69858000 0.99753700
vt 0.76186600 0.99707000
vt 0.78400400 1.00010500
vt 0.80715000 0.99663800
vt 0.90555500 0.99823700
vt 0.92091500 1.00006800
vt 0.94597100 0.99639200
vt 0.96820200 0.99999500
vt 0.98442300 0.99764300
vt 0.51399300 0.73496300
vt 0.51387900 0.53859300
vt 0.50048700 0.53543800
vt 0.53413400 0.73917900
vt 0.52852600 0.53892700
vt 0.57094200 0.73703900
vt 0.57342600 0.53502600
vt 0.55104400 0.53914400
vt 0.58978600 0.73924400
vt 0.60527700 0.53863000
vt 0.58449800 0.53886700
vt 0.66033300 0.73887800
vt 0.66064600 0.53959700
vt 0.63555800 0.73918600
vt 0.63286200 0.53945600
vt 0.61212700 0.73486100
vt 0.68145200 0.73488200
vt 0.68109200 0.53859300
vt 0.70149200 0.73797800
vt 0.70316200 0.53847000
vt 0.75906500 0.73775100
vt 0.74651100 0.53939000
vt 0.73798800 0.73911600
vt 0.77512800 0.53867700
vt 0.72286600 0.53880800
vt 0.72329900 0.73489000
vt 0.80081900 0.73914800
vt 0.79421200 0.53888700
vt 0.81533700 0.53880800
vt 0.84993200 0.73487300
vt 0.84975800 0.53881100
vt 0.83426500 0.53524000
vt 0.87064200 0.73924200
vt 0.87070200 0.53853000
vt 0.89653100 0.73445600
vt 0.89774400 0.53833500
vt 0.91874600 0.73826000
vt 0.92536100 0.53841400
vt 0.48044500 0.73433500
vt 0.49927500 0.73776900
vt 0.93569100 0.73693700
vt 0.52392700 0.73491500
vt 0.51330300 0.53852900
vt 0.50593100 0.73872300
vt 0.53659500 0.53914700
vt 0.53890000 0.73903900
vt 0.49859100 0.53886700
vt 0.57943600 0.53878800
vt 0.58559800 0.73924700
vt 0.60395900 0.53889000
vt 0.55921100 0.73383400
vt 0.56048400 0.53511500
vt 0.64206500 0.73919200
vt 0.62485900 0.53873700
vt 0.61406400 0.73455000
vt 0.64042700 0.53878400
vt 0.66067600 0.53903200
vt 0.69565200 0.53873500
vt 0.68337100 0.73894300
vt 0.69886500 0.73499500
vt 0.68111800 0.53850600
vt 0.71589100 0.53939000
vt 0.71577000 0.73799600
vt 0.66723600 0.73478300
vt 0.73718700 0.53853800
vt 0.74010900 0.73818100
vt 0.75982400 0.53876100
vt 0.76667800 0.73504600
vt 0.81796700 0.73921000
vt 0.80256400 0.53889600
vt 0.80152400 0.73490000
vt 0.82827800 0.53542200
vt 0.78196500 0.53857700
vt 0.78288800 0.73921300
vt 0.85964400 0.73491900
vt 0.84874800 0.53873800
vt 0.83787500 0.73924300
vt 0.86430700 0.53878400
vt 0.87774700 0.73899100
vt 0.88414300 0.53904100
vt 0.92604900 0.53865300
vt 0.90306000 0.73886900
vt 0.92821700 0.73433500
vt 0.90387800 0.53492900
vt 0.48792300 0.73693700
vt 0.47760500 0.53841200
vt 0.51253400 1.00071100
vt 0.54017400 0.99655600
vt 0.49169500 0.99586600
vt 0.56806300 0.99654200
vt 0.58796700 1.00007900
vt 0.61190500 0.99651600
vt 0.63382000 0.99639000
vt 0.65190900 1.00010400
vt 0.67240200 0.99537500
vt 0.69023400 0.99995100
vt 0.71952900 0.99832000
vt 0.76479500 0.99999600
vt 0.78186000 0.99627600
vt 0.74622500 0.99706500
vt 0.79959000 1.00026000
vt 0.82737300 0.99560900
vt 0.88936200 0.99574700
vt 0.91845400 1.00103300
vt 0.94078700 0.99602900
vt 0.03653400 0.10377300
vt 0.05553300 0.06345200
vt 0.00091100 0.27080000
vt 0.00091100 0.27080000
vt 0.09043900 0.01750800
vt 0.09043900 0.01750800
vt 0.10953800 0.00403000
vt 0.10953800 0.00403000
vt 0.10953800 0.00403000
vt 0.14436900 -0.00431000
vt 0.14436900 -0.00431000
vt 0.26192800 0.15708500
vt 0.26192800 0.15708500
vt 0.26192800 0.15708500
vt 0.28164900 0.28381200
vt 0.28164900 0.28381200
vt 0.00066900 0.40413200
vt 0.00066900 0.40413200
vt 0.00066900 0.40413200
vt 0.01208700 0.19144800
vt 0.01633200 0.50734700
vt 0.01633200 0.50734700
vt 0.18213900 0.66779200
vt 0.18213900 0.66779200
vt 0.15507200 0.68103200
vt -0.00153100 0.35906100
vt 0.06061000 0.62336900
vt 0.03037100 0.55649500
vt 0.09318600 0.66255600
vt 0.11347000 0.67625100
vt 0.18643800 0.01299200
vt 0.23513300 0.08169400
vt 0.20866200 0.03693300
vt 0.25479900 0.54479600
vt 0.27223000 0.47205100
vt 0.26422200 0.51089200
vt 0.22022700 0.62467400
vt 0.28132600 0.39588200
vt 0.26298300 0.52253100
vt 0.25375600 0.51583600
vt 0.27454200 0.51456500
vt 0.28907400 0.51516800
vt 0.31205500 0.51409200
vt 0.30056200 0.52294700
vt 0.38176900 0.52298000
vt 0.35435800 0.51463700
vt 0.37858700 0.51444600
vt 0.39922200 0.51476500
vt 0.41663100 0.52303200
vt 0.41460700 0.51466400
vt 0.43464500 0.51430800
vt 0.45480000 0.51517900
vt 0.44576400 0.52293800
vt 0.47557200 0.52311300
vt 0.50412800 0.52288100
vt 0.48912700 0.51370400
vt 0.51017300 0.51515400
vt 0.53251200 0.51471300
vt 0.53990600 0.52297700
vt 0.55439700 0.51505200
vt 0.57470900 0.51446000
vt 0.57239400 0.52304000
vt 0.63773000 0.52303200
vt 0.62032900 0.51476500
vt 0.63570400 0.51466500
vt 0.65533200 0.51428900
vt 0.30410300 0.51434800
vt 0.32634000 0.51398000
vt 0.31400700 0.52316800
vt 0.28964700 0.51497900
vt 0.34845600 0.52063100
vt 0.35937400 0.51444300
vt 0.37991700 0.51489300
vt 0.40709300 0.51359500
vt 0.39335800 0.52291400
vt 0.42406800 0.52304000
vt 0.43460700 0.51323400
vt 0.45477400 0.51496400
vt 0.44708600 0.52297800
vt 0.25443000 0.51544200
vt 0.27641800 0.51896700
vt 0.23259600 0.52792400
vt 0.47556300 0.52311800
vt 0.50411400 0.52287200
vt 0.49604400 0.51456900
vt 0.51941500 0.51370200
vt 0.56650800 0.51444200
vt 0.58736900 0.51456200
vt 0.57239400 0.52304000
vt 0.54062400 0.52322800
vt 0.54768800 0.51476300
vt 0.63772700 0.52302700
vt 0.62132700 0.51457300
vt 0.64200000 0.51503000
vt 0.66869800 0.51534200
vt 0.66644100 0.52296300
vt 0.70512200 0.52447200
vt 0.69600800 0.51487900
vt 0.59862800 1.00012300
vt 0.62226300 0.99615900
vt 0.72177500 0.99632400
vt 0.73792500 1.00008900
vt 0.76202500 0.99676000
vt 0.83449900 0.99631700
vt 0.86021100 1.00011000
vt 0.88483700 0.99648000
vt 0.55699300 0.73490600
vt 0.78088300 0.73490400
vt 0.82845400 0.73921000
vt 0.47828100 0.53865200
vt 0.85811200 1.00057100
vt 0.88935500 0.99512200
vt 0.95724500 1.00008300
vt 0.97711100 0.99672700
vt 0.33563300 0.52082200
vt 0.33563300 0.52082200
vt 0.46914500 0.51476700
vt 0.60014200 0.51922400
vt 0.67483000 0.52019700
vt 0.47656400 0.51499300
vt 0.60603700 0.51976000
vt 0.60603700 0.51976000
f 1/1/1 2/2/2 3/3/3
f 4/4/4 5/5/5 6/6/6
f 7/7/7 8/8/8 9/9/9
f 10/10/10 11/11/11 12/12/12
f 12/12/12 13/13/13 14/14/14
f 15/15/15 16/16/16 17/17/17
f 16/16/16 15/15/15 19/19/19
f 22/22/22 226/226/226 20/20/20
f 23/23/23 30/30/30 24/24/24
f 21/21/21 20/20/20 25/25/25
f 27/27/27 29/29/29 28/28/28
f 29/29/29 24/24/24 30/30/30
f 27/27/27 26/26/26 31/31/31
f 32/32/32 31/31/31 34/34/34
f 35/35/35 36/36/36 37/37/37
f 35/35/35 227/227/227 38/38/38
f 39/39/39 40/40/40 36/36/36
f 34/34/34 33/33/33 40/40/40
f 38/38/38 227/227/227 42/42/42
f 41/41/41 228/228/228 43/43/43
f 44/44/44 45/45/45 46/46/46
f 45/45/45 44/44/44 48/48/48
f 50/50/50 48/48/48 49/49/49
f 50/50/50 49/49/49 51/51/51
f 17/17/17 229/229/229 53/53/53
f 55/55/55 52/52/52 51/51/51
f 57/57/57 61/61/61 58/58/58
f 57/57/57 56/56/56 59/59/59
f 60/60/60 59/59/59 56/56/56
f 63/63/63 69/69/69 64/64/64
f 59/59/59 60/60/60 65/65/65
f 65/65/65 63/63/63 62/62/62
f 67/67/67 70/70/70 68/68/68
f 67/67/67 78/78/78 71/71/71
f 64/64/64 69/69/69 68/68/68
f 72/72/72 75/75/75 74/74/74
f 76/76/76 72/72/72 74/74/74
f 75/75/75 78/78/78 73/73/73
f 71/71/71 78/78/78 75/75/75
f 80/80/80 82/82/82 81/81/81
f 76/76/76 77/77/77 79/79/79
f 83/83/83 84/84/84 85/85/85
f 83/83/83 91/91/91 86/86/86
f 87/87/87 82/82/82 88/88/88
f 81/81/81 82/82/82 87/87/87
f 84/84/84 87/87/87 85/85/85
f 89/89/89 90/90/90 91/91/91
f 90/90/90 89/89/89 92/92/92
f 93/93/93 94/94/94 92/92/92
f 86/86/86 91/91/91 90/90/90
f 95/95/95 98/98/98 96/96/96
f 96/96/96 98/98/98 94/94/94
f 58/58/58 61/61/61 99/99/99
f 100/100/100 99/99/99 61/61/61
f 101/101/101 102/102/102 103/103/103
f 104/104/104 105/105/105 106/106/106
f 107/107/107 108/108/108 109/109/109
f 109/109/109 110/110/110 111/111/111
f 112/112/112 113/113/113 114/114/114
f 115/115/115 116/116/116 113/113/113
f 117/117/117 118/118/118 119/119/119
f 120/120/120 121/121/121 123/123/123
f 125/125/125 123/123/123 121/121/121
f 128/128/128 130/130/130 133/133/133
f 135/135/135 156/156/156 125/125/125
f 125/125/125 126/126/126 135/135/135
f 122/122/122 124/124/124 137/137/137
f 139/139/139 120/120/120 123/123/123
f 141/141/141 142/142/142 144/144/144
f 138/138/138 145/145/145 123/123/123
f 146/146/146 147/147/147 148/148/148
f 144/144/144 149/149/149 148/148/148
f 147/147/147 141/141/141 148/148/148
f 141/141/141 144/144/144 148/148/148
f 140/140/140 136/136/136 143/143/143
f 150/150/150 151/151/151 129/129/129
f 150/150/150 152/152/152 151/151/151
f 129/129/129 151/151/151 132/132/132
f 131/131/131 134/134/134 127/127/127
f 153/153/153 154/154/154 155/155/155
f 138/138/138 156/156/156 142/142/142
f 153/153/153 156/156/156 154/154/154
f 157/157/157 156/156/156 135/135/135
f 157/157/157 154/154/154 156/156/156
f 158/158/158 159/159/159 160/160/160
f 158/158/158 160/160/160 161/161/161
f 161/161/161 162/162/162 163/163/163
f 164/164/164 165/165/165 166/166/166
f 166/166/166 167/167/167 164/164/164
f 168/168/168 169/169/169 170/170/170
f 170/170/170 171/171/171 172/172/172
f 168/168/168 167/167/167 169/169/169
f 161/161/161 163/163/163 158/158/158
f 173/173/173 172/172/172 171/171/171
f 174/174/174 175/175/175 176/176/176
f 176/176/176 177/177/177 178/178/178
f 178/178/178 177/177/177 179/179/179
f 179/179/179 180/180/180 181/181/181
f 182/182/182 183/183/183 184/184/184
f 182/182/182 184/184/184 185/185/185
f 174/174/174 173/173/173 175/175/175
f 186/186/186 187/187/187 188/188/188
f 189/189/189 186/186/186 188/188/188
f 190/190/190 191/191/191 192/192/192
f 192/192/192 193/193/193 194/194/194
f 195/195/195 193/193/193 196/196/196
f 196/196/196 197/197/197 198/198/198
f 199/199/199 200/200/200 201/201/201
f 190/190/190 188/188/188 187/187/187
f 194/194/194 190/190/190 192/192/192
f 195/195/195 194/194/194 193/193/193
f 202/202/202 198/198/198 197/197/197
f 203/203/203 204/204/204 205/205/205
f 206/206/206 207/207/207 208/208/208
f 209/209/209 210/210/210 206/206/206
f 205/205/205 210/210/210 209/209/209
f 211/211/211 212/212/212 213/213/213
f 213/213/213 214/214/214 215/215/215
f 216/216/216 214/214/214 217/217/217
f 203/203/203 202/202/202 204/204/204
f 214/214/214 216/216/216 215/215/215
f 3/3/3 218/218/218 219/219/219
f 220/220/220 221/221/221 222/222/222
f 223/223/223 224/224/224 225/225/225
f 15/15/15 17/17/17 54/54/54
f 18/18/18 226/226/226 22/22/22
f 44/44/44 46/46/46 228/228/228
f 46/46/46 43/43/43 228/228/228
f 116/116/116 230/230/230 231/231/231
f 119/119/119 232/232/232 233/233/233
f 162/162/162 234/234/234 163/163/163
f 167/167/167 168/168/168 164/164/164
f 170/170/170 172/172/172 168/168/168
f 165/165/165 164/164/164 235/235/235
f 173/173/173 236/236/236 175/175/175
f 173/173/173 171/171/171 236/236/236
f 176/176/176 178/178/178 174/174/174
f 179/179/179 181/181/181 178/178/178
f 180/180/180 237/237/237 181/181/181
f 183/183/183 182/182/182 237/237/237
f 185/185/185 238/238/238 182/182/182
f 189/189/189 188/188/188 200/200/200
f 196/196/196 198/198/198 195/195/195
f 202/202/202 197/197/197 239/239/239
f 205/205/205 209/209/209 203/203/203
f 206/206/206 208/208/208 209/209/209
f 207/207/207 240/240/240 208/208/208
f 212/212/212 211/211/211 241/241/241
f 213/213/213 215/215/215 211/211/211
f 202/202/202 239/239/239 204/204/204
f 15/15/15 18/18/18 19/19/19
f 22/22/22 20/20/20 21/21/21
f 23/23/23 24/24/24 25/25/25
f 20/20/20 23/23/23 25/25/25
f 27/27/27 28/28/28 26/26/26
f 29/29/29 30/30/30 28/28/28
f 27/27/27 31/31/31 32/32/32
f 31/31/31 33/33/33 34/34/34
f 35/35/35 38/38/38 36/36/36
f 40/40/40 37/37/37 36/36/36
f 34/34/34 40/40/40 39/39/39
f 227/227/227 41/41/41 42/42/42
f 41/41/41 43/43/43 42/42/42
f 44/44/44 47/47/47 48/48/48
f 48/48/48 47/47/47 49/49/49
f 50/50/50 51/51/51 52/52/52
f 17/17/17 53/53/53 54/54/54
f 57/57/57 58/58/58 56/56/56
f 63/63/63 64/64/64 62/62/62
f 59/59/59 65/65/65 66/66/66
f 65/65/65 62/62/62 66/66/66
f 67/67/67 68/68/68 69/69/69
f 67/67/67 71/71/71 70/70/70
f 75/75/75 73/73/73 74/74/74
f 76/76/76 74/74/74 77/77/77
f 80/80/80 81/81/81 79/79/79
f 77/77/77 80/80/80 79/79/79
f 83/83/83 86/86/86 84/84/84
f 87/87/87 88/88/88 85/85/85
f 93/93/93 92/92/92 89/89/89
f 95/95/95 96/96/96 97/97/97
f 96/96/96 94/94/94 93/93/93
f 156/156/156 138/138/138 125/125/125
f 18/18/18 22/22/22 19/19/19

