mtllib material.mtl
usemtl Material-7011油漆.003
v 0.03797200 0.15495000 -0.24539700
v 0.03482600 0.15495000 -0.23418100
v 0.03965300 0.14850600 -0.24011300
v 0.02861800 0.15495000 -0.22462100
v 0.03528100 0.14857900 -0.22945800
v 0.01990200 0.15495000 -0.21733600
v 0.01905300 0.14846500 -0.21377300
v 0.02668200 0.14952200 -0.21949300
v 0.01009700 0.15495000 -0.21299400
v -0.03308100 0.15495000 -0.26920100
v -0.03998800 0.14849100 -0.25936000
v -0.03797200 0.15495000 -0.25460300
v -0.03430100 0.14847400 -0.27191500
v -0.02329700 0.15495000 -0.28033600
v -0.02948000 0.15045000 -0.27740500
v -0.01009700 0.15495000 -0.28689300
v -0.01870400 0.14846300 -0.28657300
v -0.00283800 0.14904000 -0.29069800
v 0.00460300 0.15495000 -0.28797200
v 0.01920100 0.15495000 -0.28308100
v 0.00995400 0.14864300 -0.28952000
v 0.03033600 0.15495000 -0.27329700
v 0.02230900 0.14847800 -0.28439800
v 0.03689300 0.15495000 -0.26009700
v 0.03638400 0.14849800 -0.26880000
v 0.03797200 0.15495000 -0.24539700
v 0.04060900 0.14875500 -0.25422300
v 0.03033600 0.15045000 -0.27645300
v -0.01824700 0.15045000 -0.21412400
v -0.01201300 0.14846500 -0.21106700
v -0.00430800 0.15491000 -0.21174000
v -0.01766700 0.15495000 -0.21607400
v -0.02796400 0.14881600 -0.22007800
v -0.02955400 0.15495000 -0.22571800
v -0.03628400 0.14851300 -0.23115500
v -0.03673600 0.15495000 -0.23934600
v -0.03797200 0.15495000 -0.25460300
v -0.04026800 0.14945700 -0.24436100
v 0.03033600 0.15495000 -0.27329700
v 0.01920100 0.15495000 -0.28308100
v -0.02329700 0.15495000 -0.28033600
v 0.00460300 0.15495000 -0.28797200
v 0.01990200 0.15495000 -0.21733600
v 0.01990200 0.15495000 -0.21733600
v 0.02861800 0.15495000 -0.22462100
v 0.03482600 0.15495000 -0.23418100
v 0.03482600 0.15495000 -0.23418100
v 0.01009700 0.15495000 -0.21299400
v -0.01009700 0.15495000 -0.28689300
v -0.02329700 0.15495000 -0.28033600
v -0.01766700 0.15495000 -0.21607400
v -0.00430800 0.15491000 -0.21174000
v -0.02955400 0.15495000 -0.22571800
v -0.03673600 0.15495000 -0.23934600
v -0.03797200 0.15495000 -0.25460300
v -0.01870400 0.14846300 -0.28657300
v -0.01201300 0.14846500 -0.21106700
v -0.01201300 0.14846500 -0.21106700
v -0.03430100 0.14847400 -0.27191500
v -0.03998800 0.14849100 -0.25936000
v -0.03628400 0.14851300 -0.23115500
v 0.02230900 0.14847800 -0.28439800
v 0.02230900 0.14847800 -0.28439800
v 0.01905300 0.14846500 -0.21377300
v 0.01905300 0.14846500 -0.21377300
v 0.03638400 0.14849800 -0.26880000
v 0.03965300 0.14850600 -0.24011300
v -0.04026800 0.14945700 -0.24436100
v -0.02796400 0.14881600 -0.22007800
v 0.02668200 0.14952200 -0.21949300
v 0.03528100 0.14857900 -0.22945800
v 0.00995400 0.14864300 -0.28952000
v -0.00283800 0.14904000 -0.29069800
v 0.04060900 0.14875500 -0.25422300
v -0.01201300 0.14846500 -0.21106700
v 0.01905300 0.14846500 -0.21377300
v 0.01905300 0.14846500 -0.21377300
v -0.00430800 0.15491000 -0.21174000
v -0.00430800 0.15491000 -0.21174000
v 0.01009700 0.15495000 -0.21299400
v 0.03638400 0.14849800 -0.26880000
v 0.02230900 0.14847800 -0.28439800
v 0.03033600 0.15045000 -0.27645300
v -0.01870400 0.14846300 -0.28657300
v -0.03430100 0.14847400 -0.27191500
v -0.02948000 0.15045000 -0.27740500
v -0.01201300 0.14846500 -0.21106700
v -0.01824700 0.15045000 -0.21412400
v -0.02796400 0.14881600 -0.22007800
v -0.03797200 0.15495000 -0.25460300
v 0.03797200 0.15495000 -0.24539700
v 0.03689300 0.15495000 -0.26009700
v -0.03308100 0.15495000 -0.26920100
v 0.03033600 0.15495000 -0.27329700
v 0.03482600 0.15495000 -0.23418100
v 0.01009700 0.15495000 -0.21299400
v -0.02955400 0.15495000 -0.22571800
v -0.00430800 0.15491000 -0.21174000
v -0.02329700 0.15495000 -0.28033600
v 0.03965300 0.14850600 -0.24011300
v -0.03998800 0.14849100 -0.25936000
vn 0.90720000 0.40610000 0.11000000
vn 0.83200000 0.40610000 0.37790000
vn 0.88690000 0.40590000 0.22070000
vn 0.68370000 0.40610000 0.60630000
vn 0.79000000 0.40580000 0.45960000
vn 0.47550000 0.40610000 0.78040000
vn 0.42580000 0.40580000 0.80870000
vn 0.60280000 0.40500000 0.68750000
vn 0.24200000 0.40540000 0.88150000
vn -0.79030000 0.40610000 -0.45870000
vn -0.89090000 0.40420000 -0.20730000
vn -0.90720000 0.40610000 -0.10990000
vn -0.76990000 0.40600000 -0.49230000
vn -0.55660000 0.40610000 -0.72480000
vn -0.66930000 0.40620000 -0.62220000
vn -0.24120000 0.40610000 -0.88140000
vn -0.41650000 0.40370000 -0.81460000
vn -0.06500000 0.40440000 -0.91230000
vn 0.11000000 0.40610000 -0.90720000
vn 0.45870000 0.40610000 -0.79030000
vn 0.22280000 0.40560000 -0.88650000
vn 0.72480000 0.40610000 -0.55660000
vn 0.49590000 0.40280000 -0.76930000
vn 0.88140000 0.40610000 -0.24120000
vn 0.81320000 0.40430000 -0.41860000
vn 0.90720000 0.40610000 0.10990000
vn 0.90930000 0.40510000 -0.09530000
vn 0.68870000 0.40610000 -0.60060000
vn -0.41430000 0.40610000 0.81450000
vn -0.27220000 0.40430000 0.87320000
vn -0.10530000 0.40510000 0.90820000
vn -0.42210000 0.40610000 0.81050000
vn -0.62640000 0.40370000 0.66690000
vn -0.70610000 0.40610000 0.58010000
vn -0.81140000 0.40500000 0.42150000
vn -0.87760000 0.40610000 0.25450000
vn -0.90720000 0.40610000 -0.11000000
vn -0.90570000 0.40420000 0.12810000
vn 0.00000000 1.00000000 0.00000000
vn 0.00000000 1.00000000 0.00000000
vn 0.00000000 1.00000000 0.00000000
vn 0.00000000 1.00000000 0.00000000
vn 0.00000000 1.00000000 0.00000000
vn -0.00010000 1.00000000 -0.00010000
vn 0.00000000 1.00000000 0.00000000
vn 0.00000000 1.00000000 0.00000000
vn -0.00010000 1.00000000 -0.00010000
vn -0.00010000 1.00000000 -0.00010000
vn 0.00000000 1.00000000 0.00000000
vn 0.00000000 1.00000000 0.00000000
vn 0.00000000 1.00000000 0.00000000
vn 0.00000000 1.00000000 0.00000000
vn 0.00000000 1.00000000 0.00000000
vn 0.00000000 1.00000000 0.00000000
vn 0.00000000 1.00000000 0.00000000
vn -0.00000000 -1.00000000 -0.00000000
vn -0.00000000 -1.00000000 -0.00020000
vn -0.00000000 -1.00000000 -0.00000000
vn -0.00000000 -1.00000000 -0.00000000
vn -0.00000000 -1.00000000 -0.00000000
vn -0.00000000 -1.00000000 -0.00000000
vn -0.00000000 -1.00000000 -0.00020000
vn -0.00000000 -1.00000000 -0.00000000
vn -0.00000000 -1.00000000 -0.00020000
vn -0.00000000 -1.00000000 -0.00000000
vn -0.00000000 -1.00000000 -0.00000000
vn -0.00000000 -1.00000000 -0.00000000
vn -0.00000000 -1.00000000 -0.00000000
vn -0.00000000 -1.00000000 -0.00000000
vn -0.00000000 -1.00000000 -0.00000000
vn -0.00000000 -1.00000000 -0.00000000
vn -0.00000000 -1.00000000 -0.00000000
vn -0.00000000 -1.00000000 -0.00000000
vn -0.00000000 -1.00000000 -0.00000000
vn 0.08710000 0.00000000 0.99620000
vn 0.08700000 0.00000000 0.99620000
vn 0.08710000 0.00000000 0.99620000
vn 0.08700000 0.00000000 0.99620000
vn 0.08710000 0.00000000 0.99620000
vn 0.08700000 0.00000000 0.99620000
vn 0.88760000 0.00000000 -0.46060000
vn 0.54450000 0.00000000 -0.83880000
vn 0.75370000 0.00000000 -0.65720000
vn -0.46420000 -0.00000000 -0.88570000
vn -0.84250000 0.00000000 -0.53870000
vn -0.73240000 -0.00000000 -0.68080000
vn -0.29480000 -0.00000000 0.95560000
vn -0.45330000 0.00000000 0.89130000
vn -0.68140000 0.00000000 0.73190000
vn 0.00000000 1.00000000 0.00000000
vn 0.00000000 1.00000000 0.00000000
vn 0.00000000 1.00000000 0.00000000
vn 0.00000000 1.00000000 0.00000000
vn 0.00000000 1.00000000 0.00000000
vn 0.00000000 1.00000000 0.00000000
vn 0.00000000 1.00000000 0.00000000
vn 0.00000000 1.00000000 0.00000000
vn 0.00000000 1.00000000 0.00000000
vn 0.00000000 1.00000000 0.00000000
vn 0.89030000 0.39960000 0.21860000
vn -0.89270000 0.40030000 -0.20720000
vt 0.49819500 0.28604000
vt 0.53218800 0.28604000
vt 0.51187100 0.33627200
vt 0.56544300 0.28604000
vt 0.54335500 0.33562700
vt 0.59858400 0.28604000
vt 0.60549000 0.33663900
vt 0.57943500 0.32825300
vt 0.62965600 0.28619500
vt 0.38939000 0.96434700
vt 0.35307200 1.01461100
vt 0.34007200 0.96434700
vt 0.39464600 1.01437000
vt 0.43684900 0.96434700
vt 0.41653200 1.00000000
vt 0.48403600 0.96434700
vt 0.45902300 1.01466000
vt 0.50789600 1.01038100
vt 0.53122300 0.96434700
vt 0.58054200 0.96434700
vt 0.54651500 1.01318400
vt 0.62800100 0.96434700
vt 0.58614200 1.01377500
vt 0.67518800 0.96434700
vt 0.64977800 1.01436200
vt 0.72237500 0.96434700
vt 0.69496400 1.01247600
vt 0.62042700 1.00000000
vt 0.38265100 1.00000000
vt 0.36217800 1.01338000
vt 0.33938800 0.96526300
vt 0.38381900 0.96434700
vt 0.41716900 1.01193400
vt 0.43284700 0.96434700
vt 0.45826700 1.01412900
vt 0.48219400 0.96434700
vt 0.53122300 0.96434700
vt 0.49947400 1.00708400
vt 0.07385100 0.08859400
vt 0.10746900 0.02797300
vt 0.22252100 0.08472700
vt 0.14892000 0.00553900
vt 0.08381300 0.49991200
vt 0.08381300 0.49991200
vt 0.06244100 0.43995300
vt 0.04866500 0.36583300
vt 0.04866500 0.36583300
vt 0.10913200 0.53965800
vt 0.18867200 0.02609900
vt 0.22252100 0.08472700
vt 0.18590500 0.54170500
vt 0.14802100 0.56122100
vt 0.22152900 0.48275000
vt 0.24563300 0.39105500
vt 0.25405100 0.28247400
vt 0.06808800 0.83138100
vt 0.06831900 0.28256000
vt 0.06831900 0.28256000
vt 0.02186900 0.73549900
vt 0.00328600 0.64852700
vt 0.00667800 0.44276500
vt 0.17986200 0.78980600
vt 0.17986200 0.78980600
vt 0.15402900 0.28247400
vt 0.15402900 0.28247400
vt 0.21466300 0.66842500
vt 0.21674600 0.45945700
vt -0.00137200 0.54046300
vt 0.02679500 0.35759200
vt 0.17661900 0.31787000
vt 0.20220500 0.38540800
vt 0.14726200 0.83455000
vt 0.11252200 0.85130500
vt 0.22273600 0.56062200
vt 0.14508100 0.28248400
vt 0.23079100 0.28248500
vt 0.23079100 0.28248500
vt 0.16634000 0.32914700
vt 0.16634000 0.32914700
vt 0.20608100 0.32943300
vt 0.56201600 0.28312700
vt 0.61671600 0.28273400
vt 0.58724300 0.29685600
vt 0.73536400 0.28141900
vt 0.79117300 0.28256200
vt 0.77203300 0.29685600
vt 0.99605300 0.28242900
vt 0.97628600 0.29685600
vt 0.94530200 0.28510000
vt 0.21749700 0.54311700
vt 0.01176200 0.42880200
vt 0.01119400 0.53550500
vt 0.20060800 0.64532500
vt 0.02598600 0.63485100
vt 0.02306400 0.34988800
vt 0.09584900 0.21268100
vt 0.20136700 0.32947200
vt 0.13559000 0.21272500
vt 0.17115200 0.71946400
vt 0.73735400 1.01249600
vt 0.54464700 1.01342600
f 1/1/1 2/2/2 3/3/3
f 2/2/2 4/4/4 5/5/5
f 2/2/2 5/5/5 3/3/3
f 6/6/6 7/7/7 8/8/8
f 6/6/6 9/9/9 7/7/7
f 10/10/10 11/11/11 12/12/12
f 13/13/13 11/11/11 10/10/10
f 10/10/10 14/14/14 15/15/15
f 14/14/14 16/16/16 17/17/17
f 14/14/14 17/17/17 15/15/15
f 16/16/16 18/18/18 17/17/17
f 18/18/18 16/16/16 19/19/19
f 19/19/19 20/20/20 21/21/21
f 18/18/18 19/19/19 21/21/21
f 22/22/22 28/28/28 20/20/20
f 22/22/22 24/24/24 25/25/25
f 24/24/24 26/26/26 27/27/27
f 27/27/27 25/25/25 24/24/24
f 25/25/25 28/28/28 22/22/22
f 31/31/31 32/32/32 30/30/30
f 29/29/29 32/32/32 33/33/33
f 32/32/32 34/34/34 33/33/33
f 34/34/34 35/35/35 33/33/33
f 34/34/34 36/36/36 35/35/35
f 36/36/36 37/37/37 38/38/38
f 39/39/39 40/40/40 41/41/41
f 42/42/42 41/41/41 40/40/40
f 43/43/43 45/45/45 46/46/46
f 44/44/44 47/47/47 48/48/48
f 49/49/49 50/50/50 42/42/42
f 51/51/51 52/52/52 53/53/53
f 54/54/54 53/53/53 55/55/55
f 56/56/56 58/58/58 59/59/59
f 60/60/60 58/58/58 61/61/61
f 64/64/64 57/57/57 62/62/62
f 65/65/65 66/66/66 67/67/67
f 61/61/61 68/68/68 60/60/60
f 58/58/58 69/69/69 61/61/61
f 70/70/70 65/65/65 71/71/71
f 65/65/65 67/67/67 71/71/71
f 72/72/72 56/56/56 73/73/73
f 63/63/63 56/56/56 72/72/72
f 67/67/67 66/66/66 74/74/74
f 75/75/75 77/77/77 79/79/79
f 80/80/80 78/78/78 76/76/76
f 81/81/81 82/82/82 83/83/83
f 84/84/84 85/85/85 86/86/86
f 87/87/87 88/88/88 89/89/89
f 90/90/90 96/96/96 92/92/92
f 93/93/93 92/92/92 94/94/94
f 95/95/95 91/91/91 96/96/96
f 96/96/96 97/97/97 98/98/98
f 90/90/90 97/97/97 96/96/96
f 94/94/94 99/99/99 93/93/93
f 92/92/92 93/93/93 90/90/90
f 4/4/4 8/8/8 5/5/5
f 8/8/8 4/4/4 6/6/6
f 10/10/10 15/15/15 13/13/13
f 20/20/20 23/23/23 21/21/21
f 26/26/26 100/100/100 27/27/27
f 36/36/36 38/38/38 35/35/35
f 37/37/37 101/101/101 38/38/38
f 58/58/58 60/60/60 59/59/59
f 66/66/66 65/65/65 63/63/63
f 28/28/28 23/23/23 20/20/20
f 32/32/32 29/29/29 30/30/30
f 58/58/58 56/56/56 63/63/63
f 96/96/96 91/91/91 92/92/92

