mtllib material.mtl
usemtl Material-7011油漆.006
v 0.03929500 0.06834900 0.00599500
v 0.03929500 0.06834900 0.00599500
v 0.03929500 0.06834900 0.00599500
v 0.03874200 0.06834900 0.00889500
v 0.03874200 0.06834900 0.00889500
v 0.03874200 0.06834900 0.00889500
v 0.03797500 0.06834900 0.01174600
v 0.03797500 0.06834900 0.01174600
v 0.03797500 0.06834900 0.01174600
v 0.03699800 0.06834900 0.01453200
v 0.03699800 0.06834900 0.01453200
v 0.03699800 0.06834900 0.01453200
v 0.03581800 0.06834900 0.01723800
v 0.03581800 0.06834900 0.01723800
v 0.03581800 0.06834900 0.01723800
v 0.03443900 0.06834900 0.01984900
v 0.03443900 0.06834900 0.01984900
v 0.03443900 0.06834900 0.01984900
v 0.03287100 0.06834900 0.02235100
v 0.03287100 0.06834900 0.02235100
v 0.03287100 0.06834900 0.02235100
v 0.03112100 0.06834900 0.02472900
v 0.03112100 0.06834900 0.02472900
v 0.03112100 0.06834900 0.02472900
v 0.02920000 0.06834900 0.02697100
v 0.02920000 0.06834900 0.02697100
v 0.02920000 0.06834900 0.02697100
v 0.02711700 0.06834900 0.02906400
v 0.02711700 0.06834900 0.02906400
v 0.02711700 0.06834900 0.02906400
v 0.02488500 0.06834900 0.03099700
v 0.02488500 0.06834900 0.03099700
v 0.02488500 0.06834900 0.03099700
v 0.02251600 0.06834900 0.03275800
v 0.02251600 0.06834900 0.03275800
v 0.02251600 0.06834900 0.03275800
v 0.02002200 0.06834900 0.03433900
v 0.02002200 0.06834900 0.03433900
v 0.02002200 0.06834900 0.03433900
v 0.01741800 0.06834900 0.03573100
v 0.01741800 0.06834900 0.03573100
v 0.01741800 0.06834900 0.03573100
v 0.01471800 0.06834900 0.03692500
v 0.01471800 0.06834900 0.03692500
v 0.01471800 0.06834900 0.03692500
v 0.01193700 0.06834900 0.03791500
v 0.01193700 0.06834900 0.03791500
v 0.01193700 0.06834900 0.03791500
v 0.00908900 0.06834900 0.03869700
v 0.00908900 0.06834900 0.03869700
v 0.00908900 0.06834900 0.03869700
v 0.00619200 0.06834900 0.03926500
v 0.00619200 0.06834900 0.03926500
v 0.00619200 0.06834900 0.03926500
v 0.00326000 0.06834900 0.03961600
v 0.00326000 0.06834900 0.03961600
v 0.00326000 0.06834900 0.03961600
v 0.00031100 0.06834900 0.03974900
v 0.00031100 0.06834900 0.03974900
v 0.00031100 0.06834900 0.03974900
v -0.00264000 0.06834900 0.03966200
v -0.00264000 0.06834900 0.03966200
v -0.00264000 0.06834900 0.03966200
v -0.00557700 0.06834900 0.03935700
v -0.00557700 0.06834900 0.03935700
v -0.00557700 0.06834900 0.03935700
v -0.00848300 0.06834900 0.03883400
v -0.00848300 0.06834900 0.03883400
v -0.00848300 0.06834900 0.03883400
v -0.01134200 0.06834900 0.03809700
v -0.01134200 0.06834900 0.03809700
v -0.01134200 0.06834900 0.03809700
v -0.01413900 0.06834900 0.03715000
v -0.01413900 0.06834900 0.03715000
v -0.01413900 0.06834900 0.03715000
v -0.01685700 0.06834900 0.03599900
v -0.01685700 0.06834900 0.03599900
v -0.01685700 0.06834900 0.03599900
v -0.01948300 0.06834900 0.03464800
v -0.01948300 0.06834900 0.03464800
v -0.01948300 0.06834900 0.03464800
v -0.02200100 0.06834900 0.03310600
v -0.02200100 0.06834900 0.03310600
v -0.02200100 0.06834900 0.03310600
v -0.02439700 0.06834900 0.03138200
v -0.02439700 0.06834900 0.03138200
v -0.02439700 0.06834900 0.03138200
v -0.02666000 0.06834900 0.02948400
v -0.02666000 0.06834900 0.02948400
v -0.02666000 0.06834900 0.02948400
v -0.02877500 0.06834900 0.02742400
v -0.02877500 0.06834900 0.02742400
v -0.02877500 0.06834900 0.02742400
v -0.03073100 0.06834900 0.02521300
v -0.03073100 0.06834900 0.02521300
v -0.03073100 0.06834900 0.02521300
v -0.03251700 0.06834900 0.02286200
v -0.03251700 0.06834900 0.02286200
v -0.03251700 0.06834900 0.02286200
v -0.03412500 0.06834900 0.02038500
v -0.03412500 0.06834900 0.02038500
v -0.03412500 0.06834900 0.02038500
v -0.03554400 0.06834900 0.01779600
v -0.03554400 0.06834900 0.01779600
v -0.03554400 0.06834900 0.01779600
v -0.03676700 0.06834900 0.01510900
v -0.03676700 0.06834900 0.01510900
v -0.03676700 0.06834900 0.01510900
v -0.03778700 0.06834900 0.01233800
v -0.03778700 0.06834900 0.01233800
v -0.03778700 0.06834900 0.01233800
v -0.03859800 0.06834900 0.00949900
v -0.03859800 0.06834900 0.00949900
v -0.03859800 0.06834900 0.00949900
v -0.03913700 0.06834900 0.00695500
v -0.03913700 0.06834900 0.00695500
v -0.03913700 0.06834900 0.00695500
v -0.03950800 0.06834900 0.00438000
v -0.03950800 0.06834900 0.00438000
v -0.03950800 0.06834900 0.00438000
v -0.03971000 0.06834900 0.00178700
v -0.03971000 0.06834900 0.00178700
v -0.03971000 0.06834900 0.00178700
v -0.03974200 0.06834900 -0.00081400
v -0.03974200 0.06834900 -0.00081400
v -0.03974200 0.06834900 -0.00081400
v -0.03960300 0.06834900 -0.00341200
v -0.03960300 0.06834900 -0.00341200
v -0.03960300 0.06834900 -0.00341200
v -0.03929500 0.06834900 -0.00599500
v -0.03929500 0.06834900 -0.00599500
v -0.03929500 0.06834900 -0.00599500
v -0.03874200 0.06834900 -0.00889500
v -0.03874200 0.06834900 -0.00889500
v -0.03874200 0.06834900 -0.00889500
v -0.03797500 0.06834900 -0.01174600
v -0.03797500 0.06834900 -0.01174600
v -0.03797500 0.06834900 -0.01174600
v -0.03699800 0.06834900 -0.01453200
v -0.03699800 0.06834900 -0.01453200
v -0.03699800 0.06834900 -0.01453200
v -0.03581800 0.06834900 -0.01723800
v -0.03581800 0.06834900 -0.01723800
v -0.03581800 0.06834900 -0.01723800
v -0.03443900 0.06834900 -0.01984900
v -0.03443900 0.06834900 -0.01984900
v -0.03443900 0.06834900 -0.01984900
v -0.03287100 0.06834900 -0.02235100
v -0.03287100 0.06834900 -0.02235100
v -0.03287100 0.06834900 -0.02235100
v -0.03112100 0.06834900 -0.02472900
v -0.03112100 0.06834900 -0.02472900
v -0.03112100 0.06834900 -0.02472900
v -0.02920000 0.06834900 -0.02697100
v -0.02920000 0.06834900 -0.02697100
v -0.02920000 0.06834900 -0.02697100
v -0.02711700 0.06834900 -0.02906400
v -0.02711700 0.06834900 -0.02906400
v -0.02711700 0.06834900 -0.02906400
v -0.02488500 0.06834900 -0.03099700
v -0.02488500 0.06834900 -0.03099700
v -0.02488500 0.06834900 -0.03099700
v -0.02251600 0.06834900 -0.03275800
v -0.02251600 0.06834900 -0.03275800
v -0.02251600 0.06834900 -0.03275800
v -0.02002200 0.06834900 -0.03433900
v -0.02002200 0.06834900 -0.03433900
v -0.02002200 0.06834900 -0.03433900
v -0.01741800 0.06834900 -0.03573100
v -0.01741800 0.06834900 -0.03573100
v -0.01741800 0.06834900 -0.03573100
v -0.01471800 0.06834900 -0.03692500
v -0.01471800 0.06834900 -0.03692500
v -0.01471800 0.06834900 -0.03692500
v -0.01193700 0.06834900 -0.03791500
v -0.01193700 0.06834900 -0.03791500
v -0.01193700 0.06834900 -0.03791500
v -0.00908900 0.06834900 -0.03869700
v -0.00908900 0.06834900 -0.03869700
v -0.00908900 0.06834900 -0.03869700
v -0.00619200 0.06834900 -0.03926500
v -0.00619200 0.06834900 -0.03926500
v -0.00619200 0.06834900 -0.03926500
v -0.00326000 0.06834900 -0.03961600
v -0.00326000 0.06834900 -0.03961600
v -0.00326000 0.06834900 -0.03961600
v -0.00031100 0.06834900 -0.03974900
v -0.00031100 0.06834900 -0.03974900
v -0.00031100 0.06834900 -0.03974900
v 0.00264000 0.06834900 -0.03966200
v 0.00264000 0.06834900 -0.03966200
v 0.00264000 0.06834900 -0.03966200
v 0.00557700 0.06834900 -0.03935700
v 0.00557700 0.06834900 -0.03935700
v 0.00557700 0.06834900 -0.03935700
v 0.00848300 0.06834900 -0.03883400
v 0.00848300 0.06834900 -0.03883400
v 0.00848300 0.06834900 -0.03883400
v 0.01134200 0.06834900 -0.03809700
v 0.01134200 0.06834900 -0.03809700
v 0.01134200 0.06834900 -0.03809700
v 0.01413900 0.06834900 -0.03715000
v 0.01413900 0.06834900 -0.03715000
v 0.01413900 0.06834900 -0.03715000
v 0.01685700 0.06834900 -0.03599900
v 0.01685700 0.06834900 -0.03599900
v 0.01685700 0.06834900 -0.03599900
v 0.01948300 0.06834900 -0.03464800
v 0.01948300 0.06834900 -0.03464800
v 0.01948300 0.06834900 -0.03464800
v 0.02200100 0.06834900 -0.03310600
v 0.02200100 0.06834900 -0.03310600
v 0.02200100 0.06834900 -0.03310600
v 0.02439700 0.06834900 -0.03138200
v 0.02439700 0.06834900 -0.03138200
v 0.02439700 0.06834900 -0.03138200
v 0.02666000 0.06834900 -0.02948400
v 0.02666000 0.06834900 -0.02948400
v 0.02666000 0.06834900 -0.02948400
v 0.02877500 0.06834900 -0.02742400
v 0.02877500 0.06834900 -0.02742400
v 0.02877500 0.06834900 -0.02742400
v 0.03073100 0.06834900 -0.02521300
v 0.03073100 0.06834900 -0.02521300
v 0.03073100 0.06834900 -0.02521300
v 0.03251700 0.06834900 -0.02286200
v 0.03251700 0.06834900 -0.02286200
v 0.03251700 0.06834900 -0.02286200
v 0.03412500 0.06834900 -0.02038500
v 0.03412500 0.06834900 -0.02038500
v 0.03412500 0.06834900 -0.02038500
v 0.03554400 0.06834900 -0.01779600
v 0.03554400 0.06834900 -0.01779600
v 0.03554400 0.06834900 -0.01779600
v 0.03676700 0.06834900 -0.01510900
v 0.03676700 0.06834900 -0.01510900
v 0.03676700 0.06834900 -0.01510900
v 0.03778700 0.06834900 -0.01233800
v 0.03778700 0.06834900 -0.01233800
v 0.03778700 0.06834900 -0.01233800
v 0.03859800 0.06834900 -0.00949900
v 0.03859800 0.06834900 -0.00949900
v 0.03859800 0.06834900 -0.00949900
v 0.03913700 0.06834900 -0.00695500
v 0.03913700 0.06834900 -0.00695500
v 0.03913700 0.06834900 -0.00695500
v 0.03950800 0.06834900 -0.00438000
v 0.03950800 0.06834900 -0.00438000
v 0.03950800 0.06834900 -0.00438000
v 0.03971000 0.06834900 -0.00178700
v 0.03971000 0.06834900 -0.00178700
v 0.03971000 0.06834900 -0.00178700
v 0.03974200 0.06834900 0.00081400
v 0.03974200 0.06834900 0.00081400
v 0.03974200 0.06834900 0.00081400
v 0.03960300 0.06834900 0.00341200
v 0.03960300 0.06834900 0.00341200
v 0.03960300 0.06834900 0.00341200
v 0.03929500 0.06835000 0.00599500
v 0.03929500 0.06835000 0.00599500
v 0.03929500 0.06835000 0.00599500
v 0.03874200 0.06835000 0.00889500
v 0.03874200 0.06835000 0.00889500
v 0.03874200 0.06835000 0.00889500
v 0.03797500 0.06835000 0.01174600
v 0.03797500 0.06835000 0.01174600
v 0.03797500 0.06835000 0.01174600
v 0.03699800 0.06835000 0.01453200
v 0.03699800 0.06835000 0.01453200
v 0.03699800 0.06835000 0.01453200
v 0.03581800 0.06835000 0.01723800
v 0.03581800 0.06835000 0.01723800
v 0.03581800 0.06835000 0.01723800
v 0.03443900 0.06835000 0.01984900
v 0.03443900 0.06835000 0.01984900
v 0.03443900 0.06835000 0.01984900
v 0.03287100 0.06835000 0.02235100
v 0.03287100 0.06835000 0.02235100
v 0.03287100 0.06835000 0.02235100
v 0.03112100 0.06835000 0.02472900
v 0.03112100 0.06835000 0.02472900
v 0.03112100 0.06835000 0.02472900
v 0.02920000 0.06835000 0.02697100
v 0.02920000 0.06835000 0.02697100
v 0.02920000 0.06835000 0.02697100
v 0.02711700 0.06835000 0.02906400
v 0.02711700 0.06835000 0.02906400
v 0.02711700 0.06835000 0.02906400
v 0.02488500 0.06835000 0.03099700
v 0.02488500 0.06835000 0.03099700
v 0.02488500 0.06835000 0.03099700
v 0.02251600 0.06835000 0.03275800
v 0.02251600 0.06835000 0.03275800
v 0.02251600 0.06835000 0.03275800
v 0.02002200 0.06835000 0.03433900
v 0.02002200 0.06835000 0.03433900
v 0.02002200 0.06835000 0.03433900
v 0.01741800 0.06835000 0.03573100
v 0.01741800 0.06835000 0.03573100
v 0.01741800 0.06835000 0.03573100
v 0.01471800 0.06835000 0.03692500
v 0.01471800 0.06835000 0.03692500
v 0.01471800 0.06835000 0.03692500
v 0.01193700 0.06835000 0.03791500
v 0.01193700 0.06835000 0.03791500
v 0.01193700 0.06835000 0.03791500
v 0.00908900 0.06835000 0.03869700
v 0.00908900 0.06835000 0.03869700
v 0.00908900 0.06835000 0.03869700
v 0.00619200 0.06835000 0.03926500
v 0.00619200 0.06835000 0.03926500
v 0.00619200 0.06835000 0.03926500
v 0.00326000 0.06835000 0.03961600
v 0.00326000 0.06835000 0.03961600
v 0.00326000 0.06835000 0.03961600
v 0.00031100 0.06835000 0.03974900
v 0.00031100 0.06835000 0.03974900
v 0.00031100 0.06835000 0.03974900
v -0.00264000 0.06835000 0.03966200
v -0.00264000 0.06835000 0.03966200
v -0.00264000 0.06835000 0.03966200
v -0.00557700 0.06835000 0.03935700
v -0.00557700 0.06835000 0.03935700
v -0.00557700 0.06835000 0.03935700
v -0.00848300 0.06835000 0.03883400
v -0.00848300 0.06835000 0.03883400
v -0.00848300 0.06835000 0.03883400
v -0.01134200 0.06835000 0.03809700
v -0.01134200 0.06835000 0.03809700
v -0.01134200 0.06835000 0.03809700
v -0.01413900 0.06835000 0.03715000
v -0.01413900 0.06835000 0.03715000
v -0.01413900 0.06835000 0.03715000
v -0.01685700 0.06835000 0.03599900
v -0.01685700 0.06835000 0.03599900
v -0.01685700 0.06835000 0.03599900
v -0.01948300 0.06835000 0.03464800
v -0.01948300 0.06835000 0.03464800
v -0.01948300 0.06835000 0.03464800
v -0.02200100 0.06835000 0.03310600
v -0.02200100 0.06835000 0.03310600
v -0.02200100 0.06835000 0.03310600
v -0.02439700 0.06835000 0.03138200
v -0.02439700 0.06835000 0.03138200
v -0.02439700 0.06835000 0.03138200
v -0.02666000 0.06835000 0.02948400
v -0.02666000 0.06835000 0.02948400
v -0.02666000 0.06835000 0.02948400
v -0.02877500 0.06835000 0.02742400
v -0.02877500 0.06835000 0.02742400
v -0.02877500 0.06835000 0.02742400
v -0.03073100 0.06835000 0.02521300
v -0.03073100 0.06835000 0.02521300
v -0.03073100 0.06835000 0.02521300
v -0.03251700 0.06835000 0.02286200
v -0.03251700 0.06835000 0.02286200
v -0.03251700 0.06835000 0.02286200
v -0.03412500 0.06835000 0.02038500
v -0.03412500 0.06835000 0.02038500
v -0.03412500 0.06835000 0.02038500
v -0.03554400 0.06835000 0.01779600
v -0.03554400 0.06835000 0.01779600
v -0.03554400 0.06835000 0.01779600
v -0.03676700 0.06835000 0.01510900
v -0.03676700 0.06835000 0.01510900
v -0.03676700 0.06835000 0.01510900
v -0.03778700 0.06835000 0.01233800
v -0.03778700 0.06835000 0.01233800
v -0.03778700 0.06835000 0.01233800
v -0.03859800 0.06835000 0.00949900
v -0.03859800 0.06835000 0.00949900
v -0.03859800 0.06835000 0.00949900
v -0.03913700 0.06835000 0.00695500
v -0.03913700 0.06835000 0.00695500
v -0.03913700 0.06835000 0.00695500
v -0.03950800 0.06835000 0.00438000
v -0.03950800 0.06835000 0.00438000
v -0.03950800 0.06835000 0.00438000
v -0.03971000 0.06835000 0.00178700
v -0.03971000 0.06835000 0.00178700
v -0.03971000 0.06835000 0.00178700
v -0.03974200 0.06835000 -0.00081400
v -0.03974200 0.06835000 -0.00081400
v -0.03974200 0.06835000 -0.00081400
v -0.03960300 0.06835000 -0.00341200
v -0.03960300 0.06835000 -0.00341200
v -0.03960300 0.06835000 -0.00341200
v -0.03929500 0.06835000 -0.00599500
v -0.03929500 0.06835000 -0.00599500
v -0.03929500 0.06835000 -0.00599500
v -0.03874200 0.06835000 -0.00889500
v -0.03874200 0.06835000 -0.00889500
v -0.03874200 0.06835000 -0.00889500
v -0.03797500 0.06835000 -0.01174600
v -0.03797500 0.06835000 -0.01174600
v -0.03797500 0.06835000 -0.01174600
v -0.03699800 0.06835000 -0.01453200
v -0.03699800 0.06835000 -0.01453200
v -0.03699800 0.06835000 -0.01453200
v -0.03581800 0.06835000 -0.01723800
v -0.03581800 0.06835000 -0.01723800
v -0.03581800 0.06835000 -0.01723800
v -0.03443900 0.06835000 -0.01984900
v -0.03443900 0.06835000 -0.01984900
v -0.03443900 0.06835000 -0.01984900
v -0.03287100 0.06835000 -0.02235100
v -0.03287100 0.06835000 -0.02235100
v -0.03287100 0.06835000 -0.02235100
v -0.03112100 0.06835000 -0.02472900
v -0.03112100 0.06835000 -0.02472900
v -0.03112100 0.06835000 -0.02472900
v -0.02920000 0.06835000 -0.02697100
v -0.02920000 0.06835000 -0.02697100
v -0.02920000 0.06835000 -0.02697100
v -0.02711700 0.06835000 -0.02906400
v -0.02711700 0.06835000 -0.02906400
v -0.02711700 0.06835000 -0.02906400
v -0.02488500 0.06835000 -0.03099700
v -0.02488500 0.06835000 -0.03099700
v -0.02488500 0.06835000 -0.03099700
v -0.02251600 0.06835000 -0.03275800
v -0.02251600 0.06835000 -0.03275800
v -0.02251600 0.06835000 -0.03275800
v -0.02002200 0.06835000 -0.03433900
v -0.02002200 0.06835000 -0.03433900
v -0.02002200 0.06835000 -0.03433900
v -0.01741800 0.06835000 -0.03573100
v -0.01741800 0.06835000 -0.03573100
v -0.01741800 0.06835000 -0.03573100
v -0.01471800 0.06835000 -0.03692500
v -0.01471800 0.06835000 -0.03692500
v -0.01471800 0.06835000 -0.03692500
v -0.01193700 0.06835000 -0.03791500
v -0.01193700 0.06835000 -0.03791500
v -0.01193700 0.06835000 -0.03791500
v -0.00908900 0.06835000 -0.03869700
v -0.00908900 0.06835000 -0.03869700
v -0.00908900 0.06835000 -0.03869700
v -0.00619200 0.06835000 -0.03926500
v -0.00619200 0.06835000 -0.03926500
v -0.00619200 0.06835000 -0.03926500
v -0.00326000 0.06835000 -0.03961600
v -0.00326000 0.06835000 -0.03961600
v -0.00326000 0.06835000 -0.03961600
v -0.00031100 0.06835000 -0.03974900
v -0.00031100 0.06835000 -0.03974900
v -0.00031100 0.06835000 -0.03974900
v 0.00264000 0.06835000 -0.03966200
v 0.00264000 0.06835000 -0.03966200
v 0.00264000 0.06835000 -0.03966200
v 0.00557700 0.06835000 -0.03935700
v 0.00557700 0.06835000 -0.03935700
v 0.00557700 0.06835000 -0.03935700
v 0.00848300 0.06835000 -0.03883400
v 0.00848300 0.06835000 -0.03883400
v 0.00848300 0.06835000 -0.03883400
v 0.01134200 0.06835000 -0.03809700
v 0.01134200 0.06835000 -0.03809700
v 0.01134200 0.06835000 -0.03809700
v 0.01413900 0.06835000 -0.03715000
v 0.01413900 0.06835000 -0.03715000
v 0.01413900 0.06835000 -0.03715000
v 0.01685700 0.06835000 -0.03599900
v 0.01685700 0.06835000 -0.03599900
v 0.01685700 0.06835000 -0.03599900
v 0.01948300 0.06835000 -0.03464800
v 0.01948300 0.06835000 -0.03464800
v 0.01948300 0.06835000 -0.03464800
v 0.02200100 0.06835000 -0.03310600
v 0.02200100 0.06835000 -0.03310600
v 0.02200100 0.06835000 -0.03310600
v 0.02439700 0.06835000 -0.03138200
v 0.02439700 0.06835000 -0.03138200
v 0.02439700 0.06835000 -0.03138200
v 0.02666000 0.06835000 -0.02948400
v 0.02666000 0.06835000 -0.02948400
v 0.02666000 0.06835000 -0.02948400
v 0.02877500 0.06835000 -0.02742400
v 0.02877500 0.06835000 -0.02742400
v 0.02877500 0.06835000 -0.02742400
v 0.03073100 0.06835000 -0.02521300
v 0.03073100 0.06835000 -0.02521300
v 0.03073100 0.06835000 -0.02521300
v 0.03251700 0.06835000 -0.02286200
v 0.03251700 0.06835000 -0.02286200
v 0.03251700 0.06835000 -0.02286200
v 0.03412500 0.06835000 -0.02038500
v 0.03412500 0.06835000 -0.02038500
v 0.03412500 0.06835000 -0.02038500
v 0.03554400 0.06835000 -0.01779600
v 0.03554400 0.06835000 -0.01779600
v 0.03554400 0.06835000 -0.01779600
v 0.03676700 0.06835000 -0.01510900
v 0.03676700 0.06835000 -0.01510900
v 0.03676700 0.06835000 -0.01510900
v 0.03778700 0.06835000 -0.01233800
v 0.03778700 0.06835000 -0.01233800
v 0.03778700 0.06835000 -0.01233800
v 0.03859800 0.06835000 -0.00949900
v 0.03859800 0.06835000 -0.00949900
v 0.03859800 0.06835000 -0.00949900
v 0.03913700 0.06835000 -0.00695500
v 0.03913700 0.06835000 -0.00695500
v 0.03913700 0.06835000 -0.00695500
v 0.03950800 0.06835000 -0.00438000
v 0.03950800 0.06835000 -0.00438000
v 0.03950800 0.06835000 -0.00438000
v 0.03971000 0.06835000 -0.00178700
v 0.03971000 0.06835000 -0.00178700
v 0.03971000 0.06835000 -0.00178700
v 0.03974200 0.06835000 0.00081400
v 0.03974200 0.06835000 0.00081400
v 0.03974200 0.06835000 0.00081400
v 0.03960300 0.06835000 0.00341200
v 0.03960300 0.06835000 0.00341200
v 0.03960300 0.06835000 0.00341200
vn 0.98230000 0.00000000 0.18740000
vn 0.00000000 -1.00000000 0.00000000
vn 0.99290000 0.00000000 0.11890000
vn 0.98230000 0.00000000 0.18740000
vn 0.00000000 -1.00000000 0.00000000
vn 0.96570000 0.00000000 0.25970000
vn 0.96570000 0.00000000 0.25970000
vn 0.00000000 -1.00000000 0.00000000
vn 0.94370000 0.00000000 0.33080000
vn 0.91680000 0.00000000 0.39940000
vn 0.00000000 -1.00000000 0.00000000
vn 0.94370000 0.00000000 0.33080000
vn 0.88390000 0.00000000 0.46770000
vn 0.00000000 -1.00000000 0.00000000
vn 0.91680000 0.00000000 0.39940000
vn 0.88390000 0.00000000 0.46770000
vn 0.00000000 -1.00000000 0.00000000
vn 0.84700000 0.00000000 0.53150000
vn 0.00000000 -1.00000000 0.00000000
vn 0.84700000 0.00000000 0.53150000
vn 0.80530000 0.00000000 0.59280000
vn 0.76120000 0.00000000 0.64850000
vn 0.80530000 0.00000000 0.59280000
vn 0.00000000 -1.00000000 0.00000000
vn 0.00000000 -1.00000000 0.00000000
vn 0.70870000 0.00000000 0.70550000
vn 0.76120000 0.00000000 0.64850000
vn 0.00000000 -1.00000000 0.00000000
vn 0.65530000 0.00000000 0.75540000
vn 0.70870000 0.00000000 0.70550000
vn 0.00000000 -1.00000000 0.00000000
vn 0.59610000 0.00000000 0.80290000
vn 0.65530000 0.00000000 0.75540000
vn 0.59610000 0.00000000 0.80290000
vn 0.00000000 -1.00000000 0.00000000
vn 0.53620000 0.00000000 0.84410000
vn 0.00000000 -1.00000000 0.00000000
vn 0.53620000 0.00000000 0.84410000
vn 0.47130000 0.00000000 0.88200000
vn 0.00000000 -1.00000000 0.00000000
vn 0.40380000 0.00000000 0.91480000
vn 0.47130000 0.00000000 0.88200000
vn 0.40380000 0.00000000 0.91480000
vn 0.33590000 0.00000000 0.94190000
vn 0.00000000 -1.00000000 0.00000000
vn 0.33590000 0.00000000 0.94190000
vn 0.26440000 0.00000000 0.96440000
vn 0.00000000 -1.00000000 0.00000000
vn 0.26440000 0.00000000 0.96440000
vn 0.00000000 -1.00000000 0.00000000
vn 0.19260000 0.00000000 0.98130000
vn 0.19260000 0.00000000 0.98130000
vn 0.00000000 -1.00000000 0.00000000
vn 0.11930000 0.00000000 0.99290000
vn 0.00000000 -1.00000000 0.00000000
vn 0.04490000 0.00000000 0.99900000
vn 0.11930000 0.00000000 0.99290000
vn 0.04490000 0.00000000 0.99900000
vn 0.00000000 -1.00000000 0.00000000
vn -0.02930000 0.00000000 0.99960000
vn -0.02930000 0.00000000 0.99960000
vn 0.00000000 -1.00000000 0.00000000
vn -0.10340000 0.00000000 0.99460000
vn -0.17770000 0.00000000 0.98410000
vn 0.00000000 -1.00000000 0.00000000
vn -0.10340000 0.00000000 0.99460000
vn -0.17770000 0.00000000 0.98410000
vn 0.00000000 -1.00000000 0.00000000
vn -0.25030000 0.00000000 0.96820000
vn -0.32120000 0.00000000 0.94700000
vn -0.25030000 0.00000000 0.96820000
vn 0.00000000 -1.00000000 0.00000000
vn 0.00000000 -1.00000000 0.00000000
vn -0.39000000 0.00000000 0.92080000
vn -0.32120000 0.00000000 0.94700000
vn -0.45840000 0.00000000 0.88880000
vn -0.39000000 0.00000000 0.92080000
vn 0.00000000 -1.00000000 0.00000000
vn -0.52230000 0.00000000 0.85280000
vn 0.00000000 -1.00000000 0.00000000
vn -0.45840000 0.00000000 0.88880000
vn -0.52230000 0.00000000 0.85280000
vn -0.58320000 0.00000000 0.81230000
vn 0.00000000 -1.00000000 0.00000000
vn 0.00000000 -1.00000000 0.00000000
vn -0.58320000 0.00000000 0.81230000
vn -0.64110000 0.00000000 0.76740000
vn -0.69820000 0.00000000 0.71590000
vn 0.00000000 -1.00000000 0.00000000
vn -0.64110000 0.00000000 0.76740000
vn -0.74950000 0.00000000 0.66200000
vn -0.69820000 0.00000000 0.71590000
vn 0.00000000 -1.00000000 0.00000000
vn 0.00000000 -1.00000000 0.00000000
vn -0.79490000 0.00000000 0.60670000
vn -0.74950000 0.00000000 0.66200000
vn -0.79490000 0.00000000 0.60670000
vn -0.83910000 0.00000000 0.54400000
vn 0.00000000 -1.00000000 0.00000000
vn -0.83910000 0.00000000 0.54400000
vn -0.87710000 0.00000000 0.48030000
vn 0.00000000 -1.00000000 0.00000000
vn 0.00000000 -1.00000000 0.00000000
vn -0.91020000 0.00000000 0.41410000
vn -0.87710000 0.00000000 0.48030000
vn -0.91020000 0.00000000 0.41410000
vn -0.93840000 0.00000000 0.34550000
vn 0.00000000 -1.00000000 0.00000000
vn -0.96130000 0.00000000 0.27560000
vn -0.93840000 0.00000000 0.34550000
vn 0.00000000 -1.00000000 0.00000000
vn -0.97830000 0.00000000 0.20720000
vn -0.96130000 0.00000000 0.27560000
vn 0.00000000 -1.00000000 0.00000000
vn 0.00000000 -1.00000000 0.00000000
vn -0.98980000 0.00000000 0.14250000
vn -0.97830000 0.00000000 0.20720000
vn 0.00000000 -1.00000000 0.00000000
vn -0.98980000 0.00000000 0.14250000
vn -0.99700000 0.00000000 0.07790000
vn -0.99990000 0.00000000 0.01230000
vn -0.99700000 0.00000000 0.07790000
vn 0.00000000 -1.00000000 0.00000000
vn 0.00000000 -1.00000000 0.00000000
vn -0.99860000 0.00000000 -0.05320000
vn -0.99990000 0.00000000 0.01230000
vn -0.99860000 0.00000000 -0.05320000
vn -0.99290000 0.00000000 -0.11890000
vn 0.00000000 -1.00000000 0.00000000
vn 0.00000000 -1.00000000 0.00000000
vn -0.99290000 0.00000000 -0.11890000
vn -0.98230000 0.00000000 -0.18740000
vn -0.98230000 0.00000000 -0.18740000
vn 0.00000000 -1.00000000 0.00000000
vn -0.96570000 0.00000000 -0.25970000
vn -0.94370000 0.00000000 -0.33080000
vn 0.00000000 -1.00000000 0.00000000
vn -0.96570000 0.00000000 -0.25970000
vn -0.91680000 0.00000000 -0.39940000
vn -0.94370000 0.00000000 -0.33080000
vn 0.00000000 -1.00000000 0.00000000
vn -0.91680000 0.00000000 -0.39940000
vn -0.88390000 0.00000000 -0.46770000
vn 0.00000000 -1.00000000 0.00000000
vn 0.00000000 -1.00000000 0.00000000
vn -0.84700000 0.00000000 -0.53150000
vn -0.88390000 0.00000000 -0.46770000
vn -0.84700000 0.00000000 -0.53150000
vn -0.80530000 0.00000000 -0.59280000
vn 0.00000000 -1.00000000 0.00000000
vn 0.00000000 -1.00000000 0.00000000
vn -0.80530000 0.00000000 -0.59280000
vn -0.76120000 0.00000000 -0.64850000
vn -0.76120000 0.00000000 -0.64850000
vn 0.00000000 -1.00000000 0.00000000
vn -0.70870000 0.00000000 -0.70550000
vn -0.70870000 0.00000000 -0.70550000
vn 0.00000000 -1.00000000 0.00000000
vn -0.65530000 0.00000000 -0.75540000
vn 0.00000000 -1.00000000 0.00000000
vn -0.65530000 0.00000000 -0.75540000
vn -0.59610000 0.00000000 -0.80290000
vn -0.53620000 0.00000000 -0.84410000
vn -0.59610000 0.00000000 -0.80290000
vn 0.00000000 -1.00000000 0.00000000
vn -0.53620000 0.00000000 -0.84410000
vn 0.00000000 -1.00000000 0.00000000
vn -0.47130000 0.00000000 -0.88200000
vn -0.47130000 0.00000000 -0.88200000
vn -0.40380000 0.00000000 -0.91480000
vn 0.00000000 -1.00000000 0.00000000
vn 0.00000000 -1.00000000 0.00000000
vn -0.33590000 0.00000000 -0.94190000
vn -0.40380000 0.00000000 -0.91480000
vn 0.00000000 -1.00000000 0.00000000
vn -0.33590000 0.00000000 -0.94190000
vn -0.26440000 0.00000000 -0.96440000
vn -0.26440000 0.00000000 -0.96440000
vn -0.19260000 0.00000000 -0.98130000
vn 0.00000000 -1.00000000 0.00000000
vn 0.00000000 -1.00000000 0.00000000
vn -0.11930000 0.00000000 -0.99290000
vn -0.19260000 0.00000000 -0.98130000
vn 0.00000000 -1.00000000 0.00000000
vn -0.04490000 0.00000000 -0.99900000
vn -0.11930000 0.00000000 -0.99290000
vn -0.04490000 0.00000000 -0.99900000
vn 0.02930000 0.00000000 -0.99960000
vn 0.00000000 -1.00000000 0.00000000
vn 0.10340000 0.00000000 -0.99460000
vn 0.02930000 0.00000000 -0.99960000
vn 0.00000000 -1.00000000 0.00000000
vn 0.00000000 -1.00000000 0.00000000
vn 0.10340000 0.00000000 -0.99460000
vn 0.17770000 0.00000000 -0.98410000
vn 0.00000000 -1.00000000 0.00000000
vn 0.25030000 0.00000000 -0.96820000
vn 0.17770000 0.00000000 -0.98410000
vn 0.25030000 0.00000000 -0.96820000
vn 0.00000000 -1.00000000 0.00000000
vn 0.32120000 0.00000000 -0.94700000
vn 0.00000000 -1.00000000 0.00000000
vn 0.39000000 0.00000000 -0.92080000
vn 0.32120000 0.00000000 -0.94700000
vn 0.39000000 0.00000000 -0.92080000
vn 0.45840000 0.00000000 -0.88880000
vn 0.00000000 -1.00000000 0.00000000
vn 0.52230000 0.00000000 -0.85280000
vn 0.00000000 -1.00000000 0.00000000
vn 0.45840000 0.00000000 -0.88880000
vn 0.58320000 0.00000000 -0.81230000
vn 0.00000000 -1.00000000 0.00000000
vn 0.52230000 0.00000000 -0.85280000
vn 0.58320000 0.00000000 -0.81230000
vn 0.00000000 -1.00000000 0.00000000
vn 0.64110000 0.00000000 -0.76740000
vn 0.00000000 -1.00000000 0.00000000
vn 0.64110000 0.00000000 -0.76740000
vn 0.69820000 0.00000000 -0.71590000
vn 0.69820000 0.00000000 -0.71590000
vn 0.00000000 -1.00000000 0.00000000
vn 0.74950000 0.00000000 -0.66200000
vn 0.00000000 -1.00000000 0.00000000
vn 0.79490000 0.00000000 -0.60670000
vn 0.74950000 0.00000000 -0.66200000
vn 0.00000000 -1.00000000 0.00000000
vn 0.83910000 0.00000000 -0.54400000
vn 0.79490000 0.00000000 -0.60670000
vn 0.87710000 0.00000000 -0.48030000
vn 0.00000000 -1.00000000 0.00000000
vn 0.83910000 0.00000000 -0.54400000
vn 0.87710000 0.00000000 -0.48030000
vn 0.91020000 0.00000000 -0.41410000
vn 0.00000000 -1.00000000 0.00000000
vn 0.93840000 0.00000000 -0.34550000
vn 0.91020000 0.00000000 -0.41410000
vn 0.00000000 -1.00000000 0.00000000
vn 0.96130000 0.00000000 -0.27560000
vn 0.93840000 0.00000000 -0.34550000
vn 0.00000000 -1.00000000 0.00000000
vn 0.97830000 0.00000000 -0.20720000
vn 0.00000000 -1.00000000 0.00000000
vn 0.96130000 0.00000000 -0.27560000
vn 0.00000000 -1.00000000 0.00000000
vn 0.98980000 0.00000000 -0.14250000
vn 0.97830000 0.00000000 -0.20720000
vn 0.99700000 0.00000000 -0.07790000
vn 0.00000000 -1.00000000 0.00000000
vn 0.98980000 0.00000000 -0.14250000
vn 0.99990000 0.00000000 -0.01230000
vn 0.00000000 -1.00000000 0.00000000
vn 0.99700000 0.00000000 -0.07790000
vn 0.99860000 0.00000000 0.05320000
vn 0.00000000 -1.00000000 0.00000000
vn 0.99990000 0.00000000 -0.01230000
vn 0.99860000 0.00000000 0.05320000
vn 0.00000000 -1.00000000 0.00000000
vn 0.99290000 0.00000000 0.11890000
vn 0.98230000 0.00000000 0.18740000
vn 0.00000000 1.00000000 0.00000000
vn 0.99290000 0.00000000 0.11890000
vn 0.98230000 0.00000000 0.18740000
vn 0.96570000 0.00000000 0.25970000
vn 0.00000000 1.00000000 0.00000000
vn 0.94370000 0.00000000 0.33080000
vn 0.00000000 1.00000000 0.00000000
vn 0.96570000 0.00000000 0.25970000
vn 0.00000000 1.00000000 0.00000000
vn 0.91680000 0.00000000 0.39940000
vn 0.94370000 0.00000000 0.33080000
vn 0.91680000 0.00000000 0.39940000
vn 0.00000000 1.00000000 0.00000000
vn 0.88390000 0.00000000 0.46770000
vn 0.88390000 0.00000000 0.46770000
vn 0.84700000 0.00000000 0.53150000
vn 0.00000000 1.00000000 0.00000000
vn 0.00000000 1.00000000 0.00000000
vn 0.84700000 0.00000000 0.53150000
vn 0.80530000 0.00000000 0.59280000
vn 0.80530000 0.00000000 0.59280000
vn 0.00000000 1.00000000 0.00000000
vn 0.76120000 0.00000000 0.64850000
vn 0.70870000 0.00000000 0.70550000
vn 0.76120000 0.00000000 0.64850000
vn 0.00000000 1.00000000 0.00000000
vn 0.70870000 0.00000000 0.70550000
vn 0.00000000 1.00000000 0.00000000
vn 0.65530000 0.00000000 0.75540000
vn 0.00000000 1.00000000 0.00000000
vn 0.65530000 0.00000000 0.75540000
vn 0.59610000 0.00000000 0.80290000
vn 0.00000000 1.00000000 0.00000000
vn 0.59610000 0.00000000 0.80290000
vn 0.53620000 0.00000000 0.84410000
vn 0.53620000 0.00000000 0.84410000
vn 0.00000000 1.00000000 0.00000000
vn 0.47130000 0.00000000 0.88200000
vn 0.47130000 0.00000000 0.88200000
vn 0.40380000 0.00000000 0.91480000
vn 0.00000000 1.00000000 0.00000000
vn 0.00000000 1.00000000 0.00000000
vn 0.33590000 0.00000000 0.94190000
vn 0.40380000 0.00000000 0.91480000
vn 0.33590000 0.00000000 0.94190000
vn 0.00000000 1.00000000 0.00000000
vn 0.26440000 0.00000000 0.96440000
vn 0.26440000 0.00000000 0.96440000
vn 0.00000000 1.00000000 0.00000000
vn 0.19260000 0.00000000 0.98130000
vn 0.00000000 1.00000000 0.00000000
vn 0.11930000 0.00000000 0.99290000
vn 0.19260000 0.00000000 0.98130000
vn 0.11930000 0.00000000 0.99290000
vn 0.00000000 1.00000000 0.00000000
vn 0.04490000 0.00000000 0.99900000
vn 0.00000000 1.00000000 0.00000000
vn -0.02930000 0.00000000 0.99960000
vn 0.04490000 0.00000000 0.99900000
vn -0.10340000 0.00000000 0.99460000
vn -0.02930000 0.00000000 0.99960000
vn 0.00000000 1.00000000 0.00000000
vn -0.17770000 0.00000000 0.98410000
vn -0.10340000 0.00000000 0.99460000
vn 0.00000000 1.00000000 0.00000000
vn -0.25030000 0.00000000 0.96820000
vn 0.00000000 1.00000000 0.00000000
vn -0.17770000 0.00000000 0.98410000
vn -0.32120000 0.00000000 0.94700000
vn 0.00000000 1.00000000 0.00000000
vn -0.25030000 0.00000000 0.96820000
vn -0.32120000 0.00000000 0.94700000
vn -0.39000000 0.00000000 0.92080000
vn 0.00000000 1.00000000 0.00000000
vn -0.45840000 0.00000000 0.88880000
vn -0.39000000 0.00000000 0.92080000
vn 0.00000000 1.00000000 0.00000000
vn -0.52230000 0.00000000 0.85280000
vn -0.45840000 0.00000000 0.88880000
vn 0.00000000 1.00000000 0.00000000
vn 0.00000000 1.00000000 0.00000000
vn -0.58320000 0.00000000 0.81230000
vn -0.52230000 0.00000000 0.85280000
vn -0.64110000 0.00000000 0.76740000
vn 0.00000000 1.00000000 0.00000000
vn -0.58320000 0.00000000 0.81230000
vn 0.00000000 1.00000000 0.00000000
vn -0.64110000 0.00000000 0.76740000
vn -0.69820000 0.00000000 0.71590000
vn -0.69820000 0.00000000 0.71590000
vn -0.74950000 0.00000000 0.66200000
vn 0.00000000 1.00000000 0.00000000
vn -0.74950000 0.00000000 0.66200000
vn -0.79490000 0.00000000 0.60670000
vn 0.00000000 1.00000000 0.00000000
vn -0.79490000 0.00000000 0.60670000
vn 0.00000000 1.00000000 0.00000000
vn -0.83910000 0.00000000 0.54400000
vn -0.83910000 0.00000000 0.54400000
vn -0.87710000 0.00000000 0.48030000
vn 0.00000000 1.00000000 0.00000000
vn -0.91020000 0.00000000 0.41410000
vn 0.00000000 1.00000000 0.00000000
vn -0.87710000 0.00000000 0.48030000
vn -0.91020000 0.00000000 0.41410000
vn -0.93840000 0.00000000 0.34550000
vn 0.00000000 1.00000000 0.00000000
vn -0.96130000 0.00000000 0.27560000
vn 0.00000000 1.00000000 0.00000000
vn -0.93840000 0.00000000 0.34550000
vn -0.96130000 0.00000000 0.27560000
vn -0.97830000 0.00000000 0.20720000
vn 0.00000000 1.00000000 0.00000000
vn 0.00000000 1.00000000 0.00000000
vn -0.97830000 0.00000000 0.20720000
vn -0.98980000 0.00000000 0.14250000
vn 0.00000000 1.00000000 0.00000000
vn -0.99700000 0.00000000 0.07790000
vn -0.98980000 0.00000000 0.14250000
vn -0.99700000 0.00000000 0.07790000
vn -0.99990000 0.00000000 0.01230000
vn 0.00000000 1.00000000 0.00000000
vn -0.99990000 0.00000000 0.01230000
vn 0.00000000 1.00000000 0.00000000
vn -0.99860000 0.00000000 -0.05320000
vn -0.99860000 0.00000000 -0.05320000
vn -0.99290000 0.00000000 -0.11890000
vn 0.00000000 1.00000000 0.00000000
vn -0.99290000 0.00000000 -0.11890000
vn 0.00000000 1.00000000 0.00000000
vn -0.98230000 0.00000000 -0.18740000
vn -0.96570000 0.00000000 -0.25970000
vn 0.00000000 1.00000000 0.00000000
vn -0.98230000 0.00000000 -0.18740000
vn -0.96570000 0.00000000 -0.25970000
vn -0.94370000 0.00000000 -0.33080000
vn 0.00000000 1.00000000 0.00000000
vn -0.94370000 0.00000000 -0.33080000
vn 0.00000000 1.00000000 0.00000000
vn -0.91680000 0.00000000 -0.39940000
vn 0.00000000 1.00000000 0.00000000
vn -0.88390000 0.00000000 -0.46770000
vn -0.91680000 0.00000000 -0.39940000
vn -0.84700000 0.00000000 -0.53150000
vn 0.00000000 1.00000000 0.00000000
vn -0.88390000 0.00000000 -0.46770000
vn 0.00000000 1.00000000 0.00000000
vn -0.80530000 0.00000000 -0.59280000
vn -0.84700000 0.00000000 -0.53150000
vn -0.80530000 0.00000000 -0.59280000
vn -0.76120000 0.00000000 -0.64850000
vn 0.00000000 1.00000000 0.00000000
vn 0.00000000 1.00000000 0.00000000
vn -0.70870000 0.00000000 -0.70550000
vn -0.76120000 0.00000000 -0.64850000
vn 0.00000000 1.00000000 0.00000000
vn -0.65530000 0.00000000 -0.75540000
vn -0.70870000 0.00000000 -0.70550000
vn 0.00000000 1.00000000 0.00000000
vn -0.65530000 0.00000000 -0.75540000
vn -0.59610000 0.00000000 -0.80290000
vn -0.59610000 0.00000000 -0.80290000
vn 0.00000000 1.00000000 0.00000000
vn -0.53620000 0.00000000 -0.84410000
vn -0.53620000 0.00000000 -0.84410000
vn 0.00000000 1.00000000 0.00000000
vn -0.47130000 0.00000000 -0.88200000
vn 0.00000000 1.00000000 0.00000000
vn -0.40380000 0.00000000 -0.91480000
vn -0.47130000 0.00000000 -0.88200000
vn -0.33590000 0.00000000 -0.94190000
vn 0.00000000 1.00000000 0.00000000
vn -0.40380000 0.00000000 -0.91480000
vn -0.26440000 0.00000000 -0.96440000
vn -0.33590000 0.00000000 -0.94190000
vn 0.00000000 1.00000000 0.00000000
vn 0.00000000 1.00000000 0.00000000
vn -0.19260000 0.00000000 -0.98130000
vn -0.26440000 0.00000000 -0.96440000
vn -0.19260000 0.00000000 -0.98130000
vn 0.00000000 1.00000000 0.00000000
vn -0.11930000 0.00000000 -0.99290000
vn 0.00000000 1.00000000 0.00000000
vn -0.11930000 0.00000000 -0.99290000
vn -0.04490000 0.00000000 -0.99900000
vn 0.00000000 1.00000000 0.00000000
vn 0.02930000 0.00000000 -0.99960000
vn -0.04490000 0.00000000 -0.99900000
vn 0.02930000 0.00000000 -0.99960000
vn 0.00000000 1.00000000 0.00000000
vn 0.10340000 0.00000000 -0.99460000
vn 0.00000000 1.00000000 0.00000000
vn 0.10340000 0.00000000 -0.99460000
vn 0.17770000 0.00000000 -0.98410000
vn 0.00000000 1.00000000 0.00000000
vn 0.17770000 0.00000000 -0.98410000
vn 0.25030000 0.00000000 -0.96820000
vn 0.32120000 0.00000000 -0.94700000
vn 0.00000000 1.00000000 0.00000000
vn 0.25030000 0.00000000 -0.96820000
vn 0.39000000 0.00000000 -0.92080000
vn 0.32120000 0.00000000 -0.94700000
vn 0.00000000 1.00000000 0.00000000
vn 0.39000000 0.00000000 -0.92080000
vn 0.45840000 0.00000000 -0.88880000
vn 0.00000000 1.00000000 0.00000000
vn 0.00000000 1.00000000 0.00000000
vn 0.45840000 0.00000000 -0.88880000
vn 0.52230000 0.00000000 -0.85280000
vn 0.58320000 0.00000000 -0.81230000
vn 0.52230000 0.00000000 -0.85280000
vn 0.00000000 1.00000000 0.00000000
vn 0.64110000 0.00000000 -0.76740000
vn 0.00000000 1.00000000 0.00000000
vn 0.58320000 0.00000000 -0.81230000
vn 0.00000000 1.00000000 0.00000000
vn 0.69820000 0.00000000 -0.71590000
vn 0.64110000 0.00000000 -0.76740000
vn 0.69820000 0.00000000 -0.71590000
vn 0.00000000 1.00000000 0.00000000
vn 0.74950000 0.00000000 -0.66200000
vn 0.79490000 0.00000000 -0.60670000
vn 0.00000000 1.00000000 0.00000000
vn 0.74950000 0.00000000 -0.66200000
vn 0.79490000 0.00000000 -0.60670000
vn 0.00000000 1.00000000 0.00000000
vn 0.83910000 0.00000000 -0.54400000
vn 0.87710000 0.00000000 -0.48030000
vn 0.00000000 1.00000000 0.00000000
vn 0.83910000 0.00000000 -0.54400000
vn 0.87710000 0.00000000 -0.48030000
vn 0.91020000 0.00000000 -0.41410000
vn 0.00000000 1.00000000 0.00000000
vn 0.91020000 0.00000000 -0.41410000
vn 0.93840000 0.00000000 -0.34550000
vn 0.00000000 1.00000000 0.00000000
vn 0.96130000 0.00000000 -0.27560000
vn 0.00000000 1.00000000 0.00000000
vn 0.93840000 0.00000000 -0.34550000
vn 0.00000000 1.00000000 0.00000000
vn 0.97830000 0.00000000 -0.20720000
vn 0.96130000 0.00000000 -0.27560000
vn 0.97830000 0.00000000 -0.20720000
vn 0.00000000 1.00000000 0.00000000
vn 0.98980000 0.00000000 -0.14250000
vn 0.00000000 1.00000000 0.00000000
vn 0.99700000 0.00000000 -0.07790000
vn 0.98980000 0.00000000 -0.14250000
vn 0.00000000 1.00000000 0.00000000
vn 0.99700000 0.00000000 -0.07790000
vn 0.99990000 0.00000000 -0.01230000
vn 0.00000000 1.00000000 0.00000000
vn 0.99990000 0.00000000 -0.01230000
vn 0.99860000 0.00000000 0.05320000
vn 0.99290000 0.00000000 0.11890000
vn 0.99860000 0.00000000 0.05320000
vn 0.00000000 1.00000000 0.00000000
vt 0.78677700 0.89002400
vt 0.78677700 0.89002400
vt 0.78677700 0.89002400
vt 0.75703600 0.91023400
vt 0.75703600 0.91023400
vt 0.75703600 0.91023400
vt 0.72587700 0.92818100
vt 0.72587700 0.92818100
vt 0.72587700 0.92818100
vt 0.69347100 0.94376600
vt 0.69347100 0.94376600
vt 0.69347100 0.94376600
vt 0.65999900 0.95690200
vt 0.65999900 0.95690200
vt 0.65999900 0.95690200
vt 0.62564300 0.96751800
vt 0.62564300 0.96751800
vt 0.62564300 0.96751800
vt 0.59059500 0.97555400
vt 0.59059500 0.97555400
vt 0.59059500 0.97555400
vt 0.55504600 0.98096700
vt 0.55504600 0.98096700
vt 0.55504600 0.98096700
vt 0.51919400 0.98372600
vt 0.51919400 0.98372600
vt 0.51919400 0.98372600
vt 0.48323600 0.98381600
vt 0.48323600 0.98381600
vt 0.48323600 0.98381600
vt 0.44737000 0.98123700
vt 0.44737000 0.98123700
vt 0.44737000 0.98123700
vt 0.41179500 0.97600300
vt 0.41179500 0.97600300
vt 0.41179500 0.97600300
vt 0.37670700 0.96814300
vt 0.37670700 0.96814300
vt 0.37670700 0.96814300
vt 0.34229800 0.95770000
vt 0.34229800 0.95770000
vt 0.34229800 0.95770000
vt 0.30876000 0.94473200
vt 0.30876000 0.94473200
vt 0.30876000 0.94473200
vt 0.27627700 0.92931000
vt 0.27627700 0.92931000
vt 0.27627700 0.92931000
vt 0.24502800 0.91152000
vt 0.24502800 0.91152000
vt 0.24502800 0.91152000
vt 0.21518600 0.89145900
vt 0.21518600 0.89145900
vt 0.21518600 0.89145900
vt 0.18691500 0.86923900
vt 0.18691500 0.86923900
vt 0.18691500 0.86923900
vt 0.16037200 0.84498100
vt 0.16037200 0.84498100
vt 0.16037200 0.84498100
vt 0.13570200 0.81882000
vt 0.13570200 0.81882000
vt 0.13570200 0.81882000
vt 0.11304200 0.79090000
vt 0.11304200 0.79090000
vt 0.11304200 0.79090000
vt 0.09251700 0.76137500
vt 0.09251700 0.76137500
vt 0.09251700 0.76137500
vt 0.07424000 0.73040800
vt 0.07424000 0.73040800
vt 0.07424000 0.73040800
vt 0.05831300 0.69817000
vt 0.05831300 0.69817000
vt 0.05831300 0.69817000
vt 0.04482200 0.66483900
vt 0.04482200 0.66483900
vt 0.04482200 0.66483900
vt 0.03384200 0.63059800
vt 0.03384200 0.63059800
vt 0.03384200 0.63059800
vt 0.02543400 0.59563700
vt 0.02543400 0.59563700
vt 0.02543400 0.59563700
vt 0.01964400 0.56014800
vt 0.01964400 0.56014800
vt 0.01964400 0.56014800
vt 0.01650500 0.52432700
vt 0.01650500 0.52432700
vt 0.01650500 0.52432700
vt 0.01603300 0.48837200
vt 0.01603300 0.48837200
vt 0.01603300 0.48837200
vt 0.01823100 0.45248100
vt 0.01823100 0.45248100
vt 0.01823100 0.45248100
vt 0.02308700 0.41685200
vt 0.02308700 0.41685200
vt 0.02308700 0.41685200
vt 0.03057500 0.38168200
vt 0.03057500 0.38168200
vt 0.03057500 0.38168200
vt 0.04065200 0.34716500
vt 0.04065200 0.34716500
vt 0.04065200 0.34716500
vt 0.05326300 0.31349100
vt 0.05326300 0.31349100
vt 0.05326300 0.31349100
vt 0.06834000 0.28084600
vt 0.06834000 0.28084600
vt 0.06834000 0.28084600
vt 0.08579700 0.24941000
vt 0.08579700 0.24941000
vt 0.08579700 0.24941000
vt 0.10307400 0.22285600
vt 0.10307400 0.22285600
vt 0.10307400 0.22285600
vt 0.12204900 0.19748900
vt 0.12204900 0.19748900
vt 0.12204900 0.19748900
vt 0.14264400 0.17341800
vt 0.14264400 0.17341800
vt 0.14264400 0.17341800
vt 0.16476800 0.15074500
vt 0.16476800 0.15074500
vt 0.16476800 0.15074500
vt 0.18832900 0.12956800
vt 0.18832900 0.12956800
vt 0.18832900 0.12956800
vt 0.21322300 0.10997600
vt 0.21322300 0.10997600
vt 0.21322300 0.10997600
vt 0.24296400 0.08976600
vt 0.24296400 0.08976600
vt 0.24296400 0.08976600
vt 0.27412300 0.07181900
vt 0.27412300 0.07181900
vt 0.27412300 0.07181900
vt 0.30652900 0.05623400
vt 0.30652900 0.05623400
vt 0.30652900 0.05623400
vt 0.34000100 0.04309800
vt 0.34000100 0.04309800
vt 0.34000100 0.04309800
vt 0.37435700 0.03248200
vt 0.37435700 0.03248200
vt 0.37435700 0.03248200
vt 0.40940500 0.02444600
vt 0.40940500 0.02444600
vt 0.40940500 0.02444600
vt 0.44495400 0.01903300
vt 0.44495400 0.01903300
vt 0.44495400 0.01903300
vt 0.48080600 0.01627400
vt 0.48080600 0.01627400
vt 0.48080600 0.01627400
vt 0.51676400 0.01618400
vt 0.51676400 0.01618400
vt 0.51676400 0.01618400
vt 0.55263000 0.01876300
vt 0.55263000 0.01876300
vt 0.55263000 0.01876300
vt 0.58820500 0.02399700
vt 0.58820500 0.02399700
vt 0.58820500 0.02399700
vt 0.62329300 0.03185700
vt 0.62329300 0.03185700
vt 0.62329300 0.03185700
vt 0.65770200 0.04230000
vt 0.65770200 0.04230000
vt 0.65770200 0.04230000
vt 0.69124000 0.05526800
vt 0.69124000 0.05526800
vt 0.69124000 0.05526800
vt 0.72372300 0.07069000
vt 0.72372300 0.07069000
vt 0.72372300 0.07069000
vt 0.75497200 0.08848000
vt 0.75497200 0.08848000
vt 0.75497200 0.08848000
vt 0.78481400 0.10854100
vt 0.78481400 0.10854100
vt 0.78481400 0.10854100
vt 0.81308500 0.13076100
vt 0.81308500 0.13076100
vt 0.81308500 0.13076100
vt 0.83962800 0.15501900
vt 0.83962800 0.15501900
vt 0.83962800 0.15501900
vt 0.86429800 0.18118000
vt 0.86429800 0.18118000
vt 0.86429800 0.18118000
vt 0.88695800 0.20910000
vt 0.88695800 0.20910000
vt 0.88695800 0.20910000
vt 0.90748300 0.23862500
vt 0.90748300 0.23862500
vt 0.90748300 0.23862500
vt 0.92576000 0.26959200
vt 0.92576000 0.26959200
vt 0.92576000 0.26959200
vt 0.94168700 0.30183000
vt 0.94168700 0.30183000
vt 0.94168700 0.30183000
vt 0.95517800 0.33516100
vt 0.95517800 0.33516100
vt 0.95517800 0.33516100
vt 0.96615800 0.36940200
vt 0.96615800 0.36940200
vt 0.96615800 0.36940200
vt 0.97456600 0.40436300
vt 0.97456600 0.40436300
vt 0.97456600 0.40436300
vt 0.98035600 0.43985200
vt 0.98035600 0.43985200
vt 0.98035600 0.43985200
vt 0.98349500 0.47567300
vt 0.98349500 0.47567300
vt 0.98349500 0.47567300
vt 0.98396700 0.51162800
vt 0.98396700 0.51162800
vt 0.98396700 0.51162800
vt 0.98176900 0.54751900
vt 0.98176900 0.54751900
vt 0.98176900 0.54751900
vt 0.97691300 0.58314800
vt 0.97691300 0.58314800
vt 0.97691300 0.58314800
vt 0.96942500 0.61831800
vt 0.96942500 0.61831800
vt 0.96942500 0.61831800
vt 0.95934800 0.65283500
vt 0.95934800 0.65283500
vt 0.95934800 0.65283500
vt 0.94673700 0.68650900
vt 0.94673700 0.68650900
vt 0.94673700 0.68650900
vt 0.93166000 0.71915400
vt 0.93166000 0.71915400
vt 0.93166000 0.71915400
vt 0.91420300 0.75059000
vt 0.91420300 0.75059000
vt 0.91420300 0.75059000
vt 0.89692600 0.77714400
vt 0.89692600 0.77714400
vt 0.89692600 0.77714400
vt 0.87795100 0.80251100
vt 0.87795100 0.80251100
vt 0.87795100 0.80251100
vt 0.85735600 0.82658200
vt 0.85735600 0.82658200
vt 0.85735600 0.82658200
vt 0.83523200 0.84925500
vt 0.83523200 0.84925500
vt 0.83523200 0.84925500
vt 0.81167100 0.87043200
vt 0.81167100 0.87043200
vt 0.81167100 0.87043200
vt 0.78677700 0.89002400
vt 0.78677700 0.89002400
vt 0.78677700 0.89002400
vt 0.75703600 0.91023400
vt 0.75703600 0.91023400
vt 0.75703600 0.91023400
vt 0.72587700 0.92818100
vt 0.72587700 0.92818100
vt 0.72587700 0.92818100
vt 0.69347100 0.94376600
vt 0.69347100 0.94376600
vt 0.69347100 0.94376600
vt 0.65999900 0.95690200
vt 0.65999900 0.95690200
vt 0.65999900 0.95690200
vt 0.62564300 0.96751800
vt 0.62564300 0.96751800
vt 0.62564300 0.96751800
vt 0.59059500 0.97555400
vt 0.59059500 0.97555400
vt 0.59059500 0.97555400
vt 0.55504600 0.98096700
vt 0.55504600 0.98096700
vt 0.55504600 0.98096700
vt 0.51919400 0.98372600
vt 0.51919400 0.98372600
vt 0.51919400 0.98372600
vt 0.48323600 0.98381600
vt 0.48323600 0.98381600
vt 0.48323600 0.98381600
vt 0.44737000 0.98123700
vt 0.44737000 0.98123700
vt 0.44737000 0.98123700
vt 0.41179500 0.97600300
vt 0.41179500 0.97600300
vt 0.41179500 0.97600300
vt 0.37670700 0.96814300
vt 0.37670700 0.96814300
vt 0.37670700 0.96814300
vt 0.34229800 0.95770000
vt 0.34229800 0.95770000
vt 0.34229800 0.95770000
vt 0.30876000 0.94473200
vt 0.30876000 0.94473200
vt 0.30876000 0.94473200
vt 0.27627700 0.92931000
vt 0.27627700 0.92931000
vt 0.27627700 0.92931000
vt 0.24502800 0.91152000
vt 0.24502800 0.91152000
vt 0.24502800 0.91152000
vt 0.21518600 0.89145900
vt 0.21518600 0.89145900
vt 0.21518600 0.89145900
vt 0.18691500 0.86923900
vt 0.18691500 0.86923900
vt 0.18691500 0.86923900
vt 0.16037200 0.84498100
vt 0.16037200 0.84498100
vt 0.16037200 0.84498100
vt 0.13570200 0.81882000
vt 0.13570200 0.81882000
vt 0.13570200 0.81882000
vt 0.11304200 0.79090000
vt 0.11304200 0.79090000
vt 0.11304200 0.79090000
vt 0.09251700 0.76137500
vt 0.09251700 0.76137500
vt 0.09251700 0.76137500
vt 0.07424000 0.73040800
vt 0.07424000 0.73040800
vt 0.07424000 0.73040800
vt 0.05831300 0.69817000
vt 0.05831300 0.69817000
vt 0.05831300 0.69817000
vt 0.04482200 0.66483900
vt 0.04482200 0.66483900
vt 0.04482200 0.66483900
vt 0.03384200 0.63059800
vt 0.03384200 0.63059800
vt 0.03384200 0.63059800
vt 0.02543400 0.59563700
vt 0.02543400 0.59563700
vt 0.02543400 0.59563700
vt 0.01964400 0.56014800
vt 0.01964400 0.56014800
vt 0.01964400 0.56014800
vt 0.01650500 0.52432700
vt 0.01650500 0.52432700
vt 0.01650500 0.52432700
vt 0.01603300 0.48837200
vt 0.01603300 0.48837200
vt 0.01603300 0.48837200
vt 0.01823100 0.45248100
vt 0.01823100 0.45248100
vt 0.01823100 0.45248100
vt 0.02308700 0.41685200
vt 0.02308700 0.41685200
vt 0.02308700 0.41685200
vt 0.03057500 0.38168200
vt 0.03057500 0.38168200
vt 0.03057500 0.38168200
vt 0.04065200 0.34716500
vt 0.04065200 0.34716500
vt 0.04065200 0.34716500
vt 0.05326300 0.31349100
vt 0.05326300 0.31349100
vt 0.05326300 0.31349100
vt 0.06834000 0.28084600
vt 0.06834000 0.28084600
vt 0.06834000 0.28084600
vt 0.08579700 0.24941000
vt 0.08579700 0.24941000
vt 0.08579700 0.24941000
vt 0.10307400 0.22285600
vt 0.10307400 0.22285600
vt 0.10307400 0.22285600
vt 0.12204900 0.19748900
vt 0.12204900 0.19748900
vt 0.12204900 0.19748900
vt 0.14264400 0.17341800
vt 0.14264400 0.17341800
vt 0.14264400 0.17341800
vt 0.16476800 0.15074500
vt 0.16476800 0.15074500
vt 0.16476800 0.15074500
vt 0.18832900 0.12956800
vt 0.18832900 0.12956800
vt 0.18832900 0.12956800
vt 0.21322300 0.10997600
vt 0.21322300 0.10997600
vt 0.21322300 0.10997600
vt 0.24296400 0.08976600
vt 0.24296400 0.08976600
vt 0.24296400 0.08976600
vt 0.27412300 0.07181900
vt 0.27412300 0.07181900
vt 0.27412300 0.07181900
vt 0.30652900 0.05623400
vt 0.30652900 0.05623400
vt 0.30652900 0.05623400
vt 0.34000100 0.04309800
vt 0.34000100 0.04309800
vt 0.34000100 0.04309800
vt 0.37435700 0.03248200
vt 0.37435700 0.03248200
vt 0.37435700 0.03248200
vt 0.40940500 0.02444600
vt 0.40940500 0.02444600
vt 0.40940500 0.02444600
vt 0.44495400 0.01903300
vt 0.44495400 0.01903300
vt 0.44495400 0.01903300
vt 0.48080600 0.01627400
vt 0.48080600 0.01627400
vt 0.48080600 0.01627400
vt 0.51676400 0.01618400
vt 0.51676400 0.01618400
vt 0.51676400 0.01618400
vt 0.55263000 0.01876300
vt 0.55263000 0.01876300
vt 0.55263000 0.01876300
vt 0.58820500 0.02399700
vt 0.58820500 0.02399700
vt 0.58820500 0.02399700
vt 0.62329300 0.03185700
vt 0.62329300 0.03185700
vt 0.62329300 0.03185700
vt 0.65770200 0.04230000
vt 0.65770200 0.04230000
vt 0.65770200 0.04230000
vt 0.69124000 0.05526800
vt 0.69124000 0.05526800
vt 0.69124000 0.05526800
vt 0.72372300 0.07069000
vt 0.72372300 0.07069000
vt 0.72372300 0.07069000
vt 0.75497200 0.08848000
vt 0.75497200 0.08848000
vt 0.75497200 0.08848000
vt 0.78481400 0.10854100
vt 0.78481400 0.10854100
vt 0.78481400 0.10854100
vt 0.81308500 0.13076100
vt 0.81308500 0.13076100
vt 0.81308500 0.13076100
vt 0.83962800 0.15501900
vt 0.83962800 0.15501900
vt 0.83962800 0.15501900
vt 0.86429800 0.18118000
vt 0.86429800 0.18118000
vt 0.86429800 0.18118000
vt 0.88695800 0.20910000
vt 0.88695800 0.20910000
vt 0.88695800 0.20910000
vt 0.90748300 0.23862500
vt 0.90748300 0.23862500
vt 0.90748300 0.23862500
vt 0.92576000 0.26959200
vt 0.92576000 0.26959200
vt 0.92576000 0.26959200
vt 0.94168700 0.30183000
vt 0.94168700 0.30183000
vt 0.94168700 0.30183000
vt 0.95517800 0.33516100
vt 0.95517800 0.33516100
vt 0.95517800 0.33516100
vt 0.96615800 0.36940200
vt 0.96615800 0.36940200
vt 0.96615800 0.36940200
vt 0.97456600 0.40436300
vt 0.97456600 0.40436300
vt 0.97456600 0.40436300
vt 0.98035600 0.43985200
vt 0.98035600 0.43985200
vt 0.98035600 0.43985200
vt 0.98349500 0.47567300
vt 0.98349500 0.47567300
vt 0.98349500 0.47567300
vt 0.98396700 0.51162800
vt 0.98396700 0.51162800
vt 0.98396700 0.51162800
vt 0.98176900 0.54751900
vt 0.98176900 0.54751900
vt 0.98176900 0.54751900
vt 0.97691300 0.58314800
vt 0.97691300 0.58314800
vt 0.97691300 0.58314800
vt 0.96942500 0.61831800
vt 0.96942500 0.61831800
vt 0.96942500 0.61831800
vt 0.95934800 0.65283500
vt 0.95934800 0.65283500
vt 0.95934800 0.65283500
vt 0.94673700 0.68650900
vt 0.94673700 0.68650900
vt 0.94673700 0.68650900
vt 0.93166000 0.71915400
vt 0.93166000 0.71915400
vt 0.93166000 0.71915400
vt 0.91420300 0.75059000
vt 0.91420300 0.75059000
vt 0.91420300 0.75059000
vt 0.89692600 0.77714400
vt 0.89692600 0.77714400
vt 0.89692600 0.77714400
vt 0.87795100 0.80251100
vt 0.87795100 0.80251100
vt 0.87795100 0.80251100
vt 0.85735600 0.82658200
vt 0.85735600 0.82658200
vt 0.85735600 0.82658200
vt 0.83523200 0.84925500
vt 0.83523200 0.84925500
vt 0.83523200 0.84925500
vt 0.81167100 0.87043200
vt 0.81167100 0.87043200
vt 0.81167100 0.87043200
f 111/111/111 114/114/114 200/200/200
f 115/115/115 118/118/118 193/193/193
f 115/115/115 196/196/196 114/114/114
f 111/111/111 202/202/202 108/108/108
f 102/102/102 212/212/212 99/99/99
f 103/103/103 108/108/108 207/207/207
f 209/209/209 102/102/102 103/103/103
f 99/99/99 215/215/215 94/94/94
f 118/118/118 123/123/123 192/192/192
f 145/145/145 171/171/171 144/144/144
f 151/151/151 165/165/165 150/150/150
f 167/167/167 145/145/145 150/150/150
f 172/172/172 141/141/141 144/144/144
f 130/130/130 184/184/184 129/129/129
f 134/134/134 181/181/181 130/130/130
f 141/141/141 175/175/175 137/137/137
f 134/134/134 137/137/137 180/180/180
f 184/184/184 124/124/124 129/129/129
f 123/123/123 124/124/124 189/189/189
f 217/217/217 93/93/93 94/94/94
f 230/230/230 80/80/80 84/84/84
f 78/78/78 237/237/237 73/73/73
f 80/80/80 234/234/234 78/78/78
f 84/84/84 85/85/85 226/226/226
f 68/68/68 244/244/244 65/65/65
f 242/242/242 68/68/68 72/72/72
f 251/251/251 59/59/59 62/62/62
f 248/248/248 62/62/62 65/65/65
f 72/72/72 73/73/73 240/240/240
f 89/89/89 223/223/223 85/85/85
f 50/50/50 53/53/53 5/5/5
f 11/11/11 45/45/45 48/48/48
f 8/8/8 48/48/48 50/50/50
f 55/55/55 2/2/2 53/53/53
f 19/19/19 35/35/35 37/37/37
f 37/37/37 40/40/40 17/17/17
f 28/28/28 31/31/31 25/25/25
f 31/31/31 35/35/35 24/24/24
f 45/45/45 14/14/14 40/40/40
f 59/59/59 254/254/254 55/55/55
f 93/93/93 221/221/221 89/89/89
f 151/151/151 155/155/155 160/160/160
f 151/151/151 160/160/160 165/165/165
f 167/167/167 171/171/171 145/145/145
f 167/167/167 150/150/150 165/165/165
f 144/144/144 171/171/171 172/172/172
f 175/175/175 180/180/180 137/137/137
f 184/184/184 130/130/130 181/181/181
f 134/134/134 180/180/180 181/181/181
f 172/172/172 175/175/175 141/141/141
f 124/124/124 184/184/184 189/189/189
f 192/192/192 193/193/193 118/118/118
f 200/200/200 114/114/114 196/196/196
f 115/115/115 193/193/193 196/196/196
f 200/200/200 202/202/202 111/111/111
f 209/209/209 103/103/103 207/207/207
f 212/212/212 102/102/102 209/209/209
f 94/94/94 215/215/215 217/217/217
f 212/212/212 215/215/215 99/99/99
f 108/108/108 202/202/202 207/207/207
f 189/189/189 192/192/192 123/123/123
f 93/93/93 217/217/217 221/221/221
f 5/5/5 8/8/8 50/50/50
f 5/5/5 53/53/53 2/2/2
f 257/257/257 2/2/2 55/55/55
f 11/11/11 48/48/48 8/8/8
f 25/25/25 31/31/31 24/24/24
f 24/24/24 35/35/35 19/19/19
f 37/37/37 17/17/17 19/19/19
f 17/17/17 40/40/40 14/14/14
f 45/45/45 11/11/11 14/14/14
f 257/257/257 55/55/55 254/254/254
f 237/237/237 78/78/78 234/234/234
f 80/80/80 230/230/230 234/234/234
f 230/230/230 84/84/84 226/226/226
f 73/73/73 237/237/237 240/240/240
f 59/59/59 251/251/251 254/254/254
f 62/62/62 248/248/248 251/251/251
f 244/244/244 248/248/248 65/65/65
f 68/68/68 242/242/242 244/244/244
f 240/240/240 242/242/242 72/72/72
f 226/226/226 85/85/85 223/223/223
f 89/89/89 221/221/221 223/223/223
f 155/155/155 158/158/158 160/160/160
f 368/368/368 458/458/458 372/372/372
f 373/373/373 451/451/451 376/376/376
f 373/373/373 372/372/372 454/454/454
f 368/368/368 366/366/366 462/462/462
f 360/360/360 356/356/356 471/471/471
f 362/362/362 465/465/465 366/366/366
f 466/466/466 362/362/362 360/360/360
f 356/356/356 354/354/354 473/473/473
f 376/376/376 449/449/449 381/381/381
f 404/404/404 400/400/400 427/427/427
f 411/411/411 406/406/406 422/422/422
f 425/425/425 406/406/406 404/404/404
f 431/431/431 400/400/400 398/398/398
f 389/389/389 387/387/387 442/442/442
f 392/392/392 389/389/389 440/440/440
f 398/398/398 396/396/396 435/435/435
f 392/392/392 436/436/436 396/396/396
f 442/442/442 387/387/387 383/383/383
f 381/381/381 445/445/445 383/383/383
f 475/475/475 354/354/354 351/351/351
f 488/488/488 340/340/340 339/339/339
f 336/336/336 333/333/333 495/495/495
f 339/339/339 336/336/336 492/492/492
f 340/340/340 485/485/485 344/344/344
f 326/326/326 324/324/324 503/503/503
f 499/499/499 329/329/329 326/326/326
f 508/508/508 321/321/321 316/316/316
f 505/505/505 324/324/324 321/321/321
f 329/329/329 497/497/497 333/333/333
f 346/346/346 344/344/344 482/482/482
f 308/308/308 264/264/264 310/310/310
f 268/268/268 305/305/305 301/301/301
f 266/266/266 308/308/308 305/305/305
f 314/314/314 310/310/310 260/260/260
f 277/277/277 296/296/296 292/292/292
f 296/296/296 276/276/276 300/300/300
f 287/287/287 285/285/285 289/289/289
f 289/289/289 281/281/281 292/292/292
f 301/301/301 300/300/300 272/272/272
f 316/316/316 314/314/314 511/511/511
f 351/351/351 346/346/346 479/479/479
f 411/411/411 418/418/418 412/412/412
f 411/411/411 422/422/422 418/418/418
f 425/425/425 404/404/404 427/427/427
f 425/425/425 422/422/422 406/406/406
f 400/400/400 431/431/431 427/427/427
f 435/435/435 396/396/396 436/436/436
f 442/442/442 440/440/440 389/389/389
f 392/392/392 440/440/440 436/436/436
f 431/431/431 398/398/398 435/435/435
f 383/383/383 445/445/445 442/442/442
f 449/449/449 376/376/376 451/451/451
f 458/458/458 454/454/454 372/372/372
f 373/373/373 454/454/454 451/451/451
f 458/458/458 368/368/368 462/462/462
f 466/466/466 465/465/465 362/362/362
f 471/471/471 466/466/466 360/360/360
f 354/354/354 475/475/475 473/473/473
f 471/471/471 356/356/356 473/473/473
f 366/366/366 465/465/465 462/462/462
f 445/445/445 381/381/381 449/449/449
f 351/351/351 479/479/479 475/475/475
f 264/264/264 308/308/308 266/266/266
f 264/264/264 260/260/260 310/310/310
f 516/516/516 314/314/314 260/260/260
f 268/268/268 266/266/266 305/305/305
f 285/285/285 281/281/281 289/289/289
f 281/281/281 277/277/277 292/292/292
f 296/296/296 277/277/277 276/276/276
f 276/276/276 272/272/272 300/300/300
f 301/301/301 272/272/272 268/268/268
f 516/516/516 511/511/511 314/314/314
f 495/495/495 492/492/492 336/336/336
f 339/339/339 492/492/492 488/488/488
f 488/488/488 485/485/485 340/340/340
f 333/333/333 497/497/497 495/495/495
f 316/316/316 511/511/511 508/508/508
f 321/321/321 508/508/508 505/505/505
f 503/503/503 324/324/324 505/505/505
f 326/326/326 503/503/503 499/499/499
f 497/497/497 329/329/329 499/499/499
f 485/485/485 482/482/482 344/344/344
f 346/346/346 482/482/482 479/479/479
f 412/412/412 418/418/418 415/415/415
f 4/4/4 1/1/1 259/259/259
f 259/259/259 262/262/262 4/4/4
f 12/12/12 9/9/9 265/265/265
f 265/265/265 270/270/270 12/12/12
f 16/16/16 13/13/13 273/273/273
f 273/273/273 274/274/274 16/16/16
f 183/183/183 179/179/179 437/437/437
f 437/437/437 439/439/439 183/183/183
f 23/23/23 21/21/21 279/279/279
f 279/279/279 280/280/280 23/23/23
f 30/30/30 26/26/26 283/283/283
f 283/283/283 286/286/286 30/30/30
f 42/42/42 39/39/39 297/297/297
f 297/297/297 298/298/298 42/42/42
f 46/46/46 44/44/44 302/302/302
f 302/302/302 304/304/304 46/46/46
f 52/52/52 51/51/51 309/309/309
f 309/309/309 312/312/312 52/52/52
f 58/58/58 56/56/56 315/315/315
f 315/315/315 318/318/318 58/58/58
f 194/194/194 190/190/190 450/450/450
f 450/450/450 452/452/452 194/194/194
f 66/66/66 63/63/63 319/319/319
f 319/319/319 323/323/323 66/66/66
f 71/71/71 69/69/69 325/325/325
f 325/325/325 330/330/330 71/71/71
f 246/246/246 241/241/241 500/500/500
f 500/500/500 502/502/502 246/246/246
f 77/77/77 74/74/74 332/332/332
f 332/332/332 335/335/335 77/77/77
f 82/82/82 79/79/79 337/337/337
f 337/337/337 342/342/342 82/82/82
f 90/90/90 87/87/87 343/343/343
f 343/343/343 347/347/347 90/90/90
f 96/96/96 91/91/91 350/350/350
f 350/350/350 352/352/352 96/96/96
f 187/187/187 185/185/185 444/444/444
f 444/444/444 447/447/447 187/187/187
f 100/100/100 98/98/98 357/357/357
f 357/357/357 358/358/358 100/100/100
f 106/106/106 104/104/104 361/361/361
f 361/361/361 364/364/364 106/106/106
f 113/113/113 109/109/109 367/367/367
f 367/367/367 370/370/370 113/113/113
f 119/119/119 116/116/116 375/375/375
f 375/375/375 378/378/378 119/119/119
f 126/126/126 121/121/121 380/380/380
f 380/380/380 382/382/382 126/126/126
f 131/131/131 128/128/128 386/386/386
f 386/386/386 388/388/388 131/131/131
f 138/138/138 135/135/135 391/391/391
f 391/391/391 394/394/394 138/138/138
f 142/142/142 139/139/139 399/399/399
f 399/399/399 402/402/402 142/142/142
f 148/148/148 146/146/146 403/403/403
f 403/403/403 408/408/408 148/148/148
f 252/252/252 247/247/247 506/506/506
f 506/506/506 509/509/509 252/252/252
f 154/154/154 153/153/153 410/410/410
f 410/410/410 414/414/414 154/154/154
f 199/199/199 197/197/197 456/456/456
f 456/456/456 459/459/459 199/199/199
f 205/205/205 203/203/203 460/460/460
f 460/460/460 463/463/463 205/205/205
f 243/243/243 238/238/238 496/496/496
f 496/496/496 501/501/501 243/243/243
f 198/198/198 195/195/195 453/453/453
f 453/453/453 455/455/455 198/198/198
f 34/34/34 32/32/32 291/291/291
f 291/291/291 293/293/293 34/34/34
f 213/213/213 208/208/208 468/468/468
f 468/468/468 470/470/470 213/213/213
f 218/218/218 216/216/216 472/472/472
f 472/472/472 477/477/477 218/218/218
f 161/161/161 159/159/159 416/416/416
f 416/416/416 419/419/419 161/161/161
f 225/225/225 222/222/222 480/480/480
f 480/480/480 483/483/483 225/225/225
f 166/166/166 163/163/163 423/423/423
f 423/423/423 424/424/424 166/166/166
f 231/231/231 227/227/227 486/486/486
f 486/486/486 489/489/489 231/231/231
f 174/174/174 170/170/170 428/428/428
f 428/428/428 432/432/432 174/174/174
f 236/236/236 233/233/233 491/491/491
f 491/491/491 493/493/493 236/236/236
f 178/178/178 177/177/177 433/433/433
f 433/433/433 438/438/438 178/178/178
f 7/7/7 6/6/6 263/263/263
f 263/263/263 267/267/267 7/7/7
f 15/15/15 10/10/10 269/269/269
f 269/269/269 271/271/271 15/15/15
f 20/20/20 18/18/18 275/275/275
f 275/275/275 278/278/278 20/20/20
f 27/27/27 22/22/22 282/282/282
f 282/282/282 284/284/284 27/27/27
f 33/33/33 29/29/29 288/288/288
f 288/288/288 290/290/290 33/33/33
f 38/38/38 36/36/36 294/294/294
f 294/294/294 295/295/295 38/38/38
f 57/57/57 54/54/54 311/311/311
f 311/311/311 313/313/313 57/57/57
f 186/186/186 182/182/182 441/441/441
f 441/441/441 443/443/443 186/186/186
f 61/61/61 60/60/60 317/317/317
f 317/317/317 320/320/320 61/61/61
f 67/67/67 64/64/64 322/322/322
f 322/322/322 327/327/327 67/67/67
f 75/75/75 70/70/70 328/328/328
f 328/328/328 331/331/331 75/75/75
f 81/81/81 76/76/76 334/334/334
f 334/334/334 338/338/338 81/81/81
f 86/86/86 83/83/83 341/341/341
f 341/341/341 345/345/345 86/86/86
f 92/92/92 88/88/88 348/348/348
f 348/348/348 349/349/349 92/92/92
f 97/97/97 95/95/95 353/353/353
f 353/353/353 355/355/355 97/97/97
f 105/105/105 101/101/101 359/359/359
f 359/359/359 363/363/363 105/105/105
f 110/110/110 107/107/107 365/365/365
f 365/365/365 369/369/369 110/110/110
f 249/249/249 245/245/245 504/504/504
f 504/504/504 507/507/507 249/249/249
f 117/117/117 112/112/112 371/371/371
f 371/371/371 374/374/374 117/117/117
f 122/122/122 120/120/120 377/377/377
f 377/377/377 379/379/379 122/122/122
f 127/127/127 125/125/125 384/384/384
f 384/384/384 385/385/385 127/127/127
f 133/133/133 132/132/132 390/390/390
f 390/390/390 393/393/393 133/133/133
f 191/191/191 188/188/188 446/446/446
f 446/446/446 448/448/448 191/191/191
f 140/140/140 136/136/136 395/395/395
f 395/395/395 397/397/397 140/140/140
f 147/147/147 143/143/143 401/401/401
f 401/401/401 405/405/405 147/147/147
f 152/152/152 149/149/149 407/407/407
f 407/407/407 409/409/409 152/152/152
f 157/157/157 156/156/156 413/413/413
f 413/413/413 417/417/417 157/157/157
f 204/204/204 201/201/201 457/457/457
f 457/457/457 461/461/461 204/204/204
f 210/210/210 206/206/206 464/464/464
f 464/464/464 467/467/467 210/210/210
f 255/255/255 250/250/250 510/510/510
f 510/510/510 512/512/512 255/255/255
f 256/256/256 253/253/253 513/513/513
f 513/513/513 515/515/515 256/256/256
f 214/214/214 211/211/211 469/469/469
f 469/469/469 474/474/474 214/214/214
f 3/3/3 258/258/258 514/514/514
f 514/514/514 261/261/261 3/3/3
f 43/43/43 41/41/41 299/299/299
f 299/299/299 303/303/303 43/43/43
f 220/220/220 219/219/219 476/476/476
f 476/476/476 478/478/478 220/220/220
f 164/164/164 162/162/162 420/420/420
f 420/420/420 421/421/421 164/164/164
f 49/49/49 47/47/47 306/306/306
f 306/306/306 307/307/307 49/49/49
f 228/228/228 224/224/224 481/481/481
f 481/481/481 484/484/484 228/228/228
f 169/169/169 168/168/168 426/426/426
f 426/426/426 429/429/429 169/169/169
f 232/232/232 229/229/229 487/487/487
f 487/487/487 490/490/490 232/232/232
f 176/176/176 173/173/173 430/430/430
f 430/430/430 434/434/434 176/176/176
f 239/239/239 235/235/235 494/494/494
f 494/494/494 498/498/498 239/239/239

