mtllib material.mtl
usemtl Material-7024油漆
v 0.05895000 0.02250000 0.00000000
v 0.05895000 0.02081300 -0.00854800
v 0.05895000 0.01574300 -0.01607500
v 0.05895000 0.00817800 -0.02096100
v 0.05895000 0.00000000 -0.02250000
v 0.05895000 -0.00854800 -0.02081300
v 0.05895000 -0.01607500 -0.01574300
v 0.05895000 -0.02096100 -0.00817800
v 0.05895000 -0.02250000 0.00000000
v 0.05895000 -0.02081300 0.00854800
v 0.05895000 -0.01574300 0.01607500
v 0.05895000 -0.00817800 0.02096100
v 0.05895000 -0.00000000 0.02250000
v 0.05895000 0.00854800 0.02081300
v 0.05895000 0.01607500 0.01574300
v 0.05895000 0.02096100 0.00817800
v 0.03214800 -0.01055000 0.01987300
v 0.03214800 -0.01055000 -0.01987300
v 0.03214800 -0.01562800 -0.01618700
v 0.03214800 -0.01949800 -0.01122900
v 0.03214800 -0.02250000 0.00000000
v 0.03214800 -0.01949800 0.01122900
v 0.03214800 -0.01562800 0.01618700
v 0.05895000 0.02250000 0.00000000
v 0.03214800 0.02250000 0.00000000
v 0.05895000 0.02081300 -0.00854800
v 0.03214800 0.02081300 -0.00854800
v 0.05895000 0.01574300 -0.01607500
v 0.03214800 0.01574300 -0.01607500
v 0.05895000 0.00817800 -0.02096100
v 0.05895000 0.00000000 -0.02250000
v 0.05895000 -0.00854800 -0.02081300
v 0.05895000 -0.01607500 -0.01574300
v 0.05895000 -0.02096100 -0.00817800
v 0.05895000 -0.02250000 0.00000000
v 0.05895000 -0.02081300 0.00854800
v 0.05895000 -0.01574300 0.01607500
v 0.05895000 -0.00817800 0.02096100
v 0.05895000 -0.00000000 0.02250000
v 0.05895000 0.00854800 0.02081300
v 0.03214800 0.00854800 0.02081300
v 0.05895000 0.01607500 0.01574300
v 0.03214800 0.01607500 0.01574300
v 0.05895000 0.02096100 0.00817800
v 0.03214800 0.02096100 0.00817800
v 0.05895000 0.02250000 0.00000000
v 0.03214800 0.02250000 0.00000000
v 0.03214800 0.00700000 -0.02138300
v 0.04237100 -0.01055000 -0.01987300
v 0.04140400 -0.00547200 -0.02182600
v 0.04103600 0.00000000 -0.02250000
v 0.04162900 0.00700000 -0.02138300
v 0.04162900 0.00700000 0.02138300
v 0.04103600 -0.00000000 0.02250000
v 0.04140400 -0.00547200 0.02182600
v 0.04237100 -0.01055000 0.01987300
v 0.04554900 0.00854800 0.02081300
v 0.03214800 0.00700000 0.02138300
v 0.03214800 -0.01055000 -0.01987300
v 0.03214800 -0.01055000 0.01987300
v 0.03884900 0.00854800 0.02081300
v 0.04554900 0.01253200 0.01868700
v 0.03549800 0.00854800 0.02081300
v 0.03884900 0.00747400 0.02122200
v 0.03549800 0.00747400 0.02122200
v 0.03884900 0.01253200 0.01868700
v 0.04554900 0.01057900 0.01985800
v 0.03884900 0.01057900 0.01985800
v 0.03214800 -0.01562800 0.01618700
v 0.03214800 -0.01949800 0.01122900
v 0.03214800 -0.02250000 0.00000000
v 0.03214800 -0.01949800 -0.01122900
v 0.03214800 -0.01562800 -0.01618700
v 0.03214800 0.00700000 -0.02138300
v 0.03214800 0.02250000 0.00000000
v 0.03214800 0.02081300 -0.00854800
v 0.03214800 0.01574300 -0.01607500
v 0.03214800 0.00700000 0.02138300
v 0.03214800 0.00854800 0.02081300
v 0.03214800 0.01607500 0.01574300
v 0.03214800 0.02096100 0.00817800
v -0.04680000 0.00700000 0.00000000
v -0.04680000 -0.01055000 0.00000000
v -0.04422000 0.00700000 -0.01532400
v -0.04422000 -0.01055000 -0.01532400
v -0.03634000 0.00700000 -0.02949000
v -0.03634000 -0.01055000 -0.02949000
v -0.02400300 0.00700000 -0.04017600
v -0.02400300 -0.01055000 -0.04017600
v -0.00941100 0.00700000 -0.04584400
v -0.00941100 -0.01055000 -0.04584400
v 0.00544800 0.00700000 -0.04648200
v 0.00544800 -0.01055000 -0.04648200
v 0.02049700 0.00700000 -0.04207300
v 0.02049700 -0.01055000 -0.04207300
v 0.03334300 0.00700000 -0.03284000
v 0.03334300 -0.01055000 -0.03284000
v 0.04237100 -0.01055000 -0.01987300
v 0.04162900 0.00700000 -0.02138300
v -0.04680000 -0.00177500 0.00000000
v 0.04103600 0.00000000 -0.02250000
v 0.04140400 -0.00547200 -0.02182600
v 0.04237100 -0.01055000 0.01987300
v 0.03339200 -0.01055000 0.03279000
v 0.02003300 0.00700000 0.04229600
v 0.02003300 -0.01055000 0.04229600
v 0.00510000 0.00700000 0.04652100
v 0.00510000 -0.01055000 0.04652100
v -0.00997500 0.00700000 0.04572500
v -0.00997500 -0.01055000 0.04572500
v -0.02482300 0.00700000 0.03967400
v -0.02482300 -0.01055000 0.03967400
v -0.03694500 0.00700000 0.02872900
v -0.03694500 -0.01055000 0.02872900
v -0.04445900 0.00700000 0.01461500
v -0.04445900 -0.01055000 0.01461500
v -0.04680000 0.00700000 0.00000000
v -0.04680000 -0.01055000 0.00000000
v -0.04680000 -0.00177500 0.00000000
v 0.04140400 -0.00547200 0.02182600
v 0.04103600 -0.00000000 0.02250000
v 0.04162900 0.00700000 0.02138300
v -0.04680000 0.00700000 0.00000000
v -0.04422000 0.00700000 -0.01532400
v -0.03634000 0.00700000 -0.02949000
v -0.02400300 0.00700000 -0.04017600
v -0.00941100 0.00700000 -0.04584400
v 0.00544800 0.00700000 -0.04648200
v 0.02049700 0.00700000 -0.04207300
v 0.03334300 0.00700000 -0.03284000
v 0.04162900 0.00700000 -0.02138300
v 0.03214800 0.00700000 -0.02138300
v 0.03214800 0.00700000 0.02138300
v 0.04162900 0.00700000 0.02138300
v 0.02003300 0.00700000 0.04229600
v 0.00510000 0.00700000 0.04652100
v -0.00997500 0.00700000 0.04572500
v -0.02482300 0.00700000 0.03967400
v -0.03694500 0.00700000 0.02872900
v -0.04445900 0.00700000 0.01461500
v -0.04680000 -0.01055000 0.00000000
v -0.04422000 -0.01055000 -0.01532400
v -0.03634000 -0.01055000 -0.02949000
v -0.02400300 -0.01055000 -0.04017600
v -0.00941100 -0.01055000 -0.04584400
v 0.00544800 -0.01055000 -0.04648200
v 0.02049700 -0.01055000 -0.04207300
v 0.03334300 -0.01055000 -0.03284000
v 0.04237100 -0.01055000 -0.01987300
v 0.03214800 -0.01055000 -0.01987300
v 0.03214800 -0.01055000 0.01987300
v 0.04237100 -0.01055000 0.01987300
v 0.03339200 -0.01055000 0.03279000
v 0.02003300 -0.01055000 0.04229600
v 0.00510000 -0.01055000 0.04652100
v -0.00997500 -0.01055000 0.04572500
v -0.02482300 -0.01055000 0.03967400
v -0.03694500 -0.01055000 0.02872900
v -0.04445900 -0.01055000 0.01461500
vn 1.00000000 0.00000000 0.00000000
vn 1.00000000 0.00000000 0.00000000
vn 1.00000000 0.00000000 0.00000000
vn 1.00000000 0.00000000 0.00000000
vn 1.00000000 0.00000000 0.00000000
vn 1.00000000 0.00000000 0.00000000
vn 1.00000000 0.00000000 0.00000000
vn 1.00000000 0.00000000 0.00000000
vn 1.00000000 0.00000000 0.00000000
vn 1.00000000 0.00000000 0.00000000
vn 1.00000000 0.00000000 0.00000000
vn 1.00000000 0.00000000 0.00000000
vn 1.00000000 0.00000000 0.00000000
vn 1.00000000 0.00000000 0.00000000
vn 1.00000000 0.00000000 0.00000000
vn 1.00000000 0.00000000 0.00000000
vn -1.00000000 0.00000000 0.00000000
vn -1.00000000 0.00000000 0.00000000
vn -1.00000000 0.00000000 0.00000000
vn -1.00000000 0.00000000 0.00000000
vn -1.00000000 0.00000000 0.00000000
vn -1.00000000 0.00000000 0.00000000
vn -1.00000000 0.00000000 0.00000000
vn 0.00000000 1.00000000 0.00000000
vn 0.00000000 1.00000000 0.00000000
vn -0.00000000 0.92500000 -0.37990000
vn -0.00000000 0.92500000 -0.37990000
vn -0.00000000 0.69970000 -0.71440000
vn -0.00000000 0.69970000 -0.71440000
vn 0.00000000 0.36340000 -0.93160000
vn -0.00000000 0.00000000 -1.00000000
vn 0.00000000 -0.37990000 -0.92500000
vn 0.00000000 -0.71440000 -0.69970000
vn 0.00000000 -0.93160000 -0.36350000
vn -0.00000000 -1.00000000 -0.00000000
vn 0.00000000 -0.92500000 0.37990000
vn -0.00000000 -0.69970000 0.71440000
vn -0.00000000 -0.36340000 0.93160000
vn -0.00000000 -0.00000000 1.00000000
vn 0.00000000 0.37990000 0.92500000
vn 0.00000000 0.37990000 0.92500000
vn -0.00000000 0.71440000 0.69970000
vn -0.00000000 0.71440000 0.69970000
vn 0.00000000 0.93160000 0.36350000
vn 0.00000000 0.93160000 0.36350000
vn 0.00000000 1.00000000 0.00000000
vn 0.00000000 1.00000000 0.00000000
vn -0.00000000 0.31110000 -0.95040000
vn 0.00000000 -0.46890000 -0.88320000
vn -0.00000000 -0.24320000 -0.97000000
vn -0.00000000 0.00000000 -1.00000000
vn -0.00000000 0.31110000 -0.95040000
vn 0.00000000 0.31110000 0.95040000
vn -0.00000000 -0.00000000 1.00000000
vn -0.00000000 -0.24320000 0.97000000
vn -0.00000000 -0.46890000 0.88330000
vn 0.00000000 0.37990000 0.92500000
vn 0.00000000 0.31110000 0.95040000
vn 0.00000000 -0.46890000 -0.88330000
vn -0.00000000 -0.46890000 0.88330000
vn 0.00000000 0.37990000 0.92500000
vn -0.00000000 0.55700000 0.83050000
vn 0.00000000 0.37990000 0.92500000
vn -0.00000000 0.33220000 0.94320000
vn -0.00000000 0.33220000 0.94320000
vn -0.00000000 0.55700000 0.83050000
vn 0.00000000 0.47020000 0.88260000
vn 0.00000000 0.47020000 0.88260000
vn -0.00030000 -0.69450000 0.71950000
vn 0.00000000 -0.86660000 0.49910000
vn -0.00000000 -1.00000000 -0.00000000
vn 0.00000000 -0.86660000 -0.49910000
vn 0.00000000 -0.69460000 -0.71940000
vn -1.00000000 0.00000000 0.00000000
vn -1.00000000 0.00000000 0.00000000
vn -1.00000000 0.00000000 0.00000000
vn -1.00000000 0.00000000 0.00000000
vn -1.00000000 0.00000000 0.00000000
vn -1.00000000 0.00000000 0.00000000
vn -1.00000000 0.00000000 0.00000000
vn -1.00000000 0.00000000 0.00000000
vn -1.00000000 0.00000000 0.00000000
vn -1.00000000 0.00000000 0.00000000
vn -0.94490000 0.00000000 -0.32750000
vn -0.94490000 0.00000000 -0.32750000
vn -0.77640000 0.00000000 -0.63020000
vn -0.77640000 0.00000000 -0.63020000
vn -0.51290000 0.00000000 -0.85840000
vn -0.51290000 0.00000000 -0.85840000
vn -0.20110000 0.00000000 -0.97960000
vn -0.20110000 0.00000000 -0.97960000
vn 0.11640000 0.00000000 -0.99320000
vn 0.11640000 0.00000000 -0.99320000
vn 0.43820000 -0.00000000 -0.89890000
vn 0.43800000 0.00000000 -0.89900000
vn 0.71250000 -0.00000000 -0.70170000
vn 0.71250000 -0.00000000 -0.70170000
vn 0.90540000 0.00000000 -0.42460000
vn 0.88950000 -0.00000000 -0.45690000
vn -1.00000000 0.00000000 0.00000000
vn 0.87680000 -0.00000000 -0.48080000
vn 0.88460000 -0.00000000 -0.46640000
vn 0.90540000 -0.00000000 0.42460000
vn 0.71350000 0.00000000 0.70060000
vn 0.42810000 0.00000000 0.90370000
vn 0.42810000 0.00000000 0.90370000
vn 0.10900000 0.00000000 0.99400000
vn 0.10900000 0.00000000 0.99400000
vn -0.21310000 0.00000000 0.97700000
vn -0.21310000 0.00000000 0.97700000
vn -0.53040000 -0.00000000 0.84770000
vn -0.53050000 0.00000000 0.84770000
vn -0.78940000 0.00000000 0.61390000
vn -0.78940000 0.00000000 0.61390000
vn -0.95000000 0.00000000 0.31230000
vn -0.95000000 0.00000000 0.31230000
vn -1.00000000 0.00000000 0.00000000
vn -1.00000000 0.00000000 0.00000000
vn -1.00000000 0.00000000 0.00000000
vn 0.88460000 0.00000000 0.46630000
vn 0.87690000 -0.00000000 0.48080000
vn 0.88950000 0.00000000 0.45690000
vn 0.00000000 1.00000000 0.00000000
vn 0.00000000 1.00000000 0.00000000
vn 0.00000000 1.00000000 0.00000000
vn 0.00000000 1.00000000 0.00000000
vn 0.00000000 1.00000000 0.00000000
vn 0.00000000 1.00000000 0.00000000
vn 0.00000000 1.00000000 0.00000000
vn 0.00000000 1.00000000 0.00000000
vn 0.00000000 1.00000000 0.00000000
vn 0.00000000 1.00000000 0.00000000
vn 0.00000000 1.00000000 0.00000000
vn 0.00000000 1.00000000 0.00000000
vn 0.00000000 1.00000000 0.00000000
vn 0.00000000 1.00000000 0.00000000
vn 0.00000000 1.00000000 0.00000000
vn 0.00000000 1.00000000 0.00000000
vn 0.00000000 1.00000000 0.00000000
vn 0.00000000 1.00000000 0.00000000
vn -0.00000000 -1.00000000 -0.00000000
vn -0.00000000 -1.00000000 -0.00000000
vn -0.00000000 -1.00000000 -0.00000000
vn -0.00000000 -1.00000000 -0.00000000
vn -0.00000000 -1.00000000 -0.00000000
vn -0.00000000 -1.00000000 -0.00000000
vn -0.00000000 -1.00000000 -0.00000000
vn -0.00000000 -1.00000000 -0.00000000
vn -0.00000000 -1.00000000 -0.00000000
vn -0.00000000 -1.00000000 -0.00000000
vn -0.00000000 -1.00000000 -0.00000000
vn -0.00000000 -1.00000000 -0.00000000
vn -0.00000000 -1.00000000 -0.00000000
vn -0.00000000 -1.00000000 -0.00000000
vn -0.00000000 -1.00000000 -0.00000000
vn -0.00000000 -1.00000000 -0.00000000
vn -0.00000000 -1.00000000 -0.00000000
vn -0.00000000 -1.00000000 -0.00000000
vn -0.00000000 -1.00000000 -0.00000000
vt 0.49719700 0.40026300
vt 0.53528800 0.40783500
vt 0.56882900 0.43059100
vt 0.59060400 0.46455200
vt 0.59746100 0.50125900
vt 0.58994300 0.53962800
vt 0.56735200 0.57341400
vt 0.53363800 0.59534800
vt 0.49719700 0.60225500
vt 0.45910600 0.59468200
vt 0.42556500 0.57192600
vt 0.40379000 0.53796600
vt 0.39693300 0.50125900
vt 0.40445100 0.46288900
vt 0.42704200 0.42910400
vt 0.46075600 0.40716900
vt 0.67770200 0.17841100
vt 0.67770200 0.00000000
vt 0.69987300 0.01654600
vt 0.71677000 0.03880400
vt 0.72987800 0.08920500
vt 0.71677000 0.13960700
vt 0.69987300 0.16186500
vt 0.99853500 0.00000000
vt 0.87969400 0.00000000
vt 0.99853500 0.04093300
vt 0.87969400 0.04093300
vt 0.99853500 0.08032100
vt 0.87969400 0.08032100
vt 0.99853500 0.11948500
vt 0.99853500 0.15864800
vt 0.99853500 0.19958100
vt 0.99853500 0.23896900
vt 0.99853500 0.27813300
vt 0.99853500 0.31729600
vt 0.99853500 0.35822900
vt 0.99853500 0.39761700
vt 0.99853500 0.43678100
vt 0.99853500 0.47594400
vt 0.99853500 0.51687700
vt 0.87969400 0.51687700
vt 0.99853500 0.55626500
vt 0.87969400 0.55626500
vt 0.99853500 0.59542900
vt 0.87969400 0.59542900
vt 0.99853500 0.63459200
vt 0.87969400 0.63459200
vt 0.87969400 0.12507700
vt 0.92502200 0.20928700
vt 0.92071600 0.18500000
vt 0.91910500 0.15864800
vt 0.92173400 0.12507700
vt 0.92173400 0.50951500
vt 0.91910500 0.47594400
vt 0.92071600 0.44959200
vt 0.92502200 0.42530500
vt 0.93911500 0.51687700
vt 0.87969400 0.50951500
vt 0.87969400 0.20928700
vt 0.87969400 0.42530500
vt 0.90940500 0.51687700
vt 0.93911500 0.53657100
vt 0.89454900 0.51687700
vt 0.90940500 0.51176000
vt 0.89454900 0.51176000
vt 0.90940500 0.53657100
vt 0.93911500 0.52672400
vt 0.90940500 0.52672400
vt 0.87969400 0.39830300
vt 0.87969400 0.37130100
vt 0.87969400 0.31729600
vt 0.87969400 0.26329100
vt 0.87969400 0.23628900
vt 0.79945300 0.00000000
vt 0.73134200 0.09598400
vt 0.73875500 0.05761500
vt 0.76103300 0.02382900
vt 0.79945300 0.19196800
vt 0.79265000 0.18940800
vt 0.75957600 0.16665100
vt 0.73810400 0.13269100
vt 0.67623700 0.40026300
vt 0.59892500 0.40026300
vt 0.67623700 0.47392000
vt 0.59892500 0.47392000
vt 0.67623700 0.54499800
vt 0.59892500 0.54499800
vt 0.67623700 0.61528500
vt 0.59892500 0.61528500
vt 0.67623700 0.68557300
vt 0.59892500 0.68557300
vt 0.67623700 0.75788000
vt 0.59892500 0.75788000
vt 0.67623700 0.82971900
vt 0.59892500 0.82971900
vt 0.67623700 0.89817700
vt 0.59892500 0.89817700
vt 0.59892500 0.96663500
vt 0.67623700 0.95925600
vt 0.63758100 0.40026300
vt 0.64540100 0.95373900
vt 0.62129400 0.95708400
vt 0.80091800 0.00000000
vt 0.80091800 0.06833700
vt 0.87823000 0.13953800
vt 0.80091800 0.13953800
vt 0.87823000 0.21097900
vt 0.80091800 0.21097900
vt 0.87823000 0.28447300
vt 0.80091800 0.28447300
vt 0.87823000 0.35643000
vt 0.80091800 0.35643000
vt 0.87823000 0.42690000
vt 0.80091800 0.42690000
vt 0.87823000 0.49736900
vt 0.80091800 0.49736900
vt 0.87823000 0.56783900
vt 0.80091800 0.56783900
vt 0.83957400 0.56783900
vt 0.82328600 0.00957500
vt 0.84739300 0.01292900
vt 0.87823000 0.00739800
vt 0.00000000 0.60890600
vt 0.01153800 0.54012000
vt 0.04677800 0.47653600
vt 0.10195200 0.42856800
vt 0.16721000 0.40312500
vt 0.23366000 0.40026300
vt 0.30096300 0.42005400
vt 0.35841300 0.46149700
vt 0.39546800 0.51292200
vt 0.35306800 0.51292200
vt 0.35306800 0.70489000
vt 0.39546800 0.70489000
vt 0.29888600 0.79875900
vt 0.23210300 0.81772700
vt 0.16468900 0.81415100
vt 0.09828400 0.78699300
vt 0.04407500 0.73786100
vt 0.01046700 0.67450900
vt 0.20882100 0.00000000
vt 0.27760700 0.01153900
vt 0.34119100 0.04677900
vt 0.38915900 0.10195500
vt 0.41460200 0.16721600
vt 0.41746500 0.23366700
vt 0.39767300 0.30097300
vt 0.35623000 0.35842400
vt 0.29802600 0.39879800
vt 0.29802600 0.35307900
vt 0.11961500 0.35307900
vt 0.11961500 0.39879800
vt 0.06163500 0.35864200
vt 0.01896800 0.29889600
vt 0.00000000 0.23211000
vt 0.00357600 0.16469400
vt 0.03073400 0.09828800
vt 0.07986600 0.04407600
vt 0.14321800 0.01046800
f 4/4/4 3/3/3 2/2/2
f 2/2/2 5/5/5 4/4/4
f 12/12/12 2/2/2 14/14/14
f 15/15/15 1/1/1 16/16/16
f 2/2/2 1/1/1 15/15/15
f 15/15/15 14/14/14 2/2/2
f 12/12/12 5/5/5 2/2/2
f 12/12/12 7/7/7 5/5/5
f 7/7/7 9/9/9 8/8/8
f 9/9/9 7/7/7 10/10/10
f 13/13/13 12/12/12 14/14/14
f 12/12/12 11/11/11 10/10/10
f 12/12/12 10/10/10 7/7/7
f 7/7/7 6/6/6 5/5/5
f 17/17/17 18/18/18 23/23/23
f 19/19/19 23/23/23 18/18/18
f 22/22/22 19/19/19 20/20/20
f 20/20/20 21/21/21 22/22/22
f 23/23/23 19/19/19 22/22/22
f 63/63/63 65/65/65 64/64/64
f 68/68/68 61/61/61 57/57/57
f 66/66/66 68/68/68 67/67/67
f 26/26/26 27/27/27 25/25/25
f 28/28/28 29/29/29 27/27/27
f 31/31/31 52/52/52 30/30/30
f 32/32/32 50/50/50 31/31/31
f 30/30/30 52/52/52 28/28/28
f 73/73/73 49/49/49 33/33/33
f 33/33/33 34/34/34 72/72/72
f 35/35/35 36/36/36 71/71/71
f 34/34/34 35/35/35 71/71/71
f 36/36/36 37/37/37 70/70/70
f 32/32/32 33/33/33 49/49/49
f 32/32/32 49/49/49 50/50/50
f 29/29/29 28/28/28 52/52/52
f 51/51/51 52/52/52 31/31/31
f 52/52/52 48/48/48 29/29/29
f 59/59/59 49/49/49 73/73/73
f 51/51/51 31/31/31 50/50/50
f 69/69/69 37/37/37 56/56/56
f 55/55/55 38/38/38 39/39/39
f 53/53/53 39/39/39 40/40/40
f 56/56/56 38/38/38 55/55/55
f 39/39/39 54/54/54 55/55/55
f 53/53/53 54/54/54 39/39/39
f 53/53/53 40/40/40 57/57/57
f 37/37/37 38/38/38 56/56/56
f 43/43/43 62/62/62 42/42/42
f 44/44/44 45/45/45 43/43/43
f 61/61/61 53/53/53 57/57/57
f 67/67/67 57/57/57 40/40/40
f 62/62/62 67/67/67 40/40/40
f 62/62/62 40/40/40 42/42/42
f 46/46/46 47/47/47 45/45/45
f 64/64/64 65/65/65 53/53/53
f 64/64/64 53/53/53 61/61/61
f 58/58/58 53/53/53 65/65/65
f 41/41/41 58/58/58 65/65/65
f 68/68/68 41/41/41 63/63/63
f 61/61/61 68/68/68 63/63/63
f 66/66/66 41/41/41 68/68/68
f 66/66/66 43/43/43 41/41/41
f 43/43/43 66/66/66 62/62/62
f 69/69/69 56/56/56 60/60/60
f 81/81/81 75/75/75 76/76/76
f 76/76/76 80/80/80 81/81/81
f 80/80/80 76/76/76 77/77/77
f 79/79/79 77/77/77 74/74/74
f 74/74/74 78/78/78 79/79/79
f 80/80/80 77/77/77 79/79/79
f 100/100/100 82/82/82 84/84/84
f 88/88/88 89/89/89 87/87/87
f 89/89/89 88/88/88 90/90/90
f 86/86/86 87/87/87 85/85/85
f 85/85/85 83/83/83 100/100/100
f 84/84/84 85/85/85 100/100/100
f 94/94/94 95/95/95 93/93/93
f 101/101/101 96/96/96 99/99/99
f 96/96/96 97/97/97 95/95/95
f 96/96/96 101/101/101 97/97/97
f 92/92/92 93/93/93 91/91/91
f 98/98/98 97/97/97 102/102/102
f 102/102/102 97/97/97 101/101/101
f 105/105/105 121/121/121 122/122/122
f 104/104/104 121/121/121 105/105/105
f 107/107/107 108/108/108 106/106/106
f 108/108/108 107/107/107 109/109/109
f 104/104/104 103/103/103 120/120/120
f 121/121/121 104/104/104 120/120/120
f 106/106/106 104/104/104 105/105/105
f 113/113/113 114/114/114 112/112/112
f 119/119/119 115/115/115 117/117/117
f 115/115/115 116/116/116 114/114/114
f 116/116/116 115/115/115 119/119/119
f 111/111/111 112/112/112 110/110/110
f 140/140/140 133/133/133 124/124/124
f 132/132/132 125/125/125 124/124/124
f 132/132/132 126/126/126 125/125/125
f 140/140/140 124/124/124 123/123/123
f 140/140/140 139/139/139 133/133/133
f 138/138/138 133/133/133 139/139/139
f 137/137/137 133/133/133 138/138/138
f 132/132/132 127/127/127 126/126/126
f 129/129/129 128/128/128 132/132/132
f 132/132/132 130/130/130 129/129/129
f 130/130/130 132/132/132 131/131/131
f 133/133/133 136/136/136 135/135/135
f 137/137/137 136/136/136 133/133/133
f 135/135/135 134/134/134 133/133/133
f 124/124/124 133/133/133 132/132/132
f 128/128/128 127/127/127 132/132/132
f 150/150/150 141/141/141 142/142/142
f 150/150/150 142/142/142 143/143/143
f 150/150/150 143/143/143 144/144/144
f 151/151/151 159/159/159 141/141/141
f 159/159/159 151/151/151 158/158/158
f 157/157/157 158/158/158 151/151/151
f 156/156/156 157/157/157 151/151/151
f 150/150/150 144/144/144 145/145/145
f 150/150/150 146/146/146 147/147/147
f 149/149/149 150/150/150 148/148/148
f 147/147/147 148/148/148 150/150/150
f 150/150/150 151/151/151 141/141/141
f 151/151/151 154/154/154 155/155/155
f 153/153/153 151/151/151 152/152/152
f 154/154/154 151/151/151 153/153/153
f 155/155/155 156/156/156 151/151/151
f 146/146/146 150/150/150 145/145/145
f 63/63/63 64/64/64 61/61/61
f 68/68/68 57/57/57 67/67/67
f 66/66/66 67/67/67 62/62/62
f 26/26/26 25/25/25 24/24/24
f 28/28/28 27/27/27 26/26/26
f 33/33/33 72/72/72 73/73/73
f 36/36/36 70/70/70 71/71/71
f 34/34/34 71/71/71 72/72/72
f 37/37/37 69/69/69 70/70/70
f 44/44/44 43/43/43 42/42/42
f 46/46/46 45/45/45 44/44/44
f 41/41/41 65/65/65 63/63/63
f 88/88/88 87/87/87 86/86/86
f 89/89/89 90/90/90 91/91/91
f 86/86/86 85/85/85 84/84/84
f 94/94/94 93/93/93 92/92/92
f 96/96/96 95/95/95 94/94/94
f 92/92/92 91/91/91 90/90/90
f 107/107/107 106/106/106 105/105/105
f 108/108/108 109/109/109 110/110/110
f 113/113/113 112/112/112 111/111/111
f 115/115/115 114/114/114 113/113/113
f 116/116/116 119/119/119 118/118/118
f 111/111/111 110/110/110 109/109/109

