mtllib material.mtl
usemtl Material-7011油漆.001
v -0.03916500 0.02563800 -0.25938300
v -0.04034200 0.03857800 -0.24744400
v -0.03950600 0.03851300 -0.25848000
v -0.04033900 0.02574900 -0.24826300
v -0.03880700 0.02563800 -0.23930100
v -0.03866700 0.03855600 -0.23872800
v -0.03590200 0.02561400 -0.23152600
v -0.03465400 0.03855200 -0.22929200
v -0.03150300 0.02591700 -0.22491600
v -0.02750800 0.03857900 -0.22048600
v -0.02456100 0.02560800 -0.21796100
v -0.01894200 0.03856000 -0.21436800
v -0.01589600 0.02560200 -0.21299400
v -0.01045300 0.03857900 -0.21112000
v -0.00040500 0.03855100 -0.20959100
v -0.00710000 0.02588100 -0.21026100
v 0.00346100 0.02560700 -0.20983300
v 0.01935300 0.03800400 -0.21462100
v 0.02243500 0.02561900 -0.21644400
v 0.02545400 0.03858200 -0.21878400
v 0.02990100 0.02564700 -0.22299900
v 0.03070300 0.03799700 -0.22385400
v 0.03543600 0.02580000 -0.23059000
v 0.03581800 0.03857900 -0.23141700
v 0.03928100 0.02560200 -0.24105400
v 0.03963200 0.03856300 -0.24230600
v 0.03928100 0.02560200 -0.24105400
v 0.04030200 0.03856100 -0.25243300
v 0.03963200 0.03856300 -0.24230600
v 0.04033600 0.02578400 -0.25289400
v 0.03864100 0.03857700 -0.26128400
v 0.03864300 0.02584800 -0.26136100
v 0.03594200 0.03855600 -0.26836200
v 0.03584300 0.02561600 -0.26836800
v 0.03012200 0.02597100 -0.27705400
v 0.02380300 0.03857400 -0.28249600
v 0.02194800 0.02560700 -0.28377000
v 0.01578200 0.03857200 -0.28714500
v 0.00306600 0.02560600 -0.29029900
v 0.00785100 0.03807500 -0.28951500
v 0.01472200 0.02572100 -0.28755100
v -0.00047200 0.03855500 -0.29038100
v -0.00964300 0.03858400 -0.28911800
v -0.00934300 0.02579600 -0.28928900
v -0.01811500 0.03853500 -0.28606400
v -0.01897200 0.02560600 -0.28565700
v -0.02788500 0.03855600 -0.27935200
v -0.03916500 0.02563800 -0.25938300
v -0.03950600 0.03851300 -0.25848000
v -0.03552800 0.03857000 -0.26918700
v -0.03469200 0.02560300 -0.27084100
v 0.01113300 0.03857700 -0.21121900
v 0.01935300 0.03800400 -0.21462100
v 0.02545400 0.03858200 -0.21878400
v -0.03950600 0.03851300 -0.25848000
v -0.03194900 0.03860000 -0.25719600
v -0.02862800 0.03860000 -0.26590600
v -0.04034200 0.03857800 -0.24744400
v -0.02788500 0.03855600 -0.27935200
v -0.03552800 0.03857000 -0.26918700
v -0.02298700 0.03860000 -0.27332700
v -0.03866700 0.03855600 -0.23872800
v -0.03465400 0.03855200 -0.22929200
v -0.03076800 0.03860000 -0.23878000
v -0.02750800 0.03857900 -0.22048600
v -0.02636100 0.03860000 -0.23056600
v -0.03268300 0.03860000 -0.24790300
v -0.01811500 0.03853500 -0.28606400
v -0.01548400 0.03860000 -0.27885800
v -0.00964300 0.03858400 -0.28911800
v 0.00257700 0.03860000 -0.28264800
v -0.00047200 0.03855500 -0.29038100
v -0.00672600 0.03860000 -0.28205100
v 0.01578200 0.03857200 -0.28714500
v 0.01167000 0.03860000 -0.28059900
v 0.01981900 0.03860000 -0.27607200
v 0.02380300 0.03857400 -0.28249600
v 0.03055200 0.03856600 -0.27631600
v 0.02636100 0.03860000 -0.26943200
v -0.01894200 0.03856000 -0.21436800
v -0.01981900 0.03860000 -0.22392700
v -0.01045300 0.03857900 -0.21112000
v -0.01167000 0.03860000 -0.21939900
v -0.00040500 0.03855100 -0.20959100
v -0.00257700 0.03860000 -0.21735100
v 0.00672600 0.03860000 -0.21794700
v 0.01113300 0.03857700 -0.21121900
v 0.01548400 0.03860000 -0.22114100
v 0.02545400 0.03858200 -0.21878400
v 0.02298700 0.03860000 -0.22667200
v 0.03864100 0.03857700 -0.26128400
v 0.03076800 0.03860000 -0.26121800
v 0.03268300 0.03860000 -0.25209500
v 0.03594200 0.03855600 -0.26836200
v 0.04030200 0.03856100 -0.25243300
v 0.03194900 0.03860000 -0.24280300
v 0.03963200 0.03856300 -0.24230600
v 0.02862800 0.03860000 -0.23409300
v 0.03581800 0.03857900 -0.23141700
v 0.00306600 0.02560600 -0.29029900
v 0.00306600 0.02560600 -0.29029900
v 0.00306600 0.02560600 -0.29029900
v -0.01897200 0.02560600 -0.28565700
v -0.01897200 0.02560600 -0.28565700
v -0.01897200 0.02560600 -0.28565700
v -0.00934300 0.02579600 -0.28928900
v -0.03469200 0.02560300 -0.27084100
v -0.03469200 0.02560300 -0.27084100
v -0.03469200 0.02560300 -0.27084100
v -0.02709500 0.02602400 -0.27988700
v 0.02194800 0.02560700 -0.28377000
v 0.02194800 0.02560700 -0.28377000
v 0.01472200 0.02572100 -0.28755100
v 0.03928100 0.02560200 -0.24105400
v 0.03928100 0.02560200 -0.24105400
v 0.03928100 0.02560200 -0.24105400
v -0.03916500 0.02563800 -0.25938300
v -0.03590200 0.02561400 -0.23152600
v -0.03590200 0.02561400 -0.23152600
v -0.03880700 0.02563800 -0.23930100
v -0.04033900 0.02574900 -0.24826300
v -0.02456100 0.02560800 -0.21796100
v -0.02456100 0.02560800 -0.21796100
v -0.03150300 0.02591700 -0.22491600
v 0.03584300 0.02561600 -0.26836800
v 0.03012200 0.02597100 -0.27705400
v 0.04033600 0.02578400 -0.25289400
v 0.03864300 0.02584800 -0.26136100
v -0.01589600 0.02560200 -0.21299400
v -0.01589600 0.02560200 -0.21299400
v -0.01589600 0.02560200 -0.21299400
v 0.03543600 0.02580000 -0.23059000
v 0.02990100 0.02564700 -0.22299900
v 0.02243500 0.02561900 -0.21644400
v 0.00346100 0.02560700 -0.20983300
v 0.00346100 0.02560700 -0.20983300
v -0.00710000 0.02588100 -0.21026100
v 0.01271100 0.02581000 -0.21170500
v 0.03194900 0.03860000 -0.24280300
v 0.03300700 0.04608000 -0.25234700
v 0.03125500 0.04597500 -0.23993800
v 0.03076800 0.03860000 -0.26121800
v 0.02881700 0.04609100 -0.26597200
v 0.03268300 0.03860000 -0.25209500
v 0.02636100 0.03860000 -0.26943200
v 0.02118600 0.04609800 -0.27515200
v 0.01981900 0.03860000 -0.27607200
v 0.01306900 0.04608900 -0.28015300
v 0.01167000 0.03860000 -0.28059900
v 0.00235000 0.04607800 -0.28293800
v -0.00672600 0.03860000 -0.28205100
v -0.00918100 0.04609600 -0.28154300
v -0.01548400 0.03860000 -0.27885800
v -0.01931000 0.04595900 -0.27668000
v 0.00257700 0.03860000 -0.28264800
v -0.02298700 0.03860000 -0.27332700
v -0.02710200 0.04577900 -0.26852100
v -0.02862800 0.03860000 -0.26590600
v -0.03107200 0.04610000 -0.26060700
v -0.03194900 0.03860000 -0.25719600
v -0.03194900 0.03860000 -0.25719600
v -0.03267700 0.04594600 -0.25242700
v -0.03107200 0.04610000 -0.26060700
v -0.03268300 0.03860000 -0.24790300
v -0.03236500 0.04609600 -0.24448400
v -0.03076800 0.03860000 -0.23878000
v -0.02960400 0.04582100 -0.23582600
v -0.02636100 0.03860000 -0.23056600
v -0.02480500 0.04609800 -0.22850100
v -0.01981900 0.03860000 -0.22392700
v -0.01723200 0.04597000 -0.22198400
v -0.01167000 0.03860000 -0.21939900
v -0.00860900 0.04592500 -0.21838200
v -0.00257700 0.03860000 -0.21735100
v -0.00096600 0.04609700 -0.21714000
v 0.00672600 0.03860000 -0.21794700
v 0.00816400 0.04605300 -0.21817700
v 0.01548400 0.03860000 -0.22114100
v 0.01864600 0.04588500 -0.22281600
v 0.02298700 0.03860000 -0.22667200
v 0.02705900 0.04608500 -0.23136600
v 0.02862800 0.03860000 -0.23409300
v 0.03125500 0.04597500 -0.23993800
v 0.03194900 0.03860000 -0.24280300
v 0.02118600 0.04609800 -0.27515200
v 0.02118600 0.04609800 -0.27515200
v -0.03107200 0.04610000 -0.26060700
v -0.03107200 0.04610000 -0.26060700
v -0.03236500 0.04609600 -0.24448400
v -0.03236500 0.04609600 -0.24448400
v -0.03236500 0.04609600 -0.24448400
v -0.02480500 0.04609800 -0.22850100
v -0.02480500 0.04609800 -0.22850100
v 0.01306900 0.04608900 -0.28015300
v 0.01306900 0.04608900 -0.28015300
v 0.00235000 0.04607800 -0.28293800
v -0.00918100 0.04609600 -0.28154300
v -0.00096600 0.04609700 -0.21714000
v -0.00096600 0.04609700 -0.21714000
v -0.00096600 0.04609700 -0.21714000
v 0.02705900 0.04608500 -0.23136600
v 0.02705900 0.04608500 -0.23136600
v 0.03300700 0.04608000 -0.25234700
v 0.03300700 0.04608000 -0.25234700
v 0.02881700 0.04609100 -0.26597200
v -0.01723200 0.04597000 -0.22198400
v -0.00860900 0.04592500 -0.21838200
v -0.01931000 0.04595900 -0.27668000
v -0.02710200 0.04577900 -0.26852100
v -0.03267700 0.04594600 -0.25242700
v 0.00816400 0.04605300 -0.21817700
v 0.01864600 0.04588500 -0.22281600
v 0.03125500 0.04597500 -0.23993800
v -0.00047200 0.03855500 -0.29038100
v 0.01578200 0.03857200 -0.28714500
v 0.00785100 0.03807500 -0.28951500
v 0.01271100 0.02581000 -0.21170500
v 0.01113300 0.03857700 -0.21121900
v 0.03055200 0.03856600 -0.27631600
v -0.02709500 0.02602400 -0.27988700
v 0.03070300 0.03799700 -0.22385400
v 0.03581800 0.03857900 -0.23141700
v -0.02960400 0.04582100 -0.23582600
vn -0.97250000 0.00000000 -0.23270000
vn -0.99800000 0.00000000 0.06320000
vn -0.97800000 -0.00000000 -0.20840000
vn -0.99910000 -0.00000000 0.04290000
vn -0.96400000 -0.00000000 0.26570000
vn -0.96000000 -0.00000000 0.27980000
vn -0.88920000 -0.00000000 0.45750000
vn -0.85840000 -0.00000000 0.51300000
vn -0.78230000 -0.00000000 0.62290000
vn -0.68180000 -0.00000000 0.73160000
vn -0.60840000 -0.00000000 0.79370000
vn -0.46950000 0.00000000 0.88290000
vn -0.39470000 0.00000000 0.91880000
vn -0.25970000 0.00000000 0.96570000
vn -0.00990000 0.00000000 1.00000000
vn -0.17580000 -0.00000000 0.98440000
vn 0.08580000 -0.00000000 0.99630000
vn 0.48000000 -0.00000000 0.87730000
vn 0.55580000 0.00000000 0.83130000
vn 0.63190000 0.00000000 0.77500000
vn 0.74220000 0.00000000 0.67020000
vn 0.76130000 0.00000000 0.64840000
vn 0.87700000 0.00000000 0.48050000
vn 0.88770000 0.00000000 0.46050000
vn 0.97500000 -0.00000000 0.22210000
vn 0.98140000 -0.00000000 0.19180000
vn 0.97520000 0.00000000 0.22150000
vn 0.99820000 -0.00000000 -0.06020000
vn 0.98170000 -0.00000000 0.19020000
vn 0.99740000 0.00000000 -0.07150000
vn 0.95990000 0.00000000 -0.28030000
vn 0.95940000 -0.00000000 -0.28210000
vn 0.89050000 -0.00000000 -0.45490000
vn 0.89000000 0.00000000 -0.45600000
vn 0.74400000 0.00000000 -0.66820000
vn 0.59090000 0.00000000 -0.80670000
vn 0.54490000 -0.00000000 -0.83850000
vn 0.39110000 0.00000000 -0.92030000
vn 0.07590000 -0.00000000 -0.99710000
vn 0.19490000 0.00000000 -0.98080000
vn 0.36500000 0.00000000 -0.93100000
vn -0.01170000 0.00000000 -0.99990000
vn -0.23930000 -0.00000000 -0.97090000
vn -0.23130000 -0.00000000 -0.97290000
vn -0.44880000 0.00000000 -0.89360000
vn -0.46970000 -0.00000000 -0.88290000
vn -0.68880000 -0.00000000 -0.72500000
vn -0.97250000 -0.00000000 -0.23300000
vn -0.97750000 0.00000000 -0.21070000
vn -0.87990000 0.00000000 -0.47520000
vn -0.85710000 -0.00000000 -0.51520000
vn 0.19740000 0.70300000 0.68330000
vn 0.33950000 0.70660000 0.62080000
vn 0.44860000 0.70460000 0.54980000
vn 0.00000000 1.00000000 0.00000000
vn 0.00000000 1.00000000 0.00000000
vn 0.00000000 1.00000000 0.00000000
vn 0.00000000 1.00000000 0.00000000
vn 0.00000000 1.00000000 0.00000000
vn 0.00000000 1.00000000 0.00000000
vn 0.00000000 1.00000000 0.00000000
vn 0.00000000 1.00000000 0.00000000
vn 0.00000000 1.00000000 0.00000000
vn 0.00000000 1.00000000 0.00000000
vn 0.00000000 1.00000000 0.00000000
vn 0.00000000 1.00000000 0.00000000
vn 0.00000000 1.00000000 0.00000000
vn 0.00000000 1.00000000 0.00000000
vn 0.00000000 1.00000000 0.00000000
vn 0.00000000 1.00000000 0.00000000
vn 0.00000000 1.00000000 0.00000000
vn 0.00000000 1.00000000 0.00000000
vn 0.00000000 1.00000000 0.00000000
vn 0.00000000 1.00000000 0.00000000
vn 0.00000000 1.00000000 0.00000000
vn 0.00000000 1.00000000 0.00000000
vn 0.00000000 1.00000000 0.00000000
vn 0.00000000 1.00000000 0.00000000
vn 0.00000000 1.00000000 0.00000000
vn 0.00000000 1.00000000 0.00000000
vn 0.00000000 1.00000000 0.00000000
vn 0.00000000 1.00000000 0.00000000
vn 0.00000000 1.00000000 0.00000000
vn 0.00000000 1.00000000 0.00000000
vn 0.00000000 1.00000000 0.00000000
vn 0.00000000 1.00000000 0.00000000
vn 0.00000000 1.00000000 0.00000000
vn 0.00000000 1.00000000 0.00000000
vn 0.00000000 1.00000000 0.00000000
vn 0.00000000 1.00000000 0.00000000
vn 0.00000000 1.00000000 0.00000000
vn 0.00000000 1.00000000 0.00000000
vn 0.00000000 1.00000000 0.00000000
vn 0.00000000 1.00000000 0.00000000
vn 0.00000000 1.00000000 0.00000000
vn 0.00000000 1.00000000 0.00000000
vn 0.00000000 1.00000000 0.00000000
vn 0.00000000 1.00000000 0.00000000
vn 0.00000000 1.00000000 0.00000000
vn -0.00000000 -1.00000000 -0.00010000
vn 0.00000000 -1.00000000 -0.00000000
vn 0.00010000 -1.00000000 -0.00020000
vn -0.00000000 -1.00000000 -0.00010000
vn 0.00000000 -1.00000000 -0.00000000
vn 0.00010000 -1.00000000 -0.00010000
vn 0.00000000 -1.00000000 -0.00000000
vn 0.00010000 -1.00000000 -0.00000000
vn 0.00010000 -1.00000000 -0.00010000
vn 0.00000000 -1.00000000 -0.00000000
vn 0.00000000 -1.00000000 -0.00000000
vn 0.00000000 -1.00000000 -0.00000000
vn 0.00010000 -1.00000000 -0.00020000
vn 0.00000000 -1.00000000 -0.00000000
vn 0.00010000 -1.00000000 -0.00020000
vn -0.00000000 -1.00000000 -0.00010000
vn 0.00000000 -1.00000000 -0.00000000
vn 0.00000000 -1.00000000 -0.00000000
vn 0.00010000 -1.00000000 -0.00000000
vn 0.00000000 -1.00000000 -0.00000000
vn 0.00000000 -1.00000000 -0.00000000
vn 0.00000000 -1.00000000 -0.00000000
vn 0.00010000 -1.00000000 -0.00000000
vn 0.00000000 -1.00000000 -0.00000000
vn 0.00000000 -1.00000000 -0.00000000
vn 0.00000000 -1.00000000 -0.00000000
vn 0.00000000 -1.00000000 -0.00000000
vn 0.00000000 -1.00000000 -0.00000000
vn 0.00000000 -1.00000000 -0.00000000
vn -0.00000000 -1.00000000 -0.00010000
vn 0.00010000 -1.00000000 -0.00010000
vn 0.00000000 -1.00000000 -0.00000000
vn 0.00000000 -1.00000000 -0.00000000
vn 0.00000000 -1.00000000 -0.00000000
vn 0.00000000 -1.00000000 -0.00000000
vn -0.00000000 -1.00000000 -0.00010000
vn 0.00000000 -1.00000000 -0.00000000
vn 0.00000000 -1.00000000 -0.00000000
vn 0.00000000 -1.00000000 -0.00000000
vn 0.97560000 0.00000000 0.21970000
vn 0.99750000 -0.00000000 -0.07080000
vn 0.95210000 -0.00000000 0.30570000
vn 0.93950000 -0.00000000 -0.34250000
vn 0.87470000 -0.00000000 -0.48470000
vn 0.99790000 0.00000000 -0.06400000
vn 0.80490000 0.00000000 -0.59340000
vn 0.64420000 -0.00000000 -0.76490000
vn 0.60520000 0.00000000 -0.79610000
vn 0.39770000 -0.00000000 -0.91750000
vn 0.35630000 -0.00000000 -0.93440000
vn 0.07120000 -0.00000000 -0.99750000
vn -0.20540000 0.00000000 -0.97870000
vn -0.27930000 -0.00000000 -0.96020000
vn -0.47280000 -0.00000000 -0.88120000
vn -0.58650000 -0.00000000 -0.81000000
vn 0.07870000 -0.00000000 -0.99690000
vn -0.70190000 -0.00000000 -0.71230000
vn -0.82560000 -0.00000000 -0.56430000
vn -0.87410000 -0.00000000 -0.48570000
vn -0.94630000 0.00000000 -0.32330000
vn -0.97560000 0.00000000 -0.21980000
vn -0.97560000 0.00000000 -0.21980000
vn -0.99720000 0.00000000 -0.07420000
vn -0.94680000 0.00000000 -0.32190000
vn -0.99800000 -0.00000000 0.06400000
vn -0.98580000 0.00000000 0.16800000
vn -0.93950000 0.00000000 0.34260000
vn -0.90200000 -0.00000000 0.43180000
vn -0.80490000 -0.00000000 0.59340000
vn -0.75570000 -0.00000000 0.65490000
vn -0.60510000 0.00000000 0.79610000
vn -0.52400000 -0.00010000 0.85170000
vn -0.35630000 -0.00000000 0.93440000
vn -0.26270000 -0.00000000 0.96490000
vn -0.07870000 0.00000000 0.99690000
vn -0.02930000 0.00000000 0.99960000
vn 0.20540000 0.00000000 0.97870000
vn 0.24850000 -0.00000000 0.96860000
vn 0.47280000 0.00000000 0.88120000
vn 0.56560000 0.00010000 0.82470000
vn 0.70190000 0.00000000 0.71230000
vn 0.82360000 0.00000000 0.56720000
vn 0.87410000 -0.00000000 0.48570000
vn 0.95180000 -0.00000000 0.30660000
vn 0.97560000 0.00000000 0.21970000
vn -0.00000000 1.00000000 -0.00010000
vn 0.00000000 1.00000000 0.00000000
vn -0.00000000 1.00000000 -0.00010000
vn 0.00000000 1.00000000 0.00000000
vn 0.00000000 1.00000000 0.00000000
vn -0.00000000 1.00000000 -0.00010000
vn -0.00010000 1.00000000 0.00020000
vn -0.00010000 1.00000000 0.00020000
vn 0.00000000 1.00000000 0.00000000
vn -0.00000000 1.00000000 -0.00010000
vn 0.00000000 1.00000000 0.00000000
vn 0.00000000 1.00000000 0.00000000
vn 0.00000000 1.00000000 0.00000000
vn 0.00000000 1.00000000 0.00000000
vn -0.00010000 1.00000000 0.00020000
vn 0.00040000 1.00000000 -0.00010000
vn 0.00040000 1.00000000 -0.00010000
vn 0.00000000 1.00000000 0.00000000
vn 0.00000000 1.00000000 0.00000000
vn 0.00040000 1.00000000 -0.00010000
vn 0.00000000 1.00000000 0.00000000
vn 0.00000000 1.00000000 0.00000000
vn 0.00000000 1.00000000 0.00000000
vn 0.00000000 1.00000000 0.00000000
vn 0.00000000 1.00000000 0.00000000
vn 0.00000000 1.00000000 0.00000000
vn 0.00000000 1.00000000 0.00000000
vn 0.00000000 1.00000000 0.00000000
vn 0.00000000 1.00000000 0.00000000
vn -0.00760000 0.70560000 -0.70860000
vn 0.27670000 0.70560000 -0.65230000
vn 0.13770000 0.70690000 -0.69380000
vn 0.31500000 -0.00000000 0.94910000
vn 0.27590000 0.00000000 0.96120000
vn 0.75770000 0.00000000 -0.65260000
vn -0.67170000 0.00000000 -0.74090000
vn 0.53880000 0.70660000 0.45870000
vn 0.62890000 0.70520000 0.32720000
vn 0.00000000 1.00000000 0.00000000
vt 0.48236600 0.63424700
vt 0.52496700 0.52484200
vt 0.48578400 0.52561900
vt 0.52208400 0.63339700
vt 0.55432700 0.63433500
vt 0.55641700 0.52501600
vt 0.58377000 0.63453700
vt 0.59281200 0.52505000
vt 0.61191500 0.63197400
vt 0.63305900 0.52482500
vt 0.64678300 0.63460500
vt 0.67040400 0.52498300
vt 0.68223000 0.63464100
vt 0.70265200 0.52482000
vt 0.73871800 0.52504800
vt 0.71490800 0.63228700
vt 0.75241600 0.63460400
vt 0.81160100 0.52969100
vt 0.82426600 0.63450400
vt 0.83779000 0.52479600
vt 0.85952100 0.63426200
vt 0.86366800 0.52975000
vt 0.89283100 0.63296600
vt 0.89604600 0.52482300
vt 0.93239200 0.63455500
vt 0.93697900 0.52502900
vt 0.48398400 0.63447300
vt 0.52455300 0.52498200
vt 0.48858300 0.52508000
vt 0.52616300 0.63308700
vt 0.55648900 0.52483700
vt 0.55675000 0.63256000
vt 0.58335500 0.52502400
vt 0.58353000 0.63452000
vt 0.62039500 0.63151500
vt 0.64990800 0.52486500
vt 0.65788200 0.63459700
vt 0.68280600 0.52488100
vt 0.72930700 0.63461500
vt 0.71215100 0.52908600
vt 0.68681300 0.63363500
vt 0.74181900 0.52503100
vt 0.77464600 0.52478100
vt 0.77347300 0.63299400
vt 0.80659500 0.52519000
vt 0.80993100 0.63459900
vt 0.84859500 0.52502000
vt 0.93079800 0.63424400
vt 0.93417800 0.52552000
vt 0.89367400 0.52490000
vt 0.88715800 0.63464500
vt 0.83205900 0.99460800
vt 0.86674700 1.00072200
vt 0.89558000 0.99552400
vt 0.02061900 0.15286900
vt 0.04278800 0.19040400
vt 0.02927700 0.26239900
vt 0.04619600 0.08182800
vt -0.00258000 0.34730600
vt 0.00374500 0.24074100
vt 0.02481300 0.34056000
vt 0.07225200 0.03969600
vt 0.10597700 0.00724700
vt 0.09192900 0.08727400
vt 0.14598000 -0.00268300
vt 0.12357700 0.06449400
vt 0.06425100 0.13040900
vt 0.00508900 0.44592700
vt 0.02975800 0.41855700
vt 0.01867500 0.51490200
vt 0.06554300 0.54930400
vt 0.03850700 0.57733500
vt 0.04371200 0.49006900
vt 0.08738000 0.65523200
vt 0.09348300 0.59146300
vt 0.12526900 0.61313000
vt 0.11915000 0.67540800
vt 0.15157000 0.67881800
vt 0.15832500 0.61254900
vt 0.18280200 0.01195900
vt 0.15663400 0.06391300
vt 0.21223300 0.04331800
vt 0.18841900 0.08558000
vt 0.24126500 0.09429700
vt 0.21636000 0.12773900
vt 0.23819100 0.18697400
vt 0.26611400 0.17307800
vt 0.25214400 0.25848600
vt 0.28305600 0.30404600
vt 0.25708900 0.33648300
vt 0.20954800 0.63726900
vt 0.18997400 0.58976900
vt 0.21765100 0.54663400
vt 0.18503200 0.66347400
vt 0.23591000 0.59424400
vt 0.23911500 0.48663900
vt 0.25962400 0.52963500
vt 0.25262500 0.41464400
vt 0.27736700 0.44165600
vt 0.28737200 0.07676900
vt 0.28737200 0.07676900
vt 0.28737200 0.07676900
vt 0.24375400 0.23641900
vt 0.24375400 0.23641900
vt 0.24375400 0.23641900
vt 0.25877200 0.15704000
vt 0.24148300 0.41913800
vt 0.24148300 0.41913800
vt 0.24148300 0.41913800
vt 0.23778000 0.31954100
vt 0.35109500 0.00284800
vt 0.35109500 0.00284800
vt 0.32348800 0.02344700
vt 0.50167200 0.15473200
vt 0.50167200 0.15473200
vt 0.50167200 0.15473200
vt 0.25900500 0.51445300
vt 0.33704000 0.66161700
vt 0.33704000 0.66161700
vt 0.31025800 0.63246300
vt 0.28393600 0.58804700
vt 0.39948500 0.67492800
vt 0.39948500 0.67492800
vt 0.36464100 0.67494100
vt 0.42455600 0.01186100
vt 0.38843200 -0.00598300
vt 0.47463600 0.07754300
vt 0.44915200 0.03703800
vt 0.43367300 0.65281700
vt 0.43367300 0.65281700
vt 0.43367300 0.65281700
vt 0.51829300 0.24034300
vt 0.52341200 0.31889900
vt 0.52112700 0.40279800
vt 0.49013900 0.55589800
vt 0.49013900 0.55589800
vt 0.46260300 0.61659500
vt 0.50857200 0.48928200
vt 0.44253000 0.58346000
vt 0.47650600 0.52012900
vt 0.43209600 0.52103700
vt 0.50887000 0.58346000
vt 0.52705700 0.52003500
vt 0.47570000 0.58346000
vt 0.54203900 0.58346000
vt 0.56941800 0.52001100
vt 0.57520900 0.58346000
vt 0.60321900 0.52010000
vt 0.60837900 0.58346000
vt 0.64242700 0.52019400
vt 0.67471900 0.58346000
vt 0.68357300 0.52003500
vt 0.70788800 0.58346000
vt 0.72344500 0.52115000
vt 0.64154900 0.58346000
vt 0.74105800 0.58346000
vt 0.76351900 0.52268900
vt 0.77422800 0.58346000
vt 0.79493600 0.51997300
vt 0.80739800 0.58346000
vt 0.44253000 0.58346000
vt 0.45964100 0.52128300
vt 0.43007700 0.51997700
vt 0.47570000 0.58346000
vt 0.48785000 0.52001100
vt 0.50887000 0.58346000
vt 0.52010500 0.52233800
vt 0.54203900 0.58346000
vt 0.55118600 0.52000900
vt 0.57520900 0.58346000
vt 0.58664200 0.52106500
vt 0.60837900 0.58346000
vt 0.61981100 0.52147500
vt 0.64154900 0.58346000
vt 0.64726200 0.52002600
vt 0.67471900 0.58346000
vt 0.67984100 0.52040400
vt 0.70788800 0.58346000
vt 0.72052300 0.52179100
vt 0.74105800 0.58346000
vt 0.76310600 0.52010000
vt 0.77422800 0.58346000
vt 0.79698000 0.52103100
vt 0.80739800 0.58346000
vt 0.15348400 0.64973000
vt 0.15348400 0.64973000
vt 0.05891400 0.24998000
vt 0.05891400 0.24998000
vt 0.09610200 0.14577000
vt 0.09610200 0.14577000
vt 0.09610200 0.14577000
vt 0.15514000 0.09536300
vt 0.15514000 0.09536300
vt 0.12059000 0.63108400
vt 0.12059000 0.63108400
vt 0.08673600 0.58358100
vt 0.06130900 0.50625400
vt 0.24340800 0.17003400
vt 0.24340800 0.17003400
vt 0.24340800 0.17003400
vt 0.27801000 0.42285500
vt 0.27801000 0.42285500
vt 0.24030900 0.58398400
vt 0.24030900 0.58398400
vt 0.19564000 0.64043000
vt 0.19047900 0.10165700
vt 0.22112700 0.13173000
vt 0.04809300 0.41653700
vt 0.04897500 0.32108000
vt 0.07539800 0.19142500
vt 0.26370400 0.23087000
vt 0.27836200 0.32135000
vt 0.26698300 0.49922000
vt 0.78993300 0.99703800
vt 0.72510300 0.99666900
vt 0.75737900 1.00024800
vt 0.78589000 0.63288300
vt 0.78005200 0.52484800
vt 0.61742700 0.52493200
vt 0.84526100 0.63106800
vt 0.92403600 1.00073500
vt 0.95957400 0.99629900
vt 0.12472900 0.11043100
f 1/1/1 4/4/4 3/3/3
f 5/5/5 6/6/6 2/2/2
f 7/7/7 8/8/8 6/6/6
f 8/8/8 9/9/9 10/10/10
f 10/10/10 9/9/9 11/11/11
f 13/13/13 16/16/16 14/14/14
f 15/15/15 16/16/16 17/17/17
f 18/18/18 19/19/19 20/20/20
f 21/21/21 22/22/22 20/20/20
f 22/22/22 21/21/21 23/23/23
f 24/24/24 23/23/23 25/25/25
f 27/27/27 30/30/30 29/29/29
f 30/30/30 32/32/32 31/31/31
f 32/32/32 34/34/34 33/33/33
f 35/35/35 219/219/219 34/34/34
f 36/36/36 219/219/219 35/35/35
f 37/37/37 41/41/41 38/38/38
f 40/40/40 38/38/38 41/41/41
f 40/40/40 39/39/39 42/42/42
f 44/44/44 46/46/46 45/45/45
f 44/44/44 43/43/43 42/42/42
f 46/46/46 220/220/220 45/45/45
f 50/50/50 51/51/51 48/48/48
f 47/47/47 220/220/220 51/51/51
f 52/52/52 53/53/53 54/54/54
f 57/57/57 60/60/60 56/56/56
f 58/58/58 67/67/67 55/55/55
f 60/60/60 57/57/57 61/61/61
f 62/62/62 63/63/63 64/64/64
f 65/65/65 66/66/66 63/63/63
f 66/66/66 64/64/64 63/63/63
f 58/58/58 62/62/62 67/67/67
f 59/59/59 61/61/61 69/69/69
f 69/69/69 73/73/73 70/70/70
f 70/70/70 73/73/73 72/72/72
f 74/74/74 72/72/72 71/71/71
f 71/71/71 75/75/75 74/74/74
f 77/77/77 74/74/74 76/76/76
f 76/76/76 79/79/79 78/78/78
f 65/65/65 80/80/80 81/81/81
f 80/80/80 82/82/82 83/83/83
f 81/81/81 80/80/80 83/83/83
f 84/84/84 85/85/85 82/82/82
f 83/83/83 82/82/82 85/85/85
f 86/86/86 85/85/85 84/84/84
f 84/84/84 87/87/87 86/86/86
f 86/86/86 87/87/87 88/88/88
f 88/88/88 89/89/89 90/90/90
f 89/89/89 88/88/88 87/87/87
f 93/93/93 95/95/95 91/91/91
f 94/94/94 78/78/78 79/79/79
f 96/96/96 97/97/97 93/93/93
f 91/91/91 94/94/94 92/92/92
f 98/98/98 99/99/99 96/96/96
f 90/90/90 99/99/99 98/98/98
f 89/89/89 99/99/99 90/90/90
f 81/81/81 66/66/66 65/65/65
f 101/101/101 104/104/104 106/106/106
f 104/104/104 109/109/109 110/110/110
f 111/111/111 101/101/101 113/113/113
f 100/100/100 115/115/115 103/103/103
f 115/115/115 129/129/129 103/103/103
f 112/112/112 114/114/114 102/102/102
f 117/117/117 109/109/109 119/119/119
f 117/117/117 120/120/120 121/121/121
f 117/117/117 119/119/119 120/120/120
f 107/107/107 122/122/122 118/118/118
f 119/119/119 123/123/123 124/124/124
f 125/125/125 111/111/111 126/126/126
f 116/116/116 111/111/111 125/125/125
f 127/127/127 125/125/125 128/128/128
f 127/127/127 116/116/116 125/125/125
f 132/132/132 133/133/133 116/116/116
f 116/116/116 133/133/133 134/134/134
f 123/123/123 109/109/109 131/131/131
f 131/131/131 136/136/136 137/137/137
f 135/135/135 129/129/129 115/115/115
f 134/134/134 138/138/138 136/136/136
f 136/136/136 116/116/116 134/134/134
f 139/139/139 140/140/140 141/141/141
f 142/142/142 143/143/143 140/140/140
f 144/144/144 140/140/140 139/139/139
f 143/143/143 145/145/145 146/146/146
f 146/146/146 145/145/145 147/147/147
f 142/142/142 140/140/140 144/144/144
f 145/145/145 143/143/143 142/142/142
f 147/147/147 149/149/149 148/148/148
f 149/149/149 155/155/155 150/150/150
f 151/151/151 152/152/152 150/150/150
f 153/153/153 154/154/154 152/152/152
f 151/151/151 150/150/150 155/155/155
f 154/154/154 156/156/156 157/157/157
f 153/153/153 152/152/152 151/151/151
f 156/156/156 154/154/154 153/153/153
f 158/158/158 159/159/159 157/157/157
f 158/158/158 160/160/160 159/159/159
f 161/161/161 162/162/162 163/163/163
f 164/164/164 165/165/165 162/162/162
f 166/166/166 167/167/167 165/165/165
f 168/168/168 169/169/169 167/167/167
f 164/164/164 162/162/162 161/161/161
f 169/169/169 168/168/168 170/170/170
f 166/166/166 165/165/165 164/164/164
f 168/168/168 167/167/167 166/166/166
f 170/170/170 171/171/171 169/169/169
f 170/170/170 172/172/172 171/171/171
f 173/173/173 171/171/171 172/172/172
f 173/173/173 172/172/172 174/174/174
f 175/175/175 174/174/174 176/176/176
f 178/178/178 179/179/179 177/177/177
f 179/179/179 180/180/180 181/181/181
f 178/178/178 177/177/177 176/176/176
f 180/180/180 179/179/179 178/178/178
f 182/182/182 183/183/183 181/181/181
f 182/182/182 184/184/184 183/183/183
f 185/185/185 187/187/187 190/190/190
f 192/192/192 199/199/199 191/191/191
f 188/188/188 195/195/195 196/196/196
f 196/196/196 197/197/197 188/188/188
f 200/200/200 201/201/201 204/204/204
f 198/198/198 203/203/203 205/205/205
f 186/186/186 198/198/198 205/205/205
f 198/198/198 206/206/206 207/207/207
f 208/208/208 209/209/209 188/188/188
f 210/210/210 189/189/189 188/188/188
f 208/208/208 188/188/188 197/197/197
f 194/194/194 187/187/187 185/185/185
f 202/202/202 198/198/198 211/211/211
f 202/202/202 211/211/211 212/212/212
f 202/202/202 213/213/213 203/203/203
f 214/214/214 215/215/215 216/216/216
f 7/7/7 9/9/9 8/8/8
f 10/10/10 11/11/11 12/12/12
f 11/11/11 13/13/13 12/12/12
f 15/15/15 14/14/14 16/16/16
f 218/218/218 15/15/15 17/17/17
f 217/217/217 19/19/19 18/18/18
f 54/54/54 221/221/221 222/222/222
f 158/158/158 157/157/157 156/156/156
f 182/182/182 181/181/181 180/180/180
f 189/189/189 223/223/223 193/193/193
f 198/198/198 193/193/193 206/206/206
f 4/4/4 2/2/2 3/3/3
f 5/5/5 2/2/2 4/4/4
f 7/7/7 6/6/6 5/5/5
f 13/13/13 14/14/14 12/12/12
f 21/21/21 20/20/20 19/19/19
f 22/22/22 23/23/23 24/24/24
f 24/24/24 25/25/25 26/26/26
f 30/30/30 28/28/28 29/29/29
f 30/30/30 31/31/31 28/28/28
f 32/32/32 33/33/33 31/31/31
f 219/219/219 33/33/33 34/34/34
f 36/36/36 35/35/35 37/37/37
f 37/37/37 38/38/38 36/36/36
f 40/40/40 41/41/41 39/39/39
f 44/44/44 45/45/45 43/43/43
f 44/44/44 42/42/42 39/39/39
f 220/220/220 47/47/47 45/45/45
f 50/50/50 48/48/48 49/49/49
f 47/47/47 51/51/51 50/50/50
f 60/60/60 55/55/55 56/56/56
f 67/67/67 56/56/56 55/55/55
f 60/60/60 61/61/61 59/59/59
f 62/62/62 64/64/64 67/67/67
f 59/59/59 69/69/69 68/68/68
f 69/69/69 70/70/70 68/68/68
f 73/73/73 71/71/71 72/72/72
f 74/74/74 75/75/75 76/76/76
f 76/76/76 78/78/78 77/77/77
f 93/93/93 91/91/91 92/92/92
f 94/94/94 79/79/79 92/92/92
f 97/97/97 95/95/95 93/93/93
f 99/99/99 97/97/97 96/96/96
f 130/130/130 108/108/108 105/105/105
f 147/147/147 148/148/148 146/146/146
f 149/149/149 150/150/150 148/148/148
f 173/173/173 174/174/174 175/175/175
f 175/175/175 176/176/176 177/177/177
f 198/198/198 186/186/186 189/189/189
f 218/218/218 17/17/17 217/217/217
f 217/217/217 18/18/18 218/218/218

