mtllib material.mtl
usemtl Material-塑胶__3_.005
v 0.03325300 0.01997900 -0.00213100
v 0.03410300 0.02006800 -0.00213200
v 0.03410300 0.02006300 -0.00118700
v 0.03325300 0.01997300 -0.00014700
v 0.03325300 0.01997300 -0.00014700
v 0.03428800 0.02008400 0.00151600
v 0.03428800 0.02008400 0.00151600
v 0.03367700 0.02001700 0.00070400
v 0.03367700 0.02001700 0.00070400
v 0.03367700 0.02001700 0.00070400
v 0.03488700 0.02014500 0.00089800
v 0.03410300 0.02006100 -0.00014700
v 0.03244000 0.01989300 0.00093600
v 0.03244000 0.01989300 0.00093600
v 0.03580200 0.02025000 0.00211800
v 0.03474000 0.02013700 0.00211800
v 0.03474000 0.02013700 0.00211800
v 0.03261600 0.01991600 0.00211800
v 0.03261600 0.01991600 0.00211800
v 0.03155300 0.01981300 0.00211800
v 0.03403000 0.02076300 -0.00212600
v 0.03318200 0.02067600 -0.00212600
v 0.03318300 0.02067000 -0.00014700
v 0.03413900 0.02077100 0.00141100
v 0.03413900 0.02077100 0.00141100
v 0.03483800 0.02084400 0.00093100
v 0.03483800 0.02084400 0.00093100
v 0.03483800 0.02084400 0.00093100
v 0.03360600 0.02071300 0.00070100
v 0.03360600 0.02071300 0.00070100
v 0.03403000 0.02075700 -0.00014700
v 0.03237100 0.02059000 0.00093500
v 0.03237100 0.02059000 0.00093500
v 0.03237100 0.02059000 0.00093500
v 0.03466600 0.02083100 0.00211300
v 0.03572600 0.02094600 0.00211300
v 0.03254700 0.02061300 0.00211300
v 0.03254700 0.02061300 0.00211300
v 0.03148700 0.02051000 0.00211300
v 0.03155300 0.01981300 0.00211800
v 0.03155300 0.01981300 0.00211800
v 0.03148700 0.02051000 0.00211300
v 0.03244000 0.01989300 0.00093600
v 0.03244000 0.01989300 0.00093600
v 0.03244000 0.01989300 0.00093600
v 0.03237100 0.02059000 0.00093500
v 0.03237100 0.02059000 0.00093500
v 0.03237100 0.02059000 0.00093500
v 0.03325300 0.01997300 -0.00014700
v 0.03261600 0.01991600 0.00211800
v 0.03254700 0.02061300 0.00211300
v 0.03254700 0.02061300 0.00211300
v 0.03155300 0.01981300 0.00211800
v 0.03155300 0.01981300 0.00211800
v 0.03148700 0.02051000 0.00211300
v 0.03367700 0.02001700 0.00070400
v 0.03360600 0.02071300 0.00070100
v 0.03261600 0.01991600 0.00211800
v 0.03360600 0.02071300 0.00070100
v 0.03360600 0.02071300 0.00070100
v 0.03360600 0.02071300 0.00070100
v 0.03474000 0.02013700 0.00211800
v 0.03474000 0.02013700 0.00211800
v 0.03474000 0.02013700 0.00211800
v 0.03413900 0.02077100 0.00141100
v 0.03413900 0.02077100 0.00141100
v 0.03466600 0.02083100 0.00211300
v 0.03367700 0.02001700 0.00070400
v 0.03428800 0.02008400 0.00151600
v 0.03580200 0.02025000 0.00211800
v 0.03466600 0.02083100 0.00211300
v 0.03474000 0.02013700 0.00211800
v 0.03410300 0.02006100 -0.00014700
v 0.03403000 0.02075700 -0.00014700
v 0.03403000 0.02075700 -0.00014700
v 0.03488700 0.02014500 0.00089800
v 0.03488700 0.02014500 0.00089800
v 0.03488700 0.02014500 0.00089800
v 0.03483800 0.02084400 0.00093100
v 0.03483800 0.02084400 0.00093100
v 0.03483800 0.02084400 0.00093100
v 0.03580200 0.02025000 0.00211800
v 0.03580200 0.02025000 0.00211800
v 0.03410300 0.02006300 -0.00118700
v 0.03410300 0.02006300 -0.00118700
v 0.03410300 0.02006300 -0.00118700
v 0.03403000 0.02076300 -0.00212600
v 0.03403000 0.02076300 -0.00212600
v 0.03410300 0.02006100 -0.00014700
v 0.03410300 0.02006800 -0.00213200
v 0.03403000 0.02076300 -0.00212600
v 0.03325300 0.01997900 -0.00213100
v 0.03318200 0.02067600 -0.00212600
v 0.03410300 0.02006800 -0.00213200
v 0.03325300 0.01997300 -0.00014700
v 0.03325300 0.01997300 -0.00014700
v 0.03318300 0.02067000 -0.00014700
v 0.03318200 0.02067600 -0.00212600
v 0.03318200 0.02067600 -0.00212600
v 0.03318300 0.02067000 -0.00014700
v 0.03318300 0.02067000 -0.00014700
v 0.03254700 0.02061300 0.00211300
v 0.03254700 0.02061300 0.00211300
v 0.03572600 0.02094600 0.00211300
v 0.03572600 0.02094600 0.00211300
v 0.03403000 0.02075700 -0.00014700
v 0.03403000 0.02075700 -0.00014700
v 0.03325300 0.01997900 -0.00213100
vn 0.10080000 -0.99490000 -0.00650000
vn 0.10380000 -0.99460000 -0.00650000
vn 0.10380000 -0.99460000 -0.00360000
vn 0.10080000 -0.99490000 -0.00050000
vn 0.10080000 -0.99490000 -0.00040000
vn 0.10450000 -0.99450000 0.00470000
vn 0.10450000 -0.99450000 0.00460000
vn 0.10230000 -0.99480000 0.00210000
vn 0.10230000 -0.99480000 0.00220000
vn 0.10230000 -0.99470000 0.00210000
vn 0.10660000 -0.99430000 0.00270000
vn 0.10380000 -0.99460000 -0.00050000
vn 0.09790000 -0.99520000 0.00280000
vn 0.09790000 -0.99520000 0.00290000
vn 0.10990000 -0.99390000 0.00650000
vn 0.10610000 -0.99430000 0.00650000
vn 0.10610000 -0.99430000 0.00610000
vn 0.09860000 -0.99510000 0.00640000
vn 0.09850000 -0.99510000 0.00640000
vn 0.09480000 -0.99550000 0.00640000
vn -0.10380000 0.99460000 0.00650000
vn -0.10080000 0.99490000 0.00650000
vn -0.10080000 0.99490000 0.00040000
vn -0.10420000 0.99450000 -0.00420000
vn -0.10420000 0.99450000 -0.00430000
vn -0.10660000 0.99430000 -0.00290000
vn -0.10670000 0.99430000 -0.00280000
vn -0.10670000 0.99430000 -0.00290000
vn -0.10230000 0.99480000 -0.00210000
vn -0.10220000 0.99480000 -0.00210000
vn -0.10380000 0.99460000 0.00040000
vn -0.09790000 0.99520000 -0.00290000
vn -0.09790000 0.99520000 -0.00280000
vn -0.09800000 0.99520000 -0.00280000
vn -0.10610000 0.99430000 -0.00650000
vn -0.10980000 0.99390000 -0.00650000
vn -0.09850000 0.99510000 -0.00640000
vn -0.09860000 0.99510000 -0.00640000
vn -0.09480000 0.99550000 -0.00640000
vn -0.79480000 -0.07950000 -0.60170000
vn -0.79460000 -0.07990000 -0.60180000
vn -0.79480000 -0.07950000 -0.60170000
vn -0.79450000 -0.07990000 -0.60200000
vn -0.79460000 -0.07990000 -0.60180000
vn -0.79440000 -0.08020000 -0.60210000
vn -0.79460000 -0.07990000 -0.60180000
vn -0.79450000 -0.07990000 -0.60200000
vn -0.79460000 -0.07980000 -0.60180000
vn -0.79440000 -0.08020000 -0.60210000
vn -0.00050000 0.00630000 1.00000000
vn -0.00060000 0.00630000 1.00000000
vn -0.00050000 0.00630000 1.00000000
vn -0.00060000 0.00630000 1.00000000
vn -0.00050000 0.00630000 1.00000000
vn -0.00060000 0.00630000 1.00000000
vn 0.79390000 0.08290000 0.60230000
vn 0.79420000 0.08310000 0.60190000
vn 0.79440000 0.08250000 0.60170000
vn -0.79400000 -0.08030000 0.60260000
vn -0.79400000 -0.08040000 0.60250000
vn -0.79400000 -0.08040000 0.60260000
vn -0.79360000 -0.08070000 0.60310000
vn -0.79360000 -0.08060000 0.60310000
vn -0.79360000 -0.08080000 0.60300000
vn -0.79380000 -0.08060000 0.60280000
vn -0.79380000 -0.08050000 0.60280000
vn -0.79370000 -0.08080000 0.60290000
vn -0.79390000 -0.08040000 0.60270000
vn -0.79370000 -0.08060000 0.60290000
vn -0.00070000 0.00640000 1.00000000
vn -0.00070000 0.00640000 1.00000000
vn -0.00070000 0.00640000 1.00000000
vn 0.79390000 0.08320000 -0.60240000
vn 0.79390000 0.08320000 -0.60240000
vn 0.79390000 0.08350000 -0.60220000
vn 0.79350000 0.08350000 -0.60280000
vn 0.79390000 0.08320000 -0.60240000
vn 0.79370000 0.08340000 -0.60250000
vn 0.79350000 0.08350000 -0.60280000
vn 0.79350000 0.08370000 -0.60280000
vn 0.79390000 0.08350000 -0.60220000
vn 0.79350000 0.08350000 -0.60280000
vn 0.79350000 0.08370000 -0.60280000
vn 0.99460000 0.10380000 0.00030000
vn 0.99460000 0.10390000 0.00040000
vn 0.99460000 0.10390000 0.00020000
vn 0.99460000 0.10390000 0.00020000
vn 0.99460000 0.10380000 0.00070000
vn 0.99460000 0.10380000 0.00030000
vn 0.99460000 0.10380000 0.00070000
vn -0.00070000 0.00650000 -1.00000000
vn -0.00070000 0.00650000 -1.00000000
vn -0.00060000 0.00650000 -1.00000000
vn -0.00070000 0.00660000 -1.00000000
vn -0.99490000 -0.10070000 -0.00010000
vn -0.99490000 -0.10080000 -0.00000000
vn -0.99490000 -0.10070000 -0.00010000
vn -0.99490000 -0.10090000 -0.00080000
vn -0.99490000 -0.10090000 -0.00050000
vn -0.79440000 -0.08010000 -0.60210000
vn -0.79440000 -0.08020000 -0.60210000
vn 0.79440000 0.08260000 0.60170000
vn 0.79430000 0.08260000 0.60180000
vn -0.00070000 0.00640000 1.00000000
vn 0.79350000 0.08370000 -0.60280000
vn 0.99460000 0.10380000 0.00030000
vn 0.99460000 0.10390000 0.00020000
vn -0.99490000 -0.10080000 -0.00070000
vt 0.97473200 0.98977900
vt 0.97503500 0.98467300
vt 0.98032700 0.98495600
vt 0.98620100 0.99014300
vt 0.98620100 0.99014300
vt 0.99564800 0.98376800
vt 0.99564800 0.98376800
vt 0.99113200 0.98757000
vt 0.99113200 0.98757000
vt 0.99113200 0.98757000
vt 0.99211600 0.98036300
vt 0.98623600 0.98507600
vt 0.99266400 0.99497800
vt 0.99266400 0.99497800
vt 0.99849900 0.97466500
vt 0.99883200 0.98090900
vt 0.99883200 0.98090900
vt 0.99958900 0.99356900
vt 0.99958900 0.99356900
vt 0.99999800 0.99999700
vt 0.97495200 0.98475300
vt 0.97474100 0.98978600
vt 0.98620000 0.99014300
vt 0.99509300 0.98424400
vt 0.99509300 0.98424400
vt 0.99230500 0.98021200
vt 0.99230500 0.98021200
vt 0.99230500 0.98021200
vt 0.99112800 0.98756900
vt 0.99112800 0.98756900
vt 0.98623600 0.98507600
vt 0.99266900 0.99498100
vt 0.99266900 0.99498100
vt 0.99266900 0.99498100
vt 0.99881900 0.98090300
vt 0.99848800 0.97467800
vt 0.99958900 0.99356800
vt 0.99958900 0.99356800
vt 1.00000000 1.00000000
vt 0.00000000 -0.00000400
vt 0.00000000 -0.00000400
vt 0.00000000 0.01215700
vt 0.00747800 0.00000300
vt 0.00747800 0.00000300
vt 0.00747800 0.00000300
vt 0.00747400 0.01216100
vt 0.00747400 0.01216100
vt 0.00747400 0.01216100
vt 0.01433600 -0.00000100
vt 0.07636900 -0.00000100
vt 0.07636800 0.01215900
vt 0.07636800 0.01215900
vt 0.08176500 0.00000000
vt 0.08176500 0.00000000
vt 0.08176700 0.01215700
vt 0.06739600 0.00000500
vt 0.06739100 0.01216200
vt 0.07636300 0.00000200
vt 0.06741700 0.01214500
vt 0.06741700 0.01214500
vt 0.06741700 0.01214500
vt 0.05845500 0.00002500
vt 0.05845500 0.00002500
vt 0.05845500 0.00002500
vt 0.06283500 0.01215800
vt 0.06283500 0.01215800
vt 0.05845600 0.01215400
vt 0.06741800 -0.00000700
vt 0.06219200 -0.00000200
vt 0.05305000 -0.00000300
vt 0.05844900 0.01215900
vt 0.05846000 0.00002300
vt 0.03871400 -0.00000300
vt 0.03871500 0.01215500
vt 0.03871500 0.01215500
vt 0.04533200 0.00000200
vt 0.04533200 0.00000200
vt 0.04533200 0.00000200
vt 0.04555300 0.01216400
vt 0.04555300 0.01216400
vt 0.04555300 0.01216400
vt 0.05305700 -0.00001000
vt 0.05305700 -0.00001000
vt 0.03342100 -0.00000100
vt 0.03342100 -0.00000100
vt 0.03342100 -0.00000100
vt 0.02866500 0.01215200
vt 0.02866500 0.01215200
vt 0.03870900 0.00000300
vt 0.02868200 -0.00000000
vt 0.02868200 0.01213500
vt 0.02436700 -0.00001300
vt 0.02436500 0.01214100
vt 0.02868400 0.00000000
vt 0.01433400 -0.00000400
vt 0.01433400 -0.00000400
vt 0.01433500 0.01215300
vt 0.02439500 0.01217100
vt 0.02439500 0.01217100
vt 0.01433400 0.01215500
vt 0.01433400 0.01215500
vt 0.07636600 0.01215600
vt 0.07636600 0.01215600
vt 0.05305700 0.01215800
vt 0.05305700 0.01215600
vt 0.03871100 0.01215800
vt 0.03871100 0.01215800
vt 0.02438400 -0.00000200
f 1/1/1 2/2/2 3/3/3
f 3/3/3 4/4/4 1/1/1
f 6/6/6 8/8/8 11/11/11
f 8/8/8 12/12/12 11/11/11
f 3/3/3 12/12/12 5/5/5
f 4/4/4 12/12/12 9/9/9
f 5/5/5 8/8/8 13/13/13
f 15/15/15 17/17/17 11/11/11
f 13/13/13 10/10/10 18/18/18
f 19/19/19 20/20/20 14/14/14
f 23/23/23 31/31/31 22/22/22
f 24/24/24 26/26/26 29/29/29
f 29/29/29 27/27/27 31/31/31
f 23/23/23 29/29/29 31/31/31
f 23/23/23 34/34/34 30/30/30
f 35/35/35 28/28/28 25/25/25
f 35/35/35 36/36/36 27/27/27
f 33/33/33 38/38/38 29/29/29
f 39/39/39 37/37/37 32/32/32
f 42/42/42 48/48/48 40/40/40
f 47/47/47 100/100/100 43/43/43
f 51/51/51 55/55/55 53/53/53
f 57/57/57 103/103/103 56/56/56
f 61/61/61 64/64/64 66/66/66
f 62/62/62 67/67/67 65/65/65
f 60/60/60 68/68/68 69/69/69
f 69/69/69 63/63/63 59/59/59
f 70/70/70 104/104/104 72/72/72
f 75/75/75 81/81/81 78/78/78
f 80/80/80 105/105/105 83/83/83
f 87/87/87 107/107/107 86/86/86
f 90/90/90 88/88/88 85/85/85
f 91/91/91 94/94/94 92/92/92
f 99/99/99 108/108/108 96/96/96
f 16/16/16 7/7/7 11/11/11
f 31/31/31 21/21/21 22/22/22
f 46/46/46 44/44/44 41/41/41
f 101/101/101 49/49/49 45/45/45
f 52/52/52 54/54/54 50/50/50
f 102/102/102 58/58/58 56/56/56
f 104/104/104 71/71/71 72/72/72
f 74/74/74 77/77/77 73/73/73
f 79/79/79 82/82/82 76/76/76
f 106/106/106 89/89/89 84/84/84
f 91/91/91 92/92/92 93/93/93
f 98/98/98 95/95/95 97/97/97

