mtllib material.mtl
usemtl Material-塑胶__3_.001
v 0.02456600 0.01922800 -0.00001700
v 0.02456600 0.01922800 -0.00001700
v 0.02456600 0.01922800 -0.00001700
v 0.02508400 0.01927100 -0.00212900
v 0.02614800 0.01935000 -0.00212900
v 0.02402600 0.01919200 -0.00071700
v 0.02402600 0.01919200 -0.00071700
v 0.02349000 0.01915500 -0.00000700
v 0.02349000 0.01915500 -0.00000700
v 0.02349000 0.01915500 -0.00000700
v 0.02402600 0.01919200 0.00070300
v 0.02402600 0.01919200 0.00070300
v 0.02296700 0.01912700 -0.00212800
v 0.02190700 0.01905900 -0.00212700
v 0.02612900 0.01934600 0.00210200
v 0.02505900 0.01961900 0.00211300
v 0.02296600 0.01912700 0.00211500
v 0.02190600 0.01905900 0.00211400
v 0.02452400 0.01992700 -0.00002700
v 0.02452400 0.01992700 -0.00002700
v 0.02452400 0.01992700 -0.00002700
v 0.02503800 0.01997100 -0.00212800
v 0.02397900 0.01989100 -0.00071800
v 0.02397900 0.01989100 -0.00071800
v 0.02609600 0.02004900 -0.00212600
v 0.02344400 0.01985400 -0.00000700
v 0.02344400 0.01985400 -0.00000700
v 0.02397800 0.01989100 0.00070200
v 0.02397800 0.01989100 0.00070200
v 0.02292000 0.01982600 -0.00212600
v 0.02186800 0.01975900 -0.00211900
v 0.02605900 0.02004400 0.00208100
v 0.02505900 0.01962000 0.00211300
v 0.02292000 0.01982600 0.00211200
v 0.02186600 0.01975900 0.00210600
v 0.02348900 0.01915500 -0.00000700
v 0.02348900 0.01915500 -0.00000700
v 0.02348900 0.01915500 -0.00000700
v 0.02344400 0.01985400 -0.00000700
v 0.02344400 0.01985400 -0.00000700
v 0.02344400 0.01985400 -0.00000700
v 0.02190700 0.01906000 -0.00212700
v 0.02190700 0.01906000 -0.00212700
v 0.02190700 0.01906000 -0.00212700
v 0.02190600 0.01905900 0.00211400
v 0.02190600 0.01905900 0.00211400
v 0.02190600 0.01905900 0.00211400
v 0.02186600 0.01975800 0.00210600
v 0.02186600 0.01975800 0.00210600
v 0.02186600 0.01975800 0.00210600
v 0.02186600 0.01975800 0.00210600
v 0.02344400 0.01985400 -0.00000700
v 0.02344400 0.01985400 -0.00000700
v 0.02344400 0.01985400 -0.00000700
v 0.02292000 0.01982500 0.00211300
v 0.02292000 0.01982500 0.00211300
v 0.02292000 0.01982500 0.00211300
v 0.02190600 0.01906000 0.00211500
v 0.02190600 0.01906000 0.00211500
v 0.02190600 0.01906000 0.00211500
v 0.02296600 0.01912700 0.00211500
v 0.02296600 0.01912700 0.00211500
v 0.02296600 0.01912700 0.00211500
v 0.02296600 0.01912700 0.00211500
v 0.02186600 0.01975800 0.00210700
v 0.02186600 0.01975800 0.00210700
v 0.02186600 0.01975800 0.00210700
v 0.02397800 0.01989100 0.00070200
v 0.02397800 0.01989100 0.00070200
v 0.02397800 0.01989100 0.00070200
v 0.02397800 0.01989100 0.00070200
v 0.02296700 0.01912700 0.00211500
v 0.02296700 0.01912700 0.00211500
v 0.02296700 0.01912700 0.00211500
v 0.02296700 0.01912700 0.00211500
v 0.02402600 0.01919300 0.00070300
v 0.02402600 0.01919300 0.00070300
v 0.02402600 0.01919300 0.00070300
v 0.02292100 0.01982500 0.00211200
v 0.02292100 0.01982500 0.00211200
v 0.02292100 0.01982500 0.00211200
v 0.02397800 0.01989100 0.00070200
v 0.02397800 0.01989100 0.00070200
v 0.02397800 0.01989100 0.00070200
v 0.02402500 0.01919200 0.00070300
v 0.02402500 0.01919200 0.00070300
v 0.02402500 0.01919200 0.00070300
v 0.02505900 0.01962000 0.00211300
v 0.02505900 0.01962000 0.00211300
v 0.02505900 0.01962000 0.00211300
v 0.02612900 0.01934700 0.00210200
v 0.02612900 0.01934700 0.00210200
v 0.02612900 0.01934700 0.00210200
v 0.02605900 0.02004400 0.00208100
v 0.02605900 0.02004400 0.00208100
v 0.02605900 0.02004400 0.00208100
v 0.02505900 0.01962000 0.00211300
v 0.02505900 0.01962000 0.00211300
v 0.02505900 0.01962000 0.00211300
v 0.02456700 0.01922800 -0.00001700
v 0.02456700 0.01922800 -0.00001700
v 0.02456700 0.01922800 -0.00001700
v 0.02456700 0.01922800 -0.00001700
v 0.02452400 0.01992700 -0.00002700
v 0.02452400 0.01992700 -0.00002700
v 0.02452400 0.01992700 -0.00002700
v 0.02605900 0.02004400 0.00208100
v 0.02605900 0.02004400 0.00208100
v 0.02605900 0.02004400 0.00208100
v 0.02614800 0.01935000 -0.00212900
v 0.02614800 0.01935000 -0.00212900
v 0.02614800 0.01935000 -0.00212900
v 0.02614800 0.01935000 -0.00212900
v 0.02609600 0.02004800 -0.00212600
v 0.02609600 0.02004800 -0.00212600
v 0.02609600 0.02004800 -0.00212600
v 0.02456700 0.01922800 -0.00001600
v 0.02456700 0.01922800 -0.00001600
v 0.02456700 0.01922800 -0.00001600
v 0.02609600 0.02004800 -0.00212700
v 0.02609600 0.02004800 -0.00212700
v 0.02609600 0.02004800 -0.00212700
v 0.02614800 0.01935000 -0.00213000
v 0.02614800 0.01935000 -0.00213000
v 0.02614800 0.01935000 -0.00213000
v 0.02508400 0.01927200 -0.00212900
v 0.02508400 0.01927200 -0.00212900
v 0.02508400 0.01927200 -0.00212900
v 0.02397800 0.01989100 -0.00071900
v 0.02397800 0.01989100 -0.00071900
v 0.02397800 0.01989100 -0.00071900
v 0.02397800 0.01989100 -0.00071900
v 0.02508400 0.01927200 -0.00212900
v 0.02508400 0.01927200 -0.00212900
v 0.02508400 0.01927200 -0.00212900
v 0.02508400 0.01927200 -0.00212900
v 0.02402500 0.01919200 -0.00071700
v 0.02402500 0.01919200 -0.00071700
v 0.02402500 0.01919200 -0.00071700
v 0.02503700 0.01997100 -0.00212800
v 0.02503700 0.01997100 -0.00212800
v 0.02503700 0.01997100 -0.00212800
v 0.02296800 0.01912700 -0.00212800
v 0.02296800 0.01912700 -0.00212800
v 0.02296800 0.01912700 -0.00212800
v 0.02296800 0.01912700 -0.00212800
v 0.02397900 0.01989100 -0.00071900
v 0.02397900 0.01989100 -0.00071900
v 0.02397900 0.01989100 -0.00071900
v 0.02397900 0.01989100 -0.00071900
v 0.02402600 0.01919300 -0.00071700
v 0.02402600 0.01919300 -0.00071700
v 0.02402600 0.01919300 -0.00071700
v 0.02292100 0.01982500 -0.00212600
v 0.02292100 0.01982500 -0.00212600
v 0.02292100 0.01982500 -0.00212600
v 0.02190700 0.01906000 -0.00212800
v 0.02190700 0.01906000 -0.00212800
v 0.02190700 0.01906000 -0.00212800
v 0.02186800 0.01975900 -0.00211900
v 0.02186800 0.01975900 -0.00211900
v 0.02186800 0.01975900 -0.00211900
v 0.02292000 0.01982500 -0.00212700
v 0.02292000 0.01982500 -0.00212700
v 0.02292000 0.01982500 -0.00212700
v 0.02296700 0.01912700 -0.00212900
v 0.02296700 0.01912700 -0.00212900
v 0.02296700 0.01912700 -0.00212900
v 0.02186700 0.01975900 -0.00211800
v 0.02186700 0.01975900 -0.00211800
v 0.02186700 0.01975900 -0.00211800
v 0.02186700 0.01975900 -0.00211800
v 0.02348900 0.01915500 -0.00000700
v 0.02348900 0.01915500 -0.00000700
v 0.02348900 0.01915500 -0.00000700
v 0.02348900 0.01915500 -0.00000700
v 0.02613000 0.01934700 0.00210100
v 0.02613000 0.01934700 0.00210100
v 0.02613000 0.01934700 0.00210100
v 0.02452400 0.01992700 -0.00002700
v 0.02452400 0.01992700 -0.00002700
v 0.02452400 0.01992700 -0.00002700
v 0.02452400 0.01992700 -0.00002700
v 0.02503800 0.01997100 -0.00212800
v 0.02503800 0.01997100 -0.00212800
v 0.02503800 0.01997100 -0.00212800
v 0.02456600 0.01922900 -0.00001700
v 0.02456600 0.01922900 -0.00001700
v 0.02456600 0.01922900 -0.00001700
v 0.02508400 0.01927200 -0.00212900
v 0.02614800 0.01935100 -0.00212900
v 0.02402600 0.01919300 -0.00071700
v 0.02402600 0.01919300 -0.00071700
v 0.02349000 0.01915600 -0.00000700
v 0.02349000 0.01915600 -0.00000700
v 0.02349000 0.01915600 -0.00000700
v 0.02402600 0.01919300 0.00070300
v 0.02402600 0.01919300 0.00070300
v 0.02296700 0.01912800 -0.00212800
v 0.02190700 0.01906000 -0.00212700
v 0.02612900 0.01934700 0.00210100
v 0.02505900 0.01962000 0.00211300
v 0.02296600 0.01912800 0.00211500
v 0.02190600 0.01906000 0.00211400
v 0.02452400 0.01992600 -0.00002700
v 0.02452400 0.01992600 -0.00002700
v 0.02452400 0.01992600 -0.00002700
v 0.02503800 0.01997000 -0.00212800
v 0.02397900 0.01989000 -0.00071800
v 0.02397900 0.01989000 -0.00071800
v 0.02609600 0.02004800 -0.00212600
v 0.02344400 0.01985300 -0.00000700
v 0.02344400 0.01985300 -0.00000700
v 0.02344400 0.01985300 -0.00000700
v 0.02397800 0.01989000 0.00070200
v 0.02397800 0.01989000 0.00070200
v 0.02292000 0.01982500 -0.00212600
v 0.02186800 0.01975800 -0.00211900
v 0.02605900 0.02004300 0.00208100
v 0.02505900 0.01961900 0.00211300
v 0.02292000 0.01982500 0.00211200
v 0.02186600 0.01975800 0.00210600
v 0.02349000 0.01915500 -0.00000700
v 0.02349000 0.01915500 -0.00000700
v 0.02349000 0.01915500 -0.00000700
v 0.02349000 0.01915500 -0.00000700
v 0.02344500 0.01985400 -0.00000700
v 0.02344500 0.01985400 -0.00000700
v 0.02344500 0.01985400 -0.00000700
v 0.02190800 0.01906000 -0.00212700
v 0.02190800 0.01906000 -0.00212700
v 0.02190800 0.01906000 -0.00212700
v 0.02190700 0.01906000 0.00211400
v 0.02190700 0.01906000 0.00211400
v 0.02190700 0.01906000 0.00211400
v 0.02186700 0.01975900 0.00210700
v 0.02186700 0.01975900 0.00210700
v 0.02186700 0.01975900 0.00210700
v 0.02186700 0.01975900 0.00210700
v 0.02344500 0.01985400 -0.00000700
v 0.02344500 0.01985400 -0.00000700
v 0.02344500 0.01985400 -0.00000700
v 0.02292000 0.01982500 0.00211200
v 0.02292000 0.01982500 0.00211200
v 0.02292000 0.01982500 0.00211200
v 0.02190600 0.01906000 0.00211400
v 0.02190600 0.01906000 0.00211400
v 0.02190600 0.01906000 0.00211400
v 0.02296600 0.01912700 0.00211400
v 0.02296600 0.01912700 0.00211400
v 0.02296600 0.01912700 0.00211400
v 0.02296600 0.01912700 0.00211400
v 0.02186600 0.01975800 0.00210600
v 0.02186600 0.01975800 0.00210600
v 0.02186600 0.01975800 0.00210600
v 0.02186600 0.01975800 0.00210600
v 0.02397800 0.01989100 0.00070200
v 0.02397800 0.01989100 0.00070200
v 0.02397800 0.01989100 0.00070200
v 0.02397800 0.01989100 0.00070200
v 0.02296600 0.01912700 0.00211500
v 0.02296600 0.01912700 0.00211500
v 0.02296600 0.01912700 0.00211500
v 0.02296600 0.01912700 0.00211500
v 0.02402500 0.01919200 0.00070300
v 0.02402500 0.01919200 0.00070300
v 0.02402500 0.01919200 0.00070300
v 0.02292000 0.01982500 0.00211200
v 0.02292000 0.01982500 0.00211200
v 0.02292000 0.01982500 0.00211200
v 0.02397800 0.01989100 0.00070200
v 0.02397800 0.01989100 0.00070200
v 0.02397800 0.01989100 0.00070200
v 0.02402600 0.01919300 0.00070300
v 0.02402600 0.01919300 0.00070300
v 0.02402600 0.01919300 0.00070300
v 0.02505900 0.01962000 0.00211300
v 0.02505900 0.01962000 0.00211300
v 0.02505900 0.01962000 0.00211300
v 0.02612900 0.01934700 0.00210100
v 0.02612900 0.01934700 0.00210100
v 0.02612900 0.01934700 0.00210100
v 0.02605900 0.02004400 0.00208000
v 0.02605900 0.02004400 0.00208000
v 0.02605900 0.02004400 0.00208000
v 0.02505900 0.01962000 0.00211200
v 0.02505900 0.01962000 0.00211200
v 0.02505900 0.01962000 0.00211200
v 0.02456600 0.01922800 -0.00001600
v 0.02456600 0.01922800 -0.00001600
v 0.02456600 0.01922800 -0.00001600
v 0.02456600 0.01922800 -0.00001600
v 0.02452400 0.01992700 -0.00002700
v 0.02452400 0.01992700 -0.00002700
v 0.02452400 0.01992700 -0.00002700
v 0.02605800 0.02004400 0.00208100
v 0.02605800 0.02004400 0.00208100
v 0.02605800 0.02004400 0.00208100
v 0.02605800 0.02004400 0.00208100
v 0.02614700 0.01935000 -0.00213000
v 0.02614700 0.01935000 -0.00213000
v 0.02614700 0.01935000 -0.00213000
v 0.02614700 0.01935000 -0.00213000
v 0.02609600 0.02004800 -0.00212700
v 0.02609600 0.02004800 -0.00212700
v 0.02609600 0.02004800 -0.00212700
v 0.02456600 0.01922800 -0.00001700
v 0.02456600 0.01922800 -0.00001700
v 0.02456600 0.01922800 -0.00001700
v 0.02609600 0.02004800 -0.00212600
v 0.02609600 0.02004800 -0.00212600
v 0.02609600 0.02004800 -0.00212600
v 0.02614800 0.01935000 -0.00212900
v 0.02614800 0.01935000 -0.00212900
v 0.02614800 0.01935000 -0.00212900
v 0.02614800 0.01935000 -0.00212900
v 0.02508400 0.01927200 -0.00212800
v 0.02508400 0.01927200 -0.00212800
v 0.02508400 0.01927200 -0.00212800
v 0.02397900 0.01989100 -0.00071800
v 0.02397900 0.01989100 -0.00071800
v 0.02397900 0.01989100 -0.00071800
v 0.02397900 0.01989100 -0.00071800
v 0.02508500 0.01927200 -0.00212800
v 0.02508500 0.01927200 -0.00212800
v 0.02508500 0.01927200 -0.00212800
v 0.02508500 0.01927200 -0.00212800
v 0.02402600 0.01919300 -0.00071700
v 0.02402600 0.01919300 -0.00071700
v 0.02402600 0.01919300 -0.00071700
v 0.02503800 0.01997100 -0.00212700
v 0.02503800 0.01997100 -0.00212700
v 0.02503800 0.01997100 -0.00212700
v 0.02296700 0.01912700 -0.00212800
v 0.02296700 0.01912700 -0.00212800
v 0.02296700 0.01912700 -0.00212800
v 0.02296700 0.01912700 -0.00212800
v 0.02397800 0.01989100 -0.00071800
v 0.02397800 0.01989100 -0.00071800
v 0.02397800 0.01989100 -0.00071800
v 0.02397800 0.01989100 -0.00071800
v 0.02402500 0.01919200 -0.00071700
v 0.02402500 0.01919200 -0.00071700
v 0.02402500 0.01919200 -0.00071700
v 0.02292000 0.01982500 -0.00212600
v 0.02292000 0.01982500 -0.00212600
v 0.02292000 0.01982500 -0.00212600
v 0.02190700 0.01906000 -0.00212700
v 0.02190700 0.01906000 -0.00212700
v 0.02190700 0.01906000 -0.00212700
v 0.02186800 0.01975900 -0.00211800
v 0.02186800 0.01975900 -0.00211800
v 0.02186800 0.01975900 -0.00211800
v 0.02186800 0.01975900 -0.00211800
v 0.02292000 0.01982500 -0.00212600
v 0.02292000 0.01982500 -0.00212600
v 0.02292000 0.01982500 -0.00212600
v 0.02296700 0.01912700 -0.00212800
v 0.02296700 0.01912700 -0.00212800
v 0.02296700 0.01912700 -0.00212800
v 0.02296700 0.01912700 -0.00212800
v 0.02186800 0.01975900 -0.00211900
v 0.02186800 0.01975900 -0.00211900
v 0.02186800 0.01975900 -0.00211900
v 0.02186800 0.01975900 -0.00211900
v 0.02349000 0.01915500 -0.00000700
v 0.02349000 0.01915500 -0.00000700
v 0.02349000 0.01915500 -0.00000700
v 0.02349000 0.01915500 -0.00000700
v 0.02612900 0.01934700 0.00210200
v 0.02612900 0.01934700 0.00210200
v 0.02612900 0.01934700 0.00210200
v 0.02452400 0.01992700 -0.00002700
v 0.02452400 0.01992700 -0.00002700
v 0.02452400 0.01992700 -0.00002700
v 0.02452400 0.01992700 -0.00002700
v 0.02503800 0.01997100 -0.00212700
v 0.02503800 0.01997100 -0.00212700
v 0.02503800 0.01997100 -0.00212700
v 0.02503800 0.01997100 -0.00212700
vn 0.70710000 -0.70700000 0.00590000
vn 0.06990000 -0.99760000 -0.00010000
vn 0.06990000 -0.99760000 -0.00000000
vn -0.30080000 -0.64130000 -0.70590000
vn 0.78370000 -0.49920000 -0.36970000
vn 0.06070000 -0.88870000 -0.45440000
vn 0.06800000 -0.99770000 -0.00200000
vn 0.06610000 -0.99780000 -0.00010000
vn 0.06610000 -0.99780000 -0.00000000
vn -0.64670000 -0.76280000 -0.00040000
vn 0.06800000 -0.99770000 0.00190000
vn 0.10180000 -0.89410000 0.43620000
vn 0.39340000 -0.59440000 -0.70140000
vn -0.70480000 -0.60060000 -0.37760000
vn 0.50110000 -0.79480000 0.34240000
vn 0.01540000 0.25410000 0.96700000
vn 0.39180000 -0.59510000 0.70170000
vn -0.70920000 -0.60050000 0.36940000
vn -0.07000000 0.99750000 0.00000000
vn 0.60980000 0.79250000 0.00860000
vn -0.06990000 0.99760000 0.00010000
vn -0.39070000 0.59630000 -0.70130000
vn -0.06190000 0.88700000 -0.45760000
vn -0.06800000 0.99770000 0.00200000
vn 0.70170000 0.60500000 -0.37620000
vn -0.06610000 0.99780000 -0.00000000
vn -0.74650000 0.66540000 0.00050000
vn -0.06800000 0.99770000 -0.00200000
vn -0.05980000 0.90090000 0.42980000
vn 0.30310000 0.64180000 -0.70450000
vn -0.78120000 0.50710000 -0.36420000
vn 0.61390000 0.78510000 0.08170000
vn -0.92650000 0.08870000 0.36570000
vn 0.30380000 0.64280000 0.70320000
vn -0.77650000 0.50800000 0.37280000
vn -0.79820000 -0.05290000 0.60010000
vn 0.59790000 0.03740000 0.80070000
vn 0.06480000 -0.99790000 -0.00180000
vn -0.79820000 -0.05300000 0.60000000
vn -0.06600000 0.99780000 0.00270000
vn 0.59920000 0.04040000 0.79960000
vn -0.79840000 -0.05200000 0.59980000
vn -0.59910000 -0.02290000 -0.80040000
vn 0.06630000 -0.99780000 -0.00380000
vn 0.06600000 -0.99780000 0.00370000
vn -0.59910000 -0.02430000 0.80030000
vn -0.79850000 -0.05210000 -0.59970000
vn -0.06360000 0.99800000 -0.00260000
vn -0.79860000 -0.05210000 -0.59960000
vn -0.59980000 -0.02600000 0.79970000
vn -0.79860000 -0.05210000 -0.59950000
vn 0.59920000 0.04030000 -0.79960000
vn -0.79820000 -0.05300000 -0.60000000
vn -0.06590000 0.99780000 -0.00280000
vn -0.06130000 0.99810000 -0.00130000
vn 0.99750000 0.07100000 0.00700000
vn -0.00030000 0.00590000 1.00000000
vn -0.99840000 -0.05640000 0.00410000
vn 0.05820000 -0.99830000 0.00610000
vn -0.00040000 0.00590000 1.00000000
vn -0.00040000 0.00600000 1.00000000
vn 0.99820000 0.06020000 0.00250000
vn 0.06890000 -0.99760000 0.00600000
vn -0.00040000 0.00590000 1.00000000
vn -0.00030000 0.00590000 1.00000000
vn -0.99830000 -0.05860000 -0.00660000
vn -0.06470000 0.99780000 -0.01260000
vn -0.06710000 0.99770000 -0.00520000
vn 0.59960000 0.03940000 -0.79930000
vn 0.79720000 0.05550000 0.60120000
vn 0.79740000 0.05550000 0.60090000
vn 0.79730000 0.05510000 0.60110000
vn 0.79720000 0.05500000 0.60120000
vn -0.60020000 -0.03670000 0.79900000
vn 0.06600000 -0.99780000 0.00450000
vn 0.79720000 0.05550000 0.60120000
vn 0.59960000 0.03970000 -0.79930000
vn 0.06590000 -0.99780000 0.00400000
vn 0.79760000 0.05470000 0.60070000
vn -0.59990000 -0.03610000 0.79920000
vn -0.06690000 0.99770000 -0.00410000
vn -0.79730000 -0.05320000 0.60120000
vn -0.59950000 -0.04290000 -0.79920000
vn 0.04910000 0.98710000 0.15230000
vn -0.59960000 -0.04170000 -0.79920000
vn 0.18510000 -0.97000000 0.15750000
vn -0.79720000 -0.05320000 0.60130000
vn 0.18490000 -0.96980000 0.15910000
vn -0.79700000 -0.05380000 0.60160000
vn 0.04820000 0.98690000 0.15370000
vn -0.00050000 0.00610000 1.00000000
vn -0.21950000 -0.97540000 0.01800000
vn 0.99330000 0.11550000 0.00580000
vn 0.99640000 0.07440000 -0.04000000
vn -0.40840000 0.91170000 -0.04470000
vn -0.00040000 0.00610000 1.00000000
vn -0.00040000 0.00610000 1.00000000
vn -0.27690000 -0.96020000 0.03560000
vn -0.39210000 0.91980000 0.01150000
vn 0.06780000 -0.99770000 -0.00640000
vn 0.79790000 0.05600000 -0.60020000
vn -0.60180000 -0.06090000 -0.79630000
vn 0.79790000 0.05590000 -0.60020000
vn 0.79800000 0.05600000 -0.60010000
vn -0.57620000 -0.03420000 -0.81660000
vn -0.06670000 0.99740000 -0.02790000
vn 0.58650000 0.07520000 0.80650000
vn 0.79770000 0.05680000 -0.60040000
vn -0.07200000 0.99730000 0.01450000
vn 0.79750000 0.05690000 0.60060000
vn 0.79760000 0.05670000 0.60050000
vn 0.59880000 0.04810000 -0.79950000
vn 0.07400000 -0.99730000 -0.00310000
vn -0.07400000 0.99730000 0.00000000
vn 0.59880000 0.04810000 -0.79950000
vn 0.79760000 0.05670000 0.60050000
vn 0.79790000 0.05590000 0.60020000
vn 0.07300000 -0.99730000 -0.00190000
vn -0.59930000 -0.02400000 0.80020000
vn 0.99730000 0.07300000 -0.00160000
vn -0.07100000 0.99750000 0.00640000
vn -0.00050000 0.00620000 -1.00000000
vn 0.07070000 -0.99750000 -0.00510000
vn 0.99710000 0.07600000 0.00140000
vn -0.00050000 0.00620000 -1.00000000
vn -0.99780000 -0.06650000 0.00420000
vn 0.07770000 -0.99700000 -0.00120000
vn -0.00040000 0.00610000 -1.00000000
vn -0.60100000 -0.03890000 0.79830000
vn -0.07030000 0.99750000 0.00560000
vn -0.79730000 -0.05310000 -0.60120000
vn -0.79730000 -0.05320000 -0.60120000
vn -0.79690000 -0.05380000 -0.60160000
vn -0.79690000 -0.05380000 -0.60170000
vn 0.06790000 -0.99770000 -0.00470000
vn 0.59890000 0.04140000 -0.79980000
vn -0.59900000 -0.03850000 0.79980000
vn -0.79720000 -0.05310000 -0.60140000
vn 0.06980000 -0.99760000 -0.00490000
vn -0.79710000 -0.05380000 -0.60150000
vn -0.07020000 0.99750000 0.00750000
vn 0.60120000 0.04150000 -0.79800000
vn 0.79720000 0.05510000 -0.60120000
vn 0.06610000 -0.99780000 -0.00250000
vn 0.79730000 0.05500000 -0.60110000
vn -0.60010000 -0.03730000 -0.79900000
vn 0.79720000 0.05570000 -0.60110000
vn 0.60220000 0.04190000 0.79730000
vn -0.06320000 0.99800000 0.00360000
vn 0.79720000 0.05560000 -0.60120000
vn 0.79700000 0.05560000 -0.60140000
vn 0.59720000 0.04210000 0.80100000
vn 0.06120000 -0.99810000 -0.00410000
vn -0.60030000 -0.03870000 -0.79890000
vn 0.79730000 0.05500000 -0.60100000
vn -0.06440000 0.99790000 0.00360000
vn 0.05720000 -0.99830000 -0.01110000
vn -0.00040000 0.00590000 -1.00000000
vn -0.99840000 -0.05560000 -0.00500000
vn -0.99830000 -0.05820000 0.00740000
vn -0.00030000 0.00590000 -1.00000000
vn -0.06570000 0.99780000 0.01250000
vn -0.00040000 0.00600000 -1.00000000
vn -0.06010000 0.99820000 -0.00200000
vn 0.99720000 0.07390000 -0.00830000
vn 0.06970000 -0.99750000 -0.01100000
vn -0.00040000 0.00600000 -1.00000000
vn 0.99820000 0.06020000 -0.00120000
vn -0.06360000 0.99800000 0.00290000
vn -0.79860000 -0.05210000 0.59960000
vn -0.60000000 -0.02510000 -0.79960000
vn -0.79860000 -0.05200000 0.59970000
vn -0.79810000 -0.05300000 -0.60020000
vn 0.06490000 -0.99790000 0.00180000
vn 0.59800000 0.03730000 -0.80060000
vn -0.79810000 -0.05290000 -0.60020000
vn 0.06990000 -0.99750000 0.01220000
vn 0.59440000 0.09090000 0.79900000
vn 0.79750000 0.05680000 -0.60060000
vn 0.79810000 0.05590000 0.60000000
vn -0.60120000 -0.02510000 0.79870000
vn -0.07330000 0.99730000 -0.00040000
vn 0.79800000 0.05610000 0.60010000
vn -0.00040000 0.00610000 -1.00000000
vn -0.99780000 -0.06590000 -0.00430000
vn -0.07490000 0.99720000 0.00470000
vn -0.06540000 0.99790000 0.00230000
vn 0.68250000 0.73090000 0.00720000
vn -0.06540000 0.99790000 -0.00230000
vn -0.39790000 0.59630000 -0.69720000
vn 0.70090000 0.60700000 -0.37450000
vn -0.06800000 0.99770000 0.00040000
vn -0.06020000 0.89060000 -0.45090000
vn -0.74190000 0.67050000 -0.00030000
vn -0.06960000 0.99760000 -0.00170000
vn -0.06960000 0.99760000 0.00170000
vn -0.06800000 0.99770000 -0.00040000
vn -0.10380000 0.94220000 0.31840000
vn 0.31280000 0.64430000 -0.69790000
vn -0.78010000 0.50690000 -0.36680000
vn 0.60220000 0.73990000 -0.29980000
vn -0.76000000 0.45480000 0.46430000
vn 0.31340000 0.64340000 0.69840000
vn -0.77550000 0.50850000 0.37420000
vn 0.06470000 -0.99790000 0.00260000
vn 0.78020000 -0.62560000 0.00530000
vn 0.06490000 -0.99790000 -0.00250000
vn -0.30560000 -0.63730000 -0.70740000
vn 0.06150000 -0.88490000 -0.46180000
vn 0.06800000 -0.99770000 -0.00010000
vn 0.78760000 -0.49310000 -0.36960000
vn 0.06880000 -0.99760000 -0.00140000
vn 0.06910000 -0.99760000 0.00140000
vn -0.65190000 -0.75830000 -0.00030000
vn 0.06800000 -0.99770000 0.00060000
vn 0.06320000 -0.94580000 0.31870000
vn 0.38570000 -0.58960000 -0.70970000
vn -0.70580000 -0.60090000 -0.37520000
vn 0.61970000 -0.75870000 -0.20090000
vn 0.54380000 -0.61740000 0.56840000
vn 0.38810000 -0.58930000 0.70860000
vn -0.71010000 -0.60020000 0.36810000
vn 0.79960000 0.05040000 -0.59850000
vn 0.80020000 0.05260000 -0.59750000
vn 0.06660000 -0.99780000 -0.00330000
vn 0.59980000 0.03830000 0.79920000
vn -0.06440000 0.99790000 0.00440000
vn 0.79840000 0.05330000 -0.59980000
vn 0.59960000 0.03800000 0.79940000
vn 0.79940000 0.05390000 -0.59840000
vn 0.06530000 -0.99790000 -0.00210000
vn -0.60050000 -0.02370000 -0.79930000
vn 0.06520000 -0.99790000 0.00240000
vn -0.60020000 -0.02490000 0.79950000
vn 0.79930000 0.05360000 0.59850000
vn 0.79870000 0.05190000 0.59940000
vn -0.06420000 0.99790000 -0.00350000
vn -0.60000000 -0.02470000 0.79970000
vn 0.79950000 0.05190000 0.59840000
vn -0.06430000 0.99790000 -0.00440000
vn 0.79840000 0.05330000 0.59980000
vn 0.59960000 0.03800000 -0.79940000
vn 0.00730000 0.00200000 -1.00000000
vn -0.05760000 0.99830000 -0.00880000
vn 0.99770000 0.06730000 -0.00050000
vn 0.06440000 -0.99790000 0.00140000
vn -0.99800000 -0.06260000 -0.00050000
vn -0.00400000 -0.01080000 -0.99990000
vn 0.06280000 -0.99800000 0.00160000
vn 0.99770000 0.06800000 -0.00010000
vn 0.00470000 -0.00700000 -1.00000000
vn 0.00140000 -0.00750000 -1.00000000
vn 0.00570000 -0.01460000 -0.99990000
vn -0.99800000 -0.06250000 0.00000000
vn 0.00970000 -0.00800000 -0.99990000
vn -0.05750000 0.99830000 -0.00840000
vn 0.59960000 0.03940000 -0.79930000
vn -0.79770000 -0.05570000 -0.60050000
vn -0.06800000 0.99770000 -0.00390000
vn -0.79740000 -0.05550000 -0.60090000
vn -0.79760000 -0.05520000 -0.60070000
vn 0.06580000 -0.99780000 0.00390000
vn -0.79730000 -0.05510000 -0.60110000
vn -0.60040000 -0.03580000 0.79890000
vn 0.06610000 -0.99780000 0.00440000
vn 0.59990000 0.03950000 -0.79910000
vn -0.79740000 -0.05520000 -0.60090000
vn -0.79760000 -0.05470000 -0.60070000
vn -0.06690000 0.99770000 -0.00410000
vn -0.59990000 -0.03610000 0.79920000
vn -0.59990000 -0.04230000 -0.79900000
vn 0.79760000 0.05280000 -0.60090000
vn 0.04920000 0.98700000 0.15300000
vn -0.60000000 -0.04250000 -0.79890000
vn 0.18510000 -0.96990000 0.15840000
vn 0.79750000 0.05390000 -0.60090000
vn 0.18570000 -0.96990000 0.15760000
vn 0.79820000 0.05390000 -0.60000000
vn 0.04980000 0.98690000 0.15330000
vn 0.00910000 -0.01610000 -0.99980000
vn 0.99730000 0.07270000 -0.00630000
vn -0.26110000 -0.96530000 0.00510000
vn -0.03150000 -0.06000000 -0.99770000
vn 0.99660000 0.08200000 0.00400000
vn -0.41340000 0.91060000 -0.00040000
vn -0.41960000 0.90750000 -0.02160000
vn -0.04120000 -0.00920000 -0.99910000
vn -0.24930000 -0.96840000 0.00150000
vn -0.79460000 -0.04740000 0.60530000
vn -0.80660000 -0.05860000 0.58820000
vn -0.59990000 -0.03110000 -0.79950000
vn 0.06260000 -0.99800000 0.00670000
vn -0.81710000 -0.02790000 0.57590000
vn -0.08830000 0.99610000 -0.00750000
vn -0.60020000 -0.03160000 -0.79920000
vn -0.80310000 -0.07230000 0.59150000
vn 0.59680000 0.07870000 0.79850000
vn -0.81020000 -0.06060000 0.58300000
vn -0.08860000 0.99600000 -0.01170000
vn 0.07370000 -0.99730000 -0.00270000
vn -0.79770000 -0.05690000 -0.60030000
vn 0.59880000 0.04810000 -0.79950000
vn -0.79760000 -0.05670000 -0.60050000
vn -0.79760000 -0.05670000 -0.60050000
vn 0.59880000 0.04810000 -0.79950000
vn -0.07400000 0.99730000 0.00000000
vn 0.07320000 -0.99730000 -0.00370000
vn -0.79840000 -0.05690000 -0.59940000
vn -0.60000000 -0.02560000 0.79960000
vn -0.07400000 0.99720000 0.00690000
vn 0.00100000 -0.00560000 1.00000000
vn 0.99710000 0.07600000 -0.00110000
vn 0.07690000 -0.99700000 -0.00440000
vn 0.99720000 0.07540000 -0.00170000
vn -0.00180000 -0.00250000 1.00000000
vn -0.00110000 -0.00580000 1.00000000
vn 0.00490000 -0.00100000 1.00000000
vn -0.99800000 -0.06260000 -0.00050000
vn 0.07390000 -0.99720000 -0.00600000
vn 0.79660000 0.05470000 0.60210000
vn -0.07020000 0.99750000 0.00690000
vn -0.60000000 -0.03780000 0.79910000
vn 0.79670000 0.05330000 0.60200000
vn 0.60030000 0.04030000 -0.79870000
vn 0.06930000 -0.99760000 -0.00490000
vn 0.79760000 0.05360000 0.60080000
vn 0.79790000 0.05200000 0.60060000
vn 0.06780000 -0.99770000 -0.00520000
vn 0.79810000 0.05490000 0.60000000
vn -0.60040000 -0.03770000 0.79880000
vn 0.79610000 0.05200000 0.60290000
vn 0.59990000 0.04030000 -0.79910000
vn -0.07100000 0.99750000 0.00560000
vn -0.79710000 -0.05450000 0.60140000
vn -0.79720000 -0.05500000 0.60120000
vn 0.06320000 -0.99800000 -0.00460000
vn -0.59980000 -0.03820000 -0.79920000
vn -0.79590000 -0.05180000 0.60320000
vn 0.59930000 0.04460000 0.79930000
vn -0.79640000 -0.05540000 0.60220000
vn -0.06440000 0.99790000 0.00380000
vn 0.06570000 -0.99780000 -0.00450000
vn 0.60010000 0.04460000 0.79870000
vn -0.79950000 -0.05200000 0.59840000
vn -0.59970000 -0.03790000 -0.79930000
vn -0.79680000 -0.05580000 0.60170000
vn -0.06330000 0.99800000 0.00370000
vn -0.99800000 -0.06280000 0.00020000
vn -0.00470000 -0.01160000 0.99990000
vn 0.06440000 -0.99790000 -0.00570000
vn -0.99800000 -0.06280000 -0.00040000
vn -0.05590000 0.99840000 0.00770000
vn 0.01190000 -0.00860000 0.99990000
vn 0.00660000 -0.01610000 0.99980000
vn 0.99750000 0.06990000 0.00190000
vn 0.00990000 0.00490000 0.99990000
vn -0.05610000 0.99840000 0.00830000
vn 0.99750000 0.07080000 0.00140000
vn 0.06250000 -0.99800000 -0.00580000
vn 0.00100000 -0.00690000 1.00000000
vn 0.00550000 -0.00720000 1.00000000
vn -0.60020000 -0.02350000 -0.79950000
vn 0.79960000 0.05190000 -0.59830000
vn 0.79870000 0.05170000 -0.59950000
vn -0.06440000 0.99790000 0.00350000
vn 0.59980000 0.03820000 -0.79920000
vn 0.79950000 0.05040000 0.59860000
vn 0.06660000 -0.99780000 0.00340000
vn 0.80010000 0.05260000 0.59750000
vn 0.59630000 0.07740000 0.79900000
vn 0.06220000 -0.99810000 0.00090000
vn -0.79810000 -0.05600000 0.60000000
vn -0.79690000 -0.05800000 -0.60130000
vn -0.59960000 -0.02550000 0.79990000
vn -0.07360000 0.99730000 0.00080000
vn -0.79720000 -0.05620000 -0.60110000
vn -0.99800000 -0.06270000 0.00100000
vn -0.00340000 -0.00010000 1.00000000
vn -0.00280000 -0.00540000 1.00000000
vn -0.07330000 0.99730000 0.00720000
vt 0.98224500 0.98378300
vt 0.98224500 0.98378300
vt 0.98224500 0.98378300
vt 0.96704100 0.97994400
vt 0.96764200 0.97342100
vt 0.97701300 0.98703200
vt 0.97701300 0.98703200
vt 0.98244500 0.99053500
vt 0.98244500 0.99053500
vt 0.98244500 0.99053500
vt 0.98788200 0.98703500
vt 0.98788200 0.98703500
vt 0.96575100 0.99325900
vt 0.96508300 1.00003200
vt 0.99743800 0.97354300
vt 0.99784900 0.97995700
vt 0.99914900 0.99327200
vt 0.99981400 1.00004600
vt 0.98215700 0.98374300
vt 0.98215700 0.98374300
vt 0.98215700 0.98374300
vt 0.96707900 0.97990300
vt 0.97695500 0.98703900
vt 0.97695500 0.98703900
vt 0.96763200 0.97341500
vt 0.98244500 0.99053100
vt 0.98244500 0.99053100
vt 0.98788200 0.98703500
vt 0.98788200 0.98703500
vt 0.96573100 0.99326400
vt 0.96511900 1.00002000
vt 0.99733100 0.97365900
vt 0.99786600 0.97995400
vt 0.99916200 0.99327200
vt 0.99978300 1.00003600
vt -0.00001900 -0.00000000
vt -0.00001900 -0.00000000
vt -0.00001900 -0.00000000
vt -0.00003500 0.01145100
vt -0.00003500 0.01145100
vt -0.00003500 0.01145100
vt 0.01257400 0.00000700
vt 0.01257400 0.00000700
vt 0.01257400 0.00000700
vt 0.09244600 0.00000300
vt 0.09244600 0.00000300
vt 0.09244600 0.00000300
vt 0.09247600 0.01143600
vt 0.09247600 0.01143600
vt 0.09247600 0.01143600
vt 0.09247600 0.01143600
vt 0.10512700 0.01145100
vt 0.10512700 0.01145100
vt 0.10512700 0.01145100
vt 0.08730700 0.01143700
vt 0.08730700 0.01143700
vt 0.08730700 0.01143700
vt 0.09239100 -0.00002700
vt 0.09239100 -0.00002700
vt 0.09239100 -0.00002700
vt 0.08731800 -0.00001400
vt 0.08731800 -0.00001400
vt 0.08731800 -0.00001400
vt 0.08731800 -0.00001400
vt 0.09238500 0.01141600
vt 0.09238500 0.01141600
vt 0.09238500 0.01141600
vt 0.07885900 0.01144300
vt 0.07885900 0.01144300
vt 0.07885900 0.01144300
vt 0.07885900 0.01144300
vt 0.08728900 -0.00000400
vt 0.08728900 -0.00000400
vt 0.08728900 -0.00000400
vt 0.08728900 -0.00000400
vt 0.07885600 0.00000000
vt 0.07885600 0.00000000
vt 0.07885600 0.00000000
vt 0.08727800 0.01144200
vt 0.08727800 0.01144200
vt 0.08727800 0.01144200
vt 0.07885500 0.01144300
vt 0.07885500 0.01144300
vt 0.07885500 0.01144300
vt 0.07885600 0.00000000
vt 0.07885600 0.00000000
vt 0.07885600 0.00000000
vt 0.07030800 0.00571500
vt 0.07030800 0.00571500
vt 0.07030800 0.00571500
vt 0.06538000 -0.00004000
vt 0.06538000 -0.00004000
vt 0.06538000 -0.00004000
vt 0.06547100 0.01139100
vt 0.06547100 0.01139100
vt 0.06547100 0.01139100
vt 0.07039000 0.00570700
vt 0.07039000 0.00570700
vt 0.07039000 0.00570700
vt 0.05254800 -0.00001100
vt 0.05254800 -0.00001100
vt 0.05254800 -0.00001100
vt 0.05254800 -0.00001100
vt 0.05252800 0.01142500
vt 0.05252800 0.01142500
vt 0.05252800 0.01142500
vt 0.06503800 0.01144600
vt 0.06503800 0.01144600
vt 0.06503800 0.01144600
vt 0.03982300 -0.00000500
vt 0.03982300 -0.00000500
vt 0.03982300 -0.00000500
vt 0.03982300 -0.00000500
vt 0.03979000 0.01144500
vt 0.03979000 0.01144500
vt 0.03979000 0.01144500
vt 0.05231900 0.00002400
vt 0.05231900 0.00002400
vt 0.05231900 0.00002400
vt 0.03985000 0.01143700
vt 0.03985000 0.01143700
vt 0.03985000 0.01143700
vt 0.03984500 -0.00001000
vt 0.03984500 -0.00001000
vt 0.03984500 -0.00001000
vt 0.03473500 -0.00000800
vt 0.03473500 -0.00000800
vt 0.03473500 -0.00000800
vt 0.02634500 0.01145000
vt 0.02634500 0.01145000
vt 0.02634500 0.01145000
vt 0.02634500 0.01145000
vt 0.03480700 0.00000500
vt 0.03480700 0.00000500
vt 0.03480700 0.00000500
vt 0.03480700 0.00000500
vt 0.02627700 0.00000000
vt 0.02627700 0.00000000
vt 0.02627700 0.00000000
vt 0.03475100 0.01144600
vt 0.03475100 0.01144600
vt 0.03475100 0.01144600
vt 0.01783000 -0.00000900
vt 0.01783000 -0.00000900
vt 0.01783000 -0.00000900
vt 0.01783000 -0.00000900
vt 0.02626900 0.01144000
vt 0.02626900 0.01144000
vt 0.02626900 0.01144000
vt 0.02626900 0.01144000
vt 0.02627700 0.00000000
vt 0.02627700 0.00000000
vt 0.02627700 0.00000000
vt 0.01785300 0.01144200
vt 0.01785300 0.01144200
vt 0.01785300 0.01144200
vt 0.01274700 -0.00002200
vt 0.01274700 -0.00002200
vt 0.01274700 -0.00002200
vt 0.01275400 0.01141700
vt 0.01275400 0.01141700
vt 0.01275400 0.01141700
vt 0.01782500 0.01143700
vt 0.01782500 0.01143700
vt 0.01782500 0.01143700
vt 0.01782000 -0.00001200
vt 0.01782000 -0.00001200
vt 0.01782000 -0.00001200
vt 0.01258600 0.01143600
vt 0.01258600 0.01143600
vt 0.01258600 0.01143600
vt 0.01258600 0.01143600
vt 0.10512900 -0.00000000
vt 0.10512900 -0.00000000
vt 0.10512900 -0.00000000
vt 0.10512900 -0.00000000
vt 0.06516100 -0.00001900
vt 0.06516100 -0.00001900
vt 0.06516100 -0.00001900
vt 0.05232500 0.01144700
vt 0.05232500 0.01144700
vt 0.05232500 0.01144700
vt 0.05232500 0.01144700
vt 0.03475100 0.01144600
vt 0.03475100 0.01144600
vt 0.03475100 0.01144600
vt 0.98224500 0.98378300
vt 0.98224500 0.98378300
vt 0.98224500 0.98378300
vt 0.96704100 0.97994400
vt 0.96764200 0.97342100
vt 0.97701300 0.98703200
vt 0.97701300 0.98703200
vt 0.98244500 0.99053500
vt 0.98244500 0.99053500
vt 0.98244500 0.99053500
vt 0.98788200 0.98703500
vt 0.98788200 0.98703500
vt 0.96575100 0.99325900
vt 0.96508300 1.00003200
vt 0.99743800 0.97354300
vt 0.99784900 0.97995700
vt 0.99914900 0.99327200
vt 0.99981400 1.00004600
vt 0.98215700 0.98374300
vt 0.98215700 0.98374300
vt 0.98215700 0.98374300
vt 0.96707900 0.97990300
vt 0.97695500 0.98703900
vt 0.97695500 0.98703900
vt 0.96763200 0.97341500
vt 0.98244500 0.99053100
vt 0.98244500 0.99053100
vt 0.98244500 0.99053100
vt 0.98788200 0.98703500
vt 0.98788200 0.98703500
vt 0.96573100 0.99326400
vt 0.96511900 1.00002000
vt 0.99733100 0.97365900
vt 0.99786600 0.97995400
vt 0.99916200 0.99327200
vt 0.99978300 1.00003600
vt -0.00001900 -0.00000000
vt -0.00001900 -0.00000000
vt -0.00001900 -0.00000000
vt -0.00001900 -0.00000000
vt -0.00003500 0.01145100
vt -0.00003500 0.01145100
vt -0.00003500 0.01145100
vt 0.01257400 0.00000700
vt 0.01257400 0.00000700
vt 0.01257400 0.00000700
vt 0.09244600 0.00000300
vt 0.09244600 0.00000300
vt 0.09244600 0.00000300
vt 0.09247600 0.01143600
vt 0.09247600 0.01143600
vt 0.09247600 0.01143600
vt 0.09247600 0.01143600
vt 0.10512700 0.01145100
vt 0.10512700 0.01145100
vt 0.10512700 0.01145100
vt 0.08730700 0.01143700
vt 0.08730700 0.01143700
vt 0.08730700 0.01143700
vt 0.09239100 -0.00002700
vt 0.09239100 -0.00002700
vt 0.09239100 -0.00002700
vt 0.08731800 -0.00001400
vt 0.08731800 -0.00001400
vt 0.08731800 -0.00001400
vt 0.08731800 -0.00001400
vt 0.09238500 0.01141600
vt 0.09238500 0.01141600
vt 0.09238500 0.01141600
vt 0.09238500 0.01141600
vt 0.07885900 0.01144300
vt 0.07885900 0.01144300
vt 0.07885900 0.01144300
vt 0.07885900 0.01144300
vt 0.08728900 -0.00000400
vt 0.08728900 -0.00000400
vt 0.08728900 -0.00000400
vt 0.08728900 -0.00000400
vt 0.07885600 0.00000000
vt 0.07885600 0.00000000
vt 0.07885600 0.00000000
vt 0.08727800 0.01144200
vt 0.08727800 0.01144200
vt 0.08727800 0.01144200
vt 0.07885500 0.01144300
vt 0.07885500 0.01144300
vt 0.07885500 0.01144300
vt 0.07885600 0.00000000
vt 0.07885600 0.00000000
vt 0.07885600 0.00000000
vt 0.07030800 0.00571500
vt 0.07030800 0.00571500
vt 0.07030800 0.00571500
vt 0.06538000 -0.00004000
vt 0.06538000 -0.00004000
vt 0.06538000 -0.00004000
vt 0.06547100 0.01139100
vt 0.06547100 0.01139100
vt 0.06547100 0.01139100
vt 0.07039000 0.00570700
vt 0.07039000 0.00570700
vt 0.07039000 0.00570700
vt 0.05254800 -0.00001100
vt 0.05254800 -0.00001100
vt 0.05254800 -0.00001100
vt 0.05254800 -0.00001100
vt 0.05252800 0.01142500
vt 0.05252800 0.01142500
vt 0.05252800 0.01142500
vt 0.06503800 0.01144600
vt 0.06503800 0.01144600
vt 0.06503800 0.01144600
vt 0.06503800 0.01144600
vt 0.03982300 -0.00000500
vt 0.03982300 -0.00000500
vt 0.03982300 -0.00000500
vt 0.03982300 -0.00000500
vt 0.03979000 0.01144500
vt 0.03979000 0.01144500
vt 0.03979000 0.01144500
vt 0.05231900 0.00002400
vt 0.05231900 0.00002400
vt 0.05231900 0.00002400
vt 0.03985000 0.01143700
vt 0.03985000 0.01143700
vt 0.03985000 0.01143700
vt 0.03984500 -0.00001000
vt 0.03984500 -0.00001000
vt 0.03984500 -0.00001000
vt 0.03984500 -0.00001000
vt 0.03473500 -0.00000800
vt 0.03473500 -0.00000800
vt 0.03473500 -0.00000800
vt 0.02634500 0.01145000
vt 0.02634500 0.01145000
vt 0.02634500 0.01145000
vt 0.02634500 0.01145000
vt 0.03480700 0.00000500
vt 0.03480700 0.00000500
vt 0.03480700 0.00000500
vt 0.03480700 0.00000500
vt 0.02627700 0.00000000
vt 0.02627700 0.00000000
vt 0.02627700 0.00000000
vt 0.03475100 0.01144600
vt 0.03475100 0.01144600
vt 0.03475100 0.01144600
vt 0.01783000 -0.00000900
vt 0.01783000 -0.00000900
vt 0.01783000 -0.00000900
vt 0.01783000 -0.00000900
vt 0.02626900 0.01144000
vt 0.02626900 0.01144000
vt 0.02626900 0.01144000
vt 0.02626900 0.01144000
vt 0.02627700 0.00000000
vt 0.02627700 0.00000000
vt 0.02627700 0.00000000
vt 0.01785300 0.01144200
vt 0.01785300 0.01144200
vt 0.01785300 0.01144200
vt 0.01274700 -0.00002200
vt 0.01274700 -0.00002200
vt 0.01274700 -0.00002200
vt 0.01275400 0.01141700
vt 0.01275400 0.01141700
vt 0.01275400 0.01141700
vt 0.01275400 0.01141700
vt 0.01782500 0.01143700
vt 0.01782500 0.01143700
vt 0.01782500 0.01143700
vt 0.01782000 -0.00001200
vt 0.01782000 -0.00001200
vt 0.01782000 -0.00001200
vt 0.01782000 -0.00001200
vt 0.01258600 0.01143600
vt 0.01258600 0.01143600
vt 0.01258600 0.01143600
vt 0.01258600 0.01143600
vt 0.10512900 -0.00000000
vt 0.10512900 -0.00000000
vt 0.10512900 -0.00000000
vt 0.10512900 -0.00000000
vt 0.06516100 -0.00001900
vt 0.06516100 -0.00001900
vt 0.06516100 -0.00001900
vt 0.05232500 0.01144700
vt 0.05232500 0.01144700
vt 0.05232500 0.01144700
vt 0.05232500 0.01144700
vt 0.03475100 0.01144600
vt 0.03475100 0.01144600
vt 0.03475100 0.01144600
vt 0.03475100 0.01144600
f 1/1/1 4/4/4 5/5/5
f 1/1/1 6/6/6 4/4/4
f 2/2/2 11/11/11 8/8/8
f 13/13/13 6/6/6 10/10/10
f 10/10/10 14/14/14 13/13/13
f 12/12/12 1/1/1 15/15/15
f 15/15/15 16/16/16 12/12/12
f 10/10/10 12/12/12 17/17/17
f 10/10/10 17/17/17 18/18/18
f 20/20/20 22/22/22 23/23/23
f 20/20/20 25/25/25 22/22/22
f 26/26/26 28/28/28 19/19/19
f 30/30/30 27/27/27 23/23/23
f 27/27/27 30/30/30 31/31/31
f 29/29/29 32/32/32 20/20/20
f 32/32/32 29/29/29 33/33/33
f 27/27/27 34/34/34 29/29/29
f 27/27/27 35/35/35 34/34/34
f 39/39/39 170/170/170 36/36/36
f 53/53/53 176/176/176 49/49/49
f 57/57/57 65/65/65 64/64/64
f 70/70/70 79/79/79 73/73/73
f 82/82/82 87/87/87 89/89/89
f 91/91/91 96/96/96 97/97/97
f 108/108/108 179/179/179 103/103/103
f 116/116/116 183/183/183 111/111/111
f 128/128/128 184/184/184 125/125/125
f 131/131/131 140/140/140 133/133/133
f 145/145/145 155/155/155 147/147/147
f 163/163/163 167/167/167 161/161/161
f 3/3/3 9/9/9 7/7/7
f 26/26/26 21/21/21 24/24/24
f 172/172/172 42/42/42 36/36/36
f 173/173/173 47/47/47 51/51/51
f 65/65/65 60/60/60 61/61/61
f 71/71/71 72/72/72 76/76/76
f 108/108/108 101/101/101 104/104/104
f 180/180/180 117/117/117 110/110/110
f 184/184/184 122/122/122 125/125/125
f 132/132/132 134/134/134 138/138/138
f 143/143/143 150/150/150 151/151/151
f 167/167/167 158/158/158 161/161/161
f 188/188/188 191/191/191 190/190/190
f 188/188/188 190/190/190 193/193/193
f 189/189/189 195/195/195 197/197/197
f 199/199/199 194/194/194 193/193/193
f 194/194/194 199/199/199 200/200/200
f 198/198/198 201/201/201 188/188/188
f 201/201/201 198/198/198 202/202/202
f 194/194/194 203/203/203 198/198/198
f 194/194/194 204/204/204 203/203/203
f 206/206/206 209/209/209 208/208/208
f 206/206/206 208/208/208 211/211/211
f 213/213/213 205/205/205 215/215/215
f 217/217/217 209/209/209 214/214/214
f 214/214/214 218/218/218 217/217/217
f 216/216/216 206/206/206 219/219/219
f 219/219/219 220/220/220 216/216/216
f 214/214/214 216/216/216 221/221/221
f 214/214/214 221/221/221 222/222/222
f 228/228/228 223/223/223 363/363/363
f 241/241/241 239/239/239 367/367/367
f 243/243/243 252/252/252 255/255/255
f 258/258/258 263/263/263 268/268/268
f 272/272/272 278/278/278 276/276/276
f 280/280/280 287/287/287 283/283/283
f 296/296/296 290/290/290 372/372/372
f 304/304/304 303/303/303 376/376/376
f 317/317/317 316/316/316 378/378/378
f 323/323/323 327/327/327 331/331/331
f 334/334/334 340/340/340 346/346/346
f 356/356/356 353/353/353 360/360/360
f 187/187/187 192/192/192 196/196/196
f 212/212/212 210/210/210 207/207/207
f 364/364/364 224/224/224 230/230/230
f 369/369/369 236/236/236 235/235/235
f 253/253/253 251/251/251 248/248/248
f 260/260/260 267/267/267 261/261/261
f 298/298/298 293/293/293 289/289/289
f 373/373/373 301/301/301 308/308/308
f 379/379/379 315/315/315 311/311/311
f 320/320/320 329/329/329 326/326/326
f 335/335/335 344/344/344 338/338/338
f 361/361/361 354/354/354 349/349/349
f 1/1/1 5/5/5 191/191/191
f 191/191/191 188/188/188 1/1/1
f 14/14/14 10/10/10 194/194/194
f 194/194/194 200/200/200 14/14/14
f 16/16/16 15/15/15 201/201/201
f 201/201/201 202/202/202 16/16/16
f 10/10/10 18/18/18 204/204/204
f 204/204/204 194/194/194 10/10/10
f 25/25/25 20/20/20 206/206/206
f 206/206/206 211/211/211 25/25/25
f 30/30/30 23/23/23 209/209/209
f 209/209/209 217/217/217 30/30/30
f 5/5/5 4/4/4 190/190/190
f 190/190/190 191/191/191 5/5/5
f 32/32/32 33/33/33 220/220/220
f 220/220/220 219/219/219 32/32/32
f 35/35/35 27/27/27 214/214/214
f 214/214/214 222/222/222 35/35/35
f 4/4/4 6/6/6 193/193/193
f 193/193/193 190/190/190 4/4/4
f 41/41/41 37/37/37 226/226/226
f 226/226/226 229/229/229 41/41/41
f 38/38/38 44/44/44 231/231/231
f 231/231/231 225/225/225 38/38/38
f 50/50/50 46/46/46 234/234/234
f 234/234/234 238/238/238 50/50/50
f 54/54/54 48/48/48 237/237/237
f 237/237/237 240/240/240 54/54/54
f 56/56/56 62/62/62 250/250/250
f 250/250/250 245/245/245 56/56/56
f 67/67/67 55/55/55 244/244/244
f 244/244/244 256/256/256 67/67/67
f 34/34/34 35/35/35 222/222/222
f 222/222/222 221/221/221 34/34/34
f 81/81/81 68/68/68 259/259/259
f 259/259/259 269/269/269 81/81/81
f 85/85/85 83/83/83 271/271/271
f 271/271/271 274/274/274 85/85/85
f 84/84/84 90/90/90 279/279/279
f 279/279/279 273/273/273 84/84/84
f 15/15/15 1/1/1 188/188/188
f 188/188/188 201/201/201 15/15/15
f 94/94/94 93/93/93 281/281/281
f 281/281/281 284/284/284 94/94/94
f 92/92/92 98/98/98 288/288/288
f 288/288/288 282/282/282 92/92/92
f 115/115/115 112/112/112 302/302/302
f 302/302/302 305/305/305 115/115/115
f 113/113/113 118/118/118 307/307/307
f 307/307/307 300/300/300 113/113/113
f 127/127/127 123/123/123 313/313/313
f 313/313/313 319/319/319 127/127/127
f 6/6/6 13/13/13 199/199/199
f 199/199/199 193/193/193 6/6/6
f 141/141/141 130/130/130 321/321/321
f 321/321/321 333/333/333 141/141/141
f 144/144/144 153/153/153 342/342/342
f 342/342/342 336/336/336 144/144/144
f 154/154/154 146/146/146 337/337/337
f 337/337/337 345/345/345 154/154/154
f 160/160/160 159/159/159 348/348/348
f 348/348/348 351/351/351 160/160/160
f 164/164/164 162/162/162 352/352/352
f 352/352/352 357/357/357 164/164/164
f 168/168/168 165/165/165 355/355/355
f 355/355/355 358/358/358 168/168/168
f 169/169/169 40/40/40 227/227/227
f 227/227/227 365/365/365 169/169/169
f 175/175/175 52/52/52 242/242/242
f 242/242/242 366/366/366 175/175/175
f 178/178/178 107/107/107 297/297/297
f 297/297/297 370/370/370 178/178/178
f 182/182/182 114/114/114 306/306/306
f 306/306/306 375/375/375 182/182/182
f 185/185/185 126/126/126 318/318/318
f 318/318/318 377/377/377 185/185/185
f 109/109/109 106/106/106 294/294/294
f 294/294/294 299/299/299 109/109/109
f 13/13/13 14/14/14 200/200/200
f 200/200/200 199/199/199 13/13/13
f 12/12/12 16/16/16 202/202/202
f 202/202/202 198/198/198 12/12/12
f 17/17/17 12/12/12 198/198/198
f 198/198/198 203/203/203 17/17/17
f 88/88/88 86/86/86 275/275/275
f 275/275/275 277/277/277 88/88/88
f 43/43/43 171/171/171 362/362/362
f 362/362/362 232/232/232 43/43/43
f 157/157/157 166/166/166 359/359/359
f 359/359/359 350/350/350 157/157/157
f 18/18/18 17/17/17 203/203/203
f 203/203/203 204/204/204 18/18/18
f 124/124/124 120/120/120 312/312/312
f 312/312/312 314/314/314 124/124/124
f 63/63/63 59/59/59 246/246/246
f 246/246/246 249/249/249 63/63/63
f 58/58/58 66/66/66 254/254/254
f 254/254/254 247/247/247 58/58/58
f 121/121/121 186/186/186 380/380/380
f 380/380/380 310/310/310 121/121/121
f 23/23/23 22/22/22 208/208/208
f 208/208/208 209/209/209 23/23/23
f 100/100/100 177/177/177 371/371/371
f 371/371/371 292/292/292 100/100/100
f 22/22/22 25/25/25 211/211/211
f 211/211/211 208/208/208 22/22/22
f 129/129/129 137/137/137 330/330/330
f 330/330/330 322/322/322 129/129/129
f 45/45/45 174/174/174 368/368/368
f 368/368/368 233/233/233 45/45/45
f 20/20/20 32/32/32 219/219/219
f 219/219/219 206/206/206 20/20/20
f 69/69/69 77/77/77 266/266/266
f 266/266/266 257/257/257 69/69/69
f 105/105/105 102/102/102 291/291/291
f 291/291/291 295/295/295 105/105/105
f 136/136/136 142/142/142 332/332/332
f 332/332/332 324/324/324 136/136/136
f 78/78/78 75/75/75 262/262/262
f 262/262/262 265/265/265 78/78/78
f 74/74/74 80/80/80 270/270/270
f 270/270/270 264/264/264 74/74/74
f 99/99/99 95/95/95 285/285/285
f 285/285/285 286/286/286 99/99/99
f 119/119/119 181/181/181 374/374/374
f 374/374/374 309/309/309 119/119/119
f 27/27/27 31/31/31 218/218/218
f 218/218/218 214/214/214 27/27/27
f 139/139/139 135/135/135 325/325/325
f 325/325/325 328/328/328 139/139/139
f 31/31/31 30/30/30 217/217/217
f 217/217/217 218/218/218 31/31/31
f 33/33/33 29/29/29 216/216/216
f 216/216/216 220/220/220 33/33/33
f 29/29/29 34/34/34 221/221/221
f 221/221/221 216/216/216 29/29/29
f 152/152/152 148/148/148 339/339/339
f 339/339/339 343/343/343 152/152/152
f 149/149/149 156/156/156 347/347/347
f 347/347/347 341/341/341 149/149/149

