mtllib material.mtl
usemtl Material-塑胶__3_
v 0.03101900 0.01975700 -0.00095200
v 0.03101900 0.01975700 -0.00095200
v 0.03016900 0.01968400 -0.00213100
v 0.03101900 0.01976300 -0.00213200
v 0.03059200 0.01971600 -0.00008900
v 0.03059200 0.01971600 -0.00008900
v 0.03059200 0.01971600 -0.00008900
v 0.03016900 0.01967900 -0.00072100
v 0.03016900 0.01967900 -0.00072100
v 0.02962500 0.01962900 0.00025800
v 0.02962500 0.01962900 0.00025800
v 0.02843400 0.01952700 0.00008900
v 0.02891100 0.01956800 -0.00069400
v 0.02891100 0.01956800 -0.00069400
v 0.02891100 0.01956800 -0.00069400
v 0.02831800 0.01952100 -0.00148300
v 0.02831800 0.01952100 -0.00148300
v 0.02733500 0.01944100 -0.00155500
v 0.02733500 0.01944100 -0.00155500
v 0.02733500 0.01944100 -0.00155500
v 0.02783200 0.01948400 -0.00213200
v 0.02761900 0.01946100 -0.00099700
v 0.02677000 0.01939400 -0.00103300
v 0.02677000 0.01939400 -0.00103300
v 0.02677000 0.01939900 -0.00213200
v 0.02791800 0.01948500 -0.00059900
v 0.02737700 0.01944100 -0.00031400
v 0.02737700 0.01944100 -0.00031400
v 0.02677000 0.01939200 -0.00006500
v 0.02677000 0.01939200 -0.00006500
v 0.02761900 0.01946000 0.00016500
v 0.02761900 0.01946000 0.00016500
v 0.03016900 0.01968000 0.00098300
v 0.03016900 0.01968000 0.00098300
v 0.03016900 0.01968000 0.00098300
v 0.03101900 0.01975700 0.00097500
v 0.03101900 0.01975700 0.00097500
v 0.03101900 0.01975700 0.00097500
v 0.02945000 0.01961700 0.00144200
v 0.02945000 0.01961700 0.00144200
v 0.02945000 0.01961700 0.00144200
v 0.03101900 0.01976300 0.00211800
v 0.03101900 0.01976300 0.00211800
v 0.03042500 0.01970600 0.00171100
v 0.03042500 0.01970600 0.00171100
v 0.02995700 0.01966600 0.00211800
v 0.02995700 0.01966600 0.00211800
v 0.02896300 0.01957300 0.00079400
v 0.02896300 0.01957300 0.00079400
v 0.02677000 0.01939300 0.00051000
v 0.02677000 0.01939500 0.00124900
v 0.02677000 0.01939500 0.00124900
v 0.02761900 0.01946100 0.00082400
v 0.02761900 0.01946300 0.00147000
v 0.02677000 0.01939900 0.00211800
v 0.02677000 0.01939900 0.00211800
v 0.02761900 0.01946600 0.00211800
v 0.03095400 0.02045500 -0.00115400
v 0.03095400 0.02045500 -0.00115400
v 0.03095400 0.02046000 -0.00212700
v 0.03010600 0.02038100 -0.00212700
v 0.03010600 0.02038100 -0.00212700
v 0.03054000 0.02041500 -0.00005700
v 0.03054000 0.02041500 -0.00005700
v 0.03095400 0.02045300 -0.00008700
v 0.03010600 0.02037600 -0.00071200
v 0.02953700 0.02032400 0.00022200
v 0.02885100 0.02026600 -0.00069300
v 0.02885100 0.02026600 -0.00069300
v 0.02885100 0.02026600 -0.00069300
v 0.02837600 0.02022500 0.00008900
v 0.02837600 0.02022500 0.00008900
v 0.02827600 0.02021900 -0.00145900
v 0.02827600 0.02021900 -0.00145900
v 0.02827600 0.02021900 -0.00145900
v 0.02777500 0.02018100 -0.00212700
v 0.02777500 0.02018100 -0.00212700
v 0.02727900 0.02013800 -0.00155200
v 0.02727900 0.02013800 -0.00155200
v 0.02727900 0.02013800 -0.00155200
v 0.02671500 0.02009600 -0.00212700
v 0.02756300 0.02015900 -0.00099400
v 0.02671500 0.02009200 -0.00103100
v 0.02671500 0.02009200 -0.00103100
v 0.02786000 0.02018200 -0.00059800
v 0.02786000 0.02018200 -0.00059800
v 0.02732100 0.02013800 -0.00031400
v 0.02732100 0.02013800 -0.00031400
v 0.02671500 0.02009000 -0.00007700
v 0.02671500 0.02009000 -0.00007700
v 0.02756300 0.02015700 0.00015900
v 0.02756300 0.02015700 0.00015900
v 0.03095400 0.02045500 0.00100600
v 0.03095400 0.02045500 0.00100600
v 0.03010600 0.02037700 0.00098100
v 0.03010600 0.02037700 0.00098100
v 0.03010600 0.02037700 0.00098100
v 0.02938900 0.02031500 0.00144000
v 0.02938900 0.02031500 0.00144000
v 0.03095400 0.02046000 0.00211300
v 0.03095400 0.02046000 0.00211300
v 0.03036200 0.02040300 0.00170700
v 0.02989400 0.02036300 0.00211300
v 0.02989400 0.02036300 0.00211300
v 0.02882200 0.02026300 0.00068400
v 0.02882200 0.02026300 0.00068400
v 0.02671500 0.02009100 0.00051100
v 0.02671500 0.02009100 0.00051100
v 0.02671500 0.02009100 0.00051100
v 0.02671500 0.02009200 0.00124700
v 0.02756300 0.02015800 0.00082700
v 0.02756300 0.02015800 0.00082700
v 0.02756300 0.02016100 0.00146300
v 0.02756300 0.02016100 0.00146300
v 0.02671500 0.02009700 0.00211300
v 0.02671500 0.02009700 0.00211300
v 0.02756300 0.02016400 0.00211300
v 0.02671500 0.02009600 -0.00212700
v 0.02671500 0.02009600 -0.00212700
v 0.02783200 0.01948400 -0.00213200
v 0.02783200 0.01948400 -0.00213200
v 0.02677000 0.01939900 -0.00213200
v 0.02777500 0.02018100 -0.00212700
v 0.02671500 0.02009000 -0.00007700
v 0.02671500 0.02009000 -0.00007700
v 0.02671500 0.02009000 -0.00007700
v 0.02671500 0.02009000 -0.00007700
v 0.02677000 0.01939200 -0.00006500
v 0.02677000 0.01939200 -0.00006500
v 0.02677000 0.01939200 -0.00006500
v 0.02671500 0.02009100 0.00051100
v 0.02671500 0.02009100 0.00051100
v 0.02671500 0.02009100 0.00051100
v 0.02671500 0.02009100 0.00051100
v 0.02671500 0.02009100 0.00051100
v 0.02677000 0.01939300 0.00051000
v 0.02677000 0.01939300 0.00051000
v 0.02677000 0.01939500 0.00124900
v 0.02677000 0.01939500 0.00124900
v 0.02677000 0.01939900 0.00211800
v 0.02677000 0.01939900 0.00211800
v 0.02677000 0.01939900 0.00211800
v 0.02671500 0.02009700 0.00211300
v 0.02671500 0.02009200 0.00124700
v 0.02671500 0.02009200 0.00124700
v 0.02677000 0.01939400 -0.00103300
v 0.02677000 0.01939400 -0.00103300
v 0.02671500 0.02009200 -0.00103100
v 0.02671500 0.02009200 -0.00103100
v 0.02677000 0.01939900 -0.00213200
v 0.02677000 0.01939900 -0.00213200
v 0.02677000 0.01939900 -0.00213200
v 0.02761900 0.01946600 0.00211800
v 0.02756300 0.02016400 0.00211300
v 0.02756300 0.02016400 0.00211300
v 0.02671500 0.02009700 0.00211300
v 0.02677000 0.01939900 0.00211800
v 0.02677000 0.01939900 0.00211800
v 0.02756300 0.02015700 0.00015900
v 0.02756300 0.02015700 0.00015900
v 0.02756300 0.02015700 0.00015900
v 0.02761900 0.01946000 0.00016500
v 0.02761900 0.01946000 0.00016500
v 0.02761900 0.01946000 0.00016500
v 0.02761900 0.01946100 -0.00099700
v 0.02761900 0.01946100 -0.00099700
v 0.02761900 0.01946100 0.00082400
v 0.02761900 0.01946100 0.00082400
v 0.02756300 0.02015900 -0.00099400
v 0.02756300 0.02015800 0.00082700
v 0.02756300 0.02015800 0.00082700
v 0.02756300 0.02015800 0.00082700
v 0.02756300 0.02016100 0.00146300
v 0.02761900 0.01946300 0.00147000
v 0.02761900 0.01946300 0.00147000
v 0.02761900 0.01946300 0.00147000
v 0.02761900 0.01946600 0.00211800
v 0.02756300 0.02016400 0.00211300
v 0.02756300 0.02016400 0.00211300
v 0.02945000 0.01961700 0.00144200
v 0.02945000 0.01961700 0.00144200
v 0.02938900 0.02031500 0.00144000
v 0.02938900 0.02031500 0.00144000
v 0.02938900 0.02031500 0.00144000
v 0.02938900 0.02031500 0.00144000
v 0.02896300 0.01957300 0.00079400
v 0.02896300 0.01957300 0.00079400
v 0.02989400 0.02036300 0.00211300
v 0.02995700 0.01966600 0.00211800
v 0.02995700 0.01966600 0.00211800
v 0.02882200 0.02026300 0.00068400
v 0.02882200 0.02026300 0.00068400
v 0.02843400 0.01952700 0.00008900
v 0.02843400 0.01952700 0.00008900
v 0.02837600 0.02022500 0.00008900
v 0.02837600 0.02022500 0.00008900
v 0.02791800 0.01948500 -0.00059900
v 0.02791800 0.01948500 -0.00059900
v 0.02791800 0.01948500 -0.00059900
v 0.02786000 0.02018200 -0.00059800
v 0.02786000 0.02018200 -0.00059800
v 0.02761900 0.01946100 -0.00099700
v 0.02761900 0.01946100 -0.00099700
v 0.03101900 0.01976300 0.00211800
v 0.03095400 0.02046000 0.00211300
v 0.03095400 0.02046000 0.00211300
v 0.02995700 0.01966600 0.00211800
v 0.02995700 0.01966600 0.00211800
v 0.02989400 0.02036300 0.00211300
v 0.03095400 0.02045500 -0.00115400
v 0.03095400 0.02045500 -0.00115400
v 0.03101900 0.01975700 -0.00095200
v 0.03101900 0.01975700 -0.00095200
v 0.03101900 0.01975700 -0.00095200
v 0.03101900 0.01976300 -0.00213200
v 0.03095400 0.02046000 -0.00212700
v 0.03095400 0.02045300 -0.00008700
v 0.03095400 0.02045300 -0.00008700
v 0.03095400 0.02045300 -0.00008700
v 0.03101900 0.01976300 0.00211800
v 0.03101900 0.01975700 0.00097500
v 0.03101900 0.01975700 0.00097500
v 0.03095400 0.02046000 0.00211300
v 0.03095400 0.02045500 0.00100600
v 0.03010600 0.02038100 -0.00212700
v 0.03010600 0.02038100 -0.00212700
v 0.03101900 0.01976300 -0.00213200
v 0.03101900 0.01976300 -0.00213200
v 0.03016900 0.01968400 -0.00213100
v 0.03095400 0.02046000 -0.00212700
v 0.03016900 0.01968000 0.00098300
v 0.03016900 0.01968000 0.00098300
v 0.03010600 0.02037700 0.00098100
v 0.03010600 0.02037600 -0.00071200
v 0.03010600 0.02037600 -0.00071200
v 0.03010600 0.02037600 -0.00071200
v 0.03016900 0.01967900 -0.00072100
v 0.03016900 0.01967900 -0.00072100
v 0.03016900 0.01967900 -0.00072100
v 0.03016900 0.01968400 -0.00213100
v 0.02777500 0.02018100 -0.00212700
v 0.02777500 0.02018100 -0.00212700
v 0.02831800 0.01952100 -0.00148300
v 0.02831800 0.01952100 -0.00148300
v 0.02831800 0.01952100 -0.00148300
v 0.02783200 0.01948400 -0.00213200
v 0.02827600 0.02021900 -0.00145900
v 0.02827600 0.02021900 -0.00145900
v 0.02827600 0.02021900 -0.00145900
v 0.02885100 0.02026600 -0.00069300
v 0.02885100 0.02026600 -0.00069300
v 0.02891100 0.01956800 -0.00069400
v 0.02891100 0.01956800 -0.00069400
v 0.02891100 0.01956800 -0.00069400
v 0.02891100 0.01956800 -0.00069400
v 0.02953700 0.02032400 0.00022200
v 0.02953700 0.02032400 0.00022200
v 0.02953700 0.02032400 0.00022200
v 0.02962500 0.01962900 0.00025800
v 0.02962500 0.01962900 0.00025800
v 0.02962500 0.01962900 0.00025800
v 0.03010600 0.02037700 0.00098100
v 0.03010600 0.02037700 0.00098100
v 0.02671500 0.02009600 -0.00212700
v 0.02756300 0.02015900 -0.00099400
v 0.03010600 0.02038100 -0.00212700
v 0.03010600 0.02038100 -0.00212700
v 0.03016900 0.01968000 0.00098300
vn 0.09290000 -0.99570000 -0.00280000
vn 0.09290000 -0.99570000 -0.00290000
vn 0.08990000 -0.99590000 -0.00640000
vn 0.09290000 -0.99570000 -0.00640000
vn 0.09130000 -0.99580000 -0.00030000
vn 0.09130000 -0.99580000 -0.00020000
vn 0.09140000 -0.99580000 -0.00030000
vn 0.08990000 -0.99590000 -0.00220000
vn 0.08980000 -0.99600000 -0.00210000
vn 0.08790000 -0.99610000 0.00080000
vn 0.08790000 -0.99610000 0.00090000
vn 0.08370000 -0.99650000 0.00030000
vn 0.08540000 -0.99630000 -0.00200000
vn 0.08540000 -0.99630000 -0.00190000
vn 0.08530000 -0.99630000 -0.00200000
vn 0.08340000 -0.99650000 -0.00440000
vn 0.08330000 -0.99650000 -0.00440000
vn 0.07980000 -0.99680000 -0.00460000
vn 0.07990000 -0.99680000 -0.00450000
vn 0.07980000 -0.99680000 -0.00450000
vn 0.08160000 -0.99660000 -0.00620000
vn 0.08080000 -0.99670000 -0.00290000
vn 0.07770000 -0.99700000 -0.00300000
vn 0.07780000 -0.99700000 -0.00300000
vn 0.07780000 -0.99690000 -0.00620000
vn 0.08190000 -0.99660000 -0.00180000
vn 0.07990000 -0.99680000 -0.00090000
vn 0.08000000 -0.99680000 -0.00090000
vn 0.07780000 -0.99700000 -0.00020000
vn 0.07770000 -0.99700000 -0.00020000
vn 0.08080000 -0.99670000 0.00040000
vn 0.08080000 -0.99670000 0.00050000
vn 0.08980000 -0.99600000 0.00300000
vn 0.08980000 -0.99600000 0.00290000
vn 0.08990000 -0.99590000 0.00290000
vn 0.09290000 -0.99570000 0.00300000
vn 0.09280000 -0.99570000 0.00290000
vn 0.09290000 -0.99570000 0.00290000
vn 0.08730000 -0.99620000 0.00430000
vn 0.08730000 -0.99620000 0.00420000
vn 0.08740000 -0.99620000 0.00430000
vn 0.09280000 -0.99570000 0.00630000
vn 0.09290000 -0.99570000 0.00630000
vn 0.09080000 -0.99590000 0.00520000
vn 0.09080000 -0.99590000 0.00510000
vn 0.08930000 -0.99600000 0.00630000
vn 0.08910000 -0.99600000 0.00630000
vn 0.08560000 -0.99630000 0.00230000
vn 0.08570000 -0.99630000 0.00240000
vn 0.07780000 -0.99700000 0.00150000
vn 0.07780000 -0.99700000 0.00370000
vn 0.07780000 -0.99700000 0.00360000
vn 0.08080000 -0.99670000 0.00240000
vn 0.08080000 -0.99670000 0.00430000
vn 0.07780000 -0.99690000 0.00610000
vn 0.07790000 -0.99690000 0.00610000
vn 0.08080000 -0.99670000 0.00620000
vn -0.09280000 0.99570000 0.00350000
vn -0.09290000 0.99570000 0.00350000
vn -0.09290000 0.99570000 0.00640000
vn -0.08990000 0.99590000 0.00640000
vn -0.08990000 0.99590000 0.00630000
vn -0.09140000 0.99580000 0.00010000
vn -0.09140000 0.99580000 0.00020000
vn -0.09290000 0.99570000 0.00030000
vn -0.08990000 0.99600000 0.00210000
vn -0.08780000 0.99610000 -0.00070000
vn -0.08540000 0.99630000 0.00210000
vn -0.08540000 0.99630000 0.00200000
vn -0.08530000 0.99640000 0.00200000
vn -0.08370000 0.99650000 -0.00020000
vn -0.08370000 0.99650000 -0.00030000
vn -0.08320000 0.99650000 0.00430000
vn -0.08340000 0.99650000 0.00420000
vn -0.08330000 0.99650000 0.00430000
vn -0.08150000 0.99670000 0.00620000
vn -0.08160000 0.99660000 0.00620000
vn -0.07990000 0.99680000 0.00450000
vn -0.07980000 0.99680000 0.00450000
vn -0.07980000 0.99680000 0.00460000
vn -0.07780000 0.99690000 0.00620000
vn -0.08080000 0.99670000 0.00290000
vn -0.07790000 0.99700000 0.00300000
vn -0.07780000 0.99700000 0.00300000
vn -0.08200000 0.99660000 0.00170000
vn -0.08190000 0.99660000 0.00180000
vn -0.07980000 0.99680000 0.00080000
vn -0.07990000 0.99680000 0.00090000
vn -0.07780000 0.99700000 0.00020000
vn -0.07790000 0.99700000 0.00020000
vn -0.08070000 0.99670000 -0.00050000
vn -0.08080000 0.99670000 -0.00050000
vn -0.09290000 0.99570000 -0.00300000
vn -0.09290000 0.99570000 -0.00310000
vn -0.08980000 0.99600000 -0.00290000
vn -0.08990000 0.99590000 -0.00290000
vn -0.08990000 0.99590000 -0.00300000
vn -0.08730000 0.99620000 -0.00430000
vn -0.08730000 0.99620000 -0.00420000
vn -0.09290000 0.99570000 -0.00630000
vn -0.09290000 0.99570000 -0.00640000
vn -0.09080000 0.99590000 -0.00510000
vn -0.08910000 0.99600000 -0.00630000
vn -0.08920000 0.99600000 -0.00630000
vn -0.08540000 0.99630000 -0.00200000
vn -0.08530000 0.99640000 -0.00200000
vn -0.07780000 0.99700000 -0.00150000
vn -0.07790000 0.99700000 -0.00140000
vn -0.07790000 0.99700000 -0.00150000
vn -0.07780000 0.99700000 -0.00360000
vn -0.08070000 0.99670000 -0.00240000
vn -0.08080000 0.99670000 -0.00240000
vn -0.08070000 0.99670000 -0.00430000
vn -0.08080000 0.99670000 -0.00430000
vn -0.07780000 0.99690000 -0.00610000
vn -0.07790000 0.99690000 -0.00610000
vn -0.08080000 0.99670000 -0.00620000
vn -0.00030000 0.00660000 -1.00000000
vn -0.00060000 0.00600000 -1.00000000
vn -0.00060000 0.00600000 -1.00000000
vn -0.00040000 0.00630000 -1.00000000
vn -0.00060000 0.00600000 -1.00000000
vn -0.00030000 0.00660000 -1.00000000
vn -0.99700000 -0.07780000 0.00010000
vn -0.99700000 -0.07770000 0.00010000
vn -0.99700000 -0.07780000 -0.00010000
vn -0.99700000 -0.07780000 0.00000000
vn -0.99700000 -0.07780000 0.00010000
vn -0.99700000 -0.07780000 0.00000000
vn -0.99700000 -0.07780000 -0.00010000
vn -0.99700000 -0.07800000 0.00020000
vn -0.99700000 -0.07780000 0.00010000
vn -0.99700000 -0.07770000 0.00030000
vn -0.99700000 -0.07780000 0.00020000
vn -0.99700000 -0.07780000 0.00000000
vn -0.99700000 -0.07780000 0.00020000
vn -0.99700000 -0.07780000 0.00000000
vn -0.99700000 -0.07780000 0.00020000
vn -0.99700000 -0.07770000 0.00030000
vn -0.99700000 -0.07780000 0.00030000
vn -0.99700000 -0.07770000 0.00030000
vn -0.99700000 -0.07800000 0.00020000
vn -0.99700000 -0.07780000 0.00030000
vn -0.99700000 -0.07780000 0.00030000
vn -0.99700000 -0.07800000 0.00020000
vn -0.99700000 -0.07760000 -0.00030000
vn -0.99700000 -0.07780000 -0.00010000
vn -0.99700000 -0.07780000 -0.00030000
vn -0.99700000 -0.07780000 -0.00020000
vn -0.99700000 -0.07780000 -0.00030000
vn -0.99700000 -0.07790000 -0.00040000
vn -0.99700000 -0.07760000 -0.00030000
vn -0.00080000 0.00620000 1.00000000
vn -0.00080000 0.00620000 1.00000000
vn -0.00060000 0.00590000 1.00000000
vn -0.00060000 0.00590000 1.00000000
vn -0.00060000 0.00590000 1.00000000
vn -0.00080000 0.00620000 1.00000000
vn 0.99670000 0.08080000 0.00010000
vn 0.99670000 0.08070000 0.00000000
vn 0.99670000 0.08080000 0.00020000
vn 0.99670000 0.08080000 0.00020000
vn 0.99670000 0.08070000 0.00000000
vn 0.99670000 0.08090000 -0.00010000
vn 0.99670000 0.08080000 0.00010000
vn 0.99670000 0.08080000 0.00020000
vn 0.99670000 0.08090000 -0.00030000
vn 0.99670000 0.08090000 -0.00010000
vn 0.99670000 0.08080000 0.00010000
vn 0.99670000 0.08090000 -0.00030000
vn 0.99670000 0.08090000 0.00010000
vn 0.99670000 0.08090000 -0.00010000
vn 0.99670000 0.08080000 -0.00040000
vn 0.99670000 0.08090000 -0.00050000
vn 0.99670000 0.08080000 -0.00040000
vn 0.99670000 0.08090000 -0.00030000
vn 0.99670000 0.08090000 -0.00050000
vn 0.99670000 0.08090000 -0.00050000
vn 0.99670000 0.08080000 -0.00040000
vn -0.79570000 -0.06720000 0.60190000
vn -0.79580000 -0.06720000 0.60180000
vn -0.79570000 -0.06720000 0.60190000
vn -0.79600000 -0.06690000 0.60160000
vn -0.79580000 -0.06730000 0.60180000
vn -0.79580000 -0.06720000 0.60180000
vn -0.79600000 -0.06690000 0.60160000
vn -0.79580000 -0.06720000 0.60180000
vn -0.79580000 -0.06730000 0.60180000
vn -0.79570000 -0.06720000 0.60190000
vn -0.79580000 -0.06730000 0.60180000
vn -0.79600000 -0.06690000 0.60160000
vn -0.79610000 -0.06670000 0.60150000
vn -0.79610000 -0.06670000 0.60150000
vn -0.79600000 -0.06690000 0.60160000
vn -0.79610000 -0.06670000 0.60150000
vn -0.79610000 -0.06680000 0.60140000
vn -0.79620000 -0.06640000 0.60140000
vn -0.79620000 -0.06650000 0.60140000
vn -0.79600000 -0.06640000 0.60160000
vn -0.79620000 -0.06650000 0.60140000
vn -0.79630000 -0.06630000 0.60130000
vn -0.79630000 -0.06630000 0.60130000
vn -0.79620000 -0.06650000 0.60140000
vn -0.00060000 0.00630000 1.00000000
vn -0.00060000 0.00630000 1.00000000
vn -0.00060000 0.00650000 1.00000000
vn -0.00060000 0.00630000 1.00000000
vn -0.00050000 0.00620000 1.00000000
vn -0.00050000 0.00620000 1.00000000
vn 0.99570000 0.09280000 0.00020000
vn 0.99570000 0.09290000 0.00040000
vn 0.99570000 0.09290000 0.00030000
vn 0.99570000 0.09280000 0.00020000
vn 0.99570000 0.09290000 0.00040000
vn 0.99570000 0.09290000 0.00040000
vn 0.99570000 0.09290000 0.00040000
vn 0.99570000 0.09280000 0.00020000
vn 0.99570000 0.09300000 0.00000000
vn 0.99570000 0.09290000 -0.00010000
vn 0.99570000 0.09290000 -0.00040000
vn 0.99570000 0.09290000 -0.00040000
vn 0.99570000 0.09290000 -0.00030000
vn 0.99570000 0.09290000 -0.00040000
vn 0.99570000 0.09290000 -0.00040000
vn -0.00050000 0.00630000 -1.00000000
vn -0.00070000 0.00630000 -1.00000000
vn -0.00070000 0.00630000 -1.00000000
vn -0.00060000 0.00640000 -1.00000000
vn -0.00050000 0.00640000 -1.00000000
vn -0.00070000 0.00630000 -1.00000000
vn -0.99600000 -0.08990000 0.00040000
vn -0.99600000 -0.08980000 0.00040000
vn -0.99600000 -0.08990000 0.00050000
vn -0.99600000 -0.08990000 -0.00030000
vn -0.99590000 -0.08990000 -0.00050000
vn -0.99590000 -0.08990000 0.00000000
vn -0.99600000 -0.08990000 -0.00020000
vn -0.99600000 -0.08980000 -0.00030000
vn -0.99600000 -0.08990000 -0.00010000
vn -0.99600000 -0.08970000 -0.00040000
vn 0.79620000 0.06900000 -0.60100000
vn 0.79610000 0.06930000 -0.60110000
vn 0.79600000 0.06920000 -0.60140000
vn 0.79590000 0.06930000 -0.60140000
vn 0.79610000 0.06930000 -0.60110000
vn 0.79600000 0.06890000 -0.60130000
vn 0.79610000 0.06900000 -0.60120000
vn 0.79610000 0.06920000 -0.60120000
vn 0.79610000 0.06930000 -0.60110000
vn 0.79590000 0.06950000 -0.60150000
vn 0.79600000 0.06950000 -0.60130000
vn 0.79570000 0.06940000 -0.60170000
vn 0.79580000 0.06950000 -0.60160000
vn 0.79580000 0.06930000 -0.60150000
vn 0.79590000 0.06950000 -0.60150000
vn 0.79570000 0.06990000 -0.60160000
vn 0.79600000 0.06980000 -0.60130000
vn 0.79570000 0.06980000 -0.60160000
vn 0.79570000 0.06980000 -0.60160000
vn 0.79550000 0.07000000 -0.60190000
vn 0.79570000 0.06980000 -0.60170000
vn 0.79570000 0.06980000 -0.60170000
vn 0.79550000 0.07000000 -0.60190000
vn -0.99700000 -0.07780000 -0.00030000
vn -0.79630000 -0.06630000 0.60130000
vn -0.99590000 -0.08990000 -0.00050000
vn -0.99600000 -0.08970000 -0.00040000
vn 0.79550000 0.07000000 -0.60190000
vt 0.98051200 0.97398900
vt 0.98051200 0.97398900
vt 0.97349500 0.97872500
vt 0.97380600 0.97361300
vt 0.98548200 0.97662400
vt 0.98548200 0.97662400
vt 0.98548200 0.97662400
vt 0.98171400 0.97912000
vt 0.98171400 0.97912000
vt 0.98758900 0.98242300
vt 0.98758900 0.98242300
vt 0.98657600 0.98967800
vt 0.98170600 0.98671700
vt 0.98170600 0.98671700
vt 0.98170600 0.98671700
vt 0.97668500 0.99016200
vt 0.97668500 0.99016200
vt 0.97588400 0.99620000
vt 0.97588400 0.99620000
vt 0.97588400 0.99620000
vt 0.97243600 0.99288500
vt 0.97955400 0.99459500
vt 0.97910700 0.99987800
vt 0.97910700 0.99987800
vt 0.97191400 0.99948500
vt 0.98215600 0.99282400
vt 0.98394100 0.99620000
vt 0.98394100 0.99620000
vt 0.98556700 1.00001000
vt 0.98556700 1.00001000
vt 0.98706900 0.99470000
vt 0.98706900 0.99470000
vt 0.99182700 0.97904200
vt 0.99182700 0.97904200
vt 0.99182700 0.97904200
vt 0.99163000 0.97397400
vt 0.99163000 0.97397400
vt 0.99163000 0.97397400
vt 0.99473200 0.98327500
vt 0.99473200 0.98327500
vt 0.99473200 0.98327500
vt 0.99812000 0.97362300
vt 0.99812000 0.97362300
vt 0.99600700 0.97731000
vt 0.99600700 0.97731000
vt 0.99854600 0.97998100
vt 0.99854600 0.97998100
vt 0.99091900 0.98638400
vt 0.99091900 0.98638400
vt 0.98942000 0.99997200
vt 0.99432300 0.99982300
vt 0.99432300 0.99982300
vt 0.99133800 0.99462700
vt 0.99547200 0.99445900
vt 0.99998900 0.99949400
vt 0.99998900 0.99949400
vt 0.99959000 0.99420100
vt 0.97933400 0.97392700
vt 0.97933400 0.97392700
vt 0.97380700 0.97361700
vt 0.97349500 0.97872800
vt 0.97349500 0.97872800
vt 0.98566800 0.97655400
vt 0.98566800 0.97655400
vt 0.98549500 0.97406100
vt 0.98175900 0.97912100
vt 0.98737400 0.98258400
vt 0.98170000 0.98672100
vt 0.98170000 0.98672100
vt 0.98170000 0.98672100
vt 0.98657600 0.98967900
vt 0.98657600 0.98967900
vt 0.97682100 0.99006900
vt 0.97682100 0.99006900
vt 0.97682100 0.99006900
vt 0.97243900 0.99289300
vt 0.97243900 0.99289300
vt 0.97588400 0.99620000
vt 0.97588400 0.99620000
vt 0.97588400 0.99620000
vt 0.97191500 0.99948000
vt 0.97955400 0.99459500
vt 0.97910600 0.99987800
vt 0.97910600 0.99987800
vt 0.98215200 0.99282600
vt 0.98215200 0.99282600
vt 0.98394100 0.99620000
vt 0.98394100 0.99620000
vt 0.98548200 1.00000900
vt 0.98548200 1.00000900
vt 0.98703200 0.99470000
vt 0.98703200 0.99470000
vt 0.99181900 0.97396400
vt 0.99181900 0.97396400
vt 0.99182800 0.97904300
vt 0.99182800 0.97904300
vt 0.99182800 0.97904300
vt 0.99474900 0.98327100
vt 0.99474900 0.98327100
vt 0.99811900 0.97362100
vt 0.99811900 0.97362100
vt 0.99600700 0.97731000
vt 0.99853600 0.97996700
vt 0.99853600 0.97996700
vt 0.99026000 0.98688900
vt 0.99026000 0.98688900
vt 0.98943500 0.99997200
vt 0.98943500 0.99997200
vt 0.98943500 0.99997200
vt 0.99432700 0.99982300
vt 0.99136900 0.99462700
vt 0.99136900 0.99462700
vt 0.99544700 0.99446000
vt 0.99544700 0.99446000
vt 0.99999000 0.99949400
vt 0.99999000 0.99949400
vt 0.99958900 0.99420200
vt 0.00001100 0.01179800
vt 0.00001100 0.01179800
vt 0.00496900 0.00000100
vt 0.00496900 0.00000100
vt 0.00000200 -0.00000200
vt 0.00496300 0.01179400
vt 0.11325400 0.01180300
vt 0.11325400 0.01180300
vt 0.11325400 0.01180300
vt 0.11325400 0.01180300
vt 0.11319300 0.00000000
vt 0.11319300 0.00000000
vt 0.11319300 0.00000000
vt 0.11050600 0.01179700
vt 0.11050600 0.01179700
vt 0.11050600 0.01179700
vt 0.11050600 0.01179700
vt 0.11050600 0.01179700
vt 0.11051700 -0.00000000
vt 0.11051700 -0.00000000
vt 0.10707500 0.00000100
vt 0.10707500 0.00000100
vt 0.10302400 0.00000600
vt 0.10302400 0.00000600
vt 0.10302400 0.00000600
vt 0.10302600 0.01179700
vt 0.10707200 0.01179900
vt 0.10707200 0.01179900
vt 0.11770400 0.00000000
vt 0.11770400 0.00000000
vt 0.11770500 0.01179800
vt 0.11770500 0.01179800
vt 0.12282600 0.00000700
vt 0.12282600 0.00000700
vt 0.12282600 0.00000700
vt 0.09905000 -0.00000200
vt 0.09905000 0.01179800
vt 0.09905000 0.01179800
vt 0.10302400 0.01179500
vt 0.10302600 -0.00000300
vt 0.10302600 -0.00000300
vt 0.08992700 0.01179600
vt 0.08992700 0.01179600
vt 0.08992700 0.01179600
vt 0.08995600 -0.00000000
vt 0.08995600 -0.00000000
vt 0.08995600 -0.00000000
vt 0.08454500 0.00000000
vt 0.08454500 0.00000000
vt 0.09302800 -0.00000300
vt 0.09302800 -0.00000300
vt 0.08454500 0.01179800
vt 0.09305000 0.01179600
vt 0.09305000 0.01179600
vt 0.09305000 0.01179600
vt 0.09601600 0.01179400
vt 0.09603500 -0.00000300
vt 0.09603500 -0.00000300
vt 0.09603500 -0.00000300
vt 0.09905400 -0.00000300
vt 0.09905300 0.01179500
vt 0.09905300 0.01179500
vt 0.07032000 -0.00000200
vt 0.07032000 -0.00000200
vt 0.07031700 0.01179700
vt 0.07031700 0.01179700
vt 0.07031700 0.01179700
vt 0.07031700 0.01179700
vt 0.07410400 0.00000000
vt 0.07410400 0.00000000
vt 0.06637900 0.01179800
vt 0.06637800 -0.00000400
vt 0.06637800 -0.00000400
vt 0.07473600 0.01179900
vt 0.07473600 0.01179900
vt 0.07821400 0.00000100
vt 0.07821400 0.00000100
vt 0.07821400 0.01179900
vt 0.07821400 0.01179900
vt 0.08222700 0.00000000
vt 0.08222700 0.00000000
vt 0.08222700 0.00000000
vt 0.08223000 0.01179800
vt 0.08223000 0.01179800
vt 0.08454500 0.00000000
vt 0.08454500 0.00000000
vt 0.06140600 -0.00000200
vt 0.06140400 0.01180000
vt 0.06140400 0.01180000
vt 0.06637800 -0.00000100
vt 0.06637800 -0.00000100
vt 0.06637900 0.01179800
vt 0.04615400 0.01179800
vt 0.04615400 0.01179800
vt 0.04710800 0.00000300
vt 0.04710800 0.00000300
vt 0.04710800 0.00000300
vt 0.04161100 -0.00000200
vt 0.04161300 0.01179500
vt 0.05113800 0.01179900
vt 0.05113800 0.01179900
vt 0.05113800 0.01179900
vt 0.06141000 -0.00000400
vt 0.05608700 0.00000100
vt 0.05608700 0.00000100
vt 0.06141000 0.01179400
vt 0.05624100 0.01179900
vt 0.03764100 0.01178600
vt 0.03764100 0.01178600
vt 0.04161800 -0.00000100
vt 0.04161800 -0.00000100
vt 0.03763700 -0.00001200
vt 0.04161100 0.01179500
vt 0.02312600 0.00000400
vt 0.02312600 0.00000400
vt 0.02312700 0.01180000
vt 0.03103000 0.01180100
vt 0.03103000 0.01180100
vt 0.03103000 0.01180100
vt 0.03106600 -0.00000200
vt 0.03106600 -0.00000200
vt 0.03106600 -0.00000200
vt 0.03763700 -0.00000600
vt 0.00496800 0.01179600
vt 0.00496800 0.01179600
vt 0.00874300 0.00000000
vt 0.00874300 0.00000000
vt 0.00874300 0.00000000
vt 0.00496300 -0.00000400
vt 0.00886900 0.01179600
vt 0.00886900 0.01179600
vt 0.00886900 0.01179600
vt 0.01334500 0.01179800
vt 0.01334500 0.01179800
vt 0.01335000 0.00000100
vt 0.01335000 0.00000100
vt 0.01335000 0.00000100
vt 0.01335000 0.00000100
vt 0.01869400 0.01179900
vt 0.01869400 0.01179900
vt 0.01869400 0.01179900
vt 0.01889800 0.00000100
vt 0.01889800 0.00000100
vt 0.01889800 0.00000100
vt 0.02312800 0.01179600
vt 0.02312800 0.01179600
vt 0.12282300 0.01179600
vt 0.08454500 0.01179800
vt 0.03763400 0.01178600
vt 0.03763400 0.01178600
vt 0.02312700 -0.00000300
f 1/1/1 3/3/3 4/4/4
f 5/5/5 3/3/3 1/1/1
f 5/5/5 8/8/8 3/3/3
f 10/10/10 48/48/48 12/12/12
f 17/17/17 22/22/22 20/20/20
f 19/19/19 24/24/24 25/25/25
f 20/20/20 25/25/25 21/21/21
f 15/15/15 12/12/12 26/26/26
f 17/17/17 26/26/26 22/22/22
f 18/18/18 22/22/22 24/24/24
f 24/24/24 27/27/27 29/29/29
f 31/31/31 28/28/28 22/22/22
f 7/7/7 34/34/34 9/9/9
f 6/6/6 37/37/37 35/35/35
f 40/40/40 49/49/49 11/11/11
f 43/43/43 45/45/45 36/36/36
f 42/42/42 46/46/46 44/44/44
f 33/33/33 45/45/45 39/39/39
f 45/45/45 34/34/34 37/37/37
f 32/32/32 53/53/53 50/50/50
f 32/32/32 29/29/29 27/27/27
f 53/53/53 54/54/54 52/52/52
f 54/54/54 57/57/57 56/56/56
f 5/5/5 2/2/2 38/38/38
f 59/59/59 60/60/60 61/61/61
f 64/64/64 65/65/65 59/59/59
f 64/64/64 58/58/58 62/62/62
f 62/62/62 66/66/66 64/64/64
f 72/72/72 106/106/106 67/67/67
f 80/80/80 82/82/82 75/75/75
f 76/76/76 81/81/81 80/80/80
f 79/79/79 81/81/81 84/84/84
f 82/82/82 86/86/86 75/75/75
f 85/85/85 71/71/71 70/70/70
f 79/79/79 83/83/83 82/82/82
f 89/89/89 88/88/88 84/84/84
f 91/91/91 87/87/87 90/90/90
f 82/82/82 88/88/88 92/92/92
f 63/63/63 96/96/96 93/93/93
f 95/95/95 64/64/64 66/66/66
f 67/67/67 105/105/105 99/99/99
f 101/101/101 93/93/93 102/102/102
f 104/104/104 100/100/100 102/102/102
f 102/102/102 95/95/95 98/98/98
f 102/102/102 93/93/93 97/97/97
f 109/109/109 111/111/111 92/92/92
f 110/110/110 114/114/114 112/112/112
f 116/116/116 117/117/117 113/113/113
f 118/118/118 123/123/123 121/121/121
f 129/129/129 137/137/137 135/135/135
f 134/134/134 136/136/136 138/138/138
f 141/141/141 133/133/133 139/139/139
f 140/140/140 143/143/143 144/144/144
f 142/142/142 145/145/145 131/131/131
f 126/126/126 147/147/147 130/130/130
f 125/125/125 149/149/149 151/151/151
f 156/156/156 157/157/157 155/155/155
f 165/165/165 169/169/169 159/159/159
f 160/160/160 170/170/170 163/163/163
f 167/167/167 170/170/170 176/176/176
f 173/173/173 179/179/179 175/175/175
f 183/183/183 191/191/191 186/186/186
f 182/182/182 180/180/180 189/189/189
f 192/192/192 195/195/195 193/193/193
f 196/196/196 200/200/200 199/199/199
f 201/201/201 265/265/265 202/202/202
f 206/206/206 209/209/209 208/208/208
f 215/215/215 216/216/216 211/211/211
f 217/217/217 213/213/213 210/210/210
f 221/221/221 224/224/224 220/220/220
f 221/221/221 219/219/219 224/224/224
f 226/226/226 230/230/230 227/227/227
f 236/236/236 238/238/238 232/232/232
f 235/235/235 266/266/266 237/237/237
f 242/242/242 249/249/249 245/245/245
f 251/251/251 252/252/252 247/247/247
f 258/258/258 259/259/259 254/254/254
f 263/263/263 268/268/268 260/260/260
f 152/152/152 146/146/146 127/127/127
f 148/148/148 264/264/264 150/150/150
f 222/222/222 212/212/212 218/218/218
f 10/10/10 12/12/12 14/14/14
f 16/16/16 20/20/20 21/21/21
f 13/13/13 26/26/26 17/17/17
f 22/22/22 28/28/28 23/23/23
f 40/40/40 10/10/10 34/34/34
f 45/45/45 47/47/47 41/41/41
f 32/32/32 50/50/50 30/30/30
f 53/53/53 52/52/52 50/50/50
f 54/54/54 55/55/55 51/51/51
f 72/72/72 67/67/67 69/69/69
f 78/78/78 73/73/73 77/77/77
f 86/86/86 68/68/68 74/74/74
f 84/84/84 88/88/88 82/82/82
f 63/63/63 94/94/94 65/65/65
f 67/67/67 99/99/99 95/95/95
f 102/102/102 98/98/98 103/103/103
f 108/108/108 92/92/92 89/89/89
f 110/110/110 112/112/112 107/107/107
f 115/115/115 113/113/113 110/110/110
f 119/119/119 120/120/120 122/122/122
f 128/128/128 132/132/132 124/124/124
f 158/158/158 153/153/153 154/154/154
f 166/166/166 161/161/161 162/162/162
f 172/172/172 168/168/168 164/164/164
f 171/171/171 173/173/173 175/175/175
f 178/178/178 177/177/177 174/174/174
f 185/185/185 187/187/187 181/181/181
f 184/184/184 190/190/190 188/188/188
f 191/191/191 194/194/194 186/186/186
f 195/195/195 197/197/197 193/193/193
f 200/200/200 203/203/203 198/198/198
f 205/205/205 207/207/207 204/204/204
f 215/215/215 211/211/211 214/214/214
f 224/224/224 223/223/223 220/220/220
f 225/225/225 228/228/228 229/229/229
f 234/234/234 231/231/231 233/233/233
f 267/267/267 240/240/240 239/239/239
f 241/241/241 243/243/243 246/246/246
f 253/253/253 244/244/244 248/248/248
f 256/256/256 255/255/255 250/250/250
f 262/262/262 261/261/261 257/257/257

