mtllib material.mtl
usemtl Material-塑胶__3_.004
v -0.01382300 0.01958500 0.02562200
v -0.01382800 0.01960800 0.02592100
v -0.01396500 0.01964200 0.02630000
v -0.01396500 0.01964200 0.02630000
v -0.01722500 0.02029700 0.03194500
v -0.01820600 0.02052500 0.03365000
v -0.01766800 0.02029600 0.03168500
v -0.01597600 0.01985500 0.02779700
v -0.01512700 0.01981600 0.02780100
v -0.01625500 0.02001200 0.02946000
v -0.01468100 0.01967700 0.02633700
v -0.01881900 0.02050700 0.03313400
v -0.01730300 0.02011900 0.03002300
v -0.01540000 0.01967600 0.02591200
v -0.01540000 0.01967600 0.02591200
v -0.01839800 0.02028900 0.03119400
v -0.01723100 0.01997100 0.02841300
v -0.02011300 0.02062500 0.03354000
v -0.01914900 0.02031600 0.03102900
v -0.01813800 0.02009600 0.02927600
v -0.01683300 0.01983200 0.02701700
v -0.01588800 0.01965800 0.02538000
v -0.01588800 0.01965800 0.02538000
v -0.01559300 0.01961300 0.02496900
v -0.01559300 0.01961300 0.02496900
v -0.01512400 0.01957200 0.02470300
v -0.01906200 0.02063100 0.03417500
v -0.01938200 0.02064700 0.03414600
v -0.01856700 0.02059200 0.03401600
v -0.01856700 0.02059200 0.03401600
v -0.01983800 0.02065000 0.03390300
v -0.01563800 0.01995800 0.02919700
v -0.01421800 0.01954900 0.02492100
v -0.01397400 0.01955900 0.02519400
v -0.01397400 0.01955900 0.02519400
v -0.02018900 0.02058600 0.03309100
v -0.02004600 0.02052500 0.03257800
v -0.02004600 0.02052500 0.03257800
v -0.01454100 0.01955000 0.02474600
v -0.01574500 0.01971400 0.02513900
v -0.01736300 0.02103200 0.03217900
v -0.01782100 0.02099100 0.03149500
v -0.01816500 0.02121900 0.03357100
v -0.01717200 0.02083700 0.03025400
v -0.01717200 0.02083700 0.03025400
v -0.01602700 0.02066400 0.02898700
v -0.01631900 0.02080400 0.03037100
v -0.01882500 0.02119700 0.03298700
v -0.01882500 0.02119700 0.03298700
v -0.01882500 0.02119700 0.03298700
v -0.01660900 0.02065700 0.02858300
v -0.01839800 0.02099800 0.03123900
v -0.01603800 0.02051300 0.02721900
v -0.01534700 0.02051100 0.02758100
v -0.02000400 0.02121900 0.03251000
v -0.02000400 0.02121900 0.03251000
v -0.02006900 0.02132300 0.03347200
v -0.02006900 0.02132300 0.03347200
v -0.01686500 0.02058800 0.02764000
v -0.01778500 0.02082200 0.02973000
v -0.01877600 0.02093700 0.03038800
v -0.01495400 0.02026000 0.02465100
v -0.01495400 0.02026000 0.02465100
v -0.01495400 0.02026000 0.02465100
v -0.01590400 0.02036300 0.02541200
v -0.01590400 0.02036300 0.02541200
v -0.01556100 0.02031100 0.02491700
v -0.01556100 0.02031100 0.02491700
v -0.01934000 0.02134200 0.03407200
v -0.01902000 0.02132600 0.03410100
v -0.01902000 0.02132600 0.03410100
v -0.01852600 0.02127300 0.03394400
v -0.01979500 0.02134400 0.03383000
v -0.01495400 0.02052700 0.02800700
v -0.01381700 0.02031700 0.02601400
v -0.01381700 0.02031700 0.02601400
v -0.01451400 0.02037300 0.02635100
v -0.01451400 0.02037300 0.02635100
v -0.01418900 0.02024600 0.02486900
v -0.01418900 0.02024600 0.02486900
v -0.01501700 0.02037200 0.02605000
v -0.01394500 0.02025600 0.02514200
v -0.01394500 0.02025600 0.02514200
v -0.01379500 0.02028200 0.02556800
v -0.02014300 0.02124100 0.03294100
v -0.01711400 0.02059000 0.02750800
v -0.01451100 0.02024700 0.02469500
v -0.01524400 0.02028100 0.02471800
v -0.01572300 0.02025900 0.02510200
v -0.01816500 0.02121900 0.03357100
v -0.01801700 0.02083200 0.03331400
v -0.01801700 0.02083200 0.03331400
v -0.01722500 0.02029700 0.03194500
v -0.01722500 0.02029700 0.03194500
v -0.01850500 0.02092700 0.03395400
v -0.01856700 0.02059200 0.03401600
v -0.01820600 0.02052500 0.03365000
v -0.01820600 0.02052500 0.03365000
v -0.01822300 0.02088100 0.03366700
v -0.01852600 0.02127300 0.03394400
v -0.02000400 0.02121900 0.03251000
v -0.02004600 0.02052500 0.03257800
v -0.02016700 0.02074600 0.03293900
v -0.01590400 0.02036300 0.02541200
v -0.01590400 0.02036300 0.02541200
v -0.01588800 0.01965800 0.02538000
v -0.01683300 0.01983200 0.02701700
v -0.01683300 0.01983200 0.02701700
v -0.01683300 0.01983200 0.02701700
v -0.01572300 0.02025900 0.02510200
v -0.01574500 0.01971400 0.02513900
v -0.01495400 0.02052700 0.02800700
v -0.01495400 0.02052700 0.02800700
v -0.01495400 0.02052700 0.02800700
v -0.01495400 0.02052700 0.02800700
v -0.01563800 0.01995800 0.02919700
v -0.01563800 0.01995800 0.02919700
v -0.01563800 0.01995800 0.02919700
v -0.01396500 0.01964200 0.02630000
v -0.01396500 0.01964200 0.02630000
v -0.01394300 0.01999000 0.02625800
v -0.01394300 0.01999000 0.02625800
v -0.01631900 0.02080400 0.03037100
v -0.01631900 0.02080400 0.03037100
v -0.01906200 0.02063100 0.03417500
v -0.01938200 0.02064700 0.03414600
v -0.02018900 0.02058600 0.03309100
v -0.02011300 0.02062500 0.03354000
v -0.01996300 0.02098900 0.03370500
v -0.01983800 0.02065000 0.03390300
v -0.01381700 0.02031700 0.02601400
v -0.01736300 0.02103200 0.03217900
v -0.01736300 0.02103200 0.03217900
v -0.01736300 0.02103200 0.03217900
v -0.01902000 0.02132600 0.03410100
v -0.01934000 0.02134200 0.03407200
v -0.02014300 0.02124100 0.03294100
v -0.02006900 0.02132300 0.03347200
v -0.01979500 0.02134400 0.03383000
v -0.01877600 0.02093700 0.03038800
v -0.01877600 0.02093700 0.03038800
v -0.01813800 0.02009600 0.02927600
v -0.01813800 0.02009600 0.02927600
v -0.01813800 0.02009600 0.02927600
v -0.01914900 0.02031600 0.03102900
v -0.01914900 0.02031600 0.03102900
v -0.01559300 0.01961300 0.02496900
v -0.01544600 0.01995000 0.02484400
v -0.01512400 0.01957200 0.02470300
v -0.01508700 0.01992100 0.02469500
v -0.01454100 0.01955000 0.02474600
v -0.01421800 0.01954900 0.02492100
v -0.01382300 0.01958500 0.02562200
v -0.01397400 0.01955900 0.02519400
v -0.01383200 0.01992500 0.02546900
v -0.01382800 0.01960800 0.02592100
v -0.01396500 0.01964200 0.02630000
v -0.01394300 0.01999000 0.02625800
v -0.01711400 0.02059000 0.02750800
v -0.01711400 0.02059000 0.02750800
v -0.01711400 0.02059000 0.02750800
v -0.01451100 0.02024700 0.02469500
v -0.01418900 0.02024600 0.02486900
v -0.01556100 0.02031100 0.02491700
v -0.01524400 0.02028100 0.02471800
v -0.01379500 0.02028200 0.02556800
v -0.01381700 0.02031700 0.02601400
v -0.01495400 0.02026000 0.02465100
v -0.01394500 0.02025600 0.02514200
vn -0.04090000 -0.99630000 0.07580000
vn -0.04100000 -0.99620000 0.07680000
vn -0.04150000 -0.99610000 0.07810000
vn -0.04150000 -0.99610000 0.07820000
vn -0.05300000 -0.99380000 0.09810000
vn -0.05640000 -0.99300000 0.10420000
vn -0.05430000 -0.99380000 0.09730000
vn -0.04810000 -0.99530000 0.08360000
vn -0.04550000 -0.99550000 0.08350000
vn -0.04940000 -0.99480000 0.08950000
vn -0.04370000 -0.99600000 0.07840000
vn -0.05820000 -0.99300000 0.10250000
vn -0.05280000 -0.99440000 0.09170000
vn -0.04590000 -0.99600000 0.07710000
vn -0.04590000 -0.99600000 0.07730000
vn -0.05640000 -0.99380000 0.09590000
vn -0.05220000 -0.99490000 0.08610000
vn -0.06250000 -0.99260000 0.10410000
vn -0.05890000 -0.99370000 0.09540000
vn -0.05530000 -0.99450000 0.08930000
vn -0.05050000 -0.99540000 0.08130000
vn -0.04730000 -0.99600000 0.07550000
vn -0.04720000 -0.99600000 0.07550000
vn -0.04620000 -0.99620000 0.07410000
vn -0.04620000 -0.99620000 0.07400000
vn -0.04470000 -0.99630000 0.07300000
vn -0.05920000 -0.99260000 0.10610000
vn -0.06020000 -0.99250000 0.10600000
vn -0.05760000 -0.99280000 0.10550000
vn -0.05760000 -0.99270000 0.10550000
vn -0.06160000 -0.99250000 0.10530000
vn -0.04740000 -0.99500000 0.08840000
vn -0.04190000 -0.99640000 0.07350000
vn -0.04120000 -0.99640000 0.07430000
vn -0.04130000 -0.99640000 0.07430000
vn -0.06260000 -0.99270000 0.10260000
vn -0.06210000 -0.99300000 0.10090000
vn -0.06200000 -0.99300000 0.10090000
vn -0.04290000 -0.99640000 0.07300000
vn -0.04670000 -0.99610000 0.07460000
vn 0.05360000 0.99360000 -0.09920000
vn 0.05490000 0.99380000 -0.09710000
vn 0.05640000 0.99300000 -0.10420000
vn 0.05260000 0.99430000 -0.09260000
vn 0.05220000 0.99430000 -0.09270000
vn 0.04860000 0.99490000 -0.08800000
vn 0.04990000 0.99440000 -0.09280000
vn 0.05830000 0.99310000 -0.10220000
vn 0.05840000 0.99300000 -0.10230000
vn 0.05840000 0.99300000 -0.10240000
vn 0.05050000 0.99490000 -0.08690000
vn 0.05670000 0.99380000 -0.09620000
vn 0.04820000 0.99550000 -0.08190000
vn 0.04620000 0.99550000 -0.08300000
vn 0.06210000 0.99300000 -0.10090000
vn 0.06200000 0.99300000 -0.10090000
vn 0.06250000 0.99260000 -0.10410000
vn 0.06240000 0.99260000 -0.10420000
vn 0.05100000 0.99520000 -0.08360000
vn 0.05440000 0.99440000 -0.09090000
vn 0.05770000 0.99400000 -0.09340000
vn 0.04420000 0.99640000 -0.07300000
vn 0.04430000 0.99640000 -0.07290000
vn 0.04420000 0.99640000 -0.07290000
vn 0.04740000 0.99600000 -0.07580000
vn 0.04740000 0.99600000 -0.07570000
vn 0.04620000 0.99620000 -0.07410000
vn 0.04620000 0.99620000 -0.07400000
vn 0.06020000 0.99250000 -0.10600000
vn 0.05920000 0.99260000 -0.10610000
vn 0.05920000 0.99260000 -0.10600000
vn 0.05760000 0.99280000 -0.10550000
vn 0.06160000 0.99250000 -0.10530000
vn 0.04510000 0.99540000 -0.08440000
vn 0.04100000 0.99620000 -0.07730000
vn 0.04110000 0.99620000 -0.07730000
vn 0.04330000 0.99600000 -0.07860000
vn 0.04330000 0.99600000 -0.07870000
vn 0.04190000 0.99640000 -0.07350000
vn 0.04190000 0.99640000 -0.07340000
vn 0.04490000 0.99600000 -0.07780000
vn 0.04130000 0.99640000 -0.07430000
vn 0.04130000 0.99640000 -0.07440000
vn 0.04090000 0.99630000 -0.07580000
vn 0.06260000 0.99280000 -0.10230000
vn 0.05170000 0.99520000 -0.08330000
vn 0.04290000 0.99640000 -0.07290000
vn 0.04520000 0.99630000 -0.07320000
vn 0.04680000 0.99610000 -0.07470000
vn 0.86520000 0.00350000 0.50150000
vn 0.86620000 0.00330000 0.49960000
vn 0.86620000 0.00330000 0.49970000
vn 0.86620000 0.00330000 0.49970000
vn 0.86620000 0.00330000 0.49960000
vn 0.57020000 0.05410000 0.81970000
vn 0.53150000 0.05900000 0.84500000
vn 0.86400000 0.00380000 0.50350000
vn 0.86400000 0.00380000 0.50340000
vn 0.83350000 0.01070000 0.55240000
vn 0.53240000 0.05890000 0.84440000
vn -0.86860000 0.00400000 -0.49550000
vn -0.86810000 0.00380000 -0.49630000
vn -0.98710000 0.04650000 -0.15300000
vn -0.86570000 0.00310000 -0.50050000
vn -0.86570000 0.00320000 -0.50060000
vn -0.86540000 0.00320000 -0.50110000
vn -0.86600000 0.00310000 -0.50010000
vn -0.86580000 0.00310000 -0.50030000
vn -0.86590000 0.00290000 -0.50010000
vn -0.82120000 -0.00440000 -0.57060000
vn -0.82000000 -0.00460000 -0.57240000
vn 0.86610000 0.00320000 0.49980000
vn 0.86620000 0.00320000 0.49970000
vn 0.86610000 0.00330000 0.49980000
vn 0.86620000 0.00340000 0.49970000
vn 0.86620000 0.00330000 0.49970000
vn 0.86620000 0.00320000 0.49970000
vn 0.86610000 0.00330000 0.49980000
vn 0.86620000 0.00340000 0.49970000
vn 0.86610000 0.00330000 0.49980000
vn 0.86620000 0.00340000 0.49970000
vn 0.86610000 0.00310000 0.49980000
vn 0.86620000 0.00320000 0.49970000
vn 0.86620000 0.00330000 0.49970000
vn 0.06860000 0.10220000 0.99240000
vn -0.23590000 0.11750000 0.96460000
vn -0.99780000 0.06000000 -0.02880000
vn -0.91690000 0.09830000 0.38690000
vn -0.80520000 0.11190000 0.58230000
vn -0.66610000 0.11960000 0.73620000
vn 0.86610000 0.00310000 0.49980000
vn 0.86620000 0.00320000 0.49970000
vn 0.86620000 0.00330000 0.49960000
vn 0.86620000 0.00330000 0.49970000
vn 0.06850000 0.10220000 0.99240000
vn -0.23530000 0.11750000 0.96480000
vn -0.99310000 0.05190000 -0.10470000
vn -0.91520000 0.09860000 0.39070000
vn -0.66630000 0.11950000 0.73600000
vn -0.86550000 0.00300000 -0.50090000
vn -0.86540000 0.00320000 -0.50110000
vn -0.86580000 0.00310000 -0.50030000
vn -0.86590000 0.00340000 -0.50020000
vn -0.86580000 0.00330000 -0.50030000
vn -0.86570000 0.00320000 -0.50060000
vn -0.86580000 0.00340000 -0.50040000
vn -0.67500000 -0.02340000 -0.73740000
vn -0.55480000 -0.03580000 -0.83120000
vn -0.23160000 -0.06070000 -0.97090000
vn -0.21700000 -0.06150000 -0.97420000
vn 0.31500000 -0.08270000 -0.94550000
vn 0.61880000 -0.08360000 -0.78110000
vn 0.99140000 -0.04980000 -0.12100000
vn 0.84930000 -0.07420000 -0.52260000
vn 0.96920000 -0.05780000 -0.23950000
vn 0.98690000 -0.02830000 0.15900000
vn 0.85850000 0.00450000 0.51280000
vn 0.86610000 0.00310000 0.49990000
vn -0.86580000 0.00310000 -0.50030000
vn -0.86590000 0.00290000 -0.50010000
vn -0.86590000 0.00340000 -0.50020000
vn 0.31580000 -0.08280000 -0.94520000
vn 0.61830000 -0.08360000 -0.78150000
vn -0.67420000 -0.02350000 -0.73810000
vn -0.37510000 -0.05090000 -0.92560000
vn 0.99120000 -0.04990000 -0.12230000
vn 0.95650000 -0.01690000 0.29130000
vn -0.10630000 -0.06770000 -0.99200000
vn 0.84940000 -0.07420000 -0.52250000
vt 0.95060600 0.99739200
vt 0.94696100 0.99576300
vt 0.94555300 0.99329600
vt 0.94555300 0.99329600
vt 0.95035800 0.95480400
vt 0.95139700 0.94366900
vt 0.96122200 0.95490300
vt 0.97116600 0.97952100
vt 0.95327600 0.98197900
vt 0.95779400 0.97011900
vt 0.96109800 0.99102500
vt 0.96722600 0.94453600
vt 0.97200000 0.96428200
vt 0.98229900 0.99109000
vt 0.98229900 0.99109000
vt 0.97968200 0.95526300
vt 0.98911000 0.97259300
vt 0.98533800 0.93888800
vt 0.99498300 0.95383700
vt 0.99624100 0.96549900
vt 0.99829500 0.98088600
vt 0.99982100 0.99230600
vt 0.99982100 0.99230600
vt 0.99903600 0.99539600
vt 0.99903600 0.99539600
vt 0.99229300 0.99830200
vt 0.96130000 0.93880000
vt 0.96703300 0.93806700
vt 0.95431000 0.94090600
vt 0.95431000 0.94090600
vt 0.97707600 0.93796800
vt 0.94826900 0.97319500
vt 0.96871100 1.00000000
vt 0.95947900 0.99926500
vt 0.95947900 0.99926500
vt 0.99112700 0.94085700
vt 0.99397400 0.94371600
vt 0.99397400 0.94371600
vt 0.97847000 0.99993500
vt 1.00005700 0.99397800
vt 0.95055100 0.95280300
vt 0.96595100 0.95497600
vt 0.95138500 0.94370900
vt 0.96700000 0.96305600
vt 0.96700000 0.96305600
vt 0.95849900 0.97280800
vt 0.94923700 0.96485300
vt 0.96879900 0.94478600
vt 0.96879900 0.94478600
vt 0.96879900 0.94478600
vt 0.97477100 0.97319100
vt 0.97927600 0.95459600
vt 0.97944900 0.98192500
vt 0.96052700 0.98211100
vt 0.99408600 0.94369700
vt 0.99408600 0.94369700
vt 0.98521800 0.93890500
vt 0.98521800 0.93890500
vt 0.99112700 0.97719700
vt 0.98446400 0.96388600
vt 0.99538800 0.95762300
vt 0.98907000 0.99869800
vt 0.98907000 0.99869800
vt 0.98907000 0.99869800
vt 0.99974700 0.99171400
vt 0.99974700 0.99171400
vt 0.99903600 0.99539600
vt 0.99903600 0.99539600
vt 0.96703300 0.93806700
vt 0.96130000 0.93880000
vt 0.96130000 0.93880000
vt 0.95426900 0.94090800
vt 0.97707600 0.93796800
vt 0.94722700 0.98096200
vt 0.94556100 0.99490300
vt 0.94556100 0.99490300
vt 0.95717400 0.99106600
vt 0.95717400 0.99106600
vt 0.96871100 1.00000000
vt 0.96871100 1.00000000
vt 0.97205600 0.99115700
vt 0.95948000 0.99926500
vt 0.95948000 0.99926500
vt 0.95061000 0.99739300
vt 0.99186700 0.94125500
vt 0.99772300 0.97708800
vt 0.97847000 0.99993500
vt 0.99476300 0.99746900
vt 1.00003000 0.99394200
vt 0.19656800 0.01192600
vt 0.18874500 0.00597000
vt 0.18874500 0.00597000
vt 0.15115500 0.00001000
vt 0.15115500 0.00001000
vt 0.20769300 0.00597000
vt 0.20885100 0.00022500
vt 0.19673100 -0.00000900
vt 0.19673100 -0.00000900
vt 0.19821900 0.00597000
vt 0.20880900 0.01173800
vt 0.27411300 0.01192700
vt 0.27417000 0.00001200
vt 0.26481700 0.00298600
vt 0.46450000 0.01193000
vt 0.46450000 0.01193000
vt 0.46677500 0.00000300
vt 0.42302800 0.00000800
vt 0.42302800 0.00000800
vt 0.42302800 0.00000800
vt 0.47296300 0.01070400
vt 0.47309000 0.00138300
vt 0.04749600 0.01193800
vt 0.04749600 0.01193800
vt 0.04749600 0.01193800
vt 0.04749600 0.01193800
vt 0.07772600 -0.00000200
vt 0.07772600 -0.00000200
vt 0.07772600 -0.00000200
vt 0.00037700 0.00001100
vt 0.00037700 0.00001100
vt 0.00000000 0.00597000
vt 0.00000000 0.00597000
vt 0.11081300 0.01195200
vt 0.11081300 0.01195200
vt 0.22106000 0.00000000
vt 0.22857500 0.00000000
vt 0.26171000 -0.00000400
vt 0.25109400 -0.00003700
vt 0.24560100 0.00597000
vt 0.24054900 0.00000000
vt -0.00563500 0.01194000
vt 0.15927400 0.01193100
vt 0.15927400 0.01193100
vt 0.15927400 0.01193100
vt 0.22106000 0.01194000
vt 0.22857500 0.01194000
vt 0.26362900 0.01136200
vt 0.25099500 0.01191700
vt 0.24054900 0.01194000
vt 0.33111400 0.01193900
vt 0.33111400 0.01193900
vt 0.36260000 0.00000400
vt 0.36260000 0.00000400
vt 0.36260000 0.00000400
vt 0.31570300 -0.00000300
vt 0.31570300 -0.00000300
vt 0.47855500 -0.00000000
vt 0.48237500 0.00599600
vt 0.49111000 0.00000300
vt 0.49153300 0.00597000
vt 0.50468000 0.00000000
vt 0.51321000 0.00000000
vt 0.53223200 -0.00000600
vt 0.52174000 0.00000000
vt 0.52928400 0.00597000
vt 0.53924300 -0.00000100
vt 0.54865200 -0.00002300
vt 0.54826900 0.00597000
vt 0.40834900 0.01194000
vt 0.40834900 0.01194000
vt 0.40834900 0.01194000
vt 0.50468000 0.01194000
vt 0.51321000 0.01194000
vt 0.47855600 0.01194000
vt 0.48728500 0.01194000
vt 0.53222300 0.01193300
vt 0.54269800 0.01192700
vt 0.49428800 0.01187900
vt 0.52174000 0.01194000
f 1/1/1 2/2/2 3/3/3
f 6/6/6 12/12/12 5/5/5
f 9/9/9 32/32/32 8/8/8
f 11/11/11 4/4/4 9/9/9
f 13/13/13 10/10/10 7/7/7
f 13/13/13 17/17/17 10/10/10
f 8/8/8 21/21/21 15/15/15
f 16/16/16 7/7/7 12/12/12
f 16/16/16 12/12/12 19/19/19
f 20/20/20 13/13/13 16/16/16
f 21/21/21 8/8/8 17/17/17
f 21/21/21 22/22/22 15/15/15
f 25/25/25 26/26/26 23/23/23
f 12/12/12 27/27/27 28/28/28
f 29/29/29 27/27/27 12/12/12
f 12/12/12 31/31/31 18/18/18
f 31/31/31 12/12/12 28/28/28
f 4/4/4 32/32/32 9/9/9
f 5/5/5 10/10/10 32/32/32
f 15/15/15 39/39/39 33/33/33
f 11/11/11 33/33/33 34/34/34
f 1/1/1 11/11/11 35/35/35
f 1/1/1 3/3/3 11/11/11
f 18/18/18 36/36/36 37/37/37
f 18/18/18 38/38/38 19/19/19
f 15/15/15 26/26/26 39/39/39
f 20/20/20 21/21/21 17/17/17
f 23/23/23 40/40/40 24/24/24
f 42/42/42 48/48/48 41/41/41
f 45/45/45 42/42/42 41/41/41
f 46/46/46 45/45/45 47/47/47
f 51/51/51 60/60/60 45/45/45
f 45/45/45 52/52/52 42/42/42
f 51/51/51 46/46/46 54/54/54
f 58/58/58 73/73/73 48/48/48
f 48/48/48 52/52/52 56/56/56
f 59/59/59 60/60/60 51/51/51
f 53/53/53 59/59/59 51/51/51
f 56/56/56 52/52/52 61/61/61
f 59/59/59 86/86/86 60/60/60
f 59/59/59 53/53/53 65/65/65
f 68/68/68 65/65/65 63/63/63
f 50/50/50 69/69/69 71/71/71
f 72/72/72 49/49/49 70/70/70
f 73/73/73 69/69/69 49/49/49
f 47/47/47 74/74/74 46/46/46
f 74/74/74 76/76/76 78/78/78
f 78/78/78 54/54/54 74/74/74
f 46/46/46 74/74/74 54/54/54
f 78/78/78 83/83/83 81/81/81
f 84/84/84 82/82/82 77/77/77
f 55/55/55 85/85/85 57/57/57
f 59/59/59 65/65/65 86/86/86
f 81/81/81 79/79/79 64/64/64
f 62/62/62 88/88/88 68/68/68
f 66/66/66 67/67/67 89/89/89
f 94/94/94 133/133/133 91/91/91
f 98/98/98 99/99/99 96/96/96
f 92/92/92 97/97/97 93/93/93
f 99/99/99 98/98/98 92/92/92
f 92/92/92 90/90/90 99/99/99
f 99/99/99 90/90/90 100/100/100
f 101/101/101 102/102/102 103/103/103
f 105/105/105 106/106/106 107/107/107
f 111/111/111 106/106/106 110/110/110
f 114/114/114 118/118/118 120/120/120
f 115/115/115 119/119/119 121/121/121
f 117/117/117 113/113/113 123/123/123
f 93/93/93 116/116/116 124/124/124
f 95/95/95 125/125/125 96/96/96
f 126/126/126 125/125/125 95/95/95
f 103/103/103 127/127/127 128/128/128
f 126/126/126 129/129/129 130/130/130
f 127/127/127 103/103/103 102/102/102
f 128/128/128 130/130/130 129/129/129
f 103/103/103 128/128/128 129/129/129
f 112/112/112 122/122/122 131/131/131
f 93/93/93 124/124/124 134/134/134
f 135/135/135 95/95/95 100/100/100
f 126/126/126 95/95/95 129/129/129
f 95/95/95 135/135/135 136/136/136
f 137/137/137 129/129/129 138/138/138
f 129/129/129 136/136/136 139/139/139
f 138/138/138 129/129/129 139/139/139
f 103/103/103 129/129/129 137/137/137
f 141/141/141 144/144/144 146/146/146
f 102/102/102 101/101/101 145/145/145
f 147/147/147 148/148/148 149/149/149
f 148/148/148 147/147/147 111/111/111
f 150/150/150 151/151/151 149/149/149
f 152/152/152 151/151/151 150/150/150
f 153/153/153 154/154/154 155/155/155
f 156/156/156 153/153/153 155/155/155
f 154/154/154 152/152/152 155/155/155
f 157/157/157 156/156/156 158/158/158
f 109/109/109 160/160/160 104/104/104
f 152/152/152 150/150/150 155/155/155
f 156/156/156 155/155/155 158/158/158
f 150/150/150 162/162/162 163/163/163
f 148/148/148 164/164/164 165/165/165
f 155/155/155 166/166/166 167/167/167
f 150/150/150 165/165/165 168/168/168
f 155/155/155 163/163/163 169/169/169
f 166/166/166 155/155/155 169/169/169
f 162/162/162 150/150/150 168/168/168
f 10/10/10 5/5/5 7/7/7
f 11/11/11 9/9/9 8/8/8
f 6/6/6 30/30/30 12/12/12
f 13/13/13 7/7/7 16/16/16
f 20/20/20 16/16/16 19/19/19
f 17/17/17 13/13/13 20/20/20
f 26/26/26 14/14/14 23/23/23
f 84/84/84 77/77/77 75/75/75
f 45/45/45 41/41/41 47/47/47
f 49/49/49 72/72/72 43/43/43
f 81/81/81 53/53/53 54/54/54
f 52/52/52 48/48/48 42/42/42
f 60/60/60 61/61/61 44/44/44
f 64/64/64 53/53/53 81/81/81
f 101/101/101 103/103/103 137/137/137
f 148/148/148 111/111/111 110/110/110
f 95/95/95 136/136/136 129/129/129
f 141/141/141 161/161/161 143/143/143
f 142/142/142 159/159/159 108/108/108
f 148/148/148 150/150/150 149/149/149
f 150/150/150 163/163/163 155/155/155
f 110/110/110 164/164/164 148/148/148
f 148/148/148 165/165/165 150/150/150
f 155/155/155 167/167/167 158/158/158
f 12/12/12 7/7/7 5/5/5
f 32/32/32 10/10/10 8/8/8
f 17/17/17 8/8/8 10/10/10
f 8/8/8 15/15/15 11/11/11
f 12/12/12 18/18/18 19/19/19
f 15/15/15 33/33/33 11/11/11
f 48/48/48 43/43/43 41/41/41
f 51/51/51 45/45/45 46/46/46
f 51/51/51 54/54/54 53/53/53
f 58/58/58 48/48/48 56/56/56
f 86/86/86 61/61/61 60/60/60
f 53/53/53 64/64/64 65/65/65
f 83/83/83 79/79/79 81/81/81
f 80/80/80 87/87/87 63/63/63
f 132/132/132 90/90/90 92/92/92
f 99/99/99 95/95/95 96/96/96
f 99/99/99 100/100/100 95/95/95
f 106/106/106 105/105/105 110/110/110
f 101/101/101 140/140/140 145/145/145
f 81/81/81 54/54/54 78/78/78
f 61/61/61 52/52/52 45/45/45

