mtllib material.mtl
usemtl Material-塑胶__3_.003
v -0.01528800 0.01963000 -0.02538400
v -0.01528800 0.01963000 -0.02538400
v -0.01528800 0.01963000 -0.02538400
v -0.01584800 0.01965200 -0.02532400
v -0.01584800 0.01965200 -0.02532400
v -0.01644700 0.01976000 -0.02636300
v -0.01530500 0.01958700 -0.02478300
v -0.01530500 0.01958700 -0.02478300
v -0.01911200 0.02031000 -0.03097900
v -0.02004500 0.02052600 -0.03259400
v -0.02016800 0.02060800 -0.03334100
v -0.01861900 0.02029700 -0.03113800
v -0.01688900 0.01996800 -0.02858700
v -0.01746400 0.01995800 -0.02812500
v -0.01826100 0.02012300 -0.02950400
v -0.01619100 0.01982600 -0.02731500
v -0.01782200 0.02029300 -0.03156400
v -0.01906200 0.02047000 -0.03263300
v -0.01751800 0.02012700 -0.02998900
v -0.01493500 0.01967500 -0.02617800
v -0.01702500 0.02013100 -0.03030900
v -0.01630100 0.01995900 -0.02881900
v -0.01514900 0.01979800 -0.02758700
v -0.01847600 0.02047400 -0.03300700
v -0.01847600 0.02047400 -0.03300700
v -0.01817800 0.02052100 -0.03361100
v -0.01817800 0.02052100 -0.03361100
v -0.01736700 0.02033100 -0.03220500
v -0.01629100 0.02009600 -0.03034100
v -0.01546000 0.01992500 -0.02890300
v -0.01382100 0.01960800 -0.02594100
v -0.01396100 0.01964200 -0.02630500
v -0.02018100 0.02057600 -0.03299800
v -0.01992100 0.02064700 -0.03383400
v -0.01952200 0.02065200 -0.03411500
v -0.01901300 0.02062900 -0.03418500
v -0.01564800 0.01969000 -0.02503400
v -0.01480100 0.01955800 -0.02470800
v -0.01444700 0.01954900 -0.02479600
v -0.01414400 0.01955200 -0.02499900
v -0.01414400 0.01955200 -0.02499900
v -0.01828800 0.02054400 -0.03378000
v -0.01865500 0.02059700 -0.03408000
v -0.01865500 0.02059700 -0.03408000
v -0.01865500 0.02059700 -0.03408000
v -0.01391400 0.01956600 -0.02531800
v -0.01560500 0.02037600 -0.02575300
v -0.01581100 0.02034700 -0.02526400
v -0.01581100 0.02034700 -0.02526400
v -0.01527000 0.02028300 -0.02473300
v -0.01527000 0.02028300 -0.02473300
v -0.02012300 0.02130600 -0.03327100
v -0.01903200 0.02099600 -0.03084500
v -0.01895000 0.02108500 -0.03180800
v -0.01766300 0.02082500 -0.02984300
v -0.01808800 0.02082300 -0.02956100
v -0.01621500 0.02051400 -0.02711800
v -0.01665300 0.02050300 -0.02672400
v -0.01812600 0.02098800 -0.03129000
v -0.01883600 0.02118000 -0.03280900
v -0.01576000 0.02052100 -0.02747300
v -0.01670200 0.02066300 -0.02859300
v -0.01505900 0.02036600 -0.02595000
v -0.01505900 0.02036600 -0.02595000
v -0.01505900 0.02036600 -0.02595000
v -0.01699200 0.02082400 -0.03021200
v -0.01620900 0.02066300 -0.02887900
v -0.01761800 0.02099200 -0.03162600
v -0.01816600 0.02122100 -0.03358900
v -0.01500800 0.02049300 -0.02755800
v -0.01464900 0.02037500 -0.02629700
v -0.01699200 0.02095000 -0.03155000
v -0.01558000 0.02065200 -0.02910600
v -0.01379100 0.02029800 -0.02578900
v -0.01393300 0.02033700 -0.02625300
v -0.01393300 0.02033700 -0.02625300
v -0.01753200 0.02067600 -0.02824700
v -0.02013700 0.02127100 -0.03292600
v -0.02000300 0.02122200 -0.03252600
v -0.01987800 0.02134200 -0.03376100
v -0.01947900 0.02134700 -0.03404000
v -0.01897200 0.02132400 -0.03411000
v -0.01897200 0.02132400 -0.03411000
v -0.01562000 0.02025600 -0.02499400
v -0.01477200 0.02025500 -0.02465700
v -0.01441700 0.02024700 -0.02474500
v -0.01411400 0.02024900 -0.02494800
v -0.01388600 0.02026300 -0.02526600
v -0.01384000 0.02032100 -0.02606400
v -0.01812700 0.02103600 -0.03351700
v -0.01812700 0.02103600 -0.03351700
v -0.01817800 0.02052100 -0.03361100
v -0.01817800 0.02052100 -0.03361100
v -0.01836600 0.02073400 -0.03386200
v -0.01382100 0.01960800 -0.02594100
v -0.01384000 0.02032100 -0.02606400
v -0.01379100 0.02029800 -0.02578900
v -0.01393300 0.02033700 -0.02625300
v -0.01393300 0.02033700 -0.02625300
v -0.01393300 0.02033700 -0.02625300
v -0.01395800 0.01990900 -0.02518500
v -0.01396500 0.01973400 -0.02519800
v -0.01382700 0.01975500 -0.02555200
v -0.01381300 0.02010400 -0.02552600
v -0.01395100 0.02008300 -0.02517200
v -0.01562000 0.02025600 -0.02499400
v -0.01564800 0.01969000 -0.02503400
v -0.01527000 0.02028300 -0.02473300
v -0.01581100 0.02034700 -0.02526400
v -0.01581100 0.02034700 -0.02526400
v -0.01584800 0.01965200 -0.02532400
v -0.01584800 0.01965200 -0.02532400
v -0.02002500 0.02087400 -0.03256200
v -0.02018100 0.02057600 -0.03299800
v -0.02004500 0.02052600 -0.03259400
v -0.02014500 0.02095900 -0.03330800
v -0.02016800 0.02060800 -0.03334100
v -0.01975300 0.02100000 -0.03393300
v -0.01952200 0.02065200 -0.03411500
v -0.01992100 0.02064700 -0.03383400
v -0.01903700 0.02098000 -0.03415100
v -0.01901300 0.02062900 -0.03418500
v -0.01828800 0.02054400 -0.03378000
v -0.01865500 0.02059700 -0.03408000
v -0.02000300 0.02122200 -0.03252600
v -0.02013700 0.02127100 -0.03292600
v -0.01947900 0.02134700 -0.03404000
v -0.01834600 0.02108100 -0.03382500
v -0.02012300 0.02130600 -0.03327100
v -0.01987800 0.02134200 -0.03376100
v -0.01629100 0.02009600 -0.03034100
v -0.01629100 0.02009600 -0.03034100
v -0.01629100 0.02009600 -0.03034100
v -0.01736700 0.02033100 -0.03220500
v -0.01736700 0.02033100 -0.03220500
v -0.01736700 0.02033100 -0.03220500
v -0.01736700 0.02033100 -0.03220500
v -0.01699200 0.02095000 -0.03155000
v -0.01699200 0.02095000 -0.03155000
v -0.01699200 0.02095000 -0.03155000
v -0.01396100 0.01964200 -0.02630500
v -0.01396100 0.01964200 -0.02630500
v -0.01546000 0.01992500 -0.02890300
v -0.01546000 0.01992500 -0.02890300
v -0.01546000 0.01992500 -0.02890300
v -0.01558000 0.02065200 -0.02910600
v -0.01558000 0.02065200 -0.02910600
v -0.01558000 0.02065200 -0.02910600
v -0.01861400 0.02129200 -0.03400600
v -0.01816600 0.02122100 -0.03358900
v -0.01897200 0.02132400 -0.03411000
v -0.01414400 0.01955200 -0.02499900
v -0.01391400 0.01956600 -0.02531800
v -0.01444700 0.01954900 -0.02479600
v -0.01530100 0.01993700 -0.02477500
v -0.01480100 0.01955800 -0.02470800
v -0.01530500 0.01958700 -0.02478300
v -0.01441700 0.02024700 -0.02474500
v -0.01665300 0.02050300 -0.02672400
v -0.01665300 0.02050300 -0.02672400
v -0.01665300 0.02050300 -0.02672400
v -0.01746400 0.01995800 -0.02812500
v -0.01746400 0.01995800 -0.02812500
v -0.01746400 0.01995800 -0.02812500
v -0.01644700 0.01976000 -0.02636300
v -0.01644700 0.01976000 -0.02636300
v -0.01644700 0.01976000 -0.02636300
v -0.01911200 0.02031000 -0.03097900
v -0.01911200 0.02031000 -0.03097900
v -0.01826100 0.02012300 -0.02950400
v -0.01826100 0.02012300 -0.02950400
v -0.01826100 0.02012300 -0.02950400
v -0.01903200 0.02099600 -0.03084500
v -0.01903200 0.02099600 -0.03084500
v -0.02004500 0.02052600 -0.03259400
v -0.01388600 0.02026300 -0.02526600
v -0.01477200 0.02025500 -0.02465700
v -0.01411400 0.02024900 -0.02494800
v -0.01753200 0.02067600 -0.02824700
v -0.01753200 0.02067600 -0.02824700
v -0.01753200 0.02067600 -0.02824700
v -0.02002500 0.02087400 -0.03256200
v -0.02002500 0.02087400 -0.03256200
v -0.01861400 0.02129200 -0.03400600
v -0.02000300 0.02122200 -0.03252600
vn -0.04540000 -0.99610000 -0.07540000
vn -0.04530000 -0.99610000 -0.07530000
vn -0.04540000 -0.99610000 -0.07530000
vn -0.04710000 -0.99610000 -0.07530000
vn -0.04710000 -0.99600000 -0.07530000
vn -0.04930000 -0.99570000 -0.07890000
vn -0.04530000 -0.99630000 -0.07330000
vn -0.04530000 -0.99630000 -0.07320000
vn -0.05880000 -0.99370000 -0.09520000
vn -0.06200000 -0.99300000 -0.10090000
vn -0.06260000 -0.99270000 -0.10350000
vn -0.05690000 -0.99380000 -0.09580000
vn -0.05120000 -0.99490000 -0.08690000
vn -0.05290000 -0.99500000 -0.08520000
vn -0.05570000 -0.99440000 -0.09010000
vn -0.04880000 -0.99540000 -0.08240000
vn -0.05470000 -0.99380000 -0.09700000
vn -0.05890000 -0.99320000 -0.10060000
vn -0.05350000 -0.99440000 -0.09150000
vn -0.04440000 -0.99600000 -0.07810000
vn -0.05210000 -0.99430000 -0.09280000
vn -0.04970000 -0.99490000 -0.08730000
vn -0.04550000 -0.99550000 -0.08280000
vn -0.05710000 -0.99310000 -0.10200000
vn -0.05680000 -0.99320000 -0.10190000
vn -0.05630000 -0.99300000 -0.10400000
vn -0.05630000 -0.99300000 -0.10410000
vn -0.05340000 -0.99360000 -0.09910000
vn -0.04970000 -0.99450000 -0.09250000
vn -0.04680000 -0.99510000 -0.08730000
vn -0.04100000 -0.99620000 -0.07680000
vn -0.04150000 -0.99610000 -0.07810000
vn -0.06250000 -0.99280000 -0.10230000
vn -0.06190000 -0.99250000 -0.10510000
vn -0.06060000 -0.99250000 -0.10600000
vn -0.05900000 -0.99260000 -0.10620000
vn -0.04640000 -0.99620000 -0.07430000
vn -0.04370000 -0.99640000 -0.07290000
vn -0.04260000 -0.99640000 -0.07310000
vn -0.04170000 -0.99640000 -0.07370000
vn -0.04180000 -0.99640000 -0.07380000
vn -0.05670000 -0.99290000 -0.10480000
vn -0.05790000 -0.99270000 -0.10570000
vn -0.05780000 -0.99270000 -0.10570000
vn -0.05790000 -0.99270000 -0.10580000
vn -0.04110000 -0.99640000 -0.07480000
vn 0.04660000 0.99600000 0.07690000
vn 0.04710000 0.99610000 0.07530000
vn 0.04710000 0.99610000 0.07520000
vn 0.04530000 0.99630000 0.07330000
vn 0.04520000 0.99630000 0.07330000
vn 0.06260000 0.99270000 0.10350000
vn 0.05870000 0.99370000 0.09500000
vn 0.05850000 0.99340000 0.09820000
vn 0.05380000 0.99440000 0.09150000
vn 0.05530000 0.99440000 0.09040000
vn 0.04850000 0.99550000 0.08200000
vn 0.05010000 0.99550000 0.08040000
vn 0.05580000 0.99380000 0.09640000
vn 0.05860000 0.99310000 0.10180000
vn 0.04770000 0.99540000 0.08280000
vn 0.05070000 0.99490000 0.08680000
vn 0.04490000 0.99600000 0.07750000
vn 0.04490000 0.99600000 0.07740000
vn 0.04490000 0.99600000 0.07730000
vn 0.05180000 0.99440000 0.09240000
vn 0.04950000 0.99490000 0.08780000
vn 0.05440000 0.99380000 0.09740000
vn 0.05640000 0.99300000 0.10420000
vn 0.04510000 0.99550000 0.08290000
vn 0.04360000 0.99590000 0.07890000
vn 0.05230000 0.99390000 0.09700000
vn 0.04710000 0.99500000 0.08840000
vn 0.04090000 0.99620000 0.07650000
vn 0.04150000 0.99610000 0.07810000
vn 0.04150000 0.99610000 0.07820000
vn 0.05330000 0.99490000 0.08580000
vn 0.06260000 0.99280000 0.10230000
vn 0.06210000 0.99300000 0.10100000
vn 0.06190000 0.99250000 0.10510000
vn 0.06060000 0.99250000 0.10590000
vn 0.05910000 0.99260000 0.10620000
vn 0.05900000 0.99260000 0.10620000
vn 0.04640000 0.99620000 0.07420000
vn 0.04370000 0.99640000 0.07290000
vn 0.04260000 0.99640000 0.07310000
vn 0.04180000 0.99640000 0.07380000
vn 0.04110000 0.99640000 0.07480000
vn 0.04110000 0.99610000 0.07750000
vn 0.86610000 0.00330000 -0.49980000
vn 0.86620000 0.00340000 -0.49970000
vn 0.86560000 0.00340000 -0.50070000
vn 0.86570000 0.00340000 -0.50050000
vn 0.70940000 0.03380000 -0.70400000
vn 0.98580000 -0.02770000 -0.16540000
vn 0.94350000 -0.01330000 -0.33110000
vn 0.99680000 -0.03520000 -0.07240000
vn 0.86610000 0.00310000 -0.49990000
vn 0.86630000 0.00310000 -0.49950000
vn 0.86610000 0.00300000 -0.49990000
vn 0.85090000 -0.07410000 0.52010000
vn 0.85090000 -0.07410000 0.52010000
vn 0.98070000 -0.05420000 0.18770000
vn 0.98070000 -0.05420000 0.18760000
vn 0.85090000 -0.07410000 0.52010000
vn -0.72870000 -0.01710000 0.68460000
vn -0.73000000 -0.01690000 0.68330000
vn -0.39770000 -0.04930000 0.91620000
vn -0.86510000 0.00310000 0.50170000
vn -0.86500000 0.00310000 0.50170000
vn -0.86560000 0.00320000 0.50080000
vn -0.86550000 0.00320000 0.50100000
vn -0.86570000 0.00330000 0.50050000
vn -0.99050000 0.04940000 0.12830000
vn -0.86430000 0.00290000 0.50300000
vn -0.97710000 0.08220000 -0.19610000
vn -0.97770000 0.08160000 -0.19350000
vn -0.60650000 0.12110000 -0.78580000
vn -0.36750000 0.12090000 -0.92210000
vn -0.74520000 0.11610000 -0.65660000
vn 0.07280000 0.10180000 -0.99210000
vn 0.11400000 0.09900000 -0.98850000
vn 0.79160000 0.01920000 -0.61080000
vn 0.44840000 0.06890000 -0.89120000
vn -0.86580000 0.00330000 0.50040000
vn -0.99060000 0.04940000 0.12740000
vn -0.36760000 0.12090000 -0.92210000
vn 0.70930000 0.03380000 -0.70410000
vn -0.97720000 0.08220000 -0.19570000
vn -0.74550000 0.11610000 -0.65630000
vn 0.86620000 0.00340000 -0.49980000
vn 0.86620000 0.00310000 -0.49970000
vn 0.86620000 0.00330000 -0.49970000
vn 0.86630000 0.00310000 -0.49960000
vn 0.86630000 0.00360000 -0.49950000
vn 0.86630000 0.00330000 -0.49960000
vn 0.86620000 0.00330000 -0.49960000
vn 0.86630000 0.00330000 -0.49950000
vn 0.86630000 0.00320000 -0.49940000
vn 0.86620000 0.00340000 -0.49980000
vn 0.86620000 0.00310000 -0.49970000
vn 0.86610000 0.00300000 -0.49990000
vn 0.86610000 0.00310000 -0.49990000
vn 0.86610000 0.00300000 -0.49990000
vn 0.86620000 0.00310000 -0.49970000
vn 0.86610000 0.00310000 -0.49990000
vn 0.86620000 0.00310000 -0.49970000
vn 0.86620000 0.00340000 -0.49980000
vn 0.44870000 0.06880000 -0.89100000
vn 0.86490000 0.00360000 -0.50200000
vn 0.11390000 0.09890000 -0.98860000
vn 0.68840000 -0.08200000 0.72060000
vn 0.90610000 -0.06860000 0.41750000
vn 0.40320000 -0.08410000 0.91120000
vn -0.41510000 -0.04800000 0.90850000
vn 0.06780000 -0.07580000 0.99480000
vn -0.40090000 -0.04900000 0.91480000
vn 0.40390000 -0.08410000 0.91090000
vn -0.86590000 0.00340000 0.50020000
vn -0.86600000 0.00310000 0.50000000
vn -0.86590000 0.00320000 0.50030000
vn -0.86590000 0.00340000 0.50020000
vn -0.86580000 0.00310000 0.50030000
vn -0.86590000 0.00320000 0.50030000
vn -0.86610000 0.00320000 0.49990000
vn -0.86600000 0.00320000 0.50000000
vn -0.86620000 0.00320000 0.49970000
vn -0.86580000 0.00330000 0.50040000
vn -0.86580000 0.00340000 0.50040000
vn -0.86580000 0.00300000 0.50040000
vn -0.86580000 0.00320000 0.50040000
vn -0.86580000 0.00330000 0.50040000
vn -0.86580000 0.00320000 0.50040000
vn -0.86580000 0.00330000 0.50040000
vn -0.86580000 0.00340000 0.50040000
vn 0.90640000 -0.06850000 0.41680000
vn 0.06540000 -0.07560000 0.99500000
vn 0.68800000 -0.08200000 0.72110000
vn -0.86590000 0.00340000 0.50020000
vn -0.86590000 0.00280000 0.50020000
vn -0.86580000 0.00320000 0.50040000
vn -0.86580000 0.00340000 0.50040000
vn -0.86580000 0.00330000 0.50040000
vn 0.05790000 0.99270000 0.10570000
vn -0.86580000 0.00330000 0.50040000
vt 0.98428600 0.99423300
vt 0.98428600 0.99423300
vt 0.98428600 0.99423300
vt 0.97937400 0.99276700
vt 0.97937400 0.99276700
vt 0.97975900 0.98548000
vt 0.98105900 0.99734100
vt 0.98105900 0.99734100
vt 0.98121100 0.95424400
vt 0.98160500 0.94367300
vt 0.98372500 0.93972600
vt 0.98521400 0.95492600
vt 0.98671900 0.97279400
vt 0.98035700 0.97336800
vt 0.98079500 0.96404900
vt 0.98634500 0.98141300
vt 0.99240900 0.95512100
vt 0.98816900 0.94634000
vt 0.98816900 0.96385600
vt 0.99111600 0.99116200
vt 0.99304300 0.96366600
vt 0.99217700 0.97334300
vt 0.99583100 0.98307900
vt 0.99347700 0.94615500
vt 0.99347700 0.94615500
vt 0.99770800 0.94398100
vt 0.99770800 0.94398100
vt 0.99804300 0.95315200
vt 0.99856400 0.96555100
vt 0.99900800 0.97529700
vt 0.99948100 0.99570500
vt 0.99995600 0.99331100
vt 0.98232600 0.94136000
vt 0.98717100 0.93810700
vt 0.99075100 0.93787300
vt 0.99429300 0.93891400
vt 0.97952400 0.99488300
vt 0.98497600 0.99935600
vt 0.98849500 1.00000000
vt 0.99216800 0.99984700
vt 0.99216800 0.99984700
vt 0.99758300 0.94285400
vt 0.99624900 0.94039700
vt 0.99624900 0.94039700
vt 0.99624900 0.94039700
vt 0.99574900 0.99881300
vt 0.98351500 0.99093300
vt 0.97936500 0.99281000
vt 0.97936500 0.99281000
vt 0.98111400 0.99734600
vt 0.98111400 0.99734600
vt 0.98375700 0.93974500
vt 0.98120600 0.95466500
vt 0.98570300 0.95021400
vt 0.98653100 0.96373000
vt 0.98226900 0.96385600
vt 0.98521400 0.98194700
vt 0.97991200 0.98258900
vt 0.98920300 0.95516700
vt 0.99033100 0.94566600
vt 0.99043000 0.98148900
vt 0.98816900 0.97290100
vt 0.98897800 0.99160200
vt 0.98897800 0.99160200
vt 0.98897800 0.99160200
vt 0.99289800 0.96382700
vt 0.99313600 0.97288600
vt 0.99408500 0.95492600
vt 0.99773900 0.94366000
vt 0.99686200 0.98323900
vt 0.99408500 0.99099300
vt 0.99820300 0.95701500
vt 0.99893800 0.97349500
vt 0.99904000 0.99623600
vt 0.99994800 0.99326200
vt 0.99994800 0.99326200
vt 0.98041300 0.97212700
vt 0.98232600 0.94136000
vt 0.98161700 0.94366700
vt 0.98717100 0.93810700
vt 0.99075100 0.93787300
vt 0.99429100 0.93891500
vt 0.99429100 0.93891500
vt 0.97955000 0.99487800
vt 0.98498100 0.99933600
vt 0.98849500 1.00000000
vt 0.99216800 0.99984700
vt 0.99575000 0.99881300
vt 0.99992500 0.99461400
vt 0.03026800 0.00895200
vt 0.03026800 0.00895200
vt 0.02987300 0.00001800
vt 0.02987300 0.00001800
vt 0.02692200 0.00298500
vt 0.10714000 -0.00001900
vt 0.10552400 0.01191900
vt 0.10800800 0.01192500
vt 0.10367900 0.01192700
vt 0.10367900 0.01192700
vt 0.10367900 0.01192700
vt 0.11380900 0.00597000
vt 0.11380900 0.00298500
vt 0.11045500 0.00298500
vt 0.11045500 0.00895600
vt 0.11380900 0.00895600
vt 0.13091200 0.01085400
vt 0.13090500 0.00118800
vt 0.12710000 0.01189200
vt 0.13388300 0.01193500
vt 0.13388300 0.01193500
vt 0.13395400 0.00001200
vt 0.13395400 0.00001200
vt 0.00000000 0.00597000
vt 0.00376000 0.00000000
vt -0.00002800 -0.00001500
vt 0.00687500 0.00597000
vt 0.00684500 -0.00004700
vt 0.01351500 0.00597000
vt 0.01606900 0.00000000
vt 0.01176900 0.00000000
vt 0.02023100 0.00597000
vt 0.02061500 -0.00001000
vt 0.02809700 0.00000000
vt 0.02389200 -0.00000300
vt 0.00000000 0.01194100
vt 0.00376000 0.01194100
vt 0.01606900 0.01194100
vt 0.02692200 0.00895600
vt 0.00687400 0.01193400
vt 0.01176900 0.01194100
vt 0.06293700 0.00000400
vt 0.06293700 0.00000400
vt 0.06293700 0.00000400
vt 0.04409900 0.00000300
vt 0.04409900 0.00000300
vt 0.04409900 0.00000300
vt 0.04409900 0.00000300
vt 0.05003800 0.01194400
vt 0.05003800 0.01194400
vt 0.05003800 0.01194400
vt 0.10371000 0.00000000
vt 0.10371000 0.00000000
vt 0.07747800 0.00000500
vt 0.07747800 0.00000500
vt 0.07747800 0.00000500
vt 0.07480800 0.01193900
vt 0.07480800 0.01193900
vt 0.07480800 0.01193900
vt 0.02389300 0.01193800
vt 0.02936700 0.01193600
vt 0.02061500 0.01193100
vt 0.11619300 0.00000000
vt 0.11273800 0.00000000
vt 0.11941400 0.00000000
vt 0.12727800 0.00597000
vt 0.12263400 0.00000000
vt 0.12713300 0.00005600
vt 0.11941400 0.01194100
vt 0.14870100 0.01193300
vt 0.14870100 0.01193300
vt 0.14870100 0.01193300
vt 0.16232500 0.00000200
vt 0.16232500 0.00000200
vt 0.16232500 0.00000200
vt 0.14447800 -0.00000300
vt 0.14447800 -0.00000300
vt 0.14447800 -0.00000300
vt 0.19127600 0.00000300
vt 0.19127600 0.00000300
vt 0.17632000 0.00000600
vt 0.17632000 0.00000600
vt 0.17632000 0.00000600
vt 0.19059900 0.01194500
vt 0.19059900 0.01194500
vt 0.20768600 -0.00000100
vt 0.11273800 0.01194100
vt 0.12264700 0.01192700
vt 0.11619300 0.01194100
vt 0.16417400 0.01194400
vt 0.16417400 0.01194400
vt 0.16417400 0.01194400
vt 0.20771200 0.00597000
vt 0.20771200 0.00597000
vt 0.99624700 0.94039800
vt 0.20771200 0.01194100
f 1/1/1 5/5/5 6/6/6
f 3/3/3 7/7/7 5/5/5
f 9/9/9 10/10/10 11/11/11
f 11/11/11 18/18/18 9/9/9
f 15/15/15 19/19/19 13/13/13
f 16/16/16 6/6/6 14/14/14
f 16/16/16 20/20/20 6/6/6
f 18/18/18 25/25/25 17/17/17
f 19/19/19 15/15/15 12/12/12
f 19/19/19 12/12/12 17/17/17
f 19/19/19 21/21/21 22/22/22
f 22/22/22 30/30/30 23/23/23
f 25/25/25 26/26/26 28/28/28
f 25/25/25 28/28/28 17/17/17
f 29/29/29 21/21/21 17/17/17
f 21/21/21 29/29/29 22/22/22
f 23/23/23 31/31/31 20/20/20
f 31/31/31 23/23/23 32/32/32
f 33/33/33 11/11/11 10/10/10
f 18/18/18 11/11/11 34/34/34
f 35/35/35 25/25/25 18/18/18
f 25/25/25 35/35/35 36/36/36
f 37/37/37 4/4/4 7/7/7
f 38/38/38 8/8/8 3/3/3
f 39/39/39 38/38/38 2/2/2
f 20/20/20 40/40/40 1/1/1
f 42/42/42 27/27/27 45/45/45
f 44/44/44 26/26/26 24/24/24
f 46/46/46 20/20/20 31/31/31
f 40/40/40 20/20/20 46/46/46
f 47/47/47 48/48/48 50/50/50
f 52/52/52 78/78/78 54/54/54
f 54/54/54 53/53/53 55/55/55
f 47/47/47 57/57/57 58/58/58
f 59/59/59 60/60/60 54/54/54
f 55/55/55 59/59/59 54/54/54
f 61/61/61 62/62/62 57/57/57
f 63/63/63 71/71/71 61/61/61
f 66/66/66 68/68/68 59/59/59
f 66/66/66 55/55/55 62/62/62
f 68/68/68 69/69/69 60/60/60
f 70/70/70 73/73/73 61/61/61
f 71/71/71 70/70/70 61/61/61
f 69/69/69 68/68/68 72/72/72
f 73/73/73 72/72/72 66/66/66
f 70/70/70 71/71/71 74/74/74
f 74/74/74 75/75/75 70/70/70
f 77/77/77 56/56/56 53/53/53
f 78/78/78 79/79/79 53/53/53
f 80/80/80 52/52/52 60/60/60
f 60/60/60 81/81/81 80/80/80
f 60/60/60 83/83/83 81/81/81
f 84/84/84 51/51/51 49/49/49
f 47/47/47 50/50/50 65/65/65
f 63/63/63 85/85/85 86/86/86
f 86/86/86 87/87/87 63/63/63
f 87/87/87 88/88/88 63/63/63
f 60/60/60 69/69/69 83/83/83
f 73/73/73 70/70/70 75/75/75
f 88/88/88 74/74/74 71/71/71
f 74/74/74 89/89/89 76/76/76
f 90/90/90 92/92/92 94/94/94
f 95/95/95 96/96/96 97/97/97
f 99/99/99 96/96/96 95/95/95
f 101/101/101 102/102/102 103/103/103
f 104/104/104 103/103/103 95/95/95
f 103/103/103 104/104/104 101/101/101
f 107/107/107 155/155/155 106/106/106
f 112/112/112 107/107/107 110/110/110
f 113/113/113 114/114/114 115/115/115
f 116/116/116 117/117/117 114/114/114
f 118/118/118 119/119/119 120/120/120
f 121/121/121 122/122/122 119/119/119
f 117/117/117 116/116/116 120/120/120
f 94/94/94 123/123/123 124/124/124
f 121/121/121 124/124/124 122/122/122
f 113/113/113 116/116/116 114/114/114
f 94/94/94 124/124/124 121/121/121
f 113/113/113 125/125/125 126/126/126
f 118/118/118 127/127/127 121/121/121
f 121/121/121 119/119/119 118/118/118
f 128/128/128 94/94/94 121/121/121
f 116/116/116 129/129/129 130/130/130
f 123/123/123 94/94/94 92/92/92
f 133/133/133 134/134/134 139/139/139
f 100/100/100 142/142/142 144/144/144
f 132/132/132 147/147/147 145/145/145
f 129/129/129 116/116/116 126/126/126
f 127/127/127 118/118/118 130/130/130
f 121/121/121 149/149/149 128/128/128
f 128/128/128 150/150/150 90/90/90
f 149/149/149 150/150/150 128/128/128
f 121/121/121 151/151/151 149/149/149
f 137/137/137 150/150/150 138/138/138
f 98/98/98 143/143/143 146/146/146
f 102/102/102 152/152/152 153/153/153
f 102/102/102 154/154/154 152/152/152
f 95/95/95 103/103/103 153/153/153
f 155/155/155 156/156/156 154/154/154
f 101/101/101 154/154/154 102/102/102
f 156/156/156 155/155/155 157/157/157
f 154/154/154 101/101/101 155/155/155
f 101/101/101 158/158/158 155/155/155
f 161/161/161 164/164/164 165/165/165
f 168/168/168 172/172/172 174/174/174
f 174/174/174 183/183/183 168/168/168
f 105/105/105 104/104/104 176/176/176
f 155/155/155 177/177/177 108/108/108
f 158/158/158 101/101/101 105/105/105
f 104/104/104 97/97/97 176/176/176
f 105/105/105 176/176/176 178/178/178
f 158/158/158 105/105/105 178/178/178
f 110/110/110 160/160/160 167/167/167
f 171/171/171 181/181/181 173/173/173
f 15/15/15 9/9/9 12/12/12
f 16/16/16 14/14/14 13/13/13
f 16/16/16 13/13/13 22/22/22
f 20/20/20 16/16/16 23/23/23
f 25/25/25 36/36/36 43/43/43
f 29/29/29 17/17/17 28/28/28
f 32/32/32 23/23/23 30/30/30
f 47/47/47 58/58/58 48/48/48
f 77/77/77 62/62/62 55/55/55
f 57/57/57 77/77/77 58/58/58
f 62/62/62 77/77/77 57/57/57
f 63/63/63 57/57/57 47/47/47
f 67/67/67 62/62/62 61/61/61
f 68/68/68 60/60/60 59/59/59
f 184/184/184 82/82/82 69/69/69
f 72/72/72 68/68/68 66/66/66
f 73/73/73 66/66/66 67/67/67
f 135/135/135 93/93/93 91/91/91
f 90/90/90 94/94/94 128/128/128
f 95/95/95 141/141/141 99/99/99
f 104/104/104 95/95/95 97/97/97
f 107/107/107 157/157/157 155/155/155
f 166/166/166 111/111/111 109/109/109
f 116/116/116 118/118/118 120/120/120
f 113/113/113 126/126/126 116/116/116
f 127/127/127 151/151/151 121/121/121
f 116/116/116 130/130/130 118/118/118
f 140/140/140 148/148/148 131/131/131
f 90/90/90 150/150/150 136/136/136
f 103/103/103 102/102/102 153/153/153
f 158/158/158 177/177/177 155/155/155
f 159/159/159 179/179/179 162/162/162
f 163/163/163 180/180/180 170/170/170
f 174/174/174 185/185/185 183/183/183
f 18/18/18 12/12/12 9/9/9
f 15/15/15 13/13/13 14/14/14
f 20/20/20 1/1/1 6/6/6
f 18/18/18 17/17/17 12/12/12
f 19/19/19 17/17/17 21/21/21
f 19/19/19 22/22/22 13/13/13
f 22/22/22 23/23/23 16/16/16
f 29/29/29 30/30/30 22/22/22
f 35/35/35 18/18/18 34/34/34
f 41/41/41 39/39/39 2/2/2
f 78/78/78 53/53/53 54/54/54
f 53/53/53 56/56/56 55/55/55
f 63/63/63 61/61/61 57/57/57
f 66/66/66 59/59/59 55/55/55
f 66/66/66 62/62/62 67/67/67
f 73/73/73 67/67/67 61/61/61
f 52/52/52 54/54/54 60/60/60
f 50/50/50 85/85/85 64/64/64
f 88/88/88 71/71/71 63/63/63
f 104/104/104 105/105/105 101/101/101
f 155/155/155 108/108/108 106/106/106
f 107/107/107 106/106/106 110/110/110
f 182/182/182 175/175/175 169/169/169
f 77/77/77 55/55/55 56/56/56

