mtllib material.mtl
usemtl Material-7011油漆.004
v -0.03524500 -0.15494500 -0.23375000
v -0.01492800 -0.15478100 -0.21327300
v -0.02949900 -0.14844500 -0.22152700
v -0.04002400 -0.14882000 -0.24023800
v -0.01371500 -0.14855100 -0.21103000
v 0.03454100 -0.15494000 -0.26877000
v 0.01130000 -0.15493000 -0.28733900
v 0.03409500 -0.14849500 -0.27509900
v 0.00516400 -0.14848500 -0.29136500
v -0.01112600 -0.15493200 -0.28659600
v -0.03042700 -0.15493300 -0.27441400
v -0.01959000 -0.14845300 -0.28605600
v -0.03808600 -0.15493200 -0.25353700
v -0.03762600 -0.14848200 -0.26781600
v -0.03524500 -0.15494500 -0.23375000
v -0.04002400 -0.14882000 -0.24023800
v 0.01506300 -0.15492700 -0.21366200
v 0.03709800 -0.15497300 -0.23622300
v 0.03223200 -0.14882700 -0.22478200
v 0.03454100 -0.15494000 -0.26877000
v 0.04097800 -0.14845600 -0.24541300
v 0.03409500 -0.14849500 -0.27509900
v 0.01988700 -0.14845800 -0.21397400
v 0.03223200 -0.14882700 -0.22478200
v 0.04097800 -0.14845600 -0.24541300
v 0.03409500 -0.14849500 -0.27509900
v -0.01959000 -0.14845300 -0.28605600
v 0.00516400 -0.14848500 -0.29136500
v -0.02949900 -0.14844500 -0.22152700
v -0.03762600 -0.14848200 -0.26781600
v -0.04002400 -0.14882000 -0.24023800
v -0.01371500 -0.14855100 -0.21103000
v -0.01371500 -0.14855100 -0.21103000
v -0.01371500 -0.14855100 -0.21103000
v 0.01506300 -0.15492700 -0.21366200
v 0.01988700 -0.14845800 -0.21397400
v -0.01492800 -0.15478100 -0.21327300
v 0.04097800 -0.14845600 -0.24541300
v 0.03223200 -0.14882700 -0.22478200
v 0.03709800 -0.15497300 -0.23622300
v 0.01506300 -0.15492700 -0.21366200
v 0.01506300 -0.15492700 -0.21366200
v 0.01506300 -0.15492700 -0.21366200
v -0.01492800 -0.15478100 -0.21327300
v -0.03524500 -0.15494500 -0.23375000
v -0.03808600 -0.15493200 -0.25353700
v -0.03808600 -0.15493200 -0.25353700
v -0.03042700 -0.15493300 -0.27441400
v -0.03042700 -0.15493300 -0.27441400
v -0.01112600 -0.15493200 -0.28659600
v 0.01130000 -0.15493000 -0.28733900
v 0.03454100 -0.15494000 -0.26877000
v 0.03454100 -0.15494000 -0.26877000
v 0.03709800 -0.15497300 -0.23622300
v 0.01988700 -0.14845800 -0.21397400
vn -0.82910000 -0.40360000 0.38680000
vn -0.35550000 -0.39980000 0.84480000
vn -0.65730000 -0.40440000 0.63590000
vn -0.89140000 -0.39110000 0.22880000
vn -0.30330000 -0.40230000 0.86380000
vn 0.80030000 -0.40210000 -0.44470000
vn 0.26540000 -0.40010000 -0.87720000
vn 0.73790000 -0.39670000 -0.54600000
vn 0.11760000 -0.39760000 -0.91000000
vn -0.26580000 -0.40620000 -0.87430000
vn -0.71470000 -0.39980000 -0.57390000
vn -0.43720000 -0.40400000 -0.80350000
vn -0.90990000 -0.40620000 -0.08450000
vn -0.82860000 -0.39840000 -0.39340000
vn -0.83660000 -0.39690000 0.37760000
vn -0.88970000 -0.40220000 0.21590000
vn 0.35600000 -0.39990000 0.84460000
vn 0.86060000 -0.39390000 0.32290000
vn 0.72220000 -0.40360000 0.56180000
vn 0.81820000 -0.38790000 -0.42430000
vn 0.90960000 -0.40180000 0.10590000
vn 0.76350000 -0.37140000 -0.52840000
vn 0.00000000 1.00000000 0.00000000
vn 0.00000000 1.00000000 0.00000000
vn 0.00000000 1.00000000 0.00000000
vn 0.00000000 1.00000000 0.00000000
vn 0.00000000 1.00000000 0.00000000
vn 0.00000000 1.00000000 0.00000000
vn 0.00000000 1.00000000 0.00000000
vn 0.00000000 1.00000000 0.00000000
vn 0.00000000 1.00000000 0.00000000
vn 0.00000000 1.00000000 0.00000000
vn 0.08720000 -0.00000000 0.99620000
vn 0.08710000 -0.00000000 0.99620000
vn 0.08720000 -0.00000000 0.99620000
vn 0.08720000 -0.00000000 0.99620000
vn 0.08710000 -0.00000000 0.99620000
vn 0.99340000 0.00000000 0.11440000
vn 0.78670000 0.00000000 0.61740000
vn 0.93770000 -0.00000000 0.34740000
vn 0.00000000 -1.00000000 -0.00000000
vn 0.00010000 -1.00000000 0.00000000
vn 0.00000000 -1.00000000 0.00010000
vn 0.00000000 -1.00000000 -0.00000000
vn 0.00000000 -1.00000000 -0.00000000
vn 0.00000000 -1.00000000 0.00010000
vn 0.00000000 -1.00000000 -0.00000000
vn 0.00000000 -1.00000000 0.00010000
vn 0.00010000 -1.00000000 0.00000000
vn 0.00010000 -1.00000000 0.00000000
vn 0.00010000 -1.00000000 0.00000000
vn 0.00000000 -1.00000000 -0.00000000
vn 0.00010000 -1.00000000 0.00000000
vn 0.00000000 -1.00000000 -0.00000000
vn 0.44440000 -0.40370000 0.79970000
vt 0.51362600 0.28677300
vt 0.59684500 0.28872300
vt 0.55080200 0.33640700
vt 0.49208200 0.33067900
vt 0.60264800 0.33597200
vt 0.36497000 0.96564800
vt 0.45957900 0.96440500
vt 0.38027900 1.01473500
vt 0.47948300 1.01412300
vt 0.53122300 0.96434700
vt 0.60412500 0.96425600
vt 0.55595100 1.01463700
vt 0.67518800 0.96434700
vt 0.63235800 1.01467000
vt 0.73871800 0.96248900
vt 0.71585900 1.01197600
vt 0.35207700 0.96554300
vt 0.45194200 0.96322500
vt 0.41491100 1.01152300
vt 0.55558400 0.96068600
vt 0.48084200 1.01446500
vt 0.57321800 1.00475500
vt 0.06471900 0.28340200
vt 0.02833800 0.35358800
vt -0.00057400 0.49682100
vt 0.01117300 0.71529200
vt 0.15553900 0.82819400
vt 0.08647800 0.85086200
vt 0.19813100 0.36903900
vt 0.20930100 0.70802200
vt 0.22239800 0.51070000
vt 0.15742000 0.28339100
vt 0.23418700 0.28325800
vt 0.23418700 0.28325800
vt 0.15477600 0.32949700
vt 0.14148200 0.28257100
vt 0.23705000 0.32942200
vt 0.88839700 0.28228400
vt 0.94748000 0.28520300
vt 0.91437100 0.32950600
vt 0.26415400 0.05682500
vt 0.26415400 0.05682500
vt 0.26415400 0.05682500
vt 0.18194600 0.07294300
vt 0.13122200 0.23345900
vt 0.12818200 0.37796900
vt 0.12818200 0.37796900
vt 0.15415500 0.52371200
vt 0.15415500 0.52371200
vt 0.20991900 0.59939600
vt 0.27150300 0.59060200
vt 0.33068900 0.44200600
vt 0.33068900 0.44200600
vt 0.32989300 0.20565000
vt 0.36574200 1.01446700
f 1/1/1 2/2/2 3/3/3
f 1/1/1 3/3/3 4/4/4
f 5/5/5 3/3/3 2/2/2
f 6/6/6 7/7/7 8/8/8
f 7/7/7 9/9/9 8/8/8
f 10/10/10 11/11/11 12/12/12
f 9/9/9 10/10/10 12/12/12
f 11/11/11 13/13/13 14/14/14
f 13/13/13 15/15/15 16/16/16
f 11/11/11 14/14/14 12/12/12
f 16/16/16 14/14/14 13/13/13
f 17/17/17 18/18/18 19/19/19
f 20/20/20 21/21/21 18/18/18
f 20/20/20 22/22/22 21/21/21
f 23/23/23 24/24/24 25/25/25
f 26/26/26 23/23/23 25/25/25
f 27/27/27 26/26/26 28/28/28
f 26/26/26 27/27/27 23/23/23
f 30/30/30 31/31/31 29/29/29
f 29/29/29 27/27/27 30/30/30
f 32/32/32 23/23/23 29/29/29
f 33/33/33 35/35/35 36/36/36
f 35/35/35 34/34/34 37/37/37
f 38/38/38 39/39/39 40/40/40
f 41/41/41 44/44/44 45/45/45
f 47/47/47 41/41/41 45/45/45
f 43/43/43 46/46/46 48/48/48
f 50/50/50 51/51/51 49/49/49
f 42/42/42 51/51/51 53/53/53
f 54/54/54 41/41/41 52/52/52
f 9/9/9 7/7/7 10/10/10
f 55/55/55 17/17/17 19/19/19
f 27/27/27 29/29/29 23/23/23
f 51/51/51 42/42/42 49/49/49

