mtllib material.mtl
usemtl Material-7011油漆.002
v -0.03063100 -0.06833200 0.00163500
v -0.03063100 -0.06833200 0.00163500
v -0.03063100 -0.06833200 0.00163500
v 0.01070100 -0.06833200 -0.03535400
v 0.01070100 -0.06833200 -0.03535400
v 0.01070100 -0.06833200 -0.03535400
v 0.03559300 -0.06833200 0.00394700
v 0.03559300 -0.06833200 0.00394700
v 0.03559300 -0.06833200 0.00394700
v 0.01070100 -0.06833100 -0.03535400
v 0.01070100 -0.06833100 -0.03535400
v 0.01070100 -0.06833100 -0.03535400
v -0.03063100 -0.06833100 0.00163500
v -0.03063100 -0.06833100 0.00163500
v -0.03063100 -0.06833100 0.00163500
v 0.03559300 -0.06833100 0.00394700
v 0.03559300 -0.06833100 0.00394700
v 0.03559300 -0.06833100 0.00394700
v -0.03063100 -0.06833100 0.00163500
v -0.03063100 -0.06833100 0.00163500
v -0.03063100 -0.06833100 0.00163500
v 0.01070100 -0.06833100 -0.03535400
v 0.01070100 -0.06833100 -0.03535400
v 0.01070100 -0.06833100 -0.03535400
v 0.03559300 -0.06833100 0.00394700
v 0.03559300 -0.06833100 0.00394700
v 0.03559300 -0.06833100 0.00394700
v 0.01070100 -0.06833200 -0.03535400
v 0.01070100 -0.06833200 -0.03535400
v 0.01070100 -0.06833200 -0.03535400
v -0.03063100 -0.06833200 0.00163500
v -0.03063100 -0.06833200 0.00163500
v -0.03063100 -0.06833200 0.00163500
v 0.03559300 -0.06833200 0.00394700
v 0.03559300 -0.06833200 0.00394700
v 0.03559300 -0.06833200 0.00394700
vn 0.00000000 -1.00000000 -0.00000000
vn -0.66800000 0.00000000 -0.74410000
vn -0.03490000 0.00000000 0.99940000
vn 0.00000000 -1.00000000 -0.00000000
vn -0.66800000 0.00000000 -0.74410000
vn 0.84490000 0.00000000 -0.53500000
vn 0.84490000 0.00000000 -0.53500000
vn 0.00000000 -1.00000000 -0.00000000
vn -0.03490000 0.00000000 0.99940000
vn 0.84490000 0.00000000 -0.53500000
vn -0.66800000 0.00000000 -0.74410000
vn 0.00000000 1.00000000 0.00000000
vn 0.00000000 1.00000000 0.00000000
vn -0.66800000 0.00000000 -0.74410000
vn -0.03490000 0.00000000 0.99940000
vn 0.00000000 1.00000000 0.00000000
vn 0.84490000 0.00000000 -0.53500000
vn -0.03490000 0.00000000 0.99940000
vn 0.00000000 1.00000000 0.00000000
vn -0.66800000 0.00000000 -0.74410000
vn -0.03490000 0.00000000 0.99940000
vn 0.84490000 0.00000000 -0.53500000
vn -0.66800000 0.00000000 -0.74410000
vn 0.00000000 1.00000000 0.00000000
vn -0.03490000 0.00000000 0.99940000
vn 0.00000000 1.00000000 0.00000000
vn 0.84490000 0.00000000 -0.53500000
vn -0.66800000 0.00000000 -0.74410000
vn 0.84490000 0.00000000 -0.53500000
vn 0.00000000 -1.00000000 -0.00000000
vn -0.03490000 0.00000000 0.99940000
vn 0.00000000 -1.00000000 -0.00000000
vn -0.66800000 0.00000000 -0.74410000
vn -0.03490000 0.00000000 0.99940000
vn 0.00000000 -1.00000000 -0.00000000
vn 0.84490000 0.00000000 -0.53500000
vt 0.54600700 0.33634600
vt 0.54600700 0.33634600
vt 0.54600700 0.33634600
vt 0.94881300 0.37051900
vt 0.94881300 0.37051900
vt 0.94881300 0.37051900
vt 0.87470800 0.87561000
vt 0.87470800 0.87561000
vt 0.87470800 0.87561000
vt 0.52491100 0.62948000
vt 0.52491100 0.62948000
vt 0.52491100 0.62948000
vt 0.12210500 0.66365300
vt 0.12210500 0.66365300
vt 0.12210500 0.66365300
vt 0.45080600 0.12439000
vt 0.45080600 0.12439000
vt 0.45080600 0.12439000
vt 0.54600700 0.33634600
vt 0.54600700 0.33634600
vt 0.54600700 0.33634600
vt 0.94881300 0.37051900
vt 0.94881300 0.37051900
vt 0.94881300 0.37051900
vt 0.87470800 0.87561000
vt 0.87470800 0.87561000
vt 0.87470800 0.87561000
vt 0.52491100 0.62948000
vt 0.52491100 0.62948000
vt 0.52491100 0.62948000
vt 0.12210500 0.66365300
vt 0.12210500 0.66365300
vt 0.12210500 0.66365300
vt 0.45080600 0.12439000
vt 0.45080600 0.12439000
vt 0.45080600 0.12439000
f 1/1/1 4/4/4 8/8/8
f 12/12/12 13/13/13 16/16/16
f 19/19/19 26/26/26 24/24/24
f 30/30/30 35/35/35 32/32/32
f 5/5/5 2/2/2 20/20/20
f 20/20/20 23/23/23 5/5/5
f 3/3/3 9/9/9 25/25/25
f 25/25/25 21/21/21 3/3/3
f 7/7/7 6/6/6 22/22/22
f 22/22/22 27/27/27 7/7/7
f 14/14/14 11/11/11 28/28/28
f 28/28/28 33/33/33 14/14/14
f 10/10/10 17/17/17 36/36/36
f 36/36/36 29/29/29 10/10/10
f 18/18/18 15/15/15 31/31/31
f 31/31/31 34/34/34 18/18/18

