mtllib material.mtl
usemtl Material-7011油漆.003
v -0.02897200 -0.14843200 -0.22194500
v -0.03457000 -0.14843200 -0.22938500
v 0.03762500 -0.14843200 -0.23570200
v -0.03854900 -0.14843200 -0.23795700
v 0.04005900 -0.14843200 -0.24482300
v -0.01170900 -0.14842600 -0.21108700
v -0.01170900 -0.14842600 -0.21108700
v -0.02160100 -0.14843200 -0.21603700
v -0.02160100 -0.14843200 -0.21603700
v -0.02160100 -0.14843200 -0.21603700
v 0.02552400 -0.14843300 -0.21879100
v 0.02552400 -0.14843300 -0.21879100
v 0.02552400 -0.14843300 -0.21879100
v 0.03310600 -0.14843200 -0.22692500
v 0.03310600 -0.14843200 -0.22692500
v -0.03857300 -0.14843200 -0.26149800
v 0.03599000 -0.14843200 -0.26802100
v -0.04006600 -0.14843200 -0.25384700
v -0.03548000 -0.14843200 -0.26900500
v -0.04009700 -0.14843200 -0.24649200
v 0.03878900 -0.14843200 -0.26074600
v -0.03083300 -0.14843200 -0.27587200
v -0.02487800 -0.14843200 -0.28164100
v 0.01900500 -0.14843200 -0.28548000
v -0.01074600 -0.14843200 -0.28878900
v 0.01149800 -0.14843200 -0.28857300
v -0.01802100 -0.14843200 -0.28599000
v 0.03164100 -0.14843200 -0.27487800
v 0.04009700 -0.14843200 -0.25350800
v 0.01740800 -0.14843000 -0.21363100
v 0.00384700 -0.14843200 -0.29006600
v -0.00350800 -0.14843200 -0.29009700
v 0.02587200 -0.14843200 -0.28083300
v -0.01657700 -0.14317400 -0.21442700
v -0.00834900 -0.14370400 -0.21138200
v -0.01635800 -0.14154300 -0.21487200
v -0.03856800 -0.14636700 -0.23859400
v -0.03557900 -0.14316800 -0.23342500
v -0.03472200 -0.13995000 -0.23394300
v -0.00285100 -0.13991800 -0.21185600
v -0.00910800 -0.13991800 -0.21285000
v -0.01539300 -0.13991800 -0.21498400
v -0.02139700 -0.13991800 -0.21829400
v -0.02679600 -0.13991800 -0.22270500
v -0.03130600 -0.13991800 -0.22802400
v -0.01170900 -0.14842600 -0.21108700
v -0.01822100 -0.14641800 -0.21411000
v -0.02507500 -0.14641800 -0.21851500
v -0.03090100 -0.14641800 -0.22420900
v -0.03546100 -0.14641800 -0.23095900
v -0.03698800 -0.13989800 -0.24026200
v -0.03805600 -0.13971100 -0.24564200
v -0.04009700 -0.14641800 -0.24649200
v -0.00872900 -0.14600400 -0.28926000
v -0.00963700 -0.13975100 -0.28699400
v -0.00796300 -0.14121400 -0.28836900
v -0.00075300 -0.14330000 -0.28942000
v 0.00305100 -0.13979200 -0.28812900
v 0.00801400 -0.14613900 -0.28942000
v -0.03805600 -0.13971100 -0.24564200
v -0.03752300 -0.13991800 -0.25742400
v -0.03995000 -0.14641800 -0.25490500
v -0.03396400 -0.13991800 -0.26759300
v -0.02771100 -0.13991800 -0.27636600
v -0.03450100 -0.14641800 -0.27073000
v -0.01678600 -0.14236200 -0.28533000
v -0.01926000 -0.13991800 -0.28304700
v -0.03805700 -0.14641800 -0.26310400
v -0.02308600 -0.14641800 -0.28297100
v -0.01572700 -0.14641800 -0.28705000
v -0.02943700 -0.14641800 -0.27745000
v 0.01095500 -0.14226700 -0.28752400
v 0.01322800 -0.13991800 -0.28589000
v 0.02271200 -0.13991800 -0.28077700
v 0.03039300 -0.13991800 -0.27322300
v 0.03037700 -0.14641800 -0.27640600
v 0.03566300 -0.13991800 -0.26382700
v 0.03520300 -0.14641800 -0.26951400
v 0.01701000 -0.14641800 -0.28647900
v 0.03824400 -0.13968500 -0.25221500
v 0.03849100 -0.14641800 -0.26176800
v 0.00070200 -0.14641800 -0.29024400
v 0.02422300 -0.14641800 -0.28214500
v -0.03458400 -0.12056800 -0.23144000
v -0.03825600 -0.12409700 -0.24763400
v -0.03727700 -0.12412000 -0.24123100
v -0.03487100 -0.12381800 -0.23428100
v -0.03150000 -0.12381800 -0.22830200
v -0.02699300 -0.12381800 -0.22290000
v -0.01161800 -0.12056800 -0.21250900
v -0.02152700 -0.12381800 -0.21838300
v -0.01538200 -0.12381800 -0.21497900
v -0.00889200 -0.12381800 -0.21279800
v -0.00239500 -0.12381800 -0.21182500
v 0.00342100 -0.12056800 -0.21089900
v -0.03849100 -0.11731800 -0.23823200
v -0.04009700 -0.11731800 -0.24649200
v -0.03520300 -0.11731800 -0.23048600
v -0.03037700 -0.11731800 -0.22359400
v -0.02422300 -0.11731800 -0.21785500
v -0.01701000 -0.11731800 -0.21352100
v -0.00905400 -0.11731800 -0.21078200
v -0.00070200 -0.11731800 -0.20975600
v 0.00333400 -0.12381800 -0.21189600
v 0.01856000 -0.12056800 -0.21541600
v 0.00898800 -0.12381800 -0.21282100
v 0.01521700 -0.12381800 -0.21490700
v 0.02122900 -0.12381800 -0.21818200
v 0.02669100 -0.12381800 -0.22260200
v 0.03128900 -0.12381800 -0.22799900
v 0.03031500 -0.12056800 -0.22506900
v 0.03707100 -0.12381800 -0.24057500
v 0.03749100 -0.12056800 -0.23838200
v 0.03478900 -0.12381800 -0.23410100
v 0.03822700 -0.12406900 -0.24765400
v 0.03810500 -0.12382500 -0.25336200
v 0.01572700 -0.11731800 -0.21295000
v 0.00768000 -0.11731800 -0.21049000
v 0.02308600 -0.11731800 -0.21702900
v 0.02943700 -0.11731800 -0.22255000
v 0.03450100 -0.11731800 -0.22927000
v 0.03995000 -0.11731800 -0.24509500
v 0.03805700 -0.11731800 -0.23689600
v 0.04009700 -0.11731800 -0.25350800
v 0.03995000 -0.11731800 -0.24509500
v 0.04009700 -0.11731800 -0.25350800
v 0.04009700 -0.11531800 -0.25350800
v 0.03937200 -0.11531800 -0.24163700
v 0.03539000 -0.11531800 -0.23082700
v 0.03805700 -0.11731800 -0.23689600
v 0.02865600 -0.11531800 -0.22173600
v 0.01965900 -0.11531800 -0.21487800
v 0.02308600 -0.11731800 -0.21702900
v 0.03450100 -0.11731800 -0.22927000
v 0.00910800 -0.11531800 -0.21079400
v 0.01572700 -0.11731800 -0.21295000
v -0.00070200 -0.11731800 -0.20975600
v 0.00768000 -0.11731800 -0.21049000
v -0.00258700 -0.11531800 -0.20983300
v -0.00905400 -0.11731800 -0.21078200
v -0.01396200 -0.11531800 -0.21224900
v -0.02395600 -0.11531800 -0.21765600
v -0.01701000 -0.11731800 -0.21352100
v -0.03201100 -0.11531800 -0.22560000
v -0.03753700 -0.11531800 -0.23547200
v -0.03520300 -0.11731800 -0.23048600
v -0.03037700 -0.11731800 -0.22359400
v -0.04009700 -0.11531800 -0.24649200
v -0.03849100 -0.11731800 -0.23823200
v -0.03995000 -0.11731800 -0.25490500
v -0.04009700 -0.11731800 -0.24649200
v -0.04009700 -0.11531800 -0.24649200
v -0.03937200 -0.11531800 -0.25836300
v -0.03539000 -0.11531800 -0.26917300
v -0.03805700 -0.11731800 -0.26310400
v -0.02865600 -0.11531800 -0.27826400
v -0.01965900 -0.11531800 -0.28512200
v -0.02308600 -0.11731800 -0.28297100
v -0.03450100 -0.11731800 -0.27073000
v -0.00910800 -0.11531800 -0.28920600
v -0.01486600 -0.11758100 -0.28738400
v 0.00156300 -0.11744900 -0.29025600
v -0.00768000 -0.11731800 -0.28951100
v 0.00258700 -0.11531800 -0.29016700
v 0.00905400 -0.11731800 -0.28921800
v 0.01396200 -0.11531800 -0.28775100
v 0.02395600 -0.11531800 -0.28234400
v 0.01701000 -0.11731800 -0.28647900
v 0.03201100 -0.11531800 -0.27440000
v 0.03753700 -0.11531800 -0.26452800
v 0.03520300 -0.11731800 -0.26951400
v 0.03037700 -0.11731800 -0.27640600
v 0.04009700 -0.11531800 -0.25350800
v 0.03851900 -0.11744000 -0.26152300
v 0.04009700 -0.11731800 -0.25350800
v 0.03810500 -0.12382500 -0.25336200
v 0.03728900 -0.12396900 -0.25873200
v 0.03851900 -0.11744000 -0.26152300
v 0.03467400 -0.12381800 -0.26615000
v 0.03520300 -0.11731800 -0.26951400
v 0.03118500 -0.12381800 -0.27214800
v 0.02658600 -0.12381800 -0.27749900
v 0.03037700 -0.11731800 -0.27640600
v 0.01497700 -0.12381800 -0.28519600
v 0.01158600 -0.12068400 -0.28747400
v 0.02108500 -0.12381800 -0.28191400
v 0.00808000 -0.12374600 -0.28741700
v 0.02422300 -0.11731800 -0.28214500
v 0.01701000 -0.11731800 -0.28647900
v 0.00165000 -0.12284900 -0.28853100
v 0.00156300 -0.11744900 -0.29025600
v 0.00905400 -0.11731800 -0.28921800
v -0.00384700 -0.12062600 -0.28916800
v -0.01486500 -0.12382300 -0.28524600
v -0.02086100 -0.12381800 -0.28206100
v -0.01849200 -0.12074000 -0.28457500
v -0.02630600 -0.12381800 -0.27776800
v -0.03095800 -0.12381800 -0.27246500
v -0.02943700 -0.11731800 -0.27745000
v -0.03455700 -0.12381800 -0.26639700
v -0.03450100 -0.11731800 -0.27073000
v -0.03805700 -0.11731800 -0.26310400
v -0.03695100 -0.12381800 -0.25988300
v -0.00768000 -0.11731800 -0.28951100
v -0.00850900 -0.12306000 -0.28755000
v -0.01486600 -0.11758100 -0.28738400
v -0.03806700 -0.12386700 -0.25382400
v -0.03825600 -0.12409700 -0.24763400
v -0.03995000 -0.11731800 -0.25490500
v -0.02308600 -0.11731800 -0.28297100
v -0.04009700 -0.11731800 -0.24649200
v 0.03998200 -0.14641800 -0.24536200
v 0.04009700 -0.14641800 -0.25350800
v 0.03824400 -0.13968500 -0.25221500
v 0.03698500 -0.13991800 -0.24024500
v 0.03464700 -0.13991800 -0.23379400
v 0.03822900 -0.14641800 -0.23740600
v 0.02657700 -0.13991800 -0.22249200
v 0.03016100 -0.14641800 -0.22334700
v 0.03112900 -0.13991800 -0.22777300
v 0.03491000 -0.14641800 -0.22996600
v 0.01542000 -0.13991800 -0.21499600
v 0.01361100 -0.14283000 -0.21329700
v 0.02123900 -0.13991800 -0.21818900
v 0.02387700 -0.14671600 -0.21753200
v 0.00945100 -0.13983000 -0.21293300
v 0.03809500 -0.13988800 -0.24651700
v 0.01720100 -0.14641800 -0.21361100
v 0.00196900 -0.12696300 -0.29002400
v 0.00196900 -0.12696300 -0.29002400
v 0.00275700 -0.12547700 -0.29008500
v 0.00278400 -0.13844900 -0.29009500
v 0.00278400 -0.13844900 -0.29009500
v 0.00104400 -0.12289000 -0.28949900
v -0.00967200 -0.12518700 -0.28900400
v -0.00803900 -0.12316000 -0.28857700
v -0.00946300 -0.13928100 -0.28921700
v 0.00196900 -0.12696300 -0.29002400
v 0.00186100 -0.14082600 -0.29004500
v 0.00152300 -0.13867600 -0.28911800
v 0.00104400 -0.12289000 -0.28949900
v -0.00803900 -0.12316000 -0.28857700
v -0.00796300 -0.14121400 -0.28836900
v -0.00946300 -0.13928100 -0.28921700
v 0.00098900 -0.13763600 -0.28963700
v 0.00098900 -0.13763600 -0.28963700
v 0.00152300 -0.13867600 -0.28911800
v -0.00075300 -0.14330000 -0.28942000
v -0.00075300 -0.14330000 -0.28942000
v -0.00785200 -0.13812500 -0.28886400
v -0.00785200 -0.13812500 -0.28886400
v -0.00796300 -0.14121400 -0.28836900
v -0.00384700 -0.12062600 -0.28916800
v -0.00384700 -0.12062600 -0.28916800
v -0.00803900 -0.12316000 -0.28857700
v -0.00803900 -0.12316000 -0.28857700
v 0.00104400 -0.12289000 -0.28949900
v 0.03937200 -0.11531800 -0.24163700
v 0.03753700 -0.11531800 -0.26452800
v 0.03201100 -0.11531800 -0.27440000
v 0.02395600 -0.11531800 -0.28234400
v 0.04009700 -0.11531800 -0.25350800
v 0.00258700 -0.11531800 -0.29016700
v -0.03753700 -0.11531800 -0.23547200
v 0.01396200 -0.11531800 -0.28775100
v -0.00910800 -0.11531800 -0.28920600
v -0.01965900 -0.11531800 -0.28512200
v -0.02865600 -0.11531800 -0.27826400
v -0.04009700 -0.11531800 -0.24649200
v 0.02865600 -0.11531800 -0.22173600
v 0.03539000 -0.11531800 -0.23082700
v 0.00910800 -0.11531800 -0.21079400
v 0.01965900 -0.11531800 -0.21487800
v -0.01396200 -0.11531800 -0.21224900
v -0.00258700 -0.11531800 -0.20983300
v -0.03201100 -0.11531800 -0.22560000
v -0.03937200 -0.11531800 -0.25836300
v -0.03539000 -0.11531800 -0.26917300
v -0.02395600 -0.11531800 -0.21765600
v -0.00834900 -0.14370400 -0.21138200
v -0.00834900 -0.14370400 -0.21138200
v -0.00834900 -0.14370400 -0.21138200
v 0.01361100 -0.14283000 -0.21329700
v 0.01361100 -0.14283000 -0.21329700
v 0.00945100 -0.13983000 -0.21293300
v 0.00945100 -0.13983000 -0.21293300
v 0.01720100 -0.14641800 -0.21361100
v 0.01720100 -0.14641800 -0.21361100
v 0.00607900 -0.14035600 -0.21262400
v 0.00607900 -0.14035600 -0.21262400
v -0.01170900 -0.14842600 -0.21108700
v -0.01170900 -0.14842600 -0.21108700
v -0.00285100 -0.13991800 -0.21185600
v 0.03016100 -0.14641800 -0.22334700
v 0.02552400 -0.14843300 -0.21879100
v 0.03310600 -0.14843200 -0.22692500
v 0.03762500 -0.14843200 -0.23570200
v 0.03491000 -0.14641800 -0.22996600
v 0.04005900 -0.14843200 -0.24482300
v 0.04009700 -0.14843200 -0.25350800
v 0.04009700 -0.14641800 -0.25350800
v 0.03822900 -0.14641800 -0.23740600
v 0.03878900 -0.14843200 -0.26074600
v 0.03599000 -0.14843200 -0.26802100
v 0.03849100 -0.14641800 -0.26176800
v 0.03164100 -0.14843200 -0.27487800
v 0.03520300 -0.14641800 -0.26951400
v 0.02587200 -0.14843200 -0.28083300
v 0.01900500 -0.14843200 -0.28548000
v 0.02422300 -0.14641800 -0.28214500
v 0.01149800 -0.14843200 -0.28857300
v 0.01701000 -0.14641800 -0.28647900
v 0.03037700 -0.14641800 -0.27640600
v 0.00384700 -0.14843200 -0.29006600
v 0.00801400 -0.14613900 -0.28942000
v 0.01740800 -0.14843000 -0.21363100
v 0.02387700 -0.14671600 -0.21753200
v 0.01720100 -0.14641800 -0.21361100
v 0.03998200 -0.14641800 -0.24536200
v 0.00070200 -0.14641800 -0.29024400
v -0.00350800 -0.14843200 -0.29009700
v -0.01074600 -0.14843200 -0.28878900
v -0.00872900 -0.14600400 -0.28926000
v -0.01802100 -0.14843200 -0.28599000
v -0.02487800 -0.14843200 -0.28164100
v -0.02308600 -0.14641800 -0.28297100
v -0.03083300 -0.14843200 -0.27587200
v -0.02943700 -0.14641800 -0.27745000
v -0.01572700 -0.14641800 -0.28705000
v -0.03548000 -0.14843200 -0.26900500
v -0.03857300 -0.14843200 -0.26149800
v -0.03805700 -0.14641800 -0.26310400
v -0.04006600 -0.14843200 -0.25384700
v -0.03995000 -0.14641800 -0.25490500
v -0.04009700 -0.14843200 -0.24649200
v -0.03854900 -0.14843200 -0.23795700
v -0.04009700 -0.14641800 -0.24649200
v -0.03450100 -0.14641800 -0.27073000
v -0.03457000 -0.14843200 -0.22938500
v -0.02897200 -0.14843200 -0.22194500
v -0.03090100 -0.14641800 -0.22420900
v -0.02160100 -0.14843200 -0.21603700
v -0.02507500 -0.14641800 -0.21851500
v -0.03546100 -0.14641800 -0.23095900
v -0.03856800 -0.14636700 -0.23859400
v -0.01822100 -0.14641800 -0.21411000
v -0.01170900 -0.14842600 -0.21108700
v -0.00967200 -0.12518700 -0.28900400
v -0.00972100 -0.12618900 -0.28705700
v -0.00850900 -0.12306000 -0.28755000
v -0.00803900 -0.12316000 -0.28857700
v -0.00384700 -0.12062600 -0.28916800
v -0.00963700 -0.13975100 -0.28699400
v -0.00967200 -0.12518700 -0.28900400
v -0.00946300 -0.13928100 -0.28921700
v -0.00972100 -0.12618900 -0.28705700
v -0.00796300 -0.14121400 -0.28836900
v -0.00963700 -0.13975100 -0.28699400
v -0.00946300 -0.13928100 -0.28921700
v 0.00186100 -0.14082600 -0.29004500
v 0.00278400 -0.13844900 -0.29009500
v 0.00305100 -0.13979200 -0.28812900
v -0.00075300 -0.14330000 -0.28942000
v 0.00275700 -0.12547700 -0.29008500
v 0.00311600 -0.12603000 -0.28812700
v 0.00311600 -0.12603000 -0.28812700
v 0.00305100 -0.13979200 -0.28812900
v 0.00278400 -0.13844900 -0.29009500
v 0.00278400 -0.13844900 -0.29009500
v 0.00104400 -0.12289000 -0.28949900
v -0.00384700 -0.12062600 -0.28916800
v 0.00165000 -0.12284900 -0.28853100
v 0.00311600 -0.12603000 -0.28812700
v 0.00275700 -0.12547700 -0.29008500
v -0.03822200 -0.13750100 -0.25239500
v -0.03825600 -0.12409700 -0.24763400
v -0.03806700 -0.12386700 -0.25382400
v -0.00972100 -0.12618900 -0.28705700
v -0.01472000 -0.13675500 -0.28533900
v -0.01486500 -0.12382300 -0.28524600
v -0.03455700 -0.12381800 -0.26639700
v -0.03396400 -0.13991800 -0.26759300
v -0.03695100 -0.12381800 -0.25988300
v -0.03095800 -0.12381800 -0.27246500
v -0.02086100 -0.12381800 -0.28206100
v -0.00850900 -0.12306000 -0.28755000
v -0.01926000 -0.13991800 -0.28304700
v -0.02630600 -0.12381800 -0.27776800
v -0.02771100 -0.13991800 -0.27636600
v -0.03752300 -0.13991800 -0.25742400
v -0.03805600 -0.13971100 -0.24564200
v -0.00963700 -0.13975100 -0.28699400
v 0.02658600 -0.12381800 -0.27749900
v 0.02271200 -0.13991800 -0.28077700
v 0.02108500 -0.12381800 -0.28191400
v 0.03467400 -0.12381800 -0.26615000
v 0.03566300 -0.13991800 -0.26382700
v 0.03039300 -0.13991800 -0.27322300
v 0.01322800 -0.13991800 -0.28589000
v 0.03728900 -0.12396900 -0.25873200
v 0.03738300 -0.13705800 -0.25850000
v 0.00311600 -0.12603000 -0.28812700
v 0.00165000 -0.12284900 -0.28853100
v 0.00808000 -0.12374600 -0.28741700
v 0.00305100 -0.13979200 -0.28812900
v 0.00837000 -0.13642100 -0.28737500
v 0.01497700 -0.12381800 -0.28519600
v 0.03118500 -0.12381800 -0.27214800
v 0.03824400 -0.13968500 -0.25221500
v 0.03688700 -0.12781400 -0.23988000
v 0.03809500 -0.13988800 -0.24651700
v 0.03822700 -0.12406900 -0.24765400
v 0.03686400 -0.13178200 -0.23979800
v 0.03684100 -0.13586400 -0.23971400
v 0.03824400 -0.13968500 -0.25221500
v 0.03478900 -0.12381800 -0.23410100
v 0.03128900 -0.12381800 -0.22799900
v 0.03707100 -0.12381800 -0.24057500
v 0.02669100 -0.12381800 -0.22260200
v 0.02102000 -0.13190700 -0.21804300
v 0.01521700 -0.12381800 -0.21490700
v 0.02122900 -0.12381800 -0.21818200
v 0.00898800 -0.12381800 -0.21282100
v 0.00921600 -0.13209200 -0.21287700
v 0.01542000 -0.13991800 -0.21499600
v 0.02657700 -0.13991800 -0.22249200
v 0.03112900 -0.13991800 -0.22777300
v 0.03698500 -0.13991800 -0.24024500
v 0.03464700 -0.13991800 -0.23379400
v 0.02123900 -0.13991800 -0.21818900
v 0.00945100 -0.13983000 -0.21293300
v 0.00898800 -0.12381800 -0.21282100
v 0.00333400 -0.12381800 -0.21189600
v 0.00607900 -0.14035600 -0.21262400
v 0.00921600 -0.13209200 -0.21287700
v 0.00945100 -0.13983000 -0.21293300
v -0.00196200 -0.12910500 -0.21176000
v 0.00607900 -0.14035600 -0.21262400
v 0.00333400 -0.12381800 -0.21189600
v -0.00239500 -0.12381800 -0.21182500
v -0.00274200 -0.13605900 -0.21184900
v -0.03698800 -0.13989800 -0.24026200
v -0.03481400 -0.13178000 -0.23415100
v -0.03727700 -0.12412000 -0.24123100
v -0.03805600 -0.13971100 -0.24564200
v -0.03477300 -0.13586200 -0.23406600
v -0.00889200 -0.12381800 -0.21279800
v -0.01538200 -0.12381800 -0.21497900
v -0.01545700 -0.13190600 -0.21501200
v -0.02152700 -0.12381800 -0.21838300
v -0.02699300 -0.12381800 -0.22290000
v -0.03150000 -0.12381800 -0.22830200
v -0.03487100 -0.12381800 -0.23428100
v -0.00196200 -0.12910500 -0.21176000
v -0.00239500 -0.12381800 -0.21182500
v -0.02679600 -0.13991800 -0.22270500
v -0.02139700 -0.13991800 -0.21829400
v -0.03472200 -0.13995000 -0.23394300
v -0.00910800 -0.13991800 -0.21285000
v -0.00274200 -0.13605900 -0.21184900
v -0.01539300 -0.13991800 -0.21498400
v -0.03130600 -0.13991800 -0.22802400
v -0.00285100 -0.13991800 -0.21185600
v 0.00186100 -0.14082600 -0.29004500
v -0.00075300 -0.14330000 -0.28942000
v 0.00152300 -0.13867600 -0.28911800
v -0.04009700 -0.14641800 -0.24649200
v 0.04009700 -0.14641800 -0.25350800
v 0.02943700 -0.11731800 -0.22255000
v -0.02422300 -0.11731800 -0.21785500
v -0.04009700 -0.11731800 -0.24649200
v -0.02943700 -0.11731800 -0.27745000
v 0.02422300 -0.11731800 -0.28214500
v 0.04009700 -0.11731800 -0.25350800
v 0.00186100 -0.14082600 -0.29004500
v -0.00803900 -0.12316000 -0.28857700
v -0.00785200 -0.13812500 -0.28886400
v -0.00796300 -0.14121400 -0.28836900
v 0.00152300 -0.13867600 -0.28911800
v 0.00098900 -0.13763600 -0.28963700
v 0.00104400 -0.12289000 -0.28949900
v 0.01740800 -0.14843000 -0.21363100
v 0.03810500 -0.12382500 -0.25336200
v 0.03810500 -0.12382500 -0.25336200
v -0.00285100 -0.13991800 -0.21185600
v -0.03825600 -0.12409700 -0.24763400
vn -0.00000000 -1.00000000 -0.00000000
vn -0.00000000 -1.00000000 -0.00000000
vn -0.00000000 -1.00000000 -0.00000000
vn -0.00000000 -1.00000000 -0.00000000
vn -0.00000000 -1.00000000 -0.00000000
vn -0.00010000 -1.00000000 0.00040000
vn 0.00000000 -1.00000000 0.00010000
vn -0.00000000 -1.00000000 -0.00000000
vn -0.00000000 -1.00000000 -0.00010000
vn 0.00000000 -1.00000000 0.00010000
vn -0.00000000 -1.00000000 -0.00010000
vn -0.00010000 -1.00000000 0.00040000
vn 0.00000000 -1.00000000 0.00010000
vn -0.00000000 -1.00000000 -0.00010000
vn -0.00000000 -1.00000000 -0.00000000
vn -0.00000000 -1.00000000 -0.00000000
vn -0.00000000 -1.00000000 -0.00000000
vn -0.00000000 -1.00000000 -0.00000000
vn -0.00000000 -1.00000000 -0.00000000
vn -0.00000000 -1.00000000 -0.00000000
vn -0.00000000 -1.00000000 -0.00000000
vn -0.00000000 -1.00000000 -0.00000000
vn -0.00000000 -1.00000000 -0.00000000
vn -0.00000000 -1.00000000 -0.00000000
vn -0.00000000 -1.00000000 -0.00000000
vn -0.00000000 -1.00000000 -0.00000000
vn -0.00000000 -1.00000000 -0.00000000
vn -0.00000000 -1.00000000 -0.00000000
vn -0.00000000 -1.00000000 -0.00000000
vn -0.00010000 -1.00000000 0.00040000
vn -0.00000000 -1.00000000 -0.00000000
vn -0.00000000 -1.00000000 -0.00000000
vn -0.00000000 -1.00000000 -0.00000000
vn -0.40350000 0.29410000 0.86640000
vn -0.20170000 0.29340000 0.93450000
vn -0.40350000 0.29410000 0.86640000
vn -0.91640000 0.29420000 0.27140000
vn -0.86640000 0.29410000 0.40360000
vn -0.86770000 0.29410000 0.40070000
vn -0.07120000 0.29410000 0.95310000
vn -0.22760000 0.29410000 0.92830000
vn -0.38460000 0.29410000 0.87500000
vn -0.53470000 0.29410000 0.79220000
vn -0.66960000 0.29410000 0.68200000
vn -0.78230000 0.29410000 0.54910000
vn -0.27500000 0.29450000 0.91520000
vn -0.43270000 0.29410000 0.85220000
vn -0.59540000 0.29410000 0.74770000
vn -0.73380000 0.29410000 0.61250000
vn -0.84210000 0.29410000 0.45210000
vn -0.92420000 0.29410000 0.24350000
vn -0.94960000 0.29340000 0.11000000
vn -0.95210000 0.29410000 0.08330000
vn -0.20690000 0.29340000 -0.93330000
vn -0.24100000 0.29420000 -0.92490000
vn -0.19190000 0.29150000 -0.93710000
vn -0.01820000 0.29370000 -0.95570000
vn 0.07630000 0.29410000 -0.95270000
vn 0.19120000 0.29360000 -0.93660000
vn -0.95000000 0.29310000 0.10800000
vn -0.93760000 0.29410000 -0.18550000
vn -0.94870000 0.29410000 -0.11650000
vn -0.84870000 0.29410000 -0.43960000
vn -0.69240000 0.29410000 -0.65880000
vn -0.81930000 0.29410000 -0.49230000
vn -0.41050000 0.29330000 -0.86340000
vn -0.48120000 0.29410000 -0.82580000
vn -0.90370000 0.29410000 -0.31120000
vn -0.54820000 0.29410000 -0.78290000
vn -0.37350000 0.29410000 -0.87980000
vn -0.69900000 0.29410000 -0.65190000
vn 0.26810000 0.29320000 -0.91770000
vn 0.33060000 0.29410000 -0.89680000
vn 0.56750000 0.29410000 -0.76910000
vn 0.75950000 0.29410000 -0.58030000
vn 0.72130000 0.29410000 -0.62700000
vn 0.89120000 0.29410000 -0.34550000
vn 0.83590000 0.29410000 -0.46340000
vn 0.40390000 0.29410000 -0.86620000
vn 0.95440000 0.29310000 -0.05620000
vn 0.91400000 0.29410000 -0.27940000
vn 0.01670000 0.29410000 -0.95560000
vn 0.57520000 0.29410000 -0.76330000
vn -0.84220000 -0.29410000 0.45200000
vn -0.95430000 -0.29260000 0.05990000
vn -0.93050000 -0.29330000 0.21950000
vn -0.87130000 -0.29410000 0.39280000
vn -0.78710000 -0.29410000 0.54220000
vn -0.67450000 -0.29410000 0.67720000
vn -0.28290000 -0.29410000 0.91290000
vn -0.53790000 -0.29410000 0.79000000
vn -0.38430000 -0.29410000 0.87510000
vn -0.22220000 -0.29410000 0.92960000
vn -0.05990000 -0.29410000 0.95390000
vn 0.08330000 -0.29410000 0.95210000
vn -0.91400000 -0.29410000 0.27940000
vn -0.95210000 -0.29410000 0.08330000
vn -0.83590000 -0.29410000 0.46340000
vn -0.72130000 -0.29410000 0.62710000
vn -0.57520000 -0.29410000 0.76330000
vn -0.40390000 -0.29410000 0.86620000
vn -0.21500000 -0.29410000 0.93130000
vn -0.01670000 -0.29410000 0.95560000
vn 0.08330000 -0.29410000 0.95210000
vn 0.45200000 -0.29400000 0.84220000
vn 0.22460000 -0.29410000 0.92900000
vn 0.38030000 -0.29410000 0.87690000
vn 0.53050000 -0.29410000 0.79500000
vn 0.66690000 -0.29410000 0.68460000
vn 0.78180000 -0.29410000 0.54980000
vn 0.73820000 -0.29410000 0.60710000
vn 0.92630000 -0.29410000 0.23550000
vn 0.91300000 -0.29410000 0.28290000
vn 0.86930000 -0.29410000 0.39730000
vn 0.95410000 -0.29350000 0.05900000
vn 0.95210000 -0.29410000 -0.08400000
vn 0.37350000 -0.29410000 0.87980000
vn 0.18240000 -0.29410000 0.93820000
vn 0.54820000 -0.29410000 0.78290000
vn 0.69900000 -0.29410000 0.65180000
vn 0.81930000 -0.29410000 0.49230000
vn 0.94870000 -0.29410000 0.11650000
vn 0.90370000 -0.29410000 0.31120000
vn 0.95210000 -0.29410000 -0.08330000
vn 0.99250000 0.00000000 0.12190000
vn 0.99620000 0.00000000 -0.08710000
vn 0.99620000 -0.00000000 -0.08720000
vn 0.97820000 -0.00000000 0.20780000
vn 0.87930000 -0.00000000 0.47630000
vn 0.94550000 0.00000000 0.32560000
vn 0.71200000 -0.00000000 0.70220000
vn 0.48840000 0.00000000 0.87260000
vn 0.57360000 -0.00000000 0.81920000
vn 0.85720000 -0.00000000 0.51500000
vn 0.22630000 -0.00000000 0.97410000
vn 0.39070000 -0.00000000 0.92050000
vn -0.01750000 -0.00000000 0.99980000
vn 0.19080000 -0.00000000 0.98160000
vn -0.06430000 0.00000000 0.99790000
vn -0.22500000 0.00000000 0.97440000
vn -0.34690000 -0.00000000 0.93790000
vn -0.59520000 -0.00000000 0.80360000
vn -0.42260000 0.00000000 0.90630000
vn -0.79530000 -0.00000000 0.60620000
vn -0.93260000 0.00000000 0.36090000
vn -0.87460000 0.00000000 0.48480000
vn -0.75470000 0.00000000 0.65610000
vn -0.99620000 -0.00000000 0.08710000
vn -0.95630000 0.00000000 0.29240000
vn -0.99250000 0.00000000 -0.12190000
vn -0.99620000 -0.00000000 0.08710000
vn -0.99620000 -0.00000000 0.08720000
vn -0.97820000 0.00000000 -0.20780000
vn -0.87930000 -0.00000000 -0.47630000
vn -0.94550000 0.00000000 -0.32560000
vn -0.71200000 -0.00000000 -0.70220000
vn -0.48840000 0.00000000 -0.87260000
vn -0.57360000 0.00000000 -0.81920000
vn -0.85720000 -0.00000000 -0.51500000
vn -0.22630000 0.00000000 -0.97410000
vn -0.36960000 0.00000000 -0.92920000
vn 0.03860000 -0.00000000 -0.99930000
vn -0.19080000 0.00000000 -0.98160000
vn 0.06430000 -0.00000000 -0.99790000
vn 0.22490000 0.00000000 -0.97440000
vn 0.34690000 0.00000000 -0.93790000
vn 0.59520000 -0.00000000 -0.80360000
vn 0.42260000 -0.00000000 -0.90630000
vn 0.79530000 -0.00000000 -0.60620000
vn 0.93260000 -0.00000000 -0.36090000
vn 0.87460000 0.00000000 -0.48480000
vn 0.75470000 0.00000000 -0.65610000
vn 0.99620000 -0.00000000 -0.08720000
vn 0.95810000 0.00000000 -0.28660000
vn 0.95210000 -0.29410000 -0.08330000
vn 0.95210000 -0.29410000 -0.08400000
vn 0.93090000 -0.29340000 -0.21740000
vn 0.91590000 -0.29410000 -0.27300000
vn 0.86640000 -0.29410000 -0.40350000
vn 0.83590000 -0.29410000 -0.46340000
vn 0.77920000 -0.29410000 -0.55340000
vn 0.66430000 -0.29410000 -0.68710000
vn 0.72130000 -0.29410000 -0.62710000
vn 0.37420000 -0.29410000 -0.87950000
vn 0.28240000 -0.29400000 -0.91310000
vn 0.52680000 -0.29410000 -0.79750000
vn 0.20150000 -0.29410000 -0.93430000
vn 0.57520000 -0.29410000 -0.76330000
vn 0.40390000 -0.29410000 -0.86620000
vn 0.04090000 -0.29370000 -0.95500000
vn 0.03650000 -0.29350000 -0.95530000
vn 0.21500000 -0.29410000 -0.93130000
vn -0.09320000 -0.29350000 -0.95140000
vn -0.37110000 -0.29410000 -0.88080000
vn -0.52130000 -0.29410000 -0.80110000
vn -0.45090000 -0.29400000 -0.84280000
vn -0.65730000 -0.29410000 -0.69380000
vn -0.77360000 -0.29410000 -0.56130000
vn -0.69900000 -0.29410000 -0.65180000
vn -0.86350000 -0.29410000 -0.40970000
vn -0.81930000 -0.29410000 -0.49230000
vn -0.90370000 -0.29410000 -0.31120000
vn -0.92330000 -0.29420000 -0.24710000
vn -0.18240000 -0.29410000 -0.93820000
vn -0.21110000 -0.29370000 -0.93230000
vn -0.35380000 -0.29370000 -0.88800000
vn -0.95090000 -0.29390000 -0.09710000
vn -0.95430000 -0.29320000 0.05740000
vn -0.94860000 -0.29410000 -0.11650000
vn -0.54820000 -0.29410000 -0.78290000
vn -0.95210000 -0.29410000 0.08330000
vn 0.94940000 0.29410000 0.11010000
vn 0.95210000 0.29410000 -0.08330000
vn 0.95450000 0.29330000 -0.05380000
vn 0.92420000 0.29410000 0.24380000
vn 0.86570000 0.29410000 0.40500000
vn 0.90780000 0.29410000 0.29910000
vn 0.66410000 0.29410000 0.68740000
vn 0.71620000 0.29410000 0.63290000
vn 0.77780000 0.29410000 0.55540000
vn 0.82900000 0.29410000 0.47570000
vn 0.38530000 0.29410000 0.87470000
vn 0.33230000 0.29410000 0.89610000
vn 0.53070000 0.29410000 0.79490000
vn 0.56620000 0.29420000 0.77000000
vn 0.23660000 0.29390000 0.92610000
vn 0.95170000 0.29400000 0.08860000
vn 0.40850000 0.29410000 0.86410000
vn -0.08720000 -0.00000000 -0.99620000
vn -0.08710000 -0.00000000 -0.99620000
vn -0.08710000 -0.00000000 -0.99620000
vn -0.08720000 -0.00000000 -0.99620000
vn -0.08710000 -0.00000000 -0.99620000
vn -0.08710000 -0.00000000 -0.99620000
vn -0.08710000 -0.00000000 -0.99620000
vn -0.08710000 -0.00000000 -0.99620000
vn -0.08710000 -0.00000000 -0.99620000
vn -0.99620000 -0.00000000 0.08710000
vn -0.99620000 -0.00000000 0.08710000
vn -0.99620000 -0.00000000 0.08710000
vn -0.99620000 -0.00000000 0.08710000
vn 0.99620000 0.00000000 -0.08710000
vn 0.99620000 0.00000000 -0.08710000
vn 0.99620000 0.00000000 -0.08710000
vn -0.08710000 -0.00000000 -0.99620000
vn -0.08720000 -0.00000000 -0.99620000
vn -0.08720000 -0.00000000 -0.99620000
vn -0.08710000 -0.00000000 -0.99620000
vn -0.08720000 -0.00000000 -0.99620000
vn -0.08720000 -0.00000000 -0.99620000
vn -0.08710000 -0.00000000 -0.99620000
vn -0.08720000 -0.00000000 -0.99620000
vn -0.08710000 -0.00000000 -0.99620000
vn -0.08720000 -0.00000000 -0.99620000
vn -0.08710000 -0.00000000 -0.99620000
vn -0.08720000 -0.00000000 -0.99620000
vn -0.08720000 -0.00000000 -0.99620000
vn 0.00000000 1.00000000 0.00000000
vn 0.00000000 1.00000000 0.00000000
vn 0.00000000 1.00000000 0.00000000
vn 0.00000000 1.00000000 0.00000000
vn 0.00000000 1.00000000 0.00000000
vn 0.00000000 1.00000000 0.00000000
vn 0.00000000 1.00000000 0.00000000
vn 0.00000000 1.00000000 0.00000000
vn 0.00000000 1.00000000 0.00000000
vn 0.00000000 1.00000000 0.00000000
vn 0.00000000 1.00000000 0.00000000
vn 0.00000000 1.00000000 0.00000000
vn 0.00000000 1.00000000 0.00000000
vn 0.00000000 1.00000000 0.00000000
vn 0.00000000 1.00000000 0.00000000
vn 0.00000000 1.00000000 0.00000000
vn 0.00000000 1.00000000 0.00000000
vn 0.00000000 1.00000000 0.00000000
vn 0.00000000 1.00000000 0.00000000
vn 0.00000000 1.00000000 0.00000000
vn 0.00000000 1.00000000 0.00000000
vn 0.00000000 1.00000000 0.00000000
vn 0.08720000 0.00010000 0.99620000
vn 0.08710000 -0.00000000 0.99620000
vn 0.08720000 -0.00000000 0.99620000
vn 0.08720000 0.00010000 0.99620000
vn 0.08710000 -0.00000000 0.99620000
vn 0.08720000 -0.00000000 0.99620000
vn 0.08710000 -0.00000000 0.99620000
vn 0.08720000 0.00010000 0.99620000
vn 0.08710000 -0.00000000 0.99620000
vn 0.08720000 -0.00000000 0.99620000
vn 0.08710000 -0.00000000 0.99620000
vn 0.08710000 -0.00000000 0.99620000
vn 0.08720000 0.00010000 0.99620000
vn 0.08710000 -0.00000000 0.99620000
vn 0.74930000 0.00000000 0.66220000
vn 0.63310000 0.00000000 0.77410000
vn 0.82040000 -0.00000000 0.57180000
vn 0.93480000 0.00000000 0.35520000
vn 0.86730000 0.00000000 0.49770000
vn 0.99180000 0.00000000 0.12820000
vn 0.99620000 -0.00000000 -0.08720000
vn 0.99620000 -0.00000000 -0.08720000
vn 0.94980000 -0.00000000 0.31290000
vn 0.96370000 0.00000000 -0.26700000
vn 0.89420000 -0.00000000 -0.44770000
vn 0.95630000 0.00000000 -0.29240000
vn 0.78610000 0.00000000 -0.61810000
vn 0.87460000 0.00000000 -0.48480000
vn 0.64280000 0.00000000 -0.76600000
vn 0.47220000 -0.00000000 -0.88150000
vn 0.60180000 0.00000000 -0.79860000
vn 0.28570000 0.00000000 -0.95830000
vn 0.42260000 -0.00000000 -0.90630000
vn 0.75470000 0.00000000 -0.65610000
vn 0.09560000 0.00000000 -0.99540000
vn 0.19940000 -0.00000000 -0.97990000
vn 0.43180000 -0.00000000 0.90200000
vn 0.59220000 -0.00000000 0.80580000
vn 0.42730000 -0.00000000 0.90410000
vn 0.99330000 0.00000000 0.11520000
vn 0.01750000 0.00000000 -0.99980000
vn -0.08720000 -0.00000000 -0.99620000
vn -0.26700000 -0.00000000 -0.96370000
vn -0.21680000 0.00000000 -0.97620000
vn -0.44770000 -0.00000000 -0.89420000
vn -0.61810000 -0.00000000 -0.78610000
vn -0.57360000 0.00000000 -0.81920000
vn -0.76610000 0.00000000 -0.64280000
vn -0.73140000 -0.00000000 -0.68200000
vn -0.39070000 -0.00000000 -0.92050000
vn -0.88150000 0.00000000 -0.47220000
vn -0.95830000 -0.00000000 -0.28570000
vn -0.94550000 0.00000000 -0.32560000
vn -0.99540000 0.00000000 -0.09560000
vn -0.99250000 0.00000000 -0.12190000
vn -0.99620000 -0.00000000 0.08720000
vn -0.95450000 0.00000000 0.29820000
vn -0.99620000 -0.00000000 0.08710000
vn -0.85720000 -0.00000000 -0.51500000
vn -0.85890000 0.00000000 0.51220000
vn -0.71840000 -0.00000000 0.69560000
vn -0.76770000 -0.00000000 0.64080000
vn -0.53670000 0.00000000 0.84380000
vn -0.62300000 -0.00000000 0.78220000
vn -0.88100000 -0.00000000 0.47310000
vn -0.95890000 -0.00000000 0.28360000
vn -0.45270000 0.00000000 0.89170000
vn -0.28810000 -0.00000000 0.95760000
vn -0.96010000 0.27950000 0.00000000
vn -0.99210000 0.12540000 0.00000000
vn -0.78810000 0.61550000 0.00000000
vn -0.75410000 0.65680000 -0.00000000
vn -0.08140000 0.99670000 -0.00010000
vn -1.00000000 -0.00000000 -0.00000000
vn -1.00000000 -0.00000000 -0.00000000
vn -1.00000000 -0.00000000 -0.00000000
vn -1.00000000 -0.00000000 -0.00000000
vn -0.78490000 -0.61960000 0.00000000
vn -0.94660000 -0.32240000 0.00000000
vn -0.95990000 -0.28020000 -0.00000000
vn 0.84310000 -0.51680000 -0.14870000
vn 0.97650000 -0.12980000 -0.17220000
vn 0.92820000 -0.33400000 -0.16370000
vn 0.42830000 -0.90050000 -0.07550000
vn 0.98480000 -0.00000000 -0.17360000
vn 0.98480000 -0.00000000 -0.17360000
vn 0.98480000 0.00000000 -0.17370000
vn 0.98480000 0.00000000 -0.17370000
vn 0.98480000 -0.00000000 -0.17360000
vn 0.98480000 0.00000000 -0.17370000
vn 0.70920000 0.69380000 -0.12500000
vn -0.04670000 0.99890000 0.00830000
vn 0.74770000 0.65080000 -0.13180000
vn 0.97380000 0.14900000 -0.17170000
vn 0.95700000 0.23610000 -0.16870000
vn -0.99800000 0.00010000 -0.06250000
vn -0.99810000 -0.00000000 0.06170000
vn -0.99500000 -0.00000000 -0.09990000
vn -0.25380000 -0.00010000 -0.96730000
vn -0.38450000 0.00010000 -0.92310000
vn -0.38860000 -0.00010000 -0.92140000
vn -0.90350000 -0.00010000 -0.42870000
vn -0.88790000 0.00010000 -0.45990000
vn -0.96600000 -0.00000000 -0.25840000
vn -0.80940000 -0.00000000 -0.58730000
vn -0.54540000 -0.00010000 -0.83820000
vn -0.22040000 -0.00020000 -0.97540000
vn -0.50350000 0.00010000 -0.86400000
vn -0.68770000 -0.00010000 -0.72600000
vn -0.72450000 0.00010000 -0.68930000
vn -0.98100000 0.00000000 -0.19410000
vn -0.99350000 0.00000000 0.11360000
vn -0.25210000 0.00010000 -0.96770000
vn 0.69510000 -0.00010000 -0.71890000
vn 0.59380000 0.00010000 -0.80460000
vn 0.55120000 -0.00010000 -0.83440000
vn 0.90650000 -0.00010000 -0.42220000
vn 0.93240000 0.00010000 -0.36150000
vn 0.79460000 0.00010000 -0.60710000
vn 0.34580000 0.00010000 -0.93830000
vn 0.97360000 -0.00000000 -0.22810000
vn 0.97510000 0.00000000 -0.22170000
vn 0.08140000 -0.00010000 -0.99670000
vn 0.04210000 -0.00020000 -0.99910000
vn 0.21110000 -0.00020000 -0.97750000
vn 0.07980000 0.00010000 -0.99680000
vn 0.21850000 0.00010000 -0.97580000
vn 0.39160000 -0.00010000 -0.92020000
vn 0.81530000 -0.00010000 -0.57900000
vn 0.99830000 0.00000000 -0.05800000
vn 0.96440000 -0.00010000 0.26460000
vn 0.99580000 0.00000000 0.09100000
vn 0.99810000 -0.00010000 0.06130000
vn 0.96380000 -0.00000000 0.26670000
vn 0.96320000 0.00000000 0.26890000
vn 0.99830000 0.00000000 -0.05780000
vn 0.90950000 -0.00010000 0.41570000
vn 0.81800000 -0.00010000 0.57520000
vn 0.96920000 -0.00010000 0.24640000
vn 0.69780000 -0.00000000 0.71630000
vn 0.54950000 -0.00000000 0.83550000
vn 0.39780000 -0.00000000 0.91750000
vn 0.55500000 0.00000000 0.83180000
vn 0.23500000 -0.00020000 0.97200000
vn 0.24080000 0.00000000 0.97060000
vn 0.40310000 0.00000000 0.91510000
vn 0.69480000 0.00000000 0.71920000
vn 0.81380000 0.00000000 0.58110000
vn 0.96690000 0.00010000 0.25500000
vn 0.90580000 0.00010000 0.42370000
vn 0.55530000 -0.00000000 0.83170000
vn 0.24710000 0.00020000 0.96900000
vn 0.23500000 -0.00020000 0.97200000
vn 0.08710000 -0.03100000 0.99570000
vn 0.08300000 -0.02580000 0.99620000
vn 0.15780000 -0.00240000 0.98750000
vn 0.08800000 -0.00420000 0.99610000
vn 0.00610000 -0.01060000 0.99990000
vn 0.12400000 -0.04730000 0.99120000
vn 0.08710000 -0.03100000 0.99570000
vn -0.06260000 -0.00020000 0.99800000
vn 0.05260000 -0.00340000 0.99860000
vn -0.96700000 0.00010000 0.25460000
vn -0.91010000 0.00000000 0.41430000
vn -0.97340000 -0.00010000 0.22900000
vn -0.99350000 0.00000000 0.11380000
vn -0.90910000 0.00000000 0.41660000
vn -0.23250000 -0.00000000 0.97260000
vn -0.40220000 0.00000000 0.91550000
vn -0.40410000 0.00000000 0.91470000
vn -0.56280000 -0.00000000 0.82660000
vn -0.70570000 -0.00000000 0.70850000
vn -0.82350000 -0.00010000 0.56730000
vn -0.91170000 0.00020000 0.41100000
vn -0.05120000 -0.00010000 0.99870000
vn -0.06260000 -0.00020000 0.99800000
vn -0.70060000 0.00010000 0.71360000
vn -0.55940000 0.00000000 0.82890000
vn -0.90760000 0.00010000 0.41970000
vn -0.23810000 0.00010000 0.97120000
vn -0.07160000 0.00010000 0.99740000
vn -0.40230000 -0.00000000 0.91550000
vn -0.81850000 0.00010000 0.57450000
vn -0.07450000 0.00020000 0.99720000
vn -0.86820000 0.49040000 0.07590000
vn -0.45880000 0.88760000 0.04010000
vn -0.96860000 0.23360000 0.08470000
vn -0.95210000 0.29410000 0.08330000
vn 0.95210000 0.29410000 -0.08330000
vn 0.73140000 0.00000000 0.68200000
vn -0.60180000 -0.00000000 0.79860000
vn -0.99620000 -0.00000000 0.08720000
vn -0.73140000 -0.00000000 -0.68200000
vn 0.60180000 0.00000000 -0.79860000
vn 0.99620000 -0.00000000 -0.08720000
vn -0.08720000 -0.00000000 -0.99620000
vn -0.77990000 0.00000000 -0.62590000
vn -0.99610000 -0.00000000 0.08850000
vn -0.65560000 0.00000000 -0.75510000
vn 0.05300000 0.00000000 -0.99860000
vn 0.99620000 -0.00000000 -0.08720000
vn 0.90360000 0.00000000 -0.42850000
vn 0.08720000 0.00010000 0.99620000
vn 0.99610000 -0.00000000 -0.08790000
vn 0.99610000 -0.00000000 -0.08790000
vn 0.08720000 -0.00440000 0.99620000
vn -0.99810000 -0.00000000 0.06180000
vt 0.04110500 0.10023200
vt 0.02155700 0.12730200
vt 0.30903500 0.12730200
vt 0.00879600 0.15775300
vt 0.32180900 0.15771400
vt 0.10557100 0.05800800
vt 0.10557100 0.05800800
vt 0.06819200 0.07786200
vt 0.06819200 0.07786200
vt 0.06819200 0.07786200
vt 0.25537100 0.07318600
vt 0.25537100 0.07318600
vt 0.25537100 0.07318600
vt 0.28814500 0.09869100
vt 0.28814500 0.09869100
vt 0.01684200 0.23812300
vt 0.31375000 0.23812300
vt 0.00829700 0.21245000
vt 0.03165700 0.26282800
vt 0.00563100 0.18735200
vt 0.32229500 0.21245000
vt 0.05239600 0.28488300
vt 0.07792600 0.30279800
vt 0.25266600 0.30279800
vt 0.13624300 0.32297900
vt 0.22406700 0.31559700
vt 0.10652400 0.31559700
vt 0.29893400 0.26282800
vt 0.32496000 0.18735200
vt 0.22151300 0.05799600
vt 0.19434900 0.32297900
vt 0.16529600 0.32528100
vt 0.27819600 0.28488300
vt 0.44590000 0.07199500
vt 0.41003500 0.07389500
vt 0.44588000 0.06614600
vt 0.58180200 0.08344500
vt 0.55804500 0.07197200
vt 0.55857800 0.06043000
vt 0.38792200 0.06032000
vt 0.41452800 0.06032000
vt 0.44240700 0.06032000
vt 0.47120700 0.06032000
vt 0.50049400 0.06032000
vt 0.52979000 0.06032000
vt 0.42281800 0.09065100
vt 0.45133200 0.08362500
vt 0.48386500 0.08362500
vt 0.51639800 0.08362500
vt 0.54893000 0.08362500
vt 0.58666500 0.06024900
vt 0.60952500 0.05960000
vt 0.61399600 0.08362500
vt 0.63870200 0.52550900
vt 0.63221400 0.50317200
vt 0.64138800 0.50860700
vt 0.67363600 0.51590400
vt 0.69102700 0.50330700
vt 0.71238100 0.52598200
vt 0.38117900 0.50293300
vt 0.43541600 0.50369600
vt 0.42256700 0.52700100
vt 0.48504900 0.50369600
vt 0.53468200 0.50369600
vt 0.49613500 0.52700100
vt 0.59905500 0.51245200
vt 0.58431500 0.50369600
vt 0.45935100 0.52700100
vt 0.56970300 0.52700100
vt 0.60648700 0.52700100
vt 0.53291900 0.52700100
vt 0.72690900 0.51211200
vt 0.73901200 0.50369600
vt 0.78864500 0.50369600
vt 0.83827800 0.50369600
vt 0.82719200 0.52700100
vt 0.88791100 0.50369600
vt 0.86397600 0.52700100
vt 0.75362300 0.52700100
vt 0.94260300 0.50283500
vt 0.90076000 0.52700100
vt 0.68005500 0.52700100
vt 0.79040700 0.52700100
vt 0.45696200 0.51534900
vt 0.38132800 0.50267400
vt 0.41109200 0.50261900
vt 0.44483400 0.50369600
vt 0.47639600 0.50369600
vt 0.50874500 0.50369600
vt 0.59356000 0.51534900
vt 0.54134800 0.50369600
vt 0.57365200 0.50369600
vt 0.60512900 0.50369600
vt 0.63533200 0.50369600
vt 0.66166300 0.51534900
vt 0.42256700 0.52700100
vt 0.38578300 0.52700100
vt 0.45935100 0.52700100
vt 0.49613500 0.52700100
vt 0.53291900 0.52700100
vt 0.56970300 0.52700100
vt 0.60648700 0.52700100
vt 0.64327100 0.52700100
vt 0.66166300 0.50369600
vt 0.73284300 0.51534900
vt 0.68799500 0.50369600
vt 0.71819800 0.50369600
vt 0.74967500 0.50369600
vt 0.78197800 0.50369600
vt 0.81458200 0.50369600
vt 0.80133800 0.51534900
vt 0.87849200 0.50369600
vt 0.86944100 0.51534900
vt 0.84693000 0.50369600
vt 0.91140300 0.50280700
vt 0.93767300 0.50367200
vt 0.71683900 0.52700100
vt 0.68005500 0.52700100
vt 0.75362300 0.52700100
vt 0.79040700 0.52700100
vt 0.82719200 0.52700100
vt 0.90076000 0.52700100
vt 0.86397600 0.52700100
vt 0.93754400 0.52700100
vt 0.39414200 0.06552800
vt 0.36070200 0.06552800
vt 0.36070200 0.05867400
vt 0.40805200 0.05867400
vt 0.45390900 0.05867400
vt 0.42758300 0.06552800
vt 0.49893600 0.05867400
vt 0.54396300 0.05867400
vt 0.52790300 0.06552800
vt 0.46102300 0.06552800
vt 0.58898900 0.05867400
vt 0.56134300 0.06552800
vt 0.62822300 0.06552800
vt 0.59478300 0.06552800
vt 0.63570600 0.05867400
vt 0.66166300 0.06552800
vt 0.68199800 0.05867400
vt 0.72722300 0.05867400
vt 0.69510300 0.06552800
vt 0.77225000 0.05867400
vt 0.81727600 0.05867400
vt 0.79542300 0.06552800
vt 0.76198300 0.06552800
vt 0.86230300 0.05867400
vt 0.82886300 0.06552800
vt 0.39414200 0.06552800
vt 0.36070200 0.06552800
vt 0.36070200 0.05867400
vt 0.40805200 0.05867400
vt 0.45390900 0.05867400
vt 0.42758300 0.06552800
vt 0.49893600 0.05867400
vt 0.54396300 0.05867400
vt 0.52790300 0.06552800
vt 0.46102300 0.06552800
vt 0.58898900 0.05867400
vt 0.56500400 0.06642200
vt 0.63162900 0.06594700
vt 0.59478300 0.06552800
vt 0.63570600 0.05867400
vt 0.66166300 0.06552800
vt 0.68199800 0.05867400
vt 0.72722300 0.05867400
vt 0.69510300 0.06552800
vt 0.77225000 0.05867400
vt 0.81727600 0.05867400
vt 0.79542300 0.06552800
vt 0.76198300 0.06552800
vt 0.86230300 0.05867400
vt 0.82982900 0.06593900
vt 0.38578300 0.52700100
vt 0.38591600 0.50367300
vt 0.41073900 0.50315900
vt 0.42134500 0.52657100
vt 0.44701100 0.50369600
vt 0.45935100 0.52700100
vt 0.47891800 0.50369600
vt 0.51136100 0.50369600
vt 0.49613500 0.52700100
vt 0.57567700 0.50369600
vt 0.59365700 0.51493300
vt 0.54379500 0.50369600
vt 0.60904400 0.50395600
vt 0.53291900 0.52700100
vt 0.56970300 0.52700100
vt 0.63883500 0.50712900
vt 0.63965200 0.52652200
vt 0.60648700 0.52700100
vt 0.66348900 0.51518900
vt 0.71637900 0.50367900
vt 0.74765000 0.50369600
vt 0.73261500 0.51473300
vt 0.77953200 0.50369600
vt 0.81196600 0.50369600
vt 0.79040700 0.52700100
vt 0.84440900 0.50369600
vt 0.82719200 0.52700100
vt 0.86397600 0.52700100
vt 0.87631600 0.50369600
vt 0.68005500 0.52700100
vt 0.68542800 0.50637900
vt 0.71293700 0.52606400
vt 0.90437100 0.50351300
vt 0.93281200 0.50274700
vt 0.90076000 0.52700100
vt 0.75362300 0.52700100
vt 0.93754400 0.52700100
vt 0.64652800 0.08362500
vt 0.61399600 0.08362500
vt 0.61892700 0.05951400
vt 0.66937900 0.06032000
vt 0.69820200 0.06032000
vt 0.67906100 0.08362500
vt 0.75678400 0.06032000
vt 0.74412600 0.08362500
vt 0.72749700 0.06032000
vt 0.71159400 0.08362500
vt 0.81346300 0.06032000
vt 0.82306200 0.07076000
vt 0.78558400 0.06032000
vt 0.77832300 0.08465900
vt 0.83991900 0.06000200
vt 0.64287700 0.06020600
vt 0.80919100 0.08362500
vt 0.02479300 0.03931200
vt 0.02479300 0.03931200
vt 0.01889700 0.03660600
vt 0.07035600 0.03651100
vt 0.07035600 0.03651100
vt 0.00864700 0.04260000
vt 0.01774800 0.07935700
vt 0.00972100 0.07398500
vt 0.07366200 0.07855300
vt 0.10990200 0.05696100
vt 0.05490900 0.05687800
vt 0.06344700 0.06032000
vt 0.12610200 0.05996400
vt 0.05250500 0.06043600
vt 0.12410100 0.06054500
vt 0.11641800 0.05532000
vt 0.12514800 0.02955800
vt 0.12514800 0.02955800
vt 0.12096600 0.02776500
vt 0.10271200 0.03561600
vt 0.10271200 0.03561600
vt 0.12320600 0.05997100
vt 0.12320600 0.05997100
vt 0.11096300 0.06049200
vt 0.19261200 0.04622100
vt 0.19261200 0.04622100
vt 0.18250100 0.06063500
vt 0.18250100 0.06063500
vt 0.18358600 0.02948800
vt 0.15162100 0.03896200
vt 0.07784100 0.08511600
vt 0.05578500 0.11888000
vt 0.04547700 0.15661200
vt 0.10990200 0.05798900
vt 0.06304200 0.23310200
vt 0.33112800 0.25310900
vt 0.04776900 0.19550000
vt 0.09041900 0.26562600
vt 0.12601500 0.28923600
vt 0.16781100 0.30335500
vt 0.29906700 0.28023700
vt 0.24115800 0.03487100
vt 0.19646500 0.03135700
vt 0.31855000 0.07259900
vt 0.28295400 0.04899000
vt 0.36120000 0.14272600
vt 0.34592700 0.10512300
vt 0.35318400 0.21934600
vt 0.25734800 0.29926300
vt 0.21250400 0.30686900
vt 0.36349200 0.18161400
vt 0.15624700 0.05962600
vt 0.15624700 0.05962600
vt 0.15624700 0.05962600
vt 0.06880300 0.06262000
vt 0.06880300 0.06262000
vt 0.08536800 0.07290000
vt 0.08536800 0.07290000
vt 0.05450900 0.05032400
vt 0.05450900 0.05032400
vt 0.09880400 0.07110000
vt 0.09880400 0.07110000
vt 0.16962700 0.04344400
vt 0.16962700 0.04344400
vt 0.13435500 0.07259900
vt 0.17556000 0.06488900
vt 0.15007100 0.05794200
vt 0.19348500 0.05796900
vt 0.23151200 0.05798900
vt 0.20704400 0.06488900
vt 0.26843800 0.05800300
vt 0.30415100 0.05798900
vt 0.30415100 0.06488900
vt 0.23852200 0.06488900
vt 0.33550100 0.05798900
vt 0.36685100 0.05798900
vt 0.33987500 0.06488900
vt 0.39820100 0.05798900
vt 0.37344100 0.06488900
vt 0.42955100 0.05798900
vt 0.46090100 0.05798900
vt 0.43747900 0.06488900
vt 0.49225100 0.05798900
vt 0.46940800 0.06488900
vt 0.40572500 0.06488900
vt 0.52360100 0.05798900
vt 0.50647500 0.06584500
vt 0.11078100 0.05801200
vt 0.14177500 0.06378400
vt 0.10990200 0.06488900
vt 0.27065300 0.06488900
vt 0.53675800 0.06488900
vt 0.55495100 0.05798900
vt 0.58630100 0.05798900
vt 0.57768000 0.06630200
vt 0.61765100 0.05798900
vt 0.64900100 0.05798900
vt 0.64049400 0.06488900
vt 0.68035100 0.05798900
vt 0.67242400 0.06488900
vt 0.60766900 0.06488900
vt 0.71170100 0.05798900
vt 0.74305100 0.05798900
vt 0.73646100 0.06488900
vt 0.77440100 0.05798900
vt 0.77002800 0.06488900
vt 0.80575100 0.05798900
vt 0.84142000 0.05799800
vt 0.80575100 0.06488900
vt 0.70417800 0.06488900
vt 0.87839100 0.05798900
vt 0.91426200 0.05797200
vt 0.90285800 0.06488900
vt 0.95103000 0.05798900
vt 0.93434200 0.06488900
vt 0.87138000 0.06488900
vt 0.83885000 0.06506800
vt 0.96648900 0.06488900
vt 0.99562300 0.05796900
vt 0.12346400 0.09124300
vt 0.12285300 0.08455800
vt 0.12497400 0.08632800
vt 0.12516400 0.08992400
vt 0.12831300 0.09189500
vt 0.11905900 -0.00725200
vt 0.11108800 0.04265600
vt 0.11023900 -0.00564400
vt 0.11881400 0.03922500
vt 0.11968900 0.08959700
vt 0.12106800 0.08480000
vt 0.12125400 0.09245500
vt 0.12451600 0.09203400
vt 0.12287800 0.09162400
vt 0.12369700 0.08483500
vt 0.12685000 0.09130800
vt 0.10868700 0.04166400
vt 0.10079100 0.03976700
vt 0.10079100 0.03976700
vt 0.10084800 -0.00739100
vt 0.10871100 -0.00279000
vt 0.10871100 -0.00279000
vt 0.11937000 0.09010000
vt 0.11588800 0.09176300
vt 0.11957000 0.08664500
vt 0.12177500 0.08439500
vt 0.12143600 0.09120800
vt 0.16417000 0.80191900
vt 0.11099200 0.78043800
vt 0.11009100 0.80713700
vt 0.11931000 0.99634300
vt 0.16123900 0.97454300
vt 0.10992000 0.97245900
vt 0.10990200 0.86056200
vt 0.17380400 0.86704000
vt 0.10990200 0.83267500
vt 0.10990200 0.88845000
vt 0.10990200 0.94422500
vt 0.10694300 1.00190700
vt 0.17380400 0.95355000
vt 0.10990200 0.91633700
vt 0.17380400 0.90986000
vt 0.17380400 0.82334900
vt 0.17301400 0.77238900
vt 0.17313900 0.99828300
vt 0.10990200 0.16953900
vt 0.17380400 0.14812900
vt 0.10990200 0.14165100
vt 0.10990200 0.22531400
vt 0.17380400 0.23463900
vt 0.17380400 0.19094900
vt 0.17380400 0.10443800
vt 0.11049000 0.25802800
vt 0.16241600 0.25827500
vt 0.11868100 0.06152500
vt 0.10608100 0.05518200
vt 0.10961300 0.08365000
vt 0.17329600 0.05962200
vt 0.15991500 0.08353300
vt 0.10990200 0.11376400
vt 0.10990200 0.19742700
vt 0.17289800 0.28604800
vt 0.12559400 0.33995600
vt 0.17361500 0.31083500
vt 0.11088300 0.30721300
vt 0.14128600 0.33995600
vt 0.15754500 0.33995600
vt 0.17289200 0.28616100
vt 0.10990200 0.36505900
vt 0.10990200 0.39275700
vt 0.10990200 0.33736100
vt 0.10990200 0.42045400
vt 0.14128600 0.44919100
vt 0.10990200 0.47585000
vt 0.10990200 0.44815200
vt 0.10990200 0.50354800
vt 0.14185300 0.50354800
vt 0.17380400 0.47585000
vt 0.17380400 0.42045400
vt 0.17380400 0.39275700
vt 0.17380400 0.33736100
vt 0.17380400 0.36505900
vt 0.17380400 0.44815200
vt 0.17344500 0.50345000
vt 0.10990200 0.50354800
vt 0.10990200 0.52899400
vt 0.17555800 0.51749600
vt 0.14185300 0.50354800
vt 0.17344500 0.50345400
vt 0.13016200 0.55190900
vt 0.17615200 0.51693300
vt 0.10990200 0.52899400
vt 0.10990200 0.55444000
vt 0.15782900 0.55444000
vt 0.17367900 0.74850000
vt 0.14128500 0.72073600
vt 0.11108400 0.75156800
vt 0.17298600 0.77229100
vt 0.15754500 0.72070800
vt 0.10990200 0.58213800
vt 0.10990200 0.60983600
vt 0.14128600 0.61014200
vt 0.10990200 0.63753400
vt 0.10990200 0.66523200
vt 0.10990200 0.69293000
vt 0.10990200 0.72062800
vt 0.13003900 0.55197000
vt 0.10990200 0.55444000
vt 0.17380400 0.66523200
vt 0.17380400 0.63753400
vt 0.17393000 0.72051700
vt 0.17380400 0.58213800
vt 0.15782900 0.55444000
vt 0.17380400 0.60983600
vt 0.17380400 0.69293000
vt 0.17380400 0.55444000
vt 0.12441900 0.06497700
vt 0.12698600 0.05888600
vt 0.12333900 0.04960900
vt 0.38578300 0.52700100
vt 0.93754400 0.52700100
vt 0.49446300 0.06552800
vt 0.72854300 0.06552800
vt 0.86230300 0.06552800
vt 0.49446300 0.06552800
vt 0.72854300 0.06552800
vt 0.86230300 0.06552800
vt 0.07981200 0.03965200
vt 0.11277900 0.06263500
vt 0.11386700 0.05783000
vt 0.11253500 0.05683900
vt 0.11191000 0.06174900
vt 0.11386700 0.06141400
vt 0.11343200 0.05668000
vt 0.05368500 0.04343200
vt 0.10992000 0.28183200
vt 0.10993900 0.28184300
vt 0.17380400 0.55444000
vt 0.11104000 0.78037300
f 1/1/1 2/2/2 3/3/3
f 4/4/4 5/5/5 2/2/2
f 7/7/7 10/10/10 13/13/13
f 1/1/1 15/15/15 8/8/8
f 16/16/16 17/17/17 18/18/18
f 19/19/19 17/17/17 16/16/16
f 20/20/20 18/18/18 21/21/21
f 22/22/22 23/23/23 24/24/24
f 25/25/25 26/26/26 27/27/27
f 27/27/27 26/26/26 23/23/23
f 19/19/19 22/22/22 28/28/28
f 20/20/20 21/21/21 29/29/29
f 6/6/6 12/12/12 30/30/30
f 9/9/9 14/14/14 11/11/11
f 15/15/15 1/1/1 3/3/3
f 2/2/2 5/5/5 3/3/3
f 5/5/5 4/4/4 29/29/29
f 26/26/26 25/25/25 31/31/31
f 31/31/31 25/25/25 32/32/32
f 26/26/26 24/24/24 23/23/23
f 28/28/28 17/17/17 19/19/19
f 22/22/22 24/24/24 33/33/33
f 22/22/22 33/33/33 28/28/28
f 17/17/17 21/21/21 18/18/18
f 34/34/34 35/35/35 36/36/36
f 39/39/39 51/51/51 38/38/38
f 35/35/35 40/40/40 41/41/41
f 41/41/41 42/42/42 35/35/35
f 36/36/36 43/43/43 44/44/44
f 34/34/34 36/36/36 44/44/44
f 44/44/44 45/45/45 38/38/38
f 34/34/34 44/44/44 38/38/38
f 42/42/42 43/43/43 36/36/36
f 34/34/34 46/46/46 35/35/35
f 46/46/46 34/34/34 47/47/47
f 48/48/48 47/47/47 34/34/34
f 49/49/49 48/48/48 34/34/34
f 49/49/49 34/34/34 38/38/38
f 50/50/50 49/49/49 38/38/38
f 45/45/45 39/39/39 38/38/38
f 52/52/52 53/53/53 51/51/51
f 54/54/54 55/55/55 56/56/56
f 59/59/59 82/82/82 58/58/58
f 60/60/60 61/61/61 62/62/62
f 64/64/64 71/71/71 65/65/65
f 66/66/66 64/64/64 67/67/67
f 61/61/61 63/63/63 68/68/68
f 54/54/54 70/70/70 55/55/55
f 55/55/55 66/66/66 67/67/67
f 69/69/69 64/64/64 66/66/66
f 62/62/62 61/61/61 68/68/68
f 70/70/70 69/69/69 66/66/66
f 71/71/71 64/64/64 69/69/69
f 72/72/72 73/73/73 74/74/74
f 76/76/76 83/83/83 74/74/74
f 75/75/75 77/77/77 78/78/78
f 79/79/79 72/72/72 74/74/74
f 72/72/72 59/59/59 58/58/58
f 77/77/77 80/80/80 81/81/81
f 73/73/73 72/72/72 58/58/58
f 82/82/82 54/54/54 57/57/57
f 79/79/79 59/59/59 72/72/72
f 79/79/79 74/74/74 83/83/83
f 81/81/81 78/78/78 77/77/77
f 84/84/84 85/85/85 86/86/86
f 84/84/84 87/87/87 88/88/88
f 84/84/84 88/88/88 89/89/89
f 84/84/84 86/86/86 87/87/87
f 90/90/90 91/91/91 92/92/92
f 90/90/90 93/93/93 94/94/94
f 95/95/95 90/90/90 94/94/94
f 90/90/90 92/92/92 93/93/93
f 84/84/84 89/89/89 91/91/91
f 96/96/96 97/97/97 84/84/84
f 85/85/85 84/84/84 97/97/97
f 84/84/84 98/98/98 96/96/96
f 84/84/84 99/99/99 98/98/98
f 99/99/99 84/84/84 100/100/100
f 101/101/101 100/100/100 90/90/90
f 84/84/84 90/90/90 100/100/100
f 90/90/90 102/102/102 101/101/101
f 90/90/90 103/103/103 102/102/102
f 95/95/95 103/103/103 90/90/90
f 90/90/90 84/84/84 91/91/91
f 104/104/104 95/95/95 94/94/94
f 105/105/105 95/95/95 106/106/106
f 107/107/107 108/108/108 105/105/105
f 108/108/108 109/109/109 105/105/105
f 104/104/104 106/106/106 95/95/95
f 110/110/110 111/111/111 109/109/109
f 112/112/112 113/113/113 114/114/114
f 115/115/115 113/113/113 112/112/112
f 114/114/114 111/111/111 110/110/110
f 116/116/116 113/113/113 115/115/115
f 117/117/117 118/118/118 105/105/105
f 105/105/105 119/119/119 117/117/117
f 119/119/119 111/111/111 120/120/120
f 111/111/111 119/119/119 105/105/105
f 111/111/111 113/113/113 121/121/121
f 114/114/114 113/113/113 111/111/111
f 120/120/120 111/111/111 121/121/121
f 113/113/113 122/122/122 123/123/123
f 113/113/113 124/124/124 122/122/122
f 124/124/124 113/113/113 116/116/116
f 111/111/111 105/105/105 109/109/109
f 103/103/103 95/95/95 118/118/118
f 125/125/125 126/126/126 127/127/127
f 128/128/128 129/129/129 130/130/130
f 131/131/131 132/132/132 133/133/133
f 129/129/129 131/131/131 134/134/134
f 132/132/132 135/135/135 136/136/136
f 128/128/128 130/130/130 125/125/125
f 136/136/136 133/133/133 132/132/132
f 137/137/137 138/138/138 135/135/135
f 139/139/139 140/140/140 137/137/137
f 139/139/139 141/141/141 140/140/140
f 141/141/141 142/142/142 143/143/143
f 144/144/144 145/145/145 146/146/146
f 142/142/142 144/144/144 147/147/147
f 145/145/145 148/148/148 149/149/149
f 141/141/141 143/143/143 140/140/140
f 149/149/149 146/146/146 145/145/145
f 150/150/150 151/151/151 152/152/152
f 153/153/153 154/154/154 155/155/155
f 156/156/156 157/157/157 158/158/158
f 154/154/154 156/156/156 159/159/159
f 157/157/157 160/160/160 161/161/161
f 153/153/153 155/155/155 150/150/150
f 161/161/161 158/158/158 157/157/157
f 162/162/162 163/163/163 160/160/160
f 164/164/164 165/165/165 162/162/162
f 164/164/164 166/166/166 165/165/165
f 166/166/166 167/167/167 168/168/168
f 169/169/169 170/170/170 171/171/171
f 167/167/167 169/169/169 172/172/172
f 170/170/170 173/173/173 174/174/174
f 166/166/166 168/168/168 165/165/165
f 174/174/174 171/171/171 170/170/170
f 177/177/177 178/178/178 175/175/175
f 179/179/179 180/180/180 178/178/178
f 180/180/180 179/179/179 181/181/181
f 182/182/182 183/183/183 181/181/181
f 184/184/184 185/185/185 186/186/186
f 185/185/185 184/184/184 187/187/187
f 182/182/182 186/186/186 188/188/188
f 185/185/185 189/189/189 186/186/186
f 180/180/180 181/181/181 183/183/183
f 191/191/191 192/192/192 190/190/190
f 192/192/192 185/185/185 187/187/187
f 185/185/185 192/192/192 189/189/189
f 188/188/188 186/186/186 189/189/189
f 190/190/190 193/193/193 191/191/191
f 194/194/194 195/195/195 196/196/196
f 195/195/195 197/197/197 196/196/196
f 197/197/197 198/198/198 199/199/199
f 200/200/200 201/201/201 198/198/198
f 202/202/202 200/200/200 203/203/203
f 204/204/204 193/193/193 205/205/205
f 206/206/206 204/204/204 205/205/205
f 196/196/196 206/206/206 194/194/194
f 207/207/207 209/209/209 203/203/203
f 208/208/208 211/211/211 207/207/207
f 197/197/197 210/210/210 196/196/196
f 210/210/210 206/206/206 196/196/196
f 202/202/202 201/201/201 200/200/200
f 210/210/210 197/197/197 199/199/199
f 191/191/191 193/193/193 204/204/204
f 214/214/214 227/227/227 212/212/212
f 216/216/216 221/221/221 217/217/217
f 218/218/218 219/219/219 220/220/220
f 220/220/220 221/221/221 216/216/216
f 222/222/222 223/223/223 224/224/224
f 225/225/225 219/219/219 218/218/218
f 222/222/222 226/226/226 223/223/223
f 227/227/227 215/215/215 212/212/212
f 219/219/219 221/221/221 220/220/220
f 223/223/223 228/228/228 225/225/225
f 224/224/224 223/223/223 225/225/225
f 230/230/230 231/231/231 233/233/233
f 231/231/231 230/230/230 234/234/234
f 235/235/235 236/236/236 237/237/237
f 238/238/238 239/239/239 240/240/240
f 238/238/238 240/240/240 241/241/241
f 242/242/242 243/243/243 244/244/244
f 246/246/246 247/247/247 249/249/249
f 251/251/251 249/249/249 252/252/252
f 251/251/251 245/245/245 248/248/248
f 250/250/250 256/256/256 246/246/246
f 257/257/257 246/246/246 254/254/254
f 258/258/258 259/259/259 260/260/260
f 261/261/261 258/258/258 260/260/260
f 262/262/262 259/259/259 258/258/258
f 264/264/264 270/270/270 263/263/263
f 265/265/265 263/263/263 258/258/258
f 258/258/258 261/261/261 265/265/265
f 266/266/266 264/264/264 263/263/263
f 266/266/266 267/267/267 264/264/264
f 267/267/267 268/268/268 269/269/269
f 270/270/270 271/271/271 258/258/258
f 272/272/272 273/273/273 270/270/270
f 274/274/274 275/275/275 272/272/272
f 276/276/276 272/272/272 270/270/270
f 274/274/274 272/272/272 276/276/276
f 277/277/277 269/269/269 278/278/278
f 278/278/278 269/269/269 268/268/268
f 264/264/264 276/276/276 270/270/270
f 269/269/269 264/264/264 267/267/267
f 274/274/274 276/276/276 279/279/279
f 281/281/281 284/284/284 286/286/286
f 283/283/283 280/280/280 287/287/287
f 282/282/282 285/285/285 289/289/289
f 281/281/281 291/291/291 288/288/288
f 281/281/281 290/290/290 293/293/293
f 294/294/294 295/295/295 296/296/296
f 296/296/296 297/297/297 298/298/298
f 301/301/301 319/319/319 300/300/300
f 299/299/299 302/302/302 297/297/297
f 303/303/303 304/304/304 305/305/305
f 304/304/304 306/306/306 307/307/307
f 308/308/308 309/309/309 310/310/310
f 309/309/309 311/311/311 312/312/312
f 306/306/306 308/308/308 313/313/313
f 300/300/300 303/303/303 301/301/301
f 311/311/311 314/314/314 315/315/315
f 316/316/316 317/317/317 318/318/318
f 295/295/295 294/294/294 317/317/317
f 319/319/319 302/302/302 299/299/299
f 320/320/320 314/314/314 321/321/321
f 322/322/322 323/323/323 321/321/321
f 324/324/324 325/325/325 326/326/326
f 325/325/325 327/327/327 328/328/328
f 322/322/322 324/324/324 329/329/329
f 330/330/330 331/331/331 332/332/332
f 331/331/331 333/333/333 334/334/334
f 336/336/336 345/345/345 335/335/335
f 333/333/333 335/335/335 337/337/337
f 327/327/327 330/330/330 338/338/338
f 339/339/339 340/340/340 341/341/341
f 342/342/342 343/343/343 340/340/340
f 344/344/344 336/336/336 339/339/339
f 344/344/344 345/345/345 336/336/336
f 343/343/343 342/342/342 346/346/346
f 342/342/342 347/347/347 346/346/346
f 320/320/320 321/321/321 323/323/323
f 348/348/348 349/349/349 350/350/350
f 348/348/348 350/350/350 351/351/351
f 351/351/351 350/350/350 352/352/352
f 353/353/353 356/356/356 355/355/355
f 357/357/357 358/358/358 359/359/359
f 360/360/360 361/361/361 362/362/362
f 363/363/363 360/360/360 362/362/362
f 367/367/367 369/369/369 366/366/366
f 370/370/370 371/371/371 372/372/372
f 373/373/373 374/374/374 372/372/372
f 374/374/374 370/370/370 372/372/372
f 375/375/375 376/376/376 377/377/377
f 378/378/378 379/379/379 380/380/380
f 382/382/382 390/390/390 383/383/383
f 381/381/381 384/384/384 382/382/382
f 385/385/385 380/380/380 379/379/379
f 386/386/386 378/378/378 380/380/380
f 387/387/387 389/389/389 388/388/388
f 375/375/375 377/377/377 383/383/383
f 388/388/388 389/389/389 384/384/384
f 375/375/375 383/383/383 390/390/390
f 375/375/375 391/391/391 376/376/376
f 382/382/382 384/384/384 389/389/389
f 378/378/378 392/392/392 379/379/379
f 375/375/375 390/390/390 391/391/391
f 379/379/379 392/392/392 387/387/387
f 385/385/385 379/379/379 387/387/387
f 393/393/393 394/394/394 395/395/395
f 398/398/398 408/408/408 396/396/396
f 399/399/399 407/407/407 395/395/395
f 396/396/396 400/400/400 401/401/401
f 402/402/402 403/403/403 404/404/404
f 404/404/404 406/406/406 402/402/402
f 406/406/406 404/404/404 407/407/407
f 398/398/398 393/393/393 408/408/408
f 399/399/399 406/406/406 407/407/407
f 398/398/398 394/394/394 393/393/393
f 406/406/406 399/399/399 405/405/405
f 401/401/401 397/397/397 396/396/396
f 409/409/409 397/397/397 401/401/401
f 410/410/410 411/411/411 412/412/412
f 413/413/413 411/411/411 410/410/410
f 414/414/414 411/411/411 413/413/413
f 415/415/415 484/484/484 412/412/412
f 410/410/410 416/416/416 417/417/417
f 416/416/416 410/410/410 418/418/418
f 419/419/419 420/420/420 417/417/417
f 421/421/421 420/420/420 422/422/422
f 423/423/423 424/424/424 421/421/421
f 419/419/419 422/422/422 420/420/420
f 417/417/417 413/413/413 410/410/410
f 418/418/418 410/410/410 412/412/412
f 413/413/413 417/417/417 420/420/420
f 421/421/421 424/424/424 420/420/420
f 420/420/420 424/424/424 425/425/425
f 420/420/420 426/426/426 427/427/427
f 413/413/413 427/427/427 414/414/414
f 411/411/411 414/414/414 428/428/428
f 428/428/428 414/414/414 429/429/429
f 414/414/414 427/427/427 429/429/429
f 430/430/430 420/420/420 425/425/425
f 425/425/425 424/424/424 431/431/431
f 426/426/426 420/420/420 430/430/430
f 434/434/434 435/435/435 433/433/433
f 436/436/436 435/435/435 434/434/434
f 437/437/437 438/438/438 439/439/439
f 439/439/439 440/440/440 437/437/437
f 437/437/437 441/441/441 438/438/438
f 442/442/442 443/443/443 444/444/444
f 444/444/444 486/486/486 445/445/445
f 443/443/443 442/442/442 446/446/446
f 447/447/447 448/448/448 449/449/449
f 450/450/450 451/451/451 449/449/449
f 449/449/449 448/448/448 450/450/450
f 452/452/452 453/453/453 443/443/443
f 451/451/451 452/452/452 443/443/443
f 454/454/454 455/455/455 447/447/447
f 443/443/443 453/453/453 444/444/444
f 456/456/456 449/449/449 443/443/443
f 443/443/443 449/449/449 451/451/451
f 447/447/447 449/449/449 454/454/454
f 456/456/456 457/457/457 449/449/449
f 446/446/446 442/442/442 458/458/458
f 459/459/459 460/460/460 449/449/449
f 454/454/454 449/449/449 460/460/460
f 461/461/461 459/459/459 449/449/449
f 456/456/456 443/443/443 446/446/446
f 456/456/456 446/446/446 462/462/462
f 457/457/457 461/461/461 449/449/449
f 446/446/446 458/458/458 462/462/462
f 463/463/463 460/460/460 459/459/459
f 464/464/464 465/465/465 466/466/466
f 42/42/42 36/36/36 35/35/35
f 38/38/38 37/37/37 50/50/50
f 60/60/60 62/62/62 467/467/467
f 63/63/63 65/65/65 68/68/68
f 75/75/75 78/78/78 76/76/76
f 80/80/80 468/468/468 81/81/81
f 105/105/105 106/106/106 107/107/107
f 118/118/118 95/95/95 105/105/105
f 113/113/113 123/123/123 121/121/121
f 125/125/125 127/127/127 128/128/128
f 129/129/129 134/134/134 130/130/130
f 131/131/131 133/133/133 469/469/469
f 131/131/131 469/469/469 134/134/134
f 135/135/135 138/138/138 136/136/136
f 137/137/137 135/135/135 139/139/139
f 142/142/142 470/470/470 143/143/143
f 144/144/144 146/146/146 147/147/147
f 142/142/142 147/147/147 470/470/470
f 148/148/148 471/471/471 149/149/149
f 150/150/150 152/152/152 153/153/153
f 154/154/154 159/159/159 155/155/155
f 156/156/156 158/158/158 472/472/472
f 156/156/156 472/472/472 159/159/159
f 160/160/160 163/163/163 161/161/161
f 162/162/162 160/160/160 164/164/164
f 167/167/167 473/473/473 168/168/168
f 169/169/169 171/171/171 172/172/172
f 167/167/167 172/172/172 473/473/473
f 173/173/173 474/474/474 174/174/174
f 182/182/182 188/188/188 183/183/183
f 198/198/198 201/201/201 199/199/199
f 229/229/229 232/232/232 475/475/475
f 476/476/476 477/477/477 478/478/478
f 479/479/479 480/480/480 481/481/481
f 287/287/287 292/292/292 482/482/482
f 317/317/317 316/316/316 295/295/295
f 296/296/296 298/298/298 294/294/294
f 297/297/297 302/302/302 298/298/298
f 304/304/304 307/307/307 305/305/305
f 306/306/306 313/313/313 307/307/307
f 309/309/309 312/312/312 310/310/310
f 311/311/311 315/315/315 312/312/312
f 308/308/308 310/310/310 313/313/313
f 303/303/303 305/305/305 301/301/301
f 314/314/314 320/320/320 315/315/315
f 324/324/324 326/326/326 329/329/329
f 325/325/325 328/328/328 326/326/326
f 322/322/322 329/329/329 323/323/323
f 330/330/330 332/332/332 338/338/338
f 331/331/331 334/334/334 332/332/332
f 333/333/333 337/337/337 334/334/334
f 327/327/327 338/338/338 328/328/328
f 339/339/339 341/341/341 344/344/344
f 340/340/340 343/343/343 341/341/341
f 400/400/400 483/483/483 401/401/401
f 483/483/483 409/409/409 401/401/401
f 420/420/420 427/427/427 413/413/413
f 441/441/441 485/485/485 438/438/438
f 20/20/20 29/29/29 4/4/4
f 51/51/51 37/37/37 38/38/38
f 53/53/53 37/37/37 51/51/51
f 82/82/82 57/57/57 58/58/58
f 64/64/64 65/65/65 63/63/63
f 70/70/70 66/66/66 55/55/55
f 76/76/76 74/74/74 75/75/75
f 54/54/54 56/56/56 57/57/57
f 177/177/177 175/175/175 176/176/176
f 179/179/179 178/178/178 177/177/177
f 192/192/192 187/187/187 190/190/190
f 206/206/206 205/205/205 194/194/194
f 209/209/209 202/202/202 203/203/203
f 211/211/211 209/209/209 207/207/207
f 214/214/214 212/212/212 213/213/213
f 216/216/216 217/217/217 215/215/215
f 225/225/225 218/218/218 224/224/224
f 215/215/215 217/217/217 212/212/212
f 255/255/255 253/253/253 245/245/245
f 270/270/270 258/258/258 263/263/263
f 319/319/319 299/299/299 300/300/300
f 345/345/345 337/337/337 335/335/335
f 356/356/356 354/354/354 355/355/355
f 368/368/368 364/364/364 365/365/365
f 382/382/382 383/383/383 381/381/381
f 387/387/387 388/388/388 385/385/385
f 398/398/398 396/396/396 397/397/397
f 399/399/399 395/395/395 394/394/394
f 406/406/406 405/405/405 402/402/402
f 415/415/415 412/412/412 411/411/411
f 435/435/435 432/432/432 433/433/433
f 444/444/444 445/445/445 442/442/442

