mtllib material.mtl
usemtl Material-7011油漆.003
v 0.01506900 -0.01957100 -0.02472500
v 0.01506900 -0.01957100 -0.02472500
v 0.01584700 -0.01965400 -0.02532400
v 0.01584700 -0.01965400 -0.02532400
v 0.01584700 -0.01965400 -0.02532400
v 0.01650600 -0.01977400 -0.02646500
v 0.01539500 -0.01959700 -0.02484000
v 0.01539500 -0.01959700 -0.02484000
v 0.01906400 -0.02030100 -0.03089600
v 0.02004600 -0.02052800 -0.03259600
v 0.02016800 -0.02061100 -0.03334300
v 0.01861900 -0.02029900 -0.03113800
v 0.01688000 -0.01996500 -0.02852000
v 0.01745900 -0.01996000 -0.02811500
v 0.01827700 -0.02012900 -0.02953300
v 0.01618100 -0.01982700 -0.02731300
v 0.01618100 -0.01982700 -0.02731300
v 0.01784400 -0.02029600 -0.03156200
v 0.01902300 -0.02047700 -0.03269700
v 0.01728200 -0.02011600 -0.02998100
v 0.01493500 -0.01967700 -0.02617100
v 0.01603600 -0.01997300 -0.02910400
v 0.01511900 -0.01979300 -0.02751200
v 0.01511900 -0.01979300 -0.02751200
v 0.01819600 -0.02052400 -0.03364200
v 0.01819600 -0.02052400 -0.03364200
v 0.01819600 -0.02052400 -0.03364200
v 0.01647800 -0.02013700 -0.03066500
v 0.01381600 -0.01960000 -0.02580300
v 0.02018100 -0.02057900 -0.03299800
v 0.01992100 -0.02065000 -0.03383400
v 0.01952200 -0.02065500 -0.03411500
v 0.01901400 -0.02063100 -0.03418500
v 0.01901400 -0.02063100 -0.03418500
v 0.01574000 -0.01963600 -0.02514800
v 0.01444700 -0.01955200 -0.02479600
v 0.01444700 -0.01955200 -0.02479600
v 0.01480100 -0.01956100 -0.02470800
v 0.01414400 -0.01955400 -0.02499900
v 0.01834100 -0.02057600 -0.03383900
v 0.01865500 -0.02059900 -0.03408000
v 0.01865500 -0.02059900 -0.03408000
v 0.01499700 -0.01983600 -0.02810000
v 0.01499700 -0.01983600 -0.02810000
v 0.01391400 -0.01956800 -0.02531800
v 0.01396100 -0.01964600 -0.02630600
v 0.01396100 -0.01964600 -0.02630600
v 0.01387400 -0.01962800 -0.02612700
v 0.01504600 -0.02027100 -0.02467300
v 0.01504600 -0.02027100 -0.02467300
v 0.01581900 -0.02035200 -0.02527900
v 0.01581900 -0.02035200 -0.02527900
v 0.01536300 -0.02029400 -0.02478900
v 0.01536300 -0.02029400 -0.02478900
v 0.01609500 -0.02047400 -0.02668200
v 0.01609500 -0.02047400 -0.02668200
v 0.01896700 -0.02098400 -0.03073200
v 0.02012300 -0.02130500 -0.03327000
v 0.02000100 -0.02122300 -0.03252200
v 0.02000100 -0.02122300 -0.03252200
v 0.01822100 -0.02097800 -0.03111300
v 0.01768500 -0.02083100 -0.02986800
v 0.01816300 -0.02080900 -0.02933900
v 0.01883500 -0.02118200 -0.03280800
v 0.01576000 -0.02052300 -0.02747400
v 0.01670200 -0.02066500 -0.02859300
v 0.01505900 -0.02036800 -0.02595000
v 0.01505900 -0.02036800 -0.02595000
v 0.01701100 -0.02082600 -0.03020100
v 0.01604100 -0.02066900 -0.02901400
v 0.01761800 -0.02099500 -0.03162600
v 0.01816600 -0.02122300 -0.03358900
v 0.01487200 -0.02051500 -0.02787900
v 0.01464900 -0.02037700 -0.02629700
v 0.01464900 -0.02037700 -0.02629700
v 0.01723200 -0.02100600 -0.03196700
v 0.01606300 -0.02075400 -0.02994200
v 0.01378700 -0.02029700 -0.02575000
v 0.02013700 -0.02127300 -0.03292600
v 0.01987800 -0.02134400 -0.03376100
v 0.01947900 -0.02135000 -0.03404000
v 0.01897200 -0.02132600 -0.03411000
v 0.01897200 -0.02132600 -0.03411000
v 0.01722600 -0.02061600 -0.02771600
v 0.01570700 -0.02033300 -0.02509500
v 0.01477100 -0.02025700 -0.02465700
v 0.01477100 -0.02025700 -0.02465700
v 0.01441700 -0.02024900 -0.02474500
v 0.01411400 -0.02025100 -0.02494800
v 0.01388600 -0.02026600 -0.02526600
v 0.01393000 -0.02034300 -0.02624900
v 0.01393000 -0.02034300 -0.02624900
v 0.01383500 -0.02032200 -0.02603400
v 0.01816600 -0.02122300 -0.03358900
v 0.01816600 -0.02122300 -0.03358900
v 0.01819600 -0.02052400 -0.03364200
v 0.01819600 -0.02052400 -0.03364200
v 0.01834600 -0.02108300 -0.03382500
v 0.01393000 -0.02034300 -0.02624900
v 0.01393000 -0.02034300 -0.02624900
v 0.01387400 -0.01962800 -0.02612700
v 0.01396100 -0.01964600 -0.02630600
v 0.01396100 -0.01964600 -0.02630600
v 0.01383500 -0.02032200 -0.02603400
v 0.02004600 -0.02052800 -0.03259600
v 0.02000100 -0.02122300 -0.03252200
v 0.02013700 -0.02127300 -0.03292600
v 0.02016800 -0.02061100 -0.03334300
v 0.02012300 -0.02130500 -0.03327000
v 0.01987800 -0.02134400 -0.03376100
v 0.02018100 -0.02057900 -0.03299800
v 0.01952200 -0.02065500 -0.03411500
v 0.01947900 -0.02135000 -0.03404000
v 0.01901400 -0.02063100 -0.03418500
v 0.01897200 -0.02132600 -0.03411000
v 0.01865500 -0.02059900 -0.03408000
v 0.01992100 -0.02065000 -0.03383400
v 0.01834100 -0.02057600 -0.03383900
v 0.01723200 -0.02100600 -0.03196700
v 0.01723200 -0.02100600 -0.03196700
v 0.01723200 -0.02100600 -0.03196700
v 0.01861400 -0.02129400 -0.03400600
v 0.01647800 -0.02013700 -0.03066500
v 0.01647800 -0.02013700 -0.03066500
v 0.01647800 -0.02013700 -0.03066500
v 0.01606300 -0.02075400 -0.02994200
v 0.01606300 -0.02075400 -0.02994200
v 0.01606300 -0.02075400 -0.02994200
v 0.01499700 -0.01983600 -0.02810000
v 0.01499700 -0.01983600 -0.02810000
v 0.01499700 -0.01983600 -0.02810000
v 0.01487200 -0.02051500 -0.02787900
v 0.01487200 -0.02051500 -0.02787900
v 0.01487200 -0.02051500 -0.02787900
v 0.01391400 -0.01956800 -0.02531800
v 0.01388600 -0.02026600 -0.02526600
v 0.01411400 -0.02025100 -0.02494800
v 0.01414400 -0.01955400 -0.02499900
v 0.01441700 -0.02024900 -0.02474500
v 0.01381600 -0.01960000 -0.02580300
v 0.01381400 -0.01996100 -0.02592200
v 0.01480100 -0.01956100 -0.02470800
v 0.01477100 -0.02025700 -0.02465700
v 0.01506900 -0.01957100 -0.02472500
v 0.01539500 -0.01959700 -0.02484000
v 0.01536300 -0.02029400 -0.02478900
v 0.01574000 -0.01963600 -0.02514800
v 0.01570700 -0.02033300 -0.02509500
v 0.01581900 -0.02035200 -0.02527900
v 0.01581900 -0.02035200 -0.02527900
v 0.01504600 -0.02027100 -0.02467300
v 0.01444700 -0.01955200 -0.02479600
v 0.01827700 -0.02012900 -0.02953300
v 0.01827700 -0.02012900 -0.02953300
v 0.01827700 -0.02012900 -0.02953300
v 0.01816300 -0.02080900 -0.02933900
v 0.01816300 -0.02080900 -0.02933900
v 0.01816300 -0.02080900 -0.02933900
v 0.01896700 -0.02098400 -0.03073200
v 0.01896700 -0.02098400 -0.03073200
v 0.01906400 -0.02030100 -0.03089600
v 0.01906400 -0.02030100 -0.03089600
v 0.02000100 -0.02122300 -0.03252200
v 0.02000100 -0.02122300 -0.03252200
v 0.01745900 -0.01996000 -0.02811500
v 0.01745900 -0.01996000 -0.02811500
v 0.01745900 -0.01996000 -0.02811500
v 0.01722600 -0.02061600 -0.02771600
v 0.01722600 -0.02061600 -0.02771600
v 0.01378700 -0.02029700 -0.02575000
v 0.01861400 -0.02129400 -0.03400600
v 0.01584700 -0.01965400 -0.02532400
v 0.01584700 -0.01965400 -0.02532400
v 0.01650600 -0.01977400 -0.02646500
v 0.01650600 -0.01977400 -0.02646500
v 0.02004600 -0.02052800 -0.03259600
vn 0.04450000 0.99630000 -0.07310000
vn 0.04450000 0.99630000 -0.07300000
vn 0.04710000 0.99610000 -0.07520000
vn 0.04710000 0.99610000 -0.07530000
vn 0.04710000 0.99600000 -0.07530000
vn 0.04950000 0.99560000 -0.07930000
vn 0.04560000 0.99630000 -0.07350000
vn 0.04560000 0.99620000 -0.07360000
vn 0.05860000 0.99380000 -0.09490000
vn 0.06200000 0.99300000 -0.10090000
vn 0.06260000 0.99270000 -0.10350000
vn 0.05720000 0.99380000 -0.09570000
vn 0.05100000 0.99490000 -0.08660000
vn 0.05270000 0.99500000 -0.08520000
vn 0.05580000 0.99440000 -0.09010000
vn 0.04870000 0.99540000 -0.08210000
vn 0.04860000 0.99540000 -0.08210000
vn 0.05480000 0.99380000 -0.09700000
vn 0.05880000 0.99310000 -0.10100000
vn 0.05270000 0.99440000 -0.09150000
vn 0.04450000 0.99600000 -0.07800000
vn 0.04850000 0.99490000 -0.08820000
vn 0.04530000 0.99560000 -0.08250000
vn 0.04540000 0.99560000 -0.08250000
vn 0.05640000 0.99300000 -0.10410000
vn 0.05630000 0.99300000 -0.10410000
vn 0.05630000 0.99300000 -0.10430000
vn 0.05040000 0.99430000 -0.09360000
vn 0.04090000 0.99620000 -0.07640000
vn 0.06250000 0.99280000 -0.10230000
vn 0.06180000 0.99250000 -0.10510000
vn 0.06070000 0.99250000 -0.10590000
vn 0.05900000 0.99260000 -0.10610000
vn 0.05910000 0.99260000 -0.10610000
vn 0.04670000 0.99610000 -0.07460000
vn 0.04260000 0.99640000 -0.07320000
vn 0.04260000 0.99640000 -0.07310000
vn 0.04370000 0.99640000 -0.07300000
vn 0.04170000 0.99640000 -0.07370000
vn 0.05680000 0.99290000 -0.10490000
vn 0.05780000 0.99270000 -0.10580000
vn 0.05790000 0.99270000 -0.10570000
vn 0.04510000 0.99540000 -0.08450000
vn 0.04510000 0.99540000 -0.08460000
vn 0.04110000 0.99640000 -0.07480000
vn 0.04150000 0.99610000 -0.07820000
vn 0.04150000 0.99610000 -0.07810000
vn 0.04120000 0.99610000 -0.07750000
vn -0.04460000 -0.99630000 0.07310000
vn -0.04450000 -0.99630000 0.07310000
vn -0.04710000 -0.99600000 0.07530000
vn -0.04710000 -0.99610000 0.07530000
vn -0.04560000 -0.99620000 0.07360000
vn -0.04550000 -0.99630000 0.07350000
vn -0.04840000 -0.99560000 0.08010000
vn -0.04830000 -0.99560000 0.08020000
vn -0.05840000 -0.99380000 0.09460000
vn -0.06260000 -0.99270000 0.10350000
vn -0.06200000 -0.99300000 0.10090000
vn -0.06210000 -0.99300000 0.10090000
vn -0.05610000 -0.99380000 0.09570000
vn -0.05390000 -0.99430000 0.09150000
vn -0.05550000 -0.99440000 0.08970000
vn -0.05840000 -0.99310000 0.10170000
vn -0.04750000 -0.99540000 0.08280000
vn -0.05060000 -0.99490000 0.08720000
vn -0.04490000 -0.99600000 0.07730000
vn -0.04490000 -0.99600000 0.07740000
vn -0.05180000 -0.99430000 0.09270000
vn -0.04850000 -0.99490000 0.08810000
vn -0.05420000 -0.99380000 0.09740000
vn -0.05640000 -0.99300000 0.10420000
vn -0.04480000 -0.99550000 0.08400000
vn -0.04380000 -0.99600000 0.07850000
vn -0.04360000 -0.99600000 0.07860000
vn -0.05310000 -0.99370000 0.09850000
vn -0.04900000 -0.99460000 0.09130000
vn -0.04090000 -0.99620000 0.07640000
vn -0.06260000 -0.99280000 0.10230000
vn -0.06190000 -0.99250000 0.10510000
vn -0.06070000 -0.99250000 0.10600000
vn -0.05900000 -0.99260000 0.10610000
vn -0.05900000 -0.99260000 0.10620000
vn -0.05220000 -0.99510000 0.08390000
vn -0.04670000 -0.99610000 0.07470000
vn -0.04370000 -0.99640000 0.07300000
vn -0.04370000 -0.99640000 0.07290000
vn -0.04260000 -0.99640000 0.07310000
vn -0.04170000 -0.99640000 0.07380000
vn -0.04110000 -0.99640000 0.07480000
vn -0.04150000 -0.99610000 0.07810000
vn -0.04140000 -0.99610000 0.07820000
vn -0.04110000 -0.99620000 0.07740000
vn -0.86460000 -0.00370000 -0.50240000
vn -0.86460000 -0.00360000 -0.50240000
vn -0.86550000 -0.00340000 -0.50090000
vn -0.86550000 -0.00350000 -0.50100000
vn -0.70930000 -0.03380000 -0.70410000
vn -0.86650000 -0.00310000 -0.49920000
vn -0.86640000 -0.00300000 -0.49930000
vn -0.94020000 0.01240000 -0.34050000
vn -0.86630000 -0.00310000 -0.49950000
vn -0.86620000 -0.00330000 -0.49960000
vn -0.95300000 0.01580000 -0.30260000
vn 0.86490000 -0.00300000 0.50200000
vn 0.86360000 -0.00270000 0.50410000
vn 0.99060000 -0.04950000 0.12740000
vn 0.97730000 -0.08210000 -0.19520000
vn 0.97740000 -0.08210000 -0.19460000
vn 0.74550000 -0.11610000 -0.65630000
vn 0.99050000 -0.04930000 0.12830000
vn 0.36750000 -0.12100000 -0.92210000
vn 0.36760000 -0.12100000 -0.92210000
vn -0.11380000 -0.09900000 -0.98860000
vn -0.11370000 -0.09910000 -0.98860000
vn -0.44850000 -0.06890000 -0.89110000
vn 0.74520000 -0.11610000 -0.65670000
vn -0.74300000 -0.02810000 -0.66870000
vn -0.86620000 -0.00310000 -0.49960000
vn -0.86620000 -0.00320000 -0.49960000
vn -0.86620000 -0.00310000 -0.49970000
vn -0.44880000 -0.06880000 -0.89100000
vn -0.86630000 -0.00360000 -0.49950000
vn -0.86620000 -0.00320000 -0.49970000
vn -0.86620000 -0.00310000 -0.49970000
vn -0.86610000 -0.00310000 -0.49980000
vn -0.86620000 -0.00310000 -0.49970000
vn -0.86620000 -0.00320000 -0.49970000
vn -0.86610000 -0.00320000 -0.49990000
vn -0.86620000 -0.00320000 -0.49970000
vn -0.86610000 -0.00330000 -0.49990000
vn -0.86600000 -0.00310000 -0.50000000
vn -0.86610000 -0.00360000 -0.49980000
vn -0.86610000 -0.00330000 -0.49980000
vn -0.90610000 0.06860000 0.41750000
vn -0.90640000 0.06860000 0.41680000
vn -0.68800000 0.08200000 0.72110000
vn -0.68840000 0.08200000 0.72060000
vn -0.40390000 0.08410000 0.91090000
vn -0.99860000 0.03800000 -0.03630000
vn -0.98470000 0.02710000 -0.17200000
vn -0.06780000 0.07580000 0.99480000
vn -0.06650000 0.07580000 0.99490000
vn 0.18560000 0.06350000 0.98060000
vn 0.48940000 0.04180000 0.87100000
vn 0.48970000 0.04180000 0.87090000
vn 0.81300000 0.00590000 0.58220000
vn 0.81100000 0.00600000 0.58500000
vn 0.86560000 -0.00320000 0.50080000
vn 0.86560000 -0.00320000 0.50070000
vn 0.19310000 0.06310000 0.97910000
vn -0.40310000 0.08410000 0.91130000
vn 0.86580000 -0.00320000 0.50030000
vn 0.86590000 -0.00320000 0.50030000
vn 0.86580000 -0.00330000 0.50040000
vn 0.86590000 -0.00320000 0.50030000
vn 0.86580000 -0.00320000 0.50030000
vn 0.86580000 -0.00340000 0.50030000
vn 0.86580000 -0.00350000 0.50030000
vn 0.86580000 -0.00330000 0.50040000
vn 0.86580000 -0.00320000 0.50040000
vn 0.86580000 -0.00330000 0.50040000
vn 0.86580000 -0.00320000 0.50040000
vn 0.86580000 -0.00330000 0.50040000
vn 0.86590000 -0.00320000 0.50030000
vn 0.86590000 -0.00310000 0.50020000
vn 0.86590000 -0.00310000 0.50030000
vn 0.86580000 -0.00340000 0.50030000
vn 0.86590000 -0.00310000 0.50020000
vn -0.99860000 0.03800000 -0.03610000
vn -0.05790000 -0.99270000 0.10570000
vn 0.86590000 -0.00330000 0.50030000
vn 0.86590000 -0.00310000 0.50020000
vn 0.86580000 -0.00340000 0.50030000
vn 0.86590000 -0.00310000 0.50020000
vn 0.86580000 -0.00320000 0.50040000
vt 0.98283000 0.99836800
vt 0.98283000 0.99836800
vt 0.97937600 0.99277200
vt 0.97937600 0.99277200
vt 0.97937600 0.99277200
vt 0.97979100 0.98477500
vt 0.98061900 0.99675400
vt 0.98061900 0.99675400
vt 0.98118800 0.95478900
vt 0.98160900 0.94366700
vt 0.98373500 0.93971600
vt 0.98521400 0.95492600
vt 0.98648900 0.97315700
vt 0.98034800 0.97343400
vt 0.98080300 0.96385900
vt 0.98640900 0.98145400
vt 0.98640900 0.98145400
vt 0.99224400 0.95506700
vt 0.98868000 0.94614500
vt 0.98982300 0.96459300
vt 0.99107400 0.99120000
vt 0.99545700 0.97264100
vt 0.99573500 0.98355400
vt 0.99573500 0.98355400
vt 0.99772000 0.94375700
vt 0.99772000 0.94375700
vt 0.99772000 0.94375700
vt 0.99848100 0.96337100
vt 0.99889200 0.99646100
vt 0.98232600 0.94136000
vt 0.98717100 0.93810700
vt 0.99075100 0.93787300
vt 0.99429100 0.93891300
vt 0.99429100 0.93891300
vt 0.97934600 0.99403100
vt 0.98849500 1.00000000
vt 0.98849500 1.00000000
vt 0.98497600 0.99935600
vt 0.99216800 0.99984700
vt 0.99744500 0.94241000
vt 0.99624900 0.94039800
vt 0.99624900 0.94039800
vt 0.99931300 0.98078500
vt 0.99931300 0.98078500
vt 0.99574900 0.99881300
vt 0.99999000 0.99333400
vt 0.99999000 0.99333400
vt 0.99992300 0.99455300
vt 0.98270100 0.99837800
vt 0.98270100 0.99837800
vt 0.97937200 0.99270400
vt 0.97937200 0.99270400
vt 0.98061900 0.99675400
vt 0.98061900 0.99675400
vt 0.98411000 0.98455700
vt 0.98411000 0.98455700
vt 0.98116400 0.95543500
vt 0.98371100 0.93971400
vt 0.98160900 0.94368200
vt 0.98160900 0.94368200
vt 0.98784500 0.95577500
vt 0.98647700 0.96353700
vt 0.98078000 0.96472800
vt 0.99033100 0.94567200
vt 0.99043000 0.98148400
vt 0.98816900 0.97290100
vt 0.98897900 0.99160200
vt 0.98897900 0.99160200
vt 0.99271400 0.96382400
vt 0.99502100 0.97267400
vt 0.99408500 0.95492600
vt 0.99774200 0.94365800
vt 0.99938800 0.98192900
vt 0.99408500 0.99099300
vt 0.99408500 0.99099300
vt 0.99810300 0.95426400
vt 0.99867600 0.96780700
vt 0.99889100 0.99645100
vt 0.98232600 0.94136000
vt 0.98717100 0.93810700
vt 0.99075100 0.93787300
vt 0.99429000 0.93891400
vt 0.99429000 0.93891400
vt 0.98029500 0.97574300
vt 0.97934600 0.99403100
vt 0.98498900 0.99934200
vt 0.98498900 0.99934200
vt 0.98849500 1.00000000
vt 0.99216800 0.99984700
vt 0.99575000 0.99881300
vt 0.99999600 0.99334900
vt 0.99999600 0.99334900
vt 0.99982800 0.99479200
vt 0.02936700 0.01192900
vt 0.02936700 0.01192900
vt 0.02955400 0.00000100
vt 0.02955400 0.00000100
vt 0.02692200 0.00895500
vt 0.10371900 0.01193700
vt 0.10371900 0.01193700
vt 0.10544100 -0.00000200
vt 0.10370500 0.00000200
vt 0.10370500 0.00000200
vt 0.10579000 0.01194000
vt -0.00001500 -0.00001200
vt -0.00004200 0.01192600
vt 0.00376000 0.01194100
vt 0.00686300 -0.00004700
vt 0.00686300 0.01188600
vt 0.01176900 0.01194100
vt 0.00376000 0.00000000
vt 0.01606900 0.00000000
vt 0.01606900 0.01194100
vt 0.02061300 -0.00001000
vt 0.02061400 0.01193100
vt 0.02389300 -0.00000400
vt 0.01176900 0.00000000
vt 0.02738000 0.00035300
vt 0.04580400 0.01194400
vt 0.04580400 0.01194400
vt 0.04580400 0.01194400
vt 0.02389300 0.01193800
vt 0.05967700 0.00000900
vt 0.05967700 0.00000900
vt 0.05967700 0.00000900
vt 0.06633600 0.01194400
vt 0.06633600 0.01194400
vt 0.06633600 0.01194400
vt 0.08559100 0.00000600
vt 0.08559100 0.00000600
vt 0.08559100 0.00000600
vt 0.08722400 0.01193700
vt 0.08722400 0.01193700
vt 0.08722400 0.01193700
vt 0.11273800 0.00000000
vt 0.11273800 0.01194100
vt 0.11619300 0.01194100
vt 0.11619300 0.00000000
vt 0.11941400 0.01194100
vt 0.10835600 -0.00001700
vt 0.10706300 0.00597000
vt 0.12263400 0.00000000
vt 0.12263600 0.01192900
vt 0.12501000 -0.00004800
vt 0.12804500 -0.00000100
vt 0.12804500 0.01194000
vt 0.13213900 0.00000000
vt 0.13213900 0.01194100
vt 0.13403800 0.01194500
vt 0.13403800 0.01194500
vt 0.12508300 0.01193300
vt 0.11941400 0.00000000
vt 0.17660200 0.00000600
vt 0.17660200 0.00000600
vt 0.17660200 0.00000600
vt 0.17527400 0.01194600
vt 0.17527400 0.01194600
vt 0.17527400 0.01194600
vt 0.18944300 0.01193900
vt 0.18944300 0.01193900
vt 0.19043700 -0.00000100
vt 0.19043700 -0.00000100
vt 0.20766300 0.01195900
vt 0.20766300 0.01195900
vt 0.16222200 0.00000200
vt 0.16222200 0.00000200
vt 0.16222200 0.00000200
vt 0.15878200 0.01194500
vt 0.15878200 0.01194500
vt 0.10835200 0.01191900
vt 0.99624700 0.94039800
vt 0.13394600 -0.00000300
vt 0.13394600 -0.00000300
vt 0.14549900 -0.00000300
vt 0.14549900 -0.00000300
vt 0.20769900 0.00000400
f 1/1/1 3/3/3 6/6/6
f 2/2/2 7/7/7 4/4/4
f 9/9/9 10/10/10 11/11/11
f 11/11/11 19/19/19 9/9/9
f 15/15/15 20/20/20 13/13/13
f 17/17/17 6/6/6 14/14/14
f 17/17/17 21/21/21 6/6/6
f 18/18/18 12/12/12 19/19/19
f 12/12/12 18/18/18 20/20/20
f 22/22/22 13/13/13 20/20/20
f 22/22/22 44/44/44 17/17/17
f 25/25/25 28/28/28 18/18/18
f 28/28/28 20/20/20 18/18/18
f 23/23/23 29/29/29 21/21/21
f 30/30/30 11/11/11 10/10/10
f 19/19/19 11/11/11 31/31/31
f 32/32/32 33/33/33 31/31/31
f 35/35/35 5/5/5 8/8/8
f 36/36/36 38/38/38 1/1/1
f 21/21/21 39/39/39 1/1/1
f 40/40/40 27/27/27 41/41/41
f 19/19/19 34/34/34 25/25/25
f 22/22/22 28/28/28 44/44/44
f 45/45/45 21/21/21 29/29/29
f 29/29/29 23/23/23 47/47/47
f 39/39/39 21/21/21 45/45/45
f 29/29/29 46/46/46 48/48/48
f 49/49/49 52/52/52 54/54/54
f 55/55/55 51/51/51 50/50/50
f 57/57/57 58/58/58 59/59/59
f 61/61/61 64/64/64 57/57/57
f 61/61/61 57/57/57 62/62/62
f 66/66/66 84/84/84 65/65/65
f 68/68/68 74/74/74 56/56/56
f 69/69/69 61/61/61 62/62/62
f 69/69/69 62/62/62 66/66/66
f 71/71/71 76/76/76 64/64/64
f 73/73/73 70/70/70 65/65/65
f 75/75/75 73/73/73 65/65/65
f 77/77/77 76/76/76 69/69/69
f 70/70/70 77/77/77 69/69/69
f 73/73/73 75/75/75 78/78/78
f 79/79/79 60/60/60 58/58/58
f 64/64/64 81/81/81 58/58/58
f 64/64/64 83/83/83 81/81/81
f 55/55/55 84/84/84 51/51/51
f 85/85/85 53/53/53 51/51/51
f 55/55/55 50/50/50 68/68/68
f 68/68/68 87/87/87 88/88/88
f 88/88/88 89/89/89 68/68/68
f 89/89/89 90/90/90 68/68/68
f 64/64/64 72/72/72 83/83/83
f 73/73/73 77/77/77 70/70/70
f 90/90/90 78/78/78 75/75/75
f 78/78/78 91/91/91 73/73/73
f 92/92/92 78/78/78 93/93/93
f 95/95/95 96/96/96 98/98/98
f 99/99/99 104/104/104 101/101/101
f 107/107/107 111/111/111 105/105/105
f 110/110/110 117/117/117 109/109/109
f 109/109/109 108/108/108 111/111/111
f 113/113/113 115/115/115 112/112/112
f 115/115/115 122/122/122 116/116/116
f 110/110/110 113/113/113 112/112/112
f 116/116/116 98/98/98 118/118/118
f 94/94/94 120/120/120 97/97/97
f 122/122/122 98/98/98 116/116/116
f 125/125/125 121/121/121 127/127/127
f 129/129/129 126/126/126 134/134/134
f 131/131/131 133/133/133 103/103/103
f 97/97/97 119/119/119 123/123/123
f 98/98/98 122/122/122 95/95/95
f 137/137/137 138/138/138 135/135/135
f 139/139/139 152/152/152 138/138/138
f 135/135/135 140/140/140 141/141/141
f 141/141/141 140/140/140 101/101/101
f 143/143/143 151/151/151 144/144/144
f 146/146/146 148/148/148 147/147/147
f 149/149/149 172/172/172 148/148/148
f 151/151/151 146/146/146 145/145/145
f 139/139/139 143/143/143 152/152/152
f 160/160/160 162/162/162 155/155/155
f 163/163/163 176/176/176 161/161/161
f 166/166/166 168/168/168 158/158/158
f 170/170/170 141/141/141 104/104/104
f 141/141/141 170/170/170 136/136/136
f 136/136/136 135/135/135 141/141/141
f 15/15/15 9/9/9 12/12/12
f 17/17/17 14/14/14 13/13/13
f 17/17/17 13/13/13 22/22/22
f 18/18/18 19/19/19 25/25/25
f 21/21/21 17/17/17 23/23/23
f 26/26/26 34/34/34 42/42/42
f 22/22/22 20/20/20 28/28/28
f 84/84/84 66/66/66 63/63/63
f 70/70/70 66/66/66 65/65/65
f 71/71/71 64/64/64 61/61/61
f 71/71/71 61/61/61 69/69/69
f 171/171/171 82/82/82 72/72/72
f 76/76/76 71/71/71 69/69/69
f 96/96/96 118/118/118 98/98/98
f 141/141/141 101/101/101 104/104/104
f 124/124/124 128/128/128 130/130/130
f 173/173/173 150/150/150 175/175/175
f 150/150/150 169/169/169 175/175/175
f 174/174/174 168/168/168 167/167/167
f 165/165/165 156/156/156 154/154/154
f 19/19/19 12/12/12 9/9/9
f 15/15/15 13/13/13 14/14/14
f 21/21/21 1/1/1 6/6/6
f 12/12/12 20/20/20 15/15/15
f 43/43/43 24/24/24 16/16/16
f 34/34/34 19/19/19 31/31/31
f 39/39/39 37/37/37 2/2/2
f 23/23/23 43/43/43 47/47/47
f 64/64/64 58/58/58 57/57/57
f 57/57/57 63/63/63 62/62/62
f 84/84/84 55/55/55 65/65/65
f 75/75/75 65/65/65 55/55/55
f 69/69/69 66/66/66 70/70/70
f 76/76/76 72/72/72 64/64/64
f 81/81/81 80/80/80 58/58/58
f 49/49/49 86/86/86 67/67/67
f 90/90/90 75/75/75 68/68/68
f 99/99/99 101/101/101 102/102/102
f 107/107/107 105/105/105 106/106/106
f 117/117/117 108/108/108 109/109/109
f 109/109/109 111/111/111 107/107/107
f 115/115/115 114/114/114 112/112/112
f 115/115/115 116/116/116 114/114/114
f 110/110/110 112/112/112 117/117/117
f 132/132/132 100/100/100 102/102/102
f 137/137/137 135/135/135 136/136/136
f 139/139/139 138/138/138 137/137/137
f 143/143/143 144/144/144 142/142/142
f 146/146/146 147/147/147 145/145/145
f 172/172/172 147/147/147 148/148/148
f 151/151/151 145/145/145 144/144/144
f 143/143/143 142/142/142 152/152/152
f 159/159/159 153/153/153 157/157/157
f 164/164/164 162/162/162 160/160/160
f 66/66/66 62/62/62 63/63/63

