mtllib material.mtl
usemtl Material-7011油漆.006
v -0.03101900 -0.01975900 -0.00095200
v -0.03016900 -0.01968700 -0.00213100
v -0.03101900 -0.01976500 -0.00213200
v -0.03059200 -0.01971900 -0.00008900
v -0.03059200 -0.01971900 -0.00008900
v -0.03016900 -0.01968100 -0.00071700
v -0.03016900 -0.01968100 -0.00071700
v -0.02962500 -0.01963200 0.00025800
v -0.02962500 -0.01963200 0.00025800
v -0.02843400 -0.01952900 0.00008900
v -0.02843400 -0.01952900 0.00008900
v -0.02891100 -0.01957100 -0.00069400
v -0.02891100 -0.01957100 -0.00069400
v -0.02831800 -0.01952300 -0.00148300
v -0.02733500 -0.01944300 -0.00155500
v -0.02733500 -0.01944300 -0.00155500
v -0.02733500 -0.01944300 -0.00155500
v -0.02783200 -0.01948600 -0.00213200
v -0.02783200 -0.01948600 -0.00213200
v -0.02761900 -0.01946400 -0.00099700
v -0.02761900 -0.01946400 -0.00099700
v -0.02677000 -0.01939600 -0.00103300
v -0.02677000 -0.01939600 -0.00103300
v -0.02677000 -0.01939600 -0.00103300
v -0.02677000 -0.01940100 -0.00213200
v -0.02677000 -0.01940100 -0.00213200
v -0.02791800 -0.01948700 -0.00059900
v -0.02737700 -0.01944300 -0.00031400
v -0.02677000 -0.01939500 0.00033200
v -0.02677000 -0.01939500 0.00033200
v -0.02677000 -0.01939500 0.00033200
v -0.02761900 -0.01946200 0.00070300
v -0.02761900 -0.01946200 0.00070300
v -0.02761900 -0.01946200 0.00070300
v -0.03016900 -0.01968200 0.00098300
v -0.03016900 -0.01968200 0.00098300
v -0.03016900 -0.01968200 0.00098300
v -0.03016900 -0.01968200 0.00098300
v -0.03101900 -0.01976000 0.00097500
v -0.03101900 -0.01976000 0.00097500
v -0.03101900 -0.01976000 0.00097500
v -0.02945000 -0.01962000 0.00144200
v -0.02945000 -0.01962000 0.00144200
v -0.02945000 -0.01962000 0.00144200
v -0.03101900 -0.01976500 0.00211800
v -0.03042500 -0.01970800 0.00171100
v -0.03042500 -0.01970800 0.00171100
v -0.02995700 -0.01966800 0.00211800
v -0.02995700 -0.01966800 0.00211800
v -0.02896300 -0.01957500 0.00079400
v -0.02896300 -0.01957500 0.00079400
v -0.02677000 -0.01939700 0.00124900
v -0.02677000 -0.01939700 0.00124900
v -0.02761900 -0.01946500 0.00147000
v -0.02677000 -0.01940100 0.00211800
v -0.02677000 -0.01940100 0.00211800
v -0.02761900 -0.01946900 0.00211800
v -0.03095400 -0.02045700 -0.00115400
v -0.03095400 -0.02045700 -0.00115400
v -0.03095400 -0.02046200 -0.00212700
v -0.03010600 -0.02038400 -0.00212700
v -0.03010600 -0.02038400 -0.00212700
v -0.03010600 -0.02037800 -0.00061600
v -0.03010600 -0.02037800 -0.00061600
v -0.03010600 -0.02037800 -0.00061600
v -0.03095400 -0.02045500 -0.00008700
v -0.03095400 -0.02045500 -0.00008700
v -0.03095400 -0.02045500 -0.00008700
v -0.02953800 -0.02032700 0.00022300
v -0.02953800 -0.02032700 0.00022300
v -0.02885100 -0.02026800 -0.00069300
v -0.02885100 -0.02026800 -0.00069300
v -0.02885100 -0.02026800 -0.00069300
v -0.02837600 -0.02022700 0.00008900
v -0.02837600 -0.02022700 0.00008900
v -0.03010600 -0.02037800 0.00039300
v -0.02827600 -0.02022200 -0.00145900
v -0.02827600 -0.02022200 -0.00145900
v -0.02777500 -0.02018400 -0.00212700
v -0.02777500 -0.02018400 -0.00212700
v -0.02727900 -0.02014100 -0.00155200
v -0.02727900 -0.02014100 -0.00155200
v -0.02671500 -0.02009900 -0.00212700
v -0.02756300 -0.02016100 -0.00099400
v -0.02671500 -0.02009400 -0.00103100
v -0.02786000 -0.02018500 -0.00059800
v -0.02732100 -0.02014100 -0.00031400
v -0.02732100 -0.02014100 -0.00031400
v -0.02671500 -0.02009200 0.00031900
v -0.02671500 -0.02009200 0.00031900
v -0.02756300 -0.02016000 0.00070500
v -0.02756300 -0.02016000 0.00070500
v -0.03095400 -0.02045700 0.00094900
v -0.03095400 -0.02045700 0.00094900
v -0.03010600 -0.02037900 0.00098100
v -0.03010600 -0.02037900 0.00098100
v -0.02939000 -0.02031700 0.00144100
v -0.02939000 -0.02031700 0.00144100
v -0.03095400 -0.02046200 0.00211300
v -0.03036200 -0.02040500 0.00170700
v -0.03036200 -0.02040500 0.00170700
v -0.02989400 -0.02036500 0.00211300
v -0.02882200 -0.02026500 0.00068400
v -0.02671500 -0.02009500 0.00124700
v -0.02756300 -0.02016300 0.00146400
v -0.02756300 -0.02016300 0.00146400
v -0.02671500 -0.02009900 0.00211300
v -0.02671500 -0.02009900 0.00211300
v -0.02756300 -0.02016600 0.00211300
v -0.02671500 -0.02009900 -0.00212700
v -0.02671500 -0.02009900 -0.00212700
v -0.02783200 -0.01948600 -0.00213200
v -0.02783200 -0.01948600 -0.00213200
v -0.02677000 -0.01940100 -0.00213200
v -0.02777500 -0.02018400 -0.00212700
v -0.02671500 -0.02009200 0.00031900
v -0.02671500 -0.02009200 0.00031900
v -0.02671500 -0.02009200 0.00031900
v -0.02671500 -0.02009200 0.00031900
v -0.02671500 -0.02009200 0.00031900
v -0.02671500 -0.02009200 0.00031900
v -0.02677000 -0.01939500 0.00033200
v -0.02677000 -0.01939500 0.00033200
v -0.02677000 -0.01939700 0.00124900
v -0.02677000 -0.01939700 0.00124900
v -0.02677000 -0.01940100 0.00211800
v -0.02677000 -0.01940100 0.00211800
v -0.02677000 -0.01940100 0.00211800
v -0.02671500 -0.02009900 0.00211300
v -0.02671500 -0.02009500 0.00124700
v -0.02671500 -0.02009500 0.00124700
v -0.02677000 -0.01939600 -0.00103300
v -0.02677000 -0.01939600 -0.00103300
v -0.02671500 -0.02009400 -0.00103100
v -0.02671500 -0.02009400 -0.00103100
v -0.02677000 -0.01940100 -0.00213200
v -0.02677000 -0.01940100 -0.00213200
v -0.02677000 -0.01940100 -0.00213200
v -0.02761900 -0.01946900 0.00211800
v -0.02756300 -0.02016600 0.00211300
v -0.02756300 -0.02016600 0.00211300
v -0.02671500 -0.02009900 0.00211300
v -0.02677000 -0.01940100 0.00211800
v -0.02677000 -0.01940100 0.00211800
v -0.02761900 -0.01946200 0.00070300
v -0.02761900 -0.01946200 0.00070300
v -0.02761900 -0.01946200 0.00070300
v -0.02756300 -0.02016100 -0.00099400
v -0.02756300 -0.02016000 0.00070500
v -0.02756300 -0.02016000 0.00070500
v -0.02761900 -0.01946400 -0.00099700
v -0.02756300 -0.02016300 0.00146400
v -0.02756300 -0.02016300 0.00146400
v -0.02761900 -0.01946500 0.00147000
v -0.02761900 -0.01946500 0.00147000
v -0.02761900 -0.01946500 0.00147000
v -0.02761900 -0.01946900 0.00211800
v -0.02756300 -0.02016600 0.00211300
v -0.02756300 -0.02016600 0.00211300
v -0.02945000 -0.01962000 0.00144200
v -0.02945000 -0.01962000 0.00144200
v -0.02939000 -0.02031700 0.00144100
v -0.02939000 -0.02031700 0.00144100
v -0.02939000 -0.02031700 0.00144100
v -0.02939000 -0.02031700 0.00144100
v -0.02896300 -0.01957500 0.00079400
v -0.02896300 -0.01957500 0.00079400
v -0.02989400 -0.02036500 0.00211300
v -0.02995700 -0.01966800 0.00211800
v -0.02995700 -0.01966800 0.00211800
v -0.02882200 -0.02026500 0.00068400
v -0.02882200 -0.02026500 0.00068400
v -0.02843400 -0.01952900 0.00008900
v -0.02843400 -0.01952900 0.00008900
v -0.02837600 -0.02022700 0.00008900
v -0.02837600 -0.02022700 0.00008900
v -0.02791800 -0.01948700 -0.00059900
v -0.02791800 -0.01948700 -0.00059900
v -0.02791800 -0.01948700 -0.00059900
v -0.02786000 -0.02018500 -0.00059800
v -0.02786000 -0.02018500 -0.00059800
v -0.02786000 -0.02018500 -0.00059800
v -0.02761900 -0.01946400 -0.00099700
v -0.02761900 -0.01946400 -0.00099700
v -0.02995700 -0.01966800 0.00211800
v -0.02995700 -0.01966800 0.00211800
v -0.03095400 -0.02046200 0.00211300
v -0.03095400 -0.02046200 0.00211300
v -0.02989400 -0.02036500 0.00211300
v -0.03095400 -0.02045700 -0.00115400
v -0.03095400 -0.02045700 -0.00115400
v -0.03101900 -0.01975900 -0.00095200
v -0.03101900 -0.01975900 -0.00095200
v -0.03101900 -0.01975900 -0.00095200
v -0.03101900 -0.01976500 -0.00213200
v -0.03095400 -0.02046200 -0.00212700
v -0.03095400 -0.02045500 -0.00008700
v -0.03095400 -0.02045500 -0.00008700
v -0.03095400 -0.02045500 -0.00008700
v -0.03101900 -0.01976500 0.00211800
v -0.03101900 -0.01976000 0.00097500
v -0.03101900 -0.01976000 0.00097500
v -0.03101900 -0.01976000 0.00097500
v -0.03095400 -0.02046200 0.00211300
v -0.03095400 -0.02045700 0.00094900
v -0.03101900 -0.01976500 -0.00213200
v -0.03101900 -0.01976500 -0.00213200
v -0.03016900 -0.01968700 -0.00213100
v -0.03010600 -0.02038400 -0.00212700
v -0.03010600 -0.02038400 -0.00212700
v -0.03095400 -0.02046200 -0.00212700
v -0.03016900 -0.01968200 0.00098300
v -0.03016900 -0.01968200 0.00098300
v -0.03010600 -0.02037900 0.00098100
v -0.03010600 -0.02037800 0.00039300
v -0.03010600 -0.02037800 0.00039300
v -0.03010600 -0.02037800 0.00039300
v -0.03016900 -0.01968100 -0.00071700
v -0.03016900 -0.01968100 -0.00071700
v -0.03016900 -0.01968100 -0.00071700
v -0.03010600 -0.02037800 -0.00061600
v -0.03010600 -0.02038400 -0.00212700
v -0.03010600 -0.02038400 -0.00212700
v -0.02777500 -0.02018400 -0.00212700
v -0.02777500 -0.02018400 -0.00212700
v -0.02831800 -0.01952300 -0.00148300
v -0.02831800 -0.01952300 -0.00148300
v -0.02831800 -0.01952300 -0.00148300
v -0.02783200 -0.01948600 -0.00213200
v -0.02827600 -0.02022200 -0.00145900
v -0.02827600 -0.02022200 -0.00145900
v -0.02827600 -0.02022200 -0.00145900
v -0.02885100 -0.02026800 -0.00069300
v -0.02885100 -0.02026800 -0.00069300
v -0.02891100 -0.01957100 -0.00069400
v -0.02891100 -0.01957100 -0.00069400
v -0.02891100 -0.01957100 -0.00069400
v -0.02891100 -0.01957100 -0.00069400
v -0.02953800 -0.02032700 0.00022300
v -0.02953800 -0.02032700 0.00022300
v -0.02962500 -0.01963200 0.00025800
v -0.02962500 -0.01963200 0.00025800
v -0.03010600 -0.02037900 0.00098100
v -0.03010600 -0.02037900 0.00098100
v -0.02671500 -0.02009900 -0.00212700
v -0.02756300 -0.02016100 -0.00099400
v -0.03101900 -0.01976500 0.00211800
v -0.03016900 -0.01968700 -0.00213100
v -0.03016900 -0.01968200 0.00098300
vn -0.09290000 0.99570000 -0.00280000
vn -0.08990000 0.99590000 -0.00640000
vn -0.09290000 0.99570000 -0.00640000
vn -0.09130000 0.99580000 -0.00030000
vn -0.09140000 0.99580000 -0.00030000
vn -0.08980000 0.99600000 -0.00210000
vn -0.08990000 0.99600000 -0.00210000
vn -0.08780000 0.99610000 0.00070000
vn -0.08790000 0.99610000 0.00080000
vn -0.08370000 0.99650000 0.00020000
vn -0.08370000 0.99650000 0.00030000
vn -0.08540000 0.99630000 -0.00210000
vn -0.08540000 0.99630000 -0.00200000
vn -0.08330000 0.99650000 -0.00440000
vn -0.07990000 0.99680000 -0.00450000
vn -0.07980000 0.99680000 -0.00450000
vn -0.07980000 0.99680000 -0.00460000
vn -0.08150000 0.99670000 -0.00620000
vn -0.08160000 0.99660000 -0.00620000
vn -0.08080000 0.99670000 -0.00300000
vn -0.08080000 0.99670000 -0.00290000
vn -0.07790000 0.99700000 -0.00300000
vn -0.07780000 0.99700000 -0.00300000
vn -0.07780000 0.99700000 -0.00290000
vn -0.07790000 0.99690000 -0.00620000
vn -0.07780000 0.99690000 -0.00620000
vn -0.08190000 0.99660000 -0.00180000
vn -0.07990000 0.99680000 -0.00090000
vn -0.07770000 0.99700000 0.00090000
vn -0.07770000 0.99700000 0.00100000
vn -0.07780000 0.99700000 0.00090000
vn -0.08080000 0.99670000 0.00200000
vn -0.08070000 0.99670000 0.00210000
vn -0.08080000 0.99670000 0.00210000
vn -0.08980000 0.99600000 0.00290000
vn -0.08980000 0.99600000 0.00300000
vn -0.08990000 0.99590000 0.00300000
vn -0.08990000 0.99590000 0.00290000
vn -0.09290000 0.99570000 0.00290000
vn -0.09290000 0.99570000 0.00300000
vn -0.09280000 0.99570000 0.00290000
vn -0.08730000 0.99620000 0.00430000
vn -0.08730000 0.99620000 0.00420000
vn -0.08740000 0.99620000 0.00430000
vn -0.09290000 0.99570000 0.00630000
vn -0.09070000 0.99590000 0.00510000
vn -0.09080000 0.99590000 0.00510000
vn -0.08920000 0.99600000 0.00630000
vn -0.08910000 0.99600000 0.00630000
vn -0.08560000 0.99630000 0.00230000
vn -0.08560000 0.99630000 0.00240000
vn -0.07790000 0.99700000 0.00360000
vn -0.07780000 0.99700000 0.00360000
vn -0.08080000 0.99670000 0.00430000
vn -0.07790000 0.99690000 0.00610000
vn -0.07780000 0.99690000 0.00620000
vn -0.08080000 0.99670000 0.00620000
vn 0.09280000 -0.99570000 0.00350000
vn 0.09280000 -0.99570000 0.00340000
vn 0.09290000 -0.99570000 0.00640000
vn 0.08990000 -0.99590000 0.00630000
vn 0.08990000 -0.99590000 0.00640000
vn 0.08990000 -0.99600000 0.00190000
vn 0.08990000 -0.99600000 0.00180000
vn 0.08990000 -0.99590000 0.00180000
vn 0.09290000 -0.99570000 0.00030000
vn 0.09280000 -0.99570000 0.00030000
vn 0.09290000 -0.99570000 0.00020000
vn 0.08780000 -0.99610000 -0.00060000
vn 0.08780000 -0.99610000 -0.00070000
vn 0.08540000 -0.99630000 0.00200000
vn 0.08530000 -0.99640000 0.00210000
vn 0.08540000 -0.99630000 0.00210000
vn 0.08380000 -0.99650000 -0.00030000
vn 0.08370000 -0.99650000 -0.00030000
vn 0.08980000 -0.99600000 -0.00120000
vn 0.08340000 -0.99650000 0.00420000
vn 0.08330000 -0.99650000 0.00430000
vn 0.08160000 -0.99660000 0.00620000
vn 0.08160000 -0.99660000 0.00630000
vn 0.07980000 -0.99680000 0.00450000
vn 0.07980000 -0.99680000 0.00460000
vn 0.07780000 -0.99690000 0.00620000
vn 0.08080000 -0.99670000 0.00290000
vn 0.07780000 -0.99700000 0.00300000
vn 0.08190000 -0.99660000 0.00180000
vn 0.08000000 -0.99680000 0.00090000
vn 0.07990000 -0.99680000 0.00090000
vn 0.07780000 -0.99700000 -0.00090000
vn 0.07780000 -0.99700000 -0.00100000
vn 0.08080000 -0.99670000 -0.00200000
vn 0.08080000 -0.99670000 -0.00210000
vn 0.09290000 -0.99570000 -0.00290000
vn 0.09280000 -0.99570000 -0.00280000
vn 0.08990000 -0.99600000 -0.00290000
vn 0.08980000 -0.99600000 -0.00290000
vn 0.08730000 -0.99620000 -0.00430000
vn 0.08730000 -0.99620000 -0.00420000
vn 0.09290000 -0.99570000 -0.00630000
vn 0.09080000 -0.99590000 -0.00500000
vn 0.09080000 -0.99590000 -0.00510000
vn 0.08910000 -0.99600000 -0.00630000
vn 0.08530000 -0.99640000 -0.00200000
vn 0.07780000 -0.99700000 -0.00360000
vn 0.08080000 -0.99670000 -0.00430000
vn 0.08070000 -0.99670000 -0.00430000
vn 0.07780000 -0.99690000 -0.00610000
vn 0.07790000 -0.99690000 -0.00610000
vn 0.08080000 -0.99670000 -0.00620000
vn 0.00040000 -0.00630000 -1.00000000
vn 0.00060000 -0.00600000 -1.00000000
vn 0.00050000 -0.00620000 -1.00000000
vn 0.00060000 -0.00600000 -1.00000000
vn 0.00060000 -0.00600000 -1.00000000
vn 0.00030000 -0.00660000 -1.00000000
vn 0.99690000 0.07820000 -0.00010000
vn 0.99700000 0.07760000 -0.00010000
vn 0.99700000 0.07760000 0.00030000
vn 0.99700000 0.07790000 0.00010000
vn 0.99700000 0.07790000 -0.00000000
vn 0.99700000 0.07800000 0.00010000
vn 0.99700000 0.07790000 -0.00000000
vn 0.99700000 0.07790000 0.00010000
vn 0.99700000 0.07790000 0.00010000
vn 0.99700000 0.07790000 0.00030000
vn 0.99700000 0.07780000 0.00030000
vn 0.99700000 0.07800000 0.00010000
vn 0.99700000 0.07760000 0.00030000
vn 0.99700000 0.07780000 0.00030000
vn 0.99700000 0.07780000 0.00030000
vn 0.99700000 0.07800000 0.00010000
vn 0.99700000 0.07780000 -0.00030000
vn 0.99700000 0.07770000 -0.00030000
vn 0.99700000 0.07790000 -0.00020000
vn 0.99700000 0.07780000 -0.00030000
vn 0.99700000 0.07780000 -0.00050000
vn 0.99700000 0.07790000 -0.00040000
vn 0.99700000 0.07780000 -0.00030000
vn 0.00050000 -0.00620000 1.00000000
vn 0.00050000 -0.00620000 1.00000000
vn 0.00060000 -0.00590000 1.00000000
vn 0.00060000 -0.00590000 1.00000000
vn 0.00050000 -0.00610000 1.00000000
vn 0.00060000 -0.00590000 1.00000000
vn -0.99670000 -0.08080000 -0.00040000
vn -0.99670000 -0.08080000 -0.00000000
vn -0.99670000 -0.08080000 -0.00020000
vn -0.99670000 -0.08080000 0.00010000
vn -0.99670000 -0.08080000 0.00010000
vn -0.99670000 -0.08080000 -0.00040000
vn -0.99670000 -0.08080000 0.00010000
vn -0.99670000 -0.08080000 -0.00030000
vn -0.99670000 -0.08080000 -0.00040000
vn -0.99670000 -0.08080000 -0.00030000
vn -0.99670000 -0.08080000 -0.00040000
vn -0.99670000 -0.08090000 -0.00050000
vn -0.99670000 -0.08090000 -0.00050000
vn -0.99670000 -0.08080000 -0.00040000
vn -0.99670000 -0.08090000 -0.00050000
vn 0.79580000 0.06720000 0.60190000
vn 0.79580000 0.06720000 0.60180000
vn 0.79600000 0.06690000 0.60160000
vn 0.79580000 0.06730000 0.60180000
vn 0.79590000 0.06730000 0.60160000
vn 0.79580000 0.06720000 0.60180000
vn 0.79600000 0.06690000 0.60160000
vn 0.79590000 0.06690000 0.60170000
vn 0.79580000 0.06730000 0.60180000
vn 0.79580000 0.06730000 0.60180000
vn 0.79580000 0.06720000 0.60190000
vn 0.79600000 0.06690000 0.60160000
vn 0.79610000 0.06670000 0.60150000
vn 0.79610000 0.06670000 0.60150000
vn 0.79600000 0.06690000 0.60160000
vn 0.79610000 0.06670000 0.60150000
vn 0.79620000 0.06650000 0.60130000
vn 0.79620000 0.06650000 0.60140000
vn 0.79620000 0.06630000 0.60140000
vn 0.79620000 0.06650000 0.60130000
vn 0.79620000 0.06650000 0.60130000
vn 0.79630000 0.06630000 0.60130000
vn 0.79640000 0.06650000 0.60100000
vn 0.79620000 0.06650000 0.60140000
vn 0.79630000 0.06630000 0.60130000
vn 0.00050000 -0.00620000 1.00000000
vn 0.00060000 -0.00630000 1.00000000
vn 0.00050000 -0.00620000 1.00000000
vn 0.00060000 -0.00630000 1.00000000
vn 0.00050000 -0.00620000 1.00000000
vn -0.99570000 -0.09280000 0.00020000
vn -0.99570000 -0.09290000 0.00040000
vn -0.99570000 -0.09280000 0.00020000
vn -0.99570000 -0.09290000 0.00040000
vn -0.99570000 -0.09310000 0.00000000
vn -0.99570000 -0.09290000 0.00040000
vn -0.99570000 -0.09290000 0.00040000
vn -0.99570000 -0.09280000 0.00020000
vn -0.99570000 -0.09290000 -0.00010000
vn -0.99570000 -0.09310000 0.00000000
vn -0.99570000 -0.09290000 -0.00040000
vn -0.99570000 -0.09310000 0.00000000
vn -0.99570000 -0.09290000 -0.00010000
vn -0.99570000 -0.09290000 -0.00040000
vn -0.99570000 -0.09290000 -0.00040000
vn -0.99570000 -0.09290000 -0.00010000
vn 0.00090000 -0.00610000 -1.00000000
vn 0.00070000 -0.00630000 -1.00000000
vn 0.00090000 -0.00610000 -1.00000000
vn 0.00070000 -0.00630000 -1.00000000
vn 0.00090000 -0.00610000 -1.00000000
vn 0.00070000 -0.00630000 -1.00000000
vn 0.99590000 0.08990000 0.00020000
vn 0.99590000 0.08990000 0.00010000
vn 0.99600000 0.08960000 0.00050000
vn 0.99600000 0.08970000 -0.00000000
vn 0.99590000 0.08990000 0.00010000
vn 0.99600000 0.08980000 0.00010000
vn 0.99590000 0.09000000 -0.00050000
vn 0.99600000 0.08980000 -0.00020000
vn 0.99590000 0.08990000 0.00010000
vn 0.99600000 0.08950000 -0.00020000
vn 0.99600000 0.08970000 -0.00040000
vn 0.99590000 0.09000000 -0.00050000
vn -0.79630000 -0.06880000 -0.60100000
vn -0.79620000 -0.06900000 -0.60100000
vn -0.79600000 -0.06930000 -0.60130000
vn -0.79590000 -0.06930000 -0.60140000
vn -0.79590000 -0.06920000 -0.60150000
vn -0.79600000 -0.06890000 -0.60130000
vn -0.79610000 -0.06930000 -0.60110000
vn -0.79610000 -0.06910000 -0.60120000
vn -0.79610000 -0.06920000 -0.60120000
vn -0.79590000 -0.06950000 -0.60150000
vn -0.79600000 -0.06950000 -0.60130000
vn -0.79590000 -0.06950000 -0.60150000
vn -0.79570000 -0.06950000 -0.60170000
vn -0.79570000 -0.06970000 -0.60160000
vn -0.79590000 -0.06930000 -0.60140000
vn -0.79590000 -0.06950000 -0.60150000
vn -0.79570000 -0.06970000 -0.60160000
vn -0.79570000 -0.06970000 -0.60160000
vn -0.79560000 -0.06980000 -0.60180000
vn -0.79570000 -0.06970000 -0.60160000
vn -0.79550000 -0.07010000 -0.60190000
vn 0.99700000 0.07780000 -0.00030000
vn 0.79630000 0.06630000 0.60130000
vn 0.00060000 -0.00630000 1.00000000
vn 0.99590000 0.09000000 -0.00050000
vn -0.79550000 -0.07010000 -0.60190000
vt 0.98051000 0.97398900
vt 0.97349500 0.97872400
vt 0.97380600 0.97361300
vt 0.98548000 0.97662300
vt 0.98548000 0.97662300
vt 0.98173800 0.97912000
vt 0.98173800 0.97912000
vt 0.98758700 0.98242400
vt 0.98758700 0.98242400
vt 0.98657600 0.98967800
vt 0.98657600 0.98967800
vt 0.98170500 0.98671800
vt 0.98170500 0.98671800
vt 0.97668500 0.99016200
vt 0.97588400 0.99620000
vt 0.97588400 0.99620000
vt 0.97588400 0.99620000
vt 0.97243600 0.99288500
vt 0.97243600 0.99288500
vt 0.97955400 0.99459500
vt 0.97955400 0.99459500
vt 0.97910700 0.99987800
vt 0.97910700 0.99987800
vt 0.97910700 0.99987800
vt 0.97191400 0.99948500
vt 0.97191400 0.99948500
vt 0.98215600 0.99282400
vt 0.98394100 0.99620000
vt 0.98822800 1.00000900
vt 0.98822800 1.00000900
vt 0.98822800 1.00000900
vt 0.99055900 0.99466700
vt 0.99055900 0.99466700
vt 0.99055900 0.99466700
vt 0.99182800 0.97904200
vt 0.99182800 0.97904200
vt 0.99182800 0.97904200
vt 0.99182800 0.97904200
vt 0.99162700 0.97397400
vt 0.99162700 0.97397400
vt 0.99162700 0.97397400
vt 0.99473200 0.98327500
vt 0.99473200 0.98327500
vt 0.99473200 0.98327500
vt 0.99812000 0.97362300
vt 0.99600700 0.97731000
vt 0.99600700 0.97731000
vt 0.99854600 0.97998100
vt 0.99854600 0.97998100
vt 0.99091900 0.98638300
vt 0.99091900 0.98638300
vt 0.99432300 0.99982300
vt 0.99432300 0.99982300
vt 0.99547500 0.99445900
vt 0.99998900 0.99949400
vt 0.99998900 0.99949400
vt 0.99959000 0.99420100
vt 0.97933400 0.97392700
vt 0.97933400 0.97392700
vt 0.97380700 0.97361700
vt 0.97349200 0.97872200
vt 0.97349200 0.97872200
vt 0.98233400 0.97907900
vt 0.98233400 0.97907900
vt 0.98233400 0.97907900
vt 0.98549700 0.97406100
vt 0.98549700 0.97406100
vt 0.98549700 0.97406100
vt 0.98737700 0.98258100
vt 0.98737700 0.98258100
vt 0.98170100 0.98672100
vt 0.98170100 0.98672100
vt 0.98170100 0.98672100
vt 0.98657600 0.98967900
vt 0.98657600 0.98967900
vt 0.98833900 0.97912600
vt 0.97682100 0.99006900
vt 0.97682100 0.99006900
vt 0.97243900 0.99289300
vt 0.97243900 0.99289300
vt 0.97588400 0.99620000
vt 0.97588400 0.99620000
vt 0.97191500 0.99948000
vt 0.97955400 0.99459500
vt 0.97910700 0.99987800
vt 0.98215200 0.99282600
vt 0.98394100 0.99620000
vt 0.98394100 0.99620000
vt 0.98814600 1.00001000
vt 0.98814600 1.00001000
vt 0.99058000 0.99466700
vt 0.99058000 0.99466700
vt 0.99149300 0.97397500
vt 0.99149300 0.97397500
vt 0.99183000 0.97903800
vt 0.99183000 0.97903800
vt 0.99475400 0.98326700
vt 0.99475400 0.98326700
vt 0.99811900 0.97362100
vt 0.99600700 0.97731000
vt 0.99600700 0.97731000
vt 0.99853600 0.97996700
vt 0.99025900 0.98688900
vt 0.99432700 0.99982300
vt 0.99545000 0.99446000
vt 0.99545000 0.99446000
vt 0.99999000 0.99949400
vt 0.99999000 0.99949400
vt 0.99958900 0.99420100
vt 0.00001100 0.01179800
vt 0.00001100 0.01179800
vt 0.00496900 0.00000100
vt 0.00496900 0.00000100
vt 0.00000200 -0.00000200
vt 0.00496300 0.01179400
vt 0.11140400 0.01180700
vt 0.11140400 0.01180700
vt 0.11140400 0.01180700
vt 0.11140400 0.01180700
vt 0.11140400 0.01180700
vt 0.11140400 0.01180700
vt 0.11134300 0.00000000
vt 0.11134300 0.00000000
vt 0.10707500 0.00000100
vt 0.10707500 0.00000100
vt 0.10302400 0.00000600
vt 0.10302400 0.00000600
vt 0.10302400 0.00000600
vt 0.10302600 0.01179700
vt 0.10707200 0.01179900
vt 0.10707200 0.01179900
vt 0.11770400 0.00000000
vt 0.11770400 0.00000000
vt 0.11770400 0.01179900
vt 0.11770400 0.01179900
vt 0.12282600 0.00000700
vt 0.12282600 0.00000700
vt 0.12282600 0.00000700
vt 0.09905000 -0.00000200
vt 0.09905000 0.01179800
vt 0.09905000 0.01179800
vt 0.10302400 0.01179500
vt 0.10302600 -0.00000300
vt 0.10302600 -0.00000300
vt 0.09246700 0.00000300
vt 0.09246700 0.00000300
vt 0.09246700 0.00000300
vt 0.08454500 0.01179800
vt 0.09247800 0.01180200
vt 0.09247800 0.01180200
vt 0.08454500 0.00000000
vt 0.09601900 0.01179400
vt 0.09601900 0.01179400
vt 0.09603700 -0.00000300
vt 0.09603700 -0.00000300
vt 0.09603700 -0.00000300
vt 0.09905400 -0.00000300
vt 0.09905300 0.01179500
vt 0.09905300 0.01179500
vt 0.07032000 -0.00000200
vt 0.07032000 -0.00000200
vt 0.07031300 0.01179700
vt 0.07031300 0.01179700
vt 0.07031300 0.01179700
vt 0.07031300 0.01179700
vt 0.07410300 0.00000000
vt 0.07410300 0.00000000
vt 0.06637900 0.01179800
vt 0.06637800 -0.00000400
vt 0.06637800 -0.00000400
vt 0.07473600 0.01179900
vt 0.07473600 0.01179900
vt 0.07821400 0.00000100
vt 0.07821400 0.00000100
vt 0.07821400 0.01179900
vt 0.07821400 0.01179900
vt 0.08222700 0.00000000
vt 0.08222700 0.00000000
vt 0.08222700 0.00000000
vt 0.08223000 0.01179800
vt 0.08223000 0.01179800
vt 0.08223000 0.01179800
vt 0.08454500 0.00000000
vt 0.08454500 0.00000000
vt 0.06637800 -0.00000100
vt 0.06637800 -0.00000100
vt 0.06140500 0.01180000
vt 0.06140500 0.01180000
vt 0.06637900 0.01179800
vt 0.04615400 0.01179800
vt 0.04615400 0.01179800
vt 0.04710700 0.00000200
vt 0.04710700 0.00000200
vt 0.04710700 0.00000200
vt 0.04161100 -0.00000200
vt 0.04161300 0.01179500
vt 0.05114000 0.01179900
vt 0.05114000 0.01179900
vt 0.05114000 0.01179900
vt 0.06141000 -0.00000400
vt 0.05608500 0.00000100
vt 0.05608500 0.00000100
vt 0.05608500 0.00000100
vt 0.06141000 0.01179400
vt 0.05597600 0.01179900
vt 0.04161800 -0.00000100
vt 0.04161800 -0.00000100
vt 0.03763600 -0.00001300
vt 0.03764100 0.01178800
vt 0.03764100 0.01178800
vt 0.04161100 0.01179500
vt 0.02312800 0.00000100
vt 0.02312800 0.00000100
vt 0.02312600 0.01179600
vt 0.02587200 0.01179600
vt 0.02587200 0.01179600
vt 0.02587200 0.01179600
vt 0.03104800 0.00000000
vt 0.03104800 0.00000000
vt 0.03104800 0.00000000
vt 0.03058100 0.01180100
vt 0.03763300 0.01179100
vt 0.03763300 0.01179100
vt 0.00496800 0.01179600
vt 0.00496800 0.01179600
vt 0.00874300 0.00000000
vt 0.00874300 0.00000000
vt 0.00874300 0.00000000
vt 0.00496300 -0.00000400
vt 0.00886900 0.01179600
vt 0.00886900 0.01179600
vt 0.00886900 0.01179600
vt 0.01334500 0.01179800
vt 0.01334500 0.01179800
vt 0.01334900 0.00000100
vt 0.01334900 0.00000100
vt 0.01334900 0.00000100
vt 0.01334900 0.00000100
vt 0.01869600 0.01179900
vt 0.01869600 0.01179900
vt 0.01889700 0.00000100
vt 0.01889700 0.00000100
vt 0.02313000 0.01179600
vt 0.02313000 0.01179600
vt 0.12282300 0.01179600
vt 0.08454500 0.01179800
vt 0.06140600 -0.00000200
vt 0.03763600 -0.00000800
vt 0.02312800 -0.00000300
f 1/1/1 2/2/2 3/3/3
f 4/4/4 2/2/2 1/1/1
f 4/4/4 7/7/7 2/2/2
f 9/9/9 51/51/51 11/11/11
f 14/14/14 20/20/20 15/15/15
f 15/15/15 23/23/23 26/26/26
f 17/17/17 25/25/25 18/18/18
f 12/12/12 11/11/11 27/27/27
f 14/14/14 27/27/27 21/21/21
f 17/17/17 21/21/21 22/22/22
f 24/24/24 28/28/28 31/31/31
f 34/34/34 28/28/28 21/21/21
f 5/5/5 35/35/35 6/6/6
f 4/4/4 39/39/39 38/38/38
f 43/43/43 50/50/50 9/9/9
f 45/45/45 47/47/47 40/40/40
f 45/45/45 48/48/48 47/47/47
f 36/36/36 46/46/46 44/44/44
f 47/47/47 37/37/37 41/41/41
f 32/32/32 30/30/30 28/28/28
f 33/33/33 54/54/54 52/52/52
f 54/54/54 57/57/57 55/55/55
f 4/4/4 1/1/1 39/39/39
f 58/58/58 60/60/60 62/62/62
f 64/64/64 67/67/67 59/59/59
f 63/63/63 58/58/58 61/61/61
f 74/74/74 103/103/103 69/69/69
f 76/76/76 66/66/66 65/65/65
f 81/81/81 84/84/84 78/78/78
f 79/79/79 83/83/83 81/81/81
f 81/81/81 83/83/83 85/85/85
f 84/84/84 86/86/86 78/78/78
f 86/86/86 75/75/75 73/73/73
f 82/82/82 85/85/85 84/84/84
f 90/90/90 87/87/87 85/85/85
f 92/92/92 88/88/88 89/89/89
f 84/84/84 87/87/87 92/92/92
f 94/94/94 68/68/68 76/76/76
f 76/76/76 96/96/96 94/94/94
f 70/70/70 103/103/103 97/97/97
f 99/99/99 93/93/93 101/101/101
f 102/102/102 99/99/99 100/100/100
f 101/101/101 95/95/95 97/97/97
f 101/101/101 93/93/93 96/96/96
f 104/104/104 105/105/105 91/91/91
f 108/108/108 109/109/109 106/106/106
f 110/110/110 115/115/115 112/112/112
f 119/119/119 123/123/123 124/124/124
f 128/128/128 118/118/118 125/125/125
f 126/126/126 129/129/129 130/130/130
f 127/127/127 131/131/131 121/121/121
f 120/120/120 132/132/132 122/122/122
f 116/116/116 134/134/134 137/137/137
f 142/142/142 144/144/144 141/141/141
f 147/147/147 151/151/151 148/148/148
f 152/152/152 154/154/154 146/146/146
f 153/153/153 158/158/158 155/155/155
f 162/162/162 171/171/171 166/166/166
f 164/164/164 160/160/160 170/170/170
f 172/172/172 175/175/175 173/173/173
f 176/176/176 180/180/180 179/179/179
f 181/181/181 246/246/246 184/184/184
f 186/186/186 247/247/247 188/188/188
f 195/195/195 196/196/196 191/191/191
f 197/197/197 192/192/192 190/190/190
f 202/202/202 205/205/205 204/204/204
f 202/202/202 198/198/198 205/205/205
f 209/209/209 211/211/211 207/207/207
f 212/212/212 214/214/214 217/217/217
f 213/213/213 216/216/216 220/220/220
f 219/219/219 215/215/215 221/221/221
f 223/223/223 248/248/248 218/218/218
f 224/224/224 230/230/230 228/228/228
f 234/234/234 236/236/236 231/231/231
f 240/240/240 241/241/241 237/237/237
f 244/244/244 249/249/249 242/242/242
f 136/136/136 133/133/133 117/117/117
f 135/135/135 245/245/245 138/138/138
f 201/201/201 194/194/194 199/199/199
f 8/8/8 10/10/10 13/13/13
f 14/14/14 16/16/16 19/19/19
f 13/13/13 27/27/27 14/14/14
f 21/21/21 28/28/28 23/23/23
f 43/43/43 9/9/9 35/35/35
f 47/47/47 49/49/49 42/42/42
f 34/34/34 53/53/53 29/29/29
f 54/54/54 56/56/56 53/53/53
f 75/75/75 69/69/69 71/71/71
f 81/81/81 78/78/78 80/80/80
f 86/86/86 72/72/72 77/77/77
f 85/85/85 88/88/88 84/84/84
f 70/70/70 98/98/98 96/96/96
f 101/101/101 97/97/97 102/102/102
f 104/104/104 92/92/92 89/89/89
f 107/107/107 106/106/106 104/104/104
f 111/111/111 113/113/113 114/114/114
f 143/143/143 139/139/139 140/140/140
f 147/147/147 148/148/148 149/149/149
f 153/153/153 145/145/145 150/150/150
f 159/159/159 157/157/157 156/156/156
f 165/165/165 167/167/167 161/161/161
f 163/163/163 169/169/169 168/168/168
f 171/171/171 174/174/174 166/166/166
f 175/175/175 178/178/178 173/173/173
f 182/182/182 183/183/183 177/177/177
f 185/185/185 187/187/187 189/189/189
f 195/195/195 191/191/191 193/193/193
f 203/203/203 204/204/204 200/200/200
f 210/210/210 206/206/206 208/208/208
f 222/222/222 219/219/219 221/221/221
f 225/225/225 226/226/226 229/229/229
f 238/238/238 227/227/227 232/232/232
f 239/239/239 235/235/235 233/233/233
f 243/243/243 241/241/241 240/240/240

