mtllib material.mtl
usemtl Material-7011油漆.005
v -0.02456600 -0.01923000 -0.00001700
v -0.02456600 -0.01923000 -0.00001700
v -0.02508400 -0.01927400 -0.00212900
v -0.02614800 -0.01935200 -0.00212900
v -0.02402600 -0.01919400 -0.00071700
v -0.02402600 -0.01919400 -0.00071700
v -0.02349000 -0.01915700 -0.00000700
v -0.02349000 -0.01915700 -0.00000700
v -0.02349000 -0.01915700 -0.00000700
v -0.02402600 -0.01919400 0.00070300
v -0.02402600 -0.01919400 0.00070300
v -0.02296700 -0.01912900 -0.00212800
v -0.02190700 -0.01906200 -0.00212700
v -0.02612900 -0.01934900 0.00210200
v -0.02505900 -0.01962100 0.00211300
v -0.02296700 -0.01912900 0.00211500
v -0.02190600 -0.01906100 0.00211400
v -0.02452400 -0.01992900 -0.00002700
v -0.02452400 -0.01992900 -0.00002700
v -0.02452400 -0.01992900 -0.00002700
v -0.02503800 -0.01997400 -0.00212800
v -0.02397900 -0.01989300 -0.00071800
v -0.02397900 -0.01989300 -0.00071800
v -0.02609600 -0.02005100 -0.00212600
v -0.02344400 -0.01985700 -0.00000700
v -0.02344400 -0.01985700 -0.00000700
v -0.02344400 -0.01985700 -0.00000700
v -0.02397800 -0.01989400 0.00070200
v -0.02397800 -0.01989400 0.00070200
v -0.02229100 -0.01978800 -0.00212300
v -0.02605900 -0.02004600 0.00208100
v -0.02505900 -0.01962200 0.00211300
v -0.02292000 -0.01982800 0.00211200
v -0.02186600 -0.01976100 0.00210600
v -0.02348900 -0.01915800 -0.00000700
v -0.02348900 -0.01915800 -0.00000700
v -0.02348900 -0.01915800 -0.00000700
v -0.02344400 -0.01985600 -0.00000700
v -0.02344400 -0.01985600 -0.00000700
v -0.02344400 -0.01985600 -0.00000700
v -0.02344400 -0.01985600 -0.00000700
v -0.02190700 -0.01906200 -0.00212700
v -0.02190700 -0.01906200 -0.00212700
v -0.02190700 -0.01906200 -0.00212700
v -0.02190700 -0.01906200 -0.00212700
v -0.02190600 -0.01906200 0.00211400
v -0.02190600 -0.01906200 0.00211400
v -0.02190600 -0.01906200 0.00211400
v -0.02186600 -0.01976100 0.00210600
v -0.02186600 -0.01976100 0.00210600
v -0.02186600 -0.01976100 0.00210600
v -0.02186600 -0.01976100 0.00210600
v -0.02344400 -0.01985600 -0.00000700
v -0.02344400 -0.01985600 -0.00000700
v -0.02344400 -0.01985600 -0.00000700
v -0.02292000 -0.01982700 0.00211300
v -0.02292000 -0.01982700 0.00211300
v -0.02292000 -0.01982700 0.00211300
v -0.02190600 -0.01906200 0.00211500
v -0.02190600 -0.01906200 0.00211500
v -0.02190600 -0.01906200 0.00211500
v -0.02296700 -0.01912900 0.00211500
v -0.02296700 -0.01912900 0.00211500
v -0.02296700 -0.01912900 0.00211500
v -0.02186600 -0.01976100 0.00210700
v -0.02186600 -0.01976100 0.00210700
v -0.02186600 -0.01976100 0.00210700
v -0.02402600 -0.01919500 0.00070300
v -0.02402600 -0.01919500 0.00070300
v -0.02402600 -0.01919500 0.00070300
v -0.02397800 -0.01989300 0.00070200
v -0.02397800 -0.01989300 0.00070200
v -0.02397800 -0.01989300 0.00070200
v -0.02397800 -0.01989300 0.00070200
v -0.02292000 -0.01982700 0.00211300
v -0.02292000 -0.01982700 0.00211300
v -0.02292000 -0.01982700 0.00211300
v -0.02296700 -0.01912900 0.00211500
v -0.02296700 -0.01912900 0.00211500
v -0.02296700 -0.01912900 0.00211500
v -0.02296700 -0.01912900 0.00211500
v -0.02402500 -0.01919500 0.00070300
v -0.02402500 -0.01919500 0.00070300
v -0.02402500 -0.01919500 0.00070300
v -0.02505900 -0.01962200 0.00211300
v -0.02505900 -0.01962200 0.00211300
v -0.02505900 -0.01962200 0.00211300
v -0.02397800 -0.01989300 0.00070200
v -0.02397800 -0.01989300 0.00070200
v -0.02397800 -0.01989300 0.00070200
v -0.02612900 -0.01934900 0.00210200
v -0.02612900 -0.01934900 0.00210200
v -0.02612900 -0.01934900 0.00210200
v -0.02605900 -0.02004600 0.00208100
v -0.02605900 -0.02004600 0.00208100
v -0.02605900 -0.02004600 0.00208100
v -0.02505900 -0.01962200 0.00211300
v -0.02505900 -0.01962200 0.00211300
v -0.02505900 -0.01962200 0.00211300
v -0.02456700 -0.01923100 -0.00001700
v -0.02456700 -0.01923100 -0.00001700
v -0.02456700 -0.01923100 -0.00001700
v -0.02456700 -0.01923100 -0.00001700
v -0.02452400 -0.01992900 -0.00002700
v -0.02452400 -0.01992900 -0.00002700
v -0.02452400 -0.01992900 -0.00002700
v -0.02605900 -0.02004600 0.00208100
v -0.02605900 -0.02004600 0.00208100
v -0.02605900 -0.02004600 0.00208100
v -0.02614800 -0.01935300 -0.00212900
v -0.02614800 -0.01935300 -0.00212900
v -0.02614800 -0.01935300 -0.00212900
v -0.02614800 -0.01935300 -0.00212900
v -0.02609600 -0.02005100 -0.00212600
v -0.02609600 -0.02005100 -0.00212600
v -0.02609600 -0.02005100 -0.00212600
v -0.02456700 -0.01923100 -0.00001600
v -0.02456700 -0.01923100 -0.00001600
v -0.02456700 -0.01923100 -0.00001600
v -0.02609600 -0.02005000 -0.00212700
v -0.02609600 -0.02005000 -0.00212700
v -0.02609600 -0.02005000 -0.00212700
v -0.02614800 -0.01935300 -0.00213000
v -0.02614800 -0.01935300 -0.00213000
v -0.02614800 -0.01935300 -0.00213000
v -0.02508400 -0.01927400 -0.00212900
v -0.02508400 -0.01927400 -0.00212900
v -0.02508400 -0.01927400 -0.00212900
v -0.02397800 -0.01989300 -0.00071900
v -0.02397800 -0.01989300 -0.00071900
v -0.02397800 -0.01989300 -0.00071900
v -0.02397800 -0.01989300 -0.00071900
v -0.02508400 -0.01927400 -0.00212900
v -0.02508400 -0.01927400 -0.00212900
v -0.02508400 -0.01927400 -0.00212900
v -0.02508400 -0.01927400 -0.00212900
v -0.02402500 -0.01919500 -0.00071700
v -0.02402500 -0.01919500 -0.00071700
v -0.02402500 -0.01919500 -0.00071700
v -0.02503700 -0.01997300 -0.00212800
v -0.02503700 -0.01997300 -0.00212800
v -0.02503700 -0.01997300 -0.00212800
v -0.02296700 -0.01913000 -0.00212800
v -0.02296700 -0.01913000 -0.00212800
v -0.02296700 -0.01913000 -0.00212800
v -0.02296700 -0.01913000 -0.00212800
v -0.02397900 -0.01989300 -0.00071900
v -0.02397900 -0.01989300 -0.00071900
v -0.02397900 -0.01989300 -0.00071900
v -0.02397900 -0.01989300 -0.00071900
v -0.02402600 -0.01919500 -0.00071700
v -0.02402600 -0.01919500 -0.00071700
v -0.02402600 -0.01919500 -0.00071700
v -0.02229100 -0.01978800 -0.00212300
v -0.02229100 -0.01978800 -0.00212300
v -0.02229100 -0.01978800 -0.00212300
v -0.02190700 -0.01906200 -0.00212800
v -0.02190700 -0.01906200 -0.00212800
v -0.02190700 -0.01906200 -0.00212800
v -0.02229100 -0.01978800 -0.00212300
v -0.02229100 -0.01978800 -0.00212300
v -0.02229100 -0.01978800 -0.00212300
v -0.02296700 -0.01913000 -0.00212900
v -0.02296700 -0.01913000 -0.00212900
v -0.02296700 -0.01913000 -0.00212900
v -0.02229100 -0.01978800 -0.00212200
v -0.02229100 -0.01978800 -0.00212200
v -0.02229100 -0.01978800 -0.00212200
v -0.02348900 -0.01915800 -0.00000700
v -0.02348900 -0.01915800 -0.00000700
v -0.02348900 -0.01915800 -0.00000700
v -0.02348900 -0.01915800 -0.00000700
v -0.02613000 -0.01934900 0.00210100
v -0.02613000 -0.01934900 0.00210100
v -0.02613000 -0.01934900 0.00210100
v -0.02452400 -0.01992900 -0.00002700
v -0.02452400 -0.01992900 -0.00002700
v -0.02452400 -0.01992900 -0.00002700
v -0.02452400 -0.01992900 -0.00002700
v -0.02503800 -0.01997300 -0.00212800
v -0.02503800 -0.01997300 -0.00212800
v -0.02503800 -0.01997300 -0.00212800
v -0.02456600 -0.01923100 -0.00001700
v -0.02456600 -0.01923100 -0.00001700
v -0.02456600 -0.01923100 -0.00001700
v -0.02508400 -0.01927500 -0.00212900
v -0.02614800 -0.01935300 -0.00212900
v -0.02402600 -0.01919500 -0.00071700
v -0.02402600 -0.01919500 -0.00071700
v -0.02349000 -0.01915800 -0.00000700
v -0.02349000 -0.01915800 -0.00000700
v -0.02349000 -0.01915800 -0.00000700
v -0.02402600 -0.01919500 0.00070300
v -0.02402600 -0.01919500 0.00070300
v -0.02296700 -0.01913000 -0.00212800
v -0.02190700 -0.01906300 -0.00212700
v -0.02612900 -0.01935000 0.00210100
v -0.02505900 -0.01962200 0.00211300
v -0.02296700 -0.01913000 0.00211500
v -0.02190600 -0.01906200 0.00211400
v -0.02452400 -0.01992800 -0.00002700
v -0.02452400 -0.01992800 -0.00002700
v -0.02452400 -0.01992800 -0.00002700
v -0.02503800 -0.01997300 -0.00212800
v -0.02397900 -0.01989200 -0.00071800
v -0.02397900 -0.01989200 -0.00071800
v -0.02609600 -0.02005000 -0.00212600
v -0.02344400 -0.01985600 -0.00000700
v -0.02344400 -0.01985600 -0.00000700
v -0.02344400 -0.01985600 -0.00000700
v -0.02397800 -0.01989300 0.00070200
v -0.02397800 -0.01989300 0.00070200
v -0.02229100 -0.01978700 -0.00212300
v -0.02605900 -0.02004500 0.00208100
v -0.02505900 -0.01962100 0.00211300
v -0.02292000 -0.01982700 0.00211200
v -0.02186600 -0.01976000 0.00210600
v -0.02349000 -0.01915800 -0.00000700
v -0.02349000 -0.01915800 -0.00000700
v -0.02349000 -0.01915800 -0.00000700
v -0.02344500 -0.01985600 -0.00000700
v -0.02344500 -0.01985600 -0.00000700
v -0.02344500 -0.01985600 -0.00000700
v -0.02344500 -0.01985600 -0.00000700
v -0.02190800 -0.01906200 -0.00212700
v -0.02190800 -0.01906200 -0.00212700
v -0.02190800 -0.01906200 -0.00212700
v -0.02190800 -0.01906200 -0.00212700
v -0.02190700 -0.01906200 0.00211400
v -0.02190700 -0.01906200 0.00211400
v -0.02190700 -0.01906200 0.00211400
v -0.02186700 -0.01976100 0.00210700
v -0.02186700 -0.01976100 0.00210700
v -0.02186700 -0.01976100 0.00210700
v -0.02186700 -0.01976100 0.00210700
v -0.02344500 -0.01985600 -0.00000700
v -0.02344500 -0.01985600 -0.00000700
v -0.02344500 -0.01985600 -0.00000700
v -0.02292000 -0.01982700 0.00211200
v -0.02292000 -0.01982700 0.00211200
v -0.02292000 -0.01982700 0.00211200
v -0.02190600 -0.01906200 0.00211400
v -0.02190600 -0.01906200 0.00211400
v -0.02190600 -0.01906200 0.00211400
v -0.02296700 -0.01912900 0.00211400
v -0.02296700 -0.01912900 0.00211400
v -0.02296700 -0.01912900 0.00211400
v -0.02296700 -0.01912900 0.00211400
v -0.02186600 -0.01976100 0.00210600
v -0.02186600 -0.01976100 0.00210600
v -0.02186600 -0.01976100 0.00210600
v -0.02186600 -0.01976100 0.00210600
v -0.02402500 -0.01919500 0.00070300
v -0.02402500 -0.01919500 0.00070300
v -0.02402500 -0.01919500 0.00070300
v -0.02397800 -0.01989300 0.00070100
v -0.02397800 -0.01989300 0.00070100
v -0.02397800 -0.01989300 0.00070100
v -0.02397800 -0.01989300 0.00070100
v -0.02291900 -0.01982700 0.00211200
v -0.02291900 -0.01982700 0.00211200
v -0.02291900 -0.01982700 0.00211200
v -0.02296600 -0.01912900 0.00211500
v -0.02296600 -0.01912900 0.00211500
v -0.02296600 -0.01912900 0.00211500
v -0.02296600 -0.01912900 0.00211500
v -0.02402600 -0.01919500 0.00070300
v -0.02402600 -0.01919500 0.00070300
v -0.02402600 -0.01919500 0.00070300
v -0.02505900 -0.01962200 0.00211300
v -0.02505900 -0.01962200 0.00211300
v -0.02505900 -0.01962200 0.00211300
v -0.02397800 -0.01989300 0.00070100
v -0.02397800 -0.01989300 0.00070100
v -0.02397800 -0.01989300 0.00070100
v -0.02612900 -0.01934900 0.00210100
v -0.02612900 -0.01934900 0.00210100
v -0.02612900 -0.01934900 0.00210100
v -0.02605900 -0.02004600 0.00208000
v -0.02605900 -0.02004600 0.00208000
v -0.02605900 -0.02004600 0.00208000
v -0.02505900 -0.01962200 0.00211200
v -0.02505900 -0.01962200 0.00211200
v -0.02505900 -0.01962200 0.00211200
v -0.02456600 -0.01923100 -0.00001600
v -0.02456600 -0.01923100 -0.00001600
v -0.02456600 -0.01923100 -0.00001600
v -0.02456600 -0.01923100 -0.00001600
v -0.02452400 -0.01992900 -0.00002700
v -0.02452400 -0.01992900 -0.00002700
v -0.02452400 -0.01992900 -0.00002700
v -0.02605800 -0.02004600 0.00208100
v -0.02605800 -0.02004600 0.00208100
v -0.02605800 -0.02004600 0.00208100
v -0.02605800 -0.02004600 0.00208100
v -0.02614700 -0.01935300 -0.00213000
v -0.02614700 -0.01935300 -0.00213000
v -0.02614700 -0.01935300 -0.00213000
v -0.02614700 -0.01935300 -0.00213000
v -0.02609600 -0.02005000 -0.00212700
v -0.02609600 -0.02005000 -0.00212700
v -0.02609600 -0.02005000 -0.00212700
v -0.02456600 -0.01923100 -0.00001700
v -0.02456600 -0.01923100 -0.00001700
v -0.02456600 -0.01923100 -0.00001700
v -0.02609600 -0.02005000 -0.00212600
v -0.02609600 -0.02005000 -0.00212600
v -0.02609600 -0.02005000 -0.00212600
v -0.02614800 -0.01935300 -0.00212900
v -0.02614800 -0.01935300 -0.00212900
v -0.02614800 -0.01935300 -0.00212900
v -0.02614800 -0.01935300 -0.00212900
v -0.02508400 -0.01927400 -0.00212800
v -0.02508400 -0.01927400 -0.00212800
v -0.02508400 -0.01927400 -0.00212800
v -0.02397900 -0.01989300 -0.00071800
v -0.02397900 -0.01989300 -0.00071800
v -0.02397900 -0.01989300 -0.00071800
v -0.02397900 -0.01989300 -0.00071800
v -0.02508500 -0.01927400 -0.00212800
v -0.02508500 -0.01927400 -0.00212800
v -0.02508500 -0.01927400 -0.00212800
v -0.02508500 -0.01927400 -0.00212800
v -0.02402600 -0.01919500 -0.00071700
v -0.02402600 -0.01919500 -0.00071700
v -0.02402600 -0.01919500 -0.00071700
v -0.02503800 -0.01997300 -0.00212700
v -0.02503800 -0.01997300 -0.00212700
v -0.02503800 -0.01997300 -0.00212700
v -0.02296700 -0.01912900 -0.00212800
v -0.02296700 -0.01912900 -0.00212800
v -0.02296700 -0.01912900 -0.00212800
v -0.02296700 -0.01912900 -0.00212800
v -0.02397800 -0.01989300 -0.00071800
v -0.02397800 -0.01989300 -0.00071800
v -0.02397800 -0.01989300 -0.00071800
v -0.02397800 -0.01989300 -0.00071800
v -0.02402500 -0.01919500 -0.00071700
v -0.02402500 -0.01919500 -0.00071700
v -0.02402500 -0.01919500 -0.00071700
v -0.02229100 -0.01978700 -0.00212200
v -0.02229100 -0.01978700 -0.00212200
v -0.02229100 -0.01978700 -0.00212200
v -0.02190700 -0.01906200 -0.00212700
v -0.02190700 -0.01906200 -0.00212700
v -0.02190700 -0.01906200 -0.00212700
v -0.02229100 -0.01978800 -0.00212200
v -0.02229100 -0.01978800 -0.00212200
v -0.02229100 -0.01978800 -0.00212200
v -0.02296700 -0.01913000 -0.00212800
v -0.02296700 -0.01913000 -0.00212800
v -0.02296700 -0.01913000 -0.00212800
v -0.02229100 -0.01978800 -0.00212300
v -0.02229100 -0.01978800 -0.00212300
v -0.02229100 -0.01978800 -0.00212300
v -0.02349000 -0.01915800 -0.00000700
v -0.02349000 -0.01915800 -0.00000700
v -0.02349000 -0.01915800 -0.00000700
v -0.02349000 -0.01915800 -0.00000700
v -0.02612900 -0.01934900 0.00210200
v -0.02612900 -0.01934900 0.00210200
v -0.02612900 -0.01934900 0.00210200
v -0.02452400 -0.01992900 -0.00002700
v -0.02452400 -0.01992900 -0.00002700
v -0.02452400 -0.01992900 -0.00002700
v -0.02452400 -0.01992900 -0.00002700
v -0.02503800 -0.01997300 -0.00212700
v -0.02503800 -0.01997300 -0.00212700
v -0.02503800 -0.01997300 -0.00212700
v -0.02503800 -0.01997300 -0.00212700
vn -0.70710000 0.70710000 0.00550000
vn -0.06990000 0.99760000 -0.00010000
vn 0.30080000 0.64130000 -0.70590000
vn -0.78320000 0.49990000 -0.36970000
vn -0.06040000 0.88860000 -0.45470000
vn -0.06810000 0.99770000 -0.00210000
vn -0.06610000 0.99780000 -0.00010000
vn -0.06610000 0.99780000 -0.00000000
vn 0.64740000 0.76220000 0.00010000
vn -0.10240000 0.89390000 0.43650000
vn -0.06800000 0.99770000 0.00190000
vn -0.39300000 0.59430000 -0.70170000
vn 0.70530000 0.60000000 -0.37750000
vn -0.50170000 0.79430000 0.34260000
vn -0.01490000 -0.25360000 0.96720000
vn -0.39270000 0.59470000 0.70150000
vn 0.70990000 0.59920000 0.37020000
vn -0.60990000 -0.79240000 0.00940000
vn 0.06990000 -0.99760000 0.00010000
vn 0.07000000 -0.99750000 0.00000000
vn 0.39040000 -0.59630000 -0.70140000
vn 0.06800000 -0.99770000 0.00200000
vn 0.11950000 -0.83920000 -0.53050000
vn -0.70170000 -0.60490000 -0.37630000
vn 0.06620000 -0.99780000 0.00010000
vn 0.77930000 -0.62450000 -0.05270000
vn 0.06620000 -0.99780000 -0.00010000
vn 0.06120000 -0.90090000 0.42970000
vn 0.06790000 -0.99770000 -0.00190000
vn 0.57210000 -0.49870000 -0.65110000
vn -0.61400000 -0.78500000 0.08210000
vn 0.92680000 -0.08880000 0.36490000
vn -0.30410000 -0.64220000 0.70370000
vn 0.77640000 -0.50830000 0.37260000
vn 0.10010000 0.98780000 0.11970000
vn -0.58730000 -0.03660000 0.80860000
vn 0.79820000 0.05300000 0.60010000
vn 0.79830000 0.05300000 0.60000000
vn -0.58880000 -0.03970000 0.80730000
vn 0.79830000 0.05300000 0.59990000
vn 0.27990000 -0.95940000 -0.03360000
vn 0.09850000 0.98820000 0.11720000
vn 0.69250000 -0.44710000 -0.56620000
vn 0.79850000 0.05210000 0.59980000
vn 0.79850000 0.05200000 0.59970000
vn -0.06630000 0.99780000 0.00370000
vn 0.59890000 0.02420000 0.80040000
vn 0.79850000 0.05210000 -0.59980000
vn 0.79850000 0.05210000 -0.59970000
vn 0.79860000 0.05200000 -0.59960000
vn 0.59970000 0.02610000 0.79980000
vn 0.06410000 -0.99790000 -0.00260000
vn -0.59930000 -0.04030000 -0.79950000
vn 0.79820000 0.05300000 -0.60010000
vn 0.06660000 -0.99780000 -0.00270000
vn 0.00030000 -0.00590000 1.00000000
vn -0.99730000 -0.07300000 0.00770000
vn 0.06080000 -0.99810000 0.00230000
vn -0.05810000 0.99830000 0.00970000
vn 0.99840000 0.05660000 0.00410000
vn 0.00040000 -0.00580000 1.00000000
vn -0.06880000 0.99760000 0.00930000
vn 0.00040000 -0.00590000 1.00000000
vn -0.99810000 -0.06190000 0.00230000
vn 0.06500000 -0.99780000 -0.00930000
vn 0.99830000 0.05840000 -0.00670000
vn 0.00030000 -0.00590000 1.00000000
vn -0.59940000 -0.04000000 -0.79950000
vn -0.79710000 -0.05560000 0.60120000
vn -0.06800000 0.99770000 0.00380000
vn -0.79720000 -0.05560000 0.60110000
vn 0.06810000 -0.99770000 -0.00370000
vn -0.79720000 -0.05560000 0.60120000
vn -0.59970000 -0.03900000 -0.79930000
vn 0.60040000 0.03750000 0.79880000
vn -0.79740000 -0.05500000 0.60100000
vn 0.06730000 -0.99770000 -0.00480000
vn 0.59910000 0.03800000 0.79980000
vn -0.79730000 -0.05520000 0.60100000
vn -0.06840000 0.99760000 0.00460000
vn -0.79730000 -0.05510000 0.60110000
vn 0.59960000 0.04170000 -0.79920000
vn 0.79730000 0.05320000 0.60130000
vn -0.18490000 0.96990000 0.15850000
vn -0.04850000 -0.98690000 0.15390000
vn 0.79700000 0.05380000 0.60150000
vn -0.18470000 0.96970000 0.16000000
vn 0.79770000 0.05330000 0.60080000
vn 0.59950000 0.04240000 -0.79920000
vn -0.04910000 -0.98700000 0.15300000
vn -0.99330000 -0.11570000 0.00620000
vn 0.21940000 0.97540000 0.02130000
vn 0.00050000 -0.00610000 1.00000000
vn -0.99640000 -0.07450000 -0.03970000
vn 0.00040000 -0.00610000 1.00000000
vn 0.40870000 -0.91150000 -0.04480000
vn 0.39230000 -0.91980000 0.01160000
vn 0.00040000 -0.00600000 1.00000000
vn 0.27700000 0.96010000 0.03890000
vn -0.06770000 0.99770000 -0.00640000
vn -0.79790000 -0.05600000 -0.60030000
vn -0.79790000 -0.05600000 -0.60020000
vn 0.60190000 0.06090000 -0.79620000
vn -0.79800000 -0.05600000 -0.60010000
vn 0.06580000 -0.99740000 -0.02790000
vn 0.57630000 0.03420000 -0.81660000
vn -0.79770000 -0.05680000 -0.60040000
vn -0.58630000 -0.07530000 0.80660000
vn 0.07100000 -0.99740000 0.01460000
vn -0.59870000 -0.04810000 -0.79950000
vn -0.07340000 0.99730000 -0.00410000
vn -0.79760000 -0.05720000 0.60040000
vn -0.79760000 -0.05670000 0.60050000
vn 0.07330000 -0.99730000 0.00280000
vn -0.79760000 -0.05670000 0.60050000
vn -0.59870000 -0.04810000 -0.79950000
vn -0.07240000 0.99740000 -0.00330000
vn 0.59930000 0.02400000 0.80020000
vn -0.79790000 -0.05600000 0.60020000
vn 0.07110000 -0.99740000 0.00630000
vn -0.99730000 -0.07300000 -0.00140000
vn 0.00040000 -0.00610000 -1.00000000
vn -0.07070000 0.99750000 -0.00340000
vn 0.00050000 -0.00620000 -1.00000000
vn -0.99710000 -0.07600000 0.00150000
vn 0.00040000 -0.00610000 -1.00000000
vn 0.99780000 0.06650000 0.00420000
vn -0.07770000 0.99700000 0.00050000
vn 0.79730000 0.05310000 -0.60120000
vn 0.60090000 0.03890000 0.79840000
vn 0.79730000 0.05330000 -0.60120000
vn 0.07090000 -0.99750000 0.00450000
vn -0.06870000 0.99760000 -0.00370000
vn 0.79690000 0.05380000 -0.60170000
vn -0.59900000 -0.04140000 -0.79970000
vn 0.79700000 0.05380000 -0.60160000
vn -0.07040000 0.99750000 -0.00380000
vn 0.59890000 0.03850000 0.79990000
vn 0.79720000 0.05320000 -0.60140000
vn 0.07080000 -0.99750000 0.00640000
vn -0.60120000 -0.04150000 -0.79800000
vn 0.79710000 0.05370000 -0.60150000
vn 0.09080000 0.13700000 -0.98640000
vn -0.24310000 0.96050000 -0.13510000
vn -0.79720000 -0.05510000 -0.60120000
vn -0.79720000 -0.05500000 -0.60120000
vn 0.04230000 -0.97380000 -0.22350000
vn -0.79710000 -0.05570000 -0.60120000
vn -0.79710000 -0.05560000 -0.60120000
vn -0.62460000 -0.04360000 0.77970000
vn -0.23830000 0.96150000 -0.13690000
vn -0.79700000 -0.05560000 -0.60140000
vn -0.61980000 -0.04360000 0.78350000
vn -0.24290000 -0.80970000 0.53420000
vn -0.79740000 -0.05490000 -0.60090000
vn 0.70530000 0.65610000 -0.26860000
vn 0.88350000 -0.46840000 0.00330000
vn 0.00040000 -0.00590000 -1.00000000
vn -0.06230000 0.99800000 -0.00760000
vn 0.88470000 -0.46620000 0.00460000
vn -0.69760000 -0.71640000 0.00730000
vn 0.00040000 -0.00600000 -1.00000000
vn -0.69780000 -0.71630000 0.00450000
vn -0.06480000 0.99790000 -0.00900000
vn 0.00040000 -0.00600000 -1.00000000
vn 0.10080000 0.19480000 -0.97560000
vn -0.58220000 -0.79230000 0.18250000
vn 0.79860000 0.05210000 0.59960000
vn 0.79810000 0.05300000 -0.60020000
vn -0.59800000 -0.03730000 -0.80060000
vn -0.06510000 0.99790000 0.00180000
vn 0.79810000 0.05290000 -0.60020000
vn -0.59430000 -0.09100000 0.79910000
vn -0.79750000 -0.05680000 -0.60060000
vn -0.06990000 0.99750000 0.01220000
vn -0.79800000 -0.05600000 0.60000000
vn 0.60110000 0.02500000 0.79880000
vn 0.07260000 -0.99740000 0.00240000
vn -0.79800000 -0.05610000 0.60010000
vn 0.07480000 -0.99720000 0.00470000
vn 0.00040000 -0.00610000 -1.00000000
vn 0.99780000 0.06590000 -0.00430000
vn 0.06520000 -0.99790000 -0.00240000
vn 0.06530000 -0.99790000 0.00230000
vn -0.68250000 -0.73090000 0.00680000
vn 0.39790000 -0.59630000 -0.69720000
vn -0.70150000 -0.60600000 -0.37500000
vn 0.06810000 -0.99770000 0.00040000
vn 0.06040000 -0.89040000 -0.45120000
vn 0.74140000 -0.67110000 0.00030000
vn 0.06950000 -0.99760000 0.00170000
vn 0.06970000 -0.99760000 -0.00180000
vn 0.06800000 -0.99770000 -0.00080000
vn 0.10350000 -0.94240000 0.31810000
vn -0.31240000 -0.64410000 -0.69820000
vn 0.77960000 -0.50810000 -0.36610000
vn -0.60170000 -0.74040000 -0.29960000
vn 0.75960000 -0.45480000 0.46500000
vn -0.31340000 -0.64390000 0.69800000
vn 0.77500000 -0.50920000 0.37440000
vn -0.06490000 0.99790000 -0.00250000
vn -0.06450000 0.99790000 0.00270000
vn -0.78040000 0.62520000 0.00570000
vn 0.30540000 0.63720000 -0.70760000
vn -0.06800000 0.99770000 -0.00010000
vn 0.00400000 0.84550000 -0.53400000
vn -0.78760000 0.49290000 -0.36970000
vn -0.06870000 0.99760000 -0.00140000
vn -0.06920000 0.99760000 0.00150000
vn 0.68900000 0.72290000 -0.05180000
vn -0.06370000 0.94560000 0.31920000
vn -0.06790000 0.99770000 0.00110000
vn 0.50060000 0.56810000 -0.65320000
vn -0.62010000 0.75860000 -0.20020000
vn -0.54340000 0.61730000 0.56890000
vn -0.38790000 0.58990000 0.70820000
vn 0.71020000 0.60040000 0.36750000
vn 0.09780000 0.98810000 0.11850000
vn -0.79990000 -0.05040000 -0.59800000
vn -0.58930000 -0.03740000 0.80710000
vn -0.87490000 -0.07650000 -0.47820000
vn -0.29190000 -0.87550000 0.38520000
vn -0.79830000 -0.05310000 -0.59990000
vn -0.58910000 -0.03730000 0.80720000
vn 0.09850000 0.98800000 0.11880000
vn 0.61310000 0.22480000 -0.75740000
vn -0.51830000 0.26760000 -0.81230000
vn -0.79980000 -0.05240000 -0.59790000
vn -0.06540000 0.99790000 0.00230000
vn 0.60010000 0.02490000 0.79950000
vn -0.79930000 -0.05370000 0.59850000
vn 0.06480000 -0.99790000 -0.00360000
vn -0.79960000 -0.05190000 0.59830000
vn -0.79870000 -0.05180000 0.59950000
vn 0.59990000 0.02470000 0.79970000
vn -0.59970000 -0.03800000 -0.79930000
vn -0.79840000 -0.05330000 0.59980000
vn 0.06500000 -0.99790000 -0.00440000
vn -0.00790000 -0.00260000 -1.00000000
vn -0.99760000 -0.06960000 -0.00040000
vn 0.05730000 -0.99830000 -0.00580000
vn 0.00420000 0.01090000 -0.99990000
vn 0.99800000 0.06270000 -0.00060000
vn -0.06410000 0.99790000 0.00480000
vn -0.00440000 0.00690000 -1.00000000
vn -0.06250000 0.99800000 0.00500000
vn -0.99750000 -0.07030000 0.00000000
vn -0.00100000 0.00700000 -1.00000000
vn -0.00970000 0.00810000 -0.99990000
vn -0.00570000 0.01450000 -0.99990000
vn 0.05720000 -0.99830000 -0.00530000
vn 0.99800000 0.06260000 -0.00020000
vn 0.79760000 0.05490000 -0.60070000
vn -0.06820000 0.99770000 0.00470000
vn -0.60000000 -0.03950000 -0.79900000
vn 0.79770000 0.05580000 -0.60050000
vn 0.79740000 0.05590000 -0.60090000
vn 0.06750000 -0.99770000 -0.00390000
vn -0.59980000 -0.03960000 -0.79920000
vn 0.79690000 0.05580000 -0.60160000
vn 0.59970000 0.03850000 0.79930000
vn 0.06730000 -0.99770000 -0.00350000
vn 0.60000000 0.03830000 0.79910000
vn -0.06810000 0.99770000 0.00400000
vn 0.79770000 0.05660000 -0.60030000
vn 0.79780000 0.05540000 -0.60040000
vn -0.18490000 0.96970000 0.15940000
vn -0.79750000 -0.05390000 -0.60080000
vn 0.60000000 0.04250000 -0.79880000
vn -0.05000000 -0.98690000 0.15360000
vn -0.79820000 -0.05390000 -0.60000000
vn -0.18550000 0.96980000 0.15860000
vn -0.79770000 -0.05330000 -0.60080000
vn -0.04910000 -0.98700000 0.15300000
vn 0.59950000 0.04240000 -0.79920000
vn -0.99730000 -0.07280000 -0.00600000
vn -0.00920000 0.01620000 -0.99980000
vn 0.26100000 0.96530000 0.00830000
vn -0.99660000 -0.08210000 0.00440000
vn 0.41360000 -0.91050000 -0.00030000
vn 0.03160000 0.06030000 -0.99770000
vn 0.41980000 -0.90730000 -0.02150000
vn 0.24920000 0.96840000 0.00460000
vn 0.04130000 0.00920000 -0.99910000
vn -0.06260000 0.99800000 0.00670000
vn 0.60000000 0.03110000 -0.79940000
vn 0.79460000 0.04730000 0.60530000
vn 0.80660000 0.05860000 0.58820000
vn 0.08740000 -0.99610000 -0.00750000
vn 0.60030000 0.03150000 -0.79920000
vn 0.81710000 0.02790000 0.57580000
vn 0.81020000 0.06060000 0.58300000
vn 0.08770000 -0.99610000 -0.01170000
vn 0.80310000 0.07240000 0.59150000
vn -0.59660000 -0.07880000 0.79870000
vn -0.59870000 -0.04810000 -0.79950000
vn 0.79760000 0.05670000 -0.60050000
vn 0.79760000 0.05720000 -0.60040000
vn -0.07340000 0.99730000 -0.00410000
vn -0.59870000 -0.04810000 -0.79950000
vn 0.07330000 -0.99730000 0.00280000
vn 0.79760000 0.05670000 -0.60050000
vn -0.07260000 0.99740000 -0.00510000
vn 0.79840000 0.05690000 -0.59950000
vn 0.59990000 0.02550000 0.79960000
vn -0.00090000 0.00560000 1.00000000
vn -0.99710000 -0.07590000 -0.00090000
vn 0.07400000 -0.99720000 0.00690000
vn -0.99720000 -0.07540000 -0.00150000
vn -0.07690000 0.99700000 -0.00270000
vn 0.00110000 0.00580000 1.00000000
vn 0.00180000 0.00260000 1.00000000
vn 0.99800000 0.06260000 -0.00050000
vn -0.07390000 0.99730000 -0.00430000
vn -0.00490000 0.00100000 1.00000000
vn -0.79670000 -0.05320000 0.60200000
vn 0.59990000 0.03780000 0.79920000
vn -0.79660000 -0.05470000 0.60200000
vn 0.07080000 -0.99750000 0.00590000
vn -0.60040000 -0.04040000 -0.79870000
vn -0.79780000 -0.05200000 0.60070000
vn -0.07000000 0.99750000 -0.00380000
vn -0.79760000 -0.05370000 0.60080000
vn -0.06860000 0.99760000 -0.00410000
vn -0.79800000 -0.05490000 0.60010000
vn 0.60030000 0.03780000 0.79890000
vn -0.79620000 -0.05200000 0.60280000
vn -0.59990000 -0.04040000 -0.79900000
vn 0.07150000 -0.99740000 0.00460000
vn 0.79720000 0.05510000 0.60120000
vn -0.24010000 0.96100000 -0.13730000
vn 0.03970000 0.80330000 -0.59420000
vn 0.68860000 0.70810000 0.15620000
vn 0.63900000 0.00080000 0.76920000
vn -0.26390000 -0.82860000 0.49380000
vn 0.79590000 0.05180000 0.60320000
vn -0.62160000 -0.04600000 0.78200000
vn -0.24270000 0.96040000 -0.13690000
vn -0.62260000 -0.04610000 0.78120000
vn 0.79950000 0.05200000 0.59830000
vn 0.03340000 0.80030000 -0.59860000
vn -0.03030000 -0.98330000 -0.17920000
vn 0.04430000 0.38440000 0.92210000
vn -0.00060000 0.00580000 1.00000000
vn -0.06440000 0.99790000 -0.00740000
vn 0.88450000 -0.46650000 0.00350000
vn 0.88400000 -0.46740000 0.00300000
vn -0.69850000 -0.71550000 0.00560000
vn -0.00080000 0.00850000 1.00000000
vn -0.69840000 -0.71570000 0.00620000
vn -0.06390000 0.99790000 -0.00720000
vn -0.00270000 0.00690000 1.00000000
vn 0.08520000 -0.96300000 0.25570000
vn -0.80680000 0.58840000 0.05330000
vn 0.72140000 0.10220000 -0.68490000
vn -0.59990000 -0.03820000 -0.79920000
vn -0.80010000 -0.05260000 0.59750000
vn -0.06680000 0.99780000 0.00340000
vn -0.79950000 -0.05040000 0.59850000
vn -0.06220000 0.99810000 0.00090000
vn -0.59610000 -0.07750000 0.79910000
vn 0.79800000 0.05610000 0.60000000
vn 0.59960000 0.02540000 0.79990000
vn 0.79720000 0.05620000 -0.60110000
vn 0.79700000 0.05800000 -0.60120000
vn 0.07290000 -0.99730000 0.00350000
vn 0.07330000 -0.99730000 0.00710000
vn 0.00340000 0.00010000 1.00000000
vn 0.99800000 0.06270000 0.00100000
vn 0.00280000 0.00540000 1.00000000
vt 0.98224500 0.98378300
vt 0.98224500 0.98378300
vt 0.96704100 0.97994400
vt 0.96764200 0.97342100
vt 0.97701300 0.98703200
vt 0.97701300 0.98703200
vt 0.98244500 0.99053500
vt 0.98244500 0.99053500
vt 0.98244500 0.99053500
vt 0.98788100 0.98703500
vt 0.98788100 0.98703500
vt 0.96575100 0.99325900
vt 0.96508300 1.00003200
vt 0.99743800 0.97354300
vt 0.99784900 0.97995800
vt 0.99914800 0.99326800
vt 0.99981400 1.00004600
vt 0.98215700 0.98374300
vt 0.98215700 0.98374300
vt 0.98215700 0.98374300
vt 0.96707900 0.97990300
vt 0.97695500 0.98703900
vt 0.97695500 0.98703900
vt 0.96763200 0.97341500
vt 0.98244500 0.99053100
vt 0.98244500 0.99053100
vt 0.98244500 0.99053100
vt 0.98788200 0.98703500
vt 0.98788200 0.98703500
vt 0.96543300 0.99727000
vt 0.99733000 0.97366000
vt 0.99786700 0.97995400
vt 0.99916300 0.99327600
vt 0.99978300 1.00003600
vt -0.00001900 0.00000000
vt -0.00001900 0.00000000
vt -0.00001900 0.00000000
vt -0.00003500 0.01145100
vt -0.00003500 0.01145100
vt -0.00003500 0.01145100
vt -0.00003500 0.01145100
vt 0.01257400 0.00000700
vt 0.01257400 0.00000700
vt 0.01257400 0.00000700
vt 0.01257400 0.00000700
vt 0.09244600 0.00000300
vt 0.09244600 0.00000300
vt 0.09244600 0.00000300
vt 0.09247600 0.01143600
vt 0.09247600 0.01143600
vt 0.09247600 0.01143600
vt 0.09247600 0.01143600
vt 0.10512700 0.01145100
vt 0.10512700 0.01145100
vt 0.10512700 0.01145100
vt 0.08731300 0.01143300
vt 0.08731300 0.01143300
vt 0.08731300 0.01143300
vt 0.09239100 -0.00002700
vt 0.09239100 -0.00002700
vt 0.09239100 -0.00002700
vt 0.08731100 -0.00001400
vt 0.08731100 -0.00001400
vt 0.08731100 -0.00001400
vt 0.09238500 0.01141600
vt 0.09238500 0.01141600
vt 0.09238500 0.01141600
vt 0.07885300 0.00000300
vt 0.07885300 0.00000300
vt 0.07885300 0.00000300
vt 0.07885600 0.01144600
vt 0.07885600 0.01144600
vt 0.07885600 0.01144600
vt 0.07885600 0.01144600
vt 0.08729500 0.01143400
vt 0.08729500 0.01143400
vt 0.08729500 0.01143400
vt 0.08727000 -0.00000100
vt 0.08727000 -0.00000100
vt 0.08727000 -0.00000100
vt 0.08727000 -0.00000100
vt 0.07885700 0.00000300
vt 0.07885700 0.00000300
vt 0.07885700 0.00000300
vt 0.07030600 0.00570900
vt 0.07030600 0.00570900
vt 0.07030600 0.00570900
vt 0.07885600 0.01144600
vt 0.07885600 0.01144600
vt 0.07885600 0.01144600
vt 0.06538000 -0.00004300
vt 0.06538000 -0.00004300
vt 0.06538000 -0.00004300
vt 0.06547100 0.01138900
vt 0.06547100 0.01138900
vt 0.06547100 0.01138900
vt 0.07039100 0.00570200
vt 0.07039100 0.00570200
vt 0.07039100 0.00570200
vt 0.05254800 -0.00001100
vt 0.05254800 -0.00001100
vt 0.05254800 -0.00001100
vt 0.05254800 -0.00001100
vt 0.05252700 0.01142500
vt 0.05252700 0.01142500
vt 0.05252700 0.01142500
vt 0.06503800 0.01144400
vt 0.06503800 0.01144400
vt 0.06503800 0.01144400
vt 0.03982300 -0.00000500
vt 0.03982300 -0.00000500
vt 0.03982300 -0.00000500
vt 0.03982300 -0.00000500
vt 0.03979000 0.01144500
vt 0.03979000 0.01144500
vt 0.03979000 0.01144500
vt 0.05231900 0.00002400
vt 0.05231900 0.00002400
vt 0.05231900 0.00002400
vt 0.03985000 0.01143700
vt 0.03985000 0.01143700
vt 0.03985000 0.01143700
vt 0.03984500 -0.00001000
vt 0.03984500 -0.00001000
vt 0.03984500 -0.00001000
vt 0.03473500 -0.00000800
vt 0.03473500 -0.00000800
vt 0.03473500 -0.00000800
vt 0.02634500 0.01145000
vt 0.02634500 0.01145000
vt 0.02634500 0.01145000
vt 0.02634500 0.01145000
vt 0.03480700 0.00000500
vt 0.03480700 0.00000500
vt 0.03480700 0.00000500
vt 0.03480700 0.00000500
vt 0.02627700 0.00000000
vt 0.02627700 0.00000000
vt 0.02627700 0.00000000
vt 0.03475100 0.01144600
vt 0.03475100 0.01144600
vt 0.03475100 0.01144600
vt 0.01783000 -0.00000900
vt 0.01783000 -0.00000900
vt 0.01783000 -0.00000900
vt 0.01783000 -0.00000900
vt 0.02626900 0.01144000
vt 0.02626900 0.01144000
vt 0.02626900 0.01144000
vt 0.02626900 0.01144000
vt 0.02627700 0.00000000
vt 0.02627700 0.00000000
vt 0.02627700 0.00000000
vt 0.01605500 0.01147300
vt 0.01605500 0.01147300
vt 0.01605500 0.01147300
vt 0.01274700 -0.00002300
vt 0.01274700 -0.00002300
vt 0.01274700 -0.00002300
vt 0.01480000 0.01142700
vt 0.01480000 0.01142700
vt 0.01480000 0.01142700
vt 0.01782000 -0.00001200
vt 0.01782000 -0.00001200
vt 0.01782000 -0.00001200
vt 0.01138500 0.01143300
vt 0.01138500 0.01143300
vt 0.01138500 0.01143300
vt 0.10512900 0.00000000
vt 0.10512900 0.00000000
vt 0.10512900 0.00000000
vt 0.10512900 0.00000000
vt 0.06516200 -0.00002200
vt 0.06516200 -0.00002200
vt 0.06516200 -0.00002200
vt 0.05232500 0.01144700
vt 0.05232500 0.01144700
vt 0.05232500 0.01144700
vt 0.05232500 0.01144700
vt 0.03475100 0.01144600
vt 0.03475100 0.01144600
vt 0.03475100 0.01144600
vt 0.98224500 0.98378300
vt 0.98224500 0.98378300
vt 0.98224500 0.98378300
vt 0.96704100 0.97994400
vt 0.96764200 0.97342100
vt 0.97701300 0.98703200
vt 0.97701300 0.98703200
vt 0.98244500 0.99053500
vt 0.98244500 0.99053500
vt 0.98244500 0.99053500
vt 0.98788100 0.98703500
vt 0.98788100 0.98703500
vt 0.96575100 0.99325900
vt 0.96508300 1.00003200
vt 0.99743800 0.97354300
vt 0.99784900 0.97995800
vt 0.99914800 0.99326800
vt 0.99981400 1.00004600
vt 0.98215700 0.98374300
vt 0.98215700 0.98374300
vt 0.98215700 0.98374300
vt 0.96707900 0.97990300
vt 0.97695500 0.98703900
vt 0.97695500 0.98703900
vt 0.96763200 0.97341500
vt 0.98244500 0.99053100
vt 0.98244500 0.99053100
vt 0.98244500 0.99053100
vt 0.98788200 0.98703500
vt 0.98788200 0.98703500
vt 0.96543300 0.99727000
vt 0.99733000 0.97366000
vt 0.99786700 0.97995400
vt 0.99916300 0.99327600
vt 0.99978300 1.00003600
vt -0.00001900 0.00000000
vt -0.00001900 0.00000000
vt -0.00001900 0.00000000
vt -0.00003500 0.01145100
vt -0.00003500 0.01145100
vt -0.00003500 0.01145100
vt -0.00003500 0.01145100
vt 0.01257400 0.00000700
vt 0.01257400 0.00000700
vt 0.01257400 0.00000700
vt 0.01257400 0.00000700
vt 0.09244600 0.00000300
vt 0.09244600 0.00000300
vt 0.09244600 0.00000300
vt 0.09247600 0.01143600
vt 0.09247600 0.01143600
vt 0.09247600 0.01143600
vt 0.09247600 0.01143600
vt 0.10512700 0.01145100
vt 0.10512700 0.01145100
vt 0.10512700 0.01145100
vt 0.08731300 0.01143300
vt 0.08731300 0.01143300
vt 0.08731300 0.01143300
vt 0.09239100 -0.00002700
vt 0.09239100 -0.00002700
vt 0.09239100 -0.00002700
vt 0.08731100 -0.00001400
vt 0.08731100 -0.00001400
vt 0.08731100 -0.00001400
vt 0.08731100 -0.00001400
vt 0.09238500 0.01141600
vt 0.09238500 0.01141600
vt 0.09238500 0.01141600
vt 0.09238500 0.01141600
vt 0.07885300 0.00000300
vt 0.07885300 0.00000300
vt 0.07885300 0.00000300
vt 0.07885600 0.01144600
vt 0.07885600 0.01144600
vt 0.07885600 0.01144600
vt 0.07885600 0.01144600
vt 0.08729500 0.01143400
vt 0.08729500 0.01143400
vt 0.08729500 0.01143400
vt 0.08727000 -0.00000100
vt 0.08727000 -0.00000100
vt 0.08727000 -0.00000100
vt 0.08727000 -0.00000100
vt 0.07885700 0.00000300
vt 0.07885700 0.00000300
vt 0.07885700 0.00000300
vt 0.07030600 0.00570900
vt 0.07030600 0.00570900
vt 0.07030600 0.00570900
vt 0.07885600 0.01144600
vt 0.07885600 0.01144600
vt 0.07885600 0.01144600
vt 0.06538000 -0.00004300
vt 0.06538000 -0.00004300
vt 0.06538000 -0.00004300
vt 0.06547100 0.01138900
vt 0.06547100 0.01138900
vt 0.06547100 0.01138900
vt 0.07039100 0.00570200
vt 0.07039100 0.00570200
vt 0.07039100 0.00570200
vt 0.05254800 -0.00001100
vt 0.05254800 -0.00001100
vt 0.05254800 -0.00001100
vt 0.05254800 -0.00001100
vt 0.05252700 0.01142500
vt 0.05252700 0.01142500
vt 0.05252700 0.01142500
vt 0.06503800 0.01144400
vt 0.06503800 0.01144400
vt 0.06503800 0.01144400
vt 0.06503800 0.01144400
vt 0.03982300 -0.00000500
vt 0.03982300 -0.00000500
vt 0.03982300 -0.00000500
vt 0.03982300 -0.00000500
vt 0.03979000 0.01144500
vt 0.03979000 0.01144500
vt 0.03979000 0.01144500
vt 0.05231900 0.00002400
vt 0.05231900 0.00002400
vt 0.05231900 0.00002400
vt 0.03985000 0.01143700
vt 0.03985000 0.01143700
vt 0.03985000 0.01143700
vt 0.03984500 -0.00001000
vt 0.03984500 -0.00001000
vt 0.03984500 -0.00001000
vt 0.03984500 -0.00001000
vt 0.03473500 -0.00000800
vt 0.03473500 -0.00000800
vt 0.03473500 -0.00000800
vt 0.02634500 0.01145000
vt 0.02634500 0.01145000
vt 0.02634500 0.01145000
vt 0.02634500 0.01145000
vt 0.03480700 0.00000500
vt 0.03480700 0.00000500
vt 0.03480700 0.00000500
vt 0.03480700 0.00000500
vt 0.02627700 0.00000000
vt 0.02627700 0.00000000
vt 0.02627700 0.00000000
vt 0.03475100 0.01144600
vt 0.03475100 0.01144600
vt 0.03475100 0.01144600
vt 0.01783000 -0.00000900
vt 0.01783000 -0.00000900
vt 0.01783000 -0.00000900
vt 0.01783000 -0.00000900
vt 0.02626900 0.01144000
vt 0.02626900 0.01144000
vt 0.02626900 0.01144000
vt 0.02626900 0.01144000
vt 0.02627700 0.00000000
vt 0.02627700 0.00000000
vt 0.02627700 0.00000000
vt 0.01605500 0.01147300
vt 0.01605500 0.01147300
vt 0.01605500 0.01147300
vt 0.01274700 -0.00002300
vt 0.01274700 -0.00002300
vt 0.01274700 -0.00002300
vt 0.01480000 0.01142700
vt 0.01480000 0.01142700
vt 0.01480000 0.01142700
vt 0.01782000 -0.00001200
vt 0.01782000 -0.00001200
vt 0.01782000 -0.00001200
vt 0.01138500 0.01143300
vt 0.01138500 0.01143300
vt 0.01138500 0.01143300
vt 0.10512900 0.00000000
vt 0.10512900 0.00000000
vt 0.10512900 0.00000000
vt 0.10512900 0.00000000
vt 0.06516200 -0.00002200
vt 0.06516200 -0.00002200
vt 0.06516200 -0.00002200
vt 0.05232500 0.01144700
vt 0.05232500 0.01144700
vt 0.05232500 0.01144700
vt 0.05232500 0.01144700
vt 0.03475100 0.01144600
vt 0.03475100 0.01144600
vt 0.03475100 0.01144600
vt 0.03475100 0.01144600
f 1/1/1 3/3/3 4/4/4
f 1/1/1 5/5/5 3/3/3
f 2/2/2 11/11/11 7/7/7
f 12/12/12 5/5/5 9/9/9
f 9/9/9 13/13/13 12/12/12
f 10/10/10 1/1/1 14/14/14
f 14/14/14 15/15/15 10/10/10
f 9/9/9 10/10/10 16/16/16
f 9/9/9 16/16/16 17/17/17
f 18/18/18 21/21/21 23/23/23
f 18/18/18 24/24/24 21/21/21
f 27/27/27 29/29/29 20/20/20
f 30/30/30 26/26/26 23/23/23
f 28/28/28 31/31/31 18/18/18
f 31/31/31 28/28/28 32/32/32
f 26/26/26 33/33/33 28/28/28
f 26/26/26 34/34/34 33/33/33
f 37/37/37 38/38/38 44/44/44
f 54/54/54 169/169/169 49/49/49
f 56/56/56 67/67/67 63/63/63
f 76/76/76 81/81/81 73/73/73
f 83/83/83 86/86/86 88/88/88
f 93/93/93 95/95/95 98/98/98
f 107/107/107 174/174/174 102/102/102
f 115/115/115 179/179/179 113/113/113
f 126/126/126 181/181/181 124/124/124
f 129/129/129 142/142/142 134/134/134
f 146/146/146 149/149/149 152/152/152
f 148/148/148 145/145/145 155/155/155
f 158/158/158 162/162/162 165/165/165
f 40/40/40 168/168/168 45/45/45
f 2/2/2 8/8/8 6/6/6
f 25/25/25 19/19/19 22/22/22
f 172/172/172 48/48/48 50/50/50
f 67/67/67 61/61/61 63/63/63
f 79/79/79 69/69/69 71/71/71
f 107/107/107 101/101/101 104/104/104
f 176/176/176 119/119/119 112/112/112
f 181/181/181 122/122/122 124/124/124
f 131/131/131 136/136/136 139/139/139
f 185/185/185 187/187/187 186/186/186
f 185/185/185 186/186/186 189/189/189
f 183/183/183 192/192/192 193/193/193
f 195/195/195 190/190/190 189/189/189
f 190/190/190 195/195/195 196/196/196
f 194/194/194 197/197/197 185/185/185
f 197/197/197 194/194/194 198/198/198
f 190/190/190 199/199/199 194/194/194
f 190/190/190 200/200/200 199/199/199
f 203/203/203 206/206/206 204/204/204
f 203/203/203 204/204/204 207/207/207
f 209/209/209 202/202/202 212/212/212
f 213/213/213 206/206/206 210/210/210
f 211/211/211 203/203/203 214/214/214
f 214/214/214 215/215/215 211/211/211
f 210/210/210 211/211/211 216/216/216
f 210/210/210 216/216/216 217/217/217
f 219/219/219 228/228/228 223/223/223
f 237/237/237 233/233/233 359/359/359
f 239/239/239 248/248/248 249/249/249
f 260/260/260 256/256/256 265/265/265
f 268/268/268 273/273/273 271/271/271
f 277/277/277 284/284/284 281/281/281
f 294/294/294 288/288/288 362/362/362
f 302/302/302 297/297/297 364/364/364
f 315/315/315 311/311/311 368/368/368
f 316/316/316 321/321/321 327/327/327
f 330/330/330 340/340/340 336/336/336
f 334/334/334 343/343/343 333/333/333
f 344/344/344 352/352/352 349/349/349
f 221/221/221 227/227/227 354/354/354
f 184/184/184 188/188/188 191/191/191
f 208/208/208 205/205/205 201/201/201
f 357/357/357 234/234/234 231/231/231
f 250/250/250 245/245/245 242/242/242
f 266/266/266 257/257/257 253/253/253
f 292/292/292 291/291/291 287/287/287
f 365/365/365 298/298/298 304/304/304
f 370/370/370 312/312/312 306/306/306
f 318/318/318 325/325/325 323/323/323
f 1/1/1 4/4/4 187/187/187
f 187/187/187 185/185/185 1/1/1
f 13/13/13 9/9/9 190/190/190
f 190/190/190 196/196/196 13/13/13
f 15/15/15 14/14/14 197/197/197
f 197/197/197 198/198/198 15/15/15
f 9/9/9 17/17/17 200/200/200
f 200/200/200 190/190/190 9/9/9
f 24/24/24 18/18/18 203/203/203
f 203/203/203 207/207/207 24/24/24
f 30/30/30 23/23/23 206/206/206
f 206/206/206 213/213/213 30/30/30
f 4/4/4 3/3/3 186/186/186
f 186/186/186 187/187/187 4/4/4
f 31/31/31 32/32/32 215/215/215
f 215/215/215 214/214/214 31/31/31
f 34/34/34 26/26/26 210/210/210
f 210/210/210 217/217/217 34/34/34
f 33/33/33 34/34/34 217/217/217
f 217/217/217 216/216/216 33/33/33
f 3/3/3 5/5/5 189/189/189
f 189/189/189 186/186/186 3/3/3
f 35/35/35 42/42/42 225/225/225
f 225/225/225 218/218/218 35/35/35
f 55/55/55 52/52/52 232/232/232
f 232/232/232 238/238/238 55/55/55
f 57/57/57 64/64/64 247/247/247
f 247/247/247 240/240/240 57/57/57
f 65/65/65 58/58/58 241/241/241
f 241/241/241 251/251/251 65/65/65
f 74/74/74 68/68/68 255/255/255
f 255/255/255 259/259/259 74/74/74
f 77/77/77 72/72/72 258/258/258
f 258/258/258 262/262/262 77/77/77
f 78/78/78 75/75/75 261/261/261
f 261/261/261 263/263/263 78/78/78
f 87/87/87 84/84/84 267/267/267
f 267/267/267 272/272/272 87/87/87
f 82/82/82 89/89/89 275/275/275
f 275/275/275 269/269/269 82/82/82
f 14/14/14 1/1/1 185/185/185
f 185/185/185 197/197/197 14/14/14
f 92/92/92 99/99/99 283/283/283
f 283/283/283 278/278/278 92/92/92
f 106/106/106 103/103/103 286/286/286
f 286/286/286 290/290/290 106/106/106
f 116/116/116 110/110/110 296/296/296
f 296/296/296 300/300/300 116/116/116
f 111/111/111 117/117/117 303/303/303
f 303/303/303 299/299/299 111/111/111
f 39/39/39 36/36/36 220/220/220
f 220/220/220 224/224/224 39/39/39
f 125/125/125 121/121/121 307/307/307
f 307/307/307 309/309/309 125/125/125
f 128/128/128 123/123/123 310/310/310
f 310/310/310 314/314/314 128/128/128
f 130/130/130 138/138/138 326/326/326
f 326/326/326 317/317/317 130/130/130
f 5/5/5 12/12/12 195/195/195
f 195/195/195 189/189/189 5/5/5
f 160/160/160 157/157/157 346/346/346
f 346/346/346 347/347/347 160/160/160
f 167/167/167 41/41/41 222/222/222
f 222/222/222 353/353/353 167/167/167
f 170/170/170 53/53/53 236/236/236
f 236/236/236 356/356/356 170/170/170
f 173/173/173 108/108/108 295/295/295
f 295/295/295 361/361/361 173/173/173
f 178/178/178 114/114/114 301/301/301
f 301/301/301 366/366/366 178/178/178
f 182/182/182 127/127/127 313/313/313
f 313/313/313 369/369/369 182/182/182
f 12/12/12 13/13/13 196/196/196
f 196/196/196 195/195/195 12/12/12
f 10/10/10 15/15/15 198/198/198
f 198/198/198 194/194/194 10/10/10
f 51/51/51 47/47/47 230/230/230
f 230/230/230 235/235/235 51/51/51
f 16/16/16 10/10/10 194/194/194
f 194/194/194 199/199/199 16/16/16
f 46/46/46 171/171/171 358/358/358
f 358/358/358 229/229/229 46/46/46
f 94/94/94 91/91/91 276/276/276
f 276/276/276 279/279/279 94/94/94
f 17/17/17 16/16/16 199/199/199
f 199/199/199 200/200/200 17/17/17
f 62/62/62 59/59/59 244/244/244
f 244/244/244 246/246/246 62/62/62
f 60/60/60 66/66/66 252/252/252
f 252/252/252 243/243/243 60/60/60
f 97/97/97 96/96/96 280/280/280
f 280/280/280 282/282/282 97/97/97
f 100/100/100 175/175/175 360/360/360
f 360/360/360 285/285/285 100/100/100
f 43/43/43 166/166/166 355/355/355
f 355/355/355 226/226/226 43/43/43
f 159/159/159 164/164/164 351/351/351
f 351/351/351 345/345/345 159/159/159
f 23/23/23 21/21/21 204/204/204
f 204/204/204 206/206/206 23/23/23
f 163/163/163 161/161/161 348/348/348
f 348/348/348 350/350/350 163/163/163
f 21/21/21 24/24/24 207/207/207
f 207/207/207 204/204/204 21/21/21
f 140/140/140 132/132/132 319/319/319
f 319/319/319 329/329/329 140/140/140
f 137/137/137 133/133/133 322/322/322
f 322/322/322 324/324/324 137/137/137
f 70/70/70 80/80/80 264/264/264
f 264/264/264 254/254/254 70/70/70
f 135/135/135 141/141/141 328/328/328
f 328/328/328 320/320/320 135/135/135
f 18/18/18 31/31/31 214/214/214
f 214/214/214 203/203/203 18/18/18
f 109/109/109 105/105/105 289/289/289
f 289/289/289 293/293/293 109/109/109
f 118/118/118 177/177/177 363/363/363
f 363/363/363 305/305/305 118/118/118
f 120/120/120 180/180/180 367/367/367
f 367/367/367 308/308/308 120/120/120
f 26/26/26 30/30/30 213/213/213
f 213/213/213 210/210/210 26/26/26
f 144/144/144 151/151/151 338/338/338
f 338/338/338 331/331/331 144/144/144
f 156/156/156 143/143/143 332/332/332
f 332/332/332 341/341/341 156/156/156
f 153/153/153 150/150/150 337/337/337
f 337/337/337 339/339/339 153/153/153
f 32/32/32 28/28/28 211/211/211
f 211/211/211 215/215/215 32/32/32
f 147/147/147 154/154/154 342/342/342
f 342/342/342 335/335/335 147/147/147
f 28/28/28 33/33/33 216/216/216
f 216/216/216 211/211/211 28/28/28
f 90/90/90 85/85/85 270/270/270
f 270/270/270 274/274/274 90/90/90

