mtllib material.mtl
usemtl Material-7011油漆.001
v -0.03410200 -0.02006900 -0.00213000
v -0.03325300 -0.01997600 -0.00014700
v -0.03325300 -0.01998200 -0.00213100
v -0.03428800 -0.02008600 0.00151500
v -0.03428800 -0.02008600 0.00151500
v -0.03367700 -0.02001900 0.00070400
v -0.03367700 -0.02001900 0.00070400
v -0.03489000 -0.02014700 0.00090200
v -0.03410300 -0.02006300 -0.00014700
v -0.03410300 -0.02006300 -0.00014700
v -0.03244400 -0.01989600 0.00093100
v -0.03244400 -0.01989600 0.00093100
v -0.03580200 -0.02025200 0.00211800
v -0.03474000 -0.02013900 0.00211800
v -0.03474000 -0.02013900 0.00211800
v -0.03261600 -0.01991900 0.00211800
v -0.03261600 -0.01991900 0.00211800
v -0.03155300 -0.01981500 0.00211800
v -0.03403000 -0.02076500 -0.00212600
v -0.03318200 -0.02067800 -0.00212600
v -0.03318300 -0.02067200 -0.00014700
v -0.03318300 -0.02067200 -0.00014700
v -0.03413900 -0.02077400 0.00141100
v -0.03413900 -0.02077400 0.00141100
v -0.03483600 -0.02084600 0.00092800
v -0.03483600 -0.02084600 0.00092800
v -0.03360600 -0.02071600 0.00070100
v -0.03360600 -0.02071600 0.00070100
v -0.03403000 -0.02075900 -0.00014700
v -0.03403000 -0.02075900 -0.00014700
v -0.03236700 -0.02059200 0.00094000
v -0.03236700 -0.02059200 0.00094000
v -0.03466600 -0.02083300 0.00211300
v -0.03572600 -0.02094800 0.00211300
v -0.03254700 -0.02061500 0.00211300
v -0.03254700 -0.02061500 0.00211300
v -0.03148700 -0.02051200 0.00211300
v -0.03155300 -0.01981500 0.00211800
v -0.03155300 -0.01981500 0.00211800
v -0.03148700 -0.02051200 0.00211300
v -0.03236700 -0.02059200 0.00094000
v -0.03236700 -0.02059200 0.00094000
v -0.03244400 -0.01989600 0.00093100
v -0.03244400 -0.01989600 0.00093100
v -0.03244400 -0.01989600 0.00093100
v -0.03318300 -0.02067200 -0.00014700
v -0.03318300 -0.02067200 -0.00014700
v -0.03261600 -0.01991900 0.00211800
v -0.03254700 -0.02061500 0.00211300
v -0.03254700 -0.02061500 0.00211300
v -0.03155300 -0.01981500 0.00211800
v -0.03155300 -0.01981500 0.00211800
v -0.03148700 -0.02051200 0.00211300
v -0.03367700 -0.02001900 0.00070400
v -0.03367700 -0.02001900 0.00070400
v -0.03360600 -0.02071600 0.00070100
v -0.03261600 -0.01991900 0.00211800
v -0.03360600 -0.02071600 0.00070100
v -0.03360600 -0.02071600 0.00070100
v -0.03474000 -0.02013900 0.00211800
v -0.03474000 -0.02013900 0.00211800
v -0.03474000 -0.02013900 0.00211800
v -0.03413900 -0.02077400 0.00141100
v -0.03413900 -0.02077400 0.00141100
v -0.03466600 -0.02083300 0.00211300
v -0.03367700 -0.02001900 0.00070400
v -0.03428800 -0.02008600 0.00151500
v -0.03428800 -0.02008600 0.00151500
v -0.03466600 -0.02083300 0.00211300
v -0.03580200 -0.02025200 0.00211800
v -0.03572600 -0.02094800 0.00211300
v -0.03474000 -0.02013900 0.00211800
v -0.03410300 -0.02006300 -0.00014700
v -0.03403000 -0.02075900 -0.00014700
v -0.03403000 -0.02075900 -0.00014700
v -0.03483600 -0.02084600 0.00092800
v -0.03483600 -0.02084600 0.00092800
v -0.03483600 -0.02084600 0.00092800
v -0.03489000 -0.02014700 0.00090200
v -0.03489000 -0.02014700 0.00090200
v -0.03489000 -0.02014700 0.00090200
v -0.03572600 -0.02094800 0.00211300
v -0.03410200 -0.02006900 -0.00213000
v -0.03403000 -0.02076500 -0.00212600
v -0.03410300 -0.02006300 -0.00014700
v -0.03403000 -0.02076500 -0.00212600
v -0.03403000 -0.02076500 -0.00212600
v -0.03325300 -0.01998200 -0.00213100
v -0.03325300 -0.01998200 -0.00213100
v -0.03318200 -0.02067800 -0.00212600
v -0.03410200 -0.02006900 -0.00213000
v -0.03325300 -0.01997600 -0.00014700
v -0.03325300 -0.01997600 -0.00014700
v -0.03318300 -0.02067200 -0.00014700
v -0.03318200 -0.02067800 -0.00212600
v -0.03318200 -0.02067800 -0.00212600
v -0.03325300 -0.01997600 -0.00014700
v -0.03254700 -0.02061500 0.00211300
v -0.03254700 -0.02061500 0.00211300
v -0.03580200 -0.02025200 0.00211800
v -0.03580200 -0.02025200 0.00211800
v -0.03403000 -0.02075900 -0.00014700
v -0.03403000 -0.02075900 -0.00014700
v -0.03325300 -0.01998200 -0.00213100
vn -0.10380000 0.99460000 -0.00650000
vn -0.10080000 0.99490000 -0.00040000
vn -0.10080000 0.99490000 -0.00650000
vn -0.10450000 0.99450000 0.00470000
vn -0.10440000 0.99450000 0.00460000
vn -0.10220000 0.99480000 0.00210000
vn -0.10230000 0.99480000 0.00210000
vn -0.10660000 0.99430000 0.00270000
vn -0.10380000 0.99460000 -0.00040000
vn -0.10380000 0.99460000 -0.00050000
vn -0.09790000 0.99520000 0.00280000
vn -0.09800000 0.99520000 0.00280000
vn -0.10990000 0.99390000 0.00650000
vn -0.10610000 0.99430000 0.00620000
vn -0.10620000 0.99430000 0.00650000
vn -0.09860000 0.99510000 0.00640000
vn -0.09850000 0.99510000 0.00640000
vn -0.09480000 0.99550000 0.00640000
vn 0.10380000 -0.99460000 0.00650000
vn 0.10080000 -0.99490000 0.00650000
vn 0.10080000 -0.99490000 0.00040000
vn 0.10080000 -0.99490000 0.00050000
vn 0.10410000 -0.99460000 -0.00430000
vn 0.10420000 -0.99450000 -0.00440000
vn 0.10670000 -0.99430000 -0.00280000
vn 0.10660000 -0.99430000 -0.00280000
vn 0.10230000 -0.99480000 -0.00210000
vn 0.10230000 -0.99480000 -0.00220000
vn 0.10380000 -0.99460000 0.00040000
vn 0.10380000 -0.99460000 0.00050000
vn 0.09790000 -0.99520000 -0.00280000
vn 0.09790000 -0.99520000 -0.00290000
vn 0.10610000 -0.99430000 -0.00650000
vn 0.10980000 -0.99390000 -0.00650000
vn 0.09850000 -0.99510000 -0.00640000
vn 0.09860000 -0.99510000 -0.00640000
vn 0.09480000 -0.99550000 -0.00640000
vn 0.79460000 0.07990000 -0.60190000
vn 0.79470000 0.07950000 -0.60170000
vn 0.79490000 0.07950000 -0.60140000
vn 0.79480000 0.07990000 -0.60160000
vn 0.79460000 0.07990000 -0.60190000
vn 0.79440000 0.08010000 -0.60210000
vn 0.79460000 0.07990000 -0.60190000
vn 0.79450000 0.07990000 -0.60200000
vn 0.79440000 0.08010000 -0.60210000
vn 0.79440000 0.08020000 -0.60210000
vn 0.00050000 -0.00630000 1.00000000
vn 0.00050000 -0.00630000 1.00000000
vn 0.00060000 -0.00630000 1.00000000
vn 0.00050000 -0.00630000 1.00000000
vn 0.00060000 -0.00630000 1.00000000
vn 0.00060000 -0.00630000 1.00000000
vn -0.79420000 -0.08310000 0.60190000
vn -0.79390000 -0.08290000 0.60230000
vn -0.79420000 -0.08310000 0.60190000
vn -0.79420000 -0.08260000 0.60210000
vn 0.79400000 0.08040000 0.60260000
vn 0.79400000 0.08030000 0.60260000
vn 0.79360000 0.08070000 0.60310000
vn 0.79360000 0.08080000 0.60310000
vn 0.79360000 0.08080000 0.60300000
vn 0.79390000 0.08060000 0.60270000
vn 0.79380000 0.08050000 0.60280000
vn 0.79370000 0.08080000 0.60290000
vn 0.79390000 0.08030000 0.60270000
vn 0.79370000 0.08060000 0.60290000
vn 0.79370000 0.08050000 0.60290000
vn 0.00070000 -0.00640000 1.00000000
vn 0.00070000 -0.00640000 1.00000000
vn 0.00070000 -0.00640000 1.00000000
vn 0.00070000 -0.00640000 1.00000000
vn -0.79380000 -0.08310000 -0.60240000
vn -0.79380000 -0.08310000 -0.60240000
vn -0.79400000 -0.08300000 -0.60220000
vn -0.79350000 -0.08350000 -0.60280000
vn -0.79360000 -0.08360000 -0.60270000
vn -0.79390000 -0.08350000 -0.60230000
vn -0.79360000 -0.08340000 -0.60260000
vn -0.79350000 -0.08340000 -0.60280000
vn -0.79380000 -0.08330000 -0.60240000
vn -0.79360000 -0.08360000 -0.60270000
vn -0.99460000 -0.10380000 0.00070000
vn -0.99460000 -0.10380000 0.00070000
vn -0.99460000 -0.10380000 0.00010000
vn 0.00060000 -0.00640000 -1.00000000
vn 0.00070000 -0.00650000 -1.00000000
vn 0.00070000 -0.00650000 -1.00000000
vn 0.00070000 -0.00640000 -1.00000000
vn 0.00060000 -0.00650000 -1.00000000
vn 0.00070000 -0.00640000 -1.00000000
vn 0.99490000 0.10110000 -0.00020000
vn 0.99490000 0.10070000 -0.00010000
vn 0.99490000 0.10070000 -0.00010000
vn 0.99490000 0.10110000 -0.00020000
vn 0.99490000 0.10080000 -0.00060000
vn 0.79440000 0.08010000 -0.60210000
vn -0.79430000 -0.08260000 0.60180000
vn -0.79440000 -0.08250000 0.60170000
vn -0.79350000 -0.08350000 -0.60280000
vn -0.79360000 -0.08360000 -0.60270000
vn -0.99460000 -0.10350000 0.00020000
vn -0.99460000 -0.10380000 0.00010000
vn 0.99490000 0.10080000 -0.00070000
vt 0.97496400 0.98475700
vt 0.98620100 0.99014300
vt 0.97473200 0.98977900
vt 0.99564600 0.98377000
vt 0.99564600 0.98377000
vt 0.99113200 0.98757000
vt 0.99113200 0.98757000
vt 0.99213500 0.98034600
vt 0.98623600 0.98507600
vt 0.98623600 0.98507600
vt 0.99263300 0.99495500
vt 0.99263300 0.99495500
vt 0.99850000 0.97466500
vt 0.99883200 0.98090900
vt 0.99883200 0.98090900
vt 0.99958900 0.99356900
vt 0.99958900 0.99356900
vt 0.99999800 0.99999700
vt 0.97495200 0.98475300
vt 0.97474100 0.98978600
vt 0.98620100 0.99014300
vt 0.98620100 0.99014300
vt 0.99509300 0.98424400
vt 0.99509300 0.98424400
vt 0.99228800 0.98022500
vt 0.99228800 0.98022500
vt 0.99112800 0.98756900
vt 0.99112800 0.98756900
vt 0.98623600 0.98507600
vt 0.98623600 0.98507600
vt 0.99270000 0.99500300
vt 0.99270000 0.99500300
vt 0.99881900 0.98090300
vt 0.99848800 0.97467800
vt 0.99958900 0.99356800
vt 0.99958900 0.99356800
vt 1.00000000 1.00000000
vt 0.00000000 -0.00000400
vt 0.00000000 -0.00000400
vt 0.00000000 0.01215700
vt 0.00743600 0.01216300
vt 0.00743600 0.01216300
vt 0.00750800 0.00000200
vt 0.00750800 0.00000200
vt 0.00750800 0.00000200
vt 0.01433300 0.01215600
vt 0.01433300 0.01215600
vt 0.07636900 -0.00000100
vt 0.07636700 0.01216000
vt 0.07636700 0.01216000
vt 0.08176500 0.00000000
vt 0.08176500 0.00000000
vt 0.08176700 0.01215700
vt 0.06739600 0.00000500
vt 0.06739600 0.00000500
vt 0.06739100 0.01216200
vt 0.07636300 0.00000200
vt 0.06741700 0.01214500
vt 0.06741700 0.01214500
vt 0.05845500 0.00002500
vt 0.05845500 0.00002500
vt 0.05845500 0.00002500
vt 0.06283500 0.01215800
vt 0.06283500 0.01215800
vt 0.05845600 0.01215400
vt 0.06741800 -0.00000700
vt 0.06219400 -0.00000200
vt 0.06219400 -0.00000200
vt 0.05844900 0.01215900
vt 0.05305000 -0.00000300
vt 0.05305700 0.01215800
vt 0.05846000 0.00002300
vt 0.03871500 -0.00000300
vt 0.03871400 0.01215500
vt 0.03871400 0.01215500
vt 0.04553000 0.01216300
vt 0.04553000 0.01216300
vt 0.04553000 0.01216300
vt 0.04535000 0.00000400
vt 0.04535000 0.00000400
vt 0.04535000 0.00000400
vt 0.05305700 0.01215600
vt 0.02867000 -0.00000800
vt 0.02866500 0.01215200
vt 0.03871000 0.00000300
vt 0.02868200 0.01213500
vt 0.02868200 0.01213500
vt 0.02436700 -0.00001300
vt 0.02436700 -0.00001300
vt 0.02436500 0.01214100
vt 0.02868100 -0.00002400
vt 0.01433500 -0.00000400
vt 0.01433500 -0.00000400
vt 0.01433400 0.01215300
vt 0.02439500 0.01217100
vt 0.02439500 0.01217100
vt 0.01433500 -0.00000300
vt 0.07636600 0.01215600
vt 0.07636600 0.01215600
vt 0.05305600 -0.00001000
vt 0.05305600 -0.00001000
vt 0.03871000 0.01215800
vt 0.03871000 0.01215800
vt 0.02438400 -0.00000200
f 1/1/1 9/9/9 2/2/2
f 4/4/4 6/6/6 8/8/8
f 7/7/7 10/10/10 8/8/8
f 2/2/2 9/9/9 7/7/7
f 2/2/2 7/7/7 12/12/12
f 13/13/13 14/14/14 8/8/8
f 11/11/11 7/7/7 16/16/16
f 17/17/17 18/18/18 11/11/11
f 21/21/21 29/29/29 20/20/20
f 24/24/24 25/25/25 27/27/27
f 27/27/27 26/26/26 29/29/29
f 22/22/22 27/27/27 30/30/30
f 22/22/22 31/31/31 27/27/27
f 33/33/33 25/25/25 23/23/23
f 33/33/33 34/34/34 26/26/26
f 32/32/32 36/36/36 28/28/28
f 37/37/37 35/35/35 32/32/32
f 42/42/42 44/44/44 38/38/38
f 46/46/46 97/97/97 43/43/43
f 50/50/50 53/53/53 52/52/52
f 56/56/56 98/98/98 54/54/54
f 58/58/58 62/62/62 64/64/64
f 61/61/61 65/65/65 63/63/63
f 58/58/58 66/66/66 68/68/68
f 67/67/67 60/60/60 59/59/59
f 69/69/69 72/72/72 71/71/71
f 78/78/78 80/80/80 75/75/75
f 82/82/82 101/101/101 77/77/77
f 84/84/84 102/102/102 83/83/83
f 86/86/86 91/91/91 89/89/89
f 95/95/95 104/104/104 92/92/92
f 1/1/1 2/2/2 3/3/3
f 15/15/15 5/5/5 8/8/8
f 29/29/29 19/19/19 20/20/20
f 42/42/42 39/39/39 40/40/40
f 47/47/47 45/45/45 41/41/41
f 49/49/49 51/51/51 48/48/48
f 99/99/99 57/57/57 55/55/55
f 72/72/72 70/70/70 71/71/71
f 79/79/79 73/73/73 74/74/74
f 100/100/100 81/81/81 76/76/76
f 103/103/103 85/85/85 83/83/83
f 87/87/87 88/88/88 90/90/90
f 96/96/96 93/93/93 94/94/94

