mtllib material.mtl
usemtl Material-7011油漆.004
v -0.03832500 -0.02054000 -0.00169700
v -0.03755800 -0.02044900 -0.00117500
v -0.03755800 -0.02044900 -0.00117500
v -0.03755800 -0.02044900 -0.00117500
v -0.03740500 -0.02043400 -0.00208600
v -0.03679900 -0.02036000 -0.00128200
v -0.03679900 -0.02036000 -0.00128200
v -0.03679900 -0.02036000 -0.00128200
v -0.03905900 -0.02062500 -0.00087700
v -0.03905900 -0.02062500 -0.00087700
v -0.03824700 -0.02052700 -0.00057400
v -0.03824700 -0.02052700 -0.00057400
v -0.03514800 -0.02018000 -0.00213200
v -0.03683200 -0.02036800 -0.00213200
v -0.03683200 -0.02036800 -0.00213200
v -0.03514800 -0.02017600 -0.00128200
v -0.03939800 -0.02066600 0.00041500
v -0.03855700 -0.02056400 0.00033100
v -0.03933400 -0.02065900 -0.00018800
v -0.03939700 -0.02067300 0.00211800
v -0.03854600 -0.02056800 0.00211700
v -0.03803200 -0.02121100 -0.00182000
v -0.03689500 -0.02108000 -0.00213600
v -0.03689500 -0.02108000 -0.00213600
v -0.03747800 -0.02114300 -0.00114500
v -0.03747800 -0.02114300 -0.00114500
v -0.03672500 -0.02105500 -0.00127900
v -0.03672500 -0.02105500 -0.00127900
v -0.03874600 -0.02129400 -0.00119500
v -0.03813600 -0.02121900 -0.00060500
v -0.03840700 -0.02125000 -0.00006300
v -0.03912100 -0.02133800 -0.00058800
v -0.03912100 -0.02133800 -0.00058800
v -0.03507200 -0.02087600 -0.00212700
v -0.03507200 -0.02087300 -0.00127900
v -0.03932000 -0.02136200 0.00033900
v -0.03932000 -0.02136200 0.00033900
v -0.03932000 -0.02136200 0.00033900
v -0.03931000 -0.02136700 0.00211300
v -0.03846300 -0.02126300 0.00211300
v -0.03846300 -0.02125800 0.00039900
v -0.03514800 -0.02018000 -0.00213200
v -0.03689500 -0.02108000 -0.00213600
v -0.03683200 -0.02036800 -0.00213200
v -0.03683200 -0.02036800 -0.00213200
v -0.03740500 -0.02043400 -0.00208600
v -0.03803200 -0.02121100 -0.00182000
v -0.03905900 -0.02062500 -0.00087700
v -0.03874600 -0.02129400 -0.00119500
v -0.03912100 -0.02133800 -0.00058800
v -0.03933400 -0.02065900 -0.00018800
v -0.03932000 -0.02136200 0.00033900
v -0.03939800 -0.02066600 0.00041500
v -0.03931000 -0.02136700 0.00211300
v -0.03939700 -0.02067300 0.00211800
v -0.03832500 -0.02054000 -0.00169700
v -0.03507200 -0.02087600 -0.00212700
v -0.03507200 -0.02087600 -0.00212700
v -0.03514800 -0.02018000 -0.00213200
v -0.03514800 -0.02017600 -0.00128200
v -0.03514800 -0.02017600 -0.00128200
v -0.03507200 -0.02087300 -0.00127900
v -0.03855700 -0.02056400 0.00033100
v -0.03840700 -0.02125000 -0.00006300
v -0.03824700 -0.02052700 -0.00057400
v -0.03854600 -0.02056800 0.00211700
v -0.03846300 -0.02126300 0.00211300
v -0.03813600 -0.02121900 -0.00060500
v -0.03755800 -0.02044900 -0.00117500
v -0.03747800 -0.02114300 -0.00114500
v -0.03672500 -0.02105500 -0.00127900
v -0.03672500 -0.02105500 -0.00127900
v -0.03514800 -0.02017600 -0.00128200
v -0.03507200 -0.02087300 -0.00127900
v -0.03507200 -0.02087300 -0.00127900
v -0.03854600 -0.02056800 0.00211700
v -0.03939700 -0.02067300 0.00211800
v -0.03939700 -0.02067300 0.00211800
v -0.03931000 -0.02136700 0.00211300
v -0.03846300 -0.02126300 0.00211300
v -0.03507200 -0.02087600 -0.00212700
v -0.03507200 -0.02087600 -0.00212700
v -0.03846300 -0.02125800 0.00039900
v -0.03679900 -0.02036000 -0.00128200
v -0.03679900 -0.02036000 -0.00128200
v -0.03679900 -0.02036000 -0.00128200
vn -0.11870000 0.99290000 -0.00520000
vn -0.11600000 0.99320000 -0.00340000
vn -0.11600000 0.99320000 -0.00360000
vn -0.11570000 0.99330000 -0.00350000
vn -0.11550000 0.99330000 -0.00640000
vn -0.11330000 0.99360000 -0.00400000
vn -0.11330000 0.99350000 -0.00400000
vn -0.11330000 0.99360000 -0.00390000
vn -0.12120000 0.99260000 -0.00270000
vn -0.12130000 0.99260000 -0.00270000
vn -0.11840000 0.99300000 -0.00170000
vn -0.11840000 0.99300000 -0.00180000
vn -0.10750000 0.99420000 -0.00650000
vn -0.11340000 0.99350000 -0.00650000
vn -0.11350000 0.99350000 -0.00650000
vn -0.10750000 0.99420000 -0.00390000
vn -0.12240000 0.99250000 0.00130000
vn -0.11950000 0.99280000 0.00100000
vn -0.12220000 0.99250000 -0.00060000
vn -0.12250000 0.99250000 0.00660000
vn -0.11950000 0.99280000 0.00660000
vn 0.11800000 -0.99300000 0.00560000
vn 0.11400000 -0.99350000 0.00660000
vn 0.11390000 -0.99350000 0.00660000
vn 0.11600000 -0.99320000 0.00360000
vn 0.11610000 -0.99320000 0.00360000
vn 0.11330000 -0.99350000 0.00400000
vn 0.11330000 -0.99360000 0.00400000
vn 0.12050000 -0.99270000 0.00370000
vn 0.11830000 -0.99300000 0.00190000
vn 0.11930000 -0.99290000 0.00020000
vn 0.12170000 -0.99260000 0.00170000
vn 0.12180000 -0.99260000 0.00180000
vn 0.10750000 -0.99420000 0.00650000
vn 0.10750000 -0.99420000 0.00390000
vn 0.12240000 -0.99250000 -0.00100000
vn 0.12240000 -0.99250000 -0.00110000
vn 0.12250000 -0.99250000 -0.00110000
vn 0.12250000 -0.99250000 -0.00660000
vn 0.11950000 -0.99280000 -0.00660000
vn 0.11950000 -0.99280000 -0.00120000
vn 0.00070000 -0.00650000 -1.00000000
vn -0.01760000 -0.00850000 -0.99980000
vn 0.00070000 -0.00630000 -1.00000000
vn 0.00070000 -0.00650000 -1.00000000
vn -0.20020000 -0.02970000 -0.97930000
vn -0.49510000 -0.06370000 -0.86650000
vn -0.84920000 -0.10570000 -0.51750000
vn -0.76190000 -0.09520000 -0.64060000
vn -0.91150000 -0.11290000 -0.39540000
vn -0.96660000 -0.11930000 -0.22690000
vn -0.99240000 -0.12230000 -0.01640000
vn -0.99250000 -0.12240000 -0.00140000
vn -0.99250000 -0.12250000 -0.00000000
vn -0.99250000 -0.12240000 -0.00080000
vn -0.57440000 -0.07280000 -0.81530000
vn 0.99420000 0.10750000 -0.00070000
vn 0.99420000 0.10740000 -0.00070000
vn 0.99420000 0.10760000 -0.00070000
vn 0.99420000 0.10760000 -0.00050000
vn 0.99420000 0.10780000 -0.00060000
vn 0.99420000 0.10780000 -0.00060000
vn 0.99260000 0.11980000 0.02020000
vn 0.95490000 0.11520000 0.27360000
vn 0.80030000 0.09690000 0.59180000
vn 0.99280000 0.11940000 -0.00030000
vn 0.99290000 0.11930000 -0.00130000
vn 0.78610000 0.09520000 0.61070000
vn 0.40080000 0.05010000 0.91480000
vn 0.40810000 0.05100000 0.91150000
vn -0.00200000 0.00340000 1.00000000
vn -0.00210000 0.00340000 1.00000000
vn -0.00020000 0.00400000 1.00000000
vn -0.00060000 0.00370000 1.00000000
vn -0.00050000 0.00390000 1.00000000
vn 0.00080000 -0.00650000 1.00000000
vn 0.00080000 -0.00650000 1.00000000
vn 0.00100000 -0.00670000 1.00000000
vn 0.00080000 -0.00650000 1.00000000
vn 0.00080000 -0.00650000 1.00000000
vn 0.00070000 -0.00650000 -1.00000000
vn 0.00050000 -0.00650000 -1.00000000
vn 0.99280000 0.11990000 0.00780000
vn -0.00060000 0.00340000 1.00000000
vn -0.00060000 0.00370000 1.00000000
vn -0.00050000 0.00230000 1.00000000
vt 0.98048200 0.98110400
vt 0.98301000 0.98569600
vt 0.98301000 0.98569600
vt 0.98301000 0.98569600
vt 0.97822800 0.98638300
vt 0.98232900 0.99016700
vt 0.98232900 0.99016700
vt 0.98232900 0.99016700
vt 0.98474000 0.97700600
vt 0.98474000 0.97700600
vt 0.98622500 0.98175500
vt 0.98622500 0.98175500
vt 0.97733100 0.99973200
vt 0.97782900 0.98972800
vt 0.97782900 0.98972800
vt 0.98197800 0.99999000
vt 0.99128900 0.97511700
vt 0.99090200 0.97995700
vt 0.98825100 0.97545100
vt 0.99978100 0.97477500
vt 0.99999000 0.97972900
vt 0.97977900 0.98229700
vt 0.97783600 0.98888700
vt 0.97783600 0.98888700
vt 0.98315700 0.98569400
vt 0.98315700 0.98569400
vt 0.98234300 0.99012900
vt 0.98234300 0.99012900
vt 0.98310500 0.97827400
vt 0.98605400 0.98191100
vt 0.98886200 0.98035600
vt 0.98622100 0.97617400
vt 0.98622100 0.97617400
vt 0.97730900 0.99974000
vt 0.98198900 1.00000600
vt 0.99090500 0.97504700
vt 0.99090500 0.97504700
vt 0.99090500 0.97504700
vt 0.99979000 0.97480100
vt 0.99999200 0.97973900
vt 0.99126000 0.98002000
vt -0.00000200 -0.00000100
vt 0.00949200 0.01242200
vt 0.00874700 0.00000000
vt 0.00874700 0.00000000
vt 0.01175100 0.00000000
vt 0.01572000 0.01242800
vt 0.02280300 -0.00001700
vt 0.02072100 0.01242500
vt 0.02450400 0.01242600
vt 0.02671900 0.00000200
vt 0.02949200 0.01242100
vt 0.02987700 -0.00000900
vt 0.03867800 0.01242800
vt 0.03868400 -0.00000000
vt 0.01698900 0.00000700
vt 0.07907100 0.01240600
vt 0.07907100 0.01240600
vt 0.07907700 -0.00002000
vt 0.07469700 -0.00001600
vt 0.07469700 -0.00001600
vt 0.07470300 0.01242200
vt 0.05227700 -0.00000300
vt 0.05436000 0.01241200
vt 0.05735200 0.00000800
vt 0.04308900 -0.00000200
vt 0.04309500 0.01241900
vt 0.05757700 0.01242200
vt 0.06209800 0.00005400
vt 0.06203600 0.01242000
vt 0.06617500 0.01241500
vt 0.06617500 0.01241500
vt 0.07470200 0.00000400
vt 0.07469600 0.01242700
vt 0.07469600 0.01242700
vt 0.04308900 -0.00001400
vt 0.03868100 -0.00000300
vt 0.03868100 -0.00000300
vt 0.03868600 0.01241200
vt 0.04308900 0.01240100
vt 0.00000200 0.01241900
vt 0.00000200 0.01241900
vt 0.05191600 0.01242200
vt 0.06619700 -0.00000300
vt 0.06619700 -0.00000300
vt 0.06619700 -0.00000300
f 1/1/1 2/2/2 5/5/5
f 8/8/8 15/15/15 5/5/5
f 12/12/12 4/4/4 1/1/1
f 6/6/6 16/16/16 13/13/13
f 17/17/17 18/18/18 19/19/19
f 18/18/18 12/12/12 19/19/19
f 21/21/21 18/18/18 17/17/17
f 22/22/22 23/23/23 25/25/25
f 25/25/25 23/23/23 27/27/27
f 29/29/29 22/22/22 30/30/30
f 29/29/29 30/30/30 33/33/33
f 34/34/34 35/35/35 28/28/28
f 31/31/31 41/41/41 37/37/37
f 38/38/38 41/41/41 39/39/39
f 42/42/42 81/81/81 45/45/45
f 46/46/46 43/43/43 47/47/47
f 44/44/44 43/43/43 46/46/46
f 48/48/48 49/49/49 50/50/50
f 51/51/51 52/52/52 53/53/53
f 51/51/51 50/50/50 52/52/52
f 54/54/54 55/55/55 53/53/53
f 49/49/49 48/48/48 56/56/56
f 61/61/61 62/62/62 58/58/58
f 63/63/63 64/64/64 65/65/65
f 67/67/67 83/83/83 66/66/66
f 68/68/68 70/70/70 69/69/69
f 72/72/72 86/86/86 69/69/69
f 73/73/73 84/84/84 75/75/75
f 79/79/79 80/80/80 77/77/77
f 46/46/46 47/47/47 56/56/56
f 49/49/49 56/56/56 47/47/47
f 48/48/48 50/50/50 51/51/51
f 64/64/64 68/68/68 65/65/65
f 83/83/83 64/64/64 63/63/63
f 7/7/7 5/5/5 3/3/3
f 12/12/12 1/1/1 10/10/10
f 6/6/6 13/13/13 14/14/14
f 11/11/11 9/9/9 19/19/19
f 21/21/21 17/17/17 20/20/20
f 22/22/22 26/26/26 30/30/30
f 30/30/30 31/31/31 33/33/33
f 34/34/34 28/28/28 24/24/24
f 31/31/31 36/36/36 32/32/32
f 41/41/41 40/40/40 39/39/39
f 82/82/82 43/43/43 44/44/44
f 54/54/54 53/53/53 52/52/52
f 60/60/60 57/57/57 59/59/59
f 83/83/83 63/63/63 66/66/66
f 68/68/68 69/69/69 65/65/65
f 72/72/72 69/69/69 70/70/70
f 85/85/85 71/71/71 74/74/74
f 80/80/80 76/76/76 78/78/78

