mtllib material.mtl
usemtl Material-7011油漆
v -0.01501200 0.12493200 -0.07520400
v -0.01501200 0.12493200 -0.07520400
v -0.01501200 0.12493200 -0.07520400
v -0.01501200 0.12563200 -0.07520400
v -0.01501200 0.12563200 -0.07520400
v -0.01501200 0.12563200 -0.07520400
v -0.01506600 0.12493200 -0.07669600
v -0.01506600 0.12493200 -0.07669600
v -0.01506600 0.12493200 -0.07669600
v -0.01506600 0.12563200 -0.07669600
v -0.01506600 0.12563200 -0.07669600
v -0.01506600 0.12563200 -0.07669600
v -0.01503900 0.12493200 -0.07595000
v -0.01503900 0.12493200 -0.07595000
v -0.01503900 0.12563200 -0.07595000
v -0.01503900 0.12563200 -0.07595000
v -0.01503900 0.12563200 -0.07595000
v -0.01506700 0.12493200 -0.07669700
v -0.01506700 0.12493200 -0.07669700
v -0.01506700 0.12493200 -0.07669700
v -0.01506700 0.12563200 -0.07669700
v -0.01506700 0.12563200 -0.07669700
v -0.01506700 0.12563200 -0.07669700
v -0.02551100 0.12493200 -0.07632000
v -0.02551100 0.12493200 -0.07632000
v -0.02551100 0.12493200 -0.07632000
v -0.02551100 0.12563200 -0.07632000
v -0.02551100 0.12563200 -0.07632000
v -0.02551100 0.12563200 -0.07632000
v -0.01767800 0.12493200 -0.07660300
v -0.01767800 0.12493200 -0.07660300
v -0.02028900 0.12493200 -0.07650900
v -0.02028900 0.12493200 -0.07650900
v -0.02290000 0.12493200 -0.07641500
v -0.02290000 0.12493200 -0.07641500
v -0.02290000 0.12563200 -0.07641500
v -0.02290000 0.12563200 -0.07641500
v -0.02028900 0.12563200 -0.07650900
v -0.02028900 0.12563200 -0.07650900
v -0.01767800 0.12563200 -0.07660300
v -0.01767800 0.12563200 -0.07660300
v -0.02551100 0.12493200 -0.07632000
v -0.02551100 0.12493200 -0.07632000
v -0.02551100 0.12493200 -0.07632000
v -0.02551100 0.12563200 -0.07632000
v -0.02551100 0.12563200 -0.07632000
v -0.02551100 0.12563200 -0.07632000
v -0.02545700 0.12493200 -0.07482800
v -0.02545700 0.12493200 -0.07482800
v -0.02545700 0.12493200 -0.07482800
v -0.02545700 0.12563200 -0.07482800
v -0.02545700 0.12563200 -0.07482800
v -0.02545700 0.12563200 -0.07482800
v -0.02548400 0.12493200 -0.07557400
v -0.02548400 0.12493200 -0.07557400
v -0.02548400 0.12563200 -0.07557400
v -0.02548400 0.12563200 -0.07557400
v -0.02548400 0.12563200 -0.07557400
v -0.02545700 0.12493200 -0.07482700
v -0.02545700 0.12493200 -0.07482700
v -0.02545700 0.12493200 -0.07482700
v -0.02545700 0.12563200 -0.07482700
v -0.02545700 0.12563200 -0.07482700
v -0.02545700 0.12563200 -0.07482700
v -0.01501300 0.12493200 -0.07520400
v -0.01501300 0.12493200 -0.07520400
v -0.01501300 0.12493200 -0.07520400
v -0.01501300 0.12563200 -0.07520400
v -0.01501300 0.12563200 -0.07520400
v -0.01501300 0.12563200 -0.07520400
v -0.02284600 0.12493200 -0.07492200
v -0.02284600 0.12493200 -0.07492200
v -0.02023500 0.12493200 -0.07501600
v -0.02023500 0.12493200 -0.07501600
v -0.01762400 0.12493200 -0.07511000
v -0.01762400 0.12493200 -0.07511000
v -0.01762400 0.12563200 -0.07511000
v -0.01762400 0.12563200 -0.07511000
v -0.02023500 0.12563200 -0.07501600
v -0.02023500 0.12563200 -0.07501600
v -0.02284600 0.12563200 -0.07492200
v -0.02284600 0.12563200 -0.07492200
v -0.02545700 0.12493100 -0.07482800
v -0.02545700 0.12493100 -0.07482800
v -0.02545700 0.12493100 -0.07482800
v -0.02548400 0.12493100 -0.07557400
v -0.02548400 0.12493100 -0.07557400
v -0.02551100 0.12493100 -0.07632000
v -0.02551100 0.12493100 -0.07632000
v -0.02551100 0.12493100 -0.07632000
v -0.02200200 0.12493100 -0.07569900
v -0.01852100 0.12493100 -0.07582500
v -0.01501300 0.12493100 -0.07520400
v -0.01501300 0.12493100 -0.07520400
v -0.01501300 0.12493100 -0.07520400
v -0.01506700 0.12493100 -0.07669600
v -0.01506700 0.12493100 -0.07669600
v -0.01506700 0.12493100 -0.07669600
v -0.01504000 0.12493100 -0.07595000
v -0.01504000 0.12493100 -0.07595000
v -0.01678000 0.12493100 -0.07588700
v -0.01850800 0.12493100 -0.07545200
v -0.01676700 0.12493100 -0.07551500
v -0.01853400 0.12493100 -0.07619800
v -0.01679400 0.12493100 -0.07626000
v -0.01767800 0.12493100 -0.07660200
v -0.01767800 0.12493100 -0.07660200
v -0.02028900 0.12493100 -0.07650800
v -0.02028900 0.12493100 -0.07650800
v -0.02290000 0.12493100 -0.07641400
v -0.02290000 0.12493100 -0.07641400
v -0.02201600 0.12493100 -0.07607200
v -0.02374300 0.12493100 -0.07563700
v -0.02375600 0.12493100 -0.07601000
v -0.02198900 0.12493100 -0.07532600
v -0.02373000 0.12493100 -0.07526400
v -0.02284600 0.12493100 -0.07492200
v -0.02284600 0.12493100 -0.07492200
v -0.02023500 0.12493100 -0.07501600
v -0.02023500 0.12493100 -0.07501600
v -0.01762400 0.12493100 -0.07511000
v -0.01762400 0.12493100 -0.07511000
v -0.02545700 0.12563200 -0.07482800
v -0.02545700 0.12563200 -0.07482800
v -0.02545700 0.12563200 -0.07482800
v -0.02548400 0.12563200 -0.07557400
v -0.02548400 0.12563200 -0.07557400
v -0.02551100 0.12563200 -0.07632000
v -0.02551100 0.12563200 -0.07632000
v -0.02551100 0.12563200 -0.07632000
v -0.02200200 0.12563200 -0.07569900
v -0.01852100 0.12563200 -0.07582500
v -0.01501300 0.12563200 -0.07520400
v -0.01501300 0.12563200 -0.07520400
v -0.01501300 0.12563200 -0.07520400
v -0.01506700 0.12563200 -0.07669600
v -0.01506700 0.12563200 -0.07669600
v -0.01506700 0.12563200 -0.07669600
v -0.01504000 0.12563200 -0.07595000
v -0.01504000 0.12563200 -0.07595000
v -0.01678000 0.12563200 -0.07588700
v -0.01850800 0.12563200 -0.07545200
v -0.01676700 0.12563200 -0.07551500
v -0.01853400 0.12563200 -0.07619800
v -0.01679400 0.12563200 -0.07626000
v -0.01767800 0.12563200 -0.07660200
v -0.01767800 0.12563200 -0.07660200
v -0.02028900 0.12563200 -0.07650800
v -0.02028900 0.12563200 -0.07650800
v -0.02290000 0.12563200 -0.07641400
v -0.02290000 0.12563200 -0.07641400
v -0.02201600 0.12563200 -0.07607200
v -0.02374300 0.12563200 -0.07563700
v -0.02375600 0.12563200 -0.07601000
v -0.02198900 0.12563200 -0.07532600
v -0.02373000 0.12563200 -0.07526400
v -0.02284600 0.12563200 -0.07492200
v -0.02284600 0.12563200 -0.07492200
v -0.02023500 0.12563200 -0.07501600
v -0.02023500 0.12563200 -0.07501600
v -0.01762400 0.12563200 -0.07511000
v -0.01762400 0.12563200 -0.07511000
v -0.01501300 0.12493200 -0.07520400
v -0.01501300 0.12493200 -0.07520400
v -0.01501300 0.12493200 -0.07520400
v -0.01501300 0.12563200 -0.07520400
v -0.01501300 0.12563200 -0.07520400
v -0.01501300 0.12563200 -0.07520400
v -0.01506700 0.12493200 -0.07669600
v -0.01506700 0.12493200 -0.07669600
v -0.01506700 0.12493200 -0.07669600
v -0.01506700 0.12563200 -0.07669600
v -0.01506700 0.12563200 -0.07669600
v -0.01506700 0.12563200 -0.07669600
v -0.01504000 0.12493200 -0.07595000
v -0.01504000 0.12493200 -0.07595000
v -0.01504000 0.12563200 -0.07595000
v -0.01504000 0.12563200 -0.07595000
v -0.01504000 0.12563200 -0.07595000
v -0.01506700 0.12493200 -0.07669600
v -0.01506700 0.12493200 -0.07669600
v -0.01506700 0.12493200 -0.07669600
v -0.01506700 0.12563200 -0.07669600
v -0.01506700 0.12563200 -0.07669600
v -0.01506700 0.12563200 -0.07669600
v -0.02551100 0.12493200 -0.07631900
v -0.02551100 0.12493200 -0.07631900
v -0.02551100 0.12493200 -0.07631900
v -0.02551100 0.12563200 -0.07631900
v -0.02551100 0.12563200 -0.07631900
v -0.02551100 0.12563200 -0.07631900
v -0.01767800 0.12493200 -0.07660200
v -0.01767800 0.12493200 -0.07660200
v -0.02028900 0.12493200 -0.07650800
v -0.02028900 0.12493200 -0.07650800
v -0.02290000 0.12493200 -0.07641400
v -0.02290000 0.12493200 -0.07641400
v -0.02290000 0.12563200 -0.07641400
v -0.02290000 0.12563200 -0.07641400
v -0.02028900 0.12563200 -0.07650800
v -0.02028900 0.12563200 -0.07650800
v -0.01767800 0.12563200 -0.07660200
v -0.01767800 0.12563200 -0.07660200
v -0.02551000 0.12493200 -0.07632000
v -0.02551000 0.12493200 -0.07632000
v -0.02551000 0.12493200 -0.07632000
v -0.02551000 0.12563200 -0.07632000
v -0.02551000 0.12563200 -0.07632000
v -0.02551000 0.12563200 -0.07632000
v -0.02545600 0.12493200 -0.07482800
v -0.02545600 0.12493200 -0.07482800
v -0.02545600 0.12493200 -0.07482800
v -0.02545600 0.12563200 -0.07482800
v -0.02545600 0.12563200 -0.07482800
v -0.02545600 0.12563200 -0.07482800
v -0.02548300 0.12493200 -0.07557400
v -0.02548300 0.12493200 -0.07557400
v -0.02548300 0.12563200 -0.07557400
v -0.02548300 0.12563200 -0.07557400
v -0.02548300 0.12563200 -0.07557400
v -0.02545700 0.12493200 -0.07482800
v -0.02545700 0.12493200 -0.07482800
v -0.02545700 0.12493200 -0.07482800
v -0.02545700 0.12563200 -0.07482800
v -0.02545700 0.12563200 -0.07482800
v -0.02545700 0.12563200 -0.07482800
v -0.01501300 0.12493200 -0.07520500
v -0.01501300 0.12493200 -0.07520500
v -0.01501300 0.12493200 -0.07520500
v -0.01501300 0.12563200 -0.07520500
v -0.01501300 0.12563200 -0.07520500
v -0.01501300 0.12563200 -0.07520500
v -0.02284600 0.12493200 -0.07492300
v -0.02284600 0.12493200 -0.07492300
v -0.02023500 0.12493200 -0.07501700
v -0.02023500 0.12493200 -0.07501700
v -0.01762400 0.12493200 -0.07511100
v -0.01762400 0.12493200 -0.07511100
v -0.01762400 0.12563200 -0.07511100
v -0.01762400 0.12563200 -0.07511100
v -0.02023500 0.12563200 -0.07501700
v -0.02023500 0.12563200 -0.07501700
v -0.02284600 0.12563200 -0.07492300
v -0.02284600 0.12563200 -0.07492300
v -0.02545700 0.12493200 -0.07482800
v -0.02545700 0.12493200 -0.07482800
v -0.02545700 0.12493200 -0.07482800
v -0.02548400 0.12493200 -0.07557400
v -0.02548400 0.12493200 -0.07557400
v -0.02551100 0.12493200 -0.07632000
v -0.02551100 0.12493200 -0.07632000
v -0.02551100 0.12493200 -0.07632000
v -0.02200200 0.12493200 -0.07569900
v -0.01852100 0.12493200 -0.07582500
v -0.01501300 0.12493200 -0.07520400
v -0.01501300 0.12493200 -0.07520400
v -0.01501300 0.12493200 -0.07520400
v -0.01506700 0.12493200 -0.07669600
v -0.01506700 0.12493200 -0.07669600
v -0.01506700 0.12493200 -0.07669600
v -0.01504000 0.12493200 -0.07595000
v -0.01504000 0.12493200 -0.07595000
v -0.01678000 0.12493200 -0.07588700
v -0.01850800 0.12493200 -0.07545200
v -0.01676700 0.12493200 -0.07551500
v -0.01853400 0.12493200 -0.07619800
v -0.01679400 0.12493200 -0.07626000
v -0.01767800 0.12493200 -0.07660200
v -0.01767800 0.12493200 -0.07660200
v -0.02028900 0.12493200 -0.07650800
v -0.02028900 0.12493200 -0.07650800
v -0.02290000 0.12493200 -0.07641400
v -0.02290000 0.12493200 -0.07641400
v -0.02201600 0.12493200 -0.07607200
v -0.02374300 0.12493200 -0.07563700
v -0.02375600 0.12493200 -0.07601000
v -0.02198900 0.12493200 -0.07532600
v -0.02373000 0.12493200 -0.07526400
v -0.02284600 0.12493200 -0.07492200
v -0.02284600 0.12493200 -0.07492200
v -0.02023500 0.12493200 -0.07501600
v -0.02023500 0.12493200 -0.07501600
v -0.01762400 0.12493200 -0.07511000
v -0.01762400 0.12493200 -0.07511000
v -0.02545700 0.12563100 -0.07482800
v -0.02545700 0.12563100 -0.07482800
v -0.02545700 0.12563100 -0.07482800
v -0.02548400 0.12563100 -0.07557400
v -0.02548400 0.12563100 -0.07557400
v -0.02551100 0.12563100 -0.07632000
v -0.02551100 0.12563100 -0.07632000
v -0.02551100 0.12563100 -0.07632000
v -0.02200200 0.12563100 -0.07569900
v -0.01852100 0.12563100 -0.07582500
v -0.01501300 0.12563100 -0.07520400
v -0.01501300 0.12563100 -0.07520400
v -0.01501300 0.12563100 -0.07520400
v -0.01506700 0.12563100 -0.07669600
v -0.01506700 0.12563100 -0.07669600
v -0.01506700 0.12563100 -0.07669600
v -0.01504000 0.12563100 -0.07595000
v -0.01504000 0.12563100 -0.07595000
v -0.01678000 0.12563100 -0.07588700
v -0.01850800 0.12563100 -0.07545200
v -0.01676700 0.12563100 -0.07551500
v -0.01853400 0.12563100 -0.07619800
v -0.01679400 0.12563100 -0.07626000
v -0.01767800 0.12563100 -0.07660200
v -0.01767800 0.12563100 -0.07660200
v -0.02028900 0.12563100 -0.07650800
v -0.02028900 0.12563100 -0.07650800
v -0.02290000 0.12563100 -0.07641400
v -0.02290000 0.12563100 -0.07641400
v -0.02201600 0.12563100 -0.07607200
v -0.02374300 0.12563100 -0.07563700
v -0.02375600 0.12563100 -0.07601000
v -0.02198900 0.12563100 -0.07532600
v -0.02198900 0.12563100 -0.07532600
v -0.02373000 0.12563100 -0.07526400
v -0.02284600 0.12563100 -0.07492200
v -0.02284600 0.12563100 -0.07492200
v -0.02284600 0.12563100 -0.07492200
v -0.02023500 0.12563100 -0.07501600
v -0.02023500 0.12563100 -0.07501600
v -0.02023500 0.12563100 -0.07501600
v -0.01762400 0.12563100 -0.07511000
v -0.01762400 0.12563100 -0.07511000
vn 0.00000000 -1.00000000 0.00000000
vn 0.99940000 0.00000000 -0.03600000
vn 0.03120000 0.00000000 0.99950000
vn 0.03120000 0.00000000 0.99950000
vn 0.00000000 1.00000000 0.00030000
vn 0.99940000 0.00000000 -0.03600000
vn 0.00000000 -1.00000000 0.00000000
vn 0.99940000 0.00000000 -0.03600000
vn -0.03120000 0.00000000 -0.99950000
vn 0.00000000 1.00000000 0.00000000
vn -0.03120000 0.00000000 -0.99950000
vn 0.99940000 0.00000000 -0.03600000
vn 0.99940000 0.00000000 -0.03600000
vn 0.00000000 -1.00000000 0.00000000
vn 0.00000000 1.00000000 0.00000000
vn 0.00000000 1.00000000 0.00030000
vn 0.99940000 0.00000000 -0.03600000
vn 0.99930000 0.00000000 -0.03680000
vn 0.00000000 -1.00000000 0.00000000
vn -0.03600000 0.00000000 -0.99940000
vn 0.00000000 1.00000000 0.00000000
vn -0.03600000 0.00000000 -0.99940000
vn 0.99930000 0.00000000 -0.03680000
vn -0.99940000 0.00000000 0.03580000
vn -0.03600000 0.00000000 -0.99940000
vn 0.00000000 -1.00000000 0.00000000
vn -0.03600000 0.00000000 -0.99940000
vn 0.00000000 1.00000000 0.00000000
vn -0.99940000 0.00000000 0.03580000
vn 0.00000000 -1.00000000 0.00000000
vn -0.03600000 0.00000000 -0.99940000
vn 0.00000000 -1.00000000 0.00000000
vn -0.03600000 0.00000000 -0.99940000
vn -0.03600000 0.00000000 -0.99940000
vn 0.00000000 -1.00000000 0.00000000
vn -0.03600000 0.00000000 -0.99940000
vn 0.00000000 1.00000000 0.00000000
vn -0.03600000 0.00000000 -0.99940000
vn 0.00000000 1.00000000 0.00000000
vn 0.00000000 1.00000000 0.00000000
vn -0.03600000 0.00000000 -0.99940000
vn -0.99940000 0.00000000 0.03600000
vn -0.03120000 0.00000000 -0.99950000
vn 0.00000000 -1.00000000 0.00000000
vn 0.00000000 1.00000000 0.00000000
vn -0.99940000 0.00000000 0.03600000
vn -0.03120000 0.00000000 -0.99950000
vn 0.00000000 -1.00000000 0.00000000
vn -0.99940000 0.00000000 0.03600000
vn 0.03120000 0.00000000 0.99950000
vn 0.03120000 0.00000000 0.99950000
vn -0.99940000 0.00000000 0.03600000
vn 0.00000000 1.00000000 -0.00030000
vn -0.99940000 0.00000000 0.03600000
vn 0.00000000 -1.00000000 0.00000000
vn 0.00000000 1.00000000 0.00000000
vn 0.00000000 1.00000000 -0.00030000
vn -0.99940000 0.00000000 0.03600000
vn 0.00000000 -1.00000000 0.00000000
vn -0.99940000 0.00000000 0.03560000
vn 0.03600000 0.00000000 0.99940000
vn -0.99940000 0.00000000 0.03560000
vn 0.00000000 1.00000000 0.00000000
vn 0.03600000 0.00000000 0.99940000
vn 0.00000000 -1.00000000 0.00000000
vn 0.03600000 0.00000000 0.99940000
vn 0.99930000 0.00000000 -0.03680000
vn 0.99930000 0.00000000 -0.03680000
vn 0.03600000 0.00000000 0.99940000
vn 0.00000000 1.00000000 0.00000000
vn 0.00000000 -1.00000000 0.00000000
vn 0.03600000 0.00000000 0.99940000
vn 0.03600000 0.00000000 0.99940000
vn 0.00000000 -1.00000000 0.00000000
vn 0.00000000 -1.00000000 0.00000000
vn 0.03600000 0.00000000 0.99940000
vn 0.03600000 0.00000000 0.99940000
vn 0.00000000 1.00000000 0.00000000
vn 0.00000000 1.00000000 0.00000000
vn 0.03600000 0.00000000 0.99940000
vn 0.03600000 0.00000000 0.99940000
vn 0.00000000 1.00000000 0.00000000
vn -0.99940000 0.00000000 0.03600000
vn 0.03610000 0.00000000 0.99930000
vn 0.00000000 -1.00000000 0.00000000
vn -0.99940000 0.00000000 0.03600000
vn 0.00000000 -1.00000000 0.00000000
vn 0.00000000 -1.00000000 0.00000000
vn -0.03610000 0.00000000 -0.99930000
vn -0.99940000 0.00000000 0.03600000
vn 0.00000000 -1.00000000 0.00000000
vn 0.00000000 -1.00000000 0.00000000
vn 0.03610000 0.00000000 0.99930000
vn 0.00000000 -1.00000000 0.00000000
vn 0.99940000 0.00000000 -0.03600000
vn 0.00000000 -1.00000000 0.00000000
vn 0.99940000 0.00000000 -0.03600000
vn -0.03610000 0.00000000 -0.99930000
vn 0.99940000 0.00000000 -0.03600000
vn 0.00000000 -1.00000000 0.00000000
vn 0.00000000 -1.00000000 0.00000000
vn 0.00000000 -1.00000000 0.00000000
vn 0.00000000 -1.00000000 0.00000000
vn 0.00000000 -1.00000000 0.00000000
vn 0.00000000 -1.00000000 0.00000000
vn -0.03610000 0.00000000 -0.99930000
vn 0.00000000 -1.00000000 0.00000000
vn -0.03610000 0.00000000 -0.99930000
vn 0.00000000 -1.00000000 0.00000000
vn 0.00000000 -1.00000000 0.00000000
vn -0.03610000 0.00000000 -0.99930000
vn 0.00000000 -1.00000000 0.00000000
vn 0.00000000 -1.00000000 0.00000000
vn 0.00000000 -1.00000000 0.00000000
vn 0.00000000 -1.00000000 0.00000000
vn 0.00000000 -1.00000000 0.00000000
vn 0.03610000 0.00000000 0.99930000
vn 0.00000000 -1.00000000 0.00000000
vn 0.00000000 -1.00000000 0.00000000
vn 0.03610000 0.00000000 0.99930000
vn 0.00000000 -1.00000000 0.00000000
vn 0.03610000 0.00000000 0.99930000
vn 0.03620000 0.00000000 0.99930000
vn 0.00000000 1.00000000 0.00000000
vn -0.99940000 0.00000000 0.03600000
vn -0.99940000 0.00000000 0.03600000
vn 0.00000000 1.00000000 0.00000000
vn 0.00000000 1.00000000 0.00000000
vn -0.99940000 0.00000000 0.03600000
vn -0.03620000 0.00000000 -0.99930000
vn 0.00000000 1.00000000 0.00000000
vn 0.00000000 1.00000000 0.00000000
vn 0.00000000 1.00000000 0.00000000
vn 0.99940000 0.00000000 -0.03600000
vn 0.03620000 0.00000000 0.99930000
vn 0.00000000 1.00000000 0.00000000
vn -0.03620000 0.00000000 -0.99930000
vn 0.99940000 0.00000000 -0.03600000
vn 0.00000000 1.00000000 0.00000000
vn 0.99940000 0.00000000 -0.03600000
vn 0.00000000 1.00000000 0.00000000
vn 0.00000000 1.00000000 0.00000000
vn 0.00000000 1.00000000 0.00000000
vn 0.00000000 1.00000000 0.00000000
vn 0.00000000 1.00000000 0.00000000
vn -0.03620000 0.00000000 -0.99930000
vn 0.00000000 1.00000000 0.00000000
vn 0.00000000 1.00000000 0.00000000
vn -0.03620000 0.00000000 -0.99930000
vn 0.00000000 1.00000000 0.00000000
vn -0.03620000 0.00000000 -0.99930000
vn 0.00000000 1.00000000 0.00000000
vn 0.00000000 1.00000000 0.00000000
vn 0.00000000 1.00000000 0.00000000
vn 0.00000000 1.00000000 0.00000000
vn 0.00000000 1.00000000 0.00000000
vn 0.03620000 0.00000000 0.99930000
vn 0.00000000 1.00000000 0.00000000
vn 0.03620000 0.00000000 0.99930000
vn 0.00000000 1.00000000 0.00000000
vn 0.03620000 0.00000000 0.99930000
vn 0.00000000 1.00000000 0.00000000
vn 0.00000000 -1.00000000 0.00000000
vn 0.03120000 0.00000000 0.99950000
vn -0.99940000 0.00000000 0.03600000
vn 0.00000000 1.00000000 0.00030000
vn 0.03120000 0.00000000 0.99950000
vn -0.99940000 0.00000000 0.03600000
vn -0.03120000 0.00000000 -0.99950000
vn 0.00000000 -1.00000000 0.00000000
vn -0.99940000 0.00000000 0.03600000
vn -0.03120000 0.00000000 -0.99950000
vn 0.00000000 1.00000000 0.00000000
vn -0.99940000 0.00000000 0.03600000
vn 0.00000000 -1.00000000 0.00000000
vn -0.99940000 0.00000000 0.03600000
vn 0.00000000 1.00000000 0.00000000
vn 0.00000000 1.00000000 0.00030000
vn -0.99940000 0.00000000 0.03600000
vn 0.00000000 -1.00000000 0.00000000
vn 0.99930000 0.00000000 -0.03680000
vn 0.03600000 0.00000000 0.99940000
vn 0.00000000 1.00000000 0.00000000
vn 0.03600000 0.00000000 0.99940000
vn 0.99930000 0.00000000 -0.03680000
vn -0.99940000 0.00000000 0.03580000
vn 0.00000000 -1.00000000 0.00000000
vn 0.03600000 0.00000000 0.99940000
vn 0.03600000 0.00000000 0.99940000
vn 0.00000000 1.00000000 0.00000000
vn -0.99940000 0.00000000 0.03580000
vn 0.03600000 0.00000000 0.99940000
vn 0.00000000 -1.00000000 0.00000000
vn 0.00000000 -1.00000000 0.00000000
vn 0.03600000 0.00000000 0.99940000
vn 0.00000000 -1.00000000 0.00000000
vn 0.03600000 0.00000000 0.99940000
vn 0.00000000 1.00000000 0.00000000
vn 0.03600000 0.00000000 0.99940000
vn 0.00000000 1.00000000 0.00000000
vn 0.03600000 0.00000000 0.99940000
vn 0.00000000 1.00000000 0.00000000
vn 0.03600000 0.00000000 0.99940000
vn -0.03120000 0.00000000 -0.99950000
vn 0.99940000 0.00000000 -0.03600000
vn 0.00000000 -1.00000000 0.00000000
vn 0.00000000 1.00000000 0.00000000
vn 0.99940000 0.00000000 -0.03600000
vn -0.03120000 0.00000000 -0.99950000
vn 0.03120000 0.00000000 0.99950000
vn 0.99940000 0.00000000 -0.03600000
vn 0.00000000 -1.00000000 0.00000000
vn 0.03120000 0.00000000 0.99950000
vn 0.99940000 0.00000000 -0.03600000
vn 0.00000000 1.00000000 -0.00030000
vn 0.00000000 -1.00000000 0.00000000
vn 0.99940000 0.00000000 -0.03600000
vn 0.00000000 1.00000000 0.00000000
vn 0.99940000 0.00000000 -0.03600000
vn 0.00000000 1.00000000 -0.00030000
vn 0.00000000 -1.00000000 0.00000000
vn -0.03600000 0.00000000 -0.99940000
vn -0.99940000 0.00000000 0.03560000
vn 0.00000000 1.00000000 0.00000000
vn -0.03600000 0.00000000 -0.99940000
vn -0.99940000 0.00000000 0.03560000
vn 0.00000000 -1.00000000 0.00000000
vn -0.03600000 0.00000000 -0.99940000
vn 0.99930000 0.00000000 -0.03680000
vn 0.99930000 0.00000000 -0.03680000
vn -0.03600000 0.00000000 -0.99940000
vn 0.00000000 1.00000000 0.00000000
vn 0.00000000 -1.00000000 0.00000000
vn -0.03600000 0.00000000 -0.99940000
vn -0.03600000 0.00000000 -0.99940000
vn 0.00000000 -1.00000000 0.00000000
vn 0.00000000 -1.00000000 0.00000000
vn -0.03600000 0.00000000 -0.99940000
vn 0.00000000 1.00000000 0.00000000
vn -0.03600000 0.00000000 -0.99940000
vn 0.00000000 1.00000000 0.00000000
vn -0.03600000 0.00000000 -0.99940000
vn -0.03600000 0.00000000 -0.99940000
vn 0.00000000 1.00000000 0.00000000
vn -0.99940000 0.00000000 0.03600000
vn 0.03610000 0.00000000 0.99930000
vn 0.00000000 1.00000000 0.00000000
vn -0.99940000 0.00000000 0.03600000
vn 0.00000000 1.00000000 0.00000000
vn -0.03610000 0.00000000 -0.99930000
vn 0.00000000 1.00000000 0.00000000
vn -0.99940000 0.00000000 0.03600000
vn 0.00000000 1.00000000 0.00000000
vn 0.00000000 1.00000000 0.00000000
vn 0.03610000 0.00000000 0.99930000
vn 0.00000000 1.00000000 0.00000000
vn 0.99940000 0.00000000 -0.03600000
vn 0.99940000 0.00000000 -0.03600000
vn 0.00000000 1.00000000 0.00000000
vn -0.03610000 0.00000000 -0.99930000
vn 0.00000000 1.00000000 0.00000000
vn 0.99940000 0.00000000 -0.03600000
vn 0.00000000 1.00000000 0.00000000
vn 0.00000000 1.00000000 0.00000000
vn 0.00000000 1.00000000 0.00000000
vn 0.00000000 1.00000000 0.00000000
vn 0.00000000 1.00000000 0.00000000
vn 0.00000000 1.00000000 0.00000000
vn -0.03610000 0.00000000 -0.99930000
vn -0.03610000 0.00000000 -0.99930000
vn 0.00000000 1.00000000 0.00000000
vn -0.03610000 0.00000000 -0.99930000
vn 0.00000000 1.00000000 0.00000000
vn 0.00000000 1.00000000 0.00000000
vn 0.00000000 1.00000000 0.00000000
vn 0.00000000 1.00000000 0.00000000
vn 0.00000000 1.00000000 0.00000000
vn 0.00000000 1.00000000 0.00000000
vn 0.00000000 1.00000000 0.00000000
vn 0.03610000 0.00000000 0.99930000
vn 0.03610000 0.00000000 0.99930000
vn 0.00000000 1.00000000 0.00000000
vn 0.00000000 1.00000000 0.00000000
vn 0.03610000 0.00000000 0.99930000
vn 0.03620000 0.00000000 0.99930000
vn 0.00000000 -1.00000000 0.00000000
vn -0.99940000 0.00000000 0.03600000
vn -0.99940000 0.00000000 0.03600000
vn 0.00000000 -1.00000000 0.00000000
vn -0.99940000 0.00000000 0.03600000
vn -0.03620000 0.00000000 -0.99930000
vn 0.00000000 -1.00000000 0.00000000
vn 0.00000000 -1.00000000 0.00000000
vn 0.00000000 -1.00000000 0.00000000
vn 0.99940000 0.00000000 -0.03600000
vn 0.03620000 0.00000000 0.99930000
vn 0.00000000 -1.00000000 0.00000000
vn -0.03620000 0.00000000 -0.99930000
vn 0.99940000 0.00000000 -0.03600000
vn 0.00000000 -1.00000000 0.00000000
vn 0.00000000 -1.00000000 0.00000000
vn 0.99940000 0.00000000 -0.03600000
vn 0.00000000 -1.00000000 0.00000000
vn 0.00000000 -1.00000000 0.00000000
vn 0.00000000 -1.00000000 0.00000000
vn 0.00000000 -1.00000000 0.00000000
vn 0.00000000 -1.00000000 0.00000000
vn 0.00000000 -1.00000000 0.00000000
vn -0.03620000 0.00000000 -0.99930000
vn 0.00000000 -1.00000000 0.00000000
vn -0.03620000 0.00000000 -0.99930000
vn 0.00000000 -1.00000000 0.00000000
vn -0.03620000 0.00000000 -0.99930000
vn 0.00000000 -1.00000000 0.00000000
vn 0.00000000 -1.00000000 0.00000000
vn 0.00000000 -1.00000000 0.00000000
vn 0.00000000 -1.00000000 0.00000000
vn 0.00000000 -1.00000000 0.00010000
vn 0.00000000 -1.00000000 0.00000000
vn 0.00000000 -1.00000000 0.00010000
vn 0.00000000 -1.00000000 0.00000000
vn 0.03620000 0.00000000 0.99930000
vn 0.00000000 -1.00000000 0.00010000
vn 0.00000000 -1.00000000 0.00000000
vn 0.03620000 0.00000000 0.99930000
vn 0.03620000 0.00000000 0.99930000
vn 0.00000000 -1.00000000 0.00000000
vt 0.11813600 0.00000000
vt 0.11813600 0.00000000
vt 0.11813600 0.00000000
vt 0.11813600 0.05906800
vt 0.11813600 0.05906800
vt 0.11813600 0.05906800
vt 0.24411700 0.00000000
vt 0.24411700 0.00000000
vt 0.24411700 0.00000000
vt 0.24411700 0.05906800
vt 0.24411700 0.05906800
vt 0.24411700 0.05906800
vt 0.18112600 0.00000000
vt 0.18112600 0.00000000
vt 0.18112600 0.05906800
vt 0.18112600 0.05906800
vt 0.18112600 0.05906800
vt 0.11667100 0.00000000
vt 0.11667100 0.00000000
vt 0.11667100 0.00000000
vt 0.05906800 0.00000000
vt 0.05906800 0.00000000
vt 0.05906800 0.00000000
vt 0.11667100 0.88039900
vt 0.11667100 0.88039900
vt 0.11667100 0.88039900
vt 0.05906800 0.88039900
vt 0.05906800 0.88039900
vt 0.05906800 0.88039900
vt 0.11667100 0.22010000
vt 0.11667100 0.22010000
vt 0.11667100 0.44020000
vt 0.11667100 0.44020000
vt 0.11667100 0.66029900
vt 0.11667100 0.66029900
vt 0.05906800 0.66029900
vt 0.05906800 0.66029900
vt 0.05906800 0.44020000
vt 0.05906800 0.44020000
vt 0.05906800 0.22010000
vt 0.05906800 0.22010000
vt 0.11813600 0.14074700
vt 0.11813600 0.14074700
vt 0.11813600 0.14074700
vt 0.11813600 0.19981500
vt 0.11813600 0.19981500
vt 0.11813600 0.19981500
vt 0.24411700 0.14074700
vt 0.24411700 0.14074700
vt 0.24411700 0.14074700
vt 0.24411700 0.19981500
vt 0.24411700 0.19981500
vt 0.24411700 0.19981500
vt 0.18112600 0.14074700
vt 0.18112600 0.14074700
vt 0.18112600 0.19981500
vt 0.18112600 0.19981500
vt 0.18112600 0.19981500
vt 0.05760300 0.00000000
vt 0.05760300 0.00000000
vt 0.05760300 0.00000000
vt 0.00000000 0.00000000
vt 0.00000000 0.00000000
vt 0.00000000 0.00000000
vt 0.05760300 0.88039900
vt 0.05760300 0.88039900
vt 0.05760300 0.88039900
vt 0.00000000 0.88039900
vt 0.00000000 0.88039900
vt 0.00000000 0.88039900
vt 0.05760300 0.22010000
vt 0.05760300 0.22010000
vt 0.05760300 0.44020000
vt 0.05760300 0.44020000
vt 0.05760300 0.66029900
vt 0.05760300 0.66029900
vt 0.00000000 0.66029900
vt 0.00000000 0.66029900
vt 0.00000000 0.44020000
vt 0.00000000 0.44020000
vt 0.00000000 0.22010000
vt 0.00000000 0.22010000
vt 0.11813600 0.58167900
vt 0.11813600 0.58167900
vt 0.11813600 0.58167900
vt 0.11813600 0.64466900
vt 0.11813600 0.64466900
vt 0.11813600 0.70765900
vt 0.11813600 0.70765900
vt 0.11813600 0.70765900
vt 0.41160200 0.64466900
vt 0.70506900 0.64466900
vt 0.99853500 0.58167900
vt 0.99853500 0.58167900
vt 0.99853500 0.58167900
vt 0.99853500 0.70765900
vt 0.99853500 0.70765900
vt 0.99853500 0.70765900
vt 0.99853500 0.64466900
vt 0.99853500 0.64466900
vt 0.85180200 0.64466900
vt 0.70506900 0.61317400
vt 0.85180200 0.61317400
vt 0.70506900 0.67616400
vt 0.85180200 0.67616400
vt 0.77843500 0.70765900
vt 0.77843500 0.70765900
vt 0.55833600 0.70765900
vt 0.55833600 0.70765900
vt 0.33823600 0.70765900
vt 0.33823600 0.70765900
vt 0.41160200 0.67616400
vt 0.26486900 0.64466900
vt 0.26486900 0.67616400
vt 0.41160200 0.61317400
vt 0.26486900 0.61317400
vt 0.33823600 0.58167900
vt 0.33823600 0.58167900
vt 0.55833600 0.58167900
vt 0.55833600 0.58167900
vt 0.77843500 0.58167900
vt 0.77843500 0.58167900
vt 0.11813600 0.28149300
vt 0.11813600 0.28149300
vt 0.11813600 0.28149300
vt 0.11813600 0.34448400
vt 0.11813600 0.34448400
vt 0.11813600 0.40747400
vt 0.11813600 0.40747400
vt 0.11813600 0.40747400
vt 0.41160200 0.34448400
vt 0.70506900 0.34448400
vt 0.99853500 0.28149300
vt 0.99853500 0.28149300
vt 0.99853500 0.28149300
vt 0.99853500 0.40747400
vt 0.99853500 0.40747400
vt 0.99853500 0.40747400
vt 0.99853500 0.34448400
vt 0.99853500 0.34448400
vt 0.85180200 0.34448400
vt 0.70506900 0.31298800
vt 0.85180200 0.31298800
vt 0.70506900 0.37597900
vt 0.85180200 0.37597900
vt 0.77843500 0.40747400
vt 0.77843500 0.40747400
vt 0.55833600 0.40747400
vt 0.55833600 0.40747400
vt 0.33823600 0.40747400
vt 0.33823600 0.40747400
vt 0.41160200 0.37597900
vt 0.26486900 0.34448400
vt 0.26486900 0.37597900
vt 0.41160200 0.31298800
vt 0.26486900 0.31298800
vt 0.33823600 0.28149300
vt 0.33823600 0.28149300
vt 0.55833600 0.28149300
vt 0.55833600 0.28149300
vt 0.77843500 0.28149300
vt 0.77843500 0.28149300
vt 0.11813600 0.00000000
vt 0.11813600 0.00000000
vt 0.11813600 0.00000000
vt 0.11813600 0.05906800
vt 0.11813600 0.05906800
vt 0.11813600 0.05906800
vt 0.24411700 0.00000000
vt 0.24411700 0.00000000
vt 0.24411700 0.00000000
vt 0.24411700 0.05906800
vt 0.24411700 0.05906800
vt 0.24411700 0.05906800
vt 0.18112600 0.00000000
vt 0.18112600 0.00000000
vt 0.18112600 0.05906800
vt 0.18112600 0.05906800
vt 0.18112600 0.05906800
vt 0.11667100 0.00000000
vt 0.11667100 0.00000000
vt 0.11667100 0.00000000
vt 0.05906800 0.00000000
vt 0.05906800 0.00000000
vt 0.05906800 0.00000000
vt 0.11667100 0.88039900
vt 0.11667100 0.88039900
vt 0.11667100 0.88039900
vt 0.05906800 0.88039900
vt 0.05906800 0.88039900
vt 0.05906800 0.88039900
vt 0.11667100 0.22010000
vt 0.11667100 0.22010000
vt 0.11667100 0.44020000
vt 0.11667100 0.44020000
vt 0.11667100 0.66029900
vt 0.11667100 0.66029900
vt 0.05906800 0.66029900
vt 0.05906800 0.66029900
vt 0.05906800 0.44020000
vt 0.05906800 0.44020000
vt 0.05906800 0.22010000
vt 0.05906800 0.22010000
vt 0.11813600 0.14074700
vt 0.11813600 0.14074700
vt 0.11813600 0.14074700
vt 0.11813600 0.19981500
vt 0.11813600 0.19981500
vt 0.11813600 0.19981500
vt 0.24411700 0.14074700
vt 0.24411700 0.14074700
vt 0.24411700 0.14074700
vt 0.24411700 0.19981500
vt 0.24411700 0.19981500
vt 0.24411700 0.19981500
vt 0.18112600 0.14074700
vt 0.18112600 0.14074700
vt 0.18112600 0.19981500
vt 0.18112600 0.19981500
vt 0.18112600 0.19981500
vt 0.05760300 0.00000000
vt 0.05760300 0.00000000
vt 0.05760300 0.00000000
vt 0.00000000 0.00000000
vt 0.00000000 0.00000000
vt 0.00000000 0.00000000
vt 0.05760300 0.88039900
vt 0.05760300 0.88039900
vt 0.05760300 0.88039900
vt 0.00000000 0.88039900
vt 0.00000000 0.88039900
vt 0.00000000 0.88039900
vt 0.05760300 0.22010000
vt 0.05760300 0.22010000
vt 0.05760300 0.44020000
vt 0.05760300 0.44020000
vt 0.05760300 0.66029900
vt 0.05760300 0.66029900
vt 0.00000000 0.66029900
vt 0.00000000 0.66029900
vt 0.00000000 0.44020000
vt 0.00000000 0.44020000
vt 0.00000000 0.22010000
vt 0.00000000 0.22010000
vt 0.11813600 0.58167900
vt 0.11813600 0.58167900
vt 0.11813600 0.58167900
vt 0.11813600 0.64466900
vt 0.11813600 0.64466900
vt 0.11813600 0.70765900
vt 0.11813600 0.70765900
vt 0.11813600 0.70765900
vt 0.41160200 0.64466900
vt 0.70506900 0.64466900
vt 0.99853500 0.58167900
vt 0.99853500 0.58167900
vt 0.99853500 0.58167900
vt 0.99853500 0.70765900
vt 0.99853500 0.70765900
vt 0.99853500 0.70765900
vt 0.99853500 0.64466900
vt 0.99853500 0.64466900
vt 0.85180200 0.64466900
vt 0.70506900 0.61317400
vt 0.85180200 0.61317400
vt 0.70506900 0.67616400
vt 0.85180200 0.67616400
vt 0.77843500 0.70765900
vt 0.77843500 0.70765900
vt 0.55833600 0.70765900
vt 0.55833600 0.70765900
vt 0.33823600 0.70765900
vt 0.33823600 0.70765900
vt 0.41160200 0.67616400
vt 0.26486900 0.64466900
vt 0.26486900 0.67616400
vt 0.41160200 0.61317400
vt 0.26486900 0.61317400
vt 0.33823600 0.58167900
vt 0.33823600 0.58167900
vt 0.55833600 0.58167900
vt 0.55833600 0.58167900
vt 0.77843500 0.58167900
vt 0.77843500 0.58167900
vt 0.11813600 0.28149300
vt 0.11813600 0.28149300
vt 0.11813600 0.28149300
vt 0.11813600 0.34448400
vt 0.11813600 0.34448400
vt 0.11813600 0.40747400
vt 0.11813600 0.40747400
vt 0.11813600 0.40747400
vt 0.41160200 0.34448400
vt 0.70506900 0.34448400
vt 0.99853500 0.28149300
vt 0.99853500 0.28149300
vt 0.99853500 0.28149300
vt 0.99853500 0.40747400
vt 0.99853500 0.40747400
vt 0.99853500 0.40747400
vt 0.99853500 0.34448400
vt 0.99853500 0.34448400
vt 0.85180200 0.34448400
vt 0.70506900 0.31298800
vt 0.85180200 0.31298800
vt 0.70506900 0.37597900
vt 0.85180200 0.37597900
vt 0.77843500 0.40747400
vt 0.77843500 0.40747400
vt 0.55833600 0.40747400
vt 0.55833600 0.40747400
vt 0.33823600 0.40747400
vt 0.33823600 0.40747400
vt 0.41160200 0.37597900
vt 0.26486900 0.34448400
vt 0.26486900 0.37597900
vt 0.41160200 0.31298800
vt 0.41160200 0.31298800
vt 0.26486900 0.31298800
vt 0.33823600 0.28149300
vt 0.33823600 0.28149300
vt 0.33823600 0.28149300
vt 0.55833600 0.28149300
vt 0.55833600 0.28149300
vt 0.55833600 0.28149300
vt 0.77843500 0.28149300
vt 0.77843500 0.28149300
f 6/6/6 2/2/2 13/13/13
f 8/8/8 12/12/12 17/17/17
f 31/31/31 41/41/41 22/22/22
f 41/41/41 31/31/31 33/33/33
f 25/25/25 27/27/27 36/36/36
f 34/34/34 36/36/36 38/38/38
f 46/46/46 42/42/42 54/54/54
f 49/49/49 52/52/52 58/58/58
f 72/72/72 81/81/81 64/64/64
f 81/81/81 72/72/72 73/73/73
f 66/66/66 69/69/69 77/77/77
f 76/76/76 77/77/77 80/80/80
f 91/91/91 115/115/115 116/116/116
f 112/112/112 91/91/91 114/114/114
f 101/101/101 103/103/103 102/102/102
f 105/105/105 101/101/101 92/92/92
f 87/87/87 116/116/116 85/85/85
f 118/118/118 85/85/85 116/116/116
f 116/116/116 87/87/87 113/113/113
f 115/115/115 119/119/119 118/118/118
f 91/91/91 92/92/92 115/115/115
f 116/116/116 115/115/115 118/118/118
f 88/88/88 114/114/114 87/87/87
f 110/110/110 114/114/114 88/88/88
f 110/110/110 112/112/112 114/114/114
f 112/112/112 104/104/104 92/92/92
f 109/109/109 112/112/112 110/110/110
f 119/119/119 115/115/115 102/102/102
f 119/119/119 102/102/102 121/121/121
f 121/121/121 102/102/102 103/103/103
f 100/100/100 94/94/94 103/103/103
f 121/121/121 103/103/103 94/94/94
f 100/100/100 103/103/103 101/101/101
f 107/107/107 104/104/104 109/109/109
f 104/104/104 112/112/112 109/109/109
f 105/105/105 104/104/104 107/107/107
f 101/101/101 105/105/105 100/100/100
f 96/96/96 100/100/100 105/105/105
f 107/107/107 96/96/96 105/105/105
f 131/131/131 153/153/153 156/156/156
f 152/152/152 154/154/154 131/131/131
f 141/141/141 132/132/132 142/142/142
f 145/145/145 144/144/144 132/132/132
f 127/127/127 124/124/124 156/156/156
f 158/158/158 156/156/156 124/124/124
f 156/156/156 153/153/153 127/127/127
f 155/155/155 158/158/158 160/160/160
f 131/131/131 155/155/155 132/132/132
f 156/156/156 158/158/158 155/155/155
f 128/128/128 127/127/127 154/154/154
f 150/150/150 128/128/128 154/154/154
f 150/150/150 154/154/154 152/152/152
f 152/152/152 131/131/131 132/132/132
f 148/148/148 150/150/150 152/152/152
f 160/160/160 142/142/142 155/155/155
f 160/160/160 162/162/162 142/142/142
f 162/162/162 143/143/143 142/142/142
f 139/139/139 143/143/143 133/133/133
f 162/162/162 133/133/133 143/143/143
f 139/139/139 141/141/141 143/143/143
f 147/147/147 148/148/148 144/144/144
f 144/144/144 148/148/148 152/152/152
f 145/145/145 147/147/147 144/144/144
f 141/141/141 139/139/139 145/145/145
f 136/136/136 145/145/145 139/139/139
f 147/147/147 145/145/145 136/136/136
f 6/6/6 13/13/13 17/17/17
f 8/8/8 17/17/17 13/13/13
f 31/31/31 22/22/22 20/20/20
f 41/41/41 33/33/33 38/38/38
f 25/25/25 36/36/36 34/34/34
f 34/34/34 38/38/38 33/33/33
f 46/46/46 54/54/54 58/58/58
f 49/49/49 58/58/58 54/54/54
f 72/72/72 64/64/64 61/61/61
f 81/81/81 73/73/73 80/80/80
f 66/66/66 77/77/77 76/76/76
f 76/76/76 80/80/80 73/73/73
f 91/91/91 116/116/116 113/113/113
f 91/91/91 113/113/113 114/114/114
f 101/101/101 102/102/102 92/92/92
f 105/105/105 92/92/92 104/104/104
f 92/92/92 102/102/102 115/115/115
f 114/114/114 113/113/113 87/87/87
f 112/112/112 92/92/92 91/91/91
f 131/131/131 156/156/156 155/155/155
f 154/154/154 153/153/153 131/131/131
f 141/141/141 142/142/142 143/143/143
f 145/145/145 132/132/132 141/141/141
f 155/155/155 142/142/142 132/132/132
f 127/127/127 153/153/153 154/154/154
f 152/152/152 132/132/132 144/144/144
f 168/168/168 176/176/176 165/165/165
f 171/171/171 179/179/179 174/174/174
f 192/192/192 184/184/184 203/203/203
f 203/203/203 195/195/195 192/192/192
f 188/188/188 199/199/199 189/189/189
f 197/197/197 201/201/201 199/199/199
f 208/208/208 217/217/217 205/205/205
f 211/211/211 219/219/219 214/214/214
f 234/234/234 225/225/225 243/243/243
f 243/243/243 235/235/235 234/234/234
f 228/228/228 240/240/240 231/231/231
f 238/238/238 242/242/242 240/240/240
f 253/253/253 278/278/278 277/277/277
f 274/274/274 276/276/276 253/253/253
f 263/263/263 264/264/264 265/265/265
f 267/267/267 254/254/254 263/263/263
f 249/249/249 247/247/247 278/278/278
f 279/279/279 278/278/278 247/247/247
f 278/278/278 275/275/275 249/249/249
f 277/277/277 279/279/279 282/282/282
f 253/253/253 277/277/277 254/254/254
f 278/278/278 279/279/279 277/277/277
f 251/251/251 249/249/249 276/276/276
f 273/273/273 251/251/251 276/276/276
f 273/273/273 276/276/276 274/274/274
f 274/274/274 254/254/254 266/266/266
f 271/271/271 273/273/273 274/274/274
f 282/282/282 264/264/264 277/277/277
f 282/282/282 283/283/283 264/264/264
f 283/283/283 265/265/265 264/264/264
f 261/261/261 265/265/265 256/256/256
f 283/283/283 256/256/256 265/265/265
f 261/261/261 263/263/263 265/265/265
f 268/268/268 271/271/271 266/266/266
f 266/266/266 271/271/271 274/274/274
f 267/267/267 268/268/268 266/266/266
f 263/263/263 261/261/261 267/267/267
f 259/259/259 267/267/267 261/261/261
f 268/268/268 267/267/267 259/259/259
f 293/293/293 319/319/319 315/315/315
f 314/314/314 293/293/293 316/316/316
f 303/303/303 304/304/304 294/294/294
f 307/307/307 294/294/294 306/306/306
f 289/289/289 319/319/319 286/286/286
f 321/321/321 286/286/286 319/319/319
f 319/319/319 289/289/289 315/315/315
f 318/318/318 323/323/323 320/320/320
f 293/293/293 294/294/294 317/317/317
f 319/319/319 317/317/317 321/321/321
f 292/292/292 316/316/316 289/289/289
f 312/312/312 316/316/316 292/292/292
f 312/312/312 314/314/314 316/316/316
f 314/314/314 294/294/294 293/293/293
f 310/310/310 314/314/314 312/312/312
f 324/324/324 317/317/317 304/304/304
f 324/324/324 304/304/304 327/327/327
f 327/327/327 304/304/304 305/305/305
f 301/301/301 297/297/297 305/305/305
f 327/327/327 305/305/305 297/297/297
f 301/301/301 305/305/305 303/303/303
f 308/308/308 306/306/306 310/310/310
f 306/306/306 314/314/314 310/310/310
f 307/307/307 306/306/306 308/308/308
f 303/303/303 307/307/307 301/301/301
f 300/300/300 301/301/301 307/307/307
f 308/308/308 300/300/300 307/307/307
f 168/168/168 179/179/179 176/176/176
f 171/171/171 176/176/176 179/179/179
f 192/192/192 182/182/182 184/184/184
f 203/203/203 201/201/201 195/195/195
f 188/188/188 197/197/197 199/199/199
f 197/197/197 195/195/195 201/201/201
f 208/208/208 219/219/219 217/217/217
f 211/211/211 217/217/217 219/219/219
f 234/234/234 222/222/222 225/225/225
f 243/243/243 242/242/242 235/235/235
f 228/228/228 238/238/238 240/240/240
f 238/238/238 235/235/235 242/242/242
f 253/253/253 275/275/275 278/278/278
f 253/253/253 276/276/276 275/275/275
f 263/263/263 254/254/254 264/264/264
f 267/267/267 266/266/266 254/254/254
f 254/254/254 277/277/277 264/264/264
f 276/276/276 249/249/249 275/275/275
f 274/274/274 253/253/253 254/254/254
f 293/293/293 317/317/317 319/319/319
f 316/316/316 293/293/293 315/315/315
f 303/303/303 305/305/305 304/304/304
f 307/307/307 303/303/303 294/294/294
f 317/317/317 294/294/294 304/304/304
f 289/289/289 316/316/316 315/315/315
f 314/314/314 306/306/306 294/294/294
f 3/3/3 4/4/4 167/167/167
f 167/167/167 164/164/164 3/3/3
f 11/11/11 9/9/9 169/169/169
f 169/169/169 172/172/172 11/11/11
f 14/14/14 1/1/1 163/163/163
f 163/163/163 175/175/175 14/14/14
f 18/18/18 23/23/23 185/185/185
f 185/185/185 181/181/181 18/18/18
f 29/29/29 24/24/24 186/186/186
f 186/186/186 191/191/191 29/29/29
f 30/30/30 19/19/19 180/180/180
f 180/180/180 193/193/193 30/30/30
f 32/32/32 30/30/30 193/193/193
f 193/193/193 194/194/194 32/32/32
f 43/43/43 47/47/47 209/209/209
f 209/209/209 204/204/204 43/43/43
f 51/51/51 50/50/50 210/210/210
f 210/210/210 213/213/213 51/51/51
f 55/55/55 44/44/44 206/206/206
f 206/206/206 216/216/216 55/55/55
f 60/60/60 62/62/62 226/226/226
f 226/226/226 223/223/223 60/60/60
f 68/68/68 67/67/67 229/229/229
f 229/229/229 230/230/230 68/68/68
f 71/71/71 59/59/59 221/221/221
f 221/221/221 233/233/233 71/71/71
f 74/74/74 71/71/71 233/233/233
f 233/233/233 236/236/236 74/74/74
f 65/65/65 75/75/75 237/237/237
f 237/237/237 227/227/227 65/65/65
f 86/86/86 83/83/83 245/245/245
f 245/245/245 248/248/248 86/86/86
f 7/7/7 14/14/14 175/175/175
f 175/175/175 170/170/170 7/7/7
f 99/99/99 97/97/97 258/258/258
f 258/258/258 262/262/262 99/99/99
f 111/111/111 89/89/89 250/250/250
f 250/250/250 272/272/272 111/111/111
f 120/120/120 122/122/122 284/284/284
f 284/284/284 281/281/281 120/120/120
f 125/125/125 126/126/126 288/288/288
f 288/288/288 287/287/287 125/125/125
f 138/138/138 140/140/140 302/302/302
f 302/302/302 299/299/299 138/138/138
f 84/84/84 117/117/117 280/280/280
f 280/280/280 246/246/246 84/84/84
f 161/161/161 159/159/159 325/325/325
f 325/325/325 326/326/326 161/161/161
f 108/108/108 111/111/111 272/272/272
f 272/272/272 270/270/270 108/108/108
f 157/157/157 123/123/123 285/285/285
f 285/285/285 322/322/322 157/157/157
f 98/98/98 106/106/106 269/269/269
f 269/269/269 260/260/260 98/98/98
f 135/135/135 161/161/161 326/326/326
f 326/326/326 296/296/296 135/135/135
f 26/26/26 35/35/35 196/196/196
f 196/196/196 187/187/187 26/26/26
f 146/146/146 137/137/137 298/298/298
f 298/298/298 309/309/309 146/146/146
f 130/130/130 151/151/151 313/313/313
f 313/313/313 291/291/291 130/130/130
f 40/40/40 39/39/39 200/200/200
f 200/200/200 202/202/202 40/40/40
f 159/159/159 157/157/157 322/322/322
f 322/322/322 325/325/325 159/159/159
f 48/48/48 55/55/55 216/216/216
f 216/216/216 212/212/212 48/48/48
f 15/15/15 10/10/10 173/173/173
f 173/173/173 177/177/177 15/15/15
f 37/37/37 28/28/28 190/190/190
f 190/190/190 198/198/198 37/37/37
f 39/39/39 37/37/37 198/198/198
f 198/198/198 200/200/200 39/39/39
f 21/21/21 40/40/40 202/202/202
f 202/202/202 183/183/183 21/21/21
f 57/57/57 53/53/53 215/215/215
f 215/215/215 220/220/220 57/57/57
f 75/75/75 74/74/74 236/236/236
f 236/236/236 237/237/237 75/75/75
f 78/78/78 70/70/70 232/232/232
f 232/232/232 239/239/239 78/78/78
f 79/79/79 78/78/78 239/239/239
f 239/239/239 241/241/241 79/79/79
f 63/63/63 82/82/82 244/244/244
f 244/244/244 224/224/224 63/63/63
f 90/90/90 86/86/86 248/248/248
f 248/248/248 252/252/252 90/90/90
f 95/95/95 99/99/99 262/262/262
f 262/262/262 257/257/257 95/95/95
f 106/106/106 108/108/108 270/270/270
f 270/270/270 269/269/269 106/106/106
f 126/126/126 129/129/129 290/290/290
f 290/290/290 288/288/288 126/126/126
f 122/122/122 93/93/93 255/255/255
f 255/255/255 284/284/284 122/122/122
f 140/140/140 134/134/134 295/295/295
f 295/295/295 302/302/302 140/140/140
f 149/149/149 146/146/146 309/309/309
f 309/309/309 311/311/311 149/149/149
f 82/82/82 79/79/79 241/241/241
f 241/241/241 244/244/244 82/82/82
f 35/35/35 32/32/32 194/194/194
f 194/194/194 196/196/196 35/35/35
f 151/151/151 149/149/149 311/311/311
f 311/311/311 313/313/313 151/151/151
f 5/5/5 16/16/16 178/178/178
f 178/178/178 166/166/166 5/5/5
f 117/117/117 120/120/120 281/281/281
f 281/281/281 280/280/280 117/117/117
f 45/45/45 56/56/56 218/218/218
f 218/218/218 207/207/207 45/45/45

