mtllib material.mtl
usemtl Material-7011油漆.017
v -0.02106300 0.12560900 -0.03832200
v -0.02106300 0.12560900 -0.03832200
v -0.02106300 0.12560900 -0.03832200
v -0.02108100 0.12492700 -0.03838200
v -0.02108100 0.12492700 -0.03838200
v -0.02108100 0.12492700 -0.03838200
v -0.02012500 0.12526200 -0.04009600
v -0.02012500 0.12526200 -0.04009600
v -0.02012500 0.12526200 -0.04009600
v -0.01385900 0.12512100 -0.04300400
v -0.01385900 0.12512100 -0.04300400
v -0.01385900 0.12512100 -0.04300400
v -0.01383900 0.12563200 -0.04261700
v -0.01383900 0.12563200 -0.04261700
v -0.01383900 0.12563200 -0.04261700
v -0.02012600 0.12526200 -0.04009600
v -0.02012600 0.12526200 -0.04009600
v -0.02012600 0.12526200 -0.04009600
v -0.02108200 0.12492700 -0.03838200
v -0.02108200 0.12492700 -0.03838200
v -0.02108200 0.12492700 -0.03838200
v -0.02106400 0.12560900 -0.03832200
v -0.02106400 0.12560900 -0.03832200
v -0.02106400 0.12560900 -0.03832200
v -0.02129200 0.12532000 -0.04175600
v -0.02129200 0.12532000 -0.04175600
v -0.02129200 0.12532000 -0.04175600
v -0.02106400 0.12560900 -0.03832300
v -0.02106400 0.12560900 -0.03832300
v -0.02106400 0.12560900 -0.03832300
v -0.02108200 0.12492700 -0.03838300
v -0.02108200 0.12492700 -0.03838300
v -0.02108200 0.12492700 -0.03838300
v -0.02525900 0.12528200 -0.03823400
v -0.02525900 0.12528200 -0.03823400
v -0.02525900 0.12528200 -0.03823400
v -0.01364200 0.12493200 -0.03715700
v -0.01364200 0.12493200 -0.03715700
v -0.01364200 0.12493200 -0.03715700
v -0.01364200 0.12563200 -0.03715700
v -0.01364200 0.12563200 -0.03715700
v -0.01364200 0.12563200 -0.03715700
v -0.02669700 0.12563200 -0.03668700
v -0.02669700 0.12563200 -0.03668700
v -0.02669700 0.12563200 -0.03668700
v -0.01364200 0.12563200 -0.03715800
v -0.01364200 0.12563200 -0.03715800
v -0.01364200 0.12563200 -0.03715800
v -0.01364200 0.12493200 -0.03715800
v -0.01364200 0.12493200 -0.03715800
v -0.01364200 0.12493200 -0.03715800
v -0.01369500 0.12525500 -0.03865000
v -0.01369500 0.12525500 -0.03865000
v -0.01369500 0.12525500 -0.03865000
v -0.02108200 0.12492600 -0.03838200
v -0.02108200 0.12492600 -0.03838200
v -0.02108200 0.12492600 -0.03838200
v -0.02108200 0.12492600 -0.03838200
v -0.02108200 0.12492600 -0.03838200
v -0.02669700 0.12493100 -0.03668800
v -0.02669700 0.12493100 -0.03668800
v -0.02669700 0.12493100 -0.03668800
v -0.02525900 0.12528100 -0.03823300
v -0.02525900 0.12528100 -0.03823300
v -0.02525900 0.12528100 -0.03823300
v -0.02129100 0.12532000 -0.04175600
v -0.02129100 0.12532000 -0.04175600
v -0.02129100 0.12532000 -0.04175600
v -0.02012600 0.12526100 -0.04009600
v -0.02012600 0.12526100 -0.04009600
v -0.02012600 0.12526100 -0.04009600
v -0.01364200 0.12493100 -0.03715800
v -0.01364200 0.12493100 -0.03715800
v -0.01364200 0.12493100 -0.03715800
v -0.01369500 0.12525500 -0.03865000
v -0.01369500 0.12525500 -0.03865000
v -0.01369500 0.12525500 -0.03865000
v -0.01386000 0.12512100 -0.04300500
v -0.01386000 0.12512100 -0.04300500
v -0.01386000 0.12512100 -0.04300500
v -0.02106400 0.12560900 -0.03832200
v -0.02106400 0.12560900 -0.03832200
v -0.02106400 0.12560900 -0.03832200
v -0.02106400 0.12560900 -0.03832200
v -0.02106400 0.12560900 -0.03832200
v -0.02525900 0.12528200 -0.03823300
v -0.02525900 0.12528200 -0.03823300
v -0.02525900 0.12528200 -0.03823300
v -0.02669700 0.12563200 -0.03668800
v -0.02669700 0.12563200 -0.03668800
v -0.02669700 0.12563200 -0.03668800
v -0.02012600 0.12526200 -0.04009600
v -0.02012600 0.12526200 -0.04009600
v -0.02012600 0.12526200 -0.04009600
v -0.02012600 0.12526200 -0.04009600
v -0.02129100 0.12532100 -0.04175600
v -0.02129100 0.12532100 -0.04175600
v -0.02129100 0.12532100 -0.04175600
v -0.02129100 0.12532100 -0.04175600
v -0.02129100 0.12532100 -0.04175600
v -0.01364200 0.12563200 -0.03715800
v -0.01364200 0.12563200 -0.03715800
v -0.01364200 0.12563200 -0.03715800
v -0.01369500 0.12525600 -0.03865000
v -0.01369500 0.12525600 -0.03865000
v -0.01369500 0.12525600 -0.03865000
v -0.01386000 0.12512200 -0.04300500
v -0.01386000 0.12512200 -0.04300500
v -0.01386000 0.12512200 -0.04300500
v -0.01383900 0.12563200 -0.04261800
v -0.01383900 0.12563200 -0.04261800
v -0.01383900 0.12563200 -0.04261800
v -0.01383900 0.12563200 -0.04261800
v -0.02525900 0.12528200 -0.03823400
v -0.02525900 0.12528200 -0.03823400
v -0.02525900 0.12528200 -0.03823400
v -0.02669800 0.12493200 -0.03668800
v -0.02669800 0.12493200 -0.03668800
v -0.02669800 0.12493200 -0.03668800
v -0.02669800 0.12563200 -0.03668800
v -0.02669800 0.12563200 -0.03668800
v -0.02669800 0.12563200 -0.03668800
v -0.02669700 0.12493200 -0.03668700
v -0.02669700 0.12493200 -0.03668700
v -0.02669700 0.12493200 -0.03668700
v -0.01369500 0.12525500 -0.03865000
v -0.01369500 0.12525500 -0.03865000
v -0.01369500 0.12525500 -0.03865000
v -0.02108200 0.12492700 -0.03838300
v -0.02108200 0.12492700 -0.03838300
v -0.02108200 0.12492700 -0.03838300
v -0.02106400 0.12560900 -0.03832300
v -0.02106400 0.12560900 -0.03832300
v -0.02106400 0.12560900 -0.03832300
v -0.02106400 0.12560900 -0.03832200
v -0.02106400 0.12560900 -0.03832200
v -0.02106400 0.12560900 -0.03832200
v -0.02108200 0.12492700 -0.03838200
v -0.02108200 0.12492700 -0.03838200
v -0.02108200 0.12492700 -0.03838200
v -0.02012600 0.12526200 -0.04009600
v -0.02012600 0.12526200 -0.04009600
v -0.02012600 0.12526200 -0.04009600
v -0.01386000 0.12512200 -0.04300500
v -0.01386000 0.12512200 -0.04300500
v -0.01386000 0.12512200 -0.04300500
v -0.01383900 0.12563200 -0.04261800
v -0.01383900 0.12563200 -0.04261800
v -0.01383900 0.12563200 -0.04261800
v -0.02012600 0.12526200 -0.04009700
v -0.02012600 0.12526200 -0.04009700
v -0.02012600 0.12526200 -0.04009700
v -0.02108100 0.12492700 -0.03838200
v -0.02108100 0.12492700 -0.03838200
v -0.02108100 0.12492700 -0.03838200
v -0.02106300 0.12560900 -0.03832200
v -0.02106300 0.12560900 -0.03832200
v -0.02106300 0.12560900 -0.03832200
v -0.02129100 0.12532000 -0.04175600
v -0.02129100 0.12532000 -0.04175600
v -0.02129100 0.12532000 -0.04175600
v -0.02106400 0.12560900 -0.03832200
v -0.02106400 0.12560900 -0.03832200
v -0.02106400 0.12560900 -0.03832200
v -0.02108200 0.12492700 -0.03838200
v -0.02108200 0.12492700 -0.03838200
v -0.02108200 0.12492700 -0.03838200
v -0.02525900 0.12528200 -0.03823300
v -0.02525900 0.12528200 -0.03823300
v -0.02525900 0.12528200 -0.03823300
v -0.01364200 0.12493200 -0.03715800
v -0.01364200 0.12493200 -0.03715800
v -0.01364200 0.12493200 -0.03715800
v -0.01364200 0.12563200 -0.03715800
v -0.01364200 0.12563200 -0.03715800
v -0.01364200 0.12563200 -0.03715800
v -0.02669700 0.12563200 -0.03668800
v -0.02669700 0.12563200 -0.03668800
v -0.02669700 0.12563200 -0.03668800
v -0.01364300 0.12563200 -0.03715800
v -0.01364300 0.12563200 -0.03715800
v -0.01364300 0.12563200 -0.03715800
v -0.01364300 0.12493200 -0.03715800
v -0.01364300 0.12493200 -0.03715800
v -0.01364300 0.12493200 -0.03715800
v -0.01369600 0.12525500 -0.03865000
v -0.01369600 0.12525500 -0.03865000
v -0.01369600 0.12525500 -0.03865000
v -0.02108200 0.12492700 -0.03838200
v -0.02108200 0.12492700 -0.03838200
v -0.02108200 0.12492700 -0.03838200
v -0.02108200 0.12492700 -0.03838200
v -0.02108200 0.12492700 -0.03838200
v -0.02108200 0.12492700 -0.03838200
v -0.02108200 0.12492700 -0.03838200
v -0.02108200 0.12492700 -0.03838200
v -0.02669700 0.12493200 -0.03668700
v -0.02669700 0.12493200 -0.03668700
v -0.02669700 0.12493200 -0.03668700
v -0.02669700 0.12493200 -0.03668700
v -0.02525900 0.12528200 -0.03823300
v -0.02525900 0.12528200 -0.03823300
v -0.02525900 0.12528200 -0.03823300
v -0.02129200 0.12532100 -0.04175600
v -0.02129200 0.12532100 -0.04175600
v -0.02129200 0.12532100 -0.04175600
v -0.02129200 0.12532100 -0.04175600
v -0.02012600 0.12526200 -0.04009600
v -0.02012600 0.12526200 -0.04009600
v -0.02012600 0.12526200 -0.04009600
v -0.02012600 0.12526200 -0.04009600
v -0.01364200 0.12493200 -0.03715800
v -0.01364200 0.12493200 -0.03715800
v -0.01364200 0.12493200 -0.03715800
v -0.01364200 0.12493200 -0.03715800
v -0.01369500 0.12525600 -0.03865000
v -0.01369500 0.12525600 -0.03865000
v -0.01369500 0.12525600 -0.03865000
v -0.01385900 0.12512200 -0.04300500
v -0.01385900 0.12512200 -0.04300500
v -0.01385900 0.12512200 -0.04300500
v -0.02106400 0.12560800 -0.03832200
v -0.02106400 0.12560800 -0.03832200
v -0.02106400 0.12560800 -0.03832200
v -0.02106400 0.12560800 -0.03832200
v -0.02106400 0.12560800 -0.03832200
v -0.02106400 0.12560800 -0.03832200
v -0.02106400 0.12560800 -0.03832200
v -0.02106400 0.12560800 -0.03832200
v -0.02525900 0.12528100 -0.03823300
v -0.02525900 0.12528100 -0.03823300
v -0.02525900 0.12528100 -0.03823300
v -0.02669700 0.12563100 -0.03668700
v -0.02669700 0.12563100 -0.03668700
v -0.02669700 0.12563100 -0.03668700
v -0.02669700 0.12563100 -0.03668700
v -0.02012600 0.12526100 -0.04009600
v -0.02012600 0.12526100 -0.04009600
v -0.02012600 0.12526100 -0.04009600
v -0.02012600 0.12526100 -0.04009600
v -0.02129200 0.12532000 -0.04175600
v -0.02129200 0.12532000 -0.04175600
v -0.02129200 0.12532000 -0.04175600
v -0.02129200 0.12532000 -0.04175600
v -0.02129200 0.12532000 -0.04175600
v -0.01364200 0.12563100 -0.03715800
v -0.01364200 0.12563100 -0.03715800
v -0.01364200 0.12563100 -0.03715800
v -0.01364200 0.12563100 -0.03715800
v -0.01369500 0.12525500 -0.03865000
v -0.01369500 0.12525500 -0.03865000
v -0.01369500 0.12525500 -0.03865000
v -0.01385900 0.12512100 -0.04300400
v -0.01385900 0.12512100 -0.04300400
v -0.01385900 0.12512100 -0.04300400
v -0.01383900 0.12563100 -0.04261700
v -0.01383900 0.12563100 -0.04261700
v -0.01383900 0.12563100 -0.04261700
v -0.01383900 0.12563100 -0.04261700
v -0.02525900 0.12528200 -0.03823300
v -0.02525900 0.12528200 -0.03823300
v -0.02525900 0.12528200 -0.03823300
v -0.02669700 0.12493200 -0.03668700
v -0.02669700 0.12493200 -0.03668700
v -0.02669700 0.12493200 -0.03668700
v -0.02669700 0.12563200 -0.03668700
v -0.02669700 0.12563200 -0.03668700
v -0.02669700 0.12563200 -0.03668700
v -0.02669700 0.12493200 -0.03668800
v -0.02669700 0.12493200 -0.03668800
v -0.02669700 0.12493200 -0.03668800
v -0.01369500 0.12525500 -0.03864900
v -0.01369500 0.12525500 -0.03864900
v -0.01369500 0.12525500 -0.03864900
v -0.02108200 0.12492700 -0.03838200
v -0.02108200 0.12492700 -0.03838200
v -0.02108200 0.12492700 -0.03838200
v -0.02106400 0.12560900 -0.03832200
v -0.02106400 0.12560900 -0.03832200
v -0.02106400 0.12560900 -0.03832200
vn 0.99940000 -0.00000000 -0.03600000
vn -0.38250000 0.89800000 -0.21750000
vn -0.30310000 -0.55550000 0.77430000
vn -0.43840000 -0.81930000 -0.36960000
vn 0.99940000 -0.00000000 -0.03600000
vn -0.36920000 0.45170000 0.81220000
vn 0.99940000 -0.00000000 -0.03600000
vn 0.52590000 -0.81270000 -0.25090000
vn 0.58280000 0.76030000 -0.28690000
vn 0.57710000 0.40770000 -0.70760000
vn -0.70200000 -0.70090000 -0.12620000
vn 0.37340000 0.00000000 0.92770000
vn 0.68930000 0.66920000 0.27740000
vn 0.37340000 0.00000000 0.92770000
vn 0.96070000 -0.16670000 0.22200000
vn 0.37330000 0.00000000 0.92770000
vn 0.16010000 -0.97970000 -0.12030000
vn -0.43580000 0.74520000 0.50470000
vn -0.99940000 -0.00000000 0.03600000
vn 0.03820000 -0.06270000 0.99730000
vn 0.00600000 -0.99570000 -0.09220000
vn 0.08010000 -0.11810000 0.98980000
vn 0.03730000 0.99370000 -0.10560000
vn -0.99940000 -0.00000000 0.03600000
vn -0.99940000 -0.00000000 0.03600000
vn -0.02440000 0.99550000 -0.09200000
vn -0.03340000 -0.98860000 -0.14660000
vn -0.16300000 0.98250000 0.09060000
vn -0.03600000 0.00000000 -0.99940000
vn 0.99760000 -0.03770000 0.05730000
vn 0.99290000 -0.01360000 -0.11790000
vn 0.00130000 -0.99530000 -0.09730000
vn -0.03600000 0.00000000 -0.99940000
vn -0.04630000 0.99890000 -0.00100000
vn -0.03600000 0.00000000 -0.99940000
vn -0.16910000 -0.98360000 -0.06250000
vn 0.00000000 -1.00000000 0.00000000
vn 0.03600000 0.00000000 0.99940000
vn 0.99930000 0.00000000 -0.03630000
vn -0.00000000 1.00000000 0.00000000
vn 0.03600000 0.00000000 0.99940000
vn 0.99930000 0.00000000 -0.03630000
vn -0.99940000 0.00000000 0.03360000
vn -0.00000000 1.00000000 0.00000000
vn 0.03600000 0.00000000 0.99940000
vn 0.03640000 0.00000000 0.99930000
vn 0.99940000 0.00000000 -0.03550000
vn -0.00950000 0.96960000 -0.24450000
vn -0.00770000 -0.97730000 -0.21180000
vn 0.99940000 0.00000000 -0.03550000
vn 0.03640000 0.00000000 0.99930000
vn -0.00950000 0.96960000 -0.24450000
vn -0.00770000 -0.97730000 -0.21180000
vn 0.99940000 0.00000000 -0.03550000
vn 0.00000000 -1.00000000 0.00000000
vn 0.84540000 -0.17120000 0.50590000
vn -0.13670000 -0.10380000 -0.98520000
vn 0.03790000 -0.06410000 -0.99720000
vn -0.97130000 -0.08810000 0.22080000
vn 0.00000000 -1.00000000 0.00000000
vn -0.66180000 -0.06080000 -0.74720000
vn 0.03710000 -0.20080000 0.97890000
vn -0.82060000 0.41470000 -0.39330000
vn 0.00000000 -1.00000000 0.00000000
vn 0.24920000 0.35090000 -0.90260000
vn 0.00000000 -1.00000000 0.00000000
vn -0.99180000 0.11960000 -0.04520000
vn -0.13880000 0.05520000 -0.98880000
vn 0.39560000 -0.01810000 0.91830000
vn 0.83460000 0.16720000 0.52490000
vn 0.00000000 -1.00000000 0.00000000
vn 0.98240000 -0.16690000 -0.08400000
vn 0.00000000 -1.00000000 0.00000000
vn 0.03360000 -0.20080000 0.97900000
vn -0.25930000 0.16220000 -0.95210000
vn 0.00000000 -1.00000000 0.00000000
vn 0.96930000 0.23810000 0.06140000
vn -0.15880000 0.00230000 -0.98730000
vn 0.00000000 -1.00000000 0.00000000
vn 0.44900000 -0.04250000 0.89250000
vn 0.87330000 0.17790000 0.45350000
vn -0.12080000 0.10050000 -0.98760000
vn -0.96220000 0.05800000 0.26610000
vn -0.00000000 1.00000000 0.00000000
vn 0.04330000 0.07330000 -0.99640000
vn -0.00000000 1.00000000 0.00000000
vn -0.81520000 -0.40470000 -0.41440000
vn 0.25200000 -0.33660000 -0.90730000
vn -0.00000000 1.00000000 0.00000000
vn -0.66220000 0.05840000 -0.74700000
vn 0.02000000 0.20570000 0.97840000
vn -0.00000000 1.00000000 0.00000000
vn 0.36230000 0.37000000 0.85550000
vn 0.80500000 -0.20280000 0.55750000
vn 0.00010000 1.00000000 0.00000000
vn -0.00000000 1.00000000 0.00000000
vn -0.99040000 -0.09520000 -0.10020000
vn 0.00010000 1.00000000 0.00000000
vn 0.14730000 0.30620000 -0.94050000
vn -0.00000000 1.00000000 -0.00020000
vn -0.00000000 1.00000000 0.00000000
vn 0.04980000 0.20560000 0.97740000
vn 0.97580000 0.19710000 -0.09430000
vn 0.96050000 -0.26720000 0.07800000
vn -0.00000000 1.00000000 0.00000000
vn -0.30280000 -0.17730000 -0.93640000
vn 0.69020000 -0.49310000 0.52970000
vn -0.94240000 -0.13140000 -0.30760000
vn -0.00000000 1.00000000 -0.00030000
vn 0.50940000 0.56790000 -0.64660000
vn -0.00000000 1.00000000 0.00000000
vn 0.31600000 0.48630000 0.81460000
vn -0.00010000 1.00000000 -0.00020000
vn -0.73210000 0.00000000 -0.68120000
vn 0.11100000 -0.98710000 -0.11570000
vn 0.11100000 0.98630000 -0.12240000
vn -0.67870000 0.00000000 0.73440000
vn -0.73210000 0.00000000 -0.68120000
vn 0.11100000 -0.98710000 -0.11570000
vn -0.67870000 0.00000000 0.73440000
vn -0.73210000 0.00000000 -0.68120000
vn 0.11100000 0.98630000 -0.12240000
vn 0.00000000 -1.00000000 0.00000000
vn -0.99940000 0.00000000 0.03360000
vn 0.03600000 0.00000000 0.99940000
vn -0.03600000 0.00000000 -0.99940000
vn 0.01590000 0.99990000 0.00610000
vn 0.12430000 -0.99060000 -0.05750000
vn -0.03600000 0.00000000 -0.99940000
vn -0.99840000 0.03240000 -0.04640000
vn -0.04730000 -0.99560000 -0.08130000
vn 0.13980000 0.98620000 0.08900000
vn -0.99160000 0.00830000 0.12880000
vn -0.03600000 0.00000000 -0.99940000
vn -0.83420000 -0.44310000 -0.32820000
vn 0.22300000 0.77140000 -0.59600000
vn 0.02760000 0.04990000 0.99840000
vn -0.75500000 0.56220000 -0.33750000
vn 0.24290000 -0.75600000 -0.60780000
vn 0.03900000 -0.11570000 0.99250000
vn -0.07700000 -0.75750000 -0.64830000
vn -0.07840000 0.81540000 -0.57350000
vn -0.51390000 -0.00100000 -0.85780000
vn -0.81350000 0.41060000 -0.41190000
vn 0.05670000 -0.99770000 -0.03660000
vn 0.75910000 0.64870000 0.05460000
vn 0.27530000 0.57540000 -0.77010000
vn 0.77660000 0.62240000 0.09730000
vn -0.01880000 0.99920000 0.03550000
vn 0.16110000 0.98690000 -0.00520000
vn -0.41990000 -0.00090000 -0.90760000
vn -0.62970000 -0.77550000 -0.04500000
vn 0.00040000 -0.99000000 -0.14120000
vn 0.99920000 0.00340000 -0.03880000
vn 0.03440000 -0.11200000 0.99310000
vn -0.01200000 0.99370000 -0.11150000
vn 0.99520000 -0.04880000 -0.08490000
vn 0.03170000 -0.10840000 0.99360000
vn 0.01770000 0.99290000 -0.11800000
vn 0.99570000 0.00090000 -0.09220000
vn 0.01150000 -0.99200000 -0.12600000
vn 0.99290000 -0.11090000 -0.04400000
vn -0.05970000 -0.10050000 0.99310000
vn -0.08360000 0.99650000 -0.00510000
vn -0.08690000 -0.99620000 -0.00860000
vn 0.99300000 -0.11150000 -0.04000000
vn 0.11630000 -0.08950000 0.98920000
vn -0.15820000 0.98600000 0.05340000
vn -0.05420000 -0.99840000 -0.01530000
vn 0.02080000 0.00000000 0.99980000
vn -0.03600000 0.00000000 -0.99940000
vn 0.00000000 -1.00000000 0.00000000
vn 0.99930000 0.00000000 -0.03630000
vn -0.00000000 1.00000000 0.00000000
vn 0.99930000 0.00000000 -0.03630000
vn -0.03600000 0.00000000 -0.99940000
vn -0.00000000 1.00000000 0.00000000
vn -0.99940000 0.00000000 0.03360000
vn -0.03600000 0.00000000 -0.99940000
vn -0.99940000 0.00000000 0.03550000
vn 0.03640000 0.00000000 0.99930000
vn -0.00950000 0.96960000 -0.24450000
vn -0.00770000 -0.97730000 -0.21180000
vn 0.03640000 0.00000000 0.99930000
vn -0.99940000 0.00000000 0.03550000
vn -0.00950000 0.96960000 -0.24450000
vn -0.00770000 -0.97730000 -0.21180000
vn -0.99940000 0.00000000 0.03550000
vn 0.08510000 0.99630000 -0.01410000
vn -0.98180000 0.14020000 0.12850000
vn -0.24690000 0.04820000 -0.96780000
vn 0.28680000 0.05870000 -0.95620000
vn -0.00050000 1.00000000 -0.00700000
vn -0.04520000 0.99900000 -0.00290000
vn 0.77860000 0.03820000 0.62640000
vn -0.06450000 0.95620000 0.28540000
vn -0.91010000 0.08850000 -0.40480000
vn -0.14310000 0.98570000 0.08880000
vn 0.00090000 1.00000000 -0.00020000
vn 0.03220000 -0.19950000 0.97940000
vn -0.87210000 -0.01600000 -0.48910000
vn 0.25190000 0.80690000 0.53430000
vn 0.15170000 -0.07420000 -0.98560000
vn 0.04960000 0.98870000 0.14120000
vn -0.14330000 0.00940000 -0.98960000
vn 0.06010000 0.99790000 0.02510000
vn -0.97580000 0.07760000 0.20450000
vn -0.25990000 0.96560000 0.01060000
vn 0.43810000 -0.00960000 0.89890000
vn -0.00340000 0.99990000 0.01260000
vn 0.78310000 -0.06470000 0.61850000
vn -0.00070000 1.00000000 -0.00000000
vn 0.18070000 0.96270000 0.20150000
vn 0.98310000 -0.01520000 0.18250000
vn 0.03840000 -0.19940000 0.97920000
vn -0.07370000 -0.07700000 -0.99430000
vn 0.98410000 -0.04580000 0.17140000
vn -0.24440000 0.93500000 0.25680000
vn -0.13190000 0.03960000 -0.99050000
vn 0.04500000 0.99890000 -0.01390000
vn 0.42660000 -0.00400000 0.90440000
vn 0.07350000 -0.99720000 -0.01130000
vn 0.00200000 -0.99950000 0.03210000
vn -0.04500000 -0.99900000 -0.00250000
vn -0.28620000 -0.04810000 -0.95700000
vn -0.05410000 -0.96520000 0.25600000
vn 0.76260000 -0.01830000 0.64660000
vn -0.98080000 -0.17270000 0.09070000
vn 0.28640000 -0.05630000 -0.95640000
vn 0.15690000 0.07230000 -0.98500000
vn 0.23910000 -0.82240000 0.51630000
vn -0.86590000 0.01160000 -0.50010000
vn -0.14800000 -0.98480000 0.09070000
vn 0.04060000 0.19680000 0.97960000
vn -0.00390000 -1.00000000 0.00060000
vn -0.90160000 -0.09040000 -0.42300000
vn 0.35610000 0.46070000 0.81290000
vn -0.37000000 -0.92890000 0.01900000
vn 0.03800000 -0.99100000 -0.12810000
vn 0.78510000 0.08950000 0.61280000
vn 0.01500000 -0.99990000 -0.00250000
vn -0.87250000 0.13780000 -0.46890000
vn -0.97270000 -0.12760000 0.19400000
vn 0.01900000 -0.99840000 0.05380000
vn 0.01360000 -0.99990000 0.00620000
vn 0.00310000 -1.00000000 0.00020000
vn 0.97630000 0.02640000 0.21490000
vn 0.02920000 0.19680000 0.98000000
vn 0.21370000 -0.94820000 0.23500000
vn -0.27620000 -0.91610000 0.29050000
vn 0.97750000 0.06110000 0.20180000
vn -0.08220000 0.09050000 -0.99250000
vn -0.72000000 -0.37960000 0.58100000
vn -0.10880000 0.34390000 -0.93270000
vn 0.62990000 0.63390000 0.44880000
vn 0.63730000 0.58990000 0.49580000
vn 0.86190000 -0.29560000 0.41200000
vn 0.09390000 -0.99530000 -0.02370000
vn 0.38660000 0.41490000 0.82370000
vn 0.11100000 0.98630000 -0.12240000
vn 0.73210000 0.00000000 0.68120000
vn 0.11100000 -0.98710000 -0.11570000
vn 0.11100000 -0.98710000 -0.11570000
vn 0.73210000 0.00000000 0.68120000
vn -0.67870000 0.00000000 0.73440000
vn 0.73210000 0.00000000 0.68120000
vn -0.67870000 0.00000000 0.73440000
vn 0.11100000 0.98630000 -0.12240000
vn -0.99940000 0.00000000 0.03360000
vn 0.00000000 -1.00000000 0.00000000
vn -0.03600000 0.00000000 -0.99940000
vn 0.01190000 -0.99990000 -0.00330000
vn 0.13230000 0.98990000 0.05090000
vn 0.04460000 -0.00000000 0.99900000
vn -0.99740000 -0.06550000 0.03150000
vn -0.04860000 -0.08590000 0.99510000
vn 0.04650000 -0.99890000 0.00150000
vn 0.05410000 0.99850000 -0.00140000
vn 0.12760000 -0.09840000 0.98690000
vn -0.99750000 -0.06500000 0.02750000
vt 0.67522300 0.99269800
vt 0.67522300 0.99269800
vt 0.67522300 0.99269800
vt 0.67613600 0.98181000
vt 0.67613600 0.98181000
vt 0.67613600 0.98181000
vt 0.68501800 0.98935900
vt 0.68501800 0.98935900
vt 0.68501800 0.98935900
vt 0.72230300 0.98683400
vt 0.72230300 0.98683400
vt 0.72230300 0.98683400
vt 0.72162600 1.00000000
vt 0.72162600 1.00000000
vt 0.72162600 1.00000000
vt 0.68505800 0.99045800
vt 0.68505800 0.99045800
vt 0.68505800 0.99045800
vt 0.85579500 0.98180200
vt 0.85579500 0.98180200
vt 0.85579500 0.98180200
vt 0.85626500 0.99545700
vt 0.85626500 0.99545700
vt 0.85626500 0.99545700
vt 0.83792000 0.99181200
vt 0.83792000 0.99181200
vt 0.83792000 0.99181200
vt 0.85310300 0.99940200
vt 0.85310300 0.99940200
vt 0.85310300 0.99940200
vt 0.85318800 0.98181000
vt 0.85318800 0.98181000
vt 0.85318800 0.98181000
vt 0.87575600 0.99097300
vt 0.87575600 0.99097300
vt 0.87575600 0.99097300
vt 0.95768300 0.98194500
vt 0.95768300 0.98194500
vt 0.95768300 0.98194500
vt 0.95768300 1.00000000
vt 0.95768300 1.00000000
vt 0.95768300 1.00000000
vt 0.88715500 1.00000000
vt 0.88715500 1.00000000
vt 0.88715500 1.00000000
vt 0.95768300 1.00000000
vt 0.95768300 1.00000000
vt 0.95768300 1.00000000
vt 0.95768300 0.98194500
vt 0.95768300 0.98194500
vt 0.95768300 0.98194500
vt 0.96574200 0.99028600
vt 0.96574200 0.99028600
vt 0.96574200 0.99028600
vt 0.01435900 0.03849500
vt 0.01435900 0.03849500
vt 0.01435900 0.03849500
vt 0.01435900 0.03849500
vt 0.01435900 0.03849500
vt 0.00355400 0.00000000
vt 0.00355400 0.00000000
vt 0.00355400 0.00000000
vt 0.00639800 0.03850700
vt 0.00639800 0.03850700
vt 0.00639800 0.03850700
vt 0.01420200 0.12608600
vt 0.01420200 0.12608600
vt 0.01420200 0.12608600
vt 0.01628400 0.08208600
vt 0.01628400 0.08208600
vt 0.01628400 0.08208600
vt 0.02843500 0.00000000
vt 0.02843500 0.00000000
vt 0.02843500 0.00000000
vt 0.02843700 0.03850000
vt 0.02843700 0.03850000
vt 0.02843700 0.03850000
vt 0.02840900 0.15128000
vt 0.02840900 0.15128000
vt 0.02840900 0.15128000
vt 0.01439000 0.03709600
vt 0.01439000 0.03709600
vt 0.01439000 0.03709600
vt 0.01439000 0.03709600
vt 0.01439000 0.03709600
vt 0.00639800 0.03850700
vt 0.00639800 0.03850700
vt 0.00639800 0.03850700
vt 0.00355400 -0.00000000
vt 0.00355400 -0.00000000
vt 0.00355400 -0.00000000
vt 0.01629400 0.08175500
vt 0.01629400 0.08175500
vt 0.01629400 0.08175500
vt 0.01629400 0.08175500
vt 0.01421700 0.12551100
vt 0.01421700 0.12551100
vt 0.01421700 0.12551100
vt 0.01421700 0.12551100
vt 0.01421700 0.12551100
vt 0.02843500 0.00000000
vt 0.02843500 0.00000000
vt 0.02843500 0.00000000
vt 0.02843700 0.03850000
vt 0.02843700 0.03850000
vt 0.02843700 0.03850000
vt 0.02837800 0.15316400
vt 0.02837800 0.15316400
vt 0.02837800 0.15316400
vt 0.02843500 0.14089900
vt 0.02843500 0.14089900
vt 0.02843500 0.14089900
vt 0.02843500 0.14089900
vt 0.87575600 0.99097300
vt 0.87575600 0.99097300
vt 0.87575600 0.99097300
vt 0.88715500 0.98194500
vt 0.88715500 0.98194500
vt 0.88715500 0.98194500
vt 0.88715500 1.00000000
vt 0.88715500 1.00000000
vt 0.88715500 1.00000000
vt 0.88715500 0.98194500
vt 0.88715500 0.98194500
vt 0.88715500 0.98194500
vt 0.96573900 0.99028600
vt 0.96573900 0.99028600
vt 0.96573900 0.99028600
vt 1.00564300 0.98181000
vt 1.00564300 0.98181000
vt 1.00564300 0.98181000
vt 1.00555800 0.99940200
vt 1.00555800 0.99940200
vt 1.00555800 0.99940200
vt 0.67522300 0.99269800
vt 0.67522300 0.99269800
vt 0.67522300 0.99269800
vt 0.67613600 0.98181000
vt 0.67613600 0.98181000
vt 0.67613600 0.98181000
vt 0.68501800 0.98935900
vt 0.68501800 0.98935900
vt 0.68501800 0.98935900
vt 0.72230300 0.98683400
vt 0.72230300 0.98683400
vt 0.72230300 0.98683400
vt 0.72162600 1.00000000
vt 0.72162600 1.00000000
vt 0.72162600 1.00000000
vt 0.68505800 0.99045800
vt 0.68505800 0.99045800
vt 0.68505800 0.99045800
vt 0.85579500 0.98180200
vt 0.85579500 0.98180200
vt 0.85579500 0.98180200
vt 0.85626500 0.99545700
vt 0.85626500 0.99545700
vt 0.85626500 0.99545700
vt 0.83792000 0.99181200
vt 0.83792000 0.99181200
vt 0.83792000 0.99181200
vt 0.85310300 0.99940200
vt 0.85310300 0.99940200
vt 0.85310300 0.99940200
vt 0.85318800 0.98181000
vt 0.85318800 0.98181000
vt 0.85318800 0.98181000
vt 0.87575600 0.99097300
vt 0.87575600 0.99097300
vt 0.87575600 0.99097300
vt 0.95768300 0.98194500
vt 0.95768300 0.98194500
vt 0.95768300 0.98194500
vt 0.95768300 1.00000000
vt 0.95768300 1.00000000
vt 0.95768300 1.00000000
vt 0.88715500 1.00000000
vt 0.88715500 1.00000000
vt 0.88715500 1.00000000
vt 0.95768300 1.00000000
vt 0.95768300 1.00000000
vt 0.95768300 1.00000000
vt 0.95768300 0.98194500
vt 0.95768300 0.98194500
vt 0.95768300 0.98194500
vt 0.96574200 0.99028600
vt 0.96574200 0.99028600
vt 0.96574200 0.99028600
vt 0.01435900 0.03849500
vt 0.01435900 0.03849500
vt 0.01435900 0.03849500
vt 0.01435900 0.03849500
vt 0.01435900 0.03849500
vt 0.01435900 0.03849500
vt 0.01435900 0.03849500
vt 0.01435900 0.03849500
vt 0.00355400 0.00000000
vt 0.00355400 0.00000000
vt 0.00355400 0.00000000
vt 0.00355400 0.00000000
vt 0.00639800 0.03850700
vt 0.00639800 0.03850700
vt 0.00639800 0.03850700
vt 0.01420200 0.12608600
vt 0.01420200 0.12608600
vt 0.01420200 0.12608600
vt 0.01420200 0.12608600
vt 0.01628400 0.08208600
vt 0.01628400 0.08208600
vt 0.01628400 0.08208600
vt 0.01628400 0.08208600
vt 0.02843500 0.00000000
vt 0.02843500 0.00000000
vt 0.02843500 0.00000000
vt 0.02843500 0.00000000
vt 0.02843700 0.03850000
vt 0.02843700 0.03850000
vt 0.02843700 0.03850000
vt 0.02840900 0.15128000
vt 0.02840900 0.15128000
vt 0.02840900 0.15128000
vt 0.01439000 0.03709600
vt 0.01439000 0.03709600
vt 0.01439000 0.03709600
vt 0.01439000 0.03709600
vt 0.01439000 0.03709600
vt 0.01439000 0.03709600
vt 0.01439000 0.03709600
vt 0.01439000 0.03709600
vt 0.00639800 0.03850700
vt 0.00639800 0.03850700
vt 0.00639800 0.03850700
vt 0.00355400 -0.00000000
vt 0.00355400 -0.00000000
vt 0.00355400 -0.00000000
vt 0.00355400 -0.00000000
vt 0.01629400 0.08175500
vt 0.01629400 0.08175500
vt 0.01629400 0.08175500
vt 0.01629400 0.08175500
vt 0.01421700 0.12551100
vt 0.01421700 0.12551100
vt 0.01421700 0.12551100
vt 0.01421700 0.12551100
vt 0.01421700 0.12551100
vt 0.02843500 0.00000000
vt 0.02843500 0.00000000
vt 0.02843500 0.00000000
vt 0.02843500 0.00000000
vt 0.02843700 0.03850000
vt 0.02843700 0.03850000
vt 0.02843700 0.03850000
vt 0.02837800 0.15316400
vt 0.02837800 0.15316400
vt 0.02837800 0.15316400
vt 0.02843500 0.14089900
vt 0.02843500 0.14089900
vt 0.02843500 0.14089900
vt 0.02843500 0.14089900
vt 0.87575600 0.99097300
vt 0.87575600 0.99097300
vt 0.87575600 0.99097300
vt 0.88715500 0.98194500
vt 0.88715500 0.98194500
vt 0.88715500 0.98194500
vt 0.88715500 1.00000000
vt 0.88715500 1.00000000
vt 0.88715500 1.00000000
vt 0.88715500 0.98194500
vt 0.88715500 0.98194500
vt 0.88715500 0.98194500
vt 0.96573900 0.99028600
vt 0.96573900 0.99028600
vt 0.96573900 0.99028600
vt 1.00564300 0.98181000
vt 1.00564300 0.98181000
vt 1.00564300 0.98181000
vt 1.00555800 0.99940200
vt 1.00555800 0.99940200
vt 1.00555800 0.99940200
f 1/1/1 5/5/5 7/7/7
f 12/12/12 14/14/14 16/16/16
f 19/19/19 24/24/24 25/25/25
f 29/29/29 33/33/33 35/35/35
f 45/45/45 125/125/125 38/38/38
f 47/47/47 50/50/50 54/54/54
f 55/55/55 60/60/60 64/64/64
f 55/55/55 66/66/66 71/71/71
f 55/55/55 73/73/73 60/60/60
f 73/73/73 55/55/55 76/76/76
f 66/66/66 79/79/79 71/71/71
f 84/84/84 86/86/86 89/89/89
f 84/84/84 95/95/95 98/98/98
f 84/84/84 89/89/89 101/101/101
f 101/101/101 105/105/105 84/84/84
f 109/109/109 100/100/100 113/113/113
f 92/92/92 111/111/111 96/96/96
f 114/114/114 118/118/118 121/121/121
f 126/126/126 129/129/129 134/134/134
f 45/45/45 38/38/38 41/41/41
f 135/135/135 143/143/143 138/138/138
f 144/144/144 151/151/151 147/147/147
f 154/154/154 160/160/160 157/157/157
f 163/163/163 170/170/170 167/167/167
f 179/179/179 171/171/171 271/271/271
f 180/180/180 188/188/188 185/185/185
f 189/189/189 202/202/202 198/198/198
f 196/196/196 208/208/208 204/204/204
f 193/193/193 199/199/199 212/212/212
f 213/213/213 218/218/218 194/194/194
f 206/206/206 210/210/210 220/220/220
f 222/222/222 233/233/233 231/231/231
f 226/226/226 244/244/244 238/238/238
f 223/223/223 246/246/246 235/235/235
f 249/249/249 224/224/224 250/250/250
f 253/253/253 257/257/257 241/241/241
f 239/239/239 245/245/245 258/258/258
f 261/261/261 266/266/266 264/264/264
f 274/274/274 279/279/279 276/276/276
f 179/179/179 176/176/176 171/171/171
f 6/6/6 3/3/3 137/137/137
f 137/137/137 140/140/140 6/6/6
f 2/2/2 9/9/9 142/142/142
f 142/142/142 136/136/136 2/2/2
f 15/15/15 10/10/10 146/146/146
f 146/146/146 148/148/148 15/15/15
f 11/11/11 17/17/17 152/152/152
f 152/152/152 145/145/145 11/11/11
f 22/22/22 20/20/20 155/155/155
f 155/155/155 158/158/158 22/22/22
f 21/21/21 27/27/27 161/161/161
f 161/161/161 153/153/153 21/21/21
f 75/75/75 58/58/58 191/191/191
f 191/191/191 216/216/216 75/75/75
f 31/31/31 30/30/30 162/162/162
f 162/162/162 166/166/166 31/31/31
f 28/28/28 34/34/34 168/168/168
f 168/168/168 164/164/164 28/28/28
f 62/62/62 74/74/74 215/215/215
f 215/215/215 200/200/200 62/62/62
f 42/42/42 39/39/39 173/173/173
f 173/173/173 175/175/175 42/42/42
f 133/133/133 130/130/130 275/275/275
f 275/275/275 280/280/280 133/133/133
f 51/51/51 46/46/46 181/181/181
f 181/181/181 184/184/184 51/51/51
f 48/48/48 52/52/52 186/186/186
f 186/186/186 182/182/182 48/48/48
f 8/8/8 4/4/4 139/139/139
f 139/139/139 141/141/141 8/8/8
f 57/57/57 65/65/65 203/203/203
f 203/203/203 192/192/192 57/57/57
f 67/67/67 59/59/59 190/190/190
f 190/190/190 207/207/207 67/67/67
f 56/56/56 70/70/70 211/211/211
f 211/211/211 195/195/195 56/56/56
f 72/72/72 77/77/77 217/217/217
f 217/217/217 214/214/214 72/72/72
f 104/104/104 103/103/103 247/247/247
f 247/247/247 251/251/251 104/104/104
f 88/88/88 82/82/82 229/229/229
f 229/229/229 230/230/230 88/88/88
f 94/94/94 81/81/81 227/227/227
f 227/227/227 240/240/240 94/94/94
f 83/83/83 97/97/97 243/243/243
f 243/243/243 228/228/228 83/83/83
f 37/37/37 123/123/123 270/270/270
f 270/270/270 172/172/172 37/37/37
f 99/99/99 108/108/108 254/254/254
f 254/254/254 242/242/242 99/99/99
f 107/107/107 110/110/110 256/256/256
f 256/256/256 255/255/255 107/107/107
f 119/119/119 115/115/115 262/262/262
f 262/262/262 263/263/263 119/119/119
f 116/116/116 122/122/122 268/268/268
f 268/268/268 260/260/260 116/116/116
f 124/124/124 43/43/43 178/178/178
f 178/178/178 269/269/269 124/124/124
f 131/131/131 128/128/128 272/272/272
f 272/272/272 277/277/277 131/131/131
f 127/127/127 132/132/132 278/278/278
f 278/278/278 273/273/273 127/127/127
f 36/36/36 32/32/32 165/165/165
f 165/165/165 169/169/169 36/36/36
f 69/69/69 80/80/80 221/221/221
f 221/221/221 209/209/209 69/69/69
f 44/44/44 40/40/40 174/174/174
f 174/174/174 177/177/177 44/44/44
f 18/18/18 13/13/13 149/149/149
f 149/149/149 150/150/150 18/18/18
f 78/78/78 68/68/68 205/205/205
f 205/205/205 219/219/219 78/78/78
f 53/53/53 49/49/49 183/183/183
f 183/183/183 187/187/187 53/53/53
f 120/120/120 117/117/117 265/265/265
f 265/265/265 267/267/267 120/120/120
f 26/26/26 23/23/23 156/156/156
f 156/156/156 159/159/159 26/26/26
f 90/90/90 87/87/87 232/232/232
f 232/232/232 236/236/236 90/90/90
f 112/112/112 93/93/93 237/237/237
f 237/237/237 259/259/259 112/112/112
f 85/85/85 106/106/106 252/252/252
f 252/252/252 225/225/225 85/85/85
f 102/102/102 91/91/91 234/234/234
f 234/234/234 248/248/248 102/102/102
f 63/63/63 61/61/61 197/197/197
f 197/197/197 201/201/201 63/63/63

