mtllib material.mtl
usemtl Material-7011油漆.007
v -0.01583400 0.12493200 -0.01504300
v -0.01583400 0.12493200 -0.01504300
v -0.01583400 0.12493200 -0.01504300
v -0.01583400 0.12563200 -0.01504300
v -0.01583400 0.12563200 -0.01504300
v -0.01583400 0.12563200 -0.01504300
v -0.01563300 0.12493200 -0.00944800
v -0.01563300 0.12493200 -0.00944800
v -0.01563300 0.12493200 -0.00944800
v -0.01563300 0.12563200 -0.00944800
v -0.01563300 0.12563200 -0.00944800
v -0.01563300 0.12563200 -0.00944800
v -0.01576700 0.12493200 -0.01317800
v -0.01576700 0.12493200 -0.01317800
v -0.01570000 0.12493200 -0.01131300
v -0.01570000 0.12493200 -0.01131300
v -0.01570000 0.12563200 -0.01131300
v -0.01570000 0.12563200 -0.01131300
v -0.01576700 0.12563200 -0.01317800
v -0.01576700 0.12563200 -0.01317800
v -0.01563300 0.12493200 -0.00944800
v -0.01563300 0.12493200 -0.00944800
v -0.01563300 0.12493200 -0.00944800
v -0.01563300 0.12563200 -0.00944800
v -0.01563300 0.12563200 -0.00944800
v -0.01563300 0.12563200 -0.00944800
v -0.01813600 0.12493200 -0.00637000
v -0.01813600 0.12493200 -0.00637000
v -0.01813600 0.12493200 -0.00637000
v -0.01813600 0.12563200 -0.00637000
v -0.01813600 0.12563200 -0.00637000
v -0.01813600 0.12563200 -0.00637000
v -0.01688400 0.12493200 -0.00790900
v -0.01688400 0.12493200 -0.00790900
v -0.01688400 0.12563200 -0.00790900
v -0.01688400 0.12563200 -0.00790900
v -0.01813500 0.12493200 -0.00636900
v -0.01813500 0.12493200 -0.00636900
v -0.01813500 0.12493200 -0.00636900
v -0.01813500 0.12563200 -0.00636900
v -0.01813500 0.12563200 -0.00636900
v -0.01813500 0.12563200 -0.00636900
v -0.01254000 0.12493200 -0.00657100
v -0.01254000 0.12493200 -0.00657100
v -0.01254000 0.12493200 -0.00657100
v -0.01254000 0.12563200 -0.00657100
v -0.01254000 0.12563200 -0.00657100
v -0.01254000 0.12563200 -0.00657100
v -0.01627000 0.12493200 -0.00643700
v -0.01627000 0.12493200 -0.00643700
v -0.01440500 0.12493200 -0.00650400
v -0.01440500 0.12493200 -0.00650400
v -0.01440500 0.12563200 -0.00650400
v -0.01440500 0.12563200 -0.00650400
v -0.01627000 0.12563200 -0.00643700
v -0.01627000 0.12563200 -0.00643700
v -0.01627000 0.12563200 -0.00643700
v -0.01254000 0.12493200 -0.00657200
v -0.01254000 0.12493200 -0.00657200
v -0.01254000 0.12493200 -0.00657200
v -0.01254000 0.12563200 -0.00657200
v -0.01254000 0.12563200 -0.00657200
v -0.01254000 0.12563200 -0.00657200
v -0.01284900 0.12493200 -0.01515100
v -0.01284900 0.12493200 -0.01515100
v -0.01284900 0.12493200 -0.01515100
v -0.01284900 0.12563200 -0.01515100
v -0.01284900 0.12563200 -0.01515100
v -0.01284900 0.12563200 -0.01515100
v -0.01261700 0.12493200 -0.00871600
v -0.01261700 0.12493200 -0.00871600
v -0.01269400 0.12493200 -0.01086100
v -0.01269400 0.12493200 -0.01086100
v -0.01277100 0.12493200 -0.01300600
v -0.01277100 0.12493200 -0.01300600
v -0.01277100 0.12563200 -0.01300600
v -0.01277100 0.12563200 -0.01300600
v -0.01269400 0.12563200 -0.01086100
v -0.01269400 0.12563200 -0.01086100
v -0.01261700 0.12563200 -0.00871600
v -0.01261700 0.12563200 -0.00871600
v -0.01284900 0.12493200 -0.01515100
v -0.01284900 0.12493200 -0.01515100
v -0.01284900 0.12493200 -0.01515100
v -0.01284900 0.12563200 -0.01515100
v -0.01284900 0.12563200 -0.01515100
v -0.01284900 0.12563200 -0.01515100
v -0.01583400 0.12493200 -0.01504400
v -0.01583400 0.12493200 -0.01504400
v -0.01583400 0.12493200 -0.01504400
v -0.01583400 0.12563200 -0.01504400
v -0.01583400 0.12563200 -0.01504400
v -0.01583400 0.12563200 -0.01504400
v -0.01434100 0.12563200 -0.01509700
v -0.01434100 0.12563200 -0.01509700
v -0.01434100 0.12493200 -0.01509700
v -0.01434100 0.12493200 -0.01509700
v -0.01813500 0.12493100 -0.00637000
v -0.01813500 0.12493100 -0.00637000
v -0.01813500 0.12493100 -0.00637000
v -0.01284900 0.12493100 -0.01515100
v -0.01284900 0.12493100 -0.01515100
v -0.01284900 0.12493100 -0.01515100
v -0.01583400 0.12493100 -0.01504300
v -0.01583400 0.12493100 -0.01504300
v -0.01583400 0.12493100 -0.01504300
v -0.01576700 0.12493100 -0.01317800
v -0.01576700 0.12493100 -0.01317800
v -0.01569900 0.12493100 -0.01131300
v -0.01569900 0.12493100 -0.01131300
v -0.01563200 0.12493100 -0.00944800
v -0.01563200 0.12493100 -0.00944800
v -0.01563200 0.12493100 -0.00944800
v -0.01688400 0.12493100 -0.00790900
v -0.01688400 0.12493100 -0.00790900
v -0.01627000 0.12493100 -0.00643700
v -0.01627000 0.12493100 -0.00643700
v -0.01440500 0.12493100 -0.00650400
v -0.01440500 0.12493100 -0.00650400
v -0.01254000 0.12493100 -0.00657200
v -0.01254000 0.12493100 -0.00657200
v -0.01254000 0.12493100 -0.00657200
v -0.01261700 0.12493100 -0.00871600
v -0.01261700 0.12493100 -0.00871600
v -0.01269500 0.12493100 -0.01086100
v -0.01269500 0.12493100 -0.01086100
v -0.01277200 0.12493100 -0.01300600
v -0.01277200 0.12493100 -0.01300600
v -0.01434100 0.12493100 -0.01509700
v -0.01434100 0.12493100 -0.01509700
v -0.01813500 0.12563200 -0.00637000
v -0.01813500 0.12563200 -0.00637000
v -0.01813500 0.12563200 -0.00637000
v -0.01284900 0.12563200 -0.01515100
v -0.01284900 0.12563200 -0.01515100
v -0.01284900 0.12563200 -0.01515100
v -0.01583400 0.12563200 -0.01504300
v -0.01583400 0.12563200 -0.01504300
v -0.01583400 0.12563200 -0.01504300
v -0.01576700 0.12563200 -0.01317800
v -0.01576700 0.12563200 -0.01317800
v -0.01576700 0.12563200 -0.01317800
v -0.01569900 0.12563200 -0.01131300
v -0.01569900 0.12563200 -0.01131300
v -0.01563200 0.12563200 -0.00944800
v -0.01563200 0.12563200 -0.00944800
v -0.01563200 0.12563200 -0.00944800
v -0.01688400 0.12563200 -0.00790900
v -0.01688400 0.12563200 -0.00790900
v -0.01627000 0.12563200 -0.00643700
v -0.01627000 0.12563200 -0.00643700
v -0.01440500 0.12563200 -0.00650400
v -0.01440500 0.12563200 -0.00650400
v -0.01254000 0.12563200 -0.00657200
v -0.01254000 0.12563200 -0.00657200
v -0.01254000 0.12563200 -0.00657200
v -0.01261700 0.12563200 -0.00871600
v -0.01261700 0.12563200 -0.00871600
v -0.01269500 0.12563200 -0.01086100
v -0.01269500 0.12563200 -0.01086100
v -0.01277200 0.12563200 -0.01300600
v -0.01277200 0.12563200 -0.01300600
v -0.01434100 0.12563200 -0.01509700
v -0.01434100 0.12563200 -0.01509700
v -0.01583300 0.12493200 -0.01504300
v -0.01583300 0.12493200 -0.01504300
v -0.01583300 0.12493200 -0.01504300
v -0.01583300 0.12563200 -0.01504300
v -0.01583300 0.12563200 -0.01504300
v -0.01583300 0.12563200 -0.01504300
v -0.01563200 0.12493200 -0.00944800
v -0.01563200 0.12493200 -0.00944800
v -0.01563200 0.12493200 -0.00944800
v -0.01563200 0.12563200 -0.00944800
v -0.01563200 0.12563200 -0.00944800
v -0.01563200 0.12563200 -0.00944800
v -0.01576600 0.12493200 -0.01317800
v -0.01576600 0.12493200 -0.01317800
v -0.01569900 0.12493200 -0.01131300
v -0.01569900 0.12493200 -0.01131300
v -0.01569900 0.12563200 -0.01131300
v -0.01569900 0.12563200 -0.01131300
v -0.01576600 0.12563200 -0.01317800
v -0.01576600 0.12563200 -0.01317800
v -0.01563200 0.12493200 -0.00944700
v -0.01563200 0.12493200 -0.00944700
v -0.01563200 0.12493200 -0.00944700
v -0.01563200 0.12563200 -0.00944700
v -0.01563200 0.12563200 -0.00944700
v -0.01563200 0.12563200 -0.00944700
v -0.01813500 0.12493200 -0.00637000
v -0.01813500 0.12493200 -0.00637000
v -0.01813500 0.12493200 -0.00637000
v -0.01813500 0.12563200 -0.00637000
v -0.01813500 0.12563200 -0.00637000
v -0.01813500 0.12563200 -0.00637000
v -0.01688300 0.12493200 -0.00790800
v -0.01688300 0.12493200 -0.00790800
v -0.01688300 0.12563200 -0.00790800
v -0.01688300 0.12563200 -0.00790800
v -0.01813500 0.12493200 -0.00637000
v -0.01813500 0.12493200 -0.00637000
v -0.01813500 0.12493200 -0.00637000
v -0.01813500 0.12563200 -0.00637000
v -0.01813500 0.12563200 -0.00637000
v -0.01813500 0.12563200 -0.00637000
v -0.01254000 0.12493200 -0.00657200
v -0.01254000 0.12493200 -0.00657200
v -0.01254000 0.12493200 -0.00657200
v -0.01254000 0.12563200 -0.00657200
v -0.01254000 0.12563200 -0.00657200
v -0.01254000 0.12563200 -0.00657200
v -0.01627000 0.12493200 -0.00643800
v -0.01627000 0.12493200 -0.00643800
v -0.01440500 0.12493200 -0.00650500
v -0.01440500 0.12493200 -0.00650500
v -0.01440500 0.12563200 -0.00650500
v -0.01440500 0.12563200 -0.00650500
v -0.01627000 0.12563200 -0.00643800
v -0.01627000 0.12563200 -0.00643800
v -0.01627000 0.12563200 -0.00643800
v -0.01254100 0.12493200 -0.00657200
v -0.01254100 0.12493200 -0.00657200
v -0.01254100 0.12493200 -0.00657200
v -0.01254100 0.12563200 -0.00657200
v -0.01254100 0.12563200 -0.00657200
v -0.01254100 0.12563200 -0.00657200
v -0.01285000 0.12493200 -0.01515100
v -0.01285000 0.12493200 -0.01515100
v -0.01285000 0.12493200 -0.01515100
v -0.01285000 0.12563200 -0.01515100
v -0.01285000 0.12563200 -0.01515100
v -0.01285000 0.12563200 -0.01515100
v -0.01261800 0.12493200 -0.00871600
v -0.01261800 0.12493200 -0.00871600
v -0.01269500 0.12493200 -0.01086100
v -0.01269500 0.12493200 -0.01086100
v -0.01277200 0.12493200 -0.01300600
v -0.01277200 0.12493200 -0.01300600
v -0.01277200 0.12563200 -0.01300600
v -0.01277200 0.12563200 -0.01300600
v -0.01269500 0.12563200 -0.01086100
v -0.01269500 0.12563200 -0.01086100
v -0.01261800 0.12563200 -0.00871600
v -0.01261800 0.12563200 -0.00871600
v -0.01284900 0.12493200 -0.01515000
v -0.01284900 0.12493200 -0.01515000
v -0.01284900 0.12493200 -0.01515000
v -0.01284900 0.12563200 -0.01515000
v -0.01284900 0.12563200 -0.01515000
v -0.01284900 0.12563200 -0.01515000
v -0.01583400 0.12493200 -0.01504300
v -0.01583400 0.12493200 -0.01504300
v -0.01583400 0.12493200 -0.01504300
v -0.01583400 0.12563200 -0.01504300
v -0.01583400 0.12563200 -0.01504300
v -0.01583400 0.12563200 -0.01504300
v -0.01434100 0.12563200 -0.01509600
v -0.01434100 0.12563200 -0.01509600
v -0.01434100 0.12493200 -0.01509600
v -0.01434100 0.12493200 -0.01509600
v -0.01813500 0.12493200 -0.00637000
v -0.01813500 0.12493200 -0.00637000
v -0.01813500 0.12493200 -0.00637000
v -0.01284900 0.12493200 -0.01515100
v -0.01284900 0.12493200 -0.01515100
v -0.01284900 0.12493200 -0.01515100
v -0.01583400 0.12493200 -0.01504300
v -0.01583400 0.12493200 -0.01504300
v -0.01583400 0.12493200 -0.01504300
v -0.01576700 0.12493200 -0.01317800
v -0.01576700 0.12493200 -0.01317800
v -0.01569900 0.12493200 -0.01131300
v -0.01569900 0.12493200 -0.01131300
v -0.01563200 0.12493200 -0.00944800
v -0.01563200 0.12493200 -0.00944800
v -0.01563200 0.12493200 -0.00944800
v -0.01688400 0.12493200 -0.00790900
v -0.01688400 0.12493200 -0.00790900
v -0.01627000 0.12493200 -0.00643700
v -0.01627000 0.12493200 -0.00643700
v -0.01440500 0.12493200 -0.00650400
v -0.01440500 0.12493200 -0.00650400
v -0.01254000 0.12493200 -0.00657200
v -0.01254000 0.12493200 -0.00657200
v -0.01254000 0.12493200 -0.00657200
v -0.01261700 0.12493200 -0.00871600
v -0.01261700 0.12493200 -0.00871600
v -0.01269500 0.12493200 -0.01086100
v -0.01269500 0.12493200 -0.01086100
v -0.01277200 0.12493200 -0.01300600
v -0.01277200 0.12493200 -0.01300600
v -0.01434100 0.12493200 -0.01509700
v -0.01434100 0.12493200 -0.01509700
v -0.01813500 0.12563100 -0.00637000
v -0.01813500 0.12563100 -0.00637000
v -0.01813500 0.12563100 -0.00637000
v -0.01284900 0.12563100 -0.01515100
v -0.01284900 0.12563100 -0.01515100
v -0.01284900 0.12563100 -0.01515100
v -0.01583400 0.12563100 -0.01504300
v -0.01583400 0.12563100 -0.01504300
v -0.01583400 0.12563100 -0.01504300
v -0.01576700 0.12563100 -0.01317800
v -0.01576700 0.12563100 -0.01317800
v -0.01576700 0.12563100 -0.01317800
v -0.01569900 0.12563100 -0.01131300
v -0.01569900 0.12563100 -0.01131300
v -0.01563200 0.12563100 -0.00944800
v -0.01563200 0.12563100 -0.00944800
v -0.01563200 0.12563100 -0.00944800
v -0.01688400 0.12563100 -0.00790900
v -0.01688400 0.12563100 -0.00790900
v -0.01627000 0.12563100 -0.00643700
v -0.01627000 0.12563100 -0.00643700
v -0.01440500 0.12563100 -0.00650400
v -0.01440500 0.12563100 -0.00650400
v -0.01254000 0.12563100 -0.00657200
v -0.01254000 0.12563100 -0.00657200
v -0.01254000 0.12563100 -0.00657200
v -0.01261700 0.12563100 -0.00871600
v -0.01261700 0.12563100 -0.00871600
v -0.01269500 0.12563100 -0.01086100
v -0.01269500 0.12563100 -0.01086100
v -0.01277200 0.12563100 -0.01300600
v -0.01277200 0.12563100 -0.01300600
v -0.01434100 0.12563100 -0.01509700
v -0.01434100 0.12563100 -0.01509700
vn -0.99940000 0.00000000 0.03600000
vn -0.03630000 0.00000000 -0.99930000
vn 0.00000000 -1.00000000 -0.00000000
vn 0.00000000 1.00000000 -0.00000000
vn -0.99940000 0.00000000 0.03600000
vn -0.03630000 0.00000000 -0.99930000
vn 0.00000000 -1.00000000 -0.00000000
vn -0.99940000 0.00000000 0.03600000
vn 0.03640000 0.00000000 0.99930000
vn 0.00000000 1.00000000 -0.00000000
vn -0.99940000 0.00000000 0.03600000
vn 0.03640000 0.00000000 0.99930000
vn 0.00000000 -1.00000000 -0.00000000
vn -0.99940000 0.00000000 0.03600000
vn 0.00000000 -1.00000000 -0.00000000
vn -0.99940000 0.00000000 0.03600000
vn 0.00000000 1.00000000 -0.00000000
vn -0.99940000 0.00000000 0.03600000
vn 0.00000000 1.00000000 -0.00000000
vn -0.99940000 0.00000000 0.03600000
vn 0.00000000 -1.00000000 -0.00000000
vn 0.63170000 0.00000000 -0.77520000
vn -0.77580000 0.00000000 -0.63100000
vn 0.63170000 0.00000000 -0.77520000
vn -0.77580000 0.00000000 -0.63100000
vn 0.00000000 1.00000000 -0.00000000
vn -0.63170000 0.00000000 0.77520000
vn -0.77580000 0.00000000 -0.63100000
vn 0.00000000 -1.00000000 -0.00000000
vn -0.63170000 0.00000000 0.77520000
vn 0.00000000 1.00000000 -0.00000000
vn -0.77580000 0.00000000 -0.63100000
vn 0.00000000 -1.00000000 -0.00000000
vn -0.77580000 0.00000000 -0.63100000
vn -0.77580000 0.00000000 -0.63100000
vn 0.00000000 1.00000000 -0.00000000
vn 0.00000000 -1.00000000 -0.00000000
vn 0.03600000 0.00000000 0.99940000
vn -0.99940000 0.00000000 0.03350000
vn 0.00000000 1.00000000 0.00780000
vn -0.99940000 0.00000000 0.03350000
vn 0.03600000 0.00000000 0.99940000
vn 0.00000000 -1.00000000 -0.00000000
vn 0.99930000 0.00000000 -0.03630000
vn 0.03600000 0.00000000 0.99940000
vn 0.99930000 0.00000000 -0.03630000
vn 0.00000000 1.00000000 -0.00000000
vn 0.03600000 0.00000000 0.99940000
vn 0.00000000 -1.00000000 -0.00000000
vn 0.03600000 0.00000000 0.99940000
vn 0.00000000 -1.00000000 -0.00000000
vn 0.03600000 0.00000000 0.99940000
vn 0.03600000 0.00000000 0.99940000
vn 0.00000000 1.00000000 -0.00000000
vn 0.00000000 1.00000000 -0.00000000
vn 0.03600000 0.00000000 0.99940000
vn 0.00000000 1.00000000 0.00780000
vn 0.03640000 0.00000000 0.99930000
vn 0.00000000 -1.00000000 -0.00000000
vn 0.99940000 0.00000000 -0.03600000
vn 0.03640000 0.00000000 0.99930000
vn 0.00000000 1.00000000 -0.00000000
vn 0.99940000 0.00000000 -0.03600000
vn 0.00000000 -1.00000000 -0.00000000
vn -0.03640000 0.00000000 -0.99930000
vn 0.99940000 0.00000000 -0.03600000
vn -0.03640000 0.00000000 -0.99930000
vn 0.99940000 0.00000000 -0.03600000
vn 0.00000000 1.00000000 -0.00000000
vn 0.99940000 0.00000000 -0.03600000
vn 0.00000000 -1.00000000 -0.00000000
vn 0.00000000 -1.00000000 -0.00000000
vn 0.99940000 0.00000000 -0.03600000
vn 0.00000000 -1.00000000 -0.00000000
vn 0.99940000 0.00000000 -0.03600000
vn 0.99940000 0.00000000 -0.03600000
vn 0.00000000 1.00000000 -0.00000000
vn 0.00000000 1.00000000 -0.00000000
vn 0.99940000 0.00000000 -0.03600000
vn 0.99940000 0.00000000 -0.03600000
vn 0.00000000 1.00000000 -0.00000000
vn -0.03600000 0.00000000 -0.99940000
vn 0.99930000 0.00000000 -0.03630000
vn 0.00000000 -1.00000000 -0.00000000
vn 0.00000000 1.00000000 -0.00000000
vn -0.03600000 0.00000000 -0.99940000
vn 0.99930000 0.00000000 -0.03630000
vn -0.03600000 0.00000000 -0.99940000
vn -0.99940000 0.00000000 0.03540000
vn 0.00000000 -1.00000000 -0.00000000
vn 0.00000000 1.00000000 -0.00000000
vn -0.03600000 0.00000000 -0.99940000
vn -0.99940000 0.00000000 0.03540000
vn -0.03600000 0.00000000 -0.99940000
vn 0.00000000 1.00000000 -0.00000000
vn 0.00000000 -1.00000000 -0.00000000
vn -0.03600000 0.00000000 -0.99940000
vn 0.00000000 -1.00000000 -0.00000000
vn 0.03600000 0.00000000 0.99940000
vn -0.77760000 0.00000000 -0.62870000
vn 0.99930000 0.00000000 -0.03620000
vn -0.03570000 0.00000000 -0.99940000
vn 0.00000000 -1.00000000 -0.00000000
vn -0.99940000 0.00000000 0.03590000
vn 0.00000000 -1.00000000 -0.00000000
vn -0.03570000 0.00000000 -0.99940000
vn 0.00000000 -1.00000000 -0.00000000
vn -0.99940000 0.00000000 0.03590000
vn 0.00000000 -1.00000000 -0.00000000
vn -0.99940000 0.00000000 0.03590000
vn -0.99940000 0.00000000 0.03590000
vn -0.77760000 0.00000000 -0.62870000
vn 0.00000000 -1.00000000 -0.00000000
vn 0.00000000 -1.00000000 -0.00000000
vn -0.77760000 0.00000000 -0.62870000
vn 0.00000000 -1.00000000 -0.00000000
vn 0.03600000 0.00000000 0.99940000
vn 0.03600000 0.00000000 0.99940000
vn 0.00000000 -1.00000000 -0.00000000
vn 0.00000000 -1.00000000 -0.00000000
vn 0.99930000 0.00000000 -0.03620000
vn 0.03600000 0.00000000 0.99940000
vn 0.99930000 0.00000000 -0.03620000
vn 0.00000000 -1.00000000 -0.00000000
vn 0.00000000 -1.00000000 -0.00000000
vn 0.99930000 0.00000000 -0.03620000
vn 0.99930000 0.00000000 -0.03620000
vn 0.00000000 -1.00000000 -0.00000000
vn 0.00000000 -1.00000000 -0.00000000
vn -0.03570000 0.00000000 -0.99940000
vn 0.03600000 0.00000000 0.99940000
vn 0.00000000 1.00000000 -0.00000000
vn -0.77530000 0.00000000 -0.63160000
vn 0.00000000 1.00000000 -0.00000000
vn 0.99930000 0.00000000 -0.03610000
vn -0.03580000 0.00000000 -0.99940000
vn -0.99930000 0.00000000 0.03610000
vn 0.00000000 1.00000000 -0.00000000
vn -0.03580000 0.00000000 -0.99940000
vn -0.99940000 0.00000000 0.03560000
vn -0.99930000 0.00000000 0.03610000
vn 0.00000000 1.00000000 -0.00000000
vn -0.99940000 0.00000000 0.03560000
vn 0.00000000 1.00000000 -0.00000000
vn -0.77530000 0.00000000 -0.63160000
vn -0.99940000 0.00000000 0.03560000
vn 0.00000000 1.00000000 -0.00000000
vn 0.00000000 1.00000000 -0.00000000
vn -0.77530000 0.00000000 -0.63160000
vn 0.03600000 0.00000000 0.99940000
vn 0.00000000 1.00000000 -0.00000000
vn 0.00000000 1.00000000 -0.00000000
vn 0.03600000 0.00000000 0.99940000
vn 0.00000000 1.00000000 -0.00000000
vn 0.03600000 0.00000000 0.99940000
vn 0.99930000 0.00000000 -0.03610000
vn 0.99930000 0.00000000 -0.03610000
vn 0.00000000 1.00000000 -0.00000000
vn 0.99930000 0.00000000 -0.03610000
vn 0.00000000 1.00000000 -0.00000000
vn 0.99930000 0.00000000 -0.03610000
vn 0.00000000 1.00000000 -0.00000000
vn -0.03580000 0.00000000 -0.99940000
vn 0.00000000 1.00000000 -0.00000000
vn 0.99940000 0.00000000 -0.03600000
vn -0.03630000 0.00000000 -0.99930000
vn 0.00000000 -1.00000000 -0.00000000
vn 0.99940000 0.00000000 -0.03600000
vn 0.00000000 1.00000000 -0.00000000
vn -0.03630000 0.00000000 -0.99930000
vn 0.99940000 0.00000000 -0.03600000
vn 0.03640000 0.00000000 0.99930000
vn 0.00000000 -1.00000000 -0.00000000
vn 0.99940000 0.00000000 -0.03600000
vn 0.03640000 0.00000000 0.99930000
vn 0.00000000 1.00000000 -0.00000000
vn 0.00000000 -1.00000000 -0.00000000
vn 0.99940000 0.00000000 -0.03600000
vn 0.99940000 0.00000000 -0.03600000
vn 0.00000000 -1.00000000 -0.00000000
vn 0.99940000 0.00000000 -0.03600000
vn 0.00000000 1.00000000 -0.00000000
vn 0.99940000 0.00000000 -0.03600000
vn 0.00000000 1.00000000 -0.00000000
vn 0.00000000 -1.00000000 -0.00000000
vn 0.63170000 0.00000000 -0.77520000
vn 0.77580000 0.00000000 0.63100000
vn 0.63170000 0.00000000 -0.77520000
vn 0.00000000 1.00000000 -0.00000000
vn 0.77580000 0.00000000 0.63100000
vn 0.00000000 -1.00000000 -0.00000000
vn -0.63170000 0.00000000 0.77520000
vn 0.77580000 0.00000000 0.63100000
vn 0.00000000 1.00000000 -0.00000000
vn 0.77580000 0.00000000 0.63100000
vn -0.63170000 0.00000000 0.77520000
vn 0.77580000 0.00000000 0.63100000
vn 0.00000000 -1.00000000 -0.00000000
vn 0.00000000 1.00000000 -0.00000000
vn 0.77580000 0.00000000 0.63100000
vn 0.00000000 -1.00000000 -0.00000000
vn -0.03600000 0.00000000 -0.99940000
vn -0.99940000 0.00000000 0.03350000
vn -0.03600000 0.00000000 -0.99940000
vn -0.99940000 0.00000000 0.03350000
vn 0.00000000 1.00000000 0.00780000
vn 0.99930000 0.00000000 -0.03630000
vn -0.03600000 0.00000000 -0.99940000
vn 0.00000000 -1.00000000 -0.00000000
vn -0.03600000 0.00000000 -0.99940000
vn 0.00000000 1.00000000 -0.00000000
vn 0.99930000 0.00000000 -0.03630000
vn 0.00000000 -1.00000000 -0.00000000
vn -0.03600000 0.00000000 -0.99940000
vn 0.00000000 -1.00000000 -0.00000000
vn -0.03600000 0.00000000 -0.99940000
vn -0.03600000 0.00000000 -0.99940000
vn 0.00000000 1.00000000 -0.00000000
vn 0.00000000 1.00000000 -0.00000000
vn 0.00000000 1.00000000 0.00780000
vn -0.03600000 0.00000000 -0.99940000
vn -0.99940000 0.00000000 0.03600000
vn 0.03640000 0.00000000 0.99930000
vn 0.00000000 -1.00000000 -0.00000000
vn 0.03640000 0.00000000 0.99930000
vn -0.99940000 0.00000000 0.03600000
vn 0.00000000 1.00000000 -0.00000000
vn -0.99940000 0.00000000 0.03600000
vn 0.00000000 -1.00000000 -0.00000000
vn -0.03640000 0.00000000 -0.99930000
vn -0.99940000 0.00000000 0.03600000
vn -0.03640000 0.00000000 -0.99930000
vn 0.00000000 1.00000000 -0.00000000
vn -0.99940000 0.00000000 0.03600000
vn 0.00000000 -1.00000000 -0.00000000
vn -0.99940000 0.00000000 0.03600000
vn 0.00000000 -1.00000000 -0.00000000
vn 0.00000000 -1.00000000 -0.00000000
vn -0.99940000 0.00000000 0.03600000
vn 0.00000000 1.00000000 -0.00000000
vn -0.99940000 0.00000000 0.03600000
vn -0.99940000 0.00000000 0.03600000
vn 0.00000000 1.00000000 -0.00000000
vn 0.00000000 1.00000000 -0.00000000
vn -0.99940000 0.00000000 0.03600000
vn 0.99930000 0.00000000 -0.03630000
vn 0.00000000 -1.00000000 -0.00000000
vn 0.03600000 0.00000000 0.99940000
vn 0.99930000 0.00000000 -0.03630000
vn 0.00000000 1.00000000 -0.00000000
vn 0.03600000 0.00000000 0.99940000
vn 0.03600000 0.00000000 0.99940000
vn -0.99940000 0.00000000 0.03540000
vn 0.00000000 -1.00000000 -0.00000000
vn -0.99940000 0.00000000 0.03540000
vn 0.03600000 0.00000000 0.99940000
vn 0.00000000 1.00000000 -0.00000000
vn 0.00000000 1.00000000 -0.00000000
vn 0.03600000 0.00000000 0.99940000
vn 0.00000000 -1.00000000 -0.00000000
vn 0.03600000 0.00000000 0.99940000
vn 0.00000000 1.00000000 -0.00000000
vn 0.03600000 0.00000000 0.99940000
vn -0.77760000 0.00000000 -0.62870000
vn -0.03570000 0.00000000 -0.99940000
vn 0.00000000 1.00000000 -0.00000000
vn 0.99930000 0.00000000 -0.03620000
vn 0.00000000 1.00000000 -0.00000000
vn -0.99940000 0.00000000 0.03590000
vn -0.03570000 0.00000000 -0.99940000
vn -0.99940000 0.00000000 0.03590000
vn 0.00000000 1.00000000 -0.00000000
vn 0.00000000 1.00000000 -0.00000000
vn -0.99940000 0.00000000 0.03590000
vn -0.77760000 0.00000000 -0.62870000
vn -0.99940000 0.00000000 0.03590000
vn 0.00000000 1.00000000 -0.00000000
vn 0.00000000 1.00000000 -0.00000000
vn -0.77760000 0.00000000 -0.62870000
vn 0.03600000 0.00000000 0.99940000
vn 0.00000000 1.00000000 -0.00000000
vn 0.00000000 1.00000000 -0.00000000
vn 0.03600000 0.00000000 0.99940000
vn 0.00000000 1.00000000 -0.00000000
vn 0.03600000 0.00000000 0.99940000
vn 0.99930000 0.00000000 -0.03620000
vn 0.00000000 1.00000000 -0.00000000
vn 0.99930000 0.00000000 -0.03620000
vn 0.99930000 0.00000000 -0.03620000
vn 0.00000000 1.00000000 -0.00000000
vn 0.99930000 0.00000000 -0.03620000
vn 0.00000000 1.00000000 -0.00000000
vn -0.03570000 0.00000000 -0.99940000
vn 0.00000000 1.00000000 -0.00000000
vn 0.00000000 -1.00000000 -0.00000000
vn 0.03600000 0.00000000 0.99940000
vn -0.77530000 0.00000000 -0.63160000
vn 0.00000000 -1.00000000 -0.00000000
vn -0.03580000 0.00000000 -0.99940000
vn 0.99930000 0.00000000 -0.03610000
vn -0.03580000 0.00000000 -0.99940000
vn -0.99930000 0.00000000 0.03610000
vn 0.00000000 -1.00000000 -0.00000000
vn -0.99940000 0.00000000 0.03560000
vn -0.99930000 0.00000000 0.03610000
vn 0.00000000 -1.00000000 -0.00000000
vn 0.00000000 -1.00000000 -0.00000000
vn -0.99940000 0.00000000 0.03560000
vn -0.77530000 0.00000000 -0.63160000
vn -0.99940000 0.00000000 0.03560000
vn 0.00000000 -1.00000000 -0.00000000
vn -0.77530000 0.00000000 -0.63160000
vn 0.00000000 -1.00000000 -0.00000000
vn 0.00000000 -1.00000000 -0.00000000
vn 0.03600000 0.00000000 0.99940000
vn 0.00000000 -1.00000000 -0.00000000
vn 0.03600000 0.00000000 0.99940000
vn 0.00000000 -1.00000000 -0.00000000
vn 0.99930000 0.00000000 -0.03610000
vn 0.03600000 0.00000000 0.99940000
vn 0.00000000 -1.00000000 -0.00000000
vn 0.99930000 0.00000000 -0.03610000
vn 0.99930000 0.00000000 -0.03610000
vn 0.00000000 -1.00000000 -0.00000000
vn 0.00000000 -1.00000000 -0.00000000
vn 0.99930000 0.00000000 -0.03610000
vn -0.03580000 0.00000000 -0.99940000
vn 0.00000000 -1.00000000 -0.00000000
vt 0.16669400 0.05556500
vt 0.16669400 0.05556500
vt 0.16669400 0.05556500
vt 0.16669400 0.10966400
vt 0.16669400 0.10966400
vt 0.16669400 0.10966400
vt 0.61112900 0.05556500
vt 0.61112900 0.05556500
vt 0.61112900 0.05556500
vt 0.61112900 0.10966400
vt 0.61112900 0.10966400
vt 0.61112900 0.10966400
vt 0.31483900 0.05556500
vt 0.31483900 0.05556500
vt 0.46298400 0.05556500
vt 0.46298400 0.05556500
vt 0.46298400 0.10966400
vt 0.46298400 0.10966400
vt 0.31483900 0.10966400
vt 0.31483900 0.10966400
vt 0.10966400 0.00000000
vt 0.10966400 0.00000000
vt 0.10966400 0.00000000
vt 0.05556500 0.00000000
vt 0.05556500 0.00000000
vt 0.05556500 0.00000000
vt 0.10966400 0.31490200
vt 0.10966400 0.31490200
vt 0.10966400 0.31490200
vt 0.05556500 0.31490200
vt 0.05556500 0.31490200
vt 0.05556500 0.31490200
vt 0.10966400 0.15745100
vt 0.10966400 0.15745100
vt 0.05556500 0.15745100
vt 0.05556500 0.15745100
vt 0.16669400 0.00000000
vt 0.16669400 0.00000000
vt 0.16669400 0.00000000
vt 0.16669400 0.05410000
vt 0.16669400 0.05410000
vt 0.16669400 0.05410000
vt 0.61112900 0.00000000
vt 0.61112900 0.00000000
vt 0.61112900 0.00000000
vt 0.61112900 0.05410000
vt 0.61112900 0.05410000
vt 0.61112900 0.05410000
vt 0.31483900 0.00000000
vt 0.31483900 0.00000000
vt 0.46298400 0.00000000
vt 0.46298400 0.00000000
vt 0.46298400 0.05410000
vt 0.46298400 0.05410000
vt 0.31483900 0.05410000
vt 0.31483900 0.05410000
vt 0.31483900 0.05410000
vt 0.16522900 0.00000000
vt 0.16522900 0.00000000
vt 0.16522900 0.00000000
vt 0.11112900 0.00000000
vt 0.11112900 0.00000000
vt 0.11112900 0.00000000
vt 0.16522900 0.68142500
vt 0.16522900 0.68142500
vt 0.16522900 0.68142500
vt 0.11112900 0.68142500
vt 0.11112900 0.68142500
vt 0.11112900 0.68142500
vt 0.16522900 0.17035600
vt 0.16522900 0.17035600
vt 0.16522900 0.34071200
vt 0.16522900 0.34071200
vt 0.16522900 0.51106800
vt 0.16522900 0.51106800
vt 0.11112900 0.51106800
vt 0.11112900 0.51106800
vt 0.11112900 0.34071200
vt 0.11112900 0.34071200
vt 0.11112900 0.17035600
vt 0.11112900 0.17035600
vt 0.05410000 0.00000000
vt 0.05410000 0.00000000
vt 0.05410000 0.00000000
vt 0.00000000 0.00000000
vt 0.00000000 0.00000000
vt 0.00000000 0.00000000
vt 0.05410000 0.23707300
vt 0.05410000 0.23707300
vt 0.05410000 0.23707300
vt 0.00000000 0.23707300
vt 0.00000000 0.23707300
vt 0.00000000 0.23707300
vt 0.00000000 0.11853700
vt 0.00000000 0.11853700
vt 0.05410000 0.11853700
vt 0.05410000 0.11853700
vt 0.16669400 0.99853500
vt 0.16669400 0.99853500
vt 0.16669400 0.99853500
vt 0.84665400 0.55556500
vt 0.84665400 0.55556500
vt 0.84665400 0.55556500
vt 0.84665400 0.79185700
vt 0.84665400 0.79185700
vt 0.84665400 0.79185700
vt 0.69882700 0.79185700
vt 0.69882700 0.79185700
vt 0.55100000 0.79185700
vt 0.55100000 0.79185700
vt 0.40317400 0.79185700
vt 0.40317400 0.79185700
vt 0.40317400 0.79185700
vt 0.28493400 0.89519600
vt 0.28493400 0.89519600
vt 0.16669400 0.85087800
vt 0.16669400 0.85087800
vt 0.16669400 0.70322100
vt 0.16669400 0.70322100
vt 0.16669400 0.55556500
vt 0.16669400 0.55556500
vt 0.16669400 0.55556500
vt 0.33668400 0.55556500
vt 0.33668400 0.55556500
vt 0.50667400 0.55556500
vt 0.50667400 0.55556500
vt 0.67666400 0.55556500
vt 0.67666400 0.55556500
vt 0.84665400 0.67371100
vt 0.84665400 0.67371100
vt 0.16669400 0.55410000
vt 0.16669400 0.55410000
vt 0.16669400 0.55410000
vt 0.84665400 0.11112900
vt 0.84665400 0.11112900
vt 0.84665400 0.11112900
vt 0.84665400 0.34742100
vt 0.84665400 0.34742100
vt 0.84665400 0.34742100
vt 0.69882700 0.34742100
vt 0.69882700 0.34742100
vt 0.69882700 0.34742100
vt 0.55100000 0.34742100
vt 0.55100000 0.34742100
vt 0.40317400 0.34742100
vt 0.40317400 0.34742100
vt 0.40317400 0.34742100
vt 0.28493400 0.45076000
vt 0.28493400 0.45076000
vt 0.16669400 0.40644300
vt 0.16669400 0.40644300
vt 0.16669400 0.25878600
vt 0.16669400 0.25878600
vt 0.16669400 0.11112900
vt 0.16669400 0.11112900
vt 0.16669400 0.11112900
vt 0.33668400 0.11112900
vt 0.33668400 0.11112900
vt 0.50667400 0.11112900
vt 0.50667400 0.11112900
vt 0.67666400 0.11112900
vt 0.67666400 0.11112900
vt 0.84665400 0.22927500
vt 0.84665400 0.22927500
vt 0.16669400 0.05556500
vt 0.16669400 0.05556500
vt 0.16669400 0.05556500
vt 0.16669400 0.10966400
vt 0.16669400 0.10966400
vt 0.16669400 0.10966400
vt 0.61112900 0.05556500
vt 0.61112900 0.05556500
vt 0.61112900 0.05556500
vt 0.61112900 0.10966400
vt 0.61112900 0.10966400
vt 0.61112900 0.10966400
vt 0.31483900 0.05556500
vt 0.31483900 0.05556500
vt 0.46298400 0.05556500
vt 0.46298400 0.05556500
vt 0.46298400 0.10966400
vt 0.46298400 0.10966400
vt 0.31483900 0.10966400
vt 0.31483900 0.10966400
vt 0.10966400 0.00000000
vt 0.10966400 0.00000000
vt 0.10966400 0.00000000
vt 0.05556500 0.00000000
vt 0.05556500 0.00000000
vt 0.05556500 0.00000000
vt 0.10966400 0.31490200
vt 0.10966400 0.31490200
vt 0.10966400 0.31490200
vt 0.05556500 0.31490200
vt 0.05556500 0.31490200
vt 0.05556500 0.31490200
vt 0.10966400 0.15745100
vt 0.10966400 0.15745100
vt 0.05556500 0.15745100
vt 0.05556500 0.15745100
vt 0.16669400 0.00000000
vt 0.16669400 0.00000000
vt 0.16669400 0.00000000
vt 0.16669400 0.05410000
vt 0.16669400 0.05410000
vt 0.16669400 0.05410000
vt 0.61112900 0.00000000
vt 0.61112900 0.00000000
vt 0.61112900 0.00000000
vt 0.61112900 0.05410000
vt 0.61112900 0.05410000
vt 0.61112900 0.05410000
vt 0.31483900 0.00000000
vt 0.31483900 0.00000000
vt 0.46298400 0.00000000
vt 0.46298400 0.00000000
vt 0.46298400 0.05410000
vt 0.46298400 0.05410000
vt 0.31483900 0.05410000
vt 0.31483900 0.05410000
vt 0.31483900 0.05410000
vt 0.16522900 0.00000000
vt 0.16522900 0.00000000
vt 0.16522900 0.00000000
vt 0.11112900 0.00000000
vt 0.11112900 0.00000000
vt 0.11112900 0.00000000
vt 0.16522900 0.68142500
vt 0.16522900 0.68142500
vt 0.16522900 0.68142500
vt 0.11112900 0.68142500
vt 0.11112900 0.68142500
vt 0.11112900 0.68142500
vt 0.16522900 0.17035600
vt 0.16522900 0.17035600
vt 0.16522900 0.34071200
vt 0.16522900 0.34071200
vt 0.16522900 0.51106800
vt 0.16522900 0.51106800
vt 0.11112900 0.51106800
vt 0.11112900 0.51106800
vt 0.11112900 0.34071200
vt 0.11112900 0.34071200
vt 0.11112900 0.17035600
vt 0.11112900 0.17035600
vt 0.05410000 0.00000000
vt 0.05410000 0.00000000
vt 0.05410000 0.00000000
vt 0.00000000 0.00000000
vt 0.00000000 0.00000000
vt 0.00000000 0.00000000
vt 0.05410000 0.23707300
vt 0.05410000 0.23707300
vt 0.05410000 0.23707300
vt 0.00000000 0.23707300
vt 0.00000000 0.23707300
vt 0.00000000 0.23707300
vt 0.00000000 0.11853700
vt 0.00000000 0.11853700
vt 0.05410000 0.11853700
vt 0.05410000 0.11853700
vt 0.16669400 0.99853500
vt 0.16669400 0.99853500
vt 0.16669400 0.99853500
vt 0.84665400 0.55556500
vt 0.84665400 0.55556500
vt 0.84665400 0.55556500
vt 0.84665400 0.79185700
vt 0.84665400 0.79185700
vt 0.84665400 0.79185700
vt 0.69882700 0.79185700
vt 0.69882700 0.79185700
vt 0.55100000 0.79185700
vt 0.55100000 0.79185700
vt 0.40317400 0.79185700
vt 0.40317400 0.79185700
vt 0.40317400 0.79185700
vt 0.28493400 0.89519600
vt 0.28493400 0.89519600
vt 0.16669400 0.85087800
vt 0.16669400 0.85087800
vt 0.16669400 0.70322100
vt 0.16669400 0.70322100
vt 0.16669400 0.55556500
vt 0.16669400 0.55556500
vt 0.16669400 0.55556500
vt 0.33668400 0.55556500
vt 0.33668400 0.55556500
vt 0.50667400 0.55556500
vt 0.50667400 0.55556500
vt 0.67666400 0.55556500
vt 0.67666400 0.55556500
vt 0.84665400 0.67371100
vt 0.84665400 0.67371100
vt 0.16669400 0.55410000
vt 0.16669400 0.55410000
vt 0.16669400 0.55410000
vt 0.84665400 0.11112900
vt 0.84665400 0.11112900
vt 0.84665400 0.11112900
vt 0.84665400 0.34742100
vt 0.84665400 0.34742100
vt 0.84665400 0.34742100
vt 0.69882700 0.34742100
vt 0.69882700 0.34742100
vt 0.69882700 0.34742100
vt 0.55100000 0.34742100
vt 0.55100000 0.34742100
vt 0.40317400 0.34742100
vt 0.40317400 0.34742100
vt 0.40317400 0.34742100
vt 0.28493400 0.45076000
vt 0.28493400 0.45076000
vt 0.16669400 0.40644300
vt 0.16669400 0.40644300
vt 0.16669400 0.25878600
vt 0.16669400 0.25878600
vt 0.16669400 0.11112900
vt 0.16669400 0.11112900
vt 0.16669400 0.11112900
vt 0.33668400 0.11112900
vt 0.33668400 0.11112900
vt 0.50667400 0.11112900
vt 0.50667400 0.11112900
vt 0.67666400 0.11112900
vt 0.67666400 0.11112900
vt 0.84665400 0.22927500
vt 0.84665400 0.22927500
f 14/14/14 20/20/20 5/5/5
f 20/20/20 14/14/14 16/16/16
f 8/8/8 11/11/11 18/18/18
f 25/25/25 23/23/23 34/34/34
f 28/28/28 32/32/32 35/35/35
f 50/50/50 56/56/56 42/42/42
f 56/56/56 50/50/50 52/52/52
f 45/45/45 48/48/48 53/53/53
f 70/70/70 80/80/80 63/63/63
f 80/80/80 70/70/70 73/73/73
f 66/66/66 68/68/68 76/76/76
f 75/75/75 76/76/76 79/79/79
f 86/86/86 82/82/82 97/97/97
f 88/88/88 92/92/92 94/94/94
f 119/119/119 124/124/124 120/120/120
f 113/113/113 124/124/124 119/119/119
f 114/114/114 116/116/116 98/98/98
f 116/116/116 114/114/114 113/113/113
f 113/113/113 119/119/119 116/116/116
f 113/113/113 125/125/125 124/124/124
f 109/109/109 128/128/128 125/125/125
f 129/129/129 103/103/103 128/128/128
f 107/107/107 128/128/128 109/109/109
f 107/107/107 105/105/105 129/129/129
f 107/107/107 129/129/129 128/128/128
f 113/113/113 109/109/109 125/125/125
f 152/152/152 154/154/154 158/158/158
f 147/147/147 152/152/152 158/158/158
f 148/148/148 132/132/132 151/151/151
f 151/151/151 147/147/147 148/148/148
f 147/147/147 151/151/151 152/152/152
f 147/147/147 158/158/158 160/160/160
f 144/144/144 160/160/160 162/162/162
f 164/164/164 162/162/162 134/134/134
f 142/142/142 144/144/144 162/162/162
f 142/142/142 164/164/164 138/138/138
f 142/142/142 162/162/162 164/164/164
f 147/147/147 160/160/160 144/144/144
f 14/14/14 5/5/5 1/1/1
f 20/20/20 16/16/16 18/18/18
f 8/8/8 18/18/18 16/16/16
f 25/25/25 34/34/34 35/35/35
f 28/28/28 35/35/35 34/34/34
f 50/50/50 42/42/42 38/38/38
f 56/56/56 52/52/52 53/53/53
f 45/45/45 53/53/53 52/52/52
f 70/70/70 63/63/63 60/60/60
f 80/80/80 73/73/73 79/79/79
f 66/66/66 76/76/76 75/75/75
f 75/75/75 79/79/79 73/73/73
f 86/86/86 97/97/97 94/94/94
f 88/88/88 94/94/94 97/97/97
f 178/178/178 168/168/168 183/183/183
f 183/183/183 179/179/179 178/178/178
f 171/171/171 181/181/181 174/174/174
f 190/190/190 197/197/197 187/187/187
f 193/193/193 200/200/200 195/195/195
f 214/214/214 204/204/204 221/221/221
f 221/221/221 216/216/216 214/214/214
f 208/208/208 217/217/217 210/210/210
f 234/234/234 226/226/226 245/245/245
f 245/245/245 236/236/236 234/234/234
f 228/228/228 241/241/241 231/231/231
f 239/239/239 242/242/242 241/241/241
f 251/251/251 261/261/261 248/248/248
f 252/252/252 259/259/259 256/256/256
f 282/282/282 284/284/284 287/287/287
f 277/277/277 282/282/282 287/287/287
f 278/278/278 262/262/262 281/281/281
f 281/281/281 277/277/277 278/278/278
f 277/277/277 281/281/281 282/282/282
f 277/277/277 287/287/287 290/290/290
f 273/273/273 290/290/290 292/292/292
f 294/294/294 292/292/292 266/266/266
f 272/272/272 273/273/273 292/292/292
f 272/272/272 294/294/294 268/268/268
f 272/272/272 292/292/292 294/294/294
f 277/277/277 290/290/290 273/273/273
f 316/316/316 321/321/321 318/318/318
f 311/311/311 321/321/321 316/316/316
f 313/313/313 314/314/314 295/295/295
f 314/314/314 313/313/313 311/311/311
f 311/311/311 316/316/316 314/314/314
f 311/311/311 324/324/324 321/321/321
f 307/307/307 325/325/325 324/324/324
f 328/328/328 298/298/298 325/325/325
f 306/306/306 325/325/325 307/307/307
f 306/306/306 303/303/303 328/328/328
f 306/306/306 328/328/328 325/325/325
f 311/311/311 307/307/307 324/324/324
f 178/178/178 165/165/165 168/168/168
f 183/183/183 181/181/181 179/179/179
f 171/171/171 179/179/179 181/181/181
f 190/190/190 200/200/200 197/197/197
f 193/193/193 197/197/197 200/200/200
f 214/214/214 202/202/202 204/204/204
f 221/221/221 217/217/217 216/216/216
f 208/208/208 216/216/216 217/217/217
f 234/234/234 222/222/222 226/226/226
f 245/245/245 242/242/242 236/236/236
f 228/228/228 239/239/239 241/241/241
f 239/239/239 236/236/236 242/242/242
f 251/251/251 259/259/259 261/261/261
f 252/252/252 261/261/261 259/259/259
f 2/2/2 6/6/6 170/170/170
f 170/170/170 166/166/166 2/2/2
f 12/12/12 9/9/9 172/172/172
f 172/172/172 175/175/175 12/12/12
f 15/15/15 13/13/13 177/177/177
f 177/177/177 180/180/180 15/15/15
f 22/22/22 24/24/24 188/188/188
f 188/188/188 186/186/186 22/22/22
f 55/55/55 54/54/54 218/218/218
f 218/218/218 219/219/219 55/55/55
f 30/30/30 27/27/27 192/192/192
f 192/192/192 196/196/196 30/30/30
f 115/115/115 100/100/100 264/264/264
f 264/264/264 279/279/279 115/115/115
f 39/39/39 41/41/41 205/205/205
f 205/205/205 203/203/203 39/39/39
f 46/46/46 44/44/44 207/207/207
f 207/207/207 212/212/212 46/46/46
f 51/51/51 49/49/49 213/213/213
f 213/213/213 215/215/215 51/51/51
f 58/58/58 61/61/61 225/225/225
f 225/225/225 223/223/223 58/58/58
f 67/67/67 65/65/65 230/230/230
f 230/230/230 232/232/232 67/67/67
f 72/72/72 71/71/71 235/235/235
f 235/235/235 237/237/237 72/72/72
f 64/64/64 74/74/74 238/238/238
f 238/238/238 229/229/229 64/64/64
f 157/157/157 156/156/156 319/319/319
f 319/319/319 322/322/322 157/157/157
f 83/83/83 87/87/87 249/249/249
f 249/249/249 246/246/246 83/83/83
f 93/93/93 89/89/89 253/253/253
f 253/253/253 255/255/255 93/93/93
f 104/104/104 108/108/108 271/271/271
f 271/271/271 269/269/269 104/104/104
f 108/108/108 110/110/110 274/274/274
f 274/274/274 271/271/271 108/108/108
f 110/110/110 111/111/111 276/276/276
f 276/276/276 274/274/274 110/110/110
f 4/4/4 19/19/19 184/184/184
f 184/184/184 169/169/169 4/4/4
f 118/118/118 122/122/122 285/285/285
f 285/285/285 283/283/283 118/118/118
f 127/127/127 101/101/101 267/267/267
f 267/267/267 291/291/291 127/127/127
f 112/112/112 115/115/115 279/279/279
f 279/279/279 275/275/275 112/112/112
f 17/17/17 10/10/10 176/176/176
f 176/176/176 182/182/182 17/17/17
f 143/143/143 140/140/140 304/304/304
f 304/304/304 308/308/308 143/143/143
f 102/102/102 130/130/130 293/293/293
f 293/293/293 265/265/265 102/102/102
f 133/133/133 149/149/149 312/312/312
f 312/312/312 297/297/297 133/133/133
f 155/155/155 153/153/153 317/317/317
f 317/317/317 320/320/320 155/155/155
f 130/130/130 106/106/106 270/270/270
f 270/270/270 293/293/293 130/130/130
f 90/90/90 96/96/96 260/260/260
f 260/260/260 254/254/254 90/90/90
f 117/117/117 118/118/118 283/283/283
f 283/283/283 280/280/280 117/117/117
f 62/62/62 81/81/81 244/244/244
f 244/244/244 227/227/227 62/62/62
f 77/77/77 69/69/69 233/233/233
f 233/233/233 240/240/240 77/77/77
f 13/13/13 3/3/3 167/167/167
f 167/167/167 177/177/177 13/13/13
f 161/161/161 159/159/159 323/323/323
f 323/323/323 326/326/326 161/161/161
f 99/99/99 117/117/117 280/280/280
f 280/280/280 263/263/263 99/99/99
f 121/121/121 123/123/123 288/288/288
f 288/288/288 286/286/286 121/121/121
f 153/153/153 150/150/150 315/315/315
f 315/315/315 317/317/317 153/153/153
f 123/123/123 126/126/126 289/289/289
f 289/289/289 288/288/288 123/123/123
f 33/33/33 21/21/21 185/185/185
f 185/185/185 198/198/198 33/33/33
f 78/78/78 77/77/77 240/240/240
f 240/240/240 243/243/243 78/78/78
f 71/71/71 59/59/59 224/224/224
f 224/224/224 235/235/235 71/71/71
f 126/126/126 127/127/127 291/291/291
f 291/291/291 289/289/289 126/126/126
f 26/26/26 36/36/36 199/199/199
f 199/199/199 189/189/189 26/26/26
f 81/81/81 78/78/78 243/243/243
f 243/243/243 244/244/244 81/81/81
f 29/29/29 33/33/33 198/198/198
f 198/198/198 191/191/191 29/29/29
f 36/36/36 31/31/31 194/194/194
f 194/194/194 199/199/199 36/36/36
f 74/74/74 72/72/72 237/237/237
f 237/237/237 238/238/238 74/74/74
f 19/19/19 17/17/17 182/182/182
f 182/182/182 184/184/184 19/19/19
f 159/159/159 157/157/157 322/322/322
f 322/322/322 323/323/323 159/159/159
f 96/96/96 84/84/84 247/247/247
f 247/247/247 260/260/260 96/96/96
f 85/85/85 95/95/95 258/258/258
f 258/258/258 250/250/250 85/85/85
f 141/141/141 137/137/137 302/302/302
f 302/302/302 305/305/305 141/141/141
f 150/150/150 131/131/131 296/296/296
f 296/296/296 315/315/315 150/150/150
f 49/49/49 37/37/37 201/201/201
f 201/201/201 213/213/213 49/49/49
f 95/95/95 91/91/91 257/257/257
f 257/257/257 258/258/258 95/95/95
f 7/7/7 15/15/15 180/180/180
f 180/180/180 173/173/173 7/7/7
f 146/146/146 143/143/143 308/308/308
f 308/308/308 310/310/310 146/146/146
f 43/43/43 51/51/51 215/215/215
f 215/215/215 209/209/209 43/43/43
f 40/40/40 57/57/57 220/220/220
f 220/220/220 206/206/206 40/40/40
f 135/135/135 161/161/161 326/326/326
f 326/326/326 300/300/300 135/135/135
f 149/149/149 145/145/145 309/309/309
f 309/309/309 312/312/312 149/149/149
f 54/54/54 47/47/47 211/211/211
f 211/211/211 218/218/218 54/54/54
f 163/163/163 136/136/136 299/299/299
f 299/299/299 327/327/327 163/163/163
f 139/139/139 163/163/163 327/327/327
f 327/327/327 301/301/301 139/139/139

