mtllib material.mtl
usemtl Material-7011油漆.022
v -0.02913800 0.12493200 -0.05265900
v -0.02913800 0.12493200 -0.05265900
v -0.02913800 0.12493200 -0.05265900
v -0.01422000 0.12563200 -0.05319700
v -0.01422000 0.12563200 -0.05319700
v -0.01422000 0.12563200 -0.05319700
v -0.02913800 0.12563200 -0.05265900
v -0.02913800 0.12563200 -0.05265900
v -0.02913800 0.12563200 -0.05265900
v -0.01421900 0.12563200 -0.05319700
v -0.01421900 0.12563200 -0.05319700
v -0.01421900 0.12563200 -0.05319700
v -0.01421900 0.12493200 -0.05319700
v -0.01421900 0.12493200 -0.05319700
v -0.01421900 0.12493200 -0.05319700
v -0.01541100 0.12529300 -0.05852800
v -0.01541100 0.12529300 -0.05852800
v -0.01541100 0.12529300 -0.05852800
v -0.01576600 0.12563200 -0.05463600
v -0.01576600 0.12563200 -0.05463600
v -0.01576600 0.12563200 -0.05463600
v -0.01576600 0.12493200 -0.05463600
v -0.01576600 0.12493200 -0.05463600
v -0.01576600 0.12493200 -0.05463600
v -0.02369000 0.12476200 -0.05437100
v -0.02369000 0.12476200 -0.05437100
v -0.02369000 0.12476200 -0.05437100
v -0.02914200 0.12542200 -0.05414000
v -0.02914200 0.12542200 -0.05414000
v -0.02914200 0.12542200 -0.05414000
v -0.01576600 0.12493200 -0.05463500
v -0.01576600 0.12493200 -0.05463500
v -0.01576600 0.12493200 -0.05463500
v -0.01576600 0.12563200 -0.05463500
v -0.01576600 0.12563200 -0.05463500
v -0.01576600 0.12563200 -0.05463500
v -0.01541200 0.12529300 -0.05852800
v -0.01541200 0.12529300 -0.05852800
v -0.01541200 0.12529300 -0.05852800
v -0.02914200 0.12542100 -0.05414000
v -0.02914200 0.12542100 -0.05414000
v -0.02914200 0.12542100 -0.05414000
v -0.02369000 0.12476100 -0.05437000
v -0.02369000 0.12476100 -0.05437000
v -0.02369000 0.12476100 -0.05437000
v -0.02369000 0.12476100 -0.05437000
v -0.02913800 0.12493100 -0.05266000
v -0.02913800 0.12493100 -0.05266000
v -0.02913800 0.12493100 -0.05266000
v -0.02913800 0.12493100 -0.05266000
v -0.01576600 0.12493100 -0.05463500
v -0.01576600 0.12493100 -0.05463500
v -0.01576600 0.12493100 -0.05463500
v -0.01576600 0.12493100 -0.05463500
v -0.01422000 0.12493100 -0.05319700
v -0.01422000 0.12493100 -0.05319700
v -0.01422000 0.12493100 -0.05319700
v -0.01541100 0.12529300 -0.05852800
v -0.01541100 0.12529300 -0.05852800
v -0.01541100 0.12529300 -0.05852800
v -0.01576600 0.12563200 -0.05463500
v -0.01576600 0.12563200 -0.05463500
v -0.01576600 0.12563200 -0.05463500
v -0.02914200 0.12542200 -0.05414000
v -0.02914200 0.12542200 -0.05414000
v -0.02914200 0.12542200 -0.05414000
v -0.02913800 0.12563200 -0.05266000
v -0.02913800 0.12563200 -0.05266000
v -0.02913800 0.12563200 -0.05266000
v -0.01422000 0.12563200 -0.05319700
v -0.01422000 0.12563200 -0.05319700
v -0.01422000 0.12563200 -0.05319700
v -0.01541100 0.12529400 -0.05852800
v -0.01541100 0.12529400 -0.05852800
v -0.01541100 0.12529400 -0.05852800
v -0.02914300 0.12542200 -0.05414000
v -0.02914300 0.12542200 -0.05414000
v -0.02914300 0.12542200 -0.05414000
v -0.02913900 0.12493200 -0.05266000
v -0.02913900 0.12493200 -0.05266000
v -0.02913900 0.12493200 -0.05266000
v -0.02913900 0.12563200 -0.05266000
v -0.02913900 0.12563200 -0.05266000
v -0.02913900 0.12563200 -0.05266000
v -0.01422000 0.12493200 -0.05319700
v -0.01422000 0.12493200 -0.05319700
v -0.01422000 0.12493200 -0.05319700
v -0.02913800 0.12493200 -0.05266000
v -0.02913800 0.12493200 -0.05266000
v -0.02913800 0.12493200 -0.05266000
v -0.01422000 0.12563200 -0.05319800
v -0.01422000 0.12563200 -0.05319800
v -0.01422000 0.12563200 -0.05319800
v -0.02913800 0.12563200 -0.05266000
v -0.02913800 0.12563200 -0.05266000
v -0.02913800 0.12563200 -0.05266000
v -0.01422000 0.12563200 -0.05319700
v -0.01422000 0.12563200 -0.05319700
v -0.01422000 0.12563200 -0.05319700
v -0.01422000 0.12493200 -0.05319700
v -0.01422000 0.12493200 -0.05319700
v -0.01422000 0.12493200 -0.05319700
v -0.01541200 0.12529300 -0.05852800
v -0.01541200 0.12529300 -0.05852800
v -0.01541200 0.12529300 -0.05852800
v -0.01576600 0.12563200 -0.05463500
v -0.01576600 0.12563200 -0.05463500
v -0.01576600 0.12563200 -0.05463500
v -0.01576600 0.12563200 -0.05463500
v -0.01576600 0.12493200 -0.05463500
v -0.01576600 0.12493200 -0.05463500
v -0.01576600 0.12493200 -0.05463500
v -0.02369000 0.12476200 -0.05437000
v -0.02369000 0.12476200 -0.05437000
v -0.02369000 0.12476200 -0.05437000
v -0.02369000 0.12476200 -0.05437000
v -0.02914200 0.12542200 -0.05413900
v -0.02914200 0.12542200 -0.05413900
v -0.02914200 0.12542200 -0.05413900
v -0.01576500 0.12493200 -0.05463500
v -0.01576500 0.12493200 -0.05463500
v -0.01576500 0.12493200 -0.05463500
v -0.01576500 0.12563200 -0.05463500
v -0.01576500 0.12563200 -0.05463500
v -0.01576500 0.12563200 -0.05463500
v -0.01541100 0.12529300 -0.05852800
v -0.01541100 0.12529300 -0.05852800
v -0.01541100 0.12529300 -0.05852800
v -0.02914200 0.12542200 -0.05414000
v -0.02914200 0.12542200 -0.05414000
v -0.02914200 0.12542200 -0.05414000
v -0.02369000 0.12476200 -0.05437000
v -0.02369000 0.12476200 -0.05437000
v -0.02369000 0.12476200 -0.05437000
v -0.02369000 0.12476200 -0.05437000
v -0.02913800 0.12493200 -0.05266000
v -0.02913800 0.12493200 -0.05266000
v -0.02913800 0.12493200 -0.05266000
v -0.02913800 0.12493200 -0.05266000
v -0.02913800 0.12493200 -0.05266000
v -0.01576600 0.12493200 -0.05463500
v -0.01576600 0.12493200 -0.05463500
v -0.01576600 0.12493200 -0.05463500
v -0.01576600 0.12493200 -0.05463500
v -0.01576600 0.12493200 -0.05463500
v -0.01422000 0.12493200 -0.05319700
v -0.01422000 0.12493200 -0.05319700
v -0.01422000 0.12493200 -0.05319700
v -0.01422000 0.12493200 -0.05319700
v -0.01541100 0.12529400 -0.05852800
v -0.01541100 0.12529400 -0.05852800
v -0.01541100 0.12529400 -0.05852800
v -0.01576600 0.12563100 -0.05463500
v -0.01576600 0.12563100 -0.05463500
v -0.01576600 0.12563100 -0.05463500
v -0.01576600 0.12563100 -0.05463500
v -0.01576600 0.12563100 -0.05463500
v -0.02914200 0.12542100 -0.05414000
v -0.02914200 0.12542100 -0.05414000
v -0.02914200 0.12542100 -0.05414000
v -0.02913800 0.12563100 -0.05266000
v -0.02913800 0.12563100 -0.05266000
v -0.02913800 0.12563100 -0.05266000
v -0.02913800 0.12563100 -0.05266000
v -0.01422000 0.12563100 -0.05319700
v -0.01422000 0.12563100 -0.05319700
v -0.01422000 0.12563100 -0.05319700
v -0.01422000 0.12563100 -0.05319700
v -0.01541100 0.12529300 -0.05852800
v -0.01541100 0.12529300 -0.05852800
v -0.01541100 0.12529300 -0.05852800
v -0.02914200 0.12542200 -0.05414000
v -0.02914200 0.12542200 -0.05414000
v -0.02914200 0.12542200 -0.05414000
v -0.02913800 0.12493200 -0.05266000
v -0.02913800 0.12493200 -0.05266000
v -0.02913800 0.12493200 -0.05266000
v -0.02913800 0.12563200 -0.05266000
v -0.02913800 0.12563200 -0.05266000
v -0.02913800 0.12563200 -0.05266000
v -0.01422000 0.12493200 -0.05319800
v -0.01422000 0.12493200 -0.05319800
v -0.01422000 0.12493200 -0.05319800
vn 0.03600000 0.00000000 0.99940000
vn -0.99940000 0.00000000 0.03540000
vn -0.00000000 -1.00000000 -0.00000000
vn 0.00000000 1.00000000 0.00000000
vn 0.99930000 0.00000000 -0.03620000
vn 0.03600000 0.00000000 0.99940000
vn 0.03600000 0.00000000 0.99940000
vn 0.00000000 1.00000000 0.00000000
vn -0.99940000 0.00000000 0.03540000
vn 0.99940000 0.00000000 -0.03600000
vn 0.21560000 0.18290000 0.95920000
vn 0.16430000 0.98120000 -0.10130000
vn 0.99940000 0.00000000 -0.03600000
vn 0.21530000 -0.18290000 0.95930000
vn 0.16310000 -0.98050000 -0.10930000
vn -0.10820000 -0.98990000 0.09170000
vn 0.99940000 0.00000000 -0.03600000
vn -0.11480000 0.98890000 0.09440000
vn -0.03210000 0.99890000 -0.03410000
vn -0.03600000 0.00000000 -0.99940000
vn 0.99940000 -0.00250000 -0.03370000
vn 0.02110000 -0.99970000 -0.01210000
vn 0.99940000 0.00250000 -0.03340000
vn -0.03600000 0.00000000 -0.99940000
vn 0.01930000 -0.99970000 -0.01650000
vn -0.03600000 0.00000000 -0.99940000
vn -0.09650000 -0.99340000 -0.06150000
vn 0.00170000 0.99940000 -0.03450000
vn -0.03600000 0.00000000 -0.99940000
vn -0.15310000 -0.98810000 -0.01240000
vn -0.99940000 -0.00000000 0.03600000
vn -0.08910000 -0.12640000 0.98800000
vn -0.11680000 -0.98750000 -0.10630000
vn -0.08930000 0.12640000 0.98790000
vn -0.11730000 0.98800000 -0.10060000
vn -0.99940000 -0.00000000 0.03600000
vn 0.08730000 -0.99620000 0.00780000
vn -0.99940000 -0.00000000 0.03600000
vn 0.09170000 0.99570000 0.00920000
vn 0.31890000 0.15790000 -0.93450000
vn -0.89940000 0.35980000 0.24840000
vn -0.00000000 -1.00000000 -0.00000000
vn -0.16130000 -0.18130000 -0.97010000
vn -0.00000000 -1.00000000 -0.00000000
vn -0.14170000 -0.22130000 -0.96490000
vn 0.00000000 -1.00000000 0.00010000
vn 0.03560000 -0.14660000 0.98860000
vn -0.97350000 -0.19750000 -0.11500000
vn -0.00000000 -1.00000000 -0.00000000
vn 0.00000000 -1.00000000 0.00010000
vn 0.00000000 -1.00000000 0.00010000
vn -0.00000000 -1.00000000 -0.00000000
vn 0.13750000 0.03590000 -0.98980000
vn -0.98320000 -0.16740000 -0.07310000
vn -0.00000000 -1.00000000 -0.00000000
vn 0.96800000 -0.04200000 -0.24750000
vn 0.03560000 -0.14660000 0.98860000
vn -0.00000000 -1.00000000 -0.00000000
vn 0.99330000 0.00270000 -0.11560000
vn -0.98840000 0.05220000 -0.14270000
vn 0.00000000 1.00000000 0.00000000
vn -0.98490000 0.15730000 -0.07280000
vn -0.08610000 0.04040000 -0.99550000
vn 0.00000000 1.00000000 0.00000000
vn 0.10810000 -0.10710000 -0.98830000
vn -0.98720000 -0.15340000 0.04410000
vn 0.03590000 0.08330000 0.99590000
vn -0.99220000 0.12280000 -0.02050000
vn 0.00000000 1.00000000 0.00000000
vn 0.96790000 0.03900000 -0.24840000
vn 0.00000000 1.00000000 0.00000000
vn 0.03590000 0.08330000 0.99590000
vn 0.99220000 -0.00340000 -0.12480000
vn -0.98910000 -0.04830000 -0.13890000
vn 0.00000000 1.00000000 0.00000000
vn 0.01540000 -0.95830000 -0.28540000
vn 0.02950000 0.99170000 -0.12480000
vn -0.99940000 -0.00000000 0.03600000
vn -0.99940000 -0.00000000 0.03600000
vn 0.00330000 -0.03310000 0.99940000
vn -0.03310000 -0.94800000 -0.31650000
vn -0.03320000 0.98940000 -0.14150000
vn 0.00150000 0.03320000 0.99940000
vn -0.99940000 -0.00000000 0.03600000
vn -0.00000000 -1.00000000 -0.00000000
vn 0.99930000 0.00000000 -0.03620000
vn 0.03600000 0.00000000 0.99940000
vn -0.99940000 0.00000000 0.03540000
vn -0.03600000 0.00000000 -0.99940000
vn -0.00000000 -1.00000000 -0.00000000
vn 0.99930000 0.00000000 -0.03620000
vn -0.03600000 0.00000000 -0.99940000
vn 0.00000000 1.00000000 0.00000000
vn -0.03600000 0.00000000 -0.99940000
vn 0.00000000 1.00000000 0.00000000
vn -0.99940000 0.00000000 0.03540000
vn 0.03070000 0.99230000 0.11990000
vn 0.04100000 -0.00370000 0.99920000
vn -0.96190000 0.18260000 0.20350000
vn 0.04100000 0.00400000 0.99920000
vn 0.02990000 -0.99330000 0.11170000
vn -0.96210000 -0.18250000 0.20270000
vn 0.13860000 0.98940000 0.04380000
vn -0.91950000 -0.00080000 0.39300000
vn 0.14280000 -0.98940000 0.02820000
vn 0.03450000 -0.00010000 0.99940000
vn 0.03370000 -0.00250000 0.99940000
vn 0.01900000 0.99970000 -0.01690000
vn 0.99940000 0.00030000 -0.03590000
vn 0.99940000 0.00010000 -0.03590000
vn 0.03340000 0.00250000 0.99940000
vn 0.01860000 -0.99970000 -0.01460000
vn -0.09110000 -0.99580000 -0.00800000
vn 0.01930000 -0.99970000 -0.01290000
vn 0.03090000 -0.00030000 0.99950000
vn 0.03550000 -0.07600000 0.99650000
vn 0.04320000 -0.00040000 0.99910000
vn -0.10140000 -0.99480000 0.00090000
vn -0.04900000 0.99870000 -0.01650000
vn 0.98890000 -0.12590000 0.07830000
vn 0.03290000 0.00380000 0.99940000
vn -0.00670000 -0.99940000 0.03400000
vn 0.03300000 -0.00360000 0.99950000
vn 0.98890000 0.12600000 0.07910000
vn -0.00690000 0.99920000 0.03960000
vn 0.97640000 -0.00070000 0.21590000
vn -0.08680000 0.99620000 -0.00240000
vn -0.09040000 -0.99580000 -0.01280000
vn -0.94870000 -0.11120000 0.29610000
vn 0.04260000 -0.22910000 -0.97250000
vn 0.43170000 0.81140000 0.39390000
vn -0.06190000 0.93050000 -0.36110000
vn -0.16480000 0.08220000 -0.98290000
vn 0.14860000 0.98860000 -0.02610000
vn 0.31100000 -0.03370000 -0.94980000
vn 0.02910000 0.99960000 -0.00660000
vn 0.03560000 -0.14660000 0.98860000
vn -0.21260000 0.93640000 0.27920000
vn -0.93900000 -0.04430000 0.34110000
vn 0.00000000 1.00000000 0.00000000
vn 0.00000000 1.00000000 0.00000000
vn -0.11590000 0.10440000 -0.98780000
vn -0.02140000 0.99980000 0.00200000
vn -0.19380000 0.97830000 0.07320000
vn -0.99940000 -0.03080000 0.01820000
vn 0.03440000 0.99760000 0.05990000
vn 0.99430000 0.03170000 -0.10150000
vn 0.00000000 1.00000000 0.00000000
vn 0.03560000 -0.14660000 0.98860000
vn 0.01030000 0.98720000 0.15910000
vn -0.99990000 -0.00460000 0.01110000
vn 0.96150000 -0.02900000 -0.27330000
vn -0.00000000 -1.00000000 -0.00000000
vn 0.01560000 -0.99990000 -0.00150000
vn -0.18190000 -0.98090000 0.06880000
vn -0.99950000 0.02940000 0.01290000
vn 0.10040000 -0.04070000 -0.99410000
vn 0.16160000 -0.97480000 0.15370000
vn -0.01760000 0.04870000 -0.99870000
vn -0.98970000 0.02230000 0.14170000
vn -0.98940000 0.00850000 0.14490000
vn -0.00000000 -1.00000000 -0.00000000
vn -0.12130000 -0.98270000 0.13970000
vn 0.03590000 0.08330000 0.99590000
vn 0.03590000 0.08330000 0.99590000
vn 0.99320000 -0.03040000 -0.11200000
vn -0.00000000 -1.00000000 -0.00000000
vn 0.03220000 -0.99790000 0.05620000
vn -1.00000000 0.00400000 0.00580000
vn 0.96180000 0.02720000 -0.27230000
vn 0.00970000 -0.98870000 0.14930000
vn -0.01530000 0.99370000 -0.11080000
vn -0.02950000 -0.95390000 -0.29870000
vn 0.99950000 -0.00590000 0.03000000
vn 0.03310000 0.00330000 0.99940000
vn 0.99940000 -0.03160000 -0.01320000
vn -0.00330000 -0.95940000 -0.28190000
vn -0.00150000 0.99420000 -0.10710000
vn 0.03320000 -0.00150000 0.99940000
vn 0.99940000 0.03290000 -0.00740000
vn 0.99930000 0.00000000 -0.03620000
vn -0.00000000 -1.00000000 -0.00000000
vn -0.03600000 0.00000000 -0.99940000
vt 0.66465600 0.96919200
vt 0.66465600 0.96919200
vt 0.66465600 0.96919200
vt 0.79281300 1.00000000
vt 0.79281300 1.00000000
vt 0.79281300 1.00000000
vt 0.66465600 1.00000000
vt 0.66465600 1.00000000
vt 0.66465600 1.00000000
vt 0.79281300 1.00000000
vt 0.79281300 1.00000000
vt 0.79281300 1.00000000
vt 0.79281300 0.96919200
vt 0.79281300 0.96919200
vt 0.79281300 0.96919200
vt 0.83940000 0.98510200
vt 0.83940000 0.98510200
vt 0.83940000 0.98510200
vt 0.87217300 1.00000000
vt 0.87217300 1.00000000
vt 0.87217300 1.00000000
vt 0.87217300 0.96919200
vt 0.87217300 0.96919200
vt 0.87217300 0.96919200
vt 0.94023900 0.96172400
vt 0.94023900 0.96172400
vt 0.94023900 0.96172400
vt 0.98708700 0.99078400
vt 0.98708700 0.99078400
vt 0.98708700 0.99078400
vt 1.00000000 0.96919200
vt 1.00000000 0.96919200
vt 1.00000000 0.96919200
vt 1.00000000 1.00000000
vt 1.00000000 1.00000000
vt 1.00000000 1.00000000
vt 0.96774900 0.98480600
vt 0.96774900 0.98480600
vt 0.96774900 0.98480600
vt 0.00010900 0.06654300
vt 0.00010900 0.06654300
vt 0.00010900 0.06654300
vt 0.01667200 0.06590100
vt 0.01667200 0.06590100
vt 0.01667200 0.06590100
vt 0.01667200 0.06590100
vt 0.00000000 -0.00000000
vt 0.00000000 -0.00000000
vt 0.00000000 -0.00000000
vt 0.00000000 -0.00000000
vt 0.04068900 0.06570800
vt 0.04068900 0.06570800
vt 0.04068900 0.06570800
vt 0.04068900 0.06570800
vt 0.04521100 0.00000000
vt 0.04521100 0.00000000
vt 0.04521100 0.00000000
vt 0.04218600 0.23659700
vt 0.04218600 0.23659700
vt 0.04218600 0.23659700
vt 0.04068900 0.06570800
vt 0.04068900 0.06570800
vt 0.04068900 0.06570800
vt 0.00015800 0.06430900
vt 0.00015800 0.06430900
vt 0.00015800 0.06430900
vt 0.00000000 0.00000000
vt 0.00000000 0.00000000
vt 0.00000000 0.00000000
vt 0.04521100 0.00000000
vt 0.04521100 0.00000000
vt 0.04521100 0.00000000
vt 0.04216500 0.23754300
vt 0.04216500 0.23754300
vt 0.04216500 0.23754300
vt 0.65195400 0.99075900
vt 0.65195400 0.99075900
vt 0.65195400 0.99075900
vt 0.66465600 0.96919200
vt 0.66465600 0.96919200
vt 0.66465600 0.96919200
vt 0.66465600 1.00000000
vt 0.66465600 1.00000000
vt 0.66465600 1.00000000
vt 0.79281300 0.96919200
vt 0.79281300 0.96919200
vt 0.79281300 0.96919200
vt 0.66465600 0.96919200
vt 0.66465600 0.96919200
vt 0.66465600 0.96919200
vt 0.79281300 1.00000000
vt 0.79281300 1.00000000
vt 0.79281300 1.00000000
vt 0.66465600 1.00000000
vt 0.66465600 1.00000000
vt 0.66465600 1.00000000
vt 0.79281300 1.00000000
vt 0.79281300 1.00000000
vt 0.79281300 1.00000000
vt 0.79281300 0.96919200
vt 0.79281300 0.96919200
vt 0.79281300 0.96919200
vt 0.83940000 0.98510200
vt 0.83940000 0.98510200
vt 0.83940000 0.98510200
vt 0.87217300 1.00000000
vt 0.87217300 1.00000000
vt 0.87217300 1.00000000
vt 0.87217300 1.00000000
vt 0.87217300 0.96919200
vt 0.87217300 0.96919200
vt 0.87217300 0.96919200
vt 0.94023900 0.96172400
vt 0.94023900 0.96172400
vt 0.94023900 0.96172400
vt 0.94023900 0.96172400
vt 0.98708700 0.99078400
vt 0.98708700 0.99078400
vt 0.98708700 0.99078400
vt 1.00000000 0.96919200
vt 1.00000000 0.96919200
vt 1.00000000 0.96919200
vt 1.00000000 1.00000000
vt 1.00000000 1.00000000
vt 1.00000000 1.00000000
vt 0.96774900 0.98480600
vt 0.96774900 0.98480600
vt 0.96774900 0.98480600
vt 0.00010900 0.06654300
vt 0.00010900 0.06654300
vt 0.00010900 0.06654300
vt 0.01667200 0.06590100
vt 0.01667200 0.06590100
vt 0.01667200 0.06590100
vt 0.01667200 0.06590100
vt 0.00000000 -0.00000000
vt 0.00000000 -0.00000000
vt 0.00000000 -0.00000000
vt 0.00000000 -0.00000000
vt 0.00000000 -0.00000000
vt 0.04068900 0.06570800
vt 0.04068900 0.06570800
vt 0.04068900 0.06570800
vt 0.04068900 0.06570800
vt 0.04068900 0.06570800
vt 0.04521100 0.00000000
vt 0.04521100 0.00000000
vt 0.04521100 0.00000000
vt 0.04521100 0.00000000
vt 0.04218600 0.23659700
vt 0.04218600 0.23659700
vt 0.04218600 0.23659700
vt 0.04068900 0.06570800
vt 0.04068900 0.06570800
vt 0.04068900 0.06570800
vt 0.04068900 0.06570800
vt 0.04068900 0.06570800
vt 0.00015800 0.06430900
vt 0.00015800 0.06430900
vt 0.00015800 0.06430900
vt 0.00000000 0.00000000
vt 0.00000000 0.00000000
vt 0.00000000 0.00000000
vt 0.00000000 0.00000000
vt 0.04521100 0.00000000
vt 0.04521100 0.00000000
vt 0.04521100 0.00000000
vt 0.04521100 0.00000000
vt 0.04216500 0.23754300
vt 0.04216500 0.23754300
vt 0.04216500 0.23754300
vt 0.65195400 0.99075900
vt 0.65195400 0.99075900
vt 0.65195400 0.99075900
vt 0.66465600 0.96919200
vt 0.66465600 0.96919200
vt 0.66465600 0.96919200
vt 0.66465600 1.00000000
vt 0.66465600 1.00000000
vt 0.66465600 1.00000000
vt 0.79281300 0.96919200
vt 0.79281300 0.96919200
vt 0.79281300 0.96919200
f 1/1/1 87/87/87 6/6/6
f 10/10/10 13/13/13 17/17/17
f 20/20/20 24/24/24 26/26/26
f 26/26/26 29/29/29 20/20/20
f 31/31/31 36/36/36 38/38/38
f 42/42/42 44/44/44 49/49/49
f 52/52/52 55/55/55 49/49/49
f 55/55/55 52/52/52 58/58/58
f 61/61/61 64/64/64 69/69/69
f 71/71/71 75/75/75 61/61/61
f 78/78/78 79/79/79 84/84/84
f 51/51/51 50/50/50 46/46/46
f 61/61/61 69/69/69 71/71/71
f 1/1/1 6/6/6 7/7/7
f 89/89/89 92/92/92 183/183/183
f 99/99/99 104/104/104 102/102/102
f 107/107/107 115/115/115 111/111/111
f 116/116/116 106/106/106 117/117/117
f 120/120/120 126/126/126 124/124/124
f 131/131/131 138/138/138 134/134/134
f 141/141/141 140/140/140 148/148/148
f 146/146/146 150/150/150 144/144/144
f 154/154/154 163/163/163 158/158/158
f 168/168/168 155/155/155 171/171/171
f 174/174/174 180/180/180 176/176/176
f 143/143/143 132/132/132 136/136/136
f 153/153/153 167/167/167 162/162/162
f 89/89/89 94/94/94 92/92/92
f 2/2/2 9/9/9 96/96/96
f 96/96/96 88/88/88 2/2/2
f 14/14/14 11/11/11 98/98/98
f 98/98/98 100/100/100 14/14/14
f 12/12/12 18/18/18 103/103/103
f 103/103/103 97/97/97 12/12/12
f 23/23/23 21/21/21 109/109/109
f 109/109/109 110/110/110 23/23/23
f 30/30/30 27/27/27 113/113/113
f 113/113/113 118/118/118 30/30/30
f 68/68/68 66/66/66 160/160/160
f 160/160/160 161/161/161 68/68/68
f 34/34/34 32/32/32 121/121/121
f 121/121/121 123/123/123 34/34/34
f 33/33/33 37/37/37 128/128/128
f 128/128/128 122/122/122 33/33/33
f 45/45/45 40/40/40 130/130/130
f 130/130/130 135/135/135 45/45/45
f 41/41/41 48/48/48 139/139/139
f 139/139/139 129/129/129 41/41/41
f 53/53/53 43/43/43 133/133/133
f 133/133/133 142/142/142 53/53/53
f 47/47/47 57/57/57 149/149/149
f 149/149/149 137/137/137 47/47/47
f 56/56/56 59/59/59 152/152/152
f 152/152/152 147/147/147 56/56/56
f 8/8/8 4/4/4 93/93/93
f 93/93/93 95/95/95 8/8/8
f 65/65/65 63/63/63 157/157/157
f 157/157/157 159/159/159 65/65/65
f 62/62/62 74/74/74 169/169/169
f 169/169/169 156/156/156 62/62/62
f 81/81/81 76/76/76 173/173/173
f 173/173/173 177/177/177 81/81/81
f 77/77/77 82/82/82 178/178/178
f 178/178/178 172/172/172 77/77/77
f 5/5/5 86/86/86 181/181/181
f 181/181/181 91/91/91 5/5/5
f 73/73/73 70/70/70 166/166/166
f 166/166/166 170/170/170 73/73/73
f 85/85/85 3/3/3 90/90/90
f 90/90/90 182/182/182 85/85/85
f 16/16/16 15/15/15 101/101/101
f 101/101/101 105/105/105 16/16/16
f 83/83/83 80/80/80 175/175/175
f 175/175/175 179/179/179 83/83/83
f 60/60/60 54/54/54 145/145/145
f 145/145/145 151/151/151 60/60/60
f 19/19/19 28/28/28 119/119/119
f 119/119/119 108/108/108 19/19/19
f 25/25/25 22/22/22 112/112/112
f 112/112/112 114/114/114 25/25/25
f 39/39/39 35/35/35 125/125/125
f 125/125/125 127/127/127 39/39/39
f 72/72/72 67/67/67 164/164/164
f 164/164/164 165/165/165 72/72/72

