mtllib material.mtl
usemtl Material-7011油漆.032
v 0.03929500 0.06833100 -0.00599500
v 0.03929500 0.06833100 -0.00599500
v 0.03929500 0.06833100 -0.00599500
v 0.03874200 0.06833100 -0.00889500
v 0.03874200 0.06833100 -0.00889500
v 0.03874200 0.06833100 -0.00889500
v 0.03797500 0.06833100 -0.01174600
v 0.03797500 0.06833100 -0.01174600
v 0.03797500 0.06833100 -0.01174600
v 0.03699800 0.06833100 -0.01453200
v 0.03699800 0.06833100 -0.01453200
v 0.03699800 0.06833100 -0.01453200
v 0.03581800 0.06833100 -0.01723800
v 0.03581800 0.06833100 -0.01723800
v 0.03581800 0.06833100 -0.01723800
v 0.03443900 0.06833100 -0.01984900
v 0.03443900 0.06833100 -0.01984900
v 0.03443900 0.06833100 -0.01984900
v 0.03287100 0.06833100 -0.02235100
v 0.03287100 0.06833100 -0.02235100
v 0.03287100 0.06833100 -0.02235100
v 0.03112100 0.06833100 -0.02472900
v 0.03112100 0.06833100 -0.02472900
v 0.03112100 0.06833100 -0.02472900
v 0.02920000 0.06833100 -0.02697100
v 0.02920000 0.06833100 -0.02697100
v 0.02920000 0.06833100 -0.02697100
v 0.02711700 0.06833100 -0.02906400
v 0.02711700 0.06833100 -0.02906400
v 0.02711700 0.06833100 -0.02906400
v 0.02488500 0.06833100 -0.03099700
v 0.02488500 0.06833100 -0.03099700
v 0.02488500 0.06833100 -0.03099700
v 0.02251600 0.06833100 -0.03275800
v 0.02251600 0.06833100 -0.03275800
v 0.02251600 0.06833100 -0.03275800
v 0.02002200 0.06833100 -0.03433900
v 0.02002200 0.06833100 -0.03433900
v 0.02002200 0.06833100 -0.03433900
v 0.01741800 0.06833100 -0.03573100
v 0.01741800 0.06833100 -0.03573100
v 0.01741800 0.06833100 -0.03573100
v 0.01471800 0.06833100 -0.03692500
v 0.01471800 0.06833100 -0.03692500
v 0.01471800 0.06833100 -0.03692500
v 0.01193700 0.06833100 -0.03791500
v 0.01193700 0.06833100 -0.03791500
v 0.01193700 0.06833100 -0.03791500
v 0.00908900 0.06833100 -0.03869700
v 0.00908900 0.06833100 -0.03869700
v 0.00908900 0.06833100 -0.03869700
v 0.00619200 0.06833100 -0.03926500
v 0.00619200 0.06833100 -0.03926500
v 0.00619200 0.06833100 -0.03926500
v 0.00326000 0.06833100 -0.03961600
v 0.00326000 0.06833100 -0.03961600
v 0.00326000 0.06833100 -0.03961600
v 0.00031100 0.06833100 -0.03974900
v 0.00031100 0.06833100 -0.03974900
v 0.00031100 0.06833100 -0.03974900
v -0.00264000 0.06833100 -0.03966200
v -0.00264000 0.06833100 -0.03966200
v -0.00264000 0.06833100 -0.03966200
v -0.00557700 0.06833100 -0.03935700
v -0.00557700 0.06833100 -0.03935700
v -0.00557700 0.06833100 -0.03935700
v -0.00848300 0.06833100 -0.03883400
v -0.00848300 0.06833100 -0.03883400
v -0.00848300 0.06833100 -0.03883400
v -0.01134200 0.06833100 -0.03809700
v -0.01134200 0.06833100 -0.03809700
v -0.01134200 0.06833100 -0.03809700
v -0.01413900 0.06833100 -0.03715000
v -0.01413900 0.06833100 -0.03715000
v -0.01413900 0.06833100 -0.03715000
v -0.01685700 0.06833100 -0.03599900
v -0.01685700 0.06833100 -0.03599900
v -0.01685700 0.06833100 -0.03599900
v -0.01685700 0.06833100 -0.03599900
v -0.01948300 0.06833100 -0.03464800
v -0.01948300 0.06833100 -0.03464800
v -0.01948300 0.06833100 -0.03464800
v -0.02200100 0.06833100 -0.03310600
v -0.02200100 0.06833100 -0.03310600
v -0.02200100 0.06833100 -0.03310600
v -0.02200100 0.06833100 -0.03310600
v -0.02439700 0.06833100 -0.03138200
v -0.02439700 0.06833100 -0.03138200
v -0.02439700 0.06833100 -0.03138200
v -0.02666000 0.06833100 -0.02948400
v -0.02666000 0.06833100 -0.02948400
v -0.02666000 0.06833100 -0.02948400
v -0.02877500 0.06833100 -0.02742400
v -0.02877500 0.06833100 -0.02742400
v -0.02877500 0.06833100 -0.02742400
v -0.03073100 0.06833100 -0.02521300
v -0.03073100 0.06833100 -0.02521300
v -0.03073100 0.06833100 -0.02521300
v -0.03251700 0.06833100 -0.02286200
v -0.03251700 0.06833100 -0.02286200
v -0.03251700 0.06833100 -0.02286200
v -0.03412500 0.06833100 -0.02038500
v -0.03412500 0.06833100 -0.02038500
v -0.03412500 0.06833100 -0.02038500
v -0.03554400 0.06833100 -0.01779600
v -0.03554400 0.06833100 -0.01779600
v -0.03554400 0.06833100 -0.01779600
v -0.03676700 0.06833100 -0.01510900
v -0.03676700 0.06833100 -0.01510900
v -0.03676700 0.06833100 -0.01510900
v -0.03778700 0.06833100 -0.01233800
v -0.03778700 0.06833100 -0.01233800
v -0.03778700 0.06833100 -0.01233800
v -0.03859800 0.06833100 -0.00949900
v -0.03859800 0.06833100 -0.00949900
v -0.03859800 0.06833100 -0.00949900
v -0.03913700 0.06833100 -0.00695500
v -0.03913700 0.06833100 -0.00695500
v -0.03913700 0.06833100 -0.00695500
v -0.03950800 0.06833100 -0.00438000
v -0.03950800 0.06833100 -0.00438000
v -0.03950800 0.06833100 -0.00438000
v -0.03971000 0.06833100 -0.00178700
v -0.03971000 0.06833100 -0.00178700
v -0.03971000 0.06833100 -0.00178700
v -0.03974200 0.06833100 0.00081400
v -0.03974200 0.06833100 0.00081400
v -0.03974200 0.06833100 0.00081400
v -0.03960300 0.06833100 0.00341200
v -0.03960300 0.06833100 0.00341200
v -0.03960300 0.06833100 0.00341200
v -0.03929500 0.06833100 0.00599500
v -0.03929500 0.06833100 0.00599500
v -0.03929500 0.06833100 0.00599500
v -0.03874200 0.06833100 0.00889500
v -0.03874200 0.06833100 0.00889500
v -0.03874200 0.06833100 0.00889500
v -0.03797500 0.06833100 0.01174600
v -0.03797500 0.06833100 0.01174600
v -0.03797500 0.06833100 0.01174600
v -0.03699800 0.06833100 0.01453200
v -0.03699800 0.06833100 0.01453200
v -0.03699800 0.06833100 0.01453200
v -0.03581800 0.06833100 0.01723800
v -0.03581800 0.06833100 0.01723800
v -0.03581800 0.06833100 0.01723800
v -0.03443900 0.06833100 0.01984900
v -0.03443900 0.06833100 0.01984900
v -0.03443900 0.06833100 0.01984900
v -0.03287100 0.06833100 0.02235100
v -0.03287100 0.06833100 0.02235100
v -0.03287100 0.06833100 0.02235100
v -0.03112100 0.06833100 0.02472900
v -0.03112100 0.06833100 0.02472900
v -0.03112100 0.06833100 0.02472900
v -0.02920000 0.06833100 0.02697100
v -0.02920000 0.06833100 0.02697100
v -0.02920000 0.06833100 0.02697100
v -0.02711700 0.06833100 0.02906400
v -0.02711700 0.06833100 0.02906400
v -0.02711700 0.06833100 0.02906400
v -0.02488500 0.06833100 0.03099700
v -0.02488500 0.06833100 0.03099700
v -0.02488500 0.06833100 0.03099700
v -0.02251600 0.06833100 0.03275800
v -0.02251600 0.06833100 0.03275800
v -0.02251600 0.06833100 0.03275800
v -0.02002200 0.06833100 0.03433900
v -0.02002200 0.06833100 0.03433900
v -0.02002200 0.06833100 0.03433900
v -0.01741800 0.06833100 0.03573100
v -0.01741800 0.06833100 0.03573100
v -0.01741800 0.06833100 0.03573100
v -0.01471800 0.06833100 0.03692500
v -0.01471800 0.06833100 0.03692500
v -0.01471800 0.06833100 0.03692500
v -0.01193700 0.06833100 0.03791500
v -0.01193700 0.06833100 0.03791500
v -0.01193700 0.06833100 0.03791500
v -0.00908900 0.06833100 0.03869700
v -0.00908900 0.06833100 0.03869700
v -0.00908900 0.06833100 0.03869700
v -0.00619200 0.06833100 0.03926500
v -0.00619200 0.06833100 0.03926500
v -0.00619200 0.06833100 0.03926500
v -0.00326000 0.06833100 0.03961600
v -0.00326000 0.06833100 0.03961600
v -0.00326000 0.06833100 0.03961600
v -0.00031100 0.06833100 0.03974900
v -0.00031100 0.06833100 0.03974900
v -0.00031100 0.06833100 0.03974900
v -0.00031100 0.06833100 0.03974900
v 0.00264000 0.06833100 0.03966200
v 0.00264000 0.06833100 0.03966200
v 0.00264000 0.06833100 0.03966200
v 0.00557700 0.06833100 0.03935700
v 0.00557700 0.06833100 0.03935700
v 0.00557700 0.06833100 0.03935700
v 0.00557700 0.06833100 0.03935700
v 0.00848300 0.06833100 0.03883400
v 0.00848300 0.06833100 0.03883400
v 0.00848300 0.06833100 0.03883400
v 0.00848300 0.06833100 0.03883400
v 0.01134200 0.06833100 0.03809700
v 0.01134200 0.06833100 0.03809700
v 0.01134200 0.06833100 0.03809700
v 0.01413900 0.06833100 0.03715000
v 0.01413900 0.06833100 0.03715000
v 0.01413900 0.06833100 0.03715000
v 0.01685700 0.06833100 0.03599900
v 0.01685700 0.06833100 0.03599900
v 0.01685700 0.06833100 0.03599900
v 0.01948300 0.06833100 0.03464800
v 0.01948300 0.06833100 0.03464800
v 0.01948300 0.06833100 0.03464800
v 0.02200100 0.06833100 0.03310600
v 0.02200100 0.06833100 0.03310600
v 0.02200100 0.06833100 0.03310600
v 0.02439700 0.06833100 0.03138200
v 0.02439700 0.06833100 0.03138200
v 0.02439700 0.06833100 0.03138200
v 0.02666000 0.06833100 0.02948400
v 0.02666000 0.06833100 0.02948400
v 0.02666000 0.06833100 0.02948400
v 0.02877500 0.06833100 0.02742400
v 0.02877500 0.06833100 0.02742400
v 0.02877500 0.06833100 0.02742400
v 0.03073100 0.06833100 0.02521300
v 0.03073100 0.06833100 0.02521300
v 0.03073100 0.06833100 0.02521300
v 0.03251700 0.06833100 0.02286200
v 0.03251700 0.06833100 0.02286200
v 0.03251700 0.06833100 0.02286200
v 0.03412500 0.06833100 0.02038500
v 0.03412500 0.06833100 0.02038500
v 0.03412500 0.06833100 0.02038500
v 0.03554400 0.06833100 0.01779600
v 0.03554400 0.06833100 0.01779600
v 0.03554400 0.06833100 0.01779600
v 0.03676700 0.06833100 0.01510900
v 0.03676700 0.06833100 0.01510900
v 0.03676700 0.06833100 0.01510900
v 0.03778700 0.06833100 0.01233800
v 0.03778700 0.06833100 0.01233800
v 0.03778700 0.06833100 0.01233800
v 0.03859800 0.06833100 0.00949900
v 0.03859800 0.06833100 0.00949900
v 0.03859800 0.06833100 0.00949900
v 0.03913700 0.06833100 0.00695500
v 0.03913700 0.06833100 0.00695500
v 0.03913700 0.06833100 0.00695500
v 0.03950800 0.06833100 0.00438000
v 0.03950800 0.06833100 0.00438000
v 0.03950800 0.06833100 0.00438000
v 0.03971000 0.06833100 0.00178700
v 0.03971000 0.06833100 0.00178700
v 0.03971000 0.06833100 0.00178700
v 0.03974200 0.06833100 -0.00081400
v 0.03974200 0.06833100 -0.00081400
v 0.03974200 0.06833100 -0.00081400
v 0.03960300 0.06833100 -0.00341200
v 0.03960300 0.06833100 -0.00341200
v 0.03960300 0.06833100 -0.00341200
v 0.03929500 0.06833200 -0.00599500
v 0.03929500 0.06833200 -0.00599500
v 0.03929500 0.06833200 -0.00599500
v 0.03874200 0.06833200 -0.00889500
v 0.03874200 0.06833200 -0.00889500
v 0.03874200 0.06833200 -0.00889500
v 0.03797500 0.06833200 -0.01174600
v 0.03797500 0.06833200 -0.01174600
v 0.03797500 0.06833200 -0.01174600
v 0.03699800 0.06833200 -0.01453200
v 0.03699800 0.06833200 -0.01453200
v 0.03699800 0.06833200 -0.01453200
v 0.03581800 0.06833200 -0.01723800
v 0.03581800 0.06833200 -0.01723800
v 0.03581800 0.06833200 -0.01723800
v 0.03443900 0.06833200 -0.01984900
v 0.03443900 0.06833200 -0.01984900
v 0.03443900 0.06833200 -0.01984900
v 0.03287100 0.06833200 -0.02235100
v 0.03287100 0.06833200 -0.02235100
v 0.03287100 0.06833200 -0.02235100
v 0.03112100 0.06833200 -0.02472900
v 0.03112100 0.06833200 -0.02472900
v 0.03112100 0.06833200 -0.02472900
v 0.02920000 0.06833200 -0.02697100
v 0.02920000 0.06833200 -0.02697100
v 0.02920000 0.06833200 -0.02697100
v 0.02711700 0.06833200 -0.02906400
v 0.02711700 0.06833200 -0.02906400
v 0.02711700 0.06833200 -0.02906400
v 0.02488500 0.06833200 -0.03099700
v 0.02488500 0.06833200 -0.03099700
v 0.02488500 0.06833200 -0.03099700
v 0.02251600 0.06833200 -0.03275800
v 0.02251600 0.06833200 -0.03275800
v 0.02251600 0.06833200 -0.03275800
v 0.02002200 0.06833200 -0.03433900
v 0.02002200 0.06833200 -0.03433900
v 0.02002200 0.06833200 -0.03433900
v 0.01741800 0.06833200 -0.03573100
v 0.01741800 0.06833200 -0.03573100
v 0.01741800 0.06833200 -0.03573100
v 0.01471800 0.06833200 -0.03692500
v 0.01471800 0.06833200 -0.03692500
v 0.01471800 0.06833200 -0.03692500
v 0.01193700 0.06833200 -0.03791500
v 0.01193700 0.06833200 -0.03791500
v 0.01193700 0.06833200 -0.03791500
v 0.00908900 0.06833200 -0.03869700
v 0.00908900 0.06833200 -0.03869700
v 0.00908900 0.06833200 -0.03869700
v 0.00619200 0.06833200 -0.03926500
v 0.00619200 0.06833200 -0.03926500
v 0.00619200 0.06833200 -0.03926500
v 0.00326000 0.06833200 -0.03961600
v 0.00326000 0.06833200 -0.03961600
v 0.00326000 0.06833200 -0.03961600
v 0.00031100 0.06833200 -0.03974900
v 0.00031100 0.06833200 -0.03974900
v 0.00031100 0.06833200 -0.03974900
v -0.00264000 0.06833200 -0.03966200
v -0.00264000 0.06833200 -0.03966200
v -0.00264000 0.06833200 -0.03966200
v -0.00557700 0.06833200 -0.03935700
v -0.00557700 0.06833200 -0.03935700
v -0.00557700 0.06833200 -0.03935700
v -0.00848300 0.06833200 -0.03883400
v -0.00848300 0.06833200 -0.03883400
v -0.00848300 0.06833200 -0.03883400
v -0.01134200 0.06833200 -0.03809700
v -0.01134200 0.06833200 -0.03809700
v -0.01134200 0.06833200 -0.03809700
v -0.01413900 0.06833200 -0.03715000
v -0.01413900 0.06833200 -0.03715000
v -0.01413900 0.06833200 -0.03715000
v -0.01685700 0.06833200 -0.03599900
v -0.01685700 0.06833200 -0.03599900
v -0.01685700 0.06833200 -0.03599900
v -0.01948300 0.06833200 -0.03464800
v -0.01948300 0.06833200 -0.03464800
v -0.01948300 0.06833200 -0.03464800
v -0.02200100 0.06833200 -0.03310600
v -0.02200100 0.06833200 -0.03310600
v -0.02200100 0.06833200 -0.03310600
v -0.02439700 0.06833200 -0.03138200
v -0.02439700 0.06833200 -0.03138200
v -0.02439700 0.06833200 -0.03138200
v -0.02666000 0.06833200 -0.02948400
v -0.02666000 0.06833200 -0.02948400
v -0.02666000 0.06833200 -0.02948400
v -0.02877500 0.06833200 -0.02742400
v -0.02877500 0.06833200 -0.02742400
v -0.02877500 0.06833200 -0.02742400
v -0.03073100 0.06833200 -0.02521300
v -0.03073100 0.06833200 -0.02521300
v -0.03073100 0.06833200 -0.02521300
v -0.03251700 0.06833200 -0.02286200
v -0.03251700 0.06833200 -0.02286200
v -0.03251700 0.06833200 -0.02286200
v -0.03412500 0.06833200 -0.02038500
v -0.03412500 0.06833200 -0.02038500
v -0.03412500 0.06833200 -0.02038500
v -0.03554400 0.06833200 -0.01779600
v -0.03554400 0.06833200 -0.01779600
v -0.03554400 0.06833200 -0.01779600
v -0.03676700 0.06833200 -0.01510900
v -0.03676700 0.06833200 -0.01510900
v -0.03676700 0.06833200 -0.01510900
v -0.03778700 0.06833200 -0.01233800
v -0.03778700 0.06833200 -0.01233800
v -0.03778700 0.06833200 -0.01233800
v -0.03859800 0.06833200 -0.00949900
v -0.03859800 0.06833200 -0.00949900
v -0.03859800 0.06833200 -0.00949900
v -0.03913700 0.06833200 -0.00695500
v -0.03913700 0.06833200 -0.00695500
v -0.03913700 0.06833200 -0.00695500
v -0.03950800 0.06833200 -0.00438000
v -0.03950800 0.06833200 -0.00438000
v -0.03950800 0.06833200 -0.00438000
v -0.03971000 0.06833200 -0.00178700
v -0.03971000 0.06833200 -0.00178700
v -0.03971000 0.06833200 -0.00178700
v -0.03974200 0.06833200 0.00081400
v -0.03974200 0.06833200 0.00081400
v -0.03974200 0.06833200 0.00081400
v -0.03960300 0.06833200 0.00341200
v -0.03960300 0.06833200 0.00341200
v -0.03960300 0.06833200 0.00341200
v -0.03929500 0.06833200 0.00599500
v -0.03929500 0.06833200 0.00599500
v -0.03929500 0.06833200 0.00599500
v -0.03874200 0.06833200 0.00889500
v -0.03874200 0.06833200 0.00889500
v -0.03874200 0.06833200 0.00889500
v -0.03797500 0.06833200 0.01174600
v -0.03797500 0.06833200 0.01174600
v -0.03797500 0.06833200 0.01174600
v -0.03699800 0.06833200 0.01453200
v -0.03699800 0.06833200 0.01453200
v -0.03699800 0.06833200 0.01453200
v -0.03581800 0.06833200 0.01723800
v -0.03581800 0.06833200 0.01723800
v -0.03581800 0.06833200 0.01723800
v -0.03443900 0.06833200 0.01984900
v -0.03443900 0.06833200 0.01984900
v -0.03443900 0.06833200 0.01984900
v -0.03287100 0.06833200 0.02235100
v -0.03287100 0.06833200 0.02235100
v -0.03287100 0.06833200 0.02235100
v -0.03112100 0.06833200 0.02472900
v -0.03112100 0.06833200 0.02472900
v -0.03112100 0.06833200 0.02472900
v -0.02920000 0.06833200 0.02697100
v -0.02920000 0.06833200 0.02697100
v -0.02920000 0.06833200 0.02697100
v -0.02711700 0.06833200 0.02906400
v -0.02711700 0.06833200 0.02906400
v -0.02711700 0.06833200 0.02906400
v -0.02488500 0.06833200 0.03099700
v -0.02488500 0.06833200 0.03099700
v -0.02488500 0.06833200 0.03099700
v -0.02251600 0.06833200 0.03275800
v -0.02251600 0.06833200 0.03275800
v -0.02251600 0.06833200 0.03275800
v -0.02002200 0.06833200 0.03433900
v -0.02002200 0.06833200 0.03433900
v -0.02002200 0.06833200 0.03433900
v -0.01741800 0.06833200 0.03573100
v -0.01741800 0.06833200 0.03573100
v -0.01741800 0.06833200 0.03573100
v -0.01471800 0.06833200 0.03692500
v -0.01471800 0.06833200 0.03692500
v -0.01471800 0.06833200 0.03692500
v -0.01193700 0.06833200 0.03791500
v -0.01193700 0.06833200 0.03791500
v -0.01193700 0.06833200 0.03791500
v -0.00908900 0.06833200 0.03869700
v -0.00908900 0.06833200 0.03869700
v -0.00908900 0.06833200 0.03869700
v -0.00619200 0.06833200 0.03926500
v -0.00619200 0.06833200 0.03926500
v -0.00619200 0.06833200 0.03926500
v -0.00326000 0.06833200 0.03961600
v -0.00326000 0.06833200 0.03961600
v -0.00326000 0.06833200 0.03961600
v -0.00031100 0.06833200 0.03974900
v -0.00031100 0.06833200 0.03974900
v -0.00031100 0.06833200 0.03974900
v -0.00031100 0.06833200 0.03974900
v 0.00264000 0.06833200 0.03966200
v 0.00264000 0.06833200 0.03966200
v 0.00264000 0.06833200 0.03966200
v 0.00557700 0.06833200 0.03935700
v 0.00557700 0.06833200 0.03935700
v 0.00557700 0.06833200 0.03935700
v 0.00557700 0.06833200 0.03935700
v 0.00848300 0.06833200 0.03883400
v 0.00848300 0.06833200 0.03883400
v 0.00848300 0.06833200 0.03883400
v 0.00848300 0.06833200 0.03883400
v 0.01134200 0.06833200 0.03809700
v 0.01134200 0.06833200 0.03809700
v 0.01134200 0.06833200 0.03809700
v 0.01413900 0.06833200 0.03715000
v 0.01413900 0.06833200 0.03715000
v 0.01413900 0.06833200 0.03715000
v 0.01685700 0.06833200 0.03599900
v 0.01685700 0.06833200 0.03599900
v 0.01685700 0.06833200 0.03599900
v 0.01948300 0.06833200 0.03464800
v 0.01948300 0.06833200 0.03464800
v 0.01948300 0.06833200 0.03464800
v 0.02200100 0.06833200 0.03310600
v 0.02200100 0.06833200 0.03310600
v 0.02200100 0.06833200 0.03310600
v 0.02439700 0.06833200 0.03138200
v 0.02439700 0.06833200 0.03138200
v 0.02439700 0.06833200 0.03138200
v 0.02666000 0.06833200 0.02948400
v 0.02666000 0.06833200 0.02948400
v 0.02666000 0.06833200 0.02948400
v 0.02877500 0.06833200 0.02742400
v 0.02877500 0.06833200 0.02742400
v 0.02877500 0.06833200 0.02742400
v 0.03073100 0.06833200 0.02521300
v 0.03073100 0.06833200 0.02521300
v 0.03073100 0.06833200 0.02521300
v 0.03251700 0.06833200 0.02286200
v 0.03251700 0.06833200 0.02286200
v 0.03251700 0.06833200 0.02286200
v 0.03412500 0.06833200 0.02038500
v 0.03412500 0.06833200 0.02038500
v 0.03412500 0.06833200 0.02038500
v 0.03554400 0.06833200 0.01779600
v 0.03554400 0.06833200 0.01779600
v 0.03554400 0.06833200 0.01779600
v 0.03676700 0.06833200 0.01510900
v 0.03676700 0.06833200 0.01510900
v 0.03676700 0.06833200 0.01510900
v 0.03778700 0.06833200 0.01233800
v 0.03778700 0.06833200 0.01233800
v 0.03778700 0.06833200 0.01233800
v 0.03859800 0.06833200 0.00949900
v 0.03859800 0.06833200 0.00949900
v 0.03859800 0.06833200 0.00949900
v 0.03913700 0.06833200 0.00695500
v 0.03913700 0.06833200 0.00695500
v 0.03913700 0.06833200 0.00695500
v 0.03950800 0.06833200 0.00438000
v 0.03950800 0.06833200 0.00438000
v 0.03950800 0.06833200 0.00438000
v 0.03971000 0.06833200 0.00178700
v 0.03971000 0.06833200 0.00178700
v 0.03971000 0.06833200 0.00178700
v 0.03974200 0.06833200 -0.00081400
v 0.03974200 0.06833200 -0.00081400
v 0.03974200 0.06833200 -0.00081400
v 0.03960300 0.06833200 -0.00341200
v 0.03960300 0.06833200 -0.00341200
v 0.03960300 0.06833200 -0.00341200
vn 0.00000000 -1.00000000 0.00000000
vn 0.99290000 0.00000000 -0.11890000
vn 0.98230000 0.00000000 -0.18740000
vn 0.98230000 0.00000000 -0.18740000
vn 0.00000000 -1.00000000 0.00000000
vn 0.96570000 0.00000000 -0.25970000
vn 0.94370000 0.00000000 -0.33080000
vn 0.96570000 0.00000000 -0.25970000
vn 0.00000000 -1.00000000 0.00000000
vn 0.91680000 0.00000000 -0.39940000
vn 0.00000000 -1.00000000 0.00000000
vn 0.94370000 0.00000000 -0.33080000
vn 0.00000000 -1.00000000 0.00000000
vn 0.88390000 0.00000000 -0.46770000
vn 0.91680000 0.00000000 -0.39940000
vn 0.00000000 -1.00000000 0.00000000
vn 0.88390000 0.00000000 -0.46770000
vn 0.84700000 0.00000000 -0.53150000
vn 0.84700000 0.00000000 -0.53150000
vn 0.80530000 0.00000000 -0.59280000
vn 0.00000000 -1.00000000 0.00000000
vn 0.75880000 0.00000000 -0.65130000
vn 0.00000000 -1.00000000 0.00000000
vn 0.80530000 0.00000000 -0.59280000
vn 0.70870000 0.00000000 -0.70550000
vn 0.00000000 -1.00000000 0.00000000
vn 0.75880000 0.00000000 -0.65130000
vn 0.65280000 0.00000000 -0.75750000
vn 0.00000000 -1.00000000 0.00000000
vn 0.70870000 0.00000000 -0.70550000
vn 0.00000000 -1.00000000 0.00000000
vn 0.59850000 0.00000000 -0.80110000
vn 0.65280000 0.00000000 -0.75750000
vn 0.00000000 -1.00000000 0.00000000
vn 0.53400000 0.00000000 -0.84550000
vn 0.59850000 0.00000000 -0.80110000
vn 0.00000000 -1.00000000 0.00000000
vn 0.47130000 0.00000000 -0.88200000
vn 0.53400000 0.00000000 -0.84550000
vn 0.47130000 0.00000000 -0.88200000
vn 0.00000000 -1.00000000 0.00000000
vn 0.40570000 0.00000000 -0.91400000
vn 0.33590000 0.00000000 -0.94190000
vn 0.40570000 0.00000000 -0.91400000
vn 0.00000000 -1.00000000 0.00000000
vn 0.26440000 0.00000000 -0.96440000
vn 0.00000000 -1.00000000 0.00000000
vn 0.33590000 0.00000000 -0.94190000
vn 0.26440000 0.00000000 -0.96440000
vn 0.00000000 -1.00000000 0.00000000
vn 0.19170000 0.00000000 -0.98150000
vn 0.19170000 0.00000000 -0.98150000
vn 0.11880000 0.00000000 -0.99290000
vn 0.00000000 -1.00000000 0.00000000
vn 0.04490000 0.00000000 -0.99900000
vn 0.00000000 -1.00000000 0.00000000
vn 0.11880000 0.00000000 -0.99290000
vn 0.04490000 0.00000000 -0.99900000
vn -0.02930000 0.00000000 -0.99960000
vn 0.00000000 -1.00000000 0.00000000
vn -0.02930000 0.00000000 -0.99960000
vn -0.10340000 0.00000000 -0.99460000
vn 0.00000000 -1.00000000 0.00000000
vn 0.00000000 -1.00000000 0.00000000
vn -0.10340000 0.00000000 -0.99460000
vn -0.17690000 0.00000000 -0.98420000
vn 0.00000000 -1.00000000 0.00000000
vn -0.17690000 0.00000000 -0.98420000
vn -0.25030000 0.00000000 -0.96820000
vn -0.32120000 0.00000000 -0.94700000
vn 0.00000000 -1.00000000 0.00000000
vn -0.25030000 0.00000000 -0.96820000
vn -0.39000000 0.00000000 -0.92080000
vn -0.32120000 0.00000000 -0.94700000
vn 0.00000000 -1.00000000 0.00000000
vn -0.45840000 0.00000000 -0.88880000
vn 0.00000000 -1.00000000 0.00000000
vn -0.39000000 0.00000000 -0.92080000
vn 0.00000000 -1.00000000 -0.00010000
vn -0.52230000 0.00000000 -0.85280000
vn -0.45840000 0.00000000 -0.88880000
vn 0.00000000 -1.00000000 -0.00010000
vn 0.00000000 -1.00000000 -0.00010000
vn 0.00000000 -1.00000000 0.00000000
vn -0.58320000 0.00000000 -0.81230000
vn -0.52230000 0.00000000 -0.85280000
vn 0.00000000 -1.00000000 0.00000000
vn -0.64350000 0.00000000 -0.76540000
vn -0.58320000 0.00000000 -0.81230000
vn -0.69820000 0.00000000 -0.71590000
vn 0.00000000 -1.00000000 0.00000000
vn -0.64350000 0.00000000 -0.76540000
vn 0.00000000 -1.00000000 0.00000000
vn -0.69820000 0.00000000 -0.71590000
vn -0.74950000 0.00000000 -0.66200000
vn 0.00000000 -1.00000000 0.00000000
vn -0.79490000 0.00000000 -0.60670000
vn -0.74950000 0.00000000 -0.66200000
vn -0.83790000 0.00000000 -0.54580000
vn -0.79490000 0.00000000 -0.60670000
vn 0.00000000 -1.00000000 0.00000000
vn -0.87710000 0.00000000 -0.48030000
vn 0.00000000 -1.00000000 0.00000000
vn -0.83790000 0.00000000 -0.54580000
vn -0.91020000 0.00000000 -0.41410000
vn 0.00000000 -1.00000000 0.00000000
vn -0.87710000 0.00000000 -0.48030000
vn -0.93840000 0.00000000 -0.34550000
vn -0.91020000 0.00000000 -0.41410000
vn 0.00000000 -1.00000000 0.00000000
vn -0.93840000 0.00000000 -0.34550000
vn -0.96130000 0.00000000 -0.27560000
vn 0.00000000 -1.00000000 0.00000000
vn -0.97830000 0.00000000 -0.20720000
vn 0.00000000 -1.00000000 0.00000000
vn -0.96130000 0.00000000 -0.27560000
vn -0.98980000 0.00000000 -0.14250000
vn 0.00000000 -1.00000000 0.00000000
vn -0.97830000 0.00000000 -0.20720000
vn -0.98980000 0.00000000 -0.14250000
vn 0.00000000 -1.00000000 0.00000000
vn -0.99700000 0.00000000 -0.07790000
vn -0.99700000 0.00000000 -0.07790000
vn -0.99990000 0.00000000 -0.01230000
vn 0.00000000 -1.00000000 0.00000000
vn -0.99860000 0.00000000 0.05320000
vn 0.00000000 -1.00000000 0.00000000
vn -0.99990000 0.00000000 -0.01230000
vn -0.99290000 0.00000000 0.11890000
vn -0.99860000 0.00000000 0.05320000
vn 0.00000000 -1.00000000 0.00000000
vn 0.00000000 -1.00000000 0.00000000
vn -0.99290000 0.00000000 0.11890000
vn -0.98230000 0.00000000 0.18740000
vn -0.98230000 0.00000000 0.18740000
vn 0.00000000 -1.00000000 0.00000000
vn -0.96570000 0.00000000 0.25970000
vn -0.94370000 0.00000000 0.33080000
vn -0.96570000 0.00000000 0.25970000
vn 0.00000000 -1.00000000 0.00000000
vn 0.00000000 -1.00000000 0.00000000
vn -0.94370000 0.00000000 0.33080000
vn -0.91680000 0.00000000 0.39940000
vn -0.88390000 0.00000000 0.46770000
vn -0.91680000 0.00000000 0.39940000
vn 0.00000000 -1.00000000 0.00000000
vn -0.88390000 0.00000000 0.46770000
vn -0.84700000 0.00000000 0.53150000
vn 0.00000000 -1.00000000 0.00000000
vn 0.00000000 -1.00000000 0.00000000
vn -0.80530000 0.00000000 0.59280000
vn -0.84700000 0.00000000 0.53150000
vn -0.75880000 0.00000000 0.65130000
vn 0.00000000 -1.00000000 0.00000000
vn -0.80530000 0.00000000 0.59280000
vn -0.75880000 0.00000000 0.65130000
vn -0.70870000 0.00000000 0.70550000
vn 0.00000000 -1.00000000 0.00000000
vn 0.00000000 -1.00000000 0.00000000
vn -0.70870000 0.00000000 0.70550000
vn -0.65280000 0.00000000 0.75750000
vn 0.00000000 -1.00000000 0.00000000
vn -0.65280000 0.00000000 0.75750000
vn -0.59850000 0.00000000 0.80110000
vn -0.59850000 0.00000000 0.80110000
vn -0.53400000 0.00000000 0.84550000
vn 0.00000000 -1.00000000 0.00000000
vn -0.47130000 0.00000000 0.88200000
vn 0.00000000 -1.00000000 0.00000000
vn -0.53400000 0.00000000 0.84550000
vn -0.47130000 0.00000000 0.88200000
vn 0.00000000 -1.00000000 0.00000000
vn -0.40570000 0.00000000 0.91400000
vn 0.00000000 -1.00000000 0.00000000
vn -0.40570000 0.00000000 0.91400000
vn -0.33590000 0.00000000 0.94190000
vn -0.26440000 0.00000000 0.96440000
vn -0.33590000 0.00000000 0.94190000
vn 0.00000000 -1.00000000 0.00000000
vn -0.19170000 0.00000000 0.98150000
vn -0.26440000 0.00000000 0.96440000
vn 0.00000000 -1.00000000 0.00000000
vn 0.00000000 -1.00000000 0.00000000
vn -0.19170000 0.00000000 0.98150000
vn -0.11880000 0.00000000 0.99290000
vn -0.04490000 0.00000000 0.99900000
vn -0.11880000 0.00000000 0.99290000
vn 0.00000000 -1.00000000 0.00000000
vn 0.02930000 0.00000000 0.99960000
vn 0.00000000 -1.00000000 0.00000000
vn 0.00000000 -1.00000000 0.00010000
vn -0.04490000 0.00000000 0.99900000
vn 0.10340000 0.00000000 0.99460000
vn 0.00000000 -1.00000000 0.00000000
vn 0.02930000 0.00000000 0.99960000
vn 0.00000000 -1.00000000 0.00000000
vn 0.10340000 0.00000000 0.99460000
vn 0.17690000 0.00000000 0.98420000
vn 0.00000000 -1.00000000 0.00010000
vn 0.00000000 -1.00000000 0.00000000
vn 0.00000000 -1.00000000 0.00010000
vn 0.17690000 0.00000000 0.98420000
vn 0.25030000 0.00000000 0.96820000
vn 0.00000000 -1.00000000 0.00000000
vn 0.25030000 0.00000000 0.96820000
vn 0.32120000 0.00000000 0.94700000
vn 0.00000000 -1.00000000 0.00000000
vn 0.32120000 0.00000000 0.94700000
vn 0.39000000 0.00000000 0.92080000
vn 0.00000000 -1.00000000 0.00000000
vn 0.45840000 0.00000000 0.88880000
vn 0.39000000 0.00000000 0.92080000
vn 0.45840000 0.00000000 0.88880000
vn 0.00000000 -1.00000000 0.00000000
vn 0.52230000 0.00000000 0.85280000
vn 0.00000000 -1.00000000 0.00000000
vn 0.52230000 0.00000000 0.85280000
vn 0.58320000 0.00000000 0.81230000
vn 0.58320000 0.00000000 0.81230000
vn 0.00000000 -1.00000000 0.00000000
vn 0.64350000 0.00000000 0.76540000
vn 0.69820000 0.00000000 0.71590000
vn 0.64350000 0.00000000 0.76540000
vn 0.00000000 -1.00000000 0.00000000
vn 0.00000000 -1.00000000 0.00000000
vn 0.74950000 0.00000000 0.66200000
vn 0.69820000 0.00000000 0.71590000
vn 0.00000000 -1.00000000 0.00000000
vn 0.74950000 0.00000000 0.66200000
vn 0.79490000 0.00000000 0.60670000
vn 0.00000000 -1.00000000 0.00000000
vn 0.79490000 0.00000000 0.60670000
vn 0.83790000 0.00000000 0.54580000
vn 0.00000000 -1.00000000 0.00000000
vn 0.83790000 0.00000000 0.54580000
vn 0.87710000 0.00000000 0.48030000
vn 0.87710000 0.00000000 0.48030000
vn 0.00000000 -1.00000000 0.00000000
vn 0.91020000 0.00000000 0.41410000
vn 0.93840000 0.00000000 0.34550000
vn 0.91020000 0.00000000 0.41410000
vn 0.00000000 -1.00000000 0.00000000
vn 0.96130000 0.00000000 0.27560000
vn 0.00000000 -1.00000000 0.00000000
vn 0.93840000 0.00000000 0.34550000
vn 0.96130000 0.00000000 0.27560000
vn 0.97830000 0.00000000 0.20720000
vn 0.00000000 -1.00000000 0.00000000
vn 0.98980000 0.00000000 0.14250000
vn 0.97830000 0.00000000 0.20720000
vn 0.00000000 -1.00000000 0.00000000
vn 0.00000000 -1.00000000 0.00000000
vn 0.99700000 0.00000000 0.07790000
vn 0.98980000 0.00000000 0.14250000
vn 0.00000000 -1.00000000 0.00000000
vn 0.99700000 0.00000000 0.07790000
vn 0.99990000 0.00000000 0.01230000
vn 0.99860000 0.00000000 -0.05320000
vn 0.00000000 -1.00000000 0.00000000
vn 0.99990000 0.00000000 0.01230000
vn 0.00000000 -1.00000000 0.00000000
vn 0.99290000 0.00000000 -0.11890000
vn 0.99860000 0.00000000 -0.05320000
vn 0.99290000 0.00000000 -0.11890000
vn 0.00000000 1.00000000 -0.00000000
vn 0.98230000 0.00000000 -0.18740000
vn 0.00000000 1.00000000 -0.00000000
vn 0.98230000 0.00000000 -0.18740000
vn 0.96570000 0.00000000 -0.25970000
vn 0.94370000 0.00000000 -0.33080000
vn 0.00000000 1.00000000 -0.00000000
vn 0.96570000 0.00000000 -0.25970000
vn 0.94370000 0.00000000 -0.33080000
vn 0.91680000 0.00000000 -0.39940000
vn 0.00000000 1.00000000 -0.00000000
vn 0.00000000 1.00000000 -0.00000000
vn 0.91680000 0.00000000 -0.39940000
vn 0.88390000 0.00000000 -0.46770000
vn 0.00000000 1.00000000 -0.00000000
vn 0.84700000 0.00000000 -0.53150000
vn 0.88390000 0.00000000 -0.46770000
vn 0.00000000 1.00000000 -0.00000000
vn 0.80530000 0.00000000 -0.59280000
vn 0.84700000 0.00000000 -0.53150000
vn 0.80530000 0.00000000 -0.59280000
vn 0.75880000 0.00000000 -0.65130000
vn 0.00000000 1.00000000 -0.00000000
vn 0.70870000 0.00000000 -0.70550000
vn 0.75880000 0.00000000 -0.65130000
vn 0.00000000 1.00000000 -0.00000000
vn 0.70870000 0.00000000 -0.70550000
vn 0.00000000 1.00000000 -0.00000000
vn 0.65280000 0.00000000 -0.75750000
vn 0.65280000 0.00000000 -0.75750000
vn 0.59850000 0.00000000 -0.80110000
vn 0.00000000 1.00000000 -0.00000000
vn 0.00000000 1.00000000 -0.00000000
vn 0.53400000 0.00000000 -0.84550000
vn 0.59850000 0.00000000 -0.80110000
vn 0.53400000 0.00000000 -0.84550000
vn 0.47130000 0.00000000 -0.88200000
vn 0.00000000 1.00000000 -0.00000000
vn 0.00000000 1.00000000 -0.00000000
vn 0.40570000 0.00000000 -0.91400000
vn 0.47130000 0.00000000 -0.88200000
vn 0.40570000 0.00000000 -0.91400000
vn 0.00000000 1.00000000 -0.00000000
vn 0.33590000 0.00000000 -0.94190000
vn 0.33590000 0.00000000 -0.94190000
vn 0.26440000 0.00000000 -0.96440000
vn 0.00000000 1.00000000 -0.00000000
vn 0.19170000 0.00000000 -0.98150000
vn 0.00000000 1.00000000 -0.00000000
vn 0.26440000 0.00000000 -0.96440000
vn 0.11880000 0.00000000 -0.99290000
vn 0.19170000 0.00000000 -0.98150000
vn 0.00000000 1.00000000 -0.00000000
vn 0.11880000 0.00000000 -0.99290000
vn 0.04490000 0.00000000 -0.99900000
vn 0.00000000 1.00000000 -0.00000000
vn -0.02930000 0.00000000 -0.99960000
vn 0.00000000 1.00000000 -0.00000000
vn 0.04490000 0.00000000 -0.99900000
vn -0.02930000 0.00000000 -0.99960000
vn -0.10340000 0.00000000 -0.99460000
vn 0.00000000 1.00000000 -0.00000000
vn -0.10340000 0.00000000 -0.99460000
vn 0.00000000 1.00000000 -0.00000000
vn -0.17690000 0.00000000 -0.98420000
vn -0.25030000 0.00000000 -0.96820000
vn -0.17690000 0.00000000 -0.98420000
vn 0.00000000 1.00000000 -0.00000000
vn -0.25030000 0.00000000 -0.96820000
vn -0.32120000 0.00000000 -0.94700000
vn 0.00000000 1.00000000 -0.00000000
vn -0.32120000 0.00000000 -0.94700000
vn -0.39000000 0.00000000 -0.92080000
vn 0.00000000 1.00000000 -0.00000000
vn -0.45840000 0.00000000 -0.88880000
vn -0.39000000 0.00000000 -0.92080000
vn 0.00000000 1.00000000 -0.00000000
vn 0.00000000 1.00000000 -0.00000000
vn -0.45840000 0.00000000 -0.88880000
vn -0.52230000 0.00000000 -0.85280000
vn 0.00000000 1.00000000 -0.00000000
vn -0.52230000 0.00000000 -0.85280000
vn -0.58320000 0.00000000 -0.81230000
vn -0.64350000 0.00000000 -0.76540000
vn -0.58320000 0.00000000 -0.81230000
vn 0.00000000 1.00000000 -0.00000000
vn -0.64350000 0.00000000 -0.76540000
vn 0.00000000 1.00000000 -0.00000000
vn -0.69820000 0.00000000 -0.71590000
vn 0.00000000 1.00000000 -0.00000000
vn -0.69820000 0.00000000 -0.71590000
vn -0.74950000 0.00000000 -0.66200000
vn -0.74950000 0.00000000 -0.66200000
vn -0.79490000 0.00000000 -0.60670000
vn 0.00000000 1.00000000 -0.00000000
vn -0.79490000 0.00000000 -0.60670000
vn 0.00000000 1.00000000 -0.00000000
vn -0.83790000 0.00000000 -0.54580000
vn -0.83790000 0.00000000 -0.54580000
vn 0.00000000 1.00000000 -0.00000000
vn -0.87710000 0.00000000 -0.48030000
vn 0.00000000 1.00000000 -0.00000000
vn -0.87710000 0.00000000 -0.48030000
vn -0.91020000 0.00000000 -0.41410000
vn 0.00000000 1.00000000 -0.00000000
vn -0.93840000 0.00000000 -0.34550000
vn -0.91020000 0.00000000 -0.41410000
vn -0.93840000 0.00000000 -0.34550000
vn 0.00000000 1.00000000 -0.00000000
vn -0.96130000 0.00000000 -0.27560000
vn -0.97830000 0.00000000 -0.20720000
vn 0.00000000 1.00000000 -0.00000000
vn -0.96130000 0.00000000 -0.27560000
vn -0.98980000 0.00000000 -0.14250000
vn -0.97830000 0.00000000 -0.20720000
vn 0.00000000 1.00000000 -0.00000000
vn -0.98980000 0.00000000 -0.14250000
vn -0.99700000 0.00000000 -0.07790000
vn 0.00000000 1.00000000 -0.00000000
vn -0.99700000 0.00000000 -0.07790000
vn -0.99990000 0.00000000 -0.01230000
vn 0.00000000 1.00000000 -0.00000000
vn -0.99860000 0.00000000 0.05320000
vn -0.99990000 0.00000000 -0.01230000
vn 0.00000000 1.00000000 -0.00000000
vn -0.99290000 0.00000000 0.11890000
vn -0.99860000 0.00000000 0.05320000
vn 0.00000000 1.00000000 -0.00000000
vn 0.00000000 1.00000000 -0.00000000
vn -0.98230000 0.00000000 0.18740000
vn -0.99290000 0.00000000 0.11890000
vn -0.96570000 0.00000000 0.25970000
vn 0.00000000 1.00000000 -0.00000000
vn -0.98230000 0.00000000 0.18740000
vn -0.96570000 0.00000000 0.25970000
vn 0.00000000 1.00000000 -0.00000000
vn -0.94370000 0.00000000 0.33080000
vn -0.94370000 0.00000000 0.33080000
vn -0.91680000 0.00000000 0.39940000
vn 0.00000000 1.00000000 -0.00000000
vn -0.88390000 0.00000000 0.46770000
vn -0.91680000 0.00000000 0.39940000
vn 0.00000000 1.00000000 -0.00000000
vn -0.88390000 0.00000000 0.46770000
vn 0.00000000 1.00000000 -0.00000000
vn -0.84700000 0.00000000 0.53150000
vn -0.80530000 0.00000000 0.59280000
vn 0.00000000 1.00000000 -0.00000000
vn -0.84700000 0.00000000 0.53150000
vn 0.00000000 1.00000000 -0.00000000
vn -0.75880000 0.00000000 0.65130000
vn -0.80530000 0.00000000 0.59280000
vn -0.75880000 0.00000000 0.65130000
vn 0.00000000 1.00000000 -0.00000000
vn -0.70870000 0.00000000 0.70550000
vn -0.65280000 0.00000000 0.75750000
vn 0.00000000 1.00000000 -0.00000000
vn -0.70870000 0.00000000 0.70550000
vn -0.59850000 0.00000000 0.80110000
vn -0.65280000 0.00000000 0.75750000
vn 0.00000000 1.00000000 -0.00000000
vn -0.59850000 0.00000000 0.80110000
vn -0.53400000 0.00000000 0.84550000
vn 0.00000000 1.00000000 -0.00000000
vn 0.00000000 1.00000000 -0.00000000
vn -0.53400000 0.00000000 0.84550000
vn -0.47130000 0.00000000 0.88200000
vn -0.40570000 0.00000000 0.91400000
vn 0.00000000 1.00000000 -0.00000000
vn -0.47130000 0.00000000 0.88200000
vn -0.33590000 0.00000000 0.94190000
vn 0.00000000 1.00000000 -0.00000000
vn -0.40570000 0.00000000 0.91400000
vn -0.33590000 0.00000000 0.94190000
vn -0.26440000 0.00000000 0.96440000
vn 0.00000000 1.00000000 -0.00000000
vn -0.26440000 0.00000000 0.96440000
vn 0.00000000 1.00000000 -0.00000000
vn -0.19170000 0.00000000 0.98150000
vn 0.00000000 1.00000000 -0.00000000
vn -0.19170000 0.00000000 0.98150000
vn -0.11880000 0.00000000 0.99290000
vn 0.00000000 1.00000000 -0.00000000
vn -0.11880000 0.00000000 0.99290000
vn -0.04490000 0.00000000 0.99900000
vn 0.00000000 1.00000000 -0.00000000
vn 0.00000000 1.00000000 -0.00010000
vn 0.02930000 0.00000000 0.99960000
vn -0.04490000 0.00000000 0.99900000
vn 0.02930000 0.00000000 0.99960000
vn 0.00000000 1.00000000 -0.00000000
vn 0.10340000 0.00000000 0.99460000
vn 0.10340000 0.00000000 0.99460000
vn 0.00000000 1.00000000 -0.00000000
vn 0.17690000 0.00000000 0.98420000
vn 0.00000000 1.00000000 -0.00010000
vn 0.25030000 0.00000000 0.96820000
vn 0.00000000 1.00000000 -0.00010000
vn 0.00000000 1.00000000 -0.00000000
vn 0.17690000 0.00000000 0.98420000
vn 0.25030000 0.00000000 0.96820000
vn 0.32120000 0.00000000 0.94700000
vn 0.00000000 1.00000000 -0.00000000
vn 0.39000000 0.00000000 0.92080000
vn 0.32120000 0.00000000 0.94700000
vn 0.00000000 1.00000000 -0.00000000
vn 0.45840000 0.00000000 0.88880000
vn 0.39000000 0.00000000 0.92080000
vn 0.00000000 1.00000000 -0.00000000
vn 0.45840000 0.00000000 0.88880000
vn 0.52230000 0.00000000 0.85280000
vn 0.00000000 1.00000000 -0.00000000
vn 0.58320000 0.00000000 0.81230000
vn 0.52230000 0.00000000 0.85280000
vn 0.00000000 1.00000000 -0.00000000
vn 0.64350000 0.00000000 0.76540000
vn 0.00000000 1.00000000 -0.00000000
vn 0.58320000 0.00000000 0.81230000
vn 0.64350000 0.00000000 0.76540000
vn 0.69820000 0.00000000 0.71590000
vn 0.00000000 1.00000000 -0.00000000
vn 0.00000000 1.00000000 -0.00000000
vn 0.69820000 0.00000000 0.71590000
vn 0.74950000 0.00000000 0.66200000
vn 0.00000000 1.00000000 -0.00000000
vn 0.79490000 0.00000000 0.60670000
vn 0.74950000 0.00000000 0.66200000
vn 0.83790000 0.00000000 0.54580000
vn 0.79490000 0.00000000 0.60670000
vn 0.00000000 1.00000000 -0.00000000
vn 0.87710000 0.00000000 0.48030000
vn 0.00000000 1.00000000 -0.00000000
vn 0.83790000 0.00000000 0.54580000
vn 0.00000000 1.00000000 -0.00000000
vn 0.91020000 0.00000000 0.41410000
vn 0.87710000 0.00000000 0.48030000
vn 0.91020000 0.00000000 0.41410000
vn 0.00000000 1.00000000 -0.00000000
vn 0.93840000 0.00000000 0.34550000
vn 0.96130000 0.00000000 0.27560000
vn 0.00000000 1.00000000 -0.00000000
vn 0.93840000 0.00000000 0.34550000
vn 0.97830000 0.00000000 0.20720000
vn 0.96130000 0.00000000 0.27560000
vn 0.00000000 1.00000000 -0.00000000
vn 0.98980000 0.00000000 0.14250000
vn 0.97830000 0.00000000 0.20720000
vn 0.00000000 1.00000000 -0.00000000
vn 0.99700000 0.00000000 0.07790000
vn 0.00000000 1.00000000 -0.00000000
vn 0.98980000 0.00000000 0.14250000
vn 0.99990000 0.00000000 0.01230000
vn 0.00000000 1.00000000 -0.00000000
vn 0.99700000 0.00000000 0.07790000
vn 0.00000000 1.00000000 -0.00000000
vn 0.99860000 0.00000000 -0.05320000
vn 0.99990000 0.00000000 0.01230000
vn 0.00000000 1.00000000 -0.00000000
vn 0.99860000 0.00000000 -0.05320000
vn 0.99290000 0.00000000 -0.11890000
vt 0.21322300 0.10997600
vt 0.21322300 0.10997600
vt 0.21322300 0.10997600
vt 0.24296400 0.08976600
vt 0.24296400 0.08976600
vt 0.24296400 0.08976600
vt 0.27412300 0.07181900
vt 0.27412300 0.07181900
vt 0.27412300 0.07181900
vt 0.30652900 0.05623400
vt 0.30652900 0.05623400
vt 0.30652900 0.05623400
vt 0.34000100 0.04309800
vt 0.34000100 0.04309800
vt 0.34000100 0.04309800
vt 0.37435700 0.03248200
vt 0.37435700 0.03248200
vt 0.37435700 0.03248200
vt 0.40940500 0.02444600
vt 0.40940500 0.02444600
vt 0.40940500 0.02444600
vt 0.44495400 0.01903300
vt 0.44495400 0.01903300
vt 0.44495400 0.01903300
vt 0.48080600 0.01627400
vt 0.48080600 0.01627400
vt 0.48080600 0.01627400
vt 0.51676400 0.01618400
vt 0.51676400 0.01618400
vt 0.51676400 0.01618400
vt 0.55263000 0.01876300
vt 0.55263000 0.01876300
vt 0.55263000 0.01876300
vt 0.58820500 0.02399700
vt 0.58820500 0.02399700
vt 0.58820500 0.02399700
vt 0.62329300 0.03185700
vt 0.62329300 0.03185700
vt 0.62329300 0.03185700
vt 0.65770200 0.04230000
vt 0.65770200 0.04230000
vt 0.65770200 0.04230000
vt 0.69124000 0.05526800
vt 0.69124000 0.05526800
vt 0.69124000 0.05526800
vt 0.72372300 0.07069000
vt 0.72372300 0.07069000
vt 0.72372300 0.07069000
vt 0.75497200 0.08848000
vt 0.75497200 0.08848000
vt 0.75497200 0.08848000
vt 0.78481400 0.10854100
vt 0.78481400 0.10854100
vt 0.78481400 0.10854100
vt 0.81308500 0.13076100
vt 0.81308500 0.13076100
vt 0.81308500 0.13076100
vt 0.83962800 0.15501900
vt 0.83962800 0.15501900
vt 0.83962800 0.15501900
vt 0.86429800 0.18118000
vt 0.86429800 0.18118000
vt 0.86429800 0.18118000
vt 0.88695800 0.20910000
vt 0.88695800 0.20910000
vt 0.88695800 0.20910000
vt 0.90748300 0.23862500
vt 0.90748300 0.23862500
vt 0.90748300 0.23862500
vt 0.92576000 0.26959200
vt 0.92576000 0.26959200
vt 0.92576000 0.26959200
vt 0.94168700 0.30183000
vt 0.94168700 0.30183000
vt 0.94168700 0.30183000
vt 0.95517800 0.33516100
vt 0.95517800 0.33516100
vt 0.95517800 0.33516100
vt 0.95517800 0.33516100
vt 0.96615800 0.36940200
vt 0.96615800 0.36940200
vt 0.96615800 0.36940200
vt 0.97456600 0.40436300
vt 0.97456600 0.40436300
vt 0.97456600 0.40436300
vt 0.97456600 0.40436300
vt 0.98035600 0.43985200
vt 0.98035600 0.43985200
vt 0.98035600 0.43985200
vt 0.98349500 0.47567300
vt 0.98349500 0.47567300
vt 0.98349500 0.47567300
vt 0.98396700 0.51162800
vt 0.98396700 0.51162800
vt 0.98396700 0.51162800
vt 0.98176900 0.54751900
vt 0.98176900 0.54751900
vt 0.98176900 0.54751900
vt 0.97691300 0.58314800
vt 0.97691300 0.58314800
vt 0.97691300 0.58314800
vt 0.96942500 0.61831800
vt 0.96942500 0.61831800
vt 0.96942500 0.61831800
vt 0.95934800 0.65283500
vt 0.95934800 0.65283500
vt 0.95934800 0.65283500
vt 0.94673700 0.68650900
vt 0.94673700 0.68650900
vt 0.94673700 0.68650900
vt 0.93166000 0.71915400
vt 0.93166000 0.71915400
vt 0.93166000 0.71915400
vt 0.91420300 0.75059000
vt 0.91420300 0.75059000
vt 0.91420300 0.75059000
vt 0.89692600 0.77714400
vt 0.89692600 0.77714400
vt 0.89692600 0.77714400
vt 0.87795100 0.80251100
vt 0.87795100 0.80251100
vt 0.87795100 0.80251100
vt 0.85735600 0.82658200
vt 0.85735600 0.82658200
vt 0.85735600 0.82658200
vt 0.83523200 0.84925500
vt 0.83523200 0.84925500
vt 0.83523200 0.84925500
vt 0.81167100 0.87043200
vt 0.81167100 0.87043200
vt 0.81167100 0.87043200
vt 0.78677700 0.89002400
vt 0.78677700 0.89002400
vt 0.78677700 0.89002400
vt 0.75703600 0.91023400
vt 0.75703600 0.91023400
vt 0.75703600 0.91023400
vt 0.72587700 0.92818100
vt 0.72587700 0.92818100
vt 0.72587700 0.92818100
vt 0.69347100 0.94376600
vt 0.69347100 0.94376600
vt 0.69347100 0.94376600
vt 0.65999900 0.95690200
vt 0.65999900 0.95690200
vt 0.65999900 0.95690200
vt 0.62564300 0.96751800
vt 0.62564300 0.96751800
vt 0.62564300 0.96751800
vt 0.59059500 0.97555400
vt 0.59059500 0.97555400
vt 0.59059500 0.97555400
vt 0.55504600 0.98096700
vt 0.55504600 0.98096700
vt 0.55504600 0.98096700
vt 0.51919400 0.98372600
vt 0.51919400 0.98372600
vt 0.51919400 0.98372600
vt 0.48323600 0.98381600
vt 0.48323600 0.98381600
vt 0.48323600 0.98381600
vt 0.44737000 0.98123700
vt 0.44737000 0.98123700
vt 0.44737000 0.98123700
vt 0.41179500 0.97600300
vt 0.41179500 0.97600300
vt 0.41179500 0.97600300
vt 0.37670700 0.96814300
vt 0.37670700 0.96814300
vt 0.37670700 0.96814300
vt 0.34229800 0.95770000
vt 0.34229800 0.95770000
vt 0.34229800 0.95770000
vt 0.30876000 0.94473200
vt 0.30876000 0.94473200
vt 0.30876000 0.94473200
vt 0.27627700 0.92931000
vt 0.27627700 0.92931000
vt 0.27627700 0.92931000
vt 0.24502800 0.91152000
vt 0.24502800 0.91152000
vt 0.24502800 0.91152000
vt 0.21518600 0.89145900
vt 0.21518600 0.89145900
vt 0.21518600 0.89145900
vt 0.18691500 0.86923900
vt 0.18691500 0.86923900
vt 0.18691500 0.86923900
vt 0.16037200 0.84498100
vt 0.16037200 0.84498100
vt 0.16037200 0.84498100
vt 0.16037200 0.84498100
vt 0.13570200 0.81882000
vt 0.13570200 0.81882000
vt 0.13570200 0.81882000
vt 0.11304200 0.79090000
vt 0.11304200 0.79090000
vt 0.11304200 0.79090000
vt 0.11304200 0.79090000
vt 0.09251700 0.76137500
vt 0.09251700 0.76137500
vt 0.09251700 0.76137500
vt 0.09251700 0.76137500
vt 0.07424000 0.73040800
vt 0.07424000 0.73040800
vt 0.07424000 0.73040800
vt 0.05831300 0.69817000
vt 0.05831300 0.69817000
vt 0.05831300 0.69817000
vt 0.04482200 0.66483900
vt 0.04482200 0.66483900
vt 0.04482200 0.66483900
vt 0.03384200 0.63059800
vt 0.03384200 0.63059800
vt 0.03384200 0.63059800
vt 0.02543400 0.59563700
vt 0.02543400 0.59563700
vt 0.02543400 0.59563700
vt 0.01964400 0.56014800
vt 0.01964400 0.56014800
vt 0.01964400 0.56014800
vt 0.01650500 0.52432700
vt 0.01650500 0.52432700
vt 0.01650500 0.52432700
vt 0.01603300 0.48837200
vt 0.01603300 0.48837200
vt 0.01603300 0.48837200
vt 0.01823100 0.45248100
vt 0.01823100 0.45248100
vt 0.01823100 0.45248100
vt 0.02308700 0.41685200
vt 0.02308700 0.41685200
vt 0.02308700 0.41685200
vt 0.03057500 0.38168200
vt 0.03057500 0.38168200
vt 0.03057500 0.38168200
vt 0.04065200 0.34716500
vt 0.04065200 0.34716500
vt 0.04065200 0.34716500
vt 0.05326300 0.31349100
vt 0.05326300 0.31349100
vt 0.05326300 0.31349100
vt 0.06834000 0.28084600
vt 0.06834000 0.28084600
vt 0.06834000 0.28084600
vt 0.08579700 0.24941000
vt 0.08579700 0.24941000
vt 0.08579700 0.24941000
vt 0.10307400 0.22285600
vt 0.10307400 0.22285600
vt 0.10307400 0.22285600
vt 0.12204900 0.19748900
vt 0.12204900 0.19748900
vt 0.12204900 0.19748900
vt 0.14264400 0.17341800
vt 0.14264400 0.17341800
vt 0.14264400 0.17341800
vt 0.16476800 0.15074500
vt 0.16476800 0.15074500
vt 0.16476800 0.15074500
vt 0.18832900 0.12956800
vt 0.18832900 0.12956800
vt 0.18832900 0.12956800
vt 0.21322300 0.10997600
vt 0.21322300 0.10997600
vt 0.21322300 0.10997600
vt 0.24296400 0.08976600
vt 0.24296400 0.08976600
vt 0.24296400 0.08976600
vt 0.27412300 0.07181900
vt 0.27412300 0.07181900
vt 0.27412300 0.07181900
vt 0.30652900 0.05623400
vt 0.30652900 0.05623400
vt 0.30652900 0.05623400
vt 0.34000100 0.04309800
vt 0.34000100 0.04309800
vt 0.34000100 0.04309800
vt 0.37435700 0.03248200
vt 0.37435700 0.03248200
vt 0.37435700 0.03248200
vt 0.40940500 0.02444600
vt 0.40940500 0.02444600
vt 0.40940500 0.02444600
vt 0.44495400 0.01903300
vt 0.44495400 0.01903300
vt 0.44495400 0.01903300
vt 0.48080600 0.01627400
vt 0.48080600 0.01627400
vt 0.48080600 0.01627400
vt 0.51676400 0.01618400
vt 0.51676400 0.01618400
vt 0.51676400 0.01618400
vt 0.55263000 0.01876300
vt 0.55263000 0.01876300
vt 0.55263000 0.01876300
vt 0.58820500 0.02399700
vt 0.58820500 0.02399700
vt 0.58820500 0.02399700
vt 0.62329300 0.03185700
vt 0.62329300 0.03185700
vt 0.62329300 0.03185700
vt 0.65770200 0.04230000
vt 0.65770200 0.04230000
vt 0.65770200 0.04230000
vt 0.69124000 0.05526800
vt 0.69124000 0.05526800
vt 0.69124000 0.05526800
vt 0.72372300 0.07069000
vt 0.72372300 0.07069000
vt 0.72372300 0.07069000
vt 0.75497200 0.08848000
vt 0.75497200 0.08848000
vt 0.75497200 0.08848000
vt 0.78481400 0.10854100
vt 0.78481400 0.10854100
vt 0.78481400 0.10854100
vt 0.81308500 0.13076100
vt 0.81308500 0.13076100
vt 0.81308500 0.13076100
vt 0.83962800 0.15501900
vt 0.83962800 0.15501900
vt 0.83962800 0.15501900
vt 0.86429800 0.18118000
vt 0.86429800 0.18118000
vt 0.86429800 0.18118000
vt 0.88695800 0.20910000
vt 0.88695800 0.20910000
vt 0.88695800 0.20910000
vt 0.90748300 0.23862500
vt 0.90748300 0.23862500
vt 0.90748300 0.23862500
vt 0.92576000 0.26959200
vt 0.92576000 0.26959200
vt 0.92576000 0.26959200
vt 0.94168700 0.30183000
vt 0.94168700 0.30183000
vt 0.94168700 0.30183000
vt 0.95517800 0.33516100
vt 0.95517800 0.33516100
vt 0.95517800 0.33516100
vt 0.96615800 0.36940200
vt 0.96615800 0.36940200
vt 0.96615800 0.36940200
vt 0.97456600 0.40436300
vt 0.97456600 0.40436300
vt 0.97456600 0.40436300
vt 0.98035600 0.43985200
vt 0.98035600 0.43985200
vt 0.98035600 0.43985200
vt 0.98349500 0.47567300
vt 0.98349500 0.47567300
vt 0.98349500 0.47567300
vt 0.98396700 0.51162800
vt 0.98396700 0.51162800
vt 0.98396700 0.51162800
vt 0.98176900 0.54751900
vt 0.98176900 0.54751900
vt 0.98176900 0.54751900
vt 0.97691300 0.58314800
vt 0.97691300 0.58314800
vt 0.97691300 0.58314800
vt 0.96942500 0.61831800
vt 0.96942500 0.61831800
vt 0.96942500 0.61831800
vt 0.95934800 0.65283500
vt 0.95934800 0.65283500
vt 0.95934800 0.65283500
vt 0.94673700 0.68650900
vt 0.94673700 0.68650900
vt 0.94673700 0.68650900
vt 0.93166000 0.71915400
vt 0.93166000 0.71915400
vt 0.93166000 0.71915400
vt 0.91420300 0.75059000
vt 0.91420300 0.75059000
vt 0.91420300 0.75059000
vt 0.89692600 0.77714400
vt 0.89692600 0.77714400
vt 0.89692600 0.77714400
vt 0.87795100 0.80251100
vt 0.87795100 0.80251100
vt 0.87795100 0.80251100
vt 0.85735600 0.82658200
vt 0.85735600 0.82658200
vt 0.85735600 0.82658200
vt 0.83523200 0.84925500
vt 0.83523200 0.84925500
vt 0.83523200 0.84925500
vt 0.81167100 0.87043200
vt 0.81167100 0.87043200
vt 0.81167100 0.87043200
vt 0.78677700 0.89002400
vt 0.78677700 0.89002400
vt 0.78677700 0.89002400
vt 0.75703600 0.91023400
vt 0.75703600 0.91023400
vt 0.75703600 0.91023400
vt 0.72587700 0.92818100
vt 0.72587700 0.92818100
vt 0.72587700 0.92818100
vt 0.69347100 0.94376600
vt 0.69347100 0.94376600
vt 0.69347100 0.94376600
vt 0.65999900 0.95690200
vt 0.65999900 0.95690200
vt 0.65999900 0.95690200
vt 0.62564300 0.96751800
vt 0.62564300 0.96751800
vt 0.62564300 0.96751800
vt 0.59059500 0.97555400
vt 0.59059500 0.97555400
vt 0.59059500 0.97555400
vt 0.55504600 0.98096700
vt 0.55504600 0.98096700
vt 0.55504600 0.98096700
vt 0.51919400 0.98372600
vt 0.51919400 0.98372600
vt 0.51919400 0.98372600
vt 0.48323600 0.98381600
vt 0.48323600 0.98381600
vt 0.48323600 0.98381600
vt 0.44737000 0.98123700
vt 0.44737000 0.98123700
vt 0.44737000 0.98123700
vt 0.41179500 0.97600300
vt 0.41179500 0.97600300
vt 0.41179500 0.97600300
vt 0.37670700 0.96814300
vt 0.37670700 0.96814300
vt 0.37670700 0.96814300
vt 0.34229800 0.95770000
vt 0.34229800 0.95770000
vt 0.34229800 0.95770000
vt 0.30876000 0.94473200
vt 0.30876000 0.94473200
vt 0.30876000 0.94473200
vt 0.27627700 0.92931000
vt 0.27627700 0.92931000
vt 0.27627700 0.92931000
vt 0.24502800 0.91152000
vt 0.24502800 0.91152000
vt 0.24502800 0.91152000
vt 0.21518600 0.89145900
vt 0.21518600 0.89145900
vt 0.21518600 0.89145900
vt 0.18691500 0.86923900
vt 0.18691500 0.86923900
vt 0.18691500 0.86923900
vt 0.16037200 0.84498100
vt 0.16037200 0.84498100
vt 0.16037200 0.84498100
vt 0.16037200 0.84498100
vt 0.13570200 0.81882000
vt 0.13570200 0.81882000
vt 0.13570200 0.81882000
vt 0.11304200 0.79090000
vt 0.11304200 0.79090000
vt 0.11304200 0.79090000
vt 0.11304200 0.79090000
vt 0.09251700 0.76137500
vt 0.09251700 0.76137500
vt 0.09251700 0.76137500
vt 0.09251700 0.76137500
vt 0.07424000 0.73040800
vt 0.07424000 0.73040800
vt 0.07424000 0.73040800
vt 0.05831300 0.69817000
vt 0.05831300 0.69817000
vt 0.05831300 0.69817000
vt 0.04482200 0.66483900
vt 0.04482200 0.66483900
vt 0.04482200 0.66483900
vt 0.03384200 0.63059800
vt 0.03384200 0.63059800
vt 0.03384200 0.63059800
vt 0.02543400 0.59563700
vt 0.02543400 0.59563700
vt 0.02543400 0.59563700
vt 0.01964400 0.56014800
vt 0.01964400 0.56014800
vt 0.01964400 0.56014800
vt 0.01650500 0.52432700
vt 0.01650500 0.52432700
vt 0.01650500 0.52432700
vt 0.01603300 0.48837200
vt 0.01603300 0.48837200
vt 0.01603300 0.48837200
vt 0.01823100 0.45248100
vt 0.01823100 0.45248100
vt 0.01823100 0.45248100
vt 0.02308700 0.41685200
vt 0.02308700 0.41685200
vt 0.02308700 0.41685200
vt 0.03057500 0.38168200
vt 0.03057500 0.38168200
vt 0.03057500 0.38168200
vt 0.04065200 0.34716500
vt 0.04065200 0.34716500
vt 0.04065200 0.34716500
vt 0.05326300 0.31349100
vt 0.05326300 0.31349100
vt 0.05326300 0.31349100
vt 0.06834000 0.28084600
vt 0.06834000 0.28084600
vt 0.06834000 0.28084600
vt 0.08579700 0.24941000
vt 0.08579700 0.24941000
vt 0.08579700 0.24941000
vt 0.10307400 0.22285600
vt 0.10307400 0.22285600
vt 0.10307400 0.22285600
vt 0.12204900 0.19748900
vt 0.12204900 0.19748900
vt 0.12204900 0.19748900
vt 0.14264400 0.17341800
vt 0.14264400 0.17341800
vt 0.14264400 0.17341800
vt 0.16476800 0.15074500
vt 0.16476800 0.15074500
vt 0.16476800 0.15074500
vt 0.18832900 0.12956800
vt 0.18832900 0.12956800
vt 0.18832900 0.12956800
f 251/251/251 248/248/248 244/244/244
f 255/255/255 252/252/252 251/251/251
f 244/244/244 238/238/238 34/34/34
f 251/251/251 244/244/244 34/34/34
f 238/238/238 231/231/231 110/110/110
f 238/238/238 244/244/244 242/242/242
f 234/234/234 231/231/231 238/238/238
f 231/231/231 228/228/228 225/225/225
f 255/255/255 251/251/251 16/16/16
f 16/16/16 13/13/13 259/259/259
f 16/16/16 26/26/26 23/23/23
f 21/21/21 16/16/16 23/23/23
f 251/251/251 26/26/26 16/16/16
f 261/261/261 259/259/259 9/9/9
f 1/1/1 261/261/261 5/5/5
f 259/259/259 11/11/11 9/9/9
f 5/5/5 261/261/261 9/9/9
f 13/13/13 11/11/11 259/259/259
f 16/16/16 259/259/259 255/255/255
f 224/224/224 110/110/110 231/231/231
f 149/149/149 210/210/210 159/159/159
f 220/220/220 216/216/216 224/224/224
f 210/210/210 216/216/216 214/214/214
f 149/149/149 216/216/216 210/210/210
f 207/207/207 204/204/204 210/210/210
f 200/200/200 190/190/190 204/204/204
f 199/199/199 191/191/191 201/201/201
f 190/190/190 196/196/196 194/194/194
f 210/210/210 204/204/204 182/182/182
f 231/231/231 225/225/225 224/224/224
f 183/183/183 190/190/190 188/188/188
f 183/183/183 182/182/182 190/190/190
f 182/182/182 204/204/204 190/190/190
f 210/210/210 182/182/182 179/179/179
f 172/172/172 169/169/169 174/174/174
f 179/179/179 174/174/174 210/210/210
f 167/167/167 162/162/162 169/169/169
f 159/159/159 169/169/169 162/162/162
f 210/210/210 174/174/174 169/169/169
f 169/169/169 159/159/159 210/210/210
f 149/149/149 224/224/224 216/216/216
f 31/31/31 26/26/26 251/251/251
f 31/31/31 251/251/251 34/34/34
f 41/41/41 37/37/37 34/34/34
f 238/238/238 110/110/110 34/34/34
f 34/34/34 87/87/87 41/41/41
f 41/41/41 87/87/87 47/47/47
f 54/54/54 50/50/50 87/87/87
f 87/87/87 50/50/50 47/47/47
f 45/45/45 41/41/41 47/47/47
f 54/54/54 87/87/87 56/56/56
f 77/77/77 63/63/63 56/56/56
f 71/71/71 67/67/67 64/64/64
f 63/63/63 71/71/71 64/64/64
f 71/71/71 63/63/63 77/77/77
f 56/56/56 87/87/87 77/77/77
f 82/82/82 79/79/79 83/83/83
f 110/110/110 87/87/87 34/34/34
f 84/84/84 77/77/77 87/87/87
f 77/77/77 75/75/75 71/71/71
f 56/56/56 63/63/63 60/60/60
f 91/91/91 87/87/87 93/93/93
f 127/127/127 140/140/140 136/136/136
f 132/132/132 131/131/131 136/136/136
f 127/127/127 136/136/136 131/131/131
f 127/127/127 149/149/149 140/140/140
f 150/150/150 149/149/149 154/154/154
f 158/158/158 154/154/154 149/149/149
f 146/146/146 141/141/141 149/149/149
f 121/121/121 149/149/149 127/127/127
f 149/149/149 141/141/141 140/140/140
f 149/149/149 159/159/159 158/158/158
f 110/110/110 103/103/103 101/101/101
f 96/96/96 110/110/110 101/101/101
f 224/224/224 121/121/121 110/110/110
f 103/103/103 110/110/110 106/106/106
f 118/118/118 115/115/115 121/121/121
f 121/121/121 127/127/127 125/125/125
f 115/115/115 113/113/113 121/121/121
f 110/110/110 121/121/121 113/113/113
f 224/224/224 149/149/149 121/121/121
f 96/96/96 87/87/87 110/110/110
f 96/96/96 93/93/93 87/87/87
f 26/26/26 31/31/31 29/29/29
f 512/512/512 505/505/505 509/509/509
f 517/517/517 512/512/512 514/514/514
f 505/505/505 297/297/297 498/498/498
f 512/512/512 297/297/297 505/505/505
f 498/498/498 369/369/369 494/494/494
f 498/498/498 502/502/502 505/505/505
f 496/496/496 498/498/498 494/494/494
f 494/494/494 486/486/486 489/489/489
f 517/517/517 279/279/279 512/512/512
f 279/279/279 519/519/519 276/276/276
f 279/279/279 287/287/287 290/290/290
f 282/282/282 287/287/287 279/279/279
f 512/512/512 279/279/279 290/290/290
f 522/522/522 271/271/271 519/519/519
f 265/265/265 267/267/267 522/522/522
f 519/519/519 271/271/271 275/275/275
f 267/267/267 271/271/271 522/522/522
f 276/276/276 519/519/519 275/275/275
f 279/279/279 517/517/517 519/519/519
f 485/485/485 494/494/494 369/369/369
f 409/409/409 421/421/421 473/473/473
f 481/481/481 485/485/485 479/479/479
f 473/473/473 476/476/476 479/479/479
f 409/409/409 473/473/473 479/479/479
f 470/470/470 473/473/473 467/467/467
f 463/463/463 467/467/467 450/450/450
f 460/460/460 462/462/462 451/451/451
f 450/450/450 455/455/455 458/458/458
f 473/473/473 442/442/442 467/467/467
f 494/494/494 485/485/485 486/486/486
f 444/444/444 447/447/447 450/450/450
f 444/444/444 450/450/450 442/442/442
f 442/442/442 450/450/450 467/467/467
f 473/473/473 440/440/440 442/442/442
f 433/433/433 436/436/436 429/429/429
f 440/440/440 473/473/473 436/436/436
f 428/428/428 429/429/429 425/425/425
f 421/421/421 425/425/425 429/429/429
f 473/473/473 429/429/429 436/436/436
f 429/429/429 473/473/473 421/421/421
f 409/409/409 479/479/479 485/485/485
f 296/296/296 512/512/512 290/290/290
f 296/296/296 297/297/297 512/512/512
f 303/303/303 297/297/297 302/302/302
f 498/498/498 297/297/297 369/369/369
f 297/297/297 303/303/303 350/350/350
f 303/303/303 311/311/311 350/350/350
f 317/317/317 350/350/350 313/313/313
f 350/350/350 311/311/311 313/313/313
f 307/307/307 311/311/311 303/303/303
f 317/317/317 320/320/320 350/350/350
f 341/341/341 320/320/320 326/326/326
f 335/335/335 328/328/328 332/332/332
f 326/326/326 328/328/328 335/335/335
f 335/335/335 341/341/341 326/326/326
f 320/320/320 341/341/341 350/350/350
f 342/342/342 345/345/345 341/341/341
f 369/369/369 297/297/297 350/350/350
f 345/345/345 350/350/350 341/341/341
f 341/341/341 335/335/335 338/338/338
f 320/320/320 322/322/322 326/326/326
f 352/352/352 354/354/354 350/350/350
f 389/389/389 397/397/397 400/400/400
f 393/393/393 397/397/397 392/392/392
f 389/389/389 392/392/392 397/397/397
f 389/389/389 400/400/400 409/409/409
f 412/412/412 414/414/414 409/409/409
f 418/418/418 409/409/409 414/414/414
f 407/407/407 409/409/409 404/404/404
f 383/383/383 389/389/389 409/409/409
f 409/409/409 400/400/400 404/404/404
f 409/409/409 418/418/418 421/421/421
f 369/369/369 361/361/361 364/364/364
f 359/359/359 361/361/361 369/369/369
f 485/485/485 369/369/369 383/383/383
f 364/364/364 366/366/366 369/369/369
f 380/380/380 383/383/383 376/376/376
f 383/383/383 386/386/386 389/389/389
f 376/376/376 383/383/383 373/373/373
f 369/369/369 373/373/373 383/383/383
f 485/485/485 383/383/383 409/409/409
f 359/359/359 369/369/369 350/350/350
f 359/359/359 350/350/350 354/354/354
f 290/290/290 292/292/292 296/296/296
f 3/3/3 4/4/4 268/268/268
f 268/268/268 266/266/266 3/3/3
f 7/7/7 12/12/12 273/273/273
f 273/273/273 270/270/270 7/7/7
f 14/14/14 17/17/17 281/281/281
f 281/281/281 278/278/278 14/14/14
f 20/20/20 24/24/24 285/285/285
f 285/285/285 283/283/283 20/20/20
f 25/25/25 30/30/30 291/291/291
f 291/291/291 288/288/288 25/25/25
f 32/32/32 36/36/36 299/299/299
f 299/299/299 295/295/295 32/32/32
f 38/38/38 40/40/40 305/305/305
f 305/305/305 301/301/301 38/38/38
f 51/51/51 52/52/52 316/316/316
f 316/316/316 312/312/312 51/51/51
f 55/55/55 58/58/58 323/323/323
f 323/323/323 319/319/319 55/55/55
f 69/69/69 72/72/72 333/333/333
f 333/333/333 330/330/330 69/69/69
f 80/80/80 86/86/86 346/346/346
f 346/346/346 344/344/344 80/80/80
f 99/99/99 104/104/104 363/363/363
f 363/363/363 362/362/362 99/99/99
f 117/117/117 120/120/120 381/381/381
f 381/381/381 378/378/378 117/117/117
f 124/124/124 128/128/128 388/388/388
f 388/388/388 385/385/385 124/124/124
f 129/129/129 133/133/133 395/395/395
f 395/395/395 390/390/390 129/129/129
f 137/137/137 139/139/139 399/399/399
f 399/399/399 396/396/396 137/137/137
f 148/148/148 152/152/152 413/413/413
f 413/413/413 410/410/410 148/148/148
f 161/161/161 163/163/163 424/424/424
f 424/424/424 420/420/420 161/161/161
f 166/166/166 170/170/170 430/430/430
f 430/430/430 427/427/427 166/166/166
f 173/173/173 175/175/175 437/437/437
f 437/437/437 432/432/432 173/173/173
f 177/177/177 181/181/181 441/441/441
f 441/441/441 439/439/439 177/177/177
f 185/185/185 187/187/187 448/448/448
f 448/448/448 446/446/446 185/185/185
f 189/189/189 195/195/195 454/454/454
f 454/454/454 452/452/452 189/189/189
f 206/206/206 208/208/208 469/469/469
f 469/469/469 466/466/466 206/206/206
f 211/211/211 213/213/213 474/474/474
f 474/474/474 471/471/471 211/211/211
f 218/218/218 219/219/219 482/482/482
f 482/482/482 477/477/477 218/218/218
f 222/222/222 227/227/227 487/487/487
f 487/487/487 484/484/484 222/222/222
f 230/230/230 232/232/232 493/493/493
f 493/493/493 490/490/490 230/230/230
f 258/258/258 263/263/263 523/523/523
f 523/523/523 520/520/520 258/258/258
f 236/236/236 237/237/237 500/500/500
f 500/500/500 495/495/495 236/236/236
f 240/240/240 245/245/245 506/506/506
f 506/506/506 503/503/503 240/240/240
f 247/247/247 250/250/250 511/511/511
f 511/511/511 507/507/507 247/247/247
f 253/253/253 256/256/256 518/518/518
f 518/518/518 513/513/513 253/253/253
f 143/143/143 145/145/145 406/406/406
f 406/406/406 403/403/403 143/143/143
f 85/85/85 89/89/89 349/349/349
f 349/349/349 347/347/347 85/85/85
f 198/198/198 202/202/202 464/464/464
f 464/464/464 459/459/459 198/198/198
f 134/134/134 135/135/135 398/398/398
f 398/398/398 394/394/394 134/134/134
f 90/90/90 94/94/94 355/355/355
f 355/355/355 353/353/353 90/90/90
f 153/153/153 156/156/156 417/417/417
f 417/417/417 415/415/415 153/153/153
f 221/221/221 223/223/223 483/483/483
f 483/483/483 480/480/480 221/221/221
f 43/43/43 48/48/48 309/309/309
f 309/309/309 308/308/308 43/43/43
f 6/6/6 8/8/8 272/272/272
f 272/272/272 269/269/269 6/6/6
f 10/10/10 15/15/15 277/277/277
f 277/277/277 274/274/274 10/10/10
f 18/18/18 19/19/19 284/284/284
f 284/284/284 280/280/280 18/18/18
f 62/62/62 65/65/65 327/327/327
f 327/327/327 325/325/325 62/62/62
f 35/35/35 39/39/39 300/300/300
f 300/300/300 298/298/298 35/35/35
f 42/42/42 44/44/44 306/306/306
f 306/306/306 304/304/304 42/42/42
f 46/46/46 49/49/49 314/314/314
f 314/314/314 310/310/310 46/46/46
f 53/53/53 57/57/57 318/318/318
f 318/318/318 315/315/315 53/53/53
f 66/66/66 68/68/68 331/331/331
f 331/331/331 329/329/329 66/66/66
f 70/70/70 74/74/74 336/336/336
f 336/336/336 334/334/334 70/70/70
f 76/76/76 81/81/81 343/343/343
f 343/343/343 339/339/339 76/76/76
f 97/97/97 100/100/100 360/360/360
f 360/360/360 358/358/358 97/97/97
f 102/102/102 107/107/107 367/367/367
f 367/367/367 365/365/365 102/102/102
f 108/108/108 111/111/111 372/372/372
f 372/372/372 370/370/370 108/108/108
f 114/114/114 119/119/119 379/379/379
f 379/379/379 375/375/375 114/114/114
f 122/122/122 123/123/123 384/384/384
f 384/384/384 382/382/382 122/122/122
f 126/126/126 130/130/130 391/391/391
f 391/391/391 387/387/387 126/126/126
f 138/138/138 142/142/142 402/402/402
f 402/402/402 401/401/401 138/138/138
f 73/73/73 78/78/78 340/340/340
f 340/340/340 337/337/337 73/73/73
f 157/157/157 160/160/160 422/422/422
f 422/422/422 419/419/419 157/157/157
f 164/164/164 165/165/165 426/426/426
f 426/426/426 423/423/423 164/164/164
f 168/168/168 171/171/171 434/434/434
f 434/434/434 431/431/431 168/168/168
f 176/176/176 178/178/178 438/438/438
f 438/438/438 435/435/435 176/176/176
f 180/180/180 184/184/184 445/445/445
f 445/445/445 443/443/443 180/180/180
f 186/186/186 192/192/192 453/453/453
f 453/453/453 449/449/449 186/186/186
f 257/257/257 260/260/260 521/521/521
f 521/521/521 516/516/516 257/257/257
f 193/193/193 197/197/197 457/457/457
f 457/457/457 456/456/456 193/193/193
f 203/203/203 205/205/205 465/465/465
f 465/465/465 461/461/461 203/203/203
f 209/209/209 212/212/212 472/472/472
f 472/472/472 468/468/468 209/209/209
f 215/215/215 217/217/217 478/478/478
f 478/478/478 475/475/475 215/215/215
f 226/226/226 229/229/229 491/491/491
f 491/491/491 488/488/488 226/226/226
f 233/233/233 235/235/235 497/497/497
f 497/497/497 492/492/492 233/233/233
f 239/239/239 241/241/241 501/501/501
f 501/501/501 499/499/499 239/239/239
f 243/243/243 246/246/246 508/508/508
f 508/508/508 504/504/504 243/243/243
f 249/249/249 254/254/254 515/515/515
f 515/515/515 510/510/510 249/249/249
f 22/22/22 27/27/27 289/289/289
f 289/289/289 286/286/286 22/22/22
f 144/144/144 147/147/147 408/408/408
f 408/408/408 405/405/405 144/144/144
f 88/88/88 92/92/92 351/351/351
f 351/351/351 348/348/348 88/88/88
f 28/28/28 33/33/33 294/294/294
f 294/294/294 293/293/293 28/28/28
f 151/151/151 155/155/155 416/416/416
f 416/416/416 411/411/411 151/151/151
f 95/95/95 98/98/98 357/357/357
f 357/357/357 356/356/356 95/95/95
f 262/262/262 2/2/2 264/264/264
f 264/264/264 524/524/524 262/262/262
f 105/105/105 109/109/109 371/371/371
f 371/371/371 368/368/368 105/105/105
f 112/112/112 116/116/116 377/377/377
f 377/377/377 374/374/374 112/112/112
f 59/59/59 61/61/61 324/324/324
f 324/324/324 321/321/321 59/59/59

