mtllib material.mtl
usemtl Material-7011油漆.027
v 0.00910800 0.13991800 -0.21285000
v 0.01539300 0.13991800 -0.21498400
v 0.00812700 0.14374100 -0.21139600
v 0.00287600 0.13983100 -0.21185600
v 0.02139700 0.13991800 -0.21829400
v 0.01822100 0.14641800 -0.21411000
v 0.03130600 0.13991800 -0.22802400
v 0.03090100 0.14641800 -0.22420900
v 0.02679600 0.13991800 -0.22270500
v 0.02507500 0.14641800 -0.21851500
v 0.03472900 0.13991800 -0.23397000
v 0.03546100 0.14641800 -0.23095900
v 0.01171300 0.14842600 -0.21109100
v 0.03856900 0.14641800 -0.23849000
v 0.03797300 0.14215200 -0.24092300
v 0.03812800 0.13991900 -0.24607800
v 0.03698000 0.13991000 -0.24023000
v 0.04009700 0.14641800 -0.24649200
v 0.03802900 0.12373700 -0.24560500
v 0.03703500 0.12382200 -0.24042800
v 0.04009700 0.11731800 -0.24649200
v 0.03520300 0.11731800 -0.23048600
v 0.03486200 0.12382700 -0.23426700
v 0.03150000 0.12381800 -0.22830200
v 0.03849100 0.11731800 -0.23823200
v 0.02699300 0.12381800 -0.22290000
v 0.02152700 0.12381800 -0.21838300
v 0.02422300 0.11731800 -0.21785500
v 0.01538200 0.12381800 -0.21497900
v 0.00889200 0.12381800 -0.21279800
v 0.00905400 0.11731800 -0.21078200
v 0.01701000 0.11731800 -0.21352100
v 0.03037700 0.11731800 -0.22359400
v 0.00070200 0.11731800 -0.20975600
v 0.00239500 0.12381800 -0.21182500
v -0.00333400 0.12381800 -0.21189600
v -0.00768000 0.11731800 -0.21049000
v -0.00898800 0.12381800 -0.21282100
v -0.01521700 0.12381800 -0.21490700
v -0.02122900 0.12381800 -0.21818200
v -0.01572700 0.11731800 -0.21295000
v -0.02669100 0.12381800 -0.22260200
v -0.03128900 0.12381800 -0.22799900
v -0.02943700 0.11731800 -0.22255000
v -0.03805700 0.11731800 -0.23689600
v -0.03478900 0.12381800 -0.23410100
v -0.03707100 0.12381800 -0.24057500
v -0.03814200 0.12378800 -0.24696400
v -0.03995000 0.11731800 -0.24509500
v -0.03450100 0.11731800 -0.22927000
v -0.02308600 0.11731800 -0.21702900
v -0.04009700 0.11731800 -0.25350800
v -0.03995000 0.11731800 -0.24509500
v -0.04009700 0.11731800 -0.25350800
v -0.04009700 0.11531800 -0.25350800
v -0.03937200 0.11531800 -0.24163700
v -0.03539000 0.11531800 -0.23082700
v -0.03805700 0.11731800 -0.23689600
v -0.02865600 0.11531800 -0.22173600
v -0.01965900 0.11531800 -0.21487800
v -0.02308600 0.11731800 -0.21702900
v -0.03450100 0.11731800 -0.22927000
v -0.00910800 0.11531800 -0.21079400
v -0.01572700 0.11731800 -0.21295000
v 0.00070200 0.11731800 -0.20975600
v -0.00768000 0.11731800 -0.21049000
v 0.00258700 0.11531800 -0.20983300
v 0.00905400 0.11731800 -0.21078200
v 0.01396200 0.11531800 -0.21224900
v 0.02395600 0.11531800 -0.21765600
v 0.01701000 0.11731800 -0.21352100
v 0.03201100 0.11531800 -0.22560000
v 0.03753700 0.11531800 -0.23547200
v 0.03520300 0.11731800 -0.23048600
v 0.03037700 0.11731800 -0.22359400
v 0.04009700 0.11531800 -0.24649200
v 0.03849100 0.11731800 -0.23823200
v 0.03995000 0.11731800 -0.25490500
v 0.04009700 0.11731800 -0.24649200
v 0.04009700 0.11531800 -0.24649200
v 0.03937200 0.11531800 -0.25836300
v 0.03539000 0.11531800 -0.26917300
v 0.03805700 0.11731800 -0.26310400
v 0.02865600 0.11531800 -0.27826400
v 0.01965900 0.11531800 -0.28512200
v 0.02308600 0.11731800 -0.28297100
v 0.03450100 0.11731800 -0.27073000
v 0.00910800 0.11531800 -0.28920600
v 0.01485400 0.11758300 -0.28738900
v -0.00162400 0.11746300 -0.29025600
v 0.00768000 0.11731800 -0.28951100
v -0.00258700 0.11531800 -0.29016700
v -0.00905400 0.11731800 -0.28921800
v -0.01396200 0.11531800 -0.28775100
v -0.02395600 0.11531800 -0.28234400
v -0.01701000 0.11731800 -0.28647900
v -0.03201100 0.11531800 -0.27440000
v -0.03753700 0.11531800 -0.26452800
v -0.03520300 0.11731800 -0.26951400
v -0.03037700 0.11731800 -0.27640600
v -0.04009700 0.11531800 -0.25350800
v -0.03850700 0.11743200 -0.26155800
v -0.03998200 0.14641800 -0.24536200
v -0.04009700 0.14641800 -0.25350800
v -0.03823700 0.13963100 -0.25241800
v -0.03698500 0.13991800 -0.24024500
v -0.03464700 0.13991800 -0.23379400
v -0.03822900 0.14641800 -0.23740600
v -0.02657700 0.13991800 -0.22249200
v -0.03016100 0.14641800 -0.22334700
v -0.03112900 0.13991800 -0.22777300
v -0.03491000 0.14641800 -0.22996600
v -0.01542000 0.13991800 -0.21499600
v -0.01361100 0.14283000 -0.21329700
v -0.02123900 0.13991800 -0.21818900
v -0.02417600 0.14641800 -0.21782000
v -0.00945300 0.13983000 -0.21293400
v -0.03809400 0.13988900 -0.24650700
v -0.01720100 0.14641800 -0.21361100
v -0.03753700 0.11531800 -0.26452800
v -0.03201100 0.11531800 -0.27440000
v -0.00258700 0.11531800 -0.29016700
v -0.03937200 0.11531800 -0.24163700
v -0.04009700 0.11531800 -0.25350800
v 0.01965900 0.11531800 -0.28512200
v 0.00910800 0.11531800 -0.28920600
v -0.03539000 0.11531800 -0.23082700
v 0.02865600 0.11531800 -0.27826400
v -0.02395600 0.11531800 -0.28234400
v -0.01396200 0.11531800 -0.28775100
v 0.03539000 0.11531800 -0.26917300
v -0.01965900 0.11531800 -0.21487800
v -0.02865600 0.11531800 -0.22173600
v 0.03937200 0.11531800 -0.25836300
v 0.00258700 0.11531800 -0.20983300
v -0.00910800 0.11531800 -0.21079400
v 0.03753700 0.11531800 -0.23547200
v 0.04009700 0.11531800 -0.24649200
v 0.03201100 0.11531800 -0.22560000
v 0.01396200 0.11531800 -0.21224900
v 0.02395600 0.11531800 -0.21765600
v -0.01720100 0.14641800 -0.21361100
v -0.01361100 0.14283000 -0.21329700
v -0.01361100 0.14283000 -0.21329700
v -0.01361100 0.14283000 -0.21329700
v -0.01740400 0.14843000 -0.21362900
v -0.01740400 0.14843000 -0.21362900
v -0.01740400 0.14843000 -0.21362900
v 0.00812700 0.14374100 -0.21139600
v 0.00812700 0.14374100 -0.21139600
v 0.00812700 0.14374100 -0.21139600
v -0.00053700 0.14141400 -0.21215700
v -0.00053700 0.14141400 -0.21215700
v -0.00945300 0.13983000 -0.21293400
v 0.00287600 0.13983100 -0.21185600
v 0.01171300 0.14842600 -0.21109100
v 0.02897200 0.14843200 -0.22194500
v 0.03457000 0.14843200 -0.22938500
v -0.03762500 0.14843200 -0.23570200
v 0.03855200 0.14843200 -0.23794500
v -0.04005900 0.14843200 -0.24482300
v 0.01171300 0.14842600 -0.21109100
v 0.01171300 0.14842600 -0.21109100
v 0.02160100 0.14843200 -0.21603700
v 0.02160100 0.14843200 -0.21603700
v -0.02552400 0.14843300 -0.21879000
v -0.02552400 0.14843300 -0.21879000
v -0.02552400 0.14843300 -0.21879000
v -0.03141100 0.14843200 -0.22483200
v -0.03141100 0.14843200 -0.22483200
v 0.03857300 0.14843200 -0.26149800
v -0.03599000 0.14843200 -0.26802100
v 0.04006600 0.14843200 -0.25384700
v 0.03548000 0.14843200 -0.26900500
v 0.04009700 0.14843200 -0.24649200
v -0.03878900 0.14843200 -0.26074600
v 0.03083300 0.14843200 -0.27587200
v 0.02487800 0.14843200 -0.28164100
v -0.01900500 0.14843200 -0.28548000
v 0.01074600 0.14843200 -0.28878900
v -0.01149800 0.14843200 -0.28857300
v 0.01802100 0.14843200 -0.28599000
v -0.03164100 0.14843200 -0.27487800
v -0.04009700 0.14843200 -0.25350800
v -0.01740400 0.14843000 -0.21362900
v -0.03494300 0.14843200 -0.23002400
v -0.00384700 0.14843200 -0.29006600
v 0.00350800 0.14843200 -0.29009700
v -0.02587200 0.14843200 -0.28083300
v -0.03141100 0.14843200 -0.22483200
v -0.03494300 0.14843200 -0.23002400
v -0.03491000 0.14641800 -0.22996600
v -0.03016100 0.14641800 -0.22334700
v -0.02552400 0.14843300 -0.21879000
v -0.03762500 0.14843200 -0.23570200
v -0.04005900 0.14843200 -0.24482300
v -0.04009700 0.14843200 -0.25350800
v -0.04009700 0.14641800 -0.25350800
v -0.03822900 0.14641800 -0.23740600
v -0.03878900 0.14843200 -0.26074600
v -0.03599000 0.14843200 -0.26802100
v -0.03849100 0.14641800 -0.26176800
v -0.03164100 0.14843200 -0.27487800
v -0.03520300 0.14641800 -0.26951400
v -0.02587200 0.14843200 -0.28083300
v -0.01900500 0.14843200 -0.28548000
v -0.02422300 0.14641800 -0.28214500
v -0.01149800 0.14843200 -0.28857300
v -0.01701000 0.14641800 -0.28647900
v -0.03037700 0.14641800 -0.27640600
v -0.00384700 0.14843200 -0.29006600
v -0.00905400 0.14641800 -0.28921800
v -0.02417600 0.14641800 -0.21782000
v -0.01720100 0.14641800 -0.21361100
v -0.02204400 0.14745900 -0.21629400
v -0.01740400 0.14843000 -0.21362900
v -0.03998200 0.14641800 -0.24536200
v -0.00071800 0.14642900 -0.29024300
v 0.00350800 0.14843200 -0.29009700
v 0.01074600 0.14843200 -0.28878900
v 0.00768100 0.14643300 -0.28951000
v 0.01802100 0.14843200 -0.28599000
v 0.02487800 0.14843200 -0.28164100
v 0.02308600 0.14641800 -0.28297100
v 0.03083300 0.14843200 -0.27587200
v 0.02943700 0.14641800 -0.27745000
v 0.01572700 0.14641800 -0.28705000
v 0.03548000 0.14843200 -0.26900500
v 0.03857300 0.14843200 -0.26149800
v 0.03805700 0.14641800 -0.26310400
v 0.04006600 0.14843200 -0.25384700
v 0.03995000 0.14641800 -0.25490500
v 0.04009700 0.14843200 -0.24649200
v 0.03855200 0.14843200 -0.23794500
v 0.04009700 0.14641800 -0.24649200
v 0.03450100 0.14641800 -0.27073000
v 0.03457000 0.14843200 -0.22938500
v 0.02897200 0.14843200 -0.22194500
v 0.03090100 0.14641800 -0.22420900
v 0.02160100 0.14843200 -0.21603700
v 0.02507500 0.14641800 -0.21851500
v 0.03546100 0.14641800 -0.23095900
v 0.03856900 0.14641800 -0.23849000
v 0.01822100 0.14641800 -0.21411000
v 0.01171300 0.14842600 -0.21109100
v 0.00954500 0.13987900 -0.28704800
v 0.01107900 0.14548500 -0.28839500
v 0.01795200 0.14316800 -0.28490400
v 0.01765300 0.13992400 -0.28393300
v 0.00768100 0.14643300 -0.28951000
v 0.00681900 0.14294100 -0.28859400
v 0.00265100 0.14391400 -0.28960200
v 0.01818000 0.14479300 -0.28534900
v -0.01158900 0.13991100 -0.28645100
v -0.01227300 0.14316800 -0.28728200
v -0.00306300 0.13969100 -0.28811900
v -0.00071800 0.14642900 -0.29024300
v -0.00067800 0.14258100 -0.28905900
v -0.00458300 0.14546200 -0.28969100
v -0.01242900 0.14479300 -0.28775700
v 0.03728200 0.14316800 -0.26227300
v 0.03812800 0.13991900 -0.24607800
v 0.03799000 0.13948900 -0.25440800
v 0.03546800 0.13991800 -0.26432000
v 0.03114800 0.13991800 -0.27220100
v 0.02510800 0.13991800 -0.27885600
v 0.02943700 0.14641800 -0.27745000
v 0.04009700 0.14641800 -0.24649200
v 0.03995000 0.14641800 -0.25490500
v 0.03805700 0.14641800 -0.26310400
v 0.01572700 0.14641800 -0.28705000
v 0.03450100 0.14641800 -0.27073000
v 0.02308600 0.14641800 -0.28297100
v -0.03490400 0.14316800 -0.26795200
v -0.02682000 0.13991800 -0.27727200
v -0.03244300 0.13991800 -0.27026200
v -0.03653600 0.13962000 -0.26126000
v -0.01971600 0.13991800 -0.28277700
v -0.04009700 0.14641800 -0.25350800
v -0.03823700 0.13963100 -0.25241800
v -0.02422300 0.14641800 -0.28214500
v -0.00905400 0.14641800 -0.28921800
v -0.01701000 0.14641800 -0.28647900
v -0.03520300 0.14641800 -0.26951400
v -0.03037700 0.14641800 -0.27640600
v -0.03849100 0.14641800 -0.26176800
v -0.03850700 0.11743200 -0.26155800
v -0.03794900 0.12405700 -0.25512900
v -0.03698100 0.12382400 -0.25976700
v -0.03467400 0.12381800 -0.26615000
v -0.03520300 0.11731800 -0.26951400
v -0.03118500 0.12381800 -0.27214800
v -0.02658600 0.12381800 -0.27749900
v -0.03037700 0.11731800 -0.27640600
v -0.01497700 0.12381800 -0.28519600
v -0.01159100 0.12067800 -0.28747300
v -0.02108500 0.12381800 -0.28191400
v -0.00853900 0.12379100 -0.28730200
v -0.02422300 0.11731800 -0.28214500
v -0.01701000 0.11731800 -0.28647900
v -0.00175400 0.12294800 -0.28849400
v -0.00162400 0.11746300 -0.29025600
v -0.00905400 0.11731800 -0.28921800
v -0.04009700 0.11731800 -0.25350800
v 0.00374700 0.12031900 -0.28925300
v 0.01483000 0.12381800 -0.28526200
v 0.02083900 0.12382400 -0.28207300
v 0.01849100 0.12073900 -0.28457600
v 0.02630600 0.12381800 -0.27776800
v 0.03095800 0.12381800 -0.27246500
v 0.02943700 0.11731800 -0.27745000
v 0.03455700 0.12381800 -0.26639700
v 0.03450100 0.11731800 -0.27073000
v 0.03806600 0.12389000 -0.25378300
v 0.03802900 0.12373700 -0.24560500
v 0.03876000 0.12233600 -0.24986900
v 0.04009700 0.11731800 -0.24649200
v 0.03805700 0.11731800 -0.26310400
v 0.03695100 0.12381800 -0.25988300
v 0.00768000 0.11731800 -0.28951100
v 0.00855800 0.12319100 -0.28749300
v 0.01485400 0.11758300 -0.28738900
v 0.03995000 0.11731800 -0.25490500
v 0.02308600 0.11731800 -0.28297100
v -0.00020900 0.12223300 -0.28996100
v -0.00020900 0.12223300 -0.28996100
v 0.00519200 0.12168700 -0.28908400
v 0.00374700 0.12031900 -0.28925300
v -0.00195200 0.12599600 -0.29002000
v -0.00195200 0.12599600 -0.29002000
v -0.00195200 0.12599600 -0.29002000
v -0.00274400 0.12544800 -0.29008200
v -0.00274400 0.12544800 -0.29008200
v -0.00278700 0.13834700 -0.29009500
v -0.00278700 0.13834700 -0.29009500
v 0.00733700 0.12200500 -0.28921100
v 0.00733700 0.12200500 -0.28921100
v 0.00880100 0.12527500 -0.28908400
v 0.00880100 0.12527500 -0.28908400
v 0.00964800 0.12514000 -0.28900800
v 0.00964800 0.12514000 -0.28900800
v -0.00146400 0.14172500 -0.28998900
v -0.00179500 0.13951700 -0.28998800
v -0.00179500 0.13951700 -0.28998800
v 0.00265100 0.14391400 -0.28960200
v 0.00666500 0.14197100 -0.28868100
v 0.00774100 0.14240600 -0.28917300
v 0.00774100 0.14240600 -0.28917300
v 0.00887200 0.13859000 -0.28907400
v 0.00887200 0.13859000 -0.28907400
v 0.00968900 0.13889000 -0.28900600
v 0.00265100 0.14391400 -0.28960200
v 0.00666500 0.14197100 -0.28868100
v 0.00213800 0.14242500 -0.28928500
v 0.00666500 0.14197100 -0.28868100
v 0.00887200 0.13859000 -0.28907400
v 0.00818900 0.13974800 -0.28831400
v -0.00191700 0.13848700 -0.28936000
v -0.00191700 0.13848700 -0.28936000
v -0.00132100 0.12472500 -0.28911600
v -0.00195200 0.12599600 -0.29002000
v -0.00195200 0.12599600 -0.29002000
v -0.00132100 0.12472500 -0.28911600
v 0.00118600 0.12230500 -0.28885800
v -0.00020900 0.12223300 -0.28996100
v -0.00195200 0.12599600 -0.29002000
v 0.00880100 0.12527500 -0.28908400
v 0.00519200 0.12168700 -0.28908400
v 0.00779800 0.12425000 -0.28859300
v 0.00857600 0.12560400 -0.28833700
v 0.00818900 0.13974800 -0.28831400
v 0.00887200 0.13859000 -0.28907400
v -0.00132100 0.12472500 -0.28911600
v -0.00098900 0.13763600 -0.28963700
v -0.00097900 0.12644600 -0.28963600
v 0.00148000 0.12299100 -0.28940800
v 0.00519200 0.12168700 -0.28908400
v 0.00118600 0.12230500 -0.28885800
v -0.00098900 0.13763600 -0.28963700
v -0.00098900 0.13763600 -0.28963700
v -0.00124300 0.14041700 -0.28915500
v 0.00213800 0.14242500 -0.28928500
v 0.00213800 0.14242500 -0.28928500
v 0.00785300 0.13812500 -0.28886300
v 0.00785300 0.13812500 -0.28886300
v 0.00666500 0.14197100 -0.28868100
v 0.00818900 0.13974800 -0.28831400
v -0.00097900 0.12644600 -0.28963600
v 0.00148000 0.12299100 -0.28940800
v -0.00132100 0.12472500 -0.28911600
v 0.00519200 0.12168700 -0.28908400
v 0.00519200 0.12168700 -0.28908400
v 0.00779800 0.12425000 -0.28859300
v -0.00020900 0.12223300 -0.28996100
v 0.00374700 0.12031900 -0.28925300
v -0.00175400 0.12294800 -0.28849400
v -0.00312600 0.12622300 -0.28821500
v -0.00274400 0.12544800 -0.29008200
v -0.00274400 0.12544800 -0.29008200
v -0.00312600 0.12622300 -0.28821500
v -0.00312600 0.12622300 -0.28821500
v -0.00306300 0.13969100 -0.28811900
v -0.00278700 0.13834700 -0.29009500
v -0.00278700 0.13834700 -0.29009500
v -0.00067800 0.14258100 -0.28905900
v -0.00146400 0.14172500 -0.28998900
v -0.00306300 0.13969100 -0.28811900
v -0.00278700 0.13834700 -0.29009500
v 0.00265100 0.14391400 -0.28960200
v 0.00774100 0.14240600 -0.28917300
v 0.00265100 0.14391400 -0.28960200
v 0.00681900 0.14294100 -0.28859400
v 0.00954500 0.13987900 -0.28704800
v 0.00968900 0.13889000 -0.28900600
v 0.00973800 0.12626800 -0.28706000
v 0.00964800 0.12514000 -0.28900800
v 0.00968900 0.13889000 -0.28900600
v 0.00954500 0.13987900 -0.28704800
v 0.00964800 0.12514000 -0.28900800
v 0.00973800 0.12626800 -0.28706000
v 0.00855800 0.12319100 -0.28749300
v 0.00733700 0.12200500 -0.28921100
v 0.00374700 0.12031900 -0.28925300
v 0.03689500 0.13187800 -0.26009100
v 0.03799000 0.13948900 -0.25440800
v 0.03687800 0.12785000 -0.26015400
v 0.03826000 0.12463800 -0.24960000
v 0.03806600 0.12389000 -0.25378300
v 0.01468400 0.13711800 -0.28535200
v 0.02090900 0.13187300 -0.28202800
v 0.02083900 0.12382400 -0.28207300
v 0.03691200 0.13590000 -0.26002800
v 0.03826300 0.13906700 -0.24932700
v 0.02099000 0.13589700 -0.28197600
v 0.03812800 0.13991900 -0.24607800
v 0.03802900 0.12373700 -0.24560500
v 0.03695100 0.12381800 -0.25988300
v 0.03455700 0.12381800 -0.26639700
v 0.03095800 0.12381800 -0.27246500
v 0.01483000 0.12381800 -0.28526200
v 0.00855800 0.12319100 -0.28749300
v 0.00973800 0.12626800 -0.28706000
v 0.02630600 0.12381800 -0.27776800
v 0.03114800 0.13991800 -0.27220100
v 0.00954500 0.13987900 -0.28704800
v 0.03546800 0.13991800 -0.26432000
v 0.02510800 0.13991800 -0.27885600
v 0.01765300 0.13992400 -0.28393300
v -0.01548700 0.13187300 -0.28497400
v -0.00863900 0.13710200 -0.28728100
v -0.01539900 0.12784700 -0.28501300
v -0.03698100 0.12382400 -0.25976700
v -0.03779900 0.13903100 -0.25598200
v -0.03653600 0.13962000 -0.26126000
v -0.03794900 0.12405700 -0.25512900
v -0.03478500 0.13187800 -0.26590500
v -0.01557500 0.13589700 -0.28493500
v -0.03481400 0.13590000 -0.26584400
v -0.00312600 0.12622300 -0.28821500
v -0.00175400 0.12294800 -0.28849400
v -0.00853900 0.12379100 -0.28730200
v -0.01497700 0.12381800 -0.28519600
v -0.02108500 0.12381800 -0.28191400
v -0.02658600 0.12381800 -0.27749900
v -0.03118500 0.12381800 -0.27214800
v -0.03467400 0.12381800 -0.26615000
v -0.00306300 0.13969100 -0.28811900
v -0.03823700 0.13963100 -0.25241800
v -0.02682000 0.13991800 -0.27727200
v -0.01158900 0.13991100 -0.28645100
v -0.01971600 0.13991800 -0.28277700
v -0.03244300 0.13991800 -0.27026200
v -0.03823700 0.13963100 -0.25241800
v -0.03688700 0.12781400 -0.23988000
v -0.03809400 0.13988900 -0.24650700
v -0.03814200 0.12378800 -0.24696400
v -0.03686400 0.13178200 -0.23979800
v -0.03823700 0.13963100 -0.25241800
v -0.03826600 0.12469100 -0.25062800
v -0.03684100 0.13586400 -0.23971400
v -0.03794900 0.12405700 -0.25512900
v -0.03478900 0.12381800 -0.23410100
v -0.03128900 0.12381800 -0.22799900
v -0.03707100 0.12381800 -0.24057500
v -0.02122900 0.12381800 -0.21818200
v -0.02102000 0.13190700 -0.21804300
v -0.02669100 0.12381800 -0.22260200
v -0.00898800 0.12381800 -0.21282100
v -0.00921600 0.13209200 -0.21287700
v -0.01521700 0.12381800 -0.21490700
v -0.03112900 0.13991800 -0.22777300
v -0.01542000 0.13991800 -0.21499600
v -0.02657700 0.13991800 -0.22249200
v -0.03698500 0.13991800 -0.24024500
v -0.03464700 0.13991800 -0.23379400
v -0.02123900 0.13991800 -0.21818900
v -0.00945300 0.13983000 -0.21293400
v -0.00333400 0.12381800 -0.21189600
v -0.00331200 0.13186800 -0.21214500
v -0.00898800 0.12381800 -0.21282100
v -0.00945300 0.13983000 -0.21293400
v -0.00921600 0.13209200 -0.21287700
v -0.00053700 0.14141400 -0.21215700
v 0.00262900 0.13209200 -0.21184100
v -0.00053700 0.14141400 -0.21215700
v 0.00239500 0.12381800 -0.21182500
v -0.00333400 0.12381800 -0.21189600
v 0.00287600 0.13983100 -0.21185600
v -0.00331200 0.13186800 -0.21214500
v 0.03486200 0.12382700 -0.23426700
v 0.03703500 0.12382200 -0.24042800
v 0.03480900 0.13177900 -0.23414500
v 0.03812800 0.13991900 -0.24607800
v 0.03802900 0.12373700 -0.24560500
v 0.03698000 0.13991000 -0.24023000
v 0.03477300 0.13586200 -0.23406600
v 0.00889200 0.12381800 -0.21279800
v 0.01538200 0.12381800 -0.21497900
v 0.01545700 0.13190600 -0.21501200
v 0.02152700 0.12381800 -0.21838300
v 0.02699300 0.12381800 -0.22290000
v 0.03150000 0.12381800 -0.22830200
v 0.00262900 0.13209200 -0.21184100
v 0.02679600 0.13991800 -0.22270500
v 0.00239500 0.12381800 -0.21182500
v 0.00910800 0.13991800 -0.21285000
v 0.03472900 0.13991800 -0.23397000
v 0.02139700 0.13991800 -0.21829400
v 0.01539300 0.13991800 -0.21498400
v 0.03130600 0.13991800 -0.22802400
v 0.00287600 0.13983100 -0.21185600
v 0.00265100 0.14391400 -0.28960200
v -0.00124300 0.14041700 -0.28915500
v -0.00179500 0.13951700 -0.28998800
v -0.00020900 0.12223300 -0.28996100
v 0.00118600 0.12230500 -0.28885800
v 0.00519200 0.12168700 -0.28908400
v 0.00880100 0.12527500 -0.28908400
v 0.00779800 0.12425000 -0.28859300
v 0.00857600 0.12560400 -0.28833700
v 0.00265100 0.14391400 -0.28960200
v 0.00213800 0.14242500 -0.28928500
v -0.00124300 0.14041700 -0.28915500
v -0.00179500 0.13951700 -0.28998800
v -0.00124300 0.14041700 -0.28915500
v -0.00191700 0.13848700 -0.28936000
v -0.03794900 0.12405700 -0.25512900
v -0.02943700 0.11731800 -0.22255000
v 0.02422300 0.11731800 -0.21785500
v 0.04009700 0.11731800 -0.24649200
v 0.02943700 0.11731800 -0.27745000
v -0.02422300 0.11731800 -0.28214500
v -0.04009700 0.11731800 -0.25350800
v -0.00179500 0.13951700 -0.28998800
v 0.00880100 0.12527500 -0.28908400
v 0.00779800 0.12425000 -0.28859300
v 0.00818900 0.13974800 -0.28831400
v 0.00857600 0.12560400 -0.28833700
v 0.00785300 0.13812500 -0.28886300
v -0.00124300 0.14041700 -0.28915500
v -0.00191700 0.13848700 -0.28936000
v -0.00132100 0.12472500 -0.28911600
vn 0.22760000 -0.29410000 0.92830000
vn 0.38460000 -0.29410000 0.87500000
vn 0.19760000 -0.29400000 0.93520000
vn 0.07230000 -0.29380000 0.95310000
vn 0.53460000 -0.29410000 0.79220000
vn 0.43270000 -0.29410000 0.85220000
vn 0.78230000 -0.29410000 0.54910000
vn 0.73380000 -0.29410000 0.61240000
vn 0.66960000 -0.29410000 0.68200000
vn 0.59540000 -0.29410000 0.74760000
vn 0.86780000 -0.29410000 0.40050000
vn 0.84210000 -0.29410000 0.45210000
vn 0.27670000 -0.29340000 0.91510000
vn 0.91590000 -0.29410000 0.27330000
vn 0.92970000 -0.29340000 0.22260000
vn 0.95070000 -0.29430000 0.09750000
vn 0.92410000 -0.29410000 0.24420000
vn 0.95210000 -0.29410000 0.08330000
vn 0.94930000 0.29460000 0.10960000
vn 0.92540000 0.29410000 0.23910000
vn 0.95210000 0.29410000 0.08330000
vn 0.83590000 0.29410000 0.46340000
vn 0.87120000 0.29410000 0.39310000
vn 0.78710000 0.29410000 0.54220000
vn 0.91400000 0.29410000 0.27940000
vn 0.67450000 0.29410000 0.67720000
vn 0.53790000 0.29410000 0.79000000
vn 0.57520000 0.29410000 0.76330000
vn 0.38430000 0.29410000 0.87510000
vn 0.22220000 0.29410000 0.92960000
vn 0.21500000 0.29410000 0.93130000
vn 0.40390000 0.29410000 0.86620000
vn 0.72130000 0.29410000 0.62710000
vn 0.01670000 0.29410000 0.95560000
vn 0.05990000 0.29410000 0.95390000
vn -0.08330000 0.29410000 0.95220000
vn -0.18240000 0.29410000 0.93820000
vn -0.22460000 0.29410000 0.92900000
vn -0.38030000 0.29410000 0.87690000
vn -0.53040000 0.29410000 0.79510000
vn -0.37350000 0.29410000 0.87980000
vn -0.66690000 0.29410000 0.68460000
vn -0.78180000 0.29410000 0.54980000
vn -0.69900000 0.29410000 0.65180000
vn -0.90370000 0.29410000 0.31120000
vn -0.86930000 0.29410000 0.39730000
vn -0.92630000 0.29400000 0.23550000
vn -0.95280000 0.29410000 0.07580000
vn -0.94870000 0.29410000 0.11650000
vn -0.81930000 0.29410000 0.49230000
vn -0.54820000 0.29410000 0.78290000
vn -0.95210000 0.29410000 -0.08330000
vn -0.99250000 -0.00000000 0.12190000
vn -0.99620000 -0.00000000 -0.08710000
vn -0.99620000 0.00000000 -0.08720000
vn -0.97820000 0.00000000 0.20780000
vn -0.87930000 0.00000000 0.47630000
vn -0.94550000 -0.00000000 0.32560000
vn -0.71200000 0.00000000 0.70220000
vn -0.48840000 -0.00000000 0.87260000
vn -0.57360000 0.00000000 0.81920000
vn -0.85720000 0.00000000 0.51500000
vn -0.22630000 0.00000000 0.97410000
vn -0.39070000 0.00000000 0.92050000
vn 0.01750000 0.00000000 0.99980000
vn -0.19080000 0.00000000 0.98160000
vn 0.06430000 -0.00000000 0.99790000
vn 0.22500000 -0.00000000 0.97440000
vn 0.34690000 0.00000000 0.93790000
vn 0.59520000 0.00000000 0.80360000
vn 0.42260000 -0.00000000 0.90630000
vn 0.79530000 0.00000000 0.60620000
vn 0.93260000 -0.00000000 0.36090000
vn 0.87460000 -0.00000000 0.48480000
vn 0.75470000 -0.00000000 0.65610000
vn 0.99620000 0.00000000 0.08710000
vn 0.95630000 -0.00000000 0.29240000
vn 0.99250000 -0.00000000 -0.12190000
vn 0.99620000 0.00000000 0.08710000
vn 0.99620000 0.00000000 0.08720000
vn 0.97820000 -0.00000000 -0.20780000
vn 0.87930000 0.00000000 -0.47630000
vn 0.94550000 -0.00000000 -0.32560000
vn 0.71200000 0.00000000 -0.70220000
vn 0.48840000 -0.00000000 -0.87260000
vn 0.57360000 0.00000000 -0.81920000
vn 0.85720000 0.00000000 -0.51500000
vn 0.22630000 -0.00000000 -0.97410000
vn 0.36930000 -0.00000000 -0.92930000
vn -0.04010000 0.00000000 -0.99920000
vn 0.19080000 0.00000000 -0.98160000
vn -0.06430000 -0.00000000 -0.99790000
vn -0.22490000 -0.00000000 -0.97440000
vn -0.34690000 -0.00000000 -0.93790000
vn -0.59520000 0.00000000 -0.80360000
vn -0.42260000 0.00000000 -0.90630000
vn -0.79530000 0.00000000 -0.60620000
vn -0.93260000 0.00000000 -0.36090000
vn -0.87460000 0.00000000 -0.48480000
vn -0.75470000 -0.00000000 -0.65610000
vn -0.99620000 -0.00000000 -0.08710000
vn -0.95780000 0.00000000 -0.28750000
vn -0.94940000 -0.29410000 0.11010000
vn -0.95210000 -0.29410000 -0.08330000
vn -0.95420000 -0.29330000 -0.05880000
vn -0.92420000 -0.29400000 0.24380000
vn -0.86570000 -0.29410000 0.40500000
vn -0.90780000 -0.29410000 0.29910000
vn -0.66410000 -0.29410000 0.68740000
vn -0.71620000 -0.29410000 0.63290000
vn -0.77780000 -0.29410000 0.55540000
vn -0.82900000 -0.29410000 0.47570000
vn -0.38530000 -0.29410000 0.87470000
vn -0.33230000 -0.29410000 0.89610000
vn -0.53070000 -0.29410000 0.79490000
vn -0.57410000 -0.29410000 0.76420000
vn -0.23660000 -0.29390000 0.92610000
vn -0.95170000 -0.29400000 0.08880000
vn -0.40850000 -0.29410000 0.86410000
vn 0.00000000 -1.00000000 -0.00000000
vn 0.00000000 -1.00000000 -0.00000000
vn 0.00000000 -1.00000000 -0.00000000
vn 0.00000000 -1.00000000 -0.00000000
vn 0.00000000 -1.00000000 -0.00000000
vn 0.00000000 -1.00000000 -0.00000000
vn 0.00000000 -1.00000000 -0.00000000
vn 0.00000000 -1.00000000 -0.00000000
vn 0.00000000 -1.00000000 -0.00000000
vn 0.00000000 -1.00000000 -0.00000000
vn 0.00000000 -1.00000000 -0.00000000
vn 0.00000000 -1.00000000 -0.00000000
vn 0.00000000 -1.00000000 -0.00000000
vn 0.00000000 -1.00000000 -0.00000000
vn 0.00000000 -1.00000000 -0.00000000
vn 0.00000000 -1.00000000 -0.00000000
vn 0.00000000 -1.00000000 -0.00000000
vn 0.00000000 -1.00000000 -0.00000000
vn 0.00000000 -1.00000000 -0.00000000
vn 0.00000000 -1.00000000 -0.00000000
vn 0.00000000 -1.00000000 -0.00000000
vn 0.00000000 -1.00000000 -0.00000000
vn -0.08710000 0.00000000 0.99620000
vn -0.08720000 -0.00000000 0.99620000
vn -0.08710000 0.00000000 0.99620000
vn -0.08720000 -0.00020000 0.99620000
vn -0.08720000 -0.00000000 0.99620000
vn -0.08710000 0.00000000 0.99620000
vn -0.08720000 -0.00020000 0.99620000
vn -0.08720000 -0.00000000 0.99620000
vn -0.08710000 0.00000000 0.99620000
vn -0.08720000 -0.00020000 0.99620000
vn -0.08720000 -0.00000000 0.99620000
vn -0.08710000 0.00000000 0.99620000
vn -0.08720000 -0.00000000 0.99620000
vn -0.08710000 0.00000000 0.99620000
vn -0.08720000 -0.00000000 0.99620000
vn 0.00000000 1.00000000 -0.00000000
vn 0.00000000 1.00000000 -0.00000000
vn 0.00000000 1.00000000 -0.00000000
vn 0.00000000 1.00000000 -0.00000000
vn 0.00000000 1.00000000 -0.00000000
vn -0.00000000 1.00000000 -0.00010000
vn 0.00000000 1.00000000 -0.00000000
vn 0.00000000 1.00000000 -0.00000000
vn 0.00000000 1.00000000 -0.00020000
vn 0.00000000 1.00000000 -0.00000000
vn 0.00000000 1.00000000 -0.00020000
vn -0.00000000 1.00000000 -0.00010000
vn 0.00000000 1.00000000 -0.00000000
vn 0.00000000 1.00000000 -0.00020000
vn 0.00000000 1.00000000 -0.00000000
vn 0.00000000 1.00000000 -0.00000000
vn 0.00000000 1.00000000 -0.00000000
vn 0.00000000 1.00000000 -0.00000000
vn 0.00000000 1.00000000 -0.00000000
vn 0.00000000 1.00000000 -0.00000000
vn 0.00000000 1.00000000 -0.00000000
vn 0.00000000 1.00000000 -0.00000000
vn 0.00000000 1.00000000 -0.00000000
vn 0.00000000 1.00000000 -0.00000000
vn 0.00000000 1.00000000 -0.00000000
vn 0.00000000 1.00000000 -0.00000000
vn 0.00000000 1.00000000 -0.00000000
vn 0.00000000 1.00000000 -0.00000000
vn -0.00000000 1.00000000 -0.00010000
vn 0.00000000 1.00000000 -0.00000000
vn 0.00000000 1.00000000 -0.00000000
vn 0.00000000 1.00000000 -0.00000000
vn 0.00000000 1.00000000 -0.00000000
vn -0.78040000 0.00000000 0.62530000
vn -0.86820000 -0.00000000 0.49630000
vn -0.86730000 -0.00000000 0.49770000
vn -0.74930000 0.00000000 0.66220000
vn -0.63300000 0.00000000 0.77410000
vn -0.93480000 -0.00000000 0.35530000
vn -0.99180000 -0.00000000 0.12820000
vn -0.99620000 0.00000000 -0.08720000
vn -0.99620000 0.00000000 -0.08720000
vn -0.94980000 0.00000000 0.31290000
vn -0.96370000 -0.00000000 -0.26700000
vn -0.89420000 0.00000000 -0.44770000
vn -0.95630000 -0.00000000 -0.29240000
vn -0.78610000 -0.00000000 -0.61810000
vn -0.87460000 0.00000000 -0.48480000
vn -0.64280000 -0.00000000 -0.76600000
vn -0.47220000 0.00000000 -0.88150000
vn -0.60180000 -0.00000000 -0.79860000
vn -0.28570000 -0.00000000 -0.95830000
vn -0.42260000 0.00000000 -0.90630000
vn -0.75470000 -0.00000000 -0.65610000
vn -0.09560000 0.00000000 -0.99540000
vn -0.22490000 -0.00000000 -0.97440000
vn -0.60060000 -0.00000000 0.79950000
vn -0.42740000 0.00000000 0.90410000
vn -0.54730000 0.00000000 0.83690000
vn -0.43170000 -0.00000000 0.90200000
vn -0.99330000 -0.00000000 0.11520000
vn -0.01780000 -0.00000000 -0.99980000
vn 0.08720000 0.00000000 -0.99620000
vn 0.26700000 -0.00000000 -0.96370000
vn 0.19080000 0.00000000 -0.98160000
vn 0.44770000 0.00000000 -0.89420000
vn 0.61810000 0.00000000 -0.78610000
vn 0.57360000 0.00000000 -0.81920000
vn 0.76610000 -0.00000000 -0.64280000
vn 0.73140000 0.00000000 -0.68200000
vn 0.39070000 0.00000000 -0.92050000
vn 0.88150000 -0.00000000 -0.47220000
vn 0.95830000 0.00000000 -0.28570000
vn 0.94550000 -0.00000000 -0.32560000
vn 0.99540000 -0.00000000 -0.09560000
vn 0.99250000 -0.00000000 -0.12190000
vn 0.99620000 0.00000000 0.08710000
vn 0.95440000 -0.00000000 0.29840000
vn 0.99620000 0.00000000 0.08720000
vn 0.85720000 0.00000000 -0.51500000
vn 0.85890000 0.00000000 0.51220000
vn 0.71840000 0.00000000 0.69560000
vn 0.76770000 0.00000000 0.64080000
vn 0.53670000 -0.00000000 0.84380000
vn 0.62300000 0.00000000 0.78220000
vn 0.88100000 0.00000000 0.47310000
vn 0.95820000 -0.00000000 0.28600000
vn 0.45270000 -0.00000000 0.89170000
vn 0.28820000 -0.00000000 0.95760000
vn 0.23960000 -0.29400000 -0.92530000
vn 0.26480000 -0.29410000 -0.91840000
vn 0.43710000 -0.29410000 -0.85000000
vn 0.44110000 -0.29410000 -0.84790000
vn 0.18240000 -0.29410000 -0.93820000
vn 0.16640000 -0.29400000 -0.94120000
vn 0.06410000 -0.29330000 -0.95390000
vn 0.43710000 -0.29410000 -0.85000000
vn -0.28960000 -0.29410000 -0.91080000
vn -0.29890000 -0.29410000 -0.90780000
vn -0.07780000 -0.29400000 -0.95260000
vn -0.01700000 -0.29410000 -0.95560000
vn -0.01670000 -0.29410000 -0.95560000
vn -0.10950000 -0.29400000 -0.94950000
vn -0.29890000 -0.29410000 -0.90790000
vn 0.90790000 -0.29410000 -0.29880000
vn 0.95100000 -0.29330000 0.09740000
vn 0.94950000 -0.29340000 -0.11100000
vn 0.88630000 -0.29410000 -0.35780000
vn 0.77830000 -0.29410000 -0.55470000
vn 0.62740000 -0.29410000 -0.72100000
vn 0.69900000 -0.29410000 -0.65190000
vn 0.95210000 -0.29410000 0.08330000
vn 0.94870000 -0.29410000 -0.11650000
vn 0.90370000 -0.29410000 -0.31120000
vn 0.37340000 -0.29410000 -0.87980000
vn 0.81930000 -0.29410000 -0.49230000
vn 0.54820000 -0.29410000 -0.78290000
vn -0.85000000 -0.29410000 -0.43710000
vn -0.67020000 -0.29410000 -0.68150000
vn -0.81070000 -0.29410000 -0.50630000
vn -0.91330000 -0.29370000 -0.28200000
vn -0.49260000 -0.29410000 -0.81900000
vn -0.95210000 -0.29410000 -0.08330000
vn -0.95420000 -0.29270000 -0.06120000
vn -0.57520000 -0.29410000 -0.76330000
vn -0.21500000 -0.29410000 -0.93130000
vn -0.40390000 -0.29410000 -0.86620000
vn -0.83590000 -0.29410000 -0.46340000
vn -0.72130000 -0.29410000 -0.62700000
vn -0.91400000 -0.29410000 -0.27940000
vn -0.91560000 0.29420000 -0.27400000
vn -0.94720000 0.29340000 -0.12930000
vn -0.92410000 0.29410000 -0.24410000
vn -0.86640000 0.29410000 -0.40350000
vn -0.83600000 0.29400000 -0.46340000
vn -0.77920000 0.29410000 -0.55340000
vn -0.66430000 0.29410000 -0.68710000
vn -0.72130000 0.29410000 -0.62710000
vn -0.37420000 0.29410000 -0.87950000
vn -0.28250000 0.29400000 -0.91310000
vn -0.52680000 0.29410000 -0.79750000
vn -0.21280000 0.29400000 -0.93180000
vn -0.57520000 0.29410000 -0.76330000
vn -0.40390000 0.29410000 -0.86620000
vn -0.04350000 0.29370000 -0.95490000
vn -0.03790000 0.29350000 -0.95520000
vn -0.21500000 0.29410000 -0.93130000
vn -0.95210000 0.29410000 -0.08330000
vn 0.09070000 0.29360000 -0.95160000
vn 0.37030000 0.29410000 -0.88110000
vn 0.52070000 0.29410000 -0.80150000
vn 0.45090000 0.29400000 -0.84280000
vn 0.65730000 0.29410000 -0.69390000
vn 0.77360000 0.29410000 -0.56130000
vn 0.69900000 0.29410000 -0.65180000
vn 0.86350000 0.29410000 -0.40970000
vn 0.81930000 0.29410000 -0.49230000
vn 0.95100000 0.29390000 -0.09610000
vn 0.94970000 0.29360000 0.10940000
vn 0.95590000 0.29370000 0.00310000
vn 0.95210000 0.29410000 0.08330000
vn 0.90370000 0.29410000 -0.31120000
vn 0.92320000 0.29450000 -0.24710000
vn 0.18240000 0.29410000 -0.93820000
vn 0.21250000 0.29370000 -0.93200000
vn 0.35350000 0.29370000 -0.88810000
vn 0.94870000 0.29410000 -0.11650000
vn 0.54820000 0.29410000 -0.78290000
vn 0.08730000 -0.00000000 -0.99620000
vn 0.08720000 0.00000000 -0.99620000
vn 0.08720000 0.00000000 -0.99620000
vn 0.08720000 0.00000000 -0.99620000
vn 0.08720000 0.00000000 -0.99620000
vn 0.08710000 -0.00000000 -0.99620000
vn 0.08730000 -0.00000000 -0.99620000
vn 0.08730000 -0.00000000 -0.99620000
vn 0.08710000 -0.00000000 -0.99620000
vn 0.08720000 0.00000000 -0.99620000
vn 0.08710000 -0.00000000 -0.99620000
vn 0.08710000 -0.00000000 -0.99620000
vn 0.08720000 0.00000000 -0.99620000
vn 0.08710000 -0.00000000 -0.99620000
vn 0.08720000 0.00000000 -0.99620000
vn 0.08720000 0.00000000 -0.99620000
vn 0.08710000 -0.00000000 -0.99620000
vn 0.08710000 -0.00000000 -0.99620000
vn 0.08710000 -0.00000000 -0.99620000
vn 0.08720000 0.00000000 -0.99620000
vn 0.08710000 -0.00000000 -0.99620000
vn 0.08720000 0.00000000 -0.99620000
vn 0.08720000 0.00000000 -0.99620000
vn 0.08710000 -0.00000000 -0.99620000
vn 0.08710000 -0.00000000 -0.99620000
vn 0.08720000 0.00000000 -0.99620000
vn 0.08710000 -0.00000000 -0.99620000
vn 0.10050000 -0.99490000 0.00880000
vn -0.53410000 -0.84410000 -0.04670000
vn 0.21190000 -0.97710000 0.01860000
vn -0.61020000 -0.79050000 -0.05340000
vn -0.98080000 -0.17530000 -0.08580000
vn -0.90610000 -0.41570000 -0.07930000
vn 0.99620000 0.00000000 0.08710000
vn 0.99620000 0.00000000 0.08720000
vn 0.99620000 0.00000000 0.08720000
vn 0.99620000 0.00000000 0.08720000
vn 0.99620000 0.00000000 0.08710000
vn 0.89690000 0.43520000 0.07850000
vn 0.46620000 0.88370000 0.04080000
vn 0.60430000 0.79500000 0.05280000
vn 0.98050000 0.17710000 0.08580000
vn -0.94710000 0.30990000 -0.08290000
vn -0.33940000 0.94020000 -0.02970000
vn -0.84040000 0.53700000 -0.07350000
vn -0.99620000 0.00000000 -0.08720000
vn -0.99620000 0.00000000 -0.08720000
vn -0.99620000 0.00000000 -0.08720000
vn -0.33160000 -0.00000000 -0.94340000
vn -0.99620000 -0.00000000 -0.08710000
vn -0.99640000 -0.00000000 -0.08470000
vn -0.43720000 -0.88980000 -0.13090000
vn 0.42860000 -0.76210000 -0.48520000
vn 0.14510000 0.14970000 -0.97800000
vn 0.08710000 -0.00000000 -0.99620000
vn 0.08720000 0.00000000 -0.99620000
vn 0.08720000 0.00000000 -0.99620000
vn 0.08720000 0.00000000 -0.99620000
vn 0.08710000 -0.00000000 -0.99620000
vn 0.08710000 -0.00000000 -0.99620000
vn 0.08720000 0.00000000 -0.99620000
vn 0.08720000 0.00000000 -0.99620000
vn 0.08720000 0.00000000 -0.99620000
vn 0.08710000 -0.00000000 -0.99620000
vn 0.08710000 -0.00000000 -0.99620000
vn 0.08710000 -0.00000000 -0.99620000
vn 0.08720000 0.00000000 -0.99620000
vn 0.08710000 -0.00000000 -0.99620000
vn 0.08720000 0.00000000 -0.99620000
vn -0.60390000 -0.78990000 -0.10650000
vn 0.04630000 -0.99890000 0.00820000
vn -0.76070000 -0.63510000 -0.13410000
vn -0.97770000 -0.12030000 -0.17240000
vn -0.95580000 -0.24080000 -0.16850000
vn -0.98480000 -0.00000000 -0.17370000
vn -0.98480000 -0.00000000 -0.17370000
vn -0.98480000 0.00000000 -0.17360000
vn -0.98480000 0.00000000 -0.17360000
vn -0.98480000 -0.00000000 -0.17370000
vn -0.98480000 0.00000000 -0.17360000
vn -0.61840000 0.77830000 -0.10900000
vn -0.75610000 0.64080000 -0.13330000
vn -0.93260000 0.32140000 -0.16440000
vn -0.97840000 0.11360000 -0.17250000
vn -0.13380000 0.99070000 -0.02360000
vn 0.66570000 0.74620000 -0.00000000
vn -0.09310000 0.99570000 0.00000000
vn 0.53440000 0.84520000 -0.00000000
vn 0.93640000 0.35100000 -0.00000000
vn 0.97990000 0.19960000 -0.00000000
vn 1.00000000 -0.00000000 -0.00000000
vn 1.00000000 -0.00000000 -0.00000000
vn 1.00000000 -0.00000000 -0.00000000
vn 1.00000000 -0.00000000 -0.00000000
vn 0.95790000 -0.28710000 -0.00000000
vn 0.99370000 -0.11220000 -0.00000000
vn 0.79870000 -0.60170000 -0.00000000
vn 0.61560000 -0.78800000 -0.00000000
vn 0.04780000 -0.99890000 0.00000000
vn 0.96460000 0.00000000 -0.26390000
vn 0.99330000 -0.00010000 -0.11520000
vn 0.96410000 0.00000000 -0.26550000
vn 0.99990000 0.00000000 0.01040000
vn 0.99510000 0.00000000 -0.09880000
vn 0.38360000 -0.00010000 -0.92350000
vn 0.54660000 -0.00000000 -0.83740000
vn 0.54490000 0.00010000 -0.83850000
vn 0.96500000 -0.00000000 -0.26220000
vn 0.99980000 -0.00000000 0.01760000
vn 0.54880000 -0.00010000 -0.83600000
vn 0.99470000 -0.00000000 0.10240000
vn 0.99340000 0.00000000 0.11470000
vn 0.96600000 0.00010000 -0.25840000
vn 0.90350000 0.00010000 -0.42870000
vn 0.80940000 0.00010000 -0.58730000
vn 0.38770000 0.00010000 -0.92180000
vn 0.22210000 0.00020000 -0.97500000
vn 0.25420000 0.00010000 -0.96720000
vn 0.68770000 0.00010000 -0.72590000
vn 0.81430000 -0.00010000 -0.58040000
vn 0.24940000 -0.00020000 -0.96840000
vn 0.92730000 -0.00010000 -0.37440000
vn 0.65640000 -0.00010000 -0.75440000
vn 0.46150000 -0.00010000 -0.88710000
vn -0.40490000 -0.00000000 -0.91440000
vn -0.22570000 -0.00010000 -0.97420000
vn -0.40260000 0.00010000 -0.91540000
vn -0.96680000 0.00000000 -0.25540000
vn -0.98770000 -0.00000000 -0.15630000
vn -0.95570000 -0.00010000 -0.29450000
vn -0.99100000 0.00000000 -0.13400000
vn -0.90940000 0.00000000 -0.41590000
vn -0.40720000 -0.00010000 -0.91330000
vn -0.91020000 -0.00000000 -0.41420000
vn -0.08150000 0.00010000 -0.99670000
vn -0.04480000 0.00020000 -0.99900000
vn -0.22320000 0.00010000 -0.97480000
vn -0.39150000 0.00010000 -0.92020000
vn -0.55120000 0.00010000 -0.83430000
vn -0.69510000 0.00010000 -0.71890000
vn -0.81530000 0.00000000 -0.57900000
vn -0.90650000 0.00010000 -0.42220000
vn -0.08000000 -0.00010000 -0.99680000
vn -0.99800000 -0.00000000 -0.06310000
vn -0.70120000 -0.00010000 -0.71300000
vn -0.30300000 -0.00010000 -0.95300000
vn -0.51550000 -0.00010000 -0.85690000
vn -0.84820000 -0.00000000 -0.52970000
vn -0.99800000 -0.00010000 -0.06350000
vn -0.96440000 0.00000000 0.26460000
vn -0.99580000 -0.00010000 0.09130000
vn -0.99680000 0.00010000 0.07940000
vn -0.96380000 0.00000000 0.26670000
vn -0.99800000 -0.00000000 -0.06300000
vn -0.99990000 0.00000000 -0.01640000
vn -0.96320000 -0.00000000 0.26890000
vn -0.99100000 0.00000000 -0.13380000
vn -0.90950000 0.00010000 0.41570000
vn -0.81800000 0.00010000 0.57520000
vn -0.96920000 0.00010000 0.24640000
vn -0.55500000 -0.00000000 0.83180000
vn -0.54950000 0.00000000 0.83550000
vn -0.69780000 0.00000000 0.71630000
vn -0.23500000 0.00020000 0.97200000
vn -0.24080000 -0.00000000 0.97060000
vn -0.39780000 0.00000000 0.91750000
vn -0.81380000 -0.00000000 0.58110000
vn -0.40310000 -0.00000000 0.91510000
vn -0.69480000 -0.00000000 0.71920000
vn -0.96690000 -0.00010000 0.25500000
vn -0.90580000 -0.00010000 0.42370000
vn -0.55530000 0.00000000 0.83170000
vn -0.24710000 -0.00020000 0.96900000
vn -0.08710000 0.03100000 0.99570000
vn -0.08710000 0.03100000 0.99570000
vn -0.23500000 0.00020000 0.97200000
vn -0.08800000 0.00430000 0.99610000
vn -0.15780000 0.00240000 0.98750000
vn -0.06390000 0.04390000 0.99700000
vn -0.01610000 0.00240000 0.99990000
vn -0.09700000 0.02650000 0.99490000
vn 0.06260000 0.00020000 0.99800000
vn -0.08710000 0.03100000 0.99570000
vn -0.08640000 0.00420000 0.99630000
vn -0.08710000 0.03100000 0.99570000
vn 0.91150000 0.00010000 0.41140000
vn 0.96820000 0.00010000 0.25030000
vn 0.91010000 0.00000000 0.41450000
vn 0.99470000 -0.00000000 0.10250000
vn 0.99340000 0.00000000 0.11490000
vn 0.96680000 -0.00010000 0.25540000
vn 0.90910000 -0.00000000 0.41660000
vn 0.23250000 0.00010000 0.97260000
vn 0.40220000 -0.00000000 0.91550000
vn 0.40410000 -0.00000000 0.91470000
vn 0.56280000 0.00000000 0.82660000
vn 0.70570000 0.00010000 0.70850000
vn 0.82350000 0.00010000 0.56730000
vn 0.06860000 -0.00000000 0.99760000
vn 0.70060000 -0.00010000 0.71360000
vn 0.06260000 0.00020000 0.99800000
vn 0.23810000 -0.00010000 0.97120000
vn 0.90800000 -0.00010000 0.41910000
vn 0.55940000 -0.00000000 0.82890000
vn 0.40230000 0.00000000 0.91550000
vn 0.81850000 -0.00010000 0.57450000
vn 0.07520000 -0.00020000 0.99720000
vn 0.17600000 -0.98430000 0.01540000
vn 0.84260000 -0.53340000 0.07370000
vn 0.92710000 -0.36590000 0.08110000
vn 0.61950000 0.78320000 0.05420000
vn 0.41870000 0.90740000 0.03660000
vn -0.18950000 0.98170000 -0.01660000
vn -0.94970000 0.30200000 -0.08310000
vn -0.84940000 0.52250000 -0.07430000
vn -0.95980000 0.26780000 -0.08390000
vn 0.14440000 -0.98940000 0.01260000
vn 0.29580000 -0.95490000 0.02590000
vn 0.82400000 -0.56190000 0.07210000
vn 0.93980000 -0.33170000 0.08220000
vn 0.86090000 -0.50320000 0.07530000
vn 0.98480000 -0.15110000 0.08620000
vn -0.94760000 0.29280000 -0.12780000
vn -0.73140000 -0.00000000 0.68200000
vn 0.60180000 0.00000000 0.79860000
vn 0.99620000 0.00000000 0.08720000
vn 0.73140000 0.00000000 -0.68200000
vn -0.60180000 -0.00000000 -0.79860000
vn -0.99620000 -0.00000000 -0.08710000
vn 0.99620000 0.00000000 0.08710000
vn -0.99620000 0.00000000 -0.08720000
vn 0.90040000 0.00000000 -0.43520000
vn 0.37960000 -0.00000000 -0.92520000
vn -0.37400000 0.00000000 -0.92740000
vn 0.99600000 0.00000000 0.08880000
vn -0.41610000 0.00000000 -0.90930000
vn 0.79680000 0.00000000 -0.60430000
vn 0.22730000 0.11880000 -0.96650000
vt 0.41452800 0.06032000
vt 0.44240700 0.06032000
vt 0.40935600 0.07402400
vt 0.38809500 0.06000300
vt 0.47120700 0.06032000
vt 0.45133200 0.08362500
vt 0.52979000 0.06032000
vt 0.51639800 0.08362500
vt 0.50049400 0.06032000
vt 0.48386500 0.08362500
vt 0.55861200 0.06032000
vt 0.54893000 0.08362500
vt 0.42307200 0.09037500
vt 0.58146300 0.08362500
vt 0.59031700 0.06832800
vt 0.61159200 0.06043200
vt 0.58655100 0.06028900
vt 0.61399600 0.08362500
vt 0.39066000 0.50406700
vt 0.41486900 0.50368600
vt 0.38578300 0.52700100
vt 0.45935100 0.52700100
vt 0.44490800 0.50366600
vt 0.47639600 0.50369600
vt 0.42256700 0.52700100
vt 0.50874500 0.50369600
vt 0.54134800 0.50369600
vt 0.53291900 0.52700100
vt 0.57365200 0.50369600
vt 0.60512900 0.50369600
vt 0.60648700 0.52700100
vt 0.56970300 0.52700100
vt 0.49613500 0.52700100
vt 0.64327100 0.52700100
vt 0.63533200 0.50369600
vt 0.66166300 0.50369600
vt 0.68005500 0.52700100
vt 0.68799500 0.50369600
vt 0.71819800 0.50369600
vt 0.74967500 0.50369600
vt 0.71683900 0.52700100
vt 0.78197800 0.50369600
vt 0.81458200 0.50369600
vt 0.79040700 0.52700100
vt 0.86397600 0.52700100
vt 0.84693000 0.50369600
vt 0.87849200 0.50369600
vt 0.90827500 0.50380400
vt 0.90076000 0.52700100
vt 0.82719200 0.52700100
vt 0.75362300 0.52700100
vt 0.93754400 0.52700100
vt 0.39414200 0.06552800
vt 0.36070200 0.06552800
vt 0.36070200 0.05867400
vt 0.40805200 0.05867400
vt 0.45390900 0.05867400
vt 0.42758300 0.06552800
vt 0.49893600 0.05867400
vt 0.54396300 0.05867400
vt 0.52790300 0.06552800
vt 0.46102300 0.06552800
vt 0.58898900 0.05867400
vt 0.56134300 0.06552800
vt 0.62822300 0.06552800
vt 0.59478300 0.06552800
vt 0.63570600 0.05867400
vt 0.66166300 0.06552800
vt 0.68199800 0.05867400
vt 0.72722300 0.05867400
vt 0.69510300 0.06552800
vt 0.77225000 0.05867400
vt 0.81727600 0.05867400
vt 0.79542300 0.06552800
vt 0.76198300 0.06552800
vt 0.86230300 0.05867400
vt 0.82886300 0.06552800
vt 0.39414200 0.06552800
vt 0.36070200 0.06552800
vt 0.36070200 0.05867400
vt 0.40805200 0.05867400
vt 0.45390900 0.05867400
vt 0.42758300 0.06552800
vt 0.49893600 0.05867400
vt 0.54396300 0.05867400
vt 0.52790300 0.06552800
vt 0.46102300 0.06552800
vt 0.58898900 0.05867400
vt 0.56505500 0.06642800
vt 0.63187000 0.06599500
vt 0.59478300 0.06552800
vt 0.63570600 0.05867400
vt 0.66166300 0.06552800
vt 0.68199800 0.05867400
vt 0.72722300 0.05867400
vt 0.69510300 0.06552800
vt 0.77225000 0.05867400
vt 0.81727600 0.05867400
vt 0.79542300 0.06552800
vt 0.76198300 0.06552800
vt 0.86230300 0.05867400
vt 0.82968400 0.06591200
vt 0.64652800 0.08362500
vt 0.61399600 0.08362500
vt 0.61808700 0.05933100
vt 0.66937900 0.06032000
vt 0.69820200 0.06032000
vt 0.67906100 0.08362500
vt 0.75678400 0.06032000
vt 0.74412600 0.08362500
vt 0.72749700 0.06032000
vt 0.71159400 0.08362500
vt 0.81346300 0.06032000
vt 0.82306200 0.07076000
vt 0.78558400 0.06032000
vt 0.77665900 0.08362500
vt 0.83991400 0.06000300
vt 0.64291800 0.06020800
vt 0.80919100 0.08362500
vt 0.07784100 0.08511600
vt 0.05578500 0.11888000
vt 0.06304200 0.23310200
vt 0.15162100 0.03896200
vt 0.10990200 0.05798900
vt 0.12601500 0.28923600
vt 0.09041900 0.26562600
vt 0.19646500 0.03135700
vt 0.16781100 0.30335500
vt 0.04547700 0.15661200
vt 0.04776900 0.19550000
vt 0.21250400 0.30686900
vt 0.28295400 0.04899000
vt 0.24115800 0.03487100
vt 0.25734800 0.29926300
vt 0.34592700 0.10512300
vt 0.31855000 0.07259900
vt 0.33112800 0.25310900
vt 0.29906700 0.28023700
vt 0.35318400 0.21934600
vt 0.36120000 0.14272600
vt 0.36349200 0.18161400
vt 0.05450900 0.05032400
vt 0.06880300 0.06262000
vt 0.06880300 0.06262000
vt 0.06880300 0.06262000
vt 0.05369900 0.04343200
vt 0.05369900 0.04343200
vt 0.05369900 0.04343200
vt 0.15536300 0.05949900
vt 0.15536300 0.05949900
vt 0.15536300 0.05949900
vt 0.12086200 0.06747300
vt 0.12086200 0.06747300
vt 0.08536300 0.07290000
vt 0.13445700 0.07289900
vt 0.16963900 0.04344600
vt 0.04110500 0.10023200
vt 0.02155700 0.12730200
vt 0.30903500 0.12730200
vt 0.00878300 0.15771300
vt 0.32180900 0.15771400
vt 0.10555900 0.05802400
vt 0.10555900 0.05802400
vt 0.06819200 0.07786200
vt 0.06819200 0.07786200
vt 0.25536800 0.07318400
vt 0.25536800 0.07318400
vt 0.25536800 0.07318400
vt 0.28072200 0.09205300
vt 0.28072200 0.09205300
vt 0.01684200 0.23812300
vt 0.31375000 0.23812300
vt 0.00829700 0.21245000
vt 0.03165700 0.26282800
vt 0.00563100 0.18735200
vt 0.32229500 0.21245000
vt 0.05239600 0.28488300
vt 0.07792600 0.30279800
vt 0.25266600 0.30279800
vt 0.13624300 0.32297900
vt 0.22406700 0.31559700
vt 0.10652400 0.31559700
vt 0.29893400 0.26282800
vt 0.32496000 0.18735200
vt 0.22149900 0.05799000
vt 0.29647500 0.10872100
vt 0.19434900 0.32297900
vt 0.16529600 0.32528100
vt 0.27819600 0.28488300
vt 0.18308500 0.05798900
vt 0.20729900 0.05798900
vt 0.20704400 0.06488900
vt 0.17556000 0.06488900
vt 0.15006800 0.05794200
vt 0.23151200 0.05798900
vt 0.26843800 0.05800300
vt 0.30415100 0.05798900
vt 0.30415100 0.06488900
vt 0.23852200 0.06488900
vt 0.33550100 0.05798900
vt 0.36685100 0.05798900
vt 0.33987500 0.06488900
vt 0.39820100 0.05798900
vt 0.37344100 0.06488900
vt 0.42955100 0.05798900
vt 0.46090100 0.05798900
vt 0.43747900 0.06488900
vt 0.49225100 0.05798900
vt 0.46940800 0.06488900
vt 0.40572500 0.06488900
vt 0.52360100 0.05798900
vt 0.50223300 0.06488900
vt 0.14341300 0.06488900
vt 0.10990200 0.06488900
vt 0.13285000 0.06132100
vt 0.11076500 0.05801200
vt 0.27065300 0.06488900
vt 0.53669100 0.06485400
vt 0.55495100 0.05798900
vt 0.58630100 0.05798900
vt 0.57315000 0.06483800
vt 0.61765100 0.05798900
vt 0.64900100 0.05798900
vt 0.64049400 0.06488900
vt 0.68035100 0.05798900
vt 0.67242400 0.06488900
vt 0.60766900 0.06488900
vt 0.71170100 0.05798900
vt 0.74305100 0.05798900
vt 0.73646100 0.06488900
vt 0.77440100 0.05798900
vt 0.77002800 0.06488900
vt 0.80575100 0.05798900
vt 0.84146400 0.05800300
vt 0.80575100 0.06488900
vt 0.70417800 0.06488900
vt 0.87839100 0.05798900
vt 0.91426200 0.05797200
vt 0.90285800 0.06488900
vt 0.95103000 0.05798900
vt 0.93434200 0.06488900
vt 0.87138000 0.06488900
vt 0.83924900 0.06488900
vt 0.96648900 0.06488900
vt 0.99560300 0.05797200
vt 0.63250700 0.50357400
vt 0.62768600 0.52365600
vt 0.59356000 0.51534900
vt 0.59274200 0.50371600
vt 0.64325800 0.52705500
vt 0.64625000 0.51453500
vt 0.66522000 0.51813200
vt 0.59356000 0.52117500
vt 0.73105800 0.50367000
vt 0.73284300 0.51534900
vt 0.69128400 0.50295600
vt 0.68011500 0.52703800
vt 0.68006200 0.51324200
vt 0.69715900 0.52357500
vt 0.73284300 0.52117500
vt 0.45696200 0.51534900
vt 0.38312000 0.50366100
vt 0.42149300 0.50213500
vt 0.46850400 0.50369600
vt 0.50986500 0.50369600
vt 0.55122600 0.50369600
vt 0.53291900 0.52700100
vt 0.38578300 0.52700100
vt 0.42256700 0.52700100
vt 0.45935100 0.52700100
vt 0.60648700 0.52700100
vt 0.49613500 0.52700100
vt 0.56970300 0.52700100
vt 0.86944100 0.51534900
vt 0.81346100 0.50369600
vt 0.85482200 0.50369600
vt 0.90030100 0.50260600
vt 0.77210000 0.50369600
vt 0.93754400 0.52700100
vt 0.94174500 0.50263700
vt 0.79040700 0.52700100
vt 0.71683900 0.52700100
vt 0.75362300 0.52700100
vt 0.86397600 0.52700100
vt 0.82719200 0.52700100
vt 0.90076000 0.52700100
vt 0.42151900 0.52659900
vt 0.39425300 0.50287100
vt 0.41580800 0.50367500
vt 0.44701100 0.50369600
vt 0.45935100 0.52700100
vt 0.47891800 0.50369600
vt 0.51136100 0.50369600
vt 0.49613500 0.52700100
vt 0.57567700 0.50369600
vt 0.59363500 0.51495600
vt 0.54379500 0.50369600
vt 0.60691100 0.50379600
vt 0.53291900 0.52700100
vt 0.56970300 0.52700100
vt 0.63835100 0.50677200
vt 0.63938900 0.52646900
vt 0.60648700 0.52700100
vt 0.38578300 0.52700100
vt 0.66302800 0.51627600
vt 0.71620500 0.50369600
vt 0.74753300 0.50367500
vt 0.73261000 0.51473500
vt 0.77953200 0.50369600
vt 0.81196600 0.50369600
vt 0.79040700 0.52700100
vt 0.84440900 0.50369600
vt 0.82719200 0.52700100
vt 0.90455300 0.50343100
vt 0.94238200 0.50390300
vt 0.92278100 0.50901100
vt 0.93754400 0.52700100
vt 0.86397600 0.52700100
vt 0.87631600 0.50369600
vt 0.68005500 0.52700100
vt 0.68570500 0.50590900
vt 0.71288200 0.52605800
vt 0.90076000 0.52700100
vt 0.75362300 0.52700100
vt 0.00602100 0.04534300
vt 0.00602100 0.04534300
vt 0.00374000 0.06402700
vt -0.00155700 0.05905700
vt 0.02095700 0.03937300
vt 0.02095700 0.03937300
vt 0.02095700 0.03937300
vt 0.01878200 0.03665000
vt 0.01878200 0.03665000
vt 0.06994900 0.03650000
vt 0.06994900 0.03650000
vt 0.00512700 0.07132300
vt 0.00512700 0.07132300
vt 0.01809600 0.07636000
vt 0.01809600 0.07636000
vt 0.01756300 0.07927500
vt 0.01756300 0.07927500
vt 0.08335700 0.04104600
vt 0.07459200 0.03991700
vt 0.07459200 0.03991700
vt 0.09201300 0.05521000
vt 0.08435500 0.06920500
vt 0.08606300 0.07271600
vt 0.08606300 0.07271600
vt 0.07091300 0.07660500
vt 0.07091300 0.07660500
vt 0.07210700 0.07941500
vt 0.11555500 0.06840700
vt 0.11854300 0.04839000
vt 0.11525900 0.05218100
vt 0.11871400 0.05493300
vt 0.12167400 0.06135400
vt 0.12069200 0.05211100
vt 0.06419100 0.05923700
vt 0.06419100 0.05923700
vt 0.11879400 0.06041100
vt 0.11373800 0.05697200
vt 0.11373800 0.05697200
vt 0.12059500 0.05176600
vt 0.11804700 0.04878700
vt 0.11867300 0.06347500
vt 0.12166600 0.06129400
vt 0.09865000 0.06160500
vt 0.10234200 0.05904700
vt 0.09967100 0.05549400
vt 0.06217600 0.05961500
vt 0.11826800 0.06005500
vt 0.11368900 0.05696800
vt 0.11225500 0.05726900
vt 0.11386700 0.06141400
vt 0.11386500 0.05782100
vt 0.12141700 0.06654900
vt 0.11924200 0.05011600
vt 0.11488000 0.06623400
vt 0.12514800 0.02955800
vt 0.12514800 0.02955800
vt 0.11414800 0.02887600
vt 0.10614400 0.04034100
vt 0.10614400 0.04034100
vt 0.12320800 0.05997500
vt 0.12320800 0.05997500
vt 0.10803300 0.05589800
vt 0.11685300 0.06114000
vt 0.16953700 0.02959400
vt 0.18324300 0.03805500
vt 0.17637600 0.02854400
vt 0.18840900 0.05081900
vt 0.18840900 0.05081900
vt 0.17821200 0.05982600
vt 0.11876200 0.09207100
vt 0.11587600 0.09208500
vt 0.11965800 0.08648900
vt 0.12189500 0.08467200
vt 0.12141600 0.09120900
vt 0.10868800 0.04176400
vt 0.10113200 0.03910600
vt 0.10113200 0.03910600
vt 0.10080600 -0.00704500
vt 0.10870800 -0.00243900
vt 0.10870800 -0.00243900
vt 0.12590600 0.08938900
vt 0.12511600 0.09206700
vt 0.12364600 0.08480100
vt 0.12281400 0.09162000
vt 0.12807100 0.09327200
vt 0.11903000 0.09219000
vt 0.11569000 0.09396800
vt 0.11837000 0.09022200
vt 0.12096900 0.08486600
vt 0.12157900 0.09163900
vt 0.11880700 0.03895000
vt 0.11107200 0.04281700
vt 0.11108200 -0.00430300
vt 0.11884700 -0.00769300
vt 0.12349700 0.09125900
vt 0.12280100 0.08458200
vt 0.12490400 0.08602300
vt 0.12596400 0.09196100
vt 0.12846800 0.09214500
vt 0.14185300 0.83407800
vt 0.17207900 0.81057500
vt 0.12587800 0.83407800
vt 0.11312900 0.78906900
vt 0.11018000 0.80696300
vt 0.16267700 0.97475200
vt 0.14185300 0.94477700
vt 0.10992100 0.94432100
vt 0.15782900 0.83407800
vt 0.17040600 0.78870400
vt 0.15782900 0.94477700
vt 0.17378400 0.77430100
vt 0.10957600 0.77131600
vt 0.10990200 0.83267500
vt 0.10990200 0.86056200
vt 0.10990200 0.88845000
vt 0.10990100 0.97262600
vt 0.10745300 1.00163000
vt 0.11962600 0.99626300
vt 0.10990200 0.91633700
vt 0.17380400 0.88845000
vt 0.17364300 0.99879200
vt 0.17380400 0.85266000
vt 0.17380400 0.92423900
vt 0.17382500 0.96118500
vt 0.14185300 0.11524600
vt 0.16261500 0.08462000
vt 0.12587800 0.11524600
vt 0.10992100 0.25350200
vt 0.17025200 0.26928300
vt 0.17260100 0.24598800
vt 0.11085400 0.27394800
vt 0.14185300 0.22588500
vt 0.15782900 0.11524600
vt 0.15782900 0.22589900
vt 0.11944700 0.06161500
vt 0.10651600 0.05560100
vt 0.10979200 0.08561300
vt 0.10990200 0.11376400
vt 0.10990200 0.14165100
vt 0.10990200 0.16953900
vt 0.10990200 0.19742700
vt 0.10990200 0.22531400
vt 0.17289500 0.05964500
vt 0.17256500 0.28522100
vt 0.17380400 0.16953900
vt 0.17377700 0.09723200
vt 0.17380400 0.13375000
vt 0.17380400 0.20532800
vt 0.17279700 0.28501200
vt 0.12559400 0.33995600
vt 0.17361400 0.31088100
vt 0.10978400 0.31019300
vt 0.14128600 0.33995600
vt 0.17269000 0.28525500
vt 0.11336000 0.29413700
vt 0.15754500 0.33995600
vt 0.11084000 0.27385200
vt 0.10990200 0.36505900
vt 0.10990200 0.39275700
vt 0.10990200 0.33736100
vt 0.10990200 0.44815200
vt 0.14128600 0.44919100
vt 0.10990200 0.42045400
vt 0.10990200 0.50354800
vt 0.14185300 0.50354800
vt 0.10990200 0.47585000
vt 0.17380400 0.39275700
vt 0.17380400 0.47585000
vt 0.17380400 0.42045400
vt 0.17380400 0.33736100
vt 0.17380400 0.36505900
vt 0.17380400 0.44815200
vt 0.17344500 0.50344500
vt 0.10990200 0.52899400
vt 0.14185300 0.52899400
vt 0.10990200 0.50354800
vt 0.17344500 0.50344900
vt 0.14185300 0.50354800
vt 0.18003600 0.54069200
vt 0.14185300 0.55444000
vt 0.17976400 0.54027600
vt 0.10990200 0.55444000
vt 0.10990200 0.52899400
vt 0.17344600 0.55455600
vt 0.14185300 0.52899400
vt 0.10988400 0.72057300
vt 0.10985400 0.74798300
vt 0.14128600 0.72070800
vt 0.17381700 0.77422000
vt 0.10958900 0.77114400
vt 0.17377300 0.74835700
vt 0.15754500 0.72070800
vt 0.10990200 0.58213800
vt 0.10990200 0.60983600
vt 0.14128600 0.61014200
vt 0.10990200 0.63753400
vt 0.10990200 0.66523200
vt 0.10990200 0.69293000
vt 0.14185300 0.55444000
vt 0.17380400 0.66523200
vt 0.10990200 0.55444000
vt 0.17380400 0.58213800
vt 0.17380400 0.72062800
vt 0.17380400 0.63753400
vt 0.17380400 0.60983600
vt 0.17380400 0.69293000
vt 0.17344600 0.55456200
vt 0.12828100 0.06188500
vt 0.12451700 0.05300600
vt 0.12373500 0.06092100
vt 0.11884500 0.06315400
vt 0.11788800 0.05227200
vt 0.11500300 0.05480600
vt 0.09863100 0.06153400
vt 0.09960200 0.05431100
vt 0.09848400 0.05247900
vt 0.12823900 0.06547900
vt 0.12742800 0.05344400
vt 0.12462400 0.04914700
vt 0.12370300 0.05987600
vt 0.12449800 0.05380200
vt 0.12299300 0.05520300
vt 0.94582600 0.50276700
vt 0.49446300 0.06552800
vt 0.72854300 0.06552800
vt 0.86230300 0.06552800
vt 0.49446300 0.06552800
vt 0.72854300 0.06552800
vt 0.86230300 0.06552800
vt 0.06010300 0.05713200
vt 0.06087200 0.05698200
vt 0.11303800 0.06228500
vt 0.11213300 0.05730900
vt 0.11135200 0.06185200
vt 0.11387000 0.05783000
vt 0.11243500 0.06230800
vt 0.11099200 0.06168900
vt 0.11480400 0.07938500
f 1/1/1 2/2/2 3/3/3
f 4/4/4 1/1/1 3/3/3
f 5/5/5 10/10/10 6/6/6
f 7/7/7 8/8/8 9/9/9
f 9/9/9 10/10/10 5/5/5
f 12/12/12 8/8/8 7/7/7
f 3/3/3 2/2/2 13/13/13
f 10/10/10 9/9/9 8/8/8
f 12/12/12 11/11/11 14/14/14
f 16/16/16 15/15/15 17/17/17
f 11/11/11 17/17/17 15/15/15
f 18/18/18 14/14/14 15/15/15
f 18/18/18 15/15/15 16/16/16
f 20/20/20 25/25/25 21/21/21
f 22/22/22 23/23/23 24/24/24
f 23/23/23 22/22/22 25/25/25
f 28/28/28 33/33/33 26/26/26
f 31/31/31 32/32/32 29/29/29
f 32/32/32 28/28/28 27/27/27
f 33/33/33 24/24/24 26/26/26
f 33/33/33 22/22/22 24/24/24
f 31/31/31 30/30/30 35/35/35
f 34/34/34 35/35/35 36/36/36
f 37/37/37 36/36/36 38/38/38
f 40/40/40 51/51/51 41/41/41
f 41/41/41 37/37/37 38/38/38
f 43/43/43 50/50/50 44/44/44
f 45/45/45 46/46/46 47/47/47
f 49/49/49 45/45/45 47/47/47
f 50/50/50 43/43/43 46/46/46
f 42/42/42 44/44/44 51/51/51
f 50/50/50 46/46/46 45/45/45
f 48/48/48 547/547/547 52/52/52
f 34/34/34 36/36/36 37/37/37
f 53/53/53 54/54/54 55/55/55
f 56/56/56 57/57/57 58/58/58
f 59/59/59 60/60/60 61/61/61
f 57/57/57 59/59/59 62/62/62
f 60/60/60 63/63/63 64/64/64
f 56/56/56 58/58/58 53/53/53
f 64/64/64 61/61/61 60/60/60
f 65/65/65 66/66/66 63/63/63
f 67/67/67 68/68/68 65/65/65
f 67/67/67 69/69/69 68/68/68
f 69/69/69 70/70/70 71/71/71
f 72/72/72 73/73/73 74/74/74
f 70/70/70 72/72/72 75/75/75
f 73/73/73 76/76/76 77/77/77
f 69/69/69 71/71/71 68/68/68
f 77/77/77 74/74/74 73/73/73
f 78/78/78 79/79/79 80/80/80
f 81/81/81 82/82/82 83/83/83
f 84/84/84 85/85/85 86/86/86
f 82/82/82 84/84/84 87/87/87
f 85/85/85 88/88/88 89/89/89
f 81/81/81 83/83/83 78/78/78
f 89/89/89 86/86/86 85/85/85
f 90/90/90 91/91/91 88/88/88
f 92/92/92 93/93/93 90/90/90
f 92/92/92 94/94/94 93/93/93
f 94/94/94 95/95/95 96/96/96
f 97/97/97 98/98/98 99/99/99
f 95/95/95 97/97/97 100/100/100
f 98/98/98 101/101/101 102/102/102
f 94/94/94 96/96/96 93/93/93
f 102/102/102 99/99/99 98/98/98
f 105/105/105 118/118/118 104/104/104
f 107/107/107 112/112/112 108/108/108
f 109/109/109 110/110/110 111/111/111
f 111/111/111 112/112/112 107/107/107
f 113/113/113 114/114/114 115/115/115
f 116/116/116 110/110/110 109/109/109
f 113/113/113 117/117/117 114/114/114
f 118/118/118 106/106/106 103/103/103
f 110/110/110 112/112/112 111/111/111
f 114/114/114 119/119/119 116/116/116
f 115/115/115 114/114/114 116/116/116
f 120/120/120 121/121/121 122/122/122
f 123/123/123 124/124/124 125/125/125
f 126/126/126 124/124/124 120/120/120
f 127/127/127 123/123/123 128/128/128
f 129/129/129 130/130/130 121/121/121
f 130/130/130 122/122/122 121/121/121
f 120/120/120 122/122/122 126/126/126
f 126/126/126 125/125/125 124/124/124
f 125/125/125 128/128/128 123/123/123
f 131/131/131 133/133/133 128/128/128
f 132/132/132 133/133/133 134/134/134
f 135/135/135 136/136/136 137/137/137
f 138/138/138 136/136/136 132/132/132
f 139/139/139 140/140/140 135/135/135
f 134/134/134 138/138/138 132/132/132
f 133/133/133 131/131/131 134/134/134
f 137/137/137 139/139/139 135/135/135
f 136/136/136 138/138/138 137/137/137
f 139/139/139 141/141/141 140/140/140
f 142/142/142 144/144/144 147/147/147
f 149/149/149 143/143/143 152/152/152
f 143/143/143 154/154/154 152/152/152
f 151/151/151 148/148/148 145/145/145
f 153/153/153 155/155/155 150/150/150
f 156/156/156 146/146/146 149/149/149
f 157/157/157 158/158/158 159/159/159
f 160/160/160 161/161/161 158/158/158
f 163/163/163 164/164/164 166/166/166
f 157/157/157 169/169/169 164/164/164
f 171/171/171 172/172/172 173/173/173
f 174/174/174 172/172/172 171/171/171
f 175/175/175 173/173/173 176/176/176
f 177/177/177 178/178/178 179/179/179
f 180/180/180 181/181/181 182/182/182
f 182/182/182 179/179/179 178/178/178
f 174/174/174 177/177/177 183/183/183
f 175/175/175 176/176/176 184/184/184
f 162/162/162 168/168/168 185/185/185
f 165/165/165 170/170/170 167/167/167
f 186/186/186 157/157/157 159/159/159
f 158/158/158 161/161/161 159/159/159
f 169/169/169 157/157/157 186/186/186
f 161/161/161 160/160/160 184/184/184
f 181/181/181 180/180/180 187/187/187
f 187/187/187 180/180/180 188/188/188
f 181/181/181 179/179/179 182/182/182
f 183/183/183 172/172/172 174/174/174
f 177/177/177 179/179/179 189/189/189
f 177/177/177 189/189/189 183/183/183
f 172/172/172 176/176/176 173/173/173
f 190/190/190 191/191/191 192/192/192
f 193/193/193 194/194/194 190/190/190
f 191/191/191 195/195/195 192/192/192
f 198/198/198 217/217/217 197/197/197
f 196/196/196 199/199/199 195/195/195
f 200/200/200 201/201/201 202/202/202
f 201/201/201 203/203/203 204/204/204
f 205/205/205 206/206/206 207/207/207
f 206/206/206 208/208/208 209/209/209
f 203/203/203 205/205/205 210/210/210
f 197/197/197 200/200/200 198/198/198
f 208/208/208 211/211/211 212/212/212
f 213/213/213 214/214/214 215/215/215
f 216/216/216 215/215/215 214/214/214
f 213/213/213 215/215/215 193/193/193
f 194/194/194 193/193/193 215/215/215
f 217/217/217 199/199/199 196/196/196
f 218/218/218 211/211/211 219/219/219
f 220/220/220 221/221/221 219/219/219
f 222/222/222 223/223/223 224/224/224
f 223/223/223 225/225/225 226/226/226
f 220/220/220 222/222/222 227/227/227
f 228/228/228 229/229/229 230/230/230
f 229/229/229 231/231/231 232/232/232
f 234/234/234 243/243/243 233/233/233
f 231/231/231 233/233/233 235/235/235
f 225/225/225 228/228/228 236/236/236
f 237/237/237 238/238/238 239/239/239
f 240/240/240 241/241/241 238/238/238
f 242/242/242 234/234/234 237/237/237
f 242/242/242 243/243/243 234/234/234
f 241/241/241 240/240/240 244/244/244
f 240/240/240 245/245/245 244/244/244
f 218/218/218 219/219/219 221/221/221
f 248/248/248 249/249/249 246/246/246
f 250/250/250 251/251/251 252/252/252
f 253/253/253 248/248/248 247/247/247
f 255/255/255 259/259/259 254/254/254
f 257/257/257 258/258/258 259/259/259
f 258/258/258 257/257/257 252/252/252
f 256/256/256 259/259/259 258/258/258
f 255/255/255 260/260/260 259/259/259
f 261/261/261 262/262/262 263/263/263
f 261/261/261 264/264/264 265/265/265
f 248/248/248 265/265/265 266/266/266
f 261/261/261 263/263/263 264/264/264
f 266/266/266 249/249/249 248/248/248
f 261/261/261 265/265/265 248/248/248
f 261/261/261 248/248/248 267/267/267
f 268/268/268 262/262/262 261/261/261
f 246/246/246 251/251/251 247/247/247
f 269/269/269 268/268/268 261/261/261
f 269/269/269 261/261/261 270/270/270
f 248/248/248 253/253/253 267/267/267
f 247/247/247 271/271/271 253/253/253
f 272/272/272 270/270/270 261/261/261
f 253/253/253 271/271/271 273/273/273
f 247/247/247 250/250/250 271/271/271
f 273/273/273 267/267/267 253/253/253
f 274/274/274 275/275/275 276/276/276
f 274/274/274 276/276/276 277/277/277
f 255/255/255 278/278/278 275/275/275
f 254/254/254 278/278/278 255/255/255
f 255/255/255 275/275/275 274/274/274
f 279/279/279 274/274/274 280/280/280
f 274/274/274 277/277/277 280/280/280
f 255/255/255 274/274/274 281/281/281
f 282/282/282 259/259/259 260/260/260
f 283/283/283 282/282/282 260/260/260
f 257/257/257 259/259/259 282/282/282
f 260/260/260 281/281/281 283/283/283
f 255/255/255 281/281/281 260/260/260
f 284/284/284 285/285/285 274/274/274
f 286/286/286 284/284/284 274/274/274
f 274/274/274 279/279/279 286/286/286
f 250/250/250 252/252/252 257/257/257
f 287/287/287 304/304/304 288/288/288
f 290/290/290 291/291/291 287/287/287
f 291/291/291 290/290/290 292/292/292
f 293/293/293 294/294/294 292/292/292
f 295/295/295 296/296/296 297/297/297
f 296/296/296 295/295/295 298/298/298
f 293/293/293 297/297/297 299/299/299
f 296/296/296 300/300/300 297/297/297
f 291/291/291 292/292/292 294/294/294
f 302/302/302 303/303/303 301/301/301
f 303/303/303 296/296/296 298/298/298
f 296/296/296 303/303/303 300/300/300
f 299/299/299 297/297/297 300/300/300
f 301/301/301 305/305/305 302/302/302
f 306/306/306 307/307/307 308/308/308
f 307/307/307 309/309/309 308/308/308
f 309/309/309 310/310/310 311/311/311
f 312/312/312 313/313/313 310/310/310
f 314/314/314 315/315/315 316/316/316
f 317/317/317 316/316/316 315/315/315
f 318/318/318 312/312/312 319/319/319
f 320/320/320 305/305/305 321/321/321
f 322/322/322 320/320/320 321/321/321
f 308/308/308 322/322/322 306/306/306
f 314/314/314 323/323/323 319/319/319
f 316/316/316 323/323/323 314/314/314
f 309/309/309 324/324/324 308/308/308
f 324/324/324 322/322/322 308/308/308
f 318/318/318 313/313/313 312/312/312
f 316/316/316 317/317/317 323/323/323
f 324/324/324 309/309/309 311/311/311
f 302/302/302 305/305/305 320/320/320
f 326/326/326 327/327/327 328/328/328
f 330/330/330 333/333/333 335/335/335
f 331/331/331 325/325/325 332/332/332
f 327/327/327 336/336/336 328/328/328
f 327/327/327 339/339/339 337/337/337
f 337/337/337 339/339/339 340/340/340
f 342/342/342 343/343/343 335/335/335
f 343/343/343 342/342/342 345/345/345
f 346/346/346 347/347/347 350/350/350
f 348/348/348 351/351/351 349/349/349
f 351/351/351 341/341/341 349/349/349
f 338/338/338 349/349/349 341/341/341
f 348/348/348 346/346/346 345/345/345
f 352/352/352 353/353/353 354/354/354
f 355/355/355 356/356/356 357/357/357
f 359/359/359 360/360/360 361/361/361
f 363/363/363 364/364/364 365/365/365
f 365/365/365 366/366/366 363/363/363
f 367/367/367 368/368/368 369/369/369
f 370/370/370 371/371/371 372/372/372
f 373/373/373 374/374/374 375/375/375
f 376/376/376 377/377/377 378/378/378
f 380/380/380 381/381/381 382/382/382
f 385/385/385 386/386/386 387/387/387
f 384/384/384 382/382/382 386/386/386
f 384/384/384 379/379/379 383/383/383
f 388/388/388 379/379/379 389/389/389
f 388/388/388 389/389/389 390/390/390
f 379/379/379 384/384/384 389/389/389
f 391/391/391 385/385/385 393/393/393
f 394/394/394 395/395/395 396/396/396
f 397/397/397 398/398/398 396/396/396
f 398/398/398 394/394/394 396/396/396
f 402/402/402 404/404/404 401/401/401
f 405/405/405 406/406/406 407/407/407
f 406/406/406 408/408/408 407/407/407
f 409/409/409 406/406/406 405/405/405
f 410/410/410 411/411/411 412/412/412
f 410/410/410 412/412/412 413/413/413
f 414/414/414 410/410/410 413/413/413
f 415/415/415 416/416/416 417/417/417
f 418/418/418 415/415/415 417/417/417
f 419/419/419 420/420/420 421/421/421
f 419/419/419 421/421/421 422/422/422
f 422/422/422 421/421/421 423/423/423
f 424/424/424 425/425/425 426/426/426
f 425/425/425 433/433/433 427/427/427
f 431/431/431 440/440/440 430/430/430
f 432/432/432 425/425/425 424/424/424
f 429/429/429 434/434/434 430/430/430
f 435/435/435 436/436/436 433/433/433
f 436/436/436 428/428/428 427/427/427
f 436/436/436 427/427/427 433/433/433
f 426/426/426 437/437/437 438/438/438
f 426/426/426 438/438/438 439/439/439
f 440/440/440 441/441/441 442/442/442
f 430/430/430 443/443/443 431/431/431
f 437/437/437 426/426/426 428/428/428
f 439/439/439 443/443/443 430/430/430
f 426/426/426 439/439/439 424/424/424
f 426/426/426 425/425/425 428/428/428
f 429/429/429 440/440/440 442/442/442
f 439/439/439 430/430/430 424/424/424
f 424/424/424 430/430/430 444/444/444
f 434/434/434 444/444/444 430/430/430
f 442/442/442 445/445/445 429/429/429
f 444/444/444 432/432/432 424/424/424
f 446/446/446 425/425/425 432/432/432
f 446/446/446 432/432/432 444/444/444
f 447/447/447 444/444/444 434/434/434
f 434/434/434 429/429/429 448/448/448
f 429/429/429 445/445/445 448/448/448
f 447/447/447 434/434/434 448/448/448
f 433/433/433 425/425/425 435/435/435
f 449/449/449 450/450/450 451/451/451
f 452/452/452 453/453/453 454/454/454
f 452/452/452 455/455/455 453/453/453
f 454/454/454 456/456/456 452/452/452
f 457/457/457 450/450/450 449/449/449
f 456/456/456 454/454/454 458/458/458
f 459/459/459 460/460/460 461/461/461
f 462/462/462 463/463/463 451/451/451
f 463/463/463 464/464/464 451/451/451
f 465/465/465 466/466/466 456/456/456
f 451/451/451 461/461/461 462/462/462
f 467/467/467 459/459/459 450/450/450
f 449/449/449 451/451/451 464/464/464
f 461/461/461 450/450/450 459/459/459
f 465/465/465 456/456/456 464/464/464
f 466/466/466 452/452/452 456/456/456
f 468/468/468 453/453/453 455/455/455
f 464/464/464 456/456/456 449/449/449
f 449/449/449 469/469/469 457/457/457
f 449/449/449 456/456/456 469/469/469
f 458/458/458 469/469/469 456/456/456
f 450/450/450 457/457/457 470/470/470
f 450/450/450 470/470/470 467/467/467
f 471/471/471 457/457/457 469/469/469
f 469/469/469 458/458/458 472/472/472
f 470/470/470 457/457/457 471/471/471
f 458/458/458 454/454/454 472/472/472
f 453/453/453 473/473/473 454/454/454
f 474/474/474 475/475/475 476/476/476
f 477/477/477 475/475/475 474/474/474
f 475/475/475 478/478/478 479/479/479
f 475/475/475 479/479/479 476/476/476
f 480/480/480 475/475/475 477/477/477
f 479/479/479 478/478/478 481/481/481
f 481/481/481 476/476/476 479/479/479
f 482/482/482 483/483/483 474/474/474
f 474/474/474 484/484/484 482/482/482
f 485/485/485 486/486/486 487/487/487
f 488/488/488 489/489/489 490/490/490
f 485/485/485 490/490/490 486/486/486
f 483/483/483 487/487/487 486/486/486
f 484/484/484 474/474/474 476/476/476
f 483/483/483 477/477/477 474/474/474
f 477/477/477 483/483/483 486/486/486
f 491/491/491 480/480/480 477/477/477
f 490/490/490 489/489/489 486/486/486
f 486/486/486 489/489/489 492/492/492
f 486/486/486 493/493/493 491/491/491
f 494/494/494 480/480/480 495/495/495
f 480/480/480 491/491/491 495/495/495
f 496/496/496 486/486/486 492/492/492
f 492/492/492 489/489/489 497/497/497
f 493/493/493 486/486/486 496/496/496
f 480/480/480 494/494/494 475/475/475
f 499/499/499 502/502/502 500/500/500
f 502/502/502 499/499/499 501/501/501
f 505/505/505 507/507/507 504/504/504
f 505/505/505 504/504/504 508/508/508
f 509/509/509 507/507/507 505/505/505
f 510/510/510 511/511/511 512/512/512
f 513/513/513 515/515/515 514/514/514
f 516/516/516 511/511/511 515/515/515
f 512/512/512 511/511/511 516/516/516
f 517/517/517 518/518/518 519/519/519
f 520/520/520 521/521/521 519/519/519
f 519/519/519 518/518/518 520/520/520
f 512/512/512 521/521/521 522/522/522
f 523/523/523 517/517/517 519/519/519
f 510/510/510 512/512/512 522/522/522
f 512/512/512 524/524/524 519/519/519
f 521/521/521 512/512/512 519/519/519
f 523/523/523 525/525/525 517/517/517
f 523/523/523 519/519/519 526/526/526
f 527/527/527 516/516/516 515/515/515
f 519/519/519 524/524/524 528/528/528
f 529/529/529 526/526/526 519/519/519
f 524/524/524 512/512/512 516/516/516
f 528/528/528 529/529/529 519/519/519
f 530/530/530 516/516/516 527/527/527
f 524/524/524 516/516/516 530/530/530
f 531/531/531 523/523/523 526/526/526
f 532/532/532 533/533/533 534/534/534
f 535/535/535 536/536/536 537/537/537
f 538/538/538 539/539/539 540/540/540
f 541/541/541 542/542/542 543/543/543
f 544/544/544 545/545/545 546/546/546
f 53/53/53 55/55/55 56/56/56
f 57/57/57 62/62/62 58/58/58
f 59/59/59 61/61/61 548/548/548
f 59/59/59 548/548/548 62/62/62
f 63/63/63 66/66/66 64/64/64
f 65/65/65 63/63/63 67/67/67
f 70/70/70 549/549/549 71/71/71
f 72/72/72 74/74/74 75/75/75
f 70/70/70 75/75/75 549/549/549
f 76/76/76 550/550/550 77/77/77
f 78/78/78 80/80/80 81/81/81
f 82/82/82 87/87/87 83/83/83
f 84/84/84 86/86/86 551/551/551
f 84/84/84 551/551/551 87/87/87
f 88/88/88 91/91/91 89/89/89
f 90/90/90 88/88/88 92/92/92
f 95/95/95 552/552/552 96/96/96
f 97/97/97 99/99/99 100/100/100
f 95/95/95 100/100/100 552/552/552
f 101/101/101 553/553/553 102/102/102
f 215/215/215 216/216/216 194/194/194
f 190/190/190 192/192/192 193/193/193
f 195/195/195 199/199/199 192/192/192
f 201/201/201 204/204/204 202/202/202
f 203/203/203 210/210/210 204/204/204
f 206/206/206 209/209/209 207/207/207
f 208/208/208 212/212/212 209/209/209
f 205/205/205 207/207/207 210/210/210
f 200/200/200 202/202/202 198/198/198
f 211/211/211 218/218/218 212/212/212
f 222/222/222 224/224/224 227/227/227
f 223/223/223 226/226/226 224/224/224
f 220/220/220 227/227/227 221/221/221
f 228/228/228 230/230/230 236/236/236
f 229/229/229 232/232/232 230/230/230
f 231/231/231 235/235/235 232/232/232
f 225/225/225 236/236/236 226/226/226
f 237/237/237 239/239/239 242/242/242
f 238/238/238 241/241/241 239/239/239
f 250/250/250 247/247/247 251/251/251
f 261/261/261 267/267/267 272/272/272
f 274/274/274 285/285/285 281/281/281
f 293/293/293 299/299/299 294/294/294
f 310/310/310 313/313/313 311/311/311
f 329/329/329 334/334/334 344/344/344
f 358/358/358 362/362/362 554/554/554
f 370/370/370 372/372/372 555/555/555
f 556/556/556 557/557/557 558/558/558
f 556/556/556 559/559/559 557/557/557
f 560/560/560 373/373/373 561/561/561
f 560/560/560 374/374/374 373/373/373
f 376/376/376 378/378/378 562/562/562
f 450/450/450 461/461/461 451/451/451
f 486/486/486 491/491/491 477/477/477
f 5/5/5 6/6/6 2/2/2
f 12/12/12 7/7/7 11/11/11
f 2/2/2 6/6/6 13/13/13
f 11/11/11 15/15/15 14/14/14
f 20/20/20 21/21/21 19/19/19
f 23/23/23 25/25/25 20/20/20
f 28/28/28 26/26/26 27/27/27
f 31/31/31 29/29/29 30/30/30
f 32/32/32 27/27/27 29/29/29
f 31/31/31 35/35/35 34/34/34
f 40/40/40 41/41/41 39/39/39
f 41/41/41 38/38/38 39/39/39
f 43/43/43 44/44/44 42/42/42
f 49/49/49 47/47/47 48/48/48
f 42/42/42 51/51/51 40/40/40
f 48/48/48 52/52/52 49/49/49
f 118/118/118 103/103/103 104/104/104
f 107/107/107 108/108/108 106/106/106
f 116/116/116 109/109/109 115/115/115
f 106/106/106 108/108/108 103/103/103
f 133/133/133 127/127/127 128/128/128
f 175/175/175 184/184/184 160/160/160
f 217/217/217 196/196/196 197/197/197
f 243/243/243 235/235/235 233/233/233
f 248/248/248 246/246/246 247/247/247
f 259/259/259 256/256/256 254/254/254
f 287/287/287 288/288/288 289/289/289
f 290/290/290 287/287/287 289/289/289
f 303/303/303 298/298/298 301/301/301
f 322/322/322 321/321/321 306/306/306
f 323/323/323 318/318/318 319/319/319
f 384/384/384 392/392/392 389/389/389
f 403/403/403 399/399/399 400/400/400
f 425/425/425 427/427/427 428/428/428
f 440/440/440 429/429/429 430/430/430
f 499/499/499 500/500/500 498/498/498
f 499/499/499 503/503/503 501/501/501
f 507/507/507 506/506/506 504/504/504
f 515/515/515 511/511/511 514/514/514

