mtllib material.mtl
usemtl Material-塑胶__3_.001
v 0.02924700 0.11593200 -0.28195500
v 0.02924700 0.11593200 -0.28195500
v 0.02924700 0.11593200 -0.28195500
v 0.02946400 0.11593200 -0.28196300
v 0.02946400 0.11593200 -0.28196300
v 0.02946400 0.11593200 -0.28196300
v 0.02946400 0.11593200 -0.28196300
v 0.02946400 0.11593200 -0.28196300
v 0.02946400 0.11593200 -0.28196300
v 0.02946400 0.11593200 -0.28196300
v 0.02946400 0.11593200 -0.28196300
v 0.02967900 0.11593200 -0.28198700
v 0.02967900 0.11593200 -0.28198700
v 0.02967900 0.11593200 -0.28198700
v 0.02989200 0.11593200 -0.28202800
v 0.02989200 0.11593200 -0.28202800
v 0.02989200 0.11593200 -0.28202800
v 0.02989200 0.11593200 -0.28202800
v 0.03010200 0.11593200 -0.28208400
v 0.03010200 0.11593200 -0.28208400
v 0.03010200 0.11593200 -0.28208400
v 0.03010200 0.11593200 -0.28208400
v 0.03030600 0.11593200 -0.28215600
v 0.03030600 0.11593200 -0.28215600
v 0.03030600 0.11593200 -0.28215600
v 0.03030600 0.11593200 -0.28215600
v 0.03030600 0.11593200 -0.28215600
v 0.03030600 0.11593200 -0.28215600
v 0.03050500 0.11593200 -0.28224200
v 0.03050500 0.11593200 -0.28224200
v 0.03050500 0.11593200 -0.28224200
v 0.03069700 0.11593200 -0.28234400
v 0.03069700 0.11593200 -0.28234400
v 0.03069700 0.11593200 -0.28234400
v 0.03069700 0.11593200 -0.28234400
v 0.03069700 0.11593200 -0.28234400
v 0.03088000 0.11593200 -0.28245900
v 0.03088000 0.11593200 -0.28245900
v 0.03088000 0.11593200 -0.28245900
v 0.03105500 0.11593200 -0.28258800
v 0.03105500 0.11593200 -0.28258800
v 0.03105500 0.11593200 -0.28258800
v 0.03105500 0.11593200 -0.28258800
v 0.03121900 0.11593200 -0.28272900
v 0.03121900 0.11593200 -0.28272900
v 0.03121900 0.11593200 -0.28272900
v 0.03121900 0.11593200 -0.28272900
v 0.03121900 0.11593200 -0.28272900
v 0.03137300 0.11593200 -0.28288300
v 0.03137300 0.11593200 -0.28288300
v 0.03137300 0.11593200 -0.28288300
v 0.03137300 0.11593200 -0.28288300
v 0.03137300 0.11593200 -0.28288300
v 0.03137300 0.11593200 -0.28288300
v 0.03151400 0.11593200 -0.28304700
v 0.03151400 0.11593200 -0.28304700
v 0.03151400 0.11593200 -0.28304700
v 0.03164300 0.11593200 -0.28322100
v 0.03164300 0.11593200 -0.28322100
v 0.03164300 0.11593200 -0.28322100
v 0.03164300 0.11593200 -0.28322100
v 0.03164300 0.11593200 -0.28322100
v 0.03164300 0.11593200 -0.28322100
v 0.03175800 0.11593200 -0.28340500
v 0.03175800 0.11593200 -0.28340500
v 0.03175800 0.11593200 -0.28340500
v 0.03186000 0.11593200 -0.28359700
v 0.03186000 0.11593200 -0.28359700
v 0.03186000 0.11593200 -0.28359700
v 0.03186000 0.11593200 -0.28359700
v 0.03194600 0.11593200 -0.28379600
v 0.03194600 0.11593200 -0.28379600
v 0.03194600 0.11593200 -0.28379600
v 0.03194600 0.11593200 -0.28379600
v 0.03201800 0.11593200 -0.28400000
v 0.03201800 0.11593200 -0.28400000
v 0.03201800 0.11593200 -0.28400000
v 0.03207400 0.11593200 -0.28421000
v 0.03207400 0.11593200 -0.28421000
v 0.03207400 0.11593200 -0.28421000
v 0.03211400 0.11593200 -0.28442300
v 0.03211400 0.11593200 -0.28442300
v 0.03211400 0.11593200 -0.28442300
v 0.03213900 0.11593200 -0.28463800
v 0.03213900 0.11593200 -0.28463800
v 0.03213900 0.11593200 -0.28463800
v 0.03214700 0.11593200 -0.28485500
v 0.03214700 0.11593200 -0.28485500
v 0.03214700 0.11593200 -0.28485500
v 0.03213900 0.11593200 -0.28507200
v 0.03213900 0.11593200 -0.28507200
v 0.03213900 0.11593200 -0.28507200
v 0.03213900 0.11593200 -0.28507200
v 0.03211400 0.11593200 -0.28528700
v 0.03211400 0.11593200 -0.28528700
v 0.03211400 0.11593200 -0.28528700
v 0.03211400 0.11593200 -0.28528700
v 0.03211400 0.11593200 -0.28528700
v 0.03207400 0.11593200 -0.28550000
v 0.03207400 0.11593200 -0.28550000
v 0.03207400 0.11593200 -0.28550000
v 0.03201800 0.11593200 -0.28571000
v 0.03201800 0.11593200 -0.28571000
v 0.03201800 0.11593200 -0.28571000
v 0.03201800 0.11593200 -0.28571000
v 0.03201800 0.11593200 -0.28571000
v 0.03194600 0.11593200 -0.28591500
v 0.03194600 0.11593200 -0.28591500
v 0.03194600 0.11593200 -0.28591500
v 0.03186000 0.11593200 -0.28611300
v 0.03186000 0.11593200 -0.28611300
v 0.03186000 0.11593200 -0.28611300
v 0.03186000 0.11593200 -0.28611300
v 0.03186000 0.11593200 -0.28611300
v 0.03186000 0.11593200 -0.28611300
v 0.03175800 0.11593200 -0.28630500
v 0.03175800 0.11593200 -0.28630500
v 0.03175800 0.11593200 -0.28630500
v 0.03164300 0.11593200 -0.28648900
v 0.03164300 0.11593200 -0.28648900
v 0.03164300 0.11593200 -0.28648900
v 0.03151400 0.11593200 -0.28666300
v 0.03151400 0.11593200 -0.28666300
v 0.03151400 0.11593200 -0.28666300
v 0.03151400 0.11593200 -0.28666300
v 0.03151400 0.11593200 -0.28666300
v 0.03137300 0.11593200 -0.28682800
v 0.03137300 0.11593200 -0.28682800
v 0.03137300 0.11593200 -0.28682800
v 0.03121900 0.11593200 -0.28698100
v 0.03121900 0.11593200 -0.28698100
v 0.03121900 0.11593200 -0.28698100
v 0.03121900 0.11593200 -0.28698100
v 0.03121900 0.11593200 -0.28698100
v 0.03105500 0.11593200 -0.28712200
v 0.03105500 0.11593200 -0.28712200
v 0.03105500 0.11593200 -0.28712200
v 0.03105500 0.11593200 -0.28712200
v 0.03088000 0.11593200 -0.28725100
v 0.03088000 0.11593200 -0.28725100
v 0.03088000 0.11593200 -0.28725100
v 0.03069700 0.11593200 -0.28736700
v 0.03069700 0.11593200 -0.28736700
v 0.03069700 0.11593200 -0.28736700
v 0.03069700 0.11593200 -0.28736700
v 0.03069700 0.11593200 -0.28736700
v 0.03069700 0.11593200 -0.28736700
v 0.03050500 0.11593200 -0.28746800
v 0.03050500 0.11593200 -0.28746800
v 0.03050500 0.11593200 -0.28746800
v 0.03030600 0.11593200 -0.28755500
v 0.03030600 0.11593200 -0.28755500
v 0.03030600 0.11593200 -0.28755500
v 0.03030600 0.11593200 -0.28755500
v 0.03030600 0.11593200 -0.28755500
v 0.03010200 0.11593200 -0.28762600
v 0.03010200 0.11593200 -0.28762600
v 0.03010200 0.11593200 -0.28762600
v 0.02989200 0.11593200 -0.28768200
v 0.02989200 0.11593200 -0.28768200
v 0.02989200 0.11593200 -0.28768200
v 0.02967900 0.11593200 -0.28772300
v 0.02967900 0.11593200 -0.28772300
v 0.02967900 0.11593200 -0.28772300
v 0.02967900 0.11593200 -0.28772300
v 0.02967900 0.11593200 -0.28772300
v 0.02946400 0.11593200 -0.28774700
v 0.02946400 0.11593200 -0.28774700
v 0.02946400 0.11593200 -0.28774700
v 0.02924700 0.11593200 -0.28775500
v 0.02924700 0.11593200 -0.28775500
v 0.02924700 0.11593200 -0.28775500
v 0.02924700 0.11593200 -0.28775500
v 0.02924700 0.11593200 -0.28775500
v 0.02924700 0.11593200 -0.28775500
v 0.02924700 0.11593200 -0.28775500
v 0.02903000 0.11593200 -0.28774700
v 0.02903000 0.11593200 -0.28774700
v 0.02903000 0.11593200 -0.28774700
v 0.02881500 0.11593200 -0.28772300
v 0.02881500 0.11593200 -0.28772300
v 0.02881500 0.11593200 -0.28772300
v 0.02881500 0.11593200 -0.28772300
v 0.02860200 0.11593200 -0.28768200
v 0.02860200 0.11593200 -0.28768200
v 0.02860200 0.11593200 -0.28768200
v 0.02860200 0.11593200 -0.28768200
v 0.02839200 0.11593200 -0.28762600
v 0.02839200 0.11593200 -0.28762600
v 0.02839200 0.11593200 -0.28762600
v 0.02818700 0.11593200 -0.28755500
v 0.02818700 0.11593200 -0.28755500
v 0.02818700 0.11593200 -0.28755500
v 0.02818700 0.11593200 -0.28755500
v 0.02798900 0.11593200 -0.28746800
v 0.02798900 0.11593200 -0.28746800
v 0.02798900 0.11593200 -0.28746800
v 0.02779700 0.11593200 -0.28736700
v 0.02779700 0.11593200 -0.28736700
v 0.02779700 0.11593200 -0.28736700
v 0.02761300 0.11593200 -0.28725100
v 0.02761300 0.11593200 -0.28725100
v 0.02761300 0.11593200 -0.28725100
v 0.02761300 0.11593200 -0.28725100
v 0.02761300 0.11593200 -0.28725100
v 0.02743900 0.11593200 -0.28712200
v 0.02743900 0.11593200 -0.28712200
v 0.02743900 0.11593200 -0.28712200
v 0.02743900 0.11593200 -0.28712200
v 0.02727400 0.11593200 -0.28698100
v 0.02727400 0.11593200 -0.28698100
v 0.02727400 0.11593200 -0.28698100
v 0.02712100 0.11593200 -0.28682800
v 0.02712100 0.11593200 -0.28682800
v 0.02712100 0.11593200 -0.28682800
v 0.02712100 0.11593200 -0.28682800
v 0.02712100 0.11593200 -0.28682800
v 0.02698000 0.11593200 -0.28666300
v 0.02698000 0.11593200 -0.28666300
v 0.02698000 0.11593200 -0.28666300
v 0.02685100 0.11593200 -0.28648900
v 0.02685100 0.11593200 -0.28648900
v 0.02685100 0.11593200 -0.28648900
v 0.02685100 0.11593200 -0.28648900
v 0.02685100 0.11593200 -0.28648900
v 0.02673500 0.11593200 -0.28630500
v 0.02673500 0.11593200 -0.28630500
v 0.02673500 0.11593200 -0.28630500
v 0.02663400 0.11593200 -0.28611300
v 0.02663400 0.11593200 -0.28611300
v 0.02663400 0.11593200 -0.28611300
v 0.02663400 0.11593200 -0.28611300
v 0.02654700 0.11593200 -0.28591500
v 0.02654700 0.11593200 -0.28591500
v 0.02654700 0.11593200 -0.28591500
v 0.02647600 0.11593200 -0.28571000
v 0.02647600 0.11593200 -0.28571000
v 0.02647600 0.11593200 -0.28571000
v 0.02642000 0.11593200 -0.28550000
v 0.02642000 0.11593200 -0.28550000
v 0.02642000 0.11593200 -0.28550000
v 0.02637900 0.11593200 -0.28528700
v 0.02637900 0.11593200 -0.28528700
v 0.02637900 0.11593200 -0.28528700
v 0.02635500 0.11593200 -0.28507200
v 0.02635500 0.11593200 -0.28507200
v 0.02635500 0.11593200 -0.28507200
v 0.02634700 0.11593200 -0.28485500
v 0.02634700 0.11593200 -0.28485500
v 0.02634700 0.11593200 -0.28485500
v 0.02635500 0.11593200 -0.28463800
v 0.02635500 0.11593200 -0.28463800
v 0.02635500 0.11593200 -0.28463800
v 0.02637900 0.11593200 -0.28442300
v 0.02637900 0.11593200 -0.28442300
v 0.02637900 0.11593200 -0.28442300
v 0.02637900 0.11593200 -0.28442300
v 0.02637900 0.11593200 -0.28442300
v 0.02642000 0.11593200 -0.28421000
v 0.02642000 0.11593200 -0.28421000
v 0.02642000 0.11593200 -0.28421000
v 0.02647600 0.11593200 -0.28400000
v 0.02647600 0.11593200 -0.28400000
v 0.02647600 0.11593200 -0.28400000
v 0.02654700 0.11593200 -0.28379600
v 0.02654700 0.11593200 -0.28379600
v 0.02654700 0.11593200 -0.28379600
v 0.02654700 0.11593200 -0.28379600
v 0.02663400 0.11593200 -0.28359700
v 0.02663400 0.11593200 -0.28359700
v 0.02663400 0.11593200 -0.28359700
v 0.02663400 0.11593200 -0.28359700
v 0.02673500 0.11593200 -0.28340500
v 0.02673500 0.11593200 -0.28340500
v 0.02673500 0.11593200 -0.28340500
v 0.02673500 0.11593200 -0.28340500
v 0.02673500 0.11593200 -0.28340500
v 0.02685100 0.11593200 -0.28322100
v 0.02685100 0.11593200 -0.28322100
v 0.02685100 0.11593200 -0.28322100
v 0.02698000 0.11593200 -0.28304700
v 0.02698000 0.11593200 -0.28304700
v 0.02698000 0.11593200 -0.28304700
v 0.02698000 0.11593200 -0.28304700
v 0.02698000 0.11593200 -0.28304700
v 0.02712100 0.11593200 -0.28288300
v 0.02712100 0.11593200 -0.28288300
v 0.02712100 0.11593200 -0.28288300
v 0.02727400 0.11593200 -0.28272900
v 0.02727400 0.11593200 -0.28272900
v 0.02727400 0.11593200 -0.28272900
v 0.02727400 0.11593200 -0.28272900
v 0.02727400 0.11593200 -0.28272900
v 0.02743900 0.11593200 -0.28258800
v 0.02743900 0.11593200 -0.28258800
v 0.02743900 0.11593200 -0.28258800
v 0.02761300 0.11593200 -0.28245900
v 0.02761300 0.11593200 -0.28245900
v 0.02761300 0.11593200 -0.28245900
v 0.02779700 0.11593200 -0.28234400
v 0.02779700 0.11593200 -0.28234400
v 0.02779700 0.11593200 -0.28234400
v 0.02798900 0.11593200 -0.28224200
v 0.02798900 0.11593200 -0.28224200
v 0.02798900 0.11593200 -0.28224200
v 0.02798900 0.11593200 -0.28224200
v 0.02798900 0.11593200 -0.28224200
v 0.02818700 0.11593200 -0.28215600
v 0.02818700 0.11593200 -0.28215600
v 0.02818700 0.11593200 -0.28215600
v 0.02818700 0.11593200 -0.28215600
v 0.02839200 0.11593200 -0.28208400
v 0.02839200 0.11593200 -0.28208400
v 0.02839200 0.11593200 -0.28208400
v 0.02860200 0.11593200 -0.28202800
v 0.02860200 0.11593200 -0.28202800
v 0.02860200 0.11593200 -0.28202800
v 0.02860200 0.11593200 -0.28202800
v 0.02860200 0.11593200 -0.28202800
v 0.02860200 0.11593200 -0.28202800
v 0.02881500 0.11593200 -0.28198700
v 0.02881500 0.11593200 -0.28198700
v 0.02881500 0.11593200 -0.28198700
v 0.02881500 0.11593200 -0.28198700
v 0.02903000 0.11593200 -0.28196300
v 0.02903000 0.11593200 -0.28196300
v 0.02903000 0.11593200 -0.28196300
v 0.02903000 0.11593200 -0.28196300
v 0.02924700 0.11593100 -0.28195500
v 0.02924700 0.11593100 -0.28195500
v 0.02924700 0.11593100 -0.28195500
v 0.02946400 0.11593100 -0.28196300
v 0.02946400 0.11593100 -0.28196300
v 0.02946400 0.11593100 -0.28196300
v 0.02946400 0.11593100 -0.28196300
v 0.02946400 0.11593100 -0.28196300
v 0.02946400 0.11593100 -0.28196300
v 0.02946400 0.11593100 -0.28196300
v 0.02946400 0.11593100 -0.28196300
v 0.02946400 0.11593100 -0.28196300
v 0.02946400 0.11593100 -0.28196300
v 0.02967900 0.11593100 -0.28198700
v 0.02967900 0.11593100 -0.28198700
v 0.02967900 0.11593100 -0.28198700
v 0.02989200 0.11593100 -0.28202800
v 0.02989200 0.11593100 -0.28202800
v 0.02989200 0.11593100 -0.28202800
v 0.02989200 0.11593100 -0.28202800
v 0.03010200 0.11593100 -0.28208400
v 0.03010200 0.11593100 -0.28208400
v 0.03010200 0.11593100 -0.28208400
v 0.03010200 0.11593100 -0.28208400
v 0.03030600 0.11593100 -0.28215600
v 0.03030600 0.11593100 -0.28215600
v 0.03030600 0.11593100 -0.28215600
v 0.03030600 0.11593100 -0.28215600
v 0.03030600 0.11593100 -0.28215600
v 0.03030600 0.11593100 -0.28215600
v 0.03050500 0.11593100 -0.28224200
v 0.03050500 0.11593100 -0.28224200
v 0.03050500 0.11593100 -0.28224200
v 0.03069700 0.11593100 -0.28234400
v 0.03069700 0.11593100 -0.28234400
v 0.03069700 0.11593100 -0.28234400
v 0.03069700 0.11593100 -0.28234400
v 0.03088000 0.11593100 -0.28245900
v 0.03088000 0.11593100 -0.28245900
v 0.03088000 0.11593100 -0.28245900
v 0.03105500 0.11593100 -0.28258800
v 0.03105500 0.11593100 -0.28258800
v 0.03105500 0.11593100 -0.28258800
v 0.03121900 0.11593100 -0.28272900
v 0.03121900 0.11593100 -0.28272900
v 0.03121900 0.11593100 -0.28272900
v 0.03121900 0.11593100 -0.28272900
v 0.03137300 0.11593100 -0.28288300
v 0.03137300 0.11593100 -0.28288300
v 0.03137300 0.11593100 -0.28288300
v 0.03137300 0.11593100 -0.28288300
v 0.03137300 0.11593100 -0.28288300
v 0.03151400 0.11593100 -0.28304700
v 0.03151400 0.11593100 -0.28304700
v 0.03151400 0.11593100 -0.28304700
v 0.03164300 0.11593100 -0.28322100
v 0.03164300 0.11593100 -0.28322100
v 0.03164300 0.11593100 -0.28322100
v 0.03164300 0.11593100 -0.28322100
v 0.03164300 0.11593100 -0.28322100
v 0.03164300 0.11593100 -0.28322100
v 0.03175800 0.11593100 -0.28340500
v 0.03175800 0.11593100 -0.28340500
v 0.03175800 0.11593100 -0.28340500
v 0.03186000 0.11593100 -0.28359700
v 0.03186000 0.11593100 -0.28359700
v 0.03186000 0.11593100 -0.28359700
v 0.03186000 0.11593100 -0.28359700
v 0.03194600 0.11593100 -0.28379600
v 0.03194600 0.11593100 -0.28379600
v 0.03194600 0.11593100 -0.28379600
v 0.03194600 0.11593100 -0.28379600
v 0.03194600 0.11593100 -0.28379600
v 0.03201800 0.11593100 -0.28400000
v 0.03201800 0.11593100 -0.28400000
v 0.03201800 0.11593100 -0.28400000
v 0.03201800 0.11593100 -0.28400000
v 0.03207400 0.11593100 -0.28421000
v 0.03207400 0.11593100 -0.28421000
v 0.03207400 0.11593100 -0.28421000
v 0.03211400 0.11593100 -0.28442300
v 0.03211400 0.11593100 -0.28442300
v 0.03211400 0.11593100 -0.28442300
v 0.03211400 0.11593100 -0.28442300
v 0.03213900 0.11593100 -0.28463800
v 0.03213900 0.11593100 -0.28463800
v 0.03213900 0.11593100 -0.28463800
v 0.03214700 0.11593100 -0.28485500
v 0.03214700 0.11593100 -0.28485500
v 0.03214700 0.11593100 -0.28485500
v 0.03213900 0.11593100 -0.28507200
v 0.03213900 0.11593100 -0.28507200
v 0.03213900 0.11593100 -0.28507200
v 0.03213900 0.11593100 -0.28507200
v 0.03211400 0.11593100 -0.28528700
v 0.03211400 0.11593100 -0.28528700
v 0.03211400 0.11593100 -0.28528700
v 0.03211400 0.11593100 -0.28528700
v 0.03207400 0.11593100 -0.28550000
v 0.03207400 0.11593100 -0.28550000
v 0.03207400 0.11593100 -0.28550000
v 0.03201800 0.11593100 -0.28571000
v 0.03201800 0.11593100 -0.28571000
v 0.03201800 0.11593100 -0.28571000
v 0.03201800 0.11593100 -0.28571000
v 0.03194600 0.11593100 -0.28591500
v 0.03194600 0.11593100 -0.28591500
v 0.03194600 0.11593100 -0.28591500
v 0.03186000 0.11593100 -0.28611300
v 0.03186000 0.11593100 -0.28611300
v 0.03186000 0.11593100 -0.28611300
v 0.03186000 0.11593100 -0.28611300
v 0.03186000 0.11593100 -0.28611300
v 0.03186000 0.11593100 -0.28611300
v 0.03186000 0.11593100 -0.28611300
v 0.03175800 0.11593100 -0.28630500
v 0.03175800 0.11593100 -0.28630500
v 0.03175800 0.11593100 -0.28630500
v 0.03164300 0.11593100 -0.28648900
v 0.03164300 0.11593100 -0.28648900
v 0.03164300 0.11593100 -0.28648900
v 0.03164300 0.11593100 -0.28648900
v 0.03151400 0.11593100 -0.28666300
v 0.03151400 0.11593100 -0.28666300
v 0.03151400 0.11593100 -0.28666300
v 0.03151400 0.11593100 -0.28666300
v 0.03151400 0.11593100 -0.28666300
v 0.03151400 0.11593100 -0.28666300
v 0.03137300 0.11593100 -0.28682800
v 0.03137300 0.11593100 -0.28682800
v 0.03137300 0.11593100 -0.28682800
v 0.03121900 0.11593100 -0.28698100
v 0.03121900 0.11593100 -0.28698100
v 0.03121900 0.11593100 -0.28698100
v 0.03121900 0.11593100 -0.28698100
v 0.03121900 0.11593100 -0.28698100
v 0.03105500 0.11593100 -0.28712200
v 0.03105500 0.11593100 -0.28712200
v 0.03105500 0.11593100 -0.28712200
v 0.03088000 0.11593100 -0.28725100
v 0.03088000 0.11593100 -0.28725100
v 0.03088000 0.11593100 -0.28725100
v 0.03069700 0.11593100 -0.28736700
v 0.03069700 0.11593100 -0.28736700
v 0.03069700 0.11593100 -0.28736700
v 0.03069700 0.11593100 -0.28736700
v 0.03050500 0.11593100 -0.28746800
v 0.03050500 0.11593100 -0.28746800
v 0.03050500 0.11593100 -0.28746800
v 0.03030600 0.11593100 -0.28755500
v 0.03030600 0.11593100 -0.28755500
v 0.03030600 0.11593100 -0.28755500
v 0.03030600 0.11593100 -0.28755500
v 0.03010200 0.11593100 -0.28762600
v 0.03010200 0.11593100 -0.28762600
v 0.03010200 0.11593100 -0.28762600
v 0.03010200 0.11593100 -0.28762600
v 0.02989200 0.11593100 -0.28768200
v 0.02989200 0.11593100 -0.28768200
v 0.02989200 0.11593100 -0.28768200
v 0.02967900 0.11593100 -0.28772300
v 0.02967900 0.11593100 -0.28772300
v 0.02967900 0.11593100 -0.28772300
v 0.02967900 0.11593100 -0.28772300
v 0.02967900 0.11593100 -0.28772300
v 0.02946400 0.11593100 -0.28774700
v 0.02946400 0.11593100 -0.28774700
v 0.02946400 0.11593100 -0.28774700
v 0.02924700 0.11593100 -0.28775500
v 0.02924700 0.11593100 -0.28775500
v 0.02924700 0.11593100 -0.28775500
v 0.02924700 0.11593100 -0.28775500
v 0.02924700 0.11593100 -0.28775500
v 0.02924700 0.11593100 -0.28775500
v 0.02924700 0.11593100 -0.28775500
v 0.02924700 0.11593100 -0.28775500
v 0.02903000 0.11593100 -0.28774700
v 0.02903000 0.11593100 -0.28774700
v 0.02903000 0.11593100 -0.28774700
v 0.02881500 0.11593100 -0.28772300
v 0.02881500 0.11593100 -0.28772300
v 0.02881500 0.11593100 -0.28772300
v 0.02881500 0.11593100 -0.28772300
v 0.02860200 0.11593100 -0.28768200
v 0.02860200 0.11593100 -0.28768200
v 0.02860200 0.11593100 -0.28768200
v 0.02860200 0.11593100 -0.28768200
v 0.02860200 0.11593100 -0.28768200
v 0.02839200 0.11593100 -0.28762600
v 0.02839200 0.11593100 -0.28762600
v 0.02839200 0.11593100 -0.28762600
v 0.02818700 0.11593100 -0.28755500
v 0.02818700 0.11593100 -0.28755500
v 0.02818700 0.11593100 -0.28755500
v 0.02818700 0.11593100 -0.28755500
v 0.02818700 0.11593100 -0.28755500
v 0.02818700 0.11593100 -0.28755500
v 0.02798900 0.11593100 -0.28746800
v 0.02798900 0.11593100 -0.28746800
v 0.02798900 0.11593100 -0.28746800
v 0.02779700 0.11593100 -0.28736700
v 0.02779700 0.11593100 -0.28736700
v 0.02779700 0.11593100 -0.28736700
v 0.02761300 0.11593100 -0.28725100
v 0.02761300 0.11593100 -0.28725100
v 0.02761300 0.11593100 -0.28725100
v 0.02761300 0.11593100 -0.28725100
v 0.02761300 0.11593100 -0.28725100
v 0.02743900 0.11593100 -0.28712200
v 0.02743900 0.11593100 -0.28712200
v 0.02743900 0.11593100 -0.28712200
v 0.02727400 0.11593100 -0.28698100
v 0.02727400 0.11593100 -0.28698100
v 0.02727400 0.11593100 -0.28698100
v 0.02712100 0.11593100 -0.28682800
v 0.02712100 0.11593100 -0.28682800
v 0.02712100 0.11593100 -0.28682800
v 0.02712100 0.11593100 -0.28682800
v 0.02698000 0.11593100 -0.28666300
v 0.02698000 0.11593100 -0.28666300
v 0.02698000 0.11593100 -0.28666300
v 0.02685100 0.11593100 -0.28648900
v 0.02685100 0.11593100 -0.28648900
v 0.02685100 0.11593100 -0.28648900
v 0.02685100 0.11593100 -0.28648900
v 0.02685100 0.11593100 -0.28648900
v 0.02685100 0.11593100 -0.28648900
v 0.02673500 0.11593100 -0.28630500
v 0.02673500 0.11593100 -0.28630500
v 0.02673500 0.11593100 -0.28630500
v 0.02663400 0.11593100 -0.28611300
v 0.02663400 0.11593100 -0.28611300
v 0.02663400 0.11593100 -0.28611300
v 0.02663400 0.11593100 -0.28611300
v 0.02654700 0.11593100 -0.28591500
v 0.02654700 0.11593100 -0.28591500
v 0.02654700 0.11593100 -0.28591500
v 0.02654700 0.11593100 -0.28591500
v 0.02647600 0.11593100 -0.28571000
v 0.02647600 0.11593100 -0.28571000
v 0.02647600 0.11593100 -0.28571000
v 0.02642000 0.11593100 -0.28550000
v 0.02642000 0.11593100 -0.28550000
v 0.02642000 0.11593100 -0.28550000
v 0.02642000 0.11593100 -0.28550000
v 0.02637900 0.11593100 -0.28528700
v 0.02637900 0.11593100 -0.28528700
v 0.02637900 0.11593100 -0.28528700
v 0.02635500 0.11593100 -0.28507200
v 0.02635500 0.11593100 -0.28507200
v 0.02635500 0.11593100 -0.28507200
v 0.02634700 0.11593100 -0.28485500
v 0.02634700 0.11593100 -0.28485500
v 0.02634700 0.11593100 -0.28485500
v 0.02634700 0.11593100 -0.28485500
v 0.02634700 0.11593100 -0.28485500
v 0.02635500 0.11593100 -0.28463800
v 0.02635500 0.11593100 -0.28463800
v 0.02635500 0.11593100 -0.28463800
v 0.02637900 0.11593100 -0.28442300
v 0.02637900 0.11593100 -0.28442300
v 0.02637900 0.11593100 -0.28442300
v 0.02637900 0.11593100 -0.28442300
v 0.02642000 0.11593100 -0.28421000
v 0.02642000 0.11593100 -0.28421000
v 0.02642000 0.11593100 -0.28421000
v 0.02647600 0.11593100 -0.28400000
v 0.02647600 0.11593100 -0.28400000
v 0.02647600 0.11593100 -0.28400000
v 0.02654700 0.11593100 -0.28379600
v 0.02654700 0.11593100 -0.28379600
v 0.02654700 0.11593100 -0.28379600
v 0.02663400 0.11593100 -0.28359700
v 0.02663400 0.11593100 -0.28359700
v 0.02663400 0.11593100 -0.28359700
v 0.02673500 0.11593100 -0.28340500
v 0.02673500 0.11593100 -0.28340500
v 0.02673500 0.11593100 -0.28340500
v 0.02673500 0.11593100 -0.28340500
v 0.02685100 0.11593100 -0.28322100
v 0.02685100 0.11593100 -0.28322100
v 0.02685100 0.11593100 -0.28322100
v 0.02698000 0.11593100 -0.28304700
v 0.02698000 0.11593100 -0.28304700
v 0.02698000 0.11593100 -0.28304700
v 0.02698000 0.11593100 -0.28304700
v 0.02698000 0.11593100 -0.28304700
v 0.02712100 0.11593100 -0.28288300
v 0.02712100 0.11593100 -0.28288300
v 0.02712100 0.11593100 -0.28288300
v 0.02727400 0.11593100 -0.28272900
v 0.02727400 0.11593100 -0.28272900
v 0.02727400 0.11593100 -0.28272900
v 0.02727400 0.11593100 -0.28272900
v 0.02727400 0.11593100 -0.28272900
v 0.02743900 0.11593100 -0.28258800
v 0.02743900 0.11593100 -0.28258800
v 0.02743900 0.11593100 -0.28258800
v 0.02743900 0.11593100 -0.28258800
v 0.02761300 0.11593100 -0.28245900
v 0.02761300 0.11593100 -0.28245900
v 0.02761300 0.11593100 -0.28245900
v 0.02779700 0.11593100 -0.28234400
v 0.02779700 0.11593100 -0.28234400
v 0.02779700 0.11593100 -0.28234400
v 0.02798900 0.11593100 -0.28224200
v 0.02798900 0.11593100 -0.28224200
v 0.02798900 0.11593100 -0.28224200
v 0.02798900 0.11593100 -0.28224200
v 0.02798900 0.11593100 -0.28224200
v 0.02798900 0.11593100 -0.28224200
v 0.02818700 0.11593100 -0.28215600
v 0.02818700 0.11593100 -0.28215600
v 0.02818700 0.11593100 -0.28215600
v 0.02818700 0.11593100 -0.28215600
v 0.02839200 0.11593100 -0.28208400
v 0.02839200 0.11593100 -0.28208400
v 0.02839200 0.11593100 -0.28208400
v 0.02860200 0.11593100 -0.28202800
v 0.02860200 0.11593100 -0.28202800
v 0.02860200 0.11593100 -0.28202800
v 0.02860200 0.11593100 -0.28202800
v 0.02860200 0.11593100 -0.28202800
v 0.02860200 0.11593100 -0.28202800
v 0.02881500 0.11593100 -0.28198700
v 0.02881500 0.11593100 -0.28198700
v 0.02881500 0.11593100 -0.28198700
v 0.02881500 0.11593100 -0.28198700
v 0.02903000 0.11593100 -0.28196300
v 0.02903000 0.11593100 -0.28196300
v 0.02903000 0.11593100 -0.28196300
v 0.02903000 0.11593100 -0.28196300
vn 0.03770000 0.00000000 0.99930000
vn -0.03730000 0.00000000 0.99930000
vn 0.00000000 1.00000000 0.00000000
vn 0.00000000 1.00000000 -0.00010000
vn 0.00000000 1.00000000 0.00020000
vn -0.00000000 1.00000000 0.00030000
vn -0.00000000 1.00000000 -0.00070000
vn 0.00000000 1.00000000 0.00140000
vn 0.03770000 0.00000000 0.99930000
vn 0.00000000 1.00000000 0.00000000
vn 0.11210000 0.00000000 0.99370000
vn 0.18570000 0.00000000 0.98260000
vn 0.11210000 0.00000000 0.99370000
vn 0.00000000 1.00000000 0.00000000
vn -0.00000000 1.00000000 -0.00070000
vn 0.00000000 1.00000000 0.00000000
vn 0.18570000 0.00000000 0.98260000
vn 0.25880000 -0.00050000 0.96590000
vn -0.00000000 1.00000000 -0.00070000
vn 0.33080000 0.00030000 0.94370000
vn -0.00000000 1.00000000 0.00030000
vn 0.25830000 0.00070000 0.96610000
vn 0.00000000 1.00000000 -0.00040000
vn 0.00000000 1.00000000 -0.00100000
vn -0.00000000 1.00000000 0.00030000
vn 0.33120000 -0.00020000 0.94360000
vn 0.39960000 0.00000000 0.91670000
vn 0.00000000 1.00000000 0.00000000
vn 0.39960000 0.00000000 0.91670000
vn 0.46720000 0.00000000 0.88410000
vn 0.00000000 1.00000000 -0.00100000
vn 0.46720000 0.00000000 0.88410000
vn 0.00000000 1.00000000 0.00000000
vn 0.00000000 1.00000000 -0.00100000
vn 0.00000000 1.00000000 -0.00030000
vn 0.53030000 0.00000000 0.84780000
vn 0.00000000 1.00000000 0.00000000
vn 0.53030000 0.00000000 0.84780000
vn 0.59180000 0.00000000 0.80610000
vn 0.00000000 1.00000000 0.00000000
vn 0.65180000 0.00000000 0.75840000
vn 0.00000000 1.00000000 -0.00030000
vn 0.59180000 0.00000000 0.80610000
vn 0.70640000 -0.00030000 0.70790000
vn 0.65180000 0.00000000 0.75840000
vn 0.00000000 1.00000000 -0.00040000
vn 0.00000000 1.00000000 -0.00030000
vn 0.00000000 1.00000000 0.00000000
vn 0.70630000 0.00030000 0.70790000
vn 0.00000000 1.00000000 -0.00040000
vn 0.00000000 1.00000000 -0.00010000
vn 0.75820000 0.00030000 0.65200000
vn -0.00000000 1.00000000 0.00010000
vn 0.00000000 1.00000000 0.00000000
vn -0.00000000 1.00000000 0.00010000
vn 0.80380000 0.00100000 0.59490000
vn 0.75950000 -0.00060000 0.65050000
vn 0.80380000 -0.00100000 0.59490000
vn -0.00000000 1.00000000 0.00010000
vn -0.00000000 1.00000000 0.00070000
vn 0.00000000 1.00000000 0.00000000
vn 0.84780000 0.00000000 0.53030000
vn 0.00000000 1.00000000 -0.00010000
vn 0.84780000 0.00000000 0.53030000
vn 0.88420000 0.00000000 0.46710000
vn 0.00000000 1.00000000 0.00000000
vn -0.00000000 1.00000000 0.00070000
vn 0.00000000 1.00000000 0.00000000
vn 0.88420000 0.00000000 0.46710000
vn 0.91650000 0.00030000 0.40000000
vn 0.00000000 1.00000000 0.00000000
vn -0.00000000 1.00000000 0.00070000
vn 0.94420000 0.00000000 0.32940000
vn 0.91650000 -0.00050000 0.40010000
vn 0.94420000 0.00000000 0.32940000
vn 0.00000000 1.00000000 0.00000000
vn 0.96600000 0.00000000 0.25850000
vn 0.00000000 1.00000000 0.00000000
vn 0.96600000 0.00000000 0.25850000
vn 0.98260000 0.00000000 0.18560000
vn 0.98260000 0.00000000 0.18560000
vn 0.99380000 0.00000000 0.11150000
vn 0.00000000 1.00000000 0.00000000
vn 0.00000000 1.00000000 0.00000000
vn 0.99380000 0.00000000 0.11150000
vn 0.99930000 0.00000000 0.03750000
vn 0.99930000 0.00000000 0.03750000
vn 0.00000000 1.00000000 0.00000000
vn 0.99930000 0.00000000 -0.03750000
vn 0.99930000 0.00000000 -0.03750000
vn 0.00000000 1.00000000 0.00000000
vn 0.00000000 1.00000000 0.00050000
vn 0.99380000 0.00030000 -0.11140000
vn 0.98260000 0.00000000 -0.18550000
vn 0.00000000 1.00000000 0.00000000
vn 0.99380000 -0.00030000 -0.11150000
vn 0.00000000 1.00000000 0.00050000
vn 0.00000000 1.00000000 -0.00010000
vn 0.98260000 0.00000000 -0.18550000
vn 0.96600000 0.00000000 -0.25850000
vn 0.00000000 1.00000000 0.00000000
vn 0.96600000 0.00000000 -0.25850000
vn 0.00000000 1.00000000 -0.00010000
vn 0.00000000 1.00000000 0.00020000
vn 0.94420000 -0.00030000 -0.32940000
vn 0.00000000 1.00000000 0.00000000
vn 0.91650000 -0.00030000 -0.40010000
vn 0.00000000 1.00000000 0.00020000
vn 0.94420000 0.00020000 -0.32920000
vn 0.88430000 0.00000000 -0.46700000
vn 0.00000000 1.00000000 0.00020000
vn 0.91630000 0.00020000 -0.40050000
vn 0.00000000 1.00000000 0.00000000
vn 0.00000000 1.00000000 0.00050000
vn 0.00000000 1.00000000 -0.00010000
vn 0.00000000 1.00000000 0.00000000
vn 0.84780000 0.00000000 -0.53030000
vn 0.88430000 0.00000000 -0.46700000
vn 0.00000000 1.00000000 0.00000000
vn 0.80350000 0.00000000 -0.59530000
vn 0.84780000 0.00000000 -0.53030000
vn 0.75900000 0.00110000 -0.65100000
vn 0.00000000 1.00000000 0.00000000
vn 0.80350000 0.00000000 -0.59530000
vn 0.00000000 1.00000000 0.00210000
vn 0.00000000 1.00000000 -0.00010000
vn 0.70550000 -0.00040000 -0.70870000
vn 0.00000000 1.00000000 0.00210000
vn 0.75910000 -0.00100000 -0.65090000
vn 0.70690000 0.00060000 -0.70740000
vn 0.00000000 1.00000000 0.00210000
vn -0.00000000 1.00000000 0.00030000
vn 0.00000000 1.00000000 0.00000000
vn 0.65200000 0.00000000 -0.75820000
vn 0.59170000 0.00000000 -0.80620000
vn 0.65200000 0.00000000 -0.75820000
vn 0.00000000 1.00000000 0.00000000
vn -0.00000000 1.00000000 0.00030000
vn 0.53040000 0.00000000 -0.84780000
vn 0.59170000 0.00000000 -0.80620000
vn 0.00000000 1.00000000 0.00000000
vn -0.00000000 1.00000000 0.00030000
vn 0.00000000 1.00000000 -0.00020000
vn 0.53040000 0.00000000 -0.84780000
vn 0.00000000 1.00000000 0.00000000
vn 0.00000000 1.00000000 -0.00010000
vn 0.46730000 0.00000000 -0.88410000
vn 0.00000000 1.00000000 0.00000000
vn 0.39970000 0.00000000 -0.91660000
vn 0.46730000 0.00000000 -0.88410000
vn 0.00000000 1.00000000 0.00000000
vn 0.33070000 0.00000000 -0.94370000
vn -0.00000000 1.00000000 0.00030000
vn 0.00000000 1.00000000 -0.00020000
vn 0.39970000 0.00000000 -0.91660000
vn 0.00000000 1.00000000 0.00000000
vn 0.25840000 0.00000000 -0.96600000
vn 0.33070000 0.00000000 -0.94370000
vn 0.18570000 0.00000000 -0.98260000
vn 0.00000000 1.00000000 0.00000000
vn 0.25840000 0.00000000 -0.96600000
vn 0.11320000 -0.00050000 -0.99360000
vn 0.00000000 1.00000000 0.00000000
vn 0.18570000 0.00000000 -0.98260000
vn 0.00000000 1.00000000 -0.00110000
vn -0.00000000 1.00000000 0.00030000
vn 0.00000000 1.00000000 -0.00110000
vn 0.03840000 0.00070000 -0.99930000
vn 0.11150000 0.00090000 -0.99380000
vn -0.00000000 1.00000000 0.00030000
vn 0.00000000 1.00000000 -0.00110000
vn 0.00000000 1.00000000 -0.00010000
vn 0.00000000 1.00000000 0.00000000
vn 0.03650000 -0.00040000 -0.99930000
vn -0.03620000 -0.00040000 -0.99930000
vn 0.00000000 1.00000000 -0.00020000
vn 0.00000000 1.00000000 -0.00010000
vn -0.11060000 0.00090000 -0.99390000
vn -0.03810000 0.00070000 -0.99930000
vn 0.00000000 1.00000000 -0.00010000
vn -0.18570000 0.00000000 -0.98260000
vn 0.00000000 1.00000000 0.00000000
vn -0.11230000 -0.00050000 -0.99370000
vn -0.18570000 0.00000000 -0.98260000
vn 0.00000000 1.00000000 0.00000000
vn -0.25960000 0.00180000 -0.96570000
vn -0.00000000 1.00000000 0.00220000
vn -0.00000000 1.00000000 0.00220000
vn -0.25670000 -0.00130000 -0.96650000
vn -0.32930000 -0.00170000 -0.94420000
vn -0.39970000 0.00000000 -0.91660000
vn 0.00000000 1.00000000 0.00000000
vn -0.32780000 0.00210000 -0.94480000
vn -0.00000000 1.00000000 0.00220000
vn 0.00000000 1.00000000 0.00000000
vn -0.46730000 0.00000000 -0.88410000
vn -0.39970000 0.00000000 -0.91660000
vn 0.00000000 1.00000000 0.00000000
vn -0.46730000 0.00000000 -0.88410000
vn -0.53040000 0.00000000 -0.84780000
vn 0.00000000 1.00000000 0.00000000
vn -0.53040000 0.00000000 -0.84780000
vn -0.00000000 1.00000000 0.00010000
vn -0.59170000 0.00000000 -0.80620000
vn -0.00000000 1.00000000 -0.00070000
vn -0.65200000 0.00000000 -0.75820000
vn -0.00000000 1.00000000 -0.00070000
vn -0.59170000 0.00000000 -0.80620000
vn 0.00000000 1.00000000 0.00000000
vn -0.65200000 0.00000000 -0.75820000
vn -0.70620000 0.00000000 -0.70800000
vn 0.00000000 1.00000000 0.00000000
vn -0.00000000 1.00000000 -0.00070000
vn -0.75890000 0.00000000 -0.65120000
vn -0.00000000 1.00000000 0.00010000
vn 0.00000000 1.00000000 0.00000000
vn -0.70620000 0.00000000 -0.70800000
vn 0.00000000 1.00000000 0.00000000
vn -0.75890000 0.00000000 -0.65120000
vn -0.80550000 0.00000000 -0.59260000
vn 0.00000000 1.00000000 0.00000000
vn -0.84600000 0.00000000 -0.53320000
vn 0.00000000 1.00000000 0.00050000
vn -0.00000000 1.00000000 0.00010000
vn -0.80550000 0.00000000 -0.59260000
vn 0.00000000 1.00000000 0.00050000
vn -0.88430000 0.00000000 -0.46700000
vn -0.84600000 0.00000000 -0.53320000
vn 0.00000000 1.00000000 0.00050000
vn 0.00000000 1.00000000 0.00000000
vn -0.88430000 0.00000000 -0.46700000
vn -0.91650000 0.00020000 -0.40000000
vn 0.00000000 1.00000000 0.00000000
vn -0.91650000 -0.00030000 -0.40010000
vn -0.94420000 0.00000000 -0.32950000
vn -0.94420000 0.00000000 -0.32950000
vn 0.00000000 1.00000000 0.00000000
vn -0.96600000 0.00000000 -0.25850000
vn -0.98260000 0.00000000 -0.18550000
vn 0.00000000 1.00000000 0.00000000
vn -0.96600000 0.00000000 -0.25850000
vn -0.98260000 0.00000000 -0.18550000
vn 0.00000000 1.00000000 0.00000000
vn -0.99360000 0.00000000 -0.11260000
vn -0.99360000 0.00000000 -0.11260000
vn -0.99930000 0.00000000 -0.03730000
vn 0.00000000 1.00000000 0.00000000
vn -0.99930000 0.00000000 -0.03730000
vn 0.00000000 1.00000000 0.00000000
vn -0.99930000 0.00000000 0.03730000
vn -0.99930000 0.00000000 0.03730000
vn 0.00000000 1.00000000 0.00000000
vn -0.99360000 0.00000000 0.11260000
vn 0.00000000 1.00000000 -0.00010000
vn 0.00000000 1.00000000 0.00020000
vn 0.00000000 1.00000000 0.00000000
vn -0.98260000 0.00000000 0.18560000
vn -0.99360000 0.00000000 0.11260000
vn -0.98260000 0.00000000 0.18560000
vn -0.96600000 0.00000000 0.25850000
vn 0.00000000 1.00000000 0.00000000
vn 0.00000000 1.00000000 0.00000000
vn -0.94420000 0.00000000 0.32940000
vn -0.96600000 0.00000000 0.25850000
vn 0.00000000 1.00000000 0.00020000
vn -0.91640000 0.00000000 0.40030000
vn 0.00000000 1.00000000 0.00000000
vn -0.94420000 0.00000000 0.32940000
vn -0.91640000 0.00000000 0.40030000
vn -0.88420000 0.00000000 0.46710000
vn 0.00000000 1.00000000 -0.00010000
vn 0.00000000 1.00000000 0.00020000
vn 0.00000000 1.00000000 -0.00010000
vn -0.84600000 0.00000000 0.53320000
vn 0.00000000 1.00000000 0.00000000
vn -0.88420000 0.00000000 0.46710000
vn -0.00000000 1.00000000 0.00030000
vn -0.80550000 0.00000000 0.59260000
vn -0.84600000 0.00000000 0.53320000
vn 0.00000000 1.00000000 0.00000000
vn -0.80550000 0.00000000 0.59260000
vn -0.00000000 1.00000000 -0.00210000
vn -0.75910000 0.00110000 0.65100000
vn 0.00000000 1.00000000 0.00000000
vn -0.00000000 1.00000000 0.00030000
vn -0.00000000 1.00000000 -0.00210000
vn -0.75920000 -0.00100000 0.65090000
vn -0.70550000 -0.00040000 0.70870000
vn -0.70690000 0.00060000 0.70730000
vn 0.00000000 1.00000000 0.00000000
vn -0.00000000 1.00000000 0.00030000
vn -0.65180000 0.00000000 0.75840000
vn -0.00000000 1.00000000 -0.00210000
vn -0.65180000 0.00000000 0.75840000
vn 0.00000000 1.00000000 0.00000000
vn -0.59180000 0.00000000 0.80610000
vn -0.53030000 0.00000000 0.84780000
vn 0.00000000 1.00000000 0.00000000
vn -0.59180000 0.00000000 0.80610000
vn 0.00000000 1.00000000 0.00000000
vn -0.53030000 0.00000000 0.84780000
vn -0.46720000 0.00000000 0.88410000
vn -0.46720000 0.00000000 0.88410000
vn 0.00000000 1.00000000 0.00000000
vn -0.39960000 0.00000000 0.91670000
vn 0.00000000 1.00000000 -0.00030000
vn 0.00000000 1.00000000 -0.00010000
vn -0.39960000 0.00000000 0.91670000
vn 0.00000000 1.00000000 -0.00110000
vn -0.32820000 0.00110000 0.94460000
vn 0.00000000 1.00000000 -0.00030000
vn -0.25760000 -0.00070000 0.96630000
vn -0.32890000 -0.00090000 0.94440000
vn 0.00000000 1.00000000 -0.00110000
vn 0.00000000 1.00000000 -0.00030000
vn -0.18570000 0.00000000 0.98260000
vn -0.25900000 0.00090000 0.96590000
vn 0.00000000 1.00000000 -0.00010000
vn 0.00000000 1.00000000 0.00020000
vn 0.00000000 1.00000000 -0.00110000
vn 0.00000000 1.00000000 0.00140000
vn 0.00000000 1.00000000 0.00020000
vn -0.18570000 0.00000000 0.98260000
vn -0.11240000 -0.00060000 0.99370000
vn 0.00000000 1.00000000 0.00000000
vn -0.03730000 0.00000000 0.99930000
vn -0.11020000 0.00110000 0.99390000
vn 0.00000000 1.00000000 0.00140000
vn -0.03730000 0.00000000 0.99930000
vn 0.00000000 -1.00000000 0.00100000
vn 0.03770000 0.00000000 0.99930000
vn 0.00000000 -1.00000000 0.00000000
vn 0.00010000 -1.00000000 -0.00280000
vn 0.03770000 0.00000000 0.99930000
vn 0.11210000 0.00000000 0.99370000
vn 0.00000000 -1.00000000 0.00020000
vn 0.00020000 -1.00000000 0.00060000
vn -0.00010000 -1.00000000 0.00020000
vn 0.00000000 -1.00000000 0.00010000
vn 0.00000000 -1.00000000 0.00100000
vn 0.00000000 -1.00000000 -0.00010000
vn 0.18570000 0.00000000 0.98260000
vn 0.00000000 -1.00000000 0.00000000
vn 0.11210000 0.00000000 0.99370000
vn 0.25890000 0.00040000 0.96590000
vn 0.18570000 0.00000000 0.98260000
vn -0.00030000 -1.00000000 -0.00060000
vn 0.00000000 -1.00000000 0.00000000
vn 0.33060000 -0.00010000 0.94380000
vn 0.00030000 -1.00000000 0.00060000
vn 0.00020000 -1.00000000 0.00080000
vn 0.25910000 0.00020000 0.96590000
vn 0.00000000 -1.00000000 0.00100000
vn 0.00000000 -1.00000000 0.00000000
vn 0.33070000 -0.00030000 0.94370000
vn 0.39960000 0.00000000 0.91670000
vn 0.00030000 -1.00000000 -0.00010000
vn -0.00020000 -1.00000000 0.00020000
vn 0.00000000 -1.00000000 0.00100000
vn 0.46720000 0.00000000 0.88410000
vn 0.39960000 0.00000000 0.91670000
vn 0.46720000 0.00000000 0.88410000
vn 0.00000000 -1.00000000 0.00100000
vn 0.53030000 0.00000000 0.84780000
vn 0.00000000 -1.00000000 0.00000000
vn 0.53030000 0.00000000 0.84780000
vn 0.00000000 -1.00000000 0.00000000
vn 0.59180000 0.00000000 0.80610000
vn 0.65180000 0.00000000 0.75840000
vn 0.00000000 -1.00000000 0.00000000
vn 0.59180000 0.00000000 0.80610000
vn 0.65180000 0.00000000 0.75840000
vn 0.00000000 -1.00000000 0.00000000
vn 0.70650000 0.00010000 0.70770000
vn -0.00030000 -1.00000000 -0.00040000
vn -0.00110000 -1.00000000 0.00020000
vn 0.00000000 -1.00000000 0.00000000
vn 0.00030000 -1.00000000 -0.00020000
vn 0.75870000 -0.00110000 0.65140000
vn 0.70650000 -0.00000000 0.70770000
vn 0.00110000 -1.00000000 -0.00020000
vn 0.80290000 0.00060000 0.59610000
vn 0.75860000 -0.00100000 0.65160000
vn -0.00110000 -1.00000000 0.00030000
vn -0.00040000 -1.00000000 0.00010000
vn 0.84780000 0.00000000 0.53030000
vn 0.00000000 -1.00000000 0.00000000
vn 0.00000000 -1.00000000 0.00050000
vn 0.80290000 -0.00050000 0.59610000
vn 0.88420000 0.00000000 0.46710000
vn 0.00000000 -1.00000000 0.00050000
vn 0.84780000 0.00000000 0.53030000
vn 0.00040000 -1.00000000 -0.00050000
vn 0.88420000 0.00000000 0.46710000
vn 0.91630000 0.00030000 0.40060000
vn 0.00000000 -1.00000000 0.00050000
vn -0.00040000 -1.00000000 0.00010000
vn 0.94420000 0.00000000 0.32940000
vn 0.00000000 -1.00000000 0.00020000
vn 0.91620000 -0.00010000 0.40070000
vn 0.00000000 -1.00000000 0.00000000
vn 0.96600000 0.00000000 0.25850000
vn 0.94420000 0.00000000 0.32940000
vn 0.00000000 -1.00000000 0.00020000
vn 0.00000000 -1.00000000 0.00000000
vn 0.96600000 0.00000000 0.25850000
vn 0.98260000 0.00000000 0.18560000
vn 0.00000000 -1.00000000 0.00000000
vn 0.98260000 0.00000000 0.18560000
vn 0.00000000 -1.00000000 0.00020000
vn 0.99380000 0.00000000 0.11150000
vn 0.00000000 -1.00000000 0.00000000
vn 0.99930000 0.00000000 0.03750000
vn 0.99380000 0.00000000 0.11150000
vn 0.00000000 -1.00000000 0.00000000
vn 0.99930000 0.00000000 0.03750000
vn 0.99930000 0.00000000 -0.03750000
vn 0.00000000 -1.00000000 0.00000000
vn 0.00000000 -1.00000000 0.00000000
vn 0.00010000 -1.00000000 0.00020000
vn 0.99930000 0.00000000 -0.03750000
vn 0.99380000 -0.00020000 -0.11130000
vn 0.98260000 0.00000000 -0.18550000
vn 0.99380000 0.00000000 -0.11120000
vn -0.00010000 -1.00000000 -0.00040000
vn 0.00000000 -1.00000000 0.00000000
vn 0.96600000 0.00000000 -0.25850000
vn 0.98260000 0.00000000 -0.18550000
vn 0.00000000 -1.00000000 0.00000000
vn 0.94410000 -0.00010000 -0.32980000
vn -0.00020000 -1.00000000 -0.00030000
vn 0.96600000 0.00000000 -0.25850000
vn 0.00000000 -1.00000000 0.00000000
vn 0.00020000 -1.00000000 0.00020000
vn 0.91630000 -0.00020000 -0.40050000
vn 0.94410000 0.00030000 -0.32970000
vn 0.00000000 -1.00000000 0.00070000
vn 0.88430000 0.00000000 -0.46700000
vn 0.91640000 -0.00030000 -0.40040000
vn 0.00000000 -1.00000000 -0.00050000
vn -0.00020000 -1.00000000 -0.00020000
vn 0.00000000 -1.00000000 0.00000000
vn 0.00020000 -1.00000000 0.00020000
vn 0.88430000 0.00000000 -0.46700000
vn 0.00000000 -1.00000000 -0.00050000
vn 0.84780000 0.00000000 -0.53030000
vn 0.84780000 0.00000000 -0.53030000
vn 0.00000000 -1.00000000 0.00070000
vn 0.80350000 0.00000000 -0.59530000
vn 0.00000000 -1.00000000 -0.00050000
vn 0.75960000 -0.00030000 -0.65040000
vn 0.00000000 -1.00000000 -0.00010000
vn 0.00110000 -1.00000000 0.00010000
vn 0.80350000 0.00000000 -0.59530000
vn 0.00000000 -1.00000000 0.00000000
vn 0.00000000 -1.00000000 0.00070000
vn 0.70590000 0.00100000 -0.70830000
vn 0.75950000 0.00040000 -0.65050000
vn -0.00110000 -1.00000000 -0.00010000
vn 0.00000000 -1.00000000 0.00000000
vn 0.00110000 -1.00000000 0.00000000
vn 0.70580000 0.00090000 -0.70840000
vn 0.65200000 0.00000000 -0.75820000
vn 0.00000000 -1.00000000 -0.00010000
vn 0.00000000 -1.00000000 0.00000000
vn 0.65200000 0.00000000 -0.75820000
vn 0.59170000 0.00000000 -0.80620000
vn 0.53040000 0.00000000 -0.84780000
vn 0.00000000 -1.00000000 0.00000000
vn 0.59170000 0.00000000 -0.80620000
vn 0.00000000 -1.00000000 -0.00010000
vn 0.53040000 0.00000000 -0.84780000
vn 0.46730000 0.00000000 -0.88410000
vn 0.00000000 -1.00000000 0.00000000
vn 0.46730000 0.00000000 -0.88410000
vn 0.00000000 -1.00000000 0.00000000
vn 0.39970000 0.00000000 -0.91660000
vn 0.00000000 -1.00000000 -0.00030000
vn 0.00000000 -1.00000000 0.00000000
vn 0.33070000 0.00000000 -0.94370000
vn 0.39970000 0.00000000 -0.91660000
vn 0.00000000 -1.00000000 0.00210000
vn 0.00000000 -1.00000000 -0.00030000
vn 0.33070000 0.00000000 -0.94370000
vn 0.25840000 0.00000000 -0.96600000
vn 0.18570000 0.00000000 -0.98260000
vn 0.25840000 0.00000000 -0.96600000
vn 0.00000000 -1.00000000 0.00210000
vn -0.00020000 -1.00000000 0.00110000
vn 0.18570000 0.00000000 -0.98260000
vn 0.00000000 -1.00000000 -0.00030000
vn 0.11170000 -0.00100000 -0.99370000
vn 0.00000000 -1.00000000 0.00210000
vn 0.11140000 -0.00070000 -0.99380000
vn 0.03820000 -0.00090000 -0.99930000
vn 0.00020000 -1.00000000 -0.00110000
vn 0.00000000 -1.00000000 -0.00010000
vn 0.00000000 -1.00000000 -0.00030000
vn 0.00000000 -1.00000000 0.00030000
vn 0.00010000 -1.00000000 0.00210000
vn -0.00010000 -1.00000000 0.00110000
vn 0.00000000 -1.00000000 0.00000000
vn -0.03760000 -0.00100000 -0.99930000
vn 0.03790000 -0.00100000 -0.99930000
vn -0.00020000 -1.00000000 -0.00010000
vn -0.11040000 -0.00070000 -0.99390000
vn -0.03790000 -0.00090000 -0.99930000
vn -0.18570000 0.00000000 -0.98260000
vn 0.00020000 -1.00000000 0.00210000
vn 0.00000000 -1.00000000 0.00000000
vn -0.11080000 -0.00100000 -0.99380000
vn -0.00110000 -1.00000000 -0.00180000
vn -0.18570000 0.00000000 -0.98260000
vn 0.00000000 -1.00000000 0.00030000
vn 0.00000000 -1.00000000 0.00000000
vn -0.25670000 0.00120000 -0.96650000
vn 0.00120000 -1.00000000 0.00180000
vn -0.25720000 0.00170000 -0.96640000
vn -0.32970000 0.00130000 -0.94410000
vn -0.39970000 0.00000000 -0.91660000
vn 0.00000000 -1.00000000 0.00030000
vn -0.33010000 0.00030000 -0.94390000
vn -0.00130000 -1.00000000 -0.00170000
vn 0.00000000 -1.00000000 -0.00010000
vn 0.00000000 -1.00000000 0.00000000
vn -0.39970000 0.00000000 -0.91660000
vn 0.00000000 -1.00000000 0.00000000
vn -0.46730000 0.00000000 -0.88410000
vn -0.46730000 0.00000000 -0.88410000
vn 0.00000000 -1.00000000 0.00000000
vn -0.53040000 0.00000000 -0.84780000
vn -0.59170000 0.00000000 -0.80620000
vn 0.00000000 -1.00000000 0.00010000
vn -0.53040000 0.00000000 -0.84780000
vn 0.00000000 -1.00000000 0.00000000
vn 0.00000000 -1.00000000 -0.00010000
vn -0.59170000 0.00000000 -0.80620000
vn 0.00000000 -1.00000000 0.00000000
vn -0.65200000 0.00000000 -0.75820000
vn -0.70620000 0.00000000 -0.70800000
vn -0.65200000 0.00000000 -0.75820000
vn 0.00000000 -1.00000000 0.00000000
vn -0.75890000 0.00000000 -0.65120000
vn 0.00000000 -1.00000000 0.00000000
vn 0.00000000 -1.00000000 0.00010000
vn -0.70620000 0.00000000 -0.70800000
vn 0.00000000 -1.00000000 0.00000000
vn -0.80550000 0.00000000 -0.59260000
vn -0.75890000 0.00000000 -0.65120000
vn -0.80550000 0.00000000 -0.59260000
vn 0.00000000 -1.00000000 0.00010000
vn 0.00000000 -1.00000000 -0.00050000
vn -0.84600000 0.00000000 -0.53320000
vn 0.00000000 -1.00000000 0.00000000
vn 0.00030000 -1.00000000 0.00020000
vn -0.84600000 0.00000000 -0.53320000
vn -0.88430000 0.00000000 -0.46700000
vn 0.00000000 -1.00000000 -0.00050000
vn -0.88430000 0.00000000 -0.46700000
vn -0.00030000 -1.00000000 0.00050000
vn -0.91630000 0.00020000 -0.40040000
vn 0.00000000 -1.00000000 -0.00050000
vn 0.00000000 -1.00000000 0.00000000
vn -0.94420000 0.00000000 -0.32950000
vn -0.91630000 -0.00010000 -0.40050000
vn 0.00030000 -1.00000000 0.00010000
vn 0.00000000 -1.00000000 0.00000000
vn -0.96600000 0.00000000 -0.25850000
vn -0.94420000 0.00000000 -0.32950000
vn 0.00000000 -1.00000000 0.00000000
vn -0.96600000 0.00000000 -0.25850000
vn -0.98260000 0.00000000 -0.18550000
vn 0.00000000 -1.00000000 0.00010000
vn -0.99360000 0.00000000 -0.11260000
vn -0.98260000 0.00000000 -0.18550000
vn 0.00000000 -1.00000000 0.00010000
vn -0.99360000 0.00000000 -0.11260000
vn -0.99930000 0.00000000 -0.03730000
vn 0.00000000 -1.00000000 0.00010000
vn -0.99930000 0.00000000 -0.03730000
vn -0.99930000 0.00000000 0.03730000
vn 0.00000000 -1.00000000 0.00000000
vn 0.00000000 -1.00000000 0.00010000
vn 0.00000000 -1.00000000 -0.00010000
vn 0.00000000 -1.00000000 -0.00010000
vn -0.99930000 0.00000000 0.03730000
vn -0.99360000 0.00000000 0.11260000
vn -0.99360000 0.00000000 0.11260000
vn 0.00000000 -1.00000000 -0.00010000
vn 0.00000000 -1.00000000 0.00000000
vn -0.98260000 0.00000000 0.18560000
vn -0.98260000 0.00000000 0.18560000
vn -0.96600000 0.00000000 0.25850000
vn 0.00000000 -1.00000000 0.00000000
vn -0.94420000 0.00000000 0.32940000
vn -0.96600000 0.00000000 0.25850000
vn 0.00000000 -1.00000000 0.00000000
vn -0.91640000 0.00000000 0.40030000
vn -0.94420000 0.00000000 0.32940000
vn 0.00000000 -1.00000000 0.00000000
vn -0.91640000 0.00000000 0.40030000
vn 0.00000000 -1.00000000 0.00000000
vn -0.88420000 0.00000000 0.46710000
vn 0.00030000 -1.00000000 0.00040000
vn -0.84600000 0.00000000 0.53320000
vn 0.00000000 -1.00000000 0.00000000
vn -0.88420000 0.00000000 0.46710000
vn 0.00000000 -1.00000000 0.00000000
vn -0.84600000 0.00000000 0.53320000
vn -0.80550000 0.00000000 0.59260000
vn -0.00030000 -1.00000000 0.00020000
vn -0.75960000 -0.00030000 0.65040000
vn -0.00110000 -1.00000000 -0.00010000
vn -0.80550000 0.00000000 0.59260000
vn 0.00000000 -1.00000000 0.00000000
vn 0.00110000 -1.00000000 0.00010000
vn -0.70600000 0.00100000 0.70820000
vn -0.75960000 0.00040000 0.65040000
vn -0.70580000 0.00090000 0.70840000
vn -0.00110000 -1.00000000 -0.00000000
vn 0.00000000 -1.00000000 0.00000000
vn 0.00030000 -1.00000000 0.00030000
vn -0.65180000 0.00000000 0.75840000
vn -0.59180000 0.00000000 0.80610000
vn 0.00000000 -1.00000000 -0.00010000
vn 0.00000000 -1.00000000 0.00000000
vn -0.65180000 0.00000000 0.75840000
vn 0.00000000 -1.00000000 0.00000000
vn -0.53030000 0.00000000 0.84780000
vn -0.59180000 0.00000000 0.80610000
vn -0.46720000 0.00000000 0.88410000
vn 0.00000000 -1.00000000 0.00000000
vn -0.53030000 0.00000000 0.84780000
vn 0.00000000 -1.00000000 0.00000000
vn 0.00000000 -1.00000000 0.00030000
vn -0.39960000 0.00000000 0.91670000
vn 0.00000000 -1.00000000 0.00010000
vn -0.46720000 0.00000000 0.88410000
vn 0.00000000 -1.00000000 -0.00010000
vn -0.32930000 0.00020000 0.94420000
vn -0.39960000 0.00000000 0.91670000
vn 0.00000000 -1.00000000 0.00030000
vn -0.00070000 -1.00000000 0.00090000
vn -0.25780000 0.00090000 0.96620000
vn 0.00060000 -1.00000000 -0.00090000
vn -0.32920000 0.00070000 0.94430000
vn -0.25760000 0.00060000 0.96630000
vn -0.18570000 0.00000000 0.98260000
vn -0.00060000 -1.00000000 0.00090000
vn 0.00000000 -1.00000000 0.00020000
vn 0.00000000 -1.00000000 0.00010000
vn 0.00000000 -1.00000000 0.00030000
vn 0.00000000 -1.00000000 0.00020000
vn -0.18570000 0.00000000 0.98260000
vn -0.11050000 -0.00130000 0.99390000
vn 0.00020000 -1.00000000 -0.00280000
vn -0.00020000 -1.00000000 0.00000000
vn 0.00000000 -1.00000000 0.00100000
vn -0.03730000 0.00000000 0.99930000
vn -0.11010000 -0.00090000 0.99390000
vt 0.25490200 0.74509800
vt 0.25490200 0.74509800
vt 0.25490200 0.74509800
vt 0.23727100 0.72609700
vt 0.23727100 0.72609700
vt 0.23727100 0.72609700
vt 0.23727100 0.72609700
vt 0.23727100 0.72609700
vt 0.23727100 0.72609700
vt 0.23727100 0.72609700
vt 0.23727100 0.72609700
vt 0.22111000 0.70583100
vt 0.22111000 0.70583100
vt 0.22111000 0.70583100
vt 0.20650800 0.68441300
vt 0.20650800 0.68441300
vt 0.20650800 0.68441300
vt 0.20650800 0.68441300
vt 0.19354700 0.66196500
vt 0.19354700 0.66196500
vt 0.19354700 0.66196500
vt 0.19354700 0.66196500
vt 0.18230000 0.63861100
vt 0.18230000 0.63861100
vt 0.18230000 0.63861100
vt 0.18230000 0.63861100
vt 0.18230000 0.63861100
vt 0.18230000 0.63861100
vt 0.17283000 0.61448200
vt 0.17283000 0.61448200
vt 0.17283000 0.61448200
vt 0.16519000 0.58971200
vt 0.16519000 0.58971200
vt 0.16519000 0.58971200
vt 0.16519000 0.58971200
vt 0.16519000 0.58971200
vt 0.15942200 0.56444100
vt 0.15942200 0.56444100
vt 0.15942200 0.56444100
vt 0.15555900 0.53880900
vt 0.15555900 0.53880900
vt 0.15555900 0.53880900
vt 0.15555900 0.53880900
vt 0.15362100 0.51296100
vt 0.15362100 0.51296100
vt 0.15362100 0.51296100
vt 0.15362100 0.51296100
vt 0.15362100 0.51296100
vt 0.15362100 0.48703900
vt 0.15362100 0.48703900
vt 0.15362100 0.48703900
vt 0.15362100 0.48703900
vt 0.15362100 0.48703900
vt 0.15362100 0.48703900
vt 0.15555900 0.46119100
vt 0.15555900 0.46119100
vt 0.15555900 0.46119100
vt 0.15942200 0.43555900
vt 0.15942200 0.43555900
vt 0.15942200 0.43555900
vt 0.15942200 0.43555900
vt 0.15942200 0.43555900
vt 0.15942200 0.43555900
vt 0.16519000 0.41028800
vt 0.16519000 0.41028800
vt 0.16519000 0.41028800
vt 0.17283000 0.38551800
vt 0.17283000 0.38551800
vt 0.17283000 0.38551800
vt 0.17283000 0.38551800
vt 0.18230000 0.36138900
vt 0.18230000 0.36138900
vt 0.18230000 0.36138900
vt 0.18230000 0.36138900
vt 0.19354700 0.33803500
vt 0.19354700 0.33803500
vt 0.19354700 0.33803500
vt 0.20650800 0.31558700
vt 0.20650800 0.31558700
vt 0.20650800 0.31558700
vt 0.22111000 0.29416900
vt 0.22111000 0.29416900
vt 0.22111000 0.29416900
vt 0.23727100 0.27390300
vt 0.23727100 0.27390300
vt 0.23727100 0.27390300
vt 0.25490200 0.25490200
vt 0.25490200 0.25490200
vt 0.25490200 0.25490200
vt 0.27390400 0.23727100
vt 0.27390400 0.23727100
vt 0.27390400 0.23727100
vt 0.27390400 0.23727100
vt 0.29416900 0.22111000
vt 0.29416900 0.22111000
vt 0.29416900 0.22111000
vt 0.29416900 0.22111000
vt 0.29416900 0.22111000
vt 0.31558700 0.20650800
vt 0.31558700 0.20650800
vt 0.31558700 0.20650800
vt 0.33803500 0.19354700
vt 0.33803500 0.19354700
vt 0.33803500 0.19354700
vt 0.33803500 0.19354700
vt 0.33803500 0.19354700
vt 0.36138900 0.18230000
vt 0.36138900 0.18230000
vt 0.36138900 0.18230000
vt 0.38551800 0.17283000
vt 0.38551800 0.17283000
vt 0.38551800 0.17283000
vt 0.38551800 0.17283000
vt 0.38551800 0.17283000
vt 0.38551800 0.17283000
vt 0.41028800 0.16519000
vt 0.41028800 0.16519000
vt 0.41028800 0.16519000
vt 0.43555900 0.15942200
vt 0.43555900 0.15942200
vt 0.43555900 0.15942200
vt 0.46119100 0.15555900
vt 0.46119100 0.15555900
vt 0.46119100 0.15555900
vt 0.46119100 0.15555900
vt 0.46119100 0.15555900
vt 0.48703900 0.15362100
vt 0.48703900 0.15362100
vt 0.48703900 0.15362100
vt 0.51296100 0.15362100
vt 0.51296100 0.15362100
vt 0.51296100 0.15362100
vt 0.51296100 0.15362100
vt 0.51296100 0.15362100
vt 0.53880900 0.15555900
vt 0.53880900 0.15555900
vt 0.53880900 0.15555900
vt 0.53880900 0.15555900
vt 0.56444100 0.15942200
vt 0.56444100 0.15942200
vt 0.56444100 0.15942200
vt 0.58971200 0.16519000
vt 0.58971200 0.16519000
vt 0.58971200 0.16519000
vt 0.58971200 0.16519000
vt 0.58971200 0.16519000
vt 0.58971200 0.16519000
vt 0.61448200 0.17283000
vt 0.61448200 0.17283000
vt 0.61448200 0.17283000
vt 0.63861100 0.18230000
vt 0.63861100 0.18230000
vt 0.63861100 0.18230000
vt 0.63861100 0.18230000
vt 0.63861100 0.18230000
vt 0.66196500 0.19354700
vt 0.66196500 0.19354700
vt 0.66196500 0.19354700
vt 0.68441300 0.20650800
vt 0.68441300 0.20650800
vt 0.68441300 0.20650800
vt 0.70583100 0.22111000
vt 0.70583100 0.22111000
vt 0.70583100 0.22111000
vt 0.70583100 0.22111000
vt 0.70583100 0.22111000
vt 0.72609700 0.23727100
vt 0.72609700 0.23727100
vt 0.72609700 0.23727100
vt 0.74509800 0.25490200
vt 0.74509800 0.25490200
vt 0.74509800 0.25490200
vt 0.74509800 0.25490200
vt 0.74509800 0.25490200
vt 0.74509800 0.25490200
vt 0.74509800 0.25490200
vt 0.76272900 0.27390400
vt 0.76272900 0.27390400
vt 0.76272900 0.27390400
vt 0.77889000 0.29416900
vt 0.77889000 0.29416900
vt 0.77889000 0.29416900
vt 0.77889000 0.29416900
vt 0.79349200 0.31558700
vt 0.79349200 0.31558700
vt 0.79349200 0.31558700
vt 0.79349200 0.31558700
vt 0.80645300 0.33803500
vt 0.80645300 0.33803500
vt 0.80645300 0.33803500
vt 0.81770000 0.36138900
vt 0.81770000 0.36138900
vt 0.81770000 0.36138900
vt 0.81770000 0.36138900
vt 0.82717000 0.38551800
vt 0.82717000 0.38551800
vt 0.82717000 0.38551800
vt 0.83481000 0.41028800
vt 0.83481000 0.41028800
vt 0.83481000 0.41028800
vt 0.84057800 0.43555900
vt 0.84057800 0.43555900
vt 0.84057800 0.43555900
vt 0.84057800 0.43555900
vt 0.84057800 0.43555900
vt 0.84444100 0.46119100
vt 0.84444100 0.46119100
vt 0.84444100 0.46119100
vt 0.84444100 0.46119100
vt 0.84637900 0.48703900
vt 0.84637900 0.48703900
vt 0.84637900 0.48703900
vt 0.84637900 0.51296100
vt 0.84637900 0.51296100
vt 0.84637900 0.51296100
vt 0.84637900 0.51296100
vt 0.84637900 0.51296100
vt 0.84444100 0.53880900
vt 0.84444100 0.53880900
vt 0.84444100 0.53880900
vt 0.84057800 0.56444100
vt 0.84057800 0.56444100
vt 0.84057800 0.56444100
vt 0.84057800 0.56444100
vt 0.84057800 0.56444100
vt 0.83481000 0.58971200
vt 0.83481000 0.58971200
vt 0.83481000 0.58971200
vt 0.82717000 0.61448200
vt 0.82717000 0.61448200
vt 0.82717000 0.61448200
vt 0.82717000 0.61448200
vt 0.81770000 0.63861100
vt 0.81770000 0.63861100
vt 0.81770000 0.63861100
vt 0.80645300 0.66196500
vt 0.80645300 0.66196500
vt 0.80645300 0.66196500
vt 0.79349200 0.68441300
vt 0.79349200 0.68441300
vt 0.79349200 0.68441300
vt 0.77889000 0.70583100
vt 0.77889000 0.70583100
vt 0.77889000 0.70583100
vt 0.76272900 0.72609700
vt 0.76272900 0.72609700
vt 0.76272900 0.72609700
vt 0.74509800 0.74509800
vt 0.74509800 0.74509800
vt 0.74509800 0.74509800
vt 0.72609700 0.76272900
vt 0.72609700 0.76272900
vt 0.72609700 0.76272900
vt 0.70583100 0.77889000
vt 0.70583100 0.77889000
vt 0.70583100 0.77889000
vt 0.70583100 0.77889000
vt 0.70583100 0.77889000
vt 0.68441300 0.79349200
vt 0.68441300 0.79349200
vt 0.68441300 0.79349200
vt 0.66196500 0.80645300
vt 0.66196500 0.80645300
vt 0.66196500 0.80645300
vt 0.63861100 0.81770000
vt 0.63861100 0.81770000
vt 0.63861100 0.81770000
vt 0.63861100 0.81770000
vt 0.61448200 0.82717000
vt 0.61448200 0.82717000
vt 0.61448200 0.82717000
vt 0.61448200 0.82717000
vt 0.58971200 0.83481000
vt 0.58971200 0.83481000
vt 0.58971200 0.83481000
vt 0.58971200 0.83481000
vt 0.58971200 0.83481000
vt 0.56444100 0.84057800
vt 0.56444100 0.84057800
vt 0.56444100 0.84057800
vt 0.53880900 0.84444100
vt 0.53880900 0.84444100
vt 0.53880900 0.84444100
vt 0.53880900 0.84444100
vt 0.53880900 0.84444100
vt 0.51296100 0.84637900
vt 0.51296100 0.84637900
vt 0.51296100 0.84637900
vt 0.48703900 0.84637900
vt 0.48703900 0.84637900
vt 0.48703900 0.84637900
vt 0.48703900 0.84637900
vt 0.48703900 0.84637900
vt 0.46119100 0.84444100
vt 0.46119100 0.84444100
vt 0.46119100 0.84444100
vt 0.43555900 0.84057800
vt 0.43555900 0.84057800
vt 0.43555900 0.84057800
vt 0.41028800 0.83481000
vt 0.41028800 0.83481000
vt 0.41028800 0.83481000
vt 0.38551800 0.82717000
vt 0.38551800 0.82717000
vt 0.38551800 0.82717000
vt 0.38551800 0.82717000
vt 0.38551800 0.82717000
vt 0.36138900 0.81770000
vt 0.36138900 0.81770000
vt 0.36138900 0.81770000
vt 0.36138900 0.81770000
vt 0.33803500 0.80645300
vt 0.33803500 0.80645300
vt 0.33803500 0.80645300
vt 0.31558700 0.79349200
vt 0.31558700 0.79349200
vt 0.31558700 0.79349200
vt 0.31558700 0.79349200
vt 0.31558700 0.79349200
vt 0.31558700 0.79349200
vt 0.29416900 0.77889000
vt 0.29416900 0.77889000
vt 0.29416900 0.77889000
vt 0.29416900 0.77889000
vt 0.27390300 0.76272900
vt 0.27390300 0.76272900
vt 0.27390300 0.76272900
vt 0.27390300 0.76272900
vt 0.25490200 0.74509800
vt 0.25490200 0.74509800
vt 0.25490200 0.74509800
vt 0.23727100 0.72609700
vt 0.23727100 0.72609700
vt 0.23727100 0.72609700
vt 0.23727100 0.72609700
vt 0.23727100 0.72609700
vt 0.23727100 0.72609700
vt 0.23727100 0.72609700
vt 0.23727100 0.72609700
vt 0.23727100 0.72609700
vt 0.23727100 0.72609700
vt 0.22111000 0.70583100
vt 0.22111000 0.70583100
vt 0.22111000 0.70583100
vt 0.20650800 0.68441300
vt 0.20650800 0.68441300
vt 0.20650800 0.68441300
vt 0.20650800 0.68441300
vt 0.19354700 0.66196500
vt 0.19354700 0.66196500
vt 0.19354700 0.66196500
vt 0.19354700 0.66196500
vt 0.18230000 0.63861100
vt 0.18230000 0.63861100
vt 0.18230000 0.63861100
vt 0.18230000 0.63861100
vt 0.18230000 0.63861100
vt 0.18230000 0.63861100
vt 0.17283000 0.61448200
vt 0.17283000 0.61448200
vt 0.17283000 0.61448200
vt 0.16519000 0.58971200
vt 0.16519000 0.58971200
vt 0.16519000 0.58971200
vt 0.16519000 0.58971200
vt 0.15942200 0.56444100
vt 0.15942200 0.56444100
vt 0.15942200 0.56444100
vt 0.15555900 0.53880900
vt 0.15555900 0.53880900
vt 0.15555900 0.53880900
vt 0.15362100 0.51296100
vt 0.15362100 0.51296100
vt 0.15362100 0.51296100
vt 0.15362100 0.51296100
vt 0.15362100 0.48703900
vt 0.15362100 0.48703900
vt 0.15362100 0.48703900
vt 0.15362100 0.48703900
vt 0.15362100 0.48703900
vt 0.15555900 0.46119100
vt 0.15555900 0.46119100
vt 0.15555900 0.46119100
vt 0.15942200 0.43555900
vt 0.15942200 0.43555900
vt 0.15942200 0.43555900
vt 0.15942200 0.43555900
vt 0.15942200 0.43555900
vt 0.15942200 0.43555900
vt 0.16519000 0.41028800
vt 0.16519000 0.41028800
vt 0.16519000 0.41028800
vt 0.17283000 0.38551800
vt 0.17283000 0.38551800
vt 0.17283000 0.38551800
vt 0.17283000 0.38551800
vt 0.18230000 0.36138900
vt 0.18230000 0.36138900
vt 0.18230000 0.36138900
vt 0.18230000 0.36138900
vt 0.18230000 0.36138900
vt 0.19354700 0.33803500
vt 0.19354700 0.33803500
vt 0.19354700 0.33803500
vt 0.19354700 0.33803500
vt 0.20650800 0.31558700
vt 0.20650800 0.31558700
vt 0.20650800 0.31558700
vt 0.22111000 0.29416900
vt 0.22111000 0.29416900
vt 0.22111000 0.29416900
vt 0.22111000 0.29416900
vt 0.23727100 0.27390300
vt 0.23727100 0.27390300
vt 0.23727100 0.27390300
vt 0.25490200 0.25490200
vt 0.25490200 0.25490200
vt 0.25490200 0.25490200
vt 0.27390400 0.23727100
vt 0.27390400 0.23727100
vt 0.27390400 0.23727100
vt 0.27390400 0.23727100
vt 0.29416900 0.22111000
vt 0.29416900 0.22111000
vt 0.29416900 0.22111000
vt 0.29416900 0.22111000
vt 0.31558700 0.20650800
vt 0.31558700 0.20650800
vt 0.31558700 0.20650800
vt 0.33803500 0.19354700
vt 0.33803500 0.19354700
vt 0.33803500 0.19354700
vt 0.33803500 0.19354700
vt 0.36138900 0.18230000
vt 0.36138900 0.18230000
vt 0.36138900 0.18230000
vt 0.38551800 0.17283000
vt 0.38551800 0.17283000
vt 0.38551800 0.17283000
vt 0.38551800 0.17283000
vt 0.38551800 0.17283000
vt 0.38551800 0.17283000
vt 0.38551800 0.17283000
vt 0.41028800 0.16519000
vt 0.41028800 0.16519000
vt 0.41028800 0.16519000
vt 0.43555900 0.15942200
vt 0.43555900 0.15942200
vt 0.43555900 0.15942200
vt 0.43555900 0.15942200
vt 0.46119100 0.15555900
vt 0.46119100 0.15555900
vt 0.46119100 0.15555900
vt 0.46119100 0.15555900
vt 0.46119100 0.15555900
vt 0.46119100 0.15555900
vt 0.48703900 0.15362100
vt 0.48703900 0.15362100
vt 0.48703900 0.15362100
vt 0.51296100 0.15362100
vt 0.51296100 0.15362100
vt 0.51296100 0.15362100
vt 0.51296100 0.15362100
vt 0.51296100 0.15362100
vt 0.53880900 0.15555900
vt 0.53880900 0.15555900
vt 0.53880900 0.15555900
vt 0.56444100 0.15942200
vt 0.56444100 0.15942200
vt 0.56444100 0.15942200
vt 0.58971200 0.16519000
vt 0.58971200 0.16519000
vt 0.58971200 0.16519000
vt 0.58971200 0.16519000
vt 0.61448200 0.17283000
vt 0.61448200 0.17283000
vt 0.61448200 0.17283000
vt 0.63861100 0.18230000
vt 0.63861100 0.18230000
vt 0.63861100 0.18230000
vt 0.63861100 0.18230000
vt 0.66196500 0.19354700
vt 0.66196500 0.19354700
vt 0.66196500 0.19354700
vt 0.66196500 0.19354700
vt 0.68441300 0.20650800
vt 0.68441300 0.20650800
vt 0.68441300 0.20650800
vt 0.70583100 0.22111000
vt 0.70583100 0.22111000
vt 0.70583100 0.22111000
vt 0.70583100 0.22111000
vt 0.70583100 0.22111000
vt 0.72609700 0.23727100
vt 0.72609700 0.23727100
vt 0.72609700 0.23727100
vt 0.74509800 0.25490200
vt 0.74509800 0.25490200
vt 0.74509800 0.25490200
vt 0.74509800 0.25490200
vt 0.74509800 0.25490200
vt 0.74509800 0.25490200
vt 0.74509800 0.25490200
vt 0.74509800 0.25490200
vt 0.76272900 0.27390400
vt 0.76272900 0.27390400
vt 0.76272900 0.27390400
vt 0.77889000 0.29416900
vt 0.77889000 0.29416900
vt 0.77889000 0.29416900
vt 0.77889000 0.29416900
vt 0.79349200 0.31558700
vt 0.79349200 0.31558700
vt 0.79349200 0.31558700
vt 0.79349200 0.31558700
vt 0.79349200 0.31558700
vt 0.80645300 0.33803500
vt 0.80645300 0.33803500
vt 0.80645300 0.33803500
vt 0.81770000 0.36138900
vt 0.81770000 0.36138900
vt 0.81770000 0.36138900
vt 0.81770000 0.36138900
vt 0.81770000 0.36138900
vt 0.81770000 0.36138900
vt 0.82717000 0.38551800
vt 0.82717000 0.38551800
vt 0.82717000 0.38551800
vt 0.83481000 0.41028800
vt 0.83481000 0.41028800
vt 0.83481000 0.41028800
vt 0.84057800 0.43555900
vt 0.84057800 0.43555900
vt 0.84057800 0.43555900
vt 0.84057800 0.43555900
vt 0.84057800 0.43555900
vt 0.84444100 0.46119100
vt 0.84444100 0.46119100
vt 0.84444100 0.46119100
vt 0.84637900 0.48703900
vt 0.84637900 0.48703900
vt 0.84637900 0.48703900
vt 0.84637900 0.51296100
vt 0.84637900 0.51296100
vt 0.84637900 0.51296100
vt 0.84637900 0.51296100
vt 0.84444100 0.53880900
vt 0.84444100 0.53880900
vt 0.84444100 0.53880900
vt 0.84057800 0.56444100
vt 0.84057800 0.56444100
vt 0.84057800 0.56444100
vt 0.84057800 0.56444100
vt 0.84057800 0.56444100
vt 0.84057800 0.56444100
vt 0.83481000 0.58971200
vt 0.83481000 0.58971200
vt 0.83481000 0.58971200
vt 0.82717000 0.61448200
vt 0.82717000 0.61448200
vt 0.82717000 0.61448200
vt 0.82717000 0.61448200
vt 0.81770000 0.63861100
vt 0.81770000 0.63861100
vt 0.81770000 0.63861100
vt 0.81770000 0.63861100
vt 0.80645300 0.66196500
vt 0.80645300 0.66196500
vt 0.80645300 0.66196500
vt 0.79349200 0.68441300
vt 0.79349200 0.68441300
vt 0.79349200 0.68441300
vt 0.79349200 0.68441300
vt 0.77889000 0.70583100
vt 0.77889000 0.70583100
vt 0.77889000 0.70583100
vt 0.76272900 0.72609700
vt 0.76272900 0.72609700
vt 0.76272900 0.72609700
vt 0.74509800 0.74509800
vt 0.74509800 0.74509800
vt 0.74509800 0.74509800
vt 0.74509800 0.74509800
vt 0.74509800 0.74509800
vt 0.72609700 0.76272900
vt 0.72609700 0.76272900
vt 0.72609700 0.76272900
vt 0.70583100 0.77889000
vt 0.70583100 0.77889000
vt 0.70583100 0.77889000
vt 0.70583100 0.77889000
vt 0.68441300 0.79349200
vt 0.68441300 0.79349200
vt 0.68441300 0.79349200
vt 0.66196500 0.80645300
vt 0.66196500 0.80645300
vt 0.66196500 0.80645300
vt 0.63861100 0.81770000
vt 0.63861100 0.81770000
vt 0.63861100 0.81770000
vt 0.61448200 0.82717000
vt 0.61448200 0.82717000
vt 0.61448200 0.82717000
vt 0.58971200 0.83481000
vt 0.58971200 0.83481000
vt 0.58971200 0.83481000
vt 0.58971200 0.83481000
vt 0.56444100 0.84057800
vt 0.56444100 0.84057800
vt 0.56444100 0.84057800
vt 0.53880900 0.84444100
vt 0.53880900 0.84444100
vt 0.53880900 0.84444100
vt 0.53880900 0.84444100
vt 0.53880900 0.84444100
vt 0.51296100 0.84637900
vt 0.51296100 0.84637900
vt 0.51296100 0.84637900
vt 0.48703900 0.84637900
vt 0.48703900 0.84637900
vt 0.48703900 0.84637900
vt 0.48703900 0.84637900
vt 0.48703900 0.84637900
vt 0.46119100 0.84444100
vt 0.46119100 0.84444100
vt 0.46119100 0.84444100
vt 0.46119100 0.84444100
vt 0.43555900 0.84057800
vt 0.43555900 0.84057800
vt 0.43555900 0.84057800
vt 0.41028800 0.83481000
vt 0.41028800 0.83481000
vt 0.41028800 0.83481000
vt 0.38551800 0.82717000
vt 0.38551800 0.82717000
vt 0.38551800 0.82717000
vt 0.38551800 0.82717000
vt 0.38551800 0.82717000
vt 0.38551800 0.82717000
vt 0.36138900 0.81770000
vt 0.36138900 0.81770000
vt 0.36138900 0.81770000
vt 0.36138900 0.81770000
vt 0.33803500 0.80645300
vt 0.33803500 0.80645300
vt 0.33803500 0.80645300
vt 0.31558700 0.79349200
vt 0.31558700 0.79349200
vt 0.31558700 0.79349200
vt 0.31558700 0.79349200
vt 0.31558700 0.79349200
vt 0.31558700 0.79349200
vt 0.29416900 0.77889000
vt 0.29416900 0.77889000
vt 0.29416900 0.77889000
vt 0.29416900 0.77889000
vt 0.27390300 0.76272900
vt 0.27390300 0.76272900
vt 0.27390300 0.76272900
vt 0.27390300 0.76272900
f 83/83/83 71/71/71 76/76/76
f 61/61/61 71/71/71 83/83/83
f 78/78/78 83/83/83 76/76/76
f 275/275/275 295/295/295 61/61/61
f 59/59/59 53/53/53 55/55/55
f 68/68/68 61/61/61 66/66/66
f 60/60/60 67/67/67 72/72/72
f 4/4/4 51/51/51 63/63/63
f 91/91/91 83/83/83 84/84/84
f 119/119/119 113/113/113 116/116/116
f 221/221/221 91/91/91 113/113/113
f 119/119/119 123/123/123 113/113/113
f 221/221/221 83/83/83 91/91/91
f 114/114/114 92/92/92 97/97/97
f 115/115/115 98/98/98 103/103/103
f 104/104/104 108/108/108 111/111/111
f 101/101/101 106/106/106 95/95/95
f 83/83/83 275/275/275 61/61/61
f 84/84/84 88/88/88 91/91/91
f 146/146/146 115/115/115 126/126/126
f 35/35/35 42/42/42 47/47/47
f 37/37/37 40/40/40 33/33/33
f 24/24/24 31/31/31 34/34/34
f 28/28/28 33/33/33 48/48/48
f 6/6/6 21/21/21 25/25/25
f 14/14/14 16/16/16 10/10/10
f 19/19/19 7/7/7 15/15/15
f 23/23/23 46/46/46 50/50/50
f 54/54/54 10/10/10 28/28/28
f 325/325/325 3/3/3 10/10/10
f 328/328/328 8/8/8 321/321/321
f 309/309/309 314/314/314 320/320/320
f 5/5/5 319/319/319 322/322/322
f 300/300/300 304/304/304 295/295/295
f 315/315/315 306/306/306 311/311/311
f 298/298/298 300/300/300 295/295/295
f 4/4/4 307/307/307 318/318/318
f 10/10/10 295/295/295 304/304/304
f 61/61/61 295/295/295 10/10/10
f 290/290/290 295/295/295 275/275/275
f 131/131/131 125/125/125 128/128/128
f 142/142/142 132/132/132 138/138/138
f 145/145/145 221/221/221 113/113/113
f 141/141/141 145/145/145 137/137/137
f 148/148/148 151/151/151 145/145/145
f 163/163/163 151/151/151 156/156/156
f 170/170/170 153/153/153 166/166/166
f 160/160/160 163/163/163 156/156/156
f 143/143/143 154/154/154 176/176/176
f 165/165/165 167/167/167 171/171/171
f 180/180/180 172/172/172 177/177/177
f 192/192/192 173/173/173 185/185/185
f 182/182/182 185/185/185 173/173/173
f 188/188/188 194/194/194 187/187/187
f 198/198/198 192/192/192 195/195/195
f 201/201/201 192/192/192 198/198/198
f 207/207/207 213/213/213 205/205/205
f 145/145/145 201/201/201 221/221/221
f 192/192/192 201/201/201 173/173/173
f 173/173/173 201/201/201 145/145/145
f 209/209/209 212/212/212 216/216/216
f 256/256/256 262/262/262 267/267/267
f 261/261/261 262/262/262 256/256/256
f 256/256/256 249/249/249 252/252/252
f 272/272/272 255/255/255 265/265/265
f 277/277/277 285/285/285 291/291/291
f 280/280/280 284/284/284 275/275/275
f 83/83/83 256/256/256 275/275/275
f 273/273/273 254/254/254 271/271/271
f 282/282/282 286/286/286 293/293/293
f 223/223/223 226/226/226 229/229/229
f 218/218/218 221/221/221 216/216/216
f 83/83/83 233/233/233 240/240/240
f 233/233/233 221/221/221 230/230/230
f 247/247/247 249/249/249 243/243/243
f 240/240/240 243/243/243 249/249/249
f 237/237/237 240/240/240 233/233/233
f 240/240/240 249/249/249 256/256/256
f 256/256/256 83/83/83 240/240/240
f 221/221/221 233/233/233 83/83/83
f 203/203/203 215/215/215 224/224/224
f 123/123/123 133/133/133 145/145/145
f 410/410/410 404/404/404 399/399/399
f 387/387/387 412/412/412 401/401/401
f 408/408/408 405/405/405 412/412/412
f 606/606/606 387/387/387 626/626/626
f 384/384/384 381/381/381 376/376/376
f 396/396/396 391/391/391 388/388/388
f 385/385/385 397/397/397 393/393/393
f 332/332/332 387/387/387 377/377/377
f 419/419/419 415/415/415 412/412/412
f 450/450/450 445/445/445 440/440/440
f 554/554/554 442/442/442 419/419/419
f 448/448/448 437/437/437 456/456/456
f 554/554/554 419/419/419 412/412/412
f 443/443/443 425/425/425 420/420/420
f 442/442/442 433/433/433 426/426/426
f 431/431/431 441/441/441 434/434/434
f 429/429/429 426/426/426 433/433/433
f 412/412/412 387/387/387 606/606/606
f 415/415/415 419/419/419 418/418/418
f 474/474/474 455/455/455 442/442/442
f 365/365/365 373/373/373 370/370/370
f 367/367/367 365/365/365 370/370/370
f 353/353/353 363/363/363 359/359/359
f 354/354/354 373/373/373 365/365/365
f 338/338/338 358/358/358 351/351/351
f 343/343/343 332/332/332 348/348/348
f 350/350/350 347/347/347 337/337/337
f 357/357/357 378/378/378 375/375/375
f 377/377/377 354/354/354 332/332/332
f 658/658/658 340/340/340 330/330/330
f 657/657/657 656/656/656 333/333/333
f 643/643/643 649/649/649 645/645/645
f 336/336/336 653/653/653 650/650/650
f 632/632/632 626/626/626 634/634/634
f 652/652/652 642/642/642 635/635/635
f 628/628/628 626/626/626 632/632/632
f 339/339/339 651/651/651 637/637/637
f 341/341/341 639/639/639 625/625/625
f 387/387/387 332/332/332 626/626/626
f 621/621/621 606/606/606 626/626/626
f 461/461/461 459/459/459 453/453/453
f 474/474/474 465/465/465 460/460/460
f 474/474/474 442/442/442 554/554/554
f 469/469/469 465/465/465 474/474/474
f 476/476/476 474/474/474 479/479/479
f 491/491/491 483/483/483 478/478/478
f 498/498/498 491/491/491 478/478/478
f 488/488/488 482/482/482 493/493/493
f 474/474/474 502/502/502 479/479/479
f 489/489/489 501/501/501 496/496/496
f 509/509/509 505/505/505 500/500/500
f 521/521/521 514/514/514 499/499/499
f 510/510/510 502/502/502 515/515/515
f 517/517/517 512/512/512 523/523/523
f 530/530/530 527/527/527 525/525/525
f 535/535/535 530/530/530 525/525/525
f 538/538/538 535/535/535 544/544/544
f 474/474/474 554/554/554 535/535/535
f 524/524/524 497/497/497 536/536/536
f 502/502/502 474/474/474 535/535/535
f 538/538/538 544/544/544 542/542/542
f 590/590/590 600/600/600 597/597/597
f 594/594/594 590/590/590 597/597/597
f 589/589/589 585/585/585 584/584/584
f 602/602/602 600/600/600 590/590/590
f 604/604/604 622/622/622 611/611/611
f 608/608/608 606/606/606 615/615/615
f 412/412/412 606/606/606 590/590/590
f 606/606/606 602/602/602 590/590/590
f 613/613/613 620/620/620 616/616/616
f 552/552/552 562/562/562 558/558/558
f 547/547/547 544/544/544 554/554/554
f 412/412/412 570/570/570 563/563/563
f 566/566/566 560/560/560 555/555/555
f 579/579/579 576/576/576 583/583/583
f 573/573/573 583/583/583 576/576/576
f 567/567/567 563/563/563 570/570/570
f 570/570/570 590/590/590 582/582/582
f 590/590/590 570/570/570 412/412/412
f 554/554/554 412/412/412 563/563/563
f 533/533/533 551/551/551 545/545/545
f 452/452/452 471/471/471 464/464/464
f 9/9/9 1/1/1 331/331/331
f 331/331/331 334/334/334 9/9/9
f 17/17/17 12/12/12 342/342/342
f 342/342/342 346/346/346 17/17/17
f 26/26/26 20/20/20 349/349/349
f 349/349/349 355/355/355 26/26/26
f 241/241/241 238/238/238 568/568/568
f 568/568/568 571/571/571 241/241/241
f 32/32/32 30/30/30 360/360/360
f 360/360/360 362/362/362 32/32/32
f 43/43/43 39/39/39 368/368/368
f 368/368/368 371/371/371 43/43/43
f 49/49/49 44/44/44 374/374/374
f 374/374/374 380/380/380 49/49/49
f 58/58/58 56/56/56 382/382/382
f 382/382/382 389/389/389 58/58/58
f 69/69/69 65/65/65 390/390/390
f 390/390/390 394/394/394 69/69/69
f 75/75/75 73/73/73 398/398/398
f 398/398/398 403/403/403 75/75/75
f 87/87/87 86/86/86 413/413/413
f 413/413/413 416/416/416 87/87/87
f 96/96/96 93/93/93 422/422/422
f 422/422/422 424/424/424 96/96/96
f 102/102/102 100/100/100 427/427/427
f 427/427/427 432/432/432 102/102/102
f 121/121/121 117/117/117 446/446/446
f 446/446/446 447/447/447 121/121/121
f 129/129/129 122/122/122 451/451/451
f 451/451/451 458/458/458 129/129/129
f 136/136/136 134/134/134 463/463/463
f 463/463/463 466/466/466 136/136/136
f 155/155/155 149/149/149 477/477/477
f 477/477/477 481/481/481 155/155/155
f 161/161/161 157/157/157 485/485/485
f 485/485/485 487/487/487 161/161/161
f 169/169/169 162/162/162 492/492/492
f 492/492/492 494/494/494 169/169/169
f 179/179/179 175/175/175 503/503/503
f 503/503/503 507/507/507 179/179/179
f 199/199/199 196/196/196 528/528/528
f 528/528/528 529/529/529 199/199/199
f 327/327/327 324/324/324 655/655/655
f 655/655/655 660/660/660 327/327/327
f 208/208/208 204/204/204 532/532/532
f 532/532/532 537/537/537 208/208/208
f 231/231/231 227/227/227 557/557/557
f 557/557/557 559/559/559 231/231/231
f 236/236/236 235/235/235 564/564/564
f 564/564/564 569/569/569 236/236/236
f 268/268/268 263/263/263 595/595/595
f 595/595/595 599/599/599 268/268/268
f 242/242/242 239/239/239 572/572/572
f 572/572/572 575/575/575 242/242/242
f 248/248/248 246/246/246 578/578/578
f 578/578/578 580/580/580 248/248/248
f 258/258/258 253/253/253 587/587/587
f 587/587/587 588/588/588 258/258/258
f 184/184/184 181/181/181 508/508/508
f 508/508/508 513/513/513 184/184/184
f 269/269/269 266/266/266 598/598/598
f 598/598/598 601/601/601 269/269/269
f 279/279/279 274/274/274 605/605/605
f 605/605/605 609/609/609 279/279/279
f 287/287/287 283/283/283 612/612/612
f 612/612/612 618/618/618 287/287/287
f 301/301/301 297/297/297 629/629/629
f 629/629/629 633/633/633 301/301/301
f 308/308/308 305/305/305 636/636/636
f 636/636/636 641/641/641 308/308/308
f 317/317/317 312/312/312 644/644/644
f 644/644/644 647/647/647 317/317/317
f 2/2/2 326/326/326 659/659/659
f 659/659/659 329/329/329 2/2/2
f 193/193/193 190/190/190 519/519/519
f 519/519/519 522/522/522 193/193/193
f 90/90/90 89/89/89 417/417/417
f 417/417/417 421/421/421 90/90/90
f 276/276/276 270/270/270 603/603/603
f 603/603/603 607/607/607 276/276/276
f 217/217/217 211/211/211 540/540/540
f 540/540/540 546/546/546 217/217/217
f 289/289/289 288/288/288 617/617/617
f 617/617/617 619/619/619 289/289/289
f 225/225/225 220/220/220 548/548/548
f 548/548/548 550/550/550 225/225/225
f 81/81/81 80/80/80 407/407/407
f 407/407/407 409/409/409 81/81/81
f 13/13/13 11/11/11 335/335/335
f 335/335/335 344/344/344 13/13/13
f 29/29/29 27/27/27 356/356/356
f 356/356/356 361/361/361 29/29/29
f 38/38/38 36/36/36 364/364/364
f 364/364/364 366/366/366 38/38/38
f 57/57/57 52/52/52 379/379/379
f 379/379/379 383/383/383 57/57/57
f 64/64/64 62/62/62 386/386/386
f 386/386/386 392/392/392 64/64/64
f 79/79/79 77/77/77 402/402/402
f 402/402/402 406/406/406 79/79/79
f 85/85/85 82/82/82 411/411/411
f 411/411/411 414/414/414 85/85/85
f 99/99/99 94/94/94 423/423/423
f 423/423/423 428/428/428 99/99/99
f 109/109/109 105/105/105 430/430/430
f 430/430/430 436/436/436 109/109/109
f 118/118/118 110/110/110 438/438/438
f 438/438/438 444/444/444 118/118/118
f 124/124/124 120/120/120 449/449/449
f 449/449/449 454/454/454 124/124/124
f 130/130/130 127/127/127 457/457/457
f 457/457/457 462/462/462 130/130/130
f 140/140/140 135/135/135 467/467/467
f 467/467/467 470/470/470 140/140/140
f 150/150/150 147/147/147 473/473/473
f 473/473/473 475/475/475 150/150/150
f 323/323/323 316/316/316 648/648/648
f 648/648/648 654/654/654 323/323/323
f 158/158/158 152/152/152 480/480/480
f 480/480/480 484/484/484 158/158/158
f 183/183/183 178/178/178 506/506/506
f 506/506/506 511/511/511 183/183/183
f 22/22/22 18/18/18 345/345/345
f 345/345/345 352/352/352 22/22/22
f 189/189/189 186/186/186 516/516/516
f 516/516/516 518/518/518 189/189/189
f 197/197/197 191/191/191 520/520/520
f 520/520/520 526/526/526 197/197/197
f 202/202/202 200/200/200 531/531/531
f 531/531/531 534/534/534 202/202/202
f 210/210/210 206/206/206 539/539/539
f 539/539/539 541/541/541 210/210/210
f 219/219/219 214/214/214 543/543/543
f 543/543/543 549/549/549 219/219/219
f 228/228/228 222/222/222 553/553/553
f 553/553/553 556/556/556 228/228/228
f 245/245/245 244/244/244 574/574/574
f 574/574/574 577/577/577 245/245/245
f 251/251/251 250/250/250 581/581/581
f 581/581/581 586/586/586 251/251/251
f 259/259/259 257/257/257 591/591/591
f 591/591/591 592/592/592 259/259/259
f 281/281/281 278/278/278 610/610/610
f 610/610/610 614/614/614 281/281/281
f 299/299/299 296/296/296 624/624/624
f 624/624/624 630/630/630 299/299/299
f 303/303/303 302/302/302 631/631/631
f 631/631/631 638/638/638 303/303/303
f 313/313/313 310/310/310 640/640/640
f 640/640/640 646/646/646 313/313/313
f 112/112/112 107/107/107 435/435/435
f 435/435/435 439/439/439 112/112/112
f 264/264/264 260/260/260 593/593/593
f 593/593/593 596/596/596 264/264/264
f 164/164/164 159/159/159 486/486/486
f 486/486/486 490/490/490 164/164/164
f 45/45/45 41/41/41 369/369/369
f 369/369/369 372/372/372 45/45/45
f 174/174/174 168/168/168 495/495/495
f 495/495/495 504/504/504 174/174/174
f 144/144/144 139/139/139 468/468/468
f 468/468/468 472/472/472 144/144/144
f 74/74/74 70/70/70 395/395/395
f 395/395/395 400/400/400 74/74/74
f 294/294/294 292/292/292 623/623/623
f 623/623/623 627/627/627 294/294/294
f 234/234/234 232/232/232 561/561/561
f 561/561/561 565/565/565 234/234/234

