mtllib material.mtl
usemtl Material-7011油漆.025
v 0.03340800 0.08479500 -0.01862700
v 0.03653800 0.07702900 -0.01146300
v 0.03344900 0.08082700 -0.01855300
v 0.03336500 0.08887800 -0.01870300
v 0.03619900 0.09292900 -0.01237300
v 0.03774100 0.09275500 -0.00670500
v 0.03799000 0.07704700 -0.00495300
v 0.03004500 0.07683200 -0.02367200
v 0.02520100 0.07683200 -0.02877400
v 0.03379200 0.07683200 -0.01792100
v 0.01310600 0.07683200 -0.03593500
v 0.01287000 0.08492000 -0.03602000
v 0.01945700 0.07683200 -0.03293100
v -0.00005600 0.07683200 -0.03825000
v 0.00017900 0.08510600 -0.03824900
v 0.00649000 0.07683200 -0.03769500
v 0.02499200 0.09293200 -0.02895600
v 0.00675800 0.09293200 -0.03765100
v 0.01932100 0.09293200 -0.03301100
v 0.03363100 0.09293200 -0.01822200
v 0.02983400 0.09293200 -0.02393700
v 0.01311700 0.09293200 -0.03593000
v 0.00059400 0.09270800 -0.03827400
v -0.00005600 0.07683200 -0.03825000
v -0.00576800 0.07683200 -0.03781300
v -0.00573100 0.08488200 -0.03756500
v -0.00842300 0.09442600 -0.03689700
v 0.00059400 0.09270800 -0.03827400
v 0.00017900 0.08510600 -0.03824900
v -0.01157500 0.08510600 -0.03645600
v -0.00842300 0.09442600 -0.03689700
v -0.01135200 0.07683200 -0.03652700
v -0.00576800 0.07683200 -0.03781300
v -0.01188800 0.09273800 -0.03636500
v -0.00573100 0.08488200 -0.03756500
v -0.03824100 0.09290400 -0.00066200
v -0.03828900 0.07718100 0.00041200
v -0.03797900 0.09268100 0.00501100
v -0.02322400 0.07683200 -0.03039200
v -0.02323400 0.09293200 -0.03038500
v -0.01763100 0.09293200 -0.03394400
v -0.03263400 0.07683200 -0.01995100
v -0.03248900 0.09293200 -0.02018700
v -0.02839100 0.07683200 -0.02563200
v -0.02828500 0.09293200 -0.02574900
v -0.03759800 0.07683200 -0.00703000
v -0.03753300 0.09295000 -0.00737300
v -0.03573600 0.07683200 -0.01363700
v -0.01157500 0.08510600 -0.03645600
v -0.01135200 0.07683200 -0.03652700
v -0.01743500 0.07683200 -0.03404600
v -0.01188800 0.09273800 -0.03636500
v -0.03561400 0.09293200 -0.01395300
v -0.02451500 0.09618700 -0.03064600
v -0.01912900 0.09899100 -0.03527100
v -0.02419800 0.09455700 -0.03026600
v -0.04017100 0.09938100 -0.00196800
v -0.03848800 0.09618200 -0.00769400
v -0.03753300 0.09295000 -0.00737300
v -0.01188800 0.09273800 -0.03636500
v -0.01763100 0.09293200 -0.03394400
v -0.02323400 0.09293200 -0.03038500
v -0.02828500 0.09293200 -0.02574900
v -0.03248900 0.09293200 -0.02018700
v -0.03561400 0.09293200 -0.01395300
v -0.02618900 0.09943200 -0.03056500
v -0.03180700 0.09943200 -0.02466600
v -0.03612200 0.09943200 -0.01775600
v -0.03895700 0.09943200 -0.01011800
v -0.03824100 0.09290400 -0.00066200
v -0.03797900 0.09268100 0.00501100
v -0.03979000 0.09943200 0.00607000
v -0.03799200 0.07358200 -0.00985900
v -0.03775300 0.07702800 0.00654900
v -0.03828900 0.07718100 0.00041200
v -0.03759800 0.07683200 -0.00703000
v -0.03573600 0.07683200 -0.01363700
v -0.03263400 0.07683200 -0.01995100
v -0.03979000 0.07033200 0.00607000
v -0.02839100 0.07683200 -0.02563200
v -0.02015100 0.07358200 -0.03368200
v -0.01743500 0.07683200 -0.03404600
v -0.02322400 0.07683200 -0.03039200
v -0.01135200 0.07683200 -0.03652700
v -0.00591900 0.07358200 -0.03880100
v -0.04024600 0.07033200 -0.00056200
v -0.03788000 0.06932500 -0.01420500
v -0.03990800 0.06921000 -0.00679300
v -0.03512800 0.07033200 -0.01964900
v -0.02684400 0.07033200 -0.02999100
v -0.03141500 0.07033200 -0.02516300
v -0.02148900 0.06917700 -0.03429400
v -0.01565200 0.07033200 -0.03708200
v -0.00933500 0.07033200 -0.03915300
v -0.00576800 0.07683200 -0.03781300
v 0.00985900 0.07358200 -0.03799200
v -0.00005600 0.07683200 -0.03825000
v 0.00649000 0.07683200 -0.03769500
v 0.01310600 0.07683200 -0.03593500
v 0.01945700 0.07683200 -0.03293100
v 0.00388400 0.07033200 -0.04006200
v 0.02356200 0.07358200 -0.03139100
v 0.02520100 0.07683200 -0.02877400
v 0.03379200 0.07683200 -0.01792100
v 0.03368200 0.07358200 -0.02015100
v 0.03004500 0.07683200 -0.02367200
v 0.03653800 0.07702900 -0.01146300
v 0.03799000 0.07704700 -0.00495300
v 0.01668100 0.07033200 -0.03663100
v 0.01130500 0.06899500 -0.03891200
v 0.02172700 0.06921600 -0.03414200
v 0.02767100 0.07033200 -0.02922900
v 0.03158800 0.06928600 -0.02533000
v 0.03586300 0.06921800 -0.01872100
v 0.03824800 0.07033200 -0.01253600
v 0.03979000 0.07033200 -0.00607000
v -0.00276300 0.07033200 -0.04015500
v 0.02767100 0.07033200 -0.02922900
v 0.03158800 0.06928600 -0.02533000
v 0.02574800 0.06836000 -0.03063800
v 0.01668100 0.07033200 -0.03663100
v 0.02172700 0.06921600 -0.03414200
v 0.02172700 0.06921600 -0.03414200
v 0.01130500 0.06899500 -0.03891200
v 0.03824800 0.07033200 -0.01253600
v 0.03979000 0.07033200 -0.00607000
v 0.03890600 0.06876700 -0.01071700
v 0.03586300 0.06921800 -0.01872100
v 0.00388400 0.07033200 -0.04006200
v 0.00299600 0.06839500 -0.03994000
v -0.00276300 0.07033200 -0.04015500
v -0.00586800 0.06879700 -0.03989700
v -0.00933500 0.07033200 -0.03915300
v -0.01312900 0.06839800 -0.03784800
v -0.01565200 0.07033200 -0.03708200
v -0.02148900 0.06917700 -0.03429400
v -0.03141500 0.07033200 -0.02516300
v -0.02744400 0.06886700 -0.02951000
v -0.03107700 0.06836500 -0.02522900
v -0.03512800 0.07033200 -0.01964900
v -0.03500000 0.06887200 -0.02000400
v -0.03788000 0.06932500 -0.01420500
v -0.02684400 0.07033200 -0.02999100
v -0.04024600 0.07033200 -0.00056200
v -0.03990800 0.06921000 -0.00679300
v -0.03999200 0.06842000 0.00203400
v -0.03979000 0.07033200 0.00607000
v -0.03879400 0.06903900 0.01170200
v 0.03420500 0.09618200 -0.01925000
v 0.03772900 0.09939400 -0.01395100
v 0.03619900 0.09292900 -0.01237300
v 0.00675800 0.09293200 -0.03765100
v 0.01379700 0.09618200 -0.03674500
v 0.01362100 0.09455700 -0.03627700
v 0.03774100 0.09275500 -0.00670500
v 0.03979000 0.09943200 -0.00607000
v 0.03377000 0.09455700 -0.01900400
v 0.03363100 0.09293200 -0.01822200
v 0.02983400 0.09293200 -0.02393700
v 0.02499200 0.09293200 -0.02895600
v 0.01932100 0.09293200 -0.03301100
v 0.01311700 0.09293200 -0.03593000
v 0.02918500 0.09943200 -0.02771800
v 0.03416900 0.09943200 -0.02127400
v 0.02300600 0.09943200 -0.03302700
v 0.01588400 0.09943200 -0.03698300
v 0.00811200 0.09943200 -0.03942400
v 0.00059400 0.09270800 -0.03827400
v 0.00811200 0.09943200 -0.03942400
v 0.00059400 0.09270800 -0.03827400
v 0.00059400 0.09270800 -0.03827400
v 0.00831300 0.10144500 -0.03945400
v 0.00831300 0.10144500 -0.03945400
v -0.01912900 0.09899100 -0.03527100
v -0.01912900 0.09899100 -0.03527100
v -0.00842300 0.09442600 -0.03689700
v -0.01188800 0.09273800 -0.03636500
v -0.02029000 0.10144500 -0.03506000
v 0.03158800 0.06928600 -0.02533000
v 0.03207700 0.06833100 -0.02356900
v 0.02574800 0.06836000 -0.03063800
v 0.02574800 0.06836000 -0.03063800
v 0.03586300 0.06921800 -0.01872100
v 0.02172700 0.06921600 -0.03414200
v 0.01796800 0.06833200 -0.03545700
v 0.01130500 0.06899500 -0.03891200
v 0.01230200 0.06833200 -0.03785200
v 0.00299600 0.06839500 -0.03994000
v 0.03890600 0.06876700 -0.01071700
v 0.03944400 0.06831700 -0.00637400
v 0.03621300 0.06833000 -0.01658000
v -0.00403900 0.06833100 -0.03960400
v -0.00586800 0.06879700 -0.03989700
v -0.01312900 0.06839800 -0.03784800
v -0.01312900 0.06839800 -0.03784800
v -0.02247500 0.06833300 -0.03295200
v -0.02744400 0.06886700 -0.02951000
v -0.02148900 0.06917700 -0.03429400
v -0.03107700 0.06836500 -0.02522900
v -0.03500000 0.06887200 -0.02000400
v -0.03545700 0.06833200 -0.01796800
v -0.03788000 0.06932500 -0.01420500
v -0.03784900 0.06833400 -0.01230900
v -0.03990800 0.06921000 -0.00679300
v -0.03959600 0.06833000 -0.00438700
v -0.03999200 0.06842000 0.00203400
v -0.00059200 0.09286400 0.03832000
v 0.00022400 0.09896300 0.04023000
v -0.00921000 0.09616700 0.03812600
v 0.00169500 0.09552700 0.03900700
v 0.00573400 0.09731900 0.03928600
v -0.00930900 0.09780700 0.03864500
v 0.01021100 0.09944200 0.03893200
v 0.01002000 0.09543500 0.03770600
v 0.01384700 0.09847700 0.03747900
v 0.01192400 0.09281000 0.03642900
v 0.02076200 0.09617000 0.03327400
v 0.02100200 0.09780700 0.03374900
v -0.03332400 0.09618200 0.02073800
v -0.03797900 0.09268100 0.00501100
v -0.03668400 0.09251000 0.01099300
v -0.03369000 0.09293200 0.01811100
v -0.02988500 0.09293200 0.02387400
v -0.02501700 0.09293200 0.02893500
v -0.01305500 0.09293200 0.03595300
v -0.01930600 0.09293200 0.03302000
v -0.00659700 0.09293200 0.03767700
v -0.02211400 0.09943200 0.03363100
v -0.03979000 0.09943200 0.00607000
v -0.03765800 0.09943200 0.01421000
v -0.03388100 0.09943200 0.02172900
v -0.00652300 0.09943200 0.03971800
v -0.02862300 0.09943200 0.02829800
v -0.01463800 0.09943200 0.03749400
v 0.01759700 0.09293600 0.03396500
v 0.02318100 0.09293200 0.03042600
v 0.02827400 0.09293200 0.02576200
v 0.03815900 0.09618200 0.00919200
v 0.03250600 0.09293200 0.02015900
v 0.03564400 0.09293200 0.01387700
v 0.03756400 0.09292900 0.00720900
v 0.03774100 0.09275500 -0.00670500
v 0.03829300 0.09250300 -0.00048800
v 0.03979000 0.09943200 -0.00607000
v 0.03113500 0.09943200 0.02550800
v 0.01806900 0.09943200 0.03596700
v 0.02515200 0.09943200 0.03142400
v 0.03881900 0.09943200 0.01063900
v 0.03575800 0.09943200 0.01847700
v 0.04018200 0.09943200 0.00233500
v -0.03210500 0.07033200 0.02427600
v -0.03545800 0.06939200 0.01952300
v -0.03115700 0.06883100 0.02558600
v -0.02767100 0.07033200 0.02922900
v -0.02576600 0.06835800 0.03061300
v -0.01668100 0.07033200 0.03663100
v -0.02211800 0.06924400 0.03393100
v -0.01125100 0.06900700 0.03893100
v -0.00344700 0.07042700 0.04009300
v -0.00299100 0.06839600 0.03994300
v 0.00279900 0.07034500 0.04015100
v 0.00586500 0.06879700 0.03989700
v 0.00933500 0.07033200 0.03915300
v 0.01319200 0.06839900 0.03783200
v 0.01517000 0.07043600 0.03727600
v 0.02179300 0.06924500 0.03414200
v 0.03141500 0.07033200 0.02516300
v 0.02705400 0.06927600 0.03011000
v 0.03107700 0.06836500 0.02522900
v 0.03540900 0.06937800 0.01963400
v 0.04047800 0.06926000 -0.00012200
v 0.03890600 0.06876700 -0.01071700
v 0.03979000 0.07033200 -0.00607000
v 0.01096700 0.07630100 0.03682300
v 0.01517000 0.07043600 0.03727600
v 0.01901200 0.07685800 0.03323900
v 0.00279900 0.07034500 0.04015100
v 0.00570600 0.07344500 0.03899600
v 0.00213200 0.07471500 0.03889200
v -0.00344700 0.07042700 0.04009300
v 0.00011100 0.07691700 0.03825600
v -0.00851500 0.07454000 0.03813900
v 0.03622600 0.07683200 0.01227700
v 0.03234100 0.07683200 0.02042400
v 0.03540900 0.06937800 0.01963400
v 0.02665500 0.07683200 0.02743300
v 0.03141500 0.07033200 0.02516300
v 0.02179300 0.06924500 0.03414200
v 0.04047800 0.06926000 -0.00012200
v 0.03979000 0.07033200 -0.00607000
v 0.03799000 0.07704700 -0.00495300
v 0.03820900 0.07665600 0.00196700
v 0.03986400 0.06930700 0.00729500
v 0.02705400 0.06927600 0.03011000
v 0.03787500 0.06931400 0.01428400
v 0.00933500 0.07033200 0.03915300
v -0.01053500 0.07683200 0.03677100
v -0.02041000 0.07683200 0.03235000
v -0.02865200 0.07683200 0.02534000
v -0.03460200 0.07683200 0.01630300
v -0.03210500 0.07033200 0.02427600
v -0.03775300 0.07702800 0.00654900
v -0.03699800 0.07379300 0.01301900
v -0.02767100 0.07033200 0.02922900
v -0.01125100 0.06900700 0.03893100
v -0.03879400 0.06903900 0.01170200
v -0.01668100 0.07033200 0.03663100
v -0.02211800 0.06924400 0.03393100
v -0.03545800 0.06939200 0.01952300
v -0.03979000 0.07033200 0.00607000
v 0.01120400 0.07790600 0.03820300
v 0.00704900 0.07442500 0.03879200
v 0.00992200 0.07489200 0.03862800
v 0.00570600 0.07344500 0.03899600
v 0.01214400 0.07846700 0.03830800
v 0.01216800 0.09189300 0.03830400
v 0.00212100 0.07556000 0.03968700
v -0.00021300 0.09101300 0.04018600
v -0.00021300 0.07941000 0.04019200
v 0.00072600 0.09434900 0.04002700
v 0.00062200 0.07688000 0.04009900
v 0.01029200 0.09540400 0.03854400
v 0.01029200 0.09540400 0.03854400
v 0.01049500 0.09337400 0.03777700
v 0.01136700 0.09157300 0.03842500
v 0.01136700 0.09157300 0.03842500
v 0.00573400 0.09731900 0.03928600
v 0.00118400 0.09310900 0.03920500
v 0.00341300 0.09552700 0.03945500
v 0.00695800 0.09606200 0.03865500
v 0.01049500 0.09337400 0.03777700
v 0.01120400 0.07790600 0.03820300
v 0.01136700 0.09157300 0.03842500
v 0.00065500 0.07852500 0.03968300
v 0.00118400 0.09310900 0.03920500
v 0.00072600 0.09434900 0.04002700
v 0.00126600 0.07741700 0.03916600
v 0.00118400 0.09310900 0.03920500
v 0.00065500 0.07852500 0.03968300
v 0.00728400 0.09523900 0.03825800
v 0.01049500 0.09337400 0.03777700
v 0.00695800 0.09606200 0.03865500
v 0.00700300 0.09517300 0.03878500
v 0.00323100 0.09535400 0.03898100
v 0.01033900 0.07668600 0.03791100
v 0.01029300 0.09179600 0.03828300
v 0.01032100 0.07945900 0.03828100
v 0.00871500 0.07599100 0.03801200
v 0.00704900 0.07442500 0.03879200
v 0.01033900 0.07668600 0.03791100
v 0.01029300 0.09179600 0.03828300
v 0.01029300 0.09179600 0.03828300
v 0.01029300 0.09179600 0.03828300
v 0.01049500 0.09337400 0.03777700
v 0.00700300 0.09517300 0.03878500
v 0.00700300 0.09517300 0.03878500
v 0.01032100 0.07945900 0.03828100
v 0.01032100 0.07945900 0.03828100
v 0.00156300 0.09116600 0.03961700
v 0.00156300 0.09116600 0.03961700
v 0.00156300 0.09116600 0.03961700
v 0.00323100 0.09535400 0.03898100
v 0.00118400 0.09310900 0.03920500
v 0.00731700 0.07544600 0.03874300
v 0.00871500 0.07599100 0.03801200
v 0.01033900 0.07668600 0.03791100
v 0.00155800 0.07942500 0.03961800
v 0.00126600 0.07741700 0.03916600
v 0.00357100 0.07497100 0.03902300
v -0.02029000 0.10144500 -0.03506000
v -0.02029000 0.10144500 -0.03506000
v -0.02029000 0.10144500 -0.03506000
v -0.03478300 0.10144600 -0.02041000
v -0.03478300 0.10144600 -0.02041000
v -0.04030400 0.10144500 -0.00258900
v -0.04030400 0.10144500 -0.00258900
v -0.03846400 0.10144500 -0.01185800
v -0.02901700 0.10144500 -0.02789400
v -0.03979000 0.10144500 0.00607000
v -0.03979000 0.10144500 0.00607000
v 0.03979000 0.10144500 -0.00607000
v 0.03979000 0.10144500 -0.00607000
v -0.03802100 0.10144500 0.01320900
v -0.02998200 0.10144500 0.02685400
v -0.03476200 0.10144500 0.02029000
v -0.01669300 0.10144500 0.03662500
v -0.02384300 0.10144500 0.03242800
v -0.00900300 0.10144500 0.03923000
v -0.00127200 0.10144500 0.04023000
v 0.02685400 0.10144500 0.02998200
v 0.00831300 0.10144500 -0.03945400
v 0.00831300 0.10144500 -0.03945400
v 0.00831300 0.10144500 -0.03945400
v 0.01938100 0.10144500 -0.03527700
v 0.01938100 0.10144500 -0.03527700
v 0.01320300 0.10117100 -0.03808900
v 0.02711500 0.10144700 -0.02985300
v 0.02711500 0.10144700 -0.02985300
v 0.02711500 0.10144700 -0.02985300
v 0.03769500 0.10144500 -0.01450100
v 0.03769500 0.10144500 -0.01450100
v 0.03769500 0.10144500 -0.01450100
v 0.03317800 0.10144500 -0.02278700
v 0.00607000 0.10144500 0.03979000
v 0.02029000 0.10144500 0.03476200
v 0.01320900 0.10144500 0.03802100
v 0.03923000 0.10144500 0.00900300
v 0.04023000 0.10144500 0.00127200
v 0.03242800 0.10144500 0.02384300
v 0.03662500 0.10144500 0.01669300
v 0.02300600 0.09943200 -0.03302700
v 0.01938100 0.10144500 -0.03527700
v 0.02711500 0.10144700 -0.02985300
v 0.03317800 0.10144500 -0.02278700
v 0.02918500 0.09943200 -0.02771800
v 0.03769500 0.10144500 -0.01450100
v 0.03979000 0.10144500 -0.00607000
v 0.03979000 0.09943200 -0.00607000
v 0.03416900 0.09943200 -0.02127400
v 0.04023000 0.10144500 0.00127200
v 0.03923000 0.10144500 0.00900300
v 0.04018200 0.09943200 0.00233500
v 0.03662500 0.10144500 0.01669300
v 0.03881900 0.09943200 0.01063900
v 0.03242800 0.10144500 0.02384300
v 0.02685400 0.10144500 0.02998200
v 0.03113500 0.09943200 0.02550800
v 0.02029000 0.10144500 0.03476200
v 0.02515200 0.09943200 0.03142400
v 0.03575800 0.09943200 0.01847700
v 0.01320900 0.10144500 0.03802100
v 0.01806900 0.09943200 0.03596700
v 0.01588400 0.09943200 -0.03698300
v 0.00811200 0.09943200 -0.03942400
v 0.01320300 0.10117100 -0.03808900
v 0.00831300 0.10144500 -0.03945400
v 0.03772900 0.09939400 -0.01395100
v 0.01021100 0.09944200 0.03893200
v 0.00607000 0.10144500 0.03979000
v -0.00127200 0.10144500 0.04023000
v 0.00022400 0.09896300 0.04023000
v -0.00900300 0.10144500 0.03923000
v -0.01669300 0.10144500 0.03662500
v -0.01463800 0.09943200 0.03749400
v -0.02384300 0.10144500 0.03242800
v -0.02211400 0.09943200 0.03363100
v -0.00652300 0.09943200 0.03971800
v -0.02998200 0.10144500 0.02685400
v -0.03476200 0.10144500 0.02029000
v -0.03388100 0.09943200 0.02172900
v -0.03802100 0.10144500 0.01320900
v -0.03765800 0.09943200 0.01421000
v -0.03979000 0.10144500 0.00607000
v -0.04030400 0.10144500 -0.00258900
v -0.03979000 0.09943200 0.00607000
v -0.02862300 0.09943200 0.02829800
v -0.03846400 0.10144500 -0.01185800
v -0.03478300 0.10144600 -0.02041000
v -0.03612200 0.09943200 -0.01775600
v -0.02901700 0.10144500 -0.02789400
v -0.03180700 0.09943200 -0.02466600
v -0.03895700 0.09943200 -0.01011800
v -0.04017100 0.09938100 -0.00196800
v -0.02618900 0.09943200 -0.03056500
v -0.02029000 0.10144500 -0.03506000
v -0.01912900 0.09899100 -0.03527100
v -0.03115700 0.06883100 0.02558600
v -0.03207700 0.06833100 0.02356900
v -0.02576600 0.06835800 0.03061300
v -0.03545800 0.06939200 0.01952300
v -0.02211800 0.06924400 0.03393100
v -0.01796800 0.06833200 0.03545700
v -0.01125100 0.06900700 0.03893100
v -0.01230200 0.06833200 0.03785200
v -0.00299100 0.06839600 0.03994300
v -0.03879400 0.06903900 0.01170200
v -0.03999200 0.06842000 0.00203400
v -0.03864800 0.06833400 0.00944500
v -0.03621300 0.06833000 0.01658000
v 0.00403900 0.06833100 0.03960400
v 0.00586500 0.06879700 0.03989700
v 0.01319200 0.06839900 0.03783200
v 0.01319200 0.06839900 0.03783200
v 0.02255000 0.06833300 0.03290100
v 0.02705400 0.06927600 0.03011000
v 0.02179300 0.06924500 0.03414200
v 0.03107700 0.06836500 0.02522900
v 0.03540900 0.06937800 0.01963400
v 0.03545700 0.06833200 0.01796800
v 0.03787500 0.06931400 0.01428400
v 0.03784900 0.06833400 0.01230900
v 0.03986400 0.06930700 0.00729500
v 0.03959600 0.06833000 0.00438700
v 0.04047800 0.06926000 -0.00012200
v 0.03944400 0.06831700 -0.00637400
v 0.03890600 0.06876700 -0.01071700
v 0.01002000 0.09543500 0.03770600
v 0.01029200 0.09540400 0.03854400
v 0.01192400 0.09281000 0.03642900
v 0.01216800 0.09189300 0.03830400
v 0.00573400 0.09731900 0.03928600
v 0.01192400 0.09281000 0.03642900
v 0.01216800 0.09189300 0.03830400
v 0.01208800 0.07971600 0.03629100
v 0.01214400 0.07846700 0.03830800
v 0.00992200 0.07489200 0.03862800
v 0.00570600 0.07344500 0.03899600
v 0.01096700 0.07630100 0.03682300
v 0.01208800 0.07971600 0.03629100
v 0.01214400 0.07846700 0.03830800
v 0.00213200 0.07471500 0.03889200
v 0.00062200 0.07688000 0.04009900
v 0.00011100 0.07691700 0.03825600
v -0.00067600 0.07911700 0.03829200
v -0.00021300 0.07941000 0.04019200
v 0.00212100 0.07556000 0.03968700
v 0.00570600 0.07344500 0.03899600
v -0.00021300 0.09101300 0.04018600
v -0.00059200 0.09286400 0.03832000
v -0.00021300 0.07941000 0.04019200
v -0.00067600 0.07911700 0.03829200
v 0.00573400 0.09731900 0.03928600
v 0.00169500 0.09552700 0.03900700
v 0.00072600 0.09434900 0.04002700
v -0.00059200 0.09286400 0.03832000
v -0.00021300 0.09101300 0.04018600
v 0.02331600 0.08488700 0.03032200
v 0.01696400 0.07956200 0.03430600
v 0.02324000 0.08086100 0.03038000
v 0.03754800 0.08086400 0.00729100
v 0.03820900 0.07665600 0.00196700
v 0.03756100 0.08489100 0.00722800
v 0.02339200 0.08891100 0.03026300
v 0.01759700 0.09293600 0.03396500
v 0.03799000 0.07704700 -0.00495300
v 0.03829300 0.09250300 -0.00048800
v 0.03756400 0.09292900 0.00720900
v 0.02665500 0.07683200 0.02743300
v 0.03234100 0.07683200 0.02042400
v 0.01901200 0.07685800 0.03323900
v 0.03622600 0.07683200 0.01227700
v 0.01208800 0.07971600 0.03629100
v 0.01096700 0.07630100 0.03682300
v 0.03564400 0.09293200 0.01387700
v 0.03250600 0.09293200 0.02015900
v 0.03774100 0.09275500 -0.00670500
v 0.01192400 0.09281000 0.03642900
v 0.02318100 0.09293200 0.03042600
v 0.02827400 0.09293200 0.02576200
v -0.02865200 0.07683200 0.02534000
v -0.02988500 0.09293200 0.02387400
v -0.03369000 0.09293200 0.01811100
v -0.01053500 0.07683200 0.03677100
v 0.00011100 0.07691700 0.03825600
v -0.00638400 0.08098900 0.03772400
v -0.03775300 0.07702800 0.00654900
v -0.03460200 0.07683200 0.01630300
v -0.03618800 0.08102800 0.01240900
v -0.00067600 0.07911700 0.03829200
v -0.02041000 0.07683200 0.03235000
v -0.02501700 0.09293200 0.02893500
v -0.01305500 0.09293200 0.03595300
v -0.03797900 0.09268100 0.00501100
v -0.03668400 0.09251000 0.01099300
v -0.01930600 0.09293200 0.03302000
v -0.00059200 0.09286400 0.03832000
v -0.00659700 0.09293200 0.03767700
v -0.03775300 0.07702800 0.00654900
v 0.00065500 0.07852500 0.03968300
v 0.00062200 0.07688000 0.04009900
v 0.00212100 0.07556000 0.03968700
v 0.00062200 0.07688000 0.04009900
v 0.00155800 0.07942500 0.03961800
v 0.00156300 0.09116600 0.03961700
v 0.00357100 0.07497100 0.03902300
v 0.00126600 0.07741700 0.03916600
v 0.00065500 0.07852500 0.03968300
v 0.01120400 0.07790600 0.03820300
v 0.01049500 0.09337400 0.03777700
v 0.00357100 0.07497100 0.03902300
v 0.00731700 0.07544600 0.03874300
vn 0.87340000 0.00000000 -0.48700000
vn 0.95410000 0.00010000 -0.29940000
vn 0.87450000 0.00000000 -0.48510000
vn 0.87230000 -0.00010000 -0.48900000
vn 0.94620000 -0.00010000 -0.32340000
vn 0.98460000 -0.00000000 -0.17500000
vn 0.99160000 0.00000000 -0.12930000
vn 0.78550000 0.00010000 -0.61890000
vn 0.65890000 0.00010000 -0.75230000
vn 0.88350000 0.00010000 -0.46850000
vn 0.34260000 -0.00000000 -0.93950000
vn 0.33650000 -0.00000000 -0.94170000
vn 0.50870000 0.00000000 -0.86100000
vn -0.00140000 0.00020000 -1.00000000
vn 0.00450000 -0.00000000 -1.00000000
vn 0.16970000 0.00000000 -0.98550000
vn 0.65340000 -0.00000000 -0.75700000
vn 0.17670000 -0.00000000 -0.98430000
vn 0.50510000 -0.00000000 -0.86300000
vn 0.87920000 -0.00010000 -0.47640000
vn 0.78000000 -0.00010000 -0.62580000
vn 0.34290000 0.00000000 -0.93940000
vn 0.01540000 -0.00020000 -0.99990000
vn -0.00150000 0.00020000 -1.00000000
vn -0.15070000 0.03100000 -0.98810000
vn -0.15070000 0.03100000 -0.98810000
vn -0.17360000 0.04390000 -0.98380000
vn -0.14860000 0.00350000 -0.98890000
vn -0.08020000 0.00240000 -0.99680000
vn -0.22070000 0.00240000 -0.97530000
vn -0.14100000 0.02650000 -0.98970000
vn -0.29680000 0.00020000 -0.95500000
vn -0.15070000 0.03110000 -0.98810000
vn -0.15260000 0.00370000 -0.98830000
vn -0.15070000 0.03100000 -0.98810000
vn -0.99980000 -0.00010000 -0.01730000
vn -0.99990000 0.00010000 0.01080000
vn -0.99140000 -0.00000000 0.13080000
vn -0.60720000 -0.00000000 -0.79460000
vn -0.60750000 -0.00000000 -0.79440000
vn -0.46100000 -0.00010000 -0.88740000
vn -0.85320000 -0.00010000 -0.52170000
vn -0.84940000 -0.00010000 -0.52780000
vn -0.74230000 -0.00010000 -0.67010000
vn -0.73960000 0.00010000 -0.67310000
vn -0.98300000 0.00010000 -0.18380000
vn -0.98120000 -0.00010000 -0.19280000
vn -0.93430000 0.00010000 -0.35660000
vn -0.30250000 -0.00000000 -0.95310000
vn -0.29680000 0.00020000 -0.95490000
vn -0.45580000 0.00010000 -0.89010000
vn -0.31070000 -0.00020000 -0.95050000
vn -0.93110000 -0.00010000 -0.36480000
vn -0.59690000 -0.29410000 -0.74640000
vn -0.45540000 -0.29410000 -0.84030000
vn -0.59690000 -0.29410000 -0.74650000
vn -0.95460000 -0.29420000 -0.04710000
vn -0.93720000 -0.29410000 -0.18740000
vn -0.93790000 -0.29420000 -0.18370000
vn -0.29810000 -0.29350000 -0.90830000
vn -0.44060000 -0.29410000 -0.84820000
vn -0.58060000 -0.29410000 -0.75930000
vn -0.70680000 -0.29410000 -0.64340000
vn -0.81180000 -0.29410000 -0.50440000
vn -0.88990000 -0.29410000 -0.34860000
vn -0.62190000 -0.29410000 -0.72580000
vn -0.75530000 -0.29410000 -0.58570000
vn -0.85770000 -0.29410000 -0.42160000
vn -0.92510000 -0.29410000 -0.24030000
vn -0.95570000 -0.29400000 -0.01670000
vn -0.94800000 -0.29330000 0.12370000
vn -0.94490000 -0.29410000 0.14410000
vn -0.92510000 0.29410000 -0.24010000
vn -0.94220000 0.29290000 0.16270000
vn -0.95600000 0.29320000 0.00960000
vn -0.93950000 0.29410000 -0.17570000
vn -0.89300000 0.29410000 -0.34080000
vn -0.81550000 0.29410000 -0.49850000
vn -0.94480000 0.29410000 0.14410000
vn -0.70940000 0.29410000 -0.64050000
vn -0.49070000 0.29410000 -0.82020000
vn -0.43570000 0.29410000 -0.85070000
vn -0.58030000 0.29410000 -0.75940000
vn -0.28370000 0.29410000 -0.91270000
vn -0.14410000 0.29410000 -0.94480000
vn -0.95570000 0.29410000 -0.01330000
vn -0.89480000 0.29380000 -0.33630000
vn -0.94240000 0.29380000 -0.15970000
vn -0.83410000 0.29410000 -0.46660000
vn -0.63750000 0.29410000 -0.71220000
vn -0.74600000 0.29410000 -0.59750000
vn -0.50770000 0.29400000 -0.80980000
vn -0.37170000 0.29410000 -0.88060000
vn -0.22170000 0.29410000 -0.92970000
vn -0.14410000 0.29410000 -0.94480000
vn 0.24010000 0.29400000 -0.92520000
vn -0.00140000 0.29410000 -0.95580000
vn 0.16220000 0.29410000 -0.94190000
vn 0.32750000 0.29410000 -0.89790000
vn 0.48620000 0.29410000 -0.82290000
vn 0.09220000 0.29410000 -0.95130000
vn 0.57380000 0.29410000 -0.76440000
vn 0.62970000 0.29410000 -0.71900000
vn 0.84440000 0.29410000 -0.44780000
vn 0.82020000 0.29400000 -0.49070000
vn 0.75070000 0.29410000 -0.59150000
vn 0.91200000 0.29370000 -0.28650000
vn 0.94800000 0.29290000 -0.12430000
vn 0.39610000 0.29410000 -0.86980000
vn 0.26680000 0.29400000 -0.91780000
vn 0.51270000 0.29390000 -0.80670000
vn 0.65710000 0.29410000 -0.69410000
vn 0.74530000 0.29350000 -0.59870000
vn 0.84760000 0.29390000 -0.44180000
vn 0.90820000 0.29410000 -0.29770000
vn 0.94490000 0.29410000 -0.14410000
vn -0.06560000 0.29410000 -0.95350000
vn 0.68750000 0.00000000 -0.72620000
vn 0.78020000 0.00000000 -0.62550000
vn 0.64350000 -0.00000000 -0.76550000
vn 0.41440000 0.00000000 -0.91010000
vn 0.53680000 0.00000000 -0.84370000
vn 0.53690000 -0.00000000 -0.84370000
vn 0.27920000 -0.00000000 -0.96020000
vn 0.95030000 -0.00000000 -0.31140000
vn 0.98860000 -0.00000000 -0.15080000
vn 0.96400000 0.00000000 -0.26580000
vn 0.88650000 -0.00000000 -0.46280000
vn 0.09650000 0.00000000 -0.99530000
vn 0.07440000 -0.00000000 -0.99720000
vn -0.06870000 0.00000000 -0.99760000
vn -0.14550000 -0.00000000 -0.98940000
vn -0.23190000 0.00000000 -0.97270000
vn -0.32780000 -0.00000000 -0.94470000
vn -0.38890000 -0.00000000 -0.92130000
vn -0.53100000 0.00000000 -0.84740000
vn -0.78050000 -0.00000000 -0.62520000
vn -0.68100000 -0.00000000 -0.73230000
vn -0.77640000 0.00000000 -0.63030000
vn -0.87270000 -0.00000000 -0.48820000
vn -0.86820000 0.00000000 -0.49620000
vn -0.93630000 -0.00000000 -0.35110000
vn -0.66690000 -0.00000000 -0.74510000
vn -0.99990000 0.00000000 -0.01400000
vn -0.98580000 0.00000000 -0.16780000
vn -0.99870000 -0.00000000 0.05050000
vn -0.98860000 -0.00000000 0.15080000
vn -0.95780000 0.00000000 0.28730000
vn 0.83290000 -0.29410000 -0.46870000
vn 0.89620000 -0.29420000 -0.33210000
vn 0.90430000 -0.29400000 -0.30960000
vn 0.16960000 -0.29410000 -0.94060000
vn 0.33600000 -0.29410000 -0.89480000
vn 0.33600000 -0.29410000 -0.89480000
vn 0.94110000 -0.29340000 -0.16820000
vn 0.94490000 -0.29410000 -0.14410000
vn 0.83290000 -0.29410000 -0.46880000
vn 0.84040000 -0.29410000 -0.45530000
vn 0.74550000 -0.29410000 -0.59810000
vn 0.62450000 -0.29410000 -0.72350000
vn 0.48280000 -0.29410000 -0.82490000
vn 0.32780000 -0.29410000 -0.89780000
vn 0.69300000 -0.29410000 -0.65820000
vn 0.81140000 -0.29410000 -0.50520000
vn 0.54630000 -0.29410000 -0.78430000
vn 0.37720000 -0.29410000 -0.87820000
vn 0.19260000 -0.29410000 -0.93620000
vn 0.01670000 -0.29330000 -0.95590000
vn -0.15080000 0.00000000 -0.98860000
vn -0.15080000 0.00000000 -0.98860000
vn -0.15080000 0.00010000 -0.98860000
vn -0.15080000 0.00000000 -0.98860000
vn -0.15080000 0.00010000 -0.98860000
vn -0.15080000 0.00000000 -0.98860000
vn -0.15080000 0.00010000 -0.98860000
vn -0.15080000 0.00000000 -0.98860000
vn -0.15080000 0.00000000 -0.98860000
vn -0.15080000 0.00000000 -0.98860000
vn 0.55200000 -0.70660000 -0.44280000
vn 0.57020000 -0.70660000 -0.41900000
vn 0.45590000 -0.70560000 -0.54250000
vn 0.45600000 -0.70560000 -0.54240000
vn 0.62730000 -0.70680000 -0.32710000
vn 0.37980000 -0.70660000 -0.59700000
vn 0.31960000 -0.70710000 -0.63070000
vn 0.19790000 -0.70520000 -0.68080000
vn 0.21860000 -0.70670000 -0.67290000
vn 0.05300000 -0.70600000 -0.70620000
vn 0.68250000 -0.70620000 -0.18820000
vn 0.69950000 -0.70570000 -0.11310000
vn 0.64330000 -0.70660000 -0.29470000
vn -0.07180000 -0.70660000 -0.70400000
vn -0.10290000 -0.70630000 -0.70040000
vn -0.23230000 -0.70600000 -0.66900000
vn -0.23220000 -0.70600000 -0.66910000
vn -0.39910000 -0.70570000 -0.58530000
vn -0.48180000 -0.70690000 -0.51790000
vn -0.37570000 -0.70670000 -0.59960000
vn -0.55020000 -0.70550000 -0.44670000
vn -0.61420000 -0.70680000 -0.35100000
vn -0.63080000 -0.70710000 -0.31960000
vn -0.66220000 -0.70700000 -0.24830000
vn -0.67280000 -0.70680000 -0.21870000
vn -0.69760000 -0.70660000 -0.11860000
vn -0.70360000 -0.70630000 -0.07790000
vn -0.70670000 -0.70660000 0.03590000
vn -0.01590000 -0.29370000 0.95580000
vn 0.00580000 -0.29330000 0.95600000
vn -0.22440000 -0.29430000 0.92900000
vn 0.04150000 -0.29410000 0.95490000
vn 0.13800000 -0.29350000 0.94600000
vn -0.22380000 -0.29410000 0.92920000
vn 0.24240000 -0.29410000 0.92450000
vn 0.24560000 -0.29410000 0.92370000
vn 0.33110000 -0.29410000 0.89660000
vn 0.29860000 -0.29360000 0.90810000
vn 0.50590000 -0.29430000 0.81080000
vn 0.50500000 -0.29410000 0.81150000
vn -0.81150000 -0.29410000 0.50500000
vn -0.94780000 -0.29290000 0.12580000
vn -0.91560000 -0.29300000 0.27520000
vn -0.84190000 -0.29410000 0.45260000
vn -0.74680000 -0.29410000 0.59650000
vn -0.62510000 -0.29410000 0.72300000
vn -0.32620000 -0.29410000 0.89840000
vn -0.48240000 -0.29410000 0.82510000
vn -0.16480000 -0.29410000 0.94150000
vn -0.52510000 -0.29410000 0.79860000
vn -0.94480000 -0.29410000 0.14410000
vn -0.89420000 -0.29410000 0.33740000
vn -0.80450000 -0.29410000 0.51600000
vn -0.15490000 -0.29410000 0.94310000
vn -0.67970000 -0.29410000 0.67200000
vn -0.34760000 -0.29410000 0.89030000
vn 0.43970000 -0.29410000 0.84870000
vn 0.57920000 -0.29410000 0.76030000
vn 0.70650000 -0.29410000 0.64370000
vn 0.92920000 -0.29410000 0.22380000
vn 0.81230000 -0.29410000 0.50370000
vn 0.89070000 -0.29410000 0.34680000
vn 0.93870000 -0.29410000 0.18010000
vn 0.94160000 -0.29280000 -0.16640000
vn 0.95600000 -0.29310000 -0.01140000
vn 0.94480000 -0.29410000 -0.14410000
vn 0.73940000 -0.29410000 0.60570000
vn 0.42910000 -0.29410000 0.85410000
vn 0.59720000 -0.29410000 0.74620000
vn 0.92180000 -0.29410000 0.25260000
vn 0.84910000 -0.29410000 0.43880000
vn 0.95420000 -0.29410000 0.05540000
vn -0.79760000 -0.00000000 0.60310000
vn -0.87600000 -0.00000000 0.48230000
vn -0.77280000 -0.00000000 0.63460000
vn -0.68750000 -0.00000000 0.72620000
vn -0.64410000 0.00000000 0.76490000
vn -0.41440000 -0.00000000 0.91010000
vn -0.54590000 0.00000000 0.83780000
vn -0.27770000 0.00000000 0.96070000
vn -0.08570000 0.00000000 0.99630000
vn -0.07420000 -0.00000000 0.99720000
vn 0.06950000 -0.00000000 0.99760000
vn 0.14540000 0.00000000 0.98940000
vn 0.23190000 0.00000000 0.97270000
vn 0.32940000 -0.00000000 0.94420000
vn 0.37700000 0.00000000 0.92620000
vn 0.53810000 -0.00000000 0.84290000
vn 0.78050000 -0.00000000 0.62520000
vn 0.66850000 -0.00000000 0.74380000
vn 0.77640000 -0.00000000 0.63030000
vn 0.87460000 0.00000000 0.48490000
vn 1.00000000 -0.00000000 -0.00320000
vn 0.96440000 0.00000000 -0.26440000
vn 0.98860000 -0.00000000 -0.15080000
vn 0.27280000 0.29370000 0.91610000
vn 0.36080000 0.29390000 0.88510000
vn 0.47380000 0.29370000 0.83020000
vn 0.06640000 0.29410000 0.95350000
vn 0.13850000 0.29380000 0.94580000
vn 0.05230000 0.29370000 0.95450000
vn -0.08230000 0.29400000 0.95230000
vn 0.00190000 0.29380000 0.95590000
vn -0.20850000 0.29330000 0.93300000
vn 0.90520000 0.29410000 0.30680000
vn 0.80810000 0.29410000 0.51030000
vn 0.83580000 0.29400000 0.46360000
vn 0.66600000 0.29410000 0.68550000
vn 0.74600000 0.29410000 0.59750000
vn 0.51300000 0.29410000 0.80640000
vn 0.95570000 0.29420000 -0.00280000
vn 0.94480000 0.29410000 -0.14410000
vn 0.94810000 0.29340000 -0.12220000
vn 0.95440000 0.29430000 0.05000000
vn 0.94030000 0.29390000 0.17170000
vn 0.63860000 0.29400000 0.71120000
vn 0.89430000 0.29400000 0.33740000
vn 0.22170000 0.29410000 0.92970000
vn -0.26320000 0.29410000 0.91880000
vn -0.51000000 0.29410000 0.80830000
vn -0.71590000 0.29410000 0.63320000
vn -0.86460000 0.29410000 0.40740000
vn -0.76240000 0.29410000 0.57650000
vn -0.94170000 0.29350000 0.16480000
vn -0.90160000 0.29380000 0.31730000
vn -0.65710000 0.29410000 0.69410000
vn -0.26570000 0.29420000 0.91800000
vn -0.91500000 0.29430000 0.27600000
vn -0.39610000 0.29410000 0.86980000
vn -0.52220000 0.29410000 0.80060000
vn -0.83700000 0.29350000 0.46190000
vn -0.94490000 0.29410000 0.14410000
vn 0.15080000 -0.00000000 0.98860000
vn 0.15080000 -0.00000000 0.98860000
vn 0.15080000 -0.00000000 0.98860000
vn 0.15080000 -0.00000000 0.98860000
vn 0.15080000 -0.00000000 0.98860000
vn 0.15080000 -0.00000000 0.98860000
vn 0.15080000 -0.00000000 0.98860000
vn 0.15080000 -0.00000000 0.98860000
vn 0.15080000 -0.00000000 0.98860000
vn 0.15080000 -0.00000000 0.98860000
vn 0.15080000 -0.00000000 0.98860000
vn 0.15080000 -0.00010000 0.98860000
vn 0.15080000 -0.00000000 0.98860000
vn 0.15080000 -0.00000000 0.98860000
vn 0.15080000 0.00010000 0.98860000
vn 0.15080000 -0.00000000 0.98860000
vn 0.15080000 -0.00000000 0.98860000
vn 0.15080000 -0.00000000 0.98860000
vn 0.15080000 -0.00000000 0.98860000
vn 0.15080000 -0.00000000 0.98860000
vn -0.98860000 -0.00000000 0.15080000
vn -0.98860000 -0.00000000 0.15080000
vn -0.98860000 -0.00000000 0.15080000
vn 0.98860000 -0.00000000 -0.15080000
vn 0.98860000 -0.00000000 -0.15080000
vn 0.98860000 -0.00000000 -0.15080000
vn -0.28970000 -0.00000000 0.95710000
vn -0.23740000 0.00000000 0.97140000
vn 0.98730000 -0.00000000 0.15890000
vn 0.24650000 0.31750000 0.91570000
vn -0.07520000 -0.04740000 0.99600000
vn -0.12850000 -0.91770000 0.37580000
vn 0.27570000 0.92870000 0.24810000
vn 0.29310000 0.35050000 0.88950000
vn 0.82140000 0.00000000 0.57040000
vn 0.98700000 -0.00000000 -0.16050000
vn 0.98820000 0.00000000 -0.15350000
vn 0.26000000 -0.11140000 0.95920000
vn -0.27430000 0.86510000 0.42000000
vn -0.60180000 0.52840000 0.59890000
vn 0.15080000 -0.00000000 0.98860000
vn 0.15110000 0.00010000 0.98850000
vn 0.15110000 0.00020000 0.98850000
vn 0.15080000 -0.00000000 0.98860000
vn 0.15110000 0.00010000 0.98850000
vn 0.15080000 -0.00000000 0.98860000
vn 0.15110000 0.00020000 0.98850000
vn 0.15080000 -0.00000000 0.98860000
vn 0.15080000 -0.00000000 0.98860000
vn 0.15110000 0.00010000 0.98850000
vn 0.15110000 0.00020000 0.98850000
vn 0.15080000 -0.00000000 0.98860000
vn 0.15080000 -0.00000000 0.98860000
vn 0.15080000 -0.00000000 0.98860000
vn 0.15080000 -0.00000000 0.98860000
vn 0.15080000 -0.00000000 0.98860000
vn 0.15080000 -0.00000000 0.98860000
vn 0.15080000 -0.00000000 0.98860000
vn 0.15080000 -0.00000000 0.98860000
vn -0.00010000 1.00000000 0.00000000
vn 0.00010000 1.00000000 0.00010000
vn -0.00000000 1.00000000 0.00000000
vn 0.00010000 1.00000000 0.00010000
vn -0.00010000 1.00000000 0.00000000
vn 0.00010000 1.00000000 0.00010000
vn -0.00010000 1.00000000 0.00000000
vn -0.00010000 1.00000000 0.00000000
vn 0.00010000 1.00000000 0.00010000
vn -0.00010000 1.00000000 0.00000000
vn -0.00000000 1.00000000 0.00000000
vn 0.00010000 1.00000000 -0.00010000
vn -0.00000000 1.00000000 0.00000000
vn -0.00000000 1.00000000 0.00000000
vn -0.00000000 1.00000000 0.00000000
vn -0.00000000 1.00000000 0.00000000
vn -0.00000000 1.00000000 0.00000000
vn -0.00000000 1.00000000 0.00000000
vn -0.00000000 1.00000000 0.00000000
vn -0.00000000 1.00000000 0.00000000
vn -0.00000000 1.00000000 0.00000000
vn -0.00000000 1.00000000 0.00010000
vn 0.00010000 1.00000000 -0.00010000
vn -0.00000000 1.00000000 0.00000000
vn -0.00000000 1.00000000 0.00000000
vn -0.00000000 1.00000000 0.00010000
vn -0.00000000 1.00000000 0.00000000
vn 0.00030000 1.00000000 -0.00010000
vn -0.00000000 1.00000000 0.00010000
vn -0.00000000 1.00000000 0.00000000
vn -0.00000000 1.00000000 0.00000000
vn 0.00030000 1.00000000 -0.00010000
vn 0.00010000 1.00000000 -0.00010000
vn 0.00030000 1.00000000 -0.00010000
vn -0.00000000 1.00000000 0.00000000
vn -0.00000000 1.00000000 0.00000000
vn -0.00000000 1.00000000 0.00000000
vn -0.00000000 1.00000000 0.00000000
vn -0.00000000 1.00000000 0.00000000
vn -0.00000000 1.00000000 0.00000000
vn -0.00000000 1.00000000 0.00000000
vn 0.57160000 -0.00000000 -0.82060000
vn 0.48150000 0.00000000 -0.87640000
vn 0.67240000 0.00000000 -0.74020000
vn 0.82430000 -0.00000000 -0.56610000
vn 0.72510000 0.00000000 -0.68860000
vn 0.93330000 0.00000000 -0.35900000
vn 0.98860000 -0.00000000 -0.15080000
vn 0.98860000 -0.00000000 -0.15080000
vn 0.84890000 0.00000000 -0.52850000
vn 0.99950000 0.00000000 0.03160000
vn 0.97470000 0.00000000 0.22370000
vn 0.99830000 0.00000000 0.05800000
vn 0.90990000 -0.00000000 0.41470000
vn 0.96440000 0.00000000 0.26430000
vn 0.80570000 -0.00000000 0.59240000
vn 0.66720000 0.00000000 0.74490000
vn 0.77360000 0.00000000 0.63370000
vn 0.50410000 -0.00000000 0.86360000
vn 0.62490000 -0.00000000 0.78070000
vn 0.88840000 -0.00000000 0.45910000
vn 0.32820000 0.00000000 0.94460000
vn 0.44890000 0.00000000 0.89360000
vn 0.39460000 -0.00000000 -0.91880000
vn 0.20150000 -0.00000000 -0.97950000
vn 0.32750000 -0.00000000 -0.94480000
vn 0.20620000 0.00000000 -0.97850000
vn 0.93790000 0.00000000 -0.34680000
vn 0.25370000 -0.00000000 0.96730000
vn 0.15080000 -0.00000000 0.98860000
vn -0.03160000 -0.00000000 0.99950000
vn 0.00590000 0.00000000 1.00000000
vn -0.22370000 -0.00000000 0.97470000
vn -0.41470000 0.00000000 0.90990000
vn -0.36370000 -0.00000000 0.93150000
vn -0.59240000 -0.00000000 0.80560000
vn -0.54940000 -0.00000000 0.83560000
vn -0.16210000 -0.00000000 0.98680000
vn -0.74490000 -0.00000000 0.66720000
vn -0.86360000 0.00000000 0.50410000
vn -0.84180000 0.00000000 0.53990000
vn -0.94460000 -0.00000000 0.32820000
vn -0.93560000 -0.00000000 0.35300000
vn -0.98860000 -0.00000000 0.15080000
vn -0.99790000 -0.00000000 -0.06410000
vn -0.98860000 -0.00000000 0.15080000
vn -0.71110000 -0.00000000 0.70310000
vn -0.95560000 0.00000000 -0.29460000
vn -0.86250000 -0.00000000 -0.50610000
vn -0.89740000 -0.00000000 -0.44110000
vn -0.72090000 0.00000000 -0.69300000
vn -0.79020000 0.00000000 -0.61280000
vn -0.96790000 0.00000000 -0.25140000
vn -0.99880000 0.00000000 -0.04900000
vn -0.65070000 -0.00000000 -0.75940000
vn -0.50110000 -0.00000000 -0.86540000
vn -0.47700000 -0.00000000 -0.87890000
vn -0.54690000 -0.70660000 0.44910000
vn -0.57020000 -0.70660000 0.41900000
vn -0.45630000 -0.70560000 0.54210000
vn -0.61930000 -0.70730000 0.34080000
vn -0.38640000 -0.70650000 0.59300000
vn -0.31960000 -0.70710000 0.63080000
vn -0.19690000 -0.70530000 0.68100000
vn -0.21850000 -0.70670000 0.67290000
vn -0.05290000 -0.70600000 0.70620000
vn -0.67790000 -0.70620000 0.20450000
vn -0.70900000 -0.70430000 0.03580000
vn -0.68720000 -0.70680000 0.16790000
vn -0.64330000 -0.70660000 0.29470000
vn 0.07180000 -0.70660000 0.70400000
vn 0.10280000 -0.70630000 0.70040000
vn 0.23340000 -0.70590000 0.66870000
vn 0.23340000 -0.70600000 0.66870000
vn 0.40050000 -0.70570000 0.58450000
vn 0.47300000 -0.70690000 0.52590000
vn 0.38070000 -0.70660000 0.59640000
vn 0.55020000 -0.70550000 0.44670000
vn 0.61890000 -0.70650000 0.34320000
vn 0.63070000 -0.70710000 0.31960000
vn 0.66180000 -0.70690000 0.24950000
vn 0.67280000 -0.70680000 0.21870000
vn 0.69600000 -0.70670000 0.12710000
vn 0.70360000 -0.70630000 0.07790000
vn 0.70700000 -0.70720000 -0.00250000
vn 0.70020000 -0.70500000 -0.11240000
vn 0.68640000 -0.70260000 -0.18780000
vn 0.65110000 0.75790000 -0.04180000
vn 0.66990000 0.74120000 -0.04300000
vn 0.94090000 0.33330000 -0.06040000
vn 0.97820000 0.19810000 -0.06280000
vn -0.03280000 0.99950000 0.00210000
vn 0.99790000 -0.00000000 -0.06410000
vn 0.99790000 -0.00000000 -0.06410000
vn 0.99790000 -0.00000000 -0.06410000
vn 0.99790000 -0.00000000 -0.06410000
vn 0.61330000 -0.78880000 -0.03940000
vn -0.03290000 -0.99950000 0.00210000
vn 0.80290000 -0.59390000 -0.05150000
vn 0.99660000 -0.05110000 -0.06400000
vn 0.96880000 -0.23990000 -0.06220000
vn -0.55240000 -0.82270000 0.13440000
vn -0.84410000 -0.49520000 0.20540000
vn -0.84780000 -0.48850000 0.20630000
vn -0.96240000 -0.13790000 0.23410000
vn -0.96770000 -0.09060000 0.23540000
vn -0.63170000 -0.75980000 0.15370000
vn -0.03470000 -0.99940000 0.00850000
vn -0.97170000 -0.00000000 0.23640000
vn -0.97170000 -0.00000000 0.23640000
vn -0.97170000 -0.00000000 0.23640000
vn -0.97170000 -0.00000000 0.23640000
vn -0.03780000 0.99920000 0.00920000
vn -0.62600000 0.76480000 0.15230000
vn -0.79330000 0.57750000 0.19300000
vn -0.91340000 0.34100000 0.22220000
vn -0.97000000 0.05840000 0.23600000
vn 0.60950000 -0.00000000 0.79270000
vn 0.44330000 0.00010000 0.89640000
vn 0.60760000 0.00010000 0.79430000
vn 0.98170000 0.00000000 0.19060000
vn 0.99870000 0.00010000 0.05140000
vn 0.98200000 -0.00000000 0.18900000
vn 0.61160000 -0.00010000 0.79120000
vn 0.46000000 -0.00010000 0.88790000
vn 0.99160000 0.00000000 -0.12920000
vn 0.99990000 -0.00000000 -0.01280000
vn 0.98210000 -0.00010000 0.18850000
vn 0.69690000 0.00010000 0.71720000
vn 0.84550000 0.00010000 0.53400000
vn 0.49660000 0.00010000 0.86800000
vn 0.94710000 0.00010000 0.32100000
vn 0.31600000 0.00010000 0.94880000
vn 0.28500000 0.00020000 0.95850000
vn 0.93190000 -0.00010000 0.36280000
vn 0.84980000 -0.00010000 0.52700000
vn 0.98460000 -0.00000000 -0.17500000
vn 0.31110000 -0.00010000 0.95040000
vn 0.60600000 -0.00010000 0.79550000
vn 0.73920000 -0.00010000 0.67350000
vn -0.74910000 0.00010000 0.66250000
vn -0.78130000 -0.00010000 0.62420000
vn -0.88080000 -0.00010000 0.47350000
vn -0.27540000 0.00010000 0.96130000
vn 0.00290000 0.00010000 1.00000000
vn -0.16680000 0.00010000 0.98600000
vn -0.98530000 0.00000000 0.17090000
vn -0.90460000 0.00010000 0.42620000
vn -0.94590000 0.00000000 0.32440000
vn -0.01770000 0.00010000 0.99980000
vn -0.53360000 0.00010000 0.84570000
vn -0.65400000 -0.00010000 0.75650000
vn -0.34130000 -0.00010000 0.94000000
vn -0.99140000 -0.00000000 0.13080000
vn -0.95790000 -0.00000000 0.28710000
vn -0.50470000 -0.00010000 0.86330000
vn -0.01560000 -0.00010000 0.99990000
vn -0.17250000 -0.00010000 0.98500000
vn -0.98530000 0.00000000 0.17090000
vn 0.95750000 0.24870000 -0.14610000
vn 0.84900000 0.51220000 -0.12950000
vn 0.64990000 0.75350000 -0.09920000
vn 0.98860000 -0.00000000 -0.15080000
vn -0.98880000 0.00000000 0.14920000
vn -0.98900000 0.00000000 0.14820000
vn 0.46600000 0.80550000 0.36600000
vn 0.51940000 0.10400000 0.84820000
vn 0.96020000 0.26940000 -0.07380000
vn -0.70060000 -0.00000000 0.71360000
vn 0.55060000 0.00000000 0.83480000
vn 0.08220000 -0.99560000 0.04420000
vn 0.35360000 -0.89830000 0.26070000
vt 0.14128600 0.33995600
vt 0.11062900 0.30791200
vt 0.12559400 0.33995600
vt 0.15754500 0.33995600
vt 0.17379200 0.31076000
vt 0.17311100 0.28535000
vt 0.11076900 0.27821500
vt 0.10990200 0.36505900
vt 0.10990200 0.39275700
vt 0.10990200 0.33736100
vt 0.10990200 0.44815200
vt 0.14128600 0.44919100
vt 0.10990200 0.42045400
vt 0.10990200 0.50354800
vt 0.14185300 0.50354800
vt 0.10990200 0.47585000
vt 0.17380400 0.39275700
vt 0.17380500 0.47564100
vt 0.17380400 0.42045400
vt 0.17380400 0.33736100
vt 0.17380400 0.36505900
vt 0.17380400 0.44815200
vt 0.17289000 0.50269000
vt 0.10990200 0.50354800
vt 0.10990200 0.52899400
vt 0.14185300 0.52899400
vt 0.18003000 0.54069100
vt 0.17288700 0.50271500
vt 0.14185300 0.50354800
vt 0.14185300 0.55444000
vt 0.17975800 0.54027600
vt 0.10990200 0.55444000
vt 0.10990200 0.52899400
vt 0.17301400 0.55489000
vt 0.14185300 0.52899400
vt 0.17362700 0.74874600
vt 0.11126500 0.75210700
vt 0.17282300 0.77338900
vt 0.10990200 0.60983600
vt 0.17380400 0.60983600
vt 0.17380400 0.58213800
vt 0.10990200 0.66523200
vt 0.17380400 0.66523200
vt 0.10990200 0.63753400
vt 0.17380400 0.63753400
vt 0.10990200 0.72062800
vt 0.17387600 0.72060000
vt 0.10990200 0.69293000
vt 0.14185300 0.55444000
vt 0.10990200 0.55444000
vt 0.10990200 0.58213800
vt 0.17301400 0.55491200
vt 0.17380400 0.69293000
vt 0.44590400 0.07199300
vt 0.41735400 0.08205200
vt 0.44588000 0.06614600
vt 0.58179200 0.08344500
vt 0.55804500 0.07197200
vt 0.55866600 0.06038300
vt 0.38852000 0.05962200
vt 0.41452800 0.06032000
vt 0.44240700 0.06032000
vt 0.47120700 0.06032000
vt 0.50049400 0.06032000
vt 0.52979000 0.06032000
vt 0.45133200 0.08362500
vt 0.48386500 0.08362500
vt 0.51639800 0.08362500
vt 0.54893000 0.08362500
vt 0.58690400 0.06022000
vt 0.61055900 0.05944700
vt 0.61399600 0.08362500
vt 0.45696200 0.51534900
vt 0.38222400 0.50297000
vt 0.41055000 0.50245100
vt 0.44483400 0.50369600
vt 0.47639600 0.50369600
vt 0.50874500 0.50369600
vt 0.38578300 0.52700100
vt 0.54134800 0.50369600
vt 0.59356000 0.51534900
vt 0.60512900 0.50369600
vt 0.57365200 0.50369600
vt 0.63533200 0.50369600
vt 0.66166300 0.51534900
vt 0.41482300 0.52700100
vt 0.47551200 0.53043100
vt 0.44185600 0.53084700
vt 0.50194300 0.52700100
vt 0.56002300 0.52700100
vt 0.53098300 0.52700100
vt 0.58990300 0.53099700
vt 0.61810300 0.52700100
vt 0.64714300 0.52700100
vt 0.66166300 0.50369600
vt 0.73284300 0.51534900
vt 0.68799500 0.50369600
vt 0.71819800 0.50369600
vt 0.74967500 0.50369600
vt 0.78197800 0.50369600
vt 0.70522300 0.52700100
vt 0.80133800 0.51534900
vt 0.81458200 0.50369600
vt 0.87849200 0.50369600
vt 0.86944100 0.51534900
vt 0.84693000 0.50369600
vt 0.91069900 0.50299800
vt 0.94133100 0.50289500
vt 0.76330300 0.52700100
vt 0.73795500 0.53164300
vt 0.78769200 0.53084500
vt 0.82138400 0.52700100
vt 0.84525000 0.53055700
vt 0.87972600 0.53081700
vt 0.90850400 0.52700100
vt 0.93754400 0.52700100
vt 0.67618300 0.52700100
vt 0.46630300 0.06552800
vt 0.44443200 0.06192600
vt 0.47572300 0.05880600
vt 0.51910300 0.06552800
vt 0.49684500 0.06168900
vt 0.49684500 0.06168900
vt 0.54220800 0.06090200
vt 0.38710200 0.06552800
vt 0.36070200 0.06552800
vt 0.37946100 0.06018000
vt 0.41333900 0.06170400
vt 0.57190300 0.06552800
vt 0.57541900 0.05887500
vt 0.59830300 0.06552800
vt 0.61064800 0.06025600
vt 0.62470300 0.06552800
vt 0.64065100 0.05889000
vt 0.65110300 0.06552800
vt 0.67670500 0.06155500
vt 0.73030300 0.06552800
vt 0.70693900 0.06051000
vt 0.72925300 0.05884500
vt 0.75670300 0.06552800
vt 0.75523500 0.06052900
vt 0.78085600 0.06206600
vt 0.70390300 0.06552800
vt 0.83590300 0.06552800
vt 0.81121500 0.06166800
vt 0.84624700 0.05895900
vt 0.86230300 0.06552800
vt 0.88495500 0.06105800
vt 0.67195400 0.07197200
vt 0.64664400 0.08349300
vt 0.64263500 0.06030800
vt 0.81312900 0.06031600
vt 0.78411800 0.07197200
vt 0.78411800 0.06614600
vt 0.61805200 0.05974000
vt 0.61399600 0.08362500
vt 0.67195400 0.06614600
vt 0.66937900 0.06032000
vt 0.69820200 0.06032000
vt 0.72749700 0.06032000
vt 0.75678400 0.06032000
vt 0.78558400 0.06032000
vt 0.71159400 0.08362500
vt 0.67906100 0.08362500
vt 0.74412600 0.08362500
vt 0.77665900 0.08362500
vt 0.80919100 0.08362500
vt 0.83899200 0.05951000
vt 0.05450900 0.05032400
vt 0.08467600 0.07336600
vt 0.08467600 0.07336600
vt 0.05370100 0.04342500
vt 0.05370100 0.04342500
vt 0.16381800 0.05183700
vt 0.16381800 0.05183700
vt 0.12086200 0.06747700
vt 0.13476600 0.07326200
vt 0.16849600 0.04342400
vt 0.19259200 0.05590100
vt 0.18595200 0.06142600
vt 0.22347700 0.06103400
vt 0.22347700 0.06103400
vt 0.16181100 0.05610100
vt 0.24436200 0.05608700
vt 0.25975800 0.06141600
vt 0.28911700 0.05720100
vt 0.28419500 0.06139200
vt 0.32192500 0.06060400
vt 0.12843600 0.05817000
vt 0.11122900 0.06135000
vt 0.15376200 0.06136800
vt 0.34974300 0.06142100
vt 0.35670200 0.05817900
vt 0.38640200 0.06055100
vt 0.38640200 0.06055100
vt 0.42810100 0.06146300
vt 0.45186000 0.05778700
vt 0.42198700 0.05619100
vt 0.47390900 0.06100400
vt 0.49954100 0.05775800
vt 0.50744100 0.06141600
vt 0.52483700 0.05559900
vt 0.53184500 0.06136900
vt 0.55486400 0.05605600
vt 0.56400300 0.06143700
vt 0.58939000 0.06030000
vt 0.63219100 0.50351000
vt 0.63618000 0.52531600
vt 0.59342600 0.51529400
vt 0.64269400 0.51300100
vt 0.66051800 0.51945700
vt 0.59356000 0.52117500
vt 0.68011500 0.52703800
vt 0.68071000 0.51267000
vt 0.69720800 0.52358000
vt 0.69081800 0.50331500
vt 0.73307600 0.51530600
vt 0.73284300 0.52117500
vt 0.45696200 0.51534900
vt 0.38225000 0.50278300
vt 0.41041400 0.50219600
vt 0.44582700 0.50369600
vt 0.47757800 0.50369600
vt 0.50986500 0.50369600
vt 0.57390400 0.50369600
vt 0.54215300 0.50369600
vt 0.60463300 0.50369600
vt 0.53291900 0.52700100
vt 0.38578300 0.52700100
vt 0.42256700 0.52700100
vt 0.45935100 0.52700100
vt 0.60648700 0.52700100
vt 0.49613500 0.52700100
vt 0.56970300 0.52700100
vt 0.71902800 0.50371100
vt 0.74942300 0.50369600
vt 0.78117400 0.50369600
vt 0.86944100 0.51534900
vt 0.81346100 0.50369600
vt 0.84574900 0.50369600
vt 0.87765600 0.50368500
vt 0.94180000 0.50301900
vt 0.91310800 0.50216400
vt 0.93754400 0.52700100
vt 0.79040700 0.52700100
vt 0.71683900 0.52700100
vt 0.75362300 0.52700100
vt 0.86397600 0.52700100
vt 0.82719200 0.52700100
vt 0.90076000 0.52700100
vt 0.43990300 0.06552800
vt 0.41688400 0.06229900
vt 0.44630600 0.06038400
vt 0.46630300 0.06552800
vt 0.47559300 0.05878400
vt 0.51910300 0.06552800
vt 0.49509100 0.06178100
vt 0.54243300 0.06095000
vt 0.57363400 0.06585400
vt 0.57543900 0.05887600
vt 0.59844500 0.06557500
vt 0.61063800 0.06025800
vt 0.62470300 0.06552800
vt 0.64091000 0.05889200
vt 0.64904700 0.06588200
vt 0.67805800 0.06174000
vt 0.73030300 0.06552800
vt 0.70422000 0.06189400
vt 0.72925300 0.05884500
vt 0.75730900 0.06224100
vt 0.83859600 0.06184300
vt 0.88102400 0.06012700
vt 0.86230300 0.06552800
vt 0.63742800 0.50554400
vt 0.62026600 0.52662900
vt 0.59716400 0.50360200
vt 0.67604000 0.52695300
vt 0.66271700 0.51591000
vt 0.67863200 0.51128700
vt 0.70340300 0.52666000
vt 0.68789000 0.50339000
vt 0.72686300 0.51191300
vt 0.46976000 0.50369600
vt 0.51129900 0.50369600
vt 0.50131500 0.53035800
vt 0.55283900 0.50369600
vt 0.53098300 0.52700100
vt 0.58874800 0.53083100
vt 0.41184600 0.53076700
vt 0.38578300 0.52700100
vt 0.38983700 0.50297300
vt 0.42158300 0.50433800
vt 0.44409600 0.53060400
vt 0.55974100 0.53068000
vt 0.47573600 0.53055800
vt 0.64714300 0.52700100
vt 0.73725600 0.50369600
vt 0.78710400 0.50369600
vt 0.83695100 0.50369600
vt 0.88679800 0.50369600
vt 0.85042400 0.52700100
vt 0.93372700 0.50305300
vt 0.90470200 0.51459000
vt 0.82138400 0.52700100
vt 0.73774600 0.53164300
vt 0.91268800 0.53155100
vt 0.76330300 0.52700100
vt 0.78974200 0.53080900
vt 0.87554100 0.53017300
vt 0.93754400 0.52700100
vt 0.01658400 0.03980900
vt 0.00285300 0.05418500
vt 0.00463500 0.04434700
vt -0.00084000 0.05883100
vt 0.01880200 0.03664900
vt 0.07206300 0.03656300
vt 0.00731100 0.07128400
vt 0.06857400 0.07947900
vt 0.02254700 0.07948000
vt 0.08180500 0.07621100
vt 0.01251100 0.07661100
vt 0.08596400 0.04304600
vt 0.08596400 0.04304600
vt 0.07769400 0.04237900
vt 0.07079200 0.03934000
vt 0.07079200 0.03934000
vt 0.09356000 0.05888800
vt 0.07643900 0.07393100
vt 0.08647700 0.06679200
vt 0.08831200 0.05446000
vt 0.05674500 0.06031800
vt 0.11810800 0.05795700
vt 0.06390300 0.05696100
vt 0.06181600 0.05831500
vt 0.11966300 0.05976300
vt 0.12458300 0.05715200
vt 0.11241200 0.06223600
vt 0.11228800 0.05719800
vt 0.11043700 0.06188100
vt 0.11682400 0.08174700
vt 0.11443400 0.06795000
vt 0.11142500 0.08386700
vt 0.12055000 0.08306100
vt 0.11769300 0.09726900
vt 0.11275700 0.05693100
vt 0.11388500 0.06178300
vt 0.11386500 0.05782100
vt 0.11630300 0.06977300
vt 0.11121200 0.06126800
vt 0.11231500 0.07574800
vt 0.12059800 0.02968900
vt 0.12059800 0.02968900
vt 0.12059800 0.02968900
vt 0.11437600 0.02876400
vt 0.10719500 0.04109300
vt 0.10719500 0.04109300
vt 0.16953700 0.02959500
vt 0.16953700 0.02959500
vt 0.12309900 0.05995400
vt 0.12309900 0.05995400
vt 0.12309900 0.05995400
vt 0.10642400 0.05410700
vt 0.11556300 0.06082100
vt 0.18545900 0.04000300
vt 0.18358300 0.03447400
vt 0.17998500 0.02998300
vt 0.16967200 0.05997000
vt 0.17775300 0.06096000
vt 0.18737300 0.05301000
vt 0.10670200 0.05809400
vt 0.10670200 0.05809400
vt 0.10670200 0.05809400
vt 0.04110400 0.10023400
vt 0.04110400 0.10023400
vt 0.00879600 0.15775200
vt 0.00879600 0.15775200
vt 0.02155700 0.12730200
vt 0.06819200 0.07786200
vt 0.00563100 0.18735200
vt 0.00563100 0.18735200
vt 0.32496000 0.18735200
vt 0.32496000 0.18735200
vt 0.00829700 0.21245000
vt 0.03165700 0.26282800
vt 0.01684200 0.23812300
vt 0.07792600 0.30279800
vt 0.05239600 0.28488300
vt 0.10652400 0.31559700
vt 0.13624300 0.32297900
vt 0.25266600 0.30279800
vt 0.22149700 0.05799000
vt 0.22149700 0.05799000
vt 0.22149700 0.05799000
vt 0.26240000 0.07786200
vt 0.26240000 0.07786200
vt 0.23985700 0.06514000
vt 0.28948700 0.10023300
vt 0.28948700 0.10023300
vt 0.28948700 0.10023300
vt 0.32179100 0.15770900
vt 0.32179100 0.15770900
vt 0.32179100 0.15770900
vt 0.30903500 0.12730200
vt 0.16529600 0.32528100
vt 0.22406700 0.31559700
vt 0.19434900 0.32297900
vt 0.31375000 0.23812300
vt 0.32229500 0.21245000
vt 0.27819600 0.28488300
vt 0.29893400 0.26282800
vt 0.17556000 0.06488900
vt 0.15887200 0.05798900
vt 0.19564100 0.05796800
vt 0.23151200 0.05798900
vt 0.20704400 0.06488900
vt 0.26843000 0.05800100
vt 0.30415100 0.05798900
vt 0.30415100 0.06488900
vt 0.23852200 0.06488900
vt 0.33550100 0.05798900
vt 0.36685100 0.05798900
vt 0.33987500 0.06488900
vt 0.39820100 0.05798900
vt 0.37344100 0.06488900
vt 0.42955100 0.05798900
vt 0.46090100 0.05798900
vt 0.43747900 0.06488900
vt 0.49225100 0.05798900
vt 0.46940800 0.06488900
vt 0.40572500 0.06488900
vt 0.52360100 0.05798900
vt 0.50223300 0.06488900
vt 0.14341300 0.06488900
vt 0.10990200 0.06488900
vt 0.13174300 0.05899100
vt 0.11076300 0.05800600
vt 0.27064600 0.06502000
vt 0.53669200 0.06485500
vt 0.55495100 0.05798900
vt 0.58630100 0.05798900
vt 0.58010100 0.06648800
vt 0.61765100 0.05798900
vt 0.64900100 0.05798900
vt 0.64049400 0.06488900
vt 0.68035100 0.05798900
vt 0.67242400 0.06488900
vt 0.60766900 0.06488900
vt 0.71170100 0.05798900
vt 0.74305100 0.05798900
vt 0.73646100 0.06488900
vt 0.77440100 0.05798900
vt 0.77002800 0.06488900
vt 0.80575100 0.05798900
vt 0.84142100 0.05800000
vt 0.80575100 0.06488900
vt 0.70417800 0.06488900
vt 0.87839100 0.05798900
vt 0.91426000 0.05797000
vt 0.90285800 0.06488900
vt 0.95103000 0.05798900
vt 0.93434200 0.06488900
vt 0.87138000 0.06488900
vt 0.83885900 0.06506800
vt 0.96648900 0.06488900
vt 0.99662300 0.05794900
vt 1.00143300 0.06642900
vt 0.19443300 0.05798500
vt 0.18595200 0.06142600
vt 0.22335900 0.06104900
vt 0.16534300 0.05518200
vt 0.24262600 0.05588000
vt 0.25975800 0.06141600
vt 0.28933800 0.05715100
vt 0.28419500 0.06139200
vt 0.32194500 0.06059200
vt 0.13222100 0.05676800
vt 0.09390900 0.06122000
vt 0.12382700 0.06138700
vt 0.15376200 0.06136800
vt 0.34974300 0.06142100
vt 0.35669200 0.05817700
vt 0.38665900 0.06053700
vt 0.38665900 0.06053700
vt 0.42845500 0.06145500
vt 0.44917600 0.05585100
vt 0.42330400 0.05587800
vt 0.47390900 0.06100400
vt 0.50158500 0.05558900
vt 0.50744100 0.06141600
vt 0.52455500 0.05560400
vt 0.53184500 0.06136900
vt 0.55291900 0.05552400
vt 0.56400300 0.06143700
vt 0.58193000 0.05567000
vt 0.60660300 0.06168200
vt 0.62372300 0.05949400
vt 0.12577700 0.08909200
vt 0.12566800 0.09197500
vt 0.12370300 0.08515900
vt 0.12314400 0.09163500
vt 0.12881200 0.09340700
vt 0.10124500 -0.00740600
vt 0.10871900 -0.00426500
vt 0.10072100 0.03746300
vt 0.10873100 0.04174500
vt 0.11876300 0.09180000
vt 0.11593900 0.09212900
vt 0.11987000 0.08582400
vt 0.12218600 0.08428300
vt 0.12142000 0.09124600
vt 0.12618900 0.08879600
vt 0.12442300 0.09161500
vt 0.12438700 0.08506400
vt 0.12290600 0.08454400
vt 0.12272300 0.09124700
vt 0.12578000 0.09168000
vt 0.12848400 0.09247700
vt 0.11111600 -0.00125100
vt 0.11866300 -0.00759300
vt 0.11109400 0.03851100
vt 0.11885200 0.03951700
vt 0.11623100 0.09338800
vt 0.11890800 0.08924900
vt 0.11993600 0.09186000
vt 0.12099500 0.08504200
vt 0.12213300 0.09158000
vt 0.14185300 0.11524600
vt 0.12072900 0.08461000
vt 0.12587800 0.11524600
vt 0.12587800 0.22589900
vt 0.10917100 0.24838500
vt 0.14185300 0.22589900
vt 0.15782900 0.11524600
vt 0.17381900 0.08619900
vt 0.11075200 0.27819800
vt 0.17208700 0.25777600
vt 0.17378500 0.22546000
vt 0.10990200 0.13380900
vt 0.10990200 0.16959200
vt 0.11001100 0.09461200
vt 0.10990200 0.20536300
vt 0.12135200 0.06164900
vt 0.10783000 0.05653200
vt 0.17380400 0.19742700
vt 0.17380400 0.16953900
vt 0.17309100 0.28525600
vt 0.17331600 0.05935700
vt 0.17380400 0.11376400
vt 0.17380400 0.14165100
vt 0.10990200 0.86699700
vt 0.17380400 0.86056200
vt 0.17380400 0.83267500
vt 0.10990200 0.95349900
vt 0.11024300 0.99969700
vt 0.12639100 0.97174300
vt 0.11068600 0.77956200
vt 0.10990200 0.82333100
vt 0.12652500 0.80603400
vt 0.11897100 0.99638800
vt 0.10990200 0.90980100
vt 0.17380400 0.88845000
vt 0.17380400 0.94422500
vt 0.17279000 0.77345400
vt 0.17210600 0.80039400
vt 0.17380400 0.91633700
vt 0.17353200 0.99829700
vt 0.17380400 0.97211200
vt 0.11068700 0.77951900
vt 0.09847400 0.05987700
vt 0.09960400 0.06504300
vt 0.10090300 0.05850500
vt 0.05528700 0.05684400
vt 0.11386700 0.06159100
vt 0.11386500 0.05782100
vt 0.11188000 0.07966000
vt 0.11423500 0.06777900
vt 0.11026600 0.06303900
vt 0.11080300 0.05732200
vt 0.11237900 0.06228900
vt 0.12206500 0.04872200
vt 0.12033700 0.06366100
f 1/1/1 2/2/2 3/3/3
f 4/4/4 2/2/2 1/1/1
f 6/6/6 7/7/7 2/2/2
f 8/8/8 9/9/9 3/3/3
f 3/3/3 10/10/10 8/8/8
f 11/11/11 12/12/12 13/13/13
f 14/14/14 15/15/15 16/16/16
f 11/11/11 16/16/16 12/12/12
f 9/9/9 13/13/13 12/12/12
f 10/10/10 3/3/3 2/2/2
f 9/9/9 1/1/1 3/3/3
f 1/1/1 9/9/9 12/12/12
f 17/17/17 4/4/4 1/1/1
f 2/2/2 4/4/4 5/5/5
f 16/16/16 15/15/15 12/12/12
f 12/12/12 15/15/15 18/18/18
f 12/12/12 19/19/19 17/17/17
f 20/20/20 4/4/4 21/21/21
f 4/4/4 17/17/17 21/21/21
f 22/22/22 12/12/12 18/18/18
f 18/18/18 15/15/15 23/23/23
f 19/19/19 12/12/12 22/22/22
f 4/4/4 20/20/20 5/5/5
f 26/26/26 29/29/29 24/24/24
f 29/29/29 26/26/26 28/28/28
f 31/31/31 33/33/33 30/30/30
f 31/31/31 30/30/30 34/34/34
f 35/35/35 33/33/33 31/31/31
f 37/37/37 568/568/568 38/38/38
f 41/41/41 51/51/51 39/39/39
f 43/43/43 45/45/45 44/44/44
f 45/45/45 40/40/40 39/39/39
f 46/46/46 37/37/37 36/36/36
f 47/47/47 53/53/53 48/48/48
f 49/49/49 50/50/50 51/51/51
f 41/41/41 52/52/52 49/49/49
f 53/53/53 43/43/43 42/42/42
f 54/54/54 55/55/55 56/56/56
f 59/59/59 70/70/70 58/58/58
f 60/60/60 61/61/61 55/55/55
f 62/62/62 56/56/56 61/61/61
f 56/56/56 63/63/63 64/64/64
f 54/54/54 56/56/56 64/64/64
f 64/64/64 65/65/65 58/58/58
f 54/54/54 64/64/64 58/58/58
f 62/62/62 63/63/63 56/56/56
f 55/55/55 54/54/54 66/66/66
f 67/67/67 66/66/66 54/54/54
f 68/68/68 67/67/67 54/54/54
f 68/68/68 54/54/54 58/58/58
f 69/69/69 68/68/68 58/58/58
f 65/65/65 59/59/59 58/58/58
f 71/71/71 72/72/72 70/70/70
f 73/73/73 74/74/74 75/75/75
f 73/73/73 76/76/76 77/77/77
f 78/78/78 73/73/73 77/77/77
f 75/75/75 76/76/76 73/73/73
f 79/79/79 74/74/74 73/73/73
f 73/73/73 78/78/78 80/80/80
f 81/81/81 73/73/73 80/80/80
f 82/82/82 81/81/81 83/83/83
f 84/84/84 81/81/81 82/82/82
f 83/83/83 81/81/81 80/80/80
f 84/84/84 85/85/85 81/81/81
f 86/86/86 79/79/79 73/73/73
f 87/87/87 88/88/88 73/73/73
f 89/89/89 87/87/87 73/73/73
f 86/86/86 73/73/73 88/88/88
f 90/90/90 91/91/91 81/81/81
f 73/73/73 91/91/91 89/89/89
f 92/92/92 90/90/90 81/81/81
f 81/81/81 93/93/93 92/92/92
f 93/93/93 85/85/85 94/94/94
f 81/81/81 85/85/85 93/93/93
f 73/73/73 81/81/81 91/91/91
f 95/95/95 85/85/85 84/84/84
f 96/96/96 97/97/97 98/98/98
f 85/85/85 97/97/97 96/96/96
f 99/99/99 96/96/96 98/98/98
f 100/100/100 96/96/96 99/99/99
f 85/85/85 96/96/96 101/101/101
f 95/95/95 97/97/97 85/85/85
f 102/102/102 96/96/96 100/100/100
f 103/103/103 102/102/102 100/100/100
f 104/104/104 105/105/105 106/106/106
f 107/107/107 105/105/105 104/104/104
f 106/106/106 102/102/102 103/103/103
f 108/108/108 105/105/105 107/107/107
f 96/96/96 102/102/102 109/109/109
f 101/101/101 96/96/96 110/110/110
f 109/109/109 110/110/110 96/96/96
f 111/111/111 102/102/102 112/112/112
f 113/113/113 112/112/112 105/105/105
f 102/102/102 105/105/105 112/112/112
f 114/114/114 113/113/113 105/105/105
f 105/105/105 115/115/115 114/114/114
f 105/105/105 116/116/116 115/115/115
f 116/116/116 105/105/105 108/108/108
f 105/105/105 102/102/102 106/106/106
f 94/94/94 85/85/85 117/117/117
f 118/118/118 119/119/119 120/120/120
f 121/121/121 122/122/122 124/124/124
f 125/125/125 126/126/126 127/127/127
f 128/128/128 125/125/125 127/127/127
f 118/118/118 120/120/120 123/123/123
f 129/129/129 124/124/124 130/130/130
f 130/130/130 131/131/131 129/129/129
f 130/130/130 132/132/132 131/131/131
f 133/133/133 132/132/132 134/134/134
f 135/135/135 134/134/134 136/136/136
f 137/137/137 138/138/138 139/139/139
f 140/140/140 141/141/141 142/142/142
f 137/137/137 139/139/139 141/141/141
f 143/143/143 136/136/136 138/138/138
f 135/135/135 133/133/133 134/134/134
f 137/137/137 143/143/143 138/138/138
f 137/137/137 141/141/141 140/140/140
f 144/144/144 145/145/145 146/146/146
f 146/146/146 147/147/147 144/144/144
f 146/146/146 148/148/148 147/147/147
f 131/131/131 132/132/132 133/133/133
f 151/151/151 157/157/157 149/149/149
f 152/152/152 167/167/167 153/153/153
f 150/150/150 156/156/156 151/151/151
f 157/157/157 158/158/158 159/159/159
f 157/157/157 160/160/160 149/149/149
f 159/159/159 160/160/160 157/157/157
f 161/161/161 154/154/154 160/160/160
f 152/152/152 154/154/154 162/162/162
f 161/161/161 162/162/162 154/154/154
f 154/154/154 153/153/153 160/160/160
f 163/163/163 164/164/164 149/149/149
f 149/149/149 165/165/165 163/163/163
f 165/165/165 153/153/153 166/166/166
f 153/153/153 165/165/165 149/149/149
f 168/168/168 167/167/167 152/152/152
f 160/160/160 153/153/153 149/149/149
f 158/158/158 157/157/157 151/151/151
f 169/169/169 170/170/170 172/172/172
f 174/174/174 170/170/170 176/176/176
f 175/175/175 173/173/173 171/171/171
f 176/176/176 177/177/177 174/174/174
f 178/178/178 172/172/172 174/174/174
f 179/179/179 180/180/180 181/181/181
f 180/180/180 179/179/179 183/183/183
f 184/184/184 182/182/182 185/185/185
f 184/184/184 185/185/185 186/186/186
f 186/186/186 187/187/187 188/188/188
f 189/189/189 190/190/190 191/191/191
f 192/192/192 193/193/193 188/188/188
f 194/194/194 193/193/193 192/192/192
f 196/196/196 197/197/197 198/198/198
f 197/197/197 196/196/196 199/199/199
f 200/200/200 199/199/199 201/201/201
f 200/200/200 201/201/201 202/202/202
f 203/203/203 204/204/204 202/202/202
f 205/205/205 206/206/206 204/204/204
f 204/204/204 203/203/203 205/205/205
f 208/208/208 212/212/212 207/207/207
f 208/208/208 210/210/210 211/211/211
f 213/213/213 214/214/214 215/215/215
f 214/214/214 213/213/213 211/211/211
f 216/216/216 215/215/215 214/214/214
f 215/215/215 216/216/216 217/217/217
f 217/217/217 218/218/218 215/215/215
f 219/219/219 220/220/220 221/221/221
f 219/219/219 222/222/222 223/223/223
f 219/219/219 223/223/223 224/224/224
f 219/219/219 221/221/221 222/222/222
f 209/209/209 219/219/219 224/224/224
f 225/225/225 209/209/209 226/226/226
f 225/225/225 227/227/227 209/209/209
f 227/227/227 207/207/207 209/209/209
f 219/219/219 209/209/209 228/228/228
f 229/229/229 220/220/220 219/219/219
f 210/210/210 208/208/208 207/207/207
f 230/230/230 229/229/229 219/219/219
f 230/230/230 219/219/219 231/231/231
f 209/209/209 212/212/212 228/228/228
f 208/208/208 232/232/232 212/212/212
f 233/233/233 231/231/231 219/219/219
f 212/212/212 232/232/232 234/234/234
f 234/234/234 228/228/228 212/212/212
f 217/217/217 235/235/235 236/236/236
f 217/217/217 236/236/236 237/237/237
f 238/238/238 239/239/239 240/240/240
f 238/238/238 240/240/240 241/241/241
f 217/217/217 237/237/237 239/239/239
f 242/242/242 238/238/238 243/243/243
f 238/238/238 217/217/217 239/239/239
f 244/244/244 238/238/238 242/242/242
f 238/238/238 241/241/241 243/243/243
f 235/235/235 217/217/217 216/216/216
f 217/217/217 238/238/238 245/245/245
f 246/246/246 215/215/215 218/218/218
f 247/247/247 246/246/246 218/218/218
f 213/213/213 215/215/215 246/246/246
f 218/218/218 245/245/245 247/247/247
f 217/217/217 245/245/245 218/218/218
f 248/248/248 249/249/249 238/238/238
f 250/250/250 248/248/248 238/238/238
f 244/244/244 250/250/250 238/238/238
f 208/208/208 211/211/211 213/213/213
f 251/251/251 252/252/252 253/253/253
f 254/254/254 253/253/253 255/255/255
f 256/256/256 257/257/257 258/258/258
f 254/254/254 251/251/251 253/253/253
f 254/254/254 255/255/255 257/257/257
f 259/259/259 258/258/258 260/260/260
f 260/260/260 261/261/261 259/259/259
f 260/260/260 262/262/262 261/261/261
f 263/263/263 262/262/262 264/264/264
f 265/265/265 264/264/264 266/266/266
f 267/267/267 268/268/268 269/269/269
f 267/267/267 269/269/269 270/270/270
f 265/265/265 263/263/263 264/264/264
f 271/271/271 272/272/272 273/273/273
f 261/261/261 262/262/262 263/263/263
f 274/274/274 275/275/275 276/276/276
f 277/277/277 278/278/278 279/279/279
f 280/280/280 279/279/279 281/281/281
f 282/282/282 280/280/280 281/281/281
f 285/285/285 295/295/295 283/283/283
f 284/284/284 286/286/286 287/287/287
f 288/288/288 294/294/294 286/286/286
f 291/291/291 292/292/292 289/289/289
f 293/293/293 289/289/289 292/292/292
f 283/283/283 293/293/293 292/292/292
f 295/295/295 293/293/293 283/283/283
f 285/285/285 284/284/284 287/287/287
f 275/275/275 274/274/274 296/296/296
f 274/274/274 278/278/278 296/296/296
f 282/282/282 281/281/281 297/297/297
f 297/297/297 298/298/298 282/282/282
f 299/299/299 300/300/300 301/301/301
f 300/300/300 302/302/302 303/303/303
f 298/298/298 299/299/299 304/304/304
f 279/279/279 280/280/280 277/277/277
f 296/296/296 278/278/278 277/277/277
f 305/305/305 280/280/280 282/282/282
f 300/300/300 303/303/303 301/301/301
f 302/302/302 310/310/310 303/303/303
f 282/282/282 307/307/307 305/305/305
f 308/308/308 307/307/307 298/298/298
f 307/307/307 282/282/282 298/298/298
f 303/303/303 309/309/309 301/301/301
f 306/306/306 309/309/309 303/303/303
f 304/304/304 299/299/299 301/301/301
f 311/311/311 312/312/312 313/313/313
f 314/314/314 313/313/313 312/312/312
f 311/311/311 315/315/315 316/316/316
f 311/311/311 313/313/313 315/315/315
f 317/317/317 314/314/314 312/312/312
f 318/318/318 319/319/319 320/320/320
f 319/319/319 321/321/321 320/320/320
f 322/322/322 324/324/324 325/325/325
f 323/323/323 326/326/326 316/316/316
f 324/324/324 323/323/323 327/327/327
f 320/320/320 328/328/328 329/329/329
f 327/327/327 329/329/329 330/330/330
f 327/327/327 330/330/330 324/324/324
f 320/320/320 329/329/329 327/327/327
f 331/331/331 332/332/332 333/333/333
f 334/334/334 335/335/335 336/336/336
f 337/337/337 338/338/338 339/339/339
f 340/340/340 341/341/341 342/342/342
f 343/343/343 340/340/340 344/344/344
f 340/340/340 342/342/342 344/344/344
f 345/345/345 346/346/346 347/347/347
f 348/348/348 349/349/349 350/350/350
f 351/351/351 354/354/354 356/356/356
f 355/355/355 360/360/360 352/352/352
f 359/359/359 362/362/362 363/363/363
f 359/359/359 356/356/356 362/362/362
f 358/358/358 364/364/364 365/365/365
f 366/366/366 358/358/358 365/365/365
f 359/359/359 367/367/367 358/358/358
f 367/367/367 368/368/368 369/369/369
f 364/364/364 367/367/367 369/369/369
f 371/371/371 373/373/373 375/375/375
f 374/374/374 377/377/377 376/376/376
f 373/373/373 371/371/371 378/378/378
f 380/380/380 407/407/407 372/372/372
f 380/380/380 383/383/383 384/384/384
f 383/383/383 385/385/385 384/384/384
f 379/379/379 370/370/370 376/376/376
f 386/386/386 384/384/384 387/387/387
f 388/388/388 389/389/389 386/386/386
f 380/380/380 384/384/384 386/386/386
f 386/386/386 389/389/389 380/380/380
f 389/389/389 390/390/390 380/380/380
f 393/393/393 394/394/394 396/396/396
f 398/398/398 395/395/395 391/391/391
f 399/399/399 393/393/393 400/400/400
f 403/403/403 397/397/397 401/401/401
f 381/381/381 402/402/402 392/392/392
f 404/404/404 405/405/405 390/390/390
f 405/405/405 404/404/404 406/406/406
f 390/390/390 389/389/389 404/404/404
f 407/407/407 408/408/408 382/382/382
f 409/409/409 410/410/410 390/390/390
f 410/410/410 407/407/407 390/390/390
f 390/390/390 407/407/407 380/380/380
f 393/393/393 372/372/372 382/382/382
f 411/411/411 412/412/412 413/413/413
f 413/413/413 414/414/414 415/415/415
f 418/418/418 437/437/437 417/417/417
f 416/416/416 419/419/419 414/414/414
f 420/420/420 421/421/421 422/422/422
f 421/421/421 423/423/423 424/424/424
f 425/425/425 426/426/426 427/427/427
f 426/426/426 428/428/428 429/429/429
f 423/423/423 425/425/425 430/430/430
f 417/417/417 420/420/420 418/418/418
f 428/428/428 431/431/431 432/432/432
f 433/433/433 434/434/434 435/435/435
f 436/436/436 435/435/435 434/434/434
f 433/433/433 435/435/435 411/411/411
f 412/412/412 411/411/411 435/435/435
f 437/437/437 419/419/419 416/416/416
f 438/438/438 431/431/431 439/439/439
f 440/440/440 441/441/441 439/439/439
f 442/442/442 443/443/443 444/444/444
f 443/443/443 445/445/445 446/446/446
f 440/440/440 442/442/442 447/447/447
f 448/448/448 449/449/449 450/450/450
f 449/449/449 451/451/451 452/452/452
f 454/454/454 463/463/463 453/453/453
f 451/451/451 453/453/453 455/455/455
f 445/445/445 448/448/448 456/456/456
f 457/457/457 458/458/458 459/459/459
f 460/460/460 461/461/461 458/458/458
f 462/462/462 454/454/454 457/457/457
f 462/462/462 463/463/463 454/454/454
f 461/461/461 460/460/460 464/464/464
f 460/460/460 465/465/465 464/464/464
f 464/464/464 465/465/465 466/466/466
f 438/438/438 439/439/439 441/441/441
f 467/467/467 468/468/468 469/469/469
f 468/468/468 467/467/467 470/470/470
f 471/471/471 469/469/469 472/472/472
f 471/471/471 472/472/472 473/473/473
f 473/473/473 474/474/474 475/475/475
f 476/476/476 477/477/477 478/478/478
f 476/476/476 478/478/478 479/479/479
f 480/480/480 481/481/481 475/475/475
f 482/482/482 481/481/481 480/480/480
f 484/484/484 485/485/485 486/486/486
f 485/485/485 484/484/484 487/487/487
f 488/488/488 487/487/487 489/489/489
f 488/488/488 489/489/489 490/490/490
f 491/491/491 492/492/492 490/490/490
f 493/493/493 494/494/494 492/492/492
f 492/492/492 491/491/491 493/493/493
f 495/495/495 494/494/494 493/493/493
f 495/495/495 496/496/496 494/494/494
f 497/497/497 498/498/498 499/499/499
f 498/498/498 500/500/500 499/499/499
f 498/498/498 497/497/497 501/501/501
f 502/502/502 503/503/503 504/504/504
f 504/504/504 503/503/503 505/505/505
f 506/506/506 507/507/507 508/508/508
f 509/509/509 510/510/510 508/508/508
f 510/510/510 506/506/506 508/508/508
f 511/511/511 512/512/512 513/513/513
f 512/512/512 515/515/515 514/514/514
f 512/512/512 511/511/511 516/516/516
f 517/517/517 516/516/516 511/511/511
f 518/518/518 519/519/519 520/520/520
f 519/519/519 521/521/521 520/520/520
f 522/522/522 523/523/523 524/524/524
f 525/525/525 524/524/524 523/523/523
f 526/526/526 524/524/524 525/525/525
f 527/527/527 528/528/528 529/529/529
f 530/530/530 531/531/531 532/532/532
f 533/533/533 534/534/534 527/527/527
f 535/535/535 546/546/546 536/536/536
f 537/537/537 532/532/532 536/536/536
f 538/538/538 539/539/539 529/529/529
f 529/529/529 540/540/540 538/538/538
f 541/541/541 530/530/530 539/539/539
f 531/531/531 530/530/530 541/541/541
f 528/528/528 542/542/542 543/543/543
f 540/540/540 529/529/529 528/528/528
f 529/529/529 539/539/539 527/527/527
f 532/532/532 527/527/527 539/539/539
f 532/532/532 539/539/539 530/530/530
f 532/532/532 544/544/544 545/545/545
f 527/527/527 545/545/545 533/533/533
f 547/547/547 542/542/542 528/528/528
f 533/533/533 548/548/548 534/534/534
f 548/548/548 533/533/533 549/549/549
f 549/549/549 533/533/533 545/545/545
f 544/544/544 532/532/532 537/537/537
f 552/552/552 557/557/557 550/550/550
f 553/553/553 554/554/554 555/555/555
f 556/556/556 557/557/557 558/558/558
f 559/559/559 555/555/555 554/554/554
f 560/560/560 561/561/561 550/550/550
f 553/553/553 555/555/555 562/562/562
f 556/556/556 558/558/558 563/563/563
f 562/562/562 565/565/565 560/560/560
f 552/552/552 558/558/558 557/557/557
f 552/552/552 564/564/564 558/558/558
f 561/561/561 560/560/560 565/565/565
f 555/555/555 566/566/566 567/567/567
f 562/562/562 555/555/555 567/567/567
f 12/12/12 17/17/17 1/1/1
f 41/41/41 49/49/49 51/51/51
f 58/58/58 57/57/57 69/69/69
f 85/85/85 101/101/101 117/117/117
f 102/102/102 111/111/111 109/109/109
f 149/149/149 164/164/164 150/150/150
f 153/153/153 167/167/167 166/166/166
f 191/191/191 180/180/180 183/183/183
f 189/189/189 191/191/191 183/183/183
f 185/185/185 187/187/187 186/186/186
f 195/195/195 196/196/196 198/198/198
f 201/201/201 203/203/203 202/202/202
f 209/209/209 224/224/224 226/226/226
f 219/219/219 228/228/228 233/233/233
f 238/238/238 249/249/249 245/245/245
f 286/286/286 294/294/294 287/287/287
f 276/276/276 275/275/275 288/288/288
f 298/298/298 304/304/304 308/308/308
f 311/311/311 316/316/316 326/326/326
f 569/569/569 570/570/570 571/571/571
f 334/334/334 336/336/336 572/572/572
f 337/337/337 573/573/573 338/338/338
f 574/574/574 338/338/338 573/573/573
f 575/575/575 576/576/576 577/577/577
f 343/343/343 341/341/341 340/340/340
f 345/345/345 578/578/578 579/579/579
f 579/579/579 346/346/346 345/345/345
f 580/580/580 349/349/349 348/348/348
f 580/580/580 348/348/348 581/581/581
f 413/413/413 415/415/415 411/411/411
f 414/414/414 419/419/419 415/415/415
f 421/421/421 424/424/424 422/422/422
f 423/423/423 430/430/430 424/424/424
f 426/426/426 429/429/429 427/427/427
f 428/428/428 432/432/432 429/429/429
f 425/425/425 427/427/427 430/430/430
f 420/420/420 422/422/422 418/418/418
f 431/431/431 438/438/438 432/432/432
f 442/442/442 444/444/444 447/447/447
f 443/443/443 446/446/446 444/444/444
f 440/440/440 447/447/447 441/441/441
f 448/448/448 450/450/450 456/456/456
f 449/449/449 452/452/452 450/450/450
f 451/451/451 455/455/455 452/452/452
f 445/445/445 456/456/456 446/446/446
f 457/457/457 459/459/459 462/462/462
f 458/458/458 461/461/461 459/459/459
f 479/479/479 468/468/468 470/470/470
f 476/476/476 479/479/479 470/470/470
f 472/472/472 474/474/474 473/473/473
f 483/483/483 484/484/484 486/486/486
f 489/489/489 491/491/491 490/490/490
f 534/534/534 528/528/528 527/527/527
f 540/540/540 528/528/528 543/543/543
f 532/532/532 545/545/545 527/527/527
f 566/566/566 555/555/555 559/559/559
f 561/561/561 551/551/551 550/550/550
f 6/6/6 2/2/2 5/5/5
f 26/26/26 24/24/24 25/25/25
f 26/26/26 27/27/27 28/28/28
f 33/33/33 32/32/32 30/30/30
f 37/37/37 38/38/38 36/36/36
f 41/41/41 39/39/39 40/40/40
f 43/43/43 44/44/44 42/42/42
f 45/45/45 39/39/39 44/44/44
f 46/46/46 36/36/36 47/47/47
f 47/47/47 48/48/48 46/46/46
f 53/53/53 42/42/42 48/48/48
f 70/70/70 57/57/57 58/58/58
f 56/56/56 55/55/55 61/61/61
f 72/72/72 57/57/57 70/70/70
f 151/151/151 149/149/149 150/150/150
f 152/152/152 153/153/153 154/154/154
f 156/156/156 155/155/155 151/151/151
f 212/212/212 209/209/209 207/207/207
f 285/285/285 283/283/283 284/284/284
f 288/288/288 286/286/286 276/276/276
f 291/291/291 289/289/289 290/290/290
f 310/310/310 306/306/306 303/303/303
f 361/361/361 357/357/357 353/353/353
f 367/367/367 364/364/364 358/358/358
f 407/407/407 382/382/382 372/372/372
f 437/437/437 416/416/416 417/417/417
f 463/463/463 455/455/455 453/453/453
f 512/512/512 514/514/514 513/513/513
f 535/535/535 536/536/536 531/531/531
f 532/532/532 531/531/531 536/536/536
f 547/547/547 528/528/528 534/534/534
f 552/552/552 550/550/550 551/551/551
f 558/558/558 564/564/564 563/563/563
f 562/562/562 560/560/560 553/553/553

