mtllib material.mtl
usemtl Material-7011油漆.008
v -0.02777000 0.12493200 -0.01461300
v -0.02777000 0.12493200 -0.01461300
v -0.02777000 0.12493200 -0.01461300
v -0.02777000 0.12563200 -0.01461300
v -0.02777000 0.12563200 -0.01461300
v -0.02777000 0.12563200 -0.01461300
v -0.02746100 0.12493200 -0.00603400
v -0.02746100 0.12493200 -0.00603400
v -0.02746100 0.12493200 -0.00603400
v -0.02746100 0.12563200 -0.00603400
v -0.02746100 0.12563200 -0.00603400
v -0.02746100 0.12563200 -0.00603400
v -0.02769300 0.12493200 -0.01246800
v -0.02769300 0.12493200 -0.01246800
v -0.02761500 0.12493200 -0.01032400
v -0.02761500 0.12493200 -0.01032400
v -0.02753800 0.12493200 -0.00817900
v -0.02753800 0.12493200 -0.00817900
v -0.02753800 0.12563200 -0.00817900
v -0.02753800 0.12563200 -0.00817900
v -0.02753800 0.12563200 -0.00817900
v -0.02761500 0.12563200 -0.01032400
v -0.02761500 0.12563200 -0.01032400
v -0.02769300 0.12563200 -0.01246800
v -0.02769300 0.12563200 -0.01246800
v -0.02746000 0.12493200 -0.00603400
v -0.02746000 0.12493200 -0.00603400
v -0.02746000 0.12493200 -0.00603400
v -0.02746000 0.12563200 -0.00603400
v -0.02746000 0.12563200 -0.00603400
v -0.02746000 0.12563200 -0.00603400
v -0.02447600 0.12493200 -0.00614100
v -0.02447600 0.12493200 -0.00614100
v -0.02447600 0.12493200 -0.00614100
v -0.02447600 0.12563200 -0.00614100
v -0.02447600 0.12563200 -0.00614100
v -0.02447600 0.12563200 -0.00614100
v -0.02646600 0.12493200 -0.00606900
v -0.02646600 0.12493200 -0.00606900
v -0.02547100 0.12493200 -0.00610500
v -0.02547100 0.12493200 -0.00610500
v -0.02547100 0.12563200 -0.00610500
v -0.02547100 0.12563200 -0.00610500
v -0.02646600 0.12563200 -0.00606900
v -0.02646600 0.12563200 -0.00606900
v -0.02646600 0.12563200 -0.00606900
v -0.02447600 0.12493200 -0.00614200
v -0.02447600 0.12493200 -0.00614200
v -0.02447600 0.12493200 -0.00614200
v -0.02447600 0.12563200 -0.00614200
v -0.02447600 0.12563200 -0.00614200
v -0.02447600 0.12563200 -0.00614200
v -0.02478500 0.12493200 -0.01472100
v -0.02478500 0.12493200 -0.01472100
v -0.02478500 0.12493200 -0.01472100
v -0.02478500 0.12563200 -0.01472100
v -0.02478500 0.12563200 -0.01472100
v -0.02478500 0.12563200 -0.01472100
v -0.02455300 0.12493200 -0.00828600
v -0.02455300 0.12493200 -0.00828600
v -0.02463000 0.12493200 -0.01043100
v -0.02463000 0.12493200 -0.01043100
v -0.02470800 0.12493200 -0.01257600
v -0.02470800 0.12493200 -0.01257600
v -0.02470800 0.12563200 -0.01257600
v -0.02470800 0.12563200 -0.01257600
v -0.02463000 0.12563200 -0.01043100
v -0.02463000 0.12563200 -0.01043100
v -0.02455300 0.12563200 -0.00828600
v -0.02455300 0.12563200 -0.00828600
v -0.02478500 0.12493200 -0.01472100
v -0.02478500 0.12493200 -0.01472100
v -0.02478500 0.12493200 -0.01472100
v -0.02478500 0.12563200 -0.01472100
v -0.02478500 0.12563200 -0.01472100
v -0.02478500 0.12563200 -0.01472100
v -0.02776900 0.12493200 -0.01461400
v -0.02776900 0.12493200 -0.01461400
v -0.02776900 0.12493200 -0.01461400
v -0.02776900 0.12563200 -0.01461400
v -0.02776900 0.12563200 -0.01461400
v -0.02776900 0.12563200 -0.01461400
v -0.02627700 0.12563200 -0.01466700
v -0.02627700 0.12563200 -0.01466700
v -0.02627700 0.12563200 -0.01466700
v -0.02627700 0.12493200 -0.01466700
v -0.02627700 0.12493200 -0.01466700
v -0.02447600 0.12493100 -0.00614200
v -0.02447600 0.12493100 -0.00614200
v -0.02447600 0.12493100 -0.00614200
v -0.02746000 0.12493100 -0.00603400
v -0.02746000 0.12493100 -0.00603400
v -0.02746000 0.12493100 -0.00603400
v -0.02478500 0.12493100 -0.01472100
v -0.02478500 0.12493100 -0.01472100
v -0.02478500 0.12493100 -0.01472100
v -0.02776900 0.12493100 -0.01461300
v -0.02776900 0.12493100 -0.01461300
v -0.02776900 0.12493100 -0.01461300
v -0.02769200 0.12493100 -0.01246800
v -0.02769200 0.12493100 -0.01246800
v -0.02761500 0.12493100 -0.01032400
v -0.02761500 0.12493100 -0.01032400
v -0.02761500 0.12493100 -0.01032400
v -0.02753800 0.12493100 -0.00817900
v -0.02753800 0.12493100 -0.00817900
v -0.02753800 0.12493100 -0.00817900
v -0.02646600 0.12493100 -0.00607000
v -0.02646600 0.12493100 -0.00607000
v -0.02547100 0.12493100 -0.00610600
v -0.02547100 0.12493100 -0.00610600
v -0.02612300 0.12493100 -0.01037700
v -0.02686900 0.12493100 -0.01035100
v -0.02724200 0.12493100 -0.01033700
v -0.02679200 0.12493100 -0.00820600
v -0.02716500 0.12493100 -0.00819200
v -0.02649600 0.12493100 -0.01036400
v -0.02604600 0.12493100 -0.00823300
v -0.02641900 0.12493100 -0.00821900
v -0.02537700 0.12493100 -0.01040400
v -0.02575000 0.12493100 -0.01039100
v -0.02530000 0.12493100 -0.00826000
v -0.02567300 0.12493100 -0.00824600
v -0.02500400 0.12493100 -0.01041800
v -0.02492700 0.12493100 -0.00827300
v -0.02455400 0.12493100 -0.00828600
v -0.02455400 0.12493100 -0.00828600
v -0.02463100 0.12493100 -0.01043100
v -0.02463100 0.12493100 -0.01043100
v -0.02463100 0.12493100 -0.01043100
v -0.02470800 0.12493100 -0.01257600
v -0.02470800 0.12493100 -0.01257600
v -0.02470800 0.12493100 -0.01257600
v -0.02627700 0.12493100 -0.01466700
v -0.02627700 0.12493100 -0.01466700
v -0.02447600 0.12563200 -0.00614200
v -0.02447600 0.12563200 -0.00614200
v -0.02447600 0.12563200 -0.00614200
v -0.02746000 0.12563200 -0.00603400
v -0.02746000 0.12563200 -0.00603400
v -0.02746000 0.12563200 -0.00603400
v -0.02478500 0.12563200 -0.01472100
v -0.02478500 0.12563200 -0.01472100
v -0.02478500 0.12563200 -0.01472100
v -0.02776900 0.12563200 -0.01461300
v -0.02776900 0.12563200 -0.01461300
v -0.02776900 0.12563200 -0.01461300
v -0.02769200 0.12563200 -0.01246800
v -0.02769200 0.12563200 -0.01246800
v -0.02761500 0.12563200 -0.01032400
v -0.02761500 0.12563200 -0.01032400
v -0.02753800 0.12563200 -0.00817900
v -0.02753800 0.12563200 -0.00817900
v -0.02646600 0.12563200 -0.00607000
v -0.02646600 0.12563200 -0.00607000
v -0.02547100 0.12563200 -0.00610600
v -0.02547100 0.12563200 -0.00610600
v -0.02612300 0.12563200 -0.01037700
v -0.02686900 0.12563200 -0.01035100
v -0.02724200 0.12563200 -0.01033700
v -0.02679200 0.12563200 -0.00820600
v -0.02716500 0.12563200 -0.00819200
v -0.02649600 0.12563200 -0.01036400
v -0.02604600 0.12563200 -0.00823300
v -0.02641900 0.12563200 -0.00821900
v -0.02537700 0.12563200 -0.01040400
v -0.02575000 0.12563200 -0.01039100
v -0.02530000 0.12563200 -0.00826000
v -0.02567300 0.12563200 -0.00824600
v -0.02500400 0.12563200 -0.01041800
v -0.02492700 0.12563200 -0.00827300
v -0.02455400 0.12563200 -0.00828600
v -0.02455400 0.12563200 -0.00828600
v -0.02463100 0.12563200 -0.01043100
v -0.02463100 0.12563200 -0.01043100
v -0.02470800 0.12563200 -0.01257600
v -0.02470800 0.12563200 -0.01257600
v -0.02627700 0.12563200 -0.01466700
v -0.02627700 0.12563200 -0.01466700
v -0.02627700 0.12563200 -0.01466700
v -0.02776900 0.12493200 -0.01461300
v -0.02776900 0.12493200 -0.01461300
v -0.02776900 0.12493200 -0.01461300
v -0.02776900 0.12563200 -0.01461300
v -0.02776900 0.12563200 -0.01461300
v -0.02776900 0.12563200 -0.01461300
v -0.02746000 0.12493200 -0.00603400
v -0.02746000 0.12493200 -0.00603400
v -0.02746000 0.12493200 -0.00603400
v -0.02746000 0.12563200 -0.00603400
v -0.02746000 0.12563200 -0.00603400
v -0.02746000 0.12563200 -0.00603400
v -0.02769200 0.12493200 -0.01246800
v -0.02769200 0.12493200 -0.01246800
v -0.02761400 0.12493200 -0.01032400
v -0.02761400 0.12493200 -0.01032400
v -0.02753700 0.12493200 -0.00817900
v -0.02753700 0.12493200 -0.00817900
v -0.02753700 0.12563200 -0.00817900
v -0.02753700 0.12563200 -0.00817900
v -0.02753700 0.12563200 -0.00817900
v -0.02761400 0.12563200 -0.01032400
v -0.02761400 0.12563200 -0.01032400
v -0.02769200 0.12563200 -0.01246800
v -0.02769200 0.12563200 -0.01246800
v -0.02746000 0.12493200 -0.00603500
v -0.02746000 0.12493200 -0.00603500
v -0.02746000 0.12493200 -0.00603500
v -0.02746000 0.12563200 -0.00603500
v -0.02746000 0.12563200 -0.00603500
v -0.02746000 0.12563200 -0.00603500
v -0.02447600 0.12493200 -0.00614200
v -0.02447600 0.12493200 -0.00614200
v -0.02447600 0.12493200 -0.00614200
v -0.02447600 0.12563200 -0.00614200
v -0.02447600 0.12563200 -0.00614200
v -0.02447600 0.12563200 -0.00614200
v -0.02646600 0.12493200 -0.00607000
v -0.02646600 0.12493200 -0.00607000
v -0.02547100 0.12493200 -0.00610600
v -0.02547100 0.12493200 -0.00610600
v -0.02547100 0.12563200 -0.00610600
v -0.02547100 0.12563200 -0.00610600
v -0.02646600 0.12563200 -0.00607000
v -0.02646600 0.12563200 -0.00607000
v -0.02646600 0.12563200 -0.00607000
v -0.02447700 0.12493200 -0.00614200
v -0.02447700 0.12493200 -0.00614200
v -0.02447700 0.12493200 -0.00614200
v -0.02447700 0.12563200 -0.00614200
v -0.02447700 0.12563200 -0.00614200
v -0.02447700 0.12563200 -0.00614200
v -0.02478600 0.12493200 -0.01472100
v -0.02478600 0.12493200 -0.01472100
v -0.02478600 0.12493200 -0.01472100
v -0.02478600 0.12563200 -0.01472100
v -0.02478600 0.12563200 -0.01472100
v -0.02478600 0.12563200 -0.01472100
v -0.02455400 0.12493200 -0.00828600
v -0.02455400 0.12493200 -0.00828600
v -0.02463100 0.12493200 -0.01043100
v -0.02463100 0.12493200 -0.01043100
v -0.02470900 0.12493200 -0.01257600
v -0.02470900 0.12493200 -0.01257600
v -0.02470900 0.12563200 -0.01257600
v -0.02470900 0.12563200 -0.01257600
v -0.02463100 0.12563200 -0.01043100
v -0.02463100 0.12563200 -0.01043100
v -0.02455400 0.12563200 -0.00828600
v -0.02455400 0.12563200 -0.00828600
v -0.02478500 0.12493200 -0.01472000
v -0.02478500 0.12493200 -0.01472000
v -0.02478500 0.12493200 -0.01472000
v -0.02478500 0.12563200 -0.01472000
v -0.02478500 0.12563200 -0.01472000
v -0.02478500 0.12563200 -0.01472000
v -0.02776900 0.12493200 -0.01461300
v -0.02776900 0.12493200 -0.01461300
v -0.02776900 0.12493200 -0.01461300
v -0.02776900 0.12563200 -0.01461300
v -0.02776900 0.12563200 -0.01461300
v -0.02776900 0.12563200 -0.01461300
v -0.02627700 0.12563200 -0.01466600
v -0.02627700 0.12563200 -0.01466600
v -0.02627700 0.12563200 -0.01466600
v -0.02627700 0.12493200 -0.01466600
v -0.02627700 0.12493200 -0.01466600
v -0.02447600 0.12493200 -0.00614200
v -0.02447600 0.12493200 -0.00614200
v -0.02447600 0.12493200 -0.00614200
v -0.02746000 0.12493200 -0.00603400
v -0.02746000 0.12493200 -0.00603400
v -0.02746000 0.12493200 -0.00603400
v -0.02478500 0.12493200 -0.01472100
v -0.02478500 0.12493200 -0.01472100
v -0.02478500 0.12493200 -0.01472100
v -0.02776900 0.12493200 -0.01461300
v -0.02776900 0.12493200 -0.01461300
v -0.02776900 0.12493200 -0.01461300
v -0.02769200 0.12493200 -0.01246800
v -0.02769200 0.12493200 -0.01246800
v -0.02761500 0.12493200 -0.01032400
v -0.02761500 0.12493200 -0.01032400
v -0.02761500 0.12493200 -0.01032400
v -0.02753800 0.12493200 -0.00817900
v -0.02753800 0.12493200 -0.00817900
v -0.02753800 0.12493200 -0.00817900
v -0.02646600 0.12493200 -0.00607000
v -0.02646600 0.12493200 -0.00607000
v -0.02547100 0.12493200 -0.00610600
v -0.02547100 0.12493200 -0.00610600
v -0.02612300 0.12493200 -0.01037700
v -0.02686900 0.12493200 -0.01035100
v -0.02724200 0.12493200 -0.01033700
v -0.02679200 0.12493200 -0.00820600
v -0.02716500 0.12493200 -0.00819200
v -0.02649600 0.12493200 -0.01036400
v -0.02604600 0.12493200 -0.00823300
v -0.02641900 0.12493200 -0.00821900
v -0.02537700 0.12493200 -0.01040400
v -0.02575000 0.12493200 -0.01039100
v -0.02530000 0.12493200 -0.00826000
v -0.02567300 0.12493200 -0.00824600
v -0.02500400 0.12493200 -0.01041800
v -0.02492700 0.12493200 -0.00827300
v -0.02455400 0.12493200 -0.00828600
v -0.02455400 0.12493200 -0.00828600
v -0.02463100 0.12493200 -0.01043100
v -0.02463100 0.12493200 -0.01043100
v -0.02463100 0.12493200 -0.01043100
v -0.02470800 0.12493200 -0.01257600
v -0.02470800 0.12493200 -0.01257600
v -0.02470800 0.12493200 -0.01257600
v -0.02627700 0.12493200 -0.01466700
v -0.02627700 0.12493200 -0.01466700
v -0.02447600 0.12563100 -0.00614200
v -0.02447600 0.12563100 -0.00614200
v -0.02447600 0.12563100 -0.00614200
v -0.02746000 0.12563100 -0.00603400
v -0.02746000 0.12563100 -0.00603400
v -0.02746000 0.12563100 -0.00603400
v -0.02478500 0.12563100 -0.01472100
v -0.02478500 0.12563100 -0.01472100
v -0.02478500 0.12563100 -0.01472100
v -0.02776900 0.12563100 -0.01461300
v -0.02776900 0.12563100 -0.01461300
v -0.02776900 0.12563100 -0.01461300
v -0.02769200 0.12563100 -0.01246800
v -0.02769200 0.12563100 -0.01246800
v -0.02761500 0.12563100 -0.01032400
v -0.02761500 0.12563100 -0.01032400
v -0.02753800 0.12563100 -0.00817900
v -0.02753800 0.12563100 -0.00817900
v -0.02646600 0.12563100 -0.00607000
v -0.02646600 0.12563100 -0.00607000
v -0.02547100 0.12563100 -0.00610600
v -0.02547100 0.12563100 -0.00610600
v -0.02612300 0.12563100 -0.01037700
v -0.02686900 0.12563100 -0.01035100
v -0.02724200 0.12563100 -0.01033700
v -0.02679200 0.12563100 -0.00820600
v -0.02716500 0.12563100 -0.00819200
v -0.02649600 0.12563100 -0.01036400
v -0.02604600 0.12563100 -0.00823300
v -0.02641900 0.12563100 -0.00821900
v -0.02537700 0.12563100 -0.01040400
v -0.02575000 0.12563100 -0.01039100
v -0.02530000 0.12563100 -0.00826000
v -0.02567300 0.12563100 -0.00824600
v -0.02500400 0.12563100 -0.01041800
v -0.02492700 0.12563100 -0.00827300
v -0.02455400 0.12563100 -0.00828600
v -0.02455400 0.12563100 -0.00828600
v -0.02463100 0.12563100 -0.01043100
v -0.02463100 0.12563100 -0.01043100
v -0.02470800 0.12563100 -0.01257600
v -0.02470800 0.12563100 -0.01257600
v -0.02627700 0.12563100 -0.01466700
v -0.02627700 0.12563100 -0.01466700
v -0.02627700 0.12563100 -0.01466700
vn -0.03630000 0.00000000 -0.99930000
vn 0.00000000 -1.00000000 0.00000000
vn -0.99940000 0.00000000 0.03600000
vn 0.00000000 1.00000000 0.00000000
vn -0.99940000 0.00000000 0.03600000
vn -0.03630000 0.00000000 -0.99930000
vn 0.00000000 -1.00000000 0.00000000
vn -0.99940000 0.00000000 0.03600000
vn 0.03630000 0.00000000 0.99930000
vn -0.99940000 0.00000000 0.03600000
vn 0.03630000 0.00000000 0.99930000
vn 0.00000000 1.00000000 0.00040000
vn -0.99940000 0.00000000 0.03600000
vn 0.00000000 -1.00000000 0.00000000
vn -0.99940000 0.00000000 0.03600000
vn 0.00000000 -1.00000000 0.00000000
vn 0.00000000 -1.00000000 0.00000000
vn -0.99940000 0.00000000 0.03600000
vn -0.99940000 0.00000000 0.03600000
vn 0.00000000 1.00000000 0.00000000
vn 0.00000000 1.00000000 0.00040000
vn 0.00000000 1.00000000 0.00000000
vn -0.99940000 0.00000000 0.03600000
vn -0.99940000 0.00000000 0.03600000
vn 0.00000000 1.00000000 0.00000000
vn 0.03600000 0.00000000 0.99940000
vn 0.00000000 -1.00000000 0.00000000
vn -0.99940000 0.00000000 0.03540000
vn 0.03600000 0.00000000 0.99940000
vn 0.00000000 0.99990000 -0.01460000
vn -0.99940000 0.00000000 0.03540000
vn 0.03600000 0.00000000 0.99940000
vn 0.00000000 -1.00000000 0.00000000
vn 0.99940000 0.00000000 -0.03350000
vn 0.03600000 0.00000000 0.99940000
vn 0.99940000 0.00000000 -0.03350000
vn 0.00000000 1.00000000 0.00000000
vn 0.00000000 -1.00000000 0.00000000
vn 0.03600000 0.00000000 0.99940000
vn 0.03600000 0.00000000 0.99940000
vn 0.00000000 -1.00000000 0.00000000
vn 0.00000000 1.00000000 0.00000000
vn 0.03600000 0.00000000 0.99940000
vn 0.00000000 0.99990000 -0.01460000
vn 0.00000000 1.00000000 0.00000000
vn 0.03600000 0.00000000 0.99940000
vn 0.00000000 -1.00000000 0.00000000
vn 0.99940000 0.00000000 -0.03600000
vn 0.03570000 0.00000000 0.99940000
vn 0.00000000 1.00000000 0.00000000
vn 0.99940000 0.00000000 -0.03600000
vn 0.03570000 0.00000000 0.99940000
vn -0.03640000 0.00000000 -0.99930000
vn 0.99940000 0.00000000 -0.03600000
vn 0.00000000 -1.00000000 0.00000000
vn 0.99940000 0.00000000 -0.03600000
vn -0.03640000 0.00000000 -0.99930000
vn 0.00000000 1.00000000 0.00000000
vn 0.99940000 0.00000000 -0.03600000
vn 0.00000000 -1.00000000 0.00000000
vn 0.00000000 -1.00000000 0.00000000
vn 0.99940000 0.00000000 -0.03600000
vn 0.99940000 0.00000000 -0.03600000
vn 0.00000000 -1.00000000 0.00000000
vn 0.00000000 1.00000000 0.00000000
vn 0.99940000 0.00000000 -0.03600000
vn 0.99940000 0.00000000 -0.03600000
vn 0.00000000 1.00000000 0.00000000
vn 0.99940000 0.00000000 -0.03600000
vn 0.00000000 1.00000000 0.00000000
vn 0.00000000 -1.00000000 0.00000000
vn -0.03600000 0.00000000 -0.99940000
vn 0.99940000 0.00000000 -0.03350000
vn 0.99940000 0.00000000 -0.03350000
vn -0.03600000 0.00000000 -0.99940000
vn 0.00000000 1.00000000 -0.00970000
vn -0.03600000 0.00000000 -0.99940000
vn -0.99940000 0.00000000 0.03540000
vn 0.00000000 -1.00000000 0.00000000
vn -0.03600000 0.00000000 -0.99940000
vn 0.00000000 1.00000000 0.00000000
vn -0.99940000 0.00000000 0.03540000
vn 0.00000000 1.00000000 0.00000000
vn -0.03600000 0.00000000 -0.99940000
vn 0.00000000 1.00000000 -0.00970000
vn 0.00000000 -1.00000000 0.00000000
vn -0.03600000 0.00000000 -0.99940000
vn 0.00000000 -1.00000000 0.00000000
vn 0.03590000 0.00000000 0.99940000
vn 0.99930000 0.00000000 -0.03620000
vn 0.03590000 0.00000000 0.99940000
vn -0.99930000 0.00000000 0.03620000
vn 0.00000000 -1.00000000 0.00000000
vn -0.03600000 0.00000000 -0.99940000
vn 0.00000000 -1.00000000 0.00000000
vn 0.99930000 0.00000000 -0.03620000
vn 0.00000000 -1.00000000 0.00000000
vn -0.99930000 0.00000000 0.03620000
vn -0.03600000 0.00000000 -0.99940000
vn 0.00000000 -1.00000000 0.00000000
vn -0.99930000 0.00000000 0.03620000
vn 0.00000000 -1.00000000 0.00000000
vn -0.99930000 0.00000000 0.03620000
vn -0.99940000 0.00000000 0.03580000
vn -0.99930000 0.00000000 0.03620000
vn 0.00000000 -1.00000000 0.00000000
vn -0.99940000 0.00000000 0.03580000
vn 0.00000000 -1.00000000 0.00000000
vn 0.03590000 0.00000000 0.99940000
vn 0.00000000 -1.00000000 0.00000000
vn 0.03590000 0.00000000 0.99940000
vn 0.00000000 -1.00000000 0.00000000
vn 0.00000000 -1.00000000 0.00000000
vn 0.00000000 -1.00000000 0.00000000
vn 0.00000000 -1.00000000 0.00000000
vn 0.00000000 -1.00000000 0.00000000
vn 0.00000000 -1.00000000 0.00000000
vn 0.00000000 -1.00000000 0.00000000
vn 0.00000000 -1.00000000 0.00000000
vn 0.00000000 -1.00000000 0.00000000
vn 0.00000000 -1.00000000 0.00000000
vn 0.00000000 -1.00000000 0.00000000
vn 0.00000000 -1.00000000 0.00000000
vn 0.00000000 -1.00000000 0.00000000
vn 0.00000000 -1.00000000 0.00000000
vn 0.99930000 0.00000000 -0.03620000
vn 0.00000000 -1.00000000 0.00000000
vn 0.99940000 0.00000000 -0.03580000
vn 0.99930000 0.00000000 -0.03620000
vn 0.00000000 -1.00000000 0.00000000
vn 0.99940000 0.00000000 -0.03580000
vn 0.99930000 0.00000000 -0.03620000
vn 0.00000000 -1.00000000 0.00000000
vn -0.03600000 0.00000000 -0.99940000
vn 0.00000000 -1.00000000 0.00000000
vn 0.00000000 1.00000000 0.00000000
vn 0.03560000 0.00000000 0.99940000
vn 0.99930000 0.00000000 -0.03610000
vn 0.00000000 1.00000000 0.00000000
vn 0.03560000 0.00000000 0.99940000
vn -0.99930000 0.00000000 0.03610000
vn 0.00000000 1.00000000 0.00000000
vn 0.99930000 0.00000000 -0.03610000
vn -0.03580000 0.00000000 -0.99940000
vn -0.03610000 0.00000000 -0.99930000
vn 0.00000000 1.00000000 0.00000000
vn -0.99930000 0.00000000 0.03610000
vn 0.00000000 1.00000000 0.00000000
vn -0.99930000 0.00000000 0.03610000
vn 0.00000000 1.00000000 0.00000000
vn -0.99930000 0.00000000 0.03610000
vn -0.99930000 0.00000000 0.03610000
vn 0.00000000 1.00000000 0.00000000
vn 0.00000000 1.00000000 0.00000000
vn 0.03560000 0.00000000 0.99940000
vn 0.00000000 1.00000000 0.00000000
vn 0.03560000 0.00000000 0.99940000
vn 0.00000000 1.00000000 0.00000000
vn 0.00000000 1.00000000 0.00000000
vn 0.00000000 1.00000000 0.00000000
vn 0.00000000 1.00000000 0.00000000
vn 0.00000000 1.00000000 0.00000000
vn 0.00000000 1.00000000 0.00000000
vn 0.00000000 1.00000000 0.00000000
vn 0.00000000 1.00000000 0.00000000
vn 0.00000000 1.00000000 0.00000000
vn 0.00000000 1.00000000 0.00000000
vn 0.00000000 1.00000000 0.00000000
vn 0.00000000 1.00000000 0.00000000
vn 0.00000000 1.00000000 0.00000000
vn 0.00000000 1.00000000 0.00000000
vn 0.00000000 1.00000000 0.00000000
vn 0.99930000 0.00000000 -0.03610000
vn 0.99930000 0.00000000 -0.03610000
vn 0.00000000 1.00000000 0.00000000
vn 0.99930000 0.00000000 -0.03610000
vn 0.00000000 1.00000000 0.00000000
vn 0.00000000 1.00000000 0.00000000
vn -0.03580000 0.00000000 -0.99940000
vn -0.03610000 0.00000000 -0.99930000
vn -0.03630000 0.00000000 -0.99930000
vn 0.00000000 -1.00000000 0.00000000
vn 0.99940000 0.00000000 -0.03600000
vn 0.00000000 1.00000000 0.00000000
vn -0.03630000 0.00000000 -0.99930000
vn 0.99940000 0.00000000 -0.03600000
vn 0.03630000 0.00000000 0.99930000
vn 0.00000000 -1.00000000 0.00000000
vn 0.99940000 0.00000000 -0.03600000
vn 0.99940000 0.00000000 -0.03600000
vn 0.03630000 0.00000000 0.99930000
vn 0.00000000 1.00000000 0.00040000
vn 0.99940000 0.00000000 -0.03600000
vn 0.00000000 -1.00000000 0.00000000
vn 0.00000000 -1.00000000 0.00000000
vn 0.99940000 0.00000000 -0.03600000
vn 0.99940000 0.00000000 -0.03600000
vn 0.00000000 -1.00000000 0.00000000
vn 0.00000000 1.00000000 0.00000000
vn 0.99940000 0.00000000 -0.03600000
vn 0.00000000 1.00000000 0.00040000
vn 0.99940000 0.00000000 -0.03600000
vn 0.00000000 1.00000000 0.00000000
vn 0.00000000 1.00000000 0.00000000
vn 0.99940000 0.00000000 -0.03600000
vn -0.99940000 0.00000000 0.03540000
vn -0.03600000 0.00000000 -0.99940000
vn 0.00000000 -1.00000000 0.00000000
vn 0.00000000 0.99990000 -0.01460000
vn -0.99940000 0.00000000 0.03540000
vn -0.03600000 0.00000000 -0.99940000
vn 0.99940000 0.00000000 -0.03350000
vn 0.00000000 -1.00000000 0.00000000
vn -0.03600000 0.00000000 -0.99940000
vn 0.00000000 1.00000000 0.00000000
vn -0.03600000 0.00000000 -0.99940000
vn 0.99940000 0.00000000 -0.03350000
vn -0.03600000 0.00000000 -0.99940000
vn 0.00000000 -1.00000000 0.00000000
vn -0.03600000 0.00000000 -0.99940000
vn 0.00000000 -1.00000000 0.00000000
vn -0.03600000 0.00000000 -0.99940000
vn 0.00000000 1.00000000 0.00000000
vn 0.00000000 0.99990000 -0.01460000
vn 0.00000000 1.00000000 0.00000000
vn -0.03600000 0.00000000 -0.99940000
vn 0.03570000 0.00000000 0.99940000
vn -0.99940000 0.00000000 0.03600000
vn 0.00000000 -1.00000000 0.00000000
vn 0.03570000 0.00000000 0.99940000
vn -0.99940000 0.00000000 0.03600000
vn 0.00000000 1.00000000 0.00000000
vn 0.00000000 -1.00000000 0.00000000
vn -0.99940000 0.00000000 0.03600000
vn -0.03640000 0.00000000 -0.99930000
vn 0.00000000 1.00000000 0.00000000
vn -0.03640000 0.00000000 -0.99930000
vn -0.99940000 0.00000000 0.03600000
vn -0.99940000 0.00000000 0.03600000
vn 0.00000000 -1.00000000 0.00000000
vn -0.99940000 0.00000000 0.03600000
vn 0.00000000 -1.00000000 0.00000000
vn -0.99940000 0.00000000 0.03600000
vn 0.00000000 -1.00000000 0.00000000
vn 0.00000000 1.00000000 0.00000000
vn -0.99940000 0.00000000 0.03600000
vn 0.00000000 1.00000000 0.00000000
vn -0.99940000 0.00000000 0.03600000
vn 0.00000000 1.00000000 0.00000000
vn -0.99940000 0.00000000 0.03600000
vn 0.99940000 0.00000000 -0.03350000
vn 0.00000000 -1.00000000 0.00000000
vn 0.03600000 0.00000000 0.99940000
vn 0.03600000 0.00000000 0.99940000
vn 0.00000000 1.00000000 -0.00970000
vn 0.99940000 0.00000000 -0.03350000
vn -0.99940000 0.00000000 0.03540000
vn 0.00000000 -1.00000000 0.00000000
vn 0.03600000 0.00000000 0.99940000
vn 0.03600000 0.00000000 0.99940000
vn 0.00000000 1.00000000 0.00000000
vn -0.99940000 0.00000000 0.03540000
vn 0.00000000 1.00000000 0.00000000
vn 0.00000000 1.00000000 -0.00970000
vn 0.03600000 0.00000000 0.99940000
vn 0.00000000 -1.00000000 0.00000000
vn 0.03600000 0.00000000 0.99940000
vn 0.99930000 0.00000000 -0.03620000
vn 0.00000000 1.00000000 0.00000000
vn 0.03590000 0.00000000 0.99940000
vn -0.99930000 0.00000000 0.03620000
vn 0.00000000 1.00000000 0.00000000
vn 0.03590000 0.00000000 0.99940000
vn 0.00000000 1.00000000 0.00000000
vn 0.99930000 0.00000000 -0.03620000
vn -0.03600000 0.00000000 -0.99940000
vn 0.00000000 1.00000000 0.00000000
vn -0.03600000 0.00000000 -0.99940000
vn -0.99930000 0.00000000 0.03620000
vn 0.00000000 1.00000000 0.00000000
vn -0.99930000 0.00000000 0.03620000
vn -0.99940000 0.00000000 0.03580000
vn 0.00000000 1.00000000 0.00000000
vn -0.99930000 0.00000000 0.03620000
vn -0.99930000 0.00000000 0.03620000
vn 0.00000000 1.00000000 0.00000000
vn -0.99940000 0.00000000 0.03580000
vn 0.03590000 0.00000000 0.99940000
vn 0.00000000 1.00000000 0.00000000
vn 0.00000000 1.00000000 0.00000000
vn 0.03590000 0.00000000 0.99940000
vn 0.00000000 1.00000000 0.00000000
vn 0.00000000 1.00000000 0.00000000
vn 0.00000000 1.00000000 0.00000000
vn 0.00000000 1.00000000 0.00000000
vn 0.00000000 1.00000000 0.00000000
vn 0.00000000 1.00000000 0.00000000
vn 0.00000000 1.00000000 0.00000000
vn 0.00000000 1.00000000 0.00000000
vn 0.00000000 1.00000000 0.00000000
vn 0.00000000 1.00000000 0.00000000
vn 0.00000000 1.00000000 0.00000000
vn 0.00000000 1.00000000 0.00000000
vn 0.00000000 1.00000000 0.00000000
vn 0.00000000 1.00000000 0.00000000
vn 0.00000000 1.00000000 0.00000000
vn 0.99930000 0.00000000 -0.03620000
vn 0.00000000 1.00000000 0.00000000
vn 0.99940000 0.00000000 -0.03580000
vn 0.99930000 0.00000000 -0.03620000
vn 0.99930000 0.00000000 -0.03620000
vn 0.00000000 1.00000000 0.00000000
vn 0.99940000 0.00000000 -0.03580000
vn 0.00000000 1.00000000 0.00000000
vn -0.03600000 0.00000000 -0.99940000
vn 0.03560000 0.00000000 0.99940000
vn 0.99930000 0.00000000 -0.03610000
vn 0.00000000 -1.00000000 0.00000000
vn 0.03560000 0.00000000 0.99940000
vn 0.00000000 -1.00000000 0.00000000
vn -0.99930000 0.00000000 0.03610000
vn -0.03580000 0.00000000 -0.99940000
vn 0.00000000 -1.00000000 0.00000000
vn 0.99930000 0.00000000 -0.03610000
vn 0.00000000 -1.00000000 0.00000000
vn -0.99930000 0.00000000 0.03610000
vn -0.03610000 0.00000000 -0.99930000
vn -0.99930000 0.00000000 0.03610000
vn 0.00000000 -1.00000000 0.00000000
vn -0.99930000 0.00000000 0.03610000
vn 0.00000000 -1.00000000 0.00000000
vn -0.99930000 0.00000000 0.03610000
vn 0.00000000 -1.00000000 0.00000000
vn 0.03560000 0.00000000 0.99940000
vn 0.00000000 -1.00000000 0.00000000
vn 0.00000000 -1.00000000 0.00000000
vn 0.03560000 0.00000000 0.99940000
vn 0.00000000 -1.00000000 0.00000000
vn 0.00000000 -1.00000000 0.00000000
vn 0.00000000 -1.00000000 0.00000000
vn 0.00000000 -1.00000000 0.00000000
vn 0.00000000 -1.00000000 0.00000000
vn 0.00000000 -1.00000000 0.00000000
vn 0.00000000 -1.00000000 0.00000000
vn 0.00000000 -1.00000000 0.00000000
vn 0.00000000 -1.00000000 0.00000000
vn 0.00000000 -1.00000000 0.00000000
vn 0.00000000 -1.00000000 0.00000000
vn 0.00000000 -1.00000000 0.00000000
vn 0.00000000 -1.00000000 0.00000000
vn 0.00000000 -1.00000000 0.00000000
vn 0.99930000 0.00000000 -0.03610000
vn 0.00000000 -1.00000000 0.00000000
vn 0.99930000 0.00000000 -0.03610000
vn 0.00000000 -1.00000000 0.00000000
vn 0.00000000 -1.00000000 0.00000000
vn 0.99930000 0.00000000 -0.03610000
vn -0.03580000 0.00000000 -0.99940000
vn -0.03610000 0.00000000 -0.99930000
vn 0.00000000 -1.00000000 0.00000000
vt 0.23793700 0.00000000
vt 0.23793700 0.00000000
vt 0.23793700 0.00000000
vt 0.15960100 0.00000000
vt 0.15960100 0.00000000
vt 0.15960100 0.00000000
vt 0.23793700 0.97718100
vt 0.23793700 0.97718100
vt 0.23793700 0.97718100
vt 0.15960100 0.97718100
vt 0.15960100 0.97718100
vt 0.15960100 0.97718100
vt 0.23793700 0.24429500
vt 0.23793700 0.24429500
vt 0.23793700 0.48859100
vt 0.23793700 0.48859100
vt 0.23793700 0.73288600
vt 0.23793700 0.73288600
vt 0.15960100 0.73288600
vt 0.15960100 0.73288600
vt 0.15960100 0.73288600
vt 0.15960100 0.48859100
vt 0.15960100 0.48859100
vt 0.15960100 0.24429500
vt 0.15960100 0.24429500
vt 0.07833600 0.00000000
vt 0.07833600 0.00000000
vt 0.07833600 0.00000000
vt 0.00000000 0.00000000
vt 0.00000000 0.00000000
vt 0.00000000 0.00000000
vt 0.07833600 0.34039900
vt 0.07833600 0.34039900
vt 0.07833600 0.34039900
vt 0.00000000 0.34039900
vt 0.00000000 0.34039900
vt 0.00000000 0.34039900
vt 0.07833600 0.11346600
vt 0.07833600 0.11346600
vt 0.07833600 0.22693200
vt 0.07833600 0.22693200
vt 0.00000000 0.22693200
vt 0.00000000 0.22693200
vt 0.00000000 0.11346600
vt 0.00000000 0.11346600
vt 0.00000000 0.11346600
vt 0.31773800 0.00000000
vt 0.31773800 0.00000000
vt 0.31773800 0.00000000
vt 0.23940200 0.00000000
vt 0.23940200 0.00000000
vt 0.23940200 0.00000000
vt 0.31773800 0.97718100
vt 0.31773800 0.97718100
vt 0.31773800 0.97718100
vt 0.23940200 0.97718100
vt 0.23940200 0.97718100
vt 0.23940200 0.97718100
vt 0.31773800 0.24429500
vt 0.31773800 0.24429500
vt 0.31773800 0.48859100
vt 0.31773800 0.48859100
vt 0.31773800 0.73288600
vt 0.31773800 0.73288600
vt 0.23940200 0.73288600
vt 0.23940200 0.73288600
vt 0.23940200 0.48859100
vt 0.23940200 0.48859100
vt 0.23940200 0.24429500
vt 0.23940200 0.24429500
vt 0.15813600 0.00000000
vt 0.15813600 0.00000000
vt 0.15813600 0.00000000
vt 0.07980100 0.00000000
vt 0.07980100 0.00000000
vt 0.07980100 0.00000000
vt 0.15813600 0.34039900
vt 0.15813600 0.34039900
vt 0.15813600 0.34039900
vt 0.07980100 0.34039900
vt 0.07980100 0.34039900
vt 0.07980100 0.34039900
vt 0.07980100 0.17019900
vt 0.07980100 0.17019900
vt 0.07980100 0.17019900
vt 0.15813600 0.17019900
vt 0.15813600 0.17019900
vt 0.99853500 0.00000000
vt 0.99853500 0.00000000
vt 0.99853500 0.00000000
vt 0.65960100 0.00000000
vt 0.65960100 0.00000000
vt 0.65960100 0.00000000
vt 0.99853500 0.97718100
vt 0.99853500 0.97718100
vt 0.99853500 0.97718100
vt 0.65960100 0.97718100
vt 0.65960100 0.97718100
vt 0.65960100 0.97718100
vt 0.65960100 0.73288600
vt 0.65960100 0.73288600
vt 0.65960100 0.48859100
vt 0.65960100 0.48859100
vt 0.65960100 0.48859100
vt 0.65960100 0.24429500
vt 0.65960100 0.24429500
vt 0.65960100 0.24429500
vt 0.77257900 0.00000000
vt 0.77257900 0.00000000
vt 0.88555700 0.00000000
vt 0.88555700 0.00000000
vt 0.82906800 0.48859100
vt 0.74433500 0.48859100
vt 0.70196800 0.48859100
vt 0.74433500 0.24429500
vt 0.70196800 0.24429500
vt 0.78670200 0.48859100
vt 0.82906800 0.24429500
vt 0.78670200 0.24429500
vt 0.91380200 0.48859100
vt 0.87143500 0.48859100
vt 0.91380200 0.24429500
vt 0.87143500 0.24429500
vt 0.95616800 0.48859100
vt 0.95616800 0.24429500
vt 0.99853500 0.24429500
vt 0.99853500 0.24429500
vt 0.99853500 0.48859100
vt 0.99853500 0.48859100
vt 0.99853500 0.48859100
vt 0.99853500 0.73288600
vt 0.99853500 0.73288600
vt 0.99853500 0.73288600
vt 0.82906800 0.97718100
vt 0.82906800 0.97718100
vt 0.65813600 0.00000000
vt 0.65813600 0.00000000
vt 0.65813600 0.00000000
vt 0.31920300 0.00000000
vt 0.31920300 0.00000000
vt 0.31920300 0.00000000
vt 0.65813600 0.97718100
vt 0.65813600 0.97718100
vt 0.65813600 0.97718100
vt 0.31920300 0.97718100
vt 0.31920300 0.97718100
vt 0.31920300 0.97718100
vt 0.31920300 0.73288600
vt 0.31920300 0.73288600
vt 0.31920300 0.48859100
vt 0.31920300 0.48859100
vt 0.31920300 0.24429500
vt 0.31920300 0.24429500
vt 0.43218100 0.00000000
vt 0.43218100 0.00000000
vt 0.54515800 0.00000000
vt 0.54515800 0.00000000
vt 0.48866900 0.48859100
vt 0.40393600 0.48859100
vt 0.36156900 0.48859100
vt 0.40393600 0.24429500
vt 0.36156900 0.24429500
vt 0.44630300 0.48859100
vt 0.48866900 0.24429500
vt 0.44630300 0.24429500
vt 0.57340300 0.48859100
vt 0.53103600 0.48859100
vt 0.57340300 0.24429500
vt 0.53103600 0.24429500
vt 0.61577000 0.48859100
vt 0.61577000 0.24429500
vt 0.65813600 0.24429500
vt 0.65813600 0.24429500
vt 0.65813600 0.48859100
vt 0.65813600 0.48859100
vt 0.65813600 0.73288600
vt 0.65813600 0.73288600
vt 0.48866900 0.97718100
vt 0.48866900 0.97718100
vt 0.48866900 0.97718100
vt 0.23793700 0.00000000
vt 0.23793700 0.00000000
vt 0.23793700 0.00000000
vt 0.15960100 0.00000000
vt 0.15960100 0.00000000
vt 0.15960100 0.00000000
vt 0.23793700 0.97718100
vt 0.23793700 0.97718100
vt 0.23793700 0.97718100
vt 0.15960100 0.97718100
vt 0.15960100 0.97718100
vt 0.15960100 0.97718100
vt 0.23793700 0.24429500
vt 0.23793700 0.24429500
vt 0.23793700 0.48859100
vt 0.23793700 0.48859100
vt 0.23793700 0.73288600
vt 0.23793700 0.73288600
vt 0.15960100 0.73288600
vt 0.15960100 0.73288600
vt 0.15960100 0.73288600
vt 0.15960100 0.48859100
vt 0.15960100 0.48859100
vt 0.15960100 0.24429500
vt 0.15960100 0.24429500
vt 0.07833600 0.00000000
vt 0.07833600 0.00000000
vt 0.07833600 0.00000000
vt 0.00000000 0.00000000
vt 0.00000000 0.00000000
vt 0.00000000 0.00000000
vt 0.07833600 0.34039900
vt 0.07833600 0.34039900
vt 0.07833600 0.34039900
vt 0.00000000 0.34039900
vt 0.00000000 0.34039900
vt 0.00000000 0.34039900
vt 0.07833600 0.11346600
vt 0.07833600 0.11346600
vt 0.07833600 0.22693200
vt 0.07833600 0.22693200
vt 0.00000000 0.22693200
vt 0.00000000 0.22693200
vt 0.00000000 0.11346600
vt 0.00000000 0.11346600
vt 0.00000000 0.11346600
vt 0.31773800 0.00000000
vt 0.31773800 0.00000000
vt 0.31773800 0.00000000
vt 0.23940200 0.00000000
vt 0.23940200 0.00000000
vt 0.23940200 0.00000000
vt 0.31773800 0.97718100
vt 0.31773800 0.97718100
vt 0.31773800 0.97718100
vt 0.23940200 0.97718100
vt 0.23940200 0.97718100
vt 0.23940200 0.97718100
vt 0.31773800 0.24429500
vt 0.31773800 0.24429500
vt 0.31773800 0.48859100
vt 0.31773800 0.48859100
vt 0.31773800 0.73288600
vt 0.31773800 0.73288600
vt 0.23940200 0.73288600
vt 0.23940200 0.73288600
vt 0.23940200 0.48859100
vt 0.23940200 0.48859100
vt 0.23940200 0.24429500
vt 0.23940200 0.24429500
vt 0.15813600 0.00000000
vt 0.15813600 0.00000000
vt 0.15813600 0.00000000
vt 0.07980100 0.00000000
vt 0.07980100 0.00000000
vt 0.07980100 0.00000000
vt 0.15813600 0.34039900
vt 0.15813600 0.34039900
vt 0.15813600 0.34039900
vt 0.07980100 0.34039900
vt 0.07980100 0.34039900
vt 0.07980100 0.34039900
vt 0.07980100 0.17019900
vt 0.07980100 0.17019900
vt 0.07980100 0.17019900
vt 0.15813600 0.17019900
vt 0.15813600 0.17019900
vt 0.99853500 0.00000000
vt 0.99853500 0.00000000
vt 0.99853500 0.00000000
vt 0.65960100 0.00000000
vt 0.65960100 0.00000000
vt 0.65960100 0.00000000
vt 0.99853500 0.97718100
vt 0.99853500 0.97718100
vt 0.99853500 0.97718100
vt 0.65960100 0.97718100
vt 0.65960100 0.97718100
vt 0.65960100 0.97718100
vt 0.65960100 0.73288600
vt 0.65960100 0.73288600
vt 0.65960100 0.48859100
vt 0.65960100 0.48859100
vt 0.65960100 0.48859100
vt 0.65960100 0.24429500
vt 0.65960100 0.24429500
vt 0.65960100 0.24429500
vt 0.77257900 0.00000000
vt 0.77257900 0.00000000
vt 0.88555700 0.00000000
vt 0.88555700 0.00000000
vt 0.82906800 0.48859100
vt 0.74433500 0.48859100
vt 0.70196800 0.48859100
vt 0.74433500 0.24429500
vt 0.70196800 0.24429500
vt 0.78670200 0.48859100
vt 0.82906800 0.24429500
vt 0.78670200 0.24429500
vt 0.91380200 0.48859100
vt 0.87143500 0.48859100
vt 0.91380200 0.24429500
vt 0.87143500 0.24429500
vt 0.95616800 0.48859100
vt 0.95616800 0.24429500
vt 0.99853500 0.24429500
vt 0.99853500 0.24429500
vt 0.99853500 0.48859100
vt 0.99853500 0.48859100
vt 0.99853500 0.48859100
vt 0.99853500 0.73288600
vt 0.99853500 0.73288600
vt 0.99853500 0.73288600
vt 0.82906800 0.97718100
vt 0.82906800 0.97718100
vt 0.65813600 0.00000000
vt 0.65813600 0.00000000
vt 0.65813600 0.00000000
vt 0.31920300 0.00000000
vt 0.31920300 0.00000000
vt 0.31920300 0.00000000
vt 0.65813600 0.97718100
vt 0.65813600 0.97718100
vt 0.65813600 0.97718100
vt 0.31920300 0.97718100
vt 0.31920300 0.97718100
vt 0.31920300 0.97718100
vt 0.31920300 0.73288600
vt 0.31920300 0.73288600
vt 0.31920300 0.48859100
vt 0.31920300 0.48859100
vt 0.31920300 0.24429500
vt 0.31920300 0.24429500
vt 0.43218100 0.00000000
vt 0.43218100 0.00000000
vt 0.54515800 0.00000000
vt 0.54515800 0.00000000
vt 0.48866900 0.48859100
vt 0.40393600 0.48859100
vt 0.36156900 0.48859100
vt 0.40393600 0.24429500
vt 0.36156900 0.24429500
vt 0.44630300 0.48859100
vt 0.48866900 0.24429500
vt 0.44630300 0.24429500
vt 0.57340300 0.48859100
vt 0.53103600 0.48859100
vt 0.57340300 0.24429500
vt 0.53103600 0.24429500
vt 0.61577000 0.48859100
vt 0.61577000 0.24429500
vt 0.65813600 0.24429500
vt 0.65813600 0.24429500
vt 0.65813600 0.48859100
vt 0.65813600 0.48859100
vt 0.65813600 0.73288600
vt 0.65813600 0.73288600
vt 0.48866900 0.97718100
vt 0.48866900 0.97718100
vt 0.48866900 0.97718100
f 13/13/13 24/24/24 5/5/5
f 24/24/24 13/13/13 15/15/15
f 8/8/8 10/10/10 19/19/19
f 18/18/18 19/19/19 23/23/23
f 39/39/39 46/46/46 29/29/29
f 46/46/46 39/39/39 40/40/40
f 32/32/32 35/35/35 43/43/43
f 59/59/59 69/69/69 51/51/51
f 69/69/69 59/59/59 62/62/62
f 54/54/54 56/56/56 66/66/66
f 63/63/63 66/66/66 67/67/67
f 75/75/75 72/72/72 87/87/87
f 77/77/77 80/80/80 84/84/84
f 112/112/112 121/121/121 123/123/123
f 121/121/121 120/120/120 123/123/123
f 120/120/120 124/124/124 122/122/122
f 114/114/114 113/113/113 115/115/115
f 113/113/113 117/117/117 115/115/115
f 117/117/117 112/112/112 119/119/119
f 110/110/110 122/122/122 125/125/125
f 127/127/127 88/88/88 125/125/125
f 110/110/110 123/123/123 122/122/122
f 127/127/127 125/125/125 124/124/124
f 118/118/118 123/123/123 110/110/110
f 93/93/93 116/116/116 108/108/108
f 110/110/110 108/108/108 118/118/118
f 118/118/118 108/108/108 119/119/119
f 108/108/108 115/115/115 119/119/119
f 93/93/93 106/106/106 116/116/116
f 116/116/116 106/106/106 114/114/114
f 133/133/133 130/130/130 124/124/124
f 133/133/133 124/124/124 120/120/120
f 95/95/95 120/120/120 135/135/135
f 112/112/112 135/135/135 121/121/121
f 135/135/135 120/120/120 121/121/121
f 133/133/133 120/120/120 95/95/95
f 117/117/117 135/135/135 112/112/112
f 113/113/113 135/135/135 117/117/117
f 100/100/100 114/114/114 102/102/102
f 113/113/113 114/114/114 100/100/100
f 100/100/100 97/97/97 113/113/113
f 135/135/135 113/113/113 97/97/97
f 158/158/158 164/164/164 169/169/169
f 167/167/167 169/169/169 166/166/166
f 166/166/166 168/168/168 170/170/170
f 160/160/160 162/162/162 161/161/161
f 159/159/159 161/161/161 163/163/163
f 163/163/163 165/165/165 158/158/158
f 156/156/156 136/136/136 171/171/171
f 172/172/172 171/171/171 136/136/136
f 156/156/156 168/168/168 169/169/169
f 172/172/172 175/175/175 170/170/170
f 164/164/164 156/156/156 169/169/169
f 139/139/139 154/154/154 162/162/162
f 156/156/156 164/164/164 154/154/154
f 164/164/164 165/165/165 154/154/154
f 154/154/154 165/165/165 161/161/161
f 139/139/139 162/162/162 153/153/153
f 162/162/162 160/160/160 153/153/153
f 177/177/177 170/170/170 175/175/175
f 177/177/177 166/166/166 170/170/170
f 142/142/142 178/178/178 166/166/166
f 158/158/158 167/167/167 178/178/178
f 178/178/178 167/167/167 166/166/166
f 177/177/177 142/142/142 166/166/166
f 163/163/163 158/158/158 178/178/178
f 159/159/159 163/163/163 178/178/178
f 148/148/148 150/150/150 160/160/160
f 159/159/159 148/148/148 160/160/160
f 148/148/148 159/159/159 146/146/146
f 178/178/178 146/146/146 159/159/159
f 13/13/13 5/5/5 3/3/3
f 24/24/24 15/15/15 23/23/23
f 8/8/8 19/19/19 18/18/18
f 18/18/18 23/23/23 15/15/15
f 39/39/39 29/29/29 26/26/26
f 46/46/46 40/40/40 43/43/43
f 32/32/32 43/43/43 40/40/40
f 59/59/59 51/51/51 48/48/48
f 69/69/69 62/62/62 67/67/67
f 54/54/54 66/66/66 63/63/63
f 63/63/63 67/67/67 62/62/62
f 75/75/75 87/87/87 84/84/84
f 77/77/77 84/84/84 87/87/87
f 112/112/112 123/123/123 118/118/118
f 120/120/120 122/122/122 123/123/123
f 124/124/124 125/125/125 122/122/122
f 114/114/114 115/115/115 116/116/116
f 117/117/117 119/119/119 115/115/115
f 112/112/112 118/118/118 119/119/119
f 110/110/110 125/125/125 88/88/88
f 127/127/127 124/124/124 130/130/130
f 116/116/116 115/115/115 108/108/108
f 106/106/106 102/102/102 114/114/114
f 158/158/158 169/169/169 167/167/167
f 169/169/169 168/168/168 166/166/166
f 168/168/168 171/171/171 170/170/170
f 160/160/160 161/161/161 159/159/159
f 161/161/161 165/165/165 163/163/163
f 165/165/165 164/164/164 158/158/158
f 156/156/156 171/171/171 168/168/168
f 172/172/172 170/170/170 171/171/171
f 154/154/154 161/161/161 162/162/162
f 160/160/160 150/150/150 153/153/153
f 193/193/193 186/186/186 205/205/205
f 205/205/205 196/196/196 193/193/193
f 189/189/189 200/200/200 190/190/190
f 197/197/197 202/202/202 200/200/200
f 218/218/218 211/211/211 226/226/226
f 226/226/226 220/220/220 218/218/218
f 214/214/214 222/222/222 216/216/216
f 239/239/239 231/231/231 250/250/250
f 250/250/250 241/241/241 239/239/239
f 234/234/234 246/246/246 238/238/238
f 243/243/243 248/248/248 246/246/246
f 254/254/254 267/267/267 253/253/253
f 259/259/259 265/265/265 260/260/260
f 292/292/292 303/303/303 301/301/301
f 301/301/301 303/303/303 300/300/300
f 300/300/300 302/302/302 304/304/304
f 294/294/294 295/295/295 293/293/293
f 293/293/293 295/295/295 297/297/297
f 297/297/297 299/299/299 292/292/292
f 290/290/290 305/305/305 302/302/302
f 306/306/306 305/305/305 269/269/269
f 290/290/290 302/302/302 303/303/303
f 306/306/306 304/304/304 305/305/305
f 298/298/298 290/290/290 303/303/303
f 272/272/272 289/289/289 296/296/296
f 290/290/290 298/298/298 289/289/289
f 298/298/298 299/299/299 289/289/289
f 289/289/289 299/299/299 295/295/295
f 272/272/272 296/296/296 286/286/286
f 296/296/296 294/294/294 286/286/286
f 312/312/312 304/304/304 308/308/308
f 312/312/312 300/300/300 304/304/304
f 274/274/274 314/314/314 300/300/300
f 292/292/292 301/301/301 314/314/314
f 314/314/314 301/301/301 300/300/300
f 312/312/312 274/274/274 300/300/300
f 297/297/297 292/292/292 314/314/314
f 293/293/293 297/297/297 314/314/314
f 280/280/280 283/283/283 294/294/294
f 293/293/293 280/280/280 294/294/294
f 280/280/280 293/293/293 277/277/277
f 314/314/314 277/277/277 293/293/293
f 338/338/338 349/349/349 344/344/344
f 347/347/347 346/346/346 349/349/349
f 346/346/346 350/350/350 348/348/348
f 340/340/340 341/341/341 342/342/342
f 339/339/339 343/343/343 341/341/341
f 343/343/343 338/338/338 345/345/345
f 336/336/336 351/351/351 318/318/318
f 353/353/353 318/318/318 351/351/351
f 336/336/336 349/349/349 348/348/348
f 353/353/353 350/350/350 355/355/355
f 344/344/344 349/349/349 336/336/336
f 320/320/320 342/342/342 335/335/335
f 336/336/336 335/335/335 344/344/344
f 344/344/344 335/335/335 345/345/345
f 335/335/335 341/341/341 345/345/345
f 320/320/320 333/333/333 342/342/342
f 342/342/342 333/333/333 340/340/340
f 356/356/356 355/355/355 350/350/350
f 356/356/356 350/350/350 346/346/346
f 323/323/323 346/346/346 360/360/360
f 338/338/338 360/360/360 347/347/347
f 360/360/360 346/346/346 347/347/347
f 356/356/356 346/346/346 323/323/323
f 343/343/343 360/360/360 338/338/338
f 339/339/339 360/360/360 343/343/343
f 329/329/329 340/340/340 331/331/331
f 339/339/339 340/340/340 329/329/329
f 329/329/329 325/325/325 339/339/339
f 360/360/360 339/339/339 325/325/325
f 193/193/193 183/183/183 186/186/186
f 205/205/205 202/202/202 196/196/196
f 189/189/189 197/197/197 200/200/200
f 197/197/197 196/196/196 202/202/202
f 218/218/218 207/207/207 211/211/211
f 226/226/226 222/222/222 220/220/220
f 214/214/214 220/220/220 222/222/222
f 239/239/239 228/228/228 231/231/231
f 250/250/250 248/248/248 241/241/241
f 234/234/234 243/243/243 246/246/246
f 243/243/243 241/241/241 248/248/248
f 254/254/254 265/265/265 267/267/267
f 259/259/259 267/267/267 265/265/265
f 292/292/292 298/298/298 303/303/303
f 300/300/300 303/303/303 302/302/302
f 304/304/304 302/302/302 305/305/305
f 294/294/294 296/296/296 295/295/295
f 297/297/297 295/295/295 299/299/299
f 292/292/292 299/299/299 298/298/298
f 290/290/290 269/269/269 305/305/305
f 306/306/306 308/308/308 304/304/304
f 296/296/296 289/289/289 295/295/295
f 286/286/286 294/294/294 283/283/283
f 338/338/338 347/347/347 349/349/349
f 349/349/349 346/346/346 348/348/348
f 348/348/348 350/350/350 351/351/351
f 340/340/340 339/339/339 341/341/341
f 341/341/341 343/343/343 345/345/345
f 345/345/345 338/338/338 344/344/344
f 336/336/336 348/348/348 351/351/351
f 353/353/353 351/351/351 350/350/350
f 335/335/335 342/342/342 341/341/341
f 340/340/340 333/333/333 331/331/331
f 1/1/1 6/6/6 185/185/185
f 185/185/185 181/181/181 1/1/1
f 11/11/11 9/9/9 187/187/187
f 187/187/187 191/191/191 11/11/11
f 14/14/14 2/2/2 182/182/182
f 182/182/182 194/194/194 14/14/14
f 16/16/16 14/14/14 194/194/194
f 194/194/194 195/195/195 16/16/16
f 7/7/7 17/17/17 198/198/198
f 198/198/198 188/188/188 7/7/7
f 28/28/28 31/31/31 210/210/210
f 210/210/210 206/206/206 28/28/28
f 36/36/36 34/34/34 212/212/212
f 212/212/212 217/217/217 36/36/36
f 38/38/38 27/27/27 208/208/208
f 208/208/208 219/219/219 38/38/38
f 41/41/41 38/38/38 219/219/219
f 219/219/219 221/221/221 41/41/41
f 57/57/57 53/53/53 235/235/235
f 235/235/235 237/237/237 57/57/57
f 60/60/60 47/47/47 229/229/229
f 229/229/229 240/240/240 60/60/60
f 61/61/61 60/60/60 240/240/240
f 240/240/240 242/242/242 61/61/61
f 73/73/73 74/74/74 256/256/256
f 256/256/256 251/251/251 73/73/73
f 82/82/82 78/78/78 257/257/257
f 257/257/257 262/262/262 82/82/82
f 86/86/86 71/71/71 252/252/252
f 252/252/252 266/266/266 86/86/86
f 101/101/101 103/103/103 284/284/284
f 284/284/284 281/281/281 101/101/101
f 90/90/90 126/126/126 307/307/307
f 307/307/307 268/268/268 90/90/90
f 128/128/128 131/131/131 313/313/313
f 313/313/313 309/309/309 128/128/128
f 94/94/94 134/134/134 315/315/315
f 315/315/315 276/276/276 94/94/94
f 149/149/149 147/147/147 326/326/326
f 326/326/326 328/328/328 149/149/149
f 141/141/141 152/152/152 332/332/332
f 332/332/332 321/321/321 141/141/141
f 155/155/155 140/140/140 319/319/319
f 319/319/319 334/334/334 155/155/155
f 157/157/157 155/155/155 334/334/334
f 334/334/334 337/337/337 157/157/157
f 132/132/132 96/96/96 275/275/275
f 275/275/275 311/311/311 132/132/132
f 174/174/174 173/173/173 352/352/352
f 352/352/352 354/354/354 174/174/174
f 25/25/25 22/22/22 203/203/203
f 203/203/203 204/204/204 25/25/25
f 143/143/143 176/176/176 357/357/357
f 357/357/357 324/324/324 143/143/143
f 33/33/33 41/41/41 221/221/221
f 221/221/221 213/213/213 33/33/33
f 134/134/134 99/99/99 278/278/278
f 278/278/278 315/315/315 134/134/134
f 76/76/76 85/85/85 264/264/264
f 264/264/264 255/255/255 76/76/76
f 45/45/45 42/42/42 223/223/223
f 223/223/223 225/225/225 45/45/45
f 49/49/49 52/52/52 230/230/230
f 230/230/230 227/227/227 49/49/49
f 104/104/104 107/107/107 287/287/287
f 287/287/287 282/282/282 104/104/104
f 17/17/17 16/16/16 195/195/195
f 195/195/195 198/198/198 17/17/17
f 21/21/21 12/12/12 192/192/192
f 192/192/192 201/201/201 21/21/21
f 22/22/22 20/20/20 199/199/199
f 199/199/199 203/203/203 22/22/22
f 4/4/4 25/25/25 204/204/204
f 204/204/204 184/184/184 4/4/4
f 42/42/42 37/37/37 215/215/215
f 215/215/215 223/223/223 42/42/42
f 30/30/30 44/44/44 224/224/224
f 224/224/224 209/209/209 30/30/30
f 64/64/64 61/61/61 242/242/242
f 242/242/242 244/244/244 64/64/64
f 65/65/65 58/58/58 236/236/236
f 236/236/236 245/245/245 65/65/65
f 68/68/68 65/65/65 245/245/245
f 245/245/245 247/247/247 68/68/68
f 50/50/50 70/70/70 249/249/249
f 249/249/249 232/232/232 50/50/50
f 83/83/83 81/81/81 261/261/261
f 261/261/261 263/263/263 83/83/83
f 98/98/98 101/101/101 281/281/281
f 281/281/281 279/279/279 98/98/98
f 105/105/105 92/92/92 271/271/271
f 271/271/271 285/285/285 105/105/105
f 91/91/91 109/109/109 288/288/288
f 288/288/288 273/273/273 91/91/91
f 109/109/109 111/111/111 291/291/291
f 291/291/291 288/288/288 109/109/109
f 151/151/151 149/149/149 328/328/328
f 328/328/328 330/330/330 151/151/151
f 137/137/137 157/157/157 337/337/337
f 337/337/337 316/316/316 137/137/137
f 173/173/173 138/138/138 317/317/317
f 317/317/317 352/352/352 173/173/173
f 179/179/179 144/144/144 322/322/322
f 322/322/322 358/358/358 179/179/179
f 70/70/70 68/68/68 247/247/247
f 247/247/247 249/249/249 70/70/70
f 176/176/176 174/174/174 354/354/354
f 354/354/354 357/357/357 176/176/176
f 152/152/152 151/151/151 330/330/330
f 330/330/330 332/332/332 152/152/152
f 111/111/111 89/89/89 270/270/270
f 270/270/270 291/291/291 111/111/111
f 55/55/55 64/64/64 244/244/244
f 244/244/244 233/233/233 55/55/55
f 79/79/79 86/86/86 266/266/266
f 266/266/266 258/258/258 79/79/79
f 145/145/145 180/180/180 359/359/359
f 359/359/359 327/327/327 145/145/145
f 126/126/126 129/129/129 310/310/310
f 310/310/310 307/307/307 126/126/126

