mtllib material.mtl
usemtl Material-7011油漆.023
v -0.01323900 0.12563200 -0.02596800
v -0.01323900 0.12563200 -0.02596800
v -0.01323900 0.12563200 -0.02596800
v -0.01323900 0.12493200 -0.02596800
v -0.01323900 0.12493200 -0.02596800
v -0.01323900 0.12493200 -0.02596800
v -0.01334600 0.12528500 -0.02895300
v -0.01334600 0.12528500 -0.02895300
v -0.01334600 0.12528500 -0.02895300
v -0.01810900 0.12493200 -0.02878800
v -0.01810900 0.12493200 -0.02878800
v -0.01810900 0.12493200 -0.02878800
v -0.01819600 0.12563200 -0.02877800
v -0.01819600 0.12563200 -0.02877800
v -0.01819600 0.12563200 -0.02877800
v -0.01334700 0.12528500 -0.02895400
v -0.01334700 0.12528500 -0.02895400
v -0.01334700 0.12528500 -0.02895400
v -0.02093300 0.12514700 -0.02900800
v -0.02093300 0.12514700 -0.02900800
v -0.02093300 0.12514700 -0.02900800
v -0.01323900 0.12493100 -0.02596800
v -0.01323900 0.12493100 -0.02596800
v -0.01323900 0.12493100 -0.02596800
v -0.02480200 0.12493100 -0.02555100
v -0.02480200 0.12493100 -0.02555100
v -0.02480200 0.12493100 -0.02555100
v -0.01810900 0.12493100 -0.02878800
v -0.01810900 0.12493100 -0.02878800
v -0.01810900 0.12493100 -0.02878800
v -0.01334700 0.12528500 -0.02895300
v -0.01334700 0.12528500 -0.02895300
v -0.01334700 0.12528500 -0.02895300
v -0.01933400 0.12535700 -0.03359000
v -0.01933400 0.12535700 -0.03359000
v -0.01933400 0.12535700 -0.03359000
v -0.02480200 0.12563200 -0.02555100
v -0.02480200 0.12563200 -0.02555100
v -0.02480200 0.12563200 -0.02555100
v -0.01819600 0.12563200 -0.02877700
v -0.01819600 0.12563200 -0.02877700
v -0.01819600 0.12563200 -0.02877700
v -0.02093300 0.12514800 -0.02900800
v -0.02093300 0.12514800 -0.02900800
v -0.02093300 0.12514800 -0.02900800
v -0.02093300 0.12514800 -0.02900800
v -0.01323900 0.12563200 -0.02596800
v -0.01323900 0.12563200 -0.02596800
v -0.01323900 0.12563200 -0.02596800
v -0.01334700 0.12528600 -0.02895300
v -0.01334700 0.12528600 -0.02895300
v -0.01334700 0.12528600 -0.02895300
v -0.01933400 0.12535800 -0.03359000
v -0.01933400 0.12535800 -0.03359000
v -0.01933400 0.12535800 -0.03359000
v -0.02093300 0.12514700 -0.02900800
v -0.02093300 0.12514700 -0.02900800
v -0.02093300 0.12514700 -0.02900800
v -0.02480300 0.12493200 -0.02555200
v -0.02480300 0.12493200 -0.02555200
v -0.02480300 0.12493200 -0.02555200
v -0.02480300 0.12563200 -0.02555200
v -0.02480300 0.12563200 -0.02555200
v -0.02480300 0.12563200 -0.02555200
v -0.01323900 0.12493200 -0.02596700
v -0.01323900 0.12493200 -0.02596700
v -0.01323900 0.12493200 -0.02596700
v -0.02480200 0.12563200 -0.02555100
v -0.02480200 0.12563200 -0.02555100
v -0.02480200 0.12563200 -0.02555100
v -0.02480200 0.12493200 -0.02555100
v -0.02480200 0.12493200 -0.02555100
v -0.02480200 0.12493200 -0.02555100
v -0.01323900 0.12563200 -0.02596700
v -0.01323900 0.12563200 -0.02596700
v -0.01323900 0.12563200 -0.02596700
v -0.01819500 0.12563200 -0.02877700
v -0.01819500 0.12563200 -0.02877700
v -0.01819500 0.12563200 -0.02877700
v -0.01810800 0.12493200 -0.02878800
v -0.01810800 0.12493200 -0.02878800
v -0.01810800 0.12493200 -0.02878800
v -0.01933300 0.12535800 -0.03359000
v -0.01933300 0.12535800 -0.03359000
v -0.01933300 0.12535800 -0.03359000
v -0.01324000 0.12563200 -0.02596800
v -0.01324000 0.12563200 -0.02596800
v -0.01324000 0.12563200 -0.02596800
v -0.01324000 0.12493200 -0.02596800
v -0.01324000 0.12493200 -0.02596800
v -0.01324000 0.12493200 -0.02596800
v -0.01334700 0.12528500 -0.02895300
v -0.01334700 0.12528500 -0.02895300
v -0.01334700 0.12528500 -0.02895300
v -0.01810900 0.12493200 -0.02878700
v -0.01810900 0.12493200 -0.02878700
v -0.01810900 0.12493200 -0.02878700
v -0.01819600 0.12563200 -0.02877700
v -0.01819600 0.12563200 -0.02877700
v -0.01819600 0.12563200 -0.02877700
v -0.01334700 0.12528500 -0.02895300
v -0.01334700 0.12528500 -0.02895300
v -0.01334700 0.12528500 -0.02895300
v -0.02093300 0.12514800 -0.02900800
v -0.02093300 0.12514800 -0.02900800
v -0.02093300 0.12514800 -0.02900800
v -0.02093300 0.12514800 -0.02900800
v -0.02093300 0.12514800 -0.02900800
v -0.01323900 0.12493200 -0.02596800
v -0.01323900 0.12493200 -0.02596800
v -0.01323900 0.12493200 -0.02596800
v -0.01323900 0.12493200 -0.02596800
v -0.01323900 0.12493200 -0.02596800
v -0.02480200 0.12493200 -0.02555100
v -0.02480200 0.12493200 -0.02555100
v -0.02480200 0.12493200 -0.02555100
v -0.01810900 0.12493200 -0.02878800
v -0.01810900 0.12493200 -0.02878800
v -0.01810900 0.12493200 -0.02878800
v -0.01810900 0.12493200 -0.02878800
v -0.01810900 0.12493200 -0.02878800
v -0.01334700 0.12528600 -0.02895300
v -0.01334700 0.12528600 -0.02895300
v -0.01334700 0.12528600 -0.02895300
v -0.01933400 0.12535800 -0.03359000
v -0.01933400 0.12535800 -0.03359000
v -0.01933400 0.12535800 -0.03359000
v -0.02480200 0.12563100 -0.02555100
v -0.02480200 0.12563100 -0.02555100
v -0.02480200 0.12563100 -0.02555100
v -0.02480200 0.12563100 -0.02555100
v -0.01819600 0.12563100 -0.02877700
v -0.01819600 0.12563100 -0.02877700
v -0.01819600 0.12563100 -0.02877700
v -0.01819600 0.12563100 -0.02877700
v -0.01819600 0.12563100 -0.02877700
v -0.01819600 0.12563100 -0.02877700
v -0.02093300 0.12514700 -0.02900800
v -0.02093300 0.12514700 -0.02900800
v -0.02093300 0.12514700 -0.02900800
v -0.02093300 0.12514700 -0.02900800
v -0.01323900 0.12563100 -0.02596800
v -0.01323900 0.12563100 -0.02596800
v -0.01323900 0.12563100 -0.02596800
v -0.01323900 0.12563100 -0.02596800
v -0.01334700 0.12528500 -0.02895300
v -0.01334700 0.12528500 -0.02895300
v -0.01334700 0.12528500 -0.02895300
v -0.01933400 0.12535700 -0.03359000
v -0.01933400 0.12535700 -0.03359000
v -0.01933400 0.12535700 -0.03359000
v -0.02093200 0.12514700 -0.02900800
v -0.02093200 0.12514700 -0.02900800
v -0.02093200 0.12514700 -0.02900800
v -0.02480200 0.12493200 -0.02555100
v -0.02480200 0.12493200 -0.02555100
v -0.02480200 0.12493200 -0.02555100
v -0.02480200 0.12563200 -0.02555100
v -0.02480200 0.12563200 -0.02555100
v -0.02480200 0.12563200 -0.02555100
v -0.01323900 0.12493200 -0.02596800
v -0.01323900 0.12493200 -0.02596800
v -0.01323900 0.12493200 -0.02596800
v -0.02480200 0.12563200 -0.02555200
v -0.02480200 0.12563200 -0.02555200
v -0.02480200 0.12563200 -0.02555200
v -0.02480200 0.12493200 -0.02555200
v -0.02480200 0.12493200 -0.02555200
v -0.02480200 0.12493200 -0.02555200
v -0.01323900 0.12563200 -0.02596800
v -0.01323900 0.12563200 -0.02596800
v -0.01323900 0.12563200 -0.02596800
v -0.01819600 0.12563200 -0.02877700
v -0.01819600 0.12563200 -0.02877700
v -0.01819600 0.12563200 -0.02877700
v -0.01810900 0.12493200 -0.02878800
v -0.01810900 0.12493200 -0.02878800
v -0.01810900 0.12493200 -0.02878800
v -0.01933400 0.12535800 -0.03359000
v -0.01933400 0.12535800 -0.03359000
v -0.01933400 0.12535800 -0.03359000
vn 0.99940000 0.00000000 -0.03600000
vn -0.00390000 0.99330000 -0.11520000
vn 0.03380000 0.00000000 0.99940000
vn 0.99940000 0.00000000 -0.03600000
vn -0.00390000 -0.99310000 -0.11730000
vn 0.03380000 0.00000000 0.99940000
vn 0.99940000 0.00000000 -0.03600000
vn -0.00390000 -0.99310000 -0.11730000
vn -0.00390000 0.99330000 -0.11520000
vn -0.03600000 -0.00000000 -0.99940000
vn 0.06260000 -0.99800000 -0.01330000
vn -0.99190000 -0.12520000 0.02260000
vn 0.08240000 0.99660000 0.00980000
vn -0.03600000 -0.00000000 -0.99940000
vn -0.99150000 -0.12220000 0.04430000
vn 0.06660000 0.99780000 0.00230000
vn 0.08330000 -0.99650000 -0.00770000
vn -0.03600000 -0.00000000 -0.99940000
vn -0.91470000 0.00760000 -0.40410000
vn -0.69240000 0.10520000 -0.71390000
vn -0.00000000 -1.00000000 0.00000000
vn 0.99490000 -0.07590000 -0.06620000
vn 0.09700000 -0.05050000 0.99400000
vn -0.00000000 -1.00000000 0.00000000
vn -0.02700000 -0.05600000 0.99810000
vn -0.65160000 -0.00650000 -0.75850000
vn -0.00000000 -1.00000000 0.00000000
vn 0.00450000 -0.09830000 -0.99520000
vn 0.97210000 -0.14140000 -0.18710000
vn -0.00000000 -1.00000000 0.00000000
vn 0.98470000 0.16450000 0.05810000
vn -0.16210000 0.09600000 -0.98210000
vn -0.00000000 -1.00000000 0.00000000
vn 0.95830000 0.02900000 -0.28430000
vn -0.00000000 -1.00000000 0.00000000
vn -0.96950000 0.01880000 -0.24440000
vn -0.00000000 1.00000000 0.00000000
vn -0.56910000 0.11100000 -0.81470000
vn 0.03550000 0.09860000 0.99450000
vn -0.00000000 1.00000000 0.00000000
vn -0.00080000 0.04020000 -0.99920000
vn 0.98690000 0.14790000 -0.06470000
vn -0.79780000 -0.36810000 -0.47750000
vn -0.00000000 1.00000000 0.00000000
vn 0.00000000 1.00000000 -0.00050000
vn -0.85330000 -0.17720000 -0.49030000
vn -0.00000000 1.00000000 0.00000000
vn 0.03550000 0.09860000 0.99450000
vn 0.99530000 0.07180000 -0.06490000
vn -0.16240000 -0.14910000 -0.97540000
vn -0.00000000 1.00000000 0.00000000
vn 0.98490000 -0.16410000 0.05490000
vn -0.96860000 -0.04360000 -0.24460000
vn -0.00000000 1.00000000 0.00000000
vn 0.92850000 0.00620000 -0.37130000
vn 0.07050000 0.99380000 -0.08540000
vn 0.03150000 -0.99840000 -0.04640000
vn -0.65240000 0.00000000 -0.75790000
vn -0.65240000 0.00000000 -0.75790000
vn -0.74380000 0.01830000 0.66820000
vn 0.04260000 -0.99900000 -0.01390000
vn 0.08020000 0.99540000 -0.05240000
vn -0.65240000 0.00000000 -0.75790000
vn -0.74440000 -0.01830000 0.66750000
vn -0.00000000 -1.00000000 0.00000000
vn 0.03600000 0.00000000 0.99940000
vn 0.99930000 0.00000000 -0.03640000
vn -0.99940000 0.00000000 0.03540000
vn -0.00000000 1.00000000 0.00000000
vn 0.03600000 0.00000000 0.99940000
vn -0.00000000 -1.00000000 0.00000000
vn -0.99940000 0.00000000 0.03540000
vn 0.03600000 0.00000000 0.99940000
vn 0.03600000 0.00000000 0.99940000
vn 0.99930000 0.00000000 -0.03640000
vn -0.00000000 1.00000000 0.00000000
vn 0.03740000 0.98020000 -0.19440000
vn 0.08540000 0.19640000 0.97680000
vn 0.99940000 0.00000000 -0.03600000
vn 0.99940000 0.00000000 -0.03600000
vn 0.36670000 -0.17520000 0.91370000
vn 0.32130000 -0.94570000 -0.04840000
vn 0.99940000 0.00000000 -0.03600000
vn 0.00280000 0.98540000 0.17020000
vn -0.13790000 -0.98110000 -0.13560000
vn 0.03380000 0.00000000 0.99940000
vn -0.99940000 0.00000000 0.03600000
vn -0.00390000 0.99330000 -0.11520000
vn -0.00390000 -0.99310000 -0.11730000
vn -0.99940000 0.00000000 0.03600000
vn 0.03380000 0.00000000 0.99940000
vn -0.99940000 0.00000000 0.03600000
vn -0.00390000 -0.99310000 -0.11730000
vn -0.00390000 0.99330000 -0.11520000
vn 0.02490000 -0.01360000 0.99960000
vn 0.07230000 -0.99740000 -0.00130000
vn -0.99030000 -0.13460000 0.03480000
vn 0.06960000 0.99760000 0.00120000
vn 0.04630000 -0.00980000 0.99890000
vn -0.99030000 -0.13450000 0.03510000
vn 0.08130000 0.99670000 0.00680000
vn 0.06890000 -0.99760000 -0.00220000
vn 0.03490000 0.00000000 0.99940000
vn 0.03440000 0.99920000 -0.02250000
vn -0.70150000 0.01360000 -0.71260000
vn 0.02250000 0.99180000 0.12620000
vn -0.96190000 -0.01510000 -0.27310000
vn 0.10030000 0.99470000 0.02320000
vn 0.02620000 0.99960000 0.00450000
vn 0.99420000 0.02110000 0.10540000
vn 0.01560000 -0.01040000 0.99980000
vn 0.06920000 0.99100000 0.11470000
vn 0.02350000 0.99970000 0.01140000
vn -0.71010000 0.03710000 -0.70310000
vn -0.04090000 0.99900000 0.01650000
vn 0.05190000 -0.00930000 0.99860000
vn 0.09680000 0.94300000 -0.31850000
vn -0.17420000 -0.00510000 -0.98470000
vn 0.15110000 0.98030000 0.12700000
vn 0.98460000 -0.00130000 -0.17490000
vn -0.07460000 0.99700000 -0.01870000
vn -0.09950000 -0.08920000 -0.99100000
vn 0.99650000 -0.02970000 0.07800000
vn -0.18250000 0.96370000 0.19510000
vn 0.98670000 -0.02990000 -0.15950000
vn -0.00580000 0.99090000 0.13430000
vn -0.92780000 -0.02200000 -0.37250000
vn -0.86640000 -0.05270000 -0.49660000
vn -0.00000000 -1.00000000 0.00000000
vn -0.07790000 -0.99560000 0.05230000
vn 0.03550000 0.09860000 0.99450000
vn 0.97930000 -0.06210000 -0.19270000
vn 0.21080000 -0.96010000 0.18360000
vn -0.07200000 -0.99730000 -0.01760000
vn 0.17700000 -0.98360000 -0.03350000
vn -0.00000000 -1.00000000 0.00000000
vn -0.17350000 -0.05190000 -0.98350000
vn -0.80090000 0.07590000 -0.59390000
vn 0.18600000 -0.79230000 0.58110000
vn 0.22760000 -0.96230000 -0.14890000
vn -0.93400000 -0.01680000 -0.35680000
vn 0.99450000 -0.02410000 0.10210000
vn 0.03550000 0.09860000 0.99450000
vn -0.00000000 -1.00000000 0.00000000
vn 0.06870000 -0.99130000 0.11270000
vn -0.17780000 -0.96550000 0.19040000
vn -0.10380000 0.03180000 -0.99410000
vn 0.99680000 0.02530000 0.07640000
vn 0.98940000 -0.04430000 -0.13850000
vn -0.87890000 -0.08990000 -0.46850000
vn -0.00060000 -0.99990000 0.01250000
vn 0.04920000 -0.99840000 -0.02740000
vn 0.08750000 0.99400000 -0.06570000
vn 0.67980000 -0.00090000 0.73340000
vn 0.04500000 -0.99820000 -0.03970000
vn 0.66560000 0.01830000 0.74610000
vn -0.75550000 -0.00080000 0.65510000
vn -0.75550000 0.00170000 0.65520000
vn 0.66480000 -0.01830000 0.74680000
vn 0.08380000 0.99340000 -0.07790000
vn -0.00000000 -1.00000000 0.00000000
vn -0.03600000 -0.00000000 -0.99940000
vn 0.99930000 0.00000000 -0.03640000
vn -0.99940000 0.00000000 0.03540000
vn -0.03600000 -0.00000000 -0.99940000
vn -0.00000000 1.00000000 0.00000000
vn -0.00000000 -1.00000000 0.00000000
vn -0.99940000 0.00000000 0.03540000
vn -0.03600000 -0.00000000 -0.99940000
vn 0.99930000 0.00000000 -0.03640000
vn -0.03600000 -0.00000000 -0.99940000
vn -0.00000000 1.00000000 0.00000000
vn -0.99210000 0.07120000 0.10310000
vn 0.05420000 -0.13490000 0.98940000
vn 0.04150000 0.98960000 0.13780000
vn 0.03550000 -0.99280000 0.11460000
vn -0.88680000 -0.32830000 0.32540000
vn 0.04700000 -0.12540000 0.99100000
vn 0.07260000 -0.99000000 0.12130000
vn 0.06900000 0.98530000 -0.15620000
vn -0.90220000 -0.00620000 0.43120000
vt 0.81311700 1.00000000
vt 0.81311700 1.00000000
vt 0.81311700 1.00000000
vt 0.81311700 0.98599100
vt 0.81311700 0.98599100
vt 0.81311700 0.98599100
vt 0.83668000 0.99305900
vt 0.83668000 0.99305900
vt 0.83668000 0.99305900
vt 0.87425500 0.98599100
vt 0.87425500 0.98599100
vt 0.87425500 0.98599100
vt 0.87494500 1.00000000
vt 0.87494500 1.00000000
vt 0.87494500 1.00000000
vt 0.83667000 0.99305900
vt 0.83667000 0.99305900
vt 0.83667000 0.99305900
vt 0.02045400 0.06645600
vt 0.02045400 0.06645600
vt 0.02045400 0.06645600
vt 0.04154600 -0.00000000
vt 0.04154600 -0.00000000
vt 0.04154600 -0.00000000
vt 0.00934800 -0.00000000
vt 0.00934800 -0.00000000
vt 0.00934800 -0.00000000
vt 0.02828700 0.05990900
vt 0.02828700 0.05990900
vt 0.02828700 0.05990900
vt 0.04154600 0.05978200
vt 0.04154600 0.05978200
vt 0.04154600 0.05978200
vt 0.02535400 0.15676000
vt 0.02535400 0.15676000
vt 0.02535400 0.15676000
vt 0.00934800 -0.00000000
vt 0.00934800 -0.00000000
vt 0.00934800 -0.00000000
vt 0.02804400 0.05975700
vt 0.02804400 0.05975700
vt 0.02804400 0.05975700
vt 0.02043200 0.06630600
vt 0.02043200 0.06630600
vt 0.02043200 0.06630600
vt 0.02043200 0.06630600
vt 0.04154600 0.00000000
vt 0.04154600 0.00000000
vt 0.04154600 0.00000000
vt 0.04154600 0.05978200
vt 0.04154600 0.05978200
vt 0.04154600 0.05978200
vt 0.02536100 0.15683400
vt 0.02536100 0.15683400
vt 0.02536100 0.15683400
vt 0.68092500 0.99030400
vt 0.68092500 0.99030400
vt 0.68092500 0.99030400
vt 0.72184700 0.98599100
vt 0.72184700 0.98599100
vt 0.72184700 0.98599100
vt 0.72184700 1.00000000
vt 0.72184700 1.00000000
vt 0.72184700 1.00000000
vt 0.81311700 0.98599100
vt 0.81311700 0.98599100
vt 0.81311700 0.98599100
vt 0.72184700 1.00000000
vt 0.72184700 1.00000000
vt 0.72184700 1.00000000
vt 0.72184700 0.98599100
vt 0.72184700 0.98599100
vt 0.72184700 0.98599100
vt 0.81311700 1.00000000
vt 0.81311700 1.00000000
vt 0.81311700 1.00000000
vt 0.87494500 1.00000000
vt 0.87494500 1.00000000
vt 0.87494500 1.00000000
vt 0.87500500 0.98599100
vt 0.87500500 0.98599100
vt 0.87500500 0.98599100
vt 0.91360600 0.99698300
vt 0.91360600 0.99698300
vt 0.91360600 0.99698300
vt 0.81311700 1.00000000
vt 0.81311700 1.00000000
vt 0.81311700 1.00000000
vt 0.81311700 0.98599100
vt 0.81311700 0.98599100
vt 0.81311700 0.98599100
vt 0.83668000 0.99305900
vt 0.83668000 0.99305900
vt 0.83668000 0.99305900
vt 0.87425500 0.98599100
vt 0.87425500 0.98599100
vt 0.87425500 0.98599100
vt 0.87494500 1.00000000
vt 0.87494500 1.00000000
vt 0.87494500 1.00000000
vt 0.83667000 0.99305900
vt 0.83667000 0.99305900
vt 0.83667000 0.99305900
vt 0.02045400 0.06645600
vt 0.02045400 0.06645600
vt 0.02045400 0.06645600
vt 0.02045400 0.06645600
vt 0.02045400 0.06645600
vt 0.04154600 -0.00000000
vt 0.04154600 -0.00000000
vt 0.04154600 -0.00000000
vt 0.04154600 -0.00000000
vt 0.04154600 -0.00000000
vt 0.00934800 -0.00000000
vt 0.00934800 -0.00000000
vt 0.00934800 -0.00000000
vt 0.02828700 0.05990900
vt 0.02828700 0.05990900
vt 0.02828700 0.05990900
vt 0.02828700 0.05990900
vt 0.02828700 0.05990900
vt 0.04154600 0.05978200
vt 0.04154600 0.05978200
vt 0.04154600 0.05978200
vt 0.02535400 0.15676000
vt 0.02535400 0.15676000
vt 0.02535400 0.15676000
vt 0.00934800 -0.00000000
vt 0.00934800 -0.00000000
vt 0.00934800 -0.00000000
vt 0.00934800 -0.00000000
vt 0.02804400 0.05975700
vt 0.02804400 0.05975700
vt 0.02804400 0.05975700
vt 0.02804400 0.05975700
vt 0.02804400 0.05975700
vt 0.02804400 0.05975700
vt 0.02043200 0.06630600
vt 0.02043200 0.06630600
vt 0.02043200 0.06630600
vt 0.02043200 0.06630600
vt 0.04154600 0.00000000
vt 0.04154600 0.00000000
vt 0.04154600 0.00000000
vt 0.04154600 0.00000000
vt 0.04154600 0.05978200
vt 0.04154600 0.05978200
vt 0.04154600 0.05978200
vt 0.02536100 0.15683400
vt 0.02536100 0.15683400
vt 0.02536100 0.15683400
vt 0.68092500 0.99030400
vt 0.68092500 0.99030400
vt 0.68092500 0.99030400
vt 0.72184700 0.98599100
vt 0.72184700 0.98599100
vt 0.72184700 0.98599100
vt 0.72184700 1.00000000
vt 0.72184700 1.00000000
vt 0.72184700 1.00000000
vt 0.81311700 0.98599100
vt 0.81311700 0.98599100
vt 0.81311700 0.98599100
vt 0.72184700 1.00000000
vt 0.72184700 1.00000000
vt 0.72184700 1.00000000
vt 0.72184700 0.98599100
vt 0.72184700 0.98599100
vt 0.72184700 0.98599100
vt 0.81311700 1.00000000
vt 0.81311700 1.00000000
vt 0.81311700 1.00000000
vt 0.87494500 1.00000000
vt 0.87494500 1.00000000
vt 0.87494500 1.00000000
vt 0.87500500 0.98599100
vt 0.87500500 0.98599100
vt 0.87500500 0.98599100
vt 0.91360600 0.99698300
vt 0.91360600 0.99698300
vt 0.91360600 0.99698300
f 1/1/1 4/4/4 7/7/7
f 10/10/10 14/14/14 18/18/18
f 21/21/21 24/24/24 27/27/27
f 24/24/24 21/21/21 30/30/30
f 30/30/30 33/33/33 24/24/24
f 21/21/21 35/35/35 30/30/30
f 37/37/37 40/40/40 44/44/44
f 40/40/40 37/37/37 47/47/47
f 40/40/40 47/47/47 51/51/51
f 40/40/40 54/54/54 45/45/45
f 58/58/58 59/59/59 63/63/63
f 66/66/66 74/74/74 70/70/70
f 79/79/79 80/80/80 83/83/83
f 66/66/66 70/70/70 73/73/73
f 87/87/87 92/92/92 90/90/90
f 95/95/95 103/103/103 99/99/99
f 106/106/106 115/115/115 109/109/109
f 113/113/113 117/117/117 108/108/108
f 121/121/121 112/112/112 124/124/124
f 104/104/104 119/119/119 126/126/126
f 130/130/130 139/139/139 135/135/135
f 136/136/136 144/144/144 129/129/129
f 134/134/134 146/146/146 145/145/145
f 133/133/133 140/140/140 151/151/151
f 154/154/154 159/159/159 156/156/156
f 162/162/162 165/165/165 171/171/171
f 173/173/173 181/181/181 177/177/177
f 162/162/162 169/169/169 165/165/165
f 6/6/6 3/3/3 86/86/86
f 86/86/86 91/91/91 6/6/6
f 2/2/2 9/9/9 94/94/94
f 94/94/94 88/88/88 2/2/2
f 15/15/15 12/12/12 97/97/97
f 97/97/97 100/100/100 15/15/15
f 11/11/11 17/17/17 102/102/102
f 102/102/102 96/96/96 11/11/11
f 20/20/20 26/26/26 114/114/114
f 114/114/114 105/105/105 20/20/20
f 32/32/32 28/28/28 118/118/118
f 118/118/118 122/122/122 32/32/32
f 29/29/29 34/34/34 125/125/125
f 125/125/125 120/120/120 29/29/29
f 38/38/38 43/43/43 138/138/138
f 138/138/138 128/128/128 38/38/38
f 41/41/41 50/50/50 147/147/147
f 147/147/147 137/137/137 41/41/41
f 46/46/46 53/53/53 150/150/150
f 150/150/150 141/141/141 46/46/46
f 8/8/8 5/5/5 89/89/89
f 89/89/89 93/93/93 8/8/8
f 56/56/56 62/62/62 160/160/160
f 160/160/160 153/153/153 56/56/56
f 65/65/65 71/71/71 167/167/167
f 167/167/167 161/161/161 65/65/65
f 75/75/75 67/67/67 163/163/163
f 163/163/163 170/170/170 75/75/75
f 81/81/81 78/78/78 174/174/174
f 174/174/174 178/178/178 81/81/81
f 77/77/77 84/84/84 180/180/180
f 180/180/180 175/175/175 77/77/77
f 72/72/72 68/68/68 164/164/164
f 164/164/164 168/168/168 72/72/72
f 69/69/69 76/76/76 172/172/172
f 172/172/172 166/166/166 69/69/69
f 48/48/48 39/39/39 131/131/131
f 131/131/131 143/143/143 48/48/48
f 16/16/16 13/13/13 98/98/98
f 98/98/98 101/101/101 16/16/16
f 55/55/55 42/42/42 132/132/132
f 132/132/132 149/149/149 55/55/55
f 52/52/52 49/49/49 142/142/142
f 142/142/142 148/148/148 52/52/52
f 85/85/85 82/82/82 176/176/176
f 176/176/176 179/179/179 85/85/85
f 25/25/25 23/23/23 111/111/111
f 111/111/111 116/116/116 25/25/25
f 36/36/36 19/19/19 107/107/107
f 107/107/107 127/127/127 36/36/36
f 22/22/22 31/31/31 123/123/123
f 123/123/123 110/110/110 22/22/22
f 61/61/61 57/57/57 152/152/152
f 152/152/152 155/155/155 61/61/61
f 64/64/64 60/60/60 157/157/157
f 157/157/157 158/158/158 64/64/64

