mtllib material.mtl
usemtl Material-7011油漆.006
v -0.02180100 0.12493200 -0.01482800
v -0.02180100 0.12493200 -0.01482800
v -0.02180100 0.12493200 -0.01482800
v -0.02180100 0.12563200 -0.01482800
v -0.02180100 0.12563200 -0.01482800
v -0.02180100 0.12563200 -0.01482800
v -0.02160000 0.12493200 -0.00923300
v -0.02160000 0.12493200 -0.00923300
v -0.02160000 0.12493200 -0.00923300
v -0.02160000 0.12563200 -0.00923300
v -0.02160000 0.12563200 -0.00923300
v -0.02160000 0.12563200 -0.00923300
v -0.02173400 0.12493200 -0.01296300
v -0.02173400 0.12493200 -0.01296300
v -0.02166700 0.12493200 -0.01109800
v -0.02166700 0.12493200 -0.01109800
v -0.02166700 0.12563200 -0.01109800
v -0.02166700 0.12563200 -0.01109800
v -0.02166700 0.12563200 -0.01109800
v -0.02173400 0.12563200 -0.01296300
v -0.02173400 0.12563200 -0.01296300
v -0.02160000 0.12493200 -0.00923300
v -0.02160000 0.12493200 -0.00923300
v -0.02160000 0.12493200 -0.00923300
v -0.02160000 0.12563200 -0.00923300
v -0.02160000 0.12563200 -0.00923300
v -0.02160000 0.12563200 -0.00923300
v -0.02410400 0.12493200 -0.00615500
v -0.02410400 0.12493200 -0.00615500
v -0.02410400 0.12493200 -0.00615500
v -0.02410400 0.12563200 -0.00615500
v -0.02410400 0.12563200 -0.00615500
v -0.02410400 0.12563200 -0.00615500
v -0.02243400 0.12493200 -0.00820700
v -0.02243400 0.12493200 -0.00820700
v -0.02326900 0.12493200 -0.00718100
v -0.02326900 0.12493200 -0.00718100
v -0.02326900 0.12563200 -0.00718100
v -0.02326900 0.12563200 -0.00718100
v -0.02243400 0.12563200 -0.00820700
v -0.02243400 0.12563200 -0.00820700
v -0.02410300 0.12493200 -0.00615400
v -0.02410300 0.12493200 -0.00615400
v -0.02410300 0.12493200 -0.00615400
v -0.02410300 0.12563200 -0.00615400
v -0.02410300 0.12563200 -0.00615400
v -0.02410300 0.12563200 -0.00615400
v -0.01850900 0.12493200 -0.00635600
v -0.01850900 0.12493200 -0.00635600
v -0.01850900 0.12493200 -0.00635600
v -0.01850900 0.12563200 -0.00635600
v -0.01850900 0.12563200 -0.00635600
v -0.01850900 0.12563200 -0.00635600
v -0.02223900 0.12493200 -0.00622200
v -0.02223900 0.12493200 -0.00622200
v -0.02037400 0.12493200 -0.00628900
v -0.02037400 0.12493200 -0.00628900
v -0.02037400 0.12563200 -0.00628900
v -0.02037400 0.12563200 -0.00628900
v -0.02037400 0.12563200 -0.00628900
v -0.02223900 0.12563200 -0.00622200
v -0.02223900 0.12563200 -0.00622200
v -0.02223900 0.12563200 -0.00622200
v -0.01850800 0.12493200 -0.00635700
v -0.01850800 0.12493200 -0.00635700
v -0.01850800 0.12493200 -0.00635700
v -0.01850800 0.12563200 -0.00635700
v -0.01850800 0.12563200 -0.00635700
v -0.01850800 0.12563200 -0.00635700
v -0.01881700 0.12493200 -0.01493600
v -0.01881700 0.12493200 -0.01493600
v -0.01881700 0.12493200 -0.01493600
v -0.01881700 0.12563200 -0.01493600
v -0.01881700 0.12563200 -0.01493600
v -0.01881700 0.12563200 -0.01493600
v -0.01858600 0.12493200 -0.00850100
v -0.01858600 0.12493200 -0.00850100
v -0.01866300 0.12493200 -0.01064600
v -0.01866300 0.12493200 -0.01064600
v -0.01874000 0.12493200 -0.01279100
v -0.01874000 0.12493200 -0.01279100
v -0.01874000 0.12563200 -0.01279100
v -0.01874000 0.12563200 -0.01279100
v -0.01866300 0.12563200 -0.01064600
v -0.01866300 0.12563200 -0.01064600
v -0.01858600 0.12563200 -0.00850100
v -0.01858600 0.12563200 -0.00850100
v -0.01881800 0.12493200 -0.01493600
v -0.01881800 0.12493200 -0.01493600
v -0.01881800 0.12493200 -0.01493600
v -0.01881800 0.12563200 -0.01493600
v -0.01881800 0.12563200 -0.01493600
v -0.01881800 0.12563200 -0.01493600
v -0.02180100 0.12493200 -0.01482900
v -0.02180100 0.12493200 -0.01482900
v -0.02180100 0.12493200 -0.01482900
v -0.02180100 0.12563200 -0.01482900
v -0.02180100 0.12563200 -0.01482900
v -0.02180100 0.12563200 -0.01482900
v -0.01981200 0.12493200 -0.01490000
v -0.01981200 0.12493200 -0.01490000
v -0.02080700 0.12493200 -0.01486400
v -0.02080700 0.12493200 -0.01486400
v -0.02080700 0.12563200 -0.01486400
v -0.02080700 0.12563200 -0.01486400
v -0.02080700 0.12563200 -0.01486400
v -0.01981200 0.12563200 -0.01490000
v -0.01981200 0.12563200 -0.01490000
v -0.01981200 0.12563200 -0.01490000
v -0.02410300 0.12493100 -0.00615500
v -0.02410300 0.12493100 -0.00615500
v -0.02410300 0.12493100 -0.00615500
v -0.02180100 0.12493100 -0.01482800
v -0.02180100 0.12493100 -0.01482800
v -0.02180100 0.12493100 -0.01482800
v -0.02173400 0.12493100 -0.01296300
v -0.02173400 0.12493100 -0.01296300
v -0.02166600 0.12493100 -0.01109800
v -0.02166600 0.12493100 -0.01109800
v -0.02159900 0.12493100 -0.00923300
v -0.02159900 0.12493100 -0.00923300
v -0.02159900 0.12493100 -0.00923300
v -0.02243400 0.12493100 -0.00820700
v -0.02243400 0.12493100 -0.00820700
v -0.02326900 0.12493100 -0.00718100
v -0.02326900 0.12493100 -0.00718100
v -0.02223900 0.12493100 -0.00622200
v -0.02223900 0.12493100 -0.00622200
v -0.02037400 0.12493100 -0.00628900
v -0.02037400 0.12493100 -0.00628900
v -0.01850900 0.12493100 -0.00635700
v -0.01850900 0.12493100 -0.00635700
v -0.01850900 0.12493100 -0.00635700
v -0.01858600 0.12493100 -0.00850100
v -0.01858600 0.12493100 -0.00850100
v -0.01866300 0.12493100 -0.01064600
v -0.01866300 0.12493100 -0.01064600
v -0.01874100 0.12493100 -0.01279100
v -0.01874100 0.12493100 -0.01279100
v -0.01881800 0.12493100 -0.01493600
v -0.01881800 0.12493100 -0.01493600
v -0.01881800 0.12493100 -0.01493600
v -0.01981200 0.12493100 -0.01490000
v -0.01981200 0.12493100 -0.01490000
v -0.02080600 0.12493100 -0.01486400
v -0.02080600 0.12493100 -0.01486400
v -0.02410300 0.12563200 -0.00615500
v -0.02410300 0.12563200 -0.00615500
v -0.02410300 0.12563200 -0.00615500
v -0.02180100 0.12563200 -0.01482800
v -0.02180100 0.12563200 -0.01482800
v -0.02180100 0.12563200 -0.01482800
v -0.02173400 0.12563200 -0.01296300
v -0.02173400 0.12563200 -0.01296300
v -0.02166600 0.12563200 -0.01109800
v -0.02166600 0.12563200 -0.01109800
v -0.02159900 0.12563200 -0.00923300
v -0.02159900 0.12563200 -0.00923300
v -0.02159900 0.12563200 -0.00923300
v -0.02243400 0.12563200 -0.00820700
v -0.02243400 0.12563200 -0.00820700
v -0.02326900 0.12563200 -0.00718100
v -0.02326900 0.12563200 -0.00718100
v -0.02223900 0.12563200 -0.00622200
v -0.02223900 0.12563200 -0.00622200
v -0.02037400 0.12563200 -0.00628900
v -0.02037400 0.12563200 -0.00628900
v -0.02037400 0.12563200 -0.00628900
v -0.01850900 0.12563200 -0.00635700
v -0.01850900 0.12563200 -0.00635700
v -0.01850900 0.12563200 -0.00635700
v -0.01858600 0.12563200 -0.00850100
v -0.01858600 0.12563200 -0.00850100
v -0.01866300 0.12563200 -0.01064600
v -0.01866300 0.12563200 -0.01064600
v -0.01874100 0.12563200 -0.01279100
v -0.01874100 0.12563200 -0.01279100
v -0.01881800 0.12563200 -0.01493600
v -0.01881800 0.12563200 -0.01493600
v -0.01881800 0.12563200 -0.01493600
v -0.01981200 0.12563200 -0.01490000
v -0.01981200 0.12563200 -0.01490000
v -0.02080600 0.12563200 -0.01486400
v -0.02080600 0.12563200 -0.01486400
v -0.02180000 0.12493200 -0.01482800
v -0.02180000 0.12493200 -0.01482800
v -0.02180000 0.12493200 -0.01482800
v -0.02180000 0.12563200 -0.01482800
v -0.02180000 0.12563200 -0.01482800
v -0.02180000 0.12563200 -0.01482800
v -0.02159900 0.12493200 -0.00923300
v -0.02159900 0.12493200 -0.00923300
v -0.02159900 0.12493200 -0.00923300
v -0.02159900 0.12563200 -0.00923300
v -0.02159900 0.12563200 -0.00923300
v -0.02159900 0.12563200 -0.00923300
v -0.02173300 0.12493200 -0.01296300
v -0.02173300 0.12493200 -0.01296300
v -0.02166600 0.12493200 -0.01109800
v -0.02166600 0.12493200 -0.01109800
v -0.02166600 0.12563200 -0.01109800
v -0.02166600 0.12563200 -0.01109800
v -0.02166600 0.12563200 -0.01109800
v -0.02173300 0.12563200 -0.01296300
v -0.02173300 0.12563200 -0.01296300
v -0.02159900 0.12493200 -0.00923300
v -0.02159900 0.12493200 -0.00923300
v -0.02159900 0.12493200 -0.00923300
v -0.02159900 0.12563200 -0.00923300
v -0.02159900 0.12563200 -0.00923300
v -0.02159900 0.12563200 -0.00923300
v -0.02410300 0.12493200 -0.00615500
v -0.02410300 0.12493200 -0.00615500
v -0.02410300 0.12493200 -0.00615500
v -0.02410300 0.12563200 -0.00615500
v -0.02410300 0.12563200 -0.00615500
v -0.02410300 0.12563200 -0.00615500
v -0.02243400 0.12493200 -0.00820700
v -0.02243400 0.12493200 -0.00820700
v -0.02326800 0.12493200 -0.00718100
v -0.02326800 0.12493200 -0.00718100
v -0.02326800 0.12563200 -0.00718100
v -0.02326800 0.12563200 -0.00718100
v -0.02243400 0.12563200 -0.00820700
v -0.02243400 0.12563200 -0.00820700
v -0.02410300 0.12493200 -0.00615500
v -0.02410300 0.12493200 -0.00615500
v -0.02410300 0.12493200 -0.00615500
v -0.02410300 0.12563200 -0.00615500
v -0.02410300 0.12563200 -0.00615500
v -0.02410300 0.12563200 -0.00615500
v -0.01850900 0.12493200 -0.00635700
v -0.01850900 0.12493200 -0.00635700
v -0.01850900 0.12493200 -0.00635700
v -0.01850900 0.12563200 -0.00635700
v -0.01850900 0.12563200 -0.00635700
v -0.01850900 0.12563200 -0.00635700
v -0.02223900 0.12493200 -0.00622300
v -0.02223900 0.12493200 -0.00622300
v -0.02037400 0.12493200 -0.00629000
v -0.02037400 0.12493200 -0.00629000
v -0.02037400 0.12563200 -0.00629000
v -0.02037400 0.12563200 -0.00629000
v -0.02037400 0.12563200 -0.00629000
v -0.02223900 0.12563200 -0.00622300
v -0.02223900 0.12563200 -0.00622300
v -0.02223900 0.12563200 -0.00622300
v -0.01850900 0.12493200 -0.00635700
v -0.01850900 0.12493200 -0.00635700
v -0.01850900 0.12493200 -0.00635700
v -0.01850900 0.12563200 -0.00635700
v -0.01850900 0.12563200 -0.00635700
v -0.01850900 0.12563200 -0.00635700
v -0.01881800 0.12493200 -0.01493500
v -0.01881800 0.12493200 -0.01493500
v -0.01881800 0.12493200 -0.01493500
v -0.01881800 0.12563200 -0.01493500
v -0.01881800 0.12563200 -0.01493500
v -0.01881800 0.12563200 -0.01493500
v -0.01858700 0.12493200 -0.00850100
v -0.01858700 0.12493200 -0.00850100
v -0.01866400 0.12493200 -0.01064600
v -0.01866400 0.12493200 -0.01064600
v -0.01874100 0.12493200 -0.01279100
v -0.01874100 0.12493200 -0.01279100
v -0.01874100 0.12563200 -0.01279100
v -0.01874100 0.12563200 -0.01279100
v -0.01866400 0.12563200 -0.01064600
v -0.01866400 0.12563200 -0.01064600
v -0.01858700 0.12563200 -0.00850100
v -0.01858700 0.12563200 -0.00850100
v -0.01881800 0.12493200 -0.01493500
v -0.01881800 0.12493200 -0.01493500
v -0.01881800 0.12493200 -0.01493500
v -0.01881800 0.12563200 -0.01493500
v -0.01881800 0.12563200 -0.01493500
v -0.01881800 0.12563200 -0.01493500
v -0.02180100 0.12493200 -0.01482800
v -0.02180100 0.12493200 -0.01482800
v -0.02180100 0.12493200 -0.01482800
v -0.02180100 0.12563200 -0.01482800
v -0.02180100 0.12563200 -0.01482800
v -0.02180100 0.12563200 -0.01482800
v -0.01981200 0.12493200 -0.01489900
v -0.01981200 0.12493200 -0.01489900
v -0.02080600 0.12493200 -0.01486300
v -0.02080600 0.12493200 -0.01486300
v -0.02080600 0.12563200 -0.01486300
v -0.02080600 0.12563200 -0.01486300
v -0.02080600 0.12563200 -0.01486300
v -0.01981200 0.12563200 -0.01489900
v -0.01981200 0.12563200 -0.01489900
v -0.01981200 0.12563200 -0.01489900
v -0.02410300 0.12493200 -0.00615500
v -0.02410300 0.12493200 -0.00615500
v -0.02410300 0.12493200 -0.00615500
v -0.02180100 0.12493200 -0.01482800
v -0.02180100 0.12493200 -0.01482800
v -0.02180100 0.12493200 -0.01482800
v -0.02173400 0.12493200 -0.01296300
v -0.02173400 0.12493200 -0.01296300
v -0.02166600 0.12493200 -0.01109800
v -0.02166600 0.12493200 -0.01109800
v -0.02159900 0.12493200 -0.00923300
v -0.02159900 0.12493200 -0.00923300
v -0.02159900 0.12493200 -0.00923300
v -0.02243400 0.12493200 -0.00820700
v -0.02243400 0.12493200 -0.00820700
v -0.02326900 0.12493200 -0.00718100
v -0.02326900 0.12493200 -0.00718100
v -0.02223900 0.12493200 -0.00622200
v -0.02223900 0.12493200 -0.00622200
v -0.02037400 0.12493200 -0.00628900
v -0.02037400 0.12493200 -0.00628900
v -0.01850900 0.12493200 -0.00635700
v -0.01850900 0.12493200 -0.00635700
v -0.01850900 0.12493200 -0.00635700
v -0.01858600 0.12493200 -0.00850100
v -0.01858600 0.12493200 -0.00850100
v -0.01866300 0.12493200 -0.01064600
v -0.01866300 0.12493200 -0.01064600
v -0.01874100 0.12493200 -0.01279100
v -0.01874100 0.12493200 -0.01279100
v -0.01881800 0.12493200 -0.01493600
v -0.01881800 0.12493200 -0.01493600
v -0.01881800 0.12493200 -0.01493600
v -0.01981200 0.12493200 -0.01490000
v -0.01981200 0.12493200 -0.01490000
v -0.02080600 0.12493200 -0.01486400
v -0.02080600 0.12493200 -0.01486400
v -0.02410300 0.12563100 -0.00615500
v -0.02410300 0.12563100 -0.00615500
v -0.02410300 0.12563100 -0.00615500
v -0.02180100 0.12563100 -0.01482800
v -0.02180100 0.12563100 -0.01482800
v -0.02180100 0.12563100 -0.01482800
v -0.02173400 0.12563100 -0.01296300
v -0.02173400 0.12563100 -0.01296300
v -0.02166600 0.12563100 -0.01109800
v -0.02166600 0.12563100 -0.01109800
v -0.02159900 0.12563100 -0.00923300
v -0.02159900 0.12563100 -0.00923300
v -0.02159900 0.12563100 -0.00923300
v -0.02243400 0.12563100 -0.00820700
v -0.02243400 0.12563100 -0.00820700
v -0.02326900 0.12563100 -0.00718100
v -0.02326900 0.12563100 -0.00718100
v -0.02223900 0.12563100 -0.00622200
v -0.02223900 0.12563100 -0.00622200
v -0.02037400 0.12563100 -0.00628900
v -0.02037400 0.12563100 -0.00628900
v -0.02037400 0.12563100 -0.00628900
v -0.01850900 0.12563100 -0.00635700
v -0.01850900 0.12563100 -0.00635700
v -0.01850900 0.12563100 -0.00635700
v -0.01858600 0.12563100 -0.00850100
v -0.01858600 0.12563100 -0.00850100
v -0.01866300 0.12563100 -0.01064600
v -0.01866300 0.12563100 -0.01064600
v -0.01874100 0.12563100 -0.01279100
v -0.01874100 0.12563100 -0.01279100
v -0.01881800 0.12563100 -0.01493600
v -0.01881800 0.12563100 -0.01493600
v -0.01881800 0.12563100 -0.01493600
v -0.01981200 0.12563100 -0.01490000
v -0.01981200 0.12563100 -0.01490000
v -0.02080600 0.12563100 -0.01486400
v -0.02080600 0.12563100 -0.01486400
vn -0.03640000 0.00000000 -0.99930000
vn -0.99940000 0.00000000 0.03600000
vn 0.00000000 -1.00000000 0.00000000
vn 0.00000000 1.00000000 0.00000000
vn -0.99940000 0.00000000 0.03600000
vn -0.03640000 0.00000000 -0.99930000
vn -0.99940000 0.00000000 0.03600000
vn 0.00000000 -1.00000000 0.00000000
vn 0.03580000 0.00000000 0.99940000
vn -0.99940000 0.00000000 0.03600000
vn 0.00000000 1.00000000 -0.00050000
vn 0.03580000 0.00000000 0.99940000
vn 0.00000000 -1.00000000 0.00000000
vn -0.99940000 0.00000000 0.03600000
vn 0.00000000 -1.00000000 0.00000000
vn -0.99940000 0.00000000 0.03600000
vn 0.00000000 1.00000000 0.00000000
vn -0.99940000 0.00000000 0.03600000
vn 0.00000000 1.00000000 -0.00050000
vn 0.00000000 1.00000000 0.00000000
vn -0.99940000 0.00000000 0.03600000
vn 0.00000000 -1.00000000 0.00000000
vn 0.63170000 0.00000000 -0.77520000
vn -0.77570000 0.00000000 -0.63110000
vn -0.77570000 0.00000000 -0.63110000
vn 0.00000000 1.00000000 0.00000000
vn 0.63170000 0.00000000 -0.77520000
vn -0.77570000 0.00000000 -0.63110000
vn -0.63170000 0.00000000 0.77520000
vn 0.00000000 -1.00000000 0.00000000
vn -0.77570000 0.00000000 -0.63110000
vn 0.00000000 1.00000000 0.00000000
vn -0.63170000 0.00000000 0.77520000
vn -0.77570000 0.00000000 -0.63110000
vn 0.00000000 -1.00000000 0.00000000
vn -0.77570000 0.00000000 -0.63110000
vn 0.00000000 -1.00000000 0.00000000
vn 0.00000000 1.00000000 0.00000000
vn -0.77570000 0.00000000 -0.63110000
vn -0.77570000 0.00000000 -0.63110000
vn 0.00000000 1.00000000 0.00000000
vn -0.99940000 0.00000000 0.03350000
vn 0.03600000 0.00000000 0.99940000
vn 0.00000000 -1.00000000 0.00000000
vn 0.00000000 1.00000000 0.00780000
vn -0.99940000 0.00000000 0.03350000
vn 0.03600000 0.00000000 0.99940000
vn 0.03600000 0.00000000 0.99940000
vn 0.00000000 -1.00000000 0.00000000
vn 0.99940000 0.00000000 -0.03350000
vn 0.00000000 1.00000000 0.00000000
vn 0.03600000 0.00000000 0.99940000
vn 0.99940000 0.00000000 -0.03350000
vn 0.00000000 -1.00000000 0.00000000
vn 0.03600000 0.00000000 0.99940000
vn 0.00000000 -1.00000000 0.00000000
vn 0.03600000 0.00000000 0.99940000
vn 0.00000000 1.00000000 0.00000000
vn 0.00000000 1.00000000 -0.00780000
vn 0.03600000 0.00000000 0.99940000
vn 0.00000000 1.00000000 0.00780000
vn 0.00000000 1.00000000 -0.00780000
vn 0.03600000 0.00000000 0.99940000
vn 0.00000000 -1.00000000 0.00000000
vn 0.99940000 0.00000000 -0.03600000
vn 0.03570000 0.00000000 0.99940000
vn 0.03570000 0.00000000 0.99940000
vn 0.00000000 1.00000000 0.00000000
vn 0.99940000 0.00000000 -0.03600000
vn -0.03510000 0.00000000 -0.99940000
vn 0.99940000 0.00000000 -0.03600000
vn 0.00000000 -1.00000000 0.00000000
vn 0.99940000 0.00000000 -0.03600000
vn 0.00000000 1.00000000 0.00000000
vn -0.03510000 0.00000000 -0.99940000
vn 0.99940000 0.00000000 -0.03600000
vn 0.00000000 -1.00000000 0.00000000
vn 0.99940000 0.00000000 -0.03600000
vn 0.00000000 -1.00000000 0.00000000
vn 0.99940000 0.00000000 -0.03600000
vn 0.00000000 -1.00000000 0.00000000
vn 0.99940000 0.00000000 -0.03600000
vn 0.00000000 1.00000000 0.00000000
vn 0.00000000 1.00000000 0.00000000
vn 0.99940000 0.00000000 -0.03600000
vn 0.99940000 0.00000000 -0.03600000
vn 0.00000000 1.00000000 0.00000000
vn -0.03600000 0.00000000 -0.99940000
vn 0.00000000 -1.00000000 0.00000000
vn 0.99940000 0.00000000 -0.03350000
vn 0.00000000 0.99990000 -0.01460000
vn -0.03600000 0.00000000 -0.99940000
vn 0.99940000 0.00000000 -0.03350000
vn 0.00000000 -1.00000000 0.00000000
vn -0.03600000 0.00000000 -0.99940000
vn -0.99940000 0.00000000 0.03350000
vn -0.03600000 0.00000000 -0.99940000
vn 0.00000000 0.99990000 0.01460000
vn -0.99940000 0.00000000 0.03350000
vn -0.03600000 0.00000000 -0.99940000
vn 0.00000000 -1.00000000 0.00000000
vn -0.03600000 0.00000000 -0.99940000
vn 0.00000000 -1.00000000 0.00000000
vn 0.00000000 0.99990000 0.01460000
vn -0.03600000 0.00000000 -0.99940000
vn 0.00000000 1.00000000 0.00000000
vn -0.03600000 0.00000000 -0.99940000
vn 0.00000000 0.99990000 -0.01460000
vn 0.00000000 1.00000000 0.00000000
vn 0.03600000 0.00000000 0.99940000
vn -0.77680000 0.00000000 -0.62980000
vn 0.00000000 -1.00000000 0.00000000
vn 0.00000000 -1.00000000 0.00000000
vn -0.03640000 0.00000000 -0.99930000
vn -0.99930000 0.00000000 0.03630000
vn -0.99930000 0.00000000 0.03630000
vn 0.00000000 -1.00000000 0.00000000
vn 0.00000000 -1.00000000 0.00000000
vn -0.99930000 0.00000000 0.03630000
vn 0.00000000 -1.00000000 0.00000000
vn -0.77680000 0.00000000 -0.62980000
vn -0.99930000 0.00000000 0.03630000
vn 0.00000000 -1.00000000 0.00000000
vn -0.77680000 0.00000000 -0.62980000
vn -0.77680000 0.00000000 -0.62980000
vn 0.00000000 -1.00000000 0.00000000
vn 0.00000000 -1.00000000 0.00000000
vn 0.03600000 0.00000000 0.99940000
vn 0.03600000 0.00000000 0.99940000
vn 0.00000000 -1.00000000 0.00000000
vn 0.99930000 0.00000000 -0.03620000
vn 0.03600000 0.00000000 0.99940000
vn 0.00000000 -1.00000000 0.00000000
vn 0.00000000 -1.00000000 0.00000000
vn 0.99930000 0.00000000 -0.03620000
vn 0.99930000 0.00000000 -0.03620000
vn 0.00000000 -1.00000000 0.00000000
vn 0.99930000 0.00000000 -0.03620000
vn 0.00000000 -1.00000000 0.00000000
vn 0.99930000 0.00000000 -0.03620000
vn -0.03640000 0.00000000 -0.99930000
vn 0.00000000 -1.00000000 0.00000000
vn -0.03640000 0.00000000 -0.99930000
vn 0.00000000 -1.00000000 0.00000000
vn 0.00000000 -1.00000000 0.00000000
vn -0.03640000 0.00000000 -0.99930000
vn 0.00000000 1.00000000 0.00000000
vn 0.03600000 0.00000000 0.99940000
vn -0.77720000 0.00000000 -0.62930000
vn 0.00000000 1.00000000 0.00000000
vn -0.03610000 0.00000000 -0.99930000
vn -0.99930000 0.00000000 0.03610000
vn -0.99930000 0.00000000 0.03610000
vn 0.00000000 1.00000000 0.00000000
vn -0.99930000 0.00000000 0.03610000
vn 0.00000000 1.00000000 0.00000000
vn -0.99930000 0.00000000 0.03610000
vn -0.77720000 0.00000000 -0.62930000
vn 0.00000000 1.00000000 0.00000000
vn 0.00000000 1.00000000 0.00000000
vn -0.77720000 0.00000000 -0.62930000
vn -0.77720000 0.00000000 -0.62930000
vn 0.00000000 1.00000000 0.00000000
vn 0.03600000 0.00000000 0.99940000
vn 0.00000000 1.00000000 0.00000000
vn 0.00000000 1.00000000 0.00000000
vn 0.03630000 0.00000000 0.99930000
vn 0.03600000 0.00000000 0.99940000
vn 0.99930000 0.00000000 -0.03610000
vn 0.03630000 0.00000000 0.99930000
vn 0.00000000 1.00000000 0.00000000
vn 0.99930000 0.00000000 -0.03610000
vn 0.00000000 1.00000000 0.00000000
vn 0.99930000 0.00000000 -0.03610000
vn 0.00000000 1.00000000 0.00000000
vn 0.99930000 0.00000000 -0.03610000
vn 0.00000000 1.00000000 0.00000000
vn 0.00000000 1.00000000 0.00000000
vn 0.99930000 0.00000000 -0.03610000
vn -0.03610000 0.00000000 -0.99930000
vn 0.00000000 1.00000000 0.00000000
vn -0.03610000 0.00000000 -0.99930000
vn 0.00000000 1.00000000 0.00000000
vn -0.03610000 0.00000000 -0.99930000
vn -0.03640000 0.00000000 -0.99930000
vn 0.99940000 0.00000000 -0.03600000
vn 0.00000000 -1.00000000 0.00000000
vn 0.00000000 1.00000000 0.00000000
vn 0.99940000 0.00000000 -0.03600000
vn -0.03640000 0.00000000 -0.99930000
vn 0.03580000 0.00000000 0.99940000
vn 0.99940000 0.00000000 -0.03600000
vn 0.00000000 -1.00000000 0.00000000
vn 0.03580000 0.00000000 0.99940000
vn 0.00000000 1.00000000 -0.00050000
vn 0.99940000 0.00000000 -0.03600000
vn 0.99940000 0.00000000 -0.03600000
vn 0.00000000 -1.00000000 0.00000000
vn 0.99940000 0.00000000 -0.03600000
vn 0.00000000 -1.00000000 0.00000000
vn 0.00000000 1.00000000 0.00000000
vn 0.00000000 1.00000000 -0.00050000
vn 0.99940000 0.00000000 -0.03600000
vn 0.99940000 0.00000000 -0.03600000
vn 0.00000000 1.00000000 0.00000000
vn 0.63170000 0.00000000 -0.77520000
vn 0.77570000 0.00000000 0.63110000
vn 0.00000000 -1.00000000 0.00000000
vn 0.77570000 0.00000000 0.63110000
vn 0.63170000 0.00000000 -0.77520000
vn 0.00000000 1.00000000 0.00000000
vn 0.77570000 0.00000000 0.63110000
vn -0.63170000 0.00000000 0.77520000
vn 0.00000000 -1.00000000 0.00000000
vn 0.77570000 0.00000000 0.63110000
vn -0.63170000 0.00000000 0.77520000
vn 0.00000000 1.00000000 0.00000000
vn 0.00000000 -1.00000000 0.00000000
vn 0.77570000 0.00000000 0.63110000
vn 0.00000000 -1.00000000 0.00000000
vn 0.77570000 0.00000000 0.63110000
vn 0.77570000 0.00000000 0.63110000
vn 0.00000000 1.00000000 0.00000000
vn 0.00000000 1.00000000 0.00000000
vn 0.77570000 0.00000000 0.63110000
vn -0.03600000 0.00000000 -0.99940000
vn 0.00000000 -1.00000000 0.00000000
vn -0.99940000 0.00000000 0.03350000
vn -0.99940000 0.00000000 0.03350000
vn -0.03600000 0.00000000 -0.99940000
vn 0.00000000 1.00000000 0.00780000
vn -0.03600000 0.00000000 -0.99940000
vn 0.99940000 0.00000000 -0.03350000
vn 0.00000000 -1.00000000 0.00000000
vn -0.03600000 0.00000000 -0.99940000
vn 0.99940000 0.00000000 -0.03350000
vn 0.00000000 1.00000000 0.00000000
vn -0.03600000 0.00000000 -0.99940000
vn 0.00000000 -1.00000000 0.00000000
vn -0.03600000 0.00000000 -0.99940000
vn 0.00000000 -1.00000000 0.00000000
vn 0.00000000 1.00000000 0.00000000
vn 0.00000000 1.00000000 -0.00780000
vn -0.03600000 0.00000000 -0.99940000
vn -0.03600000 0.00000000 -0.99940000
vn 0.00000000 1.00000000 -0.00780000
vn 0.00000000 1.00000000 0.00780000
vn 0.00000000 -1.00000000 0.00000000
vn 0.03570000 0.00000000 0.99940000
vn -0.99940000 0.00000000 0.03600000
vn 0.03570000 0.00000000 0.99940000
vn -0.99940000 0.00000000 0.03600000
vn 0.00000000 1.00000000 0.00000000
vn -0.03510000 0.00000000 -0.99940000
vn 0.00000000 -1.00000000 0.00000000
vn -0.99940000 0.00000000 0.03600000
vn -0.99940000 0.00000000 0.03600000
vn -0.03510000 0.00000000 -0.99940000
vn 0.00000000 1.00000000 0.00000000
vn -0.99940000 0.00000000 0.03600000
vn 0.00000000 -1.00000000 0.00000000
vn -0.99940000 0.00000000 0.03600000
vn 0.00000000 -1.00000000 0.00000000
vn -0.99940000 0.00000000 0.03600000
vn 0.00000000 -1.00000000 0.00000000
vn -0.99940000 0.00000000 0.03600000
vn 0.00000000 1.00000000 0.00000000
vn -0.99940000 0.00000000 0.03600000
vn 0.00000000 1.00000000 0.00000000
vn 0.00000000 1.00000000 0.00000000
vn -0.99940000 0.00000000 0.03600000
vn 0.03600000 0.00000000 0.99940000
vn 0.99940000 0.00000000 -0.03350000
vn 0.00000000 -1.00000000 0.00000000
vn 0.99940000 0.00000000 -0.03350000
vn 0.03600000 0.00000000 0.99940000
vn 0.00000000 0.99990000 -0.01460000
vn -0.99940000 0.00000000 0.03350000
vn 0.03600000 0.00000000 0.99940000
vn 0.00000000 -1.00000000 0.00000000
vn 0.03600000 0.00000000 0.99940000
vn -0.99940000 0.00000000 0.03350000
vn 0.00000000 0.99990000 0.01460000
vn 0.03600000 0.00000000 0.99940000
vn 0.00000000 -1.00000000 0.00000000
vn 0.00000000 -1.00000000 0.00000000
vn 0.03600000 0.00000000 0.99940000
vn 0.00000000 0.99990000 0.01460000
vn 0.00000000 1.00000000 0.00000000
vn 0.03600000 0.00000000 0.99940000
vn 0.00000000 0.99990000 -0.01460000
vn 0.03600000 0.00000000 0.99940000
vn 0.00000000 1.00000000 0.00000000
vn 0.00000000 1.00000000 0.00000000
vn 0.03600000 0.00000000 0.99940000
vn -0.77680000 0.00000000 -0.62980000
vn 0.00000000 1.00000000 0.00000000
vn -0.99930000 0.00000000 0.03630000
vn -0.03640000 0.00000000 -0.99930000
vn -0.99930000 0.00000000 0.03630000
vn 0.00000000 1.00000000 0.00000000
vn 0.00000000 1.00000000 0.00000000
vn -0.99930000 0.00000000 0.03630000
vn 0.00000000 1.00000000 0.00000000
vn -0.77680000 0.00000000 -0.62980000
vn -0.99930000 0.00000000 0.03630000
vn -0.77680000 0.00000000 -0.62980000
vn 0.00000000 1.00000000 0.00000000
vn 0.00000000 1.00000000 0.00000000
vn -0.77680000 0.00000000 -0.62980000
vn 0.03600000 0.00000000 0.99940000
vn 0.00000000 1.00000000 0.00000000
vn 0.03600000 0.00000000 0.99940000
vn 0.00000000 1.00000000 0.00000000
vn 0.00000000 1.00000000 0.00000000
vn 0.99930000 0.00000000 -0.03620000
vn 0.03600000 0.00000000 0.99940000
vn 0.99930000 0.00000000 -0.03620000
vn 0.00000000 1.00000000 0.00000000
vn 0.99930000 0.00000000 -0.03620000
vn 0.00000000 1.00000000 0.00000000
vn 0.99930000 0.00000000 -0.03620000
vn 0.00000000 1.00000000 0.00000000
vn 0.00000000 1.00000000 0.00000000
vn 0.99930000 0.00000000 -0.03620000
vn -0.03640000 0.00000000 -0.99930000
vn -0.03640000 0.00000000 -0.99930000
vn 0.00000000 1.00000000 0.00000000
vn -0.03640000 0.00000000 -0.99930000
vn 0.00000000 1.00000000 0.00000000
vn 0.00000000 -1.00000000 0.00000000
vn 0.03600000 0.00000000 0.99940000
vn -0.77720000 0.00000000 -0.62930000
vn -0.99930000 0.00000000 0.03610000
vn 0.00000000 -1.00000000 0.00000000
vn -0.03610000 0.00000000 -0.99930000
vn -0.99930000 0.00000000 0.03610000
vn 0.00000000 -1.00000000 0.00000000
vn -0.99930000 0.00000000 0.03610000
vn 0.00000000 -1.00000000 0.00000000
vn -0.99930000 0.00000000 0.03610000
vn 0.00000000 -1.00000000 0.00000000
vn -0.77720000 0.00000000 -0.62930000
vn 0.00000000 -1.00000000 0.00000000
vn -0.77720000 0.00000000 -0.62930000
vn -0.77720000 0.00000000 -0.62930000
vn 0.00000000 -1.00000000 0.00000000
vn 0.03600000 0.00000000 0.99940000
vn 0.00000000 -1.00000000 0.00000000
vn 0.00000000 -1.00000000 0.00000000
vn 0.03630000 0.00000000 0.99930000
vn 0.03600000 0.00000000 0.99940000
vn 0.00000000 -1.00000000 0.00000000
vn 0.99930000 0.00000000 -0.03610000
vn 0.03630000 0.00000000 0.99930000
vn 0.00000000 -1.00000000 0.00000000
vn 0.99930000 0.00000000 -0.03610000
vn 0.99930000 0.00000000 -0.03610000
vn 0.00000000 -1.00000000 0.00000000
vn 0.00000000 -1.00000000 0.00000000
vn 0.99930000 0.00000000 -0.03610000
vn 0.99930000 0.00000000 -0.03610000
vn 0.00000000 -1.00000000 0.00000000
vn -0.03610000 0.00000000 -0.99930000
vn -0.03610000 0.00000000 -0.99930000
vn 0.00000000 -1.00000000 0.00000000
vn 0.00000000 -1.00000000 0.00000000
vn -0.03610000 0.00000000 -0.99930000
vt 0.16671300 0.05557100
vt 0.16671300 0.05557100
vt 0.16671300 0.05557100
vt 0.16671300 0.10967700
vt 0.16671300 0.10967700
vt 0.16671300 0.10967700
vt 0.61117000 0.05557100
vt 0.61117000 0.05557100
vt 0.61117000 0.05557100
vt 0.61117000 0.10967700
vt 0.61117000 0.10967700
vt 0.61117000 0.10967700
vt 0.31486500 0.05557100
vt 0.31486500 0.05557100
vt 0.46301700 0.05557100
vt 0.46301700 0.05557100
vt 0.46301700 0.10967700
vt 0.46301700 0.10967700
vt 0.46301700 0.10967700
vt 0.31486500 0.10967700
vt 0.31486500 0.10967700
vt 0.10967700 0.00000000
vt 0.10967700 0.00000000
vt 0.10967700 0.00000000
vt 0.05557100 0.00000000
vt 0.05557100 0.00000000
vt 0.05557100 0.00000000
vt 0.10967700 0.31501300
vt 0.10967700 0.31501300
vt 0.10967700 0.31501300
vt 0.05557100 0.31501300
vt 0.05557100 0.31501300
vt 0.05557100 0.31501300
vt 0.10967700 0.10500400
vt 0.10967700 0.10500400
vt 0.10967700 0.21000900
vt 0.10967700 0.21000900
vt 0.05557100 0.21000900
vt 0.05557100 0.21000900
vt 0.05557100 0.10500400
vt 0.05557100 0.10500400
vt 0.16671300 0.00000000
vt 0.16671300 0.00000000
vt 0.16671300 0.00000000
vt 0.16671300 0.05410600
vt 0.16671300 0.05410600
vt 0.16671300 0.05410600
vt 0.61114200 0.00000000
vt 0.61114200 0.00000000
vt 0.61114200 0.00000000
vt 0.61114200 0.05410600
vt 0.61114200 0.05410600
vt 0.61114200 0.05410600
vt 0.31485600 0.00000000
vt 0.31485600 0.00000000
vt 0.46299900 0.00000000
vt 0.46299900 0.00000000
vt 0.46299900 0.05410600
vt 0.46299900 0.05410600
vt 0.46299900 0.05410600
vt 0.31485600 0.05410600
vt 0.31485600 0.05410600
vt 0.31485600 0.05410600
vt 0.16524800 0.00000000
vt 0.16524800 0.00000000
vt 0.16524800 0.00000000
vt 0.11114200 0.00000000
vt 0.11114200 0.00000000
vt 0.11114200 0.00000000
vt 0.16524800 0.68150100
vt 0.16524800 0.68150100
vt 0.16524800 0.68150100
vt 0.11114200 0.68150100
vt 0.11114200 0.68150100
vt 0.11114200 0.68150100
vt 0.16524800 0.17037500
vt 0.16524800 0.17037500
vt 0.16524800 0.34075000
vt 0.16524800 0.34075000
vt 0.16524800 0.51112600
vt 0.16524800 0.51112600
vt 0.11114200 0.51112600
vt 0.11114200 0.51112600
vt 0.11114200 0.34075000
vt 0.11114200 0.34075000
vt 0.11114200 0.17037500
vt 0.11114200 0.17037500
vt 0.05410600 0.00000000
vt 0.05410600 0.00000000
vt 0.05410600 0.00000000
vt 0.00000000 0.00000000
vt 0.00000000 0.00000000
vt 0.00000000 0.00000000
vt 0.05410600 0.23696000
vt 0.05410600 0.23696000
vt 0.05410600 0.23696000
vt 0.00000000 0.23696000
vt 0.00000000 0.23696000
vt 0.00000000 0.23696000
vt 0.05410600 0.07898700
vt 0.05410600 0.07898700
vt 0.05410600 0.15797300
vt 0.05410600 0.15797300
vt 0.00000000 0.15797300
vt 0.00000000 0.15797300
vt 0.00000000 0.15797300
vt 0.00000000 0.07898700
vt 0.00000000 0.07898700
vt 0.00000000 0.07898700
vt 0.16671300 0.99853500
vt 0.16671300 0.99853500
vt 0.16671300 0.99853500
vt 0.84674900 0.79175000
vt 0.84674900 0.79175000
vt 0.84674900 0.79175000
vt 0.69891500 0.79175000
vt 0.69891500 0.79175000
vt 0.55108100 0.79175000
vt 0.55108100 0.79175000
vt 0.40324700 0.79175000
vt 0.40324700 0.79175000
vt 0.40324700 0.79175000
vt 0.32440200 0.86067800
vt 0.32440200 0.86067800
vt 0.24555700 0.92960700
vt 0.24555700 0.92960700
vt 0.16671300 0.85088000
vt 0.16671300 0.85088000
vt 0.16671300 0.70322600
vt 0.16671300 0.70322600
vt 0.16671300 0.55557100
vt 0.16671300 0.55557100
vt 0.16671300 0.55557100
vt 0.33672200 0.55557100
vt 0.33672200 0.55557100
vt 0.50673100 0.55557100
vt 0.50673100 0.55557100
vt 0.67674000 0.55557100
vt 0.67674000 0.55557100
vt 0.84674900 0.55557100
vt 0.84674900 0.55557100
vt 0.84674900 0.55557100
vt 0.84674900 0.63429700
vt 0.84674900 0.63429700
vt 0.84674900 0.71302300
vt 0.84674900 0.71302300
vt 0.16671300 0.55410600
vt 0.16671300 0.55410600
vt 0.16671300 0.55410600
vt 0.84674900 0.34732000
vt 0.84674900 0.34732000
vt 0.84674900 0.34732000
vt 0.69891500 0.34732000
vt 0.69891500 0.34732000
vt 0.55108100 0.34732000
vt 0.55108100 0.34732000
vt 0.40324700 0.34732000
vt 0.40324700 0.34732000
vt 0.40324700 0.34732000
vt 0.32440200 0.41624900
vt 0.32440200 0.41624900
vt 0.24555700 0.48517800
vt 0.24555700 0.48517800
vt 0.16671300 0.40645100
vt 0.16671300 0.40645100
vt 0.16671300 0.25879600
vt 0.16671300 0.25879600
vt 0.16671300 0.25879600
vt 0.16671300 0.11114200
vt 0.16671300 0.11114200
vt 0.16671300 0.11114200
vt 0.33672200 0.11114200
vt 0.33672200 0.11114200
vt 0.50673100 0.11114200
vt 0.50673100 0.11114200
vt 0.67674000 0.11114200
vt 0.67674000 0.11114200
vt 0.84674900 0.11114200
vt 0.84674900 0.11114200
vt 0.84674900 0.11114200
vt 0.84674900 0.18986800
vt 0.84674900 0.18986800
vt 0.84674900 0.26859400
vt 0.84674900 0.26859400
vt 0.16671300 0.05557100
vt 0.16671300 0.05557100
vt 0.16671300 0.05557100
vt 0.16671300 0.10967700
vt 0.16671300 0.10967700
vt 0.16671300 0.10967700
vt 0.61117000 0.05557100
vt 0.61117000 0.05557100
vt 0.61117000 0.05557100
vt 0.61117000 0.10967700
vt 0.61117000 0.10967700
vt 0.61117000 0.10967700
vt 0.31486500 0.05557100
vt 0.31486500 0.05557100
vt 0.46301700 0.05557100
vt 0.46301700 0.05557100
vt 0.46301700 0.10967700
vt 0.46301700 0.10967700
vt 0.46301700 0.10967700
vt 0.31486500 0.10967700
vt 0.31486500 0.10967700
vt 0.10967700 0.00000000
vt 0.10967700 0.00000000
vt 0.10967700 0.00000000
vt 0.05557100 0.00000000
vt 0.05557100 0.00000000
vt 0.05557100 0.00000000
vt 0.10967700 0.31501300
vt 0.10967700 0.31501300
vt 0.10967700 0.31501300
vt 0.05557100 0.31501300
vt 0.05557100 0.31501300
vt 0.05557100 0.31501300
vt 0.10967700 0.10500400
vt 0.10967700 0.10500400
vt 0.10967700 0.21000900
vt 0.10967700 0.21000900
vt 0.05557100 0.21000900
vt 0.05557100 0.21000900
vt 0.05557100 0.10500400
vt 0.05557100 0.10500400
vt 0.16671300 0.00000000
vt 0.16671300 0.00000000
vt 0.16671300 0.00000000
vt 0.16671300 0.05410600
vt 0.16671300 0.05410600
vt 0.16671300 0.05410600
vt 0.61114200 0.00000000
vt 0.61114200 0.00000000
vt 0.61114200 0.00000000
vt 0.61114200 0.05410600
vt 0.61114200 0.05410600
vt 0.61114200 0.05410600
vt 0.31485600 0.00000000
vt 0.31485600 0.00000000
vt 0.46299900 0.00000000
vt 0.46299900 0.00000000
vt 0.46299900 0.05410600
vt 0.46299900 0.05410600
vt 0.46299900 0.05410600
vt 0.31485600 0.05410600
vt 0.31485600 0.05410600
vt 0.31485600 0.05410600
vt 0.16524800 0.00000000
vt 0.16524800 0.00000000
vt 0.16524800 0.00000000
vt 0.11114200 0.00000000
vt 0.11114200 0.00000000
vt 0.11114200 0.00000000
vt 0.16524800 0.68150100
vt 0.16524800 0.68150100
vt 0.16524800 0.68150100
vt 0.11114200 0.68150100
vt 0.11114200 0.68150100
vt 0.11114200 0.68150100
vt 0.16524800 0.17037500
vt 0.16524800 0.17037500
vt 0.16524800 0.34075000
vt 0.16524800 0.34075000
vt 0.16524800 0.51112600
vt 0.16524800 0.51112600
vt 0.11114200 0.51112600
vt 0.11114200 0.51112600
vt 0.11114200 0.34075000
vt 0.11114200 0.34075000
vt 0.11114200 0.17037500
vt 0.11114200 0.17037500
vt 0.05410600 0.00000000
vt 0.05410600 0.00000000
vt 0.05410600 0.00000000
vt 0.00000000 0.00000000
vt 0.00000000 0.00000000
vt 0.00000000 0.00000000
vt 0.05410600 0.23696000
vt 0.05410600 0.23696000
vt 0.05410600 0.23696000
vt 0.00000000 0.23696000
vt 0.00000000 0.23696000
vt 0.00000000 0.23696000
vt 0.05410600 0.07898700
vt 0.05410600 0.07898700
vt 0.05410600 0.15797300
vt 0.05410600 0.15797300
vt 0.00000000 0.15797300
vt 0.00000000 0.15797300
vt 0.00000000 0.15797300
vt 0.00000000 0.07898700
vt 0.00000000 0.07898700
vt 0.00000000 0.07898700
vt 0.16671300 0.99853500
vt 0.16671300 0.99853500
vt 0.16671300 0.99853500
vt 0.84674900 0.79175000
vt 0.84674900 0.79175000
vt 0.84674900 0.79175000
vt 0.69891500 0.79175000
vt 0.69891500 0.79175000
vt 0.55108100 0.79175000
vt 0.55108100 0.79175000
vt 0.40324700 0.79175000
vt 0.40324700 0.79175000
vt 0.40324700 0.79175000
vt 0.32440200 0.86067800
vt 0.32440200 0.86067800
vt 0.24555700 0.92960700
vt 0.24555700 0.92960700
vt 0.16671300 0.85088000
vt 0.16671300 0.85088000
vt 0.16671300 0.70322600
vt 0.16671300 0.70322600
vt 0.16671300 0.55557100
vt 0.16671300 0.55557100
vt 0.16671300 0.55557100
vt 0.33672200 0.55557100
vt 0.33672200 0.55557100
vt 0.50673100 0.55557100
vt 0.50673100 0.55557100
vt 0.67674000 0.55557100
vt 0.67674000 0.55557100
vt 0.84674900 0.55557100
vt 0.84674900 0.55557100
vt 0.84674900 0.55557100
vt 0.84674900 0.63429700
vt 0.84674900 0.63429700
vt 0.84674900 0.71302300
vt 0.84674900 0.71302300
vt 0.16671300 0.55410600
vt 0.16671300 0.55410600
vt 0.16671300 0.55410600
vt 0.84674900 0.34732000
vt 0.84674900 0.34732000
vt 0.84674900 0.34732000
vt 0.69891500 0.34732000
vt 0.69891500 0.34732000
vt 0.55108100 0.34732000
vt 0.55108100 0.34732000
vt 0.40324700 0.34732000
vt 0.40324700 0.34732000
vt 0.40324700 0.34732000
vt 0.32440200 0.41624900
vt 0.32440200 0.41624900
vt 0.24555700 0.48517800
vt 0.24555700 0.48517800
vt 0.16671300 0.40645100
vt 0.16671300 0.40645100
vt 0.16671300 0.25879600
vt 0.16671300 0.25879600
vt 0.16671300 0.25879600
vt 0.16671300 0.11114200
vt 0.16671300 0.11114200
vt 0.16671300 0.11114200
vt 0.33672200 0.11114200
vt 0.33672200 0.11114200
vt 0.50673100 0.11114200
vt 0.50673100 0.11114200
vt 0.67674000 0.11114200
vt 0.67674000 0.11114200
vt 0.84674900 0.11114200
vt 0.84674900 0.11114200
vt 0.84674900 0.11114200
vt 0.84674900 0.18986800
vt 0.84674900 0.18986800
vt 0.84674900 0.26859400
vt 0.84674900 0.26859400
f 14/14/14 21/21/21 5/5/5
f 21/21/21 14/14/14 16/16/16
f 7/7/7 10/10/10 18/18/18
f 34/34/34 40/40/40 25/25/25
f 40/40/40 34/34/34 36/36/36
f 28/28/28 31/31/31 39/39/39
f 55/55/55 63/63/63 47/47/47
f 63/63/63 55/55/55 57/57/57
f 48/48/48 52/52/52 60/60/60
f 76/76/76 86/86/86 69/69/69
f 86/86/86 76/76/76 78/78/78
f 71/71/71 73/73/73 82/82/82
f 80/80/80 82/82/82 85/85/85
f 100/100/100 107/107/107 92/92/92
f 107/107/107 100/100/100 102/102/102
f 95/95/95 97/97/97 105/105/105
f 134/134/134 133/133/133 130/130/130
f 130/130/130 120/120/120 134/134/134
f 134/134/134 120/120/120 137/137/137
f 123/123/123 120/120/120 130/130/130
f 126/126/126 127/127/127 112/112/112
f 127/127/127 126/126/126 123/123/123
f 123/123/123 130/130/130 127/127/127
f 137/137/137 118/118/118 139/139/139
f 139/139/139 144/144/144 142/142/142
f 144/144/144 139/139/139 145/145/145
f 117/117/117 113/113/113 145/145/145
f 117/117/117 145/145/145 139/139/139
f 173/173/173 166/166/166 171/171/171
f 166/166/166 173/173/173 159/159/159
f 173/173/173 175/175/175 159/159/159
f 160/160/160 166/166/166 159/159/159
f 163/163/163 147/147/147 165/165/165
f 165/165/165 160/160/160 163/163/163
f 160/160/160 165/165/165 166/166/166
f 175/175/175 177/177/177 156/156/156
f 177/177/177 178/178/178 181/181/181
f 181/181/181 183/183/183 177/177/177
f 154/154/154 183/183/183 150/150/150
f 154/154/154 177/177/177 183/183/183
f 14/14/14 5/5/5 2/2/2
f 21/21/21 16/16/16 18/18/18
f 7/7/7 18/18/18 16/16/16
f 34/34/34 25/25/25 24/24/24
f 40/40/40 36/36/36 39/39/39
f 28/28/28 39/39/39 36/36/36
f 55/55/55 47/47/47 43/43/43
f 63/63/63 57/57/57 60/60/60
f 48/48/48 60/60/60 57/57/57
f 76/76/76 69/69/69 65/65/65
f 86/86/86 78/78/78 85/85/85
f 71/71/71 82/82/82 80/80/80
f 80/80/80 85/85/85 78/78/78
f 100/100/100 92/92/92 88/88/88
f 107/107/107 102/102/102 105/105/105
f 95/95/95 105/105/105 102/102/102
f 120/120/120 118/118/118 137/137/137
f 118/118/118 117/117/117 139/139/139
f 175/175/175 156/156/156 159/159/159
f 177/177/177 154/154/154 156/156/156
f 197/197/197 189/189/189 204/204/204
f 204/204/204 199/199/199 197/197/197
f 192/192/192 203/203/203 196/196/196
f 219/219/219 209/209/209 225/225/225
f 225/225/225 221/221/221 219/219/219
f 212/212/212 222/222/222 215/215/215
f 238/238/238 230/230/230 245/245/245
f 245/245/245 240/240/240 238/238/238
f 232/232/232 244/244/244 235/235/235
f 260/260/260 252/252/252 271/271/271
f 271/271/271 262/262/262 260/260/260
f 256/256/256 266/266/266 257/257/257
f 264/264/264 268/268/268 266/266/266
f 284/284/284 276/276/276 292/292/292
f 292/292/292 287/287/287 284/284/284
f 279/279/279 290/290/290 281/281/281
f 319/319/319 314/314/314 315/315/315
f 314/314/314 319/319/319 304/304/304
f 319/319/319 321/321/321 304/304/304
f 308/308/308 314/314/314 304/304/304
f 309/309/309 294/294/294 312/312/312
f 312/312/312 308/308/308 309/309/309
f 308/308/308 312/312/312 314/314/314
f 321/321/321 323/323/323 302/302/302
f 323/323/323 324/324/324 328/328/328
f 328/328/328 330/330/330 323/323/323
f 301/301/301 330/330/330 297/297/297
f 301/301/301 323/323/323 330/330/330
f 356/356/356 353/353/353 350/350/350
f 350/350/350 342/342/342 356/356/356
f 356/356/356 342/342/342 359/359/359
f 344/344/344 342/342/342 350/350/350
f 347/347/347 349/349/349 331/331/331
f 349/349/349 347/347/347 344/344/344
f 344/344/344 350/350/350 349/349/349
f 359/359/359 340/340/340 360/360/360
f 360/360/360 366/366/366 363/363/363
f 366/366/366 360/360/360 367/367/367
f 338/338/338 335/335/335 367/367/367
f 338/338/338 367/367/367 360/360/360
f 197/197/197 186/186/186 189/189/189
f 204/204/204 203/203/203 199/199/199
f 192/192/192 199/199/199 203/203/203
f 219/219/219 207/207/207 209/209/209
f 225/225/225 222/222/222 221/221/221
f 212/212/212 221/221/221 222/222/222
f 238/238/238 226/226/226 230/230/230
f 245/245/245 244/244/244 240/240/240
f 232/232/232 240/240/240 244/244/244
f 260/260/260 250/250/250 252/252/252
f 271/271/271 268/268/268 262/262/262
f 256/256/256 264/264/264 266/266/266
f 264/264/264 262/262/262 268/268/268
f 284/284/284 272/272/272 276/276/276
f 292/292/292 290/290/290 287/287/287
f 279/279/279 287/287/287 290/290/290
f 304/304/304 321/321/321 302/302/302
f 302/302/302 323/323/323 301/301/301
f 359/359/359 342/342/342 340/340/340
f 360/360/360 340/340/340 338/338/338
f 1/1/1 6/6/6 190/190/190
f 190/190/190 185/185/185 1/1/1
f 12/12/12 9/9/9 191/191/191
f 191/191/191 194/194/194 12/12/12
f 15/15/15 13/13/13 198/198/198
f 198/198/198 200/200/200 15/15/15
f 23/23/23 27/27/27 210/210/210
f 210/210/210 206/206/206 23/23/23
f 33/33/33 29/29/29 213/213/213
f 213/213/213 216/216/216 33/33/33
f 37/37/37 35/35/35 218/218/218
f 218/218/218 220/220/220 37/37/37
f 42/42/42 46/46/46 229/229/229
f 229/229/229 228/228/228 42/42/42
f 53/53/53 50/50/50 233/233/233
f 233/233/233 236/236/236 53/53/53
f 56/56/56 54/54/54 239/239/239
f 239/239/239 241/241/241 56/56/56
f 164/164/164 148/148/148 332/332/332
f 332/332/332 348/348/348 164/164/164
f 115/115/115 116/116/116 300/300/300
f 300/300/300 298/298/298 115/115/115
f 75/75/75 70/70/70 254/254/254
f 254/254/254 258/258/258 75/75/75
f 79/79/79 77/77/77 261/261/261
f 261/261/261 263/263/263 79/79/79
f 72/72/72 81/81/81 265/265/265
f 265/265/265 255/255/255 72/72/72
f 90/90/90 93/93/93 275/275/275
f 275/275/275 273/273/273 90/90/90
f 62/62/62 59/59/59 243/243/243
f 243/243/243 246/246/246 62/62/62
f 99/99/99 96/96/96 278/278/278
f 278/278/278 282/282/282 99/99/99
f 103/103/103 101/101/101 285/285/285
f 285/285/285 286/286/286 103/103/103
f 58/58/58 51/51/51 237/237/237
f 237/237/237 242/242/242 58/58/58
f 8/8/8 15/15/15 200/200/200
f 200/200/200 193/193/193 8/8/8
f 4/4/4 20/20/20 205/205/205
f 205/205/205 188/188/188 4/4/4
f 119/119/119 122/122/122 306/306/306
f 306/306/306 303/303/303 119/119/119
f 121/121/121 124/124/124 307/307/307
f 307/307/307 305/305/305 121/121/121
f 125/125/125 111/111/111 296/296/296
f 296/296/296 310/310/310 125/125/125
f 129/129/129 132/132/132 317/317/317
f 317/317/317 313/313/313 129/129/129
f 135/135/135 136/136/136 320/320/320
f 320/320/320 318/318/318 135/135/135
f 136/136/136 138/138/138 322/322/322
f 322/322/322 320/320/320 136/136/136
f 19/19/19 11/11/11 195/195/195
f 195/195/195 202/202/202 19/19/19
f 143/143/143 146/146/146 329/329/329
f 329/329/329 327/327/327 143/143/143
f 162/162/162 161/161/161 345/345/345
f 345/345/345 346/346/346 162/162/162
f 153/153/153 152/152/152 334/334/334
f 334/334/334 337/337/337 153/153/153
f 155/155/155 153/153/153 337/337/337
f 337/337/337 339/339/339 155/155/155
f 66/66/66 67/67/67 251/251/251
f 251/251/251 249/249/249 66/66/66
f 161/161/161 158/158/158 343/343/343
f 343/343/343 345/345/345 161/161/161
f 170/170/170 167/167/167 351/351/351
f 351/351/351 355/355/355 170/170/170
f 172/172/172 169/169/169 354/354/354
f 354/354/354 357/357/357 172/172/172
f 174/174/174 172/172/172 357/357/357
f 357/357/357 358/358/358 174/174/174
f 176/176/176 174/174/174 358/358/358
f 358/358/358 361/361/361 176/176/176
f 110/110/110 128/128/128 311/311/311
f 311/311/311 295/295/295 110/110/110
f 77/77/77 64/64/64 248/248/248
f 248/248/248 261/261/261 77/77/77
f 151/151/151 184/184/184 368/368/368
f 368/368/368 336/336/336 151/151/151
f 109/109/109 106/106/106 289/289/289
f 289/289/289 293/293/293 109/109/109
f 116/116/116 119/119/119 303/303/303
f 303/303/303 300/300/300 116/116/116
f 13/13/13 3/3/3 187/187/187
f 187/187/187 198/198/198 13/13/13
f 124/124/124 125/125/125 310/310/310
f 310/310/310 307/307/307 124/124/124
f 149/149/149 162/162/162 346/346/346
f 346/346/346 333/333/333 149/149/149
f 68/68/68 87/87/87 270/270/270
f 270/270/270 253/253/253 68/68/68
f 157/157/157 155/155/155 339/339/339
f 339/339/339 341/341/341 157/157/157
f 83/83/83 74/74/74 259/259/259
f 259/259/259 267/267/267 83/83/83
f 146/146/146 114/114/114 299/299/299
f 299/299/299 329/329/329 146/146/146
f 35/35/35 22/22/22 208/208/208
f 208/208/208 218/218/218 35/35/35
f 81/81/81 79/79/79 263/263/263
f 263/263/263 265/265/265 81/81/81
f 128/128/128 129/129/129 313/313/313
f 313/313/313 311/311/311 128/128/128
f 94/94/94 103/103/103 286/286/286
f 286/286/286 280/280/280 94/94/94
f 30/30/30 37/37/37 220/220/220
f 220/220/220 214/214/214 30/30/30
f 26/26/26 41/41/41 224/224/224
f 224/224/224 211/211/211 26/26/26
f 49/49/49 56/56/56 241/241/241
f 241/241/241 234/234/234 49/49/49
f 179/179/179 176/176/176 361/361/361
f 361/361/361 362/362/362 179/179/179
f 84/84/84 83/83/83 267/267/267
f 267/267/267 269/269/269 84/84/84
f 131/131/131 135/135/135 318/318/318
f 318/318/318 316/316/316 131/131/131
f 38/38/38 32/32/32 217/217/217
f 217/217/217 223/223/223 38/38/38
f 182/182/182 180/180/180 364/364/364
f 364/364/364 365/365/365 182/182/182
f 87/87/87 84/84/84 269/269/269
f 269/269/269 270/270/270 87/87/87
f 184/184/184 182/182/182 365/365/365
f 365/365/365 368/368/368 184/184/184
f 168/168/168 164/164/164 348/348/348
f 348/348/348 352/352/352 168/168/168
f 41/41/41 38/38/38 223/223/223
f 223/223/223 224/224/224 41/41/41
f 138/138/138 140/140/140 325/325/325
f 325/325/325 322/322/322 138/138/138
f 101/101/101 89/89/89 274/274/274
f 274/274/274 285/285/285 101/101/101
f 141/141/141 143/143/143 327/327/327
f 327/327/327 326/326/326 141/141/141
f 20/20/20 17/17/17 201/201/201
f 201/201/201 205/205/205 20/20/20
f 54/54/54 44/44/44 227/227/227
f 227/227/227 239/239/239 54/54/54
f 91/91/91 108/108/108 291/291/291
f 291/291/291 277/277/277 91/91/91
f 104/104/104 98/98/98 283/283/283
f 283/283/283 288/288/288 104/104/104
f 45/45/45 61/61/61 247/247/247
f 247/247/247 231/231/231 45/45/45

