mtllib material.mtl
usemtl Material-7011油漆.018
v -0.01306200 0.12528400 -0.01644600
v -0.01306200 0.12528400 -0.01644600
v -0.01306200 0.12528400 -0.01644600
v -0.01745700 0.12535600 -0.01657600
v -0.01745700 0.12535600 -0.01657600
v -0.01745700 0.12535600 -0.01657600
v -0.01327600 0.12528100 -0.02501200
v -0.01327600 0.12528100 -0.02501200
v -0.01327600 0.12528100 -0.02501200
v -0.01306200 0.12528500 -0.01644600
v -0.01306200 0.12528500 -0.01644600
v -0.01306200 0.12528500 -0.01644600
v -0.01327600 0.12528200 -0.02501200
v -0.01327600 0.12528200 -0.02501200
v -0.01327600 0.12528200 -0.02501200
v -0.01745700 0.12535700 -0.01657600
v -0.01745700 0.12535700 -0.01657600
v -0.01745700 0.12535700 -0.01657600
v -0.01306200 0.12528500 -0.01644600
v -0.01306200 0.12528500 -0.01644600
v -0.01306200 0.12528500 -0.01644600
v -0.01745700 0.12535700 -0.01657600
v -0.01745700 0.12535700 -0.01657600
v -0.01745700 0.12535700 -0.01657600
v -0.01327600 0.12528200 -0.02501200
v -0.01327600 0.12528200 -0.02501200
v -0.01327600 0.12528200 -0.02501200
v -0.01306200 0.12528400 -0.01644600
v -0.01306200 0.12528400 -0.01644600
v -0.01306200 0.12528400 -0.01644600
v -0.01327600 0.12528100 -0.02501200
v -0.01327600 0.12528100 -0.02501200
v -0.01327600 0.12528100 -0.02501200
v -0.01745700 0.12535600 -0.01657600
v -0.01745700 0.12535600 -0.01657600
v -0.01745700 0.12535600 -0.01657600
vn -0.00000000 -1.00000000 -0.00000000
vn 0.99980000 -0.01540000 -0.00870000
vn -0.03080000 -0.01580000 0.99940000
vn -0.00000000 -1.00000000 -0.00000000
vn -0.89050000 0.01690000 -0.45460000
vn -0.02790000 0.01660000 0.99950000
vn -0.89990000 -0.00030000 -0.43610000
vn 0.99910000 -0.01160000 -0.04050000
vn -0.00000000 -1.00000000 -0.00000000
vn -0.02900000 -0.01580000 0.99950000
vn 0.99900000 -0.01480000 -0.04110000
vn 0.00000000 1.00000000 0.00000000
vn -0.89240000 0.00470000 -0.45120000
vn 0.00000000 1.00000000 0.00000000
vn 0.99990000 -0.00370000 -0.01440000
vn -0.90430000 0.02070000 -0.42630000
vn -0.03500000 0.01590000 0.99930000
vn 0.00000000 1.00000000 0.00000000
vn 0.01540000 0.99980000 0.01550000
vn -0.01370000 -0.00050000 0.99990000
vn 0.99970000 0.00020000 -0.02560000
vn -0.89720000 -0.00090000 -0.44170000
vn 0.02460000 0.99960000 -0.01470000
vn -0.01380000 -0.00150000 0.99990000
vn -0.89090000 0.01070000 -0.45410000
vn 0.99980000 -0.00040000 -0.02050000
vn 0.00180000 1.00000000 -0.00830000
vn 0.99970000 0.00020000 -0.02370000
vn -0.04610000 -0.00050000 0.99890000
vn -0.01540000 -0.99980000 -0.01550000
vn -0.90250000 0.00300000 -0.43070000
vn 0.99930000 -0.00550000 -0.03730000
vn -0.00180000 -1.00000000 0.00830000
vn -0.04530000 -0.00460000 0.99900000
vn -0.02450000 -0.99960000 0.01470000
vn -0.90030000 -0.00000000 -0.43530000
vt 0.00068600 0.03500100
vt 0.00068600 0.03500100
vt 0.00068600 0.03500100
vt 0.00168500 0.81401700
vt 0.00168500 0.81401700
vt 0.00168500 0.81401700
vt 0.03058900 0.01558500
vt 0.03058900 0.01558500
vt 0.03058900 0.01558500
vt 0.00068500 0.03287900
vt 0.00068500 0.03287900
vt 0.00068500 0.03287900
vt 0.03058900 0.01558500
vt 0.03058900 0.01558500
vt 0.03058900 0.01558500
vt 0.00165300 0.80872100
vt 0.00165300 0.80872100
vt 0.00165300 0.80872100
vt 0.00068600 0.03500100
vt 0.00068600 0.03500100
vt 0.00068600 0.03500100
vt 0.00168500 0.81401700
vt 0.00168500 0.81401700
vt 0.00168500 0.81401700
vt 0.03058900 0.01558500
vt 0.03058900 0.01558500
vt 0.03058900 0.01558500
vt 0.00068500 0.03287900
vt 0.00068500 0.03287900
vt 0.00068500 0.03287900
vt 0.03058900 0.01558500
vt 0.03058900 0.01558500
vt 0.03058900 0.01558500
vt 0.00165300 0.80872100
vt 0.00165300 0.80872100
vt 0.00165300 0.80872100
f 1/1/1 4/4/4 9/9/9
f 12/12/12 14/14/14 18/18/18
f 19/19/19 27/27/27 23/23/23
f 30/30/30 35/35/35 33/33/33
f 6/6/6 3/3/3 20/20/20
f 20/20/20 24/24/24 6/6/6
f 2/2/2 8/8/8 26/26/26
f 26/26/26 21/21/21 2/2/2
f 7/7/7 5/5/5 22/22/22
f 22/22/22 25/25/25 7/7/7
f 15/15/15 11/11/11 28/28/28
f 28/28/28 32/32/32 15/15/15
f 10/10/10 17/17/17 34/34/34
f 34/34/34 29/29/29 10/10/10
f 16/16/16 13/13/13 31/31/31
f 31/31/31 36/36/36 16/16/16

