mtllib material.mtl
usemtl Material-7011油漆.004
v -0.02215100 0.12493200 -0.02452600
v -0.02215100 0.12493200 -0.02452600
v -0.02215100 0.12493200 -0.02452600
v -0.02215100 0.12563200 -0.02452600
v -0.02215100 0.12563200 -0.02452600
v -0.02215100 0.12563200 -0.02452600
v -0.02194900 0.12493200 -0.01893100
v -0.02194900 0.12493200 -0.01893100
v -0.02194900 0.12493200 -0.01893100
v -0.02194900 0.12563200 -0.01893100
v -0.02194900 0.12563200 -0.01893100
v -0.02194900 0.12563200 -0.01893100
v -0.02208300 0.12493200 -0.02266100
v -0.02208300 0.12493200 -0.02266100
v -0.02201600 0.12493200 -0.02079600
v -0.02201600 0.12493200 -0.02079600
v -0.02201600 0.12563200 -0.02079600
v -0.02201600 0.12563200 -0.02079600
v -0.02208300 0.12563200 -0.02266100
v -0.02208300 0.12563200 -0.02266100
v -0.02194900 0.12493200 -0.01893100
v -0.02194900 0.12493200 -0.01893100
v -0.02194900 0.12493200 -0.01893100
v -0.02194900 0.12563200 -0.01893100
v -0.02194900 0.12563200 -0.01893100
v -0.02194900 0.12563200 -0.01893100
v -0.02445300 0.12493200 -0.01585300
v -0.02445300 0.12493200 -0.01585300
v -0.02445300 0.12493200 -0.01585300
v -0.02445300 0.12563200 -0.01585300
v -0.02445300 0.12563200 -0.01585300
v -0.02445300 0.12563200 -0.01585300
v -0.02320100 0.12563200 -0.01739200
v -0.02320100 0.12563200 -0.01739200
v -0.02320100 0.12493200 -0.01739200
v -0.02320100 0.12493200 -0.01739200
v -0.02445300 0.12493200 -0.01585200
v -0.02445300 0.12493200 -0.01585200
v -0.02445300 0.12493200 -0.01585200
v -0.02445300 0.12563200 -0.01585200
v -0.02445300 0.12563200 -0.01585200
v -0.02445300 0.12563200 -0.01585200
v -0.01885900 0.12493200 -0.01605400
v -0.01885900 0.12493200 -0.01605400
v -0.01885900 0.12493200 -0.01605400
v -0.01885900 0.12563200 -0.01605400
v -0.01885900 0.12563200 -0.01605400
v -0.01885900 0.12563200 -0.01605400
v -0.02314700 0.12493200 -0.01590000
v -0.02314700 0.12493200 -0.01590000
v -0.02184100 0.12493200 -0.01594700
v -0.02184100 0.12493200 -0.01594700
v -0.02184100 0.12493200 -0.01594700
v -0.02184100 0.12493200 -0.01594700
v -0.02035000 0.12493200 -0.01600000
v -0.02035000 0.12493200 -0.01600000
v -0.02035000 0.12563200 -0.01600000
v -0.02035000 0.12563200 -0.01600000
v -0.02184100 0.12563200 -0.01594700
v -0.02184100 0.12563200 -0.01594700
v -0.02184100 0.12563200 -0.01594700
v -0.02184100 0.12563200 -0.01594700
v -0.02314700 0.12563200 -0.01590000
v -0.02314700 0.12563200 -0.01590000
v -0.02314700 0.12563200 -0.01590000
v -0.01885800 0.12493200 -0.01605400
v -0.01885800 0.12493200 -0.01605400
v -0.01885800 0.12493200 -0.01605400
v -0.01885800 0.12563200 -0.01605400
v -0.01885800 0.12563200 -0.01605400
v -0.01885800 0.12563200 -0.01605400
v -0.01916700 0.12493200 -0.02463400
v -0.01916700 0.12493200 -0.02463400
v -0.01916700 0.12493200 -0.02463400
v -0.01916700 0.12563200 -0.02463400
v -0.01916700 0.12563200 -0.02463400
v -0.01916700 0.12563200 -0.02463400
v -0.01893500 0.12493200 -0.01819900
v -0.01893500 0.12493200 -0.01819900
v -0.01893500 0.12493200 -0.01819900
v -0.01901300 0.12493200 -0.02034400
v -0.01901300 0.12493200 -0.02034400
v -0.01901300 0.12493200 -0.02034400
v -0.01909000 0.12493200 -0.02248900
v -0.01909000 0.12493200 -0.02248900
v -0.01909000 0.12493200 -0.02248900
v -0.01909000 0.12563200 -0.02248900
v -0.01909000 0.12563200 -0.02248900
v -0.01901300 0.12563200 -0.02034400
v -0.01901300 0.12563200 -0.02034400
v -0.01893500 0.12563200 -0.01819900
v -0.01893500 0.12563200 -0.01819900
v -0.01916800 0.12493200 -0.02463400
v -0.01916800 0.12493200 -0.02463400
v -0.01916800 0.12493200 -0.02463400
v -0.01916800 0.12563200 -0.02463400
v -0.01916800 0.12563200 -0.02463400
v -0.01916800 0.12563200 -0.02463400
v -0.02215000 0.12493200 -0.02452700
v -0.02215000 0.12493200 -0.02452700
v -0.02215000 0.12493200 -0.02452700
v -0.02215000 0.12563200 -0.02452700
v -0.02215000 0.12563200 -0.02452700
v -0.02215000 0.12563200 -0.02452700
v -0.02065900 0.12563200 -0.02458100
v -0.02065900 0.12563200 -0.02458100
v -0.02065900 0.12563200 -0.02458100
v -0.02065900 0.12493200 -0.02458100
v -0.02065900 0.12493200 -0.02458100
v -0.02445300 0.12493100 -0.01585300
v -0.02445300 0.12493100 -0.01585300
v -0.02445300 0.12493100 -0.01585300
v -0.01916800 0.12493100 -0.02463400
v -0.01916800 0.12493100 -0.02463400
v -0.01916800 0.12493100 -0.02463400
v -0.02215000 0.12493100 -0.02452600
v -0.02215000 0.12493100 -0.02452600
v -0.02215000 0.12493100 -0.02452600
v -0.02208300 0.12493100 -0.02266100
v -0.02208300 0.12493100 -0.02266100
v -0.02201600 0.12493100 -0.02079600
v -0.02201600 0.12493100 -0.02079600
v -0.02194900 0.12493100 -0.01893100
v -0.02194900 0.12493100 -0.01893100
v -0.02194900 0.12493100 -0.01893100
v -0.02320100 0.12493100 -0.01739200
v -0.02320100 0.12493100 -0.01739200
v -0.02314700 0.12493100 -0.01590000
v -0.02314700 0.12493100 -0.01590000
v -0.02184100 0.12493100 -0.01594700
v -0.02184100 0.12493100 -0.01594700
v -0.02184100 0.12493100 -0.01594700
v -0.02035000 0.12493100 -0.01600100
v -0.02035000 0.12493100 -0.01600100
v -0.02035000 0.12493100 -0.01600100
v -0.01885900 0.12493100 -0.01605400
v -0.01885900 0.12493100 -0.01605400
v -0.01885900 0.12493100 -0.01605400
v -0.01893600 0.12493100 -0.01819900
v -0.01893600 0.12493100 -0.01819900
v -0.01901300 0.12493100 -0.02034400
v -0.01901300 0.12493100 -0.02034400
v -0.01909000 0.12493100 -0.02248900
v -0.01909000 0.12493100 -0.02248900
v -0.02065900 0.12493100 -0.02458000
v -0.02065900 0.12493100 -0.02458000
v -0.02445300 0.12563200 -0.01585300
v -0.02445300 0.12563200 -0.01585300
v -0.02445300 0.12563200 -0.01585300
v -0.01916800 0.12563200 -0.02463400
v -0.01916800 0.12563200 -0.02463400
v -0.01916800 0.12563200 -0.02463400
v -0.02215000 0.12563200 -0.02452600
v -0.02215000 0.12563200 -0.02452600
v -0.02215000 0.12563200 -0.02452600
v -0.02208300 0.12563200 -0.02266100
v -0.02208300 0.12563200 -0.02266100
v -0.02201600 0.12563200 -0.02079600
v -0.02201600 0.12563200 -0.02079600
v -0.02201600 0.12563200 -0.02079600
v -0.02194900 0.12563200 -0.01893100
v -0.02194900 0.12563200 -0.01893100
v -0.02194900 0.12563200 -0.01893100
v -0.02320100 0.12563200 -0.01739200
v -0.02320100 0.12563200 -0.01739200
v -0.02314700 0.12563200 -0.01590000
v -0.02314700 0.12563200 -0.01590000
v -0.02184100 0.12563200 -0.01594700
v -0.02184100 0.12563200 -0.01594700
v -0.02184100 0.12563200 -0.01594700
v -0.02035000 0.12563200 -0.01600100
v -0.02035000 0.12563200 -0.01600100
v -0.01885900 0.12563200 -0.01605400
v -0.01885900 0.12563200 -0.01605400
v -0.01885900 0.12563200 -0.01605400
v -0.01893600 0.12563200 -0.01819900
v -0.01893600 0.12563200 -0.01819900
v -0.01893600 0.12563200 -0.01819900
v -0.01901300 0.12563200 -0.02034400
v -0.01901300 0.12563200 -0.02034400
v -0.01909000 0.12563200 -0.02248900
v -0.01909000 0.12563200 -0.02248900
v -0.01909000 0.12563200 -0.02248900
v -0.02065900 0.12563200 -0.02458000
v -0.02065900 0.12563200 -0.02458000
v -0.02065900 0.12563200 -0.02458000
v -0.02215000 0.12493200 -0.02452600
v -0.02215000 0.12493200 -0.02452600
v -0.02215000 0.12493200 -0.02452600
v -0.02215000 0.12563200 -0.02452600
v -0.02215000 0.12563200 -0.02452600
v -0.02215000 0.12563200 -0.02452600
v -0.02194800 0.12493200 -0.01893100
v -0.02194800 0.12493200 -0.01893100
v -0.02194800 0.12493200 -0.01893100
v -0.02194800 0.12563200 -0.01893100
v -0.02194800 0.12563200 -0.01893100
v -0.02194800 0.12563200 -0.01893100
v -0.02208200 0.12493200 -0.02266100
v -0.02208200 0.12493200 -0.02266100
v -0.02201500 0.12493200 -0.02079600
v -0.02201500 0.12493200 -0.02079600
v -0.02201500 0.12563200 -0.02079600
v -0.02201500 0.12563200 -0.02079600
v -0.02208200 0.12563200 -0.02266100
v -0.02208200 0.12563200 -0.02266100
v -0.02194800 0.12493200 -0.01893100
v -0.02194800 0.12493200 -0.01893100
v -0.02194800 0.12493200 -0.01893100
v -0.02194800 0.12563200 -0.01893100
v -0.02194800 0.12563200 -0.01893100
v -0.02194800 0.12563200 -0.01893100
v -0.02445200 0.12493200 -0.01585300
v -0.02445200 0.12493200 -0.01585300
v -0.02445200 0.12493200 -0.01585300
v -0.02445200 0.12563200 -0.01585300
v -0.02445200 0.12563200 -0.01585300
v -0.02445200 0.12563200 -0.01585300
v -0.02320000 0.12563200 -0.01739200
v -0.02320000 0.12563200 -0.01739200
v -0.02320000 0.12493200 -0.01739200
v -0.02320000 0.12493200 -0.01739200
v -0.02445300 0.12493200 -0.01585300
v -0.02445300 0.12493200 -0.01585300
v -0.02445300 0.12493200 -0.01585300
v -0.02445300 0.12563200 -0.01585300
v -0.02445300 0.12563200 -0.01585300
v -0.02445300 0.12563200 -0.01585300
v -0.01885900 0.12493200 -0.01605500
v -0.01885900 0.12493200 -0.01605500
v -0.01885900 0.12493200 -0.01605500
v -0.01885900 0.12563200 -0.01605500
v -0.01885900 0.12563200 -0.01605500
v -0.01885900 0.12563200 -0.01605500
v -0.02314700 0.12493200 -0.01590100
v -0.02314700 0.12493200 -0.01590100
v -0.02184100 0.12493200 -0.01594800
v -0.02184100 0.12493200 -0.01594800
v -0.02184100 0.12493200 -0.01594800
v -0.02184100 0.12493200 -0.01594800
v -0.02035000 0.12493200 -0.01600100
v -0.02035000 0.12493200 -0.01600100
v -0.02035000 0.12563200 -0.01600100
v -0.02035000 0.12563200 -0.01600100
v -0.02184100 0.12563200 -0.01594800
v -0.02184100 0.12563200 -0.01594800
v -0.02184100 0.12563200 -0.01594800
v -0.02184100 0.12563200 -0.01594800
v -0.02314700 0.12563200 -0.01590100
v -0.02314700 0.12563200 -0.01590100
v -0.02314700 0.12563200 -0.01590100
v -0.01885900 0.12493200 -0.01605400
v -0.01885900 0.12493200 -0.01605400
v -0.01885900 0.12493200 -0.01605400
v -0.01885900 0.12563200 -0.01605400
v -0.01885900 0.12563200 -0.01605400
v -0.01885900 0.12563200 -0.01605400
v -0.01916800 0.12493200 -0.02463400
v -0.01916800 0.12493200 -0.02463400
v -0.01916800 0.12493200 -0.02463400
v -0.01916800 0.12563200 -0.02463400
v -0.01916800 0.12563200 -0.02463400
v -0.01916800 0.12563200 -0.02463400
v -0.01893600 0.12493200 -0.01819900
v -0.01893600 0.12493200 -0.01819900
v -0.01893600 0.12493200 -0.01819900
v -0.01901400 0.12493200 -0.02034400
v -0.01901400 0.12493200 -0.02034400
v -0.01901400 0.12493200 -0.02034400
v -0.01909100 0.12493200 -0.02248900
v -0.01909100 0.12493200 -0.02248900
v -0.01909100 0.12493200 -0.02248900
v -0.01909100 0.12563200 -0.02248900
v -0.01909100 0.12563200 -0.02248900
v -0.01901400 0.12563200 -0.02034400
v -0.01901400 0.12563200 -0.02034400
v -0.01893600 0.12563200 -0.01819900
v -0.01893600 0.12563200 -0.01819900
v -0.01916800 0.12493200 -0.02463300
v -0.01916800 0.12493200 -0.02463300
v -0.01916800 0.12493200 -0.02463300
v -0.01916800 0.12563200 -0.02463300
v -0.01916800 0.12563200 -0.02463300
v -0.01916800 0.12563200 -0.02463300
v -0.02215000 0.12493200 -0.02452600
v -0.02215000 0.12493200 -0.02452600
v -0.02215000 0.12493200 -0.02452600
v -0.02215000 0.12563200 -0.02452600
v -0.02215000 0.12563200 -0.02452600
v -0.02215000 0.12563200 -0.02452600
v -0.02065900 0.12563200 -0.02458000
v -0.02065900 0.12563200 -0.02458000
v -0.02065900 0.12563200 -0.02458000
v -0.02065900 0.12493200 -0.02458000
v -0.02065900 0.12493200 -0.02458000
v -0.02445300 0.12493200 -0.01585300
v -0.02445300 0.12493200 -0.01585300
v -0.02445300 0.12493200 -0.01585300
v -0.01916800 0.12493200 -0.02463400
v -0.01916800 0.12493200 -0.02463400
v -0.01916800 0.12493200 -0.02463400
v -0.02215000 0.12493200 -0.02452600
v -0.02215000 0.12493200 -0.02452600
v -0.02215000 0.12493200 -0.02452600
v -0.02208300 0.12493200 -0.02266100
v -0.02208300 0.12493200 -0.02266100
v -0.02201600 0.12493200 -0.02079600
v -0.02201600 0.12493200 -0.02079600
v -0.02194900 0.12493200 -0.01893100
v -0.02194900 0.12493200 -0.01893100
v -0.02194900 0.12493200 -0.01893100
v -0.02320100 0.12493200 -0.01739200
v -0.02320100 0.12493200 -0.01739200
v -0.02314700 0.12493200 -0.01590000
v -0.02314700 0.12493200 -0.01590000
v -0.02184100 0.12493200 -0.01594700
v -0.02184100 0.12493200 -0.01594700
v -0.02184100 0.12493200 -0.01594700
v -0.02035000 0.12493200 -0.01600100
v -0.02035000 0.12493200 -0.01600100
v -0.02035000 0.12493200 -0.01600100
v -0.01885900 0.12493200 -0.01605400
v -0.01885900 0.12493200 -0.01605400
v -0.01885900 0.12493200 -0.01605400
v -0.01893600 0.12493200 -0.01819900
v -0.01893600 0.12493200 -0.01819900
v -0.01901300 0.12493200 -0.02034400
v -0.01901300 0.12493200 -0.02034400
v -0.01909000 0.12493200 -0.02248900
v -0.01909000 0.12493200 -0.02248900
v -0.02065900 0.12493200 -0.02458000
v -0.02065900 0.12493200 -0.02458000
v -0.02445300 0.12563100 -0.01585300
v -0.02445300 0.12563100 -0.01585300
v -0.02445300 0.12563100 -0.01585300
v -0.01916800 0.12563100 -0.02463400
v -0.01916800 0.12563100 -0.02463400
v -0.01916800 0.12563100 -0.02463400
v -0.02215000 0.12563100 -0.02452600
v -0.02215000 0.12563100 -0.02452600
v -0.02215000 0.12563100 -0.02452600
v -0.02208300 0.12563100 -0.02266100
v -0.02208300 0.12563100 -0.02266100
v -0.02201600 0.12563100 -0.02079600
v -0.02201600 0.12563100 -0.02079600
v -0.02201600 0.12563100 -0.02079600
v -0.02194900 0.12563100 -0.01893100
v -0.02194900 0.12563100 -0.01893100
v -0.02194900 0.12563100 -0.01893100
v -0.02320100 0.12563100 -0.01739200
v -0.02320100 0.12563100 -0.01739200
v -0.02314700 0.12563100 -0.01590000
v -0.02314700 0.12563100 -0.01590000
v -0.02184100 0.12563100 -0.01594700
v -0.02184100 0.12563100 -0.01594700
v -0.02184100 0.12563100 -0.01594700
v -0.02035000 0.12563100 -0.01600100
v -0.02035000 0.12563100 -0.01600100
v -0.01885900 0.12563100 -0.01605400
v -0.01885900 0.12563100 -0.01605400
v -0.01885900 0.12563100 -0.01605400
v -0.01893600 0.12563100 -0.01819900
v -0.01893600 0.12563100 -0.01819900
v -0.01893600 0.12563100 -0.01819900
v -0.01901300 0.12563100 -0.02034400
v -0.01901300 0.12563100 -0.02034400
v -0.01909000 0.12563100 -0.02248900
v -0.01909000 0.12563100 -0.02248900
v -0.01909000 0.12563100 -0.02248900
v -0.02065900 0.12563100 -0.02458000
v -0.02065900 0.12563100 -0.02458000
v -0.02065900 0.12563100 -0.02458000
vn 0.00000000 -1.00000000 -0.00000000
vn -0.99940000 0.00000000 0.03600000
vn -0.03380000 0.00000000 -0.99940000
vn -0.99940000 0.00000000 0.03600000
vn 0.00000000 1.00000000 0.00000000
vn -0.03380000 0.00000000 -0.99940000
vn 0.00000000 -1.00000000 -0.00000000
vn -0.99940000 0.00000000 0.03600000
vn 0.03380000 0.00000000 0.99940000
vn 0.00000000 1.00000000 0.00000000
vn -0.99940000 0.00000000 0.03600000
vn 0.03380000 0.00000000 0.99940000
vn 0.00000000 -1.00000000 -0.00000000
vn -0.99940000 0.00000000 0.03600000
vn 0.00000000 -1.00000000 -0.00000000
vn -0.99940000 0.00000000 0.03600000
vn 0.00000000 1.00000000 0.00000000
vn -0.99940000 0.00000000 0.03600000
vn -0.99940000 0.00000000 0.03600000
vn 0.00000000 1.00000000 0.00000000
vn -0.77570000 0.00000000 -0.63110000
vn 0.63090000 0.00000000 -0.77580000
vn 0.00000000 -1.00000000 -0.00000000
vn 0.00000000 1.00000000 0.00000000
vn 0.63090000 0.00000000 -0.77580000
vn -0.77570000 0.00000000 -0.63110000
vn -0.77570000 0.00000000 -0.63110000
vn -0.63170000 0.00000000 0.77520000
vn 0.00000000 -1.00000000 -0.00000000
vn -0.63170000 0.00000000 0.77520000
vn 0.00000000 1.00000000 0.00000000
vn -0.77570000 0.00000000 -0.63110000
vn 0.00000000 1.00000000 0.00000000
vn -0.77570000 0.00000000 -0.63110000
vn 0.00000000 -1.00000000 -0.00000000
vn -0.77570000 0.00000000 -0.63110000
vn 0.00000000 -1.00000000 -0.00000000
vn -0.99940000 0.00000000 0.03350000
vn 0.03610000 0.00000000 0.99930000
vn -0.99940000 0.00000000 0.03350000
vn 0.03610000 0.00000000 0.99930000
vn 0.00000000 1.00000000 0.00000000
vn 0.03590000 0.00000000 0.99940000
vn 0.99940000 0.00000000 -0.03540000
vn 0.00000000 -1.00000000 -0.00000000
vn 0.03590000 0.00000000 0.99940000
vn 0.99940000 0.00000000 -0.03540000
vn 0.00000000 1.00000000 0.00000000
vn 0.00000000 -1.00000000 -0.00000000
vn 0.03610000 0.00000000 0.99930000
vn 0.03570000 -0.00000000 0.99940000
vn 0.00000000 -1.00000000 -0.00000000
vn 0.03590000 0.00000000 0.99940000
vn 0.03610000 0.00000000 0.99930000
vn 0.00000000 -1.00000000 -0.00000000
vn 0.03590000 0.00000000 0.99940000
vn 0.00000000 1.00000000 0.00000000
vn 0.03590000 0.00000000 0.99940000
vn 0.00000000 1.00000000 0.00000000
vn 0.03590000 0.00000000 0.99940000
vn -0.00000000 0.99990000 0.01080000
vn 0.03570000 -0.00000000 0.99940000
vn 0.00000000 1.00000000 0.00000000
vn 0.00000000 0.99990000 0.01110000
vn 0.03610000 0.00000000 0.99930000
vn 0.99940000 0.00000000 -0.03600000
vn 0.03380000 0.00000000 0.99940000
vn 0.00000000 -1.00000000 -0.00000000
vn 0.99940000 0.00000000 -0.03600000
vn 0.03380000 0.00000000 0.99940000
vn 0.00000000 1.00000000 0.00000000
vn -0.03380000 0.00000000 -0.99940000
vn 0.99940000 0.00000000 -0.03600000
vn 0.00000000 -1.00000000 -0.00000000
vn -0.03380000 0.00000000 -0.99940000
vn 0.00000000 1.00000000 0.00000000
vn 0.99940000 0.00000000 -0.03600000
vn 0.00000000 -1.00000000 -0.00000000
vn 0.00000000 -1.00000000 0.00040000
vn 0.99940000 0.00000000 -0.03600000
vn 0.00000000 -1.00000000 -0.00040000
vn 0.99940000 0.00000000 -0.03600000
vn 0.00000000 -1.00000000 0.00040000
vn 0.00000000 -1.00000000 -0.00040000
vn 0.00000000 -1.00000000 -0.00000000
vn 0.99940000 0.00000000 -0.03600000
vn 0.99940000 0.00000000 -0.03600000
vn 0.00000000 1.00000000 0.00000000
vn 0.00000000 1.00000000 0.00000000
vn 0.99940000 0.00000000 -0.03600000
vn 0.99940000 0.00000000 -0.03600000
vn 0.00000000 1.00000000 0.00000000
vn 0.00000000 -1.00000000 -0.00000000
vn 0.99940000 0.00000000 -0.03540000
vn -0.03600000 0.00000000 -0.99940000
vn -0.03600000 0.00000000 -0.99940000
vn 0.99940000 0.00000000 -0.03540000
vn 0.00000000 1.00000000 0.00980000
vn 0.00000000 -1.00000000 -0.00000000
vn -0.99940000 0.00000000 0.03360000
vn -0.03600000 0.00000000 -0.99940000
vn 0.00000000 1.00000000 0.00000000
vn -0.03600000 0.00000000 -0.99940000
vn -0.99940000 0.00000000 0.03360000
vn 0.00000000 1.00000000 0.00000000
vn -0.03600000 0.00000000 -0.99940000
vn 0.00000000 1.00000000 0.00980000
vn -0.03600000 0.00000000 -0.99940000
vn 0.00000000 -1.00000000 -0.00000000
vn -0.77410000 0.00000000 -0.63310000
vn 0.00000000 -1.00000000 -0.00000000
vn 0.03620000 0.00000000 0.99930000
vn 0.99930000 0.00000000 -0.03620000
vn -0.03570000 0.00000000 -0.99940000
vn 0.00000000 -1.00000000 -0.00000000
vn 0.00000000 -1.00000000 -0.00000000
vn -0.03570000 0.00000000 -0.99940000
vn -0.99940000 0.00000000 0.03590000
vn 0.00000000 -1.00000000 -0.00000000
vn -0.99940000 0.00000000 0.03590000
vn 0.00000000 -1.00000000 -0.00000000
vn -0.99940000 0.00000000 0.03590000
vn -0.77410000 0.00000000 -0.63310000
vn -0.99940000 0.00000000 0.03590000
vn 0.00000000 -1.00000000 -0.00000000
vn 0.00000000 -1.00000000 -0.00000000
vn -0.77410000 0.00000000 -0.63310000
vn 0.03620000 0.00000000 0.99930000
vn 0.00000000 -1.00000000 -0.00000000
vn 0.00000000 -1.00000000 -0.00000000
vn 0.03620000 0.00000000 0.99930000
vn 0.03600000 0.00000000 0.99940000
vn 0.03560000 0.00000000 0.99940000
vn 0.00000000 -1.00000000 -0.00000000
vn 0.03600000 0.00000000 0.99940000
vn 0.00000000 -1.00000000 -0.00000000
vn 0.99930000 0.00000000 -0.03620000
vn 0.03560000 0.00000000 0.99940000
vn 0.99930000 0.00000000 -0.03620000
vn 0.00000000 -1.00000000 -0.00000000
vn 0.00000000 -1.00000000 -0.00000000
vn 0.99930000 0.00000000 -0.03620000
vn 0.99930000 0.00000000 -0.03620000
vn 0.00000000 -1.00000000 -0.00000000
vn 0.00000000 -1.00000000 -0.00000000
vn -0.03570000 0.00000000 -0.99940000
vn 0.00000000 1.00000000 0.00000000
vn 0.03590000 0.00000000 0.99940000
vn -0.77540000 0.00000000 -0.63150000
vn -0.03610000 0.00000000 -0.99930000
vn 0.00000000 1.00000000 0.00000000
vn 0.99930000 0.00000000 -0.03610000
vn -0.03580000 0.00000000 -0.99940000
vn 0.00000000 1.00000000 0.00000000
vn -0.99930000 0.00000000 0.03610000
vn 0.00000000 1.00000000 0.00000000
vn -0.99930000 0.00000000 0.03610000
vn -0.99930000 0.00000000 0.03610000
vn 0.00000000 1.00000000 0.00000000
vn -0.99940000 0.00000000 0.03560000
vn -0.77540000 0.00000000 -0.63150000
vn 0.00000000 1.00000000 0.00000000
vn -0.99940000 0.00000000 0.03560000
vn -0.77540000 0.00000000 -0.63150000
vn 0.00000000 1.00000000 0.00000000
vn 0.00000000 1.00000000 0.00000000
vn 0.03590000 0.00000000 0.99940000
vn 0.00000000 1.00000000 0.00000000
vn 0.03610000 0.00000000 0.99930000
vn 0.03590000 0.00000000 0.99940000
vn 0.03610000 0.00000000 0.99930000
vn 0.00000000 1.00000000 0.00000000
vn 0.99930000 0.00000000 -0.03610000
vn 0.03610000 0.00000000 0.99930000
vn 0.00000000 1.00000000 0.00000000
vn 0.99940000 0.00000000 -0.03570000
vn 0.00000000 1.00000000 0.00000000
vn 0.99930000 0.00000000 -0.03610000
vn 0.99940000 0.00000000 -0.03570000
vn 0.00000000 1.00000000 0.00000000
vn 0.99930000 0.00000000 -0.03610000
vn 0.99940000 0.00000000 -0.03570000
vn 0.00000000 1.00000000 0.00000000
vn 0.00000000 1.00000000 0.00000000
vn -0.03610000 0.00000000 -0.99930000
vn -0.03580000 0.00000000 -0.99940000
vn 0.99940000 0.00000000 -0.03600000
vn 0.00000000 -1.00000000 -0.00000000
vn -0.03380000 0.00000000 -0.99940000
vn 0.00000000 1.00000000 0.00000000
vn 0.99940000 0.00000000 -0.03600000
vn -0.03380000 0.00000000 -0.99940000
vn 0.99940000 0.00000000 -0.03600000
vn 0.03380000 0.00000000 0.99940000
vn 0.00000000 -1.00000000 -0.00000000
vn 0.03380000 0.00000000 0.99940000
vn 0.00000000 1.00000000 0.00000000
vn 0.99940000 0.00000000 -0.03600000
vn 0.99940000 0.00000000 -0.03600000
vn 0.00000000 -1.00000000 -0.00000000
vn 0.99940000 0.00000000 -0.03600000
vn 0.00000000 -1.00000000 -0.00000000
vn 0.00000000 1.00000000 0.00000000
vn 0.99940000 0.00000000 -0.03600000
vn 0.00000000 1.00000000 0.00000000
vn 0.99940000 0.00000000 -0.03600000
vn 0.63090000 0.00000000 -0.77580000
vn 0.77570000 0.00000000 0.63110000
vn 0.00000000 -1.00000000 -0.00000000
vn 0.00000000 1.00000000 0.00000000
vn 0.63090000 0.00000000 -0.77580000
vn 0.77570000 0.00000000 0.63110000
vn 0.00000000 -1.00000000 -0.00000000
vn -0.63170000 0.00000000 0.77520000
vn 0.77570000 0.00000000 0.63110000
vn 0.00000000 1.00000000 0.00000000
vn 0.77570000 0.00000000 0.63110000
vn -0.63170000 0.00000000 0.77520000
vn 0.77570000 0.00000000 0.63110000
vn 0.00000000 1.00000000 0.00000000
vn 0.77570000 0.00000000 0.63110000
vn 0.00000000 -1.00000000 -0.00000000
vn -0.03610000 0.00000000 -0.99930000
vn 0.00000000 -1.00000000 -0.00000000
vn -0.99940000 0.00000000 0.03350000
vn 0.00000000 1.00000000 0.00000000
vn -0.03610000 0.00000000 -0.99930000
vn -0.99940000 0.00000000 0.03350000
vn -0.03590000 0.00000000 -0.99940000
vn 0.00000000 -1.00000000 -0.00000000
vn 0.99940000 0.00000000 -0.03540000
vn 0.99940000 0.00000000 -0.03540000
vn -0.03590000 0.00000000 -0.99940000
vn 0.00000000 1.00000000 0.00000000
vn -0.03610000 0.00000000 -0.99930000
vn 0.00000000 -1.00000000 -0.00000000
vn -0.03590000 0.00030000 -0.99940000
vn -0.03610000 0.00000000 -0.99930000
vn -0.03590000 0.00000000 -0.99940000
vn 0.00000000 -1.00000000 -0.00000000
vn -0.03590000 0.00000000 -0.99940000
vn 0.00000000 -1.00000000 -0.00000000
vn 0.00000000 1.00000000 0.00000000
vn -0.03590000 0.00000000 -0.99940000
vn -0.03610000 -0.00030000 -0.99930000
vn 0.00000000 1.00000000 0.00000000
vn -0.03590000 0.00000000 -0.99940000
vn -0.00030000 0.99990000 0.01120000
vn -0.03610000 0.00000000 -0.99930000
vn 0.00000000 1.00000000 0.00000000
vn 0.00000000 0.99990000 0.01110000
vn 0.00000000 -1.00000000 -0.00000000
vn -0.99940000 0.00000000 0.03600000
vn 0.03380000 0.00000000 0.99940000
vn 0.03380000 0.00000000 0.99940000
vn 0.00000000 1.00000000 0.00000000
vn -0.99940000 0.00000000 0.03600000
vn -0.03380000 0.00000000 -0.99940000
vn -0.99940000 0.00000000 0.03600000
vn 0.00000000 -1.00000000 -0.00000000
vn -0.03380000 0.00000000 -0.99940000
vn 0.00000000 1.00000000 0.00000000
vn -0.99940000 0.00000000 0.03600000
vn 0.00000000 -1.00000000 -0.00000000
vn -0.99940000 0.00000000 0.03600000
vn 0.00000000 -1.00000000 0.00040000
vn 0.00000000 -1.00000000 0.00040000
vn 0.00000000 -1.00000000 -0.00040000
vn -0.99940000 0.00000000 0.03600000
vn -0.99940000 0.00000000 0.03600000
vn 0.00000000 -1.00000000 -0.00000000
vn 0.00000000 -1.00000000 -0.00040000
vn -0.99940000 0.00000000 0.03600000
vn 0.00000000 1.00000000 0.00000000
vn -0.99940000 0.00000000 0.03600000
vn 0.00000000 1.00000000 0.00000000
vn 0.00000000 1.00000000 0.00000000
vn -0.99940000 0.00000000 0.03600000
vn 0.00000000 -1.00000000 -0.00000000
vn 0.99940000 0.00000000 -0.03540000
vn 0.03600000 0.00000000 0.99940000
vn 0.99940000 0.00000000 -0.03540000
vn 0.00000000 1.00000000 0.00980000
vn 0.03600000 0.00000000 0.99940000
vn 0.03600000 0.00000000 0.99940000
vn -0.99940000 0.00000000 0.03360000
vn 0.00000000 -1.00000000 -0.00000000
vn 0.03600000 0.00000000 0.99940000
vn -0.99940000 0.00000000 0.03360000
vn 0.00000000 1.00000000 0.00000000
vn 0.00000000 1.00000000 0.00000000
vn 0.00000000 1.00000000 0.00980000
vn 0.03600000 0.00000000 0.99940000
vn 0.00000000 -1.00000000 -0.00000000
vn 0.03600000 0.00000000 0.99940000
vn 0.00000000 1.00000000 0.00000000
vn -0.77410000 0.00000000 -0.63310000
vn 0.03620000 0.00000000 0.99930000
vn 0.99930000 0.00000000 -0.03620000
vn -0.03570000 0.00000000 -0.99940000
vn 0.00000000 1.00000000 0.00000000
vn -0.03570000 0.00000000 -0.99940000
vn -0.99940000 0.00000000 0.03590000
vn 0.00000000 1.00000000 0.00000000
vn 0.00000000 1.00000000 0.00000000
vn -0.99940000 0.00000000 0.03590000
vn -0.99940000 0.00000000 0.03590000
vn 0.00000000 1.00000000 0.00000000
vn -0.77410000 0.00000000 -0.63310000
vn 0.00000000 1.00000000 0.00000000
vn -0.99940000 0.00000000 0.03590000
vn 0.00000000 1.00000000 0.00000000
vn -0.77410000 0.00000000 -0.63310000
vn 0.03620000 0.00000000 0.99930000
vn 0.00000000 1.00000000 0.00000000
vn 0.03620000 0.00000000 0.99930000
vn 0.03600000 0.00000000 0.99940000
vn 0.00000000 1.00000000 0.00000000
vn 0.03600000 0.00000000 0.99940000
vn 0.00000000 1.00000000 0.00000000
vn 0.03560000 0.00000000 0.99940000
vn 0.00000000 1.00000000 0.00000000
vn 0.03560000 0.00000000 0.99940000
vn 0.99930000 0.00000000 -0.03620000
vn 0.00000000 1.00000000 0.00000000
vn 0.99930000 0.00000000 -0.03620000
vn 0.99930000 0.00000000 -0.03620000
vn 0.00000000 1.00000000 0.00000000
vn 0.99930000 0.00000000 -0.03620000
vn 0.00000000 1.00000000 0.00000000
vn -0.03570000 0.00000000 -0.99940000
vn 0.00000000 1.00000000 0.00000000
vn 0.03590000 0.00000000 0.99940000
vn 0.00000000 -1.00000000 -0.00000000
vn -0.77540000 0.00000000 -0.63150000
vn 0.00000000 -1.00000000 -0.00000000
vn -0.03610000 0.00000000 -0.99930000
vn 0.99930000 0.00000000 -0.03610000
vn 0.00000000 -1.00000000 -0.00000000
vn -0.99930000 0.00000000 0.03610000
vn -0.03580000 0.00000000 -0.99940000
vn 0.00000000 -1.00000000 -0.00000000
vn -0.99930000 0.00000000 0.03610000
vn -0.99940000 0.00000000 0.03560000
vn -0.99930000 0.00000000 0.03610000
vn 0.00000000 -1.00000000 -0.00000000
vn -0.77540000 0.00000000 -0.63150000
vn -0.99940000 0.00000000 0.03560000
vn 0.00000000 -1.00000000 -0.00000000
vn -0.77540000 0.00000000 -0.63150000
vn 0.00000000 -1.00000000 -0.00000000
vn 0.03590000 0.00000000 0.99940000
vn 0.00000000 -1.00000000 -0.00000000
vn 0.03610000 0.00000000 0.99930000
vn 0.03590000 0.00000000 0.99940000
vn 0.00000000 -1.00000000 -0.00000000
vn 0.00000000 -1.00000000 -0.00000000
vn 0.03610000 0.00000000 0.99930000
vn 0.03610000 0.00000000 0.99930000
vn 0.00000000 -1.00000000 -0.00000000
vn 0.99930000 0.00000000 -0.03610000
vn 0.99930000 0.00000000 -0.03610000
vn 0.99940000 0.00000000 -0.03570000
vn 0.00000000 -1.00000000 -0.00000000
vn 0.00000000 -1.00000000 -0.00000000
vn 0.99940000 0.00000000 -0.03570000
vn 0.99930000 0.00000000 -0.03610000
vn 0.00000000 -1.00000000 -0.00000000
vn 0.99940000 0.00000000 -0.03570000
vn 0.00000000 -1.00000000 -0.00000000
vn -0.03580000 0.00000000 -0.99940000
vn -0.03610000 0.00000000 -0.99930000
vt 0.16672200 0.05557400
vt 0.16672200 0.05557400
vt 0.16672200 0.05557400
vt 0.16672200 0.10968300
vt 0.16672200 0.10968300
vt 0.16672200 0.10968300
vt 0.61123200 0.05557400
vt 0.61123200 0.05557400
vt 0.61123200 0.05557400
vt 0.61123200 0.10968300
vt 0.61123200 0.10968300
vt 0.61123200 0.10968300
vt 0.31489200 0.05557400
vt 0.31489200 0.05557400
vt 0.46306200 0.05557400
vt 0.46306200 0.05557400
vt 0.46306200 0.10968300
vt 0.46306200 0.10968300
vt 0.31489200 0.10968300
vt 0.31489200 0.10968300
vt 0.10968300 0.00000000
vt 0.10968300 0.00000000
vt 0.10968300 0.00000000
vt 0.05557400 0.00000000
vt 0.05557400 0.00000000
vt 0.05557400 0.00000000
vt 0.10968300 0.31503100
vt 0.10968300 0.31503100
vt 0.10968300 0.31503100
vt 0.05557400 0.31503100
vt 0.05557400 0.31503100
vt 0.05557400 0.31503100
vt 0.05557400 0.15751500
vt 0.05557400 0.15751500
vt 0.10968300 0.15751500
vt 0.10968300 0.15751500
vt 0.16672200 0.00000000
vt 0.16672200 0.00000000
vt 0.16672200 0.00000000
vt 0.16672200 0.05410900
vt 0.16672200 0.05410900
vt 0.16672200 0.05410900
vt 0.61114800 0.00000000
vt 0.61114800 0.00000000
vt 0.61114800 0.00000000
vt 0.61114800 0.05410900
vt 0.61114800 0.05410900
vt 0.61114800 0.05410900
vt 0.27046200 0.00000000
vt 0.27046200 0.00000000
vt 0.37420300 0.00000000
vt 0.37420300 0.00000000
vt 0.37420300 0.00000000
vt 0.37420300 0.00000000
vt 0.49267500 0.00000000
vt 0.49267500 0.00000000
vt 0.49267500 0.05410900
vt 0.49267500 0.05410900
vt 0.37420300 0.05410900
vt 0.37420300 0.05410900
vt 0.37420300 0.05410900
vt 0.37420300 0.05410900
vt 0.27046200 0.05410900
vt 0.27046200 0.05410900
vt 0.27046200 0.05410900
vt 0.16525700 0.00000000
vt 0.16525700 0.00000000
vt 0.16525700 0.00000000
vt 0.11114800 0.00000000
vt 0.11114800 0.00000000
vt 0.11114800 0.00000000
vt 0.16525700 0.68156700
vt 0.16525700 0.68156700
vt 0.16525700 0.68156700
vt 0.11114800 0.68156700
vt 0.11114800 0.68156700
vt 0.11114800 0.68156700
vt 0.16525700 0.17039200
vt 0.16525700 0.17039200
vt 0.16525700 0.17039200
vt 0.16525700 0.34078400
vt 0.16525700 0.34078400
vt 0.16525700 0.34078400
vt 0.16525700 0.51117500
vt 0.16525700 0.51117500
vt 0.16525700 0.51117500
vt 0.11114800 0.51117500
vt 0.11114800 0.51117500
vt 0.11114800 0.34078400
vt 0.11114800 0.34078400
vt 0.11114800 0.17039200
vt 0.11114800 0.17039200
vt 0.05410900 0.00000000
vt 0.05410900 0.00000000
vt 0.05410900 0.00000000
vt 0.00000000 0.00000000
vt 0.00000000 0.00000000
vt 0.00000000 0.00000000
vt 0.05410900 0.23694500
vt 0.05410900 0.23694500
vt 0.05410900 0.23694500
vt 0.00000000 0.23694500
vt 0.00000000 0.23694500
vt 0.00000000 0.23694500
vt 0.00000000 0.11847300
vt 0.00000000 0.11847300
vt 0.00000000 0.11847300
vt 0.05410900 0.11847300
vt 0.05410900 0.11847300
vt 0.16672200 0.99853500
vt 0.16672200 0.99853500
vt 0.16672200 0.99853500
vt 0.84682400 0.55557400
vt 0.84682400 0.55557400
vt 0.84682400 0.55557400
vt 0.84682400 0.79173800
vt 0.84682400 0.79173800
vt 0.84682400 0.79173800
vt 0.69897300 0.79173800
vt 0.69897300 0.79173800
vt 0.55112100 0.79173800
vt 0.55112100 0.79173800
vt 0.40326900 0.79173800
vt 0.40326900 0.79173800
vt 0.40326900 0.79173800
vt 0.28499600 0.89513700
vt 0.28499600 0.89513700
vt 0.16672900 0.89513700
vt 0.16672900 0.89513700
vt 0.16673600 0.79173800
vt 0.16673600 0.79173800
vt 0.16673600 0.79173800
vt 0.16672900 0.67365600
vt 0.16672900 0.67365600
vt 0.16672900 0.67365600
vt 0.16672200 0.55557400
vt 0.16672200 0.55557400
vt 0.16672200 0.55557400
vt 0.33674700 0.55557400
vt 0.33674700 0.55557400
vt 0.50677300 0.55557400
vt 0.50677300 0.55557400
vt 0.67679900 0.55557400
vt 0.67679900 0.55557400
vt 0.84682400 0.67365600
vt 0.84682400 0.67365600
vt 0.16672200 0.55410900
vt 0.16672200 0.55410900
vt 0.16672200 0.55410900
vt 0.84682400 0.11114800
vt 0.84682400 0.11114800
vt 0.84682400 0.11114800
vt 0.84682400 0.34731200
vt 0.84682400 0.34731200
vt 0.84682400 0.34731200
vt 0.69897300 0.34731200
vt 0.69897300 0.34731200
vt 0.55112100 0.34731200
vt 0.55112100 0.34731200
vt 0.55112100 0.34731200
vt 0.40326900 0.34731200
vt 0.40326900 0.34731200
vt 0.40326900 0.34731200
vt 0.28499600 0.45071100
vt 0.28499600 0.45071100
vt 0.16672900 0.45071100
vt 0.16672900 0.45071100
vt 0.16673600 0.34731200
vt 0.16673600 0.34731200
vt 0.16673600 0.34731200
vt 0.16672900 0.22923000
vt 0.16672900 0.22923000
vt 0.16672200 0.11114800
vt 0.16672200 0.11114800
vt 0.16672200 0.11114800
vt 0.33674700 0.11114800
vt 0.33674700 0.11114800
vt 0.33674700 0.11114800
vt 0.50677300 0.11114800
vt 0.50677300 0.11114800
vt 0.67679900 0.11114800
vt 0.67679900 0.11114800
vt 0.67679900 0.11114800
vt 0.84682400 0.22923000
vt 0.84682400 0.22923000
vt 0.84682400 0.22923000
vt 0.16672200 0.05557400
vt 0.16672200 0.05557400
vt 0.16672200 0.05557400
vt 0.16672200 0.10968300
vt 0.16672200 0.10968300
vt 0.16672200 0.10968300
vt 0.61123200 0.05557400
vt 0.61123200 0.05557400
vt 0.61123200 0.05557400
vt 0.61123200 0.10968300
vt 0.61123200 0.10968300
vt 0.61123200 0.10968300
vt 0.31489200 0.05557400
vt 0.31489200 0.05557400
vt 0.46306200 0.05557400
vt 0.46306200 0.05557400
vt 0.46306200 0.10968300
vt 0.46306200 0.10968300
vt 0.31489200 0.10968300
vt 0.31489200 0.10968300
vt 0.10968300 0.00000000
vt 0.10968300 0.00000000
vt 0.10968300 0.00000000
vt 0.05557400 0.00000000
vt 0.05557400 0.00000000
vt 0.05557400 0.00000000
vt 0.10968300 0.31503100
vt 0.10968300 0.31503100
vt 0.10968300 0.31503100
vt 0.05557400 0.31503100
vt 0.05557400 0.31503100
vt 0.05557400 0.31503100
vt 0.05557400 0.15751500
vt 0.05557400 0.15751500
vt 0.10968300 0.15751500
vt 0.10968300 0.15751500
vt 0.16672200 0.00000000
vt 0.16672200 0.00000000
vt 0.16672200 0.00000000
vt 0.16672200 0.05410900
vt 0.16672200 0.05410900
vt 0.16672200 0.05410900
vt 0.61114800 0.00000000
vt 0.61114800 0.00000000
vt 0.61114800 0.00000000
vt 0.61114800 0.05410900
vt 0.61114800 0.05410900
vt 0.61114800 0.05410900
vt 0.27046200 0.00000000
vt 0.27046200 0.00000000
vt 0.37420300 0.00000000
vt 0.37420300 0.00000000
vt 0.37420300 0.00000000
vt 0.37420300 0.00000000
vt 0.49267500 0.00000000
vt 0.49267500 0.00000000
vt 0.49267500 0.05410900
vt 0.49267500 0.05410900
vt 0.37420300 0.05410900
vt 0.37420300 0.05410900
vt 0.37420300 0.05410900
vt 0.37420300 0.05410900
vt 0.27046200 0.05410900
vt 0.27046200 0.05410900
vt 0.27046200 0.05410900
vt 0.16525700 0.00000000
vt 0.16525700 0.00000000
vt 0.16525700 0.00000000
vt 0.11114800 0.00000000
vt 0.11114800 0.00000000
vt 0.11114800 0.00000000
vt 0.16525700 0.68156700
vt 0.16525700 0.68156700
vt 0.16525700 0.68156700
vt 0.11114800 0.68156700
vt 0.11114800 0.68156700
vt 0.11114800 0.68156700
vt 0.16525700 0.17039200
vt 0.16525700 0.17039200
vt 0.16525700 0.17039200
vt 0.16525700 0.34078400
vt 0.16525700 0.34078400
vt 0.16525700 0.34078400
vt 0.16525700 0.51117500
vt 0.16525700 0.51117500
vt 0.16525700 0.51117500
vt 0.11114800 0.51117500
vt 0.11114800 0.51117500
vt 0.11114800 0.34078400
vt 0.11114800 0.34078400
vt 0.11114800 0.17039200
vt 0.11114800 0.17039200
vt 0.05410900 0.00000000
vt 0.05410900 0.00000000
vt 0.05410900 0.00000000
vt 0.00000000 0.00000000
vt 0.00000000 0.00000000
vt 0.00000000 0.00000000
vt 0.05410900 0.23694500
vt 0.05410900 0.23694500
vt 0.05410900 0.23694500
vt 0.00000000 0.23694500
vt 0.00000000 0.23694500
vt 0.00000000 0.23694500
vt 0.00000000 0.11847300
vt 0.00000000 0.11847300
vt 0.00000000 0.11847300
vt 0.05410900 0.11847300
vt 0.05410900 0.11847300
vt 0.16672200 0.99853500
vt 0.16672200 0.99853500
vt 0.16672200 0.99853500
vt 0.84682400 0.55557400
vt 0.84682400 0.55557400
vt 0.84682400 0.55557400
vt 0.84682400 0.79173800
vt 0.84682400 0.79173800
vt 0.84682400 0.79173800
vt 0.69897300 0.79173800
vt 0.69897300 0.79173800
vt 0.55112100 0.79173800
vt 0.55112100 0.79173800
vt 0.40326900 0.79173800
vt 0.40326900 0.79173800
vt 0.40326900 0.79173800
vt 0.28499600 0.89513700
vt 0.28499600 0.89513700
vt 0.16672900 0.89513700
vt 0.16672900 0.89513700
vt 0.16673600 0.79173800
vt 0.16673600 0.79173800
vt 0.16673600 0.79173800
vt 0.16672900 0.67365600
vt 0.16672900 0.67365600
vt 0.16672900 0.67365600
vt 0.16672200 0.55557400
vt 0.16672200 0.55557400
vt 0.16672200 0.55557400
vt 0.33674700 0.55557400
vt 0.33674700 0.55557400
vt 0.50677300 0.55557400
vt 0.50677300 0.55557400
vt 0.67679900 0.55557400
vt 0.67679900 0.55557400
vt 0.84682400 0.67365600
vt 0.84682400 0.67365600
vt 0.16672200 0.55410900
vt 0.16672200 0.55410900
vt 0.16672200 0.55410900
vt 0.84682400 0.11114800
vt 0.84682400 0.11114800
vt 0.84682400 0.11114800
vt 0.84682400 0.34731200
vt 0.84682400 0.34731200
vt 0.84682400 0.34731200
vt 0.69897300 0.34731200
vt 0.69897300 0.34731200
vt 0.55112100 0.34731200
vt 0.55112100 0.34731200
vt 0.55112100 0.34731200
vt 0.40326900 0.34731200
vt 0.40326900 0.34731200
vt 0.40326900 0.34731200
vt 0.28499600 0.45071100
vt 0.28499600 0.45071100
vt 0.16672900 0.45071100
vt 0.16672900 0.45071100
vt 0.16673600 0.34731200
vt 0.16673600 0.34731200
vt 0.16673600 0.34731200
vt 0.16672900 0.22923000
vt 0.16672900 0.22923000
vt 0.16672200 0.11114800
vt 0.16672200 0.11114800
vt 0.16672200 0.11114800
vt 0.33674700 0.11114800
vt 0.33674700 0.11114800
vt 0.33674700 0.11114800
vt 0.50677300 0.11114800
vt 0.50677300 0.11114800
vt 0.67679900 0.11114800
vt 0.67679900 0.11114800
vt 0.67679900 0.11114800
vt 0.84682400 0.22923000
vt 0.84682400 0.22923000
vt 0.84682400 0.22923000
f 14/14/14 19/19/19 4/4/4
f 19/19/19 14/14/14 16/16/16
f 8/8/8 11/11/11 18/18/18
f 26/26/26 21/21/21 36/36/36
f 27/27/27 32/32/32 34/34/34
f 50/50/50 65/65/65 41/41/41
f 65/65/65 50/50/50 54/54/54
f 43/43/43 46/46/46 58/58/58
f 56/56/56 58/58/58 60/60/60
f 80/80/80 91/91/91 69/69/69
f 91/91/91 80/80/80 82/82/82
f 73/73/73 77/77/77 87/87/87
f 86/86/86 87/87/87 90/90/90
f 96/96/96 95/95/95 108/108/108
f 101/101/101 103/103/103 106/106/106
f 134/134/134 140/140/140 136/136/136
f 125/125/125 134/134/134 130/130/130
f 126/126/126 129/129/129 111/111/111
f 129/129/129 126/126/126 130/130/130
f 130/130/130 126/126/126 125/125/125
f 140/140/140 134/134/134 125/125/125
f 141/141/141 121/121/121 144/144/144
f 144/144/144 145/145/145 115/115/115
f 145/145/145 144/144/144 119/119/119
f 121/121/121 141/141/141 125/125/125
f 145/145/145 119/119/119 116/116/116
f 172/172/172 175/175/175 177/177/177
f 162/162/162 168/168/168 172/172/172
f 165/165/165 147/147/147 166/166/166
f 166/166/166 168/168/168 165/165/165
f 168/168/168 162/162/162 165/165/165
f 177/177/177 162/162/162 172/172/172
f 180/180/180 183/183/183 159/159/159
f 183/183/183 151/151/151 184/184/184
f 184/184/184 156/156/156 183/183/183
f 159/159/159 162/162/162 180/180/180
f 184/184/184 154/154/154 156/156/156
f 14/14/14 4/4/4 2/2/2
f 19/19/19 16/16/16 18/18/18
f 8/8/8 18/18/18 16/16/16
f 26/26/26 36/36/36 34/34/34
f 27/27/27 34/34/34 36/36/36
f 50/50/50 41/41/41 39/39/39
f 65/65/65 51/51/51 62/62/62
f 43/43/43 58/58/58 56/56/56
f 56/56/56 60/60/60 53/53/53
f 80/80/80 69/69/69 66/66/66
f 91/91/91 82/82/82 90/90/90
f 73/73/73 87/87/87 86/86/86
f 86/86/86 90/90/90 82/82/82
f 96/96/96 108/108/108 106/106/106
f 101/101/101 106/106/106 108/108/108
f 121/121/121 119/119/119 144/144/144
f 141/141/141 140/140/140 125/125/125
f 183/183/183 156/156/156 159/159/159
f 162/162/162 177/177/177 180/180/180
f 199/199/199 191/191/191 206/206/206
f 206/206/206 201/201/201 199/199/199
f 193/193/193 204/204/204 198/198/198
f 212/212/212 221/221/221 208/208/208
f 215/215/215 219/219/219 217/217/217
f 235/235/235 227/227/227 249/249/249
f 249/249/249 238/238/238 235/235/235
f 229/229/229 244/244/244 233/233/233
f 241/241/241 247/247/247 244/244/244
f 265/265/265 257/257/257 278/278/278
f 278/278/278 269/269/269 265/265/265
f 259/259/259 273/273/273 263/263/263
f 270/270/270 275/275/275 273/273/273
f 284/284/284 295/295/295 281/281/281
f 285/285/285 293/293/293 288/288/288
f 320/320/320 322/322/322 325/325/325
f 310/310/310 318/318/318 320/320/320
f 312/312/312 296/296/296 315/315/315
f 315/315/315 318/318/318 312/312/312
f 318/318/318 310/310/310 312/312/312
f 325/325/325 310/310/310 320/320/320
f 328/328/328 330/330/330 308/308/308
f 330/330/330 301/301/301 332/332/332
f 332/332/332 305/305/305 330/330/330
f 308/308/308 310/310/310 328/328/328
f 332/332/332 304/304/304 305/305/305
f 357/357/357 364/364/364 360/360/360
f 349/349/349 357/357/357 356/356/356
f 351/351/351 353/353/353 334/334/334
f 353/353/353 351/351/351 356/356/356
f 356/356/356 351/351/351 349/349/349
f 364/364/364 357/357/357 349/349/349
f 365/365/365 346/346/346 368/368/368
f 368/368/368 370/370/370 336/336/336
f 370/370/370 368/368/368 342/342/342
f 346/346/346 365/365/365 349/349/349
f 370/370/370 342/342/342 339/339/339
f 199/199/199 187/187/187 191/191/191
f 206/206/206 204/204/204 201/201/201
f 193/193/193 201/201/201 204/204/204
f 212/212/212 219/219/219 221/221/221
f 215/215/215 221/221/221 219/219/219
f 235/235/235 223/223/223 227/227/227
f 249/249/249 245/245/245 237/237/237
f 229/229/229 241/241/241 244/244/244
f 241/241/241 239/239/239 247/247/247
f 265/265/265 253/253/253 257/257/257
f 278/278/278 275/275/275 269/269/269
f 259/259/259 270/270/270 273/273/273
f 270/270/270 269/269/269 275/275/275
f 284/284/284 293/293/293 295/295/295
f 285/285/285 295/295/295 293/293/293
f 308/308/308 330/330/330 305/305/305
f 328/328/328 310/310/310 325/325/325
f 368/368/368 346/346/346 342/342/342
f 349/349/349 365/365/365 364/364/364
f 3/3/3 6/6/6 192/192/192
f 192/192/192 189/189/189 3/3/3
f 12/12/12 9/9/9 194/194/194
f 194/194/194 196/196/196 12/12/12
f 15/15/15 13/13/13 200/200/200
f 200/200/200 202/202/202 15/15/15
f 22/22/22 25/25/25 211/211/211
f 211/211/211 207/207/207 22/22/22
f 30/30/30 28/28/28 214/214/214
f 214/214/214 218/218/218 30/30/30
f 38/38/38 40/40/40 228/228/228
f 228/228/228 225/225/225 38/38/38
f 47/47/47 44/44/44 231/231/231
f 231/231/231 232/232/232 47/47/47
f 52/52/52 49/49/49 236/236/236
f 236/236/236 240/240/240 52/52/52
f 45/45/45 55/55/55 242/242/242
f 242/242/242 230/230/230 45/45/45
f 67/67/67 70/70/70 255/255/255
f 255/255/255 254/254/254 67/67/67
f 75/75/75 72/72/72 258/258/258
f 258/258/258 261/261/261 75/75/75
f 83/83/83 79/79/79 266/266/266
f 266/266/266 267/267/267 83/83/83
f 74/74/74 85/85/85 271/271/271
f 271/271/271 260/260/260 74/74/74
f 94/94/94 97/97/97 282/282/282
f 282/282/282 280/280/280 94/94/94
f 153/153/153 186/186/186 371/371/371
f 371/371/371 341/341/341 153/153/153
f 104/104/104 100/100/100 286/286/286
f 286/286/286 289/289/289 104/104/104
f 118/118/118 120/120/120 306/306/306
f 306/306/306 303/303/303 118/118/118
f 5/5/5 20/20/20 205/205/205
f 205/205/205 190/190/190 5/5/5
f 112/112/112 128/128/128 314/314/314
f 314/314/314 298/298/298 112/112/112
f 127/127/127 110/110/110 297/297/297
f 297/297/297 313/313/313 127/127/127
f 133/133/133 138/138/138 323/323/323
f 323/323/323 321/321/321 133/133/133
f 142/142/142 143/143/143 329/329/329
f 329/329/329 327/327/327 142/142/142
f 17/17/17 10/10/10 197/197/197
f 197/197/197 203/203/203 17/17/17
f 157/157/157 155/155/155 340/340/340
f 340/340/340 343/343/343 157/157/157
f 171/171/171 169/169/169 354/354/354
f 354/354/354 358/358/358 171/171/171
f 163/163/163 160/160/160 344/344/344
f 344/344/344 348/348/348 163/163/163
f 149/149/149 164/164/164 350/350/350
f 350/350/350 335/335/335 149/149/149
f 122/122/122 124/124/124 311/311/311
f 311/311/311 307/307/307 122/122/122
f 182/182/182 179/179/179 366/366/366
f 366/366/366 369/369/369 182/182/182
f 174/174/174 171/171/171 358/358/358
f 358/358/358 359/359/359 174/174/174
f 78/78/78 68/68/68 252/252/252
f 252/252/252 264/264/264 78/78/78
f 123/123/123 127/127/127 313/313/313
f 313/313/313 309/309/309 123/123/123
f 143/143/143 113/113/113 299/299/299
f 299/299/299 329/329/329 143/143/143
f 20/20/20 17/17/17 203/203/203
f 203/203/203 205/205/205 20/20/20
f 178/178/178 173/173/173 361/361/361
f 361/361/361 362/362/362 178/178/178
f 114/114/114 146/146/146 331/331/331
f 331/331/331 300/300/300 114/114/114
f 146/146/146 117/117/117 302/302/302
f 302/302/302 331/331/331 146/146/146
f 128/128/128 131/131/131 316/316/316
f 316/316/316 314/314/314 128/128/128
f 71/71/71 92/92/92 277/277/277
f 277/277/277 256/256/256 71/71/71
f 88/88/88 76/76/76 262/262/262
f 262/262/262 274/274/274 88/88/88
f 132/132/132 135/135/135 319/319/319
f 319/319/319 317/317/317 132/132/132
f 59/59/59 57/57/57 243/243/243
f 243/243/243 246/246/246 59/59/59
f 120/120/120 122/122/122 307/307/307
f 307/307/307 306/306/306 120/120/120
f 84/84/84 81/81/81 268/268/268
f 268/268/268 272/272/272 84/84/84
f 35/35/35 23/23/23 209/209/209
f 209/209/209 222/222/222 35/35/35
f 24/24/24 33/33/33 220/220/220
f 220/220/220 210/210/210 24/24/24
f 152/152/152 181/181/181 367/367/367
f 367/367/367 338/338/338 152/152/152
f 137/137/137 139/139/139 326/326/326
f 326/326/326 324/324/324 137/137/137
f 29/29/29 35/35/35 222/222/222
f 222/222/222 213/213/213 29/29/29
f 33/33/33 31/31/31 216/216/216
f 216/216/216 220/220/220 33/33/33
f 89/89/89 88/88/88 274/274/274
f 274/274/274 276/276/276 89/89/89
f 185/185/185 150/150/150 337/337/337
f 337/337/337 372/372/372 185/185/185
f 139/139/139 142/142/142 327/327/327
f 327/327/327 326/326/326 139/139/139
f 92/92/92 89/89/89 276/276/276
f 276/276/276 277/277/277 92/92/92
f 64/64/64 61/61/61 248/248/248
f 248/248/248 251/251/251 64/64/64
f 49/49/49 37/37/37 224/224/224
f 224/224/224 236/236/236 49/49/49
f 7/7/7 15/15/15 202/202/202
f 202/202/202 195/195/195 7/7/7
f 109/109/109 93/93/93 279/279/279
f 279/279/279 294/294/294 109/109/109
f 98/98/98 107/107/107 292/292/292
f 292/292/292 283/283/283 98/98/98
f 164/164/164 161/161/161 347/347/347
f 347/347/347 350/350/350 164/164/164
f 13/13/13 1/1/1 188/188/188
f 188/188/188 200/200/200 13/13/13
f 99/99/99 109/109/109 294/294/294
f 294/294/294 287/287/287 99/99/99
f 105/105/105 102/102/102 290/290/290
f 290/290/290 291/291/291 105/105/105
f 42/42/42 63/63/63 250/250/250
f 250/250/250 226/226/226 42/42/42
f 167/167/167 148/148/148 333/333/333
f 333/333/333 352/352/352 167/167/167
f 170/170/170 167/167/167 352/352/352
f 352/352/352 355/355/355 170/170/170
f 57/57/57 48/48/48 234/234/234
f 234/234/234 243/243/243 57/57/57
f 158/158/158 157/157/157 343/343/343
f 343/343/343 345/345/345 158/158/158
f 179/179/179 176/176/176 363/363/363
f 363/363/363 366/366/366 179/179/179
f 55/55/55 52/52/52 240/240/240
f 240/240/240 242/242/242 55/55/55

