mtllib material.mtl
usemtl Material-7011油漆.031
v -0.02777000 0.12493200 -0.01461300
v -0.02777000 0.12493200 -0.01461300
v -0.02777000 0.12493200 -0.01461300
v -0.02777000 0.12563200 -0.01461300
v -0.02777000 0.12563200 -0.01461300
v -0.02777000 0.12563200 -0.01461300
v -0.02746100 0.12493200 -0.00603400
v -0.02746100 0.12493200 -0.00603400
v -0.02746100 0.12493200 -0.00603400
v -0.02746100 0.12563200 -0.00603400
v -0.02746100 0.12563200 -0.00603400
v -0.02746100 0.12563200 -0.00603400
v -0.02746000 0.12493200 -0.00603400
v -0.02746000 0.12493200 -0.00603400
v -0.02746000 0.12493200 -0.00603400
v -0.02746000 0.12563200 -0.00603400
v -0.02746000 0.12563200 -0.00603400
v -0.02746000 0.12563200 -0.00603400
v -0.02447600 0.12493200 -0.00614100
v -0.02447600 0.12493200 -0.00614100
v -0.02447600 0.12493200 -0.00614100
v -0.02447600 0.12563200 -0.00614100
v -0.02447600 0.12563200 -0.00614100
v -0.02447600 0.12563200 -0.00614100
v -0.02447600 0.12493200 -0.00614200
v -0.02447600 0.12493200 -0.00614200
v -0.02447600 0.12493200 -0.00614200
v -0.02447600 0.12563200 -0.00614200
v -0.02447600 0.12563200 -0.00614200
v -0.02447600 0.12563200 -0.00614200
v -0.02478500 0.12493200 -0.01472100
v -0.02478500 0.12493200 -0.01472100
v -0.02478500 0.12493200 -0.01472100
v -0.02478500 0.12563200 -0.01472100
v -0.02478500 0.12563200 -0.01472100
v -0.02478500 0.12563200 -0.01472100
v -0.02478500 0.12493200 -0.01472100
v -0.02478500 0.12493200 -0.01472100
v -0.02478500 0.12493200 -0.01472100
v -0.02478500 0.12563200 -0.01472100
v -0.02478500 0.12563200 -0.01472100
v -0.02478500 0.12563200 -0.01472100
v -0.02776900 0.12493200 -0.01461400
v -0.02776900 0.12493200 -0.01461400
v -0.02776900 0.12493200 -0.01461400
v -0.02776900 0.12563200 -0.01461400
v -0.02776900 0.12563200 -0.01461400
v -0.02776900 0.12563200 -0.01461400
v -0.02447600 0.12493100 -0.00614200
v -0.02447600 0.12493100 -0.00614200
v -0.02447600 0.12493100 -0.00614200
v -0.02746000 0.12493100 -0.00603400
v -0.02746000 0.12493100 -0.00603400
v -0.02746000 0.12493100 -0.00603400
v -0.02478500 0.12493100 -0.01472100
v -0.02478500 0.12493100 -0.01472100
v -0.02478500 0.12493100 -0.01472100
v -0.02776900 0.12493100 -0.01461300
v -0.02776900 0.12493100 -0.01461300
v -0.02776900 0.12493100 -0.01461300
v -0.02447600 0.12563200 -0.00614200
v -0.02447600 0.12563200 -0.00614200
v -0.02447600 0.12563200 -0.00614200
v -0.02746000 0.12563200 -0.00603400
v -0.02746000 0.12563200 -0.00603400
v -0.02746000 0.12563200 -0.00603400
v -0.02478500 0.12563200 -0.01472100
v -0.02478500 0.12563200 -0.01472100
v -0.02478500 0.12563200 -0.01472100
v -0.02776900 0.12563200 -0.01461300
v -0.02776900 0.12563200 -0.01461300
v -0.02776900 0.12563200 -0.01461300
v -0.02776900 0.12493200 -0.01461300
v -0.02776900 0.12493200 -0.01461300
v -0.02776900 0.12493200 -0.01461300
v -0.02776900 0.12563200 -0.01461300
v -0.02776900 0.12563200 -0.01461300
v -0.02776900 0.12563200 -0.01461300
v -0.02746000 0.12493200 -0.00603400
v -0.02746000 0.12493200 -0.00603400
v -0.02746000 0.12493200 -0.00603400
v -0.02746000 0.12563200 -0.00603400
v -0.02746000 0.12563200 -0.00603400
v -0.02746000 0.12563200 -0.00603400
v -0.02746000 0.12493200 -0.00603500
v -0.02746000 0.12493200 -0.00603500
v -0.02746000 0.12493200 -0.00603500
v -0.02746000 0.12563200 -0.00603500
v -0.02746000 0.12563200 -0.00603500
v -0.02746000 0.12563200 -0.00603500
v -0.02447600 0.12493200 -0.00614200
v -0.02447600 0.12493200 -0.00614200
v -0.02447600 0.12493200 -0.00614200
v -0.02447600 0.12563200 -0.00614200
v -0.02447600 0.12563200 -0.00614200
v -0.02447600 0.12563200 -0.00614200
v -0.02447700 0.12493200 -0.00614200
v -0.02447700 0.12493200 -0.00614200
v -0.02447700 0.12493200 -0.00614200
v -0.02447700 0.12563200 -0.00614200
v -0.02447700 0.12563200 -0.00614200
v -0.02447700 0.12563200 -0.00614200
v -0.02478600 0.12493200 -0.01472100
v -0.02478600 0.12493200 -0.01472100
v -0.02478600 0.12493200 -0.01472100
v -0.02478600 0.12563200 -0.01472100
v -0.02478600 0.12563200 -0.01472100
v -0.02478600 0.12563200 -0.01472100
v -0.02478500 0.12493200 -0.01472000
v -0.02478500 0.12493200 -0.01472000
v -0.02478500 0.12493200 -0.01472000
v -0.02478500 0.12563200 -0.01472000
v -0.02478500 0.12563200 -0.01472000
v -0.02478500 0.12563200 -0.01472000
v -0.02776900 0.12493200 -0.01461300
v -0.02776900 0.12493200 -0.01461300
v -0.02776900 0.12493200 -0.01461300
v -0.02776900 0.12563200 -0.01461300
v -0.02776900 0.12563200 -0.01461300
v -0.02776900 0.12563200 -0.01461300
v -0.02447600 0.12493200 -0.00614200
v -0.02447600 0.12493200 -0.00614200
v -0.02447600 0.12493200 -0.00614200
v -0.02746000 0.12493200 -0.00603400
v -0.02746000 0.12493200 -0.00603400
v -0.02746000 0.12493200 -0.00603400
v -0.02478500 0.12493200 -0.01472100
v -0.02478500 0.12493200 -0.01472100
v -0.02478500 0.12493200 -0.01472100
v -0.02776900 0.12493200 -0.01461300
v -0.02776900 0.12493200 -0.01461300
v -0.02776900 0.12493200 -0.01461300
v -0.02447600 0.12563100 -0.00614200
v -0.02447600 0.12563100 -0.00614200
v -0.02447600 0.12563100 -0.00614200
v -0.02746000 0.12563100 -0.00603400
v -0.02746000 0.12563100 -0.00603400
v -0.02746000 0.12563100 -0.00603400
v -0.02478500 0.12563100 -0.01472100
v -0.02478500 0.12563100 -0.01472100
v -0.02478500 0.12563100 -0.01472100
v -0.02776900 0.12563100 -0.01461300
v -0.02776900 0.12563100 -0.01461300
v -0.02776900 0.12563100 -0.01461300
vn 0.00000000 -1.00000000 0.00000000
vn -0.99940000 0.00000000 0.03600000
vn -0.03630000 0.00000000 -0.99930000
vn 0.00000000 1.00000000 0.00000000
vn -0.03630000 0.00000000 -0.99930000
vn -0.99940000 0.00000000 0.03600000
vn 0.00000000 -1.00000000 0.00000000
vn -0.99940000 0.00000000 0.03600000
vn 0.03630000 0.00000000 0.99930000
vn 0.03630000 0.00000000 0.99930000
vn -0.99940000 0.00000000 0.03600000
vn 0.00000000 1.00000000 0.00000000
vn 0.03600000 0.00000000 0.99940000
vn -0.99940000 0.00000000 0.03540000
vn 0.00000000 -1.00000000 0.00000000
vn 0.03600000 0.00000000 0.99940000
vn -0.99940000 0.00000000 0.03540000
vn 0.00000000 1.00000000 0.00000000
vn 0.99940000 0.00000000 -0.03350000
vn 0.00000000 -1.00000000 0.00000000
vn 0.03600000 0.00000000 0.99940000
vn 0.99940000 0.00000000 -0.03350000
vn 0.00000000 1.00000000 0.00000000
vn 0.03600000 0.00000000 0.99940000
vn 0.00000000 -1.00000000 0.00000000
vn 0.99940000 0.00000000 -0.03600000
vn 0.03570000 0.00000000 0.99940000
vn 0.00000000 1.00000000 -0.00040000
vn 0.99940000 0.00000000 -0.03600000
vn 0.03570000 0.00000000 0.99940000
vn -0.03640000 0.00000000 -0.99930000
vn 0.99940000 0.00000000 -0.03600000
vn 0.00000000 -1.00000000 0.00000000
vn 0.00000000 1.00000000 -0.00040000
vn -0.03640000 0.00000000 -0.99930000
vn 0.99940000 0.00000000 -0.03600000
vn 0.99940000 0.00000000 -0.03350000
vn 0.00000000 -1.00000000 0.00000000
vn -0.03600000 0.00000000 -0.99940000
vn 0.99940000 0.00000000 -0.03350000
vn -0.03600000 0.00000000 -0.99940000
vn 0.00000000 1.00000000 0.00000000
vn 0.00000000 -1.00000000 0.00000000
vn -0.03600000 0.00000000 -0.99940000
vn -0.99940000 0.00000000 0.03540000
vn -0.99940000 0.00000000 0.03540000
vn 0.00000000 1.00000000 0.00000000
vn -0.03600000 0.00000000 -0.99940000
vn 0.99930000 0.00000000 -0.03620000
vn 0.00000000 -1.00000000 0.00000000
vn 0.03600000 0.00000000 0.99940000
vn 0.00000000 -1.00000000 0.00000000
vn -0.99930000 0.00000000 0.03620000
vn 0.03600000 0.00000000 0.99940000
vn 0.99930000 0.00000000 -0.03620000
vn 0.00000000 -1.00000000 0.00000000
vn -0.03600000 0.00000000 -0.99940000
vn -0.99930000 0.00000000 0.03620000
vn -0.03600000 0.00000000 -0.99940000
vn 0.00000000 -1.00000000 0.00000000
vn 0.99930000 0.00000000 -0.03610000
vn 0.00000000 1.00000000 0.00000000
vn 0.03610000 0.00000000 0.99930000
vn 0.00000000 1.00000000 0.00000000
vn 0.03610000 0.00000000 0.99930000
vn -0.99930000 0.00000000 0.03610000
vn 0.99930000 0.00000000 -0.03610000
vn -0.03610000 0.00000000 -0.99930000
vn 0.00000000 1.00000000 0.00000000
vn 0.00000000 1.00000000 0.00000000
vn -0.99930000 0.00000000 0.03610000
vn -0.03610000 0.00000000 -0.99930000
vn 0.99940000 0.00000000 -0.03600000
vn 0.00000000 -1.00000000 0.00000000
vn -0.03630000 0.00000000 -0.99930000
vn 0.00000000 1.00000000 0.00000000
vn 0.99940000 0.00000000 -0.03600000
vn -0.03630000 0.00000000 -0.99930000
vn 0.99940000 0.00000000 -0.03600000
vn 0.00000000 -1.00000000 0.00000000
vn 0.03630000 0.00000000 0.99930000
vn 0.00000000 1.00000000 0.00000000
vn 0.03630000 0.00000000 0.99930000
vn 0.99940000 0.00000000 -0.03600000
vn -0.03600000 0.00000000 -0.99940000
vn -0.99940000 0.00000000 0.03540000
vn 0.00000000 -1.00000000 0.00000000
vn -0.99940000 0.00000000 0.03540000
vn -0.03600000 0.00000000 -0.99940000
vn 0.00000000 1.00000000 0.00000000
vn -0.03600000 0.00000000 -0.99940000
vn 0.00000000 -1.00000000 0.00000000
vn 0.99940000 0.00000000 -0.03350000
vn 0.99940000 0.00000000 -0.03350000
vn 0.00000000 1.00000000 0.00000000
vn -0.03600000 0.00000000 -0.99940000
vn 0.00000000 -1.00000000 0.00000000
vn 0.03570000 0.00000000 0.99940000
vn -0.99940000 0.00000000 0.03600000
vn 0.03570000 0.00000000 0.99940000
vn -0.99940000 0.00000000 0.03600000
vn 0.00000000 1.00000000 -0.00040000
vn -0.03640000 0.00000000 -0.99930000
vn -0.99940000 0.00000000 0.03600000
vn 0.00000000 -1.00000000 0.00000000
vn 0.00000000 1.00000000 -0.00040000
vn -0.99940000 0.00000000 0.03600000
vn -0.03640000 0.00000000 -0.99930000
vn 0.99940000 0.00000000 -0.03350000
vn 0.03600000 0.00000000 0.99940000
vn 0.00000000 -1.00000000 0.00000000
vn 0.00000000 1.00000000 0.00000000
vn 0.99940000 0.00000000 -0.03350000
vn 0.03600000 0.00000000 0.99940000
vn 0.00000000 -1.00000000 0.00000000
vn 0.03600000 0.00000000 0.99940000
vn -0.99940000 0.00000000 0.03540000
vn -0.99940000 0.00000000 0.03540000
vn 0.00000000 1.00000000 0.00000000
vn 0.03600000 0.00000000 0.99940000
vn 0.99930000 0.00000000 -0.03620000
vn 0.03600000 0.00000000 0.99940000
vn 0.00000000 1.00000000 0.00000000
vn 0.00000000 1.00000000 0.00000000
vn -0.99930000 0.00000000 0.03620000
vn 0.03600000 0.00000000 0.99940000
vn 0.00000000 1.00000000 0.00000000
vn 0.99930000 0.00000000 -0.03620000
vn -0.03600000 0.00000000 -0.99940000
vn -0.99930000 0.00000000 0.03620000
vn -0.03600000 0.00000000 -0.99940000
vn 0.00000000 1.00000000 0.00000000
vn 0.03610000 0.00000000 0.99930000
vn 0.99930000 0.00000000 -0.03610000
vn 0.00000000 -1.00000000 0.00000000
vn -0.99930000 0.00000000 0.03610000
vn 0.03610000 0.00000000 0.99930000
vn 0.00000000 -1.00000000 0.00000000
vn -0.03610000 0.00000000 -0.99930000
vn 0.00000000 -1.00000000 0.00000000
vn 0.99930000 0.00000000 -0.03610000
vn -0.03610000 0.00000000 -0.99930000
vn 0.00000000 -1.00000000 0.00000000
vn -0.99930000 0.00000000 0.03610000
vt 0.23793700 0.00000000
vt 0.23793700 0.00000000
vt 0.23793700 0.00000000
vt 0.15960100 0.00000000
vt 0.15960100 0.00000000
vt 0.15960100 0.00000000
vt 0.23793700 0.97718100
vt 0.23793700 0.97718100
vt 0.23793700 0.97718100
vt 0.15960100 0.97718100
vt 0.15960100 0.97718100
vt 0.15960100 0.97718100
vt 0.07833600 0.00000000
vt 0.07833600 0.00000000
vt 0.07833600 0.00000000
vt 0.00000000 0.00000000
vt 0.00000000 0.00000000
vt 0.00000000 0.00000000
vt 0.07833600 0.34039900
vt 0.07833600 0.34039900
vt 0.07833600 0.34039900
vt 0.00000000 0.34039900
vt 0.00000000 0.34039900
vt 0.00000000 0.34039900
vt 0.31773800 0.00000000
vt 0.31773800 0.00000000
vt 0.31773800 0.00000000
vt 0.23940200 0.00000000
vt 0.23940200 0.00000000
vt 0.23940200 0.00000000
vt 0.31773800 0.97718100
vt 0.31773800 0.97718100
vt 0.31773800 0.97718100
vt 0.23940200 0.97718100
vt 0.23940200 0.97718100
vt 0.23940200 0.97718100
vt 0.15813600 0.00000000
vt 0.15813600 0.00000000
vt 0.15813600 0.00000000
vt 0.07980100 0.00000000
vt 0.07980100 0.00000000
vt 0.07980100 0.00000000
vt 0.15813600 0.34039900
vt 0.15813600 0.34039900
vt 0.15813600 0.34039900
vt 0.07980100 0.34039900
vt 0.07980100 0.34039900
vt 0.07980100 0.34039900
vt 0.99853500 0.00000000
vt 0.99853500 0.00000000
vt 0.99853500 0.00000000
vt 0.65960100 0.00000000
vt 0.65960100 0.00000000
vt 0.65960100 0.00000000
vt 0.99853500 0.97718100
vt 0.99853500 0.97718100
vt 0.99853500 0.97718100
vt 0.65960100 0.97718100
vt 0.65960100 0.97718100
vt 0.65960100 0.97718100
vt 0.65813600 0.00000000
vt 0.65813600 0.00000000
vt 0.65813600 0.00000000
vt 0.31920300 0.00000000
vt 0.31920300 0.00000000
vt 0.31920300 0.00000000
vt 0.65813600 0.97718100
vt 0.65813600 0.97718100
vt 0.65813600 0.97718100
vt 0.31920300 0.97718100
vt 0.31920300 0.97718100
vt 0.31920300 0.97718100
vt 0.23793700 0.00000000
vt 0.23793700 0.00000000
vt 0.23793700 0.00000000
vt 0.15960100 0.00000000
vt 0.15960100 0.00000000
vt 0.15960100 0.00000000
vt 0.23793700 0.97718100
vt 0.23793700 0.97718100
vt 0.23793700 0.97718100
vt 0.15960100 0.97718100
vt 0.15960100 0.97718100
vt 0.15960100 0.97718100
vt 0.07833600 0.00000000
vt 0.07833600 0.00000000
vt 0.07833600 0.00000000
vt 0.00000000 0.00000000
vt 0.00000000 0.00000000
vt 0.00000000 0.00000000
vt 0.07833600 0.34039900
vt 0.07833600 0.34039900
vt 0.07833600 0.34039900
vt 0.00000000 0.34039900
vt 0.00000000 0.34039900
vt 0.00000000 0.34039900
vt 0.31773800 0.00000000
vt 0.31773800 0.00000000
vt 0.31773800 0.00000000
vt 0.23940200 0.00000000
vt 0.23940200 0.00000000
vt 0.23940200 0.00000000
vt 0.31773800 0.97718100
vt 0.31773800 0.97718100
vt 0.31773800 0.97718100
vt 0.23940200 0.97718100
vt 0.23940200 0.97718100
vt 0.23940200 0.97718100
vt 0.15813600 0.00000000
vt 0.15813600 0.00000000
vt 0.15813600 0.00000000
vt 0.07980100 0.00000000
vt 0.07980100 0.00000000
vt 0.07980100 0.00000000
vt 0.15813600 0.34039900
vt 0.15813600 0.34039900
vt 0.15813600 0.34039900
vt 0.07980100 0.34039900
vt 0.07980100 0.34039900
vt 0.07980100 0.34039900
vt 0.99853500 0.00000000
vt 0.99853500 0.00000000
vt 0.99853500 0.00000000
vt 0.65960100 0.00000000
vt 0.65960100 0.00000000
vt 0.65960100 0.00000000
vt 0.99853500 0.97718100
vt 0.99853500 0.97718100
vt 0.99853500 0.97718100
vt 0.65960100 0.97718100
vt 0.65960100 0.97718100
vt 0.65960100 0.97718100
vt 0.65813600 0.00000000
vt 0.65813600 0.00000000
vt 0.65813600 0.00000000
vt 0.31920300 0.00000000
vt 0.31920300 0.00000000
vt 0.31920300 0.00000000
vt 0.65813600 0.97718100
vt 0.65813600 0.97718100
vt 0.65813600 0.97718100
vt 0.31920300 0.97718100
vt 0.31920300 0.97718100
vt 0.31920300 0.97718100
f 6/6/6 2/2/2 8/8/8
f 16/16/16 13/13/13 21/21/21
f 29/29/29 26/26/26 32/32/32
f 41/41/41 39/39/39 44/44/44
f 52/52/52 60/60/60 50/50/50
f 64/64/64 62/62/62 70/70/70
f 6/6/6 8/8/8 11/11/11
f 16/16/16 21/21/21 24/24/24
f 29/29/29 32/32/32 36/36/36
f 41/41/41 44/44/44 48/48/48
f 60/60/60 56/56/56 50/50/50
f 62/62/62 69/69/69 70/70/70
f 77/77/77 79/79/79 73/73/73
f 89/89/89 91/91/91 85/85/85
f 101/101/101 104/104/104 99/99/99
f 114/114/114 116/116/116 110/110/110
f 124/124/124 123/123/123 132/132/132
f 138/138/138 143/143/143 135/135/135
f 77/77/77 84/84/84 79/79/79
f 89/89/89 96/96/96 91/91/91
f 101/101/101 107/107/107 104/104/104
f 114/114/114 120/120/120 116/116/116
f 132/132/132 123/123/123 127/127/127
f 135/135/135 143/143/143 140/140/140
f 28/28/28 34/34/34 106/106/106
f 106/106/106 102/102/102 28/28/28
f 3/3/3 5/5/5 78/78/78
f 78/78/78 75/75/75 3/3/3
f 4/4/4 12/12/12 82/82/82
f 82/82/82 76/76/76 4/4/4
f 14/14/14 17/17/17 88/88/88
f 88/88/88 86/86/86 14/14/14
f 18/18/18 23/23/23 95/95/95
f 95/95/95 90/90/90 18/18/18
f 35/35/35 31/31/31 103/103/103
f 103/103/103 108/108/108 35/35/35
f 27/27/27 30/30/30 100/100/100
f 100/100/100 98/98/98 27/27/27
f 7/7/7 1/1/1 74/74/74
f 74/74/74 80/80/80 7/7/7
f 37/37/37 40/40/40 113/113/113
f 113/113/113 109/109/109 37/37/37
f 42/42/42 47/47/47 119/119/119
f 119/119/119 112/112/112 42/42/42
f 54/54/54 51/51/51 122/122/122
f 122/122/122 126/126/126 54/54/54
f 49/49/49 55/55/55 128/128/128
f 128/128/128 121/121/121 49/49/49
f 58/58/58 53/53/53 125/125/125
f 125/125/125 130/130/130 58/58/58
f 63/63/63 65/65/65 137/137/137
f 137/137/137 133/133/133 63/63/63
f 67/67/67 61/61/61 134/134/134
f 134/134/134 141/141/141 67/67/67
f 66/66/66 71/71/71 144/144/144
f 144/144/144 136/136/136 66/66/66
f 10/10/10 9/9/9 81/81/81
f 81/81/81 83/83/83 10/10/10
f 72/72/72 68/68/68 139/139/139
f 139/139/139 142/142/142 72/72/72
f 22/22/22 19/19/19 93/93/93
f 93/93/93 94/94/94 22/22/22
f 43/43/43 38/38/38 111/111/111
f 111/111/111 115/115/115 43/43/43
f 57/57/57 59/59/59 131/131/131
f 131/131/131 129/129/129 57/57/57
f 33/33/33 25/25/25 97/97/97
f 97/97/97 105/105/105 33/33/33
f 46/46/46 45/45/45 117/117/117
f 117/117/117 118/118/118 46/46/46
f 20/20/20 15/15/15 87/87/87
f 87/87/87 92/92/92 20/20/20

