mtllib material.mtl
usemtl Material-7011油漆.005
v -0.02811900 0.12493200 -0.02431100
v -0.02811900 0.12493200 -0.02431100
v -0.02811900 0.12493200 -0.02431100
v -0.02811900 0.12563200 -0.02431100
v -0.02811900 0.12563200 -0.02431100
v -0.02811900 0.12563200 -0.02431100
v -0.02781000 0.12493200 -0.01573200
v -0.02781000 0.12493200 -0.01573200
v -0.02781000 0.12493200 -0.01573200
v -0.02781000 0.12563200 -0.01573200
v -0.02781000 0.12563200 -0.01573200
v -0.02781000 0.12563200 -0.01573200
v -0.02804200 0.12493200 -0.02216600
v -0.02804200 0.12493200 -0.02216600
v -0.02804200 0.12493200 -0.02216600
v -0.02796500 0.12493200 -0.02002100
v -0.02796500 0.12493200 -0.02002100
v -0.02796500 0.12493200 -0.02002100
v -0.02788800 0.12493200 -0.01787700
v -0.02788800 0.12493200 -0.01787700
v -0.02788800 0.12493200 -0.01787700
v -0.02788800 0.12563200 -0.01787700
v -0.02788800 0.12563200 -0.01787700
v -0.02796500 0.12563200 -0.02002100
v -0.02796500 0.12563200 -0.02002100
v -0.02804200 0.12563200 -0.02216600
v -0.02804200 0.12563200 -0.02216600
v -0.02781000 0.12493200 -0.01573100
v -0.02781000 0.12493200 -0.01573100
v -0.02781000 0.12493200 -0.01573100
v -0.02781000 0.12563200 -0.01573100
v -0.02781000 0.12563200 -0.01573100
v -0.02781000 0.12563200 -0.01573100
v -0.02482600 0.12493200 -0.01583900
v -0.02482600 0.12493200 -0.01583900
v -0.02482600 0.12493200 -0.01583900
v -0.02482600 0.12563200 -0.01583900
v -0.02482600 0.12563200 -0.01583900
v -0.02482600 0.12563200 -0.01583900
v -0.02681500 0.12493200 -0.01576700
v -0.02681500 0.12493200 -0.01576700
v -0.02582000 0.12493200 -0.01580300
v -0.02582000 0.12493200 -0.01580300
v -0.02582000 0.12563200 -0.01580300
v -0.02582000 0.12563200 -0.01580300
v -0.02582000 0.12563200 -0.01580300
v -0.02681500 0.12563200 -0.01576700
v -0.02681500 0.12563200 -0.01576700
v -0.02681500 0.12563200 -0.01576700
v -0.02482500 0.12493200 -0.01583900
v -0.02482500 0.12493200 -0.01583900
v -0.02482500 0.12493200 -0.01583900
v -0.02482500 0.12563200 -0.01583900
v -0.02482500 0.12563200 -0.01583900
v -0.02482500 0.12563200 -0.01583900
v -0.02513400 0.12493200 -0.02441900
v -0.02513400 0.12493200 -0.02441900
v -0.02513400 0.12493200 -0.02441900
v -0.02513400 0.12563200 -0.02441900
v -0.02513400 0.12563200 -0.02441900
v -0.02513400 0.12563200 -0.02441900
v -0.02490300 0.12493200 -0.01798400
v -0.02490300 0.12493200 -0.01798400
v -0.02490300 0.12493200 -0.01798400
v -0.02498000 0.12493200 -0.02012900
v -0.02498000 0.12493200 -0.02012900
v -0.02505700 0.12493200 -0.02227400
v -0.02505700 0.12493200 -0.02227400
v -0.02505700 0.12563200 -0.02227400
v -0.02505700 0.12563200 -0.02227400
v -0.02505700 0.12563200 -0.02227400
v -0.02498000 0.12563200 -0.02012900
v -0.02498000 0.12563200 -0.02012900
v -0.02490300 0.12563200 -0.01798400
v -0.02490300 0.12563200 -0.01798400
v -0.02513500 0.12493200 -0.02441900
v -0.02513500 0.12493200 -0.02441900
v -0.02513500 0.12493200 -0.02441900
v -0.02513500 0.12563200 -0.02441900
v -0.02513500 0.12563200 -0.02441900
v -0.02513500 0.12563200 -0.02441900
v -0.02811900 0.12493200 -0.02431200
v -0.02811900 0.12493200 -0.02431200
v -0.02811900 0.12493200 -0.02431200
v -0.02811900 0.12563200 -0.02431200
v -0.02811900 0.12563200 -0.02431200
v -0.02811900 0.12563200 -0.02431200
v -0.02662700 0.12563200 -0.02436500
v -0.02662700 0.12563200 -0.02436500
v -0.02662700 0.12563200 -0.02436500
v -0.02662700 0.12493200 -0.02436500
v -0.02662700 0.12493200 -0.02436500
v -0.02482600 0.12493100 -0.01583900
v -0.02482600 0.12493100 -0.01583900
v -0.02482600 0.12493100 -0.01583900
v -0.02781000 0.12493100 -0.01573200
v -0.02781000 0.12493100 -0.01573200
v -0.02781000 0.12493100 -0.01573200
v -0.02513500 0.12493100 -0.02441900
v -0.02513500 0.12493100 -0.02441900
v -0.02513500 0.12493100 -0.02441900
v -0.02811900 0.12493100 -0.02431100
v -0.02811900 0.12493100 -0.02431100
v -0.02811900 0.12493100 -0.02431100
v -0.02804200 0.12493100 -0.02216600
v -0.02804200 0.12493100 -0.02216600
v -0.02796400 0.12493100 -0.02002100
v -0.02796400 0.12493100 -0.02002100
v -0.02788700 0.12493100 -0.01787700
v -0.02788700 0.12493100 -0.01787700
v -0.02788700 0.12493100 -0.01787700
v -0.02681500 0.12493100 -0.01576800
v -0.02681500 0.12493100 -0.01576800
v -0.02582000 0.12493100 -0.01580300
v -0.02582000 0.12493100 -0.01580300
v -0.02647200 0.12493100 -0.02007500
v -0.02721800 0.12493100 -0.02004800
v -0.02639500 0.12493100 -0.01793000
v -0.02714100 0.12493100 -0.01790300
v -0.02572600 0.12493100 -0.02010200
v -0.02564900 0.12493100 -0.01795700
v -0.02490300 0.12493100 -0.01798400
v -0.02490300 0.12493100 -0.01798400
v -0.02498000 0.12493100 -0.02012900
v -0.02498000 0.12493100 -0.02012900
v -0.02498000 0.12493100 -0.02012900
v -0.02505800 0.12493100 -0.02227400
v -0.02505800 0.12493100 -0.02227400
v -0.02505800 0.12493100 -0.02227400
v -0.02662700 0.12493100 -0.02436500
v -0.02662700 0.12493100 -0.02436500
v -0.02482600 0.12563200 -0.01583900
v -0.02482600 0.12563200 -0.01583900
v -0.02482600 0.12563200 -0.01583900
v -0.02781000 0.12563200 -0.01573200
v -0.02781000 0.12563200 -0.01573200
v -0.02781000 0.12563200 -0.01573200
v -0.02513500 0.12563200 -0.02441900
v -0.02513500 0.12563200 -0.02441900
v -0.02513500 0.12563200 -0.02441900
v -0.02811900 0.12563200 -0.02431100
v -0.02811900 0.12563200 -0.02431100
v -0.02811900 0.12563200 -0.02431100
v -0.02804200 0.12563200 -0.02216600
v -0.02804200 0.12563200 -0.02216600
v -0.02804200 0.12563200 -0.02216600
v -0.02796400 0.12563200 -0.02002100
v -0.02796400 0.12563200 -0.02002100
v -0.02796400 0.12563200 -0.02002100
v -0.02788700 0.12563200 -0.01787700
v -0.02788700 0.12563200 -0.01787700
v -0.02788700 0.12563200 -0.01787700
v -0.02681500 0.12563200 -0.01576800
v -0.02681500 0.12563200 -0.01576800
v -0.02582000 0.12563200 -0.01580300
v -0.02582000 0.12563200 -0.01580300
v -0.02647200 0.12563200 -0.02007500
v -0.02721800 0.12563200 -0.02004800
v -0.02639500 0.12563200 -0.01793000
v -0.02714100 0.12563200 -0.01790300
v -0.02572600 0.12563200 -0.02010200
v -0.02564900 0.12563200 -0.01795700
v -0.02490300 0.12563200 -0.01798400
v -0.02490300 0.12563200 -0.01798400
v -0.02490300 0.12563200 -0.01798400
v -0.02498000 0.12563200 -0.02012900
v -0.02498000 0.12563200 -0.02012900
v -0.02505800 0.12563200 -0.02227400
v -0.02505800 0.12563200 -0.02227400
v -0.02662700 0.12563200 -0.02436500
v -0.02662700 0.12563200 -0.02436500
v -0.02662700 0.12563200 -0.02436500
v -0.02811800 0.12493200 -0.02431100
v -0.02811800 0.12493200 -0.02431100
v -0.02811800 0.12493200 -0.02431100
v -0.02811800 0.12563200 -0.02431100
v -0.02811800 0.12563200 -0.02431100
v -0.02811800 0.12563200 -0.02431100
v -0.02780900 0.12493200 -0.01573200
v -0.02780900 0.12493200 -0.01573200
v -0.02780900 0.12493200 -0.01573200
v -0.02780900 0.12563200 -0.01573200
v -0.02780900 0.12563200 -0.01573200
v -0.02780900 0.12563200 -0.01573200
v -0.02804100 0.12493200 -0.02216600
v -0.02804100 0.12493200 -0.02216600
v -0.02804100 0.12493200 -0.02216600
v -0.02796400 0.12493200 -0.02002100
v -0.02796400 0.12493200 -0.02002100
v -0.02796400 0.12493200 -0.02002100
v -0.02788700 0.12493200 -0.01787700
v -0.02788700 0.12493200 -0.01787700
v -0.02788700 0.12493200 -0.01787700
v -0.02788700 0.12563200 -0.01787700
v -0.02788700 0.12563200 -0.01787700
v -0.02796400 0.12563200 -0.02002100
v -0.02796400 0.12563200 -0.02002100
v -0.02804100 0.12563200 -0.02216600
v -0.02804100 0.12563200 -0.02216600
v -0.02781000 0.12493200 -0.01573200
v -0.02781000 0.12493200 -0.01573200
v -0.02781000 0.12493200 -0.01573200
v -0.02781000 0.12563200 -0.01573200
v -0.02781000 0.12563200 -0.01573200
v -0.02781000 0.12563200 -0.01573200
v -0.02482600 0.12493200 -0.01584000
v -0.02482600 0.12493200 -0.01584000
v -0.02482600 0.12493200 -0.01584000
v -0.02482600 0.12563200 -0.01584000
v -0.02482600 0.12563200 -0.01584000
v -0.02482600 0.12563200 -0.01584000
v -0.02681500 0.12493200 -0.01576800
v -0.02681500 0.12493200 -0.01576800
v -0.02582000 0.12493200 -0.01580400
v -0.02582000 0.12493200 -0.01580400
v -0.02582000 0.12563200 -0.01580400
v -0.02582000 0.12563200 -0.01580400
v -0.02582000 0.12563200 -0.01580400
v -0.02681500 0.12563200 -0.01576800
v -0.02681500 0.12563200 -0.01576800
v -0.02681500 0.12563200 -0.01576800
v -0.02482600 0.12493200 -0.01583900
v -0.02482600 0.12493200 -0.01583900
v -0.02482600 0.12493200 -0.01583900
v -0.02482600 0.12563200 -0.01583900
v -0.02482600 0.12563200 -0.01583900
v -0.02482600 0.12563200 -0.01583900
v -0.02513500 0.12493200 -0.02441900
v -0.02513500 0.12493200 -0.02441900
v -0.02513500 0.12493200 -0.02441900
v -0.02513500 0.12563200 -0.02441900
v -0.02513500 0.12563200 -0.02441900
v -0.02513500 0.12563200 -0.02441900
v -0.02490400 0.12493200 -0.01798400
v -0.02490400 0.12493200 -0.01798400
v -0.02490400 0.12493200 -0.01798400
v -0.02498100 0.12493200 -0.02012900
v -0.02498100 0.12493200 -0.02012900
v -0.02505800 0.12493200 -0.02227400
v -0.02505800 0.12493200 -0.02227400
v -0.02505800 0.12563200 -0.02227400
v -0.02505800 0.12563200 -0.02227400
v -0.02505800 0.12563200 -0.02227400
v -0.02498100 0.12563200 -0.02012900
v -0.02498100 0.12563200 -0.02012900
v -0.02490400 0.12563200 -0.01798400
v -0.02490400 0.12563200 -0.01798400
v -0.02513500 0.12493200 -0.02441800
v -0.02513500 0.12493200 -0.02441800
v -0.02513500 0.12493200 -0.02441800
v -0.02513500 0.12563200 -0.02441800
v -0.02513500 0.12563200 -0.02441800
v -0.02513500 0.12563200 -0.02441800
v -0.02811900 0.12493200 -0.02431100
v -0.02811900 0.12493200 -0.02431100
v -0.02811900 0.12493200 -0.02431100
v -0.02811900 0.12563200 -0.02431100
v -0.02811900 0.12563200 -0.02431100
v -0.02811900 0.12563200 -0.02431100
v -0.02662700 0.12563200 -0.02436400
v -0.02662700 0.12563200 -0.02436400
v -0.02662700 0.12563200 -0.02436400
v -0.02662700 0.12493200 -0.02436400
v -0.02662700 0.12493200 -0.02436400
v -0.02482600 0.12493200 -0.01583900
v -0.02482600 0.12493200 -0.01583900
v -0.02482600 0.12493200 -0.01583900
v -0.02781000 0.12493200 -0.01573200
v -0.02781000 0.12493200 -0.01573200
v -0.02781000 0.12493200 -0.01573200
v -0.02513500 0.12493200 -0.02441900
v -0.02513500 0.12493200 -0.02441900
v -0.02513500 0.12493200 -0.02441900
v -0.02811900 0.12493200 -0.02431100
v -0.02811900 0.12493200 -0.02431100
v -0.02811900 0.12493200 -0.02431100
v -0.02804200 0.12493200 -0.02216600
v -0.02804200 0.12493200 -0.02216600
v -0.02796400 0.12493200 -0.02002100
v -0.02796400 0.12493200 -0.02002100
v -0.02788700 0.12493200 -0.01787700
v -0.02788700 0.12493200 -0.01787700
v -0.02788700 0.12493200 -0.01787700
v -0.02681500 0.12493200 -0.01576800
v -0.02681500 0.12493200 -0.01576800
v -0.02582000 0.12493200 -0.01580300
v -0.02582000 0.12493200 -0.01580300
v -0.02647200 0.12493200 -0.02007500
v -0.02721800 0.12493200 -0.02004800
v -0.02639500 0.12493200 -0.01793000
v -0.02714100 0.12493200 -0.01790300
v -0.02572600 0.12493200 -0.02010200
v -0.02564900 0.12493200 -0.01795700
v -0.02490300 0.12493200 -0.01798400
v -0.02490300 0.12493200 -0.01798400
v -0.02498000 0.12493200 -0.02012900
v -0.02498000 0.12493200 -0.02012900
v -0.02498000 0.12493200 -0.02012900
v -0.02505800 0.12493200 -0.02227400
v -0.02505800 0.12493200 -0.02227400
v -0.02505800 0.12493200 -0.02227400
v -0.02662700 0.12493200 -0.02436500
v -0.02662700 0.12493200 -0.02436500
v -0.02482600 0.12563100 -0.01583900
v -0.02482600 0.12563100 -0.01583900
v -0.02482600 0.12563100 -0.01583900
v -0.02781000 0.12563100 -0.01573200
v -0.02781000 0.12563100 -0.01573200
v -0.02781000 0.12563100 -0.01573200
v -0.02513500 0.12563100 -0.02441900
v -0.02513500 0.12563100 -0.02441900
v -0.02513500 0.12563100 -0.02441900
v -0.02811900 0.12563100 -0.02431100
v -0.02811900 0.12563100 -0.02431100
v -0.02811900 0.12563100 -0.02431100
v -0.02804200 0.12563100 -0.02216600
v -0.02804200 0.12563100 -0.02216600
v -0.02804200 0.12563100 -0.02216600
v -0.02796400 0.12563100 -0.02002100
v -0.02796400 0.12563100 -0.02002100
v -0.02796400 0.12563100 -0.02002100
v -0.02788700 0.12563100 -0.01787700
v -0.02788700 0.12563100 -0.01787700
v -0.02788700 0.12563100 -0.01787700
v -0.02681500 0.12563100 -0.01576800
v -0.02681500 0.12563100 -0.01576800
v -0.02582000 0.12563100 -0.01580300
v -0.02582000 0.12563100 -0.01580300
v -0.02647200 0.12563100 -0.02007500
v -0.02721800 0.12563100 -0.02004800
v -0.02639500 0.12563100 -0.01793000
v -0.02714100 0.12563100 -0.01790300
v -0.02572600 0.12563100 -0.02010200
v -0.02564900 0.12563100 -0.01795700
v -0.02490300 0.12563100 -0.01798400
v -0.02490300 0.12563100 -0.01798400
v -0.02490300 0.12563100 -0.01798400
v -0.02498000 0.12563100 -0.02012900
v -0.02498000 0.12563100 -0.02012900
v -0.02505800 0.12563100 -0.02227400
v -0.02505800 0.12563100 -0.02227400
v -0.02662700 0.12563100 -0.02436500
v -0.02662700 0.12563100 -0.02436500
v -0.02662700 0.12563100 -0.02436500
vn -0.03630000 0.00000000 -0.99930000
vn -0.99940000 0.00000000 0.03600000
vn 0.00000000 -1.00000000 -0.00040000
vn -0.03630000 0.00000000 -0.99930000
vn -0.99940000 0.00000000 0.03600000
vn 0.00000000 1.00000000 0.00000000
vn -0.99940000 0.00000000 0.03600000
vn 0.03630000 0.00000000 0.99930000
vn 0.00000000 -1.00000000 0.00000000
vn 0.00000000 1.00000000 0.00000000
vn -0.99940000 0.00000000 0.03600000
vn 0.03630000 0.00000000 0.99930000
vn 0.00000000 -1.00000000 -0.00040000
vn 0.00000000 -1.00000000 0.00000000
vn -0.99940000 0.00000000 0.03600000
vn 0.00000000 -1.00000000 0.00000000
vn -0.99940000 0.00000000 0.03600000
vn 0.00000000 -1.00000000 0.00040000
vn -0.99940000 0.00000000 0.03600000
vn 0.00000000 -1.00000000 0.00040000
vn 0.00000000 -1.00000000 0.00000000
vn -0.99940000 0.00000000 0.03600000
vn 0.00000000 1.00000000 0.00000000
vn 0.00000000 1.00000000 0.00000000
vn -0.99940000 0.00000000 0.03600000
vn 0.00000000 1.00000000 0.00000000
vn -0.99940000 0.00000000 0.03600000
vn 0.03600000 0.00000000 0.99940000
vn 0.00000000 -1.00000000 0.00000000
vn -0.99940000 0.00000000 0.03540000
vn 0.00000000 1.00000000 0.00000000
vn -0.99940000 0.00000000 0.03540000
vn 0.03600000 0.00000000 0.99940000
vn 0.00000000 -1.00000000 0.00000000
vn 0.99940000 0.00000000 -0.03350000
vn 0.03600000 0.00000000 0.99940000
vn 0.03600000 0.00000000 0.99940000
vn 0.99940000 0.00000000 -0.03350000
vn 0.00000000 1.00000000 0.00000000
vn 0.03600000 0.00000000 0.99940000
vn 0.00000000 -1.00000000 0.00000000
vn 0.03600000 0.00000000 0.99940000
vn 0.00000000 -1.00000000 0.00000000
vn 0.00000000 0.99990000 -0.01460000
vn 0.03600000 0.00000000 0.99940000
vn 0.00000000 1.00000000 0.00000000
vn 0.03600000 0.00000000 0.99940000
vn 0.00000000 1.00000000 0.00000000
vn 0.00000000 0.99990000 -0.01460000
vn 0.03770000 0.00000000 0.99930000
vn 0.00000000 -1.00000000 -0.00040000
vn 0.99940000 0.00000000 -0.03600000
vn 0.03770000 0.00000000 0.99930000
vn 0.00000000 1.00000000 0.00000000
vn 0.99940000 0.00000000 -0.03600000
vn -0.03380000 0.00000000 -0.99940000
vn 0.00000000 -1.00000000 0.00000000
vn 0.99940000 0.00000000 -0.03600000
vn -0.03380000 0.00000000 -0.99940000
vn 0.99940000 0.00000000 -0.03600000
vn 0.00000000 1.00000000 0.00040000
vn 0.00000000 -1.00000000 0.00000000
vn 0.99940000 0.00000000 -0.03600000
vn 0.00000000 -1.00000000 -0.00040000
vn 0.00000000 -1.00000000 0.00000000
vn 0.99940000 0.00000000 -0.03600000
vn 0.99940000 0.00000000 -0.03600000
vn 0.00000000 -1.00000000 0.00000000
vn 0.00000000 1.00000000 0.00000000
vn 0.00000000 1.00000000 0.00040000
vn 0.99940000 0.00000000 -0.03600000
vn 0.99940000 0.00000000 -0.03600000
vn 0.00000000 1.00000000 0.00000000
vn 0.00000000 1.00000000 0.00000000
vn 0.99940000 0.00000000 -0.03600000
vn 0.00000000 -1.00000000 0.00000000
vn -0.03600000 0.00000000 -0.99940000
vn 0.99940000 0.00000000 -0.03360000
vn -0.03600000 0.00000000 -0.99940000
vn 0.99940000 0.00000000 -0.03360000
vn 0.00000000 1.00000000 -0.00970000
vn -0.99940000 0.00000000 0.03350000
vn -0.03600000 0.00000000 -0.99940000
vn 0.00000000 -1.00000000 0.00000000
vn 0.00000000 1.00000000 0.00970000
vn -0.03600000 0.00000000 -0.99940000
vn -0.99940000 0.00000000 0.03350000
vn 0.00000000 1.00000000 0.00970000
vn 0.00000000 1.00000000 -0.00970000
vn -0.03600000 0.00000000 -0.99940000
vn -0.03600000 0.00000000 -0.99940000
vn 0.00000000 -1.00000000 0.00000000
vn 0.00000000 -1.00000000 0.00000000
vn 0.03590000 0.00000000 0.99940000
vn 0.99930000 0.00000000 -0.03620000
vn 0.03590000 0.00000000 0.99940000
vn -0.99940000 0.00000000 0.03580000
vn 0.00000000 -1.00000000 0.00000000
vn -0.03600000 0.00000000 -0.99940000
vn 0.99930000 0.00000000 -0.03620000
vn 0.00000000 -1.00000000 0.00000000
vn -0.03600000 0.00000000 -0.99940000
vn -0.99930000 0.00000000 0.03620000
vn 0.00000000 -1.00000000 0.00000000
vn -0.99930000 0.00000000 0.03620000
vn 0.00000000 -1.00000000 0.00000000
vn -0.99930000 0.00000000 0.03620000
vn 0.00000000 -1.00000000 0.00000000
vn -0.99930000 0.00000000 0.03620000
vn -0.99940000 0.00000000 0.03580000
vn 0.00000000 -1.00000000 0.00000000
vn 0.00000000 -1.00000000 0.00000000
vn 0.03590000 0.00000000 0.99940000
vn 0.03590000 0.00000000 0.99940000
vn 0.00000000 -1.00000000 0.00000000
vn 0.00000000 -1.00000000 0.00000000
vn 0.00000000 -1.00000000 0.00000000
vn 0.00000000 -1.00000000 0.00000000
vn 0.00000000 -1.00000000 0.00000000
vn 0.00000000 -1.00000000 0.00000000
vn 0.00000000 -1.00000000 0.00000000
vn 0.00000000 -1.00000000 0.00000000
vn 0.99930000 0.00000000 -0.03620000
vn 0.00000000 -1.00000000 0.00000000
vn 0.99940000 0.00000000 -0.03580000
vn 0.99930000 0.00000000 -0.03620000
vn 0.00000000 -1.00000000 0.00000000
vn 0.99930000 0.00000000 -0.03620000
vn 0.99940000 0.00000000 -0.03580000
vn 0.00000000 -1.00000000 0.00000000
vn -0.03600000 0.00000000 -0.99940000
vn 0.03560000 0.00000000 0.99940000
vn 0.99940000 0.00000000 -0.03570000
vn 0.00000000 1.00000000 0.00000000
vn 0.00000000 1.00000000 0.00000000
vn 0.03560000 0.00000000 0.99940000
vn -0.99930000 0.00000000 0.03610000
vn -0.03580000 0.00000000 -0.99940000
vn 0.99930000 0.00000000 -0.03610000
vn 0.00000000 1.00000000 0.00000000
vn -0.99940000 0.00000000 0.03570000
vn 0.00000000 1.00000000 0.00000000
vn -0.03610000 0.00000000 -0.99930000
vn -0.99940000 0.00000000 0.03570000
vn -0.99930000 0.00000000 0.03610000
vn 0.00000000 1.00000000 0.00000000
vn -0.99930000 0.00000000 0.03610000
vn 0.00000000 1.00000000 0.00000000
vn -0.99940000 0.00000000 0.03570000
vn -0.99930000 0.00000000 0.03610000
vn 0.00000000 1.00000000 0.00000000
vn -0.99940000 0.00000000 0.03570000
vn 0.00000000 1.00000000 0.00000000
vn 0.03560000 0.00000000 0.99940000
vn 0.03560000 0.00000000 0.99940000
vn 0.00000000 1.00000000 0.00000000
vn 0.00000000 1.00000000 0.00000000
vn 0.00000000 1.00000000 0.00000000
vn 0.00000000 1.00000000 0.00000000
vn 0.00000000 1.00000000 0.00000000
vn 0.00000000 1.00000000 0.00000000
vn 0.00000000 1.00000000 0.00000000
vn 0.99940000 0.00000000 -0.03570000
vn 0.99930000 0.00000000 -0.03610000
vn 0.00000000 1.00000000 0.00000000
vn 0.99930000 0.00000000 -0.03610000
vn 0.00000000 1.00000000 0.00000000
vn 0.00000000 1.00000000 0.00000000
vn 0.99930000 0.00000000 -0.03610000
vn -0.03580000 0.00000000 -0.99940000
vn -0.03610000 0.00000000 -0.99930000
vn 0.00000000 1.00000000 0.00000000
vn 0.99940000 0.00000000 -0.03600000
vn 0.00000000 -1.00000000 -0.00040000
vn -0.03630000 0.00000000 -0.99930000
vn -0.03630000 0.00000000 -0.99930000
vn 0.00000000 1.00000000 0.00000000
vn 0.99940000 0.00000000 -0.03600000
vn 0.00000000 -1.00000000 0.00000000
vn 0.03630000 0.00000000 0.99930000
vn 0.99940000 0.00000000 -0.03600000
vn 0.99940000 0.00000000 -0.03600000
vn 0.03630000 0.00000000 0.99930000
vn 0.00000000 1.00000000 0.00000000
vn 0.00000000 -1.00000000 -0.00040000
vn 0.99940000 0.00000000 -0.03600000
vn 0.00000000 -1.00000000 0.00000000
vn 0.00000000 -1.00000000 0.00040000
vn 0.00000000 -1.00000000 0.00000000
vn 0.99940000 0.00000000 -0.03600000
vn 0.99940000 0.00000000 -0.03600000
vn 0.00000000 -1.00000000 0.00000000
vn 0.00000000 -1.00000000 0.00040000
vn 0.00000000 1.00000000 0.00000000
vn 0.99940000 0.00000000 -0.03600000
vn 0.99940000 0.00000000 -0.03600000
vn 0.00000000 1.00000000 0.00000000
vn 0.00000000 1.00000000 0.00000000
vn 0.99940000 0.00000000 -0.03600000
vn -0.03600000 0.00000000 -0.99940000
vn -0.99940000 0.00000000 0.03540000
vn 0.00000000 -1.00000000 0.00000000
vn -0.03600000 0.00000000 -0.99940000
vn -0.99940000 0.00000000 0.03540000
vn 0.00000000 1.00000000 0.00000000
vn 0.00000000 -1.00000000 0.00000000
vn -0.03600000 0.00000000 -0.99940000
vn 0.99940000 0.00000000 -0.03350000
vn 0.99940000 0.00000000 -0.03350000
vn 0.00000000 1.00000000 0.00000000
vn -0.03600000 0.00000000 -0.99940000
vn 0.00000000 -1.00000000 0.00000000
vn -0.03600000 0.00000000 -0.99940000
vn -0.03600000 0.00000000 -0.99940000
vn 0.00000000 -1.00000000 0.00000000
vn 0.00000000 0.99990000 -0.01460000
vn -0.03600000 0.00000000 -0.99940000
vn 0.00000000 1.00000000 0.00000000
vn 0.00000000 0.99990000 -0.01460000
vn 0.00000000 1.00000000 0.00000000
vn -0.03600000 0.00000000 -0.99940000
vn 0.00000000 -1.00000000 -0.00040000
vn -0.99940000 0.00000000 0.03600000
vn 0.03770000 0.00000000 0.99930000
vn 0.00000000 1.00000000 0.00000000
vn 0.03770000 0.00000000 0.99930000
vn -0.99940000 0.00000000 0.03600000
vn -0.99940000 0.00000000 0.03600000
vn -0.03380000 0.00000000 -0.99940000
vn 0.00000000 -1.00000000 0.00000000
vn 0.00000000 1.00000000 0.00040000
vn -0.99940000 0.00000000 0.03600000
vn -0.03380000 0.00000000 -0.99940000
vn 0.00000000 -1.00000000 0.00000000
vn -0.99940000 0.00000000 0.03600000
vn 0.00000000 -1.00000000 -0.00040000
vn 0.00000000 -1.00000000 0.00000000
vn -0.99940000 0.00000000 0.03600000
vn 0.00000000 -1.00000000 0.00000000
vn -0.99940000 0.00000000 0.03600000
vn 0.00000000 1.00000000 0.00000000
vn -0.99940000 0.00000000 0.03600000
vn 0.00000000 1.00000000 0.00040000
vn -0.99940000 0.00000000 0.03600000
vn 0.00000000 1.00000000 0.00000000
vn -0.99940000 0.00000000 0.03600000
vn 0.00000000 1.00000000 0.00000000
vn 0.99940000 0.00000000 -0.03360000
vn 0.00000000 -1.00000000 0.00000000
vn 0.03600000 0.00000000 0.99940000
vn 0.03600000 0.00000000 0.99940000
vn 0.99940000 0.00000000 -0.03360000
vn 0.00000000 1.00000000 -0.00970000
vn -0.99940000 0.00000000 0.03350000
vn 0.00000000 -1.00000000 0.00000000
vn 0.03600000 0.00000000 0.99940000
vn 0.03600000 0.00000000 0.99940000
vn 0.00000000 1.00000000 0.00970000
vn -0.99940000 0.00000000 0.03350000
vn 0.03600000 0.00000000 0.99940000
vn 0.00000000 1.00000000 0.00970000
vn 0.00000000 1.00000000 -0.00970000
vn 0.03600000 0.00000000 0.99940000
vn 0.00000000 -1.00000000 0.00000000
vn 0.99930000 0.00000000 -0.03620000
vn 0.03590000 0.00000000 0.99940000
vn 0.00000000 1.00000000 0.00000000
vn 0.00000000 1.00000000 0.00000000
vn 0.03590000 0.00000000 0.99940000
vn -0.99940000 0.00000000 0.03580000
vn 0.00000000 1.00000000 0.00000000
vn 0.99930000 0.00000000 -0.03620000
vn -0.03600000 0.00000000 -0.99940000
vn -0.99930000 0.00000000 0.03620000
vn 0.00000000 1.00000000 0.00000000
vn -0.03600000 0.00000000 -0.99940000
vn 0.00000000 1.00000000 0.00000000
vn -0.99930000 0.00000000 0.03620000
vn 0.00000000 1.00000000 0.00000000
vn -0.99930000 0.00000000 0.03620000
vn 0.00000000 1.00000000 0.00000000
vn -0.99940000 0.00000000 0.03580000
vn -0.99930000 0.00000000 0.03620000
vn 0.00000000 1.00000000 0.00000000
vn 0.03590000 0.00000000 0.99940000
vn 0.03590000 0.00000000 0.99940000
vn 0.00000000 1.00000000 0.00000000
vn 0.00000000 1.00000000 0.00000000
vn 0.00000000 1.00000000 0.00000000
vn 0.00000000 1.00000000 0.00000000
vn 0.00000000 1.00000000 0.00000000
vn 0.00000000 1.00000000 0.00000000
vn 0.00000000 1.00000000 0.00000000
vn 0.00000000 1.00000000 0.00000000
vn 0.99930000 0.00000000 -0.03620000
vn 0.99930000 0.00000000 -0.03620000
vn 0.99940000 0.00000000 -0.03580000
vn 0.00000000 1.00000000 0.00000000
vn 0.00000000 1.00000000 0.00000000
vn 0.99930000 0.00000000 -0.03620000
vn 0.99940000 0.00000000 -0.03580000
vn -0.03600000 0.00000000 -0.99940000
vn 0.00000000 1.00000000 0.00000000
vn 0.00000000 -1.00000000 0.00000000
vn 0.03560000 0.00000000 0.99940000
vn 0.99940000 0.00000000 -0.03570000
vn 0.03560000 0.00000000 0.99940000
vn -0.99930000 0.00000000 0.03610000
vn 0.00000000 -1.00000000 0.00000000
vn 0.99930000 0.00000000 -0.03610000
vn -0.03580000 0.00000000 -0.99940000
vn 0.00000000 -1.00000000 0.00000000
vn 0.00000000 -1.00000000 0.00000000
vn -0.03610000 0.00000000 -0.99930000
vn -0.99940000 0.00000000 0.03570000
vn -0.99930000 0.00000000 0.03610000
vn 0.00000000 -1.00000000 0.00000000
vn -0.99940000 0.00000000 0.03570000
vn -0.99930000 0.00000000 0.03610000
vn 0.00000000 -1.00000000 0.00000000
vn -0.99940000 0.00000000 0.03570000
vn 0.00000000 -1.00000000 0.00000000
vn -0.99940000 0.00000000 0.03570000
vn -0.99930000 0.00000000 0.03610000
vn 0.03560000 0.00000000 0.99940000
vn 0.00000000 -1.00000000 0.00000000
vn 0.03560000 0.00000000 0.99940000
vn 0.00000000 -1.00000000 0.00000000
vn 0.00000000 -1.00000000 0.00000000
vn 0.00000000 -1.00000000 0.00000000
vn 0.00000000 -1.00000000 0.00000000
vn 0.00000000 -1.00000000 0.00000000
vn 0.00000000 -1.00000000 0.00000000
vn 0.00000000 -1.00000000 0.00000000
vn 0.00000000 -1.00000000 0.00000000
vn 0.99940000 0.00000000 -0.03570000
vn 0.99930000 0.00000000 -0.03610000
vn 0.00000000 -1.00000000 0.00000000
vn 0.99930000 0.00000000 -0.03610000
vn 0.00000000 -1.00000000 0.00000000
vn 0.99930000 0.00000000 -0.03610000
vn -0.03610000 0.00000000 -0.99930000
vn 0.00000000 -1.00000000 0.00000000
vn -0.03580000 0.00000000 -0.99940000
vt 0.31773800 0.00000000
vt 0.31773800 0.00000000
vt 0.31773800 0.00000000
vt 0.23940200 0.00000000
vt 0.23940200 0.00000000
vt 0.23940200 0.00000000
vt 0.31773800 0.97722200
vt 0.31773800 0.97722200
vt 0.31773800 0.97722200
vt 0.23940200 0.97722200
vt 0.23940200 0.97722200
vt 0.23940200 0.97722200
vt 0.31773800 0.24430500
vt 0.31773800 0.24430500
vt 0.31773800 0.24430500
vt 0.31773800 0.48861100
vt 0.31773800 0.48861100
vt 0.31773800 0.48861100
vt 0.31773800 0.73291600
vt 0.31773800 0.73291600
vt 0.31773800 0.73291600
vt 0.23940200 0.73291600
vt 0.23940200 0.73291600
vt 0.23940200 0.48861100
vt 0.23940200 0.48861100
vt 0.23940200 0.24430500
vt 0.23940200 0.24430500
vt 0.07833600 0.00000000
vt 0.07833600 0.00000000
vt 0.07833600 0.00000000
vt 0.00000000 0.00000000
vt 0.00000000 0.00000000
vt 0.00000000 0.00000000
vt 0.07833600 0.34039900
vt 0.07833600 0.34039900
vt 0.07833600 0.34039900
vt 0.00000000 0.34039900
vt 0.00000000 0.34039900
vt 0.00000000 0.34039900
vt 0.07833600 0.11346600
vt 0.07833600 0.11346600
vt 0.07833600 0.22693200
vt 0.07833600 0.22693200
vt 0.00000000 0.22693200
vt 0.00000000 0.22693200
vt 0.00000000 0.22693200
vt 0.00000000 0.11346600
vt 0.00000000 0.11346600
vt 0.00000000 0.11346600
vt 0.23793700 0.00000000
vt 0.23793700 0.00000000
vt 0.23793700 0.00000000
vt 0.15960100 0.00000000
vt 0.15960100 0.00000000
vt 0.15960100 0.00000000
vt 0.23793700 0.97722200
vt 0.23793700 0.97722200
vt 0.23793700 0.97722200
vt 0.15960100 0.97722200
vt 0.15960100 0.97722200
vt 0.15960100 0.97722200
vt 0.23793700 0.24430500
vt 0.23793700 0.24430500
vt 0.23793700 0.24430500
vt 0.23793700 0.48861100
vt 0.23793700 0.48861100
vt 0.23793700 0.73291600
vt 0.23793700 0.73291600
vt 0.15960100 0.73291600
vt 0.15960100 0.73291600
vt 0.15960100 0.73291600
vt 0.15960100 0.48861100
vt 0.15960100 0.48861100
vt 0.15960100 0.24430500
vt 0.15960100 0.24430500
vt 0.15813600 0.00000000
vt 0.15813600 0.00000000
vt 0.15813600 0.00000000
vt 0.07980100 0.00000000
vt 0.07980100 0.00000000
vt 0.07980100 0.00000000
vt 0.15813600 0.34039900
vt 0.15813600 0.34039900
vt 0.15813600 0.34039900
vt 0.07980100 0.34039900
vt 0.07980100 0.34039900
vt 0.07980100 0.34039900
vt 0.07980100 0.17019900
vt 0.07980100 0.17019900
vt 0.07980100 0.17019900
vt 0.15813600 0.17019900
vt 0.15813600 0.17019900
vt 0.99853500 0.00000000
vt 0.99853500 0.00000000
vt 0.99853500 0.00000000
vt 0.65960100 0.00000000
vt 0.65960100 0.00000000
vt 0.65960100 0.00000000
vt 0.99853500 0.97722200
vt 0.99853500 0.97722200
vt 0.99853500 0.97722200
vt 0.65960100 0.97722200
vt 0.65960100 0.97722200
vt 0.65960100 0.97722200
vt 0.65960100 0.73291600
vt 0.65960100 0.73291600
vt 0.65960100 0.48861100
vt 0.65960100 0.48861100
vt 0.65960100 0.24430500
vt 0.65960100 0.24430500
vt 0.65960100 0.24430500
vt 0.77257900 0.00000000
vt 0.77257900 0.00000000
vt 0.88555700 0.00000000
vt 0.88555700 0.00000000
vt 0.82906800 0.48861100
vt 0.74433500 0.48861100
vt 0.82906800 0.24430500
vt 0.74433500 0.24430500
vt 0.91380200 0.48861100
vt 0.91380200 0.24430500
vt 0.99853500 0.24430500
vt 0.99853500 0.24430500
vt 0.99853500 0.48861100
vt 0.99853500 0.48861100
vt 0.99853500 0.48861100
vt 0.99853500 0.73291600
vt 0.99853500 0.73291600
vt 0.99853500 0.73291600
vt 0.82906800 0.97722200
vt 0.82906800 0.97722200
vt 0.65813600 0.00000000
vt 0.65813600 0.00000000
vt 0.65813600 0.00000000
vt 0.31920300 0.00000000
vt 0.31920300 0.00000000
vt 0.31920300 0.00000000
vt 0.65813600 0.97722200
vt 0.65813600 0.97722200
vt 0.65813600 0.97722200
vt 0.31920300 0.97722200
vt 0.31920300 0.97722200
vt 0.31920300 0.97722200
vt 0.31920300 0.73291600
vt 0.31920300 0.73291600
vt 0.31920300 0.73291600
vt 0.31920300 0.48861100
vt 0.31920300 0.48861100
vt 0.31920300 0.48861100
vt 0.31920300 0.24430500
vt 0.31920300 0.24430500
vt 0.31920300 0.24430500
vt 0.43218100 0.00000000
vt 0.43218100 0.00000000
vt 0.54515800 0.00000000
vt 0.54515800 0.00000000
vt 0.48866900 0.48861100
vt 0.40393600 0.48861100
vt 0.48866900 0.24430500
vt 0.40393600 0.24430500
vt 0.57340300 0.48861100
vt 0.57340300 0.24430500
vt 0.65813600 0.24430500
vt 0.65813600 0.24430500
vt 0.65813600 0.24430500
vt 0.65813600 0.48861100
vt 0.65813600 0.48861100
vt 0.65813600 0.73291600
vt 0.65813600 0.73291600
vt 0.48866900 0.97722200
vt 0.48866900 0.97722200
vt 0.48866900 0.97722200
vt 0.31773800 0.00000000
vt 0.31773800 0.00000000
vt 0.31773800 0.00000000
vt 0.23940200 0.00000000
vt 0.23940200 0.00000000
vt 0.23940200 0.00000000
vt 0.31773800 0.97722200
vt 0.31773800 0.97722200
vt 0.31773800 0.97722200
vt 0.23940200 0.97722200
vt 0.23940200 0.97722200
vt 0.23940200 0.97722200
vt 0.31773800 0.24430500
vt 0.31773800 0.24430500
vt 0.31773800 0.24430500
vt 0.31773800 0.48861100
vt 0.31773800 0.48861100
vt 0.31773800 0.48861100
vt 0.31773800 0.73291600
vt 0.31773800 0.73291600
vt 0.31773800 0.73291600
vt 0.23940200 0.73291600
vt 0.23940200 0.73291600
vt 0.23940200 0.48861100
vt 0.23940200 0.48861100
vt 0.23940200 0.24430500
vt 0.23940200 0.24430500
vt 0.07833600 0.00000000
vt 0.07833600 0.00000000
vt 0.07833600 0.00000000
vt 0.00000000 0.00000000
vt 0.00000000 0.00000000
vt 0.00000000 0.00000000
vt 0.07833600 0.34039900
vt 0.07833600 0.34039900
vt 0.07833600 0.34039900
vt 0.00000000 0.34039900
vt 0.00000000 0.34039900
vt 0.00000000 0.34039900
vt 0.07833600 0.11346600
vt 0.07833600 0.11346600
vt 0.07833600 0.22693200
vt 0.07833600 0.22693200
vt 0.00000000 0.22693200
vt 0.00000000 0.22693200
vt 0.00000000 0.22693200
vt 0.00000000 0.11346600
vt 0.00000000 0.11346600
vt 0.00000000 0.11346600
vt 0.23793700 0.00000000
vt 0.23793700 0.00000000
vt 0.23793700 0.00000000
vt 0.15960100 0.00000000
vt 0.15960100 0.00000000
vt 0.15960100 0.00000000
vt 0.23793700 0.97722200
vt 0.23793700 0.97722200
vt 0.23793700 0.97722200
vt 0.15960100 0.97722200
vt 0.15960100 0.97722200
vt 0.15960100 0.97722200
vt 0.23793700 0.24430500
vt 0.23793700 0.24430500
vt 0.23793700 0.24430500
vt 0.23793700 0.48861100
vt 0.23793700 0.48861100
vt 0.23793700 0.73291600
vt 0.23793700 0.73291600
vt 0.15960100 0.73291600
vt 0.15960100 0.73291600
vt 0.15960100 0.73291600
vt 0.15960100 0.48861100
vt 0.15960100 0.48861100
vt 0.15960100 0.24430500
vt 0.15960100 0.24430500
vt 0.15813600 0.00000000
vt 0.15813600 0.00000000
vt 0.15813600 0.00000000
vt 0.07980100 0.00000000
vt 0.07980100 0.00000000
vt 0.07980100 0.00000000
vt 0.15813600 0.34039900
vt 0.15813600 0.34039900
vt 0.15813600 0.34039900
vt 0.07980100 0.34039900
vt 0.07980100 0.34039900
vt 0.07980100 0.34039900
vt 0.07980100 0.17019900
vt 0.07980100 0.17019900
vt 0.07980100 0.17019900
vt 0.15813600 0.17019900
vt 0.15813600 0.17019900
vt 0.99853500 0.00000000
vt 0.99853500 0.00000000
vt 0.99853500 0.00000000
vt 0.65960100 0.00000000
vt 0.65960100 0.00000000
vt 0.65960100 0.00000000
vt 0.99853500 0.97722200
vt 0.99853500 0.97722200
vt 0.99853500 0.97722200
vt 0.65960100 0.97722200
vt 0.65960100 0.97722200
vt 0.65960100 0.97722200
vt 0.65960100 0.73291600
vt 0.65960100 0.73291600
vt 0.65960100 0.48861100
vt 0.65960100 0.48861100
vt 0.65960100 0.24430500
vt 0.65960100 0.24430500
vt 0.65960100 0.24430500
vt 0.77257900 0.00000000
vt 0.77257900 0.00000000
vt 0.88555700 0.00000000
vt 0.88555700 0.00000000
vt 0.82906800 0.48861100
vt 0.74433500 0.48861100
vt 0.82906800 0.24430500
vt 0.74433500 0.24430500
vt 0.91380200 0.48861100
vt 0.91380200 0.24430500
vt 0.99853500 0.24430500
vt 0.99853500 0.24430500
vt 0.99853500 0.48861100
vt 0.99853500 0.48861100
vt 0.99853500 0.48861100
vt 0.99853500 0.73291600
vt 0.99853500 0.73291600
vt 0.99853500 0.73291600
vt 0.82906800 0.97722200
vt 0.82906800 0.97722200
vt 0.65813600 0.00000000
vt 0.65813600 0.00000000
vt 0.65813600 0.00000000
vt 0.31920300 0.00000000
vt 0.31920300 0.00000000
vt 0.31920300 0.00000000
vt 0.65813600 0.97722200
vt 0.65813600 0.97722200
vt 0.65813600 0.97722200
vt 0.31920300 0.97722200
vt 0.31920300 0.97722200
vt 0.31920300 0.97722200
vt 0.31920300 0.73291600
vt 0.31920300 0.73291600
vt 0.31920300 0.73291600
vt 0.31920300 0.48861100
vt 0.31920300 0.48861100
vt 0.31920300 0.48861100
vt 0.31920300 0.24430500
vt 0.31920300 0.24430500
vt 0.31920300 0.24430500
vt 0.43218100 0.00000000
vt 0.43218100 0.00000000
vt 0.54515800 0.00000000
vt 0.54515800 0.00000000
vt 0.48866900 0.48861100
vt 0.40393600 0.48861100
vt 0.48866900 0.24430500
vt 0.40393600 0.24430500
vt 0.57340300 0.48861100
vt 0.57340300 0.24430500
vt 0.65813600 0.24430500
vt 0.65813600 0.24430500
vt 0.65813600 0.24430500
vt 0.65813600 0.48861100
vt 0.65813600 0.48861100
vt 0.65813600 0.73291600
vt 0.65813600 0.73291600
vt 0.48866900 0.97722200
vt 0.48866900 0.97722200
vt 0.48866900 0.97722200
f 15/15/15 27/27/27 5/5/5
f 27/27/27 15/15/15 17/17/17
f 7/7/7 11/11/11 22/22/22
f 19/19/19 22/22/22 25/25/25
f 40/40/40 47/47/47 33/33/33
f 47/47/47 40/40/40 42/42/42
f 36/36/36 37/37/37 45/45/45
f 63/63/63 75/75/75 55/55/55
f 75/75/75 63/63/63 66/66/66
f 58/58/58 60/60/60 71/71/71
f 67/67/67 71/71/71 72/72/72
f 79/79/79 77/77/77 91/91/91
f 83/83/83 86/86/86 90/90/90
f 117/117/117 116/116/116 118/118/118
f 116/116/116 120/120/120 121/121/121
f 121/121/121 93/93/93 115/115/115
f 93/93/93 121/121/121 122/122/122
f 118/118/118 121/121/121 115/115/115
f 98/98/98 111/111/111 119/119/119
f 112/112/112 119/119/119 118/118/118
f 111/111/111 108/108/108 117/117/117
f 118/118/118 115/115/115 112/112/112
f 120/120/120 124/124/124 121/121/121
f 120/120/120 116/116/116 130/130/130
f 120/120/120 127/127/127 124/124/124
f 127/127/127 120/120/120 130/130/130
f 101/101/101 127/127/127 130/130/130
f 106/106/106 117/117/117 108/108/108
f 104/104/104 130/130/130 106/106/106
f 117/117/117 106/106/106 130/130/130
f 130/130/130 116/116/116 117/117/117
f 158/158/158 160/160/160 159/159/159
f 157/157/157 159/159/159 162/162/162
f 162/162/162 156/156/156 134/134/134
f 134/134/134 165/165/165 162/162/162
f 159/159/159 156/156/156 162/162/162
f 135/135/135 153/153/153 160/160/160
f 153/153/153 159/159/159 160/160/160
f 151/151/151 160/160/160 158/158/158
f 159/159/159 153/153/153 156/156/156
f 161/161/161 162/162/162 167/167/167
f 161/161/161 172/172/172 157/157/157
f 161/161/161 167/167/167 168/168/168
f 168/168/168 172/172/172 161/161/161
f 140/140/140 172/172/172 168/168/168
f 146/146/146 148/148/148 158/158/158
f 142/142/142 146/146/146 172/172/172
f 158/158/158 172/172/172 146/146/146
f 172/172/172 158/158/158 157/157/157
f 15/15/15 5/5/5 2/2/2
f 27/27/27 17/17/17 25/25/25
f 7/7/7 22/22/22 19/19/19
f 19/19/19 25/25/25 17/17/17
f 40/40/40 33/33/33 28/28/28
f 47/47/47 42/42/42 45/45/45
f 36/36/36 45/45/45 42/42/42
f 63/63/63 55/55/55 52/52/52
f 75/75/75 66/66/66 72/72/72
f 58/58/58 71/71/71 67/67/67
f 67/67/67 72/72/72 66/66/66
f 79/79/79 91/91/91 90/90/90
f 83/83/83 90/90/90 91/91/91
f 117/117/117 118/118/118 119/119/119
f 116/116/116 121/121/121 118/118/118
f 98/98/98 119/119/119 112/112/112
f 111/111/111 117/117/117 119/119/119
f 124/124/124 122/122/122 121/121/121
f 158/158/158 159/159/159 157/157/157
f 157/157/157 162/162/162 161/161/161
f 135/135/135 160/160/160 151/151/151
f 151/151/151 158/158/158 148/148/148
f 162/162/162 165/165/165 167/167/167
f 186/186/186 178/178/178 199/199/199
f 199/199/199 190/190/190 186/186/186
f 181/181/181 195/195/195 182/182/182
f 191/191/191 196/196/196 195/195/195
f 213/213/213 203/203/203 221/221/221
f 221/221/221 214/214/214 213/213/213
f 207/207/207 217/217/217 211/211/211
f 235/235/235 227/227/227 246/246/246
f 246/246/246 238/238/238 235/235/235
f 228/228/228 242/242/242 232/232/232
f 240/240/240 244/244/244 242/242/242
f 251/251/251 263/263/263 250/250/250
f 256/256/256 260/260/260 257/257/257
f 289/289/289 290/290/290 288/288/288
f 288/288/288 293/293/293 292/292/292
f 293/293/293 287/287/287 267/267/267
f 267/267/267 294/294/294 293/293/293
f 290/290/290 287/287/287 293/293/293
f 268/268/268 291/291/291 281/281/281
f 284/284/284 290/290/290 291/291/291
f 281/281/281 289/289/289 279/279/279
f 290/290/290 284/284/284 287/287/287
f 292/292/292 293/293/293 298/298/298
f 292/292/292 303/303/303 288/288/288
f 292/292/292 298/298/298 299/299/299
f 299/299/299 303/303/303 292/292/292
f 271/271/271 303/303/303 299/299/299
f 277/277/277 279/279/279 289/289/289
f 275/275/275 277/277/277 303/303/303
f 289/289/289 303/303/303 277/277/277
f 303/303/303 289/289/289 288/288/288
f 330/330/330 331/331/331 332/332/332
f 329/329/329 334/334/334 331/331/331
f 334/334/334 304/304/304 328/328/328
f 304/304/304 334/334/334 335/335/335
f 331/331/331 334/334/334 328/328/328
f 309/309/309 332/332/332 326/326/326
f 326/326/326 332/332/332 331/331/331
f 322/322/322 330/330/330 332/332/332
f 331/331/331 328/328/328 326/326/326
f 333/333/333 338/338/338 334/334/334
f 333/333/333 329/329/329 343/343/343
f 333/333/333 340/340/340 338/338/338
f 340/340/340 333/333/333 343/343/343
f 312/312/312 340/340/340 343/343/343
f 317/317/317 330/330/330 320/320/320
f 313/313/313 343/343/343 317/317/317
f 330/330/330 317/317/317 343/343/343
f 343/343/343 329/329/329 330/330/330
f 186/186/186 173/173/173 178/178/178
f 199/199/199 196/196/196 190/190/190
f 181/181/181 191/191/191 195/195/195
f 191/191/191 190/190/190 196/196/196
f 213/213/213 200/200/200 203/203/203
f 221/221/221 217/217/217 214/214/214
f 207/207/207 214/214/214 217/217/217
f 235/235/235 223/223/223 227/227/227
f 246/246/246 244/244/244 238/238/238
f 228/228/228 240/240/240 242/242/242
f 240/240/240 238/238/238 244/244/244
f 251/251/251 260/260/260 263/263/263
f 256/256/256 263/263/263 260/260/260
f 289/289/289 291/291/291 290/290/290
f 288/288/288 290/290/290 293/293/293
f 268/268/268 284/284/284 291/291/291
f 281/281/281 291/291/291 289/289/289
f 298/298/298 293/293/293 294/294/294
f 330/330/330 329/329/329 331/331/331
f 329/329/329 333/333/333 334/334/334
f 309/309/309 322/322/322 332/332/332
f 322/322/322 320/320/320 330/330/330
f 334/334/334 338/338/338 335/335/335
f 1/1/1 4/4/4 176/176/176
f 176/176/176 175/175/175 1/1/1
f 12/12/12 8/8/8 180/180/180
f 180/180/180 183/183/183 12/12/12
f 13/13/13 3/3/3 174/174/174
f 174/174/174 185/185/185 13/13/13
f 16/16/16 14/14/14 187/187/187
f 187/187/187 189/189/189 16/16/16
f 9/9/9 21/21/21 192/192/192
f 192/192/192 179/179/179 9/9/9
f 30/30/30 32/32/32 204/204/204
f 204/204/204 201/201/201 30/30/30
f 38/38/38 35/35/35 208/208/208
f 208/208/208 209/209/209 38/38/38
f 43/43/43 41/41/41 212/212/212
f 212/212/212 215/215/215 43/43/43
f 50/50/50 53/53/53 226/226/226
f 226/226/226 224/224/224 50/50/50
f 59/59/59 56/56/56 229/229/229
f 229/229/229 233/233/233 59/59/59
f 64/64/64 51/51/51 222/222/222
f 222/222/222 236/236/236 64/64/64
f 65/65/65 62/62/62 234/234/234
f 234/234/234 237/237/237 65/65/65
f 57/57/57 68/68/68 239/239/239
f 239/239/239 230/230/230 57/57/57
f 78/78/78 80/80/80 252/252/252
f 252/252/252 248/248/248 78/78/78
f 87/87/87 82/82/82 254/254/254
f 254/254/254 259/259/259 87/87/87
f 92/92/92 76/76/76 249/249/249
f 249/249/249 264/264/264 92/92/92
f 105/105/105 107/107/107 280/280/280
f 280/280/280 278/278/278 105/105/105
f 114/114/114 94/94/94 266/266/266
f 266/266/266 286/286/286 114/114/114
f 95/95/95 123/123/123 295/295/295
f 295/295/295 265/265/265 95/95/95
f 99/99/99 131/131/131 302/302/302
f 302/302/302 273/273/273 99/99/99
f 144/144/144 141/141/141 315/315/315
f 315/315/315 318/318/318 144/144/144
f 154/154/154 136/136/136 307/307/307
f 307/307/307 325/325/325 154/154/154
f 155/155/155 154/154/154 325/325/325
f 325/325/325 327/327/327 155/155/155
f 26/26/26 24/24/24 197/197/197
f 197/197/197 198/198/198 26/26/26
f 81/81/81 89/89/89 262/262/262
f 262/262/262 253/253/253 81/81/81
f 139/139/139 169/169/169 341/341/341
f 341/341/341 310/310/310 139/139/139
f 125/125/125 129/129/129 301/301/301
f 301/301/301 297/297/297 125/125/125
f 41/41/41 29/29/29 202/202/202
f 202/202/202 212/212/212 41/41/41
f 34/34/34 43/43/43 215/215/215
f 215/215/215 206/206/206 34/34/34
f 128/128/128 100/100/100 272/272/272
f 272/272/272 300/300/300 128/128/128
f 49/49/49 44/44/44 216/216/216
f 216/216/216 219/219/219 49/49/49
f 137/137/137 150/150/150 324/324/324
f 324/324/324 308/308/308 137/137/137
f 152/152/152 149/149/149 321/321/321
f 321/321/321 323/323/323 152/152/152
f 107/107/107 109/109/109 283/283/283
f 283/283/283 280/280/280 107/107/107
f 20/20/20 18/18/18 188/188/188
f 188/188/188 193/193/193 20/20/20
f 23/23/23 10/10/10 184/184/184
f 184/184/184 194/194/194 23/23/23
f 24/24/24 23/23/23 194/194/194
f 194/194/194 197/197/197 24/24/24
f 6/6/6 26/26/26 198/198/198
f 198/198/198 177/177/177 6/6/6
f 46/46/46 39/39/39 210/210/210
f 210/210/210 218/218/218 46/46/46
f 31/31/31 48/48/48 220/220/220
f 220/220/220 205/205/205 31/31/31
f 68/68/68 65/65/65 237/237/237
f 237/237/237 239/239/239 68/68/68
f 70/70/70 61/61/61 231/231/231
f 231/231/231 243/243/243 70/70/70
f 73/73/73 69/69/69 241/241/241
f 241/241/241 245/245/245 73/73/73
f 54/54/54 74/74/74 247/247/247
f 247/247/247 225/225/225 54/54/54
f 88/88/88 85/85/85 258/258/258
f 258/258/258 261/261/261 88/88/88
f 103/103/103 105/105/105 278/278/278
f 278/278/278 274/274/274 103/103/103
f 110/110/110 97/97/97 270/270/270
f 270/270/270 282/282/282 110/110/110
f 96/96/96 113/113/113 285/285/285
f 285/285/285 269/269/269 96/96/96
f 113/113/113 114/114/114 286/286/286
f 286/286/286 285/285/285 113/113/113
f 147/147/147 145/145/145 316/316/316
f 316/316/316 319/319/319 147/147/147
f 132/132/132 155/155/155 327/327/327
f 327/327/327 305/305/305 132/132/132
f 163/163/163 133/133/133 306/306/306
f 306/306/306 336/336/336 163/163/163
f 169/169/169 166/166/166 339/339/339
f 339/339/339 341/341/341 169/169/169
f 170/170/170 138/138/138 311/311/311
f 311/311/311 344/344/344 170/170/170
f 74/74/74 73/73/73 245/245/245
f 245/245/245 247/247/247 74/74/74
f 166/166/166 164/164/164 337/337/337
f 337/337/337 339/339/339 166/166/166
f 123/123/123 126/126/126 296/296/296
f 296/296/296 295/295/295 123/123/123
f 84/84/84 92/92/92 264/264/264
f 264/264/264 255/255/255 84/84/84
f 143/143/143 171/171/171 342/342/342
f 342/342/342 314/314/314 143/143/143
f 131/131/131 102/102/102 276/276/276
f 276/276/276 302/302/302 131/131/131

