mtllib material.mtl
usemtl Material-7011油漆.024
v 0.01988500 0.14844100 -0.21161200
v 0.01988500 0.14844100 -0.21161200
v -0.01512500 0.15484200 -0.21365900
v -0.01512500 0.15484200 -0.21365900
v -0.01988500 0.14845900 -0.21397700
v 0.01485200 0.15492300 -0.21329200
v 0.03522800 0.15494000 -0.23381500
v 0.01485200 0.15492300 -0.21329200
v 0.01988500 0.14844100 -0.21161200
v 0.04012000 0.14850500 -0.24020000
v -0.02625100 0.14866300 -0.28165300
v -0.04108900 0.14842900 -0.25738200
v -0.03430700 0.15495300 -0.26915400
v -0.01081600 0.15494300 -0.28723700
v 0.01112600 0.15493200 -0.28659600
v 0.03033500 0.15493300 -0.27449900
v 0.01926600 0.14845300 -0.28626700
v -0.00346900 0.14854500 -0.29142800
v 0.03808600 0.15493200 -0.25353700
v 0.03755800 0.14859200 -0.26792300
v 0.03522800 0.15494000 -0.23381500
v 0.04012000 0.14850500 -0.24020000
v -0.01512500 0.15484200 -0.21365900
v -0.03690800 0.15494400 -0.23593700
v -0.03483200 0.14864500 -0.22758100
v -0.03430700 0.15495300 -0.26915400
v -0.04108900 0.14842900 -0.25738200
v 0.03522800 0.15494000 -0.23381500
v 0.03808600 0.15493200 -0.25353700
v 0.03033500 0.15493300 -0.27449900
v -0.01988500 0.14845900 -0.21397700
v -0.03483200 0.14864500 -0.22758100
v -0.04108900 0.14842900 -0.25738200
v -0.04108900 0.14842900 -0.25738200
v -0.00346900 0.14854500 -0.29142800
v 0.01926600 0.14845300 -0.28626700
v 0.01926600 0.14845300 -0.28626700
v -0.02625100 0.14866300 -0.28165300
v 0.01988500 0.14844100 -0.21161200
v 0.01988500 0.14844100 -0.21161200
v 0.04012000 0.14850500 -0.24020000
v 0.03755800 0.14859200 -0.26792300
v 0.03033500 0.15493300 -0.27449900
v 0.03033500 0.15493300 -0.27449900
v 0.01485200 0.15492300 -0.21329200
v 0.01485200 0.15492300 -0.21329200
v 0.01485200 0.15492300 -0.21329200
v 0.01485200 0.15492300 -0.21329200
v 0.03522800 0.15494000 -0.23381500
v 0.01112600 0.15493200 -0.28659600
v 0.01112600 0.15493200 -0.28659600
v 0.01112600 0.15493200 -0.28659600
v -0.03690800 0.15494400 -0.23593700
v -0.03690800 0.15494400 -0.23593700
v -0.01512500 0.15484200 -0.21365900
v -0.01081600 0.15494300 -0.28723700
v -0.03430700 0.15495300 -0.26915400
v -0.03430700 0.15495300 -0.26915400
v -0.03430700 0.15495300 -0.26915400
v -0.01988500 0.14845900 -0.21397700
vn -0.08720000 -0.00030000 0.99620000
vn -0.08720000 -0.00000000 0.99620000
vn -0.08710000 -0.00000000 0.99620000
vn -0.08720000 -0.00000000 0.99620000
vn -0.08710000 -0.00000000 0.99620000
vn -0.08720000 -0.00000000 0.99620000
vn 0.82950000 0.40390000 0.38580000
vn 0.35440000 0.39990000 0.84530000
vn 0.42590000 0.39300000 0.81500000
vn 0.89160000 0.39110000 0.22820000
vn -0.58490000 0.40150000 -0.70480000
vn -0.90550000 0.38240000 -0.18400000
vn -0.79520000 0.40220000 -0.45380000
vn -0.25930000 0.40180000 -0.87830000
vn 0.26580000 0.40620000 -0.87430000
vn 0.71270000 0.39990000 -0.57630000
vn 0.42950000 0.40380000 -0.80780000
vn -0.07760000 0.39850000 -0.91390000
vn 0.90990000 0.40610000 -0.08450000
vn 0.82750000 0.39810000 -0.39590000
vn 0.83710000 0.39700000 0.37630000
vn 0.88940000 0.40260000 0.21660000
vn -0.35690000 0.39990000 0.84420000
vn -0.85850000 0.39580000 0.32610000
vn -0.77250000 0.39890000 0.49420000
vn -0.81390000 0.38720000 -0.43320000
vn -0.90230000 0.40120000 -0.15810000
vn 0.00000000 1.00000000 -0.00000000
vn 0.00000000 1.00000000 -0.00000000
vn 0.00000000 1.00000000 -0.00000000
vn 0.00000000 -1.00000000 -0.00000000
vn 0.00000000 -1.00000000 -0.00000000
vn 0.00030000 -1.00000000 -0.00020000
vn 0.00000000 -1.00000000 -0.00000000
vn 0.00000000 -1.00000000 -0.00000000
vn 0.00030000 -1.00000000 -0.00020000
vn 0.00000000 -1.00000000 -0.00000000
vn 0.00000000 -1.00000000 -0.00000000
vn 0.00000000 -1.00000000 -0.00000000
vn 0.00030000 -1.00000000 -0.00020000
vn 0.00000000 -1.00000000 -0.00000000
vn 0.00000000 -1.00000000 -0.00000000
vn -0.00010000 1.00000000 0.00010000
vn 0.00000000 1.00000000 -0.00000000
vn 0.00000000 1.00000000 -0.00000000
vn -0.00010000 1.00000000 0.00010000
vn -0.00010000 1.00000000 -0.00010000
vn -0.00010000 1.00000000 -0.00000000
vn 0.00000000 1.00000000 -0.00000000
vn -0.00010000 1.00000000 -0.00000000
vn 0.00000000 1.00000000 -0.00000000
vn -0.00010000 1.00000000 0.00010000
vn 0.00000000 1.00000000 -0.00000000
vn -0.00010000 1.00000000 -0.00010000
vn 0.00000000 1.00000000 -0.00000000
vn 0.00000000 1.00000000 -0.00000000
vn -0.00010000 1.00000000 -0.00010000
vn 0.00000000 1.00000000 -0.00000000
vn -0.00010000 1.00000000 -0.00000000
vn -0.44430000 0.40380000 0.79970000
vt 0.26315000 0.28341200
vt 0.26315000 0.28341200
vt 0.16830700 0.32887800
vt 0.16830700 0.32887800
vt 0.15539900 0.28257600
vt 0.24920800 0.33043500
vt 0.52139200 0.28667300
vt 0.60352900 0.28770000
vt 0.59539300 0.33806000
vt 0.50025000 0.33303900
vt 0.42062100 1.01271600
vt 0.33673300 1.01262900
vt 0.37665200 0.96533700
vt 0.46917100 0.96387100
vt 0.53882100 0.96434700
vt 0.61015000 0.96422400
vt 0.56199900 1.01465200
vt 0.49335100 1.01381600
vt 0.68045200 0.96434700
vt 0.63801000 1.01385200
vt 0.74275700 0.96246700
vt 0.72053200 1.01441500
vt 0.36272500 0.96618800
vt 0.45995800 0.96359100
vt 0.43541600 1.01274900
vt 0.56394400 0.95999400
vt 0.52522300 1.01709700
vt 0.05884600 0.32039400
vt 0.06696600 0.17776000
vt 0.10350500 0.04888300
vt 0.07988000 0.28342000
vt 0.03643700 0.37217200
vt 0.01253100 0.58311000
vt 0.01253100 0.58311000
vt 0.10586000 0.85235600
vt 0.16830400 0.82951100
vt 0.16830400 0.82951100
vt 0.04685500 0.76725900
vt 0.18756600 0.29146200
vt 0.18756600 0.29146200
vt 0.23538100 0.51047000
vt 0.22187500 0.70874800
vt 0.00541700 0.43236300
vt 0.00541700 0.43236300
vt 0.03269900 -0.01886300
vt 0.03269900 -0.01886300
vt 0.03269900 -0.01886300
vt 0.03269900 -0.01886300
vt -0.01735200 0.14201800
vt 0.06001000 0.50749600
vt 0.06001000 0.50749600
vt 0.06001000 0.50749600
vt 0.17746200 0.11180300
vt 0.17746200 0.11180300
vt 0.11353400 -0.03513200
vt 0.11926800 0.49827500
vt 0.17828300 0.35302500
vt 0.17828300 0.35302500
vt 0.17828300 0.35302500
vt 0.37601600 1.01449100
f 1/1/1 3/3/3 5/5/5
f 4/4/4 2/2/2 6/6/6
f 7/7/7 8/8/8 9/9/9
f 7/7/7 9/9/9 10/10/10
f 11/11/11 12/12/12 13/13/13
f 13/13/13 14/14/14 11/11/11
f 15/15/15 16/16/16 17/17/17
f 18/18/18 15/15/15 17/17/17
f 16/16/16 19/19/19 20/20/20
f 19/19/19 21/21/21 22/22/22
f 16/16/16 20/20/20 17/17/17
f 22/22/22 20/20/20 19/19/19
f 23/23/23 24/24/24 25/25/25
f 26/26/26 27/27/27 24/24/24
f 28/28/28 29/29/29 30/30/30
f 31/31/31 32/32/32 34/34/34
f 34/34/34 35/35/35 37/37/37
f 35/35/35 34/34/34 38/38/38
f 33/33/33 36/36/36 40/40/40
f 41/41/41 39/39/39 42/42/42
f 39/39/39 37/37/37 42/42/42
f 44/44/44 45/45/45 49/49/49
f 43/43/43 52/52/52 46/46/46
f 45/45/45 53/53/53 55/55/55
f 56/56/56 58/58/58 51/51/51
f 54/54/54 47/47/47 57/57/57
f 14/14/14 18/18/18 11/11/11
f 18/18/18 14/14/14 15/15/15
f 60/60/60 23/23/23 25/25/25
f 27/27/27 25/25/25 24/24/24
f 34/34/34 39/39/39 31/31/31
f 59/59/59 48/48/48 50/50/50

