mtllib material.mtl
usemtl Material-7011油漆.019
v -0.01903100 0.12528400 -0.01623100
v -0.01903100 0.12528400 -0.01623100
v -0.01903100 0.12528400 -0.01623100
v -0.02342300 0.12535600 -0.01636100
v -0.02342300 0.12535600 -0.01636100
v -0.02342300 0.12535600 -0.01636100
v -0.01924600 0.12528100 -0.02479700
v -0.01924600 0.12528100 -0.02479700
v -0.01924600 0.12528100 -0.02479700
v -0.01903100 0.12528500 -0.01623100
v -0.01903100 0.12528500 -0.01623100
v -0.01903100 0.12528500 -0.01623100
v -0.01924600 0.12528200 -0.02479700
v -0.01924600 0.12528200 -0.02479700
v -0.01924600 0.12528200 -0.02479700
v -0.02342300 0.12535700 -0.01636100
v -0.02342300 0.12535700 -0.01636100
v -0.02342300 0.12535700 -0.01636100
v -0.01903100 0.12528500 -0.01623100
v -0.01903100 0.12528500 -0.01623100
v -0.01903100 0.12528500 -0.01623100
v -0.02342300 0.12535700 -0.01636100
v -0.02342300 0.12535700 -0.01636100
v -0.02342300 0.12535700 -0.01636100
v -0.01924600 0.12528200 -0.02479700
v -0.01924600 0.12528200 -0.02479700
v -0.01924600 0.12528200 -0.02479700
v -0.01903100 0.12528400 -0.01623100
v -0.01903100 0.12528400 -0.01623100
v -0.01903100 0.12528400 -0.01623100
v -0.01924600 0.12528100 -0.02479700
v -0.01924600 0.12528100 -0.02479700
v -0.01924600 0.12528100 -0.02479700
v -0.02342300 0.12535600 -0.01636100
v -0.02342300 0.12535600 -0.01636100
v -0.02342300 0.12535600 -0.01636100
vn 0.00000000 -1.00000000 -0.00000000
vn 0.99980000 -0.01620000 -0.00880000
vn -0.03050000 -0.01590000 0.99940000
vn 0.00000000 -1.00000000 -0.00000000
vn -0.88800000 0.01680000 -0.45950000
vn -0.02760000 0.01660000 0.99950000
vn -0.89750000 -0.00040000 -0.44110000
vn 0.99910000 -0.01240000 -0.04080000
vn 0.00000000 -1.00000000 -0.00000000
vn -0.02860000 -0.01590000 0.99950000
vn 0.99900000 -0.01560000 -0.04130000
vn -0.00000000 1.00000000 0.00000000
vn -0.88990000 0.00460000 -0.45610000
vn -0.00000000 1.00000000 0.00000000
vn 0.99990000 -0.00450000 -0.01450000
vn -0.90200000 0.02070000 -0.43120000
vn -0.03470000 0.01590000 0.99930000
vn -0.00000000 1.00000000 0.00000000
vn 0.01540000 0.99980000 0.01550000
vn -0.01330000 -0.00050000 0.99990000
vn 0.99970000 -0.00060000 -0.02580000
vn -0.89470000 -0.00100000 -0.44660000
vn 0.02460000 0.99960000 -0.01480000
vn -0.01340000 -0.00160000 0.99990000
vn -0.88830000 0.01070000 -0.45910000
vn 0.99980000 -0.00120000 -0.02070000
vn 0.00180000 1.00000000 -0.00830000
vn 0.99970000 -0.00060000 -0.02390000
vn -0.04580000 -0.00060000 0.99890000
vn -0.01540000 -0.99980000 -0.01550000
vn -0.90020000 0.00290000 -0.43560000
vn 0.99930000 -0.00630000 -0.03750000
vn -0.00180000 -1.00000000 0.00830000
vn -0.04500000 -0.00470000 0.99900000
vn -0.02460000 -0.99960000 0.01480000
vn -0.89790000 -0.00010000 -0.44030000
vt 0.00068600 0.53313000
vt 0.00068600 0.53313000
vt 0.00068600 0.53313000
vt 0.00168500 0.90983200
vt 0.00168500 0.90983200
vt 0.00168500 0.90983200
vt 0.03059100 0.52373300
vt 0.03059100 0.52373300
vt 0.03059100 0.52373300
vt 0.00068500 0.53210200
vt 0.00068500 0.53210200
vt 0.00068500 0.53210200
vt 0.03059100 0.52373300
vt 0.03059100 0.52373300
vt 0.03059100 0.52373300
vt 0.00165400 0.90726300
vt 0.00165400 0.90726300
vt 0.00165400 0.90726300
vt 0.00068600 0.53313000
vt 0.00068600 0.53313000
vt 0.00068600 0.53313000
vt 0.00168500 0.90983200
vt 0.00168500 0.90983200
vt 0.00168500 0.90983200
vt 0.03059100 0.52373300
vt 0.03059100 0.52373300
vt 0.03059100 0.52373300
vt 0.00068500 0.53210200
vt 0.00068500 0.53210200
vt 0.00068500 0.53210200
vt 0.03059100 0.52373300
vt 0.03059100 0.52373300
vt 0.03059100 0.52373300
vt 0.00165400 0.90726300
vt 0.00165400 0.90726300
vt 0.00165400 0.90726300
f 1/1/1 4/4/4 9/9/9
f 12/12/12 14/14/14 18/18/18
f 19/19/19 27/27/27 23/23/23
f 30/30/30 35/35/35 33/33/33
f 6/6/6 3/3/3 20/20/20
f 20/20/20 24/24/24 6/6/6
f 2/2/2 8/8/8 26/26/26
f 26/26/26 21/21/21 2/2/2
f 7/7/7 5/5/5 22/22/22
f 22/22/22 25/25/25 7/7/7
f 15/15/15 11/11/11 28/28/28
f 28/28/28 32/32/32 15/15/15
f 10/10/10 17/17/17 34/34/34
f 34/34/34 29/29/29 10/10/10
f 16/16/16 13/13/13 31/31/31
f 31/31/31 36/36/36 16/16/16

