mtllib material.mtl
usemtl Material-7011油漆.028
v -0.04628900 0.01053100 0.00269100
v -0.04520200 0.01053200 0.01002400
v -0.04626500 0.01103200 0.00705800
v -0.04390200 0.01053200 0.01478200
v -0.04491100 0.01103200 0.01316100
v -0.04159300 0.01053200 0.02042500
v -0.04275600 0.01103200 0.01903000
v -0.03239800 0.01053200 0.03311600
v -0.02807000 0.01053200 0.03684000
v -0.02957800 0.01103200 0.03626800
v -0.03744700 0.01053200 0.02736100
v -0.03414800 0.01103200 0.03200200
v -0.03983800 0.01103200 0.02455900
v -0.02330600 0.01053200 0.04003900
v -0.02709000 0.01103200 0.03816300
v -0.01737900 0.01053200 0.04296600
v -0.00947300 0.01053000 0.04539800
v -0.01307200 0.01103200 0.04493700
v -0.02176100 0.01103200 0.04143300
v -0.00200300 0.01053200 0.04628100
v -0.00386000 0.01103200 0.04664100
v 0.00508700 0.01053400 0.04607500
v 0.00239100 0.01103200 0.04673900
v 0.01152900 0.01053200 0.04484200
v 0.00860000 0.01103200 0.04600300
v 0.01776700 0.01053400 0.04281600
v 0.01465500 0.01103200 0.04444600
v 0.02407600 0.01053200 0.03957600
v 0.02044800 0.01103200 0.04209700
v 0.02812000 0.01053200 0.03678300
v 0.02587600 0.01103200 0.03899500
v 0.03184300 0.01053000 0.03366400
v 0.02842300 0.01103200 0.03718000
v 0.03607100 0.01053200 0.02906500
v 0.03525900 0.01103200 0.03077400
v 0.04293900 0.01053200 0.01731800
v 0.04509700 0.01053200 0.01077000
v 0.04447500 0.01103200 0.01456700
v 0.04011400 0.01053200 0.02322700
v 0.04213700 0.01103200 0.02036500
v 0.04615600 0.01053200 0.00383700
v 0.04648600 0.01103200 0.00541600
v 0.04628900 0.01053200 -0.00269100
v 0.04674400 0.01103200 0.00229900
v 0.03904700 0.01103200 0.02579900
v 0.04680200 0.04403300 -0.00149600
v 0.04653200 0.04409000 -0.00513400
v 0.04641400 0.04433200 -0.00353500
v 0.04678000 0.04408800 0.00133700
v 0.04636900 0.04411400 0.00634400
v 0.04639900 0.04433200 0.00245400
v 0.04590900 0.04409000 0.00917900
v 0.04588600 0.04433200 0.00733200
v 0.04490800 0.04407200 0.01327700
v 0.04488300 0.04433200 0.01203600
v 0.04345300 0.04395900 0.01744400
v 0.04321500 0.04433100 0.01743200
v 0.04230300 0.04398400 0.02002600
v 0.04123600 0.04406700 0.02217300
v 0.04061100 0.04433100 0.02264600
v 0.03788500 0.04413700 0.02748500
v 0.03544600 0.04409800 0.03057000
v 0.03736800 0.04433100 0.02767000
v 0.03310500 0.04405400 0.03311200
v 0.03353600 0.04433100 0.03219200
v 0.02998200 0.04399700 0.03597300
v 0.02999100 0.04433000 0.03563500
v 0.02663700 0.04408400 0.03850800
v 0.02526100 0.04433200 0.03902100
v 0.02270200 0.04410500 0.04096500
v 0.01832300 0.04406600 0.04309400
v 0.01961000 0.04433100 0.04215500
v 0.01457400 0.04410700 0.04449400
v 0.00968100 0.04410000 0.04580600
v 0.01333900 0.04433100 0.04457500
v 0.00457000 0.04412300 0.04659300
v 0.00718400 0.04433100 0.04590700
v 0.00021300 0.04413300 0.04683000
v 0.00182600 0.04433100 0.04643900
v -0.00433300 0.04410900 0.04662100
v -0.00414900 0.04433100 0.04628900
v -0.00806300 0.04407500 0.04612100
v -0.00931500 0.04432800 0.04556000
v -0.01316000 0.04410600 0.04493200
v -0.01673200 0.04407600 0.04373100
v -0.01453200 0.04432600 0.04415500
v -0.02309900 0.04398900 0.04071000
v -0.02055400 0.04393900 0.04207400
v -0.01972900 0.04431200 0.04220600
v -0.03366000 0.04414100 0.03251600
v -0.03366000 0.04414100 0.03251600
v -0.02918000 0.04411600 0.03661900
v -0.03079600 0.04433200 0.03477000
v -0.03212200 0.04394900 0.03406600
v -0.04325100 0.04409600 0.01793300
v -0.04103000 0.04408500 0.02254800
v -0.04269500 0.04432700 0.01842500
v -0.04544700 0.04411000 0.01121500
v -0.04454500 0.04395300 0.01442000
v -0.04463800 0.04432400 0.01337600
v 0.04546000 0.04410600 -0.01116500
v 0.04485400 0.04433200 -0.01230300
v 0.04603600 0.04391400 -0.00852900
v -0.04103000 0.04408500 0.02254800
v -0.04229100 0.04398000 0.02005400
v -0.04202600 0.02351000 0.02057000
v -0.04325100 0.04409600 0.01793300
v -0.04389400 0.02406700 0.01620600
v -0.03973200 0.02382500 0.02471400
v -0.03913800 0.04396500 0.02570700
v -0.04454500 0.04395300 0.01442000
v -0.04544700 0.04411000 0.01121500
v -0.04530600 0.02285200 0.01169400
v -0.02918000 0.04411600 0.03661900
v -0.03212200 0.04394900 0.03406600
v -0.03091700 0.02364200 0.03512000
v -0.02734100 0.02406900 0.03797200
v -0.02579300 0.04415100 0.03908100
v -0.03418200 0.02405200 0.03195300
v -0.03366000 0.04414100 0.03251600
v -0.03569000 0.04396800 0.03031000
v -0.03772100 0.04424700 0.02770300
v -0.03713900 0.02354900 0.02846100
v -0.01316000 0.04410600 0.04493200
v -0.01673200 0.04407600 0.04373100
v -0.01533800 0.02406400 0.04420600
v -0.01095700 0.02369600 0.04549000
v -0.01040900 0.04398100 0.04563200
v -0.02055400 0.04393900 0.04207400
v -0.01951400 0.02380600 0.04252800
v -0.02355400 0.02377200 0.04042900
v -0.02309900 0.04398900 0.04071000
v 0.00457000 0.04412300 0.04659300
v 0.00021300 0.04413300 0.04683000
v 0.00254500 0.02399100 0.04672200
v -0.00198200 0.02363800 0.04674800
v 0.00705700 0.02330000 0.04625600
v 0.00710900 0.04398500 0.04626100
v -0.00433300 0.04410900 0.04662100
v -0.00806300 0.04407500 0.04612100
v -0.00651100 0.02405700 0.04633600
v 0.01832300 0.04406600 0.04309400
v 0.01457400 0.04410700 0.04449400
v 0.01621300 0.02379000 0.04389100
v 0.02056500 0.02399800 0.04202800
v 0.02270200 0.04410500 0.04096500
v 0.02472100 0.02376000 0.03972700
v 0.01170600 0.02377700 0.04530200
v 0.01225800 0.04398300 0.04517100
v 0.00968100 0.04410000 0.04580600
v 0.03788500 0.04413700 0.02748500
v 0.03544600 0.04409800 0.03057000
v 0.03659900 0.03563200 0.02916800
v 0.03796300 0.02365500 0.02735100
v 0.03512400 0.02391300 0.03091600
v 0.03310500 0.04405400 0.03311200
v 0.03194300 0.02352500 0.03419000
v 0.02663700 0.04408400 0.03850800
v 0.02847000 0.02412900 0.03713300
v 0.02998200 0.04399700 0.03597300
v 0.04345300 0.04395900 0.01744400
v 0.04230300 0.04398400 0.02002600
v 0.04251400 0.02388800 0.01954300
v 0.04421700 0.02388700 0.01530500
v 0.04490800 0.04407200 0.01327700
v 0.04548600 0.02399500 0.01097500
v 0.04123600 0.04406700 0.02217300
v 0.03934300 0.04396500 0.02539100
v 0.04043600 0.02402000 0.02354400
v 0.04672000 0.02330400 -0.00256700
v 0.04653200 0.04409000 -0.00513400
v 0.04680200 0.04403300 -0.00149600
v 0.04674900 0.02394500 0.00199100
v 0.04678000 0.04408800 0.00133700
v 0.04665500 0.04393300 0.00392100
v 0.04590900 0.04409000 0.00917900
v 0.04633700 0.02332700 0.00651000
v 0.04636900 0.04411400 0.00634400
v -0.04626500 0.02743200 0.00705800
v -0.04626500 0.01103200 0.00705800
v -0.04569000 0.01103200 0.01013200
v -0.04491100 0.01103200 0.01316100
v -0.04606100 0.04394000 0.00840300
v -0.04393200 0.01103200 0.01613200
v -0.04275600 0.01103200 0.01903000
v -0.04139000 0.01103200 0.02184300
v -0.03983800 0.01103200 0.02455900
v -0.03810900 0.01103200 0.02716500
v -0.03621000 0.01103200 0.02965000
v -0.03414800 0.01103200 0.03200200
v -0.03193500 0.01103200 0.03421200
v -0.02957800 0.01103200 0.03626800
v -0.02709000 0.01103200 0.03816300
v -0.02448000 0.01103200 0.03988700
v -0.02176100 0.01103200 0.04143300
v -0.01894500 0.01103200 0.04279400
v -0.01604500 0.01103200 0.04396400
v -0.01307200 0.01103200 0.04493700
v -0.01004200 0.01103200 0.04571000
v -0.00696600 0.01103200 0.04627900
v -0.00386000 0.01103200 0.04664100
v -0.00073600 0.01103200 0.04679400
v 0.00239100 0.01103200 0.04673900
v 0.00550800 0.01103200 0.04647500
v 0.00860000 0.01103200 0.04600300
v 0.01165300 0.01103200 0.04532600
v 0.01465500 0.01103200 0.04444600
v 0.01759100 0.01103200 0.04336800
v 0.02044800 0.01103200 0.04209700
v 0.02321400 0.01103200 0.04063700
v 0.02587600 0.01103200 0.03899500
v 0.02842300 0.01103200 0.03718000
v 0.03084300 0.01103200 0.03519900
v 0.03312500 0.01103200 0.03306000
v 0.03525900 0.01103200 0.03077400
v 0.03723600 0.01103200 0.02835000
v 0.03904700 0.01103200 0.02579900
v 0.04068300 0.01103200 0.02313400
v 0.04213700 0.01103200 0.02036500
v 0.04340300 0.01103200 0.01750500
v 0.04447500 0.01103200 0.01456700
v 0.04602000 0.01103200 0.00850900
v 0.04534900 0.01103200 0.01156400
v 0.04648600 0.01103200 0.00541600
v 0.04674400 0.01103200 0.00229900
v 0.04679300 0.01103200 -0.00082800
v 0.04663300 0.01103200 -0.00395200
v 0.04626500 0.01103200 -0.00705800
v 0.04626500 0.02743200 -0.00705800
v 0.04603600 0.04391400 -0.00852900
v 0.04112900 0.04395200 -0.02237500
v 0.04274700 0.04407100 -0.01910400
v 0.04202700 0.02362100 -0.02056700
v 0.04389400 0.02398100 -0.01620500
v 0.04370600 0.04407600 -0.01674000
v 0.03972800 0.02381900 -0.02472000
v 0.03959700 0.04413800 -0.02495800
v 0.04460700 0.04406900 -0.01421400
v 0.04546000 0.04410600 -0.01116500
v 0.04530600 0.02281000 -0.01169500
v 0.02893500 0.04409900 -0.03681800
v 0.03213300 0.04407900 -0.03405200
v 0.03091200 0.02354400 -0.03512500
v 0.03418300 0.02396800 -0.03195300
v 0.03392300 0.04411200 -0.03224200
v 0.02734300 0.02402000 -0.03797100
v 0.03573100 0.04394700 -0.03026100
v 0.03793400 0.04407500 -0.02743800
v 0.03714100 0.02357200 -0.02845900
v 0.01314900 0.04406500 -0.04493800
v 0.01677000 0.04407200 -0.04371700
v 0.01531200 0.02381100 -0.04421500
v 0.01093700 0.02394800 -0.04549500
v 0.00948700 0.04411400 -0.04584800
v 0.02054100 0.04407800 -0.04207700
v 0.01950800 0.02364400 -0.04253200
v 0.02355000 0.02370900 -0.04043100
v 0.02323200 0.04411400 -0.04063100
v 0.02558700 0.04397200 -0.03921400
v -0.00450800 0.04392400 -0.04660200
v -0.00180400 0.04412000 -0.04676400
v -0.00254200 0.02391100 -0.04672300
v 0.00082900 0.04394900 -0.04681700
v 0.00199000 0.02320500 -0.04674900
v -0.00705900 0.02331700 -0.04625600
v -0.00693500 0.04408100 -0.04628500
v 0.00448900 0.04395500 -0.04660200
v 0.00702800 0.04408400 -0.04627000
v 0.00650000 0.02407400 -0.04633700
v -0.02273300 0.04396600 -0.04093900
v -0.01920100 0.04396500 -0.04270600
v -0.02056700 0.02414900 -0.04202700
v -0.02472700 0.02369300 -0.03972300
v -0.02600300 0.04410100 -0.03893000
v -0.01687500 0.04411600 -0.04365000
v -0.01368300 0.04407100 -0.04478500
v -0.01622300 0.02376800 -0.04388700
v -0.00958100 0.04410000 -0.04582600
v -0.01169800 0.02397700 -0.04530400
v -0.03330200 0.04395100 -0.03291000
v -0.03089900 0.04409900 -0.03517200
v -0.03194900 0.02349700 -0.03418400
v -0.03512400 0.02391500 -0.03091600
v -0.03550600 0.04409200 -0.03050400
v -0.03712300 0.04392600 -0.02853000
v -0.03796400 0.02364600 -0.02735100
v -0.02846900 0.02418500 -0.03713400
v -0.02828600 0.04409000 -0.03729900
v -0.04342000 0.04408800 -0.01752100
v -0.04155300 0.04410700 -0.02159500
v -0.04251500 0.02396500 -0.01954300
v -0.04421800 0.02390100 -0.01530400
v -0.04489900 0.04408800 -0.01331200
v -0.04548600 0.02397700 -0.01097600
v -0.03922500 0.04409900 -0.02556800
v -0.04043600 0.02396000 -0.02354400
v -0.04674900 0.02392900 -0.00199300
v -0.04672000 0.02315100 0.00256500
v -0.04682300 0.04410900 -0.00004200
v -0.04665500 0.04394600 -0.00392100
v -0.04591600 0.04408100 -0.00914600
v -0.04633700 0.02332200 -0.00651000
v -0.04637600 0.04411900 -0.00629400
v 0.04626500 0.02743200 -0.00705800
v 0.04626500 0.01103200 -0.00705800
v 0.04569000 0.01103200 -0.01013200
v 0.04491100 0.01103200 -0.01316100
v 0.04603600 0.04391400 -0.00852900
v 0.04393200 0.01103200 -0.01613200
v 0.04275600 0.01103200 -0.01903000
v 0.04139000 0.01103200 -0.02184300
v 0.03983800 0.01103200 -0.02455900
v 0.03810900 0.01103200 -0.02716500
v 0.03621000 0.01103200 -0.02965000
v 0.03414800 0.01103200 -0.03200200
v 0.03193500 0.01103200 -0.03421200
v 0.02957800 0.01103200 -0.03626800
v 0.02709000 0.01103200 -0.03816300
v 0.02448000 0.01103200 -0.03988700
v 0.02176100 0.01103200 -0.04143300
v 0.01894500 0.01103200 -0.04279400
v 0.01604500 0.01103200 -0.04396400
v 0.01307200 0.01103200 -0.04493700
v 0.01004200 0.01103200 -0.04571000
v 0.00696600 0.01103200 -0.04627900
v 0.00386000 0.01103200 -0.04664100
v 0.00073600 0.01103200 -0.04679400
v -0.00239100 0.01103200 -0.04673900
v -0.00550800 0.01103200 -0.04647500
v -0.00860000 0.01103200 -0.04600300
v -0.01165300 0.01103200 -0.04532600
v -0.01465500 0.01103200 -0.04444600
v -0.01759100 0.01103200 -0.04336800
v -0.02044800 0.01103200 -0.04209700
v -0.02321400 0.01103200 -0.04063700
v -0.02587600 0.01103200 -0.03899500
v -0.02842300 0.01103200 -0.03718000
v -0.03084300 0.01103200 -0.03519900
v -0.03312500 0.01103200 -0.03306000
v -0.03525900 0.01103200 -0.03077400
v -0.03723600 0.01103200 -0.02835000
v -0.03904700 0.01103200 -0.02579900
v -0.04068300 0.01103200 -0.02313400
v -0.04213700 0.01103200 -0.02036500
v -0.04340300 0.01103200 -0.01750500
v -0.04447500 0.01103200 -0.01456700
v -0.04602000 0.01103200 -0.00850900
v -0.04534900 0.01103200 -0.01156400
v -0.04648600 0.01103200 -0.00541600
v -0.04674400 0.01103200 -0.00229900
v -0.04679300 0.01103200 0.00082800
v -0.04663300 0.01103200 0.00395200
v -0.04626500 0.01103200 0.00705800
v -0.04626500 0.02743200 0.00705800
v -0.04663200 0.04409000 0.00426400
v -0.04606100 0.04394000 0.00840300
v -0.04682300 0.04410900 -0.00004200
v -0.04663200 0.04409000 0.00426400
v -0.04629500 0.04433000 0.00449100
v -0.04637600 0.04411900 -0.00629400
v -0.04647300 0.04433100 -0.00146700
v -0.04591600 0.04408100 -0.00914600
v -0.04567300 0.04433100 -0.00876500
v -0.04489900 0.04408800 -0.01331200
v -0.04342000 0.04408800 -0.01752100
v -0.04396600 0.04433100 -0.01511000
v -0.04155300 0.04410700 -0.02159500
v -0.04174700 0.04433100 -0.02047100
v -0.03922500 0.04409900 -0.02556800
v -0.03816900 0.04433200 -0.02657300
v -0.03550600 0.04409200 -0.03050400
v -0.03089900 0.04409900 -0.03517200
v -0.03378000 0.04433100 -0.03194600
v -0.02828600 0.04409000 -0.03729900
v -0.03000500 0.04433200 -0.03549100
v -0.02600300 0.04410100 -0.03893000
v -0.02601700 0.04433100 -0.03852200
v -0.01920100 0.04396500 -0.04270600
v -0.02273300 0.04396600 -0.04093900
v -0.02135700 0.04433000 -0.04139400
v -0.01687500 0.04411600 -0.04365000
v -0.01767000 0.04433200 -0.04298900
v -0.01368300 0.04407100 -0.04478500
v -0.01218600 0.04433200 -0.04486700
v -0.00958100 0.04410000 -0.04582600
v -0.00693500 0.04408100 -0.04628500
v -0.00612700 0.04433200 -0.04608500
v -0.00180400 0.04412000 -0.04676400
v 0.00448900 0.04395500 -0.04660200
v 0.00082900 0.04394900 -0.04681700
v 0.00286100 0.04433100 -0.04648200
v 0.00702800 0.04408400 -0.04627000
v 0.00787900 0.04433200 -0.04581900
v 0.00948700 0.04411400 -0.04584800
v 0.01314900 0.04406500 -0.04493800
v 0.01337300 0.04433200 -0.04450100
v 0.01677000 0.04407200 -0.04371700
v 0.02054100 0.04407800 -0.04207700
v 0.01803100 0.04433200 -0.04285200
v 0.02323200 0.04411400 -0.04063100
v 0.02237000 0.04433200 -0.04072900
v 0.02893500 0.04409900 -0.03681800
v 0.02653800 0.04433200 -0.03816300
v 0.03213300 0.04407900 -0.03405200
v 0.02997700 0.04433200 -0.03551000
v 0.03392300 0.04411200 -0.03224200
v 0.03325500 0.04433200 -0.03246500
v 0.03793400 0.04407500 -0.02743800
v 0.03632800 0.04433200 -0.02899000
v 0.03959700 0.04413800 -0.02495800
v 0.04274700 0.04407100 -0.01910400
v 0.04170900 0.04433200 -0.02047600
v 0.04370600 0.04407600 -0.01674000
v 0.04340200 0.04433200 -0.01664900
v 0.04460700 0.04406900 -0.01421400
v 0.04546000 0.04410600 -0.01116500
v 0.04485400 0.04433200 -0.01230300
v -0.04544700 0.04411000 0.01121500
v -0.04463800 0.04432400 0.01337600
v -0.04606100 0.04394000 0.00840300
v 0.04628900 0.01053200 -0.00269100
v 0.04520200 0.01053200 -0.01002400
v 0.04626500 0.01103200 -0.00705800
v 0.04390800 0.01053200 -0.01476500
v 0.04491100 0.01103200 -0.01316100
v 0.04116700 0.01053200 -0.02130500
v 0.04275600 0.01103200 -0.01903000
v 0.03649700 0.01052600 -0.02860400
v 0.03983800 0.01103200 -0.02455900
v 0.03159300 0.01053200 -0.03384600
v 0.03414800 0.01103200 -0.03200200
v 0.02769400 0.01053000 -0.03713700
v 0.02957800 0.01103200 -0.03626800
v 0.02110300 0.01053200 -0.04129400
v 0.02448000 0.01103200 -0.03988700
v 0.01440000 0.01053200 -0.04402000
v 0.01604500 0.01103200 -0.04396400
v 0.00839600 0.01053200 -0.04558000
v 0.00200300 0.01053200 -0.04628100
v 0.00386000 0.01103200 -0.04664100
v -0.00532100 0.01053300 -0.04605600
v -0.00239100 0.01103200 -0.04673900
v 0.01307200 0.01103200 -0.04493700
v -0.00860000 0.01103200 -0.04600300
v -0.00550800 0.01103200 -0.04647500
v -0.01284400 0.01053200 -0.04452200
v -0.01858700 0.01053300 -0.04243200
v -0.02296600 0.01053200 -0.04020300
v -0.02044800 0.01103200 -0.04209700
v -0.01465500 0.01103200 -0.04444600
v -0.02711100 0.01053300 -0.03756300
v -0.03182800 0.01053200 -0.03367700
v -0.03084300 0.01103200 -0.03519900
v -0.03588200 0.01053200 -0.02928500
v -0.03525900 0.01103200 -0.03077400
v -0.02587600 0.01103200 -0.03899500
v -0.04293900 0.01053200 -0.01731800
v -0.04509800 0.01053200 -0.01077000
v -0.04447500 0.01103200 -0.01456700
v -0.03995000 0.01053200 -0.02353300
v -0.04213700 0.01103200 -0.02036500
v -0.04615600 0.01053200 -0.00383700
v -0.04648600 0.01103200 -0.00541600
v -0.04628900 0.01053100 0.00269100
v -0.04674400 0.01103200 -0.00229900
v -0.03723600 0.01103200 -0.02835000
v -0.03079600 0.04433200 0.03477000
v -0.03079600 0.04433200 0.03477000
v -0.03079600 0.04433200 0.03477000
v -0.03079600 0.04433200 0.03477000
v -0.03079600 0.04433200 0.03477000
v -0.03079600 0.04433200 0.03477000
v -0.03079600 0.04433200 0.03477000
v -0.03079600 0.04433200 0.03477000
v -0.03079600 0.04433200 0.03477000
v -0.03079600 0.04433200 0.03477000
v -0.03079600 0.04433200 0.03477000
v -0.03079600 0.04433200 0.03477000
v -0.03079600 0.04433200 0.03477000
v -0.03079600 0.04433200 0.03477000
v -0.03772100 0.04424700 0.02770300
v -0.03366000 0.04414100 0.03251600
v 0.01333900 0.04433100 0.04457500
v 0.01333900 0.04433100 0.04457500
v 0.00718400 0.04433100 0.04590700
v 0.00718400 0.04433100 0.04590700
v -0.00414900 0.04433100 0.04628900
v 0.00182600 0.04433100 0.04643900
v 0.00182600 0.04433100 0.04643900
v 0.03353600 0.04433100 0.03219200
v 0.02999100 0.04433000 0.03563500
v 0.02999100 0.04433000 0.03563500
v 0.02526100 0.04433200 0.03902100
v 0.02526100 0.04433200 0.03902100
v 0.01961000 0.04433100 0.04215500
v 0.01961000 0.04433100 0.04215500
v -0.02579300 0.04415100 0.03908100
v -0.01972900 0.04431200 0.04220600
v -0.02918000 0.04411600 0.03661900
v -0.00931500 0.04432800 0.04556000
v -0.01453200 0.04432600 0.04415500
v 0.03736800 0.04433100 0.02767000
v 0.04061100 0.04433100 0.02264600
v 0.04061100 0.04433100 0.02264600
v 0.04321500 0.04433100 0.01743200
v 0.04321500 0.04433100 0.01743200
v 0.04488300 0.04433200 0.01203600
v 0.04488300 0.04433200 0.01203600
v 0.04588600 0.04433200 0.00733200
v 0.04639900 0.04433200 0.00245400
v 0.04641400 0.04433200 -0.00353500
v 0.04485400 0.04433200 -0.01230300
v 0.04340200 0.04433200 -0.01664900
v 0.04170900 0.04433200 -0.02047600
v 0.03937200 0.04433200 -0.02472900
v 0.03632800 0.04433200 -0.02899000
v 0.03325500 0.04433200 -0.03246500
v -0.04085900 0.04432500 0.02214200
v -0.04269500 0.04432700 0.01842500
v -0.04269500 0.04432700 0.01842500
v -0.04463800 0.04432400 0.01337600
v -0.04463800 0.04432400 0.01337600
v -0.04629500 0.04433000 0.00449100
v -0.04629500 0.04433000 0.00449100
v -0.04647300 0.04433100 -0.00146700
v -0.04647300 0.04433100 -0.00146700
v -0.04567300 0.04433100 -0.00876500
v -0.04567300 0.04433100 -0.00876500
v -0.04396600 0.04433100 -0.01511000
v -0.04396600 0.04433100 -0.01511000
v -0.04174700 0.04433100 -0.02047100
v -0.03816900 0.04433200 -0.02657300
v -0.03816900 0.04433200 -0.02657300
v -0.03378000 0.04433100 -0.03194600
v -0.03378000 0.04433100 -0.03194600
v -0.03000500 0.04433200 -0.03549100
v -0.03000500 0.04433200 -0.03549100
v 0.01337300 0.04433200 -0.04450100
v 0.00787900 0.04433200 -0.04581900
v 0.00787900 0.04433200 -0.04581900
v 0.01803100 0.04433200 -0.04285200
v 0.00286100 0.04433100 -0.04648200
v 0.00286100 0.04433100 -0.04648200
v 0.02997700 0.04433200 -0.03551000
v 0.02653800 0.04433200 -0.03816300
v 0.02237000 0.04433200 -0.04072900
v -0.01767000 0.04433200 -0.04298900
v -0.01767000 0.04433200 -0.04298900
v -0.02135700 0.04433000 -0.04139400
v -0.02135700 0.04433000 -0.04139400
v -0.02601700 0.04433100 -0.03852200
v -0.02601700 0.04433100 -0.03852200
v -0.00146700 0.04433200 -0.04644800
v -0.00146700 0.04433200 -0.04644800
v -0.00612700 0.04433200 -0.04608500
v -0.01218600 0.04433200 -0.04486700
v 0.04509700 0.01053200 0.01077000
v 0.04509700 0.01053200 0.01077000
v 0.04509700 0.01053200 0.01077000
v 0.04011400 0.01053200 0.02322700
v 0.04011400 0.01053200 0.02322700
v 0.04011400 0.01053200 0.02322700
v 0.02812000 0.01053200 0.03678300
v 0.02812000 0.01053200 0.03678300
v 0.04293900 0.01053200 0.01731800
v 0.03607100 0.01053200 0.02906500
v 0.04116700 0.01053200 -0.02130500
v 0.04116700 0.01053200 -0.02130500
v 0.04390800 0.01053200 -0.01476500
v 0.04390800 0.01053200 -0.01476500
v 0.02110300 0.01053200 -0.04129400
v 0.02110300 0.01053200 -0.04129400
v 0.04520200 0.01053200 -0.01002400
v 0.04628900 0.01053200 -0.00269100
v -0.03239800 0.01053200 0.03311600
v 0.04615600 0.01053200 0.00383700
v 0.00839600 0.01053200 -0.04558000
v 0.02407600 0.01053200 0.03957600
v 0.02407600 0.01053200 0.03957600
v 0.01152900 0.01053200 0.04484200
v 0.01152900 0.01053200 0.04484200
v -0.00200300 0.01053200 0.04628100
v 0.01776700 0.01053400 0.04281600
v 0.00508700 0.01053400 0.04607500
v 0.03184300 0.01053000 0.03366400
v -0.01737900 0.01053200 0.04296600
v -0.00947300 0.01053000 0.04539800
v -0.02330600 0.01053200 0.04003900
v -0.02807000 0.01053200 0.03684000
v 0.03159300 0.01053200 -0.03384600
v 0.03649700 0.01052600 -0.02860400
v 0.02769400 0.01053000 -0.03713700
v 0.01440000 0.01053200 -0.04402000
v 0.00200300 0.01053200 -0.04628100
v -0.04509800 0.01053200 -0.01077000
v -0.00532100 0.01053300 -0.04605600
v -0.01284400 0.01053200 -0.04452200
v -0.03995000 0.01053200 -0.02353300
v -0.03182800 0.01053200 -0.03367700
v -0.02296600 0.01053200 -0.04020300
v -0.02711100 0.01053300 -0.03756300
v -0.01858700 0.01053300 -0.04243200
v -0.04628900 0.01053100 0.00269100
v -0.04628900 0.01053100 0.00269100
v -0.04390200 0.01053200 0.01478200
v -0.04390200 0.01053200 0.01478200
v -0.04520200 0.01053200 0.01002400
v -0.04615600 0.01053200 -0.00383700
v -0.03744700 0.01053200 0.02736100
v -0.04159300 0.01053200 0.02042500
v -0.03588200 0.01053200 -0.02928500
v -0.04293900 0.01053200 -0.01731800
v -0.04569000 0.01103200 0.01013200
v -0.04393200 0.01103200 0.01613200
v -0.04139000 0.01103200 0.02184300
v -0.03810900 0.01103200 0.02716500
v -0.03621000 0.01103200 0.02965000
v -0.03193500 0.01103200 0.03421200
v -0.02448000 0.01103200 0.03988700
v -0.01604500 0.01103200 0.04396400
v -0.01894500 0.01103200 0.04279400
v -0.00696600 0.01103200 0.04627900
v -0.01004200 0.01103200 0.04571000
v -0.00073600 0.01103200 0.04679400
v 0.00550800 0.01103200 0.04647500
v 0.01165300 0.01103200 0.04532600
v 0.01759100 0.01103200 0.04336800
v 0.02321400 0.01103200 0.04063700
v 0.03084300 0.01103200 0.03519900
v 0.03312500 0.01103200 0.03306000
v 0.03723600 0.01103200 0.02835000
v 0.04068300 0.01103200 0.02313400
v 0.04340300 0.01103200 0.01750500
v 0.04534900 0.01103200 0.01156400
v 0.04602000 0.01103200 0.00850900
v 0.04663300 0.01103200 -0.00395200
v 0.04679300 0.01103200 -0.00082800
v 0.04626500 0.01103200 -0.00705800
v 0.04665500 0.04393300 0.00392100
v 0.03934300 0.04396500 0.02539100
v 0.01225800 0.04398300 0.04517100
v 0.00710900 0.04398500 0.04626100
v -0.01040900 0.04398100 0.04563200
v -0.02579300 0.04415100 0.03908100
v -0.03569000 0.04396800 0.03031000
v -0.03772100 0.04424700 0.02770300
v -0.03913800 0.04396500 0.02570700
v -0.04085900 0.04432500 0.02214200
v -0.04229100 0.04398000 0.02005400
v -0.04665500 0.04394600 -0.00392100
v -0.03712300 0.04392600 -0.02853000
v -0.03330200 0.04395100 -0.03291000
v -0.00450800 0.04392400 -0.04660200
v -0.00146700 0.04433200 -0.04644800
v 0.02558700 0.04397200 -0.03921400
v 0.03573100 0.04394700 -0.03026100
v 0.03937200 0.04433200 -0.02472900
v 0.04112900 0.04395200 -0.02237500
v 0.04569000 0.01103200 -0.01013200
v 0.04393200 0.01103200 -0.01613200
v 0.04139000 0.01103200 -0.02184300
v 0.03810900 0.01103200 -0.02716500
v 0.03621000 0.01103200 -0.02965000
v 0.03193500 0.01103200 -0.03421200
v 0.02709000 0.01103200 -0.03816300
v 0.02176100 0.01103200 -0.04143300
v 0.01894500 0.01103200 -0.04279400
v 0.00696600 0.01103200 -0.04627900
v 0.01004200 0.01103200 -0.04571000
v 0.00073600 0.01103200 -0.04679400
v -0.01165300 0.01103200 -0.04532600
v -0.01759100 0.01103200 -0.04336800
v -0.02321400 0.01103200 -0.04063700
v -0.02842300 0.01103200 -0.03718000
v -0.03312500 0.01103200 -0.03306000
v -0.04068300 0.01103200 -0.02313400
v -0.03904700 0.01103200 -0.02579900
v -0.04340300 0.01103200 -0.01750500
v -0.04534900 0.01103200 -0.01156400
v -0.04602000 0.01103200 -0.00850900
v -0.04663300 0.01103200 0.00395200
v -0.04679300 0.01103200 0.00082800
v -0.04626500 0.01103200 0.00705800
vn -0.70850000 -0.70450000 0.04160000
vn -0.69030000 -0.70710000 0.15310000
vn -0.69900000 -0.70710000 0.10660000
vn -0.67030000 -0.70690000 0.22580000
vn -0.67860000 -0.70710000 0.19890000
vn -0.63500000 -0.70680000 0.31180000
vn -0.64600000 -0.70710000 0.28750000
vn -0.49470000 -0.70690000 0.50560000
vn -0.42870000 -0.70700000 0.56250000
vn -0.44690000 -0.70710000 0.54800000
vn -0.57140000 -0.70650000 0.41750000
vn -0.51600000 -0.70710000 0.48350000
vn -0.60190000 -0.70710000 0.37110000
vn -0.35580000 -0.70690000 0.61130000
vn -0.40930000 -0.70710000 0.57660000
vn -0.26530000 -0.70670000 0.65580000
vn -0.14450000 -0.70650000 0.69280000
vn -0.19750000 -0.70710000 0.67900000
vn -0.32880000 -0.70710000 0.62600000
vn -0.03060000 -0.70690000 0.70660000
vn -0.05830000 -0.70710000 0.70470000
vn 0.07760000 -0.70670000 0.70320000
vn 0.03610000 -0.70710000 0.70620000
vn 0.17610000 -0.70710000 0.68480000
vn 0.12990000 -0.70710000 0.69510000
vn 0.27120000 -0.70670000 0.65350000
vn 0.22140000 -0.70710000 0.67160000
vn 0.36760000 -0.70690000 0.60430000
vn 0.30890000 -0.70710000 0.63600000
vn 0.42940000 -0.70710000 0.56170000
vn 0.39100000 -0.70710000 0.58920000
vn 0.48610000 -0.70680000 0.51400000
vn 0.42950000 -0.70710000 0.56180000
vn 0.55070000 -0.70690000 0.44380000
vn 0.53270000 -0.70710000 0.46500000
vn 0.65580000 -0.70710000 0.26450000
vn 0.68830000 -0.70660000 0.16430000
vn 0.67200000 -0.70710000 0.22010000
vn 0.61230000 -0.70670000 0.35450000
vn 0.63670000 -0.70710000 0.30770000
vn 0.70480000 -0.70700000 0.05860000
vn 0.70240000 -0.70710000 0.08180000
vn 0.70620000 -0.70690000 -0.04100000
vn 0.70620000 -0.70710000 0.03470000
vn 0.59000000 -0.70710000 0.38980000
vn 0.92960000 0.36720000 -0.03180000
vn 0.88330000 0.45900000 -0.09570000
vn 0.33410000 0.94220000 -0.02530000
vn 0.88560000 0.46390000 0.02410000
vn 0.84720000 0.51900000 0.11350000
vn 0.27130000 0.96240000 0.01220000
vn 0.87310000 0.45430000 0.17690000
vn 0.27220000 0.96140000 0.04130000
vn 0.86700000 0.42820000 0.25510000
vn 0.27730000 0.95800000 0.07350000
vn 0.90140000 0.23660000 0.36260000
vn 0.41590000 0.89460000 0.16350000
vn 0.86390000 0.29340000 0.40950000
vn 0.79630000 0.42260000 0.43280000
vn 0.26390000 0.95340000 0.14640000
vn 0.67270000 0.56030000 0.48320000
vn 0.66670000 0.47380000 0.57530000
vn 0.23950000 0.95540000 0.17270000
vn 0.64610000 0.41110000 0.64310000
vn 0.21410000 0.95400000 0.20990000
vn 0.60980000 0.30270000 0.73240000
vn 0.28810000 0.89480000 0.34120000
vn 0.51080000 0.44020000 0.73840000
vn 0.14610000 0.96380000 0.22320000
vn 0.42960000 0.46150000 0.77620000
vn 0.35890000 0.42000000 0.83350000
vn 0.12740000 0.95310000 0.27450000
vn 0.27230000 0.49400000 0.82570000
vn 0.18220000 0.46970000 0.86380000
vn 0.09710000 0.95000000 0.29680000
vn 0.08530000 0.51530000 0.85270000
vn 0.04380000 0.95520000 0.29260000
vn 0.00220000 0.49300000 0.87000000
vn 0.00630000 0.96330000 0.26820000
vn -0.08550000 0.49230000 0.86620000
vn -0.02580000 0.95840000 0.28430000
vn -0.16020000 0.42070000 0.89290000
vn -0.06450000 0.94770000 0.31270000
vn -0.24240000 0.48690000 0.83910000
vn -0.32520000 0.42040000 0.84710000
vn -0.09520000 0.95140000 0.29290000
vn -0.47030000 0.30350000 0.82870000
vn -0.42770000 0.21640000 0.87760000
vn -0.19570000 0.87870000 0.43540000
vn -0.59120000 0.56810000 0.57250000
vn -0.59120000 0.56810000 0.57260000
vn -0.54020000 0.50400000 0.67390000
vn -0.18770000 0.95900000 0.21240000
vn -0.66500000 0.24690000 0.70480000
vn -0.80840000 0.48590000 0.33220000
vn -0.78000000 0.45930000 0.42500000
vn -0.29750000 0.94620000 0.12730000
vn -0.86290000 0.46050000 0.20830000
vn -0.92600000 0.22910000 0.30000000
vn -0.46860000 0.87200000 0.14140000
vn 0.67920000 0.71630000 -0.16000000
vn -0.20920000 0.97780000 -0.01200000
vn 0.96140000 0.21330000 -0.17410000
vn -0.87640000 -0.00000000 0.48160000
vn -0.90360000 -0.00000000 0.42850000
vn -0.89820000 0.00000000 0.43960000
vn -0.92370000 -0.00000000 0.38300000
vn -0.93820000 -0.00030000 0.34620000
vn -0.84920000 0.00000000 0.52800000
vn -0.83580000 -0.00000000 0.54900000
vn -0.95140000 -0.00000000 0.30800000
vn -0.97090000 -0.00000000 0.23960000
vn -0.96820000 0.00010000 0.25000000
vn -0.62320000 -0.00000000 0.78210000
vn -0.68600000 -0.00000000 0.72760000
vn -0.66090000 -0.00010000 0.75050000
vn -0.58430000 0.00000000 0.81150000
vn -0.55090000 -0.00000000 0.83460000
vn -0.73050000 0.00010000 0.68290000
vn -0.71920000 -0.00000000 0.69480000
vn -0.76230000 -0.00000000 0.64730000
vn -0.80600000 -0.00000000 0.59190000
vn -0.79370000 -0.00010000 0.60840000
vn -0.28110000 0.00000000 0.95970000
vn -0.35740000 -0.00000000 0.93400000
vn -0.32770000 -0.00030000 0.94480000
vn -0.23400000 0.00010000 0.97220000
vn -0.22240000 -0.00000000 0.97500000
vn -0.43890000 -0.00000000 0.89850000
vn -0.41710000 0.00000000 0.90880000
vn -0.50370000 -0.00020000 0.86390000
vn -0.49350000 -0.00000000 0.86970000
vn 0.09760000 -0.00000000 0.99520000
vn 0.00450000 0.00010000 1.00000000
vn 0.05440000 -0.00000000 0.99850000
vn -0.04240000 -0.00000000 0.99910000
vn 0.15090000 0.00000000 0.98850000
vn 0.15190000 0.00000000 0.98840000
vn -0.09250000 0.00000000 0.99570000
vn -0.17220000 -0.00000000 0.98510000
vn -0.13940000 -0.00000000 0.99020000
vn 0.39130000 0.00000000 0.92030000
vn 0.31130000 0.00000000 0.95030000
vn 0.34650000 0.00020000 0.93810000
vn 0.43940000 -0.00020000 0.89830000
vn 0.48470000 0.00010000 0.87470000
vn 0.52810000 0.00000000 0.84920000
vn 0.25030000 -0.00000000 0.96820000
vn 0.26190000 -0.00000000 0.96510000
vn 0.20680000 -0.00000000 0.97840000
vn 0.80940000 0.00000000 0.58720000
vn 0.75730000 0.00000000 0.65310000
vn 0.78200000 -0.00000000 0.62320000
vn 0.81140000 0.00000000 0.58450000
vn 0.75070000 0.00010000 0.66070000
vn 0.70710000 0.00000000 0.70710000
vn 0.68260000 -0.00010000 0.73080000
vn 0.56890000 -0.00000000 0.82240000
vn 0.60850000 -0.00010000 0.79360000
vn 0.64040000 0.00020000 0.76810000
vn 0.92800000 0.00000000 0.37250000
vn 0.90380000 -0.00000000 0.42790000
vn 0.90860000 -0.00000000 0.41760000
vn 0.94500000 -0.00030000 0.32700000
vn 0.95900000 0.00040000 0.28340000
vn 0.97210000 0.00000000 0.23450000
vn 0.88070000 -0.00000000 0.47360000
vn 0.84020000 -0.00000000 0.54220000
vn 0.86430000 -0.00000000 0.50300000
vn 0.99850000 -0.00000000 -0.05480000
vn 0.99400000 -0.00000000 -0.10970000
vn 0.99950000 -0.00000000 -0.03200000
vn 0.99910000 0.00000000 0.04260000
vn 0.99960000 -0.00000000 0.02850000
vn 0.99650000 -0.00000000 0.08370000
vn 0.98060000 0.00000000 0.19610000
vn 0.99030000 -0.00000000 0.13910000
vn 0.99080000 0.00000000 0.13560000
vn -0.98860000 -0.00000000 0.15080000
vn -0.98860000 -0.00000000 0.15080000
vn -0.97630000 -0.00000000 0.21650000
vn -0.95960000 0.00000000 0.28120000
vn -0.98380000 0.00000000 0.17950000
vn -0.93870000 -0.00000000 0.34470000
vn -0.91360000 0.00000000 0.40660000
vn -0.88440000 -0.00000000 0.46670000
vn -0.85130000 0.00010000 0.52470000
vn -0.81430000 -0.00000000 0.58050000
vn -0.77370000 0.00000000 0.63350000
vn -0.72970000 0.00000000 0.68380000
vn -0.68240000 -0.00000000 0.73100000
vn -0.63170000 -0.00000000 0.77520000
vn -0.57880000 0.00000000 0.81550000
vn -0.52310000 -0.00000000 0.85230000
vn -0.46490000 -0.00020000 0.88540000
vn -0.40480000 0.00000000 0.91440000
vn -0.34290000 0.00010000 0.93940000
vn -0.27940000 -0.00020000 0.96020000
vn -0.21450000 0.00000000 0.97670000
vn -0.14890000 0.00000000 0.98890000
vn -0.08270000 -0.00010000 0.99660000
vn -0.01570000 0.00000000 0.99990000
vn 0.05110000 -0.00000000 0.99870000
vn 0.11770000 -0.00000000 0.99310000
vn 0.18370000 -0.00000000 0.98300000
vn 0.24900000 -0.00000000 0.96850000
vn 0.31300000 0.00010000 0.94980000
vn 0.37590000 0.00000000 0.92660000
vn 0.43690000 0.00010000 0.89950000
vn 0.49590000 0.00000000 0.86840000
vn 0.55300000 0.00000000 0.83320000
vn 0.60730000 -0.00000000 0.79440000
vn 0.65900000 0.00000000 0.75210000
vn 0.70790000 0.00000000 0.70630000
vn 0.75340000 0.00000000 0.65750000
vn 0.79560000 0.00000000 0.60580000
vn 0.83450000 -0.00010000 0.55100000
vn 0.86930000 0.00000000 0.49430000
vn 0.90040000 -0.00000000 0.43510000
vn 0.92740000 -0.00020000 0.37400000
vn 0.95030000 0.00000000 0.31120000
vn 0.98330000 -0.00000000 0.18180000
vn 0.96900000 0.00000000 0.24710000
vn 0.99330000 0.00000000 0.11570000
vn 0.99880000 -0.00000000 0.04910000
vn 0.99980000 -0.00000000 -0.01770000
vn 0.99640000 0.00000000 -0.08440000
vn 0.98860000 0.00000000 -0.15080000
vn 0.98860000 0.00000000 -0.15080000
vn 0.98330000 -0.00000000 -0.18210000
vn 0.87850000 -0.00020000 -0.47770000
vn 0.91290000 -0.00000000 -0.40810000
vn 0.89830000 0.00040000 -0.43950000
vn 0.93810000 0.00000000 -0.34630000
vn 0.93390000 -0.00000000 -0.35760000
vn 0.84900000 -0.00000000 -0.52840000
vn 0.84600000 0.00000000 -0.53320000
vn 0.95280000 -0.00000000 -0.30360000
vn 0.97110000 0.00000000 -0.23850000
vn 0.96820000 0.00010000 -0.25010000
vn 0.61800000 0.00000000 -0.78620000
vn 0.68630000 -0.00000000 -0.72730000
vn 0.66090000 -0.00010000 -0.75050000
vn 0.73050000 -0.00000000 -0.68290000
vn 0.72480000 -0.00000000 -0.68890000
vn 0.58440000 0.00000000 -0.81150000
vn 0.76310000 0.00000000 -0.64630000
vn 0.81030000 -0.00010000 -0.58600000
vn 0.79380000 -0.00000000 -0.60820000
vn 0.28050000 0.00000000 -0.95990000
vn 0.35820000 -0.00000000 -0.93360000
vn 0.32730000 -0.00010000 -0.94490000
vn 0.23360000 -0.00000000 -0.97230000
vn 0.20270000 -0.00000000 -0.97930000
vn 0.43860000 -0.00000000 -0.89870000
vn 0.41680000 -0.00020000 -0.90900000
vn 0.50360000 -0.00020000 -0.86390000
vn 0.49630000 -0.00000000 -0.86810000
vn 0.54650000 -0.00000000 -0.83750000
vn -0.09630000 -0.00000000 -0.99540000
vn -0.03870000 -0.00010000 -0.99930000
vn -0.05440000 -0.00010000 -0.99850000
vn 0.01770000 -0.00000000 -0.99980000
vn 0.04260000 0.00000000 -0.99910000
vn -0.15090000 0.00000000 -0.98850000
vn -0.14820000 0.00000000 -0.98900000
vn 0.09590000 -0.00000000 -0.99540000
vn 0.15020000 -0.00010000 -0.98870000
vn 0.13880000 -0.00000000 -0.99030000
vn -0.48550000 -0.00000000 -0.87420000
vn -0.41010000 0.00000000 -0.91210000
vn -0.43950000 0.00000000 -0.89820000
vn -0.52840000 -0.00000000 -0.84900000
vn -0.55540000 -0.00000000 -0.83160000
vn -0.36060000 -0.00000000 -0.93270000
vn -0.29200000 0.00000000 -0.95640000
vn -0.34680000 0.00010000 -0.93800000
vn -0.20460000 -0.00000000 -0.97880000
vn -0.25000000 -0.00000000 -0.96820000
vn -0.71140000 -0.00000000 -0.70280000
vn -0.66000000 0.00000000 -0.75130000
vn -0.68280000 -0.00000000 -0.73060000
vn -0.75070000 -0.00010000 -0.66060000
vn -0.75850000 -0.00000000 -0.65170000
vn -0.79290000 -0.00000000 -0.60930000
vn -0.81130000 0.00030000 -0.58470000
vn -0.60840000 -0.00010000 -0.79360000
vn -0.60430000 -0.00000000 -0.79680000
vn -0.92730000 0.00010000 -0.37430000
vn -0.88730000 0.00000000 -0.46120000
vn -0.90860000 -0.00020000 -0.41760000
vn -0.94500000 0.00020000 -0.32710000
vn -0.95870000 0.00000000 -0.28430000
vn -0.97210000 0.00010000 -0.23450000
vn -0.83780000 0.00000000 -0.54600000
vn -0.86410000 -0.00030000 -0.50330000
vn -0.99910000 -0.00000000 -0.04260000
vn -0.99850000 -0.00000000 0.05480000
vn -1.00000000 -0.00000000 -0.00090000
vn -0.99650000 -0.00000000 -0.08370000
vn -0.98070000 -0.00000000 -0.19540000
vn -0.99030000 0.00010000 -0.13910000
vn -0.99090000 0.00000000 -0.13450000
vn 0.98860000 0.00000000 -0.15080000
vn 0.98860000 0.00000000 -0.15080000
vn 0.97630000 0.00000000 -0.21650000
vn 0.95960000 0.00000000 -0.28120000
vn 0.98330000 0.00000000 -0.18220000
vn 0.93870000 -0.00000000 -0.34470000
vn 0.91360000 -0.00000000 -0.40660000
vn 0.88440000 -0.00000000 -0.46670000
vn 0.85130000 0.00000000 -0.52480000
vn 0.81430000 0.00000000 -0.58040000
vn 0.77350000 0.00010000 -0.63380000
vn 0.72960000 0.00000000 -0.68380000
vn 0.68240000 0.00000000 -0.73100000
vn 0.63170000 -0.00010000 -0.77520000
vn 0.57880000 0.00000000 -0.81550000
vn 0.52310000 0.00000000 -0.85230000
vn 0.46490000 -0.00020000 -0.88540000
vn 0.40480000 -0.00000000 -0.91440000
vn 0.34290000 0.00010000 -0.93940000
vn 0.27940000 -0.00030000 -0.96020000
vn 0.21450000 0.00000000 -0.97670000
vn 0.14890000 -0.00000000 -0.98890000
vn 0.08250000 0.00000000 -0.99660000
vn 0.01570000 0.00000000 -0.99990000
vn -0.05110000 0.00000000 -0.99870000
vn -0.11770000 -0.00000000 -0.99300000
vn -0.18380000 0.00000000 -0.98300000
vn -0.24900000 -0.00000000 -0.96850000
vn -0.31300000 0.00010000 -0.94980000
vn -0.37590000 0.00000000 -0.92660000
vn -0.43690000 0.00020000 -0.89950000
vn -0.49600000 0.00000000 -0.86830000
vn -0.55290000 0.00000000 -0.83320000
vn -0.60730000 -0.00000000 -0.79440000
vn -0.65910000 -0.00000000 -0.75210000
vn -0.70790000 0.00000000 -0.70630000
vn -0.75340000 0.00000000 -0.65750000
vn -0.79560000 0.00000000 -0.60580000
vn -0.83450000 -0.00010000 -0.55100000
vn -0.86930000 -0.00000000 -0.49430000
vn -0.90040000 -0.00000000 -0.43510000
vn -0.92740000 -0.00020000 -0.37400000
vn -0.95030000 0.00000000 -0.31120000
vn -0.98340000 0.00010000 -0.18170000
vn -0.96900000 0.00000000 -0.24710000
vn -0.99330000 0.00000000 -0.11570000
vn -0.99880000 -0.00000000 -0.04910000
vn -0.99980000 -0.00000000 0.01770000
vn -0.99640000 0.00000000 0.08450000
vn -0.98860000 -0.00000000 0.15080000
vn -0.98860000 -0.00000000 0.15080000
vn -0.99580000 -0.00000000 0.09100000
vn -0.98380000 0.00000000 0.17940000
vn -0.86750000 0.49750000 0.00130000
vn -0.89180000 0.44470000 0.08270000
vn -0.33750000 0.94080000 0.03160000
vn -0.84360000 0.52550000 -0.11040000
vn -0.28830000 0.95750000 -0.00600000
vn -0.88170000 0.43750000 -0.17650000
vn -0.27440000 0.96030000 -0.04980000
vn -0.86450000 0.43400000 -0.25370000
vn -0.83110000 0.44390000 -0.33510000
vn -0.28660000 0.95280000 -0.10000000
vn -0.76910000 0.49150000 -0.40860000
vn -0.26610000 0.95500000 -0.13080000
vn -0.73530000 0.47370000 -0.48470000
vn -0.21750000 0.96490000 -0.14750000
vn -0.66410000 0.48090000 -0.57250000
vn -0.57400000 0.50130000 -0.64750000
vn -0.22930000 0.94980000 -0.21280000
vn -0.53980000 0.45300000 -0.70950000
vn -0.18980000 0.95560000 -0.22530000
vn -0.47680000 0.49860000 -0.72400000
vn -0.16050000 0.95600000 -0.24550000
vn -0.39740000 0.26990000 -0.87710000
vn -0.47200000 0.24560000 -0.84670000
vn -0.20420000 0.89680000 -0.39250000
vn -0.30870000 0.51490000 -0.79980000
vn -0.10920000 0.95590000 -0.27250000
vn -0.26490000 0.40590000 -0.87470000
vn -0.06940000 0.96040000 -0.26980000
vn -0.18190000 0.47880000 -0.85890000
vn -0.13160000 0.45370000 -0.88140000
vn -0.03890000 0.95260000 -0.30170000
vn -0.03230000 0.52930000 -0.84780000
vn 0.09150000 0.24330000 -0.96560000
vn 0.01780000 0.22400000 -0.97440000
vn 0.02430000 0.89670000 -0.44210000
vn 0.13650000 0.44990000 -0.88260000
vn 0.05050000 0.95920000 -0.27820000
vn 0.18160000 0.49750000 -0.84830000
vn 0.25560000 0.41730000 -0.87210000
vn 0.07620000 0.96130000 -0.26480000
vn 0.32370000 0.41900000 -0.84830000
vn 0.39500000 0.44130000 -0.80570000
vn 0.11540000 0.95230000 -0.28240000
vn 0.43000000 0.50930000 -0.74550000
vn 0.13890000 0.95700000 -0.25470000
vn 0.54370000 0.47390000 -0.69260000
vn 0.16110000 0.95900000 -0.23320000
vn 0.61490000 0.44150000 -0.65340000
vn 0.20050000 0.95010000 -0.23900000
vn 0.62520000 0.51120000 -0.58980000
vn 0.21010000 0.95680000 -0.20110000
vn 0.70970000 0.47780000 -0.51770000
vn 0.23420000 0.95420000 -0.18610000
vn 0.69300000 0.57290000 -0.43760000
vn 0.81960000 0.43930000 -0.36770000
vn 0.26520000 0.95580000 -0.12710000
vn 0.83640000 0.44380000 -0.32180000
vn 0.28030000 0.95390000 -0.10750000
vn 0.85690000 0.43770000 -0.27220000
vn 0.86450000 0.45370000 -0.21640000
vn 0.35500000 0.92930000 -0.10210000
vn -0.67020000 0.72480000 0.15960000
vn 0.26250000 0.96490000 0.00290000
vn -0.95120000 0.25750000 0.17000000
vn 0.70850000 -0.70450000 -0.04160000
vn 0.69030000 -0.70710000 -0.15310000
vn 0.69900000 -0.70710000 -0.10660000
vn 0.67040000 -0.70690000 -0.22540000
vn 0.67860000 -0.70710000 -0.19880000
vn 0.62840000 -0.70670000 -0.32510000
vn 0.64600000 -0.70710000 -0.28750000
vn 0.55700000 -0.70650000 -0.43660000
vn 0.60190000 -0.70710000 -0.37110000
vn 0.48250000 -0.70710000 -0.51690000
vn 0.51600000 -0.70710000 -0.48350000
vn 0.42290000 -0.70690000 -0.56700000
vn 0.44690000 -0.70710000 -0.54800000
vn 0.32200000 -0.70660000 -0.63020000
vn 0.36990000 -0.70710000 -0.60260000
vn 0.21980000 -0.70700000 -0.67220000
vn 0.24240000 -0.70710000 -0.66420000
vn 0.12810000 -0.70670000 -0.69580000
vn 0.03060000 -0.70690000 -0.70660000
vn 0.05830000 -0.70710000 -0.70470000
vn -0.08120000 -0.70670000 -0.70290000
vn -0.03610000 -0.70710000 -0.70620000
vn 0.19750000 -0.70710000 -0.67900000
vn -0.12990000 -0.70710000 -0.69510000
vn -0.08320000 -0.70710000 -0.70220000
vn -0.19610000 -0.70680000 -0.67970000
vn -0.28380000 -0.70690000 -0.64790000
vn -0.35070000 -0.70710000 -0.61400000
vn -0.30900000 -0.70710000 -0.63600000
vn -0.22140000 -0.70710000 -0.67150000
vn -0.41390000 -0.70690000 -0.57350000
vn -0.48590000 -0.70680000 -0.51410000
vn -0.46600000 -0.70710000 -0.53180000
vn -0.54790000 -0.70700000 -0.44720000
vn -0.53270000 -0.70710000 -0.46500000
vn -0.39100000 -0.70710000 -0.58920000
vn -0.65580000 -0.70710000 -0.26450000
vn -0.68830000 -0.70660000 -0.16430000
vn -0.67200000 -0.70710000 -0.22010000
vn -0.60970000 -0.70660000 -0.35920000
vn -0.63670000 -0.70710000 -0.30770000
vn -0.70480000 -0.70700000 -0.05860000
vn -0.70240000 -0.70710000 -0.08180000
vn -0.70610000 -0.70690000 0.04100000
vn -0.70620000 -0.70710000 -0.03470000
vn -0.56260000 -0.70710000 -0.42830000
vn 0.00020000 1.00000000 0.00000000
vn -0.00030000 1.00000000 -0.00010000
vn -0.00010000 1.00000000 -0.00010000
vn 0.00010000 1.00000000 -0.00000000
vn -0.00010000 1.00000000 0.00000000
vn -0.00030000 1.00000000 0.00010000
vn 0.00010000 1.00000000 0.00020000
vn -0.00000000 1.00000000 0.00020000
vn -0.00000000 1.00000000 -0.00020000
vn 0.00020000 1.00000000 0.00010000
vn -0.00000000 1.00000000 0.00010000
vn 0.00000000 1.00000000 -0.00010000
vn 0.00010000 1.00000000 -0.00010000
vn 0.00000000 1.00000000 0.00000000
vn 0.00000000 1.00000000 0.00000000
vn 0.00000000 1.00000000 0.00000000
vn -0.00000000 1.00000000 0.00010000
vn -0.00000000 1.00000000 -0.00020000
vn -0.00000000 1.00000000 0.00010000
vn 0.00010000 1.00000000 -0.00010000
vn 0.00000000 1.00000000 0.00000000
vn 0.00000000 1.00000000 0.00000000
vn 0.00010000 1.00000000 -0.00010000
vn 0.00000000 1.00000000 0.00000000
vn 0.00000000 1.00000000 0.00000000
vn 0.00000000 1.00000000 -0.00010000
vn 0.00000000 1.00000000 -0.00010000
vn -0.00000000 1.00000000 0.00020000
vn -0.00000000 1.00000000 -0.00020000
vn -0.00000000 1.00000000 0.00020000
vn 0.00000000 1.00000000 0.00000000
vn 0.00000000 1.00000000 0.00000000
vn 0.00000000 1.00000000 0.00000000
vn 0.00000000 1.00000000 0.00000000
vn 0.00000000 1.00000000 0.00000000
vn 0.00000000 1.00000000 0.00000000
vn -0.00000000 1.00000000 -0.00020000
vn 0.00000000 1.00000000 0.00000000
vn 0.00010000 1.00000000 0.00020000
vn -0.00000000 1.00000000 -0.00020000
vn 0.00000000 1.00000000 0.00000000
vn 0.00010000 1.00000000 0.00020000
vn 0.00000000 1.00000000 0.00000000
vn 0.00000000 1.00000000 0.00000000
vn 0.00000000 1.00000000 0.00000000
vn 0.00000000 1.00000000 0.00000000
vn 0.00000000 1.00000000 0.00000000
vn 0.00000000 1.00000000 0.00000000
vn 0.00000000 1.00000000 0.00000000
vn 0.00000000 1.00000000 0.00000000
vn 0.00000000 1.00000000 0.00000000
vn 0.00000000 1.00000000 0.00000000
vn -0.00000000 1.00000000 0.00010000
vn 0.00000000 1.00000000 0.00000000
vn -0.00000000 1.00000000 0.00010000
vn 0.00000000 1.00000000 0.00000000
vn -0.00030000 1.00000000 0.00010000
vn 0.00000000 1.00000000 0.00000000
vn -0.00010000 1.00000000 0.00000000
vn -0.00030000 1.00000000 0.00010000
vn 0.00000000 1.00000000 0.00000000
vn -0.00010000 1.00000000 0.00000000
vn 0.00000000 1.00000000 0.00000000
vn -0.00010000 1.00000000 0.00000000
vn -0.00010000 1.00000000 0.00000000
vn -0.00010000 1.00000000 0.00000000
vn 0.00010000 1.00000000 -0.00000000
vn -0.00010000 1.00000000 0.00000000
vn 0.00010000 1.00000000 -0.00000000
vn 0.00000000 1.00000000 0.00000000
vn -0.00010000 1.00000000 0.00000000
vn 0.00000000 1.00000000 0.00000000
vn -0.00010000 1.00000000 -0.00010000
vn 0.00000000 1.00000000 0.00000000
vn 0.00000000 1.00000000 0.00000000
vn 0.00020000 1.00000000 0.00010000
vn -0.00010000 1.00000000 -0.00010000
vn 0.00000000 1.00000000 0.00000000
vn 0.00000000 1.00000000 0.00000000
vn 0.00000000 1.00000000 0.00000000
vn 0.00000000 1.00000000 0.00000000
vn -0.00030000 1.00000000 -0.00010000
vn -0.00030000 1.00000000 -0.00010000
vn 0.00020000 1.00000000 0.00000000
vn 0.00020000 1.00000000 0.00000000
vn 0.00000000 1.00000000 0.00000000
vn 0.00000000 1.00000000 0.00000000
vn 0.00020000 1.00000000 0.00010000
vn 0.00000000 1.00000000 0.00000000
vn 0.00000000 1.00000000 0.00000000
vn 0.00010000 -1.00000000 0.00010000
vn 0.00010000 -1.00000000 0.00000000
vn -0.00000000 -1.00000000 -0.00000000
vn 0.00010000 -1.00000000 0.00010000
vn 0.00010000 -1.00000000 0.00000000
vn -0.00000000 -1.00000000 -0.00000000
vn 0.00010000 -1.00000000 0.00010000
vn -0.00000000 -1.00000000 -0.00000000
vn 0.00010000 -1.00000000 0.00000000
vn -0.00000000 -1.00000000 -0.00000000
vn 0.00010000 -1.00000000 -0.00010000
vn -0.00000000 -1.00000000 -0.00000000
vn -0.00000000 -1.00000000 -0.00000000
vn 0.00010000 -1.00000000 -0.00010000
vn -0.00000000 -1.00000000 -0.00000000
vn 0.00010000 -1.00000000 -0.00010000
vn -0.00000000 -1.00000000 -0.00000000
vn -0.00000000 -1.00000000 -0.00000000
vn -0.00000000 -1.00000000 -0.00000000
vn -0.00000000 -1.00000000 -0.00000000
vn -0.00000000 -1.00000000 -0.00000000
vn -0.00000000 -1.00000000 -0.00000000
vn 0.00010000 -1.00000000 0.00010000
vn -0.00000000 -1.00000000 -0.00000000
vn 0.00010000 -1.00000000 0.00010000
vn -0.00000000 -1.00000000 -0.00000000
vn -0.00000000 -1.00000000 -0.00000000
vn -0.00000000 -1.00000000 -0.00000000
vn -0.00000000 -1.00000000 -0.00000000
vn -0.00000000 -1.00000000 -0.00000000
vn -0.00000000 -1.00000000 -0.00000000
vn -0.00000000 -1.00000000 -0.00000000
vn -0.00000000 -1.00000000 -0.00000000
vn -0.00000000 -1.00000000 -0.00000000
vn -0.00000000 -1.00000000 -0.00000000
vn -0.00000000 -1.00000000 -0.00000000
vn -0.00000000 -1.00000000 -0.00000000
vn -0.00000000 -1.00000000 -0.00000000
vn -0.00000000 -1.00000000 -0.00000000
vn -0.00000000 -1.00000000 -0.00000000
vn -0.00000000 -1.00000000 -0.00000000
vn -0.00000000 -1.00000000 -0.00000000
vn -0.00000000 -1.00000000 -0.00000000
vn -0.00000000 -1.00000000 -0.00000000
vn -0.00000000 -1.00000000 -0.00000000
vn -0.00000000 -1.00000000 -0.00000000
vn -0.00010000 -1.00000000 0.00000000
vn -0.00000000 -1.00000000 -0.00000000
vn -0.00010000 -1.00000000 0.00000000
vn -0.00000000 -1.00000000 -0.00000000
vn -0.00010000 -1.00000000 0.00000000
vn -0.00000000 -1.00000000 -0.00000000
vn -0.00000000 -1.00000000 -0.00000000
vn -0.00000000 -1.00000000 -0.00000000
vn -0.00000000 -1.00000000 -0.00000000
vn -0.00000000 -1.00000000 -0.00000000
vn -0.69030000 -0.70710000 0.15310000
vn -0.66380000 -0.70710000 0.24370000
vn -0.62540000 -0.70710000 0.33000000
vn -0.57580000 -0.70710000 0.41040000
vn -0.54710000 -0.70710000 0.44800000
vn -0.48250000 -0.70710000 0.51690000
vn -0.36990000 -0.70710000 0.60270000
vn -0.24240000 -0.70710000 0.66420000
vn -0.28630000 -0.70710000 0.64660000
vn -0.10530000 -0.70710000 0.69920000
vn -0.15170000 -0.70710000 0.69070000
vn -0.01110000 -0.70710000 0.70700000
vn 0.08320000 -0.70710000 0.70220000
vn 0.17610000 -0.70710000 0.68480000
vn 0.26580000 -0.70710000 0.65520000
vn 0.35070000 -0.70710000 0.61400000
vn 0.46600000 -0.70710000 0.53180000
vn 0.50050000 -0.70710000 0.49950000
vn 0.56260000 -0.70710000 0.42840000
vn 0.61470000 -0.70710000 0.34950000
vn 0.65580000 -0.70710000 0.26450000
vn 0.68520000 -0.70710000 0.17470000
vn 0.69530000 -0.70710000 0.12860000
vn 0.70460000 -0.70710000 -0.05970000
vn 0.70700000 -0.70710000 -0.01250000
vn 0.69900000 -0.70710000 -0.10660000
vn 0.97820000 0.19010000 0.08300000
vn 0.81570000 0.24440000 0.52430000
vn 0.25060000 0.29190000 0.92300000
vn 0.14510000 0.29510000 0.94440000
vn -0.21300000 0.28730000 0.93390000
vn -0.46290000 0.54120000 0.70210000
vn -0.73640000 0.25870000 0.62510000
vn -0.56590000 0.71480000 0.41080000
vn -0.80970000 0.24970000 0.53110000
vn -0.27620000 0.94930000 0.15010000
vn -0.86590000 0.28560000 0.41070000
vn -0.97360000 0.21340000 -0.08170000
vn -0.77540000 0.22110000 -0.59150000
vn -0.69100000 0.24070000 -0.68160000
vn -0.09410000 0.19620000 -0.97600000
vn -0.00740000 0.95420000 -0.29910000
vn 0.52790000 0.26560000 -0.80670000
vn 0.74520000 0.21200000 -0.63220000
vn 0.26040000 0.95110000 -0.16620000
vn 0.85530000 0.22890000 -0.46480000
vn 0.69030000 -0.70710000 -0.15310000
vn 0.66380000 -0.70710000 -0.24370000
vn 0.62540000 -0.70710000 -0.33000000
vn 0.57580000 -0.70710000 -0.41040000
vn 0.54710000 -0.70710000 -0.44800000
vn 0.48250000 -0.70710000 -0.51690000
vn 0.40930000 -0.70710000 -0.57660000
vn 0.32880000 -0.70710000 -0.62600000
vn 0.28620000 -0.70710000 -0.64660000
vn 0.10520000 -0.70710000 -0.69920000
vn 0.15170000 -0.70710000 -0.69070000
vn 0.01110000 -0.70710000 -0.70700000
vn -0.17610000 -0.70710000 -0.68480000
vn -0.26580000 -0.70710000 -0.65530000
vn -0.35070000 -0.70710000 -0.61400000
vn -0.42950000 -0.70710000 -0.56170000
vn -0.50050000 -0.70710000 -0.49950000
vn -0.61470000 -0.70710000 -0.34950000
vn -0.59000000 -0.70710000 -0.38980000
vn -0.65580000 -0.70710000 -0.26450000
vn -0.68520000 -0.70710000 -0.17470000
vn -0.69530000 -0.70710000 -0.12860000
vn -0.70460000 -0.70710000 0.05970000
vn -0.70700000 -0.70710000 0.01250000
vn -0.69900000 -0.70710000 0.10660000
vt 0.42795400 0.99392600
vt 0.44990600 0.99527800
vt 0.44074400 1.00000000
vt 0.46452400 0.99527900
vt 0.45906800 1.00000000
vt 0.48256000 0.99527600
vt 0.47739200 1.00000000
vt 0.52914600 0.99527700
vt 0.54604500 0.99527900
vt 0.54152500 1.00000000
vt 0.50649000 0.99527600
vt 0.52320100 1.00000000
vt 0.49571600 1.00000000
vt 0.56305200 0.99527600
vt 0.55068700 1.00000000
vt 0.58260900 0.99527000
vt 0.60711900 0.99525500
vt 0.59649700 1.00000000
vt 0.56901100 1.00000000
vt 0.62936800 0.99528000
vt 0.62398200 1.00000000
vt 0.65036100 0.99530800
vt 0.64230600 1.00000000
vt 0.66979200 0.99527800
vt 0.66063000 1.00000000
vt 0.68922300 0.99530900
vt 0.67895400 1.00000000
vt 0.71021600 0.99528100
vt 0.69727800 1.00000000
vt 0.72476300 0.99527800
vt 0.71560200 1.00000000
vt 0.73913300 0.99526000
vt 0.72476300 1.00000000
vt 0.75763500 0.99528200
vt 0.75224900 1.00000000
vt 0.79805900 0.99527800
vt 0.81848700 0.99527900
vt 0.80722100 1.00000000
vt 0.77866600 0.99529100
vt 0.78889700 1.00000000
vt 0.83922600 0.99527900
vt 0.83470600 1.00000000
vt 0.85855600 0.99546000
vt 0.84386800 1.00000000
vt 0.77057300 1.00000000
vt 0.24016200 0.57786600
vt 0.23055100 0.57750900
vt 0.23473200 0.57495500
vt 0.24762400 0.57749000
vt 0.26086800 0.57727400
vt 0.25061600 0.57470000
vt 0.26842500 0.57754700
vt 0.26363800 0.57471900
vt 0.27953600 0.57761700
vt 0.27640000 0.57476200
vt 0.29116100 0.57826600
vt 0.29137200 0.57528300
vt 0.29860400 0.57805800
vt 0.30491200 0.57764700
vt 0.30681000 0.57481500
vt 0.32148000 0.57708700
vt 0.33183300 0.57745600
vt 0.32267900 0.57478700
vt 0.34093500 0.57766900
vt 0.33839700 0.57480700
vt 0.35208800 0.57803600
vt 0.35149800 0.57529000
vt 0.36314200 0.57759100
vt 0.36691700 0.57468700
vt 0.37535600 0.57751800
vt 0.38818700 0.57765000
vt 0.38406500 0.57481600
vt 0.39872300 0.57737100
vt 0.41206500 0.57747800
vt 0.40190700 0.57485400
vt 0.42569000 0.57728600
vt 0.41860400 0.57479400
vt 0.43717600 0.57737600
vt 0.43289100 0.57468700
vt 0.44915800 0.57738400
vt 0.44876200 0.57475600
vt 0.45907100 0.57764900
vt 0.46260300 0.57487500
vt 0.47286900 0.57740400
vt 0.48278700 0.57767600
vt 0.47693700 0.57483400
vt 0.50136500 0.57802200
vt 0.49376000 0.57835300
vt 0.49165600 0.57542700
vt 0.53669600 0.57704000
vt 0.53669600 0.57704000
vt 0.52067800 0.57730100
vt 0.52709800 0.57474700
vt 0.53094000 0.57821700
vt 0.58292400 0.57739200
vt 0.56943100 0.57751400
vt 0.58115800 0.57489100
vt 0.60155400 0.57745500
vt 0.59278700 0.57830500
vt 0.59549500 0.57545900
vt 0.21437900 0.57635200
vt 0.21113600 0.57290700
vt 0.22151300 0.57832000
vt 0.46492100 0.80067200
vt 0.45748000 0.79997300
vt 0.45902400 0.66328700
vt 0.45128300 0.80074600
vt 0.44637700 0.66700900
vt 0.47164400 0.66538800
vt 0.47472300 0.79987300
vt 0.44131800 0.79978900
vt 0.43245500 0.80083600
vt 0.43378400 0.65889100
vt 0.51420300 0.80087600
vt 0.50383300 0.79976100
vt 0.50809300 0.66416900
vt 0.52027800 0.66702200
vt 0.52534700 0.80111200
vt 0.49597400 0.66691000
vt 0.49801700 0.80104300
vt 0.49003700 0.79989200
vt 0.48123900 0.80175100
vt 0.48378500 0.66355100
vt 0.56253600 0.80081200
vt 0.55250600 0.80061200
vt 0.55642200 0.66698600
vt 0.56858500 0.66453200
vt 0.57009400 0.79997700
vt 0.54141600 0.79969600
vt 0.54443300 0.66526300
vt 0.53230600 0.66503600
vt 0.53372800 0.80003300
vt 0.61022200 0.80092800
vt 0.59860600 0.80099300
vt 0.60482000 0.66650200
vt 0.59275800 0.66414300
vt 0.61690400 0.66188600
vt 0.61703700 0.80000300
vt 0.58648900 0.80083200
vt 0.57647200 0.80060500
vt 0.58064300 0.66694300
vt 0.64813300 0.80054800
vt 0.63748200 0.80082000
vt 0.64212900 0.66515500
vt 0.65474300 0.66654600
vt 0.66109500 0.80080700
vt 0.66739900 0.66495400
vt 0.62954600 0.66507400
vt 0.63105800 0.79999200
vt 0.62399200 0.80076900
vt 0.71556400 0.80102200
vt 0.70509000 0.80075600
vt 0.70992400 0.74422800
vt 0.71597500 0.66425700
vt 0.70383400 0.66597900
vt 0.69589200 0.80046500
vt 0.69167300 0.66339100
vt 0.67344400 0.80066600
vt 0.67954400 0.66742300
vt 0.68461700 0.80008600
vt 0.74620100 0.79983100
vt 0.73867700 0.79999700
vt 0.74008000 0.66581300
vt 0.75224800 0.66580500
vt 0.75795100 0.80058300
vt 0.76426900 0.66653000
vt 0.73229400 0.80054900
vt 0.72235600 0.79987000
vt 0.72807000 0.66669600
vt 0.80061000 0.66191200
vt 0.80746400 0.80070200
vt 0.79775200 0.80032600
vt 0.78846600 0.66619000
vt 0.79021000 0.80069000
vt 0.78332300 0.79965400
vt 0.76918000 0.80070800
vt 0.77637700 0.66206700
vt 0.77682700 0.80086900
vt 0.42117000 0.68947500
vt 0.42117000 0.57996800
vt 0.42949900 0.57996800
vt 0.43782800 0.57996800
vt 0.42479000 0.79970500
vt 0.44615700 0.57996800
vt 0.45448600 0.57996800
vt 0.46281500 0.57996800
vt 0.47114400 0.57996800
vt 0.47947300 0.57996800
vt 0.48780200 0.57996800
vt 0.49613100 0.57996800
vt 0.50446000 0.57996800
vt 0.51278900 0.57996800
vt 0.52111800 0.57996800
vt 0.52944700 0.57996800
vt 0.53777600 0.57996800
vt 0.54610500 0.57996800
vt 0.55443400 0.57996800
vt 0.56276300 0.57996800
vt 0.57109200 0.57996800
vt 0.57942100 0.57996800
vt 0.58775000 0.57996800
vt 0.59607900 0.57996800
vt 0.60440800 0.57996800
vt 0.61273700 0.57996800
vt 0.62106600 0.57996800
vt 0.62939500 0.57996800
vt 0.63772400 0.57996800
vt 0.64605300 0.57996800
vt 0.65438200 0.57996800
vt 0.66271100 0.57996800
vt 0.67104000 0.57996800
vt 0.67936900 0.57996800
vt 0.68769800 0.57996800
vt 0.69602700 0.57996800
vt 0.70435600 0.57996800
vt 0.71268500 0.57996800
vt 0.72101400 0.57996800
vt 0.72934300 0.57996800
vt 0.73767200 0.57996800
vt 0.74600100 0.57996800
vt 0.75433000 0.57996800
vt 0.77098800 0.57996800
vt 0.76265900 0.57996800
vt 0.77931700 0.57996800
vt 0.78764600 0.57996800
vt 0.79597500 0.57996800
vt 0.80430400 0.57996800
vt 0.81263300 0.57996800
vt 0.81263300 0.68947500
vt 0.81659600 0.79953300
vt 0.46439000 0.79978500
vt 0.45467800 0.80057900
vt 0.45901700 0.66402700
vt 0.44637500 0.66643200
vt 0.44788600 0.80060900
vt 0.47166400 0.66535200
vt 0.47238500 0.80102800
vt 0.44074400 0.80056500
vt 0.43231700 0.80081100
vt 0.43378600 0.65861300
vt 0.51504000 0.80076700
vt 0.50378500 0.80063300
vt 0.50811100 0.66351800
vt 0.49597300 0.66634700
vt 0.49700800 0.80085500
vt 0.52027300 0.66669500
vt 0.48986700 0.79974800
vt 0.48033500 0.80060400
vt 0.48377600 0.66370100
vt 0.56256800 0.80054000
vt 0.55239700 0.80058300
vt 0.55649600 0.66529800
vt 0.56864000 0.66621200
vt 0.57261400 0.80086500
vt 0.54145100 0.80062300
vt 0.54445300 0.66418000
vt 0.53231600 0.66461700
vt 0.53331700 0.80086400
vt 0.52600100 0.79991400
vt 0.61005600 0.79959600
vt 0.60284400 0.80090600
vt 0.60481000 0.66596800
vt 0.59583000 0.79976600
vt 0.59273600 0.66124900
vt 0.61690900 0.66200200
vt 0.61657000 0.80064500
vt 0.58607200 0.79980400
vt 0.57925500 0.80066400
vt 0.58067300 0.66705700
vt 0.66120200 0.79988000
vt 0.65068900 0.79986900
vt 0.65474700 0.66755300
vt 0.66741600 0.66450800
vt 0.67141600 0.80077900
vt 0.64400600 0.80087900
vt 0.63498500 0.80057700
vt 0.64215800 0.66501400
vt 0.62372000 0.80077200
vt 0.62952600 0.66640900
vt 0.69664200 0.79978000
vt 0.68785800 0.80076400
vt 0.69169600 0.66319800
vt 0.70383400 0.66599300
vt 0.70532900 0.80071700
vt 0.71212100 0.79961100
vt 0.71597600 0.66419600
vt 0.67954100 0.66779500
vt 0.67888600 0.80070400
vt 0.74597900 0.80069400
vt 0.73404800 0.80082200
vt 0.74008100 0.66632300
vt 0.75225000 0.66590100
vt 0.75785500 0.80069500
vt 0.76426600 0.66640800
vt 0.72179000 0.80076500
vt 0.72806800 0.66629100
vt 0.78846100 0.66608800
vt 0.80060400 0.66089100
vt 0.79365900 0.80082900
vt 0.78332200 0.79974500
vt 0.76926900 0.80064600
vt 0.77637700 0.66203500
vt 0.77696200 0.80089900
vt 0.42117000 0.68947500
vt 0.42117000 0.57996800
vt 0.42949900 0.57996800
vt 0.43782800 0.57996800
vt 0.42513200 0.79953300
vt 0.44615700 0.57996800
vt 0.45448600 0.57996800
vt 0.46281500 0.57996800
vt 0.47114400 0.57996800
vt 0.47947300 0.57996800
vt 0.48780200 0.57996800
vt 0.49613100 0.57996800
vt 0.50446000 0.57996800
vt 0.51278900 0.57996800
vt 0.52111800 0.57996800
vt 0.52944700 0.57996800
vt 0.53777600 0.57996800
vt 0.54610500 0.57996800
vt 0.55443400 0.57996800
vt 0.56276300 0.57996800
vt 0.57109200 0.57996800
vt 0.57942100 0.57996800
vt 0.58775000 0.57996800
vt 0.59607900 0.57996800
vt 0.60440800 0.57996800
vt 0.61273700 0.57996800
vt 0.62106600 0.57996800
vt 0.62939500 0.57996800
vt 0.63772400 0.57996800
vt 0.64605300 0.57996800
vt 0.65438200 0.57996800
vt 0.66271100 0.57996800
vt 0.67104000 0.57996800
vt 0.67936900 0.57996800
vt 0.68769800 0.57996800
vt 0.69602700 0.57996800
vt 0.70435600 0.57996800
vt 0.71268500 0.57996800
vt 0.72101400 0.57996800
vt 0.72934300 0.57996800
vt 0.73767200 0.57996800
vt 0.74600100 0.57996800
vt 0.75433000 0.57996800
vt 0.77098800 0.57996800
vt 0.76265900 0.57996800
vt 0.77931700 0.57996800
vt 0.78764600 0.57996800
vt 0.79597500 0.57996800
vt 0.80430400 0.57996800
vt 0.81263300 0.57996800
vt 0.81263300 0.68947500
vt 0.80513100 0.80070500
vt 0.81625500 0.79970500
vt 0.63149400 0.57735300
vt 0.62014400 0.57755100
vt 0.61945900 0.57494800
vt 0.64801800 0.57724200
vt 0.63527500 0.57476400
vt 0.65562000 0.57761000
vt 0.65475900 0.57473100
vt 0.66691800 0.57762000
vt 0.67866300 0.57758700
vt 0.67218700 0.57482000
vt 0.69045200 0.57737500
vt 0.68758200 0.57479100
vt 0.70258400 0.57746100
vt 0.70635900 0.57466300
vt 0.71887500 0.57741300
vt 0.73617100 0.57734100
vt 0.72476600 0.57485300
vt 0.74503900 0.57753500
vt 0.73850400 0.57478600
vt 0.75241800 0.57734500
vt 0.75178900 0.57478400
vt 0.77293800 0.57817000
vt 0.76253500 0.57823200
vt 0.76630700 0.57527200
vt 0.77954500 0.57728500
vt 0.77694200 0.57478400
vt 0.78846300 0.57770700
vt 0.79232300 0.57472600
vt 0.79962000 0.57743300
vt 0.80668700 0.57751800
vt 0.80872700 0.57482100
vt 0.82026600 0.57722600
vt 0.83686100 0.57824100
vt 0.82720400 0.57833800
vt 0.83260400 0.57526500
vt 0.84360200 0.57753600
vt 0.84601000 0.57474400
vt 0.85016200 0.57736300
vt 0.86011000 0.57767100
vt 0.86101300 0.57471700
vt 0.87018000 0.57769200
vt 0.88100200 0.57759000
vt 0.87412300 0.57482500
vt 0.88904500 0.57730800
vt 0.88693800 0.57477200
vt 0.90713700 0.57745300
vt 0.89992700 0.57474500
vt 0.91827100 0.57758400
vt 0.91145100 0.57485000
vt 0.92496600 0.57730200
vt 0.92332100 0.57477200
vt 0.94147800 0.57742300
vt 0.93563100 0.57480300
vt 0.94933100 0.57703400
vt 0.96685500 0.57759900
vt 0.96239900 0.57478500
vt 0.97357200 0.57755600
vt 0.97350800 0.57480700
vt 0.98063300 0.57759400
vt 0.98897800 0.57750900
vt 0.98566800 0.57506000
vt 0.60152400 0.57631800
vt 0.59550800 0.57261300
vt 0.60913100 0.57817700
vt 0.42795400 0.99393000
vt 0.44990600 0.99527800
vt 0.44074400 1.00000000
vt 0.46445300 0.99528000
vt 0.45906800 1.00000000
vt 0.48544600 0.99528600
vt 0.47739200 1.00000000
vt 0.51112000 0.99519900
vt 0.49571600 1.00000000
vt 0.53236300 0.99527800
vt 0.52320100 1.00000000
vt 0.54746800 0.99526300
vt 0.54152500 1.00000000
vt 0.57054900 0.99527800
vt 0.55984900 1.00000000
vt 0.59197700 0.99528100
vt 0.58733500 1.00000000
vt 0.61033700 0.99527200
vt 0.62936800 0.99528000
vt 0.62398200 1.00000000
vt 0.65106800 0.99529800
vt 0.64230600 1.00000000
vt 0.59649700 1.00000000
vt 0.66063000 1.00000000
vt 0.65146800 1.00000000
vt 0.67379800 0.99527500
vt 0.69189200 0.99528700
vt 0.70644000 0.99527800
vt 0.69727800 1.00000000
vt 0.67895400 1.00000000
vt 0.72098700 0.99528700
vt 0.73908100 0.99527400
vt 0.73392500 1.00000000
vt 0.75676900 0.99528100
vt 0.75224900 1.00000000
vt 0.71560200 1.00000000
vt 0.79805900 0.99527800
vt 0.81848800 0.99527900
vt 0.80722100 1.00000000
vt 0.77763600 0.99528200
vt 0.78889700 1.00000000
vt 0.83922600 0.99527900
vt 0.83470600 1.00000000
vt 0.85855600 0.99545700
vt 0.84386800 1.00000000
vt 0.76141100 1.00000000
vt 0.11579200 0.07548800
vt 0.11579200 0.07548800
vt 0.11579200 0.07548800
vt 0.11579200 0.07548800
vt 0.11579200 0.07548800
vt 0.11579200 0.07548800
vt 0.11579200 0.07548800
vt 0.11579200 0.07548800
vt 0.11579200 0.07548800
vt 0.11579200 0.07548800
vt 0.11579200 0.07548800
vt 0.11579200 0.07548800
vt 0.11579200 0.07548800
vt 0.11579200 0.07548800
vt 0.14213600 0.07613000
vt 0.12543100 0.07247600
vt 0.01424000 0.23757800
vt 0.01424000 0.23757800
vt 0.02332100 0.20222400
vt 0.02332100 0.20222400
vt 0.04393800 0.14691000
vt 0.03240800 0.17441700
vt 0.03240800 0.17441700
vt -0.00047100 0.39140300
vt -0.00027900 0.35840900
vt -0.00027900 0.35840900
vt 0.00225100 0.32009400
vt 0.00225100 0.32009400
vt 0.00699100 0.27861300
vt 0.00699100 0.27861300
vt 0.09824900 0.07863600
vt 0.08095600 0.09262800
vt 0.10925800 0.07423900
vt 0.05503600 0.12596100
vt 0.06750200 0.10796900
vt 0.00082700 0.43084700
vt 0.00418200 0.46988000
vt 0.00418200 0.46988000
vt 0.00909600 0.50679300
vt 0.00909600 0.50679300
vt 0.01611400 0.54014500
vt 0.01611400 0.54014500
vt 0.02308100 0.56708900
vt 0.03130100 0.59254500
vt 0.04254600 0.62089000
vt 0.06199000 0.65492200
vt 0.07290600 0.66859100
vt 0.08330000 0.67866400
vt 0.09570500 0.68771000
vt 0.10946000 0.69346000
vt 0.12178600 0.69535400
vt 0.15851200 0.08760200
vt 0.16896700 0.09648400
vt 0.16896700 0.09648400
vt 0.18213200 0.11114500
vt 0.18213200 0.11114500
vt 0.20198000 0.14527200
vt 0.20198000 0.14527200
vt 0.21353000 0.17256100
vt 0.21353000 0.17256100
vt 0.22576600 0.21079600
vt 0.22576600 0.21079600
vt 0.23449600 0.24881600
vt 0.23449600 0.24881600
vt 0.24041100 0.28460400
vt 0.24516400 0.33031100
vt 0.24516400 0.33031100
vt 0.24701700 0.37639800
vt 0.24701700 0.37639800
vt 0.24658300 0.41096300
vt 0.24658300 0.41096300
vt 0.18187900 0.65831100
vt 0.19470400 0.63859300
vt 0.19470400 0.63859300
vt 0.17000600 0.67251700
vt 0.20540000 0.61803300
vt 0.20540000 0.61803300
vt 0.13369200 0.69425600
vt 0.14516100 0.69054200
vt 0.15783900 0.68298300
vt 0.23747700 0.50460000
vt 0.23747700 0.50460000
vt 0.24141400 0.47966300
vt 0.24141400 0.47966300
vt 0.24478100 0.44409900
vt 0.24478100 0.44409900
vt 0.21348400 0.59743600
vt 0.21348400 0.59743600
vt 0.22157300 0.57372400
vt 0.23068800 0.53936000
vt 0.04723100 0.14691700
vt 0.04723100 0.14691700
vt 0.04723100 0.14691700
vt 0.03316000 0.22926300
vt 0.03316000 0.22926300
vt 0.03316000 0.22926300
vt 0.03022100 0.34989700
vt 0.03022100 0.34989700
vt 0.03896700 0.18802100
vt 0.02978100 0.27591500
vt 0.11502000 0.01403100
vt 0.11502000 0.01403100
vt 0.09754400 0.03197000
vt 0.09754400 0.03197000
vt 0.19042800 0.01438500
vt 0.19042800 0.01438500
vt 0.08618300 0.04824400
vt 0.07033100 0.07773000
vt 0.15106000 0.61831800
vt 0.05829100 0.10918100
vt 0.22241900 0.05414500
vt 0.03257500 0.38217300
vt 0.03257500 0.38217300
vt 0.04628500 0.46628100
vt 0.04628500 0.46628100
vt 0.06905200 0.53696500
vt 0.03835500 0.42726000
vt 0.05609000 0.50252300
vt 0.02908300 0.31759200
vt 0.10424000 0.59391300
vt 0.08477800 0.56807000
vt 0.12090800 0.60807800
vt 0.13590100 0.61546700
vt 0.15665400 0.00002000
vt 0.13755200 0.00162000
vt 0.17019100 0.00288900
vt 0.20818000 0.03316200
vt 0.23577400 0.08102200
vt 0.25759400 0.47107100
vt 0.24914100 0.11666200
vt 0.26041500 0.15942700
vt 0.27193200 0.38650900
vt 0.27573900 0.30026000
vt 0.27134000 0.22761000
vt 0.27417400 0.25964400
vt 0.26729300 0.19640700
vt 0.23449500 0.54025400
vt 0.23449500 0.54025400
vt 0.20723800 0.58606800
vt 0.20723800 0.58606800
vt 0.21864200 0.56974200
vt 0.24653500 0.50880500
vt 0.17140200 0.61498600
vt 0.19226500 0.60181200
vt 0.27510300 0.34013900
vt 0.26585800 0.42996600
vt 0.44990600 1.00000000
vt 0.46823000 1.00000000
vt 0.48655400 1.00000000
vt 0.50487700 1.00000000
vt 0.51403900 1.00000000
vt 0.53236300 1.00000000
vt 0.55984900 1.00000000
vt 0.58733500 1.00000000
vt 0.57817300 1.00000000
vt 0.61482000 1.00000000
vt 0.60565900 1.00000000
vt 0.63314400 1.00000000
vt 0.65146800 1.00000000
vt 0.66979200 1.00000000
vt 0.68811600 1.00000000
vt 0.70644000 1.00000000
vt 0.73392500 1.00000000
vt 0.74308700 1.00000000
vt 0.76141100 1.00000000
vt 0.77973500 1.00000000
vt 0.79805900 1.00000000
vt 0.81638300 1.00000000
vt 0.82554500 1.00000000
vt 0.86219200 1.00000000
vt 0.85303000 1.00000000
vt 0.87135400 1.00000000
vt 0.25443600 0.57843200
vt 0.31475400 0.57823600
vt 0.40507500 0.57806400
vt 0.41894500 0.57805100
vt 0.46538700 0.57808000
vt 0.50966200 0.57713700
vt 0.54458900 0.57819700
vt 0.55328300 0.57637700
vt 0.55973700 0.57821200
vt 0.57016200 0.57485700
vt 0.57679700 0.57808600
vt 0.64171900 0.57834900
vt 0.71216200 0.57829200
vt 0.72747200 0.57824800
vt 0.81313300 0.57839000
vt 0.82112500 0.57480400
vt 0.89628800 0.57815900
vt 0.93203800 0.57835100
vt 0.94953200 0.57483900
vt 0.95724100 0.57829200
vt 0.44990600 1.00000000
vt 0.46823000 1.00000000
vt 0.48655400 1.00000000
vt 0.50487700 1.00000000
vt 0.51403900 1.00000000
vt 0.53236300 1.00000000
vt 0.55068700 1.00000000
vt 0.56901100 1.00000000
vt 0.57817300 1.00000000
vt 0.61482000 1.00000000
vt 0.60565900 1.00000000
vt 0.63314400 1.00000000
vt 0.66979200 1.00000000
vt 0.68811600 1.00000000
vt 0.70644000 1.00000000
vt 0.72476300 1.00000000
vt 0.74308700 1.00000000
vt 0.77973500 1.00000000
vt 0.77057300 1.00000000
vt 0.79805900 1.00000000
vt 0.81638300 1.00000000
vt 0.82554500 1.00000000
vt 0.86219200 1.00000000
vt 0.85303000 1.00000000
vt 0.87135400 1.00000000
f 1/1/1 2/2/2 3/3/3
f 2/2/2 4/4/4 5/5/5
f 4/4/4 6/6/6 7/7/7
f 8/8/8 9/9/9 10/10/10
f 11/11/11 8/8/8 12/12/12
f 6/6/6 11/11/11 13/13/13
f 9/9/9 14/14/14 15/15/15
f 16/16/16 17/17/17 18/18/18
f 14/14/14 16/16/16 19/19/19
f 17/17/17 20/20/20 21/21/21
f 20/20/20 22/22/22 23/23/23
f 22/22/22 24/24/24 25/25/25
f 24/24/24 26/26/26 27/27/27
f 26/26/26 28/28/28 29/29/29
f 28/28/28 30/30/30 31/31/31
f 32/32/32 629/629/629 30/30/30
f 32/32/32 34/34/34 35/35/35
f 36/36/36 37/37/37 38/38/38
f 39/39/39 36/36/36 40/40/40
f 37/37/37 41/41/41 42/42/42
f 41/41/41 43/43/43 44/44/44
f 34/34/34 39/39/39 45/45/45
f 46/46/46 47/47/47 48/48/48
f 49/49/49 46/46/46 48/48/48
f 50/50/50 49/49/49 51/51/51
f 52/52/52 50/50/50 53/53/53
f 54/54/54 52/52/52 55/55/55
f 56/56/56 54/54/54 57/57/57
f 58/58/58 56/56/56 57/57/57
f 59/59/59 57/57/57 60/60/60
f 61/61/61 59/59/59 60/60/60
f 62/62/62 61/61/61 63/63/63
f 64/64/64 62/62/62 65/65/65
f 66/66/66 64/64/64 67/67/67
f 68/68/68 67/67/67 69/69/69
f 70/70/70 68/68/68 69/69/69
f 71/71/71 70/70/70 72/72/72
f 73/73/73 71/71/71 72/72/72
f 74/74/74 73/73/73 75/75/75
f 76/76/76 74/74/74 77/77/77
f 78/78/78 76/76/76 79/79/79
f 80/80/80 78/78/78 81/81/81
f 82/82/82 80/80/80 83/83/83
f 84/84/84 82/82/82 83/83/83
f 85/85/85 84/84/84 86/86/86
f 87/87/87 88/88/88 89/89/89
f 91/91/91 92/92/92 93/93/93
f 94/94/94 92/92/92 91/91/91
f 95/95/95 96/96/96 97/97/97
f 98/98/98 99/99/99 100/100/100
f 47/47/47 101/101/101 48/48/48
f 102/102/102 48/48/48 101/101/101
f 103/103/103 101/101/101 47/47/47
f 106/106/106 109/109/109 104/104/104
f 107/107/107 108/108/108 105/105/105
f 109/109/109 110/110/110 104/104/104
f 108/108/108 107/107/107 111/111/111
f 113/113/113 108/108/108 112/112/112
f 116/116/116 117/117/117 114/114/114
f 117/117/117 118/118/118 114/114/114
f 119/119/119 115/115/115 120/120/120
f 119/119/119 116/116/116 115/115/115
f 121/121/121 122/122/122 123/123/123
f 110/110/110 123/123/123 122/122/122
f 109/109/109 123/123/123 110/110/110
f 123/123/123 119/119/119 121/121/121
f 124/124/124 125/125/125 126/126/126
f 124/124/124 126/126/126 127/127/127
f 130/130/130 126/126/126 125/125/125
f 131/131/131 130/130/130 129/129/129
f 118/118/118 117/117/117 131/131/131
f 133/133/133 134/134/134 135/135/135
f 134/134/134 139/139/139 136/136/136
f 133/133/133 135/135/135 138/138/138
f 139/139/139 140/140/140 141/141/141
f 127/127/127 141/141/141 128/128/128
f 141/141/141 136/136/136 139/139/139
f 144/144/144 145/145/145 142/142/142
f 145/145/145 146/146/146 142/142/142
f 147/147/147 158/158/158 146/146/146
f 148/148/148 144/144/144 143/143/143
f 137/137/137 148/148/148 138/138/138
f 151/151/151 152/152/152 153/153/153
f 153/153/153 154/154/154 151/151/151
f 155/155/155 152/152/152 156/156/156
f 157/157/157 155/155/155 156/156/156
f 153/153/153 152/152/152 155/155/155
f 155/155/155 154/154/154 153/153/153
f 147/147/147 159/159/159 158/158/158
f 157/157/157 156/156/156 160/160/160
f 163/163/163 164/164/164 161/161/161
f 164/164/164 166/166/166 165/165/165
f 167/167/167 169/169/169 162/162/162
f 168/168/168 151/151/151 154/154/154
f 154/154/154 169/169/169 168/168/168
f 170/170/170 229/229/229 172/172/172
f 173/173/173 172/172/172 174/174/174
f 173/173/173 170/170/170 172/172/172
f 173/173/173 174/174/174 175/175/175
f 176/176/176 165/165/165 166/166/166
f 176/176/176 166/166/166 178/178/178
f 175/175/175 178/178/178 177/177/177
f 177/177/177 173/173/173 175/175/175
f 179/179/179 180/180/180 113/113/113
f 181/181/181 113/113/113 180/180/180
f 181/181/181 182/182/182 113/113/113
f 113/113/113 112/112/112 179/179/179
f 182/182/182 184/184/184 113/113/113
f 185/185/185 106/106/106 184/184/184
f 106/106/106 185/185/185 186/186/186
f 188/188/188 123/123/123 109/109/109
f 123/123/123 188/188/188 189/189/189
f 109/109/109 106/106/106 186/186/186
f 189/189/189 190/190/190 123/123/123
f 191/191/191 116/116/116 190/190/190
f 116/116/116 191/191/191 192/192/192
f 117/117/117 116/116/116 192/192/192
f 131/131/131 194/194/194 195/195/195
f 130/130/130 131/131/131 195/195/195
f 194/194/194 131/131/131 193/193/193
f 130/130/130 196/196/196 197/197/197
f 198/198/198 127/127/127 126/126/126
f 127/127/127 198/198/198 199/199/199
f 141/141/141 127/127/127 200/200/200
f 136/136/136 201/201/201 202/202/202
f 135/135/135 136/136/136 203/203/203
f 201/201/201 136/136/136 141/141/141
f 135/135/135 203/203/203 137/137/137
f 205/205/205 137/137/137 204/204/204
f 148/148/148 137/137/137 206/206/206
f 207/207/207 144/144/144 148/148/148
f 144/144/144 207/207/207 208/208/208
f 208/208/208 209/209/209 145/145/145
f 210/210/210 147/147/147 145/145/145
f 147/147/147 210/210/210 211/211/211
f 213/213/213 157/157/157 212/212/212
f 157/157/157 213/213/213 214/214/214
f 159/159/159 147/147/147 211/211/211
f 214/214/214 215/215/215 155/155/155
f 216/216/216 154/154/154 155/155/155
f 154/154/154 216/216/216 217/217/217
f 169/169/169 154/154/154 217/217/217
f 163/163/163 219/219/219 220/220/220
f 164/164/164 163/163/163 220/220/220
f 219/219/219 163/163/163 218/218/218
f 221/221/221 223/223/223 164/164/164
f 222/222/222 177/177/177 166/166/166
f 177/177/177 222/222/222 224/224/224
f 173/173/173 177/177/177 225/225/225
f 170/170/170 226/226/226 227/227/227
f 170/170/170 227/227/227 228/228/228
f 226/226/226 170/170/170 225/225/225
f 229/229/229 170/170/170 228/228/228
f 171/171/171 229/229/229 230/230/230
f 232/232/232 234/234/234 233/233/233
f 234/234/234 232/232/232 235/235/235
f 236/236/236 237/237/237 231/231/231
f 233/233/233 236/236/236 231/231/231
f 234/234/234 235/235/235 238/238/238
f 240/240/240 234/234/234 239/239/239
f 243/243/243 246/246/246 241/241/241
f 244/244/244 242/242/242 245/245/245
f 244/244/244 243/243/243 242/242/242
f 248/248/248 236/236/236 249/249/249
f 244/244/244 245/245/245 247/247/247
f 248/248/248 237/237/237 236/236/236
f 249/249/249 244/244/244 247/247/247
f 252/252/252 253/253/253 250/250/250
f 253/253/253 254/254/254 250/250/250
f 256/256/256 252/252/252 251/251/251
f 257/257/257 256/256/256 255/255/255
f 259/259/259 241/241/241 246/246/246
f 257/257/257 258/258/258 259/259/259
f 246/246/246 257/257/257 259/259/259
f 260/260/260 261/261/261 262/262/262
f 263/263/263 262/262/262 261/261/261
f 264/264/264 262/262/262 263/263/263
f 260/260/260 262/262/262 266/266/266
f 267/267/267 268/268/268 269/269/269
f 254/254/254 253/253/253 269/269/269
f 267/267/267 269/269/269 263/263/263
f 270/270/270 271/271/271 272/272/272
f 273/273/273 287/287/287 274/274/274
f 276/276/276 279/279/279 277/277/277
f 277/277/277 272/272/272 275/275/275
f 272/272/272 273/273/273 270/270/270
f 265/265/265 279/279/279 266/266/266
f 281/281/281 287/287/287 282/282/282
f 283/283/283 284/284/284 280/280/280
f 282/282/282 283/283/283 280/280/280
f 285/285/285 284/284/284 283/283/283
f 283/283/283 286/286/286 285/285/285
f 287/287/287 281/281/281 288/288/288
f 274/274/274 287/287/287 288/288/288
f 289/289/289 290/290/290 291/291/291
f 289/289/289 291/291/291 292/292/292
f 292/292/292 294/294/294 293/293/293
f 286/286/286 296/296/296 295/295/295
f 296/296/296 290/290/290 295/295/295
f 296/296/296 291/291/291 290/290/290
f 298/298/298 355/355/355 297/297/297
f 297/297/297 299/299/299 300/300/300
f 301/301/301 293/293/293 294/294/294
f 301/301/301 294/294/294 303/303/303
f 300/300/300 303/303/303 302/302/302
f 302/302/302 297/297/297 300/300/300
f 304/304/304 305/305/305 240/240/240
f 306/306/306 240/240/240 305/305/305
f 306/306/306 307/307/307 240/240/240
f 240/240/240 239/239/239 304/304/304
f 307/307/307 309/309/309 240/240/240
f 310/310/310 233/233/233 234/234/234
f 233/233/233 310/310/310 311/311/311
f 313/313/313 249/249/249 236/236/236
f 249/249/249 313/313/313 314/314/314
f 236/236/236 233/233/233 311/311/311
f 314/314/314 315/315/315 244/244/244
f 316/316/316 243/243/243 315/315/315
f 243/243/243 316/316/316 317/317/317
f 246/246/246 243/243/243 317/317/317
f 257/257/257 319/319/319 320/320/320
f 256/256/256 257/257/257 320/320/320
f 319/319/319 257/257/257 318/318/318
f 256/256/256 321/321/321 322/322/322
f 323/323/323 252/252/252 322/322/322
f 253/253/253 252/252/252 323/323/323
f 269/269/269 253/253/253 324/324/324
f 264/264/264 326/326/326 327/327/327
f 262/262/262 264/264/264 328/328/328
f 326/326/326 264/264/264 325/325/325
f 262/262/262 328/328/328 265/265/265
f 330/330/330 265/265/265 329/329/329
f 279/279/279 265/265/265 331/331/331
f 332/332/332 277/277/277 279/279/279
f 277/277/277 332/332/332 333/333/333
f 333/333/333 334/334/334 272/272/272
f 335/335/335 273/273/273 272/272/272
f 273/273/273 335/335/335 336/336/336
f 338/338/338 282/282/282 337/337/337
f 282/282/282 338/338/338 339/339/339
f 287/287/287 273/273/273 337/337/337
f 339/339/339 340/340/340 283/283/283
f 341/341/341 286/286/286 283/283/283
f 286/286/286 341/341/341 342/342/342
f 296/296/296 286/286/286 342/342/342
f 345/345/345 292/292/292 291/291/291
f 292/292/292 345/345/345 346/346/346
f 344/344/344 291/291/291 296/296/296
f 346/346/346 348/348/348 292/292/292
f 347/347/347 302/302/302 294/294/294
f 302/302/302 347/347/347 349/349/349
f 297/297/297 302/302/302 350/350/350
f 298/298/298 351/351/351 352/352/352
f 298/298/298 352/352/352 353/353/353
f 351/351/351 298/298/298 350/350/350
f 354/354/354 355/355/355 298/298/298
f 354/354/354 298/298/298 353/353/353
f 355/355/355 354/354/354 356/356/356
f 357/357/357 358/358/358 359/359/359
f 360/360/360 357/357/357 361/361/361
f 362/362/362 360/360/360 363/363/363
f 364/364/364 362/362/362 363/363/363
f 365/365/365 364/364/364 366/366/366
f 367/367/367 365/365/365 368/368/368
f 369/369/369 367/367/367 370/370/370
f 371/371/371 369/369/369 370/370/370
f 372/372/372 371/371/371 373/373/373
f 374/374/374 372/372/372 375/375/375
f 376/376/376 374/374/374 377/377/377
f 378/378/378 379/379/379 380/380/380
f 381/381/381 380/380/380 382/382/382
f 383/383/383 381/381/381 384/384/384
f 385/385/385 383/383/383 384/384/384
f 386/386/386 385/385/385 387/387/387
f 388/388/388 386/386/386 387/387/387
f 389/389/389 390/390/390 391/391/391
f 392/392/392 391/391/391 393/393/393
f 392/392/392 389/389/389 391/391/391
f 394/394/394 392/392/392 393/393/393
f 395/395/395 394/394/394 396/396/396
f 397/397/397 395/395/395 396/396/396
f 398/398/398 397/397/397 399/399/399
f 400/400/400 398/398/398 401/401/401
f 402/402/402 400/400/400 403/403/403
f 404/404/404 402/402/402 405/405/405
f 406/406/406 404/404/404 407/407/407
f 408/408/408 406/406/406 409/409/409
f 410/410/410 408/408/408 409/409/409
f 411/411/411 410/410/410 412/412/412
f 413/413/413 411/411/411 414/414/414
f 415/415/415 413/413/413 414/414/414
f 416/416/416 415/415/415 417/417/417
f 418/418/418 359/359/359 358/358/358
f 419/419/419 359/359/359 418/418/418
f 420/420/420 418/418/418 358/358/358
f 421/421/421 422/422/422 423/423/423
f 422/422/422 424/424/424 425/425/425
f 424/424/424 426/426/426 427/427/427
f 426/426/426 428/428/428 429/429/429
f 428/428/428 430/430/430 431/431/431
f 430/430/430 432/432/432 433/433/433
f 432/432/432 434/434/434 435/435/435
f 434/434/434 436/436/436 437/437/437
f 438/438/438 439/439/439 440/440/440
f 439/439/439 441/441/441 442/442/442
f 436/436/436 438/438/438 443/443/443
f 444/444/444 445/445/445 441/441/441
f 441/441/441 446/446/446 444/444/444
f 447/447/447 448/448/448 449/449/449
f 446/446/446 447/447/447 450/450/450
f 451/451/451 452/452/452 453/453/453
f 452/452/452 454/454/454 455/455/455
f 448/448/448 451/451/451 456/456/456
f 457/457/457 458/458/458 459/459/459
f 460/460/460 457/457/457 461/461/461
f 458/458/458 462/462/462 463/463/463
f 462/462/462 464/464/464 465/465/465
f 454/454/454 460/460/460 466/466/466
f 480/480/480 481/481/481 482/482/482
f 483/483/483 477/477/477 485/485/485
f 480/480/480 487/487/487 488/488/488
f 479/479/479 489/489/489 486/486/486
f 490/490/490 480/480/480 491/491/491
f 492/492/492 478/478/478 493/493/493
f 495/495/495 475/475/475 484/484/484
f 496/496/496 494/494/494 474/474/474
f 480/480/480 497/497/497 498/498/498
f 480/480/480 499/499/499 497/497/497
f 480/480/480 500/500/500 487/487/487
f 498/498/498 501/501/501 480/480/480
f 501/501/501 500/500/500 480/480/480
f 502/502/502 480/480/480 490/490/490
f 480/480/480 502/502/502 504/504/504
f 506/506/506 475/475/475 503/503/503
f 505/505/505 508/508/508 473/473/473
f 509/509/509 480/480/480 507/507/507
f 480/480/480 509/509/509 510/510/510
f 511/511/511 480/480/480 510/510/510
f 511/511/511 512/512/512 480/480/480
f 513/513/513 480/480/480 512/512/512
f 480/480/480 513/513/513 514/514/514
f 480/480/480 514/514/514 515/515/515
f 515/515/515 516/516/516 480/480/480
f 516/516/516 517/517/517 480/480/480
f 480/480/480 518/518/518 481/481/481
f 520/520/520 518/518/518 480/480/480
f 521/521/521 519/519/519 477/477/477
f 480/480/480 524/524/524 522/522/522
f 523/523/523 472/472/472 526/526/526
f 525/525/525 471/471/471 528/528/528
f 480/480/480 529/529/529 527/527/527
f 531/531/531 530/530/530 471/471/471
f 471/471/471 532/532/532 531/531/531
f 533/533/533 470/470/470 535/535/535
f 534/534/534 471/471/471 537/537/537
f 480/480/480 538/538/538 540/540/540
f 541/541/541 538/538/538 480/480/480
f 469/469/469 539/539/539 543/543/543
f 480/480/480 517/517/517 544/544/544
f 480/480/480 544/544/544 545/545/545
f 546/546/546 541/541/541 480/480/480
f 480/480/480 545/545/545 546/546/546
f 468/468/468 548/548/548 549/549/549
f 536/536/536 480/480/480 552/552/552
f 551/551/551 467/467/467 550/550/550
f 542/542/542 554/554/554 476/476/476
f 553/553/553 555/555/555 480/480/480
f 556/556/556 547/547/547 480/480/480
f 480/480/480 555/555/555 556/556/556
f 557/557/557 560/560/560 563/563/563
f 561/561/561 558/558/558 565/565/565
f 566/566/566 564/564/564 562/562/562
f 567/567/567 570/570/570 572/572/572
f 573/573/573 574/574/574 571/571/571
f 571/571/571 569/569/569 573/573/573
f 575/575/575 576/576/576 559/559/559
f 577/577/577 574/574/574 576/576/576
f 563/563/563 579/579/579 581/581/581
f 564/564/564 580/580/580 582/582/582
f 583/583/583 580/580/580 578/578/578
f 584/584/584 582/582/582 580/580/580
f 585/585/585 564/564/564 566/566/566
f 586/586/586 582/582/582 587/587/587
f 564/564/564 582/582/582 586/586/586
f 564/564/564 588/588/588 589/589/589
f 564/564/564 586/586/586 588/588/588
f 575/575/575 564/564/564 589/589/589
f 564/564/564 575/575/575 559/559/559
f 590/590/590 591/591/591 568/568/568
f 590/590/590 571/571/571 592/592/592
f 571/571/571 574/574/574 577/577/577
f 593/593/593 571/571/571 577/577/577
f 576/576/576 594/594/594 577/577/577
f 576/576/576 606/606/606 594/594/594
f 596/596/596 594/594/594 597/597/597
f 598/598/598 597/597/597 594/594/594
f 597/597/597 599/599/599 600/600/600
f 600/600/600 599/599/599 601/601/601
f 602/602/602 597/597/597 600/600/600
f 599/599/599 597/597/597 598/598/598
f 603/603/603 605/605/605 607/607/607
f 608/608/608 606/606/606 604/604/604
f 609/609/609 610/610/610 576/576/576
f 576/576/576 610/610/610 606/606/606
f 609/609/609 576/576/576 575/575/575
f 594/594/594 595/595/595 598/598/598
f 599/599/599 598/598/598 611/611/611
f 606/606/606 608/608/608 595/595/595
f 595/595/595 612/612/612 598/598/598
f 590/590/590 568/568/568 571/571/571
f 2/2/2 613/613/613 3/3/3
f 2/2/2 5/5/5 613/613/613
f 4/4/4 7/7/7 614/614/614
f 6/6/6 615/615/615 7/7/7
f 4/4/4 614/614/614 5/5/5
f 11/11/11 616/616/616 13/13/13
f 11/11/11 617/617/617 616/616/616
f 8/8/8 618/618/618 12/12/12
f 8/8/8 10/10/10 618/618/618
f 11/11/11 12/12/12 617/617/617
f 6/6/6 13/13/13 615/615/615
f 14/14/14 619/619/619 15/15/15
f 14/14/14 19/19/19 619/619/619
f 16/16/16 620/620/620 621/621/621
f 16/16/16 18/18/18 620/620/620
f 16/16/16 621/621/621 19/19/19
f 17/17/17 622/622/622 623/623/623
f 17/17/17 21/21/21 622/622/622
f 20/20/20 23/23/23 624/624/624
f 22/22/22 625/625/625 23/23/23
f 20/20/20 624/624/624 21/21/21
f 17/17/17 623/623/623 18/18/18
f 9/9/9 15/15/15 10/10/10
f 22/22/22 25/25/25 625/625/625
f 24/24/24 626/626/626 25/25/25
f 24/24/24 27/27/27 626/626/626
f 26/26/26 29/29/29 627/627/627
f 28/28/28 628/628/628 29/29/29
f 26/26/26 627/627/627 27/27/27
f 30/30/30 33/33/33 31/31/31
f 32/32/32 35/35/35 630/630/630
f 34/34/34 631/631/631 35/35/35
f 32/32/32 630/630/630 629/629/629
f 28/28/28 31/31/31 628/628/628
f 39/39/39 632/632/632 45/45/45
f 39/39/39 40/40/40 632/632/632
f 36/36/36 38/38/38 633/633/633
f 37/37/37 634/634/634 38/38/38
f 36/36/36 633/633/633 40/40/40
f 37/37/37 42/42/42 635/635/635
f 41/41/41 44/44/44 42/42/42
f 43/43/43 636/636/636 637/637/637
f 43/43/43 638/638/638 636/636/636
f 43/43/43 637/637/637 44/44/44
f 37/37/37 635/635/635 634/634/634
f 34/34/34 45/45/45 631/631/631
f 49/49/49 48/48/48 51/51/51
f 639/639/639 49/49/49 50/50/50
f 50/50/50 51/51/51 53/53/53
f 52/52/52 53/53/53 55/55/55
f 54/54/54 55/55/55 57/57/57
f 58/58/58 57/57/57 59/59/59
f 640/640/640 59/59/59 61/61/61
f 61/61/61 60/60/60 63/63/63
f 62/62/62 63/63/63 65/65/65
f 64/64/64 65/65/65 67/67/67
f 66/66/66 67/67/67 68/68/68
f 70/70/70 69/69/69 72/72/72
f 73/73/73 72/72/72 75/75/75
f 641/641/641 73/73/73 74/74/74
f 74/74/74 75/75/75 77/77/77
f 642/642/642 74/74/74 76/76/76
f 76/76/76 77/77/77 79/79/79
f 78/78/78 79/79/79 81/81/81
f 80/80/80 81/81/81 83/83/83
f 643/643/643 82/82/82 84/84/84
f 84/84/84 83/83/83 86/86/86
f 85/85/85 86/86/86 89/89/89
f 88/88/88 85/85/85 89/89/89
f 87/87/87 89/89/89 644/644/644
f 645/645/645 90/90/90 646/646/646
f 647/647/647 646/646/646 96/96/96
f 96/96/96 646/646/646 648/648/648
f 96/96/96 648/648/648 97/97/97
f 649/649/649 96/96/96 95/95/95
f 95/95/95 97/97/97 100/100/100
f 99/99/99 95/95/95 100/100/100
f 120/120/120 121/121/121 119/119/119
f 149/149/149 150/150/150 148/148/148
f 160/160/160 158/158/158 159/159/159
f 167/167/167 168/168/168 169/169/169
f 276/276/276 278/278/278 279/279/279
f 357/357/357 359/359/359 361/361/361
f 650/650/650 357/357/357 360/360/360
f 360/360/360 361/361/361 363/363/363
f 364/364/364 363/363/363 366/366/366
f 365/365/365 366/366/366 368/368/368
f 367/367/367 368/368/368 370/370/370
f 651/651/651 369/369/369 371/371/371
f 371/371/371 370/370/370 373/373/373
f 652/652/652 371/371/371 372/372/372
f 372/372/372 373/373/373 375/375/375
f 374/374/374 375/375/375 377/377/377
f 376/376/376 377/377/377 380/380/380
f 379/379/379 376/376/376 380/380/380
f 378/378/378 380/380/380 381/381/381
f 381/381/381 382/382/382 384/384/384
f 385/385/385 384/384/384 387/387/387
f 653/653/653 386/386/386 388/388/388
f 388/388/388 387/387/387 654/654/654
f 388/388/388 654/654/654 391/391/391
f 390/390/390 388/388/388 391/391/391
f 394/394/394 393/393/393 396/396/396
f 397/397/397 396/396/396 399/399/399
f 398/398/398 399/399/399 401/401/401
f 400/400/400 401/401/401 403/403/403
f 655/655/655 400/400/400 402/402/402
f 402/402/402 403/403/403 405/405/405
f 404/404/404 405/405/405 407/407/407
f 406/406/406 407/407/407 409/409/409
f 656/656/656 406/406/406 408/408/408
f 410/410/410 409/409/409 657/657/657
f 410/410/410 657/657/657 412/412/412
f 658/658/658 410/410/410 411/411/411
f 411/411/411 412/412/412 414/414/414
f 415/415/415 414/414/414 417/417/417
f 422/422/422 659/659/659 423/423/423
f 422/422/422 425/425/425 659/659/659
f 424/424/424 427/427/427 660/660/660
f 426/426/426 661/661/661 427/427/427
f 424/424/424 660/660/660 425/425/425
f 428/428/428 662/662/662 429/429/429
f 428/428/428 663/663/663 662/662/662
f 430/430/430 664/664/664 431/431/431
f 430/430/430 433/433/433 664/664/664
f 428/428/428 431/431/431 663/663/663
f 426/426/426 429/429/429 661/661/661
f 432/432/432 435/435/435 665/665/665
f 434/434/434 666/666/666 435/435/435
f 434/434/434 437/437/437 667/667/667
f 436/436/436 443/443/443 437/437/437
f 434/434/434 667/667/667 666/666/666
f 438/438/438 668/668/668 669/669/669
f 438/438/438 440/440/440 668/668/668
f 439/439/439 442/442/442 670/670/670
f 441/441/441 445/445/445 442/442/442
f 439/439/439 670/670/670 440/440/440
f 438/438/438 669/669/669 443/443/443
f 432/432/432 665/665/665 433/433/433
f 446/446/446 671/671/671 444/444/444
f 446/446/446 450/450/450 671/671/671
f 447/447/447 449/449/449 672/672/672
f 448/448/448 673/673/673 449/449/449
f 447/447/447 672/672/672 450/450/450
f 451/451/451 674/674/674 456/456/456
f 451/451/451 453/453/453 674/674/674
f 452/452/452 455/455/455 675/675/675
f 466/466/466 455/455/455 454/454/454
f 452/452/452 675/675/675 453/453/453
f 448/448/448 456/456/456 673/673/673
f 460/460/460 676/676/676 677/677/677
f 460/460/460 461/461/461 676/676/676
f 457/457/457 459/459/459 678/678/678
f 458/458/458 679/679/679 459/459/459
f 457/457/457 678/678/678 461/461/461
f 458/458/458 463/463/463 680/680/680
f 462/462/462 465/465/465 463/463/463
f 464/464/464 681/681/681 682/682/682
f 464/464/464 683/683/683 681/681/681
f 464/464/464 682/682/682 465/465/465
f 458/458/458 680/680/680 679/679/679
f 460/460/460 677/677/677 466/466/466
f 629/629/629 33/33/33 30/30/30
f 106/106/106 104/104/104 105/105/105
f 108/108/108 106/106/106 105/105/105
f 108/108/108 111/111/111 112/112/112
f 116/116/116 114/114/114 115/115/115
f 124/124/124 127/127/127 128/128/128
f 130/130/130 125/125/125 129/129/129
f 131/131/131 129/129/129 132/132/132
f 118/118/118 131/131/131 132/132/132
f 134/134/134 136/136/136 135/135/135
f 135/135/135 137/137/137 138/138/138
f 141/141/141 140/140/140 128/128/128
f 144/144/144 142/142/142 143/143/143
f 147/147/147 146/146/146 145/145/145
f 148/148/148 143/143/143 149/149/149
f 148/148/148 150/150/150 138/138/138
f 157/157/157 160/160/160 159/159/159
f 163/163/163 161/161/161 162/162/162
f 164/164/164 165/165/165 161/161/161
f 169/169/169 163/163/163 162/162/162
f 229/229/229 171/171/171 172/172/172
f 166/166/166 177/177/177 178/178/178
f 112/112/112 183/183/183 179/179/179
f 184/184/184 108/108/108 113/113/113
f 106/106/106 108/108/108 184/184/184
f 188/188/188 109/109/109 187/187/187
f 109/109/109 186/186/186 187/187/187
f 190/190/190 119/119/119 123/123/123
f 116/116/116 119/119/119 190/190/190
f 117/117/117 192/192/192 193/193/193
f 130/130/130 195/195/195 196/196/196
f 131/131/131 117/117/117 193/193/193
f 130/130/130 197/197/197 126/126/126
f 198/198/198 126/126/126 197/197/197
f 127/127/127 199/199/199 200/200/200
f 136/136/136 202/202/202 203/203/203
f 201/201/201 141/141/141 200/200/200
f 203/203/203 204/204/204 137/137/137
f 137/137/137 205/205/205 206/206/206
f 207/207/207 148/148/148 206/206/206
f 208/208/208 145/145/145 144/144/144
f 210/210/210 145/145/145 209/209/209
f 157/157/157 159/159/159 212/212/212
f 159/159/159 211/211/211 212/212/212
f 214/214/214 155/155/155 157/157/157
f 216/216/216 155/155/155 215/215/215
f 169/169/169 217/217/217 218/218/218
f 164/164/164 220/220/220 221/221/221
f 163/163/163 169/169/169 218/218/218
f 223/223/223 166/166/166 164/164/164
f 222/222/222 166/166/166 223/223/223
f 177/177/177 224/224/224 225/225/225
f 170/170/170 173/173/173 225/225/225
f 232/232/232 233/233/233 231/231/231
f 234/234/234 238/238/238 239/239/239
f 243/243/243 241/241/241 242/242/242
f 248/248/248 249/249/249 247/247/247
f 252/252/252 250/250/250 251/251/251
f 256/256/256 251/251/251 255/255/255
f 257/257/257 255/255/255 258/258/258
f 262/262/262 265/265/265 266/266/266
f 254/254/254 269/269/269 268/268/268
f 269/269/269 264/264/264 263/263/263
f 273/273/273 274/274/274 270/270/270
f 276/276/276 277/277/277 275/275/275
f 272/272/272 271/271/271 275/275/275
f 279/279/279 278/278/278 266/266/266
f 281/281/281 282/282/282 280/280/280
f 289/289/289 292/292/292 293/293/293
f 286/286/286 295/295/295 285/285/285
f 355/355/355 299/299/299 297/297/297
f 294/294/294 302/302/302 303/303/303
f 239/239/239 308/308/308 304/304/304
f 309/309/309 234/234/234 240/240/240
f 310/310/310 234/234/234 309/309/309
f 313/313/313 236/236/236 312/312/312
f 236/236/236 311/311/311 312/312/312
f 314/314/314 244/244/244 249/249/249
f 243/243/243 244/244/244 315/315/315
f 246/246/246 317/317/317 318/318/318
f 256/256/256 320/320/320 321/321/321
f 257/257/257 246/246/246 318/318/318
f 256/256/256 322/322/322 252/252/252
f 253/253/253 323/323/323 324/324/324
f 269/269/269 324/324/324 325/325/325
f 264/264/264 327/327/327 328/328/328
f 264/264/264 269/269/269 325/325/325
f 328/328/328 329/329/329 265/265/265
f 265/265/265 330/330/330 331/331/331
f 332/332/332 279/279/279 331/331/331
f 333/333/333 272/272/272 277/277/277
f 335/335/335 272/272/272 334/334/334
f 282/282/282 287/287/287 337/337/337
f 273/273/273 336/336/336 337/337/337
f 339/339/339 283/283/283 282/282/282
f 341/341/341 283/283/283 340/340/340
f 296/296/296 342/342/342 343/343/343
f 345/345/345 291/291/291 344/344/344
f 344/344/344 296/296/296 343/343/343
f 348/348/348 294/294/294 292/292/292
f 347/347/347 294/294/294 348/348/348
f 302/302/302 349/349/349 350/350/350
f 298/298/298 297/297/297 350/350/350
f 606/606/606 595/595/595 594/594/594

