mtllib material.mtl
usemtl Material-7011油漆.033
v -0.03859800 0.06833200 -0.00949900
v -0.03859800 0.06833200 -0.00949900
v -0.03859800 0.06833200 -0.00949900
v -0.03778700 0.06833200 -0.01233800
v -0.03778700 0.06833200 -0.01233800
v -0.03778700 0.06833200 -0.01233800
v -0.03676700 0.06833200 -0.01510900
v -0.03676700 0.06833200 -0.01510900
v -0.03676700 0.06833200 -0.01510900
v -0.03554400 0.06833200 -0.01779600
v -0.03554400 0.06833200 -0.01779600
v -0.03554400 0.06833200 -0.01779600
v -0.03412500 0.06833200 -0.02038500
v -0.03412500 0.06833200 -0.02038500
v -0.03412500 0.06833200 -0.02038500
v -0.03251700 0.06833200 -0.02286200
v -0.03251700 0.06833200 -0.02286200
v -0.03251700 0.06833200 -0.02286200
v -0.03073100 0.06833200 -0.02521300
v -0.03073100 0.06833200 -0.02521300
v -0.03073100 0.06833200 -0.02521300
v -0.02877500 0.06833200 -0.02742400
v -0.02877500 0.06833200 -0.02742400
v -0.02877500 0.06833200 -0.02742400
v -0.02666000 0.06833200 -0.02948400
v -0.02666000 0.06833200 -0.02948400
v -0.02666000 0.06833200 -0.02948400
v -0.02439700 0.06833200 -0.03138200
v -0.02439700 0.06833200 -0.03138200
v -0.02439700 0.06833200 -0.03138200
v -0.02200100 0.06833200 -0.03310600
v -0.02200100 0.06833200 -0.03310600
v -0.02200100 0.06833200 -0.03310600
v -0.01948300 0.06833200 -0.03464800
v -0.01948300 0.06833200 -0.03464800
v -0.01948300 0.06833200 -0.03464800
v -0.01685700 0.06833200 -0.03599900
v -0.01685700 0.06833200 -0.03599900
v -0.01685700 0.06833200 -0.03599900
v -0.01413900 0.06833200 -0.03715000
v -0.01413900 0.06833200 -0.03715000
v -0.01413900 0.06833200 -0.03715000
v -0.01413900 0.06833200 -0.03715000
v -0.01134200 0.06833200 -0.03809700
v -0.01134200 0.06833200 -0.03809700
v -0.01134200 0.06833200 -0.03809700
v -0.01134200 0.06833200 -0.03809700
v -0.00848300 0.06833200 -0.03883400
v -0.00848300 0.06833200 -0.03883400
v -0.00848300 0.06833200 -0.03883400
v -0.00557700 0.06833200 -0.03935700
v -0.00557700 0.06833200 -0.03935700
v -0.00557700 0.06833200 -0.03935700
v -0.00557700 0.06833200 -0.03935700
v -0.00264000 0.06833200 -0.03966200
v -0.00264000 0.06833200 -0.03966200
v -0.00264000 0.06833200 -0.03966200
v 0.00031100 0.06833200 -0.03974900
v 0.00031100 0.06833200 -0.03974900
v 0.00031100 0.06833200 -0.03974900
v 0.00326000 0.06833200 -0.03961600
v 0.00326000 0.06833200 -0.03961600
v 0.00326000 0.06833200 -0.03961600
v 0.00619200 0.06833200 -0.03926500
v 0.00619200 0.06833200 -0.03926500
v 0.00619200 0.06833200 -0.03926500
v 0.00908900 0.06833200 -0.03869700
v 0.00908900 0.06833200 -0.03869700
v 0.00908900 0.06833200 -0.03869700
v 0.01193700 0.06833200 -0.03791500
v 0.01193700 0.06833200 -0.03791500
v 0.01193700 0.06833200 -0.03791500
v 0.01471800 0.06833200 -0.03692500
v 0.01471800 0.06833200 -0.03692500
v 0.01471800 0.06833200 -0.03692500
v 0.01741800 0.06833200 -0.03573100
v 0.01741800 0.06833200 -0.03573100
v 0.01741800 0.06833200 -0.03573100
v 0.02002200 0.06833200 -0.03433900
v 0.02002200 0.06833200 -0.03433900
v 0.02002200 0.06833200 -0.03433900
v 0.02251600 0.06833200 -0.03275800
v 0.02251600 0.06833200 -0.03275800
v 0.02251600 0.06833200 -0.03275800
v 0.02488500 0.06833200 -0.03099700
v 0.02488500 0.06833200 -0.03099700
v 0.02488500 0.06833200 -0.03099700
v 0.02711700 0.06833200 -0.02906400
v 0.02711700 0.06833200 -0.02906400
v 0.02711700 0.06833200 -0.02906400
v 0.02920000 0.06833200 -0.02697100
v 0.02920000 0.06833200 -0.02697100
v 0.02920000 0.06833200 -0.02697100
v 0.03112100 0.06833200 -0.02472900
v 0.03112100 0.06833200 -0.02472900
v 0.03112100 0.06833200 -0.02472900
v 0.03287100 0.06833200 -0.02235100
v 0.03287100 0.06833200 -0.02235100
v 0.03287100 0.06833200 -0.02235100
v 0.03443900 0.06833200 -0.01984900
v 0.03443900 0.06833200 -0.01984900
v 0.03443900 0.06833200 -0.01984900
v 0.03581800 0.06833200 -0.01723800
v 0.03581800 0.06833200 -0.01723800
v 0.03581800 0.06833200 -0.01723800
v 0.03699800 0.06833200 -0.01453200
v 0.03699800 0.06833200 -0.01453200
v 0.03699800 0.06833200 -0.01453200
v 0.03797500 0.06833200 -0.01174600
v 0.03797500 0.06833200 -0.01174600
v 0.03797500 0.06833200 -0.01174600
v 0.03874200 0.06833200 -0.00889500
v 0.03874200 0.06833200 -0.00889500
v 0.03874200 0.06833200 -0.00889500
v 0.03929500 0.06833200 -0.00599500
v 0.03929500 0.06833200 -0.00599500
v 0.03929500 0.06833200 -0.00599500
v 0.03960300 0.06833200 -0.00341200
v 0.03960300 0.06833200 -0.00341200
v 0.03960300 0.06833200 -0.00341200
v 0.03974200 0.06833200 -0.00081400
v 0.03974200 0.06833200 -0.00081400
v 0.03974200 0.06833200 -0.00081400
v 0.03971000 0.06833200 0.00178700
v 0.03971000 0.06833200 0.00178700
v 0.03971000 0.06833200 0.00178700
v 0.03950800 0.06833200 0.00438000
v 0.03950800 0.06833200 0.00438000
v 0.03950800 0.06833200 0.00438000
v 0.03913700 0.06833200 0.00695500
v 0.03913700 0.06833200 0.00695500
v 0.03913700 0.06833200 0.00695500
v 0.03859800 0.06833200 0.00949900
v 0.03859800 0.06833200 0.00949900
v 0.03859800 0.06833200 0.00949900
v 0.03778700 0.06833200 0.01233800
v 0.03778700 0.06833200 0.01233800
v 0.03778700 0.06833200 0.01233800
v 0.03676700 0.06833200 0.01510900
v 0.03676700 0.06833200 0.01510900
v 0.03676700 0.06833200 0.01510900
v 0.03554400 0.06833200 0.01779600
v 0.03554400 0.06833200 0.01779600
v 0.03554400 0.06833200 0.01779600
v 0.03412500 0.06833200 0.02038500
v 0.03412500 0.06833200 0.02038500
v 0.03412500 0.06833200 0.02038500
v 0.03251700 0.06833200 0.02286200
v 0.03251700 0.06833200 0.02286200
v 0.03251700 0.06833200 0.02286200
v 0.03073100 0.06833200 0.02521300
v 0.03073100 0.06833200 0.02521300
v 0.03073100 0.06833200 0.02521300
v 0.02877500 0.06833200 0.02742400
v 0.02877500 0.06833200 0.02742400
v 0.02877500 0.06833200 0.02742400
v 0.02666000 0.06833200 0.02948400
v 0.02666000 0.06833200 0.02948400
v 0.02666000 0.06833200 0.02948400
v 0.02439700 0.06833200 0.03138200
v 0.02439700 0.06833200 0.03138200
v 0.02439700 0.06833200 0.03138200
v 0.02200100 0.06833200 0.03310600
v 0.02200100 0.06833200 0.03310600
v 0.02200100 0.06833200 0.03310600
v 0.01948300 0.06833200 0.03464800
v 0.01948300 0.06833200 0.03464800
v 0.01948300 0.06833200 0.03464800
v 0.01685700 0.06833200 0.03599900
v 0.01685700 0.06833200 0.03599900
v 0.01685700 0.06833200 0.03599900
v 0.01413900 0.06833200 0.03715000
v 0.01413900 0.06833200 0.03715000
v 0.01413900 0.06833200 0.03715000
v 0.01134200 0.06833200 0.03809700
v 0.01134200 0.06833200 0.03809700
v 0.01134200 0.06833200 0.03809700
v 0.00848300 0.06833200 0.03883400
v 0.00848300 0.06833200 0.03883400
v 0.00848300 0.06833200 0.03883400
v 0.00557700 0.06833200 0.03935700
v 0.00557700 0.06833200 0.03935700
v 0.00557700 0.06833200 0.03935700
v 0.00557700 0.06833200 0.03935700
v 0.00264000 0.06833200 0.03966200
v 0.00264000 0.06833200 0.03966200
v 0.00264000 0.06833200 0.03966200
v -0.00031100 0.06833200 0.03974900
v -0.00031100 0.06833200 0.03974900
v -0.00031100 0.06833200 0.03974900
v -0.00031100 0.06833200 0.03974900
v -0.00326000 0.06833200 0.03961600
v -0.00326000 0.06833200 0.03961600
v -0.00326000 0.06833200 0.03961600
v -0.00619200 0.06833200 0.03926500
v -0.00619200 0.06833200 0.03926500
v -0.00619200 0.06833200 0.03926500
v -0.00908900 0.06833200 0.03869700
v -0.00908900 0.06833200 0.03869700
v -0.00908900 0.06833200 0.03869700
v -0.01193700 0.06833200 0.03791500
v -0.01193700 0.06833200 0.03791500
v -0.01193700 0.06833200 0.03791500
v -0.01471800 0.06833200 0.03692500
v -0.01471800 0.06833200 0.03692500
v -0.01471800 0.06833200 0.03692500
v -0.01741800 0.06833200 0.03573100
v -0.01741800 0.06833200 0.03573100
v -0.01741800 0.06833200 0.03573100
v -0.02002200 0.06833200 0.03433900
v -0.02002200 0.06833200 0.03433900
v -0.02002200 0.06833200 0.03433900
v -0.02251600 0.06833200 0.03275800
v -0.02251600 0.06833200 0.03275800
v -0.02251600 0.06833200 0.03275800
v -0.02488500 0.06833200 0.03099700
v -0.02488500 0.06833200 0.03099700
v -0.02488500 0.06833200 0.03099700
v -0.02711700 0.06833200 0.02906400
v -0.02711700 0.06833200 0.02906400
v -0.02711700 0.06833200 0.02906400
v -0.02920000 0.06833200 0.02697100
v -0.02920000 0.06833200 0.02697100
v -0.02920000 0.06833200 0.02697100
v -0.03112100 0.06833200 0.02472900
v -0.03112100 0.06833200 0.02472900
v -0.03112100 0.06833200 0.02472900
v -0.03287100 0.06833200 0.02235100
v -0.03287100 0.06833200 0.02235100
v -0.03287100 0.06833200 0.02235100
v -0.03443900 0.06833200 0.01984900
v -0.03443900 0.06833200 0.01984900
v -0.03443900 0.06833200 0.01984900
v -0.03581800 0.06833200 0.01723800
v -0.03581800 0.06833200 0.01723800
v -0.03581800 0.06833200 0.01723800
v -0.03699800 0.06833200 0.01453200
v -0.03699800 0.06833200 0.01453200
v -0.03699800 0.06833200 0.01453200
v -0.03797500 0.06833200 0.01174600
v -0.03797500 0.06833200 0.01174600
v -0.03797500 0.06833200 0.01174600
v -0.03874200 0.06833200 0.00889500
v -0.03874200 0.06833200 0.00889500
v -0.03874200 0.06833200 0.00889500
v -0.03929500 0.06833200 0.00599500
v -0.03929500 0.06833200 0.00599500
v -0.03929500 0.06833200 0.00599500
v -0.03960300 0.06833200 0.00341200
v -0.03960300 0.06833200 0.00341200
v -0.03960300 0.06833200 0.00341200
v -0.03974200 0.06833200 0.00081400
v -0.03974200 0.06833200 0.00081400
v -0.03974200 0.06833200 0.00081400
v -0.03971000 0.06833200 -0.00178700
v -0.03971000 0.06833200 -0.00178700
v -0.03971000 0.06833200 -0.00178700
v -0.03950800 0.06833200 -0.00438000
v -0.03950800 0.06833200 -0.00438000
v -0.03950800 0.06833200 -0.00438000
v -0.03913700 0.06833200 -0.00695500
v -0.03913700 0.06833200 -0.00695500
v -0.03913700 0.06833200 -0.00695500
v -0.03859800 0.06833100 -0.00949900
v -0.03859800 0.06833100 -0.00949900
v -0.03859800 0.06833100 -0.00949900
v -0.03778700 0.06833100 -0.01233800
v -0.03778700 0.06833100 -0.01233800
v -0.03778700 0.06833100 -0.01233800
v -0.03676700 0.06833100 -0.01510900
v -0.03676700 0.06833100 -0.01510900
v -0.03676700 0.06833100 -0.01510900
v -0.03554400 0.06833100 -0.01779600
v -0.03554400 0.06833100 -0.01779600
v -0.03554400 0.06833100 -0.01779600
v -0.03412500 0.06833100 -0.02038500
v -0.03412500 0.06833100 -0.02038500
v -0.03412500 0.06833100 -0.02038500
v -0.03251700 0.06833100 -0.02286200
v -0.03251700 0.06833100 -0.02286200
v -0.03251700 0.06833100 -0.02286200
v -0.03073100 0.06833100 -0.02521300
v -0.03073100 0.06833100 -0.02521300
v -0.03073100 0.06833100 -0.02521300
v -0.02877500 0.06833100 -0.02742400
v -0.02877500 0.06833100 -0.02742400
v -0.02877500 0.06833100 -0.02742400
v -0.02666000 0.06833100 -0.02948400
v -0.02666000 0.06833100 -0.02948400
v -0.02666000 0.06833100 -0.02948400
v -0.02439700 0.06833100 -0.03138200
v -0.02439700 0.06833100 -0.03138200
v -0.02439700 0.06833100 -0.03138200
v -0.02200100 0.06833100 -0.03310600
v -0.02200100 0.06833100 -0.03310600
v -0.02200100 0.06833100 -0.03310600
v -0.01948300 0.06833100 -0.03464800
v -0.01948300 0.06833100 -0.03464800
v -0.01948300 0.06833100 -0.03464800
v -0.01685700 0.06833100 -0.03599900
v -0.01685700 0.06833100 -0.03599900
v -0.01685700 0.06833100 -0.03599900
v -0.01413900 0.06833100 -0.03715000
v -0.01413900 0.06833100 -0.03715000
v -0.01413900 0.06833100 -0.03715000
v -0.01134200 0.06833100 -0.03809700
v -0.01134200 0.06833100 -0.03809700
v -0.01134200 0.06833100 -0.03809700
v -0.00848300 0.06833100 -0.03883400
v -0.00848300 0.06833100 -0.03883400
v -0.00848300 0.06833100 -0.03883400
v -0.00557700 0.06833100 -0.03935700
v -0.00557700 0.06833100 -0.03935700
v -0.00557700 0.06833100 -0.03935700
v -0.00264000 0.06833100 -0.03966200
v -0.00264000 0.06833100 -0.03966200
v -0.00264000 0.06833100 -0.03966200
v 0.00031100 0.06833100 -0.03974900
v 0.00031100 0.06833100 -0.03974900
v 0.00031100 0.06833100 -0.03974900
v 0.00326000 0.06833100 -0.03961600
v 0.00326000 0.06833100 -0.03961600
v 0.00326000 0.06833100 -0.03961600
v 0.00619200 0.06833100 -0.03926500
v 0.00619200 0.06833100 -0.03926500
v 0.00619200 0.06833100 -0.03926500
v 0.00908900 0.06833100 -0.03869700
v 0.00908900 0.06833100 -0.03869700
v 0.00908900 0.06833100 -0.03869700
v 0.01193700 0.06833100 -0.03791500
v 0.01193700 0.06833100 -0.03791500
v 0.01193700 0.06833100 -0.03791500
v 0.01471800 0.06833100 -0.03692500
v 0.01471800 0.06833100 -0.03692500
v 0.01471800 0.06833100 -0.03692500
v 0.01741800 0.06833100 -0.03573100
v 0.01741800 0.06833100 -0.03573100
v 0.01741800 0.06833100 -0.03573100
v 0.02002200 0.06833100 -0.03433900
v 0.02002200 0.06833100 -0.03433900
v 0.02002200 0.06833100 -0.03433900
v 0.02251600 0.06833100 -0.03275800
v 0.02251600 0.06833100 -0.03275800
v 0.02251600 0.06833100 -0.03275800
v 0.02488500 0.06833100 -0.03099700
v 0.02488500 0.06833100 -0.03099700
v 0.02488500 0.06833100 -0.03099700
v 0.02711700 0.06833100 -0.02906400
v 0.02711700 0.06833100 -0.02906400
v 0.02711700 0.06833100 -0.02906400
v 0.02920000 0.06833100 -0.02697100
v 0.02920000 0.06833100 -0.02697100
v 0.02920000 0.06833100 -0.02697100
v 0.03112100 0.06833100 -0.02472900
v 0.03112100 0.06833100 -0.02472900
v 0.03112100 0.06833100 -0.02472900
v 0.03287100 0.06833100 -0.02235100
v 0.03287100 0.06833100 -0.02235100
v 0.03287100 0.06833100 -0.02235100
v 0.03443900 0.06833100 -0.01984900
v 0.03443900 0.06833100 -0.01984900
v 0.03443900 0.06833100 -0.01984900
v 0.03581800 0.06833100 -0.01723800
v 0.03581800 0.06833100 -0.01723800
v 0.03581800 0.06833100 -0.01723800
v 0.03699800 0.06833100 -0.01453200
v 0.03699800 0.06833100 -0.01453200
v 0.03699800 0.06833100 -0.01453200
v 0.03797500 0.06833100 -0.01174600
v 0.03797500 0.06833100 -0.01174600
v 0.03797500 0.06833100 -0.01174600
v 0.03874200 0.06833100 -0.00889500
v 0.03874200 0.06833100 -0.00889500
v 0.03874200 0.06833100 -0.00889500
v 0.03929500 0.06833100 -0.00599500
v 0.03929500 0.06833100 -0.00599500
v 0.03929500 0.06833100 -0.00599500
v 0.03960300 0.06833100 -0.00341200
v 0.03960300 0.06833100 -0.00341200
v 0.03960300 0.06833100 -0.00341200
v 0.03974200 0.06833100 -0.00081400
v 0.03974200 0.06833100 -0.00081400
v 0.03974200 0.06833100 -0.00081400
v 0.03971000 0.06833100 0.00178700
v 0.03971000 0.06833100 0.00178700
v 0.03971000 0.06833100 0.00178700
v 0.03950800 0.06833100 0.00438000
v 0.03950800 0.06833100 0.00438000
v 0.03950800 0.06833100 0.00438000
v 0.03913700 0.06833100 0.00695500
v 0.03913700 0.06833100 0.00695500
v 0.03913700 0.06833100 0.00695500
v 0.03859800 0.06833100 0.00949900
v 0.03859800 0.06833100 0.00949900
v 0.03859800 0.06833100 0.00949900
v 0.03778700 0.06833100 0.01233800
v 0.03778700 0.06833100 0.01233800
v 0.03778700 0.06833100 0.01233800
v 0.03676700 0.06833100 0.01510900
v 0.03676700 0.06833100 0.01510900
v 0.03676700 0.06833100 0.01510900
v 0.03554400 0.06833100 0.01779600
v 0.03554400 0.06833100 0.01779600
v 0.03554400 0.06833100 0.01779600
v 0.03412500 0.06833100 0.02038500
v 0.03412500 0.06833100 0.02038500
v 0.03412500 0.06833100 0.02038500
v 0.03251700 0.06833100 0.02286200
v 0.03251700 0.06833100 0.02286200
v 0.03251700 0.06833100 0.02286200
v 0.03073100 0.06833100 0.02521300
v 0.03073100 0.06833100 0.02521300
v 0.03073100 0.06833100 0.02521300
v 0.02877500 0.06833100 0.02742400
v 0.02877500 0.06833100 0.02742400
v 0.02877500 0.06833100 0.02742400
v 0.02666000 0.06833100 0.02948400
v 0.02666000 0.06833100 0.02948400
v 0.02666000 0.06833100 0.02948400
v 0.02439700 0.06833100 0.03138200
v 0.02439700 0.06833100 0.03138200
v 0.02439700 0.06833100 0.03138200
v 0.02200100 0.06833100 0.03310600
v 0.02200100 0.06833100 0.03310600
v 0.02200100 0.06833100 0.03310600
v 0.01948300 0.06833100 0.03464800
v 0.01948300 0.06833100 0.03464800
v 0.01948300 0.06833100 0.03464800
v 0.01685700 0.06833100 0.03599900
v 0.01685700 0.06833100 0.03599900
v 0.01685700 0.06833100 0.03599900
v 0.01413900 0.06833100 0.03715000
v 0.01413900 0.06833100 0.03715000
v 0.01413900 0.06833100 0.03715000
v 0.01134200 0.06833100 0.03809700
v 0.01134200 0.06833100 0.03809700
v 0.01134200 0.06833100 0.03809700
v 0.00848300 0.06833100 0.03883400
v 0.00848300 0.06833100 0.03883400
v 0.00848300 0.06833100 0.03883400
v 0.00557700 0.06833100 0.03935700
v 0.00557700 0.06833100 0.03935700
v 0.00557700 0.06833100 0.03935700
v 0.00264000 0.06833100 0.03966200
v 0.00264000 0.06833100 0.03966200
v 0.00264000 0.06833100 0.03966200
v -0.00031100 0.06833100 0.03974900
v -0.00031100 0.06833100 0.03974900
v -0.00031100 0.06833100 0.03974900
v -0.00326000 0.06833100 0.03961600
v -0.00326000 0.06833100 0.03961600
v -0.00326000 0.06833100 0.03961600
v -0.00619200 0.06833100 0.03926500
v -0.00619200 0.06833100 0.03926500
v -0.00619200 0.06833100 0.03926500
v -0.00908900 0.06833100 0.03869700
v -0.00908900 0.06833100 0.03869700
v -0.00908900 0.06833100 0.03869700
v -0.01193700 0.06833100 0.03791500
v -0.01193700 0.06833100 0.03791500
v -0.01193700 0.06833100 0.03791500
v -0.01471800 0.06833100 0.03692500
v -0.01471800 0.06833100 0.03692500
v -0.01471800 0.06833100 0.03692500
v -0.01741800 0.06833100 0.03573100
v -0.01741800 0.06833100 0.03573100
v -0.01741800 0.06833100 0.03573100
v -0.02002200 0.06833100 0.03433900
v -0.02002200 0.06833100 0.03433900
v -0.02002200 0.06833100 0.03433900
v -0.02251600 0.06833100 0.03275800
v -0.02251600 0.06833100 0.03275800
v -0.02251600 0.06833100 0.03275800
v -0.02488500 0.06833100 0.03099700
v -0.02488500 0.06833100 0.03099700
v -0.02488500 0.06833100 0.03099700
v -0.02711700 0.06833100 0.02906400
v -0.02711700 0.06833100 0.02906400
v -0.02711700 0.06833100 0.02906400
v -0.02920000 0.06833100 0.02697100
v -0.02920000 0.06833100 0.02697100
v -0.02920000 0.06833100 0.02697100
v -0.03112100 0.06833100 0.02472900
v -0.03112100 0.06833100 0.02472900
v -0.03112100 0.06833100 0.02472900
v -0.03287100 0.06833100 0.02235100
v -0.03287100 0.06833100 0.02235100
v -0.03287100 0.06833100 0.02235100
v -0.03443900 0.06833100 0.01984900
v -0.03443900 0.06833100 0.01984900
v -0.03443900 0.06833100 0.01984900
v -0.03581800 0.06833100 0.01723800
v -0.03581800 0.06833100 0.01723800
v -0.03581800 0.06833100 0.01723800
v -0.03699800 0.06833100 0.01453200
v -0.03699800 0.06833100 0.01453200
v -0.03699800 0.06833100 0.01453200
v -0.03797500 0.06833100 0.01174600
v -0.03797500 0.06833100 0.01174600
v -0.03797500 0.06833100 0.01174600
v -0.03874200 0.06833100 0.00889500
v -0.03874200 0.06833100 0.00889500
v -0.03874200 0.06833100 0.00889500
v -0.03929500 0.06833100 0.00599500
v -0.03929500 0.06833100 0.00599500
v -0.03929500 0.06833100 0.00599500
v -0.03960300 0.06833100 0.00341200
v -0.03960300 0.06833100 0.00341200
v -0.03960300 0.06833100 0.00341200
v -0.03974200 0.06833100 0.00081400
v -0.03974200 0.06833100 0.00081400
v -0.03974200 0.06833100 0.00081400
v -0.03971000 0.06833100 -0.00178700
v -0.03971000 0.06833100 -0.00178700
v -0.03971000 0.06833100 -0.00178700
v -0.03950800 0.06833100 -0.00438000
v -0.03950800 0.06833100 -0.00438000
v -0.03950800 0.06833100 -0.00438000
v -0.03913700 0.06833100 -0.00695500
v -0.03913700 0.06833100 -0.00695500
v -0.03913700 0.06833100 -0.00695500
vn 0.00000000 1.00000000 0.00000000
vn -0.96130000 0.00000000 -0.27560000
vn -0.97830000 0.00000000 -0.20720000
vn -0.93840000 0.00000000 -0.34550000
vn 0.00000000 1.00000000 0.00000000
vn -0.96130000 0.00000000 -0.27560000
vn -0.91020000 0.00000000 -0.41410000
vn -0.93840000 0.00000000 -0.34550000
vn 0.00000000 1.00000000 0.00000000
vn -0.87710000 0.00000000 -0.48030000
vn -0.91020000 0.00000000 -0.41410000
vn 0.00000000 1.00000000 0.00000000
vn -0.87710000 0.00000000 -0.48030000
vn -0.83790000 0.00000000 -0.54580000
vn 0.00000000 1.00000000 0.00000000
vn -0.83790000 0.00000000 -0.54580000
vn -0.79490000 0.00000000 -0.60670000
vn 0.00000000 1.00000000 0.00000000
vn -0.74950000 0.00000000 -0.66200000
vn 0.00000000 1.00000000 0.00000000
vn -0.79490000 0.00000000 -0.60670000
vn -0.74950000 0.00000000 -0.66200000
vn -0.69820000 0.00000000 -0.71590000
vn 0.00000000 1.00000000 0.00000000
vn -0.64350000 0.00000000 -0.76540000
vn 0.00000000 1.00000000 0.00000000
vn -0.69820000 0.00000000 -0.71590000
vn -0.64350000 0.00000000 -0.76540000
vn -0.58320000 0.00000000 -0.81230000
vn 0.00000000 1.00000000 0.00000000
vn 0.00000000 1.00000000 0.00000000
vn -0.58320000 0.00000000 -0.81230000
vn -0.52230000 0.00000000 -0.85280000
vn 0.00000000 1.00000000 0.00000000
vn -0.45840000 0.00000000 -0.88880000
vn -0.52230000 0.00000000 -0.85280000
vn -0.45840000 0.00000000 -0.88880000
vn -0.39000000 0.00000000 -0.92080000
vn 0.00000000 1.00000000 0.00000000
vn -0.32120000 0.00000000 -0.94700000
vn 0.00000000 1.00000000 -0.00010000
vn -0.39000000 0.00000000 -0.92080000
vn 0.00000000 1.00000000 0.00000000
vn -0.25030000 0.00000000 -0.96820000
vn -0.32120000 0.00000000 -0.94700000
vn 0.00000000 1.00000000 0.00000000
vn 0.00000000 1.00000000 -0.00010000
vn -0.25030000 0.00000000 -0.96820000
vn 0.00000000 1.00000000 0.00000000
vn -0.17690000 0.00000000 -0.98420000
vn 0.00000000 1.00000000 0.00000000
vn -0.17690000 0.00000000 -0.98420000
vn -0.10340000 0.00000000 -0.99460000
vn 0.00000000 1.00000000 -0.00010000
vn -0.02930000 0.00000000 -0.99960000
vn -0.10340000 0.00000000 -0.99460000
vn 0.00000000 1.00000000 0.00000000
vn 0.00000000 1.00000000 0.00000000
vn 0.04490000 0.00000000 -0.99900000
vn -0.02930000 0.00000000 -0.99960000
vn 0.11880000 0.00000000 -0.99290000
vn 0.04490000 0.00000000 -0.99900000
vn 0.00000000 1.00000000 0.00000000
vn 0.19170000 0.00000000 -0.98150000
vn 0.11880000 0.00000000 -0.99290000
vn 0.00000000 1.00000000 0.00000000
vn 0.19170000 0.00000000 -0.98150000
vn 0.26440000 0.00000000 -0.96440000
vn 0.00000000 1.00000000 0.00000000
vn 0.33590000 0.00000000 -0.94190000
vn 0.26440000 0.00000000 -0.96440000
vn 0.00000000 1.00000000 0.00000000
vn 0.33590000 0.00000000 -0.94190000
vn 0.40570000 0.00000000 -0.91400000
vn 0.00000000 1.00000000 0.00000000
vn 0.40570000 0.00000000 -0.91400000
vn 0.00000000 1.00000000 0.00000000
vn 0.47130000 0.00000000 -0.88200000
vn 0.47130000 0.00000000 -0.88200000
vn 0.00000000 1.00000000 0.00000000
vn 0.53400000 0.00000000 -0.84550000
vn 0.00000000 1.00000000 0.00000000
vn 0.59850000 0.00000000 -0.80110000
vn 0.53400000 0.00000000 -0.84550000
vn 0.65280000 0.00000000 -0.75750000
vn 0.59850000 0.00000000 -0.80110000
vn 0.00000000 1.00000000 0.00000000
vn 0.00000000 1.00000000 0.00000000
vn 0.70870000 0.00000000 -0.70550000
vn 0.65280000 0.00000000 -0.75750000
vn 0.70870000 0.00000000 -0.70550000
vn 0.75880000 0.00000000 -0.65130000
vn 0.00000000 1.00000000 0.00000000
vn 0.75880000 0.00000000 -0.65130000
vn 0.00000000 1.00000000 0.00000000
vn 0.80530000 0.00000000 -0.59280000
vn 0.80530000 0.00000000 -0.59280000
vn 0.84700000 0.00000000 -0.53150000
vn 0.00000000 1.00000000 0.00000000
vn 0.00000000 1.00000000 0.00000000
vn 0.88390000 0.00000000 -0.46770000
vn 0.84700000 0.00000000 -0.53150000
vn 0.88390000 0.00000000 -0.46770000
vn 0.00000000 1.00000000 0.00000000
vn 0.91680000 0.00000000 -0.39940000
vn 0.00000000 1.00000000 0.00000000
vn 0.91680000 0.00000000 -0.39940000
vn 0.94370000 0.00000000 -0.33080000
vn 0.96570000 0.00000000 -0.25970000
vn 0.94370000 0.00000000 -0.33080000
vn 0.00000000 1.00000000 0.00000000
vn 0.98230000 0.00000000 -0.18740000
vn 0.96570000 0.00000000 -0.25970000
vn 0.00000000 1.00000000 0.00000000
vn 0.98230000 0.00000000 -0.18740000
vn 0.99290000 0.00000000 -0.11890000
vn 0.00000000 1.00000000 0.00000000
vn 0.00000000 1.00000000 0.00000000
vn 0.99290000 0.00000000 -0.11890000
vn 0.99860000 0.00000000 -0.05320000
vn 0.99990000 0.00000000 0.01230000
vn 0.00000000 1.00000000 0.00000000
vn 0.99860000 0.00000000 -0.05320000
vn 0.00000000 1.00000000 0.00000000
vn 0.99990000 0.00000000 0.01230000
vn 0.99700000 0.00000000 0.07790000
vn 0.99700000 0.00000000 0.07790000
vn 0.00000000 1.00000000 0.00000000
vn 0.98980000 0.00000000 0.14250000
vn 0.00000000 1.00000000 0.00000000
vn 0.97830000 0.00000000 0.20720000
vn 0.98980000 0.00000000 0.14250000
vn 0.97830000 0.00000000 0.20720000
vn 0.00000000 1.00000000 0.00000000
vn 0.96130000 0.00000000 0.27560000
vn 0.96130000 0.00000000 0.27560000
vn 0.93840000 0.00000000 0.34550000
vn 0.00000000 1.00000000 0.00000000
vn 0.00000000 1.00000000 0.00000000
vn 0.91020000 0.00000000 0.41410000
vn 0.93840000 0.00000000 0.34550000
vn 0.91020000 0.00000000 0.41410000
vn 0.00000000 1.00000000 0.00000000
vn 0.87710000 0.00000000 0.48030000
vn 0.87710000 0.00000000 0.48030000
vn 0.00000000 1.00000000 0.00000000
vn 0.83790000 0.00000000 0.54580000
vn 0.00000000 1.00000000 0.00000000
vn 0.79490000 0.00000000 0.60670000
vn 0.83790000 0.00000000 0.54580000
vn 0.74950000 0.00000000 0.66200000
vn 0.00000000 1.00000000 0.00000000
vn 0.79490000 0.00000000 0.60670000
vn 0.69820000 0.00000000 0.71590000
vn 0.74950000 0.00000000 0.66200000
vn 0.00000000 1.00000000 0.00000000
vn 0.69820000 0.00000000 0.71590000
vn 0.64350000 0.00000000 0.76540000
vn 0.00000000 1.00000000 0.00000000
vn 0.64350000 0.00000000 0.76540000
vn 0.58320000 0.00000000 0.81230000
vn 0.00000000 1.00000000 0.00000000
vn 0.00000000 1.00000000 0.00000000
vn 0.58320000 0.00000000 0.81230000
vn 0.52230000 0.00000000 0.85280000
vn 0.45840000 0.00000000 0.88880000
vn 0.00000000 1.00000000 0.00000000
vn 0.52230000 0.00000000 0.85280000
vn 0.39000000 0.00000000 0.92080000
vn 0.45840000 0.00000000 0.88880000
vn 0.00000000 1.00000000 0.00000000
vn 0.32120000 0.00000000 0.94700000
vn 0.00000000 1.00000000 0.00000000
vn 0.39000000 0.00000000 0.92080000
vn 0.25030000 0.00000000 0.96820000
vn 0.32120000 0.00000000 0.94700000
vn 0.00000000 1.00000000 0.00000000
vn 0.00000000 1.00000000 0.00000000
vn 0.25030000 0.00000000 0.96820000
vn 0.17690000 0.00000000 0.98420000
vn 0.17690000 0.00000000 0.98420000
vn 0.00000000 1.00000000 0.00000000
vn 0.00000000 1.00000000 -0.00010000
vn 0.10340000 0.00000000 0.99460000
vn 0.10340000 0.00000000 0.99460000
vn 0.02930000 0.00000000 0.99960000
vn 0.00000000 1.00000000 -0.00010000
vn 0.00000000 1.00000000 0.00000000
vn -0.04490000 0.00000000 0.99900000
vn 0.02930000 0.00000000 0.99960000
vn 0.00000000 1.00000000 -0.00010000
vn -0.04490000 0.00000000 0.99900000
vn -0.11880000 0.00000000 0.99290000
vn 0.00000000 1.00000000 0.00000000
vn -0.19170000 0.00000000 0.98150000
vn 0.00000000 1.00000000 0.00000000
vn -0.11880000 0.00000000 0.99290000
vn -0.26440000 0.00000000 0.96440000
vn -0.19170000 0.00000000 0.98150000
vn 0.00000000 1.00000000 0.00000000
vn 0.00000000 1.00000000 0.00000000
vn -0.26440000 0.00000000 0.96440000
vn -0.33590000 0.00000000 0.94190000
vn -0.40570000 0.00000000 0.91400000
vn 0.00000000 1.00000000 0.00000000
vn -0.33590000 0.00000000 0.94190000
vn -0.47130000 0.00000000 0.88200000
vn -0.40570000 0.00000000 0.91400000
vn 0.00000000 1.00000000 0.00000000
vn -0.47130000 0.00000000 0.88200000
vn 0.00000000 1.00000000 0.00000000
vn -0.53400000 0.00000000 0.84550000
vn -0.59850000 0.00000000 0.80110000
vn 0.00000000 1.00000000 0.00000000
vn -0.53400000 0.00000000 0.84550000
vn 0.00000000 1.00000000 0.00000000
vn -0.59850000 0.00000000 0.80110000
vn -0.65280000 0.00000000 0.75750000
vn -0.70870000 0.00000000 0.70550000
vn -0.65280000 0.00000000 0.75750000
vn 0.00000000 1.00000000 0.00000000
vn -0.70870000 0.00000000 0.70550000
vn -0.75880000 0.00000000 0.65130000
vn 0.00000000 1.00000000 0.00000000
vn -0.80530000 0.00000000 0.59280000
vn 0.00000000 1.00000000 0.00000000
vn -0.75880000 0.00000000 0.65130000
vn -0.84700000 0.00000000 0.53150000
vn 0.00000000 1.00000000 0.00000000
vn -0.80530000 0.00000000 0.59280000
vn -0.88390000 0.00000000 0.46770000
vn -0.84700000 0.00000000 0.53150000
vn 0.00000000 1.00000000 0.00000000
vn -0.88390000 0.00000000 0.46770000
vn -0.91680000 0.00000000 0.39940000
vn 0.00000000 1.00000000 0.00000000
vn 0.00000000 1.00000000 0.00000000
vn -0.91680000 0.00000000 0.39940000
vn -0.94370000 0.00000000 0.33080000
vn 0.00000000 1.00000000 0.00000000
vn -0.96570000 0.00000000 0.25970000
vn -0.94370000 0.00000000 0.33080000
vn 0.00000000 1.00000000 0.00000000
vn -0.98230000 0.00000000 0.18740000
vn -0.96570000 0.00000000 0.25970000
vn -0.98230000 0.00000000 0.18740000
vn -0.99290000 0.00000000 0.11890000
vn 0.00000000 1.00000000 0.00000000
vn 0.00000000 1.00000000 0.00000000
vn -0.99290000 0.00000000 0.11890000
vn -0.99860000 0.00000000 0.05320000
vn -0.99860000 0.00000000 0.05320000
vn -0.99990000 0.00000000 -0.01230000
vn 0.00000000 1.00000000 0.00000000
vn -0.99990000 0.00000000 -0.01230000
vn 0.00000000 1.00000000 0.00000000
vn -0.99700000 0.00000000 -0.07790000
vn -0.98980000 0.00000000 -0.14250000
vn -0.99700000 0.00000000 -0.07790000
vn 0.00000000 1.00000000 0.00000000
vn -0.98980000 0.00000000 -0.14250000
vn 0.00000000 1.00000000 0.00000000
vn -0.97830000 0.00000000 -0.20720000
vn -0.97830000 0.00000000 -0.20720000
vn 0.00000000 -1.00000000 -0.00000000
vn -0.96130000 0.00000000 -0.27560000
vn -0.93840000 0.00000000 -0.34550000
vn -0.96130000 0.00000000 -0.27560000
vn 0.00000000 -1.00000000 -0.00000000
vn -0.91020000 0.00000000 -0.41410000
vn -0.93840000 0.00000000 -0.34550000
vn 0.00000000 -1.00000000 -0.00000000
vn -0.87710000 0.00000000 -0.48030000
vn -0.91020000 0.00000000 -0.41410000
vn 0.00000000 -1.00000000 -0.00000000
vn -0.87710000 0.00000000 -0.48030000
vn -0.83790000 0.00000000 -0.54580000
vn 0.00000000 -1.00000000 -0.00000000
vn 0.00000000 -1.00000000 -0.00000000
vn -0.79490000 0.00000000 -0.60670000
vn -0.83790000 0.00000000 -0.54580000
vn -0.79490000 0.00000000 -0.60670000
vn -0.74950000 0.00000000 -0.66200000
vn 0.00000000 -1.00000000 -0.00000000
vn -0.74950000 0.00000000 -0.66200000
vn 0.00000000 -1.00000000 -0.00000000
vn -0.69820000 0.00000000 -0.71590000
vn -0.69820000 0.00000000 -0.71590000
vn -0.64350000 0.00000000 -0.76540000
vn 0.00000000 -1.00000000 -0.00000000
vn -0.58320000 0.00000000 -0.81230000
vn -0.64350000 0.00000000 -0.76540000
vn 0.00000000 -1.00000000 -0.00000000
vn -0.52230000 0.00000000 -0.85280000
vn -0.58320000 0.00000000 -0.81230000
vn 0.00000000 -1.00000000 -0.00000000
vn 0.00000000 -1.00000000 -0.00000000
vn -0.45840000 0.00000000 -0.88880000
vn -0.52230000 0.00000000 -0.85280000
vn -0.39000000 0.00000000 -0.92080000
vn -0.45840000 0.00000000 -0.88880000
vn 0.00000000 -1.00000000 -0.00000000
vn -0.39000000 0.00000000 -0.92080000
vn -0.32120000 0.00000000 -0.94700000
vn 0.00000000 -1.00000000 -0.00000000
vn -0.32120000 0.00000000 -0.94700000
vn -0.25030000 0.00000000 -0.96820000
vn 0.00000000 -1.00000000 -0.00000000
vn 0.00000000 -1.00000000 -0.00000000
vn -0.17690000 0.00000000 -0.98420000
vn -0.25030000 0.00000000 -0.96820000
vn -0.17690000 0.00000000 -0.98420000
vn -0.10340000 0.00000000 -0.99460000
vn 0.00000000 -1.00000000 -0.00000000
vn -0.02930000 0.00000000 -0.99960000
vn -0.10340000 0.00000000 -0.99460000
vn 0.00000000 -1.00000000 -0.00000000
vn 0.04490000 0.00000000 -0.99900000
vn -0.02930000 0.00000000 -0.99960000
vn 0.00000000 -1.00000000 -0.00000000
vn 0.04490000 0.00000000 -0.99900000
vn 0.00000000 -1.00000000 -0.00000000
vn 0.11880000 0.00000000 -0.99290000
vn 0.19170000 0.00000000 -0.98150000
vn 0.11880000 0.00000000 -0.99290000
vn 0.00000000 -1.00000000 -0.00000000
vn 0.19170000 0.00000000 -0.98150000
vn 0.00000000 -1.00000000 -0.00000000
vn 0.26440000 0.00000000 -0.96440000
vn 0.33590000 0.00000000 -0.94190000
vn 0.00000000 -1.00000000 -0.00000000
vn 0.26440000 0.00000000 -0.96440000
vn 0.40570000 0.00000000 -0.91400000
vn 0.33590000 0.00000000 -0.94190000
vn 0.00000000 -1.00000000 -0.00000000
vn 0.00000000 -1.00000000 -0.00000000
vn 0.40570000 0.00000000 -0.91400000
vn 0.47130000 0.00000000 -0.88200000
vn 0.00000000 -1.00000000 -0.00000000
vn 0.53400000 0.00000000 -0.84550000
vn 0.47130000 0.00000000 -0.88200000
vn 0.59850000 0.00000000 -0.80110000
vn 0.53400000 0.00000000 -0.84550000
vn 0.00000000 -1.00000000 -0.00000000
vn 0.65280000 0.00000000 -0.75750000
vn 0.59850000 0.00000000 -0.80110000
vn 0.00000000 -1.00000000 -0.00000000
vn 0.00000000 -1.00000000 -0.00000000
vn 0.70870000 0.00000000 -0.70550000
vn 0.65280000 0.00000000 -0.75750000
vn 0.00000000 -1.00000000 -0.00000000
vn 0.70870000 0.00000000 -0.70550000
vn 0.75880000 0.00000000 -0.65130000
vn 0.80530000 0.00000000 -0.59280000
vn 0.00000000 -1.00000000 -0.00000000
vn 0.75880000 0.00000000 -0.65130000
vn 0.84700000 0.00000000 -0.53150000
vn 0.80530000 0.00000000 -0.59280000
vn 0.00000000 -1.00000000 -0.00000000
vn 0.00000000 -1.00000000 -0.00000000
vn 0.88390000 0.00000000 -0.46770000
vn 0.84700000 0.00000000 -0.53150000
vn 0.88390000 0.00000000 -0.46770000
vn 0.91680000 0.00000000 -0.39940000
vn 0.00000000 -1.00000000 -0.00000000
vn 0.94370000 0.00000000 -0.33080000
vn 0.91680000 0.00000000 -0.39940000
vn 0.00000000 -1.00000000 -0.00000000
vn 0.94370000 0.00000000 -0.33080000
vn 0.00000000 -1.00000000 -0.00000000
vn 0.96570000 0.00000000 -0.25970000
vn 0.98230000 0.00000000 -0.18740000
vn 0.96570000 0.00000000 -0.25970000
vn 0.00000000 -1.00000000 -0.00000000
vn 0.99290000 0.00000000 -0.11890000
vn 0.98230000 0.00000000 -0.18740000
vn 0.00000000 -1.00000000 -0.00000000
vn 0.00000000 -1.00000000 -0.00000000
vn 0.99860000 0.00000000 -0.05320000
vn 0.99290000 0.00000000 -0.11890000
vn 0.99860000 0.00000000 -0.05320000
vn 0.00000000 -1.00000000 -0.00000000
vn 0.99990000 0.00000000 0.01230000
vn 0.00000000 -1.00000000 -0.00000000
vn 0.99990000 0.00000000 0.01230000
vn 0.99700000 0.00000000 0.07790000
vn 0.98980000 0.00000000 0.14250000
vn 0.00000000 -1.00000000 -0.00000000
vn 0.99700000 0.00000000 0.07790000
vn 0.97830000 0.00000000 0.20720000
vn 0.00000000 -1.00000000 -0.00000000
vn 0.98980000 0.00000000 0.14250000
vn 0.97830000 0.00000000 0.20720000
vn 0.00000000 -1.00000000 -0.00000000
vn 0.96130000 0.00000000 0.27560000
vn 0.93840000 0.00000000 0.34550000
vn 0.00000000 -1.00000000 -0.00000000
vn 0.96130000 0.00000000 0.27560000
vn 0.93840000 0.00000000 0.34550000
vn 0.91020000 0.00000000 0.41410000
vn 0.00000000 -1.00000000 -0.00000000
vn 0.91020000 0.00000000 0.41410000
vn 0.87710000 0.00000000 0.48030000
vn 0.00000000 -1.00000000 -0.00000000
vn 0.87710000 0.00000000 0.48030000
vn 0.00000000 -1.00000000 -0.00000000
vn 0.83790000 0.00000000 0.54580000
vn 0.83790000 0.00000000 0.54580000
vn 0.00000000 -1.00000000 -0.00000000
vn 0.79490000 0.00000000 0.60670000
vn 0.74950000 0.00000000 0.66200000
vn 0.00000000 -1.00000000 -0.00000000
vn 0.79490000 0.00000000 0.60670000
vn 0.74950000 0.00000000 0.66200000
vn 0.69820000 0.00000000 0.71590000
vn 0.00000000 -1.00000000 -0.00000000
vn 0.69820000 0.00000000 0.71590000
vn 0.64350000 0.00000000 0.76540000
vn 0.00000000 -1.00000000 -0.00000000
vn 0.58320000 0.00000000 0.81230000
vn 0.64350000 0.00000000 0.76540000
vn 0.00000000 -1.00000000 -0.00000000
vn 0.58320000 0.00000000 0.81230000
vn 0.52230000 0.00000000 0.85280000
vn 0.00000000 -1.00000000 -0.00000000
vn 0.45840000 0.00000000 0.88880000
vn 0.52230000 0.00000000 0.85280000
vn 0.00000000 -1.00000000 -0.00000000
vn 0.39000000 0.00000000 0.92080000
vn 0.00000000 -1.00000000 -0.00000000
vn 0.45840000 0.00000000 0.88880000
vn 0.32120000 0.00000000 0.94700000
vn 0.00000000 -1.00000000 -0.00000000
vn 0.39000000 0.00000000 0.92080000
vn 0.32120000 0.00000000 0.94700000
vn 0.00000000 -1.00000000 -0.00000000
vn 0.25030000 0.00000000 0.96820000
vn 0.00000000 -1.00000000 -0.00000000
vn 0.25030000 0.00000000 0.96820000
vn 0.17690000 0.00000000 0.98420000
vn 0.10340000 0.00000000 0.99460000
vn 0.00000000 -1.00000000 -0.00000000
vn 0.17690000 0.00000000 0.98420000
vn 0.10340000 0.00000000 0.99460000
vn 0.00000000 -1.00000000 -0.00000000
vn 0.02930000 0.00000000 0.99960000
vn 0.00000000 -1.00000000 -0.00000000
vn -0.04490000 0.00000000 0.99900000
vn 0.02930000 0.00000000 0.99960000
vn -0.04490000 0.00000000 0.99900000
vn -0.11880000 0.00000000 0.99290000
vn 0.00000000 -1.00000000 -0.00000000
vn 0.00000000 -1.00000000 -0.00000000
vn -0.19170000 0.00000000 0.98150000
vn -0.11880000 0.00000000 0.99290000
vn -0.19170000 0.00000000 0.98150000
vn -0.26440000 0.00000000 0.96440000
vn 0.00000000 -1.00000000 -0.00000000
vn -0.26440000 0.00000000 0.96440000
vn -0.33590000 0.00000000 0.94190000
vn 0.00000000 -1.00000000 -0.00000000
vn 0.00000000 -1.00000000 -0.00000000
vn -0.40570000 0.00000000 0.91400000
vn -0.33590000 0.00000000 0.94190000
vn 0.00000000 -1.00000000 -0.00000000
vn -0.40570000 0.00000000 0.91400000
vn -0.47130000 0.00000000 0.88200000
vn -0.53400000 0.00000000 0.84550000
vn -0.47130000 0.00000000 0.88200000
vn 0.00000000 -1.00000000 -0.00000000
vn 0.00000000 -1.00000000 -0.00000000
vn -0.53400000 0.00000000 0.84550000
vn -0.59850000 0.00000000 0.80110000
vn -0.59850000 0.00000000 0.80110000
vn -0.65280000 0.00000000 0.75750000
vn 0.00000000 -1.00000000 -0.00000000
vn -0.70870000 0.00000000 0.70550000
vn 0.00000000 -1.00000000 -0.00000000
vn -0.65280000 0.00000000 0.75750000
vn 0.00000000 -1.00000000 -0.00000000
vn -0.75880000 0.00000000 0.65130000
vn -0.70870000 0.00000000 0.70550000
vn -0.80530000 0.00000000 0.59280000
vn 0.00000000 -1.00000000 -0.00000000
vn -0.75880000 0.00000000 0.65130000
vn -0.80530000 0.00000000 0.59280000
vn -0.84700000 0.00000000 0.53150000
vn 0.00000000 -1.00000000 -0.00000000
vn 0.00000000 -1.00000000 -0.00000000
vn -0.84700000 0.00000000 0.53150000
vn -0.88390000 0.00000000 0.46770000
vn -0.88390000 0.00000000 0.46770000
vn 0.00000000 -1.00000000 -0.00000000
vn -0.91680000 0.00000000 0.39940000
vn 0.00000000 -1.00000000 -0.00000000
vn -0.94370000 0.00000000 0.33080000
vn -0.91680000 0.00000000 0.39940000
vn 0.00000000 -1.00000000 -0.00000000
vn -0.96570000 0.00000000 0.25970000
vn -0.94370000 0.00000000 0.33080000
vn -0.98230000 0.00000000 0.18740000
vn -0.96570000 0.00000000 0.25970000
vn 0.00000000 -1.00000000 -0.00000000
vn -0.99290000 0.00000000 0.11890000
vn -0.98230000 0.00000000 0.18740000
vn 0.00000000 -1.00000000 -0.00000000
vn -0.99290000 0.00000000 0.11890000
vn -0.99860000 0.00000000 0.05320000
vn 0.00000000 -1.00000000 -0.00000000
vn -0.99990000 0.00000000 -0.01230000
vn -0.99860000 0.00000000 0.05320000
vn 0.00000000 -1.00000000 -0.00000000
vn -0.99990000 0.00000000 -0.01230000
vn 0.00000000 -1.00000000 -0.00000000
vn -0.99700000 0.00000000 -0.07790000
vn 0.00000000 -1.00000000 -0.00000000
vn -0.98980000 0.00000000 -0.14250000
vn -0.99700000 0.00000000 -0.07790000
vn -0.98980000 0.00000000 -0.14250000
vn 0.00000000 -1.00000000 -0.00000000
vn -0.97830000 0.00000000 -0.20720000
vt 0.80162500 0.31751900
vt 0.80162500 0.31751900
vt 0.80162500 0.31751900
vt 0.81433800 0.34041100
vt 0.81433800 0.34041100
vt 0.81433800 0.34041100
vt 0.82531600 0.36418300
vt 0.82531600 0.36418300
vt 0.82531600 0.36418300
vt 0.83450000 0.38870500
vt 0.83450000 0.38870500
vt 0.83450000 0.38870500
vt 0.84183800 0.41384000
vt 0.84183800 0.41384000
vt 0.84183800 0.41384000
vt 0.84729100 0.43945100
vt 0.84729100 0.43945100
vt 0.84729100 0.43945100
vt 0.85082700 0.46539600
vt 0.85082700 0.46539600
vt 0.85082700 0.46539600
vt 0.85242800 0.49153200
vt 0.85242800 0.49153200
vt 0.85242800 0.49153200
vt 0.85208400 0.51771500
vt 0.85208400 0.51771500
vt 0.85208400 0.51771500
vt 0.84979800 0.54380000
vt 0.84979800 0.54380000
vt 0.84979800 0.54380000
vt 0.84558200 0.56964300
vt 0.84558200 0.56964300
vt 0.84558200 0.56964300
vt 0.83945900 0.59510200
vt 0.83945900 0.59510200
vt 0.83945900 0.59510200
vt 0.83146400 0.62003700
vt 0.83146400 0.62003700
vt 0.83146400 0.62003700
vt 0.82164000 0.64430900
vt 0.82164000 0.64430900
vt 0.82164000 0.64430900
vt 0.82164000 0.64430900
vt 0.81004100 0.66778500
vt 0.81004100 0.66778500
vt 0.81004100 0.66778500
vt 0.81004100 0.66778500
vt 0.79673200 0.69033500
vt 0.79673200 0.69033500
vt 0.79673200 0.69033500
vt 0.78178500 0.71183500
vt 0.78178500 0.71183500
vt 0.78178500 0.71183500
vt 0.78178500 0.71183500
vt 0.76528400 0.73216700
vt 0.76528400 0.73216700
vt 0.76528400 0.73216700
vt 0.74731900 0.75121700
vt 0.74731900 0.75121700
vt 0.74731900 0.75121700
vt 0.72799000 0.76888200
vt 0.72799000 0.76888200
vt 0.72799000 0.76888200
vt 0.70740300 0.78506300
vt 0.70740300 0.78506300
vt 0.70740300 0.78506300
vt 0.68567200 0.79967100
vt 0.68567200 0.79967100
vt 0.68567200 0.79967100
vt 0.66291700 0.81262600
vt 0.66291700 0.81262600
vt 0.66291700 0.81262600
vt 0.63926200 0.82385700
vt 0.63926200 0.82385700
vt 0.63926200 0.82385700
vt 0.61483900 0.83330000
vt 0.61483900 0.83330000
vt 0.61483900 0.83330000
vt 0.58978300 0.84090500
vt 0.58978300 0.84090500
vt 0.58978300 0.84090500
vt 0.56423100 0.84662900
vt 0.56423100 0.84662900
vt 0.56423100 0.84662900
vt 0.53832500 0.85044000
vt 0.53832500 0.85044000
vt 0.53832500 0.85044000
vt 0.51220800 0.85231800
vt 0.51220800 0.85231800
vt 0.51220800 0.85231800
vt 0.48602300 0.85225200
vt 0.48602300 0.85225200
vt 0.48602300 0.85225200
vt 0.45991500 0.85024300
vt 0.45991500 0.85024300
vt 0.45991500 0.85024300
vt 0.43402800 0.84630200
vt 0.43402800 0.84630200
vt 0.43402800 0.84630200
vt 0.40850600 0.84045000
vt 0.40850600 0.84045000
vt 0.40850600 0.84045000
vt 0.38348800 0.83271900
vt 0.38348800 0.83271900
vt 0.38348800 0.83271900
vt 0.35911300 0.82315300
vt 0.35911300 0.82315300
vt 0.35911300 0.82315300
vt 0.33551500 0.81180400
vt 0.33551500 0.81180400
vt 0.33551500 0.81180400
vt 0.31282500 0.79873500
vt 0.31282500 0.79873500
vt 0.31282500 0.79873500
vt 0.29116700 0.78401800
vt 0.29116700 0.78401800
vt 0.29116700 0.78401800
vt 0.27303900 0.76975100
vt 0.27303900 0.76975100
vt 0.27303900 0.76975100
vt 0.25588200 0.75433000
vt 0.25588200 0.75433000
vt 0.25588200 0.75433000
vt 0.23977100 0.73781900
vt 0.23977100 0.73781900
vt 0.23977100 0.73781900
vt 0.22477400 0.72029000
vt 0.22477400 0.72029000
vt 0.22477400 0.72029000
vt 0.21095600 0.70181800
vt 0.21095600 0.70181800
vt 0.21095600 0.70181800
vt 0.19837500 0.68248100
vt 0.19837500 0.68248100
vt 0.19837500 0.68248100
vt 0.18566200 0.65958900
vt 0.18566200 0.65958900
vt 0.18566200 0.65958900
vt 0.17468400 0.63581700
vt 0.17468400 0.63581700
vt 0.17468400 0.63581700
vt 0.16550000 0.61129500
vt 0.16550000 0.61129500
vt 0.16550000 0.61129500
vt 0.15816200 0.58616000
vt 0.15816200 0.58616000
vt 0.15816200 0.58616000
vt 0.15270900 0.56054900
vt 0.15270900 0.56054900
vt 0.15270900 0.56054900
vt 0.14917300 0.53460400
vt 0.14917300 0.53460400
vt 0.14917300 0.53460400
vt 0.14757200 0.50846800
vt 0.14757200 0.50846800
vt 0.14757200 0.50846800
vt 0.14791600 0.48228500
vt 0.14791600 0.48228500
vt 0.14791600 0.48228500
vt 0.15020200 0.45620000
vt 0.15020200 0.45620000
vt 0.15020200 0.45620000
vt 0.15441800 0.43035700
vt 0.15441800 0.43035700
vt 0.15441800 0.43035700
vt 0.16054100 0.40489800
vt 0.16054100 0.40489800
vt 0.16054100 0.40489800
vt 0.16853600 0.37996300
vt 0.16853600 0.37996300
vt 0.16853600 0.37996300
vt 0.17836000 0.35569100
vt 0.17836000 0.35569100
vt 0.17836000 0.35569100
vt 0.18995900 0.33221500
vt 0.18995900 0.33221500
vt 0.18995900 0.33221500
vt 0.20326800 0.30966500
vt 0.20326800 0.30966500
vt 0.20326800 0.30966500
vt 0.21821500 0.28816500
vt 0.21821500 0.28816500
vt 0.21821500 0.28816500
vt 0.21821500 0.28816500
vt 0.23471600 0.26783300
vt 0.23471600 0.26783300
vt 0.23471600 0.26783300
vt 0.25268100 0.24878300
vt 0.25268100 0.24878300
vt 0.25268100 0.24878300
vt 0.25268100 0.24878300
vt 0.27201000 0.23111800
vt 0.27201000 0.23111800
vt 0.27201000 0.23111800
vt 0.29259700 0.21493700
vt 0.29259700 0.21493700
vt 0.29259700 0.21493700
vt 0.31432800 0.20032900
vt 0.31432800 0.20032900
vt 0.31432800 0.20032900
vt 0.33708300 0.18737400
vt 0.33708300 0.18737400
vt 0.33708300 0.18737400
vt 0.36073800 0.17614300
vt 0.36073800 0.17614300
vt 0.36073800 0.17614300
vt 0.38516100 0.16670000
vt 0.38516100 0.16670000
vt 0.38516100 0.16670000
vt 0.41021700 0.15909500
vt 0.41021700 0.15909500
vt 0.41021700 0.15909500
vt 0.43576900 0.15337100
vt 0.43576900 0.15337100
vt 0.43576900 0.15337100
vt 0.46167500 0.14956000
vt 0.46167500 0.14956000
vt 0.46167500 0.14956000
vt 0.48779200 0.14768200
vt 0.48779200 0.14768200
vt 0.48779200 0.14768200
vt 0.51397700 0.14774800
vt 0.51397700 0.14774800
vt 0.51397700 0.14774800
vt 0.54008500 0.14975700
vt 0.54008500 0.14975700
vt 0.54008500 0.14975700
vt 0.56597200 0.15369800
vt 0.56597200 0.15369800
vt 0.56597200 0.15369800
vt 0.59149400 0.15955000
vt 0.59149400 0.15955000
vt 0.59149400 0.15955000
vt 0.61651200 0.16728100
vt 0.61651200 0.16728100
vt 0.61651200 0.16728100
vt 0.64088700 0.17684700
vt 0.64088700 0.17684700
vt 0.64088700 0.17684700
vt 0.66448500 0.18819600
vt 0.66448500 0.18819600
vt 0.66448500 0.18819600
vt 0.68717500 0.20126500
vt 0.68717500 0.20126500
vt 0.68717500 0.20126500
vt 0.70883300 0.21598200
vt 0.70883300 0.21598200
vt 0.70883300 0.21598200
vt 0.72696100 0.23024900
vt 0.72696100 0.23024900
vt 0.72696100 0.23024900
vt 0.74411800 0.24567000
vt 0.74411800 0.24567000
vt 0.74411800 0.24567000
vt 0.76022900 0.26218100
vt 0.76022900 0.26218100
vt 0.76022900 0.26218100
vt 0.77522600 0.27971000
vt 0.77522600 0.27971000
vt 0.77522600 0.27971000
vt 0.78904400 0.29818200
vt 0.78904400 0.29818200
vt 0.78904400 0.29818200
vt 0.80162500 0.31751900
vt 0.80162500 0.31751900
vt 0.80162500 0.31751900
vt 0.81433800 0.34041100
vt 0.81433800 0.34041100
vt 0.81433800 0.34041100
vt 0.82531600 0.36418300
vt 0.82531600 0.36418300
vt 0.82531600 0.36418300
vt 0.83450000 0.38870500
vt 0.83450000 0.38870500
vt 0.83450000 0.38870500
vt 0.84183800 0.41384000
vt 0.84183800 0.41384000
vt 0.84183800 0.41384000
vt 0.84729100 0.43945100
vt 0.84729100 0.43945100
vt 0.84729100 0.43945100
vt 0.85082700 0.46539600
vt 0.85082700 0.46539600
vt 0.85082700 0.46539600
vt 0.85242800 0.49153200
vt 0.85242800 0.49153200
vt 0.85242800 0.49153200
vt 0.85208400 0.51771500
vt 0.85208400 0.51771500
vt 0.85208400 0.51771500
vt 0.84979800 0.54380000
vt 0.84979800 0.54380000
vt 0.84979800 0.54380000
vt 0.84558200 0.56964300
vt 0.84558200 0.56964300
vt 0.84558200 0.56964300
vt 0.83945900 0.59510200
vt 0.83945900 0.59510200
vt 0.83945900 0.59510200
vt 0.83146400 0.62003700
vt 0.83146400 0.62003700
vt 0.83146400 0.62003700
vt 0.82164000 0.64430900
vt 0.82164000 0.64430900
vt 0.82164000 0.64430900
vt 0.81004100 0.66778500
vt 0.81004100 0.66778500
vt 0.81004100 0.66778500
vt 0.79673200 0.69033500
vt 0.79673200 0.69033500
vt 0.79673200 0.69033500
vt 0.78178500 0.71183500
vt 0.78178500 0.71183500
vt 0.78178500 0.71183500
vt 0.76528400 0.73216700
vt 0.76528400 0.73216700
vt 0.76528400 0.73216700
vt 0.74731900 0.75121700
vt 0.74731900 0.75121700
vt 0.74731900 0.75121700
vt 0.72799000 0.76888200
vt 0.72799000 0.76888200
vt 0.72799000 0.76888200
vt 0.70740300 0.78506300
vt 0.70740300 0.78506300
vt 0.70740300 0.78506300
vt 0.68567200 0.79967100
vt 0.68567200 0.79967100
vt 0.68567200 0.79967100
vt 0.66291700 0.81262600
vt 0.66291700 0.81262600
vt 0.66291700 0.81262600
vt 0.63926200 0.82385700
vt 0.63926200 0.82385700
vt 0.63926200 0.82385700
vt 0.61483900 0.83330000
vt 0.61483900 0.83330000
vt 0.61483900 0.83330000
vt 0.58978300 0.84090500
vt 0.58978300 0.84090500
vt 0.58978300 0.84090500
vt 0.56423100 0.84662900
vt 0.56423100 0.84662900
vt 0.56423100 0.84662900
vt 0.53832500 0.85044000
vt 0.53832500 0.85044000
vt 0.53832500 0.85044000
vt 0.51220800 0.85231800
vt 0.51220800 0.85231800
vt 0.51220800 0.85231800
vt 0.48602300 0.85225200
vt 0.48602300 0.85225200
vt 0.48602300 0.85225200
vt 0.45991500 0.85024300
vt 0.45991500 0.85024300
vt 0.45991500 0.85024300
vt 0.43402800 0.84630200
vt 0.43402800 0.84630200
vt 0.43402800 0.84630200
vt 0.40850600 0.84045000
vt 0.40850600 0.84045000
vt 0.40850600 0.84045000
vt 0.38348800 0.83271900
vt 0.38348800 0.83271900
vt 0.38348800 0.83271900
vt 0.35911300 0.82315300
vt 0.35911300 0.82315300
vt 0.35911300 0.82315300
vt 0.33551500 0.81180400
vt 0.33551500 0.81180400
vt 0.33551500 0.81180400
vt 0.31282500 0.79873500
vt 0.31282500 0.79873500
vt 0.31282500 0.79873500
vt 0.29116700 0.78401800
vt 0.29116700 0.78401800
vt 0.29116700 0.78401800
vt 0.27303900 0.76975100
vt 0.27303900 0.76975100
vt 0.27303900 0.76975100
vt 0.25588200 0.75433000
vt 0.25588200 0.75433000
vt 0.25588200 0.75433000
vt 0.23977100 0.73781900
vt 0.23977100 0.73781900
vt 0.23977100 0.73781900
vt 0.22477400 0.72029000
vt 0.22477400 0.72029000
vt 0.22477400 0.72029000
vt 0.21095600 0.70181800
vt 0.21095600 0.70181800
vt 0.21095600 0.70181800
vt 0.19837500 0.68248100
vt 0.19837500 0.68248100
vt 0.19837500 0.68248100
vt 0.18566200 0.65958900
vt 0.18566200 0.65958900
vt 0.18566200 0.65958900
vt 0.17468400 0.63581700
vt 0.17468400 0.63581700
vt 0.17468400 0.63581700
vt 0.16550000 0.61129500
vt 0.16550000 0.61129500
vt 0.16550000 0.61129500
vt 0.15816200 0.58616000
vt 0.15816200 0.58616000
vt 0.15816200 0.58616000
vt 0.15270900 0.56054900
vt 0.15270900 0.56054900
vt 0.15270900 0.56054900
vt 0.14917300 0.53460400
vt 0.14917300 0.53460400
vt 0.14917300 0.53460400
vt 0.14757200 0.50846800
vt 0.14757200 0.50846800
vt 0.14757200 0.50846800
vt 0.14791600 0.48228500
vt 0.14791600 0.48228500
vt 0.14791600 0.48228500
vt 0.15020200 0.45620000
vt 0.15020200 0.45620000
vt 0.15020200 0.45620000
vt 0.15441800 0.43035700
vt 0.15441800 0.43035700
vt 0.15441800 0.43035700
vt 0.16054100 0.40489800
vt 0.16054100 0.40489800
vt 0.16054100 0.40489800
vt 0.16853600 0.37996300
vt 0.16853600 0.37996300
vt 0.16853600 0.37996300
vt 0.17836000 0.35569100
vt 0.17836000 0.35569100
vt 0.17836000 0.35569100
vt 0.18995900 0.33221500
vt 0.18995900 0.33221500
vt 0.18995900 0.33221500
vt 0.20326800 0.30966500
vt 0.20326800 0.30966500
vt 0.20326800 0.30966500
vt 0.21821500 0.28816500
vt 0.21821500 0.28816500
vt 0.21821500 0.28816500
vt 0.23471600 0.26783300
vt 0.23471600 0.26783300
vt 0.23471600 0.26783300
vt 0.25268100 0.24878300
vt 0.25268100 0.24878300
vt 0.25268100 0.24878300
vt 0.27201000 0.23111800
vt 0.27201000 0.23111800
vt 0.27201000 0.23111800
vt 0.29259700 0.21493700
vt 0.29259700 0.21493700
vt 0.29259700 0.21493700
vt 0.31432800 0.20032900
vt 0.31432800 0.20032900
vt 0.31432800 0.20032900
vt 0.33708300 0.18737400
vt 0.33708300 0.18737400
vt 0.33708300 0.18737400
vt 0.36073800 0.17614300
vt 0.36073800 0.17614300
vt 0.36073800 0.17614300
vt 0.38516100 0.16670000
vt 0.38516100 0.16670000
vt 0.38516100 0.16670000
vt 0.41021700 0.15909500
vt 0.41021700 0.15909500
vt 0.41021700 0.15909500
vt 0.43576900 0.15337100
vt 0.43576900 0.15337100
vt 0.43576900 0.15337100
vt 0.46167500 0.14956000
vt 0.46167500 0.14956000
vt 0.46167500 0.14956000
vt 0.48779200 0.14768200
vt 0.48779200 0.14768200
vt 0.48779200 0.14768200
vt 0.51397700 0.14774800
vt 0.51397700 0.14774800
vt 0.51397700 0.14774800
vt 0.54008500 0.14975700
vt 0.54008500 0.14975700
vt 0.54008500 0.14975700
vt 0.56597200 0.15369800
vt 0.56597200 0.15369800
vt 0.56597200 0.15369800
vt 0.59149400 0.15955000
vt 0.59149400 0.15955000
vt 0.59149400 0.15955000
vt 0.61651200 0.16728100
vt 0.61651200 0.16728100
vt 0.61651200 0.16728100
vt 0.64088700 0.17684700
vt 0.64088700 0.17684700
vt 0.64088700 0.17684700
vt 0.66448500 0.18819600
vt 0.66448500 0.18819600
vt 0.66448500 0.18819600
vt 0.68717500 0.20126500
vt 0.68717500 0.20126500
vt 0.68717500 0.20126500
vt 0.70883300 0.21598200
vt 0.70883300 0.21598200
vt 0.70883300 0.21598200
vt 0.72696100 0.23024900
vt 0.72696100 0.23024900
vt 0.72696100 0.23024900
vt 0.74411800 0.24567000
vt 0.74411800 0.24567000
vt 0.74411800 0.24567000
vt 0.76022900 0.26218100
vt 0.76022900 0.26218100
vt 0.76022900 0.26218100
vt 0.77522600 0.27971000
vt 0.77522600 0.27971000
vt 0.77522600 0.27971000
vt 0.78904400 0.29818200
vt 0.78904400 0.29818200
vt 0.78904400 0.29818200
f 182/182/182 177/177/177 173/173/173
f 196/196/196 173/173/173 162/162/162
f 178/178/178 177/177/177 182/182/182
f 173/173/173 196/196/196 182/182/182
f 173/173/173 171/171/171 162/162/162
f 171/171/171 167/167/167 163/163/163
f 162/162/162 171/171/171 163/163/163
f 162/162/162 159/159/159 139/139/139
f 187/187/187 183/183/183 191/191/191
f 211/211/211 209/209/209 205/205/205
f 216/216/216 211/211/211 205/205/205
f 214/214/214 211/211/211 216/216/216
f 196/196/196 139/139/139 216/216/216
f 196/196/196 194/194/194 188/188/188
f 216/216/216 205/205/205 196/196/196
f 196/196/196 205/205/205 201/201/201
f 200/200/200 196/196/196 201/201/201
f 196/196/196 162/162/162 139/139/139
f 196/196/196 188/188/188 182/182/182
f 224/224/224 216/216/216 104/104/104
f 152/152/152 148/148/148 139/139/139
f 146/146/146 143/143/143 148/148/148
f 148/148/148 143/143/143 139/139/139
f 159/159/159 152/152/152 139/139/139
f 134/134/134 130/130/130 138/138/138
f 130/130/130 118/118/118 138/138/138
f 128/128/128 124/124/124 130/130/130
f 130/130/130 124/124/124 118/118/118
f 139/139/139 138/138/138 118/118/118
f 152/152/152 159/159/159 156/156/156
f 117/117/117 104/104/104 118/118/118
f 114/114/114 104/104/104 117/117/117
f 106/106/106 114/114/114 111/111/111
f 118/118/118 124/124/124 122/122/122
f 100/100/100 99/99/99 104/104/104
f 114/114/114 106/106/106 104/104/104
f 95/95/95 93/93/93 99/99/99
f 216/216/216 139/139/139 104/104/104
f 118/118/118 104/104/104 139/139/139
f 99/99/99 229/229/229 104/104/104
f 30/30/30 99/99/99 93/93/93
f 224/224/224 221/221/221 216/216/216
f 229/229/229 226/226/226 224/224/224
f 24/24/24 233/233/233 229/229/229
f 99/99/99 24/24/24 229/229/229
f 236/236/236 233/233/233 237/237/237
f 240/240/240 233/233/233 18/18/18
f 18/18/18 248/248/248 240/240/240
f 243/243/243 240/240/240 248/248/248
f 237/237/237 233/233/233 240/240/240
f 249/249/249 248/248/248 254/254/254
f 260/260/260 256/256/256 254/254/254
f 262/262/262 260/260/260 5/5/5
f 9/9/9 260/260/260 254/254/254
f 262/262/262 5/5/5 1/1/1
f 254/254/254 12/12/12 9/9/9
f 15/15/15 12/12/12 254/254/254
f 20/20/20 18/18/18 233/233/233
f 248/248/248 18/18/18 15/15/15
f 260/260/260 9/9/9 5/5/5
f 15/15/15 254/254/254 248/248/248
f 233/233/233 24/24/24 20/20/20
f 66/66/66 72/72/72 69/69/69
f 63/63/63 77/77/77 66/66/66
f 63/63/63 58/58/58 51/51/51
f 72/72/72 66/66/66 77/77/77
f 87/87/87 82/82/82 88/88/88
f 77/77/77 88/88/88 82/82/82
f 80/80/80 77/77/77 82/82/82
f 51/51/51 77/77/77 63/63/63
f 77/77/77 75/75/75 72/72/72
f 88/88/88 77/77/77 51/51/51
f 30/30/30 34/34/34 31/31/31
f 26/26/26 24/24/24 30/30/30
f 88/88/88 34/34/34 30/30/30
f 34/34/34 88/88/88 39/39/39
f 49/49/49 46/46/46 51/51/51
f 51/51/51 58/58/58 57/57/57
f 47/47/47 41/41/41 54/54/54
f 43/43/43 88/88/88 51/51/51
f 39/39/39 88/88/88 43/43/43
f 88/88/88 30/30/30 93/93/93
f 99/99/99 30/30/30 24/24/24
f 224/224/224 104/104/104 229/229/229
f 442/442/442 433/433/433 436/436/436
f 453/453/453 422/422/422 433/433/433
f 438/438/438 442/442/442 436/436/436
f 433/433/433 442/442/442 453/453/453
f 433/433/433 422/422/422 430/430/430
f 430/430/430 425/425/425 428/428/428
f 422/422/422 425/425/425 430/430/430
f 422/422/422 401/401/401 419/419/419
f 445/445/445 447/447/447 442/442/442
f 470/470/470 462/462/462 465/465/465
f 476/476/476 462/462/462 470/470/470
f 471/471/471 476/476/476 470/470/470
f 453/453/453 476/476/476 401/401/401
f 453/453/453 447/447/447 452/452/452
f 476/476/476 453/453/453 462/462/462
f 453/453/453 461/461/461 462/462/462
f 458/458/458 461/461/461 453/453/453
f 453/453/453 401/401/401 422/422/422
f 453/453/453 442/442/442 447/447/447
f 480/480/480 365/365/365 476/476/476
f 412/412/412 401/401/401 409/409/409
f 406/406/406 409/409/409 404/404/404
f 409/409/409 401/401/401 404/404/404
f 419/419/419 401/401/401 412/412/412
f 394/394/394 397/397/397 391/391/391
f 391/391/391 397/397/397 378/378/378
f 388/388/388 391/391/391 384/384/384
f 391/391/391 378/378/378 384/384/384
f 401/401/401 378/378/378 397/397/397
f 412/412/412 416/416/416 419/419/419
f 377/377/377 378/378/378 365/365/365
f 374/374/374 377/377/377 365/365/365
f 368/368/368 370/370/370 374/374/374
f 378/378/378 382/382/382 384/384/384
f 360/360/360 365/365/365 359/359/359
f 374/374/374 365/365/365 368/368/368
f 355/355/355 359/359/359 351/351/351
f 476/476/476 365/365/365 401/401/401
f 378/378/378 401/401/401 365/365/365
f 359/359/359 365/365/365 488/488/488
f 293/293/293 351/351/351 359/359/359
f 480/480/480 476/476/476 478/478/478
f 488/488/488 480/480/480 484/484/484
f 286/286/286 488/488/488 489/489/489
f 359/359/359 488/488/488 286/286/286
f 493/493/493 495/495/495 489/489/489
f 498/498/498 279/279/279 489/489/489
f 279/279/279 498/498/498 506/506/506
f 503/503/503 506/506/506 498/498/498
f 495/495/495 498/498/498 489/489/489
f 509/509/509 512/512/512 506/506/506
f 516/516/516 512/512/512 514/514/514
f 520/520/520 269/269/269 516/516/516
f 272/272/272 512/512/512 516/516/516
f 520/520/520 265/265/265 269/269/269
f 512/512/512 272/272/272 275/275/275
f 278/278/278 512/512/512 275/275/275
f 284/284/284 489/489/489 279/279/279
f 506/506/506 278/278/278 279/279/279
f 516/516/516 269/269/269 272/272/272
f 278/278/278 506/506/506 512/512/512
f 489/489/489 284/284/284 286/286/286
f 326/326/326 328/328/328 331/331/331
f 322/322/322 326/326/326 336/336/336
f 322/322/322 314/314/314 320/320/320
f 331/331/331 336/336/336 326/326/326
f 347/347/347 348/348/348 344/344/344
f 336/336/336 344/344/344 348/348/348
f 339/339/339 344/344/344 336/336/336
f 314/314/314 322/322/322 336/336/336
f 336/336/336 331/331/331 335/335/335
f 348/348/348 314/314/314 336/336/336
f 293/293/293 296/296/296 297/297/297
f 290/290/290 293/293/293 286/286/286
f 348/348/348 293/293/293 297/297/297
f 297/297/297 302/302/302 348/348/348
f 309/309/309 314/314/314 308/308/308
f 314/314/314 317/317/317 320/320/320
f 308/308/308 314/314/314 305/305/305
f 305/305/305 314/314/314 348/348/348
f 302/302/302 305/305/305 348/348/348
f 348/348/348 351/351/351 293/293/293
f 359/359/359 286/286/286 293/293/293
f 480/480/480 488/488/488 365/365/365
f 2/2/2 6/6/6 268/268/268
f 268/268/268 266/266/266 2/2/2
f 7/7/7 11/11/11 274/274/274
f 274/274/274 270/270/270 7/7/7
f 14/14/14 16/16/16 281/281/281
f 281/281/281 277/277/277 14/14/14
f 19/19/19 22/22/22 285/285/285
f 285/285/285 283/283/283 19/19/19
f 25/25/25 28/28/28 292/292/292
f 292/292/292 289/289/289 25/25/25
f 33/33/33 36/36/36 299/299/299
f 299/299/299 294/294/294 33/33/33
f 38/38/38 42/42/42 303/303/303
f 303/303/303 300/300/300 38/38/38
f 44/44/44 48/48/48 311/311/311
f 311/311/311 307/307/307 44/44/44
f 53/53/53 56/56/56 316/316/316
f 316/316/316 313/313/313 53/53/53
f 64/64/64 67/67/67 327/327/327
f 327/327/327 324/324/324 64/64/64
f 70/70/70 73/73/73 334/334/334
f 334/334/334 330/330/330 70/70/70
f 78/78/78 79/79/79 341/341/341
f 341/341/341 338/338/338 78/78/78
f 83/83/83 86/86/86 346/346/346
f 346/346/346 342/342/342 83/83/83
f 89/89/89 91/91/91 352/352/352
f 352/352/352 349/349/349 89/89/89
f 96/96/96 97/97/97 358/358/358
f 358/358/358 354/354/354 96/96/96
f 101/101/101 103/103/103 363/363/363
f 363/363/363 361/361/361 101/101/101
f 108/108/108 110/110/110 369/369/369
f 369/369/369 366/366/366 108/108/108
f 120/120/120 123/123/123 381/381/381
f 381/381/381 379/379/379 120/120/120
f 126/126/126 127/127/127 389/389/389
f 389/389/389 386/386/386 126/126/126
f 131/131/131 133/133/133 393/393/393
f 393/393/393 390/390/390 131/131/131
f 144/144/144 145/145/145 405/405/405
f 405/405/405 403/403/403 144/144/144
f 149/149/149 153/153/153 413/413/413
f 413/413/413 410/410/410 149/149/149
f 154/154/154 157/157/157 417/417/417
f 417/417/417 415/415/415 154/154/154
f 161/161/161 164/164/164 423/423/423
f 423/423/423 420/420/420 161/161/161
f 172/172/172 176/176/176 435/435/435
f 435/435/435 432/432/432 172/172/172
f 186/186/186 190/190/190 449/449/449
f 449/449/449 446/446/446 186/186/186
f 198/198/198 202/202/202 459/459/459
f 459/459/459 457/457/457 198/198/198
f 204/204/204 208/208/208 466/466/466
f 466/466/466 463/463/463 204/204/204
f 212/212/212 215/215/215 472/472/472
f 472/472/472 468/468/468 212/212/212
f 218/218/218 220/220/220 479/479/479
f 479/479/479 475/475/475 218/218/218
f 223/223/223 227/227/227 485/485/485
f 485/485/485 481/481/481 223/223/223
f 228/228/228 232/232/232 490/490/490
f 490/490/490 487/487/487 228/228/228
f 258/258/258 261/261/261 519/519/519
f 519/519/519 517/517/517 258/258/258
f 235/235/235 238/238/238 497/497/497
f 497/497/497 494/494/494 235/235/235
f 241/241/241 245/245/245 502/502/502
f 502/502/502 499/499/499 241/241/241
f 247/247/247 250/250/250 507/507/507
f 507/507/507 504/504/504 247/247/247
f 253/253/253 255/255/255 513/513/513
f 513/513/513 510/510/510 253/253/253
f 203/203/203 206/206/206 464/464/464
f 464/464/464 460/460/460 203/203/203
f 219/219/219 222/222/222 482/482/482
f 482/482/482 477/477/477 219/219/219
f 225/225/225 230/230/230 486/486/486
f 486/486/486 483/483/483 225/225/225
f 166/166/166 170/170/170 431/431/431
f 431/431/431 426/426/426 166/166/166
f 109/109/109 113/113/113 373/373/373
f 373/373/373 371/371/371 109/109/109
f 59/59/59 62/62/62 321/321/321
f 321/321/321 318/318/318 59/59/59
f 239/239/239 242/242/242 500/500/500
f 500/500/500 496/496/496 239/239/239
f 180/180/180 181/181/181 443/443/443
f 443/443/443 440/440/440 180/180/180
f 74/74/74 76/76/76 337/337/337
f 337/337/337 333/333/333 74/74/74
f 4/4/4 8/8/8 271/271/271
f 271/271/271 267/267/267 4/4/4
f 10/10/10 13/13/13 276/276/276
f 276/276/276 273/273/273 10/10/10
f 17/17/17 21/21/21 282/282/282
f 282/282/282 280/280/280 17/17/17
f 23/23/23 27/27/27 288/288/288
f 288/288/288 287/287/287 23/23/23
f 29/29/29 32/32/32 295/295/295
f 295/295/295 291/291/291 29/29/29
f 244/244/244 246/246/246 505/505/505
f 505/505/505 501/501/501 244/244/244
f 35/35/35 37/37/37 301/301/301
f 301/301/301 298/298/298 35/35/35
f 40/40/40 45/45/45 306/306/306
f 306/306/306 304/304/304 40/40/40
f 50/50/50 52/52/52 312/312/312
f 312/312/312 310/310/310 50/50/50
f 55/55/55 60/60/60 319/319/319
f 319/319/319 315/315/315 55/55/55
f 61/61/61 65/65/65 325/325/325
f 325/325/325 323/323/323 61/61/61
f 68/68/68 71/71/71 332/332/332
f 332/332/332 329/329/329 68/68/68
f 81/81/81 84/84/84 343/343/343
f 343/343/343 340/340/340 81/81/81
f 85/85/85 90/90/90 350/350/350
f 350/350/350 345/345/345 85/85/85
f 92/92/92 94/94/94 356/356/356
f 356/356/356 353/353/353 92/92/92
f 98/98/98 102/102/102 362/362/362
f 362/362/362 357/357/357 98/98/98
f 105/105/105 107/107/107 367/367/367
f 367/367/367 364/364/364 105/105/105
f 116/116/116 119/119/119 380/380/380
f 380/380/380 375/375/375 116/116/116
f 121/121/121 125/125/125 385/385/385
f 385/385/385 383/383/383 121/121/121
f 129/129/129 132/132/132 392/392/392
f 392/392/392 387/387/387 129/129/129
f 135/135/135 136/136/136 398/398/398
f 398/398/398 395/395/395 135/135/135
f 193/193/193 197/197/197 455/455/455
f 455/455/455 451/451/451 193/193/193
f 140/140/140 142/142/142 402/402/402
f 402/402/402 400/400/400 140/140/140
f 151/151/151 155/155/155 414/414/414
f 414/414/414 411/411/411 151/151/151
f 165/165/165 168/168/168 427/427/427
f 427/427/427 424/424/424 165/165/165
f 169/169/169 174/174/174 434/434/434
f 434/434/434 429/429/429 169/169/169
f 175/175/175 179/179/179 439/439/439
f 439/439/439 437/437/437 175/175/175
f 184/184/184 185/185/185 444/444/444
f 444/444/444 441/441/441 184/184/184
f 189/189/189 192/192/192 450/450/450
f 450/450/450 448/448/448 189/189/189
f 195/195/195 199/199/199 456/456/456
f 456/456/456 454/454/454 195/195/195
f 207/207/207 210/210/210 469/469/469
f 469/469/469 467/467/467 207/207/207
f 213/213/213 217/217/217 474/474/474
f 474/474/474 473/473/473 213/213/213
f 231/231/231 234/234/234 492/492/492
f 492/492/492 491/491/491 231/231/231
f 251/251/251 252/252/252 511/511/511
f 511/511/511 508/508/508 251/251/251
f 257/257/257 259/259/259 518/518/518
f 518/518/518 515/515/515 257/257/257
f 137/137/137 141/141/141 399/399/399
f 399/399/399 396/396/396 137/137/137
f 147/147/147 150/150/150 408/408/408
f 408/408/408 407/407/407 147/147/147
f 158/158/158 160/160/160 421/421/421
f 421/421/421 418/418/418 158/158/158
f 263/263/263 3/3/3 264/264/264
f 264/264/264 521/521/521 263/263/263
f 112/112/112 115/115/115 376/376/376
f 376/376/376 372/372/372 112/112/112

