mtllib material.mtl
usemtl Material-7011油漆.030
v -0.02811900 0.12493200 -0.02431100
v -0.02811900 0.12493200 -0.02431100
v -0.02811900 0.12493200 -0.02431100
v -0.02811900 0.12563200 -0.02431100
v -0.02811900 0.12563200 -0.02431100
v -0.02811900 0.12563200 -0.02431100
v -0.02781000 0.12493200 -0.01573200
v -0.02781000 0.12493200 -0.01573200
v -0.02781000 0.12493200 -0.01573200
v -0.02781000 0.12563200 -0.01573200
v -0.02781000 0.12563200 -0.01573200
v -0.02781000 0.12563200 -0.01573200
v -0.02781000 0.12493200 -0.01573100
v -0.02781000 0.12493200 -0.01573100
v -0.02781000 0.12493200 -0.01573100
v -0.02781000 0.12563200 -0.01573100
v -0.02781000 0.12563200 -0.01573100
v -0.02781000 0.12563200 -0.01573100
v -0.02482600 0.12493200 -0.01583900
v -0.02482600 0.12493200 -0.01583900
v -0.02482600 0.12493200 -0.01583900
v -0.02482600 0.12563200 -0.01583900
v -0.02482600 0.12563200 -0.01583900
v -0.02482600 0.12563200 -0.01583900
v -0.02482500 0.12493200 -0.01583900
v -0.02482500 0.12493200 -0.01583900
v -0.02482500 0.12493200 -0.01583900
v -0.02482500 0.12563200 -0.01583900
v -0.02482500 0.12563200 -0.01583900
v -0.02482500 0.12563200 -0.01583900
v -0.02513400 0.12493200 -0.02441900
v -0.02513400 0.12493200 -0.02441900
v -0.02513400 0.12493200 -0.02441900
v -0.02513400 0.12563200 -0.02441900
v -0.02513400 0.12563200 -0.02441900
v -0.02513400 0.12563200 -0.02441900
v -0.02513500 0.12493200 -0.02441900
v -0.02513500 0.12493200 -0.02441900
v -0.02513500 0.12493200 -0.02441900
v -0.02513500 0.12563200 -0.02441900
v -0.02513500 0.12563200 -0.02441900
v -0.02513500 0.12563200 -0.02441900
v -0.02811900 0.12493200 -0.02431200
v -0.02811900 0.12493200 -0.02431200
v -0.02811900 0.12493200 -0.02431200
v -0.02811900 0.12563200 -0.02431200
v -0.02811900 0.12563200 -0.02431200
v -0.02811900 0.12563200 -0.02431200
v -0.02482600 0.12493100 -0.01583900
v -0.02482600 0.12493100 -0.01583900
v -0.02482600 0.12493100 -0.01583900
v -0.02781000 0.12493100 -0.01573200
v -0.02781000 0.12493100 -0.01573200
v -0.02781000 0.12493100 -0.01573200
v -0.02513500 0.12493100 -0.02441900
v -0.02513500 0.12493100 -0.02441900
v -0.02513500 0.12493100 -0.02441900
v -0.02811900 0.12493100 -0.02431100
v -0.02811900 0.12493100 -0.02431100
v -0.02811900 0.12493100 -0.02431100
v -0.02482600 0.12563200 -0.01583900
v -0.02482600 0.12563200 -0.01583900
v -0.02482600 0.12563200 -0.01583900
v -0.02781000 0.12563200 -0.01573200
v -0.02781000 0.12563200 -0.01573200
v -0.02781000 0.12563200 -0.01573200
v -0.02513500 0.12563200 -0.02441900
v -0.02513500 0.12563200 -0.02441900
v -0.02513500 0.12563200 -0.02441900
v -0.02811900 0.12563200 -0.02431100
v -0.02811900 0.12563200 -0.02431100
v -0.02811900 0.12563200 -0.02431100
v -0.02811800 0.12493200 -0.02431100
v -0.02811800 0.12493200 -0.02431100
v -0.02811800 0.12493200 -0.02431100
v -0.02811800 0.12563200 -0.02431100
v -0.02811800 0.12563200 -0.02431100
v -0.02811800 0.12563200 -0.02431100
v -0.02780900 0.12493200 -0.01573200
v -0.02780900 0.12493200 -0.01573200
v -0.02780900 0.12493200 -0.01573200
v -0.02780900 0.12563200 -0.01573200
v -0.02780900 0.12563200 -0.01573200
v -0.02780900 0.12563200 -0.01573200
v -0.02781000 0.12493200 -0.01573200
v -0.02781000 0.12493200 -0.01573200
v -0.02781000 0.12493200 -0.01573200
v -0.02781000 0.12563200 -0.01573200
v -0.02781000 0.12563200 -0.01573200
v -0.02781000 0.12563200 -0.01573200
v -0.02482600 0.12493200 -0.01584000
v -0.02482600 0.12493200 -0.01584000
v -0.02482600 0.12493200 -0.01584000
v -0.02482600 0.12563200 -0.01584000
v -0.02482600 0.12563200 -0.01584000
v -0.02482600 0.12563200 -0.01584000
v -0.02482600 0.12493200 -0.01583900
v -0.02482600 0.12493200 -0.01583900
v -0.02482600 0.12493200 -0.01583900
v -0.02482600 0.12563200 -0.01583900
v -0.02482600 0.12563200 -0.01583900
v -0.02482600 0.12563200 -0.01583900
v -0.02513500 0.12493200 -0.02441900
v -0.02513500 0.12493200 -0.02441900
v -0.02513500 0.12493200 -0.02441900
v -0.02513500 0.12563200 -0.02441900
v -0.02513500 0.12563200 -0.02441900
v -0.02513500 0.12563200 -0.02441900
v -0.02513500 0.12493200 -0.02441800
v -0.02513500 0.12493200 -0.02441800
v -0.02513500 0.12493200 -0.02441800
v -0.02513500 0.12563200 -0.02441800
v -0.02513500 0.12563200 -0.02441800
v -0.02513500 0.12563200 -0.02441800
v -0.02811900 0.12493200 -0.02431100
v -0.02811900 0.12493200 -0.02431100
v -0.02811900 0.12493200 -0.02431100
v -0.02811900 0.12563200 -0.02431100
v -0.02811900 0.12563200 -0.02431100
v -0.02811900 0.12563200 -0.02431100
v -0.02482600 0.12493200 -0.01583900
v -0.02482600 0.12493200 -0.01583900
v -0.02482600 0.12493200 -0.01583900
v -0.02781000 0.12493200 -0.01573200
v -0.02781000 0.12493200 -0.01573200
v -0.02781000 0.12493200 -0.01573200
v -0.02513500 0.12493200 -0.02441900
v -0.02513500 0.12493200 -0.02441900
v -0.02513500 0.12493200 -0.02441900
v -0.02811900 0.12493200 -0.02431100
v -0.02811900 0.12493200 -0.02431100
v -0.02811900 0.12493200 -0.02431100
v -0.02482600 0.12563100 -0.01583900
v -0.02482600 0.12563100 -0.01583900
v -0.02482600 0.12563100 -0.01583900
v -0.02781000 0.12563100 -0.01573200
v -0.02781000 0.12563100 -0.01573200
v -0.02781000 0.12563100 -0.01573200
v -0.02513500 0.12563100 -0.02441900
v -0.02513500 0.12563100 -0.02441900
v -0.02513500 0.12563100 -0.02441900
v -0.02811900 0.12563100 -0.02431100
v -0.02811900 0.12563100 -0.02431100
v -0.02811900 0.12563100 -0.02431100
vn -0.99940000 0.00000000 0.03600000
vn -0.03630000 0.00000000 -0.99930000
vn 0.00000000 -1.00000000 0.00000000
vn -0.99940000 0.00000000 0.03600000
vn -0.03630000 0.00000000 -0.99930000
vn 0.00000000 1.00000000 0.00000000
vn -0.99940000 0.00000000 0.03600000
vn 0.03630000 0.00000000 0.99930000
vn 0.00000000 -1.00000000 0.00000000
vn 0.03630000 0.00000000 0.99930000
vn 0.00000000 1.00000000 0.00000000
vn -0.99940000 0.00000000 0.03600000
vn 0.00000000 -1.00000000 0.00000000
vn -0.99940000 0.00000000 0.03540000
vn 0.03600000 0.00000000 0.99940000
vn -0.99940000 0.00000000 0.03540000
vn 0.03600000 0.00000000 0.99940000
vn 0.00000000 1.00000000 0.00000000
vn 0.99940000 0.00000000 -0.03350000
vn 0.00000000 -1.00000000 0.00000000
vn 0.03600000 0.00000000 0.99940000
vn 0.99940000 0.00000000 -0.03350000
vn 0.00000000 1.00000000 0.00000000
vn 0.03600000 0.00000000 0.99940000
vn 0.03770000 0.00000000 0.99930000
vn 0.99940000 0.00000000 -0.03600000
vn 0.00000000 -1.00000000 0.00000000
vn 0.00000000 1.00000000 0.00000000
vn 0.03770000 0.00000000 0.99930000
vn 0.99940000 0.00000000 -0.03600000
vn 0.00000000 -1.00000000 0.00000000
vn -0.03380000 0.00000000 -0.99940000
vn 0.99940000 0.00000000 -0.03600000
vn -0.03380000 0.00000000 -0.99940000
vn 0.99940000 0.00000000 -0.03600000
vn 0.00000000 1.00000000 0.00000000
vn -0.03600000 0.00000000 -0.99940000
vn 0.99940000 0.00000000 -0.03360000
vn 0.00000000 -1.00000000 0.00000000
vn 0.00000000 1.00000000 0.00000000
vn 0.99940000 0.00000000 -0.03360000
vn -0.03600000 0.00000000 -0.99940000
vn 0.00000000 -1.00000000 0.00000000
vn -0.03600000 0.00000000 -0.99940000
vn -0.99940000 0.00000000 0.03350000
vn -0.03600000 0.00000000 -0.99940000
vn 0.00000000 1.00000000 0.00000000
vn -0.99940000 0.00000000 0.03350000
vn 0.03600000 0.00000000 0.99940000
vn 0.99930000 0.00000000 -0.03620000
vn 0.00000000 -1.00000000 0.00000000
vn 0.03600000 0.00000000 0.99940000
vn 0.00000000 -1.00000000 0.00000000
vn -0.99930000 0.00000000 0.03620000
vn -0.03600000 0.00000000 -0.99940000
vn 0.99930000 0.00000000 -0.03620000
vn 0.00000000 -1.00000000 0.00000000
vn -0.99930000 0.00000000 0.03620000
vn 0.00000000 -1.00000000 0.00000000
vn -0.03600000 0.00000000 -0.99940000
vn 0.03610000 0.00000000 0.99930000
vn 0.99930000 0.00000000 -0.03610000
vn 0.00000000 1.00000000 0.00000000
vn 0.03610000 0.00000000 0.99930000
vn 0.00000000 1.00000000 0.00000000
vn -0.99940000 0.00000000 0.03570000
vn 0.00000000 1.00000000 0.00000000
vn 0.99930000 0.00000000 -0.03610000
vn -0.03610000 0.00000000 -0.99930000
vn -0.03610000 0.00000000 -0.99930000
vn 0.00000000 1.00000000 0.00000000
vn -0.99940000 0.00000000 0.03570000
vn 0.00000000 -1.00000000 0.00000000
vn 0.99940000 0.00000000 -0.03600000
vn -0.03630000 0.00000000 -0.99930000
vn 0.99940000 0.00000000 -0.03600000
vn -0.03630000 0.00000000 -0.99930000
vn 0.00000000 1.00000000 0.00000000
vn 0.03630000 0.00000000 0.99930000
vn 0.99940000 0.00000000 -0.03600000
vn 0.00000000 -1.00000000 0.00000000
vn 0.99940000 0.00000000 -0.03600000
vn 0.00000000 1.00000000 0.00000000
vn 0.03630000 0.00000000 0.99930000
vn -0.03600000 0.00000000 -0.99940000
vn -0.99940000 0.00000000 0.03540000
vn 0.00000000 -1.00000000 0.00000000
vn -0.99940000 0.00000000 0.03540000
vn 0.00000000 1.00000000 0.00000000
vn -0.03600000 0.00000000 -0.99940000
vn 0.00000000 -1.00000000 0.00000000
vn 0.99940000 0.00000000 -0.03350000
vn -0.03600000 0.00000000 -0.99940000
vn -0.03600000 0.00000000 -0.99940000
vn 0.00000000 1.00000000 0.00000000
vn 0.99940000 0.00000000 -0.03350000
vn 0.00000000 -1.00000000 0.00000000
vn 0.03770000 0.00000000 0.99930000
vn -0.99940000 0.00000000 0.03600000
vn 0.00000000 1.00000000 0.00000000
vn 0.03770000 0.00000000 0.99930000
vn -0.99940000 0.00000000 0.03600000
vn 0.00000000 -1.00000000 0.00000000
vn -0.03380000 0.00000000 -0.99940000
vn -0.99940000 0.00000000 0.03600000
vn -0.03380000 0.00000000 -0.99940000
vn -0.99940000 0.00000000 0.03600000
vn 0.00000000 1.00000000 0.00000000
vn 0.00000000 -1.00000000 0.00000000
vn 0.03600000 0.00000000 0.99940000
vn 0.99940000 0.00000000 -0.03360000
vn 0.00000000 1.00000000 0.00000000
vn 0.99940000 0.00000000 -0.03360000
vn 0.03600000 0.00000000 0.99940000
vn 0.03600000 0.00000000 0.99940000
vn 0.00000000 -1.00000000 0.00000000
vn -0.99940000 0.00000000 0.03350000
vn -0.99940000 0.00000000 0.03350000
vn 0.00000000 1.00000000 0.00000000
vn 0.03600000 0.00000000 0.99940000
vn 0.00000000 1.00000000 0.00000000
vn 0.99930000 0.00000000 -0.03620000
vn 0.03600000 0.00000000 0.99940000
vn 0.00000000 1.00000000 0.00000000
vn 0.03600000 0.00000000 0.99940000
vn -0.99930000 0.00000000 0.03620000
vn 0.00000000 1.00000000 0.00000000
vn -0.03600000 0.00000000 -0.99940000
vn 0.99930000 0.00000000 -0.03620000
vn -0.03600000 0.00000000 -0.99940000
vn -0.99930000 0.00000000 0.03620000
vn 0.00000000 1.00000000 0.00000000
vn 0.00000000 -1.00000000 0.00000000
vn 0.99930000 0.00000000 -0.03610000
vn 0.03610000 0.00000000 0.99930000
vn 0.00000000 -1.00000000 0.00000000
vn 0.03610000 0.00000000 0.99930000
vn -0.99940000 0.00000000 0.03570000
vn 0.99930000 0.00000000 -0.03610000
vn 0.00000000 -1.00000000 0.00000000
vn -0.03610000 0.00000000 -0.99930000
vn 0.00000000 -1.00000000 0.00000000
vn -0.99940000 0.00000000 0.03570000
vn -0.03610000 0.00000000 -0.99930000
vt 0.31773800 0.00000000
vt 0.31773800 0.00000000
vt 0.31773800 0.00000000
vt 0.23940200 0.00000000
vt 0.23940200 0.00000000
vt 0.23940200 0.00000000
vt 0.31773800 0.97722200
vt 0.31773800 0.97722200
vt 0.31773800 0.97722200
vt 0.23940200 0.97722200
vt 0.23940200 0.97722200
vt 0.23940200 0.97722200
vt 0.07833600 0.00000000
vt 0.07833600 0.00000000
vt 0.07833600 0.00000000
vt 0.00000000 0.00000000
vt 0.00000000 0.00000000
vt 0.00000000 0.00000000
vt 0.07833600 0.34039900
vt 0.07833600 0.34039900
vt 0.07833600 0.34039900
vt 0.00000000 0.34039900
vt 0.00000000 0.34039900
vt 0.00000000 0.34039900
vt 0.23793700 0.00000000
vt 0.23793700 0.00000000
vt 0.23793700 0.00000000
vt 0.15960100 0.00000000
vt 0.15960100 0.00000000
vt 0.15960100 0.00000000
vt 0.23793700 0.97722200
vt 0.23793700 0.97722200
vt 0.23793700 0.97722200
vt 0.15960100 0.97722200
vt 0.15960100 0.97722200
vt 0.15960100 0.97722200
vt 0.15813600 0.00000000
vt 0.15813600 0.00000000
vt 0.15813600 0.00000000
vt 0.07980100 0.00000000
vt 0.07980100 0.00000000
vt 0.07980100 0.00000000
vt 0.15813600 0.34039900
vt 0.15813600 0.34039900
vt 0.15813600 0.34039900
vt 0.07980100 0.34039900
vt 0.07980100 0.34039900
vt 0.07980100 0.34039900
vt 0.99853500 0.00000000
vt 0.99853500 0.00000000
vt 0.99853500 0.00000000
vt 0.65960100 0.00000000
vt 0.65960100 0.00000000
vt 0.65960100 0.00000000
vt 0.99853500 0.97722200
vt 0.99853500 0.97722200
vt 0.99853500 0.97722200
vt 0.65960100 0.97722200
vt 0.65960100 0.97722200
vt 0.65960100 0.97722200
vt 0.65813600 0.00000000
vt 0.65813600 0.00000000
vt 0.65813600 0.00000000
vt 0.31920300 0.00000000
vt 0.31920300 0.00000000
vt 0.31920300 0.00000000
vt 0.65813600 0.97722200
vt 0.65813600 0.97722200
vt 0.65813600 0.97722200
vt 0.31920300 0.97722200
vt 0.31920300 0.97722200
vt 0.31920300 0.97722200
vt 0.31773800 0.00000000
vt 0.31773800 0.00000000
vt 0.31773800 0.00000000
vt 0.23940200 0.00000000
vt 0.23940200 0.00000000
vt 0.23940200 0.00000000
vt 0.31773800 0.97722200
vt 0.31773800 0.97722200
vt 0.31773800 0.97722200
vt 0.23940200 0.97722200
vt 0.23940200 0.97722200
vt 0.23940200 0.97722200
vt 0.07833600 0.00000000
vt 0.07833600 0.00000000
vt 0.07833600 0.00000000
vt 0.00000000 0.00000000
vt 0.00000000 0.00000000
vt 0.00000000 0.00000000
vt 0.07833600 0.34039900
vt 0.07833600 0.34039900
vt 0.07833600 0.34039900
vt 0.00000000 0.34039900
vt 0.00000000 0.34039900
vt 0.00000000 0.34039900
vt 0.23793700 0.00000000
vt 0.23793700 0.00000000
vt 0.23793700 0.00000000
vt 0.15960100 0.00000000
vt 0.15960100 0.00000000
vt 0.15960100 0.00000000
vt 0.23793700 0.97722200
vt 0.23793700 0.97722200
vt 0.23793700 0.97722200
vt 0.15960100 0.97722200
vt 0.15960100 0.97722200
vt 0.15960100 0.97722200
vt 0.15813600 0.00000000
vt 0.15813600 0.00000000
vt 0.15813600 0.00000000
vt 0.07980100 0.00000000
vt 0.07980100 0.00000000
vt 0.07980100 0.00000000
vt 0.15813600 0.34039900
vt 0.15813600 0.34039900
vt 0.15813600 0.34039900
vt 0.07980100 0.34039900
vt 0.07980100 0.34039900
vt 0.07980100 0.34039900
vt 0.99853500 0.00000000
vt 0.99853500 0.00000000
vt 0.99853500 0.00000000
vt 0.65960100 0.00000000
vt 0.65960100 0.00000000
vt 0.65960100 0.00000000
vt 0.99853500 0.97722200
vt 0.99853500 0.97722200
vt 0.99853500 0.97722200
vt 0.65960100 0.97722200
vt 0.65960100 0.97722200
vt 0.65960100 0.97722200
vt 0.65813600 0.00000000
vt 0.65813600 0.00000000
vt 0.65813600 0.00000000
vt 0.31920300 0.00000000
vt 0.31920300 0.00000000
vt 0.31920300 0.00000000
vt 0.65813600 0.97722200
vt 0.65813600 0.97722200
vt 0.65813600 0.97722200
vt 0.31920300 0.97722200
vt 0.31920300 0.97722200
vt 0.31920300 0.97722200
f 4/4/4 1/1/1 7/7/7
f 17/17/17 15/15/15 21/21/21
f 30/30/30 26/26/26 33/33/33
f 42/42/42 37/37/37 44/44/44
f 53/53/53 59/59/59 51/51/51
f 65/65/65 63/63/63 71/71/71
f 4/4/4 7/7/7 12/12/12
f 17/17/17 21/21/21 24/24/24
f 30/30/30 33/33/33 35/35/35
f 42/42/42 44/44/44 46/46/46
f 59/59/59 57/57/57 51/51/51
f 63/63/63 67/67/67 71/71/71
f 76/76/76 80/80/80 74/74/74
f 90/90/90 93/93/93 85/85/85
f 102/102/102 105/105/105 99/99/99
f 114/114/114 115/115/115 110/110/110
f 124/124/124 121/121/121 132/132/132
f 136/136/136 142/142/142 133/133/133
f 76/76/76 82/82/82 80/80/80
f 90/90/90 94/94/94 93/93/93
f 102/102/102 107/107/107 105/105/105
f 114/114/114 120/120/120 115/115/115
f 132/132/132 121/121/121 127/127/127
f 133/133/133 142/142/142 140/140/140
f 28/28/28 36/36/36 108/108/108
f 108/108/108 100/100/100 28/28/28
f 2/2/2 5/5/5 77/77/77
f 77/77/77 75/75/75 2/2/2
f 6/6/6 11/11/11 83/83/83
f 83/83/83 78/78/78 6/6/6
f 14/14/14 16/16/16 88/88/88
f 88/88/88 86/86/86 14/14/14
f 18/18/18 23/23/23 95/95/95
f 95/95/95 89/89/89 18/18/18
f 34/34/34 32/32/32 104/104/104
f 104/104/104 106/106/106 34/34/34
f 25/25/25 29/29/29 101/101/101
f 101/101/101 98/98/98 25/25/25
f 9/9/9 3/3/3 73/73/73
f 73/73/73 81/81/81 9/9/9
f 38/38/38 41/41/41 113/113/113
f 113/113/113 111/111/111 38/38/38
f 40/40/40 47/47/47 119/119/119
f 119/119/119 112/112/112 40/40/40
f 52/52/52 49/49/49 123/123/123
f 123/123/123 125/125/125 52/52/52
f 50/50/50 56/56/56 129/129/129
f 129/129/129 122/122/122 50/50/50
f 58/58/58 54/54/54 126/126/126
f 126/126/126 131/131/131 58/58/58
f 61/61/61 64/64/64 137/137/137
f 137/137/137 135/135/135 61/61/61
f 68/68/68 62/62/62 134/134/134
f 134/134/134 139/139/139 68/68/68
f 66/66/66 72/72/72 143/143/143
f 143/143/143 138/138/138 66/66/66
f 10/10/10 8/8/8 79/79/79
f 79/79/79 84/84/84 10/10/10
f 70/70/70 69/69/69 141/141/141
f 141/141/141 144/144/144 70/70/70
f 22/22/22 19/19/19 92/92/92
f 92/92/92 96/96/96 22/22/22
f 43/43/43 39/39/39 109/109/109
f 109/109/109 116/116/116 43/43/43
f 55/55/55 60/60/60 130/130/130
f 130/130/130 128/128/128 55/55/55
f 31/31/31 27/27/27 97/97/97
f 97/97/97 103/103/103 31/31/31
f 48/48/48 45/45/45 117/117/117
f 117/117/117 118/118/118 48/48/48
f 20/20/20 13/13/13 87/87/87
f 87/87/87 91/91/91 20/20/20

