mtllib material.mtl
usemtl a0000000-0000-0000-0000-000000000000
v -0.03446100 0.12493100 0.00294000
v -0.03446100 0.12493100 0.00294000
v -0.03446100 0.12493100 0.00294000
v -0.03342800 0.12493100 0.00439200
v -0.03342800 0.12493100 0.00439200
v -0.03342800 0.12493100 0.00439200
v -0.03314900 0.12493100 0.00615300
v -0.03314900 0.12493100 0.00615300
v -0.03314900 0.12493100 0.00615300
v -0.03368200 0.12493100 0.00785300
v -0.03368200 0.12493100 0.00785300
v -0.03368200 0.12493100 0.00785300
v -0.03446100 0.12493200 0.00294000
v -0.03446100 0.12493200 0.00294000
v -0.03446100 0.12493200 0.00294000
v -0.03342800 0.12493200 0.00439200
v -0.03342800 0.12493200 0.00439200
v -0.03342800 0.12493200 0.00439200
v -0.03314900 0.12493200 0.00615300
v -0.03314900 0.12493200 0.00615300
v -0.03314900 0.12493200 0.00615300
v -0.03368200 0.12493200 0.00785300
v -0.03368200 0.12493200 0.00785300
v -0.03368200 0.12493200 0.00785300
v -0.03446100 0.12493200 0.00294000
v -0.03446100 0.12493200 0.00294000
v -0.03446100 0.12493200 0.00294000
v -0.03342800 0.12493200 0.00439200
v -0.03342800 0.12493200 0.00439200
v -0.03342800 0.12493200 0.00439200
v -0.03314900 0.12493200 0.00615300
v -0.03314900 0.12493200 0.00615300
v -0.03314900 0.12493200 0.00615300
v -0.03368200 0.12493200 0.00785300
v -0.03368200 0.12493200 0.00785300
v -0.03368200 0.12493200 0.00785300
v -0.03446100 0.12493100 0.00294000
v -0.03446100 0.12493100 0.00294000
v -0.03446100 0.12493100 0.00294000
v -0.03342800 0.12493100 0.00439200
v -0.03342800 0.12493100 0.00439200
v -0.03342800 0.12493100 0.00439200
v -0.03314900 0.12493100 0.00615300
v -0.03314900 0.12493100 0.00615300
v -0.03314900 0.12493100 0.00615300
v -0.03368200 0.12493100 0.00785300
v -0.03368200 0.12493100 0.00785300
v -0.03368200 0.12493100 0.00785300
vn 0.00000000 -1.00000000 0.00000000
vn 0.81260000 0.00000000 -0.58280000
vn -0.98780000 0.00000000 0.15560000
vn 0.00000000 -1.00000000 0.00000000
vn 0.98770000 0.00000000 -0.15630000
vn 0.81260000 0.00000000 -0.58280000
vn 0.98770000 0.00000000 -0.15630000
vn 0.95390000 0.00000000 0.30020000
vn 0.00000000 -1.00000000 0.00000000
vn 0.00000000 -1.00000000 0.00000000
vn -0.98780000 0.00000000 0.15560000
vn 0.95390000 0.00000000 0.30020000
vn 0.00000000 1.00000000 0.00000000
vn 0.81260000 0.00000000 -0.58280000
vn -0.98780000 0.00000000 0.15560000
vn 0.00000000 1.00000000 0.00000000
vn 0.81260000 0.00000000 -0.58280000
vn 0.98770000 0.00000000 -0.15630000
vn 0.95390000 0.00000000 0.30020000
vn 0.98770000 0.00000000 -0.15630000
vn 0.00000000 1.00000000 0.00000000
vn -0.98780000 0.00000000 0.15560000
vn 0.00000000 1.00000000 0.00000000
vn 0.95390000 0.00000000 0.30020000
vn -0.98780000 0.00000000 0.15560000
vn 0.00000000 1.00000000 0.00000000
vn 0.81260000 0.00000000 -0.58280000
vn 0.00000000 1.00000000 0.00000000
vn 0.81260000 0.00000000 -0.58280000
vn 0.98770000 0.00000000 -0.15630000
vn 0.00000000 1.00000000 0.00000000
vn 0.98770000 0.00000000 -0.15630000
vn 0.95390000 0.00000000 0.30020000
vn 0.95390000 0.00000000 0.30020000
vn 0.00000000 1.00000000 0.00000000
vn -0.98780000 0.00000000 0.15560000
vn -0.98780000 0.00000000 0.15560000
vn 0.00000000 -1.00000000 0.00000000
vn 0.81260000 0.00000000 -0.58280000
vn 0.81260000 0.00000000 -0.58280000
vn 0.98770000 0.00000000 -0.15630000
vn 0.00000000 -1.00000000 0.00000000
vn 0.98770000 0.00000000 -0.15630000
vn 0.00000000 -1.00000000 0.00000000
vn 0.95390000 0.00000000 0.30020000
vn -0.98780000 0.00000000 0.15560000
vn 0.95390000 0.00000000 0.30020000
vn 0.00000000 -1.00000000 0.00000000
vt 0.27138300 0.00979000
vt 0.27138300 0.00979000
vt 0.27138300 0.00979000
vt 0.47635600 0.29918200
vt 0.47635600 0.29918200
vt 0.47635600 0.29918200
vt 0.53168300 0.64992000
vt 0.53168300 0.64992000
vt 0.53168300 0.64992000
vt 0.42580900 0.98874600
vt 0.42580900 0.98874600
vt 0.42580900 0.98874600
vt 0.00480900 0.00979000
vt 0.00480900 0.00979000
vt 0.00480900 0.00979000
vt 0.20978200 0.29918200
vt 0.20978200 0.29918200
vt 0.20978200 0.29918200
vt 0.26510900 0.64992000
vt 0.26510900 0.64992000
vt 0.26510900 0.64992000
vt 0.15923500 0.98874600
vt 0.15923500 0.98874600
vt 0.15923500 0.98874600
vt 0.27138300 0.00979000
vt 0.27138300 0.00979000
vt 0.27138300 0.00979000
vt 0.47635600 0.29918200
vt 0.47635600 0.29918200
vt 0.47635600 0.29918200
vt 0.53168300 0.64992000
vt 0.53168300 0.64992000
vt 0.53168300 0.64992000
vt 0.42580900 0.98874600
vt 0.42580900 0.98874600
vt 0.42580900 0.98874600
vt 0.00480900 0.00979000
vt 0.00480900 0.00979000
vt 0.00480900 0.00979000
vt 0.20978200 0.29918200
vt 0.20978200 0.29918200
vt 0.20978200 0.29918200
vt 0.26510900 0.64992000
vt 0.26510900 0.64992000
vt 0.26510900 0.64992000
vt 0.15923500 0.98874600
vt 0.15923500 0.98874600
vt 0.15923500 0.98874600
f 4/4/4 10/10/10 1/1/1
f 10/10/10 4/4/4 9/9/9
f 16/16/16 13/13/13 23/23/23
f 23/23/23 21/21/21 16/16/16
f 28/28/28 26/26/26 35/35/35
f 35/35/35 31/31/31 28/28/28
f 42/42/42 48/48/48 38/38/38
f 48/48/48 42/42/42 44/44/44
f 12/12/12 8/8/8 33/33/33
f 33/33/33 34/34/34 12/12/12
f 6/6/6 2/2/2 27/27/27
f 27/27/27 29/29/29 6/6/6
f 7/7/7 5/5/5 30/30/30
f 30/30/30 32/32/32 7/7/7
f 3/3/3 11/11/11 36/36/36
f 36/36/36 25/25/25 3/3/3
f 14/14/14 17/17/17 40/40/40
f 40/40/40 39/39/39 14/14/14
f 18/18/18 20/20/20 43/43/43
f 43/43/43 41/41/41 18/18/18
f 22/22/22 15/15/15 37/37/37
f 37/37/37 46/46/46 22/22/22
f 19/19/19 24/24/24 47/47/47
f 47/47/47 45/45/45 19/19/19

