mtllib material.mtl
usemtl Material-7011油漆.003
v -0.01618400 0.12493200 -0.02474100
v -0.01618400 0.12493200 -0.02474100
v -0.01618400 0.12493200 -0.02474100
v -0.01618400 0.12563200 -0.02474100
v -0.01618400 0.12563200 -0.02474100
v -0.01618400 0.12563200 -0.02474100
v -0.01598200 0.12493200 -0.01914600
v -0.01598200 0.12493200 -0.01914600
v -0.01598200 0.12493200 -0.01914600
v -0.01598200 0.12563200 -0.01914600
v -0.01598200 0.12563200 -0.01914600
v -0.01598200 0.12563200 -0.01914600
v -0.01611600 0.12493200 -0.02287600
v -0.01611600 0.12493200 -0.02287600
v -0.01604900 0.12493200 -0.02101100
v -0.01604900 0.12493200 -0.02101100
v -0.01604900 0.12493200 -0.02101100
v -0.01604900 0.12563200 -0.02101100
v -0.01604900 0.12563200 -0.02101100
v -0.01611600 0.12563200 -0.02287600
v -0.01611600 0.12563200 -0.02287600
v -0.01598200 0.12493200 -0.01914600
v -0.01598200 0.12493200 -0.01914600
v -0.01598200 0.12493200 -0.01914600
v -0.01598200 0.12563200 -0.01914600
v -0.01598200 0.12563200 -0.01914600
v -0.01598200 0.12563200 -0.01914600
v -0.01848500 0.12493200 -0.01606800
v -0.01848500 0.12493200 -0.01606800
v -0.01848500 0.12493200 -0.01606800
v -0.01848500 0.12563200 -0.01606800
v -0.01848500 0.12563200 -0.01606800
v -0.01848500 0.12563200 -0.01606800
v -0.01723400 0.12563200 -0.01760700
v -0.01723400 0.12563200 -0.01760700
v -0.01723400 0.12493200 -0.01760700
v -0.01723400 0.12493200 -0.01760700
v -0.01848500 0.12493200 -0.01606700
v -0.01848500 0.12493200 -0.01606700
v -0.01848500 0.12493200 -0.01606700
v -0.01848500 0.12563200 -0.01606700
v -0.01848500 0.12563200 -0.01606700
v -0.01848500 0.12563200 -0.01606700
v -0.01288900 0.12493200 -0.01626900
v -0.01288900 0.12493200 -0.01626900
v -0.01288900 0.12493200 -0.01626900
v -0.01288900 0.12563200 -0.01626900
v -0.01288900 0.12563200 -0.01626900
v -0.01288900 0.12563200 -0.01626900
v -0.01717900 0.12493200 -0.01611400
v -0.01717900 0.12493200 -0.01611400
v -0.01587400 0.12493200 -0.01616200
v -0.01587400 0.12493200 -0.01616200
v -0.01587400 0.12493200 -0.01616200
v -0.01587400 0.12493200 -0.01616200
v -0.01438200 0.12493200 -0.01621500
v -0.01438200 0.12493200 -0.01621500
v -0.01438200 0.12563200 -0.01621500
v -0.01438200 0.12563200 -0.01621500
v -0.01587400 0.12563200 -0.01616200
v -0.01587400 0.12563200 -0.01616200
v -0.01587400 0.12563200 -0.01616200
v -0.01587400 0.12563200 -0.01616200
v -0.01717900 0.12563200 -0.01611400
v -0.01717900 0.12563200 -0.01611400
v -0.01288900 0.12493200 -0.01626900
v -0.01288900 0.12493200 -0.01626900
v -0.01288900 0.12493200 -0.01626900
v -0.01288900 0.12563200 -0.01626900
v -0.01288900 0.12563200 -0.01626900
v -0.01288900 0.12563200 -0.01626900
v -0.01319800 0.12493200 -0.02484900
v -0.01319800 0.12493200 -0.02484900
v -0.01319800 0.12493200 -0.02484900
v -0.01319800 0.12563200 -0.02484900
v -0.01319800 0.12563200 -0.02484900
v -0.01319800 0.12563200 -0.02484900
v -0.01296600 0.12493200 -0.01841400
v -0.01296600 0.12493200 -0.01841400
v -0.01296600 0.12493200 -0.01841400
v -0.01304300 0.12493200 -0.02055900
v -0.01304300 0.12493200 -0.02055900
v -0.01304300 0.12493200 -0.02055900
v -0.01312100 0.12493200 -0.02270400
v -0.01312100 0.12493200 -0.02270400
v -0.01312100 0.12563200 -0.02270400
v -0.01312100 0.12563200 -0.02270400
v -0.01304300 0.12563200 -0.02055900
v -0.01304300 0.12563200 -0.02055900
v -0.01304300 0.12563200 -0.02055900
v -0.01296600 0.12563200 -0.01841400
v -0.01296600 0.12563200 -0.01841400
v -0.01296600 0.12563200 -0.01841400
v -0.01319800 0.12493200 -0.02484900
v -0.01319800 0.12493200 -0.02484900
v -0.01319800 0.12493200 -0.02484900
v -0.01319800 0.12563200 -0.02484900
v -0.01319800 0.12563200 -0.02484900
v -0.01319800 0.12563200 -0.02484900
v -0.01618300 0.12493200 -0.02474200
v -0.01618300 0.12493200 -0.02474200
v -0.01618300 0.12493200 -0.02474200
v -0.01618300 0.12563200 -0.02474200
v -0.01618300 0.12563200 -0.02474200
v -0.01618300 0.12563200 -0.02474200
v -0.01469100 0.12563200 -0.02479600
v -0.01469100 0.12563200 -0.02479600
v -0.01469100 0.12563200 -0.02479600
v -0.01469100 0.12493200 -0.02479600
v -0.01469100 0.12493200 -0.02479600
v -0.01848500 0.12493100 -0.01606800
v -0.01848500 0.12493100 -0.01606800
v -0.01848500 0.12493100 -0.01606800
v -0.01319800 0.12493100 -0.02484900
v -0.01319800 0.12493100 -0.02484900
v -0.01319800 0.12493100 -0.02484900
v -0.01618300 0.12493100 -0.02474100
v -0.01618300 0.12493100 -0.02474100
v -0.01618300 0.12493100 -0.02474100
v -0.01611600 0.12493100 -0.02287600
v -0.01611600 0.12493100 -0.02287600
v -0.01604900 0.12493100 -0.02101100
v -0.01604900 0.12493100 -0.02101100
v -0.01598200 0.12493100 -0.01914600
v -0.01598200 0.12493100 -0.01914600
v -0.01598200 0.12493100 -0.01914600
v -0.01723300 0.12493100 -0.01760700
v -0.01723300 0.12493100 -0.01760700
v -0.01717900 0.12493100 -0.01611500
v -0.01717900 0.12493100 -0.01611500
v -0.01587400 0.12493100 -0.01616200
v -0.01587400 0.12493100 -0.01616200
v -0.01587400 0.12493100 -0.01616200
v -0.01438200 0.12493100 -0.01621600
v -0.01438200 0.12493100 -0.01621600
v -0.01288900 0.12493100 -0.01626900
v -0.01288900 0.12493100 -0.01626900
v -0.01288900 0.12493100 -0.01626900
v -0.01296700 0.12493100 -0.01841400
v -0.01296700 0.12493100 -0.01841400
v -0.01304400 0.12493100 -0.02055900
v -0.01304400 0.12493100 -0.02055900
v -0.01312100 0.12493100 -0.02270400
v -0.01312100 0.12493100 -0.02270400
v -0.01312100 0.12493100 -0.02270400
v -0.01469100 0.12493100 -0.02479500
v -0.01469100 0.12493100 -0.02479500
v -0.01848500 0.12563200 -0.01606800
v -0.01848500 0.12563200 -0.01606800
v -0.01848500 0.12563200 -0.01606800
v -0.01319800 0.12563200 -0.02484900
v -0.01319800 0.12563200 -0.02484900
v -0.01319800 0.12563200 -0.02484900
v -0.01618300 0.12563200 -0.02474100
v -0.01618300 0.12563200 -0.02474100
v -0.01618300 0.12563200 -0.02474100
v -0.01611600 0.12563200 -0.02287600
v -0.01611600 0.12563200 -0.02287600
v -0.01611600 0.12563200 -0.02287600
v -0.01604900 0.12563200 -0.02101100
v -0.01604900 0.12563200 -0.02101100
v -0.01604900 0.12563200 -0.02101100
v -0.01598200 0.12563200 -0.01914600
v -0.01598200 0.12563200 -0.01914600
v -0.01598200 0.12563200 -0.01914600
v -0.01723300 0.12563200 -0.01760700
v -0.01723300 0.12563200 -0.01760700
v -0.01717900 0.12563200 -0.01611500
v -0.01717900 0.12563200 -0.01611500
v -0.01587400 0.12563200 -0.01616200
v -0.01587400 0.12563200 -0.01616200
v -0.01587400 0.12563200 -0.01616200
v -0.01438200 0.12563200 -0.01621600
v -0.01438200 0.12563200 -0.01621600
v -0.01288900 0.12563200 -0.01626900
v -0.01288900 0.12563200 -0.01626900
v -0.01288900 0.12563200 -0.01626900
v -0.01296700 0.12563200 -0.01841400
v -0.01296700 0.12563200 -0.01841400
v -0.01304400 0.12563200 -0.02055900
v -0.01304400 0.12563200 -0.02055900
v -0.01304400 0.12563200 -0.02055900
v -0.01312100 0.12563200 -0.02270400
v -0.01312100 0.12563200 -0.02270400
v -0.01469100 0.12563200 -0.02479500
v -0.01469100 0.12563200 -0.02479500
v -0.01618300 0.12493200 -0.02474100
v -0.01618300 0.12493200 -0.02474100
v -0.01618300 0.12493200 -0.02474100
v -0.01618300 0.12563200 -0.02474100
v -0.01618300 0.12563200 -0.02474100
v -0.01618300 0.12563200 -0.02474100
v -0.01598100 0.12493200 -0.01914600
v -0.01598100 0.12493200 -0.01914600
v -0.01598100 0.12493200 -0.01914600
v -0.01598100 0.12563200 -0.01914600
v -0.01598100 0.12563200 -0.01914600
v -0.01598100 0.12563200 -0.01914600
v -0.01611500 0.12493200 -0.02287600
v -0.01611500 0.12493200 -0.02287600
v -0.01604800 0.12493200 -0.02101100
v -0.01604800 0.12493200 -0.02101100
v -0.01604800 0.12493200 -0.02101100
v -0.01604800 0.12563200 -0.02101100
v -0.01604800 0.12563200 -0.02101100
v -0.01611500 0.12563200 -0.02287600
v -0.01611500 0.12563200 -0.02287600
v -0.01598100 0.12493200 -0.01914500
v -0.01598100 0.12493200 -0.01914500
v -0.01598100 0.12493200 -0.01914500
v -0.01598100 0.12563200 -0.01914500
v -0.01598100 0.12563200 -0.01914500
v -0.01598100 0.12563200 -0.01914500
v -0.01848400 0.12493200 -0.01606800
v -0.01848400 0.12493200 -0.01606800
v -0.01848400 0.12493200 -0.01606800
v -0.01848400 0.12563200 -0.01606800
v -0.01848400 0.12563200 -0.01606800
v -0.01848400 0.12563200 -0.01606800
v -0.01723300 0.12563200 -0.01760600
v -0.01723300 0.12563200 -0.01760600
v -0.01723300 0.12493200 -0.01760600
v -0.01723300 0.12493200 -0.01760600
v -0.01848500 0.12493200 -0.01606800
v -0.01848500 0.12493200 -0.01606800
v -0.01848500 0.12493200 -0.01606800
v -0.01848500 0.12563200 -0.01606800
v -0.01848500 0.12563200 -0.01606800
v -0.01848500 0.12563200 -0.01606800
v -0.01288900 0.12493200 -0.01627000
v -0.01288900 0.12493200 -0.01627000
v -0.01288900 0.12493200 -0.01627000
v -0.01288900 0.12563200 -0.01627000
v -0.01288900 0.12563200 -0.01627000
v -0.01288900 0.12563200 -0.01627000
v -0.01717900 0.12493200 -0.01611500
v -0.01717900 0.12493200 -0.01611500
v -0.01587400 0.12493200 -0.01616300
v -0.01587400 0.12493200 -0.01616300
v -0.01587400 0.12493200 -0.01616300
v -0.01587400 0.12493200 -0.01616300
v -0.01438200 0.12493200 -0.01621600
v -0.01438200 0.12493200 -0.01621600
v -0.01438200 0.12563200 -0.01621600
v -0.01438200 0.12563200 -0.01621600
v -0.01587400 0.12563200 -0.01616300
v -0.01587400 0.12563200 -0.01616300
v -0.01587400 0.12563200 -0.01616300
v -0.01587400 0.12563200 -0.01616300
v -0.01587400 0.12563200 -0.01616300
v -0.01717900 0.12563200 -0.01611500
v -0.01717900 0.12563200 -0.01611500
v -0.01289000 0.12493200 -0.01626900
v -0.01289000 0.12493200 -0.01626900
v -0.01289000 0.12493200 -0.01626900
v -0.01289000 0.12563200 -0.01626900
v -0.01289000 0.12563200 -0.01626900
v -0.01289000 0.12563200 -0.01626900
v -0.01319900 0.12493200 -0.02484900
v -0.01319900 0.12493200 -0.02484900
v -0.01319900 0.12493200 -0.02484900
v -0.01319900 0.12563200 -0.02484900
v -0.01319900 0.12563200 -0.02484900
v -0.01319900 0.12563200 -0.02484900
v -0.01296700 0.12493200 -0.01841400
v -0.01296700 0.12493200 -0.01841400
v -0.01296700 0.12493200 -0.01841400
v -0.01304400 0.12493200 -0.02055900
v -0.01304400 0.12493200 -0.02055900
v -0.01304400 0.12493200 -0.02055900
v -0.01312200 0.12493200 -0.02270400
v -0.01312200 0.12493200 -0.02270400
v -0.01312200 0.12563200 -0.02270400
v -0.01312200 0.12563200 -0.02270400
v -0.01304400 0.12563200 -0.02055900
v -0.01304400 0.12563200 -0.02055900
v -0.01304400 0.12563200 -0.02055900
v -0.01296700 0.12563200 -0.01841400
v -0.01296700 0.12563200 -0.01841400
v -0.01296700 0.12563200 -0.01841400
v -0.01319800 0.12493200 -0.02484800
v -0.01319800 0.12493200 -0.02484800
v -0.01319800 0.12493200 -0.02484800
v -0.01319800 0.12563200 -0.02484800
v -0.01319800 0.12563200 -0.02484800
v -0.01319800 0.12563200 -0.02484800
v -0.01618300 0.12493200 -0.02474100
v -0.01618300 0.12493200 -0.02474100
v -0.01618300 0.12493200 -0.02474100
v -0.01618300 0.12563200 -0.02474100
v -0.01618300 0.12563200 -0.02474100
v -0.01618300 0.12563200 -0.02474100
v -0.01469100 0.12563200 -0.02479500
v -0.01469100 0.12563200 -0.02479500
v -0.01469100 0.12563200 -0.02479500
v -0.01469100 0.12493200 -0.02479500
v -0.01469100 0.12493200 -0.02479500
v -0.01848500 0.12493200 -0.01606800
v -0.01848500 0.12493200 -0.01606800
v -0.01848500 0.12493200 -0.01606800
v -0.01319800 0.12493200 -0.02484900
v -0.01319800 0.12493200 -0.02484900
v -0.01319800 0.12493200 -0.02484900
v -0.01618300 0.12493200 -0.02474100
v -0.01618300 0.12493200 -0.02474100
v -0.01618300 0.12493200 -0.02474100
v -0.01611600 0.12493200 -0.02287600
v -0.01611600 0.12493200 -0.02287600
v -0.01604900 0.12493200 -0.02101100
v -0.01604900 0.12493200 -0.02101100
v -0.01598200 0.12493200 -0.01914600
v -0.01598200 0.12493200 -0.01914600
v -0.01598200 0.12493200 -0.01914600
v -0.01723300 0.12493200 -0.01760700
v -0.01723300 0.12493200 -0.01760700
v -0.01717900 0.12493200 -0.01611500
v -0.01717900 0.12493200 -0.01611500
v -0.01587400 0.12493200 -0.01616200
v -0.01587400 0.12493200 -0.01616200
v -0.01587400 0.12493200 -0.01616200
v -0.01438200 0.12493200 -0.01621600
v -0.01438200 0.12493200 -0.01621600
v -0.01288900 0.12493200 -0.01626900
v -0.01288900 0.12493200 -0.01626900
v -0.01288900 0.12493200 -0.01626900
v -0.01296700 0.12493200 -0.01841400
v -0.01296700 0.12493200 -0.01841400
v -0.01304400 0.12493200 -0.02055900
v -0.01304400 0.12493200 -0.02055900
v -0.01312100 0.12493200 -0.02270400
v -0.01312100 0.12493200 -0.02270400
v -0.01312100 0.12493200 -0.02270400
v -0.01469100 0.12493200 -0.02479500
v -0.01469100 0.12493200 -0.02479500
v -0.01848500 0.12563100 -0.01606800
v -0.01848500 0.12563100 -0.01606800
v -0.01848500 0.12563100 -0.01606800
v -0.01319800 0.12563100 -0.02484900
v -0.01319800 0.12563100 -0.02484900
v -0.01319800 0.12563100 -0.02484900
v -0.01618300 0.12563100 -0.02474100
v -0.01618300 0.12563100 -0.02474100
v -0.01618300 0.12563100 -0.02474100
v -0.01611600 0.12563100 -0.02287600
v -0.01611600 0.12563100 -0.02287600
v -0.01611600 0.12563100 -0.02287600
v -0.01604900 0.12563100 -0.02101100
v -0.01604900 0.12563100 -0.02101100
v -0.01604900 0.12563100 -0.02101100
v -0.01598200 0.12563100 -0.01914600
v -0.01598200 0.12563100 -0.01914600
v -0.01598200 0.12563100 -0.01914600
v -0.01723300 0.12563100 -0.01760700
v -0.01723300 0.12563100 -0.01760700
v -0.01717900 0.12563100 -0.01611500
v -0.01717900 0.12563100 -0.01611500
v -0.01587400 0.12563100 -0.01616200
v -0.01587400 0.12563100 -0.01616200
v -0.01587400 0.12563100 -0.01616200
v -0.01438200 0.12563100 -0.01621600
v -0.01438200 0.12563100 -0.01621600
v -0.01288900 0.12563100 -0.01626900
v -0.01288900 0.12563100 -0.01626900
v -0.01288900 0.12563100 -0.01626900
v -0.01296700 0.12563100 -0.01841400
v -0.01296700 0.12563100 -0.01841400
v -0.01304400 0.12563100 -0.02055900
v -0.01304400 0.12563100 -0.02055900
v -0.01304400 0.12563100 -0.02055900
v -0.01312100 0.12563100 -0.02270400
v -0.01312100 0.12563100 -0.02270400
v -0.01469100 0.12563100 -0.02479500
v -0.01469100 0.12563100 -0.02479500
vn 0.00000000 -1.00000000 -0.00000000
vn -0.99940000 0.00000000 0.03600000
vn -0.03380000 0.00000000 -0.99940000
vn -0.03380000 0.00000000 -0.99940000
vn 0.00000000 1.00000000 -0.00000000
vn -0.99940000 0.00000000 0.03600000
vn -0.99940000 0.00000000 0.03600000
vn 0.03640000 0.00000000 0.99930000
vn 0.00000000 -1.00000000 -0.00050000
vn 0.00000000 1.00000000 -0.00000000
vn -0.99940000 0.00000000 0.03600000
vn 0.03640000 0.00000000 0.99930000
vn 0.00000000 -1.00000000 -0.00000000
vn -0.99940000 0.00000000 0.03600000
vn -0.99940000 0.00000000 0.03600000
vn 0.00000000 -1.00000000 -0.00000000
vn 0.00000000 -1.00000000 -0.00050000
vn -0.99940000 0.00000000 0.03600000
vn 0.00000000 1.00000000 -0.00000000
vn -0.99940000 0.00000000 0.03600000
vn 0.00000000 1.00000000 -0.00000000
vn 0.00000000 -1.00000000 -0.00000000
vn -0.77580000 0.00000000 -0.63100000
vn 0.62920000 0.00000000 -0.77720000
vn 0.00000000 1.00000000 -0.00000000
vn -0.77580000 0.00000000 -0.63100000
vn 0.62920000 0.00000000 -0.77720000
vn 0.00000000 -1.00000000 -0.00000000
vn -0.63090000 0.00000000 0.77580000
vn -0.77580000 0.00000000 -0.63100000
vn -0.63090000 0.00000000 0.77580000
vn 0.00000000 1.00000000 -0.00000000
vn -0.77580000 0.00000000 -0.63100000
vn 0.00000000 1.00000000 -0.00000000
vn -0.77580000 0.00000000 -0.63100000
vn -0.77580000 0.00000000 -0.63100000
vn 0.00000000 -1.00000000 -0.00000000
vn -0.99940000 0.00000000 0.03360000
vn 0.03610000 0.00000000 0.99930000
vn 0.00000000 -1.00000000 -0.00000000
vn 0.00000000 1.00000000 -0.00000000
vn 0.03610000 0.00000000 0.99930000
vn -0.99940000 0.00000000 0.03360000
vn 0.00000000 -1.00000000 -0.00000000
vn 0.99930000 0.00000000 -0.03630000
vn 0.03590000 0.00000000 0.99940000
vn 0.03590000 0.00000000 0.99940000
vn 0.99930000 0.00000000 -0.03630000
vn 0.00000000 1.00000000 -0.00000000
vn 0.03610000 0.00000000 0.99930000
vn 0.00000000 -1.00000000 -0.00000000
vn 0.00000000 -1.00000000 -0.00000000
vn 0.03590000 0.00000000 0.99940000
vn 0.03570000 -0.00000000 0.99940000
vn -0.00000000 -1.00000000 -0.00030000
vn 0.00000000 -1.00000000 -0.00000000
vn 0.03590000 0.00000000 0.99940000
vn 0.00000000 1.00000000 -0.00000000
vn 0.03590000 0.00000000 0.99940000
vn 0.03570000 -0.00000000 0.99940000
vn -0.00000000 1.00000000 -0.00030000
vn 0.03590000 0.00000000 0.99940000
vn 0.00000000 1.00000000 -0.00000000
vn 0.03610000 0.00000000 0.99930000
vn 0.00000000 1.00000000 -0.00000000
vn 0.99940000 0.00000000 -0.03600000
vn 0.03510000 0.00000000 0.99940000
vn 0.00000000 -1.00000000 -0.00000000
vn 0.03510000 0.00000000 0.99940000
vn 0.00000000 1.00000000 -0.00000000
vn 0.99940000 0.00000000 -0.03600000
vn 0.00000000 -1.00000000 -0.00000000
vn -0.03640000 0.00000000 -0.99930000
vn 0.99940000 0.00000000 -0.03600000
vn 0.00000000 1.00000000 -0.00000000
vn 0.99940000 0.00000000 -0.03600000
vn -0.03640000 0.00000000 -0.99930000
vn 0.99940000 0.00000000 -0.03600000
vn 0.00000000 -1.00000000 -0.00000000
vn 0.00000000 -1.00000000 -0.00040000
vn 0.99940000 0.00000000 -0.03600000
vn 0.00000000 -1.00000000 -0.00040000
vn 0.00000000 -1.00000000 -0.00000000
vn 0.99940000 0.00000000 -0.03600000
vn 0.00000000 -1.00000000 -0.00000000
vn 0.99940000 0.00000000 -0.03600000
vn 0.00000000 1.00000000 -0.00000000
vn 0.00000000 1.00000000 -0.00000000
vn 0.99940000 0.00000000 -0.03600000
vn 0.00000000 1.00000000 0.00040000
vn 0.00000000 1.00000000 -0.00000000
vn 0.99940000 0.00000000 -0.03600000
vn 0.00000000 1.00000000 0.00040000
vn 0.99930000 0.00000000 -0.03640000
vn -0.03600000 0.00000000 -0.99940000
vn 0.00000000 -1.00000000 -0.00000000
vn 0.99930000 0.00000000 -0.03640000
vn -0.03600000 0.00000000 -0.99940000
vn 0.00000000 1.00000000 -0.00000000
vn 0.00000000 -1.00000000 -0.00000000
vn -0.99940000 0.00000000 0.03350000
vn -0.03600000 0.00000000 -0.99940000
vn 0.00000000 1.00000000 0.00970000
vn -0.99940000 0.00000000 0.03350000
vn -0.03600000 0.00000000 -0.99940000
vn 0.00000000 1.00000000 0.00970000
vn 0.00000000 1.00000000 -0.00000000
vn -0.03600000 0.00000000 -0.99940000
vn -0.03600000 0.00000000 -0.99940000
vn 0.00000000 -1.00000000 -0.00000000
vn 0.00000000 -1.00000000 -0.00000000
vn -0.77760000 0.00000000 -0.62870000
vn 0.03620000 0.00000000 0.99930000
vn -0.03570000 0.00000000 -0.99940000
vn 0.99940000 0.00000000 -0.03580000
vn 0.00000000 -1.00000000 -0.00000000
vn 0.00000000 -1.00000000 -0.00000000
vn -0.03570000 0.00000000 -0.99940000
vn -0.99940000 0.00000000 0.03590000
vn -0.99940000 0.00000000 0.03590000
vn 0.00000000 -1.00000000 -0.00000000
vn -0.99940000 0.00000000 0.03590000
vn 0.00000000 -1.00000000 -0.00000000
vn -0.77760000 0.00000000 -0.62870000
vn -0.99940000 0.00000000 0.03590000
vn 0.00000000 -1.00000000 -0.00000000
vn -0.77760000 0.00000000 -0.62870000
vn 0.00000000 -1.00000000 -0.00000000
vn 0.00000000 -1.00000000 -0.00000000
vn 0.03620000 0.00000000 0.99930000
vn 0.00000000 -1.00000000 -0.00000000
vn 0.03560000 0.00000000 0.99940000
vn 0.03620000 0.00000000 0.99930000
vn 0.00000000 -1.00000000 -0.00000000
vn 0.03560000 0.00000000 0.99940000
vn 0.99930000 0.00000000 -0.03620000
vn 0.03560000 0.00000000 0.99940000
vn 0.00000000 -1.00000000 -0.00000000
vn 0.99930000 0.00000000 -0.03620000
vn 0.00000000 -1.00000000 -0.00000000
vn 0.00000000 -1.00000000 -0.00000000
vn 0.99930000 0.00000000 -0.03620000
vn 0.99930000 0.00000000 -0.03620000
vn 0.99940000 0.00000000 -0.03580000
vn 0.00000000 -1.00000000 -0.00000000
vn 0.00000000 -1.00000000 -0.00000000
vn -0.03570000 0.00000000 -0.99940000
vn 0.00000000 1.00000000 -0.00000000
vn -0.77890000 0.00000000 -0.62710000
vn 0.03590000 0.00000000 0.99940000
vn -0.03580000 0.00000000 -0.99940000
vn 0.00000000 1.00000000 -0.00000000
vn 0.99930000 0.00000000 -0.03610000
vn -0.99930000 0.00000000 0.03610000
vn 0.00000000 1.00000000 -0.00000000
vn -0.03580000 0.00000000 -0.99940000
vn -0.99930000 0.00000000 0.03610000
vn 0.00000000 1.00000000 -0.00000000
vn -0.99940000 0.00000000 0.03560000
vn -0.99930000 0.00000000 0.03610000
vn -0.99940000 0.00000000 0.03560000
vn 0.00000000 1.00000000 -0.00000000
vn -0.77890000 0.00000000 -0.62710000
vn 0.00000000 1.00000000 -0.00000000
vn -0.99930000 0.00000000 0.03610000
vn -0.77890000 0.00000000 -0.62710000
vn 0.00000000 1.00000000 -0.00000000
vn 0.00000000 1.00000000 -0.00000000
vn 0.03590000 0.00000000 0.99940000
vn 0.03590000 0.00000000 0.99940000
vn 0.03570000 -0.00000000 0.99940000
vn 0.00000000 1.00000000 -0.00000000
vn 0.00000000 1.00000000 -0.00000000
vn 0.03570000 -0.00000000 0.99940000
vn 0.00000000 1.00000000 -0.00000000
vn 0.99940000 0.00000000 -0.03570000
vn 0.03570000 -0.00000000 0.99940000
vn 0.99940000 0.00000000 -0.03570000
vn 0.00000000 1.00000000 -0.00000000
vn 0.99940000 0.00000000 -0.03570000
vn 0.00000000 1.00000000 -0.00000000
vn 0.99930000 0.00000000 -0.03610000
vn 0.99930000 0.00000000 -0.03610000
vn 0.00000000 1.00000000 -0.00000000
vn -0.03580000 0.00000000 -0.99940000
vn 0.00000000 1.00000000 -0.00000000
vn -0.03380000 0.00000000 -0.99940000
vn 0.99940000 0.00000000 -0.03600000
vn 0.00000000 -1.00000000 -0.00000000
vn -0.03380000 0.00000000 -0.99940000
vn 0.00000000 1.00000000 -0.00000000
vn 0.99940000 0.00000000 -0.03600000
vn 0.00000000 -1.00000000 -0.00050000
vn 0.03640000 0.00000000 0.99930000
vn 0.99940000 0.00000000 -0.03600000
vn 0.99940000 0.00000000 -0.03600000
vn 0.03640000 0.00000000 0.99930000
vn 0.00000000 1.00000000 -0.00000000
vn 0.00000000 -1.00000000 -0.00000000
vn 0.99940000 0.00000000 -0.03600000
vn 0.99940000 0.00000000 -0.03600000
vn 0.00000000 -1.00000000 -0.00000000
vn 0.00000000 -1.00000000 -0.00050000
vn 0.00000000 1.00000000 -0.00000000
vn 0.99940000 0.00000000 -0.03600000
vn 0.00000000 1.00000000 -0.00000000
vn 0.99940000 0.00000000 -0.03600000
vn 0.00000000 -1.00000000 -0.00000000
vn 0.77580000 0.00000000 0.63100000
vn 0.62920000 0.00000000 -0.77720000
vn 0.77580000 0.00000000 0.63100000
vn 0.62920000 0.00000000 -0.77720000
vn 0.00000000 1.00000000 -0.00000000
vn 0.77580000 0.00000000 0.63100000
vn 0.00000000 -1.00000000 -0.00000000
vn -0.63090000 0.00000000 0.77580000
vn 0.77580000 0.00000000 0.63100000
vn 0.00000000 1.00000000 -0.00000000
vn -0.63090000 0.00000000 0.77580000
vn 0.77580000 0.00000000 0.63100000
vn 0.00000000 1.00000000 -0.00000000
vn 0.77580000 0.00000000 0.63100000
vn 0.00000000 -1.00000000 -0.00000000
vn -0.99940000 0.00000000 0.03360000
vn 0.00000000 -1.00000000 -0.00000000
vn -0.03610000 0.00000000 -0.99930000
vn -0.99940000 0.00000000 0.03360000
vn 0.00000000 1.00000000 -0.00000000
vn -0.03610000 0.00000000 -0.99930000
vn 0.00000000 -1.00000000 -0.00000000
vn -0.03590000 0.00000000 -0.99940000
vn 0.99930000 0.00000000 -0.03630000
vn -0.03590000 0.00000000 -0.99940000
vn 0.00000000 1.00000000 -0.00000000
vn 0.99930000 0.00000000 -0.03630000
vn -0.03610000 0.00000000 -0.99930000
vn 0.00000000 -1.00000000 -0.00000000
vn -0.00030000 -1.00000000 0.00000000
vn 0.00000000 -1.00000000 -0.00000000
vn -0.03610000 0.00030000 -0.99930000
vn -0.03590000 0.00000000 -0.99940000
vn -0.03590000 0.00000000 -0.99940000
vn 0.00000000 -1.00000000 -0.00000000
vn 0.00000000 1.00000000 -0.00000000
vn -0.03590000 0.00000000 -0.99940000
vn -0.00030000 1.00000000 0.00000000
vn -0.03640000 -0.00020000 -0.99930000
vn -0.03590000 0.00000000 -0.99940000
vn -0.03590000 -0.00030000 -0.99940000
vn 0.00000000 1.00000000 -0.00000000
vn -0.03610000 0.00000000 -0.99930000
vn 0.00000000 1.00000000 -0.00000000
vn 0.00000000 -1.00000000 -0.00000000
vn 0.03510000 0.00000000 0.99940000
vn -0.99940000 0.00000000 0.03600000
vn 0.03510000 0.00000000 0.99940000
vn -0.99940000 0.00000000 0.03600000
vn 0.00000000 1.00000000 -0.00000000
vn -0.03640000 0.00000000 -0.99930000
vn 0.00000000 -1.00000000 -0.00000000
vn -0.99940000 0.00000000 0.03600000
vn -0.03640000 0.00000000 -0.99930000
vn 0.00000000 1.00000000 -0.00000000
vn -0.99940000 0.00000000 0.03600000
vn -0.99940000 0.00000000 0.03600000
vn 0.00000000 -1.00000000 -0.00040000
vn 0.00000000 -1.00000000 -0.00000000
vn 0.00000000 -1.00000000 -0.00040000
vn -0.99940000 0.00000000 0.03600000
vn 0.00000000 -1.00000000 -0.00000000
vn -0.99940000 0.00000000 0.03600000
vn 0.00000000 -1.00000000 -0.00000000
vn 0.00000000 1.00000000 -0.00000000
vn -0.99940000 0.00000000 0.03600000
vn -0.99940000 0.00000000 0.03600000
vn 0.00000000 1.00000000 0.00040000
vn 0.00000000 1.00000000 -0.00000000
vn 0.00000000 1.00000000 0.00040000
vn 0.00000000 1.00000000 -0.00000000
vn -0.99940000 0.00000000 0.03600000
vn 0.00000000 -1.00000000 -0.00000000
vn 0.03600000 0.00000000 0.99940000
vn 0.99930000 0.00000000 -0.03640000
vn 0.99930000 0.00000000 -0.03640000
vn 0.03600000 0.00000000 0.99940000
vn 0.00000000 1.00000000 -0.00000000
vn -0.99940000 0.00000000 0.03350000
vn 0.00000000 -1.00000000 -0.00000000
vn 0.03600000 0.00000000 0.99940000
vn -0.99940000 0.00000000 0.03350000
vn 0.03600000 0.00000000 0.99940000
vn 0.00000000 1.00000000 0.00970000
vn 0.03600000 0.00000000 0.99940000
vn 0.00000000 1.00000000 -0.00000000
vn 0.00000000 1.00000000 0.00970000
vn 0.03600000 0.00000000 0.99940000
vn 0.00000000 -1.00000000 -0.00000000
vn 0.03620000 0.00000000 0.99930000
vn -0.77760000 0.00000000 -0.62870000
vn 0.00000000 1.00000000 -0.00000000
vn -0.03570000 0.00000000 -0.99940000
vn 0.00000000 1.00000000 -0.00000000
vn 0.99940000 0.00000000 -0.03580000
vn -0.03570000 0.00000000 -0.99940000
vn 0.00000000 1.00000000 -0.00000000
vn -0.99940000 0.00000000 0.03590000
vn 0.00000000 1.00000000 -0.00000000
vn -0.99940000 0.00000000 0.03590000
vn -0.99940000 0.00000000 0.03590000
vn 0.00000000 1.00000000 -0.00000000
vn 0.00000000 1.00000000 -0.00000000
vn -0.99940000 0.00000000 0.03590000
vn -0.77760000 0.00000000 -0.62870000
vn 0.00000000 1.00000000 -0.00000000
vn -0.77760000 0.00000000 -0.62870000
vn 0.00000000 1.00000000 -0.00000000
vn 0.03620000 0.00000000 0.99930000
vn 0.03620000 0.00000000 0.99930000
vn 0.00000000 1.00000000 -0.00000000
vn 0.03560000 0.00000000 0.99940000
vn 0.00000000 1.00000000 -0.00000000
vn 0.03560000 0.00000000 0.99940000
vn 0.03560000 0.00000000 0.99940000
vn 0.99930000 0.00000000 -0.03620000
vn 0.00000000 1.00000000 -0.00000000
vn 0.00000000 1.00000000 -0.00000000
vn 0.99930000 0.00000000 -0.03620000
vn 0.00000000 1.00000000 -0.00000000
vn 0.99930000 0.00000000 -0.03620000
vn 0.99930000 0.00000000 -0.03620000
vn 0.99940000 0.00000000 -0.03580000
vn 0.00000000 1.00000000 -0.00000000
vn -0.03570000 0.00000000 -0.99940000
vn 0.00000000 1.00000000 -0.00000000
vn 0.00000000 -1.00000000 -0.00000000
vn 0.03590000 0.00000000 0.99940000
vn -0.77890000 0.00000000 -0.62710000
vn 0.99930000 0.00000000 -0.03610000
vn -0.03580000 0.00000000 -0.99940000
vn 0.00000000 -1.00000000 -0.00000000
vn -0.03580000 0.00000000 -0.99940000
vn 0.00000000 -1.00000000 -0.00000000
vn -0.99930000 0.00000000 0.03610000
vn -0.99930000 0.00000000 0.03610000
vn -0.99940000 0.00000000 0.03560000
vn 0.00000000 -1.00000000 -0.00000000
vn -0.99940000 0.00000000 0.03560000
vn -0.99930000 0.00000000 0.03610000
vn 0.00000000 -1.00000000 -0.00000000
vn -0.77890000 0.00000000 -0.62710000
vn 0.00000000 -1.00000000 -0.00000000
vn -0.99930000 0.00000000 0.03610000
vn 0.00000000 -1.00000000 -0.00000000
vn -0.77890000 0.00000000 -0.62710000
vn 0.03590000 0.00000000 0.99940000
vn 0.00000000 -1.00000000 -0.00000000
vn 0.03570000 -0.00000000 0.99940000
vn 0.00000000 -1.00000000 -0.00000000
vn 0.03590000 0.00000000 0.99940000
vn 0.03570000 -0.00000000 0.99940000
vn 0.00000000 -1.00000000 -0.00000000
vn 0.03570000 -0.00000000 0.99940000
vn 0.99940000 0.00000000 -0.03570000
vn 0.00000000 -1.00000000 -0.00000000
vn 0.00000000 -1.00000000 -0.00000000
vn 0.99940000 0.00000000 -0.03570000
vn 0.99930000 0.00000000 -0.03610000
vn 0.99940000 0.00000000 -0.03570000
vn 0.00000000 -1.00000000 -0.00000000
vn 0.00000000 -1.00000000 -0.00000000
vn 0.99930000 0.00000000 -0.03610000
vn 0.00000000 -1.00000000 -0.00000000
vn -0.03580000 0.00000000 -0.99940000
vt 0.16669400 0.05556500
vt 0.16669400 0.05556500
vt 0.16669400 0.05556500
vt 0.16669400 0.10966400
vt 0.16669400 0.10966400
vt 0.16669400 0.10966400
vt 0.61115700 0.05556500
vt 0.61115700 0.05556500
vt 0.61115700 0.05556500
vt 0.61115700 0.10966400
vt 0.61115700 0.10966400
vt 0.61115700 0.10966400
vt 0.31484800 0.05556500
vt 0.31484800 0.05556500
vt 0.46300300 0.05556500
vt 0.46300300 0.05556500
vt 0.46300300 0.05556500
vt 0.46300300 0.10966400
vt 0.46300300 0.10966400
vt 0.31484800 0.10966400
vt 0.31484800 0.10966400
vt 0.10966400 0.00000000
vt 0.10966400 0.00000000
vt 0.10966400 0.00000000
vt 0.05556500 0.00000000
vt 0.05556500 0.00000000
vt 0.05556500 0.00000000
vt 0.10966400 0.31490200
vt 0.10966400 0.31490200
vt 0.10966400 0.31490200
vt 0.05556500 0.31490200
vt 0.05556500 0.31490200
vt 0.05556500 0.31490200
vt 0.05556500 0.15745100
vt 0.05556500 0.15745100
vt 0.10966400 0.15745100
vt 0.10966400 0.15745100
vt 0.16669400 0.00000000
vt 0.16669400 0.00000000
vt 0.16669400 0.00000000
vt 0.16669400 0.05410000
vt 0.16669400 0.05410000
vt 0.16669400 0.05410000
vt 0.61112900 0.00000000
vt 0.61112900 0.00000000
vt 0.61112900 0.00000000
vt 0.61112900 0.05410000
vt 0.61112900 0.05410000
vt 0.61112900 0.05410000
vt 0.27037500 0.00000000
vt 0.27037500 0.00000000
vt 0.37405600 0.00000000
vt 0.37405600 0.00000000
vt 0.37405600 0.00000000
vt 0.37405600 0.00000000
vt 0.49259300 0.00000000
vt 0.49259300 0.00000000
vt 0.49259300 0.05410000
vt 0.49259300 0.05410000
vt 0.37405600 0.05410000
vt 0.37405600 0.05410000
vt 0.37405600 0.05410000
vt 0.37405600 0.05410000
vt 0.27037500 0.05410000
vt 0.27037500 0.05410000
vt 0.16522900 0.00000000
vt 0.16522900 0.00000000
vt 0.16522900 0.00000000
vt 0.11112900 0.00000000
vt 0.11112900 0.00000000
vt 0.11112900 0.00000000
vt 0.16522900 0.68145300
vt 0.16522900 0.68145300
vt 0.16522900 0.68145300
vt 0.11112900 0.68145300
vt 0.11112900 0.68145300
vt 0.11112900 0.68145300
vt 0.16522900 0.17036300
vt 0.16522900 0.17036300
vt 0.16522900 0.17036300
vt 0.16522900 0.34072600
vt 0.16522900 0.34072600
vt 0.16522900 0.34072600
vt 0.16522900 0.51108900
vt 0.16522900 0.51108900
vt 0.11112900 0.51108900
vt 0.11112900 0.51108900
vt 0.11112900 0.34072600
vt 0.11112900 0.34072600
vt 0.11112900 0.34072600
vt 0.11112900 0.17036300
vt 0.11112900 0.17036300
vt 0.11112900 0.17036300
vt 0.05410000 0.00000000
vt 0.05410000 0.00000000
vt 0.05410000 0.00000000
vt 0.00000000 0.00000000
vt 0.00000000 0.00000000
vt 0.00000000 0.00000000
vt 0.05410000 0.23707300
vt 0.05410000 0.23707300
vt 0.05410000 0.23707300
vt 0.00000000 0.23707300
vt 0.00000000 0.23707300
vt 0.00000000 0.23707300
vt 0.00000000 0.11853700
vt 0.00000000 0.11853700
vt 0.00000000 0.11853700
vt 0.05410000 0.11853700
vt 0.05410000 0.11853700
vt 0.16669400 0.99853500
vt 0.16669400 0.99853500
vt 0.16669400 0.99853500
vt 0.84668200 0.55556500
vt 0.84668200 0.55556500
vt 0.84668200 0.55556500
vt 0.84668200 0.79185700
vt 0.84668200 0.79185700
vt 0.84668200 0.79185700
vt 0.69884600 0.79185700
vt 0.69884600 0.79185700
vt 0.55101000 0.79185700
vt 0.55101000 0.79185700
vt 0.40317400 0.79185700
vt 0.40317400 0.79185700
vt 0.40317400 0.79185700
vt 0.28493400 0.89519600
vt 0.28493400 0.89519600
vt 0.16670100 0.89519600
vt 0.16670100 0.89519600
vt 0.16670800 0.79185700
vt 0.16670800 0.79185700
vt 0.16670800 0.79185700
vt 0.16670100 0.67371100
vt 0.16670100 0.67371100
vt 0.16669400 0.55556500
vt 0.16669400 0.55556500
vt 0.16669400 0.55556500
vt 0.33669100 0.55556500
vt 0.33669100 0.55556500
vt 0.50668800 0.55556500
vt 0.50668800 0.55556500
vt 0.67668500 0.55556500
vt 0.67668500 0.55556500
vt 0.67668500 0.55556500
vt 0.84668200 0.67371100
vt 0.84668200 0.67371100
vt 0.16669400 0.55410000
vt 0.16669400 0.55410000
vt 0.16669400 0.55410000
vt 0.84668200 0.11112900
vt 0.84668200 0.11112900
vt 0.84668200 0.11112900
vt 0.84668200 0.34742100
vt 0.84668200 0.34742100
vt 0.84668200 0.34742100
vt 0.69884600 0.34742100
vt 0.69884600 0.34742100
vt 0.69884600 0.34742100
vt 0.55101000 0.34742100
vt 0.55101000 0.34742100
vt 0.55101000 0.34742100
vt 0.40317400 0.34742100
vt 0.40317400 0.34742100
vt 0.40317400 0.34742100
vt 0.28493400 0.45076000
vt 0.28493400 0.45076000
vt 0.16670100 0.45076000
vt 0.16670100 0.45076000
vt 0.16670800 0.34742100
vt 0.16670800 0.34742100
vt 0.16670800 0.34742100
vt 0.16670100 0.22927500
vt 0.16670100 0.22927500
vt 0.16669400 0.11112900
vt 0.16669400 0.11112900
vt 0.16669400 0.11112900
vt 0.33669100 0.11112900
vt 0.33669100 0.11112900
vt 0.50668800 0.11112900
vt 0.50668800 0.11112900
vt 0.50668800 0.11112900
vt 0.67668500 0.11112900
vt 0.67668500 0.11112900
vt 0.84668200 0.22927500
vt 0.84668200 0.22927500
vt 0.16669400 0.05556500
vt 0.16669400 0.05556500
vt 0.16669400 0.05556500
vt 0.16669400 0.10966400
vt 0.16669400 0.10966400
vt 0.16669400 0.10966400
vt 0.61115700 0.05556500
vt 0.61115700 0.05556500
vt 0.61115700 0.05556500
vt 0.61115700 0.10966400
vt 0.61115700 0.10966400
vt 0.61115700 0.10966400
vt 0.31484800 0.05556500
vt 0.31484800 0.05556500
vt 0.46300300 0.05556500
vt 0.46300300 0.05556500
vt 0.46300300 0.05556500
vt 0.46300300 0.10966400
vt 0.46300300 0.10966400
vt 0.31484800 0.10966400
vt 0.31484800 0.10966400
vt 0.10966400 0.00000000
vt 0.10966400 0.00000000
vt 0.10966400 0.00000000
vt 0.05556500 0.00000000
vt 0.05556500 0.00000000
vt 0.05556500 0.00000000
vt 0.10966400 0.31490200
vt 0.10966400 0.31490200
vt 0.10966400 0.31490200
vt 0.05556500 0.31490200
vt 0.05556500 0.31490200
vt 0.05556500 0.31490200
vt 0.05556500 0.15745100
vt 0.05556500 0.15745100
vt 0.10966400 0.15745100
vt 0.10966400 0.15745100
vt 0.16669400 0.00000000
vt 0.16669400 0.00000000
vt 0.16669400 0.00000000
vt 0.16669400 0.05410000
vt 0.16669400 0.05410000
vt 0.16669400 0.05410000
vt 0.61112900 0.00000000
vt 0.61112900 0.00000000
vt 0.61112900 0.00000000
vt 0.61112900 0.05410000
vt 0.61112900 0.05410000
vt 0.61112900 0.05410000
vt 0.27037500 0.00000000
vt 0.27037500 0.00000000
vt 0.37405600 0.00000000
vt 0.37405600 0.00000000
vt 0.37405600 0.00000000
vt 0.37405600 0.00000000
vt 0.49259300 0.00000000
vt 0.49259300 0.00000000
vt 0.49259300 0.05410000
vt 0.49259300 0.05410000
vt 0.37405600 0.05410000
vt 0.37405600 0.05410000
vt 0.37405600 0.05410000
vt 0.37405600 0.05410000
vt 0.37405600 0.05410000
vt 0.27037500 0.05410000
vt 0.27037500 0.05410000
vt 0.16522900 0.00000000
vt 0.16522900 0.00000000
vt 0.16522900 0.00000000
vt 0.11112900 0.00000000
vt 0.11112900 0.00000000
vt 0.11112900 0.00000000
vt 0.16522900 0.68145300
vt 0.16522900 0.68145300
vt 0.16522900 0.68145300
vt 0.11112900 0.68145300
vt 0.11112900 0.68145300
vt 0.11112900 0.68145300
vt 0.16522900 0.17036300
vt 0.16522900 0.17036300
vt 0.16522900 0.17036300
vt 0.16522900 0.34072600
vt 0.16522900 0.34072600
vt 0.16522900 0.34072600
vt 0.16522900 0.51108900
vt 0.16522900 0.51108900
vt 0.11112900 0.51108900
vt 0.11112900 0.51108900
vt 0.11112900 0.34072600
vt 0.11112900 0.34072600
vt 0.11112900 0.34072600
vt 0.11112900 0.17036300
vt 0.11112900 0.17036300
vt 0.11112900 0.17036300
vt 0.05410000 0.00000000
vt 0.05410000 0.00000000
vt 0.05410000 0.00000000
vt 0.00000000 0.00000000
vt 0.00000000 0.00000000
vt 0.00000000 0.00000000
vt 0.05410000 0.23707300
vt 0.05410000 0.23707300
vt 0.05410000 0.23707300
vt 0.00000000 0.23707300
vt 0.00000000 0.23707300
vt 0.00000000 0.23707300
vt 0.00000000 0.11853700
vt 0.00000000 0.11853700
vt 0.00000000 0.11853700
vt 0.05410000 0.11853700
vt 0.05410000 0.11853700
vt 0.16669400 0.99853500
vt 0.16669400 0.99853500
vt 0.16669400 0.99853500
vt 0.84668200 0.55556500
vt 0.84668200 0.55556500
vt 0.84668200 0.55556500
vt 0.84668200 0.79185700
vt 0.84668200 0.79185700
vt 0.84668200 0.79185700
vt 0.69884600 0.79185700
vt 0.69884600 0.79185700
vt 0.55101000 0.79185700
vt 0.55101000 0.79185700
vt 0.40317400 0.79185700
vt 0.40317400 0.79185700
vt 0.40317400 0.79185700
vt 0.28493400 0.89519600
vt 0.28493400 0.89519600
vt 0.16670100 0.89519600
vt 0.16670100 0.89519600
vt 0.16670800 0.79185700
vt 0.16670800 0.79185700
vt 0.16670800 0.79185700
vt 0.16670100 0.67371100
vt 0.16670100 0.67371100
vt 0.16669400 0.55556500
vt 0.16669400 0.55556500
vt 0.16669400 0.55556500
vt 0.33669100 0.55556500
vt 0.33669100 0.55556500
vt 0.50668800 0.55556500
vt 0.50668800 0.55556500
vt 0.67668500 0.55556500
vt 0.67668500 0.55556500
vt 0.67668500 0.55556500
vt 0.84668200 0.67371100
vt 0.84668200 0.67371100
vt 0.16669400 0.55410000
vt 0.16669400 0.55410000
vt 0.16669400 0.55410000
vt 0.84668200 0.11112900
vt 0.84668200 0.11112900
vt 0.84668200 0.11112900
vt 0.84668200 0.34742100
vt 0.84668200 0.34742100
vt 0.84668200 0.34742100
vt 0.69884600 0.34742100
vt 0.69884600 0.34742100
vt 0.69884600 0.34742100
vt 0.55101000 0.34742100
vt 0.55101000 0.34742100
vt 0.55101000 0.34742100
vt 0.40317400 0.34742100
vt 0.40317400 0.34742100
vt 0.40317400 0.34742100
vt 0.28493400 0.45076000
vt 0.28493400 0.45076000
vt 0.16670100 0.45076000
vt 0.16670100 0.45076000
vt 0.16670800 0.34742100
vt 0.16670800 0.34742100
vt 0.16670800 0.34742100
vt 0.16670100 0.22927500
vt 0.16670100 0.22927500
vt 0.16669400 0.11112900
vt 0.16669400 0.11112900
vt 0.16669400 0.11112900
vt 0.33669100 0.11112900
vt 0.33669100 0.11112900
vt 0.50668800 0.11112900
vt 0.50668800 0.11112900
vt 0.50668800 0.11112900
vt 0.67668500 0.11112900
vt 0.67668500 0.11112900
vt 0.84668200 0.22927500
vt 0.84668200 0.22927500
f 14/14/14 20/20/20 6/6/6
f 20/20/20 14/14/14 15/15/15
f 7/7/7 11/11/11 18/18/18
f 26/26/26 23/23/23 36/36/36
f 30/30/30 33/33/33 35/35/35
f 39/39/39 50/50/50 64/64/64
f 50/50/50 54/54/54 60/60/60
f 46/46/46 47/47/47 59/59/59
f 57/57/57 59/59/59 62/62/62
f 78/78/78 92/92/92 71/71/71
f 92/92/92 78/78/78 81/81/81
f 74/74/74 76/76/76 86/86/86
f 84/84/84 86/86/86 89/89/89
f 98/98/98 95/95/95 109/109/109
f 102/102/102 105/105/105 108/108/108
f 134/134/134 140/140/140 138/138/138
f 126/126/126 134/134/134 131/131/131
f 128/128/128 129/129/129 111/111/111
f 129/129/129 128/128/128 131/131/131
f 131/131/131 128/128/128 126/126/126
f 140/140/140 134/134/134 126/126/126
f 145/145/145 141/141/141 123/123/123
f 145/145/145 146/146/146 116/116/116
f 146/146/146 145/145/145 121/121/121
f 123/123/123 141/141/141 126/126/126
f 145/145/145 123/123/123 121/121/121
f 146/146/146 121/121/121 117/117/117
f 140/140/140 126/126/126 141/141/141
f 173/173/173 175/175/175 179/179/179
f 164/164/164 172/172/172 173/173/173
f 167/167/167 148/148/148 168/168/168
f 168/168/168 172/172/172 167/167/167
f 172/172/172 164/164/164 167/167/167
f 179/179/179 164/164/164 173/173/173
f 184/184/184 162/162/162 181/181/181
f 184/184/184 152/152/152 186/186/186
f 186/186/186 158/158/158 184/184/184
f 162/162/162 164/164/164 181/181/181
f 184/184/184 158/158/158 162/162/162
f 186/186/186 155/155/155 158/158/158
f 179/179/179 181/181/181 164/164/164
f 14/14/14 6/6/6 2/2/2
f 20/20/20 15/15/15 18/18/18
f 7/7/7 18/18/18 15/15/15
f 26/26/26 36/36/36 35/35/35
f 30/30/30 35/35/35 36/36/36
f 39/39/39 64/64/64 42/42/42
f 50/50/50 60/60/60 64/64/64
f 46/46/46 59/59/59 57/57/57
f 57/57/57 62/62/62 53/53/53
f 78/78/78 71/71/71 66/66/66
f 92/92/92 81/81/81 89/89/89
f 74/74/74 86/86/86 84/84/84
f 84/84/84 89/89/89 81/81/81
f 98/98/98 109/109/109 108/108/108
f 102/102/102 108/108/108 109/109/109
f 200/200/200 192/192/192 207/207/207
f 207/207/207 201/201/201 200/200/200
f 195/195/195 205/205/205 196/196/196
f 211/211/211 222/222/222 209/209/209
f 214/214/214 220/220/220 217/217/217
f 226/226/226 251/251/251 236/236/236
f 236/236/236 249/249/249 240/240/240
f 231/231/231 245/245/245 233/233/233
f 242/242/242 248/248/248 245/245/245
f 265/265/265 257/257/257 280/280/280
f 280/280/280 269/269/269 265/265/265
f 261/261/261 274/274/274 264/264/264
f 271/271/271 275/275/275 274/274/274
f 285/285/285 296/296/296 282/282/282
f 289/289/289 293/293/293 291/291/291
f 321/321/321 325/325/325 326/326/326
f 311/311/311 319/319/319 321/321/321
f 314/314/314 300/300/300 316/316/316
f 316/316/316 319/319/319 314/314/314
f 319/319/319 311/311/311 314/314/314
f 326/326/326 311/311/311 321/321/321
f 332/332/332 310/310/310 328/328/328
f 332/332/332 302/302/302 334/334/334
f 334/334/334 307/307/307 332/332/332
f 310/310/310 311/311/311 328/328/328
f 332/332/332 307/307/307 310/310/310
f 334/334/334 305/305/305 307/307/307
f 326/326/326 328/328/328 311/311/311
f 361/361/361 365/365/365 364/364/364
f 351/351/351 361/361/361 358/358/358
f 353/353/353 356/356/356 335/335/335
f 356/356/356 353/353/353 358/358/358
f 358/358/358 353/353/353 351/351/351
f 365/365/365 361/361/361 351/351/351
f 370/370/370 369/369/369 349/349/349
f 370/370/370 372/372/372 340/340/340
f 372/372/372 370/370/370 346/346/346
f 349/349/349 369/369/369 351/351/351
f 370/370/370 349/349/349 346/346/346
f 372/372/372 346/346/346 342/342/342
f 365/365/365 351/351/351 369/369/369
f 200/200/200 188/188/188 192/192/192
f 207/207/207 205/205/205 201/201/201
f 195/195/195 201/201/201 205/205/205
f 211/211/211 220/220/220 222/222/222
f 214/214/214 222/222/222 220/220/220
f 226/226/226 229/229/229 251/251/251
f 236/236/236 251/251/251 247/247/247
f 231/231/231 242/242/242 245/245/245
f 242/242/242 241/241/241 248/248/248
f 265/265/265 255/255/255 257/257/257
f 280/280/280 275/275/275 269/269/269
f 261/261/261 271/271/271 274/274/274
f 271/271/271 269/269/269 275/275/275
f 285/285/285 293/293/293 296/296/296
f 289/289/289 296/296/296 293/293/293
f 3/3/3 4/4/4 190/190/190
f 190/190/190 187/187/187 3/3/3
f 12/12/12 8/8/8 194/194/194
f 194/194/194 197/197/197 12/12/12
f 16/16/16 13/13/13 199/199/199
f 199/199/199 202/202/202 16/16/16
f 24/24/24 27/27/27 212/212/212
f 212/212/212 210/210/210 24/24/24
f 31/31/31 29/29/29 216/216/216
f 216/216/216 219/219/219 31/31/31
f 48/48/48 45/45/45 232/232/232
f 232/232/232 235/235/235 48/48/48
f 51/51/51 40/40/40 225/225/225
f 225/225/225 237/237/237 51/51/51
f 55/55/55 51/51/51 237/237/237
f 237/237/237 238/238/238 55/55/55
f 44/44/44 56/56/56 243/243/243
f 243/243/243 230/230/230 44/44/44
f 77/77/77 73/73/73 259/259/259
f 259/259/259 262/262/262 77/77/77
f 82/82/82 80/80/80 266/266/266
f 266/266/266 268/268/268 82/82/82
f 72/72/72 85/85/85 272/272/272
f 272/272/272 260/260/260 72/72/72
f 94/94/94 97/97/97 284/284/284
f 284/284/284 283/283/283 94/94/94
f 156/156/156 185/185/185 373/373/373
f 373/373/373 341/341/341 156/156/156
f 104/104/104 101/101/101 287/287/287
f 287/287/287 290/290/290 104/104/104
f 119/119/119 120/120/120 308/308/308
f 308/308/308 306/306/306 119/119/119
f 5/5/5 21/21/21 206/206/206
f 206/206/206 191/191/191 5/5/5
f 113/113/113 130/130/130 317/317/317
f 317/317/317 298/298/298 113/113/113
f 127/127/127 112/112/112 299/299/299
f 299/299/299 315/315/315 127/127/127
f 135/135/135 137/137/137 323/323/323
f 323/323/323 322/322/322 135/135/135
f 19/19/19 10/10/10 198/198/198
f 198/198/198 204/204/204 19/19/19
f 157/157/157 154/154/154 343/343/343
f 343/343/343 344/344/344 157/157/157
f 174/174/174 171/171/171 357/357/357
f 357/357/357 360/360/360 174/174/174
f 165/165/165 160/160/160 348/348/348
f 348/348/348 352/352/352 165/165/165
f 149/149/149 166/166/166 354/354/354
f 354/354/354 337/337/337 149/149/149
f 177/177/177 174/174/174 360/360/360
f 360/360/360 362/362/362 177/177/177
f 122/122/122 125/125/125 312/312/312
f 312/312/312 309/309/309 122/122/122
f 183/183/183 182/182/182 367/367/367
f 367/367/367 371/371/371 183/183/183
f 79/79/79 68/68/68 253/253/253
f 253/253/253 267/267/267 79/79/79
f 124/124/124 127/127/127 315/315/315
f 315/315/315 313/313/313 124/124/124
f 144/144/144 115/115/115 303/303/303
f 303/303/303 331/331/331 144/144/144
f 21/21/21 19/19/19 204/204/204
f 204/204/204 206/206/206 21/21/21
f 178/178/178 176/176/176 363/363/363
f 363/363/363 366/366/366 178/178/178
f 114/114/114 147/147/147 333/333/333
f 333/333/333 301/301/301 114/114/114
f 147/147/147 118/118/118 304/304/304
f 304/304/304 333/333/333 147/147/147
f 130/130/130 133/133/133 318/318/318
f 318/318/318 317/317/317 130/130/130
f 70/70/70 91/91/91 279/279/279
f 279/279/279 258/258/258 70/70/70
f 87/87/87 75/75/75 263/263/263
f 263/263/263 273/273/273 87/87/87
f 132/132/132 135/135/135 322/322/322
f 322/322/322 320/320/320 132/132/132
f 63/63/63 58/58/58 244/244/244
f 244/244/244 250/250/250 63/63/63
f 120/120/120 122/122/122 309/309/309
f 309/309/309 308/308/308 120/120/120
f 85/85/85 83/83/83 270/270/270
f 270/270/270 272/272/272 85/85/85
f 37/37/37 22/22/22 208/208/208
f 208/208/208 223/223/223 37/37/37
f 25/25/25 34/34/34 221/221/221
f 221/221/221 213/213/213 25/25/25
f 67/67/67 69/69/69 256/256/256
f 256/256/256 254/254/254 67/67/67
f 153/153/153 183/183/183 371/371/371
f 371/371/371 338/338/338 153/153/153
f 136/136/136 139/139/139 327/327/327
f 327/327/327 324/324/324 136/136/136
f 28/28/28 37/37/37 223/223/223
f 223/223/223 215/215/215 28/28/28
f 34/34/34 32/32/32 218/218/218
f 218/218/218 221/221/221 34/34/34
f 88/88/88 87/87/87 273/273/273
f 273/273/273 277/277/277 88/88/88
f 185/185/185 151/151/151 339/339/339
f 339/339/339 373/373/373 185/185/185
f 139/139/139 142/142/142 329/329/329
f 329/329/329 327/327/327 139/139/139
f 93/93/93 90/90/90 276/276/276
f 276/276/276 278/278/278 93/93/93
f 142/142/142 143/143/143 330/330/330
f 330/330/330 329/329/329 142/142/142
f 65/65/65 61/61/61 246/246/246
f 246/246/246 252/252/252 65/65/65
f 38/38/38 43/43/43 227/227/227
f 227/227/227 224/224/224 38/38/38
f 9/9/9 17/17/17 203/203/203
f 203/203/203 193/193/193 9/9/9
f 110/110/110 96/96/96 281/281/281
f 281/281/281 297/297/297 110/110/110
f 99/99/99 107/107/107 294/294/294
f 294/294/294 286/286/286 99/99/99
f 166/166/166 163/163/163 350/350/350
f 350/350/350 354/354/354 166/166/166
f 13/13/13 1/1/1 189/189/189
f 189/189/189 199/199/199 13/13/13
f 100/100/100 110/110/110 297/297/297
f 297/297/297 288/288/288 100/100/100
f 106/106/106 103/103/103 292/292/292
f 292/292/292 295/295/295 106/106/106
f 41/41/41 65/65/65 252/252/252
f 252/252/252 228/228/228 41/41/41
f 169/169/169 150/150/150 336/336/336
f 336/336/336 355/355/355 169/169/169
f 170/170/170 169/169/169 355/355/355
f 355/355/355 359/359/359 170/170/170
f 58/58/58 49/49/49 234/234/234
f 234/234/234 244/244/244 58/58/58
f 161/161/161 159/159/159 345/345/345
f 345/345/345 347/347/347 161/161/161
f 180/180/180 178/178/178 366/366/366
f 366/366/366 368/368/368 180/180/180
f 56/56/56 52/52/52 239/239/239
f 239/239/239 243/243/243 56/56/56

