mtllib material.mtl
usemtl Material-7011油漆.021
v -0.01271300 0.12527800 -0.00674800
v -0.01271300 0.12527800 -0.00674800
v -0.01271300 0.12527800 -0.00674800
v -0.01710800 0.12520700 -0.00687800
v -0.01710800 0.12520700 -0.00687800
v -0.01710800 0.12520700 -0.00687800
v -0.01292700 0.12528100 -0.01531400
v -0.01292700 0.12528100 -0.01531400
v -0.01292700 0.12528100 -0.01531400
v -0.01271300 0.12527900 -0.00674800
v -0.01271300 0.12527900 -0.00674800
v -0.01271300 0.12527900 -0.00674800
v -0.01292700 0.12528200 -0.01531400
v -0.01292700 0.12528200 -0.01531400
v -0.01292700 0.12528200 -0.01531400
v -0.01710800 0.12520800 -0.00687800
v -0.01710800 0.12520800 -0.00687800
v -0.01710800 0.12520800 -0.00687800
v -0.01271300 0.12527900 -0.00674800
v -0.01271300 0.12527900 -0.00674800
v -0.01271300 0.12527900 -0.00674800
v -0.01710800 0.12520800 -0.00687800
v -0.01710800 0.12520800 -0.00687800
v -0.01710800 0.12520800 -0.00687800
v -0.01292700 0.12528200 -0.01531400
v -0.01292700 0.12528200 -0.01531400
v -0.01292700 0.12528200 -0.01531400
v -0.01271300 0.12527800 -0.00674800
v -0.01271300 0.12527800 -0.00674800
v -0.01271300 0.12527800 -0.00674800
v -0.01292700 0.12528100 -0.01531400
v -0.01292700 0.12528100 -0.01531400
v -0.01292700 0.12528100 -0.01531400
v -0.01710800 0.12520700 -0.00687800
v -0.01710800 0.12520700 -0.00687800
v -0.01710800 0.12520700 -0.00687800
vn 0.00000000 -1.00000000 0.00000000
vn 0.99900000 0.01480000 -0.04130000
vn -0.02850000 0.01480000 0.99950000
vn 0.00000000 -1.00000000 0.00000000
vn -0.90200000 -0.01910000 -0.43130000
vn -0.03450000 -0.01680000 0.99930000
vn -0.88990000 -0.00310000 -0.45610000
vn 0.99990000 0.00370000 -0.01460000
vn 0.00000000 -1.00000000 0.00000000
vn -0.03040000 0.01480000 0.99940000
vn 0.99980000 0.01540000 -0.00890000
vn -0.00000000 1.00000000 0.00000000
vn -0.89750000 0.00190000 -0.44110000
vn -0.00000000 1.00000000 0.00000000
vn 0.99910000 0.01160000 -0.04070000
vn -0.88800000 -0.01530000 -0.45950000
vn -0.02750000 -0.01750000 0.99950000
vn -0.00000000 1.00000000 0.00000000
vn -0.01540000 0.99980000 -0.01550000
vn -0.04570000 -0.00040000 0.99900000
vn 0.99970000 -0.00020000 -0.02390000
vn -0.89790000 0.00160000 -0.44030000
vn -0.02460000 0.99960000 0.01470000
vn -0.04490000 0.00370000 0.99900000
vn -0.90010000 -0.00140000 -0.43560000
vn 0.99930000 0.00550000 -0.03750000
vn -0.00180000 1.00000000 0.00830000
vn 0.99970000 -0.00020000 -0.02580000
vn -0.01320000 -0.00050000 0.99990000
vn 0.01540000 -0.99980000 0.01550000
vn -0.88840000 -0.00920000 -0.45900000
vn 0.99980000 0.00040000 -0.02070000
vn 0.00190000 -1.00000000 -0.00830000
vn -0.01330000 0.00060000 0.99990000
vn 0.02460000 -0.99960000 -0.01470000
vn -0.89470000 0.00250000 -0.44660000
vt 0.00066200 0.03287900
vt 0.00066200 0.03287900
vt 0.00066200 0.03287900
vt 0.00159900 0.80874500
vt 0.00159900 0.80874500
vt 0.00159900 0.80874500
vt 0.02958600 0.01558500
vt 0.02958600 0.01558500
vt 0.02958600 0.01558500
vt 0.00066300 0.03500100
vt 0.00066300 0.03500100
vt 0.00066300 0.03500100
vt 0.02958600 0.01558500
vt 0.02958600 0.01558500
vt 0.02958600 0.01558500
vt 0.00162900 0.81404100
vt 0.00162900 0.81404100
vt 0.00162900 0.81404100
vt 0.00066200 0.03287900
vt 0.00066200 0.03287900
vt 0.00066200 0.03287900
vt 0.00159900 0.80874500
vt 0.00159900 0.80874500
vt 0.00159900 0.80874500
vt 0.02958600 0.01558500
vt 0.02958600 0.01558500
vt 0.02958600 0.01558500
vt 0.00066300 0.03500100
vt 0.00066300 0.03500100
vt 0.00066300 0.03500100
vt 0.02958600 0.01558500
vt 0.02958600 0.01558500
vt 0.02958600 0.01558500
vt 0.00162900 0.81404100
vt 0.00162900 0.81404100
vt 0.00162900 0.81404100
f 1/1/1 4/4/4 9/9/9
f 12/12/12 14/14/14 18/18/18
f 19/19/19 27/27/27 23/23/23
f 30/30/30 35/35/35 33/33/33
f 6/6/6 3/3/3 20/20/20
f 20/20/20 24/24/24 6/6/6
f 2/2/2 8/8/8 26/26/26
f 26/26/26 21/21/21 2/2/2
f 7/7/7 5/5/5 22/22/22
f 22/22/22 25/25/25 7/7/7
f 15/15/15 11/11/11 28/28/28
f 28/28/28 32/32/32 15/15/15
f 10/10/10 17/17/17 34/34/34
f 34/34/34 29/29/29 10/10/10
f 16/16/16 13/13/13 31/31/31
f 31/31/31 36/36/36 16/16/16

