mtllib material.mtl
usemtl Material-7011油漆.026
v -0.03732600 0.04433300 -0.01515600
v -0.04036100 0.04441700 -0.00002700
v -0.03946900 0.04489100 -0.00812700
v -0.04036100 0.04441700 -0.00002700
v -0.03722100 0.04435300 0.01550000
v -0.03947100 0.04494200 0.00812100
v -0.02273800 0.04434200 0.03324300
v -0.01296700 0.04433700 0.03808600
v -0.01727500 0.04483300 0.03636000
v 0.00006600 0.04433500 0.04029700
v -0.00736100 0.04486700 0.03962000
v 0.01342100 0.04433500 0.03793100
v 0.01342100 0.04433500 0.03793100
v 0.02542300 0.04433500 0.03128100
v 0.01885700 0.04498600 0.03564900
v 0.00777600 0.04499100 0.03957500
v 0.03522100 0.04433600 0.01956500
v 0.03953900 0.04433400 0.00765500
v 0.03792700 0.04484600 0.01348700
v 0.03548600 0.06771000 0.01923500
v 0.03792700 0.04484600 0.01348700
v 0.03867900 0.06779500 0.01133000
v 0.03102100 0.04433600 0.02575500
v 0.03522100 0.04433600 0.01956500
v 0.02685200 0.06782600 0.02998700
v 0.03119800 0.06826400 0.02539600
v 0.01885700 0.04498600 0.03564900
v 0.02542300 0.04433500 0.03128100
v 0.02286300 0.06827000 0.03305900
v 0.00777600 0.04499100 0.03957500
v 0.01342100 0.04433500 0.03793100
v 0.01347700 0.06783600 0.03792900
v 0.01883100 0.06785700 0.03561300
v -0.00736100 0.04486700 0.03962000
v 0.00006600 0.04433500 0.04029700
v 0.00006700 0.06785900 0.04036000
v 0.00779100 0.06786700 0.03952200
v -0.01727500 0.04483300 0.03636000
v -0.01296700 0.04433700 0.03808600
v -0.01548100 0.06816800 0.03718900
v -0.00813800 0.06820000 0.03944300
v -0.02278300 0.06821100 0.03324700
v -0.02868400 0.04435000 0.02835800
v -0.02273800 0.04434200 0.03324300
v -0.03342000 0.04434800 0.02250000
v -0.02886500 0.06773000 0.02817500
v -0.03722100 0.04435300 0.01550000
v -0.03368600 0.06779000 0.02214700
v -0.03947100 0.04494200 0.00812100
v -0.03813900 0.06823600 0.01274900
v -0.04036100 0.04441700 -0.00002700
v -0.03957900 0.06782400 0.00766500
v -0.03959200 0.06782900 -0.00757800
v -0.04031100 0.06792900 0.00009000
v 0.03953900 0.04433400 0.00765500
v -0.03098100 0.06782200 -0.02582100
v -0.03444100 0.04457400 -0.02082500
v -0.03527700 0.06795000 -0.01949800
v -0.03732600 0.04433300 -0.01515600
v -0.02570700 0.04440800 -0.03106400
v -0.03092200 0.04445600 -0.02580900
v -0.01891000 0.04435700 -0.03556800
v -0.02218700 0.06783300 -0.03362600
v -0.01342300 0.04484400 -0.03795200
v -0.01749500 0.06825200 -0.03620900
v -0.00781700 0.04434300 -0.03955000
v -0.01348500 0.06783300 -0.03792800
v 0.00744500 0.04433900 -0.03960700
v -0.00018000 0.04490300 -0.04031400
v -0.00008200 0.06820100 -0.04033900
v -0.00780300 0.06821000 -0.03946200
v 0.01518800 0.04434000 -0.03736200
v 0.00831800 0.06821100 -0.03939600
v 0.03251900 0.04484200 -0.02372800
v 0.02861400 0.04433700 -0.02834300
v 0.02871600 0.06775600 -0.02831200
v 0.03555500 0.04433700 -0.01897300
v 0.03266600 0.06822900 -0.02344000
v 0.02296400 0.04433800 -0.03313000
v 0.02440900 0.06826000 -0.03193100
v 0.03801600 0.04485300 -0.01325400
v 0.03579700 0.06823800 -0.01842100
v 0.03946300 0.04433400 -0.00811300
v 0.03791800 0.06783400 -0.01351400
v 0.04033300 0.04487900 -0.00031900
v 0.03959400 0.06823100 -0.00733100
v -0.03946900 0.04489100 -0.00812700
v -0.03959200 0.06782900 -0.00757800
v -0.03792800 0.06782700 -0.01348500
v 0.03953900 0.04433400 0.00765500
v 0.04006500 0.06820100 0.00392300
v 0.03867900 0.06779500 0.01133000
v 0.03953900 0.04433400 0.00765500
v 0.03946300 0.04433400 -0.00811300
v 0.04033300 0.04487900 -0.00031900
v 0.03555500 0.04433700 -0.01897300
v 0.02861400 0.04433700 -0.02834300
v 0.03251900 0.04484200 -0.02372800
v 0.00744500 0.04433900 -0.03960700
v -0.00781700 0.04434300 -0.03955000
v -0.00781700 0.04434300 -0.03955000
v -0.00018000 0.04490300 -0.04031400
v -0.01891000 0.04435700 -0.03556800
v -0.01342300 0.04484400 -0.03795200
v -0.03732600 0.04433300 -0.01515600
v -0.03732600 0.04433300 -0.01515600
v -0.03732600 0.04433300 -0.01515600
v -0.03732600 0.04433300 -0.01515600
v -0.03732600 0.04433300 -0.01515600
v -0.03732600 0.04433300 -0.01515600
v -0.03732600 0.04433300 -0.01515600
v -0.03732600 0.04433300 -0.01515600
v 0.03522100 0.04433600 0.01956500
v 0.03102100 0.04433600 0.02575500
v 0.03102100 0.04433600 0.02575500
v 0.03953900 0.04433400 0.00765500
v 0.03953900 0.04433400 0.00765500
v 0.03555500 0.04433700 -0.01897300
v 0.03555500 0.04433700 -0.01897300
v 0.03946300 0.04433400 -0.00811300
v 0.03946300 0.04433400 -0.00811300
v 0.02861400 0.04433700 -0.02834300
v 0.02861400 0.04433700 -0.02834300
v 0.02296400 0.04433800 -0.03313000
v 0.02296400 0.04433800 -0.03313000
v 0.02542300 0.04433500 0.03128100
v 0.02542300 0.04433500 0.03128100
v 0.01342100 0.04433500 0.03793100
v 0.01342100 0.04433500 0.03793100
v 0.00006600 0.04433500 0.04029700
v 0.00006600 0.04433500 0.04029700
v -0.01296700 0.04433700 0.03808600
v -0.01296700 0.04433700 0.03808600
v -0.02273800 0.04434200 0.03324300
v -0.02273800 0.04434200 0.03324300
v -0.02868400 0.04435000 0.02835800
v 0.01518800 0.04434000 -0.03736200
v 0.01518800 0.04434000 -0.03736200
v 0.00744500 0.04433900 -0.03960700
v 0.00744500 0.04433900 -0.03960700
v -0.00781700 0.04434300 -0.03955000
v -0.00781700 0.04434300 -0.03955000
v -0.01891000 0.04435700 -0.03556800
v -0.03092200 0.04445600 -0.02580900
v -0.02570700 0.04440800 -0.03106400
v -0.03722100 0.04435300 0.01550000
v -0.04036100 0.04441700 -0.00002700
v -0.03342000 0.04434800 0.02250000
v -0.03444100 0.04457400 -0.02082500
v -0.03867400 0.06833800 -0.01005500
v -0.03792800 0.06782700 -0.01348500
v -0.03959200 0.06782900 -0.00757800
v -0.03527700 0.06795000 -0.01949800
v -0.03454700 0.06833200 -0.01982500
v -0.03098100 0.06782200 -0.02582100
v 0.02871600 0.06775600 -0.02831200
v 0.02440900 0.06826000 -0.03193100
v 0.02440900 0.06826000 -0.03193100
v 0.03266600 0.06822900 -0.02344000
v 0.01923600 0.06778900 -0.03540700
v 0.01383000 0.06822600 -0.03775400
v 0.03689200 0.06832500 0.01513000
v 0.03548600 0.06771000 0.01923500
v 0.03867900 0.06779500 0.01133000
v 0.02685200 0.06782600 0.02998700
v 0.03119800 0.06826400 0.02539600
v 0.03119800 0.06826400 0.02539600
v 0.02286300 0.06827000 0.03305900
v 0.02286300 0.06827000 0.03305900
v 0.01883100 0.06785700 0.03561300
v 0.01094700 0.06833000 0.03841600
v 0.00779100 0.06786700 0.03952200
v 0.00034100 0.06833100 0.03982000
v 0.01347700 0.06783600 0.03792900
v 0.04006500 0.06820100 0.00392300
v -0.02886500 0.06773000 0.02817500
v -0.02278300 0.06821100 0.03324700
v -0.03067400 0.06833200 0.02528100
v -0.03368600 0.06779000 0.02214700
v -0.03957900 0.06782400 0.00766500
v -0.03813900 0.06823600 0.01274900
v -0.03982600 0.06833200 0.00083600
v -0.03867400 0.06833800 -0.01005500
v -0.03959200 0.06782900 -0.00757800
v -0.04031100 0.06792900 0.00009000
v -0.03620600 0.06825000 0.01750700
v -0.03946900 0.04489100 -0.00812700
v -0.02749300 0.06828300 -0.02934000
v 0.01923600 0.06778900 -0.03540700
v 0.01383000 0.06822600 -0.03775400
v 0.04017000 0.06822200 -0.00177300
v 0.03801600 0.04485300 -0.01325400
v -0.02749300 0.06828300 -0.02934000
v -0.01749500 0.06825200 -0.03620900
v -0.00780300 0.06821000 -0.03946200
v -0.01348500 0.06783300 -0.03792800
v -0.02218700 0.06783300 -0.03362600
v 0.03579700 0.06823800 -0.01842100
v 0.03959400 0.06823100 -0.00733100
v 0.03791800 0.06783400 -0.01351400
v 0.00006700 0.06785900 0.04036000
v -0.00813800 0.06820000 0.03944300
v -0.03620600 0.06825000 0.01750700
vn -0.66150000 -0.70070000 -0.26720000
vn -0.71010000 -0.70410000 -0.00100000
vn -0.69270000 -0.70690000 -0.14260000
vn -0.71090000 -0.70330000 0.00010000
vn -0.65440000 -0.70560000 0.27170000
vn -0.69280000 -0.70690000 0.14260000
vn -0.39950000 -0.70610000 0.58460000
vn -0.22830000 -0.70530000 0.67120000
vn -0.30340000 -0.70700000 0.63880000
vn 0.00160000 -0.70450000 0.70970000
vn -0.12920000 -0.70700000 0.69530000
vn 0.23650000 -0.70570000 0.66790000
vn 0.23640000 -0.70570000 0.66790000
vn 0.44660000 -0.70550000 0.55030000
vn 0.33080000 -0.70670000 0.62550000
vn 0.13640000 -0.70690000 0.69400000
vn 0.61910000 -0.70610000 0.34360000
vn 0.69730000 -0.70390000 0.13520000
vn 0.66620000 -0.70710000 0.23700000
vn 0.87910000 0.00000000 0.47660000
vn 0.94220000 0.00000000 0.33510000
vn 0.95970000 -0.00000000 0.28120000
vn 0.76940000 0.00000000 0.63880000
vn 0.87420000 -0.00000000 0.48560000
vn 0.66710000 -0.00000000 0.74500000
vn 0.77550000 0.00000000 0.63140000
vn 0.46760000 -0.00000000 0.88390000
vn 0.63070000 -0.00000000 0.77600000
vn 0.56890000 0.00000000 0.82240000
vn 0.19280000 -0.00000000 0.98120000
vn 0.33360000 0.00000000 0.94270000
vn 0.33480000 0.00010000 0.94230000
vn 0.46740000 -0.00000000 0.88400000
vn -0.18260000 -0.00000000 0.98320000
vn 0.00170000 0.00000000 1.00000000
vn 0.00160000 0.00000000 1.00000000
vn 0.19340000 -0.00000000 0.98110000
vn -0.42910000 0.00000000 0.90320000
vn -0.32230000 -0.00000000 0.94660000
vn -0.38430000 0.00000000 0.92320000
vn -0.20200000 0.00000000 0.97940000
vn -0.56520000 0.00000000 0.82500000
vn -0.71110000 0.00000000 0.70310000
vn -0.56450000 -0.00000000 0.82540000
vn -0.82950000 0.00000000 0.55850000
vn -0.71560000 -0.00000000 0.69850000
vn -0.92310000 -0.00000000 0.38450000
vn -0.83560000 0.00000000 0.54930000
vn -0.97950000 -0.00000000 0.20150000
vn -0.94840000 0.00000000 0.31710000
vn -1.00000000 0.00000000 -0.00070000
vn -0.98180000 -0.00000000 0.19010000
vn -0.98220000 0.00000000 -0.18800000
vn -1.00000000 -0.00000000 0.00220000
vn 0.98170000 0.00000000 0.19040000
vn -0.76820000 -0.00000000 -0.64020000
vn -0.85570000 0.00000000 -0.51740000
vn -0.87520000 0.00000000 -0.48380000
vn -0.92650000 -0.00000000 -0.37620000
vn -0.63750000 0.00000000 -0.77040000
vn -0.76770000 -0.00000000 -0.64080000
vn -0.46940000 0.00000000 -0.88300000
vn -0.55070000 0.00000000 -0.83470000
vn -0.33350000 0.00000000 -0.94280000
vn -0.43500000 0.00000000 -0.90040000
vn -0.19390000 0.00000000 -0.98100000
vn -0.33500000 0.00000000 -0.94220000
vn 0.18470000 0.00000000 -0.98280000
vn -0.00450000 0.00000000 -1.00000000
vn -0.00200000 0.00000000 -1.00000000
vn -0.19390000 0.00000000 -0.98100000
vn 0.37660000 -0.00000000 -0.92640000
vn 0.20650000 -0.00000000 -0.97840000
vn 0.80780000 0.00000000 -0.58950000
vn 0.71050000 -0.00000000 -0.70370000
vn 0.71190000 0.00010000 -0.70230000
vn 0.88230000 0.00000000 -0.47080000
vn 0.81250000 0.00000000 -0.58300000
vn 0.56970000 -0.00000000 -0.82180000
vn 0.60730000 0.00000000 -0.79450000
vn 0.94430000 0.00000000 -0.32920000
vn 0.88920000 -0.00010000 -0.45760000
vn 0.97950000 -0.00000000 -0.20140000
vn 0.94200000 0.00000000 -0.33570000
vn 1.00000000 -0.00000000 -0.00790000
vn 0.98330000 0.00000000 -0.18210000
vn -0.97940000 0.00000000 -0.20180000
vn -0.98210000 0.00000000 -0.18830000
vn -0.94220000 0.00000000 -0.33500000
vn 0.98180000 0.00000000 0.19000000
vn 0.99520000 0.00000000 0.09740000
vn 0.95980000 0.00000000 0.28080000
vn 0.69680000 -0.70450000 0.13460000
vn 0.69540000 -0.70430000 -0.14280000
vn 0.70760000 -0.70660000 -0.00560000
vn 0.62450000 -0.70620000 -0.33350000
vn 0.50310000 -0.70640000 -0.49790000
vn 0.57120000 -0.70710000 -0.41680000
vn 0.13060000 -0.70520000 -0.69680000
vn -0.13730000 -0.70490000 -0.69580000
vn -0.13730000 -0.70490000 -0.69590000
vn -0.00310000 -0.70660000 -0.70760000
vn -0.33230000 -0.70590000 -0.62550000
vn -0.23570000 -0.70710000 -0.66670000
vn -0.00000000 -1.00000000 0.00010000
vn -0.00010000 -1.00000000 0.00000000
vn -0.00020000 -1.00000000 0.00020000
vn -0.00000000 -1.00000000 0.00020000
vn 0.00000000 -1.00000000 -0.00030000
vn 0.00010000 -1.00000000 -0.00010000
vn 0.00000000 -1.00000000 0.00000000
vn 0.00010000 -1.00000000 0.00000000
vn -0.00000000 -1.00000000 0.00010000
vn 0.00010000 -1.00000000 -0.00010000
vn -0.00000000 -1.00000000 0.00010000
vn -0.00000000 -1.00000000 0.00010000
vn 0.00000000 -1.00000000 0.00000000
vn 0.00010000 -1.00000000 0.00000000
vn 0.00000000 -1.00000000 -0.00030000
vn 0.00000000 -1.00000000 -0.00030000
vn 0.00000000 -1.00000000 0.00000000
vn 0.00010000 -1.00000000 0.00000000
vn -0.00000000 -1.00000000 0.00020000
vn -0.00000000 -1.00000000 0.00020000
vn 0.00000000 -1.00000000 0.00000000
vn -0.00000000 -1.00000000 0.00010000
vn 0.00010000 -1.00000000 -0.00010000
vn -0.00000000 -1.00000000 0.00010000
vn 0.00000000 -1.00000000 0.00000000
vn 0.00000000 -1.00000000 0.00000000
vn -0.00020000 -1.00000000 0.00020000
vn -0.00010000 -1.00000000 0.00000000
vn -0.00020000 -1.00000000 0.00020000
vn 0.00000000 -1.00000000 0.00000000
vn -0.00010000 -1.00000000 0.00000000
vn 0.00000000 -1.00000000 0.00000000
vn 0.00000000 -1.00000000 0.00000000
vn 0.00010000 -1.00000000 0.00000000
vn -0.00000000 -1.00000000 0.00010000
vn 0.00010000 -1.00000000 0.00000000
vn 0.00000000 -1.00000000 0.00000000
vn -0.00000000 -1.00000000 0.00010000
vn 0.00000000 -1.00000000 0.00000000
vn 0.00000000 -1.00000000 0.00000000
vn 0.00000000 -1.00000000 0.00000000
vn 0.00000000 -1.00000000 0.00000000
vn 0.00000000 -1.00000000 0.00000000
vn 0.00000000 -1.00000000 0.00000000
vn 0.00000000 -1.00000000 0.00000000
vn -0.68540000 0.70590000 -0.17860000
vn -0.66630000 0.70700000 -0.23690000
vn -0.69570000 0.70590000 -0.13300000
vn -0.61980000 0.70600000 -0.34270000
vn -0.61370000 0.70650000 -0.35230000
vn -0.54360000 0.70650000 -0.45320000
vn 0.50390000 0.70670000 -0.49660000
vn 0.43030000 0.70550000 -0.56310000
vn 0.43040000 0.70550000 -0.56310000
vn 0.57510000 0.70620000 -0.41290000
vn 0.33770000 0.70690000 -0.62140000
vn 0.24360000 0.70610000 -0.66490000
vn 0.65510000 0.70620000 0.26850000
vn 0.62210000 0.70660000 0.33730000
vn 0.67850000 0.70710000 0.19890000
vn 0.47170000 0.70710000 0.52690000
vn 0.55000000 0.70500000 0.44780000
vn 0.55000000 0.70500000 0.44770000
vn 0.40300000 0.70560000 0.58280000
vn 0.40300000 0.70560000 0.58290000
vn 0.33070000 0.70660000 0.62560000
vn 0.19440000 0.70550000 0.68150000
vn 0.13680000 0.70660000 0.69430000
vn 0.00630000 0.70650000 0.70760000
vn 0.23690000 0.70700000 0.66630000
vn 0.70940000 0.70130000 0.07000000
vn -0.50630000 0.70670000 0.49420000
vn -0.40080000 0.70530000 0.58480000
vn -0.54570000 0.70710000 0.44970000
vn -0.59120000 0.70670000 0.38860000
vn -0.69470000 0.70660000 0.13470000
vn -0.67180000 0.70600000 0.22430000
vn -0.70760000 0.70640000 0.01500000
vn -0.68760000 0.70400000 -0.17790000
vn -0.69460000 0.70700000 -0.13290000
vn -0.70830000 0.70590000 0.00160000
vn -0.90030000 0.00000000 0.43530000
vn -0.97950000 -0.00000000 -0.20160000
vn -0.68360000 0.00000000 -0.72980000
vn 0.47740000 0.00000000 -0.87870000
vn 0.34390000 -0.00000000 -0.93900000
vn 0.99900000 0.00000000 -0.04410000
vn 0.66780000 -0.70700000 -0.23280000
vn -0.48480000 0.70510000 -0.51740000
vn -0.30820000 0.70580000 -0.63790000
vn -0.13740000 0.70630000 -0.69450000
vn -0.23700000 0.70700000 -0.66630000
vn -0.38960000 0.70670000 -0.59060000
vn 0.63000000 0.70570000 -0.32410000
vn 0.69650000 0.70580000 -0.12910000
vn 0.66610000 0.70700000 -0.23750000
vn 0.00130000 0.70600000 0.70820000
vn -0.14340000 0.70630000 0.69320000
vn -0.63780000 0.70580000 0.30850000
vt 0.48476200 0.99306100
vt 0.54519700 0.99612300
vt 0.51344400 1.00049300
vt 0.54512400 0.99557500
vt 0.60710300 0.99630800
vt 0.57710800 1.00084200
vt 0.69755700 0.99633300
vt 0.74013800 0.99570900
vt 0.72204500 0.99997500
vt 0.79190500 0.99561300
vt 0.76274800 1.00039800
vt 0.84489800 0.99599700
vt 0.84489800 0.99599700
vt 0.89855900 0.99592800
vt 0.86783000 1.00110000
vt 0.82197200 1.00131600
vt 0.95832700 0.99652600
vt 1.00800500 0.99484000
vt 0.98424700 1.00009900
vt 0.52147200 0.53986000
vt 0.49937200 0.73486900
vt 0.49129100 0.53913200
vt 0.54943400 0.73921400
vt 0.52294800 0.73922000
vt 0.57047100 0.53887000
vt 0.54805700 0.53513500
vt 0.60520900 0.73367200
vt 0.57728300 0.73922700
vt 0.58831800 0.53508400
vt 0.64690500 0.73362800
vt 0.62608600 0.73922100
vt 0.62589900 0.53878800
vt 0.60523400 0.53860600
vt 0.70074100 0.73469100
vt 0.67432300 0.73922200
vt 0.67432200 0.53858900
vt 0.64681700 0.53852100
vt 0.73777400 0.73497700
vt 0.72132800 0.73920700
vt 0.73078200 0.53595500
vt 0.70355200 0.53568700
vt 0.76018200 0.53559100
vt 0.78731700 0.73909000
vt 0.76005900 0.73916400
vt 0.81398600 0.73911100
vt 0.78822100 0.53968700
vt 0.84219900 0.73907500
vt 0.81554200 0.53918100
vt 0.86952000 0.73404700
vt 0.85245700 0.53537900
vt 0.89853500 0.73852600
vt 0.87117000 0.53889100
vt 0.92539900 0.53885000
vt 0.89812200 0.53799200
vt 0.47794100 0.73923300
vt 0.54970400 0.53890900
vt 0.52818800 0.73718800
vt 0.52264400 0.53781400
vt 0.50564900 0.73924300
vt 0.57602500 0.73860700
vt 0.54980400 0.73819000
vt 0.60491200 0.73903500
vt 0.59143000 0.53881300
vt 0.62610400 0.73488400
vt 0.61040800 0.53524100
vt 0.64674500 0.73915600
vt 0.62587000 0.53881200
vt 0.70104100 0.73919000
vt 0.67392000 0.73438300
vt 0.67426900 0.53567700
vt 0.64673800 0.53559200
vt 0.72958800 0.73918700
vt 0.70421300 0.53558900
vt 0.80859500 0.73489700
vt 0.78717800 0.73920800
vt 0.78750700 0.53947500
vt 0.82857700 0.73920200
vt 0.80972900 0.53543400
vt 0.76094300 0.73919900
vt 0.76758200 0.53516700
vt 0.85062600 0.73480600
vt 0.83070300 0.53535900
vt 0.86954000 0.73923500
vt 0.84964200 0.53880300
vt 0.89731100 0.73459000
vt 0.87234300 0.53542300
vt 0.47961500 0.73448200
vt 0.47762800 0.53885000
vt 0.49936300 0.53886000
vt 0.92569600 0.73923300
vt 0.91235100 0.53567200
vt 0.93905200 0.53912800
vt 0.51523400 0.99522500
vt 0.57703800 0.99534500
vt 0.54656900 1.00043600
vt 0.62217100 0.99682400
vt 0.66766400 0.99642000
vt 0.64412600 1.00011200
vt 0.76248000 0.99601400
vt 0.82213800 0.99598100
vt 0.82213800 0.99598100
vt 0.79227600 1.00047200
vt 0.86815200 0.99634600
vt 0.84483300 1.00010100
vt 0.27216500 0.47272900
vt 0.27216500 0.47272900
vt 0.27216500 0.47272900
vt 0.27216500 0.47272900
vt 0.27216500 0.47272900
vt 0.27216500 0.47272900
vt 0.27216500 0.47272900
vt 0.27216500 0.47272900
vt 0.00357500 0.24460500
vt -0.00140800 0.30726100
vt -0.00140800 0.30726100
vt 0.02258600 0.14673000
vt 0.02258600 0.14673000
vt 0.09923500 0.01017200
vt 0.09923500 0.01017200
vt 0.06225700 0.05209100
vt 0.06225700 0.05209100
vt 0.14007400 -0.00448000
vt 0.14007400 -0.00448000
vt 0.16620800 0.00072400
vt 0.16620800 0.00072400
vt -0.00122600 0.37434700
vt -0.00122600 0.37434700
vt 0.01217300 0.48683700
vt 0.01217300 0.48683700
vt 0.03968900 0.58164800
vt 0.03968900 0.58164800
vt 0.07785700 0.64691600
vt 0.07785700 0.64691600
vt 0.11445000 0.67663800
vt 0.11445000 0.67663800
vt 0.14157000 0.68303500
vt 0.19627700 0.02210200
vt 0.19627700 0.02210200
vt 0.22128800 0.05525600
vt 0.22128800 0.05525600
vt 0.25935700 0.14764300
vt 0.25935700 0.14764300
vt 0.27716200 0.23855800
vt 0.28280700 0.36986200
vt 0.28290700 0.30671400
vt 0.19514400 0.65697700
vt 0.24187200 0.58224900
vt 0.16809800 0.67627000
vt 0.27913500 0.42113500
vt 0.26304600 0.52254100
vt 0.27530400 0.51452700
vt 0.25378000 0.51514200
vt 0.29833400 0.51618000
vt 0.30057700 0.52293500
vt 0.32506300 0.51437300
vt 0.55988100 0.51355900
vt 0.54018700 0.52026000
vt 0.54018700 0.52026000
vt 0.58183000 0.51910800
vt 0.51840200 0.51385500
vt 0.49771900 0.51917100
vt 0.28197100 0.52278600
vt 0.29716500 0.51291400
vt 0.26735700 0.51365400
vt 0.34554800 0.51448200
vt 0.32340800 0.52051000
vt 0.32340800 0.52051000
vt 0.36312600 0.52023500
vt 0.36312600 0.52023500
vt 0.37987500 0.51494500
vt 0.40921300 0.52292000
vt 0.42092600 0.51509800
vt 0.44708000 0.52297700
vt 0.40025000 0.51462700
vt 0.24078400 0.52341800
vt 0.56058000 0.51321000
vt 0.53284200 0.51918400
vt 0.57239400 0.52304200
vt 0.58757800 0.51395300
vt 0.64246400 0.51441400
vt 0.62399600 0.51943300
vt 0.66644000 0.52296600
vt 0.70518200 0.52447700
vt 0.69604000 0.51415400
vt 0.66907900 0.51600700
vt 0.83424800 0.53525700
vt 0.92738300 0.73448200
vt 0.56725900 0.53497500
vt 0.74548700 0.53918200
vt 0.72460300 0.53546100
vt 0.89215200 0.53549600
vt 0.59788900 1.00015700
vt 0.34233500 0.52071300
vt 0.38496300 0.51976400
vt 0.42085700 0.51868700
vt 0.40022100 0.51457500
vt 0.36624500 0.51456300
vt 0.60252500 0.51924300
vt 0.64367700 0.51900600
vt 0.62121200 0.51459500
vt 0.44806100 0.51492400
vt 0.47704100 0.51819200
vt 0.60602100 0.51972700
f 1/1/1 2/2/2 3/3/3
f 4/4/4 5/5/5 6/6/6
f 7/7/7 8/8/8 9/9/9
f 8/8/8 10/10/10 11/11/11
f 12/12/12 14/14/14 15/15/15
f 10/10/10 13/13/13 16/16/16
f 17/17/17 18/18/18 19/19/19
f 20/20/20 24/24/24 21/21/21
f 20/20/20 26/26/26 23/23/23
f 25/25/25 28/28/28 23/23/23
f 28/28/28 25/25/25 29/29/29
f 32/32/32 37/37/37 30/30/30
f 32/32/32 31/31/31 27/27/27
f 36/36/36 41/41/41 34/34/34
f 36/36/36 35/35/35 30/30/30
f 38/38/38 39/39/39 40/40/40
f 41/41/41 40/40/40 39/39/39
f 42/42/42 44/44/44 38/38/38
f 42/42/42 46/46/46 44/44/44
f 46/46/46 48/48/48 45/45/45
f 48/48/48 186/186/186 45/45/45
f 49/49/49 47/47/47 50/50/50
f 52/52/52 54/54/54 49/49/49
f 53/53/53 187/187/187 54/54/54
f 55/55/55 22/22/22 21/21/21
f 56/56/56 61/61/61 57/57/57
f 59/59/59 89/89/89 58/58/58
f 56/56/56 188/188/188 61/61/61
f 62/62/62 60/60/60 63/63/63
f 64/64/64 62/62/62 65/65/65
f 65/65/65 62/62/62 63/63/63
f 67/67/67 71/71/71 64/64/64
f 70/70/70 73/73/73 69/69/69
f 70/70/70 69/69/69 71/71/71
f 73/73/73 190/190/190 68/68/68
f 76/76/76 78/78/78 74/74/74
f 78/78/78 82/82/82 74/74/74
f 76/76/76 75/75/75 80/80/80
f 82/82/82 84/84/84 81/81/81
f 84/84/84 86/86/86 83/83/83
f 86/86/86 191/191/191 85/85/85
f 89/89/89 59/59/59 87/87/87
f 90/90/90 91/91/91 92/92/92
f 93/93/93 94/94/94 95/95/95
f 96/96/96 97/97/97 98/98/98
f 99/99/99 100/100/100 102/102/102
f 101/101/101 103/103/103 104/104/104
f 105/105/105 113/113/113 115/115/115
f 116/116/116 113/113/113 105/105/105
f 109/109/109 119/119/119 120/120/120
f 112/112/112 122/122/122 118/118/118
f 111/111/111 121/121/121 117/117/117
f 108/108/108 124/124/124 123/123/123
f 105/105/105 126/126/126 128/128/128
f 129/129/129 130/130/130 111/111/111
f 131/131/131 133/133/133 107/107/107
f 135/135/135 106/106/106 132/132/132
f 111/111/111 134/134/134 136/136/136
f 125/125/125 111/111/111 137/137/137
f 140/140/140 138/138/138 112/112/112
f 139/139/139 105/105/105 142/142/142
f 141/141/141 111/111/111 143/143/143
f 111/111/111 144/144/144 145/145/145
f 143/143/143 111/111/111 145/145/145
f 111/111/111 146/146/146 147/147/147
f 111/111/111 148/148/148 146/146/146
f 144/144/144 111/111/111 149/149/149
f 150/150/150 151/151/151 152/152/152
f 150/150/150 153/153/153 151/151/151
f 153/153/153 154/154/154 155/155/155
f 153/153/153 150/150/150 154/154/154
f 156/156/156 157/157/157 159/159/159
f 160/160/160 161/161/161 158/158/158
f 162/162/162 163/163/163 164/164/164
f 165/165/165 166/166/166 169/169/169
f 163/163/163 162/162/162 167/167/167
f 170/170/170 168/168/168 171/171/171
f 172/172/172 171/171/171 173/173/173
f 171/171/171 172/172/172 174/174/174
f 164/164/164 175/175/175 162/162/162
f 176/176/176 177/177/177 178/178/178
f 176/176/176 178/178/178 179/179/179
f 180/180/180 181/181/181 182/182/182
f 183/183/183 184/184/184 185/185/185
f 185/185/185 182/182/182 183/183/183
f 27/27/27 29/29/29 33/33/33
f 47/47/47 186/186/186 50/50/50
f 49/49/49 50/50/50 52/52/52
f 60/60/60 188/188/188 63/63/63
f 64/64/64 65/65/65 67/67/67
f 79/79/79 72/72/72 189/189/189
f 72/72/72 190/190/190 189/189/189
f 79/79/79 189/189/189 80/80/80
f 90/90/90 85/85/85 91/91/91
f 85/85/85 191/191/191 91/91/91
f 94/94/94 96/96/96 192/192/192
f 110/110/110 114/114/114 127/127/127
f 148/148/148 111/111/111 136/136/136
f 154/154/154 193/193/193 155/155/155
f 194/194/194 195/195/195 196/196/196
f 193/193/193 194/194/194 197/197/197
f 198/198/198 199/199/199 200/200/200
f 170/170/170 171/171/171 174/174/174
f 172/172/172 173/173/173 201/201/201
f 202/202/202 201/201/201 173/173/173
f 178/178/178 203/203/203 179/179/179
f 180/180/180 182/182/182 185/185/185
f 20/20/20 21/21/21 22/22/22
f 20/20/20 23/23/23 24/24/24
f 25/25/25 23/23/23 26/26/26
f 28/28/28 29/29/29 27/27/27
f 32/32/32 30/30/30 31/31/31
f 32/32/32 27/27/27 33/33/33
f 36/36/36 34/34/34 35/35/35
f 36/36/36 30/30/30 37/37/37
f 41/41/41 39/39/39 34/34/34
f 42/42/42 38/38/38 40/40/40
f 46/46/46 43/43/43 44/44/44
f 46/46/46 45/45/45 43/43/43
f 186/186/186 47/47/47 45/45/45
f 54/54/54 51/51/51 49/49/49
f 187/187/187 51/51/51 54/54/54
f 56/56/56 57/57/57 58/58/58
f 59/59/59 58/58/58 57/57/57
f 188/188/188 60/60/60 61/61/61
f 71/71/71 66/66/66 64/64/64
f 73/73/73 68/68/68 69/69/69
f 69/69/69 66/66/66 71/71/71
f 190/190/190 72/72/72 68/68/68
f 76/76/76 74/74/74 75/75/75
f 82/82/82 77/77/77 74/74/74
f 75/75/75 79/79/79 80/80/80
f 82/82/82 81/81/81 77/77/77
f 84/84/84 83/83/83 81/81/81
f 86/86/86 85/85/85 83/83/83
f 89/89/89 87/87/87 88/88/88

