mtllib material.mtl
usemtl Material-7011油漆.020
v -0.01868200 0.12528400 -0.00653300
v -0.01868200 0.12528400 -0.00653300
v -0.01868200 0.12528400 -0.00653300
v -0.02307400 0.12535600 -0.00666300
v -0.02307400 0.12535600 -0.00666300
v -0.02307400 0.12535600 -0.00666300
v -0.01889600 0.12528100 -0.01509900
v -0.01889600 0.12528100 -0.01509900
v -0.01889600 0.12528100 -0.01509900
v -0.01868200 0.12528500 -0.00653300
v -0.01868200 0.12528500 -0.00653300
v -0.01868200 0.12528500 -0.00653300
v -0.01889600 0.12528200 -0.01509900
v -0.01889600 0.12528200 -0.01509900
v -0.01889600 0.12528200 -0.01509900
v -0.02307400 0.12535700 -0.00666300
v -0.02307400 0.12535700 -0.00666300
v -0.02307400 0.12535700 -0.00666300
v -0.01868200 0.12528500 -0.00653300
v -0.01868200 0.12528500 -0.00653300
v -0.01868200 0.12528500 -0.00653300
v -0.02307400 0.12535700 -0.00666300
v -0.02307400 0.12535700 -0.00666300
v -0.02307400 0.12535700 -0.00666300
v -0.01889600 0.12528200 -0.01509900
v -0.01889600 0.12528200 -0.01509900
v -0.01889600 0.12528200 -0.01509900
v -0.01868200 0.12528400 -0.00653300
v -0.01868200 0.12528400 -0.00653300
v -0.01868200 0.12528400 -0.00653300
v -0.01889600 0.12528100 -0.01509900
v -0.01889600 0.12528100 -0.01509900
v -0.01889600 0.12528100 -0.01509900
v -0.02307400 0.12535600 -0.00666300
v -0.02307400 0.12535600 -0.00666300
v -0.02307400 0.12535600 -0.00666300
vn 0.00000000 -1.00000000 0.00000000
vn 0.99990000 -0.01450000 -0.00840000
vn -0.03040000 -0.01490000 0.99940000
vn 0.00000000 -1.00000000 0.00000000
vn -0.88800000 0.01380000 -0.45960000
vn -0.02760000 0.01750000 0.99950000
vn -0.89750000 -0.00350000 -0.44110000
vn 0.99910000 -0.01070000 -0.04040000
vn 0.00000000 -1.00000000 0.00000000
vn -0.02850000 -0.01490000 0.99950000
vn 0.99910000 -0.01400000 -0.04090000
vn -0.00000000 1.00000000 -0.00000000
vn -0.88990000 0.00150000 -0.45620000
vn -0.00000000 1.00000000 -0.00000000
vn 0.99990000 -0.00280000 -0.01410000
vn -0.90200000 0.01760000 -0.43130000
vn -0.03460000 0.01680000 0.99930000
vn -0.00000000 1.00000000 -0.00000000
vn 0.01540000 0.99980000 0.01550000
vn -0.01320000 0.00040000 0.99990000
vn 0.99970000 0.00110000 -0.02530000
vn -0.89470000 -0.00400000 -0.44660000
vn 0.02460000 0.99960000 -0.01480000
vn -0.01330000 -0.00060000 0.99990000
vn -0.88840000 0.00760000 -0.45910000
vn 0.99980000 0.00050000 -0.02030000
vn 0.00180000 1.00000000 -0.00830000
vn 0.99970000 0.00110000 -0.02350000
vn -0.04580000 0.00040000 0.99900000
vn -0.01540000 -0.99980000 -0.01550000
vn -0.90020000 -0.00010000 -0.43560000
vn 0.99930000 -0.00460000 -0.03710000
vn -0.00180000 -1.00000000 0.00830000
vn -0.04500000 -0.00380000 0.99900000
vn -0.02460000 -0.99960000 0.01480000
vn -0.89790000 -0.00320000 -0.44030000
vt 0.00066300 0.53309900
vt 0.00066300 0.53309900
vt 0.00066300 0.53309900
vt 0.00163000 0.90986000
vt 0.00163000 0.90986000
vt 0.00163000 0.90986000
vt 0.02958700 0.52370300
vt 0.02958700 0.52370300
vt 0.02958700 0.52370300
vt 0.00066200 0.53207100
vt 0.00066200 0.53207100
vt 0.00066200 0.53207100
vt 0.02958700 0.52370300
vt 0.02958700 0.52370300
vt 0.02958700 0.52370300
vt 0.00160000 0.90729200
vt 0.00160000 0.90729200
vt 0.00160000 0.90729200
vt 0.00066300 0.53309900
vt 0.00066300 0.53309900
vt 0.00066300 0.53309900
vt 0.00163000 0.90986000
vt 0.00163000 0.90986000
vt 0.00163000 0.90986000
vt 0.02958700 0.52370300
vt 0.02958700 0.52370300
vt 0.02958700 0.52370300
vt 0.00066200 0.53207100
vt 0.00066200 0.53207100
vt 0.00066200 0.53207100
vt 0.02958700 0.52370300
vt 0.02958700 0.52370300
vt 0.02958700 0.52370300
vt 0.00160000 0.90729200
vt 0.00160000 0.90729200
vt 0.00160000 0.90729200
f 1/1/1 4/4/4 9/9/9
f 12/12/12 14/14/14 18/18/18
f 19/19/19 27/27/27 23/23/23
f 30/30/30 35/35/35 33/33/33
f 6/6/6 3/3/3 20/20/20
f 20/20/20 24/24/24 6/6/6
f 2/2/2 8/8/8 26/26/26
f 26/26/26 21/21/21 2/2/2
f 7/7/7 5/5/5 22/22/22
f 22/22/22 25/25/25 7/7/7
f 15/15/15 11/11/11 28/28/28
f 28/28/28 32/32/32 15/15/15
f 10/10/10 17/17/17 34/34/34
f 34/34/34 29/29/29 10/10/10
f 16/16/16 13/13/13 31/31/31
f 31/31/31 36/36/36 16/16/16

