mtllib material.mtl
usemtl Material-7011油漆.015
v -0.01941400 -0.12493200 -0.07624300
v -0.01941400 -0.12493200 -0.07624300
v -0.01941400 -0.12493200 -0.07624300
v -0.01941400 -0.12563200 -0.07624300
v -0.01941400 -0.12563200 -0.07624300
v -0.01941400 -0.12563200 -0.07624300
v -0.02213200 -0.12493200 -0.07913300
v -0.02213200 -0.12493200 -0.07913300
v -0.02213200 -0.12493200 -0.07913300
v -0.02213200 -0.12563200 -0.07913300
v -0.02213200 -0.12563200 -0.07913300
v -0.02213200 -0.12563200 -0.07913300
v -0.02077300 -0.12493200 -0.07768800
v -0.02077300 -0.12493200 -0.07768800
v -0.02077300 -0.12563200 -0.07768800
v -0.02077300 -0.12563200 -0.07768800
v -0.02213200 -0.12493200 -0.07913300
v -0.02213200 -0.12493200 -0.07913300
v -0.02213200 -0.12493200 -0.07913300
v -0.02213200 -0.12563200 -0.07913300
v -0.02213200 -0.12563200 -0.07913300
v -0.02213200 -0.12563200 -0.07913300
v -0.01653700 -0.12493200 -0.07933500
v -0.01653700 -0.12493200 -0.07933500
v -0.01653700 -0.12493200 -0.07933500
v -0.01653700 -0.12563200 -0.07933500
v -0.01653700 -0.12563200 -0.07933500
v -0.01653700 -0.12563200 -0.07933500
v -0.02026700 -0.12493200 -0.07920100
v -0.02026700 -0.12493200 -0.07920100
v -0.01840200 -0.12493200 -0.07926800
v -0.01840200 -0.12493200 -0.07926800
v -0.01840200 -0.12563200 -0.07926800
v -0.01840200 -0.12563200 -0.07926800
v -0.01840200 -0.12563200 -0.07926800
v -0.02026700 -0.12563200 -0.07920100
v -0.02026700 -0.12563200 -0.07920100
v -0.02026700 -0.12563200 -0.07920100
v -0.01653600 -0.12493200 -0.07933400
v -0.01653600 -0.12493200 -0.07933400
v -0.01653600 -0.12493200 -0.07933400
v -0.01653600 -0.12563200 -0.07933400
v -0.01653600 -0.12563200 -0.07933400
v -0.01653600 -0.12563200 -0.07933400
v -0.01622700 -0.12493200 -0.07075500
v -0.01622700 -0.12493200 -0.07075500
v -0.01622700 -0.12493200 -0.07075500
v -0.01622700 -0.12563200 -0.07075500
v -0.01622700 -0.12563200 -0.07075500
v -0.01622700 -0.12563200 -0.07075500
v -0.01645900 -0.12493200 -0.07719000
v -0.01645900 -0.12493200 -0.07719000
v -0.01638200 -0.12493200 -0.07504500
v -0.01638200 -0.12493200 -0.07504500
v -0.01630400 -0.12493200 -0.07290000
v -0.01630400 -0.12493200 -0.07290000
v -0.01630400 -0.12563200 -0.07290000
v -0.01630400 -0.12563200 -0.07290000
v -0.01638200 -0.12563200 -0.07504500
v -0.01638200 -0.12563200 -0.07504500
v -0.01645900 -0.12563200 -0.07719000
v -0.01645900 -0.12563200 -0.07719000
v -0.01622800 -0.12493200 -0.07075500
v -0.01622800 -0.12493200 -0.07075500
v -0.01622800 -0.12493200 -0.07075500
v -0.01622800 -0.12563200 -0.07075500
v -0.01622800 -0.12563200 -0.07075500
v -0.01622800 -0.12563200 -0.07075500
v -0.01921200 -0.12493200 -0.07064700
v -0.01921200 -0.12493200 -0.07064700
v -0.01921200 -0.12493200 -0.07064700
v -0.01921200 -0.12563200 -0.07064700
v -0.01921200 -0.12563200 -0.07064700
v -0.01921200 -0.12563200 -0.07064700
v -0.01722200 -0.12493200 -0.07071900
v -0.01722200 -0.12493200 -0.07071900
v -0.01821700 -0.12493200 -0.07068300
v -0.01821700 -0.12493200 -0.07068300
v -0.01821700 -0.12563200 -0.07068300
v -0.01821700 -0.12563200 -0.07068300
v -0.01821700 -0.12563200 -0.07068300
v -0.01722200 -0.12563200 -0.07071900
v -0.01722200 -0.12563200 -0.07071900
v -0.01722200 -0.12563200 -0.07071900
v -0.01921300 -0.12493200 -0.07064800
v -0.01921300 -0.12493200 -0.07064800
v -0.01921300 -0.12493200 -0.07064800
v -0.01921300 -0.12563200 -0.07064800
v -0.01921300 -0.12563200 -0.07064800
v -0.01921300 -0.12563200 -0.07064800
v -0.01941400 -0.12493200 -0.07624300
v -0.01941400 -0.12493200 -0.07624300
v -0.01941400 -0.12493200 -0.07624300
v -0.01941400 -0.12563200 -0.07624300
v -0.01941400 -0.12563200 -0.07624300
v -0.01941400 -0.12563200 -0.07624300
v -0.01928000 -0.12493200 -0.07251300
v -0.01928000 -0.12493200 -0.07251300
v -0.01934700 -0.12493200 -0.07437800
v -0.01934700 -0.12493200 -0.07437800
v -0.01934700 -0.12563200 -0.07437800
v -0.01934700 -0.12563200 -0.07437800
v -0.01934700 -0.12563200 -0.07437800
v -0.01928000 -0.12563200 -0.07251300
v -0.01928000 -0.12563200 -0.07251300
v -0.02213200 -0.12493100 -0.07913300
v -0.02213200 -0.12493100 -0.07913300
v -0.02213200 -0.12493100 -0.07913300
v -0.01622800 -0.12493100 -0.07075500
v -0.01622800 -0.12493100 -0.07075500
v -0.01622800 -0.12493100 -0.07075500
v -0.01941400 -0.12493100 -0.07624300
v -0.01941400 -0.12493100 -0.07624300
v -0.01941400 -0.12493100 -0.07624300
v -0.02077300 -0.12493100 -0.07768800
v -0.02077300 -0.12493100 -0.07768800
v -0.02026700 -0.12493100 -0.07920000
v -0.02026700 -0.12493100 -0.07920000
v -0.01840200 -0.12493100 -0.07926700
v -0.01840200 -0.12493100 -0.07926700
v -0.01653700 -0.12493100 -0.07933400
v -0.01653700 -0.12493100 -0.07933400
v -0.01653700 -0.12493100 -0.07933400
v -0.01645900 -0.12493100 -0.07719000
v -0.01645900 -0.12493100 -0.07719000
v -0.01638200 -0.12493100 -0.07504500
v -0.01638200 -0.12493100 -0.07504500
v -0.01630500 -0.12493100 -0.07290000
v -0.01630500 -0.12493100 -0.07290000
v -0.01722200 -0.12493100 -0.07072000
v -0.01722200 -0.12493100 -0.07072000
v -0.01821700 -0.12493100 -0.07068400
v -0.01821700 -0.12493100 -0.07068400
v -0.01921200 -0.12493100 -0.07064800
v -0.01921200 -0.12493100 -0.07064800
v -0.01921200 -0.12493100 -0.07064800
v -0.01927900 -0.12493100 -0.07251300
v -0.01927900 -0.12493100 -0.07251300
v -0.01927900 -0.12493100 -0.07251300
v -0.01934700 -0.12493100 -0.07437800
v -0.01934700 -0.12493100 -0.07437800
v -0.01934700 -0.12493100 -0.07437800
v -0.02213200 -0.12563200 -0.07913300
v -0.02213200 -0.12563200 -0.07913300
v -0.02213200 -0.12563200 -0.07913300
v -0.01622800 -0.12563200 -0.07075500
v -0.01622800 -0.12563200 -0.07075500
v -0.01622800 -0.12563200 -0.07075500
v -0.01941400 -0.12563200 -0.07624300
v -0.01941400 -0.12563200 -0.07624300
v -0.01941400 -0.12563200 -0.07624300
v -0.02077300 -0.12563200 -0.07768800
v -0.02077300 -0.12563200 -0.07768800
v -0.02026700 -0.12563200 -0.07920000
v -0.02026700 -0.12563200 -0.07920000
v -0.01840200 -0.12563200 -0.07926700
v -0.01840200 -0.12563200 -0.07926700
v -0.01653700 -0.12563200 -0.07933400
v -0.01653700 -0.12563200 -0.07933400
v -0.01653700 -0.12563200 -0.07933400
v -0.01645900 -0.12563200 -0.07719000
v -0.01645900 -0.12563200 -0.07719000
v -0.01638200 -0.12563200 -0.07504500
v -0.01638200 -0.12563200 -0.07504500
v -0.01630500 -0.12563200 -0.07290000
v -0.01630500 -0.12563200 -0.07290000
v -0.01722200 -0.12563200 -0.07072000
v -0.01722200 -0.12563200 -0.07072000
v -0.01821700 -0.12563200 -0.07068400
v -0.01821700 -0.12563200 -0.07068400
v -0.01821700 -0.12563200 -0.07068400
v -0.01921200 -0.12563200 -0.07064800
v -0.01921200 -0.12563200 -0.07064800
v -0.01921200 -0.12563200 -0.07064800
v -0.01927900 -0.12563200 -0.07251300
v -0.01927900 -0.12563200 -0.07251300
v -0.01934700 -0.12563200 -0.07437800
v -0.01934700 -0.12563200 -0.07437800
v -0.01941300 -0.12493200 -0.07624400
v -0.01941300 -0.12493200 -0.07624400
v -0.01941300 -0.12493200 -0.07624400
v -0.01941300 -0.12563200 -0.07624400
v -0.01941300 -0.12563200 -0.07624400
v -0.01941300 -0.12563200 -0.07624400
v -0.02213200 -0.12493200 -0.07913300
v -0.02213200 -0.12493200 -0.07913300
v -0.02213200 -0.12493200 -0.07913300
v -0.02213200 -0.12563200 -0.07913300
v -0.02213200 -0.12563200 -0.07913300
v -0.02213200 -0.12563200 -0.07913300
v -0.02077200 -0.12493200 -0.07768800
v -0.02077200 -0.12493200 -0.07768800
v -0.02077200 -0.12563200 -0.07768800
v -0.02077200 -0.12563200 -0.07768800
v -0.02213200 -0.12493200 -0.07913200
v -0.02213200 -0.12493200 -0.07913200
v -0.02213200 -0.12493200 -0.07913200
v -0.02213200 -0.12563200 -0.07913200
v -0.02213200 -0.12563200 -0.07913200
v -0.02213200 -0.12563200 -0.07913200
v -0.01653700 -0.12493200 -0.07933400
v -0.01653700 -0.12493200 -0.07933400
v -0.01653700 -0.12493200 -0.07933400
v -0.01653700 -0.12563200 -0.07933400
v -0.01653700 -0.12563200 -0.07933400
v -0.01653700 -0.12563200 -0.07933400
v -0.02026700 -0.12493200 -0.07920000
v -0.02026700 -0.12493200 -0.07920000
v -0.01840200 -0.12493200 -0.07926700
v -0.01840200 -0.12493200 -0.07926700
v -0.01840200 -0.12563200 -0.07926700
v -0.01840200 -0.12563200 -0.07926700
v -0.01840200 -0.12563200 -0.07926700
v -0.02026700 -0.12563200 -0.07920000
v -0.02026700 -0.12563200 -0.07920000
v -0.02026700 -0.12563200 -0.07920000
v -0.01653700 -0.12493200 -0.07933400
v -0.01653700 -0.12493200 -0.07933400
v -0.01653700 -0.12493200 -0.07933400
v -0.01653700 -0.12563200 -0.07933400
v -0.01653700 -0.12563200 -0.07933400
v -0.01653700 -0.12563200 -0.07933400
v -0.01622800 -0.12493200 -0.07075500
v -0.01622800 -0.12493200 -0.07075500
v -0.01622800 -0.12493200 -0.07075500
v -0.01622800 -0.12563200 -0.07075500
v -0.01622800 -0.12563200 -0.07075500
v -0.01622800 -0.12563200 -0.07075500
v -0.01646000 -0.12493200 -0.07719000
v -0.01646000 -0.12493200 -0.07719000
v -0.01638300 -0.12493200 -0.07504500
v -0.01638300 -0.12493200 -0.07504500
v -0.01630500 -0.12493200 -0.07290000
v -0.01630500 -0.12493200 -0.07290000
v -0.01630500 -0.12563200 -0.07290000
v -0.01630500 -0.12563200 -0.07290000
v -0.01638300 -0.12563200 -0.07504500
v -0.01638300 -0.12563200 -0.07504500
v -0.01646000 -0.12563200 -0.07719000
v -0.01646000 -0.12563200 -0.07719000
v -0.01622800 -0.12493200 -0.07075600
v -0.01622800 -0.12493200 -0.07075600
v -0.01622800 -0.12493200 -0.07075600
v -0.01622800 -0.12563200 -0.07075600
v -0.01622800 -0.12563200 -0.07075600
v -0.01622800 -0.12563200 -0.07075600
v -0.01921200 -0.12493200 -0.07064800
v -0.01921200 -0.12493200 -0.07064800
v -0.01921200 -0.12493200 -0.07064800
v -0.01921200 -0.12563200 -0.07064800
v -0.01921200 -0.12563200 -0.07064800
v -0.01921200 -0.12563200 -0.07064800
v -0.01722200 -0.12493200 -0.07072000
v -0.01722200 -0.12493200 -0.07072000
v -0.01821700 -0.12493200 -0.07068400
v -0.01821700 -0.12493200 -0.07068400
v -0.01821700 -0.12563200 -0.07068400
v -0.01821700 -0.12563200 -0.07068400
v -0.01821700 -0.12563200 -0.07068400
v -0.01722200 -0.12563200 -0.07072000
v -0.01722200 -0.12563200 -0.07072000
v -0.01722200 -0.12563200 -0.07072000
v -0.01921200 -0.12493200 -0.07064800
v -0.01921200 -0.12493200 -0.07064800
v -0.01921200 -0.12493200 -0.07064800
v -0.01921200 -0.12563200 -0.07064800
v -0.01921200 -0.12563200 -0.07064800
v -0.01921200 -0.12563200 -0.07064800
v -0.01941300 -0.12493200 -0.07624300
v -0.01941300 -0.12493200 -0.07624300
v -0.01941300 -0.12493200 -0.07624300
v -0.01941300 -0.12563200 -0.07624300
v -0.01941300 -0.12563200 -0.07624300
v -0.01941300 -0.12563200 -0.07624300
v -0.01927900 -0.12493200 -0.07251300
v -0.01927900 -0.12493200 -0.07251300
v -0.01934600 -0.12493200 -0.07437800
v -0.01934600 -0.12493200 -0.07437800
v -0.01934600 -0.12563200 -0.07437800
v -0.01934600 -0.12563200 -0.07437800
v -0.01934600 -0.12563200 -0.07437800
v -0.01927900 -0.12563200 -0.07251300
v -0.01927900 -0.12563200 -0.07251300
v -0.02213200 -0.12493200 -0.07913300
v -0.02213200 -0.12493200 -0.07913300
v -0.02213200 -0.12493200 -0.07913300
v -0.01622800 -0.12493200 -0.07075500
v -0.01622800 -0.12493200 -0.07075500
v -0.01622800 -0.12493200 -0.07075500
v -0.01941400 -0.12493200 -0.07624300
v -0.01941400 -0.12493200 -0.07624300
v -0.01941400 -0.12493200 -0.07624300
v -0.02077300 -0.12493200 -0.07768800
v -0.02077300 -0.12493200 -0.07768800
v -0.02026700 -0.12493200 -0.07920000
v -0.02026700 -0.12493200 -0.07920000
v -0.01840200 -0.12493200 -0.07926700
v -0.01840200 -0.12493200 -0.07926700
v -0.01653700 -0.12493200 -0.07933400
v -0.01653700 -0.12493200 -0.07933400
v -0.01653700 -0.12493200 -0.07933400
v -0.01645900 -0.12493200 -0.07719000
v -0.01645900 -0.12493200 -0.07719000
v -0.01638200 -0.12493200 -0.07504500
v -0.01638200 -0.12493200 -0.07504500
v -0.01630500 -0.12493200 -0.07290000
v -0.01630500 -0.12493200 -0.07290000
v -0.01722200 -0.12493200 -0.07072000
v -0.01722200 -0.12493200 -0.07072000
v -0.01821700 -0.12493200 -0.07068400
v -0.01821700 -0.12493200 -0.07068400
v -0.01921200 -0.12493200 -0.07064800
v -0.01921200 -0.12493200 -0.07064800
v -0.01921200 -0.12493200 -0.07064800
v -0.01927900 -0.12493200 -0.07251300
v -0.01927900 -0.12493200 -0.07251300
v -0.01927900 -0.12493200 -0.07251300
v -0.01934700 -0.12493200 -0.07437800
v -0.01934700 -0.12493200 -0.07437800
v -0.01934700 -0.12493200 -0.07437800
v -0.02213200 -0.12563100 -0.07913300
v -0.02213200 -0.12563100 -0.07913300
v -0.02213200 -0.12563100 -0.07913300
v -0.01622800 -0.12563100 -0.07075500
v -0.01622800 -0.12563100 -0.07075500
v -0.01622800 -0.12563100 -0.07075500
v -0.01941400 -0.12563100 -0.07624300
v -0.01941400 -0.12563100 -0.07624300
v -0.01941400 -0.12563100 -0.07624300
v -0.02077300 -0.12563100 -0.07768800
v -0.02077300 -0.12563100 -0.07768800
v -0.02026700 -0.12563100 -0.07920000
v -0.02026700 -0.12563100 -0.07920000
v -0.01840200 -0.12563100 -0.07926700
v -0.01840200 -0.12563100 -0.07926700
v -0.01653700 -0.12563100 -0.07933400
v -0.01653700 -0.12563100 -0.07933400
v -0.01653700 -0.12563100 -0.07933400
v -0.01645900 -0.12563100 -0.07719000
v -0.01645900 -0.12563100 -0.07719000
v -0.01638200 -0.12563100 -0.07504500
v -0.01638200 -0.12563100 -0.07504500
v -0.01630500 -0.12563100 -0.07290000
v -0.01630500 -0.12563100 -0.07290000
v -0.01722200 -0.12563100 -0.07072000
v -0.01722200 -0.12563100 -0.07072000
v -0.01821700 -0.12563100 -0.07068400
v -0.01821700 -0.12563100 -0.07068400
v -0.01821700 -0.12563100 -0.07068400
v -0.01921200 -0.12563100 -0.07064800
v -0.01921200 -0.12563100 -0.07064800
v -0.01921200 -0.12563100 -0.07064800
v -0.01927900 -0.12563100 -0.07251300
v -0.01927900 -0.12563100 -0.07251300
v -0.01934700 -0.12563100 -0.07437800
v -0.01934700 -0.12563100 -0.07437800
vn -0.72840000 0.00000000 0.68520000
vn 0.68570000 0.00000000 0.72790000
vn 0.00000000 1.00000000 0.00000000
vn 0.00000000 -1.00000000 0.00000000
vn -0.72840000 0.00000000 0.68520000
vn 0.68570000 0.00000000 0.72790000
vn -0.72840000 0.00000000 0.68520000
vn 0.00000000 1.00000000 0.00000000
vn -0.68290000 0.00000000 -0.73050000
vn -0.72840000 0.00000000 0.68520000
vn 0.00000000 -1.00000000 0.00000000
vn -0.68290000 0.00000000 -0.73050000
vn -0.72840000 0.00000000 0.68520000
vn 0.00000000 1.00000000 0.00000000
vn 0.00000000 -1.00000000 0.00000000
vn -0.72840000 0.00000000 0.68520000
vn -0.03600000 0.00000000 -0.99940000
vn 0.00000000 1.00000000 0.00000000
vn -0.99940000 0.00000000 0.03530000
vn 0.00000000 -1.00000000 -0.00780000
vn -0.03600000 0.00000000 -0.99940000
vn -0.99940000 0.00000000 0.03530000
vn -0.03600000 0.00000000 -0.99940000
vn 0.99940000 0.00000000 -0.03360000
vn 0.00000000 1.00000000 0.00000000
vn 0.99940000 0.00000000 -0.03360000
vn 0.00000000 -1.00000000 -0.00780000
vn -0.03600000 0.00000000 -0.99940000
vn -0.03600000 0.00000000 -0.99940000
vn 0.00000000 1.00000000 0.00000000
vn -0.03600000 0.00000000 -0.99940000
vn 0.00000000 1.00000000 0.00000000
vn -0.03600000 0.00000000 -0.99940000
vn 0.00000000 -1.00000000 -0.00780000
vn 0.00000000 -1.00000000 0.00790000
vn -0.03600000 0.00000000 -0.99940000
vn 0.00000000 -1.00000000 -0.00780000
vn 0.00000000 -1.00000000 0.00790000
vn -0.03120000 0.00000000 -0.99950000
vn 0.00000000 1.00000000 0.00000000
vn 0.99940000 0.00000000 -0.03600000
vn -0.03120000 0.00000000 -0.99950000
vn 0.99940000 0.00000000 -0.03600000
vn 0.00000000 -1.00000000 0.00000000
vn 0.00000000 1.00000000 0.00000000
vn 0.99940000 0.00000000 -0.03600000
vn 0.03120000 0.00000000 0.99950000
vn 0.00000000 -1.00000000 0.00000000
vn 0.03120000 0.00000000 0.99950000
vn 0.99940000 0.00000000 -0.03600000
vn 0.99940000 0.00000000 -0.03600000
vn 0.00000000 1.00000000 0.00000000
vn 0.00000000 1.00000000 0.00000000
vn 0.99940000 0.00000000 -0.03600000
vn 0.00000000 1.00000000 0.00000000
vn 0.99940000 0.00000000 -0.03600000
vn 0.99940000 0.00000000 -0.03600000
vn 0.00000000 -1.00000000 0.00000000
vn 0.99940000 0.00000000 -0.03600000
vn 0.00000000 -1.00000000 0.00000000
vn 0.99940000 0.00000000 -0.03600000
vn 0.00000000 -1.00000000 0.00000000
vn 0.99940000 0.00000000 -0.03380000
vn 0.03600000 0.00000000 0.99940000
vn 0.00000000 1.00000000 0.00000000
vn 0.99940000 0.00000000 -0.03380000
vn 0.00000000 -1.00000000 0.00000000
vn 0.03600000 0.00000000 0.99940000
vn -0.99940000 0.00000000 0.03580000
vn 0.03600000 0.00000000 0.99940000
vn 0.00000000 1.00000000 0.00000000
vn 0.03600000 0.00000000 0.99940000
vn 0.00000000 -1.00000000 0.00000000
vn -0.99940000 0.00000000 0.03580000
vn 0.00000000 1.00000000 0.00000000
vn 0.03600000 0.00000000 0.99940000
vn 0.00000000 1.00000000 0.00000000
vn 0.03600000 0.00000000 0.99940000
vn 0.00000000 -1.00000000 0.00000000
vn 0.00000000 -0.99990000 -0.01470000
vn 0.03600000 0.00000000 0.99940000
vn 0.00000000 -1.00000000 0.00000000
vn 0.00000000 -0.99990000 -0.01470000
vn 0.03600000 0.00000000 0.99940000
vn 0.00000000 1.00000000 0.00000000
vn -0.99940000 0.00000000 0.03600000
vn 0.02600000 0.00000000 0.99970000
vn 0.00000000 -1.00000000 0.00000000
vn 0.02600000 0.00000000 0.99970000
vn -0.99940000 0.00000000 0.03600000
vn -0.99940000 0.00000000 0.03600000
vn 0.00000000 1.00000000 0.00000000
vn -0.03120000 0.00000000 -0.99950000
vn -0.03120000 0.00000000 -0.99950000
vn 0.00000000 -1.00000000 -0.00050000
vn -0.99940000 0.00000000 0.03600000
vn -0.99940000 0.00000000 0.03600000
vn 0.00000000 1.00000000 0.00000000
vn 0.00000000 1.00000000 0.00000000
vn -0.99940000 0.00000000 0.03600000
vn -0.99940000 0.00000000 0.03600000
vn 0.00000000 -1.00000000 -0.00050000
vn 0.00000000 -1.00000000 0.00000000
vn -0.99940000 0.00000000 0.03600000
vn 0.00000000 -1.00000000 0.00000000
vn -0.72820000 0.00000000 0.68540000
vn -0.03600000 0.00000000 -0.99940000
vn 0.00000000 1.00000000 0.00000000
vn 0.03590000 0.00000000 0.99940000
vn 0.99930000 0.00000000 -0.03620000
vn 0.00000000 1.00000000 0.00000000
vn -0.72820000 0.00000000 0.68540000
vn 0.00000000 1.00000000 0.00000000
vn -0.99940000 0.00000000 0.03590000
vn -0.72820000 0.00000000 0.68540000
vn 0.00000000 1.00000000 0.00000000
vn -0.03600000 0.00000000 -0.99940000
vn 0.00000000 1.00000000 0.00000000
vn 0.00000000 1.00000000 0.00000000
vn -0.03600000 0.00000000 -0.99940000
vn 0.99930000 0.00000000 -0.03620000
vn -0.03600000 0.00000000 -0.99940000
vn 0.00000000 1.00000000 0.00000000
vn 0.00000000 1.00000000 0.00000000
vn 0.99930000 0.00000000 -0.03620000
vn 0.99930000 0.00000000 -0.03620000
vn 0.00000000 1.00000000 0.00000000
vn 0.99930000 0.00000000 -0.03620000
vn 0.00000000 1.00000000 0.00000000
vn 0.03590000 0.00000000 0.99940000
vn 0.00000000 1.00000000 0.00000000
vn 0.00000000 1.00000000 0.00000000
vn 0.03590000 0.00000000 0.99940000
vn 0.00000000 1.00000000 0.00000000
vn -0.99940000 0.00000000 0.03590000
vn 0.03590000 0.00000000 0.99940000
vn 0.00000000 1.00000000 0.00000000
vn -0.99940000 0.00000000 0.03590000
vn -0.99930000 0.00000000 0.03630000
vn 0.00000000 1.00000000 0.00000000
vn -0.99940000 0.00000000 0.03590000
vn -0.99930000 0.00000000 0.03630000
vn 0.00000000 -1.00000000 0.00000000
vn -0.72930000 0.00000000 0.68420000
vn -0.03600000 0.00000000 -0.99940000
vn 0.99930000 0.00000000 -0.03610000
vn 0.03610000 0.00000000 0.99930000
vn 0.00000000 -1.00000000 0.00000000
vn 0.00000000 -1.00000000 0.00000000
vn -0.72930000 0.00000000 0.68420000
vn -0.99930000 0.00000000 0.03610000
vn -0.72930000 0.00000000 0.68420000
vn 0.00000000 -1.00000000 0.00000000
vn 0.00000000 -1.00000000 0.00000000
vn -0.03600000 0.00000000 -0.99940000
vn -0.03600000 0.00000000 -0.99940000
vn 0.00000000 -1.00000000 0.00000000
vn 0.99930000 0.00000000 -0.03610000
vn 0.00000000 -1.00000000 0.00000000
vn -0.03600000 0.00000000 -0.99940000
vn 0.00000000 -1.00000000 0.00000000
vn 0.99930000 0.00000000 -0.03610000
vn 0.99930000 0.00000000 -0.03610000
vn 0.00000000 -1.00000000 0.00000000
vn 0.00000000 -1.00000000 0.00000000
vn 0.99930000 0.00000000 -0.03610000
vn 0.00000000 -1.00000000 0.00000000
vn 0.03610000 0.00000000 0.99930000
vn 0.03560000 0.00000000 0.99940000
vn 0.03610000 0.00000000 0.99930000
vn 0.00000000 -1.00000000 0.00000000
vn 0.03560000 0.00000000 0.99940000
vn 0.00000000 -1.00000000 0.00000000
vn -0.99930000 0.00000000 0.03610000
vn 0.00000000 -1.00000000 0.00000000
vn -0.99930000 0.00000000 0.03610000
vn 0.00000000 -1.00000000 0.00000000
vn -0.99930000 0.00000000 0.03610000
vn 0.68570000 0.00000000 0.72790000
vn 0.00000000 1.00000000 0.00000000
vn 0.72840000 0.00000000 -0.68520000
vn 0.68570000 0.00000000 0.72790000
vn 0.72840000 0.00000000 -0.68520000
vn 0.00000000 -1.00000000 0.00000000
vn 0.00000000 1.00000000 0.00000000
vn 0.72840000 0.00000000 -0.68520000
vn -0.68290000 0.00000000 -0.73050000
vn -0.68290000 0.00000000 -0.73050000
vn 0.00000000 -1.00000000 0.00000000
vn 0.72840000 0.00000000 -0.68520000
vn 0.72840000 0.00000000 -0.68520000
vn 0.00000000 1.00000000 0.00000000
vn 0.00000000 -1.00000000 0.00000000
vn 0.72840000 0.00000000 -0.68520000
vn 0.00000000 1.00000000 0.00000000
vn -0.99940000 0.00000000 0.03530000
vn 0.03600000 0.00000000 0.99940000
vn 0.03600000 0.00000000 0.99940000
vn 0.00000000 -1.00000000 -0.00780000
vn -0.99940000 0.00000000 0.03530000
vn 0.00000000 1.00000000 0.00000000
vn 0.03600000 0.00000000 0.99940000
vn 0.99940000 0.00000000 -0.03360000
vn 0.99940000 0.00000000 -0.03360000
vn 0.03600000 0.00000000 0.99940000
vn 0.00000000 -1.00000000 -0.00780000
vn 0.03600000 0.00000000 0.99940000
vn 0.00000000 1.00000000 0.00000000
vn 0.03600000 0.00000000 0.99940000
vn 0.00000000 1.00000000 0.00000000
vn 0.00000000 -1.00000000 -0.00780000
vn 0.03600000 0.00000000 0.99940000
vn 0.00000000 -1.00000000 0.00790000
vn 0.00000000 -1.00000000 -0.00780000
vn 0.03600000 0.00000000 0.99940000
vn 0.00000000 -1.00000000 0.00790000
vn -0.03120000 0.00000000 -0.99950000
vn -0.99940000 0.00000000 0.03600000
vn 0.00000000 1.00000000 0.00000000
vn -0.99940000 0.00000000 0.03600000
vn -0.03120000 0.00000000 -0.99950000
vn 0.00000000 -1.00000000 0.00000000
vn 0.00000000 1.00000000 0.00000000
vn -0.99940000 0.00000000 0.03600000
vn 0.03120000 0.00000000 0.99950000
vn 0.00000000 -1.00000000 0.00000000
vn -0.99940000 0.00000000 0.03600000
vn 0.03120000 0.00000000 0.99950000
vn -0.99940000 0.00000000 0.03600000
vn 0.00000000 1.00000000 0.00000000
vn 0.00000000 1.00000000 0.00000000
vn -0.99940000 0.00000000 0.03600000
vn 0.00000000 1.00000000 0.00000000
vn -0.99940000 0.00000000 0.03600000
vn 0.00000000 -1.00000000 0.00000000
vn -0.99940000 0.00000000 0.03600000
vn -0.99940000 0.00000000 0.03600000
vn 0.00000000 -1.00000000 0.00000000
vn -0.99940000 0.00000000 0.03600000
vn 0.00000000 -1.00000000 0.00000000
vn -0.03600000 0.00000000 -0.99940000
vn 0.99940000 0.00000000 -0.03380000
vn 0.00000000 1.00000000 0.00000000
vn 0.00000000 -1.00000000 0.00000000
vn 0.99940000 0.00000000 -0.03380000
vn -0.03600000 0.00000000 -0.99940000
vn -0.03600000 0.00000000 -0.99940000
vn -0.99940000 0.00000000 0.03580000
vn 0.00000000 1.00000000 0.00000000
vn -0.99940000 0.00000000 0.03580000
vn 0.00000000 -1.00000000 0.00000000
vn -0.03600000 0.00000000 -0.99940000
vn -0.03600000 0.00000000 -0.99940000
vn 0.00000000 1.00000000 0.00000000
vn 0.00000000 1.00000000 0.00000000
vn -0.03600000 0.00000000 -0.99940000
vn 0.00000000 -0.99990000 -0.01470000
vn 0.00000000 -1.00000000 0.00000000
vn -0.03600000 0.00000000 -0.99940000
vn 0.00000000 -1.00000000 0.00000000
vn -0.03600000 0.00000000 -0.99940000
vn 0.00000000 -0.99990000 -0.01470000
vn 0.02600000 0.00000000 0.99970000
vn 0.99940000 0.00000000 -0.03600000
vn 0.00000000 1.00000000 0.00000000
vn 0.02600000 0.00000000 0.99970000
vn 0.99940000 0.00000000 -0.03600000
vn 0.00000000 -1.00000000 0.00000000
vn 0.00000000 1.00000000 0.00000000
vn -0.03120000 0.00000000 -0.99950000
vn 0.99940000 0.00000000 -0.03600000
vn -0.03120000 0.00000000 -0.99950000
vn 0.00000000 -1.00000000 -0.00050000
vn 0.99940000 0.00000000 -0.03600000
vn 0.99940000 0.00000000 -0.03600000
vn 0.00000000 1.00000000 0.00000000
vn 0.00000000 1.00000000 0.00000000
vn 0.99940000 0.00000000 -0.03600000
vn 0.00000000 -1.00000000 -0.00050000
vn 0.99940000 0.00000000 -0.03600000
vn 0.00000000 -1.00000000 0.00000000
vn 0.00000000 -1.00000000 0.00000000
vn 0.99940000 0.00000000 -0.03600000
vn 0.00000000 -1.00000000 0.00000000
vn -0.03600000 0.00000000 -0.99940000
vn -0.72820000 0.00000000 0.68540000
vn 0.00000000 -1.00000000 0.00000000
vn 0.03590000 0.00000000 0.99940000
vn 0.99930000 0.00000000 -0.03620000
vn 0.00000000 -1.00000000 0.00000000
vn -0.72820000 0.00000000 0.68540000
vn -0.99940000 0.00000000 0.03590000
vn -0.72820000 0.00000000 0.68540000
vn 0.00000000 -1.00000000 0.00000000
vn -0.03600000 0.00000000 -0.99940000
vn 0.00000000 -1.00000000 0.00000000
vn 0.00000000 -1.00000000 0.00000000
vn -0.03600000 0.00000000 -0.99940000
vn 0.00000000 -1.00000000 0.00000000
vn -0.03600000 0.00000000 -0.99940000
vn 0.99930000 0.00000000 -0.03620000
vn 0.00000000 -1.00000000 0.00000000
vn 0.99930000 0.00000000 -0.03620000
vn 0.00000000 -1.00000000 0.00000000
vn 0.99930000 0.00000000 -0.03620000
vn 0.00000000 -1.00000000 0.00000000
vn 0.99930000 0.00000000 -0.03620000
vn 0.03590000 0.00000000 0.99940000
vn 0.00000000 -1.00000000 0.00000000
vn 0.00000000 -1.00000000 0.00000000
vn 0.03590000 0.00000000 0.99940000
vn 0.03590000 0.00000000 0.99940000
vn 0.00000000 -1.00000000 0.00000000
vn -0.99940000 0.00000000 0.03590000
vn -0.99930000 0.00000000 0.03630000
vn 0.00000000 -1.00000000 0.00000000
vn -0.99940000 0.00000000 0.03590000
vn -0.99940000 0.00000000 0.03590000
vn -0.99930000 0.00000000 0.03630000
vn 0.00000000 -1.00000000 0.00000000
vn -0.72930000 0.00000000 0.68420000
vn 0.00000000 1.00000000 0.00000000
vn -0.03600000 0.00000000 -0.99940000
vn 0.03610000 0.00000000 0.99930000
vn 0.00000000 1.00000000 0.00000000
vn 0.99930000 0.00000000 -0.03610000
vn 0.00000000 1.00000000 0.00000000
vn -0.72930000 0.00000000 0.68420000
vn -0.99930000 0.00000000 0.03610000
vn -0.72930000 0.00000000 0.68420000
vn 0.00000000 1.00000000 0.00000000
vn -0.03600000 0.00000000 -0.99940000
vn 0.00000000 1.00000000 0.00000000
vn 0.00000000 1.00000000 0.00000000
vn -0.03600000 0.00000000 -0.99940000
vn 0.00000000 1.00000000 0.00000000
vn -0.03600000 0.00000000 -0.99940000
vn 0.99930000 0.00000000 -0.03610000
vn 0.99930000 0.00000000 -0.03610000
vn 0.00000000 1.00000000 0.00000000
vn 0.99930000 0.00000000 -0.03610000
vn 0.00000000 1.00000000 0.00000000
vn 0.99930000 0.00000000 -0.03610000
vn 0.00000000 1.00000000 0.00000000
vn 0.03610000 0.00000000 0.99930000
vn 0.00000000 1.00000000 0.00000000
vn 0.03560000 0.00000000 0.99940000
vn 0.00000000 1.00000000 0.00000000
vn 0.03610000 0.00000000 0.99930000
vn -0.99930000 0.00000000 0.03610000
vn 0.03560000 0.00000000 0.99940000
vn 0.00000000 1.00000000 0.00000000
vn -0.99930000 0.00000000 0.03610000
vn 0.00000000 1.00000000 0.00000000
vn 0.00000000 1.00000000 0.00000000
vn -0.99930000 0.00000000 0.03610000
vt 0.10966400 0.00000000
vt 0.10966400 0.00000000
vt 0.10966400 0.00000000
vt 0.05556500 0.00000000
vt 0.05556500 0.00000000
vt 0.05556500 0.00000000
vt 0.10966400 0.31490200
vt 0.10966400 0.31490200
vt 0.10966400 0.31490200
vt 0.05556500 0.31490200
vt 0.05556500 0.31490200
vt 0.05556500 0.31490200
vt 0.10966400 0.15745100
vt 0.10966400 0.15745100
vt 0.05556500 0.15745100
vt 0.05556500 0.15745100
vt 0.16669400 0.00000000
vt 0.16669400 0.00000000
vt 0.16669400 0.00000000
vt 0.16669400 0.05410000
vt 0.16669400 0.05410000
vt 0.16669400 0.05410000
vt 0.61112900 0.00000000
vt 0.61112900 0.00000000
vt 0.61112900 0.00000000
vt 0.61112900 0.05410000
vt 0.61112900 0.05410000
vt 0.61112900 0.05410000
vt 0.31483900 0.00000000
vt 0.31483900 0.00000000
vt 0.46298400 0.00000000
vt 0.46298400 0.00000000
vt 0.46298400 0.05410000
vt 0.46298400 0.05410000
vt 0.46298400 0.05410000
vt 0.31483900 0.05410000
vt 0.31483900 0.05410000
vt 0.31483900 0.05410000
vt 0.16522900 0.00000000
vt 0.16522900 0.00000000
vt 0.16522900 0.00000000
vt 0.11112900 0.00000000
vt 0.11112900 0.00000000
vt 0.11112900 0.00000000
vt 0.16522900 0.68142500
vt 0.16522900 0.68142500
vt 0.16522900 0.68142500
vt 0.11112900 0.68142500
vt 0.11112900 0.68142500
vt 0.11112900 0.68142500
vt 0.16522900 0.17035600
vt 0.16522900 0.17035600
vt 0.16522900 0.34071200
vt 0.16522900 0.34071200
vt 0.16522900 0.51106800
vt 0.16522900 0.51106800
vt 0.11112900 0.51106800
vt 0.11112900 0.51106800
vt 0.11112900 0.34071200
vt 0.11112900 0.34071200
vt 0.11112900 0.17035600
vt 0.11112900 0.17035600
vt 0.05410000 0.00000000
vt 0.05410000 0.00000000
vt 0.05410000 0.00000000
vt 0.00000000 0.00000000
vt 0.00000000 0.00000000
vt 0.00000000 0.00000000
vt 0.05410000 0.23707300
vt 0.05410000 0.23707300
vt 0.05410000 0.23707300
vt 0.00000000 0.23707300
vt 0.00000000 0.23707300
vt 0.00000000 0.23707300
vt 0.05410000 0.07902400
vt 0.05410000 0.07902400
vt 0.05410000 0.15804900
vt 0.05410000 0.15804900
vt 0.00000000 0.15804900
vt 0.00000000 0.15804900
vt 0.00000000 0.15804900
vt 0.00000000 0.07902400
vt 0.00000000 0.07902400
vt 0.00000000 0.07902400
vt 0.16669400 0.05556500
vt 0.16669400 0.05556500
vt 0.16669400 0.05556500
vt 0.16669400 0.10966400
vt 0.16669400 0.10966400
vt 0.16669400 0.10966400
vt 0.61112900 0.05556500
vt 0.61112900 0.05556500
vt 0.61112900 0.05556500
vt 0.61112900 0.10966400
vt 0.61112900 0.10966400
vt 0.61112900 0.10966400
vt 0.31483900 0.05556500
vt 0.31483900 0.05556500
vt 0.46298400 0.05556500
vt 0.46298400 0.05556500
vt 0.46298400 0.10966400
vt 0.46298400 0.10966400
vt 0.46298400 0.10966400
vt 0.31483900 0.10966400
vt 0.31483900 0.10966400
vt 0.16669400 0.99853500
vt 0.16669400 0.99853500
vt 0.16669400 0.99853500
vt 0.84665400 0.55556500
vt 0.84665400 0.55556500
vt 0.84665400 0.55556500
vt 0.40317400 0.79185700
vt 0.40317400 0.79185700
vt 0.40317400 0.79185700
vt 0.28493400 0.89519600
vt 0.28493400 0.89519600
vt 0.16669400 0.85087800
vt 0.16669400 0.85087800
vt 0.16669400 0.70322100
vt 0.16669400 0.70322100
vt 0.16669400 0.55556500
vt 0.16669400 0.55556500
vt 0.16669400 0.55556500
vt 0.33668400 0.55556500
vt 0.33668400 0.55556500
vt 0.50667400 0.55556500
vt 0.50667400 0.55556500
vt 0.67666400 0.55556500
vt 0.67666400 0.55556500
vt 0.84665400 0.63432900
vt 0.84665400 0.63432900
vt 0.84665400 0.71309300
vt 0.84665400 0.71309300
vt 0.84665400 0.79185700
vt 0.84665400 0.79185700
vt 0.84665400 0.79185700
vt 0.69882700 0.79185700
vt 0.69882700 0.79185700
vt 0.69882700 0.79185700
vt 0.55100000 0.79185700
vt 0.55100000 0.79185700
vt 0.55100000 0.79185700
vt 0.16669400 0.55410000
vt 0.16669400 0.55410000
vt 0.16669400 0.55410000
vt 0.84665400 0.11112900
vt 0.84665400 0.11112900
vt 0.84665400 0.11112900
vt 0.40317400 0.34742100
vt 0.40317400 0.34742100
vt 0.40317400 0.34742100
vt 0.28493400 0.45076000
vt 0.28493400 0.45076000
vt 0.16669400 0.40644300
vt 0.16669400 0.40644300
vt 0.16669400 0.25878600
vt 0.16669400 0.25878600
vt 0.16669400 0.11112900
vt 0.16669400 0.11112900
vt 0.16669400 0.11112900
vt 0.33668400 0.11112900
vt 0.33668400 0.11112900
vt 0.50667400 0.11112900
vt 0.50667400 0.11112900
vt 0.67666400 0.11112900
vt 0.67666400 0.11112900
vt 0.84665400 0.18989300
vt 0.84665400 0.18989300
vt 0.84665400 0.26865700
vt 0.84665400 0.26865700
vt 0.84665400 0.26865700
vt 0.84665400 0.34742100
vt 0.84665400 0.34742100
vt 0.84665400 0.34742100
vt 0.69882700 0.34742100
vt 0.69882700 0.34742100
vt 0.55100000 0.34742100
vt 0.55100000 0.34742100
vt 0.10966400 0.00000000
vt 0.10966400 0.00000000
vt 0.10966400 0.00000000
vt 0.05556500 0.00000000
vt 0.05556500 0.00000000
vt 0.05556500 0.00000000
vt 0.10966400 0.31490200
vt 0.10966400 0.31490200
vt 0.10966400 0.31490200
vt 0.05556500 0.31490200
vt 0.05556500 0.31490200
vt 0.05556500 0.31490200
vt 0.10966400 0.15745100
vt 0.10966400 0.15745100
vt 0.05556500 0.15745100
vt 0.05556500 0.15745100
vt 0.16669400 0.00000000
vt 0.16669400 0.00000000
vt 0.16669400 0.00000000
vt 0.16669400 0.05410000
vt 0.16669400 0.05410000
vt 0.16669400 0.05410000
vt 0.61112900 0.00000000
vt 0.61112900 0.00000000
vt 0.61112900 0.00000000
vt 0.61112900 0.05410000
vt 0.61112900 0.05410000
vt 0.61112900 0.05410000
vt 0.31483900 0.00000000
vt 0.31483900 0.00000000
vt 0.46298400 0.00000000
vt 0.46298400 0.00000000
vt 0.46298400 0.05410000
vt 0.46298400 0.05410000
vt 0.46298400 0.05410000
vt 0.31483900 0.05410000
vt 0.31483900 0.05410000
vt 0.31483900 0.05410000
vt 0.16522900 0.00000000
vt 0.16522900 0.00000000
vt 0.16522900 0.00000000
vt 0.11112900 0.00000000
vt 0.11112900 0.00000000
vt 0.11112900 0.00000000
vt 0.16522900 0.68142500
vt 0.16522900 0.68142500
vt 0.16522900 0.68142500
vt 0.11112900 0.68142500
vt 0.11112900 0.68142500
vt 0.11112900 0.68142500
vt 0.16522900 0.17035600
vt 0.16522900 0.17035600
vt 0.16522900 0.34071200
vt 0.16522900 0.34071200
vt 0.16522900 0.51106800
vt 0.16522900 0.51106800
vt 0.11112900 0.51106800
vt 0.11112900 0.51106800
vt 0.11112900 0.34071200
vt 0.11112900 0.34071200
vt 0.11112900 0.17035600
vt 0.11112900 0.17035600
vt 0.05410000 0.00000000
vt 0.05410000 0.00000000
vt 0.05410000 0.00000000
vt 0.00000000 0.00000000
vt 0.00000000 0.00000000
vt 0.00000000 0.00000000
vt 0.05410000 0.23707300
vt 0.05410000 0.23707300
vt 0.05410000 0.23707300
vt 0.00000000 0.23707300
vt 0.00000000 0.23707300
vt 0.00000000 0.23707300
vt 0.05410000 0.07902400
vt 0.05410000 0.07902400
vt 0.05410000 0.15804900
vt 0.05410000 0.15804900
vt 0.00000000 0.15804900
vt 0.00000000 0.15804900
vt 0.00000000 0.15804900
vt 0.00000000 0.07902400
vt 0.00000000 0.07902400
vt 0.00000000 0.07902400
vt 0.16669400 0.05556500
vt 0.16669400 0.05556500
vt 0.16669400 0.05556500
vt 0.16669400 0.10966400
vt 0.16669400 0.10966400
vt 0.16669400 0.10966400
vt 0.61112900 0.05556500
vt 0.61112900 0.05556500
vt 0.61112900 0.05556500
vt 0.61112900 0.10966400
vt 0.61112900 0.10966400
vt 0.61112900 0.10966400
vt 0.31483900 0.05556500
vt 0.31483900 0.05556500
vt 0.46298400 0.05556500
vt 0.46298400 0.05556500
vt 0.46298400 0.10966400
vt 0.46298400 0.10966400
vt 0.46298400 0.10966400
vt 0.31483900 0.10966400
vt 0.31483900 0.10966400
vt 0.16669400 0.99853500
vt 0.16669400 0.99853500
vt 0.16669400 0.99853500
vt 0.84665400 0.55556500
vt 0.84665400 0.55556500
vt 0.84665400 0.55556500
vt 0.40317400 0.79185700
vt 0.40317400 0.79185700
vt 0.40317400 0.79185700
vt 0.28493400 0.89519600
vt 0.28493400 0.89519600
vt 0.16669400 0.85087800
vt 0.16669400 0.85087800
vt 0.16669400 0.70322100
vt 0.16669400 0.70322100
vt 0.16669400 0.55556500
vt 0.16669400 0.55556500
vt 0.16669400 0.55556500
vt 0.33668400 0.55556500
vt 0.33668400 0.55556500
vt 0.50667400 0.55556500
vt 0.50667400 0.55556500
vt 0.67666400 0.55556500
vt 0.67666400 0.55556500
vt 0.84665400 0.63432900
vt 0.84665400 0.63432900
vt 0.84665400 0.71309300
vt 0.84665400 0.71309300
vt 0.84665400 0.79185700
vt 0.84665400 0.79185700
vt 0.84665400 0.79185700
vt 0.69882700 0.79185700
vt 0.69882700 0.79185700
vt 0.69882700 0.79185700
vt 0.55100000 0.79185700
vt 0.55100000 0.79185700
vt 0.55100000 0.79185700
vt 0.16669400 0.55410000
vt 0.16669400 0.55410000
vt 0.16669400 0.55410000
vt 0.84665400 0.11112900
vt 0.84665400 0.11112900
vt 0.84665400 0.11112900
vt 0.40317400 0.34742100
vt 0.40317400 0.34742100
vt 0.40317400 0.34742100
vt 0.28493400 0.45076000
vt 0.28493400 0.45076000
vt 0.16669400 0.40644300
vt 0.16669400 0.40644300
vt 0.16669400 0.25878600
vt 0.16669400 0.25878600
vt 0.16669400 0.11112900
vt 0.16669400 0.11112900
vt 0.16669400 0.11112900
vt 0.33668400 0.11112900
vt 0.33668400 0.11112900
vt 0.50667400 0.11112900
vt 0.50667400 0.11112900
vt 0.67666400 0.11112900
vt 0.67666400 0.11112900
vt 0.84665400 0.18989300
vt 0.84665400 0.18989300
vt 0.84665400 0.26865700
vt 0.84665400 0.26865700
vt 0.84665400 0.26865700
vt 0.84665400 0.34742100
vt 0.84665400 0.34742100
vt 0.84665400 0.34742100
vt 0.69882700 0.34742100
vt 0.69882700 0.34742100
vt 0.55100000 0.34742100
vt 0.55100000 0.34742100
f 1/1/1 13/13/13 16/16/16
f 10/10/10 16/16/16 13/13/13
f 29/29/29 36/36/36 21/21/21
f 33/33/33 36/36/36 29/29/29
f 31/31/31 23/23/23 28/28/28
f 41/41/41 51/51/51 61/61/61
f 59/59/59 61/61/61 51/51/51
f 46/46/46 50/50/50 57/57/57
f 56/56/56 57/57/57 59/59/59
f 76/76/76 84/84/84 68/68/68
f 84/84/84 76/76/76 78/78/78
f 70/70/70 72/72/72 81/81/81
f 97/97/97 104/104/104 90/90/90
f 104/104/104 97/97/97 100/100/100
f 91/91/91 96/96/96 101/101/101
f 119/119/119 124/124/124 123/123/123
f 113/113/113 124/124/124 119/119/119
f 116/116/116 118/118/118 108/108/108
f 118/118/118 116/116/116 113/113/113
f 113/113/113 119/119/119 118/118/118
f 113/113/113 127/127/127 124/124/124
f 129/129/129 127/127/127 140/140/140
f 129/129/129 131/131/131 111/111/111
f 131/131/131 129/129/129 132/132/132
f 137/137/137 129/129/129 140/140/140
f 137/137/137 134/134/134 132/132/132
f 137/137/137 132/132/132 129/129/129
f 113/113/113 140/140/140 127/127/127
f 157/157/157 159/159/159 161/161/161
f 149/149/149 157/157/157 161/161/161
f 153/153/153 143/143/143 154/154/154
f 154/154/154 149/149/149 153/153/153
f 149/149/149 154/154/154 157/157/157
f 149/149/149 161/161/161 164/164/164
f 165/165/165 177/177/177 164/164/164
f 165/165/165 148/148/148 167/167/167
f 167/167/167 171/171/171 165/165/165
f 175/175/175 177/177/177 165/165/165
f 175/175/175 171/171/171 173/173/173
f 175/175/175 165/165/165 171/171/171
f 149/149/149 164/164/164 177/177/177
f 1/1/1 16/16/16 5/5/5
f 10/10/10 13/13/13 7/7/7
f 29/29/29 21/21/21 17/17/17
f 33/33/33 29/29/29 31/31/31
f 31/31/31 28/28/28 33/33/33
f 41/41/41 61/61/61 43/43/43
f 59/59/59 51/51/51 54/54/54
f 46/46/46 57/57/57 56/56/56
f 56/56/56 59/59/59 54/54/54
f 76/76/76 68/68/68 64/64/64
f 84/84/84 78/78/78 81/81/81
f 70/70/70 81/81/81 78/78/78
f 97/97/97 90/90/90 86/86/86
f 104/104/104 100/100/100 101/101/101
f 91/91/91 101/101/101 100/100/100
f 181/181/181 194/194/194 191/191/191
f 190/190/190 191/191/191 194/194/194
f 207/207/207 198/198/198 215/215/215
f 212/212/212 207/207/207 215/215/215
f 209/209/209 205/205/205 202/202/202
f 218/218/218 239/239/239 229/229/229
f 237/237/237 229/229/229 239/239/239
f 224/224/224 236/236/236 227/227/227
f 234/234/234 237/237/237 236/236/236
f 253/253/253 246/246/246 261/261/261
f 261/261/261 256/256/256 253/253/253
f 247/247/247 259/259/259 252/252/252
f 275/275/275 267/267/267 283/283/283
f 283/283/283 278/278/278 275/275/275
f 271/271/271 280/280/280 274/274/274
f 297/297/297 299/299/299 302/302/302
f 290/290/290 297/297/297 302/302/302
f 294/294/294 284/284/284 296/296/296
f 296/296/296 290/290/290 294/294/294
f 290/290/290 296/296/296 297/297/297
f 290/290/290 302/302/302 304/304/304
f 306/306/306 320/320/320 304/304/304
f 306/306/306 287/287/287 309/309/309
f 309/309/309 310/310/310 306/306/306
f 316/316/316 320/320/320 306/306/306
f 316/316/316 310/310/310 313/313/313
f 316/316/316 306/306/306 310/310/310
f 290/290/290 304/304/304 320/320/320
f 334/334/334 340/340/340 336/336/336
f 327/327/327 340/340/340 334/334/334
f 331/331/331 333/333/333 322/322/322
f 333/333/333 331/331/331 327/327/327
f 327/327/327 334/334/334 333/333/333
f 327/327/327 342/342/342 340/340/340
f 344/344/344 342/342/342 355/355/355
f 344/344/344 346/346/346 325/325/325
f 346/346/346 344/344/344 348/348/348
f 354/354/354 344/344/344 355/355/355
f 354/354/354 352/352/352 348/348/348
f 354/354/354 348/348/348 344/344/344
f 327/327/327 355/355/355 342/342/342
f 181/181/181 183/183/183 194/194/194
f 190/190/190 186/186/186 191/191/191
f 207/207/207 197/197/197 198/198/198
f 212/212/212 209/209/209 207/207/207
f 209/209/209 212/212/212 205/205/205
f 218/218/218 220/220/220 239/239/239
f 237/237/237 232/232/232 229/229/229
f 224/224/224 234/234/234 236/236/236
f 234/234/234 232/232/232 237/237/237
f 253/253/253 241/241/241 246/246/246
f 261/261/261 259/259/259 256/256/256
f 247/247/247 256/256/256 259/259/259
f 275/275/275 264/264/264 267/267/267
f 283/283/283 280/280/280 278/278/278
f 271/271/271 278/278/278 280/280/280
f 2/2/2 6/6/6 182/182/182
f 182/182/182 179/179/179 2/2/2
f 146/146/146 166/166/166 343/343/343
f 343/343/343 326/326/326 146/146/146
f 14/14/14 3/3/3 180/180/180
f 180/180/180 192/192/192 14/14/14
f 156/156/156 155/155/155 332/332/332
f 332/332/332 335/335/335 156/156/156
f 19/19/19 22/22/22 200/200/200
f 200/200/200 196/196/196 19/19/19
f 168/168/168 147/147/147 324/324/324
f 324/324/324 345/345/345 168/168/168
f 26/26/26 24/24/24 203/203/203
f 203/203/203 204/204/204 26/26/26
f 49/49/49 47/47/47 225/225/225
f 225/225/225 228/228/228 49/49/49
f 52/52/52 40/40/40 219/219/219
f 219/219/219 230/230/230 52/52/52
f 160/160/160 156/156/156 335/335/335
f 335/335/335 337/337/337 160/160/160
f 45/45/45 55/55/55 233/233/233
f 233/233/233 223/223/223 45/45/45
f 74/74/74 69/69/69 248/248/248
f 248/248/248 250/250/250 74/74/74
f 77/77/77 75/75/75 254/254/254
f 254/254/254 255/255/255 77/77/77
f 162/162/162 158/158/158 338/338/338
f 338/338/338 339/339/339 162/162/162
f 87/87/87 89/89/89 266/266/266
f 266/266/266 263/263/263 87/87/87
f 4/4/4 15/15/15 193/193/193
f 193/193/193 184/184/184 4/4/4
f 94/94/94 93/93/93 270/270/270
f 270/270/270 272/272/272 94/94/94
f 62/62/62 60/60/60 238/238/238
f 238/238/238 240/240/240 62/62/62
f 99/99/99 98/98/98 276/276/276
f 276/276/276 277/277/277 99/99/99
f 112/112/112 115/115/115 293/293/293
f 293/293/293 291/291/291 112/112/112
f 115/115/115 106/106/106 286/286/286
f 286/286/286 293/293/293 115/115/115
f 120/120/120 122/122/122 300/300/300
f 300/300/300 298/298/298 120/120/120
f 126/126/126 128/128/128 307/307/307
f 307/307/307 305/305/305 126/126/126
f 15/15/15 11/11/11 189/189/189
f 189/189/189 193/193/193 15/15/15
f 133/133/133 136/136/136 312/312/312
f 312/312/312 311/311/311 133/133/133
f 128/128/128 110/110/110 289/289/289
f 289/289/289 307/307/307 128/128/128
f 166/166/166 163/163/163 341/341/341
f 341/341/341 343/343/343 166/166/166
f 170/170/170 168/168/168 345/345/345
f 345/345/345 349/349/349 170/170/170
f 117/117/117 120/120/120 298/298/298
f 298/298/298 295/295/295 117/117/117
f 109/109/109 130/130/130 308/308/308
f 308/308/308 288/288/288 109/109/109
f 121/121/121 125/125/125 303/303/303
f 303/303/303 301/301/301 121/121/121
f 141/141/141 114/114/114 292/292/292
f 292/292/292 318/318/318 141/141/141
f 172/172/172 169/169/169 347/347/347
f 347/347/347 351/351/351 172/172/172
f 30/30/30 18/18/18 195/195/195
f 195/195/195 208/208/208 30/30/30
f 67/67/67 82/82/82 260/260/260
f 260/260/260 244/244/244 67/67/67
f 125/125/125 126/126/126 305/305/305
f 305/305/305 303/303/303 125/125/125
f 79/79/79 73/73/73 251/251/251
f 251/251/251 258/258/258 79/79/79
f 25/25/25 32/32/32 210/210/210
f 210/210/210 201/201/201 25/25/25
f 60/60/60 58/58/58 235/235/235
f 235/235/235 238/238/238 60/60/60
f 20/20/20 37/37/37 214/214/214
f 214/214/214 199/199/199 20/20/20
f 178/178/178 176/176/176 353/353/353
f 353/353/353 356/356/356 178/178/178
f 34/34/34 27/27/27 206/206/206
f 206/206/206 211/211/211 34/34/34
f 32/32/32 30/30/30 208/208/208
f 208/208/208 210/210/210 32/32/32
f 83/83/83 80/80/80 257/257/257
f 257/257/257 262/262/262 83/83/83
f 71/71/71 77/77/77 255/255/255
f 255/255/255 249/249/249 71/71/71
f 130/130/130 133/133/133 311/311/311
f 311/311/311 308/308/308 130/130/130
f 98/98/98 85/85/85 265/265/265
f 265/265/265 276/276/276 98/98/98
f 44/44/44 62/62/62 240/240/240
f 240/240/240 222/222/222 44/44/44
f 107/107/107 117/117/117 295/295/295
f 295/295/295 285/285/285 107/107/107
f 38/38/38 35/35/35 213/213/213
f 213/213/213 216/216/216 38/38/38
f 75/75/75 65/65/65 243/243/243
f 243/243/243 254/254/254 75/75/75
f 135/135/135 138/138/138 317/317/317
f 317/317/317 314/314/314 135/135/135
f 39/39/39 42/42/42 221/221/221
f 221/221/221 217/217/217 39/39/39
f 163/163/163 162/162/162 339/339/339
f 339/339/339 341/341/341 163/163/163
f 139/139/139 142/142/142 319/319/319
f 319/319/319 315/315/315 139/139/139
f 8/8/8 14/14/14 192/192/192
f 192/192/192 185/185/185 8/8/8
f 12/12/12 9/9/9 187/187/187
f 187/187/187 188/188/188 12/12/12
f 151/151/151 178/178/178 356/356/356
f 356/356/356 329/329/329 151/151/151
f 92/92/92 99/99/99 277/277/277
f 277/277/277 269/269/269 92/92/92
f 88/88/88 105/105/105 282/282/282
f 282/282/282 268/268/268 88/88/88
f 102/102/102 95/95/95 273/273/273
f 273/273/273 279/279/279 102/102/102
f 144/144/144 152/152/152 330/330/330
f 330/330/330 321/321/321 144/144/144
f 155/155/155 145/145/145 323/323/323
f 323/323/323 332/332/332 155/155/155
f 176/176/176 174/174/174 350/350/350
f 350/350/350 353/353/353 176/176/176
f 152/152/152 150/150/150 328/328/328
f 328/328/328 330/330/330 152/152/152
f 53/53/53 52/52/52 230/230/230
f 230/230/230 231/231/231 53/53/53
f 58/58/58 48/48/48 226/226/226
f 226/226/226 235/235/235 58/58/58
f 105/105/105 103/103/103 281/281/281
f 281/281/281 282/282/282 105/105/105
f 63/63/63 66/66/66 245/245/245
f 245/245/245 242/242/242 63/63/63
f 55/55/55 53/53/53 231/231/231
f 231/231/231 233/233/233 55/55/55

