mtllib material.mtl
usemtl Material-7011油漆.012
v -0.02503200 -0.12493200 -0.06633000
v -0.02503200 -0.12493200 -0.06633000
v -0.02503200 -0.12493200 -0.06633000
v -0.02503200 -0.12563200 -0.06633000
v -0.02503200 -0.12563200 -0.06633000
v -0.02503200 -0.12563200 -0.06633000
v -0.02775100 -0.12493200 -0.06922000
v -0.02775100 -0.12493200 -0.06922000
v -0.02775100 -0.12493200 -0.06922000
v -0.02775100 -0.12563200 -0.06922000
v -0.02775100 -0.12563200 -0.06922000
v -0.02775100 -0.12563200 -0.06922000
v -0.02639100 -0.12493200 -0.06777500
v -0.02639100 -0.12493200 -0.06777500
v -0.02639100 -0.12563200 -0.06777500
v -0.02639100 -0.12563200 -0.06777500
v -0.02775100 -0.12493200 -0.06922000
v -0.02775100 -0.12493200 -0.06922000
v -0.02775100 -0.12493200 -0.06922000
v -0.02775100 -0.12563200 -0.06922000
v -0.02775100 -0.12563200 -0.06922000
v -0.02775100 -0.12563200 -0.06922000
v -0.02215600 -0.12493200 -0.06942200
v -0.02215600 -0.12493200 -0.06942200
v -0.02215600 -0.12493200 -0.06942200
v -0.02215600 -0.12563200 -0.06942200
v -0.02215600 -0.12563200 -0.06942200
v -0.02215600 -0.12563200 -0.06942200
v -0.02644500 -0.12493200 -0.06926700
v -0.02644500 -0.12493200 -0.06926700
v -0.02513900 -0.12493200 -0.06931400
v -0.02513900 -0.12493200 -0.06931400
v -0.02513900 -0.12493200 -0.06931400
v -0.02364800 -0.12493200 -0.06936800
v -0.02364800 -0.12493200 -0.06936800
v -0.02364800 -0.12563200 -0.06936800
v -0.02364800 -0.12563200 -0.06936800
v -0.02364800 -0.12563200 -0.06936800
v -0.02513900 -0.12563200 -0.06931400
v -0.02513900 -0.12563200 -0.06931400
v -0.02513900 -0.12563200 -0.06931400
v -0.02513900 -0.12563200 -0.06931400
v -0.02644500 -0.12563200 -0.06926700
v -0.02644500 -0.12563200 -0.06926700
v -0.02644500 -0.12563200 -0.06926700
v -0.02215600 -0.12493200 -0.06942200
v -0.02215600 -0.12493200 -0.06942200
v -0.02215600 -0.12493200 -0.06942200
v -0.02215600 -0.12563200 -0.06942200
v -0.02215600 -0.12563200 -0.06942200
v -0.02215600 -0.12563200 -0.06942200
v -0.02184700 -0.12493200 -0.06084200
v -0.02184700 -0.12493200 -0.06084200
v -0.02184700 -0.12493200 -0.06084200
v -0.02184700 -0.12563200 -0.06084200
v -0.02184700 -0.12563200 -0.06084200
v -0.02184700 -0.12563200 -0.06084200
v -0.02209400 -0.12493200 -0.06770600
v -0.02209400 -0.12493200 -0.06770600
v -0.02203200 -0.12493200 -0.06599000
v -0.02203200 -0.12493200 -0.06599000
v -0.02197000 -0.12493200 -0.06427400
v -0.02197000 -0.12493200 -0.06427400
v -0.02190900 -0.12493200 -0.06255800
v -0.02190900 -0.12493200 -0.06255800
v -0.02190900 -0.12563200 -0.06255800
v -0.02190900 -0.12563200 -0.06255800
v -0.02190900 -0.12563200 -0.06255800
v -0.02197000 -0.12563200 -0.06427400
v -0.02197000 -0.12563200 -0.06427400
v -0.02197000 -0.12563200 -0.06427400
v -0.02203200 -0.12563200 -0.06599000
v -0.02203200 -0.12563200 -0.06599000
v -0.02203200 -0.12563200 -0.06599000
v -0.02209400 -0.12563200 -0.06770600
v -0.02209400 -0.12563200 -0.06770600
v -0.02209400 -0.12563200 -0.06770600
v -0.02184700 -0.12493200 -0.06084200
v -0.02184700 -0.12493200 -0.06084200
v -0.02184700 -0.12493200 -0.06084200
v -0.02184700 -0.12563200 -0.06084200
v -0.02184700 -0.12563200 -0.06084200
v -0.02184700 -0.12563200 -0.06084200
v -0.02483000 -0.12493200 -0.06073400
v -0.02483000 -0.12493200 -0.06073400
v -0.02483000 -0.12493200 -0.06073400
v -0.02483000 -0.12563200 -0.06073400
v -0.02483000 -0.12563200 -0.06073400
v -0.02483000 -0.12563200 -0.06073400
v -0.02333900 -0.12563200 -0.06078800
v -0.02333900 -0.12563200 -0.06078800
v -0.02333900 -0.12563200 -0.06078800
v -0.02333900 -0.12493200 -0.06078800
v -0.02333900 -0.12493200 -0.06078800
v -0.02483000 -0.12493200 -0.06073500
v -0.02483000 -0.12493200 -0.06073500
v -0.02483000 -0.12493200 -0.06073500
v -0.02483000 -0.12563200 -0.06073500
v -0.02483000 -0.12563200 -0.06073500
v -0.02483000 -0.12563200 -0.06073500
v -0.02503200 -0.12493200 -0.06633000
v -0.02503200 -0.12493200 -0.06633000
v -0.02503200 -0.12493200 -0.06633000
v -0.02503200 -0.12563200 -0.06633000
v -0.02503200 -0.12563200 -0.06633000
v -0.02503200 -0.12563200 -0.06633000
v -0.02489800 -0.12493200 -0.06260000
v -0.02489800 -0.12493200 -0.06260000
v -0.02496500 -0.12493200 -0.06446500
v -0.02496500 -0.12493200 -0.06446500
v -0.02496500 -0.12563200 -0.06446500
v -0.02496500 -0.12563200 -0.06446500
v -0.02489800 -0.12563200 -0.06260000
v -0.02489800 -0.12563200 -0.06260000
v -0.02775100 -0.12493100 -0.06922000
v -0.02775100 -0.12493100 -0.06922000
v -0.02775100 -0.12493100 -0.06922000
v -0.02184700 -0.12493100 -0.06084200
v -0.02184700 -0.12493100 -0.06084200
v -0.02184700 -0.12493100 -0.06084200
v -0.02503100 -0.12493100 -0.06633000
v -0.02503100 -0.12493100 -0.06633000
v -0.02503100 -0.12493100 -0.06633000
v -0.02639100 -0.12493100 -0.06777500
v -0.02639100 -0.12493100 -0.06777500
v -0.02644500 -0.12493100 -0.06926700
v -0.02644500 -0.12493100 -0.06926700
v -0.02513900 -0.12493100 -0.06931400
v -0.02513900 -0.12493100 -0.06931400
v -0.02513900 -0.12493100 -0.06931400
v -0.02364800 -0.12493100 -0.06936800
v -0.02364800 -0.12493100 -0.06936800
v -0.02215600 -0.12493100 -0.06942200
v -0.02215600 -0.12493100 -0.06942200
v -0.02215600 -0.12493100 -0.06942200
v -0.02209500 -0.12493100 -0.06770600
v -0.02209500 -0.12493100 -0.06770600
v -0.02203300 -0.12493100 -0.06599000
v -0.02203300 -0.12493100 -0.06599000
v -0.02197100 -0.12493100 -0.06427400
v -0.02197100 -0.12493100 -0.06427400
v -0.02190900 -0.12493100 -0.06255800
v -0.02190900 -0.12493100 -0.06255800
v -0.02333900 -0.12493100 -0.06078800
v -0.02333900 -0.12493100 -0.06078800
v -0.02483000 -0.12493100 -0.06073500
v -0.02483000 -0.12493100 -0.06073500
v -0.02483000 -0.12493100 -0.06073500
v -0.02489700 -0.12493100 -0.06260000
v -0.02489700 -0.12493100 -0.06260000
v -0.02496400 -0.12493100 -0.06446500
v -0.02496400 -0.12493100 -0.06446500
v -0.02775100 -0.12563200 -0.06922000
v -0.02775100 -0.12563200 -0.06922000
v -0.02775100 -0.12563200 -0.06922000
v -0.02184700 -0.12563200 -0.06084200
v -0.02184700 -0.12563200 -0.06084200
v -0.02184700 -0.12563200 -0.06084200
v -0.02503100 -0.12563200 -0.06633000
v -0.02503100 -0.12563200 -0.06633000
v -0.02503100 -0.12563200 -0.06633000
v -0.02639100 -0.12563200 -0.06777500
v -0.02639100 -0.12563200 -0.06777500
v -0.02644500 -0.12563200 -0.06926700
v -0.02644500 -0.12563200 -0.06926700
v -0.02513900 -0.12563200 -0.06931400
v -0.02513900 -0.12563200 -0.06931400
v -0.02364800 -0.12563200 -0.06936800
v -0.02364800 -0.12563200 -0.06936800
v -0.02215600 -0.12563200 -0.06942200
v -0.02215600 -0.12563200 -0.06942200
v -0.02215600 -0.12563200 -0.06942200
v -0.02209500 -0.12563200 -0.06770600
v -0.02209500 -0.12563200 -0.06770600
v -0.02203300 -0.12563200 -0.06599000
v -0.02203300 -0.12563200 -0.06599000
v -0.02197100 -0.12563200 -0.06427400
v -0.02197100 -0.12563200 -0.06427400
v -0.02190900 -0.12563200 -0.06255800
v -0.02190900 -0.12563200 -0.06255800
v -0.02333900 -0.12563200 -0.06078800
v -0.02333900 -0.12563200 -0.06078800
v -0.02483000 -0.12563200 -0.06073500
v -0.02483000 -0.12563200 -0.06073500
v -0.02483000 -0.12563200 -0.06073500
v -0.02489700 -0.12563200 -0.06260000
v -0.02489700 -0.12563200 -0.06260000
v -0.02489700 -0.12563200 -0.06260000
v -0.02496400 -0.12563200 -0.06446500
v -0.02496400 -0.12563200 -0.06446500
v -0.02496400 -0.12563200 -0.06446500
v -0.02503100 -0.12493200 -0.06633000
v -0.02503100 -0.12493200 -0.06633000
v -0.02503100 -0.12493200 -0.06633000
v -0.02503100 -0.12563200 -0.06633000
v -0.02503100 -0.12563200 -0.06633000
v -0.02503100 -0.12563200 -0.06633000
v -0.02775000 -0.12493200 -0.06922000
v -0.02775000 -0.12493200 -0.06922000
v -0.02775000 -0.12493200 -0.06922000
v -0.02775000 -0.12563200 -0.06922000
v -0.02775000 -0.12563200 -0.06922000
v -0.02775000 -0.12563200 -0.06922000
v -0.02639100 -0.12493200 -0.06777500
v -0.02639100 -0.12493200 -0.06777500
v -0.02639100 -0.12563200 -0.06777500
v -0.02639100 -0.12563200 -0.06777500
v -0.02775100 -0.12493200 -0.06921900
v -0.02775100 -0.12493200 -0.06921900
v -0.02775100 -0.12493200 -0.06921900
v -0.02775100 -0.12563200 -0.06921900
v -0.02775100 -0.12563200 -0.06921900
v -0.02775100 -0.12563200 -0.06921900
v -0.02215600 -0.12493200 -0.06942100
v -0.02215600 -0.12493200 -0.06942100
v -0.02215600 -0.12493200 -0.06942100
v -0.02215600 -0.12563200 -0.06942100
v -0.02215600 -0.12563200 -0.06942100
v -0.02215600 -0.12563200 -0.06942100
v -0.02644500 -0.12493200 -0.06926600
v -0.02644500 -0.12493200 -0.06926600
v -0.02513900 -0.12493200 -0.06931300
v -0.02513900 -0.12493200 -0.06931300
v -0.02513900 -0.12493200 -0.06931300
v -0.02364800 -0.12493200 -0.06936700
v -0.02364800 -0.12493200 -0.06936700
v -0.02364800 -0.12563200 -0.06936700
v -0.02364800 -0.12563200 -0.06936700
v -0.02364800 -0.12563200 -0.06936700
v -0.02513900 -0.12563200 -0.06931300
v -0.02513900 -0.12563200 -0.06931300
v -0.02513900 -0.12563200 -0.06931300
v -0.02513900 -0.12563200 -0.06931300
v -0.02644500 -0.12563200 -0.06926600
v -0.02644500 -0.12563200 -0.06926600
v -0.02644500 -0.12563200 -0.06926600
v -0.02215700 -0.12493200 -0.06942100
v -0.02215700 -0.12493200 -0.06942100
v -0.02215700 -0.12493200 -0.06942100
v -0.02215700 -0.12563200 -0.06942100
v -0.02215700 -0.12563200 -0.06942100
v -0.02215700 -0.12563200 -0.06942100
v -0.02184800 -0.12493200 -0.06084200
v -0.02184800 -0.12493200 -0.06084200
v -0.02184800 -0.12493200 -0.06084200
v -0.02184800 -0.12563200 -0.06084200
v -0.02184800 -0.12563200 -0.06084200
v -0.02184800 -0.12563200 -0.06084200
v -0.02209500 -0.12493200 -0.06770600
v -0.02209500 -0.12493200 -0.06770600
v -0.02203300 -0.12493200 -0.06599000
v -0.02203300 -0.12493200 -0.06599000
v -0.02197100 -0.12493200 -0.06427400
v -0.02197100 -0.12493200 -0.06427400
v -0.02191000 -0.12493200 -0.06255800
v -0.02191000 -0.12493200 -0.06255800
v -0.02191000 -0.12563200 -0.06255800
v -0.02191000 -0.12563200 -0.06255800
v -0.02191000 -0.12563200 -0.06255800
v -0.02197100 -0.12563200 -0.06427400
v -0.02197100 -0.12563200 -0.06427400
v -0.02197100 -0.12563200 -0.06427400
v -0.02203300 -0.12563200 -0.06599000
v -0.02203300 -0.12563200 -0.06599000
v -0.02203300 -0.12563200 -0.06599000
v -0.02209500 -0.12563200 -0.06770600
v -0.02209500 -0.12563200 -0.06770600
v -0.02209500 -0.12563200 -0.06770600
v -0.02184700 -0.12493200 -0.06084300
v -0.02184700 -0.12493200 -0.06084300
v -0.02184700 -0.12493200 -0.06084300
v -0.02184700 -0.12563200 -0.06084300
v -0.02184700 -0.12563200 -0.06084300
v -0.02184700 -0.12563200 -0.06084300
v -0.02483000 -0.12493200 -0.06073500
v -0.02483000 -0.12493200 -0.06073500
v -0.02483000 -0.12493200 -0.06073500
v -0.02483000 -0.12563200 -0.06073500
v -0.02483000 -0.12563200 -0.06073500
v -0.02483000 -0.12563200 -0.06073500
v -0.02333900 -0.12563200 -0.06078900
v -0.02333900 -0.12563200 -0.06078900
v -0.02333900 -0.12563200 -0.06078900
v -0.02333900 -0.12493200 -0.06078900
v -0.02333900 -0.12493200 -0.06078900
v -0.02482900 -0.12493200 -0.06073500
v -0.02482900 -0.12493200 -0.06073500
v -0.02482900 -0.12493200 -0.06073500
v -0.02482900 -0.12563200 -0.06073500
v -0.02482900 -0.12563200 -0.06073500
v -0.02482900 -0.12563200 -0.06073500
v -0.02503100 -0.12493200 -0.06633000
v -0.02503100 -0.12493200 -0.06633000
v -0.02503100 -0.12493200 -0.06633000
v -0.02503100 -0.12563200 -0.06633000
v -0.02503100 -0.12563200 -0.06633000
v -0.02503100 -0.12563200 -0.06633000
v -0.02489700 -0.12493200 -0.06260000
v -0.02489700 -0.12493200 -0.06260000
v -0.02496400 -0.12493200 -0.06446500
v -0.02496400 -0.12493200 -0.06446500
v -0.02496400 -0.12563200 -0.06446500
v -0.02496400 -0.12563200 -0.06446500
v -0.02489700 -0.12563200 -0.06260000
v -0.02489700 -0.12563200 -0.06260000
v -0.02775100 -0.12493200 -0.06922000
v -0.02775100 -0.12493200 -0.06922000
v -0.02775100 -0.12493200 -0.06922000
v -0.02184700 -0.12493200 -0.06084200
v -0.02184700 -0.12493200 -0.06084200
v -0.02184700 -0.12493200 -0.06084200
v -0.02503100 -0.12493200 -0.06633000
v -0.02503100 -0.12493200 -0.06633000
v -0.02503100 -0.12493200 -0.06633000
v -0.02639100 -0.12493200 -0.06777500
v -0.02639100 -0.12493200 -0.06777500
v -0.02644500 -0.12493200 -0.06926700
v -0.02644500 -0.12493200 -0.06926700
v -0.02513900 -0.12493200 -0.06931400
v -0.02513900 -0.12493200 -0.06931400
v -0.02513900 -0.12493200 -0.06931400
v -0.02364800 -0.12493200 -0.06936800
v -0.02364800 -0.12493200 -0.06936800
v -0.02215600 -0.12493200 -0.06942200
v -0.02215600 -0.12493200 -0.06942200
v -0.02215600 -0.12493200 -0.06942200
v -0.02209500 -0.12493200 -0.06770600
v -0.02209500 -0.12493200 -0.06770600
v -0.02203300 -0.12493200 -0.06599000
v -0.02203300 -0.12493200 -0.06599000
v -0.02197100 -0.12493200 -0.06427400
v -0.02197100 -0.12493200 -0.06427400
v -0.02190900 -0.12493200 -0.06255800
v -0.02190900 -0.12493200 -0.06255800
v -0.02333900 -0.12493200 -0.06078800
v -0.02333900 -0.12493200 -0.06078800
v -0.02483000 -0.12493200 -0.06073500
v -0.02483000 -0.12493200 -0.06073500
v -0.02483000 -0.12493200 -0.06073500
v -0.02489700 -0.12493200 -0.06260000
v -0.02489700 -0.12493200 -0.06260000
v -0.02496400 -0.12493200 -0.06446500
v -0.02496400 -0.12493200 -0.06446500
v -0.02775100 -0.12563100 -0.06922000
v -0.02775100 -0.12563100 -0.06922000
v -0.02775100 -0.12563100 -0.06922000
v -0.02184700 -0.12563100 -0.06084200
v -0.02184700 -0.12563100 -0.06084200
v -0.02184700 -0.12563100 -0.06084200
v -0.02503100 -0.12563100 -0.06633000
v -0.02503100 -0.12563100 -0.06633000
v -0.02503100 -0.12563100 -0.06633000
v -0.02639100 -0.12563100 -0.06777500
v -0.02639100 -0.12563100 -0.06777500
v -0.02644500 -0.12563100 -0.06926700
v -0.02644500 -0.12563100 -0.06926700
v -0.02513900 -0.12563100 -0.06931400
v -0.02513900 -0.12563100 -0.06931400
v -0.02364800 -0.12563100 -0.06936800
v -0.02364800 -0.12563100 -0.06936800
v -0.02215600 -0.12563100 -0.06942200
v -0.02215600 -0.12563100 -0.06942200
v -0.02215600 -0.12563100 -0.06942200
v -0.02209500 -0.12563100 -0.06770600
v -0.02209500 -0.12563100 -0.06770600
v -0.02203300 -0.12563100 -0.06599000
v -0.02203300 -0.12563100 -0.06599000
v -0.02197100 -0.12563100 -0.06427400
v -0.02197100 -0.12563100 -0.06427400
v -0.02190900 -0.12563100 -0.06255800
v -0.02190900 -0.12563100 -0.06255800
v -0.02333900 -0.12563100 -0.06078800
v -0.02333900 -0.12563100 -0.06078800
v -0.02483000 -0.12563100 -0.06073500
v -0.02483000 -0.12563100 -0.06073500
v -0.02483000 -0.12563100 -0.06073500
v -0.02489700 -0.12563100 -0.06260000
v -0.02489700 -0.12563100 -0.06260000
v -0.02489700 -0.12563100 -0.06260000
v -0.02496400 -0.12563100 -0.06446500
v -0.02496400 -0.12563100 -0.06446500
v -0.02496400 -0.12563100 -0.06446500
vn -0.72830000 0.00000000 0.68530000
vn 0.68570000 0.00000000 0.72790000
vn 0.00000000 1.00000000 0.00000000
vn 0.68570000 0.00000000 0.72790000
vn -0.72830000 0.00000000 0.68530000
vn 0.00000000 -1.00000000 0.00000000
vn -0.72830000 0.00000000 0.68530000
vn 0.00000000 1.00000000 0.00000000
vn -0.68570000 0.00000000 -0.72790000
vn -0.68570000 0.00000000 -0.72790000
vn -0.72830000 0.00000000 0.68530000
vn 0.00000000 -1.00000000 0.00000000
vn 0.00000000 1.00000000 0.00000000
vn -0.72830000 0.00000000 0.68530000
vn 0.00000000 -1.00000000 0.00000000
vn -0.72830000 0.00000000 0.68530000
vn 0.00000000 1.00000000 0.00000000
vn -0.99940000 0.00000000 0.03380000
vn -0.03590000 0.00000000 -0.99940000
vn 0.00000000 -0.99990000 0.01120000
vn -0.99940000 0.00000000 0.03380000
vn -0.03590000 0.00000000 -0.99940000
vn 0.00000000 1.00000000 0.00000000
vn 0.99940000 0.00000000 -0.03560000
vn -0.03610000 0.00000000 -0.99930000
vn 0.00000000 -1.00000000 0.00980000
vn -0.03610000 0.00000000 -0.99930000
vn 0.99940000 0.00000000 -0.03560000
vn 0.00000000 1.00000000 0.00000000
vn -0.03590000 0.00000000 -0.99940000
vn 0.00000000 1.00000000 0.00000000
vn -0.03590000 0.00000000 -0.99940000
vn -0.03610000 0.00000000 -0.99930000
vn 0.00000000 1.00000000 0.00000000
vn -0.03610000 0.00000000 -0.99930000
vn 0.00000000 -1.00000000 0.00000000
vn -0.03610000 0.00000000 -0.99930000
vn 0.00000000 -1.00000000 0.00980000
vn -0.03590000 0.00000000 -0.99940000
vn 0.00000000 -1.00000000 0.00000000
vn -0.03610000 0.00000000 -0.99930000
vn 0.00000000 -0.99990000 -0.01120000
vn -0.03590000 0.00000000 -0.99940000
vn 0.00000000 -0.99990000 -0.01120000
vn 0.00000000 -0.99990000 0.01120000
vn 0.00000000 1.00000000 0.00000000
vn 0.99940000 0.00000000 -0.03600000
vn -0.03120000 0.00000000 -0.99950000
vn -0.03120000 0.00000000 -0.99950000
vn 0.00000000 -1.00000000 0.00000000
vn 0.99940000 0.00000000 -0.03600000
vn 0.04150000 0.00000000 0.99910000
vn 0.00000000 1.00000000 0.00000000
vn 0.99940000 0.00000000 -0.03600000
vn 0.04150000 0.00000000 0.99910000
vn 0.99940000 0.00000000 -0.03600000
vn 0.00000000 -1.00000000 0.00000000
vn 0.00000000 1.00000000 0.00000000
vn 0.99940000 0.00000000 -0.03600000
vn 0.99940000 0.00000000 -0.03600000
vn 0.00000000 1.00000000 0.00000000
vn 0.99940000 0.00000000 -0.03600000
vn 0.00000000 1.00000000 0.00000000
vn 0.99940000 0.00000000 -0.03600000
vn 0.00000000 1.00000000 0.00000000
vn 0.00000000 -1.00000000 0.00050000
vn 0.00000000 -1.00000000 0.00000000
vn 0.99940000 0.00000000 -0.03600000
vn 0.00000000 -1.00000000 0.00000000
vn 0.99940000 0.00000000 -0.03600000
vn 0.00000000 -1.00000000 0.00050000
vn 0.99940000 0.00000000 -0.03600000
vn 0.00000000 -1.00000000 -0.00050000
vn 0.00000000 -1.00000000 0.00000000
vn 0.99940000 0.00000000 -0.03600000
vn 0.00000000 -1.00000000 0.00000000
vn 0.00000000 -1.00000000 -0.00050000
vn 0.99940000 0.00000000 -0.03530000
vn 0.00000000 1.00000000 0.00000000
vn 0.03600000 0.00000000 0.99940000
vn 0.03600000 0.00000000 0.99940000
vn 0.00000000 -1.00000000 0.00000000
vn 0.99940000 0.00000000 -0.03530000
vn 0.00000000 1.00000000 0.00000000
vn 0.03600000 0.00000000 0.99940000
vn -0.99940000 0.00000000 0.03340000
vn 0.00000000 -1.00000000 0.00970000
vn 0.03600000 0.00000000 0.99940000
vn -0.99940000 0.00000000 0.03340000
vn 0.00000000 -1.00000000 0.00970000
vn 0.00000000 -1.00000000 0.00000000
vn 0.03600000 0.00000000 0.99940000
vn 0.03600000 0.00000000 0.99940000
vn 0.00000000 1.00000000 0.00000000
vn 0.04160000 0.00000000 0.99910000
vn 0.00000000 1.00000000 0.00000000
vn -0.99940000 0.00000000 0.03600000
vn -0.99940000 0.00000000 0.03600000
vn 0.00000000 -1.00000000 0.00000000
vn 0.04160000 0.00000000 0.99910000
vn -0.99940000 0.00000000 0.03600000
vn -0.03120000 0.00000000 -0.99950000
vn 0.00000000 1.00000000 0.00000000
vn 0.00000000 -1.00000000 0.00000000
vn -0.03120000 0.00000000 -0.99950000
vn -0.99940000 0.00000000 0.03600000
vn -0.99940000 0.00000000 0.03600000
vn 0.00000000 1.00000000 0.00000000
vn 0.00000000 1.00000000 0.00000000
vn -0.99940000 0.00000000 0.03600000
vn -0.99940000 0.00000000 0.03600000
vn 0.00000000 -1.00000000 0.00000000
vn -0.99940000 0.00000000 0.03600000
vn 0.00000000 -1.00000000 0.00000000
vn -0.72820000 0.00000000 0.68540000
vn 0.00000000 1.00000000 0.00000000
vn -0.03600000 0.00000000 -0.99940000
vn 0.00000000 1.00000000 0.00000000
vn 0.99940000 0.00000000 -0.03580000
vn 0.03570000 0.00000000 0.99940000
vn -0.72820000 0.00000000 0.68540000
vn -0.99940000 0.00000000 0.03590000
vn 0.00000000 1.00000000 0.00000000
vn 0.00000000 1.00000000 0.00000000
vn -0.72820000 0.00000000 0.68540000
vn -0.03600000 0.00000000 -0.99940000
vn 0.00000000 1.00000000 0.00000000
vn -0.03600000 0.00000000 -0.99940000
vn 0.00000000 1.00000000 0.00000000
vn -0.03570000 0.00000000 -0.99940000
vn -0.03570000 0.00000000 -0.99940000
vn 0.00000000 1.00000000 0.00000000
vn -0.03570000 0.00000000 -0.99940000
vn 0.00000000 1.00000000 0.00000000
vn 0.99940000 0.00000000 -0.03580000
vn 0.00000000 1.00000000 0.00000000
vn 0.99940000 0.00000000 -0.03580000
vn 0.00000000 1.00000000 0.00000000
vn 0.99940000 0.00000000 -0.03580000
vn 0.99940000 0.00000000 -0.03580000
vn 0.00000000 1.00000000 0.00000000
vn 0.00000000 1.00000000 0.00000000
vn 0.99940000 0.00000000 -0.03580000
vn 0.03570000 0.00000000 0.99940000
vn 0.00000000 1.00000000 0.00000000
vn -0.99940000 0.00000000 0.03590000
vn 0.03570000 0.00000000 0.99940000
vn 0.00000000 1.00000000 0.00000000
vn -0.99940000 0.00000000 0.03590000
vn 0.00000000 1.00000000 0.00000000
vn -0.99940000 0.00000000 0.03590000
vn 0.00000000 1.00000000 0.00000000
vn -0.03580000 0.00000000 -0.99940000
vn 0.00000000 -1.00000000 0.00000000
vn -0.72930000 0.00000000 0.68420000
vn 0.00000000 -1.00000000 0.00000000
vn 0.99930000 0.00000000 -0.03610000
vn 0.03580000 0.00000000 0.99940000
vn -0.72930000 0.00000000 0.68420000
vn -0.99930000 0.00000000 0.03610000
vn 0.00000000 -1.00000000 0.00000000
vn -0.72930000 0.00000000 0.68420000
vn 0.00000000 -1.00000000 0.00000000
vn 0.00000000 -1.00000000 0.00000000
vn -0.03580000 0.00000000 -0.99940000
vn 0.00000000 -1.00000000 0.00000000
vn -0.03580000 0.00000000 -0.99940000
vn 0.00000000 -1.00000000 0.00000000
vn -0.03580000 0.00000000 -0.99940000
vn -0.03580000 0.00000000 -0.99940000
vn 0.99930000 0.00000000 -0.03610000
vn 0.00000000 -1.00000000 0.00000000
vn 0.99930000 0.00000000 -0.03610000
vn 0.00000000 -1.00000000 0.00000000
vn 0.99930000 0.00000000 -0.03610000
vn 0.00000000 -1.00000000 0.00000000
vn 0.00000000 -1.00000000 0.00000000
vn 0.99930000 0.00000000 -0.03610000
vn 0.99930000 0.00000000 -0.03610000
vn 0.00000000 -1.00000000 0.00000000
vn 0.00000000 -1.00000000 0.00000000
vn 0.03580000 0.00000000 0.99940000
vn 0.03580000 0.00000000 0.99940000
vn 0.00000000 -1.00000000 0.00000000
vn -0.99930000 0.00000000 0.03610000
vn -0.99930000 0.00000000 0.03610000
vn -0.99940000 0.00000000 0.03560000
vn 0.00000000 -1.00000000 0.00000000
vn 0.00000000 -1.00000000 0.00000000
vn -0.99940000 0.00000000 0.03560000
vn -0.99930000 0.00000000 0.03610000
vn 0.00000000 1.00000000 0.00000000
vn 0.72830000 0.00000000 -0.68530000
vn 0.68570000 0.00000000 0.72790000
vn 0.72830000 0.00000000 -0.68530000
vn 0.68570000 0.00000000 0.72790000
vn 0.00000000 -1.00000000 0.00000000
vn 0.72830000 0.00000000 -0.68530000
vn -0.68570000 0.00000000 -0.72790000
vn 0.00000000 1.00000000 0.00000000
vn -0.68570000 0.00000000 -0.72790000
vn 0.72830000 0.00000000 -0.68530000
vn 0.00000000 -1.00000000 0.00000000
vn 0.72830000 0.00000000 -0.68530000
vn 0.00000000 1.00000000 0.00000000
vn 0.00000000 -1.00000000 0.00000000
vn 0.72830000 0.00000000 -0.68530000
vn 0.03590000 0.00000000 0.99940000
vn 0.00000000 1.00000000 0.00000000
vn -0.99940000 0.00000000 0.03380000
vn 0.03590000 0.00000000 0.99940000
vn -0.99940000 0.00000000 0.03380000
vn 0.00000000 -0.99990000 0.01120000
vn 0.03610000 0.00000000 0.99930000
vn 0.99940000 0.00000000 -0.03560000
vn 0.00000000 1.00000000 0.00000000
vn 0.99940000 0.00000000 -0.03560000
vn 0.03610000 0.00000000 0.99930000
vn 0.00000000 -1.00000000 0.00980000
vn 0.00000000 1.00000000 0.00000000
vn 0.03590000 0.00000000 0.99940000
vn 0.00000000 1.00000000 0.00000000
vn 0.03590000 0.00000000 0.99940000
vn 0.03610000 0.00000000 0.99930000
vn 0.03610000 0.00000000 0.99930000
vn 0.00000000 1.00000000 0.00000000
vn 0.00000000 -1.00000000 0.00000000
vn 0.00000000 -1.00000000 0.00980000
vn 0.03610000 0.00000000 0.99930000
vn 0.00000000 -0.99990000 -0.01120000
vn 0.00000000 -1.00000000 0.00000000
vn 0.03590000 0.00000000 0.99940000
vn 0.03610000 0.00000000 0.99930000
vn 0.00000000 -0.99990000 0.01120000
vn 0.00000000 -0.99990000 -0.01120000
vn 0.03590000 0.00000000 0.99940000
vn 0.00000000 1.00000000 0.00000000
vn -0.99940000 0.00000000 0.03600000
vn -0.03120000 0.00000000 -0.99950000
vn -0.99940000 0.00000000 0.03600000
vn 0.00000000 -1.00000000 0.00000000
vn -0.03120000 0.00000000 -0.99950000
vn 0.04150000 0.00000000 0.99910000
vn -0.99940000 0.00000000 0.03600000
vn 0.00000000 1.00000000 0.00000000
vn 0.04150000 0.00000000 0.99910000
vn -0.99940000 0.00000000 0.03600000
vn 0.00000000 -1.00000000 0.00000000
vn 0.00000000 1.00000000 0.00000000
vn -0.99940000 0.00000000 0.03600000
vn -0.99940000 0.00000000 0.03600000
vn 0.00000000 1.00000000 0.00000000
vn -0.99940000 0.00000000 0.03600000
vn 0.00000000 1.00000000 0.00000000
vn -0.99940000 0.00000000 0.03600000
vn 0.00000000 1.00000000 0.00000000
vn 0.00000000 -1.00000000 0.00050000
vn -0.99940000 0.00000000 0.03600000
vn 0.00000000 -1.00000000 0.00000000
vn 0.00000000 -1.00000000 0.00050000
vn -0.99940000 0.00000000 0.03600000
vn 0.00000000 -1.00000000 0.00000000
vn -0.99940000 0.00000000 0.03600000
vn 0.00000000 -1.00000000 -0.00050000
vn 0.00000000 -1.00000000 0.00000000
vn 0.00000000 -1.00000000 -0.00050000
vn 0.00000000 -1.00000000 0.00000000
vn -0.99940000 0.00000000 0.03600000
vn 0.00000000 1.00000000 0.00000000
vn 0.99940000 0.00000000 -0.03530000
vn -0.03600000 0.00000000 -0.99940000
vn 0.99940000 0.00000000 -0.03530000
vn 0.00000000 -1.00000000 0.00000000
vn -0.03600000 0.00000000 -0.99940000
vn 0.00000000 1.00000000 0.00000000
vn -0.03600000 0.00000000 -0.99940000
vn -0.99940000 0.00000000 0.03340000
vn -0.03600000 0.00000000 -0.99940000
vn -0.99940000 0.00000000 0.03340000
vn 0.00000000 -1.00000000 0.00970000
vn -0.03600000 0.00000000 -0.99940000
vn 0.00000000 -1.00000000 0.00970000
vn 0.00000000 -1.00000000 0.00000000
vn 0.00000000 1.00000000 0.00000000
vn -0.03600000 0.00000000 -0.99940000
vn 0.99940000 0.00000000 -0.03600000
vn 0.04160000 0.00000000 0.99910000
vn 0.00000000 1.00000000 0.00000000
vn 0.99940000 0.00000000 -0.03600000
vn 0.00000000 -1.00000000 0.00000000
vn 0.04160000 0.00000000 0.99910000
vn 0.00000000 1.00000000 0.00000000
vn 0.99940000 0.00000000 -0.03600000
vn -0.03120000 0.00000000 -0.99950000
vn 0.00000000 -1.00000000 0.00000000
vn -0.03120000 0.00000000 -0.99950000
vn 0.99940000 0.00000000 -0.03600000
vn 0.00000000 1.00000000 0.00000000
vn 0.99940000 0.00000000 -0.03600000
vn 0.99940000 0.00000000 -0.03600000
vn 0.00000000 1.00000000 0.00000000
vn 0.00000000 -1.00000000 0.00000000
vn 0.99940000 0.00000000 -0.03600000
vn 0.99940000 0.00000000 -0.03600000
vn 0.00000000 -1.00000000 0.00000000
vn -0.03600000 0.00000000 -0.99940000
vn -0.72820000 0.00000000 0.68540000
vn 0.00000000 -1.00000000 0.00000000
vn 0.99940000 0.00000000 -0.03580000
vn 0.00000000 -1.00000000 0.00000000
vn 0.03570000 0.00000000 0.99940000
vn 0.00000000 -1.00000000 0.00000000
vn -0.72820000 0.00000000 0.68540000
vn -0.99940000 0.00000000 0.03590000
vn -0.72820000 0.00000000 0.68540000
vn 0.00000000 -1.00000000 0.00000000
vn 0.00000000 -1.00000000 0.00000000
vn -0.03600000 0.00000000 -0.99940000
vn 0.00000000 -1.00000000 0.00000000
vn -0.03600000 0.00000000 -0.99940000
vn -0.03570000 0.00000000 -0.99940000
vn -0.03570000 0.00000000 -0.99940000
vn 0.00000000 -1.00000000 0.00000000
vn 0.00000000 -1.00000000 0.00000000
vn -0.03570000 0.00000000 -0.99940000
vn 0.99940000 0.00000000 -0.03580000
vn 0.99940000 0.00000000 -0.03580000
vn 0.00000000 -1.00000000 0.00000000
vn 0.00000000 -1.00000000 0.00000000
vn 0.99940000 0.00000000 -0.03580000
vn 0.99940000 0.00000000 -0.03580000
vn 0.00000000 -1.00000000 0.00000000
vn 0.99940000 0.00000000 -0.03580000
vn 0.00000000 -1.00000000 0.00000000
vn 0.03570000 0.00000000 0.99940000
vn 0.00000000 -1.00000000 0.00000000
vn 0.00000000 -1.00000000 0.00000000
vn -0.99940000 0.00000000 0.03590000
vn 0.03570000 0.00000000 0.99940000
vn -0.99940000 0.00000000 0.03590000
vn 0.00000000 -1.00000000 0.00000000
vn -0.99940000 0.00000000 0.03590000
vn 0.00000000 -1.00000000 0.00000000
vn -0.03580000 0.00000000 -0.99940000
vn -0.72930000 0.00000000 0.68420000
vn 0.00000000 1.00000000 0.00000000
vn 0.03580000 0.00000000 0.99940000
vn 0.00000000 1.00000000 0.00000000
vn 0.99930000 0.00000000 -0.03610000
vn -0.99930000 0.00000000 0.03610000
vn -0.72930000 0.00000000 0.68420000
vn 0.00000000 1.00000000 0.00000000
vn -0.72930000 0.00000000 0.68420000
vn 0.00000000 1.00000000 0.00000000
vn -0.03580000 0.00000000 -0.99940000
vn 0.00000000 1.00000000 0.00000000
vn -0.03580000 0.00000000 -0.99940000
vn 0.00000000 1.00000000 0.00000000
vn 0.00000000 1.00000000 0.00000000
vn -0.03580000 0.00000000 -0.99940000
vn 0.99930000 0.00000000 -0.03610000
vn 0.00000000 1.00000000 0.00000000
vn -0.03580000 0.00000000 -0.99940000
vn 0.99930000 0.00000000 -0.03610000
vn 0.00000000 1.00000000 0.00000000
vn 0.00000000 1.00000000 0.00000000
vn 0.99930000 0.00000000 -0.03610000
vn 0.00000000 1.00000000 0.00000000
vn 0.99930000 0.00000000 -0.03610000
vn 0.99930000 0.00000000 -0.03610000
vn 0.00000000 1.00000000 0.00000000
vn 0.03580000 0.00000000 0.99940000
vn 0.00000000 1.00000000 0.00000000
vn 0.03580000 0.00000000 0.99940000
vn 0.00000000 1.00000000 0.00000000
vn -0.99930000 0.00000000 0.03610000
vn 0.00000000 1.00000000 0.00000000
vn -0.99930000 0.00000000 0.03610000
vn -0.99940000 0.00000000 0.03560000
vn -0.99940000 0.00000000 0.03560000
vn -0.99930000 0.00000000 0.03610000
vn 0.00000000 1.00000000 0.00000000
vt 0.10968300 0.00000000
vt 0.10968300 0.00000000
vt 0.10968300 0.00000000
vt 0.05557400 0.00000000
vt 0.05557400 0.00000000
vt 0.05557400 0.00000000
vt 0.10968300 0.31503100
vt 0.10968300 0.31503100
vt 0.10968300 0.31503100
vt 0.05557400 0.31503100
vt 0.05557400 0.31503100
vt 0.05557400 0.31503100
vt 0.10968300 0.15751500
vt 0.10968300 0.15751500
vt 0.05557400 0.15751500
vt 0.05557400 0.15751500
vt 0.16672200 0.00000000
vt 0.16672200 0.00000000
vt 0.16672200 0.00000000
vt 0.16672200 0.05410900
vt 0.16672200 0.05410900
vt 0.16672200 0.05410900
vt 0.61114800 0.00000000
vt 0.61114800 0.00000000
vt 0.61114800 0.00000000
vt 0.61114800 0.05410900
vt 0.61114800 0.05410900
vt 0.61114800 0.05410900
vt 0.27046200 0.00000000
vt 0.27046200 0.00000000
vt 0.37420300 0.00000000
vt 0.37420300 0.00000000
vt 0.37420300 0.00000000
vt 0.49267500 0.00000000
vt 0.49267500 0.00000000
vt 0.49267500 0.05410900
vt 0.49267500 0.05410900
vt 0.49267500 0.05410900
vt 0.37420300 0.05410900
vt 0.37420300 0.05410900
vt 0.37420300 0.05410900
vt 0.37420300 0.05410900
vt 0.27046200 0.05410900
vt 0.27046200 0.05410900
vt 0.27046200 0.05410900
vt 0.16525700 0.00000000
vt 0.16525700 0.00000000
vt 0.16525700 0.00000000
vt 0.11114800 0.00000000
vt 0.11114800 0.00000000
vt 0.11114800 0.00000000
vt 0.16525700 0.68156700
vt 0.16525700 0.68156700
vt 0.16525700 0.68156700
vt 0.11114800 0.68156700
vt 0.11114800 0.68156700
vt 0.11114800 0.68156700
vt 0.16525700 0.13631300
vt 0.16525700 0.13631300
vt 0.16525700 0.27262700
vt 0.16525700 0.27262700
vt 0.16525700 0.40894000
vt 0.16525700 0.40894000
vt 0.16525700 0.54525400
vt 0.16525700 0.54525400
vt 0.11114800 0.54525400
vt 0.11114800 0.54525400
vt 0.11114800 0.54525400
vt 0.11114800 0.40894000
vt 0.11114800 0.40894000
vt 0.11114800 0.40894000
vt 0.11114800 0.27262700
vt 0.11114800 0.27262700
vt 0.11114800 0.27262700
vt 0.11114800 0.13631300
vt 0.11114800 0.13631300
vt 0.11114800 0.13631300
vt 0.05410900 0.00000000
vt 0.05410900 0.00000000
vt 0.05410900 0.00000000
vt 0.00000000 0.00000000
vt 0.00000000 0.00000000
vt 0.00000000 0.00000000
vt 0.05410900 0.23694500
vt 0.05410900 0.23694500
vt 0.05410900 0.23694500
vt 0.00000000 0.23694500
vt 0.00000000 0.23694500
vt 0.00000000 0.23694500
vt 0.00000000 0.11847300
vt 0.00000000 0.11847300
vt 0.00000000 0.11847300
vt 0.05410900 0.11847300
vt 0.05410900 0.11847300
vt 0.16672200 0.05557400
vt 0.16672200 0.05557400
vt 0.16672200 0.05557400
vt 0.16672200 0.10968300
vt 0.16672200 0.10968300
vt 0.16672200 0.10968300
vt 0.61123200 0.05557400
vt 0.61123200 0.05557400
vt 0.61123200 0.05557400
vt 0.61123200 0.10968300
vt 0.61123200 0.10968300
vt 0.61123200 0.10968300
vt 0.31489200 0.05557400
vt 0.31489200 0.05557400
vt 0.46306200 0.05557400
vt 0.46306200 0.05557400
vt 0.46306200 0.10968300
vt 0.46306200 0.10968300
vt 0.31489200 0.10968300
vt 0.31489200 0.10968300
vt 0.16672200 0.99853500
vt 0.16672200 0.99853500
vt 0.16672200 0.99853500
vt 0.84682400 0.55557400
vt 0.84682400 0.55557400
vt 0.84682400 0.55557400
vt 0.40326900 0.79173800
vt 0.40326900 0.79173800
vt 0.40326900 0.79173800
vt 0.28499600 0.89513700
vt 0.28499600 0.89513700
vt 0.16672900 0.89513700
vt 0.16672900 0.89513700
vt 0.16673600 0.79173800
vt 0.16673600 0.79173800
vt 0.16673600 0.79173800
vt 0.16672900 0.67365600
vt 0.16672900 0.67365600
vt 0.16672200 0.55557400
vt 0.16672200 0.55557400
vt 0.16672200 0.55557400
vt 0.30274200 0.55557400
vt 0.30274200 0.55557400
vt 0.43876300 0.55557400
vt 0.43876300 0.55557400
vt 0.57478300 0.55557400
vt 0.57478300 0.55557400
vt 0.71080400 0.55557400
vt 0.71080400 0.55557400
vt 0.84682400 0.67365600
vt 0.84682400 0.67365600
vt 0.84682400 0.79173800
vt 0.84682400 0.79173800
vt 0.84682400 0.79173800
vt 0.69897300 0.79173800
vt 0.69897300 0.79173800
vt 0.55112100 0.79173800
vt 0.55112100 0.79173800
vt 0.16672200 0.55410900
vt 0.16672200 0.55410900
vt 0.16672200 0.55410900
vt 0.84682400 0.11114800
vt 0.84682400 0.11114800
vt 0.84682400 0.11114800
vt 0.40326900 0.34731200
vt 0.40326900 0.34731200
vt 0.40326900 0.34731200
vt 0.28499600 0.45071100
vt 0.28499600 0.45071100
vt 0.16672900 0.45071100
vt 0.16672900 0.45071100
vt 0.16673600 0.34731200
vt 0.16673600 0.34731200
vt 0.16672900 0.22923000
vt 0.16672900 0.22923000
vt 0.16672200 0.11114800
vt 0.16672200 0.11114800
vt 0.16672200 0.11114800
vt 0.30274200 0.11114800
vt 0.30274200 0.11114800
vt 0.43876300 0.11114800
vt 0.43876300 0.11114800
vt 0.57478300 0.11114800
vt 0.57478300 0.11114800
vt 0.71080400 0.11114800
vt 0.71080400 0.11114800
vt 0.84682400 0.22923000
vt 0.84682400 0.22923000
vt 0.84682400 0.34731200
vt 0.84682400 0.34731200
vt 0.84682400 0.34731200
vt 0.69897300 0.34731200
vt 0.69897300 0.34731200
vt 0.69897300 0.34731200
vt 0.55112100 0.34731200
vt 0.55112100 0.34731200
vt 0.55112100 0.34731200
vt 0.10968300 0.00000000
vt 0.10968300 0.00000000
vt 0.10968300 0.00000000
vt 0.05557400 0.00000000
vt 0.05557400 0.00000000
vt 0.05557400 0.00000000
vt 0.10968300 0.31503100
vt 0.10968300 0.31503100
vt 0.10968300 0.31503100
vt 0.05557400 0.31503100
vt 0.05557400 0.31503100
vt 0.05557400 0.31503100
vt 0.10968300 0.15751500
vt 0.10968300 0.15751500
vt 0.05557400 0.15751500
vt 0.05557400 0.15751500
vt 0.16672200 0.00000000
vt 0.16672200 0.00000000
vt 0.16672200 0.00000000
vt 0.16672200 0.05410900
vt 0.16672200 0.05410900
vt 0.16672200 0.05410900
vt 0.61114800 0.00000000
vt 0.61114800 0.00000000
vt 0.61114800 0.00000000
vt 0.61114800 0.05410900
vt 0.61114800 0.05410900
vt 0.61114800 0.05410900
vt 0.27046200 0.00000000
vt 0.27046200 0.00000000
vt 0.37420300 0.00000000
vt 0.37420300 0.00000000
vt 0.37420300 0.00000000
vt 0.49267500 0.00000000
vt 0.49267500 0.00000000
vt 0.49267500 0.05410900
vt 0.49267500 0.05410900
vt 0.49267500 0.05410900
vt 0.37420300 0.05410900
vt 0.37420300 0.05410900
vt 0.37420300 0.05410900
vt 0.37420300 0.05410900
vt 0.27046200 0.05410900
vt 0.27046200 0.05410900
vt 0.27046200 0.05410900
vt 0.16525700 0.00000000
vt 0.16525700 0.00000000
vt 0.16525700 0.00000000
vt 0.11114800 0.00000000
vt 0.11114800 0.00000000
vt 0.11114800 0.00000000
vt 0.16525700 0.68156700
vt 0.16525700 0.68156700
vt 0.16525700 0.68156700
vt 0.11114800 0.68156700
vt 0.11114800 0.68156700
vt 0.11114800 0.68156700
vt 0.16525700 0.13631300
vt 0.16525700 0.13631300
vt 0.16525700 0.27262700
vt 0.16525700 0.27262700
vt 0.16525700 0.40894000
vt 0.16525700 0.40894000
vt 0.16525700 0.54525400
vt 0.16525700 0.54525400
vt 0.11114800 0.54525400
vt 0.11114800 0.54525400
vt 0.11114800 0.54525400
vt 0.11114800 0.40894000
vt 0.11114800 0.40894000
vt 0.11114800 0.40894000
vt 0.11114800 0.27262700
vt 0.11114800 0.27262700
vt 0.11114800 0.27262700
vt 0.11114800 0.13631300
vt 0.11114800 0.13631300
vt 0.11114800 0.13631300
vt 0.05410900 0.00000000
vt 0.05410900 0.00000000
vt 0.05410900 0.00000000
vt 0.00000000 0.00000000
vt 0.00000000 0.00000000
vt 0.00000000 0.00000000
vt 0.05410900 0.23694500
vt 0.05410900 0.23694500
vt 0.05410900 0.23694500
vt 0.00000000 0.23694500
vt 0.00000000 0.23694500
vt 0.00000000 0.23694500
vt 0.00000000 0.11847300
vt 0.00000000 0.11847300
vt 0.00000000 0.11847300
vt 0.05410900 0.11847300
vt 0.05410900 0.11847300
vt 0.16672200 0.05557400
vt 0.16672200 0.05557400
vt 0.16672200 0.05557400
vt 0.16672200 0.10968300
vt 0.16672200 0.10968300
vt 0.16672200 0.10968300
vt 0.61123200 0.05557400
vt 0.61123200 0.05557400
vt 0.61123200 0.05557400
vt 0.61123200 0.10968300
vt 0.61123200 0.10968300
vt 0.61123200 0.10968300
vt 0.31489200 0.05557400
vt 0.31489200 0.05557400
vt 0.46306200 0.05557400
vt 0.46306200 0.05557400
vt 0.46306200 0.10968300
vt 0.46306200 0.10968300
vt 0.31489200 0.10968300
vt 0.31489200 0.10968300
vt 0.16672200 0.99853500
vt 0.16672200 0.99853500
vt 0.16672200 0.99853500
vt 0.84682400 0.55557400
vt 0.84682400 0.55557400
vt 0.84682400 0.55557400
vt 0.40326900 0.79173800
vt 0.40326900 0.79173800
vt 0.40326900 0.79173800
vt 0.28499600 0.89513700
vt 0.28499600 0.89513700
vt 0.16672900 0.89513700
vt 0.16672900 0.89513700
vt 0.16673600 0.79173800
vt 0.16673600 0.79173800
vt 0.16673600 0.79173800
vt 0.16672900 0.67365600
vt 0.16672900 0.67365600
vt 0.16672200 0.55557400
vt 0.16672200 0.55557400
vt 0.16672200 0.55557400
vt 0.30274200 0.55557400
vt 0.30274200 0.55557400
vt 0.43876300 0.55557400
vt 0.43876300 0.55557400
vt 0.57478300 0.55557400
vt 0.57478300 0.55557400
vt 0.71080400 0.55557400
vt 0.71080400 0.55557400
vt 0.84682400 0.67365600
vt 0.84682400 0.67365600
vt 0.84682400 0.79173800
vt 0.84682400 0.79173800
vt 0.84682400 0.79173800
vt 0.69897300 0.79173800
vt 0.69897300 0.79173800
vt 0.55112100 0.79173800
vt 0.55112100 0.79173800
vt 0.16672200 0.55410900
vt 0.16672200 0.55410900
vt 0.16672200 0.55410900
vt 0.84682400 0.11114800
vt 0.84682400 0.11114800
vt 0.84682400 0.11114800
vt 0.40326900 0.34731200
vt 0.40326900 0.34731200
vt 0.40326900 0.34731200
vt 0.28499600 0.45071100
vt 0.28499600 0.45071100
vt 0.16672900 0.45071100
vt 0.16672900 0.45071100
vt 0.16673600 0.34731200
vt 0.16673600 0.34731200
vt 0.16672900 0.22923000
vt 0.16672900 0.22923000
vt 0.16672200 0.11114800
vt 0.16672200 0.11114800
vt 0.16672200 0.11114800
vt 0.30274200 0.11114800
vt 0.30274200 0.11114800
vt 0.43876300 0.11114800
vt 0.43876300 0.11114800
vt 0.57478300 0.11114800
vt 0.57478300 0.11114800
vt 0.71080400 0.11114800
vt 0.71080400 0.11114800
vt 0.84682400 0.22923000
vt 0.84682400 0.22923000
vt 0.84682400 0.34731200
vt 0.84682400 0.34731200
vt 0.84682400 0.34731200
vt 0.69897300 0.34731200
vt 0.69897300 0.34731200
vt 0.69897300 0.34731200
vt 0.55112100 0.34731200
vt 0.55112100 0.34731200
vt 0.55112100 0.34731200
f 1/1/1 14/14/14 16/16/16
f 11/11/11 16/16/16 14/14/14
f 30/30/30 43/43/43 22/22/22
f 43/43/43 30/30/30 32/32/32
f 25/25/25 27/27/27 37/37/37
f 35/35/35 37/37/37 41/41/41
f 59/59/59 75/75/75 51/51/51
f 60/60/60 72/72/72 75/75/75
f 72/72/72 60/60/60 62/62/62
f 64/64/64 68/68/68 70/70/70
f 54/54/54 56/56/56 68/68/68
f 81/81/81 80/80/80 93/93/93
f 85/85/85 88/88/88 92/92/92
f 97/97/97 107/107/107 113/113/113
f 111/111/111 113/113/113 107/107/107
f 101/101/101 106/106/106 111/111/111
f 136/136/136 134/134/134 132/132/132
f 136/136/136 132/132/132 123/123/123
f 129/129/129 124/124/124 132/132/132
f 124/124/124 127/127/127 116/116/116
f 129/129/129 127/127/127 124/124/124
f 124/124/124 123/123/123 132/132/132
f 123/123/123 138/138/138 136/136/136
f 152/152/152 141/141/141 138/138/138
f 145/145/145 118/118/118 142/142/142
f 150/150/150 142/142/142 141/141/141
f 150/150/150 141/141/141 152/152/152
f 150/150/150 148/148/148 145/145/145
f 150/150/150 145/145/145 142/142/142
f 123/123/123 152/152/152 138/138/138
f 174/174/174 168/168/168 172/172/172
f 174/174/174 161/161/161 168/168/168
f 166/166/166 168/168/168 163/163/163
f 163/163/163 154/154/154 164/164/164
f 166/166/166 163/163/163 164/164/164
f 163/163/163 168/168/168 161/161/161
f 161/161/161 174/174/174 176/176/176
f 189/189/189 176/176/176 177/177/177
f 181/181/181 180/180/180 156/156/156
f 188/188/188 177/177/177 180/180/180
f 188/188/188 189/189/189 177/177/177
f 188/188/188 181/181/181 184/184/184
f 188/188/188 180/180/180 181/181/181
f 161/161/161 176/176/176 189/189/189
f 1/1/1 16/16/16 5/5/5
f 11/11/11 14/14/14 7/7/7
f 30/30/30 22/22/22 19/19/19
f 43/43/43 32/32/32 39/39/39
f 25/25/25 37/37/37 35/35/35
f 35/35/35 41/41/41 33/33/33
f 59/59/59 51/51/51 47/47/47
f 60/60/60 75/75/75 59/59/59
f 72/72/72 62/62/62 70/70/70
f 64/64/64 70/70/70 62/62/62
f 54/54/54 68/68/68 64/64/64
f 81/81/81 93/93/93 92/92/92
f 85/85/85 92/92/92 93/93/93
f 97/97/97 113/113/113 98/98/98
f 111/111/111 107/107/107 110/110/110
f 101/101/101 111/111/111 110/110/110
f 193/193/193 207/207/207 204/204/204
f 202/202/202 204/204/204 207/207/207
f 221/221/221 211/211/211 236/236/236
f 236/236/236 223/223/223 221/221/221
f 214/214/214 229/229/229 218/218/218
f 225/225/225 233/233/233 229/229/229
f 250/250/250 240/240/240 268/268/268
f 251/251/251 268/268/268 263/263/263
f 263/263/263 253/253/253 251/251/251
f 255/255/255 261/261/261 258/258/258
f 244/244/244 258/258/258 247/247/247
f 274/274/274 285/285/285 271/271/271
f 276/276/276 281/281/281 278/278/278
f 286/286/286 304/304/304 299/299/299
f 303/303/303 299/299/299 304/304/304
f 293/293/293 303/303/303 297/297/297
f 328/328/328 323/323/323 324/324/324
f 328/328/328 312/312/312 323/323/323
f 319/319/319 323/323/323 316/316/316
f 316/316/316 308/308/308 317/317/317
f 319/319/319 316/316/316 317/317/317
f 316/316/316 323/323/323 312/312/312
f 312/312/312 328/328/328 329/329/329
f 343/343/343 329/329/329 332/332/332
f 336/336/336 334/334/334 310/310/310
f 341/341/341 332/332/332 334/334/334
f 341/341/341 343/343/343 332/332/332
f 341/341/341 336/336/336 337/337/337
f 341/341/341 334/334/334 336/336/336
f 312/312/312 329/329/329 343/343/343
f 365/365/365 362/362/362 359/359/359
f 365/365/365 359/359/359 352/352/352
f 358/358/358 354/354/354 359/359/359
f 354/354/354 356/356/356 346/346/346
f 358/358/358 356/356/356 354/354/354
f 354/354/354 352/352/352 359/359/359
f 352/352/352 366/366/366 365/365/365
f 382/382/382 368/368/368 366/366/366
f 373/373/373 348/348/348 371/371/371
f 377/377/377 371/371/371 368/368/368
f 377/377/377 368/368/368 382/382/382
f 377/377/377 375/375/375 373/373/373
f 377/377/377 373/373/373 371/371/371
f 352/352/352 382/382/382 366/366/366
f 193/193/193 195/195/195 207/207/207
f 202/202/202 198/198/198 204/204/204
f 221/221/221 208/208/208 211/211/211
f 236/236/236 232/232/232 223/223/223
f 214/214/214 225/225/225 229/229/229
f 225/225/225 224/224/224 233/233/233
f 250/250/250 238/238/238 240/240/240
f 251/251/251 250/250/250 268/268/268
f 263/263/263 261/261/261 253/253/253
f 255/255/255 253/253/253 261/261/261
f 244/244/244 255/255/255 258/258/258
f 274/274/274 281/281/281 285/285/285
f 276/276/276 285/285/285 281/281/281
f 286/286/286 289/289/289 304/304/304
f 303/303/303 300/300/300 299/299/299
f 293/293/293 300/300/300 303/303/303
f 125/125/125 115/115/115 307/307/307
f 307/307/307 315/315/315 125/125/125
f 10/10/10 9/9/9 199/199/199
f 199/199/199 201/201/201 10/10/10
f 13/13/13 3/3/3 192/192/192
f 192/192/192 205/205/205 13/13/13
f 2/2/2 4/4/4 196/196/196
f 196/196/196 194/194/194 2/2/2
f 18/18/18 21/21/21 212/212/212
f 212/212/212 210/210/210 18/18/18
f 165/165/165 153/153/153 344/344/344
f 344/344/344 355/355/355 165/165/165
f 28/28/28 24/24/24 215/215/215
f 215/215/215 217/217/217 28/28/28
f 31/31/31 29/29/29 220/220/220
f 220/220/220 222/222/222 31/31/31
f 23/23/23 34/34/34 226/226/226
f 226/226/226 216/216/216 23/23/23
f 50/50/50 76/76/76 267/267/267
f 267/267/267 241/241/241 50/50/50
f 67/67/67 57/57/57 248/248/248
f 248/248/248 259/259/259 67/67/67
f 55/55/55 52/52/52 243/243/243
f 243/243/243 246/246/246 55/55/55
f 61/61/61 58/58/58 249/249/249
f 249/249/249 252/252/252 61/61/61
f 63/63/63 61/61/61 252/252/252
f 252/252/252 254/254/254 63/63/63
f 65/65/65 63/63/63 254/254/254
f 254/254/254 256/256/256 65/65/65
f 78/78/78 83/83/83 272/272/272
f 272/272/272 270/270/270 78/78/78
f 89/89/89 86/86/86 277/277/277
f 277/277/277 279/279/279 89/89/89
f 6/6/6 15/15/15 206/206/206
f 206/206/206 197/197/197 6/6/6
f 95/95/95 100/100/100 291/291/291
f 291/291/291 287/287/287 95/95/95
f 105/105/105 102/102/102 294/294/294
f 294/294/294 296/296/296 105/105/105
f 108/108/108 96/96/96 288/288/288
f 288/288/288 298/298/298 108/108/108
f 109/109/109 108/108/108 298/298/298
f 298/298/298 301/301/301 109/109/109
f 131/131/131 133/133/133 325/325/325
f 325/325/325 322/322/322 131/131/131
f 15/15/15 12/12/12 203/203/203
f 203/203/203 206/206/206 15/15/15
f 139/139/139 140/140/140 331/331/331
f 331/331/331 330/330/330 139/139/139
f 143/143/143 119/119/119 309/309/309
f 309/309/309 333/333/333 143/143/143
f 144/144/144 147/147/147 339/339/339
f 339/339/339 335/335/335 144/144/144
f 117/117/117 126/126/126 318/318/318
f 318/318/318 306/306/306 117/117/117
f 169/169/169 167/167/167 357/357/357
f 357/357/357 360/360/360 169/169/169
f 155/155/155 162/162/162 353/353/353
f 353/353/353 345/345/345 155/155/155
f 71/71/71 66/66/66 257/257/257
f 257/257/257 260/260/260 71/71/71
f 170/170/170 169/169/169 360/360/360
f 360/360/360 363/363/363 170/170/170
f 173/173/173 171/171/171 361/361/361
f 361/361/361 364/364/364 173/173/173
f 121/121/121 125/125/125 315/315/315
f 315/315/315 313/313/313 121/121/121
f 178/178/178 175/175/175 367/367/367
f 367/367/367 369/369/369 178/178/178
f 157/157/157 179/179/179 370/370/370
f 370/370/370 349/349/349 157/157/157
f 182/182/182 158/158/158 347/347/347
f 347/347/347 372/372/372 182/182/182
f 183/183/183 182/182/182 372/372/372
f 372/372/372 374/374/374 183/183/183
f 74/74/74 69/69/69 262/262/262
f 262/262/262 265/265/265 74/74/74
f 160/160/160 191/191/191 381/381/381
f 381/381/381 350/350/350 160/160/160
f 114/114/114 112/112/112 302/302/302
f 302/302/302 305/305/305 114/114/114
f 77/77/77 73/73/73 264/264/264
f 264/264/264 266/266/266 77/77/77
f 126/126/126 128/128/128 320/320/320
f 320/320/320 318/318/318 126/126/126
f 175/175/175 173/173/173 364/364/364
f 364/364/364 367/367/367 175/175/175
f 29/29/29 17/17/17 209/209/209
f 209/209/209 220/220/220 29/29/29
f 120/120/120 144/144/144 335/335/335
f 335/335/335 311/311/311 120/120/120
f 130/130/130 131/131/131 322/322/322
f 322/322/322 321/321/321 130/130/130
f 162/162/162 159/159/159 351/351/351
f 351/351/351 353/353/353 162/162/162
f 53/53/53 65/65/65 256/256/256
f 256/256/256 245/245/245 53/53/53
f 179/179/179 178/178/178 369/369/369
f 369/369/369 370/370/370 179/179/179
f 151/151/151 122/122/122 314/314/314
f 314/314/314 342/342/342 151/151/151
f 190/190/190 187/187/187 379/379/379
f 379/379/379 380/380/380 190/190/190
f 20/20/20 45/45/45 234/234/234
f 234/234/234 213/213/213 20/20/20
f 94/94/94 79/79/79 269/269/269
f 269/269/269 284/284/284 94/94/94
f 38/38/38 26/26/26 219/219/219
f 219/219/219 228/228/228 38/38/38
f 8/8/8 13/13/13 205/205/205
f 205/205/205 200/200/200 8/8/8
f 103/103/103 109/109/109 301/301/301
f 301/301/301 292/292/292 103/103/103
f 137/137/137 139/139/139 330/330/330
f 330/330/330 327/327/327 137/137/137
f 34/34/34 31/31/31 222/222/222
f 222/222/222 226/226/226 34/34/34
f 84/84/84 94/94/94 284/284/284
f 284/284/284 275/275/275 84/84/84
f 90/90/90 87/87/87 280/280/280
f 280/280/280 282/282/282 90/90/90
f 135/135/135 137/137/137 327/327/327
f 327/327/327 326/326/326 135/135/135
f 186/186/186 185/185/185 376/376/376
f 376/376/376 378/378/378 186/186/186
f 140/140/140 143/143/143 333/333/333
f 333/333/333 331/331/331 140/140/140
f 40/40/40 36/36/36 227/227/227
f 227/227/227 231/231/231 40/40/40
f 167/167/167 165/165/165 355/355/355
f 355/355/355 357/357/357 167/167/167
f 44/44/44 42/42/42 230/230/230
f 230/230/230 235/235/235 44/44/44
f 82/82/82 91/91/91 283/283/283
f 283/283/283 273/273/273 82/82/82
f 146/146/146 149/149/149 340/340/340
f 340/340/340 338/338/338 146/146/146
f 48/48/48 49/49/49 242/242/242
f 242/242/242 239/239/239 48/48/48
f 149/149/149 151/151/151 342/342/342
f 342/342/342 340/340/340 149/149/149
f 58/58/58 46/46/46 237/237/237
f 237/237/237 249/249/249 58/58/58
f 99/99/99 114/114/114 305/305/305
f 305/305/305 290/290/290 99/99/99
f 112/112/112 104/104/104 295/295/295
f 295/295/295 302/302/302 112/112/112

