mtllib material.mtl
usemtl Material-7011油漆.011
v -0.01906500 -0.12493200 -0.06654500
v -0.01906500 -0.12493200 -0.06654500
v -0.01906500 -0.12493200 -0.06654500
v -0.01906500 -0.12563200 -0.06654500
v -0.01906500 -0.12563200 -0.06654500
v -0.01906500 -0.12563200 -0.06654500
v -0.02178300 -0.12493200 -0.06943500
v -0.02178300 -0.12493200 -0.06943500
v -0.02178300 -0.12493200 -0.06943500
v -0.02178300 -0.12563200 -0.06943500
v -0.02178300 -0.12563200 -0.06943500
v -0.02178300 -0.12563200 -0.06943500
v -0.02042400 -0.12493200 -0.06799000
v -0.02042400 -0.12493200 -0.06799000
v -0.02042400 -0.12563200 -0.06799000
v -0.02042400 -0.12563200 -0.06799000
v -0.02178300 -0.12493200 -0.06943500
v -0.02178300 -0.12493200 -0.06943500
v -0.02178300 -0.12493200 -0.06943500
v -0.02178300 -0.12563200 -0.06943500
v -0.02178300 -0.12563200 -0.06943500
v -0.02178300 -0.12563200 -0.06943500
v -0.01618700 -0.12493200 -0.06963700
v -0.01618700 -0.12493200 -0.06963700
v -0.01618700 -0.12493200 -0.06963700
v -0.01618700 -0.12563200 -0.06963700
v -0.01618700 -0.12563200 -0.06963700
v -0.01618700 -0.12563200 -0.06963700
v -0.02047700 -0.12493200 -0.06948200
v -0.02047700 -0.12493200 -0.06948200
v -0.01917200 -0.12493200 -0.06952900
v -0.01917200 -0.12493200 -0.06952900
v -0.01917200 -0.12493200 -0.06952900
v -0.01917200 -0.12493200 -0.06952900
v -0.01768000 -0.12493200 -0.06958300
v -0.01768000 -0.12493200 -0.06958300
v -0.01768000 -0.12493200 -0.06958300
v -0.01768000 -0.12563200 -0.06958300
v -0.01768000 -0.12563200 -0.06958300
v -0.01917200 -0.12563200 -0.06952900
v -0.01917200 -0.12563200 -0.06952900
v -0.01917200 -0.12563200 -0.06952900
v -0.01917200 -0.12563200 -0.06952900
v -0.01917200 -0.12563200 -0.06952900
v -0.02047700 -0.12563200 -0.06948200
v -0.02047700 -0.12563200 -0.06948200
v -0.01618700 -0.12493200 -0.06963700
v -0.01618700 -0.12493200 -0.06963700
v -0.01618700 -0.12493200 -0.06963700
v -0.01618700 -0.12563200 -0.06963700
v -0.01618700 -0.12563200 -0.06963700
v -0.01618700 -0.12563200 -0.06963700
v -0.01587800 -0.12493200 -0.06105700
v -0.01587800 -0.12493200 -0.06105700
v -0.01587800 -0.12493200 -0.06105700
v -0.01587800 -0.12563200 -0.06105700
v -0.01587800 -0.12563200 -0.06105700
v -0.01587800 -0.12563200 -0.06105700
v -0.01610900 -0.12493200 -0.06749200
v -0.01610900 -0.12493200 -0.06749200
v -0.01603200 -0.12493200 -0.06534700
v -0.01603200 -0.12493200 -0.06534700
v -0.01595500 -0.12493200 -0.06320200
v -0.01595500 -0.12493200 -0.06320200
v -0.01595500 -0.12563200 -0.06320200
v -0.01595500 -0.12563200 -0.06320200
v -0.01603200 -0.12563200 -0.06534700
v -0.01603200 -0.12563200 -0.06534700
v -0.01610900 -0.12563200 -0.06749200
v -0.01610900 -0.12563200 -0.06749200
v -0.01610900 -0.12563200 -0.06749200
v -0.01587800 -0.12493200 -0.06105700
v -0.01587800 -0.12493200 -0.06105700
v -0.01587800 -0.12493200 -0.06105700
v -0.01587800 -0.12563200 -0.06105700
v -0.01587800 -0.12563200 -0.06105700
v -0.01587800 -0.12563200 -0.06105700
v -0.01886300 -0.12493200 -0.06094900
v -0.01886300 -0.12493200 -0.06094900
v -0.01886300 -0.12493200 -0.06094900
v -0.01886300 -0.12563200 -0.06094900
v -0.01886300 -0.12563200 -0.06094900
v -0.01886300 -0.12563200 -0.06094900
v -0.01687300 -0.12493200 -0.06102100
v -0.01687300 -0.12493200 -0.06102100
v -0.01786800 -0.12493200 -0.06098500
v -0.01786800 -0.12493200 -0.06098500
v -0.01786800 -0.12563200 -0.06098500
v -0.01786800 -0.12563200 -0.06098500
v -0.01786800 -0.12563200 -0.06098500
v -0.01687300 -0.12563200 -0.06102100
v -0.01687300 -0.12563200 -0.06102100
v -0.01687300 -0.12563200 -0.06102100
v -0.01886300 -0.12493200 -0.06095000
v -0.01886300 -0.12493200 -0.06095000
v -0.01886300 -0.12493200 -0.06095000
v -0.01886300 -0.12563200 -0.06095000
v -0.01886300 -0.12563200 -0.06095000
v -0.01886300 -0.12563200 -0.06095000
v -0.01906500 -0.12493200 -0.06654500
v -0.01906500 -0.12493200 -0.06654500
v -0.01906500 -0.12493200 -0.06654500
v -0.01906500 -0.12563200 -0.06654500
v -0.01906500 -0.12563200 -0.06654500
v -0.01906500 -0.12563200 -0.06654500
v -0.01893100 -0.12493200 -0.06281500
v -0.01893100 -0.12493200 -0.06281500
v -0.01899800 -0.12493200 -0.06468000
v -0.01899800 -0.12493200 -0.06468000
v -0.01899800 -0.12563200 -0.06468000
v -0.01899800 -0.12563200 -0.06468000
v -0.01893100 -0.12563200 -0.06281500
v -0.01893100 -0.12563200 -0.06281500
v -0.02178300 -0.12493100 -0.06943500
v -0.02178300 -0.12493100 -0.06943500
v -0.02178300 -0.12493100 -0.06943500
v -0.01587800 -0.12493100 -0.06105700
v -0.01587800 -0.12493100 -0.06105700
v -0.01587800 -0.12493100 -0.06105700
v -0.01906400 -0.12493100 -0.06654500
v -0.01906400 -0.12493100 -0.06654500
v -0.01906400 -0.12493100 -0.06654500
v -0.02042400 -0.12493100 -0.06799000
v -0.02042400 -0.12493100 -0.06799000
v -0.01883000 -0.12493100 -0.06524600
v -0.02047700 -0.12493100 -0.06948200
v -0.02047700 -0.12493100 -0.06948200
v -0.01917200 -0.12493100 -0.06952900
v -0.01917200 -0.12493100 -0.06952900
v -0.01917200 -0.12493100 -0.06952900
v -0.01768000 -0.12493100 -0.06958300
v -0.01768000 -0.12493100 -0.06958300
v -0.01743200 -0.12493100 -0.06529600
v -0.01618700 -0.12493100 -0.06963700
v -0.01618700 -0.12493100 -0.06963700
v -0.01618700 -0.12493100 -0.06963700
v -0.01611000 -0.12493100 -0.06749200
v -0.01611000 -0.12493100 -0.06749200
v -0.01611000 -0.12493100 -0.06749200
v -0.01603300 -0.12493100 -0.06534700
v -0.01603300 -0.12493100 -0.06534700
v -0.01603300 -0.12493100 -0.06534700
v -0.01595500 -0.12493100 -0.06320200
v -0.01595500 -0.12493100 -0.06320200
v -0.01687300 -0.12493100 -0.06102100
v -0.01687300 -0.12493100 -0.06102100
v -0.01786800 -0.12493100 -0.06098600
v -0.01786800 -0.12493100 -0.06098600
v -0.01735400 -0.12493100 -0.06315200
v -0.01673200 -0.12493100 -0.06532200
v -0.01665500 -0.12493100 -0.06317700
v -0.01875300 -0.12493100 -0.06310100
v -0.01813100 -0.12493100 -0.06527100
v -0.01805400 -0.12493100 -0.06312600
v -0.01886300 -0.12493100 -0.06095000
v -0.01886300 -0.12493100 -0.06095000
v -0.01886300 -0.12493100 -0.06095000
v -0.01893000 -0.12493100 -0.06281500
v -0.01893000 -0.12493100 -0.06281500
v -0.01893000 -0.12493100 -0.06281500
v -0.01899700 -0.12493100 -0.06468000
v -0.01899700 -0.12493100 -0.06468000
v -0.02178300 -0.12563200 -0.06943500
v -0.02178300 -0.12563200 -0.06943500
v -0.02178300 -0.12563200 -0.06943500
v -0.01587800 -0.12563200 -0.06105700
v -0.01587800 -0.12563200 -0.06105700
v -0.01587800 -0.12563200 -0.06105700
v -0.01906400 -0.12563200 -0.06654500
v -0.01906400 -0.12563200 -0.06654500
v -0.01906400 -0.12563200 -0.06654500
v -0.02042400 -0.12563200 -0.06799000
v -0.02042400 -0.12563200 -0.06799000
v -0.01883000 -0.12563200 -0.06524600
v -0.02047700 -0.12563200 -0.06948200
v -0.02047700 -0.12563200 -0.06948200
v -0.01917200 -0.12563200 -0.06952900
v -0.01917200 -0.12563200 -0.06952900
v -0.01768000 -0.12563200 -0.06958300
v -0.01768000 -0.12563200 -0.06958300
v -0.01743200 -0.12563200 -0.06529600
v -0.01618700 -0.12563200 -0.06963700
v -0.01618700 -0.12563200 -0.06963700
v -0.01618700 -0.12563200 -0.06963700
v -0.01611000 -0.12563200 -0.06749200
v -0.01611000 -0.12563200 -0.06749200
v -0.01603300 -0.12563200 -0.06534700
v -0.01603300 -0.12563200 -0.06534700
v -0.01595500 -0.12563200 -0.06320200
v -0.01595500 -0.12563200 -0.06320200
v -0.01595500 -0.12563200 -0.06320200
v -0.01687300 -0.12563200 -0.06102100
v -0.01687300 -0.12563200 -0.06102100
v -0.01786800 -0.12563200 -0.06098600
v -0.01786800 -0.12563200 -0.06098600
v -0.01786800 -0.12563200 -0.06098600
v -0.01735400 -0.12563200 -0.06315200
v -0.01673200 -0.12563200 -0.06532200
v -0.01665500 -0.12563200 -0.06317700
v -0.01875300 -0.12563200 -0.06310100
v -0.01813100 -0.12563200 -0.06527100
v -0.01805400 -0.12563200 -0.06312600
v -0.01886300 -0.12563200 -0.06095000
v -0.01886300 -0.12563200 -0.06095000
v -0.01886300 -0.12563200 -0.06095000
v -0.01893000 -0.12563200 -0.06281500
v -0.01893000 -0.12563200 -0.06281500
v -0.01893000 -0.12563200 -0.06281500
v -0.01899700 -0.12563200 -0.06468000
v -0.01899700 -0.12563200 -0.06468000
v -0.01906400 -0.12493200 -0.06654600
v -0.01906400 -0.12493200 -0.06654600
v -0.01906400 -0.12493200 -0.06654600
v -0.01906400 -0.12563200 -0.06654600
v -0.01906400 -0.12563200 -0.06654600
v -0.01906400 -0.12563200 -0.06654600
v -0.02178200 -0.12493200 -0.06943500
v -0.02178200 -0.12493200 -0.06943500
v -0.02178200 -0.12493200 -0.06943500
v -0.02178200 -0.12563200 -0.06943500
v -0.02178200 -0.12563200 -0.06943500
v -0.02178200 -0.12563200 -0.06943500
v -0.02042300 -0.12493200 -0.06799100
v -0.02042300 -0.12493200 -0.06799100
v -0.02042300 -0.12563200 -0.06799100
v -0.02042300 -0.12563200 -0.06799100
v -0.02178300 -0.12493200 -0.06943400
v -0.02178300 -0.12493200 -0.06943400
v -0.02178300 -0.12493200 -0.06943400
v -0.02178300 -0.12563200 -0.06943400
v -0.02178300 -0.12563200 -0.06943400
v -0.02178300 -0.12563200 -0.06943400
v -0.01618700 -0.12493200 -0.06963600
v -0.01618700 -0.12493200 -0.06963600
v -0.01618700 -0.12493200 -0.06963600
v -0.01618700 -0.12493200 -0.06963600
v -0.01618700 -0.12563200 -0.06963600
v -0.01618700 -0.12563200 -0.06963600
v -0.01618700 -0.12563200 -0.06963600
v -0.02047700 -0.12493200 -0.06948100
v -0.02047700 -0.12493200 -0.06948100
v -0.01917200 -0.12493200 -0.06952800
v -0.01917200 -0.12493200 -0.06952800
v -0.01917200 -0.12493200 -0.06952800
v -0.01917200 -0.12493200 -0.06952800
v -0.01768000 -0.12493200 -0.06958200
v -0.01768000 -0.12493200 -0.06958200
v -0.01768000 -0.12493200 -0.06958200
v -0.01768000 -0.12563200 -0.06958200
v -0.01768000 -0.12563200 -0.06958200
v -0.01768000 -0.12563200 -0.06958200
v -0.01917200 -0.12563200 -0.06952800
v -0.01917200 -0.12563200 -0.06952800
v -0.01917200 -0.12563200 -0.06952800
v -0.01917200 -0.12563200 -0.06952800
v -0.02047700 -0.12563200 -0.06948100
v -0.02047700 -0.12563200 -0.06948100
v -0.01618800 -0.12493200 -0.06963700
v -0.01618800 -0.12493200 -0.06963700
v -0.01618800 -0.12493200 -0.06963700
v -0.01618800 -0.12563200 -0.06963700
v -0.01618800 -0.12563200 -0.06963700
v -0.01618800 -0.12563200 -0.06963700
v -0.01587900 -0.12493200 -0.06105700
v -0.01587900 -0.12493200 -0.06105700
v -0.01587900 -0.12493200 -0.06105700
v -0.01587900 -0.12563200 -0.06105700
v -0.01587900 -0.12563200 -0.06105700
v -0.01587900 -0.12563200 -0.06105700
v -0.01611000 -0.12493200 -0.06749200
v -0.01611000 -0.12493200 -0.06749200
v -0.01603300 -0.12493200 -0.06534700
v -0.01603300 -0.12493200 -0.06534700
v -0.01595600 -0.12493200 -0.06320200
v -0.01595600 -0.12493200 -0.06320200
v -0.01595600 -0.12563200 -0.06320200
v -0.01595600 -0.12563200 -0.06320200
v -0.01603300 -0.12563200 -0.06534700
v -0.01603300 -0.12563200 -0.06534700
v -0.01611000 -0.12563200 -0.06749200
v -0.01611000 -0.12563200 -0.06749200
v -0.01611000 -0.12563200 -0.06749200
v -0.01587800 -0.12493200 -0.06105800
v -0.01587800 -0.12493200 -0.06105800
v -0.01587800 -0.12493200 -0.06105800
v -0.01587800 -0.12563200 -0.06105800
v -0.01587800 -0.12563200 -0.06105800
v -0.01587800 -0.12563200 -0.06105800
v -0.01886300 -0.12493200 -0.06095000
v -0.01886300 -0.12493200 -0.06095000
v -0.01886300 -0.12493200 -0.06095000
v -0.01886300 -0.12563200 -0.06095000
v -0.01886300 -0.12563200 -0.06095000
v -0.01886300 -0.12563200 -0.06095000
v -0.01687300 -0.12493200 -0.06102200
v -0.01687300 -0.12493200 -0.06102200
v -0.01786800 -0.12493200 -0.06098600
v -0.01786800 -0.12493200 -0.06098600
v -0.01786800 -0.12563200 -0.06098600
v -0.01786800 -0.12563200 -0.06098600
v -0.01786800 -0.12563200 -0.06098600
v -0.01687300 -0.12563200 -0.06102200
v -0.01687300 -0.12563200 -0.06102200
v -0.01687300 -0.12563200 -0.06102200
v -0.01886200 -0.12493200 -0.06095000
v -0.01886200 -0.12493200 -0.06095000
v -0.01886200 -0.12493200 -0.06095000
v -0.01886200 -0.12563200 -0.06095000
v -0.01886200 -0.12563200 -0.06095000
v -0.01886200 -0.12563200 -0.06095000
v -0.01906400 -0.12493200 -0.06654500
v -0.01906400 -0.12493200 -0.06654500
v -0.01906400 -0.12493200 -0.06654500
v -0.01906400 -0.12563200 -0.06654500
v -0.01906400 -0.12563200 -0.06654500
v -0.01906400 -0.12563200 -0.06654500
v -0.01893000 -0.12493200 -0.06281500
v -0.01893000 -0.12493200 -0.06281500
v -0.01899700 -0.12493200 -0.06468000
v -0.01899700 -0.12493200 -0.06468000
v -0.01899700 -0.12563200 -0.06468000
v -0.01899700 -0.12563200 -0.06468000
v -0.01893000 -0.12563200 -0.06281500
v -0.01893000 -0.12563200 -0.06281500
v -0.02178300 -0.12493200 -0.06943500
v -0.02178300 -0.12493200 -0.06943500
v -0.02178300 -0.12493200 -0.06943500
v -0.01587800 -0.12493200 -0.06105700
v -0.01587800 -0.12493200 -0.06105700
v -0.01587800 -0.12493200 -0.06105700
v -0.01906400 -0.12493200 -0.06654500
v -0.01906400 -0.12493200 -0.06654500
v -0.01906400 -0.12493200 -0.06654500
v -0.02042400 -0.12493200 -0.06799000
v -0.02042400 -0.12493200 -0.06799000
v -0.01883000 -0.12493200 -0.06524600
v -0.02047700 -0.12493200 -0.06948200
v -0.02047700 -0.12493200 -0.06948200
v -0.01917200 -0.12493200 -0.06952900
v -0.01917200 -0.12493200 -0.06952900
v -0.01917200 -0.12493200 -0.06952900
v -0.01768000 -0.12493200 -0.06958300
v -0.01768000 -0.12493200 -0.06958300
v -0.01743200 -0.12493200 -0.06529600
v -0.01618700 -0.12493200 -0.06963700
v -0.01618700 -0.12493200 -0.06963700
v -0.01618700 -0.12493200 -0.06963700
v -0.01611000 -0.12493200 -0.06749200
v -0.01611000 -0.12493200 -0.06749200
v -0.01611000 -0.12493200 -0.06749200
v -0.01603300 -0.12493200 -0.06534700
v -0.01603300 -0.12493200 -0.06534700
v -0.01603300 -0.12493200 -0.06534700
v -0.01595500 -0.12493200 -0.06320200
v -0.01595500 -0.12493200 -0.06320200
v -0.01687300 -0.12493200 -0.06102100
v -0.01687300 -0.12493200 -0.06102100
v -0.01786800 -0.12493200 -0.06098600
v -0.01786800 -0.12493200 -0.06098600
v -0.01735400 -0.12493200 -0.06315200
v -0.01673200 -0.12493200 -0.06532200
v -0.01665500 -0.12493200 -0.06317700
v -0.01875300 -0.12493200 -0.06310100
v -0.01813100 -0.12493200 -0.06527100
v -0.01805400 -0.12493200 -0.06312600
v -0.01886300 -0.12493200 -0.06095000
v -0.01886300 -0.12493200 -0.06095000
v -0.01886300 -0.12493200 -0.06095000
v -0.01893000 -0.12493200 -0.06281500
v -0.01893000 -0.12493200 -0.06281500
v -0.01893000 -0.12493200 -0.06281500
v -0.01899700 -0.12493200 -0.06468000
v -0.01899700 -0.12493200 -0.06468000
v -0.02178300 -0.12563100 -0.06943500
v -0.02178300 -0.12563100 -0.06943500
v -0.02178300 -0.12563100 -0.06943500
v -0.01587800 -0.12563100 -0.06105700
v -0.01587800 -0.12563100 -0.06105700
v -0.01587800 -0.12563100 -0.06105700
v -0.01906400 -0.12563100 -0.06654500
v -0.01906400 -0.12563100 -0.06654500
v -0.01906400 -0.12563100 -0.06654500
v -0.02042400 -0.12563100 -0.06799000
v -0.02042400 -0.12563100 -0.06799000
v -0.01883000 -0.12563100 -0.06524600
v -0.02047700 -0.12563100 -0.06948200
v -0.02047700 -0.12563100 -0.06948200
v -0.01917200 -0.12563100 -0.06952900
v -0.01917200 -0.12563100 -0.06952900
v -0.01768000 -0.12563100 -0.06958300
v -0.01768000 -0.12563100 -0.06958300
v -0.01743200 -0.12563100 -0.06529600
v -0.01618700 -0.12563100 -0.06963700
v -0.01618700 -0.12563100 -0.06963700
v -0.01618700 -0.12563100 -0.06963700
v -0.01611000 -0.12563100 -0.06749200
v -0.01611000 -0.12563100 -0.06749200
v -0.01603300 -0.12563100 -0.06534700
v -0.01603300 -0.12563100 -0.06534700
v -0.01595500 -0.12563100 -0.06320200
v -0.01595500 -0.12563100 -0.06320200
v -0.01595500 -0.12563100 -0.06320200
v -0.01687300 -0.12563100 -0.06102100
v -0.01687300 -0.12563100 -0.06102100
v -0.01786800 -0.12563100 -0.06098600
v -0.01786800 -0.12563100 -0.06098600
v -0.01786800 -0.12563100 -0.06098600
v -0.01735400 -0.12563100 -0.06315200
v -0.01673200 -0.12563100 -0.06532200
v -0.01665500 -0.12563100 -0.06317700
v -0.01875300 -0.12563100 -0.06310100
v -0.01813100 -0.12563100 -0.06527100
v -0.01805400 -0.12563100 -0.06312600
v -0.01886300 -0.12563100 -0.06095000
v -0.01886300 -0.12563100 -0.06095000
v -0.01886300 -0.12563100 -0.06095000
v -0.01893000 -0.12563100 -0.06281500
v -0.01893000 -0.12563100 -0.06281500
v -0.01893000 -0.12563100 -0.06281500
v -0.01899700 -0.12563100 -0.06468000
v -0.01899700 -0.12563100 -0.06468000
vn 0.68570000 0.00000000 0.72790000
vn 0.00000000 1.00000000 0.00000000
vn -0.72840000 0.00000000 0.68520000
vn 0.68570000 0.00000000 0.72790000
vn 0.00000000 -1.00000000 0.00000000
vn -0.72840000 0.00000000 0.68520000
vn -0.72840000 0.00000000 0.68520000
vn -0.68570000 0.00000000 -0.72790000
vn 0.00000000 1.00000000 0.00000000
vn -0.72840000 0.00000000 0.68520000
vn -0.68570000 0.00000000 -0.72790000
vn 0.00000000 -1.00000000 0.00000000
vn -0.72840000 0.00000000 0.68520000
vn 0.00000000 1.00000000 0.00000000
vn -0.72840000 0.00000000 0.68520000
vn 0.00000000 -1.00000000 0.00000000
vn 0.00000000 1.00000000 0.00000000
vn -0.99940000 0.00000000 0.03360000
vn -0.03590000 0.00000000 -0.99940000
vn -0.03590000 0.00000000 -0.99940000
vn -0.99940000 0.00000000 0.03360000
vn 0.00000000 -1.00000000 0.00000000
vn 0.99940000 0.00000000 -0.03360000
vn 0.00000000 1.00000000 0.00000000
vn -0.03610000 0.00000000 -0.99930000
vn -0.03610000 0.00000000 -0.99930000
vn 0.99940000 0.00000000 -0.03360000
vn 0.00000000 -1.00000000 0.00000000
vn -0.03590000 0.00000000 -0.99940000
vn 0.00000000 1.00000000 0.00000000
vn 0.00000000 1.00000000 0.00030000
vn -0.03600000 0.00000000 -0.99940000
vn 0.00000000 1.00000000 0.00000000
vn -0.03630000 0.00000000 -0.99930000
vn -0.03610000 0.00000000 -0.99930000
vn -0.03600000 0.00000000 -0.99940000
vn 0.00000000 1.00000000 0.00000000
vn 0.00000000 -1.00000000 0.00000000
vn -0.03610000 0.00000000 -0.99930000
vn -0.03610000 0.00000000 -0.99930000
vn 0.00000000 -1.00000000 0.00000000
vn -0.03630000 0.00000000 -0.99930000
vn -0.03600000 0.00000000 -0.99940000
vn -0.03590000 0.00000000 -0.99940000
vn -0.03590000 0.00000000 -0.99940000
vn 0.00000000 -1.00000000 0.00000000
vn 0.00000000 1.00000000 0.00000000
vn 0.99940000 0.00000000 -0.03600000
vn -0.02600000 0.00000000 -0.99970000
vn 0.00000000 -1.00000000 0.00040000
vn -0.02600000 0.00000000 -0.99970000
vn 0.99940000 0.00000000 -0.03600000
vn 0.04150000 0.00000000 0.99910000
vn 0.99940000 0.00000000 -0.03600000
vn 0.00000000 1.00000000 0.00000000
vn 0.99940000 0.00000000 -0.03600000
vn 0.04150000 0.00000000 0.99910000
vn 0.00000000 -1.00000000 0.00000000
vn 0.00000000 1.00000000 0.00000000
vn 0.99940000 0.00000000 -0.03600000
vn 0.99940000 0.00000000 -0.03600000
vn 0.00000000 1.00000000 0.00000000
vn 0.99940000 0.00000000 -0.03600000
vn 0.00000000 1.00000000 0.00000000
vn 0.99940000 0.00000000 -0.03600000
vn 0.00000000 -1.00000000 0.00000000
vn 0.99940000 0.00000000 -0.03600000
vn 0.00000000 -1.00000000 0.00000000
vn 0.00000000 -1.00000000 0.00040000
vn 0.99940000 0.00000000 -0.03600000
vn 0.00000000 -1.00000000 0.00000000
vn 0.00000000 1.00000000 0.00000000
vn 0.03600000 0.00000000 0.99940000
vn 0.99940000 0.00000000 -0.03530000
vn 0.00000000 -0.99990000 0.01460000
vn 0.99940000 0.00000000 -0.03530000
vn 0.03600000 0.00000000 0.99940000
vn 0.03600000 0.00000000 0.99940000
vn -0.99940000 0.00000000 0.03540000
vn 0.00000000 1.00000000 0.00000000
vn -0.99940000 0.00000000 0.03540000
vn 0.03600000 0.00000000 0.99940000
vn 0.00000000 -1.00000000 0.00000000
vn 0.00000000 1.00000000 0.00000000
vn 0.03600000 0.00000000 0.99940000
vn 0.00000000 1.00000000 0.00000000
vn 0.03600000 0.00000000 0.99940000
vn 0.00000000 -0.99990000 -0.01460000
vn 0.03600000 0.00000000 0.99940000
vn 0.00000000 -1.00000000 0.00000000
vn 0.03600000 0.00000000 0.99940000
vn 0.00000000 -0.99990000 -0.01460000
vn 0.00000000 -0.99990000 0.01460000
vn 0.00000000 1.00000000 0.00000000
vn 0.03630000 0.00000000 0.99930000
vn -0.99940000 0.00000000 0.03600000
vn -0.99940000 0.00000000 0.03600000
vn 0.00000000 -1.00000000 0.00000000
vn 0.03630000 0.00000000 0.99930000
vn -0.99940000 0.00000000 0.03600000
vn -0.02600000 0.00000000 -0.99970000
vn 0.00000000 1.00000000 0.00000000
vn -0.02600000 0.00000000 -0.99970000
vn 0.00000000 -1.00000000 0.00000000
vn -0.99940000 0.00000000 0.03600000
vn -0.99940000 0.00000000 0.03600000
vn 0.00000000 1.00000000 0.00000000
vn 0.00000000 1.00000000 0.00000000
vn -0.99940000 0.00000000 0.03600000
vn -0.99940000 0.00000000 0.03600000
vn 0.00000000 -1.00000000 0.00000000
vn -0.99940000 0.00000000 0.03600000
vn 0.00000000 -1.00000000 0.00000000
vn -0.03600000 0.00000000 -0.99940000
vn -0.72820000 0.00000000 0.68540000
vn 0.00000000 1.00000000 0.00000000
vn 0.99930000 0.00000000 -0.03620000
vn 0.00000000 1.00000000 0.00000000
vn 0.03590000 0.00000000 0.99940000
vn -0.72820000 0.00000000 0.68540000
vn 0.00000000 1.00000000 0.00000000
vn -0.99940000 0.00000000 0.03590000
vn 0.00000000 1.00000000 0.00000000
vn -0.72820000 0.00000000 0.68540000
vn 0.00000000 1.00000000 0.00000000
vn 0.00000000 1.00000000 0.00000000
vn -0.03600000 0.00000000 -0.99940000
vn 0.00000000 1.00000000 0.00000000
vn -0.03580000 0.00000000 -0.99940000
vn -0.03600000 0.00000000 -0.99940000
vn -0.03580000 0.00000000 -0.99940000
vn 0.00000000 1.00000000 0.00000000
vn 0.00000000 1.00000000 0.00000000
vn 0.99930000 0.00000000 -0.03620000
vn 0.00000000 1.00000000 0.00000000
vn -0.03580000 0.00000000 -0.99940000
vn 0.00000000 1.00000000 0.00000000
vn 0.99940000 0.00000000 -0.03580000
vn 0.99930000 0.00000000 -0.03620000
vn 0.99930000 0.00000000 -0.03620000
vn 0.99940000 0.00000000 -0.03580000
vn 0.00000000 1.00000000 0.00000000
vn 0.99930000 0.00000000 -0.03620000
vn 0.00000000 1.00000000 0.00000000
vn 0.00000000 1.00000000 0.00000000
vn 0.03590000 0.00000000 0.99940000
vn 0.00000000 1.00000000 0.00000000
vn 0.03590000 0.00000000 0.99940000
vn 0.00000000 1.00000000 0.00000000
vn 0.00000000 1.00000000 0.00000000
vn 0.00000000 1.00000000 0.00000000
vn 0.00000000 1.00000000 0.00000000
vn 0.00000000 1.00000000 0.00000000
vn 0.00000000 1.00000000 0.00000000
vn 0.03590000 0.00000000 0.99940000
vn 0.00000000 1.00000000 0.00000000
vn -0.99930000 0.00000000 0.03630000
vn -0.99940000 0.00000000 0.03590000
vn 0.00000000 1.00000000 0.00000000
vn -0.99930000 0.00000000 0.03630000
vn 0.00000000 1.00000000 0.00000000
vn -0.99940000 0.00000000 0.03590000
vn -0.03580000 0.00000000 -0.99940000
vn -0.72930000 0.00000000 0.68420000
vn 0.00000000 -1.00000000 0.00000000
vn 0.99940000 0.00000000 -0.03570000
vn 0.03610000 0.00000000 0.99930000
vn 0.00000000 -1.00000000 0.00000000
vn -0.99940000 0.00000000 0.03560000
vn 0.00000000 -1.00000000 0.00000000
vn -0.72930000 0.00000000 0.68420000
vn 0.00000000 -1.00000000 0.00000000
vn -0.72930000 0.00000000 0.68420000
vn 0.00000000 -1.00000000 0.00000000
vn 0.00000000 -1.00000000 0.00000000
vn -0.03580000 0.00000000 -0.99940000
vn -0.03580000 0.00000000 -0.99940000
vn 0.00000000 -1.00000000 0.00000000
vn 0.00000000 -1.00000000 0.00000000
vn -0.03580000 0.00000000 -0.99940000
vn 0.00000000 -1.00000000 0.00000000
vn 0.00000000 -1.00000000 0.00000000
vn -0.03580000 0.00000000 -0.99940000
vn 0.99930000 0.00000000 -0.03610000
vn 0.99930000 0.00000000 -0.03610000
vn 0.00000000 -1.00000000 0.00000000
vn 0.00000000 -1.00000000 0.00000000
vn 0.99930000 0.00000000 -0.03610000
vn 0.00000000 -1.00000000 0.00000000
vn 0.99930000 0.00000000 -0.03610000
vn 0.99940000 0.00000000 -0.03570000
vn 0.03610000 0.00000000 0.99930000
vn 0.00000000 -1.00000000 0.00000000
vn 0.03560000 0.00000000 0.99940000
vn 0.00000000 -1.00000000 0.00000000
vn 0.03610000 0.00000000 0.99930000
vn 0.00000000 -1.00000000 0.00000000
vn 0.00000000 -1.00000000 0.00000000
vn 0.00000000 -1.00000000 0.00000000
vn 0.00000000 -1.00000000 0.00000000
vn 0.00000000 -1.00000000 0.00000000
vn 0.00000000 -1.00000000 0.00000000
vn 0.03560000 0.00000000 0.99940000
vn 0.00000000 -1.00000000 0.00000000
vn -0.99930000 0.00000000 0.03610000
vn -0.99930000 0.00000000 0.03610000
vn 0.00000000 -1.00000000 0.00000000
vn -0.99940000 0.00000000 0.03560000
vn -0.99940000 0.00000000 0.03560000
vn 0.00000000 -1.00000000 0.00000000
vn 0.68570000 0.00000000 0.72790000
vn 0.00000000 1.00000000 0.00000000
vn 0.72840000 0.00000000 -0.68520000
vn 0.68570000 0.00000000 0.72790000
vn 0.72840000 0.00000000 -0.68520000
vn 0.00000000 -1.00000000 0.00000000
vn 0.72840000 0.00000000 -0.68520000
vn 0.00000000 1.00000000 0.00000000
vn -0.68570000 0.00000000 -0.72790000
vn -0.68570000 0.00000000 -0.72790000
vn 0.72840000 0.00000000 -0.68520000
vn 0.00000000 -1.00000000 0.00000000
vn 0.72840000 0.00000000 -0.68520000
vn 0.00000000 1.00000000 0.00000000
vn 0.00000000 -1.00000000 0.00000000
vn 0.72840000 0.00000000 -0.68520000
vn 0.00000000 1.00000000 0.00000000
vn 0.03590000 0.00000000 0.99940000
vn -0.99940000 0.00000000 0.03360000
vn -0.99940000 0.00000000 0.03360000
vn 0.00000000 -1.00000000 0.00000000
vn 0.03590000 0.00000000 0.99940000
vn 0.00000000 1.00000000 0.00000000
vn 0.03610000 0.00000000 0.99930000
vn 0.99940000 0.00000000 -0.03360000
vn 0.03600000 0.00000000 0.99940000
vn 0.00000000 -1.00000000 0.00000000
vn 0.03610000 0.00000000 0.99930000
vn 0.99940000 0.00000000 -0.03360000
vn 0.03590000 0.00000000 0.99940000
vn 0.00000000 1.00000000 0.00000000
vn 0.03590000 -0.00030000 0.99940000
vn 0.03610000 0.00000000 0.99930000
vn 0.00000000 1.00000000 0.00000000
vn -0.00030000 1.00000000 0.00000000
vn 0.03600000 0.00000000 0.99940000
vn 0.00000000 1.00000000 0.00000000
vn 0.03610000 0.00000000 0.99930000
vn 0.03610000 0.00000000 0.99930000
vn 0.00000000 -1.00000000 0.00000000
vn 0.03600000 0.00000000 0.99940000
vn 0.03610000 0.00000000 0.99930000
vn 0.00000000 -1.00000000 0.00000000
vn 0.03590000 0.00000000 0.99940000
vn 0.03610000 0.00030000 0.99930000
vn 0.03590000 0.00000000 0.99940000
vn 0.00000000 -1.00000000 0.00000000
vn 0.00000000 1.00000000 0.00000000
vn -0.02600000 0.00000000 -0.99970000
vn -0.99940000 0.00000000 0.03600000
vn -0.99940000 0.00000000 0.03600000
vn 0.00000000 -1.00000000 0.00040000
vn -0.02600000 0.00000000 -0.99970000
vn -0.99940000 0.00000000 0.03600000
vn 0.04150000 0.00000000 0.99910000
vn 0.00000000 1.00000000 0.00000000
vn 0.00000000 -1.00000000 0.00000000
vn 0.04150000 0.00000000 0.99910000
vn -0.99940000 0.00000000 0.03600000
vn 0.00000000 1.00000000 0.00000000
vn -0.99940000 0.00000000 0.03600000
vn -0.99940000 0.00000000 0.03600000
vn 0.00000000 1.00000000 0.00000000
vn -0.99940000 0.00000000 0.03600000
vn 0.00000000 1.00000000 0.00000000
vn 0.00000000 -1.00000000 0.00000000
vn -0.99940000 0.00000000 0.03600000
vn 0.00000000 -1.00000000 0.00000000
vn -0.99940000 0.00000000 0.03600000
vn 0.00000000 -1.00000000 0.00000000
vn -0.99940000 0.00000000 0.03600000
vn 0.00000000 -1.00000000 0.00040000
vn -0.03600000 0.00000000 -0.99940000
vn 0.99940000 0.00000000 -0.03530000
vn 0.00000000 1.00000000 0.00000000
vn 0.00000000 -0.99990000 0.01460000
vn -0.03600000 0.00000000 -0.99940000
vn 0.99940000 0.00000000 -0.03530000
vn -0.99940000 0.00000000 0.03540000
vn 0.00000000 1.00000000 0.00000000
vn -0.03600000 0.00000000 -0.99940000
vn -0.99940000 0.00000000 0.03540000
vn -0.03600000 0.00000000 -0.99940000
vn 0.00000000 -1.00000000 0.00000000
vn -0.03600000 0.00000000 -0.99940000
vn 0.00000000 1.00000000 0.00000000
vn 0.00000000 1.00000000 0.00000000
vn -0.03600000 0.00000000 -0.99940000
vn 0.00000000 -0.99990000 -0.01460000
vn 0.00000000 -1.00000000 0.00000000
vn -0.03600000 0.00000000 -0.99940000
vn -0.03600000 0.00000000 -0.99940000
vn 0.00000000 -0.99990000 0.01460000
vn 0.00000000 -0.99990000 -0.01460000
vn 0.03630000 0.00000000 0.99930000
vn 0.99940000 0.00000000 -0.03600000
vn 0.00000000 1.00000000 0.00000000
vn 0.00000000 -1.00000000 0.00000000
vn 0.99940000 0.00000000 -0.03600000
vn 0.03630000 0.00000000 0.99930000
vn -0.02600000 0.00000000 -0.99970000
vn 0.99940000 0.00000000 -0.03600000
vn 0.00000000 1.00000000 0.00000000
vn -0.02600000 0.00000000 -0.99970000
vn 0.00000000 -1.00000000 0.00000000
vn 0.99940000 0.00000000 -0.03600000
vn 0.99940000 0.00000000 -0.03600000
vn 0.00000000 1.00000000 0.00000000
vn 0.99940000 0.00000000 -0.03600000
vn 0.00000000 1.00000000 0.00000000
vn 0.99940000 0.00000000 -0.03600000
vn 0.00000000 -1.00000000 0.00000000
vn 0.99940000 0.00000000 -0.03600000
vn 0.00000000 -1.00000000 0.00000000
vn 0.00000000 -1.00000000 0.00000000
vn -0.03600000 0.00000000 -0.99940000
vn -0.72820000 0.00000000 0.68540000
vn 0.99930000 0.00000000 -0.03620000
vn 0.03590000 0.00000000 0.99940000
vn 0.00000000 -1.00000000 0.00000000
vn -0.72820000 0.00000000 0.68540000
vn -0.99940000 0.00000000 0.03590000
vn 0.00000000 -1.00000000 0.00000000
vn -0.72820000 0.00000000 0.68540000
vn 0.00000000 -1.00000000 0.00000000
vn 0.00000000 -1.00000000 0.00000000
vn -0.03600000 0.00000000 -0.99940000
vn 0.00000000 -1.00000000 0.00000000
vn -0.03600000 0.00000000 -0.99940000
vn 0.00000000 -1.00000000 0.00000000
vn -0.03580000 0.00000000 -0.99940000
vn -0.03580000 0.00000000 -0.99940000
vn 0.00000000 -1.00000000 0.00000000
vn 0.00000000 -1.00000000 0.00000000
vn 0.00000000 -1.00000000 0.00000000
vn 0.99930000 0.00000000 -0.03620000
vn -0.03580000 0.00000000 -0.99940000
vn 0.99940000 0.00000000 -0.03580000
vn 0.99930000 0.00000000 -0.03620000
vn 0.00000000 -1.00000000 0.00000000
vn 0.99930000 0.00000000 -0.03620000
vn 0.00000000 -1.00000000 0.00000000
vn 0.99940000 0.00000000 -0.03580000
vn 0.00000000 -1.00000000 0.00000000
vn 0.99930000 0.00000000 -0.03620000
vn 0.00000000 -1.00000000 0.00000000
vn 0.03590000 0.00000000 0.99940000
vn 0.03590000 0.00000000 0.99940000
vn 0.00000000 -1.00000000 0.00000000
vn 0.00000000 -1.00000000 0.00000000
vn 0.00000000 -1.00000000 0.00000000
vn 0.00000000 -1.00000000 0.00000000
vn 0.00000000 -1.00000000 0.00000000
vn 0.00000000 -1.00000000 0.00000000
vn 0.00000000 -1.00000000 0.00000000
vn 0.03590000 0.00000000 0.99940000
vn 0.00000000 -1.00000000 0.00000000
vn -0.99930000 0.00000000 0.03630000
vn 0.00000000 -1.00000000 0.00000000
vn -0.99930000 0.00000000 0.03630000
vn -0.99940000 0.00000000 0.03590000
vn 0.00000000 -1.00000000 0.00000000
vn -0.99940000 0.00000000 0.03590000
vn -0.03580000 0.00000000 -0.99940000
vn -0.72930000 0.00000000 0.68420000
vn 0.00000000 1.00000000 0.00000000
vn 0.99940000 0.00000000 -0.03570000
vn 0.03610000 0.00000000 0.99930000
vn 0.00000000 1.00000000 0.00000000
vn -0.72930000 0.00000000 0.68420000
vn 0.00000000 1.00000000 0.00000000
vn -0.99940000 0.00000000 0.03560000
vn -0.72930000 0.00000000 0.68420000
vn 0.00000000 1.00000000 0.00000000
vn 0.00000000 1.00000000 0.00000000
vn -0.03580000 0.00000000 -0.99940000
vn 0.00000000 1.00000000 0.00000000
vn 0.00000000 1.00000000 0.00000000
vn -0.03580000 0.00000000 -0.99940000
vn -0.03580000 0.00000000 -0.99940000
vn 0.00000000 1.00000000 0.00000000
vn 0.00000000 1.00000000 0.00000000
vn -0.03580000 0.00000000 -0.99940000
vn 0.99930000 0.00000000 -0.03610000
vn 0.00000000 1.00000000 0.00000000
vn 0.99930000 0.00000000 -0.03610000
vn 0.00000000 1.00000000 0.00000000
vn 0.99930000 0.00000000 -0.03610000
vn 0.00000000 1.00000000 0.00000000
vn 0.99940000 0.00000000 -0.03570000
vn 0.99930000 0.00000000 -0.03610000
vn 0.00000000 1.00000000 0.00000000
vn 0.03610000 0.00000000 0.99930000
vn 0.00000000 1.00000000 0.00000000
vn 0.00000000 1.00000000 0.00000000
vn 0.03560000 0.00000000 0.99940000
vn 0.03610000 0.00000000 0.99930000
vn 0.00000000 1.00000000 0.00000000
vn 0.00000000 1.00000000 0.00000000
vn 0.00000000 1.00000000 0.00000000
vn 0.00000000 1.00000000 0.00000000
vn 0.00000000 1.00000000 0.00000000
vn 0.00000000 1.00000000 0.00000000
vn 0.00000000 1.00000000 0.00000000
vn 0.03560000 0.00000000 0.99940000
vn -0.99930000 0.00000000 0.03610000
vn 0.00000000 1.00000000 0.00000000
vn -0.99940000 0.00000000 0.03560000
vn -0.99930000 0.00000000 0.03610000
vn -0.99940000 0.00000000 0.03560000
vn 0.00000000 1.00000000 0.00000000
vt 0.10966400 0.00000000
vt 0.10966400 0.00000000
vt 0.10966400 0.00000000
vt 0.05556500 0.00000000
vt 0.05556500 0.00000000
vt 0.05556500 0.00000000
vt 0.10966400 0.31490200
vt 0.10966400 0.31490200
vt 0.10966400 0.31490200
vt 0.05556500 0.31490200
vt 0.05556500 0.31490200
vt 0.05556500 0.31490200
vt 0.10966400 0.15745100
vt 0.10966400 0.15745100
vt 0.05556500 0.15745100
vt 0.05556500 0.15745100
vt 0.16669400 0.00000000
vt 0.16669400 0.00000000
vt 0.16669400 0.00000000
vt 0.16669400 0.05410000
vt 0.16669400 0.05410000
vt 0.16669400 0.05410000
vt 0.61112900 0.00000000
vt 0.61112900 0.00000000
vt 0.61112900 0.00000000
vt 0.61112900 0.05410000
vt 0.61112900 0.05410000
vt 0.61112900 0.05410000
vt 0.27037500 0.00000000
vt 0.27037500 0.00000000
vt 0.37405600 0.00000000
vt 0.37405600 0.00000000
vt 0.37405600 0.00000000
vt 0.37405600 0.00000000
vt 0.49259300 0.00000000
vt 0.49259300 0.00000000
vt 0.49259300 0.00000000
vt 0.49259300 0.05410000
vt 0.49259300 0.05410000
vt 0.37405600 0.05410000
vt 0.37405600 0.05410000
vt 0.37405600 0.05410000
vt 0.37405600 0.05410000
vt 0.37405600 0.05410000
vt 0.27037500 0.05410000
vt 0.27037500 0.05410000
vt 0.16522900 0.00000000
vt 0.16522900 0.00000000
vt 0.16522900 0.00000000
vt 0.11112900 0.00000000
vt 0.11112900 0.00000000
vt 0.11112900 0.00000000
vt 0.16522900 0.68145300
vt 0.16522900 0.68145300
vt 0.16522900 0.68145300
vt 0.11112900 0.68145300
vt 0.11112900 0.68145300
vt 0.11112900 0.68145300
vt 0.16522900 0.17036300
vt 0.16522900 0.17036300
vt 0.16522900 0.34072600
vt 0.16522900 0.34072600
vt 0.16522900 0.51108900
vt 0.16522900 0.51108900
vt 0.11112900 0.51108900
vt 0.11112900 0.51108900
vt 0.11112900 0.34072600
vt 0.11112900 0.34072600
vt 0.11112900 0.17036300
vt 0.11112900 0.17036300
vt 0.11112900 0.17036300
vt 0.05410000 0.00000000
vt 0.05410000 0.00000000
vt 0.05410000 0.00000000
vt 0.00000000 0.00000000
vt 0.00000000 0.00000000
vt 0.00000000 0.00000000
vt 0.05410000 0.23707300
vt 0.05410000 0.23707300
vt 0.05410000 0.23707300
vt 0.00000000 0.23707300
vt 0.00000000 0.23707300
vt 0.00000000 0.23707300
vt 0.05410000 0.07902400
vt 0.05410000 0.07902400
vt 0.05410000 0.15804900
vt 0.05410000 0.15804900
vt 0.00000000 0.15804900
vt 0.00000000 0.15804900
vt 0.00000000 0.15804900
vt 0.00000000 0.07902400
vt 0.00000000 0.07902400
vt 0.00000000 0.07902400
vt 0.16669400 0.05556500
vt 0.16669400 0.05556500
vt 0.16669400 0.05556500
vt 0.16669400 0.10966400
vt 0.16669400 0.10966400
vt 0.16669400 0.10966400
vt 0.61115700 0.05556500
vt 0.61115700 0.05556500
vt 0.61115700 0.05556500
vt 0.61115700 0.10966400
vt 0.61115700 0.10966400
vt 0.61115700 0.10966400
vt 0.31484800 0.05556500
vt 0.31484800 0.05556500
vt 0.46300300 0.05556500
vt 0.46300300 0.05556500
vt 0.46300300 0.10966400
vt 0.46300300 0.10966400
vt 0.31484800 0.10966400
vt 0.31484800 0.10966400
vt 0.16669400 0.99853500
vt 0.16669400 0.99853500
vt 0.16669400 0.99853500
vt 0.84668200 0.55556500
vt 0.84668200 0.55556500
vt 0.84668200 0.55556500
vt 0.40317400 0.79185700
vt 0.40317400 0.79185700
vt 0.40317400 0.79185700
vt 0.28493400 0.89519600
vt 0.28493400 0.89519600
vt 0.50668800 0.77705000
vt 0.16670100 0.89519600
vt 0.16670100 0.89519600
vt 0.16670800 0.79185700
vt 0.16670800 0.79185700
vt 0.16670800 0.79185700
vt 0.16670100 0.67371100
vt 0.16670100 0.67371100
vt 0.50668800 0.66630700
vt 0.16669400 0.55556500
vt 0.16669400 0.55556500
vt 0.16669400 0.55556500
vt 0.33669100 0.55556500
vt 0.33669100 0.55556500
vt 0.33669100 0.55556500
vt 0.50668800 0.55556500
vt 0.50668800 0.55556500
vt 0.50668800 0.55556500
vt 0.67668500 0.55556500
vt 0.67668500 0.55556500
vt 0.84668200 0.63432900
vt 0.84668200 0.63432900
vt 0.84668200 0.71309300
vt 0.84668200 0.71309300
vt 0.67668500 0.66630700
vt 0.50668800 0.61093600
vt 0.67668500 0.61093600
vt 0.67668500 0.77705000
vt 0.50668800 0.72167900
vt 0.67668500 0.72167900
vt 0.84668200 0.79185700
vt 0.84668200 0.79185700
vt 0.84668200 0.79185700
vt 0.69884600 0.79185700
vt 0.69884600 0.79185700
vt 0.69884600 0.79185700
vt 0.55101000 0.79185700
vt 0.55101000 0.79185700
vt 0.16669400 0.55410000
vt 0.16669400 0.55410000
vt 0.16669400 0.55410000
vt 0.84668200 0.11112900
vt 0.84668200 0.11112900
vt 0.84668200 0.11112900
vt 0.40317400 0.34742100
vt 0.40317400 0.34742100
vt 0.40317400 0.34742100
vt 0.28493400 0.45076000
vt 0.28493400 0.45076000
vt 0.50668800 0.33261500
vt 0.16670100 0.45076000
vt 0.16670100 0.45076000
vt 0.16670800 0.34742100
vt 0.16670800 0.34742100
vt 0.16670100 0.22927500
vt 0.16670100 0.22927500
vt 0.50668800 0.22187200
vt 0.16669400 0.11112900
vt 0.16669400 0.11112900
vt 0.16669400 0.11112900
vt 0.33669100 0.11112900
vt 0.33669100 0.11112900
vt 0.50668800 0.11112900
vt 0.50668800 0.11112900
vt 0.67668500 0.11112900
vt 0.67668500 0.11112900
vt 0.67668500 0.11112900
vt 0.84668200 0.18989300
vt 0.84668200 0.18989300
vt 0.84668200 0.26865700
vt 0.84668200 0.26865700
vt 0.84668200 0.26865700
vt 0.67668500 0.22187200
vt 0.50668800 0.16650100
vt 0.67668500 0.16650100
vt 0.67668500 0.33261500
vt 0.50668800 0.27724300
vt 0.67668500 0.27724300
vt 0.84668200 0.34742100
vt 0.84668200 0.34742100
vt 0.84668200 0.34742100
vt 0.69884600 0.34742100
vt 0.69884600 0.34742100
vt 0.69884600 0.34742100
vt 0.55101000 0.34742100
vt 0.55101000 0.34742100
vt 0.10966400 0.00000000
vt 0.10966400 0.00000000
vt 0.10966400 0.00000000
vt 0.05556500 0.00000000
vt 0.05556500 0.00000000
vt 0.05556500 0.00000000
vt 0.10966400 0.31490200
vt 0.10966400 0.31490200
vt 0.10966400 0.31490200
vt 0.05556500 0.31490200
vt 0.05556500 0.31490200
vt 0.05556500 0.31490200
vt 0.10966400 0.15745100
vt 0.10966400 0.15745100
vt 0.05556500 0.15745100
vt 0.05556500 0.15745100
vt 0.16669400 0.00000000
vt 0.16669400 0.00000000
vt 0.16669400 0.00000000
vt 0.16669400 0.05410000
vt 0.16669400 0.05410000
vt 0.16669400 0.05410000
vt 0.61112900 0.00000000
vt 0.61112900 0.00000000
vt 0.61112900 0.00000000
vt 0.61112900 0.00000000
vt 0.61112900 0.05410000
vt 0.61112900 0.05410000
vt 0.61112900 0.05410000
vt 0.27037500 0.00000000
vt 0.27037500 0.00000000
vt 0.37405600 0.00000000
vt 0.37405600 0.00000000
vt 0.37405600 0.00000000
vt 0.37405600 0.00000000
vt 0.49259300 0.00000000
vt 0.49259300 0.00000000
vt 0.49259300 0.00000000
vt 0.49259300 0.05410000
vt 0.49259300 0.05410000
vt 0.49259300 0.05410000
vt 0.37405600 0.05410000
vt 0.37405600 0.05410000
vt 0.37405600 0.05410000
vt 0.37405600 0.05410000
vt 0.27037500 0.05410000
vt 0.27037500 0.05410000
vt 0.16522900 0.00000000
vt 0.16522900 0.00000000
vt 0.16522900 0.00000000
vt 0.11112900 0.00000000
vt 0.11112900 0.00000000
vt 0.11112900 0.00000000
vt 0.16522900 0.68145300
vt 0.16522900 0.68145300
vt 0.16522900 0.68145300
vt 0.11112900 0.68145300
vt 0.11112900 0.68145300
vt 0.11112900 0.68145300
vt 0.16522900 0.17036300
vt 0.16522900 0.17036300
vt 0.16522900 0.34072600
vt 0.16522900 0.34072600
vt 0.16522900 0.51108900
vt 0.16522900 0.51108900
vt 0.11112900 0.51108900
vt 0.11112900 0.51108900
vt 0.11112900 0.34072600
vt 0.11112900 0.34072600
vt 0.11112900 0.17036300
vt 0.11112900 0.17036300
vt 0.11112900 0.17036300
vt 0.05410000 0.00000000
vt 0.05410000 0.00000000
vt 0.05410000 0.00000000
vt 0.00000000 0.00000000
vt 0.00000000 0.00000000
vt 0.00000000 0.00000000
vt 0.05410000 0.23707300
vt 0.05410000 0.23707300
vt 0.05410000 0.23707300
vt 0.00000000 0.23707300
vt 0.00000000 0.23707300
vt 0.00000000 0.23707300
vt 0.05410000 0.07902400
vt 0.05410000 0.07902400
vt 0.05410000 0.15804900
vt 0.05410000 0.15804900
vt 0.00000000 0.15804900
vt 0.00000000 0.15804900
vt 0.00000000 0.15804900
vt 0.00000000 0.07902400
vt 0.00000000 0.07902400
vt 0.00000000 0.07902400
vt 0.16669400 0.05556500
vt 0.16669400 0.05556500
vt 0.16669400 0.05556500
vt 0.16669400 0.10966400
vt 0.16669400 0.10966400
vt 0.16669400 0.10966400
vt 0.61115700 0.05556500
vt 0.61115700 0.05556500
vt 0.61115700 0.05556500
vt 0.61115700 0.10966400
vt 0.61115700 0.10966400
vt 0.61115700 0.10966400
vt 0.31484800 0.05556500
vt 0.31484800 0.05556500
vt 0.46300300 0.05556500
vt 0.46300300 0.05556500
vt 0.46300300 0.10966400
vt 0.46300300 0.10966400
vt 0.31484800 0.10966400
vt 0.31484800 0.10966400
vt 0.16669400 0.99853500
vt 0.16669400 0.99853500
vt 0.16669400 0.99853500
vt 0.84668200 0.55556500
vt 0.84668200 0.55556500
vt 0.84668200 0.55556500
vt 0.40317400 0.79185700
vt 0.40317400 0.79185700
vt 0.40317400 0.79185700
vt 0.28493400 0.89519600
vt 0.28493400 0.89519600
vt 0.50668800 0.77705000
vt 0.16670100 0.89519600
vt 0.16670100 0.89519600
vt 0.16670800 0.79185700
vt 0.16670800 0.79185700
vt 0.16670800 0.79185700
vt 0.16670100 0.67371100
vt 0.16670100 0.67371100
vt 0.50668800 0.66630700
vt 0.16669400 0.55556500
vt 0.16669400 0.55556500
vt 0.16669400 0.55556500
vt 0.33669100 0.55556500
vt 0.33669100 0.55556500
vt 0.33669100 0.55556500
vt 0.50668800 0.55556500
vt 0.50668800 0.55556500
vt 0.50668800 0.55556500
vt 0.67668500 0.55556500
vt 0.67668500 0.55556500
vt 0.84668200 0.63432900
vt 0.84668200 0.63432900
vt 0.84668200 0.71309300
vt 0.84668200 0.71309300
vt 0.67668500 0.66630700
vt 0.50668800 0.61093600
vt 0.67668500 0.61093600
vt 0.67668500 0.77705000
vt 0.50668800 0.72167900
vt 0.67668500 0.72167900
vt 0.84668200 0.79185700
vt 0.84668200 0.79185700
vt 0.84668200 0.79185700
vt 0.69884600 0.79185700
vt 0.69884600 0.79185700
vt 0.69884600 0.79185700
vt 0.55101000 0.79185700
vt 0.55101000 0.79185700
vt 0.16669400 0.55410000
vt 0.16669400 0.55410000
vt 0.16669400 0.55410000
vt 0.84668200 0.11112900
vt 0.84668200 0.11112900
vt 0.84668200 0.11112900
vt 0.40317400 0.34742100
vt 0.40317400 0.34742100
vt 0.40317400 0.34742100
vt 0.28493400 0.45076000
vt 0.28493400 0.45076000
vt 0.50668800 0.33261500
vt 0.16670100 0.45076000
vt 0.16670100 0.45076000
vt 0.16670800 0.34742100
vt 0.16670800 0.34742100
vt 0.16670100 0.22927500
vt 0.16670100 0.22927500
vt 0.50668800 0.22187200
vt 0.16669400 0.11112900
vt 0.16669400 0.11112900
vt 0.16669400 0.11112900
vt 0.33669100 0.11112900
vt 0.33669100 0.11112900
vt 0.50668800 0.11112900
vt 0.50668800 0.11112900
vt 0.67668500 0.11112900
vt 0.67668500 0.11112900
vt 0.67668500 0.11112900
vt 0.84668200 0.18989300
vt 0.84668200 0.18989300
vt 0.84668200 0.26865700
vt 0.84668200 0.26865700
vt 0.84668200 0.26865700
vt 0.67668500 0.22187200
vt 0.50668800 0.16650100
vt 0.67668500 0.16650100
vt 0.67668500 0.33261500
vt 0.50668800 0.27724300
vt 0.67668500 0.27724300
vt 0.84668200 0.34742100
vt 0.84668200 0.34742100
vt 0.84668200 0.34742100
vt 0.69884600 0.34742100
vt 0.69884600 0.34742100
vt 0.69884600 0.34742100
vt 0.55101000 0.34742100
vt 0.55101000 0.34742100
f 6/6/6 3/3/3 13/13/13
f 7/7/7 10/10/10 15/15/15
f 19/19/19 29/29/29 45/45/45
f 44/44/44 45/45/45 29/29/29
f 25/25/25 26/26/26 39/39/39
f 35/35/35 39/39/39 40/40/40
f 60/60/60 70/70/70 52/52/52
f 70/70/70 60/60/60 61/61/61
f 54/54/54 56/56/56 65/65/65
f 63/63/63 65/65/65 67/67/67
f 85/85/85 91/91/91 77/77/77
f 91/91/91 85/85/85 87/87/87
f 78/78/78 82/82/82 89/89/89
f 106/106/106 112/112/112 97/97/97
f 112/112/112 106/106/106 109/109/109
f 100/100/100 105/105/105 110/110/110
f 152/152/152 154/154/154 153/153/153
f 154/154/154 149/149/149 153/153/153
f 149/149/149 151/151/151 150/150/150
f 132/132/132 137/137/137 135/135/135
f 150/150/150 137/137/137 132/132/132
f 132/132/132 133/133/133 150/150/150
f 132/132/132 153/153/153 133/133/133
f 150/150/150 142/142/142 137/137/137
f 121/121/121 153/153/153 132/132/132
f 126/126/126 116/116/116 123/123/123
f 128/128/128 126/126/126 123/123/123
f 128/128/128 123/123/123 121/121/121
f 132/132/132 128/128/128 121/121/121
f 121/121/121 125/125/125 153/153/153
f 121/121/121 161/161/161 125/125/125
f 142/142/142 150/150/150 144/144/144
f 145/145/145 151/151/151 149/149/149
f 151/151/151 145/145/145 118/118/118
f 144/144/144 151/151/151 118/118/118
f 145/145/145 149/149/149 147/147/147
f 161/161/161 152/152/152 125/125/125
f 152/152/152 156/156/156 147/147/147
f 159/159/159 152/152/152 161/161/161
f 159/159/159 156/156/156 152/152/152
f 200/200/200 174/174/174 201/201/201
f 202/202/202 201/201/201 197/197/197
f 197/197/197 181/181/181 198/198/198
f 179/179/179 182/182/182 186/186/186
f 198/198/198 179/179/179 186/186/186
f 179/179/179 198/198/198 181/181/181
f 179/179/179 181/181/181 201/201/201
f 198/198/198 186/186/186 187/187/187
f 170/170/170 179/179/179 201/201/201
f 175/175/175 172/172/172 165/165/165
f 178/178/178 172/172/172 175/175/175
f 178/178/178 170/170/170 172/172/172
f 179/179/179 170/170/170 178/178/178
f 170/170/170 201/201/201 174/174/174
f 170/170/170 174/174/174 210/210/210
f 187/187/187 189/189/189 198/198/198
f 193/193/193 197/197/197 199/199/199
f 199/199/199 168/168/168 193/193/193
f 189/189/189 168/168/168 199/199/199
f 193/193/193 195/195/195 197/197/197
f 210/210/210 174/174/174 200/200/200
f 200/200/200 202/202/202 195/195/195
f 207/207/207 210/210/210 200/200/200
f 207/207/207 200/200/200 204/204/204
f 6/6/6 13/13/13 15/15/15
f 7/7/7 15/15/15 13/13/13
f 19/19/19 45/45/45 20/20/20
f 42/42/42 29/29/29 34/34/34
f 25/25/25 39/39/39 35/35/35
f 36/36/36 43/43/43 32/32/32
f 60/60/60 52/52/52 48/48/48
f 70/70/70 61/61/61 67/67/67
f 54/54/54 65/65/65 63/63/63
f 63/63/63 67/67/67 61/61/61
f 85/85/85 77/77/77 73/73/73
f 91/91/91 87/87/87 89/89/89
f 78/78/78 89/89/89 87/87/87
f 106/106/106 97/97/97 96/96/96
f 112/112/112 109/109/109 110/110/110
f 100/100/100 110/110/110 109/109/109
f 152/152/152 153/153/153 125/125/125
f 149/149/149 133/133/133 153/153/153
f 149/149/149 150/150/150 133/133/133
f 150/150/150 151/151/151 144/144/144
f 149/149/149 154/154/154 147/147/147
f 152/152/152 147/147/147 154/154/154
f 200/200/200 201/201/201 202/202/202
f 201/201/201 181/181/181 197/197/197
f 197/197/197 198/198/198 199/199/199
f 189/189/189 199/199/199 198/198/198
f 195/195/195 202/202/202 197/197/197
f 200/200/200 195/195/195 204/204/204
f 215/215/215 223/223/223 213/213/213
f 217/217/217 226/226/226 221/221/221
f 228/228/228 256/256/256 240/240/240
f 254/254/254 240/240/240 256/256/256
f 234/234/234 249/249/249 238/238/238
f 248/248/248 252/252/252 249/249/249
f 271/271/271 261/261/261 281/281/281
f 281/281/281 272/272/272 271/271/271
f 264/264/264 277/277/277 269/269/269
f 274/274/274 279/279/279 277/277/277
f 295/295/295 287/287/287 302/302/302
f 302/302/302 298/298/298 295/295/295
f 291/291/291 301/301/301 293/293/293
f 317/317/317 309/309/309 323/323/323
f 323/323/323 319/319/319 317/317/317
f 312/312/312 321/321/321 316/316/316
f 363/363/363 364/364/364 365/365/365
f 365/365/365 364/364/364 360/360/360
f 360/360/360 361/361/361 362/362/362
f 343/343/343 345/345/345 350/350/350
f 361/361/361 343/343/343 350/350/350
f 343/343/343 361/361/361 344/344/344
f 343/343/343 344/344/344 364/364/364
f 361/361/361 350/350/350 352/352/352
f 333/333/333 343/343/343 364/364/364
f 338/338/338 335/335/335 325/325/325
f 340/340/340 335/335/335 338/338/338
f 340/340/340 333/333/333 335/335/335
f 343/343/343 333/333/333 340/340/340
f 333/333/333 364/364/364 336/336/336
f 333/333/333 336/336/336 372/372/372
f 352/352/352 354/354/354 361/361/361
f 356/356/356 360/360/360 362/362/362
f 362/362/362 330/330/330 356/356/356
f 354/354/354 330/330/330 362/362/362
f 356/356/356 359/359/359 360/360/360
f 372/372/372 336/336/336 363/363/363
f 363/363/363 359/359/359 367/367/367
f 369/369/369 372/372/372 363/363/363
f 369/369/369 363/363/363 367/367/367
f 411/411/411 412/412/412 385/385/385
f 413/413/413 408/408/408 412/412/412
f 408/408/408 409/409/409 392/392/392
f 391/391/391 397/397/397 395/395/395
f 409/409/409 397/397/397 391/391/391
f 391/391/391 392/392/392 409/409/409
f 391/391/391 412/412/412 392/392/392
f 409/409/409 399/399/399 397/397/397
f 381/381/381 412/412/412 391/391/391
f 387/387/387 376/376/376 384/384/384
f 388/388/388 387/387/387 384/384/384
f 388/388/388 384/384/384 381/381/381
f 391/391/391 388/388/388 381/381/381
f 381/381/381 385/385/385 412/412/412
f 381/381/381 421/421/421 385/385/385
f 399/399/399 409/409/409 402/402/402
f 404/404/404 410/410/410 408/408/408
f 410/410/410 404/404/404 379/379/379
f 402/402/402 410/410/410 379/379/379
f 404/404/404 408/408/408 405/405/405
f 421/421/421 411/411/411 385/385/385
f 411/411/411 405/405/405 413/413/413
f 417/417/417 411/411/411 421/421/421
f 417/417/417 414/414/414 411/411/411
f 215/215/215 226/226/226 223/223/223
f 217/217/217 223/223/223 226/226/226
f 228/228/228 232/232/232 256/256/256
f 255/255/255 242/242/242 240/240/240
f 236/236/236 246/246/246 251/251/251
f 248/248/248 243/243/243 252/252/252
f 271/271/271 260/260/260 261/261/261
f 281/281/281 279/279/279 272/272/272
f 264/264/264 274/274/274 277/277/277
f 274/274/274 272/272/272 279/279/279
f 295/295/295 283/283/283 287/287/287
f 302/302/302 301/301/301 298/298/298
f 291/291/291 298/298/298 301/301/301
f 317/317/317 306/306/306 309/309/309
f 323/323/323 321/321/321 319/319/319
f 312/312/312 319/319/319 321/321/321
f 363/363/363 336/336/336 364/364/364
f 360/360/360 364/364/364 344/344/344
f 360/360/360 344/344/344 361/361/361
f 361/361/361 354/354/354 362/362/362
f 360/360/360 359/359/359 365/365/365
f 363/363/363 365/365/365 359/359/359
f 411/411/411 413/413/413 412/412/412
f 412/412/412 408/408/408 392/392/392
f 408/408/408 410/410/410 409/409/409
f 402/402/402 409/409/409 410/410/410
f 405/405/405 408/408/408 413/413/413
f 411/411/411 414/414/414 405/405/405
f 1/1/1 4/4/4 214/214/214
f 214/214/214 211/211/211 1/1/1
f 11/11/11 8/8/8 219/219/219
f 219/219/219 220/220/220 11/11/11
f 14/14/14 2/2/2 212/212/212
f 212/212/212 224/224/224 14/14/14
f 18/18/18 21/21/21 230/230/230
f 230/230/230 229/229/229 18/18/18
f 27/27/27 23/23/23 235/235/235
f 235/235/235 239/239/239 27/27/27
f 30/30/30 17/17/17 227/227/227
f 227/227/227 241/241/241 30/30/30
f 31/31/31 30/30/30 241/241/241
f 241/241/241 245/245/245 31/31/31
f 24/24/24 37/37/37 247/247/247
f 247/247/247 233/233/233 24/24/24
f 49/49/49 51/51/51 263/263/263
f 263/263/263 259/259/259 49/49/49
f 57/57/57 53/53/53 265/265/265
f 265/265/265 268/268/268 57/57/57
f 59/59/59 47/47/47 258/258/258
f 258/258/258 270/270/270 59/59/59
f 62/62/62 59/59/59 270/270/270
f 270/270/270 273/273/273 62/62/62
f 55/55/55 64/64/64 275/275/275
f 275/275/275 266/266/266 55/55/55
f 74/74/74 76/76/76 288/288/288
f 288/288/288 284/284/284 74/74/74
f 81/81/81 79/79/79 289/289/289
f 289/289/289 292/292/292 81/81/81
f 84/84/84 72/72/72 285/285/285
f 285/285/285 296/296/296 84/84/84
f 86/86/86 84/84/84 296/296/296
f 296/296/296 297/297/297 86/86/86
f 95/95/95 99/99/99 310/310/310
f 310/310/310 305/305/305 95/95/95
f 103/103/103 101/101/101 311/311/311
f 311/311/311 314/314/314 103/103/103
f 108/108/108 107/107/107 318/318/318
f 318/318/318 320/320/320 108/108/108
f 124/124/124 115/115/115 327/327/327
f 327/327/327 334/334/334 124/124/124
f 114/114/114 127/127/127 337/337/337
f 337/337/337 326/326/326 114/114/114
f 138/138/138 141/141/141 353/353/353
f 353/353/353 348/348/348 138/138/138
f 203/203/203 194/194/194 406/406/406
f 406/406/406 415/415/415 203/203/203
f 162/162/162 122/122/122 332/332/332
f 332/332/332 373/373/373 162/162/162
f 120/120/120 124/124/124 334/334/334
f 334/334/334 331/331/331 120/120/120
f 164/164/164 173/173/173 383/383/383
f 383/383/383 375/375/375 164/164/164
f 176/176/176 163/163/163 374/374/374
f 374/374/374 386/386/386 176/176/176
f 188/188/188 185/185/185 396/396/396
f 396/396/396 398/398/398 188/188/188
f 169/169/169 209/209/209 420/420/420
f 420/420/420 382/382/382 169/169/169
f 129/129/129 131/131/131 342/342/342
f 342/342/342 341/341/341 129/129/129
f 209/209/209 208/208/208 418/418/418
f 418/418/418 420/420/420 209/209/209
f 166/166/166 191/191/191 400/400/400
f 400/400/400 377/377/377 166/166/166
f 46/46/46 41/41/41 253/253/253
f 253/253/253 257/257/257 46/46/46
f 185/185/185 184/184/184 394/394/394
f 394/394/394 396/396/396 185/185/185
f 148/148/148 155/155/155 366/366/366
f 366/366/366 358/358/358 148/148/148
f 16/16/16 12/12/12 222/222/222
f 222/222/222 225/225/225 16/16/16
f 37/37/37 33/33/33 244/244/244
f 244/244/244 247/247/247 37/37/37
f 38/38/38 28/28/28 237/237/237
f 237/237/237 250/250/250 38/38/38
f 41/41/41 38/38/38 250/250/250
f 250/250/250 253/253/253 41/41/41
f 22/22/22 46/46/46 257/257/257
f 257/257/257 231/231/231 22/22/22
f 64/64/64 62/62/62 273/273/273
f 273/273/273 275/275/275 64/64/64
f 66/66/66 58/58/58 267/267/267
f 267/267/267 276/276/276 66/66/66
f 68/68/68 66/66/66 276/276/276
f 276/276/276 278/278/278 68/68/68
f 50/50/50 69/69/69 282/282/282
f 282/282/282 262/262/262 50/50/50
f 90/90/90 83/83/83 294/294/294
f 294/294/294 300/300/300 90/90/90
f 75/75/75 93/93/93 303/303/303
f 303/303/303 286/286/286 75/75/75
f 5/5/5 16/16/16 225/225/225
f 225/225/225 216/216/216 5/5/5
f 111/111/111 104/104/104 315/315/315
f 315/315/315 322/322/322 111/111/111
f 98/98/98 113/113/113 324/324/324
f 324/324/324 308/308/308 98/98/98
f 131/131/131 136/136/136 347/347/347
f 347/347/347 342/342/342 131/131/131
f 140/140/140 143/143/143 355/355/355
f 355/355/355 351/351/351 140/140/140
f 119/119/119 146/146/146 357/357/357
f 357/357/357 329/329/329 119/119/119
f 146/146/146 148/148/148 358/358/358
f 358/358/358 357/357/357 146/146/146
f 157/157/157 160/160/160 370/370/370
f 370/370/370 368/368/368 157/157/157
f 177/177/177 176/176/176 386/386/386
f 386/386/386 389/389/389 177/177/177
f 158/158/158 162/162/162 373/373/373
f 373/373/373 371/371/371 158/158/158
f 183/183/183 180/180/180 390/390/390
f 390/390/390 393/393/393 183/183/183
f 190/190/190 188/188/188 398/398/398
f 398/398/398 401/401/401 190/190/190
f 192/192/192 167/167/167 378/378/378
f 378/378/378 403/403/403 192/192/192
f 196/196/196 192/192/192 403/403/403
f 403/403/403 407/407/407 196/196/196
f 206/206/206 205/205/205 416/416/416
f 416/416/416 419/419/419 206/206/206
f 143/143/143 117/117/117 328/328/328
f 328/328/328 355/355/355 143/143/143
f 127/127/127 130/130/130 339/339/339
f 339/339/339 337/337/337 127/127/127
f 80/80/80 86/86/86 297/297/297
f 297/297/297 290/290/290 80/80/80
f 173/173/173 171/171/171 380/380/380
f 380/380/380 383/383/383 173/173/173
f 134/134/134 139/139/139 349/349/349
f 349/349/349 346/346/346 134/134/134
f 9/9/9 14/14/14 224/224/224
f 224/224/224 218/218/218 9/9/9
f 92/92/92 88/88/88 299/299/299
f 299/299/299 304/304/304 92/92/92
f 113/113/113 111/111/111 322/322/322
f 322/322/322 324/324/324 113/113/113
f 180/180/180 177/177/177 389/389/389
f 389/389/389 390/390/390 180/180/180
f 107/107/107 94/94/94 307/307/307
f 307/307/307 318/318/318 107/107/107
f 102/102/102 108/108/108 320/320/320
f 320/320/320 313/313/313 102/102/102
f 71/71/71 68/68/68 278/278/278
f 278/278/278 280/280/280 71/71/71

