mtllib material.mtl
usemtl Material-7011油漆.017
v 0.04021900 -0.06850400 -0.00182100
v 0.03870900 -0.06833200 -0.01078800
v 0.03870900 -0.06833200 -0.01078800
v 0.03867600 -0.06832000 0.00955300
v 0.03576500 -0.06899500 -0.01900900
v 0.03082600 -0.06833600 -0.02576900
v -0.02997500 -0.06833300 -0.02670200
v 0.02543300 -0.06842700 -0.03115100
v 0.01744600 -0.06835000 -0.03630200
v -0.03996200 -0.06833300 0.00400300
v -0.03996200 -0.06833300 0.00400300
v 0.00537300 -0.06833300 0.03983400
v 0.03495800 -0.06836300 0.01978800
v 0.03107900 -0.06834200 0.02536100
v 0.02355700 -0.06833200 0.03208900
v 0.02355700 -0.06833200 0.03208900
v 0.01905100 -0.06861000 0.03540500
v 0.01295600 -0.06833900 0.03799300
v 0.01295600 -0.06833900 0.03799300
v -0.00536100 -0.06834500 0.03996800
v -0.00536100 -0.06834500 0.03996800
v -0.01344700 -0.06834500 0.03784000
v -0.01344700 -0.06834500 0.03784000
v -0.02681100 -0.06836100 0.02985200
v -0.02104400 -0.06834800 0.03423300
v -0.03397900 -0.06831000 0.02084100
v 0.00824500 -0.06846100 -0.03941000
v -0.00982100 -0.06833400 -0.03907600
v -0.00028600 -0.06854300 -0.04023700
v -0.01950000 -0.06847500 -0.03521700
v -0.03834400 -0.06840000 -0.01258900
v -0.04021300 -0.06864500 -0.00183900
v -0.03862900 -0.06854100 0.01112300
v -0.03404400 -0.06860700 -0.02147100
v -0.02574700 -0.06856300 -0.03090100
v -0.02451800 -0.09618800 -0.03064300
v -0.02419800 -0.09455700 -0.03026600
v -0.01695700 -0.09639700 -0.03559800
v -0.01990200 -0.09293200 -0.03266400
v -0.01178700 -0.09293200 -0.03638900
v -0.03249600 -0.09293200 -0.02017600
v -0.02693300 -0.09293200 -0.02716000
v -0.03628800 -0.09293200 -0.01209200
v -0.03799800 -0.09455700 -0.00759600
v -0.03819000 -0.09285700 -0.00219000
v -0.03848800 -0.09618200 -0.00769400
v -0.02058300 -0.10144500 -0.03504200
v -0.02618900 -0.09943200 -0.03056500
v -0.03180700 -0.09943200 -0.02466600
v -0.03612200 -0.09943200 -0.01775600
v -0.03895700 -0.09943200 -0.01011800
v -0.03853600 -0.09364900 0.00026400
v -0.03794500 -0.09289900 0.00515500
v -0.04019700 -0.09943200 -0.00206700
v -0.03979000 -0.09943200 0.00607000
v 0.00573800 -0.09711000 0.03927200
v 0.00262400 -0.09630900 0.03934000
v 0.00099500 -0.09886500 0.04018900
v -0.00062200 -0.09278700 0.03822500
v 0.01005600 -0.09569100 0.03780900
v 0.01720700 -0.09917600 0.03635900
v 0.01198900 -0.09276700 0.03630800
v 0.01019100 -0.09943200 0.03893800
v -0.03794500 -0.09289900 0.00515500
v -0.03979000 -0.09943200 0.00607000
v -0.03765800 -0.09943200 0.01421000
v -0.02884300 -0.09293200 0.02512300
v -0.02862300 -0.09943200 0.02829800
v -0.02069300 -0.09293200 0.03216900
v -0.00795400 -0.09537000 0.03829600
v -0.01090200 -0.09293200 0.03666400
v -0.03470400 -0.09293200 0.01608400
v -0.03388100 -0.09943200 0.02172900
v -0.01463800 -0.09943200 0.03749400
v -0.00652300 -0.09943200 0.03971800
v -0.02211400 -0.09943200 0.03363100
v 0.01951200 -0.09528000 0.03387300
v 0.02934300 -0.09293200 0.02453600
v 0.02133800 -0.09293200 0.03174500
v 0.03113500 -0.09943200 0.02550800
v 0.03575800 -0.09943200 0.01847700
v 0.03502100 -0.09293200 0.01538000
v 0.03881900 -0.09943200 0.01063900
v 0.02515200 -0.09943200 0.03142400
v 0.03792100 -0.09293200 0.00500500
v 0.04018200 -0.09943200 0.00233500
v 0.03771100 -0.09280900 -0.00685700
v -0.03799200 -0.07358200 -0.00985900
v -0.03830200 -0.07718700 0.00039900
v -0.03777400 -0.07692600 0.00641100
v -0.03573600 -0.07683200 -0.01363700
v -0.03759800 -0.07683200 -0.00703000
v -0.03263400 -0.07683200 -0.01995100
v -0.03979000 -0.07033200 0.00607000
v -0.02839100 -0.07683200 -0.02563200
v -0.02015100 -0.07358200 -0.03368200
v -0.01743500 -0.07683200 -0.03404600
v -0.02322400 -0.07683200 -0.03039200
v -0.01135200 -0.07683200 -0.03652700
v -0.00591900 -0.07358200 -0.03880100
v -0.04024600 -0.07033200 -0.00056200
v -0.03788300 -0.07033200 -0.01359900
v -0.03960500 -0.07033200 -0.00717900
v -0.03512800 -0.07033200 -0.01964900
v -0.02684400 -0.07033200 -0.02999100
v -0.03141500 -0.07033200 -0.02516300
v -0.02154200 -0.07033200 -0.03400000
v -0.01565200 -0.07033200 -0.03708200
v -0.00933500 -0.07033200 -0.03915300
v -0.00571200 -0.07698600 -0.03779800
v 0.00985900 -0.07358200 -0.03799200
v 0.00649000 -0.07683200 -0.03769500
v -0.00005600 -0.07683200 -0.03825000
v 0.01310600 -0.07683200 -0.03593500
v 0.01945700 -0.07683200 -0.03293100
v -0.00276300 -0.07033200 -0.04015500
v 0.00388400 -0.07033200 -0.04006200
v 0.02356200 -0.07358200 -0.03139100
v 0.02520100 -0.07683200 -0.02877400
v 0.03379200 -0.07683200 -0.01792100
v 0.03004500 -0.07683200 -0.02367200
v 0.03368200 -0.07358200 -0.02015100
v 0.03625300 -0.07670700 -0.01220300
v 0.03779400 -0.07671200 -0.00609100
v 0.01668100 -0.07033200 -0.03663100
v 0.01042500 -0.07033200 -0.03887700
v 0.02248300 -0.07033200 -0.03338500
v 0.02767100 -0.07033200 -0.02922900
v 0.03210500 -0.07033200 -0.02427600
v 0.03576500 -0.06899500 -0.01900900
v 0.03824800 -0.07033200 -0.01253600
v 0.03979000 -0.07033200 -0.00607000
v 0.03979000 -0.07033200 -0.00607000
v 0.03870900 -0.06833200 -0.01078800
v 0.04021900 -0.06850400 -0.00182100
v 0.03824800 -0.07033200 -0.01253600
v 0.03576500 -0.06899500 -0.01900900
v 0.03576500 -0.06899500 -0.01900900
v 0.03210500 -0.07033200 -0.02427600
v 0.03082600 -0.06833600 -0.02576900
v 0.02767100 -0.07033200 -0.02922900
v 0.02543300 -0.06842700 -0.03115100
v 0.02248300 -0.07033200 -0.03338500
v 0.01744600 -0.06835000 -0.03630200
v 0.01042500 -0.07033200 -0.03887700
v 0.00824500 -0.06846100 -0.03941000
v 0.01668100 -0.07033200 -0.03663100
v 0.00388400 -0.07033200 -0.04006200
v -0.00028600 -0.06854300 -0.04023700
v -0.00276300 -0.07033200 -0.04015500
v -0.00982100 -0.06833400 -0.03907600
v -0.01565200 -0.07033200 -0.03708200
v -0.01950000 -0.06847500 -0.03521700
v -0.02154200 -0.07033200 -0.03400000
v -0.02574700 -0.06856300 -0.03090100
v -0.02684400 -0.07033200 -0.02999100
v -0.02997500 -0.06833300 -0.02670200
v -0.03141500 -0.07033200 -0.02516300
v -0.03404400 -0.06860700 -0.02147100
v -0.00933500 -0.07033200 -0.03915300
v -0.03834400 -0.06840000 -0.01258900
v -0.03512800 -0.07033200 -0.01964900
v -0.03788300 -0.07033200 -0.01359900
v -0.03960500 -0.07033200 -0.00717900
v -0.04021300 -0.06864500 -0.00183900
v -0.04024600 -0.07033200 -0.00056200
v -0.03996200 -0.06833300 0.00400300
v -0.03979000 -0.07033200 0.00607000
v -0.03979000 -0.07033200 0.00607000
v -0.03862900 -0.06854100 0.01112300
v -0.03996200 -0.06833300 0.00400300
v -0.03210500 -0.07033200 0.02427600
v -0.03115600 -0.06883400 0.02558700
v -0.03617900 -0.06913300 0.01819600
v -0.03787200 -0.07057500 0.01342400
v -0.02248300 -0.07033200 0.03338500
v -0.02104400 -0.06834800 0.03423300
v -0.02681100 -0.06836100 0.02985200
v -0.02767100 -0.07033200 0.02922900
v -0.01668100 -0.07033200 0.03663100
v -0.01344700 -0.06834500 0.03784000
v -0.00311900 -0.07063900 0.04002600
v -0.00536100 -0.06834500 0.03996800
v -0.01029300 -0.07071800 0.03880300
v 0.00260200 -0.07031500 0.04016400
v 0.00537300 -0.06833300 0.03983400
v 0.00943100 -0.07031700 0.03912900
v 0.01295600 -0.06833900 0.03799300
v 0.01449900 -0.07048600 0.03748200
v 0.01905100 -0.06861000 0.03540500
v 0.02080200 -0.07067700 0.03434000
v 0.02655600 -0.06918000 0.03057700
v 0.03141500 -0.07033200 0.02516300
v 0.03107900 -0.06834200 0.02536100
v 0.03512800 -0.07033200 0.01964900
v 0.03766500 -0.06884000 0.01431500
v 0.03495800 -0.06836300 0.01978800
v 0.03992800 -0.06919600 0.00676200
v 0.03788300 -0.07033200 0.01359900
v 0.04024600 -0.07033200 0.00056200
v 0.04021900 -0.06850400 -0.00182100
v 0.03979000 -0.07033200 -0.00607000
v 0.01124700 -0.07686200 0.03657000
v 0.01631200 -0.07566200 0.03503800
v 0.01449900 -0.07048600 0.03748200
v 0.02080200 -0.07067700 0.03434000
v 0.02095000 -0.07681700 0.03200600
v 0.00519500 -0.07382600 0.03902400
v 0.00911600 -0.07440300 0.03794000
v 0.00943100 -0.07031700 0.03912900
v 0.00260200 -0.07031500 0.04016400
v 0.00079300 -0.07580200 0.03859600
v -0.00619400 -0.07683700 0.03775300
v -0.01029300 -0.07071800 0.03880300
v -0.01243100 -0.07676300 0.03616900
v -0.00311900 -0.07063900 0.04002600
v -0.03787200 -0.07057500 0.01342400
v -0.03643400 -0.07700900 0.01176500
v -0.03362800 -0.07455800 0.01959600
v 0.03835600 -0.07640500 -0.00233700
v 0.03788900 -0.07683200 0.00524500
v 0.03779400 -0.07671200 -0.00609100
v 0.03979000 -0.07033200 -0.00607000
v 0.03776100 -0.07466100 0.00931000
v 0.03877200 -0.07502900 0.00173300
v 0.03490400 -0.07683200 0.01564500
v 0.02912700 -0.07683200 0.02479300
v 0.03086400 -0.07473600 0.02362400
v 0.02593500 -0.07497000 0.02888800
v 0.04024600 -0.07033200 0.00056200
v 0.03992800 -0.06919600 0.00676200
v 0.03141500 -0.07033200 0.02516300
v 0.03788300 -0.07033200 0.01359900
v 0.03512800 -0.07033200 0.01964900
v 0.02655600 -0.06918000 0.03057700
v -0.01899700 -0.07683200 0.03319900
v -0.01687600 -0.07461600 0.03507300
v -0.02306600 -0.07470800 0.03128500
v -0.02477000 -0.07683200 0.02914600
v -0.02970200 -0.07683200 0.02410100
v -0.03356700 -0.07683200 0.01833800
v -0.03979000 -0.07033200 0.00607000
v -0.03777400 -0.07692600 0.00641100
v -0.01668100 -0.07033200 0.03663100
v -0.02248300 -0.07033200 0.03338500
v -0.02767100 -0.07033200 0.02922900
v -0.03617900 -0.06913300 0.01819600
v -0.03210500 -0.07033200 0.02427600
v 0.03420500 -0.09618200 -0.01925000
v 0.03377000 -0.09455700 -0.01900400
v 0.03622300 -0.09291200 -0.01229100
v 0.03771100 -0.09280900 -0.00685700
v 0.03772600 -0.09939600 -0.01396100
v 0.03979000 -0.09943200 -0.00607000
v 0.02983400 -0.09293200 -0.02393700
v 0.03363100 -0.09293200 -0.01822200
v 0.02499200 -0.09293200 -0.02895600
v 0.01932100 -0.09293200 -0.03301100
v 0.01362100 -0.09455700 -0.03627700
v 0.01311700 -0.09293200 -0.03593000
v 0.01379700 -0.09618200 -0.03674500
v 0.02918500 -0.09943200 -0.02771800
v 0.03416900 -0.09943200 -0.02127400
v 0.02300600 -0.09943200 -0.03302700
v 0.01588400 -0.09943200 -0.03698300
v 0.00811200 -0.09943200 -0.03942400
v 0.00048600 -0.09268100 -0.03826300
v 0.00672500 -0.09292100 -0.03765500
v 0.01217400 -0.07871500 0.03830100
v 0.01008800 -0.07541400 0.03871900
v 0.01135700 -0.07902600 0.03842500
v 0.00519500 -0.07382600 0.03902400
v 0.00099200 -0.07598300 0.04005400
v 0.00064600 -0.07830900 0.03991600
v -0.00021200 -0.07936600 0.04019200
v 0.01120800 -0.09257900 0.03842700
v 0.01215500 -0.09198600 0.03830600
v 0.01022500 -0.09541200 0.03860100
v 0.00784300 -0.09542600 0.03865000
v 0.00573800 -0.09711000 0.03927200
v 0.00068600 -0.09276400 0.04001900
v 0.00262400 -0.09630900 0.03934000
v -0.00013400 -0.09249600 0.04017600
v 0.01100400 -0.09249800 0.03773700
v 0.01120800 -0.09257900 0.03842700
v 0.01135700 -0.07902600 0.03842500
v 0.00157800 -0.07913200 0.03953900
v 0.00105800 -0.07766700 0.03917900
v 0.00133500 -0.09311700 0.03918600
v 0.01032100 -0.07945900 0.03828100
v 0.01031400 -0.09291500 0.03803400
v 0.01055900 -0.07754200 0.03772400
v 0.00784300 -0.09542600 0.03865000
v 0.01031400 -0.09291500 0.03803400
v 0.01032100 -0.07945900 0.03828100
v 0.00155700 -0.09113800 0.03961800
v 0.00133500 -0.09311700 0.03918600
v 0.01055900 -0.07754200 0.03772400
v 0.00519500 -0.07382600 0.03902400
v 0.00157800 -0.07913200 0.03953900
v 0.00105800 -0.07766700 0.03917900
v 0.00811200 -0.09943200 -0.03942400
v 0.00831300 -0.10144500 -0.03945400
v 0.00831300 -0.10144500 -0.03945400
v 0.00048600 -0.09268100 -0.03826300
v 0.00048600 -0.09268100 -0.03826300
v 0.00048600 -0.09268100 -0.03826300
v -0.01695700 -0.09639700 -0.03559800
v -0.01695700 -0.09639700 -0.03559800
v -0.01178700 -0.09293200 -0.03638900
v -0.02058300 -0.10144500 -0.03504200
v -0.02058300 -0.10144500 -0.03504200
v -0.02058300 -0.10144500 -0.03504200
v -0.02058300 -0.10144500 -0.03504200
v -0.03846400 -0.10144500 -0.01185800
v -0.03846400 -0.10144500 -0.01185800
v -0.03478300 -0.10144800 -0.02041000
v -0.04030900 -0.10144500 -0.00260000
v -0.04030900 -0.10144500 -0.00260000
v -0.02901700 -0.10144500 -0.02789400
v -0.03979000 -0.10144500 0.00607000
v -0.03979000 -0.10144500 0.00607000
v 0.03979000 -0.10144500 -0.00607000
v 0.03979000 -0.10144500 -0.00607000
v -0.02998200 -0.10144500 0.02685400
v -0.03476200 -0.10144500 0.02029000
v -0.03802100 -0.10144500 0.01320900
v -0.00127200 -0.10144500 0.04023000
v -0.02384300 -0.10144500 0.03242800
v -0.00900300 -0.10144500 0.03923000
v -0.01669300 -0.10144500 0.03662500
v 0.03242800 -0.10144500 0.02384300
v 0.00831300 -0.10144500 -0.03945400
v 0.00831300 -0.10144500 -0.03945400
v 0.00831300 -0.10144500 -0.03945400
v 0.00831300 -0.10144500 -0.03945400
v 0.01320300 -0.10117100 -0.03808900
v 0.01938100 -0.10144500 -0.03527700
v 0.02711600 -0.10144800 -0.02985300
v 0.02711600 -0.10144800 -0.02985300
v 0.03317800 -0.10144500 -0.02278700
v 0.03317800 -0.10144500 -0.02278700
v 0.03769500 -0.10144400 -0.01450200
v 0.03769500 -0.10144400 -0.01450200
v 0.02029000 -0.10144500 0.03476200
v 0.02685400 -0.10144500 0.02998200
v 0.01320900 -0.10144500 0.03802100
v 0.00607000 -0.10144500 0.03979000
v 0.03923000 -0.10144500 0.00900300
v 0.04023000 -0.10144500 0.00127200
v 0.03662500 -0.10144500 0.01669300
v 0.02711600 -0.10144800 -0.02985300
v 0.02300600 -0.09943200 -0.03302700
v 0.02918500 -0.09943200 -0.02771800
v 0.01938100 -0.10144500 -0.03527700
v 0.03317800 -0.10144500 -0.02278700
v 0.03769500 -0.10144400 -0.01450200
v 0.03772600 -0.09939600 -0.01396100
v 0.03979000 -0.09943200 -0.00607000
v 0.03416900 -0.09943200 -0.02127400
v 0.04023000 -0.10144500 0.00127200
v 0.04018200 -0.09943200 0.00233500
v 0.03923000 -0.10144500 0.00900300
v 0.03881900 -0.09943200 0.01063900
v 0.03662500 -0.10144500 0.01669300
v 0.03242800 -0.10144500 0.02384300
v 0.03113500 -0.09943200 0.02550800
v 0.02685400 -0.10144500 0.02998200
v 0.02515200 -0.09943200 0.03142400
v 0.02029000 -0.10144500 0.03476200
v 0.03575800 -0.09943200 0.01847700
v 0.03979000 -0.10144500 -0.00607000
v 0.01720700 -0.09917600 0.03635900
v 0.01320900 -0.10144500 0.03802100
v 0.00831300 -0.10144500 -0.03945400
v 0.00811200 -0.09943200 -0.03942400
v 0.01320300 -0.10117100 -0.03808900
v 0.01588400 -0.09943200 -0.03698300
v 0.01019100 -0.09943200 0.03893800
v 0.00607000 -0.10144500 0.03979000
v -0.00127200 -0.10144500 0.04023000
v 0.00099500 -0.09886500 0.04018900
v -0.00900300 -0.10144500 0.03923000
v -0.00652300 -0.09943200 0.03971800
v -0.01463800 -0.09943200 0.03749400
v -0.01669300 -0.10144500 0.03662500
v -0.02211400 -0.09943200 0.03363100
v -0.02998200 -0.10144500 0.02685400
v -0.02862300 -0.09943200 0.02829800
v -0.03388100 -0.09943200 0.02172900
v -0.03476200 -0.10144500 0.02029000
v -0.03765800 -0.09943200 0.01421000
v -0.03979000 -0.10144500 0.00607000
v -0.03979000 -0.09943200 0.00607000
v -0.04030900 -0.10144500 -0.00260000
v -0.03802100 -0.10144500 0.01320900
v -0.02384300 -0.10144500 0.03242800
v -0.03846400 -0.10144500 -0.01185800
v -0.03895700 -0.09943200 -0.01011800
v -0.03612200 -0.09943200 -0.01775600
v -0.02901700 -0.10144500 -0.02789400
v -0.03478300 -0.10144800 -0.02041000
v -0.03180700 -0.09943200 -0.02466600
v -0.04019700 -0.09943200 -0.00206700
v -0.02618900 -0.09943200 -0.03056500
v -0.02058300 -0.10144500 -0.03504200
v -0.03397900 -0.06831000 0.02084100
v -0.03617900 -0.06913300 0.01819600
v -0.03115600 -0.06883400 0.02558700
v 0.02355700 -0.06833200 0.03208900
v 0.01905100 -0.06861000 0.03540500
v 0.02655600 -0.06918000 0.03057700
v 0.03867600 -0.06832000 0.00955300
v 0.03766500 -0.06884000 0.01431500
v 0.03992800 -0.06919600 0.00676200
v 0.03625300 -0.07670700 -0.01220300
v 0.03771100 -0.09280900 -0.00685700
v 0.03622300 -0.09291200 -0.01229100
v 0.03779400 -0.07671200 -0.00609100
v 0.02983400 -0.09293200 -0.02393700
v 0.03004500 -0.07683200 -0.02367200
v 0.03363100 -0.09293200 -0.01822200
v 0.02499200 -0.09293200 -0.02895600
v 0.02520100 -0.07683200 -0.02877400
v 0.01932100 -0.09293200 -0.03301100
v 0.01945700 -0.07683200 -0.03293100
v 0.00672500 -0.09292100 -0.03765500
v 0.00048600 -0.09268100 -0.03826300
v 0.00013100 -0.08347900 -0.03825200
v 0.00649000 -0.07683200 -0.03769500
v 0.01310600 -0.07683200 -0.03593500
v 0.01311700 -0.09293200 -0.03593000
v 0.03379200 -0.07683200 -0.01792100
v -0.00005600 -0.07683200 -0.03825000
v 0.00013100 -0.08347900 -0.03825200
v 0.00048600 -0.09268100 -0.03826300
v -0.00413000 -0.08586700 -0.03780100
v -0.00005600 -0.07683200 -0.03825000
v -0.00571200 -0.07698600 -0.03779800
v -0.00413000 -0.08586700 -0.03780100
v 0.00048600 -0.09268100 -0.03826300
v -0.01163400 -0.08869700 -0.03643500
v -0.01146500 -0.08102700 -0.03649100
v -0.00571200 -0.07698600 -0.03779800
v -0.03819000 -0.09285700 -0.00219000
v -0.03794500 -0.09289900 0.00515500
v -0.03830200 -0.07718700 0.00039900
v -0.03755400 -0.08887900 -0.00726200
v -0.03757400 -0.08480100 -0.00717000
v -0.01990200 -0.09293200 -0.03266400
v -0.02693300 -0.09293200 -0.02716000
v -0.02328900 -0.08492700 -0.03034200
v -0.03249600 -0.09293200 -0.02017600
v -0.03628800 -0.09293200 -0.01209200
v -0.01163400 -0.08869700 -0.03643500
v -0.01178700 -0.09293200 -0.03638900
v -0.01146500 -0.08102700 -0.03649100
v -0.01743500 -0.07683200 -0.03404600
v -0.03759800 -0.07683200 -0.00703000
v -0.03263400 -0.07683200 -0.01995100
v -0.02839100 -0.07683200 -0.02563200
v -0.02322400 -0.07683200 -0.03039200
v -0.03573600 -0.07683200 -0.01363700
v -0.01135200 -0.07683200 -0.03652700
v -0.03777400 -0.07692600 0.00641100
v 0.00099200 -0.07598300 0.04005400
v 0.00079300 -0.07580200 0.03859600
v -0.00068600 -0.07913900 0.03830400
v -0.00021200 -0.07936600 0.04019200
v 0.00519500 -0.07382600 0.03902400
v -0.00062200 -0.09278700 0.03822500
v -0.00013400 -0.09249600 0.04017600
v -0.00021200 -0.07936600 0.04019200
v -0.00068600 -0.07913900 0.03830400
v -0.00062200 -0.09278700 0.03822500
v 0.00262400 -0.09630900 0.03934000
v -0.00013400 -0.09249600 0.04017600
v 0.01198900 -0.09276700 0.03630800
v 0.01215500 -0.09198600 0.03830600
v 0.01005600 -0.09569100 0.03780900
v 0.01022500 -0.09541200 0.03860100
v 0.00573800 -0.09711000 0.03927200
v 0.01217400 -0.07871500 0.03830100
v 0.01198900 -0.09276700 0.03630800
v 0.01204000 -0.07899300 0.03631200
v 0.01215500 -0.09198600 0.03830600
v 0.01008800 -0.07541400 0.03871900
v 0.00911600 -0.07440300 0.03794000
v 0.00519500 -0.07382600 0.03902400
v 0.01124700 -0.07686200 0.03657000
v 0.01204000 -0.07899300 0.03631200
v 0.01217400 -0.07871500 0.03830100
v 0.01656700 -0.08979900 0.03451600
v 0.01198900 -0.09276700 0.03630800
v 0.02133800 -0.09293200 0.03174500
v 0.02934300 -0.09293200 0.02453600
v 0.02912700 -0.07683200 0.02479300
v 0.03502100 -0.09293200 0.01538000
v 0.03490400 -0.07683200 0.01564500
v 0.03830400 -0.09015500 -0.00104200
v 0.03792100 -0.09293200 0.00500500
v 0.03771100 -0.09280900 -0.00685700
v 0.01610500 -0.08154200 0.03472600
v 0.03788900 -0.07683200 0.00524500
v 0.03779400 -0.07671200 -0.00609100
v 0.03825300 -0.07942500 -0.00110400
v 0.02095000 -0.07681700 0.03200600
v 0.01204000 -0.07899300 0.03631200
v 0.01124700 -0.07686200 0.03657000
v -0.03643400 -0.07700900 0.01176500
v -0.03777400 -0.07692600 0.00641100
v -0.03620900 -0.08856900 0.01235800
v -0.03794500 -0.09289900 0.00515500
v -0.03730800 -0.09125600 0.00849100
v -0.02884300 -0.09293200 0.02512300
v -0.02970200 -0.07683200 0.02410100
v -0.03356700 -0.07683200 0.01833800
v -0.03470400 -0.09293200 0.01608400
v -0.02069300 -0.09293200 0.03216900
v -0.01899700 -0.07683200 0.03319900
v -0.02477000 -0.07683200 0.02914600
v -0.00595700 -0.08975700 0.03781500
v -0.01090200 -0.09293200 0.03666400
v -0.00062200 -0.09278700 0.03822500
v -0.00068600 -0.07913900 0.03830400
v -0.01243100 -0.07676300 0.03616900
v -0.00619400 -0.07683700 0.03775300
v 0.00079300 -0.07580200 0.03859600
v 0.00573800 -0.09711000 0.03927200
v 0.00133500 -0.09311700 0.03918600
v 0.00068600 -0.09276400 0.04001900
v 0.00784300 -0.09542600 0.03865000
v 0.01120800 -0.09257900 0.03842700
v 0.01031400 -0.09291500 0.03803400
v 0.01008800 -0.07541400 0.03871900
v 0.00519500 -0.07382600 0.03902400
v 0.01055900 -0.07754200 0.03772400
v 0.00064600 -0.07830900 0.03991600
v 0.00105800 -0.07766700 0.03917900
v 0.00519500 -0.07382600 0.03902400
v 0.01120800 -0.09257900 0.03842700
v 0.01100400 -0.09249800 0.03773700
v 0.01031400 -0.09291500 0.03803400
v 0.00068600 -0.09276400 0.04001900
v 0.00133500 -0.09311700 0.03918600
v 0.00065900 -0.09214500 0.03939400
v 0.00573800 -0.09711000 0.03927200
v 0.00784300 -0.09542600 0.03865000
v 0.00133500 -0.09311700 0.03918600
v 0.03979000 -0.09943200 -0.00607000
v 0.01055900 -0.07754200 0.03772400
v 0.01008800 -0.07541400 0.03871900
v 0.01055900 -0.07754200 0.03772400
v 0.01135700 -0.07902600 0.03842500
v 0.00064600 -0.07830900 0.03991600
v 0.00068600 -0.09276400 0.04001900
v 0.00065900 -0.09214500 0.03939400
v 0.00064600 -0.07830900 0.03991600
v 0.00065900 -0.09214500 0.03939400
v 0.00155700 -0.09113800 0.03961800
v 0.01100400 -0.09249800 0.03773700
v -0.02681100 -0.06836100 0.02985200
v -0.03862900 -0.06854100 0.01112300
v 0.03107900 -0.06834200 0.02536100
v 0.03495800 -0.06836300 0.01978800
v 0.04021900 -0.06850400 -0.00182100
v -0.01178700 -0.09293200 -0.03638900
v -0.01135200 -0.07683200 -0.03652700
vn -0.00000000 1.00000000 0.00000000
vn -0.00010000 1.00000000 -0.00000000
vn -0.00000000 1.00000000 0.00000000
vn -0.00000000 1.00000000 0.00000000
vn -0.00000000 1.00000000 0.00000000
vn -0.00000000 1.00000000 0.00000000
vn -0.00000000 1.00000000 0.00000000
vn -0.00000000 1.00000000 0.00000000
vn -0.00000000 1.00000000 0.00000000
vn -0.00000000 1.00000000 0.00000000
vn 0.00000000 1.00000000 -0.00010000
vn -0.00000000 1.00000000 0.00000000
vn -0.00000000 1.00000000 0.00000000
vn -0.00000000 1.00000000 0.00000000
vn -0.00000000 1.00000000 0.00000000
vn -0.00010000 1.00000000 -0.00000000
vn -0.00000000 1.00000000 0.00000000
vn -0.00010000 1.00000000 -0.00000000
vn -0.00000000 1.00000000 0.00000000
vn -0.00000000 1.00000000 0.00000000
vn 0.00000000 1.00000000 -0.00010000
vn 0.00000000 1.00000000 -0.00010000
vn -0.00000000 1.00000000 0.00000000
vn -0.00000000 1.00000000 0.00000000
vn -0.00000000 1.00000000 0.00000000
vn -0.00000000 1.00000000 0.00000000
vn -0.00000000 1.00000000 0.00000000
vn -0.00000000 1.00000000 0.00000000
vn -0.00000000 1.00000000 0.00000000
vn -0.00000000 1.00000000 0.00000000
vn -0.00000000 1.00000000 0.00000000
vn -0.00000000 1.00000000 0.00000000
vn -0.00000000 1.00000000 0.00000000
vn -0.00000000 1.00000000 0.00000000
vn -0.00000000 1.00000000 0.00000000
vn -0.59700000 0.29420000 -0.74640000
vn -0.59690000 0.29410000 -0.74650000
vn -0.41090000 0.29330000 -0.86320000
vn -0.49730000 0.29410000 -0.81620000
vn -0.29450000 0.29410000 -0.90930000
vn -0.81200000 0.29410000 -0.50420000
vn -0.67300000 0.29410000 -0.67870000
vn -0.90680000 0.29410000 -0.30220000
vn -0.93720000 0.29410000 -0.18740000
vn -0.95430000 0.29380000 -0.05510000
vn -0.93720000 0.29410000 -0.18730000
vn -0.48370000 0.29450000 -0.82420000
vn -0.62190000 0.29410000 -0.72580000
vn -0.75530000 0.29410000 -0.58570000
vn -0.85770000 0.29410000 -0.42160000
vn -0.92510000 0.29410000 -0.24030000
vn -0.95590000 0.29360000 0.00640000
vn -0.94700000 0.29430000 0.12880000
vn -0.95450000 0.29410000 -0.04910000
vn -0.94480000 0.29410000 0.14420000
vn 0.13820000 0.29350000 0.94590000
vn 0.06390000 0.29380000 0.95370000
vn 0.02430000 0.29330000 0.95570000
vn -0.01560000 0.29420000 0.95560000
vn 0.24550000 0.29400000 0.92370000
vn 0.40970000 0.29370000 0.86370000
vn 0.29980000 0.29420000 0.90750000
vn 0.24200000 0.29410000 0.92460000
vn -0.94720000 0.29350000 0.12920000
vn -0.94490000 0.29410000 0.14410000
vn -0.89420000 0.29410000 0.33740000
vn -0.72070000 0.29410000 0.62780000
vn -0.67970000 0.29410000 0.67200000
vn -0.51710000 0.29410000 0.80380000
vn -0.19460000 0.29330000 0.93600000
vn -0.27240000 0.29410000 0.91610000
vn -0.86720000 0.29410000 0.40190000
vn -0.80450000 0.29410000 0.51600000
vn -0.34760000 0.29410000 0.89030000
vn -0.15490000 0.29410000 0.94310000
vn -0.52510000 0.29410000 0.79860000
vn 0.47740000 0.29320000 0.82830000
vn 0.73320000 0.29410000 0.61310000
vn 0.53320000 0.29410000 0.79320000
vn 0.73940000 0.29410000 0.60570000
vn 0.84910000 0.29410000 0.43880000
vn 0.87510000 0.29410000 0.38430000
vn 0.92180000 0.29410000 0.25260000
vn 0.59720000 0.29410000 0.74620000
vn 0.94760000 0.29410000 0.12510000
vn 0.95420000 0.29410000 0.05540000
vn 0.94080000 0.29310000 -0.17020000
vn -0.92510000 -0.29410000 -0.24010000
vn -0.95600000 -0.29320000 0.00930000
vn -0.94270000 -0.29320000 0.15940000
vn -0.89300000 -0.29410000 -0.34080000
vn -0.93950000 -0.29410000 -0.17570000
vn -0.81550000 -0.29410000 -0.49850000
vn -0.94480000 -0.29410000 0.14410000
vn -0.70940000 -0.29410000 -0.64050000
vn -0.49070000 -0.29410000 -0.82020000
vn -0.43570000 -0.29410000 -0.85070000
vn -0.58030000 -0.29410000 -0.75940000
vn -0.28370000 -0.29410000 -0.91270000
vn -0.14410000 -0.29410000 -0.94490000
vn -0.95570000 -0.29410000 -0.01340000
vn -0.89960000 -0.29410000 -0.32290000
vn -0.94050000 -0.29410000 -0.17050000
vn -0.83410000 -0.29410000 -0.46660000
vn -0.63750000 -0.29410000 -0.71220000
vn -0.74600000 -0.29410000 -0.59750000
vn -0.51160000 -0.29410000 -0.80740000
vn -0.37170000 -0.29410000 -0.88050000
vn -0.22170000 -0.29410000 -0.92970000
vn -0.14280000 -0.29410000 -0.94510000
vn 0.24010000 -0.29410000 -0.92510000
vn 0.16220000 -0.29410000 -0.94190000
vn -0.00140000 -0.29410000 -0.95580000
vn 0.32750000 -0.29410000 -0.89790000
vn 0.48620000 -0.29410000 -0.82290000
vn -0.06560000 -0.29410000 -0.95350000
vn 0.09220000 -0.29410000 -0.95130000
vn 0.57380000 -0.29410000 -0.76440000
vn 0.62970000 -0.29410000 -0.71900000
vn 0.84440000 -0.29410000 -0.44780000
vn 0.75070000 -0.29410000 -0.59150000
vn 0.82020000 -0.29410000 -0.49070000
vn 0.90580000 -0.29430000 -0.30470000
vn 0.94350000 -0.29450000 -0.15160000
vn 0.39610000 -0.29410000 -0.86980000
vn 0.24760000 -0.29410000 -0.92320000
vn 0.53390000 -0.29410000 -0.79280000
vn 0.65710000 -0.29410000 -0.69410000
vn 0.76240000 -0.29410000 -0.57650000
vn 0.84430000 -0.29390000 -0.44800000
vn 0.90820000 -0.29410000 -0.29770000
vn 0.94490000 -0.29410000 -0.14410000
vn 0.98860000 0.00000000 -0.15080000
vn 0.96330000 0.00000000 -0.26840000
vn 0.99890000 -0.00000000 -0.04650000
vn 0.95030000 -0.00000000 -0.31150000
vn 0.88300000 0.00000000 -0.46940000
vn 0.88300000 -0.00000000 -0.46930000
vn 0.79760000 0.00000000 -0.60310000
vn 0.76710000 0.00000000 -0.64150000
vn 0.68750000 -0.00000000 -0.72620000
vn 0.63240000 0.00000000 -0.77470000
vn 0.55860000 -0.00000000 -0.82940000
vn 0.43310000 0.00000000 -0.90130000
vn 0.25900000 0.00000000 -0.96590000
vn 0.20470000 -0.00000000 -0.97880000
vn 0.41440000 -0.00000000 -0.91010000
vn 0.09650000 0.00000000 -0.99530000
vn -0.00720000 -0.00000000 -1.00000000
vn -0.06870000 -0.00000000 -0.99760000
vn -0.24380000 -0.00000000 -0.96980000
vn -0.38890000 -0.00000000 -0.92130000
vn -0.48440000 -0.00000000 -0.87480000
vn -0.53520000 -0.00000000 -0.84470000
vn -0.64020000 0.00000000 -0.76820000
vn -0.66690000 -0.00000000 -0.74510000
vn -0.74670000 0.00000000 -0.66510000
vn -0.78050000 -0.00000000 -0.62520000
vn -0.84580000 -0.00000000 -0.53350000
vn -0.23190000 0.00000000 -0.97270000
vn -0.95020000 0.00000000 -0.31170000
vn -0.87270000 0.00000000 -0.48820000
vn -0.94120000 0.00000000 -0.33790000
vn -0.98400000 0.00000000 -0.17830000
vn -0.99900000 -0.00000000 -0.04570000
vn -0.99990000 0.00000000 -0.01390000
vn -0.99500000 -0.00000000 0.09950000
vn -0.98860000 -0.00000000 0.15080000
vn -0.98860000 -0.00000000 0.15080000
vn -0.96100000 -0.00000000 0.27660000
vn -0.99500000 -0.00000000 0.10020000
vn -0.79760000 0.00000000 0.60310000
vn -0.77280000 -0.00000000 0.63460000
vn -0.89340000 0.00000000 0.44930000
vn -0.94260000 0.00000000 0.33390000
vn -0.55860000 -0.00000000 0.82950000
vn -0.52360000 -0.00000000 0.85200000
vn -0.66800000 0.00000000 0.74410000
vn -0.68750000 0.00000000 0.72620000
vn -0.41440000 -0.00000000 0.91010000
vn -0.33500000 0.00000000 0.94220000
vn -0.07790000 0.00000000 0.99700000
vn -0.13270000 0.00000000 0.99120000
vn -0.25640000 0.00000000 0.96660000
vn 0.06470000 0.00000000 0.99790000
vn 0.13380000 0.00000000 0.99100000
vn 0.23430000 0.00000000 0.97220000
vn 0.32290000 -0.00000000 0.94640000
vn 0.36090000 -0.00000000 0.93260000
vn 0.47390000 -0.00000000 0.88060000
vn 0.51820000 -0.00000000 0.85520000
vn 0.65570000 -0.00000000 0.75500000
vn 0.78050000 -0.00000000 0.62520000
vn 0.77490000 -0.00000000 0.63210000
vn 0.87270000 -0.00000000 0.48820000
vn 0.93480000 0.00000000 0.35530000
vn 0.87020000 -0.00000000 0.49280000
vn 0.98600000 -0.00000000 0.16700000
vn 0.94120000 -0.00000000 0.33790000
vn 0.99990000 -0.00000000 0.01400000
vn 0.99900000 -0.00000000 -0.04510000
vn 0.98860000 0.00000000 -0.15080000
vn 0.28110000 -0.29390000 0.91360000
vn 0.40390000 -0.29390000 0.86630000
vn 0.34480000 -0.29430000 0.89130000
vn 0.49510000 -0.29410000 0.81750000
vn 0.52310000 -0.29410000 0.79990000
vn 0.12630000 -0.29370000 0.94750000
vn 0.22330000 -0.29400000 0.92940000
vn 0.22390000 -0.29410000 0.92920000
vn 0.06180000 -0.29410000 0.95380000
vn 0.01970000 -0.29360000 0.95570000
vn -0.15460000 -0.29390000 0.94320000
vn -0.24500000 -0.29410000 0.92390000
vn -0.31020000 -0.29430000 0.90400000
vn -0.07440000 -0.29430000 0.95280000
vn -0.90100000 -0.29400000 0.31910000
vn -0.91000000 -0.29340000 0.29310000
vn -0.82550000 -0.29430000 0.48160000
vn 0.95410000 -0.29380000 -0.05820000
vn 0.94680000 -0.29410000 0.13110000
vn 0.94370000 -0.29380000 -0.15190000
vn 0.94480000 -0.29410000 -0.14410000
vn 0.92780000 -0.29430000 0.22920000
vn 0.95480000 -0.29410000 0.04260000
vn 0.87220000 -0.29410000 0.39090000
vn 0.72780000 -0.29410000 0.61950000
vn 0.75900000 -0.29430000 0.58080000
vn 0.63850000 -0.29410000 0.71120000
vn 0.95570000 -0.29410000 0.01330000
vn 0.94230000 -0.29410000 0.15970000
vn 0.74600000 -0.29410000 0.59750000
vn 0.89960000 -0.29410000 0.32290000
vn 0.83420000 -0.29410000 0.46660000
vn 0.62670000 -0.29410000 0.72160000
vn -0.47470000 -0.29410000 0.82960000
vn -0.41430000 -0.29420000 0.86130000
vn -0.56720000 -0.29430000 0.76920000
vn -0.61890000 -0.29410000 0.72830000
vn -0.74220000 -0.29410000 0.60220000
vn -0.83880000 -0.29410000 0.45820000
vn -0.94480000 -0.29410000 0.14410000
vn -0.94230000 -0.29430000 0.15970000
vn -0.39610000 -0.29410000 0.86980000
vn -0.53390000 -0.29410000 0.79280000
vn -0.65710000 -0.29410000 0.69410000
vn -0.85390000 -0.29410000 0.42940000
vn -0.76240000 -0.29410000 0.57650000
vn 0.83290000 0.29410000 -0.46870000
vn 0.83290000 0.29410000 -0.46880000
vn 0.90490000 0.29400000 -0.30770000
vn 0.94040000 0.29350000 -0.17190000
vn 0.89610000 0.29420000 -0.33230000
vn 0.94480000 0.29410000 -0.14410000
vn 0.74550000 0.29410000 -0.59810000
vn 0.84030000 0.29410000 -0.45530000
vn 0.62450000 0.29410000 -0.72350000
vn 0.48280000 0.29410000 -0.82490000
vn 0.33600000 0.29410000 -0.89480000
vn 0.32780000 0.29410000 -0.89780000
vn 0.33590000 0.29410000 -0.89480000
vn 0.69300000 0.29410000 -0.65820000
vn 0.81140000 0.29410000 -0.50520000
vn 0.54630000 0.29410000 -0.78430000
vn 0.37720000 0.29410000 -0.87820000
vn 0.19260000 0.29410000 -0.93620000
vn 0.01410000 0.29330000 -0.95590000
vn 0.16880000 0.29410000 -0.94080000
vn 0.15080000 -0.00000000 0.98860000
vn 0.15080000 -0.00000000 0.98860000
vn 0.15080000 -0.00000000 0.98860000
vn 0.15080000 -0.00000000 0.98860000
vn 0.15080000 -0.00000000 0.98860000
vn 0.15080000 -0.00000000 0.98860000
vn 0.15080000 -0.00000000 0.98860000
vn 0.15080000 -0.00000000 0.98860000
vn 0.15080000 -0.00000000 0.98860000
vn 0.15080000 -0.00000000 0.98860000
vn 0.15080000 -0.00000000 0.98860000
vn 0.15080000 -0.00000000 0.98860000
vn 0.15080000 -0.00000000 0.98860000
vn 0.15080000 -0.00000000 0.98860000
vn 0.15080000 -0.00000000 0.98860000
vn -0.98860000 -0.00000000 0.15080000
vn -0.98860000 -0.00000000 0.15080000
vn -0.98860000 -0.00000000 0.15080000
vn -0.93640000 -0.00000000 0.35100000
vn 0.01700000 -0.00000000 0.99990000
vn -0.47040000 0.00000000 0.88250000
vn 0.98820000 -0.00000000 -0.15350000
vn 0.92750000 -0.00000000 0.37390000
vn 0.54070000 -0.00000000 0.84120000
vn 0.15080000 -0.00000000 0.98860000
vn 0.15080000 -0.00000000 0.98860000
vn 0.15080000 -0.00000000 0.98860000
vn 0.15080000 -0.00000000 0.98860000
vn 0.15080000 -0.00000000 0.98860000
vn 0.15080000 -0.00000000 0.98860000
vn 0.15080000 -0.00000000 0.98860000
vn 0.15080000 -0.00000000 0.98860000
vn 0.15080000 -0.00000000 0.98860000
vn -0.15070000 -0.00020000 -0.98860000
vn -0.15070000 -0.00020000 -0.98860000
vn -0.15080000 0.00000000 -0.98860000
vn -0.15070000 -0.00020000 -0.98860000
vn -0.15080000 0.00000000 -0.98860000
vn -0.15100000 -0.00020000 -0.98850000
vn -0.15080000 0.00000000 -0.98860000
vn -0.15100000 -0.00020000 -0.98850000
vn -0.15100000 -0.00020000 -0.98850000
vn -0.15080000 0.00000000 -0.98860000
vn 0.00010000 -1.00000000 0.00010000
vn -0.00000000 -1.00000000 -0.00000000
vn 0.00020000 -1.00000000 0.00010000
vn 0.00020000 -1.00000000 0.00010000
vn -0.00000000 -1.00000000 -0.00000000
vn -0.00000000 -1.00000000 -0.00000000
vn 0.00020000 -1.00000000 0.00010000
vn 0.00010000 -1.00000000 0.00010000
vn -0.00000000 -1.00000000 -0.00000000
vn 0.00010000 -1.00000000 0.00010000
vn -0.00000000 -1.00000000 -0.00000000
vn 0.00010000 -1.00000000 -0.00010000
vn -0.00000000 -1.00000000 -0.00000000
vn -0.00000000 -1.00000000 -0.00000000
vn -0.00000000 -1.00000000 -0.00000000
vn -0.00000000 -1.00000000 -0.00000000
vn -0.00000000 -1.00000000 -0.00000000
vn -0.00000000 -1.00000000 -0.00000000
vn -0.00000000 -1.00000000 -0.00000000
vn -0.00000000 -1.00000000 -0.00000000
vn -0.00000000 -1.00000000 -0.00000000
vn 0.00010000 -1.00000000 -0.00010000
vn -0.00000000 -1.00000000 0.00010000
vn -0.00010000 -1.00000000 0.00020000
vn -0.00000000 -1.00000000 -0.00000000
vn -0.00000000 -1.00000000 -0.00000000
vn -0.00000000 -1.00000000 -0.00000000
vn -0.00000000 -1.00000000 -0.00000000
vn -0.00000000 -1.00000000 0.00010000
vn -0.00000000 -1.00000000 0.00010000
vn -0.00010000 -1.00000000 0.00020000
vn 0.00010000 -1.00000000 -0.00010000
vn -0.00010000 -1.00000000 0.00020000
vn -0.00000000 -1.00000000 -0.00000000
vn -0.00000000 -1.00000000 -0.00000000
vn -0.00000000 -1.00000000 -0.00000000
vn -0.00000000 -1.00000000 -0.00000000
vn -0.00000000 -1.00000000 -0.00000000
vn -0.00000000 -1.00000000 -0.00000000
vn -0.00000000 -1.00000000 -0.00000000
vn 0.67230000 0.00000000 -0.74020000
vn 0.57160000 -0.00000000 -0.82060000
vn 0.72510000 0.00000000 -0.68870000
vn 0.48150000 -0.00000000 -0.87640000
vn 0.82430000 0.00000000 -0.56620000
vn 0.93330000 0.00000000 -0.35910000
vn 0.93780000 -0.00000000 -0.34710000
vn 0.98860000 0.00000000 -0.15080000
vn 0.84890000 0.00000000 -0.52850000
vn 0.99950000 0.00000000 0.03160000
vn 0.99830000 0.00000000 0.05800000
vn 0.97470000 -0.00000000 0.22370000
vn 0.96440000 -0.00000000 0.26430000
vn 0.90990000 0.00000000 0.41470000
vn 0.80570000 0.00000000 0.59240000
vn 0.77360000 -0.00000000 0.63370000
vn 0.66720000 -0.00000000 0.74490000
vn 0.62490000 0.00000000 0.78070000
vn 0.50410000 -0.00000000 0.86360000
vn 0.88840000 0.00000000 0.45900000
vn 0.98860000 0.00000000 -0.15080000
vn 0.42790000 0.00000000 0.90380000
vn 0.32820000 -0.00000000 0.94460000
vn 0.20620000 -0.00000000 -0.97850000
vn 0.20150000 0.00000000 -0.97950000
vn 0.32750000 0.00000000 -0.94480000
vn 0.39460000 0.00000000 -0.91880000
vn 0.25320000 0.00000000 0.96740000
vn 0.15080000 -0.00000000 0.98860000
vn -0.03160000 -0.00000000 0.99950000
vn 0.02490000 -0.00000000 0.99970000
vn -0.22370000 0.00000000 0.97470000
vn -0.16210000 -0.00000000 0.98680000
vn -0.36370000 0.00000000 0.93150000
vn -0.41470000 -0.00000000 0.90990000
vn -0.54940000 0.00000000 0.83560000
vn -0.74490000 0.00000000 0.66720000
vn -0.71110000 0.00000000 0.70310000
vn -0.84180000 -0.00000000 0.53990000
vn -0.86360000 -0.00000000 0.50410000
vn -0.93560000 -0.00000000 0.35300000
vn -0.98860000 -0.00000000 0.15080000
vn -0.98860000 -0.00000000 0.15080000
vn -0.99790000 -0.00000000 -0.06440000
vn -0.94460000 0.00000000 0.32820000
vn -0.59240000 0.00000000 0.80560000
vn -0.95560000 0.00000000 -0.29460000
vn -0.96790000 -0.00000000 -0.25140000
vn -0.89740000 0.00000000 -0.44110000
vn -0.72090000 -0.00000000 -0.69300000
vn -0.86250000 -0.00000000 -0.50610000
vn -0.79020000 -0.00000000 -0.61280000
vn -0.99870000 -0.00000000 -0.05140000
vn -0.65060000 -0.00000000 -0.75940000
vn -0.50640000 0.00000000 -0.86230000
vn -0.60380000 0.70580000 0.37050000
vn -0.63270000 0.70610000 0.31790000
vn -0.54690000 0.70650000 0.44910000
vn 0.41880000 0.70660000 0.57040000
vn 0.33540000 0.70670000 0.62300000
vn 0.46440000 0.70620000 0.53450000
vn 0.68740000 0.70610000 0.16980000
vn 0.66130000 0.70680000 0.25130000
vn 0.69810000 0.70620000 0.11790000
vn 0.94770000 -0.00000000 -0.31910000
vn 0.98390000 0.00000000 -0.17900000
vn 0.94700000 0.00010000 -0.32130000
vn 0.98720000 -0.00000000 -0.15930000
vn 0.78000000 0.00010000 -0.62580000
vn 0.78550000 -0.00000000 -0.61890000
vn 0.87920000 0.00010000 -0.47640000
vn 0.65340000 -0.00000000 -0.75700000
vn 0.65880000 0.00000000 -0.75230000
vn 0.50530000 -0.00010000 -0.86300000
vn 0.50870000 0.00010000 -0.86090000
vn 0.17580000 0.00000000 -0.98440000
vn 0.01260000 0.00020000 -0.99990000
vn 0.00330000 -0.00000000 -1.00000000
vn 0.16970000 -0.00000000 -0.98550000
vn 0.34270000 0.00000000 -0.93950000
vn 0.34300000 0.00000000 -0.93930000
vn 0.88340000 -0.00010000 -0.46850000
vn -0.00150000 -0.00020000 -1.00000000
vn -0.06510000 -0.00200000 -0.99790000
vn -0.13530000 -0.00650000 -0.99080000
vn -0.13750000 -0.02960000 -0.99010000
vn -0.00140000 -0.00020000 -1.00000000
vn -0.15050000 -0.03090000 -0.98810000
vn -0.13440000 -0.03870000 -0.99020000
vn -0.13090000 -0.05880000 -0.98970000
vn -0.18690000 -0.00360000 -0.98240000
vn -0.25800000 -0.00130000 -0.96610000
vn -0.15910000 -0.03100000 -0.98680000
vn -0.99840000 0.00000000 -0.05720000
vn -0.99090000 0.00000000 0.13450000
vn -0.99990000 -0.00010000 0.01040000
vn -0.98180000 0.00000000 -0.18990000
vn -0.98230000 -0.00000000 -0.18750000
vn -0.52030000 0.00000000 -0.85400000
vn -0.70410000 -0.00000000 -0.71010000
vn -0.60890000 0.00000000 -0.79330000
vn -0.84960000 0.00000000 -0.52750000
vn -0.94870000 0.00010000 -0.31610000
vn -0.30410000 0.00010000 -0.95260000
vn -0.30820000 0.00020000 -0.95130000
vn -0.29970000 -0.00010000 -0.95400000
vn -0.45580000 -0.00010000 -0.89010000
vn -0.98300000 -0.00010000 -0.18380000
vn -0.85320000 -0.00010000 -0.52160000
vn -0.74230000 -0.00000000 -0.67010000
vn -0.60730000 -0.00000000 -0.79450000
vn -0.93430000 -0.00010000 -0.35650000
vn -0.29680000 -0.00020000 -0.95490000
vn -0.98590000 -0.00000000 0.16730000
vn -0.76070000 0.62220000 0.18510000
vn -0.73640000 0.65240000 0.17910000
vn -0.96290000 0.13420000 0.23430000
vn -0.96700000 0.09750000 0.23530000
vn -0.12480000 0.99170000 0.03040000
vn -0.97170000 0.00000000 0.23640000
vn -0.97170000 0.00000000 0.23640000
vn -0.97170000 0.00000000 0.23640000
vn -0.97170000 0.00000000 0.23640000
vn -0.91840000 -0.32640000 0.22340000
vn -0.49710000 -0.85920000 0.12100000
vn -0.92930000 -0.29210000 0.22610000
vn 0.94410000 -0.32400000 -0.06060000
vn 0.97510000 -0.21290000 -0.06260000
vn 0.63500000 -0.77140000 -0.04080000
vn 0.66480000 -0.74580000 -0.04270000
vn -0.03570000 -0.99940000 0.00230000
vn 0.99790000 -0.00000000 -0.06410000
vn 0.99790000 -0.00000000 -0.06410000
vn 0.99790000 -0.00000000 -0.06410000
vn 0.99790000 -0.00000000 -0.06410000
vn 0.66890000 0.74210000 -0.04300000
vn 0.49530000 0.86810000 -0.03180000
vn -0.09680000 0.99530000 0.00620000
vn 0.86510000 0.49840000 -0.05550000
vn 0.98560000 0.15690000 -0.06330000
vn 0.97770000 0.20020000 -0.06280000
vn 0.43270000 0.00010000 0.90150000
vn 0.31360000 0.00010000 0.94960000
vn 0.55780000 0.00010000 0.83000000
vn 0.76710000 0.00010000 0.64150000
vn 0.76150000 -0.00010000 0.64820000
vn 0.91560000 -0.00000000 0.40210000
vn 0.91250000 0.00000000 0.40900000
vn 0.99960000 0.00000000 -0.02720000
vn 0.99140000 0.00010000 0.13080000
vn 0.98390000 0.00000000 -0.17880000
vn 0.42070000 -0.00000000 0.90720000
vn 0.99060000 -0.00010000 0.13710000
vn 0.98730000 -0.00000000 -0.15910000
vn 0.99960000 -0.00000000 -0.02880000
vn 0.54770000 -0.00010000 0.83670000
vn 0.31470000 -0.00010000 0.94920000
vn 0.29390000 -0.00010000 0.95580000
vn -0.95160000 -0.00000000 0.30740000
vn -0.98590000 -0.00000000 0.16740000
vn -0.94640000 -0.00000000 0.32300000
vn -0.99090000 0.00000000 0.13460000
vn -0.97510000 0.00000000 0.22190000
vn -0.75410000 0.00000000 0.65680000
vn -0.77650000 -0.00010000 0.63010000
vn -0.87760000 -0.00010000 0.47940000
vn -0.90730000 0.00010000 0.42050000
vn -0.54100000 0.00010000 0.84100000
vn -0.49670000 -0.00010000 0.86790000
vn -0.64760000 -0.00010000 0.76200000
vn -0.15560000 0.00010000 0.98780000
vn -0.28500000 0.00010000 0.95850000
vn -0.01630000 0.00020000 0.99990000
vn -0.01800000 -0.00010000 0.99980000
vn -0.32510000 -0.00010000 0.94570000
vn -0.16190000 -0.00010000 0.98680000
vn 0.02150000 -0.00020000 0.99980000
vn 0.08560000 0.99620000 -0.01310000
vn 0.79090000 0.59990000 -0.12060000
vn 0.90220000 0.40880000 -0.13760000
vn -0.42550000 0.90260000 0.06490000
vn -0.91960000 0.36690000 0.14030000
vn -0.85680000 0.49880000 0.13070000
vn -0.67450000 -0.73110000 0.10290000
vn 0.02450000 -0.99970000 -0.00370000
vn -0.84000000 -0.52730000 0.12810000
vn 0.93330000 -0.32970000 -0.14240000
vn 0.86290000 -0.48790000 -0.13160000
vn 0.19930000 -0.97950000 -0.03050000
vn -0.92460000 0.35390000 0.14100000
vn -0.92480000 0.35330000 0.14110000
vn -0.86330000 0.48720000 0.13170000
vn 0.92290000 0.35840000 -0.14080000
vn 0.87020000 0.47450000 -0.13270000
vn 0.95050000 0.27500000 -0.14500000
vn 0.04410000 0.99900000 -0.00670000
vn -0.29700000 0.95380000 0.04530000
vn 0.68980000 0.71630000 -0.10520000
vn 0.94480000 0.29410000 -0.14420000
vn -0.98860000 0.00010000 0.15080000
vn -0.64240000 -0.76010000 0.09800000
vn -0.87980000 -0.45610000 0.13420000
vn -0.97340000 -0.17450000 0.14850000
vn 0.98860000 0.00000000 -0.15080000
vn 0.98860000 0.00000000 -0.15080000
vn 0.98860000 0.00000000 -0.15080000
vn 0.97890000 0.00000000 0.20450000
vn 0.78630000 0.00000000 0.61780000
vn -0.98880000 -0.00000000 0.14910000
vn -0.31390000 0.00000000 0.94950000
vn -0.47290000 0.70650000 0.52650000
vn -0.68020000 0.70640000 0.19580000
vn 0.54890000 0.70570000 0.44800000
vn 0.61600000 0.70640000 0.34860000
vn 0.70730000 0.70620000 -0.03180000
vn -0.15080000 -0.00440000 -0.98860000
vn -0.29680000 -0.00020000 -0.95500000
vt 0.09677200 0.06724000
vt 0.12616800 0.04917400
vt 0.12616800 0.04917400
vt 0.06920200 0.09853900
vt 0.15738400 0.03611800
vt 0.19030000 0.03197800
vt 0.36346100 0.17704300
vt 0.22052000 0.03201500
vt 0.25737100 0.03888400
vt 0.30534800 0.27564700
vt 0.30534800 0.27564700
vt 0.07768300 0.25261700
vt 0.05092500 0.13235400
vt 0.04617000 0.15525700
vt 0.04840100 0.18978800
vt 0.04840100 0.18978800
vt 0.05173800 0.20873900
vt 0.06157900 0.22978100
vt 0.06157900 0.22978100
vt 0.10741100 0.27895100
vt 0.10741100 0.27895100
vt 0.13606400 0.29338800
vt 0.13606400 0.29338800
vt 0.19595500 0.30641600
vt 0.16749100 0.30305600
vt 0.24134000 0.30195600
vt 0.29190500 0.05363700
vt 0.34163900 0.09822500
vt 0.31814700 0.07230700
vt 0.35795200 0.13103100
vt 0.34735800 0.23152400
vt 0.32244500 0.26210300
vt 0.28163600 0.28966600
vt 0.36019100 0.19957700
vt 0.36336700 0.15662600
vt 0.44591400 0.07199700
vt 0.44588000 0.06614600
vt 0.40892700 0.07274600
vt 0.42546400 0.06032000
vt 0.38792200 0.06032000
vt 0.50054900 0.06032000
vt 0.46300700 0.06032000
vt 0.53809200 0.06032000
vt 0.55804500 0.06614600
vt 0.58048500 0.06003600
vt 0.55804500 0.07197200
vt 0.42285200 0.09066300
vt 0.45133200 0.08362500
vt 0.48386500 0.08362500
vt 0.51639800 0.08362500
vt 0.54893000 0.08362500
vt 0.59077300 0.06289200
vt 0.61138800 0.06030000
vt 0.58146300 0.08362500
vt 0.61399600 0.08362500
vt 0.66055900 0.51876600
vt 0.64682700 0.51590400
vt 0.63957700 0.52497700
vt 0.63220000 0.50324500
vt 0.68070900 0.51359900
vt 0.71288000 0.52607700
vt 0.69111500 0.50318400
vt 0.68004200 0.52700400
vt 0.38296300 0.50354600
vt 0.38578300 0.52700100
vt 0.42256700 0.52700100
vt 0.48504900 0.50369600
vt 0.49613500 0.52700100
vt 0.53468200 0.50369600
vt 0.59907600 0.51243200
vt 0.58431500 0.50369600
vt 0.43541600 0.50369600
vt 0.45935100 0.52700100
vt 0.56970300 0.52700100
vt 0.60648700 0.52700100
vt 0.53291900 0.52700100
vt 0.72689900 0.51211000
vt 0.78864500 0.50369600
vt 0.73901200 0.50369600
vt 0.79040700 0.52700100
vt 0.82719200 0.52700100
vt 0.83827800 0.50369600
vt 0.86397600 0.52700100
vt 0.75362300 0.52700100
vt 0.88791100 0.50369600
vt 0.90076000 0.52700100
vt 0.94245800 0.50322000
vt 0.45696200 0.51534900
vt 0.41060700 0.50243000
vt 0.38286500 0.50332700
vt 0.47639600 0.50369600
vt 0.44483400 0.50369600
vt 0.50874500 0.50369600
vt 0.38578300 0.52700100
vt 0.54134800 0.50369600
vt 0.59356000 0.51534900
vt 0.60512900 0.50369600
vt 0.57365200 0.50369600
vt 0.63533200 0.50369600
vt 0.66166300 0.51534900
vt 0.41482300 0.52700100
vt 0.47290300 0.52700100
vt 0.44386300 0.52700100
vt 0.50194300 0.52700100
vt 0.56002300 0.52700100
vt 0.53098300 0.52700100
vt 0.58906300 0.52700100
vt 0.61810300 0.52700100
vt 0.64714300 0.52700100
vt 0.66190800 0.50316700
vt 0.73284300 0.51534900
vt 0.71819800 0.50369600
vt 0.68799500 0.50369600
vt 0.74967500 0.50369600
vt 0.78197800 0.50369600
vt 0.67618300 0.52700100
vt 0.70522300 0.52700100
vt 0.80133800 0.51534900
vt 0.81458200 0.50369600
vt 0.87849200 0.50369600
vt 0.84693000 0.50369600
vt 0.86944100 0.51534900
vt 0.90713300 0.50414700
vt 0.93611000 0.50416200
vt 0.76330300 0.52700100
vt 0.73426300 0.52700100
vt 0.79234300 0.52700100
vt 0.82138400 0.52700100
vt 0.85042400 0.52700100
vt 0.87843300 0.53158400
vt 0.90850400 0.52700100
vt 0.93754400 0.52700100
vt 0.36070200 0.06552800
vt 0.37992700 0.05868400
vt 0.34382700 0.05919900
vt 0.38710200 0.06552800
vt 0.41454200 0.06093100
vt 0.41454200 0.06093100
vt 0.43990300 0.06552800
vt 0.44771900 0.05868200
vt 0.46630300 0.06552800
vt 0.47801300 0.05899500
vt 0.49270300 0.06552800
vt 0.51580100 0.05874000
vt 0.54550300 0.06552800
vt 0.55440900 0.05911000
vt 0.51910300 0.06552800
vt 0.57190300 0.06552800
vt 0.58847400 0.05940400
vt 0.59830300 0.06552800
vt 0.62665100 0.05868000
vt 0.65110300 0.06552800
vt 0.66807700 0.05916700
vt 0.67750300 0.06552800
vt 0.69825100 0.05947900
vt 0.70390300 0.06552800
vt 0.72194200 0.05868700
vt 0.73030300 0.06552800
vt 0.74829800 0.05961500
vt 0.62470300 0.06552800
vt 0.78748100 0.05891200
vt 0.75670300 0.06552800
vt 0.78310300 0.06552800
vt 0.80950300 0.06552800
vt 0.83084100 0.05975800
vt 0.83590300 0.06552800
vt 0.85405400 0.05869700
vt 0.86230300 0.06552800
vt 0.36070200 0.06552800
vt 0.38129000 0.05939900
vt 0.35253300 0.05865000
vt 0.43990300 0.06552800
vt 0.44630900 0.06039200
vt 0.41093300 0.06140300
vt 0.39089900 0.06635800
vt 0.49270300 0.06552800
vt 0.49933400 0.05873200
vt 0.47051900 0.05877000
vt 0.46630300 0.06552800
vt 0.51910300 0.06552800
vt 0.53279800 0.05871200
vt 0.57489600 0.06659700
vt 0.56604800 0.05870100
vt 0.54592800 0.06686000
vt 0.59766100 0.06547000
vt 0.60875300 0.05867100
vt 0.62509300 0.06547700
vt 0.63981000 0.05869700
vt 0.64627500 0.06605300
vt 0.66615500 0.05963000
vt 0.67430200 0.06672000
vt 0.70152300 0.06155900
vt 0.73030300 0.06552800
vt 0.72886500 0.05873400
vt 0.75670300 0.06552800
vt 0.78014700 0.06042300
vt 0.75586700 0.05879200
vt 0.81134500 0.06162000
vt 0.78310300 0.06552800
vt 0.83590300 0.06552800
vt 0.84535200 0.05928000
vt 0.86230300 0.06552800
vt 0.63583300 0.50358500
vt 0.61164000 0.50789400
vt 0.62341000 0.52645200
vt 0.59260500 0.52576700
vt 0.58652200 0.50374900
vt 0.66497700 0.51460000
vt 0.64682700 0.51240600
vt 0.64671800 0.52705500
vt 0.67689300 0.52706300
vt 0.68461600 0.50735500
vt 0.71678200 0.50367200
vt 0.73377500 0.52562300
vt 0.74632900 0.50394100
vt 0.70195100 0.52591000
vt 0.90436300 0.52611600
vt 0.90939700 0.50305700
vt 0.87134300 0.51184600
vt 0.40166600 0.50522700
vt 0.43652800 0.50369600
vt 0.38432200 0.50402500
vt 0.38578300 0.52700100
vt 0.45493000 0.51147900
vt 0.42020300 0.51016100
vt 0.48637500 0.50369600
vt 0.53622300 0.50369600
vt 0.52707600 0.51120800
vt 0.55977300 0.51037100
vt 0.41482300 0.52700100
vt 0.44185000 0.53096800
vt 0.53098300 0.52700100
vt 0.47290300 0.52700100
vt 0.50194300 0.52700100
vt 0.56266800 0.53102600
vt 0.77953200 0.50369600
vt 0.76699100 0.51164000
vt 0.79985600 0.51130900
vt 0.81196600 0.50369600
vt 0.84440900 0.50369600
vt 0.87631600 0.50369600
vt 0.93754400 0.52700100
vt 0.93462700 0.50347500
vt 0.76330300 0.52700100
vt 0.79234300 0.52700100
vt 0.82138400 0.52700100
vt 0.88229800 0.53118100
vt 0.85042400 0.52700100
vt 0.67195400 0.07197200
vt 0.67195400 0.06614600
vt 0.64228200 0.06024500
vt 0.61869500 0.05991900
vt 0.64668300 0.08350000
vt 0.61399600 0.08362500
vt 0.69820200 0.06032000
vt 0.66937900 0.06032000
vt 0.72749700 0.06032000
vt 0.75678400 0.06032000
vt 0.78411800 0.06614600
vt 0.78558400 0.06032000
vt 0.78411800 0.07197200
vt 0.71159400 0.08362500
vt 0.67906100 0.08362500
vt 0.74412600 0.08362500
vt 0.77665900 0.08362500
vt 0.80919100 0.08362500
vt 0.83943500 0.05940100
vt 0.81326400 0.06027800
vt 0.01978700 0.03654200
vt 0.00669100 0.04382300
vt 0.02102200 0.03937400
vt 0.00035600 0.06053300
vt 0.00894200 0.07532700
vt 0.01818600 0.07641700
vt 0.02237200 0.07947900
vt 0.07478400 0.03987800
vt 0.07243400 0.03660700
vt 0.08602600 0.04329700
vt 0.08608800 0.05139400
vt 0.09275700 0.05884400
vt 0.07551700 0.07634700
vt 0.08954300 0.06940200
vt 0.07445500 0.07920600
vt 0.06023000 0.05951200
vt 0.05991200 0.05711700
vt 0.11367300 0.05697100
vt 0.11350700 0.06168500
vt 0.11204100 0.06215600
vt 0.11256900 0.05719500
vt 0.11386500 0.05782100
vt 0.11308500 0.06214200
vt 0.11221700 0.05720600
vt 0.10621700 0.03819400
vt 0.11620800 0.02954300
vt 0.16953700 0.02959500
vt 0.12320800 0.05997500
vt 0.11535300 0.06043200
vt 0.17710100 0.02857300
vt 0.19188200 0.04733200
vt 0.17084000 0.05986700
vt 0.17663200 0.06150100
vt 0.05450900 0.05032400
vt 0.05370100 0.04342500
vt 0.05370100 0.04342500
vt 0.08510500 0.07346000
vt 0.08510500 0.07346000
vt 0.08510500 0.07346000
vt 0.15510300 0.06072500
vt 0.15510300 0.06072500
vt 0.13435500 0.07259900
vt 0.16965200 0.04342700
vt 0.10554600 0.05800400
vt 0.10554600 0.05800400
vt 0.10554600 0.05800400
vt 0.02155700 0.12730200
vt 0.02155700 0.12730200
vt 0.04110400 0.10023300
vt 0.00878300 0.15771300
vt 0.00878300 0.15771300
vt 0.06819200 0.07786200
vt 0.00563100 0.18735200
vt 0.00563100 0.18735200
vt 0.32496000 0.18735200
vt 0.32496000 0.18735200
vt 0.03165700 0.26282800
vt 0.01684200 0.23812300
vt 0.00829700 0.21245000
vt 0.13624300 0.32297900
vt 0.05239600 0.28488300
vt 0.10652400 0.31559700
vt 0.07792600 0.30279800
vt 0.27819600 0.28488300
vt 0.22149700 0.05799000
vt 0.22149700 0.05799000
vt 0.22149700 0.05799000
vt 0.22149700 0.05799000
vt 0.23985700 0.06514000
vt 0.26240000 0.07786200
vt 0.28948700 0.10023300
vt 0.28948700 0.10023300
vt 0.30903500 0.12730200
vt 0.30903500 0.12730200
vt 0.32179000 0.15770400
vt 0.32179000 0.15770400
vt 0.22406700 0.31559700
vt 0.25266600 0.30279800
vt 0.19434900 0.32297900
vt 0.16529600 0.32528100
vt 0.31375000 0.23812300
vt 0.32229500 0.21245000
vt 0.29893400 0.26282800
vt 0.19564100 0.05796400
vt 0.17556000 0.06488900
vt 0.20704400 0.06488900
vt 0.15887200 0.05798900
vt 0.23151200 0.05798900
vt 0.26842400 0.05800200
vt 0.27060700 0.06501300
vt 0.30415100 0.06488900
vt 0.23852200 0.06488900
vt 0.33550100 0.05798900
vt 0.33987500 0.06488900
vt 0.36685100 0.05798900
vt 0.37344100 0.06488900
vt 0.39820100 0.05798900
vt 0.42955100 0.05798900
vt 0.43747900 0.06488900
vt 0.46090100 0.05798900
vt 0.46940800 0.06488900
vt 0.49225100 0.05798900
vt 0.40572500 0.06488900
vt 0.30415100 0.05798900
vt 0.50602200 0.06576400
vt 0.52360100 0.05798900
vt 0.11076300 0.05800600
vt 0.10990200 0.06488900
vt 0.13174300 0.05899100
vt 0.14341300 0.06488900
vt 0.53677700 0.06488600
vt 0.55495100 0.05798900
vt 0.58630100 0.05798900
vt 0.57684700 0.06682100
vt 0.61765100 0.05798900
vt 0.60766900 0.06488900
vt 0.64049400 0.06488900
vt 0.64900100 0.05798900
vt 0.67242400 0.06488900
vt 0.71170100 0.05798900
vt 0.70417800 0.06488900
vt 0.73646100 0.06488900
vt 0.74305100 0.05798900
vt 0.77002800 0.06488900
vt 0.80575100 0.05798900
vt 0.80575100 0.06488900
vt 0.84146400 0.05800500
vt 0.77440100 0.05798900
vt 0.68035100 0.05798900
vt 0.87839100 0.05798900
vt 0.87138000 0.06488900
vt 0.90285800 0.06488900
vt 0.95103000 0.05798900
vt 0.91426100 0.05796300
vt 0.93434200 0.06488900
vt 0.83924900 0.06488900
vt 0.96648900 0.06488900
vt 0.99560400 0.05795100
vt 0.17282200 0.06163600
vt 0.15947800 0.05654100
vt 0.19443500 0.05797100
vt 0.43357000 0.06141800
vt 0.41159000 0.05904400
vt 0.44650700 0.05633200
vt 0.54321300 0.06153700
vt 0.52412700 0.05794500
vt 0.55500200 0.05629100
vt 0.17436800 0.31128000
vt 0.11039000 0.28601800
vt 0.11000300 0.31039900
vt 0.17425100 0.28353400
vt 0.10990200 0.36505900
vt 0.17380400 0.36505900
vt 0.10990200 0.33736100
vt 0.10990200 0.39275700
vt 0.17380400 0.39275700
vt 0.10990200 0.42045400
vt 0.17380400 0.42045400
vt 0.10994400 0.47578000
vt 0.11112600 0.50313900
vt 0.14832600 0.50360800
vt 0.17380400 0.47585000
vt 0.17380400 0.44815200
vt 0.10990200 0.44815200
vt 0.17380400 0.33736100
vt 0.17380400 0.50354800
vt 0.14833800 0.50355600
vt 0.11123200 0.50299100
vt 0.13826700 0.52207200
vt 0.17380400 0.50354800
vt 0.17319200 0.52876800
vt 0.13775500 0.52211200
vt 0.11051600 0.50293900
vt 0.12745400 0.55426100
vt 0.15782900 0.55444000
vt 0.17304000 0.52887600
vt 0.11026700 0.74224800
vt 0.11001400 0.77404000
vt 0.17241000 0.75203700
vt 0.12614600 0.72070800
vt 0.14239100 0.72073700
vt 0.10990200 0.59313800
vt 0.10990200 0.62971400
vt 0.14238900 0.61014200
vt 0.10990200 0.66528400
vt 0.10990200 0.70084300
vt 0.12747700 0.55425700
vt 0.10990200 0.55444000
vt 0.15782900 0.55444000
vt 0.17380400 0.58213800
vt 0.17380400 0.72062800
vt 0.17380400 0.66523200
vt 0.17380400 0.63753400
vt 0.17380400 0.60983600
vt 0.17380400 0.69293000
vt 0.17380400 0.55444000
vt 0.17341700 0.77888700
vt 0.12502500 0.09177900
vt 0.12516900 0.08697800
vt 0.12289000 0.08458100
vt 0.12275000 0.09124500
vt 0.12808900 0.09197700
vt 0.11905600 -0.00733000
vt 0.11108100 -0.00633100
vt 0.11109400 0.03866200
vt 0.11881200 0.03944000
vt 0.12105500 0.08479500
vt 0.11821200 0.09107100
vt 0.12121200 0.09162000
vt 0.12366700 0.08476900
vt 0.12320200 0.09163600
vt 0.12586900 0.08961000
vt 0.12569800 0.09221500
vt 0.12876200 0.09363600
vt 0.10871000 0.04089500
vt 0.10077600 -0.00726200
vt 0.10080100 0.03994200
vt 0.10872400 -0.00458500
vt 0.11905100 0.09228300
vt 0.11820100 0.08934600
vt 0.11571700 0.09290600
vt 0.12029500 0.08511700
vt 0.12174300 0.08441300
vt 0.12157700 0.09123700
vt 0.12234400 0.08160100
vt 0.11055700 0.05969900
vt 0.10990200 0.10443800
vt 0.10990200 0.14812900
vt 0.17380400 0.14818800
vt 0.10990200 0.19094900
vt 0.17380400 0.19099200
vt 0.12095500 0.26027600
vt 0.10990200 0.23463900
vt 0.11036500 0.28589600
vt 0.15511700 0.08032500
vt 0.17380400 0.23465800
vt 0.17430600 0.28338200
vt 0.16353600 0.26122800
vt 0.17386000 0.10414100
vt 0.16522900 0.06152900
vt 0.17368100 0.05804600
vt 0.17310700 0.80289200
vt 0.17344400 0.77897000
vt 0.12725300 0.80626000
vt 0.11004600 0.77413400
vt 0.11656800 0.78910200
vt 0.10990200 0.86704000
vt 0.17380400 0.86056200
vt 0.17380400 0.83267500
vt 0.10990200 0.82334900
vt 0.10990200 0.90986000
vt 0.17380400 0.91633700
vt 0.17380400 0.88845000
vt 0.12251300 0.97450700
vt 0.10990200 0.95355000
vt 0.11047800 0.99827400
vt 0.16464600 0.99633400
vt 0.17407500 0.94533800
vt 0.17378700 0.97211000
vt 0.17783500 1.00274000
vt 0.11603800 0.05995100
vt 0.12031200 0.05323200
vt 0.12089900 0.06103700
vt 0.12692800 0.05646000
vt 0.12375000 0.06136400
vt 0.12434300 0.05530600
vt 0.11915600 0.06639700
vt 0.11558100 0.05373900
vt 0.12028800 0.04837600
vt 0.09864100 0.06064500
vt 0.09925500 0.05487700
vt 0.10329500 0.05880300
vt 0.12374000 0.06080300
vt 0.12375000 0.05294400
vt 0.12434600 0.05438500
vt 0.12091100 0.06175300
vt 0.12041100 0.05296200
vt 0.12127200 0.05386700
vt 0.11630900 0.07030200
vt 0.11482700 0.05161900
vt 0.11954700 0.03200200
vt 0.93754400 0.52700100
vt 0.11954500 0.06014000
vt 0.11891100 0.06245100
vt 0.12048600 0.05287700
vt 0.12167600 0.06133200
vt 0.06095700 0.05751700
vt 0.11829000 0.05708500
vt 0.11583800 0.05925800
vt 0.11043600 0.06195100
vt 0.11108900 0.05750800
vt 0.11387000 0.05783000
vt 0.11136000 0.06200900
vt 0.21834900 0.06021800
vt 0.13021400 0.05943200
vt 0.47348000 0.06067000
vt 0.50015000 0.06006300
vt 0.58850400 0.05940200
vt 0.10990200 0.55444000
vt 0.17380400 0.55444000
f 1/1/1 3/3/3 4/4/4
f 5/5/5 6/6/6 3/3/3
f 7/7/7 3/3/3 6/6/6
f 8/8/8 9/9/9 6/6/6
f 3/3/3 7/7/7 12/12/12
f 13/13/13 4/4/4 3/3/3
f 13/13/13 3/3/3 14/14/14
f 3/3/3 15/15/15 14/14/14
f 17/17/17 15/15/15 19/19/19
f 2/2/2 18/18/18 16/16/16
f 21/21/21 11/11/11 22/22/22
f 12/12/12 10/10/10 20/20/20
f 24/24/24 25/25/25 10/10/10
f 19/19/19 3/3/3 12/12/12
f 10/10/10 25/25/25 23/23/23
f 10/10/10 26/26/26 24/24/24
f 27/27/27 28/28/28 9/9/9
f 28/28/28 27/27/27 29/29/29
f 6/6/6 28/28/28 7/7/7
f 30/30/30 7/7/7 28/28/28
f 10/10/10 31/31/31 32/32/32
f 10/10/10 7/7/7 31/31/31
f 10/10/10 33/33/33 26/26/26
f 31/31/31 7/7/7 34/34/34
f 30/30/30 35/35/35 7/7/7
f 9/9/9 28/28/28 6/6/6
f 37/37/37 39/39/39 36/36/36
f 38/38/38 39/39/39 40/40/40
f 37/37/37 41/41/41 42/42/42
f 36/36/36 41/41/41 37/37/37
f 43/43/43 41/41/41 44/44/44
f 45/45/45 43/43/43 44/44/44
f 36/36/36 46/46/46 41/41/41
f 39/39/39 37/37/37 42/42/42
f 36/36/36 38/38/38 47/47/47
f 47/47/47 48/48/48 36/36/36
f 49/49/49 36/36/36 48/48/48
f 50/50/50 36/36/36 49/49/49
f 50/50/50 46/46/46 36/36/36
f 51/51/51 46/46/46 50/50/50
f 44/44/44 41/41/41 46/46/46
f 45/45/45 52/52/52 53/53/53
f 46/46/46 51/51/51 54/54/54
f 55/55/55 53/53/53 52/52/52
f 52/52/52 45/45/45 44/44/44
f 56/56/56 57/57/57 58/58/58
f 58/58/58 57/57/57 59/59/59
f 60/60/60 61/61/61 62/62/62
f 61/61/61 60/60/60 63/63/63
f 64/64/64 65/65/65 66/66/66
f 68/68/68 76/76/76 69/69/69
f 70/70/70 71/71/71 69/69/69
f 72/72/72 73/73/73 67/67/67
f 70/70/70 75/75/75 59/59/59
f 59/59/59 71/71/71 70/70/70
f 74/74/74 70/70/70 69/69/69
f 66/66/66 73/73/73 72/72/72
f 75/75/75 70/70/70 74/74/74
f 76/76/76 74/74/74 69/69/69
f 77/77/77 78/78/78 79/79/79
f 81/81/81 82/82/82 78/78/78
f 82/82/82 81/81/81 83/83/83
f 84/84/84 78/78/78 77/77/77
f 77/77/77 62/62/62 61/61/61
f 85/85/85 86/86/86 87/87/87
f 79/79/79 62/62/62 77/77/77
f 84/84/84 77/77/77 61/61/61
f 84/84/84 80/80/80 78/78/78
f 86/86/86 85/85/85 83/83/83
f 58/58/58 63/63/63 56/56/56
f 88/88/88 89/89/89 90/90/90
f 88/88/88 91/91/91 92/92/92
f 93/93/93 91/91/91 88/88/88
f 89/89/89 88/88/88 92/92/92
f 94/94/94 88/88/88 90/90/90
f 88/88/88 95/95/95 93/93/93
f 96/96/96 95/95/95 88/88/88
f 97/97/97 98/98/98 96/96/96
f 99/99/99 97/97/97 96/96/96
f 98/98/98 95/95/95 96/96/96
f 99/99/99 96/96/96 100/100/100
f 101/101/101 88/88/88 94/94/94
f 102/102/102 88/88/88 103/103/103
f 104/104/104 88/88/88 102/102/102
f 101/101/101 103/103/103 88/88/88
f 105/105/105 96/96/96 106/106/106
f 88/88/88 104/104/104 106/106/106
f 107/107/107 96/96/96 105/105/105
f 96/96/96 107/107/107 108/108/108
f 108/108/108 109/109/109 100/100/100
f 96/96/96 108/108/108 100/100/100
f 88/88/88 106/106/106 96/96/96
f 110/110/110 99/99/99 100/100/100
f 111/111/111 112/112/112 113/113/113
f 100/100/100 111/111/111 113/113/113
f 114/114/114 112/112/112 111/111/111
f 115/115/115 114/114/114 111/111/111
f 100/100/100 116/116/116 117/117/117
f 110/110/110 100/100/100 113/113/113
f 118/118/118 115/115/115 111/111/111
f 119/119/119 115/115/115 118/118/118
f 120/120/120 121/121/121 122/122/122
f 123/123/123 120/120/120 122/122/122
f 121/121/121 119/119/119 118/118/118
f 124/124/124 123/123/123 122/122/122
f 111/111/111 125/125/125 118/118/118
f 117/117/117 126/126/126 111/111/111
f 125/125/125 111/111/111 126/126/126
f 127/127/127 128/128/128 118/118/118
f 129/129/129 122/122/122 128/128/128
f 118/118/118 128/128/128 122/122/122
f 130/130/130 122/122/122 129/129/129
f 122/122/122 130/130/130 131/131/131
f 122/122/122 131/131/131 132/132/132
f 132/132/132 124/124/124 122/122/122
f 122/122/122 121/121/121 118/118/118
f 109/109/109 116/116/116 100/100/100
f 133/133/133 134/134/134 135/135/135
f 136/136/136 138/138/138 134/134/134
f 139/139/139 140/140/140 137/137/137
f 141/141/141 142/142/142 140/140/140
f 143/143/143 144/144/144 142/142/142
f 136/136/136 134/134/134 133/133/133
f 145/145/145 146/146/146 144/144/144
f 143/143/143 142/142/142 141/141/141
f 147/147/147 144/144/144 143/143/143
f 139/139/139 141/141/141 140/140/140
f 148/148/148 149/149/149 146/146/146
f 145/145/145 148/148/148 146/146/146
f 150/150/150 149/149/149 148/148/148
f 151/151/151 149/149/149 150/150/150
f 152/152/152 153/153/153 151/151/151
f 154/154/154 155/155/155 153/153/153
f 156/156/156 157/157/157 155/155/155
f 158/158/158 159/159/159 157/157/157
f 152/152/152 151/151/151 160/160/160
f 154/154/154 153/153/153 152/152/152
f 158/158/158 157/157/157 156/156/156
f 161/161/161 162/162/162 163/163/163
f 158/158/158 162/162/162 159/159/159
f 154/154/154 156/156/156 155/155/155
f 162/162/162 161/161/161 159/159/159
f 164/164/164 165/165/165 161/161/161
f 164/164/164 166/166/166 165/165/165
f 167/167/167 165/165/165 166/166/166
f 166/166/166 168/168/168 167/167/167
f 150/150/150 160/160/160 151/151/151
f 169/169/169 170/170/170 171/171/171
f 172/172/172 173/173/173 174/174/174
f 175/175/175 174/174/174 170/170/170
f 176/176/176 177/177/177 178/178/178
f 179/179/179 178/178/178 173/173/173
f 180/180/180 181/181/181 177/177/177
f 175/175/175 170/170/170 169/169/169
f 179/179/179 173/173/173 172/172/172
f 180/180/180 177/177/177 176/176/176
f 179/179/179 176/176/176 178/178/178
f 182/182/182 183/183/183 184/184/184
f 183/183/183 182/182/182 185/185/185
f 183/183/183 185/185/185 186/186/186
f 181/181/181 180/180/180 184/184/184
f 184/184/184 183/183/183 181/181/181
f 187/187/187 188/188/188 186/186/186
f 189/189/189 190/190/190 188/188/188
f 191/191/191 192/192/192 190/190/190
f 193/193/193 194/194/194 192/192/192
f 195/195/195 196/196/196 197/197/197
f 193/193/193 197/197/197 194/194/194
f 189/189/189 188/188/188 187/187/187
f 190/190/190 189/189/189 191/191/191
f 198/198/198 196/196/196 199/199/199
f 199/199/199 196/196/196 195/195/195
f 193/193/193 195/195/195 197/197/197
f 200/200/200 201/201/201 198/198/198
f 201/201/201 200/200/200 202/202/202
f 185/185/185 187/187/187 186/186/186
f 205/205/205 209/209/209 203/203/203
f 206/206/206 204/204/204 207/207/207
f 204/204/204 206/206/206 205/205/205
f 208/208/208 209/209/209 210/210/210
f 210/210/210 209/209/209 205/205/205
f 208/208/208 211/211/211 212/212/212
f 213/213/213 214/214/214 215/215/215
f 216/216/216 214/214/214 213/213/213
f 218/218/218 241/241/241 219/219/219
f 220/220/220 221/221/221 222/222/222
f 220/220/220 222/222/222 223/223/223
f 224/224/224 221/221/221 225/225/225
f 225/225/225 221/221/221 220/220/220
f 224/224/224 226/226/226 221/221/221
f 227/227/227 226/226/226 228/228/228
f 229/229/229 207/207/207 227/227/227
f 207/207/207 204/204/204 203/203/203
f 229/229/229 227/227/227 228/228/228
f 224/224/224 228/228/228 226/226/226
f 231/231/231 224/224/224 225/225/225
f 232/232/232 235/235/235 229/229/229
f 224/224/224 233/233/233 234/234/234
f 229/229/229 235/235/235 206/206/206
f 225/225/225 223/223/223 230/230/230
f 224/224/224 231/231/231 233/233/233
f 228/228/228 234/234/234 232/232/232
f 220/220/220 223/223/223 225/225/225
f 236/236/236 215/215/215 237/237/237
f 238/238/238 239/239/239 236/236/236
f 219/219/219 240/240/240 238/238/238
f 241/241/241 240/240/240 219/219/219
f 218/218/218 217/217/217 242/242/242
f 214/214/214 244/244/244 215/215/215
f 237/237/237 244/244/244 245/245/245
f 238/238/238 246/246/246 219/219/219
f 219/219/219 247/247/247 217/217/217
f 247/247/247 219/219/219 248/248/248
f 246/246/246 238/238/238 245/245/245
f 251/251/251 253/253/253 249/249/249
f 252/252/252 254/254/254 253/253/253
f 250/250/250 255/255/255 256/256/256
f 250/250/250 249/249/249 257/257/257
f 255/255/255 250/250/250 257/257/257
f 258/258/258 257/257/257 259/259/259
f 258/258/258 259/259/259 260/260/260
f 259/259/259 257/257/257 261/261/261
f 262/262/262 249/249/249 263/263/263
f 249/249/249 262/262/262 264/264/264
f 264/264/264 265/265/265 261/261/261
f 261/261/261 249/249/249 264/264/264
f 261/261/261 265/265/265 266/266/266
f 267/267/267 268/268/268 266/266/266
f 257/257/257 249/249/249 261/261/261
f 256/256/256 251/251/251 250/250/250
f 269/269/269 270/270/270 271/271/271
f 272/272/272 273/273/273 274/274/274
f 273/273/273 275/275/275 274/274/274
f 271/271/271 276/276/276 277/277/277
f 277/277/277 276/276/276 278/278/278
f 276/276/276 279/279/279 278/278/278
f 278/278/278 279/279/279 280/280/280
f 280/280/280 281/281/281 282/282/282
f 275/275/275 281/281/281 274/274/274
f 281/281/281 275/275/275 283/283/283
f 281/281/281 283/283/283 282/282/282
f 284/284/284 285/285/285 286/286/286
f 287/287/287 288/288/288 289/289/289
f 290/290/290 291/291/291 292/292/292
f 293/293/293 294/294/294 295/295/295
f 296/296/296 297/297/297 293/293/293
f 296/296/296 293/293/293 295/295/295
f 295/295/295 298/298/298 299/299/299
f 295/295/295 299/299/299 296/296/296
f 299/299/299 300/300/300 296/296/296
f 300/300/300 299/299/299 301/301/301
f 302/302/302 303/303/303 305/305/305
f 308/308/308 306/306/306 304/304/304
f 309/309/309 310/310/310 307/307/307
f 311/311/311 308/308/308 304/304/304
f 313/313/313 316/316/316 317/317/317
f 315/315/315 314/314/314 318/318/318
f 313/313/313 317/317/317 320/320/320
f 324/324/324 349/349/349 313/313/313
f 325/325/325 326/326/326 322/322/322
f 322/322/322 326/326/326 327/327/327
f 321/321/321 319/319/319 312/312/312
f 328/328/328 329/329/329 325/325/325
f 330/330/330 331/331/331 328/328/328
f 329/329/329 328/328/328 331/331/331
f 328/328/328 325/325/325 322/322/322
f 328/328/328 322/322/322 332/332/332
f 336/336/336 337/337/337 338/338/338
f 339/339/339 336/336/336 338/338/338
f 334/334/334 340/340/340 341/341/341
f 342/342/342 344/344/344 335/335/335
f 323/323/323 333/333/333 343/343/343
f 345/345/345 332/332/332 346/346/346
f 345/345/345 347/347/347 348/348/348
f 348/348/348 332/332/332 345/345/345
f 349/349/349 324/324/324 350/350/350
f 351/351/351 332/332/332 349/349/349
f 332/332/332 348/348/348 328/328/328
f 332/332/332 322/322/322 349/349/349
f 336/336/336 324/324/324 313/313/313
f 352/352/352 353/353/353 354/354/354
f 353/353/353 352/352/352 355/355/355
f 352/352/352 354/354/354 356/356/356
f 359/359/359 372/372/372 358/358/358
f 357/357/357 356/356/356 360/360/360
f 361/361/361 362/362/362 363/363/363
f 363/363/363 364/364/364 365/365/365
f 366/366/366 367/367/367 368/368/368
f 368/368/368 369/369/369 370/370/370
f 365/365/365 371/371/371 366/366/366
f 372/372/372 359/359/359 361/361/361
f 370/370/370 373/373/373 374/374/374
f 375/375/375 376/376/376 377/377/377
f 378/378/378 353/353/353 377/377/377
f 355/355/355 377/377/377 353/353/353
f 358/358/358 357/357/357 360/360/360
f 379/379/379 380/380/380 374/374/374
f 381/381/381 380/380/380 382/382/382
f 383/383/383 384/384/384 385/385/385
f 386/386/386 385/385/385 387/387/387
f 381/381/381 382/382/382 384/384/384
f 388/388/388 389/389/389 390/390/390
f 391/391/391 390/390/390 392/392/392
f 394/394/394 404/404/404 393/393/393
f 396/396/396 392/392/392 394/394/394
f 397/397/397 387/387/387 389/389/389
f 398/398/398 399/399/399 400/400/400
f 401/401/401 402/402/402 403/403/403
f 399/399/399 398/398/398 395/395/395
f 399/399/399 395/395/395 404/404/404
f 403/403/403 405/405/405 401/401/401
f 401/401/401 405/405/405 406/406/406
f 379/379/379 382/382/382 380/380/380
f 407/407/407 408/408/408 409/409/409
f 410/410/410 411/411/411 412/412/412
f 413/413/413 414/414/414 415/415/415
f 416/416/416 419/419/419 417/417/417
f 421/421/421 433/433/433 422/422/422
f 424/424/424 421/421/421 420/420/420
f 426/426/426 424/424/424 423/423/423
f 427/427/427 428/428/428 429/429/429
f 431/431/431 432/432/432 427/427/427
f 431/431/431 426/426/426 425/425/425
f 422/422/422 433/433/433 418/418/418
f 430/430/430 427/427/427 429/429/429
f 430/430/430 429/429/429 434/434/434
f 435/435/435 436/436/436 437/437/437
f 437/437/437 439/439/439 435/435/435
f 441/441/441 567/567/567 440/440/440
f 443/443/443 444/444/444 440/440/440
f 446/446/446 465/465/465 447/447/447
f 448/448/448 445/445/445 449/449/449
f 449/449/449 445/445/445 447/447/447
f 450/450/450 451/451/451 452/452/452
f 453/453/453 454/454/454 448/448/448
f 452/452/452 451/451/451 453/453/453
f 454/454/454 445/445/445 448/448/448
f 455/455/455 456/456/456 450/450/450
f 449/449/449 453/453/453 448/448/448
f 457/457/457 455/455/455 452/452/452
f 452/452/452 455/455/455 450/450/450
f 452/452/452 453/453/453 449/449/449
f 452/452/452 458/458/458 457/457/457
f 447/447/447 459/459/459 449/449/449
f 460/460/460 461/461/461 452/452/452
f 462/462/462 458/458/458 452/452/452
f 449/449/449 463/463/463 460/460/460
f 461/461/461 462/462/462 452/452/452
f 449/449/449 459/459/459 463/463/463
f 464/464/464 457/457/457 458/458/458
f 466/466/466 467/467/467 468/468/468
f 466/466/466 468/468/468 469/469/469
f 470/470/470 467/467/467 466/466/466
f 471/471/471 472/472/472 473/473/473
f 473/473/473 474/474/474 471/471/471
f 475/475/475 476/476/476 477/477/477
f 478/478/478 479/479/479 480/480/480
f 481/481/481 480/480/480 479/479/479
f 482/482/482 480/480/480 481/481/481
f 483/483/483 486/486/486 485/485/485
f 487/487/487 488/488/488 489/489/489
f 490/490/490 488/488/488 487/487/487
f 491/491/491 490/490/490 492/492/492
f 492/492/492 490/490/490 487/487/487
f 493/493/493 494/494/494 495/495/495
f 497/497/497 507/507/507 495/495/495
f 499/499/499 497/497/497 496/496/496
f 500/500/500 501/501/501 502/502/502
f 493/493/493 503/503/503 494/494/494
f 504/504/504 499/499/499 498/498/498
f 505/505/505 500/500/500 502/502/502
f 504/504/504 500/500/500 506/506/506
f 495/495/495 507/507/507 493/493/493
f 503/503/503 493/493/493 507/507/507
f 508/508/508 503/503/503 509/509/509
f 509/509/509 503/503/503 507/507/507
f 505/505/505 504/504/504 506/506/506
f 501/501/501 500/500/500 504/504/504
f 503/503/503 508/508/508 494/494/494
f 510/510/510 511/511/511 512/512/512
f 513/513/513 514/514/514 511/511/511
f 517/517/517 518/518/518 515/515/515
f 514/514/514 513/513/513 518/518/518
f 519/519/519 520/520/520 521/521/521
f 522/522/522 523/523/523 524/524/524
f 518/518/518 512/512/512 514/514/514
f 522/522/522 524/524/524 525/525/525
f 512/512/512 518/518/518 517/517/517
f 520/520/520 519/519/519 523/523/523
f 511/511/511 514/514/514 512/512/512
f 517/517/517 510/510/510 512/512/512
f 522/522/522 527/527/527 526/526/526
f 516/516/516 515/515/515 521/521/521
f 523/523/523 522/522/522 526/526/526
f 525/525/525 528/528/528 527/527/527
f 529/529/529 530/530/530 531/531/531
f 532/532/532 533/533/533 534/534/534
f 535/535/535 536/536/536 537/537/537
f 538/538/538 539/539/539 540/540/540
f 541/541/541 542/542/542 543/543/543
f 544/544/544 545/545/545 546/546/546
f 547/547/547 548/548/548 549/549/549
f 46/46/46 54/54/54 44/44/44
f 63/63/63 60/60/60 56/56/56
f 64/64/64 66/66/66 72/72/72
f 73/73/73 68/68/68 67/67/67
f 82/82/82 83/83/83 85/85/85
f 86/86/86 550/550/550 87/87/87
f 100/100/100 117/117/117 111/111/111
f 125/125/125 127/127/127 118/118/118
f 145/145/145 144/144/144 147/147/147
f 164/164/164 161/161/161 163/163/163
f 213/213/213 212/212/212 216/216/216
f 216/216/216 212/212/212 211/211/211
f 224/224/224 234/234/234 228/228/228
f 211/211/211 208/208/208 210/210/210
f 238/238/238 236/236/236 237/237/237
f 240/240/240 239/239/239 238/238/238
f 237/237/237 245/245/245 238/238/238
f 246/246/246 248/248/248 219/219/219
f 261/261/261 266/266/266 268/268/268
f 253/253/253 263/263/263 249/249/249
f 268/268/268 260/260/260 259/259/259
f 271/271/271 277/277/277 269/269/269
f 284/284/284 286/286/286 551/551/551
f 552/552/552 553/553/553 554/554/554
f 555/555/555 556/556/556 557/557/557
f 558/558/558 559/559/559 288/288/288
f 288/288/288 559/559/559 289/289/289
f 560/560/560 287/287/287 289/289/289
f 561/561/561 292/292/292 291/291/291
f 354/354/354 360/360/360 356/356/356
f 362/362/362 364/364/364 363/363/363
f 364/364/364 371/371/371 365/365/365
f 367/367/367 369/369/369 368/368/368
f 369/369/369 373/373/373 370/370/370
f 371/371/371 367/367/367 366/366/366
f 359/359/359 362/362/362 361/361/361
f 373/373/373 379/379/379 374/374/374
f 378/378/378 377/377/377 376/376/376
f 383/383/383 385/385/385 386/386/386
f 386/386/386 387/387/387 397/397/397
f 381/381/381 384/384/384 383/383/383
f 388/388/388 390/390/390 391/391/391
f 391/391/391 392/392/392 396/396/396
f 396/396/396 394/394/394 393/393/393
f 397/397/397 389/389/389 388/388/388
f 398/398/398 400/400/400 402/402/402
f 400/400/400 403/403/403 402/402/402
f 409/409/409 562/562/562 407/407/407
f 408/408/408 407/407/407 563/563/563
f 412/412/412 564/564/564 410/410/410
f 414/414/414 413/413/413 565/565/565
f 415/415/415 566/566/566 413/413/413
f 444/444/444 443/443/443 568/568/568
f 443/443/443 440/440/440 442/442/442
f 449/449/449 460/460/460 452/452/452
f 500/500/500 505/505/505 506/506/506
f 527/527/527 522/522/522 525/525/525
f 519/519/519 521/521/521 515/515/515
f 7/7/7 10/10/10 12/12/12
f 39/39/39 38/38/38 36/36/36
f 55/55/55 52/52/52 54/54/54
f 68/68/68 69/69/69 67/67/67
f 75/75/75 58/58/58 59/59/59
f 81/81/81 78/78/78 80/80/80
f 205/205/205 203/203/203 204/204/204
f 218/218/218 219/219/219 217/217/217
f 231/231/231 225/225/225 230/230/230
f 232/232/232 229/229/229 228/228/228
f 229/229/229 206/206/206 207/207/207
f 218/218/218 242/242/242 243/243/243
f 244/244/244 237/237/237 215/215/215
f 251/251/251 249/249/249 250/250/250
f 252/252/252 253/253/253 251/251/251
f 349/349/349 322/322/322 313/313/313
f 372/372/372 357/357/357 358/358/358
f 404/404/404 395/395/395 393/393/393
f 416/416/416 417/417/417 418/418/418
f 421/421/421 422/422/422 420/420/420
f 424/424/424 420/420/420 423/423/423
f 426/426/426 423/423/423 425/425/425
f 431/431/431 427/427/427 430/430/430
f 431/431/431 425/425/425 432/432/432
f 433/433/433 416/416/416 418/418/418
f 439/439/439 438/438/438 435/435/435
f 567/567/567 442/442/442 440/440/440
f 446/446/446 447/447/447 445/445/445
f 486/486/486 484/484/484 485/485/485
f 497/497/497 495/495/495 496/496/496
f 499/499/499 496/496/496 498/498/498
f 504/504/504 498/498/498 501/501/501
f 517/517/517 515/515/515 516/516/516
f 520/520/520 523/523/523 526/526/526
f 54/54/54 52/52/52 44/44/44
f 261/261/261 268/268/268 259/259/259

