mtllib material.mtl
usemtl Material-7011油漆.019
v -0.03754600 -0.15494000 -0.24027100
v -0.02097400 -0.15492600 -0.21624900
v -0.03750800 -0.14845600 -0.23206300
v -0.02028300 -0.14848300 -0.21398600
v 0.03663400 -0.15494400 -0.26250500
v 0.02329700 -0.15493200 -0.28033600
v 0.04100100 -0.14847500 -0.26409000
v 0.00269500 -0.15493300 -0.28893600
v 0.01233700 -0.14854200 -0.28974600
v -0.01920100 -0.15493200 -0.28308100
v -0.01329200 -0.14854400 -0.28881500
v -0.03515500 -0.15496300 -0.26636300
v -0.03880500 -0.14847500 -0.26808100
v -0.03754600 -0.15494000 -0.24027100
v 0.01319600 -0.14849600 -0.21114000
v 0.01007000 -0.15475700 -0.21167600
v 0.03465600 -0.14847200 -0.22606300
v 0.03517800 -0.15495700 -0.23202400
v 0.03663400 -0.15494400 -0.26250500
v 0.04100100 -0.14847500 -0.26409000
v 0.01007000 -0.15475700 -0.21167600
v -0.02097400 -0.15492600 -0.21624900
v 0.03517800 -0.15495700 -0.23202400
v 0.00269500 -0.15493300 -0.28893600
v 0.02329700 -0.15493200 -0.28033600
v 0.03663400 -0.15494400 -0.26250500
v 0.01319600 -0.14849600 -0.21114000
v 0.03465600 -0.14847200 -0.22606300
v 0.03465600 -0.14847200 -0.22606300
v 0.03465600 -0.14847200 -0.22606300
v -0.02028300 -0.14848300 -0.21398600
v 0.04100100 -0.14847500 -0.26409000
v 0.04100100 -0.14847500 -0.26409000
v -0.03880500 -0.14847500 -0.26808100
v -0.03880500 -0.14847500 -0.26808100
v -0.03880500 -0.14847500 -0.26808100
v 0.01233700 -0.14854200 -0.28974600
v -0.03750800 -0.14845600 -0.23206300
v -0.03750800 -0.14845600 -0.23206300
v -0.01329200 -0.14854400 -0.28881500
v 0.01319600 -0.14849600 -0.21114000
v -0.02028300 -0.14848300 -0.21398600
v 0.01007000 -0.15475700 -0.21167600
v 0.01007000 -0.15475700 -0.21167600
v -0.02097400 -0.15492600 -0.21624900
v -0.03515500 -0.15496300 -0.26636300
v -0.02097400 -0.15492600 -0.21624900
v -0.03754600 -0.15494000 -0.24027100
v -0.01920100 -0.15493200 -0.28308100
v 0.00269500 -0.15493300 -0.28893600
v 0.00269500 -0.15493300 -0.28893600
v 0.03517800 -0.15495700 -0.23202400
v 0.03517800 -0.15495700 -0.23202400
v 0.03663400 -0.15494400 -0.26250500
v -0.03750800 -0.14845600 -0.23206300
vn -0.88450000 -0.40380000 0.23360000
vn -0.49540000 -0.39810000 0.77210000
vn -0.82490000 -0.40290000 0.39640000
vn -0.44860000 -0.40230000 0.79800000
vn 0.86280000 -0.40540000 -0.30210000
vn 0.55660000 -0.40610000 -0.72470000
vn 0.86920000 -0.39000000 -0.30400000
vn 0.06380000 -0.39990000 -0.91430000
vn 0.26930000 -0.39860000 -0.87670000
vn -0.45870000 -0.40610000 -0.79030000
vn -0.29780000 -0.40330000 -0.86520000
vn -0.83190000 -0.40180000 -0.38280000
vn -0.83620000 -0.38890000 -0.38670000
vn -0.89020000 -0.39720000 0.22290000
vn 0.29450000 -0.40470000 0.86570000
vn 0.23950000 -0.39920000 0.88500000
vn 0.75860000 -0.39350000 0.51930000
vn 0.81740000 -0.39670000 0.41770000
vn 0.87760000 -0.38730000 -0.28250000
vn 0.88050000 -0.37410000 -0.29130000
vn 0.00000000 -1.00000000 0.00000000
vn 0.00000000 -1.00000000 0.00000000
vn 0.00000000 -1.00000000 0.00000000
vn 0.00000000 -1.00000000 0.00000000
vn 0.00000000 -1.00000000 0.00000000
vn 0.00000000 -1.00000000 0.00000000
vn 0.00000000 1.00000000 0.00000000
vn -0.00000000 1.00000000 -0.00010000
vn -0.00000000 1.00000000 0.00010000
vn 0.00000000 1.00000000 0.00000000
vn 0.00000000 1.00000000 0.00000000
vn 0.00000000 1.00000000 0.00000000
vn -0.00000000 1.00000000 -0.00010000
vn 0.00000000 1.00000000 0.00000000
vn -0.00000000 1.00000000 -0.00010000
vn -0.00000000 1.00000000 0.00010000
vn 0.00000000 1.00000000 0.00000000
vn 0.00000000 1.00000000 0.00000000
vn -0.00000000 1.00000000 0.00010000
vn 0.00000000 1.00000000 0.00000000
vn -0.08720000 0.00000000 0.99620000
vn -0.08720000 0.00000000 0.99620000
vn -0.08710000 -0.00000000 0.99620000
vn -0.08720000 0.00000000 0.99620000
vn -0.08720000 0.00000000 0.99620000
vn 0.00000000 -1.00000000 0.00000000
vn 0.00000000 -1.00000000 0.00000000
vn 0.00000000 -1.00000000 0.00000000
vn 0.00000000 -1.00000000 0.00000000
vn -0.00000000 -1.00000000 0.00010000
vn 0.00000000 -1.00000000 0.00000000
vn -0.00000000 -1.00000000 0.00010000
vn 0.00000000 -1.00000000 0.00000000
vn -0.00000000 -1.00000000 0.00010000
vn -0.84280000 -0.37930000 0.38190000
vt 0.51321600 0.28668400
vt 0.59735600 0.28715800
vt 0.53408300 0.33735000
vt 0.60265200 0.33647700
vt 0.36588000 0.96512100
vt 0.43684900 0.96434700
vt 0.36365200 1.01535700
vt 0.50806200 0.96430500
vt 0.48031700 1.01407100
vt 0.58054200 0.96434700
vt 0.55690100 1.01388200
vt 0.65512500 0.96357200
vt 0.65445200 1.01337600
vt 0.73821000 0.96261800
vt 0.36516700 1.01444400
vt 0.35669100 0.96723000
vt 0.44399600 1.01268800
vt 0.45897900 0.96374800
vt 0.55628200 0.95827300
vt 0.55962600 1.01125900
vt 0.16372000 0.56669800
vt 0.08053000 0.50679600
vt 0.23896000 0.44233200
vt 0.16915100 0.00497200
vt 0.22252100 0.08472700
vt 0.25301200 0.22450800
vt 0.06509900 0.28383600
vt 0.00991400 0.40500800
vt 0.00991400 0.40500800
vt 0.00991400 0.40500800
vt 0.15744700 0.28323700
vt 0.00165100 0.68328800
vt 0.00165100 0.68328800
vt 0.22111900 0.66171100
vt 0.22111900 0.66171100
vt 0.22111900 0.66171100
vt 0.08628200 0.85022000
vt 0.20894100 0.40275000
vt 0.20894100 0.40275000
vt 0.15623200 0.82738000
vt 0.14186200 0.28283400
vt 0.23420900 0.28275100
vt 0.15056900 0.32832300
vt 0.15056900 0.32832300
vt 0.23667100 0.33030700
vt 0.07491900 0.58632600
vt 0.12575300 0.23382500
vt 0.07462300 0.39663000
vt 0.11459800 0.71697600
vt 0.17315000 0.77301700
vt 0.17315000 0.77301700
vt 0.27572200 0.38303700
vt 0.27572200 0.38303700
vt 0.27240600 0.60380100
vt 0.76189300 1.00812400
f 1/1/1 2/2/2 3/3/3
f 4/4/4 3/3/3 2/2/2
f 5/5/5 6/6/6 7/7/7
f 6/6/6 8/8/8 9/9/9
f 6/6/6 9/9/9 7/7/7
f 8/8/8 10/10/10 11/11/11
f 9/9/9 8/8/8 11/11/11
f 10/10/10 12/12/12 13/13/13
f 12/12/12 14/14/14 13/13/13
f 10/10/10 13/13/13 11/11/11
f 15/15/15 16/16/16 17/17/17
f 16/16/16 18/18/18 17/17/17
f 18/18/18 19/19/19 20/20/20
f 20/20/20 17/17/17 18/18/18
f 21/21/21 22/22/22 23/23/23
f 24/24/24 25/25/25 26/26/26
f 27/27/27 30/30/30 31/31/31
f 36/36/36 39/39/39 29/29/29
f 32/32/32 37/37/37 34/34/34
f 30/30/30 38/38/38 31/31/31
f 34/34/34 37/37/37 40/40/40
f 41/41/41 42/42/42 44/44/44
f 45/45/45 43/43/43 42/42/42
f 46/46/46 47/47/47 48/48/48
f 47/47/47 46/46/46 49/49/49
f 51/51/51 53/53/53 49/49/49
f 52/52/52 50/50/50 54/54/54
f 14/14/14 55/55/55 13/13/13
f 35/35/35 28/28/28 33/33/33
f 53/53/53 47/47/47 49/49/49

