mtllib material.mtl
usemtl Material-7011油漆.021
v -0.04628900 -0.01053100 0.00269100
v -0.04626500 -0.01103200 0.00705800
v -0.04463900 -0.01053100 0.01272100
v -0.04569000 -0.01103200 0.01013200
v -0.04491100 -0.01103200 0.01316100
v -0.04393200 -0.01103200 0.01613200
v -0.04275600 -0.01103200 0.01903000
v -0.04159300 -0.01053200 0.02042500
v -0.04139000 -0.01103200 0.02184300
v -0.03744700 -0.01053200 0.02736100
v -0.03983800 -0.01103200 0.02455900
v -0.03810900 -0.01103200 0.02716500
v -0.03239800 -0.01053200 0.03311600
v -0.03414800 -0.01103200 0.03200200
v -0.03193500 -0.01103200 0.03421200
v -0.02957800 -0.01103200 0.03626800
v -0.03621000 -0.01103200 0.02965000
v -0.02807000 -0.01053200 0.03684000
v -0.02709000 -0.01103200 0.03816300
v -0.02330600 -0.01053200 0.04003900
v -0.01737900 -0.01053100 0.04296600
v -0.01894500 -0.01103200 0.04279400
v -0.01604500 -0.01103200 0.04396400
v -0.01307200 -0.01103200 0.04493700
v -0.02176100 -0.01103200 0.04143300
v -0.01142700 -0.01053200 0.04488400
v -0.01004200 -0.01103200 0.04571000
v -0.00533800 -0.01053100 0.04603800
v -0.00696600 -0.01103200 0.04627900
v -0.00386000 -0.01103200 0.04664100
v 0.00288600 -0.01053200 0.04628900
v -0.00073600 -0.01103200 0.04679400
v 0.00239100 -0.01103200 0.04673900
v 0.00550800 -0.01103200 0.04647500
v 0.00860000 -0.01103200 0.04600300
v 0.01048600 -0.01053100 0.04512600
v 0.01165300 -0.01103200 0.04532600
v 0.01465500 -0.01103200 0.04444600
v 0.01598100 -0.01053200 0.04347100
v 0.01759100 -0.01103200 0.04336800
v 0.02145500 -0.01053200 0.04107100
v 0.03404900 -0.01053200 0.03141000
v 0.03312500 -0.01103200 0.03306000
v 0.03525900 -0.01103200 0.03077400
v 0.03723600 -0.01103200 0.02835000
v 0.02825500 -0.01053200 0.03680000
v 0.03084300 -0.01103200 0.03519900
v 0.02321400 -0.01103200 0.04063700
v 0.03861400 -0.01053300 0.02566100
v 0.03904700 -0.01103200 0.02579900
v 0.04068300 -0.01103200 0.02313400
v 0.04238000 -0.01053200 0.01875900
v 0.04340300 -0.01103200 0.01750500
v 0.04447500 -0.01103200 0.01456700
v 0.04504700 -0.01053000 0.01101800
v 0.04602000 -0.01103200 0.00850900
v 0.04648600 -0.01103200 0.00541600
v 0.04615600 -0.01053200 0.00383700
v 0.04674400 -0.01103200 0.00229900
v 0.04628900 -0.01053200 -0.00269100
v 0.04679300 -0.01103200 -0.00082800
v 0.04663300 -0.01103200 -0.00395200
v 0.04626500 -0.01103200 -0.00705800
v 0.04681600 -0.04407600 0.00041000
v 0.04638800 -0.04433100 -0.00279100
v 0.04654400 -0.04415600 -0.00502900
v 0.04654400 -0.04415600 -0.00502900
v 0.04665500 -0.04396200 0.00392100
v 0.04638000 -0.04433200 0.00413500
v 0.04615000 -0.04415500 0.00791800
v 0.04615000 -0.04415500 0.00791800
v 0.04158900 -0.04397300 0.02152900
v 0.03938300 -0.04405700 0.02532600
v 0.04116500 -0.04433200 0.02170700
v 0.03587300 -0.04394600 0.03009600
v 0.03449900 -0.04433100 0.03126900
v 0.03763300 -0.04413800 0.02782600
v 0.01049700 -0.04393400 0.04564100
v 0.01271600 -0.04432900 0.04483000
v 0.01461100 -0.04405700 0.04448300
v 0.00449100 -0.04394300 0.04660400
v 0.00019000 -0.04408400 0.04682900
v 0.00695000 -0.04414900 0.04628200
v 0.00695000 -0.04414900 0.04628200
v -0.01708300 -0.04394300 0.04359100
v -0.01864200 -0.04428200 0.04273200
v -0.01343300 -0.04409000 0.04485500
v -0.02622500 -0.04396200 0.03878500
v -0.02861900 -0.04433100 0.03678000
v -0.02387400 -0.04409600 0.04027000
v -0.02387400 -0.04409600 0.04027000
v -0.04454500 -0.04396700 0.01441900
v -0.04533500 -0.04429100 0.01163400
v -0.04533500 -0.04429100 0.01163400
v -0.04302100 -0.04407800 0.01850400
v -0.04302100 -0.04407800 0.01850400
v -0.04603300 -0.04389900 0.00854200
v -0.04655100 -0.04422700 0.00493100
v 0.04604100 -0.04388700 -0.00850300
v 0.04544500 -0.04408300 -0.01122400
v -0.04389400 -0.02404900 0.01620500
v -0.04302100 -0.04407800 0.01850400
v -0.04202800 -0.02353400 0.02056600
v -0.03973200 -0.02383900 0.02471400
v -0.04112200 -0.04395500 0.02238600
v -0.03913000 -0.04412100 0.02571500
v -0.04454500 -0.04396700 0.01441900
v -0.04530600 -0.02284300 0.01169400
v -0.04533500 -0.04429100 0.01163400
v -0.02734900 -0.02400000 0.03796600
v -0.02924200 -0.04395500 0.03657100
v -0.02622500 -0.04396200 0.03878500
v -0.03418200 -0.02401200 0.03195400
v -0.03269400 -0.04410600 0.03353100
v -0.03091500 -0.02363600 0.03512200
v -0.03569300 -0.04395000 0.03030600
v -0.03714000 -0.02351300 0.02845900
v -0.03734200 -0.04407100 0.02821800
v -0.01094200 -0.02399500 0.04549400
v -0.01343300 -0.04409000 0.04485500
v -0.00889100 -0.04407900 0.04598200
v -0.01531300 -0.02380600 0.04421500
v -0.01708300 -0.04394300 0.04359100
v -0.01950600 -0.02381600 0.04253200
v -0.02050800 -0.04394200 0.04209500
v -0.02355700 -0.02358700 0.04042900
v -0.02387400 -0.04409600 0.04027000
v -0.00198100 -0.02365000 0.04674800
v 0.00019000 -0.04408400 0.04682900
v 0.00254400 -0.02398600 0.04672200
v 0.00706000 -0.02332800 0.04625600
v 0.00449100 -0.04394300 0.04660400
v 0.00695000 -0.04414900 0.04628200
v -0.00438000 -0.04419500 0.04661600
v -0.00650300 -0.02405500 0.04633700
v 0.02267200 -0.04422400 0.04097800
v 0.02056600 -0.02397700 0.04202800
v 0.01833700 -0.04410000 0.04308700
v 0.01621400 -0.02373400 0.04389000
v 0.01461100 -0.04405700 0.04448300
v 0.02472300 -0.02369500 0.03972500
v 0.01170500 -0.02377200 0.04530200
v 0.01049700 -0.04393400 0.04564100
v 0.03587300 -0.04394600 0.03009600
v 0.03763300 -0.04413800 0.02782600
v 0.03796400 -0.02362100 0.02735000
v 0.03512400 -0.02391200 0.03091600
v 0.03304700 -0.04407500 0.03317500
v 0.03194600 -0.02364800 0.03418700
v 0.02989000 -0.04406600 0.03604600
v 0.02846600 -0.02421300 0.03713700
v 0.02647600 -0.04410100 0.03861600
v 0.04342500 -0.04408100 0.01750800
v 0.04252300 -0.02367100 0.01952300
v 0.04158900 -0.04397300 0.02152900
v 0.04422400 -0.02406400 0.01528600
v 0.04471900 -0.04408400 0.01386400
v 0.04549300 -0.02374400 0.01094900
v 0.04538500 -0.04399000 0.01146800
v 0.04044000 -0.02403200 0.02353800
v 0.03938300 -0.04405700 0.02532600
v 0.04672000 -0.02327600 -0.00256300
v 0.04675000 -0.04396800 -0.00242000
v 0.04654400 -0.04415600 -0.00502900
v 0.04681600 -0.04407600 0.00041000
v 0.04674900 -0.02406200 0.00198900
v 0.04665500 -0.04396200 0.00392100
v 0.04615000 -0.04415500 0.00791800
v 0.04634000 -0.02332300 0.00648900
v -0.04569000 -0.01103200 0.01013200
v -0.04626500 -0.01103200 0.00705800
v -0.04491100 -0.01103200 0.01316100
v -0.04603300 -0.04389900 0.00854200
v -0.04626500 -0.02743200 0.00705800
v -0.04393200 -0.01103200 0.01613200
v -0.04275600 -0.01103200 0.01903000
v -0.04139000 -0.01103200 0.02184300
v -0.03810900 -0.01103200 0.02716500
v -0.03983800 -0.01103200 0.02455900
v -0.03621000 -0.01103200 0.02965000
v -0.03414800 -0.01103200 0.03200200
v -0.03193500 -0.01103200 0.03421200
v -0.02957800 -0.01103200 0.03626800
v -0.02709000 -0.01103200 0.03816300
v -0.02176100 -0.01103200 0.04143300
v -0.02448000 -0.01103200 0.03988700
v -0.01894500 -0.01103200 0.04279400
v -0.01604500 -0.01103200 0.04396400
v -0.01307200 -0.01103200 0.04493700
v -0.01004200 -0.01103200 0.04571000
v -0.00073600 -0.01103200 0.04679400
v -0.00386000 -0.01103200 0.04664100
v -0.00696600 -0.01103200 0.04627900
v 0.00550800 -0.01103200 0.04647500
v 0.00860000 -0.01103200 0.04600300
v 0.01465500 -0.01103200 0.04444600
v 0.01165300 -0.01103200 0.04532600
v 0.01759100 -0.01103200 0.04336800
v 0.02044800 -0.01103200 0.04209700
v 0.02321400 -0.01103200 0.04063700
v 0.02587600 -0.01103200 0.03899500
v 0.02842300 -0.01103200 0.03718000
v 0.03084300 -0.01103200 0.03519900
v 0.03312500 -0.01103200 0.03306000
v 0.03525900 -0.01103200 0.03077400
v 0.03723600 -0.01103200 0.02835000
v 0.03904700 -0.01103200 0.02579900
v 0.04068300 -0.01103200 0.02313400
v 0.04340300 -0.01103200 0.01750500
v 0.04213700 -0.01103200 0.02036500
v 0.04447500 -0.01103200 0.01456700
v 0.04534900 -0.01103200 0.01156400
v 0.04602000 -0.01103200 0.00850900
v 0.04648600 -0.01103200 0.00541600
v 0.04663300 -0.01103200 -0.00395200
v 0.04679300 -0.01103200 -0.00082800
v 0.04626500 -0.01103200 -0.00705800
v 0.04674400 -0.01103200 0.00229900
v 0.04626500 -0.02743200 -0.00705800
v 0.04604100 -0.04388700 -0.00850300
v 0.04116400 -0.04405500 -0.02230500
v 0.04202000 -0.02353300 -0.02058000
v 0.04275900 -0.04411700 -0.01907300
v 0.04389000 -0.02393600 -0.01621600
v 0.04433100 -0.04427300 -0.01509400
v 0.03973200 -0.02382900 -0.02471400
v 0.03947900 -0.04408000 -0.02515300
v 0.04530600 -0.02305900 -0.01169600
v 0.04544500 -0.04408300 -0.01122400
v 0.03418200 -0.02398400 -0.03195300
v 0.03267500 -0.04410200 -0.03354600
v 0.03091400 -0.02353500 -0.03512300
v 0.02734400 -0.02365000 -0.03797200
v 0.02942700 -0.04423300 -0.03641300
v 0.02595600 -0.04415400 -0.03897900
v 0.03570700 -0.04407000 -0.03028800
v 0.03804100 -0.04418400 -0.02729000
v 0.03713900 -0.02354700 -0.02846200
v 0.01094200 -0.02385500 -0.04549400
v 0.01342300 -0.04418300 -0.04485800
v 0.00887900 -0.04406700 -0.04598300
v 0.01531500 -0.02382800 -0.04421400
v 0.01706200 -0.04396900 -0.04360000
v 0.01950900 -0.02385500 -0.04253200
v 0.01991600 -0.04408800 -0.04236200
v 0.02355600 -0.02381400 -0.04042800
v 0.02228500 -0.04409400 -0.04117400
v 0.00198100 -0.02327900 -0.04675000
v -0.00016300 -0.04410000 -0.04683600
v -0.00255800 -0.02412400 -0.04672100
v -0.00538000 -0.04429500 -0.04651800
v -0.00705600 -0.02327500 -0.04625600
v 0.00442300 -0.04405800 -0.04660700
v 0.00649700 -0.02407700 -0.04633800
v -0.02055900 -0.02404000 -0.04203100
v -0.02047700 -0.04425200 -0.04208900
v -0.02325800 -0.04431700 -0.04063200
v -0.01800400 -0.04363600 -0.04321900
v -0.01621800 -0.02374100 -0.04388800
v -0.01407200 -0.04417700 -0.04466700
v -0.02472100 -0.02377400 -0.03972700
v -0.01170200 -0.02381900 -0.04530300
v -0.00981300 -0.04408200 -0.04577900
v -0.03331200 -0.04409600 -0.03289600
v -0.03195100 -0.02348700 -0.03418300
v -0.03013300 -0.04411800 -0.03584600
v -0.03512400 -0.02390000 -0.03091500
v -0.03548700 -0.04410400 -0.03052400
v -0.03712500 -0.04397400 -0.02852600
v -0.03796300 -0.02368500 -0.02735200
v -0.02657500 -0.04396700 -0.03855300
v -0.02847300 -0.02406300 -0.03713100
v -0.04421700 -0.02388000 -0.01530500
v -0.04375100 -0.04412600 -0.01670100
v -0.04510000 -0.04406200 -0.01257100
v -0.04251500 -0.02388700 -0.01954200
v -0.04548500 -0.02400900 -0.01098000
v -0.04116100 -0.04411200 -0.02231400
v -0.04237000 -0.04433200 -0.01985300
v -0.04043500 -0.02401500 -0.02354600
v -0.03929100 -0.04395600 -0.02547100
v -0.04672000 -0.02330800 0.00256500
v -0.04676300 -0.04398100 0.00220500
v -0.04655100 -0.04422700 0.00493100
v -0.04681600 -0.04410700 -0.00037800
v -0.04674900 -0.02394200 -0.00199300
v -0.04664900 -0.04409900 -0.00395800
v -0.04609500 -0.04410200 -0.00826800
v -0.04633700 -0.02308500 -0.00650800
v 0.04569000 -0.01103200 -0.01013200
v 0.04626500 -0.01103200 -0.00705800
v 0.04491100 -0.01103200 -0.01316100
v 0.04604100 -0.04388700 -0.00850300
v 0.04626500 -0.02743200 -0.00705800
v 0.04393200 -0.01103200 -0.01613200
v 0.04275600 -0.01103200 -0.01903000
v 0.04139000 -0.01103200 -0.02184300
v 0.03810900 -0.01103200 -0.02716500
v 0.03983800 -0.01103200 -0.02455900
v 0.03621000 -0.01103200 -0.02965000
v 0.03414800 -0.01103200 -0.03200200
v 0.03193500 -0.01103200 -0.03421200
v 0.02957800 -0.01103200 -0.03626800
v 0.02709000 -0.01103200 -0.03816300
v 0.02176100 -0.01103200 -0.04143300
v 0.02448000 -0.01103200 -0.03988700
v 0.01894500 -0.01103200 -0.04279400
v 0.01604500 -0.01103200 -0.04396400
v 0.01307200 -0.01103200 -0.04493700
v 0.01004200 -0.01103200 -0.04571000
v 0.00073600 -0.01103200 -0.04679400
v 0.00386000 -0.01103200 -0.04664100
v 0.00696600 -0.01103200 -0.04627900
v -0.00550800 -0.01103200 -0.04647500
v -0.00860000 -0.01103200 -0.04600300
v -0.01165300 -0.01103200 -0.04532600
v -0.01465500 -0.01103200 -0.04444600
v -0.01759100 -0.01103200 -0.04336800
v -0.02044800 -0.01103200 -0.04209700
v -0.02321400 -0.01103200 -0.04063700
v -0.02587600 -0.01103200 -0.03899500
v -0.02842300 -0.01103200 -0.03718000
v -0.03084300 -0.01103200 -0.03519900
v -0.03312500 -0.01103200 -0.03306000
v -0.03525900 -0.01103200 -0.03077400
v -0.03723600 -0.01103200 -0.02835000
v -0.03904700 -0.01103200 -0.02579900
v -0.04068300 -0.01103200 -0.02313400
v -0.04340300 -0.01103200 -0.01750500
v -0.04213700 -0.01103200 -0.02036500
v -0.04447500 -0.01103200 -0.01456700
v -0.04534900 -0.01103200 -0.01156400
v -0.04602000 -0.01103200 -0.00850900
v -0.04648600 -0.01103200 -0.00541600
v -0.04663300 -0.01103200 0.00395200
v -0.04679300 -0.01103200 0.00082800
v -0.04626500 -0.01103200 0.00705800
v -0.04674400 -0.01103200 -0.00229900
v -0.04626500 -0.02743200 0.00705800
v -0.04603300 -0.04389900 0.00854200
v -0.04664900 -0.04409900 -0.00395800
v -0.04664900 -0.04409900 -0.00395800
v -0.04628000 -0.04433200 -0.00367200
v -0.04681600 -0.04410700 -0.00037800
v -0.04681600 -0.04410700 -0.00037800
v -0.04510000 -0.04406200 -0.01257100
v -0.04497900 -0.04433200 -0.01178400
v -0.04609500 -0.04410200 -0.00826800
v -0.03712500 -0.04397400 -0.02852600
v -0.03743700 -0.04433200 -0.02767100
v -0.03929100 -0.04395600 -0.02547100
v -0.03331200 -0.04409600 -0.03289600
v -0.03112600 -0.04433200 -0.03456900
v -0.03548700 -0.04410400 -0.03052400
v -0.03548700 -0.04410400 -0.03052400
v -0.03013300 -0.04411800 -0.03584600
v -0.03112600 -0.04433200 -0.03456900
v -0.02657500 -0.04396700 -0.03855300
v -0.02325800 -0.04431700 -0.04063200
v 0.00442300 -0.04405800 -0.04660700
v 0.00385400 -0.04433100 -0.04633600
v -0.00016300 -0.04410000 -0.04683600
v 0.00887900 -0.04406700 -0.04598300
v 0.01991600 -0.04408800 -0.04236200
v 0.02228500 -0.04409400 -0.04117400
v 0.01821900 -0.04433200 -0.04278200
v -0.04628000 -0.04433200 -0.00367200
v -0.02047700 -0.04425200 -0.04208900
v -0.01800400 -0.04363600 -0.04321900
v -0.01407200 -0.04417700 -0.04466700
v 0.04628900 -0.01053200 -0.00269100
v 0.04626500 -0.01103200 -0.00705800
v 0.04460800 -0.01052800 -0.01283600
v 0.04569000 -0.01103200 -0.01013200
v 0.04491100 -0.01103200 -0.01316100
v 0.04393200 -0.01103200 -0.01613200
v 0.04275600 -0.01103200 -0.01903000
v 0.04116600 -0.01053200 -0.02130500
v 0.04139000 -0.01103200 -0.02184300
v 0.03983800 -0.01103200 -0.02455900
v 0.03649700 -0.01052600 -0.02860400
v 0.03414800 -0.01103200 -0.03200200
v 0.03159300 -0.01053200 -0.03384600
v 0.03193500 -0.01103200 -0.03421200
v 0.02957800 -0.01103200 -0.03626800
v 0.02769500 -0.01053100 -0.03713800
v 0.02709000 -0.01103200 -0.03816300
v 0.02448000 -0.01103200 -0.03988700
v 0.02110200 -0.01053200 -0.04129500
v 0.02176100 -0.01103200 -0.04143300
v 0.01894500 -0.01103200 -0.04279400
v 0.01604500 -0.01103200 -0.04396400
v 0.00839600 -0.01053200 -0.04558000
v 0.00696600 -0.01103200 -0.04627900
v 0.00386000 -0.01103200 -0.04664100
v 0.00200300 -0.01053200 -0.04628100
v 0.00073600 -0.01103200 -0.04679400
v -0.00239100 -0.01103200 -0.04673900
v -0.00532100 -0.01053400 -0.04605700
v -0.00550800 -0.01103200 -0.04647500
v 0.01440000 -0.01053200 -0.04402000
v 0.01307200 -0.01103200 -0.04493700
v -0.00860000 -0.01103200 -0.04600300
v -0.01284400 -0.01053200 -0.04452200
v -0.02431900 -0.01053200 -0.03945500
v -0.01858700 -0.01053200 -0.04243200
v -0.02044800 -0.01103200 -0.04209700
v -0.01465500 -0.01103200 -0.04444600
v -0.02587600 -0.01103200 -0.03899500
v -0.02842300 -0.01103200 -0.03718000
v -0.02955900 -0.01053300 -0.03566800
v -0.03084300 -0.01103200 -0.03519900
v -0.03467800 -0.01053300 -0.03075900
v -0.03312500 -0.01103200 -0.03306000
v -0.03525900 -0.01103200 -0.03077400
v -0.03723600 -0.01103200 -0.02835000
v -0.02321400 -0.01103200 -0.04063700
v -0.03979100 -0.01053200 -0.02382000
v -0.03904700 -0.01103200 -0.02579900
v -0.04068300 -0.01103200 -0.02313400
v -0.04293900 -0.01053200 -0.01731800
v -0.04340300 -0.01103200 -0.01750500
v -0.04447500 -0.01103200 -0.01456700
v -0.04213700 -0.01103200 -0.02036500
v -0.04509700 -0.01053200 -0.01077000
v -0.04602000 -0.01103200 -0.00850900
v -0.04648600 -0.01103200 -0.00541600
v -0.04615600 -0.01053200 -0.00383700
v -0.04674400 -0.01103200 -0.00229900
v -0.04628900 -0.01053100 0.00269100
v -0.04679300 -0.01103200 0.00082800
v -0.04663300 -0.01103200 0.00395200
v -0.04626500 -0.01103200 0.00705800
v 0.00019000 -0.04408400 0.04682900
v 0.00035900 -0.04433200 0.04645200
v 0.00035900 -0.04433200 0.04645200
v 0.00695000 -0.04414900 0.04628200
v 0.01271600 -0.04432900 0.04483000
v 0.01271600 -0.04432900 0.04483000
v 0.02800200 -0.04433200 0.03705100
v 0.02800200 -0.04433200 0.03705100
v -0.04237000 -0.04433200 -0.01985300
v -0.04237000 -0.04433200 -0.01985300
v 0.03449900 -0.04433100 0.03126900
v 0.03304700 -0.04407500 0.03317500
v 0.02989000 -0.04406600 0.03604600
v 0.02267200 -0.04422400 0.04097800
v 0.01833700 -0.04410000 0.04308700
v 0.02647600 -0.04410100 0.03861600
v -0.02387400 -0.04409600 0.04027000
v -0.02861900 -0.04433100 0.03678000
v -0.01864200 -0.04428200 0.04273200
v -0.01294100 -0.04433200 0.04462900
v -0.00438000 -0.04419500 0.04661600
v 0.00019000 -0.04408400 0.04682900
v -0.00889100 -0.04407900 0.04598200
v 0.04116500 -0.04433200 0.02170700
v 0.03763300 -0.04413800 0.02782600
v 0.03938300 -0.04405700 0.02532600
v 0.04342500 -0.04408100 0.01750800
v 0.04394600 -0.04433200 0.01506500
v -0.03743700 -0.04433200 -0.02767100
v -0.03112600 -0.04433200 -0.03456900
v -0.03112600 -0.04433200 -0.03456900
v 0.04638000 -0.04433200 0.00413500
v 0.04638000 -0.04433200 0.00413500
v 0.04471900 -0.04408400 0.01386400
v 0.04615000 -0.04415500 0.00791800
v 0.04681600 -0.04407600 0.00041000
v 0.04638800 -0.04433100 -0.00279100
v 0.04638800 -0.04433100 -0.00279100
v 0.03286100 -0.04433200 -0.03289000
v 0.03286100 -0.04433200 -0.03289000
v 0.04433100 -0.04427300 -0.01509400
v 0.04654400 -0.04415600 -0.00502900
v 0.04050200 -0.04433000 -0.02274200
v 0.04544500 -0.04408300 -0.01122400
v 0.04116400 -0.04405500 -0.02230500
v 0.04275900 -0.04411700 -0.01907300
v 0.03947900 -0.04408000 -0.02515300
v 0.03804100 -0.04418400 -0.02729000
v 0.03570700 -0.04407000 -0.03028800
v -0.03494000 -0.04433100 0.03066100
v -0.03269400 -0.04410600 0.03353100
v -0.04497900 -0.04433200 -0.01178400
v -0.03913000 -0.04412100 0.02571500
v -0.03734200 -0.04407100 0.02821800
v -0.04121600 -0.04432700 0.02168500
v -0.04628000 -0.04433200 -0.00367200
v -0.04302100 -0.04407800 0.01850400
v -0.04533500 -0.04429100 0.01163400
v -0.04655100 -0.04422700 0.00493100
v -0.04681600 -0.04410700 -0.00037800
v -0.04609500 -0.04410200 -0.00826800
v -0.04375100 -0.04412600 -0.01670100
v -0.04116100 -0.04411200 -0.02231400
v -0.03548700 -0.04410400 -0.03052400
v 0.01342300 -0.04418300 -0.04485800
v 0.01821900 -0.04433200 -0.04278200
v 0.01821900 -0.04433200 -0.04278200
v 0.00385400 -0.04433100 -0.04633600
v 0.00385400 -0.04433100 -0.04633600
v 0.00887900 -0.04406700 -0.04598300
v -0.00538000 -0.04429500 -0.04651800
v -0.00016300 -0.04410000 -0.04683600
v 0.02942700 -0.04423300 -0.03641300
v 0.02595600 -0.04415400 -0.03897900
v 0.02228500 -0.04409400 -0.04117400
v -0.02325800 -0.04431700 -0.04063200
v -0.02047700 -0.04425200 -0.04208900
v -0.03013300 -0.04411800 -0.03584600
v -0.00981300 -0.04408200 -0.04577900
v -0.01407200 -0.04417700 -0.04466700
v 0.04615600 -0.01053200 0.00383700
v 0.04615600 -0.01053200 0.00383700
v 0.04238000 -0.01053200 0.01875900
v 0.04238000 -0.01053200 0.01875900
v 0.04504700 -0.01053000 0.01101800
v 0.03861400 -0.01053300 0.02566100
v 0.03404900 -0.01053200 0.03141000
v 0.03404900 -0.01053200 0.03141000
v 0.02825500 -0.01053200 0.03680000
v 0.02825500 -0.01053200 0.03680000
v -0.03239800 -0.01053200 0.03311600
v 0.04116600 -0.01053200 -0.02130500
v 0.04116600 -0.01053200 -0.02130500
v 0.04628900 -0.01053200 -0.00269100
v 0.04628900 -0.01053200 -0.00269100
v 0.04460800 -0.01052800 -0.01283600
v 0.00200300 -0.01053200 -0.04628100
v 0.00288600 -0.01053200 0.04628900
v 0.00288600 -0.01053200 0.04628900
v 0.02145500 -0.01053200 0.04107100
v 0.02145500 -0.01053200 0.04107100
v -0.02330600 -0.01053200 0.04003900
v -0.02330600 -0.01053200 0.04003900
v 0.01598100 -0.01053200 0.04347100
v 0.01048600 -0.01053100 0.04512600
v 0.01048600 -0.01053100 0.04512600
v -0.00533800 -0.01053100 0.04603800
v -0.01737900 -0.01053100 0.04296600
v -0.01737900 -0.01053100 0.04296600
v -0.01142700 -0.01053200 0.04488400
v -0.02807000 -0.01053200 0.03684000
v 0.03159300 -0.01053200 -0.03384600
v 0.03649700 -0.01052600 -0.02860400
v 0.02110200 -0.01053200 -0.04129500
v 0.02769500 -0.01053100 -0.03713800
v 0.00839600 -0.01053200 -0.04558000
v 0.01440000 -0.01053200 -0.04402000
v -0.01284400 -0.01053200 -0.04452200
v -0.01284400 -0.01053200 -0.04452200
v -0.00532100 -0.01053400 -0.04605700
v -0.03979100 -0.01053200 -0.02382000
v -0.03979100 -0.01053200 -0.02382000
v -0.03979100 -0.01053200 -0.02382000
v -0.02431900 -0.01053200 -0.03945500
v -0.02431900 -0.01053200 -0.03945500
v -0.01858700 -0.01053200 -0.04243200
v -0.04615600 -0.01053200 -0.00383700
v -0.04615600 -0.01053200 -0.00383700
v -0.04615600 -0.01053200 -0.00383700
v -0.02955900 -0.01053300 -0.03566800
v -0.03467800 -0.01053300 -0.03075900
v -0.04463900 -0.01053100 0.01272100
v -0.04463900 -0.01053100 0.01272100
v -0.04628900 -0.01053100 0.00269100
v -0.04159300 -0.01053200 0.02042500
v -0.04159300 -0.01053200 0.02042500
v -0.03744700 -0.01053200 0.02736100
v -0.04509700 -0.01053200 -0.01077000
v -0.04509700 -0.01053200 -0.01077000
v -0.04293900 -0.01053200 -0.01731800
v -0.02448000 -0.01103200 0.03988700
v 0.02044800 -0.01103200 0.04209700
v 0.02587600 -0.01103200 0.03899500
v 0.02842300 -0.01103200 0.03718000
v 0.04213700 -0.01103200 0.02036500
v 0.04534900 -0.01103200 0.01156400
v 0.04675000 -0.04396800 -0.00242000
v 0.04471900 -0.04408400 0.01386400
v 0.04538500 -0.04399000 0.01146800
v 0.04342500 -0.04408100 0.01750800
v 0.04394600 -0.04433200 0.01506500
v 0.03304700 -0.04407500 0.03317500
v 0.02647600 -0.04410100 0.03861600
v 0.02800200 -0.04433200 0.03705100
v 0.02989000 -0.04406600 0.03604600
v 0.01833700 -0.04410000 0.04308700
v -0.01294100 -0.04433200 0.04462900
v -0.00889100 -0.04407900 0.04598200
v -0.02050800 -0.04394200 0.04209500
v -0.02924200 -0.04395500 0.03657100
v -0.03269400 -0.04410600 0.03353100
v -0.03734200 -0.04407100 0.02821800
v -0.03494000 -0.04433100 0.03066100
v -0.03569300 -0.04395000 0.03030600
v -0.04121600 -0.04432700 0.02168500
v -0.03913000 -0.04412100 0.02571500
v -0.04112200 -0.04395500 0.02238600
v 0.00239100 -0.01103200 0.04673900
v -0.00239100 -0.01103200 -0.04673900
v -0.04655100 -0.04422700 0.00493100
v -0.04676300 -0.04398100 0.00220500
v -0.04375100 -0.04412600 -0.01670100
v -0.04116100 -0.04411200 -0.02231400
v 0.01342300 -0.04418300 -0.04485800
v 0.01706200 -0.04396900 -0.04360000
v 0.03267500 -0.04410200 -0.03354600
v 0.03286100 -0.04433200 -0.03289000
v 0.02942700 -0.04423300 -0.03641300
v 0.03570700 -0.04407000 -0.03028800
v 0.04116400 -0.04405500 -0.02230500
v 0.04050200 -0.04433000 -0.02274200
v 0.03947900 -0.04408000 -0.02515300
v 0.03810900 -0.01103200 -0.02716500
v 0.03621000 -0.01103200 -0.02965000
v 0.01004200 -0.01103200 -0.04571000
v -0.01165300 -0.01103200 -0.04532600
v -0.01759100 -0.01103200 -0.04336800
v -0.04534900 -0.01103200 -0.01156400
vn -0.70850000 0.70450000 0.04160000
vn -0.69900000 0.70710000 0.10660000
vn -0.68070000 0.70640000 0.19400000
vn -0.69030000 0.70710000 0.15310000
vn -0.67850000 0.70710000 0.19890000
vn -0.66380000 0.70710000 0.24370000
vn -0.64600000 0.70710000 0.28750000
vn -0.63500000 0.70680000 0.31180000
vn -0.62540000 0.70710000 0.33000000
vn -0.57140000 0.70650000 0.41750000
vn -0.60190000 0.70710000 0.37110000
vn -0.57580000 0.70710000 0.41040000
vn -0.49470000 0.70690000 0.50560000
vn -0.51600000 0.70710000 0.48350000
vn -0.48250000 0.70710000 0.51690000
vn -0.44690000 0.70710000 0.54800000
vn -0.54710000 0.70710000 0.44800000
vn -0.42870000 0.70700000 0.56250000
vn -0.40930000 0.70710000 0.57660000
vn -0.35580000 0.70690000 0.61130000
vn -0.26530000 0.70670000 0.65590000
vn -0.28620000 0.70710000 0.64660000
vn -0.24240000 0.70710000 0.66430000
vn -0.19750000 0.70710000 0.67900000
vn -0.32880000 0.70710000 0.62600000
vn -0.17440000 0.70700000 0.68540000
vn -0.15170000 0.70710000 0.69060000
vn -0.08150000 0.70680000 0.70270000
vn -0.10530000 0.70710000 0.69920000
vn -0.05830000 0.70710000 0.70470000
vn 0.04400000 0.70650000 0.70630000
vn -0.01110000 0.70710000 0.70700000
vn 0.03610000 0.70710000 0.70620000
vn 0.08320000 0.70710000 0.70220000
vn 0.12990000 0.70710000 0.69510000
vn 0.16010000 0.70690000 0.68900000
vn 0.17600000 0.70710000 0.68480000
vn 0.22140000 0.70710000 0.67160000
vn 0.24410000 0.70700000 0.66380000
vn 0.26580000 0.70710000 0.65530000
vn 0.32750000 0.70680000 0.62700000
vn 0.51990000 0.70690000 0.47960000
vn 0.50050000 0.70710000 0.49950000
vn 0.53270000 0.70710000 0.46500000
vn 0.56260000 0.70710000 0.42830000
vn 0.43110000 0.70640000 0.56140000
vn 0.46600000 0.70710000 0.53180000
vn 0.35070000 0.70710000 0.61400000
vn 0.58930000 0.70660000 0.39170000
vn 0.59000000 0.70710000 0.38980000
vn 0.61470000 0.70710000 0.34950000
vn 0.64690000 0.70680000 0.28630000
vn 0.65580000 0.70710000 0.26450000
vn 0.67200000 0.70710000 0.22010000
vn 0.68750000 0.70650000 0.16800000
vn 0.69530000 0.70710000 0.12860000
vn 0.70240000 0.70710000 0.08180000
vn 0.70480000 0.70700000 0.05860000
vn 0.70630000 0.70710000 0.03470000
vn 0.70610000 0.70690000 -0.04100000
vn 0.70700000 0.70710000 -0.01250000
vn 0.70460000 0.70710000 -0.05970000
vn 0.69900000 0.70710000 -0.10660000
vn 0.90520000 -0.42500000 0.00570000
vn 0.29610000 -0.95490000 -0.02280000
vn 0.82910000 -0.55230000 -0.08740000
vn 0.82910000 -0.55220000 -0.08740000
vn 0.96570000 -0.24710000 0.07950000
vn 0.44700000 -0.89380000 0.03700000
vn 0.81890000 -0.55570000 0.14330000
vn 0.81900000 -0.55570000 0.14320000
vn 0.85460000 -0.27120000 0.44280000
vn 0.76430000 -0.41780000 0.49110000
vn 0.38330000 -0.90140000 0.20150000
vn 0.74120000 -0.24050000 0.62670000
vn 0.33270000 -0.89380000 0.30070000
vn 0.67430000 -0.54100000 0.50260000
vn 0.21970000 -0.20200000 0.95440000
vn 0.12690000 -0.89120000 0.43550000
vn 0.28650000 -0.40830000 0.86670000
vn 0.09210000 -0.24030000 0.96630000
vn 0.00220000 -0.43210000 0.90180000
vn 0.12700000 -0.56100000 0.81810000
vn 0.12690000 -0.56090000 0.81810000
vn -0.35710000 -0.20720000 0.91080000
vn -0.21360000 -0.84470000 0.49080000
vn -0.25160000 -0.47320000 0.84430000
vn -0.54200000 -0.27420000 0.79440000
vn -0.28690000 -0.88590000 0.36460000
vn -0.44930000 -0.48070000 0.75300000
vn -0.44920000 -0.48070000 0.75310000
vn -0.91870000 -0.25880000 0.29830000
vn -0.65300000 -0.73990000 0.16170000
vn -0.65300000 -0.73990000 0.16160000
vn -0.82430000 -0.44350000 0.35200000
vn -0.82430000 -0.44350000 0.35190000
vn -0.97520000 -0.13200000 0.17770000
vn -0.70620000 -0.70430000 0.07240000
vn 0.97160000 -0.15910000 -0.17530000
vn 0.73680000 -0.65290000 -0.17570000
vn -0.93810000 0.00010000 0.34630000
vn -0.91870000 -0.00030000 0.39500000
vn -0.89820000 -0.00030000 0.43960000
vn -0.84920000 -0.00020000 0.52800000
vn -0.87840000 -0.00000000 0.47800000
vn -0.83570000 -0.00000000 0.54920000
vn -0.95140000 0.00000000 0.30800000
vn -0.96820000 0.00010000 0.25000000
vn -0.96860000 -0.00000000 0.24860000
vn -0.58450000 0.00000000 0.81140000
vn -0.62450000 0.00000000 0.78100000
vn -0.56010000 -0.00000000 0.82840000
vn -0.73050000 0.00000000 0.68290000
vn -0.69810000 -0.00000000 0.71600000
vn -0.66070000 -0.00020000 0.75070000
vn -0.76230000 -0.00000000 0.64730000
vn -0.79380000 0.00000000 0.60820000
vn -0.79780000 0.00000000 0.60290000
vn -0.23390000 0.00020000 0.97230000
vn -0.28690000 -0.00000000 0.95800000
vn -0.18980000 0.00010000 0.98180000
vn -0.32730000 0.00010000 0.94490000
vn -0.36480000 0.00000000 0.93110000
vn -0.41690000 0.00010000 0.90900000
vn -0.43800000 0.00000000 0.89900000
vn -0.50350000 -0.00010000 0.86400000
vn -0.50990000 0.00000000 0.86020000
vn -0.04190000 0.00030000 0.99910000
vn 0.00400000 -0.00000000 1.00000000
vn 0.05440000 -0.00000000 0.99850000
vn 0.15120000 0.00030000 0.98850000
vn 0.09590000 -0.00000000 0.99540000
vn 0.14850000 0.00000000 0.98890000
vn -0.09360000 0.00010000 0.99560000
vn -0.13890000 0.00040000 0.99030000
vn 0.48410000 -0.00000000 0.87500000
vn 0.43940000 0.00020000 0.89830000
vn 0.39160000 -0.00000000 0.92010000
vn 0.34650000 0.00010000 0.93800000
vn 0.31200000 0.00000000 0.95010000
vn 0.52820000 0.00020000 0.84910000
vn 0.25030000 -0.00000000 0.96820000
vn 0.22420000 0.00010000 0.97460000
vn 0.76610000 -0.00000000 0.64270000
vn 0.80410000 0.00000000 0.59450000
vn 0.81130000 -0.00010000 0.58460000
vn 0.75070000 -0.00010000 0.66060000
vn 0.70550000 0.00000000 0.70870000
vn 0.68270000 0.00000000 0.73070000
vn 0.63830000 -0.00000000 0.76980000
vn 0.60830000 -0.00010000 0.79370000
vn 0.56540000 -0.00010000 0.82480000
vn 0.92750000 0.00000000 0.37390000
vn 0.90870000 0.00020000 0.41740000
vn 0.88820000 -0.00020000 0.45950000
vn 0.94520000 -0.00010000 0.32640000
vn 0.95510000 0.00000000 0.29610000
vn 0.97220000 -0.00000000 0.23400000
vn 0.96950000 0.00000000 0.24500000
vn 0.86430000 0.00020000 0.50300000
vn 0.84110000 0.00000000 0.54090000
vn 0.99850000 0.00000000 -0.05480000
vn 0.99870000 -0.00000000 -0.05170000
vn 0.99420000 0.00000000 -0.10740000
vn 1.00000000 0.00010000 0.00880000
vn 0.99910000 0.00000000 0.04250000
vn 0.99650000 -0.00000000 0.08380000
vn 0.98560000 0.00000000 0.16890000
vn 0.99040000 -0.00000000 0.13810000
vn -0.97630000 -0.00000000 0.21650000
vn -0.98860000 0.00000000 0.15080000
vn -0.95960000 -0.00000000 0.28120000
vn -0.98320000 0.00000000 0.18250000
vn -0.98860000 0.00000000 0.15080000
vn -0.93870000 0.00000000 0.34470000
vn -0.91360000 0.00000000 0.40660000
vn -0.88440000 -0.00000000 0.46670000
vn -0.81460000 -0.00000000 0.58000000
vn -0.85130000 -0.00010000 0.52470000
vn -0.77370000 0.00000000 0.63350000
vn -0.72970000 -0.00000000 0.68380000
vn -0.68250000 -0.00010000 0.73090000
vn -0.63170000 0.00000000 0.77520000
vn -0.57880000 -0.00000000 0.81550000
vn -0.46480000 0.00030000 0.88540000
vn -0.52310000 -0.00000000 0.85230000
vn -0.40480000 0.00000000 0.91440000
vn -0.34290000 -0.00000000 0.93940000
vn -0.27940000 0.00030000 0.96020000
vn -0.21440000 -0.00010000 0.97670000
vn -0.01570000 -0.00000000 0.99990000
vn -0.08270000 0.00010000 0.99660000
vn -0.14880000 0.00000000 0.98890000
vn 0.11770000 0.00000000 0.99300000
vn 0.18380000 -0.00000000 0.98300000
vn 0.31300000 -0.00010000 0.94980000
vn 0.24900000 0.00000000 0.96850000
vn 0.37590000 -0.00000000 0.92660000
vn 0.43690000 -0.00010000 0.89950000
vn 0.49600000 -0.00000000 0.86830000
vn 0.55290000 0.00000000 0.83320000
vn 0.60730000 0.00000000 0.79440000
vn 0.65900000 -0.00000000 0.75210000
vn 0.70790000 -0.00000000 0.70630000
vn 0.75350000 -0.00020000 0.65750000
vn 0.79560000 -0.00000000 0.60580000
vn 0.83450000 0.00010000 0.55100000
vn 0.86930000 -0.00010000 0.49430000
vn 0.92740000 0.00030000 0.37400000
vn 0.90040000 -0.00000000 0.43520000
vn 0.95030000 -0.00000000 0.31120000
vn 0.96900000 -0.00000000 0.24710000
vn 0.98330000 0.00030000 0.18200000
vn 0.99330000 -0.00000000 0.11570000
vn 0.99640000 -0.00000000 -0.08450000
vn 0.99980000 0.00000000 -0.01770000
vn 0.98860000 0.00000000 -0.15080000
vn 0.99880000 -0.00000000 0.04910000
vn 0.98860000 0.00000000 -0.15080000
vn 0.98340000 -0.00000000 -0.18160000
vn 0.87920000 -0.00010000 -0.47640000
vn 0.89810000 -0.00020000 -0.43980000
vn 0.91330000 0.00000000 -0.40730000
vn 0.93800000 0.00000000 -0.34670000
vn 0.94660000 0.00000000 -0.32230000
vn 0.84920000 -0.00000000 -0.52810000
vn 0.84340000 0.00000000 -0.53730000
vn 0.96820000 -0.00000000 -0.25000000
vn 0.97080000 -0.00000000 -0.23980000
vn 0.73050000 0.00010000 -0.68290000
vn 0.69780000 0.00000000 -0.71630000
vn 0.66080000 0.00010000 -0.75050000
vn 0.58460000 -0.00000000 -0.81140000
vn 0.62850000 -0.00040000 -0.77780000
vn 0.55440000 -0.00010000 -0.83220000
vn 0.76260000 0.00000000 -0.64690000
vn 0.81250000 0.00000000 -0.58290000
vn 0.79370000 0.00000000 -0.60830000
vn 0.23360000 0.00030000 -0.97230000
vn 0.28660000 -0.00000000 -0.95800000
vn 0.18970000 -0.00010000 -0.98180000
vn 0.32730000 0.00010000 -0.94490000
vn 0.36440000 0.00000000 -0.93120000
vn 0.41700000 0.00000000 -0.90890000
vn 0.42550000 0.00000000 -0.90500000
vn 0.50330000 -0.00010000 -0.86410000
vn 0.47600000 0.00000000 -0.87940000
vn 0.04230000 -0.00000000 -0.99910000
vn -0.00350000 0.00000000 -1.00000000
vn -0.05470000 0.00000000 -0.99850000
vn -0.11490000 -0.00000000 -0.99340000
vn -0.15090000 0.00010000 -0.98860000
vn 0.09450000 -0.00010000 -0.99550000
vn 0.13880000 0.00000000 -0.99030000
vn -0.43940000 -0.00000000 -0.89830000
vn -0.43750000 0.00000000 -0.89920000
vn -0.49680000 0.00010000 -0.86790000
vn -0.38450000 0.00000000 -0.92310000
vn -0.34670000 -0.00020000 -0.93800000
vn -0.30040000 -0.00000000 -0.95380000
vn -0.52830000 -0.00000000 -0.84900000
vn -0.25010000 -0.00010000 -0.96820000
vn -0.20950000 -0.00000000 -0.97780000
vn -0.71150000 -0.00000000 -0.70270000
vn -0.68280000 0.00000000 -0.73060000
vn -0.64350000 -0.00010000 -0.76540000
vn -0.75070000 0.00000000 -0.66060000
vn -0.75810000 0.00000000 -0.65210000
vn -0.79300000 0.00000000 -0.60920000
vn -0.81130000 -0.00000000 -0.58460000
vn -0.56760000 -0.00000000 -0.82330000
vn -0.60850000 -0.00000000 -0.79360000
vn -0.94500000 0.00010000 -0.32700000
vn -0.93420000 -0.00000000 -0.35680000
vn -0.96330000 0.00010000 -0.26850000
vn -0.90870000 -0.00010000 -0.41750000
vn -0.97210000 -0.00000000 -0.23470000
vn -0.87910000 -0.00000000 -0.47660000
vn -0.90550000 -0.00000000 -0.42430000
vn -0.86410000 -0.00010000 -0.50330000
vn -0.83910000 0.00010000 -0.54400000
vn -0.99850000 0.00000000 0.05460000
vn -0.99890000 -0.00000000 0.04710000
vn -0.99440000 -0.00000000 0.10530000
vn -1.00000000 0.00000000 -0.00810000
vn -0.99910000 -0.00000000 -0.04260000
vn -0.99640000 -0.00000000 -0.08450000
vn -0.98430000 0.00000000 -0.17650000
vn -0.99030000 -0.00020000 -0.13900000
vn 0.97630000 -0.00000000 -0.21650000
vn 0.98860000 0.00000000 -0.15080000
vn 0.95960000 -0.00000000 -0.28120000
vn 0.98340000 -0.00000000 -0.18160000
vn 0.98860000 0.00000000 -0.15080000
vn 0.93870000 -0.00000000 -0.34470000
vn 0.91360000 0.00000000 -0.40660000
vn 0.88440000 0.00000000 -0.46670000
vn 0.81430000 -0.00000000 -0.58040000
vn 0.85130000 -0.00010000 -0.52470000
vn 0.77360000 -0.00000000 -0.63360000
vn 0.72960000 -0.00000000 -0.68380000
vn 0.68240000 -0.00000000 -0.73100000
vn 0.63170000 0.00010000 -0.77520000
vn 0.57880000 -0.00010000 -0.81550000
vn 0.46490000 0.00020000 -0.88540000
vn 0.52300000 0.00000000 -0.85230000
vn 0.40480000 -0.00000000 -0.91440000
vn 0.34290000 -0.00000000 -0.93940000
vn 0.27940000 0.00030000 -0.96020000
vn 0.21450000 -0.00010000 -0.97670000
vn 0.01570000 -0.00000000 -0.99990000
vn 0.08250000 -0.00000000 -0.99660000
vn 0.14890000 0.00000000 -0.98890000
vn -0.11770000 -0.00000000 -0.99310000
vn -0.18380000 -0.00000000 -0.98300000
vn -0.24900000 -0.00000000 -0.96850000
vn -0.31300000 -0.00010000 -0.94980000
vn -0.37590000 0.00000000 -0.92670000
vn -0.43690000 -0.00000000 -0.89950000
vn -0.49600000 -0.00000000 -0.86830000
vn -0.55300000 -0.00000000 -0.83320000
vn -0.60730000 -0.00000000 -0.79440000
vn -0.65900000 0.00000000 -0.75210000
vn -0.70790000 -0.00000000 -0.70630000
vn -0.75340000 -0.00000000 -0.65750000
vn -0.79560000 -0.00000000 -0.60580000
vn -0.83450000 0.00010000 -0.55100000
vn -0.86930000 -0.00000000 -0.49430000
vn -0.92740000 0.00020000 -0.37400000
vn -0.90040000 -0.00000000 -0.43520000
vn -0.95030000 -0.00000000 -0.31120000
vn -0.96900000 -0.00000000 -0.24710000
vn -0.98330000 0.00000000 -0.18180000
vn -0.99330000 -0.00000000 -0.11570000
vn -0.99640000 -0.00000000 0.08450000
vn -0.99980000 0.00000000 0.01770000
vn -0.98860000 0.00000000 0.15080000
vn -0.99880000 0.00000000 -0.04910000
vn -0.98860000 0.00000000 0.15080000
vn -0.98320000 -0.00000000 0.18240000
vn -0.87110000 -0.48540000 -0.07440000
vn -0.87120000 -0.48530000 -0.07440000
vn -0.24640000 -0.96890000 -0.02130000
vn -0.87830000 -0.47800000 -0.00570000
vn -0.87840000 -0.47800000 -0.00560000
vn -0.87540000 -0.41780000 -0.24310000
vn -0.29910000 -0.95100000 -0.07820000
vn -0.88130000 -0.44740000 -0.15190000
vn -0.76140000 -0.28100000 -0.58430000
vn -0.35040000 -0.89850000 -0.26440000
vn -0.81700000 -0.23120000 -0.52820000
vn -0.62340000 -0.47900000 -0.61800000
vn -0.06750000 -0.99040000 -0.12070000
vn -0.66180000 -0.48240000 -0.57380000
vn -0.66190000 -0.48240000 -0.57380000
vn -0.56390000 -0.48530000 -0.66820000
vn -0.24130000 -0.93710000 -0.25230000
vn -0.54800000 -0.25350000 -0.79710000
vn -0.32000000 -0.75070000 -0.57800000
vn 0.08570000 -0.42280000 -0.90220000
vn 0.02440000 -0.94640000 -0.32190000
vn -0.00240000 -0.46160000 -0.88710000
vn 0.17110000 -0.41900000 -0.89170000
vn 0.37240000 -0.47050000 -0.79990000
vn 0.41310000 -0.48630000 -0.77000000
vn 0.13380000 -0.94020000 -0.31320000
vn -0.03790000 -0.99910000 0.01810000
vn -0.33780000 -0.64310000 -0.68720000
vn -0.36360000 0.31050000 -0.87830000
vn -0.23690000 -0.60850000 -0.75740000
vn 0.70850000 0.70450000 -0.04160000
vn 0.69900000 0.70710000 -0.10660000
vn 0.68030000 0.70630000 -0.19570000
vn 0.69030000 0.70710000 -0.15310000
vn 0.67860000 0.70710000 -0.19890000
vn 0.66380000 0.70710000 -0.24370000
vn 0.64600000 0.70710000 -0.28750000
vn 0.62840000 0.70670000 -0.32510000
vn 0.62540000 0.70710000 -0.33000000
vn 0.60190000 0.70710000 -0.37110000
vn 0.55700000 0.70650000 -0.43660000
vn 0.51600000 0.70710000 -0.48350000
vn 0.48250000 0.70710000 -0.51690000
vn 0.48250000 0.70710000 -0.51690000
vn 0.44690000 0.70710000 -0.54800000
vn 0.42290000 0.70690000 -0.56700000
vn 0.40930000 0.70710000 -0.57660000
vn 0.36990000 0.70710000 -0.60260000
vn 0.32200000 0.70660000 -0.63020000
vn 0.32880000 0.70710000 -0.62600000
vn 0.28630000 0.70710000 -0.64660000
vn 0.24240000 0.70710000 -0.66430000
vn 0.12810000 0.70670000 -0.69580000
vn 0.10520000 0.70710000 -0.69920000
vn 0.05830000 0.70710000 -0.70470000
vn 0.03060000 0.70690000 -0.70660000
vn 0.01110000 0.70710000 -0.70700000
vn -0.03610000 0.70710000 -0.70620000
vn -0.08120000 0.70660000 -0.70290000
vn -0.08320000 0.70710000 -0.70220000
vn 0.21980000 0.70700000 -0.67220000
vn 0.19750000 0.70710000 -0.67900000
vn -0.12990000 0.70710000 -0.69510000
vn -0.19610000 0.70680000 -0.67970000
vn -0.37120000 0.70680000 -0.60230000
vn -0.28380000 0.70690000 -0.64780000
vn -0.30890000 0.70710000 -0.63600000
vn -0.22140000 0.70710000 -0.67160000
vn -0.39100000 0.70710000 -0.58920000
vn -0.42940000 0.70710000 -0.56180000
vn -0.45130000 0.70690000 -0.54460000
vn -0.46600000 0.70710000 -0.53180000
vn -0.52930000 0.70670000 -0.46950000
vn -0.50050000 0.70710000 -0.49950000
vn -0.53270000 0.70710000 -0.46500000
vn -0.56260000 0.70710000 -0.42830000
vn -0.35070000 0.70710000 -0.61400000
vn -0.60720000 0.70650000 -0.36350000
vn -0.59000000 0.70710000 -0.38980000
vn -0.61470000 0.70710000 -0.34950000
vn -0.65580000 0.70710000 -0.26450000
vn -0.65580000 0.70710000 -0.26450000
vn -0.67200000 0.70710000 -0.22010000
vn -0.63660000 0.70710000 -0.30770000
vn -0.68830000 0.70660000 -0.16430000
vn -0.69530000 0.70710000 -0.12860000
vn -0.70240000 0.70710000 -0.08180000
vn -0.70480000 0.70700000 -0.05860000
vn -0.70630000 0.70710000 -0.03470000
vn -0.70610000 0.70690000 0.04100000
vn -0.70700000 0.70710000 0.01250000
vn -0.70460000 0.70710000 0.05970000
vn -0.69900000 0.70710000 0.10660000
vn 0.00000000 -1.00000000 0.00000000
vn 0.00000000 -1.00000000 0.00010000
vn 0.00000000 -1.00000000 0.00000000
vn 0.00000000 -1.00000000 0.00000000
vn 0.00000000 -1.00000000 0.00000000
vn 0.00000000 -1.00000000 0.00010000
vn 0.00000000 -1.00000000 0.00000000
vn 0.00000000 -1.00000000 0.00010000
vn 0.00000000 -1.00000000 0.00000000
vn 0.00000000 -1.00000000 0.00010000
vn 0.00000000 -1.00000000 0.00000000
vn 0.00000000 -1.00000000 0.00000000
vn 0.00000000 -1.00000000 0.00000000
vn 0.00000000 -1.00000000 0.00000000
vn 0.00000000 -1.00000000 0.00000000
vn 0.00000000 -1.00000000 0.00000000
vn 0.00000000 -1.00000000 0.00000000
vn 0.00000000 -1.00000000 0.00000000
vn 0.00000000 -1.00000000 0.00000000
vn 0.00000000 -1.00000000 0.00000000
vn 0.00000000 -1.00000000 0.00000000
vn 0.00000000 -1.00000000 0.00000000
vn 0.00000000 -1.00000000 0.00000000
vn 0.00000000 -1.00000000 0.00000000
vn 0.00000000 -1.00000000 0.00000000
vn 0.00000000 -1.00000000 0.00000000
vn 0.00000000 -1.00000000 0.00000000
vn 0.00000000 -1.00000000 0.00000000
vn 0.00000000 -1.00000000 0.00000000
vn -0.00000000 -1.00000000 -0.00010000
vn 0.00000000 -1.00000000 0.00000000
vn -0.00010000 -1.00000000 0.00000000
vn 0.00000000 -1.00000000 0.00000000
vn 0.00000000 -1.00000000 0.00000000
vn 0.00000000 -1.00000000 0.00000000
vn 0.00000000 -1.00000000 0.00000000
vn 0.00000000 -1.00000000 0.00000000
vn -0.00010000 -1.00000000 0.00000000
vn 0.00000000 -1.00000000 0.00000000
vn -0.00010000 -1.00000000 0.00000000
vn 0.00000000 -1.00000000 0.00000000
vn 0.00000000 -1.00000000 0.00000000
vn 0.00000000 -1.00000000 0.00000000
vn 0.00000000 -1.00000000 0.00000000
vn 0.00000000 -1.00000000 0.00000000
vn 0.00000000 -1.00000000 0.00000000
vn 0.00000000 -1.00000000 0.00000000
vn 0.00000000 -1.00000000 0.00000000
vn 0.00000000 -1.00000000 0.00000000
vn 0.00000000 -1.00000000 0.00000000
vn 0.00000000 -1.00000000 0.00000000
vn 0.00000000 -1.00000000 0.00000000
vn 0.00000000 -1.00000000 0.00000000
vn 0.00000000 -1.00000000 0.00000000
vn 0.00000000 -1.00000000 0.00000000
vn 0.00000000 -1.00000000 0.00000000
vn 0.00000000 -1.00000000 0.00000000
vn 0.00000000 -1.00000000 0.00000000
vn 0.00000000 -1.00000000 0.00000000
vn 0.00000000 -1.00000000 0.00000000
vn 0.00000000 -1.00000000 0.00000000
vn 0.00000000 -1.00000000 0.00000000
vn 0.00000000 -1.00000000 0.00000000
vn 0.00000000 -1.00000000 0.00000000
vn 0.00000000 -1.00000000 0.00000000
vn 0.00000000 -1.00000000 0.00000000
vn -0.00000000 -1.00000000 -0.00010000
vn -0.00000000 -1.00000000 -0.00010000
vn 0.00000000 -1.00000000 0.00000000
vn 0.00000000 -1.00000000 0.00000000
vn 0.00000000 -1.00000000 0.00000000
vn 0.00000000 -1.00000000 0.00000000
vn 0.00000000 -1.00000000 0.00000000
vn 0.00000000 -1.00000000 0.00000000
vn 0.00000000 -1.00000000 0.00000000
vn 0.00000000 -1.00000000 0.00000000
vn 0.00000000 -1.00000000 0.00000000
vn 0.00000000 -1.00000000 0.00000000
vn 0.00000000 -1.00000000 0.00000000
vn 0.00000000 -1.00000000 0.00000000
vn -0.00010000 1.00000000 0.00000000
vn 0.00000000 1.00000000 0.00000000
vn 0.00010000 1.00000000 0.00010000
vn 0.00000000 1.00000000 0.00000000
vn 0.00000000 1.00000000 0.00000000
vn 0.00000000 1.00000000 0.00000000
vn 0.00010000 1.00000000 0.00010000
vn 0.00000000 1.00000000 0.00000000
vn 0.00000000 1.00000000 0.00000000
vn 0.00010000 1.00000000 0.00010000
vn 0.00000000 1.00000000 0.00000000
vn -0.00010000 1.00000000 0.00000000
vn 0.00000000 1.00000000 0.00000000
vn -0.00010000 1.00000000 0.00000000
vn 0.00000000 1.00000000 0.00000000
vn 0.00000000 1.00000000 0.00000000
vn 0.00000000 1.00000000 0.00000000
vn 0.00000000 1.00000000 0.00000000
vn 0.00000000 1.00000000 0.00010000
vn 0.00000000 1.00000000 0.00010000
vn 0.00000000 1.00000000 0.00000000
vn 0.00000000 1.00000000 0.00010000
vn 0.00000000 1.00000000 0.00000000
vn 0.00000000 1.00000000 0.00000000
vn 0.00000000 1.00000000 0.00010000
vn 0.00000000 1.00000000 0.00000000
vn 0.00000000 1.00000000 0.00000000
vn 0.00000000 1.00000000 0.00010000
vn 0.00000000 1.00000000 0.00000000
vn 0.00000000 1.00000000 0.00000000
vn 0.00000000 1.00000000 0.00000000
vn 0.00000000 1.00000000 0.00000000
vn 0.00000000 1.00000000 0.00000000
vn 0.00000000 1.00000000 0.00000000
vn 0.00000000 1.00000000 0.00000000
vn 0.00000000 1.00000000 0.00000000
vn 0.00000000 1.00000000 0.00000000
vn 0.00000000 1.00000000 0.00000000
vn 0.00000000 1.00000000 0.00010000
vn 0.00000000 1.00000000 0.00000000
vn -0.00010000 1.00000000 0.00000000
vn 0.00000000 1.00000000 0.00000000
vn 0.00000000 1.00000000 0.00010000
vn 0.00000000 1.00000000 0.00000000
vn 0.00000000 1.00000000 0.00010000
vn 0.00000000 1.00000000 0.00000000
vn 0.00000000 1.00000000 0.00000000
vn 0.00010000 1.00000000 -0.00010000
vn -0.00010000 1.00000000 0.00000000
vn 0.00000000 1.00000000 0.00000000
vn 0.00000000 1.00000000 0.00000000
vn 0.00010000 1.00000000 -0.00010000
vn -0.00010000 1.00000000 0.00000000
vn 0.00010000 1.00000000 -0.00010000
vn -0.00010000 1.00000000 0.00000000
vn 0.00000000 1.00000000 0.00000000
vn 0.00000000 1.00000000 0.00000000
vn -0.00010000 1.00000000 0.00000000
vn 0.00000000 1.00000000 0.00000000
vn -0.00010000 1.00000000 0.00000000
vn -0.36990000 0.70710000 0.60260000
vn 0.30890000 0.70710000 0.63600000
vn 0.39100000 0.70710000 0.58920000
vn 0.42940000 0.70710000 0.56180000
vn 0.63660000 0.70710000 0.30770000
vn 0.68520000 0.70710000 0.17470000
vn 0.96660000 -0.25140000 -0.05010000
vn 0.84950000 -0.45770000 0.26230000
vn 0.92360000 -0.30430000 0.23310000
vn 0.83310000 -0.44180000 0.33280000
vn 0.26810000 -0.95890000 0.09250000
vn 0.64420000 -0.40920000 0.64620000
vn 0.50380000 -0.46600000 0.72730000
vn 0.16020000 -0.96420000 0.21120000
vn 0.57350000 -0.43790000 0.69230000
vn 0.34510000 -0.45730000 0.81960000
vn -0.08110000 -0.95840000 0.27350000
vn -0.18120000 -0.40680000 0.89540000
vn -0.42440000 -0.22150000 0.87790000
vn -0.60740000 -0.22860000 0.76080000
vn -0.59780000 -0.51770000 0.61200000
vn -0.71030000 -0.45050000 0.54080000
vn -0.24620000 -0.94550000 0.21280000
vn -0.74300000 -0.22450000 0.63050000
vn -0.41030000 -0.88630000 0.21500000
vn -0.71530000 -0.52430000 0.46200000
vn -0.85350000 -0.23680000 0.46420000
vn 0.05110000 0.00000000 0.99870000
vn -0.05110000 0.00000000 -0.99870000
vn -0.79430000 -0.60150000 0.08530000
vn -0.95680000 -0.28740000 0.04400000
vn -0.82750000 -0.45910000 -0.32330000
vn -0.75680000 -0.50960000 -0.40940000
vn 0.23530000 -0.59160000 -0.77110000
vn 0.35170000 -0.25910000 -0.89950000
vn 0.62910000 -0.43240000 -0.64600000
vn 0.22390000 -0.94890000 -0.22250000
vn 0.47710000 -0.65180000 -0.58960000
vn 0.69320000 -0.41340000 -0.59050000
vn 0.80670000 -0.39690000 -0.43790000
vn 0.24890000 -0.95850000 -0.13910000
vn 0.75320000 -0.45180000 -0.47810000
vn 0.57580000 0.70710000 -0.41040000
vn 0.54710000 0.70710000 -0.44800000
vn 0.15170000 0.70710000 -0.69070000
vn -0.17610000 0.70710000 -0.68480000
vn -0.26580000 0.70710000 -0.65530000
vn -0.68520000 0.70710000 -0.17470000
vt 0.42795400 0.99392600
vt 0.44074400 1.00000000
vt 0.45805100 0.99535000
vt 0.44990600 1.00000000
vt 0.45906800 1.00000000
vt 0.46823000 1.00000000
vt 0.47739200 1.00000000
vt 0.48256000 0.99527600
vt 0.48655400 1.00000000
vt 0.50649000 0.99527600
vt 0.49571600 1.00000000
vt 0.50487700 1.00000000
vt 0.52914600 0.99527700
vt 0.52320100 1.00000000
vt 0.53236300 1.00000000
vt 0.54152500 1.00000000
vt 0.51403900 1.00000000
vt 0.54604500 0.99527900
vt 0.55068700 1.00000000
vt 0.56305200 0.99527600
vt 0.58260900 0.99526500
vt 0.57817300 1.00000000
vt 0.58733500 1.00000000
vt 0.59649700 1.00000000
vt 0.56901100 1.00000000
vt 0.60113900 0.99528000
vt 0.60565900 1.00000000
vt 0.61947100 0.99526400
vt 0.61482000 1.00000000
vt 0.62398200 1.00000000
vt 0.64382800 0.99526200
vt 0.63314400 1.00000000
vt 0.64230600 1.00000000
vt 0.65146800 1.00000000
vt 0.66063000 1.00000000
vt 0.66658800 0.99527300
vt 0.66979200 1.00000000
vt 0.67895400 1.00000000
vt 0.68359600 0.99528000
vt 0.68811600 1.00000000
vt 0.70128400 0.99527500
vt 0.74847300 0.99528100
vt 0.74308700 1.00000000
vt 0.75224900 1.00000000
vt 0.76141100 1.00000000
vt 0.72505900 0.99527800
vt 0.73392500 1.00000000
vt 0.70644000 1.00000000
vt 0.77019700 0.99528800
vt 0.77057300 1.00000000
vt 0.77973500 1.00000000
vt 0.79349300 0.99527200
vt 0.79805900 1.00000000
vt 0.80722100 1.00000000
vt 0.81774300 0.99526200
vt 0.82554500 1.00000000
vt 0.83470600 1.00000000
vt 0.83922600 0.99527900
vt 0.84386800 1.00000000
vt 0.85855600 0.99545900
vt 0.85303000 1.00000000
vt 0.86219200 1.00000000
vt 0.87135400 1.00000000
vt 0.24518500 0.57764400
vt 0.23670000 0.57479600
vt 0.23082900 0.57710100
vt 0.23082900 0.57710100
vt 0.25443900 0.57822900
vt 0.25506700 0.57527800
vt 0.26504900 0.57706100
vt 0.26504900 0.57706100
vt 0.30298500 0.57812400
vt 0.31455000 0.57762500
vt 0.30392200 0.57520800
vt 0.33014900 0.57827600
vt 0.33487200 0.57527200
vt 0.32257900 0.57714500
vt 0.40987300 0.57838400
vt 0.40367600 0.57534200
vt 0.39862200 0.57768100
vt 0.42589600 0.57824100
vt 0.43723900 0.57760700
vt 0.41937400 0.57706200
vt 0.41937400 0.57706200
vt 0.48378400 0.57837300
vt 0.48845400 0.57566400
vt 0.47361200 0.57743600
vt 0.51103000 0.57815300
vt 0.51925500 0.57533700
vt 0.50370700 0.57737400
vt 0.50370700 0.57737400
vt 0.59279000 0.57820000
vt 0.60042400 0.57618500
vt 0.60042400 0.57618500
vt 0.58130800 0.57751200
vt 0.58130800 0.57751200
vt 0.60875800 0.57865100
vt 0.61838600 0.57627100
vt 0.22158300 0.57853300
vt 0.21422700 0.57660300
vt 0.44637700 0.66689000
vt 0.45292100 0.80062700
vt 0.45901500 0.66344500
vt 0.47164400 0.66548200
vt 0.46442600 0.79980100
vt 0.47475300 0.80091000
vt 0.44131600 0.79988400
vt 0.43378200 0.65883300
vt 0.43360700 0.80204800
vt 0.52025100 0.66656200
vt 0.51399300 0.79980500
vt 0.52395200 0.79984700
vt 0.49597700 0.66663800
vt 0.50174700 0.80081000
vt 0.50810100 0.66412900
vt 0.49002500 0.79977000
vt 0.48377800 0.66330500
vt 0.48294300 0.80058000
vt 0.56862800 0.66652600
vt 0.56178100 0.80070800
vt 0.57423900 0.80063100
vt 0.55649400 0.66526800
vt 0.55149900 0.79972300
vt 0.54445700 0.66533100
vt 0.54154900 0.79971700
vt 0.53229900 0.66380400
vt 0.53135700 0.80074700
vt 0.59276100 0.66422100
vt 0.59854400 0.80066500
vt 0.60481600 0.66646600
vt 0.61691000 0.66207300
vt 0.61000900 0.79972500
vt 0.61661000 0.80110100
vt 0.58636400 0.80140500
vt 0.58066500 0.66692800
vt 0.66100700 0.80160000
vt 0.65474400 0.66641000
vt 0.64817600 0.80077100
vt 0.64213300 0.66478600
vt 0.63758300 0.80048500
vt 0.66740600 0.66452300
vt 0.62954400 0.66503900
vt 0.62620900 0.79966600
vt 0.70678600 0.79974100
vt 0.71443500 0.80102400
vt 0.71597700 0.66402700
vt 0.70383400 0.66596900
vt 0.69566200 0.80060500
vt 0.69168200 0.66421100
vt 0.68430300 0.80054800
vt 0.67952800 0.66798300
vt 0.67292700 0.80077800
vt 0.74601400 0.80064400
vt 0.74013700 0.66436000
vt 0.73424900 0.79992400
vt 0.75230200 0.66698700
vt 0.75630900 0.80066700
vt 0.76434100 0.66484700
vt 0.76293000 0.80003900
vt 0.72808900 0.66677200
vt 0.72255900 0.80048200
vt 0.80059700 0.66172700
vt 0.80021500 0.79988800
vt 0.80718200 0.80114800
vt 0.79267700 0.80061000
vt 0.78847200 0.66697300
vt 0.78332300 0.79985100
vt 0.77259800 0.80113900
vt 0.77643400 0.66203900
vt 0.42949900 0.57996800
vt 0.42117000 0.57996800
vt 0.43782800 0.57996800
vt 0.42516900 0.79943100
vt 0.42117000 0.68947500
vt 0.44615700 0.57996800
vt 0.45448600 0.57996800
vt 0.46281500 0.57996800
vt 0.47947300 0.57996800
vt 0.47114400 0.57996800
vt 0.48780200 0.57996800
vt 0.49613100 0.57996800
vt 0.50446000 0.57996800
vt 0.51278900 0.57996800
vt 0.52111800 0.57996800
vt 0.53777600 0.57996800
vt 0.52944700 0.57996800
vt 0.54610500 0.57996800
vt 0.55443400 0.57996800
vt 0.56276300 0.57996800
vt 0.57109200 0.57996800
vt 0.59607900 0.57996800
vt 0.58775000 0.57996800
vt 0.57942100 0.57996800
vt 0.61273700 0.57996800
vt 0.62106600 0.57996800
vt 0.63772400 0.57996800
vt 0.62939500 0.57996800
vt 0.64605300 0.57996800
vt 0.65438200 0.57996800
vt 0.66271100 0.57996800
vt 0.67104000 0.57996800
vt 0.67936900 0.57996800
vt 0.68769800 0.57996800
vt 0.69602700 0.57996800
vt 0.70435600 0.57996800
vt 0.71268500 0.57996800
vt 0.72101400 0.57996800
vt 0.72934300 0.57996800
vt 0.74600100 0.57996800
vt 0.73767200 0.57996800
vt 0.75433000 0.57996800
vt 0.76265900 0.57996800
vt 0.77098800 0.57996800
vt 0.77931700 0.57996800
vt 0.80430400 0.57996800
vt 0.79597500 0.57996800
vt 0.81263300 0.57996800
vt 0.78764600 0.57996800
vt 0.81263300 0.68947500
vt 0.81652700 0.79934900
vt 0.46418200 0.80047000
vt 0.45905600 0.66343800
vt 0.45458900 0.80088500
vt 0.44640700 0.66613300
vt 0.44320000 0.80192900
vt 0.47164600 0.66541900
vt 0.47299400 0.80063600
vt 0.43378900 0.66027800
vt 0.43247800 0.80066000
vt 0.49597500 0.66645400
vt 0.50181000 0.80078200
vt 0.50810200 0.66345700
vt 0.52027200 0.66422600
vt 0.51334400 0.80166200
vt 0.52483500 0.80113000
vt 0.48996500 0.80057000
vt 0.47985000 0.80133300
vt 0.48378600 0.66353600
vt 0.56862800 0.66559100
vt 0.56181000 0.80132400
vt 0.57426900 0.80055300
vt 0.55648800 0.66541500
vt 0.55156000 0.79989900
vt 0.54445100 0.66559500
vt 0.54327500 0.80069400
vt 0.53230000 0.66531900
vt 0.53622100 0.80073200
vt 0.59276200 0.66174400
vt 0.59847200 0.80076900
vt 0.60485300 0.66738700
vt 0.61238500 0.80207300
vt 0.61690100 0.66171800
vt 0.58624800 0.80049200
vt 0.58068000 0.66707500
vt 0.65472400 0.66682900
vt 0.65446100 0.80178800
vt 0.66282100 0.80222100
vt 0.64722300 0.79767600
vt 0.64214300 0.66483000
vt 0.63606800 0.80128700
vt 0.66739800 0.66505400
vt 0.62953500 0.66535400
vt 0.62435100 0.80064900
vt 0.69668800 0.80074300
vt 0.69170000 0.66313600
vt 0.68514100 0.80089400
vt 0.70383500 0.66589200
vt 0.70525500 0.80080000
vt 0.71213400 0.79993000
vt 0.71597300 0.66445900
vt 0.67324100 0.79988300
vt 0.67955300 0.66698300
vt 0.75224800 0.66575700
vt 0.74833100 0.80094700
vt 0.75989800 0.80052000
vt 0.74008200 0.66580500
vt 0.76425500 0.66662000
vt 0.73186800 0.80085100
vt 0.73916900 0.80231800
vt 0.72806100 0.66665900
vt 0.72210000 0.79981000
vt 0.80060400 0.66194100
vt 0.79964100 0.79997900
vt 0.80692000 0.80162300
vt 0.79276300 0.80081600
vt 0.78846100 0.66617500
vt 0.78322400 0.80076200
vt 0.77165600 0.80078300
vt 0.77638200 0.66044700
vt 0.42949900 0.57996800
vt 0.42117000 0.57996800
vt 0.43782800 0.57996800
vt 0.42506300 0.79934800
vt 0.42117000 0.68947500
vt 0.44615700 0.57996800
vt 0.45448600 0.57996800
vt 0.46281500 0.57996800
vt 0.47947300 0.57996800
vt 0.47114400 0.57996800
vt 0.48780200 0.57996800
vt 0.49613100 0.57996800
vt 0.50446000 0.57996800
vt 0.51278900 0.57996800
vt 0.52111800 0.57996800
vt 0.53777600 0.57996800
vt 0.52944700 0.57996800
vt 0.54610500 0.57996800
vt 0.55443400 0.57996800
vt 0.56276300 0.57996800
vt 0.57109200 0.57996800
vt 0.59607900 0.57996800
vt 0.58775000 0.57996800
vt 0.57942100 0.57996800
vt 0.61273700 0.57996800
vt 0.62106600 0.57996800
vt 0.62939500 0.57996800
vt 0.63772400 0.57996800
vt 0.64605300 0.57996800
vt 0.65438200 0.57996800
vt 0.66271100 0.57996800
vt 0.67104000 0.57996800
vt 0.67936900 0.57996800
vt 0.68769800 0.57996800
vt 0.69602700 0.57996800
vt 0.70435600 0.57996800
vt 0.71268500 0.57996800
vt 0.72101400 0.57996800
vt 0.72934300 0.57996800
vt 0.74600100 0.57996800
vt 0.73767200 0.57996800
vt 0.75433000 0.57996800
vt 0.76265900 0.57996800
vt 0.77098800 0.57996800
vt 0.77931700 0.57996800
vt 0.80430400 0.57996800
vt 0.79597500 0.57996800
vt 0.81263300 0.57996800
vt 0.78764600 0.57996800
vt 0.81263300 0.68947500
vt 0.81663300 0.79943100
vt 0.64181200 0.57740600
vt 0.64181200 0.57740600
vt 0.64114000 0.57461300
vt 0.63238100 0.57742500
vt 0.63238100 0.57742500
vt 0.66489200 0.57765800
vt 0.66296900 0.57484000
vt 0.65326900 0.57758500
vt 0.71214700 0.57814000
vt 0.70983900 0.57519400
vt 0.70228700 0.57828800
vt 0.72742100 0.57744000
vt 0.73463300 0.57419000
vt 0.71894700 0.57742400
vt 0.71894700 0.57742400
vt 0.73885300 0.57740200
vt 0.73466700 0.57498500
vt 0.75062100 0.57820300
vt 0.76093700 0.57620000
vt 0.83668700 0.57762400
vt 0.83525600 0.57489200
vt 0.82459400 0.57747300
vt 0.84853500 0.57760900
vt 0.87920600 0.57744800
vt 0.88618100 0.57738100
vt 0.87465100 0.57495000
vt 0.64115800 0.57391200
vt 0.76920400 0.57667500
vt 0.77635900 0.58024900
vt 0.78740000 0.57683700
vt 0.42795400 0.99392900
vt 0.44074400 1.00000000
vt 0.45839200 0.99530900
vt 0.44990600 1.00000000
vt 0.45906800 1.00000000
vt 0.46823000 1.00000000
vt 0.47739200 1.00000000
vt 0.48544600 0.99528400
vt 0.48655400 1.00000000
vt 0.49571600 1.00000000
vt 0.51111900 0.99519900
vt 0.52320100 1.00000000
vt 0.53236300 0.99527800
vt 0.53236300 1.00000000
vt 0.54152500 1.00000000
vt 0.54746900 0.99527200
vt 0.55068700 1.00000000
vt 0.55984900 1.00000000
vt 0.57055100 0.99527800
vt 0.56901100 1.00000000
vt 0.57817300 1.00000000
vt 0.58733500 1.00000000
vt 0.61033700 0.99527100
vt 0.61482000 1.00000000
vt 0.62398200 1.00000000
vt 0.62936800 0.99528000
vt 0.63314400 1.00000000
vt 0.64230600 1.00000000
vt 0.65106800 0.99530000
vt 0.65146800 1.00000000
vt 0.59197700 0.99528100
vt 0.59649700 1.00000000
vt 0.66063000 1.00000000
vt 0.67379800 0.99527500
vt 0.71100700 0.99526900
vt 0.69189200 0.99528300
vt 0.69727800 1.00000000
vt 0.67895400 1.00000000
vt 0.71560200 1.00000000
vt 0.72476300 1.00000000
vt 0.73014900 0.99528700
vt 0.73392500 1.00000000
vt 0.75114000 0.99529200
vt 0.74308700 1.00000000
vt 0.75224900 1.00000000
vt 0.76141100 1.00000000
vt 0.70644000 1.00000000
vt 0.77666900 0.99526800
vt 0.77057300 1.00000000
vt 0.77973500 1.00000000
vt 0.79805900 0.99527800
vt 0.79805900 1.00000000
vt 0.80722100 1.00000000
vt 0.78889700 1.00000000
vt 0.81848700 0.99527900
vt 0.82554500 1.00000000
vt 0.83470600 1.00000000
vt 0.83922600 0.99527900
vt 0.84386800 1.00000000
vt 0.85855600 0.99545700
vt 0.85303000 1.00000000
vt 0.86219200 1.00000000
vt 0.87135400 1.00000000
vt 0.03464700 0.16462400
vt 0.03514300 0.16743200
vt 0.03514300 0.16743200
vt 0.02299500 0.19922000
vt 0.01493200 0.23342700
vt 0.01493200 0.23342700
vt 0.00079900 0.34232900
vt 0.00079900 0.34232900
vt 0.24042100 0.27874600
vt 0.24042100 0.27874600
vt -0.00054700 0.40031200
vt -0.00154000 0.38442900
vt -0.00098500 0.35596800
vt 0.00343800 0.29861800
vt 0.00755900 0.26813000
vt 0.00063500 0.32768900
vt 0.09237700 0.08193900
vt 0.10791100 0.07627700
vt 0.07791800 0.09525600
vt 0.06361500 0.11324100
vt 0.04375100 0.14425000
vt 0.03470900 0.16472500
vt 0.05337900 0.12574000
vt 0.00490600 0.47692600
vt -0.00002700 0.43139100
vt 0.00132000 0.45149300
vt 0.00869100 0.50724900
vt 0.01217600 0.52141900
vt 0.24585400 0.33894800
vt 0.24695800 0.40131600
vt 0.24695800 0.40131600
vt 0.02817000 0.58451700
vt 0.02817000 0.58451700
vt 0.01287100 0.53090500
vt 0.02144100 0.56563000
vt 0.03429500 0.60432700
vt 0.04119400 0.61725600
vt 0.04119400 0.61725600
vt 0.12332900 0.69550200
vt 0.12332900 0.69550200
vt 0.06822700 0.66563600
vt 0.04507300 0.62871500
vt 0.08983700 0.68366700
vt 0.05877400 0.65288900
vt 0.08771800 0.68509200
vt 0.07865500 0.67717600
vt 0.09628100 0.69048600
vt 0.10303200 0.69356700
vt 0.11306100 0.69697000
vt 0.13132900 0.07532100
vt 0.12169700 0.07216600
vt 0.23014200 0.22832500
vt 0.14854300 0.07867200
vt 0.14046400 0.07527800
vt 0.16004500 0.08807200
vt 0.21731900 0.18388600
vt 0.16947200 0.09432900
vt 0.18671200 0.11612300
vt 0.20162600 0.14201600
vt 0.21218200 0.16566000
vt 0.22568600 0.20634100
vt 0.23714300 0.25728000
vt 0.24286700 0.29602000
vt 0.24763500 0.36161400
vt 0.18249700 0.66036900
vt 0.16951900 0.67307500
vt 0.16951900 0.67307500
vt 0.20325300 0.62203100
vt 0.20325300 0.62203100
vt 0.19320000 0.64434500
vt 0.22097800 0.57928500
vt 0.21182000 0.60557900
vt 0.13643000 0.69595000
vt 0.14780600 0.69176100
vt 0.15886400 0.68492000
vt 0.24356000 0.46708800
vt 0.24107900 0.48711500
vt 0.24756900 0.41206000
vt 0.22802000 0.55500000
vt 0.23389100 0.52955600
vt 0.05829100 0.10918100
vt 0.05829100 0.10918100
vt 0.03730700 0.19746600
vt 0.03730700 0.19746600
vt 0.04686000 0.14832300
vt 0.03140400 0.24783600
vt 0.02917400 0.29653100
vt 0.02917400 0.29653100
vt 0.02993400 0.34933700
vt 0.02993400 0.34933700
vt 0.15106000 0.61831800
vt 0.11502000 0.01403200
vt 0.11502000 0.01403200
vt 0.07033100 0.07773100
vt 0.07033100 0.07773100
vt 0.09259600 0.03777200
vt 0.23577400 0.08102200
vt 0.05983200 0.51392200
vt 0.05983200 0.51392200
vt 0.03469500 0.40161200
vt 0.03469500 0.40161200
vt 0.12090800 0.60807800
vt 0.12090800 0.60807800
vt 0.04048300 0.43879000
vt 0.04771400 0.47254600
vt 0.04771400 0.47254600
vt 0.07578700 0.55156300
vt 0.10424100 0.59390900
vt 0.10424100 0.59390900
vt 0.08942400 0.57486600
vt 0.13590100 0.61546700
vt 0.15665400 0.00002000
vt 0.13755200 0.00162000
vt 0.19042900 0.01438600
vt 0.17019300 0.00288300
vt 0.22241900 0.05414500
vt 0.20818000 0.03316200
vt 0.26041500 0.15942700
vt 0.26041500 0.15942700
vt 0.24914200 0.11666200
vt 0.27217200 0.38440100
vt 0.27217200 0.38440100
vt 0.27217200 0.38440100
vt 0.27248000 0.23753200
vt 0.27248000 0.23753200
vt 0.26729200 0.19640800
vt 0.24653500 0.50880500
vt 0.24653500 0.50880500
vt 0.24653500 0.50880500
vt 0.27521600 0.28015000
vt 0.27561000 0.32749400
vt 0.21250500 0.57981900
vt 0.21250500 0.57981900
vt 0.23449500 0.54025400
vt 0.19226500 0.60181300
vt 0.19226500 0.60181300
vt 0.17140200 0.61498600
vt 0.25759500 0.47106900
vt 0.25759500 0.47106900
vt 0.26585800 0.42996600
vt 0.55984900 1.00000000
vt 0.69727800 1.00000000
vt 0.71560200 1.00000000
vt 0.72476300 1.00000000
vt 0.78889700 1.00000000
vt 0.81638300 1.00000000
vt 0.23772400 0.57821000
vt 0.28116500 0.57748200
vt 0.27461000 0.57802100
vt 0.29134900 0.57754900
vt 0.28481200 0.57474800
vt 0.34116400 0.57761400
vt 0.36365900 0.57748200
vt 0.35796200 0.57467700
vt 0.35239900 0.57755900
vt 0.38813500 0.57749000
vt 0.47252900 0.57474900
vt 0.46127300 0.57771600
vt 0.49363000 0.57834000
vt 0.52089100 0.57829500
vt 0.53299700 0.57725800
vt 0.55161100 0.57750200
vt 0.54258700 0.57489800
vt 0.54460100 0.57830800
vt 0.57167300 0.57535500
vt 0.55969900 0.57722500
vt 0.56992600 0.57828200
vt 0.60440800 0.57996800
vt 0.60440800 0.57996800
vt 0.61837300 0.57689600
vt 0.62557200 0.57808500
vt 0.67632200 0.57759800
vt 0.69261700 0.57731400
vt 0.86085200 0.57694600
vt 0.87100300 0.57818400
vt 0.92022300 0.57761100
vt 0.92178700 0.57486300
vt 0.90880200 0.57666300
vt 0.93194300 0.57766000
vt 0.95744600 0.57773800
vt 0.95559000 0.57475300
vt 0.94873000 0.57749300
vt 0.50487700 1.00000000
vt 0.51403900 1.00000000
vt 0.60565900 1.00000000
vt 0.66979200 1.00000000
vt 0.68811600 1.00000000
vt 0.81638300 1.00000000
f 1/1/1 2/2/2 3/3/3
f 3/3/3 4/4/4 5/5/5
f 3/3/3 6/6/6 7/7/7
f 8/8/8 7/7/7 9/9/9
f 10/10/10 11/11/11 12/12/12
f 13/13/13 14/14/14 15/15/15
f 13/13/13 15/15/15 16/16/16
f 10/10/10 17/17/17 14/14/14
f 8/8/8 9/9/9 11/11/11
f 18/18/18 19/19/19 20/20/20
f 21/21/21 22/22/22 23/23/23
f 21/21/21 23/23/23 24/24/24
f 20/20/20 25/25/25 21/21/21
f 26/26/26 27/27/27 28/28/28
f 28/28/28 29/29/29 30/30/30
f 31/31/31 32/32/32 33/33/33
f 31/31/31 33/33/33 34/34/34
f 28/28/28 30/30/30 32/32/32
f 18/18/18 16/16/16 19/19/19
f 31/31/31 34/34/34 35/35/35
f 36/36/36 35/35/35 37/37/37
f 36/36/36 37/37/37 38/38/38
f 39/39/39 40/40/40 41/41/41
f 42/42/42 43/43/43 44/44/44
f 42/42/42 44/44/44 45/45/45
f 46/46/46 47/47/47 43/43/43
f 41/41/41 48/48/48 46/46/46
f 49/49/49 50/50/50 51/51/51
f 49/49/49 51/51/51 52/52/52
f 52/52/52 53/53/53 54/54/54
f 55/55/55 56/56/56 57/57/57
f 58/58/58 57/57/57 59/59/59
f 60/60/60 61/61/61 62/62/62
f 60/60/60 62/62/62 63/63/63
f 58/58/58 59/59/59 60/60/60
f 49/49/49 45/45/45 50/50/50
f 64/64/64 65/65/65 67/67/67
f 68/68/68 69/69/69 64/64/64
f 70/70/70 69/69/69 68/68/68
f 72/72/72 73/73/73 74/74/74
f 75/75/75 76/76/76 77/77/77
f 78/78/78 79/79/79 80/80/80
f 81/81/81 82/82/82 84/84/84
f 85/85/85 86/86/86 87/87/87
f 88/88/88 89/89/89 90/90/90
f 92/92/92 93/93/93 95/95/95
f 97/97/97 98/98/98 94/94/94
f 99/99/99 66/66/66 100/100/100
f 102/102/102 105/105/105 103/103/103
f 104/104/104 105/105/105 106/106/106
f 103/103/103 105/105/105 104/104/104
f 102/102/102 101/101/101 107/107/107
f 107/107/107 108/108/108 109/109/109
f 108/108/108 107/107/107 101/101/101
f 110/110/110 111/111/111 112/112/112
f 114/114/114 111/111/111 115/115/115
f 115/115/115 111/111/111 110/110/110
f 116/116/116 113/113/113 117/117/117
f 113/113/113 116/116/116 114/114/114
f 117/117/117 104/104/104 118/118/118
f 119/119/119 120/120/120 121/121/121
f 120/120/120 119/119/119 122/122/122
f 123/123/123 122/122/122 124/124/124
f 126/126/126 110/110/110 127/127/127
f 125/125/125 124/124/124 126/126/126
f 128/128/128 129/129/129 130/130/130
f 131/131/131 132/132/132 133/133/133
f 130/130/130 132/132/132 131/131/131
f 128/128/128 135/135/135 134/134/134
f 134/134/134 135/135/135 121/121/121
f 119/119/119 121/121/121 135/135/135
f 136/136/136 137/137/137 138/138/138
f 138/138/138 137/137/137 139/139/139
f 136/136/136 152/152/152 141/141/141
f 140/140/140 139/139/139 142/142/142
f 143/143/143 142/142/142 131/131/131
f 146/146/146 147/147/147 145/145/145
f 147/147/147 148/148/148 144/144/144
f 149/149/149 148/148/148 147/147/147
f 149/149/149 151/151/151 150/150/150
f 150/150/150 151/151/151 152/152/152
f 141/141/141 152/152/152 151/151/151
f 153/153/153 156/156/156 154/154/154
f 156/156/156 153/153/153 157/157/157
f 158/158/158 156/156/156 159/159/159
f 160/160/160 161/161/161 155/155/155
f 146/146/146 145/145/145 161/161/161
f 160/160/160 155/155/155 154/154/154
f 164/164/164 219/219/219 163/163/163
f 162/162/162 166/166/166 163/163/163
f 166/166/166 167/167/167 165/165/165
f 168/168/168 158/158/158 159/159/159
f 168/168/168 167/167/167 169/169/169
f 169/169/169 167/167/167 166/166/166
f 170/170/170 171/171/171 108/108/108
f 170/170/170 108/108/108 172/172/172
f 173/173/173 108/108/108 174/174/174
f 109/109/109 108/108/108 173/173/173
f 172/172/172 108/108/108 175/175/175
f 101/101/101 103/103/103 176/176/176
f 103/103/103 177/177/177 176/176/176
f 104/104/104 117/117/117 178/178/178
f 117/117/117 180/180/180 178/178/178
f 104/104/104 179/179/179 177/177/177
f 180/180/180 117/117/117 181/181/181
f 113/113/113 115/115/115 182/182/182
f 115/115/115 183/183/183 182/182/182
f 183/183/183 115/115/115 110/110/110
f 126/126/126 185/185/185 186/186/186
f 185/185/185 126/126/126 124/124/124
f 110/110/110 126/126/126 184/184/184
f 188/188/188 187/187/187 124/124/124
f 189/189/189 188/188/188 122/122/122
f 189/189/189 122/122/122 119/119/119
f 135/135/135 193/193/193 190/190/190
f 128/128/128 191/191/191 192/192/192
f 130/130/130 601/601/601 128/128/128
f 135/135/135 128/128/128 192/192/192
f 194/194/194 601/601/601 131/131/131
f 195/195/195 194/194/194 131/131/131
f 142/142/142 197/197/197 195/195/195
f 142/142/142 139/139/139 196/196/196
f 139/139/139 198/198/198 196/196/196
f 198/198/198 139/139/139 137/137/137
f 137/137/137 141/141/141 200/200/200
f 141/141/141 201/201/201 200/200/200
f 151/151/151 149/149/149 202/202/202
f 149/149/149 204/204/204 203/203/203
f 151/151/151 202/202/202 141/141/141
f 204/204/204 149/149/149 147/147/147
f 147/147/147 146/146/146 206/206/206
f 146/146/146 207/207/207 206/206/206
f 207/207/207 146/146/146 160/160/160
f 154/154/154 209/209/209 210/210/210
f 209/209/209 154/154/154 156/156/156
f 160/160/160 154/154/154 208/208/208
f 211/211/211 156/156/156 158/158/158
f 158/158/158 169/169/169 213/213/213
f 169/169/169 214/214/214 213/213/213
f 166/166/166 218/218/218 169/169/169
f 162/162/162 215/215/215 216/216/216
f 162/162/162 217/217/217 215/215/215
f 166/166/166 162/162/162 218/218/218
f 219/219/219 217/217/217 162/162/162
f 164/164/164 220/220/220 219/219/219
f 222/222/222 224/224/224 223/223/223
f 224/224/224 225/225/225 223/223/223
f 226/226/226 221/221/221 227/227/227
f 222/222/222 221/221/221 226/226/226
f 225/225/225 224/224/224 229/229/229
f 230/230/230 231/231/231 232/232/232
f 233/233/233 234/234/234 235/235/235
f 232/232/232 231/231/231 234/234/234
f 230/230/230 236/236/236 231/231/231
f 237/237/237 226/226/226 227/227/227
f 237/237/237 236/236/236 238/238/238
f 238/238/238 236/236/236 230/230/230
f 239/239/239 242/242/242 240/240/240
f 240/240/240 242/242/242 243/243/243
f 243/243/243 242/242/242 244/244/244
f 246/246/246 235/235/235 247/247/247
f 233/233/233 235/235/235 246/246/246
f 244/244/244 246/246/246 247/247/247
f 248/248/248 253/253/253 249/249/249
f 251/251/251 263/263/263 252/252/252
f 253/253/253 254/254/254 241/241/241
f 239/239/239 241/241/241 254/254/254
f 254/254/254 253/253/253 248/248/248
f 255/255/255 256/256/256 257/257/257
f 259/259/259 262/262/262 260/260/260
f 258/258/258 256/256/256 255/255/255
f 259/259/259 258/258/258 255/255/255
f 257/257/257 271/271/271 261/261/261
f 260/260/260 262/262/262 263/263/263
f 252/252/252 263/263/263 262/262/262
f 265/265/265 272/272/272 266/266/266
f 267/267/267 264/264/264 268/268/268
f 265/265/265 264/264/264 267/267/267
f 269/269/269 267/267/267 268/268/268
f 267/267/267 269/269/269 270/270/270
f 272/272/272 271/271/271 266/266/266
f 261/261/261 271/271/271 272/272/272
f 275/275/275 277/277/277 273/273/273
f 276/276/276 279/279/279 274/274/274
f 276/276/276 280/280/280 278/278/278
f 280/280/280 281/281/281 278/278/278
f 270/270/270 269/269/269 281/281/281
f 284/284/284 339/339/339 283/283/283
f 282/282/282 286/286/286 283/283/283
f 286/286/286 287/287/287 285/285/285
f 288/288/288 277/277/277 275/275/275
f 277/277/277 288/288/288 289/289/289
f 287/287/287 286/286/286 288/288/288
f 290/290/290 291/291/291 228/228/228
f 290/290/290 228/228/228 292/292/292
f 293/293/293 229/229/229 294/294/294
f 292/292/292 228/228/228 295/295/295
f 224/224/224 222/222/222 296/296/296
f 222/222/222 297/297/297 296/296/296
f 226/226/226 238/238/238 298/298/298
f 238/238/238 300/300/300 298/298/298
f 226/226/226 299/299/299 297/297/297
f 300/300/300 238/238/238 230/230/230
f 230/230/230 232/232/232 301/301/301
f 232/232/232 303/303/303 302/302/302
f 303/303/303 232/232/232 233/233/233
f 246/246/246 305/305/305 306/306/306
f 305/305/305 246/246/246 244/244/244
f 233/233/233 246/246/246 306/306/306
f 308/308/308 307/307/307 244/244/244
f 242/242/242 239/239/239 309/309/309
f 239/239/239 310/310/310 309/309/309
f 254/254/254 313/313/313 239/239/239
f 248/248/248 311/311/311 312/312/312
f 250/250/250 602/602/602 248/248/248
f 254/254/254 248/248/248 313/313/313
f 314/314/314 602/602/602 252/252/252
f 315/315/315 314/314/314 252/252/252
f 315/315/315 252/252/252 316/316/316
f 262/262/262 259/259/259 317/317/317
f 259/259/259 318/318/318 317/317/317
f 318/318/318 259/259/259 255/255/255
f 255/255/255 261/261/261 320/320/320
f 261/261/261 321/321/321 320/320/320
f 272/272/272 265/265/265 322/322/322
f 265/265/265 324/324/324 323/323/323
f 272/272/272 322/322/322 321/321/321
f 324/324/324 265/265/265 267/267/267
f 267/267/267 270/270/270 326/326/326
f 270/270/270 327/327/327 326/326/326
f 327/327/327 270/270/270 280/280/280
f 276/276/276 329/329/329 330/330/330
f 329/329/329 276/276/276 273/273/273
f 280/280/280 276/276/276 328/328/328
f 331/331/331 273/273/273 332/332/332
f 277/277/277 289/289/289 332/332/332
f 289/289/289 334/334/334 333/333/333
f 286/286/286 338/338/338 289/289/289
f 282/282/282 335/335/335 336/336/336
f 282/282/282 337/337/337 335/335/335
f 286/286/286 282/282/282 338/338/338
f 339/339/339 337/337/337 282/282/282
f 284/284/284 340/340/340 339/339/339
f 341/341/341 343/343/343 345/345/345
f 346/346/346 347/347/347 348/348/348
f 349/349/349 350/350/350 351/351/351
f 352/352/352 353/353/353 354/354/354
f 356/356/356 357/357/357 352/352/352
f 358/358/358 359/359/359 356/356/356
f 360/360/360 361/361/361 362/362/362
f 363/363/363 361/361/361 360/360/360
f 364/364/364 365/365/365 366/366/366
f 342/342/342 348/348/348 367/367/367
f 368/368/368 369/369/369 370/370/370
f 371/371/371 372/372/372 373/373/373
f 373/373/373 374/374/374 375/375/375
f 373/373/373 376/376/376 377/377/377
f 378/378/378 377/377/377 379/379/379
f 373/373/373 375/375/375 376/376/376
f 378/378/378 380/380/380 381/381/381
f 381/381/381 382/382/382 383/383/383
f 383/383/383 384/384/384 385/385/385
f 378/378/378 379/379/379 380/380/380
f 386/386/386 387/387/387 388/388/388
f 389/389/389 388/388/388 390/390/390
f 389/389/389 391/391/391 392/392/392
f 393/393/393 394/394/394 395/395/395
f 396/396/396 397/397/397 398/398/398
f 399/399/399 398/398/398 400/400/400
f 396/396/396 395/395/395 397/397/397
f 401/401/401 402/402/402 393/393/393
f 386/386/386 385/385/385 387/387/387
f 403/403/403 399/399/399 400/400/400
f 399/399/399 403/403/403 404/404/404
f 405/405/405 406/406/406 407/407/407
f 404/404/404 408/408/408 406/406/406
f 405/405/405 409/409/409 410/410/410
f 411/411/411 410/410/410 412/412/412
f 413/413/413 414/414/414 415/415/415
f 413/413/413 415/415/415 416/416/416
f 411/411/411 412/412/412 414/414/414
f 405/405/405 417/417/417 409/409/409
f 418/418/418 419/419/419 420/420/420
f 421/421/421 422/422/422 423/423/423
f 418/418/418 424/424/424 421/421/421
f 425/425/425 426/426/426 427/427/427
f 428/428/428 427/427/427 429/429/429
f 430/430/430 431/431/431 432/432/432
f 430/430/430 432/432/432 433/433/433
f 428/428/428 429/429/429 430/430/430
f 413/413/413 416/416/416 418/418/418
f 434/434/434 436/436/436 437/437/437
f 439/439/439 435/435/435 441/441/441
f 437/437/437 436/436/436 438/438/438
f 442/442/442 444/444/444 440/440/440
f 440/440/440 445/445/445 446/446/446
f 447/447/447 448/448/448 438/438/438
f 447/447/447 440/440/440 449/449/449
f 440/440/440 447/447/447 438/438/438
f 450/450/450 451/451/451 452/452/452
f 453/453/453 452/452/452 451/451/451
f 436/436/436 442/442/442 440/440/440
f 453/453/453 451/451/451 442/442/442
f 436/436/436 453/453/453 442/442/442
f 454/454/454 436/436/436 455/455/455
f 453/453/453 454/454/454 456/456/456
f 454/454/454 453/453/453 436/436/436
f 457/457/457 458/458/458 444/444/444
f 442/442/442 462/462/462 444/444/444
f 457/457/457 459/459/459 458/458/458
f 460/460/460 457/457/457 461/461/461
f 457/457/457 462/462/462 461/461/461
f 464/464/464 466/466/466 461/461/461
f 467/467/467 461/461/461 468/468/468
f 469/469/469 466/466/466 470/470/470
f 461/461/461 466/466/466 468/468/468
f 471/471/471 465/465/465 473/473/473
f 444/444/444 445/445/445 440/440/440
f 474/474/474 475/475/475 470/470/470
f 476/476/476 474/474/474 470/470/470
f 474/474/474 477/477/477 475/475/475
f 476/476/476 478/478/478 479/479/479
f 480/480/480 476/476/476 481/481/481
f 476/476/476 479/479/479 474/474/474
f 481/481/481 472/472/472 482/482/482
f 472/472/472 481/481/481 476/476/476
f 476/476/476 470/470/470 472/472/472
f 483/483/483 451/451/451 484/484/484
f 483/483/483 485/485/485 451/451/451
f 486/486/486 483/483/483 487/487/487
f 486/486/486 488/488/488 483/483/483
f 489/489/489 483/483/483 488/488/488
f 490/490/490 491/491/491 488/488/488
f 489/489/489 492/492/492 493/493/493
f 489/489/489 491/491/491 492/492/492
f 489/489/489 488/488/488 491/491/491
f 485/485/485 483/483/483 489/489/489
f 494/494/494 485/485/485 489/489/489
f 451/451/451 485/485/485 442/442/442
f 443/443/443 485/485/485 495/495/495
f 462/462/462 442/442/442 496/496/496
f 464/464/464 462/462/462 497/497/497
f 461/461/461 462/462/462 464/464/464
f 472/472/472 466/466/466 464/464/464
f 498/498/498 499/499/499 502/502/502
f 500/500/500 463/463/463 501/501/501
f 502/502/502 503/503/503 498/498/498
f 504/504/504 505/505/505 502/502/502
f 506/506/506 472/472/472 499/499/499
f 499/499/499 472/472/472 464/464/464
f 507/507/507 506/506/506 499/499/499
f 508/508/508 507/507/507 499/499/499
f 504/504/504 509/509/509 510/510/510
f 502/502/502 464/464/464 509/509/509
f 509/509/509 504/504/504 502/502/502
f 464/464/464 511/511/511 509/509/509
f 512/512/512 504/504/504 513/513/513
f 510/510/510 513/513/513 504/504/504
f 515/515/515 517/517/517 518/518/518
f 519/519/519 517/517/517 521/521/521
f 523/523/523 520/520/520 516/516/516
f 517/517/517 515/515/515 524/524/524
f 526/526/526 528/528/528 529/529/529
f 525/525/525 514/514/514 527/527/527
f 515/515/515 526/526/526 530/530/530
f 531/531/531 534/534/534 536/536/536
f 522/522/522 517/517/517 534/534/534
f 537/537/537 534/534/534 539/539/539
f 533/533/533 532/532/532 538/538/538
f 540/540/540 542/542/542 543/543/543
f 542/542/542 540/540/540 531/531/531
f 535/535/535 541/541/541 532/532/532
f 517/517/517 544/544/544 536/536/536
f 517/517/517 536/536/536 534/534/534
f 524/524/524 544/544/544 517/517/517
f 545/545/545 526/526/526 546/546/546
f 547/547/547 545/545/545 548/548/548
f 549/549/549 547/547/547 550/550/550
f 549/549/549 530/530/530 526/526/526
f 549/549/549 526/526/526 547/547/547
f 551/551/551 530/530/530 553/553/553
f 551/551/551 555/555/555 530/530/530
f 556/556/556 552/552/552 558/558/558
f 559/559/559 557/557/557 551/551/551
f 560/560/560 569/569/569 530/530/530
f 557/557/557 563/563/563 564/564/564
f 565/565/565 561/561/561 567/567/567
f 569/569/569 570/570/570 515/515/515
f 562/562/562 566/566/566 568/568/568
f 570/570/570 524/524/524 515/515/515
f 530/530/530 555/555/555 572/572/572
f 530/530/530 572/572/572 560/560/560
f 571/571/571 554/554/554 573/573/573
f 557/557/557 564/564/564 555/555/555
f 526/526/526 545/545/545 547/547/547
f 2/2/2 4/4/4 3/3/3
f 3/3/3 7/7/7 8/8/8
f 5/5/5 6/6/6 3/3/3
f 12/12/12 17/17/17 10/10/10
f 13/13/13 16/16/16 18/18/18
f 10/10/10 14/14/14 13/13/13
f 8/8/8 11/11/11 10/10/10
f 19/19/19 574/574/574 20/20/20
f 574/574/574 25/25/25 20/20/20
f 21/21/21 24/24/24 26/26/26
f 25/25/25 22/22/22 21/21/21
f 27/27/27 29/29/29 28/28/28
f 28/28/28 32/32/32 31/31/31
f 24/24/24 27/27/27 26/26/26
f 31/31/31 35/35/35 36/36/36
f 36/36/36 38/38/38 39/39/39
f 40/40/40 575/575/575 41/41/41
f 575/575/575 48/48/48 41/41/41
f 38/38/38 40/40/40 39/39/39
f 576/576/576 577/577/577 46/46/46
f 577/577/577 47/47/47 46/46/46
f 42/42/42 45/45/45 49/49/49
f 46/46/46 43/43/43 42/42/42
f 48/48/48 576/576/576 46/46/46
f 51/51/51 578/578/578 52/52/52
f 52/52/52 54/54/54 55/55/55
f 54/54/54 579/579/579 55/55/55
f 578/578/578 53/53/53 52/52/52
f 55/55/55 57/57/57 58/58/58
f 59/59/59 61/61/61 60/60/60
f 579/579/579 56/56/56 55/55/55
f 64/64/64 67/67/67 580/580/580
f 581/581/581 71/71/71 582/582/582
f 583/583/583 584/584/584 581/581/581
f 74/74/74 583/583/583 72/72/72
f 585/585/585 76/76/76 75/75/75
f 586/586/586 587/587/587 588/588/588
f 79/79/79 589/589/589 80/80/80
f 83/83/83 79/79/79 78/78/78
f 590/590/590 591/591/591 87/87/87
f 86/86/86 590/590/590 87/87/87
f 592/592/592 86/86/86 85/85/85
f 91/91/91 86/86/86 592/592/592
f 593/593/593 89/89/89 88/88/88
f 594/594/594 89/89/89 593/593/593
f 595/595/595 596/596/596 594/594/594
f 595/595/595 594/594/594 597/597/597
f 598/598/598 599/599/599 600/600/600
f 96/96/96 598/598/598 600/600/600
f 132/132/132 130/130/130 129/129/129
f 174/174/174 108/108/108 171/171/171
f 251/251/251 250/250/250 249/249/249
f 294/294/294 228/228/228 291/291/291
f 344/344/344 603/603/603 604/604/604
f 605/605/605 347/347/347 346/346/346
f 350/350/350 606/606/606 351/351/351
f 355/355/355 350/350/350 349/349/349
f 364/364/364 366/366/366 607/607/607
f 364/364/364 607/607/607 608/608/608
f 609/609/609 610/610/610 611/611/611
f 612/612/612 610/610/610 609/609/609
f 613/613/613 614/614/614 615/615/615
f 372/372/372 374/374/374 373/373/373
f 373/373/373 377/377/377 378/378/378
f 380/380/380 616/616/616 381/381/381
f 616/616/616 617/617/617 381/381/381
f 382/382/382 384/384/384 383/383/383
f 383/383/383 385/385/385 386/386/386
f 617/617/617 382/382/382 381/381/381
f 386/386/386 388/388/388 389/389/389
f 389/389/389 392/392/392 401/401/401
f 392/392/392 402/402/402 401/401/401
f 390/390/390 391/391/391 389/389/389
f 618/618/618 394/394/394 393/393/393
f 393/393/393 395/395/395 396/396/396
f 396/396/396 398/398/398 399/399/399
f 402/402/402 618/618/618 393/393/393
f 403/403/403 619/619/619 404/404/404
f 619/619/619 408/408/408 404/404/404
f 620/620/620 407/407/407 406/406/406
f 405/405/405 407/407/407 417/417/417
f 408/408/408 620/620/620 406/406/406
f 405/405/405 410/410/410 411/411/411
f 411/411/411 414/414/414 413/413/413
f 420/420/420 424/424/424 418/418/418
f 421/421/421 423/423/423 425/425/425
f 423/423/423 621/621/621 425/425/425
f 424/424/424 422/422/422 421/421/421
f 425/425/425 427/427/427 428/428/428
f 429/429/429 431/431/431 430/430/430
f 621/621/621 426/426/426 425/425/425
f 416/416/416 419/419/419 418/418/418
f 102/102/102 103/103/103 101/101/101
f 114/114/114 115/115/115 113/113/113
f 116/116/116 117/117/117 118/118/118
f 104/104/104 106/106/106 118/118/118
f 120/120/120 122/122/122 123/123/123
f 123/123/123 124/124/124 125/125/125
f 110/110/110 112/112/112 127/127/127
f 125/125/125 126/126/126 127/127/127
f 128/128/128 134/134/134 129/129/129
f 138/138/138 139/139/139 140/140/140
f 136/136/136 141/141/141 137/137/137
f 140/140/140 142/142/142 143/143/143
f 143/143/143 131/131/131 133/133/133
f 147/147/147 144/144/144 145/145/145
f 149/149/149 150/150/150 148/148/148
f 153/153/153 154/154/154 155/155/155
f 156/156/156 157/157/157 159/159/159
f 146/146/146 161/161/161 160/160/160
f 219/219/219 162/162/162 163/163/163
f 166/166/166 165/165/165 163/163/163
f 168/168/168 169/169/169 158/158/158
f 108/108/108 101/101/101 175/175/175
f 101/101/101 176/176/176 175/175/175
f 104/104/104 178/178/178 179/179/179
f 104/104/104 177/177/177 103/103/103
f 117/117/117 113/113/113 181/181/181
f 113/113/113 182/182/182 181/181/181
f 183/183/183 110/110/110 184/184/184
f 185/185/185 124/124/124 187/187/187
f 126/126/126 186/186/186 184/184/184
f 188/188/188 124/124/124 122/122/122
f 189/189/189 119/119/119 190/190/190
f 135/135/135 190/190/190 119/119/119
f 601/601/601 191/191/191 128/128/128
f 135/135/135 192/192/192 193/193/193
f 601/601/601 130/130/130 131/131/131
f 142/142/142 195/195/195 131/131/131
f 142/142/142 196/196/196 197/197/197
f 198/198/198 137/137/137 199/199/199
f 137/137/137 200/200/200 199/199/199
f 149/149/149 203/203/203 202/202/202
f 202/202/202 201/201/201 141/141/141
f 204/204/204 147/147/147 205/205/205
f 147/147/147 206/206/206 205/205/205
f 207/207/207 160/160/160 208/208/208
f 209/209/209 156/156/156 211/211/211
f 154/154/154 210/210/210 208/208/208
f 211/211/211 158/158/158 212/212/212
f 158/158/158 213/213/213 212/212/212
f 218/218/218 214/214/214 169/169/169
f 162/162/162 216/216/216 218/218/218
f 222/222/222 223/223/223 221/221/221
f 224/224/224 228/228/228 229/229/229
f 232/232/232 234/234/234 233/233/233
f 237/237/237 238/238/238 226/226/226
f 239/239/239 240/240/240 241/241/241
f 243/243/243 244/244/244 245/245/245
f 244/244/244 247/247/247 245/245/245
f 248/248/248 249/249/249 250/250/250
f 251/251/251 252/252/252 250/250/250
f 259/259/259 260/260/260 258/258/258
f 257/257/257 261/261/261 255/255/255
f 265/265/265 266/266/266 264/264/264
f 275/275/275 273/273/273 274/274/274
f 276/276/276 274/274/274 273/273/273
f 276/276/276 278/278/278 279/279/279
f 270/270/270 281/281/281 280/280/280
f 339/339/339 282/282/282 283/283/283
f 286/286/286 285/285/285 283/283/283
f 286/286/286 289/289/289 288/288/288
f 229/229/229 228/228/228 294/294/294
f 228/228/228 224/224/224 295/295/295
f 224/224/224 296/296/296 295/295/295
f 226/226/226 298/298/298 299/299/299
f 226/226/226 297/297/297 222/222/222
f 300/300/300 230/230/230 301/301/301
f 232/232/232 302/302/302 301/301/301
f 303/303/303 233/233/233 304/304/304
f 305/305/305 244/244/244 307/307/307
f 233/233/233 306/306/306 304/304/304
f 308/308/308 244/244/244 242/242/242
f 242/242/242 309/309/309 308/308/308
f 313/313/313 310/310/310 239/239/239
f 602/602/602 311/311/311 248/248/248
f 248/248/248 312/312/312 313/313/313
f 602/602/602 250/250/250 252/252/252
f 252/252/252 262/262/262 316/316/316
f 262/262/262 317/317/317 316/316/316
f 318/318/318 255/255/255 319/319/319
f 255/255/255 320/320/320 319/319/319
f 265/265/265 323/323/323 322/322/322
f 272/272/272 321/321/321 261/261/261
f 324/324/324 267/267/267 325/325/325
f 267/267/267 326/326/326 325/325/325
f 327/327/327 280/280/280 328/328/328
f 329/329/329 273/273/273 331/331/331
f 276/276/276 330/330/330 328/328/328
f 273/273/273 277/277/277 332/332/332
f 289/289/289 333/333/333 332/332/332
f 338/338/338 334/334/334 289/289/289
f 282/282/282 336/336/336 338/338/338
f 462/462/462 457/457/457 444/444/444
f 569/569/569 515/515/515 530/530/530

