mtllib material.mtl
usemtl Material-7011油漆.035
v -0.03110800 -0.12493200 -0.06910000
v -0.03110800 -0.12493200 -0.06910000
v -0.03110800 -0.12493200 -0.06910000
v -0.03110800 -0.12563200 -0.06910000
v -0.03110800 -0.12563200 -0.06910000
v -0.03110800 -0.12563200 -0.06910000
v -0.02812400 -0.12493200 -0.06920700
v -0.02812400 -0.12493200 -0.06920700
v -0.02812400 -0.12493200 -0.06920700
v -0.02812400 -0.12563200 -0.06920700
v -0.02812400 -0.12563200 -0.06920700
v -0.02812400 -0.12563200 -0.06920700
v -0.02812300 -0.12493200 -0.06920700
v -0.02812300 -0.12493200 -0.06920700
v -0.02812300 -0.12493200 -0.06920700
v -0.02812300 -0.12563200 -0.06920700
v -0.02812300 -0.12563200 -0.06920700
v -0.02812300 -0.12563200 -0.06920700
v -0.02781400 -0.12493200 -0.06062700
v -0.02781400 -0.12493200 -0.06062700
v -0.02781400 -0.12493200 -0.06062700
v -0.02781400 -0.12563200 -0.06062700
v -0.02781400 -0.12563200 -0.06062700
v -0.02781400 -0.12563200 -0.06062700
v -0.02781500 -0.12493200 -0.06062700
v -0.02781500 -0.12493200 -0.06062700
v -0.02781500 -0.12493200 -0.06062700
v -0.02781500 -0.12563200 -0.06062700
v -0.02781500 -0.12563200 -0.06062700
v -0.02781500 -0.12563200 -0.06062700
v -0.03079900 -0.12493200 -0.06051900
v -0.03079900 -0.12493200 -0.06051900
v -0.03079900 -0.12493200 -0.06051900
v -0.03079900 -0.12563200 -0.06051900
v -0.03079900 -0.12563200 -0.06051900
v -0.03079900 -0.12563200 -0.06051900
v -0.03079900 -0.12493200 -0.06052000
v -0.03079900 -0.12493200 -0.06052000
v -0.03079900 -0.12493200 -0.06052000
v -0.03079900 -0.12563200 -0.06052000
v -0.03079900 -0.12563200 -0.06052000
v -0.03079900 -0.12563200 -0.06052000
v -0.03110800 -0.12493200 -0.06909900
v -0.03110800 -0.12493200 -0.06909900
v -0.03110800 -0.12493200 -0.06909900
v -0.03110800 -0.12563200 -0.06909900
v -0.03110800 -0.12563200 -0.06909900
v -0.03110800 -0.12563200 -0.06909900
v -0.02812400 -0.12493100 -0.06920700
v -0.02812400 -0.12493100 -0.06920700
v -0.02812400 -0.12493100 -0.06920700
v -0.03110800 -0.12493100 -0.06909900
v -0.03110800 -0.12493100 -0.06909900
v -0.03110800 -0.12493100 -0.06909900
v -0.02781500 -0.12493100 -0.06062700
v -0.02781500 -0.12493100 -0.06062700
v -0.02781500 -0.12493100 -0.06062700
v -0.03079900 -0.12493100 -0.06052000
v -0.03079900 -0.12493100 -0.06052000
v -0.03079900 -0.12493100 -0.06052000
v -0.02812400 -0.12563200 -0.06920700
v -0.02812400 -0.12563200 -0.06920700
v -0.02812400 -0.12563200 -0.06920700
v -0.03110800 -0.12563200 -0.06909900
v -0.03110800 -0.12563200 -0.06909900
v -0.03110800 -0.12563200 -0.06909900
v -0.02781500 -0.12563200 -0.06062700
v -0.02781500 -0.12563200 -0.06062700
v -0.02781500 -0.12563200 -0.06062700
v -0.03079900 -0.12563200 -0.06052000
v -0.03079900 -0.12563200 -0.06052000
v -0.03079900 -0.12563200 -0.06052000
v -0.03110800 -0.12493200 -0.06909900
v -0.03110800 -0.12493200 -0.06909900
v -0.03110800 -0.12493200 -0.06909900
v -0.03110800 -0.12563200 -0.06909900
v -0.03110800 -0.12563200 -0.06909900
v -0.03110800 -0.12563200 -0.06909900
v -0.02812400 -0.12493200 -0.06920600
v -0.02812400 -0.12493200 -0.06920600
v -0.02812400 -0.12493200 -0.06920600
v -0.02812400 -0.12563200 -0.06920600
v -0.02812400 -0.12563200 -0.06920600
v -0.02812400 -0.12563200 -0.06920600
v -0.02812400 -0.12493200 -0.06920700
v -0.02812400 -0.12493200 -0.06920700
v -0.02812400 -0.12493200 -0.06920700
v -0.02812400 -0.12563200 -0.06920700
v -0.02812400 -0.12563200 -0.06920700
v -0.02812400 -0.12563200 -0.06920700
v -0.02781500 -0.12493200 -0.06062700
v -0.02781500 -0.12493200 -0.06062700
v -0.02781500 -0.12493200 -0.06062700
v -0.02781500 -0.12563200 -0.06062700
v -0.02781500 -0.12563200 -0.06062700
v -0.02781500 -0.12563200 -0.06062700
v -0.02781500 -0.12493200 -0.06062800
v -0.02781500 -0.12493200 -0.06062800
v -0.02781500 -0.12493200 -0.06062800
v -0.02781500 -0.12563200 -0.06062800
v -0.02781500 -0.12563200 -0.06062800
v -0.02781500 -0.12563200 -0.06062800
v -0.03079900 -0.12493200 -0.06052000
v -0.03079900 -0.12493200 -0.06052000
v -0.03079900 -0.12493200 -0.06052000
v -0.03079900 -0.12563200 -0.06052000
v -0.03079900 -0.12563200 -0.06052000
v -0.03079900 -0.12563200 -0.06052000
v -0.03079800 -0.12493200 -0.06052000
v -0.03079800 -0.12493200 -0.06052000
v -0.03079800 -0.12493200 -0.06052000
v -0.03079800 -0.12563200 -0.06052000
v -0.03079800 -0.12563200 -0.06052000
v -0.03079800 -0.12563200 -0.06052000
v -0.03110700 -0.12493200 -0.06909900
v -0.03110700 -0.12493200 -0.06909900
v -0.03110700 -0.12493200 -0.06909900
v -0.03110700 -0.12563200 -0.06909900
v -0.03110700 -0.12563200 -0.06909900
v -0.03110700 -0.12563200 -0.06909900
v -0.02812400 -0.12493200 -0.06920700
v -0.02812400 -0.12493200 -0.06920700
v -0.02812400 -0.12493200 -0.06920700
v -0.03110800 -0.12493200 -0.06909900
v -0.03110800 -0.12493200 -0.06909900
v -0.03110800 -0.12493200 -0.06909900
v -0.02781500 -0.12493200 -0.06062700
v -0.02781500 -0.12493200 -0.06062700
v -0.02781500 -0.12493200 -0.06062700
v -0.03079900 -0.12493200 -0.06052000
v -0.03079900 -0.12493200 -0.06052000
v -0.03079900 -0.12493200 -0.06052000
v -0.02812400 -0.12563100 -0.06920700
v -0.02812400 -0.12563100 -0.06920700
v -0.02812400 -0.12563100 -0.06920700
v -0.03110800 -0.12563100 -0.06909900
v -0.03110800 -0.12563100 -0.06909900
v -0.03110800 -0.12563100 -0.06909900
v -0.02781500 -0.12563100 -0.06062700
v -0.02781500 -0.12563100 -0.06062700
v -0.02781500 -0.12563100 -0.06062700
v -0.03079900 -0.12563100 -0.06052000
v -0.03079900 -0.12563100 -0.06052000
v -0.03079900 -0.12563100 -0.06052000
vn 0.00000000 1.00000000 0.00000000
vn -0.03600000 0.00000000 -0.99940000
vn -0.99940000 0.00000000 0.03560000
vn -0.99940000 0.00000000 0.03560000
vn 0.00000000 -1.00000000 -0.00000000
vn -0.03600000 0.00000000 -0.99940000
vn 0.99940000 0.00000000 -0.03390000
vn 0.00000000 1.00000000 0.00000000
vn -0.03600000 0.00000000 -0.99940000
vn -0.03600000 0.00000000 -0.99940000
vn 0.99940000 0.00000000 -0.03390000
vn 0.00000000 -1.00000000 -0.00000000
vn 0.00000000 1.00000000 0.00000000
vn -0.03120000 0.00000000 -0.99950000
vn 0.99940000 0.00000000 -0.03600000
vn 0.00000000 -1.00000000 -0.00000000
vn -0.03120000 0.00000000 -0.99950000
vn 0.99940000 0.00000000 -0.03600000
vn 0.99940000 0.00000000 -0.03600000
vn 0.00000000 1.00000000 0.00000000
vn 0.04160000 0.00000000 0.99910000
vn 0.99940000 0.00000000 -0.03600000
vn 0.04160000 0.00000000 0.99910000
vn 0.00000000 -1.00000000 -0.00000000
vn 0.99940000 0.00000000 -0.03360000
vn 0.03600000 0.00000000 0.99940000
vn 0.00000000 1.00000000 0.00000000
vn 0.03600000 0.00000000 0.99940000
vn 0.99940000 0.00000000 -0.03360000
vn 0.00000000 -1.00000000 -0.00000000
vn 0.00000000 1.00000000 0.00000000
vn 0.03600000 0.00000000 0.99940000
vn -0.99940000 0.00000000 0.03530000
vn 0.00000000 -1.00000000 -0.00000000
vn 0.03600000 0.00000000 0.99940000
vn -0.99940000 0.00000000 0.03530000
vn -0.99940000 0.00000000 0.03600000
vn 0.03630000 0.00000000 0.99930000
vn 0.00000000 1.00000000 0.00000000
vn 0.00000000 -1.00000000 -0.00000000
vn -0.99940000 0.00000000 0.03600000
vn 0.03630000 0.00000000 0.99930000
vn -0.99940000 0.00000000 0.03600000
vn 0.00000000 1.00000000 0.00000000
vn -0.03120000 0.00000000 -0.99950000
vn -0.99940000 0.00000000 0.03600000
vn 0.00000000 -1.00000000 -0.00000000
vn -0.03120000 0.00000000 -0.99950000
vn -0.03600000 0.00000000 -0.99940000
vn 0.99930000 0.00000000 -0.03620000
vn 0.00000000 1.00000000 0.00000000
vn -0.99930000 0.00000000 0.03620000
vn 0.00000000 1.00000000 0.00000000
vn -0.03600000 0.00000000 -0.99940000
vn 0.03600000 0.00000000 0.99940000
vn 0.99930000 0.00000000 -0.03620000
vn 0.00000000 1.00000000 0.00000000
vn -0.99930000 0.00000000 0.03620000
vn 0.00000000 1.00000000 0.00000000
vn 0.03600000 0.00000000 0.99940000
vn 0.00000000 -1.00000000 -0.00000000
vn -0.03600000 0.00000000 -0.99940000
vn 0.99940000 0.00000000 -0.03600000
vn -0.03600000 0.00000000 -0.99940000
vn 0.00000000 -1.00000000 -0.00000000
vn -0.99940000 0.00000000 0.03600000
vn 0.99940000 0.00000000 -0.03600000
vn 0.03630000 0.00000000 0.99930000
vn 0.00000000 -1.00000000 -0.00000000
vn 0.00000000 -1.00000000 -0.00000000
vn 0.03630000 0.00000000 0.99930000
vn -0.99940000 0.00000000 0.03600000
vn 0.00000000 1.00000000 0.00000000
vn 0.03600000 0.00000000 0.99940000
vn -0.99940000 0.00000000 0.03560000
vn 0.03600000 0.00000000 0.99940000
vn -0.99940000 0.00000000 0.03560000
vn 0.00000000 -1.00000000 -0.00000000
vn 0.99940000 0.00000000 -0.03390000
vn 0.00000000 1.00000000 0.00000000
vn 0.03600000 0.00000000 0.99940000
vn 0.00000000 -1.00000000 -0.00000000
vn 0.03600000 0.00000000 0.99940000
vn 0.99940000 0.00000000 -0.03390000
vn 0.00000000 1.00000000 0.00000000
vn -0.03120000 0.00000000 -0.99950000
vn -0.99940000 0.00000000 0.03600000
vn -0.03120000 0.00000000 -0.99950000
vn 0.00000000 -1.00000000 -0.00000000
vn -0.99940000 0.00000000 0.03600000
vn 0.00000000 1.00000000 0.00000000
vn -0.99940000 0.00000000 0.03600000
vn 0.04160000 0.00000000 0.99910000
vn 0.00000000 -1.00000000 -0.00000000
vn 0.04160000 0.00000000 0.99910000
vn -0.99940000 0.00000000 0.03600000
vn 0.99940000 0.00000000 -0.03360000
vn -0.03600000 0.00000000 -0.99940000
vn 0.00000000 1.00000000 0.00000000
vn -0.03600000 0.00000000 -0.99940000
vn 0.00000000 -1.00000000 -0.00000000
vn 0.99940000 0.00000000 -0.03360000
vn -0.03600000 0.00000000 -0.99940000
vn -0.99940000 0.00000000 0.03530000
vn 0.00000000 1.00000000 0.00000000
vn 0.00000000 -1.00000000 -0.00000000
vn -0.03600000 0.00000000 -0.99940000
vn -0.99940000 0.00000000 0.03530000
vn 0.03630000 0.00000000 0.99930000
vn 0.99940000 0.00000000 -0.03600000
vn 0.00000000 1.00000000 0.00000000
vn 0.00000000 -1.00000000 -0.00000000
vn 0.99940000 0.00000000 -0.03600000
vn 0.03630000 0.00000000 0.99930000
vn 0.00000000 1.00000000 0.00000000
vn 0.99940000 0.00000000 -0.03600000
vn -0.03120000 0.00000000 -0.99950000
vn -0.03120000 0.00000000 -0.99950000
vn 0.00000000 -1.00000000 -0.00000000
vn 0.99940000 0.00000000 -0.03600000
vn -0.03600000 0.00000000 -0.99940000
vn 0.99930000 0.00000000 -0.03620000
vn 0.00000000 -1.00000000 -0.00000000
vn 0.00000000 -1.00000000 -0.00000000
vn -0.03600000 0.00000000 -0.99940000
vn -0.99930000 0.00000000 0.03620000
vn 0.00000000 -1.00000000 -0.00000000
vn 0.03600000 0.00000000 0.99940000
vn 0.99930000 0.00000000 -0.03620000
vn 0.00000000 -1.00000000 -0.00000000
vn -0.99930000 0.00000000 0.03620000
vn 0.03600000 0.00000000 0.99940000
vn 0.00000000 1.00000000 0.00000000
vn -0.03600000 0.00000000 -0.99940000
vn 0.99940000 0.00000000 -0.03600000
vn 0.00000000 1.00000000 0.00000000
vn -0.03600000 0.00000000 -0.99940000
vn -0.99940000 0.00000000 0.03600000
vn 0.00000000 1.00000000 0.00000000
vn 0.99940000 0.00000000 -0.03600000
vn 0.03630000 0.00000000 0.99930000
vn 0.00000000 1.00000000 0.00000000
vn 0.03630000 0.00000000 0.99930000
vn -0.99940000 0.00000000 0.03600000
vt 0.07833600 0.00000000
vt 0.07833600 0.00000000
vt 0.07833600 0.00000000
vt 0.00000000 0.00000000
vt 0.00000000 0.00000000
vt 0.00000000 0.00000000
vt 0.07833600 0.34039900
vt 0.07833600 0.34039900
vt 0.07833600 0.34039900
vt 0.00000000 0.34039900
vt 0.00000000 0.34039900
vt 0.00000000 0.34039900
vt 0.31773800 0.00000000
vt 0.31773800 0.00000000
vt 0.31773800 0.00000000
vt 0.23940200 0.00000000
vt 0.23940200 0.00000000
vt 0.23940200 0.00000000
vt 0.31773800 0.97722200
vt 0.31773800 0.97722200
vt 0.31773800 0.97722200
vt 0.23940200 0.97722200
vt 0.23940200 0.97722200
vt 0.23940200 0.97722200
vt 0.15813600 0.00000000
vt 0.15813600 0.00000000
vt 0.15813600 0.00000000
vt 0.07980100 0.00000000
vt 0.07980100 0.00000000
vt 0.07980100 0.00000000
vt 0.15813600 0.34039900
vt 0.15813600 0.34039900
vt 0.15813600 0.34039900
vt 0.07980100 0.34039900
vt 0.07980100 0.34039900
vt 0.07980100 0.34039900
vt 0.23793700 0.00000000
vt 0.23793700 0.00000000
vt 0.23793700 0.00000000
vt 0.15960100 0.00000000
vt 0.15960100 0.00000000
vt 0.15960100 0.00000000
vt 0.23793700 0.97722200
vt 0.23793700 0.97722200
vt 0.23793700 0.97722200
vt 0.15960100 0.97722200
vt 0.15960100 0.97722200
vt 0.15960100 0.97722200
vt 0.99853500 0.00000000
vt 0.99853500 0.00000000
vt 0.99853500 0.00000000
vt 0.65960100 0.00000000
vt 0.65960100 0.00000000
vt 0.65960100 0.00000000
vt 0.99853500 0.97722200
vt 0.99853500 0.97722200
vt 0.99853500 0.97722200
vt 0.65960100 0.97722200
vt 0.65960100 0.97722200
vt 0.65960100 0.97722200
vt 0.65813600 0.00000000
vt 0.65813600 0.00000000
vt 0.65813600 0.00000000
vt 0.31920300 0.00000000
vt 0.31920300 0.00000000
vt 0.31920300 0.00000000
vt 0.65813600 0.97722200
vt 0.65813600 0.97722200
vt 0.65813600 0.97722200
vt 0.31920300 0.97722200
vt 0.31920300 0.97722200
vt 0.31920300 0.97722200
vt 0.07833600 0.00000000
vt 0.07833600 0.00000000
vt 0.07833600 0.00000000
vt 0.00000000 0.00000000
vt 0.00000000 0.00000000
vt 0.00000000 0.00000000
vt 0.07833600 0.34039900
vt 0.07833600 0.34039900
vt 0.07833600 0.34039900
vt 0.00000000 0.34039900
vt 0.00000000 0.34039900
vt 0.00000000 0.34039900
vt 0.31773800 0.00000000
vt 0.31773800 0.00000000
vt 0.31773800 0.00000000
vt 0.23940200 0.00000000
vt 0.23940200 0.00000000
vt 0.23940200 0.00000000
vt 0.31773800 0.97722200
vt 0.31773800 0.97722200
vt 0.31773800 0.97722200
vt 0.23940200 0.97722200
vt 0.23940200 0.97722200
vt 0.23940200 0.97722200
vt 0.15813600 0.00000000
vt 0.15813600 0.00000000
vt 0.15813600 0.00000000
vt 0.07980100 0.00000000
vt 0.07980100 0.00000000
vt 0.07980100 0.00000000
vt 0.15813600 0.34039900
vt 0.15813600 0.34039900
vt 0.15813600 0.34039900
vt 0.07980100 0.34039900
vt 0.07980100 0.34039900
vt 0.07980100 0.34039900
vt 0.23793700 0.00000000
vt 0.23793700 0.00000000
vt 0.23793700 0.00000000
vt 0.15960100 0.00000000
vt 0.15960100 0.00000000
vt 0.15960100 0.00000000
vt 0.23793700 0.97722200
vt 0.23793700 0.97722200
vt 0.23793700 0.97722200
vt 0.15960100 0.97722200
vt 0.15960100 0.97722200
vt 0.15960100 0.97722200
vt 0.99853500 0.00000000
vt 0.99853500 0.00000000
vt 0.99853500 0.00000000
vt 0.65960100 0.00000000
vt 0.65960100 0.00000000
vt 0.65960100 0.00000000
vt 0.99853500 0.97722200
vt 0.99853500 0.97722200
vt 0.99853500 0.97722200
vt 0.65960100 0.97722200
vt 0.65960100 0.97722200
vt 0.65960100 0.97722200
vt 0.65813600 0.00000000
vt 0.65813600 0.00000000
vt 0.65813600 0.00000000
vt 0.31920300 0.00000000
vt 0.31920300 0.00000000
vt 0.31920300 0.00000000
vt 0.65813600 0.97722200
vt 0.65813600 0.97722200
vt 0.65813600 0.97722200
vt 0.31920300 0.97722200
vt 0.31920300 0.97722200
vt 0.31920300 0.97722200
f 6/6/6 2/2/2 9/9/9
f 18/18/18 15/15/15 19/19/19
f 28/28/28 26/26/26 32/32/32
f 41/41/41 37/37/37 43/43/43
f 53/53/53 59/59/59 51/51/51
f 65/65/65 61/61/61 70/70/70
f 6/6/6 9/9/9 10/10/10
f 18/18/18 19/19/19 22/22/22
f 28/28/28 32/32/32 35/35/35
f 41/41/41 43/43/43 46/46/46
f 59/59/59 57/57/57 51/51/51
f 61/61/61 69/69/69 70/70/70
f 76/76/76 81/81/81 74/74/74
f 90/90/90 92/92/92 87/87/87
f 100/100/100 103/103/103 98/98/98
f 113/113/113 116/116/116 110/110/110
f 124/124/124 123/123/123 130/130/130
f 136/136/136 142/142/142 133/133/133
f 76/76/76 83/83/83 81/81/81
f 90/90/90 96/96/96 92/92/92
f 100/100/100 107/107/107 103/103/103
f 113/113/113 120/120/120 116/116/116
f 130/130/130 123/123/123 127/127/127
f 133/133/133 142/142/142 139/139/139
f 30/30/30 34/34/34 106/106/106
f 106/106/106 101/101/101 30/30/30
f 3/3/3 4/4/4 77/77/77
f 77/77/77 75/75/75 3/3/3
f 5/5/5 12/12/12 82/82/82
f 82/82/82 78/78/78 5/5/5
f 14/14/14 17/17/17 88/88/88
f 88/88/88 86/86/86 14/14/14
f 16/16/16 24/24/24 94/94/94
f 94/94/94 89/89/89 16/16/16
f 36/36/36 33/33/33 104/104/104
f 104/104/104 108/108/108 36/36/36
f 25/25/25 29/29/29 102/102/102
f 102/102/102 97/97/97 25/25/25
f 8/8/8 1/1/1 73/73/73
f 73/73/73 80/80/80 8/8/8
f 38/38/38 42/42/42 114/114/114
f 114/114/114 109/109/109 38/38/38
f 40/40/40 47/47/47 119/119/119
f 119/119/119 112/112/112 40/40/40
f 54/54/54 49/49/49 121/121/121
f 121/121/121 125/125/125 54/54/54
f 50/50/50 56/56/56 129/129/129
f 129/129/129 122/122/122 50/50/50
f 58/58/58 52/52/52 126/126/126
f 126/126/126 131/131/131 58/58/58
f 62/62/62 64/64/64 137/137/137
f 137/137/137 134/134/134 62/62/62
f 67/67/67 63/63/63 135/135/135
f 135/135/135 140/140/140 67/67/67
f 66/66/66 72/72/72 144/144/144
f 144/144/144 138/138/138 66/66/66
f 11/11/11 7/7/7 79/79/79
f 79/79/79 84/84/84 11/11/11
f 71/71/71 68/68/68 141/141/141
f 141/141/141 143/143/143 71/71/71
f 23/23/23 21/21/21 93/93/93
f 93/93/93 95/95/95 23/23/23
f 44/44/44 39/39/39 111/111/111
f 111/111/111 115/115/115 44/44/44
f 55/55/55 60/60/60 132/132/132
f 132/132/132 128/128/128 55/55/55
f 31/31/31 27/27/27 99/99/99
f 99/99/99 105/105/105 31/31/31
f 48/48/48 45/45/45 117/117/117
f 117/117/117 118/118/118 48/48/48
f 20/20/20 13/13/13 85/85/85
f 85/85/85 91/91/91 20/20/20

