mtllib material.mtl
usemtl Material-7011油漆.016
v -0.03145700 -0.12493200 -0.07879700
v -0.03145700 -0.12493200 -0.07879700
v -0.03145700 -0.12493200 -0.07879700
v -0.03145700 -0.12563200 -0.07879700
v -0.03145700 -0.12563200 -0.07879700
v -0.03145700 -0.12563200 -0.07879700
v -0.02847300 -0.12493200 -0.07890500
v -0.02847300 -0.12493200 -0.07890500
v -0.02847300 -0.12493200 -0.07890500
v -0.02847300 -0.12563200 -0.07890500
v -0.02847300 -0.12563200 -0.07890500
v -0.02847300 -0.12563200 -0.07890500
v -0.02996500 -0.12493200 -0.07885100
v -0.02996500 -0.12493200 -0.07885100
v -0.02996500 -0.12563200 -0.07885100
v -0.02996500 -0.12563200 -0.07885100
v -0.02847200 -0.12493200 -0.07890400
v -0.02847200 -0.12493200 -0.07890400
v -0.02847200 -0.12493200 -0.07890400
v -0.02847200 -0.12563200 -0.07890400
v -0.02847200 -0.12563200 -0.07890400
v -0.02847200 -0.12563200 -0.07890400
v -0.02816300 -0.12493200 -0.07032500
v -0.02816300 -0.12493200 -0.07032500
v -0.02816300 -0.12493200 -0.07032500
v -0.02816300 -0.12563200 -0.07032500
v -0.02816300 -0.12563200 -0.07032500
v -0.02816300 -0.12563200 -0.07032500
v -0.02839500 -0.12493200 -0.07676000
v -0.02839500 -0.12493200 -0.07676000
v -0.02831800 -0.12493200 -0.07461500
v -0.02831800 -0.12493200 -0.07461500
v -0.02824100 -0.12493200 -0.07247000
v -0.02824100 -0.12493200 -0.07247000
v -0.02824100 -0.12563200 -0.07247000
v -0.02824100 -0.12563200 -0.07247000
v -0.02831800 -0.12563200 -0.07461500
v -0.02831800 -0.12563200 -0.07461500
v -0.02839500 -0.12563200 -0.07676000
v -0.02839500 -0.12563200 -0.07676000
v -0.02816400 -0.12493200 -0.07032500
v -0.02816400 -0.12493200 -0.07032500
v -0.02816400 -0.12493200 -0.07032500
v -0.02816400 -0.12563200 -0.07032500
v -0.02816400 -0.12563200 -0.07032500
v -0.02816400 -0.12563200 -0.07032500
v -0.03114800 -0.12493200 -0.07021700
v -0.03114800 -0.12493200 -0.07021700
v -0.03114800 -0.12493200 -0.07021700
v -0.03114800 -0.12563200 -0.07021700
v -0.03114800 -0.12563200 -0.07021700
v -0.03114800 -0.12563200 -0.07021700
v -0.02965600 -0.12563200 -0.07027100
v -0.02965600 -0.12563200 -0.07027100
v -0.02965600 -0.12563200 -0.07027100
v -0.02965600 -0.12493200 -0.07027100
v -0.02965600 -0.12493200 -0.07027100
v -0.03114800 -0.12493200 -0.07021800
v -0.03114800 -0.12493200 -0.07021800
v -0.03114800 -0.12493200 -0.07021800
v -0.03114800 -0.12563200 -0.07021800
v -0.03114800 -0.12563200 -0.07021800
v -0.03114800 -0.12563200 -0.07021800
v -0.03145700 -0.12493200 -0.07879700
v -0.03145700 -0.12493200 -0.07879700
v -0.03145700 -0.12493200 -0.07879700
v -0.03145700 -0.12563200 -0.07879700
v -0.03145700 -0.12563200 -0.07879700
v -0.03145700 -0.12563200 -0.07879700
v -0.03122600 -0.12493200 -0.07236300
v -0.03122600 -0.12493200 -0.07236300
v -0.03130300 -0.12493200 -0.07450700
v -0.03130300 -0.12493200 -0.07450700
v -0.03138000 -0.12493200 -0.07665200
v -0.03138000 -0.12493200 -0.07665200
v -0.03138000 -0.12563200 -0.07665200
v -0.03138000 -0.12563200 -0.07665200
v -0.03130300 -0.12563200 -0.07450700
v -0.03130300 -0.12563200 -0.07450700
v -0.03122600 -0.12563200 -0.07236300
v -0.03122600 -0.12563200 -0.07236300
v -0.02847300 -0.12493100 -0.07890400
v -0.02847300 -0.12493100 -0.07890400
v -0.02847300 -0.12493100 -0.07890400
v -0.03145700 -0.12493100 -0.07879700
v -0.03145700 -0.12493100 -0.07879700
v -0.03145700 -0.12493100 -0.07879700
v -0.02816400 -0.12493100 -0.07032500
v -0.02816400 -0.12493100 -0.07032500
v -0.02816400 -0.12493100 -0.07032500
v -0.03114800 -0.12493100 -0.07021800
v -0.03114800 -0.12493100 -0.07021800
v -0.03114800 -0.12493100 -0.07021800
v -0.02996500 -0.12493100 -0.07885100
v -0.02996500 -0.12493100 -0.07885100
v -0.02839600 -0.12493100 -0.07676000
v -0.02839600 -0.12493100 -0.07676000
v -0.02831800 -0.12493100 -0.07461500
v -0.02831800 -0.12493100 -0.07461500
v -0.02824100 -0.12493100 -0.07247000
v -0.02824100 -0.12493100 -0.07247000
v -0.02824100 -0.12493100 -0.07247000
v -0.02965600 -0.12493100 -0.07027200
v -0.02965600 -0.12493100 -0.07027200
v -0.03122500 -0.12493100 -0.07236300
v -0.03122500 -0.12493100 -0.07236300
v -0.03122500 -0.12493100 -0.07236300
v -0.03130200 -0.12493100 -0.07450700
v -0.03130200 -0.12493100 -0.07450700
v -0.03130200 -0.12493100 -0.07450700
v -0.03138000 -0.12493100 -0.07665200
v -0.03138000 -0.12493100 -0.07665200
v -0.02847300 -0.12563200 -0.07890400
v -0.02847300 -0.12563200 -0.07890400
v -0.02847300 -0.12563200 -0.07890400
v -0.03145700 -0.12563200 -0.07879700
v -0.03145700 -0.12563200 -0.07879700
v -0.03145700 -0.12563200 -0.07879700
v -0.02816400 -0.12563200 -0.07032500
v -0.02816400 -0.12563200 -0.07032500
v -0.02816400 -0.12563200 -0.07032500
v -0.03114800 -0.12563200 -0.07021800
v -0.03114800 -0.12563200 -0.07021800
v -0.03114800 -0.12563200 -0.07021800
v -0.02996500 -0.12563200 -0.07885100
v -0.02996500 -0.12563200 -0.07885100
v -0.02996500 -0.12563200 -0.07885100
v -0.02839600 -0.12563200 -0.07676000
v -0.02839600 -0.12563200 -0.07676000
v -0.02831800 -0.12563200 -0.07461500
v -0.02831800 -0.12563200 -0.07461500
v -0.02824100 -0.12563200 -0.07247000
v -0.02824100 -0.12563200 -0.07247000
v -0.02965600 -0.12563200 -0.07027200
v -0.02965600 -0.12563200 -0.07027200
v -0.03122500 -0.12563200 -0.07236300
v -0.03122500 -0.12563200 -0.07236300
v -0.03122500 -0.12563200 -0.07236300
v -0.03130200 -0.12563200 -0.07450700
v -0.03130200 -0.12563200 -0.07450700
v -0.03138000 -0.12563200 -0.07665200
v -0.03138000 -0.12563200 -0.07665200
v -0.03145700 -0.12493200 -0.07879600
v -0.03145700 -0.12493200 -0.07879600
v -0.03145700 -0.12493200 -0.07879600
v -0.03145700 -0.12563200 -0.07879600
v -0.03145700 -0.12563200 -0.07879600
v -0.03145700 -0.12563200 -0.07879600
v -0.02847300 -0.12493200 -0.07890400
v -0.02847300 -0.12493200 -0.07890400
v -0.02847300 -0.12493200 -0.07890400
v -0.02847300 -0.12563200 -0.07890400
v -0.02847300 -0.12563200 -0.07890400
v -0.02847300 -0.12563200 -0.07890400
v -0.02996500 -0.12493200 -0.07885000
v -0.02996500 -0.12493200 -0.07885000
v -0.02996500 -0.12563200 -0.07885000
v -0.02996500 -0.12563200 -0.07885000
v -0.02847300 -0.12493200 -0.07890400
v -0.02847300 -0.12493200 -0.07890400
v -0.02847300 -0.12493200 -0.07890400
v -0.02847300 -0.12563200 -0.07890400
v -0.02847300 -0.12563200 -0.07890400
v -0.02847300 -0.12563200 -0.07890400
v -0.02816400 -0.12493200 -0.07032500
v -0.02816400 -0.12493200 -0.07032500
v -0.02816400 -0.12493200 -0.07032500
v -0.02816400 -0.12563200 -0.07032500
v -0.02816400 -0.12563200 -0.07032500
v -0.02816400 -0.12563200 -0.07032500
v -0.02839600 -0.12493200 -0.07676000
v -0.02839600 -0.12493200 -0.07676000
v -0.02831900 -0.12493200 -0.07461500
v -0.02831900 -0.12493200 -0.07461500
v -0.02824200 -0.12493200 -0.07247000
v -0.02824200 -0.12493200 -0.07247000
v -0.02824200 -0.12563200 -0.07247000
v -0.02824200 -0.12563200 -0.07247000
v -0.02831900 -0.12563200 -0.07461500
v -0.02831900 -0.12563200 -0.07461500
v -0.02839600 -0.12563200 -0.07676000
v -0.02839600 -0.12563200 -0.07676000
v -0.02816400 -0.12493200 -0.07032600
v -0.02816400 -0.12493200 -0.07032600
v -0.02816400 -0.12493200 -0.07032600
v -0.02816400 -0.12563200 -0.07032600
v -0.02816400 -0.12563200 -0.07032600
v -0.02816400 -0.12563200 -0.07032600
v -0.03114800 -0.12493200 -0.07021800
v -0.03114800 -0.12493200 -0.07021800
v -0.03114800 -0.12493200 -0.07021800
v -0.03114800 -0.12563200 -0.07021800
v -0.03114800 -0.12563200 -0.07021800
v -0.03114800 -0.12563200 -0.07021800
v -0.02965600 -0.12563200 -0.07027200
v -0.02965600 -0.12563200 -0.07027200
v -0.02965600 -0.12563200 -0.07027200
v -0.02965600 -0.12493200 -0.07027200
v -0.02965600 -0.12493200 -0.07027200
v -0.03114700 -0.12493200 -0.07021800
v -0.03114700 -0.12493200 -0.07021800
v -0.03114700 -0.12493200 -0.07021800
v -0.03114700 -0.12563200 -0.07021800
v -0.03114700 -0.12563200 -0.07021800
v -0.03114700 -0.12563200 -0.07021800
v -0.03145600 -0.12493200 -0.07879700
v -0.03145600 -0.12493200 -0.07879700
v -0.03145600 -0.12493200 -0.07879700
v -0.03145600 -0.12563200 -0.07879700
v -0.03145600 -0.12563200 -0.07879700
v -0.03145600 -0.12563200 -0.07879700
v -0.03122500 -0.12493200 -0.07236300
v -0.03122500 -0.12493200 -0.07236300
v -0.03130200 -0.12493200 -0.07450700
v -0.03130200 -0.12493200 -0.07450700
v -0.03137900 -0.12493200 -0.07665200
v -0.03137900 -0.12493200 -0.07665200
v -0.03137900 -0.12563200 -0.07665200
v -0.03137900 -0.12563200 -0.07665200
v -0.03130200 -0.12563200 -0.07450700
v -0.03130200 -0.12563200 -0.07450700
v -0.03122500 -0.12563200 -0.07236300
v -0.03122500 -0.12563200 -0.07236300
v -0.02847300 -0.12493200 -0.07890400
v -0.02847300 -0.12493200 -0.07890400
v -0.02847300 -0.12493200 -0.07890400
v -0.03145700 -0.12493200 -0.07879700
v -0.03145700 -0.12493200 -0.07879700
v -0.03145700 -0.12493200 -0.07879700
v -0.02816400 -0.12493200 -0.07032500
v -0.02816400 -0.12493200 -0.07032500
v -0.02816400 -0.12493200 -0.07032500
v -0.03114800 -0.12493200 -0.07021800
v -0.03114800 -0.12493200 -0.07021800
v -0.03114800 -0.12493200 -0.07021800
v -0.02996500 -0.12493200 -0.07885100
v -0.02996500 -0.12493200 -0.07885100
v -0.02839600 -0.12493200 -0.07676000
v -0.02839600 -0.12493200 -0.07676000
v -0.02831800 -0.12493200 -0.07461500
v -0.02831800 -0.12493200 -0.07461500
v -0.02824100 -0.12493200 -0.07247000
v -0.02824100 -0.12493200 -0.07247000
v -0.02824100 -0.12493200 -0.07247000
v -0.02965600 -0.12493200 -0.07027200
v -0.02965600 -0.12493200 -0.07027200
v -0.03122500 -0.12493200 -0.07236300
v -0.03122500 -0.12493200 -0.07236300
v -0.03122500 -0.12493200 -0.07236300
v -0.03130200 -0.12493200 -0.07450700
v -0.03130200 -0.12493200 -0.07450700
v -0.03130200 -0.12493200 -0.07450700
v -0.03138000 -0.12493200 -0.07665200
v -0.03138000 -0.12493200 -0.07665200
v -0.02847300 -0.12563100 -0.07890400
v -0.02847300 -0.12563100 -0.07890400
v -0.02847300 -0.12563100 -0.07890400
v -0.03145700 -0.12563100 -0.07879700
v -0.03145700 -0.12563100 -0.07879700
v -0.03145700 -0.12563100 -0.07879700
v -0.02816400 -0.12563100 -0.07032500
v -0.02816400 -0.12563100 -0.07032500
v -0.02816400 -0.12563100 -0.07032500
v -0.03114800 -0.12563100 -0.07021800
v -0.03114800 -0.12563100 -0.07021800
v -0.03114800 -0.12563100 -0.07021800
v -0.02996500 -0.12563100 -0.07885100
v -0.02996500 -0.12563100 -0.07885100
v -0.02996500 -0.12563100 -0.07885100
v -0.02839600 -0.12563100 -0.07676000
v -0.02839600 -0.12563100 -0.07676000
v -0.02831800 -0.12563100 -0.07461500
v -0.02831800 -0.12563100 -0.07461500
v -0.02824100 -0.12563100 -0.07247000
v -0.02824100 -0.12563100 -0.07247000
v -0.02965600 -0.12563100 -0.07027200
v -0.02965600 -0.12563100 -0.07027200
v -0.03122500 -0.12563100 -0.07236300
v -0.03122500 -0.12563100 -0.07236300
v -0.03122500 -0.12563100 -0.07236300
v -0.03130200 -0.12563100 -0.07450700
v -0.03130200 -0.12563100 -0.07450700
v -0.03138000 -0.12563100 -0.07665200
v -0.03138000 -0.12563100 -0.07665200
vn 0.00000000 1.00000000 0.00000000
vn -0.03600000 0.00000000 -0.99940000
vn -0.99930000 0.00000000 0.03730000
vn 0.00000000 -1.00000000 0.00000000
vn -0.99930000 0.00000000 0.03730000
vn -0.03600000 0.00000000 -0.99940000
vn -0.03600000 0.00000000 -0.99940000
vn 0.00000000 1.00000000 0.00000000
vn 0.99940000 0.00000000 -0.03560000
vn 0.00000000 -1.00000000 0.00000000
vn -0.03600000 0.00000000 -0.99940000
vn 0.99940000 0.00000000 -0.03560000
vn -0.03600000 0.00000000 -0.99940000
vn 0.00000000 1.00000000 0.00000000
vn -0.03600000 0.00000000 -0.99940000
vn 0.00000000 -1.00000000 0.00000000
vn -0.03120000 0.00000000 -0.99950000
vn 0.00000000 1.00000000 0.00000000
vn 0.99940000 0.00000000 -0.03600000
vn 0.99940000 0.00000000 -0.03600000
vn 0.00000000 -1.00000000 0.00000000
vn -0.03120000 0.00000000 -0.99950000
vn 0.99940000 0.00000000 -0.03600000
vn 0.00000000 1.00000000 0.00000000
vn 0.03120000 0.00000000 0.99950000
vn 0.00000000 -1.00000000 0.00000000
vn 0.03120000 0.00000000 0.99950000
vn 0.99940000 0.00000000 -0.03600000
vn 0.00000000 1.00000000 0.00000000
vn 0.99940000 0.00000000 -0.03600000
vn 0.00000000 1.00000000 0.00000000
vn 0.99940000 0.00000000 -0.03600000
vn 0.00000000 1.00000000 0.00000000
vn 0.99940000 0.00000000 -0.03600000
vn 0.00000000 -1.00000000 0.00000000
vn 0.99940000 0.00000000 -0.03600000
vn 0.99940000 0.00000000 -0.03600000
vn 0.00000000 -1.00000000 0.00000000
vn 0.99940000 0.00000000 -0.03600000
vn 0.00000000 -1.00000000 0.00000000
vn 0.03600000 0.00000000 0.99940000
vn 0.00000000 1.00000000 0.00000000
vn 0.99940000 0.00000000 -0.03390000
vn 0.03600000 0.00000000 0.99940000
vn 0.99940000 0.00000000 -0.03390000
vn 0.00000000 -1.00000000 -0.00980000
vn 0.03600000 0.00000000 0.99940000
vn 0.00000000 1.00000000 0.00000000
vn -0.99940000 0.00000000 0.03560000
vn 0.00000000 -1.00000000 0.00000000
vn 0.03600000 0.00000000 0.99940000
vn -0.99940000 0.00000000 0.03560000
vn 0.00000000 -1.00000000 -0.00980000
vn 0.00000000 -1.00000000 0.00000000
vn 0.03600000 0.00000000 0.99940000
vn 0.03600000 0.00000000 0.99940000
vn 0.00000000 1.00000000 0.00000000
vn 0.00000000 1.00000000 0.00000000
vn 0.02600000 0.00000000 0.99970000
vn -0.99940000 0.00000000 0.03600000
vn -0.99940000 0.00000000 0.03600000
vn 0.00000000 -1.00000000 0.00000000
vn 0.02600000 0.00000000 0.99970000
vn -0.03120000 0.00000000 -0.99950000
vn 0.00000000 1.00000000 0.00000000
vn -0.99940000 0.00000000 0.03600000
vn -0.03120000 0.00000000 -0.99950000
vn 0.00000000 -1.00000000 0.00000000
vn -0.99940000 0.00000000 0.03600000
vn -0.99940000 0.00000000 0.03600000
vn 0.00000000 1.00000000 0.00000000
vn -0.99940000 0.00000000 0.03600000
vn 0.00000000 1.00000000 0.00000000
vn -0.99940000 0.00000000 0.03600000
vn 0.00000000 1.00000000 0.00000000
vn -0.99940000 0.00000000 0.03600000
vn 0.00000000 -1.00000000 0.00000000
vn 0.00000000 -1.00000000 0.00000000
vn -0.99940000 0.00000000 0.03600000
vn -0.99940000 0.00000000 0.03600000
vn 0.00000000 -1.00000000 0.00000000
vn 0.99940000 0.00000000 -0.03580000
vn 0.00000000 1.00000000 0.00000000
vn -0.03600000 0.00000000 -0.99940000
vn 0.00000000 1.00000000 0.00000000
vn -0.99930000 0.00000000 0.03620000
vn -0.03600000 0.00000000 -0.99940000
vn 0.03600000 0.00000000 0.99940000
vn 0.00000000 1.00000000 0.00000000
vn 0.99930000 0.00000000 -0.03620000
vn -0.99930000 0.00000000 0.03620000
vn 0.00000000 1.00000000 0.00000000
vn 0.03600000 0.00000000 0.99940000
vn 0.00000000 1.00000000 0.00000000
vn -0.03600000 0.00000000 -0.99940000
vn 0.00000000 1.00000000 0.00000000
vn 0.99940000 0.00000000 -0.03580000
vn 0.99940000 0.00000000 -0.03580000
vn 0.00000000 1.00000000 0.00000000
vn 0.99930000 0.00000000 -0.03620000
vn 0.00000000 1.00000000 0.00000000
vn 0.99940000 0.00000000 -0.03580000
vn 0.03600000 0.00000000 0.99940000
vn 0.00000000 1.00000000 0.00000000
vn -0.99940000 0.00000000 0.03580000
vn -0.99930000 0.00000000 0.03620000
vn 0.00000000 1.00000000 0.00000000
vn 0.00000000 1.00000000 0.00000000
vn -0.99940000 0.00000000 0.03580000
vn -0.99930000 0.00000000 0.03620000
vn -0.99930000 0.00000000 0.03620000
vn 0.00000000 1.00000000 0.00000000
vn -0.03610000 0.00000000 -0.99930000
vn 0.99930000 0.00000000 -0.03610000
vn 0.00000000 -1.00000000 0.00000000
vn 0.00000000 -1.00000000 0.00000000
vn -0.99930000 0.00000000 0.03610000
vn -0.03580000 0.00000000 -0.99940000
vn 0.99930000 0.00000000 -0.03610000
vn 0.03610000 0.00000000 0.99930000
vn 0.00000000 -1.00000000 0.00000000
vn 0.03610000 0.00000000 0.99930000
vn 0.00000000 -1.00000000 0.00000000
vn -0.99940000 0.00000000 0.03570000
vn -0.03580000 0.00000000 -0.99940000
vn 0.00000000 -1.00000000 0.00000000
vn -0.03610000 0.00000000 -0.99930000
vn 0.99930000 0.00000000 -0.03610000
vn 0.00000000 -1.00000000 0.00000000
vn 0.00000000 -1.00000000 0.00000000
vn 0.99930000 0.00000000 -0.03610000
vn 0.00000000 -1.00000000 0.00000000
vn 0.99930000 0.00000000 -0.03610000
vn 0.00000000 -1.00000000 0.00000000
vn 0.03610000 0.00000000 0.99930000
vn 0.00000000 -1.00000000 0.00000000
vn -0.99940000 0.00000000 0.03570000
vn -0.99930000 0.00000000 0.03610000
vn 0.00000000 -1.00000000 0.00000000
vn -0.99930000 0.00000000 0.03610000
vn -0.99930000 0.00000000 0.03610000
vn 0.00000000 -1.00000000 0.00000000
vn -0.99930000 0.00000000 0.03730000
vn 0.03600000 0.00000000 0.99940000
vn 0.00000000 1.00000000 0.00000000
vn -0.99930000 0.00000000 0.03730000
vn 0.00000000 -1.00000000 0.00000000
vn 0.03600000 0.00000000 0.99940000
vn 0.99940000 0.00000000 -0.03560000
vn 0.03600000 0.00000000 0.99940000
vn 0.00000000 1.00000000 0.00000000
vn 0.00000000 -1.00000000 0.00000000
vn 0.99940000 0.00000000 -0.03560000
vn 0.03600000 0.00000000 0.99940000
vn 0.00000000 1.00000000 0.00000000
vn 0.03600000 0.00000000 0.99940000
vn 0.03600000 0.00000000 0.99940000
vn 0.00000000 -1.00000000 0.00000000
vn 0.00000000 1.00000000 0.00000000
vn -0.03120000 0.00000000 -0.99950000
vn -0.99940000 0.00000000 0.03600000
vn -0.03120000 0.00000000 -0.99950000
vn -0.99940000 0.00000000 0.03600000
vn 0.00000000 -1.00000000 0.00000000
vn -0.99940000 0.00000000 0.03600000
vn 0.00000000 1.00000000 0.00000000
vn 0.03120000 0.00000000 0.99950000
vn -0.99940000 0.00000000 0.03600000
vn 0.03120000 0.00000000 0.99950000
vn 0.00000000 -1.00000000 0.00000000
vn 0.00000000 1.00000000 0.00000000
vn -0.99940000 0.00000000 0.03600000
vn 0.00000000 1.00000000 0.00000000
vn -0.99940000 0.00000000 0.03600000
vn 0.00000000 1.00000000 0.00000000
vn -0.99940000 0.00000000 0.03600000
vn -0.99940000 0.00000000 0.03600000
vn 0.00000000 -1.00000000 0.00000000
vn 0.00000000 -1.00000000 0.00000000
vn -0.99940000 0.00000000 0.03600000
vn -0.99940000 0.00000000 0.03600000
vn 0.00000000 -1.00000000 0.00000000
vn 0.00000000 1.00000000 0.00000000
vn -0.03600000 0.00000000 -0.99940000
vn 0.99940000 0.00000000 -0.03390000
vn 0.99940000 0.00000000 -0.03390000
vn 0.00000000 -1.00000000 -0.00980000
vn -0.03600000 0.00000000 -0.99940000
vn -0.99940000 0.00000000 0.03560000
vn -0.03600000 0.00000000 -0.99940000
vn 0.00000000 1.00000000 0.00000000
vn 0.00000000 -1.00000000 0.00000000
vn -0.99940000 0.00000000 0.03560000
vn -0.03600000 0.00000000 -0.99940000
vn -0.03600000 0.00000000 -0.99940000
vn 0.00000000 -1.00000000 -0.00980000
vn 0.00000000 -1.00000000 0.00000000
vn 0.00000000 1.00000000 0.00000000
vn -0.03600000 0.00000000 -0.99940000
vn 0.00000000 1.00000000 0.00000000
vn 0.99940000 0.00000000 -0.03600000
vn 0.02600000 0.00000000 0.99970000
vn 0.99940000 0.00000000 -0.03600000
vn 0.00000000 -1.00000000 0.00000000
vn 0.02600000 0.00000000 0.99970000
vn 0.99940000 0.00000000 -0.03600000
vn -0.03120000 0.00000000 -0.99950000
vn 0.00000000 1.00000000 0.00000000
vn -0.03120000 0.00000000 -0.99950000
vn 0.99940000 0.00000000 -0.03600000
vn 0.00000000 -1.00000000 0.00000000
vn 0.00000000 1.00000000 0.00000000
vn 0.99940000 0.00000000 -0.03600000
vn 0.00000000 1.00000000 0.00000000
vn 0.99940000 0.00000000 -0.03600000
vn 0.00000000 1.00000000 0.00000000
vn 0.99940000 0.00000000 -0.03600000
vn 0.00000000 -1.00000000 0.00000000
vn 0.99940000 0.00000000 -0.03600000
vn 0.99940000 0.00000000 -0.03600000
vn 0.00000000 -1.00000000 0.00000000
vn 0.00000000 -1.00000000 0.00000000
vn 0.99940000 0.00000000 -0.03600000
vn 0.00000000 -1.00000000 0.00000000
vn 0.99940000 0.00000000 -0.03580000
vn -0.03600000 0.00000000 -0.99940000
vn 0.00000000 -1.00000000 0.00000000
vn -0.99930000 0.00000000 0.03620000
vn -0.03600000 0.00000000 -0.99940000
vn 0.99930000 0.00000000 -0.03620000
vn 0.03600000 0.00000000 0.99940000
vn 0.00000000 -1.00000000 0.00000000
vn -0.99930000 0.00000000 0.03620000
vn 0.03600000 0.00000000 0.99940000
vn 0.00000000 -1.00000000 0.00000000
vn -0.03600000 0.00000000 -0.99940000
vn 0.00000000 -1.00000000 0.00000000
vn 0.00000000 -1.00000000 0.00000000
vn 0.99940000 0.00000000 -0.03580000
vn 0.99940000 0.00000000 -0.03580000
vn 0.00000000 -1.00000000 0.00000000
vn 0.99940000 0.00000000 -0.03580000
vn 0.00000000 -1.00000000 0.00000000
vn 0.99930000 0.00000000 -0.03620000
vn 0.00000000 -1.00000000 0.00000000
vn 0.03600000 0.00000000 0.99940000
vn -0.99930000 0.00000000 0.03620000
vn 0.00000000 -1.00000000 0.00000000
vn -0.99940000 0.00000000 0.03580000
vn 0.00000000 -1.00000000 0.00000000
vn -0.99940000 0.00000000 0.03580000
vn -0.99930000 0.00000000 0.03620000
vn -0.99930000 0.00000000 0.03620000
vn 0.00000000 -1.00000000 0.00000000
vn 0.00000000 1.00000000 0.00000000
vn -0.03610000 0.00000000 -0.99930000
vn 0.99930000 0.00000000 -0.03610000
vn 0.00000000 1.00000000 0.00000000
vn -0.03580000 0.00000000 -0.99940000
vn -0.99930000 0.00000000 0.03610000
vn 0.03610000 0.00000000 0.99930000
vn 0.99930000 0.00000000 -0.03610000
vn 0.00000000 1.00000000 0.00000000
vn -0.99940000 0.00000000 0.03570000
vn 0.03610000 0.00000000 0.99930000
vn 0.00000000 1.00000000 0.00000000
vn 0.00000000 1.00000000 0.00000000
vn -0.03610000 0.00000000 -0.99930000
vn -0.03580000 0.00000000 -0.99940000
vn 0.99930000 0.00000000 -0.03610000
vn 0.00000000 1.00000000 0.00000000
vn 0.99930000 0.00000000 -0.03610000
vn 0.00000000 1.00000000 0.00000000
vn 0.99930000 0.00000000 -0.03610000
vn 0.00000000 1.00000000 0.00000000
vn 0.03610000 0.00000000 0.99930000
vn 0.00000000 1.00000000 0.00000000
vn -0.99930000 0.00000000 0.03610000
vn 0.00000000 1.00000000 0.00000000
vn -0.99940000 0.00000000 0.03570000
vn -0.99930000 0.00000000 0.03610000
vn 0.00000000 1.00000000 0.00000000
vn -0.99930000 0.00000000 0.03610000
vn 0.00000000 1.00000000 0.00000000
vt 0.15813600 0.00000000
vt 0.15813600 0.00000000
vt 0.15813600 0.00000000
vt 0.07980100 0.00000000
vt 0.07980100 0.00000000
vt 0.07980100 0.00000000
vt 0.15813600 0.34039900
vt 0.15813600 0.34039900
vt 0.15813600 0.34039900
vt 0.07980100 0.34039900
vt 0.07980100 0.34039900
vt 0.07980100 0.34039900
vt 0.15813600 0.17019900
vt 0.15813600 0.17019900
vt 0.07980100 0.17019900
vt 0.07980100 0.17019900
vt 0.23793700 0.00000000
vt 0.23793700 0.00000000
vt 0.23793700 0.00000000
vt 0.15960100 0.00000000
vt 0.15960100 0.00000000
vt 0.15960100 0.00000000
vt 0.23793700 0.97718100
vt 0.23793700 0.97718100
vt 0.23793700 0.97718100
vt 0.15960100 0.97718100
vt 0.15960100 0.97718100
vt 0.15960100 0.97718100
vt 0.23793700 0.24429500
vt 0.23793700 0.24429500
vt 0.23793700 0.48859100
vt 0.23793700 0.48859100
vt 0.23793700 0.73288600
vt 0.23793700 0.73288600
vt 0.15960100 0.73288600
vt 0.15960100 0.73288600
vt 0.15960100 0.48859100
vt 0.15960100 0.48859100
vt 0.15960100 0.24429500
vt 0.15960100 0.24429500
vt 0.07833600 0.00000000
vt 0.07833600 0.00000000
vt 0.07833600 0.00000000
vt 0.00000000 0.00000000
vt 0.00000000 0.00000000
vt 0.00000000 0.00000000
vt 0.07833600 0.34039900
vt 0.07833600 0.34039900
vt 0.07833600 0.34039900
vt 0.00000000 0.34039900
vt 0.00000000 0.34039900
vt 0.00000000 0.34039900
vt 0.00000000 0.17019900
vt 0.00000000 0.17019900
vt 0.00000000 0.17019900
vt 0.07833600 0.17019900
vt 0.07833600 0.17019900
vt 0.31773800 0.00000000
vt 0.31773800 0.00000000
vt 0.31773800 0.00000000
vt 0.23940200 0.00000000
vt 0.23940200 0.00000000
vt 0.23940200 0.00000000
vt 0.31773800 0.97718100
vt 0.31773800 0.97718100
vt 0.31773800 0.97718100
vt 0.23940200 0.97718100
vt 0.23940200 0.97718100
vt 0.23940200 0.97718100
vt 0.31773800 0.24429500
vt 0.31773800 0.24429500
vt 0.31773800 0.48859100
vt 0.31773800 0.48859100
vt 0.31773800 0.73288600
vt 0.31773800 0.73288600
vt 0.23940200 0.73288600
vt 0.23940200 0.73288600
vt 0.23940200 0.48859100
vt 0.23940200 0.48859100
vt 0.23940200 0.24429500
vt 0.23940200 0.24429500
vt 0.99853500 0.00000000
vt 0.99853500 0.00000000
vt 0.99853500 0.00000000
vt 0.65960100 0.00000000
vt 0.65960100 0.00000000
vt 0.65960100 0.00000000
vt 0.99853500 0.97718100
vt 0.99853500 0.97718100
vt 0.99853500 0.97718100
vt 0.65960100 0.97718100
vt 0.65960100 0.97718100
vt 0.65960100 0.97718100
vt 0.82906800 0.00000000
vt 0.82906800 0.00000000
vt 0.99853500 0.24429500
vt 0.99853500 0.24429500
vt 0.99853500 0.48859100
vt 0.99853500 0.48859100
vt 0.99853500 0.73288600
vt 0.99853500 0.73288600
vt 0.99853500 0.73288600
vt 0.82906800 0.97718100
vt 0.82906800 0.97718100
vt 0.65960100 0.73288600
vt 0.65960100 0.73288600
vt 0.65960100 0.73288600
vt 0.65960100 0.48859100
vt 0.65960100 0.48859100
vt 0.65960100 0.48859100
vt 0.65960100 0.24429500
vt 0.65960100 0.24429500
vt 0.65813600 0.00000000
vt 0.65813600 0.00000000
vt 0.65813600 0.00000000
vt 0.31920300 0.00000000
vt 0.31920300 0.00000000
vt 0.31920300 0.00000000
vt 0.65813600 0.97718100
vt 0.65813600 0.97718100
vt 0.65813600 0.97718100
vt 0.31920300 0.97718100
vt 0.31920300 0.97718100
vt 0.31920300 0.97718100
vt 0.48866900 0.00000000
vt 0.48866900 0.00000000
vt 0.48866900 0.00000000
vt 0.65813600 0.24429500
vt 0.65813600 0.24429500
vt 0.65813600 0.48859100
vt 0.65813600 0.48859100
vt 0.65813600 0.73288600
vt 0.65813600 0.73288600
vt 0.48866900 0.97718100
vt 0.48866900 0.97718100
vt 0.31920300 0.73288600
vt 0.31920300 0.73288600
vt 0.31920300 0.73288600
vt 0.31920300 0.48859100
vt 0.31920300 0.48859100
vt 0.31920300 0.24429500
vt 0.31920300 0.24429500
vt 0.15813600 0.00000000
vt 0.15813600 0.00000000
vt 0.15813600 0.00000000
vt 0.07980100 0.00000000
vt 0.07980100 0.00000000
vt 0.07980100 0.00000000
vt 0.15813600 0.34039900
vt 0.15813600 0.34039900
vt 0.15813600 0.34039900
vt 0.07980100 0.34039900
vt 0.07980100 0.34039900
vt 0.07980100 0.34039900
vt 0.15813600 0.17019900
vt 0.15813600 0.17019900
vt 0.07980100 0.17019900
vt 0.07980100 0.17019900
vt 0.23793700 0.00000000
vt 0.23793700 0.00000000
vt 0.23793700 0.00000000
vt 0.15960100 0.00000000
vt 0.15960100 0.00000000
vt 0.15960100 0.00000000
vt 0.23793700 0.97718100
vt 0.23793700 0.97718100
vt 0.23793700 0.97718100
vt 0.15960100 0.97718100
vt 0.15960100 0.97718100
vt 0.15960100 0.97718100
vt 0.23793700 0.24429500
vt 0.23793700 0.24429500
vt 0.23793700 0.48859100
vt 0.23793700 0.48859100
vt 0.23793700 0.73288600
vt 0.23793700 0.73288600
vt 0.15960100 0.73288600
vt 0.15960100 0.73288600
vt 0.15960100 0.48859100
vt 0.15960100 0.48859100
vt 0.15960100 0.24429500
vt 0.15960100 0.24429500
vt 0.07833600 0.00000000
vt 0.07833600 0.00000000
vt 0.07833600 0.00000000
vt 0.00000000 0.00000000
vt 0.00000000 0.00000000
vt 0.00000000 0.00000000
vt 0.07833600 0.34039900
vt 0.07833600 0.34039900
vt 0.07833600 0.34039900
vt 0.00000000 0.34039900
vt 0.00000000 0.34039900
vt 0.00000000 0.34039900
vt 0.00000000 0.17019900
vt 0.00000000 0.17019900
vt 0.00000000 0.17019900
vt 0.07833600 0.17019900
vt 0.07833600 0.17019900
vt 0.31773800 0.00000000
vt 0.31773800 0.00000000
vt 0.31773800 0.00000000
vt 0.23940200 0.00000000
vt 0.23940200 0.00000000
vt 0.23940200 0.00000000
vt 0.31773800 0.97718100
vt 0.31773800 0.97718100
vt 0.31773800 0.97718100
vt 0.23940200 0.97718100
vt 0.23940200 0.97718100
vt 0.23940200 0.97718100
vt 0.31773800 0.24429500
vt 0.31773800 0.24429500
vt 0.31773800 0.48859100
vt 0.31773800 0.48859100
vt 0.31773800 0.73288600
vt 0.31773800 0.73288600
vt 0.23940200 0.73288600
vt 0.23940200 0.73288600
vt 0.23940200 0.48859100
vt 0.23940200 0.48859100
vt 0.23940200 0.24429500
vt 0.23940200 0.24429500
vt 0.99853500 0.00000000
vt 0.99853500 0.00000000
vt 0.99853500 0.00000000
vt 0.65960100 0.00000000
vt 0.65960100 0.00000000
vt 0.65960100 0.00000000
vt 0.99853500 0.97718100
vt 0.99853500 0.97718100
vt 0.99853500 0.97718100
vt 0.65960100 0.97718100
vt 0.65960100 0.97718100
vt 0.65960100 0.97718100
vt 0.82906800 0.00000000
vt 0.82906800 0.00000000
vt 0.99853500 0.24429500
vt 0.99853500 0.24429500
vt 0.99853500 0.48859100
vt 0.99853500 0.48859100
vt 0.99853500 0.73288600
vt 0.99853500 0.73288600
vt 0.99853500 0.73288600
vt 0.82906800 0.97718100
vt 0.82906800 0.97718100
vt 0.65960100 0.73288600
vt 0.65960100 0.73288600
vt 0.65960100 0.73288600
vt 0.65960100 0.48859100
vt 0.65960100 0.48859100
vt 0.65960100 0.48859100
vt 0.65960100 0.24429500
vt 0.65960100 0.24429500
vt 0.65813600 0.00000000
vt 0.65813600 0.00000000
vt 0.65813600 0.00000000
vt 0.31920300 0.00000000
vt 0.31920300 0.00000000
vt 0.31920300 0.00000000
vt 0.65813600 0.97718100
vt 0.65813600 0.97718100
vt 0.65813600 0.97718100
vt 0.31920300 0.97718100
vt 0.31920300 0.97718100
vt 0.31920300 0.97718100
vt 0.48866900 0.00000000
vt 0.48866900 0.00000000
vt 0.48866900 0.00000000
vt 0.65813600 0.24429500
vt 0.65813600 0.24429500
vt 0.65813600 0.48859100
vt 0.65813600 0.48859100
vt 0.65813600 0.73288600
vt 0.65813600 0.73288600
vt 0.48866900 0.97718100
vt 0.48866900 0.97718100
vt 0.31920300 0.73288600
vt 0.31920300 0.73288600
vt 0.31920300 0.73288600
vt 0.31920300 0.48859100
vt 0.31920300 0.48859100
vt 0.31920300 0.24429500
vt 0.31920300 0.24429500
f 6/6/6 2/2/2 13/13/13
f 7/7/7 11/11/11 15/15/15
f 30/30/30 39/39/39 20/20/20
f 39/39/39 30/30/30 32/32/32
f 23/23/23 28/28/28 36/36/36
f 34/34/34 36/36/36 37/37/37
f 44/44/44 41/41/41 56/56/56
f 47/47/47 51/51/51 55/55/55
f 70/70/70 80/80/80 61/61/61
f 80/80/80 70/70/70 72/72/72
f 66/66/66 69/69/69 76/76/76
f 74/74/74 76/76/76 79/79/79
f 94/94/94 96/96/96 83/83/83
f 112/112/112 96/96/96 94/94/94
f 94/94/94 85/85/85 112/112/112
f 108/108/108 99/99/99 112/112/112
f 99/99/99 108/108/108 101/101/101
f 104/104/104 89/89/89 101/101/101
f 92/92/92 104/104/104 107/107/107
f 101/101/101 107/107/107 104/104/104
f 126/126/126 115/115/115 129/129/129
f 142/142/142 126/126/126 129/129/129
f 126/126/126 142/142/142 116/116/116
f 139/139/139 142/142/142 130/130/130
f 130/130/130 132/132/132 139/139/139
f 134/134/134 132/132/132 121/121/121
f 123/123/123 136/136/136 134/134/134
f 132/132/132 134/134/134 136/136/136
f 6/6/6 13/13/13 15/15/15
f 7/7/7 15/15/15 13/13/13
f 30/30/30 20/20/20 19/19/19
f 39/39/39 32/32/32 37/37/37
f 23/23/23 36/36/36 34/34/34
f 34/34/34 37/37/37 32/32/32
f 44/44/44 56/56/56 55/55/55
f 47/47/47 55/55/55 56/56/56
f 70/70/70 61/61/61 60/60/60
f 80/80/80 72/72/72 79/79/79
f 66/66/66 76/76/76 74/74/74
f 74/74/74 79/79/79 72/72/72
f 99/99/99 96/96/96 112/112/112
f 108/108/108 107/107/107 101/101/101
f 142/142/142 129/129/129 130/130/130
f 132/132/132 136/136/136 139/139/139
f 148/148/148 156/156/156 144/144/144
f 150/150/150 157/157/157 154/154/154
f 172/172/172 163/163/163 181/181/181
f 181/181/181 174/174/174 172/172/172
f 165/165/165 177/177/177 168/168/168
f 176/176/176 180/180/180 177/177/177
f 188/188/188 199/199/199 184/184/184
f 190/190/190 195/195/195 194/194/194
f 213/213/213 203/203/203 223/223/223
f 223/223/223 215/215/215 213/213/213
f 206/206/206 219/219/219 210/210/210
f 217/217/217 220/220/220 219/219/219
f 237/237/237 224/224/224 238/238/238
f 254/254/254 237/237/237 238/238/238
f 237/237/237 254/254/254 227/227/227
f 250/250/250 254/254/254 241/241/241
f 241/241/241 243/243/243 250/250/250
f 245/245/245 243/243/243 232/232/232
f 235/235/235 248/248/248 245/245/245
f 243/243/243 245/245/245 248/248/248
f 267/267/267 271/271/271 255/255/255
f 284/284/284 271/271/271 267/267/267
f 267/267/267 258/258/258 284/284/284
f 282/282/282 273/273/273 284/284/284
f 273/273/273 282/282/282 275/275/275
f 277/277/277 263/263/263 275/275/275
f 266/266/266 277/277/277 279/279/279
f 275/275/275 279/279/279 277/277/277
f 148/148/148 157/157/157 156/156/156
f 150/150/150 156/156/156 157/157/157
f 172/172/172 161/161/161 163/163/163
f 181/181/181 180/180/180 174/174/174
f 165/165/165 176/176/176 177/177/177
f 176/176/176 174/174/174 180/180/180
f 188/188/188 195/195/195 199/199/199
f 190/190/190 199/199/199 195/195/195
f 213/213/213 201/201/201 203/203/203
f 223/223/223 220/220/220 215/215/215
f 206/206/206 217/217/217 219/219/219
f 217/217/217 215/215/215 220/220/220
f 241/241/241 254/254/254 238/238/238
f 250/250/250 243/243/243 248/248/248
f 284/284/284 273/273/273 271/271/271
f 275/275/275 282/282/282 279/279/279
f 3/3/3 5/5/5 146/146/146
f 146/146/146 143/143/143 3/3/3
f 12/12/12 9/9/9 149/149/149
f 149/149/149 153/153/153 12/12/12
f 27/27/27 25/25/25 167/167/167
f 167/167/167 169/169/169 27/27/27
f 31/31/31 29/29/29 171/171/171
f 171/171/171 173/173/173 31/31/31
f 43/43/43 45/45/45 186/186/186
f 186/186/186 185/185/185 43/43/43
f 52/52/52 49/49/49 189/189/189
f 189/189/189 193/193/193 52/52/52
f 14/14/14 1/1/1 145/145/145
f 145/145/145 155/155/155 14/14/14
f 59/59/59 63/63/63 205/205/205
f 205/205/205 202/202/202 59/59/59
f 67/67/67 64/64/64 207/207/207
f 207/207/207 209/209/209 67/67/67
f 73/73/73 71/71/71 212/212/212
f 212/212/212 214/214/214 73/73/73
f 65/65/65 75/75/75 216/216/216
f 216/216/216 208/208/208 65/65/65
f 4/4/4 16/16/16 158/158/158
f 158/158/158 147/147/147 4/4/4
f 95/95/95 84/84/84 226/226/226
f 226/226/226 236/236/236 95/95/95
f 97/97/97 98/98/98 240/240/240
f 240/240/240 239/239/239 97/97/97
f 98/98/98 102/102/102 242/242/242
f 242/242/242 240/240/240 98/98/98
f 110/110/110 111/111/111 253/253/253
f 253/253/253 252/252/252 110/110/110
f 113/113/113 127/127/127 268/268/268
f 268/268/268 256/256/256 113/113/113
f 16/16/16 10/10/10 152/152/152
f 152/152/152 158/158/158 16/16/16
f 133/133/133 131/131/131 272/272/272
f 272/272/272 274/274/274 133/133/133
f 135/135/135 120/120/120 261/261/261
f 261/261/261 276/276/276 135/135/135
f 137/137/137 124/124/124 264/264/264
f 264/264/264 280/280/280 137/137/137
f 24/24/24 33/33/33 175/175/175
f 175/175/175 166/166/166 24/24/24
f 62/62/62 81/81/81 222/222/222
f 222/222/222 204/204/204 62/62/62
f 128/128/128 114/114/114 257/257/257
f 257/257/257 270/270/270 128/128/128
f 77/77/77 68/68/68 211/211/211
f 211/211/211 218/218/218 77/77/77
f 29/29/29 18/18/18 159/159/159
f 159/159/159 171/171/171 29/29/29
f 75/75/75 73/73/73 214/214/214
f 214/214/214 216/216/216 75/75/75
f 119/119/119 133/133/133 274/274/274
f 274/274/274 262/262/262 119/119/119
f 117/117/117 141/141/141 283/283/283
f 283/283/283 260/260/260 117/117/117
f 122/122/122 135/135/135 276/276/276
f 276/276/276 265/265/265 122/122/122
f 78/78/78 77/77/77 218/218/218
f 218/218/218 221/221/221 78/78/78
f 71/71/71 58/58/58 200/200/200
f 200/200/200 212/212/212 71/71/71
f 21/21/21 40/40/40 182/182/182
f 182/182/182 164/164/164 21/21/21
f 35/35/35 26/26/26 170/170/170
f 170/170/170 178/178/178 35/35/35
f 81/81/81 78/78/78 221/221/221
f 221/221/221 222/222/222 81/81/81
f 105/105/105 109/109/109 251/251/251
f 251/251/251 249/249/249 105/105/105
f 131/131/131 128/128/128 270/270/270
f 270/270/270 272/272/272 131/131/131
f 17/17/17 22/22/22 162/162/162
f 162/162/162 160/160/160 17/17/17
f 38/38/38 35/35/35 178/178/178
f 178/178/178 179/179/179 38/38/38
f 140/140/140 138/138/138 278/278/278
f 278/278/278 281/281/281 140/140/140
f 8/8/8 14/14/14 155/155/155
f 155/155/155 151/151/151 8/8/8
f 82/82/82 97/97/97 239/239/239
f 239/239/239 225/225/225 82/82/82
f 40/40/40 38/38/38 179/179/179
f 179/179/179 182/182/182 40/40/40
f 87/87/87 95/95/95 236/236/236
f 236/236/236 229/229/229 87/87/87
f 141/141/141 140/140/140 281/281/281
f 281/281/281 283/283/283 141/141/141
f 125/125/125 118/118/118 259/259/259
f 259/259/259 269/269/269 125/125/125
f 100/100/100 90/90/90 230/230/230
f 230/230/230 244/244/244 100/100/100
f 88/88/88 103/103/103 246/246/246
f 246/246/246 231/231/231 88/88/88
f 111/111/111 86/86/86 228/228/228
f 228/228/228 253/253/253 111/111/111
f 103/103/103 93/93/93 234/234/234
f 234/234/234 246/246/246 103/103/103
f 91/91/91 106/106/106 247/247/247
f 247/247/247 233/233/233 91/91/91
f 57/57/57 42/42/42 183/183/183
f 183/183/183 198/198/198 57/57/57
f 33/33/33 31/31/31 173/173/173
f 173/173/173 175/175/175 33/33/33
f 46/46/46 53/53/53 196/196/196
f 196/196/196 187/187/187 46/46/46
f 48/48/48 57/57/57 198/198/198
f 198/198/198 191/191/191 48/48/48
f 54/54/54 50/50/50 192/192/192
f 192/192/192 197/197/197 54/54/54

