mtllib material.mtl
usemtl Material-7011油漆.033
v -0.01906500 -0.12493200 -0.06654500
v -0.01906500 -0.12493200 -0.06654500
v -0.01906500 -0.12493200 -0.06654500
v -0.01906500 -0.12563200 -0.06654500
v -0.01906500 -0.12563200 -0.06654500
v -0.01906500 -0.12563200 -0.06654500
v -0.02178300 -0.12493200 -0.06943500
v -0.02178300 -0.12493200 -0.06943500
v -0.02178300 -0.12493200 -0.06943500
v -0.02178300 -0.12563200 -0.06943500
v -0.02178300 -0.12563200 -0.06943500
v -0.02178300 -0.12563200 -0.06943500
v -0.02178300 -0.12493200 -0.06943500
v -0.02178300 -0.12493200 -0.06943500
v -0.02178300 -0.12493200 -0.06943500
v -0.02178300 -0.12563200 -0.06943500
v -0.02178300 -0.12563200 -0.06943500
v -0.02178300 -0.12563200 -0.06943500
v -0.02038400 -0.12510700 -0.06948600
v -0.02038400 -0.12510700 -0.06948600
v -0.02038400 -0.12528200 -0.06948600
v -0.02038400 -0.12528200 -0.06948600
v -0.02038400 -0.12545700 -0.06948600
v -0.02038400 -0.12545700 -0.06948600
v -0.01899300 -0.12510700 -0.06953600
v -0.01899300 -0.12510700 -0.06953600
v -0.01899300 -0.12510700 -0.06953600
v -0.01899300 -0.12528200 -0.06953600
v -0.01899300 -0.12528200 -0.06953600
v -0.01899300 -0.12528200 -0.06953600
v -0.01899300 -0.12545700 -0.06953600
v -0.01899300 -0.12545700 -0.06953600
v -0.01899300 -0.12545700 -0.06953600
v -0.01899300 -0.12545700 -0.06953600
v -0.01758600 -0.12510700 -0.06958700
v -0.01758600 -0.12528200 -0.06958700
v -0.01758600 -0.12545700 -0.06958700
v -0.01618700 -0.12493200 -0.06963700
v -0.01618700 -0.12493200 -0.06963700
v -0.01618700 -0.12493200 -0.06963700
v -0.01618700 -0.12563200 -0.06963700
v -0.01618700 -0.12563200 -0.06963700
v -0.01618700 -0.12563200 -0.06963700
v -0.01917200 -0.12493200 -0.06952900
v -0.01917200 -0.12493200 -0.06952900
v -0.01917200 -0.12493200 -0.06952900
v -0.01917200 -0.12493200 -0.06952900
v -0.01917200 -0.12563200 -0.06952900
v -0.01917200 -0.12563200 -0.06952900
v -0.01917200 -0.12563200 -0.06952900
v -0.01917200 -0.12563200 -0.06952900
v -0.01618700 -0.12493200 -0.06963700
v -0.01618700 -0.12493200 -0.06963700
v -0.01618700 -0.12493200 -0.06963700
v -0.01618700 -0.12563200 -0.06963700
v -0.01618700 -0.12563200 -0.06963700
v -0.01618700 -0.12563200 -0.06963700
v -0.01587800 -0.12493200 -0.06105700
v -0.01587800 -0.12493200 -0.06105700
v -0.01587800 -0.12493200 -0.06105700
v -0.01587800 -0.12563200 -0.06105700
v -0.01587800 -0.12563200 -0.06105700
v -0.01587800 -0.12563200 -0.06105700
v -0.01587800 -0.12493200 -0.06105700
v -0.01587800 -0.12493200 -0.06105700
v -0.01587800 -0.12493200 -0.06105700
v -0.01587800 -0.12563200 -0.06105700
v -0.01587800 -0.12563200 -0.06105700
v -0.01587800 -0.12563200 -0.06105700
v -0.01886300 -0.12493200 -0.06094900
v -0.01886300 -0.12493200 -0.06094900
v -0.01886300 -0.12493200 -0.06094900
v -0.01886300 -0.12563200 -0.06094900
v -0.01886300 -0.12563200 -0.06094900
v -0.01886300 -0.12563200 -0.06094900
v -0.01886300 -0.12493200 -0.06095000
v -0.01886300 -0.12493200 -0.06095000
v -0.01886300 -0.12493200 -0.06095000
v -0.01886300 -0.12563200 -0.06095000
v -0.01886300 -0.12563200 -0.06095000
v -0.01886300 -0.12563200 -0.06095000
v -0.01906500 -0.12493200 -0.06654500
v -0.01906500 -0.12493200 -0.06654500
v -0.01906500 -0.12493200 -0.06654500
v -0.01906500 -0.12563200 -0.06654500
v -0.01906500 -0.12563200 -0.06654500
v -0.01906500 -0.12563200 -0.06654500
v -0.02178300 -0.12493100 -0.06943500
v -0.02178300 -0.12493100 -0.06943500
v -0.02178300 -0.12493100 -0.06943500
v -0.01587800 -0.12493100 -0.06105700
v -0.01587800 -0.12493100 -0.06105700
v -0.01587800 -0.12493100 -0.06105700
v -0.01906400 -0.12493100 -0.06654500
v -0.01906400 -0.12493100 -0.06654500
v -0.01906400 -0.12493100 -0.06654500
v -0.01917200 -0.12493100 -0.06952900
v -0.01917200 -0.12493100 -0.06952900
v -0.01917200 -0.12493100 -0.06952900
v -0.01618700 -0.12493100 -0.06963700
v -0.01618700 -0.12493100 -0.06963700
v -0.01618700 -0.12493100 -0.06963700
v -0.01886300 -0.12493100 -0.06095000
v -0.01886300 -0.12493100 -0.06095000
v -0.01886300 -0.12493100 -0.06095000
v -0.02178300 -0.12563200 -0.06943500
v -0.02178300 -0.12563200 -0.06943500
v -0.02178300 -0.12563200 -0.06943500
v -0.01587800 -0.12563200 -0.06105700
v -0.01587800 -0.12563200 -0.06105700
v -0.01587800 -0.12563200 -0.06105700
v -0.01906400 -0.12563200 -0.06654500
v -0.01906400 -0.12563200 -0.06654500
v -0.01906400 -0.12563200 -0.06654500
v -0.01917200 -0.12563200 -0.06952900
v -0.01917200 -0.12563200 -0.06952900
v -0.01917200 -0.12563200 -0.06952900
v -0.01618700 -0.12563200 -0.06963700
v -0.01618700 -0.12563200 -0.06963700
v -0.01618700 -0.12563200 -0.06963700
v -0.01886300 -0.12563200 -0.06095000
v -0.01886300 -0.12563200 -0.06095000
v -0.01886300 -0.12563200 -0.06095000
v -0.01906400 -0.12493200 -0.06654600
v -0.01906400 -0.12493200 -0.06654600
v -0.01906400 -0.12493200 -0.06654600
v -0.01906400 -0.12563200 -0.06654600
v -0.01906400 -0.12563200 -0.06654600
v -0.01906400 -0.12563200 -0.06654600
v -0.02178200 -0.12493200 -0.06943500
v -0.02178200 -0.12493200 -0.06943500
v -0.02178200 -0.12493200 -0.06943500
v -0.02178200 -0.12563200 -0.06943500
v -0.02178200 -0.12563200 -0.06943500
v -0.02178200 -0.12563200 -0.06943500
v -0.02178300 -0.12493200 -0.06943400
v -0.02178300 -0.12493200 -0.06943400
v -0.02178300 -0.12493200 -0.06943400
v -0.02178300 -0.12563200 -0.06943400
v -0.02178300 -0.12563200 -0.06943400
v -0.02178300 -0.12563200 -0.06943400
v -0.02038400 -0.12510700 -0.06948500
v -0.02038400 -0.12510700 -0.06948500
v -0.02038400 -0.12528200 -0.06948500
v -0.02038400 -0.12545700 -0.06948500
v -0.02038400 -0.12545700 -0.06948500
v -0.01899300 -0.12510700 -0.06953500
v -0.01899300 -0.12510700 -0.06953500
v -0.01899300 -0.12510700 -0.06953500
v -0.01899300 -0.12510700 -0.06953500
v -0.01899300 -0.12528200 -0.06953500
v -0.01899300 -0.12528200 -0.06953500
v -0.01899300 -0.12545700 -0.06953500
v -0.01899300 -0.12545700 -0.06953500
v -0.01899300 -0.12545700 -0.06953500
v -0.01758600 -0.12510700 -0.06958600
v -0.01758600 -0.12510700 -0.06958600
v -0.01758600 -0.12528200 -0.06958600
v -0.01758600 -0.12528200 -0.06958600
v -0.01758600 -0.12545700 -0.06958600
v -0.01618700 -0.12493200 -0.06963600
v -0.01618700 -0.12493200 -0.06963600
v -0.01618700 -0.12493200 -0.06963600
v -0.01618700 -0.12563200 -0.06963600
v -0.01618700 -0.12563200 -0.06963600
v -0.01618700 -0.12563200 -0.06963600
v -0.01917200 -0.12493200 -0.06952800
v -0.01917200 -0.12493200 -0.06952800
v -0.01917200 -0.12493200 -0.06952800
v -0.01917200 -0.12493200 -0.06952800
v -0.01917200 -0.12563200 -0.06952800
v -0.01917200 -0.12563200 -0.06952800
v -0.01917200 -0.12563200 -0.06952800
v -0.01917200 -0.12563200 -0.06952800
v -0.01618800 -0.12493200 -0.06963700
v -0.01618800 -0.12493200 -0.06963700
v -0.01618800 -0.12493200 -0.06963700
v -0.01618800 -0.12563200 -0.06963700
v -0.01618800 -0.12563200 -0.06963700
v -0.01618800 -0.12563200 -0.06963700
v -0.01587900 -0.12493200 -0.06105700
v -0.01587900 -0.12493200 -0.06105700
v -0.01587900 -0.12493200 -0.06105700
v -0.01587900 -0.12563200 -0.06105700
v -0.01587900 -0.12563200 -0.06105700
v -0.01587900 -0.12563200 -0.06105700
v -0.01587800 -0.12493200 -0.06105800
v -0.01587800 -0.12493200 -0.06105800
v -0.01587800 -0.12493200 -0.06105800
v -0.01587800 -0.12563200 -0.06105800
v -0.01587800 -0.12563200 -0.06105800
v -0.01587800 -0.12563200 -0.06105800
v -0.01886300 -0.12493200 -0.06095000
v -0.01886300 -0.12493200 -0.06095000
v -0.01886300 -0.12493200 -0.06095000
v -0.01886300 -0.12563200 -0.06095000
v -0.01886300 -0.12563200 -0.06095000
v -0.01886300 -0.12563200 -0.06095000
v -0.01886200 -0.12493200 -0.06095000
v -0.01886200 -0.12493200 -0.06095000
v -0.01886200 -0.12493200 -0.06095000
v -0.01886200 -0.12563200 -0.06095000
v -0.01886200 -0.12563200 -0.06095000
v -0.01886200 -0.12563200 -0.06095000
v -0.01906400 -0.12493200 -0.06654500
v -0.01906400 -0.12493200 -0.06654500
v -0.01906400 -0.12493200 -0.06654500
v -0.01906400 -0.12563200 -0.06654500
v -0.01906400 -0.12563200 -0.06654500
v -0.01906400 -0.12563200 -0.06654500
v -0.02178300 -0.12493200 -0.06943500
v -0.02178300 -0.12493200 -0.06943500
v -0.02178300 -0.12493200 -0.06943500
v -0.01587800 -0.12493200 -0.06105700
v -0.01587800 -0.12493200 -0.06105700
v -0.01587800 -0.12493200 -0.06105700
v -0.01906400 -0.12493200 -0.06654500
v -0.01906400 -0.12493200 -0.06654500
v -0.01906400 -0.12493200 -0.06654500
v -0.01917200 -0.12493200 -0.06952900
v -0.01917200 -0.12493200 -0.06952900
v -0.01917200 -0.12493200 -0.06952900
v -0.01618700 -0.12493200 -0.06963700
v -0.01618700 -0.12493200 -0.06963700
v -0.01618700 -0.12493200 -0.06963700
v -0.01886300 -0.12493200 -0.06095000
v -0.01886300 -0.12493200 -0.06095000
v -0.01886300 -0.12493200 -0.06095000
v -0.02178300 -0.12563100 -0.06943500
v -0.02178300 -0.12563100 -0.06943500
v -0.02178300 -0.12563100 -0.06943500
v -0.01587800 -0.12563100 -0.06105700
v -0.01587800 -0.12563100 -0.06105700
v -0.01587800 -0.12563100 -0.06105700
v -0.01906400 -0.12563100 -0.06654500
v -0.01906400 -0.12563100 -0.06654500
v -0.01906400 -0.12563100 -0.06654500
v -0.01917200 -0.12563100 -0.06952900
v -0.01917200 -0.12563100 -0.06952900
v -0.01917200 -0.12563100 -0.06952900
v -0.01618700 -0.12563100 -0.06963700
v -0.01618700 -0.12563100 -0.06963700
v -0.01618700 -0.12563100 -0.06963700
v -0.01886300 -0.12563100 -0.06095000
v -0.01886300 -0.12563100 -0.06095000
v -0.01886300 -0.12563100 -0.06095000
vn 0.00000000 1.00000000 0.00000000
vn -0.72840000 0.00000000 0.68520000
vn 0.68290000 0.00000000 0.73050000
vn 0.00000000 -1.00000000 0.00000000
vn 0.68290000 0.00000000 0.73050000
vn -0.72840000 0.00000000 0.68520000
vn -0.72840000 0.00000000 0.68520000
vn -0.68570000 0.00000000 -0.72790000
vn 0.00000000 1.00000000 0.00000000
vn -0.72840000 0.00000000 0.68520000
vn 0.00000000 -1.00000000 0.00000000
vn -0.68570000 0.00000000 -0.72790000
vn -0.99940000 0.00000000 0.03360000
vn -0.03590000 0.00000000 -0.99940000
vn 0.00000000 1.00000000 0.00000000
vn 0.00000000 -1.00000000 0.00000000
vn -0.03590000 0.00000000 -0.99940000
vn -0.99940000 0.00000000 0.03360000
vn -0.03590000 0.00000000 -0.99940000
vn -0.03590000 0.00010000 -0.99940000
vn -0.03590000 0.00000000 -0.99940000
vn -0.03600000 0.00000000 -0.99940000
vn -0.03590000 -0.00010000 -0.99940000
vn -0.03590000 0.00000000 -0.99940000
vn -0.03610000 0.00000000 -0.99930000
vn -0.03590000 0.00010000 -0.99940000
vn -0.03590000 0.00000000 -0.99940000
vn -0.03600000 0.00000000 -0.99940000
vn -0.03610000 0.00000000 -0.99930000
vn -0.03590000 0.00000000 -0.99940000
vn -0.03600000 0.00000000 -0.99940000
vn -0.03610000 0.00000000 -0.99930000
vn -0.03590000 -0.00010000 -0.99940000
vn -0.03590000 0.00000000 -0.99940000
vn -0.03610000 0.00000000 -0.99930000
vn -0.03610000 0.00000000 -0.99930000
vn -0.03610000 0.00000000 -0.99930000
vn 0.99940000 0.00000000 -0.03360000
vn -0.03610000 0.00000000 -0.99930000
vn 0.00000000 1.00000000 0.00000000
vn 0.00000000 -1.00000000 0.00000000
vn -0.03610000 0.00000000 -0.99930000
vn 0.99940000 0.00000000 -0.03360000
vn -0.03590000 0.00010000 -0.99940000
vn -0.03610000 0.00000000 -0.99930000
vn 0.00000000 1.00000000 0.00000000
vn -0.03590000 0.00000000 -0.99940000
vn -0.03610000 0.00000000 -0.99930000
vn -0.03590000 0.00000000 -0.99940000
vn 0.00000000 -1.00000000 0.00000000
vn -0.03590000 -0.00010000 -0.99940000
vn 0.99940000 0.00000000 -0.03600000
vn -0.03120000 0.00000000 -0.99950000
vn 0.00000000 1.00000000 0.00000000
vn 0.00000000 -1.00000000 0.00000000
vn -0.03120000 0.00000000 -0.99950000
vn 0.99940000 0.00000000 -0.03600000
vn 0.99940000 0.00000000 -0.03600000
vn 0.00000000 1.00000000 0.00000000
vn 0.03640000 0.00000000 0.99930000
vn 0.03640000 0.00000000 0.99930000
vn 0.00000000 -1.00000000 0.00000000
vn 0.99940000 0.00000000 -0.03600000
vn 0.00000000 1.00000000 0.00000000
vn 0.03600000 0.00000000 0.99940000
vn 0.99930000 0.00000000 -0.03710000
vn 0.00000000 -1.00000000 0.00000000
vn 0.03600000 0.00000000 0.99940000
vn 0.99930000 0.00000000 -0.03710000
vn -0.99940000 0.00000000 0.03540000
vn 0.00000000 1.00000000 0.00000000
vn 0.03600000 0.00000000 0.99940000
vn 0.00000000 -1.00000000 0.00000000
vn -0.99940000 0.00000000 0.03540000
vn 0.03600000 0.00000000 0.99940000
vn 0.03630000 0.00000000 0.99930000
vn 0.00000000 1.00000000 0.00000000
vn -0.99940000 0.00000000 0.03600000
vn 0.03630000 0.00000000 0.99930000
vn 0.00000000 -1.00000000 0.00030000
vn -0.99940000 0.00000000 0.03600000
vn -0.02600000 0.00000000 -0.99970000
vn 0.00000000 1.00000000 0.00000000
vn -0.99940000 0.00000000 0.03600000
vn -0.02600000 0.00000000 -0.99970000
vn -0.99940000 0.00000000 0.03600000
vn 0.00000000 -1.00000000 0.00030000
vn -0.03600000 0.00000000 -0.99940000
vn 0.00000000 1.00000000 0.00000000
vn -0.72820000 0.00000000 0.68540000
vn 0.00000000 1.00000000 0.00000000
vn 0.99930000 0.00000000 -0.03620000
vn 0.03570000 0.00000000 0.99940000
vn -0.72820000 0.00000000 0.68540000
vn -0.99940000 0.00000000 0.03590000
vn 0.00000000 1.00000000 0.00000000
vn -0.03600000 0.00000000 -0.99940000
vn -0.03580000 0.00000000 -0.99940000
vn 0.00000000 1.00000000 0.00000000
vn -0.03580000 0.00000000 -0.99940000
vn 0.00000000 1.00000000 0.00000000
vn 0.99930000 0.00000000 -0.03620000
vn 0.00000000 1.00000000 0.00000000
vn -0.99940000 0.00000000 0.03590000
vn 0.03570000 0.00000000 0.99940000
vn 0.00000000 -1.00000000 0.00000000
vn -0.03590000 0.00000000 -0.99940000
vn -0.72710000 0.00000000 0.68660000
vn 0.00000000 -1.00000000 0.00000000
vn 0.03600000 0.00000000 0.99940000
vn 0.99940000 0.00000000 -0.03600000
vn -0.99940000 0.00000000 0.03590000
vn 0.00000000 -1.00000000 0.00000000
vn -0.72710000 0.00000000 0.68660000
vn 0.00000000 -1.00000000 0.00000000
vn -0.03600000 0.00000000 -0.99940000
vn -0.03590000 0.00000000 -0.99940000
vn -0.03600000 0.00000000 -0.99940000
vn 0.99940000 0.00000000 -0.03600000
vn 0.00000000 -1.00000000 0.00000000
vn 0.03600000 0.00000000 0.99940000
vn -0.99940000 0.00000000 0.03590000
vn 0.00000000 -1.00000000 0.00000000
vn 0.72840000 0.00000000 -0.68520000
vn 0.68290000 0.00000000 0.73050000
vn 0.00000000 1.00000000 0.00000000
vn 0.00000000 -1.00000000 0.00000000
vn 0.68290000 0.00000000 0.73050000
vn 0.72840000 0.00000000 -0.68520000
vn 0.00000000 1.00000000 0.00000000
vn -0.68570000 0.00000000 -0.72790000
vn 0.72840000 0.00000000 -0.68520000
vn 0.72840000 0.00000000 -0.68520000
vn -0.68570000 0.00000000 -0.72790000
vn 0.00000000 -1.00000000 0.00000000
vn 0.03590000 0.00000000 0.99940000
vn -0.99940000 0.00000000 0.03360000
vn 0.00000000 1.00000000 0.00000000
vn -0.99940000 0.00000000 0.03360000
vn 0.00000000 -1.00000000 0.00000000
vn 0.03590000 0.00000000 0.99940000
vn 0.03590000 -0.00010000 0.99940000
vn 0.03590000 0.00000000 0.99940000
vn 0.03590000 0.00000000 0.99940000
vn 0.03590000 0.00010000 0.99940000
vn 0.03590000 0.00000000 0.99940000
vn 0.03610000 0.00000000 0.99930000
vn 0.03590000 -0.00010000 0.99940000
vn 0.03590000 0.00000000 0.99940000
vn 0.03600000 0.00000000 0.99940000
vn 0.03590000 0.00000000 0.99940000
vn 0.03610000 0.00000000 0.99930000
vn 0.03590000 0.00000000 0.99940000
vn 0.03590000 0.00010000 0.99940000
vn 0.03610000 0.00000000 0.99930000
vn 0.03610000 0.00000000 0.99930000
vn 0.03600000 0.00000000 0.99940000
vn 0.03600000 0.00000000 0.99940000
vn 0.03610000 0.00000000 0.99930000
vn 0.03610000 0.00000000 0.99930000
vn 0.03610000 0.00000000 0.99930000
vn 0.99940000 0.00000000 -0.03360000
vn 0.00000000 1.00000000 0.00000000
vn 0.03610000 0.00000000 0.99930000
vn 0.99940000 0.00000000 -0.03360000
vn 0.00000000 -1.00000000 0.00000000
vn 0.03610000 0.00000000 0.99930000
vn 0.03590000 0.00000000 0.99940000
vn 0.00000000 1.00000000 0.00000000
vn 0.03590000 -0.00010000 0.99940000
vn 0.00000000 -1.00000000 0.00000000
vn 0.03610000 0.00000000 0.99930000
vn 0.03590000 0.00010000 0.99940000
vn 0.03590000 0.00000000 0.99940000
vn -0.03120000 0.00000000 -0.99950000
vn 0.00000000 1.00000000 0.00000000
vn -0.99940000 0.00000000 0.03600000
vn -0.99940000 0.00000000 0.03600000
vn -0.03120000 0.00000000 -0.99950000
vn 0.00000000 -1.00000000 0.00000000
vn -0.99940000 0.00000000 0.03600000
vn 0.00000000 1.00000000 0.00000000
vn 0.03640000 0.00000000 0.99930000
vn 0.00000000 -1.00000000 0.00000000
vn -0.99940000 0.00000000 0.03600000
vn 0.03640000 0.00000000 0.99930000
vn 0.00000000 1.00000000 0.00000000
vn -0.03600000 0.00000000 -0.99940000
vn 0.99930000 0.00000000 -0.03710000
vn -0.03600000 0.00000000 -0.99940000
vn 0.99930000 0.00000000 -0.03710000
vn 0.00000000 -1.00000000 0.00000000
vn -0.03600000 0.00000000 -0.99940000
vn 0.00000000 1.00000000 0.00000000
vn -0.99940000 0.00000000 0.03540000
vn -0.99940000 0.00000000 0.03540000
vn 0.00000000 -1.00000000 0.00000000
vn -0.03600000 0.00000000 -0.99940000
vn 0.99940000 0.00000000 -0.03600000
vn 0.00000000 1.00000000 0.00000000
vn 0.03630000 0.00000000 0.99930000
vn 0.00000000 -1.00000000 0.00030000
vn 0.99940000 0.00000000 -0.03600000
vn 0.03630000 0.00000000 0.99930000
vn 0.99940000 0.00000000 -0.03600000
vn 0.00000000 1.00000000 0.00000000
vn -0.02600000 0.00000000 -0.99970000
vn 0.00000000 -1.00000000 0.00030000
vn 0.99940000 0.00000000 -0.03600000
vn -0.02600000 0.00000000 -0.99970000
vn -0.72820000 0.00000000 0.68540000
vn -0.03600000 0.00000000 -0.99940000
vn 0.00000000 -1.00000000 0.00000000
vn 0.99930000 0.00000000 -0.03620000
vn 0.03570000 0.00000000 0.99940000
vn 0.00000000 -1.00000000 0.00000000
vn -0.72820000 0.00000000 0.68540000
vn -0.99940000 0.00000000 0.03590000
vn 0.00000000 -1.00000000 0.00000000
vn -0.03580000 0.00000000 -0.99940000
vn 0.00000000 -1.00000000 0.00000000
vn -0.03600000 0.00000000 -0.99940000
vn -0.03580000 0.00000000 -0.99940000
vn 0.99930000 0.00000000 -0.03620000
vn 0.00000000 -1.00000000 0.00000000
vn -0.99940000 0.00000000 0.03590000
vn 0.03570000 0.00000000 0.99940000
vn 0.00000000 -1.00000000 0.00000000
vn -0.72710000 0.00000000 0.68660000
vn -0.03590000 0.00000000 -0.99940000
vn 0.00000000 1.00000000 0.00000000
vn 0.03600000 0.00000000 0.99940000
vn 0.00000000 1.00000000 0.00000000
vn 0.99940000 0.00000000 -0.03600000
vn -0.99940000 0.00000000 0.03590000
vn -0.72710000 0.00000000 0.68660000
vn 0.00000000 1.00000000 0.00000000
vn -0.03590000 0.00000000 -0.99940000
vn 0.00000000 1.00000000 0.00000000
vn -0.03600000 0.00000000 -0.99940000
vn 0.99940000 0.00000000 -0.03600000
vn 0.00000000 1.00000000 0.00000000
vn -0.03600000 0.00000000 -0.99940000
vn -0.99940000 0.00000000 0.03590000
vn 0.00000000 1.00000000 0.00000000
vn 0.03600000 0.00000000 0.99940000
vt 0.10966400 0.00000000
vt 0.10966400 0.00000000
vt 0.10966400 0.00000000
vt 0.05556500 0.00000000
vt 0.05556500 0.00000000
vt 0.05556500 0.00000000
vt 0.10966400 0.31490200
vt 0.10966400 0.31490200
vt 0.10966400 0.31490200
vt 0.05556500 0.31490200
vt 0.05556500 0.31490200
vt 0.05556500 0.31490200
vt 0.16669400 0.00000000
vt 0.16669400 0.00000000
vt 0.16669400 0.00000000
vt 0.16669400 0.05410000
vt 0.16669400 0.05410000
vt 0.16669400 0.05410000
vt 0.27780300 0.01352500
vt 0.27780300 0.01352500
vt 0.27780300 0.02705000
vt 0.27780300 0.02705000
vt 0.27780300 0.04057500
vt 0.27780300 0.04057500
vt 0.38828000 0.01352500
vt 0.38828000 0.01352500
vt 0.38828000 0.01352500
vt 0.38828000 0.02705000
vt 0.38828000 0.02705000
vt 0.38828000 0.02705000
vt 0.38828000 0.04057500
vt 0.38828000 0.04057500
vt 0.38828000 0.04057500
vt 0.38828000 0.04057500
vt 0.50002000 0.01352500
vt 0.50002000 0.02705000
vt 0.50002000 0.04057500
vt 0.61112900 0.00000000
vt 0.61112900 0.00000000
vt 0.61112900 0.00000000
vt 0.61112900 0.05410000
vt 0.61112900 0.05410000
vt 0.61112900 0.05410000
vt 0.37405600 0.00000000
vt 0.37405600 0.00000000
vt 0.37405600 0.00000000
vt 0.37405600 0.00000000
vt 0.37405600 0.05410000
vt 0.37405600 0.05410000
vt 0.37405600 0.05410000
vt 0.37405600 0.05410000
vt 0.16522900 0.00000000
vt 0.16522900 0.00000000
vt 0.16522900 0.00000000
vt 0.11112900 0.00000000
vt 0.11112900 0.00000000
vt 0.11112900 0.00000000
vt 0.16522900 0.68145300
vt 0.16522900 0.68145300
vt 0.16522900 0.68145300
vt 0.11112900 0.68145300
vt 0.11112900 0.68145300
vt 0.11112900 0.68145300
vt 0.05410000 0.00000000
vt 0.05410000 0.00000000
vt 0.05410000 0.00000000
vt 0.00000000 0.00000000
vt 0.00000000 0.00000000
vt 0.00000000 0.00000000
vt 0.05410000 0.23707300
vt 0.05410000 0.23707300
vt 0.05410000 0.23707300
vt 0.00000000 0.23707300
vt 0.00000000 0.23707300
vt 0.00000000 0.23707300
vt 0.16669400 0.05556500
vt 0.16669400 0.05556500
vt 0.16669400 0.05556500
vt 0.16669400 0.10966400
vt 0.16669400 0.10966400
vt 0.16669400 0.10966400
vt 0.61115700 0.05556500
vt 0.61115700 0.05556500
vt 0.61115700 0.05556500
vt 0.61115700 0.10966400
vt 0.61115700 0.10966400
vt 0.61115700 0.10966400
vt 0.16669400 0.99853500
vt 0.16669400 0.99853500
vt 0.16669400 0.99853500
vt 0.84668200 0.55556500
vt 0.84668200 0.55556500
vt 0.84668200 0.55556500
vt 0.40317400 0.79185700
vt 0.40317400 0.79185700
vt 0.40317400 0.79185700
vt 0.16670800 0.79185700
vt 0.16670800 0.79185700
vt 0.16670800 0.79185700
vt 0.16669400 0.55556500
vt 0.16669400 0.55556500
vt 0.16669400 0.55556500
vt 0.84668200 0.79185700
vt 0.84668200 0.79185700
vt 0.84668200 0.79185700
vt 0.16669400 0.55410000
vt 0.16669400 0.55410000
vt 0.16669400 0.55410000
vt 0.84668200 0.11112900
vt 0.84668200 0.11112900
vt 0.84668200 0.11112900
vt 0.40317400 0.34742100
vt 0.40317400 0.34742100
vt 0.40317400 0.34742100
vt 0.16670800 0.34742100
vt 0.16670800 0.34742100
vt 0.16670800 0.34742100
vt 0.16669400 0.11112900
vt 0.16669400 0.11112900
vt 0.16669400 0.11112900
vt 0.84668200 0.34742100
vt 0.84668200 0.34742100
vt 0.84668200 0.34742100
vt 0.10966400 0.00000000
vt 0.10966400 0.00000000
vt 0.10966400 0.00000000
vt 0.05556500 0.00000000
vt 0.05556500 0.00000000
vt 0.05556500 0.00000000
vt 0.10966400 0.31490200
vt 0.10966400 0.31490200
vt 0.10966400 0.31490200
vt 0.05556500 0.31490200
vt 0.05556500 0.31490200
vt 0.05556500 0.31490200
vt 0.16669400 0.00000000
vt 0.16669400 0.00000000
vt 0.16669400 0.00000000
vt 0.16669400 0.05410000
vt 0.16669400 0.05410000
vt 0.16669400 0.05410000
vt 0.27780300 0.01352500
vt 0.27780300 0.01352500
vt 0.27780300 0.02705000
vt 0.27780300 0.04057500
vt 0.27780300 0.04057500
vt 0.38828000 0.01352500
vt 0.38828000 0.01352500
vt 0.38828000 0.01352500
vt 0.38828000 0.01352500
vt 0.38828000 0.02705000
vt 0.38828000 0.02705000
vt 0.38828000 0.04057500
vt 0.38828000 0.04057500
vt 0.38828000 0.04057500
vt 0.50002000 0.01352500
vt 0.50002000 0.01352500
vt 0.50002000 0.02705000
vt 0.50002000 0.02705000
vt 0.50002000 0.04057500
vt 0.61112900 0.00000000
vt 0.61112900 0.00000000
vt 0.61112900 0.00000000
vt 0.61112900 0.05410000
vt 0.61112900 0.05410000
vt 0.61112900 0.05410000
vt 0.37405600 0.00000000
vt 0.37405600 0.00000000
vt 0.37405600 0.00000000
vt 0.37405600 0.00000000
vt 0.37405600 0.05410000
vt 0.37405600 0.05410000
vt 0.37405600 0.05410000
vt 0.37405600 0.05410000
vt 0.16522900 0.00000000
vt 0.16522900 0.00000000
vt 0.16522900 0.00000000
vt 0.11112900 0.00000000
vt 0.11112900 0.00000000
vt 0.11112900 0.00000000
vt 0.16522900 0.68145300
vt 0.16522900 0.68145300
vt 0.16522900 0.68145300
vt 0.11112900 0.68145300
vt 0.11112900 0.68145300
vt 0.11112900 0.68145300
vt 0.05410000 0.00000000
vt 0.05410000 0.00000000
vt 0.05410000 0.00000000
vt 0.00000000 0.00000000
vt 0.00000000 0.00000000
vt 0.00000000 0.00000000
vt 0.05410000 0.23707300
vt 0.05410000 0.23707300
vt 0.05410000 0.23707300
vt 0.00000000 0.23707300
vt 0.00000000 0.23707300
vt 0.00000000 0.23707300
vt 0.16669400 0.05556500
vt 0.16669400 0.05556500
vt 0.16669400 0.05556500
vt 0.16669400 0.10966400
vt 0.16669400 0.10966400
vt 0.16669400 0.10966400
vt 0.61115700 0.05556500
vt 0.61115700 0.05556500
vt 0.61115700 0.05556500
vt 0.61115700 0.10966400
vt 0.61115700 0.10966400
vt 0.61115700 0.10966400
vt 0.16669400 0.99853500
vt 0.16669400 0.99853500
vt 0.16669400 0.99853500
vt 0.84668200 0.55556500
vt 0.84668200 0.55556500
vt 0.84668200 0.55556500
vt 0.40317400 0.79185700
vt 0.40317400 0.79185700
vt 0.40317400 0.79185700
vt 0.16670800 0.79185700
vt 0.16670800 0.79185700
vt 0.16670800 0.79185700
vt 0.16669400 0.55556500
vt 0.16669400 0.55556500
vt 0.16669400 0.55556500
vt 0.84668200 0.79185700
vt 0.84668200 0.79185700
vt 0.84668200 0.79185700
vt 0.16669400 0.55410000
vt 0.16669400 0.55410000
vt 0.16669400 0.55410000
vt 0.84668200 0.11112900
vt 0.84668200 0.11112900
vt 0.84668200 0.11112900
vt 0.40317400 0.34742100
vt 0.40317400 0.34742100
vt 0.40317400 0.34742100
vt 0.16670800 0.34742100
vt 0.16670800 0.34742100
vt 0.16670800 0.34742100
vt 0.16669400 0.11112900
vt 0.16669400 0.11112900
vt 0.16669400 0.11112900
vt 0.84668200 0.34742100
vt 0.84668200 0.34742100
vt 0.84668200 0.34742100
f 6/6/6 2/2/2 7/7/7
f 30/30/30 21/21/21 19/19/19
f 34/34/34 24/24/24 21/21/21
f 36/36/36 29/29/29 25/25/25
f 37/37/37 32/32/32 29/29/29
f 19/19/19 14/14/14 47/47/47
f 21/21/21 14/14/14 19/19/19
f 24/24/24 17/17/17 21/21/21
f 14/14/14 21/21/21 17/17/17
f 17/17/17 24/24/24 49/49/49
f 23/23/23 33/33/33 51/51/51
f 44/44/44 26/26/26 20/20/20
f 25/25/25 45/45/45 35/35/35
f 39/39/39 35/35/35 45/45/45
f 36/36/36 35/35/35 39/39/39
f 42/42/42 48/48/48 37/37/37
f 36/36/36 42/42/42 37/37/37
f 42/42/42 36/36/36 39/39/39
f 57/57/57 52/52/52 58/58/58
f 68/68/68 65/65/65 72/72/72
f 81/81/81 78/78/78 84/84/84
f 96/96/96 101/101/101 99/99/99
f 96/96/96 99/99/99 89/89/89
f 103/103/103 91/91/91 96/96/96
f 101/101/101 96/96/96 91/91/91
f 113/113/113 115/115/115 120/120/120
f 113/113/113 106/106/106 115/115/115
f 123/123/123 113/113/113 109/109/109
f 120/120/120 109/109/109 113/113/113
f 6/6/6 7/7/7 10/10/10
f 30/30/30 19/19/19 27/27/27
f 31/31/31 22/22/22 28/28/28
f 36/36/36 25/25/25 35/35/35
f 37/37/37 29/29/29 36/36/36
f 48/48/48 32/32/32 37/37/37
f 57/57/57 58/58/58 63/63/63
f 68/68/68 72/72/72 75/75/75
f 81/81/81 84/84/84 86/86/86
f 129/129/129 132/132/132 124/124/124
f 151/151/151 143/143/143 144/144/144
f 153/153/153 144/144/144 146/146/146
f 159/159/159 147/147/147 152/152/152
f 160/160/160 152/152/152 155/155/155
f 143/143/143 168/168/168 136/136/136
f 144/144/144 143/143/143 136/136/136
f 146/146/146 144/144/144 141/141/141
f 136/136/136 141/141/141 144/144/144
f 141/141/141 174/174/174 146/146/146
f 145/145/145 173/173/173 154/154/154
f 170/170/170 142/142/142 148/148/148
f 147/147/147 156/156/156 167/167/167
f 161/161/161 167/167/167 156/156/156
f 159/159/159 161/161/161 156/156/156
f 164/164/164 160/160/160 172/172/172
f 159/159/159 160/160/160 164/164/164
f 164/164/164 161/161/161 159/159/159
f 178/178/178 181/181/181 177/177/177
f 190/190/190 193/193/193 188/188/188
f 203/203/203 205/205/205 199/199/199
f 219/219/219 221/221/221 225/225/225
f 219/219/219 213/213/213 221/221/221
f 228/228/228 219/219/219 216/216/216
f 225/225/225 216/216/216 219/219/219
f 237/237/237 242/242/242 239/239/239
f 237/237/237 239/239/239 231/231/231
f 245/245/245 233/233/233 237/237/237
f 242/242/242 237/237/237 233/233/233
f 129/129/129 133/133/133 132/132/132
f 151/151/151 149/149/149 143/143/143
f 153/153/153 151/151/151 144/144/144
f 158/158/158 157/157/157 150/150/150
f 160/160/160 159/159/159 152/152/152
f 172/172/172 160/160/160 155/155/155
f 178/178/178 185/185/185 181/181/181
f 190/190/190 198/198/198 193/193/193
f 203/203/203 209/209/209 205/205/205
f 3/3/3 5/5/5 128/128/128
f 128/128/128 125/125/125 3/3/3
f 4/4/4 11/11/11 135/135/135
f 135/135/135 127/127/127 4/4/4
f 13/13/13 18/18/18 139/139/139
f 139/139/139 137/137/137 13/13/13
f 9/9/9 1/1/1 126/126/126
f 126/126/126 130/130/130 9/9/9
f 16/16/16 50/50/50 171/171/171
f 171/171/171 140/140/140 16/16/16
f 53/53/53 56/56/56 179/179/179
f 179/179/179 175/175/175 53/53/53
f 55/55/55 62/62/62 184/184/184
f 184/184/184 180/180/180 55/55/55
f 61/61/61 60/60/60 183/183/183
f 183/183/183 186/186/186 61/61/61
f 66/66/66 69/69/69 191/191/191
f 191/191/191 189/189/189 66/66/66
f 67/67/67 73/73/73 197/197/197
f 197/197/197 192/192/192 67/67/67
f 76/76/76 79/79/79 204/204/204
f 204/204/204 201/201/201 76/76/76
f 80/80/80 87/87/87 208/208/208
f 208/208/208 202/202/202 80/80/80
f 12/12/12 8/8/8 131/131/131
f 131/131/131 134/134/134 12/12/12
f 94/94/94 90/90/90 211/211/211
f 211/211/211 217/217/217 94/94/94
f 104/104/104 95/95/95 218/218/218
f 218/218/218 226/226/226 104/104/104
f 108/108/108 114/114/114 236/236/236
f 236/236/236 229/229/229 108/108/108
f 121/121/121 110/110/110 232/232/232
f 232/232/232 246/246/246 121/121/121
f 71/71/71 64/64/64 187/187/187
f 187/187/187 194/194/194 71/71/71
f 112/112/112 122/122/122 244/244/244
f 244/244/244 235/235/235 112/112/112
f 74/74/74 70/70/70 195/195/195
f 195/195/195 196/196/196 74/74/74
f 118/118/118 116/116/116 240/240/240
f 240/240/240 243/243/243 118/118/118
f 83/83/83 77/77/77 200/200/200
f 200/200/200 206/206/206 83/83/83
f 46/46/46 15/15/15 138/138/138
f 138/138/138 169/169/169 46/46/46
f 59/59/59 54/54/54 176/176/176
f 176/176/176 182/182/182 59/59/59
f 85/85/85 82/82/82 207/207/207
f 207/207/207 210/210/210 85/85/85
f 93/93/93 105/105/105 227/227/227
f 227/227/227 215/215/215 93/93/93
f 88/88/88 97/97/97 222/222/222
f 222/222/222 212/212/212 88/88/88
f 102/102/102 92/92/92 214/214/214
f 214/214/214 224/224/224 102/102/102
f 98/98/98 100/100/100 223/223/223
f 223/223/223 220/220/220 98/98/98
f 43/43/43 38/38/38 162/162/162
f 162/162/162 165/165/165 43/43/43
f 40/40/40 46/46/46 169/169/169
f 169/169/169 163/163/163 40/40/40
f 50/50/50 41/41/41 166/166/166
f 166/166/166 171/171/171 50/50/50
f 117/117/117 107/107/107 230/230/230
f 230/230/230 238/238/238 117/117/117
f 111/111/111 119/119/119 241/241/241
f 241/241/241 234/234/234 111/111/111

