mtllib material.mtl
usemtl Material-7011油漆.036
v -0.02538100 -0.12493200 -0.07602800
v -0.02538100 -0.12493200 -0.07602800
v -0.02538100 -0.12493200 -0.07602800
v -0.02538100 -0.12563200 -0.07602800
v -0.02538100 -0.12563200 -0.07602800
v -0.02538100 -0.12563200 -0.07602800
v -0.02810000 -0.12493200 -0.07891800
v -0.02810000 -0.12493200 -0.07891800
v -0.02810000 -0.12493200 -0.07891800
v -0.02810000 -0.12563200 -0.07891800
v -0.02810000 -0.12563200 -0.07891800
v -0.02810000 -0.12563200 -0.07891800
v -0.02810000 -0.12493200 -0.07891800
v -0.02810000 -0.12493200 -0.07891800
v -0.02810000 -0.12493200 -0.07891800
v -0.02810000 -0.12563200 -0.07891800
v -0.02810000 -0.12563200 -0.07891800
v -0.02810000 -0.12563200 -0.07891800
v -0.02250500 -0.12493200 -0.07912000
v -0.02250500 -0.12493200 -0.07912000
v -0.02250500 -0.12493200 -0.07912000
v -0.02250500 -0.12563200 -0.07912000
v -0.02250500 -0.12563200 -0.07912000
v -0.02250500 -0.12563200 -0.07912000
v -0.02250500 -0.12493200 -0.07911900
v -0.02250500 -0.12493200 -0.07911900
v -0.02250500 -0.12493200 -0.07911900
v -0.02250500 -0.12563200 -0.07911900
v -0.02250500 -0.12563200 -0.07911900
v -0.02250500 -0.12563200 -0.07911900
v -0.02219600 -0.12493200 -0.07054000
v -0.02219600 -0.12493200 -0.07054000
v -0.02219600 -0.12493200 -0.07054000
v -0.02219600 -0.12563200 -0.07054000
v -0.02219600 -0.12563200 -0.07054000
v -0.02219600 -0.12563200 -0.07054000
v -0.02219600 -0.12493200 -0.07054000
v -0.02219600 -0.12493200 -0.07054000
v -0.02219600 -0.12493200 -0.07054000
v -0.02219600 -0.12563200 -0.07054000
v -0.02219600 -0.12563200 -0.07054000
v -0.02219600 -0.12563200 -0.07054000
v -0.02517900 -0.12493200 -0.07043200
v -0.02517900 -0.12493200 -0.07043200
v -0.02517900 -0.12493200 -0.07043200
v -0.02517900 -0.12563200 -0.07043200
v -0.02517900 -0.12563200 -0.07043200
v -0.02517900 -0.12563200 -0.07043200
v -0.02518000 -0.12493200 -0.07043300
v -0.02518000 -0.12493200 -0.07043300
v -0.02518000 -0.12493200 -0.07043300
v -0.02518000 -0.12563200 -0.07043300
v -0.02518000 -0.12563200 -0.07043300
v -0.02518000 -0.12563200 -0.07043300
v -0.02538100 -0.12493200 -0.07602800
v -0.02538100 -0.12493200 -0.07602800
v -0.02538100 -0.12493200 -0.07602800
v -0.02538100 -0.12563200 -0.07602800
v -0.02538100 -0.12563200 -0.07602800
v -0.02538100 -0.12563200 -0.07602800
v -0.02250500 -0.12493100 -0.07911900
v -0.02250500 -0.12493100 -0.07911900
v -0.02250500 -0.12493100 -0.07911900
v -0.02538100 -0.12493100 -0.07602800
v -0.02538100 -0.12493100 -0.07602800
v -0.02538100 -0.12493100 -0.07602800
v -0.02810000 -0.12493100 -0.07891800
v -0.02810000 -0.12493100 -0.07891800
v -0.02810000 -0.12493100 -0.07891800
v -0.02219600 -0.12493100 -0.07054000
v -0.02219600 -0.12493100 -0.07054000
v -0.02219600 -0.12493100 -0.07054000
v -0.02517900 -0.12493100 -0.07043300
v -0.02517900 -0.12493100 -0.07043300
v -0.02517900 -0.12493100 -0.07043300
v -0.02250500 -0.12563200 -0.07911900
v -0.02250500 -0.12563200 -0.07911900
v -0.02250500 -0.12563200 -0.07911900
v -0.02538100 -0.12563200 -0.07602800
v -0.02538100 -0.12563200 -0.07602800
v -0.02538100 -0.12563200 -0.07602800
v -0.02810000 -0.12563200 -0.07891800
v -0.02810000 -0.12563200 -0.07891800
v -0.02810000 -0.12563200 -0.07891800
v -0.02219600 -0.12563200 -0.07054000
v -0.02219600 -0.12563200 -0.07054000
v -0.02219600 -0.12563200 -0.07054000
v -0.02517900 -0.12563200 -0.07043300
v -0.02517900 -0.12563200 -0.07043300
v -0.02517900 -0.12563200 -0.07043300
v -0.02538000 -0.12493200 -0.07602800
v -0.02538000 -0.12493200 -0.07602800
v -0.02538000 -0.12493200 -0.07602800
v -0.02538000 -0.12563200 -0.07602800
v -0.02538000 -0.12563200 -0.07602800
v -0.02538000 -0.12563200 -0.07602800
v -0.02810000 -0.12493200 -0.07891800
v -0.02810000 -0.12493200 -0.07891800
v -0.02810000 -0.12493200 -0.07891800
v -0.02810000 -0.12563200 -0.07891800
v -0.02810000 -0.12563200 -0.07891800
v -0.02810000 -0.12563200 -0.07891800
v -0.02810000 -0.12493200 -0.07891700
v -0.02810000 -0.12493200 -0.07891700
v -0.02810000 -0.12493200 -0.07891700
v -0.02810000 -0.12563200 -0.07891700
v -0.02810000 -0.12563200 -0.07891700
v -0.02810000 -0.12563200 -0.07891700
v -0.02250500 -0.12493200 -0.07911900
v -0.02250500 -0.12493200 -0.07911900
v -0.02250500 -0.12493200 -0.07911900
v -0.02250500 -0.12563200 -0.07911900
v -0.02250500 -0.12563200 -0.07911900
v -0.02250500 -0.12563200 -0.07911900
v -0.02250600 -0.12493200 -0.07911900
v -0.02250600 -0.12493200 -0.07911900
v -0.02250600 -0.12493200 -0.07911900
v -0.02250600 -0.12563200 -0.07911900
v -0.02250600 -0.12563200 -0.07911900
v -0.02250600 -0.12563200 -0.07911900
v -0.02219700 -0.12493200 -0.07054000
v -0.02219700 -0.12493200 -0.07054000
v -0.02219700 -0.12493200 -0.07054000
v -0.02219700 -0.12563200 -0.07054000
v -0.02219700 -0.12563200 -0.07054000
v -0.02219700 -0.12563200 -0.07054000
v -0.02219600 -0.12493200 -0.07054100
v -0.02219600 -0.12493200 -0.07054100
v -0.02219600 -0.12493200 -0.07054100
v -0.02219600 -0.12563200 -0.07054100
v -0.02219600 -0.12563200 -0.07054100
v -0.02219600 -0.12563200 -0.07054100
v -0.02517900 -0.12493200 -0.07043300
v -0.02517900 -0.12493200 -0.07043300
v -0.02517900 -0.12493200 -0.07043300
v -0.02517900 -0.12563200 -0.07043300
v -0.02517900 -0.12563200 -0.07043300
v -0.02517900 -0.12563200 -0.07043300
v -0.02517900 -0.12493200 -0.07043300
v -0.02517900 -0.12493200 -0.07043300
v -0.02517900 -0.12493200 -0.07043300
v -0.02517900 -0.12563200 -0.07043300
v -0.02517900 -0.12563200 -0.07043300
v -0.02517900 -0.12563200 -0.07043300
v -0.02538000 -0.12493200 -0.07602800
v -0.02538000 -0.12493200 -0.07602800
v -0.02538000 -0.12493200 -0.07602800
v -0.02538000 -0.12563200 -0.07602800
v -0.02538000 -0.12563200 -0.07602800
v -0.02538000 -0.12563200 -0.07602800
v -0.02250500 -0.12493200 -0.07911900
v -0.02250500 -0.12493200 -0.07911900
v -0.02250500 -0.12493200 -0.07911900
v -0.02538100 -0.12493200 -0.07602800
v -0.02538100 -0.12493200 -0.07602800
v -0.02538100 -0.12493200 -0.07602800
v -0.02810000 -0.12493200 -0.07891800
v -0.02810000 -0.12493200 -0.07891800
v -0.02810000 -0.12493200 -0.07891800
v -0.02219600 -0.12493200 -0.07054000
v -0.02219600 -0.12493200 -0.07054000
v -0.02219600 -0.12493200 -0.07054000
v -0.02517900 -0.12493200 -0.07043300
v -0.02517900 -0.12493200 -0.07043300
v -0.02517900 -0.12493200 -0.07043300
v -0.02250500 -0.12563100 -0.07911900
v -0.02250500 -0.12563100 -0.07911900
v -0.02250500 -0.12563100 -0.07911900
v -0.02538100 -0.12563100 -0.07602800
v -0.02538100 -0.12563100 -0.07602800
v -0.02538100 -0.12563100 -0.07602800
v -0.02810000 -0.12563100 -0.07891800
v -0.02810000 -0.12563100 -0.07891800
v -0.02810000 -0.12563100 -0.07891800
v -0.02219600 -0.12563100 -0.07054000
v -0.02219600 -0.12563100 -0.07054000
v -0.02219600 -0.12563100 -0.07054000
v -0.02517900 -0.12563100 -0.07043300
v -0.02517900 -0.12563100 -0.07043300
v -0.02517900 -0.12563100 -0.07043300
vn -0.72830000 0.00000000 0.68530000
vn 0.68570000 0.00000000 0.72790000
vn 0.00000000 1.00000000 0.00000000
vn -0.72830000 0.00000000 0.68530000
vn 0.00000000 -1.00000000 0.00000000
vn 0.68570000 0.00000000 0.72790000
vn -0.72830000 0.00000000 0.68530000
vn -0.68290000 0.00000000 -0.73050000
vn 0.00000000 1.00000000 0.00000000
vn 0.00000000 -1.00000000 0.00000000
vn -0.72830000 0.00000000 0.68530000
vn -0.68290000 0.00000000 -0.73050000
vn -0.03600000 0.00000000 -0.99940000
vn 0.00000000 1.00000000 0.00000000
vn -0.99940000 0.00000000 0.03380000
vn -0.99940000 0.00000000 0.03380000
vn -0.03600000 0.00000000 -0.99940000
vn 0.00000000 -1.00000000 0.00000000
vn 0.99940000 0.00000000 -0.03390000
vn 0.00000000 1.00000000 0.00000000
vn -0.03600000 0.00000000 -0.99940000
vn 0.99940000 0.00000000 -0.03390000
vn 0.00000000 -1.00000000 0.00000000
vn -0.03600000 0.00000000 -0.99940000
vn -0.03120000 0.00000000 -0.99950000
vn 0.99940000 0.00000000 -0.03600000
vn 0.00000000 1.00000000 0.00000000
vn 0.00000000 -1.00000000 0.00040000
vn 0.99940000 0.00000000 -0.03600000
vn -0.03120000 0.00000000 -0.99950000
vn 0.00000000 1.00000000 0.00000000
vn 0.99940000 0.00000000 -0.03600000
vn 0.04160000 0.00000000 0.99910000
vn 0.00000000 -1.00000000 0.00040000
vn 0.04160000 0.00000000 0.99910000
vn 0.99940000 0.00000000 -0.03600000
vn 0.00000000 1.00000000 0.00000000
vn 0.99940000 0.00000000 -0.03390000
vn 0.03600000 0.00000000 0.99940000
vn 0.00000000 -1.00000000 0.00000000
vn 0.03600000 0.00000000 0.99940000
vn 0.99940000 0.00000000 -0.03390000
vn 0.00000000 1.00000000 0.00000000
vn 0.03600000 0.00000000 0.99940000
vn -0.99940000 0.00000000 0.03390000
vn 0.03600000 0.00000000 0.99940000
vn 0.00000000 -1.00000000 0.00000000
vn -0.99940000 0.00000000 0.03390000
vn -0.99940000 0.00000000 0.03600000
vn 0.03120000 0.00000000 0.99950000
vn 0.00000000 1.00000000 0.00000000
vn 0.03120000 0.00000000 0.99950000
vn 0.00000000 -1.00000000 -0.00030000
vn -0.99940000 0.00000000 0.03600000
vn -0.02600000 0.00000000 -0.99970000
vn 0.00000000 1.00000000 0.00000000
vn -0.99940000 0.00000000 0.03600000
vn 0.00000000 -1.00000000 -0.00030000
vn -0.99940000 0.00000000 0.03600000
vn -0.02600000 0.00000000 -0.99970000
vn -0.03630000 0.00000000 -0.99930000
vn 0.00000000 1.00000000 0.00000000
vn 0.99930000 0.00000000 -0.03620000
vn 0.00000000 1.00000000 0.00000000
vn -0.72820000 0.00000000 0.68540000
vn -0.99940000 0.00000000 0.03590000
vn -0.72820000 0.00000000 0.68540000
vn 0.00000000 1.00000000 0.00000000
vn -0.03630000 0.00000000 -0.99930000
vn 0.99930000 0.00000000 -0.03620000
vn 0.00000000 1.00000000 0.00000000
vn 0.03600000 0.00000000 0.99940000
vn -0.99940000 0.00000000 0.03590000
vn 0.00000000 1.00000000 0.00000000
vn 0.03600000 0.00000000 0.99940000
vn 0.99940000 0.00000000 -0.03600000
vn 0.00000000 -1.00000000 0.00000000
vn -0.03580000 0.00000000 -0.99940000
vn -0.73070000 0.00000000 0.68270000
vn 0.00000000 -1.00000000 0.00000000
vn -0.99940000 0.00000000 0.03590000
vn -0.73070000 0.00000000 0.68270000
vn 0.00000000 -1.00000000 0.00000000
vn -0.03580000 0.00000000 -0.99940000
vn 0.03600000 0.00000000 0.99940000
vn 0.00000000 -1.00000000 0.00000000
vn 0.99940000 0.00000000 -0.03600000
vn 0.03600000 0.00000000 0.99940000
vn 0.00000000 -1.00000000 0.00000000
vn -0.99940000 0.00000000 0.03590000
vn 0.00000000 1.00000000 0.00000000
vn 0.68570000 0.00000000 0.72790000
vn 0.72830000 0.00000000 -0.68530000
vn 0.68570000 0.00000000 0.72790000
vn 0.72830000 0.00000000 -0.68530000
vn 0.00000000 -1.00000000 0.00000000
vn 0.00000000 1.00000000 0.00000000
vn -0.68290000 0.00000000 -0.73050000
vn 0.72830000 0.00000000 -0.68530000
vn 0.00000000 -1.00000000 0.00000000
vn -0.68290000 0.00000000 -0.73050000
vn 0.72830000 0.00000000 -0.68530000
vn 0.03600000 0.00000000 0.99940000
vn 0.00000000 1.00000000 0.00000000
vn -0.99940000 0.00000000 0.03380000
vn 0.03600000 0.00000000 0.99940000
vn 0.00000000 -1.00000000 0.00000000
vn -0.99940000 0.00000000 0.03380000
vn 0.00000000 1.00000000 0.00000000
vn 0.99940000 0.00000000 -0.03390000
vn 0.03600000 0.00000000 0.99940000
vn 0.03600000 0.00000000 0.99940000
vn 0.00000000 -1.00000000 0.00000000
vn 0.99940000 0.00000000 -0.03390000
vn -0.03120000 0.00000000 -0.99950000
vn -0.99940000 0.00000000 0.03600000
vn 0.00000000 1.00000000 0.00000000
vn 0.00000000 -1.00000000 0.00040000
vn -0.99940000 0.00000000 0.03600000
vn -0.03120000 0.00000000 -0.99950000
vn -0.99940000 0.00000000 0.03600000
vn 0.00000000 1.00000000 0.00000000
vn 0.04160000 0.00000000 0.99910000
vn 0.04160000 0.00000000 0.99910000
vn 0.00000000 -1.00000000 0.00040000
vn -0.99940000 0.00000000 0.03600000
vn -0.03600000 0.00000000 -0.99940000
vn 0.99940000 0.00000000 -0.03390000
vn 0.00000000 1.00000000 0.00000000
vn -0.03600000 0.00000000 -0.99940000
vn 0.99940000 0.00000000 -0.03390000
vn 0.00000000 -1.00000000 0.00000000
vn -0.99940000 0.00000000 0.03390000
vn 0.00000000 1.00000000 0.00000000
vn -0.03600000 0.00000000 -0.99940000
vn -0.99940000 0.00000000 0.03390000
vn 0.00000000 -1.00000000 0.00000000
vn -0.03600000 0.00000000 -0.99940000
vn 0.03120000 0.00000000 0.99950000
vn 0.00000000 1.00000000 0.00000000
vn 0.99940000 0.00000000 -0.03600000
vn 0.99940000 0.00000000 -0.03600000
vn 0.00000000 -1.00000000 -0.00030000
vn 0.03120000 0.00000000 0.99950000
vn -0.02600000 0.00000000 -0.99970000
vn 0.00000000 1.00000000 0.00000000
vn 0.99940000 0.00000000 -0.03600000
vn -0.02600000 0.00000000 -0.99970000
vn 0.00000000 -1.00000000 -0.00030000
vn 0.99940000 0.00000000 -0.03600000
vn -0.03630000 0.00000000 -0.99930000
vn 0.00000000 -1.00000000 0.00000000
vn 0.99930000 0.00000000 -0.03620000
vn 0.00000000 -1.00000000 0.00000000
vn -0.72820000 0.00000000 0.68540000
vn -0.99940000 0.00000000 0.03590000
vn -0.72820000 0.00000000 0.68540000
vn -0.03630000 0.00000000 -0.99930000
vn 0.00000000 -1.00000000 0.00000000
vn 0.99930000 0.00000000 -0.03620000
vn 0.03600000 0.00000000 0.99940000
vn 0.00000000 -1.00000000 0.00000000
vn 0.03600000 0.00000000 0.99940000
vn -0.99940000 0.00000000 0.03590000
vn 0.00000000 -1.00000000 0.00000000
vn 0.99940000 0.00000000 -0.03600000
vn -0.03580000 0.00000000 -0.99940000
vn 0.00000000 1.00000000 0.00000000
vn 0.00000000 1.00000000 0.00000000
vn -0.73070000 0.00000000 0.68270000
vn -0.99940000 0.00000000 0.03590000
vn -0.73070000 0.00000000 0.68270000
vn -0.03580000 0.00000000 -0.99940000
vn 0.00000000 1.00000000 0.00000000
vn 0.99940000 0.00000000 -0.03600000
vn 0.03600000 0.00000000 0.99940000
vn 0.00000000 1.00000000 0.00000000
vn 0.00000000 1.00000000 0.00000000
vn 0.03600000 0.00000000 0.99940000
vn -0.99940000 0.00000000 0.03590000
vt 0.10967700 0.00000000
vt 0.10967700 0.00000000
vt 0.10967700 0.00000000
vt 0.05557100 0.00000000
vt 0.05557100 0.00000000
vt 0.05557100 0.00000000
vt 0.10967700 0.31501300
vt 0.10967700 0.31501300
vt 0.10967700 0.31501300
vt 0.05557100 0.31501300
vt 0.05557100 0.31501300
vt 0.05557100 0.31501300
vt 0.16671300 0.00000000
vt 0.16671300 0.00000000
vt 0.16671300 0.00000000
vt 0.16671300 0.05410600
vt 0.16671300 0.05410600
vt 0.16671300 0.05410600
vt 0.61114200 0.00000000
vt 0.61114200 0.00000000
vt 0.61114200 0.00000000
vt 0.61114200 0.05410600
vt 0.61114200 0.05410600
vt 0.61114200 0.05410600
vt 0.16524800 0.00000000
vt 0.16524800 0.00000000
vt 0.16524800 0.00000000
vt 0.11114200 0.00000000
vt 0.11114200 0.00000000
vt 0.11114200 0.00000000
vt 0.16524800 0.68150100
vt 0.16524800 0.68150100
vt 0.16524800 0.68150100
vt 0.11114200 0.68150100
vt 0.11114200 0.68150100
vt 0.11114200 0.68150100
vt 0.05410600 0.00000000
vt 0.05410600 0.00000000
vt 0.05410600 0.00000000
vt 0.00000000 0.00000000
vt 0.00000000 0.00000000
vt 0.00000000 0.00000000
vt 0.05410600 0.23696000
vt 0.05410600 0.23696000
vt 0.05410600 0.23696000
vt 0.00000000 0.23696000
vt 0.00000000 0.23696000
vt 0.00000000 0.23696000
vt 0.16671300 0.05557100
vt 0.16671300 0.05557100
vt 0.16671300 0.05557100
vt 0.16671300 0.10967700
vt 0.16671300 0.10967700
vt 0.16671300 0.10967700
vt 0.61117000 0.05557100
vt 0.61117000 0.05557100
vt 0.61117000 0.05557100
vt 0.61117000 0.10967700
vt 0.61117000 0.10967700
vt 0.61117000 0.10967700
vt 0.16671300 0.55557100
vt 0.16671300 0.55557100
vt 0.16671300 0.55557100
vt 0.40324700 0.79175000
vt 0.40324700 0.79175000
vt 0.40324700 0.79175000
vt 0.16671300 0.99853500
vt 0.16671300 0.99853500
vt 0.16671300 0.99853500
vt 0.84674900 0.55557100
vt 0.84674900 0.55557100
vt 0.84674900 0.55557100
vt 0.84674900 0.79175000
vt 0.84674900 0.79175000
vt 0.84674900 0.79175000
vt 0.16671300 0.11114200
vt 0.16671300 0.11114200
vt 0.16671300 0.11114200
vt 0.40324700 0.34732000
vt 0.40324700 0.34732000
vt 0.40324700 0.34732000
vt 0.16671300 0.55410600
vt 0.16671300 0.55410600
vt 0.16671300 0.55410600
vt 0.84674900 0.11114200
vt 0.84674900 0.11114200
vt 0.84674900 0.11114200
vt 0.84674900 0.34732000
vt 0.84674900 0.34732000
vt 0.84674900 0.34732000
vt 0.10967700 0.00000000
vt 0.10967700 0.00000000
vt 0.10967700 0.00000000
vt 0.05557100 0.00000000
vt 0.05557100 0.00000000
vt 0.05557100 0.00000000
vt 0.10967700 0.31501300
vt 0.10967700 0.31501300
vt 0.10967700 0.31501300
vt 0.05557100 0.31501300
vt 0.05557100 0.31501300
vt 0.05557100 0.31501300
vt 0.16671300 0.00000000
vt 0.16671300 0.00000000
vt 0.16671300 0.00000000
vt 0.16671300 0.05410600
vt 0.16671300 0.05410600
vt 0.16671300 0.05410600
vt 0.61114200 0.00000000
vt 0.61114200 0.00000000
vt 0.61114200 0.00000000
vt 0.61114200 0.05410600
vt 0.61114200 0.05410600
vt 0.61114200 0.05410600
vt 0.16524800 0.00000000
vt 0.16524800 0.00000000
vt 0.16524800 0.00000000
vt 0.11114200 0.00000000
vt 0.11114200 0.00000000
vt 0.11114200 0.00000000
vt 0.16524800 0.68150100
vt 0.16524800 0.68150100
vt 0.16524800 0.68150100
vt 0.11114200 0.68150100
vt 0.11114200 0.68150100
vt 0.11114200 0.68150100
vt 0.05410600 0.00000000
vt 0.05410600 0.00000000
vt 0.05410600 0.00000000
vt 0.00000000 0.00000000
vt 0.00000000 0.00000000
vt 0.00000000 0.00000000
vt 0.05410600 0.23696000
vt 0.05410600 0.23696000
vt 0.05410600 0.23696000
vt 0.00000000 0.23696000
vt 0.00000000 0.23696000
vt 0.00000000 0.23696000
vt 0.16671300 0.05557100
vt 0.16671300 0.05557100
vt 0.16671300 0.05557100
vt 0.16671300 0.10967700
vt 0.16671300 0.10967700
vt 0.16671300 0.10967700
vt 0.61117000 0.05557100
vt 0.61117000 0.05557100
vt 0.61117000 0.05557100
vt 0.61117000 0.10967700
vt 0.61117000 0.10967700
vt 0.61117000 0.10967700
vt 0.16671300 0.55557100
vt 0.16671300 0.55557100
vt 0.16671300 0.55557100
vt 0.40324700 0.79175000
vt 0.40324700 0.79175000
vt 0.40324700 0.79175000
vt 0.16671300 0.99853500
vt 0.16671300 0.99853500
vt 0.16671300 0.99853500
vt 0.84674900 0.55557100
vt 0.84674900 0.55557100
vt 0.84674900 0.55557100
vt 0.84674900 0.79175000
vt 0.84674900 0.79175000
vt 0.84674900 0.79175000
vt 0.16671300 0.11114200
vt 0.16671300 0.11114200
vt 0.16671300 0.11114200
vt 0.40324700 0.34732000
vt 0.40324700 0.34732000
vt 0.40324700 0.34732000
vt 0.16671300 0.55410600
vt 0.16671300 0.55410600
vt 0.16671300 0.55410600
vt 0.84674900 0.11114200
vt 0.84674900 0.11114200
vt 0.84674900 0.11114200
vt 0.84674900 0.34732000
vt 0.84674900 0.34732000
vt 0.84674900 0.34732000
f 4/4/4 1/1/1 7/7/7
f 17/17/17 13/13/13 21/21/21
f 29/29/29 26/26/26 32/32/32
f 41/41/41 39/39/39 44/44/44
f 54/54/54 49/49/49 57/57/57
f 64/64/64 62/62/62 68/68/68
f 74/74/74 71/71/71 64/64/64
f 62/62/62 64/64/64 71/71/71
f 80/80/80 83/83/83 77/77/77
f 89/89/89 80/80/80 86/86/86
f 77/77/77 86/86/86 80/80/80
f 4/4/4 7/7/7 11/11/11
f 17/17/17 21/21/21 24/24/24
f 29/29/29 32/32/32 36/36/36
f 41/41/41 44/44/44 46/46/46
f 54/54/54 57/57/57 59/59/59
f 95/95/95 99/99/99 93/93/93
f 106/106/106 111/111/111 103/103/103
f 119/119/119 121/121/121 116/116/116
f 130/130/130 135/135/135 127/127/127
f 142/142/142 147/147/147 141/141/141
f 154/154/154 159/159/159 152/152/152
f 165/165/165 154/154/154 162/162/162
f 152/152/152 162/162/162 154/154/154
f 169/169/169 168/168/168 174/174/174
f 178/178/178 177/177/177 169/169/169
f 168/168/168 169/169/169 177/177/177
f 95/95/95 102/102/102 99/99/99
f 106/106/106 112/112/112 111/111/111
f 119/119/119 126/126/126 121/121/121
f 130/130/130 138/138/138 135/135/135
f 142/142/142 150/150/150 147/147/147
f 28/28/28 34/34/34 125/125/125
f 125/125/125 118/118/118 28/28/28
f 2/2/2 6/6/6 94/94/94
f 94/94/94 92/92/92 2/2/2
f 5/5/5 10/10/10 100/100/100
f 100/100/100 96/96/96 5/5/5
f 15/15/15 16/16/16 108/108/108
f 108/108/108 105/105/105 15/15/15
f 18/18/18 23/23/23 113/113/113
f 113/113/113 107/107/107 18/18/18
f 35/35/35 33/33/33 123/123/123
f 123/123/123 124/124/124 35/35/35
f 25/25/25 30/30/30 120/120/120
f 120/120/120 115/115/115 25/25/25
f 9/9/9 3/3/3 91/91/91
f 91/91/91 97/97/97 9/9/9
f 38/38/38 42/42/42 131/131/131
f 131/131/131 128/128/128 38/38/38
f 40/40/40 47/47/47 137/137/137
f 137/137/137 132/132/132 40/40/40
f 50/50/50 52/52/52 144/144/144
f 144/144/144 139/139/139 50/50/50
f 53/53/53 58/58/58 149/149/149
f 149/149/149 143/143/143 53/53/53
f 69/69/69 61/61/61 151/151/151
f 151/151/151 158/158/158 69/69/69
f 63/63/63 70/70/70 160/160/160
f 160/160/160 153/153/153 63/63/63
f 73/73/73 66/66/66 156/156/156
f 156/156/156 164/164/164 73/73/73
f 78/78/78 84/84/84 173/173/173
f 173/173/173 167/167/167 78/78/78
f 88/88/88 85/85/85 176/176/176
f 176/176/176 179/179/179 88/88/88
f 12/12/12 8/8/8 98/98/98
f 98/98/98 101/101/101 12/12/12
f 43/43/43 37/37/37 129/129/129
f 129/129/129 134/134/134 43/43/43
f 72/72/72 75/75/75 163/163/163
f 163/163/163 161/161/161 72/72/72
f 48/48/48 45/45/45 133/133/133
f 133/133/133 136/136/136 48/48/48
f 20/20/20 14/14/14 104/104/104
f 104/104/104 109/109/109 20/20/20
f 22/22/22 19/19/19 110/110/110
f 110/110/110 114/114/114 22/22/22
f 87/87/87 76/76/76 166/166/166
f 166/166/166 175/175/175 87/87/87
f 82/82/82 79/79/79 170/170/170
f 170/170/170 172/172/172 82/82/82
f 56/56/56 51/51/51 140/140/140
f 140/140/140 146/146/146 56/56/56
f 81/81/81 90/90/90 180/180/180
f 180/180/180 171/171/171 81/81/81
f 60/60/60 55/55/55 145/145/145
f 145/145/145 148/148/148 60/60/60
f 31/31/31 27/27/27 117/117/117
f 117/117/117 122/122/122 31/31/31
f 65/65/65 67/67/67 157/157/157
f 157/157/157 155/155/155 65/65/65

