mtllib material.mtl
usemtl Material-7011油漆.014
v -0.02538100 -0.12493200 -0.07602800
v -0.02538100 -0.12493200 -0.07602800
v -0.02538100 -0.12493200 -0.07602800
v -0.02538100 -0.12493200 -0.07602800
v -0.02538100 -0.12563200 -0.07602800
v -0.02538100 -0.12563200 -0.07602800
v -0.02538100 -0.12563200 -0.07602800
v -0.02810000 -0.12493200 -0.07891800
v -0.02810000 -0.12493200 -0.07891800
v -0.02810000 -0.12493200 -0.07891800
v -0.02810000 -0.12563200 -0.07891800
v -0.02810000 -0.12563200 -0.07891800
v -0.02810000 -0.12563200 -0.07891800
v -0.02674100 -0.12493200 -0.07747300
v -0.02674100 -0.12493200 -0.07747300
v -0.02674100 -0.12563200 -0.07747300
v -0.02674100 -0.12563200 -0.07747300
v -0.02674100 -0.12563200 -0.07747300
v -0.02810000 -0.12493200 -0.07891800
v -0.02810000 -0.12493200 -0.07891800
v -0.02810000 -0.12493200 -0.07891800
v -0.02810000 -0.12563200 -0.07891800
v -0.02810000 -0.12563200 -0.07891800
v -0.02810000 -0.12563200 -0.07891800
v -0.02250500 -0.12493200 -0.07912000
v -0.02250500 -0.12493200 -0.07912000
v -0.02250500 -0.12493200 -0.07912000
v -0.02250500 -0.12563200 -0.07912000
v -0.02250500 -0.12563200 -0.07912000
v -0.02250500 -0.12563200 -0.07912000
v -0.02623500 -0.12493200 -0.07898600
v -0.02623500 -0.12493200 -0.07898600
v -0.02437000 -0.12493200 -0.07905300
v -0.02437000 -0.12493200 -0.07905300
v -0.02437000 -0.12563200 -0.07905300
v -0.02437000 -0.12563200 -0.07905300
v -0.02437000 -0.12563200 -0.07905300
v -0.02623500 -0.12563200 -0.07898600
v -0.02623500 -0.12563200 -0.07898600
v -0.02623500 -0.12563200 -0.07898600
v -0.02250500 -0.12493200 -0.07911900
v -0.02250500 -0.12493200 -0.07911900
v -0.02250500 -0.12493200 -0.07911900
v -0.02250500 -0.12563200 -0.07911900
v -0.02250500 -0.12563200 -0.07911900
v -0.02250500 -0.12563200 -0.07911900
v -0.02219600 -0.12493200 -0.07054000
v -0.02219600 -0.12493200 -0.07054000
v -0.02219600 -0.12493200 -0.07054000
v -0.02219600 -0.12563200 -0.07054000
v -0.02219600 -0.12563200 -0.07054000
v -0.02219600 -0.12563200 -0.07054000
v -0.02242800 -0.12493200 -0.07697500
v -0.02242800 -0.12493200 -0.07697500
v -0.02235000 -0.12493200 -0.07483000
v -0.02235000 -0.12493200 -0.07483000
v -0.02227300 -0.12493200 -0.07268500
v -0.02227300 -0.12493200 -0.07268500
v -0.02227300 -0.12563200 -0.07268500
v -0.02227300 -0.12563200 -0.07268500
v -0.02235000 -0.12563200 -0.07483000
v -0.02235000 -0.12563200 -0.07483000
v -0.02242800 -0.12563200 -0.07697500
v -0.02242800 -0.12563200 -0.07697500
v -0.02242800 -0.12563200 -0.07697500
v -0.02219600 -0.12493200 -0.07054000
v -0.02219600 -0.12493200 -0.07054000
v -0.02219600 -0.12493200 -0.07054000
v -0.02219600 -0.12563200 -0.07054000
v -0.02219600 -0.12563200 -0.07054000
v -0.02219600 -0.12563200 -0.07054000
v -0.02517900 -0.12493200 -0.07043200
v -0.02517900 -0.12493200 -0.07043200
v -0.02517900 -0.12493200 -0.07043200
v -0.02517900 -0.12563200 -0.07043200
v -0.02517900 -0.12563200 -0.07043200
v -0.02517900 -0.12563200 -0.07043200
v -0.02368800 -0.12563200 -0.07048600
v -0.02368800 -0.12563200 -0.07048600
v -0.02368800 -0.12493200 -0.07048600
v -0.02368800 -0.12493200 -0.07048600
v -0.02518000 -0.12493200 -0.07043300
v -0.02518000 -0.12493200 -0.07043300
v -0.02518000 -0.12493200 -0.07043300
v -0.02518000 -0.12563200 -0.07043300
v -0.02518000 -0.12563200 -0.07043300
v -0.02518000 -0.12563200 -0.07043300
v -0.02538100 -0.12493200 -0.07602800
v -0.02538100 -0.12493200 -0.07602800
v -0.02538100 -0.12493200 -0.07602800
v -0.02538100 -0.12563200 -0.07602800
v -0.02538100 -0.12563200 -0.07602800
v -0.02538100 -0.12563200 -0.07602800
v -0.02524700 -0.12493200 -0.07229800
v -0.02524700 -0.12493200 -0.07229800
v -0.02531400 -0.12493200 -0.07416300
v -0.02531400 -0.12493200 -0.07416300
v -0.02531400 -0.12563200 -0.07416300
v -0.02531400 -0.12563200 -0.07416300
v -0.02531400 -0.12563200 -0.07416300
v -0.02524700 -0.12563200 -0.07229800
v -0.02524700 -0.12563200 -0.07229800
v -0.02250500 -0.12493100 -0.07911900
v -0.02250500 -0.12493100 -0.07911900
v -0.02250500 -0.12493100 -0.07911900
v -0.02538100 -0.12493100 -0.07602800
v -0.02538100 -0.12493100 -0.07602800
v -0.02538100 -0.12493100 -0.07602800
v -0.02674000 -0.12493100 -0.07747300
v -0.02674000 -0.12493100 -0.07747300
v -0.02810000 -0.12493100 -0.07891800
v -0.02810000 -0.12493100 -0.07891800
v -0.02810000 -0.12493100 -0.07891800
v -0.02623500 -0.12493100 -0.07898500
v -0.02623500 -0.12493100 -0.07898500
v -0.02437000 -0.12493100 -0.07905200
v -0.02437000 -0.12493100 -0.07905200
v -0.02242800 -0.12493100 -0.07697500
v -0.02242800 -0.12493100 -0.07697500
v -0.02235100 -0.12493100 -0.07483000
v -0.02235100 -0.12493100 -0.07483000
v -0.02227400 -0.12493100 -0.07268500
v -0.02227400 -0.12493100 -0.07268500
v -0.02219600 -0.12493100 -0.07054000
v -0.02219600 -0.12493100 -0.07054000
v -0.02219600 -0.12493100 -0.07054000
v -0.02368800 -0.12493100 -0.07048700
v -0.02368800 -0.12493100 -0.07048700
v -0.02517900 -0.12493100 -0.07043300
v -0.02517900 -0.12493100 -0.07043300
v -0.02517900 -0.12493100 -0.07043300
v -0.02524600 -0.12493100 -0.07229800
v -0.02524600 -0.12493100 -0.07229800
v -0.02524600 -0.12493100 -0.07229800
v -0.02531400 -0.12493100 -0.07416300
v -0.02531400 -0.12493100 -0.07416300
v -0.02250500 -0.12563200 -0.07911900
v -0.02250500 -0.12563200 -0.07911900
v -0.02250500 -0.12563200 -0.07911900
v -0.02538100 -0.12563200 -0.07602800
v -0.02538100 -0.12563200 -0.07602800
v -0.02538100 -0.12563200 -0.07602800
v -0.02674000 -0.12563200 -0.07747300
v -0.02674000 -0.12563200 -0.07747300
v -0.02810000 -0.12563200 -0.07891800
v -0.02810000 -0.12563200 -0.07891800
v -0.02810000 -0.12563200 -0.07891800
v -0.02623500 -0.12563200 -0.07898500
v -0.02623500 -0.12563200 -0.07898500
v -0.02437000 -0.12563200 -0.07905200
v -0.02437000 -0.12563200 -0.07905200
v -0.02437000 -0.12563200 -0.07905200
v -0.02242800 -0.12563200 -0.07697500
v -0.02242800 -0.12563200 -0.07697500
v -0.02235100 -0.12563200 -0.07483000
v -0.02235100 -0.12563200 -0.07483000
v -0.02227400 -0.12563200 -0.07268500
v -0.02227400 -0.12563200 -0.07268500
v -0.02219600 -0.12563200 -0.07054000
v -0.02219600 -0.12563200 -0.07054000
v -0.02219600 -0.12563200 -0.07054000
v -0.02368800 -0.12563200 -0.07048700
v -0.02368800 -0.12563200 -0.07048700
v -0.02517900 -0.12563200 -0.07043300
v -0.02517900 -0.12563200 -0.07043300
v -0.02517900 -0.12563200 -0.07043300
v -0.02524600 -0.12563200 -0.07229800
v -0.02524600 -0.12563200 -0.07229800
v -0.02531400 -0.12563200 -0.07416300
v -0.02531400 -0.12563200 -0.07416300
v -0.02538000 -0.12493200 -0.07602800
v -0.02538000 -0.12493200 -0.07602800
v -0.02538000 -0.12493200 -0.07602800
v -0.02538000 -0.12563200 -0.07602800
v -0.02538000 -0.12563200 -0.07602800
v -0.02538000 -0.12563200 -0.07602800
v -0.02810000 -0.12493200 -0.07891800
v -0.02810000 -0.12493200 -0.07891800
v -0.02810000 -0.12493200 -0.07891800
v -0.02810000 -0.12563200 -0.07891800
v -0.02810000 -0.12563200 -0.07891800
v -0.02810000 -0.12563200 -0.07891800
v -0.02674000 -0.12493200 -0.07747300
v -0.02674000 -0.12493200 -0.07747300
v -0.02674000 -0.12563200 -0.07747300
v -0.02674000 -0.12563200 -0.07747300
v -0.02810000 -0.12493200 -0.07891700
v -0.02810000 -0.12493200 -0.07891700
v -0.02810000 -0.12493200 -0.07891700
v -0.02810000 -0.12563200 -0.07891700
v -0.02810000 -0.12563200 -0.07891700
v -0.02810000 -0.12563200 -0.07891700
v -0.02250500 -0.12493200 -0.07911900
v -0.02250500 -0.12493200 -0.07911900
v -0.02250500 -0.12493200 -0.07911900
v -0.02250500 -0.12563200 -0.07911900
v -0.02250500 -0.12563200 -0.07911900
v -0.02250500 -0.12563200 -0.07911900
v -0.02623500 -0.12493200 -0.07898500
v -0.02623500 -0.12493200 -0.07898500
v -0.02437000 -0.12493200 -0.07905200
v -0.02437000 -0.12493200 -0.07905200
v -0.02437000 -0.12563200 -0.07905200
v -0.02437000 -0.12563200 -0.07905200
v -0.02437000 -0.12563200 -0.07905200
v -0.02623500 -0.12563200 -0.07898500
v -0.02623500 -0.12563200 -0.07898500
v -0.02623500 -0.12563200 -0.07898500
v -0.02250600 -0.12493200 -0.07911900
v -0.02250600 -0.12493200 -0.07911900
v -0.02250600 -0.12493200 -0.07911900
v -0.02250600 -0.12563200 -0.07911900
v -0.02250600 -0.12563200 -0.07911900
v -0.02250600 -0.12563200 -0.07911900
v -0.02219700 -0.12493200 -0.07054000
v -0.02219700 -0.12493200 -0.07054000
v -0.02219700 -0.12493200 -0.07054000
v -0.02219700 -0.12563200 -0.07054000
v -0.02219700 -0.12563200 -0.07054000
v -0.02219700 -0.12563200 -0.07054000
v -0.02242900 -0.12493200 -0.07697500
v -0.02242900 -0.12493200 -0.07697500
v -0.02235100 -0.12493200 -0.07483000
v -0.02235100 -0.12493200 -0.07483000
v -0.02227400 -0.12493200 -0.07268500
v -0.02227400 -0.12493200 -0.07268500
v -0.02227400 -0.12563200 -0.07268500
v -0.02227400 -0.12563200 -0.07268500
v -0.02235100 -0.12563200 -0.07483000
v -0.02235100 -0.12563200 -0.07483000
v -0.02242900 -0.12563200 -0.07697500
v -0.02242900 -0.12563200 -0.07697500
v -0.02242900 -0.12563200 -0.07697500
v -0.02219600 -0.12493200 -0.07054100
v -0.02219600 -0.12493200 -0.07054100
v -0.02219600 -0.12493200 -0.07054100
v -0.02219600 -0.12563200 -0.07054100
v -0.02219600 -0.12563200 -0.07054100
v -0.02219600 -0.12563200 -0.07054100
v -0.02517900 -0.12493200 -0.07043300
v -0.02517900 -0.12493200 -0.07043300
v -0.02517900 -0.12493200 -0.07043300
v -0.02517900 -0.12563200 -0.07043300
v -0.02517900 -0.12563200 -0.07043300
v -0.02517900 -0.12563200 -0.07043300
v -0.02368800 -0.12563200 -0.07048700
v -0.02368800 -0.12563200 -0.07048700
v -0.02368800 -0.12493200 -0.07048700
v -0.02368800 -0.12493200 -0.07048700
v -0.02517900 -0.12493200 -0.07043300
v -0.02517900 -0.12493200 -0.07043300
v -0.02517900 -0.12493200 -0.07043300
v -0.02517900 -0.12563200 -0.07043300
v -0.02517900 -0.12563200 -0.07043300
v -0.02517900 -0.12563200 -0.07043300
v -0.02538000 -0.12493200 -0.07602800
v -0.02538000 -0.12493200 -0.07602800
v -0.02538000 -0.12493200 -0.07602800
v -0.02538000 -0.12563200 -0.07602800
v -0.02538000 -0.12563200 -0.07602800
v -0.02538000 -0.12563200 -0.07602800
v -0.02524600 -0.12493200 -0.07229800
v -0.02524600 -0.12493200 -0.07229800
v -0.02531300 -0.12493200 -0.07416300
v -0.02531300 -0.12493200 -0.07416300
v -0.02531300 -0.12563200 -0.07416300
v -0.02531300 -0.12563200 -0.07416300
v -0.02531300 -0.12563200 -0.07416300
v -0.02524600 -0.12563200 -0.07229800
v -0.02524600 -0.12563200 -0.07229800
v -0.02250500 -0.12493200 -0.07911900
v -0.02250500 -0.12493200 -0.07911900
v -0.02250500 -0.12493200 -0.07911900
v -0.02538100 -0.12493200 -0.07602800
v -0.02538100 -0.12493200 -0.07602800
v -0.02538100 -0.12493200 -0.07602800
v -0.02674000 -0.12493200 -0.07747300
v -0.02674000 -0.12493200 -0.07747300
v -0.02810000 -0.12493200 -0.07891800
v -0.02810000 -0.12493200 -0.07891800
v -0.02810000 -0.12493200 -0.07891800
v -0.02623500 -0.12493200 -0.07898500
v -0.02623500 -0.12493200 -0.07898500
v -0.02437000 -0.12493200 -0.07905200
v -0.02437000 -0.12493200 -0.07905200
v -0.02242800 -0.12493200 -0.07697500
v -0.02242800 -0.12493200 -0.07697500
v -0.02235100 -0.12493200 -0.07483000
v -0.02235100 -0.12493200 -0.07483000
v -0.02227400 -0.12493200 -0.07268500
v -0.02227400 -0.12493200 -0.07268500
v -0.02219600 -0.12493200 -0.07054000
v -0.02219600 -0.12493200 -0.07054000
v -0.02219600 -0.12493200 -0.07054000
v -0.02368800 -0.12493200 -0.07048700
v -0.02368800 -0.12493200 -0.07048700
v -0.02517900 -0.12493200 -0.07043300
v -0.02517900 -0.12493200 -0.07043300
v -0.02517900 -0.12493200 -0.07043300
v -0.02524600 -0.12493200 -0.07229800
v -0.02524600 -0.12493200 -0.07229800
v -0.02524600 -0.12493200 -0.07229800
v -0.02531400 -0.12493200 -0.07416300
v -0.02531400 -0.12493200 -0.07416300
v -0.02250500 -0.12563100 -0.07911900
v -0.02250500 -0.12563100 -0.07911900
v -0.02250500 -0.12563100 -0.07911900
v -0.02538100 -0.12563100 -0.07602800
v -0.02538100 -0.12563100 -0.07602800
v -0.02538100 -0.12563100 -0.07602800
v -0.02674000 -0.12563100 -0.07747300
v -0.02674000 -0.12563100 -0.07747300
v -0.02810000 -0.12563100 -0.07891800
v -0.02810000 -0.12563100 -0.07891800
v -0.02810000 -0.12563100 -0.07891800
v -0.02623500 -0.12563100 -0.07898500
v -0.02623500 -0.12563100 -0.07898500
v -0.02437000 -0.12563100 -0.07905200
v -0.02437000 -0.12563100 -0.07905200
v -0.02437000 -0.12563100 -0.07905200
v -0.02242800 -0.12563100 -0.07697500
v -0.02242800 -0.12563100 -0.07697500
v -0.02235100 -0.12563100 -0.07483000
v -0.02235100 -0.12563100 -0.07483000
v -0.02227400 -0.12563100 -0.07268500
v -0.02227400 -0.12563100 -0.07268500
v -0.02219600 -0.12563100 -0.07054000
v -0.02219600 -0.12563100 -0.07054000
v -0.02219600 -0.12563100 -0.07054000
v -0.02368800 -0.12563100 -0.07048700
v -0.02368800 -0.12563100 -0.07048700
v -0.02517900 -0.12563100 -0.07043300
v -0.02517900 -0.12563100 -0.07043300
v -0.02517900 -0.12563100 -0.07043300
v -0.02524600 -0.12563100 -0.07229800
v -0.02524600 -0.12563100 -0.07229800
v -0.02531400 -0.12563100 -0.07416300
v -0.02531400 -0.12563100 -0.07416300
vn -0.72830000 0.00000000 0.68530000
vn -0.72830000 0.00000000 0.68520000
vn 0.68570000 0.00000000 0.72790000
vn 0.00000000 1.00000000 0.00000000
vn 0.00000000 -1.00000000 -0.00000000
vn -0.72830000 0.00000000 0.68520000
vn 0.68570000 0.00000000 0.72790000
vn -0.72830000 0.00000000 0.68530000
vn -0.68570000 0.00000000 -0.72790000
vn 0.00000000 1.00000000 0.00000000
vn -0.72830000 0.00000000 0.68530000
vn -0.68570000 0.00000000 -0.72790000
vn 0.00000000 -1.00000000 -0.00000000
vn -0.72830000 0.00000000 0.68530000
vn 0.00000000 1.00000000 0.00000000
vn -0.72830000 0.00000000 0.68520000
vn 0.00000000 -1.00000000 -0.00000000
vn -0.72830000 0.00000000 0.68530000
vn -0.03600000 0.00000000 -0.99940000
vn 0.00000000 1.00000000 0.00000000
vn -0.99940000 0.00000000 0.03380000
vn -0.03600000 0.00000000 -0.99940000
vn 0.00000000 -1.00000000 -0.00000000
vn -0.99940000 0.00000000 0.03380000
vn 0.00000000 1.00000000 0.00000000
vn -0.03600000 0.00000000 -0.99940000
vn 0.99940000 0.00000000 -0.03390000
vn 0.00000000 -1.00000000 -0.00790000
vn -0.03600000 0.00000000 -0.99940000
vn 0.99940000 0.00000000 -0.03390000
vn 0.00000000 1.00000000 0.00000000
vn -0.03600000 0.00000000 -0.99940000
vn 0.00000000 1.00000000 0.00000000
vn -0.03600000 0.00000000 -0.99940000
vn 0.00000000 -1.00000000 0.00780000
vn -0.03600000 0.00000000 -0.99940000
vn 0.00000000 -1.00000000 -0.00790000
vn -0.03600000 0.00000000 -0.99940000
vn 0.00000000 -1.00000000 0.00780000
vn 0.00000000 -1.00000000 -0.00000000
vn -0.03120000 0.00000000 -0.99950000
vn 0.00000000 1.00000000 0.00000000
vn 0.99940000 0.00000000 -0.03600000
vn 0.00000000 -1.00000000 0.00040000
vn 0.99940000 0.00000000 -0.03600000
vn -0.03120000 0.00000000 -0.99950000
vn 0.03640000 0.00000000 0.99930000
vn 0.00000000 1.00000000 0.00000000
vn 0.99940000 0.00000000 -0.03600000
vn 0.00000000 -1.00000000 -0.00000000
vn 0.03640000 0.00000000 0.99930000
vn 0.99940000 0.00000000 -0.03600000
vn 0.99940000 0.00000000 -0.03600000
vn 0.00000000 1.00000000 0.00000000
vn 0.99940000 0.00000000 -0.03600000
vn 0.00000000 1.00000000 0.00000000
vn 0.99940000 0.00000000 -0.03600000
vn 0.00000000 1.00000000 0.00000000
vn 0.00000000 -1.00000000 -0.00000000
vn 0.99940000 0.00000000 -0.03600000
vn 0.99940000 0.00000000 -0.03600000
vn 0.00000000 -1.00000000 -0.00000000
vn 0.00000000 -1.00000000 -0.00000000
vn 0.00000000 -1.00000000 0.00040000
vn 0.99940000 0.00000000 -0.03600000
vn 0.99940000 0.00000000 -0.03380000
vn 0.00000000 1.00000000 0.00000000
vn 0.03600000 0.00000000 0.99940000
vn 0.99940000 0.00000000 -0.03380000
vn 0.00000000 -1.00000000 -0.00000000
vn 0.03600000 0.00000000 0.99940000
vn 0.03600000 0.00000000 0.99940000
vn 0.00000000 1.00000000 0.00000000
vn -0.99940000 0.00000000 0.03380000
vn -0.99940000 0.00000000 0.03380000
vn 0.00000000 -1.00000000 -0.00000000
vn 0.03600000 0.00000000 0.99940000
vn 0.00000000 -1.00000000 -0.00000000
vn 0.03600000 0.00000000 0.99940000
vn 0.03600000 0.00000000 0.99940000
vn 0.00000000 1.00000000 0.00000000
vn 0.03120000 0.00000000 0.99950000
vn -0.99940000 0.00000000 0.03600000
vn 0.00000000 1.00000000 0.00000000
vn 0.03120000 0.00000000 0.99950000
vn 0.00000000 -1.00000000 -0.00000000
vn -0.99940000 0.00000000 0.03600000
vn 0.00000000 1.00000000 0.00000000
vn -0.99940000 0.00000000 0.03600000
vn -0.03120000 0.00000000 -0.99950000
vn -0.03120000 0.00000000 -0.99950000
vn 0.00000000 -1.00000000 -0.00050000
vn -0.99940000 0.00000000 0.03600000
vn 0.00000000 1.00000000 0.00000000
vn -0.99940000 0.00000000 0.03600000
vn 0.00000000 1.00000000 0.00000000
vn -0.99940000 0.00000000 0.03600000
vn 0.00000000 -1.00000000 -0.00050000
vn 0.00000000 -1.00000000 -0.00000000
vn -0.99940000 0.00000000 0.03600000
vn 0.00000000 -1.00000000 -0.00000000
vn -0.99940000 0.00000000 0.03600000
vn -0.03600000 0.00000000 -0.99940000
vn 0.00000000 1.00000000 0.00000000
vn 0.99930000 0.00000000 -0.03620000
vn -0.99930000 0.00000000 0.03630000
vn 0.00000000 1.00000000 0.00000000
vn -0.72820000 0.00000000 0.68540000
vn -0.72820000 0.00000000 0.68540000
vn 0.00000000 1.00000000 0.00000000
vn -0.03600000 0.00000000 -0.99940000
vn -0.72820000 0.00000000 0.68540000
vn 0.00000000 1.00000000 0.00000000
vn -0.03600000 0.00000000 -0.99940000
vn 0.00000000 1.00000000 0.00000000
vn 0.00000000 1.00000000 0.00000000
vn -0.03600000 0.00000000 -0.99940000
vn 0.99930000 0.00000000 -0.03620000
vn 0.00000000 1.00000000 0.00000000
vn 0.99930000 0.00000000 -0.03620000
vn 0.00000000 1.00000000 0.00000000
vn 0.00000000 1.00000000 0.00000000
vn 0.99930000 0.00000000 -0.03620000
vn 0.03600000 0.00000000 0.99940000
vn 0.00000000 1.00000000 0.00000000
vn 0.99930000 0.00000000 -0.03620000
vn 0.03600000 0.00000000 0.99940000
vn 0.00000000 1.00000000 0.00000000
vn 0.00000000 1.00000000 0.00000000
vn -0.99940000 0.00000000 0.03590000
vn 0.03600000 0.00000000 0.99940000
vn -0.99940000 0.00000000 0.03590000
vn -0.99930000 0.00000000 0.03630000
vn 0.00000000 1.00000000 0.00000000
vn -0.99930000 0.00000000 0.03630000
vn 0.00000000 1.00000000 0.00000000
vn 0.99930000 0.00000000 -0.03610000
vn 0.00000000 -1.00000000 -0.00000000
vn -0.03600000 0.00000000 -0.99940000
vn -0.99930000 0.00000000 0.03610000
vn -0.72930000 0.00000000 0.68420000
vn 0.00000000 -1.00000000 -0.00000000
vn -0.72930000 0.00000000 0.68420000
vn 0.00000000 -1.00000000 -0.00000000
vn -0.72930000 0.00000000 0.68420000
vn -0.03630000 0.00000000 -0.99930000
vn 0.00000000 -1.00000000 -0.00000000
vn 0.00000000 -1.00000000 -0.00000000
vn -0.03630000 0.00000000 -0.99930000
vn 0.00000000 -1.00000000 -0.00000000
vn -0.03600000 0.00000000 -0.99940000
vn -0.03630000 0.00000000 -0.99930000
vn 0.99930000 0.00000000 -0.03610000
vn 0.00000000 -1.00000000 -0.00000000
vn 0.99930000 0.00000000 -0.03610000
vn 0.00000000 -1.00000000 -0.00000000
vn 0.00000000 -1.00000000 -0.00000000
vn 0.99930000 0.00000000 -0.03610000
vn 0.00000000 -1.00000000 -0.00000000
vn 0.99930000 0.00000000 -0.03610000
vn 0.03610000 0.00000000 0.99930000
vn 0.00000000 -1.00000000 -0.00000000
vn 0.03610000 0.00000000 0.99930000
vn 0.00000000 -1.00000000 -0.00000000
vn -0.99930000 0.00000000 0.03610000
vn 0.03610000 0.00000000 0.99930000
vn 0.00000000 -1.00000000 -0.00000000
vn -0.99930000 0.00000000 0.03610000
vn -0.99930000 0.00000000 0.03610000
vn 0.00000000 -1.00000000 -0.00000000
vn 0.68570000 0.00000000 0.72790000
vn 0.00000000 1.00000000 0.00000000
vn 0.72830000 0.00000000 -0.68530000
vn 0.00000000 -1.00000000 -0.00000000
vn 0.68570000 0.00000000 0.72790000
vn 0.72830000 0.00000000 -0.68530000
vn 0.72830000 0.00000000 -0.68530000
vn 0.00000000 1.00000000 0.00000000
vn -0.68570000 0.00000000 -0.72790000
vn 0.00000000 -1.00000000 -0.00000000
vn 0.72830000 0.00000000 -0.68530000
vn -0.68570000 0.00000000 -0.72790000
vn 0.72830000 0.00000000 -0.68530000
vn 0.00000000 1.00000000 0.00000000
vn 0.00000000 -1.00000000 -0.00000000
vn 0.72830000 0.00000000 -0.68530000
vn -0.99940000 0.00000000 0.03380000
vn 0.00000000 1.00000000 0.00000000
vn 0.03600000 0.00000000 0.99940000
vn -0.99940000 0.00000000 0.03380000
vn 0.00000000 -1.00000000 -0.00000000
vn 0.03600000 0.00000000 0.99940000
vn 0.99940000 0.00000000 -0.03390000
vn 0.00000000 1.00000000 0.00000000
vn 0.03600000 0.00000000 0.99940000
vn 0.03600000 0.00000000 0.99940000
vn 0.99940000 0.00000000 -0.03390000
vn 0.00000000 -1.00000000 -0.00790000
vn 0.00000000 1.00000000 0.00000000
vn 0.03600000 0.00000000 0.99940000
vn 0.00000000 1.00000000 0.00000000
vn 0.03600000 0.00000000 0.99940000
vn 0.00000000 -1.00000000 -0.00790000
vn 0.00000000 -1.00000000 0.00780000
vn 0.03600000 0.00000000 0.99940000
vn 0.00000000 -1.00000000 0.00780000
vn 0.00000000 -1.00000000 -0.00000000
vn 0.03600000 0.00000000 0.99940000
vn 0.00000000 1.00000000 0.00000000
vn -0.03120000 0.00000000 -0.99950000
vn -0.99940000 0.00000000 0.03600000
vn -0.99940000 0.00000000 0.03600000
vn 0.00000000 -1.00000000 0.00040000
vn -0.03120000 0.00000000 -0.99950000
vn 0.03640000 0.00000000 0.99930000
vn 0.00000000 1.00000000 0.00000000
vn -0.99940000 0.00000000 0.03600000
vn -0.99940000 0.00000000 0.03600000
vn 0.03640000 0.00000000 0.99930000
vn 0.00000000 -1.00000000 -0.00000000
vn -0.99940000 0.00000000 0.03600000
vn 0.00000000 1.00000000 0.00000000
vn 0.00000000 1.00000000 0.00000000
vn -0.99940000 0.00000000 0.03600000
vn 0.00000000 1.00000000 0.00000000
vn -0.99940000 0.00000000 0.03600000
vn 0.00000000 -1.00000000 -0.00000000
vn -0.99940000 0.00000000 0.03600000
vn 0.00000000 -1.00000000 -0.00000000
vn -0.99940000 0.00000000 0.03600000
vn 0.00000000 -1.00000000 0.00040000
vn 0.00000000 -1.00000000 -0.00000000
vn -0.99940000 0.00000000 0.03600000
vn -0.03600000 0.00000000 -0.99940000
vn 0.00000000 1.00000000 0.00000000
vn 0.99940000 0.00000000 -0.03380000
vn 0.00000000 -1.00000000 -0.00000000
vn 0.99940000 0.00000000 -0.03380000
vn -0.03600000 0.00000000 -0.99940000
vn 0.00000000 1.00000000 0.00000000
vn -0.03600000 0.00000000 -0.99940000
vn -0.99940000 0.00000000 0.03380000
vn -0.03600000 0.00000000 -0.99940000
vn 0.00000000 -1.00000000 -0.00000000
vn -0.99940000 0.00000000 0.03380000
vn 0.00000000 -1.00000000 -0.00000000
vn -0.03600000 0.00000000 -0.99940000
vn -0.03600000 0.00000000 -0.99940000
vn 0.00000000 1.00000000 0.00000000
vn 0.03120000 0.00000000 0.99950000
vn 0.00000000 1.00000000 0.00000000
vn 0.99940000 0.00000000 -0.03600000
vn 0.03120000 0.00000000 0.99950000
vn 0.99940000 0.00000000 -0.03600000
vn 0.00000000 -1.00000000 -0.00000000
vn -0.03120000 0.00000000 -0.99950000
vn 0.00000000 1.00000000 0.00000000
vn 0.99940000 0.00000000 -0.03600000
vn 0.00000000 -1.00000000 -0.00050000
vn -0.03120000 0.00000000 -0.99950000
vn 0.99940000 0.00000000 -0.03600000
vn 0.00000000 1.00000000 0.00000000
vn 0.99940000 0.00000000 -0.03600000
vn 0.99940000 0.00000000 -0.03600000
vn 0.00000000 1.00000000 0.00000000
vn 0.00000000 -1.00000000 -0.00000000
vn 0.99940000 0.00000000 -0.03600000
vn 0.00000000 -1.00000000 -0.00050000
vn 0.00000000 -1.00000000 -0.00000000
vn 0.99940000 0.00000000 -0.03600000
vn -0.03600000 0.00000000 -0.99940000
vn 0.99930000 0.00000000 -0.03620000
vn 0.00000000 -1.00000000 -0.00000000
vn 0.00000000 -1.00000000 -0.00000000
vn -0.72820000 0.00000000 0.68540000
vn -0.99930000 0.00000000 0.03630000
vn -0.72820000 0.00000000 0.68540000
vn 0.00000000 -1.00000000 -0.00000000
vn -0.72820000 0.00000000 0.68540000
vn -0.03600000 0.00000000 -0.99940000
vn 0.00000000 -1.00000000 -0.00000000
vn 0.00000000 -1.00000000 -0.00000000
vn -0.03600000 0.00000000 -0.99940000
vn 0.00000000 -1.00000000 -0.00000000
vn -0.03600000 0.00000000 -0.99940000
vn 0.00000000 -1.00000000 -0.00000000
vn 0.99930000 0.00000000 -0.03620000
vn 0.99930000 0.00000000 -0.03620000
vn 0.00000000 -1.00000000 -0.00000000
vn 0.99930000 0.00000000 -0.03620000
vn 0.00000000 -1.00000000 -0.00000000
vn 0.99930000 0.00000000 -0.03620000
vn 0.03600000 0.00000000 0.99940000
vn 0.00000000 -1.00000000 -0.00000000
vn 0.03600000 0.00000000 0.99940000
vn 0.00000000 -1.00000000 -0.00000000
vn 0.03600000 0.00000000 0.99940000
vn 0.00000000 -1.00000000 -0.00000000
vn -0.99940000 0.00000000 0.03590000
vn -0.99930000 0.00000000 0.03630000
vn 0.00000000 -1.00000000 -0.00000000
vn -0.99940000 0.00000000 0.03590000
vn -0.99930000 0.00000000 0.03630000
vn 0.00000000 -1.00000000 -0.00000000
vn 0.99930000 0.00000000 -0.03610000
vn -0.03600000 0.00000000 -0.99940000
vn 0.00000000 1.00000000 0.00000000
vn 0.00000000 1.00000000 0.00000000
vn -0.99930000 0.00000000 0.03610000
vn -0.72930000 0.00000000 0.68420000
vn 0.00000000 1.00000000 0.00000000
vn -0.72930000 0.00000000 0.68420000
vn -0.03630000 0.00000000 -0.99930000
vn -0.72930000 0.00000000 0.68420000
vn 0.00000000 1.00000000 0.00000000
vn -0.03630000 0.00000000 -0.99930000
vn 0.00000000 1.00000000 0.00000000
vn -0.03630000 0.00000000 -0.99930000
vn -0.03600000 0.00000000 -0.99940000
vn 0.00000000 1.00000000 0.00000000
vn 0.99930000 0.00000000 -0.03610000
vn 0.00000000 1.00000000 0.00000000
vn 0.99930000 0.00000000 -0.03610000
vn 0.00000000 1.00000000 0.00000000
vn 0.99930000 0.00000000 -0.03610000
vn 0.00000000 1.00000000 0.00000000
vn 0.99930000 0.00000000 -0.03610000
vn 0.00000000 1.00000000 0.00000000
vn 0.03610000 0.00000000 0.99930000
vn 0.00000000 1.00000000 0.00000000
vn 0.03610000 0.00000000 0.99930000
vn 0.03610000 0.00000000 0.99930000
vn 0.00000000 1.00000000 0.00000000
vn -0.99930000 0.00000000 0.03610000
vn 0.00000000 1.00000000 0.00000000
vn -0.99930000 0.00000000 0.03610000
vn -0.99930000 0.00000000 0.03610000
vn 0.00000000 1.00000000 0.00000000
vt 0.10967700 0.00000000
vt 0.10967700 0.00000000
vt 0.10967700 0.00000000
vt 0.10967700 0.00000000
vt 0.05557100 0.00000000
vt 0.05557100 0.00000000
vt 0.05557100 0.00000000
vt 0.10967700 0.31501300
vt 0.10967700 0.31501300
vt 0.10967700 0.31501300
vt 0.05557100 0.31501300
vt 0.05557100 0.31501300
vt 0.05557100 0.31501300
vt 0.10967700 0.15750700
vt 0.10967700 0.15750700
vt 0.05557100 0.15750700
vt 0.05557100 0.15750700
vt 0.05557100 0.15750700
vt 0.16671300 0.00000000
vt 0.16671300 0.00000000
vt 0.16671300 0.00000000
vt 0.16671300 0.05410600
vt 0.16671300 0.05410600
vt 0.16671300 0.05410600
vt 0.61114200 0.00000000
vt 0.61114200 0.00000000
vt 0.61114200 0.00000000
vt 0.61114200 0.05410600
vt 0.61114200 0.05410600
vt 0.61114200 0.05410600
vt 0.31485600 0.00000000
vt 0.31485600 0.00000000
vt 0.46299900 0.00000000
vt 0.46299900 0.00000000
vt 0.46299900 0.05410600
vt 0.46299900 0.05410600
vt 0.46299900 0.05410600
vt 0.31485600 0.05410600
vt 0.31485600 0.05410600
vt 0.31485600 0.05410600
vt 0.16524800 0.00000000
vt 0.16524800 0.00000000
vt 0.16524800 0.00000000
vt 0.11114200 0.00000000
vt 0.11114200 0.00000000
vt 0.11114200 0.00000000
vt 0.16524800 0.68150100
vt 0.16524800 0.68150100
vt 0.16524800 0.68150100
vt 0.11114200 0.68150100
vt 0.11114200 0.68150100
vt 0.11114200 0.68150100
vt 0.16524800 0.17037500
vt 0.16524800 0.17037500
vt 0.16524800 0.34075000
vt 0.16524800 0.34075000
vt 0.16524800 0.51112600
vt 0.16524800 0.51112600
vt 0.11114200 0.51112600
vt 0.11114200 0.51112600
vt 0.11114200 0.34075000
vt 0.11114200 0.34075000
vt 0.11114200 0.17037500
vt 0.11114200 0.17037500
vt 0.11114200 0.17037500
vt 0.05410600 0.00000000
vt 0.05410600 0.00000000
vt 0.05410600 0.00000000
vt 0.00000000 0.00000000
vt 0.00000000 0.00000000
vt 0.00000000 0.00000000
vt 0.05410600 0.23696000
vt 0.05410600 0.23696000
vt 0.05410600 0.23696000
vt 0.00000000 0.23696000
vt 0.00000000 0.23696000
vt 0.00000000 0.23696000
vt 0.00000000 0.11848000
vt 0.00000000 0.11848000
vt 0.05410600 0.11848000
vt 0.05410600 0.11848000
vt 0.16671300 0.05557100
vt 0.16671300 0.05557100
vt 0.16671300 0.05557100
vt 0.16671300 0.10967700
vt 0.16671300 0.10967700
vt 0.16671300 0.10967700
vt 0.61117000 0.05557100
vt 0.61117000 0.05557100
vt 0.61117000 0.05557100
vt 0.61117000 0.10967700
vt 0.61117000 0.10967700
vt 0.61117000 0.10967700
vt 0.31486500 0.05557100
vt 0.31486500 0.05557100
vt 0.46301700 0.05557100
vt 0.46301700 0.05557100
vt 0.46301700 0.10967700
vt 0.46301700 0.10967700
vt 0.46301700 0.10967700
vt 0.31486500 0.10967700
vt 0.31486500 0.10967700
vt 0.16671300 0.55557100
vt 0.16671300 0.55557100
vt 0.16671300 0.55557100
vt 0.40324700 0.79175000
vt 0.40324700 0.79175000
vt 0.40324700 0.79175000
vt 0.28498000 0.89514200
vt 0.28498000 0.89514200
vt 0.16671300 0.99853500
vt 0.16671300 0.99853500
vt 0.16671300 0.99853500
vt 0.16671300 0.85088000
vt 0.16671300 0.85088000
vt 0.16671300 0.70322600
vt 0.16671300 0.70322600
vt 0.33672200 0.55557100
vt 0.33672200 0.55557100
vt 0.50673100 0.55557100
vt 0.50673100 0.55557100
vt 0.67674000 0.55557100
vt 0.67674000 0.55557100
vt 0.84674900 0.55557100
vt 0.84674900 0.55557100
vt 0.84674900 0.55557100
vt 0.84674900 0.67366000
vt 0.84674900 0.67366000
vt 0.84674900 0.79175000
vt 0.84674900 0.79175000
vt 0.84674900 0.79175000
vt 0.69891500 0.79175000
vt 0.69891500 0.79175000
vt 0.69891500 0.79175000
vt 0.55108100 0.79175000
vt 0.55108100 0.79175000
vt 0.16671300 0.11114200
vt 0.16671300 0.11114200
vt 0.16671300 0.11114200
vt 0.40324700 0.34732000
vt 0.40324700 0.34732000
vt 0.40324700 0.34732000
vt 0.28498000 0.45071300
vt 0.28498000 0.45071300
vt 0.16671300 0.55410600
vt 0.16671300 0.55410600
vt 0.16671300 0.55410600
vt 0.16671300 0.40645100
vt 0.16671300 0.40645100
vt 0.16671300 0.25879600
vt 0.16671300 0.25879600
vt 0.16671300 0.25879600
vt 0.33672200 0.11114200
vt 0.33672200 0.11114200
vt 0.50673100 0.11114200
vt 0.50673100 0.11114200
vt 0.67674000 0.11114200
vt 0.67674000 0.11114200
vt 0.84674900 0.11114200
vt 0.84674900 0.11114200
vt 0.84674900 0.11114200
vt 0.84674900 0.22923100
vt 0.84674900 0.22923100
vt 0.84674900 0.34732000
vt 0.84674900 0.34732000
vt 0.84674900 0.34732000
vt 0.69891500 0.34732000
vt 0.69891500 0.34732000
vt 0.55108100 0.34732000
vt 0.55108100 0.34732000
vt 0.10967700 0.00000000
vt 0.10967700 0.00000000
vt 0.10967700 0.00000000
vt 0.05557100 0.00000000
vt 0.05557100 0.00000000
vt 0.05557100 0.00000000
vt 0.10967700 0.31501300
vt 0.10967700 0.31501300
vt 0.10967700 0.31501300
vt 0.05557100 0.31501300
vt 0.05557100 0.31501300
vt 0.05557100 0.31501300
vt 0.10967700 0.15750700
vt 0.10967700 0.15750700
vt 0.05557100 0.15750700
vt 0.05557100 0.15750700
vt 0.16671300 0.00000000
vt 0.16671300 0.00000000
vt 0.16671300 0.00000000
vt 0.16671300 0.05410600
vt 0.16671300 0.05410600
vt 0.16671300 0.05410600
vt 0.61114200 0.00000000
vt 0.61114200 0.00000000
vt 0.61114200 0.00000000
vt 0.61114200 0.05410600
vt 0.61114200 0.05410600
vt 0.61114200 0.05410600
vt 0.31485600 0.00000000
vt 0.31485600 0.00000000
vt 0.46299900 0.00000000
vt 0.46299900 0.00000000
vt 0.46299900 0.05410600
vt 0.46299900 0.05410600
vt 0.46299900 0.05410600
vt 0.31485600 0.05410600
vt 0.31485600 0.05410600
vt 0.31485600 0.05410600
vt 0.16524800 0.00000000
vt 0.16524800 0.00000000
vt 0.16524800 0.00000000
vt 0.11114200 0.00000000
vt 0.11114200 0.00000000
vt 0.11114200 0.00000000
vt 0.16524800 0.68150100
vt 0.16524800 0.68150100
vt 0.16524800 0.68150100
vt 0.11114200 0.68150100
vt 0.11114200 0.68150100
vt 0.11114200 0.68150100
vt 0.16524800 0.17037500
vt 0.16524800 0.17037500
vt 0.16524800 0.34075000
vt 0.16524800 0.34075000
vt 0.16524800 0.51112600
vt 0.16524800 0.51112600
vt 0.11114200 0.51112600
vt 0.11114200 0.51112600
vt 0.11114200 0.34075000
vt 0.11114200 0.34075000
vt 0.11114200 0.17037500
vt 0.11114200 0.17037500
vt 0.11114200 0.17037500
vt 0.05410600 0.00000000
vt 0.05410600 0.00000000
vt 0.05410600 0.00000000
vt 0.00000000 0.00000000
vt 0.00000000 0.00000000
vt 0.00000000 0.00000000
vt 0.05410600 0.23696000
vt 0.05410600 0.23696000
vt 0.05410600 0.23696000
vt 0.00000000 0.23696000
vt 0.00000000 0.23696000
vt 0.00000000 0.23696000
vt 0.00000000 0.11848000
vt 0.00000000 0.11848000
vt 0.05410600 0.11848000
vt 0.05410600 0.11848000
vt 0.16671300 0.05557100
vt 0.16671300 0.05557100
vt 0.16671300 0.05557100
vt 0.16671300 0.10967700
vt 0.16671300 0.10967700
vt 0.16671300 0.10967700
vt 0.61117000 0.05557100
vt 0.61117000 0.05557100
vt 0.61117000 0.05557100
vt 0.61117000 0.10967700
vt 0.61117000 0.10967700
vt 0.61117000 0.10967700
vt 0.31486500 0.05557100
vt 0.31486500 0.05557100
vt 0.46301700 0.05557100
vt 0.46301700 0.05557100
vt 0.46301700 0.10967700
vt 0.46301700 0.10967700
vt 0.46301700 0.10967700
vt 0.31486500 0.10967700
vt 0.31486500 0.10967700
vt 0.16671300 0.55557100
vt 0.16671300 0.55557100
vt 0.16671300 0.55557100
vt 0.40324700 0.79175000
vt 0.40324700 0.79175000
vt 0.40324700 0.79175000
vt 0.28498000 0.89514200
vt 0.28498000 0.89514200
vt 0.16671300 0.99853500
vt 0.16671300 0.99853500
vt 0.16671300 0.99853500
vt 0.16671300 0.85088000
vt 0.16671300 0.85088000
vt 0.16671300 0.70322600
vt 0.16671300 0.70322600
vt 0.33672200 0.55557100
vt 0.33672200 0.55557100
vt 0.50673100 0.55557100
vt 0.50673100 0.55557100
vt 0.67674000 0.55557100
vt 0.67674000 0.55557100
vt 0.84674900 0.55557100
vt 0.84674900 0.55557100
vt 0.84674900 0.55557100
vt 0.84674900 0.67366000
vt 0.84674900 0.67366000
vt 0.84674900 0.79175000
vt 0.84674900 0.79175000
vt 0.84674900 0.79175000
vt 0.69891500 0.79175000
vt 0.69891500 0.79175000
vt 0.69891500 0.79175000
vt 0.55108100 0.79175000
vt 0.55108100 0.79175000
vt 0.16671300 0.11114200
vt 0.16671300 0.11114200
vt 0.16671300 0.11114200
vt 0.40324700 0.34732000
vt 0.40324700 0.34732000
vt 0.40324700 0.34732000
vt 0.28498000 0.45071300
vt 0.28498000 0.45071300
vt 0.16671300 0.55410600
vt 0.16671300 0.55410600
vt 0.16671300 0.55410600
vt 0.16671300 0.40645100
vt 0.16671300 0.40645100
vt 0.16671300 0.25879600
vt 0.16671300 0.25879600
vt 0.16671300 0.25879600
vt 0.33672200 0.11114200
vt 0.33672200 0.11114200
vt 0.50673100 0.11114200
vt 0.50673100 0.11114200
vt 0.67674000 0.11114200
vt 0.67674000 0.11114200
vt 0.84674900 0.11114200
vt 0.84674900 0.11114200
vt 0.84674900 0.11114200
vt 0.84674900 0.22923100
vt 0.84674900 0.22923100
vt 0.84674900 0.34732000
vt 0.84674900 0.34732000
vt 0.84674900 0.34732000
vt 0.69891500 0.34732000
vt 0.69891500 0.34732000
vt 0.55108100 0.34732000
vt 0.55108100 0.34732000
f 1/1/1 14/14/14 18/18/18
f 11/11/11 18/18/18 14/14/14
f 32/32/32 38/38/38 22/22/22
f 38/38/38 32/32/32 34/34/34
f 26/26/26 29/29/29 36/36/36
f 43/43/43 53/53/53 65/65/65
f 53/53/53 55/55/55 61/61/61
f 49/49/49 52/52/52 60/60/60
f 57/57/57 60/60/60 61/61/61
f 71/71/71 68/68/68 80/80/80
f 72/72/72 77/77/77 79/79/79
f 83/83/83 95/95/95 102/102/102
f 100/100/100 102/102/102 95/95/95
f 89/89/89 93/93/93 100/100/100
f 116/116/116 119/119/119 104/104/104
f 107/107/107 119/119/119 116/116/116
f 110/110/110 115/115/115 113/113/113
f 115/115/115 110/110/110 107/107/107
f 107/107/107 116/116/116 115/115/115
f 107/107/107 121/121/121 119/119/119
f 136/136/136 122/122/122 121/121/121
f 128/128/128 125/125/125 122/122/122
f 134/134/134 122/122/122 136/136/136
f 134/134/134 129/129/129 128/128/128
f 134/134/134 128/128/128 122/122/122
f 107/107/107 136/136/136 121/121/121
f 150/150/150 138/138/138 154/154/154
f 142/142/142 150/150/150 154/154/154
f 144/144/144 147/147/147 148/148/148
f 148/148/148 142/142/142 144/144/144
f 142/142/142 148/148/148 150/150/150
f 142/142/142 154/154/154 156/156/156
f 170/170/170 156/156/156 157/157/157
f 162/162/162 157/157/157 159/159/159
f 167/167/167 170/170/170 157/157/157
f 167/167/167 162/162/162 164/164/164
f 167/167/167 157/157/157 162/162/162
f 142/142/142 156/156/156 170/170/170
f 2/2/2 16/16/16 6/6/6
f 11/11/11 14/14/14 8/8/8
f 32/32/32 22/22/22 19/19/19
f 38/38/38 34/34/34 36/36/36
f 26/26/26 36/36/36 34/34/34
f 43/43/43 65/65/65 45/45/45
f 53/53/53 61/61/61 65/65/65
f 49/49/49 60/60/60 57/57/57
f 57/57/57 61/61/61 55/55/55
f 71/71/71 80/80/80 79/79/79
f 72/72/72 79/79/79 80/80/80
f 83/83/83 102/102/102 87/87/87
f 100/100/100 95/95/95 97/97/97
f 89/89/89 100/100/100 97/97/97
f 173/173/173 186/186/186 183/183/183
f 181/181/181 183/183/183 186/186/186
f 200/200/200 192/192/192 208/208/208
f 208/208/208 202/202/202 200/200/200
f 195/195/195 205/205/205 196/196/196
f 211/211/211 233/233/233 221/221/221
f 221/221/221 230/230/230 224/224/224
f 217/217/217 228/228/228 218/218/218
f 226/226/226 230/230/230 228/228/228
f 239/239/239 248/248/248 234/234/234
f 241/241/241 247/247/247 243/243/243
f 252/252/252 270/270/270 263/263/263
f 267/267/267 263/263/263 270/270/270
f 258/258/258 267/267/267 261/261/261
f 284/284/284 273/273/273 286/286/286
f 274/274/274 284/284/284 286/286/286
f 278/278/278 281/281/281 282/282/282
f 282/282/282 274/274/274 278/278/278
f 274/274/274 282/282/282 284/284/284
f 274/274/274 286/286/286 289/289/289
f 304/304/304 289/289/289 291/291/291
f 296/296/296 291/291/291 294/294/294
f 301/301/301 304/304/304 291/291/291
f 301/301/301 296/296/296 298/298/298
f 301/301/301 291/291/291 296/296/296
f 274/274/274 289/289/289 304/304/304
f 320/320/320 322/322/322 307/307/307
f 308/308/308 322/322/322 320/320/320
f 311/311/311 317/317/317 315/315/315
f 317/317/317 311/311/311 308/308/308
f 308/308/308 320/320/320 317/317/317
f 308/308/308 324/324/324 322/322/322
f 338/338/338 326/326/326 324/324/324
f 330/330/330 328/328/328 326/326/326
f 335/335/335 326/326/326 338/338/338
f 335/335/335 333/333/333 330/330/330
f 335/335/335 330/330/330 326/326/326
f 308/308/308 338/338/338 324/324/324
f 173/173/173 176/176/176 186/186/186
f 181/181/181 177/177/177 183/183/183
f 200/200/200 189/189/189 192/192/192
f 208/208/208 205/205/205 202/202/202
f 195/195/195 202/202/202 205/205/205
f 211/211/211 212/212/212 233/233/233
f 221/221/221 233/233/233 230/230/230
f 217/217/217 226/226/226 228/228/228
f 226/226/226 224/224/224 230/230/230
f 239/239/239 247/247/247 248/248/248
f 241/241/241 248/248/248 247/247/247
f 252/252/252 254/254/254 270/270/270
f 267/267/267 264/264/264 263/263/263
f 258/258/258 264/264/264 267/267/267
f 3/3/3 7/7/7 175/175/175
f 175/175/175 171/171/171 3/3/3
f 12/12/12 9/9/9 179/179/179
f 179/179/179 182/182/182 12/12/12
f 15/15/15 4/4/4 172/172/172
f 172/172/172 184/184/184 15/15/15
f 30/30/30 27/27/27 193/193/193
f 193/193/193 197/197/197 30/30/30
f 33/33/33 31/31/31 199/199/199
f 199/199/199 201/201/201 33/33/33
f 105/105/105 118/118/118 287/287/287
f 287/287/287 272/272/272 105/105/105
f 51/51/51 47/47/47 215/215/215
f 215/215/215 219/219/219 51/51/51
f 54/54/54 42/42/42 209/209/209
f 209/209/209 222/222/222 54/54/54
f 56/56/56 54/54/54 222/222/222
f 222/222/222 223/223/223 56/56/56
f 168/168/168 165/165/165 334/334/334
f 334/334/334 336/336/336 168/168/168
f 75/75/75 74/74/74 242/242/242
f 242/242/242 245/245/245 75/75/75
f 82/82/82 85/85/85 253/253/253
f 253/253/253 250/250/250 82/82/82
f 91/91/91 90/90/90 256/256/256
f 256/256/256 260/260/260 91/91/91
f 94/94/94 84/84/84 251/251/251
f 251/251/251 262/262/262 94/94/94
f 96/96/96 94/94/94 262/262/262
f 262/262/262 265/265/265 96/96/96
f 108/108/108 109/109/109 277/277/277
f 277/277/277 275/275/275 108/108/108
f 109/109/109 112/112/112 279/279/279
f 279/279/279 277/277/277 109/109/109
f 117/117/117 103/103/103 271/271/271
f 271/271/271 285/285/285 117/117/117
f 120/120/120 123/123/123 290/290/290
f 290/290/290 288/288/288 120/120/120
f 123/123/123 126/126/126 292/292/292
f 292/292/292 290/290/290 123/123/123
f 127/127/127 131/131/131 297/297/297
f 297/297/297 295/295/295 127/127/127
f 17/17/17 13/13/13 180/180/180
f 180/180/180 185/185/185 17/17/17
f 143/143/143 141/141/141 310/310/310
f 310/310/310 312/312/312 143/143/143
f 145/145/145 143/143/143 312/312/312
f 312/312/312 314/314/314 145/145/145
f 135/135/135 106/106/106 276/276/276
f 276/276/276 303/303/303 135/135/135
f 158/158/158 155/155/155 323/323/323
f 323/323/323 325/325/325 158/158/158
f 160/160/160 158/158/158 325/325/325
f 325/325/325 327/327/327 160/160/160
f 66/66/66 69/69/69 238/238/238
f 238/238/238 236/236/236 66/66/66
f 166/166/166 163/163/163 331/331/331
f 331/331/331 332/332/332 166/166/166
f 118/118/118 120/120/120 288/288/288
f 288/288/288 287/287/287 118/118/118
f 169/169/169 168/168/168 336/336/336
f 336/336/336 337/337/337 169/169/169
f 81/81/81 67/67/67 235/235/235
f 235/235/235 249/249/249 81/81/81
f 21/21/21 24/24/24 190/190/190
f 190/190/190 187/187/187 21/21/21
f 70/70/70 78/78/78 246/246/246
f 246/246/246 237/237/237 70/70/70
f 25/25/25 33/33/33 201/201/201
f 201/201/201 194/194/194 25/25/25
f 73/73/73 81/81/81 249/249/249
f 249/249/249 240/240/240 73/73/73
f 31/31/31 20/20/20 188/188/188
f 188/188/188 199/199/199 31/31/31
f 78/78/78 76/76/76 244/244/244
f 244/244/244 246/246/246 78/78/78
f 124/124/124 127/127/127 295/295/295
f 295/295/295 293/293/293 124/124/124
f 62/62/62 59/59/59 227/227/227
f 227/227/227 229/229/229 62/62/62
f 23/23/23 40/40/40 207/207/207
f 207/207/207 191/191/191 23/23/23
f 130/130/130 132/132/132 302/302/302
f 302/302/302 299/299/299 130/130/130
f 37/37/37 28/28/28 198/198/198
f 198/198/198 203/203/203 37/37/37
f 111/111/111 114/114/114 283/283/283
f 283/283/283 280/280/280 111/111/111
f 44/44/44 64/64/64 231/231/231
f 231/231/231 213/213/213 44/44/44
f 39/39/39 35/35/35 204/204/204
f 204/204/204 206/206/206 39/39/39
f 63/63/63 62/62/62 229/229/229
f 229/229/229 232/232/232 63/63/63
f 5/5/5 17/17/17 185/185/185
f 185/185/185 174/174/174 5/5/5
f 163/163/163 161/161/161 329/329/329
f 329/329/329 331/331/331 163/163/163
f 88/88/88 96/96/96 265/265/265
f 265/265/265 257/257/257 88/88/88
f 86/86/86 101/101/101 269/269/269
f 269/269/269 255/255/255 86/86/86
f 10/10/10 15/15/15 184/184/184
f 184/184/184 178/178/178 10/10/10
f 41/41/41 46/46/46 214/214/214
f 214/214/214 210/210/210 41/41/41
f 98/98/98 92/92/92 259/259/259
f 259/259/259 268/268/268 98/98/98
f 139/139/139 151/151/151 319/319/319
f 319/319/319 306/306/306 139/139/139
f 153/153/153 137/137/137 305/305/305
f 305/305/305 321/321/321 153/153/153
f 149/149/149 146/146/146 313/313/313
f 313/313/313 316/316/316 149/149/149
f 114/114/114 117/117/117 285/285/285
f 285/285/285 283/283/283 114/114/114
f 101/101/101 99/99/99 266/266/266
f 266/266/266 269/269/269 101/101/101
f 152/152/152 149/149/149 316/316/316
f 316/316/316 318/318/318 152/152/152
f 133/133/133 135/135/135 303/303/303
f 303/303/303 300/300/300 133/133/133
f 48/48/48 58/58/58 225/225/225
f 225/225/225 216/216/216 48/48/48
f 140/140/140 169/169/169 337/337/337
f 337/337/337 309/309/309 140/140/140
f 59/59/59 50/50/50 220/220/220
f 220/220/220 227/227/227 59/59/59
f 155/155/155 153/153/153 321/321/321
f 321/321/321 323/323/323 155/155/155
f 58/58/58 56/56/56 223/223/223
f 223/223/223 225/225/225 58/58/58

