mtllib material.mtl
usemtl Material-7011油漆.008
v -0.01401100 -0.12493200 -0.00920900
v -0.01401100 -0.12493200 -0.00920900
v -0.01401100 -0.12493200 -0.00920900
v -0.01401100 -0.12563200 -0.00920900
v -0.01401100 -0.12563200 -0.00920900
v -0.01401100 -0.12563200 -0.00920900
v -0.02445500 -0.12493200 -0.00883300
v -0.02445500 -0.12493200 -0.00883300
v -0.02445500 -0.12493200 -0.00883300
v -0.02445500 -0.12563200 -0.00883300
v -0.02445500 -0.12563200 -0.00883300
v -0.02445500 -0.12563200 -0.00883300
v -0.01662200 -0.12493200 -0.00911500
v -0.01662200 -0.12493200 -0.00911500
v -0.01923300 -0.12493200 -0.00902100
v -0.01923300 -0.12493200 -0.00902100
v -0.02184400 -0.12493200 -0.00892700
v -0.02184400 -0.12493200 -0.00892700
v -0.02184400 -0.12563200 -0.00892700
v -0.02184400 -0.12563200 -0.00892700
v -0.01923300 -0.12563200 -0.00902100
v -0.01923300 -0.12563200 -0.00902100
v -0.01662200 -0.12563200 -0.00911500
v -0.01662200 -0.12563200 -0.00911500
v -0.02445500 -0.12493200 -0.00883400
v -0.02445500 -0.12493200 -0.00883400
v -0.02445500 -0.12493200 -0.00883400
v -0.02445500 -0.12563200 -0.00883400
v -0.02445500 -0.12563200 -0.00883400
v -0.02445500 -0.12563200 -0.00883400
v -0.02450900 -0.12493200 -0.01032500
v -0.02450900 -0.12493200 -0.01032500
v -0.02450900 -0.12493200 -0.01032500
v -0.02450900 -0.12563200 -0.01032500
v -0.02450900 -0.12563200 -0.01032500
v -0.02450900 -0.12563200 -0.01032500
v -0.02448200 -0.12493200 -0.00958000
v -0.02448200 -0.12493200 -0.00958000
v -0.02448200 -0.12493200 -0.00958000
v -0.02448200 -0.12563200 -0.00958000
v -0.02448200 -0.12563200 -0.00958000
v -0.02448200 -0.12563200 -0.00958000
v -0.02450900 -0.12493200 -0.01032600
v -0.02450900 -0.12493200 -0.01032600
v -0.02450900 -0.12493200 -0.01032600
v -0.02450900 -0.12563200 -0.01032600
v -0.02450900 -0.12563200 -0.01032600
v -0.02450900 -0.12563200 -0.01032600
v -0.01406500 -0.12493200 -0.01070200
v -0.01406500 -0.12493200 -0.01070200
v -0.01406500 -0.12493200 -0.01070200
v -0.01406500 -0.12563200 -0.01070200
v -0.01406500 -0.12563200 -0.01070200
v -0.01406500 -0.12563200 -0.01070200
v -0.02189800 -0.12493200 -0.01042000
v -0.02189800 -0.12493200 -0.01042000
v -0.01928700 -0.12493200 -0.01051400
v -0.01928700 -0.12493200 -0.01051400
v -0.01667600 -0.12493200 -0.01060800
v -0.01667600 -0.12493200 -0.01060800
v -0.01667600 -0.12563200 -0.01060800
v -0.01667600 -0.12563200 -0.01060800
v -0.01928700 -0.12563200 -0.01051400
v -0.01928700 -0.12563200 -0.01051400
v -0.02189800 -0.12563200 -0.01042000
v -0.02189800 -0.12563200 -0.01042000
v -0.01406400 -0.12493200 -0.01070200
v -0.01406400 -0.12493200 -0.01070200
v -0.01406400 -0.12493200 -0.01070200
v -0.01406400 -0.12563200 -0.01070200
v -0.01406400 -0.12563200 -0.01070200
v -0.01406400 -0.12563200 -0.01070200
v -0.01401000 -0.12493200 -0.00921000
v -0.01401000 -0.12493200 -0.00921000
v -0.01401000 -0.12493200 -0.00921000
v -0.01401000 -0.12563200 -0.00921000
v -0.01401000 -0.12563200 -0.00921000
v -0.01401000 -0.12563200 -0.00921000
v -0.01403700 -0.12493200 -0.00995600
v -0.01403700 -0.12493200 -0.00995600
v -0.01403700 -0.12563200 -0.00995600
v -0.01403700 -0.12563200 -0.00995600
v -0.01401100 -0.12493100 -0.00921000
v -0.01401100 -0.12493100 -0.00921000
v -0.01401100 -0.12493100 -0.00921000
v -0.01406500 -0.12493100 -0.01070200
v -0.01406500 -0.12493100 -0.01070200
v -0.01406500 -0.12493100 -0.01070200
v -0.02445500 -0.12493100 -0.00883400
v -0.02445500 -0.12493100 -0.00883400
v -0.02445500 -0.12493100 -0.00883400
v -0.02450900 -0.12493100 -0.01032600
v -0.02450900 -0.12493100 -0.01032600
v -0.02450900 -0.12493100 -0.01032600
v -0.01662200 -0.12493100 -0.00911600
v -0.01662200 -0.12493100 -0.00911600
v -0.01923300 -0.12493100 -0.00902200
v -0.01923300 -0.12493100 -0.00902200
v -0.02184400 -0.12493100 -0.00892800
v -0.02184400 -0.12493100 -0.00892800
v -0.02448200 -0.12493100 -0.00958000
v -0.02448200 -0.12493100 -0.00958000
v -0.02189800 -0.12493100 -0.01042000
v -0.02189800 -0.12493100 -0.01042000
v -0.01928700 -0.12493100 -0.01051400
v -0.01928700 -0.12493100 -0.01051400
v -0.01667600 -0.12493100 -0.01060800
v -0.01667600 -0.12493100 -0.01060800
v -0.01403800 -0.12493100 -0.00995600
v -0.01403800 -0.12493100 -0.00995600
v -0.01401100 -0.12563200 -0.00921000
v -0.01401100 -0.12563200 -0.00921000
v -0.01401100 -0.12563200 -0.00921000
v -0.01406500 -0.12563200 -0.01070200
v -0.01406500 -0.12563200 -0.01070200
v -0.01406500 -0.12563200 -0.01070200
v -0.02445500 -0.12563200 -0.00883400
v -0.02445500 -0.12563200 -0.00883400
v -0.02445500 -0.12563200 -0.00883400
v -0.02450900 -0.12563200 -0.01032600
v -0.02450900 -0.12563200 -0.01032600
v -0.02450900 -0.12563200 -0.01032600
v -0.01662200 -0.12563200 -0.00911600
v -0.01662200 -0.12563200 -0.00911600
v -0.01923300 -0.12563200 -0.00902200
v -0.01923300 -0.12563200 -0.00902200
v -0.02184400 -0.12563200 -0.00892800
v -0.02184400 -0.12563200 -0.00892800
v -0.02448200 -0.12563200 -0.00958000
v -0.02448200 -0.12563200 -0.00958000
v -0.02189800 -0.12563200 -0.01042000
v -0.02189800 -0.12563200 -0.01042000
v -0.01928700 -0.12563200 -0.01051400
v -0.01928700 -0.12563200 -0.01051400
v -0.01667600 -0.12563200 -0.01060800
v -0.01667600 -0.12563200 -0.01060800
v -0.01403800 -0.12563200 -0.00995600
v -0.01403800 -0.12563200 -0.00995600
v -0.01401100 -0.12493200 -0.00921000
v -0.01401100 -0.12493200 -0.00921000
v -0.01401100 -0.12493200 -0.00921000
v -0.01401100 -0.12563200 -0.00921000
v -0.01401100 -0.12563200 -0.00921000
v -0.01401100 -0.12563200 -0.00921000
v -0.02445500 -0.12493200 -0.00883400
v -0.02445500 -0.12493200 -0.00883400
v -0.02445500 -0.12493200 -0.00883400
v -0.02445500 -0.12563200 -0.00883400
v -0.02445500 -0.12563200 -0.00883400
v -0.02445500 -0.12563200 -0.00883400
v -0.01662200 -0.12493200 -0.00911600
v -0.01662200 -0.12493200 -0.00911600
v -0.01923300 -0.12493200 -0.00902200
v -0.01923300 -0.12493200 -0.00902200
v -0.02184400 -0.12493200 -0.00892800
v -0.02184400 -0.12493200 -0.00892800
v -0.02184400 -0.12563200 -0.00892800
v -0.02184400 -0.12563200 -0.00892800
v -0.01923300 -0.12563200 -0.00902200
v -0.01923300 -0.12563200 -0.00902200
v -0.01662200 -0.12563200 -0.00911600
v -0.01662200 -0.12563200 -0.00911600
v -0.02445400 -0.12493200 -0.00883400
v -0.02445400 -0.12493200 -0.00883400
v -0.02445400 -0.12493200 -0.00883400
v -0.02445400 -0.12563200 -0.00883400
v -0.02445400 -0.12563200 -0.00883400
v -0.02445400 -0.12563200 -0.00883400
v -0.02450800 -0.12493200 -0.01032600
v -0.02450800 -0.12493200 -0.01032600
v -0.02450800 -0.12493200 -0.01032600
v -0.02450800 -0.12563200 -0.01032600
v -0.02450800 -0.12563200 -0.01032600
v -0.02450800 -0.12563200 -0.01032600
v -0.02448100 -0.12493200 -0.00958000
v -0.02448100 -0.12493200 -0.00958000
v -0.02448100 -0.12493200 -0.00958000
v -0.02448100 -0.12563200 -0.00958000
v -0.02448100 -0.12563200 -0.00958000
v -0.02448100 -0.12563200 -0.00958000
v -0.02450900 -0.12493200 -0.01032500
v -0.02450900 -0.12493200 -0.01032500
v -0.02450900 -0.12493200 -0.01032500
v -0.02450900 -0.12563200 -0.01032500
v -0.02450900 -0.12563200 -0.01032500
v -0.02450900 -0.12563200 -0.01032500
v -0.01406500 -0.12493200 -0.01070100
v -0.01406500 -0.12493200 -0.01070100
v -0.01406500 -0.12493200 -0.01070100
v -0.01406500 -0.12563200 -0.01070100
v -0.01406500 -0.12563200 -0.01070100
v -0.01406500 -0.12563200 -0.01070100
v -0.02189800 -0.12493200 -0.01041900
v -0.02189800 -0.12493200 -0.01041900
v -0.01928700 -0.12493200 -0.01051300
v -0.01928700 -0.12493200 -0.01051300
v -0.01667600 -0.12493200 -0.01060700
v -0.01667600 -0.12493200 -0.01060700
v -0.01667600 -0.12563200 -0.01060700
v -0.01667600 -0.12563200 -0.01060700
v -0.01928700 -0.12563200 -0.01051300
v -0.01928700 -0.12563200 -0.01051300
v -0.02189800 -0.12563200 -0.01041900
v -0.02189800 -0.12563200 -0.01041900
v -0.01406500 -0.12493200 -0.01070200
v -0.01406500 -0.12493200 -0.01070200
v -0.01406500 -0.12493200 -0.01070200
v -0.01406500 -0.12563200 -0.01070200
v -0.01406500 -0.12563200 -0.01070200
v -0.01406500 -0.12563200 -0.01070200
v -0.01401100 -0.12493200 -0.00921000
v -0.01401100 -0.12493200 -0.00921000
v -0.01401100 -0.12493200 -0.00921000
v -0.01401100 -0.12563200 -0.00921000
v -0.01401100 -0.12563200 -0.00921000
v -0.01401100 -0.12563200 -0.00921000
v -0.01403800 -0.12493200 -0.00995600
v -0.01403800 -0.12493200 -0.00995600
v -0.01403800 -0.12563200 -0.00995600
v -0.01403800 -0.12563200 -0.00995600
v -0.01401100 -0.12493200 -0.00921000
v -0.01401100 -0.12493200 -0.00921000
v -0.01401100 -0.12493200 -0.00921000
v -0.01406500 -0.12493200 -0.01070200
v -0.01406500 -0.12493200 -0.01070200
v -0.01406500 -0.12493200 -0.01070200
v -0.02445500 -0.12493200 -0.00883400
v -0.02445500 -0.12493200 -0.00883400
v -0.02445500 -0.12493200 -0.00883400
v -0.02450900 -0.12493200 -0.01032600
v -0.02450900 -0.12493200 -0.01032600
v -0.02450900 -0.12493200 -0.01032600
v -0.01662200 -0.12493200 -0.00911600
v -0.01662200 -0.12493200 -0.00911600
v -0.01923300 -0.12493200 -0.00902200
v -0.01923300 -0.12493200 -0.00902200
v -0.02184400 -0.12493200 -0.00892800
v -0.02184400 -0.12493200 -0.00892800
v -0.02448200 -0.12493200 -0.00958000
v -0.02448200 -0.12493200 -0.00958000
v -0.02189800 -0.12493200 -0.01042000
v -0.02189800 -0.12493200 -0.01042000
v -0.01928700 -0.12493200 -0.01051400
v -0.01928700 -0.12493200 -0.01051400
v -0.01667600 -0.12493200 -0.01060800
v -0.01667600 -0.12493200 -0.01060800
v -0.01403800 -0.12493200 -0.00995600
v -0.01403800 -0.12493200 -0.00995600
v -0.01401100 -0.12563100 -0.00921000
v -0.01401100 -0.12563100 -0.00921000
v -0.01401100 -0.12563100 -0.00921000
v -0.01406500 -0.12563100 -0.01070200
v -0.01406500 -0.12563100 -0.01070200
v -0.01406500 -0.12563100 -0.01070200
v -0.02445500 -0.12563100 -0.00883400
v -0.02445500 -0.12563100 -0.00883400
v -0.02445500 -0.12563100 -0.00883400
v -0.02450900 -0.12563100 -0.01032600
v -0.02450900 -0.12563100 -0.01032600
v -0.02450900 -0.12563100 -0.01032600
v -0.01662200 -0.12563100 -0.00911600
v -0.01662200 -0.12563100 -0.00911600
v -0.01923300 -0.12563100 -0.00902200
v -0.01923300 -0.12563100 -0.00902200
v -0.02184400 -0.12563100 -0.00892800
v -0.02184400 -0.12563100 -0.00892800
v -0.02448200 -0.12563100 -0.00958000
v -0.02448200 -0.12563100 -0.00958000
v -0.02189800 -0.12563100 -0.01042000
v -0.02189800 -0.12563100 -0.01042000
v -0.01928700 -0.12563100 -0.01051400
v -0.01928700 -0.12563100 -0.01051400
v -0.01667600 -0.12563100 -0.01060800
v -0.01667600 -0.12563100 -0.01060800
v -0.01403800 -0.12563100 -0.00995600
v -0.01403800 -0.12563100 -0.00995600
vn 0.03600000 0.00000000 0.99940000
vn 0.00000000 1.00000000 -0.00000000
vn 0.99940000 0.00000000 -0.03540000
vn 0.00000000 -1.00000000 0.00000000
vn 0.03600000 0.00000000 0.99940000
vn 0.99940000 0.00000000 -0.03540000
vn 0.03600000 0.00000000 0.99940000
vn 0.00000000 1.00000000 -0.00000000
vn -0.99940000 0.00000000 0.03350000
vn 0.03600000 0.00000000 0.99940000
vn 0.00000000 -1.00000000 0.00000000
vn -0.99940000 0.00000000 0.03350000
vn 0.03600000 0.00000000 0.99940000
vn 0.00000000 1.00000000 -0.00000000
vn 0.03600000 0.00000000 0.99940000
vn 0.00000000 1.00000000 -0.00000000
vn 0.00000000 1.00000000 -0.00000000
vn 0.03600000 0.00000000 0.99940000
vn 0.03600000 0.00000000 0.99940000
vn 0.00000000 -1.00000000 0.00000000
vn 0.03600000 0.00000000 0.99940000
vn 0.00000000 -1.00000000 0.00000000
vn 0.00000000 -1.00000000 0.00000000
vn 0.03600000 0.00000000 0.99940000
vn 0.00000000 1.00000000 -0.00000000
vn -0.99940000 0.00000000 0.03600000
vn 0.03640000 0.00000000 0.99930000
vn 0.00000000 -1.00000000 0.00000000
vn 0.03640000 0.00000000 0.99930000
vn -0.99940000 0.00000000 0.03600000
vn -0.99940000 0.00000000 0.03600000
vn 0.00000000 1.00000000 0.00030000
vn -0.03630000 0.00000000 -0.99930000
vn -0.99940000 0.00000000 0.03600000
vn 0.00000000 -1.00000000 -0.00030000
vn -0.03630000 0.00000000 -0.99930000
vn 0.00000000 1.00000000 0.00030000
vn 0.00000000 1.00000000 -0.00000000
vn -0.99940000 0.00000000 0.03600000
vn -0.99940000 0.00000000 0.03600000
vn 0.00000000 -1.00000000 0.00000000
vn 0.00000000 -1.00000000 -0.00030000
vn -0.03600000 0.00000000 -0.99940000
vn 0.00000000 1.00000000 -0.00000000
vn -0.99940000 0.00000000 0.03350000
vn -0.03600000 0.00000000 -0.99940000
vn -0.99940000 0.00000000 0.03350000
vn 0.00000000 -1.00000000 0.00000000
vn -0.03600000 0.00000000 -0.99940000
vn 0.99930000 0.00000000 -0.03630000
vn 0.00000000 1.00000000 -0.00000000
vn -0.03600000 0.00000000 -0.99940000
vn 0.00000000 -1.00000000 0.00000000
vn 0.99930000 0.00000000 -0.03630000
vn 0.00000000 1.00000000 -0.00000000
vn -0.03600000 0.00000000 -0.99940000
vn 0.00000000 1.00000000 -0.00000000
vn -0.03600000 0.00000000 -0.99940000
vn -0.03600000 0.00000000 -0.99940000
vn 0.00000000 1.00000000 -0.00000000
vn 0.00000000 -1.00000000 0.00000000
vn -0.03600000 0.00000000 -0.99940000
vn -0.03600000 0.00000000 -0.99940000
vn 0.00000000 -1.00000000 0.00000000
vn -0.03600000 0.00000000 -0.99940000
vn 0.00000000 -1.00000000 0.00000000
vn 0.00000000 1.00000000 -0.00000000
vn 0.99940000 0.00000000 -0.03600000
vn -0.03640000 0.00000000 -0.99930000
vn 0.00000000 -1.00000000 0.00000000
vn -0.03640000 0.00000000 -0.99930000
vn 0.99940000 0.00000000 -0.03600000
vn 0.99940000 0.00000000 -0.03600000
vn 0.03630000 0.00000000 0.99930000
vn 0.00000000 1.00000000 -0.00000000
vn 0.99940000 0.00000000 -0.03600000
vn 0.03630000 0.00000000 0.99930000
vn 0.00000000 -1.00000000 0.00000000
vn 0.00000000 1.00000000 -0.00000000
vn 0.99940000 0.00000000 -0.03600000
vn 0.00000000 -1.00000000 0.00000000
vn 0.99940000 0.00000000 -0.03600000
vn 0.00000000 1.00000000 -0.00000000
vn 0.99940000 0.00000000 -0.03600000
vn 0.03610000 0.00000000 0.99930000
vn -0.03610000 0.00000000 -0.99930000
vn 0.99940000 0.00000000 -0.03600000
vn 0.00000000 1.00000000 -0.00000000
vn 0.03610000 0.00000000 0.99930000
vn -0.99940000 0.00000000 0.03600000
vn 0.00000000 1.00000000 -0.00000000
vn 0.00000000 1.00000000 -0.00000000
vn -0.99940000 0.00000000 0.03600000
vn -0.03610000 0.00000000 -0.99930000
vn 0.03610000 0.00000000 0.99930000
vn 0.00000000 1.00000000 -0.00000000
vn 0.03610000 0.00000000 0.99930000
vn 0.00000000 1.00000000 -0.00000000
vn 0.03610000 0.00000000 0.99930000
vn 0.00000000 1.00000000 -0.00000000
vn -0.99940000 0.00000000 0.03600000
vn 0.00000000 1.00000000 -0.00000000
vn -0.03610000 0.00000000 -0.99930000
vn 0.00000000 1.00000000 -0.00000000
vn -0.03610000 0.00000000 -0.99930000
vn 0.00000000 1.00000000 -0.00000000
vn 0.00000000 1.00000000 -0.00000000
vn -0.03610000 0.00000000 -0.99930000
vn 0.99940000 0.00000000 -0.03600000
vn 0.00000000 1.00000000 -0.00000000
vn 0.99940000 0.00000000 -0.03600000
vn 0.00000000 -1.00000000 0.00000000
vn 0.03620000 0.00000000 0.99930000
vn 0.00000000 -1.00000000 0.00000000
vn -0.03620000 0.00000000 -0.99930000
vn 0.99940000 0.00000000 -0.03600000
vn 0.00000000 -1.00000000 0.00000000
vn -0.99940000 0.00000000 0.03600000
vn 0.03620000 0.00000000 0.99930000
vn -0.99940000 0.00000000 0.03600000
vn 0.00000000 -1.00000000 0.00000000
vn -0.03620000 0.00000000 -0.99930000
vn 0.03620000 0.00000000 0.99930000
vn 0.00000000 -1.00000000 0.00000000
vn 0.03620000 0.00000000 0.99930000
vn 0.00000000 -1.00000000 0.00000000
vn 0.00000000 -1.00000000 0.00000000
vn 0.03620000 0.00000000 0.99930000
vn -0.99940000 0.00000000 0.03600000
vn 0.00000000 -1.00000000 0.00000000
vn 0.00000000 -1.00000000 0.00000000
vn -0.03620000 0.00000000 -0.99930000
vn 0.00000000 -1.00000000 0.00000000
vn -0.03620000 0.00000000 -0.99930000
vn 0.00000000 -1.00000000 0.00000000
vn -0.03620000 0.00000000 -0.99930000
vn 0.00000000 -1.00000000 0.00000000
vn 0.99940000 0.00000000 -0.03600000
vn -0.03600000 0.00000000 -0.99940000
vn 0.99940000 0.00000000 -0.03540000
vn 0.00000000 1.00000000 -0.00000000
vn -0.03600000 0.00000000 -0.99940000
vn 0.99940000 0.00000000 -0.03540000
vn 0.00000000 -1.00000000 0.00000000
vn -0.99940000 0.00000000 0.03350000
vn -0.03600000 0.00000000 -0.99940000
vn 0.00000000 1.00000000 -0.00000000
vn 0.00000000 -1.00000000 0.00000000
vn -0.99940000 0.00000000 0.03350000
vn -0.03600000 0.00000000 -0.99940000
vn 0.00000000 1.00000000 -0.00000000
vn -0.03600000 0.00000000 -0.99940000
vn 0.00000000 1.00000000 -0.00000000
vn -0.03600000 0.00000000 -0.99940000
vn 0.00000000 1.00000000 -0.00000000
vn -0.03600000 0.00000000 -0.99940000
vn -0.03600000 0.00000000 -0.99940000
vn 0.00000000 -1.00000000 0.00000000
vn -0.03600000 0.00000000 -0.99940000
vn 0.00000000 -1.00000000 0.00000000
vn 0.00000000 -1.00000000 0.00000000
vn -0.03600000 0.00000000 -0.99940000
vn 0.99940000 0.00000000 -0.03600000
vn 0.00000000 1.00000000 -0.00000000
vn 0.03640000 0.00000000 0.99930000
vn 0.99940000 0.00000000 -0.03600000
vn 0.03640000 0.00000000 0.99930000
vn 0.00000000 -1.00000000 0.00000000
vn -0.03630000 0.00000000 -0.99930000
vn 0.99940000 0.00000000 -0.03600000
vn 0.00000000 1.00000000 0.00030000
vn -0.03630000 0.00000000 -0.99930000
vn 0.00000000 -1.00000000 -0.00030000
vn 0.99940000 0.00000000 -0.03600000
vn 0.00000000 1.00000000 0.00030000
vn 0.00000000 1.00000000 -0.00000000
vn 0.99940000 0.00000000 -0.03600000
vn 0.00000000 -1.00000000 0.00000000
vn 0.99940000 0.00000000 -0.03600000
vn 0.00000000 -1.00000000 -0.00030000
vn 0.00000000 1.00000000 -0.00000000
vn -0.99940000 0.00000000 0.03350000
vn 0.03600000 0.00000000 0.99940000
vn 0.00000000 -1.00000000 0.00000000
vn -0.99940000 0.00000000 0.03350000
vn 0.03600000 0.00000000 0.99940000
vn 0.99930000 0.00000000 -0.03630000
vn 0.00000000 1.00000000 -0.00000000
vn 0.03600000 0.00000000 0.99940000
vn 0.99930000 0.00000000 -0.03630000
vn 0.00000000 -1.00000000 0.00000000
vn 0.03600000 0.00000000 0.99940000
vn 0.00000000 1.00000000 -0.00000000
vn 0.03600000 0.00000000 0.99940000
vn 0.03600000 0.00000000 0.99940000
vn 0.00000000 1.00000000 -0.00000000
vn 0.00000000 1.00000000 -0.00000000
vn 0.03600000 0.00000000 0.99940000
vn 0.00000000 -1.00000000 0.00000000
vn 0.03600000 0.00000000 0.99940000
vn 0.00000000 -1.00000000 0.00000000
vn 0.03600000 0.00000000 0.99940000
vn 0.00000000 -1.00000000 0.00000000
vn 0.03600000 0.00000000 0.99940000
vn -0.99940000 0.00000000 0.03600000
vn 0.00000000 1.00000000 -0.00000000
vn -0.03640000 0.00000000 -0.99930000
vn -0.03640000 0.00000000 -0.99930000
vn -0.99940000 0.00000000 0.03600000
vn 0.00000000 -1.00000000 0.00000000
vn 0.00000000 1.00000000 -0.00000000
vn -0.99940000 0.00000000 0.03600000
vn 0.03630000 0.00000000 0.99930000
vn 0.00000000 -1.00000000 0.00000000
vn 0.03630000 0.00000000 0.99930000
vn -0.99940000 0.00000000 0.03600000
vn 0.00000000 1.00000000 -0.00000000
vn -0.99940000 0.00000000 0.03600000
vn -0.99940000 0.00000000 0.03600000
vn 0.00000000 -1.00000000 0.00000000
vn 0.03610000 0.00000000 0.99930000
vn 0.99940000 0.00000000 -0.03600000
vn 0.00000000 -1.00000000 0.00000000
vn -0.03610000 0.00000000 -0.99930000
vn 0.00000000 -1.00000000 0.00000000
vn 0.99940000 0.00000000 -0.03600000
vn -0.99940000 0.00000000 0.03600000
vn 0.03610000 0.00000000 0.99930000
vn 0.00000000 -1.00000000 0.00000000
vn -0.03610000 0.00000000 -0.99930000
vn -0.99940000 0.00000000 0.03600000
vn 0.00000000 -1.00000000 0.00000000
vn 0.03610000 0.00000000 0.99930000
vn 0.00000000 -1.00000000 0.00000000
vn 0.03610000 0.00000000 0.99930000
vn 0.00000000 -1.00000000 0.00000000
vn 0.00000000 -1.00000000 0.00000000
vn 0.03610000 0.00000000 0.99930000
vn -0.99940000 0.00000000 0.03600000
vn 0.00000000 -1.00000000 0.00000000
vn 0.00000000 -1.00000000 0.00000000
vn -0.03610000 0.00000000 -0.99930000
vn -0.03610000 0.00000000 -0.99930000
vn 0.00000000 -1.00000000 0.00000000
vn 0.00000000 -1.00000000 0.00000000
vn -0.03610000 0.00000000 -0.99930000
vn 0.99940000 0.00000000 -0.03600000
vn 0.00000000 -1.00000000 0.00000000
vn 0.00000000 1.00000000 -0.00000000
vn 0.99940000 0.00000000 -0.03600000
vn 0.03620000 0.00000000 0.99930000
vn -0.03620000 0.00000000 -0.99930000
vn 0.00000000 1.00000000 -0.00000000
vn 0.99940000 0.00000000 -0.03600000
vn 0.00000000 1.00000000 -0.00000000
vn 0.03620000 0.00000000 0.99930000
vn -0.99940000 0.00000000 0.03600000
vn -0.99940000 0.00000000 0.03600000
vn 0.00000000 1.00000000 -0.00000000
vn -0.03620000 0.00000000 -0.99930000
vn 0.03620000 0.00000000 0.99930000
vn 0.00000000 1.00000000 -0.00000000
vn 0.03620000 0.00000000 0.99930000
vn 0.00000000 1.00000000 -0.00000000
vn 0.00000000 1.00000000 -0.00000000
vn 0.03620000 0.00000000 0.99930000
vn 0.00000000 1.00000000 -0.00000000
vn -0.99940000 0.00000000 0.03600000
vn -0.03620000 0.00000000 -0.99930000
vn 0.00000000 1.00000000 -0.00000000
vn 0.00000000 1.00000000 -0.00000000
vn -0.03620000 0.00000000 -0.99930000
vn -0.03620000 0.00000000 -0.99930000
vn 0.00000000 1.00000000 -0.00000000
vn 0.99940000 0.00000000 -0.03600000
vn 0.00000000 1.00000000 -0.00000000
vt 0.11667100 0.00000000
vt 0.11667100 0.00000000
vt 0.11667100 0.00000000
vt 0.05906800 0.00000000
vt 0.05906800 0.00000000
vt 0.05906800 0.00000000
vt 0.11667100 0.88039900
vt 0.11667100 0.88039900
vt 0.11667100 0.88039900
vt 0.05906800 0.88039900
vt 0.05906800 0.88039900
vt 0.05906800 0.88039900
vt 0.11667100 0.22010000
vt 0.11667100 0.22010000
vt 0.11667100 0.44020000
vt 0.11667100 0.44020000
vt 0.11667100 0.66029900
vt 0.11667100 0.66029900
vt 0.05906800 0.66029900
vt 0.05906800 0.66029900
vt 0.05906800 0.44020000
vt 0.05906800 0.44020000
vt 0.05906800 0.22010000
vt 0.05906800 0.22010000
vt 0.11813600 0.00000000
vt 0.11813600 0.00000000
vt 0.11813600 0.00000000
vt 0.11813600 0.05906800
vt 0.11813600 0.05906800
vt 0.11813600 0.05906800
vt 0.24411700 0.00000000
vt 0.24411700 0.00000000
vt 0.24411700 0.00000000
vt 0.24411700 0.05906800
vt 0.24411700 0.05906800
vt 0.24411700 0.05906800
vt 0.18112600 0.00000000
vt 0.18112600 0.00000000
vt 0.18112600 0.00000000
vt 0.18112600 0.05906800
vt 0.18112600 0.05906800
vt 0.18112600 0.05906800
vt 0.05760300 0.00000000
vt 0.05760300 0.00000000
vt 0.05760300 0.00000000
vt 0.00000000 0.00000000
vt 0.00000000 0.00000000
vt 0.00000000 0.00000000
vt 0.05760300 0.88039900
vt 0.05760300 0.88039900
vt 0.05760300 0.88039900
vt 0.00000000 0.88039900
vt 0.00000000 0.88039900
vt 0.00000000 0.88039900
vt 0.05760300 0.22010000
vt 0.05760300 0.22010000
vt 0.05760300 0.44020000
vt 0.05760300 0.44020000
vt 0.05760300 0.66029900
vt 0.05760300 0.66029900
vt 0.00000000 0.66029900
vt 0.00000000 0.66029900
vt 0.00000000 0.44020000
vt 0.00000000 0.44020000
vt 0.00000000 0.22010000
vt 0.00000000 0.22010000
vt 0.11813600 0.14074700
vt 0.11813600 0.14074700
vt 0.11813600 0.14074700
vt 0.11813600 0.19981500
vt 0.11813600 0.19981500
vt 0.11813600 0.19981500
vt 0.24411700 0.14074700
vt 0.24411700 0.14074700
vt 0.24411700 0.14074700
vt 0.24411700 0.19981500
vt 0.24411700 0.19981500
vt 0.24411700 0.19981500
vt 0.18112600 0.14074700
vt 0.18112600 0.14074700
vt 0.18112600 0.19981500
vt 0.18112600 0.19981500
vt 0.11813600 0.58167900
vt 0.11813600 0.58167900
vt 0.11813600 0.58167900
vt 0.11813600 0.70765900
vt 0.11813600 0.70765900
vt 0.11813600 0.70765900
vt 0.99853500 0.58167900
vt 0.99853500 0.58167900
vt 0.99853500 0.58167900
vt 0.99853500 0.70765900
vt 0.99853500 0.70765900
vt 0.99853500 0.70765900
vt 0.33823600 0.58167900
vt 0.33823600 0.58167900
vt 0.55833600 0.58167900
vt 0.55833600 0.58167900
vt 0.77843500 0.58167900
vt 0.77843500 0.58167900
vt 0.99853500 0.64466900
vt 0.99853500 0.64466900
vt 0.77843500 0.70765900
vt 0.77843500 0.70765900
vt 0.55833600 0.70765900
vt 0.55833600 0.70765900
vt 0.33823600 0.70765900
vt 0.33823600 0.70765900
vt 0.11813600 0.64466900
vt 0.11813600 0.64466900
vt 0.11813600 0.28149300
vt 0.11813600 0.28149300
vt 0.11813600 0.28149300
vt 0.11813600 0.40747400
vt 0.11813600 0.40747400
vt 0.11813600 0.40747400
vt 0.99853500 0.28149300
vt 0.99853500 0.28149300
vt 0.99853500 0.28149300
vt 0.99853500 0.40747400
vt 0.99853500 0.40747400
vt 0.99853500 0.40747400
vt 0.33823600 0.28149300
vt 0.33823600 0.28149300
vt 0.55833600 0.28149300
vt 0.55833600 0.28149300
vt 0.77843500 0.28149300
vt 0.77843500 0.28149300
vt 0.99853500 0.34448400
vt 0.99853500 0.34448400
vt 0.77843500 0.40747400
vt 0.77843500 0.40747400
vt 0.55833600 0.40747400
vt 0.55833600 0.40747400
vt 0.33823600 0.40747400
vt 0.33823600 0.40747400
vt 0.11813600 0.34448400
vt 0.11813600 0.34448400
vt 0.11667100 0.00000000
vt 0.11667100 0.00000000
vt 0.11667100 0.00000000
vt 0.05906800 0.00000000
vt 0.05906800 0.00000000
vt 0.05906800 0.00000000
vt 0.11667100 0.88039900
vt 0.11667100 0.88039900
vt 0.11667100 0.88039900
vt 0.05906800 0.88039900
vt 0.05906800 0.88039900
vt 0.05906800 0.88039900
vt 0.11667100 0.22010000
vt 0.11667100 0.22010000
vt 0.11667100 0.44020000
vt 0.11667100 0.44020000
vt 0.11667100 0.66029900
vt 0.11667100 0.66029900
vt 0.05906800 0.66029900
vt 0.05906800 0.66029900
vt 0.05906800 0.44020000
vt 0.05906800 0.44020000
vt 0.05906800 0.22010000
vt 0.05906800 0.22010000
vt 0.11813600 0.00000000
vt 0.11813600 0.00000000
vt 0.11813600 0.00000000
vt 0.11813600 0.05906800
vt 0.11813600 0.05906800
vt 0.11813600 0.05906800
vt 0.24411700 0.00000000
vt 0.24411700 0.00000000
vt 0.24411700 0.00000000
vt 0.24411700 0.05906800
vt 0.24411700 0.05906800
vt 0.24411700 0.05906800
vt 0.18112600 0.00000000
vt 0.18112600 0.00000000
vt 0.18112600 0.00000000
vt 0.18112600 0.05906800
vt 0.18112600 0.05906800
vt 0.18112600 0.05906800
vt 0.05760300 0.00000000
vt 0.05760300 0.00000000
vt 0.05760300 0.00000000
vt 0.00000000 0.00000000
vt 0.00000000 0.00000000
vt 0.00000000 0.00000000
vt 0.05760300 0.88039900
vt 0.05760300 0.88039900
vt 0.05760300 0.88039900
vt 0.00000000 0.88039900
vt 0.00000000 0.88039900
vt 0.00000000 0.88039900
vt 0.05760300 0.22010000
vt 0.05760300 0.22010000
vt 0.05760300 0.44020000
vt 0.05760300 0.44020000
vt 0.05760300 0.66029900
vt 0.05760300 0.66029900
vt 0.00000000 0.66029900
vt 0.00000000 0.66029900
vt 0.00000000 0.44020000
vt 0.00000000 0.44020000
vt 0.00000000 0.22010000
vt 0.00000000 0.22010000
vt 0.11813600 0.14074700
vt 0.11813600 0.14074700
vt 0.11813600 0.14074700
vt 0.11813600 0.19981500
vt 0.11813600 0.19981500
vt 0.11813600 0.19981500
vt 0.24411700 0.14074700
vt 0.24411700 0.14074700
vt 0.24411700 0.14074700
vt 0.24411700 0.19981500
vt 0.24411700 0.19981500
vt 0.24411700 0.19981500
vt 0.18112600 0.14074700
vt 0.18112600 0.14074700
vt 0.18112600 0.19981500
vt 0.18112600 0.19981500
vt 0.11813600 0.58167900
vt 0.11813600 0.58167900
vt 0.11813600 0.58167900
vt 0.11813600 0.70765900
vt 0.11813600 0.70765900
vt 0.11813600 0.70765900
vt 0.99853500 0.58167900
vt 0.99853500 0.58167900
vt 0.99853500 0.58167900
vt 0.99853500 0.70765900
vt 0.99853500 0.70765900
vt 0.99853500 0.70765900
vt 0.33823600 0.58167900
vt 0.33823600 0.58167900
vt 0.55833600 0.58167900
vt 0.55833600 0.58167900
vt 0.77843500 0.58167900
vt 0.77843500 0.58167900
vt 0.99853500 0.64466900
vt 0.99853500 0.64466900
vt 0.77843500 0.70765900
vt 0.77843500 0.70765900
vt 0.55833600 0.70765900
vt 0.55833600 0.70765900
vt 0.33823600 0.70765900
vt 0.33823600 0.70765900
vt 0.11813600 0.64466900
vt 0.11813600 0.64466900
vt 0.11813600 0.28149300
vt 0.11813600 0.28149300
vt 0.11813600 0.28149300
vt 0.11813600 0.40747400
vt 0.11813600 0.40747400
vt 0.11813600 0.40747400
vt 0.99853500 0.28149300
vt 0.99853500 0.28149300
vt 0.99853500 0.28149300
vt 0.99853500 0.40747400
vt 0.99853500 0.40747400
vt 0.99853500 0.40747400
vt 0.33823600 0.28149300
vt 0.33823600 0.28149300
vt 0.55833600 0.28149300
vt 0.55833600 0.28149300
vt 0.77843500 0.28149300
vt 0.77843500 0.28149300
vt 0.99853500 0.34448400
vt 0.99853500 0.34448400
vt 0.77843500 0.40747400
vt 0.77843500 0.40747400
vt 0.55833600 0.40747400
vt 0.55833600 0.40747400
vt 0.33823600 0.40747400
vt 0.33823600 0.40747400
vt 0.11813600 0.34448400
vt 0.11813600 0.34448400
f 1/1/1 13/13/13 24/24/24
f 13/13/13 15/15/15 21/21/21
f 18/18/18 7/7/7 10/10/10
f 19/19/19 21/21/21 15/15/15
f 30/30/30 26/26/26 39/39/39
f 31/31/31 34/34/34 40/40/40
f 56/56/56 65/65/65 46/46/46
f 65/65/65 56/56/56 58/58/58
f 49/49/49 52/52/52 62/62/62
f 59/59/59 62/62/62 63/63/63
f 72/72/72 68/68/68 80/80/80
f 73/73/73 76/76/76 82/82/82
f 110/110/110 96/96/96 83/83/83
f 107/107/107 96/96/96 110/110/110
f 110/110/110 88/88/88 107/107/107
f 106/106/106 98/98/98 96/96/96
f 98/98/98 106/106/106 100/100/100
f 102/102/102 91/91/91 100/100/100
f 92/92/92 102/102/102 104/104/104
f 100/100/100 104/104/104 102/102/102
f 137/137/137 112/112/112 124/124/124
f 135/135/135 137/137/137 124/124/124
f 137/137/137 135/135/135 114/114/114
f 133/133/133 135/135/135 124/124/124
f 126/126/126 127/127/127 133/133/133
f 130/130/130 127/127/127 117/117/117
f 121/121/121 131/131/131 130/130/130
f 127/127/127 130/130/130 131/131/131
f 1/1/1 24/24/24 5/5/5
f 13/13/13 21/21/21 24/24/24
f 18/18/18 10/10/10 19/19/19
f 19/19/19 15/15/15 18/18/18
f 30/30/30 39/39/39 40/40/40
f 31/31/31 40/40/40 39/39/39
f 56/56/56 46/46/46 43/43/43
f 65/65/65 58/58/58 63/63/63
f 49/49/49 62/62/62 59/59/59
f 59/59/59 63/63/63 58/58/58
f 72/72/72 80/80/80 82/82/82
f 73/73/73 82/82/82 80/80/80
f 106/106/106 96/96/96 107/107/107
f 106/106/106 104/104/104 100/100/100
f 133/133/133 124/124/124 126/126/126
f 127/127/127 131/131/131 133/133/133
f 139/139/139 162/162/162 152/152/152
f 152/152/152 159/159/159 154/154/154
f 156/156/156 150/150/150 146/146/146
f 157/157/157 154/154/154 159/159/159
f 166/166/166 177/177/177 163/163/163
f 170/170/170 179/179/179 174/174/174
f 194/194/194 186/186/186 204/204/204
f 204/204/204 195/195/195 194/194/194
f 189/189/189 200/200/200 192/192/192
f 198/198/198 202/202/202 200/200/200
f 209/209/209 218/218/218 205/205/205
f 212/212/212 219/219/219 216/216/216
f 248/248/248 223/223/223 234/234/234
f 245/245/245 248/248/248 234/234/234
f 248/248/248 245/245/245 225/225/225
f 244/244/244 234/234/234 236/236/236
f 236/236/236 237/237/237 244/244/244
f 240/240/240 237/237/237 229/229/229
f 232/232/232 241/241/241 240/240/240
f 237/237/237 240/240/240 241/241/241
f 276/276/276 262/262/262 249/249/249
f 274/274/274 262/262/262 276/276/276
f 276/276/276 253/253/253 274/274/274
f 271/271/271 262/262/262 274/274/274
f 264/264/264 271/271/271 265/265/265
f 267/267/267 255/255/255 265/265/265
f 259/259/259 267/267/267 270/270/270
f 265/265/265 270/270/270 267/267/267
f 139/139/139 142/142/142 162/162/162
f 152/152/152 162/162/162 159/159/159
f 156/156/156 157/157/157 150/150/150
f 157/157/157 156/156/156 154/154/154
f 166/166/166 179/179/179 177/177/177
f 170/170/170 177/177/177 179/179/179
f 194/194/194 183/183/183 186/186/186
f 204/204/204 202/202/202 195/195/195
f 189/189/189 198/198/198 200/200/200
f 198/198/198 195/195/195 202/202/202
f 209/209/209 219/219/219 218/218/218
f 212/212/212 218/218/218 219/219/219
f 244/244/244 245/245/245 234/234/234
f 244/244/244 237/237/237 241/241/241
f 271/271/271 264/264/264 262/262/262
f 265/265/265 271/271/271 270/270/270
f 3/3/3 6/6/6 143/143/143
f 143/143/143 140/140/140 3/3/3
f 12/12/12 9/9/9 145/145/145
f 145/145/145 149/149/149 12/12/12
f 14/14/14 2/2/2 141/141/141
f 141/141/141 151/151/151 14/14/14
f 16/16/16 14/14/14 151/151/151
f 151/151/151 153/153/153 16/16/16
f 27/27/27 29/29/29 167/167/167
f 167/167/167 165/165/165 27/27/27
f 61/61/61 53/53/53 191/191/191
f 191/191/191 199/199/199 61/61/61
f 36/36/36 33/33/33 169/169/169
f 169/169/169 172/172/172 36/36/36
f 45/45/45 47/47/47 185/185/185
f 185/185/185 182/182/182 45/45/45
f 54/54/54 50/50/50 187/187/187
f 187/187/187 190/190/190 54/54/54
f 57/57/57 55/55/55 193/193/193
f 193/193/193 196/196/196 57/57/57
f 51/51/51 60/60/60 197/197/197
f 197/197/197 188/188/188 51/51/51
f 69/69/69 71/71/71 208/208/208
f 208/208/208 207/207/207 69/69/69
f 105/105/105 108/108/108 246/246/246
f 246/246/246 243/243/243 105/105/105
f 77/77/77 74/74/74 213/213/213
f 213/213/213 215/215/215 77/77/77
f 48/48/48 66/66/66 203/203/203
f 203/203/203 184/184/184 48/48/48
f 95/95/95 97/97/97 235/235/235
f 235/235/235 233/233/233 95/95/95
f 94/94/94 103/103/103 242/242/242
f 242/242/242 230/230/230 94/94/94
f 109/109/109 84/84/84 222/222/222
f 222/222/222 247/247/247 109/109/109
f 8/8/8 17/17/17 155/155/155
f 155/155/155 147/147/147 8/8/8
f 123/123/123 113/113/113 251/251/251
f 251/251/251 261/261/261 123/123/123
f 64/64/64 61/61/61 199/199/199
f 199/199/199 201/201/201 64/64/64
f 128/128/128 125/125/125 263/263/263
f 263/263/263 266/266/266 128/128/128
f 129/129/129 118/118/118 257/257/257
f 257/257/257 268/268/268 129/129/129
f 132/132/132 122/122/122 260/260/260
f 260/260/260 269/269/269 132/132/132
f 20/20/20 11/11/11 148/148/148
f 148/148/148 158/158/158 20/20/20
f 66/66/66 64/64/64 201/201/201
f 201/201/201 203/203/203 66/66/66
f 17/17/17 16/16/16 153/153/153
f 153/153/153 155/155/155 17/17/17
f 4/4/4 23/23/23 161/161/161
f 161/161/161 144/144/144 4/4/4
f 103/103/103 105/105/105 243/243/243
f 243/243/243 242/242/242 103/103/103
f 60/60/60 57/57/57 196/196/196
f 196/196/196 197/197/197 60/60/60
f 125/125/125 123/123/123 261/261/261
f 261/261/261 263/263/263 125/125/125
f 22/22/22 20/20/20 158/158/158
f 158/158/158 160/160/160 22/22/22
f 79/79/79 67/67/67 206/206/206
f 206/206/206 217/217/217 79/79/79
f 119/119/119 128/128/128 266/266/266
f 266/266/266 256/256/256 119/119/119
f 23/23/23 22/22/22 160/160/160
f 160/160/160 161/161/161 23/23/23
f 70/70/70 81/81/81 220/220/220
f 220/220/220 210/210/210 70/70/70
f 111/111/111 138/138/138 275/275/275
f 275/275/275 250/250/250 111/111/111
f 75/75/75 79/79/79 217/217/217
f 217/217/217 211/211/211 75/75/75
f 115/115/115 136/136/136 273/273/273
f 273/273/273 252/252/252 115/115/115
f 120/120/120 129/129/129 268/268/268
f 268/268/268 258/258/258 120/120/120
f 138/138/138 116/116/116 254/254/254
f 254/254/254 275/275/275 138/138/138
f 81/81/81 78/78/78 214/214/214
f 214/214/214 220/220/220 81/81/81
f 38/38/38 25/25/25 164/164/164
f 164/164/164 176/176/176 38/38/38
f 28/28/28 41/41/41 178/178/178
f 178/178/178 168/168/168 28/28/28
f 32/32/32 37/37/37 175/175/175
f 175/175/175 171/171/171 32/32/32
f 134/134/134 132/132/132 269/269/269
f 269/269/269 272/272/272 134/134/134
f 42/42/42 35/35/35 173/173/173
f 173/173/173 180/180/180 42/42/42
f 85/85/85 95/95/95 233/233/233
f 233/233/233 221/221/221 85/85/85
f 136/136/136 134/134/134 272/272/272
f 272/272/272 273/273/273 136/136/136
f 99/99/99 89/89/89 228/228/228
f 228/228/228 238/238/238 99/99/99
f 90/90/90 101/101/101 239/239/239
f 239/239/239 227/227/227 90/90/90
f 108/108/108 86/86/86 224/224/224
f 224/224/224 246/246/246 108/108/108
f 101/101/101 93/93/93 231/231/231
f 231/231/231 239/239/239 101/101/101
f 87/87/87 109/109/109 247/247/247
f 247/247/247 226/226/226 87/87/87
f 55/55/55 44/44/44 181/181/181
f 181/181/181 193/193/193 55/55/55
f 97/97/97 99/99/99 238/238/238
f 238/238/238 235/235/235 97/97/97

