mtllib material.mtl
usemtl Material-7011油漆.013
v -0.03110800 -0.12493200 -0.06910000
v -0.03110800 -0.12493200 -0.06910000
v -0.03110800 -0.12493200 -0.06910000
v -0.03110800 -0.12563200 -0.06910000
v -0.03110800 -0.12563200 -0.06910000
v -0.03110800 -0.12563200 -0.06910000
v -0.02812400 -0.12493200 -0.06920700
v -0.02812400 -0.12493200 -0.06920700
v -0.02812400 -0.12493200 -0.06920700
v -0.02812400 -0.12563200 -0.06920700
v -0.02812400 -0.12563200 -0.06920700
v -0.02812400 -0.12563200 -0.06920700
v -0.03011300 -0.12493200 -0.06913600
v -0.03011300 -0.12493200 -0.06913600
v -0.02911800 -0.12493200 -0.06917100
v -0.02911800 -0.12493200 -0.06917100
v -0.02911800 -0.12563200 -0.06917100
v -0.02911800 -0.12563200 -0.06917100
v -0.02911800 -0.12563200 -0.06917100
v -0.03011300 -0.12563200 -0.06913600
v -0.03011300 -0.12563200 -0.06913600
v -0.03011300 -0.12563200 -0.06913600
v -0.02812300 -0.12493200 -0.06920700
v -0.02812300 -0.12493200 -0.06920700
v -0.02812300 -0.12493200 -0.06920700
v -0.02812300 -0.12563200 -0.06920700
v -0.02812300 -0.12563200 -0.06920700
v -0.02812300 -0.12563200 -0.06920700
v -0.02781400 -0.12493200 -0.06062700
v -0.02781400 -0.12493200 -0.06062700
v -0.02781400 -0.12493200 -0.06062700
v -0.02781400 -0.12563200 -0.06062700
v -0.02781400 -0.12563200 -0.06062700
v -0.02781400 -0.12563200 -0.06062700
v -0.02804600 -0.12493200 -0.06706200
v -0.02804600 -0.12493200 -0.06706200
v -0.02804600 -0.12493200 -0.06706200
v -0.02796900 -0.12493200 -0.06491700
v -0.02796900 -0.12493200 -0.06491700
v -0.02789100 -0.12493200 -0.06277200
v -0.02789100 -0.12493200 -0.06277200
v -0.02789100 -0.12493200 -0.06277200
v -0.02789100 -0.12563200 -0.06277200
v -0.02789100 -0.12563200 -0.06277200
v -0.02796900 -0.12563200 -0.06491700
v -0.02796900 -0.12563200 -0.06491700
v -0.02804600 -0.12563200 -0.06706200
v -0.02804600 -0.12563200 -0.06706200
v -0.02781500 -0.12493200 -0.06062700
v -0.02781500 -0.12493200 -0.06062700
v -0.02781500 -0.12493200 -0.06062700
v -0.02781500 -0.12563200 -0.06062700
v -0.02781500 -0.12563200 -0.06062700
v -0.02781500 -0.12563200 -0.06062700
v -0.03079900 -0.12493200 -0.06051900
v -0.03079900 -0.12493200 -0.06051900
v -0.03079900 -0.12493200 -0.06051900
v -0.03079900 -0.12563200 -0.06051900
v -0.03079900 -0.12563200 -0.06051900
v -0.03079900 -0.12563200 -0.06051900
v -0.02930700 -0.12563200 -0.06057300
v -0.02930700 -0.12563200 -0.06057300
v -0.02930700 -0.12563200 -0.06057300
v -0.02930700 -0.12493200 -0.06057300
v -0.02930700 -0.12493200 -0.06057300
v -0.03079900 -0.12493200 -0.06052000
v -0.03079900 -0.12493200 -0.06052000
v -0.03079900 -0.12493200 -0.06052000
v -0.03079900 -0.12563200 -0.06052000
v -0.03079900 -0.12563200 -0.06052000
v -0.03079900 -0.12563200 -0.06052000
v -0.03110800 -0.12493200 -0.06909900
v -0.03110800 -0.12493200 -0.06909900
v -0.03110800 -0.12493200 -0.06909900
v -0.03110800 -0.12563200 -0.06909900
v -0.03110800 -0.12563200 -0.06909900
v -0.03110800 -0.12563200 -0.06909900
v -0.03087600 -0.12493200 -0.06266500
v -0.03087600 -0.12493200 -0.06266500
v -0.03087600 -0.12493200 -0.06266500
v -0.03095400 -0.12493200 -0.06481000
v -0.03095400 -0.12493200 -0.06481000
v -0.03095400 -0.12493200 -0.06481000
v -0.03103100 -0.12493200 -0.06695400
v -0.03103100 -0.12493200 -0.06695400
v -0.03103100 -0.12563200 -0.06695400
v -0.03103100 -0.12563200 -0.06695400
v -0.03095400 -0.12563200 -0.06481000
v -0.03095400 -0.12563200 -0.06481000
v -0.03087600 -0.12563200 -0.06266500
v -0.03087600 -0.12563200 -0.06266500
v -0.02812400 -0.12493100 -0.06920700
v -0.02812400 -0.12493100 -0.06920700
v -0.02812400 -0.12493100 -0.06920700
v -0.03110800 -0.12493100 -0.06909900
v -0.03110800 -0.12493100 -0.06909900
v -0.03110800 -0.12493100 -0.06909900
v -0.02781500 -0.12493100 -0.06062700
v -0.02781500 -0.12493100 -0.06062700
v -0.02781500 -0.12493100 -0.06062700
v -0.03079900 -0.12493100 -0.06052000
v -0.03079900 -0.12493100 -0.06052000
v -0.03079900 -0.12493100 -0.06052000
v -0.03011300 -0.12493100 -0.06913500
v -0.03011300 -0.12493100 -0.06913500
v -0.02911800 -0.12493100 -0.06917100
v -0.02911800 -0.12493100 -0.06917100
v -0.02804600 -0.12493100 -0.06706200
v -0.02804600 -0.12493100 -0.06706200
v -0.02796900 -0.12493100 -0.06491700
v -0.02796900 -0.12493100 -0.06491700
v -0.02796900 -0.12493100 -0.06491700
v -0.02789200 -0.12493100 -0.06277200
v -0.02789200 -0.12493100 -0.06277200
v -0.02789200 -0.12493100 -0.06277200
v -0.02930700 -0.12493100 -0.06057400
v -0.02930700 -0.12493100 -0.06057400
v -0.03087600 -0.12493100 -0.06266500
v -0.03087600 -0.12493100 -0.06266500
v -0.03095300 -0.12493100 -0.06481000
v -0.03095300 -0.12493100 -0.06481000
v -0.03095300 -0.12493100 -0.06481000
v -0.03103000 -0.12493100 -0.06695400
v -0.03103000 -0.12493100 -0.06695400
v -0.03103000 -0.12493100 -0.06695400
v -0.02812400 -0.12563200 -0.06920700
v -0.02812400 -0.12563200 -0.06920700
v -0.02812400 -0.12563200 -0.06920700
v -0.03110800 -0.12563200 -0.06909900
v -0.03110800 -0.12563200 -0.06909900
v -0.03110800 -0.12563200 -0.06909900
v -0.02781500 -0.12563200 -0.06062700
v -0.02781500 -0.12563200 -0.06062700
v -0.02781500 -0.12563200 -0.06062700
v -0.03079900 -0.12563200 -0.06052000
v -0.03079900 -0.12563200 -0.06052000
v -0.03079900 -0.12563200 -0.06052000
v -0.03011300 -0.12563200 -0.06913500
v -0.03011300 -0.12563200 -0.06913500
v -0.02911800 -0.12563200 -0.06917100
v -0.02911800 -0.12563200 -0.06917100
v -0.02804600 -0.12563200 -0.06706200
v -0.02804600 -0.12563200 -0.06706200
v -0.02804600 -0.12563200 -0.06706200
v -0.02796900 -0.12563200 -0.06491700
v -0.02796900 -0.12563200 -0.06491700
v -0.02789200 -0.12563200 -0.06277200
v -0.02789200 -0.12563200 -0.06277200
v -0.02789200 -0.12563200 -0.06277200
v -0.02930700 -0.12563200 -0.06057400
v -0.02930700 -0.12563200 -0.06057400
v -0.02930700 -0.12563200 -0.06057400
v -0.03087600 -0.12563200 -0.06266500
v -0.03087600 -0.12563200 -0.06266500
v -0.03087600 -0.12563200 -0.06266500
v -0.03095300 -0.12563200 -0.06481000
v -0.03095300 -0.12563200 -0.06481000
v -0.03095300 -0.12563200 -0.06481000
v -0.03103000 -0.12563200 -0.06695400
v -0.03103000 -0.12563200 -0.06695400
v -0.03110800 -0.12493200 -0.06909900
v -0.03110800 -0.12493200 -0.06909900
v -0.03110800 -0.12493200 -0.06909900
v -0.03110800 -0.12563200 -0.06909900
v -0.03110800 -0.12563200 -0.06909900
v -0.03110800 -0.12563200 -0.06909900
v -0.02812400 -0.12493200 -0.06920600
v -0.02812400 -0.12493200 -0.06920600
v -0.02812400 -0.12493200 -0.06920600
v -0.02812400 -0.12563200 -0.06920600
v -0.02812400 -0.12563200 -0.06920600
v -0.02812400 -0.12563200 -0.06920600
v -0.03011300 -0.12493200 -0.06913500
v -0.03011300 -0.12493200 -0.06913500
v -0.02911800 -0.12493200 -0.06917000
v -0.02911800 -0.12493200 -0.06917000
v -0.02911800 -0.12563200 -0.06917000
v -0.02911800 -0.12563200 -0.06917000
v -0.02911800 -0.12563200 -0.06917000
v -0.03011300 -0.12563200 -0.06913500
v -0.03011300 -0.12563200 -0.06913500
v -0.03011300 -0.12563200 -0.06913500
v -0.02812400 -0.12493200 -0.06920700
v -0.02812400 -0.12493200 -0.06920700
v -0.02812400 -0.12493200 -0.06920700
v -0.02812400 -0.12563200 -0.06920700
v -0.02812400 -0.12563200 -0.06920700
v -0.02812400 -0.12563200 -0.06920700
v -0.02781500 -0.12493200 -0.06062700
v -0.02781500 -0.12493200 -0.06062700
v -0.02781500 -0.12493200 -0.06062700
v -0.02781500 -0.12563200 -0.06062700
v -0.02781500 -0.12563200 -0.06062700
v -0.02781500 -0.12563200 -0.06062700
v -0.02804700 -0.12493200 -0.06706200
v -0.02804700 -0.12493200 -0.06706200
v -0.02804700 -0.12493200 -0.06706200
v -0.02797000 -0.12493200 -0.06491700
v -0.02797000 -0.12493200 -0.06491700
v -0.02789200 -0.12493200 -0.06277200
v -0.02789200 -0.12493200 -0.06277200
v -0.02789200 -0.12493200 -0.06277200
v -0.02789200 -0.12563200 -0.06277200
v -0.02789200 -0.12563200 -0.06277200
v -0.02797000 -0.12563200 -0.06491700
v -0.02797000 -0.12563200 -0.06491700
v -0.02804700 -0.12563200 -0.06706200
v -0.02804700 -0.12563200 -0.06706200
v -0.02781500 -0.12493200 -0.06062800
v -0.02781500 -0.12493200 -0.06062800
v -0.02781500 -0.12493200 -0.06062800
v -0.02781500 -0.12563200 -0.06062800
v -0.02781500 -0.12563200 -0.06062800
v -0.02781500 -0.12563200 -0.06062800
v -0.03079900 -0.12493200 -0.06052000
v -0.03079900 -0.12493200 -0.06052000
v -0.03079900 -0.12493200 -0.06052000
v -0.03079900 -0.12563200 -0.06052000
v -0.03079900 -0.12563200 -0.06052000
v -0.03079900 -0.12563200 -0.06052000
v -0.02930700 -0.12563200 -0.06057400
v -0.02930700 -0.12563200 -0.06057400
v -0.02930700 -0.12563200 -0.06057400
v -0.02930700 -0.12493200 -0.06057400
v -0.02930700 -0.12493200 -0.06057400
v -0.03079800 -0.12493200 -0.06052000
v -0.03079800 -0.12493200 -0.06052000
v -0.03079800 -0.12493200 -0.06052000
v -0.03079800 -0.12563200 -0.06052000
v -0.03079800 -0.12563200 -0.06052000
v -0.03079800 -0.12563200 -0.06052000
v -0.03110700 -0.12493200 -0.06909900
v -0.03110700 -0.12493200 -0.06909900
v -0.03110700 -0.12493200 -0.06909900
v -0.03110700 -0.12563200 -0.06909900
v -0.03110700 -0.12563200 -0.06909900
v -0.03110700 -0.12563200 -0.06909900
v -0.03087500 -0.12493200 -0.06266500
v -0.03087500 -0.12493200 -0.06266500
v -0.03087500 -0.12493200 -0.06266500
v -0.03095300 -0.12493200 -0.06481000
v -0.03095300 -0.12493200 -0.06481000
v -0.03095300 -0.12493200 -0.06481000
v -0.03103000 -0.12493200 -0.06695400
v -0.03103000 -0.12493200 -0.06695400
v -0.03103000 -0.12563200 -0.06695400
v -0.03103000 -0.12563200 -0.06695400
v -0.03095300 -0.12563200 -0.06481000
v -0.03095300 -0.12563200 -0.06481000
v -0.03087500 -0.12563200 -0.06266500
v -0.03087500 -0.12563200 -0.06266500
v -0.02812400 -0.12493200 -0.06920700
v -0.02812400 -0.12493200 -0.06920700
v -0.02812400 -0.12493200 -0.06920700
v -0.03110800 -0.12493200 -0.06909900
v -0.03110800 -0.12493200 -0.06909900
v -0.03110800 -0.12493200 -0.06909900
v -0.02781500 -0.12493200 -0.06062700
v -0.02781500 -0.12493200 -0.06062700
v -0.02781500 -0.12493200 -0.06062700
v -0.03079900 -0.12493200 -0.06052000
v -0.03079900 -0.12493200 -0.06052000
v -0.03079900 -0.12493200 -0.06052000
v -0.03011300 -0.12493200 -0.06913500
v -0.03011300 -0.12493200 -0.06913500
v -0.02911800 -0.12493200 -0.06917100
v -0.02911800 -0.12493200 -0.06917100
v -0.02804600 -0.12493200 -0.06706200
v -0.02804600 -0.12493200 -0.06706200
v -0.02796900 -0.12493200 -0.06491700
v -0.02796900 -0.12493200 -0.06491700
v -0.02796900 -0.12493200 -0.06491700
v -0.02789200 -0.12493200 -0.06277200
v -0.02789200 -0.12493200 -0.06277200
v -0.02789200 -0.12493200 -0.06277200
v -0.02930700 -0.12493200 -0.06057400
v -0.02930700 -0.12493200 -0.06057400
v -0.03087600 -0.12493200 -0.06266500
v -0.03087600 -0.12493200 -0.06266500
v -0.03095300 -0.12493200 -0.06481000
v -0.03095300 -0.12493200 -0.06481000
v -0.03095300 -0.12493200 -0.06481000
v -0.03103000 -0.12493200 -0.06695400
v -0.03103000 -0.12493200 -0.06695400
v -0.03103000 -0.12493200 -0.06695400
v -0.02812400 -0.12563100 -0.06920700
v -0.02812400 -0.12563100 -0.06920700
v -0.02812400 -0.12563100 -0.06920700
v -0.03110800 -0.12563100 -0.06909900
v -0.03110800 -0.12563100 -0.06909900
v -0.03110800 -0.12563100 -0.06909900
v -0.02781500 -0.12563100 -0.06062700
v -0.02781500 -0.12563100 -0.06062700
v -0.02781500 -0.12563100 -0.06062700
v -0.03079900 -0.12563100 -0.06052000
v -0.03079900 -0.12563100 -0.06052000
v -0.03079900 -0.12563100 -0.06052000
v -0.03011300 -0.12563100 -0.06913500
v -0.03011300 -0.12563100 -0.06913500
v -0.02911800 -0.12563100 -0.06917100
v -0.02911800 -0.12563100 -0.06917100
v -0.02804600 -0.12563100 -0.06706200
v -0.02804600 -0.12563100 -0.06706200
v -0.02804600 -0.12563100 -0.06706200
v -0.02796900 -0.12563100 -0.06491700
v -0.02796900 -0.12563100 -0.06491700
v -0.02789200 -0.12563100 -0.06277200
v -0.02789200 -0.12563100 -0.06277200
v -0.02789200 -0.12563100 -0.06277200
v -0.02930700 -0.12563100 -0.06057400
v -0.02930700 -0.12563100 -0.06057400
v -0.02930700 -0.12563100 -0.06057400
v -0.03087600 -0.12563100 -0.06266500
v -0.03087600 -0.12563100 -0.06266500
v -0.03087600 -0.12563100 -0.06266500
v -0.03095300 -0.12563100 -0.06481000
v -0.03095300 -0.12563100 -0.06481000
v -0.03095300 -0.12563100 -0.06481000
v -0.03103000 -0.12563100 -0.06695400
v -0.03103000 -0.12563100 -0.06695400
vn -0.03600000 0.00000000 -0.99940000
vn -0.99940000 0.00000000 0.03560000
vn 0.00000000 1.00000000 -0.00000000
vn 0.00000000 -1.00000000 0.00000000
vn -0.03600000 0.00000000 -0.99940000
vn -0.99940000 0.00000000 0.03560000
vn 0.99940000 0.00000000 -0.03380000
vn -0.03600000 0.00000000 -0.99940000
vn 0.00000000 1.00000000 -0.00000000
vn -0.03600000 0.00000000 -0.99940000
vn 0.99940000 0.00000000 -0.03380000
vn 0.00000000 -1.00000000 0.00000000
vn -0.03600000 0.00000000 -0.99940000
vn 0.00000000 1.00000000 -0.00000000
vn -0.03600000 0.00000000 -0.99940000
vn 0.00000000 1.00000000 -0.00000000
vn -0.03600000 0.00000000 -0.99940000
vn 0.00000000 -1.00000000 0.00000000
vn 0.00000000 -0.99990000 -0.01470000
vn 0.00000000 -1.00000000 0.00000000
vn -0.03600000 0.00000000 -0.99940000
vn 0.00000000 -0.99990000 -0.01470000
vn 0.00000000 1.00000000 0.00040000
vn -0.03120000 0.00000000 -0.99950000
vn 0.99940000 0.00000000 -0.03600000
vn 0.00000000 -1.00000000 0.00000000
vn -0.03120000 0.00000000 -0.99950000
vn 0.99940000 0.00000000 -0.03600000
vn 0.04160000 0.00000000 0.99910000
vn 0.00000000 1.00000000 -0.00040000
vn 0.99940000 0.00000000 -0.03600000
vn 0.04160000 0.00000000 0.99910000
vn 0.99940000 0.00000000 -0.03600000
vn 0.00000000 -1.00000000 0.00000000
vn 0.00000000 1.00000000 0.00040000
vn 0.99940000 0.00000000 -0.03600000
vn 0.00000000 1.00000000 -0.00000000
vn 0.00000000 1.00000000 -0.00000000
vn 0.99940000 0.00000000 -0.03600000
vn 0.00000000 1.00000000 -0.00040000
vn 0.99940000 0.00000000 -0.03600000
vn 0.00000000 1.00000000 -0.00000000
vn 0.00000000 -1.00000000 0.00000000
vn 0.99940000 0.00000000 -0.03600000
vn 0.00000000 -1.00000000 0.00000000
vn 0.99940000 0.00000000 -0.03600000
vn 0.99940000 0.00000000 -0.03600000
vn 0.00000000 -1.00000000 0.00000000
vn 0.03600000 0.00000000 0.99940000
vn 0.99940000 0.00000000 -0.03360000
vn 0.00000000 1.00000000 -0.00000000
vn 0.03600000 0.00000000 0.99940000
vn 0.00000000 -1.00000000 0.00000000
vn 0.99940000 0.00000000 -0.03360000
vn 0.03600000 0.00000000 0.99940000
vn 0.00000000 1.00000000 -0.00000000
vn -0.99940000 0.00000000 0.03540000
vn 0.00000000 -1.00000000 -0.00980000
vn -0.99940000 0.00000000 0.03540000
vn 0.03600000 0.00000000 0.99940000
vn 0.00000000 -1.00000000 -0.00980000
vn 0.03600000 0.00000000 0.99940000
vn 0.00000000 -1.00000000 0.00000000
vn 0.00000000 1.00000000 -0.00000000
vn 0.03600000 0.00000000 0.99940000
vn -0.99940000 0.00000000 0.03600000
vn 0.00000000 1.00000000 -0.00000000
vn 0.03630000 0.00000000 0.99930000
vn -0.99940000 0.00000000 0.03600000
vn 0.00000000 -1.00000000 0.00000000
vn 0.03630000 0.00000000 0.99930000
vn -0.99940000 0.00000000 0.03600000
vn 0.00000000 1.00000000 -0.00000000
vn -0.03120000 0.00000000 -0.99950000
vn 0.00000000 -1.00000000 0.00000000
vn -0.03120000 0.00000000 -0.99950000
vn -0.99940000 0.00000000 0.03600000
vn 0.00000000 1.00000000 0.00040000
vn -0.99940000 0.00000000 0.03600000
vn 0.00000000 1.00000000 -0.00000000
vn 0.00000000 1.00000000 0.00040000
vn 0.00000000 1.00000000 -0.00000000
vn -0.99940000 0.00000000 0.03600000
vn 0.00000000 1.00000000 -0.00000000
vn -0.99940000 0.00000000 0.03600000
vn -0.99940000 0.00000000 0.03600000
vn 0.00000000 -1.00000000 0.00000000
vn -0.99940000 0.00000000 0.03600000
vn 0.00000000 -1.00000000 0.00000000
vn 0.00000000 -1.00000000 0.00000000
vn -0.99940000 0.00000000 0.03600000
vn -0.03590000 0.00000000 -0.99940000
vn 0.99930000 0.00000000 -0.03620000
vn 0.00000000 1.00000000 -0.00000000
vn -0.03590000 0.00000000 -0.99940000
vn 0.00000000 1.00000000 -0.00000000
vn -0.99930000 0.00000000 0.03620000
vn 0.99930000 0.00000000 -0.03620000
vn 0.00000000 1.00000000 -0.00000000
vn 0.03600000 0.00000000 0.99940000
vn -0.99930000 0.00000000 0.03620000
vn 0.00000000 1.00000000 -0.00000000
vn 0.03600000 0.00000000 0.99940000
vn 0.00000000 1.00000000 -0.00000000
vn -0.03590000 0.00000000 -0.99940000
vn 0.00000000 1.00000000 -0.00000000
vn -0.03590000 0.00000000 -0.99940000
vn 0.00000000 1.00000000 -0.00000000
vn 0.99930000 0.00000000 -0.03620000
vn 0.00000000 1.00000000 -0.00000000
vn 0.99930000 0.00000000 -0.03620000
vn 0.99940000 0.00000000 -0.03580000
vn 0.99930000 0.00000000 -0.03620000
vn 0.99940000 0.00000000 -0.03580000
vn 0.00000000 1.00000000 -0.00000000
vn 0.00000000 1.00000000 -0.00000000
vn 0.03600000 0.00000000 0.99940000
vn -0.99930000 0.00000000 0.03620000
vn 0.00000000 1.00000000 -0.00000000
vn 0.00000000 1.00000000 -0.00000000
vn -0.99940000 0.00000000 0.03580000
vn -0.99930000 0.00000000 0.03620000
vn -0.99930000 0.00000000 0.03620000
vn 0.00000000 1.00000000 -0.00000000
vn -0.99940000 0.00000000 0.03580000
vn -0.03560000 0.00000000 -0.99940000
vn 0.00000000 -1.00000000 0.00000000
vn 0.99940000 0.00000000 -0.03570000
vn 0.00000000 -1.00000000 0.00000000
vn -0.03560000 0.00000000 -0.99940000
vn -0.99930000 0.00000000 0.03610000
vn 0.99940000 0.00000000 -0.03570000
vn 0.00000000 -1.00000000 0.00000000
vn 0.03610000 0.00000000 0.99930000
vn -0.99930000 0.00000000 0.03610000
vn 0.03580000 0.00000000 0.99940000
vn 0.00000000 -1.00000000 0.00000000
vn 0.00000000 -1.00000000 0.00000000
vn -0.03560000 0.00000000 -0.99940000
vn 0.00000000 -1.00000000 0.00000000
vn -0.03560000 0.00000000 -0.99940000
vn 0.99940000 0.00000000 -0.03570000
vn 0.99930000 0.00000000 -0.03610000
vn 0.00000000 -1.00000000 0.00000000
vn 0.00000000 -1.00000000 0.00000000
vn 0.99930000 0.00000000 -0.03610000
vn 0.00000000 -1.00000000 0.00000000
vn 0.99930000 0.00000000 -0.03610000
vn 0.99940000 0.00000000 -0.03570000
vn 0.03580000 0.00000000 0.99940000
vn 0.00000000 -1.00000000 0.00000000
vn 0.03610000 0.00000000 0.99930000
vn -0.99940000 0.00000000 0.03570000
vn 0.00000000 -1.00000000 0.00000000
vn -0.99930000 0.00000000 0.03610000
vn -0.99940000 0.00000000 0.03570000
vn 0.00000000 -1.00000000 0.00000000
vn -0.99930000 0.00000000 0.03610000
vn -0.99930000 0.00000000 0.03610000
vn 0.00000000 -1.00000000 0.00000000
vn 0.00000000 1.00000000 -0.00000000
vn 0.03600000 0.00000000 0.99940000
vn -0.99940000 0.00000000 0.03560000
vn 0.03600000 0.00000000 0.99940000
vn -0.99940000 0.00000000 0.03560000
vn 0.00000000 -1.00000000 0.00000000
vn 0.03600000 0.00000000 0.99940000
vn 0.99940000 0.00000000 -0.03380000
vn 0.00000000 1.00000000 -0.00000000
vn 0.03600000 0.00000000 0.99940000
vn 0.00000000 -1.00000000 0.00000000
vn 0.99940000 0.00000000 -0.03380000
vn 0.03600000 0.00000000 0.99940000
vn 0.00000000 1.00000000 -0.00000000
vn 0.03600000 0.00000000 0.99940000
vn 0.00000000 1.00000000 -0.00000000
vn 0.00000000 -1.00000000 0.00000000
vn 0.03600000 0.00000000 0.99940000
vn 0.00000000 -0.99990000 -0.01470000
vn 0.00000000 -0.99990000 -0.01470000
vn 0.00000000 -1.00000000 0.00000000
vn 0.03600000 0.00000000 0.99940000
vn 0.00000000 1.00000000 0.00040000
vn -0.99940000 0.00000000 0.03600000
vn -0.03120000 0.00000000 -0.99950000
vn 0.00000000 -1.00000000 0.00000000
vn -0.99940000 0.00000000 0.03600000
vn -0.03120000 0.00000000 -0.99950000
vn -0.99940000 0.00000000 0.03600000
vn 0.04160000 0.00000000 0.99910000
vn 0.00000000 1.00000000 -0.00040000
vn 0.00000000 -1.00000000 0.00000000
vn -0.99940000 0.00000000 0.03600000
vn 0.04160000 0.00000000 0.99910000
vn 0.00000000 1.00000000 0.00040000
vn 0.00000000 1.00000000 -0.00000000
vn -0.99940000 0.00000000 0.03600000
vn -0.99940000 0.00000000 0.03600000
vn 0.00000000 1.00000000 -0.00000000
vn -0.99940000 0.00000000 0.03600000
vn 0.00000000 1.00000000 -0.00000000
vn 0.00000000 1.00000000 -0.00040000
vn 0.00000000 -1.00000000 0.00000000
vn -0.99940000 0.00000000 0.03600000
vn 0.00000000 -1.00000000 0.00000000
vn -0.99940000 0.00000000 0.03600000
vn -0.99940000 0.00000000 0.03600000
vn 0.00000000 -1.00000000 0.00000000
vn 0.00000000 1.00000000 -0.00000000
vn 0.99940000 0.00000000 -0.03360000
vn -0.03600000 0.00000000 -0.99940000
vn -0.03600000 0.00000000 -0.99940000
vn 0.99940000 0.00000000 -0.03360000
vn 0.00000000 -1.00000000 0.00000000
vn -0.99940000 0.00000000 0.03540000
vn 0.00000000 1.00000000 -0.00000000
vn -0.03600000 0.00000000 -0.99940000
vn 0.00000000 -1.00000000 -0.00980000
vn -0.03600000 0.00000000 -0.99940000
vn -0.99940000 0.00000000 0.03540000
vn 0.00000000 -1.00000000 -0.00980000
vn 0.00000000 -1.00000000 0.00000000
vn -0.03600000 0.00000000 -0.99940000
vn 0.00000000 1.00000000 -0.00000000
vn -0.03600000 0.00000000 -0.99940000
vn 0.00000000 1.00000000 -0.00000000
vn 0.99940000 0.00000000 -0.03600000
vn 0.03630000 0.00000000 0.99930000
vn 0.03630000 0.00000000 0.99930000
vn 0.00000000 -1.00000000 0.00000000
vn 0.99940000 0.00000000 -0.03600000
vn 0.99940000 0.00000000 -0.03600000
vn 0.00000000 1.00000000 -0.00000000
vn -0.03120000 0.00000000 -0.99950000
vn 0.00000000 -1.00000000 0.00000000
vn -0.03120000 0.00000000 -0.99950000
vn 0.99940000 0.00000000 -0.03600000
vn 0.00000000 1.00000000 0.00040000
vn 0.00000000 1.00000000 -0.00000000
vn 0.99940000 0.00000000 -0.03600000
vn 0.99940000 0.00000000 -0.03600000
vn 0.00000000 1.00000000 0.00040000
vn 0.00000000 1.00000000 -0.00000000
vn 0.99940000 0.00000000 -0.03600000
vn 0.00000000 1.00000000 -0.00000000
vn 0.99940000 0.00000000 -0.03600000
vn 0.00000000 -1.00000000 0.00000000
vn 0.99940000 0.00000000 -0.03600000
vn 0.00000000 -1.00000000 0.00000000
vn 0.99940000 0.00000000 -0.03600000
vn 0.00000000 -1.00000000 0.00000000
vn -0.03590000 0.00000000 -0.99940000
vn 0.00000000 -1.00000000 0.00000000
vn 0.99930000 0.00000000 -0.03620000
vn -0.99930000 0.00000000 0.03620000
vn 0.00000000 -1.00000000 0.00000000
vn -0.03590000 0.00000000 -0.99940000
vn 0.99930000 0.00000000 -0.03620000
vn 0.00000000 -1.00000000 0.00000000
vn 0.03600000 0.00000000 0.99940000
vn -0.99930000 0.00000000 0.03620000
vn 0.03600000 0.00000000 0.99940000
vn 0.00000000 -1.00000000 0.00000000
vn -0.03590000 0.00000000 -0.99940000
vn 0.00000000 -1.00000000 0.00000000
vn 0.00000000 -1.00000000 0.00000000
vn -0.03590000 0.00000000 -0.99940000
vn 0.99930000 0.00000000 -0.03620000
vn 0.00000000 -1.00000000 0.00000000
vn 0.00000000 -1.00000000 0.00000000
vn 0.99940000 0.00000000 -0.03580000
vn 0.99930000 0.00000000 -0.03620000
vn 0.99930000 0.00000000 -0.03620000
vn 0.00000000 -1.00000000 0.00000000
vn 0.99940000 0.00000000 -0.03580000
vn 0.03600000 0.00000000 0.99940000
vn 0.00000000 -1.00000000 0.00000000
vn 0.00000000 -1.00000000 0.00000000
vn -0.99930000 0.00000000 0.03620000
vn -0.99940000 0.00000000 0.03580000
vn 0.00000000 -1.00000000 0.00000000
vn -0.99930000 0.00000000 0.03620000
vn 0.00000000 -1.00000000 0.00000000
vn -0.99930000 0.00000000 0.03620000
vn -0.99940000 0.00000000 0.03580000
vn 0.99940000 0.00000000 -0.03570000
vn -0.03560000 0.00000000 -0.99940000
vn 0.00000000 1.00000000 -0.00000000
vn 0.00000000 1.00000000 -0.00000000
vn -0.03560000 0.00000000 -0.99940000
vn -0.99930000 0.00000000 0.03610000
vn 0.00000000 1.00000000 -0.00000000
vn 0.99940000 0.00000000 -0.03570000
vn 0.03610000 0.00000000 0.99930000
vn 0.03580000 0.00000000 0.99940000
vn 0.00000000 1.00000000 -0.00000000
vn -0.99930000 0.00000000 0.03610000
vn 0.00000000 1.00000000 -0.00000000
vn -0.03560000 0.00000000 -0.99940000
vn 0.00000000 1.00000000 -0.00000000
vn -0.03560000 0.00000000 -0.99940000
vn 0.99940000 0.00000000 -0.03570000
vn 0.99930000 0.00000000 -0.03610000
vn 0.00000000 1.00000000 -0.00000000
vn 0.00000000 1.00000000 -0.00000000
vn 0.99930000 0.00000000 -0.03610000
vn 0.99940000 0.00000000 -0.03570000
vn 0.99930000 0.00000000 -0.03610000
vn 0.00000000 1.00000000 -0.00000000
vn 0.03610000 0.00000000 0.99930000
vn 0.03580000 0.00000000 0.99940000
vn 0.00000000 1.00000000 -0.00000000
vn 0.00000000 1.00000000 -0.00000000
vn -0.99930000 0.00000000 0.03610000
vn -0.99940000 0.00000000 0.03570000
vn -0.99940000 0.00000000 0.03570000
vn -0.99930000 0.00000000 0.03610000
vn 0.00000000 1.00000000 -0.00000000
vn 0.00000000 1.00000000 -0.00000000
vn -0.99930000 0.00000000 0.03610000
vt 0.07833600 0.00000000
vt 0.07833600 0.00000000
vt 0.07833600 0.00000000
vt 0.00000000 0.00000000
vt 0.00000000 0.00000000
vt 0.00000000 0.00000000
vt 0.07833600 0.34039900
vt 0.07833600 0.34039900
vt 0.07833600 0.34039900
vt 0.00000000 0.34039900
vt 0.00000000 0.34039900
vt 0.00000000 0.34039900
vt 0.07833600 0.11346600
vt 0.07833600 0.11346600
vt 0.07833600 0.22693200
vt 0.07833600 0.22693200
vt 0.00000000 0.22693200
vt 0.00000000 0.22693200
vt 0.00000000 0.22693200
vt 0.00000000 0.11346600
vt 0.00000000 0.11346600
vt 0.00000000 0.11346600
vt 0.31773800 0.00000000
vt 0.31773800 0.00000000
vt 0.31773800 0.00000000
vt 0.23940200 0.00000000
vt 0.23940200 0.00000000
vt 0.23940200 0.00000000
vt 0.31773800 0.97722200
vt 0.31773800 0.97722200
vt 0.31773800 0.97722200
vt 0.23940200 0.97722200
vt 0.23940200 0.97722200
vt 0.23940200 0.97722200
vt 0.31773800 0.24430500
vt 0.31773800 0.24430500
vt 0.31773800 0.24430500
vt 0.31773800 0.48861100
vt 0.31773800 0.48861100
vt 0.31773800 0.73291600
vt 0.31773800 0.73291600
vt 0.31773800 0.73291600
vt 0.23940200 0.73291600
vt 0.23940200 0.73291600
vt 0.23940200 0.48861100
vt 0.23940200 0.48861100
vt 0.23940200 0.24430500
vt 0.23940200 0.24430500
vt 0.15813600 0.00000000
vt 0.15813600 0.00000000
vt 0.15813600 0.00000000
vt 0.07980100 0.00000000
vt 0.07980100 0.00000000
vt 0.07980100 0.00000000
vt 0.15813600 0.34039900
vt 0.15813600 0.34039900
vt 0.15813600 0.34039900
vt 0.07980100 0.34039900
vt 0.07980100 0.34039900
vt 0.07980100 0.34039900
vt 0.07980100 0.17019900
vt 0.07980100 0.17019900
vt 0.07980100 0.17019900
vt 0.15813600 0.17019900
vt 0.15813600 0.17019900
vt 0.23793700 0.00000000
vt 0.23793700 0.00000000
vt 0.23793700 0.00000000
vt 0.15960100 0.00000000
vt 0.15960100 0.00000000
vt 0.15960100 0.00000000
vt 0.23793700 0.97722200
vt 0.23793700 0.97722200
vt 0.23793700 0.97722200
vt 0.15960100 0.97722200
vt 0.15960100 0.97722200
vt 0.15960100 0.97722200
vt 0.23793700 0.24430500
vt 0.23793700 0.24430500
vt 0.23793700 0.24430500
vt 0.23793700 0.48861100
vt 0.23793700 0.48861100
vt 0.23793700 0.48861100
vt 0.23793700 0.73291600
vt 0.23793700 0.73291600
vt 0.15960100 0.73291600
vt 0.15960100 0.73291600
vt 0.15960100 0.48861100
vt 0.15960100 0.48861100
vt 0.15960100 0.24430500
vt 0.15960100 0.24430500
vt 0.99853500 0.00000000
vt 0.99853500 0.00000000
vt 0.99853500 0.00000000
vt 0.65960100 0.00000000
vt 0.65960100 0.00000000
vt 0.65960100 0.00000000
vt 0.99853500 0.97722200
vt 0.99853500 0.97722200
vt 0.99853500 0.97722200
vt 0.65960100 0.97722200
vt 0.65960100 0.97722200
vt 0.65960100 0.97722200
vt 0.77257900 0.00000000
vt 0.77257900 0.00000000
vt 0.88555700 0.00000000
vt 0.88555700 0.00000000
vt 0.99853500 0.24430500
vt 0.99853500 0.24430500
vt 0.99853500 0.48861100
vt 0.99853500 0.48861100
vt 0.99853500 0.48861100
vt 0.99853500 0.73291600
vt 0.99853500 0.73291600
vt 0.99853500 0.73291600
vt 0.82906800 0.97722200
vt 0.82906800 0.97722200
vt 0.65960100 0.73291600
vt 0.65960100 0.73291600
vt 0.65960100 0.48861100
vt 0.65960100 0.48861100
vt 0.65960100 0.48861100
vt 0.65960100 0.24430500
vt 0.65960100 0.24430500
vt 0.65960100 0.24430500
vt 0.65813600 0.00000000
vt 0.65813600 0.00000000
vt 0.65813600 0.00000000
vt 0.31920300 0.00000000
vt 0.31920300 0.00000000
vt 0.31920300 0.00000000
vt 0.65813600 0.97722200
vt 0.65813600 0.97722200
vt 0.65813600 0.97722200
vt 0.31920300 0.97722200
vt 0.31920300 0.97722200
vt 0.31920300 0.97722200
vt 0.43218100 0.00000000
vt 0.43218100 0.00000000
vt 0.54515800 0.00000000
vt 0.54515800 0.00000000
vt 0.65813600 0.24430500
vt 0.65813600 0.24430500
vt 0.65813600 0.24430500
vt 0.65813600 0.48861100
vt 0.65813600 0.48861100
vt 0.65813600 0.73291600
vt 0.65813600 0.73291600
vt 0.65813600 0.73291600
vt 0.48866900 0.97722200
vt 0.48866900 0.97722200
vt 0.48866900 0.97722200
vt 0.31920300 0.73291600
vt 0.31920300 0.73291600
vt 0.31920300 0.73291600
vt 0.31920300 0.48861100
vt 0.31920300 0.48861100
vt 0.31920300 0.48861100
vt 0.31920300 0.24430500
vt 0.31920300 0.24430500
vt 0.07833600 0.00000000
vt 0.07833600 0.00000000
vt 0.07833600 0.00000000
vt 0.00000000 0.00000000
vt 0.00000000 0.00000000
vt 0.00000000 0.00000000
vt 0.07833600 0.34039900
vt 0.07833600 0.34039900
vt 0.07833600 0.34039900
vt 0.00000000 0.34039900
vt 0.00000000 0.34039900
vt 0.00000000 0.34039900
vt 0.07833600 0.11346600
vt 0.07833600 0.11346600
vt 0.07833600 0.22693200
vt 0.07833600 0.22693200
vt 0.00000000 0.22693200
vt 0.00000000 0.22693200
vt 0.00000000 0.22693200
vt 0.00000000 0.11346600
vt 0.00000000 0.11346600
vt 0.00000000 0.11346600
vt 0.31773800 0.00000000
vt 0.31773800 0.00000000
vt 0.31773800 0.00000000
vt 0.23940200 0.00000000
vt 0.23940200 0.00000000
vt 0.23940200 0.00000000
vt 0.31773800 0.97722200
vt 0.31773800 0.97722200
vt 0.31773800 0.97722200
vt 0.23940200 0.97722200
vt 0.23940200 0.97722200
vt 0.23940200 0.97722200
vt 0.31773800 0.24430500
vt 0.31773800 0.24430500
vt 0.31773800 0.24430500
vt 0.31773800 0.48861100
vt 0.31773800 0.48861100
vt 0.31773800 0.73291600
vt 0.31773800 0.73291600
vt 0.31773800 0.73291600
vt 0.23940200 0.73291600
vt 0.23940200 0.73291600
vt 0.23940200 0.48861100
vt 0.23940200 0.48861100
vt 0.23940200 0.24430500
vt 0.23940200 0.24430500
vt 0.15813600 0.00000000
vt 0.15813600 0.00000000
vt 0.15813600 0.00000000
vt 0.07980100 0.00000000
vt 0.07980100 0.00000000
vt 0.07980100 0.00000000
vt 0.15813600 0.34039900
vt 0.15813600 0.34039900
vt 0.15813600 0.34039900
vt 0.07980100 0.34039900
vt 0.07980100 0.34039900
vt 0.07980100 0.34039900
vt 0.07980100 0.17019900
vt 0.07980100 0.17019900
vt 0.07980100 0.17019900
vt 0.15813600 0.17019900
vt 0.15813600 0.17019900
vt 0.23793700 0.00000000
vt 0.23793700 0.00000000
vt 0.23793700 0.00000000
vt 0.15960100 0.00000000
vt 0.15960100 0.00000000
vt 0.15960100 0.00000000
vt 0.23793700 0.97722200
vt 0.23793700 0.97722200
vt 0.23793700 0.97722200
vt 0.15960100 0.97722200
vt 0.15960100 0.97722200
vt 0.15960100 0.97722200
vt 0.23793700 0.24430500
vt 0.23793700 0.24430500
vt 0.23793700 0.24430500
vt 0.23793700 0.48861100
vt 0.23793700 0.48861100
vt 0.23793700 0.48861100
vt 0.23793700 0.73291600
vt 0.23793700 0.73291600
vt 0.15960100 0.73291600
vt 0.15960100 0.73291600
vt 0.15960100 0.48861100
vt 0.15960100 0.48861100
vt 0.15960100 0.24430500
vt 0.15960100 0.24430500
vt 0.99853500 0.00000000
vt 0.99853500 0.00000000
vt 0.99853500 0.00000000
vt 0.65960100 0.00000000
vt 0.65960100 0.00000000
vt 0.65960100 0.00000000
vt 0.99853500 0.97722200
vt 0.99853500 0.97722200
vt 0.99853500 0.97722200
vt 0.65960100 0.97722200
vt 0.65960100 0.97722200
vt 0.65960100 0.97722200
vt 0.77257900 0.00000000
vt 0.77257900 0.00000000
vt 0.88555700 0.00000000
vt 0.88555700 0.00000000
vt 0.99853500 0.24430500
vt 0.99853500 0.24430500
vt 0.99853500 0.48861100
vt 0.99853500 0.48861100
vt 0.99853500 0.48861100
vt 0.99853500 0.73291600
vt 0.99853500 0.73291600
vt 0.99853500 0.73291600
vt 0.82906800 0.97722200
vt 0.82906800 0.97722200
vt 0.65960100 0.73291600
vt 0.65960100 0.73291600
vt 0.65960100 0.48861100
vt 0.65960100 0.48861100
vt 0.65960100 0.48861100
vt 0.65960100 0.24430500
vt 0.65960100 0.24430500
vt 0.65960100 0.24430500
vt 0.65813600 0.00000000
vt 0.65813600 0.00000000
vt 0.65813600 0.00000000
vt 0.31920300 0.00000000
vt 0.31920300 0.00000000
vt 0.31920300 0.00000000
vt 0.65813600 0.97722200
vt 0.65813600 0.97722200
vt 0.65813600 0.97722200
vt 0.31920300 0.97722200
vt 0.31920300 0.97722200
vt 0.31920300 0.97722200
vt 0.43218100 0.00000000
vt 0.43218100 0.00000000
vt 0.54515800 0.00000000
vt 0.54515800 0.00000000
vt 0.65813600 0.24430500
vt 0.65813600 0.24430500
vt 0.65813600 0.24430500
vt 0.65813600 0.48861100
vt 0.65813600 0.48861100
vt 0.65813600 0.73291600
vt 0.65813600 0.73291600
vt 0.65813600 0.73291600
vt 0.48866900 0.97722200
vt 0.48866900 0.97722200
vt 0.48866900 0.97722200
vt 0.31920300 0.73291600
vt 0.31920300 0.73291600
vt 0.31920300 0.73291600
vt 0.31920300 0.48861100
vt 0.31920300 0.48861100
vt 0.31920300 0.48861100
vt 0.31920300 0.24430500
vt 0.31920300 0.24430500
f 1/1/1 13/13/13 21/21/21
f 17/17/17 21/21/21 13/13/13
f 15/15/15 8/8/8 10/10/10
f 25/25/25 36/36/36 47/47/47
f 46/46/46 47/47/47 36/36/36
f 31/31/31 33/33/33 44/44/44
f 41/41/41 44/44/44 46/46/46
f 52/52/52 49/49/49 65/65/65
f 55/55/55 60/60/60 62/62/62
f 79/79/79 91/91/91 69/69/69
f 91/91/91 79/79/79 83/83/83
f 72/72/72 77/77/77 86/86/86
f 85/85/85 86/86/86 88/88/88
f 106/106/106 108/108/108 94/94/94
f 104/104/104 108/108/108 106/106/106
f 96/96/96 124/124/124 104/104/104
f 108/108/108 104/104/104 124/124/124
f 120/120/120 110/110/110 124/124/124
f 110/110/110 120/120/120 119/119/119
f 116/116/116 99/99/99 115/115/115
f 119/119/119 102/102/102 116/116/116
f 119/119/119 116/116/116 115/115/115
f 140/140/140 127/127/127 144/144/144
f 138/138/138 140/140/140 144/144/144
f 129/129/129 138/138/138 160/160/160
f 144/144/144 160/160/160 138/138/138
f 157/157/157 160/160/160 145/145/145
f 145/145/145 147/147/147 154/154/154
f 151/151/151 147/147/147 133/133/133
f 154/154/154 151/151/151 137/137/137
f 154/154/154 147/147/147 151/151/151
f 1/1/1 21/21/21 5/5/5
f 17/17/17 13/13/13 15/15/15
f 15/15/15 10/10/10 17/17/17
f 25/25/25 47/47/47 28/28/28
f 46/46/46 36/36/36 39/39/39
f 31/31/31 44/44/44 41/41/41
f 41/41/41 46/46/46 39/39/39
f 52/52/52 65/65/65 62/62/62
f 55/55/55 62/62/62 65/65/65
f 79/79/79 69/69/69 66/66/66
f 91/91/91 83/83/83 88/88/88
f 72/72/72 86/86/86 85/85/85
f 85/85/85 88/88/88 83/83/83
f 110/110/110 108/108/108 124/124/124
f 110/110/110 119/119/119 115/115/115
f 160/160/160 144/144/144 145/145/145
f 145/145/145 154/154/154 157/157/157
f 162/162/162 182/182/182 173/173/173
f 178/178/178 173/173/173 182/182/182
f 175/175/175 170/170/170 167/167/167
f 184/184/184 207/207/207 197/197/197
f 206/206/206 197/197/197 207/207/207
f 189/189/189 204/204/204 193/193/193
f 200/200/200 206/206/206 204/204/204
f 212/212/212 225/225/225 211/211/211
f 217/217/217 223/223/223 219/219/219
f 240/240/240 231/231/231 250/250/250
f 250/250/250 241/241/241 240/240/240
f 232/232/232 246/246/246 237/237/237
f 244/244/244 248/248/248 246/246/246
f 266/266/266 253/253/253 269/269/269
f 265/265/265 266/266/266 269/269/269
f 256/256/256 265/265/265 283/283/283
f 269/269/269 283/283/283 265/265/265
f 281/281/281 283/283/283 270/270/270
f 270/270/270 278/278/278 281/281/281
f 277/277/277 274/274/274 259/259/259
f 278/278/278 277/277/277 263/263/263
f 278/278/278 274/274/274 277/277/277
f 300/300/300 304/304/304 288/288/288
f 298/298/298 304/304/304 300/300/300
f 289/289/289 319/319/319 298/298/298
f 304/304/304 298/298/298 319/319/319
f 318/318/318 305/305/305 319/319/319
f 305/305/305 313/313/313 309/309/309
f 312/312/312 292/292/292 309/309/309
f 313/313/313 296/296/296 312/312/312
f 313/313/313 312/312/312 309/309/309
f 162/162/162 164/164/164 182/182/182
f 178/178/178 175/175/175 173/173/173
f 175/175/175 178/178/178 170/170/170
f 184/184/184 187/187/187 207/207/207
f 206/206/206 198/198/198 197/197/197
f 189/189/189 200/200/200 204/204/204
f 200/200/200 198/198/198 206/206/206
f 212/212/212 223/223/223 225/225/225
f 217/217/217 225/225/225 223/223/223
f 240/240/240 227/227/227 231/231/231
f 250/250/250 248/248/248 241/241/241
f 232/232/232 244/244/244 246/246/246
f 244/244/244 241/241/241 248/248/248
f 270/270/270 283/283/283 269/269/269
f 270/270/270 274/274/274 278/278/278
f 319/319/319 305/305/305 304/304/304
f 305/305/305 318/318/318 313/313/313
f 117/117/117 103/103/103 262/262/262
f 262/262/262 276/276/276 117/117/117
f 11/11/11 7/7/7 168/168/168
f 168/168/168 172/172/172 11/11/11
f 14/14/14 3/3/3 161/161/161
f 161/161/161 174/174/174 14/14/14
f 24/24/24 27/27/27 188/188/188
f 188/188/188 185/185/185 24/24/24
f 32/32/32 29/29/29 190/190/190
f 190/190/190 194/194/194 32/32/32
f 35/35/35 23/23/23 183/183/183
f 183/183/183 195/195/195 35/35/35
f 38/38/38 37/37/37 196/196/196
f 196/196/196 199/199/199 38/38/38
f 30/30/30 40/40/40 202/202/202
f 202/202/202 191/191/191 30/30/30
f 50/50/50 54/54/54 213/213/213
f 213/213/213 210/210/210 50/50/50
f 18/18/18 12/12/12 171/171/171
f 171/171/171 177/177/177 18/18/18
f 59/59/59 57/57/57 215/215/215
f 215/215/215 220/220/220 59/59/59
f 64/64/64 51/51/51 209/209/209
f 209/209/209 224/224/224 64/64/64
f 76/76/76 74/74/74 234/234/234
f 234/234/234 236/236/236 76/76/76
f 81/81/81 78/78/78 238/238/238
f 238/238/238 242/242/242 81/81/81
f 73/73/73 84/84/84 245/245/245
f 245/245/245 233/233/233 73/73/73
f 16/16/16 14/14/14 174/174/174
f 174/174/174 176/176/176 16/16/16
f 95/95/95 105/105/105 264/264/264
f 264/264/264 257/257/257 95/95/95
f 107/107/107 92/92/92 252/252/252
f 252/252/252 267/267/267 107/107/107
f 109/109/109 111/111/111 272/272/272
f 272/272/272 268/268/268 109/109/109
f 9/9/9 16/16/16 176/176/176
f 176/176/176 169/169/169 9/9/9
f 123/123/123 97/97/97 255/255/255
f 255/255/255 284/284/284 123/123/123
f 139/139/139 130/130/130 290/290/290
f 290/290/290 299/299/299 139/139/139
f 126/126/126 141/141/141 301/301/301
f 301/301/301 287/287/287 126/126/126
f 148/148/148 146/146/146 306/306/306
f 306/306/306 308/308/308 148/148/148
f 152/152/152 134/134/134 294/294/294
f 294/294/294 310/310/310 152/152/152
f 131/131/131 159/159/159 320/320/320
f 320/320/320 291/291/291 131/131/131
f 68/68/68 71/71/71 229/229/229
f 229/229/229 228/228/228 68/68/68
f 118/118/118 122/122/122 282/282/282
f 282/282/282 279/279/279 118/118/118
f 90/90/90 89/89/89 249/249/249
f 249/249/249 251/251/251 90/90/90
f 80/80/80 67/67/67 226/226/226
f 226/226/226 239/239/239 80/80/80
f 121/121/121 125/125/125 285/285/285
f 285/285/285 280/280/280 121/121/121
f 42/42/42 38/38/38 199/199/199
f 199/199/199 201/201/201 42/42/42
f 22/22/22 19/19/19 179/179/179
f 179/179/179 180/180/180 22/22/22
f 53/53/53 63/63/63 222/222/222
f 222/222/222 214/214/214 53/53/53
f 56/56/56 64/64/64 224/224/224
f 224/224/224 216/216/216 56/56/56
f 70/70/70 90/90/90 251/251/251
f 251/251/251 230/230/230 70/70/70
f 87/87/87 75/75/75 235/235/235
f 235/235/235 247/247/247 87/87/87
f 61/61/61 58/58/58 218/218/218
f 218/218/218 221/221/221 61/61/61
f 26/26/26 48/48/48 208/208/208
f 208/208/208 186/186/186 26/26/26
f 84/84/84 82/82/82 243/243/243
f 243/243/243 245/245/245 84/84/84
f 142/142/142 128/128/128 286/286/286
f 286/286/286 302/302/302 142/142/142
f 112/112/112 114/114/114 275/275/275
f 275/275/275 271/271/271 112/112/112
f 89/89/89 87/87/87 247/247/247
f 247/247/247 249/249/249 89/89/89
f 2/2/2 6/6/6 165/165/165
f 165/165/165 163/163/163 2/2/2
f 132/132/132 149/149/149 307/307/307
f 307/307/307 293/293/293 132/132/132
f 141/141/141 139/139/139 299/299/299
f 299/299/299 301/301/301 141/141/141
f 43/43/43 34/34/34 192/192/192
f 192/192/192 203/203/203 43/43/43
f 136/136/136 150/150/150 311/311/311
f 311/311/311 295/295/295 136/136/136
f 156/156/156 153/153/153 315/315/315
f 315/315/315 316/316/316 156/156/156
f 155/155/155 135/135/135 297/297/297
f 297/297/297 314/314/314 155/155/155
f 146/146/146 143/143/143 303/303/303
f 303/303/303 306/306/306 146/146/146
f 45/45/45 43/43/43 203/203/203
f 203/203/203 205/205/205 45/45/45
f 48/48/48 45/45/45 205/205/205
f 205/205/205 208/208/208 48/48/48
f 93/93/93 109/109/109 268/268/268
f 268/268/268 254/254/254 93/93/93
f 4/4/4 20/20/20 181/181/181
f 181/181/181 166/166/166 4/4/4
f 159/159/159 158/158/158 317/317/317
f 317/317/317 320/320/320 159/159/159
f 101/101/101 118/118/118 279/279/279
f 279/279/279 261/261/261 101/101/101
f 113/113/113 98/98/98 258/258/258
f 258/258/258 273/273/273 113/113/113
f 105/105/105 107/107/107 267/267/267
f 267/267/267 264/264/264 105/105/105
f 100/100/100 117/117/117 276/276/276
f 276/276/276 260/260/260 100/100/100

