mtllib material.mtl
usemtl Material-7011油漆.038
v -0.03145700 -0.12493200 -0.07879700
v -0.03145700 -0.12493200 -0.07879700
v -0.03145700 -0.12493200 -0.07879700
v -0.03145700 -0.12563200 -0.07879700
v -0.03145700 -0.12563200 -0.07879700
v -0.03145700 -0.12563200 -0.07879700
v -0.02847300 -0.12493200 -0.07890500
v -0.02847300 -0.12493200 -0.07890500
v -0.02847300 -0.12493200 -0.07890500
v -0.02847300 -0.12563200 -0.07890500
v -0.02847300 -0.12563200 -0.07890500
v -0.02847300 -0.12563200 -0.07890500
v -0.02847200 -0.12493200 -0.07890400
v -0.02847200 -0.12493200 -0.07890400
v -0.02847200 -0.12493200 -0.07890400
v -0.02847200 -0.12563200 -0.07890400
v -0.02847200 -0.12563200 -0.07890400
v -0.02847200 -0.12563200 -0.07890400
v -0.02816300 -0.12493200 -0.07032500
v -0.02816300 -0.12493200 -0.07032500
v -0.02816300 -0.12493200 -0.07032500
v -0.02816300 -0.12563200 -0.07032500
v -0.02816300 -0.12563200 -0.07032500
v -0.02816300 -0.12563200 -0.07032500
v -0.02816400 -0.12493200 -0.07032500
v -0.02816400 -0.12493200 -0.07032500
v -0.02816400 -0.12493200 -0.07032500
v -0.02816400 -0.12563200 -0.07032500
v -0.02816400 -0.12563200 -0.07032500
v -0.02816400 -0.12563200 -0.07032500
v -0.03114800 -0.12493200 -0.07021700
v -0.03114800 -0.12493200 -0.07021700
v -0.03114800 -0.12493200 -0.07021700
v -0.03114800 -0.12563200 -0.07021700
v -0.03114800 -0.12563200 -0.07021700
v -0.03114800 -0.12563200 -0.07021700
v -0.03114800 -0.12493200 -0.07021800
v -0.03114800 -0.12493200 -0.07021800
v -0.03114800 -0.12493200 -0.07021800
v -0.03114800 -0.12563200 -0.07021800
v -0.03114800 -0.12563200 -0.07021800
v -0.03114800 -0.12563200 -0.07021800
v -0.03145700 -0.12493200 -0.07879700
v -0.03145700 -0.12493200 -0.07879700
v -0.03145700 -0.12493200 -0.07879700
v -0.03145700 -0.12563200 -0.07879700
v -0.03145700 -0.12563200 -0.07879700
v -0.03145700 -0.12563200 -0.07879700
v -0.02847300 -0.12493100 -0.07890400
v -0.02847300 -0.12493100 -0.07890400
v -0.02847300 -0.12493100 -0.07890400
v -0.03145700 -0.12493100 -0.07879700
v -0.03145700 -0.12493100 -0.07879700
v -0.03145700 -0.12493100 -0.07879700
v -0.02816400 -0.12493100 -0.07032500
v -0.02816400 -0.12493100 -0.07032500
v -0.02816400 -0.12493100 -0.07032500
v -0.03114800 -0.12493100 -0.07021800
v -0.03114800 -0.12493100 -0.07021800
v -0.03114800 -0.12493100 -0.07021800
v -0.02847300 -0.12563200 -0.07890400
v -0.02847300 -0.12563200 -0.07890400
v -0.02847300 -0.12563200 -0.07890400
v -0.03145700 -0.12563200 -0.07879700
v -0.03145700 -0.12563200 -0.07879700
v -0.03145700 -0.12563200 -0.07879700
v -0.02816400 -0.12563200 -0.07032500
v -0.02816400 -0.12563200 -0.07032500
v -0.02816400 -0.12563200 -0.07032500
v -0.03114800 -0.12563200 -0.07021800
v -0.03114800 -0.12563200 -0.07021800
v -0.03114800 -0.12563200 -0.07021800
v -0.03145700 -0.12493200 -0.07879600
v -0.03145700 -0.12493200 -0.07879600
v -0.03145700 -0.12493200 -0.07879600
v -0.03145700 -0.12563200 -0.07879600
v -0.03145700 -0.12563200 -0.07879600
v -0.03145700 -0.12563200 -0.07879600
v -0.02847300 -0.12493200 -0.07890400
v -0.02847300 -0.12493200 -0.07890400
v -0.02847300 -0.12493200 -0.07890400
v -0.02847300 -0.12563200 -0.07890400
v -0.02847300 -0.12563200 -0.07890400
v -0.02847300 -0.12563200 -0.07890400
v -0.02847300 -0.12493200 -0.07890400
v -0.02847300 -0.12493200 -0.07890400
v -0.02847300 -0.12493200 -0.07890400
v -0.02847300 -0.12563200 -0.07890400
v -0.02847300 -0.12563200 -0.07890400
v -0.02847300 -0.12563200 -0.07890400
v -0.02816400 -0.12493200 -0.07032500
v -0.02816400 -0.12493200 -0.07032500
v -0.02816400 -0.12493200 -0.07032500
v -0.02816400 -0.12563200 -0.07032500
v -0.02816400 -0.12563200 -0.07032500
v -0.02816400 -0.12563200 -0.07032500
v -0.02816400 -0.12493200 -0.07032600
v -0.02816400 -0.12493200 -0.07032600
v -0.02816400 -0.12493200 -0.07032600
v -0.02816400 -0.12563200 -0.07032600
v -0.02816400 -0.12563200 -0.07032600
v -0.02816400 -0.12563200 -0.07032600
v -0.03114800 -0.12493200 -0.07021800
v -0.03114800 -0.12493200 -0.07021800
v -0.03114800 -0.12493200 -0.07021800
v -0.03114800 -0.12563200 -0.07021800
v -0.03114800 -0.12563200 -0.07021800
v -0.03114800 -0.12563200 -0.07021800
v -0.03114700 -0.12493200 -0.07021800
v -0.03114700 -0.12493200 -0.07021800
v -0.03114700 -0.12493200 -0.07021800
v -0.03114700 -0.12563200 -0.07021800
v -0.03114700 -0.12563200 -0.07021800
v -0.03114700 -0.12563200 -0.07021800
v -0.03145600 -0.12493200 -0.07879700
v -0.03145600 -0.12493200 -0.07879700
v -0.03145600 -0.12493200 -0.07879700
v -0.03145600 -0.12563200 -0.07879700
v -0.03145600 -0.12563200 -0.07879700
v -0.03145600 -0.12563200 -0.07879700
v -0.02847300 -0.12493200 -0.07890400
v -0.02847300 -0.12493200 -0.07890400
v -0.02847300 -0.12493200 -0.07890400
v -0.03145700 -0.12493200 -0.07879700
v -0.03145700 -0.12493200 -0.07879700
v -0.03145700 -0.12493200 -0.07879700
v -0.02816400 -0.12493200 -0.07032500
v -0.02816400 -0.12493200 -0.07032500
v -0.02816400 -0.12493200 -0.07032500
v -0.03114800 -0.12493200 -0.07021800
v -0.03114800 -0.12493200 -0.07021800
v -0.03114800 -0.12493200 -0.07021800
v -0.02847300 -0.12563100 -0.07890400
v -0.02847300 -0.12563100 -0.07890400
v -0.02847300 -0.12563100 -0.07890400
v -0.03145700 -0.12563100 -0.07879700
v -0.03145700 -0.12563100 -0.07879700
v -0.03145700 -0.12563100 -0.07879700
v -0.02816400 -0.12563100 -0.07032500
v -0.02816400 -0.12563100 -0.07032500
v -0.02816400 -0.12563100 -0.07032500
v -0.03114800 -0.12563100 -0.07021800
v -0.03114800 -0.12563100 -0.07021800
v -0.03114800 -0.12563100 -0.07021800
vn -0.03600000 0.00000000 -0.99940000
vn 0.00000000 1.00000000 0.00000000
vn -0.99940000 0.00000000 0.03360000
vn -0.03600000 0.00000000 -0.99940000
vn -0.99940000 0.00000000 0.03360000
vn 0.00000000 -1.00000000 0.00000000
vn -0.03600000 0.00000000 -0.99940000
vn 0.99940000 0.00000000 -0.03560000
vn 0.00000000 1.00000000 0.00000000
vn 0.00000000 -1.00000000 0.00000000
vn -0.03600000 0.00000000 -0.99940000
vn 0.99940000 0.00000000 -0.03560000
vn -0.03120000 0.00000000 -0.99950000
vn 0.00000000 1.00000000 0.00000000
vn 0.99940000 0.00000000 -0.03600000
vn 0.00000000 -1.00000000 0.00040000
vn -0.03120000 0.00000000 -0.99950000
vn 0.99940000 0.00000000 -0.03600000
vn 0.99940000 0.00000000 -0.03600000
vn 0.00000000 1.00000000 0.00000000
vn 0.03120000 0.00000000 0.99950000
vn 0.99940000 0.00000000 -0.03600000
vn 0.03120000 0.00000000 0.99950000
vn 0.00000000 -1.00000000 0.00040000
vn 0.00000000 1.00000000 0.00000000
vn 0.03600000 0.00000000 0.99940000
vn 0.99940000 0.00000000 -0.03390000
vn 0.00000000 -1.00000000 0.00000000
vn 0.03600000 0.00000000 0.99940000
vn 0.99940000 0.00000000 -0.03390000
vn 0.00000000 1.00000000 0.00000000
vn 0.03600000 0.00000000 0.99940000
vn -0.99940000 0.00000000 0.03560000
vn 0.00000000 -1.00000000 0.00000000
vn -0.99940000 0.00000000 0.03560000
vn 0.03600000 0.00000000 0.99940000
vn 0.00000000 1.00000000 0.00000000
vn 0.03120000 0.00000000 0.99950000
vn -0.99940000 0.00000000 0.03600000
vn 0.00000000 -1.00000000 0.00000000
vn 0.03120000 0.00000000 0.99950000
vn -0.99940000 0.00000000 0.03600000
vn 0.00000000 1.00000000 0.00000000
vn -0.99940000 0.00000000 0.03600000
vn -0.03110000 0.00000000 -0.99950000
vn -0.03110000 0.00000000 -0.99950000
vn 0.00000000 -1.00000000 0.00000000
vn -0.99940000 0.00000000 0.03600000
vn -0.03600000 0.00000000 -0.99940000
vn 0.00000000 1.00000000 0.00000000
vn 0.99930000 0.00000000 -0.03620000
vn 0.00000000 1.00000000 0.00000000
vn -0.03600000 0.00000000 -0.99940000
vn -0.99930000 0.00000000 0.03620000
vn 0.03600000 0.00000000 0.99940000
vn 0.00000000 1.00000000 0.00000000
vn 0.99930000 0.00000000 -0.03620000
vn 0.00000000 1.00000000 0.00000000
vn 0.03600000 0.00000000 0.99940000
vn -0.99930000 0.00000000 0.03620000
vn -0.03600000 0.00000000 -0.99940000
vn 0.00000000 -1.00000000 0.00000000
vn 0.99940000 0.00000000 -0.03600000
vn -0.03600000 0.00000000 -0.99940000
vn 0.00000000 -1.00000000 0.00000000
vn -0.99940000 0.00000000 0.03600000
vn 0.00000000 -1.00000000 0.00000000
vn 0.03600000 0.00000000 0.99940000
vn 0.99940000 0.00000000 -0.03600000
vn 0.03600000 0.00000000 0.99940000
vn 0.00000000 -1.00000000 0.00000000
vn -0.99940000 0.00000000 0.03600000
vn 0.00000000 1.00000000 0.00000000
vn -0.99940000 0.00000000 0.03360000
vn 0.03600000 0.00000000 0.99940000
vn 0.03600000 0.00000000 0.99940000
vn 0.00000000 -1.00000000 0.00000000
vn -0.99940000 0.00000000 0.03360000
vn 0.03600000 0.00000000 0.99940000
vn 0.99940000 0.00000000 -0.03560000
vn 0.00000000 1.00000000 0.00000000
vn 0.99940000 0.00000000 -0.03560000
vn 0.03600000 0.00000000 0.99940000
vn 0.00000000 -1.00000000 0.00000000
vn -0.03120000 0.00000000 -0.99950000
vn 0.00000000 1.00000000 0.00000000
vn -0.99940000 0.00000000 0.03600000
vn 0.00000000 -1.00000000 0.00040000
vn -0.99940000 0.00000000 0.03600000
vn -0.03120000 0.00000000 -0.99950000
vn 0.03120000 0.00000000 0.99950000
vn -0.99940000 0.00000000 0.03600000
vn 0.00000000 1.00000000 0.00000000
vn 0.00000000 -1.00000000 0.00040000
vn -0.99940000 0.00000000 0.03600000
vn 0.03120000 0.00000000 0.99950000
vn -0.03600000 0.00000000 -0.99940000
vn 0.00000000 1.00000000 0.00000000
vn 0.99940000 0.00000000 -0.03390000
vn 0.99940000 0.00000000 -0.03390000
vn -0.03600000 0.00000000 -0.99940000
vn 0.00000000 -1.00000000 0.00000000
vn -0.99940000 0.00000000 0.03560000
vn -0.03600000 0.00000000 -0.99940000
vn 0.00000000 1.00000000 0.00000000
vn 0.00000000 -1.00000000 0.00000000
vn -0.03600000 0.00000000 -0.99940000
vn -0.99940000 0.00000000 0.03560000
vn 0.03120000 0.00000000 0.99950000
vn 0.00000000 1.00000000 0.00000000
vn 0.99940000 0.00000000 -0.03600000
vn 0.03120000 0.00000000 0.99950000
vn 0.99940000 0.00000000 -0.03600000
vn 0.00000000 -1.00000000 0.00000000
vn 0.99940000 0.00000000 -0.03600000
vn 0.00000000 1.00000000 0.00000000
vn -0.03110000 0.00000000 -0.99950000
vn 0.99940000 0.00000000 -0.03600000
vn -0.03110000 0.00000000 -0.99950000
vn 0.00000000 -1.00000000 0.00000000
vn -0.03600000 0.00000000 -0.99940000
vn 0.99930000 0.00000000 -0.03620000
vn 0.00000000 -1.00000000 0.00000000
vn 0.00000000 -1.00000000 0.00000000
vn -0.03600000 0.00000000 -0.99940000
vn -0.99930000 0.00000000 0.03620000
vn 0.99930000 0.00000000 -0.03620000
vn 0.03600000 0.00000000 0.99940000
vn 0.00000000 -1.00000000 0.00000000
vn -0.99930000 0.00000000 0.03620000
vn 0.00000000 -1.00000000 0.00000000
vn 0.03600000 0.00000000 0.99940000
vn -0.03600000 0.00000000 -0.99940000
vn 0.00000000 1.00000000 0.00000000
vn 0.99940000 0.00000000 -0.03600000
vn -0.99940000 0.00000000 0.03600000
vn -0.03600000 0.00000000 -0.99940000
vn 0.00000000 1.00000000 0.00000000
vn 0.03600000 0.00000000 0.99940000
vn 0.00000000 1.00000000 0.00000000
vn 0.99940000 0.00000000 -0.03600000
vn 0.00000000 1.00000000 0.00000000
vn -0.99940000 0.00000000 0.03600000
vn 0.03600000 0.00000000 0.99940000
vt 0.15813600 0.00000000
vt 0.15813600 0.00000000
vt 0.15813600 0.00000000
vt 0.07980100 0.00000000
vt 0.07980100 0.00000000
vt 0.07980100 0.00000000
vt 0.15813600 0.34039900
vt 0.15813600 0.34039900
vt 0.15813600 0.34039900
vt 0.07980100 0.34039900
vt 0.07980100 0.34039900
vt 0.07980100 0.34039900
vt 0.31773800 0.00000000
vt 0.31773800 0.00000000
vt 0.31773800 0.00000000
vt 0.23940200 0.00000000
vt 0.23940200 0.00000000
vt 0.23940200 0.00000000
vt 0.31773800 0.97718100
vt 0.31773800 0.97718100
vt 0.31773800 0.97718100
vt 0.23940200 0.97718100
vt 0.23940200 0.97718100
vt 0.23940200 0.97718100
vt 0.07833600 0.00000000
vt 0.07833600 0.00000000
vt 0.07833600 0.00000000
vt 0.00000000 0.00000000
vt 0.00000000 0.00000000
vt 0.00000000 0.00000000
vt 0.07833600 0.34039900
vt 0.07833600 0.34039900
vt 0.07833600 0.34039900
vt 0.00000000 0.34039900
vt 0.00000000 0.34039900
vt 0.00000000 0.34039900
vt 0.23793700 0.00000000
vt 0.23793700 0.00000000
vt 0.23793700 0.00000000
vt 0.15960100 0.00000000
vt 0.15960100 0.00000000
vt 0.15960100 0.00000000
vt 0.23793700 0.97718100
vt 0.23793700 0.97718100
vt 0.23793700 0.97718100
vt 0.15960100 0.97718100
vt 0.15960100 0.97718100
vt 0.15960100 0.97718100
vt 0.99853500 0.00000000
vt 0.99853500 0.00000000
vt 0.99853500 0.00000000
vt 0.65960100 0.00000000
vt 0.65960100 0.00000000
vt 0.65960100 0.00000000
vt 0.99853500 0.97718100
vt 0.99853500 0.97718100
vt 0.99853500 0.97718100
vt 0.65960100 0.97718100
vt 0.65960100 0.97718100
vt 0.65960100 0.97718100
vt 0.65813600 0.00000000
vt 0.65813600 0.00000000
vt 0.65813600 0.00000000
vt 0.31920300 0.00000000
vt 0.31920300 0.00000000
vt 0.31920300 0.00000000
vt 0.65813600 0.97718100
vt 0.65813600 0.97718100
vt 0.65813600 0.97718100
vt 0.31920300 0.97718100
vt 0.31920300 0.97718100
vt 0.31920300 0.97718100
vt 0.15813600 0.00000000
vt 0.15813600 0.00000000
vt 0.15813600 0.00000000
vt 0.07980100 0.00000000
vt 0.07980100 0.00000000
vt 0.07980100 0.00000000
vt 0.15813600 0.34039900
vt 0.15813600 0.34039900
vt 0.15813600 0.34039900
vt 0.07980100 0.34039900
vt 0.07980100 0.34039900
vt 0.07980100 0.34039900
vt 0.31773800 0.00000000
vt 0.31773800 0.00000000
vt 0.31773800 0.00000000
vt 0.23940200 0.00000000
vt 0.23940200 0.00000000
vt 0.23940200 0.00000000
vt 0.31773800 0.97718100
vt 0.31773800 0.97718100
vt 0.31773800 0.97718100
vt 0.23940200 0.97718100
vt 0.23940200 0.97718100
vt 0.23940200 0.97718100
vt 0.07833600 0.00000000
vt 0.07833600 0.00000000
vt 0.07833600 0.00000000
vt 0.00000000 0.00000000
vt 0.00000000 0.00000000
vt 0.00000000 0.00000000
vt 0.07833600 0.34039900
vt 0.07833600 0.34039900
vt 0.07833600 0.34039900
vt 0.00000000 0.34039900
vt 0.00000000 0.34039900
vt 0.00000000 0.34039900
vt 0.23793700 0.00000000
vt 0.23793700 0.00000000
vt 0.23793700 0.00000000
vt 0.15960100 0.00000000
vt 0.15960100 0.00000000
vt 0.15960100 0.00000000
vt 0.23793700 0.97718100
vt 0.23793700 0.97718100
vt 0.23793700 0.97718100
vt 0.15960100 0.97718100
vt 0.15960100 0.97718100
vt 0.15960100 0.97718100
vt 0.99853500 0.00000000
vt 0.99853500 0.00000000
vt 0.99853500 0.00000000
vt 0.65960100 0.00000000
vt 0.65960100 0.00000000
vt 0.65960100 0.00000000
vt 0.99853500 0.97718100
vt 0.99853500 0.97718100
vt 0.99853500 0.97718100
vt 0.65960100 0.97718100
vt 0.65960100 0.97718100
vt 0.65960100 0.97718100
vt 0.65813600 0.00000000
vt 0.65813600 0.00000000
vt 0.65813600 0.00000000
vt 0.31920300 0.00000000
vt 0.31920300 0.00000000
vt 0.31920300 0.00000000
vt 0.65813600 0.97718100
vt 0.65813600 0.97718100
vt 0.65813600 0.97718100
vt 0.31920300 0.97718100
vt 0.31920300 0.97718100
vt 0.31920300 0.97718100
f 4/4/4 1/1/1 7/7/7
f 18/18/18 15/15/15 19/19/19
f 29/29/29 26/26/26 32/32/32
f 42/42/42 39/39/39 44/44/44
f 52/52/52 58/58/58 50/50/50
f 65/65/65 62/62/62 71/71/71
f 4/4/4 7/7/7 11/11/11
f 18/18/18 19/19/19 22/22/22
f 29/29/29 32/32/32 36/36/36
f 42/42/42 44/44/44 48/48/48
f 58/58/58 56/56/56 50/50/50
f 62/62/62 67/67/67 71/71/71
f 76/76/76 79/79/79 75/75/75
f 89/89/89 92/92/92 87/87/87
f 101/101/101 104/104/104 97/97/97
f 113/113/113 115/115/115 111/111/111
f 124/124/124 123/123/123 131/131/131
f 138/138/138 142/142/142 134/134/134
f 76/76/76 83/83/83 79/79/79
f 89/89/89 95/95/95 92/92/92
f 101/101/101 107/107/107 104/104/104
f 113/113/113 118/118/118 115/115/115
f 131/131/131 123/123/123 129/129/129
f 134/134/134 142/142/142 140/140/140
f 28/28/28 34/34/34 106/106/106
f 106/106/106 102/102/102 28/28/28
f 3/3/3 5/5/5 78/78/78
f 78/78/78 74/74/74 3/3/3
f 6/6/6 10/10/10 84/84/84
f 84/84/84 77/77/77 6/6/6
f 13/13/13 17/17/17 90/90/90
f 90/90/90 85/85/85 13/13/13
f 16/16/16 24/24/24 94/94/94
f 94/94/94 88/88/88 16/16/16
f 35/35/35 33/33/33 103/103/103
f 103/103/103 108/108/108 35/35/35
f 27/27/27 30/30/30 100/100/100
f 100/100/100 99/99/99 27/27/27
f 9/9/9 2/2/2 73/73/73
f 73/73/73 81/81/81 9/9/9
f 38/38/38 41/41/41 112/112/112
f 112/112/112 109/109/109 38/38/38
f 40/40/40 47/47/47 120/120/120
f 120/120/120 114/114/114 40/40/40
f 53/53/53 49/49/49 121/121/121
f 121/121/121 125/125/125 53/53/53
f 51/51/51 57/57/57 127/127/127
f 127/127/127 122/122/122 51/51/51
f 60/60/60 54/54/54 126/126/126
f 126/126/126 130/130/130 60/60/60
f 61/61/61 64/64/64 137/137/137
f 137/137/137 133/133/133 61/61/61
f 69/69/69 63/63/63 135/135/135
f 135/135/135 141/141/141 69/69/69
f 66/66/66 72/72/72 143/143/143
f 143/143/143 136/136/136 66/66/66
f 12/12/12 8/8/8 80/80/80
f 80/80/80 82/82/82 12/12/12
f 70/70/70 68/68/68 139/139/139
f 139/139/139 144/144/144 70/70/70
f 23/23/23 21/21/21 91/91/91
f 91/91/91 96/96/96 23/23/23
f 43/43/43 37/37/37 110/110/110
f 110/110/110 116/116/116 43/43/43
f 55/55/55 59/59/59 132/132/132
f 132/132/132 128/128/128 55/55/55
f 31/31/31 25/25/25 98/98/98
f 98/98/98 105/105/105 31/31/31
f 46/46/46 45/45/45 117/117/117
f 117/117/117 119/119/119 46/46/46
f 20/20/20 14/14/14 86/86/86
f 86/86/86 93/93/93 20/20/20

