mtllib material.mtl
usemtl Material-7011油漆.034
v -0.02503200 -0.12493200 -0.06633000
v -0.02503200 -0.12493200 -0.06633000
v -0.02503200 -0.12493200 -0.06633000
v -0.02503200 -0.12563200 -0.06633000
v -0.02503200 -0.12563200 -0.06633000
v -0.02503200 -0.12563200 -0.06633000
v -0.02775100 -0.12493200 -0.06922000
v -0.02775100 -0.12493200 -0.06922000
v -0.02775100 -0.12493200 -0.06922000
v -0.02775100 -0.12563200 -0.06922000
v -0.02775100 -0.12563200 -0.06922000
v -0.02775100 -0.12563200 -0.06922000
v -0.02775100 -0.12493200 -0.06922000
v -0.02775100 -0.12493200 -0.06922000
v -0.02775100 -0.12493200 -0.06922000
v -0.02775100 -0.12563200 -0.06922000
v -0.02775100 -0.12563200 -0.06922000
v -0.02775100 -0.12563200 -0.06922000
v -0.02635200 -0.12510700 -0.06927100
v -0.02635200 -0.12510700 -0.06927100
v -0.02635200 -0.12528200 -0.06927100
v -0.02635200 -0.12528200 -0.06927100
v -0.02635200 -0.12545700 -0.06927100
v -0.02496000 -0.12510700 -0.06932100
v -0.02496000 -0.12510700 -0.06932100
v -0.02496000 -0.12510700 -0.06932100
v -0.02496000 -0.12510700 -0.06932100
v -0.02496000 -0.12528200 -0.06932100
v -0.02496000 -0.12528200 -0.06932100
v -0.02496000 -0.12528200 -0.06932100
v -0.02496000 -0.12545700 -0.06932100
v -0.02496000 -0.12545700 -0.06932100
v -0.02496000 -0.12545700 -0.06932100
v -0.02496000 -0.12545700 -0.06932100
v -0.02496000 -0.12545700 -0.06932100
v -0.02355500 -0.12510700 -0.06937200
v -0.02355500 -0.12510700 -0.06937200
v -0.02355500 -0.12510700 -0.06937200
v -0.02355500 -0.12528200 -0.06937200
v -0.02355500 -0.12528200 -0.06937200
v -0.02355500 -0.12545700 -0.06937200
v -0.02355500 -0.12545700 -0.06937200
v -0.02355500 -0.12545700 -0.06937200
v -0.02215600 -0.12493200 -0.06942200
v -0.02215600 -0.12493200 -0.06942200
v -0.02215600 -0.12493200 -0.06942200
v -0.02215600 -0.12493200 -0.06942200
v -0.02215600 -0.12563200 -0.06942200
v -0.02215600 -0.12563200 -0.06942200
v -0.02215600 -0.12563200 -0.06942200
v -0.02215600 -0.12563200 -0.06942200
v -0.02513900 -0.12493200 -0.06931400
v -0.02513900 -0.12493200 -0.06931400
v -0.02513900 -0.12493200 -0.06931400
v -0.02513900 -0.12493200 -0.06931400
v -0.02513900 -0.12563200 -0.06931400
v -0.02513900 -0.12563200 -0.06931400
v -0.02513900 -0.12563200 -0.06931400
v -0.02513900 -0.12563200 -0.06931400
v -0.02513900 -0.12563200 -0.06931400
v -0.02215600 -0.12493200 -0.06942200
v -0.02215600 -0.12493200 -0.06942200
v -0.02215600 -0.12493200 -0.06942200
v -0.02215600 -0.12563200 -0.06942200
v -0.02215600 -0.12563200 -0.06942200
v -0.02215600 -0.12563200 -0.06942200
v -0.02184700 -0.12493200 -0.06084200
v -0.02184700 -0.12493200 -0.06084200
v -0.02184700 -0.12493200 -0.06084200
v -0.02184700 -0.12563200 -0.06084200
v -0.02184700 -0.12563200 -0.06084200
v -0.02184700 -0.12563200 -0.06084200
v -0.02184700 -0.12493200 -0.06084200
v -0.02184700 -0.12493200 -0.06084200
v -0.02184700 -0.12493200 -0.06084200
v -0.02184700 -0.12563200 -0.06084200
v -0.02184700 -0.12563200 -0.06084200
v -0.02184700 -0.12563200 -0.06084200
v -0.02483000 -0.12493200 -0.06073400
v -0.02483000 -0.12493200 -0.06073400
v -0.02483000 -0.12493200 -0.06073400
v -0.02483000 -0.12563200 -0.06073400
v -0.02483000 -0.12563200 -0.06073400
v -0.02483000 -0.12563200 -0.06073400
v -0.02483000 -0.12493200 -0.06073500
v -0.02483000 -0.12493200 -0.06073500
v -0.02483000 -0.12493200 -0.06073500
v -0.02483000 -0.12563200 -0.06073500
v -0.02483000 -0.12563200 -0.06073500
v -0.02483000 -0.12563200 -0.06073500
v -0.02503200 -0.12493200 -0.06633000
v -0.02503200 -0.12493200 -0.06633000
v -0.02503200 -0.12493200 -0.06633000
v -0.02503200 -0.12563200 -0.06633000
v -0.02503200 -0.12563200 -0.06633000
v -0.02503200 -0.12563200 -0.06633000
v -0.02775100 -0.12493100 -0.06922000
v -0.02775100 -0.12493100 -0.06922000
v -0.02775100 -0.12493100 -0.06922000
v -0.02184700 -0.12493100 -0.06084200
v -0.02184700 -0.12493100 -0.06084200
v -0.02184700 -0.12493100 -0.06084200
v -0.02503100 -0.12493100 -0.06633000
v -0.02503100 -0.12493100 -0.06633000
v -0.02503100 -0.12493100 -0.06633000
v -0.02513900 -0.12493100 -0.06931400
v -0.02513900 -0.12493100 -0.06931400
v -0.02513900 -0.12493100 -0.06931400
v -0.02215600 -0.12493100 -0.06942100
v -0.02215600 -0.12493100 -0.06942100
v -0.02215600 -0.12493100 -0.06942100
v -0.02483000 -0.12493100 -0.06073500
v -0.02483000 -0.12493100 -0.06073500
v -0.02483000 -0.12493100 -0.06073500
v -0.02775100 -0.12563200 -0.06922000
v -0.02775100 -0.12563200 -0.06922000
v -0.02775100 -0.12563200 -0.06922000
v -0.02184700 -0.12563200 -0.06084200
v -0.02184700 -0.12563200 -0.06084200
v -0.02184700 -0.12563200 -0.06084200
v -0.02503100 -0.12563200 -0.06633000
v -0.02503100 -0.12563200 -0.06633000
v -0.02503100 -0.12563200 -0.06633000
v -0.02513900 -0.12563200 -0.06931400
v -0.02513900 -0.12563200 -0.06931400
v -0.02513900 -0.12563200 -0.06931400
v -0.02215600 -0.12563200 -0.06942100
v -0.02215600 -0.12563200 -0.06942100
v -0.02215600 -0.12563200 -0.06942100
v -0.02483000 -0.12563200 -0.06073500
v -0.02483000 -0.12563200 -0.06073500
v -0.02483000 -0.12563200 -0.06073500
v -0.02503100 -0.12493200 -0.06633000
v -0.02503100 -0.12493200 -0.06633000
v -0.02503100 -0.12493200 -0.06633000
v -0.02503100 -0.12563200 -0.06633000
v -0.02503100 -0.12563200 -0.06633000
v -0.02503100 -0.12563200 -0.06633000
v -0.02775000 -0.12493200 -0.06922000
v -0.02775000 -0.12493200 -0.06922000
v -0.02775000 -0.12493200 -0.06922000
v -0.02775000 -0.12563200 -0.06922000
v -0.02775000 -0.12563200 -0.06922000
v -0.02775000 -0.12563200 -0.06922000
v -0.02775100 -0.12493200 -0.06921900
v -0.02775100 -0.12493200 -0.06921900
v -0.02775100 -0.12493200 -0.06921900
v -0.02775100 -0.12563200 -0.06921900
v -0.02775100 -0.12563200 -0.06921900
v -0.02775100 -0.12563200 -0.06921900
v -0.02635200 -0.12510700 -0.06927000
v -0.02635200 -0.12510700 -0.06927000
v -0.02635200 -0.12528200 -0.06927000
v -0.02635200 -0.12528200 -0.06927000
v -0.02635200 -0.12545700 -0.06927000
v -0.02635200 -0.12545700 -0.06927000
v -0.02496000 -0.12510700 -0.06932000
v -0.02496000 -0.12510700 -0.06932000
v -0.02496000 -0.12510700 -0.06932000
v -0.02496000 -0.12510700 -0.06932000
v -0.02496000 -0.12528200 -0.06932000
v -0.02496000 -0.12528200 -0.06932000
v -0.02496000 -0.12528200 -0.06932000
v -0.02496000 -0.12545700 -0.06932000
v -0.02496000 -0.12545700 -0.06932000
v -0.02496000 -0.12545700 -0.06932000
v -0.02496000 -0.12545700 -0.06932000
v -0.02496000 -0.12545700 -0.06932000
v -0.02355500 -0.12510700 -0.06937100
v -0.02355500 -0.12510700 -0.06937100
v -0.02355500 -0.12528200 -0.06937100
v -0.02355500 -0.12528200 -0.06937100
v -0.02355500 -0.12545700 -0.06937100
v -0.02355500 -0.12545700 -0.06937100
v -0.02215600 -0.12493200 -0.06942100
v -0.02215600 -0.12493200 -0.06942100
v -0.02215600 -0.12493200 -0.06942100
v -0.02215600 -0.12493200 -0.06942100
v -0.02215600 -0.12563200 -0.06942100
v -0.02215600 -0.12563200 -0.06942100
v -0.02215600 -0.12563200 -0.06942100
v -0.02215600 -0.12563200 -0.06942100
v -0.02513900 -0.12493200 -0.06931300
v -0.02513900 -0.12493200 -0.06931300
v -0.02513900 -0.12493200 -0.06931300
v -0.02513900 -0.12493200 -0.06931300
v -0.02513900 -0.12493200 -0.06931300
v -0.02513900 -0.12563200 -0.06931300
v -0.02513900 -0.12563200 -0.06931300
v -0.02513900 -0.12563200 -0.06931300
v -0.02513900 -0.12563200 -0.06931300
v -0.02513900 -0.12563200 -0.06931300
v -0.02215700 -0.12493200 -0.06942100
v -0.02215700 -0.12493200 -0.06942100
v -0.02215700 -0.12493200 -0.06942100
v -0.02215700 -0.12563200 -0.06942100
v -0.02215700 -0.12563200 -0.06942100
v -0.02215700 -0.12563200 -0.06942100
v -0.02184800 -0.12493200 -0.06084200
v -0.02184800 -0.12493200 -0.06084200
v -0.02184800 -0.12493200 -0.06084200
v -0.02184800 -0.12563200 -0.06084200
v -0.02184800 -0.12563200 -0.06084200
v -0.02184800 -0.12563200 -0.06084200
v -0.02184700 -0.12493200 -0.06084300
v -0.02184700 -0.12493200 -0.06084300
v -0.02184700 -0.12493200 -0.06084300
v -0.02184700 -0.12563200 -0.06084300
v -0.02184700 -0.12563200 -0.06084300
v -0.02184700 -0.12563200 -0.06084300
v -0.02483000 -0.12493200 -0.06073500
v -0.02483000 -0.12493200 -0.06073500
v -0.02483000 -0.12493200 -0.06073500
v -0.02483000 -0.12563200 -0.06073500
v -0.02483000 -0.12563200 -0.06073500
v -0.02483000 -0.12563200 -0.06073500
v -0.02482900 -0.12493200 -0.06073500
v -0.02482900 -0.12493200 -0.06073500
v -0.02482900 -0.12493200 -0.06073500
v -0.02482900 -0.12563200 -0.06073500
v -0.02482900 -0.12563200 -0.06073500
v -0.02482900 -0.12563200 -0.06073500
v -0.02503100 -0.12493200 -0.06633000
v -0.02503100 -0.12493200 -0.06633000
v -0.02503100 -0.12493200 -0.06633000
v -0.02503100 -0.12563200 -0.06633000
v -0.02503100 -0.12563200 -0.06633000
v -0.02503100 -0.12563200 -0.06633000
v -0.02775100 -0.12493200 -0.06922000
v -0.02775100 -0.12493200 -0.06922000
v -0.02775100 -0.12493200 -0.06922000
v -0.02184700 -0.12493200 -0.06084200
v -0.02184700 -0.12493200 -0.06084200
v -0.02184700 -0.12493200 -0.06084200
v -0.02503100 -0.12493200 -0.06633000
v -0.02503100 -0.12493200 -0.06633000
v -0.02503100 -0.12493200 -0.06633000
v -0.02513900 -0.12493200 -0.06931400
v -0.02513900 -0.12493200 -0.06931400
v -0.02513900 -0.12493200 -0.06931400
v -0.02215600 -0.12493200 -0.06942100
v -0.02215600 -0.12493200 -0.06942100
v -0.02215600 -0.12493200 -0.06942100
v -0.02483000 -0.12493200 -0.06073500
v -0.02483000 -0.12493200 -0.06073500
v -0.02483000 -0.12493200 -0.06073500
v -0.02775100 -0.12563100 -0.06922000
v -0.02775100 -0.12563100 -0.06922000
v -0.02775100 -0.12563100 -0.06922000
v -0.02184700 -0.12563100 -0.06084200
v -0.02184700 -0.12563100 -0.06084200
v -0.02184700 -0.12563100 -0.06084200
v -0.02503100 -0.12563100 -0.06633000
v -0.02503100 -0.12563100 -0.06633000
v -0.02503100 -0.12563100 -0.06633000
v -0.02513900 -0.12563100 -0.06931400
v -0.02513900 -0.12563100 -0.06931400
v -0.02513900 -0.12563100 -0.06931400
v -0.02215600 -0.12563100 -0.06942100
v -0.02215600 -0.12563100 -0.06942100
v -0.02215600 -0.12563100 -0.06942100
v -0.02483000 -0.12563100 -0.06073500
v -0.02483000 -0.12563100 -0.06073500
v -0.02483000 -0.12563100 -0.06073500
vn -0.72830000 0.00000000 0.68530000
vn 0.00000000 1.00000000 0.00000000
vn 0.68570000 0.00000000 0.72790000
vn -0.72830000 0.00000000 0.68530000
vn 0.68570000 0.00000000 0.72790000
vn 0.00000000 -1.00000000 0.00000000
vn -0.68570000 0.00000000 -0.72790000
vn -0.72830000 0.00000000 0.68530000
vn 0.00000000 1.00000000 0.00000000
vn -0.68570000 0.00000000 -0.72790000
vn -0.72830000 0.00000000 0.68530000
vn 0.00000000 -1.00000000 0.00000000
vn -0.99940000 0.00000000 0.03380000
vn -0.03590000 0.00000000 -0.99940000
vn 0.00000000 1.00000000 0.00000000
vn -0.99940000 0.00000000 0.03380000
vn 0.00000000 -1.00000000 0.00000000
vn -0.03590000 0.00000000 -0.99940000
vn -0.03600000 0.00000000 -0.99940000
vn -0.03590000 0.00000000 -0.99940000
vn -0.03590000 0.00000000 -0.99940000
vn -0.03600000 0.00000000 -0.99940000
vn -0.03590000 0.00000000 -0.99940000
vn -0.03600000 0.00000000 -0.99940000
vn -0.03610000 0.00000000 -0.99930000
vn -0.03590000 0.00000000 -0.99940000
vn -0.03610000 -0.00010000 -0.99930000
vn -0.03610000 0.00000000 -0.99930000
vn -0.03590000 0.00000000 -0.99940000
vn -0.03600000 0.00000000 -0.99940000
vn -0.03610000 0.00000000 -0.99930000
vn -0.03620000 0.00010000 -0.99930000
vn -0.03600000 0.00000000 -0.99940000
vn -0.03590000 0.00000000 -0.99940000
vn -0.03610000 0.00010000 -0.99930000
vn -0.03610000 -0.00010000 -0.99930000
vn -0.03610000 0.00000000 -0.99930000
vn -0.03600000 0.00000000 -0.99940000
vn -0.03610000 0.00000000 -0.99930000
vn -0.03600000 0.00000000 -0.99940000
vn -0.03600000 0.00000000 -0.99940000
vn -0.03610000 0.00000000 -0.99930000
vn -0.03610000 0.00010000 -0.99930000
vn -0.03610000 0.00000000 -0.99930000
vn 0.99940000 0.00000000 -0.03560000
vn 0.00000000 1.00000000 0.00000000
vn -0.03600000 0.00000000 -0.99940000
vn 0.00000000 -1.00000000 0.00000000
vn -0.03610000 0.00000000 -0.99930000
vn 0.99940000 0.00000000 -0.03560000
vn -0.03600000 0.00000000 -0.99940000
vn 0.00000000 1.00000000 0.00000000
vn -0.03610000 0.00000000 -0.99930000
vn -0.03610000 -0.00010000 -0.99930000
vn -0.03590000 0.00000000 -0.99940000
vn -0.03590000 0.00000000 -0.99940000
vn -0.03610000 0.00010000 -0.99930000
vn -0.03610000 0.00000000 -0.99930000
vn 0.00000000 -1.00000000 0.00000000
vn -0.03620000 0.00010000 -0.99930000
vn 0.00000000 1.00000000 0.00000000
vn -0.02600000 0.00000000 -0.99970000
vn 0.99940000 0.00000000 -0.03600000
vn -0.02600000 0.00000000 -0.99970000
vn 0.00000000 -1.00000000 0.00000000
vn 0.99940000 0.00000000 -0.03600000
vn 0.99940000 0.00000000 -0.03600000
vn 0.00000000 1.00000000 0.00000000
vn 0.04150000 0.00000000 0.99910000
vn 0.04150000 0.00000000 0.99910000
vn 0.00000000 -1.00000000 0.00000000
vn 0.99940000 0.00000000 -0.03600000
vn 0.00000000 1.00000000 0.00000000
vn 0.99940000 0.00000000 -0.03530000
vn 0.03600000 0.00000000 0.99940000
vn 0.99940000 0.00000000 -0.03530000
vn 0.03600000 0.00000000 0.99940000
vn 0.00000000 -1.00000000 0.00000000
vn -0.99940000 0.00000000 0.03530000
vn 0.03600000 0.00000000 0.99940000
vn 0.00000000 1.00000000 0.00000000
vn 0.00000000 -1.00000000 0.00000000
vn -0.99940000 0.00000000 0.03530000
vn 0.03600000 0.00000000 0.99940000
vn 0.00000000 1.00000000 0.00000000
vn 0.04150000 0.00000000 0.99910000
vn -0.99940000 0.00000000 0.03600000
vn 0.04150000 0.00000000 0.99910000
vn 0.00000000 -1.00000000 0.00000000
vn -0.99940000 0.00000000 0.03600000
vn -0.03120000 0.00000000 -0.99950000
vn 0.00000000 1.00000000 0.00000000
vn -0.99940000 0.00000000 0.03600000
vn 0.00000000 -1.00000000 0.00000000
vn -0.03120000 0.00000000 -0.99950000
vn -0.99940000 0.00000000 0.03600000
vn 0.00000000 1.00000000 0.00000000
vn -0.72820000 0.00000000 0.68540000
vn -0.03600000 0.00000000 -0.99940000
vn 0.03570000 0.00000000 0.99940000
vn 0.99930000 0.00000000 -0.03620000
vn 0.00000000 1.00000000 0.00000000
vn -0.72820000 0.00000000 0.68540000
vn 0.00000000 1.00000000 0.00000000
vn -0.99940000 0.00000000 0.03590000
vn -0.03570000 0.00000000 -0.99940000
vn -0.03600000 0.00000000 -0.99940000
vn 0.00000000 1.00000000 0.00000000
vn 0.00000000 1.00000000 0.00000000
vn -0.03570000 0.00000000 -0.99940000
vn 0.99930000 0.00000000 -0.03620000
vn -0.99940000 0.00000000 0.03590000
vn 0.03570000 0.00000000 0.99940000
vn 0.00000000 1.00000000 0.00000000
vn 0.00000000 -1.00000000 0.00000000
vn -0.72710000 0.00000000 0.68650000
vn -0.03590000 0.00000000 -0.99940000
vn 0.00000000 -1.00000000 0.00000000
vn 0.99940000 0.00000000 -0.03600000
vn 0.03590000 0.00000000 0.99940000
vn 0.00000000 -1.00000000 0.00000000
vn -0.99930000 0.00000000 0.03620000
vn -0.72710000 0.00000000 0.68650000
vn 0.00000000 -1.00000000 0.00000000
vn -0.03590000 0.00000000 -0.99940000
vn -0.03600000 0.00000000 -0.99940000
vn 0.00000000 -1.00000000 0.00000000
vn -0.03600000 0.00000000 -0.99940000
vn 0.99940000 0.00000000 -0.03600000
vn -0.99930000 0.00000000 0.03620000
vn 0.03590000 0.00000000 0.99940000
vn 0.00000000 -1.00000000 0.00000000
vn 0.72830000 0.00000000 -0.68530000
vn 0.68570000 0.00000000 0.72790000
vn 0.00000000 1.00000000 0.00000000
vn 0.72830000 0.00000000 -0.68530000
vn 0.68570000 0.00000000 0.72790000
vn 0.00000000 -1.00000000 0.00000000
vn -0.68570000 0.00000000 -0.72790000
vn 0.00000000 1.00000000 0.00000000
vn 0.72830000 0.00000000 -0.68530000
vn 0.00000000 -1.00000000 0.00000000
vn 0.72830000 0.00000000 -0.68530000
vn -0.68570000 0.00000000 -0.72790000
vn 0.00000000 1.00000000 0.00000000
vn 0.03590000 0.00000000 0.99940000
vn -0.99940000 0.00000000 0.03380000
vn 0.03590000 0.00000000 0.99940000
vn -0.99940000 0.00000000 0.03380000
vn 0.00000000 -1.00000000 0.00000000
vn 0.03600000 0.00000000 0.99940000
vn 0.03590000 0.00000000 0.99940000
vn 0.03590000 0.00000000 0.99940000
vn 0.03600000 0.00000000 0.99940000
vn 0.03590000 0.00000000 0.99940000
vn 0.03600000 0.00000000 0.99940000
vn 0.03610000 0.00010000 0.99930000
vn 0.03600000 0.00000000 0.99940000
vn 0.03590000 0.00000000 0.99940000
vn 0.03610000 0.00000000 0.99930000
vn 0.03590000 0.00000000 0.99940000
vn 0.03600000 0.00000000 0.99940000
vn 0.03610000 0.00000000 0.99930000
vn 0.03610000 0.00000000 0.99930000
vn 0.03590000 0.00000000 0.99940000
vn 0.03610000 -0.00010000 0.99930000
vn 0.03600000 0.00000000 0.99940000
vn 0.03580000 -0.00030000 0.99940000
vn 0.03610000 0.00000000 0.99930000
vn 0.03610000 0.00010000 0.99930000
vn 0.03610000 0.00000000 0.99930000
vn 0.03600000 0.00000000 0.99940000
vn 0.03610000 0.00000000 0.99930000
vn 0.03610000 -0.00010000 0.99930000
vn 0.00000000 1.00000000 0.00000000
vn 0.03610000 0.00000000 0.99930000
vn 0.03600000 0.00000000 0.99940000
vn 0.99940000 0.00000000 -0.03560000
vn 0.03600000 0.00000000 0.99940000
vn 0.99940000 0.00000000 -0.03560000
vn 0.03610000 0.00000000 0.99930000
vn 0.00000000 -1.00000000 0.00000000
vn 0.03590000 0.00000000 0.99940000
vn 0.03610000 0.00000000 0.99930000
vn 0.00000000 1.00000000 0.00000000
vn 0.03610000 0.00010000 0.99930000
vn 0.03600000 0.00000000 0.99940000
vn 0.03610000 -0.00010000 0.99930000
vn 0.00000000 -1.00000000 0.00000000
vn 0.03590000 0.00000000 0.99940000
vn 0.03610000 0.00000000 0.99930000
vn 0.03610000 0.00030000 0.99930000
vn 0.00000000 1.00000000 0.00000000
vn -0.02600000 0.00000000 -0.99970000
vn -0.99940000 0.00000000 0.03600000
vn 0.00000000 -1.00000000 0.00000000
vn -0.02600000 0.00000000 -0.99970000
vn -0.99940000 0.00000000 0.03600000
vn 0.04150000 0.00000000 0.99910000
vn -0.99940000 0.00000000 0.03600000
vn 0.00000000 1.00000000 0.00000000
vn -0.99940000 0.00000000 0.03600000
vn 0.00000000 -1.00000000 0.00000000
vn 0.04150000 0.00000000 0.99910000
vn 0.99940000 0.00000000 -0.03530000
vn 0.00000000 1.00000000 0.00000000
vn -0.03600000 0.00000000 -0.99940000
vn 0.99940000 0.00000000 -0.03530000
vn 0.00000000 -1.00000000 0.00000000
vn -0.03600000 0.00000000 -0.99940000
vn 0.00000000 1.00000000 0.00000000
vn -0.03600000 0.00000000 -0.99940000
vn -0.99940000 0.00000000 0.03530000
vn -0.99940000 0.00000000 0.03530000
vn -0.03600000 0.00000000 -0.99940000
vn 0.00000000 -1.00000000 0.00000000
vn 0.00000000 1.00000000 0.00000000
vn 0.04150000 0.00000000 0.99910000
vn 0.99940000 0.00000000 -0.03600000
vn 0.04150000 0.00000000 0.99910000
vn 0.00000000 -1.00000000 0.00000000
vn 0.99940000 0.00000000 -0.03600000
vn 0.99940000 0.00000000 -0.03600000
vn -0.03120000 0.00000000 -0.99950000
vn 0.00000000 1.00000000 0.00000000
vn -0.03120000 0.00000000 -0.99950000
vn 0.99940000 0.00000000 -0.03600000
vn 0.00000000 -1.00000000 0.00000000
vn -0.72820000 0.00000000 0.68540000
vn -0.03600000 0.00000000 -0.99940000
vn 0.00000000 -1.00000000 0.00000000
vn 0.99930000 0.00000000 -0.03620000
vn 0.03570000 0.00000000 0.99940000
vn 0.00000000 -1.00000000 0.00000000
vn -0.99940000 0.00000000 0.03590000
vn 0.00000000 -1.00000000 0.00000000
vn -0.72820000 0.00000000 0.68540000
vn -0.03570000 0.00000000 -0.99940000
vn -0.03600000 0.00000000 -0.99940000
vn 0.00000000 -1.00000000 0.00000000
vn 0.99930000 0.00000000 -0.03620000
vn 0.00000000 -1.00000000 0.00000000
vn -0.03570000 0.00000000 -0.99940000
vn -0.99940000 0.00000000 0.03590000
vn 0.00000000 -1.00000000 0.00000000
vn 0.03570000 0.00000000 0.99940000
vn -0.03590000 0.00000000 -0.99940000
vn -0.72710000 0.00000000 0.68650000
vn 0.00000000 1.00000000 0.00000000
vn 0.99940000 0.00000000 -0.03600000
vn 0.03590000 0.00000000 0.99940000
vn 0.00000000 1.00000000 0.00000000
vn -0.99930000 0.00000000 0.03620000
vn -0.72710000 0.00000000 0.68650000
vn 0.00000000 1.00000000 0.00000000
vn 0.00000000 1.00000000 0.00000000
vn -0.03600000 0.00000000 -0.99940000
vn -0.03590000 0.00000000 -0.99940000
vn 0.00000000 1.00000000 0.00000000
vn -0.03600000 0.00000000 -0.99940000
vn 0.99940000 0.00000000 -0.03600000
vn -0.99930000 0.00000000 0.03620000
vn 0.03590000 0.00000000 0.99940000
vn 0.00000000 1.00000000 0.00000000
vt 0.10968300 0.00000000
vt 0.10968300 0.00000000
vt 0.10968300 0.00000000
vt 0.05557400 0.00000000
vt 0.05557400 0.00000000
vt 0.05557400 0.00000000
vt 0.10968300 0.31503100
vt 0.10968300 0.31503100
vt 0.10968300 0.31503100
vt 0.05557400 0.31503100
vt 0.05557400 0.31503100
vt 0.05557400 0.31503100
vt 0.16672200 0.00000000
vt 0.16672200 0.00000000
vt 0.16672200 0.00000000
vt 0.16672200 0.05410900
vt 0.16672200 0.05410900
vt 0.16672200 0.05410900
vt 0.27782800 0.01352700
vt 0.27782800 0.01352700
vt 0.27782800 0.02705500
vt 0.27782800 0.02705500
vt 0.27782800 0.04058200
vt 0.38842000 0.01352700
vt 0.38842000 0.01352700
vt 0.38842000 0.01352700
vt 0.38842000 0.01352700
vt 0.38842000 0.02705500
vt 0.38842000 0.02705500
vt 0.38842000 0.02705500
vt 0.38842000 0.04058200
vt 0.38842000 0.04058200
vt 0.38842000 0.04058200
vt 0.38842000 0.04058200
vt 0.38842000 0.04058200
vt 0.50004100 0.01352700
vt 0.50004100 0.01352700
vt 0.50004100 0.01352700
vt 0.50004100 0.02705500
vt 0.50004100 0.02705500
vt 0.50004100 0.04058200
vt 0.50004100 0.04058200
vt 0.50004100 0.04058200
vt 0.61114800 0.00000000
vt 0.61114800 0.00000000
vt 0.61114800 0.00000000
vt 0.61114800 0.00000000
vt 0.61114800 0.05410900
vt 0.61114800 0.05410900
vt 0.61114800 0.05410900
vt 0.61114800 0.05410900
vt 0.37420300 0.00000000
vt 0.37420300 0.00000000
vt 0.37420300 0.00000000
vt 0.37420300 0.00000000
vt 0.37420300 0.05410900
vt 0.37420300 0.05410900
vt 0.37420300 0.05410900
vt 0.37420300 0.05410900
vt 0.37420300 0.05410900
vt 0.16525700 0.00000000
vt 0.16525700 0.00000000
vt 0.16525700 0.00000000
vt 0.11114800 0.00000000
vt 0.11114800 0.00000000
vt 0.11114800 0.00000000
vt 0.16525700 0.68156700
vt 0.16525700 0.68156700
vt 0.16525700 0.68156700
vt 0.11114800 0.68156700
vt 0.11114800 0.68156700
vt 0.11114800 0.68156700
vt 0.05410900 0.00000000
vt 0.05410900 0.00000000
vt 0.05410900 0.00000000
vt 0.00000000 0.00000000
vt 0.00000000 0.00000000
vt 0.00000000 0.00000000
vt 0.05410900 0.23694500
vt 0.05410900 0.23694500
vt 0.05410900 0.23694500
vt 0.00000000 0.23694500
vt 0.00000000 0.23694500
vt 0.00000000 0.23694500
vt 0.16672200 0.05557400
vt 0.16672200 0.05557400
vt 0.16672200 0.05557400
vt 0.16672200 0.10968300
vt 0.16672200 0.10968300
vt 0.16672200 0.10968300
vt 0.61123200 0.05557400
vt 0.61123200 0.05557400
vt 0.61123200 0.05557400
vt 0.61123200 0.10968300
vt 0.61123200 0.10968300
vt 0.61123200 0.10968300
vt 0.16672200 0.99853500
vt 0.16672200 0.99853500
vt 0.16672200 0.99853500
vt 0.84682400 0.55557400
vt 0.84682400 0.55557400
vt 0.84682400 0.55557400
vt 0.40326900 0.79173800
vt 0.40326900 0.79173800
vt 0.40326900 0.79173800
vt 0.16673600 0.79173800
vt 0.16673600 0.79173800
vt 0.16673600 0.79173800
vt 0.16672200 0.55557400
vt 0.16672200 0.55557400
vt 0.16672200 0.55557400
vt 0.84682400 0.79173800
vt 0.84682400 0.79173800
vt 0.84682400 0.79173800
vt 0.16672200 0.55410900
vt 0.16672200 0.55410900
vt 0.16672200 0.55410900
vt 0.84682400 0.11114800
vt 0.84682400 0.11114800
vt 0.84682400 0.11114800
vt 0.40326900 0.34731200
vt 0.40326900 0.34731200
vt 0.40326900 0.34731200
vt 0.16673600 0.34731200
vt 0.16673600 0.34731200
vt 0.16673600 0.34731200
vt 0.16672200 0.11114800
vt 0.16672200 0.11114800
vt 0.16672200 0.11114800
vt 0.84682400 0.34731200
vt 0.84682400 0.34731200
vt 0.84682400 0.34731200
vt 0.10968300 0.00000000
vt 0.10968300 0.00000000
vt 0.10968300 0.00000000
vt 0.05557400 0.00000000
vt 0.05557400 0.00000000
vt 0.05557400 0.00000000
vt 0.10968300 0.31503100
vt 0.10968300 0.31503100
vt 0.10968300 0.31503100
vt 0.05557400 0.31503100
vt 0.05557400 0.31503100
vt 0.05557400 0.31503100
vt 0.16672200 0.00000000
vt 0.16672200 0.00000000
vt 0.16672200 0.00000000
vt 0.16672200 0.05410900
vt 0.16672200 0.05410900
vt 0.16672200 0.05410900
vt 0.27782800 0.01352700
vt 0.27782800 0.01352700
vt 0.27782800 0.02705500
vt 0.27782800 0.02705500
vt 0.27782800 0.04058200
vt 0.27782800 0.04058200
vt 0.38842000 0.01352700
vt 0.38842000 0.01352700
vt 0.38842000 0.01352700
vt 0.38842000 0.01352700
vt 0.38842000 0.02705500
vt 0.38842000 0.02705500
vt 0.38842000 0.02705500
vt 0.38842000 0.04058200
vt 0.38842000 0.04058200
vt 0.38842000 0.04058200
vt 0.38842000 0.04058200
vt 0.38842000 0.04058200
vt 0.50004100 0.01352700
vt 0.50004100 0.01352700
vt 0.50004100 0.02705500
vt 0.50004100 0.02705500
vt 0.50004100 0.04058200
vt 0.50004100 0.04058200
vt 0.61114800 0.00000000
vt 0.61114800 0.00000000
vt 0.61114800 0.00000000
vt 0.61114800 0.00000000
vt 0.61114800 0.05410900
vt 0.61114800 0.05410900
vt 0.61114800 0.05410900
vt 0.61114800 0.05410900
vt 0.37420300 0.00000000
vt 0.37420300 0.00000000
vt 0.37420300 0.00000000
vt 0.37420300 0.00000000
vt 0.37420300 0.00000000
vt 0.37420300 0.05410900
vt 0.37420300 0.05410900
vt 0.37420300 0.05410900
vt 0.37420300 0.05410900
vt 0.37420300 0.05410900
vt 0.16525700 0.00000000
vt 0.16525700 0.00000000
vt 0.16525700 0.00000000
vt 0.11114800 0.00000000
vt 0.11114800 0.00000000
vt 0.11114800 0.00000000
vt 0.16525700 0.68156700
vt 0.16525700 0.68156700
vt 0.16525700 0.68156700
vt 0.11114800 0.68156700
vt 0.11114800 0.68156700
vt 0.11114800 0.68156700
vt 0.05410900 0.00000000
vt 0.05410900 0.00000000
vt 0.05410900 0.00000000
vt 0.00000000 0.00000000
vt 0.00000000 0.00000000
vt 0.00000000 0.00000000
vt 0.05410900 0.23694500
vt 0.05410900 0.23694500
vt 0.05410900 0.23694500
vt 0.00000000 0.23694500
vt 0.00000000 0.23694500
vt 0.00000000 0.23694500
vt 0.16672200 0.05557400
vt 0.16672200 0.05557400
vt 0.16672200 0.05557400
vt 0.16672200 0.10968300
vt 0.16672200 0.10968300
vt 0.16672200 0.10968300
vt 0.61123200 0.05557400
vt 0.61123200 0.05557400
vt 0.61123200 0.05557400
vt 0.61123200 0.10968300
vt 0.61123200 0.10968300
vt 0.61123200 0.10968300
vt 0.16672200 0.99853500
vt 0.16672200 0.99853500
vt 0.16672200 0.99853500
vt 0.84682400 0.55557400
vt 0.84682400 0.55557400
vt 0.84682400 0.55557400
vt 0.40326900 0.79173800
vt 0.40326900 0.79173800
vt 0.40326900 0.79173800
vt 0.16673600 0.79173800
vt 0.16673600 0.79173800
vt 0.16673600 0.79173800
vt 0.16672200 0.55557400
vt 0.16672200 0.55557400
vt 0.16672200 0.55557400
vt 0.84682400 0.79173800
vt 0.84682400 0.79173800
vt 0.84682400 0.79173800
vt 0.16672200 0.55410900
vt 0.16672200 0.55410900
vt 0.16672200 0.55410900
vt 0.84682400 0.11114800
vt 0.84682400 0.11114800
vt 0.84682400 0.11114800
vt 0.40326900 0.34731200
vt 0.40326900 0.34731200
vt 0.40326900 0.34731200
vt 0.16673600 0.34731200
vt 0.16673600 0.34731200
vt 0.16673600 0.34731200
vt 0.16672200 0.11114800
vt 0.16672200 0.11114800
vt 0.16672200 0.11114800
vt 0.84682400 0.34731200
vt 0.84682400 0.34731200
vt 0.84682400 0.34731200
f 4/4/4 1/1/1 8/8/8
f 29/29/29 21/21/21 20/20/20
f 34/34/34 23/23/23 21/21/21
f 39/39/39 28/28/28 25/25/25
f 42/42/42 31/31/31 28/28/28
f 20/20/20 14/14/14 55/55/55
f 21/21/21 14/14/14 20/20/20
f 23/23/23 18/18/18 21/21/21
f 14/14/14 21/21/21 18/18/18
f 18/18/18 23/23/23 56/56/56
f 23/23/23 32/32/32 60/60/60
f 55/55/55 26/26/26 20/20/20
f 27/27/27 54/54/54 36/36/36
f 44/44/44 37/37/37 53/53/53
f 40/40/40 38/38/38 47/47/47
f 49/49/49 58/58/58 42/42/42
f 40/40/40 51/51/51 41/41/41
f 49/49/49 39/39/39 44/44/44
f 66/66/66 63/63/63 67/67/67
f 77/77/77 75/75/75 80/80/80
f 90/90/90 87/87/87 93/93/93
f 104/104/104 109/109/109 108/108/108
f 104/104/104 108/108/108 97/97/97
f 114/114/114 102/102/102 104/104/104
f 109/109/109 104/104/104 102/102/102
f 121/121/121 124/124/124 127/127/127
f 121/121/121 115/115/115 124/124/124
f 132/132/132 121/121/121 118/118/118
f 127/127/127 118/118/118 121/121/121
f 4/4/4 8/8/8 11/11/11
f 30/30/30 19/19/19 24/24/24
f 33/33/33 22/22/22 30/30/30
f 39/39/39 25/25/25 37/37/37
f 42/42/42 28/28/28 39/39/39
f 57/57/57 35/35/35 43/43/43
f 66/66/66 67/67/67 72/72/72
f 77/77/77 80/80/80 84/84/84
f 90/90/90 93/93/93 96/96/96
f 136/136/136 141/141/141 133/133/133
f 162/162/162 151/151/151 154/154/154
f 167/167/167 154/154/154 156/156/156
f 171/171/171 160/160/160 163/163/163
f 173/173/173 163/163/163 164/164/164
f 152/152/152 183/183/183 146/146/146
f 153/153/153 152/152/152 146/146/146
f 155/155/155 153/153/153 148/148/148
f 146/146/146 148/148/148 153/153/153
f 148/148/148 190/190/190 155/155/155
f 155/155/155 192/192/192 168/168/168
f 187/187/187 151/151/151 158/158/158
f 157/157/157 170/170/170 186/186/186
f 176/176/176 184/184/184 169/169/169
f 171/171/171 176/176/176 169/169/169
f 181/181/181 173/173/173 191/191/191
f 171/171/171 173/173/173 181/181/181
f 179/179/179 177/177/177 172/172/172
f 198/198/198 200/200/200 195/195/195
f 210/210/210 212/212/212 207/207/207
f 222/222/222 223/223/223 219/219/219
f 236/236/236 240/240/240 242/242/242
f 236/236/236 231/231/231 240/240/240
f 245/245/245 236/236/236 234/234/234
f 242/242/242 234/234/234 236/236/236
f 255/255/255 259/259/259 256/256/256
f 255/255/255 256/256/256 249/249/249
f 264/264/264 252/252/252 255/255/255
f 259/259/259 255/255/255 252/252/252
f 136/136/136 143/143/143 141/141/141
f 161/161/161 159/159/159 152/152/152
f 165/165/165 161/161/161 153/153/153
f 171/171/171 169/169/169 160/160/160
f 173/173/173 171/171/171 163/163/163
f 188/188/188 174/174/174 166/166/166
f 198/198/198 202/202/202 200/200/200
f 210/210/210 215/215/215 212/212/212
f 222/222/222 227/227/227 223/223/223
f 3/3/3 5/5/5 137/137/137
f 137/137/137 134/134/134 3/3/3
f 6/6/6 12/12/12 142/142/142
f 142/142/142 138/138/138 6/6/6
f 13/13/13 16/16/16 149/149/149
f 149/149/149 147/147/147 13/13/13
f 9/9/9 2/2/2 135/135/135
f 135/135/135 140/140/140 9/9/9
f 17/17/17 59/59/59 189/189/189
f 189/189/189 150/150/150 17/17/17
f 62/62/62 64/64/64 197/197/197
f 197/197/197 194/194/194 62/62/62
f 65/65/65 71/71/71 203/203/203
f 203/203/203 196/196/196 65/65/65
f 70/70/70 69/69/69 199/199/199
f 199/199/199 204/204/204 70/70/70
f 74/74/74 76/76/76 208/208/208
f 208/208/208 205/205/205 74/74/74
f 78/78/78 82/82/82 216/216/216
f 216/216/216 209/209/209 78/78/78
f 86/86/86 88/88/88 220/220/220
f 220/220/220 218/218/218 86/86/86
f 89/89/89 94/94/94 228/228/228
f 228/228/228 221/221/221 89/89/89
f 10/10/10 7/7/7 139/139/139
f 139/139/139 144/144/144 10/10/10
f 103/103/103 98/98/98 229/229/229
f 229/229/229 237/237/237 103/103/103
f 112/112/112 105/105/105 235/235/235
f 235/235/235 244/244/244 112/112/112
f 116/116/116 123/123/123 254/254/254
f 254/254/254 248/248/248 116/116/116
f 131/131/131 120/120/120 251/251/251
f 251/251/251 263/263/263 131/131/131
f 81/81/81 73/73/73 206/206/206
f 206/206/206 211/211/211 81/81/81
f 122/122/122 130/130/130 262/262/262
f 262/262/262 253/253/253 122/122/122
f 83/83/83 79/79/79 213/213/213
f 213/213/213 214/214/214 83/83/83
f 128/128/128 126/126/126 257/257/257
f 257/257/257 260/260/260 128/128/128
f 92/92/92 85/85/85 217/217/217
f 217/217/217 225/225/225 92/92/92
f 52/52/52 15/15/15 145/145/145
f 145/145/145 185/185/185 52/52/52
f 68/68/68 61/61/61 193/193/193
f 193/193/193 201/201/201 68/68/68
f 95/95/95 91/91/91 224/224/224
f 224/224/224 226/226/226 95/95/95
f 100/100/100 113/113/113 246/246/246
f 246/246/246 233/233/233 100/100/100
f 99/99/99 107/107/107 239/239/239
f 239/239/239 230/230/230 99/99/99
f 111/111/111 101/101/101 232/232/232
f 232/232/232 241/241/241 111/111/111
f 106/106/106 110/110/110 243/243/243
f 243/243/243 238/238/238 106/106/106
f 50/50/50 45/45/45 178/178/178
f 178/178/178 180/180/180 50/50/50
f 46/46/46 52/52/52 185/185/185
f 185/185/185 175/175/175 46/46/46
f 59/59/59 48/48/48 182/182/182
f 182/182/182 189/189/189 59/59/59
f 125/125/125 117/117/117 247/247/247
f 247/247/247 258/258/258 125/125/125
f 119/119/119 129/129/129 261/261/261
f 261/261/261 250/250/250 119/119/119

