mtllib material.mtl
usemtl Material-7011油漆.030
v -0.01401100 -0.12493200 -0.00920900
v -0.01401100 -0.12493200 -0.00920900
v -0.01401100 -0.12493200 -0.00920900
v -0.01401100 -0.12563200 -0.00920900
v -0.01401100 -0.12563200 -0.00920900
v -0.01401100 -0.12563200 -0.00920900
v -0.02445500 -0.12493200 -0.00883300
v -0.02445500 -0.12493200 -0.00883300
v -0.02445500 -0.12493200 -0.00883300
v -0.02445500 -0.12563200 -0.00883300
v -0.02445500 -0.12563200 -0.00883300
v -0.02445500 -0.12563200 -0.00883300
v -0.02445500 -0.12493200 -0.00883400
v -0.02445500 -0.12493200 -0.00883400
v -0.02445500 -0.12493200 -0.00883400
v -0.02445500 -0.12563200 -0.00883400
v -0.02445500 -0.12563200 -0.00883400
v -0.02445500 -0.12563200 -0.00883400
v -0.02450900 -0.12493200 -0.01032500
v -0.02450900 -0.12493200 -0.01032500
v -0.02450900 -0.12493200 -0.01032500
v -0.02450900 -0.12563200 -0.01032500
v -0.02450900 -0.12563200 -0.01032500
v -0.02450900 -0.12563200 -0.01032500
v -0.02450900 -0.12493200 -0.01032600
v -0.02450900 -0.12493200 -0.01032600
v -0.02450900 -0.12493200 -0.01032600
v -0.02450900 -0.12563200 -0.01032600
v -0.02450900 -0.12563200 -0.01032600
v -0.02450900 -0.12563200 -0.01032600
v -0.01406500 -0.12493200 -0.01070200
v -0.01406500 -0.12493200 -0.01070200
v -0.01406500 -0.12493200 -0.01070200
v -0.01406500 -0.12563200 -0.01070200
v -0.01406500 -0.12563200 -0.01070200
v -0.01406500 -0.12563200 -0.01070200
v -0.01406400 -0.12493200 -0.01070200
v -0.01406400 -0.12493200 -0.01070200
v -0.01406400 -0.12493200 -0.01070200
v -0.01406400 -0.12563200 -0.01070200
v -0.01406400 -0.12563200 -0.01070200
v -0.01406400 -0.12563200 -0.01070200
v -0.01401000 -0.12493200 -0.00921000
v -0.01401000 -0.12493200 -0.00921000
v -0.01401000 -0.12493200 -0.00921000
v -0.01401000 -0.12563200 -0.00921000
v -0.01401000 -0.12563200 -0.00921000
v -0.01401000 -0.12563200 -0.00921000
v -0.01401100 -0.12493100 -0.00921000
v -0.01401100 -0.12493100 -0.00921000
v -0.01401100 -0.12493100 -0.00921000
v -0.01406500 -0.12493100 -0.01070200
v -0.01406500 -0.12493100 -0.01070200
v -0.01406500 -0.12493100 -0.01070200
v -0.02445500 -0.12493100 -0.00883400
v -0.02445500 -0.12493100 -0.00883400
v -0.02445500 -0.12493100 -0.00883400
v -0.02450900 -0.12493100 -0.01032600
v -0.02450900 -0.12493100 -0.01032600
v -0.02450900 -0.12493100 -0.01032600
v -0.01401100 -0.12563200 -0.00921000
v -0.01401100 -0.12563200 -0.00921000
v -0.01401100 -0.12563200 -0.00921000
v -0.01406500 -0.12563200 -0.01070200
v -0.01406500 -0.12563200 -0.01070200
v -0.01406500 -0.12563200 -0.01070200
v -0.02445500 -0.12563200 -0.00883400
v -0.02445500 -0.12563200 -0.00883400
v -0.02445500 -0.12563200 -0.00883400
v -0.02450900 -0.12563200 -0.01032600
v -0.02450900 -0.12563200 -0.01032600
v -0.02450900 -0.12563200 -0.01032600
v -0.01401100 -0.12493200 -0.00921000
v -0.01401100 -0.12493200 -0.00921000
v -0.01401100 -0.12493200 -0.00921000
v -0.01401100 -0.12563200 -0.00921000
v -0.01401100 -0.12563200 -0.00921000
v -0.01401100 -0.12563200 -0.00921000
v -0.02445500 -0.12493200 -0.00883400
v -0.02445500 -0.12493200 -0.00883400
v -0.02445500 -0.12493200 -0.00883400
v -0.02445500 -0.12563200 -0.00883400
v -0.02445500 -0.12563200 -0.00883400
v -0.02445500 -0.12563200 -0.00883400
v -0.02445400 -0.12493200 -0.00883400
v -0.02445400 -0.12493200 -0.00883400
v -0.02445400 -0.12493200 -0.00883400
v -0.02445400 -0.12563200 -0.00883400
v -0.02445400 -0.12563200 -0.00883400
v -0.02445400 -0.12563200 -0.00883400
v -0.02450800 -0.12493200 -0.01032600
v -0.02450800 -0.12493200 -0.01032600
v -0.02450800 -0.12493200 -0.01032600
v -0.02450800 -0.12563200 -0.01032600
v -0.02450800 -0.12563200 -0.01032600
v -0.02450800 -0.12563200 -0.01032600
v -0.02450900 -0.12493200 -0.01032500
v -0.02450900 -0.12493200 -0.01032500
v -0.02450900 -0.12493200 -0.01032500
v -0.02450900 -0.12563200 -0.01032500
v -0.02450900 -0.12563200 -0.01032500
v -0.02450900 -0.12563200 -0.01032500
v -0.01406500 -0.12493200 -0.01070100
v -0.01406500 -0.12493200 -0.01070100
v -0.01406500 -0.12493200 -0.01070100
v -0.01406500 -0.12563200 -0.01070100
v -0.01406500 -0.12563200 -0.01070100
v -0.01406500 -0.12563200 -0.01070100
v -0.01406500 -0.12493200 -0.01070200
v -0.01406500 -0.12493200 -0.01070200
v -0.01406500 -0.12493200 -0.01070200
v -0.01406500 -0.12563200 -0.01070200
v -0.01406500 -0.12563200 -0.01070200
v -0.01406500 -0.12563200 -0.01070200
v -0.01401100 -0.12493200 -0.00921000
v -0.01401100 -0.12493200 -0.00921000
v -0.01401100 -0.12493200 -0.00921000
v -0.01401100 -0.12563200 -0.00921000
v -0.01401100 -0.12563200 -0.00921000
v -0.01401100 -0.12563200 -0.00921000
v -0.01401100 -0.12493200 -0.00921000
v -0.01401100 -0.12493200 -0.00921000
v -0.01401100 -0.12493200 -0.00921000
v -0.01406500 -0.12493200 -0.01070200
v -0.01406500 -0.12493200 -0.01070200
v -0.01406500 -0.12493200 -0.01070200
v -0.02445500 -0.12493200 -0.00883400
v -0.02445500 -0.12493200 -0.00883400
v -0.02445500 -0.12493200 -0.00883400
v -0.02450900 -0.12493200 -0.01032600
v -0.02450900 -0.12493200 -0.01032600
v -0.02450900 -0.12493200 -0.01032600
v -0.01401100 -0.12563100 -0.00921000
v -0.01401100 -0.12563100 -0.00921000
v -0.01401100 -0.12563100 -0.00921000
v -0.01406500 -0.12563100 -0.01070200
v -0.01406500 -0.12563100 -0.01070200
v -0.01406500 -0.12563100 -0.01070200
v -0.02445500 -0.12563100 -0.00883400
v -0.02445500 -0.12563100 -0.00883400
v -0.02445500 -0.12563100 -0.00883400
v -0.02450900 -0.12563100 -0.01032600
v -0.02450900 -0.12563100 -0.01032600
v -0.02450900 -0.12563100 -0.01032600
vn 0.00000000 1.00000000 0.00000000
vn 0.03600000 0.00000000 0.99940000
vn 0.99930000 0.00000000 -0.03630000
vn 0.00000000 -1.00000000 0.00000000
vn 0.99930000 0.00000000 -0.03630000
vn 0.03600000 0.00000000 0.99940000
vn 0.00000000 1.00000000 0.00000000
vn 0.03600000 0.00000000 0.99940000
vn -0.99940000 0.00000000 0.03350000
vn 0.03600000 0.00000000 0.99940000
vn -0.99940000 0.00000000 0.03350000
vn 0.00000000 -1.00000000 0.00000000
vn 0.00000000 1.00000000 0.00000000
vn -0.99940000 0.00000000 0.03600000
vn 0.03640000 0.00000000 0.99930000
vn -0.99940000 0.00000000 0.03600000
vn 0.03640000 0.00000000 0.99930000
vn 0.00000000 -1.00000000 0.00000000
vn -0.03640000 0.00000000 -0.99930000
vn 0.00000000 1.00000000 0.00000000
vn -0.99940000 0.00000000 0.03600000
vn -0.03640000 0.00000000 -0.99930000
vn -0.99940000 0.00000000 0.03600000
vn 0.00000000 -1.00000000 0.00000000
vn -0.99940000 0.00000000 0.03350000
vn -0.03600000 0.00000000 -0.99940000
vn 0.00000000 1.00000000 0.00000000
vn 0.00000000 -1.00000000 0.00000000
vn -0.03600000 0.00000000 -0.99940000
vn -0.99940000 0.00000000 0.03350000
vn -0.03600000 0.00000000 -0.99940000
vn 0.99930000 0.00000000 -0.03630000
vn 0.00000000 1.00000000 0.00000000
vn -0.03600000 0.00000000 -0.99940000
vn 0.00000000 -1.00000000 0.00000000
vn 0.99930000 0.00000000 -0.03630000
vn 0.99940000 0.00000000 -0.03600000
vn -0.03640000 0.00000000 -0.99930000
vn 0.00000000 1.00000000 0.00000000
vn -0.03640000 0.00000000 -0.99930000
vn 0.99940000 0.00000000 -0.03600000
vn 0.00000000 -1.00000000 -0.00030000
vn 0.00000000 1.00000000 0.00000000
vn 0.99940000 0.00000000 -0.03600000
vn 0.03630000 0.00000000 0.99930000
vn 0.99940000 0.00000000 -0.03600000
vn 0.00000000 -1.00000000 -0.00030000
vn 0.03630000 0.00000000 0.99930000
vn 0.03610000 0.00000000 0.99930000
vn 0.00000000 1.00000000 0.00000000
vn 0.99940000 0.00000000 -0.03600000
vn 0.99940000 0.00000000 -0.03600000
vn -0.03610000 0.00000000 -0.99930000
vn 0.00000000 1.00000000 0.00000000
vn -0.99940000 0.00000000 0.03600000
vn 0.00000000 1.00000000 0.00000000
vn 0.03610000 0.00000000 0.99930000
vn 0.00000000 1.00000000 0.00000000
vn -0.03610000 0.00000000 -0.99930000
vn -0.99940000 0.00000000 0.03600000
vn 0.00000000 -1.00000000 0.00000000
vn 0.03600000 0.00000000 0.99940000
vn 0.99930000 0.00000000 -0.03610000
vn 0.00000000 -1.00000000 0.00000000
vn 0.99930000 0.00000000 -0.03610000
vn -0.03600000 0.00000000 -0.99940000
vn 0.00000000 -1.00000000 0.00000000
vn -0.99930000 0.00000000 0.03610000
vn 0.03600000 0.00000000 0.99940000
vn -0.03600000 0.00000000 -0.99940000
vn 0.00000000 -1.00000000 0.00000000
vn -0.99930000 0.00000000 0.03610000
vn 0.99930000 0.00000000 -0.03630000
vn 0.00000000 1.00000000 0.00000000
vn -0.03600000 0.00000000 -0.99940000
vn 0.00000000 -1.00000000 0.00000000
vn 0.99930000 0.00000000 -0.03630000
vn -0.03600000 0.00000000 -0.99940000
vn -0.03600000 0.00000000 -0.99940000
vn -0.99940000 0.00000000 0.03350000
vn 0.00000000 1.00000000 0.00000000
vn -0.03600000 0.00000000 -0.99940000
vn -0.99940000 0.00000000 0.03350000
vn 0.00000000 -1.00000000 0.00000000
vn 0.03640000 0.00000000 0.99930000
vn 0.99940000 0.00000000 -0.03600000
vn 0.00000000 1.00000000 0.00000000
vn 0.03640000 0.00000000 0.99930000
vn 0.00000000 -1.00000000 0.00000000
vn 0.99940000 0.00000000 -0.03600000
vn 0.00000000 1.00000000 0.00000000
vn 0.99940000 0.00000000 -0.03600000
vn -0.03640000 0.00000000 -0.99930000
vn 0.00000000 -1.00000000 0.00000000
vn 0.99940000 0.00000000 -0.03600000
vn -0.03640000 0.00000000 -0.99930000
vn 0.03600000 0.00000000 0.99940000
vn 0.00000000 1.00000000 0.00000000
vn -0.99940000 0.00000000 0.03350000
vn -0.99940000 0.00000000 0.03350000
vn 0.03600000 0.00000000 0.99940000
vn 0.00000000 -1.00000000 0.00000000
vn 0.03600000 0.00000000 0.99940000
vn 0.00000000 1.00000000 0.00000000
vn 0.99930000 0.00000000 -0.03630000
vn 0.03600000 0.00000000 0.99940000
vn 0.00000000 -1.00000000 0.00000000
vn 0.99930000 0.00000000 -0.03630000
vn 0.00000000 1.00000000 0.00000000
vn -0.99940000 0.00000000 0.03600000
vn -0.03640000 0.00000000 -0.99930000
vn -0.03640000 0.00000000 -0.99930000
vn 0.00000000 -1.00000000 -0.00030000
vn -0.99940000 0.00000000 0.03600000
vn -0.99940000 0.00000000 0.03600000
vn 0.03630000 0.00000000 0.99930000
vn 0.00000000 1.00000000 0.00000000
vn 0.00000000 -1.00000000 -0.00030000
vn 0.03630000 0.00000000 0.99930000
vn -0.99940000 0.00000000 0.03600000
vn 0.00000000 -1.00000000 0.00000000
vn 0.99940000 0.00000000 -0.03600000
vn 0.03610000 0.00000000 0.99930000
vn 0.00000000 -1.00000000 0.00000000
vn 0.99940000 0.00000000 -0.03600000
vn -0.03610000 0.00000000 -0.99930000
vn -0.99940000 0.00000000 0.03600000
vn 0.03610000 0.00000000 0.99930000
vn 0.00000000 -1.00000000 0.00000000
vn 0.00000000 -1.00000000 0.00000000
vn -0.99940000 0.00000000 0.03600000
vn -0.03610000 0.00000000 -0.99930000
vn 0.99930000 0.00000000 -0.03610000
vn 0.00000000 1.00000000 0.00000000
vn 0.03600000 0.00000000 0.99940000
vn -0.03600000 0.00000000 -0.99940000
vn 0.00000000 1.00000000 0.00000000
vn 0.99930000 0.00000000 -0.03610000
vn -0.99930000 0.00000000 0.03610000
vn 0.03600000 0.00000000 0.99940000
vn 0.00000000 1.00000000 0.00000000
vn 0.00000000 1.00000000 0.00000000
vn -0.99930000 0.00000000 0.03610000
vn -0.03600000 0.00000000 -0.99940000
vt 0.05760300 0.00000000
vt 0.05760300 0.00000000
vt 0.05760300 0.00000000
vt 0.00000000 0.00000000
vt 0.00000000 0.00000000
vt 0.00000000 0.00000000
vt 0.05760300 0.88039900
vt 0.05760300 0.88039900
vt 0.05760300 0.88039900
vt 0.00000000 0.88039900
vt 0.00000000 0.88039900
vt 0.00000000 0.88039900
vt 0.11813600 0.00000000
vt 0.11813600 0.00000000
vt 0.11813600 0.00000000
vt 0.11813600 0.05906800
vt 0.11813600 0.05906800
vt 0.11813600 0.05906800
vt 0.24411700 0.00000000
vt 0.24411700 0.00000000
vt 0.24411700 0.00000000
vt 0.24411700 0.05906800
vt 0.24411700 0.05906800
vt 0.24411700 0.05906800
vt 0.11667100 0.00000000
vt 0.11667100 0.00000000
vt 0.11667100 0.00000000
vt 0.05906800 0.00000000
vt 0.05906800 0.00000000
vt 0.05906800 0.00000000
vt 0.11667100 0.88039900
vt 0.11667100 0.88039900
vt 0.11667100 0.88039900
vt 0.05906800 0.88039900
vt 0.05906800 0.88039900
vt 0.05906800 0.88039900
vt 0.11813600 0.14074700
vt 0.11813600 0.14074700
vt 0.11813600 0.14074700
vt 0.11813600 0.19981500
vt 0.11813600 0.19981500
vt 0.11813600 0.19981500
vt 0.24411700 0.14074700
vt 0.24411700 0.14074700
vt 0.24411700 0.14074700
vt 0.24411700 0.19981500
vt 0.24411700 0.19981500
vt 0.24411700 0.19981500
vt 0.11813600 0.58167900
vt 0.11813600 0.58167900
vt 0.11813600 0.58167900
vt 0.11813600 0.70765900
vt 0.11813600 0.70765900
vt 0.11813600 0.70765900
vt 0.99853500 0.58167900
vt 0.99853500 0.58167900
vt 0.99853500 0.58167900
vt 0.99853500 0.70765900
vt 0.99853500 0.70765900
vt 0.99853500 0.70765900
vt 0.11813600 0.28149300
vt 0.11813600 0.28149300
vt 0.11813600 0.28149300
vt 0.11813600 0.40747400
vt 0.11813600 0.40747400
vt 0.11813600 0.40747400
vt 0.99853500 0.28149300
vt 0.99853500 0.28149300
vt 0.99853500 0.28149300
vt 0.99853500 0.40747400
vt 0.99853500 0.40747400
vt 0.99853500 0.40747400
vt 0.05760300 0.00000000
vt 0.05760300 0.00000000
vt 0.05760300 0.00000000
vt 0.00000000 0.00000000
vt 0.00000000 0.00000000
vt 0.00000000 0.00000000
vt 0.05760300 0.88039900
vt 0.05760300 0.88039900
vt 0.05760300 0.88039900
vt 0.00000000 0.88039900
vt 0.00000000 0.88039900
vt 0.00000000 0.88039900
vt 0.11813600 0.00000000
vt 0.11813600 0.00000000
vt 0.11813600 0.00000000
vt 0.11813600 0.05906800
vt 0.11813600 0.05906800
vt 0.11813600 0.05906800
vt 0.24411700 0.00000000
vt 0.24411700 0.00000000
vt 0.24411700 0.00000000
vt 0.24411700 0.05906800
vt 0.24411700 0.05906800
vt 0.24411700 0.05906800
vt 0.11667100 0.00000000
vt 0.11667100 0.00000000
vt 0.11667100 0.00000000
vt 0.05906800 0.00000000
vt 0.05906800 0.00000000
vt 0.05906800 0.00000000
vt 0.11667100 0.88039900
vt 0.11667100 0.88039900
vt 0.11667100 0.88039900
vt 0.05906800 0.88039900
vt 0.05906800 0.88039900
vt 0.05906800 0.88039900
vt 0.11813600 0.14074700
vt 0.11813600 0.14074700
vt 0.11813600 0.14074700
vt 0.11813600 0.19981500
vt 0.11813600 0.19981500
vt 0.11813600 0.19981500
vt 0.24411700 0.14074700
vt 0.24411700 0.14074700
vt 0.24411700 0.14074700
vt 0.24411700 0.19981500
vt 0.24411700 0.19981500
vt 0.24411700 0.19981500
vt 0.11813600 0.58167900
vt 0.11813600 0.58167900
vt 0.11813600 0.58167900
vt 0.11813600 0.70765900
vt 0.11813600 0.70765900
vt 0.11813600 0.70765900
vt 0.99853500 0.58167900
vt 0.99853500 0.58167900
vt 0.99853500 0.58167900
vt 0.99853500 0.70765900
vt 0.99853500 0.70765900
vt 0.99853500 0.70765900
vt 0.11813600 0.28149300
vt 0.11813600 0.28149300
vt 0.11813600 0.28149300
vt 0.11813600 0.40747400
vt 0.11813600 0.40747400
vt 0.11813600 0.40747400
vt 0.99853500 0.28149300
vt 0.99853500 0.28149300
vt 0.99853500 0.28149300
vt 0.99853500 0.40747400
vt 0.99853500 0.40747400
vt 0.99853500 0.40747400
f 6/6/6 2/2/2 8/8/8
f 16/16/16 14/14/14 21/21/21
f 29/29/29 26/26/26 31/31/31
f 41/41/41 37/37/37 44/44/44
f 54/54/54 58/58/58 50/50/50
f 64/64/64 61/61/61 71/71/71
f 6/6/6 8/8/8 10/10/10
f 16/16/16 21/21/21 23/23/23
f 29/29/29 31/31/31 34/34/34
f 41/41/41 44/44/44 46/46/46
f 58/58/58 56/56/56 50/50/50
f 61/61/61 67/67/67 71/71/71
f 78/78/78 79/79/79 75/75/75
f 90/90/90 92/92/92 86/86/86
f 101/101/101 103/103/103 97/97/97
f 114/114/114 115/115/115 110/110/110
f 124/124/124 121/121/121 130/130/130
f 137/137/137 142/142/142 134/134/134
f 78/78/78 82/82/82 79/79/79
f 90/90/90 95/95/95 92/92/92
f 101/101/101 106/106/106 103/103/103
f 114/114/114 120/120/120 115/115/115
f 130/130/130 121/121/121 129/129/129
f 134/134/134 142/142/142 141/141/141
f 28/28/28 35/35/35 107/107/107
f 107/107/107 102/102/102 28/28/28
f 3/3/3 5/5/5 77/77/77
f 77/77/77 73/73/73 3/3/3
f 4/4/4 12/12/12 84/84/84
f 84/84/84 76/76/76 4/4/4
f 15/15/15 17/17/17 88/88/88
f 88/88/88 85/85/85 15/15/15
f 18/18/18 24/24/24 94/94/94
f 94/94/94 89/89/89 18/18/18
f 36/36/36 32/32/32 105/105/105
f 105/105/105 108/108/108 36/36/36
f 25/25/25 30/30/30 100/100/100
f 100/100/100 99/99/99 25/25/25
f 7/7/7 1/1/1 74/74/74
f 74/74/74 81/81/81 7/7/7
f 38/38/38 40/40/40 112/112/112
f 112/112/112 111/111/111 38/38/38
f 42/42/42 47/47/47 118/118/118
f 118/118/118 113/113/113 42/42/42
f 52/52/52 51/51/51 122/122/122
f 122/122/122 125/125/125 52/52/52
f 49/49/49 57/57/57 128/128/128
f 128/128/128 123/123/123 49/49/49
f 59/59/59 53/53/53 126/126/126
f 126/126/126 132/132/132 59/59/59
f 63/63/63 65/65/65 138/138/138
f 138/138/138 133/133/133 63/63/63
f 69/69/69 62/62/62 135/135/135
f 135/135/135 140/140/140 69/69/69
f 66/66/66 70/70/70 144/144/144
f 144/144/144 136/136/136 66/66/66
f 11/11/11 9/9/9 80/80/80
f 80/80/80 83/83/83 11/11/11
f 72/72/72 68/68/68 139/139/139
f 139/139/139 143/143/143 72/72/72
f 22/22/22 19/19/19 93/93/93
f 93/93/93 96/96/96 22/22/22
f 43/43/43 39/39/39 109/109/109
f 109/109/109 117/117/117 43/43/43
f 55/55/55 60/60/60 131/131/131
f 131/131/131 127/127/127 55/55/55
f 33/33/33 27/27/27 98/98/98
f 98/98/98 104/104/104 33/33/33
f 48/48/48 45/45/45 116/116/116
f 116/116/116 119/119/119 48/48/48
f 20/20/20 13/13/13 87/87/87
f 87/87/87 91/91/91 20/20/20

