mtllib material.mtl
usemtl Material-7011油漆.018
v 0.03094300 -0.14843200 -0.22426000
v -0.03762500 -0.14843200 -0.23570200
v 0.03457000 -0.14843200 -0.22938500
v 0.03732700 -0.14843200 -0.23494200
v -0.03937500 -0.14843200 -0.24165300
v 0.02656400 -0.14843200 -0.21976000
v -0.03494300 -0.14843200 -0.23002400
v -0.02552400 -0.14843300 -0.21879100
v -0.02552400 -0.14843300 -0.21879100
v -0.02552400 -0.14843300 -0.21879100
v -0.02552400 -0.14843300 -0.21879100
v 0.01521500 -0.14843100 -0.21268800
v 0.01521500 -0.14843100 -0.21268800
v 0.01079300 -0.14843100 -0.21116200
v 0.01079300 -0.14843100 -0.21116200
v 0.02160100 -0.14843200 -0.21603700
v 0.02160100 -0.14843200 -0.21603700
v -0.03141100 -0.14843200 -0.22483200
v -0.03141100 -0.14843200 -0.22483200
v -0.04018200 -0.14843200 -0.24765700
v 0.03916400 -0.14843200 -0.24071500
v 0.03857300 -0.14843200 -0.26149800
v 0.04006600 -0.14843200 -0.25384700
v -0.03599000 -0.14843200 -0.26802100
v 0.03548000 -0.14843200 -0.26900500
v 0.04009700 -0.14843200 -0.24649200
v -0.03878900 -0.14843200 -0.26074600
v 0.03083300 -0.14843200 -0.27587200
v -0.01900500 -0.14843200 -0.28548000
v 0.02487800 -0.14843200 -0.28164100
v 0.01074600 -0.14843200 -0.28878900
v 0.01802100 -0.14843200 -0.28599000
v -0.01149800 -0.14843200 -0.28857300
v -0.03164100 -0.14843200 -0.27487800
v -0.04009700 -0.14843200 -0.25350800
v -0.01740800 -0.14843000 -0.21363100
v -0.00384700 -0.14843200 -0.29006600
v 0.00350800 -0.14843200 -0.29009700
v -0.02587200 -0.14843200 -0.28083300
v 0.01657600 -0.14317400 -0.21442700
v 0.01635800 -0.14154300 -0.21487200
v 0.00836400 -0.14373100 -0.21137700
v 0.03857200 -0.14636500 -0.23861300
v 0.03719700 -0.13984600 -0.24086800
v 0.03472600 -0.13994300 -0.23395300
v 0.00910800 -0.13991800 -0.21285000
v 0.00285100 -0.13991800 -0.21185600
v 0.01539300 -0.13991800 -0.21498400
v 0.02679600 -0.13991800 -0.22270500
v 0.02139700 -0.13991800 -0.21829400
v 0.03557900 -0.14316800 -0.23342500
v 0.03130600 -0.13991800 -0.22802400
v 0.01062100 -0.14641800 -0.21117700
v 0.01822100 -0.14641800 -0.21411000
v 0.02507500 -0.14641800 -0.21851500
v 0.03090100 -0.14641800 -0.22420900
v 0.03546100 -0.14641800 -0.23095900
v 0.03811300 -0.13990900 -0.24652200
v 0.04009700 -0.14641800 -0.24649200
v 0.00963900 -0.13981900 -0.28700300
v 0.01795200 -0.14316800 -0.28490400
v 0.01107500 -0.14548600 -0.28839700
v 0.01908300 -0.14003000 -0.28316600
v 0.00768100 -0.14643300 -0.28951000
v 0.00738700 -0.14256500 -0.28835200
v 0.00329100 -0.14427400 -0.28954600
v 0.01818000 -0.14479300 -0.28534900
v -0.01311800 -0.13998300 -0.28593800
v -0.00306000 -0.13989800 -0.28814400
v -0.01227300 -0.14316800 -0.28728200
v -0.00071700 -0.14642800 -0.29024300
v -0.00456400 -0.14545500 -0.28969200
v -0.00003400 -0.14292600 -0.28919100
v -0.01242900 -0.14479300 -0.28775700
v 0.03728200 -0.14316800 -0.26227300
v 0.03752300 -0.13991800 -0.25742400
v 0.03811300 -0.13990900 -0.24652200
v 0.02771100 -0.13991800 -0.27636600
v 0.03396400 -0.13991800 -0.26759300
v 0.03450100 -0.14641800 -0.27073000
v 0.02943700 -0.14641800 -0.27745000
v 0.04009700 -0.14641800 -0.24649200
v 0.03995000 -0.14641800 -0.25490500
v 0.03805700 -0.14641800 -0.26310400
v 0.01572700 -0.14641800 -0.28705000
v 0.02308600 -0.14641800 -0.28297100
v -0.03490400 -0.14316800 -0.26795200
v -0.03566300 -0.13991800 -0.26382700
v -0.03039300 -0.13991800 -0.27322300
v -0.03813500 -0.13991700 -0.25320900
v -0.02271200 -0.13991800 -0.28077700
v -0.04009700 -0.14641800 -0.25350800
v -0.02422300 -0.14641800 -0.28214500
v -0.00905400 -0.14641800 -0.28921800
v -0.01701000 -0.14641800 -0.28647900
v -0.03520300 -0.14641800 -0.26951400
v -0.03037700 -0.14641800 -0.27640600
v -0.03849100 -0.14641800 -0.26176800
v 0.03458400 -0.12056800 -0.23144000
v 0.03694800 -0.12370200 -0.24010900
v 0.03810800 -0.12382600 -0.24668500
v 0.03150000 -0.12381800 -0.22830200
v 0.03487100 -0.12381800 -0.23428100
v 0.02699300 -0.12381800 -0.22290000
v 0.01161800 -0.12056800 -0.21250900
v 0.01538200 -0.12381800 -0.21497900
v 0.02152700 -0.12381800 -0.21838300
v 0.00239500 -0.12381800 -0.21182500
v 0.00889200 -0.12381800 -0.21279800
v -0.00342100 -0.12056800 -0.21089900
v 0.03849100 -0.11731800 -0.23823200
v 0.04009700 -0.11731800 -0.24649200
v 0.03520300 -0.11731800 -0.23048600
v 0.03037700 -0.11731800 -0.22359400
v 0.02422300 -0.11731800 -0.21785500
v 0.01701000 -0.11731800 -0.21352100
v 0.00905400 -0.11731800 -0.21078200
v 0.00070200 -0.11731800 -0.20975600
v -0.00333400 -0.12381800 -0.21189600
v -0.01856000 -0.12056800 -0.21541600
v -0.01521700 -0.12381800 -0.21490700
v -0.00898800 -0.12381800 -0.21282100
v -0.02122900 -0.12381800 -0.21818200
v -0.02669100 -0.12381800 -0.22260200
v -0.03128900 -0.12381800 -0.22799900
v -0.03031500 -0.12056800 -0.22506900
v -0.03707100 -0.12381800 -0.24057500
v -0.03478900 -0.12381800 -0.23410100
v -0.03749100 -0.12056800 -0.23838200
v -0.03826900 -0.12426800 -0.24807700
v -0.03809900 -0.12391700 -0.25386800
v -0.01572700 -0.11731800 -0.21295000
v -0.00768000 -0.11731800 -0.21049000
v -0.02308600 -0.11731800 -0.21702900
v -0.02943700 -0.11731800 -0.22255000
v -0.03450100 -0.11731800 -0.22927000
v -0.03805700 -0.11731800 -0.23689600
v -0.03995000 -0.11731800 -0.24509500
v -0.04009700 -0.11731800 -0.25350800
v -0.03995000 -0.11731800 -0.24509500
v -0.03937200 -0.11531800 -0.24163700
v -0.04009700 -0.11531800 -0.25350800
v -0.03805700 -0.11731800 -0.23689600
v -0.03539000 -0.11531800 -0.23082700
v -0.02865600 -0.11531800 -0.22173600
v -0.02943700 -0.11731800 -0.22255000
v -0.02308600 -0.11731800 -0.21702900
v -0.03450100 -0.11731800 -0.22927000
v -0.01965900 -0.11531800 -0.21487800
v -0.01572700 -0.11731800 -0.21295000
v -0.00910800 -0.11531800 -0.21079400
v 0.00070200 -0.11731800 -0.20975600
v 0.00258700 -0.11531800 -0.20983300
v 0.00905400 -0.11731800 -0.21078200
v 0.01396200 -0.11531800 -0.21224900
v 0.01701000 -0.11731800 -0.21352100
v 0.02395600 -0.11531800 -0.21765600
v 0.03201100 -0.11531800 -0.22560000
v 0.03037700 -0.11731800 -0.22359400
v 0.03520300 -0.11731800 -0.23048600
v 0.02422300 -0.11731800 -0.21785500
v 0.03753700 -0.11531800 -0.23547200
v 0.03849100 -0.11731800 -0.23823200
v 0.04009700 -0.11531800 -0.24649200
v 0.03995000 -0.11731800 -0.25490500
v 0.03937200 -0.11531800 -0.25836300
v 0.04009700 -0.11531800 -0.24649200
v 0.03805700 -0.11731800 -0.26310400
v 0.03539000 -0.11531800 -0.26917300
v 0.02865600 -0.11531800 -0.27826400
v 0.02943700 -0.11731800 -0.27745000
v 0.02308600 -0.11731800 -0.28297100
v 0.03450100 -0.11731800 -0.27073000
v 0.01965900 -0.11531800 -0.28512200
v 0.01572700 -0.11731800 -0.28705000
v 0.00910800 -0.11531800 -0.28920600
v -0.00070200 -0.11731800 -0.29024400
v -0.00258700 -0.11531800 -0.29016700
v -0.00905400 -0.11731800 -0.28921800
v -0.01396200 -0.11531800 -0.28775100
v -0.01701000 -0.11731800 -0.28647900
v -0.02395600 -0.11531800 -0.28234400
v -0.03201100 -0.11531800 -0.27440000
v -0.03037700 -0.11731800 -0.27640600
v -0.03520300 -0.11731800 -0.26951400
v -0.02422300 -0.11731800 -0.28214500
v -0.03753700 -0.11531800 -0.26452800
v -0.03851900 -0.11743700 -0.26152200
v -0.04009700 -0.11531800 -0.25350800
v -0.00423000 -0.11894300 -0.28952400
v -0.00081200 -0.12211200 -0.28878600
v -0.00235500 -0.12394100 -0.28818200
v -0.03809900 -0.12391700 -0.25386800
v -0.03818400 -0.12235400 -0.25663200
v -0.03695300 -0.12381700 -0.25987800
v -0.03851900 -0.11743700 -0.26152200
v -0.04009700 -0.11731800 -0.25350800
v -0.03467400 -0.12381800 -0.26615000
v -0.03520300 -0.11731800 -0.26951400
v -0.03118500 -0.12381800 -0.27214800
v -0.02658600 -0.12381800 -0.27749900
v -0.03037700 -0.11731800 -0.27640600
v -0.01497700 -0.12381800 -0.28519600
v -0.02108500 -0.12381800 -0.28191400
v -0.01158400 -0.12068700 -0.28747400
v -0.00804000 -0.12374800 -0.28742500
v -0.02422300 -0.11731800 -0.28214500
v -0.01701000 -0.11731800 -0.28647900
v -0.00905400 -0.11731800 -0.28921800
v -0.00070200 -0.11731800 -0.29024400
v 0.00374700 -0.12031900 -0.28925300
v 0.02086100 -0.12381800 -0.28206100
v 0.01849500 -0.12073700 -0.28457400
v 0.02630600 -0.12381800 -0.27776800
v 0.02943700 -0.11731800 -0.27745000
v 0.03095800 -0.12381800 -0.27246500
v 0.03455700 -0.12381800 -0.26639700
v 0.03450100 -0.11731800 -0.27073000
v 0.03811000 -0.12381800 -0.25326800
v 0.03695100 -0.12381800 -0.25988300
v 0.03894600 -0.12082900 -0.25420800
v 0.03875800 -0.12234500 -0.24985000
v 0.03810800 -0.12382600 -0.24668500
v 0.04009700 -0.11731800 -0.24649200
v 0.03805700 -0.11731800 -0.26310400
v 0.00768000 -0.11731800 -0.28951100
v 0.00848800 -0.12310800 -0.28754100
v 0.01490100 -0.12381600 -0.28523300
v 0.01136300 -0.11894300 -0.28809100
v 0.01572700 -0.11731800 -0.28705000
v 0.03995000 -0.11731800 -0.25490500
v 0.02308600 -0.11731800 -0.28297100
v -0.03813500 -0.13991700 -0.25320900
v -0.04009700 -0.14641800 -0.25350800
v -0.03823200 -0.13977900 -0.24774500
v -0.03998200 -0.14641800 -0.24536200
v -0.03903800 -0.14303400 -0.24632900
v -0.03698500 -0.13991800 -0.24024500
v -0.03822900 -0.14641800 -0.23740600
v -0.03464700 -0.13991800 -0.23379400
v -0.02657700 -0.13991800 -0.22249200
v -0.03112900 -0.13991800 -0.22777300
v -0.03016100 -0.14641800 -0.22334700
v -0.03491000 -0.14641800 -0.22996600
v -0.01542000 -0.13991800 -0.21499600
v -0.02123900 -0.13991800 -0.21818900
v -0.01361100 -0.14283000 -0.21329700
v -0.02417600 -0.14641800 -0.21782000
v -0.00945100 -0.13983000 -0.21293300
v -0.01720100 -0.14641800 -0.21361100
v 0.00279600 -0.12151400 -0.28960900
v 0.00279600 -0.12151400 -0.28960900
v -0.00035700 -0.12288800 -0.28988900
v -0.00035700 -0.12288800 -0.28988900
v -0.00035700 -0.12288800 -0.28988900
v -0.00059200 -0.12196600 -0.28989300
v -0.00059200 -0.12196600 -0.28989300
v -0.00059200 -0.12196600 -0.28989300
v 0.00374700 -0.12031900 -0.28925300
v 0.00374700 -0.12031900 -0.28925300
v -0.00275700 -0.12547700 -0.29008300
v -0.00275700 -0.12547700 -0.29008300
v -0.00275700 -0.12547700 -0.29008300
v -0.00195100 -0.12597400 -0.29002000
v -0.00195100 -0.12597400 -0.29002000
v -0.00190200 -0.13924700 -0.29001300
v -0.00190200 -0.13924700 -0.29001300
v -0.00272500 -0.13936600 -0.29008800
v -0.00272500 -0.13936600 -0.29008800
v 0.00616100 -0.12209400 -0.28931700
v 0.00616100 -0.12209400 -0.28931700
v 0.00733700 -0.12200500 -0.28921100
v 0.00733700 -0.12200500 -0.28921100
v 0.00880000 -0.12527500 -0.28908400
v 0.00880000 -0.12527500 -0.28908400
v 0.00880000 -0.12527500 -0.28908400
v 0.00966300 -0.12516900 -0.28900500
v 0.00966300 -0.12516900 -0.28900500
v 0.00878400 -0.13985600 -0.28907100
v 0.00878400 -0.13985600 -0.28907100
v -0.00047200 -0.14253800 -0.28989500
v -0.00047200 -0.14253800 -0.28989500
v 0.00329100 -0.14427400 -0.28954600
v 0.00329100 -0.14427400 -0.28954600
v 0.00102500 -0.14272100 -0.28978600
v 0.00102500 -0.14272100 -0.28978600
v 0.00967600 -0.13892100 -0.28900700
v 0.00967600 -0.13892100 -0.28900700
v 0.00776300 -0.14242600 -0.28915300
v 0.00776300 -0.14242600 -0.28915300
v 0.00539600 -0.14281100 -0.28937800
v 0.00539600 -0.14281100 -0.28937800
v 0.00102500 -0.14272100 -0.28978600
v 0.00263600 -0.14260600 -0.28873300
v 0.00539600 -0.14281100 -0.28937800
v 0.00539600 -0.14281100 -0.28937800
v 0.00562900 -0.14213900 -0.28857000
v 0.00878400 -0.13985600 -0.28907100
v 0.00700700 -0.14092900 -0.28840100
v 0.00834000 -0.13937200 -0.28830100
v -0.00190200 -0.13924700 -0.29001300
v -0.00113900 -0.14050900 -0.28918800
v 0.00102500 -0.14272100 -0.28978600
v -0.00195100 -0.12597400 -0.29002000
v -0.00184000 -0.13892700 -0.28927000
v -0.00190200 -0.13924700 -0.29001300
v -0.00128700 -0.12469400 -0.28913300
v 0.00279600 -0.12151400 -0.28960900
v 0.00517500 -0.12216300 -0.28850500
v 0.00142800 -0.12223000 -0.28939100
v 0.00880000 -0.12527500 -0.28908400
v 0.00719300 -0.12359400 -0.28832100
v 0.00616100 -0.12209400 -0.28931700
v 0.00517500 -0.12216300 -0.28850500
v 0.00279600 -0.12151400 -0.28960900
v 0.00857100 -0.12558400 -0.28833300
v 0.00857100 -0.12558400 -0.28833300
v 0.00880000 -0.12527500 -0.28908400
v 0.00878400 -0.13985600 -0.28907100
v 0.00878400 -0.13985600 -0.28907100
v 0.00785000 -0.13859400 -0.28874000
v 0.00834000 -0.13937200 -0.28830100
v 0.00700700 -0.14092900 -0.28840100
v 0.00270000 -0.14207100 -0.28931500
v 0.00639300 -0.14104100 -0.28899200
v 0.00562900 -0.14213900 -0.28857000
v 0.00639300 -0.14104100 -0.28899200
v 0.00792800 -0.12559300 -0.28846500
v 0.00857100 -0.12558400 -0.28833300
v 0.00834000 -0.13937200 -0.28830100
v 0.00517500 -0.12216300 -0.28850500
v 0.00719300 -0.12359400 -0.28832100
v 0.00762000 -0.12473200 -0.28888700
v 0.00270000 -0.14207100 -0.28931500
v 0.00562900 -0.14213900 -0.28857000
v 0.00263600 -0.14260600 -0.28873300
v -0.00113900 -0.14050900 -0.28918800
v -0.00128700 -0.12469400 -0.28913300
v -0.00098800 -0.13764400 -0.28963700
v -0.00097900 -0.12644600 -0.28963600
v 0.00270000 -0.14207100 -0.28931500
v 0.00270000 -0.14207100 -0.28931500
v 0.00270000 -0.14207100 -0.28931500
v 0.00270000 -0.14207100 -0.28931500
v -0.00113900 -0.14050900 -0.28918800
v -0.00113900 -0.14050900 -0.28918800
v -0.00098800 -0.13764400 -0.28963700
v -0.00098800 -0.13764400 -0.28963700
v -0.00097900 -0.12644600 -0.28963600
v -0.00097900 -0.12644600 -0.28963600
v 0.00762000 -0.12473200 -0.28888700
v 0.00762000 -0.12473200 -0.28888700
v 0.00762000 -0.12473200 -0.28888700
v 0.00785000 -0.13859400 -0.28874000
v 0.00639300 -0.14104100 -0.28899200
v 0.00639300 -0.14104100 -0.28899200
v 0.00263600 -0.14260600 -0.28873300
v 0.00142800 -0.12223000 -0.28939100
v 0.00142800 -0.12223000 -0.28939100
v -0.00128700 -0.12469400 -0.28913300
v 0.00517500 -0.12216300 -0.28850500
v -0.03753700 -0.11531800 -0.26452800
v -0.00258700 -0.11531800 -0.29016700
v -0.03201100 -0.11531800 -0.27440000
v -0.03937200 -0.11531800 -0.24163700
v 0.01965900 -0.11531800 -0.28512200
v -0.04009700 -0.11531800 -0.25350800
v 0.00910800 -0.11531800 -0.28920600
v -0.03539000 -0.11531800 -0.23082700
v 0.02865600 -0.11531800 -0.27826400
v -0.02395600 -0.11531800 -0.28234400
v -0.01396200 -0.11531800 -0.28775100
v 0.03539000 -0.11531800 -0.26917300
v -0.01965900 -0.11531800 -0.21487800
v 0.03937200 -0.11531800 -0.25836300
v -0.02865600 -0.11531800 -0.22173600
v 0.00258700 -0.11531800 -0.20983300
v 0.03753700 -0.11531800 -0.23547200
v -0.00910800 -0.11531800 -0.21079400
v 0.04009700 -0.11531800 -0.24649200
v 0.03201100 -0.11531800 -0.22560000
v 0.01396200 -0.11531800 -0.21224900
v 0.02395600 -0.11531800 -0.21765600
v 0.00836400 -0.14373100 -0.21137700
v 0.00836400 -0.14373100 -0.21137700
v 0.00836400 -0.14373100 -0.21137700
v -0.00945100 -0.13983000 -0.21293300
v -0.00945100 -0.13983000 -0.21293300
v -0.01361100 -0.14283000 -0.21329700
v -0.01720100 -0.14641800 -0.21361100
v -0.01720100 -0.14641800 -0.21361100
v -0.01720100 -0.14641800 -0.21361100
v -0.01720100 -0.14641800 -0.21361100
v -0.00053300 -0.14145400 -0.21215900
v -0.00053300 -0.14145400 -0.21215900
v -0.01740800 -0.14843000 -0.21363100
v 0.01079300 -0.14843100 -0.21116200
v 0.01079300 -0.14843100 -0.21116200
v 0.01062100 -0.14641800 -0.21117700
v 0.01062100 -0.14641800 -0.21117700
v 0.00285100 -0.13991800 -0.21185600
v -0.02204400 -0.14745900 -0.21629400
v -0.02552400 -0.14843300 -0.21879100
v -0.01740800 -0.14843000 -0.21363100
v -0.03141100 -0.14843200 -0.22483200
v -0.03016100 -0.14641800 -0.22334700
v -0.03491000 -0.14641800 -0.22996600
v -0.03494300 -0.14843200 -0.23002400
v -0.03762500 -0.14843200 -0.23570200
v -0.04018200 -0.14843200 -0.24765700
v -0.03937500 -0.14843200 -0.24165300
v -0.03998200 -0.14641800 -0.24536200
v -0.04009700 -0.14641800 -0.25350800
v -0.03822900 -0.14641800 -0.23740600
v -0.03878900 -0.14843200 -0.26074600
v -0.03849100 -0.14641800 -0.26176800
v -0.03599000 -0.14843200 -0.26802100
v -0.03520300 -0.14641800 -0.26951400
v -0.03164100 -0.14843200 -0.27487800
v -0.02587200 -0.14843200 -0.28083300
v -0.02422300 -0.14641800 -0.28214500
v -0.01900500 -0.14843200 -0.28548000
v -0.01701000 -0.14641800 -0.28647900
v -0.01149800 -0.14843200 -0.28857300
v -0.03037700 -0.14641800 -0.27640600
v -0.04009700 -0.14843200 -0.25350800
v -0.00905400 -0.14641800 -0.28921800
v -0.00384700 -0.14843200 -0.29006600
v -0.01720100 -0.14641800 -0.21361100
v -0.02417600 -0.14641800 -0.21782000
v -0.00071700 -0.14642800 -0.29024300
v 0.00350800 -0.14843200 -0.29009700
v 0.01074600 -0.14843200 -0.28878900
v 0.00768100 -0.14643300 -0.28951000
v 0.01802100 -0.14843200 -0.28599000
v 0.01572700 -0.14641800 -0.28705000
v 0.02308600 -0.14641800 -0.28297100
v 0.02487800 -0.14843200 -0.28164100
v 0.02943700 -0.14641800 -0.27745000
v 0.03548000 -0.14843200 -0.26900500
v 0.03450100 -0.14641800 -0.27073000
v 0.03805700 -0.14641800 -0.26310400
v 0.03857300 -0.14843200 -0.26149800
v 0.03995000 -0.14641800 -0.25490500
v 0.04009700 -0.14843200 -0.24649200
v 0.04009700 -0.14641800 -0.24649200
v 0.03916400 -0.14843200 -0.24071500
v 0.03732700 -0.14843200 -0.23494200
v 0.03857200 -0.14636500 -0.23861300
v 0.04006600 -0.14843200 -0.25384700
v 0.03083300 -0.14843200 -0.27587200
v 0.03457000 -0.14843200 -0.22938500
v 0.03546100 -0.14641800 -0.23095900
v 0.03090100 -0.14641800 -0.22420900
v 0.02160100 -0.14843200 -0.21603700
v 0.02656400 -0.14843200 -0.21976000
v 0.02507500 -0.14641800 -0.21851500
v 0.03094300 -0.14843200 -0.22426000
v 0.01822100 -0.14641800 -0.21411000
v 0.01521500 -0.14843100 -0.21268800
v 0.01062100 -0.14641800 -0.21117700
v 0.01079300 -0.14843100 -0.21116200
v -0.00059200 -0.12196600 -0.28989300
v -0.00081200 -0.12211200 -0.28878600
v 0.00374700 -0.12031900 -0.28925300
v -0.00311600 -0.12603100 -0.28812700
v -0.00235500 -0.12394100 -0.28818200
v -0.00275700 -0.12547700 -0.29008300
v -0.00275700 -0.12547700 -0.29008300
v -0.00306000 -0.13989800 -0.28814400
v -0.00311600 -0.12603100 -0.28812700
v -0.00311600 -0.12603100 -0.28812700
v -0.00272500 -0.13936600 -0.29008800
v -0.00272500 -0.13936600 -0.29008800
v -0.00272500 -0.13936600 -0.29008800
v -0.00047200 -0.14253800 -0.28989500
v -0.00306000 -0.13989800 -0.28814400
v 0.00329100 -0.14427400 -0.28954600
v -0.00003400 -0.14292600 -0.28919100
v 0.00776300 -0.14242600 -0.28915300
v 0.00738700 -0.14256500 -0.28835200
v 0.00329100 -0.14427400 -0.28954600
v 0.00963900 -0.13981900 -0.28700300
v 0.00967600 -0.13892100 -0.28900700
v 0.00963900 -0.13981900 -0.28700300
v 0.00967600 -0.13892100 -0.28900700
v 0.00966300 -0.12516900 -0.28900500
v 0.00969100 -0.12599500 -0.28700500
v 0.00966300 -0.12516900 -0.28900500
v 0.00848800 -0.12310800 -0.28754100
v 0.00969100 -0.12599500 -0.28700500
v 0.00733700 -0.12200500 -0.28921100
v 0.00374700 -0.12031900 -0.28925300
v -0.03777800 -0.13818500 -0.25610800
v -0.03809900 -0.12391700 -0.25386800
v -0.03695300 -0.12381700 -0.25987800
v -0.03693000 -0.13553800 -0.26000300
v -0.03566300 -0.13991800 -0.26382700
v -0.03039300 -0.13991800 -0.27322300
v -0.03467400 -0.12381800 -0.26615000
v -0.02271200 -0.13991800 -0.28077700
v -0.02658600 -0.12381800 -0.27749900
v -0.01311800 -0.13998300 -0.28593800
v -0.00819400 -0.13632600 -0.28741200
v -0.00306000 -0.13989800 -0.28814400
v -0.03813500 -0.13991700 -0.25320900
v -0.00804000 -0.12374800 -0.28742500
v -0.02108500 -0.12381800 -0.28191400
v -0.00311600 -0.12603100 -0.28812700
v -0.01497700 -0.12381800 -0.28519600
v -0.03118500 -0.12381800 -0.27214800
v -0.00235500 -0.12394100 -0.28818200
v 0.01441000 -0.13594000 -0.28551300
v 0.01908300 -0.14003000 -0.28316600
v 0.00963900 -0.13981900 -0.28700300
v 0.03396400 -0.13991800 -0.26759300
v 0.02771100 -0.13991800 -0.27636600
v 0.03095800 -0.12381800 -0.27246500
v 0.02630600 -0.12381800 -0.27776800
v 0.03752300 -0.13991800 -0.25742400
v 0.03812500 -0.13553200 -0.25319300
v 0.03826200 -0.13822600 -0.24925600
v 0.03811300 -0.13990900 -0.24652200
v 0.03695100 -0.12381800 -0.25988300
v 0.03810800 -0.12382600 -0.24668500
v 0.03825800 -0.12530600 -0.24940700
v 0.02086100 -0.12381800 -0.28206100
v 0.01490100 -0.12381600 -0.28523300
v 0.00969100 -0.12599500 -0.28700500
v 0.00848800 -0.12310800 -0.28754100
v 0.03811000 -0.12381800 -0.25326800
v 0.03453200 -0.13179000 -0.23355200
v 0.03449500 -0.13586800 -0.23347300
v 0.03694800 -0.12370200 -0.24010900
v 0.03456900 -0.12781800 -0.23362800
v 0.03719700 -0.13984600 -0.24086800
v 0.03776300 -0.12465900 -0.24383900
v 0.03811300 -0.13990900 -0.24652200
v 0.03130600 -0.13991800 -0.22802400
v 0.02679600 -0.13991800 -0.22270500
v 0.03472600 -0.13994300 -0.23395300
v 0.00910800 -0.13991800 -0.21285000
v 0.01539300 -0.13991800 -0.21498400
v 0.01515100 -0.13191500 -0.21487900
v 0.00262900 -0.13209200 -0.21184100
v 0.00285100 -0.13991800 -0.21185600
v 0.02139700 -0.13991800 -0.21829400
v 0.03810800 -0.12382600 -0.24668500
v 0.02699300 -0.12381800 -0.22290000
v 0.03487100 -0.12381800 -0.23428100
v 0.03150000 -0.12381800 -0.22830200
v 0.01538200 -0.12381800 -0.21497900
v 0.00889200 -0.12381800 -0.21279800
v 0.00239500 -0.12381800 -0.21182500
v 0.02152700 -0.12381800 -0.21838300
v 0.00262900 -0.13209200 -0.21184100
v -0.00053300 -0.14145400 -0.21215900
v 0.00285100 -0.13991800 -0.21185600
v 0.00239500 -0.12381800 -0.21182500
v -0.00333400 -0.12381800 -0.21189600
v -0.00331200 -0.13186800 -0.21214500
v -0.00053300 -0.14145400 -0.21215900
v -0.00331200 -0.13186800 -0.21214500
v -0.00921600 -0.13209200 -0.21287700
v -0.00898800 -0.12381800 -0.21282100
v -0.03823200 -0.13977900 -0.24774500
v -0.03826900 -0.12426800 -0.24807700
v -0.03813500 -0.13991700 -0.25320900
v -0.03701200 -0.13586600 -0.24034700
v -0.03703700 -0.13178800 -0.24043700
v -0.02123900 -0.13991800 -0.21818900
v -0.01542000 -0.13991800 -0.21499600
v -0.02129700 -0.13191300 -0.21822800
v -0.03112900 -0.13991800 -0.22777300
v -0.02657700 -0.13991800 -0.22249200
v -0.03464700 -0.13991800 -0.23379400
v -0.03698500 -0.13991800 -0.24024500
v -0.00921600 -0.13209200 -0.21287700
v -0.00945100 -0.13983000 -0.21293300
v -0.03128900 -0.12381800 -0.22799900
v -0.03809900 -0.12391700 -0.25386800
v -0.01521700 -0.12381800 -0.21490700
v -0.02122900 -0.12381800 -0.21818200
v -0.02669100 -0.12381800 -0.22260200
v -0.03478900 -0.12381800 -0.23410100
v -0.03707100 -0.12381800 -0.24057500
v -0.00898800 -0.12381800 -0.21282100
v -0.00035700 -0.12288800 -0.28988900
v 0.00279600 -0.12151400 -0.28960900
v 0.00142800 -0.12223000 -0.28939100
v 0.00880000 -0.12527500 -0.28908400
v 0.00857100 -0.12558400 -0.28833300
v 0.00719300 -0.12359400 -0.28832100
v 0.00539600 -0.14281100 -0.28937800
v 0.00263600 -0.14260600 -0.28873300
v 0.00562900 -0.14213900 -0.28857000
v -0.00190200 -0.13924700 -0.29001300
v -0.00184000 -0.13892700 -0.28927000
v -0.00113900 -0.14050900 -0.28918800
v -0.04009700 -0.11731800 -0.25350800
v -0.00768000 -0.11731800 -0.21049000
v 0.04009700 -0.11731800 -0.24649200
v 0.04009700 -0.11731800 -0.24649200
v 0.00768000 -0.11731800 -0.28951100
v -0.04009700 -0.11731800 -0.25350800
v 0.00263600 -0.14260600 -0.28873300
v -0.00128700 -0.12469400 -0.28913300
v -0.00035700 -0.12288800 -0.28988900
v 0.00142800 -0.12223000 -0.28939100
v -0.00195100 -0.12597400 -0.29002000
v 0.00834000 -0.13937200 -0.28830100
v 0.00785000 -0.13859400 -0.28874000
v 0.00762000 -0.12473200 -0.28888700
v 0.00857100 -0.12558400 -0.28833300
v 0.00792800 -0.12559300 -0.28846500
v -0.00184000 -0.13892700 -0.28927000
v 0.03455700 -0.12381800 -0.26639700
v -0.00945100 -0.13983000 -0.21293300
v -0.00333400 -0.12381800 -0.21189600
vn 0.00000000 -1.00000000 0.00000000
vn 0.00000000 -1.00000000 0.00000000
vn 0.00000000 -1.00000000 0.00000000
vn 0.00000000 -1.00000000 0.00000000
vn 0.00000000 -1.00000000 0.00000000
vn 0.00000000 -1.00000000 0.00000000
vn 0.00000000 -1.00000000 0.00000000
vn 0.00000000 -1.00000000 -0.00020000
vn 0.00010000 -1.00000000 -0.00010000
vn -0.00000000 -1.00000000 0.00020000
vn 0.00000000 -1.00000000 0.00000000
vn 0.00010000 -1.00000000 -0.00010000
vn 0.00000000 -1.00000000 0.00000000
vn -0.00000000 -1.00000000 0.00020000
vn 0.00010000 -1.00000000 -0.00010000
vn 0.00000000 -1.00000000 0.00000000
vn 0.00000000 -1.00000000 -0.00020000
vn 0.00000000 -1.00000000 0.00000000
vn 0.00000000 -1.00000000 -0.00020000
vn 0.00000000 -1.00000000 0.00000000
vn 0.00000000 -1.00000000 0.00000000
vn 0.00000000 -1.00000000 0.00000000
vn 0.00000000 -1.00000000 0.00000000
vn 0.00000000 -1.00000000 0.00000000
vn 0.00000000 -1.00000000 0.00000000
vn 0.00000000 -1.00000000 0.00000000
vn 0.00000000 -1.00000000 0.00000000
vn 0.00000000 -1.00000000 0.00000000
vn 0.00000000 -1.00000000 0.00000000
vn 0.00000000 -1.00000000 0.00000000
vn 0.00000000 -1.00000000 0.00000000
vn 0.00000000 -1.00000000 0.00000000
vn 0.00000000 -1.00000000 0.00000000
vn 0.00000000 -1.00000000 0.00000000
vn 0.00000000 -1.00000000 0.00000000
vn -0.00000000 -1.00000000 0.00020000
vn 0.00000000 -1.00000000 0.00000000
vn 0.00000000 -1.00000000 0.00000000
vn 0.00000000 -1.00000000 0.00000000
vn 0.40360000 0.29420000 0.86640000
vn 0.40350000 0.29410000 0.86640000
vn 0.20200000 0.29340000 0.93440000
vn 0.91650000 0.29420000 0.27090000
vn 0.92860000 0.29360000 0.22690000
vn 0.86780000 0.29410000 0.40050000
vn 0.22760000 0.29410000 0.92830000
vn 0.07120000 0.29410000 0.95310000
vn 0.38460000 0.29410000 0.87500000
vn 0.66960000 0.29410000 0.68200000
vn 0.53470000 0.29410000 0.79220000
vn 0.86640000 0.29410000 0.40360000
vn 0.78230000 0.29410000 0.54910000
vn 0.25220000 0.29410000 0.92190000
vn 0.43270000 0.29410000 0.85220000
vn 0.59540000 0.29410000 0.74760000
vn 0.73380000 0.29410000 0.61250000
vn 0.84210000 0.29410000 0.45210000
vn 0.95180000 0.29410000 0.08690000
vn 0.95210000 0.29410000 0.08330000
vn 0.24160000 0.29410000 -0.92470000
vn 0.43710000 0.29410000 -0.85000000
vn 0.26470000 0.29410000 -0.91840000
vn 0.47650000 0.29420000 -0.82850000
vn 0.18240000 0.29410000 -0.93820000
vn 0.18090000 0.29410000 -0.93850000
vn 0.07930000 0.29340000 -0.95270000
vn 0.43710000 0.29410000 -0.85000000
vn -0.32760000 0.29420000 -0.89790000
vn -0.07760000 0.29410000 -0.95260000
vn -0.29890000 0.29410000 -0.90780000
vn -0.01700000 0.29410000 -0.95560000
vn -0.10910000 0.29410000 -0.94950000
vn -0.00100000 0.29400000 -0.95580000
vn -0.29880000 0.29410000 -0.90790000
vn 0.90790000 0.29410000 -0.29880000
vn 0.93760000 0.29410000 -0.18550000
vn 0.95190000 0.29390000 0.08670000
vn 0.69240000 0.29410000 -0.65880000
vn 0.84870000 0.29410000 -0.43960000
vn 0.81930000 0.29410000 -0.49230000
vn 0.69900000 0.29410000 -0.65190000
vn 0.95210000 0.29410000 0.08330000
vn 0.94870000 0.29410000 -0.11650000
vn 0.90370000 0.29410000 -0.31120000
vn 0.37340000 0.29410000 -0.87980000
vn 0.54820000 0.29410000 -0.78290000
vn -0.85000000 0.29410000 -0.43710000
vn -0.89110000 0.29410000 -0.34550000
vn -0.75950000 0.29410000 -0.58030000
vn -0.95250000 0.29390000 -0.08020000
vn -0.56750000 0.29410000 -0.76900000
vn -0.95210000 0.29410000 -0.08330000
vn -0.57520000 0.29410000 -0.76330000
vn -0.21500000 0.29410000 -0.93130000
vn -0.40390000 0.29410000 -0.86620000
vn -0.83590000 0.29410000 -0.46340000
vn -0.72130000 0.29410000 -0.62700000
vn -0.91400000 0.29410000 -0.27940000
vn 0.84220000 -0.29410000 0.45200000
vn 0.92330000 -0.29440000 0.24690000
vn 0.95220000 -0.29410000 0.08280000
vn 0.78710000 -0.29410000 0.54220000
vn 0.87130000 -0.29410000 0.39280000
vn 0.67450000 -0.29410000 0.67720000
vn 0.28290000 -0.29410000 0.91290000
vn 0.38430000 -0.29410000 0.87510000
vn 0.53790000 -0.29410000 0.79000000
vn 0.05990000 -0.29410000 0.95390000
vn 0.22220000 -0.29410000 0.92960000
vn -0.08330000 -0.29410000 0.95210000
vn 0.91400000 -0.29410000 0.27940000
vn 0.95210000 -0.29410000 0.08330000
vn 0.83590000 -0.29410000 0.46340000
vn 0.72130000 -0.29410000 0.62710000
vn 0.57520000 -0.29410000 0.76330000
vn 0.40390000 -0.29410000 0.86620000
vn 0.21500000 -0.29410000 0.93130000
vn 0.01670000 -0.29410000 0.95560000
vn -0.08330000 -0.29410000 0.95210000
vn -0.45200000 -0.29400000 0.84220000
vn -0.38030000 -0.29410000 0.87690000
vn -0.22460000 -0.29410000 0.92900000
vn -0.53050000 -0.29410000 0.79500000
vn -0.66690000 -0.29410000 0.68460000
vn -0.78180000 -0.29410000 0.54980000
vn -0.73820000 -0.29410000 0.60710000
vn -0.92630000 -0.29410000 0.23550000
vn -0.86930000 -0.29410000 0.39730000
vn -0.91300000 -0.29410000 0.28290000
vn -0.95490000 -0.29300000 0.04870000
vn -0.95120000 -0.29340000 -0.09610000
vn -0.37350000 -0.29410000 0.87980000
vn -0.18240000 -0.29410000 0.93820000
vn -0.54820000 -0.29410000 0.78290000
vn -0.69900000 -0.29410000 0.65180000
vn -0.81930000 -0.29410000 0.49230000
vn -0.90370000 -0.29410000 0.31120000
vn -0.94870000 -0.29410000 0.11650000
vn -0.95210000 -0.29410000 -0.08330000
vn -0.99250000 0.00000000 0.12190000
vn -0.97820000 -0.00000000 0.20780000
vn -0.99620000 -0.00000000 -0.08720000
vn -0.94550000 0.00000000 0.32560000
vn -0.87930000 -0.00000000 0.47630000
vn -0.71200000 -0.00000000 0.70220000
vn -0.73140000 0.00000000 0.68200000
vn -0.57360000 -0.00000000 0.81920000
vn -0.85720000 -0.00000000 0.51500000
vn -0.48840000 0.00000000 0.87260000
vn -0.39070000 -0.00000000 0.92050000
vn -0.22630000 -0.00000000 0.97410000
vn 0.01750000 -0.00000000 0.99980000
vn 0.06430000 -0.00000000 0.99790000
vn 0.22500000 0.00000000 0.97440000
vn 0.34690000 -0.00000000 0.93790000
vn 0.42260000 0.00000000 0.90630000
vn 0.59520000 -0.00000000 0.80360000
vn 0.79530000 -0.00000000 0.60620000
vn 0.75470000 0.00000000 0.65610000
vn 0.87460000 0.00000000 0.48480000
vn 0.60180000 -0.00000000 0.79860000
vn 0.93260000 0.00000000 0.36090000
vn 0.95630000 0.00000000 0.29240000
vn 0.99620000 -0.00000000 0.08710000
vn 0.99250000 0.00000000 -0.12190000
vn 0.97820000 0.00000000 -0.20780000
vn 0.99620000 -0.00000000 0.08720000
vn 0.94550000 0.00000000 -0.32560000
vn 0.87930000 0.00000000 -0.47630000
vn 0.71200000 -0.00000000 -0.70220000
vn 0.73140000 0.00000000 -0.68200000
vn 0.57360000 -0.00000000 -0.81920000
vn 0.85720000 -0.00000000 -0.51500000
vn 0.48840000 -0.00000000 -0.87260000
vn 0.39070000 -0.00000000 -0.92050000
vn 0.22630000 0.00000000 -0.97410000
vn -0.01750000 -0.00000000 -0.99980000
vn -0.06430000 0.00000000 -0.99790000
vn -0.22500000 -0.00000000 -0.97440000
vn -0.34690000 0.00000000 -0.93790000
vn -0.42260000 -0.00000000 -0.90630000
vn -0.59520000 -0.00000000 -0.80360000
vn -0.79530000 -0.00000000 -0.60620000
vn -0.75470000 0.00000000 -0.65610000
vn -0.87460000 0.00000000 -0.48480000
vn -0.60180000 -0.00000000 -0.79860000
vn -0.93260000 -0.00000000 -0.36090000
vn -0.95810000 0.00000000 -0.28660000
vn -0.99620000 -0.00000000 -0.08710000
vn -0.10170000 -0.29410000 -0.95040000
vn -0.01990000 -0.29400000 -0.95560000
vn -0.05960000 -0.29380000 -0.95400000
vn -0.95090000 -0.29420000 -0.09640000
vn -0.94180000 -0.29370000 -0.16380000
vn -0.92340000 -0.29410000 -0.24680000
vn -0.91590000 -0.29420000 -0.27300000
vn -0.95210000 -0.29410000 -0.08330000
vn -0.86640000 -0.29410000 -0.40350000
vn -0.83590000 -0.29410000 -0.46340000
vn -0.77920000 -0.29410000 -0.55340000
vn -0.66430000 -0.29410000 -0.68710000
vn -0.72130000 -0.29410000 -0.62710000
vn -0.37420000 -0.29410000 -0.87950000
vn -0.52680000 -0.29410000 -0.79750000
vn -0.28240000 -0.29400000 -0.91310000
vn -0.20050000 -0.29410000 -0.93450000
vn -0.57520000 -0.29410000 -0.76330000
vn -0.40390000 -0.29410000 -0.86620000
vn -0.21500000 -0.29410000 -0.93130000
vn -0.01670000 -0.29410000 -0.95560000
vn 0.09070000 -0.29360000 -0.95160000
vn 0.52130000 -0.29410000 -0.80110000
vn 0.45100000 -0.29400000 -0.84270000
vn 0.65730000 -0.29410000 -0.69380000
vn 0.69900000 -0.29410000 -0.65180000
vn 0.77360000 -0.29410000 -0.56130000
vn 0.86350000 -0.29410000 -0.40970000
vn 0.81930000 -0.29410000 -0.49230000
vn 0.95230000 -0.29410000 -0.08170000
vn 0.92330000 -0.29410000 -0.24690000
vn 0.95020000 -0.29410000 -0.10290000
vn 0.95590000 -0.29370000 0.00350000
vn 0.95220000 -0.29410000 0.08280000
vn 0.95210000 -0.29410000 0.08330000
vn 0.90370000 -0.29410000 -0.31120000
vn 0.18240000 -0.29410000 -0.93820000
vn 0.21070000 -0.29370000 -0.93240000
vn 0.37200000 -0.29400000 -0.88040000
vn 0.27320000 -0.29410000 -0.91590000
vn 0.37350000 -0.29410000 -0.87980000
vn 0.94870000 -0.29410000 -0.11650000
vn 0.54820000 -0.29410000 -0.78290000
vn -0.95240000 0.29410000 -0.08020000
vn -0.95210000 0.29410000 -0.08330000
vn -0.95440000 0.29340000 0.05530000
vn -0.94940000 0.29410000 0.11010000
vn -0.95160000 0.29410000 0.08960000
vn -0.92420000 0.29410000 0.24380000
vn -0.90780000 0.29410000 0.29910000
vn -0.86570000 0.29410000 0.40500000
vn -0.66410000 0.29410000 0.68740000
vn -0.77780000 0.29410000 0.55540000
vn -0.71620000 0.29410000 0.63290000
vn -0.82900000 0.29410000 0.47570000
vn -0.38530000 0.29410000 0.87470000
vn -0.53070000 0.29410000 0.79490000
vn -0.33230000 0.29410000 0.89610000
vn -0.57410000 0.29410000 0.76420000
vn -0.23660000 0.29380000 0.92610000
vn -0.40850000 0.29410000 0.86410000
vn 0.08710000 -0.00000000 -0.99620000
vn 0.08720000 -0.00000000 -0.99620000
vn 0.08730000 -0.00000000 -0.99620000
vn 0.08720000 -0.00000000 -0.99620000
vn 0.08710000 -0.00000000 -0.99620000
vn 0.08710000 -0.00000000 -0.99620000
vn 0.08730000 -0.00000000 -0.99620000
vn 0.08720000 -0.00000000 -0.99620000
vn 0.08710000 -0.00000000 -0.99620000
vn 0.08720000 -0.00000000 -0.99620000
vn 0.08720000 -0.00000000 -0.99620000
vn 0.08710000 -0.00000000 -0.99620000
vn 0.08730000 -0.00000000 -0.99620000
vn 0.08720000 -0.00000000 -0.99620000
vn 0.08710000 -0.00000000 -0.99620000
vn 0.08720000 -0.00000000 -0.99620000
vn 0.08710000 -0.00000000 -0.99620000
vn 0.08720000 -0.00000000 -0.99620000
vn 0.08710000 -0.00000000 -0.99620000
vn 0.08720000 -0.00000000 -0.99620000
vn 0.08710000 -0.00000000 -0.99620000
vn 0.08710000 -0.00000000 -0.99620000
vn 0.08720000 -0.00000000 -0.99620000
vn 0.08720000 -0.00000000 -0.99620000
vn 0.08730000 -0.00000000 -0.99620000
vn 0.08710000 -0.00000000 -0.99620000
vn 0.08730000 -0.00000000 -0.99620000
vn 0.08720000 -0.00000000 -0.99620000
vn 0.08720000 -0.00000000 -0.99620000
vn 0.08710000 -0.00000000 -0.99620000
vn 0.08720000 -0.00000000 -0.99620000
vn 0.08710000 -0.00000000 -0.99620000
vn 0.08720000 -0.00000000 -0.99620000
vn 0.08710000 -0.00000000 -0.99620000
vn 0.08720000 -0.00000000 -0.99620000
vn 0.08710000 -0.00000000 -0.99620000
vn 0.08720000 -0.00000000 -0.99620000
vn 0.08730000 -0.00000000 -0.99620000
vn 0.08720000 -0.00000000 -0.99620000
vn 0.08710000 -0.00000000 -0.99620000
vn 0.08710000 -0.00000000 -0.99620000
vn 0.08720000 -0.00000000 -0.99620000
vn 0.38640000 0.92170000 0.03380000
vn 0.11330000 0.99350000 0.00990000
vn -0.33820000 0.94060000 -0.02960000
vn -0.36260000 0.93140000 -0.03170000
vn -0.47420000 0.87940000 -0.04150000
vn -0.91710000 0.39060000 -0.08020000
vn -0.73990000 0.66960000 -0.06480000
vn -0.93640000 0.34140000 -0.08190000
vn 0.95230000 0.29370000 0.08330000
vn 0.83420000 0.54670000 0.07300000
vn 0.44050000 0.89690000 0.03850000
vn 0.99620000 -0.00000000 0.08710000
vn 0.99620000 -0.00000000 0.08710000
vn 0.99620000 -0.00000000 0.08710000
vn 0.99620000 -0.00000000 0.08710000
vn 0.12520000 -0.99210000 0.01100000
vn -0.28970000 -0.95680000 -0.02540000
vn 0.35180000 -0.93560000 0.03080000
vn -0.94710000 -0.30990000 -0.08290000
vn -0.74430000 -0.66470000 -0.06510000
vn -0.48340000 -0.87440000 -0.04230000
vn -0.35390000 -0.93480000 -0.03100000
vn 0.11040000 -0.99380000 0.00970000
vn -0.99620000 -0.00000000 -0.08710000
vn -0.99620000 -0.00000000 -0.08720000
vn -0.99620000 -0.00000000 -0.08710000
vn -0.99620000 -0.00000000 -0.08710000
vn -0.99620000 -0.00000000 -0.08720000
vn 0.87930000 -0.30880000 -0.36250000
vn -0.38590000 0.12880000 -0.91350000
vn 0.26410000 -0.16740000 -0.94990000
vn -0.14540000 -0.98270000 0.11440000
vn 0.51490000 -0.78700000 0.33990000
vn 0.18130000 -0.19050000 -0.96480000
vn 0.70830000 -0.70450000 0.04460000
vn 0.76660000 -0.00000000 -0.64220000
vn -0.36610000 0.00000000 -0.93060000
vn 0.08280000 0.00000000 -0.99660000
vn 0.11460000 -0.01990000 -0.99320000
vn 0.02310000 -0.02800000 -0.99930000
vn 0.81370000 0.56170000 -0.14950000
vn -0.15260000 -0.98650000 -0.05880000
vn 0.16120000 -0.75530000 -0.63520000
vn 0.05830000 0.05150000 -0.99700000
vn -0.58720000 0.00000000 -0.80950000
vn -0.39230000 0.00000000 -0.91990000
vn -0.99620000 0.00000000 -0.08760000
vn -0.99640000 0.00000000 -0.08460000
vn 0.08720000 0.00010000 -0.99620000
vn 0.08710000 -0.00000000 -0.99620000
vn 0.08730000 0.00020000 -0.99620000
vn 0.08720000 -0.00000000 -0.99620000
vn 0.08720000 -0.00000000 -0.99620000
vn 0.08730000 -0.00000000 -0.99620000
vn 0.08720000 -0.00000000 -0.99620000
vn 0.08710000 -0.00000000 -0.99620000
vn 0.08710000 -0.00000000 -0.99620000
vn 0.08720000 -0.00000000 -0.99620000
vn 0.08710000 -0.00000000 -0.99620000
vn 0.08720000 -0.00000000 -0.99620000
vn 0.08730000 0.00020000 -0.99620000
vn 0.08720000 -0.00000000 -0.99620000
vn 0.08720000 -0.00000000 -0.99620000
vn 0.08730000 0.00020000 -0.99620000
vn 0.08730000 -0.00000000 -0.99620000
vn 0.08710000 -0.00000000 -0.99620000
vn 0.08720000 -0.00000000 -0.99620000
vn 0.08720000 -0.00000000 -0.99620000
vn 0.08720000 -0.00000000 -0.99620000
vn 0.00000000 1.00000000 -0.00000000
vn 0.00000000 1.00000000 -0.00000000
vn 0.00000000 1.00000000 -0.00000000
vn 0.00000000 1.00000000 -0.00000000
vn 0.00000000 1.00000000 -0.00000000
vn 0.00000000 1.00000000 -0.00000000
vn 0.00000000 1.00000000 -0.00000000
vn 0.00000000 1.00000000 -0.00000000
vn 0.00000000 1.00000000 -0.00000000
vn 0.00000000 1.00000000 -0.00000000
vn 0.00000000 1.00000000 -0.00000000
vn 0.00000000 1.00000000 -0.00000000
vn 0.00000000 1.00000000 -0.00000000
vn 0.00000000 1.00000000 -0.00000000
vn 0.00000000 1.00000000 -0.00000000
vn 0.00000000 1.00000000 -0.00000000
vn 0.00000000 1.00000000 -0.00000000
vn 0.00000000 1.00000000 -0.00000000
vn 0.00000000 1.00000000 -0.00000000
vn 0.00000000 1.00000000 -0.00000000
vn 0.00000000 1.00000000 -0.00000000
vn 0.00000000 1.00000000 -0.00000000
vn -0.08720000 -0.00000000 0.99620000
vn -0.08710000 0.00000000 0.99620000
vn -0.08730000 0.00010000 0.99620000
vn -0.08720000 -0.00000000 0.99620000
vn -0.08730000 0.00010000 0.99620000
vn -0.08730000 0.00010000 0.99620000
vn -0.08720000 -0.00000000 0.99620000
vn -0.08720000 0.00010000 0.99620000
vn -0.08720000 -0.00010000 0.99620000
vn -0.08730000 0.00010000 0.99620000
vn -0.08710000 0.00000000 0.99620000
vn -0.08720000 -0.00000000 0.99620000
vn -0.08720000 -0.00010000 0.99620000
vn -0.08720000 -0.00010000 0.99620000
vn -0.08720000 0.00010000 0.99620000
vn -0.08720000 0.00010000 0.99620000
vn -0.08720000 -0.00000000 0.99620000
vn -0.08710000 0.00000000 0.99620000
vn -0.54730000 0.00000000 0.83690000
vn -0.63310000 -0.00000000 0.77410000
vn -0.43180000 -0.00000000 0.90200000
vn -0.78040000 -0.00000000 0.62530000
vn -0.74930000 0.00000000 0.66220000
vn -0.86730000 0.00000000 0.49770000
vn -0.86820000 0.00000000 0.49630000
vn -0.93480000 -0.00000000 0.35520000
vn -0.99830000 -0.00000000 0.05820000
vn -0.97830000 0.00000000 0.20740000
vn -0.99330000 0.00000000 0.11520000
vn -0.99620000 -0.00000000 -0.08720000
vn -0.94980000 0.00000000 0.31290000
vn -0.96370000 0.00000000 -0.26700000
vn -0.95630000 -0.00000000 -0.29240000
vn -0.89420000 -0.00000000 -0.44770000
vn -0.87460000 0.00000000 -0.48480000
vn -0.78610000 0.00000000 -0.61810000
vn -0.64280000 0.00000000 -0.76600000
vn -0.60180000 -0.00000000 -0.79860000
vn -0.47220000 -0.00000000 -0.88150000
vn -0.42260000 -0.00000000 -0.90630000
vn -0.28570000 0.00000000 -0.95830000
vn -0.75470000 0.00000000 -0.65610000
vn -0.99620000 -0.00000000 -0.08710000
vn -0.22490000 -0.00000000 -0.97440000
vn -0.09560000 0.00000000 -0.99540000
vn -0.42740000 0.00000000 0.90410000
vn -0.60060000 0.00000000 0.79950000
vn -0.01780000 -0.00000000 -0.99980000
vn 0.08720000 -0.00000000 -0.99620000
vn 0.26700000 0.00000000 -0.96370000
vn 0.19080000 -0.00000000 -0.98160000
vn 0.44770000 -0.00000000 -0.89420000
vn 0.39070000 -0.00000000 -0.92050000
vn 0.57360000 -0.00000000 -0.81920000
vn 0.61810000 -0.00000000 -0.78610000
vn 0.73140000 0.00000000 -0.68200000
vn 0.88150000 0.00000000 -0.47220000
vn 0.85720000 -0.00000000 -0.51500000
vn 0.94550000 0.00000000 -0.32560000
vn 0.95830000 -0.00000000 -0.28570000
vn 0.99250000 0.00000000 -0.12190000
vn 0.99620000 -0.00000000 0.08720000
vn 0.99620000 -0.00000000 0.08720000
vn 0.97300000 0.00000000 0.23070000
vn 0.92740000 0.00000000 0.37410000
vn 0.95910000 0.00000000 0.28320000
vn 0.99540000 0.00000000 -0.09560000
vn 0.76610000 0.00000000 -0.64280000
vn 0.85890000 -0.00000000 0.51220000
vn 0.88100000 -0.00000000 0.47310000
vn 0.76770000 0.00000000 0.64080000
vn 0.53670000 -0.00000000 0.84380000
vn 0.66000000 0.00000000 0.75130000
vn 0.62300000 0.00000000 0.78230000
vn 0.76880000 -0.00000000 0.63950000
vn 0.45270000 -0.00000000 0.89170000
vn 0.37760000 0.00000000 0.92600000
vn 0.26390000 0.00000000 0.96460000
vn 0.26780000 0.00000000 0.96350000
vn -0.61720000 0.77920000 -0.10880000
vn -0.63250000 0.76650000 -0.11150000
vn 0.04630000 0.99890000 0.00820000
vn -0.97380000 0.14890000 -0.17170000
vn -0.86230000 0.48310000 -0.15200000
vn -0.95700000 0.23610000 -0.16870000
vn -0.98480000 -0.00000000 -0.17370000
vn -0.98480000 -0.00000000 -0.17360000
vn -0.98480000 -0.00000000 -0.17370000
vn -0.98480000 -0.00000000 -0.17360000
vn -0.98480000 -0.00000000 -0.17370000
vn -0.98480000 -0.00000000 -0.17360000
vn -0.94710000 -0.27400000 -0.16700000
vn -0.61580000 -0.78040000 -0.10860000
vn -0.92330000 -0.34790000 -0.16280000
vn -0.02620000 -0.99960000 -0.00460000
vn -0.52940000 -0.84320000 -0.09340000
vn 0.66610000 -0.74580000 0.00000000
vn 0.62290000 -0.78230000 -0.00000000
vn -0.02150000 -0.99980000 -0.00000000
vn 0.94260000 -0.33400000 -0.00000000
vn 0.97890000 -0.20450000 -0.00000000
vn 1.00000000 0.00000000 -0.00000000
vn 1.00000000 0.00000000 -0.00000000
vn 1.00000000 0.00000000 -0.00000000
vn 1.00000000 0.00000000 -0.00000000
vn 0.95930000 0.28230000 -0.00000000
vn 0.78870000 0.61480000 -0.00000000
vn 0.98800000 0.15470000 -0.00000000
vn 0.61560000 0.78800000 0.00000000
vn 0.04780000 0.99890000 0.00010000
vn -0.98720000 0.00000000 -0.15960000
vn -0.99490000 -0.00000000 -0.10110000
vn -0.96610000 -0.00000000 -0.25830000
vn -0.96520000 0.00000000 -0.26140000
vn -0.93240000 0.00000000 -0.36150000
vn -0.79460000 0.00010000 -0.60710000
vn -0.90650000 -0.00010000 -0.42220000
vn -0.59380000 0.00010000 -0.80460000
vn -0.69510000 -0.00010000 -0.71890000
vn -0.34290000 0.00010000 -0.93940000
vn -0.21390000 0.00010000 -0.97680000
vn -0.07990000 0.00020000 -0.99680000
vn -0.99650000 0.00000000 -0.08380000
vn -0.21000000 -0.00010000 -0.97770000
vn -0.55120000 -0.00010000 -0.83440000
vn -0.08150000 -0.00010000 -0.99670000
vn -0.39150000 -0.00010000 -0.92020000
vn -0.81530000 -0.00010000 -0.57900000
vn -0.06150000 -0.00010000 -0.99810000
vn 0.37600000 0.00010000 -0.92660000
vn 0.49880000 0.00010000 -0.86670000
vn 0.25210000 0.00010000 -0.96770000
vn 0.88790000 0.00010000 -0.45990000
vn 0.72450000 0.00010000 -0.68930000
vn 0.80940000 -0.00000000 -0.58730000
vn 0.68770000 -0.00010000 -0.72600000
vn 0.98100000 0.00010000 -0.19410000
vn 0.99650000 0.00000000 -0.08350000
vn 0.99980000 0.00000000 0.01940000
vn 0.99590000 0.00000000 0.09090000
vn 0.96600000 -0.00010000 -0.25840000
vn 0.99620000 -0.00000000 0.08670000
vn 0.99990000 -0.00000000 0.01550000
vn 0.54540000 -0.00010000 -0.83820000
vn 0.38950000 -0.00010000 -0.92100000
vn 0.25330000 -0.00010000 -0.96740000
vn 0.22000000 -0.00020000 -0.97550000
vn 0.99630000 -0.00000000 -0.08540000
vn 0.90280000 -0.00000000 0.43000000
vn 0.90180000 0.00000000 0.43210000
vn 0.96600000 -0.00010000 0.25860000
vn 0.90380000 -0.00000000 0.42800000
vn 0.97120000 0.00010000 0.23840000
vn 0.98700000 -0.00000000 0.16100000
vn 0.99590000 0.00000000 0.09090000
vn 0.81850000 0.00010000 0.57460000
vn 0.70050000 0.00000000 0.71360000
vn 0.90780000 0.00010000 0.41950000
vn 0.23810000 0.00010000 0.97120000
vn 0.40240000 -0.00000000 0.91550000
vn 0.39610000 0.00000000 0.91820000
vn 0.06860000 0.00000000 0.99760000
vn 0.07450000 0.00020000 0.99720000
vn 0.55940000 0.00000000 0.82890000
vn 0.99620000 -0.00000000 0.08670000
vn 0.70570000 -0.00010000 0.70850000
vn 0.91170000 -0.00010000 0.41090000
vn 0.82350000 -0.00010000 0.56730000
vn 0.40220000 -0.00000000 0.91560000
vn 0.23250000 -0.00010000 0.97260000
vn 0.06260000 -0.00020000 0.99800000
vn 0.56280000 -0.00000000 0.82660000
vn -0.01610000 -0.00240000 0.99990000
vn -0.09710000 -0.02650000 0.99490000
vn -0.08700000 -0.00440000 0.99620000
vn 0.06260000 -0.00020000 0.99800000
vn -0.08710000 -0.03100000 0.99570000
vn -0.08710000 -0.03100000 0.99570000
vn -0.06360000 -0.04390000 0.99700000
vn -0.08710000 -0.03100000 0.99570000
vn -0.15780000 -0.00240000 0.98750000
vn -0.23500000 -0.00020000 0.97200000
vn -0.99830000 0.00010000 0.05890000
vn -0.99870000 -0.00010000 0.05020000
vn -0.99650000 0.00000000 -0.08380000
vn -0.96760000 0.00000000 0.25240000
vn -0.96820000 -0.00000000 0.25000000
vn -0.55520000 0.00000000 0.83170000
vn -0.40310000 0.00000000 0.91510000
vn -0.55680000 -0.00000000 0.83060000
vn -0.81380000 0.00000000 0.58110000
vn -0.69480000 0.00000000 0.71920000
vn -0.90580000 0.00010000 0.42370000
vn -0.96680000 0.00010000 0.25540000
vn -0.24080000 -0.00000000 0.97060000
vn -0.24700000 0.00020000 0.96900000
vn -0.81800000 -0.00010000 0.57520000
vn -0.99490000 -0.00000000 -0.10100000
vn -0.39780000 -0.00000000 0.91750000
vn -0.55490000 0.00000000 0.83190000
vn -0.69780000 -0.00000000 0.71630000
vn -0.90950000 -0.00010000 0.41570000
vn -0.96920000 -0.00010000 0.24640000
vn -0.23500000 -0.00020000 0.97200000
vn 0.66840000 -0.74150000 0.05840000
vn 0.12670000 -0.99190000 0.01100000
vn 0.38360000 -0.92290000 0.03350000
vn -0.94970000 -0.30200000 -0.08310000
vn -0.95890000 -0.27120000 -0.08390000
vn -0.75520000 -0.65220000 -0.06600000
vn -0.34930000 0.93650000 -0.03060000
vn 0.07670000 0.99700000 0.00670000
vn -0.43480000 0.89970000 -0.03810000
vn 0.95340000 0.28990000 0.08340000
vn 0.96410000 0.25190000 0.08430000
vn 0.84110000 0.53580000 0.07360000
vn -0.99620000 -0.00000000 -0.08710000
vn -0.19080000 -0.00000000 0.98160000
vn 0.99620000 -0.00000000 0.08720000
vn 0.99620000 -0.00000000 0.08710000
vn 0.19080000 -0.00000000 -0.98160000
vn -0.99620000 -0.00000000 -0.08720000
vn 0.22150000 0.97500000 0.01940000
vn 0.89340000 -0.44250000 0.07820000
vn 0.68290000 -0.72810000 0.05970000
vn 0.44030000 -0.89700000 0.03850000
vn 0.97980000 -0.18090000 0.08570000
vn -0.99620000 -0.00000000 -0.08720000
vn 0.98190000 0.00000000 -0.18930000
vn 0.97790000 -0.00000000 0.20900000
vn -0.50840000 -0.20240000 -0.83700000
vn 0.54930000 0.12250000 -0.82660000
vn 0.62830000 0.00000000 -0.77800000
vn 0.90350000 -0.00010000 -0.42870000
vn -0.08790000 -0.00430000 0.99610000
vn -0.08710000 -0.03100000 0.99570000
vt 0.03411700 0.10872100
vt 0.30903500 0.12730200
vt 0.02155700 0.12730200
vt 0.01258300 0.14709700
vt 0.31800900 0.14709700
vt 0.04986900 0.09205300
vt 0.29647500 0.10872100
vt 0.25537100 0.07318600
vt 0.25537100 0.07318600
vt 0.25537100 0.07318600
vt 0.25537100 0.07318600
vt 0.09226900 0.06451900
vt 0.09226900 0.06451900
vt 0.10921600 0.05799100
vt 0.10921600 0.05799100
vt 0.06819200 0.07786200
vt 0.06819200 0.07786200
vt 0.28072200 0.09205300
vt 0.28072200 0.09205300
vt 0.32327300 0.16735200
vt 0.00731900 0.16735200
vt 0.01684200 0.23812300
vt 0.00829700 0.21245000
vt 0.31375000 0.23812300
vt 0.03165700 0.26282800
vt 0.00563100 0.18735200
vt 0.32229500 0.21245000
vt 0.05239600 0.28488300
vt 0.25266600 0.30279800
vt 0.07792600 0.30279800
vt 0.13624300 0.32297900
vt 0.10652400 0.31559700
vt 0.22406700 0.31559700
vt 0.29893400 0.26282800
vt 0.32496000 0.18735200
vt 0.22151300 0.05799600
vt 0.19434900 0.32297900
vt 0.16529600 0.32528100
vt 0.27819600 0.28488300
vt 0.44590000 0.07199500
vt 0.44588000 0.06614600
vt 0.41008900 0.07399200
vt 0.58188400 0.08343800
vt 0.58953500 0.06006100
vt 0.55862100 0.06040800
vt 0.41452800 0.06032000
vt 0.38792200 0.06032000
vt 0.44240700 0.06032000
vt 0.50049400 0.06032000
vt 0.47120700 0.06032000
vt 0.55804500 0.07197200
vt 0.52979000 0.06032000
vt 0.41880000 0.08362500
vt 0.45133200 0.08362500
vt 0.48386500 0.08362500
vt 0.51639800 0.08362500
vt 0.54893000 0.08362500
vt 0.61339300 0.06030800
vt 0.61399600 0.08362500
vt 0.63211200 0.50338300
vt 0.59356000 0.51534900
vt 0.62771000 0.52366000
vt 0.58529400 0.50410300
vt 0.64325800 0.52705500
vt 0.64354900 0.51318400
vt 0.66240300 0.51933800
vt 0.59356000 0.52117500
vt 0.73845000 0.50393300
vt 0.69127100 0.50369700
vt 0.73284300 0.51534900
vt 0.68011000 0.52703700
vt 0.69707400 0.52355000
vt 0.67716600 0.51448000
vt 0.73284300 0.52117500
vt 0.45696200 0.51534900
vt 0.43541600 0.50369600
vt 0.38512800 0.50365800
vt 0.53468200 0.50369600
vt 0.48504900 0.50369600
vt 0.49613500 0.52700100
vt 0.53291900 0.52700100
vt 0.38578300 0.52700100
vt 0.42256700 0.52700100
vt 0.45935100 0.52700100
vt 0.60648700 0.52700100
vt 0.56970300 0.52700100
vt 0.86944100 0.51534900
vt 0.88791100 0.50369600
vt 0.83827800 0.50369600
vt 0.93812600 0.50368700
vt 0.78864500 0.50369600
vt 0.93754400 0.52700100
vt 0.79040700 0.52700100
vt 0.71683900 0.52700100
vt 0.75362300 0.52700100
vt 0.86397600 0.52700100
vt 0.82719200 0.52700100
vt 0.90076000 0.52700100
vt 0.45696200 0.51534900
vt 0.41636900 0.50411900
vt 0.38569400 0.50367100
vt 0.47639600 0.50369600
vt 0.44483400 0.50369600
vt 0.50874500 0.50369600
vt 0.59356000 0.51534900
vt 0.57365200 0.50369600
vt 0.54134800 0.50369600
vt 0.63533200 0.50369600
vt 0.60512900 0.50369600
vt 0.66166300 0.51534900
vt 0.42256700 0.52700100
vt 0.38578300 0.52700100
vt 0.45935100 0.52700100
vt 0.49613500 0.52700100
vt 0.53291900 0.52700100
vt 0.56970300 0.52700100
vt 0.60648700 0.52700100
vt 0.64327100 0.52700100
vt 0.66166300 0.50369600
vt 0.73284300 0.51534900
vt 0.71819800 0.50369600
vt 0.68799500 0.50369600
vt 0.74967500 0.50369600
vt 0.78197800 0.50369600
vt 0.81458200 0.50369600
vt 0.80133800 0.51534900
vt 0.87849200 0.50369600
vt 0.84693000 0.50369600
vt 0.86944100 0.51534900
vt 0.91331300 0.50210100
vt 0.93996500 0.50331700
vt 0.71683900 0.52700100
vt 0.68005500 0.52700100
vt 0.75362300 0.52700100
vt 0.79040700 0.52700100
vt 0.82719200 0.52700100
vt 0.86397600 0.52700100
vt 0.90076000 0.52700100
vt 0.93754400 0.52700100
vt 0.39414200 0.06552800
vt 0.40805200 0.05867400
vt 0.36070200 0.05867400
vt 0.42758300 0.06552800
vt 0.45390900 0.05867400
vt 0.49893600 0.05867400
vt 0.49446300 0.06552800
vt 0.52790300 0.06552800
vt 0.46102300 0.06552800
vt 0.54396300 0.05867400
vt 0.56134300 0.06552800
vt 0.58898900 0.05867400
vt 0.62822300 0.06552800
vt 0.63570600 0.05867400
vt 0.66166300 0.06552800
vt 0.68199800 0.05867400
vt 0.69510300 0.06552800
vt 0.72722300 0.05867400
vt 0.77225000 0.05867400
vt 0.76198300 0.06552800
vt 0.79542300 0.06552800
vt 0.72854300 0.06552800
vt 0.81727600 0.05867400
vt 0.82886300 0.06552800
vt 0.86230300 0.05867400
vt 0.39414200 0.06552800
vt 0.40805200 0.05867400
vt 0.36070200 0.05867400
vt 0.42758300 0.06552800
vt 0.45390900 0.05867400
vt 0.49893600 0.05867400
vt 0.49446300 0.06552800
vt 0.52790300 0.06552800
vt 0.46102300 0.06552800
vt 0.54396300 0.05867400
vt 0.56134300 0.06552800
vt 0.58898900 0.05867400
vt 0.62822300 0.06552800
vt 0.63570600 0.05867400
vt 0.66166300 0.06552800
vt 0.68199800 0.05867400
vt 0.69510300 0.06552800
vt 0.72722300 0.05867400
vt 0.77225000 0.05867400
vt 0.76198300 0.06552800
vt 0.79542300 0.06552800
vt 0.72854300 0.06552800
vt 0.81727600 0.05867400
vt 0.82983400 0.06593100
vt 0.86230300 0.05867400
vt 0.62761200 0.52117500
vt 0.64267200 0.50981500
vt 0.63539600 0.50325900
vt 0.38820400 0.50344800
vt 0.40070300 0.50894800
vt 0.41633000 0.50370200
vt 0.42133900 0.52658000
vt 0.38578300 0.52700100
vt 0.44701100 0.50369600
vt 0.45935100 0.52700100
vt 0.47891800 0.50369600
vt 0.51136100 0.50369600
vt 0.49613500 0.52700100
vt 0.57567700 0.50369600
vt 0.54379500 0.50369600
vt 0.59366600 0.51492200
vt 0.60922900 0.50395000
vt 0.53291900 0.52700100
vt 0.56970300 0.52700100
vt 0.60648700 0.52700100
vt 0.64327100 0.52700100
vt 0.66302800 0.51627600
vt 0.74765000 0.50369600
vt 0.73262600 0.51474600
vt 0.77953200 0.50369600
vt 0.79040700 0.52700100
vt 0.81196600 0.50369600
vt 0.84440900 0.50369600
vt 0.82719200 0.52700100
vt 0.90719400 0.50369600
vt 0.87631600 0.50369600
vt 0.90328000 0.51441500
vt 0.92286400 0.50897900
vt 0.93745100 0.50366800
vt 0.93754400 0.52700100
vt 0.86397600 0.52700100
vt 0.68005500 0.52700100
vt 0.68534800 0.50620700
vt 0.71655100 0.50370400
vt 0.69725300 0.52117500
vt 0.71683900 0.52700100
vt 0.90076000 0.52700100
vt 0.75362300 0.52700100
vt 0.61452600 0.06033600
vt 0.61399600 0.08362500
vt 0.63729700 0.05982200
vt 0.64652800 0.08362500
vt 0.64306500 0.07149200
vt 0.66937900 0.06032000
vt 0.67906100 0.08362500
vt 0.69820200 0.06032000
vt 0.75678400 0.06032000
vt 0.72749700 0.06032000
vt 0.74412600 0.08362500
vt 0.71159400 0.08362500
vt 0.81346300 0.06032000
vt 0.78558400 0.06032000
vt 0.82306200 0.07076000
vt 0.77665900 0.08362500
vt 0.83992100 0.06000200
vt 0.80919100 0.08362500
vt 0.00317600 0.05570500
vt 0.00317600 0.05570500
vt 0.00862600 0.04485700
vt 0.00862600 0.04485700
vt 0.00862600 0.04485700
vt 0.00494700 0.04405400
vt 0.00494700 0.04405400
vt 0.00494700 0.04405400
vt -0.00155700 0.05905700
vt -0.00155700 0.05905700
vt 0.01889700 0.03660500
vt 0.01889700 0.03660500
vt 0.01889700 0.03660500
vt 0.02086800 0.03937500
vt 0.02086800 0.03937500
vt 0.07352100 0.03954400
vt 0.07352100 0.03954400
vt 0.07399400 0.03671300
vt 0.07399400 0.03671300
vt 0.00547900 0.06727800
vt 0.00547900 0.06727800
vt 0.00512700 0.07132300
vt 0.00512700 0.07132300
vt 0.01809800 0.07635700
vt 0.01809800 0.07635700
vt 0.01809800 0.07635700
vt 0.01767800 0.07932800
vt 0.01767800 0.07932800
vt 0.07593700 0.07630800
vt 0.07593700 0.07630800
vt 0.08657600 0.04446300
vt 0.08657600 0.04446300
vt 0.09343500 0.05741400
vt 0.09343500 0.05741400
vt 0.08730400 0.04960600
vt 0.08730400 0.04960600
vt 0.07222700 0.07937000
vt 0.07222700 0.07937000
vt 0.08613300 0.07279600
vt 0.08613300 0.07279600
vt 0.08765900 0.06464700
vt 0.08765900 0.06464700
vt 0.11439600 0.06175800
vt 0.11561100 0.05262100
vt 0.11756400 0.06136900
vt 0.11757200 0.06110200
vt 0.11807500 0.05144800
vt 0.12084700 0.06156400
vt 0.11945600 0.05055400
vt 0.12099700 0.05214200
vt 0.12351500 0.06110700
vt 0.12461500 0.05244300
vt 0.12681900 0.06200000
vt 0.11382700 0.05697200
vt 0.06244300 0.05951700
vt 0.06117400 0.05699100
vt 0.11891400 0.06042400
vt 0.11663400 0.06151200
vt 0.11491200 0.04806900
vt 0.11763100 0.05447100
vt 0.09865000 0.06161200
vt 0.10033100 0.05151100
vt 0.10164700 0.06150600
vt 0.10223300 0.05152700
vt 0.10413300 0.06159800
vt 0.06209700 0.05964200
vt 0.06209700 0.05964200
vt 0.06087400 0.05697900
vt 0.11871200 0.05709600
vt 0.11871200 0.05709600
vt 0.11982000 0.08320700
vt 0.11409200 0.08107300
vt 0.11654100 0.07360800
vt 0.12255300 0.05492500
vt 0.12389000 0.07119700
vt 0.11536600 0.06673200
vt 0.12173800 0.07150300
vt 0.11267400 0.06185400
vt 0.11136400 0.06185800
vt 0.11183400 0.05743000
vt 0.11551100 0.08101600
vt 0.11535500 0.07186200
vt 0.12093000 0.06738400
vt 0.12161400 0.08434300
vt 0.11907400 0.09617000
vt 0.11539400 0.08454300
vt 0.11261600 0.06233700
vt 0.11230200 0.05725900
vt 0.11386300 0.06141700
vt 0.11386500 0.05782100
vt 0.10755400 0.04224800
vt 0.10755400 0.04224800
vt 0.10755400 0.04224800
vt 0.10755400 0.04224800
vt 0.11370500 0.02917500
vt 0.11370500 0.02917500
vt 0.12511700 0.02956300
vt 0.12511700 0.02956300
vt 0.16953800 0.02959400
vt 0.16953800 0.02959400
vt 0.17633300 0.05916500
vt 0.17633300 0.05916500
vt 0.17633300 0.05916500
vt 0.12135200 0.05999100
vt 0.11164600 0.05495200
vt 0.11164600 0.05495200
vt 0.10486100 0.04189100
vt 0.18627300 0.03789700
vt 0.18627300 0.03789700
vt 0.17648200 0.02867100
vt 0.18681900 0.05109900
vt 0.07784100 0.08511600
vt 0.06304200 0.23310200
vt 0.05578500 0.11888000
vt 0.15162100 0.03896200
vt 0.12601500 0.28923600
vt 0.10990200 0.05798900
vt 0.09041900 0.26562600
vt 0.19646500 0.03135700
vt 0.16781100 0.30335500
vt 0.04547700 0.15661200
vt 0.04776900 0.19550000
vt 0.21250400 0.30686900
vt 0.28295400 0.04899000
vt 0.25734800 0.29926300
vt 0.24115800 0.03487100
vt 0.34592700 0.10512300
vt 0.33112800 0.25310900
vt 0.31855000 0.07259900
vt 0.29906700 0.28023700
vt 0.35318400 0.21934600
vt 0.36120000 0.14272600
vt 0.36349200 0.18161400
vt 0.15630600 0.05953200
vt 0.15630600 0.05953200
vt 0.15630600 0.05953200
vt 0.08537000 0.07290000
vt 0.08537000 0.07290000
vt 0.06880300 0.06262000
vt 0.05450900 0.05032400
vt 0.05450900 0.05032400
vt 0.05450900 0.05032400
vt 0.05450900 0.05032400
vt 0.12087900 0.06733500
vt 0.12087900 0.06733500
vt 0.05368500 0.04343200
vt 0.16598200 0.04342700
vt 0.16598200 0.04342700
vt 0.16529600 0.05032400
vt 0.16529600 0.05032400
vt 0.13435500 0.07259900
vt 0.13285000 0.06132100
vt 0.15007100 0.05794200
vt 0.11078100 0.05801200
vt 0.18308500 0.05798900
vt 0.17556000 0.06488900
vt 0.20704400 0.06488900
vt 0.20729900 0.05798900
vt 0.23151200 0.05798900
vt 0.27993800 0.05798900
vt 0.25572500 0.05798900
vt 0.27065300 0.06488900
vt 0.30415100 0.06488900
vt 0.23852200 0.06488900
vt 0.33550100 0.05798900
vt 0.33987500 0.06488900
vt 0.36685100 0.05798900
vt 0.37344100 0.06488900
vt 0.39820100 0.05798900
vt 0.42955100 0.05798900
vt 0.43747900 0.06488900
vt 0.46090100 0.05798900
vt 0.46940800 0.06488900
vt 0.49225100 0.05798900
vt 0.40572500 0.06488900
vt 0.30415100 0.05798900
vt 0.50223300 0.06488900
vt 0.52360100 0.05798900
vt 0.10990200 0.06488900
vt 0.14341300 0.06488900
vt 0.53669600 0.06485600
vt 0.55495100 0.05798900
vt 0.58630100 0.05798900
vt 0.57315000 0.06483800
vt 0.61765100 0.05798900
vt 0.60766900 0.06488900
vt 0.64049400 0.06488900
vt 0.64900100 0.05798900
vt 0.67242400 0.06488900
vt 0.71170100 0.05798900
vt 0.70417800 0.06488900
vt 0.73646100 0.06488900
vt 0.74305100 0.05798900
vt 0.77002800 0.06488900
vt 0.80575100 0.05798900
vt 0.80575100 0.06488900
vt 0.82996400 0.05798900
vt 0.85417800 0.05798900
vt 0.83876900 0.06507500
vt 0.77440100 0.05798900
vt 0.68035100 0.05798900
vt 0.87839100 0.05798900
vt 0.87138000 0.06488900
vt 0.90285800 0.06488900
vt 0.95103000 0.05798900
vt 0.92681700 0.05798900
vt 0.93434200 0.06488900
vt 0.90260400 0.05798900
vt 0.96648900 0.06488900
vt 0.97988900 0.05802300
vt 1.00000000 0.06488900
vt 0.99926900 0.05800400
vt 0.11883600 0.09174200
vt 0.11890100 0.08798100
vt 0.11587600 0.09208500
vt 0.12177500 0.08439600
vt 0.12036600 0.08504400
vt 0.12143600 0.09120200
vt 0.10868000 0.04166400
vt 0.10090500 -0.00775700
vt 0.10079200 0.03976500
vt 0.10079200 0.03976500
vt 0.10872500 -0.00593200
vt 0.10872500 -0.00593200
vt 0.12344500 0.09162500
vt 0.12591600 0.09232700
vt 0.12374900 0.08492700
vt 0.12854200 0.09335600
vt 0.12634300 0.09020800
vt 0.11902900 0.09209000
vt 0.11879900 0.08937800
vt 0.11597600 0.09335500
vt 0.12102800 0.08477400
vt 0.12155800 0.09164100
vt 0.11902100 -0.00748400
vt 0.11107800 -0.00440600
vt 0.11108300 0.04271700
vt 0.11901600 0.03988800
vt 0.12347700 0.09124600
vt 0.12497100 0.08618700
vt 0.12297500 0.08440200
vt 0.12596400 0.09196100
vt 0.12846800 0.09214500
vt 0.11680500 0.78921800
vt 0.17343400 0.77846900
vt 0.17382000 0.80497300
vt 0.12732000 0.80621800
vt 0.10990200 0.82334900
vt 0.10990200 0.86704000
vt 0.17380400 0.83267500
vt 0.10990200 0.90986000
vt 0.17380400 0.88845000
vt 0.10964600 0.95405100
vt 0.12417000 0.97521100
vt 0.10999500 0.99836500
vt 0.10991000 0.77633500
vt 0.17408500 0.97451200
vt 0.17380400 0.91633700
vt 0.16502400 0.99646300
vt 0.17380400 0.94422500
vt 0.17380400 0.86056200
vt 0.17331800 0.99963400
vt 0.12570100 0.08207300
vt 0.10946000 0.10356000
vt 0.11030300 0.05968900
vt 0.10990200 0.19094900
vt 0.10990200 0.14812900
vt 0.17380400 0.16953900
vt 0.17380400 0.14165100
vt 0.10990200 0.23463900
vt 0.12735000 0.25281900
vt 0.11664300 0.26964300
vt 0.10994100 0.28172200
vt 0.17380400 0.22531400
vt 0.17380200 0.28187800
vt 0.16791000 0.26971800
vt 0.17380400 0.11376400
vt 0.17381500 0.08569300
vt 0.16516600 0.06153600
vt 0.17659900 0.05603100
vt 0.17380400 0.25320200
vt 0.14238900 0.33995600
vt 0.12614600 0.33995600
vt 0.17433700 0.31143200
vt 0.15809700 0.33995600
vt 0.11020000 0.30684400
vt 0.17047600 0.29474400
vt 0.10993100 0.28173300
vt 0.10990200 0.36505900
vt 0.10990200 0.39275700
vt 0.10980200 0.33742900
vt 0.10990200 0.47585000
vt 0.10990200 0.44815200
vt 0.14238900 0.44919100
vt 0.14185300 0.50354800
vt 0.10990200 0.50354800
vt 0.10990200 0.42045400
vt 0.17375000 0.28189500
vt 0.17380400 0.39275700
vt 0.17380400 0.33736100
vt 0.17380400 0.36505900
vt 0.17380400 0.44815200
vt 0.17380400 0.47585000
vt 0.17380400 0.50354800
vt 0.17380400 0.42045400
vt 0.14185300 0.50354800
vt 0.10378300 0.51769600
vt 0.10990200 0.50354800
vt 0.17380400 0.50354800
vt 0.17380400 0.52899400
vt 0.14185300 0.52899400
vt 0.10350800 0.51727600
vt 0.14185300 0.52899400
vt 0.14185300 0.55444000
vt 0.17380400 0.55444000
vt 0.11049800 0.75235300
vt 0.17202700 0.75258900
vt 0.10989300 0.77632900
vt 0.12614600 0.72070800
vt 0.14239100 0.72073600
vt 0.10990200 0.60983600
vt 0.10990200 0.58213800
vt 0.14238900 0.61014200
vt 0.10990200 0.66523200
vt 0.10990200 0.63753400
vt 0.10990200 0.69293000
vt 0.10990200 0.72062800
vt 0.14185300 0.55444000
vt 0.11026100 0.55453600
vt 0.17380400 0.66523200
vt 0.17338100 0.77841200
vt 0.17380400 0.58213800
vt 0.17380400 0.60983600
vt 0.17380400 0.63753400
vt 0.17380400 0.69293000
vt 0.17380400 0.72062800
vt 0.17380400 0.55444000
vt 0.11912800 0.06163900
vt 0.11663000 0.06123800
vt 0.11773300 0.05785400
vt 0.09863100 0.06153300
vt 0.09849800 0.05244900
vt 0.10024600 0.05016000
vt 0.11756500 0.06042700
vt 0.11577700 0.05220400
vt 0.11792700 0.05326500
vt 0.12350000 0.06136700
vt 0.12334500 0.05263400
vt 0.12459100 0.05303500
vt 0.36070200 0.06552800
vt 0.59478300 0.06552800
vt 0.86230300 0.06552800
vt 0.36070200 0.06552800
vt 0.59478300 0.06552800
vt 0.86230300 0.06552800
vt 0.12780500 0.04751000
vt 0.12056400 0.05200200
vt 0.11911900 0.06151700
vt 0.11789900 0.05225400
vt 0.12165100 0.06129600
vt 0.11678700 0.05999200
vt 0.11341700 0.05767900
vt 0.11407500 0.06213000
vt 0.11379900 0.06280300
vt 0.11740500 0.06351200
vt 0.11124800 0.06183000
vt 0.17380400 0.19742700
vt 0.11026100 0.55453200
vt 0.17380400 0.52899400
f 1/1/1 2/2/2 3/3/3
f 4/4/4 3/3/3 5/5/5
f 1/1/1 6/6/6 7/7/7
f 9/9/9 12/12/12 15/15/15
f 13/13/13 11/11/11 16/16/16
f 6/6/6 16/16/16 18/18/18
f 20/20/20 21/21/21 4/4/4
f 22/22/22 23/23/23 24/24/24
f 25/25/25 22/22/22 24/24/24
f 26/26/26 27/27/27 23/23/23
f 28/28/28 29/29/29 30/30/30
f 31/31/31 32/32/32 33/33/33
f 32/32/32 30/30/30 29/29/29
f 25/25/25 34/34/34 28/28/28
f 35/35/35 27/27/27 21/21/21
f 14/14/14 36/36/36 10/10/10
f 17/17/17 8/8/8 19/19/19
f 7/7/7 2/2/2 1/1/1
f 20/20/20 4/4/4 5/5/5
f 3/3/3 2/2/2 5/5/5
f 18/18/18 7/7/7 6/6/6
f 20/20/20 35/35/35 21/21/21
f 33/33/33 37/37/37 31/31/31
f 37/37/37 38/38/38 31/31/31
f 33/33/33 32/32/32 29/29/29
f 34/34/34 25/25/25 24/24/24
f 28/28/28 39/39/39 29/29/29
f 28/28/28 34/34/34 39/39/39
f 24/24/24 23/23/23 27/27/27
f 40/40/40 41/41/41 42/42/42
f 45/45/45 51/51/51 44/44/44
f 42/42/42 46/46/46 47/47/47
f 46/46/46 42/42/42 48/48/48
f 41/41/41 49/49/49 50/50/50
f 40/40/40 49/49/49 41/41/41
f 49/49/49 51/51/51 52/52/52
f 40/40/40 51/51/51 49/49/49
f 48/48/48 41/41/41 50/50/50
f 40/40/40 42/42/42 53/53/53
f 53/53/53 54/54/54 40/40/40
f 55/55/55 40/40/40 54/54/54
f 56/56/56 40/40/40 55/55/55
f 56/56/56 51/51/51 40/40/40
f 57/57/57 51/51/51 56/56/56
f 52/52/52 51/51/51 45/45/45
f 51/51/51 57/57/57 43/43/43
f 44/44/44 43/43/43 59/59/59
f 60/60/60 61/61/61 62/62/62
f 61/61/61 60/60/60 63/63/63
f 64/64/64 65/65/65 62/62/62
f 64/64/64 66/66/66 65/65/65
f 67/67/67 62/62/62 61/61/61
f 68/68/68 69/69/69 70/70/70
f 71/71/71 72/72/72 73/73/73
f 73/73/73 66/66/66 71/71/71
f 69/69/69 73/73/73 72/72/72
f 72/72/72 70/70/70 69/69/69
f 70/70/70 72/72/72 74/74/74
f 75/75/75 76/76/76 77/77/77
f 75/75/75 78/78/78 79/79/79
f 75/75/75 79/79/79 76/76/76
f 75/75/75 61/61/61 78/78/78
f 63/63/63 78/78/78 61/61/61
f 75/75/75 80/80/80 81/81/81
f 82/82/82 75/75/75 77/77/77
f 60/60/60 62/62/62 65/65/65
f 83/83/83 75/75/75 82/82/82
f 83/83/83 84/84/84 75/75/75
f 61/61/61 81/81/81 67/67/67
f 62/62/62 67/67/67 85/85/85
f 80/80/80 75/75/75 84/84/84
f 67/67/67 86/86/86 85/85/85
f 62/62/62 85/85/85 64/64/64
f 86/86/86 67/67/67 81/81/81
f 87/87/87 88/88/88 89/89/89
f 87/87/87 90/90/90 88/88/88
f 87/87/87 89/89/89 91/91/91
f 68/68/68 70/70/70 91/91/91
f 87/87/87 91/91/91 70/70/70
f 87/87/87 92/92/92 90/90/90
f 70/70/70 93/93/93 87/87/87
f 94/94/94 74/74/74 72/72/72
f 95/95/95 74/74/74 94/94/94
f 71/71/71 94/94/94 72/72/72
f 74/74/74 95/95/95 93/93/93
f 70/70/70 74/74/74 93/93/93
f 96/96/96 87/87/87 97/97/97
f 98/98/98 87/87/87 96/96/96
f 87/87/87 98/98/98 92/92/92
f 64/64/64 71/71/71 66/66/66
f 99/99/99 100/100/100 101/101/101
f 99/99/99 102/102/102 103/103/103
f 99/99/99 104/104/104 102/102/102
f 99/99/99 103/103/103 100/100/100
f 105/105/105 106/106/106 107/107/107
f 105/105/105 108/108/108 109/109/109
f 110/110/110 108/108/108 105/105/105
f 105/105/105 109/109/109 106/106/106
f 99/99/99 107/107/107 104/104/104
f 111/111/111 99/99/99 112/112/112
f 101/101/101 112/112/112 99/99/99
f 99/99/99 111/111/111 113/113/113
f 99/99/99 113/113/113 114/114/114
f 114/114/114 115/115/115 99/99/99
f 116/116/116 105/105/105 115/115/115
f 99/99/99 115/115/115 105/105/105
f 105/105/105 116/116/116 117/117/117
f 105/105/105 117/117/117 118/118/118
f 110/110/110 105/105/105 118/118/118
f 105/105/105 107/107/107 99/99/99
f 119/119/119 108/108/108 110/110/110
f 120/120/120 121/121/121 122/122/122
f 121/121/121 120/120/120 123/123/123
f 123/123/123 120/120/120 124/124/124
f 119/119/119 110/110/110 122/122/122
f 125/125/125 124/124/124 126/126/126
f 127/127/127 128/128/128 129/129/129
f 130/130/130 127/127/127 129/129/129
f 128/128/128 125/125/125 126/126/126
f 131/131/131 130/130/130 129/129/129
f 132/132/132 120/120/120 133/133/133
f 120/120/120 132/132/132 134/134/134
f 134/134/134 135/135/135 126/126/126
f 126/126/126 120/120/120 134/134/134
f 126/126/126 136/136/136 129/129/129
f 128/128/128 126/126/126 129/129/129
f 135/135/135 136/136/136 126/126/126
f 129/129/129 137/137/137 138/138/138
f 129/129/129 138/138/138 139/139/139
f 139/139/139 131/131/131 129/129/129
f 126/126/126 124/124/124 120/120/120
f 118/118/118 133/133/133 110/110/110
f 140/140/140 141/141/141 142/142/142
f 141/141/141 143/143/143 144/144/144
f 145/145/145 146/146/146 147/147/147
f 144/144/144 148/148/148 145/145/145
f 149/149/149 150/150/150 151/151/151
f 141/141/141 140/140/140 143/143/143
f 150/150/150 149/149/149 147/147/147
f 152/152/152 153/153/153 151/151/151
f 153/153/153 152/152/152 154/154/154
f 153/153/153 154/154/154 155/155/155
f 155/155/155 156/156/156 157/157/157
f 158/158/158 159/159/159 160/160/160
f 157/157/157 161/161/161 159/159/159
f 162/162/162 163/163/163 164/164/164
f 155/155/155 154/154/154 156/156/156
f 163/163/163 162/162/162 160/160/160
f 165/165/165 166/166/166 167/167/167
f 166/166/166 168/168/168 169/169/169
f 170/170/170 171/171/171 172/172/172
f 169/169/169 173/173/173 170/170/170
f 174/174/174 175/175/175 176/176/176
f 166/166/166 165/165/165 168/168/168
f 175/175/175 174/174/174 172/172/172
f 177/177/177 178/178/178 176/176/176
f 178/178/178 177/177/177 179/179/179
f 178/178/178 179/179/179 180/180/180
f 180/180/180 181/181/181 182/182/182
f 183/183/183 184/184/184 185/185/185
f 182/182/182 186/186/186 184/184/184
f 187/187/187 188/188/188 189/189/189
f 180/180/180 179/179/179 181/181/181
f 188/188/188 187/187/187 185/185/185
f 190/190/190 191/191/191 192/192/192
f 193/193/193 194/194/194 195/195/195
f 196/196/196 195/195/195 194/194/194
f 197/197/197 194/194/194 193/193/193
f 196/196/196 199/199/199 198/198/198
f 199/199/199 200/200/200 198/198/198
f 201/201/201 200/200/200 202/202/202
f 203/203/203 204/204/204 205/205/205
f 205/205/205 206/206/206 203/203/203
f 201/201/201 202/202/202 207/207/207
f 205/205/205 204/204/204 208/208/208
f 199/199/199 202/202/202 200/200/200
f 206/206/206 190/190/190 192/192/192
f 209/209/209 206/206/206 205/205/205
f 209/209/209 190/190/190 206/206/206
f 194/194/194 197/197/197 196/196/196
f 205/205/205 208/208/208 209/209/209
f 207/207/207 208/208/208 204/204/204
f 209/209/209 210/210/210 190/190/190
f 191/191/191 210/210/210 211/211/211
f 191/191/191 190/190/190 210/210/210
f 212/212/212 213/213/213 214/214/214
f 214/214/214 215/215/215 216/216/216
f 217/217/217 216/216/216 218/218/218
f 219/219/219 220/220/220 221/221/221
f 219/219/219 222/222/222 223/223/223
f 219/219/219 221/221/221 222/222/222
f 224/224/224 223/223/223 222/222/222
f 225/225/225 220/220/220 217/217/217
f 226/226/226 229/229/229 227/227/227
f 228/228/228 227/227/227 229/229/229
f 230/230/230 228/228/228 229/229/229
f 213/213/213 228/228/228 230/230/230
f 225/225/225 231/231/231 220/220/220
f 222/222/222 221/221/221 231/231/231
f 229/229/229 226/226/226 230/230/230
f 214/214/214 213/213/213 232/232/232
f 232/232/232 213/213/213 230/230/230
f 225/225/225 217/217/217 218/218/218
f 222/222/222 231/231/231 224/224/224
f 232/232/232 215/215/215 214/214/214
f 210/210/210 226/226/226 211/211/211
f 234/234/234 236/236/236 235/235/235
f 236/236/236 237/237/237 235/235/235
f 237/237/237 238/238/238 235/235/235
f 239/239/239 244/244/244 240/240/240
f 241/241/241 242/242/242 243/243/243
f 242/242/242 240/240/240 244/244/244
f 245/245/245 246/246/246 247/247/247
f 248/248/248 246/246/246 241/241/241
f 245/245/245 247/247/247 249/249/249
f 239/239/239 238/238/238 236/236/236
f 243/243/243 242/242/242 244/244/244
f 247/247/247 248/248/248 250/250/250
f 246/246/246 248/248/248 247/247/247
f 251/251/251 255/255/255 256/256/256
f 252/252/252 258/258/258 259/259/259
f 257/257/257 253/253/253 263/263/263
f 264/264/264 266/266/266 268/268/268
f 270/270/270 252/252/252 260/260/260
f 271/271/271 259/259/259 272/272/272
f 271/271/271 272/272/272 276/276/276
f 278/278/278 274/274/274 273/273/273
f 277/277/277 288/288/288 275/275/275
f 281/281/281 268/268/268 266/266/266
f 283/283/283 281/281/281 285/285/285
f 282/282/282 267/267/267 286/286/286
f 287/287/287 289/289/289 279/279/279
f 290/290/290 291/291/291 280/280/280
f 284/284/284 286/286/286 291/291/291
f 283/283/283 292/292/292 289/289/289
f 293/293/293 294/294/294 295/295/295
f 296/296/296 297/297/297 298/298/298
f 298/298/298 299/299/299 300/300/300
f 301/301/301 302/302/302 303/303/303
f 304/304/304 305/305/305 306/306/306
f 304/304/304 307/307/307 305/305/305
f 308/308/308 309/309/309 310/310/310
f 311/311/311 312/312/312 313/313/313
f 314/314/314 315/315/315 313/313/313
f 316/316/316 318/318/318 319/319/319
f 321/321/321 322/322/322 323/323/323
f 324/324/324 325/325/325 326/326/326
f 321/321/321 323/323/323 327/327/327
f 328/328/328 329/329/329 330/330/330
f 331/331/331 332/332/332 333/333/333
f 334/334/334 335/335/335 336/336/336
f 337/337/337 338/338/338 339/339/339
f 340/340/340 339/339/339 338/338/338
f 344/344/344 345/345/345 347/347/347
f 342/342/342 348/348/348 349/349/349
f 352/352/352 354/354/354 355/355/355
f 341/341/341 357/357/357 346/346/346
f 353/353/353 356/356/356 343/343/343
f 358/358/358 342/342/342 349/349/349
f 350/350/350 360/360/360 359/359/359
f 351/351/351 342/342/342 358/358/358
f 361/361/361 352/352/352 358/358/358
f 362/362/362 363/363/363 364/364/364
f 365/365/365 366/366/366 367/367/367
f 368/368/368 362/362/362 367/367/367
f 369/369/369 370/370/370 365/365/365
f 371/371/371 364/364/364 372/372/372
f 372/372/372 364/364/364 363/363/363
f 362/362/362 368/368/368 363/363/363
f 368/368/368 367/367/367 366/366/366
f 366/366/366 365/365/365 370/370/370
f 369/369/369 376/376/376 370/370/370
f 374/374/374 375/375/375 376/376/376
f 377/377/377 378/378/378 379/379/379
f 380/380/380 374/374/374 379/379/379
f 381/381/381 377/377/377 382/382/382
f 375/375/375 374/374/374 380/380/380
f 376/376/376 375/375/375 373/373/373
f 378/378/378 377/377/377 381/381/381
f 379/379/379 378/378/378 380/380/380
f 381/381/381 382/382/382 383/383/383
f 386/386/386 388/388/388 389/389/389
f 389/389/389 393/393/393 386/386/386
f 387/387/387 384/384/384 395/395/395
f 392/392/392 396/396/396 397/397/397
f 384/384/384 390/390/390 400/400/400
f 385/385/385 401/401/401 394/394/394
f 402/402/402 403/403/403 404/404/404
f 405/405/405 406/406/406 407/407/407
f 406/406/406 405/405/405 403/403/403
f 408/408/408 407/407/407 409/409/409
f 410/410/410 411/411/411 412/412/412
f 410/410/410 412/412/412 413/413/413
f 411/411/411 409/409/409 414/414/414
f 415/415/415 416/416/416 417/417/417
f 417/417/417 418/418/418 419/419/419
f 420/420/420 421/421/421 422/422/422
f 422/422/422 423/423/423 424/424/424
f 419/419/419 425/425/425 420/420/420
f 426/426/426 413/413/413 415/415/415
f 424/424/424 427/427/427 428/428/428
f 404/404/404 429/429/429 402/402/402
f 430/430/430 406/406/406 402/402/402
f 403/403/403 402/402/402 406/406/406
f 412/412/412 411/411/411 414/414/414
f 431/431/431 432/432/432 428/428/428
f 433/433/433 432/432/432 434/434/434
f 435/435/435 436/436/436 437/437/437
f 438/438/438 437/437/437 439/439/439
f 433/433/433 434/434/434 436/436/436
f 440/440/440 441/441/441 442/442/442
f 443/443/443 442/442/442 444/444/444
f 445/445/445 446/446/446 447/447/447
f 448/448/448 447/447/447 449/449/449
f 450/450/450 444/444/444 446/446/446
f 451/451/451 439/439/439 441/441/441
f 452/452/452 453/453/453 454/454/454
f 455/455/455 456/456/456 457/457/457
f 458/458/458 454/454/454 456/456/456
f 453/453/453 452/452/452 448/448/448
f 453/453/453 448/448/448 449/449/449
f 457/457/457 459/459/459 455/455/455
f 455/455/455 459/459/459 460/460/460
f 461/461/461 462/462/462 460/460/460
f 459/459/459 461/461/461 460/460/460
f 431/431/431 434/434/434 432/432/432
f 463/463/463 464/464/464 465/465/465
f 466/466/466 467/467/467 468/468/468
f 464/464/464 468/468/468 467/467/467
f 468/468/468 464/464/464 463/463/463
f 469/469/469 473/473/473 471/471/471
f 475/475/475 476/476/476 477/477/477
f 478/478/478 479/479/479 476/476/476
f 477/477/477 476/476/476 479/479/479
f 480/480/480 481/481/481 482/482/482
f 483/483/483 481/481/481 480/480/480
f 484/484/484 483/483/483 480/480/480
f 487/487/487 488/488/488 486/486/486
f 489/489/489 490/490/490 491/491/491
f 489/489/489 492/492/492 490/490/490
f 492/492/492 493/493/493 490/490/490
f 496/496/496 497/497/497 495/495/495
f 494/494/494 497/497/497 498/498/498
f 500/500/500 511/511/511 499/499/499
f 501/501/501 499/499/499 502/502/502
f 503/503/503 504/504/504 505/505/505
f 506/506/506 494/494/494 498/498/498
f 507/507/507 509/509/509 504/504/504
f 508/508/508 510/510/510 501/501/501
f 495/495/495 494/494/494 506/506/506
f 498/498/498 497/497/497 500/500/500
f 497/497/497 496/496/496 500/500/500
f 507/507/507 504/504/504 510/510/510
f 511/511/511 502/502/502 499/499/499
f 510/510/510 504/504/504 503/503/503
f 509/509/509 507/507/507 512/512/512
f 513/513/513 514/514/514 515/515/515
f 516/516/516 517/517/517 518/518/518
f 514/514/514 527/527/527 517/517/517
f 520/520/520 521/521/521 522/522/522
f 523/523/523 520/520/520 522/522/522
f 516/516/516 617/617/617 524/524/524
f 525/525/525 522/522/522 526/526/526
f 525/525/525 523/523/523 522/522/522
f 513/513/513 527/527/527 514/514/514
f 527/527/527 513/513/513 528/528/528
f 521/521/521 526/526/526 522/522/522
f 529/529/529 513/513/513 515/515/515
f 528/528/528 529/529/529 530/530/530
f 518/518/518 517/517/517 519/519/519
f 520/520/520 524/524/524 521/521/521
f 521/521/521 524/524/524 531/531/531
f 526/526/526 531/531/531 525/525/525
f 526/526/526 521/521/521 531/531/531
f 529/529/529 528/528/528 513/513/513
f 532/532/532 533/533/533 534/534/534
f 535/535/535 532/532/532 534/534/534
f 536/536/536 537/537/537 534/534/534
f 537/537/537 536/536/536 538/538/538
f 539/539/539 533/533/533 540/540/540
f 533/533/533 539/539/539 541/541/541
f 542/542/542 543/543/543 544/544/544
f 542/542/542 545/545/545 546/546/546
f 544/544/544 545/545/545 542/542/542
f 540/540/540 544/544/544 547/547/547
f 536/536/536 534/534/534 533/533/533
f 544/544/544 543/543/543 547/547/547
f 540/540/540 533/533/533 532/532/532
f 536/536/536 533/533/533 541/541/541
f 537/537/537 538/538/538 548/548/548
f 540/540/540 532/532/532 544/544/544
f 544/544/544 532/532/532 549/549/549
f 535/535/535 549/549/549 532/532/532
f 550/550/550 551/551/551 535/535/535
f 535/535/535 551/551/551 549/549/549
f 552/552/552 553/553/553 544/544/544
f 554/554/554 545/545/545 553/553/553
f 555/555/555 552/552/552 544/544/544
f 535/535/535 534/534/534 550/550/550
f 537/537/537 548/548/548 534/534/534
f 544/544/544 553/553/553 545/545/545
f 556/556/556 557/557/557 558/558/558
f 557/557/557 556/556/556 560/560/560
f 560/560/560 561/561/561 557/557/557
f 564/564/564 618/618/618 563/563/563
f 563/563/563 619/619/619 565/565/565
f 567/567/567 581/581/581 568/568/568
f 569/569/569 570/570/570 566/566/566
f 570/570/570 567/567/567 566/566/566
f 571/571/571 572/572/572 573/573/573
f 574/574/574 570/570/570 569/569/569
f 571/571/571 573/573/573 575/575/575
f 576/576/576 569/569/569 577/577/577
f 566/566/566 577/577/577 569/569/569
f 569/569/569 576/576/576 574/574/574
f 578/578/578 572/572/572 579/579/579
f 575/575/575 573/573/573 574/574/574
f 573/573/573 572/572/572 578/578/578
f 574/574/574 573/573/573 570/570/570
f 570/570/570 573/573/573 580/580/580
f 582/582/582 583/583/583 573/573/573
f 584/584/584 580/580/580 573/573/573
f 583/583/583 584/584/584 573/573/573
f 585/585/585 586/586/586 570/570/570
f 570/570/570 586/586/586 567/567/567
f 582/582/582 573/573/573 578/578/578
f 582/582/582 578/578/578 587/587/587
f 588/588/588 589/589/589 590/590/590
f 591/591/591 592/592/592 593/593/593
f 594/594/594 595/595/595 596/596/596
f 597/597/597 598/598/598 599/599/599
f 42/42/42 41/41/41 48/48/48
f 75/75/75 81/81/81 61/61/61
f 93/93/93 97/97/97 87/87/87
f 120/120/120 122/122/122 110/110/110
f 120/120/120 110/110/110 133/133/133
f 136/136/136 137/137/137 129/129/129
f 140/140/140 142/142/142 600/600/600
f 143/143/143 148/148/148 144/144/144
f 145/145/145 147/147/147 149/149/149
f 148/148/148 146/146/146 145/145/145
f 150/150/150 601/601/601 151/151/151
f 152/152/152 151/151/151 601/601/601
f 156/156/156 161/161/161 157/157/157
f 158/158/158 160/160/160 162/162/162
f 157/157/157 159/159/159 158/158/158
f 163/163/163 602/602/602 164/164/164
f 165/165/165 167/167/167 603/603/603
f 168/168/168 173/173/173 169/169/169
f 170/170/170 172/172/172 174/174/174
f 173/173/173 171/171/171 170/170/170
f 175/175/175 604/604/604 176/176/176
f 177/177/177 176/176/176 604/604/604
f 181/181/181 186/186/186 182/182/182
f 183/183/183 185/185/185 187/187/187
f 182/182/182 184/184/184 183/183/183
f 188/188/188 605/605/605 189/189/189
f 201/201/201 207/207/207 204/204/204
f 228/228/228 213/213/213 212/212/212
f 215/215/215 218/218/218 216/216/216
f 265/265/265 269/269/269 262/262/262
f 297/297/297 299/299/299 298/298/298
f 606/606/606 303/303/303 302/302/302
f 607/607/607 608/608/608 609/609/609
f 608/608/608 607/607/607 610/610/610
f 312/312/312 314/314/314 313/313/313
f 317/317/317 320/320/320 611/611/611
f 323/323/323 326/326/326 327/327/327
f 328/328/328 330/330/330 612/612/612
f 328/328/328 612/612/612 613/613/613
f 332/332/332 614/614/614 615/615/615
f 332/332/332 615/615/615 333/333/333
f 616/616/616 338/338/338 337/337/337
f 391/391/391 398/398/398 399/399/399
f 405/405/405 407/407/407 408/408/408
f 407/407/407 414/414/414 409/409/409
f 410/410/410 413/413/413 426/426/426
f 416/416/416 418/418/418 417/417/417
f 418/418/418 425/425/425 419/419/419
f 421/421/421 423/423/423 422/422/422
f 423/423/423 427/427/427 424/424/424
f 425/425/425 421/421/421 420/420/420
f 413/413/413 416/416/416 415/415/415
f 427/427/427 431/431/431 428/428/428
f 430/430/430 402/402/402 429/429/429
f 435/435/435 437/437/437 438/438/438
f 438/438/438 439/439/439 451/451/451
f 433/433/433 436/436/436 435/435/435
f 440/440/440 442/442/442 443/443/443
f 443/443/443 444/444/444 450/450/450
f 446/446/446 449/449/449 447/447/447
f 450/450/450 446/446/446 445/445/445
f 451/451/451 441/441/441 440/440/440
f 452/452/452 454/454/454 458/458/458
f 454/454/454 457/457/457 456/456/456
f 501/501/501 502/502/502 508/508/508
f 516/516/516 518/518/518 617/617/617
f 544/544/544 549/549/549 555/555/555
f 570/570/570 580/580/580 585/585/585
f 27/27/27 26/26/26 21/21/21
f 51/51/51 43/43/43 44/44/44
f 44/44/44 59/59/59 58/58/58
f 196/196/196 198/198/198 195/195/195
f 226/226/226 227/227/227 211/211/211
f 231/231/231 221/221/221 220/220/220
f 234/234/234 235/235/235 233/233/233
f 239/239/239 240/240/240 238/238/238
f 248/248/248 241/241/241 243/243/243
f 238/238/238 237/237/237 236/236/236
f 254/254/254 264/264/264 261/261/261
f 287/287/287 279/279/279 274/274/274
f 376/376/376 373/373/373 370/370/370
f 474/474/474 470/470/470 472/472/472
f 488/488/488 485/485/485 486/486/486
f 497/497/497 494/494/494 495/495/495
f 500/500/500 499/499/499 498/498/498
f 509/509/509 505/505/505 504/504/504
f 510/510/510 503/503/503 501/501/501
f 527/527/527 519/519/519 517/517/517
f 516/516/516 524/524/524 520/520/520
f 556/556/556 559/559/559 560/560/560
f 618/618/618 562/562/562 563/563/563
f 563/563/563 565/565/565 564/564/564
f 567/567/567 568/568/568 566/566/566

