mtllib material.mtl
usemtl Material-7011油漆.037
v -0.01941400 -0.12493200 -0.07624300
v -0.01941400 -0.12493200 -0.07624300
v -0.01941400 -0.12493200 -0.07624300
v -0.01941400 -0.12563200 -0.07624300
v -0.01941400 -0.12563200 -0.07624300
v -0.01941400 -0.12563200 -0.07624300
v -0.02213200 -0.12493200 -0.07913300
v -0.02213200 -0.12493200 -0.07913300
v -0.02213200 -0.12493200 -0.07913300
v -0.02213200 -0.12563200 -0.07913300
v -0.02213200 -0.12563200 -0.07913300
v -0.02213200 -0.12563200 -0.07913300
v -0.02213200 -0.12493200 -0.07913300
v -0.02213200 -0.12493200 -0.07913300
v -0.02213200 -0.12493200 -0.07913300
v -0.02213200 -0.12563200 -0.07913300
v -0.02213200 -0.12563200 -0.07913300
v -0.02213200 -0.12563200 -0.07913300
v -0.01653700 -0.12493200 -0.07933500
v -0.01653700 -0.12493200 -0.07933500
v -0.01653700 -0.12493200 -0.07933500
v -0.01653700 -0.12563200 -0.07933500
v -0.01653700 -0.12563200 -0.07933500
v -0.01653700 -0.12563200 -0.07933500
v -0.01653600 -0.12493200 -0.07933400
v -0.01653600 -0.12493200 -0.07933400
v -0.01653600 -0.12493200 -0.07933400
v -0.01653600 -0.12563200 -0.07933400
v -0.01653600 -0.12563200 -0.07933400
v -0.01653600 -0.12563200 -0.07933400
v -0.01622700 -0.12493200 -0.07075500
v -0.01622700 -0.12493200 -0.07075500
v -0.01622700 -0.12493200 -0.07075500
v -0.01622700 -0.12563200 -0.07075500
v -0.01622700 -0.12563200 -0.07075500
v -0.01622700 -0.12563200 -0.07075500
v -0.01622800 -0.12493200 -0.07075500
v -0.01622800 -0.12493200 -0.07075500
v -0.01622800 -0.12493200 -0.07075500
v -0.01622800 -0.12563200 -0.07075500
v -0.01622800 -0.12563200 -0.07075500
v -0.01622800 -0.12563200 -0.07075500
v -0.01921200 -0.12493200 -0.07064700
v -0.01921200 -0.12493200 -0.07064700
v -0.01921200 -0.12493200 -0.07064700
v -0.01921200 -0.12563200 -0.07064700
v -0.01921200 -0.12563200 -0.07064700
v -0.01921200 -0.12563200 -0.07064700
v -0.01921300 -0.12493200 -0.07064800
v -0.01921300 -0.12493200 -0.07064800
v -0.01921300 -0.12493200 -0.07064800
v -0.01921300 -0.12563200 -0.07064800
v -0.01921300 -0.12563200 -0.07064800
v -0.01921300 -0.12563200 -0.07064800
v -0.01941400 -0.12493200 -0.07624300
v -0.01941400 -0.12493200 -0.07624300
v -0.01941400 -0.12493200 -0.07624300
v -0.01941400 -0.12563200 -0.07624300
v -0.01941400 -0.12563200 -0.07624300
v -0.01941400 -0.12563200 -0.07624300
v -0.02213200 -0.12493100 -0.07913300
v -0.02213200 -0.12493100 -0.07913300
v -0.02213200 -0.12493100 -0.07913300
v -0.01622800 -0.12493100 -0.07075500
v -0.01622800 -0.12493100 -0.07075500
v -0.01622800 -0.12493100 -0.07075500
v -0.01941400 -0.12493100 -0.07624300
v -0.01941400 -0.12493100 -0.07624300
v -0.01941400 -0.12493100 -0.07624300
v -0.01653700 -0.12493100 -0.07933400
v -0.01653700 -0.12493100 -0.07933400
v -0.01653700 -0.12493100 -0.07933400
v -0.01921200 -0.12493100 -0.07064800
v -0.01921200 -0.12493100 -0.07064800
v -0.01921200 -0.12493100 -0.07064800
v -0.02213200 -0.12563200 -0.07913300
v -0.02213200 -0.12563200 -0.07913300
v -0.02213200 -0.12563200 -0.07913300
v -0.01622800 -0.12563200 -0.07075500
v -0.01622800 -0.12563200 -0.07075500
v -0.01622800 -0.12563200 -0.07075500
v -0.01941400 -0.12563200 -0.07624300
v -0.01941400 -0.12563200 -0.07624300
v -0.01941400 -0.12563200 -0.07624300
v -0.01653700 -0.12563200 -0.07933400
v -0.01653700 -0.12563200 -0.07933400
v -0.01653700 -0.12563200 -0.07933400
v -0.01921200 -0.12563200 -0.07064800
v -0.01921200 -0.12563200 -0.07064800
v -0.01921200 -0.12563200 -0.07064800
v -0.01941300 -0.12493200 -0.07624400
v -0.01941300 -0.12493200 -0.07624400
v -0.01941300 -0.12493200 -0.07624400
v -0.01941300 -0.12563200 -0.07624400
v -0.01941300 -0.12563200 -0.07624400
v -0.01941300 -0.12563200 -0.07624400
v -0.02213200 -0.12493200 -0.07913300
v -0.02213200 -0.12493200 -0.07913300
v -0.02213200 -0.12493200 -0.07913300
v -0.02213200 -0.12563200 -0.07913300
v -0.02213200 -0.12563200 -0.07913300
v -0.02213200 -0.12563200 -0.07913300
v -0.02213200 -0.12493200 -0.07913200
v -0.02213200 -0.12493200 -0.07913200
v -0.02213200 -0.12493200 -0.07913200
v -0.02213200 -0.12563200 -0.07913200
v -0.02213200 -0.12563200 -0.07913200
v -0.02213200 -0.12563200 -0.07913200
v -0.01653700 -0.12493200 -0.07933400
v -0.01653700 -0.12493200 -0.07933400
v -0.01653700 -0.12493200 -0.07933400
v -0.01653700 -0.12563200 -0.07933400
v -0.01653700 -0.12563200 -0.07933400
v -0.01653700 -0.12563200 -0.07933400
v -0.01653700 -0.12493200 -0.07933400
v -0.01653700 -0.12493200 -0.07933400
v -0.01653700 -0.12493200 -0.07933400
v -0.01653700 -0.12563200 -0.07933400
v -0.01653700 -0.12563200 -0.07933400
v -0.01653700 -0.12563200 -0.07933400
v -0.01622800 -0.12493200 -0.07075500
v -0.01622800 -0.12493200 -0.07075500
v -0.01622800 -0.12493200 -0.07075500
v -0.01622800 -0.12563200 -0.07075500
v -0.01622800 -0.12563200 -0.07075500
v -0.01622800 -0.12563200 -0.07075500
v -0.01622800 -0.12493200 -0.07075600
v -0.01622800 -0.12493200 -0.07075600
v -0.01622800 -0.12493200 -0.07075600
v -0.01622800 -0.12563200 -0.07075600
v -0.01622800 -0.12563200 -0.07075600
v -0.01622800 -0.12563200 -0.07075600
v -0.01921200 -0.12493200 -0.07064800
v -0.01921200 -0.12493200 -0.07064800
v -0.01921200 -0.12493200 -0.07064800
v -0.01921200 -0.12563200 -0.07064800
v -0.01921200 -0.12563200 -0.07064800
v -0.01921200 -0.12563200 -0.07064800
v -0.01921200 -0.12493200 -0.07064800
v -0.01921200 -0.12493200 -0.07064800
v -0.01921200 -0.12493200 -0.07064800
v -0.01921200 -0.12563200 -0.07064800
v -0.01921200 -0.12563200 -0.07064800
v -0.01921200 -0.12563200 -0.07064800
v -0.01941300 -0.12493200 -0.07624300
v -0.01941300 -0.12493200 -0.07624300
v -0.01941300 -0.12493200 -0.07624300
v -0.01941300 -0.12563200 -0.07624300
v -0.01941300 -0.12563200 -0.07624300
v -0.01941300 -0.12563200 -0.07624300
v -0.02213200 -0.12493200 -0.07913300
v -0.02213200 -0.12493200 -0.07913300
v -0.02213200 -0.12493200 -0.07913300
v -0.01622800 -0.12493200 -0.07075500
v -0.01622800 -0.12493200 -0.07075500
v -0.01622800 -0.12493200 -0.07075500
v -0.01941400 -0.12493200 -0.07624300
v -0.01941400 -0.12493200 -0.07624300
v -0.01941400 -0.12493200 -0.07624300
v -0.01653700 -0.12493200 -0.07933400
v -0.01653700 -0.12493200 -0.07933400
v -0.01653700 -0.12493200 -0.07933400
v -0.01921200 -0.12493200 -0.07064800
v -0.01921200 -0.12493200 -0.07064800
v -0.01921200 -0.12493200 -0.07064800
v -0.02213200 -0.12563100 -0.07913300
v -0.02213200 -0.12563100 -0.07913300
v -0.02213200 -0.12563100 -0.07913300
v -0.01622800 -0.12563100 -0.07075500
v -0.01622800 -0.12563100 -0.07075500
v -0.01622800 -0.12563100 -0.07075500
v -0.01941400 -0.12563100 -0.07624300
v -0.01941400 -0.12563100 -0.07624300
v -0.01941400 -0.12563100 -0.07624300
v -0.01653700 -0.12563100 -0.07933400
v -0.01653700 -0.12563100 -0.07933400
v -0.01653700 -0.12563100 -0.07933400
v -0.01921200 -0.12563100 -0.07064800
v -0.01921200 -0.12563100 -0.07064800
v -0.01921200 -0.12563100 -0.07064800
vn -0.72840000 0.00000000 0.68520000
vn 0.00000000 1.00000000 -0.00000000
vn 0.68570000 0.00000000 0.72790000
vn -0.72840000 0.00000000 0.68520000
vn 0.00000000 -1.00000000 0.00000000
vn 0.68570000 0.00000000 0.72790000
vn -0.72840000 0.00000000 0.68520000
vn 0.00000000 1.00000000 -0.00000000
vn -0.68570000 0.00000000 -0.72790000
vn -0.68570000 0.00000000 -0.72790000
vn -0.72840000 0.00000000 0.68520000
vn 0.00000000 -1.00000000 0.00000000
vn -0.03600000 0.00000000 -0.99940000
vn -0.99940000 0.00000000 0.03540000
vn 0.00000000 1.00000000 -0.00000000
vn -0.99940000 0.00000000 0.03540000
vn -0.03600000 0.00000000 -0.99940000
vn 0.00000000 -1.00000000 0.00000000
vn 0.99940000 0.00000000 -0.03380000
vn 0.00000000 1.00000000 -0.00000000
vn -0.03600000 0.00000000 -0.99940000
vn 0.99940000 0.00000000 -0.03380000
vn -0.03600000 0.00000000 -0.99940000
vn 0.00000000 -1.00000000 0.00000000
vn 0.00000000 1.00000000 -0.00000000
vn 0.99940000 0.00000000 -0.03600000
vn -0.03120000 0.00000000 -0.99950000
vn -0.03120000 0.00000000 -0.99950000
vn 0.99940000 0.00000000 -0.03600000
vn 0.00000000 -1.00000000 0.00000000
vn 0.00000000 1.00000000 -0.00000000
vn 0.99940000 0.00000000 -0.03600000
vn 0.02600000 0.00000000 0.99970000
vn 0.99940000 0.00000000 -0.03600000
vn 0.02600000 0.00000000 0.99970000
vn 0.00000000 -1.00000000 0.00000000
vn 0.99940000 0.00000000 -0.03380000
vn 0.00000000 1.00000000 -0.00000000
vn 0.03600000 0.00000000 0.99940000
vn 0.00000000 -1.00000000 0.00000000
vn 0.99940000 0.00000000 -0.03380000
vn 0.03600000 0.00000000 0.99940000
vn 0.03600000 0.00000000 0.99940000
vn -0.99940000 0.00000000 0.03580000
vn 0.00000000 1.00000000 -0.00000000
vn -0.99940000 0.00000000 0.03580000
vn 0.00000000 -1.00000000 0.00000000
vn 0.03600000 0.00000000 0.99940000
vn 0.00000000 1.00000000 -0.00000000
vn 0.03120000 0.00000000 0.99950000
vn -0.99940000 0.00000000 0.03600000
vn 0.03120000 0.00000000 0.99950000
vn -0.99940000 0.00000000 0.03600000
vn 0.00000000 -1.00000000 0.00000000
vn -0.02600000 0.00000000 -0.99970000
vn 0.00000000 1.00000000 -0.00000000
vn -0.99940000 0.00000000 0.03600000
vn -0.99940000 0.00000000 0.03600000
vn 0.00000000 -1.00000000 0.00000000
vn -0.02600000 0.00000000 -0.99970000
vn -0.03630000 0.00000000 -0.99930000
vn 0.00000000 1.00000000 -0.00000000
vn -0.72820000 0.00000000 0.68540000
vn 0.03570000 0.00000000 0.99940000
vn 0.00000000 1.00000000 -0.00000000
vn 0.99930000 0.00000000 -0.03620000
vn 0.00000000 1.00000000 -0.00000000
vn -0.99930000 0.00000000 0.03620000
vn -0.72820000 0.00000000 0.68540000
vn 0.00000000 1.00000000 -0.00000000
vn 0.99930000 0.00000000 -0.03620000
vn -0.03630000 0.00000000 -0.99930000
vn 0.00000000 1.00000000 -0.00000000
vn -0.99930000 0.00000000 0.03620000
vn 0.03570000 0.00000000 0.99940000
vn -0.03620000 0.00000000 -0.99930000
vn 0.00000000 -1.00000000 0.00000000
vn -0.72710000 0.00000000 0.68660000
vn 0.00000000 -1.00000000 0.00000000
vn 0.99940000 0.00000000 -0.03600000
vn 0.03600000 0.00000000 0.99940000
vn -0.99930000 0.00000000 0.03620000
vn 0.00000000 -1.00000000 0.00000000
vn -0.72710000 0.00000000 0.68660000
vn -0.03620000 0.00000000 -0.99930000
vn 0.00000000 -1.00000000 0.00000000
vn 0.99940000 0.00000000 -0.03600000
vn -0.99930000 0.00000000 0.03620000
vn 0.00000000 -1.00000000 0.00000000
vn 0.03600000 0.00000000 0.99940000
vn 0.72840000 0.00000000 -0.68520000
vn 0.68570000 0.00000000 0.72790000
vn 0.00000000 1.00000000 -0.00000000
vn 0.68570000 0.00000000 0.72790000
vn 0.72840000 0.00000000 -0.68520000
vn 0.00000000 -1.00000000 0.00000000
vn 0.00000000 1.00000000 -0.00000000
vn -0.68570000 0.00000000 -0.72790000
vn 0.72840000 0.00000000 -0.68520000
vn -0.68570000 0.00000000 -0.72790000
vn 0.00000000 -1.00000000 0.00000000
vn 0.72840000 0.00000000 -0.68520000
vn 0.00000000 1.00000000 -0.00000000
vn -0.99940000 0.00000000 0.03540000
vn 0.03600000 0.00000000 0.99940000
vn 0.00000000 -1.00000000 0.00000000
vn 0.03600000 0.00000000 0.99940000
vn -0.99940000 0.00000000 0.03540000
vn 0.99940000 0.00000000 -0.03380000
vn 0.03600000 0.00000000 0.99940000
vn 0.00000000 1.00000000 -0.00000000
vn 0.00000000 -1.00000000 0.00000000
vn 0.99940000 0.00000000 -0.03380000
vn 0.03600000 0.00000000 0.99940000
vn 0.00000000 1.00000000 -0.00000000
vn -0.99940000 0.00000000 0.03600000
vn -0.03120000 0.00000000 -0.99950000
vn -0.99940000 0.00000000 0.03600000
vn 0.00000000 -1.00000000 0.00000000
vn -0.03120000 0.00000000 -0.99950000
vn 0.02600000 0.00000000 0.99970000
vn 0.00000000 1.00000000 -0.00000000
vn -0.99940000 0.00000000 0.03600000
vn 0.02600000 0.00000000 0.99970000
vn -0.99940000 0.00000000 0.03600000
vn 0.00000000 -1.00000000 0.00000000
vn 0.00000000 1.00000000 -0.00000000
vn 0.99940000 0.00000000 -0.03380000
vn -0.03600000 0.00000000 -0.99940000
vn -0.03600000 0.00000000 -0.99940000
vn 0.00000000 -1.00000000 0.00000000
vn 0.99940000 0.00000000 -0.03380000
vn -0.03600000 0.00000000 -0.99940000
vn 0.00000000 1.00000000 -0.00000000
vn -0.99940000 0.00000000 0.03580000
vn -0.99940000 0.00000000 0.03580000
vn 0.00000000 -1.00000000 0.00000000
vn -0.03600000 0.00000000 -0.99940000
vn 0.03120000 0.00000000 0.99950000
vn 0.99940000 0.00000000 -0.03600000
vn 0.00000000 1.00000000 -0.00000000
vn 0.03120000 0.00000000 0.99950000
vn 0.99940000 0.00000000 -0.03600000
vn 0.00000000 -1.00000000 0.00000000
vn 0.00000000 1.00000000 -0.00000000
vn 0.99940000 0.00000000 -0.03600000
vn -0.02600000 0.00000000 -0.99970000
vn 0.99940000 0.00000000 -0.03600000
vn -0.02600000 0.00000000 -0.99970000
vn 0.00000000 -1.00000000 0.00000000
vn -0.03630000 0.00000000 -0.99930000
vn -0.72820000 0.00000000 0.68540000
vn 0.00000000 -1.00000000 0.00000000
vn 0.00000000 -1.00000000 0.00000000
vn 0.99930000 0.00000000 -0.03620000
vn 0.03570000 0.00000000 0.99940000
vn 0.00000000 -1.00000000 0.00000000
vn -0.99930000 0.00000000 0.03620000
vn -0.72820000 0.00000000 0.68540000
vn 0.00000000 -1.00000000 0.00000000
vn 0.99930000 0.00000000 -0.03620000
vn -0.03630000 0.00000000 -0.99930000
vn 0.00000000 -1.00000000 0.00000000
vn 0.03570000 0.00000000 0.99940000
vn -0.99930000 0.00000000 0.03620000
vn -0.03620000 0.00000000 -0.99930000
vn 0.00000000 1.00000000 -0.00000000
vn -0.72710000 0.00000000 0.68660000
vn 0.00000000 1.00000000 -0.00000000
vn 0.03600000 0.00000000 0.99940000
vn 0.99940000 0.00000000 -0.03600000
vn 0.00000000 1.00000000 -0.00000000
vn -0.72710000 0.00000000 0.68660000
vn -0.99930000 0.00000000 0.03620000
vn -0.03620000 0.00000000 -0.99930000
vn 0.00000000 1.00000000 -0.00000000
vn 0.99940000 0.00000000 -0.03600000
vn 0.00000000 1.00000000 -0.00000000
vn 0.03600000 0.00000000 0.99940000
vn -0.99930000 0.00000000 0.03620000
vt 0.10966400 0.00000000
vt 0.10966400 0.00000000
vt 0.10966400 0.00000000
vt 0.05556500 0.00000000
vt 0.05556500 0.00000000
vt 0.05556500 0.00000000
vt 0.10966400 0.31490200
vt 0.10966400 0.31490200
vt 0.10966400 0.31490200
vt 0.05556500 0.31490200
vt 0.05556500 0.31490200
vt 0.05556500 0.31490200
vt 0.16669400 0.00000000
vt 0.16669400 0.00000000
vt 0.16669400 0.00000000
vt 0.16669400 0.05410000
vt 0.16669400 0.05410000
vt 0.16669400 0.05410000
vt 0.61112900 0.00000000
vt 0.61112900 0.00000000
vt 0.61112900 0.00000000
vt 0.61112900 0.05410000
vt 0.61112900 0.05410000
vt 0.61112900 0.05410000
vt 0.16522900 0.00000000
vt 0.16522900 0.00000000
vt 0.16522900 0.00000000
vt 0.11112900 0.00000000
vt 0.11112900 0.00000000
vt 0.11112900 0.00000000
vt 0.16522900 0.68142500
vt 0.16522900 0.68142500
vt 0.16522900 0.68142500
vt 0.11112900 0.68142500
vt 0.11112900 0.68142500
vt 0.11112900 0.68142500
vt 0.05410000 0.00000000
vt 0.05410000 0.00000000
vt 0.05410000 0.00000000
vt 0.00000000 0.00000000
vt 0.00000000 0.00000000
vt 0.00000000 0.00000000
vt 0.05410000 0.23707300
vt 0.05410000 0.23707300
vt 0.05410000 0.23707300
vt 0.00000000 0.23707300
vt 0.00000000 0.23707300
vt 0.00000000 0.23707300
vt 0.16669400 0.05556500
vt 0.16669400 0.05556500
vt 0.16669400 0.05556500
vt 0.16669400 0.10966400
vt 0.16669400 0.10966400
vt 0.16669400 0.10966400
vt 0.61112900 0.05556500
vt 0.61112900 0.05556500
vt 0.61112900 0.05556500
vt 0.61112900 0.10966400
vt 0.61112900 0.10966400
vt 0.61112900 0.10966400
vt 0.16669400 0.99853500
vt 0.16669400 0.99853500
vt 0.16669400 0.99853500
vt 0.84665400 0.55556500
vt 0.84665400 0.55556500
vt 0.84665400 0.55556500
vt 0.40317400 0.79185700
vt 0.40317400 0.79185700
vt 0.40317400 0.79185700
vt 0.16669400 0.55556500
vt 0.16669400 0.55556500
vt 0.16669400 0.55556500
vt 0.84665400 0.79185700
vt 0.84665400 0.79185700
vt 0.84665400 0.79185700
vt 0.16669400 0.55410000
vt 0.16669400 0.55410000
vt 0.16669400 0.55410000
vt 0.84665400 0.11112900
vt 0.84665400 0.11112900
vt 0.84665400 0.11112900
vt 0.40317400 0.34742100
vt 0.40317400 0.34742100
vt 0.40317400 0.34742100
vt 0.16669400 0.11112900
vt 0.16669400 0.11112900
vt 0.16669400 0.11112900
vt 0.84665400 0.34742100
vt 0.84665400 0.34742100
vt 0.84665400 0.34742100
vt 0.10966400 0.00000000
vt 0.10966400 0.00000000
vt 0.10966400 0.00000000
vt 0.05556500 0.00000000
vt 0.05556500 0.00000000
vt 0.05556500 0.00000000
vt 0.10966400 0.31490200
vt 0.10966400 0.31490200
vt 0.10966400 0.31490200
vt 0.05556500 0.31490200
vt 0.05556500 0.31490200
vt 0.05556500 0.31490200
vt 0.16669400 0.00000000
vt 0.16669400 0.00000000
vt 0.16669400 0.00000000
vt 0.16669400 0.05410000
vt 0.16669400 0.05410000
vt 0.16669400 0.05410000
vt 0.61112900 0.00000000
vt 0.61112900 0.00000000
vt 0.61112900 0.00000000
vt 0.61112900 0.05410000
vt 0.61112900 0.05410000
vt 0.61112900 0.05410000
vt 0.16522900 0.00000000
vt 0.16522900 0.00000000
vt 0.16522900 0.00000000
vt 0.11112900 0.00000000
vt 0.11112900 0.00000000
vt 0.11112900 0.00000000
vt 0.16522900 0.68142500
vt 0.16522900 0.68142500
vt 0.16522900 0.68142500
vt 0.11112900 0.68142500
vt 0.11112900 0.68142500
vt 0.11112900 0.68142500
vt 0.05410000 0.00000000
vt 0.05410000 0.00000000
vt 0.05410000 0.00000000
vt 0.00000000 0.00000000
vt 0.00000000 0.00000000
vt 0.00000000 0.00000000
vt 0.05410000 0.23707300
vt 0.05410000 0.23707300
vt 0.05410000 0.23707300
vt 0.00000000 0.23707300
vt 0.00000000 0.23707300
vt 0.00000000 0.23707300
vt 0.16669400 0.05556500
vt 0.16669400 0.05556500
vt 0.16669400 0.05556500
vt 0.16669400 0.10966400
vt 0.16669400 0.10966400
vt 0.16669400 0.10966400
vt 0.61112900 0.05556500
vt 0.61112900 0.05556500
vt 0.61112900 0.05556500
vt 0.61112900 0.10966400
vt 0.61112900 0.10966400
vt 0.61112900 0.10966400
vt 0.16669400 0.99853500
vt 0.16669400 0.99853500
vt 0.16669400 0.99853500
vt 0.84665400 0.55556500
vt 0.84665400 0.55556500
vt 0.84665400 0.55556500
vt 0.40317400 0.79185700
vt 0.40317400 0.79185700
vt 0.40317400 0.79185700
vt 0.16669400 0.55556500
vt 0.16669400 0.55556500
vt 0.16669400 0.55556500
vt 0.84665400 0.79185700
vt 0.84665400 0.79185700
vt 0.84665400 0.79185700
vt 0.16669400 0.55410000
vt 0.16669400 0.55410000
vt 0.16669400 0.55410000
vt 0.84665400 0.11112900
vt 0.84665400 0.11112900
vt 0.84665400 0.11112900
vt 0.40317400 0.34742100
vt 0.40317400 0.34742100
vt 0.40317400 0.34742100
vt 0.16669400 0.11112900
vt 0.16669400 0.11112900
vt 0.16669400 0.11112900
vt 0.84665400 0.34742100
vt 0.84665400 0.34742100
vt 0.84665400 0.34742100
f 4/4/4 1/1/1 7/7/7
f 17/17/17 13/13/13 21/21/21
f 29/29/29 26/26/26 32/32/32
f 42/42/42 39/39/39 43/43/43
f 53/53/53 51/51/51 57/57/57
f 67/67/67 70/70/70 62/62/62
f 73/73/73 65/65/65 67/67/67
f 70/70/70 67/67/67 65/65/65
f 83/83/83 77/77/77 86/86/86
f 89/89/89 83/83/83 79/79/79
f 86/86/86 79/79/79 83/83/83
f 4/4/4 7/7/7 11/11/11
f 17/17/17 21/21/21 23/23/23
f 29/29/29 32/32/32 34/34/34
f 42/42/42 43/43/43 48/48/48
f 53/53/53 57/57/57 58/58/58
f 95/95/95 99/99/99 91/91/91
f 107/107/107 110/110/110 105/105/105
f 118/118/118 123/123/123 116/116/116
f 130/130/130 133/133/133 129/129/129
f 143/143/143 146/146/146 140/140/140
f 157/157/157 153/153/153 160/160/160
f 163/163/163 157/157/157 154/154/154
f 160/160/160 154/154/154 157/157/157
f 172/172/172 176/176/176 167/167/167
f 178/178/178 169/169/169 172/172/172
f 176/176/176 172/172/172 169/169/169
f 95/95/95 102/102/102 99/99/99
f 107/107/107 114/114/114 110/110/110
f 118/118/118 125/125/125 123/123/123
f 130/130/130 138/138/138 133/133/133
f 143/143/143 148/148/148 146/146/146
f 30/30/30 36/36/36 126/126/126
f 126/126/126 119/119/119 30/30/30
f 3/3/3 6/6/6 94/94/94
f 94/94/94 92/92/92 3/3/3
f 5/5/5 12/12/12 101/101/101
f 101/101/101 96/96/96 5/5/5
f 14/14/14 16/16/16 108/108/108
f 108/108/108 104/104/104 14/14/14
f 18/18/18 24/24/24 112/112/112
f 112/112/112 106/106/106 18/18/18
f 35/35/35 33/33/33 121/121/121
f 121/121/121 124/124/124 35/35/35
f 27/27/27 28/28/28 120/120/120
f 120/120/120 117/117/117 27/27/27
f 8/8/8 2/2/2 93/93/93
f 93/93/93 97/97/97 8/8/8
f 37/37/37 41/41/41 132/132/132
f 132/132/132 128/128/128 37/37/37
f 40/40/40 47/47/47 137/137/137
f 137/137/137 131/131/131 40/40/40
f 50/50/50 52/52/52 142/142/142
f 142/142/142 139/139/139 50/50/50
f 54/54/54 59/59/59 150/150/150
f 150/150/150 144/144/144 54/54/54
f 69/69/69 63/63/63 152/152/152
f 152/152/152 159/159/159 69/69/69
f 61/61/61 72/72/72 162/162/162
f 162/162/162 151/151/151 61/61/61
f 74/74/74 68/68/68 158/158/158
f 158/158/158 165/165/165 74/74/74
f 78/78/78 84/84/84 173/173/173
f 173/173/173 168/168/168 78/78/78
f 85/85/85 76/76/76 166/166/166
f 166/166/166 175/175/175 85/85/85
f 90/90/90 81/81/81 170/170/170
f 170/170/170 179/179/179 90/90/90
f 10/10/10 9/9/9 98/98/98
f 98/98/98 100/100/100 10/10/10
f 64/64/64 75/75/75 164/164/164
f 164/164/164 156/156/156 64/64/64
f 45/45/45 38/38/38 127/127/127
f 127/127/127 134/134/134 45/45/45
f 46/46/46 44/44/44 135/135/135
f 135/135/135 136/136/136 46/46/46
f 20/20/20 15/15/15 103/103/103
f 103/103/103 111/111/111 20/20/20
f 71/71/71 66/66/66 155/155/155
f 155/155/155 161/161/161 71/71/71
f 22/22/22 19/19/19 109/109/109
f 109/109/109 113/113/113 22/22/22
f 56/56/56 49/49/49 141/141/141
f 141/141/141 145/145/145 56/56/56
f 80/80/80 87/87/87 177/177/177
f 177/177/177 171/171/171 80/80/80
f 82/82/82 88/88/88 180/180/180
f 180/180/180 174/174/174 82/82/82
f 60/60/60 55/55/55 147/147/147
f 147/147/147 149/149/149 60/60/60
f 31/31/31 25/25/25 115/115/115
f 115/115/115 122/122/122 31/31/31

