mtllib material.mtl
usemtl Material-7024油漆.011
v -0.09587000 -0.07644600 0.07904500
v -0.09712500 -0.07478600 0.07900900
v -0.09435500 -0.07777300 0.07900400
v -0.09435500 -0.07777300 0.07900400
v -0.09268000 -0.07872700 0.07905100
v -0.09110800 -0.07925200 0.07904100
v 0.13968800 -0.08640100 0.07708900
v -0.13988200 -0.08640100 0.07709300
v -0.13988200 -0.08640100 0.07709300
v 0.14033000 -0.08610700 0.07680000
v 0.14033000 -0.08610700 0.07680000
v -0.14039900 -0.08611600 0.07680000
v -0.14039900 -0.08611600 0.07680000
v -0.14079500 -0.08529100 0.07709600
v -0.14079700 -0.08056900 0.07709800
v 0.14041600 -0.07977800 0.07679900
v 0.14079600 -0.08056200 0.07709600
v 0.14079200 -0.08549200 0.07709700
v 0.14041600 -0.07977800 0.07679900
v 0.08484200 -0.07974700 0.07680000
v 0.13988300 -0.07945200 0.07710000
v 0.08507300 -0.07944700 0.07710000
v -0.10162200 -0.07512800 0.07710700
v -0.10134800 -0.07532000 0.07680000
v -0.10229600 -0.07685200 0.07710000
v -0.10235800 -0.07754900 0.07680000
v -0.10373000 -0.07851400 0.07712500
v -0.10405000 -0.07901500 0.07680000
v -0.10583400 -0.07974400 0.07680000
v 0.08507300 -0.07944700 0.07710000
v 0.08484200 -0.07974700 0.07680000
v 0.08273100 -0.07851500 0.07712500
v 0.08135300 -0.07754200 0.07680000
v 0.08305000 -0.07901500 0.07680000
v 0.08129700 -0.07685200 0.07710000
v 0.08033100 -0.07527500 0.07680000
v -0.10162200 -0.07512800 0.07710700
v -0.10159100 -0.06602800 0.07710700
v -0.10124700 -0.06491100 0.07680000
v -0.09074100 -0.05044700 0.07680000
v -0.09526900 -0.05341300 0.07680000
v -0.09324400 -0.05157000 0.07710000
v -0.09870100 -0.05767000 0.07680000
v -0.09733200 -0.05527500 0.07710000
v -0.10023400 -0.06097400 0.07680000
v -0.10124700 -0.06491100 0.07680000
v -0.10108800 -0.06271800 0.07713400
v -0.10016900 -0.06000700 0.07710000
v 0.08021100 -0.06475000 0.07680000
v 0.07922800 -0.06095500 0.07680000
v 0.08005300 -0.06253500 0.07713900
v 0.07775500 -0.05777300 0.07680000
v 0.07881400 -0.05914900 0.07711600
v 0.07563100 -0.05488400 0.07680000
v 0.07743200 -0.05675700 0.07710000
v 0.07206400 -0.05168900 0.07680000
v 0.06701600 -0.04940900 0.07680000
v 0.06899500 -0.04983300 0.07710000
v 0.06299300 -0.04870300 0.07680000
v 0.06624400 -0.04890600 0.07710100
v 0.07372700 -0.05266900 0.07710000
v 0.07581400 -0.05462100 0.07709600
v -0.08390600 -0.04840200 0.07710000
v -0.08390600 -0.04840200 0.07710000
v 0.06291000 -0.04840300 0.07710000
v 0.06299300 -0.04870300 0.07680000
v 0.06299300 -0.04870300 0.07680000
v 0.14797800 -0.08725100 0.07900000
v 0.14793900 -0.08725200 0.08004600
v -0.14797800 -0.08725100 0.08001600
v -0.14123000 -0.08725200 0.08476600
v 0.13976000 -0.08725200 0.08500000
v 0.14123000 -0.08725200 0.08476600
v -0.13975900 -0.08725200 0.08500000
v 0.14268300 -0.08575200 0.08475300
v 0.14268300 -0.08575200 0.08475300
v -0.14268200 -0.08575200 0.08475300
v -0.14268200 -0.08575200 0.08475300
v 0.14126000 -0.08575200 0.08500000
v 0.14126000 -0.08575200 0.08500000
v -0.14525900 -0.08575200 0.08300000
v 0.14526000 -0.08575200 0.08300000
v -0.14125900 -0.08575200 0.08500000
v -0.13975900 -0.08725200 0.08500000
v 0.13976000 -0.08725200 0.08500000
v 0.14126000 -0.08575200 0.08500000
v -0.14525900 -0.08575200 0.08300000
v -0.14123000 -0.08725200 0.08476600
v -0.14268200 -0.08575200 0.08475300
v -0.14797800 -0.08725100 0.08001600
v -0.14797800 -0.08725100 0.08001600
v -0.15253200 -0.07978400 0.08207700
v -0.15253200 -0.07978400 0.08207700
v -0.15310500 -0.08073400 0.08100000
v -0.15310500 -0.08073400 0.08100000
v -0.15309800 -0.08210500 0.08003200
v -0.15168500 -0.07925200 0.08300000
v 0.14793900 -0.08725200 0.08004600
v 0.14793900 -0.08725200 0.08004600
v 0.15310600 -0.08073400 0.08100000
v 0.15310600 -0.08073400 0.08100000
v 0.15310600 -0.08073400 0.08100000
v 0.15173900 -0.07925200 0.08300000
v 0.15173900 -0.07925200 0.08300000
v 0.14526000 -0.08575200 0.08300000
v 0.15253300 -0.07978400 0.08207700
v 0.15309600 -0.08213200 0.08001700
v 0.14268300 -0.08575200 0.08475300
v 0.14123000 -0.08725200 0.08476600
v 0.15309600 -0.08213200 0.08001700
v 0.15297700 -0.08223400 0.07900000
v 0.15315000 -0.08093900 0.07900000
v 0.15310600 -0.08073400 0.08100000
v 0.15279200 -0.08007600 0.07900000
v 0.15253300 -0.07978400 0.08207700
v 0.15208200 -0.07947000 0.07900000
v 0.15117400 -0.07925200 0.07900000
v 0.15173900 -0.07925200 0.08300000
v 0.15309600 -0.08213200 0.08001700
v 0.14793900 -0.08725200 0.08004600
v 0.14797800 -0.08725100 0.07900000
v -0.15168500 -0.07925200 0.08300000
v -0.15117300 -0.07925200 0.07900000
v -0.15208100 -0.07947000 0.07900000
v -0.15253200 -0.07978400 0.08207700
v -0.15279100 -0.08007600 0.07900000
v -0.15310500 -0.08073400 0.08100000
v -0.15296800 -0.08226300 0.07900000
v -0.15309800 -0.08210500 0.08003200
v -0.15314900 -0.08093900 0.07900000
v -0.14797800 -0.08725100 0.08001600
v -0.15309800 -0.08210500 0.08003200
v -0.15296800 -0.08226300 0.07900000
v 0.14126000 -0.08575200 0.08500000
v 0.13976000 -0.08725200 0.08500000
v 0.14123000 -0.08725200 0.08476600
v 0.14268300 -0.08575200 0.08475300
v -0.14268200 -0.08575200 0.08475300
v -0.14123000 -0.08725200 0.08476600
v -0.14125900 -0.08575200 0.08500000
v -0.13975900 -0.08725200 0.08500000
v 0.13979500 -0.08640200 0.07900000
v 0.13979500 -0.08640200 0.07900000
v 0.13979500 -0.08640200 0.07900000
v 0.14797800 -0.08725100 0.07900000
v 0.14797800 -0.08725100 0.07900000
v -0.14793000 -0.08725100 0.07900000
v -0.14793000 -0.08725100 0.07900000
v -0.14793000 -0.08725100 0.07900000
v -0.14793000 -0.08725100 0.07900000
v 0.14075700 -0.08568000 0.07900000
v 0.15297700 -0.08223400 0.07900000
v -0.15296800 -0.08226300 0.07900000
v -0.14079400 -0.08540600 0.07900000
v -0.14079400 -0.08540600 0.07900000
v 0.14079500 -0.08044800 0.07900000
v 0.14079500 -0.08044800 0.07900000
v -0.15314900 -0.08093900 0.07900000
v -0.14078800 -0.08043500 0.07900000
v -0.14078800 -0.08043500 0.07900000
v -0.14002400 -0.08640100 0.07900000
v -0.14002400 -0.08640100 0.07900000
v 0.15279200 -0.08007600 0.07900000
v 0.15315000 -0.08093900 0.07900000
v 0.14003000 -0.07945600 0.07900000
v 0.14003000 -0.07945600 0.07900000
v 0.15208200 -0.07947000 0.07900000
v 0.15208200 -0.07947000 0.07900000
v 0.15117400 -0.07925200 0.07900000
v 0.15117400 -0.07925200 0.07900000
v 0.08581700 -0.07945200 0.07900000
v 0.08437200 -0.07925200 0.07900000
v -0.15208100 -0.07947000 0.07900000
v -0.15208100 -0.07947000 0.07900000
v -0.15208100 -0.07947000 0.07900000
v -0.14003300 -0.07945900 0.07900000
v -0.14003300 -0.07945900 0.07900000
v -0.14003300 -0.07945900 0.07900000
v -0.15279100 -0.08007600 0.07900000
v -0.15117300 -0.07925200 0.07900000
v -0.15117300 -0.07925200 0.07900000
v -0.10537100 -0.07925200 0.07900000
v -0.10583400 -0.07974400 0.07680000
v -0.14040000 -0.07978600 0.07680000
v -0.13988300 -0.07945300 0.07709900
v 0.08059200 -0.06602900 0.07710400
v 0.08062300 -0.07512900 0.07710000
v 0.08033100 -0.07527500 0.07680000
v 0.07996000 -0.06233600 0.07900000
v 0.08059200 -0.06602900 0.07710400
v 0.08005300 -0.06253500 0.07713900
v 0.07881400 -0.05914900 0.07711600
v 0.08060000 -0.06720200 0.07900000
v 0.07808200 -0.05780200 0.07900000
v 0.07743200 -0.05675700 0.07710000
v 0.07581400 -0.05462100 0.07709600
v 0.07509400 -0.05390800 0.07900000
v 0.07120000 -0.05092000 0.07900000
v 0.07372700 -0.05266900 0.07710000
v 0.07147400 -0.05105400 0.07711700
v 0.06666600 -0.04904200 0.07900000
v 0.06899500 -0.04983300 0.07710000
v 0.06624400 -0.04890600 0.07710100
v 0.06180000 -0.04840200 0.07900000
v 0.06291000 -0.04840300 0.07710000
v 0.08059200 -0.06602900 0.07710400
v 0.08061500 -0.07498500 0.07900000
v 0.08062300 -0.07512900 0.07710000
v 0.08060000 -0.06720200 0.07900000
v 0.08062300 -0.07512900 0.07710000
v 0.08061500 -0.07498500 0.07900000
v 0.08128000 -0.07682200 0.07900000
v 0.08247200 -0.07829800 0.07899800
v 0.08273100 -0.07851500 0.07712500
v 0.08129700 -0.07685200 0.07710000
v 0.08437200 -0.07925200 0.07900000
v 0.08581700 -0.07945200 0.07900000
v 0.08507300 -0.07944700 0.07710000
v 0.14003000 -0.07945600 0.07900000
v 0.13988300 -0.07945200 0.07710000
v 0.08581700 -0.07945200 0.07900000
v 0.14079500 -0.08044800 0.07900000
v 0.14079600 -0.08056200 0.07709600
v 0.14041600 -0.07977800 0.07679900
v 0.14003000 -0.07945600 0.07900000
v 0.14079500 -0.08044800 0.07900000
v 0.14075700 -0.08568000 0.07900000
v 0.14079200 -0.08549200 0.07709700
v 0.13979500 -0.08640200 0.07900000
v 0.13968800 -0.08640100 0.07708900
v 0.14033000 -0.08610700 0.07680000
v 0.14075700 -0.08568000 0.07900000
v -0.14079400 -0.08540600 0.07900000
v -0.14079500 -0.08529100 0.07709600
v -0.14039900 -0.08611600 0.07680000
v -0.14079400 -0.08540600 0.07900000
v -0.14078800 -0.08043500 0.07900000
v -0.14079700 -0.08056900 0.07709800
v -0.14078800 -0.08043500 0.07900000
v -0.14003300 -0.07945900 0.07900000
v -0.14040000 -0.07978600 0.07680000
v -0.14079700 -0.08056900 0.07709800
v -0.10606200 -0.07944400 0.07710000
v -0.10537100 -0.07925200 0.07900000
v -0.10373000 -0.07851400 0.07712500
v -0.10681600 -0.07945200 0.07900000
v -0.10229600 -0.07685200 0.07710000
v -0.10227900 -0.07682200 0.07900000
v -0.10162200 -0.07512800 0.07710700
v -0.10347100 -0.07829800 0.07900000
v -0.10161500 -0.07498500 0.07900000
v -0.10159100 -0.06602800 0.07710700
v -0.10162200 -0.07512800 0.07710700
v -0.10160000 -0.06720200 0.07900000
v -0.08766500 -0.04904200 0.07900000
v -0.08390600 -0.04840200 0.07710000
v -0.08739400 -0.04895900 0.07698900
v -0.09083800 -0.05018200 0.07708500
v -0.08280000 -0.04840200 0.07900000
v -0.09220000 -0.05092000 0.07900000
v -0.09324400 -0.05157000 0.07710000
v -0.09537700 -0.05318500 0.07713000
v -0.09609300 -0.05390800 0.07900000
v -0.09908100 -0.05780200 0.07900000
v -0.09733200 -0.05527500 0.07710000
v -0.09894400 -0.05752500 0.07709900
v -0.10095900 -0.06233600 0.07900000
v -0.10016900 -0.06000700 0.07710000
v -0.10108800 -0.06271800 0.07713400
v -0.10160000 -0.06720200 0.07900000
v -0.10159100 -0.06602800 0.07710700
v 0.06180000 -0.04840200 0.07900000
v 0.06180000 -0.04840200 0.07900000
v 0.06291000 -0.04840300 0.07710000
v -0.08390600 -0.04840200 0.07710000
v -0.08390600 -0.04840200 0.07710000
v -0.14002400 -0.08640100 0.07900000
v -0.13988200 -0.08640100 0.07709300
v -0.13988200 -0.08640100 0.07709300
v 0.13979500 -0.08640200 0.07900000
v 0.13979500 -0.08640200 0.07900000
v 0.13968800 -0.08640100 0.07708900
v -0.14525900 -0.08575200 0.08300000
v 0.14526000 -0.08575200 0.08300000
v 0.15173900 -0.07925200 0.08300000
v -0.15168500 -0.07925200 0.08300000
v 0.08484200 -0.07974700 0.07680000
v 0.08484200 -0.07974700 0.07680000
v 0.14041600 -0.07977800 0.07679900
v 0.14033000 -0.08610700 0.07680000
v 0.06767300 -0.07955600 0.07680000
v 0.06767300 -0.07955600 0.07680000
v -0.14039900 -0.08611600 0.07680000
v -0.14039900 -0.08611600 0.07680000
v -0.10583400 -0.07974400 0.07680000
v -0.10583400 -0.07974400 0.07680000
v -0.08867300 -0.07955600 0.07680000
v -0.14040000 -0.07978600 0.07680000
v 0.07128400 -0.07886700 0.07680000
v 0.07128400 -0.07886700 0.07680000
v 0.08305000 -0.07901500 0.07680000
v 0.08305000 -0.07901500 0.07680000
v 0.08135300 -0.07754200 0.07680000
v 0.08135300 -0.07754200 0.07680000
v 0.08033100 -0.07527500 0.07680000
v 0.07748300 -0.06974600 0.07680000
v 0.07748300 -0.06974600 0.07680000
v 0.08021100 -0.06475000 0.07680000
v 0.08021100 -0.06475000 0.07680000
v 0.08021100 -0.06475000 0.07680000
v 0.07461000 -0.07668300 0.07680000
v 0.07679500 -0.07335700 0.07680000
v 0.07748300 -0.06742200 0.07680000
v 0.07653400 -0.06244200 0.07680000
v 0.07653400 -0.06244200 0.07680000
v 0.07653400 -0.06244200 0.07680000
v 0.07922800 -0.06095500 0.07680000
v 0.07922800 -0.06095500 0.07680000
v 0.07352100 -0.05785600 0.07680000
v 0.07775500 -0.05777300 0.07680000
v 0.06893500 -0.05484400 0.07680000
v 0.07563100 -0.05488400 0.07680000
v 0.07563100 -0.05488400 0.07680000
v 0.07206400 -0.05168900 0.07680000
v 0.07206400 -0.05168900 0.07680000
v 0.06395600 -0.05389400 0.07680000
v 0.06395600 -0.05389400 0.07680000
v 0.06395600 -0.05389400 0.07680000
v 0.06395600 -0.05389400 0.07680000
v 0.06701600 -0.04940900 0.07680000
v 0.06701600 -0.04940900 0.07680000
v 0.06299300 -0.04870300 0.07680000
v 0.06299300 -0.04870300 0.07680000
v -0.10405000 -0.07901500 0.07680000
v -0.10405000 -0.07901500 0.07680000
v -0.09228400 -0.07886700 0.07680000
v -0.09228400 -0.07886700 0.07680000
v -0.10134800 -0.07532000 0.07680000
v -0.09779500 -0.07335700 0.07680000
v -0.09561000 -0.07668300 0.07680000
v -0.10235800 -0.07754900 0.07680000
v -0.10235800 -0.07754900 0.07680000
v -0.10124700 -0.06491100 0.07680000
v -0.09848300 -0.06742200 0.07680000
v -0.09848300 -0.06974600 0.07680000
v -0.09753400 -0.06244200 0.07680000
v -0.09753400 -0.06244200 0.07680000
v -0.09753400 -0.06244200 0.07680000
v -0.10023400 -0.06097400 0.07680000
v -0.10023400 -0.06097400 0.07680000
v -0.08739400 -0.04895900 0.07698900
v -0.08399900 -0.04870400 0.07680000
v -0.09074100 -0.05044700 0.07680000
v -0.08495600 -0.05389400 0.07680000
v -0.08495600 -0.05389400 0.07680000
v -0.08993500 -0.05484400 0.07680000
v -0.08993500 -0.05484400 0.07680000
v -0.09526900 -0.05341300 0.07680000
v -0.09526900 -0.05341300 0.07680000
v -0.09870100 -0.05767000 0.07680000
v -0.09870100 -0.05767000 0.07680000
v -0.09870100 -0.05767000 0.07680000
v -0.09452100 -0.05785600 0.07680000
v -0.09452100 -0.05785600 0.07680000
v 0.07012200 -0.07925200 0.07904000
v 0.07383000 -0.07744400 0.07900800
v 0.07173800 -0.07870300 0.07905100
v 0.07651400 -0.07406600 0.07904400
v 0.07551000 -0.07567600 0.07900500
v 0.07743400 -0.07131400 0.07901100
v 0.06467900 -0.05389400 0.07904400
v 0.06467900 -0.05389400 0.07904400
v 0.06549100 -0.05391800 0.07900000
v -0.08661000 -0.05391300 0.07900000
v -0.08661000 -0.05391300 0.07900000
v -0.09236500 -0.05607400 0.07904400
v -0.08996200 -0.05481000 0.07900700
v -0.09456500 -0.05782800 0.07901200
v -0.09666400 -0.06053800 0.07901100
v -0.09845200 -0.06592400 0.07901300
v -0.09783000 -0.06320800 0.07904400
v 0.07120000 -0.05092000 0.07900000
v 0.06549100 -0.05391800 0.07900000
v 0.06549100 -0.05391800 0.07900000
v 0.07509400 -0.05390800 0.07900000
v 0.06909700 -0.05483300 0.07902100
v 0.07208400 -0.05656800 0.07900900
v 0.07808200 -0.05780200 0.07900000
v 0.06180000 -0.04840200 0.07900000
v -0.08280000 -0.04840200 0.07900000
v -0.08280000 -0.04840200 0.07900000
v 0.06666600 -0.04904200 0.07900000
v 0.07580300 -0.06083700 0.07900600
v 0.07996000 -0.06233600 0.07900000
v 0.07696600 -0.06356800 0.07900700
v 0.08060000 -0.06720200 0.07900000
v 0.07422600 -0.05855200 0.07901800
v -0.08766500 -0.04904200 0.07900000
v -0.09220000 -0.05092000 0.07900000
v -0.08661000 -0.05391300 0.07900000
v -0.08661000 -0.05391300 0.07900000
v -0.08996200 -0.05481000 0.07900700
v -0.09609300 -0.05390800 0.07900000
v -0.09609300 -0.05390800 0.07900000
v -0.09456500 -0.05782800 0.07901200
v -0.09908100 -0.05780200 0.07900000
v -0.09666400 -0.06053800 0.07901100
v -0.10095900 -0.06233600 0.07900000
v -0.09845200 -0.06592400 0.07901300
v -0.10160000 -0.06720200 0.07900000
v 0.07743400 -0.07131400 0.07901100
v 0.08061500 -0.07498500 0.07900000
v 0.08061500 -0.07498500 0.07900000
v 0.07551000 -0.07567600 0.07900500
v 0.07551000 -0.07567600 0.07900500
v 0.07551000 -0.07567600 0.07900500
v 0.07383000 -0.07744400 0.07900800
v 0.07383000 -0.07744400 0.07900800
v 0.08128000 -0.07682200 0.07900000
v 0.08128000 -0.07682200 0.07900000
v 0.08128000 -0.07682200 0.07900000
v 0.08247200 -0.07829800 0.07899800
v 0.07012200 -0.07925200 0.07904000
v 0.08437200 -0.07925200 0.07900000
v -0.10161500 -0.07498500 0.07900000
v -0.09712500 -0.07478600 0.07900900
v -0.09798700 -0.07288300 0.07900900
v -0.09846300 -0.07084200 0.07901000
v -0.10537100 -0.07925200 0.07900000
v -0.09110800 -0.07925200 0.07904100
v -0.09435500 -0.07777300 0.07900400
v -0.09435500 -0.07777300 0.07900400
v -0.10227900 -0.07682200 0.07900000
v -0.10227900 -0.07682200 0.07900000
v -0.10347100 -0.07829800 0.07900000
v -0.10347100 -0.07829800 0.07900000
v 0.15173900 -0.07925200 0.08300000
v 0.15117400 -0.07925200 0.07900000
v 0.08437200 -0.07925200 0.07900000
v 0.07012200 -0.07925200 0.07904000
v 0.07012200 -0.07925200 0.07904000
v -0.15168500 -0.07925200 0.08300000
v -0.15168500 -0.07925200 0.08300000
v -0.10537100 -0.07925200 0.07900000
v -0.15117300 -0.07925200 0.07900000
v -0.09110800 -0.07925200 0.07904100
v -0.14040000 -0.07978600 0.07680000
v 0.14033000 -0.08610700 0.07680000
v -0.10606200 -0.07944400 0.07710000
v 0.08062300 -0.07512900 0.07710000
v -0.10134800 -0.07532000 0.07680000
v -0.08399900 -0.04870400 0.07680000
v -0.08739400 -0.04895900 0.07698900
v -0.08390600 -0.04840200 0.07710000
v -0.09537700 -0.05318500 0.07713000
v -0.09083800 -0.05018200 0.07708500
v -0.09894400 -0.05752500 0.07709900
v -0.10159100 -0.06602800 0.07710700
v 0.08059200 -0.06602900 0.07710400
v 0.07147400 -0.05105400 0.07711700
v 0.06291000 -0.04840300 0.07710000
v -0.08399900 -0.04870400 0.07680000
v -0.14793000 -0.08725100 0.07900000
v -0.14125900 -0.08575200 0.08500000
v 0.15297700 -0.08223400 0.07900000
v -0.14793000 -0.08725100 0.07900000
v -0.10681600 -0.07945200 0.07900000
v -0.10606200 -0.07944400 0.07710000
v 0.08021100 -0.06475000 0.07680000
v 0.08507300 -0.07944700 0.07710000
v 0.13988300 -0.07945200 0.07710000
v 0.14079600 -0.08056200 0.07709600
v 0.14079200 -0.08549200 0.07709700
v -0.14002400 -0.08640100 0.07900000
v -0.13988200 -0.08640100 0.07709300
v -0.14079500 -0.08529100 0.07709600
v -0.13988300 -0.07945300 0.07709900
v -0.14003300 -0.07945900 0.07900000
v -0.10681600 -0.07945200 0.07900000
v -0.13988300 -0.07945300 0.07709900
v -0.10606200 -0.07944400 0.07710000
v -0.10161500 -0.07498500 0.07900000
v -0.08280000 -0.04840200 0.07900000
v 0.07743400 -0.07131400 0.07901100
v 0.07696600 -0.06356800 0.07900700
v 0.07746800 -0.06627800 0.07904400
v -0.08549300 -0.05389400 0.07904400
vn -0.73190000 -0.68140000 -0.00000000
vn -0.85880000 -0.51240000 -0.00010000
vn -0.57770000 -0.81620000 -0.00000000
vn -0.57780000 -0.81620000 0.00000000
vn -0.40740000 -0.91320000 0.00000000
vn -0.24840000 -0.96870000 0.00000000
vn -0.00000000 -0.70710000 -0.70710000
vn -0.00000000 -0.70710000 -0.70710000
vn 0.00000000 -0.70720000 -0.70710000
vn 0.00000000 -0.70720000 -0.70710000
vn -0.00000000 -0.70710000 -0.70710000
vn 0.00000000 -0.70720000 -0.70710000
vn -0.70710000 0.00000000 -0.70710000
vn -0.70710000 0.00000000 -0.70710000
vn -0.70710000 0.00000000 -0.70710000
vn 0.70710000 0.00000000 -0.70710000
vn 0.70710000 0.00000000 -0.70710000
vn 0.70710000 0.00000000 -0.70710000
vn 0.00000000 0.70710000 -0.70710000
vn 0.00000000 0.70710000 -0.70710000
vn 0.00000000 0.70710000 -0.70710000
vn 0.00000000 0.70710000 -0.70710000
vn -0.69730000 0.11830000 -0.70690000
vn -0.69510000 0.13780000 -0.70560000
vn -0.61240000 0.35360000 -0.70710000
vn -0.57040000 0.42200000 -0.70470000
vn -0.41540000 0.57700000 -0.70320000
vn -0.35350000 0.61240000 -0.70710000
vn -0.12180000 0.69720000 -0.70650000
vn 0.09840000 0.70100000 -0.70630000
vn 0.12090000 0.69740000 -0.70640000
vn 0.41520000 0.57710000 -0.70320000
vn 0.57110000 0.42110000 -0.70460000
vn 0.35350000 0.61240000 -0.70710000
vn 0.61240000 0.35360000 -0.70710000
vn 0.69530000 0.13120000 -0.70670000
vn -0.70710000 0.00000000 -0.70710000
vn -0.70710000 0.00000000 -0.70710000
vn -0.70710000 0.00000000 -0.70710000
vn -0.30330000 0.63970000 -0.70630000
vn -0.47540000 0.52580000 -0.70530000
vn -0.39290000 0.58790000 -0.70710000
vn -0.60710000 0.36400000 -0.70630000
vn -0.54660000 0.44860000 -0.70710000
vn -0.66620000 0.23780000 -0.70680000
vn -0.70230000 0.08730000 -0.70650000
vn -0.68700000 0.16820000 -0.70690000
vn -0.65330000 0.27060000 -0.70710000
vn 0.70140000 0.09340000 -0.70660000
vn 0.66580000 0.23880000 -0.70690000
vn 0.68550000 0.17510000 -0.70670000
vn 0.60930000 0.36010000 -0.70650000
vn 0.63920000 0.30270000 -0.70690000
vn 0.52830000 0.47060000 -0.70670000
vn 0.58800000 0.39280000 -0.70710000
vn 0.39120000 0.59130000 -0.70520000
vn 0.19900000 0.67940000 -0.70630000
vn 0.27060000 0.65330000 -0.70710000
vn 0.04550000 0.70570000 -0.70700000
vn 0.16710000 0.68770000 -0.70650000
vn 0.44860000 0.54660000 -0.70710000
vn 0.52680000 0.47270000 -0.70640000
vn 0.00000000 0.70720000 -0.70700000
vn 0.00000000 0.70710000 -0.70710000
vn 0.00000000 0.70720000 -0.70700000
vn 0.00000000 0.70710000 -0.70710000
vn 0.00000000 0.70720000 -0.70700000
vn -0.00000000 -1.00000000 0.00000000
vn -0.00000000 -1.00000000 0.00000000
vn -0.00000000 -1.00000000 0.00000000
vn -0.00000000 -1.00000000 0.00000000
vn -0.00000000 -1.00000000 0.00000000
vn -0.00000000 -1.00000000 0.00000000
vn -0.00000000 -1.00000000 0.00000000
vn 0.00000000 1.00000000 -0.00000000
vn 0.00000000 1.00000000 0.00010000
vn 0.00000000 1.00000000 -0.00000000
vn 0.00000000 1.00000000 0.00010000
vn 0.00000000 1.00000000 -0.00000000
vn 0.00000000 1.00000000 0.00010000
vn 0.00000000 1.00000000 -0.00000000
vn 0.00000000 1.00000000 -0.00000000
vn 0.00000000 1.00000000 -0.00000000
vn 0.00000000 0.00000000 1.00000000
vn 0.00000000 0.00000000 1.00000000
vn 0.00000000 0.00000000 1.00000000
vn -0.50000000 -0.50000000 0.70710000
vn -0.50000000 -0.50000000 0.70710000
vn -0.50000000 -0.50000000 0.70710000
vn -0.50000000 -0.50000000 0.70710000
vn -0.49990000 -0.50010000 0.70710000
vn -0.50000000 -0.50000000 0.70710000
vn -0.49990000 -0.50010000 0.70710000
vn -0.50000000 -0.50000000 0.70710000
vn -0.49990000 -0.50010000 0.70710000
vn -0.50000000 -0.50000000 0.70710000
vn -0.50000000 -0.50000000 0.70710000
vn 0.50000000 -0.50000000 0.70700000
vn 0.50000000 -0.50000000 0.70710000
vn 0.50000000 -0.50000000 0.70700000
vn 0.49990000 -0.50010000 0.70710000
vn 0.50000000 -0.50000000 0.70710000
vn 0.49990000 -0.50010000 0.70710000
vn 0.50000000 -0.50000000 0.70710000
vn 0.50000000 -0.50000000 0.70710000
vn 0.49990000 -0.50010000 0.70710000
vn 0.50000000 -0.50000000 0.70700000
vn 0.50000000 -0.50000000 0.70710000
vn 0.50000000 -0.50000000 0.70710000
vn 0.91150000 -0.41130000 0.00000000
vn 0.88060000 -0.47390000 0.00000000
vn 0.98770000 0.15650000 0.00000000
vn 0.96590000 0.25890000 0.00000000
vn 0.80900000 0.58780000 -0.00000000
vn 0.67940000 0.73380000 -0.00000000
vn 0.45400000 0.89100000 -0.00000000
vn 0.00000000 1.00000000 -0.00000000
vn 0.27110000 0.96260000 0.00000000
vn 0.70710000 -0.70710000 -0.00000000
vn 0.70710000 -0.70710000 -0.00000000
vn 0.70710000 -0.70710000 -0.00000000
vn -0.24680000 0.96910000 -0.00000000
vn 0.00000000 1.00000000 -0.00000000
vn -0.45400000 0.89100000 0.00000000
vn -0.67940000 0.73380000 0.00000000
vn -0.80900000 0.58780000 -0.00000000
vn -0.96590000 0.25880000 0.00000000
vn -0.87370000 -0.48650000 0.00000000
vn -0.91640000 -0.40030000 -0.00000000
vn -0.98770000 0.15640000 -0.00000000
vn -0.70710000 -0.70710000 -0.00000000
vn -0.70710000 -0.70710000 -0.00000000
vn -0.70710000 -0.70710000 -0.00000000
vn 0.00000000 0.00000000 1.00000000
vn 0.00000000 0.00000000 1.00000000
vn 0.35660000 -0.35660000 0.86350000
vn 0.35000000 -0.35000000 0.86890000
vn -0.35000000 -0.35000000 0.86890000
vn -0.35660000 -0.35660000 0.86350000
vn 0.00000000 0.00000000 1.00000000
vn 0.00000000 0.00000000 1.00000000
vn -0.00000000 -0.00010000 -1.00000000
vn 0.00000000 -0.00000000 -1.00000000
vn 0.00000000 -0.00030000 -1.00000000
vn 0.00000000 -0.00030000 -1.00000000
vn 0.00000000 -0.00000000 -1.00000000
vn 0.00000000 -0.00030000 -1.00000000
vn -0.00000000 -0.00010000 -1.00000000
vn -0.00000000 0.00010000 -1.00000000
vn 0.00000000 -0.00000000 -1.00000000
vn 0.00000000 -0.00000000 -1.00000000
vn 0.00000000 -0.00000000 -1.00000000
vn 0.00000000 -0.00000000 -1.00000000
vn -0.00000000 0.00010000 -1.00000000
vn 0.00000000 -0.00000000 -1.00000000
vn 0.00000000 -0.00000000 -1.00000000
vn -0.00000000 0.00010000 -1.00000000
vn 0.00000000 -0.00000000 -1.00000000
vn 0.00000000 -0.00000000 -1.00000000
vn 0.00000000 -0.00030000 -1.00000000
vn -0.00000000 0.00010000 -1.00000000
vn -0.00000000 -0.00010000 -1.00000000
vn 0.00000000 -0.00000000 -1.00000000
vn 0.00000000 -0.00000000 -1.00000000
vn 0.00000000 -0.00000000 -1.00000000
vn -0.00000000 0.00010000 -1.00000000
vn -0.00000000 0.00010000 -1.00000000
vn 0.00000000 -0.00000000 -1.00000000
vn 0.00000000 -0.00000000 -1.00000000
vn -0.00000000 0.00010000 -1.00000000
vn 0.00000000 -0.00000000 -1.00000000
vn 0.00000000 -0.00000000 -1.00000000
vn 0.00000000 -0.00030000 -1.00000000
vn -0.00000000 0.00010000 -1.00000000
vn 0.00000000 -0.00000000 -1.00000000
vn -0.00000000 0.00010000 -1.00000000
vn 0.00000000 -0.00030000 -1.00000000
vn 0.00000000 -0.00000000 -1.00000000
vn 0.00000000 -0.00000000 -1.00000000
vn 0.00000000 -0.00000000 -1.00000000
vn -0.00000000 0.00010000 -1.00000000
vn 0.00000000 -0.00000000 -1.00000000
vn 0.00000000 0.70710000 -0.70710000
vn 0.00000000 0.70710000 -0.70710000
vn 0.00000000 0.70710000 -0.70710000
vn 0.70710000 0.00000000 -0.70710000
vn 0.70710000 0.00000000 -0.70710000
vn 0.70710000 0.00000000 -0.70710000
vn 0.96590000 0.25880000 -0.00000000
vn 0.99810000 0.06230000 -0.00000000
vn 0.96880000 0.24770000 -0.00000000
vn 0.90390000 0.42780000 -0.00000000
vn 1.00000000 -0.00000000 -0.00000000
vn 0.86600000 0.50000000 0.00000000
vn 0.83150000 0.55560000 0.00000000
vn 0.74410000 0.66800000 0.00000000
vn 0.70710000 0.70710000 0.00000000
vn 0.50000000 0.86600000 0.00000000
vn 0.63440000 0.77300000 -0.00000000
vn 0.51390000 0.85780000 -0.00000000
vn 0.25880000 0.96590000 0.00000000
vn 0.38270000 0.92390000 0.00000000
vn 0.23600000 0.97180000 -0.00000000
vn 0.00000000 1.00000000 -0.00000000
vn 0.05900000 0.99830000 0.00000000
vn 1.00000000 -0.00000000 -0.00000000
vn 1.00000000 -0.00000000 -0.00000000
vn 1.00000000 -0.00000000 -0.00000000
vn 1.00000000 -0.00000000 -0.00000000
vn 0.98580000 0.16800000 0.00000000
vn 0.99000000 0.14110000 -0.00000000
vn 0.86930000 0.49430000 -0.00000000
vn 0.63530000 0.77230000 0.00000000
vn 0.58400000 0.81170000 -0.00000000
vn 0.86600000 0.50000000 0.00000000
vn 0.27470000 0.96150000 -0.00000000
vn -0.00320000 1.00000000 0.00000000
vn 0.13960000 0.99020000 -0.00000000
vn 0.00000000 1.00000000 -0.00000000
vn 0.00000000 1.00000000 -0.00000000
vn 0.00000000 1.00000000 -0.00000000
vn 0.97300000 0.23100000 0.00000000
vn 0.98940000 0.14520000 0.00000000
vn 0.69200000 0.72190000 -0.00000000
vn 0.39180000 0.92010000 0.00000000
vn 1.00000000 -0.00000000 -0.00000000
vn 1.00000000 -0.00000000 -0.00000000
vn 1.00000000 -0.00000000 -0.00000000
vn 0.22350000 -0.97470000 0.00000000
vn 0.14370000 -0.98960000 0.00000000
vn 0.63250000 -0.77450000 -0.00000000
vn 0.90320000 -0.42920000 -0.00000000
vn -0.97300000 -0.23100000 0.00000000
vn -0.98940000 -0.14510000 -0.00000000
vn -0.67100000 -0.74150000 -0.00000000
vn -1.00000000 0.00000000 -0.00000000
vn -1.00000000 0.00000000 -0.00000000
vn -1.00000000 0.00000000 -0.00000000
vn -0.97060000 0.24080000 -0.00000000
vn -0.39260000 0.91970000 -0.00000000
vn -0.69070000 0.72310000 -0.00000000
vn -0.99020000 0.13980000 0.00000000
vn -0.14160000 0.98990000 0.00000000
vn -0.27470000 0.96150000 0.00000000
vn -0.58420000 0.81160000 0.00000000
vn 0.00320000 1.00000000 0.00000000
vn -0.86600000 0.50000000 0.00000000
vn -0.86930000 0.49430000 -0.00000000
vn -0.98580000 0.16780000 0.00000000
vn -0.63540000 0.77220000 -0.00000000
vn -1.00000000 0.00000000 -0.00000000
vn -1.00000000 0.00000000 -0.00000000
vn -1.00000000 0.00000000 -0.00000000
vn -1.00000000 0.00000000 -0.00000000
vn -0.25880000 0.96590000 0.00000000
vn -0.05880000 0.99830000 0.00000000
vn -0.24420000 0.96970000 0.00000000
vn -0.42710000 0.90420000 -0.00000000
vn 0.00000000 1.00000000 -0.00000000
vn -0.50000000 0.86600000 0.00000000
vn -0.55560000 0.83150000 -0.00000000
vn -0.66790000 0.74430000 -0.00000000
vn -0.70710000 0.70710000 -0.00000000
vn -0.86600000 0.50000000 0.00000000
vn -0.77300000 0.63440000 -0.00000000
vn -0.85770000 0.51410000 -0.00000000
vn -0.96590000 0.25880000 0.00000000
vn -0.92390000 0.38270000 0.00000000
vn -0.97120000 0.23810000 0.00000000
vn -1.00000000 0.00000000 -0.00000000
vn -0.99810000 0.06240000 0.00000000
vn 0.00000000 1.00000000 -0.00000000
vn 0.00000000 1.00000000 -0.00020000
vn 0.00000000 1.00000000 -0.00000000
vn 0.00000000 1.00000000 -0.00020000
vn 0.00000000 1.00000000 -0.00000000
vn 0.00000000 -1.00000000 -0.00020000
vn 0.00000000 -1.00000000 -0.00020000
vn 0.00000000 -1.00000000 -0.00040000
vn 0.00000000 -1.00000000 -0.00040000
vn 0.00000000 -1.00000000 -0.00020000
vn 0.00000000 -1.00000000 -0.00040000
vn 0.00000000 0.00000000 1.00000000
vn 0.00000000 0.00000000 1.00000000
vn 0.00000000 0.00000000 1.00000000
vn 0.00000000 0.00000000 1.00000000
vn -0.00000000 -0.00010000 -1.00000000
vn 0.00000000 -0.00000000 -1.00000000
vn -0.00000000 -0.00010000 -1.00000000
vn -0.00000000 -0.00010000 -1.00000000
vn -0.00000000 -0.00010000 -1.00000000
vn 0.00000000 -0.00000000 -1.00000000
vn 0.00000000 -0.00000000 -1.00000000
vn -0.00000000 -0.00010000 -1.00000000
vn 0.00000000 -0.00000000 -1.00000000
vn -0.00000000 -0.00010000 -1.00000000
vn 0.00000000 -0.00000000 -1.00000000
vn -0.00000000 -0.00010000 -1.00000000
vn -0.00000000 0.00010000 -1.00000000
vn 0.00000000 -0.00000000 -1.00000000
vn 0.00000000 -0.00000000 -1.00000000
vn -0.00000000 0.00010000 -1.00000000
vn 0.00000000 -0.00000000 -1.00000000
vn -0.00000000 0.00010000 -1.00000000
vn 0.00000000 -0.00000000 -1.00000000
vn 0.00000000 -0.00000000 -1.00000000
vn -0.00010000 0.00000000 -1.00000000
vn 0.00000000 -0.00000000 -1.00000000
vn -0.00000000 0.00010000 -1.00000000
vn -0.00010000 0.00000000 -1.00000000
vn 0.00000000 -0.00000000 -1.00000000
vn 0.00000000 -0.00000000 -1.00000000
vn -0.00010000 0.00000000 -1.00000000
vn 0.00000000 -0.00000000 -1.00000000
vn -0.00010000 0.00000000 -1.00000000
vn -0.00000000 0.00010000 -1.00000000
vn -0.00000000 0.00010000 -1.00000000
vn 0.00000000 -0.00000000 -1.00000000
vn 0.00000000 -0.00000000 -1.00000000
vn 0.00000000 -0.00000000 -1.00000000
vn 0.00000000 -0.00000000 -1.00000000
vn -0.00000000 -0.00010000 -1.00000000
vn 0.00000000 -0.00000000 -1.00000000
vn -0.00010000 0.00010000 -1.00000000
vn -0.00000000 -0.00010000 -1.00000000
vn 0.00000000 -0.00000000 -1.00000000
vn -0.00010000 0.00010000 -1.00000000
vn 0.00010000 0.00000000 -1.00000000
vn -0.00000000 -0.00010000 -1.00000000
vn -0.00010000 0.00010000 -1.00000000
vn 0.00010000 0.00000000 -1.00000000
vn 0.00000000 -0.00000000 -1.00000000
vn 0.00010000 0.00000000 -1.00000000
vn 0.00000000 -0.00000000 -1.00000000
vn -0.00000000 0.00010000 -1.00000000
vn -0.00000000 0.00010000 -1.00000000
vn 0.00000000 -0.00000000 -1.00000000
vn 0.00000000 -0.00000000 -1.00000000
vn 0.00000000 -0.00000000 -1.00000000
vn 0.00000000 -0.00000000 -1.00000000
vn -0.00000000 0.00010000 -1.00000000
vn 0.00000000 -0.00000000 -1.00000000
vn 0.00000000 -0.00000000 -1.00000000
vn 0.00000000 -0.00000000 -1.00000000
vn 0.00000000 -0.00000000 -1.00000000
vn 0.00010000 0.00000000 -1.00000000
vn 0.00000000 -0.00000000 -1.00000000
vn -0.00000000 -0.00010000 -1.00000000
vn 0.00000000 -0.00000000 -1.00000000
vn -0.00000000 -0.00010000 -1.00000000
vn 0.00000000 -0.00000000 -1.00000000
vn 0.00000000 -0.00000000 -1.00000000
vn 0.00000000 -0.00000000 -1.00000000
vn 0.00000000 -0.00000000 -1.00000000
vn -0.00000000 -0.00010000 -1.00000000
vn 0.00000000 -0.00000000 -1.00000000
vn -0.00000000 -0.00010000 -1.00000000
vn 0.00000000 -0.00000000 -1.00000000
vn -0.00000000 -0.00010000 -1.00000000
vn -0.00000000 -0.00010000 -1.00000000
vn 0.00010000 0.00000000 -1.00000000
vn 0.00000000 -0.00000000 -1.00000000
vn -0.00000000 -0.00010000 -1.00000000
vn 0.00010000 0.00000000 -1.00000000
vn 0.24980000 -0.96830000 0.00000000
vn 0.62460000 -0.78100000 -0.00000000
vn 0.41310000 -0.91070000 -0.00000000
vn 0.89860000 -0.43880000 0.00000000
vn 0.79720000 -0.60370000 0.00000000
vn 0.98710000 -0.15980000 0.00000000
vn -0.00000000 1.00000000 0.00020000
vn 0.00000000 1.00000000 -0.00000000
vn -0.00000000 1.00000000 0.00020000
vn 0.00000000 1.00000000 -0.00000000
vn -0.00000000 1.00000000 0.00020000
vn -0.54680000 0.83730000 -0.00000000
vn -0.36880000 0.92950000 0.00000000
vn -0.70780000 0.70650000 -0.00000000
vn -0.86210000 0.50680000 0.00000000
vn -0.99380000 0.11100000 0.00010000
vn -0.95040000 0.31110000 0.00010000
vn 0.00000000 0.00000000 1.00000000
vn 0.00000000 0.00000000 1.00000000
vn -0.00000000 0.00010000 1.00000000
vn 0.00000000 0.00000000 1.00000000
vn 0.00000000 0.00000000 1.00000000
vn 0.00000000 0.00000000 1.00000000
vn 0.00000000 0.00000000 1.00000000
vn 0.00000000 0.00000000 1.00000000
vn -0.00000000 0.00010000 1.00000000
vn 0.00000000 0.00000000 1.00000000
vn 0.00000000 0.00000000 1.00000000
vn 0.00000000 0.00000000 1.00000000
vn 0.00000000 0.00000000 1.00000000
vn 0.00000000 0.00000000 1.00000000
vn 0.00000000 0.00000000 1.00000000
vn 0.00000000 0.00000000 1.00000000
vn -0.00000000 0.00010000 1.00000000
vn -0.00000000 0.00010000 1.00000000
vn -0.00000000 0.00010000 1.00000000
vn 0.00000000 0.00000000 1.00000000
vn 0.00000000 0.00000000 1.00000000
vn -0.00000000 0.00010000 1.00000000
vn 0.00000000 0.00000000 1.00000000
vn 0.00000000 0.00000000 1.00000000
vn 0.00000000 0.00000000 1.00000000
vn 0.00000000 0.00000000 1.00000000
vn 0.00000000 0.00000000 1.00000000
vn 0.00000000 0.00000000 1.00000000
vn 0.00000000 0.00000000 1.00000000
vn 0.00000000 0.00000000 1.00000000
vn -0.00010000 -0.00000000 1.00000000
vn 0.00000000 0.00000000 1.00000000
vn -0.00010000 -0.00000000 1.00000000
vn 0.00000000 0.00000000 1.00000000
vn 0.00010000 0.00000000 1.00000000
vn 0.00000000 0.00000000 1.00000000
vn 0.00010000 0.00000000 1.00000000
vn -0.00010000 -0.00000000 1.00000000
vn 0.00000000 0.00000000 1.00000000
vn 0.00010000 0.00000000 1.00000000
vn 0.00000000 0.00000000 1.00000000
vn 0.00000000 0.00000000 1.00000000
vn 0.00000000 0.00000000 1.00000000
vn 0.00000000 0.00000000 1.00000000
vn 0.00000000 0.00000000 1.00000000
vn 0.00000000 0.00000000 1.00000000
vn 0.00000000 0.00000000 1.00000000
vn 0.00000000 0.00000000 1.00000000
vn 0.00000000 0.00000000 1.00000000
vn -0.00010000 0.00010000 1.00000000
vn 0.00000000 0.00000000 1.00000000
vn 0.00000000 0.00000000 1.00000000
vn -0.00010000 0.00010000 1.00000000
vn -0.00010000 0.00010000 1.00000000
vn 0.00000000 0.00000000 1.00000000
vn -0.00000000 1.00000000 0.00020000
vn -0.00000000 1.00000000 0.00020000
vn -0.00000000 1.00000000 0.00020000
vn -0.00000000 1.00000000 0.00020000
vn 0.00000000 1.00000000 0.00010000
vn 0.00000000 1.00000000 0.00010000
vn -0.00000000 1.00000000 0.00020000
vn 0.00000000 1.00000000 0.00010000
vn 0.00000000 1.00000000 0.00010000
vn 0.00000000 1.00000000 0.00010000
vn -0.70710000 0.00000000 -0.70710000
vn 0.70710000 0.00000000 -0.70710000
vn -0.09970000 0.70080000 -0.70640000
vn 0.69730000 0.11850000 -0.70700000
vn -0.70710000 0.00000000 -0.70710000
vn -0.04570000 0.70570000 -0.70700000
vn -0.17290000 0.68660000 -0.70620000
vn -0.04150000 0.70590000 -0.70710000
vn -0.47230000 0.52660000 -0.70690000
vn -0.30220000 0.63980000 -0.70660000
vn -0.60690000 0.36370000 -0.70670000
vn -0.70570000 0.04410000 -0.70710000
vn 0.70580000 0.04410000 -0.70710000
vn 0.36340000 0.60690000 -0.70680000
vn 0.04170000 0.70590000 -0.70710000
vn 0.00000000 0.70710000 -0.70710000
vn -0.00000000 -1.00000000 0.00000000
vn 0.00000000 0.00000000 1.00000000
vn 0.70710000 -0.70710000 -0.00000000
vn -0.70710000 -0.70710000 -0.00000000
vn 0.00000000 -0.00000000 -1.00000000
vn 0.00000000 0.70710000 -0.70710000
vn 0.70710000 0.00000000 -0.70710000
vn 0.00000000 1.00000000 -0.00000000
vn 0.28530000 0.95850000 0.00000000
vn 1.00000000 -0.00000000 -0.00000000
vn 0.95620000 -0.29260000 0.00000000
vn -0.38860000 -0.92140000 -0.00000000
vn -0.28510000 -0.95850000 -0.00000000
vn -1.00000000 0.00000000 -0.00000000
vn -0.28590000 0.95830000 -0.00000000
vn 0.00000000 1.00000000 -0.00000000
vn 0.00000000 1.00000000 -0.00000000
vn 0.00000000 1.00000000 -0.00000000
vn 0.00000000 1.00000000 -0.00000000
vn -0.99000000 0.14110000 0.00000000
vn 0.00000000 1.00000000 -0.00020000
vn 1.00000000 0.00010000 -0.00010000
vn 1.00000000 -0.00000000 -0.00000000
vn 1.00000000 0.00000000 -0.00010000
vn 0.00000000 1.00000000 -0.00000000
vt 0.24373600 0.46937100
vt 0.24151400 0.46925900
vt 0.24589300 0.46926900
vt 0.24589300 0.46926900
vt 0.24798200 0.46937900
vt 0.24985000 0.46929300
vt 0.31409400 0.46510500
vt 0.63950700 0.46509100
vt 0.63950700 0.46509100
vt 0.31334600 0.46583200
vt 0.31334600 0.46583200
vt 0.64010900 0.46580800
vt 0.62951600 0.46596800
vt 0.63047500 0.46509600
vt 0.63597200 0.46509100
vt 0.64472300 0.46595100
vt 0.64563600 0.46509600
vt 0.65137400 0.46510000
vt 0.66059700 0.46586800
vt 0.72528300 0.46582900
vt 0.66121700 0.46508800
vt 0.72501400 0.46508100
vt 0.64283100 0.47762500
vt 0.64286300 0.47837700
vt 0.64324600 0.47756300
vt 0.64337800 0.47830100
vt 0.64373700 0.47751600
vt 0.64385500 0.47831100
vt 0.64426400 0.47839600
vt 0.64462500 0.47761700
vt 0.64466300 0.47839700
vt 0.64519100 0.47751500
vt 0.64555300 0.47830000
vt 0.64507400 0.47831100
vt 0.64568300 0.47756300
vt 0.64607700 0.47838500
vt 0.64560700 0.46537300
vt 0.65620000 0.46533400
vt 0.65750000 0.46452200
vt 0.72708600 0.51074700
vt 0.73412300 0.51074300
vt 0.73060900 0.51149800
vt 0.74123900 0.51074700
vt 0.73769800 0.51149800
vt 0.74598600 0.51075000
vt 0.75127100 0.51081900
vt 0.74846000 0.51156900
vt 0.74478800 0.51149800
vt 0.68180000 0.51080900
vt 0.68690700 0.51075000
vt 0.68463900 0.51157600
vt 0.69146700 0.51074800
vt 0.68926500 0.51153600
vt 0.69613400 0.51075000
vt 0.69279800 0.51149800
vt 0.70235900 0.51074300
vt 0.70956900 0.51074700
vt 0.70697700 0.51149800
vt 0.71488300 0.51079100
vt 0.71068800 0.51149100
vt 0.69988700 0.51149800
vt 0.69622100 0.51148500
vt 0.35991300 0.46533500
vt 0.35991300 0.46533500
vt 0.53080400 0.46533500
vt 0.53090000 0.46458600
vt 0.53090000 0.46458600
vt 0.64080800 0.46712700
vt 0.64202500 0.46719400
vt 0.64199000 0.98931500
vt 0.64751900 0.97740700
vt 0.64779200 0.48162600
vt 0.64751900 0.47903200
vt 0.64779200 0.97481300
vt 0.64380700 0.46415100
vt 0.64380700 0.46415100
vt 0.97596600 0.46415100
vt 0.97596600 0.46415100
vt 0.64546400 0.46458700
vt 0.64546400 0.46458700
vt 0.97896600 0.46105900
vt 0.64080800 0.46105900
vt 0.97431000 0.46458700
vt 0.64080800 0.96248800
vt 0.64080800 0.46930100
vt 0.64255400 0.46665500
vt 0.62545200 0.45460600
vt 0.62090100 0.45017100
vt 0.62333100 0.45014600
vt 0.62645600 0.46205200
vt 0.62645600 0.46205200
vt 0.63635000 0.45691000
vt 0.63635000 0.45691000
vt 0.63604000 0.45959700
vt 0.63604000 0.45959700
vt 0.63490500 0.46200700
vt 0.63609000 0.45454100
vt 0.65519300 0.46197900
vt 0.65519300 0.46197900
vt 0.64557600 0.45959700
vt 0.64557600 0.45959700
vt 0.64557600 0.45959700
vt 0.64548100 0.45458900
vt 0.64548100 0.45458900
vt 0.65616300 0.45460600
vt 0.64526600 0.45691000
vt 0.64673400 0.46204700
vt 0.65828400 0.45014600
vt 0.66071500 0.45017100
vt 0.64212800 0.46708300
vt 0.64205500 0.46529600
vt 0.64281900 0.46529300
vt 0.64294100 0.46882200
vt 0.64336700 0.46529300
vt 0.64359500 0.47072200
vt 0.64391600 0.46529300
vt 0.64446400 0.46529300
vt 0.64414500 0.47235200
vt 0.63995000 0.48332000
vt 0.64840800 0.48337100
vt 0.64837700 0.48152600
vt 0.64475400 0.47235200
vt 0.64446400 0.46529300
vt 0.64501300 0.46529300
vt 0.64533400 0.47072200
vt 0.64556100 0.46529300
vt 0.64598800 0.46882200
vt 0.64689100 0.46529600
vt 0.64678500 0.46711100
vt 0.64611000 0.46529300
vt 0.63324000 0.48331800
vt 0.64168900 0.48334700
vt 0.64145200 0.48152600
vt 0.64263600 0.46895400
vt 0.64263600 0.46521100
vt 0.64325600 0.46704800
vt 0.64324200 0.47073000
vt 0.64203100 0.47072900
vt 0.64201600 0.46704800
vt 0.64263600 0.46895400
vt 0.64263600 0.46521100
vt 0.54024000 0.21793200
vt 0.54024000 0.21793200
vt 0.54024000 0.21793200
vt 0.53925100 0.20349400
vt 0.53925100 0.20349400
vt 0.53925200 0.72559700
vt 0.53925200 0.72559700
vt 0.53925200 0.72559700
vt 0.53925200 0.72559700
vt 0.54108000 0.21623500
vt 0.54509100 0.19467400
vt 0.54505700 0.73448700
vt 0.54139900 0.71300700
vt 0.54139900 0.71300700
vt 0.54717000 0.21616800
vt 0.54717000 0.21616800
vt 0.54659900 0.73480600
vt 0.54718500 0.71299600
vt 0.54718500 0.71299600
vt 0.54024100 0.71164700
vt 0.54024100 0.71164700
vt 0.54760300 0.19500000
vt 0.54659900 0.19436900
vt 0.54832400 0.21751700
vt 0.54832400 0.21751700
vt 0.54830900 0.19625200
vt 0.54830900 0.19625200
vt 0.54856200 0.19785400
vt 0.54856200 0.19785400
vt 0.54833000 0.31317100
vt 0.54856200 0.31572100
vt 0.54830900 0.73292200
vt 0.54830900 0.73292200
vt 0.54830900 0.73292200
vt 0.54832100 0.71166300
vt 0.54832100 0.71166300
vt 0.54832100 0.71166300
vt 0.54760300 0.73417500
vt 0.54856200 0.73132000
vt 0.54856200 0.73132000
vt 0.54856200 0.65050600
vt 0.94722600 0.46582600
vt 0.98746000 0.46587800
vt 0.98685800 0.46508900
vt 0.62541700 0.46533100
vt 0.63600900 0.46536200
vt 0.63617800 0.46462600
vt 0.64294100 0.46827500
vt 0.64270900 0.46493100
vt 0.64292700 0.46499400
vt 0.64315100 0.46495000
vt 0.64263600 0.46827500
vt 0.64324600 0.46827500
vt 0.64332200 0.46492300
vt 0.64348800 0.46491700
vt 0.64355000 0.46827500
vt 0.64385500 0.46827500
vt 0.64366500 0.46492300
vt 0.64383600 0.46495500
vt 0.64416000 0.46827500
vt 0.64400700 0.46492300
vt 0.64418700 0.46492700
vt 0.64446400 0.46827500
vt 0.64439600 0.46492400
vt 0.64217300 0.65709200
vt 0.63174800 0.66043700
vt 0.63158000 0.65708500
vt 0.64080800 0.66043700
vt 0.64283100 0.46492600
vt 0.64280000 0.46827500
vt 0.64323800 0.46827500
vt 0.64366300 0.46827200
vt 0.64373800 0.46497000
vt 0.64324600 0.46492300
vt 0.64414100 0.46827500
vt 0.64446800 0.46827500
vt 0.64430300 0.46492200
vt 0.64019100 0.66043700
vt 0.64036200 0.65708400
vt 0.70329400 0.66043700
vt 0.64290300 0.46827500
vt 0.64280500 0.46491600
vt 0.64359000 0.46439500
vt 0.64402100 0.46827200
vt 0.51160600 0.47279900
vt 0.51160600 0.46356700
vt 0.51382100 0.46389800
vt 0.64472200 0.46827400
vt 0.64463100 0.46490200
vt 0.64526700 0.46439500
vt 0.64579900 0.46827400
vt 0.64290300 0.46827500
vt 0.64280500 0.46491600
vt 0.64362600 0.46439600
vt 0.77000900 0.45637600
vt 0.77000900 0.46514600
vt 0.76779600 0.46490900
vt 0.64601400 0.46827500
vt 0.64491000 0.46827100
vt 0.64533700 0.46439500
vt 0.64613100 0.46491900
vt 0.64462900 0.46492200
vt 0.64478800 0.46827500
vt 0.64519100 0.46497000
vt 0.64446100 0.46827500
vt 0.64568300 0.46492300
vt 0.64569100 0.46827500
vt 0.64609800 0.46493800
vt 0.64526600 0.46827500
vt 0.77000900 0.46329400
vt 0.76780600 0.47909700
vt 0.76780600 0.46304100
vt 0.77000900 0.47702600
vt 0.64476900 0.46827500
vt 0.64453300 0.46492400
vt 0.64475200 0.46473000
vt 0.64497800 0.46489700
vt 0.64446400 0.46827500
vt 0.64507400 0.46827500
vt 0.64515000 0.46492300
vt 0.64531600 0.46497700
vt 0.64537900 0.46827500
vt 0.64568300 0.46827500
vt 0.64549300 0.46492300
vt 0.64566400 0.46492200
vt 0.64598800 0.46827500
vt 0.64583600 0.46492300
vt 0.64601300 0.46498500
vt 0.64629300 0.46827500
vt 0.64622000 0.46493600
vt 0.47249600 0.66043700
vt 0.47249600 0.66043700
vt 0.47120400 0.65708500
vt 0.64209500 0.65708500
vt 0.64209500 0.65708500
vt 0.77000900 0.91014400
vt 0.76779000 0.90989400
vt 0.76779000 0.90989400
vt 0.77000900 0.41642900
vt 0.77000900 0.41642900
vt 0.76778400 0.41661800
vt 0.64080800 0.98865200
vt 0.64080800 0.47605600
vt 0.64837300 0.46462400
vt 0.64837300 0.99998900
vt 0.64593500 0.10316200
vt 0.64593500 0.10316200
vt 0.64589900 0.00510700
vt 0.63853100 0.00525800
vt 0.64615700 0.13345500
vt 0.64615700 0.13345500
vt 0.63852200 0.50058100
vt 0.63852200 0.50058100
vt 0.64593800 0.43959400
vt 0.64593800 0.43959400
vt 0.64615700 0.40931400
vt 0.64588900 0.50058200
vt 0.64695900 0.12708400
vt 0.64695900 0.12708400
vt 0.64678700 0.10632300
vt 0.64678700 0.10632300
vt 0.64850100 0.10931800
vt 0.64850100 0.10931800
vt 0.65114000 0.11112200
vt 0.65757600 0.11614600
vt 0.65757600 0.11614600
vt 0.66339100 0.11133200
vt 0.66339100 0.11133200
vt 0.66339100 0.11133200
vt 0.64950200 0.12121600
vt 0.65337300 0.11736100
vt 0.66028100 0.11614600
vt 0.66607700 0.11782200
vt 0.66607700 0.11782200
vt 0.66607700 0.11782200
vt 0.66780800 0.11306800
vt 0.66780800 0.11306800
vt 0.67141500 0.12313700
vt 0.67151100 0.11566700
vt 0.67492100 0.13122900
vt 0.67487500 0.11941400
vt 0.67487500 0.11941400
vt 0.67859400 0.12570800
vt 0.67859400 0.12570800
vt 0.67602700 0.14001500
vt 0.67602700 0.14001500
vt 0.67602700 0.14001500
vt 0.67602700 0.14001500
vt 0.68124800 0.13461400
vt 0.68124800 0.13461400
vt 0.68207000 0.14171300
vt 0.68207000 0.14171300
vt 0.64678700 0.43644500
vt 0.64678700 0.43644500
vt 0.64695900 0.41568600
vt 0.64695900 0.41568600
vt 0.65108800 0.43167700
vt 0.65337300 0.42540900
vt 0.64950200 0.42155400
vt 0.64849300 0.43346100
vt 0.64849300 0.43346100
vt 0.66320400 0.43149900
vt 0.66028100 0.42662400
vt 0.65757600 0.42662400
vt 0.66607700 0.42494800
vt 0.66607700 0.42494800
vt 0.66607700 0.42494800
vt 0.66778600 0.42971300
vt 0.66778600 0.42971300
vt 0.68177200 0.40705800
vt 0.68206800 0.40106800
vt 0.68003900 0.41296200
vt 0.67602700 0.40275500
vt 0.67602700 0.40275500
vt 0.67492100 0.41154100
vt 0.67492100 0.41154100
vt 0.67658700 0.42095200
vt 0.67658700 0.42095200
vt 0.67163200 0.42700700
vt 0.67163200 0.42700700
vt 0.67163200 0.42700700
vt 0.67141500 0.41963300
vt 0.67141500 0.41963300
vt 0.00003800 0.46926200
vt 0.00458900 0.46926200
vt 0.00195000 0.46938700
vt 0.00924900 0.46936100
vt 0.00720700 0.46925200
vt 0.01249700 0.46925700
vt 0.04019500 0.46935100
vt 0.04019500 0.46935100
vt 0.03927900 0.46927500
vt 0.21072000 0.46926900
vt 0.21072000 0.46926900
vt 0.21783000 0.46935900
vt 0.21488800 0.46918000
vt 0.22084000 0.46927500
vt 0.22451800 0.46930100
vt 0.23093100 0.46929000
vt 0.22773300 0.46933600
vt 0.62185700 0.44800200
vt 0.62534600 0.45807600
vt 0.62534600 0.45807600
vt 0.62533400 0.44113200
vt 0.62641100 0.45171300
vt 0.62843100 0.44644300
vt 0.62986600 0.43586000
vt 0.61892500 0.46458700
vt 0.61892500 0.71972100
vt 0.61892500 0.71972100
vt 0.61967100 0.45600200
vt 0.63339900 0.43988200
vt 0.63514400 0.43254700
vt 0.63657800 0.43782800
vt 0.64080800 0.43141600
vt 0.63073900 0.44266300
vt 0.61967100 0.72830700
vt 0.62185700 0.73630700
vt 0.62534000 0.72644400
vt 0.62534000 0.72644400
vt 0.62638400 0.73235900
vt 0.62533400 0.74317700
vt 0.62533400 0.74317700
vt 0.62989700 0.74048000
vt 0.62986600 0.74844800
vt 0.63305200 0.74418400
vt 0.63514400 0.75176200
vt 0.63932100 0.74733900
vt 0.64080800 0.75289200
vt 0.64559500 0.43700200
vt 0.64986700 0.43139000
vt 0.64986700 0.43139000
vt 0.65067100 0.44039900
vt 0.65067100 0.44039900
vt 0.65067100 0.44039900
vt 0.65272900 0.44336200
vt 0.65272900 0.44336200
vt 0.65200500 0.43021700
vt 0.65200500 0.43021700
vt 0.65200500 0.43021700
vt 0.65372400 0.42811400
vt 0.65483300 0.44990500
vt 0.65483400 0.42476200
vt 0.64986700 0.75291900
vt 0.64963500 0.74499700
vt 0.64742100 0.74651800
vt 0.64504400 0.74735900
vt 0.65483400 0.75954700
vt 0.65483300 0.73438100
vt 0.65311200 0.74011000
vt 0.65311200 0.74011000
vt 0.65200500 0.75409200
vt 0.65200500 0.75409200
vt 0.65372300 0.75619400
vt 0.65372300 0.75619400
vt 0.64741600 0.46458800
vt 0.64807400 0.45753000
vt 0.72583000 0.45753000
vt 0.74241700 0.45760100
vt 0.74241700 0.45760100
vt 1.00059500 0.46458800
vt 1.00059500 0.46458800
vt 0.94668700 0.45753000
vt 1.00000000 0.45753000
vt 0.93008500 0.45760300
vt 0.63688300 0.46595300
vt 0.65209100 0.46605800
vt 0.64430100 0.47761600
vt 0.64609800 0.47763400
vt 0.64538400 0.46464700
vt 0.71798500 0.51079000
vt 0.72236900 0.51131900
vt 0.71784400 0.51153000
vt 0.73402800 0.51156300
vt 0.72705100 0.51147300
vt 0.74124300 0.51149100
vt 0.75274000 0.51153800
vt 0.68011900 0.51153400
vt 0.70344300 0.51153000
vt 0.71501100 0.51153000
vt 0.35980500 0.46458500
vt 0.64080800 0.98922900
vt 0.64255400 0.96513500
vt 0.64013300 0.48152600
vt 0.63320100 0.48152500
vt 0.54833000 0.65305600
vt 0.94749200 0.46507800
vt 0.62392800 0.46447500
vt 0.70415900 0.65708400
vt 0.64413700 0.46492300
vt 0.51382200 0.47259700
vt 0.64595600 0.46491800
vt 0.64402500 0.46827100
vt 0.64413700 0.46491200
vt 0.76779400 0.45657800
vt 0.64479200 0.46492300
vt 0.51160600 0.52322400
vt 0.51160600 0.46461700
vt 0.51381800 0.52296000
vt 0.51381800 0.46328700
vt 0.64612900 0.46827500
vt 0.64080800 0.66043700
vt 0.01267100 0.46931300
vt 0.02140000 0.46876500
vt 0.01834800 0.46933200
vt 0.20946100 0.46935100
f 1/1/1 2/2/2 3/3/3
f 5/5/5 4/4/4 6/6/6
f 7/7/7 8/8/8 11/11/11
f 10/10/10 9/9/9 12/12/12
f 13/13/13 14/14/14 15/15/15
f 16/16/16 17/17/17 18/18/18
f 19/19/19 20/20/20 21/21/21
f 22/22/22 21/21/21 20/20/20
f 23/23/23 24/24/24 25/25/25
f 26/26/26 27/27/27 25/25/25
f 27/27/27 28/28/28 29/29/29
f 30/30/30 31/31/31 32/32/32
f 33/33/33 32/32/32 34/34/34
f 35/35/35 33/33/33 36/36/36
f 37/37/37 38/38/38 39/39/39
f 40/40/40 41/41/41 42/42/42
f 41/41/41 43/43/43 44/44/44
f 45/45/45 46/46/46 47/47/47
f 43/43/43 45/45/45 48/48/48
f 49/49/49 50/50/50 51/51/51
f 50/50/50 52/52/52 53/53/53
f 52/52/52 54/54/54 55/55/55
f 50/50/50 53/53/53 51/51/51
f 56/56/56 57/57/57 58/58/58
f 57/57/57 59/59/59 60/60/60
f 61/61/61 62/62/62 56/56/56
f 63/63/63 65/65/65 67/67/67
f 70/70/70 463/463/463 69/69/69
f 70/70/70 69/69/69 71/71/71
f 72/72/72 71/71/71 73/73/73
f 74/74/74 71/71/71 72/72/72
f 69/69/69 73/73/73 71/71/71
f 76/76/76 78/78/78 80/80/80
f 81/81/81 75/75/75 82/82/82
f 77/77/77 83/83/83 79/79/79
f 81/81/81 77/77/77 75/75/75
f 84/84/84 85/85/85 86/86/86
f 87/87/87 88/88/88 89/89/89
f 90/90/90 88/88/88 87/87/87
f 87/87/87 97/97/97 90/90/90
f 95/95/95 91/91/91 93/93/93
f 96/96/96 90/90/90 94/94/94
f 104/104/104 105/105/105 99/99/99
f 106/106/106 103/103/103 101/101/101
f 98/98/98 107/107/107 100/100/100
f 105/105/105 108/108/108 109/109/109
f 109/109/109 99/99/99 105/105/105
f 110/110/110 111/111/111 112/112/112
f 110/110/110 112/112/112 113/113/113
f 114/114/114 115/115/115 113/113/113
f 112/112/112 114/114/114 113/113/113
f 116/116/116 115/115/115 114/114/114
f 117/117/117 118/118/118 116/116/116
f 118/118/118 115/115/115 116/116/116
f 121/121/121 465/465/465 120/120/120
f 122/122/122 123/123/123 124/124/124
f 125/125/125 124/124/124 126/126/126
f 122/122/122 124/124/124 125/125/125
f 125/125/125 126/126/126 127/127/127
f 128/128/128 129/129/129 130/130/130
f 130/130/130 129/129/129 127/127/127
f 126/126/126 130/130/130 127/127/127
f 131/131/131 132/132/132 133/133/133
f 134/134/134 135/135/135 136/136/136
f 137/137/137 134/134/134 136/136/136
f 138/138/138 139/139/139 140/140/140
f 141/141/141 140/140/140 139/139/139
f 144/144/144 145/145/145 147/147/147
f 143/143/143 151/151/151 146/146/146
f 151/151/151 156/156/156 146/146/146
f 153/153/153 159/159/159 150/150/150
f 158/158/158 159/159/159 153/153/153
f 161/161/161 149/149/149 154/154/154
f 156/156/156 163/163/163 164/164/164
f 166/166/166 167/167/167 157/157/157
f 166/166/166 170/170/170 167/167/167
f 165/165/165 171/171/171 172/172/172
f 172/172/172 169/169/169 165/165/165
f 177/177/177 160/160/160 173/173/173
f 158/158/158 179/179/179 159/159/159
f 178/178/178 180/180/180 182/182/182
f 181/181/181 176/176/176 174/174/174
f 164/164/164 152/152/152 156/156/156
f 183/183/183 184/184/184 185/185/185
f 186/186/186 187/187/187 188/188/188
f 189/189/189 190/190/190 191/191/191
f 189/189/189 191/191/191 192/192/192
f 189/189/189 193/193/193 190/190/190
f 194/194/194 189/189/189 192/192/192
f 194/194/194 195/195/195 196/196/196
f 197/197/197 194/194/194 196/196/196
f 192/192/192 195/195/195 194/194/194
f 198/198/198 199/199/199 200/200/200
f 201/201/201 202/202/202 203/203/203
f 198/198/198 200/200/200 202/202/202
f 198/198/198 197/197/197 199/199/199
f 201/201/201 198/198/198 202/202/202
f 204/204/204 201/201/201 205/205/205
f 196/196/196 199/199/199 197/197/197
f 206/206/206 209/209/209 208/208/208
f 212/212/212 215/215/215 210/210/210
f 215/215/215 212/212/212 213/213/213
f 214/214/214 213/213/213 216/216/216
f 216/216/216 217/217/217 218/218/218
f 219/219/219 220/220/220 221/221/221
f 222/222/222 223/223/223 224/224/224
f 225/225/225 222/222/222 224/224/224
f 228/228/228 472/472/472 226/226/226
f 229/229/229 230/230/230 231/231/231
f 232/232/232 229/229/229 231/231/231
f 233/233/233 234/234/234 235/235/235
f 238/238/238 476/476/476 236/236/236
f 239/239/239 240/240/240 241/241/241
f 239/239/239 241/241/241 242/242/242
f 243/243/243 244/244/244 245/245/245
f 243/243/243 246/246/246 244/244/244
f 248/248/248 482/482/482 249/249/249
f 247/247/247 245/245/245 250/250/250
f 251/251/251 254/254/254 253/253/253
f 255/255/255 256/256/256 257/257/257
f 255/255/255 257/257/257 258/258/258
f 255/255/255 259/259/259 256/256/256
f 260/260/260 255/255/255 258/258/258
f 260/260/260 261/261/261 262/262/262
f 263/263/263 260/260/260 262/262/262
f 258/258/258 261/261/261 260/260/260
f 264/264/264 265/265/265 266/266/266
f 267/267/267 268/268/268 269/269/269
f 264/264/264 266/266/266 268/268/268
f 264/264/264 263/263/263 265/265/265
f 267/267/267 264/264/264 268/268/268
f 270/270/270 267/267/267 271/271/271
f 262/262/262 265/265/265 263/263/263
f 272/272/272 274/274/274 276/276/276
f 277/277/277 278/278/278 281/281/281
f 279/279/279 282/282/282 280/280/280
f 283/283/283 284/284/284 285/285/285
f 286/286/286 283/283/283 285/285/285
f 287/287/287 289/289/289 290/290/290
f 291/291/291 290/290/290 294/294/294
f 290/290/290 291/291/291 287/287/287
f 295/295/295 297/297/297 293/293/293
f 294/294/294 298/298/298 296/296/296
f 300/300/300 301/301/301 288/288/288
f 299/299/299 304/304/304 302/302/302
f 305/305/305 306/306/306 308/308/308
f 311/311/311 305/305/305 303/303/303
f 305/305/305 311/311/311 312/312/312
f 288/288/288 292/292/292 300/300/300
f 303/303/303 300/300/300 311/311/311
f 307/307/307 313/313/313 310/310/310
f 305/305/305 312/312/312 306/306/306
f 315/315/315 310/310/310 313/313/313
f 316/316/316 317/317/317 309/309/309
f 319/319/319 320/320/320 314/314/314
f 321/321/321 323/323/323 320/320/320
f 319/319/319 321/321/321 320/320/320
f 325/325/325 322/322/322 329/329/329
f 326/326/326 323/323/323 321/321/321
f 327/327/327 330/330/330 324/324/324
f 333/333/333 331/331/331 328/328/328
f 295/295/295 334/334/334 337/337/337
f 338/338/338 339/339/339 340/340/340
f 297/297/297 292/292/292 293/293/293
f 342/342/342 340/340/340 337/337/337
f 343/343/343 344/344/344 345/345/345
f 344/344/344 343/343/343 347/347/347
f 338/338/338 345/345/345 339/339/339
f 343/343/343 349/349/349 347/347/347
f 340/340/340 342/342/342 338/338/338
f 336/336/336 335/335/335 341/341/341
f 343/343/343 345/345/345 338/338/338
f 297/297/297 295/295/295 337/337/337
f 351/351/351 352/352/352 353/353/353
f 354/354/354 353/353/353 352/352/352
f 357/357/357 359/359/359 355/355/355
f 352/352/352 326/326/326 354/354/354
f 360/360/360 357/357/357 363/363/363
f 364/364/364 346/346/346 361/361/361
f 358/358/358 356/356/356 362/362/362
f 358/358/358 353/353/353 354/354/354
f 352/352/352 332/332/332 326/326/326
f 365/365/365 366/366/366 367/367/367
f 368/368/368 369/369/369 370/370/370
f 371/371/371 373/373/373 375/375/375
f 376/376/376 377/377/377 378/378/378
f 379/379/379 380/380/380 381/381/381
f 382/382/382 383/383/383 385/385/385
f 386/386/386 387/387/387 385/385/385
f 387/387/387 397/397/397 385/385/385
f 382/382/382 392/392/392 383/383/383
f 391/391/391 383/383/383 389/389/389
f 386/386/386 385/385/385 383/383/383
f 388/388/388 393/393/393 394/394/394
f 394/394/394 393/393/393 395/395/395
f 394/394/394 395/395/395 396/396/396
f 388/388/388 397/397/397 393/393/393
f 399/399/399 400/400/400 398/398/398
f 384/384/384 390/390/390 400/400/400
f 402/402/402 401/401/401 404/404/404
f 399/399/399 403/403/403 400/400/400
f 405/405/405 402/402/402 406/406/406
f 406/406/406 402/402/402 404/404/404
f 406/406/406 407/407/407 405/405/405
f 408/408/408 409/409/409 407/407/407
f 406/406/406 408/408/408 407/407/407
f 410/410/410 409/409/409 408/408/408
f 396/396/396 395/395/395 411/411/411
f 411/411/411 413/413/413 396/396/396
f 415/415/415 413/413/413 411/411/411
f 416/416/416 418/418/418 421/421/421
f 414/414/414 419/419/419 412/412/412
f 420/420/420 417/417/417 422/422/422
f 423/423/423 424/424/424 422/422/422
f 423/423/423 422/422/422 417/417/417
f 425/425/425 426/426/426 427/427/427
f 410/410/410 425/425/425 428/428/428
f 410/410/410 428/428/428 409/409/409
f 427/427/427 428/428/428 425/425/425
f 429/429/429 430/430/430 432/432/432
f 432/432/432 426/426/426 433/433/433
f 426/426/426 425/425/425 433/433/433
f 434/434/434 435/435/435 431/431/431
f 436/436/436 429/429/429 432/432/432
f 437/437/437 438/438/438 439/439/439
f 439/439/439 440/440/440 437/437/437
f 440/440/440 443/443/443 437/437/437
f 442/442/442 444/444/444 445/445/445
f 444/444/444 442/442/442 446/446/446
f 446/446/446 442/442/442 441/441/441
f 13/13/13 15/15/15 447/447/447
f 16/16/16 18/18/18 448/448/448
f 24/24/24 26/26/26 25/25/25
f 27/27/27 29/29/29 449/449/449
f 28/28/28 27/27/27 26/26/26
f 31/31/31 34/34/34 32/32/32
f 35/35/35 36/36/36 450/450/450
f 35/35/35 32/32/32 33/33/33
f 37/37/37 39/39/39 451/451/451
f 452/452/452 453/453/453 454/454/454
f 41/41/41 455/455/455 42/42/42
f 40/40/40 42/42/42 456/456/456
f 40/40/40 456/456/456 453/453/453
f 41/41/41 44/44/44 455/455/455
f 43/43/43 457/457/457 44/44/44
f 45/45/45 47/47/47 48/48/48
f 46/46/46 458/458/458 47/47/47
f 43/43/43 48/48/48 457/457/457
f 49/49/49 51/51/51 459/459/459
f 54/54/54 62/62/62 55/55/55
f 52/52/52 55/55/55 53/53/53
f 56/56/56 460/460/460 61/61/61
f 56/56/56 58/58/58 460/460/460
f 59/59/59 461/461/461 60/60/60
f 57/57/57 60/60/60 58/58/58
f 62/62/62 54/54/54 56/56/56
f 64/64/64 66/66/66 462/462/462
f 84/84/84 86/86/86 464/464/464
f 131/131/131 133/133/133 466/466/466
f 142/142/142 148/148/148 162/162/162
f 178/178/178 182/182/182 467/467/467
f 183/183/183 185/185/185 468/468/468
f 186/186/186 188/188/188 469/469/469
f 201/201/201 203/203/203 205/205/205
f 214/214/214 216/216/216 218/218/218
f 220/220/220 470/470/470 221/221/221
f 225/225/225 224/224/224 471/471/471
f 232/232/232 231/231/231 473/473/473
f 235/235/235 474/474/474 233/233/233
f 474/474/474 235/235/235 475/475/475
f 240/240/240 477/477/477 241/241/241
f 478/478/478 479/479/479 480/480/480
f 481/481/481 480/480/480 479/479/479
f 244/244/244 250/250/250 245/245/245
f 267/267/267 269/269/269 271/271/271
f 273/273/273 275/275/275 483/483/483
f 484/484/484 485/485/485 486/486/486
f 372/372/372 374/374/374 487/487/487
f 463/463/463 68/68/68 69/69/69
f 97/97/97 92/92/92 90/90/90
f 104/104/104 99/99/99 102/102/102
f 465/465/465 119/119/119 120/120/120
f 156/156/156 152/152/152 146/146/146
f 159/159/159 155/155/155 150/150/150
f 168/168/168 163/163/163 156/156/156
f 159/159/159 179/179/179 175/175/175
f 209/209/209 207/207/207 208/208/208
f 212/212/212 210/210/210 211/211/211
f 215/215/215 213/213/213 214/214/214
f 228/228/228 226/226/226 227/227/227
f 238/238/238 236/236/236 237/237/237
f 248/248/248 249/249/249 247/247/247
f 247/247/247 250/250/250 248/248/248
f 254/254/254 252/252/252 253/253/253
f 320/320/320 318/318/318 314/314/314
f 348/348/348 350/350/350 360/360/360
f 397/397/397 388/388/388 385/385/385
f 392/392/392 389/389/389 383/383/383
f 400/400/400 390/390/390 398/398/398

