mtllib material.mtl
usemtl Material-塑胶__2_.003
v 0.06123700 0.11008900 0.02250200
v 0.06105300 0.11012600 0.02431600
v 0.06339800 0.11012400 0.02328400
v 0.05963800 0.10982500 0.02523000
v 0.06105300 0.11012600 0.02431600
v 0.05964200 0.10993600 0.02290200
v 0.05875400 0.10943400 0.02137000
v 0.06108700 0.10984100 0.02094700
v 0.05814200 0.10940000 0.02454000
v 0.06124200 0.10914800 0.02838900
v 0.06137900 0.10995000 0.02611300
v 0.05934500 0.10938300 0.02668600
v 0.06370400 0.11007200 0.02215500
v 0.06095000 0.10914800 0.01908800
v 0.06304600 0.10973700 0.02041200
v 0.06338000 0.10912800 0.01894800
v 0.05750700 0.10913600 0.02269600
v 0.06315200 0.10977300 0.02672700
v 0.06355400 0.11006700 0.02494700
v 0.06339800 0.11012400 0.02328400
v 0.06105300 0.11012600 0.02431600
v 0.06512600 0.10987100 0.02393400
v 0.06489000 0.10971500 0.02577200
v 0.06315200 0.10977300 0.02672700
v 0.06602200 0.10943400 0.02202100
v 0.06370400 0.11007200 0.02215500
v 0.06516500 0.10938600 0.02061800
v 0.06556300 0.10913300 0.02700600
v 0.06383300 0.10912800 0.02818400
v 0.06695600 0.10913100 0.02463100
v 0.06338000 0.10912800 0.01894800
v 0.06304600 0.10973700 0.02041200
v 0.06124200 0.10914800 0.02838900
v 0.06640000 0.10913000 0.02098600
v 0.05473000 0.10877600 0.02261100
v 0.05473000 0.10877600 0.02261100
v 0.05473000 0.10877600 0.02261100
v 0.09888000 0.10877600 0.02000800
v 0.09973100 0.10877600 0.02278800
v 0.09302400 0.10877600 0.01616900
v 0.09302400 0.10877600 0.01616900
v 0.09643000 0.10882900 0.01732000
v 0.06062000 0.10877700 0.01617100
v 0.06062000 0.10877700 0.01617100
v 0.06062000 0.10877700 0.01617100
v 0.05601400 0.10877600 0.01949500
v 0.05601400 0.10877600 0.01949500
v 0.05737000 0.10877600 0.01792400
v 0.09313500 0.10877600 0.03115700
v 0.09952200 0.10877600 0.02576700
v 0.09815600 0.10877600 0.02833800
v 0.09595500 0.10877500 0.03024700
v 0.06149300 0.10877600 0.03115900
v 0.05537400 0.10877600 0.02700000
v 0.05836800 0.10877100 0.03018300
v 0.09976400 0.10911800 0.02298200
v 0.09944400 0.10912600 0.02597500
v 0.09952200 0.10877600 0.02576700
v 0.09803900 0.10912600 0.02850000
v 0.09815600 0.10877600 0.02833800
v 0.09576200 0.10911800 0.03036600
v 0.09300600 0.10912600 0.03115900
v 0.09313500 0.10877600 0.03115700
v 0.09595500 0.10877500 0.03024700
v 0.06149300 0.10877600 0.03115900
v 0.09313500 0.10877600 0.03115700
v 0.09300600 0.10912600 0.03115900
v 0.06136400 0.10912600 0.03115700
v 0.05801500 0.10911700 0.02998900
v 0.05836800 0.10877100 0.03018300
v 0.05516500 0.10912000 0.02660300
v 0.05537400 0.10877600 0.02700000
v 0.05473000 0.10877600 0.02261100
v 0.05601400 0.10912600 0.01949500
v 0.05751600 0.10912500 0.01778800
v 0.05737000 0.10877600 0.01792400
v 0.05477400 0.10912200 0.02220300
v 0.05601400 0.10877600 0.01949500
v 0.06082900 0.10912600 0.01618400
v 0.06062000 0.10877700 0.01617100
v 0.06062000 0.10877700 0.01617100
v 0.06082900 0.10912600 0.01618400
v 0.09312700 0.10912600 0.01616500
v 0.09708800 0.10912600 0.01787300
v 0.09897200 0.10912600 0.02021000
v 0.09888000 0.10877600 0.02000800
v 0.09976400 0.10911800 0.02298200
v 0.09973100 0.10877600 0.02278800
v 0.09708800 0.10912600 0.01787300
v 0.09976400 0.10911800 0.02298200
v 0.09976400 0.10911800 0.02298200
v 0.09897200 0.10912600 0.02021000
v 0.09643000 0.10882900 0.01732000
v 0.09312700 0.10912600 0.01616500
v 0.09312700 0.10912600 0.01616500
v 0.06338000 0.10912800 0.01894800
v 0.06338000 0.10912800 0.01894800
v 0.09944400 0.10912600 0.02597500
v 0.09803900 0.10912600 0.02850000
v 0.09576200 0.10911800 0.03036600
v 0.09300600 0.10912600 0.03115900
v 0.09300600 0.10912600 0.03115900
v 0.06695600 0.10913100 0.02463100
v 0.06695600 0.10913100 0.02463100
v 0.06640000 0.10913000 0.02098600
v 0.06640000 0.10913000 0.02098600
v 0.06082900 0.10912600 0.01618400
v 0.06082900 0.10912600 0.01618400
v 0.06095000 0.10914800 0.01908800
v 0.05751600 0.10912500 0.01778800
v 0.05601400 0.10912600 0.01949500
v 0.05750700 0.10913600 0.02269600
v 0.05883900 0.10913500 0.02028900
v 0.05477400 0.10912200 0.02220300
v 0.05804400 0.10913100 0.02625600
v 0.06124200 0.10914800 0.02838900
v 0.05516500 0.10912000 0.02660300
v 0.06556300 0.10913300 0.02700600
v 0.05801500 0.10911700 0.02998900
v 0.05801500 0.10911700 0.02998900
v 0.06383300 0.10912800 0.02818400
v 0.06383300 0.10912800 0.02818400
v 0.06136400 0.10912600 0.03115700
v 0.06136400 0.10912600 0.03115700
v 0.05883900 0.10913500 0.02028900
v 0.05804400 0.10913100 0.02625600
v 0.06137900 0.10995000 0.02611300
v 0.09973100 0.10877600 0.02278800
v 0.06136400 0.10912600 0.03115700
v 0.06149300 0.10877600 0.03115900
v 0.09302400 0.10877600 0.01616900
v 0.09312700 0.10912600 0.01616500
v 0.09643000 0.10882900 0.01732000
v 0.09302400 0.10877600 0.01616900
vn -0.05510000 0.99670000 -0.05900000
vn -0.05180000 0.99860000 0.00590000
vn 0.06300000 0.99790000 0.01440000
vn -0.24450000 0.95860000 0.14570000
vn -0.05900000 0.99790000 0.02520000
vn -0.23140000 0.97060000 -0.06610000
vn -0.32430000 0.92180000 -0.21220000
vn -0.10780000 0.96160000 -0.25230000
vn -0.37840000 0.92240000 0.07670000
vn -0.07970000 0.92540000 0.37050000
vn -0.07890000 0.97200000 0.22150000
vn -0.26370000 0.92470000 0.27460000
vn 0.11180000 0.99110000 -0.07160000
vn -0.09880000 0.93160000 -0.34990000
vn 0.07180000 0.95010000 -0.30370000
vn 0.08970000 0.92810000 -0.36150000
vn -0.25640000 0.96540000 -0.04730000
vn 0.08200000 0.95590000 0.28200000
vn 0.08510000 0.99290000 0.08290000
vn 0.04200000 0.99890000 -0.02110000
vn -0.08260000 0.99640000 -0.01680000
vn 0.26590000 0.96370000 0.02560000
vn 0.25470000 0.94570000 0.20210000
vn 0.08730000 0.95230000 0.29260000
vn 0.35740000 0.92050000 -0.15820000
vn 0.10870000 0.98750000 -0.11450000
vn 0.27320000 0.91920000 -0.28350000
vn 0.21930000 0.94880000 0.22740000
vn 0.11270000 0.93750000 0.32930000
vn 0.34570000 0.93560000 0.07160000
vn 0.07210000 0.94770000 -0.31100000
vn 0.07760000 0.94770000 -0.30970000
vn -0.08600000 0.92610000 0.36740000
vn 0.18380000 0.97480000 -0.12610000
vn 0.00000000 -1.00000000 -0.00000000
vn -0.00010000 -1.00000000 -0.00000000
vn -0.00000000 -1.00000000 -0.00010000
vn 0.00000000 -1.00000000 -0.00000000
vn 0.00000000 -1.00000000 -0.00000000
vn 0.00000000 -1.00000000 -0.00000000
vn -0.00000000 -1.00000000 -0.00010000
vn 0.00000000 -1.00000000 -0.00000000
vn 0.00000000 -1.00000000 -0.00000000
vn -0.00010000 -1.00000000 -0.00000000
vn -0.00000000 -1.00000000 -0.00010000
vn -0.00010000 -1.00000000 -0.00000000
vn 0.00000000 -1.00000000 -0.00000000
vn 0.00000000 -1.00000000 -0.00000000
vn 0.00000000 -1.00000000 -0.00000000
vn 0.00000000 -1.00000000 -0.00000000
vn 0.00000000 -1.00000000 -0.00000000
vn 0.00000000 -1.00000000 -0.00000000
vn 0.00000000 -1.00000000 -0.00000000
vn 0.00000000 -1.00000000 -0.00000000
vn 0.00000000 -1.00000000 -0.00000000
vn 0.99600000 -0.00000000 -0.08890000
vn 0.95200000 0.00000000 0.30600000
vn 0.96070000 0.00000000 0.27770000
vn 0.76730000 -0.00000000 0.64130000
vn 0.78400000 0.00000000 0.62080000
vn 0.46390000 -0.00000000 0.88590000
vn 0.10080000 0.00000000 0.99490000
vn 0.11780000 0.00000000 0.99300000
vn 0.49040000 0.00000000 0.87150000
vn 0.00000000 -0.00000000 1.00000000
vn 0.00000000 -0.00000000 1.00000000
vn 0.00000000 -0.00000000 1.00000000
vn -0.11790000 -0.00000000 0.99300000
vn -0.55570000 -0.00000000 0.83140000
vn -0.51090000 0.00000000 0.85960000
vn -0.92350000 0.00000000 0.38350000
vn -0.89930000 0.00000000 0.43720000
vn -0.99050000 0.00010000 -0.13780000
vn -0.83150000 0.00000000 -0.55560000
vn -0.62750000 -0.00000000 -0.77860000
vn -0.64780000 0.00000000 -0.76180000
vn -0.98160000 0.00000000 -0.19100000
vn -0.83150000 0.00000000 -0.55560000
vn -0.18900000 0.00000000 -0.98200000
vn -0.21500000 0.00000000 -0.97660000
vn -0.00000000 -0.00000000 -1.00000000
vn -0.00000000 -0.00000000 -1.00000000
vn -0.00000000 -0.00000000 -1.00000000
vn 0.64130000 -0.00000000 -0.76730000
vn 0.88960000 -0.00000000 -0.45680000
vn 0.87570000 -0.00000000 -0.48280000
vn 0.99590000 -0.00000000 -0.09080000
vn 0.99320000 -0.00000000 -0.11660000
vn 0.00000000 1.00000000 -0.00000000
vn 0.00000000 1.00000000 -0.00000000
vn -0.00010000 1.00000000 0.00010000
vn 0.00000000 1.00000000 -0.00000000
vn 0.00000000 1.00000000 -0.00000000
vn 0.00000000 1.00000000 -0.00000000
vn 0.00000000 1.00000000 -0.00010000
vn 0.00000000 1.00000000 -0.00000000
vn 0.00000000 1.00000000 -0.00010000
vn 0.00000000 1.00000000 -0.00000000
vn 0.00000000 1.00000000 -0.00000000
vn 0.00000000 1.00000000 -0.00000000
vn -0.00000000 1.00000000 0.00010000
vn 0.00000000 1.00000000 -0.00000000
vn -0.00010000 1.00000000 0.00010000
vn 0.00000000 1.00000000 -0.00000000
vn -0.00010000 1.00000000 0.00010000
vn 0.00000000 1.00000000 -0.00000000
vn 0.00000000 1.00000000 -0.00010000
vn 0.00000000 1.00000000 -0.00000000
vn 0.00000000 1.00000000 -0.00000000
vn 0.00000000 1.00000000 -0.00000000
vn 0.00000000 1.00000000 -0.00000000
vn 0.00000000 1.00000000 -0.00000000
vn 0.00000000 1.00000000 -0.00000000
vn 0.00000000 1.00000000 -0.00000000
vn 0.00000000 1.00000000 -0.00000000
vn 0.00000000 1.00000000 -0.00000000
vn 0.00000000 1.00000000 -0.00000000
vn 0.00000000 1.00000000 -0.00000000
vn 0.00000000 1.00000000 -0.00000000
vn 0.00000000 1.00000000 -0.00010000
vn -0.00000000 1.00000000 0.00010000
vn 0.00000000 1.00000000 -0.00000000
vn 0.00000000 1.00000000 -0.00000000
vn -0.00000000 1.00000000 0.00010000
vn -0.18070000 0.96710000 -0.17930000
vn -0.21600000 0.96660000 0.13760000
vn -0.05660000 0.98500000 0.16320000
vn 0.99360000 0.00000000 -0.11320000
vn 0.00000000 -0.00000000 1.00000000
vn -0.10100000 -0.00000000 0.99490000
vn -0.00000000 -0.00000000 -1.00000000
vn 0.11660000 0.00000000 -0.99320000
vn 0.54970000 0.00000000 -0.83540000
vn 0.10330000 0.00000000 -0.99470000
vt 0.00329000 0.04682100
vt 0.00065100 0.05661900
vt -0.00074300 0.03980200
vt 0.00736700 0.05554400
vt 0.00283800 0.05574900
vt 0.00604700 0.05030300
vt 0.01139200 0.04868100
vt 0.00722900 0.04528500
vt 0.01179700 0.05363200
vt 0.01469900 0.06040400
vt 0.00609400 0.05957000
vt 0.01200400 0.05712400
vt 0.00239000 0.03873700
vt 0.01466000 0.04451600
vt 0.00791000 0.04115200
vt 0.01435800 0.04105200
vt 0.01585400 0.05095500
vt 0.00725300 0.06376700
vt 0.00411600 0.04745200
vt 0.00228200 0.05401900
vt -0.00028900 0.03870700
vt 0.00689300 0.05165000
vt 0.00850200 0.04799800
vt 0.00801900 0.04443500
vt 0.01145800 0.05477900
vt 0.00455900 0.05714100
vt 0.01194400 0.05708500
vt 0.01509300 0.04739700
vt 0.01499500 0.04481900
vt 0.01485000 0.05096300
vt 0.01538200 0.06023800
vt 0.00844000 0.06028500
vt 0.01427500 0.04102600
vt 0.01634000 0.05580800
vt 0.16058800 1.00038700
vt 0.16058800 1.00038700
vt 0.16058800 1.00038700
vt 0.10799200 0.14642700
vt 0.16416100 0.12995600
vt 0.03044400 0.25969300
vt 0.03044400 0.25969300
vt 0.05395000 0.19391400
vt 0.03049000 0.88645200
vt 0.03049000 0.88645200
vt 0.03049000 0.88645200
vt 0.09764300 0.97555200
vt 0.09764300 0.97555200
vt 0.06590200 0.94932100
vt 0.33323200 0.25753800
vt 0.22434000 0.13400700
vt 0.27627800 0.16043800
vt 0.31484200 0.20300200
vt 0.33326400 0.86957900
vt 0.24925600 0.98793600
vt 0.31356000 0.93002600
vt 0.06163400 0.04343100
vt 0.06974900 0.04320900
vt 0.06916400 0.04982600
vt 0.07752600 0.04340400
vt 0.07699600 0.05000400
vt 0.08544600 0.04355100
vt 0.09316900 0.04323500
vt 0.09282800 0.04985100
vt 0.08484900 0.05005500
vt 0.01283100 0.69549900
vt 0.01283400 0.08345800
vt 0.01990100 0.08596100
vt 0.03410700 0.04338800
vt 0.04364300 0.04424700
vt 0.04258800 0.05021700
vt 0.05550600 0.04414500
vt 0.05434900 0.05020000
vt 0.06627800 0.05013300
vt 0.07536600 0.04323500
vt 0.08149200 0.04342600
vt 0.08096300 0.05000400
vt 0.06735400 0.04418500
vt 0.07536600 0.05000400
vt 0.09141700 0.04332600
vt 0.09091500 0.04942000
vt 0.02768800 0.06159300
vt 0.03189700 0.05483700
vt 0.68437500 0.05484200
vt 0.04579300 0.04340400
vt 0.05387900 0.04319500
vt 0.05329500 0.04981500
vt 0.06164400 0.04364900
vt 0.06111600 0.05000400
vt 0.14469500 0.10466500
vt 0.09063200 0.20347600
vt 0.09063200 0.20347600
vt 0.10662400 0.14986400
vt 0.15748200 0.09285400
vt 0.22471900 0.07162500
vt 0.22471900 0.07162500
vt 0.82565500 0.12546600
vt 0.82565500 0.12546600
vt 0.09709100 0.26138200
vt 0.12547600 0.31021000
vt 0.17147500 0.34630900
vt 0.22715300 0.36164100
vt 0.22715300 0.36164100
vt 0.75340900 0.23538300
vt 0.75340900 0.23538300
vt 0.76465200 0.16488200
vt 0.76465200 0.16488200
vt 0.87719600 0.07199100
vt 0.87719600 0.07199100
vt 0.87474500 0.12816000
vt 0.94412400 0.10302100
vt 0.97446500 0.13604300
vt 0.94431200 0.19795300
vt 0.91739600 0.15139400
vt 0.99951800 0.18841200
vt 0.93345500 0.26681600
vt 0.86885300 0.30805800
vt 0.99162600 0.27351800
vt 0.78156200 0.28132600
vt 0.93404000 0.33901300
vt 0.93404000 0.33901300
vt 0.81650900 0.30409900
vt 0.81650900 0.30409900
vt 0.86639100 0.36160200
vt 0.86639100 0.36160200
vt 0.01597000 0.04747700
vt 0.01613300 0.05568500
vt 0.00416200 0.03945300
vt 0.06112400 0.05000400
vt 0.01989800 0.69799700
vt 0.03376700 0.05000400
vt 0.68230500 0.06161000
vt 0.03408000 0.04338700
vt 0.04350600 0.04919500
vt 0.03381300 0.05000400
f 1/1/1 2/2/2 3/3/3
f 4/4/4 5/5/5 6/6/6
f 7/7/7 6/6/6 8/8/8
f 9/9/9 6/6/6 7/7/7
f 10/10/10 11/11/11 12/12/12
f 13/13/13 1/1/1 3/3/3
f 13/13/13 15/15/15 1/1/1
f 14/14/14 8/8/8 15/15/15
f 7/7/7 17/17/17 9/9/9
f 18/18/18 11/11/11 10/10/10
f 21/21/21 127/127/127 19/19/19
f 22/22/22 20/20/20 19/19/19
f 23/23/23 19/19/19 24/24/24
f 23/23/23 22/22/22 19/19/19
f 25/25/25 26/26/26 22/22/22
f 27/27/27 26/26/26 25/25/25
f 23/23/23 24/24/24 28/28/28
f 30/30/30 23/23/23 28/28/28
f 31/31/31 32/32/32 27/27/27
f 29/29/29 24/24/24 33/33/33
f 27/27/27 34/34/34 31/31/31
f 25/25/25 34/34/34 27/27/27
f 35/35/35 38/38/38 39/39/39
f 38/38/38 40/40/40 42/42/42
f 37/37/37 45/45/45 41/41/41
f 43/43/43 47/47/47 48/48/48
f 46/46/46 44/44/44 36/36/36
f 40/40/40 38/38/38 35/35/35
f 49/49/49 50/50/50 51/51/51
f 51/51/51 52/52/52 49/49/49
f 49/49/49 53/53/53 50/50/50
f 50/50/50 54/54/54 35/35/35
f 54/54/54 53/53/53 55/55/55
f 50/50/50 53/53/53 54/54/54
f 39/39/39 50/50/50 35/35/35
f 56/56/56 57/57/57 58/58/58
f 57/57/57 59/59/59 60/60/60
f 61/61/61 62/62/62 63/63/63
f 64/64/64 60/60/60 59/59/59
f 65/65/65 66/66/66 67/67/67
f 68/68/68 69/69/69 70/70/70
f 69/69/69 71/71/71 72/72/72
f 73/73/73 72/72/72 71/71/71
f 74/74/74 75/75/75 76/76/76
f 77/77/77 74/74/74 78/78/78
f 75/75/75 79/79/79 80/80/80
f 83/83/83 131/131/131 82/82/82
f 84/84/84 85/85/85 86/86/86
f 85/85/85 87/87/87 88/88/88
f 89/89/89 90/90/90 92/92/92
f 89/89/89 93/93/93 94/94/94
f 94/94/94 90/90/90 89/89/89
f 96/96/96 106/106/106 94/94/94
f 98/98/98 90/90/90 99/99/99
f 100/100/100 99/99/99 102/102/102
f 99/99/99 90/90/90 102/102/102
f 103/103/103 91/91/91 105/105/105
f 96/96/96 108/108/108 109/109/109
f 108/108/108 110/110/110 109/109/109
f 111/111/111 113/113/113 110/110/110
f 113/113/113 111/111/111 112/112/112
f 97/97/97 95/95/95 107/107/107
f 114/114/114 117/117/117 112/112/112
f 117/117/117 119/119/119 115/115/115
f 90/90/90 104/104/104 118/118/118
f 122/122/122 116/116/116 123/123/123
f 124/124/124 101/101/101 121/121/121
f 116/116/116 119/119/119 123/123/123
f 122/122/122 102/102/102 118/118/118
f 5/5/5 1/1/1 6/6/6
f 6/6/6 1/1/1 8/8/8
f 11/11/11 5/5/5 4/4/4
f 14/14/14 125/125/125 8/8/8
f 4/4/4 6/6/6 9/9/9
f 12/12/12 4/4/4 9/9/9
f 11/11/11 4/4/4 12/12/12
f 126/126/126 9/9/9 17/17/17
f 125/125/125 17/17/17 7/7/7
f 10/10/10 12/12/12 126/126/126
f 12/12/12 9/9/9 126/126/126
f 26/26/26 20/20/20 22/22/22
f 19/19/19 127/127/127 24/24/24
f 32/32/32 26/26/26 27/27/27
f 22/22/22 23/23/23 30/30/30
f 25/25/25 22/22/22 30/30/30
f 30/30/30 34/34/34 25/25/25
f 56/56/56 58/58/58 128/128/128
f 57/57/57 60/60/60 58/58/58
f 61/61/61 63/63/63 64/64/64
f 64/64/64 59/59/59 61/61/61
f 65/65/65 67/67/67 129/129/129
f 68/68/68 70/70/70 130/130/130
f 69/69/69 72/72/72 70/70/70
f 73/73/73 71/71/71 77/77/77
f 74/74/74 76/76/76 78/78/78
f 77/77/77 78/78/78 73/73/73
f 75/75/75 80/80/80 76/76/76
f 132/132/132 133/133/133 134/134/134
f 84/84/84 86/86/86 133/133/133
f 85/85/85 88/88/88 86/86/86
f 15/15/15 8/8/8 1/1/1
f 14/14/14 15/15/15 16/16/16
f 21/21/21 19/19/19 20/20/20
f 24/24/24 29/29/29 28/28/28
f 131/131/131 81/81/81 82/82/82
f 106/106/106 90/90/90 94/94/94
f 113/113/113 109/109/109 110/110/110
f 111/111/111 114/114/114 112/112/112
f 117/117/117 115/115/115 112/112/112
f 120/120/120 116/116/116 115/115/115
f 102/102/102 90/90/90 118/118/118
f 125/125/125 7/7/7 8/8/8

