mtllib material.mtl
usemtl Material-7011油漆.006
v 0.05801100 -0.00330400 0.07900000
v 0.05801100 -0.00330400 0.07900000
v 0.05801100 -0.00330400 0.07900000
v 0.05801100 -0.00330400 0.07970000
v 0.05801100 -0.00330400 0.07970000
v 0.05801100 -0.00330400 0.07970000
v 0.06967500 -0.00330400 0.07900000
v 0.06967500 -0.00330400 0.07900000
v 0.06967500 -0.00330400 0.07900000
v 0.06967500 -0.00330400 0.07970000
v 0.06967500 -0.00330400 0.07970000
v 0.06967500 -0.00330400 0.07970000
v 0.06967500 -0.00330400 0.07900000
v 0.06967500 -0.00330400 0.07900000
v 0.06967500 -0.00330400 0.07900000
v 0.06967500 -0.00330400 0.07970000
v 0.06967500 -0.00330400 0.07970000
v 0.06967500 -0.00330400 0.07970000
v 0.07589400 -0.00874900 0.07900000
v 0.07589400 -0.00874900 0.07900000
v 0.07589400 -0.00874900 0.07900000
v 0.07589400 -0.00874900 0.07970000
v 0.07589400 -0.00874900 0.07970000
v 0.07589400 -0.00874900 0.07970000
v 0.07589500 -0.00874900 0.07900000
v 0.07589500 -0.00874900 0.07900000
v 0.07589500 -0.00874900 0.07900000
v 0.07589500 -0.00874900 0.07970000
v 0.07589500 -0.00874900 0.07970000
v 0.07589500 -0.00874900 0.07970000
v 0.07589500 0.00291400 0.07900000
v 0.07589500 0.00291400 0.07900000
v 0.07589500 0.00291400 0.07900000
v 0.07589500 0.00291400 0.07970000
v 0.07589500 0.00291400 0.07970000
v 0.07589500 0.00291400 0.07970000
v 0.07589500 0.00291500 0.07900000
v 0.07589500 0.00291500 0.07900000
v 0.07589500 0.00291500 0.07900000
v 0.07589500 0.00291500 0.07970000
v 0.07589500 0.00291500 0.07970000
v 0.07589500 0.00291500 0.07970000
v 0.05801100 0.00291500 0.07900000
v 0.05801100 0.00291500 0.07900000
v 0.05801100 0.00291500 0.07900000
v 0.05801100 0.00291500 0.07970000
v 0.05801100 0.00291500 0.07970000
v 0.05801100 0.00291500 0.07970000
v 0.05801000 0.00291400 0.07900000
v 0.05801000 0.00291400 0.07900000
v 0.05801000 0.00291400 0.07900000
v 0.05801000 0.00291400 0.07970000
v 0.05801000 0.00291400 0.07970000
v 0.05801000 0.00291400 0.07970000
v 0.05801000 -0.00330400 0.07900000
v 0.05801000 -0.00330400 0.07900000
v 0.05801000 -0.00330400 0.07900000
v 0.05801000 -0.00330400 0.07970000
v 0.05801000 -0.00330400 0.07970000
v 0.05801000 -0.00330400 0.07970000
v 0.05801100 -0.00330400 0.07899900
v 0.05801100 -0.00330400 0.07899900
v 0.05801100 -0.00330400 0.07899900
v 0.06967500 -0.00330400 0.07899900
v 0.06967500 -0.00330400 0.07899900
v 0.06967500 -0.00330400 0.07899900
v 0.07589500 -0.00874900 0.07899900
v 0.07589500 -0.00874900 0.07899900
v 0.07589500 -0.00874900 0.07899900
v 0.07589500 0.00291400 0.07899900
v 0.07589500 0.00291400 0.07899900
v 0.07589500 0.00291400 0.07899900
v 0.05801100 0.00291400 0.07899900
v 0.05801100 0.00291400 0.07899900
v 0.05801100 0.00291400 0.07899900
v 0.05801100 -0.00330400 0.07970000
v 0.05801100 -0.00330400 0.07970000
v 0.05801100 -0.00330400 0.07970000
v 0.06967500 -0.00330400 0.07970000
v 0.06967500 -0.00330400 0.07970000
v 0.06967500 -0.00330400 0.07970000
v 0.07589500 -0.00874900 0.07970000
v 0.07589500 -0.00874900 0.07970000
v 0.07589500 -0.00874900 0.07970000
v 0.07589500 0.00291400 0.07970000
v 0.07589500 0.00291400 0.07970000
v 0.07589500 0.00291400 0.07970000
v 0.05801100 0.00291400 0.07970000
v 0.05801100 0.00291400 0.07970000
v 0.05801100 0.00291400 0.07970000
v 0.05801100 -0.00330300 0.07900000
v 0.05801100 -0.00330300 0.07900000
v 0.05801100 -0.00330300 0.07900000
v 0.05801100 -0.00330300 0.07970000
v 0.05801100 -0.00330300 0.07970000
v 0.05801100 -0.00330300 0.07970000
v 0.06967500 -0.00330300 0.07900000
v 0.06967500 -0.00330300 0.07900000
v 0.06967500 -0.00330300 0.07900000
v 0.06967500 -0.00330300 0.07970000
v 0.06967500 -0.00330300 0.07970000
v 0.06967500 -0.00330300 0.07970000
v 0.06967600 -0.00330300 0.07900000
v 0.06967600 -0.00330300 0.07900000
v 0.06967600 -0.00330300 0.07900000
v 0.06967600 -0.00330300 0.07970000
v 0.06967600 -0.00330300 0.07970000
v 0.06967600 -0.00330300 0.07970000
v 0.07589500 -0.00874800 0.07900000
v 0.07589500 -0.00874800 0.07900000
v 0.07589500 -0.00874800 0.07900000
v 0.07589500 -0.00874800 0.07970000
v 0.07589500 -0.00874800 0.07970000
v 0.07589500 -0.00874800 0.07970000
v 0.07589400 -0.00874900 0.07900000
v 0.07589400 -0.00874900 0.07900000
v 0.07589400 -0.00874900 0.07900000
v 0.07589400 -0.00874900 0.07970000
v 0.07589400 -0.00874900 0.07970000
v 0.07589400 -0.00874900 0.07970000
v 0.07589400 0.00291400 0.07900000
v 0.07589400 0.00291400 0.07900000
v 0.07589400 0.00291400 0.07900000
v 0.07589400 0.00291400 0.07970000
v 0.07589400 0.00291400 0.07970000
v 0.07589400 0.00291400 0.07970000
v 0.07589500 0.00291400 0.07900000
v 0.07589500 0.00291400 0.07900000
v 0.07589500 0.00291400 0.07900000
v 0.07589500 0.00291400 0.07970000
v 0.07589500 0.00291400 0.07970000
v 0.07589500 0.00291400 0.07970000
v 0.05801100 0.00291400 0.07900000
v 0.05801100 0.00291400 0.07900000
v 0.05801100 0.00291400 0.07900000
v 0.05801100 0.00291400 0.07970000
v 0.05801100 0.00291400 0.07970000
v 0.05801100 0.00291400 0.07970000
v 0.05801100 0.00291400 0.07900000
v 0.05801100 0.00291400 0.07900000
v 0.05801100 0.00291400 0.07900000
v 0.05801100 0.00291400 0.07970000
v 0.05801100 0.00291400 0.07970000
v 0.05801100 0.00291400 0.07970000
v 0.05801100 -0.00330400 0.07900000
v 0.05801100 -0.00330400 0.07900000
v 0.05801100 -0.00330400 0.07900000
v 0.05801100 -0.00330400 0.07970000
v 0.05801100 -0.00330400 0.07970000
v 0.05801100 -0.00330400 0.07970000
v 0.05801100 -0.00330400 0.07900000
v 0.05801100 -0.00330400 0.07900000
v 0.05801100 -0.00330400 0.07900000
v 0.06967500 -0.00330400 0.07900000
v 0.06967500 -0.00330400 0.07900000
v 0.06967500 -0.00330400 0.07900000
v 0.07589500 -0.00874900 0.07900000
v 0.07589500 -0.00874900 0.07900000
v 0.07589500 -0.00874900 0.07900000
v 0.07589500 0.00291400 0.07900000
v 0.07589500 0.00291400 0.07900000
v 0.07589500 0.00291400 0.07900000
v 0.05801100 0.00291400 0.07900000
v 0.05801100 0.00291400 0.07900000
v 0.05801100 0.00291400 0.07900000
v 0.05801100 -0.00330400 0.07969900
v 0.05801100 -0.00330400 0.07969900
v 0.05801100 -0.00330400 0.07969900
v 0.06967500 -0.00330400 0.07969900
v 0.06967500 -0.00330400 0.07969900
v 0.06967500 -0.00330400 0.07969900
v 0.07589500 -0.00874900 0.07969900
v 0.07589500 -0.00874900 0.07969900
v 0.07589500 -0.00874900 0.07969900
v 0.07589500 0.00291400 0.07969900
v 0.07589500 0.00291400 0.07969900
v 0.07589500 0.00291400 0.07969900
v 0.05801100 0.00291400 0.07969900
v 0.05801100 0.00291400 0.07969900
v 0.05801100 0.00291400 0.07969900
vn 0.00000000 -1.00000000 0.00000000
vn -1.00000000 0.00000000 0.00000000
vn -0.00000000 0.00000000 -1.00000000
vn 0.00000000 0.00000000 1.00000000
vn 0.00000000 -1.00000000 0.00000000
vn -1.00000000 0.00000000 0.00000000
vn -0.00000000 0.00000000 -1.00000000
vn 0.00000000 -1.00000000 0.00000000
vn 1.00000000 0.00000000 0.00000000
vn 0.00000000 0.00000000 1.00000000
vn 0.00000000 -1.00000000 0.00000000
vn 1.00000000 0.00000000 0.00000000
vn -0.00000000 0.00000000 -1.00000000
vn -0.65870000 -0.75240000 0.00000000
vn -0.75430000 0.65660000 0.00000000
vn -0.65870000 -0.75240000 0.00000000
vn -0.75430000 0.65660000 0.00000000
vn -0.00350000 0.00000000 1.00000000
vn -0.00000000 0.00000000 -1.00000000
vn -0.65870000 -0.75240000 0.00000000
vn 0.75400000 -0.65690000 0.00000000
vn -0.00350000 0.00000000 1.00000000
vn -0.65870000 -0.75240000 0.00000000
vn 0.75400000 -0.65690000 0.00000000
vn 0.00000000 -1.00000000 0.00000000
vn 1.00000000 0.00000000 0.00000000
vn -0.00000000 0.00000000 -1.00000000
vn 0.00000000 0.00000000 1.00000000
vn 1.00000000 0.00000000 0.00000000
vn 0.00000000 -1.00000000 0.00000000
vn -0.00000000 0.00000000 -1.00000000
vn 1.00000000 0.00000000 0.00000000
vn 0.00000000 1.00000000 0.00000000
vn 0.00000000 0.00000000 1.00000000
vn 1.00000000 0.00000000 0.00000000
vn 0.00000000 1.00000000 0.00000000
vn -0.00000000 0.00000000 -1.00000000
vn 0.00000000 1.00000000 0.00000000
vn 1.00000000 0.00000000 0.00000000
vn 1.00000000 0.00000000 0.00000000
vn 0.00000000 1.00000000 0.00000000
vn 0.00000000 0.00000000 1.00000000
vn -1.00000000 0.00000000 0.00000000
vn 0.00000000 1.00000000 0.00000000
vn -0.00000000 0.00000000 -1.00000000
vn -1.00000000 0.00000000 0.00000000
vn 0.00000000 1.00000000 0.00000000
vn 0.00000000 0.00000000 1.00000000
vn -1.00000000 0.00000000 0.00000000
vn -0.00000000 0.00000000 -1.00000000
vn 0.00000000 1.00000000 0.00000000
vn 0.00000000 1.00000000 0.00000000
vn 0.00000000 0.00000000 1.00000000
vn -1.00000000 0.00000000 0.00000000
vn 0.00000000 -1.00000000 0.00000000
vn -1.00000000 0.00000000 0.00000000
vn -0.00000000 0.00000000 -1.00000000
vn 0.00000000 0.00000000 1.00000000
vn 0.00000000 -1.00000000 0.00000000
vn -1.00000000 0.00000000 0.00000000
vn -0.00000000 0.00000000 -1.00000000
vn -1.00000000 0.00000000 0.00000000
vn 0.00000000 -1.00000000 0.00000000
vn -0.00000000 0.00000000 -1.00000000
vn 0.00000000 -1.00000000 0.00000000
vn -0.66030000 -0.75100000 0.00000000
vn -0.00000000 0.00000000 -1.00000000
vn 1.00000000 0.00000000 0.00000000
vn -0.66030000 -0.75100000 0.00000000
vn 1.00000000 0.00000000 0.00000000
vn 0.00000000 1.00000000 0.00000000
vn -0.00000000 0.00000000 -1.00000000
vn -0.00000000 0.00000000 -1.00000000
vn 0.00000000 1.00000000 0.00000000
vn -1.00000000 0.00000000 0.00000000
vn -1.00000000 0.00000000 0.00000000
vn 0.00000000 0.00000000 1.00000000
vn 0.00000000 -1.00000000 0.00000000
vn -0.65840000 -0.75270000 0.00000000
vn 0.00000000 -1.00000000 0.00000000
vn 0.00000000 0.00000000 1.00000000
vn 0.00000000 0.00000000 1.00000000
vn -0.65840000 -0.75270000 0.00000000
vn 1.00000000 0.00000000 0.00000000
vn 1.00000000 0.00000000 0.00000000
vn 0.00000000 1.00000000 0.00000000
vn 0.00000000 0.00000000 1.00000000
vn -1.00000000 0.00000000 0.00000000
vn 0.00000000 1.00000000 0.00000000
vn 0.00000000 0.00000000 1.00000000
vn -0.00000000 0.00000000 -1.00000000
vn -1.00000000 0.00000000 0.00000000
vn 0.00000000 1.00000000 0.00000000
vn 0.00000000 0.00000000 1.00000000
vn 0.00000000 1.00000000 0.00000000
vn -1.00000000 0.00000000 0.00000000
vn 0.00000000 1.00000000 0.00000000
vn -0.00000000 0.00000000 -1.00000000
vn 1.00000000 0.00000000 0.00000000
vn 1.00000000 0.00000000 0.00000000
vn 0.00000000 0.00000000 1.00000000
vn 0.00000000 1.00000000 0.00000000
vn -0.75430000 0.65660000 0.00000000
vn 0.65870000 0.75240000 0.00000000
vn -0.00000000 0.00000000 -1.00000000
vn 0.65870000 0.75240000 0.00000000
vn -0.75430000 0.65660000 0.00000000
vn -0.00350000 0.00000000 1.00000000
vn 0.65870000 0.75240000 0.00000000
vn -0.00000000 0.00000000 -1.00000000
vn 0.75400000 -0.65690000 0.00000000
vn 0.75400000 -0.65690000 0.00000000
vn -0.00350000 0.00000000 1.00000000
vn 0.65870000 0.75240000 0.00000000
vn -1.00000000 0.00000000 0.00000000
vn 0.00000000 -1.00000000 0.00000000
vn -0.00000000 0.00000000 -1.00000000
vn -1.00000000 0.00000000 0.00000000
vn 0.00000000 0.00000000 1.00000000
vn 0.00000000 -1.00000000 0.00000000
vn 0.00000000 1.00000000 0.00000000
vn -1.00000000 0.00000000 0.00000000
vn -0.00000000 0.00000000 -1.00000000
vn 0.00000000 1.00000000 0.00000000
vn -1.00000000 0.00000000 0.00000000
vn 0.00000000 0.00000000 1.00000000
vn -0.00000000 0.00000000 -1.00000000
vn 1.00000000 0.00000000 0.00000000
vn 0.00000000 -1.00000000 0.00000000
vn 0.00000000 -1.00000000 0.00000000
vn 0.00000000 0.00000000 1.00000000
vn 1.00000000 0.00000000 0.00000000
vn -0.00000000 0.00000000 -1.00000000
vn -1.00000000 0.00000000 0.00000000
vn 0.00000000 -1.00000000 0.00000000
vn 0.00000000 -1.00000000 0.00000000
vn 0.00000000 0.00000000 1.00000000
vn -1.00000000 0.00000000 0.00000000
vn 0.00000000 1.00000000 0.00000000
vn -0.00000000 0.00000000 -1.00000000
vn 1.00000000 0.00000000 0.00000000
vn 1.00000000 0.00000000 0.00000000
vn 0.00000000 0.00000000 1.00000000
vn 0.00000000 1.00000000 0.00000000
vn 1.00000000 0.00000000 0.00000000
vn -0.00000000 0.00000000 -1.00000000
vn 0.00000000 -1.00000000 0.00000000
vn 1.00000000 0.00000000 0.00000000
vn 0.00000000 -1.00000000 0.00000000
vn 0.00000000 0.00000000 1.00000000
vn 0.00000000 0.00000000 1.00000000
vn 0.00000000 -1.00000000 0.00000000
vn -1.00000000 0.00000000 0.00000000
vn 0.00000000 0.00000000 1.00000000
vn -0.66030000 -0.75100000 0.00000000
vn 0.00000000 -1.00000000 0.00000000
vn 0.00000000 0.00000000 1.00000000
vn -0.66030000 -0.75100000 0.00000000
vn 1.00000000 0.00000000 0.00000000
vn 0.00000000 1.00000000 0.00000000
vn 0.00000000 0.00000000 1.00000000
vn 1.00000000 0.00000000 0.00000000
vn 0.00000000 1.00000000 0.00000000
vn 0.00000000 0.00000000 1.00000000
vn -1.00000000 0.00000000 0.00000000
vn -1.00000000 0.00000000 0.00000000
vn 0.00000000 -1.00000000 0.00000000
vn -0.00000000 0.00000000 -1.00000000
vn -0.00000000 0.00000000 -1.00000000
vn -0.65840000 -0.75270000 0.00000000
vn 0.00000000 -1.00000000 0.00000000
vn -0.65840000 -0.75270000 0.00000000
vn 1.00000000 0.00000000 0.00000000
vn -0.00000000 0.00000000 -1.00000000
vn -0.00000000 0.00000000 -1.00000000
vn 1.00000000 0.00000000 0.00000000
vn 0.00000000 1.00000000 0.00000000
vn 0.00000000 1.00000000 0.00000000
vn -0.00000000 0.00000000 -1.00000000
vn -1.00000000 0.00000000 0.00000000
vt 0.00000000 0.00000000
vt 0.00000000 0.00000000
vt 0.00000000 0.00000000
vt 0.00000000 0.51456700
vt 0.00000000 0.51456700
vt 0.00000000 0.51456700
vt 0.20946500 0.00000000
vt 0.20946500 0.00000000
vt 0.20946500 0.00000000
vt 0.20946500 0.51456700
vt 0.20946500 0.51456700
vt 0.20946500 0.51456700
vt 0.20946500 0.00000000
vt 0.20946500 0.00000000
vt 0.20946500 0.00000000
vt 0.20946500 0.51456700
vt 0.20946500 0.51456700
vt 0.20946500 0.51456700
vt 0.35786100 0.00000000
vt 0.35786100 0.00000000
vt 0.35786100 0.00000000
vt 0.35786100 0.51456700
vt 0.35786100 0.51456700
vt 0.35786100 0.51456700
vt 0.35786100 0.00000000
vt 0.35786100 0.00000000
vt 0.35786100 0.00000000
vt 0.35786100 0.51456700
vt 0.35786100 0.51456700
vt 0.35786100 0.51456700
vt 0.56726300 0.00000000
vt 0.56726300 0.00000000
vt 0.56726300 0.00000000
vt 0.56726300 0.51456700
vt 0.56726300 0.51456700
vt 0.56726300 0.51456700
vt 0.56726300 0.00000000
vt 0.56726300 0.00000000
vt 0.56726300 0.00000000
vt 0.56726300 0.51456700
vt 0.56726300 0.51456700
vt 0.56726300 0.51456700
vt 0.88836400 0.00000000
vt 0.88836400 0.00000000
vt 0.88836400 0.00000000
vt 0.88836400 0.51456700
vt 0.88836400 0.51456700
vt 0.88836400 0.51456700
vt 0.88836400 0.00000000
vt 0.88836400 0.00000000
vt 0.88836400 0.00000000
vt 0.88836400 0.51456700
vt 0.88836400 0.51456700
vt 0.88836400 0.51456700
vt 1.00000000 0.00000000
vt 1.00000000 0.00000000
vt 1.00000000 0.00000000
vt 1.00000000 0.51456700
vt 1.00000000 0.51456700
vt 1.00000000 0.51456700
vt 0.00000000 0.77336200
vt 0.00000000 0.77336200
vt 0.00000000 0.77336200
vt 0.20943500 0.77336200
vt 0.20943500 0.77336200
vt 0.20943500 0.77336200
vt 0.32110500 1.00000000
vt 0.32110500 1.00000000
vt 0.32110500 1.00000000
vt 0.32110500 0.51456800
vt 0.32110500 0.51456800
vt 0.32110500 0.51456800
vt 0.00000000 0.51456800
vt 0.00000000 0.51456800
vt 0.00000000 0.51456800
vt 0.00000000 0.74120600
vt 0.00000000 0.74120600
vt 0.00000000 0.74120600
vt 0.20943500 0.74120600
vt 0.20943500 0.74120600
vt 0.20943500 0.74120600
vt 0.32110500 0.51456800
vt 0.32110500 0.51456800
vt 0.32110500 0.51456800
vt 0.32110500 1.00000000
vt 0.32110500 1.00000000
vt 0.32110500 1.00000000
vt 0.00000000 1.00000000
vt 0.00000000 1.00000000
vt 0.00000000 1.00000000
vt 0.00000000 0.00000000
vt 0.00000000 0.00000000
vt 0.00000000 0.00000000
vt 0.00000000 0.51456700
vt 0.00000000 0.51456700
vt 0.00000000 0.51456700
vt 0.20946500 0.00000000
vt 0.20946500 0.00000000
vt 0.20946500 0.00000000
vt 0.20946500 0.51456700
vt 0.20946500 0.51456700
vt 0.20946500 0.51456700
vt 0.20946500 0.00000000
vt 0.20946500 0.00000000
vt 0.20946500 0.00000000
vt 0.20946500 0.51456700
vt 0.20946500 0.51456700
vt 0.20946500 0.51456700
vt 0.35786100 0.00000000
vt 0.35786100 0.00000000
vt 0.35786100 0.00000000
vt 0.35786100 0.51456700
vt 0.35786100 0.51456700
vt 0.35786100 0.51456700
vt 0.35786100 0.00000000
vt 0.35786100 0.00000000
vt 0.35786100 0.00000000
vt 0.35786100 0.51456700
vt 0.35786100 0.51456700
vt 0.35786100 0.51456700
vt 0.56726300 0.00000000
vt 0.56726300 0.00000000
vt 0.56726300 0.00000000
vt 0.56726300 0.51456700
vt 0.56726300 0.51456700
vt 0.56726300 0.51456700
vt 0.56726300 0.00000000
vt 0.56726300 0.00000000
vt 0.56726300 0.00000000
vt 0.56726300 0.51456700
vt 0.56726300 0.51456700
vt 0.56726300 0.51456700
vt 0.88836400 0.00000000
vt 0.88836400 0.00000000
vt 0.88836400 0.00000000
vt 0.88836400 0.51456700
vt 0.88836400 0.51456700
vt 0.88836400 0.51456700
vt 0.88836400 0.00000000
vt 0.88836400 0.00000000
vt 0.88836400 0.00000000
vt 0.88836400 0.51456700
vt 0.88836400 0.51456700
vt 0.88836400 0.51456700
vt 1.00000000 0.00000000
vt 1.00000000 0.00000000
vt 1.00000000 0.00000000
vt 1.00000000 0.51456700
vt 1.00000000 0.51456700
vt 1.00000000 0.51456700
vt 0.00000000 0.77336200
vt 0.00000000 0.77336200
vt 0.00000000 0.77336200
vt 0.20943500 0.77336200
vt 0.20943500 0.77336200
vt 0.20943500 0.77336200
vt 0.32110500 1.00000000
vt 0.32110500 1.00000000
vt 0.32110500 1.00000000
vt 0.32110500 0.51456800
vt 0.32110500 0.51456800
vt 0.32110500 0.51456800
vt 0.00000000 0.51456800
vt 0.00000000 0.51456800
vt 0.00000000 0.51456800
vt 0.00000000 0.74120600
vt 0.00000000 0.74120600
vt 0.00000000 0.74120600
vt 0.20943500 0.74120600
vt 0.20943500 0.74120600
vt 0.20943500 0.74120600
vt 0.32110500 0.51456800
vt 0.32110500 0.51456800
vt 0.32110500 0.51456800
vt 0.32110500 1.00000000
vt 0.32110500 1.00000000
vt 0.32110500 1.00000000
vt 0.00000000 1.00000000
vt 0.00000000 1.00000000
vt 0.00000000 1.00000000
f 1/1/1 8/8/8 11/11/11
f 14/14/14 20/20/20 23/23/23
f 26/26/26 32/32/32 35/35/35
f 38/38/38 44/44/44 47/47/47
f 49/49/49 56/56/56 60/60/60
f 72/72/72 67/67/67 64/64/64
f 61/61/61 73/73/73 64/64/64
f 72/72/72 64/64/64 73/73/73
f 87/87/87 81/81/81 82/82/82
f 77/77/77 81/81/81 90/90/90
f 87/87/87 90/90/90 81/81/81
f 1/1/1 11/11/11 5/5/5
f 14/14/14 23/23/23 16/16/16
f 26/26/26 35/35/35 29/29/29
f 38/38/38 47/47/47 41/41/41
f 49/49/49 60/60/60 54/54/54
f 93/93/93 102/102/102 97/97/97
f 104/104/104 114/114/114 109/109/109
f 115/115/115 125/125/125 122/122/122
f 129/129/129 136/136/136 135/135/135
f 141/141/141 148/148/148 145/145/145
f 161/161/161 154/154/154 157/157/157
f 151/151/151 154/154/154 164/164/164
f 161/161/161 164/164/164 154/154/154
f 175/175/175 174/174/174 169/169/169
f 168/168/168 179/179/179 169/169/169
f 175/175/175 169/169/169 179/179/179
f 93/93/93 95/95/95 102/102/102
f 104/104/104 106/106/106 114/114/114
f 115/115/115 118/118/118 125/125/125
f 129/129/129 130/130/130 136/136/136
f 141/141/141 142/142/142 148/148/148
f 28/28/28 34/34/34 126/126/126
f 126/126/126 119/119/119 28/28/28
f 2/2/2 6/6/6 96/96/96
f 96/96/96 92/92/92 2/2/2
f 7/7/7 3/3/3 91/91/91
f 91/91/91 98/98/98 7/7/7
f 15/15/15 17/17/17 107/107/107
f 107/107/107 103/103/103 15/15/15
f 19/19/19 13/13/13 105/105/105
f 105/105/105 110/110/110 19/19/19
f 25/25/25 30/30/30 120/120/120
f 120/120/120 116/116/116 25/25/25
f 31/31/31 27/27/27 117/117/117
f 117/117/117 123/123/123 31/31/31
f 36/36/36 33/33/33 121/121/121
f 121/121/121 124/124/124 36/36/36
f 39/39/39 40/40/40 132/132/132
f 132/132/132 128/128/128 39/39/39
f 45/45/45 37/37/37 127/127/127
f 127/127/127 133/133/133 45/45/45
f 51/51/51 52/52/52 144/144/144
f 144/144/144 139/139/139 51/51/51
f 57/57/57 50/50/50 140/140/140
f 140/140/140 146/146/146 57/57/57
f 63/63/63 65/65/65 156/156/156
f 156/156/156 152/152/152 63/63/63
f 66/66/66 69/69/69 158/158/158
f 158/158/158 155/155/155 66/66/66
f 75/75/75 62/62/62 153/153/153
f 153/153/153 165/165/165 75/75/75
f 80/80/80 78/78/78 167/167/167
f 167/167/167 171/171/171 80/80/80
f 83/83/83 79/79/79 170/170/170
f 170/170/170 172/172/172 83/83/83
f 85/85/85 84/84/84 173/173/173
f 173/173/173 176/176/176 85/85/85
f 76/76/76 88/88/88 180/180/180
f 180/180/180 166/166/166 76/76/76
f 12/12/12 9/9/9 99/99/99
f 99/99/99 100/100/100 12/12/12
f 68/68/68 70/70/70 162/162/162
f 162/162/162 159/159/159 68/68/68
f 71/71/71 74/74/74 163/163/163
f 163/163/163 160/160/160 71/71/71
f 42/42/42 48/48/48 137/137/137
f 137/137/137 131/131/131 42/42/42
f 46/46/46 43/43/43 134/134/134
f 134/134/134 138/138/138 46/46/46
f 18/18/18 22/22/22 113/113/113
f 113/113/113 108/108/108 18/18/18
f 24/24/24 21/21/21 111/111/111
f 111/111/111 112/112/112 24/24/24
f 53/53/53 58/58/58 150/150/150
f 150/150/150 143/143/143 53/53/53
f 59/59/59 55/55/55 147/147/147
f 147/147/147 149/149/149 59/59/59
f 89/89/89 86/86/86 177/177/177
f 177/177/177 178/178/178 89/89/89
f 4/4/4 10/10/10 101/101/101
f 101/101/101 94/94/94 4/4/4

