mtllib material.mtl
usemtl Material-7011油漆.021
v -0.09267000 -0.11263200 0.02723000
v -0.09267000 -0.11348800 0.02539300
v -0.09429000 -0.11263200 0.02723000
v -0.09429000 -0.11348800 0.02539300
v -0.09348000 -0.11348800 0.02539300
v -0.09267000 -0.11348800 0.02539300
v -0.09348000 -0.11348800 0.02539300
v -0.09429000 -0.11348800 0.02539300
v -0.08619300 -0.11580400 0.01967700
v -0.08619300 -0.11580400 0.01967700
v -0.08619300 -0.11566900 0.02006100
v -0.08619300 -0.11566900 0.02006100
v -0.08619300 -0.11553200 0.02044400
v -0.08619300 -0.11553200 0.02044400
v -0.08619300 -0.11553200 0.02044400
v -0.08619300 -0.11539300 0.02082600
v -0.08619300 -0.11539300 0.02082600
v -0.08619300 -0.11539300 0.02082600
v -0.08619300 -0.11525000 0.02120800
v -0.09024100 -0.11527900 0.02113100
v -0.09024100 -0.11527900 0.02113100
v -0.09024100 -0.11527900 0.02113100
v -0.09024100 -0.11527900 0.02113100
v -0.09024100 -0.11554600 0.02040600
v -0.09024100 -0.11554600 0.02040600
v -0.09024100 -0.11554600 0.02040600
v -0.08821700 -0.11554600 0.02040600
v -0.08821700 -0.11554600 0.02040600
v -0.08821700 -0.11554600 0.02040600
v -0.09024100 -0.11567600 0.02004100
v -0.09024100 -0.11567600 0.02004100
v -0.09024100 -0.11567600 0.02004100
v -0.08821700 -0.11567600 0.02004100
v -0.08821700 -0.11567600 0.02004100
v -0.08821700 -0.11567600 0.02004100
v -0.08821700 -0.11567600 0.02004100
v -0.08720500 -0.11567600 0.02004100
v -0.08720500 -0.11567600 0.02004100
v -0.08821700 -0.11574100 0.01985800
v -0.08821700 -0.11574100 0.01985800
v -0.08821700 -0.11574100 0.01985800
v -0.08821700 -0.11574100 0.01985800
v -0.08720500 -0.11574100 0.01985800
v -0.08720500 -0.11574100 0.01985800
v -0.08720500 -0.11574100 0.01985800
v -0.08720500 -0.11574100 0.01985800
v -0.08720500 -0.11574100 0.01985800
v -0.08720500 -0.11554600 0.02040600
v -0.08720500 -0.11554600 0.02040600
v -0.08821700 -0.11561200 0.02022400
v -0.08821700 -0.11561200 0.02022400
v -0.08821700 -0.11561200 0.02022400
v -0.08821700 -0.11561200 0.02022400
v -0.08720500 -0.11561200 0.02022400
v -0.08720500 -0.11561200 0.02022400
v -0.08720500 -0.11561200 0.02022400
v -0.08821700 -0.11527900 0.02113100
v -0.08821700 -0.11527900 0.02113100
v -0.08821700 -0.11527900 0.02113100
v -0.08821700 -0.11527900 0.02113100
v -0.09024100 -0.11541400 0.02076900
v -0.09024100 -0.11541400 0.02076900
v -0.08821700 -0.11541400 0.02076900
v -0.08821700 -0.11541400 0.02076900
v -0.08720500 -0.11541400 0.02076900
v -0.08720500 -0.11541400 0.02076900
v -0.08821700 -0.11548000 0.02058800
v -0.08821700 -0.11548000 0.02058800
v -0.08821700 -0.11548000 0.02058800
v -0.08720500 -0.11548000 0.02058800
v -0.08720500 -0.11548000 0.02058800
v -0.08720500 -0.11548000 0.02058800
v -0.08720500 -0.11527900 0.02113100
v -0.08720500 -0.11527900 0.02113100
v -0.08720500 -0.11527900 0.02113100
v -0.08720500 -0.11527900 0.02113100
v -0.08720500 -0.11527900 0.02113100
v -0.08821700 -0.11534700 0.02095100
v -0.08821700 -0.11534700 0.02095100
v -0.08821700 -0.11534700 0.02095100
v -0.08821700 -0.11534700 0.02095100
v -0.08720500 -0.11534700 0.02095100
v -0.08720500 -0.11534700 0.02095100
v -0.08720500 -0.11534700 0.02095100
v -0.09429000 -0.11364800 0.02504700
v -0.09429000 -0.11380600 0.02470000
v -0.09429000 -0.11396100 0.02435300
v -0.09428400 -0.11411500 0.02400400
v -0.09425300 -0.11426600 0.02365400
v -0.09419500 -0.11441200 0.02330900
v -0.09410800 -0.11455500 0.02296800
v -0.09399000 -0.11469200 0.02263200
v -0.09399000 -0.11469200 0.02263200
v -0.09399000 -0.11469200 0.02263200
v -0.09384300 -0.11482400 0.02230500
v -0.09384300 -0.11482400 0.02230500
v -0.09384300 -0.11482400 0.02230500
v -0.09366700 -0.11494800 0.02199200
v -0.09366700 -0.11494800 0.02199200
v -0.09346500 -0.11506500 0.02169300
v -0.09346500 -0.11506500 0.02169300
v -0.09346500 -0.11506500 0.02169300
v -0.09323600 -0.11517500 0.02140700
v -0.09323600 -0.11517500 0.02140700
v -0.09323600 -0.11517500 0.02140700
v -0.09323600 -0.11517500 0.02140700
v -0.09298800 -0.11527600 0.02114000
v -0.09298800 -0.11527600 0.02114000
v -0.09271700 -0.11537000 0.02088600
v -0.09271700 -0.11537000 0.02088600
v -0.09242700 -0.11545700 0.02065000
v -0.09242700 -0.11545700 0.02065000
v -0.09242700 -0.11545700 0.02065000
v -0.09212400 -0.11553500 0.02043800
v -0.09212400 -0.11553500 0.02043800
v -0.09212400 -0.11553500 0.02043800
v -0.09180000 -0.11560300 0.02024700
v -0.09180000 -0.11560300 0.02024700
v -0.09180000 -0.11560300 0.02024700
v -0.09146300 -0.11566200 0.02008300
v -0.09146300 -0.11566200 0.02008300
v -0.09146300 -0.11566200 0.02008300
v -0.09111300 -0.11571000 0.01994600
v -0.09111300 -0.11571000 0.01994600
v -0.09111300 -0.11571000 0.01994600
v -0.09074900 -0.11574800 0.01983700
v -0.09074900 -0.11574800 0.01983700
v -0.09037900 -0.11577600 0.01975700
v -0.09000300 -0.11579400 0.01970500
v -0.09000300 -0.11579400 0.01970500
v -0.09000300 -0.11579400 0.01970500
v -0.08962200 -0.11580300 0.01968000
v -0.08924000 -0.11580400 0.01967700
v -0.08924000 -0.11580400 0.01967700
v -0.08885900 -0.11580400 0.01967700
v -0.08885900 -0.11580400 0.01967700
v -0.08885900 -0.11580400 0.01967700
v -0.08847800 -0.11580400 0.01967700
v -0.08847800 -0.11580400 0.01967700
v -0.08809800 -0.11580400 0.01967700
v -0.08809800 -0.11580400 0.01967700
v -0.08771700 -0.11580400 0.01967700
v -0.08771700 -0.11580400 0.01967700
v -0.08771700 -0.11580400 0.01967700
v -0.08733600 -0.11580400 0.01967700
v -0.08695500 -0.11580400 0.01967700
v -0.08657400 -0.11580400 0.01967700
v -0.08657400 -0.11580400 0.01967700
v -0.09327800 -0.11471800 0.02256800
v -0.09327800 -0.11471800 0.02256800
v -0.09327800 -0.11471800 0.02256800
v -0.09226500 -0.11500300 0.02185200
v -0.09226500 -0.11500300 0.02185200
v -0.09226500 -0.11486200 0.02221100
v -0.09226500 -0.11486200 0.02221100
v -0.09327800 -0.11486200 0.02221100
v -0.09327800 -0.11486200 0.02221100
v -0.09327800 -0.11486200 0.02221100
v -0.09226500 -0.11479000 0.02239000
v -0.09327800 -0.11479000 0.02239000
v -0.09327800 -0.11479000 0.02239000
v -0.09327800 -0.11479000 0.02239000
v -0.09327800 -0.11500300 0.02185200
v -0.09327800 -0.11500300 0.02185200
v -0.09327800 -0.11500300 0.02185200
v -0.09327800 -0.11500300 0.02185200
v -0.09226500 -0.11493300 0.02203200
v -0.09226500 -0.11493300 0.02203200
v -0.09226500 -0.11493300 0.02203200
v -0.09226500 -0.11493300 0.02203200
v -0.09327800 -0.11493300 0.02203200
v -0.09327800 -0.11493300 0.02203200
v -0.09327800 -0.11493300 0.02203200
v -0.09327800 -0.11493300 0.02203200
v -0.09226500 -0.11527900 0.02113100
v -0.09226500 -0.11527900 0.02113100
v -0.09226500 -0.11527900 0.02113100
v -0.09226500 -0.11514200 0.02149300
v -0.09226500 -0.11514200 0.02149300
v -0.09226500 -0.11514200 0.02149300
v -0.09226500 -0.11514200 0.02149300
v -0.09226500 -0.11514200 0.02149300
v -0.09327800 -0.11514200 0.02149300
v -0.09327800 -0.11514200 0.02149300
v -0.09327800 -0.11514200 0.02149300
v -0.09226500 -0.11507300 0.02167300
v -0.09226500 -0.11507300 0.02167300
v -0.09226500 -0.11507300 0.02167300
v -0.09226500 -0.11507300 0.02167300
v -0.09226500 -0.11507300 0.02167300
v -0.09226500 -0.11521100 0.02131200
v -0.09226500 -0.11521100 0.02131200
v -0.09226500 -0.11521100 0.02131200
v -0.09226500 -0.11521100 0.02131200
v -0.09226500 -0.11541400 0.02076900
v -0.09226500 -0.11541400 0.02076900
v -0.09226500 -0.11541400 0.02076900
v -0.09226500 -0.11534700 0.02095100
v -0.09226500 -0.11534700 0.02095100
v -0.09226500 -0.11534700 0.02095100
v -0.09226500 -0.11534700 0.02095100
v -0.09226500 -0.11534700 0.02095100
v -0.09125300 -0.11554600 0.02040600
v -0.09125300 -0.11554600 0.02040600
v -0.09125300 -0.11554600 0.02040600
v -0.09024100 -0.11548000 0.02058800
v -0.09024100 -0.11548000 0.02058800
v -0.09024100 -0.11548000 0.02058800
v -0.09125300 -0.11541400 0.02076900
v -0.09125300 -0.11541400 0.02076900
v -0.09125300 -0.11548000 0.02058800
v -0.09125300 -0.11548000 0.02058800
v -0.09125300 -0.11548000 0.02058800
v -0.09125300 -0.11548000 0.02058800
v -0.09024100 -0.11561200 0.02022400
v -0.09024100 -0.11561200 0.02022400
v -0.09024100 -0.11561200 0.02022400
v -0.09024100 -0.11561200 0.02022400
v -0.09125300 -0.11561200 0.02022400
v -0.09125300 -0.11561200 0.02022400
v -0.09125300 -0.11561200 0.02022400
v -0.09024100 -0.11574100 0.01985800
v -0.09024100 -0.11574100 0.01985800
v -0.09024100 -0.11574100 0.01985800
v -0.09024100 -0.11574100 0.01985800
v -0.08922900 -0.11567600 0.02004100
v -0.08922900 -0.11567600 0.02004100
v -0.08922900 -0.11567600 0.02004100
v -0.08922900 -0.11574100 0.01985800
v -0.08922900 -0.11574100 0.01985800
v -0.08922900 -0.11574100 0.01985800
v -0.08922900 -0.11574100 0.01985800
v -0.08659800 -0.11525000 0.02120800
v -0.08659800 -0.11525000 0.02120800
v -0.08700300 -0.11525000 0.02120800
v -0.08700300 -0.11525000 0.02120800
v -0.08740800 -0.11525000 0.02120800
v -0.08781200 -0.11525000 0.02120800
v -0.08781200 -0.11525000 0.02120800
v -0.08821700 -0.11525000 0.02120800
v -0.08821700 -0.11525000 0.02120800
v -0.08862200 -0.11525000 0.02120800
v -0.08862200 -0.11525000 0.02120800
v -0.08902700 -0.11525000 0.02120800
v -0.08902700 -0.11525000 0.02120800
v -0.08943200 -0.11525000 0.02120800
v -0.08943200 -0.11525000 0.02120800
v -0.08943200 -0.11525000 0.02120800
v -0.08983300 -0.11524200 0.02122800
v -0.08983300 -0.11524200 0.02122800
v -0.09022300 -0.11521800 0.02129300
v -0.09022300 -0.11521800 0.02129300
v -0.09022300 -0.11521800 0.02129300
v -0.09060100 -0.11517600 0.02140300
v -0.09060100 -0.11517600 0.02140300
v -0.09060100 -0.11517600 0.02140300
v -0.09096700 -0.11511500 0.02156200
v -0.09096700 -0.11511500 0.02156200
v -0.09096700 -0.11511500 0.02156200
v -0.09130100 -0.11503800 0.02176100
v -0.09130100 -0.11503800 0.02176100
v -0.09130100 -0.11503800 0.02176100
v -0.09161200 -0.11494500 0.02200000
v -0.09161200 -0.11494500 0.02200000
v -0.09189200 -0.11483800 0.02226900
v -0.09189200 -0.11483800 0.02226900
v -0.09213300 -0.11472100 0.02256000
v -0.09233600 -0.11459000 0.02288200
v -0.09249100 -0.11445000 0.02321900
v -0.09259700 -0.11430200 0.02357000
v -0.09265600 -0.11414400 0.02393600
v -0.09267000 -0.11398400 0.02430000
v -0.09267000 -0.11382100 0.02466600
v -0.09267000 -0.11365600 0.02503000
v -0.08922900 -0.11527900 0.02113100
v -0.08922900 -0.11527900 0.02113100
v -0.08922900 -0.11527900 0.02113100
v -0.08922900 -0.11527900 0.02113100
v -0.09125300 -0.11527900 0.02113100
v -0.09125300 -0.11527900 0.02113100
v -0.09125300 -0.11527900 0.02113100
v -0.09125300 -0.11527900 0.02113100
v -0.09125300 -0.11514200 0.02149300
v -0.09125300 -0.11514200 0.02149300
v -0.09125300 -0.11514200 0.02149300
v -0.09125300 -0.11514200 0.02149300
v -0.09125300 -0.11521100 0.02131200
v -0.09125300 -0.11521100 0.02131200
v -0.09125300 -0.11521100 0.02131200
v -0.09125300 -0.11521100 0.02131200
v -0.09267000 -0.11326600 0.02752600
v -0.09267000 -0.11412300 0.02568900
v -0.09429000 -0.11326600 0.02752600
v -0.09429000 -0.11412300 0.02568900
v -0.09348000 -0.11412300 0.02568900
v -0.09267000 -0.11412300 0.02568900
v -0.09348000 -0.11412300 0.02568900
v -0.09429000 -0.11412300 0.02568900
v -0.08619300 -0.11646500 0.01990600
v -0.08619300 -0.11646500 0.01990600
v -0.08619300 -0.11632900 0.02029500
v -0.08619300 -0.11632900 0.02029500
v -0.08619300 -0.11632900 0.02029500
v -0.08619300 -0.11632900 0.02029500
v -0.08619300 -0.11619000 0.02068300
v -0.08619300 -0.11619000 0.02068300
v -0.08619300 -0.11619000 0.02068300
v -0.08619300 -0.11604900 0.02106900
v -0.08619300 -0.11604900 0.02106900
v -0.08619300 -0.11604900 0.02106900
v -0.08619300 -0.11590500 0.02145500
v -0.09024100 -0.11593400 0.02137800
v -0.09024100 -0.11593400 0.02137800
v -0.09024100 -0.11593400 0.02137800
v -0.09024100 -0.11620500 0.02064300
v -0.09024100 -0.11620500 0.02064300
v -0.09024100 -0.11620500 0.02064300
v -0.08821700 -0.11620500 0.02064300
v -0.08821700 -0.11620500 0.02064300
v -0.08821700 -0.11620500 0.02064300
v -0.09024100 -0.11633600 0.02027500
v -0.09024100 -0.11633600 0.02027500
v -0.09024100 -0.11633600 0.02027500
v -0.09024100 -0.11633600 0.02027500
v -0.08821700 -0.11633600 0.02027500
v -0.08821700 -0.11633600 0.02027500
v -0.08720500 -0.11633600 0.02027500
v -0.08720500 -0.11633600 0.02027500
v -0.08720500 -0.11633600 0.02027500
v -0.08720500 -0.11633600 0.02027500
v -0.08821700 -0.11640100 0.02009000
v -0.08821700 -0.11640100 0.02009000
v -0.08821700 -0.11640100 0.02009000
v -0.08720500 -0.11640100 0.02009000
v -0.08720500 -0.11640100 0.02009000
v -0.08720500 -0.11640100 0.02009000
v -0.08720500 -0.11640100 0.02009000
v -0.08720500 -0.11640100 0.02009000
v -0.08720500 -0.11620500 0.02064300
v -0.08720500 -0.11620500 0.02064300
v -0.08720500 -0.11620500 0.02064300
v -0.08720500 -0.11620500 0.02064300
v -0.08821700 -0.11627100 0.02045900
v -0.08821700 -0.11627100 0.02045900
v -0.08821700 -0.11627100 0.02045900
v -0.08720500 -0.11627100 0.02045900
v -0.08720500 -0.11627100 0.02045900
v -0.08720500 -0.11627100 0.02045900
v -0.08720500 -0.11627100 0.02045900
v -0.08720500 -0.11627100 0.02045900
v -0.08821700 -0.11593400 0.02137800
v -0.08821700 -0.11593400 0.02137800
v -0.08821700 -0.11593400 0.02137800
v -0.08821700 -0.11593400 0.02137800
v -0.09024100 -0.11607100 0.02101100
v -0.09024100 -0.11607100 0.02101100
v -0.09024100 -0.11607100 0.02101100
v -0.08821700 -0.11607100 0.02101100
v -0.08821700 -0.11607100 0.02101100
v -0.08821700 -0.11607100 0.02101100
v -0.08720500 -0.11607100 0.02101100
v -0.08720500 -0.11607100 0.02101100
v -0.08720500 -0.11607100 0.02101100
v -0.08821700 -0.11613800 0.02082700
v -0.08821700 -0.11613800 0.02082700
v -0.08821700 -0.11613800 0.02082700
v -0.08720500 -0.11613800 0.02082700
v -0.08720500 -0.11613800 0.02082700
v -0.08720500 -0.11613800 0.02082700
v -0.08720500 -0.11613800 0.02082700
v -0.08720500 -0.11613800 0.02082700
v -0.08720500 -0.11593400 0.02137800
v -0.08720500 -0.11593400 0.02137800
v -0.08720500 -0.11593400 0.02137800
v -0.08720500 -0.11593400 0.02137800
v -0.08821700 -0.11600300 0.02119500
v -0.08821700 -0.11600300 0.02119500
v -0.08821700 -0.11600300 0.02119500
v -0.08720500 -0.11600300 0.02119500
v -0.08720500 -0.11600300 0.02119500
v -0.08720500 -0.11600300 0.02119500
v -0.09429000 -0.11428400 0.02533900
v -0.09429000 -0.11444400 0.02498800
v -0.09429000 -0.11460100 0.02463600
v -0.09428400 -0.11475600 0.02428300
v -0.09425300 -0.11490900 0.02393000
v -0.09419500 -0.11505700 0.02358100
v -0.09410800 -0.11520100 0.02323500
v -0.09399000 -0.11534100 0.02289500
v -0.09399000 -0.11534100 0.02289500
v -0.09384300 -0.11547400 0.02256500
v -0.09384300 -0.11547400 0.02256500
v -0.09384300 -0.11547400 0.02256500
v -0.09366700 -0.11560000 0.02224800
v -0.09366700 -0.11560000 0.02224800
v -0.09346500 -0.11571800 0.02194600
v -0.09346500 -0.11571800 0.02194600
v -0.09346500 -0.11571800 0.02194600
v -0.09323600 -0.11582900 0.02165700
v -0.09323600 -0.11582900 0.02165700
v -0.09323600 -0.11582900 0.02165700
v -0.09323600 -0.11582900 0.02165700
v -0.09298800 -0.11593100 0.02138700
v -0.09298800 -0.11593100 0.02138700
v -0.09271700 -0.11602700 0.02112900
v -0.09242800 -0.11611500 0.02089000
v -0.09242800 -0.11611500 0.02089000
v -0.09242800 -0.11611500 0.02089000
v -0.09212400 -0.11619300 0.02067600
v -0.09212400 -0.11619300 0.02067600
v -0.09180000 -0.11626200 0.02048300
v -0.09180000 -0.11626200 0.02048300
v -0.09146300 -0.11632100 0.02031700
v -0.09146300 -0.11632100 0.02031700
v -0.09146300 -0.11632100 0.02031700
v -0.09111300 -0.11637000 0.02017900
v -0.09111300 -0.11637000 0.02017900
v -0.09111300 -0.11637000 0.02017900
v -0.09074900 -0.11640900 0.02006800
v -0.09074900 -0.11640900 0.02006800
v -0.09037900 -0.11643700 0.01998700
v -0.09037900 -0.11643700 0.01998700
v -0.09000300 -0.11645500 0.01993500
v -0.09000300 -0.11645500 0.01993500
v -0.09000300 -0.11645500 0.01993500
v -0.08962200 -0.11646400 0.01990900
v -0.08924000 -0.11646500 0.01990600
v -0.08924000 -0.11646500 0.01990600
v -0.08885900 -0.11646500 0.01990600
v -0.08885900 -0.11646500 0.01990600
v -0.08847800 -0.11646500 0.01990600
v -0.08847800 -0.11646500 0.01990600
v -0.08809800 -0.11646500 0.01990600
v -0.08809800 -0.11646500 0.01990600
v -0.08771700 -0.11646500 0.01990600
v -0.08771700 -0.11646500 0.01990600
v -0.08771700 -0.11646500 0.01990600
v -0.08733600 -0.11646500 0.01990600
v -0.08733600 -0.11646500 0.01990600
v -0.08695500 -0.11646500 0.01990600
v -0.08695500 -0.11646500 0.01990600
v -0.08657400 -0.11646500 0.01990600
v -0.08657400 -0.11646500 0.01990600
v -0.09327800 -0.11536700 0.02283100
v -0.09327800 -0.11536700 0.02283100
v -0.09327800 -0.11536700 0.02283100
v -0.09327800 -0.11536700 0.02283100
v -0.09226500 -0.11565500 0.02210700
v -0.09226500 -0.11565500 0.02210700
v -0.09226500 -0.11565500 0.02210700
v -0.09226500 -0.11551200 0.02247000
v -0.09226500 -0.11551200 0.02247000
v -0.09226500 -0.11551200 0.02247000
v -0.09226500 -0.11551200 0.02247000
v -0.09327800 -0.11551200 0.02247000
v -0.09327800 -0.11551200 0.02247000
v -0.09327800 -0.11551200 0.02247000
v -0.09226500 -0.11544000 0.02265000
v -0.09226500 -0.11544000 0.02265000
v -0.09226500 -0.11544000 0.02265000
v -0.09226500 -0.11544000 0.02265000
v -0.09327800 -0.11544000 0.02265000
v -0.09327800 -0.11544000 0.02265000
v -0.09327800 -0.11544000 0.02265000
v -0.09327800 -0.11544000 0.02265000
v -0.09327800 -0.11565500 0.02210700
v -0.09327800 -0.11565500 0.02210700
v -0.09327800 -0.11565500 0.02210700
v -0.09226500 -0.11558400 0.02228800
v -0.09226500 -0.11558400 0.02228800
v -0.09226500 -0.11558400 0.02228800
v -0.09226500 -0.11558400 0.02228800
v -0.09327800 -0.11558400 0.02228800
v -0.09327800 -0.11558400 0.02228800
v -0.09327800 -0.11558400 0.02228800
v -0.09327800 -0.11558400 0.02228800
v -0.09226500 -0.11593400 0.02137800
v -0.09226500 -0.11593400 0.02137800
v -0.09226500 -0.11593400 0.02137800
v -0.09226500 -0.11579600 0.02174300
v -0.09327800 -0.11579600 0.02174300
v -0.09327800 -0.11579600 0.02174300
v -0.09327800 -0.11579600 0.02174300
v -0.09226500 -0.11572600 0.02192500
v -0.09226500 -0.11572600 0.02192500
v -0.09226500 -0.11572600 0.02192500
v -0.09226500 -0.11572600 0.02192500
v -0.09226500 -0.11586500 0.02156000
v -0.09226500 -0.11586500 0.02156000
v -0.09226500 -0.11607100 0.02101100
v -0.09226500 -0.11607100 0.02101100
v -0.09226500 -0.11607100 0.02101100
v -0.09226500 -0.11600300 0.02119500
v -0.09226500 -0.11600300 0.02119500
v -0.09226500 -0.11600300 0.02119500
v -0.09125300 -0.11620500 0.02064300
v -0.09125300 -0.11620500 0.02064300
v -0.09125300 -0.11620500 0.02064300
v -0.09024100 -0.11613800 0.02082700
v -0.09024100 -0.11613800 0.02082700
v -0.09024100 -0.11613800 0.02082700
v -0.09125300 -0.11607100 0.02101100
v -0.09125300 -0.11607100 0.02101100
v -0.09125300 -0.11607100 0.02101100
v -0.09125300 -0.11607100 0.02101100
v -0.09125300 -0.11613800 0.02082700
v -0.09125300 -0.11613800 0.02082700
v -0.09125300 -0.11613800 0.02082700
v -0.09024100 -0.11627100 0.02045900
v -0.09024100 -0.11627100 0.02045900
v -0.09024100 -0.11627100 0.02045900
v -0.09125300 -0.11627100 0.02045900
v -0.09125300 -0.11627100 0.02045900
v -0.09125300 -0.11627100 0.02045900
v -0.09024100 -0.11640100 0.02009000
v -0.09024100 -0.11640100 0.02009000
v -0.09024100 -0.11640100 0.02009000
v -0.09024100 -0.11640100 0.02009000
v -0.09024100 -0.11640100 0.02009000
v -0.09024100 -0.11640100 0.02009000
v -0.08922900 -0.11633600 0.02027500
v -0.08922900 -0.11633600 0.02027500
v -0.08922900 -0.11640100 0.02009000
v -0.08922900 -0.11640100 0.02009000
v -0.08922900 -0.11640100 0.02009000
v -0.08922900 -0.11640100 0.02009000
v -0.08659800 -0.11590500 0.02145500
v -0.08700300 -0.11590500 0.02145500
v -0.08700300 -0.11590500 0.02145500
v -0.08740800 -0.11590500 0.02145500
v -0.08740800 -0.11590500 0.02145500
v -0.08781200 -0.11590500 0.02145500
v -0.08781200 -0.11590500 0.02145500
v -0.08781200 -0.11590500 0.02145500
v -0.08821700 -0.11590500 0.02145500
v -0.08862200 -0.11590500 0.02145500
v -0.08862200 -0.11590500 0.02145500
v -0.08862200 -0.11590500 0.02145500
v -0.08902700 -0.11590500 0.02145500
v -0.08902700 -0.11590500 0.02145500
v -0.08943200 -0.11590500 0.02145500
v -0.08943200 -0.11590500 0.02145500
v -0.08943200 -0.11590500 0.02145500
v -0.08983300 -0.11589700 0.02147600
v -0.08983300 -0.11589700 0.02147600
v -0.09022300 -0.11587300 0.02154100
v -0.09022300 -0.11587300 0.02154100
v -0.09022300 -0.11587300 0.02154100
v -0.09060100 -0.11583000 0.02165200
v -0.09060100 -0.11583000 0.02165200
v -0.09060100 -0.11583000 0.02165200
v -0.09096700 -0.11576900 0.02181300
v -0.09096700 -0.11576900 0.02181300
v -0.09096700 -0.11576900 0.02181300
v -0.09130100 -0.11569100 0.02201400
v -0.09130100 -0.11569100 0.02201400
v -0.09161200 -0.11559700 0.02225600
v -0.09161200 -0.11559700 0.02225600
v -0.09161200 -0.11559700 0.02225600
v -0.09189200 -0.11548900 0.02252800
v -0.09189200 -0.11548900 0.02252800
v -0.09213300 -0.11537000 0.02282300
v -0.09213300 -0.11537000 0.02282300
v -0.09213300 -0.11537000 0.02282300
v -0.09233600 -0.11523700 0.02314900
v -0.09249100 -0.11509600 0.02348900
v -0.09259700 -0.11494500 0.02384500
v -0.09265600 -0.11478600 0.02421400
v -0.09267000 -0.11462500 0.02458400
v -0.09267000 -0.11446000 0.02495300
v -0.09267000 -0.11429200 0.02532200
v -0.08922900 -0.11593400 0.02137800
v -0.08922900 -0.11593400 0.02137800
v -0.08922900 -0.11593400 0.02137800
v -0.08922900 -0.11593400 0.02137800
v -0.08922900 -0.11593400 0.02137800
v -0.09125300 -0.11593400 0.02137800
v -0.09125300 -0.11593400 0.02137800
v -0.09125300 -0.11579600 0.02174300
v -0.09125300 -0.11579600 0.02174300
v -0.09125300 -0.11579600 0.02174300
v -0.09125300 -0.11579600 0.02174300
v -0.09125300 -0.11586500 0.02156000
v -0.09125300 -0.11586500 0.02156000
v -0.09125300 -0.11586500 0.02156000
v -0.09429000 -0.11348800 0.02539300
v -0.09429000 -0.11412300 0.02568900
v -0.09428400 -0.11411500 0.02400400
v -0.09399000 -0.11469200 0.02263200
v -0.09074900 -0.11574800 0.01983700
v -0.08924000 -0.11580400 0.01967700
v -0.08619300 -0.11580400 0.01967700
v -0.08619300 -0.11646500 0.01990600
v -0.09429000 -0.11364800 0.02504700
v -0.09429000 -0.11380600 0.02470000
v -0.09429000 -0.11380600 0.02470000
v -0.09429000 -0.11396100 0.02435300
v -0.09425300 -0.11426600 0.02365400
v -0.09419500 -0.11441200 0.02330900
v -0.09410800 -0.11455500 0.02296800
v -0.09384300 -0.11482400 0.02230500
v -0.09366700 -0.11494800 0.02199200
v -0.09346500 -0.11506500 0.02169300
v -0.09323600 -0.11517500 0.02140700
v -0.09298800 -0.11527600 0.02114000
v -0.09271700 -0.11537000 0.02088600
v -0.09242700 -0.11545700 0.02065000
v -0.09212400 -0.11553500 0.02043800
v -0.09180000 -0.11560300 0.02024700
v -0.09146300 -0.11566200 0.02008300
v -0.09111300 -0.11571000 0.01994600
v -0.09037900 -0.11577600 0.01975700
v -0.09000300 -0.11579400 0.01970500
v -0.08962200 -0.11580300 0.01968000
v -0.08885900 -0.11580400 0.01967700
v -0.08847800 -0.11580400 0.01967700
v -0.08809800 -0.11580400 0.01967700
v -0.08771700 -0.11580400 0.01967700
v -0.08733600 -0.11580400 0.01967700
v -0.08695500 -0.11580400 0.01967700
v -0.08695500 -0.11580400 0.01967700
v -0.08657400 -0.11580400 0.01967700
v -0.08657400 -0.11580400 0.01967700
v -0.08619300 -0.11613500 0.01979100
v -0.08619300 -0.11613500 0.01979100
v -0.08657400 -0.11646500 0.01990600
v -0.08657400 -0.11646500 0.01990600
v -0.08695500 -0.11646500 0.01990600
v -0.08733600 -0.11646500 0.01990600
v -0.08771700 -0.11646500 0.01990600
v -0.08809800 -0.11646500 0.01990600
v -0.08847800 -0.11646500 0.01990600
v -0.08885900 -0.11646500 0.01990600
v -0.08924000 -0.11646500 0.01990600
v -0.08962200 -0.11646400 0.01990900
v -0.09000300 -0.11645500 0.01993500
v -0.09037900 -0.11643700 0.01998700
v -0.09074900 -0.11640900 0.02006800
v -0.09111300 -0.11637000 0.02017900
v -0.09146300 -0.11632100 0.02031700
v -0.09180000 -0.11626200 0.02048300
v -0.09212400 -0.11619300 0.02067600
v -0.09242800 -0.11611500 0.02089000
v -0.09271700 -0.11602700 0.02112900
v -0.09298800 -0.11593100 0.02138700
v -0.09323600 -0.11582900 0.02165700
v -0.09346500 -0.11571800 0.02194600
v -0.09366700 -0.11560000 0.02224800
v -0.09384300 -0.11547400 0.02256500
v -0.09399000 -0.11534100 0.02289500
v -0.09410800 -0.11520100 0.02323500
v -0.09419500 -0.11505700 0.02358100
v -0.09425300 -0.11490900 0.02393000
v -0.09428400 -0.11475600 0.02428300
v -0.09429000 -0.11460100 0.02463600
v -0.09429000 -0.11460100 0.02463600
v -0.09429000 -0.11460100 0.02463600
v -0.09429000 -0.11444400 0.02498800
v -0.09429000 -0.11444400 0.02498800
v -0.09429000 -0.11428400 0.02533900
v -0.09429000 -0.11380600 0.02554100
v -0.09429000 -0.11263200 0.02723000
v -0.09429000 -0.11326600 0.02752600
v -0.09429000 -0.11348800 0.02539300
v -0.09429000 -0.11412300 0.02568900
v -0.09429000 -0.11380600 0.02554100
v -0.09267000 -0.11263200 0.02723000
v -0.09267000 -0.11326600 0.02752600
v -0.09429000 -0.11263200 0.02723000
v -0.09429000 -0.11326600 0.02752600
v -0.09267000 -0.11348800 0.02539300
v -0.09267000 -0.11380600 0.02554100
v -0.09267000 -0.11412300 0.02568900
v -0.09267000 -0.11263200 0.02723000
v -0.09267000 -0.11326600 0.02752600
v -0.08619300 -0.11525000 0.02120800
v -0.08619300 -0.11590500 0.02145500
v -0.09267000 -0.11348800 0.02539300
v -0.09267000 -0.11380600 0.02554100
v -0.09267000 -0.11412300 0.02568900
v -0.08659800 -0.11525000 0.02120800
v -0.08700300 -0.11525000 0.02120800
v -0.08740800 -0.11525000 0.02120800
v -0.08781200 -0.11525000 0.02120800
v -0.08821700 -0.11525000 0.02120800
v -0.08821700 -0.11525000 0.02120800
v -0.08862200 -0.11525000 0.02120800
v -0.08862200 -0.11525000 0.02120800
v -0.08902700 -0.11525000 0.02120800
v -0.08902700 -0.11525000 0.02120800
v -0.08943200 -0.11525000 0.02120800
v -0.08943200 -0.11525000 0.02120800
v -0.08983300 -0.11524200 0.02122800
v -0.09022300 -0.11521800 0.02129300
v -0.09060100 -0.11517600 0.02140300
v -0.09096700 -0.11511500 0.02156200
v -0.09130100 -0.11503800 0.02176100
v -0.09161200 -0.11494500 0.02200000
v -0.09189200 -0.11483800 0.02226900
v -0.09213300 -0.11472100 0.02256000
v -0.09233600 -0.11459000 0.02288200
v -0.09249100 -0.11445000 0.02321900
v -0.09259700 -0.11430200 0.02357000
v -0.09265600 -0.11414400 0.02393600
v -0.09267000 -0.11398400 0.02430000
v -0.09267000 -0.11382100 0.02466600
v -0.09267000 -0.11382100 0.02466600
v -0.09267000 -0.11382100 0.02466600
v -0.09267000 -0.11365600 0.02503000
v -0.09267000 -0.11429200 0.02532200
v -0.09267000 -0.11429200 0.02532200
v -0.09267000 -0.11446000 0.02495300
v -0.09267000 -0.11446000 0.02495300
v -0.09267000 -0.11462500 0.02458400
v -0.09267000 -0.11462500 0.02458400
v -0.09265600 -0.11478600 0.02421400
v -0.09259700 -0.11494500 0.02384500
v -0.09249100 -0.11509600 0.02348900
v -0.09233600 -0.11523700 0.02314900
v -0.09213300 -0.11537000 0.02282300
v -0.09189200 -0.11548900 0.02252800
v -0.09161200 -0.11559700 0.02225600
v -0.09130100 -0.11569100 0.02201400
v -0.09096700 -0.11576900 0.02181300
v -0.09060100 -0.11583000 0.02165200
v -0.09022300 -0.11587300 0.02154100
v -0.08983300 -0.11589700 0.02147600
v -0.08943200 -0.11590500 0.02145500
v -0.08943200 -0.11590500 0.02145500
v -0.08902700 -0.11590500 0.02145500
v -0.08862200 -0.11590500 0.02145500
v -0.08821700 -0.11590500 0.02145500
v -0.08781200 -0.11590500 0.02145500
v -0.08740800 -0.11590500 0.02145500
v -0.08700300 -0.11590500 0.02145500
v -0.08659800 -0.11590500 0.02145500
v -0.08619300 -0.11557800 0.02133100
v -0.08679800 -0.11557800 0.02133100
v -0.08800800 -0.11557800 0.02133100
v -0.08861200 -0.11557800 0.02133100
v -0.08861200 -0.11557800 0.02133100
v -0.08921700 -0.11557800 0.02133100
v -0.08921700 -0.11557800 0.02133100
v -0.09040900 -0.11552700 0.02146500
v -0.08982200 -0.11557000 0.02135100
v -0.09096700 -0.11544200 0.02168800
v -0.09146400 -0.11531800 0.02200700
v -0.09189600 -0.11516200 0.02240300
v -0.09224200 -0.11498000 0.02285400
v -0.09249200 -0.11477200 0.02335700
v -0.09267000 -0.11430500 0.02444200
v -0.09267000 -0.11430500 0.02444200
v -0.09267000 -0.11430500 0.02444200
v -0.09263300 -0.11454400 0.02389300
v -0.09267000 -0.11405700 0.02499400
v -0.09267000 -0.11405700 0.02499400
v -0.09267000 -0.11405700 0.02499400
v -0.09267000 -0.11405700 0.02499400
v -0.08619300 -0.11580400 0.01967700
v -0.08619300 -0.11646500 0.01990600
v -0.08619300 -0.11525000 0.02120800
v -0.08619300 -0.11557800 0.02133100
v -0.08619300 -0.11557800 0.02133100
v -0.08619300 -0.11590500 0.02145500
v -0.08619300 -0.11566900 0.02006100
v -0.08619300 -0.11553200 0.02044400
v -0.08619300 -0.11553200 0.02044400
v -0.08619300 -0.11539300 0.02082600
v -0.08619300 -0.11539300 0.02082600
v -0.08619300 -0.11604900 0.02106900
v -0.08619300 -0.11604900 0.02106900
v -0.08619300 -0.11619000 0.02068300
v -0.08619300 -0.11619000 0.02068300
v -0.08619300 -0.11632900 0.02029500
v -0.08619300 -0.11632900 0.02029500
v -0.08619300 -0.11613500 0.01979100
v -0.08619300 -0.11613500 0.01979100
vn 0.00000000 0.90630000 -0.42260000
vn 0.00000000 0.90630000 -0.42260000
vn 0.00000000 0.90630000 -0.42260000
vn 0.00000000 0.90630000 -0.42260000
vn 0.00000000 0.90630000 -0.42260000
vn 0.00000000 0.90630000 -0.42270000
vn 0.00000000 0.90630000 -0.42260000
vn 0.00000000 0.90630000 -0.42260000
vn -0.00000000 0.94480000 -0.32750000
vn -0.00000000 0.94490000 -0.32740000
vn 0.00000000 0.94270000 -0.33370000
vn 0.00000000 0.94260000 -0.33380000
vn -0.00000000 0.94040000 -0.34020000
vn -0.00000000 0.94030000 -0.34020000
vn 0.00000000 0.94040000 -0.34000000
vn -0.00000000 0.93800000 -0.34650000
vn 0.00000000 0.93810000 -0.34640000
vn 0.00000000 0.93790000 -0.34680000
vn -0.00000000 0.93570000 -0.35280000
vn -0.00000000 0.93600000 -0.35190000
vn 0.00000000 0.93620000 -0.35140000
vn 0.00000000 0.93610000 -0.35160000
vn -0.00000000 0.93610000 -0.35180000
vn 0.00000000 0.94060000 -0.33940000
vn -0.00000000 0.94060000 -0.33950000
vn 0.00000000 0.94060000 -0.33960000
vn 0.00000000 0.94060000 -0.33960000
vn -0.00000000 0.94060000 -0.33950000
vn 0.00000000 0.94060000 -0.33940000
vn -0.00000000 0.94270000 -0.33350000
vn -0.00000000 0.94280000 -0.33340000
vn -0.00000000 0.94280000 -0.33350000
vn -0.00000000 0.94280000 -0.33350000
vn 0.00000000 0.94280000 -0.33330000
vn -0.00000000 0.94270000 -0.33350000
vn -0.00000000 0.94280000 -0.33340000
vn -0.00000000 0.94280000 -0.33350000
vn -0.00000000 0.94280000 -0.33340000
vn 0.00000000 0.94380000 -0.33050000
vn -0.00000000 0.94390000 -0.33030000
vn -0.00000000 0.94380000 -0.33060000
vn 0.00000000 0.94380000 -0.33040000
vn -0.00000000 0.94390000 -0.33040000
vn 0.00000000 0.94380000 -0.33040000
vn 0.00010000 0.94390000 -0.33040000
vn -0.00000000 0.94390000 -0.33030000
vn 0.00000000 0.94380000 -0.33050000
vn -0.00000000 0.94060000 -0.33950000
vn 0.00000000 0.94070000 -0.33930000
vn 0.00000000 0.94170000 -0.33640000
vn 0.00000000 0.94160000 -0.33660000
vn -0.00000000 0.94170000 -0.33650000
vn 0.00000000 0.94170000 -0.33630000
vn -0.00010000 0.94160000 -0.33670000
vn -0.00000000 0.94170000 -0.33650000
vn 0.00000000 0.94170000 -0.33640000
vn 0.00000000 0.93610000 -0.35170000
vn 0.00000000 0.93620000 -0.35150000
vn 0.00000000 0.93610000 -0.35160000
vn -0.00000000 0.93610000 -0.35180000
vn 0.00000000 0.93840000 -0.34560000
vn 0.00000000 0.93840000 -0.34550000
vn 0.00000000 0.93840000 -0.34550000
vn 0.00000000 0.93840000 -0.34560000
vn 0.00000000 0.93840000 -0.34570000
vn 0.00000000 0.93840000 -0.34550000
vn 0.00000000 0.93950000 -0.34240000
vn 0.00000000 0.93950000 -0.34250000
vn -0.00000000 0.93950000 -0.34260000
vn -0.00000000 0.93950000 -0.34260000
vn 0.00000000 0.93950000 -0.34250000
vn 0.00000000 0.93950000 -0.34240000
vn 0.00000000 0.93620000 -0.35150000
vn 0.00000000 0.93610000 -0.35170000
vn 0.00000000 0.93610000 -0.35160000
vn -0.00000000 0.93610000 -0.35180000
vn 0.00000000 0.93620000 -0.35140000
vn 0.00000000 0.93730000 -0.34850000
vn -0.00000000 0.93720000 -0.34870000
vn 0.00000000 0.93730000 -0.34860000
vn 0.00020000 0.93710000 -0.34910000
vn 0.00000000 0.93730000 -0.34850000
vn 0.00000000 0.93730000 -0.34860000
vn -0.00000000 0.93720000 -0.34870000
vn 0.00000000 0.90900000 -0.41690000
vn 0.00000000 0.91160000 -0.41110000
vn 0.00010000 0.91420000 -0.40530000
vn 0.00010000 0.91670000 -0.39960000
vn 0.00010000 0.91920000 -0.39390000
vn 0.00010000 0.92160000 -0.38820000
vn 0.00000000 0.92400000 -0.38240000
vn 0.00000000 0.92640000 -0.37650000
vn 0.00000000 0.92640000 -0.37660000
vn -0.00000000 0.92630000 -0.37670000
vn -0.00020000 0.92860000 -0.37100000
vn 0.00000000 0.92850000 -0.37120000
vn -0.00000000 0.92860000 -0.37120000
vn 0.00000000 0.93070000 -0.36590000
vn 0.00000000 0.93060000 -0.36600000
vn 0.00000000 0.93260000 -0.36100000
vn 0.00010000 0.93260000 -0.36090000
vn 0.00000000 0.93260000 -0.36090000
vn 0.00010000 0.93440000 -0.35620000
vn 0.00000000 0.93440000 -0.35620000
vn -0.00000000 0.93440000 -0.35610000
vn -0.00010000 0.93440000 -0.35620000
vn -0.00000000 0.93610000 -0.35180000
vn 0.00000000 0.93610000 -0.35170000
vn 0.00000000 0.93770000 -0.34750000
vn 0.00000000 0.93780000 -0.34730000
vn -0.00000000 0.93900000 -0.34380000
vn -0.00000000 0.93910000 -0.34360000
vn 0.00000000 0.93920000 -0.34340000
vn -0.00000000 0.94040000 -0.34020000
vn 0.00000000 0.94040000 -0.34000000
vn -0.00000000 0.94050000 -0.33990000
vn -0.00000000 0.94150000 -0.33700000
vn 0.00000000 0.94150000 -0.33690000
vn -0.00000000 0.94160000 -0.33670000
vn -0.00000000 0.94260000 -0.33400000
vn -0.00000000 0.94250000 -0.33410000
vn -0.00000000 0.94250000 -0.33420000
vn 0.00000000 0.94340000 -0.33170000
vn -0.00000000 0.94330000 -0.33190000
vn -0.00010000 0.94330000 -0.33190000
vn 0.00000000 0.94400000 -0.32980000
vn -0.00000000 0.94410000 -0.32960000
vn -0.00000000 0.94440000 -0.32890000
vn 0.00000000 0.94470000 -0.32780000
vn 0.00000000 0.94480000 -0.32770000
vn -0.00000000 0.94480000 -0.32780000
vn -0.00000000 0.94490000 -0.32730000
vn -0.00000000 0.94490000 -0.32730000
vn -0.00000000 0.94490000 -0.32740000
vn -0.00000000 0.94490000 -0.32740000
vn -0.00000000 0.94480000 -0.32760000
vn -0.00000000 0.94490000 -0.32730000
vn -0.00000000 0.94480000 -0.32760000
vn -0.00000000 0.94490000 -0.32730000
vn -0.00000000 0.94490000 -0.32750000
vn -0.00000000 0.94490000 -0.32730000
vn -0.00000000 0.94490000 -0.32740000
vn -0.00000000 0.94490000 -0.32730000
vn -0.00000000 0.94490000 -0.32750000
vn -0.00000000 0.94490000 -0.32740000
vn -0.00000000 0.94490000 -0.32740000
vn -0.00000000 0.94480000 -0.32750000
vn -0.00000000 0.94490000 -0.32740000
vn 0.00000000 0.92690000 -0.37540000
vn 0.00000000 0.92680000 -0.37550000
vn -0.00000000 0.92680000 -0.37560000
vn 0.00000000 0.93150000 -0.36360000
vn 0.00000000 0.93150000 -0.36370000
vn -0.00000000 0.92920000 -0.36970000
vn 0.00000000 0.92920000 -0.36960000
vn 0.00000000 0.92920000 -0.36960000
vn 0.00000000 0.92920000 -0.36950000
vn -0.00000000 0.92920000 -0.36970000
vn -0.00000000 0.92800000 -0.37260000
vn 0.00000000 0.92800000 -0.37250000
vn -0.00000000 0.92800000 -0.37260000
vn 0.00000000 0.92810000 -0.37240000
vn -0.00000000 0.93160000 -0.36340000
vn 0.00000000 0.93160000 -0.36350000
vn 0.00000000 0.93160000 -0.36360000
vn 0.00000000 0.93150000 -0.36360000
vn 0.00000000 0.93040000 -0.36670000
vn -0.00000000 0.93040000 -0.36660000
vn -0.00000000 0.93030000 -0.36670000
vn -0.00000000 0.93040000 -0.36650000
vn -0.00000000 0.93030000 -0.36670000
vn -0.00000000 0.93040000 -0.36650000
vn 0.00000000 0.93040000 -0.36670000
vn -0.00000000 0.93040000 -0.36660000
vn -0.00000000 0.93620000 -0.35160000
vn 0.00000000 0.93610000 -0.35160000
vn 0.00000000 0.93610000 -0.35170000
vn 0.00000000 0.93390000 -0.35750000
vn 0.00000000 0.93380000 -0.35780000
vn 0.00000000 0.93390000 -0.35760000
vn 0.00000000 0.93390000 -0.35740000
vn -0.00000000 0.93380000 -0.35770000
vn 0.00010000 0.93390000 -0.35760000
vn -0.00000000 0.93380000 -0.35770000
vn 0.00000000 0.93390000 -0.35740000
vn 0.00000000 0.93270000 -0.36080000
vn -0.00000000 0.93270000 -0.36060000
vn 0.00000000 0.93270000 -0.36070000
vn 0.00010000 0.93270000 -0.36050000
vn -0.00000000 0.93270000 -0.36050000
vn -0.00000000 0.93510000 -0.35450000
vn 0.00000000 0.93500000 -0.35470000
vn 0.00000000 0.93500000 -0.35460000
vn -0.00000000 0.93500000 -0.35450000
vn 0.00000000 0.93840000 -0.34550000
vn 0.00000000 0.93840000 -0.34570000
vn 0.00020000 0.93850000 -0.34520000
vn 0.00000000 0.93730000 -0.34870000
vn 0.00000000 0.93730000 -0.34860000
vn 0.00000000 0.93730000 -0.34850000
vn 0.00010000 0.93720000 -0.34870000
vn -0.00000000 0.93720000 -0.34870000
vn 0.00000000 0.94070000 -0.33930000
vn -0.00000000 0.94060000 -0.33950000
vn 0.00000000 0.94060000 -0.33960000
vn 0.00000000 0.93950000 -0.34240000
vn -0.00000000 0.93950000 -0.34260000
vn 0.00000000 0.93950000 -0.34250000
vn 0.00000000 0.93840000 -0.34550000
vn 0.00000000 0.93840000 -0.34560000
vn 0.00000000 0.93960000 -0.34240000
vn 0.00000000 0.93950000 -0.34240000
vn -0.00000000 0.93950000 -0.34270000
vn 0.00000000 0.93950000 -0.34250000
vn -0.00000000 0.94170000 -0.33660000
vn -0.00000000 0.94170000 -0.33650000
vn -0.00000000 0.94180000 -0.33630000
vn 0.00000000 0.94170000 -0.33640000
vn -0.00000000 0.94170000 -0.33660000
vn 0.00000000 0.94170000 -0.33630000
vn 0.00000000 0.94170000 -0.33640000
vn -0.00000000 0.94390000 -0.33030000
vn 0.00000000 0.94380000 -0.33040000
vn -0.00000000 0.94400000 -0.33000000
vn -0.00000000 0.94390000 -0.33040000
vn -0.00000000 0.94270000 -0.33350000
vn 0.00000000 0.94280000 -0.33330000
vn -0.00000000 0.94280000 -0.33340000
vn -0.00000000 0.94390000 -0.33040000
vn 0.00000000 0.94380000 -0.33040000
vn -0.00000000 0.94390000 -0.33030000
vn 0.00000000 0.94380000 -0.33050000
vn 0.00000000 0.93580000 -0.35260000
vn 0.00000000 0.93590000 -0.35240000
vn 0.00000000 0.93590000 -0.35240000
vn -0.00000000 0.93570000 -0.35290000
vn -0.00000000 0.93570000 -0.35290000
vn 0.00000000 0.93570000 -0.35270000
vn -0.00000000 0.93570000 -0.35290000
vn -0.00000000 0.93570000 -0.35280000
vn 0.00000000 0.93570000 -0.35270000
vn -0.00000000 0.93570000 -0.35280000
vn 0.00000000 0.93560000 -0.35300000
vn 0.00000000 0.93580000 -0.35260000
vn 0.00000000 0.93560000 -0.35300000
vn 0.00000000 0.93560000 -0.35290000
vn 0.00000000 0.93580000 -0.35260000
vn 0.00000000 0.93580000 -0.35270000
vn 0.00000000 0.93560000 -0.35300000
vn -0.00000000 0.93550000 -0.35340000
vn 0.00000000 0.93520000 -0.35420000
vn 0.00000000 0.93510000 -0.35440000
vn -0.00000000 0.93510000 -0.35450000
vn 0.00000000 0.93440000 -0.35620000
vn 0.00020000 0.93440000 -0.35610000
vn 0.00000000 0.93450000 -0.35600000
vn -0.00000000 0.93340000 -0.35880000
vn 0.00010000 0.93350000 -0.35850000
vn -0.00000000 0.93340000 -0.35870000
vn -0.00000000 0.93220000 -0.36210000
vn -0.00000000 0.93210000 -0.36220000
vn 0.00000000 0.93210000 -0.36210000
vn 0.00000000 0.93060000 -0.36610000
vn 0.00000000 0.93060000 -0.36600000
vn -0.00000000 0.92880000 -0.37050000
vn 0.00000000 0.92880000 -0.37060000
vn 0.00000000 0.92690000 -0.37540000
vn 0.00000000 0.92460000 -0.38080000
vn -0.00010000 0.92250000 -0.38590000
vn -0.00000000 0.91990000 -0.39220000
vn 0.00010000 0.91720000 -0.39840000
vn -0.00010000 0.91460000 -0.40440000
vn -0.00010000 0.91180000 -0.41050000
vn -0.00000000 0.90910000 -0.41660000
vn 0.00000000 0.93610000 -0.35170000
vn 0.00000000 0.93610000 -0.35160000
vn 0.00000000 0.93620000 -0.35150000
vn -0.00000000 0.93600000 -0.35190000
vn -0.00000000 0.93620000 -0.35160000
vn 0.00000000 0.93610000 -0.35170000
vn 0.00000000 0.93610000 -0.35160000
vn -0.00000000 0.93610000 -0.35180000
vn 0.00000000 0.93390000 -0.35750000
vn -0.00010000 0.93370000 -0.35790000
vn 0.00000000 0.93380000 -0.35780000
vn 0.00000000 0.93390000 -0.35760000
vn -0.00000000 0.93510000 -0.35450000
vn 0.00000000 0.93500000 -0.35470000
vn -0.00000000 0.93500000 -0.35450000
vn 0.00000000 0.93500000 -0.35460000
vn 0.00000000 -0.90630000 0.42260000
vn 0.00000000 -0.90630000 0.42260000
vn 0.00000000 -0.90630000 0.42260000
vn 0.00000000 -0.90630000 0.42260000
vn 0.00000000 -0.90630000 0.42260000
vn 0.00000000 -0.90630000 0.42270000
vn 0.00000000 -0.90630000 0.42270000
vn 0.00000000 -0.90630000 0.42270000
vn -0.00000000 -0.94490000 0.32730000
vn 0.00000000 -0.94490000 0.32740000
vn -0.00000000 -0.94270000 0.33380000
vn -0.00000000 -0.94260000 0.33390000
vn 0.00000000 -0.94270000 0.33370000
vn 0.00000000 -0.94260000 0.33380000
vn 0.00000000 -0.94040000 0.34000000
vn 0.00000000 -0.94040000 0.34020000
vn 0.00000000 -0.94040000 0.34010000
vn -0.00000000 -0.93800000 0.34660000
vn -0.00000000 -0.93810000 0.34650000
vn 0.00000000 -0.93800000 0.34650000
vn -0.00000000 -0.93570000 0.35290000
vn 0.00000000 -0.93620000 0.35150000
vn -0.00000000 -0.93610000 0.35160000
vn 0.00000000 -0.93620000 0.35160000
vn -0.00000000 -0.94060000 0.33960000
vn -0.00000000 -0.94060000 0.33940000
vn -0.00000000 -0.94060000 0.33950000
vn -0.00000000 -0.94060000 0.33940000
vn -0.00000000 -0.94060000 0.33950000
vn -0.00000000 -0.94060000 0.33960000
vn 0.00000000 -0.94270000 0.33360000
vn -0.00000000 -0.94280000 0.33350000
vn -0.00000000 -0.94270000 0.33350000
vn 0.00000000 -0.94280000 0.33340000
vn 0.00000000 -0.94280000 0.33340000
vn -0.00000000 -0.94270000 0.33350000
vn 0.00000000 -0.94270000 0.33360000
vn 0.00000000 -0.94280000 0.33340000
vn -0.00000000 -0.94270000 0.33350000
vn -0.00000000 -0.94280000 0.33350000
vn -0.00000000 -0.94380000 0.33050000
vn -0.00000000 -0.94380000 0.33040000
vn -0.00000000 -0.94390000 0.33030000
vn -0.00000000 -0.94380000 0.33040000
vn 0.00000000 -0.94390000 0.33040000
vn -0.00000000 -0.94390000 0.33030000
vn -0.00000000 -0.94380000 0.33050000
vn -0.00010000 -0.94390000 0.33030000
vn 0.00000000 -0.94070000 0.33940000
vn -0.00000000 -0.94060000 0.33950000
vn -0.00000000 -0.94060000 0.33940000
vn -0.00000000 -0.94060000 0.33960000
vn -0.00000000 -0.94170000 0.33650000
vn -0.00000000 -0.94170000 0.33660000
vn 0.00000000 -0.94170000 0.33640000
vn 0.00000000 -0.94160000 0.33670000
vn 0.00000000 -0.94170000 0.33640000
vn -0.00000000 -0.94170000 0.33650000
vn 0.00000000 -0.94160000 0.33660000
vn 0.00020000 -0.94160000 0.33670000
vn 0.00000000 -0.93620000 0.35150000
vn -0.00000000 -0.93610000 0.35160000
vn 0.00000000 -0.93620000 0.35160000
vn -0.00000000 -0.93610000 0.35170000
vn 0.00000000 -0.93840000 0.34550000
vn 0.00000000 -0.93840000 0.34560000
vn -0.00000000 -0.93840000 0.34540000
vn -0.00000000 -0.93840000 0.34540000
vn -0.00000000 -0.93850000 0.34530000
vn 0.00000000 -0.93840000 0.34560000
vn 0.00000000 -0.93840000 0.34560000
vn -0.00000000 -0.93850000 0.34530000
vn 0.00000000 -0.93840000 0.34550000
vn -0.00000000 -0.93950000 0.34250000
vn -0.00000000 -0.93940000 0.34270000
vn -0.00000000 -0.93950000 0.34260000
vn -0.00000000 -0.93950000 0.34260000
vn -0.00000000 -0.93940000 0.34270000
vn -0.00000000 -0.93960000 0.34240000
vn -0.00000000 -0.93950000 0.34250000
vn 0.00010000 -0.93940000 0.34270000
vn -0.00000000 -0.93610000 0.35170000
vn 0.00000000 -0.93620000 0.35150000
vn 0.00000000 -0.93620000 0.35160000
vn -0.00000000 -0.93610000 0.35160000
vn -0.00000000 -0.93730000 0.34850000
vn -0.00000000 -0.93720000 0.34870000
vn -0.00000000 -0.93730000 0.34860000
vn -0.00000000 -0.93730000 0.34850000
vn -0.00000000 -0.93720000 0.34870000
vn -0.00000000 -0.93730000 0.34860000
vn -0.00000000 -0.90900000 0.41680000
vn -0.00000000 -0.91160000 0.41110000
vn -0.00010000 -0.91420000 0.40530000
vn -0.00010000 -0.91670000 0.39950000
vn -0.00010000 -0.91920000 0.39390000
vn -0.00010000 -0.92160000 0.38830000
vn -0.00000000 -0.92400000 0.38240000
vn -0.00000000 -0.92640000 0.37650000
vn -0.00000000 -0.92640000 0.37660000
vn 0.00010000 -0.92860000 0.37100000
vn 0.00000000 -0.92850000 0.37120000
vn 0.00000000 -0.92860000 0.37120000
vn -0.00000000 -0.93070000 0.36590000
vn -0.00000000 -0.93060000 0.36600000
vn 0.00000000 -0.93260000 0.36090000
vn -0.00000000 -0.93260000 0.36100000
vn -0.00010000 -0.93260000 0.36090000
vn 0.00000000 -0.93440000 0.35620000
vn -0.00000000 -0.93440000 0.35610000
vn 0.00010000 -0.93440000 0.35610000
vn -0.00010000 -0.93440000 0.35610000
vn -0.00000000 -0.93610000 0.35170000
vn 0.00000000 -0.93610000 0.35180000
vn 0.00000000 -0.93770000 0.34750000
vn 0.00000000 -0.93920000 0.34350000
vn -0.00000000 -0.93920000 0.34340000
vn -0.00000000 -0.93910000 0.34360000
vn -0.00000000 -0.94030000 0.34020000
vn 0.00000000 -0.94040000 0.34010000
vn -0.00000000 -0.94160000 0.33690000
vn -0.00000000 -0.94150000 0.33690000
vn -0.00000000 -0.94250000 0.33430000
vn 0.00000000 -0.94250000 0.33410000
vn 0.00000000 -0.94260000 0.33400000
vn 0.00000000 -0.94340000 0.33180000
vn 0.00000000 -0.94340000 0.33160000
vn 0.00010000 -0.94330000 0.33200000
vn 0.00000000 -0.94390000 0.33010000
vn -0.00000000 -0.94400000 0.32990000
vn 0.00010000 -0.94440000 0.32880000
vn 0.00000000 -0.94440000 0.32890000
vn 0.00000000 -0.94480000 0.32780000
vn 0.00000000 -0.94470000 0.32780000
vn 0.00000000 -0.94480000 0.32770000
vn 0.00000000 -0.94490000 0.32740000
vn -0.00000000 -0.94490000 0.32730000
vn 0.00000000 -0.94490000 0.32750000
vn 0.00000000 -0.94490000 0.32750000
vn -0.00000000 -0.94490000 0.32730000
vn -0.00000000 -0.94480000 0.32750000
vn -0.00000000 -0.94490000 0.32730000
vn 0.00000000 -0.94490000 0.32740000
vn -0.00000000 -0.94480000 0.32750000
vn 0.00000000 -0.94490000 0.32740000
vn -0.00000000 -0.94490000 0.32730000
vn 0.00000000 -0.94490000 0.32750000
vn 0.00000000 -0.94490000 0.32740000
vn 0.00000000 -0.94490000 0.32750000
vn 0.00000000 -0.94490000 0.32750000
vn 0.00000000 -0.94490000 0.32740000
vn 0.00000000 -0.94490000 0.32740000
vn 0.00000000 -0.94490000 0.32750000
vn 0.00000000 -0.92670000 0.37580000
vn -0.00000000 -0.92690000 0.37540000
vn 0.00000000 -0.92680000 0.37550000
vn -0.00000000 -0.92690000 0.37530000
vn 0.00000000 -0.93150000 0.36370000
vn -0.00000000 -0.93160000 0.36350000
vn -0.00000000 -0.93160000 0.36360000
vn -0.00000000 -0.92910000 0.36970000
vn 0.00000000 -0.92920000 0.36960000
vn -0.00000000 -0.92920000 0.36950000
vn -0.00000000 -0.92920000 0.36970000
vn 0.00000000 -0.92920000 0.36960000
vn -0.00000000 -0.92910000 0.36970000
vn -0.00000000 -0.92920000 0.36950000
vn -0.00000000 -0.92800000 0.37260000
vn 0.00000000 -0.92810000 0.37240000
vn 0.00000000 -0.92800000 0.37270000
vn 0.00010000 -0.92800000 0.37270000
vn -0.00000000 -0.92800000 0.37260000
vn -0.00000000 -0.92800000 0.37250000
vn 0.00000000 -0.92810000 0.37240000
vn 0.00000000 -0.92800000 0.37270000
vn 0.00000000 -0.93150000 0.36370000
vn -0.00000000 -0.93160000 0.36360000
vn 0.00000000 -0.93150000 0.36360000
vn -0.00000000 -0.93040000 0.36660000
vn -0.00000000 -0.93040000 0.36650000
vn 0.00000000 -0.93030000 0.36670000
vn 0.00000000 -0.93030000 0.36680000
vn 0.00000000 -0.93030000 0.36680000
vn -0.00000000 -0.93040000 0.36660000
vn 0.00000000 -0.93030000 0.36670000
vn -0.00000000 -0.93040000 0.36650000
vn -0.00000000 -0.93610000 0.35160000
vn 0.00000000 -0.93620000 0.35160000
vn 0.00000000 -0.93620000 0.35150000
vn -0.00000000 -0.93390000 0.35760000
vn -0.00000000 -0.93390000 0.35760000
vn 0.00000000 -0.93380000 0.35770000
vn -0.00000000 -0.93390000 0.35750000
vn 0.00000000 -0.93270000 0.36060000
vn 0.00010000 -0.93280000 0.36040000
vn -0.00000000 -0.93260000 0.36080000
vn -0.00000000 -0.93270000 0.36050000
vn 0.00000000 -0.93500000 0.35460000
vn -0.00000000 -0.93500000 0.35450000
vn 0.00000000 -0.93840000 0.34570000
vn 0.00000000 -0.93840000 0.34560000
vn 0.00000000 -0.93840000 0.34550000
vn 0.00030000 -0.93730000 0.34860000
vn -0.00000000 -0.93720000 0.34870000
vn -0.00000000 -0.93730000 0.34860000
vn -0.00000000 -0.94060000 0.33940000
vn -0.00000000 -0.94060000 0.33960000
vn -0.00000000 -0.94060000 0.33950000
vn -0.00000000 -0.93950000 0.34260000
vn -0.00000000 -0.93950000 0.34270000
vn -0.00000000 -0.93950000 0.34250000
vn 0.00000000 -0.93830000 0.34570000
vn 0.00000000 -0.93840000 0.34550000
vn 0.00000000 -0.93840000 0.34560000
vn -0.00000000 -0.93840000 0.34540000
vn -0.00000000 -0.93950000 0.34240000
vn -0.00000000 -0.93950000 0.34270000
vn -0.00000000 -0.93950000 0.34250000
vn 0.00000000 -0.94170000 0.33640000
vn -0.00000000 -0.94170000 0.33650000
vn 0.00000000 -0.94160000 0.33660000
vn 0.00000000 -0.94170000 0.33640000
vn -0.00000000 -0.94170000 0.33650000
vn 0.00000000 -0.94180000 0.33630000
vn -0.00000000 -0.94390000 0.33020000
vn -0.00000000 -0.94380000 0.33040000
vn -0.00000000 -0.94380000 0.33050000
vn 0.00000000 -0.94380000 0.33060000
vn 0.00000000 -0.94390000 0.33010000
vn -0.00000000 -0.94390000 0.33030000
vn 0.00000000 -0.94280000 0.33340000
vn -0.00000000 -0.94270000 0.33350000
vn -0.00000000 -0.94390000 0.33030000
vn -0.00000000 -0.94380000 0.33050000
vn -0.00000000 -0.94380000 0.33040000
vn -0.00000000 -0.94390000 0.33020000
vn 0.00000000 -0.93560000 0.35300000
vn -0.00000000 -0.93570000 0.35280000
vn 0.00000000 -0.93560000 0.35300000
vn -0.00000000 -0.93560000 0.35320000
vn -0.00000000 -0.93570000 0.35280000
vn -0.00000000 -0.93570000 0.35280000
vn -0.00000000 -0.93560000 0.35320000
vn 0.00000000 -0.93560000 0.35300000
vn 0.00000000 -0.93560000 0.35300000
vn -0.00000000 -0.93570000 0.35280000
vn -0.00000000 -0.93560000 0.35310000
vn 0.00000000 -0.93560000 0.35300000
vn -0.00000000 -0.93560000 0.35310000
vn -0.00000000 -0.93570000 0.35290000
vn -0.00000000 -0.93570000 0.35290000
vn -0.00000000 -0.93570000 0.35270000
vn -0.00000000 -0.93580000 0.35260000
vn -0.00010000 -0.93570000 0.35280000
vn -0.00000000 -0.93580000 0.35260000
vn 0.00000000 -0.93520000 0.35420000
vn -0.00000000 -0.93510000 0.35440000
vn 0.00000000 -0.93520000 0.35410000
vn 0.00000000 -0.93450000 0.35600000
vn -0.00010000 -0.93440000 0.35610000
vn 0.00000000 -0.93450000 0.35580000
vn -0.00010000 -0.93340000 0.35890000
vn -0.00000000 -0.93340000 0.35880000
vn 0.00000000 -0.93350000 0.35860000
vn -0.00010000 -0.93210000 0.36210000
vn -0.00000000 -0.93220000 0.36200000
vn -0.00000000 -0.93060000 0.36600000
vn 0.00000000 -0.93050000 0.36620000
vn 0.00000000 -0.93060000 0.36610000
vn 0.00000000 -0.92880000 0.37060000
vn -0.00000000 -0.92880000 0.37050000
vn -0.00000000 -0.92690000 0.37540000
vn 0.00000000 -0.92680000 0.37550000
vn -0.00000000 -0.92690000 0.37520000
vn 0.00000000 -0.92470000 0.38080000
vn 0.00000000 -0.92240000 0.38630000
vn -0.00010000 -0.91980000 0.39240000
vn -0.00010000 -0.91720000 0.39840000
vn 0.00010000 -0.91460000 0.40440000
vn 0.00010000 -0.91190000 0.41050000
vn 0.00000000 -0.90910000 0.41660000
vn -0.00000000 -0.93610000 0.35160000
vn -0.00000000 -0.93600000 0.35210000
vn 0.00000000 -0.93620000 0.35150000
vn 0.00000000 -0.93610000 0.35180000
vn 0.00000000 -0.93620000 0.35160000
vn -0.00000000 -0.93610000 0.35170000
vn 0.00000000 -0.93620000 0.35160000
vn 0.00020000 -0.93380000 0.35770000
vn -0.00000000 -0.93390000 0.35750000
vn -0.00000000 -0.93380000 0.35780000
vn -0.00000000 -0.93390000 0.35760000
vn -0.00000000 -0.93500000 0.35450000
vn 0.00000000 -0.93500000 0.35470000
vn 0.00000000 -0.93500000 0.35460000
vn -1.00000000 0.00000000 0.00000000
vn -1.00000000 0.00000000 0.00000000
vn -0.99900000 -0.01790000 -0.04090000
vn -0.93760000 -0.13090000 -0.32210000
vn -0.26250000 -0.31860000 -0.91080000
vn -0.00000000 -0.32740000 -0.94490000
vn 0.00000000 -0.32730000 -0.94490000
vn 0.00000000 -0.32730000 -0.94490000
vn -1.00000000 0.00000000 0.00000000
vn -1.00000000 0.00000000 0.00000000
vn -1.00000000 -0.00000000 -0.00010000
vn -1.00000000 0.00000000 0.00000000
vn -0.99320000 -0.04550000 -0.10700000
vn -0.98160000 -0.07410000 -0.17610000
vn -0.96320000 -0.10270000 -0.24830000
vn -0.90520000 -0.15790000 -0.39470000
vn -0.86690000 -0.18250000 -0.46400000
vn -0.82400000 -0.20460000 -0.52830000
vn -0.77800000 -0.22410000 -0.58700000
vn -0.73130000 -0.24000000 -0.63840000
vn -0.68160000 -0.25370000 -0.68630000
vn -0.62730000 -0.26650000 -0.73170000
vn -0.56530000 -0.27970000 -0.77600000
vn -0.49560000 -0.29240000 -0.81790000
vn -0.42130000 -0.30310000 -0.85480000
vn -0.34310000 -0.31170000 -0.88600000
vn -0.18340000 -0.32320000 -0.92840000
vn -0.10690000 -0.32600000 -0.93930000
vn -0.03040000 -0.32720000 -0.94440000
vn -0.00000000 -0.32740000 -0.94490000
vn -0.00000000 -0.32740000 -0.94490000
vn -0.00000000 -0.32740000 -0.94490000
vn -0.00000000 -0.32740000 -0.94490000
vn -0.00000000 -0.32740000 -0.94490000
vn 0.00000000 -0.32730000 -0.94490000
vn -0.00000000 -0.32740000 -0.94490000
vn 0.00000000 -0.32730000 -0.94490000
vn -0.00000000 -0.32740000 -0.94490000
vn 0.00000000 -0.32730000 -0.94490000
vn -0.00000000 -0.32740000 -0.94490000
vn 0.00000000 -0.32730000 -0.94490000
vn -0.00000000 -0.32740000 -0.94490000
vn -0.00000000 -0.32740000 -0.94490000
vn -0.00000000 -0.32740000 -0.94490000
vn -0.00000000 -0.32740000 -0.94490000
vn -0.00000000 -0.32740000 -0.94490000
vn -0.00000000 -0.32740000 -0.94490000
vn -0.00000000 -0.32740000 -0.94490000
vn -0.00000000 -0.32740000 -0.94490000
vn -0.03080000 -0.32730000 -0.94440000
vn -0.10840000 -0.32610000 -0.93910000
vn -0.18570000 -0.32310000 -0.92800000
vn -0.26520000 -0.31850000 -0.91010000
vn -0.34640000 -0.31160000 -0.88480000
vn -0.42490000 -0.30250000 -0.85320000
vn -0.49950000 -0.29160000 -0.81580000
vn -0.56840000 -0.27900000 -0.77400000
vn -0.63210000 -0.26520000 -0.72810000
vn -0.68700000 -0.25190000 -0.68160000
vn -0.73600000 -0.23810000 -0.63380000
vn -0.78130000 -0.22260000 -0.58300000
vn -0.82700000 -0.20310000 -0.52430000
vn -0.86950000 -0.18080000 -0.45970000
vn -0.90700000 -0.15640000 -0.39110000
vn -0.93890000 -0.12960000 -0.31890000
vn -0.96400000 -0.10160000 -0.24560000
vn -0.98200000 -0.07320000 -0.17390000
vn -0.99340000 -0.04500000 -0.10520000
vn -0.99900000 -0.01760000 -0.04050000
vn -1.00000000 0.00000000 0.00000000
vn -1.00000000 0.00010000 0.00010000
vn -1.00000000 -0.00000000 -0.00010000
vn -1.00000000 0.00000000 0.00000000
vn -1.00000000 -0.00000000 -0.00010000
vn -1.00000000 0.00000000 0.00000000
vn -1.00000000 0.00000000 0.00000000
vn -1.00000000 0.00000000 0.00000000
vn -1.00000000 0.00000000 0.00000000
vn -1.00000000 0.00000000 0.00000000
vn -1.00000000 0.00000000 0.00000000
vn -1.00000000 0.00000000 0.00000000
vn 0.00000000 0.42260000 0.90630000
vn 0.00000000 0.42260000 0.90630000
vn 0.00000000 0.42260000 0.90630000
vn 0.00000000 0.42260000 0.90630000
vn 1.00000000 -0.00000000 0.00000000
vn 1.00000000 -0.00000000 0.00000000
vn 1.00000000 -0.00000000 0.00000000
vn 1.00000000 -0.00000000 0.00000000
vn 1.00000000 -0.00000000 0.00000000
vn 0.00000000 0.35290000 0.93570000
vn 0.00000000 0.35290000 0.93570000
vn 1.00000000 -0.00000000 0.00000000
vn 1.00000000 -0.00000000 0.00000000
vn 1.00000000 -0.00000000 0.00000000
vn 0.00000000 0.35290000 0.93570000
vn 0.00000000 0.35290000 0.93570000
vn 0.00000000 0.35290000 0.93570000
vn 0.00000000 0.35290000 0.93570000
vn -0.00000000 0.35280000 0.93570000
vn 0.00000000 0.35290000 0.93570000
vn -0.00000000 0.35280000 0.93570000
vn 0.00000000 0.35290000 0.93570000
vn 0.00000000 0.35290000 0.93570000
vn -0.00000000 0.35280000 0.93570000
vn -0.00000000 0.35280000 0.93570000
vn 0.00000000 0.35290000 0.93570000
vn 0.11310000 0.35080000 0.92960000
vn 0.23490000 0.34420000 0.90900000
vn 0.36020000 0.33210000 0.87170000
vn 0.48220000 0.31430000 0.81770000
vn 0.58950000 0.29250000 0.75300000
vn 0.67900000 0.26850000 0.68330000
vn 0.75720000 0.24160000 0.60690000
vn 0.82840000 0.21000000 0.51930000
vn 0.89360000 0.17090000 0.41500000
vn 0.94430000 0.12730000 0.30340000
vn 0.97840000 0.08150000 0.19020000
vn 0.99610000 0.03580000 0.08100000
vn 1.00000000 0.00020000 -0.00010000
vn 1.00000000 -0.00000000 0.00000000
vn 1.00000000 0.00010000 0.00010000
vn 1.00000000 0.00020000 -0.00010000
vn 1.00000000 -0.00000000 0.00000000
vn 1.00000000 -0.00000000 0.00000000
vn 1.00000000 0.00010000 0.00000000
vn 1.00000000 0.00000000 0.00010000
vn 1.00000000 0.00010000 0.00000000
vn 1.00000000 0.00120000 0.00170000
vn 1.00000000 0.00100000 0.00180000
vn 0.99620000 0.03510000 0.07940000
vn 0.97890000 0.08040000 0.18780000
vn 0.94560000 0.12590000 0.30010000
vn 0.89590000 0.16920000 0.41080000
vn 0.83190000 0.20800000 0.51450000
vn 0.76090000 0.23990000 0.60290000
vn 0.68290000 0.26710000 0.68000000
vn 0.59360000 0.29130000 0.75020000
vn 0.48680000 0.31340000 0.81530000
vn 0.36400000 0.33160000 0.87040000
vn 0.23750000 0.34400000 0.90840000
vn 0.11430000 0.35080000 0.92950000
vn -0.00030000 0.35290000 0.93570000
vn 0.00000000 0.35290000 0.93570000
vn 0.00000000 0.35290000 0.93570000
vn 0.00000000 0.35290000 0.93570000
vn 0.00000000 0.35290000 0.93570000
vn 0.00000000 0.35290000 0.93570000
vn 0.00000000 0.35290000 0.93570000
vn 0.00000000 0.35290000 0.93570000
vn 0.00000000 0.35290000 0.93570000
vn 0.00000000 0.35290000 0.93570000
vn 0.00000000 0.35290000 0.93570000
vn 0.00000000 0.35290000 0.93570000
vn -0.00000000 0.35280000 0.93570000
vn 0.00000000 0.35290000 0.93570000
vn 0.00000000 0.35290000 0.93570000
vn -0.00000000 0.35280000 0.93570000
vn 0.29750000 0.33890000 0.89260000
vn 0.11050000 0.35090000 0.92990000
vn 0.48450000 0.31380000 0.81650000
vn 0.63920000 0.27980000 0.71640000
vn 0.76000000 0.24040000 0.60380000
vn 0.86460000 0.18990000 0.46520000
vn 0.94530000 0.12630000 0.30090000
vn 1.00000000 0.00060000 0.00080000
vn 1.00000000 0.00060000 0.00090000
vn 1.00000000 0.00060000 0.00070000
vn 0.98950000 0.05760000 0.13280000
vn 1.00000000 0.00010000 0.00010000
vn 1.00000000 0.00000000 0.00010000
vn 1.00000000 0.00010000 0.00000000
vn 1.00000000 -0.00000000 0.00000000
vn 1.00000000 -0.00000000 0.00000000
vn 1.00000000 -0.00010000 0.00000000
vn 1.00000000 -0.00000000 0.00000000
vn 1.00000000 -0.00000000 0.00000000
vn 1.00000000 -0.00010000 0.00000000
vn 1.00000000 -0.00000000 0.00000000
vn 1.00000000 -0.00000000 0.00000000
vn 1.00000000 -0.00010000 0.00000000
vn 1.00000000 -0.00000000 0.00000000
vn 1.00000000 -0.00010000 0.00000000
vn 1.00000000 -0.00000000 0.00000000
vn 1.00000000 -0.00010000 0.00000000
vn 1.00000000 -0.00000000 0.00000000
vn 1.00000000 -0.00000000 0.00000000
vn 1.00000000 -0.00010000 0.00000000
vn 1.00000000 -0.00000000 0.00000000
vn 1.00000000 -0.00010000 0.00000000
vn 1.00000000 -0.00000000 0.00000000
vn 1.00000000 -0.00010000 0.00000000
vt 0.40994300 0.00000000
vt 0.40994300 0.13388300
vt 0.51688400 0.00000000
vt 0.51688400 0.13388300
vt 0.46341400 0.13388300
vt 0.00000000 0.31076500
vt 0.00000000 0.25729400
vt 0.00000000 0.20382400
vt 0.40601000 0.73852900
vt 0.40601000 0.73852900
vt 0.37942200 0.73852900
vt 0.37942200 0.73852900
vt 0.35280900 0.73852900
vt 0.35280900 0.73852900
vt 0.35280900 0.73852900
vt 0.32617100 0.73852900
vt 0.32617100 0.73852900
vt 0.32617100 0.73852900
vt 0.29950800 0.73852900
vt 0.30483500 0.47117400
vt 0.30483500 0.47117400
vt 0.30483500 0.47117400
vt 0.30483500 0.47117400
vt 0.35546800 0.47117400
vt 0.35546800 0.47117400
vt 0.35546800 0.47117400
vt 0.35546800 0.60485100
vt 0.35546800 0.60485100
vt 0.35546800 0.60485100
vt 0.38078500 0.47117400
vt 0.38078500 0.47117400
vt 0.38078500 0.47117400
vt 0.38078500 0.60485100
vt 0.38078500 0.60485100
vt 0.38078500 0.60485100
vt 0.38078500 0.60485100
vt 0.38078500 0.67169000
vt 0.38078500 0.67169000
vt 0.39344300 0.60485100
vt 0.39344300 0.60485100
vt 0.39344300 0.60485100
vt 0.39344300 0.60485100
vt 0.39344300 0.67169000
vt 0.39344300 0.67169000
vt 0.39344300 0.67169000
vt 0.39344300 0.67169000
vt 0.39344300 0.67169000
vt 0.35546800 0.67169000
vt 0.35546800 0.67169000
vt 0.36812600 0.60485100
vt 0.36812600 0.60485100
vt 0.36812600 0.60485100
vt 0.36812600 0.60485100
vt 0.36812600 0.67169000
vt 0.36812600 0.67169000
vt 0.36812600 0.67169000
vt 0.30483500 0.60485100
vt 0.30483500 0.60485100
vt 0.30483500 0.60485100
vt 0.30483500 0.60485100
vt 0.33015200 0.47117400
vt 0.33015200 0.47117400
vt 0.33015200 0.60485100
vt 0.33015200 0.60485100
vt 0.33015200 0.67169000
vt 0.33015200 0.67169000
vt 0.34281000 0.60485100
vt 0.34281000 0.60485100
vt 0.34281000 0.60485100
vt 0.34281000 0.67169000
vt 0.34281000 0.67169000
vt 0.34281000 0.67169000
vt 0.30483500 0.67169000
vt 0.30483500 0.67169000
vt 0.30483500 0.67169000
vt 0.30483500 0.67169000
vt 0.30483500 0.67169000
vt 0.31749300 0.60485100
vt 0.31749300 0.60485100
vt 0.31749300 0.60485100
vt 0.31749300 0.60485100
vt 0.31749300 0.67169000
vt 0.31749300 0.67169000
vt 0.31749300 0.67169000
vt 0.02525900 0.20382400
vt 0.05049000 0.20382400
vt 0.07569200 0.20382400
vt 0.10090900 0.20419500
vt 0.12601800 0.20620600
vt 0.15077300 0.21004400
vt 0.17513400 0.21580400
vt 0.19906100 0.22358200
vt 0.19906100 0.22358200
vt 0.19906100 0.22358200
vt 0.22223500 0.23334300
vt 0.22223500 0.23334300
vt 0.22223500 0.23334300
vt 0.24434500 0.24493400
vt 0.24434500 0.24493400
vt 0.26541900 0.25829600
vt 0.26541900 0.25829600
vt 0.26541900 0.25829600
vt 0.28548900 0.27337300
vt 0.28548900 0.27337300
vt 0.28548900 0.27337300
vt 0.28548900 0.27337300
vt 0.30421100 0.28975700
vt 0.30421100 0.28975700
vt 0.32199800 0.30764800
vt 0.32199800 0.30764800
vt 0.33846700 0.32677600
vt 0.33846700 0.32677600
vt 0.33846700 0.32677600
vt 0.35325000 0.34684300
vt 0.35325000 0.34684300
vt 0.35325000 0.34684300
vt 0.36650700 0.36821700
vt 0.36650700 0.36821700
vt 0.36650700 0.36821700
vt 0.37788200 0.39047300
vt 0.37788200 0.39047300
vt 0.37788200 0.39047300
vt 0.38736000 0.41361800
vt 0.38736000 0.41361800
vt 0.38736000 0.41361800
vt 0.39492100 0.43765800
vt 0.39492100 0.43765800
vt 0.40045600 0.46211700
vt 0.40405100 0.48694100
vt 0.40405100 0.48694100
vt 0.40405100 0.48694100
vt 0.40579900 0.51209700
vt 0.40601000 0.53729300
vt 0.40601000 0.53729300
vt 0.40601000 0.56244800
vt 0.40601000 0.56244800
vt 0.40601000 0.56244800
vt 0.40601000 0.58760200
vt 0.40601000 0.58760200
vt 0.40601000 0.61275700
vt 0.40601000 0.61275700
vt 0.40601000 0.63791100
vt 0.40601000 0.63791100
vt 0.40601000 0.63791100
vt 0.40601000 0.66306500
vt 0.40601000 0.68822000
vt 0.40601000 0.71337400
vt 0.40601000 0.71337400
vt 0.20356900 0.27065900
vt 0.20356900 0.27065900
vt 0.20356900 0.27065900
vt 0.25420200 0.33749700
vt 0.25420200 0.33749700
vt 0.22888600 0.33749700
vt 0.22888600 0.33749700
vt 0.22888600 0.27065900
vt 0.22888600 0.27065900
vt 0.22888600 0.27065900
vt 0.21622700 0.33749700
vt 0.21622700 0.27065900
vt 0.21622700 0.27065900
vt 0.21622700 0.27065900
vt 0.25420200 0.27065900
vt 0.25420200 0.27065900
vt 0.25420200 0.27065900
vt 0.25420200 0.27065900
vt 0.24154400 0.33749700
vt 0.24154400 0.33749700
vt 0.24154400 0.33749700
vt 0.24154400 0.33749700
vt 0.24154400 0.27065900
vt 0.24154400 0.27065900
vt 0.24154400 0.27065900
vt 0.24154400 0.27065900
vt 0.30483500 0.33749700
vt 0.30483500 0.33749700
vt 0.30483500 0.33749700
vt 0.27951900 0.33749700
vt 0.27951900 0.33749700
vt 0.27951900 0.33749700
vt 0.27951900 0.33749700
vt 0.27951900 0.33749700
vt 0.27951900 0.27065900
vt 0.27951900 0.27065900
vt 0.27951900 0.27065900
vt 0.26686000 0.33749700
vt 0.26686000 0.33749700
vt 0.26686000 0.33749700
vt 0.26686000 0.33749700
vt 0.26686000 0.33749700
vt 0.29217700 0.33749700
vt 0.29217700 0.33749700
vt 0.29217700 0.33749700
vt 0.29217700 0.33749700
vt 0.33015200 0.33749700
vt 0.33015200 0.33749700
vt 0.33015200 0.33749700
vt 0.31749300 0.33749700
vt 0.31749300 0.33749700
vt 0.31749300 0.33749700
vt 0.31749300 0.33749700
vt 0.31749300 0.33749700
vt 0.35546800 0.40433600
vt 0.35546800 0.40433600
vt 0.35546800 0.40433600
vt 0.34281000 0.47117400
vt 0.34281000 0.47117400
vt 0.34281000 0.47117400
vt 0.33015200 0.40433600
vt 0.33015200 0.40433600
vt 0.34281000 0.40433600
vt 0.34281000 0.40433600
vt 0.34281000 0.40433600
vt 0.34281000 0.40433600
vt 0.36812600 0.47117400
vt 0.36812600 0.47117400
vt 0.36812600 0.47117400
vt 0.36812600 0.47117400
vt 0.36812600 0.40433600
vt 0.36812600 0.40433600
vt 0.36812600 0.40433600
vt 0.39344300 0.47117400
vt 0.39344300 0.47117400
vt 0.39344300 0.47117400
vt 0.39344300 0.47117400
vt 0.38078500 0.53801300
vt 0.38078500 0.53801300
vt 0.38078500 0.53801300
vt 0.39344300 0.53801300
vt 0.39344300 0.53801300
vt 0.39344300 0.53801300
vt 0.39344300 0.53801300
vt 0.29950800 0.71179300
vt 0.29950800 0.71179300
vt 0.29950800 0.68505800
vt 0.29950800 0.68505800
vt 0.29950800 0.65832300
vt 0.29950800 0.63158800
vt 0.29950800 0.63158800
vt 0.29950800 0.60485200
vt 0.29950800 0.60485200
vt 0.29950800 0.57811700
vt 0.29950800 0.57811700
vt 0.29950800 0.55138200
vt 0.29950800 0.55138200
vt 0.29950800 0.52464700
vt 0.29950800 0.52464700
vt 0.29950800 0.52464700
vt 0.29805200 0.49817400
vt 0.29805200 0.49817400
vt 0.29354900 0.47239500
vt 0.29354900 0.47239500
vt 0.29354900 0.47239500
vt 0.28580000 0.44739900
vt 0.28580000 0.44739900
vt 0.28580000 0.44739900
vt 0.27461800 0.42327600
vt 0.27461800 0.42327600
vt 0.27461800 0.42327600
vt 0.26063700 0.40121200
vt 0.26063700 0.40121200
vt 0.26063700 0.40121200
vt 0.24380100 0.38066800
vt 0.24380100 0.38066800
vt 0.22478000 0.36214100
vt 0.22478000 0.36214100
vt 0.20413300 0.34624500
vt 0.18124800 0.33281100
vt 0.15721600 0.32263600
vt 0.13206200 0.31562500
vt 0.10580600 0.31171100
vt 0.07947600 0.31076500
vt 0.05297900 0.31076500
vt 0.02650500 0.31076500
vt 0.30483500 0.53801300
vt 0.30483500 0.53801300
vt 0.30483500 0.53801300
vt 0.30483500 0.53801300
vt 0.30483500 0.40433600
vt 0.30483500 0.40433600
vt 0.30483500 0.40433600
vt 0.30483500 0.40433600
vt 0.27951900 0.40433600
vt 0.27951900 0.40433600
vt 0.27951900 0.40433600
vt 0.27951900 0.40433600
vt 0.29217700 0.40433600
vt 0.29217700 0.40433600
vt 0.29217700 0.40433600
vt 0.29217700 0.40433600
vt 0.00000000 0.00000000
vt 0.00000000 0.13388300
vt 0.10694100 0.00000000
vt 0.10694100 0.13388300
vt 0.05347100 0.13388300
vt 0.40756600 0.31076500
vt 0.40756600 0.25729400
vt 0.40756600 0.20382400
vt 0.81833000 0.73852900
vt 0.81833000 0.73852900
vt 0.79139300 0.73852900
vt 0.79139300 0.73852900
vt 0.79139300 0.73852900
vt 0.79139300 0.73852900
vt 0.76445500 0.73852900
vt 0.76445500 0.73852900
vt 0.76445500 0.73852900
vt 0.73751800 0.73852900
vt 0.73751800 0.73852900
vt 0.73751800 0.73852900
vt 0.71058100 0.73852900
vt 0.71597000 0.47117400
vt 0.71597000 0.47117400
vt 0.71597000 0.47117400
vt 0.76719600 0.47117400
vt 0.76719600 0.47117400
vt 0.76719600 0.47117400
vt 0.76719600 0.60485100
vt 0.76719600 0.60485100
vt 0.76719600 0.60485100
vt 0.79280900 0.47117400
vt 0.79280900 0.47117400
vt 0.79280900 0.47117400
vt 0.79280900 0.47117400
vt 0.79280900 0.60485100
vt 0.79280900 0.60485100
vt 0.79280900 0.67169000
vt 0.79280900 0.67169000
vt 0.79280900 0.67169000
vt 0.79280900 0.67169000
vt 0.80561500 0.60485100
vt 0.80561500 0.60485100
vt 0.80561500 0.60485100
vt 0.80561500 0.67169000
vt 0.80561500 0.67169000
vt 0.80561500 0.67169000
vt 0.80561500 0.67169000
vt 0.80561500 0.67169000
vt 0.76719600 0.67169000
vt 0.76719600 0.67169000
vt 0.76719600 0.67169000
vt 0.76719600 0.67169000
vt 0.78000200 0.60485100
vt 0.78000200 0.60485100
vt 0.78000200 0.60485100
vt 0.78000200 0.67169000
vt 0.78000200 0.67169000
vt 0.78000200 0.67169000
vt 0.78000200 0.67169000
vt 0.78000200 0.67169000
vt 0.71597000 0.60485100
vt 0.71597000 0.60485100
vt 0.71597000 0.60485100
vt 0.71597000 0.60485100
vt 0.74158300 0.47117400
vt 0.74158300 0.47117400
vt 0.74158300 0.47117400
vt 0.74158300 0.60485100
vt 0.74158300 0.60485100
vt 0.74158300 0.60485100
vt 0.74158300 0.67169000
vt 0.74158300 0.67169000
vt 0.74158300 0.67169000
vt 0.75439000 0.60485100
vt 0.75439000 0.60485100
vt 0.75439000 0.60485100
vt 0.75439000 0.67169000
vt 0.75439000 0.67169000
vt 0.75439000 0.67169000
vt 0.75439000 0.67169000
vt 0.75439000 0.67169000
vt 0.71597000 0.67169000
vt 0.71597000 0.67169000
vt 0.71597000 0.67169000
vt 0.71597000 0.67169000
vt 0.72877700 0.60485100
vt 0.72877700 0.60485100
vt 0.72877700 0.60485100
vt 0.72877700 0.67169000
vt 0.72877700 0.67169000
vt 0.72877700 0.67169000
vt 0.43312100 0.20382400
vt 0.45864700 0.20382400
vt 0.48414400 0.20382400
vt 0.50965600 0.20419500
vt 0.53506000 0.20620600
vt 0.56010500 0.21004400
vt 0.58475100 0.21580400
vt 0.60895700 0.22358200
vt 0.60895700 0.22358200
vt 0.63240300 0.23334300
vt 0.63240300 0.23334300
vt 0.63240300 0.23334300
vt 0.65477200 0.24493400
vt 0.65477200 0.24493400
vt 0.67609300 0.25829600
vt 0.67609300 0.25829600
vt 0.67609300 0.25829600
vt 0.69639600 0.27337200
vt 0.69639600 0.27337200
vt 0.69639600 0.27337200
vt 0.69639600 0.27337200
vt 0.71533800 0.28975600
vt 0.71533800 0.28975600
vt 0.73333500 0.30764900
vt 0.74999600 0.32677500
vt 0.74999600 0.32677500
vt 0.74999600 0.32677500
vt 0.76495100 0.34684100
vt 0.76495100 0.34684100
vt 0.77836400 0.36821600
vt 0.77836400 0.36821600
vt 0.78987300 0.39047300
vt 0.78987300 0.39047300
vt 0.78987300 0.39047300
vt 0.79946100 0.41361800
vt 0.79946100 0.41361800
vt 0.79946100 0.41361800
vt 0.80711100 0.43765700
vt 0.80711100 0.43765700
vt 0.81271100 0.46211700
vt 0.81271100 0.46211700
vt 0.81634800 0.48694100
vt 0.81634800 0.48694100
vt 0.81634800 0.48694100
vt 0.81811700 0.51209700
vt 0.81833000 0.53729300
vt 0.81833000 0.53729300
vt 0.81833000 0.56244800
vt 0.81833000 0.56244800
vt 0.81833000 0.58760200
vt 0.81833000 0.58760200
vt 0.81833000 0.61275700
vt 0.81833000 0.61275700
vt 0.81833000 0.63791100
vt 0.81833000 0.63791100
vt 0.81833000 0.63791100
vt 0.81833000 0.66306500
vt 0.81833000 0.66306500
vt 0.81833000 0.68822000
vt 0.81833000 0.68822000
vt 0.81833000 0.71337400
vt 0.81833000 0.71337400
vt 0.61351800 0.27065900
vt 0.61351800 0.27065900
vt 0.61351800 0.27065900
vt 0.61351800 0.27065900
vt 0.66474400 0.33749700
vt 0.66474400 0.33749700
vt 0.66474400 0.33749700
vt 0.63913100 0.33749700
vt 0.63913100 0.33749700
vt 0.63913100 0.33749700
vt 0.63913100 0.33749700
vt 0.63913100 0.27065900
vt 0.63913100 0.27065900
vt 0.63913100 0.27065900
vt 0.62632500 0.33749700
vt 0.62632500 0.33749700
vt 0.62632500 0.33749700
vt 0.62632500 0.33749700
vt 0.62632500 0.27065900
vt 0.62632500 0.27065900
vt 0.62632500 0.27065900
vt 0.62632500 0.27065900
vt 0.66474400 0.27065900
vt 0.66474400 0.27065900
vt 0.66474400 0.27065900
vt 0.65193800 0.33749700
vt 0.65193800 0.33749700
vt 0.65193800 0.33749700
vt 0.65193800 0.33749700
vt 0.65193800 0.27065900
vt 0.65193800 0.27065900
vt 0.65193800 0.27065900
vt 0.65193800 0.27065900
vt 0.71597000 0.33749700
vt 0.71597000 0.33749700
vt 0.71597000 0.33749700
vt 0.69035700 0.33749700
vt 0.69035700 0.27065900
vt 0.69035700 0.27065900
vt 0.69035700 0.27065900
vt 0.67755100 0.33749700
vt 0.67755100 0.33749700
vt 0.67755100 0.33749700
vt 0.67755100 0.33749700
vt 0.70316400 0.33749700
vt 0.70316400 0.33749700
vt 0.74158300 0.33749700
vt 0.74158300 0.33749700
vt 0.74158300 0.33749700
vt 0.72877700 0.33749700
vt 0.72877700 0.33749700
vt 0.72877700 0.33749700
vt 0.76719600 0.40433600
vt 0.76719600 0.40433600
vt 0.76719600 0.40433600
vt 0.75439000 0.47117400
vt 0.75439000 0.47117400
vt 0.75439000 0.47117400
vt 0.74158300 0.40433600
vt 0.74158300 0.40433600
vt 0.74158300 0.40433600
vt 0.74158300 0.40433600
vt 0.75439000 0.40433600
vt 0.75439000 0.40433600
vt 0.75439000 0.40433600
vt 0.78000200 0.47117400
vt 0.78000200 0.47117400
vt 0.78000200 0.47117400
vt 0.78000200 0.40433600
vt 0.78000200 0.40433600
vt 0.78000200 0.40433600
vt 0.80561500 0.47117400
vt 0.80561500 0.47117400
vt 0.80561500 0.47117400
vt 0.80561500 0.47117400
vt 0.80561500 0.47117400
vt 0.80561500 0.47117400
vt 0.79280900 0.53801300
vt 0.79280900 0.53801300
vt 0.80561500 0.53801300
vt 0.80561500 0.53801300
vt 0.80561500 0.53801300
vt 0.80561500 0.53801300
vt 0.71058100 0.71179300
vt 0.71058100 0.68505800
vt 0.71058100 0.68505800
vt 0.71058100 0.65832300
vt 0.71058100 0.65832300
vt 0.71058100 0.63158800
vt 0.71058100 0.63158800
vt 0.71058100 0.63158800
vt 0.71058100 0.60485200
vt 0.71058100 0.57811700
vt 0.71058100 0.57811700
vt 0.71058100 0.57811700
vt 0.71058100 0.55138200
vt 0.71058100 0.55138200
vt 0.71058100 0.52464700
vt 0.71058100 0.52464700
vt 0.71058100 0.52464700
vt 0.70910800 0.49817400
vt 0.70910800 0.49817400
vt 0.70455200 0.47239500
vt 0.70455200 0.47239500
vt 0.70455200 0.47239500
vt 0.69671200 0.44739900
vt 0.69671200 0.44739900
vt 0.69671200 0.44739900
vt 0.68540000 0.42327700
vt 0.68540000 0.42327700
vt 0.68540000 0.42327700
vt 0.67125500 0.40121200
vt 0.67125500 0.40121200
vt 0.65422100 0.38066700
vt 0.65422100 0.38066700
vt 0.65422100 0.38066700
vt 0.63497800 0.36214100
vt 0.63497800 0.36214100
vt 0.61409200 0.34624700
vt 0.61409200 0.34624700
vt 0.61409200 0.34624700
vt 0.59093700 0.33281200
vt 0.56662200 0.32263600
vt 0.54117400 0.31562500
vt 0.51461100 0.31171100
vt 0.48797300 0.31076500
vt 0.46116500 0.31076500
vt 0.43438100 0.31076500
vt 0.71597000 0.53801300
vt 0.71597000 0.53801300
vt 0.71597000 0.53801300
vt 0.71597000 0.53801300
vt 0.71597000 0.53801300
vt 0.71597000 0.40433600
vt 0.71597000 0.40433600
vt 0.69035700 0.40433600
vt 0.69035700 0.40433600
vt 0.69035700 0.40433600
vt 0.69035700 0.40433600
vt 0.70316400 0.40433600
vt 0.70316400 0.40433600
vt 0.70316400 0.40433600
vt 0.99853500 0.00000000
vt 0.95377000 0.00000000
vt 0.99853500 0.10008200
vt 0.99853500 0.20059300
vt 0.99853500 0.49980100
vt 0.99853500 0.60746700
vt 0.99853500 0.80744300
vt 0.95377000 0.80744300
vt 0.99853500 0.02500800
vt 0.99853500 0.05001600
vt 0.99853500 0.05001600
vt 0.99853500 0.07502400
vt 0.99853500 0.12520900
vt 0.99853500 0.15033700
vt 0.99853500 0.17546500
vt 0.99853500 0.22574100
vt 0.99853500 0.25089000
vt 0.99853500 0.27603900
vt 0.99853500 0.30118800
vt 0.99853500 0.32570400
vt 0.99853500 0.35022000
vt 0.99853500 0.37473600
vt 0.99853500 0.39925200
vt 0.99853500 0.42438900
vt 0.99853500 0.44952600
vt 0.99853500 0.47466400
vt 0.99853500 0.52479100
vt 0.99853500 0.54978000
vt 0.99853500 0.57862400
vt 0.99853500 0.63246400
vt 0.99853500 0.65746100
vt 0.99853500 0.68245800
vt 0.99853500 0.70745500
vt 0.99853500 0.73245200
vt 0.99853500 0.75744900
vt 0.99853500 0.75744900
vt 0.99853500 0.78244600
vt 0.99853500 0.78244600
vt 0.97615200 0.80744300
vt 0.97615200 0.80744300
vt 0.95377000 0.78244600
vt 0.95377000 0.78244600
vt 0.95377000 0.75744900
vt 0.95377000 0.73245200
vt 0.95377000 0.70745500
vt 0.95377000 0.68245800
vt 0.95377000 0.65746100
vt 0.95377000 0.63246400
vt 0.95377000 0.60746700
vt 0.95377000 0.57862400
vt 0.95377000 0.54978000
vt 0.95377000 0.52479100
vt 0.95377000 0.49980100
vt 0.95377000 0.47466400
vt 0.95377000 0.44952600
vt 0.95377000 0.42438900
vt 0.95377000 0.39925200
vt 0.95377000 0.37473600
vt 0.95377000 0.35022000
vt 0.95377000 0.32570400
vt 0.95377000 0.30118800
vt 0.95377000 0.27603900
vt 0.95377000 0.25089000
vt 0.95377000 0.22574100
vt 0.95377000 0.20059300
vt 0.95377000 0.17546500
vt 0.95377000 0.15033700
vt 0.95377000 0.12520900
vt 0.95377000 0.10008200
vt 0.95377000 0.07502400
vt 0.95377000 0.07502400
vt 0.95377000 0.07502400
vt 0.95377000 0.05001600
vt 0.95377000 0.05001600
vt 0.95377000 0.02500800
vt 0.97615200 0.00000000
vt 0.81988700 0.60668100
vt 0.81988700 0.65291100
vt 0.95230500 0.60668100
vt 0.95230500 0.65291100
vt 0.95230500 0.62979600
vt 0.81988700 0.00000000
vt 0.81988700 0.04623000
vt 0.92682800 0.00000000
vt 0.92682800 0.04623000
vt 0.81988700 0.40445400
vt 0.81988700 0.42756900
vt 0.81988700 0.45068400
vt 0.95230500 0.40445400
vt 0.95230500 0.45068400
vt 0.00000000 0.15150500
vt 0.00000000 0.19773500
vt 0.63910700 0.15150500
vt 0.63910700 0.17462000
vt 0.63910700 0.19773500
vt 0.02664600 0.15150500
vt 0.05329100 0.15150500
vt 0.07993700 0.15150500
vt 0.10658200 0.15150500
vt 0.13322800 0.15150500
vt 0.13322800 0.15150500
vt 0.15987300 0.15150500
vt 0.15987300 0.15150500
vt 0.18651900 0.15150500
vt 0.18651900 0.15150500
vt 0.21316400 0.15150500
vt 0.21316400 0.15150500
vt 0.23995500 0.15150500
vt 0.26674500 0.15150500
vt 0.29353500 0.15150500
vt 0.32032500 0.15150500
vt 0.34593300 0.15150500
vt 0.37154100 0.15150500
vt 0.39714900 0.15150500
vt 0.42275700 0.15150500
vt 0.44962900 0.15150500
vt 0.47650000 0.15150500
vt 0.50337100 0.15150500
vt 0.53024200 0.15150500
vt 0.55984000 0.15150500
vt 0.58629900 0.15150500
vt 0.58629900 0.15150500
vt 0.58629900 0.15150500
vt 0.61270300 0.15150500
vt 0.61270300 0.19773500
vt 0.61270300 0.19773500
vt 0.58629900 0.19773500
vt 0.58629900 0.19773500
vt 0.55984000 0.19773500
vt 0.55984000 0.19773500
vt 0.53024200 0.19773500
vt 0.50337100 0.19773500
vt 0.47650000 0.19773500
vt 0.44962900 0.19773500
vt 0.42275700 0.19773500
vt 0.39714900 0.19773500
vt 0.37154100 0.19773500
vt 0.34593300 0.19773500
vt 0.32032500 0.19773500
vt 0.29353500 0.19773500
vt 0.26674500 0.19773500
vt 0.23995500 0.19773500
vt 0.21316400 0.19773500
vt 0.21316400 0.19773500
vt 0.18651900 0.19773500
vt 0.15987300 0.19773500
vt 0.13322800 0.19773500
vt 0.10658200 0.19773500
vt 0.07993700 0.19773500
vt 0.05329100 0.19773500
vt 0.02664600 0.19773500
vt 0.00000000 0.17462000
vt 0.03981000 0.17462000
vt 0.11943100 0.17462000
vt 0.15924100 0.17462000
vt 0.15924100 0.17462000
vt 0.19905100 0.17462000
vt 0.19905100 0.17462000
vt 0.27978100 0.17462000
vt 0.23923400 0.17462000
vt 0.32032500 0.17462000
vt 0.35908400 0.17462000
vt 0.39749700 0.17462000
vt 0.43641900 0.17462000
vt 0.47669700 0.17462000
vt 0.55984000 0.17462000
vt 0.55984000 0.17462000
vt 0.55984000 0.17462000
vt 0.51706500 0.17462000
vt 0.59960400 0.17462000
vt 0.59960400 0.17462000
vt 0.59960400 0.17462000
vt 0.59960400 0.17462000
vt 0.81988700 0.20222700
vt 0.81988700 0.24845700
vt 0.92865200 0.20222700
vt 0.92865200 0.22534200
vt 0.92865200 0.22534200
vt 0.92865200 0.24845700
vt 0.84707800 0.20222700
vt 0.87426900 0.20222700
vt 0.87426900 0.20222700
vt 0.90146100 0.20222700
vt 0.90146100 0.20222700
vt 0.90149900 0.24845700
vt 0.90149900 0.24845700
vt 0.87432000 0.24845700
vt 0.87432000 0.24845700
vt 0.84711600 0.24845700
vt 0.84711600 0.24845700
vt 0.81988700 0.22534200
vt 0.81988700 0.22534200
f 5/5/5 1/1/1 2/2/2
f 4/4/4 3/3/3 5/5/5
f 1/1/1 5/5/5 3/3/3
f 155/155/155 156/156/156 162/162/162
f 149/149/149 159/159/159 161/161/161
f 152/152/152 166/166/166 174/174/174
f 170/170/170 172/172/172 157/157/157
f 288/288/288 192/192/192 182/182/182
f 281/281/281 176/176/176 191/191/191
f 184/184/184 188/188/188 182/182/182
f 188/188/188 166/166/166 152/152/152
f 46/46/46 40/40/40 36/36/36
f 56/56/56 50/50/50 29/29/29
f 38/38/38 36/36/36 50/50/50
f 52/52/52 226/226/226 216/216/216
f 217/217/217 228/228/228 31/31/31
f 227/227/227 53/53/53 34/34/34
f 50/50/50 218/218/218 24/24/24
f 40/40/40 231/231/231 228/228/228
f 229/229/229 225/225/225 31/31/31
f 70/70/70 69/69/69 64/64/64
f 48/48/48 28/28/28 67/67/67
f 84/84/84 79/79/79 57/57/57
f 66/66/66 63/63/63 78/78/78
f 78/78/78 277/277/277 58/58/58
f 276/276/276 61/61/61 22/22/22
f 61/61/61 78/78/78 64/64/64
f 81/81/81 61/61/61 276/276/276
f 69/69/69 207/207/207 62/62/62
f 208/208/208 68/68/68 29/29/29
f 25/25/25 204/204/204 212/212/212
f 208/208/208 214/214/214 209/209/209
f 210/210/210 199/199/199 281/281/281
f 279/279/279 198/198/198 175/175/175
f 200/200/200 209/209/209 195/195/195
f 210/210/210 281/281/281 22/22/22
f 30/30/30 221/221/221 218/218/218
f 218/218/218 221/221/221 203/203/203
f 86/86/86 85/85/85 274/274/274
f 85/85/85 8/8/8 7/7/7
f 88/88/88 87/87/87 272/272/272
f 273/273/273 87/87/87 86/86/86
f 89/89/89 88/88/88 271/271/271
f 6/6/6 274/274/274 7/7/7
f 274/274/274 85/85/85 7/7/7
f 273/273/273 86/86/86 274/274/274
f 272/272/272 87/87/87 273/273/273
f 272/272/272 271/271/271 88/88/88
f 270/270/270 89/89/89 271/271/271
f 269/269/269 91/91/91 90/90/90
f 268/268/268 93/93/93 91/91/91
f 99/99/99 96/96/96 158/158/158
f 161/161/161 97/97/97 94/94/94
f 102/102/102 98/98/98 164/164/164
f 92/92/92 149/149/149 160/160/160
f 95/95/95 162/162/162 156/156/156
f 99/99/99 173/173/173 165/165/165
f 184/184/184 100/100/100 188/188/188
f 101/101/101 183/183/183 103/103/103
f 102/102/102 163/163/163 190/190/190
f 174/174/174 99/99/99 156/156/156
f 151/151/151 93/93/93 268/268/268
f 270/270/270 90/90/90 89/89/89
f 185/185/185 181/181/181 104/104/104
f 268/268/268 91/91/91 269/269/269
f 265/265/265 155/155/155 159/159/159
f 267/267/267 159/159/159 150/150/150
f 263/263/263 167/167/167 155/155/155
f 268/268/268 267/267/267 151/151/151
f 266/266/266 159/159/159 267/267/267
f 264/264/264 155/155/155 265/265/265
f 262/262/262 190/190/190 152/152/152
f 257/257/257 189/189/189 260/260/260
f 263/263/263 261/261/261 152/152/152
f 167/167/167 263/263/263 152/152/152
f 269/269/269 90/90/90 270/270/270
f 258/258/258 286/286/286 187/187/187
f 179/179/179 186/186/186 285/285/285
f 254/254/254 284/284/284 259/259/259
f 255/255/255 290/290/290 283/283/283
f 287/287/287 251/251/251 279/279/279
f 251/251/251 290/290/290 256/256/256
f 253/253/253 250/250/250 23/23/23
f 249/249/249 248/248/248 21/21/21
f 242/242/242 240/240/240 57/57/57
f 241/241/241 238/238/238 60/60/60
f 245/245/245 243/243/243 276/276/276
f 277/277/277 247/247/247 244/244/244
f 180/180/180 192/192/192 106/106/106
f 191/191/191 108/108/108 105/105/105
f 175/175/175 202/202/202 108/108/108
f 109/109/109 107/107/107 201/201/201
f 197/197/197 113/113/113 110/110/110
f 209/209/209 112/112/112 195/195/195
f 199/199/199 196/196/196 109/109/109
f 282/282/282 252/252/252 23/23/23
f 246/246/246 278/278/278 20/20/20
f 209/209/209 213/213/213 111/111/111
f 204/204/204 114/114/114 214/214/214
f 113/113/113 211/211/211 116/116/116
f 243/243/243 57/57/57 275/275/275
f 219/219/219 117/117/117 204/204/204
f 115/115/115 205/205/205 118/118/118
f 120/120/120 119/119/119 220/220/220
f 124/124/124 122/122/122 31/31/31
f 220/220/220 31/31/31 121/121/121
f 123/123/123 224/224/224 126/126/126
f 223/223/223 125/125/125 32/32/32
f 130/130/130 222/222/222 231/231/231
f 131/131/131 231/231/231 132/132/132
f 132/132/132 229/229/229 133/133/133
f 128/128/128 223/223/223 129/129/129
f 225/225/225 128/128/128 127/127/127
f 135/135/135 134/134/134 232/232/232
f 237/237/237 75/75/75 239/239/239
f 75/75/75 59/59/59 239/239/239
f 236/236/236 76/76/76 237/237/237
f 18/18/18 65/65/65 83/83/83
f 17/17/17 72/72/72 66/66/66
f 233/233/233 84/84/84 74/74/74
f 233/233/233 19/19/19 84/84/84
f 77/77/77 235/235/235 234/234/234
f 16/16/16 13/13/13 70/70/70
f 19/19/19 16/16/16 84/84/84
f 56/56/56 49/49/49 15/15/15
f 71/71/71 14/14/14 48/48/48
f 141/141/141 139/139/139 39/39/39
f 136/136/136 41/41/41 138/138/138
f 144/144/144 140/140/140 39/39/39
f 44/44/44 143/143/143 42/42/42
f 145/145/145 142/142/142 43/43/43
f 12/12/12 38/38/38 56/56/56
f 46/46/46 38/38/38 11/11/11
f 13/13/13 12/12/12 54/54/54
f 148/148/148 146/146/146 47/47/47
f 145/145/145 44/44/44 146/146/146
f 47/47/47 9/9/9 147/147/147
f 12/12/12 10/10/10 45/45/45
f 40/40/40 137/137/137 231/231/231
f 177/177/177 107/107/107 193/193/193
f 295/295/295 292/292/292 291/291/291
f 294/294/294 295/295/295 293/293/293
f 291/291/291 293/293/293 295/295/295
f 451/451/451 458/458/458 462/462/462
f 446/446/446 465/465/465 460/460/460
f 450/450/450 469/469/469 474/474/474
f 470/470/470 453/453/453 457/457/457
f 584/584/584 582/582/582 480/480/480
f 578/578/578 583/583/583 489/489/489
f 481/481/481 480/480/480 487/487/487
f 487/487/487 450/450/450 467/467/467
f 336/336/336 329/329/329 326/326/326
f 349/349/349 342/342/342 320/320/320
f 330/330/330 348/348/348 343/343/343
f 345/345/345 509/509/509 521/521/521
f 509/509/509 324/324/324 521/521/521
f 521/521/521 325/325/325 345/345/345
f 344/344/344 320/320/320 315/315/315
f 332/332/332 325/325/325 521/521/521
f 523/523/523 522/522/522 323/323/323
f 369/369/369 362/362/362 359/359/359
f 340/340/340 370/370/370 364/364/364
f 381/381/381 375/375/375 352/352/352
f 363/363/363 379/379/379 376/376/376
f 377/377/377 353/353/353 576/576/576
f 576/576/576 312/312/312 356/356/356
f 356/356/356 360/360/360 378/378/378
f 376/376/376 572/572/572 355/355/355
f 364/364/364 358/358/358 357/357/357
f 501/501/501 317/317/317 319/319/319
f 316/316/316 501/501/501 508/508/508
f 501/501/501 357/357/357 505/505/505
f 504/504/504 578/578/578 493/493/493
f 578/578/578 478/478/478 494/494/494
f 495/495/495 491/491/491 504/504/504
f 504/504/504 356/356/356 312/312/312
f 324/324/324 509/509/509 512/512/512
f 511/511/511 315/315/315 497/497/497
f 298/298/298 382/382/382 297/297/297
f 382/382/382 383/383/383 571/571/571
f 385/385/385 569/569/569 384/384/384
f 570/570/570 383/383/383 384/384/384
f 386/386/386 568/568/568 385/385/385
f 296/296/296 297/297/297 571/571/571
f 571/571/571 297/297/297 382/382/382
f 570/570/570 571/571/571 383/383/383
f 569/569/569 570/570/570 384/384/384
f 569/569/569 385/385/385 568/568/568
f 567/567/567 568/568/568 386/386/386
f 566/566/566 387/387/387 388/388/388
f 565/565/565 388/388/388 390/390/390
f 395/395/395 455/455/455 393/393/393
f 465/465/465 390/390/390 392/392/392
f 397/397/397 467/467/467 394/394/394
f 389/389/389 463/463/463 445/445/445
f 391/391/391 457/457/457 464/464/464
f 394/394/394 466/466/466 474/474/474
f 482/482/482 484/484/484 396/396/396
f 398/398/398 402/402/402 483/483/483
f 397/397/397 484/484/484 468/468/468
f 475/475/475 455/455/455 395/395/395
f 444/444/444 565/565/565 390/390/390
f 567/567/567 386/386/386 387/387/387
f 481/481/481 400/400/400 480/480/480
f 565/565/565 566/566/566 388/388/388
f 560/560/560 460/460/460 454/454/454
f 564/564/564 447/447/447 459/459/459
f 559/559/559 452/452/452 469/469/469
f 565/565/565 444/444/444 563/563/563
f 560/560/560 562/562/562 461/461/461
f 559/559/559 561/561/561 453/453/453
f 555/555/555 450/450/450 484/484/484
f 553/553/553 556/556/556 485/485/485
f 557/557/557 449/449/449 556/556/556
f 471/471/471 448/448/448 558/558/558
f 566/566/566 567/567/567 387/387/387
f 552/552/552 486/486/486 581/581/581
f 480/480/480 582/582/582 484/484/484
f 549/549/549 554/554/554 579/579/579
f 550/550/550 580/580/580 585/585/585
f 584/584/584 577/577/577 547/547/547
f 548/548/548 551/551/551 585/585/585
f 546/546/546 312/312/312 544/544/544
f 545/545/545 312/312/312 543/543/543
f 538/538/538 354/354/354 535/535/535
f 535/535/535 354/354/354 534/534/534
f 539/539/539 573/573/573 537/537/537
f 575/575/575 540/540/540 541/541/541
f 480/480/480 401/401/401 488/488/488
f 488/488/488 399/399/399 403/403/403
f 479/479/479 403/403/403 495/495/495
f 405/405/405 495/495/495 404/404/404
f 492/492/492 405/405/405 406/406/406
f 503/503/503 492/492/492 408/408/408
f 495/495/495 405/405/405 490/490/490
f 578/578/578 314/314/314 546/546/546
f 542/542/542 313/313/313 572/572/572
f 503/503/503 407/407/407 506/506/506
f 498/498/498 508/508/508 410/410/410
f 408/408/408 409/409/409 506/506/506
f 536/536/536 574/574/574 351/351/351
f 512/512/512 496/496/496 411/411/411
f 410/410/410 412/412/412 497/497/497
f 413/413/413 513/513/513 412/412/412
f 416/416/416 324/324/324 415/415/415
f 514/514/514 414/414/414 324/324/324
f 417/417/417 420/420/420 519/519/519
f 517/517/517 321/321/321 418/418/418
f 423/423/423 526/526/526 515/515/515
f 424/424/424 426/426/426 524/524/524
f 426/426/426 427/427/427 524/524/524
f 421/421/421 425/425/425 520/520/520
f 518/518/518 419/419/419 422/422/422
f 429/429/429 525/525/525 428/428/428
f 530/530/530 533/533/533 372/372/372
f 375/375/375 532/532/532 352/352/352
f 528/528/528 531/531/531 375/375/375
f 309/309/309 379/379/379 361/361/361
f 308/308/308 361/361/361 367/367/367
f 527/527/527 374/374/374 380/380/380
f 527/527/527 380/380/380 311/311/311
f 373/373/373 527/527/527 529/529/529
f 309/309/309 371/371/371 306/306/306
f 311/311/311 380/380/380 310/310/310
f 346/346/346 306/306/306 342/342/342
f 370/370/370 339/339/339 305/305/305
f 434/434/434 331/331/331 431/431/431
f 430/430/430 432/432/432 333/333/333
f 435/435/435 332/332/332 433/433/433
f 336/336/336 333/333/333 436/436/436
f 439/439/439 337/337/337 437/437/437
f 301/301/301 347/347/347 328/328/328
f 334/334/334 302/302/302 327/327/327
f 307/307/307 350/350/350 304/304/304
f 443/443/443 334/334/334 440/440/440
f 438/438/438 441/441/441 335/335/335
f 335/335/335 442/442/442 300/300/300
f 303/303/303 338/338/338 299/299/299
f 332/332/332 525/525/525 430/430/430
f 477/477/477 488/488/488 404/404/404
f 661/661/661 586/586/586 594/594/594
f 595/595/595 597/597/597 655/655/655
f 594/594/594 595/595/595 658/658/658
f 588/588/588 598/598/598 653/653/653
f 599/599/599 600/600/600 652/652/652
f 598/598/598 599/599/599 652/652/652
f 597/597/597 588/588/588 656/656/656
f 589/589/589 601/601/601 650/650/650
f 602/602/602 603/603/603 647/647/647
f 601/601/601 602/602/602 649/649/649
f 604/604/604 605/605/605 645/645/645
f 606/606/606 607/607/607 644/644/644
f 607/607/607 608/608/608 642/642/642
f 605/605/605 606/606/606 644/644/644
f 603/603/603 604/604/604 646/646/646
f 600/600/600 589/589/589 651/651/651
f 660/660/660 587/587/587 661/661/661
f 594/594/594 660/660/660 661/661/661
f 609/609/609 610/610/610 641/641/641
f 611/611/611 590/590/590 638/638/638
f 610/610/610 611/611/611 639/639/639
f 612/612/612 613/613/613 636/636/636
f 614/614/614 591/591/591 635/635/635
f 613/613/613 614/614/614 636/636/636
f 590/590/590 612/612/612 638/638/638
f 615/615/615 616/616/616 632/632/632
f 617/617/617 618/618/618 630/630/630
f 616/616/616 617/617/617 631/631/631
f 619/619/619 621/621/621 628/628/628
f 624/624/624 622/622/622 592/592/592
f 620/620/620 622/622/622 626/626/626
f 618/618/618 619/619/619 629/629/629
f 591/591/591 615/615/615 633/633/633
f 623/623/623 625/625/625 627/627/627
f 641/641/641 642/642/642 608/608/608
f 624/624/624 593/593/593 626/626/626
f 663/663/663 662/662/662 666/666/666
f 663/663/663 666/666/666 665/665/665
f 668/668/668 667/667/667 669/669/669
f 674/674/674 672/672/672 671/671/671
f 673/673/673 672/672/672 675/675/675
f 674/674/674 675/675/675 672/672/672
f 681/681/681 737/737/737 676/676/676
f 738/738/738 682/682/682 683/683/683
f 738/738/738 681/681/681 682/682/682
f 738/738/738 683/683/683 739/739/739
f 684/684/684 739/739/739 683/683/683
f 741/741/741 739/739/739 686/686/686
f 684/684/684 686/686/686 739/739/739
f 738/738/738 739/739/739 734/734/734
f 738/738/738 737/737/737 681/681/681
f 688/688/688 689/689/689 741/741/741
f 692/692/692 742/742/742 689/689/689
f 693/693/693 694/694/694 745/745/745
f 745/745/745 691/691/691 693/693/693
f 695/695/695 744/744/744 694/694/694
f 746/746/746 744/744/744 695/695/695
f 739/739/739 741/741/741 732/732/732
f 736/736/736 677/677/677 737/737/737
f 738/738/738 736/736/736 737/737/737
f 738/738/738 735/735/735 736/736/736
f 732/732/732 733/733/733 739/739/739
f 733/733/733 734/734/734 739/739/739
f 742/742/742 729/729/729 730/730/730
f 730/730/730 731/731/731 741/741/741
f 743/743/743 745/745/745 728/728/728
f 745/745/745 743/743/743 691/691/691
f 745/745/745 744/744/744 726/726/726
f 744/744/744 725/725/725 726/726/726
f 725/725/725 746/746/746 724/724/724
f 744/744/744 746/746/746 725/725/725
f 747/747/747 697/697/697 698/698/698
f 748/748/748 699/699/699 700/700/700
f 698/698/698 699/699/699 748/748/748
f 746/746/746 747/747/747 723/723/723
f 747/747/747 746/746/746 697/697/697
f 748/748/748 749/749/749 720/720/720
f 700/700/700 749/749/749 748/748/748
f 747/747/747 748/748/748 722/722/722
f 749/749/749 700/700/700 701/701/701
f 750/750/750 749/749/749 701/701/701
f 703/703/703 750/750/750 702/702/702
f 704/704/704 705/705/705 752/752/752
f 709/709/709 758/758/758 706/706/706
f 708/708/708 751/751/751 705/705/705
f 704/704/704 754/754/754 703/703/703
f 709/709/709 678/678/678 679/679/679
f 722/722/722 723/723/723 747/747/747
f 749/749/749 750/750/750 719/719/719
f 719/719/719 720/720/720 749/749/749
f 750/750/750 717/717/717 718/718/718
f 717/717/717 750/750/750 754/754/754
f 754/754/754 752/752/752 716/716/716
f 758/758/758 679/679/679 710/710/710
f 755/755/755 752/752/752 707/707/707
f 751/751/751 756/756/756 712/712/712
f 757/757/757 711/711/711 713/713/713
f 717/717/717 754/754/754 716/716/716
f 754/754/754 750/750/750 703/703/703
f 776/776/776 759/759/759 765/765/765
f 776/776/776 765/765/765 767/767/767
f 760/760/760 777/777/777 775/775/775
f 776/776/776 772/772/772 774/774/774
f 762/762/762 776/776/776 767/767/767
f 762/762/762 769/769/769 761/761/761
f 776/776/776 762/762/762 772/772/772
f 763/763/763 770/770/770 773/773/773
f 762/762/762 764/764/764 771/771/771
f 768/768/768 763/763/763 766/766/766
f 155/155/155 161/161/161 159/159/159
f 153/153/153 171/171/171 169/169/169
f 168/168/168 158/158/158 154/154/154
f 290/290/290 178/178/178 283/283/283
f 280/280/280 194/194/194 289/289/289
f 44/44/44 33/33/33 37/37/37
f 55/55/55 28/28/28 48/48/48
f 37/37/37 52/52/52 55/55/55
f 51/51/51 26/26/26 27/27/27
f 42/42/42 226/226/226 35/35/35
f 230/230/230 30/30/30 226/226/226
f 70/70/70 63/63/63 66/66/66
f 48/48/48 68/68/68 71/71/71
f 82/82/82 58/58/58 73/73/73
f 65/65/65 80/80/80 83/83/83
f 68/68/68 62/62/62 63/63/63
f 206/206/206 28/28/28 25/25/25
f 25/25/25 214/214/214 208/208/208
f 207/207/207 210/210/210 61/61/61
f 210/210/210 22/22/22 61/61/61
f 215/215/215 205/205/205 26/26/26
f 452/452/452 464/464/464 455/455/455
f 450/450/450 476/476/476 467/467/467
f 472/472/472 456/456/456 473/473/473
f 585/585/585 480/480/480 488/488/488
f 578/578/578 489/489/489 478/478/478
f 336/336/336 325/325/325 333/333/333
f 347/347/347 318/318/318 345/345/345
f 328/328/328 345/345/345 325/325/325
f 343/343/343 317/317/317 510/510/510
f 333/333/333 521/521/521 523/523/523
f 525/525/525 322/322/322 516/516/516
f 368/368/368 360/360/360 365/365/365
f 341/341/341 364/364/364 318/318/318
f 381/381/381 351/351/351 378/378/378
f 361/361/361 378/378/378 360/360/360
f 366/366/366 356/356/356 499/499/499
f 501/501/501 319/319/319 364/364/364
f 317/317/317 508/508/508 498/498/498
f 500/500/500 502/502/502 507/507/507
f 504/504/504 312/312/312 578/578/578
f 510/510/510 498/498/498 513/513/513
f 596/596/596 657/657/657 659/659/659
f 594/594/594 658/658/658 660/660/660
f 588/588/588 653/653/653 654/654/654
f 600/600/600 651/651/651 652/652/652
f 598/598/598 652/652/652 653/653/653
f 588/588/588 654/654/654 656/656/656
f 601/601/601 649/649/649 650/650/650
f 602/602/602 647/647/647 648/648/648
f 602/602/602 648/648/648 649/649/649
f 604/604/604 645/645/645 646/646/646
f 607/607/607 643/643/643 644/644/644
f 607/607/607 642/642/642 643/643/643
f 605/605/605 644/644/644 645/645/645
f 603/603/603 646/646/646 647/647/647
f 589/589/589 650/650/650 651/651/651
f 610/610/610 640/640/640 641/641/641
f 611/611/611 638/638/638 639/639/639
f 610/610/610 639/639/639 640/640/640
f 612/612/612 636/636/636 637/637/637
f 591/591/591 634/634/634 635/635/635
f 614/614/614 635/635/635 636/636/636
f 612/612/612 637/637/637 638/638/638
f 615/615/615 632/632/632 633/633/633
f 617/617/617 630/630/630 631/631/631
f 616/616/616 631/631/631 632/632/632
f 619/619/619 628/628/628 629/629/629
f 621/621/621 627/627/627 628/628/628
f 618/618/618 629/629/629 630/630/630
f 591/591/591 633/633/633 634/634/634
f 641/641/641 608/608/608 609/609/609
f 662/662/662 664/664/664 666/666/666
f 668/668/668 669/669/669 670/670/670
f 740/740/740 685/685/685 687/687/687
f 738/738/738 734/734/734 735/735/735
f 690/690/690 743/743/743 740/740/740
f 694/694/694 744/744/744 745/745/745
f 746/746/746 695/695/695 696/696/696
f 741/741/741 731/731/731 732/732/732
f 730/730/730 741/741/741 742/742/742
f 745/745/745 727/727/727 728/728/728
f 745/745/745 726/726/726 727/727/727
f 698/698/698 748/748/748 747/747/747
f 746/746/746 723/723/723 724/724/724
f 746/746/746 696/696/696 697/697/697
f 748/748/748 720/720/720 721/721/721
f 748/748/748 721/721/721 722/722/722
f 750/750/750 701/701/701 702/702/702
f 704/704/704 752/752/752 754/754/754
f 709/709/709 679/679/679 758/758/758
f 750/750/750 718/718/718 719/719/719
f 752/752/752 714/714/714 716/716/716
f 679/679/679 680/680/680 710/710/710
f 753/753/753 712/712/712 715/715/715

