mtllib material.mtl
usemtl Material-7011油漆.020
v -0.06553400 -0.11348800 0.02539300
v -0.06905200 -0.11263200 0.02723000
v -0.06702800 -0.11263200 0.02723000
v -0.06756300 -0.11348800 0.02539300
v -0.06095600 -0.11263200 0.02723000
v -0.06447500 -0.11348800 0.02539300
v -0.06298000 -0.11263200 0.02723000
v -0.06244600 -0.11348800 0.02539300
v -0.06372700 -0.11306000 0.02631100
v -0.06170100 -0.11306000 0.02631100
v -0.06905200 -0.11580400 0.01967700
v -0.06095600 -0.11580400 0.01967700
v -0.06553400 -0.11348800 0.02539300
v -0.06553400 -0.11348800 0.02539300
v -0.06553400 -0.11348800 0.02539300
v -0.06756300 -0.11348800 0.02539300
v -0.06244600 -0.11348800 0.02539300
v -0.06447500 -0.11348800 0.02539300
v -0.06447500 -0.11348800 0.02539300
v -0.06298000 -0.11580400 0.01967700
v -0.06196800 -0.11580400 0.01967700
v -0.06804000 -0.11580400 0.01967700
v -0.06702800 -0.11580400 0.01967700
v -0.06679300 -0.11392200 0.02444100
v -0.06602200 -0.11433800 0.02348300
v -0.06500400 -0.11378800 0.02474100
v -0.06526900 -0.11363900 0.02506700
v -0.06298000 -0.11365000 0.02504300
v -0.06399200 -0.11365000 0.02504300
v -0.06399200 -0.11365000 0.02504300
v -0.06702800 -0.11365000 0.02504300
v -0.06702800 -0.11365000 0.02504300
v -0.06601600 -0.11365000 0.02504300
v -0.06601600 -0.11365000 0.02504300
v -0.06601600 -0.11365000 0.02504300
v -0.06702800 -0.11356900 0.02521800
v -0.06702800 -0.11356900 0.02521800
v -0.06702800 -0.11356900 0.02521800
v -0.06601600 -0.11356900 0.02521800
v -0.06601600 -0.11356900 0.02521800
v -0.06601600 -0.11356900 0.02521800
v -0.06473900 -0.11363900 0.02506700
v -0.06473900 -0.11363900 0.02506700
v -0.06298000 -0.11356900 0.02521800
v -0.06298000 -0.11356900 0.02521800
v -0.06298000 -0.11356900 0.02521800
v -0.06399200 -0.11356900 0.02521800
v -0.06399200 -0.11356900 0.02521800
v -0.06399200 -0.11356900 0.02521800
v -0.06398600 -0.11433800 0.02348300
v -0.06360100 -0.11413200 0.02396300
v -0.06321500 -0.11392200 0.02444100
v -0.06283000 -0.11370700 0.02491800
v -0.06283000 -0.11370700 0.02491800
v -0.06171500 -0.11546200 0.02063700
v -0.06247300 -0.11510400 0.02159100
v -0.06323000 -0.11473000 0.02254000
v -0.06500400 -0.11485900 0.02221800
v -0.06449900 -0.11510600 0.02158700
v -0.06399300 -0.11534600 0.02095200
v -0.06348600 -0.11557900 0.02031600
v -0.06652200 -0.11557900 0.02031600
v -0.06601500 -0.11534600 0.02095200
v -0.06550900 -0.11510600 0.02158700
v -0.06677800 -0.11473000 0.02254000
v -0.06753500 -0.11510400 0.02159100
v -0.06829300 -0.11546200 0.02063700
v -0.06553400 -0.11412300 0.02568900
v -0.06905200 -0.11326600 0.02752600
v -0.06756300 -0.11412300 0.02568900
v -0.06702800 -0.11326600 0.02752600
v -0.06095600 -0.11326600 0.02752600
v -0.06447500 -0.11412300 0.02568900
v -0.06244600 -0.11412300 0.02568900
v -0.06298000 -0.11326600 0.02752600
v -0.06372700 -0.11369400 0.02660700
v -0.06170100 -0.11369400 0.02660700
v -0.06905200 -0.11646500 0.01990600
v -0.06095600 -0.11646500 0.01990600
v -0.06553400 -0.11412300 0.02568900
v -0.06553400 -0.11412300 0.02568900
v -0.06756300 -0.11412300 0.02568900
v -0.06244600 -0.11412300 0.02568900
v -0.06447500 -0.11412300 0.02568900
v -0.06447500 -0.11412300 0.02568900
v -0.06298000 -0.11646500 0.01990600
v -0.06196800 -0.11646500 0.01990600
v -0.06804000 -0.11646500 0.01990600
v -0.06702800 -0.11646500 0.01990600
v -0.06679300 -0.11456100 0.02472600
v -0.06602200 -0.11498300 0.02375700
v -0.06500400 -0.11442600 0.02502900
v -0.06526900 -0.11427500 0.02535900
v -0.06526900 -0.11427500 0.02535900
v -0.06526900 -0.11427500 0.02535900
v -0.06298000 -0.11428600 0.02533500
v -0.06298000 -0.11428600 0.02533500
v -0.06298000 -0.11428600 0.02533500
v -0.06399200 -0.11428600 0.02533500
v -0.06399200 -0.11428600 0.02533500
v -0.06399200 -0.11428600 0.02533500
v -0.06702800 -0.11428600 0.02533500
v -0.06702800 -0.11428600 0.02533500
v -0.06601600 -0.11428600 0.02533500
v -0.06601600 -0.11428600 0.02533500
v -0.06601600 -0.11428600 0.02533500
v -0.06702800 -0.11420500 0.02551200
v -0.06702800 -0.11420500 0.02551200
v -0.06601600 -0.11420500 0.02551200
v -0.06601600 -0.11420500 0.02551200
v -0.06601600 -0.11420500 0.02551200
v -0.06473900 -0.11427500 0.02535900
v -0.06473900 -0.11427500 0.02535900
v -0.06298000 -0.11420500 0.02551200
v -0.06298000 -0.11420500 0.02551200
v -0.06399200 -0.11420500 0.02551200
v -0.06399200 -0.11420500 0.02551200
v -0.06398600 -0.11498300 0.02375700
v -0.06360100 -0.11477400 0.02424200
v -0.06321500 -0.11456100 0.02472600
v -0.06283000 -0.11434400 0.02520800
v -0.06283000 -0.11434400 0.02520800
v -0.06171500 -0.11612000 0.02087700
v -0.06247300 -0.11575700 0.02184300
v -0.06323000 -0.11537800 0.02280300
v -0.06500400 -0.11550900 0.02247700
v -0.06449900 -0.11575900 0.02183800
v -0.06399300 -0.11600200 0.02119600
v -0.06348600 -0.11623700 0.02055200
v -0.06652200 -0.11623700 0.02055200
v -0.06601500 -0.11600200 0.02119600
v -0.06550900 -0.11575900 0.02183800
v -0.06677800 -0.11537800 0.02280300
v -0.06753500 -0.11575700 0.02184300
v -0.06829300 -0.11612000 0.02087700
v -0.06756300 -0.11348800 0.02539300
v -0.06756300 -0.11412300 0.02568900
v -0.06602200 -0.11433800 0.02348300
v -0.06602200 -0.11498300 0.02375700
v -0.06679300 -0.11392200 0.02444100
v -0.06679300 -0.11456100 0.02472600
v -0.06905200 -0.11263200 0.02723000
v -0.06905200 -0.11326600 0.02752600
v -0.06905200 -0.11326600 0.02752600
v -0.06756300 -0.11348800 0.02539300
v -0.06756300 -0.11348800 0.02539300
v -0.06756300 -0.11412300 0.02568900
v -0.06702800 -0.11263200 0.02723000
v -0.06702800 -0.11326600 0.02752600
v -0.06905200 -0.11263200 0.02723000
v -0.06905200 -0.11326600 0.02752600
v -0.06553400 -0.11348800 0.02539300
v -0.06553400 -0.11412300 0.02568900
v -0.06702800 -0.11263200 0.02723000
v -0.06702800 -0.11326600 0.02752600
v -0.06702800 -0.11326600 0.02752600
v -0.06553400 -0.11380600 0.02554100
v -0.06553400 -0.11380600 0.02554100
v -0.06500400 -0.11378800 0.02474100
v -0.06500400 -0.11410700 0.02488500
v -0.06500400 -0.11410700 0.02488500
v -0.06500400 -0.11442600 0.02502900
v -0.06553400 -0.11348800 0.02539300
v -0.06553400 -0.11380600 0.02554100
v -0.06553400 -0.11380600 0.02554100
v -0.06553400 -0.11412300 0.02568900
v -0.06526900 -0.11363900 0.02506700
v -0.06526900 -0.11427500 0.02535900
v -0.06526900 -0.11427500 0.02535900
v -0.06447500 -0.11348800 0.02539300
v -0.06447500 -0.11412300 0.02568900
v -0.06500400 -0.11378800 0.02474100
v -0.06500400 -0.11442600 0.02502900
v -0.06473900 -0.11363900 0.02506700
v -0.06473900 -0.11363900 0.02506700
v -0.06500400 -0.11410700 0.02488500
v -0.06500400 -0.11410700 0.02488500
v -0.06473900 -0.11427500 0.02535900
v -0.06473900 -0.11427500 0.02535900
v -0.06447500 -0.11380600 0.02554100
v -0.06298000 -0.11263200 0.02723000
v -0.06298000 -0.11326600 0.02752600
v -0.06372700 -0.11306000 0.02631100
v -0.06372700 -0.11369400 0.02660700
v -0.06447500 -0.11348800 0.02539300
v -0.06447500 -0.11412300 0.02568900
v -0.06447500 -0.11380600 0.02554100
v -0.06095600 -0.11263200 0.02723000
v -0.06095600 -0.11326600 0.02752600
v -0.06298000 -0.11263200 0.02723000
v -0.06298000 -0.11326600 0.02752600
v -0.06244600 -0.11348800 0.02539300
v -0.06244600 -0.11412300 0.02568900
v -0.06170100 -0.11306000 0.02631100
v -0.06170100 -0.11306000 0.02631100
v -0.06170100 -0.11369400 0.02660700
v -0.06095600 -0.11263200 0.02723000
v -0.06095600 -0.11326600 0.02752600
v -0.06095600 -0.11326600 0.02752600
v -0.06398600 -0.11433800 0.02348300
v -0.06398600 -0.11498300 0.02375700
v -0.06244600 -0.11348800 0.02539300
v -0.06244600 -0.11412300 0.02568900
v -0.06360100 -0.11413200 0.02396300
v -0.06321500 -0.11392200 0.02444100
v -0.06283000 -0.11370700 0.02491800
v -0.06283000 -0.11434400 0.02520800
v -0.06321500 -0.11456100 0.02472600
v -0.06360100 -0.11477400 0.02424200
v -0.06095600 -0.11580400 0.01967700
v -0.06095600 -0.11646500 0.01990600
v -0.06398600 -0.11433800 0.02348300
v -0.06398600 -0.11498300 0.02375700
v -0.06171500 -0.11546200 0.02063700
v -0.06247300 -0.11510400 0.02159100
v -0.06323000 -0.11473000 0.02254000
v -0.06323000 -0.11537800 0.02280300
v -0.06247300 -0.11575700 0.02184300
v -0.06171500 -0.11612000 0.02087700
v -0.06298000 -0.11580400 0.01967700
v -0.06298000 -0.11580400 0.01967700
v -0.06298000 -0.11646500 0.01990600
v -0.06095600 -0.11580400 0.01967700
v -0.06095600 -0.11646500 0.01990600
v -0.06095600 -0.11646500 0.01990600
v -0.06196800 -0.11580400 0.01967700
v -0.06196800 -0.11580400 0.01967700
v -0.06196800 -0.11646500 0.01990600
v -0.06196800 -0.11646500 0.01990600
v -0.06500400 -0.11485900 0.02221800
v -0.06500400 -0.11550900 0.02247700
v -0.06298000 -0.11580400 0.01967700
v -0.06298000 -0.11646500 0.01990600
v -0.06449900 -0.11510600 0.02158700
v -0.06399300 -0.11534600 0.02095200
v -0.06348600 -0.11557900 0.02031600
v -0.06348600 -0.11623700 0.02055200
v -0.06399300 -0.11600200 0.02119600
v -0.06449900 -0.11575900 0.02183800
v -0.06702800 -0.11580400 0.01967700
v -0.06702800 -0.11646500 0.01990600
v -0.06500400 -0.11485900 0.02221800
v -0.06500400 -0.11550900 0.02247700
v -0.06652200 -0.11557900 0.02031600
v -0.06601500 -0.11534600 0.02095200
v -0.06550900 -0.11510600 0.02158700
v -0.06550900 -0.11575900 0.02183800
v -0.06601500 -0.11600200 0.02119600
v -0.06652200 -0.11623700 0.02055200
v -0.06905200 -0.11580400 0.01967700
v -0.06905200 -0.11580400 0.01967700
v -0.06905200 -0.11646500 0.01990600
v -0.06702800 -0.11580400 0.01967700
v -0.06702800 -0.11646500 0.01990600
v -0.06804000 -0.11580400 0.01967700
v -0.06804000 -0.11646500 0.01990600
v -0.06804000 -0.11646500 0.01990600
v -0.06602200 -0.11433800 0.02348300
v -0.06602200 -0.11498300 0.02375700
v -0.06905200 -0.11580400 0.01967700
v -0.06905200 -0.11646500 0.01990600
v -0.06677800 -0.11473000 0.02254000
v -0.06753500 -0.11510400 0.02159100
v -0.06829300 -0.11546200 0.02063700
v -0.06829300 -0.11612000 0.02087700
v -0.06753500 -0.11575700 0.02184300
v -0.06677800 -0.11537800 0.02280300
vn 0.00000000 0.90630000 -0.42260000
vn 0.00000000 0.90630000 -0.42260000
vn 0.00000000 0.90630000 -0.42260000
vn 0.00000000 0.90630000 -0.42260000
vn 0.00000000 0.90630000 -0.42260000
vn 0.00000000 0.90630000 -0.42260000
vn 0.00000000 0.90630000 -0.42260000
vn 0.00000000 0.90630000 -0.42260000
vn 0.00000000 0.90630000 -0.42260000
vn 0.00000000 0.90630000 -0.42260000
vn -0.00000000 0.94490000 -0.32730000
vn -0.00000000 0.94490000 -0.32730000
vn -0.00000000 0.90620000 -0.42280000
vn 0.00000000 0.90630000 -0.42270000
vn 0.00000000 0.90630000 -0.42260000
vn 0.00000000 0.90630000 -0.42260000
vn 0.00000000 0.90630000 -0.42260000
vn 0.00000000 0.90630000 -0.42260000
vn 0.00000000 0.90630000 -0.42270000
vn 0.00000000 0.94490000 -0.32740000
vn -0.00000000 0.94490000 -0.32730000
vn 0.00000000 0.94490000 -0.32740000
vn 0.00000000 0.94490000 -0.32740000
vn 0.00010000 0.91350000 -0.40680000
vn 0.00040000 0.92060000 -0.39040000
vn -0.00000000 0.91130000 -0.41180000
vn -0.00000000 0.90880000 -0.41720000
vn -0.00000000 0.90900000 -0.41680000
vn 0.00000000 0.90900000 -0.41670000
vn -0.00000000 0.90900000 -0.41680000
vn -0.00000000 0.90900000 -0.41690000
vn -0.00000000 0.90900000 -0.41680000
vn -0.00000000 0.90900000 -0.41690000
vn 0.00000000 0.90900000 -0.41670000
vn -0.00000000 0.90900000 -0.41680000
vn 0.00000000 0.90770000 -0.41970000
vn 0.00000000 0.90770000 -0.41960000
vn 0.00000000 0.90760000 -0.41980000
vn 0.00000000 0.90760000 -0.41980000
vn 0.00000000 0.90770000 -0.41960000
vn 0.00010000 0.90770000 -0.41970000
vn 0.00000000 0.90880000 -0.41710000
vn -0.00000000 0.90880000 -0.41720000
vn 0.00000000 0.90760000 -0.41980000
vn 0.00000000 0.90770000 -0.41960000
vn 0.00000000 0.90770000 -0.41970000
vn 0.00000000 0.90760000 -0.41980000
vn 0.00000000 0.90770000 -0.41970000
vn 0.00010000 0.90760000 -0.41980000
vn -0.00000000 0.92050000 -0.39070000
vn 0.00000000 0.91700000 -0.39880000
vn -0.00000000 0.91350000 -0.40680000
vn 0.00000000 0.90990000 -0.41480000
vn -0.00000000 0.91000000 -0.41470000
vn 0.00000000 0.93920000 -0.34340000
vn -0.00000000 0.93320000 -0.35930000
vn 0.00000000 0.92700000 -0.37500000
vn -0.00000000 0.92910000 -0.36990000
vn 0.00000000 0.93330000 -0.35920000
vn 0.00000000 0.93730000 -0.34860000
vn 0.00000000 0.94110000 -0.33800000
vn 0.00000000 0.94110000 -0.33800000
vn 0.00000000 0.93730000 -0.34860000
vn 0.00000000 0.93330000 -0.35920000
vn 0.00000000 0.92700000 -0.37500000
vn 0.00000000 0.93330000 -0.35920000
vn 0.00000000 0.93920000 -0.34330000
vn 0.00000000 -0.90630000 0.42260000
vn 0.00000000 -0.90630000 0.42260000
vn 0.00000000 -0.90630000 0.42260000
vn 0.00000000 -0.90630000 0.42260000
vn 0.00000000 -0.90630000 0.42260000
vn 0.00000000 -0.90630000 0.42260000
vn 0.00000000 -0.90630000 0.42260000
vn 0.00000000 -0.90630000 0.42260000
vn 0.00000000 -0.90630000 0.42260000
vn 0.00000000 -0.90630000 0.42260000
vn -0.00000000 -0.94490000 0.32740000
vn -0.00000000 -0.94490000 0.32740000
vn -0.00000000 -0.90630000 0.42270000
vn 0.00000000 -0.90630000 0.42260000
vn 0.00000000 -0.90630000 0.42260000
vn -0.00000000 -0.90630000 0.42270000
vn 0.00000000 -0.90630000 0.42260000
vn -0.00000000 -0.90630000 0.42270000
vn -0.00000000 -0.94490000 0.32730000
vn -0.00000000 -0.94490000 0.32740000
vn -0.00000000 -0.94490000 0.32740000
vn -0.00000000 -0.94490000 0.32730000
vn -0.00000000 -0.91350000 0.40680000
vn -0.00040000 -0.92060000 0.39050000
vn 0.00000000 -0.91130000 0.41180000
vn 0.00000000 -0.90880000 0.41730000
vn -0.00000000 -0.90880000 0.41720000
vn 0.00000000 -0.90890000 0.41700000
vn -0.00000000 -0.90910000 0.41670000
vn -0.00000000 -0.90900000 0.41690000
vn -0.00000000 -0.90900000 0.41680000
vn -0.00000000 -0.90900000 0.41680000
vn -0.00000000 -0.90900000 0.41690000
vn -0.00000000 -0.90910000 0.41670000
vn -0.00000000 -0.90900000 0.41680000
vn -0.00000000 -0.90900000 0.41670000
vn -0.00000000 -0.90900000 0.41690000
vn -0.00000000 -0.90900000 0.41680000
vn -0.00000000 -0.90900000 0.41670000
vn -0.00000000 -0.90770000 0.41970000
vn 0.00000000 -0.90770000 0.41960000
vn 0.00000000 -0.90770000 0.41960000
vn 0.00010000 -0.90760000 0.41980000
vn -0.00000000 -0.90770000 0.41970000
vn -0.00000000 -0.90880000 0.41710000
vn -0.00000000 -0.90880000 0.41720000
vn -0.00000000 -0.90760000 0.41970000
vn -0.00000000 -0.90770000 0.41970000
vn -0.00010000 -0.90760000 0.41980000
vn -0.00000000 -0.90770000 0.41970000
vn 0.00000000 -0.92050000 0.39070000
vn -0.00000000 -0.91700000 0.39890000
vn -0.00000000 -0.91350000 0.40680000
vn -0.00000000 -0.90990000 0.41470000
vn -0.00000000 -0.91000000 0.41460000
vn -0.00000000 -0.93920000 0.34330000
vn -0.00000000 -0.93330000 0.35920000
vn -0.00000000 -0.92700000 0.37500000
vn -0.00000000 -0.92910000 0.36990000
vn -0.00000000 -0.93330000 0.35920000
vn -0.00000000 -0.93720000 0.34870000
vn -0.00000000 -0.94110000 0.33810000
vn 0.00000000 -0.94110000 0.33800000
vn -0.00000000 -0.93720000 0.34870000
vn -0.00000000 -0.93330000 0.35920000
vn -0.00000000 -0.92700000 0.37500000
vn -0.00000000 -0.93330000 0.35920000
vn -0.00000000 -0.93920000 0.34330000
vn -0.80580000 -0.25030000 -0.53670000
vn -0.80910000 -0.24840000 -0.53270000
vn -0.80410000 -0.23230000 -0.54730000
vn -0.80740000 -0.23060000 -0.54310000
vn -0.80490000 -0.24140000 -0.54210000
vn -0.80810000 -0.23960000 -0.53800000
vn -0.80580000 -0.25030000 -0.53670000
vn -0.80580000 -0.25030000 -0.53670000
vn -0.80580000 -0.25020000 -0.53670000
vn -0.80580000 -0.25020000 -0.53670000
vn -0.80580000 -0.25030000 -0.53670000
vn -0.80580000 -0.25020000 -0.53670000
vn 0.00000000 0.42260000 0.90630000
vn 0.00000000 0.42260000 0.90630000
vn 0.00000000 0.42260000 0.90630000
vn 0.00000000 0.42260000 0.90630000
vn 0.80490000 0.25080000 0.53790000
vn 0.80490000 0.25080000 0.53780000
vn 0.80490000 0.25080000 0.53790000
vn 0.80490000 0.25080000 0.53780000
vn 0.80490000 0.25080000 0.53790000
vn 0.80490000 0.25080000 0.53790000
vn 0.80490000 0.25080000 0.53780000
vn 0.80430000 0.24460000 0.54150000
vn 0.80590000 0.24380000 0.53950000
vn 0.80590000 0.24380000 0.53960000
vn 0.80740000 0.24300000 0.53770000
vn 0.80470000 0.25090000 0.53800000
vn 0.80650000 0.24980000 0.53580000
vn 0.80650000 0.24990000 0.53580000
vn 0.80830000 0.24890000 0.53360000
vn 0.80450000 0.24780000 0.53980000
vn 0.80780000 0.24590000 0.53580000
vn 0.80780000 0.24590000 0.53570000
vn -0.80470000 0.25090000 0.53810000
vn -0.80830000 0.24890000 0.53370000
vn -0.80440000 0.24460000 0.54140000
vn -0.80740000 0.24290000 0.53770000
vn -0.80450000 0.24780000 0.53970000
vn -0.80450000 0.24770000 0.53980000
vn -0.80590000 0.24380000 0.53950000
vn -0.80590000 0.24380000 0.53960000
vn -0.80780000 0.24590000 0.53580000
vn -0.80780000 0.24600000 0.53570000
vn -0.80650000 0.24990000 0.53580000
vn -0.80490000 0.25080000 0.53790000
vn -0.80490000 0.25080000 0.53790000
vn -0.80490000 0.25080000 0.53790000
vn -0.80490000 0.25080000 0.53790000
vn -0.80490000 0.25080000 0.53790000
vn -0.80490000 0.25080000 0.53790000
vn -0.80490000 0.25080000 0.53790000
vn 0.00000000 0.42260000 0.90630000
vn 0.00000000 0.42260000 0.90630000
vn 0.00000000 0.42260000 0.90630000
vn 0.00000000 0.42260000 0.90630000
vn 0.80580000 -0.25030000 -0.53670000
vn 0.80580000 -0.25030000 -0.53670000
vn 0.80580000 -0.25030000 -0.53670000
vn 0.80580000 -0.25020000 -0.53670000
vn 0.80580000 -0.25030000 -0.53670000
vn 0.80580000 -0.25020000 -0.53670000
vn 0.80580000 -0.25030000 -0.53670000
vn 0.80580000 -0.25020000 -0.53670000
vn 0.80430000 -0.23220000 -0.54700000
vn 0.80740000 -0.23060000 -0.54310000
vn 0.80580000 -0.25020000 -0.53670000
vn 0.80890000 -0.24850000 -0.53290000
vn 0.80450000 -0.23690000 -0.54470000
vn 0.80490000 -0.24140000 -0.54210000
vn 0.80540000 -0.24580000 -0.53940000
vn 0.80860000 -0.24400000 -0.53540000
vn 0.80820000 -0.23960000 -0.53800000
vn 0.80780000 -0.23510000 -0.54060000
vn 0.80170000 0.19570000 0.56480000
vn 0.80520000 0.19410000 0.56030000
vn 0.80400000 0.23240000 0.54730000
vn 0.80740000 0.23060000 0.54310000
vn 0.80220000 0.20500000 0.56080000
vn 0.80270000 0.21420000 0.55650000
vn 0.80340000 0.22340000 0.55200000
vn 0.80660000 0.22170000 0.54790000
vn 0.80600000 0.21270000 0.55240000
vn 0.80550000 0.20350000 0.55660000
vn 0.00000000 -0.32730000 -0.94490000
vn 0.00000000 -0.32740000 -0.94490000
vn 0.00000000 -0.32730000 -0.94490000
vn 0.00000000 -0.32730000 -0.94490000
vn 0.00000000 -0.32740000 -0.94490000
vn 0.00000000 -0.32730000 -0.94490000
vn 0.00000000 -0.32730000 -0.94490000
vn 0.00000000 -0.32740000 -0.94490000
vn 0.00000000 -0.32730000 -0.94490000
vn 0.00000000 -0.32740000 -0.94490000
vn -0.80190000 -0.22090000 -0.55510000
vn -0.80550000 -0.21910000 -0.55070000
vn -0.80080000 -0.19600000 -0.56590000
vn -0.80400000 -0.19460000 -0.56180000
vn -0.80180000 -0.21470000 -0.55770000
vn -0.80140000 -0.20860000 -0.56060000
vn -0.80110000 -0.20230000 -0.56340000
vn -0.80430000 -0.20080000 -0.55920000
vn -0.80470000 -0.20700000 -0.55650000
vn -0.80500000 -0.21300000 -0.55370000
vn 0.80090000 -0.19600000 -0.56590000
vn 0.80400000 -0.19460000 -0.56180000
vn 0.80220000 -0.22070000 -0.55470000
vn 0.80550000 -0.21910000 -0.55070000
vn 0.80100000 -0.20230000 -0.56340000
vn 0.80140000 -0.20860000 -0.56060000
vn 0.80180000 -0.21470000 -0.55780000
vn 0.80500000 -0.21300000 -0.55370000
vn 0.80470000 -0.20700000 -0.55650000
vn 0.80430000 -0.20080000 -0.55920000
vn 0.00000000 -0.32740000 -0.94490000
vn 0.00000000 -0.32730000 -0.94490000
vn 0.00000000 -0.32730000 -0.94490000
vn 0.00000000 -0.32740000 -0.94490000
vn 0.00000000 -0.32740000 -0.94490000
vn 0.00000000 -0.32740000 -0.94490000
vn 0.00000000 -0.32730000 -0.94490000
vn 0.00000000 -0.32740000 -0.94490000
vn -0.80400000 0.23240000 0.54730000
vn -0.80740000 0.23060000 0.54310000
vn -0.80170000 0.19570000 0.56480000
vn -0.80500000 0.19420000 0.56060000
vn -0.80330000 0.22340000 0.55200000
vn -0.80270000 0.21420000 0.55650000
vn -0.80220000 0.20500000 0.56080000
vn -0.80540000 0.20350000 0.55660000
vn -0.80600000 0.21260000 0.55240000
vn -0.80660000 0.22170000 0.54790000
vt 0.13055100 0.39489000
vt 0.25879900 0.61749400
vt 0.25879900 0.48945300
vt 0.13055100 0.52325400
vt 0.25963800 0.65099400
vt 0.13285500 0.87359700
vt 0.25963800 0.77903500
vt 0.13285500 0.74523400
vt 0.19624600 0.82631600
vt 0.19624600 0.69811400
vt 0.64997400 0.39489000
vt 0.64997400 0.90563300
vt 0.26110300 0.61685700
vt 0.26110300 0.61685700
vt 0.26110300 0.61685700
vt 0.26110300 0.48886100
vt 0.26110300 0.81166200
vt 0.26110300 0.68366600
vt 0.26110300 0.68366600
vt 0.64997400 0.77795800
vt 0.64997400 0.84179600
vt 0.64997400 0.45872800
vt 0.64997400 0.52256500
vt 0.32746500 0.53741100
vt 0.39355400 0.58605700
vt 0.30665300 0.65026200
vt 0.28389500 0.63355400
vt 0.28554900 0.77794700
vt 0.28554900 0.71410400
vt 0.28554900 0.71410400
vt 0.28554900 0.52257600
vt 0.28554900 0.52257600
vt 0.28554900 0.58641900
vt 0.28554900 0.58641900
vt 0.28554900 0.58641900
vt 0.27332600 0.52257600
vt 0.27332600 0.52257600
vt 0.27332600 0.52257600
vt 0.27332600 0.58641900
vt 0.27332600 0.58641900
vt 0.27332600 0.58641900
vt 0.28389500 0.66697000
vt 0.28389500 0.66697000
vt 0.27332600 0.77794700
vt 0.27332600 0.77794700
vt 0.27332600 0.77794700
vt 0.27332600 0.71410400
vt 0.27332600 0.71410400
vt 0.27332600 0.71410400
vt 0.39355400 0.71446600
vt 0.36054300 0.73880000
vt 0.32746500 0.76311200
vt 0.29431900 0.78740000
vt 0.29431900 0.78740000
vt 0.58617700 0.85774900
vt 0.52218400 0.80992000
vt 0.45798100 0.76215500
vt 0.47981400 0.65026200
vt 0.52248800 0.68214500
vt 0.56507000 0.71405800
vt 0.60756400 0.74599700
vt 0.60756400 0.55452600
vt 0.56507000 0.58646500
vt 0.52248800 0.61837800
vt 0.45798100 0.53836800
vt 0.52218400 0.49060300
vt 0.58617700 0.44277400
vt 0.65143900 0.12824700
vt 0.87404200 0.00000000
vt 0.77980200 0.12824700
vt 0.74600200 0.00000000
vt 0.12824700 0.39489000
vt 0.00000000 0.61749400
vt 0.00000000 0.48913000
vt 0.12824700 0.52293100
vt 0.06412400 0.57021200
vt 0.06412400 0.44201000
vt 0.51220700 0.39342600
vt 0.00000000 0.39342600
vt 0.28960400 0.00000000
vt 0.28960400 0.00000000
vt 0.41796700 0.00000000
vt 0.09424000 0.00000000
vt 0.22260300 0.00000000
vt 0.22260300 0.00000000
vt 0.12804100 0.39342600
vt 0.06402000 0.39342600
vt 0.44818700 0.39342600
vt 0.38416700 0.39342600
vt 0.36927800 0.06714000
vt 0.32049200 0.13400200
vt 0.25610400 0.04608400
vt 0.27286000 0.02305900
vt 0.27286000 0.02305900
vt 0.27286000 0.02305900
vt 0.12805200 0.02473300
vt 0.12805200 0.02473300
vt 0.12805200 0.02473300
vt 0.19207800 0.02473300
vt 0.19207800 0.02473300
vt 0.19207800 0.02473300
vt 0.38415500 0.02473300
vt 0.38415500 0.02473300
vt 0.32012900 0.02473300
vt 0.32012900 0.02473300
vt 0.32012900 0.02473300
vt 0.38415500 0.01236700
vt 0.38415500 0.01236700
vt 0.32012900 0.01236700
vt 0.32012900 0.01236700
vt 0.32012900 0.01236700
vt 0.23934700 0.02305900
vt 0.23934700 0.02305900
vt 0.12805200 0.01236700
vt 0.12805200 0.01236700
vt 0.19207800 0.01236700
vt 0.19207800 0.01236700
vt 0.19171500 0.13400200
vt 0.16731100 0.10060500
vt 0.14292900 0.06714000
vt 0.11857200 0.03360600
vt 0.11857200 0.03360600
vt 0.04802100 0.32888100
vt 0.09598700 0.26413900
vt 0.14388900 0.19918400
vt 0.25610400 0.22127200
vt 0.22412900 0.26444600
vt 0.19212400 0.30752700
vt 0.16009400 0.35051800
vt 0.35211300 0.35051800
vt 0.32008300 0.30752700
vt 0.28807900 0.26444600
vt 0.36831800 0.19918400
vt 0.41622000 0.26413900
vt 0.46418600 0.32888100
vt 0.78282900 0.40483400
vt 0.74000900 0.40483400
vt 0.78282900 0.57035200
vt 0.74000900 0.57035200
vt 0.78282900 0.48759300
vt 0.74000900 0.48759300
vt 0.13139000 0.70674400
vt 0.08857000 0.70674400
vt 0.08857000 0.70674400
vt 0.13139000 0.86589400
vt 0.13139000 0.86589400
vt 0.08857000 0.86589400
vt 0.97858900 0.40483400
vt 0.93430400 0.40483400
vt 0.97858900 0.53287400
vt 0.93430400 0.53287400
vt 0.65143900 0.26750800
vt 0.65143900 0.31179300
vt 0.81078000 0.26750800
vt 0.81078000 0.31179300
vt 0.81078000 0.31179300
vt 0.65143900 0.28965000
vt 0.65143900 0.28965000
vt 0.78429400 0.55328000
vt 0.78429400 0.57542300
vt 0.78429400 0.57542300
vt 0.78429400 0.59756500
vt 0.84112900 0.55328000
vt 0.84112900 0.57542300
vt 0.84112900 0.57542300
vt 0.84112900 0.59756500
vt 0.81271100 0.55328000
vt 0.81271100 0.59756500
vt 0.81271100 0.59756500
vt 0.78429400 0.40483400
vt 0.78429400 0.44911900
vt 0.84112900 0.40483400
vt 0.84112900 0.44911900
vt 0.81271100 0.40483400
vt 0.81271100 0.40483400
vt 0.84112900 0.42697600
vt 0.84112900 0.42697600
vt 0.81271100 0.44911900
vt 0.81271100 0.44911900
vt 0.78429400 0.42697600
vt 0.65143900 0.19884500
vt 0.65143900 0.24313000
vt 0.73110900 0.19884500
vt 0.73110900 0.24313000
vt 0.81078000 0.19884500
vt 0.81078000 0.24313000
vt 0.81078000 0.22098700
vt 0.91289200 0.40483400
vt 0.86860700 0.40483400
vt 0.91289200 0.53287400
vt 0.86860700 0.53287400
vt 0.08710500 0.70674400
vt 0.04428500 0.70674400
vt 0.08710500 0.78631900
vt 0.08710500 0.78631900
vt 0.04428500 0.78631900
vt 0.08710500 0.86589400
vt 0.04428500 0.86589400
vt 0.04428500 0.86589400
vt 0.73854400 0.40483400
vt 0.69572400 0.40483400
vt 0.73854400 0.57035200
vt 0.69572400 0.57035200
vt 0.73854400 0.44621300
vt 0.73854400 0.48759300
vt 0.73854400 0.52897200
vt 0.69572400 0.52897200
vt 0.69572400 0.48759300
vt 0.69572400 0.44621300
vt 0.65143900 0.33617100
vt 0.65143900 0.38045600
vt 0.97538000 0.33617100
vt 0.97538000 0.38045600
vt 0.73242400 0.33617100
vt 0.81341000 0.33617100
vt 0.89439500 0.33617100
vt 0.89439500 0.38045600
vt 0.81341000 0.38045600
vt 0.73242400 0.38045600
vt 0.00000000 0.65099400
vt 0.00000000 0.65099400
vt 0.00000000 0.69527900
vt 0.12804100 0.65099400
vt 0.12804100 0.69527900
vt 0.12804100 0.69527900
vt 0.06402000 0.65099400
vt 0.06402000 0.65099400
vt 0.06402000 0.69527900
vt 0.06402000 0.69527900
vt 0.78429400 0.80441200
vt 0.78429400 0.84869700
vt 0.99853500 0.80441200
vt 0.99853500 0.84869700
vt 0.83785400 0.80441200
vt 0.89141500 0.80441200
vt 0.94497500 0.80441200
vt 0.94497500 0.84869700
vt 0.89141500 0.84869700
vt 0.83785400 0.84869700
vt 0.78429400 0.70172700
vt 0.78429400 0.74601200
vt 0.99853500 0.70172700
vt 0.99853500 0.74601200
vt 0.83785400 0.70172700
vt 0.89141500 0.70172700
vt 0.94497500 0.70172700
vt 0.94497500 0.74601200
vt 0.89141500 0.74601200
vt 0.83785400 0.74601200
vt 0.04282000 0.70674400
vt 0.04282000 0.70674400
vt 0.00000000 0.70674400
vt 0.04282000 0.83478500
vt 0.00000000 0.83478500
vt 0.04282000 0.77076500
vt 0.00000000 0.77076500
vt 0.00000000 0.77076500
vt 0.69425900 0.40483400
vt 0.65143900 0.40483400
vt 0.69425900 0.72877500
vt 0.65143900 0.72877500
vt 0.69425900 0.48581900
vt 0.69425900 0.56680400
vt 0.69425900 0.64779000
vt 0.65143900 0.64779000
vt 0.65143900 0.56680400
vt 0.65143900 0.48581900
f 4/4/4 3/3/3 1/1/1
f 3/3/3 4/4/4 2/2/2
f 7/7/7 5/5/5 10/10/10
f 9/9/9 10/10/10 8/8/8
f 8/8/8 6/6/6 9/9/9
f 10/10/10 9/9/9 7/7/7
f 28/28/28 30/30/30 48/48/48
f 33/33/33 31/31/31 38/38/38
f 13/13/13 39/39/39 38/38/38
f 32/32/32 16/16/16 38/38/38
f 27/27/27 41/41/41 14/14/14
f 43/43/43 19/19/19 49/49/49
f 26/26/26 24/24/24 32/32/32
f 16/16/16 32/32/32 24/24/24
f 26/26/26 35/35/35 27/27/27
f 35/35/35 40/40/40 27/27/27
f 32/32/32 35/35/35 26/26/26
f 26/26/26 52/52/52 24/24/24
f 29/29/29 26/26/26 42/42/42
f 44/44/44 47/47/47 19/19/19
f 17/17/17 45/45/45 18/18/18
f 28/28/28 44/44/44 17/17/17
f 43/43/43 47/47/47 30/30/30
f 54/54/54 52/52/52 26/26/26
f 28/28/28 53/53/53 30/30/30
f 29/29/29 54/54/54 26/26/26
f 17/17/17 54/54/54 28/28/28
f 52/52/52 51/51/51 24/24/24
f 51/51/51 50/50/50 25/25/25
f 25/25/25 24/24/24 51/51/51
f 66/66/66 65/65/65 58/58/58
f 50/50/50 57/57/57 65/65/65
f 63/63/63 66/66/66 64/64/64
f 66/66/66 58/58/58 64/64/64
f 63/63/63 67/67/67 66/66/66
f 62/62/62 11/11/11 67/67/67
f 23/23/23 22/22/22 62/62/62
f 11/11/11 62/62/62 22/22/22
f 63/63/63 62/62/62 67/67/67
f 56/56/56 59/59/59 58/58/58
f 57/57/57 56/56/56 58/58/58
f 60/60/60 59/59/59 56/56/56
f 55/55/55 60/60/60 56/56/56
f 65/65/65 57/57/57 58/58/58
f 21/21/21 20/20/20 61/61/61
f 55/55/55 12/12/12 61/61/61
f 21/21/21 61/61/61 12/12/12
f 60/60/60 55/55/55 61/61/61
f 25/25/25 50/50/50 65/65/65
f 70/70/70 68/68/68 71/71/71
f 71/71/71 69/69/69 70/70/70
f 74/74/74 77/77/77 76/76/76
f 72/72/72 75/75/75 77/77/77
f 74/74/74 76/76/76 73/73/73
f 77/77/77 75/75/75 76/76/76
f 97/97/97 115/115/115 117/117/117
f 104/104/104 111/111/111 107/107/107
f 81/81/81 82/82/82 107/107/107
f 102/102/102 107/107/107 82/82/82
f 93/93/93 80/80/80 110/110/110
f 113/113/113 116/116/116 84/84/84
f 92/92/92 102/102/102 90/90/90
f 82/82/82 90/90/90 102/102/102
f 92/92/92 94/94/94 105/105/105
f 106/106/106 95/95/95 109/109/109
f 102/102/102 92/92/92 105/105/105
f 92/92/92 90/90/90 120/120/120
f 100/100/100 113/113/113 92/92/92
f 115/115/115 84/84/84 117/117/117
f 83/83/83 85/85/85 114/114/114
f 98/98/98 83/83/83 114/114/114
f 112/112/112 99/99/99 117/117/117
f 121/121/121 92/92/92 120/120/120
f 96/96/96 101/101/101 122/122/122
f 100/100/100 92/92/92 121/121/121
f 83/83/83 98/98/98 121/121/121
f 120/120/120 90/90/90 119/119/119
f 119/119/119 91/91/91 118/118/118
f 91/91/91 119/119/119 90/90/90
f 134/134/134 126/126/126 133/133/133
f 118/118/118 133/133/133 125/125/125
f 131/131/131 132/132/132 134/134/134
f 134/134/134 132/132/132 126/126/126
f 131/131/131 134/134/134 135/135/135
f 130/130/130 135/135/135 78/78/78
f 89/89/89 130/130/130 88/88/88
f 78/78/78 88/88/88 130/130/130
f 131/131/131 135/135/135 130/130/130
f 124/124/124 126/126/126 127/127/127
f 125/125/125 126/126/126 124/124/124
f 128/128/128 124/124/124 127/127/127
f 123/123/123 124/124/124 128/128/128
f 133/133/133 126/126/126 125/125/125
f 87/87/87 129/129/129 86/86/86
f 123/123/123 129/129/129 79/79/79
f 87/87/87 79/79/79 129/129/129
f 128/128/128 129/129/129 123/123/123
f 91/91/91 133/133/133 118/118/118
f 136/136/136 140/140/140 141/141/141
f 139/139/139 141/141/141 140/140/140
f 143/143/143 142/142/142 146/146/146
f 149/149/149 148/148/148 150/150/150
f 154/154/154 157/157/157 152/152/152
f 153/153/153 158/158/158 155/155/155
f 154/154/154 156/156/156 157/157/157
f 160/160/160 164/164/164 168/168/168
f 160/160/160 168/168/168 162/162/162
f 167/167/167 161/161/161 159/159/159
f 164/164/164 167/167/167 163/163/163
f 167/167/167 164/164/164 160/160/160
f 180/180/180 170/170/170 174/174/174
f 180/180/180 179/179/179 171/171/171
f 178/178/178 180/180/180 174/174/174
f 174/174/174 176/176/176 178/178/178
f 176/176/176 173/173/173 178/178/178
f 172/172/172 177/177/177 175/175/175
f 182/182/182 181/181/181 183/183/183
f 184/184/184 183/183/183 187/187/187
f 187/187/187 186/186/186 184/184/184
f 189/189/189 188/188/188 190/190/190
f 193/193/193 192/192/192 196/196/196
f 197/197/197 199/199/199 195/195/195
f 200/200/200 204/204/204 201/201/201
f 208/208/208 209/209/209 204/204/204
f 205/205/205 206/206/206 208/208/208
f 203/203/203 207/207/207 202/202/202
f 210/210/210 214/214/214 219/219/219
f 214/214/214 215/215/215 218/218/218
f 216/216/216 212/212/212 213/213/213
f 217/217/217 218/218/218 216/216/216
f 228/228/228 222/222/222 220/220/220
f 226/226/226 223/223/223 225/225/225
f 234/234/234 239/239/239 231/231/231
f 239/239/239 234/234/234 235/235/235
f 236/236/236 232/232/232 233/233/233
f 237/237/237 238/238/238 236/236/236
f 240/240/240 244/244/244 241/241/241
f 248/248/248 249/249/249 244/244/244
f 245/245/245 246/246/246 247/247/247
f 243/243/243 247/247/247 246/246/246
f 250/250/250 255/255/255 257/257/257
f 254/254/254 257/257/257 255/255/255
f 262/262/262 267/267/267 259/259/259
f 267/267/267 262/262/262 266/266/266
f 264/264/264 260/260/260 265/265/265
f 265/265/265 266/266/266 264/264/264
f 28/28/28 48/48/48 46/46/46
f 34/34/34 37/37/37 40/40/40
f 15/15/15 36/36/36 16/16/16
f 98/98/98 117/117/117 99/99/99
f 106/106/106 108/108/108 103/103/103
f 81/81/81 108/108/108 109/109/109
f 136/136/136 141/141/141 137/137/137
f 139/139/139 140/140/140 138/138/138
f 144/144/144 145/145/145 147/147/147
f 149/149/149 150/150/150 151/151/151
f 165/165/165 166/166/166 169/169/169
f 182/182/182 183/183/183 184/184/184
f 183/183/183 185/185/185 187/187/187
f 189/189/189 190/190/190 191/191/191
f 192/192/192 194/194/194 196/196/196
f 198/198/198 196/196/196 194/194/194
f 204/204/204 209/209/209 201/201/201
f 208/208/208 204/204/204 205/205/205
f 206/206/206 207/207/207 208/208/208
f 207/207/207 206/206/206 202/202/202
f 210/210/210 219/219/219 211/211/211
f 214/214/214 218/218/218 219/219/219
f 216/216/216 213/213/213 217/217/217
f 218/218/218 215/215/215 216/216/216
f 229/229/229 221/221/221 227/227/227
f 227/227/227 224/224/224 229/229/229
f 234/234/234 231/231/231 230/230/230
f 239/239/239 235/235/235 238/238/238
f 236/236/236 233/233/233 237/237/237
f 238/238/238 235/235/235 236/236/236
f 244/244/244 249/249/249 241/241/241
f 248/248/248 244/244/244 245/245/245
f 245/245/245 247/247/247 248/248/248
f 243/243/243 246/246/246 242/242/242
f 251/251/251 256/256/256 252/252/252
f 254/254/254 255/255/255 253/253/253
f 262/262/262 259/259/259 258/258/258
f 262/262/262 263/263/263 266/266/266
f 260/260/260 261/261/261 265/265/265
f 266/266/266 263/263/263 264/264/264

