mtllib material.mtl
usemtl Material-7024油漆.002
v 0.15000000 0.08110800 0.06500000
v 0.16500000 0.08110800 0.05000000
v 0.16397400 0.08110800 0.05545200
v 0.16071700 0.08110800 0.06049600
v 0.15569900 0.08110800 0.06387500
v 0.16500000 0.08110800 -0.05000000
v -0.16500000 0.08110800 0.05000000
v 0.15000000 0.08110800 -0.06500000
v 0.16387500 0.08110800 -0.05569900
v 0.15545200 0.08110800 -0.06397400
v 0.16049600 0.08110800 -0.06071600
v -0.15000000 0.08110800 -0.06500000
v -0.16049600 0.08110800 0.06071600
v -0.15000000 0.08110800 0.06500000
v -0.15545200 0.08110800 0.06397400
v -0.16387500 0.08110800 0.05569900
v -0.16071700 0.08110800 -0.06049600
v -0.15569900 0.08110800 -0.06387500
v -0.16397400 0.08110800 -0.05545200
v -0.16500000 0.08110800 -0.05000000
v 0.15569900 0.08110800 0.06387500
v 0.15170900 0.09496400 0.06499800
v 0.15000000 0.08110800 0.06500000
v 0.15602400 0.09555200 0.06373700
v 0.16071700 0.08110800 0.06049600
v 0.16090600 0.09715500 0.06029800
v 0.16397400 0.08110800 0.05545200
v 0.16499700 0.10125000 0.05151700
v 0.16500000 0.08110800 0.05000000
v 0.16396400 0.09940300 0.05547900
v -0.15168400 0.09496300 0.06499900
v -0.15000000 0.08110800 0.06500000
v 0.15000000 0.08110800 0.06500000
v -0.16387500 0.08110800 0.05569900
v -0.16499700 0.10123900 0.05154100
v -0.16500000 0.08110800 0.05000000
v -0.16049600 0.08110800 0.06071600
v -0.16090600 0.09715500 0.06029800
v -0.16396400 0.09940300 0.05547900
v -0.15602400 0.09555200 0.06373700
v -0.15545200 0.08110800 0.06397400
v -0.15168400 0.09496300 0.06499900
v -0.15000000 0.08110800 0.06500000
v -0.16499700 0.10123900 0.05154100
v -0.16499700 0.10123900 0.05154100
v -0.16500000 0.11095800 -0.03020000
v -0.16500000 0.11095800 -0.03020000
v -0.16500000 0.11095800 -0.03020000
v -0.16500000 0.11095800 -0.03020000
v -0.16499800 0.09623900 -0.05146400
v -0.16499800 0.09623900 -0.05146400
v -0.16500000 0.11543500 -0.02048600
v -0.16500000 0.11543500 -0.02048600
v -0.16500000 0.11511900 0.02166100
v -0.16500000 0.11511900 0.02166100
v -0.16500000 0.11511900 0.02166100
v -0.16500000 0.11763900 -0.01291800
v -0.16500000 0.11825400 -0.00071400
v -0.16500000 0.11825400 -0.00071400
v -0.16496600 0.11930600 -0.00088300
v -0.16500000 0.08110800 -0.05000000
v -0.16500000 0.08110800 0.05000000
v -0.16500000 0.08110800 0.05000000
v -0.16500000 0.08110800 0.05000000
v -0.16499000 0.11888200 0.00107500
v -0.16499000 0.11888200 0.00107500
v -0.16498700 0.11827600 0.01040900
v -0.15569900 0.08110800 -0.06387500
v -0.15178600 0.08676400 -0.06499800
v -0.15000000 0.08110800 -0.06500000
v -0.15633700 0.08774500 -0.06359600
v -0.16071700 0.08110800 -0.06049600
v -0.16119700 0.09027600 -0.05998100
v -0.16397400 0.08110800 -0.05545200
v -0.16499800 0.09623900 -0.05146400
v -0.16500000 0.08110800 -0.05000000
v -0.16405700 0.09359900 -0.05523500
v 0.15177100 0.08676300 -0.06499900
v 0.15177100 0.08676300 -0.06499900
v 0.15000000 0.08110800 -0.06500000
v -0.15000000 0.08110800 -0.06500000
v -0.15000000 0.08110800 -0.06500000
v 0.16387500 0.08110800 -0.05569900
v 0.16499800 0.09621800 -0.05149500
v 0.16500000 0.08110800 -0.05000000
v 0.16049600 0.08110800 -0.06071600
v 0.16119700 0.09027600 -0.05998100
v 0.16405700 0.09359900 -0.05523500
v 0.15633700 0.08774500 -0.06359600
v 0.15545200 0.08110800 -0.06397400
v 0.15177100 0.08676300 -0.06499900
v 0.15000000 0.08110800 -0.06500000
v 0.16499800 0.09621800 -0.05149500
v 0.16499800 0.09621800 -0.05149500
v 0.14852700 0.10112200 -0.04449100
v 0.14853000 0.10820300 -0.03437900
v 0.16119700 0.09027600 -0.05998100
v 0.15633700 0.08774500 -0.06359600
v 0.15633700 0.08774500 -0.06359600
v 0.15633700 0.08774500 -0.06359600
v 0.16405700 0.09359900 -0.05523500
v -0.16405700 0.09359900 -0.05523500
v -0.16405700 0.09359900 -0.05523500
v 0.00982100 0.09692100 -0.05048600
v 0.00982100 0.09692100 -0.05048600
v 0.00982100 0.09692100 -0.05048600
v -0.00984300 0.09690600 -0.05050600
v -0.00984300 0.09690600 -0.05050600
v -0.00984300 0.09690600 -0.05050600
v 0.16500000 0.11122800 -0.02979100
v 0.14465700 0.09689700 -0.05050600
v 0.00597000 0.10820300 -0.03437900
v 0.00597000 0.10820300 -0.03437900
v 0.00597300 0.10111500 -0.04450300
v 0.00597300 0.10111500 -0.04450300
v -0.00597300 0.10112200 -0.04449100
v -0.00597300 0.10112200 -0.04449100
v -0.00597300 0.10112200 -0.04449100
v -0.00597000 0.10820300 -0.03437900
v -0.14853100 0.11110400 -0.03008300
v -0.14852700 0.10111500 -0.04450300
v -0.14852700 0.10111500 -0.04450300
v -0.16499800 0.09623900 -0.05146400
v -0.16499800 0.09623900 -0.05146400
v -0.16499800 0.09623900 -0.05146400
v -0.16500000 0.11095800 -0.03020000
v -0.14467900 0.09691100 -0.05048600
v -0.14467900 0.09691100 -0.05048600
v -0.16119700 0.09027600 -0.05998100
v -0.16119700 0.09027600 -0.05998100
v -0.15633700 0.08774500 -0.06359600
v -0.15633700 0.08774500 -0.06359600
v -0.15633700 0.08774500 -0.06359600
v 0.15177100 0.08676300 -0.06499900
v 0.15177100 0.08676300 -0.06499900
v 0.15602400 0.09555200 0.06373700
v 0.16090600 0.09715500 0.06029800
v 0.15170900 0.09496400 0.06499800
v -0.16396400 0.09940300 0.05547900
v -0.16090600 0.09715500 0.06029800
v -0.16090600 0.09715500 0.06029800
v 0.16499700 0.10125000 0.05151700
v 0.16499700 0.10125000 0.05151700
v 0.16499700 0.10125000 0.05151700
v -0.16499700 0.10123900 0.05154100
v -0.16499700 0.10123900 0.05154100
v -0.16499700 0.10123900 0.05154100
v -0.16499700 0.10123900 0.05154100
v 0.16396400 0.09940300 0.05547900
v -0.16500000 0.11511900 0.02166100
v -0.14853000 0.11489300 0.02217100
v -0.14852500 0.10448100 0.04458900
v -0.14287800 0.10171300 0.05052500
v -0.14287800 0.10171300 0.05052500
v -0.14647500 0.10281100 0.04816900
v -0.14647500 0.10281100 0.04816900
v -0.00597000 0.11343200 0.02539300
v 0.00597500 0.10448100 0.04458900
v 0.00597500 0.10448100 0.04458900
v 0.00597000 0.11343200 0.02539300
v -0.01159700 0.10171500 0.05052000
v -0.01159700 0.10171500 0.05052000
v -0.01159700 0.10171500 0.05052000
v 0.00802500 0.10281100 0.04816900
v 0.00802500 0.10281100 0.04816900
v 0.00802500 0.10281100 0.04816900
v -0.00802500 0.10281100 0.04816900
v -0.00802500 0.10281100 0.04816900
v -0.00597500 0.10447700 0.04459700
v -0.00597500 0.10447700 0.04459700
v -0.15168400 0.09496300 0.06499900
v -0.15168400 0.09496300 0.06499900
v -0.15602400 0.09555200 0.06373700
v 0.01162200 0.10171300 0.05052500
v 0.01162200 0.10171300 0.05052500
v 0.01162200 0.10171300 0.05052500
v 0.14853000 0.11343200 0.02539300
v 0.14852500 0.10447700 0.04459700
v 0.16500000 0.11343200 0.02539300
v 0.14647500 0.10281100 0.04816900
v 0.14647500 0.10281100 0.04816900
v 0.14290300 0.10171600 0.05052000
v 0.14853000 0.11343200 0.02539300
v 0.16500000 0.11343200 0.02539300
v 0.16500000 0.11754200 0.01342100
v 0.14853000 0.11754200 0.01342100
v 0.16500000 0.11899800 0.00084100
v 0.14853000 0.11904900 0.00078600
v 0.14852100 0.09557600 0.04473600
v 0.14852100 0.09557600 0.04473600
v 0.14852100 0.09557600 0.04473600
v 0.14851500 0.09557600 -0.04472000
v 0.14851500 0.09557600 -0.04472000
v 0.14851500 0.09557600 -0.04472000
v 0.00598400 0.09557600 -0.04468900
v 0.00598400 0.09557600 -0.04468900
v 0.14269600 0.09557600 0.05052500
v 0.14269600 0.09557600 0.05052500
v 0.14637900 0.09557600 0.04826900
v 0.00598000 0.09557600 0.04477300
v 0.00598000 0.09557600 0.04477300
v 0.00598000 0.09557600 0.04477300
v 0.01035800 0.09557600 -0.05050000
v 0.01035800 0.09557600 -0.05050000
v 0.14415300 0.09557700 -0.05047200
v 0.00823100 0.09557600 0.04837900
v 0.01184400 0.09557700 0.05052100
v 0.01184400 0.09557700 0.05052100
v -0.00597000 0.11814200 0.01045400
v -0.00597000 0.11343200 0.02539300
v 0.00597000 0.11343200 0.02539300
v 0.00597000 0.11814200 0.01045400
v 0.00597000 0.11882500 -0.00519400
v -0.00597000 0.11882500 -0.00519400
v -0.00597000 0.11543500 -0.02048600
v 0.00597000 0.11543500 -0.02048600
v 0.00597000 0.10820300 -0.03437900
v 0.14415300 0.09557700 -0.05047200
v 0.14851500 0.09557600 -0.04472000
v 0.14465700 0.09689700 -0.05050600
v 0.14852700 0.10112200 -0.04449100
v 0.14465700 0.09689700 -0.05050600
v 0.00982100 0.09692100 -0.05048600
v 0.01035800 0.09557600 -0.05050000
v 0.00982100 0.09692100 -0.05048600
v 0.00598400 0.09557600 -0.04468900
v 0.01035800 0.09557600 -0.05050000
v 0.00597300 0.10111500 -0.04450300
v 0.00597500 0.10448100 0.04458900
v 0.00597500 0.10448100 0.04458900
v 0.00597300 0.10111500 -0.04450300
v 0.00597300 0.10111500 -0.04450300
v 0.00597300 0.10111500 -0.04450300
v 0.00597000 0.10820300 -0.03437900
v 0.00597000 0.10820300 -0.03437900
v 0.00597000 0.10820300 -0.03437900
v 0.00597000 0.11543500 -0.02048600
v 0.00597000 0.11343200 0.02539300
v 0.00597000 0.11343200 0.02539300
v 0.00598000 0.09557600 0.04477300
v 0.00598000 0.09557600 0.04477300
v 0.00597000 0.11882500 -0.00519400
v 0.00597000 0.11814200 0.01045400
v 0.00823100 0.09557600 0.04837900
v 0.00598000 0.09557600 0.04477300
v 0.00802500 0.10281100 0.04816900
v 0.00597500 0.10448100 0.04458900
v 0.01162200 0.10171300 0.05052500
v 0.01184400 0.09557700 0.05052100
v 0.01162200 0.10171300 0.05052500
v 0.01162200 0.10171300 0.05052500
v 0.14290300 0.10171600 0.05052000
v 0.14269600 0.09557600 0.05052500
v 0.14269600 0.09557600 0.05052500
v 0.14290300 0.10171600 0.05052000
v 0.14637900 0.09557600 0.04826900
v 0.14269600 0.09557600 0.05052500
v 0.14647500 0.10281100 0.04816900
v 0.14852100 0.09557600 0.04473600
v 0.14852500 0.10447700 0.04459700
v -0.14852000 0.09557600 0.04477300
v -0.14852000 0.09557600 0.04477300
v -0.14852000 0.09557600 0.04477300
v -0.14626900 0.09557600 0.04837900
v -0.14265600 0.09557700 0.05052100
v -0.14265600 0.09557700 0.05052100
v -0.14851600 0.09557600 -0.04468900
v -0.14851600 0.09557600 -0.04468900
v -0.00597900 0.09557600 0.04473600
v -0.00597900 0.09557600 0.04473600
v -0.00597900 0.09557600 0.04473600
v -0.00598500 0.09557600 -0.04472000
v -0.00598500 0.09557600 -0.04472000
v -0.00598500 0.09557600 -0.04472000
v -0.14414200 0.09557600 -0.05050000
v -0.14414200 0.09557600 -0.05050000
v -0.01180400 0.09557600 0.05052500
v -0.01180400 0.09557600 0.05052500
v -0.00812100 0.09557600 0.04826900
v -0.01034700 0.09557700 -0.05047200
v -0.16496600 0.11930600 -0.00088300
v -0.14853000 0.11919400 -0.00099100
v -0.14853000 0.11763900 -0.01291800
v -0.14853000 0.11543500 -0.02048600
v -0.16500000 0.11543500 -0.02048600
v -0.16500000 0.11763900 -0.01291800
v -0.14853100 0.11110400 -0.03008300
v -0.14852500 0.10448100 0.04458900
v -0.14852500 0.10448100 0.04458900
v -0.14852500 0.10448100 0.04458900
v -0.14852700 0.10111500 -0.04450300
v -0.14852700 0.10111500 -0.04450300
v -0.14853100 0.11110400 -0.03008300
v -0.14853100 0.11110400 -0.03008300
v -0.14853100 0.11110400 -0.03008300
v -0.14853000 0.11543500 -0.02048600
v -0.14853000 0.11543500 -0.02048600
v -0.14853000 0.11543500 -0.02048600
v -0.14853000 0.11489300 0.02217100
v -0.14853000 0.11489300 0.02217100
v -0.14853000 0.11489300 0.02217100
v -0.14853000 0.11763900 -0.01291800
v -0.14853000 0.11763900 -0.01291800
v -0.14853000 0.11919400 -0.00099100
v -0.14853000 0.11821200 -0.00027300
v -0.14853000 0.11821200 -0.00027300
v -0.14853000 0.11821200 -0.00027300
v -0.14852000 0.09557600 0.04477300
v -0.14853000 0.11904900 0.00078600
v -0.14852800 0.11808400 0.01129500
v -0.14852800 0.11808400 0.01129500
v -0.14626900 0.09557600 0.04837900
v -0.14852000 0.09557600 0.04477300
v -0.14647500 0.10281100 0.04816900
v -0.14852500 0.10448100 0.04458900
v -0.14287800 0.10171300 0.05052500
v -0.14265600 0.09557700 0.05052100
v -0.14287800 0.10171300 0.05052500
v -0.14287800 0.10171300 0.05052500
v -0.01159700 0.10171500 0.05052000
v -0.01180400 0.09557600 0.05052500
v -0.01180400 0.09557600 0.05052500
v -0.01159700 0.10171500 0.05052000
v -0.00812100 0.09557600 0.04826900
v -0.01180400 0.09557600 0.05052500
v -0.00802500 0.10281100 0.04816900
v -0.00597900 0.09557600 0.04473600
v -0.00597500 0.10447700 0.04459700
v -0.00597000 0.10820300 -0.03437900
v -0.00597000 0.10820300 -0.03437900
v -0.00597500 0.10447700 0.04459700
v -0.00597500 0.10447700 0.04459700
v -0.00597000 0.11343200 0.02539300
v -0.00597000 0.11343200 0.02539300
v -0.00597000 0.11814200 0.01045400
v -0.00597000 0.11543500 -0.02048600
v -0.00597300 0.10112200 -0.04449100
v -0.00597300 0.10112200 -0.04449100
v -0.00597300 0.10112200 -0.04449100
v -0.00597900 0.09557600 0.04473600
v -0.00597900 0.09557600 0.04473600
v -0.00597000 0.11882500 -0.00519400
v -0.01034700 0.09557700 -0.05047200
v -0.00598500 0.09557600 -0.04472000
v -0.00984300 0.09690600 -0.05050600
v -0.00597300 0.10112200 -0.04449100
v -0.00984300 0.09690600 -0.05050600
v -0.14467900 0.09691100 -0.05048600
v -0.14414200 0.09557600 -0.05050000
v -0.14467900 0.09691100 -0.05048600
v -0.14851600 0.09557600 -0.04468900
v -0.14414200 0.09557600 -0.05050000
v -0.14852700 0.10111500 -0.04450300
v 0.14853000 0.11825400 0.00078600
v 0.14853000 0.11904900 0.00078600
v 0.16500000 0.11899800 0.00084100
v 0.16500000 0.11343200 0.02539300
v 0.16500000 0.11343200 0.02539300
v 0.16500000 0.11343200 0.02539300
v 0.16499700 0.10125000 0.05151700
v 0.16499700 0.10125000 0.05151700
v 0.16500000 0.11122800 -0.02979100
v 0.16500000 0.11122800 -0.02979100
v 0.16500000 0.11122800 -0.02979100
v 0.16500000 0.11122800 -0.02979100
v 0.16500000 0.11543500 -0.02048600
v 0.16500000 0.11543500 -0.02048600
v 0.16500000 0.11825400 -0.00071400
v 0.16500000 0.11899800 0.00084100
v 0.16500000 0.11754200 0.01342100
v 0.16500000 0.08110800 0.05000000
v 0.16500000 0.08110800 0.05000000
v 0.16500000 0.08110800 0.05000000
v 0.16499800 0.09621800 -0.05149500
v 0.16499800 0.09621800 -0.05149500
v 0.16500000 0.11763900 -0.01291800
v 0.16500800 0.11916700 -0.00104500
v 0.16500000 0.11763900 -0.01291800
v 0.14853000 0.11763900 -0.01291800
v 0.14855000 0.11923000 -0.00126100
v 0.14853000 0.11543500 -0.02048600
v 0.16500000 0.11543500 -0.02048600
v 0.16500000 0.11122800 -0.02979100
v 0.14853000 0.11343200 0.02539300
v 0.14853000 0.11343200 0.02539300
v 0.14853000 0.10820300 -0.03437900
v 0.14853000 0.10820300 -0.03437900
v 0.14852500 0.10447700 0.04459700
v 0.14852500 0.10447700 0.04459700
v 0.14853000 0.11543500 -0.02048600
v 0.14853000 0.11825400 0.00078600
v 0.14853000 0.11904900 0.00078600
v 0.14853000 0.11754200 0.01342100
v 0.14852700 0.10112200 -0.04449100
v 0.14852700 0.10112200 -0.04449100
v 0.14852100 0.09557600 0.04473600
v 0.14852100 0.09557600 0.04473600
v 0.14853000 0.11225900 -0.02769900
v 0.14855000 0.11923000 -0.00126100
v 0.14853000 0.11763900 -0.01291800
v 0.16500000 0.11825400 -0.00071400
v 0.14853000 0.11825400 0.00078600
v 0.16500000 0.11899800 0.00084100
v 0.14855000 0.11923000 -0.00126100
v -0.14853000 0.11821200 -0.00027300
v -0.14853000 0.11919400 -0.00099100
v -0.16496600 0.11930600 -0.00088300
v -0.16499000 0.11888200 0.00107500
v -0.14853000 0.11904900 0.00078600
v -0.14853000 0.11821200 -0.00027300
v -0.16500000 0.11511900 0.02166100
v -0.14853000 0.11489300 0.02217100
v -0.14852800 0.11808400 0.01129500
v -0.14853000 0.11904900 0.00078600
v -0.16499000 0.11888200 0.00107500
v -0.16498700 0.11827600 0.01040900
v -0.16499000 0.11888200 0.00107500
v -0.14853000 0.11821200 -0.00027300
v -0.16500000 0.11825400 -0.00071400
v 0.15170900 0.09496400 0.06499800
v -0.15178600 0.08676400 -0.06499800
v -0.15178600 0.08676400 -0.06499800
v -0.00597000 0.10820300 -0.03437900
v 0.14415300 0.09557700 -0.05047200
v 0.00598400 0.09557600 -0.04468900
v 0.01184400 0.09557700 0.05052100
v -0.16500000 0.11095800 -0.03020000
v -0.14851600 0.09557600 -0.04468900
v -0.14265600 0.09557700 0.05052100
v -0.00598500 0.09557600 -0.04472000
v -0.01034700 0.09557700 -0.05047200
v 0.16500000 0.11825400 -0.00071400
v 0.16500800 0.11916700 -0.00104500
v 0.14855000 0.11923000 -0.00126100
v 0.16500000 0.08110800 -0.05000000
v 0.16500800 0.11916700 -0.00104500
v 0.14853000 0.11225900 -0.02769900
v 0.14853000 0.10820300 -0.03437900
v 0.14851500 0.09557600 -0.04472000
v -0.16500000 0.11825400 -0.00071400
vn 0.00000000 -1.00000000 -0.00000000
vn 0.00000000 -1.00000000 -0.00000000
vn 0.00000000 -1.00000000 -0.00000000
vn 0.00000000 -1.00000000 -0.00000000
vn 0.00000000 -1.00000000 -0.00000000
vn 0.00000000 -1.00000000 -0.00000000
vn 0.00000000 -1.00000000 -0.00000000
vn 0.00000000 -1.00000000 -0.00000000
vn 0.00000000 -1.00000000 -0.00000000
vn 0.00000000 -1.00000000 -0.00000000
vn 0.00000000 -1.00000000 -0.00000000
vn 0.00000000 -1.00000000 -0.00000000
vn 0.00000000 -1.00000000 -0.00000000
vn 0.00000000 -1.00000000 -0.00000000
vn 0.00000000 -1.00000000 -0.00000000
vn 0.00000000 -1.00000000 -0.00000000
vn 0.00000000 -1.00000000 -0.00000000
vn 0.00000000 -1.00000000 -0.00000000
vn 0.00000000 -1.00000000 -0.00000000
vn 0.00000000 -1.00000000 -0.00000000
vn 0.37990000 0.00000000 0.92500000
vn 0.11340000 -0.00000000 0.99350000
vn 0.00000000 -0.00000000 1.00000000
vn 0.40160000 0.00000000 0.91580000
vn 0.71440000 0.00000000 0.69970000
vn 0.72710000 -0.00000000 0.68650000
vn 0.93160000 0.00000000 0.36340000
vn 0.99490000 0.00000000 0.10090000
vn 1.00000000 -0.00000000 -0.00000000
vn 0.93090000 -0.00000000 0.36530000
vn 0.00000000 0.00010000 1.00000000
vn 0.00000000 0.00010000 1.00000000
vn 0.00000000 0.00010000 1.00000000
vn -0.92500000 0.00000000 0.37990000
vn -0.99470000 -0.00000000 0.10240000
vn -1.00000000 -0.00000000 -0.00000000
vn -0.69970000 -0.00000000 0.71440000
vn -0.72710000 -0.00000000 0.68650000
vn -0.93090000 -0.00000000 0.36530000
vn -0.40160000 0.00000000 0.91580000
vn -0.36350000 -0.00000000 0.93160000
vn -0.11180000 0.00000000 0.99370000
vn 0.00000000 -0.00000000 1.00000000
vn -1.00000000 -0.00020000 0.00000000
vn -1.00000000 0.00010000 0.00010000
vn -1.00000000 0.00010000 0.00010000
vn -1.00000000 -0.00020000 0.00000000
vn -1.00000000 -0.00010000 -0.00000000
vn -1.00000000 0.00010000 0.00000000
vn -1.00000000 -0.00010000 -0.00000000
vn -1.00000000 0.00010000 0.00000000
vn -1.00000000 -0.00000000 -0.00000000
vn -1.00000000 0.00010000 0.00000000
vn -1.00000000 -0.00000000 -0.00000000
vn -1.00000000 -0.00020000 0.00000000
vn -1.00000000 0.00010000 0.00000000
vn -1.00000000 -0.00000000 -0.00000000
vn -1.00000000 -0.00000000 -0.00000000
vn -1.00000000 0.00010000 0.00000000
vn -1.00000000 -0.00000000 -0.00000000
vn -1.00000000 0.00010000 0.00000000
vn -1.00000000 0.00010000 0.00000000
vn -1.00000000 -0.00010000 -0.00000000
vn -1.00000000 0.00010000 0.00010000
vn -1.00000000 -0.00000000 -0.00000000
vn -1.00000000 0.00010000 0.00000000
vn -1.00000000 -0.00000000 -0.00000000
vn -0.37990000 0.00000000 -0.92500000
vn -0.11850000 0.00000000 -0.99300000
vn 0.00000000 0.00000000 -1.00000000
vn -0.42250000 -0.00000000 -0.90640000
vn -0.71440000 -0.00000000 -0.69970000
vn -0.74650000 0.00000000 -0.66540000
vn -0.93160000 -0.00000000 -0.36350000
vn -0.99520000 -0.00000000 -0.09740000
vn -1.00000000 -0.00000000 -0.00000000
vn -0.93710000 -0.00000000 -0.34900000
vn 0.00000000 0.00020000 -1.00000000
vn -0.00000000 -0.00010000 -1.00000000
vn 0.00000000 0.00020000 -1.00000000
vn 0.00000000 0.00020000 -1.00000000
vn -0.00000000 -0.00010000 -1.00000000
vn 0.92500000 -0.00000000 -0.37990000
vn 0.99500000 -0.00000000 -0.09940000
vn 1.00000000 -0.00000000 -0.00000000
vn 0.69970000 0.00000000 -0.71440000
vn 0.74650000 0.00000000 -0.66540000
vn 0.93710000 -0.00000000 -0.34900000
vn 0.42240000 -0.00000000 -0.90640000
vn 0.36340000 0.00000000 -0.93160000
vn 0.11760000 0.00000000 -0.99310000
vn 0.00000000 0.00000000 -1.00000000
vn 0.00000000 0.81920000 -0.57360000
vn -0.00000000 0.81920000 -0.57350000
vn 0.00000000 0.81920000 -0.57360000
vn 0.00000000 0.81920000 -0.57360000
vn 0.00000000 0.81920000 -0.57360000
vn 0.00000000 0.81920000 -0.57360000
vn -0.00000000 0.81910000 -0.57360000
vn 0.00000000 0.81920000 -0.57340000
vn 0.00000000 0.81920000 -0.57360000
vn -0.00000000 0.81920000 -0.57350000
vn 0.00000000 0.81920000 -0.57360000
vn -0.00000000 0.81910000 -0.57370000
vn -0.00000000 0.81920000 -0.57350000
vn 0.00000000 0.81920000 -0.57360000
vn -0.00000000 0.81910000 -0.57360000
vn 0.00000000 0.81920000 -0.57360000
vn -0.00000000 0.81910000 -0.57370000
vn 0.00000000 0.81920000 -0.57360000
vn 0.00000000 0.81920000 -0.57360000
vn 0.00000000 0.81920000 -0.57360000
vn -0.00000000 0.81920000 -0.57350000
vn -0.00000000 0.81910000 -0.57370000
vn -0.00000000 0.81920000 -0.57350000
vn 0.00000000 0.81920000 -0.57360000
vn -0.00000000 0.81920000 -0.57350000
vn -0.00000000 0.81910000 -0.57370000
vn 0.00000000 0.81920000 -0.57360000
vn 0.00000000 0.81920000 -0.57360000
vn 0.00010000 0.81910000 -0.57370000
vn 0.00000000 0.81920000 -0.57360000
vn 0.00010000 0.81910000 -0.57370000
vn 0.00000000 0.81920000 -0.57360000
vn -0.00000000 0.81910000 -0.57360000
vn 0.00000000 0.81920000 -0.57360000
vn 0.00010000 0.81910000 -0.57370000
vn -0.00000000 0.81910000 -0.57360000
vn 0.00000000 0.81920000 -0.57360000
vn -0.00000000 0.81910000 -0.57360000
vn 0.00000000 0.81920000 -0.57340000
vn -0.00000000 0.81910000 -0.57360000
vn 0.00000000 0.81920000 -0.57360000
vn 0.00000000 0.81920000 -0.57340000
vn 0.00000000 0.81920000 -0.57360000
vn 0.00000000 0.90630000 0.42260000
vn 0.00000000 0.90630000 0.42260000
vn 0.00000000 0.90630000 0.42260000
vn 0.00000000 0.90630000 0.42260000
vn 0.00000000 0.90630000 0.42260000
vn 0.00000000 0.90630000 0.42270000
vn 0.00000000 0.90630000 0.42260000
vn 0.00000000 0.90630000 0.42270000
vn 0.00000000 0.90640000 0.42250000
vn 0.00000000 0.90630000 0.42260000
vn 0.00000000 0.90630000 0.42270000
vn -0.00000000 0.90630000 0.42250000
vn 0.00000000 0.90640000 0.42240000
vn 0.00000000 0.90630000 0.42260000
vn 0.00000000 0.90630000 0.42270000
vn 0.00000000 0.90630000 0.42270000
vn 0.00000000 0.90630000 0.42270000
vn 0.00000000 0.90640000 0.42240000
vn -0.00000000 0.90630000 0.42250000
vn 0.00000000 0.90630000 0.42270000
vn -0.00000000 0.90630000 0.42250000
vn 0.00000000 0.90630000 0.42260000
vn 0.00000000 0.90630000 0.42260000
vn 0.00000000 0.90630000 0.42270000
vn 0.00000000 0.90630000 0.42260000
vn 0.00000000 0.90630000 0.42260000
vn 0.00000000 0.90640000 0.42240000
vn 0.00000000 0.90640000 0.42250000
vn 0.00000000 0.90630000 0.42260000
vn 0.00000000 0.90630000 0.42270000
vn 0.00000000 0.90640000 0.42250000
vn 0.00000000 0.90630000 0.42270000
vn 0.00000000 0.90640000 0.42250000
vn 0.00000000 0.90630000 0.42270000
vn 0.00000000 0.90630000 0.42260000
vn 0.00000000 0.90630000 0.42270000
vn 0.00000000 0.90630000 0.42260000
vn 0.00000000 0.90630000 0.42270000
vn 0.00000000 0.90630000 0.42260000
vn 0.00000000 0.90640000 0.42250000
vn 0.00000000 0.90630000 0.42270000
vn 0.00000000 0.90630000 0.42260000
vn 0.00000000 0.90630000 0.42260000
vn 0.00000000 0.90630000 0.42260000
vn 0.00000000 0.90630000 0.42260000
vn 0.00000000 0.90640000 0.42250000
vn 0.00000000 0.90640000 0.42250000
vn 0.00000000 0.90630000 0.42260000
vn 0.00000000 0.90630000 0.42260000
vn 0.00000000 0.97480000 0.22310000
vn 0.00000000 0.97480000 0.22300000
vn 0.00000000 0.99990000 0.01350000
vn 0.00000000 0.99990000 0.01250000
vn 0.00020000 1.00000000 0.00010000
vn 0.00000000 1.00000000 -0.00000000
vn 0.00000000 1.00000000 -0.00010000
vn 0.00000000 1.00000000 -0.00020000
vn -0.00000000 1.00000000 0.00010000
vn 0.00000000 1.00000000 -0.00000000
vn 0.00000000 1.00000000 -0.00000000
vn -0.00000000 1.00000000 0.00010000
vn 0.00020000 1.00000000 0.00010000
vn 0.00000000 1.00000000 -0.00010000
vn 0.00020000 1.00000000 0.00010000
vn 0.00000000 1.00000000 -0.00010000
vn -0.00030000 1.00000000 0.00020000
vn 0.00000000 1.00000000 -0.00000000
vn 0.00000000 1.00000000 -0.00020000
vn -0.00000000 1.00000000 0.00010000
vn 0.00000000 1.00000000 -0.00020000
vn -0.00030000 1.00000000 0.00020000
vn 0.00000000 1.00000000 -0.00010000
vn -0.00030000 1.00000000 0.00020000
vn 0.00000000 0.98480000 0.17360000
vn 0.00000000 0.90630000 0.42260000
vn 0.00000000 0.90630000 0.42260000
vn 0.00000000 0.98480000 0.17360000
vn 0.00000000 0.99620000 -0.08720000
vn 0.00000000 0.99620000 -0.08720000
vn 0.00000000 0.93970000 -0.34200000
vn 0.00000000 0.93970000 -0.34200000
vn -0.00000000 0.81910000 -0.57360000
vn -0.40560000 0.00000000 0.91400000
vn -0.97410000 0.00000000 0.22620000
vn -0.45920000 0.00000000 0.88830000
vn -0.98050000 0.00000000 0.19650000
vn 0.00000000 -0.00000000 1.00000000
vn 0.00000000 -0.00000000 1.00000000
vn 0.00000000 -0.00000000 1.00000000
vn 0.46250000 -0.00000000 0.88660000
vn 0.97500000 -0.00000000 0.22210000
vn 0.40400000 0.00000000 0.91480000
vn 0.98020000 0.00000000 0.19790000
vn 1.00000000 -0.00010000 0.00000000
vn 1.00000000 0.00010000 -0.00000000
vn 1.00000000 -0.00010000 0.00000000
vn 1.00000000 0.00010000 -0.00000000
vn 1.00000000 -0.00000000 -0.00000000
vn 1.00000000 0.00010000 -0.00000000
vn 1.00000000 -0.00000000 -0.00000000
vn 1.00000000 -0.00010000 0.00000000
vn 1.00000000 -0.00000000 -0.00000000
vn 1.00000000 0.00010000 -0.00000000
vn 1.00000000 -0.00000000 -0.00000000
vn 1.00000000 0.00010000 -0.00000000
vn 1.00000000 -0.00000000 -0.00000000
vn 1.00000000 -0.00000000 -0.00000000
vn 1.00000000 -0.00000000 -0.00000000
vn 0.69970000 0.00000000 -0.71440000
vn 0.97260000 0.00000000 -0.23260000
vn 0.72710000 -0.00000000 -0.68650000
vn 0.97790000 -0.00000000 -0.20890000
vn 0.24480000 -0.00000000 -0.96960000
vn 0.21840000 -0.00000000 -0.97590000
vn 0.00000000 0.00010000 -1.00000000
vn 0.00000000 0.00000000 -1.00000000
vn 0.00000000 0.00010000 -1.00000000
vn 0.00000000 0.00010000 -1.00000000
vn 0.00000000 0.00000000 -1.00000000
vn -0.24810000 -0.00000000 -0.96870000
vn -0.71440000 -0.00000000 -0.69970000
vn -0.22360000 0.00000000 -0.97470000
vn -0.72710000 0.00000000 -0.68650000
vn -0.97370000 0.00040000 -0.22770000
vn -0.97770000 0.00000000 -0.21000000
vn 0.00000000 1.00000000 -0.00010000
vn 0.00010000 1.00000000 -0.00010000
vn 0.00000000 1.00000000 -0.00000000
vn 0.00010000 1.00000000 -0.00010000
vn 0.00010000 1.00000000 -0.00010000
vn 0.00000000 1.00000000 -0.00010000
vn -0.00000000 1.00000000 0.00010000
vn 0.00000000 1.00000000 -0.00000000
vn 0.00020000 1.00000000 0.00010000
vn 0.00000000 1.00000000 -0.00010000
vn 0.00000000 1.00000000 -0.00000000
vn -0.00000000 1.00000000 0.00010000
vn 0.00000000 1.00000000 -0.00000000
vn -0.00000000 1.00000000 0.00020000
vn -0.00000000 1.00000000 0.00020000
vn -0.00000000 1.00000000 0.00010000
vn 0.00000000 1.00000000 -0.00010000
vn 0.00020000 1.00000000 0.00010000
vn 0.00020000 1.00000000 0.00010000
vn -0.00000000 1.00000000 0.00020000
vn -0.00000000 0.99990000 -0.01540000
vn -0.00000000 0.99990000 -0.01730000
vn 0.00000000 0.97640000 -0.21590000
vn 0.00000000 0.93970000 -0.34200000
vn 0.00000000 0.93970000 -0.34200000
vn 0.00000000 0.97640000 -0.21590000
vn -0.00000000 0.86560000 -0.50070000
vn 1.00000000 -0.00010000 0.00000000
vn 1.00000000 -0.00000000 -0.00000000
vn 1.00000000 0.00010000 -0.00000000
vn 1.00000000 -0.00000000 -0.00000000
vn 1.00000000 0.00010000 -0.00000000
vn 1.00000000 0.00010000 -0.00000000
vn 1.00000000 -0.00010000 0.00000000
vn 1.00000000 -0.00000000 -0.00000000
vn 1.00000000 -0.00010000 0.00000000
vn 1.00000000 0.00010000 -0.00000000
vn 1.00000000 -0.00000000 -0.00000000
vn 1.00000000 -0.00010000 0.00000000
vn 1.00000000 0.00010000 -0.00000000
vn 1.00000000 -0.00000000 -0.00000000
vn 1.00000000 -0.00010000 0.00000000
vn 1.00000000 0.00010000 -0.00000000
vn 1.00000000 0.00010000 -0.00000000
vn 1.00000000 -0.00020000 -0.00010000
vn 1.00000000 -0.00010000 0.00000000
vn 1.00000000 0.00010000 -0.00000000
vn 1.00000000 -0.00000000 -0.00000000
vn 1.00000000 -0.00020000 -0.00010000
vn 1.00000000 0.00010000 -0.00000000
vn 1.00000000 -0.00020000 -0.00010000
vn 0.69970000 0.00000000 -0.71440000
vn 0.97260000 0.00000000 -0.23260000
vn 0.72710000 -0.00000000 -0.68650000
vn 0.97790000 -0.00000000 -0.20890000
vn 0.24480000 -0.00000000 -0.96960000
vn 0.21840000 -0.00000000 -0.97590000
vn 0.00000000 0.00000000 -1.00000000
vn -0.00000000 -0.00010000 -1.00000000
vn -0.00000000 -0.00010000 -1.00000000
vn 0.00000000 0.00000000 -1.00000000
vn -0.00000000 -0.00010000 -1.00000000
vn -0.24810000 -0.00000000 -0.96870000
vn -0.71440000 -0.00000000 -0.69970000
vn -0.22360000 0.00000000 -0.97470000
vn -0.72710000 0.00000000 -0.68650000
vn -0.97370000 0.00040000 -0.22770000
vn -0.97770000 0.00000000 -0.21000000
vn -1.00000000 -0.00000000 -0.00000000
vn -1.00000000 -0.00010000 -0.00000000
vn -1.00000000 -0.00010000 -0.00000000
vn -1.00000000 0.00010000 0.00000000
vn -1.00000000 -0.00010000 -0.00000000
vn -1.00000000 -0.00000000 -0.00000000
vn -1.00000000 -0.00000000 -0.00000000
vn -1.00000000 -0.00000000 -0.00000000
vn -1.00000000 0.00010000 0.00000000
vn -1.00000000 -0.00000000 -0.00000000
vn -1.00000000 -0.00010000 -0.00000000
vn -1.00000000 -0.00000000 -0.00000000
vn -1.00000000 0.00010000 0.00000000
vn -1.00000000 -0.00000000 -0.00000000
vn -0.40560000 0.00000000 0.91400000
vn -0.97410000 0.00000000 0.22620000
vn -0.45920000 0.00000000 0.88830000
vn -0.98050000 0.00000000 0.19650000
vn 0.00000000 -0.00000000 1.00000000
vn 0.00000000 -0.00000000 1.00000000
vn 0.00000000 -0.00000000 1.00000000
vn 0.46250000 -0.00000000 0.88660000
vn 0.97500000 -0.00000000 0.22210000
vn 0.40390000 0.00000000 0.91480000
vn 0.98020000 0.00000000 0.19790000
vn 0.00000000 0.00000000 -1.00000000
vn 0.00000000 0.00000000 -1.00000000
vn 0.00000000 0.00000000 -1.00000000
vn 1.00000000 -0.00020000 0.00000000
vn 1.00000000 0.00010000 -0.00000000
vn 1.00000000 -0.00000000 -0.00000000
vn 1.00000000 -0.00020000 -0.00010000
vn 1.00000000 -0.00020000 0.00000000
vn 1.00000000 -0.00020000 -0.00010000
vn 1.00000000 -0.00020000 0.00000000
vn 1.00000000 0.00010000 -0.00000000
vn 1.00000000 -0.00010000 0.00000000
vn 1.00000000 -0.00000000 -0.00000000
vn 1.00000000 0.00010000 -0.00000000
vn 1.00000000 -0.00000000 -0.00000000
vn 1.00000000 -0.00000000 -0.00000000
vn 1.00000000 -0.00000000 -0.00000000
vn 1.00000000 -0.00020000 -0.00010000
vn 1.00000000 0.00010000 -0.00000000
vn 1.00000000 -0.00010000 0.00000000
vn 1.00000000 -0.00010000 0.00000000
vn 1.00000000 0.00010000 -0.00000000
vn 1.00000000 -0.00000000 -0.00000000
vn 1.00000000 -0.00000000 -0.00000000
vn 0.00000000 0.97640000 -0.21590000
vn 0.00000000 0.97640000 -0.21590000
vn 0.00000000 0.99980000 -0.02180000
vn 0.00000000 0.93970000 -0.34200000
vn 0.00000000 0.93970000 -0.34200000
vn -0.00000000 0.86820000 -0.49620000
vn -1.00000000 0.00010000 0.00000000
vn -1.00000000 -0.00000000 -0.00000000
vn -1.00000000 -0.00000000 -0.00000000
vn -1.00000000 0.00010000 0.00000000
vn -1.00000000 0.00010000 0.00000000
vn -1.00000000 -0.00000000 -0.00000000
vn -1.00000000 -0.00000000 -0.00000000
vn -1.00000000 -0.00000000 -0.00000000
vn -1.00000000 -0.00000000 -0.00000000
vn -1.00000000 -0.00000000 -0.00000000
vn -1.00000000 0.00010000 0.00000000
vn -1.00000000 -0.00000000 -0.00000000
vn -1.00000000 -0.00000000 -0.00000000
vn -1.00000000 0.00010000 0.00000000
vn -1.00000000 -0.00000000 -0.00000000
vn -1.00000000 -0.00000000 -0.00000000
vn -1.00000000 -0.00000000 -0.00000000
vn 0.00000000 1.00000000 -0.00000000
vn 0.00000000 1.00000000 -0.00000000
vn 0.00000000 1.00000000 -0.00000000
vn 0.00000000 1.00000000 -0.00000000
vn 0.00000000 -0.00000000 1.00000000
vn 0.00000000 -0.00000000 1.00000000
vn 0.00000000 -0.00000000 1.00000000
vn 0.00000000 0.00000000 -1.00000000
vn -0.00010000 -0.00000000 -1.00000000
vn 0.00000000 0.00000000 -1.00000000
vn -0.00000000 0.93300000 0.35980000
vn -0.00000000 0.92960000 0.36850000
vn -0.00000000 0.98230000 0.18740000
vn 0.00000000 0.99990000 0.01250000
vn -0.00000000 0.99980000 0.01750000
vn -0.00000000 0.98500000 0.17250000
vn 0.00000000 1.00000000 -0.00000000
vn 0.00000000 1.00000000 -0.00000000
vn 0.00000000 1.00000000 -0.00000000
vn 0.00000000 0.00010000 1.00000000
vn -0.00000000 -0.00010000 -1.00000000
vn 0.00000000 0.81920000 -0.57360000
vn -0.00000000 0.81910000 -0.57360000
vn 0.00000000 -0.00000000 1.00000000
vn 1.00000000 -0.00000000 -0.00000000
vn 0.00000000 0.00000000 -1.00000000
vn 0.00000000 0.86420000 -0.50320000
vn 1.00000000 -0.00000000 -0.00000000
vn 0.00000000 0.00000000 -1.00000000
vn -1.00000000 -0.00000000 -0.00000000
vn 0.00000000 -0.00000000 1.00000000
vn 0.00000000 -0.00000000 1.00000000
vn 0.00000000 -0.00000000 1.00000000
vn 0.00000000 -0.00000000 1.00000000
vn 1.00000000 0.00010000 -0.00000000
vn -0.00000000 0.99980000 -0.01820000
vn 0.00000000 0.88670000 -0.46230000
vn -0.00000000 0.81910000 -0.57360000
vn -1.00000000 -0.00000000 -0.00000000
vn 0.00000000 -0.00000000 1.00000000
vt 0.44429600 0.08898500
vt 0.43545200 0.10325700
vt 0.43605700 0.09807000
vt 0.43797800 0.09327100
vt 0.44093600 0.09005500
vt 0.43545200 0.19839800
vt 0.63001500 0.10325700
vt 0.44429600 0.21266900
vt 0.43611600 0.20382000
vt 0.44108200 0.21169300
vt 0.43810800 0.20859400
vt 0.62117100 0.21266900
vt 0.62735900 0.09306100
vt 0.62117100 0.08898500
vt 0.62438500 0.08996100
vt 0.62935100 0.09783500
vt 0.62748900 0.20838300
vt 0.62453100 0.21159900
vt 0.62941000 0.20358500
vt 0.63001500 0.19839800
vt 0.86059700 0.08898500
vt 0.85810600 0.10216900
vt 0.85701300 0.08898500
vt 0.86080300 0.10272800
vt 0.86404600 0.08898500
vt 0.86420000 0.10425300
vt 0.86747600 0.08898500
vt 0.86993400 0.10814900
vt 0.87090500 0.08898500
vt 0.86745900 0.10639100
vt 0.01289900 0.10216800
vt 0.01389200 0.08898500
vt 0.19076600 0.08898500
vt 0.00358400 0.08898500
vt 0.00098600 0.10813900
vt 0.00000000 0.08898500
vt 0.00703300 0.08898500
vt 0.00670500 0.10425300
vt 0.00344600 0.10639100
vt 0.01010200 0.10272800
vt 0.01046200 0.08898500
vt 0.01281400 0.10216900
vt 0.01389200 0.08898500
vt 0.49531900 0.10813900
vt 0.49531900 0.10813900
vt 0.44712600 0.11738500
vt 0.44712600 0.11738500
vt 0.44712600 0.11738500
vt 0.44712600 0.11738500
vt 0.43458900 0.10338200
vt 0.43458900 0.10338200
vt 0.45285400 0.12164500
vt 0.45285400 0.12164500
vt 0.47770300 0.12134400
vt 0.47770300 0.12134400
vt 0.47770300 0.12134400
vt 0.45731500 0.12374100
vt 0.46451000 0.12432600
vt 0.46451000 0.12432600
vt 0.46441100 0.12532800
vt 0.43545200 0.08898500
vt 0.49441100 0.08898500
vt 0.49441100 0.08898500
vt 0.49441100 0.08898500
vt 0.46556500 0.12492400
vt 0.46556500 0.12492400
vt 0.47106900 0.12434800
vt 0.61591100 0.08898500
vt 0.61346700 0.09437000
vt 0.61232700 0.08898500
vt 0.61631500 0.09530000
vt 0.61936000 0.08898500
vt 0.61975400 0.09770800
vt 0.62279000 0.08898500
vt 0.62528000 0.10338200
vt 0.62621900 0.08898500
vt 0.62292500 0.10087000
vt 0.25753400 0.09436600
vt 0.25753400 0.09436600
vt 0.25857800 0.08898500
vt 0.43545200 0.08898500
vt 0.43545200 0.08898500
vt 0.24827000 0.08898500
vt 0.24564400 0.10336100
vt 0.24468600 0.08898500
vt 0.25171900 0.08898500
vt 0.25115100 0.09770800
vt 0.24798000 0.10087000
vt 0.25459000 0.09530000
vt 0.25514900 0.08898500
vt 0.25744700 0.09436900
vt 0.25857800 0.08898500
vt 0.34507300 0.08295200
vt 0.34507300 0.08295200
vt 0.34880900 0.07481700
vt 0.34880800 0.06307300
vt 0.34593500 0.09280800
vt 0.34703700 0.09700700
vt 0.34703700 0.09700700
vt 0.34703700 0.09700700
vt 0.34528600 0.08729600
vt 0.41970700 0.08729600
vt 0.41970700 0.08729600
vt 0.38026900 0.08178200
vt 0.38026900 0.08178200
vt 0.38026900 0.08178200
vt 0.38472900 0.08180600
vt 0.38472900 0.08180600
vt 0.38472900 0.08180600
vt 0.34507200 0.05784600
vt 0.34968700 0.08181100
vt 0.38114200 0.06307300
vt 0.38114200 0.06307300
vt 0.38114200 0.07483000
vt 0.38114200 0.07483000
vt 0.38385100 0.07481800
vt 0.38385100 0.07481800
vt 0.38385100 0.07481800
vt 0.38385100 0.06307300
vt 0.41618500 0.05814100
vt 0.41618400 0.07483100
vt 0.41618400 0.07483100
vt 0.41992000 0.08291700
vt 0.41992000 0.08291700
vt 0.41992000 0.08291700
vt 0.41992100 0.05831200
vt 0.41531200 0.08178700
vt 0.41531200 0.08178700
vt 0.41905800 0.09280800
vt 0.41905800 0.09280800
vt 0.41795600 0.09700700
vt 0.41795600 0.09700700
vt 0.41795600 0.09700700
vt 0.34807300 0.09863600
vt 0.34807300 0.09863600
vt 0.46740900 0.10109900
vt 0.46851700 0.09748900
vt 0.46643100 0.10242300
vt 0.39483200 0.09243000
vt 0.39552600 0.09748900
vt 0.39552600 0.09748900
vt 0.46944500 0.08827000
vt 0.46944500 0.08827000
vt 0.46944500 0.08827000
vt 0.39459800 0.08829500
vt 0.39459800 0.08829500
vt 0.39459800 0.08829500
vt 0.39459800 0.08829500
vt 0.46921000 0.09243000
vt 0.39459700 0.05695000
vt 0.39833300 0.05748000
vt 0.39833400 0.08099800
vt 0.39961500 0.08722900
vt 0.39961500 0.08722900
vt 0.39879900 0.08475600
vt 0.39879900 0.08475600
vt 0.43066700 0.06084600
vt 0.43337600 0.08099800
vt 0.43337600 0.08099800
vt 0.43337500 0.06084600
vt 0.42939100 0.08722400
vt 0.42939100 0.08722400
vt 0.42939100 0.08722400
vt 0.43384100 0.08475600
vt 0.43384100 0.08475600
vt 0.43384100 0.08475600
vt 0.43020100 0.08475600
vt 0.43020100 0.08475600
vt 0.43066600 0.08100600
vt 0.43066600 0.08100600
vt 0.39761700 0.10242400
vt 0.39761700 0.10242400
vt 0.39663300 0.10109900
vt 0.43465700 0.08722900
vt 0.43465700 0.08722900
vt 0.43465700 0.08722900
vt 0.46571000 0.06084600
vt 0.46570900 0.08100600
vt 0.46944500 0.06084600
vt 0.46524300 0.08475600
vt 0.46524300 0.08475600
vt 0.46443300 0.08722400
vt 0.43545200 0.24143700
vt 0.43545200 0.24746600
vt 0.44293900 0.24746600
vt 0.44293900 0.24143700
vt 0.45038900 0.24746600
vt 0.45042500 0.24143700
vt 0.43545700 0.17245800
vt 0.43545700 0.17245800
vt 0.43545700 0.17245800
vt 0.43546100 0.08734900
vt 0.43546100 0.08734900
vt 0.43546100 0.08734900
vt 0.51949500 0.08737800
vt 0.51949500 0.08737800
vt 0.43889200 0.17796600
vt 0.43889200 0.17796600
vt 0.43672000 0.17581900
vt 0.51949700 0.17249400
vt 0.51949700 0.17249400
vt 0.51949700 0.17249400
vt 0.51691600 0.08185000
vt 0.51691600 0.08185000
vt 0.43803300 0.08187700
vt 0.51817000 0.17592500
vt 0.51604000 0.17796200
vt 0.51604000 0.17796200
vt 0.44471400 0.18488900
vt 0.43545200 0.18488900
vt 0.43545200 0.18925900
vt 0.44471400 0.18925900
vt 0.45397500 0.18925900
vt 0.45397500 0.18488900
vt 0.46323600 0.18488900
vt 0.46323600 0.18925900
vt 0.47249700 0.18925900
vt 0.44137500 0.08900000
vt 0.43665900 0.08899400
vt 0.44117300 0.09020300
vt 0.43651400 0.09426400
vt 0.44056700 0.09024200
vt 0.54507300 0.09026500
vt 0.54465700 0.08898600
vt 0.54447000 0.09022700
vt 0.54898300 0.08899300
vt 0.54423100 0.08900300
vt 0.54910200 0.09425600
vt 0.57385200 0.09745800
vt 0.57385200 0.09745800
vt 0.54976500 0.09425500
vt 0.54976500 0.09425500
vt 0.54976500 0.09425500
vt 0.55250200 0.10099900
vt 0.55250200 0.10099900
vt 0.55250200 0.10099900
vt 0.55625800 0.10788000
vt 0.56866200 0.10597400
vt 0.56866200 0.10597400
vt 0.57390200 0.08898500
vt 0.57390200 0.08898500
vt 0.56039300 0.11110500
vt 0.56462300 0.11045500
vt 0.57744700 0.08898500
vt 0.57466400 0.08899100
vt 0.57726000 0.09586900
vt 0.57454900 0.09745900
vt 0.58005600 0.09482500
vt 0.58020800 0.08899600
vt 0.57991600 0.09482400
vt 0.57991600 0.09482400
vt 0.68166700 0.09482700
vt 0.68150600 0.08898600
vt 0.68150600 0.08898600
vt 0.68152400 0.09482800
vt 0.68421600 0.08898500
vt 0.68138000 0.08899800
vt 0.68430400 0.09586900
vt 0.68692300 0.08899000
vt 0.68700900 0.09745500
vt 0.26031700 0.00547700
vt 0.26031700 0.00547700
vt 0.26031700 0.00547700
vt 0.26164500 0.00204600
vt 0.26377500 0.00000900
vt 0.26377500 0.00000900
vt 0.26032000 0.09059200
vt 0.26032000 0.09059200
vt 0.34435700 0.00551200
vt 0.34435700 0.00551200
vt 0.34435700 0.00551200
vt 0.34435300 0.09062200
vt 0.34435300 0.09062200
vt 0.34435300 0.09062200
vt 0.26289900 0.09612100
vt 0.26289900 0.09612100
vt 0.34092300 0.00000500
vt 0.34092300 0.00000500
vt 0.34309400 0.00215100
vt 0.34178200 0.09609400
vt 0.45140400 0.12669500
vt 0.45147500 0.13271100
vt 0.45860500 0.13271100
vt 0.46323600 0.13271100
vt 0.46323600 0.12668300
vt 0.45860500 0.12668300
vt 0.46942600 0.13271000
vt 0.18319300 0.09745800
vt 0.18319300 0.09745800
vt 0.18319300 0.09745800
vt 0.15910600 0.09425500
vt 0.15910600 0.09425500
vt 0.16300500 0.10375900
vt 0.16300500 0.10375900
vt 0.16300500 0.10375900
vt 0.16559900 0.10788000
vt 0.16559900 0.10788000
vt 0.16559900 0.10788000
vt 0.17713200 0.10736400
vt 0.17713200 0.10736400
vt 0.17713200 0.10736400
vt 0.16764500 0.10997600
vt 0.16764500 0.10997600
vt 0.17087000 0.11145500
vt 0.17106400 0.11052100
vt 0.17106400 0.11052100
vt 0.17106400 0.11052100
vt 0.18324300 0.08898500
vt 0.17135000 0.11131800
vt 0.17419200 0.11040000
vt 0.17419200 0.11040000
vt 0.18678900 0.08898500
vt 0.18400500 0.08899100
vt 0.18660100 0.09586900
vt 0.18389100 0.09745900
vt 0.18939800 0.09482500
vt 0.18955000 0.08899600
vt 0.18925800 0.09482400
vt 0.18925800 0.09482400
vt 0.29100800 0.09482700
vt 0.29084700 0.08898600
vt 0.29084700 0.08898600
vt 0.29086600 0.09482700
vt 0.29355800 0.08898500
vt 0.29072100 0.08899800
vt 0.29364500 0.09586900
vt 0.29626400 0.08899000
vt 0.29635000 0.09745500
vt 0.31840300 0.10099900
vt 0.31840300 0.10099900
vt 0.29705100 0.09745400
vt 0.29705100 0.09745400
vt 0.30224300 0.10597400
vt 0.30224300 0.10597400
vt 0.30628200 0.11045500
vt 0.31464700 0.10788000
vt 0.32113700 0.09426200
vt 0.32113700 0.09426200
vt 0.32113700 0.09426200
vt 0.29701300 0.08898500
vt 0.29701300 0.08898500
vt 0.31051200 0.11110500
vt 0.32665600 0.08900000
vt 0.32194000 0.08899400
vt 0.32645400 0.09021100
vt 0.32179600 0.09426400
vt 0.32584900 0.09025100
vt 0.43035500 0.09025500
vt 0.42993800 0.08898600
vt 0.42975100 0.09021800
vt 0.43426500 0.08899300
vt 0.42951300 0.08900300
vt 0.43438300 0.09425600
vt 1.00000000 0.09041200
vt 1.00000000 0.08965600
vt 0.99028900 0.08970400
vt 0.44996100 0.11973900
vt 0.44996100 0.11973900
vt 0.44996100 0.11973900
vt 0.43455800 0.10814900
vt 0.43455800 0.10814900
vt 0.48249600 0.11764200
vt 0.48249600 0.11764200
vt 0.48249600 0.11764200
vt 0.48249600 0.11764200
vt 0.47701000 0.12164500
vt 0.47701000 0.12164500
vt 0.46535300 0.12432600
vt 0.46443600 0.12503400
vt 0.45701900 0.12364900
vt 0.43545200 0.08898500
vt 0.43545200 0.08898500
vt 0.43545200 0.08898500
vt 0.49529200 0.10336100
vt 0.49529200 0.10336100
vt 0.47254800 0.12374100
vt 0.46554700 0.12519500
vt 0.45860500 0.24746600
vt 0.45860500 0.24143700
vt 0.45163300 0.24144500
vt 0.46323600 0.24143700
vt 0.46323600 0.24746600
vt 0.46924000 0.24746600
vt 0.69290200 0.10597400
vt 0.69290200 0.10597400
vt 0.70906200 0.10099900
vt 0.70906200 0.10099900
vt 0.68770900 0.09745400
vt 0.68770900 0.09745400
vt 0.70530600 0.10788000
vt 0.69955500 0.11056100
vt 0.69955500 0.11131800
vt 0.69613800 0.10988400
vt 0.71179600 0.09426200
vt 0.71179600 0.09426200
vt 0.68767200 0.08898500
vt 0.68767200 0.08898500
vt 0.70725600 0.10485700
vt 0.70010800 0.11149000
vt 0.70326000 0.10997600
vt 0.43633700 0.98433000
vt 0.43545200 1.00000000
vt 0.43542000 0.98433000
vt 0.43667300 0.99998300
vt 0.99999900 0.09054000
vt 1.00000000 0.08951800
vt 0.99031000 0.08939800
vt 0.99029800 0.08992200
vt 1.00000000 0.08965600
vt 1.00000000 0.09045200
vt 0.43788200 0.12668300
vt 0.43755200 0.13271100
vt 0.44422500 0.13271100
vt 0.45042500 0.13271100
vt 0.45024800 0.12668600
vt 0.44475200 0.12668800
vt 0.43528200 0.98433800
vt 0.43607600 1.00000000
vt 0.43633700 0.98433000
vt 0.19177400 0.10216800
vt 0.43650500 0.09436700
vt 0.41692300 0.09863500
vt 0.47249700 0.18488900
vt 0.44095800 0.08898600
vt 0.54971400 0.08898500
vt 0.58008900 0.08898600
vt 0.46952900 0.12668300
vt 0.15905600 0.08898500
vt 0.18943000 0.08898600
vt 0.32119900 0.08898500
vt 0.32624000 0.08898600
vt 0.99028900 0.09041200
vt 0.99028500 0.08954400
vt 0.99998500 0.08935600
vt 0.49441100 0.08898500
vt 0.45150800 0.24746900
vt 0.46786600 0.24143700
vt 0.47249700 0.24143700
vt 0.71185800 0.08898500
vt 0.99028900 0.09041200
f 1/1/1 2/2/2 3/3/3
f 1/1/1 4/4/4 5/5/5
f 3/3/3 4/4/4 1/1/1
f 7/7/7 20/20/20 6/6/6
f 8/8/8 9/9/9 6/6/6
f 10/10/10 11/11/11 8/8/8
f 9/9/9 8/8/8 11/11/11
f 12/12/12 8/8/8 6/6/6
f 1/1/1 7/7/7 2/2/2
f 13/13/13 14/14/14 15/15/15
f 14/14/14 16/16/16 7/7/7
f 13/13/13 16/16/16 14/14/14
f 17/17/17 18/18/18 12/12/12
f 17/17/17 12/12/12 19/19/19
f 20/20/20 19/19/19 12/12/12
f 12/12/12 6/6/6 20/20/20
f 14/14/14 7/7/7 1/1/1
f 21/21/21 22/22/22 23/23/23
f 21/21/21 24/24/24 22/22/22
f 24/24/24 21/21/21 25/25/25
f 26/26/26 25/25/25 27/27/27
f 28/28/28 30/30/30 29/29/29
f 27/27/27 30/30/30 26/26/26
f 24/24/24 25/25/25 26/26/26
f 31/31/31 32/32/32 33/33/33
f 34/34/34 39/39/39 36/36/36
f 37/37/37 38/38/38 34/34/34
f 38/38/38 39/39/39 34/34/34
f 40/40/40 37/37/37 41/41/41
f 42/42/42 41/41/41 43/43/43
f 41/41/41 42/42/42 40/40/40
f 38/38/38 37/37/37 40/40/40
f 50/50/50 63/63/63 48/48/48
f 53/53/53 49/49/49 56/56/56
f 57/57/57 58/58/58 60/60/60
f 52/52/52 58/58/58 57/57/57
f 51/51/51 61/61/61 62/62/62
f 52/52/52 54/54/54 58/58/58
f 47/47/47 44/44/44 55/55/55
f 56/56/56 66/66/66 59/59/59
f 65/65/65 54/54/54 67/67/67
f 68/68/68 69/69/69 70/70/70
f 68/68/68 71/71/71 69/69/69
f 71/71/71 68/68/68 72/72/72
f 73/73/73 72/72/72 74/74/74
f 75/75/75 77/77/77 76/76/76
f 74/74/74 77/77/77 73/73/73
f 71/71/71 72/72/72 73/73/73
f 78/78/78 80/80/80 81/81/81
f 83/83/83 88/88/88 85/85/85
f 86/86/86 87/87/87 83/83/83
f 87/87/87 88/88/88 83/83/83
f 89/89/89 86/86/86 90/90/90
f 91/91/91 90/90/90 92/92/92
f 90/90/90 91/91/91 89/89/89
f 87/87/87 86/86/86 89/89/89
f 96/96/96 110/110/110 95/95/95
f 97/97/97 98/98/98 101/101/101
f 98/98/98 103/103/103 93/93/93
f 102/102/102 105/105/105 94/94/94
f 103/103/103 108/108/108 106/106/106
f 95/95/95 93/93/93 111/111/111
f 116/116/116 119/119/119 112/112/112
f 114/114/114 104/104/104 118/118/118
f 101/101/101 98/98/98 93/93/93
f 111/111/111 93/93/93 106/106/106
f 118/118/118 104/104/104 109/109/109
f 124/124/124 126/126/126 122/122/122
f 127/127/127 123/123/123 121/121/121
f 125/125/125 128/128/128 107/107/107
f 108/108/108 103/103/103 124/124/124
f 103/103/103 98/98/98 129/129/129
f 132/132/132 130/130/130 99/99/99
f 100/100/100 134/134/134 131/131/131
f 136/136/136 137/137/137 138/138/138
f 137/137/137 139/139/139 138/138/138
f 140/140/140 138/138/138 139/139/139
f 142/142/142 145/145/145 149/149/149
f 146/146/146 152/152/152 150/150/150
f 147/147/147 154/154/154 156/156/156
f 152/152/152 146/146/146 155/155/155
f 157/157/157 170/170/170 158/158/158
f 163/163/163 166/166/166 168/168/168
f 171/171/171 141/141/141 173/173/173
f 162/162/162 153/153/153 148/148/148
f 145/145/145 174/174/174 161/161/161
f 165/165/165 159/159/159 169/169/169
f 174/174/174 164/164/164 161/161/161
f 169/169/169 167/167/167 165/165/165
f 142/142/142 179/179/179 178/178/178
f 144/144/144 181/181/181 182/182/182
f 176/176/176 146/146/146 143/143/143
f 149/149/149 139/139/139 137/137/137
f 185/185/185 186/186/186 183/183/183
f 187/187/187 188/188/188 186/186/186
f 195/195/195 202/202/202 190/190/190
f 189/189/189 197/197/197 199/199/199
f 200/200/200 198/198/198 191/191/191
f 203/203/203 192/192/192 205/205/205
f 206/206/206 208/208/208 201/201/201
f 207/207/207 198/198/198 200/200/200
f 196/196/196 193/193/193 204/204/204
f 211/211/211 212/212/212 209/209/209
f 214/214/214 209/209/209 212/212/212
f 217/217/217 423/423/423 215/215/215
f 214/214/214 213/213/213 216/216/216
f 218/218/218 219/219/219 220/220/220
f 220/220/220 219/219/219 221/221/221
f 222/222/222 223/223/223 224/224/224
f 225/225/225 226/226/226 227/227/227
f 226/226/226 225/225/225 228/228/228
f 229/229/229 231/231/231 236/236/236
f 235/235/235 237/237/237 239/239/239
f 232/232/232 230/230/230 240/240/240
f 234/234/234 238/238/238 230/230/230
f 242/242/242 243/243/243 237/237/237
f 243/243/243 239/239/239 237/237/237
f 244/244/244 245/245/245 246/246/246
f 246/246/246 245/245/245 247/247/247
f 244/244/244 246/246/246 248/248/248
f 250/250/250 252/252/252 253/253/253
f 255/255/255 258/258/258 256/256/256
f 258/258/258 259/259/259 256/256/256
f 259/259/259 258/258/258 260/260/260
f 262/262/262 264/264/264 265/265/265
f 271/271/271 273/273/273 268/268/268
f 272/272/272 276/276/276 267/267/267
f 277/277/277 261/261/261 266/266/266
f 279/279/279 269/269/269 278/278/278
f 280/280/280 275/275/275 274/274/274
f 270/270/270 261/261/261 277/277/277
f 283/283/283 286/286/286 282/282/282
f 286/286/286 283/283/283 284/284/284
f 287/287/287 427/427/427 285/285/285
f 290/290/290 292/292/292 293/293/293
f 298/298/298 301/301/301 295/295/295
f 303/303/303 304/304/304 307/307/307
f 296/296/296 302/302/302 306/306/306
f 291/291/291 289/289/289 308/308/308
f 294/294/294 299/299/299 288/288/288
f 300/300/300 297/297/297 307/307/307
f 309/309/309 311/311/311 305/305/305
f 307/307/307 310/310/310 300/300/300
f 312/312/312 313/313/313 314/314/314
f 314/314/314 313/313/313 315/315/315
f 312/312/312 314/314/314 316/316/316
f 319/319/319 320/320/320 322/322/322
f 323/323/323 326/326/326 324/324/324
f 326/326/326 327/327/327 324/324/324
f 327/327/327 326/326/326 328/328/328
f 330/330/330 331/331/331 333/333/333
f 334/334/334 335/335/335 336/336/336
f 332/332/332 337/337/337 341/341/341
f 331/331/331 330/330/330 339/339/339
f 342/342/342 336/336/336 335/335/335
f 336/336/336 329/329/329 334/334/334
f 343/343/343 344/344/344 345/345/345
f 345/345/345 344/344/344 346/346/346
f 347/347/347 348/348/348 349/349/349
f 350/350/350 351/351/351 352/352/352
f 351/351/351 350/350/350 353/353/353
f 354/354/354 355/355/355 356/356/356
f 357/357/357 361/361/361 363/363/363
f 366/366/366 368/368/368 359/359/359
f 359/359/359 369/369/369 370/370/370
f 369/369/369 359/359/359 368/368/368
f 374/374/374 365/365/365 373/373/373
f 364/364/364 367/367/367 358/358/358
f 376/376/376 377/377/377 368/368/368
f 368/368/368 366/366/366 376/376/376
f 380/380/380 436/436/436 378/378/378
f 383/383/383 437/437/437 382/382/382
f 379/379/379 378/378/378 382/382/382
f 384/384/384 387/387/387 388/388/388
f 390/390/390 385/385/385 391/391/391
f 392/392/392 391/391/391 393/393/393
f 385/385/385 393/393/393 391/391/391
f 388/388/388 394/394/394 397/397/397
f 386/386/386 385/385/385 398/398/398
f 389/389/389 386/386/386 395/395/395
f 398/398/398 385/385/385 390/390/390
f 399/399/399 400/400/400 390/390/390
f 399/399/399 390/390/390 391/391/391
f 401/401/401 402/402/402 403/403/403
f 402/402/402 401/401/401 404/404/404
f 405/405/405 406/406/406 407/407/407
f 408/408/408 409/409/409 410/410/410
f 413/413/413 416/416/416 411/411/411
f 416/416/416 413/413/413 414/414/414
f 417/417/417 418/418/418 419/419/419
f 31/31/31 33/33/33 420/420/420
f 79/79/79 82/82/82 421/421/421
f 135/135/135 422/422/422 133/133/133
f 138/138/138 140/140/140 172/172/172
f 149/149/149 145/145/145 139/139/139
f 182/182/182 175/175/175 144/144/144
f 142/142/142 178/178/178 180/180/180
f 222/222/222 224/224/224 424/424/424
f 233/233/233 241/241/241 425/425/425
f 251/251/251 254/254/254 426/426/426
f 291/291/291 308/308/308 428/428/428
f 318/318/318 321/321/321 429/429/429
f 338/338/338 430/430/430 340/340/340
f 347/347/347 349/349/349 431/431/431
f 432/432/432 433/433/433 434/434/434
f 372/372/372 435/435/435 375/375/375
f 437/437/437 383/383/383 438/438/438
f 395/395/395 439/439/439 396/396/396
f 405/405/405 407/407/407 440/440/440
f 7/7/7 6/6/6 2/2/2
f 30/30/30 27/27/27 29/29/29
f 39/39/39 35/35/35 36/36/36
f 64/64/64 45/45/45 46/46/46
f 77/77/77 74/74/74 76/76/76
f 88/88/88 84/84/84 85/85/85
f 110/110/110 93/93/93 95/95/95
f 117/117/117 113/113/113 115/115/115
f 126/126/126 120/120/120 122/122/122
f 152/152/152 151/151/151 150/150/150
f 157/157/157 158/158/158 160/160/160
f 179/179/179 177/177/177 178/178/178
f 185/185/185 183/183/183 184/184/184
f 187/187/187 186/186/186 185/185/185
f 195/195/195 190/190/190 194/194/194
f 211/211/211 209/209/209 210/210/210
f 214/214/214 212/212/212 213/213/213
f 217/217/217 215/215/215 216/216/216
f 214/214/214 216/216/216 215/215/215
f 244/244/244 248/248/248 249/249/249
f 255/255/255 256/256/256 257/257/257
f 271/271/271 268/268/268 263/263/263
f 286/286/286 281/281/281 282/282/282
f 286/286/286 284/284/284 285/285/285
f 287/287/287 285/285/285 284/284/284
f 312/312/312 316/316/316 317/317/317
f 323/323/323 324/324/324 325/325/325
f 362/362/362 360/360/360 371/371/371
f 380/380/380 378/378/378 379/379/379
f 437/437/437 381/381/381 382/382/382
f 379/379/379 382/382/382 381/381/381
f 413/413/413 411/411/411 412/412/412
f 416/416/416 414/414/414 415/415/415

