mtllib material.mtl
usemtl Material-7011油漆.005
v 0.05801100 0.00913500 0.07900000
v 0.05801100 0.00913500 0.07900000
v 0.05801100 0.00913500 0.07900000
v 0.05801100 0.00913500 0.07970000
v 0.05801100 0.00913500 0.07970000
v 0.05801100 0.00913500 0.07970000
v 0.06967500 0.00913500 0.07900000
v 0.06967500 0.00913500 0.07900000
v 0.06967500 0.00913500 0.07900000
v 0.06967500 0.00913500 0.07970000
v 0.06967500 0.00913500 0.07970000
v 0.06967500 0.00913500 0.07970000
v 0.06967500 0.00913600 0.07900000
v 0.06967500 0.00913600 0.07900000
v 0.06967500 0.00913600 0.07900000
v 0.06967500 0.00913600 0.07970000
v 0.06967500 0.00913600 0.07970000
v 0.06967500 0.00913600 0.07970000
v 0.07589400 0.00369400 0.07900000
v 0.07589400 0.00369400 0.07900000
v 0.07589400 0.00369400 0.07900000
v 0.07589400 0.00369400 0.07970000
v 0.07589400 0.00369400 0.07970000
v 0.07589400 0.00369400 0.07970000
v 0.07589500 0.00369400 0.07900000
v 0.07589500 0.00369400 0.07900000
v 0.07589500 0.00369400 0.07900000
v 0.07589500 0.00369400 0.07970000
v 0.07589500 0.00369400 0.07970000
v 0.07589500 0.00369400 0.07970000
v 0.07589500 0.01535900 0.07900000
v 0.07589500 0.01535900 0.07900000
v 0.07589500 0.01535900 0.07900000
v 0.07589500 0.01535900 0.07970000
v 0.07589500 0.01535900 0.07970000
v 0.07589500 0.01535900 0.07970000
v 0.07589500 0.01535900 0.07900000
v 0.07589500 0.01535900 0.07900000
v 0.07589500 0.01535900 0.07900000
v 0.07589500 0.01535900 0.07970000
v 0.07589500 0.01535900 0.07970000
v 0.07589500 0.01535900 0.07970000
v 0.05801100 0.01535900 0.07900000
v 0.05801100 0.01535900 0.07900000
v 0.05801100 0.01535900 0.07900000
v 0.05801100 0.01535900 0.07970000
v 0.05801100 0.01535900 0.07970000
v 0.05801100 0.01535900 0.07970000
v 0.05801000 0.01535900 0.07900000
v 0.05801000 0.01535900 0.07900000
v 0.05801000 0.01535900 0.07900000
v 0.05801000 0.01535900 0.07970000
v 0.05801000 0.01535900 0.07970000
v 0.05801000 0.01535900 0.07970000
v 0.05801000 0.00913600 0.07900000
v 0.05801000 0.00913600 0.07900000
v 0.05801000 0.00913600 0.07900000
v 0.05801000 0.00913600 0.07970000
v 0.05801000 0.00913600 0.07970000
v 0.05801000 0.00913600 0.07970000
v 0.05801100 0.00913600 0.07899900
v 0.05801100 0.00913600 0.07899900
v 0.05801100 0.00913600 0.07899900
v 0.06967500 0.00913600 0.07899900
v 0.06967500 0.00913600 0.07899900
v 0.06967500 0.00913600 0.07899900
v 0.07589500 0.00369400 0.07899900
v 0.07589500 0.00369400 0.07899900
v 0.07589500 0.00369400 0.07899900
v 0.07589500 0.01535900 0.07899900
v 0.07589500 0.01535900 0.07899900
v 0.07589500 0.01535900 0.07899900
v 0.05801100 0.01535900 0.07899900
v 0.05801100 0.01535900 0.07899900
v 0.05801100 0.01535900 0.07899900
v 0.05801100 0.00913600 0.07970000
v 0.05801100 0.00913600 0.07970000
v 0.05801100 0.00913600 0.07970000
v 0.06967500 0.00913600 0.07970000
v 0.06967500 0.00913600 0.07970000
v 0.06967500 0.00913600 0.07970000
v 0.07589500 0.00369400 0.07970000
v 0.07589500 0.00369400 0.07970000
v 0.07589500 0.00369400 0.07970000
v 0.07589500 0.01535900 0.07970000
v 0.07589500 0.01535900 0.07970000
v 0.07589500 0.01535900 0.07970000
v 0.05801100 0.01535900 0.07970000
v 0.05801100 0.01535900 0.07970000
v 0.05801100 0.01535900 0.07970000
v 0.05801100 0.00913600 0.07900000
v 0.05801100 0.00913600 0.07900000
v 0.05801100 0.00913600 0.07900000
v 0.05801100 0.00913600 0.07970000
v 0.05801100 0.00913600 0.07970000
v 0.05801100 0.00913600 0.07970000
v 0.06967500 0.00913600 0.07900000
v 0.06967500 0.00913600 0.07900000
v 0.06967500 0.00913600 0.07900000
v 0.06967500 0.00913600 0.07970000
v 0.06967500 0.00913600 0.07970000
v 0.06967500 0.00913600 0.07970000
v 0.06967600 0.00913600 0.07900000
v 0.06967600 0.00913600 0.07900000
v 0.06967600 0.00913600 0.07900000
v 0.06967600 0.00913600 0.07970000
v 0.06967600 0.00913600 0.07970000
v 0.06967600 0.00913600 0.07970000
v 0.07589500 0.00369500 0.07900000
v 0.07589500 0.00369500 0.07900000
v 0.07589500 0.00369500 0.07900000
v 0.07589500 0.00369500 0.07970000
v 0.07589500 0.00369500 0.07970000
v 0.07589500 0.00369500 0.07970000
v 0.07589400 0.00369400 0.07900000
v 0.07589400 0.00369400 0.07900000
v 0.07589400 0.00369400 0.07900000
v 0.07589400 0.00369400 0.07970000
v 0.07589400 0.00369400 0.07970000
v 0.07589400 0.00369400 0.07970000
v 0.07589400 0.01535900 0.07900000
v 0.07589400 0.01535900 0.07900000
v 0.07589400 0.01535900 0.07900000
v 0.07589400 0.01535900 0.07970000
v 0.07589400 0.01535900 0.07970000
v 0.07589400 0.01535900 0.07970000
v 0.07589500 0.01535800 0.07900000
v 0.07589500 0.01535800 0.07900000
v 0.07589500 0.01535800 0.07900000
v 0.07589500 0.01535800 0.07970000
v 0.07589500 0.01535800 0.07970000
v 0.07589500 0.01535800 0.07970000
v 0.05801100 0.01535800 0.07900000
v 0.05801100 0.01535800 0.07900000
v 0.05801100 0.01535800 0.07900000
v 0.05801100 0.01535800 0.07970000
v 0.05801100 0.01535800 0.07970000
v 0.05801100 0.01535800 0.07970000
v 0.05801100 0.01535900 0.07900000
v 0.05801100 0.01535900 0.07900000
v 0.05801100 0.01535900 0.07900000
v 0.05801100 0.01535900 0.07970000
v 0.05801100 0.01535900 0.07970000
v 0.05801100 0.01535900 0.07970000
v 0.05801100 0.00913600 0.07900000
v 0.05801100 0.00913600 0.07900000
v 0.05801100 0.00913600 0.07900000
v 0.05801100 0.00913600 0.07970000
v 0.05801100 0.00913600 0.07970000
v 0.05801100 0.00913600 0.07970000
v 0.05801100 0.00913600 0.07900000
v 0.05801100 0.00913600 0.07900000
v 0.05801100 0.00913600 0.07900000
v 0.06967500 0.00913600 0.07900000
v 0.06967500 0.00913600 0.07900000
v 0.06967500 0.00913600 0.07900000
v 0.07589500 0.00369400 0.07900000
v 0.07589500 0.00369400 0.07900000
v 0.07589500 0.00369400 0.07900000
v 0.07589500 0.01535900 0.07900000
v 0.07589500 0.01535900 0.07900000
v 0.07589500 0.01535900 0.07900000
v 0.05801100 0.01535900 0.07900000
v 0.05801100 0.01535900 0.07900000
v 0.05801100 0.01535900 0.07900000
v 0.05801100 0.00913600 0.07969900
v 0.05801100 0.00913600 0.07969900
v 0.05801100 0.00913600 0.07969900
v 0.06967500 0.00913600 0.07969900
v 0.06967500 0.00913600 0.07969900
v 0.06967500 0.00913600 0.07969900
v 0.07589500 0.00369400 0.07969900
v 0.07589500 0.00369400 0.07969900
v 0.07589500 0.00369400 0.07969900
v 0.07589500 0.01535900 0.07969900
v 0.07589500 0.01535900 0.07969900
v 0.07589500 0.01535900 0.07969900
v 0.05801100 0.01535900 0.07969900
v 0.05801100 0.01535900 0.07969900
v 0.05801100 0.01535900 0.07969900
vn 0.00000000 -1.00000000 0.00000000
vn -1.00000000 0.00000000 0.00000000
vn 0.00000000 0.00000000 -1.00000000
vn -1.00000000 0.00000000 0.00000000
vn 0.00000000 -1.00000000 0.00000000
vn -0.00000000 0.00000000 1.00000000
vn 1.00000000 0.00000000 0.00000000
vn 0.00000000 0.00000000 -1.00000000
vn 0.00000000 -1.00000000 0.00000000
vn -0.00000000 0.00000000 1.00000000
vn 0.00000000 -1.00000000 0.00000000
vn 1.00000000 0.00000000 0.00000000
vn 0.00350000 0.00000000 -1.00000000
vn -0.75480000 0.65600000 0.00000000
vn -0.65850000 -0.75260000 0.00000000
vn -0.75480000 0.65600000 0.00000000
vn -0.00000000 0.00000000 1.00000000
vn -0.65850000 -0.75260000 0.00000000
vn 0.75440000 -0.65650000 0.00000000
vn -0.65850000 -0.75260000 0.00000000
vn 0.00350000 0.00000000 -1.00000000
vn -0.00000000 0.00000000 1.00000000
vn -0.65850000 -0.75260000 0.00000000
vn 0.75440000 -0.65650000 0.00000000
vn 1.00000000 0.00000000 0.00000000
vn 0.00000000 0.00000000 -1.00000000
vn 0.00000000 -1.00000000 0.00000000
vn -0.00000000 0.00000000 1.00000000
vn 0.00000000 -1.00000000 0.00000000
vn 1.00000000 0.00000000 0.00000000
vn 0.00000000 0.00000000 -1.00000000
vn 1.00000000 0.00000000 0.00000000
vn 0.00000000 1.00000000 0.00000000
vn -0.00000000 0.00000000 1.00000000
vn 1.00000000 0.00000000 0.00000000
vn 0.00000000 1.00000000 0.00000000
vn 0.00000000 0.00000000 -1.00000000
vn 0.00000000 1.00000000 0.00000000
vn 1.00000000 0.00000000 0.00000000
vn 1.00000000 0.00000000 0.00000000
vn 0.00000000 1.00000000 0.00000000
vn -0.00000000 0.00000000 1.00000000
vn -1.00000000 0.00000000 0.00000000
vn 0.00000000 0.00000000 -1.00000000
vn 0.00000000 1.00000000 0.00000000
vn -1.00000000 0.00000000 0.00000000
vn 0.00000000 1.00000000 0.00000000
vn -0.00000000 0.00000000 1.00000000
vn 0.00000000 1.00000000 0.00000000
vn 0.00000000 0.00000000 -1.00000000
vn -1.00000000 0.00000000 0.00000000
vn 0.00000000 1.00000000 0.00000000
vn -1.00000000 0.00000000 0.00000000
vn -0.00000000 0.00000000 1.00000000
vn 0.00000000 -1.00000000 0.00000000
vn -1.00000000 0.00000000 0.00000000
vn 0.00000000 0.00000000 -1.00000000
vn 0.00000000 -1.00000000 0.00000000
vn -0.00000000 0.00000000 1.00000000
vn -1.00000000 0.00000000 0.00000000
vn -1.00000000 0.00000000 0.00000000
vn 0.00000000 0.00000000 -1.00000000
vn 0.00000000 -1.00000000 0.00000000
vn 0.00000000 0.00000000 -1.00000000
vn 0.00000000 -1.00000000 0.00000000
vn -0.66030000 -0.75100000 0.00000000
vn -0.66030000 -0.75100000 0.00000000
vn 0.00000000 0.00000000 -1.00000000
vn 1.00000000 0.00000000 0.00000000
vn 0.00000000 0.00000000 -1.00000000
vn 1.00000000 0.00000000 0.00000000
vn 0.00000000 1.00000000 0.00000000
vn 0.00000000 0.00000000 -1.00000000
vn -1.00000000 0.00000000 0.00000000
vn 0.00000000 1.00000000 0.00000000
vn 0.00000000 -1.00000000 0.00000000
vn -1.00000000 0.00000000 0.00000000
vn -0.00000000 0.00000000 1.00000000
vn 0.00000000 -1.00000000 0.00000000
vn -0.65840000 -0.75270000 0.00000000
vn -0.00000000 0.00000000 1.00000000
vn 1.00000000 0.00000000 0.00000000
vn -0.00000000 0.00000000 1.00000000
vn -0.65840000 -0.75270000 0.00000000
vn 1.00000000 0.00000000 0.00000000
vn 0.00000000 1.00000000 0.00000000
vn -0.00000000 0.00000000 1.00000000
vn -0.00000000 0.00000000 1.00000000
vn -1.00000000 0.00000000 0.00000000
vn 0.00000000 1.00000000 0.00000000
vn 0.00000000 1.00000000 0.00000000
vn 0.00000000 0.00000000 -1.00000000
vn -1.00000000 0.00000000 0.00000000
vn 0.00000000 1.00000000 0.00000000
vn -0.00000000 0.00000000 1.00000000
vn -1.00000000 0.00000000 0.00000000
vn 1.00000000 0.00000000 0.00000000
vn 0.00000000 1.00000000 0.00000000
vn 0.00000000 0.00000000 -1.00000000
vn 0.00000000 1.00000000 0.00000000
vn 1.00000000 0.00000000 0.00000000
vn -0.00000000 0.00000000 1.00000000
vn 0.00350000 0.00000000 -1.00000000
vn -0.75480000 0.65600000 0.00000000
vn 0.65850000 0.75260000 0.00000000
vn -0.00000000 0.00000000 1.00000000
vn 0.65850000 0.75260000 0.00000000
vn -0.75480000 0.65600000 0.00000000
vn 0.65850000 0.75260000 0.00000000
vn 0.00350000 0.00000000 -1.00000000
vn 0.75440000 -0.65650000 0.00000000
vn -0.00000000 0.00000000 1.00000000
vn 0.65850000 0.75260000 0.00000000
vn 0.75440000 -0.65650000 0.00000000
vn -1.00000000 0.00000000 0.00000000
vn 0.00000000 -1.00000000 0.00000000
vn 0.00000000 0.00000000 -1.00000000
vn -1.00000000 0.00000000 0.00000000
vn 0.00000000 -1.00000000 0.00000000
vn -0.00000000 0.00000000 1.00000000
vn 0.00000000 0.00000000 -1.00000000
vn 0.00000000 1.00000000 0.00000000
vn -1.00000000 0.00000000 0.00000000
vn -1.00000000 0.00000000 0.00000000
vn 0.00000000 1.00000000 0.00000000
vn -0.00000000 0.00000000 1.00000000
vn 0.00000000 0.00000000 -1.00000000
vn 1.00000000 0.00000000 0.00000000
vn 0.00000000 -1.00000000 0.00000000
vn -0.00000000 0.00000000 1.00000000
vn 0.00000000 -1.00000000 0.00000000
vn 1.00000000 0.00000000 0.00000000
vn -1.00000000 0.00000000 0.00000000
vn 0.00000000 0.00000000 -1.00000000
vn 0.00000000 -1.00000000 0.00000000
vn -1.00000000 0.00000000 0.00000000
vn 0.00000000 -1.00000000 0.00000000
vn -0.00000000 0.00000000 1.00000000
vn 0.00000000 0.00000000 -1.00000000
vn 0.00000000 1.00000000 0.00000000
vn 1.00000000 0.00000000 0.00000000
vn 1.00000000 0.00000000 0.00000000
vn -0.00000000 0.00000000 1.00000000
vn 0.00000000 1.00000000 0.00000000
vn 0.00000000 0.00000000 -1.00000000
vn 0.00000000 -1.00000000 0.00000000
vn 1.00000000 0.00000000 0.00000000
vn 0.00000000 -1.00000000 0.00000000
vn 1.00000000 0.00000000 0.00000000
vn -0.00000000 0.00000000 1.00000000
vn -1.00000000 0.00000000 0.00000000
vn -0.00000000 0.00000000 1.00000000
vn 0.00000000 -1.00000000 0.00000000
vn -0.00000000 0.00000000 1.00000000
vn -0.66030000 -0.75100000 0.00000000
vn 0.00000000 -1.00000000 0.00000000
vn 1.00000000 0.00000000 0.00000000
vn -0.00000000 0.00000000 1.00000000
vn -0.66030000 -0.75100000 0.00000000
vn -0.00000000 0.00000000 1.00000000
vn 1.00000000 0.00000000 0.00000000
vn 0.00000000 1.00000000 0.00000000
vn -0.00000000 0.00000000 1.00000000
vn -1.00000000 0.00000000 0.00000000
vn 0.00000000 1.00000000 0.00000000
vn -1.00000000 0.00000000 0.00000000
vn 0.00000000 -1.00000000 0.00000000
vn 0.00000000 0.00000000 -1.00000000
vn 0.00000000 0.00000000 -1.00000000
vn -0.65840000 -0.75270000 0.00000000
vn 0.00000000 -1.00000000 0.00000000
vn 0.00000000 0.00000000 -1.00000000
vn -0.65840000 -0.75270000 0.00000000
vn 1.00000000 0.00000000 0.00000000
vn 0.00000000 0.00000000 -1.00000000
vn 0.00000000 1.00000000 0.00000000
vn 1.00000000 0.00000000 0.00000000
vn 0.00000000 0.00000000 -1.00000000
vn 0.00000000 1.00000000 0.00000000
vn -1.00000000 0.00000000 0.00000000
vt 0.00000000 0.00000000
vt 0.00000000 0.00000000
vt 0.00000000 0.00000000
vt 0.00000000 0.51456500
vt 0.00000000 0.51456500
vt 0.00000000 0.51456500
vt 0.20941700 0.00000000
vt 0.20941700 0.00000000
vt 0.20941700 0.00000000
vt 0.20941700 0.51456500
vt 0.20941700 0.51456500
vt 0.20941700 0.51456500
vt 0.20941700 0.00000000
vt 0.20941700 0.00000000
vt 0.20941700 0.00000000
vt 0.20941700 0.51456500
vt 0.20941700 0.51456500
vt 0.20941700 0.51456500
vt 0.35778200 0.00000000
vt 0.35778200 0.00000000
vt 0.35778200 0.00000000
vt 0.35778200 0.51456500
vt 0.35778200 0.51456500
vt 0.35778200 0.51456500
vt 0.35778200 0.00000000
vt 0.35778200 0.00000000
vt 0.35778200 0.00000000
vt 0.35778200 0.51456500
vt 0.35778200 0.51456500
vt 0.35778200 0.51456500
vt 0.56720000 0.00000000
vt 0.56720000 0.00000000
vt 0.56720000 0.00000000
vt 0.56720000 0.51456500
vt 0.56720000 0.51456500
vt 0.56720000 0.51456500
vt 0.56720000 0.00000000
vt 0.56720000 0.00000000
vt 0.56720000 0.00000000
vt 0.56720000 0.51456500
vt 0.56720000 0.51456500
vt 0.56720000 0.51456500
vt 0.88827700 0.00000000
vt 0.88827700 0.00000000
vt 0.88827700 0.00000000
vt 0.88827700 0.51456500
vt 0.88827700 0.51456500
vt 0.88827700 0.51456500
vt 0.88827700 0.00000000
vt 0.88827700 0.00000000
vt 0.88827700 0.00000000
vt 0.88827700 0.51456500
vt 0.88827700 0.51456500
vt 0.88827700 0.51456500
vt 1.00000000 0.00000000
vt 1.00000000 0.00000000
vt 1.00000000 0.00000000
vt 1.00000000 0.51456500
vt 1.00000000 0.51456500
vt 1.00000000 0.51456500
vt 0.00000000 0.77354200
vt 0.00000000 0.77354200
vt 0.00000000 0.77354200
vt 0.20941700 0.77354200
vt 0.20941700 0.77354200
vt 0.20941700 0.77354200
vt 0.32107700 1.00000000
vt 0.32107700 1.00000000
vt 0.32107700 1.00000000
vt 0.32107700 0.51456600
vt 0.32107700 0.51456600
vt 0.32107700 0.51456600
vt 0.00000000 0.51456600
vt 0.00000000 0.51456600
vt 0.00000000 0.51456600
vt 0.00000000 0.74102300
vt 0.00000000 0.74102300
vt 0.00000000 0.74102300
vt 0.20941700 0.74102300
vt 0.20941700 0.74102300
vt 0.20941700 0.74102300
vt 0.32107700 0.51456600
vt 0.32107700 0.51456600
vt 0.32107700 0.51456600
vt 0.32107700 1.00000000
vt 0.32107700 1.00000000
vt 0.32107700 1.00000000
vt 0.00000000 1.00000000
vt 0.00000000 1.00000000
vt 0.00000000 1.00000000
vt 0.00000000 0.00000000
vt 0.00000000 0.00000000
vt 0.00000000 0.00000000
vt 0.00000000 0.51456500
vt 0.00000000 0.51456500
vt 0.00000000 0.51456500
vt 0.20941700 0.00000000
vt 0.20941700 0.00000000
vt 0.20941700 0.00000000
vt 0.20941700 0.51456500
vt 0.20941700 0.51456500
vt 0.20941700 0.51456500
vt 0.20941700 0.00000000
vt 0.20941700 0.00000000
vt 0.20941700 0.00000000
vt 0.20941700 0.51456500
vt 0.20941700 0.51456500
vt 0.20941700 0.51456500
vt 0.35778200 0.00000000
vt 0.35778200 0.00000000
vt 0.35778200 0.00000000
vt 0.35778200 0.51456500
vt 0.35778200 0.51456500
vt 0.35778200 0.51456500
vt 0.35778200 0.00000000
vt 0.35778200 0.00000000
vt 0.35778200 0.00000000
vt 0.35778200 0.51456500
vt 0.35778200 0.51456500
vt 0.35778200 0.51456500
vt 0.56720000 0.00000000
vt 0.56720000 0.00000000
vt 0.56720000 0.00000000
vt 0.56720000 0.51456500
vt 0.56720000 0.51456500
vt 0.56720000 0.51456500
vt 0.56720000 0.00000000
vt 0.56720000 0.00000000
vt 0.56720000 0.00000000
vt 0.56720000 0.51456500
vt 0.56720000 0.51456500
vt 0.56720000 0.51456500
vt 0.88827700 0.00000000
vt 0.88827700 0.00000000
vt 0.88827700 0.00000000
vt 0.88827700 0.51456500
vt 0.88827700 0.51456500
vt 0.88827700 0.51456500
vt 0.88827700 0.00000000
vt 0.88827700 0.00000000
vt 0.88827700 0.00000000
vt 0.88827700 0.51456500
vt 0.88827700 0.51456500
vt 0.88827700 0.51456500
vt 1.00000000 0.00000000
vt 1.00000000 0.00000000
vt 1.00000000 0.00000000
vt 1.00000000 0.51456500
vt 1.00000000 0.51456500
vt 1.00000000 0.51456500
vt 0.00000000 0.77354200
vt 0.00000000 0.77354200
vt 0.00000000 0.77354200
vt 0.20941700 0.77354200
vt 0.20941700 0.77354200
vt 0.20941700 0.77354200
vt 0.32107700 1.00000000
vt 0.32107700 1.00000000
vt 0.32107700 1.00000000
vt 0.32107700 0.51456600
vt 0.32107700 0.51456600
vt 0.32107700 0.51456600
vt 0.00000000 0.51456600
vt 0.00000000 0.51456600
vt 0.00000000 0.51456600
vt 0.00000000 0.74102300
vt 0.00000000 0.74102300
vt 0.00000000 0.74102300
vt 0.20941700 0.74102300
vt 0.20941700 0.74102300
vt 0.20941700 0.74102300
vt 0.32107700 0.51456600
vt 0.32107700 0.51456600
vt 0.32107700 0.51456600
vt 0.32107700 1.00000000
vt 0.32107700 1.00000000
vt 0.32107700 1.00000000
vt 0.00000000 1.00000000
vt 0.00000000 1.00000000
vt 0.00000000 1.00000000
f 1/1/1 9/9/9 11/11/11
f 15/15/15 20/20/20 23/23/23
f 25/25/25 32/32/32 35/35/35
f 38/38/38 45/45/45 47/47/47
f 51/51/51 56/56/56 60/60/60
f 70/70/70 68/68/68 64/64/64
f 62/62/62 73/73/73 64/64/64
f 70/70/70 64/64/64 73/73/73
f 87/87/87 81/81/81 83/83/83
f 78/78/78 81/81/81 88/88/88
f 87/87/87 88/88/88 81/81/81
f 1/1/1 11/11/11 5/5/5
f 15/15/15 23/23/23 18/18/18
f 25/25/25 35/35/35 30/30/30
f 38/38/38 47/47/47 41/41/41
f 51/51/51 60/60/60 53/53/53
f 91/91/91 100/100/100 98/98/98
f 105/105/105 113/113/113 109/109/109
f 115/115/115 124/124/124 123/123/123
f 129/129/129 137/137/137 135/135/135
f 141/141/141 149/149/149 147/147/147
f 160/160/160 154/154/154 158/158/158
f 152/152/152 154/154/154 163/163/163
f 160/160/160 163/163/163 154/154/154
f 175/175/175 172/172/172 169/169/169
f 168/168/168 178/178/178 169/169/169
f 175/175/175 169/169/169 178/178/178
f 91/91/91 94/94/94 100/100/100
f 105/105/105 107/107/107 113/113/113
f 115/115/115 118/118/118 124/124/124
f 129/129/129 131/131/131 137/137/137
f 141/141/141 142/142/142 149/149/149
f 28/28/28 34/34/34 126/126/126
f 126/126/126 120/120/120 28/28/28
f 2/2/2 4/4/4 96/96/96
f 96/96/96 93/93/93 2/2/2
f 8/8/8 3/3/3 92/92/92
f 92/92/92 99/99/99 8/8/8
f 14/14/14 16/16/16 108/108/108
f 108/108/108 104/104/104 14/14/14
f 21/21/21 13/13/13 103/103/103
f 103/103/103 110/110/110 21/21/21
f 27/27/27 29/29/29 119/119/119
f 119/119/119 116/116/116 27/27/27
f 31/31/31 26/26/26 117/117/117
f 117/117/117 121/121/121 31/31/31
f 36/36/36 33/33/33 122/122/122
f 122/122/122 125/125/125 36/36/36
f 39/39/39 40/40/40 132/132/132
f 132/132/132 128/128/128 39/39/39
f 44/44/44 37/37/37 127/127/127
f 127/127/127 134/134/134 44/44/44
f 49/49/49 52/52/52 144/144/144
f 144/144/144 140/140/140 49/49/49
f 57/57/57 50/50/50 139/139/139
f 139/139/139 145/145/145 57/57/57
f 63/63/63 65/65/65 156/156/156
f 156/156/156 153/153/153 63/63/63
f 66/66/66 67/67/67 159/159/159
f 159/159/159 155/155/155 66/66/66
f 74/74/74 61/61/61 151/151/151
f 151/151/151 164/164/164 74/74/74
f 79/79/79 76/76/76 167/167/167
f 167/167/167 171/171/171 79/79/79
f 84/84/84 80/80/80 170/170/170
f 170/170/170 173/173/173 84/84/84
f 85/85/85 82/82/82 174/174/174
f 174/174/174 177/177/177 85/85/85
f 77/77/77 89/89/89 180/180/180
f 180/180/180 166/166/166 77/77/77
f 12/12/12 7/7/7 97/97/97
f 97/97/97 101/101/101 12/12/12
f 69/69/69 71/71/71 161/161/161
f 161/161/161 157/157/157 69/69/69
f 72/72/72 75/75/75 165/165/165
f 165/165/165 162/162/162 72/72/72
f 42/42/42 48/48/48 138/138/138
f 138/138/138 130/130/130 42/42/42
f 46/46/46 43/43/43 133/133/133
f 133/133/133 136/136/136 46/46/46
f 17/17/17 22/22/22 112/112/112
f 112/112/112 106/106/106 17/17/17
f 24/24/24 19/19/19 111/111/111
f 111/111/111 114/114/114 24/24/24
f 54/54/54 59/59/59 150/150/150
f 150/150/150 143/143/143 54/54/54
f 58/58/58 55/55/55 146/146/146
f 146/146/146 148/148/148 58/58/58
f 90/90/90 86/86/86 176/176/176
f 176/176/176 179/179/179 90/90/90
f 6/6/6 10/10/10 102/102/102
f 102/102/102 95/95/95 6/6/6

