mtllib material.mtl
usemtl Material-塑胶__2_.002
v -0.09339700 0.10998300 0.02585900
v -0.09082200 0.11012100 0.02473600
v -0.09395100 0.11007300 0.02399400
v -0.09477300 0.10985100 0.02201500
v -0.09296700 0.11014000 0.02282600
v -0.09291200 0.10982400 0.02069400
v -0.09505800 0.10986100 0.02455200
v -0.09549000 0.10917100 0.02032100
v -0.09323300 0.10941400 0.01956200
v -0.09691100 0.10916300 0.02276500
v -0.09515500 0.10938300 0.02668600
v -0.09326800 0.10915200 0.02835600
v -0.09112400 0.11004700 0.02190500
v -0.09082200 0.11012100 0.02473600
v -0.09378100 0.10913100 0.01908200
v -0.09154800 0.10984500 0.02655500
v -0.09103700 0.10912700 0.01890800
v -0.08926300 0.10941500 0.02659500
v -0.09082200 0.11012100 0.02473600
v -0.09154800 0.10984500 0.02655500
v -0.08935100 0.10942000 0.02065000
v -0.09112400 0.11004700 0.02190500
v -0.08943100 0.10986800 0.02305500
v -0.09094000 0.10943300 0.01974200
v -0.08804300 0.10936400 0.02275100
v -0.08832100 0.10941900 0.02508000
v -0.09339700 0.10998300 0.02585900
v -0.09326800 0.10915200 0.02835600
v -0.09092400 0.10912800 0.02823400
v -0.08741500 0.10912800 0.02473500
v -0.09291200 0.10982400 0.02069400
v -0.09323300 0.10941400 0.01956200
v -0.09296700 0.11014000 0.02282600
v -0.08804600 0.10912900 0.02098700
v -0.09103700 0.10912700 0.01890800
v -0.09875700 0.10877600 0.01972000
v -0.09875700 0.10877600 0.01972000
v -0.05562000 0.10877600 0.02000800
v -0.05476900 0.10877600 0.02278800
v -0.06147600 0.10877600 0.01616900
v -0.06147600 0.10877600 0.01616900
v -0.05807000 0.10882900 0.01732000
v -0.09312400 0.10877600 0.01616500
v -0.09312400 0.10877600 0.01616500
v -0.09595300 0.10877500 0.01707600
v -0.09975800 0.10877600 0.02305500
v -0.06136300 0.10877600 0.03115700
v -0.05497800 0.10877600 0.02576700
v -0.05634400 0.10877600 0.02833800
v -0.05854500 0.10877500 0.03024700
v -0.09300600 0.10877600 0.03115900
v -0.09949600 0.10877600 0.02580200
v -0.09848600 0.10877600 0.02782900
v -0.09613200 0.10877100 0.03018300
v -0.05473600 0.10911800 0.02298500
v -0.05505600 0.10912600 0.02597500
v -0.05497800 0.10877600 0.02576700
v -0.05646100 0.10912600 0.02850000
v -0.05634400 0.10877600 0.02833800
v -0.05873800 0.10911800 0.03036600
v -0.06149300 0.10912600 0.03115900
v -0.06136300 0.10877600 0.03115700
v -0.05854500 0.10877500 0.03024700
v -0.09300600 0.10877600 0.03115900
v -0.06136300 0.10877600 0.03115700
v -0.06149300 0.10912600 0.03115900
v -0.09313500 0.10912600 0.03115700
v -0.09648400 0.10911800 0.02999000
v -0.09613200 0.10877100 0.03018300
v -0.09848600 0.10912600 0.02782900
v -0.09848600 0.10877600 0.02782900
v -0.09953800 0.10912600 0.02560400
v -0.09949600 0.10877600 0.02580200
v -0.09975800 0.10877600 0.02305500
v -0.09975100 0.10912500 0.02285600
v -0.09855100 0.10912000 0.01935600
v -0.09875700 0.10877600 0.01972000
v -0.09576000 0.10912400 0.01695700
v -0.09300800 0.10912600 0.01616800
v -0.09312400 0.10877600 0.01616500
v -0.09595300 0.10877500 0.01707600
v -0.09312400 0.10877600 0.01616500
v -0.09300800 0.10912600 0.01616800
v -0.06137300 0.10912600 0.01616500
v -0.05741200 0.10912600 0.01787300
v -0.05552800 0.10912600 0.02021000
v -0.05562000 0.10877600 0.02000800
v -0.05473600 0.10911800 0.02298500
v -0.05476900 0.10877600 0.02278800
v -0.05741200 0.10912600 0.01787300
v -0.05473600 0.10911800 0.02298500
v -0.05473600 0.10911800 0.02298500
v -0.05473600 0.10911800 0.02298500
v -0.05552800 0.10912600 0.02021000
v -0.05807000 0.10882900 0.01732000
v -0.06137300 0.10912600 0.01616500
v -0.09103700 0.10912700 0.01890800
v -0.05505600 0.10912600 0.02597500
v -0.05646100 0.10912600 0.02850000
v -0.05873800 0.10911800 0.03036600
v -0.06149300 0.10912600 0.03115900
v -0.08741500 0.10912800 0.02473500
v -0.08741500 0.10912800 0.02473500
v -0.08804600 0.10912900 0.02098700
v -0.08804600 0.10912900 0.02098700
v -0.09300800 0.10912600 0.01616800
v -0.09378100 0.10913100 0.01908200
v -0.09855100 0.10912000 0.01935600
v -0.09576000 0.10912400 0.01695700
v -0.09691100 0.10916300 0.02276500
v -0.09549000 0.10917100 0.02032100
v -0.09975100 0.10912500 0.02285600
v -0.09643000 0.10914700 0.02606800
v -0.09326800 0.10915200 0.02835600
v -0.09848600 0.10912600 0.02782900
v -0.08881200 0.10912800 0.02708200
v -0.08881200 0.10912800 0.02708200
v -0.09953800 0.10912600 0.02560400
v -0.09648400 0.10911800 0.02999000
v -0.09092400 0.10912800 0.02823400
v -0.09313500 0.10912600 0.03115700
v -0.09643000 0.10914700 0.02606800
v -0.08881200 0.10912800 0.02708200
v -0.05476900 0.10877600 0.02278800
v -0.09313500 0.10912600 0.03115700
v -0.09300600 0.10877600 0.03115900
v -0.06147600 0.10877600 0.01616900
v -0.06137300 0.10912600 0.01616500
v -0.05807000 0.10882900 0.01732000
v -0.06147600 0.10877600 0.01616900
vn -0.10090000 0.97670000 0.18920000
vn 0.08020000 0.99650000 0.02150000
vn -0.10160000 0.99450000 0.02550000
vn -0.23590000 0.95970000 -0.15250000
vn -0.02060000 0.99930000 -0.03170000
vn -0.06320000 0.95950000 -0.27470000
vn -0.25840000 0.96250000 0.08270000
vn -0.24490000 0.93870000 -0.24270000
vn -0.08680000 0.92420000 -0.37200000
vn -0.36710000 0.92750000 -0.06990000
vn -0.26370000 0.92470000 0.27460000
vn -0.08220000 0.92450000 0.37230000
vn 0.04280000 0.99610000 -0.07770000
vn 0.03880000 0.99920000 0.01280000
vn -0.08780000 0.96160000 -0.26000000
vn 0.06930000 0.96140000 0.26620000
vn 0.07110000 0.94140000 -0.32970000
vn 0.28870000 0.91470000 0.28270000
vn 0.08750000 0.99340000 0.07470000
vn 0.06400000 0.96270000 0.26300000
vn 0.27990000 0.91450000 -0.29220000
vn 0.08350000 0.98830000 -0.12780000
vn 0.25160000 0.96630000 -0.05500000
vn 0.12620000 0.91770000 -0.37680000
vn 0.38880000 0.91780000 -0.08080000
vn 0.37510000 0.91700000 0.13600000
vn -0.08630000 0.98560000 0.14550000
vn -0.07730000 0.92750000 0.36570000
vn 0.09690000 0.93650000 0.33710000
vn 0.20560000 0.97740000 0.04930000
vn -0.05990000 0.96200000 -0.26650000
vn -0.08890000 0.92250000 -0.37570000
vn -0.05000000 0.99860000 0.01860000
vn 0.17110000 0.97860000 -0.11450000
vn 0.06290000 0.96840000 -0.24150000
vn 0.00000000 -1.00000000 -0.00000000
vn -0.00000000 -1.00000000 -0.00010000
vn 0.00000000 -1.00000000 -0.00000000
vn 0.00000000 -1.00000000 -0.00000000
vn 0.00000000 -1.00000000 -0.00000000
vn -0.00000000 -1.00000000 -0.00010000
vn 0.00000000 -1.00000000 -0.00000000
vn 0.00000000 -1.00000000 -0.00000000
vn -0.00000000 -1.00000000 -0.00010000
vn 0.00000000 -1.00000000 -0.00000000
vn 0.00000000 -1.00000000 -0.00000000
vn 0.00000000 -1.00000000 -0.00000000
vn 0.00000000 -1.00000000 -0.00000000
vn 0.00000000 -1.00000000 -0.00000000
vn 0.00000000 -1.00000000 -0.00000000
vn 0.00000000 -1.00000000 -0.00000000
vn 0.00000000 -1.00000000 -0.00000000
vn 0.00000000 -1.00000000 -0.00000000
vn 0.00000000 -1.00000000 -0.00000000
vn 0.99610000 0.00000000 -0.08840000
vn 0.95200000 0.00000000 0.30600000
vn 0.96070000 0.00000000 0.27770000
vn 0.76730000 0.00000000 0.64130000
vn 0.78400000 0.00000000 0.62070000
vn 0.46390000 0.00000000 0.88590000
vn 0.10090000 -0.00000000 0.99490000
vn 0.11790000 -0.00000000 0.99300000
vn 0.49040000 0.00000000 0.87150000
vn 0.00000000 -0.00000000 1.00000000
vn 0.00000000 -0.00000000 1.00000000
vn 0.00000000 -0.00000000 1.00000000
vn -0.11770000 0.00000000 0.99300000
vn -0.55550000 0.00000000 0.83150000
vn -0.51100000 -0.00000000 0.85960000
vn -0.83150000 0.00000000 0.55560000
vn -0.83150000 0.00000000 0.55560000
vn -0.96630000 -0.00000000 0.25740000
vn -0.95910000 -0.00000000 0.28310000
vn -0.99670000 -0.00000000 -0.08060000
vn -0.99430000 -0.00000000 -0.10680000
vn -0.82570000 0.00000000 -0.56410000
vn -0.85540000 -0.00000000 -0.51790000
vn -0.46370000 0.00000000 -0.88600000
vn -0.10120000 -0.00000000 -0.99490000
vn -0.11620000 0.00000000 -0.99320000
vn -0.49010000 0.00000000 -0.87170000
vn -0.00000000 -0.00000000 -1.00000000
vn -0.00000000 -0.00000000 -1.00000000
vn -0.00000000 -0.00000000 -1.00000000
vn 0.64130000 -0.00000000 -0.76730000
vn 0.88960000 0.00000000 -0.45680000
vn 0.87570000 0.00000000 -0.48280000
vn 0.99590000 0.00000000 -0.09040000
vn 0.99320000 0.00000000 -0.11670000
vn 0.00000000 1.00000000 0.00000000
vn 0.00000000 1.00000000 0.00000000
vn -0.00010000 1.00000000 -0.00010000
vn 0.00000000 1.00000000 0.00010000
vn 0.00000000 1.00000000 0.00000000
vn 0.00000000 1.00000000 0.00000000
vn 0.00000000 1.00000000 0.00000000
vn 0.00000000 1.00000000 0.00000000
vn 0.00000000 1.00000000 0.00000000
vn 0.00000000 1.00000000 0.00000000
vn 0.00000000 1.00000000 0.00000000
vn 0.00000000 1.00000000 0.00000000
vn -0.00010000 1.00000000 -0.00010000
vn 0.00000000 1.00000000 0.00010000
vn 0.00000000 1.00000000 0.00000000
vn -0.00010000 1.00000000 -0.00010000
vn 0.00000000 1.00000000 0.00000000
vn 0.00000000 1.00000000 0.00000000
vn 0.00000000 1.00000000 0.00000000
vn 0.00000000 1.00000000 0.00000000
vn 0.00000000 1.00000000 0.00000000
vn 0.00000000 1.00000000 0.00000000
vn 0.00000000 1.00000000 0.00000000
vn 0.00000000 1.00000000 0.00000000
vn 0.00000000 1.00000000 0.00000000
vn 0.00000000 1.00000000 0.00000000
vn 0.00000000 1.00000000 0.00000000
vn 0.00000000 1.00000000 0.00010000
vn 0.00000000 1.00000000 0.00000000
vn 0.00000000 1.00000000 0.00000000
vn 0.00000000 1.00000000 0.00000000
vn 0.00000000 1.00000000 0.00000000
vn -0.29050000 0.94280000 0.16370000
vn 0.14700000 0.97830000 0.14610000
vn 0.99360000 0.00000000 -0.11310000
vn 0.00000000 -0.00000000 1.00000000
vn -0.10080000 0.00000000 0.99490000
vn -0.00000000 -0.00000000 -1.00000000
vn 0.11650000 0.00000000 -0.99320000
vn 0.54970000 0.00000000 -0.83540000
vn 0.10320000 0.00000000 -0.99470000
vt 0.00563000 0.05897100
vt -0.00167600 0.06529900
vt 0.00369900 0.05314900
vt 0.00705300 0.04855100
vt 0.00202600 0.04760800
vt 0.00748900 0.04402000
vt 0.00698000 0.05416400
vt 0.01453200 0.04736200
vt 0.01185200 0.04411900
vt 0.01437000 0.05091400
vt 0.01200400 0.05712400
vt 0.01463900 0.06042800
vt 0.00294500 0.03498700
vt -0.00291300 0.03120500
vt 0.01584000 0.04475500
vt 0.00663000 0.06286600
vt 0.01477100 0.04103000
vt 0.01161800 0.04756400
vt 0.00349500 0.04852400
vt 0.00729200 0.04410300
vt 0.01157300 0.05713900
vt 0.00466400 0.05836100
vt 0.00684400 0.05352000
vt 0.01144700 0.05971600
vt 0.01214600 0.05363200
vt 0.01163400 0.05000200
vt 0.00448700 0.03911700
vt 0.01415000 0.04112300
vt 0.01479900 0.04449800
vt 0.01654900 0.05079000
vt 0.00702100 0.06318700
vt 0.01110300 0.06341200
vt 0.00102800 0.06403400
vt 0.01663700 0.05577200
vt 0.01623900 0.06014400
vt 0.10217500 0.98078300
vt 0.10217500 0.98078300
vt 0.10799200 0.14642700
vt 0.16416100 0.12995600
vt 0.03044400 0.25969300
vt 0.03044400 0.25969300
vt 0.05395000 0.19391400
vt 0.03035700 0.87183100
vt 0.03035700 0.87183100
vt 0.04877200 0.92656000
vt 0.16956300 1.00015400
vt 0.33322800 0.25751800
vt 0.22434000 0.13400700
vt 0.27627800 0.16043800
vt 0.31484000 0.20299900
vt 0.33326800 0.86955700
vt 0.22505200 0.99509700
vt 0.26599700 0.97555200
vt 0.31356000 0.93002800
vt 0.06164300 0.04342400
vt 0.06974900 0.04321000
vt 0.06916400 0.04982600
vt 0.07752600 0.04340300
vt 0.07699600 0.05000400
vt 0.08544500 0.04355100
vt 0.09316600 0.04323500
vt 0.09282500 0.04985100
vt 0.08484800 0.05005500
vt 0.01283000 0.69547600
vt 0.01283400 0.08343800
vt 0.01990100 0.08593800
vt 0.03410400 0.04338700
vt 0.04364100 0.04424000
vt 0.04258800 0.05021500
vt 0.05156600 0.04323500
vt 0.05156600 0.05000400
vt 0.05820300 0.04322000
vt 0.05766900 0.04983100
vt 0.06509600 0.05000400
vt 0.06562400 0.04341500
vt 0.07556900 0.04417600
vt 0.07448000 0.05014400
vt 0.08545200 0.04343400
vt 0.09316100 0.04323300
vt 0.09286100 0.04985300
vt 0.08485500 0.05005500
vt 0.04295900 0.06160700
vt 0.04528500 0.05483800
vt 0.68437500 0.05484200
vt 0.04579300 0.04340500
vt 0.05387900 0.04319400
vt 0.05329500 0.04981400
vt 0.06165200 0.04364000
vt 0.06111600 0.05000400
vt 0.14469500 0.10466500
vt 0.09063300 0.20354100
vt 0.09063300 0.20354100
vt 0.09063300 0.20354100
vt 0.10662500 0.14986300
vt 0.15748100 0.09285500
vt 0.22471900 0.07162500
vt 0.82398300 0.12468700
vt 0.09709100 0.26138200
vt 0.12547700 0.31021000
vt 0.17147200 0.34630700
vt 0.22712900 0.36163700
vt 0.75081600 0.23739000
vt 0.75081600 0.23739000
vt 0.76354600 0.16489700
vt 0.76354600 0.16489700
vt 0.86380800 0.07169300
vt 0.87942100 0.12805000
vt 0.97578200 0.13335000
vt 0.91939900 0.08694500
vt 0.94264900 0.19928700
vt 0.91392900 0.15201400
vt 1.00002400 0.20105600
vt 0.93293600 0.26317000
vt 0.86905500 0.30743200
vt 0.97446500 0.29723300
vt 0.77903400 0.28279600
vt 0.77903400 0.28279600
vt 0.99570700 0.25420900
vt 0.93402800 0.33902600
vt 0.82169100 0.30507600
vt 0.86636600 0.36160700
vt 0.01497700 0.05558100
vt 0.01651100 0.04746000
vt 0.06112400 0.05000400
vt 0.01989900 0.69797300
vt 0.03376400 0.05000400
vt 0.68230500 0.06161000
vt 0.03408000 0.04338700
vt 0.04350600 0.04919500
vt 0.03381300 0.05000400
f 2/2/2 5/5/5 1/1/1
f 4/4/4 5/5/5 6/6/6
f 4/4/4 3/3/3 5/5/5
f 7/7/7 3/3/3 4/4/4
f 4/4/4 6/6/6 8/8/8
f 10/10/10 4/4/4 8/8/8
f 10/10/10 7/7/7 4/4/4
f 7/7/7 122/122/122 11/11/11
f 12/12/12 1/1/1 11/11/11
f 13/13/13 5/5/5 14/14/14
f 9/9/9 15/15/15 8/8/8
f 16/16/16 1/1/1 12/12/12
f 15/15/15 9/9/9 17/17/17
f 18/18/18 19/19/19 20/20/20
f 21/21/21 22/22/22 23/23/23
f 24/24/24 22/22/22 21/21/21
f 25/25/25 23/23/23 26/26/26
f 19/19/19 27/27/27 20/20/20
f 28/28/28 29/29/29 20/20/20
f 30/30/30 26/26/26 18/18/18
f 22/22/22 24/24/24 31/31/31
f 31/31/31 24/24/24 32/32/32
f 33/33/33 22/22/22 31/31/31
f 25/25/25 30/30/30 34/34/34
f 30/30/30 25/25/25 26/26/26
f 21/21/21 34/34/34 35/35/35
f 32/32/32 24/24/24 35/35/35
f 21/21/21 23/23/23 25/25/25
f 36/36/36 38/38/38 39/39/39
f 38/38/38 40/40/40 42/42/42
f 37/37/37 44/44/44 41/41/41
f 36/36/36 45/45/45 43/43/43
f 40/40/40 38/38/38 36/36/36
f 39/39/39 48/48/48 36/36/36
f 47/47/47 48/48/48 49/49/49
f 49/49/49 50/50/50 47/47/47
f 47/47/47 51/51/51 48/48/48
f 52/52/52 51/51/51 53/53/53
f 48/48/48 52/52/52 46/46/46
f 53/53/53 51/51/51 54/54/54
f 48/48/48 51/51/51 52/52/52
f 55/55/55 56/56/56 57/57/57
f 56/56/56 58/58/58 59/59/59
f 60/60/60 61/61/61 62/62/62
f 63/63/63 59/59/59 58/58/58
f 64/64/64 65/65/65 66/66/66
f 67/67/67 68/68/68 69/69/69
f 68/68/68 70/70/70 71/71/71
f 70/70/70 72/72/72 73/73/73
f 74/74/74 73/73/73 72/72/72
f 75/75/75 76/76/76 77/77/77
f 78/78/78 79/79/79 80/80/80
f 76/76/76 78/78/78 81/81/81
f 84/84/84 127/127/127 83/83/83
f 85/85/85 86/86/86 87/87/87
f 86/86/86 88/88/88 89/89/89
f 90/90/90 91/91/91 94/94/94
f 90/90/90 95/95/95 96/96/96
f 96/96/96 91/91/91 90/90/90
f 97/97/97 104/104/104 96/96/96
f 98/98/98 91/91/91 99/99/99
f 100/100/100 99/99/99 101/101/101
f 99/99/99 91/91/91 101/101/101
f 102/102/102 92/92/92 105/105/105
f 97/97/97 106/106/106 107/107/107
f 108/108/108 111/111/111 109/109/109
f 106/106/106 109/109/109 107/107/107
f 108/108/108 112/112/112 110/110/110
f 97/97/97 96/96/96 106/106/106
f 112/112/112 118/118/118 110/110/110
f 115/115/115 119/119/119 113/113/113
f 93/93/93 103/103/103 117/117/117
f 113/113/113 118/118/118 115/115/115
f 120/120/120 114/114/114 121/121/121
f 121/121/121 101/101/101 120/120/120
f 114/114/114 119/119/119 121/121/121
f 120/120/120 101/101/101 116/116/116
f 1/1/1 3/3/3 7/7/7
f 122/122/122 7/7/7 10/10/10
f 12/12/12 11/11/11 122/122/122
f 22/22/22 19/19/19 23/23/23
f 26/26/26 23/23/23 19/19/19
f 18/18/18 20/20/20 29/29/29
f 30/30/30 18/18/18 123/123/123
f 29/29/29 123/123/123 18/18/18
f 21/21/21 35/35/35 24/24/24
f 55/55/55 57/57/57 124/124/124
f 56/56/56 59/59/59 57/57/57
f 60/60/60 62/62/62 63/63/63
f 63/63/63 58/58/58 60/60/60
f 64/64/64 66/66/66 125/125/125
f 67/67/67 69/69/69 126/126/126
f 68/68/68 71/71/71 69/69/69
f 70/70/70 73/73/73 71/71/71
f 74/74/74 72/72/72 75/75/75
f 75/75/75 77/77/77 74/74/74
f 78/78/78 80/80/80 81/81/81
f 76/76/76 81/81/81 77/77/77
f 128/128/128 129/129/129 130/130/130
f 85/85/85 87/87/87 129/129/129
f 86/86/86 89/89/89 87/87/87
f 5/5/5 3/3/3 1/1/1
f 6/6/6 9/9/9 8/8/8
f 7/7/7 11/11/11 1/1/1
f 21/21/21 25/25/25 34/34/34
f 48/48/48 46/46/46 36/36/36
f 127/127/127 82/82/82 83/83/83
f 104/104/104 91/91/91 96/96/96
f 111/111/111 107/107/107 109/109/109
f 108/108/108 110/110/110 111/111/111
f 118/118/118 113/113/113 110/110/110
f 119/119/119 114/114/114 113/113/113
f 101/101/101 91/91/91 116/116/116
f 26/26/26 19/19/19 18/18/18

