mtllib material.mtl
usemtl Material-7024油漆.007
v 0.21510100 -0.06850000 -0.03975100
v 0.21432800 -0.06850100 -0.04041400
v 0.21510000 -0.06850000 -0.04025000
v 0.23909200 -0.09968100 0.02550300
v 0.23909200 -0.09968100 0.02550300
v 0.23909000 -0.10784500 0.00843100
v 0.23909000 -0.10784500 0.00843100
v 0.23909900 -0.09833300 -0.02700100
v 0.23909900 -0.09833300 -0.02700100
v 0.23909900 -0.09833300 -0.02700100
v 0.23909900 -0.09833300 -0.02700100
v 0.23909900 -0.09833300 -0.02700100
v 0.23909300 -0.09618500 0.02919300
v 0.23909300 -0.09618500 0.02919300
v 0.23906000 -0.07999400 -0.03855900
v 0.23906800 -0.07651900 -0.03943700
v 0.23901000 -0.09000200 -0.03401000
v 0.23887500 -0.09593300 -0.02944700
v 0.23872200 -0.10335300 -0.02017300
v 0.23894800 -0.10560100 -0.01558000
v 0.23901100 -0.10737700 -0.01063000
v 0.23907100 -0.10869000 -0.00194300
v 0.23910000 -0.06850000 -0.03975000
v 0.23892100 -0.10435500 0.01827600
v 0.23909500 -0.08781900 0.03528700
v 0.23909500 -0.08781900 0.03528700
v 0.23909600 -0.07805300 0.03908800
v 0.23910000 -0.06850000 0.03975000
v 0.23910000 -0.06850000 0.03975000
v 0.18402500 -0.07661700 -0.03940300
v 0.18198700 -0.07965300 -0.03867400
v 0.18198700 -0.06850000 -0.04025000
v 0.18400000 -0.08487100 -0.03677000
v 0.18198700 -0.09033900 -0.03381000
v 0.18198700 -0.09926800 -0.02595000
v 0.18400000 -0.09841200 -0.02693300
v 0.18400000 -0.10335800 -0.02012500
v 0.18400000 -0.09215800 -0.03256300
v 0.18198700 -0.10545100 -0.01596000
v 0.18400000 -0.10678000 -0.01243800
v 0.18198700 -0.10840900 -0.00522500
v 0.18398400 -0.10852800 0.00421400
v 0.18198700 -0.10835500 0.00562500
v 0.18400000 -0.10678000 0.01243800
v 0.18198700 -0.10514300 0.01665400
v 0.18400000 -0.10335800 0.02012500
v 0.18198700 -0.09872100 0.02658500
v 0.18198700 -0.08963900 0.03425200
v 0.18404700 -0.08467500 0.03685100
v 0.18198700 -0.07909600 0.03883000
v 0.18400000 -0.09841200 0.02693300
v 0.18400000 -0.09215800 0.03256300
v 0.18402400 -0.07672900 0.03938900
v 0.18223400 -0.06844300 0.04035400
v 0.21560300 -0.09598000 -0.02941300
v 0.21556300 -0.09976800 -0.02540300
v 0.21509000 -0.09879100 -0.02584800
v 0.21560700 -0.10345300 -0.02007400
v 0.21559800 -0.10565300 -0.01549900
v 0.21512500 -0.10389900 -0.01839500
v 0.21552300 -0.10736100 -0.01058300
v 0.21560600 -0.10839600 -0.00534100
v 0.21509500 -0.10714800 -0.00960700
v 0.21524000 -0.09303000 -0.03189500
v 0.21507700 -0.10870900 -0.00101800
v 0.21560300 -0.10872500 0.00146400
v 0.21558700 -0.10823200 0.00658100
v 0.21509200 -0.10728500 0.00906600
v 0.21571600 -0.10661200 0.01316100
v 0.21509400 -0.10450300 0.01798400
v 0.21519000 -0.09939600 0.02582000
v 0.21560800 -0.09606300 0.02933800
v 0.21507700 -0.09269700 0.03162400
v 0.21560400 -0.09213600 0.03261500
v 0.21558500 -0.08775000 0.03534900
v 0.21562900 -0.07332000 0.04000500
v 0.21560000 -0.06850000 0.04025000
v 0.21508700 -0.06850300 0.03975800
v 0.21559600 -0.10259700 0.02139200
v 0.21512900 -0.08329600 0.03746500
v 0.23906800 -0.07651900 -0.03943700
v 0.23852300 -0.07262100 -0.04008600
v 0.23910000 -0.06850000 -0.03975000
v 0.21270300 -0.07508400 0.03966900
v 0.21502700 -0.07792000 0.03912000
v 0.21448100 -0.06857500 0.04042000
v 0.21310000 -0.08156900 0.03806900
v 0.21512900 -0.08329600 0.03746500
v 0.21310000 -0.08765700 0.03539900
v 0.21462500 -0.09151500 0.03306100
v 0.21310000 -0.09811300 0.02726100
v 0.21519000 -0.09939600 0.02582000
v 0.21463400 -0.09636800 0.02910300
v 0.21310000 -0.09322200 0.03176300
v 0.21310000 -0.10219600 0.02201500
v 0.21509400 -0.10450300 0.01798400
v 0.21272100 -0.10532400 0.01599900
v 0.21464400 -0.10792700 0.00877500
v 0.21264700 -0.10755700 0.00907600
v 0.21310000 -0.10861300 0.00332400
v 0.21507700 -0.10870900 -0.00101800
v 0.21313100 -0.10860700 -0.00341400
v 0.21462800 -0.10814400 -0.00711500
v 0.21280700 -0.10766400 -0.00886200
v 0.21456700 -0.10630400 -0.01403900
v 0.21310000 -0.09811300 -0.02726100
v 0.21459200 -0.09663400 -0.02883900
v 0.21425900 -0.10229200 -0.02233600
v 0.21425900 -0.10229200 -0.02233600
v 0.21310000 -0.09322200 -0.03176300
v 0.21502000 -0.08916800 -0.03458400
v 0.21278300 -0.10552800 -0.01555100
v 0.21310000 -0.08765700 -0.03539900
v 0.21507300 -0.08376700 -0.03723400
v 0.21310000 -0.08156900 -0.03806900
v 0.21460700 -0.07643700 -0.03954100
v 0.21229400 -0.07515100 -0.03957900
v 0.21432800 -0.06850100 -0.04041400
v 0.23887500 -0.09593300 -0.02944700
v 0.21560300 -0.09598000 -0.02941300
v 0.21524000 -0.09303000 -0.03189500
v 0.23858700 -0.09323400 -0.03176000
v 0.21502000 -0.08916800 -0.03458400
v 0.23872200 -0.10335300 -0.02017300
v 0.21560700 -0.10345300 -0.02007400
v 0.23859600 -0.10059200 -0.02429600
v 0.23909900 -0.09833300 -0.02700100
v 0.21556300 -0.09976800 -0.02540300
v 0.23858100 -0.10841800 -0.00521000
v 0.21560600 -0.10839600 -0.00534100
v 0.23901100 -0.10737700 -0.01063000
v 0.21552300 -0.10736100 -0.01058300
v 0.21559800 -0.10565300 -0.01549900
v 0.23894800 -0.10560100 -0.01558000
v 0.23850100 -0.10868600 0.00291400
v 0.21560300 -0.10872500 0.00146400
v 0.21507700 -0.10870900 -0.00101800
v 0.23907100 -0.10869000 -0.00194300
v 0.21558700 -0.10823200 0.00658100
v 0.23858700 -0.10255000 0.02147400
v 0.21559600 -0.10259700 0.02139200
v 0.23892100 -0.10435500 0.01827600
v 0.23852500 -0.10649400 0.01336800
v 0.21571600 -0.10661200 0.01316100
v 0.23909000 -0.10784500 0.00843100
v 0.21509400 -0.10450300 0.01798400
v 0.23909300 -0.09618500 0.02919300
v 0.21560800 -0.09606300 0.02933800
v 0.21519000 -0.09939600 0.02582000
v 0.23850700 -0.09208300 0.03269000
v 0.21560400 -0.09213600 0.03261500
v 0.23909200 -0.09968100 0.02550300
v 0.23909500 -0.08781900 0.03528700
v 0.21558500 -0.08775000 0.03534900
v 0.23847100 -0.08320100 0.03752900
v 0.21512900 -0.08329600 0.03746500
v 0.23862200 -0.07372600 0.03994400
v 0.21562900 -0.07332000 0.04000500
v 0.21502700 -0.07792000 0.03912000
v 0.23909600 -0.07805300 0.03908800
v 0.23852100 -0.08532900 -0.03659700
v 0.21507300 -0.08376700 -0.03723400
v 0.23860000 -0.06850000 0.04025000
v 0.21560000 -0.06850000 0.04025000
v 0.23910000 -0.06850000 0.03975000
v 0.23860000 -0.06850000 0.04025000
v 0.23862200 -0.07372600 0.03994400
v 0.23909200 -0.09968100 0.02550300
v 0.23858700 -0.10255000 0.02147400
v 0.23892100 -0.10435500 0.01827600
v 0.23909500 -0.08781900 0.03528700
v 0.23909500 -0.08781900 0.03528700
v 0.23850700 -0.09208300 0.03269000
v 0.23909300 -0.09618500 0.02919300
v 0.23909000 -0.10784500 0.00843100
v 0.23909000 -0.10784500 0.00843100
v 0.23850100 -0.10868600 0.00291400
v 0.23907100 -0.10869000 -0.00194300
v 0.23858100 -0.10841800 -0.00521000
v 0.23901100 -0.10737700 -0.01063000
v 0.23901000 -0.09000200 -0.03401000
v 0.23901000 -0.09000200 -0.03401000
v 0.23852100 -0.08532900 -0.03659700
v 0.23906000 -0.07999400 -0.03855900
v 0.21510100 -0.06850000 -0.03975100
v 0.21509100 -0.07483100 -0.03931100
v 0.21432800 -0.06850100 -0.04041400
v 0.21502700 -0.07792000 0.03912000
v 0.21508700 -0.06850300 0.03975800
v 0.21448100 -0.06857500 0.04042000
v 0.21507700 -0.09269700 0.03162400
v 0.21462500 -0.09151500 0.03306100
v 0.21463400 -0.09636800 0.02910300
v 0.21519000 -0.09939600 0.02582000
v 0.21509400 -0.10450300 0.01798400
v 0.21464400 -0.10792700 0.00877500
v 0.21509200 -0.10728500 0.00906600
v 0.21507700 -0.10870900 -0.00101800
v 0.21507700 -0.10870900 -0.00101800
v 0.21509500 -0.10714800 -0.00960700
v 0.21462800 -0.10814400 -0.00711500
v 0.21456700 -0.10630400 -0.01403900
v 0.21512500 -0.10389900 -0.01839500
v 0.21509000 -0.09879100 -0.02584800
v 0.21425900 -0.10229200 -0.02233600
v 0.21459200 -0.09663400 -0.02883900
v 0.21502000 -0.08916800 -0.03458400
v 0.21524000 -0.09303000 -0.03189500
v 0.21460700 -0.07643700 -0.03954100
v 0.19204300 -0.10788200 -0.00439800
v 0.18828900 -0.10790000 -0.00120900
v 0.18929000 -0.10739200 -0.00358100
v 0.20394600 -0.10790000 -0.00443500
v 0.19202200 -0.10785200 0.00439100
v 0.18879200 -0.10752100 0.00333600
v 0.20392600 -0.10789600 0.00441400
v 0.20843700 -0.10752100 -0.00211800
v 0.20771100 -0.10786400 0.00138800
v 0.20648200 -0.10758400 -0.00452800
v 0.20694500 -0.10734700 0.00382300
v 0.19052400 -0.10740200 -0.00469900
v 0.19078300 -0.10784000 -0.00524400
v 0.20493800 -0.10752600 -0.00516100
v 0.19204300 -0.10788200 -0.00439800
v 0.20648200 -0.10758400 -0.00452800
v 0.18929000 -0.10739200 -0.00358100
v 0.18855000 -0.10787100 -0.00345900
v 0.19052400 -0.10740200 -0.00469900
v 0.18817400 -0.10740500 -0.00130200
v 0.18751900 -0.10769300 -0.00143300
v 0.19078300 -0.10784000 -0.00524400
v 0.18729800 -0.10801100 0.00011700
v 0.18773400 -0.10769200 0.00206900
v 0.18879200 -0.10752100 0.00333600
v 0.18828900 -0.10790000 -0.00120900
v 0.20844500 -0.10736400 0.00119500
v 0.20820200 -0.10780900 0.00286800
v 0.20694500 -0.10734700 0.00382300
v 0.20488700 -0.10744500 0.00464600
v 0.20392600 -0.10789600 0.00441400
v 0.20514300 -0.10799800 0.00529100
v 0.20896700 -0.10800400 -0.00015500
v 0.20843700 -0.10752100 -0.00211800
v 0.20771100 -0.10786400 0.00138800
v 0.20491900 -0.10746400 0.00517500
v 0.19056400 -0.10800200 0.00525800
v 0.19145800 -0.10738100 0.00492100
v 0.20488700 -0.10744500 0.00464600
v 0.19202200 -0.10785200 0.00439100
v 0.20392600 -0.10789600 0.00441400
v 0.19145800 -0.10738100 0.00492100
v 0.19056400 -0.10800200 0.00525800
v 0.18879200 -0.10752100 0.00333600
v 0.19202200 -0.10785200 0.00439100
v 0.19078300 -0.10784000 -0.00524400
v 0.18916500 -0.10821400 -0.00525400
v 0.20568200 -0.10809700 -0.00526100
v 0.20896400 -0.10806200 -0.00146700
v 0.20843500 -0.10820000 -0.00412100
v 0.20995500 -0.10788100 0.00075200
v 0.20568200 -0.10809700 -0.00526100
v 0.20471300 -0.10819900 -0.00625900
v 0.18916500 -0.10821400 -0.00525400
v 0.18916500 -0.10821400 -0.00525400
v 0.19195700 -0.10820000 -0.00626200
v 0.20799500 -0.10811200 0.00370900
v 0.20514300 -0.10799800 0.00529100
v 0.20522700 -0.10819300 0.00623100
v 0.19056400 -0.10800200 0.00525800
v 0.19078300 -0.10784000 -0.00524400
v 0.18785600 -0.10803300 -0.00245300
v 0.18621600 -0.10816700 -0.00058700
v 0.18621600 -0.10816700 -0.00058700
v 0.18729800 -0.10801100 0.00011700
v 0.18793800 -0.10804000 0.00263200
v 0.18799400 -0.10821500 0.00427100
v 0.19147600 -0.10820100 0.00623800
v 0.20758800 -0.10419900 -0.01456100
v 0.20873800 -0.10102300 -0.02134400
v 0.21278300 -0.10552800 -0.01555100
v 0.20651000 -0.10634300 -0.00560500
v 0.20654900 -0.10488300 -0.01181300
v 0.21280700 -0.10766400 -0.00886200
v 0.20995500 -0.10788100 0.00075200
v 0.20903300 -0.10739900 -0.00328100
v 0.21313100 -0.10860700 -0.00341400
v 0.20827700 -0.10707100 0.00421700
v 0.21264700 -0.10755700 0.00907600
v 0.20645400 -0.10634500 0.00561300
v 0.20658500 -0.10486900 0.01186300
v 0.21272100 -0.10532400 0.01599900
v 0.20667600 -0.10236000 0.01778100
v 0.20985000 -0.09597900 0.02802700
v 0.20822500 -0.09562800 0.02767000
v 0.20893000 -0.10065600 0.02199300
v 0.20660000 -0.07489900 -0.03771100
v 0.20660000 -0.06850000 -0.03825000
v 0.20985000 -0.07639900 -0.03844700
v 0.20660000 -0.08772700 -0.03306600
v 0.20660000 -0.08141400 -0.03600400
v 0.21087900 -0.08377800 -0.03644700
v 0.20660000 -0.09349400 -0.02895500
v 0.20901100 -0.09656400 -0.02702300
v 0.20660000 -0.09840300 -0.02385100
v 0.20660000 -0.10223100 -0.01803500
v 0.21147500 -0.06850000 -0.03975000
v 0.21229400 -0.07515100 -0.03957900
v 0.21310000 -0.09811300 -0.02726100
v 0.21310000 -0.09322200 -0.03176300
v 0.21432800 -0.06850100 -0.04041400
v 0.21310000 -0.08156900 -0.03806900
v 0.21310000 -0.08765700 -0.03539900
v 0.21425900 -0.10229200 -0.02233600
v 0.21310000 -0.10861300 0.00332400
v 0.20660000 -0.09840300 0.02385100
v 0.20822500 -0.08315200 0.03587300
v 0.20660000 -0.08141400 0.03600400
v 0.20660000 -0.08772700 0.03306600
v 0.20656900 -0.07525400 0.03764900
v 0.20660000 -0.09349400 0.02895500
v 0.21119600 -0.06849700 0.03973000
v 0.20660000 -0.06850000 0.03825000
v 0.21310000 -0.10219600 0.02201500
v 0.21310000 -0.09811300 0.02726100
v 0.21310000 -0.09322200 0.03176300
v 0.21147500 -0.08353000 0.03679900
v 0.21310000 -0.08765700 0.03539900
v 0.21270300 -0.07508400 0.03966900
v 0.21310000 -0.08156900 0.03806900
v 0.21448100 -0.06857500 0.04042000
v 0.23906000 -0.07999400 -0.03855900
v 0.21803800 -0.08018400 -0.03851700
v 0.22097500 -0.07635200 -0.03947700
v 0.23860000 -0.06850000 -0.04025000
v 0.23852300 -0.07262100 -0.04008600
v 0.21510000 -0.06850000 -0.04025000
v 0.23906800 -0.07651900 -0.03943700
v 0.21507300 -0.08376700 -0.03723400
v 0.23852100 -0.08532900 -0.03659700
v 0.18198700 -0.06850000 0.03975000
v 0.18198700 -0.07909600 0.03883000
v 0.18223400 -0.06844300 0.04035400
v 0.18198700 -0.06850000 -0.03975000
v 0.18198700 -0.07965300 -0.03867400
v 0.18198700 -0.06850000 -0.04025000
v 0.18198700 -0.09033900 -0.03381000
v 0.18198700 -0.08963900 0.03425200
v 0.18198700 -0.10514300 0.01665400
v 0.18198700 -0.09872100 0.02658500
v 0.18198700 -0.09926800 -0.02595000
v 0.18198700 -0.10835500 0.00562500
v 0.18198700 -0.10545100 -0.01596000
v 0.18198700 -0.10840900 -0.00522500
v 0.18725000 -0.08397500 0.03607000
v 0.18887500 -0.08377800 0.03561100
v 0.18839400 -0.07630800 0.03811000
v 0.18402400 -0.07672900 0.03938900
v 0.18551800 -0.07269500 0.03959600
v 0.18404700 -0.08467500 0.03685100
v 0.18725000 -0.10483600 0.01484100
v 0.18604200 -0.10747200 0.00725500
v 0.18887500 -0.10437300 0.01465200
v 0.18398400 -0.10852800 0.00421400
v 0.18709900 -0.10772300 0.00293400
v 0.18621600 -0.10816700 -0.00058700
v 0.18562500 -0.10529900 0.01503000
v 0.18725000 -0.10457000 -0.01547500
v 0.18871400 -0.10652800 -0.00772800
v 0.18493700 -0.10764500 -0.00803500
v 0.18887500 -0.10411100 -0.01527800
v 0.18398200 -0.10852800 -0.00422200
v 0.18751400 -0.10752700 -0.00348900
v 0.18562500 -0.10503000 -0.01567200
v 0.19050000 -0.07485500 0.03771800
v 0.19050000 -0.06850000 0.03825000
v 0.19050000 -0.08132400 0.03603600
v 0.19050000 -0.09333100 0.02909500
v 0.19050000 -0.08759400 0.03314300
v 0.19050000 -0.10207300 0.01832700
v 0.19050000 -0.09823100 0.02406500
v 0.18400000 -0.09215800 0.03256300
v 0.18400000 -0.09841200 0.02693300
v 0.19050000 -0.10475100 0.01220300
v 0.18553900 -0.06849700 0.03977600
v 0.19022500 -0.10628200 0.00600400
v 0.18223400 -0.06844300 0.04035400
v 0.18400000 -0.10335800 0.02012500
v 0.18400000 -0.10678000 0.01243800
v 0.19022600 -0.10628200 -0.00600000
v 0.19050000 -0.10475100 -0.01220300
v 0.19050000 -0.09823100 -0.02406500
v 0.19050000 -0.10207300 -0.01832700
v 0.19050000 -0.09333100 -0.02909500
v 0.18887500 -0.08315200 -0.03587300
v 0.19050000 -0.08132400 -0.03603600
v 0.19050000 -0.08759400 -0.03314300
v 0.19042800 -0.07523900 -0.03767400
v 0.18724600 -0.08332100 -0.03635400
v 0.18578300 -0.06849100 -0.03976800
v 0.19050000 -0.06850000 -0.03825000
v 0.18400000 -0.09841200 -0.02693300
v 0.18400000 -0.10678000 -0.01243800
v 0.18402500 -0.07661700 -0.03940300
v 0.18467200 -0.06861600 -0.04022700
v 0.18400000 -0.08487100 -0.03677000
v 0.18400000 -0.10335800 -0.02012500
v 0.18400000 -0.09215800 -0.03256300
v 0.20654900 -0.10488300 -0.01181300
v 0.20651000 -0.10634300 -0.00560500
v 0.19022600 -0.10628200 -0.00600000
v 0.20660000 -0.09840300 -0.02385100
v 0.20660000 -0.10223100 -0.01803500
v 0.19050000 -0.10207300 -0.01832700
v 0.19050000 -0.10475100 -0.01220300
v 0.20660000 -0.08772700 -0.03306600
v 0.20660000 -0.09349400 -0.02895500
v 0.19050000 -0.09333100 -0.02909500
v 0.20660000 -0.07489900 -0.03771100
v 0.20660000 -0.08141400 -0.03600400
v 0.19050000 -0.08132400 -0.03603600
v 0.20660000 -0.06850000 -0.03825000
v 0.19042800 -0.07523900 -0.03767400
v 0.19050000 -0.08759400 -0.03314300
v 0.19050000 -0.09823100 -0.02406500
v 0.20656900 -0.07525400 0.03764900
v 0.20660000 -0.06850000 0.03825000
v 0.19050000 -0.07485500 0.03771800
v 0.20660000 -0.08772700 0.03306600
v 0.20660000 -0.08141400 0.03600400
v 0.19050000 -0.08759400 0.03314300
v 0.19050000 -0.08132400 0.03603600
v 0.20660000 -0.09840300 0.02385100
v 0.20660000 -0.09349400 0.02895500
v 0.19050000 -0.09823100 0.02406500
v 0.20658500 -0.10486900 0.01186300
v 0.20667600 -0.10236000 0.01778100
v 0.19050000 -0.10475100 0.01220300
v 0.20645400 -0.10634500 0.00561300
v 0.19022500 -0.10628200 0.00600400
v 0.19050000 -0.10207300 0.01832700
v 0.19050000 -0.09333100 0.02909500
v 0.19195700 -0.10820000 -0.00626200
v 0.19022600 -0.10628200 -0.00600000
v 0.19211700 -0.10620400 -0.00644500
v 0.18916500 -0.10821400 -0.00525400
v 0.18621600 -0.10816700 -0.00058700
v 0.18751400 -0.10752700 -0.00348900
v 0.20471300 -0.10819900 -0.00625900
v 0.19195700 -0.10820000 -0.00626200
v 0.19211700 -0.10620400 -0.00644500
v 0.20843500 -0.10820000 -0.00412100
v 0.20903300 -0.10739900 -0.00328100
v 0.20995500 -0.10788100 0.00075200
v 0.20651000 -0.10634300 -0.00560500
v 0.20441000 -0.10620600 -0.00643000
v 0.20471300 -0.10819900 -0.00625900
v 0.18799400 -0.10821500 0.00427100
v 0.18709900 -0.10772300 0.00293400
v 0.18621600 -0.10816700 -0.00058700
v 0.19022500 -0.10628200 0.00600400
v 0.19211700 -0.10620400 0.00644500
v 0.19147600 -0.10820100 0.00623800
v 0.20441800 -0.10620600 0.00643000
v 0.19211700 -0.10620400 0.00644500
v 0.19211700 -0.10620400 0.00644500
v 0.20522700 -0.10819300 0.00623100
v 0.20522700 -0.10819300 0.00623100
v 0.19147600 -0.10820100 0.00623800
v 0.20827700 -0.10707100 0.00421700
v 0.20645400 -0.10634500 0.00561300
v 0.20522700 -0.10819300 0.00623100
v 0.20441800 -0.10620600 0.00643000
v 0.20799500 -0.10811200 0.00370900
v 0.20995500 -0.10788100 0.00075200
v 0.21147500 -0.06850000 -0.03975000
v 0.21510100 -0.06850000 -0.03975100
v 0.21510100 -0.06850000 -0.03975100
v 0.21510100 -0.06850000 -0.03975100
v 0.21510100 -0.06850000 -0.03975100
v 0.21432800 -0.06850100 -0.04041400
v 0.21432800 -0.06850100 -0.04041400
v 0.23910000 -0.06850000 -0.03975000
v 0.23860000 -0.06850000 -0.04025000
v 0.23860000 -0.06850000 -0.04025000
v 0.21510000 -0.06850000 -0.04025000
v 0.21510000 -0.06850000 -0.04025000
v 0.23910000 -0.03177600 0.01521200
v 0.23910000 -0.03728400 -0.02461000
v 0.23910000 -0.03177600 -0.01521200
v 0.23910000 -0.02875500 -0.00062600
v 0.23910000 -0.04083800 0.02854600
v 0.23910000 -0.04582100 -0.03264500
v 0.23910000 -0.06850000 0.03975000
v 0.23910000 -0.06850000 -0.03975000
v 0.23910000 -0.05669600 -0.03795700
v 0.23910000 -0.05328800 0.03672400
v 0.18912600 -0.06489000 0.03958600
v 0.18553900 -0.06849700 0.03977600
v 0.22494500 -0.06538800 0.03964400
v 0.19642300 -0.06132300 0.03909900
v 0.22482200 -0.06138800 0.03910900
v 0.22491400 -0.06545500 -0.03964400
v 0.18912600 -0.06509100 -0.03960400
v 0.19626500 -0.06166200 -0.03915700
v 0.22433900 -0.06143500 -0.03913300
v 0.18578300 -0.06849100 -0.03976800
v 0.18578300 -0.06849100 -0.03976800
v 0.18578300 -0.06849100 -0.03976800
v 0.21508700 -0.06850300 0.03975800
v 0.23910000 -0.06850000 0.03975000
v 0.21119600 -0.06849700 0.03973000
v 0.23910000 -0.05328800 0.03672400
v 0.18198700 -0.05386800 0.03695900
v 0.23910000 -0.04083800 0.02854600
v 0.23910000 -0.03177600 0.01521200
v 0.18198700 -0.04039300 0.02810700
v 0.18198700 -0.06850000 0.03975000
v 0.18198700 -0.02875000 -0.00000000
v 0.18198700 -0.03154100 0.01463200
v 0.23910000 -0.02875500 -0.00062600
v 0.23910000 -0.03177600 -0.01521200
v 0.18198700 -0.03154100 -0.01463200
v 0.23910000 -0.04582100 -0.03264500
v 0.18198700 -0.04039300 -0.02810700
v 0.23910000 -0.03728400 -0.02461000
v 0.23910000 -0.06850000 -0.03975000
v 0.23910000 -0.06850000 -0.03975000
v 0.23910000 -0.05669600 -0.03795700
v 0.18198700 -0.05386800 -0.03695900
v 0.21147500 -0.06850000 -0.03975000
v 0.21510100 -0.06850000 -0.03975100
v 0.21510100 -0.06850000 -0.03975100
v 0.18198700 -0.06850000 -0.03975000
v 0.18198700 -0.03154100 -0.01463200
v 0.18198700 -0.03154100 0.01463200
v 0.18198700 -0.02875000 -0.00000000
v 0.18198700 -0.04039300 -0.02810700
v 0.18198700 -0.04039300 0.02810700
v 0.18198700 -0.06850000 -0.03975000
v 0.18198700 -0.06850000 0.03975000
v 0.18198700 -0.05386800 0.03695900
v 0.18198700 -0.05386800 -0.03695900
v 0.20660000 -0.06850000 0.03825000
v 0.21119600 -0.06849700 0.03973000
v 0.19050000 -0.06850000 0.03825000
v 0.18553900 -0.06849700 0.03977600
v 0.21508700 -0.06850300 0.03975800
v 0.21508700 -0.06850300 0.03975800
v 0.21560000 -0.06850000 0.04025000
v 0.23860000 -0.06850000 0.04025000
v 0.23860000 -0.06850000 0.04025000
v 0.23910000 -0.06850000 0.03975000
v 0.21448100 -0.06857500 0.04042000
v 0.21508700 -0.06850300 0.03975800
v 0.21119600 -0.06849700 0.03973000
v 0.18223400 -0.06844300 0.04035400
v 0.18553900 -0.06849700 0.03977600
v 0.18198700 -0.06850000 0.03975000
v 0.18467200 -0.06861600 -0.04022700
v 0.18467200 -0.06861600 -0.04022700
v 0.18198700 -0.06850000 -0.03975000
v 0.18578300 -0.06849100 -0.03976800
v 0.19050000 -0.06850000 -0.03825000
v 0.21147500 -0.06850000 -0.03975000
v 0.20660000 -0.06850000 -0.03825000
v 0.18578300 -0.06849100 -0.03976800
v 0.18467200 -0.06861600 -0.04022700
v 0.18398200 -0.10852800 -0.00422200
v 0.21502700 -0.07792000 0.03912000
v 0.23860000 -0.06850000 -0.04025000
v 0.23901000 -0.09000200 -0.03401000
v 0.23909600 -0.07805300 0.03908800
v 0.23909600 -0.07805300 0.03908800
v 0.23847100 -0.08320100 0.03752900
v 0.23852500 -0.10649400 0.01336800
v 0.23872200 -0.10335300 -0.02017300
v 0.23859600 -0.10059200 -0.02429600
v 0.23909900 -0.09833300 -0.02700100
v 0.23887500 -0.09593300 -0.02944700
v 0.23858700 -0.09323400 -0.03176000
v 0.21512900 -0.08329600 0.03746500
v 0.21507300 -0.08376700 -0.03723400
v 0.20394600 -0.10790000 -0.00443500
v 0.19204300 -0.10788200 -0.00439800
v 0.20491900 -0.10746400 0.00517500
v 0.20514300 -0.10799800 0.00529100
v 0.18773400 -0.10769200 0.00206900
v 0.20493800 -0.10752600 -0.00516100
v 0.19050000 -0.06850000 -0.03825000
v 0.19050000 -0.06850000 0.03825000
v 0.20441000 -0.10620600 -0.00643000
v 0.18198700 -0.06850000 -0.04025000
vn 0.00010000 -1.00000000 -0.00000000
vn 0.00010000 -1.00000000 -0.00000000
vn 0.00010000 -1.00000000 -0.00000000
vn 1.00000000 0.00010000 -0.00000000
vn 1.00000000 -0.00000000 0.00000000
vn 1.00000000 -0.00000000 0.00000000
vn 1.00000000 0.00010000 -0.00000000
vn 1.00000000 -0.00000000 0.00000000
vn 1.00000000 0.00010000 -0.00000000
vn 1.00000000 -0.00040000 0.00010000
vn 1.00000000 -0.00010000 0.00010000
vn 1.00000000 -0.00010000 0.00000000
vn 1.00000000 0.00010000 -0.00000000
vn 1.00000000 -0.00040000 0.00010000
vn 1.00000000 -0.00000000 0.00000000
vn 1.00000000 -0.00000000 0.00000000
vn 1.00000000 -0.00000000 0.00000000
vn 1.00000000 -0.00000000 0.00000000
vn 1.00000000 -0.00000000 0.00000000
vn 1.00000000 -0.00000000 0.00000000
vn 1.00000000 -0.00000000 0.00000000
vn 1.00000000 -0.00000000 0.00000000
vn 1.00000000 -0.00000000 0.00000000
vn 1.00000000 0.00010000 -0.00000000
vn 1.00000000 -0.00040000 0.00010000
vn 1.00000000 -0.00010000 0.00010000
vn 1.00000000 -0.00010000 0.00010000
vn 1.00000000 -0.00010000 0.00010000
vn 1.00000000 -0.00000000 0.00000000
vn -0.00000000 -0.20180000 -0.97940000
vn -0.00000000 -0.27710000 -0.96080000
vn -0.00000000 -0.00000000 -1.00000000
vn -0.00000000 -0.40670000 -0.91350000
vn 0.00000000 -0.54260000 -0.84000000
vn 0.00000000 -0.76440000 -0.64470000
vn -0.00000000 -0.74310000 -0.66910000
vn -0.00000000 -0.86600000 -0.50000000
vn -0.00000000 -0.58780000 -0.80900000
vn 0.00000000 -0.91800000 -0.39650000
vn 0.00000000 -0.95110000 -0.30900000
vn -0.00000000 -0.99150000 -0.12980000
vn -0.00000000 -0.99450000 0.10470000
vn -0.00000000 -0.99020000 0.13980000
vn 0.00000000 -0.95110000 0.30900000
vn -0.00000000 -0.91040000 0.41380000
vn -0.00000000 -0.86600000 0.50000000
vn 0.00000000 -0.75080000 0.66050000
vn -0.00000000 -0.52520000 0.85100000
vn -0.00000000 -0.40190000 0.91570000
vn -0.00000000 -0.26330000 0.96470000
vn -0.00000000 -0.74310000 0.66910000
vn -0.00000000 -0.58780000 0.80900000
vn -0.00000000 -0.20450000 0.97890000
vn -0.00000000 0.00170000 1.00000000
vn -0.70710000 -0.48270000 -0.51680000
vn -0.70670000 -0.54910000 -0.44620000
vn -0.70640000 -0.53850000 -0.45940000
vn -0.70660000 -0.61360000 -0.35240000
vn -0.70700000 -0.65270000 -0.27220000
vn -0.70590000 -0.62860000 -0.32650000
vn -0.70640000 -0.68300000 -0.18580000
vn -0.70710000 -0.70090000 -0.09390000
vn -0.70640000 -0.68690000 -0.17070000
vn -0.70650000 -0.43130000 -0.56110000
vn -0.70560000 -0.70840000 -0.01780000
vn -0.70710000 -0.70660000 0.02570000
vn -0.70670000 -0.69790000 0.11570000
vn -0.70630000 -0.68930000 0.16110000
vn -0.70680000 -0.66870000 0.23100000
vn -0.70590000 -0.63360000 0.31660000
vn -0.70640000 -0.54320000 0.45380000
vn -0.70710000 -0.48410000 0.51530000
vn -0.70600000 -0.43050000 0.56240000
vn -0.70680000 -0.41500000 0.57290000
vn -0.70700000 -0.33820000 0.62120000
vn -0.70690000 -0.08470000 0.70220000
vn -0.70710000 -0.00000000 0.70710000
vn -0.70650000 -0.00030000 0.70770000
vn -0.70700000 -0.59900000 0.37580000
vn -0.70590000 -0.26030000 0.65880000
vn 0.70650000 -0.14110000 -0.69350000
vn 0.70670000 -0.07250000 -0.70380000
vn 0.70710000 0.00000000 -0.70710000
vn 0.00000000 -0.16370000 0.98650000
vn -0.00000000 -0.23390000 0.97230000
vn 0.00000000 -0.00180000 1.00000000
vn -0.00000000 -0.32470000 0.94580000
vn -0.00000000 -0.36740000 0.93010000
vn 0.00000000 -0.47590000 0.87950000
vn -0.00000000 -0.57130000 0.82070000
vn -0.00000000 -0.73570000 0.67730000
vn -0.00000000 -0.76740000 0.64120000
vn -0.00000000 -0.69160000 0.72230000
vn 0.00000000 -0.61420000 0.78910000
vn -0.00000000 -0.83720000 0.54690000
vn 0.00000000 -0.89470000 0.44670000
vn -0.00000000 -0.91720000 0.39850000
vn 0.00000000 -0.97610000 0.21720000
vn -0.00000000 -0.97400000 0.22660000
vn 0.00000000 -0.99660000 0.08260000
vn 0.00000000 -0.99970000 -0.02530000
vn 0.00000000 -0.99640000 -0.08480000
vn -0.00000000 -0.98430000 -0.17670000
vn 0.00000000 -0.97530000 -0.22090000
vn 0.00000000 -0.93740000 -0.34810000
vn 0.00000000 -0.73570000 -0.67730000
vn 0.00000000 -0.69830000 -0.71580000
vn 0.00000000 -0.83420000 -0.55150000
vn -0.00000000 -0.83420000 -0.55140000
vn 0.00000000 -0.61420000 -0.78910000
vn 0.00000000 -0.51320000 -0.85820000
vn -0.00000000 -0.92190000 -0.38740000
vn 0.00000000 -0.47600000 -0.87950000
vn -0.00000000 -0.37940000 -0.92520000
vn 0.00000000 -0.32470000 -0.94580000
vn 0.00000000 -0.19670000 -0.98050000
vn 0.00000000 -0.16580000 -0.98620000
vn -0.00000000 0.00010000 -1.00000000
vn 0.00000000 -0.68170000 -0.73170000
vn -0.00000000 -0.68270000 -0.73070000
vn -0.00000000 -0.60960000 -0.79270000
vn 0.00000000 -0.61440000 -0.78900000
vn 0.00000000 -0.51300000 -0.85840000
vn 0.00000000 -0.86550000 -0.50090000
vn 0.00000000 -0.86720000 -0.49800000
vn -0.00000000 -0.79730000 -0.60360000
vn 0.00000000 -0.74140000 -0.67110000
vn 0.00000000 -0.77610000 -0.63060000
vn -0.00000000 -0.99160000 -0.12950000
vn -0.00010000 -0.99120000 -0.13260000
vn -0.00000000 -0.96460000 -0.26380000
vn 0.00000000 -0.96490000 -0.26280000
vn 0.00000000 -0.92290000 -0.38500000
vn 0.00000000 -0.92200000 -0.38720000
vn 0.00000000 -0.99740000 0.07240000
vn 0.00000000 -0.99930000 0.03640000
vn -0.00000000 -0.99970000 -0.02540000
vn 0.00000000 -0.99880000 -0.04830000
vn -0.00000000 -0.98660000 0.16340000
vn -0.00000000 -0.84580000 0.53350000
vn 0.00000000 -0.84710000 0.53150000
vn -0.00000000 -0.89090000 0.45410000
vn 0.00000000 -0.94330000 0.33190000
vn 0.00000000 -0.94520000 0.32640000
vn 0.00010000 -0.97780000 0.20950000
vn 0.00000000 -0.89460000 0.44690000
vn 0.00000000 -0.68810000 0.72560000
vn 0.00000000 -0.68470000 0.72880000
vn 0.00000000 -0.76730000 0.64130000
vn 0.00000000 -0.58510000 0.81100000
vn -0.00000000 -0.58680000 0.80970000
vn -0.00000000 -0.77410000 0.63310000
vn -0.00000000 -0.48020000 0.87710000
vn -0.00010000 -0.47820000 0.87820000
vn 0.00000000 -0.36460000 0.93110000
vn -0.00000000 -0.36720000 0.93010000
vn 0.00010000 -0.12970000 0.99160000
vn 0.00000000 -0.11960000 0.99280000
vn -0.00000000 -0.23420000 0.97220000
vn -0.00000000 -0.23750000 0.97140000
vn -0.00000000 -0.41790000 -0.90850000
vn -0.00000000 -0.37940000 -0.92520000
vn 0.00000000 -0.00000000 1.00000000
vn 0.00000000 -0.00000000 1.00000000
vn 0.70710000 0.00000000 0.70710000
vn 0.70710000 0.00000000 0.70710000
vn 0.70700000 -0.09180000 0.70130000
vn 0.70650000 -0.54810000 0.44770000
vn 0.70710000 -0.59810000 0.37710000
vn 0.70630000 -0.63070000 0.32150000
vn 0.70580000 -0.34020000 0.62140000
vn 0.70580000 -0.34010000 0.62140000
vn 0.70680000 -0.41380000 0.57370000
vn 0.70630000 -0.48710000 0.51360000
vn 0.70560000 -0.69280000 0.14860000
vn 0.70560000 -0.69290000 0.14860000
vn 0.70710000 -0.70520000 0.05110000
vn 0.70580000 -0.70760000 -0.03430000
vn 0.70720000 -0.70110000 -0.09160000
vn 0.70650000 -0.68260000 -0.18660000
vn 0.70620000 -0.37820000 -0.59850000
vn 0.70620000 -0.37830000 -0.59850000
vn 0.70700000 -0.29550000 -0.64250000
vn 0.70340000 -0.20350000 -0.68110000
vn 0.70710000 -0.00000000 -0.70720000
vn 0.70590000 -0.11270000 -0.69930000
vn 0.70690000 0.00020000 -0.70730000
vn 0.70480000 -0.16590000 0.68970000
vn 0.70660000 -0.00030000 0.70760000
vn 0.70600000 -0.00110000 0.70820000
vn 0.70600000 -0.43050000 0.56230000
vn 0.70670000 -0.40430000 0.58070000
vn 0.70650000 -0.48940000 0.51110000
vn 0.70730000 -0.54260000 0.45300000
vn 0.70550000 -0.63400000 0.31670000
vn 0.70570000 -0.69160000 0.15390000
vn 0.70650000 -0.68920000 0.16110000
vn 0.70550000 -0.70850000 -0.01780000
vn 0.70560000 -0.70840000 -0.01780000
vn 0.70650000 -0.68680000 -0.17080000
vn 0.70670000 -0.69640000 -0.12500000
vn 0.70660000 -0.66330000 -0.24640000
vn 0.70580000 -0.62860000 -0.32670000
vn 0.70660000 -0.53820000 -0.45940000
vn 0.70650000 -0.59040000 -0.39020000
vn 0.70690000 -0.49390000 -0.50640000
vn 0.70580000 -0.36340000 -0.60810000
vn 0.70630000 -0.43130000 -0.56140000
vn 0.70630000 -0.13920000 -0.69410000
vn 0.00000000 -1.00000000 -0.00000000
vn 0.00000000 -1.00000000 -0.00000000
vn 0.00000000 -1.00000000 -0.00000000
vn 0.00000000 -1.00000000 -0.00000000
vn 0.00000000 -1.00000000 -0.00000000
vn 0.00000000 -1.00000000 -0.00000000
vn 0.00000000 -1.00000000 -0.00000000
vn 0.00000000 -1.00000000 -0.00000000
vn 0.00000000 -1.00000000 -0.00000000
vn 0.00000000 -1.00000000 -0.00000000
vn 0.00000000 -1.00000000 -0.00000000
vn 0.00000000 -0.90620000 -0.42280000
vn 0.00000000 -0.55200000 0.83390000
vn -0.00000000 -0.89210000 0.45190000
vn 0.00000000 -0.05820000 -0.99830000
vn 0.00000000 -0.64710000 -0.76240000
vn -0.04220000 -0.99910000 -0.00210000
vn 0.77490000 -0.08230000 0.62670000
vn 0.15100000 -0.91570000 0.37240000
vn -0.38560000 -0.91620000 -0.10900000
vn 0.85900000 -0.46070000 0.22310000
vn 0.36080000 -0.00980000 0.93260000
vn 0.99310000 0.11570000 -0.01960000
vn 0.24930000 -0.96340000 -0.09850000
vn -0.95860000 -0.01810000 0.28410000
vn -0.95010000 -0.10280000 -0.29450000
vn -0.23270000 -0.97140000 -0.04850000
vn -0.84750000 -0.18890000 -0.49610000
vn -0.21340000 -0.95650000 -0.19900000
vn 0.06350000 -0.98110000 0.18260000
vn 0.13810000 -0.09920000 0.98540000
vn -0.33440000 0.15790000 -0.92910000
vn -0.99290000 0.11280000 0.03660000
vn 0.12270000 -0.99020000 -0.06690000
vn 0.88250000 -0.36080000 0.30170000
vn 0.00000000 -0.88230000 -0.47070000
vn -0.00000000 -0.12730000 -0.99190000
vn 0.00000000 -0.99920000 0.04060000
vn 0.00000000 -0.84010000 0.54240000
vn 0.00000000 -0.17530000 0.98450000
vn -0.00000000 -0.03920000 0.99920000
vn 0.06380000 -0.97330000 -0.22040000
vn 0.43920000 0.12930000 -0.88900000
vn 0.28930000 -0.94380000 -0.16010000
vn -0.30350000 -0.31600000 0.89890000
vn 0.00000000 -0.00000000 1.00000000
vn 0.00000000 -0.00000000 1.00000000
vn 0.00000000 -0.00000000 1.00000000
vn 0.00000000 -1.00000000 -0.00000000
vn 0.00000000 -1.00000000 -0.00000000
vn 0.00000000 -1.00000000 -0.00000000
vn 0.00000000 -1.00000000 -0.00000000
vn 0.00000000 -1.00000000 -0.00000000
vn -0.00010000 -1.00000000 -0.00000000
vn 0.00000000 -1.00000000 -0.00000000
vn 0.00000000 -1.00000000 -0.00000000
vn 0.00000000 -1.00000000 -0.00000000
vn 0.00000000 -1.00000000 -0.00000000
vn 0.00000000 -1.00000000 -0.00000000
vn 0.00000000 -1.00000000 -0.00000000
vn 0.00000000 -1.00000000 -0.00000000
vn 0.00000000 -1.00000000 -0.00000000
vn 0.00000000 -1.00000000 -0.00000000
vn -0.00010000 -1.00000000 -0.00000000
vn 0.00000000 -1.00000000 -0.00000000
vn 0.00000000 -1.00000000 -0.00000000
vn 0.00000000 -1.00000000 -0.00000000
vn 0.00000000 -1.00000000 -0.00000000
vn -0.29410000 -0.88490000 -0.36120000
vn -0.29420000 -0.79910000 -0.52430000
vn -0.29410000 -0.88130000 -0.37000000
vn -0.29380000 -0.94550000 -0.14080000
vn -0.29390000 -0.90920000 -0.29490000
vn -0.29430000 -0.93210000 -0.21100000
vn -0.29390000 -0.95570000 0.01820000
vn -0.29380000 -0.95250000 -0.08040000
vn -0.29410000 -0.95230000 -0.08110000
vn -0.29390000 -0.95020000 0.10360000
vn -0.29430000 -0.93090000 0.21640000
vn -0.29360000 -0.94550000 0.14120000
vn -0.29390000 -0.90880000 0.29630000
vn -0.29410000 -0.87670000 0.38080000
vn -0.29430000 -0.84630000 0.44390000
vn -0.29410000 -0.66910000 0.68250000
vn -0.29410000 -0.66910000 0.68250000
vn -0.29420000 -0.78890000 0.53960000
vn -0.29410000 -0.15990000 -0.94230000
vn -0.29410000 0.00000000 -0.95580000
vn -0.29410000 -0.19230000 -0.93620000
vn -0.29410000 -0.48040000 -0.82630000
vn -0.29410000 -0.32270000 -0.89960000
vn -0.29440000 -0.36970000 -0.88130000
vn -0.29410000 -0.62450000 -0.72350000
vn -0.29430000 -0.68840000 -0.66290000
vn -0.29410000 -0.74720000 -0.59600000
vn -0.29410000 -0.84290000 -0.45070000
vn -0.29410000 0.00000000 -0.95580000
vn -0.29330000 -0.15810000 -0.94290000
vn -0.29410000 -0.70320000 -0.64730000
vn -0.29410000 -0.58710000 -0.75420000
vn -0.29470000 0.00040000 -0.95560000
vn -0.29410000 -0.31030000 -0.90400000
vn -0.29410000 -0.45490000 -0.84060000
vn -0.29400000 -0.79740000 -0.52700000
vn -0.29410000 -0.95250000 0.07890000
vn -0.29410000 -0.74720000 0.59600000
vn -0.29410000 -0.36140000 0.88480000
vn -0.29410000 -0.32270000 0.89970000
vn -0.29410000 -0.48040000 0.82620000
vn -0.29400000 -0.16910000 0.94070000
vn -0.29410000 -0.62450000 0.72350000
vn -0.29390000 0.00030000 0.95580000
vn -0.29410000 0.00000000 0.95580000
vn -0.29410000 -0.80010000 0.52280000
vn -0.29410000 -0.70320000 0.64730000
vn -0.29410000 -0.58710000 0.75420000
vn -0.29410000 -0.36140000 0.88480000
vn -0.29410000 -0.45490000 0.84060000
vn -0.29350000 -0.15670000 0.94300000
vn -0.29410000 -0.31030000 0.90400000
vn -0.29490000 -0.00140000 0.95550000
vn -0.00000000 -0.28570000 -0.95830000
vn 0.00000000 -0.29030000 -0.95690000
vn -0.00000000 -0.19510000 -0.98080000
vn -0.00000000 -0.00000000 -1.00000000
vn 0.00000000 -0.10230000 -0.99480000
vn -0.00000000 -0.00000000 -1.00000000
vn -0.00000000 -0.19920000 -0.98000000
vn -0.00000000 -0.37930000 -0.92530000
vn -0.00000000 -0.41760000 -0.90860000
vn -1.00000000 0.00000000 -0.00000000
vn -1.00000000 0.00000000 -0.00000000
vn -1.00000000 0.00000000 -0.00000000
vn -1.00000000 0.00000000 -0.00000000
vn -1.00000000 0.00000000 -0.00000000
vn -1.00000000 0.00000000 -0.00000000
vn -1.00000000 0.00000000 -0.00000000
vn -1.00000000 0.00000000 -0.00000000
vn -1.00000000 0.00000000 -0.00000000
vn -1.00000000 0.00000000 -0.00000000
vn -1.00000000 0.00000000 -0.00000000
vn -1.00000000 0.00000000 -0.00000000
vn -1.00000000 0.00000000 -0.00000000
vn -1.00000000 0.00000000 -0.00000000
vn 0.29410000 -0.37690000 0.87830000
vn 0.29410000 -0.37690000 0.87830000
vn 0.29410000 -0.19240000 0.93620000
vn 0.29410000 -0.19530000 0.93560000
vn 0.29390000 -0.10080000 0.95050000
vn 0.29400000 -0.38460000 0.87500000
vn 0.29410000 -0.88480000 0.36140000
vn 0.29400000 -0.93970000 0.17450000
vn 0.29410000 -0.88480000 0.36140000
vn 0.29410000 -0.95050000 0.10010000
vn 0.29390000 -0.95320000 0.07130000
vn 0.29350000 -0.95590000 -0.01400000
vn 0.29410000 -0.88480000 0.36140000
vn 0.29410000 -0.87830000 -0.37690000
vn 0.29400000 -0.93660000 -0.19040000
vn 0.29410000 -0.93630000 -0.19200000
vn 0.29410000 -0.87840000 -0.37680000
vn 0.29410000 -0.95050000 -0.10030000
vn 0.29400000 -0.95200000 -0.08530000
vn 0.29410000 -0.87840000 -0.37680000
vn 0.29410000 -0.15880000 0.94250000
vn 0.29410000 -0.00000000 0.95580000
vn 0.29410000 -0.32040000 0.90050000
vn 0.29410000 -0.62050000 0.72700000
vn 0.29410000 -0.47710000 0.82820000
vn 0.29410000 -0.83890000 0.45790000
vn 0.29410000 -0.74290000 0.60130000
vn 0.29410000 -0.56180000 0.77330000
vn 0.29410000 -0.71030000 0.63950000
vn 0.29410000 -0.90580000 0.30490000
vn 0.29410000 0.00010000 0.95580000
vn 0.29430000 -0.94390000 0.15000000
vn 0.29530000 0.00190000 0.95540000
vn 0.29410000 -0.82770000 0.47790000
vn 0.29410000 -0.90900000 0.29530000
vn 0.29430000 -0.94390000 -0.14990000
vn 0.29410000 -0.90580000 -0.30490000
vn 0.29410000 -0.74290000 -0.60130000
vn 0.29410000 -0.83890000 -0.45800000
vn 0.29410000 -0.62050000 -0.72700000
vn 0.29410000 -0.36140000 -0.88480000
vn 0.29410000 -0.32040000 -0.90050000
vn 0.29410000 -0.47710000 -0.82820000
vn 0.29400000 -0.16850000 -0.94080000
vn 0.29410000 -0.36070000 -0.88510000
vn 0.29380000 0.00050000 -0.95590000
vn 0.29410000 0.00000000 -0.95580000
vn 0.29410000 -0.71030000 -0.63950000
vn 0.29410000 -0.90900000 -0.29540000
vn 0.29430000 -0.19260000 -0.93610000
vn 0.29290000 -0.00250000 -0.95610000
vn 0.29410000 -0.38870000 -0.87310000
vn 0.29410000 -0.82770000 -0.47790000
vn 0.29410000 -0.56180000 -0.77320000
vn -0.00010000 -0.95110000 -0.30880000
vn -0.00020000 -0.98920000 -0.14650000
vn 0.00020000 -0.98760000 -0.15680000
vn -0.00010000 -0.78180000 -0.62350000
vn -0.00010000 -0.88190000 -0.47150000
vn 0.00010000 -0.87770000 -0.47910000
vn 0.00010000 -0.94770000 -0.31910000
vn 0.00000000 -0.50270000 -0.86450000
vn 0.00000000 -0.65340000 -0.75700000
vn 0.00010000 -0.64920000 -0.76060000
vn 0.00010000 -0.16730000 -0.98590000
vn -0.00000000 -0.33760000 -0.94130000
vn 0.00000000 -0.33520000 -0.94210000
vn -0.00000000 -0.00000000 -1.00000000
vn 0.00000000 -0.17600000 -0.98440000
vn -0.00000000 -0.49920000 -0.86650000
vn 0.00010000 -0.77730000 -0.62910000
vn 0.00000000 -0.17640000 0.98430000
vn 0.00000000 -0.00000000 1.00000000
vn -0.00000000 -0.16620000 0.98610000
vn 0.00000000 -0.50270000 0.86450000
vn -0.00000000 -0.33760000 0.94130000
vn -0.00000000 -0.49920000 0.86650000
vn -0.00000000 -0.33530000 0.94210000
vn -0.00010000 -0.78180000 0.62360000
vn -0.00000000 -0.65340000 0.75700000
vn 0.00000000 -0.77730000 0.62920000
vn -0.00010000 -0.95070000 0.31010000
vn -0.00010000 -0.88530000 0.46500000
vn -0.00010000 -0.94780000 0.31900000
vn -0.00010000 -0.98920000 0.14670000
vn 0.00020000 -0.98760000 0.15690000
vn 0.00010000 -0.87770000 0.47920000
vn 0.00010000 -0.64920000 0.76060000
vn -0.13200000 -0.08640000 -0.98750000
vn -0.40650000 -0.07960000 -0.91020000
vn -0.10690000 -0.08670000 -0.99050000
vn -0.57290000 -0.07140000 -0.81650000
vn -0.99630000 -0.00750000 -0.08540000
vn -0.83950000 -0.04730000 -0.54140000
vn 0.00000000 -0.08720000 -0.99620000
vn 0.00000000 -0.08720000 -0.99620000
vn 0.00000000 -0.08720000 -0.99620000
vn 0.77180000 -0.05540000 -0.63340000
vn 0.86870000 -0.04310000 -0.49340000
vn 0.99370000 0.00980000 0.11180000
vn 0.49120000 -0.07590000 -0.86770000
vn 0.15250000 -0.08610000 -0.98450000
vn 0.19970000 -0.08540000 -0.97610000
vn -0.74850000 -0.05780000 0.66060000
vn -0.89280000 -0.03930000 0.44880000
vn -0.99620000 0.00760000 -0.08680000
vn -0.40800000 -0.07960000 0.90950000
vn -0.10680000 -0.08670000 0.99050000
vn -0.20800000 -0.08530000 0.97440000
vn -0.00000000 -0.08710000 0.99620000
vn -0.00000000 -0.08720000 0.99620000
vn -0.00000000 -0.08710000 0.99620000
vn -0.00000000 -0.08720000 0.99620000
vn -0.00000000 -0.08710000 0.99620000
vn -0.00000000 -0.08720000 0.99620000
vn 0.76160000 -0.05650000 0.64550000
vn 0.48430000 -0.07620000 0.87160000
vn 0.27860000 -0.08370000 0.95670000
vn 0.15380000 -0.08610000 0.98430000
vn 0.77620000 -0.05500000 0.62810000
vn 0.99370000 -0.00970000 0.11140000
vn 0.00000000 1.00000000 -0.00010000
vn -0.00010000 1.00000000 0.00000000
vn 0.00000000 1.00000000 -0.00010000
vn 0.00000000 1.00000000 0.00010000
vn -0.00000000 1.00000000 -0.00000000
vn -0.00010000 1.00000000 0.00000000
vn 0.00000000 1.00000000 -0.00010000
vn -0.00000000 1.00000000 -0.00000000
vn -0.00000000 1.00000000 -0.00000000
vn 0.00000000 1.00000000 0.00010000
vn -0.00010000 1.00000000 0.00000000
vn 0.00000000 1.00000000 0.00010000
vn 1.00000000 -0.00000000 0.00000000
vn 1.00000000 -0.00000000 0.00000000
vn 1.00000000 -0.00000000 0.00000000
vn 1.00000000 -0.00000000 0.00000000
vn 1.00000000 -0.00000000 0.00000000
vn 1.00000000 -0.00000000 0.00000000
vn 1.00000000 -0.00000000 0.00000000
vn 1.00000000 -0.00000000 0.00000000
vn 1.00000000 -0.00000000 0.00000000
vn 1.00000000 -0.00000000 0.00000000
vn 0.00000000 0.09080000 0.99590000
vn 0.00000000 0.00010000 1.00000000
vn -0.00000000 0.07820000 0.99690000
vn 0.00000000 0.18050000 0.98360000
vn 0.00000000 0.17890000 0.98390000
vn 0.00000000 0.07660000 -0.99710000
vn -0.00000000 0.08580000 -0.99630000
vn 0.00000000 0.17200000 -0.98510000
vn 0.00000000 0.17770000 -0.98410000
vn -0.00000000 -0.00140000 -1.00000000
vn 0.00000000 0.00020000 -1.00000000
vn 0.00000000 0.00700000 -1.00000000
vn 0.00000000 -0.00010000 1.00000000
vn 0.00000000 -0.00000000 1.00000000
vn 0.00000000 0.00010000 1.00000000
vn 0.00000000 0.38270000 0.92390000
vn -0.00000000 0.36810000 0.92980000
vn -0.00000000 0.69590000 0.71820000
vn 0.00000000 0.92390000 0.38270000
vn -0.00000000 0.70710000 0.70710000
vn 0.00000000 -0.00000000 1.00000000
vn -0.00000000 1.00000000 -0.00000000
vn -0.00000000 0.92980000 0.36810000
vn -0.00000000 0.99990000 -0.01570000
vn 0.00020000 0.92390000 -0.38270000
vn -0.00000000 0.92980000 -0.36810000
vn 0.00000000 0.57050000 -0.82130000
vn 0.00000000 0.70710000 -0.70710000
vn -0.00000000 0.78530000 -0.61910000
vn 0.00010000 -0.00160000 -1.00000000
vn -0.00000000 -0.00000000 -1.00000000
vn 0.00000000 0.29700000 -0.95490000
vn 0.00000000 0.36810000 -0.92980000
vn -0.00000000 0.00670000 -1.00000000
vn 0.00010000 0.00670000 -1.00000000
vn -0.00000000 -0.00160000 -1.00000000
vn -0.00000000 -0.00000000 -1.00000000
vn -1.00000000 0.00000000 -0.00000000
vn -1.00000000 0.00000000 -0.00000000
vn -1.00000000 0.00000000 -0.00000000
vn -1.00000000 0.00000000 -0.00000000
vn -1.00000000 0.00000000 -0.00000000
vn -1.00000000 0.00000000 -0.00000000
vn -1.00000000 0.00000000 -0.00000000
vn -1.00000000 0.00000000 -0.00000000
vn -1.00000000 0.00000000 -0.00000000
vn 0.00000000 -1.00000000 -0.00000000
vn 0.00000000 -1.00000000 -0.00000000
vn 0.00000000 -1.00000000 -0.00000000
vn 0.00000000 -1.00000000 -0.00000000
vn -0.00000000 1.00000000 -0.00000000
vn -0.00010000 1.00000000 -0.00010000
vn -0.00000000 1.00000000 -0.00000000
vn -0.00000000 1.00000000 -0.00000000
vn -0.00010000 1.00000000 -0.00010000
vn -0.00010000 1.00000000 -0.00010000
vn -0.00000000 1.00000000 -0.00000000
vn -0.00000000 1.00000000 -0.00000000
vn -0.00000000 1.00000000 -0.00000000
vn -0.00000000 1.00000000 -0.00000000
vn -0.00000000 1.00000000 -0.00000000
vn -0.00000000 1.00000000 -0.00000000
vn -0.00000000 1.00000000 -0.00000000
vn -0.00000000 1.00000000 -0.00040000
vn -0.00000000 1.00000000 -0.00000000
vn -0.00000000 1.00000000 -0.00000000
vn 0.00000000 -1.00000000 -0.00000000
vn 0.00000000 -1.00000000 -0.00000000
vn 0.00000000 -1.00000000 -0.00000000
vn 0.00000000 -1.00000000 -0.00000000
vn -0.00000000 -0.00290000 -1.00000000
vn -0.00000000 -0.99450000 -0.10490000
vn -0.70600000 -0.16580000 0.68850000
vn 0.70710000 0.00000000 -0.70710000
vn -0.00000000 -0.53440000 -0.84520000
vn 0.70550000 -0.16820000 0.68850000
vn 0.70550000 -0.16810000 0.68840000
vn 0.70680000 -0.25810000 0.65860000
vn 0.70710000 -0.66700000 0.23480000
vn 0.70690000 -0.61220000 -0.35440000
vn 0.70710000 -0.56370000 -0.42680000
vn 0.70650000 -0.52470000 -0.47490000
vn 0.70640000 -0.48240000 -0.51790000
vn 0.70710000 -0.43450000 -0.55780000
vn 0.70540000 -0.26050000 0.65930000
vn 0.70670000 -0.26850000 -0.65460000
vn 0.00000000 0.00140000 -1.00000000
vn -0.17780000 -0.23610000 -0.95530000
vn -0.19970000 -0.73320000 -0.65000000
vn 0.00000000 0.01810000 -0.99980000
vn 0.82690000 -0.46010000 -0.32340000
vn 0.00000000 -0.00000000 1.00000000
vn -0.00000000 -0.00000000 -1.00000000
vn 0.00000000 -0.00000000 1.00000000
vn 0.00000000 -0.08720000 -0.99620000
vn -0.00000000 1.00000000 -0.00000000
vt 0.40202200 0.72931900
vt 0.40392000 0.72797400
vt 0.40345000 0.72931800
vt 0.27757800 0.76144300
vt 0.27757800 0.76144300
vt 0.22985600 0.74590900
vt 0.22985600 0.74590900
vt 0.19175600 0.68636600
vt 0.19175600 0.68636600
vt 0.19175600 0.68636600
vt 0.19175600 0.68636600
vt 0.19175600 0.68636600
vt 0.29187900 0.76301500
vt 0.29187900 0.76301500
vt 0.21442100 0.65121900
vt 0.22094000 0.64640200
vt 0.19907900 0.66793200
vt 0.19314400 0.68045700
vt 0.19169400 0.70113200
vt 0.19436800 0.70989400
vt 0.19865000 0.71867500
vt 0.21033900 0.73222100
vt 0.23888200 0.63768800
vt 0.25457000 0.75612200
vt 0.32147400 0.76293500
vt 0.32147400 0.76293500
vt 0.35040800 0.75819100
vt 0.37353500 0.74926200
vt 0.37353500 0.74926200
vt 0.56845700 0.73287000
vt 0.57759000 0.72931800
vt 0.54346100 0.72931800
vt 0.59340400 0.73282600
vt 0.61064300 0.72931800
vt 0.64309700 0.72931800
vt 0.63956100 0.73282600
vt 0.66257500 0.73282600
vt 0.61667400 0.73282600
vt 0.67555200 0.72931800
vt 0.68623500 0.73282600
vt 0.70800600 0.72931800
vt 0.73736900 0.73279700
vt 0.74167900 0.72931800
vt 0.76223100 0.73282600
vt 0.77504500 0.72931800
vt 0.78589100 0.73282600
vt 0.80764200 0.72931800
vt 0.84009700 0.72931800
vt 0.85565800 0.73290600
vt 0.87255100 0.72931800
vt 0.80890500 0.73282600
vt 0.83179300 0.73282600
vt 0.87967400 0.73286800
vt 0.90520400 0.72975500
vt 0.44421100 0.72931700
vt 0.45979600 0.72941600
vt 0.45706900 0.73110000
vt 0.47810100 0.72930600
vt 0.49243600 0.72933000
vt 0.48290000 0.73100300
vt 0.50716500 0.72955900
vt 0.52220900 0.72930800
vt 0.50965800 0.73107300
vt 0.43329500 0.73010900
vt 0.53447600 0.73059500
vt 0.54147700 0.72931100
vt 0.55602600 0.72936900
vt 0.56344400 0.73109700
vt 0.57514000 0.72906400
vt 0.59001200 0.73043100
vt 0.61645600 0.73021600
vt 0.63015500 0.72929500
vt 0.64162500 0.73120700
vt 0.64462000 0.72931500
vt 0.65921400 0.72936900
vt 0.70221700 0.72923100
vt 0.71587000 0.72931800
vt 0.71583800 0.73118400
vt 0.60101900 0.72933800
vt 0.67312300 0.73033800
vt 0.62658300 0.82777800
vt 0.63901800 0.82857900
vt 0.65201300 0.82724400
vt 0.60315000 0.73384500
vt 0.61141200 0.72980800
vt 0.58440400 0.73074100
vt 0.62228000 0.73315100
vt 0.62750900 0.72962900
vt 0.64130800 0.73315100
vt 0.65421100 0.73049200
vt 0.67936600 0.73315100
vt 0.68488000 0.72952200
vt 0.67211600 0.73047500
vt 0.66033700 0.73315100
vt 0.69839400 0.73315100
vt 0.71169400 0.72968300
vt 0.71782600 0.73381800
vt 0.73979300 0.73046300
vt 0.73870400 0.73394300
vt 0.75548000 0.73315100
vt 0.76790100 0.72971300
vt 0.77476800 0.73309700
vt 0.78543300 0.73048600
vt 0.79061900 0.73366700
vt 0.80591800 0.73059000
vt 0.85062400 0.73315100
vt 0.85680400 0.73055000
vt 0.83221700 0.73112000
vt 0.83221700 0.73112000
vt 0.86965200 0.73315100
vt 0.88376800 0.72980500
vt 0.81076400 0.73370600
vt 0.88868100 0.73315100
vt 0.90098900 0.72973400
vt 0.90770900 0.73315100
vt 0.92296800 0.73052300
vt 0.92660500 0.73455700
vt 0.94580100 0.73100800
vt 0.62534300 0.77482800
vt 0.62550700 0.73428800
vt 0.61447900 0.73365700
vt 0.61517600 0.77432600
vt 0.60102000 0.73327300
vt 0.65941800 0.77456100
vt 0.65980700 0.73429500
vt 0.64522600 0.77434200
vt 0.63514500 0.77521800
vt 0.64128400 0.73421900
vt 0.70486600 0.77431500
vt 0.70448700 0.73429300
vt 0.68908600 0.77506400
vt 0.68920300 0.73414900
vt 0.67431900 0.73427900
vt 0.67404700 0.77495400
vt 0.72813100 0.77417600
vt 0.72399000 0.73428800
vt 0.71688700 0.73337200
vt 0.71424300 0.77516900
vt 0.73869200 0.73426000
vt 0.78455500 0.77432700
vt 0.78428600 0.73427500
vt 0.77405000 0.77490800
vt 0.75873600 0.77421700
vt 0.75806700 0.73448500
vt 0.74409500 0.77520200
vt 0.77311600 0.73340200
vt 0.81323700 0.77520800
vt 0.81377600 0.73429600
vt 0.79991600 0.73356800
vt 0.82865300 0.77418700
vt 0.82840500 0.73429000
vt 0.79870000 0.77520500
vt 0.84292700 0.77521100
vt 0.84318600 0.73425700
vt 0.85761000 0.77412400
vt 0.85729100 0.73346200
vt 0.88560300 0.77438800
vt 0.88677200 0.73433400
vt 0.87337700 0.73328500
vt 0.87298800 0.77521200
vt 0.58863300 0.77421200
vt 0.58381300 0.73336500
vt 0.90057400 0.77434900
vt 0.90057400 0.73428300
vt 0.65201300 0.82724400
vt 0.65201300 0.82847600
vt 0.66850700 0.82846000
vt 0.76414500 0.82782100
vt 0.77964500 0.82850200
vt 0.79117900 0.82796900
vt 0.71542900 0.82768400
vt 0.71542900 0.82768400
vt 0.73111000 0.82861900
vt 0.74812100 0.82770500
vt 0.82413100 0.82764500
vt 0.82413100 0.82764500
vt 0.84171100 0.82865200
vt 0.85701900 0.82768100
vt 0.86730800 0.82851700
vt 0.88467000 0.82791600
vt 0.97833700 0.82782300
vt 0.97833700 0.82782300
vt 0.99515400 0.82860300
vt 1.01309400 0.82737700
vt 0.76049900 0.73107000
vt 0.74235700 0.73113100
vt 0.76053200 0.72859200
vt 0.43034800 0.73055300
vt 0.40348400 0.73111300
vt 0.40359900 0.72902700
vt 0.47769900 0.73111600
vt 0.47257500 0.72939500
vt 0.49024300 0.72941300
vt 0.50290900 0.73021900
vt 0.52931400 0.73048800
vt 0.55708100 0.72944600
vt 0.55587700 0.73103500
vt 0.58484500 0.73050300
vt 0.58484500 0.73050300
vt 0.60966700 0.73104400
vt 0.60216900 0.72939700
vt 0.62240100 0.72922400
vt 0.63643400 0.73112400
vt 0.66227800 0.73102300
vt 0.64834300 0.72836300
vt 0.67264900 0.72928700
vt 0.69930600 0.73020200
vt 0.68607000 0.73063900
vt 0.73799900 0.72933900
vt 0.41232100 0.71493800
vt 0.40159000 0.72049500
vt 0.40434900 0.71628200
vt 0.44635700 0.71487500
vt 0.41226300 0.73025200
vt 0.40298700 0.72846700
vt 0.44630000 0.73028900
vt 0.45931600 0.71874400
vt 0.45714200 0.72503300
vt 0.45328100 0.71499800
vt 0.45504600 0.72939600
vt 0.40520900 0.73142800
vt 0.40411400 0.73138700
vt 0.40449100 0.72907600
vt 0.40622100 0.73118000
vt 0.40555100 0.72882300
vt 0.40778400 0.73674300
vt 0.40380200 0.73777200
vt 0.40683700 0.73362600
vt 0.40862800 0.74165000
vt 0.40505900 0.74174700
vt 0.40345100 0.73275200
vt 0.40302200 0.74448600
vt 0.40739500 0.74820900
vt 0.41245300 0.75114800
vt 0.41165300 0.74177800
vt 0.40724100 0.74228000
vt 0.40410400 0.73929500
vt 0.40720100 0.73650300
vt 0.40813800 0.73223200
vt 0.41179100 0.73036700
vt 0.40278000 0.73231100
vt 0.40302600 0.74483600
vt 0.40839600 0.74878300
vt 0.41087900 0.74150700
vt 0.40454800 0.73129900
vt 0.40357000 0.72895600
vt 0.40491500 0.72910100
vt 0.40529800 0.73129300
vt 0.40610300 0.72919300
vt 0.40624500 0.73113600
vt 0.40722600 0.74178800
vt 0.40275900 0.74050600
vt 0.40694400 0.73594400
vt 0.41147100 0.74253100
vt 0.36721800 0.72948300
vt 0.36259100 0.72879100
vt 0.40981100 0.72904600
vt 0.32638000 0.72677200
vt 0.32787000 0.72214300
vt 0.32365300 0.73062800
vt 0.33573800 0.72015300
vt 0.33850900 0.71841500
vt 0.38296900 0.72016200
vt 0.38296900 0.72016200
vt 0.37498200 0.71841000
vt 0.32916300 0.73576300
vt 0.33728800 0.73852400
vt 0.33703900 0.74017100
vt 0.37896200 0.73844500
vt 0.37831300 0.72019400
vt 0.38669500 0.72505500
vt 0.39141100 0.72829400
vt 0.39141100 0.72829400
vt 0.38836500 0.72953300
vt 0.38648700 0.73390200
vt 0.38631900 0.73676200
vt 0.37635700 0.74018500
vt 0.75208900 0.95768800
vt 0.72764100 0.95978400
vt 0.75082900 0.96716100
vt 0.78245400 0.95571800
vt 0.76145000 0.95579200
vt 0.77295400 0.96720500
vt 0.80357000 0.96204100
vt 0.79048900 0.96032400
vt 0.79040300 0.96779100
vt 0.81490100 0.95894600
vt 0.83007800 0.96691400
vt 0.81989300 0.95561300
vt 0.84104300 0.95585700
vt 0.85302300 0.96704700
vt 0.86231700 0.95602500
vt 0.90182400 0.96181200
vt 0.90182400 0.95885000
vt 0.87709000 0.96013400
vt 0.62357700 0.95588800
vt 0.60230000 0.95588800
vt 0.62795200 0.96181200
vt 0.66897400 0.95588800
vt 0.64589800 0.95588800
vt 0.65260600 0.96368400
vt 0.69244600 0.95588800
vt 0.70408600 0.96028100
vt 0.71591800 0.95588800
vt 0.73899400 0.95588800
vt 0.60230000 0.96477400
vt 0.62333200 0.96626900
vt 0.70695800 0.96773500
vt 0.68602600 0.96773500
vt 0.60227500 0.96991900
vt 0.64416300 0.96773500
vt 0.66509400 0.96773500
vt 0.72720800 0.96979500
vt 0.81161500 0.96773500
vt 0.88638000 0.95588800
vt 0.95091200 0.95885000
vt 0.95640100 0.95588800
vt 0.93332500 0.95588800
vt 0.97748500 0.95582900
vt 0.90985300 0.95588800
vt 1.00004700 0.96427100
vt 0.99999900 0.95588800
vt 0.87441000 0.96773500
vt 0.89534100 0.96773500
vt 0.91627300 0.96773500
vt 0.95091200 0.96477400
vt 0.93720400 0.96773500
vt 0.97915900 0.96701300
vt 0.95813600 0.96773500
vt 0.99977900 0.97017900
vt 0.93391300 0.77514900
vt 0.93446900 0.73852900
vt 0.92317000 0.74364600
vt 0.90057400 0.77434900
vt 0.91236400 0.77421300
vt 0.90057400 0.73341200
vt 0.92365800 0.77516400
vt 0.94534800 0.73336500
vt 0.95017500 0.77421200
vt 0.56680800 0.88966900
vt 0.59710500 0.89093800
vt 0.56664500 0.88883600
vt 0.56680800 0.99931000
vt 0.59869600 0.99782600
vt 0.56680800 1.00000000
vt 0.62925100 0.99111800
vt 0.62724900 0.89725100
vt 0.67157800 0.92152200
vt 0.65321600 0.90782600
vt 0.65477900 0.98027900
vt 0.68076200 0.93673200
vt 0.67245800 0.96650000
vt 0.68091700 0.95169600
vt 0.65360500 0.96181200
vt 0.65360500 0.95885000
vt 0.62795500 0.95972500
vt 0.62835600 0.96769400
vt 0.61568200 0.96497000
vt 0.65473000 0.96764900
vt 0.75206200 0.96181200
vt 0.77790500 0.96401700
vt 0.75206200 0.95885000
vt 0.78786400 0.96776500
vt 0.79170200 0.96208700
vt 0.80300200 0.96372200
vt 0.75206200 0.96477400
vt 0.85245400 0.96181200
vt 0.82654200 0.95914300
vt 0.82675200 0.96602900
vt 0.85245400 0.95885000
vt 0.81445600 0.96776800
vt 0.81246100 0.96133000
vt 0.85245400 0.96477400
vt 0.62342900 0.95588800
vt 0.60230000 0.95588800
vt 0.64557900 0.95588800
vt 0.69173600 0.95588800
vt 0.66846400 0.95588800
vt 0.73789400 0.95588800
vt 0.71500900 0.95588800
vt 0.68184000 0.96773500
vt 0.70835300 0.96773500
vt 0.76004300 0.95588800
vt 0.60228700 0.96492900
vt 0.78119100 0.95636700
vt 0.60209800 0.97084900
vt 0.73486600 0.96773500
vt 0.76138000 0.96773500
vt 0.82109600 0.95636800
vt 0.84225500 0.95588800
vt 0.88729000 0.95588800
vt 0.86440500 0.95588800
vt 0.91056200 0.95588800
vt 0.95091200 0.95885000
vt 0.95672000 0.95588800
vt 0.93383500 0.95588800
vt 0.97756300 0.95601500
vt 0.95102000 0.96182000
vt 1.00007500 0.96449100
vt 0.99999900 0.95588800
vt 0.89394600 0.96773500
vt 0.84091900 0.96773500
vt 0.97430500 0.96769400
vt 0.99971600 0.96651200
vt 0.94697200 0.96773500
vt 0.86743300 0.96773500
vt 0.92045900 0.96773500
vt 0.40359700 0.74363400
vt 0.40370800 0.72935100
vt 0.45028500 0.72927400
vt 0.40345000 0.77245500
vt 0.40345000 0.75807600
vt 0.44950000 0.75807600
vt 0.44950000 0.74369700
vt 0.40345000 0.80121200
vt 0.40345000 0.78683400
vt 0.44950000 0.78683400
vt 0.40345000 0.82997000
vt 0.40345000 0.81559100
vt 0.44950000 0.81559100
vt 0.40345000 0.84434900
vt 0.44970600 0.82911700
vt 0.44950000 0.80121200
vt 0.44950000 0.77245500
vt 0.40353800 0.74447800
vt 0.40345000 0.72931800
vt 0.44950000 0.74369700
vt 0.40345000 0.77245500
vt 0.40345000 0.75807600
vt 0.44950000 0.77245500
vt 0.44950000 0.75807600
vt 0.40345000 0.80121200
vt 0.40345000 0.78683400
vt 0.44950000 0.80121200
vt 0.40349400 0.82991800
vt 0.40323400 0.81618800
vt 0.44950000 0.82997000
vt 0.40386800 0.84430300
vt 0.45028500 0.84438400
vt 0.44950000 0.81559100
vt 0.44950000 0.78683400
vt 0.41281000 0.74641900
vt 0.41362200 0.74312100
vt 0.41273800 0.74292500
vt 0.41416300 0.74661000
vt 0.41670200 0.74718100
vt 0.41528000 0.74566800
vt 0.40259200 0.72062200
vt 0.40259400 0.69840000
vt 0.39686100 0.69867900
vt 0.40990800 0.74654400
vt 0.40942900 0.74529000
vt 0.40757400 0.74680900
vt 0.41096600 0.74309800
vt 0.41199800 0.74273900
vt 0.41186700 0.74622100
vt 0.41001700 0.74676500
vt 0.40928100 0.74611700
vt 0.40765900 0.74747800
vt 0.41124300 0.74310200
vt 0.41212800 0.74292600
vt 0.41184200 0.74642500
vt 0.41002900 0.72010700
vt 0.41004000 0.69868000
vt 0.41004000 0.69868000
vt 0.40431900 0.72151700
vt 0.40431900 0.72151700
vt 0.40429800 0.69756300
vt 0.41491100 0.74457700
vt 0.41387700 0.74310200
vt 0.41322300 0.74621300
vt 0.41287100 0.74273900
vt 0.41497000 0.74648500
vt 0.41662700 0.74648100
vt 0.74576300 0.85695800
vt 0.74576400 0.85064200
vt 0.74576400 0.85064200
vt 0.74576400 0.85064200
vt 0.74576400 0.85064200
vt 0.74766200 0.85198800
vt 0.74766200 0.85198800
vt 0.74576300 0.80883600
vt 0.74719200 0.80970700
vt 0.74719200 0.80970700
vt 0.74719200 0.85064300
vt 0.74719200 0.85064300
vt 0.25495500 0.81979000
vt 0.27070500 0.75042100
vt 0.25495500 0.76679300
vt 0.24631800 0.79220100
vt 0.28086700 0.84301900
vt 0.29511200 0.73642400
vt 0.35995700 0.86253500
vt 0.35995700 0.72404700
vt 0.32620700 0.72717100
vt 0.31646400 0.85726500
vt 0.01028700 0.81637300
vt -0.00000800 0.82262000
vt 0.00883700 0.75397600
vt 0.02076300 0.80366000
vt 0.02057400 0.75419100
vt 0.34852200 0.75403000
vt 0.34751000 0.81637300
vt 0.33796700 0.80393600
vt 0.33734500 0.75503100
vt 0.35701500 0.82219500
vt 0.35701500 0.82219500
vt 0.35701500 0.82219500
vt -0.00001000 0.77114900
vt 0.00000000 0.72931800
vt 0.00001000 0.77792700
vt 0.04639800 0.72931800
vt 0.04441700 0.82880900
vt 0.09102900 0.72931800
vt 0.13566100 0.72931800
vt 0.09279500 0.82880900
vt -0.00000000 0.82880900
vt 0.17852600 0.82880900
vt 0.13735700 0.82880900
vt 0.18029200 0.72931800
vt 0.22492400 0.72931800
vt 0.22294300 0.82880900
vt 0.29098800 0.72931800
vt 0.27132200 0.82880900
vt 0.25795600 0.72931800
vt 0.35705300 0.72931800
vt 0.35705300 0.72931800
vt 0.32402100 0.72931800
vt 0.31588300 0.82880900
vt 0.35705300 0.77744100
vt 0.35705300 0.77112500
vt 0.35705300 0.77112500
vt 0.35705300 0.82880900
vt 0.46113400 0.96466900
vt 0.46113400 0.92431100
vt 0.45315500 0.94449000
vt 0.48644300 0.98325400
vt 0.48644300 0.90572600
vt 0.56680800 0.99931000
vt 0.56680800 0.88966900
vt 0.52497300 0.89351800
vt 0.52497300 0.99546100
vt 0.51779100 0.13587500
vt 0.50465100 0.13845300
vt 0.56382500 0.13587500
vt 0.57800800 0.13853400
vt 0.51843400 0.85066600
vt 0.51843400 0.85066600
vt 0.51702600 0.84977200
vt 0.51702600 0.80970700
vt 0.51702600 0.80970700
vt 0.51845600 0.80883600
vt 0.51659000 0.85172900
vt 0.51843400 0.85066600
vt 0.51851200 0.85744400
vt 0.51672900 0.90789500
vt 0.51838100 0.90213700
vt 0.51845600 0.90832700
vt 0.74713000 0.90364900
vt 0.74713000 0.90364900
vt 0.74576300 0.90832700
vt 0.74581500 0.90171300
vt 0.56382400 0.00261300
vt 0.50385300 0.00000000
vt 0.51779100 0.00261300
vt 0.57731100 -0.00003200
vt 0.54382200 0.73399600
vt 0.71107600 0.73279400
vt 0.68899000 0.73066800
vt 0.65201300 0.82847600
vt 0.60391000 0.77506200
vt 0.68234300 0.82762400
vt 0.68234300 0.82762400
vt 0.69928700 0.82865600
vt 0.80802400 0.82859700
vt 0.91727800 0.82832300
vt 0.93289800 0.82848400
vt 0.94399300 0.82773800
vt 0.95476100 0.82803600
vt 0.96592900 0.82850000
vt 0.44618800 0.73052300
vt 0.71626700 0.73031100
vt 0.40630800 0.72923700
vt 0.41117300 0.73092600
vt 0.40627500 0.73197500
vt 0.40340900 0.73133600
vt 0.40487600 0.73300000
vt 0.40768600 0.72995800
vt 0.44950000 0.84434900
vt 0.44950000 0.72931800
vt 0.39687200 0.72009400
vt 0.74719200 0.90832700
f 1/1/1 2/2/2 3/3/3
f 5/5/5 6/6/6 8/8/8
f 9/9/9 13/13/13 4/4/4
f 8/8/8 15/15/15 16/16/16
f 15/15/15 8/8/8 17/17/17
f 8/8/8 18/18/18 17/17/17
f 19/19/19 12/12/12 20/20/20
f 8/8/8 21/21/21 20/20/20
f 22/22/22 21/21/21 8/8/8
f 22/22/22 8/8/8 6/6/6
f 23/23/23 8/8/8 16/16/16
f 24/24/24 7/7/7 4/4/4
f 10/10/10 25/25/25 14/14/14
f 26/26/26 11/11/11 27/27/27
f 27/27/27 11/11/11 28/28/28
f 8/8/8 23/23/23 29/29/29
f 30/30/30 31/31/31 32/32/32
f 31/31/31 33/33/33 34/34/34
f 35/35/35 36/36/36 37/37/37
f 34/34/34 38/38/38 35/35/35
f 39/39/39 40/40/40 41/41/41
f 31/31/31 30/30/30 33/33/33
f 40/40/40 39/39/39 37/37/37
f 42/42/42 43/43/43 41/41/41
f 43/43/43 42/42/42 44/44/44
f 43/43/43 44/44/44 45/45/45
f 45/45/45 46/46/46 47/47/47
f 48/48/48 49/49/49 50/50/50
f 47/47/47 51/51/51 52/52/52
f 50/50/50 53/53/53 54/54/54
f 45/45/45 44/44/44 46/46/46
f 48/48/48 52/52/52 49/49/49
f 55/55/55 56/56/56 57/57/57
f 56/56/56 58/58/58 57/57/57
f 58/58/58 59/59/59 60/60/60
f 59/59/59 61/61/61 60/60/60
f 61/61/61 62/62/62 63/63/63
f 55/55/55 57/57/57 64/64/64
f 65/65/65 63/63/63 62/62/62
f 65/65/65 66/66/66 67/67/67
f 65/65/65 67/67/67 68/68/68
f 67/67/67 69/69/69 68/68/68
f 70/70/70 68/68/68 69/69/69
f 71/71/71 72/72/72 73/73/73
f 72/72/72 74/74/74 73/73/73
f 74/74/74 75/75/75 73/73/73
f 76/76/76 77/77/77 78/78/78
f 79/79/79 71/71/71 70/70/70
f 75/75/75 80/80/80 73/73/73
f 81/81/81 82/82/82 83/83/83
f 84/84/84 85/85/85 86/86/86
f 87/87/87 88/88/88 85/85/85
f 89/89/89 90/90/90 88/88/88
f 91/91/91 92/92/92 93/93/93
f 94/94/94 93/93/93 90/90/90
f 92/92/92 95/95/95 96/96/96
f 87/87/87 85/85/85 84/84/84
f 89/89/89 88/88/88 87/87/87
f 91/91/91 93/93/93 94/94/94
f 95/95/95 92/92/92 91/91/91
f 89/89/89 94/94/94 90/90/90
f 97/97/97 98/98/98 96/96/96
f 97/97/97 99/99/99 98/98/98
f 100/100/100 98/98/98 99/99/99
f 100/100/100 101/101/101 98/98/98
f 102/102/102 103/103/103 101/101/101
f 104/104/104 105/105/105 103/103/103
f 106/106/106 107/107/107 109/109/109
f 110/110/110 111/111/111 107/107/107
f 112/112/112 108/108/108 105/105/105
f 113/113/113 114/114/114 111/111/111
f 104/104/104 103/103/103 102/102/102
f 112/112/112 105/105/105 104/104/104
f 111/111/111 110/110/110 113/113/113
f 106/106/106 110/110/110 107/107/107
f 115/115/115 116/116/116 114/114/114
f 115/115/115 117/117/117 116/116/116
f 117/117/117 118/118/118 116/116/116
f 100/100/100 102/102/102 101/101/101
f 121/121/121 122/122/122 120/120/120
f 123/123/123 571/571/571 121/121/121
f 125/125/125 128/128/128 126/126/126
f 120/120/120 119/119/119 127/127/127
f 130/130/130 132/132/132 129/129/129
f 133/133/133 134/134/134 131/131/131
f 125/125/125 124/124/124 133/133/133
f 135/135/135 136/136/136 137/137/137
f 138/138/138 135/135/135 137/137/137
f 135/135/135 139/139/139 136/136/136
f 140/140/140 141/141/141 142/142/142
f 144/144/144 139/139/139 145/145/145
f 144/144/144 143/143/143 142/142/142
f 149/149/149 152/152/152 148/148/148
f 150/150/150 151/151/151 148/148/148
f 141/141/141 140/140/140 149/149/149
f 153/153/153 154/154/154 150/150/150
f 155/155/155 156/156/156 154/154/154
f 157/157/157 158/158/158 159/159/159
f 156/156/156 155/155/155 159/159/159
f 161/161/161 123/123/123 162/162/162
f 163/163/163 164/164/164 158/158/158
f 165/165/165 166/166/166 167/167/167
f 168/168/168 169/169/169 170/170/170
f 172/172/172 173/173/173 174/174/174
f 175/175/175 177/177/177 178/178/178
f 178/178/178 179/179/179 180/180/180
f 182/182/182 183/183/183 184/184/184
f 185/185/185 186/186/186 187/187/187
f 188/188/188 189/189/189 190/190/190
f 191/191/191 192/192/192 193/193/193
f 193/193/193 194/194/194 191/191/191
f 195/195/195 196/196/196 197/197/197
f 196/196/196 199/199/199 197/197/197
f 200/200/200 201/201/201 202/202/202
f 198/198/198 201/201/201 200/200/200
f 202/202/202 203/203/203 200/200/200
f 204/204/204 205/205/205 206/206/206
f 206/206/206 207/207/207 208/208/208
f 187/187/187 186/186/186 209/209/209
f 203/203/203 205/205/205 204/204/204
f 206/206/206 208/208/208 204/204/204
f 210/210/210 211/211/211 212/212/212
f 211/211/211 210/210/210 213/213/213
f 214/214/214 215/215/215 211/211/211
f 211/211/211 213/213/213 214/214/214
f 217/217/217 218/218/218 213/213/213
f 219/219/219 217/217/217 213/213/213
f 213/213/213 218/218/218 216/216/216
f 216/216/216 218/218/218 220/220/220
f 221/221/221 222/222/222 223/223/223
f 224/224/224 221/221/221 225/225/225
f 226/226/226 227/227/227 228/228/228
f 229/229/229 230/230/230 226/226/226
f 227/227/227 231/231/231 228/228/228
f 232/232/232 230/230/230 233/233/233
f 233/233/233 229/229/229 234/234/234
f 234/234/234 229/229/229 235/235/235
f 229/229/229 233/233/233 230/230/230
f 236/236/236 237/237/237 238/238/238
f 238/238/238 239/239/239 240/240/240
f 237/237/237 241/241/241 238/238/238
f 236/236/236 242/242/242 237/237/237
f 243/243/243 242/242/242 236/236/236
f 236/236/236 244/244/244 243/243/243
f 245/245/245 246/246/246 247/247/247
f 248/248/248 245/245/245 247/247/247
f 248/248/248 247/247/247 249/249/249
f 250/250/250 248/248/248 249/249/249
f 251/251/251 252/252/252 253/253/253
f 254/254/254 251/251/251 253/253/253
f 255/255/255 256/256/256 257/257/257
f 258/258/258 259/259/259 260/260/260
f 258/258/258 261/261/261 259/259/259
f 262/262/262 259/259/259 261/261/261
f 261/261/261 264/264/264 265/265/265
f 266/266/266 258/258/258 260/260/260
f 267/267/267 266/266/266 268/268/268
f 268/268/268 277/277/277 267/267/267
f 270/270/270 271/271/271 264/264/264
f 273/273/273 263/263/263 271/271/271
f 274/274/274 272/272/272 271/271/271
f 275/275/275 269/269/269 276/276/276
f 277/277/277 276/276/276 269/269/269
f 275/275/275 272/272/272 274/274/274
f 276/276/276 272/272/272 275/275/275
f 279/279/279 313/313/313 280/280/280
f 282/282/282 280/280/280 283/283/283
f 284/284/284 285/285/285 286/286/286
f 285/285/285 283/283/283 286/286/286
f 287/287/287 288/288/288 289/289/289
f 290/290/290 291/291/291 292/292/292
f 288/288/288 291/291/291 290/290/290
f 295/295/295 324/324/324 294/294/294
f 297/297/297 306/306/306 296/296/296
f 299/299/299 300/300/300 301/301/301
f 296/296/296 298/298/298 300/300/300
f 302/302/302 303/303/303 304/304/304
f 278/278/278 282/282/282 305/305/305
f 279/279/279 305/305/305 304/304/304
f 303/303/303 302/302/302 299/299/299
f 279/279/279 278/278/278 305/305/305
f 301/301/301 303/303/303 299/299/299
f 306/306/306 307/307/307 298/298/298
f 308/308/308 313/313/313 279/279/279
f 301/301/301 309/309/309 303/303/303
f 306/306/306 310/310/310 307/307/307
f 301/301/301 307/307/307 311/311/311
f 309/309/309 301/301/301 312/312/312
f 311/311/311 312/312/312 301/301/301
f 309/309/309 308/308/308 303/303/303
f 314/314/314 287/287/287 284/284/284
f 315/315/315 295/295/295 294/294/294
f 295/295/295 315/315/315 292/292/292
f 316/316/316 317/317/317 318/318/318
f 317/317/317 316/316/316 319/319/319
f 294/294/294 318/318/318 320/320/320
f 316/316/316 318/318/318 294/294/294
f 316/316/316 294/294/294 293/293/293
f 319/319/319 328/328/328 321/321/321
f 291/291/291 323/323/323 292/292/292
f 287/287/287 314/314/314 288/288/288
f 325/325/325 326/326/326 293/293/293
f 325/325/325 327/327/327 326/326/326
f 319/319/319 316/316/316 326/326/326
f 329/329/329 326/326/326 327/327/327
f 326/326/326 329/329/329 328/328/328
f 328/328/328 330/330/330 321/321/321
f 324/324/324 325/325/325 293/293/293
f 331/331/331 332/332/332 333/333/333
f 335/335/335 333/333/333 334/334/334
f 336/336/336 333/333/333 332/332/332
f 335/335/335 337/337/337 333/333/333
f 332/332/332 338/338/338 336/336/336
f 331/331/331 339/339/339 332/332/332
f 340/340/340 341/341/341 342/342/342
f 343/343/343 341/341/341 340/340/340
f 344/344/344 343/343/343 345/345/345
f 346/346/346 347/347/347 344/344/344
f 341/341/341 343/343/343 344/344/344
f 344/344/344 347/347/347 341/341/341
f 348/348/348 349/349/349 350/350/350
f 351/351/351 348/348/348 352/352/352
f 350/350/350 349/349/349 346/346/346
f 348/348/348 350/350/350 352/352/352
f 351/351/351 352/352/352 353/353/353
f 347/347/347 346/346/346 349/349/349
f 354/354/354 355/355/355 356/356/356
f 357/357/357 356/356/356 358/358/358
f 356/356/356 357/357/357 354/354/354
f 360/360/360 361/361/361 362/362/362
f 363/363/363 364/364/364 361/361/361
f 365/365/365 364/364/364 363/363/363
f 366/366/366 361/361/361 360/360/360
f 369/369/369 373/373/373 367/367/367
f 370/370/370 368/368/368 367/367/367
f 365/365/365 371/371/371 372/372/372
f 356/356/356 374/374/374 375/375/375
f 374/374/374 356/356/356 376/376/376
f 355/355/355 377/377/377 378/378/378
f 362/362/362 379/379/379 380/380/380
f 360/360/360 380/380/380 377/377/377
f 355/355/355 378/378/378 376/376/376
f 375/375/375 358/358/358 356/356/356
f 377/377/377 354/354/354 360/360/360
f 362/362/362 380/380/380 360/360/360
f 354/354/354 381/381/381 382/382/382
f 377/377/377 355/355/355 354/354/354
f 362/362/362 383/383/383 379/379/379
f 384/384/384 358/358/358 375/375/375
f 385/385/385 383/383/383 361/361/361
f 364/364/364 385/385/385 361/361/361
f 361/361/361 383/383/383 362/362/362
f 382/382/382 366/366/366 360/360/360
f 386/386/386 358/358/358 384/384/384
f 381/381/381 354/354/354 359/359/359
f 382/382/382 387/387/387 366/366/366
f 387/387/387 388/388/388 366/366/366
f 366/366/366 388/388/388 361/361/361
f 361/361/361 388/388/388 363/363/363
f 389/389/389 368/368/368 390/390/390
f 372/372/372 368/368/368 389/389/389
f 372/372/372 371/371/371 369/369/369
f 390/390/390 368/368/368 370/370/370
f 370/370/370 391/391/391 392/392/392
f 367/367/367 393/393/393 391/391/391
f 394/394/394 395/395/395 396/396/396
f 395/395/395 394/394/394 397/397/397
f 394/394/394 396/396/396 393/393/393
f 393/393/393 367/367/367 398/398/398
f 394/394/394 393/393/393 398/398/398
f 391/391/391 370/370/370 367/367/367
f 399/399/399 400/400/400 397/397/397
f 367/367/367 401/401/401 398/398/398
f 390/390/390 370/370/370 392/392/392
f 402/402/402 369/369/369 371/371/371
f 363/363/363 371/371/371 365/365/365
f 401/401/401 367/367/367 373/373/373
f 397/397/397 394/394/394 398/398/398
f 399/399/399 397/397/397 404/404/404
f 403/403/403 398/398/398 405/405/405
f 406/406/406 373/373/373 402/402/402
f 406/406/406 401/401/401 373/373/373
f 398/398/398 407/407/407 405/405/405
f 369/369/369 402/402/402 373/373/373
f 410/410/410 414/414/414 408/408/408
f 413/413/413 424/424/424 411/411/411
f 414/414/414 413/413/413 412/412/412
f 417/417/417 423/423/423 415/415/415
f 420/420/420 422/422/422 419/419/419
f 422/422/422 589/589/589 418/418/418
f 423/423/423 420/420/420 419/419/419
f 424/424/424 417/417/417 416/416/416
f 426/426/426 590/590/590 427/427/427
f 429/429/429 431/431/431 430/430/430
f 425/425/425 427/427/427 431/431/431
f 433/433/433 441/441/441 434/434/434
f 436/436/436 440/440/440 437/437/437
f 435/435/435 437/437/437 438/438/438
f 432/432/432 434/434/434 440/440/440
f 428/428/428 430/430/430 441/441/441
f 442/442/442 443/443/443 444/444/444
f 445/445/445 443/443/443 442/442/442
f 446/446/446 447/447/447 445/445/445
f 443/443/443 445/445/445 447/447/447
f 448/448/448 449/449/449 450/450/450
f 451/451/451 452/452/452 453/453/453
f 454/454/454 452/452/452 451/451/451
f 455/455/455 454/454/454 456/456/456
f 456/456/456 454/454/454 451/451/451
f 457/457/457 458/458/458 459/459/459
f 457/457/457 460/460/460 458/458/458
f 461/461/461 460/460/460 462/462/462
f 462/462/462 460/460/460 457/457/457
f 463/463/463 465/465/465 467/467/467
f 468/468/468 466/466/466 464/464/464
f 469/469/469 470/470/470 471/471/471
f 471/471/471 470/470/470 472/472/472
f 471/471/471 473/473/473 469/469/469
f 473/473/473 474/474/474 469/469/469
f 475/475/475 477/477/477 481/481/481
f 479/479/479 482/482/482 483/483/483
f 476/476/476 485/485/485 480/480/480
f 487/487/487 488/488/488 489/489/489
f 490/490/490 487/487/487 489/489/489
f 491/491/491 488/488/488 487/487/487
f 491/491/491 492/492/492 488/488/488
f 493/493/493 494/494/494 495/495/495
f 492/492/492 496/496/496 495/495/495
f 493/493/493 495/495/495 496/496/496
f 491/491/491 496/496/496 492/492/492
f 498/498/498 511/511/511 497/497/497
f 500/500/500 497/497/497 499/499/499
f 501/501/501 500/500/500 499/499/499
f 502/502/502 503/503/503 504/504/504
f 504/504/504 505/505/505 502/502/502
f 507/507/507 503/503/503 502/502/502
f 499/499/499 509/509/509 510/510/510
f 509/509/509 499/499/499 511/511/511
f 501/501/501 499/499/499 510/510/510
f 512/512/512 501/501/501 510/510/510
f 512/512/512 513/513/513 500/500/500
f 514/514/514 516/516/516 513/513/513
f 512/512/512 500/500/500 501/501/501
f 515/515/515 519/519/519 516/516/516
f 497/497/497 513/513/513 517/517/517
f 513/513/513 497/497/497 500/500/500
f 498/498/498 497/497/497 517/517/517
f 519/519/519 515/515/515 520/520/520
f 522/522/522 518/518/518 520/520/520
f 523/523/523 524/524/524 525/525/525
f 525/525/525 524/524/524 522/522/522
f 505/505/505 528/528/528 527/527/527
f 529/529/529 523/523/523 528/528/528
f 528/528/528 505/505/505 529/529/529
f 507/507/507 502/502/502 527/527/527
f 530/530/530 508/508/508 531/531/531
f 529/529/529 505/505/505 504/504/504
f 503/503/503 533/533/533 529/529/529
f 529/529/529 524/524/524 523/523/523
f 507/507/507 533/533/533 503/503/503
f 504/504/504 503/503/503 529/529/529
f 534/534/534 535/535/535 536/536/536
f 535/535/535 534/534/534 537/537/537
f 537/537/537 538/538/538 535/535/535
f 539/539/539 540/540/540 541/541/541
f 538/538/538 542/542/542 541/541/541
f 539/539/539 541/541/541 542/542/542
f 537/537/537 542/542/542 538/538/538
f 543/543/543 544/544/544 545/545/545
f 546/546/546 545/545/545 544/544/544
f 547/547/547 549/549/549 550/550/550
f 551/551/551 552/552/552 548/548/548
f 553/553/553 554/554/554 555/555/555
f 556/556/556 557/557/557 558/558/558
f 559/559/559 561/561/561 562/562/562
f 563/563/563 564/564/564 565/565/565
f 564/564/564 563/563/563 566/566/566
f 30/30/30 32/32/32 567/567/567
f 33/33/33 38/38/38 34/34/34
f 35/35/35 37/37/37 39/39/39
f 38/38/38 36/36/36 35/35/35
f 40/40/40 568/568/568 41/41/41
f 42/42/42 41/41/41 568/568/568
f 46/46/46 51/51/51 47/47/47
f 49/49/49 53/53/53 50/50/50
f 47/47/47 52/52/52 48/48/48
f 58/58/58 60/60/60 57/57/57
f 61/61/61 63/63/63 60/60/60
f 76/76/76 78/78/78 569/569/569
f 82/82/82 570/570/570 83/83/83
f 97/97/97 96/96/96 95/95/95
f 115/115/115 114/114/114 113/113/113
f 571/571/571 123/123/123 161/161/161
f 126/126/126 128/128/128 127/127/127
f 138/138/138 130/130/130 129/129/129
f 145/145/145 139/139/139 135/135/135
f 141/141/141 146/146/146 142/142/142
f 150/150/150 148/148/148 147/147/147
f 155/155/155 154/154/154 153/153/153
f 154/154/154 151/151/151 150/150/150
f 157/157/157 159/159/159 160/160/160
f 165/165/165 167/167/167 572/572/572
f 573/573/573 574/574/574 171/171/171
f 170/170/170 575/575/575 176/176/176
f 576/576/576 577/577/577 578/578/578
f 579/579/579 580/580/580 181/181/181
f 192/192/192 191/191/191 581/581/581
f 202/202/202 205/205/205 203/203/203
f 209/209/209 186/186/186 582/582/582
f 221/221/221 223/223/223 225/225/225
f 583/583/583 224/224/224 225/225/225
f 230/230/230 227/227/227 226/226/226
f 226/226/226 228/228/228 584/584/584
f 229/229/229 226/226/226 235/235/235
f 238/238/238 585/585/585 239/239/239
f 236/236/236 238/238/238 244/244/244
f 241/241/241 585/585/585 238/238/238
f 245/245/245 586/586/586 246/246/246
f 253/253/253 252/252/252 587/587/587
f 255/255/255 257/257/257 588/588/588
f 261/261/261 265/265/265 262/262/262
f 301/301/301 298/298/298 307/307/307
f 285/285/285 281/281/281 283/283/283
f 282/282/282 278/278/278 280/280/280
f 290/290/290 289/289/289 288/288/288
f 298/298/298 301/301/301 300/300/300
f 303/303/303 279/279/279 304/304/304
f 314/314/314 284/284/284 286/286/286
f 315/315/315 294/294/294 320/320/320
f 316/316/316 293/293/293 326/326/326
f 324/324/324 295/295/295 323/323/323
f 331/331/331 333/333/333 337/337/337
f 404/404/404 397/397/397 403/403/403
f 356/356/356 355/355/355 376/376/376
f 354/354/354 382/382/382 360/360/360
f 357/357/357 358/358/358 386/386/386
f 401/401/401 407/407/407 398/398/398
f 448/448/448 450/450/450 591/591/591
f 478/478/478 484/484/484 486/486/486
f 506/506/506 526/526/526 532/532/532
f 561/561/561 560/560/560 592/592/592
f 122/122/122 119/119/119 120/120/120
f 571/571/571 122/122/122 121/121/121
f 125/125/125 126/126/126 124/124/124
f 120/120/120 127/127/127 128/128/128
f 132/132/132 131/131/131 129/129/129
f 133/133/133 131/131/131 132/132/132
f 124/124/124 134/134/134 133/133/133
f 138/138/138 137/137/137 130/130/130
f 144/144/144 145/145/145 143/143/143
f 144/144/144 142/142/142 146/146/146
f 152/152/152 147/147/147 148/148/148
f 140/140/140 152/152/152 149/149/149
f 155/155/155 160/160/160 159/159/159
f 163/163/163 158/158/158 157/157/157
f 213/213/213 216/216/216 214/214/214
f 277/277/277 269/269/269 267/267/267
f 279/279/279 280/280/280 278/278/278
f 282/282/282 283/283/283 281/281/281
f 324/324/324 293/293/293 294/294/294
f 306/306/306 298/298/298 296/296/296
f 308/308/308 279/279/279 303/303/303
f 319/319/319 321/321/321 322/322/322
f 323/323/323 295/295/295 292/292/292
f 319/319/319 326/326/326 328/328/328
f 333/333/333 336/336/336 334/334/334
f 339/339/339 338/338/338 332/332/332
f 357/357/357 359/359/359 354/354/354
f 369/369/369 367/367/367 368/368/368
f 372/372/372 369/369/369 368/368/368
f 397/397/397 398/398/398 403/403/403
f 410/410/410 408/408/408 409/409/409
f 413/413/413 411/411/411 412/412/412
f 414/414/414 412/412/412 408/408/408
f 417/417/417 415/415/415 416/416/416
f 422/422/422 418/418/418 419/419/419
f 589/589/589 421/421/421 418/418/418
f 423/423/423 419/419/419 415/415/415
f 424/424/424 416/416/416 411/411/411
f 426/426/426 427/427/427 425/425/425
f 429/429/429 430/430/430 428/428/428
f 425/425/425 431/431/431 429/429/429
f 433/433/433 434/434/434 432/432/432
f 436/436/436 437/437/437 435/435/435
f 437/437/437 439/439/439 438/438/438
f 432/432/432 440/440/440 436/436/436
f 428/428/428 441/441/441 433/433/433
f 511/511/511 499/499/499 497/497/497
f 514/514/514 513/513/513 512/512/512
f 515/515/515 516/516/516 514/514/514
f 519/519/519 520/520/520 518/518/518
f 522/522/522 520/520/520 521/521/521
f 525/525/525 522/522/522 521/521/521
f 505/505/505 527/527/527 502/502/502

