mtllib material.mtl
usemtl Material-7011油漆.022
v -0.08689900 -0.11800900 0.01147800
v -0.09428900 -0.11906900 0.00225200
v -0.07950900 -0.11669300 0.01689200
v -0.08135600 -0.11669300 0.01689200
v -0.08320400 -0.11669300 0.01689200
v -0.07950900 -0.11906900 0.00225200
v -0.07950900 -0.11902800 0.00317800
v -0.07950900 -0.11897200 0.00410500
v -0.07950900 -0.11890200 0.00503100
v -0.07950900 -0.11881700 0.00595700
v -0.07950900 -0.11871800 0.00688100
v -0.07950900 -0.11860500 0.00780500
v -0.07950900 -0.11847700 0.00872600
v -0.07950900 -0.11833500 0.00964600
v -0.07950900 -0.11817900 0.01056300
v -0.07950900 -0.11800900 0.01147800
v -0.07950900 -0.11782400 0.01239000
v -0.07950900 -0.11762600 0.01329800
v -0.07950900 -0.11762600 0.01329800
v -0.07950900 -0.11762600 0.01329800
v -0.07950900 -0.11741300 0.01420300
v -0.07950900 -0.11718700 0.01510400
v -0.07950900 -0.11694700 0.01600000
v -0.08689900 -0.11817800 0.01056700
v -0.08320400 -0.11762600 0.01329600
v -0.08320400 -0.11762600 0.01329600
v -0.08246500 -0.11906900 0.00225200
v -0.08098700 -0.11906900 0.00225200
v -0.08246500 -0.11767700 0.01306900
v -0.08246500 -0.11767700 0.01306900
v -0.08246500 -0.11782200 0.01240200
v -0.08246500 -0.11795800 0.01173400
v -0.08246500 -0.11808800 0.01106400
v -0.08246500 -0.11820900 0.01039200
v -0.08246500 -0.11832300 0.00971900
v -0.08246500 -0.11843000 0.00904500
v -0.08246500 -0.11852800 0.00836900
v -0.08246500 -0.11861900 0.00769200
v -0.08246500 -0.11870300 0.00701400
v -0.08246500 -0.11877800 0.00633500
v -0.08246500 -0.11884600 0.00565600
v -0.08246500 -0.11890600 0.00497600
v -0.08246500 -0.11895900 0.00429500
v -0.08246500 -0.11900300 0.00361400
v -0.08246500 -0.11904000 0.00293300
v -0.08320400 -0.11772700 0.01284300
v -0.09133300 -0.11906900 0.00225200
v -0.09133300 -0.11904000 0.00293300
v -0.09133300 -0.11900300 0.00361400
v -0.09133300 -0.11895900 0.00429500
v -0.09133300 -0.11890600 0.00497600
v -0.09133300 -0.11884600 0.00565600
v -0.09133300 -0.11877800 0.00633500
v -0.09133300 -0.11870300 0.00701400
v -0.09133300 -0.11861900 0.00769200
v -0.09133300 -0.11852800 0.00836900
v -0.09133300 -0.11843000 0.00904500
v -0.09133300 -0.11832300 0.00971900
v -0.09133300 -0.11820900 0.01039200
v -0.09133300 -0.11808800 0.01106400
v -0.09133300 -0.11795800 0.01173400
v -0.09133300 -0.11782200 0.01240200
v -0.09133300 -0.11767700 0.01306900
v -0.09133300 -0.11767700 0.01306900
v -0.09059400 -0.11762600 0.01329600
v -0.09059400 -0.11762600 0.01329600
v -0.09059400 -0.11772700 0.01284300
v -0.09059400 -0.11772700 0.01284300
v -0.09059400 -0.11741400 0.01420200
v -0.09355000 -0.11906900 0.00225200
v -0.09281100 -0.11906900 0.00225200
v -0.09207200 -0.11906900 0.00225200
v -0.09428900 -0.11669300 0.01689200
v -0.09428900 -0.11694700 0.01600000
v -0.09428900 -0.11718700 0.01510400
v -0.09428900 -0.11741300 0.01420300
v -0.09428900 -0.11762600 0.01329800
v -0.09428900 -0.11762600 0.01329800
v -0.09428900 -0.11782400 0.01239000
v -0.09428900 -0.11800900 0.01147800
v -0.09428900 -0.11817900 0.01056300
v -0.09428900 -0.11833500 0.00964600
v -0.09428900 -0.11847700 0.00872600
v -0.09428900 -0.11860500 0.00780500
v -0.09428900 -0.11871800 0.00688100
v -0.09428900 -0.11881700 0.00595700
v -0.09428900 -0.11890200 0.00503100
v -0.09428900 -0.11897200 0.00410500
v -0.09428900 -0.11902800 0.00317800
v -0.09059400 -0.11669300 0.01689200
v -0.09244200 -0.11669300 0.01689200
v -0.08366600 -0.11686300 0.01630100
v -0.08412700 -0.11702700 0.01570800
v -0.08458900 -0.11718400 0.01511400
v -0.08505100 -0.11733600 0.01451800
v -0.08551300 -0.11748100 0.01392000
v -0.08551300 -0.11748100 0.01392000
v -0.08597500 -0.11762100 0.01332100
v -0.08643700 -0.11775400 0.01272000
v -0.08689900 -0.11788100 0.01211800
v -0.08689900 -0.11788100 0.01211800
v -0.08505100 -0.11762600 0.01329600
v -0.08320400 -0.11752200 0.01374900
v -0.08320400 -0.11752200 0.01374900
v -0.08505100 -0.11752200 0.01374900
v -0.08505100 -0.11752200 0.01374900
v -0.08505100 -0.11772700 0.01284300
v -0.08505100 -0.11772700 0.01284300
v -0.08505100 -0.11800900 0.01147800
v -0.08689900 -0.11791800 0.01193400
v -0.08689900 -0.11791800 0.01193400
v -0.08505100 -0.11791800 0.01193400
v -0.08505100 -0.11791800 0.01193400
v -0.08318300 -0.11787200 0.01216000
v -0.08282400 -0.11777700 0.01261400
v -0.08282400 -0.11777700 0.01261400
v -0.08689900 -0.11867800 0.00722500
v -0.08643500 -0.11860000 0.00784100
v -0.08597100 -0.11851600 0.00845600
v -0.08550600 -0.11842600 0.00907000
v -0.08504100 -0.11832900 0.00968400
v -0.08457600 -0.11822400 0.01030500
v -0.08411200 -0.11811300 0.01092500
v -0.08364700 -0.11799600 0.01154300
v -0.08505100 -0.11817800 0.01056700
v -0.08689900 -0.11825800 0.01010900
v -0.08505100 -0.11825800 0.01010900
v -0.08689900 -0.11809500 0.01102300
v -0.08505100 -0.11809500 0.01102300
v -0.09068900 -0.11785800 0.01222700
v -0.09004500 -0.11802700 0.01138300
v -0.08940100 -0.11818400 0.01053500
v -0.08875700 -0.11832900 0.00968400
v -0.08829200 -0.11842600 0.00907000
v -0.08782700 -0.11851600 0.00845600
v -0.08736200 -0.11860000 0.00784100
v -0.08874700 -0.11817800 0.01056700
v -0.08874700 -0.11825800 0.01010900
v -0.08736100 -0.11775400 0.01272000
v -0.08782300 -0.11762100 0.01332100
v -0.08828500 -0.11748100 0.01392000
v -0.08874700 -0.11733600 0.01451800
v -0.08920900 -0.11718400 0.01511400
v -0.08967100 -0.11702700 0.01570800
v -0.09013200 -0.11686300 0.01630100
v -0.08874700 -0.11762600 0.01329600
v -0.08874700 -0.11772700 0.01284300
v -0.08874700 -0.11741400 0.01420200
v -0.09059400 -0.11752200 0.01374900
v -0.08874700 -0.11752200 0.01374900
v -0.08689900 -0.11869600 0.01161200
v -0.09428900 -0.11976800 0.00227800
v -0.09330400 -0.11976800 0.00227800
v -0.09231900 -0.11976800 0.00227800
v -0.09133300 -0.11976800 0.00227800
v -0.09133300 -0.11973900 0.00296800
v -0.09133300 -0.11970200 0.00365900
v -0.09133300 -0.11965600 0.00434900
v -0.09133300 -0.11960300 0.00503800
v -0.09133300 -0.11954200 0.00572700
v -0.09133300 -0.11947400 0.00641500
v -0.09133300 -0.11939700 0.00710200
v -0.09133300 -0.11931300 0.00778800
v -0.09133300 -0.11922100 0.00847300
v -0.09133300 -0.11912100 0.00915600
v -0.09133300 -0.11901300 0.00983800
v -0.09133300 -0.11889800 0.01051800
v -0.09133300 -0.11877500 0.01119700
v -0.09133300 -0.11864400 0.01187400
v -0.09133300 -0.11850600 0.01254800
v -0.09133300 -0.11836100 0.01322100
v -0.09133300 -0.11836100 0.01322100
v -0.08689900 -0.11886800 0.01068900
v -0.09059400 -0.11830900 0.01345100
v -0.09059400 -0.11830900 0.01345100
v -0.09059400 -0.11841100 0.01299300
v -0.09059400 -0.11841100 0.01299300
v -0.09059400 -0.11809400 0.01436700
v -0.08246500 -0.11836100 0.01322100
v -0.08246500 -0.11850600 0.01254800
v -0.08246500 -0.11864400 0.01187400
v -0.08246500 -0.11877500 0.01119700
v -0.08246500 -0.11889800 0.01051800
v -0.08246500 -0.11901300 0.00983800
v -0.08246500 -0.11912100 0.00915600
v -0.08246500 -0.11922100 0.00847300
v -0.08246500 -0.11931300 0.00778800
v -0.08246500 -0.11939700 0.00710200
v -0.08246500 -0.11947400 0.00641500
v -0.08246500 -0.11954200 0.00572700
v -0.08246500 -0.11960300 0.00503800
v -0.08246500 -0.11965600 0.00434900
v -0.08246500 -0.11970200 0.00365900
v -0.08246500 -0.11973900 0.00296800
v -0.08320400 -0.11830900 0.01345100
v -0.08320400 -0.11830900 0.01345100
v -0.08320400 -0.11841100 0.01299300
v -0.08320400 -0.11841100 0.01299300
v -0.08246500 -0.11976800 0.00227800
v -0.08098700 -0.11976800 0.00227800
v -0.07950900 -0.11976800 0.00227800
v -0.07950900 -0.11972600 0.00322000
v -0.07950900 -0.11967000 0.00416100
v -0.07950900 -0.11959800 0.00510200
v -0.07950900 -0.11951200 0.00604100
v -0.07950900 -0.11941100 0.00697900
v -0.07950900 -0.11929600 0.00791400
v -0.07950900 -0.11916700 0.00884800
v -0.07950900 -0.11902300 0.00977800
v -0.07950900 -0.11886500 0.01070600
v -0.07950900 -0.11869200 0.01163000
v -0.07950900 -0.11850600 0.01255100
v -0.07950900 -0.11830500 0.01346800
v -0.07950900 -0.11809100 0.01438000
v -0.07950900 -0.11786200 0.01528800
v -0.07950900 -0.11762000 0.01619100
v -0.07950900 -0.11736500 0.01708900
v -0.08135600 -0.11736500 0.01708900
v -0.08320400 -0.11736500 0.01708900
v -0.09059400 -0.11736500 0.01708900
v -0.09244200 -0.11736500 0.01708900
v -0.09428900 -0.11736500 0.01708900
v -0.09428900 -0.11762000 0.01619100
v -0.09428900 -0.11786200 0.01528800
v -0.09428900 -0.11809100 0.01438000
v -0.09428900 -0.11830500 0.01346800
v -0.09428900 -0.11850600 0.01255100
v -0.09428900 -0.11869200 0.01163000
v -0.09428900 -0.11886500 0.01070600
v -0.09428900 -0.11902300 0.00977800
v -0.09428900 -0.11916700 0.00884800
v -0.09428900 -0.11929600 0.00791400
v -0.09428900 -0.11941100 0.00697900
v -0.09428900 -0.11951200 0.00604100
v -0.09428900 -0.11959800 0.00510200
v -0.09428900 -0.11967000 0.00416100
v -0.09428900 -0.11972600 0.00322000
v -0.08366600 -0.11753700 0.01649100
v -0.08412700 -0.11770200 0.01589100
v -0.08458900 -0.11786200 0.01529000
v -0.08505100 -0.11801500 0.01468700
v -0.08551300 -0.11816200 0.01408200
v -0.08551300 -0.11816200 0.01408200
v -0.08597500 -0.11830300 0.01347600
v -0.08643700 -0.11843800 0.01286800
v -0.08689900 -0.11856600 0.01225900
v -0.08689900 -0.11856600 0.01225900
v -0.08505100 -0.11830900 0.01345100
v -0.08320400 -0.11820300 0.01390900
v -0.08320400 -0.11820300 0.01390900
v -0.08505100 -0.11820300 0.01390900
v -0.08505100 -0.11820300 0.01390900
v -0.08505100 -0.11841100 0.01299300
v -0.08505100 -0.11869600 0.01161200
v -0.08689900 -0.11860400 0.01207300
v -0.08689900 -0.11860400 0.01207300
v -0.08505100 -0.11860400 0.01207300
v -0.08505100 -0.11860400 0.01207300
v -0.08318300 -0.11855800 0.01230100
v -0.08282400 -0.11846100 0.01276100
v -0.08282400 -0.11846100 0.01276100
v -0.08689900 -0.11937300 0.00730900
v -0.08643500 -0.11929400 0.00793200
v -0.08597100 -0.11920900 0.00855400
v -0.08550600 -0.11911800 0.00917600
v -0.08504100 -0.11902000 0.00979700
v -0.08457600 -0.11891400 0.01042500
v -0.08411200 -0.11880200 0.01105200
v -0.08364700 -0.11868300 0.01167800
v -0.08505100 -0.11886800 0.01068900
v -0.08689900 -0.11894800 0.01022700
v -0.08505100 -0.11894800 0.01022700
v -0.08689900 -0.11878300 0.01115100
v -0.08505100 -0.11878300 0.01115100
v -0.09068900 -0.11854400 0.01236900
v -0.09004500 -0.11871500 0.01151500
v -0.08940100 -0.11887300 0.01065700
v -0.08875700 -0.11902000 0.00979700
v -0.08829200 -0.11911800 0.00917600
v -0.08782700 -0.11920900 0.00855400
v -0.08736300 -0.11929400 0.00793200
v -0.08874700 -0.11886800 0.01068900
v -0.08874700 -0.11894800 0.01022700
v -0.08736100 -0.11843800 0.01286800
v -0.08782300 -0.11830300 0.01347600
v -0.08828500 -0.11816200 0.01408200
v -0.08874700 -0.11801500 0.01468700
v -0.08920900 -0.11786200 0.01529000
v -0.08967100 -0.11770200 0.01589100
v -0.09013200 -0.11753700 0.01649100
v -0.08874700 -0.11830900 0.01345100
v -0.08874700 -0.11841100 0.01299300
v -0.08874700 -0.11809400 0.01436700
v -0.09059400 -0.11820300 0.01390900
v -0.08874700 -0.11820300 0.01390900
v -0.08320400 -0.11669300 0.01689200
v -0.08320400 -0.11736500 0.01708900
v -0.08689900 -0.11788100 0.01211800
v -0.08689900 -0.11856600 0.01225900
v -0.08366600 -0.11686300 0.01630100
v -0.08412700 -0.11702700 0.01570800
v -0.08458900 -0.11718400 0.01511400
v -0.08505100 -0.11733600 0.01451800
v -0.08551300 -0.11748100 0.01392000
v -0.08597500 -0.11762100 0.01332100
v -0.08643700 -0.11775400 0.01272000
v -0.08643700 -0.11843800 0.01286800
v -0.08597500 -0.11830300 0.01347600
v -0.08551300 -0.11816200 0.01408200
v -0.08505100 -0.11801500 0.01468700
v -0.08458900 -0.11786200 0.01529000
v -0.08412700 -0.11770200 0.01589100
v -0.08366600 -0.11753700 0.01649100
v -0.08412800 -0.11736500 0.01580000
v -0.08597500 -0.11796200 0.01339800
v -0.07950900 -0.11669300 0.01689200
v -0.07950900 -0.11736500 0.01708900
v -0.08320400 -0.11669300 0.01689200
v -0.08320400 -0.11736500 0.01708900
v -0.08320400 -0.11736500 0.01708900
v -0.08135600 -0.11669300 0.01689200
v -0.08135600 -0.11669300 0.01689200
v -0.08135600 -0.11736500 0.01708900
v -0.08135600 -0.11736500 0.01708900
v -0.07950900 -0.11906900 0.00225200
v -0.07950900 -0.11976800 0.00227800
v -0.07950900 -0.11669300 0.01689200
v -0.07950900 -0.11736500 0.01708900
v -0.07950900 -0.11902800 0.00317800
v -0.07950900 -0.11897200 0.00410500
v -0.07950900 -0.11890200 0.00503100
v -0.07950900 -0.11881700 0.00595700
v -0.07950900 -0.11871800 0.00688100
v -0.07950900 -0.11860500 0.00780500
v -0.07950900 -0.11847700 0.00872600
v -0.07950900 -0.11833500 0.00964600
v -0.07950900 -0.11817900 0.01056300
v -0.07950900 -0.11800900 0.01147800
v -0.07950900 -0.11782400 0.01239000
v -0.07950900 -0.11762600 0.01329800
v -0.07950900 -0.11741300 0.01420300
v -0.07950900 -0.11718700 0.01510400
v -0.07950900 -0.11694700 0.01600000
v -0.07950900 -0.11762000 0.01619100
v -0.07950900 -0.11786200 0.01528800
v -0.07950900 -0.11809100 0.01438000
v -0.07950900 -0.11830500 0.01346800
v -0.07950900 -0.11850600 0.01255100
v -0.07950900 -0.11869200 0.01163000
v -0.07950900 -0.11886500 0.01070600
v -0.07950900 -0.11902300 0.00977800
v -0.07950900 -0.11916700 0.00884800
v -0.07950900 -0.11929600 0.00791400
v -0.07950900 -0.11941100 0.00697900
v -0.07950900 -0.11951200 0.00604100
v -0.07950900 -0.11959800 0.00510200
v -0.07950900 -0.11967000 0.00416100
v -0.07950900 -0.11972600 0.00322000
v -0.08246500 -0.11906900 0.00225200
v -0.08246500 -0.11976800 0.00227800
v -0.07950900 -0.11906900 0.00225200
v -0.07950900 -0.11976800 0.00227800
v -0.08098700 -0.11906900 0.00225200
v -0.08098700 -0.11976800 0.00227800
v -0.08246500 -0.11767700 0.01306900
v -0.08246500 -0.11836100 0.01322100
v -0.08246500 -0.11906900 0.00225200
v -0.08246500 -0.11976800 0.00227800
v -0.08246500 -0.11782200 0.01240200
v -0.08246500 -0.11795800 0.01173400
v -0.08246500 -0.11808800 0.01106400
v -0.08246500 -0.11820900 0.01039200
v -0.08246500 -0.11832300 0.00971900
v -0.08246500 -0.11843000 0.00904500
v -0.08246500 -0.11852800 0.00836900
v -0.08246500 -0.11861900 0.00769200
v -0.08246500 -0.11870300 0.00701400
v -0.08246500 -0.11877800 0.00633500
v -0.08246500 -0.11884600 0.00565600
v -0.08246500 -0.11890600 0.00497600
v -0.08246500 -0.11895900 0.00429500
v -0.08246500 -0.11900300 0.00361400
v -0.08246500 -0.11904000 0.00293300
v -0.08246500 -0.11973900 0.00296800
v -0.08246500 -0.11970200 0.00365900
v -0.08246500 -0.11965600 0.00434900
v -0.08246500 -0.11960300 0.00503800
v -0.08246500 -0.11954200 0.00572700
v -0.08246500 -0.11947400 0.00641500
v -0.08246500 -0.11939700 0.00710200
v -0.08246500 -0.11931300 0.00778800
v -0.08246500 -0.11922100 0.00847300
v -0.08246500 -0.11912100 0.00915600
v -0.08246500 -0.11901300 0.00983800
v -0.08246500 -0.11889800 0.01051800
v -0.08246500 -0.11877500 0.01119700
v -0.08246500 -0.11864400 0.01187400
v -0.08246500 -0.11850600 0.01254800
v -0.08246500 -0.11830200 0.01180100
v -0.08246500 -0.11877600 0.00909600
v -0.08246500 -0.11896700 0.00773600
v -0.08246500 -0.11912600 0.00637100
v -0.08246500 -0.11925500 0.00500400
v -0.08246500 -0.11935200 0.00363500
v -0.08318300 -0.11787200 0.01216000
v -0.08318300 -0.11855800 0.01230100
v -0.08246500 -0.11767700 0.01306900
v -0.08246500 -0.11836100 0.01322100
v -0.08282400 -0.11777700 0.01261400
v -0.08282400 -0.11846100 0.01276100
v -0.08689900 -0.11867800 0.00722500
v -0.08689900 -0.11937300 0.00730900
v -0.08318300 -0.11787200 0.01216000
v -0.08318300 -0.11855800 0.01230100
v -0.08643500 -0.11860000 0.00784100
v -0.08597100 -0.11851600 0.00845600
v -0.08550600 -0.11842600 0.00907000
v -0.08504100 -0.11832900 0.00968400
v -0.08457600 -0.11822400 0.01030500
v -0.08411200 -0.11811300 0.01092500
v -0.08364700 -0.11799600 0.01154300
v -0.08364700 -0.11868300 0.01167800
v -0.08411200 -0.11880200 0.01105200
v -0.08457600 -0.11891400 0.01042500
v -0.08504100 -0.11902000 0.00979700
v -0.08550600 -0.11911800 0.00917600
v -0.08597100 -0.11920900 0.00855400
v -0.08643500 -0.11929400 0.00793200
v -0.08596700 -0.11886200 0.00851100
v -0.08410800 -0.11845700 0.01099400
v -0.09133300 -0.11767700 0.01306900
v -0.09133300 -0.11836100 0.01322100
v -0.08689900 -0.11867800 0.00722500
v -0.08689900 -0.11937300 0.00730900
v -0.09068900 -0.11785800 0.01222700
v -0.09004500 -0.11802700 0.01138300
v -0.08940100 -0.11818400 0.01053500
v -0.08875700 -0.11832900 0.00968400
v -0.08829200 -0.11842600 0.00907000
v -0.08782700 -0.11851600 0.00845600
v -0.08736200 -0.11860000 0.00784100
v -0.08736300 -0.11929400 0.00793200
v -0.08782700 -0.11920900 0.00855400
v -0.08829200 -0.11911800 0.00917600
v -0.08875700 -0.11902000 0.00979700
v -0.08940100 -0.11887300 0.01065700
v -0.09004500 -0.11871500 0.01151500
v -0.09068900 -0.11854400 0.01236900
v -0.09133300 -0.11906900 0.00225200
v -0.09133300 -0.11976800 0.00227800
v -0.09133300 -0.11767700 0.01306900
v -0.09133300 -0.11836100 0.01322100
v -0.09133300 -0.11836100 0.01322100
v -0.09133300 -0.11904000 0.00293300
v -0.09133300 -0.11900300 0.00361400
v -0.09133300 -0.11895900 0.00429500
v -0.09133300 -0.11890600 0.00497600
v -0.09133300 -0.11890600 0.00497600
v -0.09133300 -0.11884600 0.00565600
v -0.09133300 -0.11884600 0.00565600
v -0.09133300 -0.11877800 0.00633500
v -0.09133300 -0.11870300 0.00701400
v -0.09133300 -0.11870300 0.00701400
v -0.09133300 -0.11870300 0.00701400
v -0.09133300 -0.11861900 0.00769200
v -0.09133300 -0.11861900 0.00769200
v -0.09133300 -0.11852800 0.00836900
v -0.09133300 -0.11852800 0.00836900
v -0.09133300 -0.11843000 0.00904500
v -0.09133300 -0.11843000 0.00904500
v -0.09133300 -0.11832300 0.00971900
v -0.09133300 -0.11820900 0.01039200
v -0.09133300 -0.11808800 0.01106400
v -0.09133300 -0.11808800 0.01106400
v -0.09133300 -0.11795800 0.01173400
v -0.09133300 -0.11795800 0.01173400
v -0.09133300 -0.11782200 0.01240200
v -0.09133300 -0.11850600 0.01254800
v -0.09133300 -0.11850600 0.01254800
v -0.09133300 -0.11864400 0.01187400
v -0.09133300 -0.11877500 0.01119700
v -0.09133300 -0.11889800 0.01051800
v -0.09133300 -0.11901300 0.00983800
v -0.09133300 -0.11912100 0.00915600
v -0.09133300 -0.11922100 0.00847300
v -0.09133300 -0.11931300 0.00778800
v -0.09133300 -0.11939700 0.00710200
v -0.09133300 -0.11947400 0.00641500
v -0.09133300 -0.11954200 0.00572700
v -0.09133300 -0.11960300 0.00503800
v -0.09133300 -0.11965600 0.00434900
v -0.09133300 -0.11970200 0.00365900
v -0.09133300 -0.11973900 0.00296800
v -0.09133300 -0.11935200 0.00363600
v -0.09133300 -0.11912600 0.00637300
v -0.09133300 -0.11912600 0.00637300
v -0.09133300 -0.11896600 0.00773700
v -0.09133300 -0.11896600 0.00773700
v -0.09133300 -0.11896600 0.00773700
v -0.09133300 -0.11877600 0.00909800
v -0.09133300 -0.11877600 0.00909800
v -0.09133300 -0.11855400 0.01045300
v -0.09133300 -0.11830200 0.01180200
v -0.09133300 -0.11830200 0.01180200
v -0.09133300 -0.11830200 0.01180200
v -0.09428900 -0.11906900 0.00225200
v -0.09428900 -0.11976800 0.00227800
v -0.09133300 -0.11906900 0.00225200
v -0.09133300 -0.11976800 0.00227800
v -0.09355000 -0.11906900 0.00225200
v -0.09281100 -0.11906900 0.00225200
v -0.09207200 -0.11906900 0.00225200
v -0.09231900 -0.11976800 0.00227800
v -0.09330400 -0.11976800 0.00227800
v -0.09428900 -0.11669300 0.01689200
v -0.09428900 -0.11736500 0.01708900
v -0.09428900 -0.11906900 0.00225200
v -0.09428900 -0.11976800 0.00227800
v -0.09428900 -0.11694700 0.01600000
v -0.09428900 -0.11718700 0.01510400
v -0.09428900 -0.11741300 0.01420300
v -0.09428900 -0.11762600 0.01329800
v -0.09428900 -0.11782400 0.01239000
v -0.09428900 -0.11800900 0.01147800
v -0.09428900 -0.11817900 0.01056300
v -0.09428900 -0.11833500 0.00964600
v -0.09428900 -0.11847700 0.00872600
v -0.09428900 -0.11860500 0.00780500
v -0.09428900 -0.11871800 0.00688100
v -0.09428900 -0.11881700 0.00595700
v -0.09428900 -0.11890200 0.00503100
v -0.09428900 -0.11897200 0.00410500
v -0.09428900 -0.11902800 0.00317800
v -0.09428900 -0.11972600 0.00322000
v -0.09428900 -0.11967000 0.00416100
v -0.09428900 -0.11959800 0.00510200
v -0.09428900 -0.11951200 0.00604100
v -0.09428900 -0.11941100 0.00697900
v -0.09428900 -0.11929600 0.00791400
v -0.09428900 -0.11916700 0.00884800
v -0.09428900 -0.11902300 0.00977800
v -0.09428900 -0.11886500 0.01070600
v -0.09428900 -0.11869200 0.01163000
v -0.09428900 -0.11850600 0.01255100
v -0.09428900 -0.11830500 0.01346800
v -0.09428900 -0.11809100 0.01438000
v -0.09428900 -0.11786200 0.01528800
v -0.09428900 -0.11762000 0.01619100
v -0.09428900 -0.11752600 0.01519000
v -0.09428900 -0.11835300 0.01154200
v -0.09428900 -0.11868100 0.00970000
v -0.09428900 -0.11895200 0.00784800
v -0.09428900 -0.11916500 0.00599000
v -0.09428900 -0.11932100 0.00412800
v -0.09059400 -0.11669300 0.01689200
v -0.09059400 -0.11736500 0.01708900
v -0.09428900 -0.11669300 0.01689200
v -0.09428900 -0.11736500 0.01708900
v -0.09428900 -0.11736500 0.01708900
v -0.09244200 -0.11669300 0.01689200
v -0.09244200 -0.11669300 0.01689200
v -0.09244200 -0.11736500 0.01708900
v -0.09244200 -0.11736500 0.01708900
v -0.08689900 -0.11788100 0.01211800
v -0.08689900 -0.11856600 0.01225900
v -0.09059400 -0.11669300 0.01689200
v -0.09059400 -0.11736500 0.01708900
v -0.08736100 -0.11775400 0.01272000
v -0.08782300 -0.11762100 0.01332100
v -0.08828500 -0.11748100 0.01392000
v -0.08874700 -0.11733600 0.01451800
v -0.08920900 -0.11718400 0.01511400
v -0.08967100 -0.11702700 0.01570800
v -0.09013200 -0.11686300 0.01630100
v -0.09013200 -0.11753700 0.01649100
v -0.08967100 -0.11770200 0.01589100
v -0.08920900 -0.11786200 0.01529000
v -0.08874700 -0.11801500 0.01468700
v -0.08828500 -0.11816200 0.01408200
v -0.08782300 -0.11830300 0.01347600
v -0.08736100 -0.11843800 0.01286800
vn 0.00000000 0.98160000 -0.19070000
vn 0.00000000 0.99930000 -0.03690000
vn -0.00000000 0.95970000 -0.28090000
vn -0.00000000 0.95970000 -0.28100000
vn -0.00000000 0.95970000 -0.28100000
vn 0.00000000 0.99930000 -0.03690000
vn -0.00030000 0.99860000 -0.05220000
vn -0.00040000 0.99770000 -0.06790000
vn -0.00040000 0.99650000 -0.08320000
vn -0.00000000 0.99510000 -0.09870000
vn -0.00040000 0.99350000 -0.11420000
vn -0.00010000 0.99160000 -0.12950000
vn 0.00010000 0.98950000 -0.14480000
vn -0.00040000 0.98710000 -0.16020000
vn -0.00010000 0.98450000 -0.17540000
vn -0.00050000 0.98160000 -0.19070000
vn -0.00040000 0.97860000 -0.20590000
vn -0.00000000 0.97530000 -0.22100000
vn 0.00000000 0.97530000 -0.22090000
vn 0.00000000 0.97530000 -0.22110000
vn -0.00040000 0.97170000 -0.23620000
vn -0.00030000 0.96800000 -0.25110000
vn -0.00020000 0.96390000 -0.26620000
vn 0.00000000 0.98450000 -0.17550000
vn 0.00000000 0.97530000 -0.22090000
vn 0.00010000 0.97520000 -0.22120000
vn 0.00000000 0.99930000 -0.03690000
vn 0.00000000 0.99930000 -0.03690000
vn -0.00000000 0.97610000 -0.21730000
vn -0.00000000 0.97610000 -0.21720000
vn 0.00000000 0.97850000 -0.20610000
vn 0.00010000 0.98080000 -0.19510000
vn 0.00020000 0.98300000 -0.18380000
vn -0.00000000 0.98500000 -0.17250000
vn 0.00000000 0.98690000 -0.16150000
vn 0.00020000 0.98870000 -0.15020000
vn 0.00020000 0.99030000 -0.13880000
vn -0.00000000 0.99180000 -0.12750000
vn 0.00000000 0.99320000 -0.11650000
vn 0.00020000 0.99450000 -0.10500000
vn 0.00010000 0.99560000 -0.09360000
vn 0.00000000 0.99660000 -0.08230000
vn -0.00000000 0.99750000 -0.07110000
vn 0.00020000 0.99820000 -0.05970000
vn 0.00010000 0.99880000 -0.04820000
vn -0.00000000 0.97690000 -0.21350000
vn 0.00000000 0.99930000 -0.03690000
vn -0.00010000 0.99880000 -0.04820000
vn -0.00020000 0.99820000 -0.05970000
vn -0.00000000 0.99750000 -0.07110000
vn 0.00000000 0.99660000 -0.08230000
vn -0.00010000 0.99560000 -0.09360000
vn -0.00020000 0.99450000 -0.10500000
vn 0.00000000 0.99320000 -0.11650000
vn -0.00000000 0.99180000 -0.12750000
vn -0.00020000 0.99030000 -0.13890000
vn -0.00020000 0.98870000 -0.15020000
vn 0.00000000 0.98690000 -0.16150000
vn -0.00000000 0.98500000 -0.17250000
vn -0.00020000 0.98300000 -0.18380000
vn -0.00010000 0.98080000 -0.19510000
vn 0.00000000 0.97850000 -0.20610000
vn -0.00000000 0.97610000 -0.21730000
vn -0.00000000 0.97610000 -0.21720000
vn 0.00000000 0.97530000 -0.22090000
vn -0.00000000 0.97530000 -0.22100000
vn -0.00000000 0.97690000 -0.21350000
vn 0.00000000 0.97700000 -0.21340000
vn 0.00000000 0.97170000 -0.23610000
vn 0.00000000 0.99930000 -0.03690000
vn 0.00000000 0.99930000 -0.03690000
vn 0.00000000 0.99930000 -0.03690000
vn -0.00000000 0.95970000 -0.28090000
vn 0.00020000 0.96390000 -0.26620000
vn 0.00020000 0.96800000 -0.25100000
vn 0.00020000 0.97170000 -0.23630000
vn 0.00000000 0.97530000 -0.22110000
vn 0.00000000 0.97530000 -0.22090000
vn 0.00040000 0.97860000 -0.20590000
vn 0.00050000 0.98160000 -0.19070000
vn 0.00040000 0.98450000 -0.17540000
vn 0.00010000 0.98710000 -0.16020000
vn 0.00000000 0.98950000 -0.14480000
vn 0.00010000 0.99160000 -0.12950000
vn 0.00010000 0.99350000 -0.11410000
vn 0.00020000 0.99510000 -0.09870000
vn 0.00040000 0.99650000 -0.08320000
vn 0.00010000 0.99770000 -0.06780000
vn 0.00010000 0.99860000 -0.05230000
vn -0.00000000 0.95970000 -0.28100000
vn -0.00000000 0.95970000 -0.28100000
vn 0.00000000 0.96260000 -0.27100000
vn -0.00000000 0.96530000 -0.26120000
vn 0.00000000 0.96790000 -0.25130000
vn -0.00000000 0.97040000 -0.24140000
vn 0.00000000 0.97290000 -0.23140000
vn -0.00000000 0.97290000 -0.23130000
vn 0.00000000 0.97520000 -0.22140000
vn -0.00000000 0.97740000 -0.21130000
vn -0.00000000 0.97950000 -0.20140000
vn 0.00000000 0.97950000 -0.20150000
vn -0.00000000 0.97530000 -0.22100000
vn 0.00000000 0.97350000 -0.22870000
vn -0.00000000 0.97350000 -0.22850000
vn -0.00000000 0.97350000 -0.22850000
vn 0.00000000 0.97350000 -0.22860000
vn 0.00000000 0.97700000 -0.21340000
vn -0.00000000 0.97690000 -0.21350000
vn -0.00000000 0.98170000 -0.19070000
vn 0.00000000 0.98010000 -0.19840000
vn 0.00000000 0.98010000 -0.19830000
vn 0.00000000 0.98010000 -0.19840000
vn 0.00000000 0.98010000 -0.19830000
vn 0.00000000 0.97940000 -0.20210000
vn 0.00000000 0.97780000 -0.20960000
vn -0.00000000 0.97780000 -0.20970000
vn -0.00000000 0.99280000 -0.11980000
vn -0.00000000 0.99150000 -0.13010000
vn -0.00000000 0.99010000 -0.14040000
vn -0.00000000 0.98860000 -0.15060000
vn -0.00000000 0.98700000 -0.16080000
vn -0.00000000 0.98520000 -0.17120000
vn -0.00000000 0.98340000 -0.18150000
vn -0.00000000 0.98140000 -0.19190000
vn 0.00000000 0.98450000 -0.17560000
vn 0.00000000 0.98580000 -0.16800000
vn -0.00000000 0.98580000 -0.16790000
vn 0.00000000 0.98310000 -0.18310000
vn 0.00000000 0.98310000 -0.18320000
vn 0.00000000 0.97910000 -0.20320000
vn 0.00000000 0.98190000 -0.18920000
vn -0.00000000 0.98460000 -0.17500000
vn -0.00000000 0.98700000 -0.16080000
vn -0.00000000 0.98860000 -0.15060000
vn -0.00000000 0.99010000 -0.14030000
vn -0.00000000 0.99150000 -0.13010000
vn 0.00000000 0.98450000 -0.17550000
vn -0.00000000 0.98580000 -0.16790000
vn 0.00000000 0.97740000 -0.21140000
vn 0.00000000 0.97520000 -0.22150000
vn -0.00000000 0.97290000 -0.23130000
vn 0.00010000 0.97040000 -0.24140000
vn 0.00000000 0.96790000 -0.25130000
vn -0.00000000 0.96530000 -0.26120000
vn -0.00000000 0.96260000 -0.27110000
vn -0.00000000 0.97530000 -0.22100000
vn -0.00000000 0.97700000 -0.21330000
vn 0.00000000 0.97170000 -0.23610000
vn 0.00000000 0.97350000 -0.22860000
vn 0.00000000 0.97360000 -0.22840000
vn -0.00000000 -0.98160000 0.19070000
vn 0.00000000 -0.99930000 0.03700000
vn 0.00000000 -0.99930000 0.03690000
vn 0.00000000 -0.99930000 0.03690000
vn 0.00000000 -0.99930000 0.03690000
vn 0.00010000 -0.99880000 0.04820000
vn 0.00020000 -0.99820000 0.05970000
vn 0.00000000 -0.99750000 0.07120000
vn 0.00000000 -0.99660000 0.08230000
vn 0.00010000 -0.99560000 0.09370000
vn 0.00020000 -0.99450000 0.10510000
vn -0.00000000 -0.99320000 0.11660000
vn -0.00010000 -0.99180000 0.12760000
vn 0.00020000 -0.99030000 0.13900000
vn 0.00010000 -0.98860000 0.15030000
vn -0.00000000 -0.98690000 0.16160000
vn -0.00010000 -0.98490000 0.17290000
vn 0.00020000 -0.98300000 0.18380000
vn -0.00010000 -0.98080000 0.19490000
vn -0.00000000 -0.97850000 0.20610000
vn 0.00000000 -0.97610000 0.21730000
vn 0.00000000 -0.97610000 0.21720000
vn 0.00000000 -0.98450000 0.17550000
vn 0.00000000 -0.97530000 0.22100000
vn 0.00000000 -0.97530000 0.22110000
vn -0.00000000 -0.97690000 0.21350000
vn 0.00000000 -0.97700000 0.21340000
vn 0.00000000 -0.97170000 0.23610000
vn 0.00000000 -0.97610000 0.21720000
vn -0.00000000 -0.97850000 0.20610000
vn -0.00010000 -0.98080000 0.19510000
vn -0.00020000 -0.98300000 0.18390000
vn -0.00000000 -0.98500000 0.17260000
vn -0.00000000 -0.98690000 0.16160000
vn -0.00010000 -0.98860000 0.15030000
vn -0.00020000 -0.99030000 0.13900000
vn 0.00010000 -0.99180000 0.12760000
vn -0.00000000 -0.99320000 0.11660000
vn 0.00030000 -0.99450000 0.10510000
vn -0.00010000 -0.99560000 0.09370000
vn 0.00000000 -0.99660000 0.08230000
vn 0.00000000 -0.99750000 0.07120000
vn -0.00020000 -0.99820000 0.05970000
vn -0.00010000 -0.99880000 0.04820000
vn 0.00000000 -0.97530000 0.22090000
vn -0.00010000 -0.97520000 0.22120000
vn 0.00000000 -0.97700000 0.21340000
vn -0.00000000 -0.97690000 0.21350000
vn 0.00000000 -0.99930000 0.03690000
vn 0.00000000 -0.99930000 0.03690000
vn 0.00000000 -0.99930000 0.03700000
vn 0.00030000 -0.99860000 0.05230000
vn 0.00040000 -0.99770000 0.06800000
vn -0.00010000 -0.99650000 0.08350000
vn 0.00000000 -0.99510000 0.09890000
vn 0.00010000 -0.99340000 0.11440000
vn 0.00010000 -0.99150000 0.12980000
vn -0.00010000 -0.98940000 0.14520000
vn 0.00040000 -0.98700000 0.16050000
vn 0.00040000 -0.98440000 0.17570000
vn 0.00010000 -0.98160000 0.19100000
vn 0.00040000 -0.97850000 0.20620000
vn -0.00000000 -0.97520000 0.22130000
vn 0.00030000 -0.97170000 0.23640000
vn 0.00030000 -0.96790000 0.25130000
vn 0.00020000 -0.96390000 0.26630000
vn 0.00000000 -0.95970000 0.28100000
vn 0.00000000 -0.95970000 0.28100000
vn -0.00000000 -0.95970000 0.28090000
vn 0.00000000 -0.95970000 0.28100000
vn 0.00000000 -0.95970000 0.28100000
vn 0.00000000 -0.95970000 0.28100000
vn -0.00020000 -0.96390000 0.26630000
vn -0.00010000 -0.96790000 0.25120000
vn -0.00020000 -0.97160000 0.23650000
vn -0.00000000 -0.97520000 0.22130000
vn -0.00040000 -0.97850000 0.20620000
vn -0.00000000 -0.98160000 0.19100000
vn -0.00040000 -0.98440000 0.17570000
vn -0.00010000 -0.98700000 0.16050000
vn -0.00000000 -0.98940000 0.14520000
vn -0.00010000 -0.99150000 0.12980000
vn -0.00010000 -0.99340000 0.11440000
vn -0.00020000 -0.99510000 0.09890000
vn -0.00010000 -0.99650000 0.08350000
vn -0.00040000 -0.99770000 0.06800000
vn -0.00040000 -0.99860000 0.05230000
vn -0.00000000 -0.96260000 0.27110000
vn 0.00000000 -0.96530000 0.26120000
vn -0.00000000 -0.96790000 0.25130000
vn 0.00000000 -0.97040000 0.24140000
vn 0.00000000 -0.97290000 0.23140000
vn 0.00000000 -0.97290000 0.23130000
vn 0.00000000 -0.97520000 0.22140000
vn -0.00000000 -0.97740000 0.21130000
vn -0.00000000 -0.97950000 0.20140000
vn -0.00000000 -0.97950000 0.20150000
vn 0.00000000 -0.97530000 0.22100000
vn -0.00000000 -0.97350000 0.22860000
vn 0.00000000 -0.97350000 0.22870000
vn 0.00000000 -0.97350000 0.22870000
vn -0.00000000 -0.97350000 0.22850000
vn 0.00000000 -0.97700000 0.21340000
vn 0.00000000 -0.98170000 0.19060000
vn 0.00000000 -0.98010000 0.19850000
vn -0.00000000 -0.98010000 0.19830000
vn 0.00000000 -0.98010000 0.19850000
vn -0.00000000 -0.98010000 0.19830000
vn 0.00000000 -0.97940000 0.20210000
vn 0.00000000 -0.97780000 0.20970000
vn 0.00000000 -0.97780000 0.20960000
vn -0.00000000 -0.99280000 0.11980000
vn -0.00000000 -0.99150000 0.13010000
vn 0.00000000 -0.99010000 0.14040000
vn -0.00000000 -0.98860000 0.15060000
vn -0.00000000 -0.98700000 0.16080000
vn 0.00000000 -0.98520000 0.17120000
vn 0.00000000 -0.98340000 0.18150000
vn 0.00000000 -0.98140000 0.19180000
vn -0.00000000 -0.98450000 0.17560000
vn -0.00000000 -0.98580000 0.16800000
vn -0.00010000 -0.98580000 0.16790000
vn -0.00000000 -0.98310000 0.18310000
vn -0.00000000 -0.98310000 0.18320000
vn 0.00000000 -0.97910000 0.20320000
vn -0.00000000 -0.98190000 0.18920000
vn -0.00000000 -0.98460000 0.17500000
vn -0.00000000 -0.98700000 0.16080000
vn -0.00000000 -0.98860000 0.15060000
vn 0.00000000 -0.99010000 0.14040000
vn -0.00000000 -0.99150000 0.13010000
vn -0.00000000 -0.98450000 0.17560000
vn 0.00000000 -0.98580000 0.16790000
vn -0.00000000 -0.97740000 0.21130000
vn 0.00000000 -0.97520000 0.22140000
vn 0.00000000 -0.97290000 0.23130000
vn -0.00010000 -0.97040000 0.24150000
vn -0.00000000 -0.96790000 0.25130000
vn 0.00000000 -0.96530000 0.26120000
vn 0.00000000 -0.96260000 0.27100000
vn 0.00000000 -0.97530000 0.22100000
vn 0.00000000 -0.97700000 0.21340000
vn 0.00000000 -0.97170000 0.23610000
vn -0.00000000 -0.97350000 0.22860000
vn -0.00000000 -0.97360000 0.22840000
vn -0.79980000 0.16860000 0.57610000
vn -0.80320000 0.16740000 0.57180000
vn -0.79980000 0.12090000 0.58790000
vn -0.80310000 0.12000000 0.58360000
vn -0.79970000 0.16280000 0.57790000
vn -0.79960000 0.15680000 0.57960000
vn -0.79960000 0.15100000 0.58130000
vn -0.79960000 0.14490000 0.58280000
vn -0.79960000 0.13900000 0.58420000
vn -0.79960000 0.13290000 0.58560000
vn -0.79970000 0.12690000 0.58680000
vn -0.80300000 0.12600000 0.58240000
vn -0.80300000 0.13200000 0.58120000
vn -0.80290000 0.13790000 0.57990000
vn -0.80290000 0.14390000 0.57850000
vn -0.80300000 0.14980000 0.57690000
vn -0.80300000 0.15570000 0.57530000
vn -0.80300000 0.16160000 0.57360000
vn -0.80130000 0.15630000 0.57750000
vn -0.80130000 0.13250000 0.58340000
vn 0.00000000 0.28090000 0.95970000
vn 0.00000000 0.28090000 0.95970000
vn 0.00000000 0.28090000 0.95970000
vn 0.00000000 0.28100000 0.95970000
vn 0.00000000 0.28090000 0.95970000
vn 0.00000000 0.28090000 0.95970000
vn 0.00000000 0.28100000 0.95970000
vn 0.00000000 0.28090000 0.95970000
vn 0.00000000 0.28100000 0.95970000
vn 1.00000000 0.00000000 0.00000000
vn 1.00000000 0.00000000 0.00000000
vn 1.00000000 0.00000000 0.00000000
vn 1.00000000 0.00000000 0.00000000
vn 1.00000000 0.00000000 0.00000000
vn 1.00000000 0.00000000 0.00000000
vn 1.00000000 0.00000000 0.00000000
vn 1.00000000 0.00000000 0.00000000
vn 1.00000000 0.00000000 0.00000000
vn 1.00000000 0.00000000 0.00000000
vn 1.00000000 0.00000000 0.00000000
vn 1.00000000 0.00000000 0.00000000
vn 1.00000000 0.00000000 0.00000000
vn 1.00000000 0.00000000 0.00000000
vn 1.00000000 0.00000000 0.00000000
vn 1.00000000 0.00000000 0.00000000
vn 1.00000000 0.00000000 0.00000000
vn 1.00000000 0.00000000 0.00000000
vn 1.00000000 0.00000000 0.00000000
vn 1.00000000 0.00000000 0.00000000
vn 1.00000000 0.00000000 0.00000000
vn 1.00000000 0.00000000 0.00000000
vn 1.00000000 0.00000000 0.00000000
vn 1.00000000 0.00000000 0.00000000
vn 1.00000000 0.00000000 0.00000000
vn 1.00000000 0.00000000 0.00000000
vn 1.00000000 0.00000000 0.00000000
vn 1.00000000 0.00000000 0.00000000
vn 1.00000000 0.00000000 0.00000000
vn 1.00000000 0.00000000 0.00000000
vn 1.00000000 0.00000000 0.00000000
vn 1.00000000 0.00000000 0.00000000
vn 1.00000000 0.00000000 0.00000000
vn 1.00000000 0.00000000 0.00000000
vn 0.00000000 -0.03690000 -0.99930000
vn 0.00000000 -0.03690000 -0.99930000
vn 0.00000000 -0.03690000 -0.99930000
vn 0.00000000 -0.03690000 -0.99930000
vn 0.00000000 -0.03690000 -0.99930000
vn 0.00000000 -0.03690000 -0.99930000
vn -1.00000000 0.00000000 0.00000000
vn -1.00000000 0.00000000 0.00000000
vn -1.00000000 0.00000000 0.00000000
vn -1.00000000 0.00000000 0.00000000
vn -1.00000000 0.00000000 0.00000000
vn -1.00000000 0.00000000 0.00000000
vn -1.00000000 0.00000000 0.00000000
vn -1.00000000 0.00000000 0.00000000
vn -1.00000000 0.00000000 0.00000000
vn -1.00000000 0.00000000 0.00000000
vn -1.00000000 0.00000000 0.00000000
vn -1.00000000 0.00000000 0.00000000
vn -1.00000000 0.00000000 0.00000000
vn -1.00000000 0.00000000 0.00000000
vn -1.00000000 0.00000000 0.00000000
vn -1.00000000 0.00000000 0.00000000
vn -1.00000000 0.00000000 0.00000000
vn -1.00000000 0.00000000 0.00000000
vn -1.00000000 0.00000000 0.00000000
vn -1.00000000 0.00000000 0.00000000
vn -1.00000000 0.00000000 0.00000000
vn -1.00000000 0.00000000 0.00000000
vn -1.00000000 0.00000000 0.00000000
vn -1.00000000 0.00000000 0.00000000
vn -1.00000000 0.00000000 0.00000000
vn -1.00000000 0.00000000 0.00000000
vn -1.00000000 0.00000000 0.00000000
vn -1.00000000 0.00000000 0.00000000
vn -1.00000000 0.00000000 0.00000000
vn -1.00000000 0.00000000 0.00000000
vn -1.00000000 0.00000000 0.00000000
vn -1.00000000 0.00000000 0.00000000
vn -1.00000000 0.00000000 0.00000000
vn -1.00000000 0.00000000 0.00000000
vn -1.00000000 0.00000000 0.00000000
vn -1.00000000 0.00000000 0.00000000
vn -1.00000000 0.00000000 0.00000000
vn -1.00000000 0.00000000 0.00000000
vn -1.00000000 0.00000000 0.00000000
vn -1.00000000 0.00000000 0.00000000
vn 0.79170000 -0.12350000 -0.59830000
vn 0.79510000 -0.12250000 -0.59390000
vn 0.79160000 -0.13270000 -0.59640000
vn 0.79500000 -0.13180000 -0.59220000
vn 0.79170000 -0.12810000 -0.59740000
vn 0.79510000 -0.12720000 -0.59310000
vn 0.80140000 -0.07170000 -0.59380000
vn 0.80470000 -0.07110000 -0.58940000
vn 0.80430000 -0.12010000 -0.58200000
vn 0.80750000 -0.11920000 -0.57770000
vn 0.80100000 -0.07790000 -0.59350000
vn 0.80070000 -0.08410000 -0.59310000
vn 0.80040000 -0.09020000 -0.59260000
vn 0.80020000 -0.09640000 -0.59200000
vn 0.80480000 -0.10170000 -0.58480000
vn 0.80460000 -0.10780000 -0.58400000
vn 0.80440000 -0.11390000 -0.58310000
vn 0.80760000 -0.11310000 -0.57870000
vn 0.80780000 -0.10700000 -0.57960000
vn 0.80810000 -0.10080000 -0.58040000
vn 0.80350000 -0.09580000 -0.58760000
vn 0.80370000 -0.08960000 -0.58820000
vn 0.80410000 -0.08350000 -0.58870000
vn 0.80440000 -0.07730000 -0.58910000
vn 0.80260000 -0.08380000 -0.59070000
vn 0.80610000 -0.10750000 -0.58200000
vn -0.80070000 -0.13010000 -0.58480000
vn -0.80390000 -0.12920000 -0.58050000
vn -0.80140000 -0.07160000 -0.59380000
vn -0.80440000 -0.07120000 -0.58970000
vn -0.80080000 -0.12170000 -0.58650000
vn -0.80100000 -0.11320000 -0.58790000
vn -0.80120000 -0.10470000 -0.58910000
vn -0.80020000 -0.09690000 -0.59180000
vn -0.80040000 -0.08980000 -0.59260000
vn -0.80080000 -0.08350000 -0.59310000
vn -0.80110000 -0.07770000 -0.59350000
vn -0.80420000 -0.07710000 -0.58940000
vn -0.80400000 -0.08300000 -0.58890000
vn -0.80400000 -0.08910000 -0.58790000
vn -0.80430000 -0.09600000 -0.58650000
vn -0.80450000 -0.10400000 -0.58480000
vn -0.80430000 -0.11240000 -0.58350000
vn -0.80410000 -0.12080000 -0.58210000
vn 1.00000000 0.00000000 0.00000000
vn 1.00000000 0.00000000 0.00000000
vn 1.00000000 0.00000000 0.00000000
vn 1.00000000 0.00000000 0.00000000
vn 1.00000000 0.00010000 0.00000000
vn 1.00000000 0.00000000 0.00000000
vn 1.00000000 0.00000000 0.00000000
vn 1.00000000 0.00000000 0.00000000
vn 1.00000000 0.00000000 0.00000000
vn 1.00000000 0.00010000 0.00000000
vn 1.00000000 0.00000000 0.00000000
vn 1.00000000 0.00010000 0.00000000
vn 1.00000000 0.00000000 0.00000000
vn 1.00000000 0.00000000 0.00000000
vn 1.00000000 -0.00010000 0.00000000
vn 1.00000000 0.00010000 0.00000000
vn 1.00000000 0.00000000 0.00000000
vn 1.00000000 -0.00010000 0.00000000
vn 1.00000000 0.00010000 0.00000000
vn 1.00000000 0.00000000 0.00000000
vn 1.00000000 0.00000000 0.00000000
vn 1.00000000 0.00010000 0.00000000
vn 1.00000000 0.00000000 0.00000000
vn 1.00000000 0.00000000 0.00000000
vn 1.00000000 -0.00010000 0.00000000
vn 1.00000000 0.00000000 0.00000000
vn 1.00000000 -0.00010000 0.00000000
vn 1.00000000 0.00000000 0.00000000
vn 1.00000000 0.00000000 0.00000000
vn 1.00000000 0.00010000 0.00000000
vn 1.00000000 0.00000000 0.00000000
vn 1.00000000 0.00000000 0.00000000
vn 1.00000000 0.00000000 0.00000000
vn 1.00000000 0.00000000 0.00000000
vn 1.00000000 0.00000000 0.00000000
vn 1.00000000 0.00000000 0.00000000
vn 1.00000000 0.00000000 0.00000000
vn 1.00000000 0.00000000 0.00000000
vn 1.00000000 0.00000000 0.00000000
vn 1.00000000 0.00000000 0.00000000
vn 1.00000000 0.00000000 0.00000000
vn 1.00000000 0.00000000 0.00000000
vn 1.00000000 0.00000000 0.00000000
vn 1.00000000 0.00000000 0.00000000
vn 1.00000000 0.00000000 0.00000000
vn 1.00000000 0.00000000 0.00000000
vn 1.00000000 0.00010000 0.00000000
vn 1.00000000 0.00000000 0.00000000
vn 1.00000000 -0.00010000 0.00000000
vn 1.00000000 0.00000000 0.00000000
vn 1.00000000 0.00010000 0.00000000
vn 1.00000000 0.00000000 0.00000000
vn 1.00000000 0.00010000 0.00000000
vn 1.00000000 0.00000000 0.00000000
vn 1.00000000 0.00010000 0.00000000
vn 1.00000000 0.00000000 0.00000000
vn 1.00000000 -0.00010000 0.00000000
vn 0.00000000 -0.03690000 -0.99930000
vn 0.00000000 -0.03690000 -0.99930000
vn 0.00000000 -0.03690000 -0.99930000
vn 0.00000000 -0.03690000 -0.99930000
vn 0.00000000 -0.03690000 -0.99930000
vn 0.00000000 -0.03690000 -0.99930000
vn 0.00000000 -0.03690000 -0.99930000
vn 0.00000000 -0.03690000 -0.99930000
vn 0.00000000 -0.03690000 -0.99930000
vn -1.00000000 0.00000000 0.00000000
vn -1.00000000 0.00000000 0.00000000
vn -1.00000000 0.00000000 0.00000000
vn -1.00000000 0.00000000 0.00000000
vn -1.00000000 0.00000000 0.00000000
vn -1.00000000 0.00000000 0.00000000
vn -1.00000000 0.00000000 0.00000000
vn -1.00000000 0.00000000 0.00000000
vn -1.00000000 0.00000000 0.00000000
vn -1.00000000 0.00000000 0.00000000
vn -1.00000000 0.00000000 0.00000000
vn -1.00000000 0.00000000 0.00000000
vn -1.00000000 0.00000000 0.00000000
vn -1.00000000 0.00000000 0.00000000
vn -1.00000000 0.00000000 0.00000000
vn -1.00000000 0.00000000 0.00000000
vn -1.00000000 0.00000000 0.00000000
vn -1.00000000 0.00000000 0.00000000
vn -1.00000000 0.00000000 0.00000000
vn -1.00000000 0.00000000 0.00000000
vn -1.00000000 0.00000000 0.00000000
vn -1.00000000 0.00000000 0.00000000
vn -1.00000000 0.00000000 0.00000000
vn -1.00000000 0.00000000 0.00000000
vn -1.00000000 0.00000000 0.00000000
vn -1.00000000 0.00000000 0.00000000
vn -1.00000000 0.00000000 0.00000000
vn -1.00000000 0.00000000 0.00000000
vn -1.00000000 0.00000000 0.00000000
vn -1.00000000 0.00000000 0.00000000
vn -1.00000000 0.00000000 0.00000000
vn -1.00000000 0.00000000 0.00000000
vn -1.00000000 0.00000000 0.00000000
vn -1.00000000 0.00000000 0.00000000
vn -1.00000000 0.00000000 0.00000000
vn -1.00000000 0.00000000 0.00000000
vn -1.00000000 0.00000000 0.00000000
vn -1.00000000 0.00000000 0.00000000
vn -1.00000000 0.00000000 0.00000000
vn -1.00000000 0.00000000 0.00000000
vn 0.00000000 0.28100000 0.95970000
vn 0.00000000 0.28100000 0.95970000
vn 0.00000000 0.28100000 0.95970000
vn 0.00000000 0.28100000 0.95970000
vn 0.00000000 0.28090000 0.95970000
vn 0.00000000 0.28100000 0.95970000
vn 0.00000000 0.28090000 0.95970000
vn 0.00000000 0.28100000 0.95970000
vn 0.00000000 0.28090000 0.95970000
vn 0.79970000 0.12090000 0.58800000
vn 0.80310000 0.12000000 0.58360000
vn 0.79980000 0.16860000 0.57610000
vn 0.80310000 0.16740000 0.57190000
vn 0.79970000 0.12700000 0.58690000
vn 0.79960000 0.13290000 0.58560000
vn 0.79960000 0.13900000 0.58430000
vn 0.79960000 0.14500000 0.58280000
vn 0.79960000 0.15090000 0.58130000
vn 0.79960000 0.15690000 0.57970000
vn 0.79970000 0.16280000 0.57790000
vn 0.80300000 0.16160000 0.57360000
vn 0.80290000 0.15570000 0.57540000
vn 0.80290000 0.14980000 0.57700000
vn 0.80290000 0.14390000 0.57850000
vn 0.80290000 0.13800000 0.58000000
vn 0.80300000 0.13200000 0.58120000
vn 0.80300000 0.12600000 0.58250000
vt 0.24706200 0.68317100
vt 0.49412300 0.99414800
vt 0.00000000 0.49558800
vt 0.06176400 0.49558800
vt 0.12352800 0.49558800
vt 0.00000000 0.99414800
vt 0.00000000 0.96314800
vt 0.00000000 0.93212600
vt 0.00000000 0.90108400
vt 0.00000000 0.87002000
vt 0.00000000 0.83893500
vt 0.00000000 0.80782900
vt 0.00000000 0.77670100
vt 0.00000000 0.74555200
vt 0.00000000 0.71438100
vt 0.00000000 0.68319000
vt 0.00000000 0.65197600
vt 0.00000000 0.62074200
vt 0.00000000 0.62074200
vt 0.00000000 0.62074200
vt 0.00000000 0.58948500
vt 0.00000000 0.55820800
vt 0.00000000 0.52690900
vt 0.24706200 0.71426800
vt 0.12353100 0.62080600
vt 0.12353100 0.62080600
vt 0.09883200 0.99414800
vt 0.04941600 0.99414800
vt 0.09883200 0.62864500
vt 0.09883200 0.62864500
vt 0.09883200 0.65154300
vt 0.09883200 0.67443400
vt 0.09883200 0.69731700
vt 0.09883200 0.72019400
vt 0.09883200 0.74306300
vt 0.09883200 0.76592500
vt 0.09883200 0.78878000
vt 0.09883200 0.81162700
vt 0.09883200 0.83446700
vt 0.09883200 0.85730000
vt 0.09883200 0.88012600
vt 0.09883200 0.90294500
vt 0.09883200 0.92575600
vt 0.09883200 0.94856100
vt 0.09883200 0.97135800
vt 0.12353100 0.63639700
vt 0.39530300 0.99414800
vt 0.39530300 0.97135800
vt 0.39530300 0.94856100
vt 0.39530300 0.92575600
vt 0.39530300 0.90294500
vt 0.39530300 0.88012600
vt 0.39530300 0.85730000
vt 0.39530300 0.83446700
vt 0.39530300 0.81162700
vt 0.39530300 0.78878000
vt 0.39530300 0.76592500
vt 0.39530300 0.74306300
vt 0.39530300 0.72019400
vt 0.39530300 0.69731700
vt 0.39530300 0.67443400
vt 0.39530300 0.65154300
vt 0.39530300 0.62864500
vt 0.39530300 0.62864500
vt 0.37059200 0.62080600
vt 0.37059200 0.62080600
vt 0.37059200 0.63639700
vt 0.37059200 0.63639700
vt 0.37059200 0.58952700
vt 0.46941800 0.99414800
vt 0.44471300 0.99414800
vt 0.42000800 0.99414800
vt 0.49412300 0.49558800
vt 0.49412300 0.52690900
vt 0.49412300 0.55820800
vt 0.49412300 0.58948500
vt 0.49412300 0.62074200
vt 0.49412300 0.62074200
vt 0.49412300 0.65197600
vt 0.49412300 0.68319000
vt 0.49412300 0.71438100
vt 0.49412300 0.74555200
vt 0.49412300 0.77670100
vt 0.49412300 0.80782900
vt 0.49412300 0.83893500
vt 0.49412300 0.87002000
vt 0.49412300 0.90108400
vt 0.49412300 0.93212600
vt 0.49412300 0.96314800
vt 0.37059500 0.49558800
vt 0.43235900 0.49558800
vt 0.13896500 0.51636900
vt 0.15440500 0.53712600
vt 0.16984800 0.55786200
vt 0.18529200 0.57857800
vt 0.20073600 0.59927500
vt 0.20073600 0.59927500
vt 0.21617900 0.61995700
vt 0.23161900 0.64062300
vt 0.24705600 0.66127600
vt 0.24705600 0.66127600
vt 0.18529600 0.62080600
vt 0.12353100 0.60516600
vt 0.12353100 0.60516600
vt 0.18529600 0.60516600
vt 0.18529600 0.60516600
vt 0.18529600 0.63639700
vt 0.18529600 0.63639700
vt 0.18529600 0.68317100
vt 0.24706200 0.66757900
vt 0.24706200 0.66757900
vt 0.18529600 0.66757900
vt 0.18529600 0.66757900
vt 0.12282000 0.65986600
vt 0.11082700 0.64425900
vt 0.11082700 0.64425900
vt 0.24705600 0.82737000
vt 0.23155800 0.80661000
vt 0.21603900 0.78583900
vt 0.20049800 0.76505600
vt 0.18493800 0.74425700
vt 0.16940400 0.72314800
vt 0.15387200 0.70204800
vt 0.13834300 0.68095500
vt 0.18529600 0.71426800
vt 0.24706200 0.72981700
vt 0.18529600 0.72981700
vt 0.24706200 0.69871900
vt 0.18529600 0.69871900
vt 0.37377800 0.65754600
vt 0.35224500 0.68644500
vt 0.33071000 0.71534700
vt 0.30916500 0.74425100
vt 0.29362100 0.76506100
vt 0.27808200 0.78584600
vt 0.26255700 0.80661300
vt 0.30882700 0.71426800
vt 0.30882700 0.72981700
vt 0.26249400 0.64062300
vt 0.27793500 0.61995700
vt 0.29338000 0.59927500
vt 0.30882500 0.57857800
vt 0.32427100 0.55786200
vt 0.33971500 0.53712600
vt 0.35515700 0.51636900
vt 0.30882700 0.62080600
vt 0.30882700 0.63639700
vt 0.30882700 0.58952700
vt 0.37059200 0.60516600
vt 0.30882700 0.60516600
vt 0.18977100 0.24706200
vt 0.50437600 0.00000000
vt 0.50437600 0.03294000
vt 0.50437600 0.06588000
vt 0.50437600 0.09882000
vt 0.48126600 0.09882000
vt 0.45815500 0.09882000
vt 0.43504500 0.09882000
vt 0.41193400 0.09882000
vt 0.38882400 0.09882000
vt 0.36571300 0.09882000
vt 0.34260300 0.09882000
vt 0.31949300 0.09882000
vt 0.29638200 0.09882000
vt 0.27327200 0.09882000
vt 0.25016100 0.09882000
vt 0.22705100 0.09882000
vt 0.20394000 0.09882000
vt 0.18083000 0.09882000
vt 0.15771900 0.09882000
vt 0.13460900 0.09882000
vt 0.13460900 0.09882000
vt 0.22123200 0.24706200
vt 0.12667900 0.12353100
vt 0.12667900 0.12353100
vt 0.14245200 0.12353100
vt 0.14245200 0.12353100
vt 0.09503500 0.12353100
vt 0.13460900 0.39529100
vt 0.15771900 0.39529100
vt 0.18083000 0.39529100
vt 0.20394000 0.39529100
vt 0.22705100 0.39529100
vt 0.25016100 0.39529100
vt 0.27327200 0.39529100
vt 0.29638200 0.39529100
vt 0.31949300 0.39529100
vt 0.34260300 0.39529100
vt 0.36571300 0.39529100
vt 0.38882400 0.39529100
vt 0.41193400 0.39529100
vt 0.43504500 0.39529100
vt 0.45815500 0.39529100
vt 0.48126600 0.39529100
vt 0.12667900 0.37059200
vt 0.12667900 0.37059200
vt 0.14245200 0.37059200
vt 0.14245200 0.37059200
vt 0.50437600 0.39529100
vt 0.50437600 0.44470700
vt 0.50437600 0.49412300
vt 0.47285300 0.49412300
vt 0.44132900 0.49412300
vt 0.40980600 0.49412300
vt 0.37828200 0.49412300
vt 0.34675900 0.49412300
vt 0.31523500 0.49412300
vt 0.28371200 0.49412300
vt 0.25218800 0.49412300
vt 0.22066500 0.49412300
vt 0.18914100 0.49412300
vt 0.15761800 0.49412300
vt 0.12609400 0.49412300
vt 0.09457100 0.49412300
vt 0.06304700 0.49412300
vt 0.03152400 0.49412300
vt 0.00000000 0.49412300
vt 0.00000000 0.43235900
vt 0.00000000 0.37059500
vt 0.00000000 0.12352800
vt 0.00000000 0.06176400
vt 0.00000000 0.00000000
vt 0.03152400 0.00000000
vt 0.06304700 0.00000000
vt 0.09457100 0.00000000
vt 0.12609400 0.00000000
vt 0.15761800 0.00000000
vt 0.18914100 0.00000000
vt 0.22066500 0.00000000
vt 0.25218800 0.00000000
vt 0.28371200 0.00000000
vt 0.31523500 0.00000000
vt 0.34675900 0.00000000
vt 0.37828200 0.00000000
vt 0.40980600 0.00000000
vt 0.44132900 0.00000000
vt 0.47285300 0.00000000
vt 0.02102300 0.35515800
vt 0.04202200 0.33971800
vt 0.06300000 0.32427500
vt 0.08395800 0.30883100
vt 0.10489700 0.29338700
vt 0.10489700 0.29338700
vt 0.12582000 0.27794400
vt 0.14672700 0.26250400
vt 0.16762100 0.24706700
vt 0.16762100 0.24706700
vt 0.12667900 0.30882700
vt 0.11085700 0.37059200
vt 0.11085700 0.37059200
vt 0.11085700 0.30882700
vt 0.11085700 0.30882700
vt 0.14245200 0.30882700
vt 0.18977100 0.30882700
vt 0.17399800 0.24706200
vt 0.17399800 0.24706200
vt 0.17399800 0.30882700
vt 0.17399800 0.30882700
vt 0.16619500 0.37130300
vt 0.15040500 0.38329600
vt 0.15040500 0.38329600
vt 0.33565300 0.24706700
vt 0.31465100 0.26256500
vt 0.29363800 0.27808400
vt 0.27261100 0.29362500
vt 0.25157000 0.30918500
vt 0.23021500 0.32472000
vt 0.20886900 0.34025200
vt 0.18752900 0.35578000
vt 0.22123200 0.30882700
vt 0.23696200 0.24706200
vt 0.23696200 0.30882700
vt 0.20550100 0.24706200
vt 0.20550100 0.30882700
vt 0.16384700 0.12034500
vt 0.19308400 0.14187800
vt 0.22232300 0.16341400
vt 0.25156400 0.18495800
vt 0.27261700 0.20050200
vt 0.29364400 0.21604100
vt 0.31465400 0.23156600
vt 0.22123200 0.18529600
vt 0.23696200 0.18529600
vt 0.14672700 0.23162900
vt 0.12582000 0.21618800
vt 0.10489700 0.20074400
vt 0.08395800 0.18529800
vt 0.06300000 0.16985300
vt 0.04202200 0.15440800
vt 0.02102300 0.13896600
vt 0.12667900 0.18529600
vt 0.14245200 0.18529600
vt 0.09503500 0.18529600
vt 0.11085700 0.12353100
vt 0.11085700 0.18529600
vt 0.68189100 0.49558800
vt 0.65988500 0.49558800
vt 0.68189100 0.70346500
vt 0.65988500 0.70346500
vt 0.68189100 0.52157300
vt 0.68189100 0.54755700
vt 0.68189100 0.57354200
vt 0.68189100 0.59952700
vt 0.68189100 0.62551100
vt 0.68189100 0.65149600
vt 0.68189100 0.67748100
vt 0.65988500 0.67748100
vt 0.65988500 0.65149600
vt 0.65988500 0.62551100
vt 0.65988500 0.59952700
vt 0.65988500 0.57354200
vt 0.65988500 0.54755700
vt 0.65988500 0.52157300
vt 0.67088800 0.54755800
vt 0.67088800 0.65149600
vt 0.65842000 0.49558800
vt 0.63641400 0.49558800
vt 0.65842000 0.61948200
vt 0.63641400 0.61948200
vt 0.63641400 0.61948200
vt 0.65842000 0.55753500
vt 0.65842000 0.55753500
vt 0.63641400 0.55753500
vt 0.63641400 0.55753500
vt 0.56453600 0.49558800
vt 0.54253000 0.49558800
vt 0.56453600 0.99853500
vt 0.54253000 0.99853500
vt 0.56453600 0.52702200
vt 0.56453600 0.55845600
vt 0.56453600 0.58989100
vt 0.56453600 0.62132500
vt 0.56453600 0.65275900
vt 0.56453600 0.68419300
vt 0.56453600 0.71562700
vt 0.56453600 0.74706200
vt 0.56453600 0.77849600
vt 0.56453600 0.80993000
vt 0.56453600 0.84136400
vt 0.56453600 0.87279800
vt 0.56453600 0.90423300
vt 0.56453600 0.93566700
vt 0.56453600 0.96710100
vt 0.54253000 0.96726200
vt 0.54253000 0.93596800
vt 0.54253000 0.90465200
vt 0.54253000 0.87331500
vt 0.54253000 0.84195600
vt 0.54253000 0.81057600
vt 0.54253000 0.77917500
vt 0.54253000 0.74775200
vt 0.54253000 0.71630700
vt 0.54253000 0.68484100
vt 0.54253000 0.65335300
vt 0.54253000 0.62184300
vt 0.54253000 0.59031200
vt 0.54253000 0.55875900
vt 0.54253000 0.52718400
vt 0.75230400 0.00000000
vt 0.73029800 0.00000000
vt 0.75230400 0.09912500
vt 0.73029800 0.09912500
vt 0.75230400 0.04956200
vt 0.73029800 0.04956200
vt 0.61147800 0.49558800
vt 0.58947200 0.49558800
vt 0.61147800 0.86604000
vt 0.58947200 0.86604000
vt 0.61147800 0.51874100
vt 0.61147800 0.54189500
vt 0.61147800 0.56504800
vt 0.61147800 0.58820100
vt 0.61147800 0.61135400
vt 0.61147800 0.63450800
vt 0.61147800 0.65766100
vt 0.61147800 0.68081400
vt 0.61147800 0.70396800
vt 0.61147800 0.72712100
vt 0.61147800 0.75027400
vt 0.61147800 0.77342700
vt 0.61147800 0.79658100
vt 0.61147800 0.81973400
vt 0.61147800 0.84288700
vt 0.58947200 0.84283200
vt 0.58947200 0.81963100
vt 0.58947200 0.79643800
vt 0.58947200 0.77325200
vt 0.58947200 0.75007300
vt 0.58947200 0.72690100
vt 0.58947200 0.70373700
vt 0.58947200 0.68058000
vt 0.58947200 0.65743100
vt 0.58947200 0.63428800
vt 0.58947200 0.61115300
vt 0.58947200 0.58802600
vt 0.58947200 0.56490500
vt 0.58947200 0.54179200
vt 0.58947200 0.51868600
vt 0.60047500 0.54192400
vt 0.60047500 0.63454500
vt 0.60047500 0.68084400
vt 0.60047500 0.72714300
vt 0.60047500 0.77344200
vt 0.60047500 0.81974100
vt 0.70536200 0.00000000
vt 0.68335600 0.00000000
vt 0.70536200 0.03966700
vt 0.68335600 0.03966700
vt 0.70536200 0.01983400
vt 0.68335600 0.01983400
vt 0.54106500 0.49558800
vt 0.51905900 0.49558800
vt 0.54106500 0.70608700
vt 0.51905900 0.70608700
vt 0.54106500 0.52178700
vt 0.54106500 0.54798600
vt 0.54106500 0.57418500
vt 0.54106500 0.60038300
vt 0.54106500 0.62680900
vt 0.54106500 0.65323500
vt 0.54106500 0.67966100
vt 0.51905900 0.67966100
vt 0.51905900 0.65323500
vt 0.51905900 0.62680900
vt 0.51905900 0.60038300
vt 0.51905900 0.57418500
vt 0.51905900 0.54798600
vt 0.51905900 0.52178700
vt 0.53006200 0.54823600
vt 0.53006200 0.65344300
vt 0.58800700 0.49558800
vt 0.56600100 0.49558800
vt 0.58800700 0.74576200
vt 0.56600100 0.74576200
vt 0.58800700 0.53193400
vt 0.58800700 0.56828000
vt 0.58800700 0.60462700
vt 0.58800700 0.64097300
vt 0.58800700 0.66717000
vt 0.58800700 0.69336800
vt 0.58800700 0.71956500
vt 0.56600100 0.71956500
vt 0.56600100 0.69336800
vt 0.56600100 0.66717000
vt 0.56600100 0.64097300
vt 0.56600100 0.60462700
vt 0.56600100 0.56828000
vt 0.56600100 0.53193400
vt 0.63494900 0.49558800
vt 0.61294300 0.49558800
vt 0.63494900 0.86604000
vt 0.61294300 0.86604000
vt 0.61294300 0.86604000
vt 0.63494900 0.51874100
vt 0.63494900 0.54189500
vt 0.63494900 0.56504800
vt 0.63494900 0.58820100
vt 0.63494900 0.58820100
vt 0.63494900 0.61135400
vt 0.63494900 0.61135400
vt 0.63494900 0.63450800
vt 0.63494900 0.65766100
vt 0.63494900 0.65766100
vt 0.63494900 0.65766100
vt 0.63494900 0.68081400
vt 0.63494900 0.68081400
vt 0.63494900 0.70396800
vt 0.63494900 0.70396800
vt 0.63494900 0.72712100
vt 0.63494900 0.72712100
vt 0.63494900 0.75027400
vt 0.63494900 0.77342700
vt 0.63494900 0.79658100
vt 0.63494900 0.79658100
vt 0.63494900 0.81973400
vt 0.63494900 0.81973400
vt 0.63494900 0.84288700
vt 0.61294300 0.84294200
vt 0.61294300 0.84294200
vt 0.61294300 0.81983600
vt 0.61294300 0.79672300
vt 0.61294300 0.77360300
vt 0.61294300 0.75047500
vt 0.61294300 0.72734000
vt 0.61294300 0.70419800
vt 0.61294300 0.68104800
vt 0.61294300 0.65789100
vt 0.61294300 0.63472700
vt 0.61294300 0.61155600
vt 0.61294300 0.58837700
vt 0.61294300 0.56519100
vt 0.61294300 0.54199700
vt 0.61294300 0.51879600
vt 0.62394600 0.54192400
vt 0.62394600 0.63454500
vt 0.62394600 0.63454500
vt 0.62394600 0.68084400
vt 0.62394600 0.68084400
vt 0.62394600 0.68084400
vt 0.62394600 0.72714300
vt 0.62394600 0.72714300
vt 0.62394600 0.77344200
vt 0.62394600 0.81974100
vt 0.62394600 0.81974100
vt 0.62394600 0.81974100
vt 0.72883300 0.00000000
vt 0.70682700 0.00000000
vt 0.72883300 0.09911300
vt 0.70682700 0.09911300
vt 0.72883300 0.02477800
vt 0.72883300 0.04955600
vt 0.72883300 0.07433500
vt 0.70682700 0.06607500
vt 0.70682700 0.03303800
vt 0.79924600 0.00000000
vt 0.77724000 0.00000000
vt 0.79924600 0.50441200
vt 0.77724000 0.50441200
vt 0.79924600 0.03152600
vt 0.79924600 0.06305100
vt 0.79924600 0.09457700
vt 0.79924600 0.12610300
vt 0.79924600 0.15762900
vt 0.79924600 0.18915400
vt 0.79924600 0.22068000
vt 0.79924600 0.25220600
vt 0.79924600 0.28373200
vt 0.79924600 0.31525700
vt 0.79924600 0.34678300
vt 0.79924600 0.37830900
vt 0.79924600 0.40983500
vt 0.79924600 0.44136100
vt 0.79924600 0.47288600
vt 0.77724000 0.47272400
vt 0.77724000 0.44105700
vt 0.77724000 0.40941200
vt 0.77724000 0.37778900
vt 0.77724000 0.34618800
vt 0.77724000 0.31460800
vt 0.77724000 0.28305000
vt 0.77724000 0.25151400
vt 0.77724000 0.21999900
vt 0.77724000 0.18850600
vt 0.77724000 0.15703500
vt 0.77724000 0.12558500
vt 0.77724000 0.09415600
vt 0.77724000 0.06274900
vt 0.77724000 0.03136400
vt 0.78824300 0.06312600
vt 0.78824300 0.18925000
vt 0.78824300 0.25228200
vt 0.78824300 0.31531500
vt 0.78824300 0.37834700
vt 0.78824300 0.44138000
vt 0.77577500 0.00000000
vt 0.75376900 0.00000000
vt 0.77577500 0.12389400
vt 0.75376900 0.12389400
vt 0.75376900 0.12389400
vt 0.77577500 0.06194700
vt 0.77577500 0.06194700
vt 0.75376900 0.06194700
vt 0.75376900 0.06194700
vt 0.51759400 0.49558800
vt 0.49558800 0.49558800
vt 0.51759400 0.70347200
vt 0.49558800 0.70347200
vt 0.51759400 0.52157400
vt 0.51759400 0.54755900
vt 0.51759400 0.57354500
vt 0.51759400 0.59953000
vt 0.51759400 0.62551600
vt 0.51759400 0.65150100
vt 0.51759400 0.67748700
vt 0.49558800 0.67748700
vt 0.49558800 0.65150100
vt 0.49558800 0.62551600
vt 0.49558800 0.59953000
vt 0.49558800 0.57354500
vt 0.49558800 0.54755900
vt 0.49558800 0.52157400
f 150/150/150 149/149/149 69/69/69
f 146/146/146 66/66/66 149/149/149
f 26/26/26 102/102/102 106/106/106
f 147/147/147 68/68/68 66/66/66
f 46/46/46 107/107/107 102/102/102
f 109/109/109 1/1/1 111/111/111
f 126/126/126 138/138/138 137/137/137
f 129/129/129 128/128/128 1/1/1
f 125/125/125 24/24/24 128/128/128
f 127/127/127 126/126/126 24/24/24
f 91/91/91 74/74/74 73/73/73
f 91/91/91 90/90/90 145/145/145
f 74/74/74 91/91/91 145/145/145
f 69/69/69 76/76/76 75/75/75
f 76/76/76 69/69/69 149/149/149
f 144/144/144 75/75/75 74/74/74
f 75/75/75 143/143/143 69/69/69
f 144/144/144 74/74/74 145/145/145
f 142/142/142 69/69/69 143/143/143
f 144/144/144 143/143/143 75/75/75
f 141/141/141 150/150/150 148/148/148
f 148/148/148 69/69/69 142/142/142
f 150/150/150 141/141/141 140/140/140
f 146/146/146 150/150/150 140/140/140
f 142/142/142 141/141/141 148/148/148
f 77/77/77 76/76/76 149/149/149
f 77/77/77 64/64/64 79/79/79
f 61/61/61 80/80/80 79/79/79
f 65/65/65 64/64/64 78/78/78
f 60/60/60 80/80/80 61/61/61
f 80/80/80 60/60/60 81/81/81
f 68/68/68 130/130/130 64/64/64
f 63/63/63 66/66/66 67/67/67
f 140/140/140 139/139/139 147/147/147
f 68/68/68 147/147/147 130/130/130
f 139/139/139 101/101/101 147/147/147
f 101/101/101 130/130/130 147/147/147
f 131/131/131 111/111/111 1/1/1
f 131/131/131 1/1/1 128/128/128
f 137/137/137 131/131/131 128/128/128
f 111/111/111 130/130/130 101/101/101
f 111/111/111 131/131/131 130/130/130
f 146/146/146 140/140/140 147/147/147
f 77/77/77 149/149/149 66/66/66
f 95/95/95 94/94/94 22/22/22
f 93/93/93 92/92/92 23/23/23
f 22/22/22 94/94/94 93/93/93
f 106/106/106 98/98/98 96/96/96
f 104/104/104 105/105/105 97/97/97
f 98/98/98 106/106/106 102/102/102
f 102/102/102 107/107/107 98/98/98
f 103/103/103 96/96/96 95/95/95
f 4/4/4 92/92/92 5/5/5
f 4/4/4 3/3/3 23/23/23
f 92/92/92 4/4/4 23/23/23
f 20/20/20 26/26/26 103/103/103
f 21/21/21 95/95/95 22/22/22
f 103/103/103 21/21/21 20/20/20
f 19/19/19 29/29/29 25/25/25
f 22/22/22 93/93/93 23/23/23
f 95/95/95 21/21/21 103/103/103
f 113/113/113 100/100/100 99/99/99
f 113/113/113 107/107/107 114/114/114
f 99/99/99 107/107/107 113/113/113
f 100/100/100 112/112/112 110/110/110
f 98/98/98 107/107/107 99/99/99
f 124/124/124 129/129/129 109/109/109
f 129/129/129 124/124/124 123/123/123
f 125/125/125 129/129/129 123/123/123
f 113/113/113 124/124/124 109/109/109
f 124/124/124 113/113/113 114/114/114
f 29/29/29 116/116/116 46/46/46
f 116/116/116 108/108/108 46/46/46
f 30/30/30 18/18/18 17/17/17
f 46/46/46 26/26/26 29/29/29
f 16/16/16 32/32/32 17/17/17
f 33/33/33 32/32/32 16/16/16
f 16/16/16 15/15/15 33/33/33
f 115/115/115 114/114/114 107/107/107
f 81/81/81 59/59/59 82/82/82
f 57/57/57 83/83/83 82/82/82
f 83/83/83 56/56/56 84/84/84
f 83/83/83 57/57/57 56/56/56
f 132/132/132 138/138/138 133/133/133
f 132/132/132 137/137/137 138/138/138
f 126/126/126 133/133/133 138/138/138
f 132/132/132 131/131/131 137/137/137
f 135/135/135 134/134/134 119/119/119
f 133/133/133 120/120/120 134/134/134
f 136/136/136 135/135/135 118/118/118
f 54/54/54 85/85/85 84/84/84
f 85/85/85 54/54/54 53/53/53
f 87/87/87 51/51/51 50/50/50
f 86/86/86 52/52/52 87/87/87
f 70/70/70 2/2/2 89/89/89
f 48/48/48 70/70/70 89/89/89
f 88/88/88 50/50/50 49/49/49
f 70/70/70 48/48/48 71/71/71
f 53/53/53 52/52/52 86/86/86
f 48/48/48 89/89/89 49/49/49
f 72/72/72 48/48/48 47/47/47
f 72/72/72 71/71/71 48/48/48
f 127/127/127 125/125/125 122/122/122
f 127/127/127 121/121/121 126/126/126
f 119/119/119 134/134/134 120/120/120
f 133/133/133 126/126/126 121/121/121
f 120/120/120 133/133/133 121/121/121
f 135/135/135 119/119/119 118/118/118
f 34/34/34 33/33/33 15/15/15
f 34/34/34 15/15/15 14/14/14
f 127/127/127 122/122/122 121/121/121
f 13/13/13 37/37/37 36/36/36
f 13/13/13 36/36/36 14/14/14
f 12/12/12 38/38/38 37/37/37
f 122/122/122 125/125/125 123/123/123
f 11/11/11 40/40/40 39/39/39
f 11/11/11 39/39/39 12/12/12
f 28/28/28 27/27/27 45/45/45
f 7/7/7 45/45/45 44/44/44
f 11/11/11 10/10/10 40/40/40
f 41/41/41 40/40/40 10/10/10
f 41/41/41 10/10/10 9/9/9
f 41/41/41 9/9/9 42/42/42
f 44/44/44 8/8/8 7/7/7
f 28/28/28 45/45/45 7/7/7
f 44/44/44 43/43/43 8/8/8
f 28/28/28 7/7/7 6/6/6
f 9/9/9 8/8/8 43/43/43
f 9/9/9 43/43/43 42/42/42
f 118/118/118 117/117/117 136/136/136
f 128/128/128 24/24/24 137/137/137
f 295/295/295 293/293/293 178/178/178
f 291/291/291 295/295/295 294/294/294
f 196/196/196 249/249/249 252/252/252
f 292/292/292 291/291/291 175/175/175
f 198/198/198 196/196/196 248/248/248
f 254/254/254 258/258/258 256/256/256
f 271/271/271 173/173/173 282/282/282
f 274/274/274 254/254/254 151/151/151
f 270/270/270 274/274/274 273/273/273
f 272/272/272 270/270/270 173/173/173
f 221/221/221 222/222/222 223/223/223
f 221/221/221 290/290/290 220/220/220
f 223/223/223 290/290/290 221/221/221
f 178/178/178 224/224/224 225/225/225
f 225/225/225 294/294/294 178/178/178
f 224/224/224 289/289/289 223/223/223
f 178/178/178 288/288/288 224/224/224
f 289/289/289 290/290/290 223/223/223
f 287/287/287 288/288/288 178/178/178
f 289/289/289 224/224/224 288/288/288
f 286/286/286 293/293/293 295/295/295
f 293/293/293 287/287/287 178/178/178
f 295/295/295 285/285/285 286/286/286
f 291/291/291 285/285/285 295/295/295
f 287/287/287 293/293/293 286/286/286
f 226/226/226 294/294/294 225/225/225
f 226/226/226 227/227/227 172/172/172
f 169/169/169 170/170/170 227/227/227
f 174/174/174 226/226/226 171/171/171
f 168/168/168 169/169/169 228/228/228
f 228/228/228 229/229/229 168/168/168
f 177/177/177 172/172/172 275/275/275
f 172/172/172 176/176/176 174/174/174
f 285/285/285 292/292/292 284/284/284
f 177/177/177 275/275/275 292/292/292
f 284/284/284 292/292/292 247/247/247
f 247/247/247 292/292/292 275/275/275
f 276/276/276 151/151/151 256/256/256
f 276/276/276 273/273/273 151/151/151
f 282/282/282 273/273/273 276/276/276
f 256/256/256 247/247/247 275/275/275
f 256/256/256 275/275/275 276/276/276
f 291/291/291 292/292/292 285/285/285
f 226/226/226 175/175/175 294/294/294
f 241/241/241 215/215/215 240/240/240
f 239/239/239 216/216/216 238/238/238
f 215/215/215 239/239/239 240/240/240
f 252/252/252 242/242/242 244/244/244
f 250/250/250 243/243/243 251/251/251
f 244/244/244 248/248/248 252/252/252
f 248/248/248 244/244/244 253/253/253
f 249/249/249 241/241/241 242/242/242
f 218/218/218 219/219/219 238/238/238
f 218/218/218 216/216/216 217/217/217
f 238/238/238 216/216/216 218/218/218
f 215/215/215 241/241/241 214/214/214
f 215/215/215 216/216/216 239/239/239
f 249/249/249 213/213/213 214/214/214
f 196/196/196 213/213/213 249/249/249
f 241/241/241 249/249/249 214/214/214
f 258/258/258 253/253/253 245/245/245
f 246/246/246 258/258/258 245/245/245
f 245/245/245 253/253/253 244/244/244
f 269/269/269 258/258/258 254/254/254
f 255/255/255 257/257/257 247/247/247
f 254/254/254 274/274/274 269/269/269
f 259/259/259 253/253/253 258/258/258
f 258/258/258 269/269/269 259/259/259
f 179/179/179 198/198/198 260/260/260
f 261/261/261 197/197/197 253/253/253
f 212/212/212 213/213/213 179/179/179
f 196/196/196 198/198/198 179/179/179
f 211/211/211 181/181/181 182/182/182
f 210/210/210 211/211/211 182/182/182
f 211/211/211 212/212/212 181/181/181
f 261/261/261 253/253/253 259/259/259
f 268/268/268 269/269/269 274/274/274
f 195/195/195 179/179/179 213/213/213
f 229/229/229 230/230/230 167/167/167
f 165/165/165 166/166/166 230/230/230
f 231/231/231 232/232/232 164/164/164
f 231/231/231 164/164/164 165/165/165
f 283/283/283 282/282/282 277/277/277
f 277/277/277 282/282/282 276/276/276
f 282/282/282 173/173/173 273/273/273
f 279/279/279 265/265/265 278/278/278
f 264/264/264 279/279/279 280/280/280
f 283/283/283 278/278/278 271/271/271
f 277/277/277 278/278/278 283/283/283
f 281/281/281 263/263/263 280/280/280
f 233/233/233 234/234/234 161/161/161
f 235/235/235 236/236/236 158/158/158
f 234/234/234 235/235/235 160/160/160
f 153/153/153 237/237/237 152/152/152
f 156/156/156 237/237/237 153/153/153
f 236/236/236 237/237/237 157/157/157
f 153/153/153 154/154/154 156/156/156
f 162/162/162 163/163/163 233/233/233
f 234/234/234 160/160/160 161/161/161
f 237/237/237 156/156/156 157/157/157
f 154/154/154 155/155/155 156/156/156
f 270/270/270 268/268/268 274/274/274
f 266/266/266 267/267/267 272/272/272
f 270/270/270 272/272/272 267/267/267
f 272/272/272 271/271/271 266/266/266
f 264/264/264 265/265/265 279/279/279
f 278/278/278 266/266/266 271/271/271
f 265/265/265 266/266/266 278/278/278
f 280/280/280 263/263/263 264/264/264
f 182/182/182 183/183/183 210/210/210
f 268/268/268 270/270/270 267/267/267
f 183/183/183 184/184/184 209/209/209
f 208/208/208 185/185/185 186/186/186
f 185/185/185 208/208/208 209/209/209
f 186/186/186 207/207/207 208/208/208
f 187/187/187 207/207/207 186/186/186
f 184/184/184 185/185/185 209/209/209
f 188/188/188 189/189/189 206/206/206
f 187/187/187 188/188/188 206/206/206
f 190/190/190 205/205/205 189/189/189
f 190/190/190 191/191/191 204/204/204
f 206/206/206 189/189/189 205/205/205
f 204/204/204 191/191/191 192/192/192
f 204/204/204 192/192/192 203/203/203
f 202/202/202 194/194/194 200/200/200
f 199/199/199 200/200/200 194/194/194
f 203/203/203 192/192/192 193/193/193
f 200/200/200 201/201/201 202/202/202
f 203/203/203 193/193/193 202/202/202
f 202/202/202 193/193/193 194/194/194
f 207/207/207 187/187/187 206/206/206
f 263/263/263 281/281/281 262/262/262
f 314/314/314 296/296/296 300/300/300
f 314/314/314 301/301/301 302/302/302
f 314/314/314 315/315/315 310/310/310
f 300/300/300 301/301/301 314/314/314
f 297/297/297 296/296/296 314/314/314
f 314/314/314 313/313/313 297/297/297
f 314/314/314 311/311/311 312/312/312
f 314/314/314 310/310/310 311/311/311
f 312/312/312 313/313/313 314/314/314
f 303/303/303 314/314/314 302/302/302
f 315/315/315 303/303/303 304/304/304
f 315/315/315 305/305/305 306/306/306
f 315/315/315 306/306/306 298/298/298
f 315/315/315 304/304/304 305/305/305
f 315/315/315 308/308/308 309/309/309
f 307/307/307 315/315/315 299/299/299
f 298/298/298 299/299/299 315/315/315
f 308/308/308 315/315/315 307/307/307
f 303/303/303 315/315/315 314/314/314
f 323/323/323 317/317/317 316/316/316
f 321/321/321 318/318/318 320/320/320
f 325/325/325 329/329/329 326/326/326
f 330/330/330 331/331/331 357/357/357
f 329/329/329 330/330/330 358/358/358
f 332/332/332 333/333/333 355/355/355
f 334/334/334 335/335/335 353/353/353
f 333/333/333 334/334/334 354/354/354
f 331/331/331 332/332/332 356/356/356
f 351/351/351 352/352/352 336/336/336
f 337/337/337 338/338/338 350/350/350
f 339/339/339 340/340/340 348/348/348
f 338/338/338 339/339/339 349/349/349
f 341/341/341 342/342/342 346/346/346
f 343/343/343 327/327/327 344/344/344
f 342/342/342 343/343/343 345/345/345
f 340/340/340 341/341/341 347/347/347
f 350/350/350 351/351/351 337/337/337
f 359/359/359 363/363/363 364/364/364
f 362/362/362 364/364/364 363/363/363
f 399/399/399 365/365/365 369/369/369
f 399/399/399 370/370/370 371/371/371
f 372/372/372 399/399/399 371/371/371
f 369/369/369 370/370/370 399/399/399
f 366/366/366 365/365/365 399/399/399
f 400/400/400 399/399/399 372/372/372
f 374/374/374 400/400/400 373/373/373
f 375/375/375 400/400/400 374/374/374
f 401/401/401 400/400/400 375/375/375
f 398/398/398 366/366/366 399/399/399
f 396/396/396 397/397/397 399/399/399
f 395/395/395 396/396/396 399/399/399
f 398/398/398 399/399/399 397/397/397
f 393/393/393 394/394/394 400/400/400
f 395/395/395 400/400/400 394/394/394
f 400/400/400 392/392/392 393/393/393
f 392/392/392 401/401/401 391/391/391
f 400/400/400 401/401/401 392/392/392
f 399/399/399 400/400/400 395/395/395
f 402/402/402 377/377/377 378/378/378
f 401/401/401 377/377/377 402/402/402
f 379/379/379 402/402/402 378/378/378
f 403/403/403 402/402/402 379/379/379
f 401/401/401 402/402/402 390/390/390
f 376/376/376 377/377/377 401/401/401
f 382/382/382 404/404/404 381/381/381
f 383/383/383 404/404/404 382/382/382
f 381/381/381 403/403/403 380/380/380
f 367/367/367 404/404/404 383/383/383
f 402/402/402 403/403/403 388/388/388
f 388/388/388 389/389/389 402/402/402
f 387/387/387 403/403/403 386/386/386
f 385/385/385 386/386/386 404/404/404
f 403/403/403 404/404/404 386/386/386
f 404/404/404 384/384/384 385/385/385
f 404/404/404 368/368/368 384/384/384
f 368/368/368 404/404/404 367/367/367
f 404/404/404 403/403/403 381/381/381
f 391/391/391 401/401/401 390/390/390
f 405/405/405 409/409/409 406/406/406
f 408/408/408 410/410/410 409/409/409
f 429/429/429 411/411/411 415/415/415
f 429/429/429 416/416/416 417/417/417
f 429/429/429 417/417/417 418/418/418
f 429/429/429 415/415/415 416/416/416
f 429/429/429 428/428/428 412/412/412
f 426/426/426 427/427/427 429/429/429
f 428/428/428 429/429/429 427/427/427
f 429/429/429 425/425/425 426/426/426
f 429/429/429 412/412/412 411/411/411
f 430/430/430 429/429/429 418/418/418
f 430/430/430 419/419/419 420/420/420
f 413/413/413 430/430/430 421/421/421
f 420/420/420 421/421/421 430/430/430
f 414/414/414 430/430/430 413/413/413
f 429/429/429 430/430/430 425/425/425
f 430/430/430 422/422/422 423/423/423
f 430/430/430 414/414/414 422/422/422
f 423/423/423 424/424/424 430/430/430
f 431/431/431 435/435/435 432/432/432
f 436/436/436 437/437/437 447/447/447
f 435/435/435 436/436/436 448/448/448
f 445/445/445 446/446/446 438/438/438
f 439/439/439 440/440/440 443/443/443
f 441/441/441 433/433/433 442/442/442
f 440/440/440 441/441/441 442/442/442
f 444/444/444 445/445/445 439/439/439
f 494/494/494 449/449/449 454/454/454
f 494/494/494 455/455/455 456/456/456
f 457/457/457 494/494/494 456/456/456
f 454/454/454 455/455/455 494/494/494
f 450/450/450 449/449/449 494/494/494
f 496/496/496 494/494/494 457/457/457
f 461/461/461 496/496/496 459/459/459
f 462/462/462 496/496/496 461/461/461
f 466/466/466 497/497/497 463/463/463
f 493/493/493 450/450/450 494/494/494
f 491/491/491 492/492/492 494/494/494
f 490/490/490 491/491/491 494/494/494
f 493/493/493 494/494/494 492/492/492
f 496/496/496 498/498/498 487/487/487
f 464/464/464 499/499/499 495/495/495
f 496/496/496 488/488/488 489/489/489
f 487/487/487 498/498/498 486/486/486
f 490/490/490 496/496/496 489/489/489
f 494/494/494 496/496/496 490/490/490
f 498/498/498 465/465/465 468/468/468
f 501/501/501 467/467/467 470/470/470
f 502/502/502 500/500/500 471/471/471
f 469/469/469 471/471/471 500/500/500
f 498/498/498 500/500/500 485/485/485
f 504/504/504 502/502/502 474/474/474
f 476/476/476 477/477/477 504/504/504
f 451/451/451 504/504/504 477/477/477
f 472/472/472 474/474/474 502/502/502
f 500/500/500 502/502/502 483/483/483
f 482/482/482 483/483/483 502/502/502
f 485/485/485 500/500/500 484/484/484
f 480/480/480 481/481/481 504/504/504
f 502/502/502 481/481/481 482/482/482
f 504/504/504 479/479/479 480/480/480
f 503/503/503 453/453/453 478/478/478
f 452/452/452 504/504/504 451/451/451
f 502/502/502 504/504/504 481/481/481
f 468/468/468 500/500/500 498/498/498
f 506/506/506 510/510/510 507/507/507
f 514/514/514 510/510/510 511/511/511
f 513/513/513 511/511/511 512/512/512
f 509/509/509 513/513/513 512/512/512
f 514/514/514 511/511/511 513/513/513
f 549/549/549 515/515/515 519/519/519
f 549/549/549 520/520/520 521/521/521
f 522/522/522 549/549/549 521/521/521
f 519/519/519 520/520/520 549/549/549
f 516/516/516 515/515/515 549/549/549
f 550/550/550 549/549/549 522/522/522
f 524/524/524 550/550/550 523/523/523
f 525/525/525 550/550/550 524/524/524
f 551/551/551 550/550/550 525/525/525
f 548/548/548 516/516/516 549/549/549
f 546/546/546 547/547/547 549/549/549
f 545/545/545 546/546/546 549/549/549
f 548/548/548 549/549/549 547/547/547
f 543/543/543 544/544/544 550/550/550
f 545/545/545 550/550/550 544/544/544
f 550/550/550 542/542/542 543/543/543
f 542/542/542 551/551/551 541/541/541
f 550/550/550 551/551/551 542/542/542
f 549/549/549 550/550/550 545/545/545
f 552/552/552 527/527/527 528/528/528
f 551/551/551 527/527/527 552/552/552
f 529/529/529 552/552/552 528/528/528
f 553/553/553 552/552/552 529/529/529
f 551/551/551 552/552/552 540/540/540
f 526/526/526 527/527/527 551/551/551
f 532/532/532 554/554/554 531/531/531
f 533/533/533 554/554/554 532/532/532
f 531/531/531 553/553/553 530/530/530
f 517/517/517 554/554/554 533/533/533
f 552/552/552 553/553/553 538/538/538
f 538/538/538 539/539/539 552/552/552
f 537/537/537 553/553/553 536/536/536
f 535/535/535 536/536/536 554/554/554
f 553/553/553 554/554/554 536/536/536
f 554/554/554 534/534/534 535/535/535
f 554/554/554 518/518/518 534/534/534
f 518/518/518 554/554/554 517/517/517
f 554/554/554 553/553/553 531/531/531
f 541/541/541 551/551/551 540/540/540
f 562/562/562 556/556/556 555/555/555
f 560/560/560 557/557/557 558/558/558
f 568/568/568 581/581/581 565/565/565
f 569/569/569 570/570/570 579/579/579
f 568/568/568 569/569/569 580/580/580
f 578/578/578 579/579/579 571/571/571
f 571/571/571 572/572/572 578/578/578
f 573/573/573 574/574/574 575/575/575
f 572/572/572 573/573/573 576/576/576
f 567/567/567 575/575/575 566/566/566
f 150/150/150 69/69/69 148/148/148
f 146/146/146 149/149/149 150/150/150
f 26/26/26 106/106/106 103/103/103
f 147/147/147 66/66/66 146/146/146
f 46/46/46 102/102/102 26/26/26
f 109/109/109 111/111/111 113/113/113
f 126/126/126 137/137/137 24/24/24
f 129/129/129 1/1/1 109/109/109
f 125/125/125 128/128/128 129/129/129
f 127/127/127 24/24/24 125/125/125
f 64/64/64 62/62/62 79/79/79
f 61/61/61 79/79/79 62/62/62
f 60/60/60 59/59/59 81/81/81
f 30/30/30 17/17/17 31/31/31
f 32/32/32 31/31/31 17/17/17
f 59/59/59 58/58/58 82/82/82
f 57/57/57 82/82/82 58/58/58
f 56/56/56 55/55/55 84/84/84
f 54/54/54 84/84/84 55/55/55
f 85/85/85 53/53/53 86/86/86
f 87/87/87 50/50/50 88/88/88
f 52/52/52 51/51/51 87/87/87
f 88/88/88 49/49/49 89/89/89
f 34/34/34 14/14/14 35/35/35
f 36/36/36 35/35/35 14/14/14
f 12/12/12 37/37/37 13/13/13
f 39/39/39 38/38/38 12/12/12
f 295/295/295 178/178/178 294/294/294
f 291/291/291 294/294/294 175/175/175
f 196/196/196 252/252/252 248/248/248
f 292/292/292 175/175/175 177/177/177
f 198/198/198 248/248/248 253/253/253
f 254/254/254 256/256/256 151/151/151
f 271/271/271 282/282/282 283/283/283
f 274/274/274 151/151/151 273/273/273
f 270/270/270 273/273/273 173/173/173
f 272/272/272 173/173/173 271/271/271
f 227/227/227 170/170/170 172/172/172
f 169/169/169 227/227/227 228/228/228
f 229/229/229 167/167/167 168/168/168
f 212/212/212 179/179/179 180/180/180
f 212/212/212 180/180/180 181/181/181
f 230/230/230 166/166/166 167/167/167
f 165/165/165 230/230/230 231/231/231
f 232/232/232 163/163/163 164/164/164
f 233/233/233 161/161/161 162/162/162
f 235/235/235 158/158/158 159/159/159
f 235/235/235 159/159/159 160/160/160
f 236/236/236 157/157/157 158/158/158
f 163/163/163 232/232/232 233/233/233
f 183/183/183 209/209/209 210/210/210
f 190/190/190 204/204/204 205/205/205
f 315/315/315 309/309/309 310/310/310
f 323/323/323 316/316/316 321/321/321
f 322/322/322 319/319/319 324/324/324
f 329/329/329 358/358/358 326/326/326
f 331/331/331 356/356/356 357/357/357
f 330/330/330 357/357/357 358/358/358
f 333/333/333 354/354/354 355/355/355
f 335/335/335 352/352/352 353/353/353
f 334/334/334 353/353/353 354/354/354
f 332/332/332 355/355/355 356/356/356
f 352/352/352 335/335/335 336/336/336
f 338/338/338 349/349/349 350/350/350
f 340/340/340 347/347/347 348/348/348
f 339/339/339 348/348/348 349/349/349
f 342/342/342 345/345/345 346/346/346
f 327/327/327 328/328/328 344/344/344
f 343/343/343 344/344/344 345/345/345
f 341/341/341 346/346/346 347/347/347
f 351/351/351 336/336/336 337/337/337
f 359/359/359 364/364/364 360/360/360
f 362/362/362 363/363/363 361/361/361
f 400/400/400 372/372/372 373/373/373
f 401/401/401 375/375/375 376/376/376
f 403/403/403 379/379/379 380/380/380
f 402/402/402 389/389/389 390/390/390
f 403/403/403 387/387/387 388/388/388
f 409/409/409 410/410/410 406/406/406
f 408/408/408 409/409/409 407/407/407
f 430/430/430 418/418/418 419/419/419
f 430/430/430 424/424/424 425/425/425
f 435/435/435 448/448/448 432/432/432
f 437/437/437 446/446/446 447/447/447
f 436/436/436 447/447/447 448/448/448
f 446/446/446 437/437/437 438/438/438
f 439/439/439 443/443/443 444/444/444
f 433/433/433 434/434/434 442/442/442
f 440/440/440 442/442/442 443/443/443
f 445/445/445 438/438/438 439/439/439
f 495/495/495 458/458/458 460/460/460
f 496/496/496 487/487/487 488/488/488
f 502/502/502 471/471/471 472/472/472
f 498/498/498 485/485/485 486/486/486
f 505/505/505 473/473/473 475/475/475
f 500/500/500 483/483/483 484/484/484
f 510/510/510 514/514/514 507/507/507
f 509/509/509 512/512/512 508/508/508
f 550/550/550 522/522/522 523/523/523
f 551/551/551 525/525/525 526/526/526
f 553/553/553 529/529/529 530/530/530
f 552/552/552 539/539/539 540/540/540
f 553/553/553 537/537/537 538/538/538
f 562/562/562 555/555/555 560/560/560
f 561/561/561 559/559/559 563/563/563
f 568/568/568 565/565/565 564/564/564
f 569/569/569 579/579/579 580/580/580
f 568/568/568 580/580/580 581/581/581
f 579/579/579 570/570/570 571/571/571
f 572/572/572 577/577/577 578/578/578
f 573/573/573 575/575/575 576/576/576
f 572/572/572 576/576/576 577/577/577
f 575/575/575 574/574/574 566/566/566

