mtllib material.mtl
usemtl Material-7024油漆.010
v -0.23898300 0.10166400 0.02289900
v -0.23906600 0.10431600 0.01834100
v -0.23909900 0.09216800 0.03262400
v -0.23909900 0.09216800 0.03262400
v -0.23909900 0.09216800 0.03262400
v -0.23909900 0.07669700 -0.03940200
v -0.23909900 0.07669700 -0.03940200
v -0.23909900 0.07669700 -0.03940200
v -0.23909700 0.10869600 -0.00182100
v -0.23909700 0.10869600 -0.00182100
v -0.23909700 0.10869600 -0.00182100
v -0.23909000 0.09000300 -0.03400400
v -0.23909600 0.09308900 -0.03185000
v -0.23905300 0.10560100 -0.01556800
v -0.23905300 0.10560100 -0.01556800
v -0.23893400 0.10050400 -0.02439300
v -0.23870600 0.10321900 -0.02042700
v -0.23895800 0.10789200 0.00823500
v -0.23869400 0.10644800 0.01349600
v -0.23910000 0.06850300 -0.03974800
v -0.23910000 0.06850300 -0.03974800
v -0.23910000 0.06850300 -0.03974800
v -0.23910000 0.06850300 -0.03974800
v -0.23909600 0.07813100 0.03907500
v -0.23909600 0.07813100 0.03907500
v -0.23910000 0.06850000 0.03975000
v -0.23909600 0.08745600 0.03549300
v -0.23909600 0.08745600 0.03549300
v -0.18402500 0.07661700 -0.03940300
v -0.18198700 0.07965300 -0.03867400
v -0.18198700 0.06850000 -0.04025000
v -0.18400000 0.08487100 -0.03677000
v -0.18198700 0.09033900 -0.03381000
v -0.18198700 0.09926800 -0.02595000
v -0.18400000 0.09841200 -0.02693300
v -0.18400000 0.10335800 -0.02012500
v -0.18400000 0.09215800 -0.03256300
v -0.18198700 0.10545100 -0.01596000
v -0.18400000 0.10678000 -0.01243800
v -0.18198700 0.10840900 -0.00522500
v -0.18398400 0.10852800 0.00421400
v -0.18198700 0.10835500 0.00562500
v -0.18400000 0.10678000 0.01243800
v -0.18198700 0.10514300 0.01665400
v -0.18400000 0.10335800 0.02012500
v -0.18198700 0.09872100 0.02658500
v -0.18198700 0.08963900 0.03425200
v -0.18404700 0.08467500 0.03685100
v -0.18198700 0.07909600 0.03883000
v -0.18400000 0.09841200 0.02693300
v -0.18400000 0.09215800 0.03256300
v -0.18462400 0.07551200 0.03956000
v -0.18223400 0.06844200 0.04035400
v -0.21560300 0.09317900 -0.03180100
v -0.21560700 0.09731800 -0.02817300
v -0.21510500 0.09653700 -0.02829900
v -0.21560400 0.10058800 -0.02430200
v -0.21551600 0.10735600 -0.01059800
v -0.21561200 0.10839700 -0.00533600
v -0.21510300 0.10702200 -0.01015600
v -0.21559700 0.10565100 -0.01550400
v -0.21508700 0.10352100 -0.01988000
v -0.21506800 0.08902700 -0.03464800
v -0.21510000 0.08371200 -0.03672400
v -0.21514300 0.08377700 -0.03725500
v -0.21561000 0.10259500 0.02139600
v -0.21511200 0.09939300 0.02581100
v -0.21504100 0.10425000 0.01846300
v -0.21519900 0.08285900 0.03761900
v -0.21559200 0.07836700 0.03902300
v -0.21511500 0.07416900 0.03986400
v -0.21511500 0.07416900 0.03986400
v -0.21560000 0.06850000 0.04025000
v -0.21510000 0.06850000 0.03975000
v -0.21560000 0.09606500 0.02933600
v -0.21542700 0.09232700 0.03246000
v -0.23909900 0.07669700 -0.03940200
v -0.23909900 0.07669700 -0.03940200
v -0.23851000 0.07252400 -0.04009900
v -0.23910000 0.06850300 -0.03974800
v -0.21310000 0.08156900 0.03806900
v -0.21519900 0.08285900 0.03761900
v -0.21511500 0.07416900 0.03986400
v -0.21310000 0.09811300 0.02726100
v -0.21511200 0.09939300 0.02581100
v -0.21542700 0.09232700 0.03246000
v -0.21310000 0.09322200 0.03176300
v -0.21305700 0.08782100 0.03529800
v -0.21310000 0.10219600 0.02201500
v -0.21504100 0.10425000 0.01846300
v -0.21271800 0.07572300 0.03951200
v -0.21428300 0.06849700 0.04041300
v -0.21301400 0.10762000 0.00944000
v -0.21518900 0.10825600 0.00636800
v -0.21534600 0.10661000 0.01313000
v -0.21310000 0.10536000 0.01616800
v -0.21310000 0.10860900 0.00333900
v -0.21505100 0.10876000 -0.00021400
v -0.21298200 0.10862500 -0.00297700
v -0.21460000 0.10825400 -0.00629600
v -0.21310000 0.10536000 -0.01616800
v -0.21508700 0.10352100 -0.01988000
v -0.21458000 0.10673900 -0.01279100
v -0.21292800 0.10761900 -0.00936500
v -0.21310000 0.10219600 -0.02201500
v -0.21460400 0.10013200 -0.02494500
v -0.21310000 0.09811300 -0.02726100
v -0.21412000 0.09361700 -0.03177300
v -0.21413200 0.08189900 -0.03819000
v -0.21506800 0.08902700 -0.03464800
v -0.21310000 0.08765700 -0.03539900
v -0.21179000 0.07488400 -0.03944300
v -0.21448000 0.07511500 -0.03981200
v -0.21310000 0.06850000 -0.04025000
v -0.21507000 0.06853100 -0.04022500
v -0.23850800 0.09698300 -0.02849900
v -0.21560700 0.09731800 -0.02817300
v -0.21560300 0.09317900 -0.03180100
v -0.23909600 0.09308900 -0.03185000
v -0.21506800 0.08902700 -0.03464800
v -0.23893400 0.10050400 -0.02439300
v -0.21560400 0.10058800 -0.02430200
v -0.23870600 0.10321900 -0.02042700
v -0.21508700 0.10352100 -0.01988000
v -0.23858000 0.10841800 -0.00521300
v -0.21561200 0.10839700 -0.00533600
v -0.23882800 0.10739100 -0.01059100
v -0.21551600 0.10735600 -0.01059800
v -0.21559700 0.10565100 -0.01550400
v -0.23905300 0.10560100 -0.01556800
v -0.23852800 0.10865000 0.00317200
v -0.21505100 0.10876000 -0.00021400
v -0.23909700 0.10869600 -0.00182100
v -0.21518900 0.10825600 0.00636800
v -0.23869400 0.10644800 0.01349600
v -0.21534600 0.10661000 0.01313000
v -0.23895800 0.10789200 0.00823500
v -0.23898300 0.10166400 0.02289900
v -0.21561000 0.10259500 0.02139600
v -0.21504100 0.10425000 0.01846300
v -0.23906600 0.10431600 0.01834100
v -0.23850600 0.09724200 0.02821200
v -0.21511200 0.09939300 0.02581100
v -0.23909900 0.09216800 0.03262400
v -0.21542700 0.09232700 0.03246000
v -0.21560000 0.09606500 0.02933600
v -0.23909600 0.08745600 0.03549300
v -0.21305700 0.08782100 0.03529800
v -0.23855800 0.08325300 0.03748700
v -0.21519900 0.08285900 0.03761900
v -0.23857000 0.07346800 0.03999700
v -0.21511500 0.07416900 0.03986400
v -0.21559200 0.07836700 0.03902300
v -0.23909600 0.07813100 0.03907500
v -0.21560000 0.06850000 0.04025000
v -0.23860000 0.06850000 0.04025000
v -0.23910000 0.06850000 0.03975000
v -0.23860000 0.06850000 0.04025000
v -0.23857000 0.07346800 0.03999700
v -0.23909900 0.09216800 0.03262400
v -0.23850600 0.09724200 0.02821200
v -0.23898300 0.10166400 0.02289900
v -0.23895800 0.10789200 0.00823500
v -0.23852800 0.10865000 0.00317200
v -0.23909700 0.10869600 -0.00182100
v -0.23909700 0.10869600 -0.00182100
v -0.23858000 0.10841800 -0.00521300
v -0.23882800 0.10739100 -0.01059100
v -0.23893400 0.10050400 -0.02439300
v -0.23850800 0.09698300 -0.02849900
v -0.23909600 0.09308900 -0.03185000
v -0.23909000 0.09000300 -0.03400400
v -0.23852600 0.08538800 -0.03656900
v -0.23909900 0.07669700 -0.03940200
v -0.21460000 0.10825400 -0.00629600
v -0.21458000 0.10673900 -0.01279100
v -0.21510300 0.10702200 -0.01015600
v -0.21460400 0.10013200 -0.02494500
v -0.21412000 0.09361700 -0.03177300
v -0.21510500 0.09653700 -0.02829900
v -0.21413200 0.08189900 -0.03819000
v -0.21448000 0.07511500 -0.03981200
v -0.21510000 0.07803200 -0.03864000
v -0.21507000 0.06853100 -0.04022500
v -0.19128300 0.10777600 -0.00443800
v -0.18827800 0.10790300 -0.00069000
v -0.18906900 0.10747500 -0.00364000
v -0.20397300 0.10790000 -0.00443000
v -0.19104300 0.10745100 0.00459700
v -0.18842800 0.10749900 0.00295400
v -0.19229300 0.10790000 0.00443600
v -0.20841800 0.10753600 -0.00218800
v -0.20772000 0.10787700 0.00147300
v -0.20637300 0.10753600 -0.00456400
v -0.20419300 0.10784300 0.00442200
v -0.20688800 0.10736000 0.00385900
v -0.19125800 0.10740800 -0.00500300
v -0.19069100 0.10787600 -0.00523000
v -0.20480700 0.10761300 -0.00528600
v -0.19128300 0.10777600 -0.00443800
v -0.20637300 0.10753600 -0.00456400
v -0.18906900 0.10747500 -0.00364000
v -0.19069100 0.10787600 -0.00523000
v -0.19125800 0.10740800 -0.00500300
v -0.18818300 0.10739900 -0.00130600
v -0.18731300 0.10791900 -0.00142300
v -0.18773700 0.10773800 0.00220200
v -0.18842800 0.10749900 0.00295400
v -0.18827800 0.10790300 -0.00069000
v -0.20844600 0.10736500 0.00117500
v -0.20820300 0.10779600 0.00286200
v -0.20688800 0.10736000 0.00385900
v -0.20493700 0.10791100 0.00534200
v -0.20896700 0.10800400 -0.00015600
v -0.20841800 0.10753600 -0.00218800
v -0.20772000 0.10787700 0.00147300
v -0.20419300 0.10784300 0.00442200
v -0.20522100 0.10741400 0.00484700
v -0.19104300 0.10745100 0.00459700
v -0.19104300 0.10745100 0.00459700
v -0.19032300 0.10793500 0.00500800
v -0.18842800 0.10749900 0.00295400
v -0.19154500 0.10745600 0.00519300
v -0.19069100 0.10787600 -0.00523000
v -0.18913400 0.10821600 -0.00522800
v -0.20563100 0.10810000 -0.00529300
v -0.20995600 0.10788200 0.00004500
v -0.20890800 0.10814700 -0.00000400
v -0.20830600 0.10805700 -0.00312900
v -0.20532500 0.10820600 -0.00622200
v -0.20563100 0.10810000 -0.00529300
v -0.18913400 0.10821600 -0.00522800
v -0.19195700 0.10820000 -0.00626200
v -0.20780100 0.10806200 0.00426200
v -0.20469900 0.10820000 0.00625900
v -0.20493700 0.10791100 0.00534200
v -0.19032300 0.10793500 0.00500800
v -0.19069100 0.10787600 -0.00523000
v -0.18731300 0.10791900 -0.00142300
v -0.18632000 0.10812100 -0.00163500
v -0.18793800 0.10804000 0.00263200
v -0.18799400 0.10821500 0.00427100
v -0.19147600 0.10820100 0.00623800
v -0.21292800 0.10761900 -0.00936500
v -0.20878900 0.10729000 -0.00366400
v -0.20649500 0.10634300 -0.00560500
v -0.21298200 0.10862500 -0.00297700
v -0.20995600 0.10788200 0.00004500
v -0.20832900 0.10710000 0.00412300
v -0.21301400 0.10762000 0.00944000
v -0.20649600 0.10634200 0.00560900
v -0.21310000 0.10860900 0.00333900
v -0.21179000 0.07488400 -0.03944300
v -0.20660000 0.07489900 -0.03771100
v -0.20673700 0.06850400 -0.03825200
v -0.20660000 0.08141400 -0.03600400
v -0.21413200 0.08189900 -0.03819000
v -0.21310000 0.08765700 -0.03539900
v -0.20660000 0.09349400 -0.02895500
v -0.21412000 0.09361700 -0.03177300
v -0.21310000 0.09811300 -0.02726100
v -0.20660000 0.08772700 -0.03306600
v -0.20660000 0.09840300 -0.02385100
v -0.20973500 0.10483300 -0.01478500
v -0.20660000 0.10223100 -0.01803500
v -0.20657100 0.10487300 -0.01184500
v -0.21310000 0.06850000 -0.04025000
v -0.21310000 0.10219600 -0.02201500
v -0.21310000 0.10536000 -0.01616800
v -0.20660000 0.09840300 0.02385100
v -0.21310000 0.09811300 0.02726100
v -0.20660000 0.09349400 0.02895500
v -0.21310000 0.09322200 0.03176300
v -0.20660000 0.08772700 0.03306600
v -0.20660000 0.10223100 0.01803500
v -0.20967400 0.10455900 0.01539700
v -0.20660000 0.07489900 0.03771100
v -0.20660000 0.08141400 0.03600400
v -0.21271800 0.07572300 0.03951200
v -0.21305700 0.08782100 0.03529800
v -0.20660000 0.06850000 0.03825000
v -0.21108800 0.06850900 0.03974300
v -0.20656400 0.10487200 0.01185000
v -0.21310000 0.10536000 0.01616800
v -0.21310000 0.10219600 0.02201500
v -0.21428300 0.06849700 0.04041300
v -0.21310000 0.08156900 0.03806900
v -0.22097500 0.07635200 -0.03947700
v -0.21507000 0.06853100 -0.04022500
v -0.23851000 0.07252400 -0.04009900
v -0.23860200 0.07999700 -0.03857200
v -0.21803800 0.08018400 -0.03851700
v -0.23909900 0.07669700 -0.03940200
v -0.21514300 0.08377700 -0.03725500
v -0.23860000 0.06850000 -0.04025000
v -0.23852600 0.08538800 -0.03656900
v -0.18198700 0.06850000 0.03975000
v -0.18198700 0.07909600 0.03883000
v -0.18223400 0.06844200 0.04035400
v -0.18198700 0.06850000 -0.03975000
v -0.18198700 0.07965300 -0.03867400
v -0.18198700 0.06850000 -0.04025000
v -0.18198700 0.09033900 -0.03381000
v -0.18198700 0.08963900 0.03425200
v -0.18198700 0.10514300 0.01665400
v -0.18198700 0.09872100 0.02658500
v -0.18198700 0.09926800 -0.02595000
v -0.18198700 0.10835500 0.00562500
v -0.18198700 0.10545100 -0.01596000
v -0.18198700 0.10840900 -0.00522500
v -0.18725000 0.08397500 0.03607000
v -0.18887500 0.08377800 0.03561100
v -0.18839400 0.07630800 0.03811000
v -0.18404700 0.08467500 0.03685100
v -0.18725000 0.10483600 0.01484100
v -0.18604100 0.10747200 0.00725600
v -0.18887500 0.10437300 0.01465200
v -0.18398400 0.10852800 0.00421400
v -0.18709900 0.10772300 0.00293400
v -0.18632000 0.10812100 -0.00163500
v -0.18562500 0.10529900 0.01503000
v -0.18726000 0.10452800 -0.01550100
v -0.18595400 0.10745100 -0.00749600
v -0.18562500 0.10503000 -0.01567200
v -0.19050000 0.07485500 0.03771800
v -0.19050000 0.06850000 0.03825000
v -0.19050000 0.08132400 0.03603600
v -0.19050000 0.09333100 0.02909500
v -0.19050000 0.08759400 0.03314300
v -0.19050000 0.10207300 0.01832700
v -0.19050000 0.09823100 0.02406500
v -0.18462400 0.07551200 0.03956000
v -0.18400000 0.09215800 0.03256300
v -0.18400000 0.09841200 0.02693300
v -0.19050000 0.10475100 0.01220300
v -0.18554000 0.06849600 0.03977600
v -0.19022600 0.10628100 0.00600400
v -0.18223400 0.06844200 0.04035400
v -0.18400000 0.10335800 0.02012500
v -0.18400000 0.10678000 0.01243800
v -0.19022600 0.10628200 -0.00600000
v -0.19050000 0.10475100 -0.01220300
v -0.19050000 0.09823100 -0.02406500
v -0.19050000 0.10207300 -0.01832700
v -0.19050000 0.09333100 -0.02909500
v -0.18887500 0.08315200 -0.03587300
v -0.19050000 0.08132400 -0.03603600
v -0.19050000 0.08759400 -0.03314300
v -0.19043000 0.07523700 -0.03767400
v -0.18724600 0.08332100 -0.03635400
v -0.18579000 0.06849200 -0.03976600
v -0.19050000 0.06850000 -0.03825000
v -0.18400000 0.09841200 -0.02693300
v -0.18400000 0.10678000 -0.01243800
v -0.18398200 0.10852800 -0.00422200
v -0.18402500 0.07661700 -0.03940300
v -0.18467500 0.06882600 -0.04020500
v -0.18400000 0.08487100 -0.03677000
v -0.18400000 0.10335800 -0.02012500
v -0.18400000 0.09215800 -0.03256300
v -0.20657100 0.10487300 -0.01184500
v -0.20649500 0.10634300 -0.00560500
v -0.19022600 0.10628200 -0.00600000
v -0.20660000 0.09840300 -0.02385100
v -0.20660000 0.10223100 -0.01803500
v -0.19050000 0.10207300 -0.01832700
v -0.19050000 0.10475100 -0.01220300
v -0.20660000 0.08772700 -0.03306600
v -0.20660000 0.09349400 -0.02895500
v -0.19050000 0.09333100 -0.02909500
v -0.20660000 0.07489900 -0.03771100
v -0.20660000 0.08141400 -0.03600400
v -0.19050000 0.08132400 -0.03603600
v -0.20673700 0.06850400 -0.03825200
v -0.19043000 0.07523700 -0.03767400
v -0.19050000 0.08759400 -0.03314300
v -0.19050000 0.09823100 -0.02406500
v -0.20660000 0.07489900 0.03771100
v -0.20660000 0.06850000 0.03825000
v -0.19050000 0.07485500 0.03771800
v -0.20660000 0.08772700 0.03306600
v -0.20660000 0.08141400 0.03600400
v -0.19050000 0.08759400 0.03314300
v -0.19050000 0.08132400 0.03603600
v -0.20660000 0.09840300 0.02385100
v -0.20660000 0.09349400 0.02895500
v -0.19050000 0.09823100 0.02406500
v -0.20656400 0.10487200 0.01185000
v -0.20660000 0.10223100 0.01803500
v -0.19050000 0.10475100 0.01220300
v -0.20649600 0.10634200 0.00560900
v -0.19022600 0.10628100 0.00600400
v -0.19050000 0.10207300 0.01832700
v -0.19050000 0.09333100 0.02909500
v -0.19195700 0.10820000 -0.00626200
v -0.19022600 0.10628200 -0.00600000
v -0.19211700 0.10620400 -0.00644500
v -0.18913400 0.10821600 -0.00522800
v -0.18632000 0.10812100 -0.00163500
v -0.20532500 0.10820600 -0.00622200
v -0.20532500 0.10820600 -0.00622200
v -0.19195700 0.10820000 -0.00626200
v -0.19211700 0.10620400 -0.00644500
v -0.19211700 0.10620400 -0.00644500
v -0.20995600 0.10788200 0.00004500
v -0.20830600 0.10805700 -0.00312900
v -0.20878900 0.10729000 -0.00366400
v -0.20649500 0.10634300 -0.00560500
v -0.20532500 0.10820600 -0.00622200
v -0.20442200 0.10620600 -0.00643000
v -0.18799400 0.10821500 0.00427100
v -0.18709900 0.10772300 0.00293400
v -0.18632000 0.10812100 -0.00163500
v -0.19022600 0.10628100 0.00600400
v -0.19211700 0.10620400 0.00644500
v -0.19147600 0.10820100 0.00623800
v -0.20440800 0.10620600 0.00643000
v -0.19211700 0.10620400 0.00644500
v -0.20469900 0.10820000 0.00625900
v -0.19147600 0.10820100 0.00623800
v -0.20832900 0.10710000 0.00412300
v -0.20649600 0.10634200 0.00560900
v -0.20780100 0.10806200 0.00426200
v -0.20469900 0.10820000 0.00625900
v -0.20440800 0.10620600 0.00643000
v -0.20995600 0.10788200 0.00004500
v -0.20673700 0.06850400 -0.03825200
v -0.23910000 0.06850300 -0.03974800
v -0.23910000 0.06850300 -0.03974800
v -0.21310000 0.06850000 -0.04025000
v -0.21310000 0.06850000 -0.04025000
v -0.23910000 0.03177600 0.01521200
v -0.23910000 0.03728400 -0.02461000
v -0.23910000 0.03177600 -0.01521200
v -0.23910000 0.02875500 -0.00062600
v -0.23910000 0.04083800 0.02854600
v -0.23910000 0.04582100 -0.03264500
v -0.23910000 0.06850000 0.03975000
v -0.23910000 0.06850300 -0.03974800
v -0.23910000 0.05669600 -0.03795700
v -0.23910000 0.05328800 0.03672400
v -0.18912600 0.06489000 0.03958600
v -0.18554000 0.06849600 0.03977600
v -0.22494600 0.06540600 0.03964600
v -0.19642300 0.06132300 0.03909900
v -0.22482200 0.06138800 0.03910900
v -0.22494000 0.06555700 -0.03965600
v -0.18912600 0.06509100 -0.03960400
v -0.19626500 0.06166200 -0.03915700
v -0.22434000 0.06143500 -0.03913300
v -0.18579000 0.06849200 -0.03976600
v -0.21510000 0.06850000 0.03975000
v -0.23910000 0.06850000 0.03975000
v -0.21108800 0.06850900 0.03974300
v -0.23910000 0.05328800 0.03672400
v -0.18198700 0.05386800 0.03695900
v -0.23910000 0.04083800 0.02854600
v -0.23910000 0.03177600 0.01521200
v -0.18198700 0.04039300 0.02810700
v -0.18198700 0.06850000 0.03975000
v -0.18198700 0.02875000 -0.00000000
v -0.18198700 0.03154100 0.01463200
v -0.23910000 0.02875500 -0.00062600
v -0.23910000 0.03177600 -0.01521200
v -0.18198700 0.03154100 -0.01463200
v -0.23910000 0.04582100 -0.03264500
v -0.18198700 0.04039300 -0.02810700
v -0.23910000 0.03728400 -0.02461000
v -0.23910000 0.06850300 -0.03974800
v -0.23910000 0.05669600 -0.03795700
v -0.18198700 0.05386800 -0.03695900
v -0.20673700 0.06850400 -0.03825200
v -0.18198700 0.06850000 -0.03975000
v -0.18198700 0.03154100 -0.01463200
v -0.18198700 0.03154100 0.01463200
v -0.18198700 0.02875000 -0.00000000
v -0.18198700 0.04039300 -0.02810700
v -0.18198700 0.04039300 0.02810700
v -0.18198700 0.06850000 -0.03975000
v -0.18198700 0.06850000 0.03975000
v -0.18198700 0.05386800 0.03695900
v -0.18198700 0.05386800 -0.03695900
v -0.19050000 0.06850000 0.03825000
v -0.20660000 0.06850000 0.03825000
v -0.21108800 0.06850900 0.03974300
v -0.18554000 0.06849600 0.03977600
v -0.21510000 0.06850000 0.03975000
v -0.21560000 0.06850000 0.04025000
v -0.23860000 0.06850000 0.04025000
v -0.23910000 0.06850000 0.03975000
v -0.21428300 0.06849700 0.04041300
v -0.21510000 0.06850000 0.03975000
v -0.21108800 0.06850900 0.03974300
v -0.18198700 0.06850000 0.03975000
v -0.18223400 0.06844200 0.04035400
v -0.18554000 0.06849600 0.03977600
v -0.18198700 0.06850000 -0.03975000
v -0.18579000 0.06849200 -0.03976600
v -0.18198700 0.06850000 -0.04025000
v -0.20673700 0.06850400 -0.03825200
v -0.19050000 0.06850000 -0.03825000
v -0.18579000 0.06849200 -0.03976600
v -0.23882800 0.10739100 -0.01059100
v -0.18467500 0.06882600 -0.04020500
v -0.18398200 0.10852800 -0.00422200
v -0.21505100 0.10876000 -0.00021400
v -0.23852600 0.08538800 -0.03656900
v -0.23860200 0.07999700 -0.03857200
v -0.23860000 0.06850000 -0.04025000
v -0.23909000 0.09000300 -0.03400400
v -0.23852600 0.08538800 -0.03656900
v -0.21514300 0.08377700 -0.03725500
v -0.23909600 0.07813100 0.03907500
v -0.23855800 0.08325300 0.03748700
v -0.23909600 0.08745600 0.03549300
v -0.21428300 0.06849700 0.04041300
v -0.21511500 0.07416900 0.03986400
v -0.21510000 0.06850000 0.03975000
v -0.21505100 0.10876000 -0.00021400
v -0.21508700 0.10352100 -0.01988000
v -0.21508700 0.10352100 -0.01988000
v -0.21506800 0.08902700 -0.03464800
v -0.21506800 0.08902700 -0.03464800
v -0.21510000 0.08371200 -0.03672400
v -0.20397300 0.10790000 -0.00443000
v -0.19128300 0.10777600 -0.00443800
v -0.20522100 0.10741400 0.00484700
v -0.20419300 0.10784300 0.00442200
v -0.20493700 0.10791100 0.00534200
v -0.19154500 0.10745600 0.00519300
v -0.19032300 0.10793500 0.00500800
v -0.19229300 0.10790000 0.00443600
v -0.18773700 0.10773800 0.00220200
v -0.20480700 0.10761300 -0.00528600
v -0.19050000 0.06850000 -0.03825000
v -0.19050000 0.06850000 0.03825000
v -0.20442200 0.10620600 -0.00643000
v -0.23860000 0.06850000 -0.04025000
v -0.21507000 0.06853100 -0.04022500
v -0.21507000 0.06853100 -0.04022500
v -0.18467500 0.06882600 -0.04020500
vn -1.00000000 0.00000000 0.00000000
vn -1.00000000 0.00000000 0.00000000
vn -1.00000000 0.00020000 -0.00000000
vn -1.00000000 0.00010000 -0.00000000
vn -1.00000000 0.00000000 0.00000000
vn -1.00000000 0.00020000 -0.00000000
vn -1.00000000 0.00010000 -0.00000000
vn -1.00000000 0.00000000 0.00000000
vn -1.00000000 0.00000000 0.00000000
vn -1.00000000 0.00010000 -0.00000000
vn -1.00000000 -0.00010000 -0.00000000
vn -1.00000000 0.00000000 0.00000000
vn -1.00000000 0.00000000 0.00000000
vn -1.00000000 -0.00010000 -0.00000000
vn -1.00000000 0.00000000 0.00000000
vn -1.00000000 0.00000000 0.00000000
vn -1.00000000 0.00000000 0.00000000
vn -1.00000000 0.00000000 0.00000000
vn -1.00000000 0.00000000 0.00000000
vn -1.00000000 0.00020000 -0.00000000
vn -1.00000000 -0.00010000 -0.00000000
vn -1.00000000 0.00010000 -0.00000000
vn -1.00000000 0.00000000 0.00000000
vn -1.00000000 0.00010000 -0.00000000
vn -1.00000000 -0.00010000 -0.00000000
vn -1.00000000 -0.00010000 -0.00000000
vn -1.00000000 0.00010000 -0.00000000
vn -1.00000000 0.00000000 0.00000000
vn 0.00000000 0.20180000 -0.97940000
vn 0.00000000 0.27710000 -0.96080000
vn -0.00000000 -0.00000000 -1.00000000
vn 0.00000000 0.40670000 -0.91350000
vn -0.00000000 0.54260000 -0.84000000
vn -0.00000000 0.76440000 -0.64470000
vn 0.00000000 0.74310000 -0.66910000
vn 0.00000000 0.86600000 -0.50000000
vn 0.00000000 0.58780000 -0.80900000
vn -0.00000000 0.91800000 -0.39650000
vn -0.00000000 0.95110000 -0.30900000
vn 0.00000000 0.99150000 -0.12980000
vn 0.00000000 0.99450000 0.10470000
vn 0.00000000 0.99020000 0.13980000
vn -0.00000000 0.95110000 0.30900000
vn 0.00000000 0.91040000 0.41380000
vn 0.00000000 0.86600000 0.50000000
vn -0.00000000 0.75080000 0.66050000
vn 0.00000000 0.52520000 0.85100000
vn 0.00000000 0.40190000 0.91570000
vn -0.00000000 0.26330000 0.96470000
vn 0.00000000 0.74310000 0.66910000
vn 0.00000000 0.58780000 0.80900000
vn 0.00000000 0.17470000 0.98460000
vn 0.00000000 -0.00170000 1.00000000
vn 0.70710000 0.43350000 -0.55870000
vn 0.70680000 0.50580000 -0.49450000
vn 0.70630000 0.49820000 -0.50280000
vn 0.70710000 0.56370000 -0.42690000
vn 0.70640000 0.68290000 -0.18610000
vn 0.70710000 0.70080000 -0.09380000
vn 0.70630000 0.68450000 -0.18040000
vn 0.70700000 0.65270000 -0.27230000
vn 0.70500000 0.61680000 -0.35010000
vn 0.70600000 0.36100000 -0.60930000
vn 0.70710000 0.27060000 -0.65330000
vn 0.70690000 0.26830000 -0.65450000
vn 0.70710000 0.59900000 0.37580000
vn 0.70630000 0.54310000 0.45400000
vn 0.70570000 0.62950000 0.32510000
vn 0.70660000 0.25240000 0.66100000
vn 0.70700000 0.17340000 0.68560000
vn 0.70620000 0.09980000 0.70090000
vn 0.70620000 0.09990000 0.70090000
vn 0.70710000 -0.00000000 0.70710000
vn 0.70710000 -0.00000000 0.70710000
vn 0.70710000 0.48420000 0.51540000
vn 0.70660000 0.41880000 0.57030000
vn -0.70640000 0.14450000 -0.69290000
vn -0.70640000 0.14440000 -0.69290000
vn -0.70670000 0.07080000 -0.70390000
vn -0.70710000 0.00010000 -0.70710000
vn -0.00000000 0.32470000 0.94580000
vn 0.00000000 0.35660000 0.93430000
vn 0.00000000 0.14110000 0.99000000
vn -0.00000000 0.73570000 0.67730000
vn 0.00000000 0.76740000 0.64110000
vn -0.00000000 0.59220000 0.80580000
vn -0.00000000 0.61420000 0.78910000
vn -0.00000000 0.48010000 0.87720000
vn -0.00000000 0.83720000 0.54700000
vn 0.00000000 0.88850000 0.45900000
vn 0.00000000 0.17970000 0.98370000
vn -0.00000000 -0.00040000 1.00000000
vn -0.00010000 0.97210000 0.23470000
vn -0.00000000 0.98740000 0.15830000
vn 0.00000000 0.94540000 0.32580000
vn -0.00000000 0.91580000 0.40170000
vn 0.00000000 0.99660000 0.08300000
vn -0.00000000 1.00000000 -0.00520000
vn -0.00000000 0.99730000 -0.07400000
vn 0.00000000 0.98770000 -0.15640000
vn -0.00000000 0.91580000 -0.40170000
vn -0.00000000 0.86960000 -0.49370000
vn -0.00000000 0.94830000 -0.31730000
vn -0.00000000 0.97250000 -0.23290000
vn -0.00000000 0.83720000 -0.54690000
vn 0.00000000 0.78520000 -0.61920000
vn 0.00000000 0.73570000 -0.67730000
vn -0.00000000 0.62020000 -0.78440000
vn 0.00000000 0.33130000 -0.94350000
vn -0.00000000 0.50960000 -0.86040000
vn -0.00000000 0.47600000 -0.87950000
vn -0.00000000 0.15980000 -0.98710000
vn 0.00000000 0.16390000 -0.98650000
vn -0.00000000 -0.00000000 -1.00000000
vn 0.00000000 0.00080000 -1.00000000
vn -0.00000000 0.70690000 -0.70730000
vn -0.00000000 0.71500000 -0.69910000
vn 0.00000000 0.61310000 -0.79000000
vn 0.00010000 0.61110000 -0.79160000
vn -0.00000000 0.50970000 -0.86030000
vn 0.00000000 0.79530000 -0.60620000
vn -0.00000000 0.79720000 -0.60380000
vn 0.00000000 0.86190000 -0.50710000
vn -0.00000000 0.86970000 -0.49360000
vn -0.00000000 0.99160000 -0.12950000
vn 0.00010000 0.99120000 -0.13250000
vn 0.00000000 0.96490000 -0.26280000
vn 0.00000000 0.96480000 -0.26310000
vn 0.00000000 0.92290000 -0.38510000
vn 0.00000000 0.92210000 -0.38690000
vn -0.00000000 0.99690000 0.07880000
vn -0.00000000 1.00000000 -0.00530000
vn 0.00000000 0.99900000 -0.04530000
vn 0.00000000 0.98740000 0.15810000
vn -0.00000000 0.94220000 0.33510000
vn 0.00000000 0.94550000 0.32570000
vn -0.00000000 0.97880000 0.20470000
vn -0.00000000 0.82290000 0.56820000
vn 0.00000000 0.84700000 0.53160000
vn 0.00000000 0.88850000 0.45890000
vn 0.00000000 0.89010000 0.45580000
vn 0.00000000 0.71370000 0.70050000
vn 0.00000000 0.76740000 0.64110000
vn -0.00000000 0.58720000 0.80940000
vn -0.00000000 0.59170000 0.80620000
vn 0.00000000 0.68480000 0.72870000
vn 0.00000000 0.47110000 0.88210000
vn -0.00000000 0.48020000 0.87720000
vn 0.00000000 0.36620000 0.93050000
vn 0.00000000 0.35660000 0.93420000
vn 0.00000000 0.12330000 0.99240000
vn -0.00000000 0.14070000 0.99000000
vn -0.00000000 0.24520000 0.96950000
vn -0.00000000 0.23930000 0.97090000
vn 0.00000000 -0.00000000 1.00000000
vn 0.00000000 -0.00000000 1.00000000
vn -0.70710000 -0.00000000 0.70710000
vn -0.70710000 -0.00000000 0.70710000
vn -0.70680000 0.08740000 0.70200000
vn -0.70550000 0.41650000 0.57340000
vn -0.70720000 0.50460000 0.49530000
vn -0.70540000 0.58320000 0.40300000
vn -0.70630000 0.69290000 0.14500000
vn -0.70710000 0.70500000 0.05570000
vn -0.70590000 0.70750000 -0.03200000
vn -0.70590000 0.70760000 -0.03200000
vn -0.70720000 0.70110000 -0.09160000
vn -0.70640000 0.68290000 -0.18590000
vn -0.70660000 0.56280000 -0.42890000
vn -0.70690000 0.50000000 -0.50030000
vn -0.70590000 0.43300000 -0.56050000
vn -0.70610000 0.37830000 -0.59860000
vn -0.70710000 0.29650000 -0.64190000
vn -0.69820000 0.14810000 -0.70040000
vn -0.70710000 0.69840000 -0.11060000
vn -0.70660000 0.67110000 -0.22440000
vn -0.70630000 0.68460000 -0.18040000
vn -0.70680000 0.55550000 -0.43800000
vn -0.70600000 0.43900000 -0.55560000
vn -0.70640000 0.49820000 -0.50280000
vn -0.70700000 0.23420000 -0.66740000
vn -0.70650000 0.11590000 -0.69820000
vn -0.70680000 0.16960000 -0.68680000
vn -0.70570000 0.00040000 -0.70850000
vn -0.00000000 1.00000000 -0.00000000
vn -0.00000000 1.00000000 -0.00000000
vn -0.00000000 1.00000000 -0.00000000
vn -0.00000000 1.00000000 -0.00000000
vn -0.00000000 1.00000000 -0.00000000
vn -0.00000000 1.00000000 -0.00000000
vn -0.00000000 1.00000000 -0.00000000
vn -0.00000000 1.00000000 -0.00000000
vn -0.00000000 1.00000000 -0.00000000
vn -0.00000000 1.00000000 -0.00000000
vn -0.00000000 1.00000000 -0.00000000
vn -0.00000000 1.00000000 -0.00000000
vn -0.00000000 0.99150000 0.13030000
vn 0.00000000 0.39100000 0.92040000
vn 0.00000000 0.68250000 0.73090000
vn 0.00000000 0.32150000 -0.94690000
vn 0.00000000 0.73130000 -0.68210000
vn -0.19600000 0.96220000 0.18910000
vn -0.41940000 0.02090000 0.90760000
vn -0.15470000 0.85350000 0.49750000
vn 0.39400000 0.91210000 -0.11340000
vn -0.96540000 0.07280000 0.25030000
vn -0.26120000 0.96040000 -0.09680000
vn 0.90440000 0.34560000 0.25030000
vn 0.98330000 -0.03050000 -0.17950000
vn 0.23470000 0.97100000 -0.04640000
vn 0.84110000 0.21420000 -0.49660000
vn 0.17770000 0.96830000 -0.17580000
vn 0.29870000 -0.04370000 -0.95340000
vn 0.99300000 -0.11250000 0.03680000
vn -0.12350000 0.99040000 -0.06170000
vn -0.88990000 0.33790000 0.30660000
vn 0.00000000 0.17220000 0.98510000
vn -0.00000000 0.98330000 0.18200000
vn -0.00000000 0.78890000 0.61450000
vn -0.01800000 0.99830000 0.05600000
vn -0.45010000 0.07290000 -0.89000000
vn -0.47390000 0.84180000 -0.25830000
vn -0.19760000 0.65210000 -0.73200000
vn 0.00000000 -0.00000000 1.00000000
vn 0.00000000 -0.00000000 1.00000000
vn 0.00000000 -0.00000000 1.00000000
vn -0.00000000 1.00000000 -0.00000000
vn -0.00000000 1.00000000 -0.00000000
vn -0.00000000 1.00000000 -0.00000000
vn -0.00000000 1.00000000 -0.00000000
vn -0.00000000 1.00000000 -0.00000000
vn -0.00000000 1.00000000 -0.00000000
vn -0.00000000 1.00000000 -0.00000000
vn -0.00000000 1.00000000 -0.00000000
vn -0.00000000 1.00000000 -0.00000000
vn -0.00000000 1.00000000 -0.00000000
vn -0.00000000 1.00000000 -0.00000000
vn -0.00000000 1.00000000 -0.00000000
vn -0.00000000 1.00000000 -0.00000000
vn -0.00000000 1.00000000 -0.00000000
vn -0.00000000 1.00000000 -0.00000000
vn -0.00000000 1.00000000 -0.00000000
vn -0.00000000 1.00000000 -0.00000000
vn 0.29390000 0.92940000 -0.22300000
vn 0.29380000 0.95160000 -0.09000000
vn 0.29370000 0.94540000 -0.14090000
vn 0.29400000 0.95320000 -0.07090000
vn 0.29400000 0.95580000 0.00150000
vn 0.29380000 0.95040000 0.10180000
vn 0.29390000 0.92900000 0.22470000
vn 0.29370000 0.94550000 0.14090000
vn 0.29410000 0.95250000 0.07910000
vn 0.29340000 0.15250000 -0.94370000
vn 0.29410000 0.15990000 -0.94230000
vn 0.29430000 0.00080000 -0.95570000
vn 0.29410000 0.32280000 -0.89960000
vn 0.29410000 0.31640000 -0.90190000
vn 0.29410000 0.45490000 -0.84060000
vn 0.29410000 0.62450000 -0.72350000
vn 0.29400000 0.59300000 -0.74960000
vn 0.29410000 0.70320000 -0.64730000
vn 0.29410000 0.48040000 -0.82620000
vn 0.29410000 0.74720000 -0.59600000
vn 0.29400000 0.88530000 -0.36040000
vn 0.29410000 0.84290000 -0.45060000
vn 0.29400000 0.90900000 -0.29550000
vn 0.29410000 -0.00000000 -0.95580000
vn 0.29410000 0.80010000 -0.52280000
vn 0.29410000 0.87530000 -0.38390000
vn 0.29410000 0.74720000 0.59600000
vn 0.29410000 0.70320000 0.64730000
vn 0.29410000 0.62450000 0.72350000
vn 0.29410000 0.58700000 0.75430000
vn 0.29410000 0.48040000 0.82620000
vn 0.29410000 0.84290000 0.45070000
vn 0.29400000 0.87900000 0.37550000
vn 0.29410000 0.15990000 0.94230000
vn 0.29410000 0.32270000 0.89970000
vn 0.29390000 0.17100000 0.94040000
vn 0.29410000 0.45900000 0.83840000
vn 0.29410000 0.00000000 0.95580000
vn 0.29330000 -0.00000000 0.95600000
vn 0.29400000 0.90890000 0.29580000
vn 0.29410000 0.87530000 0.38390000
vn 0.29410000 0.80010000 0.52280000
vn 0.29450000 -0.00060000 0.95570000
vn 0.29410000 0.31030000 0.90400000
vn 0.00000000 0.19510000 -0.98080000
vn 0.00000000 0.00080000 -1.00000000
vn -0.00000000 0.09990000 -0.99500000
vn -0.00000000 0.28570000 -0.95830000
vn 0.00000000 0.29030000 -0.95690000
vn 0.00000000 0.20360000 -0.97910000
vn 0.00000000 0.37940000 -0.92520000
vn -0.00000000 -0.00000000 -1.00000000
vn 0.00000000 0.41910000 -0.90800000
vn 1.00000000 0.00000000 -0.00000000
vn 1.00000000 0.00000000 -0.00000000
vn 1.00000000 0.00000000 -0.00000000
vn 1.00000000 0.00000000 -0.00000000
vn 1.00000000 0.00000000 -0.00000000
vn 1.00000000 0.00000000 -0.00000000
vn 1.00000000 0.00000000 -0.00000000
vn 1.00000000 0.00000000 -0.00000000
vn 1.00000000 0.00000000 -0.00000000
vn 1.00000000 0.00000000 -0.00000000
vn 1.00000000 0.00000000 -0.00000000
vn 1.00000000 0.00000000 -0.00000000
vn 1.00000000 0.00000000 -0.00000000
vn 1.00000000 0.00000000 -0.00000000
vn -0.29410000 0.37680000 0.87840000
vn -0.29410000 0.37690000 0.87830000
vn -0.29410000 0.19240000 0.93620000
vn -0.29400000 0.38460000 0.87500000
vn -0.29410000 0.88480000 0.36140000
vn -0.29400000 0.93970000 0.17450000
vn -0.29410000 0.88480000 0.36140000
vn -0.29410000 0.95050000 0.10010000
vn -0.29380000 0.95320000 0.07130000
vn -0.29330000 0.95520000 -0.03920000
vn -0.29410000 0.88480000 0.36140000
vn -0.29430000 0.87790000 -0.37780000
vn -0.29400000 0.93860000 -0.18030000
vn -0.29410000 0.87840000 -0.37680000
vn -0.29410000 0.15880000 0.94250000
vn -0.29410000 -0.00000000 0.95580000
vn -0.29410000 0.32040000 0.90050000
vn -0.29410000 0.62050000 0.72700000
vn -0.29410000 0.47710000 0.82820000
vn -0.29410000 0.83890000 0.45790000
vn -0.29410000 0.74290000 0.60130000
vn -0.29340000 0.16750000 0.94120000
vn -0.29410000 0.56180000 0.77330000
vn -0.29410000 0.71030000 0.63950000
vn -0.29410000 0.90580000 0.30490000
vn -0.29410000 -0.00010000 0.95580000
vn -0.29430000 0.94390000 0.15000000
vn -0.29530000 -0.00200000 0.95540000
vn -0.29410000 0.82770000 0.47790000
vn -0.29410000 0.90900000 0.29540000
vn -0.29450000 0.94390000 -0.14970000
vn -0.29410000 0.90580000 -0.30490000
vn -0.29410000 0.74290000 -0.60130000
vn -0.29410000 0.83890000 -0.45800000
vn -0.29410000 0.62050000 -0.72700000
vn -0.29410000 0.36140000 -0.88480000
vn -0.29410000 0.32040000 -0.90050000
vn -0.29410000 0.47710000 -0.82820000
vn -0.29400000 0.16850000 -0.94080000
vn -0.29410000 0.36070000 -0.88510000
vn -0.29380000 -0.00050000 -0.95590000
vn -0.29410000 0.00000000 -0.95580000
vn -0.29410000 0.71030000 -0.63950000
vn -0.29410000 0.90900000 -0.29530000
vn -0.29410000 0.95050000 -0.10030000
vn -0.29420000 0.19260000 -0.93610000
vn -0.29300000 0.00750000 -0.95610000
vn -0.29410000 0.38870000 -0.87310000
vn -0.29410000 0.82770000 -0.47790000
vn -0.29410000 0.56180000 -0.77320000
vn 0.00010000 0.95080000 -0.30970000
vn 0.00020000 0.98920000 -0.14650000
vn -0.00020000 0.98760000 -0.15680000
vn 0.00010000 0.78180000 -0.62350000
vn 0.00010000 0.88190000 -0.47150000
vn -0.00010000 0.87770000 -0.47910000
vn -0.00010000 0.94770000 -0.31910000
vn -0.00000000 0.50270000 -0.86450000
vn -0.00000000 0.65340000 -0.75700000
vn -0.00010000 0.64920000 -0.76060000
vn -0.00010000 0.16730000 -0.98590000
vn -0.00000000 0.33770000 -0.94130000
vn -0.00000000 0.33530000 -0.94210000
vn 0.00000000 0.00010000 -1.00000000
vn 0.00000000 0.17600000 -0.98440000
vn 0.00000000 0.49920000 -0.86650000
vn -0.00010000 0.77730000 -0.62910000
vn -0.00000000 0.16740000 0.98590000
vn 0.00000000 -0.00000000 1.00000000
vn 0.00000000 0.16620000 0.98610000
vn -0.00000000 0.50270000 0.86450000
vn 0.00000000 0.33760000 0.94130000
vn 0.00000000 0.49920000 0.86650000
vn 0.00000000 0.33530000 0.94210000
vn 0.00000000 0.78180000 0.62360000
vn 0.00000000 0.65340000 0.75700000
vn -0.00000000 0.77730000 0.62920000
vn 0.00010000 0.95080000 0.30980000
vn 0.00000000 0.88180000 0.47160000
vn -0.00010000 0.94770000 0.31910000
vn 0.00010000 0.98920000 0.14660000
vn -0.00020000 0.98760000 0.15690000
vn -0.00010000 0.87770000 0.47910000
vn -0.00010000 0.64920000 0.76060000
vn 0.13200000 0.08640000 -0.98750000
vn 0.40650000 0.07960000 -0.91020000
vn 0.10690000 0.08670000 -0.99050000
vn 0.57780000 0.07110000 -0.81300000
vn 0.96750000 0.02200000 -0.25190000
vn 0.00000000 0.08710000 -0.99620000
vn 0.00000000 0.08720000 -0.99620000
vn 0.00000000 0.08710000 -0.99620000
vn 0.00000000 0.08710000 -0.99620000
vn 0.00000000 0.08720000 -0.99620000
vn -1.00000000 -0.00060000 0.00660000
vn -0.83450000 0.04800000 -0.54880000
vn -0.83260000 0.04830000 -0.55180000
vn -0.48960000 0.07600000 -0.86860000
vn -0.29400000 0.08330000 -0.95220000
vn -0.15440000 0.08610000 -0.98430000
vn 0.74850000 0.05780000 0.66060000
vn 0.89280000 0.03930000 0.44880000
vn 0.97500000 -0.01940000 -0.22160000
vn 0.40790000 0.07960000 0.90960000
vn 0.10680000 0.08670000 0.99050000
vn 0.20800000 0.08530000 0.97440000
vn 0.00000000 0.08720000 0.99620000
vn 0.00000000 0.08720000 0.99620000
vn 0.00000000 0.08720000 0.99620000
vn 0.00000000 0.08720000 0.99620000
vn -0.77310000 0.05530000 0.63180000
vn -0.48940000 0.07600000 0.86880000
vn -0.71890000 0.06060000 0.69250000
vn -0.19750000 0.08540000 0.97660000
vn -0.15210000 0.08620000 0.98460000
vn -1.00000000 0.00070000 0.00860000
vn 0.00000000 -1.00000000 -0.00000000
vn 0.00010000 -1.00000000 -0.00010000
vn 0.00000000 -1.00000000 -0.00000000
vn 0.00010000 -1.00000000 -0.00010000
vn 0.00000000 -1.00000000 -0.00000000
vn -1.00000000 0.00000000 0.00000000
vn -1.00000000 0.00000000 0.00000000
vn -1.00000000 0.00000000 0.00000000
vn -1.00000000 0.00000000 0.00000000
vn -1.00000000 0.00000000 0.00000000
vn -1.00000000 0.00000000 0.00000000
vn -1.00000000 0.00000000 0.00000000
vn -1.00000000 0.00000000 0.00000000
vn -1.00000000 0.00000000 0.00000000
vn -1.00000000 0.00000000 0.00000000
vn -0.00000000 -0.09080000 0.99590000
vn -0.00000000 -0.00010000 1.00000000
vn -0.00000000 -0.07780000 0.99700000
vn 0.00000000 -0.18060000 0.98360000
vn 0.00000000 -0.17890000 0.98390000
vn -0.00000000 -0.07400000 -0.99730000
vn 0.00000000 -0.08580000 -0.99630000
vn -0.00000000 -0.17200000 -0.98510000
vn -0.00000000 -0.17770000 -0.98410000
vn 0.00000000 -0.00020000 -1.00000000
vn 0.00000000 -0.00000000 1.00000000
vn 0.00000000 -0.00000000 1.00000000
vn 0.00000000 0.00020000 1.00000000
vn -0.00000000 -0.38270000 0.92390000
vn 0.00000000 -0.36810000 0.92980000
vn 0.00000000 -0.69590000 0.71820000
vn -0.00000000 -0.92390000 0.38270000
vn 0.00000000 -0.70710000 0.70710000
vn 0.00000000 -0.00000000 1.00000000
vn 0.00000000 -1.00000000 -0.00000000
vn 0.00000000 -0.92980000 0.36810000
vn 0.00000000 -0.99990000 -0.01570000
vn -0.00020000 -0.92390000 -0.38270000
vn 0.00000000 -0.92980000 -0.36810000
vn -0.00000000 -0.57050000 -0.82130000
vn -0.00000000 -0.70710000 -0.70710000
vn 0.00000000 -0.78530000 -0.61910000
vn 0.00000000 0.00010000 -1.00000000
vn -0.00000000 -0.29700000 -0.95490000
vn -0.00000000 -0.36810000 -0.92980000
vn -0.00000000 0.01180000 -0.99990000
vn -0.00000000 -0.00000000 -1.00000000
vn 1.00000000 0.00000000 -0.00000000
vn 1.00000000 0.00000000 -0.00000000
vn 1.00000000 0.00000000 -0.00000000
vn 1.00000000 0.00000000 -0.00000000
vn 1.00000000 0.00000000 -0.00000000
vn 1.00000000 0.00000000 -0.00000000
vn 1.00000000 0.00000000 -0.00000000
vn 1.00000000 0.00000000 -0.00000000
vn 1.00000000 0.00000000 -0.00000000
vn -0.00000000 1.00000000 -0.00000000
vn -0.00000000 1.00000000 -0.00000000
vn -0.00000000 1.00000000 -0.00000000
vn -0.00000000 1.00000000 -0.00000000
vn 0.00000000 -1.00000000 -0.00000000
vn 0.00000000 -1.00000000 -0.00000000
vn 0.00000000 -1.00000000 -0.00000000
vn 0.00000000 -1.00000000 -0.00000000
vn 0.00000000 -1.00000000 -0.00000000
vn 0.00000000 -1.00000000 -0.00000000
vn 0.00000000 -1.00000000 -0.00000000
vn 0.00000000 -1.00000000 -0.00000000
vn 0.00000000 -1.00000000 -0.00000000
vn 0.00000000 -1.00000000 -0.00000000
vn 0.00000000 -1.00000000 -0.00000000
vn 0.00000000 -1.00000000 -0.00000000
vn 0.00000000 -1.00000000 -0.00000000
vn -0.00000000 1.00000000 -0.00000000
vn -0.00000000 1.00000000 -0.00000000
vn -0.00000000 1.00000000 -0.00000000
vn -1.00000000 -0.00010000 -0.00000000
vn -0.00000000 0.00810000 -1.00000000
vn 0.00000000 0.99450000 -0.10490000
vn 0.70560000 0.70860000 -0.00350000
vn -0.70610000 0.29680000 -0.64290000
vn -0.70690000 0.20200000 -0.67780000
vn -0.70710000 0.00000000 -0.70710000
vn -0.00000000 0.53450000 -0.84520000
vn -0.00000000 0.41930000 -0.90790000
vn 0.00000000 0.37940000 -0.92520000
vn -0.70580000 0.16930000 0.68790000
vn -0.70700000 0.25900000 0.65810000
vn -0.70650000 0.33330000 0.62430000
vn -0.70710000 -0.00030000 0.70710000
vn -0.70720000 0.09990000 0.69990000
vn -0.70710000 -0.00000000 0.70710000
vn -0.70580000 0.70840000 -0.00350000
vn -0.70480000 0.61690000 -0.35020000
vn -0.70490000 0.61690000 -0.35020000
vn -0.70580000 0.36120000 -0.60940000
vn -0.70590000 0.36110000 -0.60940000
vn -0.70710000 0.27060000 -0.65330000
vn 0.00000000 -0.00270000 -1.00000000
vn 0.24640000 0.55740000 -0.79280000
vn 0.13140000 0.91100000 -0.39090000
vn -0.16960000 0.35420000 0.91960000
vn 0.00000000 0.22130000 -0.97520000
vn 0.00000000 0.87390000 -0.48610000
vn -0.00000000 0.21330000 -0.97700000
vn 0.00000000 -0.00170000 1.00000000
vn -0.87040000 0.30530000 -0.38630000
vn 0.00000000 -0.00000000 1.00000000
vn -0.00000000 -0.00000000 -1.00000000
vn 0.00000000 -0.00000000 1.00000000
vn 0.00000000 0.08720000 -0.99620000
vn 0.00000000 -1.00000000 -0.00000000
vn -0.00000000 -1.00000000 -0.00010000
vn 0.00000000 -1.00000000 -0.00000000
vn 0.00000000 -1.00000000 -0.00000000
vt 0.26860000 0.75982800
vt 0.25477200 0.75617200
vt 0.30694600 0.76368400
vt 0.30694600 0.76368400
vt 0.30694600 0.76368400
vt 0.22059000 0.64663500
vt 0.22059000 0.64663500
vt 0.22059000 0.64663500
vt 0.21053300 0.73239900
vt 0.21053300 0.73239900
vt 0.21053300 0.73239900
vt 0.19908000 0.66794200
vt 0.19561700 0.67415000
vt 0.19438500 0.70991000
vt 0.19438500 0.70991000
vt 0.19117800 0.69226500
vt 0.19157400 0.70063900
vt 0.22943100 0.74566900
vt 0.24159900 0.75162200
vt 0.23887900 0.63769400
vt 0.23887900 0.63769400
vt 0.23887900 0.63769400
vt 0.23887900 0.63769400
vt 0.35020700 0.75825200
vt 0.35020700 0.75825200
vt 0.37353500 0.74926200
vt 0.32265900 0.76284800
vt 0.32265900 0.76284800
vt 0.56845700 0.73287000
vt 0.57759000 0.72931800
vt 0.54346100 0.72931800
vt 0.59340400 0.73282600
vt 0.61064300 0.72931800
vt 0.64309700 0.72931800
vt 0.63956100 0.73282600
vt 0.66257500 0.73282600
vt 0.61667400 0.73282600
vt 0.67555200 0.72931800
vt 0.68623500 0.73282600
vt 0.70800600 0.72931800
vt 0.73736900 0.73279700
vt 0.74167900 0.72931800
vt 0.76223100 0.73282600
vt 0.77504500 0.72931800
vt 0.78589100 0.73282600
vt 0.80764200 0.72931800
vt 0.84009700 0.72931800
vt 0.85565800 0.73290600
vt 0.87255100 0.72931800
vt 0.80890500 0.73282600
vt 0.83179300 0.73282600
vt 0.88328100 0.73391800
vt 0.90520800 0.72975500
vt 0.43381000 0.72931800
vt 0.44936100 0.72928700
vt 0.44755000 0.73105000
vt 0.46367400 0.72930500
vt 0.50710500 0.72957100
vt 0.52222000 0.72928900
vt 0.50805000 0.73105200
vt 0.49242000 0.72933700
vt 0.47866600 0.73065800
vt 0.41958400 0.73050800
vt 0.40345000 0.73106000
vt 0.40302400 0.73012000
vt 0.60103100 0.72928900
vt 0.61645500 0.73039100
vt 0.59147400 0.73068500
vt 0.67441400 0.73009900
vt 0.68771400 0.72935300
vt 0.69980000 0.73034300
vt 0.69980000 0.73034300
vt 0.71587000 0.72931800
vt 0.71587000 0.73106000
vt 0.63014600 0.72932100
vt 0.64389500 0.72964800
vt 0.62598000 0.82774900
vt 0.62598000 0.82774900
vt 0.63932600 0.82859700
vt 0.65200400 0.82724200
vt 0.62228000 0.73315100
vt 0.62618500 0.72951400
vt 0.60049200 0.72966000
vt 0.67936600 0.73315100
vt 0.68489700 0.72965800
vt 0.65710200 0.72912900
vt 0.66033700 0.73315100
vt 0.64186100 0.73321900
vt 0.69839400 0.73315100
vt 0.71013100 0.72977600
vt 0.60502300 0.73382200
vt 0.58416700 0.73108800
vt 0.73774300 0.73330100
vt 0.74671600 0.72952800
vt 0.72680500 0.72927000
vt 0.71742300 0.73315100
vt 0.75543600 0.73315100
vt 0.76560500 0.72976100
vt 0.77351900 0.73335600
vt 0.78307200 0.73053800
vt 0.81256600 0.73315100
vt 0.82442100 0.72970900
vt 0.80214500 0.73056600
vt 0.79203900 0.73345100
vt 0.83159500 0.73315100
vt 0.84184300 0.73052400
vt 0.85062400 0.73315100
vt 0.86878300 0.73136700
vt 0.90691900 0.73134400
vt 0.88422200 0.72975200
vt 0.88868100 0.73315100
vt 0.92730100 0.73545600
vt 0.92681800 0.73075000
vt 0.94576700 0.73315100
vt 0.94567500 0.72971800
vt 0.62938400 0.77418800
vt 0.63071600 0.73429600
vt 0.61498000 0.73428900
vt 0.61469100 0.77521300
vt 0.60058100 0.73335700
vt 0.64485200 0.77493100
vt 0.64520600 0.73429000
vt 0.65860100 0.77453300
vt 0.66038300 0.73339000
vt 0.70485900 0.77431500
vt 0.70450100 0.73430400
vt 0.68920300 0.77474600
vt 0.68915700 0.73413700
vt 0.67430300 0.73427700
vt 0.67407800 0.77513700
vt 0.72887500 0.77422200
vt 0.71918900 0.73332700
vt 0.71459200 0.77521400
vt 0.73807800 0.73356600
vt 0.75912500 0.77451100
vt 0.75798500 0.73384100
vt 0.74351900 0.77497200
vt 0.78934500 0.77501500
vt 0.78429800 0.73430100
vt 0.77466400 0.73330900
vt 0.77426600 0.77516000
vt 0.80911500 0.77418500
vt 0.79989900 0.73343300
vt 0.82834600 0.77521800
vt 0.82770400 0.73398100
vt 0.81376700 0.73428300
vt 0.84412100 0.77521200
vt 0.84293800 0.72985300
vt 0.85742500 0.77427600
vt 0.85861100 0.73358500
vt 0.88635100 0.77429600
vt 0.88432100 0.73343800
vt 0.87207100 0.73426800
vt 0.87276300 0.77521400
vt 0.90057400 0.73428300
vt 0.90057400 0.77434900
vt 0.65201300 0.82724400
vt 0.65201300 0.82847600
vt 0.66768900 0.82853800
vt 0.73150800 0.82766400
vt 0.75261200 0.82862500
vt 0.77438100 0.82778700
vt 0.82473200 0.82791600
vt 0.84089500 0.82859200
vt 0.85660400 0.82766900
vt 0.85660400 0.82766900
vt 0.86731600 0.82851900
vt 0.88452500 0.82815300
vt 0.93329900 0.82798500
vt 0.95034000 0.82862000
vt 0.96649400 0.82764300
vt 0.97832500 0.82773200
vt 0.99494700 0.82858900
vt 1.02372300 0.82655400
vt 0.59982800 0.72931800
vt 0.61864500 0.72926100
vt 0.61126900 0.73107400
vt 0.65785400 0.72932200
vt 0.68450700 0.72819700
vt 0.67176000 0.73107300
vt 0.72216400 0.72815900
vt 0.74179800 0.72903500
vt 0.73298700 0.73104900
vt 0.76047400 0.73045300
vt 0.41015100 0.71487000
vt 0.40156000 0.72139800
vt 0.40394600 0.71632700
vt 0.44643400 0.71488400
vt 0.40952100 0.73054500
vt 0.40192400 0.72783100
vt 0.41304100 0.73032800
vt 0.45924200 0.71864100
vt 0.45715300 0.72516600
vt 0.45297300 0.71496800
vt 0.44706600 0.73030600
vt 0.45491100 0.72947400
vt 0.40479100 0.73130900
vt 0.40391200 0.73140200
vt 0.40422800 0.72909700
vt 0.40596000 0.73130400
vt 0.40544400 0.72884100
vt 0.40683600 0.73691100
vt 0.40351200 0.73289200
vt 0.40657300 0.73214400
vt 0.40868700 0.74164300
vt 0.40332100 0.74185000
vt 0.40726600 0.74845700
vt 0.41093500 0.75028600
vt 0.41215900 0.74281400
vt 0.40722300 0.74231900
vt 0.40420000 0.73930700
vt 0.40727200 0.73637800
vt 0.40329700 0.73193100
vt 0.40302700 0.74483800
vt 0.40843900 0.74891600
vt 0.41098000 0.74135100
vt 0.40609000 0.73118000
vt 0.40501700 0.73134800
vt 0.40535300 0.72903300
vt 0.40780400 0.74085900
vt 0.40366900 0.73992900
vt 0.40651800 0.73500700
vt 0.40576100 0.74209000
vt 0.36695200 0.72937600
vt 0.36250300 0.72876600
vt 0.40966600 0.72902900
vt 0.32366700 0.72938900
vt 0.32651600 0.72931000
vt 0.32826800 0.72387600
vt 0.33675600 0.71848100
vt 0.33588000 0.72009600
vt 0.38305800 0.72020800
vt 0.37498200 0.71841000
vt 0.32974100 0.73671400
vt 0.33855100 0.74022200
vt 0.33790100 0.73861500
vt 0.37965000 0.73801200
vt 0.37858700 0.72021300
vt 0.38823800 0.72687100
vt 0.39105700 0.72650700
vt 0.38648700 0.73390200
vt 0.38631900 0.73676200
vt 0.37635700 0.74018500
vt 0.77133000 0.96742200
vt 0.78921800 0.95987800
vt 0.78243800 0.95569100
vt 0.79174800 0.96752100
vt 0.80134000 0.96204700
vt 0.81464600 0.95904000
vt 0.83118600 0.96757800
vt 0.81985500 0.95569200
vt 0.81164300 0.96773600
vt 0.62258600 0.96535100
vt 0.62357700 0.95588800
vt 0.60241500 0.95613700
vt 0.64589800 0.95588800
vt 0.64501300 0.96956800
vt 0.66509400 0.96773500
vt 0.69244600 0.95588800
vt 0.68702800 0.96956000
vt 0.70695800 0.96773500
vt 0.66897400 0.95588800
vt 0.71591800 0.95588800
vt 0.75221100 0.96160100
vt 0.73899400 0.95588800
vt 0.76136700 0.95583400
vt 0.60230000 0.96773500
vt 0.72788900 0.96773500
vt 0.74882100 0.96773500
vt 0.88638000 0.95588800
vt 0.89534100 0.96773500
vt 0.90985300 0.95588800
vt 0.91627300 0.96773500
vt 0.93332500 0.95588800
vt 0.86330500 0.95588800
vt 0.85225600 0.96149200
vt 0.97872200 0.95588800
vt 0.95640100 0.95588800
vt 0.97723100 0.96704100
vt 0.93659000 0.96765600
vt 0.99999900 0.95588800
vt 1.00003300 0.96406500
vt 0.84098200 0.95582100
vt 0.85347800 0.96773500
vt 0.87441000 0.96773500
vt 1.00005900 0.96982800
vt 0.95813600 0.96773500
vt 0.92317000 0.74364600
vt 0.90066900 0.73335900
vt 0.91208500 0.77419100
vt 0.93391000 0.77435200
vt 0.93446900 0.73852900
vt 0.92417600 0.77521700
vt 0.94535700 0.73348600
vt 0.90057400 0.77434900
vt 0.95036000 0.77421900
vt 0.56680800 0.88966900
vt 0.59710500 0.89093800
vt 0.56664100 0.88883600
vt 0.56680800 0.99931000
vt 0.59869600 0.99782600
vt 0.56680800 1.00000000
vt 0.62925100 0.99111800
vt 0.62724900 0.89725100
vt 0.67157800 0.92152200
vt 0.65321600 0.90782600
vt 0.65477900 0.98027900
vt 0.68076200 0.93673200
vt 0.67245800 0.96650000
vt 0.68091700 0.95169600
vt 0.65360500 0.96181200
vt 0.65360500 0.95885000
vt 0.62795500 0.95972500
vt 0.65473000 0.96764900
vt 0.75206200 0.96181200
vt 0.77790400 0.96401800
vt 0.75206200 0.95885000
vt 0.78786400 0.96776500
vt 0.79170200 0.96208700
vt 0.80633000 0.96351700
vt 0.75206200 0.96477400
vt 0.85260500 0.96179300
vt 0.82517200 0.96417600
vt 0.85245400 0.96477400
vt 0.62342900 0.95588800
vt 0.60230000 0.95588800
vt 0.64557900 0.95588800
vt 0.69173600 0.95588800
vt 0.66846400 0.95588800
vt 0.73789400 0.95588800
vt 0.71500900 0.95588800
vt 0.62460400 0.96659900
vt 0.68184000 0.96773500
vt 0.70835300 0.96773500
vt 0.76004300 0.95588800
vt 0.60228500 0.96492700
vt 0.78119000 0.95636700
vt 0.60209300 0.97084800
vt 0.73486600 0.96773500
vt 0.76138000 0.96773500
vt 0.82109600 0.95636800
vt 0.84225500 0.95588800
vt 0.88729000 0.95588800
vt 0.86440500 0.95588800
vt 0.91056200 0.95588800
vt 0.95091200 0.95885000
vt 0.95672000 0.95588800
vt 0.93383500 0.95588800
vt 0.97756900 0.95601200
vt 0.95102000 0.96182000
vt 1.00007100 0.96447800
vt 0.99999900 0.95588800
vt 0.89394600 0.96773500
vt 0.84091900 0.96773500
vt 0.81445600 0.96776800
vt 0.97430500 0.96769400
vt 0.99904800 0.96650600
vt 0.94697200 0.96773500
vt 0.86743300 0.96773500
vt 0.92045900 0.96773500
vt 0.40353400 0.74370700
vt 0.40375100 0.72935000
vt 0.45028500 0.72927400
vt 0.40345000 0.77245500
vt 0.40345000 0.75807600
vt 0.44950000 0.75807600
vt 0.44950000 0.74369700
vt 0.40345000 0.80121200
vt 0.40345000 0.78683400
vt 0.44950000 0.78683400
vt 0.40345000 0.82997000
vt 0.40345000 0.81559100
vt 0.44950000 0.81559100
vt 0.40305700 0.84434100
vt 0.44970100 0.82912100
vt 0.44950000 0.80121200
vt 0.44950000 0.77245500
vt 0.40345000 0.74369700
vt 0.40345000 0.72931800
vt 0.44950000 0.74369700
vt 0.40345000 0.77245500
vt 0.40345000 0.75807600
vt 0.44950000 0.77245500
vt 0.44950000 0.75807600
vt 0.40345000 0.80121200
vt 0.40345000 0.78683400
vt 0.44950000 0.80121200
vt 0.40355400 0.82994800
vt 0.40345000 0.81559100
vt 0.44950000 0.82997000
vt 0.40374800 0.84430900
vt 0.45028400 0.84438300
vt 0.44950000 0.81559100
vt 0.44950000 0.78683400
vt 0.41281000 0.74641900
vt 0.41362200 0.74312100
vt 0.41273800 0.74292500
vt 0.41418100 0.74661900
vt 0.41626800 0.74670300
vt 0.40262000 0.72168800
vt 0.40262000 0.72168800
vt 0.40259400 0.69840000
vt 0.39686100 0.69867900
vt 0.39686100 0.69867900
vt 0.40789600 0.74678400
vt 0.40959400 0.74653700
vt 0.40962400 0.74501900
vt 0.41097100 0.74309800
vt 0.41160000 0.74623300
vt 0.41199400 0.74273800
vt 0.41001700 0.74676500
vt 0.40928100 0.74611700
vt 0.40723500 0.74797300
vt 0.41124300 0.74310200
vt 0.41212800 0.74292600
vt 0.41184200 0.74642500
vt 0.41003000 0.72009000
vt 0.41004000 0.69868000
vt 0.40430800 0.72059600
vt 0.40429800 0.69756300
vt 0.41495700 0.74463200
vt 0.41389400 0.74309900
vt 0.41471600 0.74626600
vt 0.41299200 0.74622200
vt 0.41286700 0.74274000
vt 0.41693700 0.74657000
vt 0.74148000 0.86521100
vt 0.74575700 0.80883600
vt 0.74575700 0.80883600
vt 0.74719200 0.85412700
vt 0.74719200 0.85412700
vt 0.25495500 0.81979000
vt 0.27070500 0.75042100
vt 0.25495500 0.76679300
vt 0.24631800 0.79220100
vt 0.28086700 0.84301900
vt 0.29511200 0.73642400
vt 0.35995700 0.86253500
vt 0.35996500 0.72405100
vt 0.32620700 0.72717100
vt 0.31646400 0.85726500
vt 0.01028700 0.81637300
vt -0.00000600 0.82261800
vt 0.00878500 0.75397300
vt 0.02076300 0.80366000
vt 0.02057400 0.75419100
vt 0.34880600 0.75398500
vt 0.34751000 0.81637300
vt 0.33796700 0.80393600
vt 0.33734400 0.75503000
vt 0.35702100 0.82218300
vt -0.00000000 0.77112600
vt 0.00000000 0.72931800
vt -0.00002400 0.77811400
vt 0.04639800 0.72931800
vt 0.04441700 0.82880900
vt 0.09102900 0.72931800
vt 0.13566100 0.72931800
vt 0.09279500 0.82880900
vt 0.00000000 0.82880900
vt 0.17852600 0.82880900
vt 0.13735700 0.82880900
vt 0.18029200 0.72931800
vt 0.22492400 0.72931800
vt 0.22294300 0.82880900
vt 0.29098800 0.72931800
vt 0.27132200 0.82880900
vt 0.25795600 0.72931800
vt 0.35706300 0.72931800
vt 0.32402100 0.72931800
vt 0.31588300 0.82880900
vt 0.35884900 0.78569000
vt 0.35705300 0.82880900
vt 0.46113400 0.96466900
vt 0.46113400 0.92431100
vt 0.45315500 0.94449000
vt 0.48644300 0.98325400
vt 0.48644300 0.90572600
vt 0.56680800 0.99931000
vt 0.56680800 0.88966900
vt 0.52497300 0.89351800
vt 0.52497300 0.99546100
vt 0.56382400 0.13587500
vt 0.51779100 0.13587500
vt 0.50495900 0.13847600
vt 0.57800500 0.13853300
vt 0.51845600 0.85064300
vt 0.51702600 0.84977200
vt 0.51702600 0.80970700
vt 0.51845600 0.80883600
vt 0.51656000 0.85206700
vt 0.51845600 0.85064300
vt 0.51847600 0.85763200
vt 0.51845600 0.90832700
vt 0.51672900 0.90789500
vt 0.51838200 0.90213600
vt 0.74576300 0.90832700
vt 0.74580700 0.90170000
vt 0.74719200 0.90832700
vt 0.51739800 0.00260900
vt 0.56382400 0.00261300
vt 0.57729000 -0.00002700
vt 0.19866200 0.71874900
vt 0.54446800 0.73400100
vt 0.71107600 0.73279400
vt 0.53679900 0.73060800
vt 0.59724500 0.82850200
vt 0.61535400 0.82845400
vt 0.65201300 0.82847600
vt 0.60392300 0.77520100
vt 0.58881800 0.77421900
vt 0.58381300 0.73348600
vt 0.68258000 0.82767400
vt 0.69947400 0.82855800
vt 0.71411000 0.82776700
vt 0.40339400 0.72848300
vt 0.41955100 0.73023600
vt 0.40345000 0.73106000
vt 0.58251100 0.73033800
vt 0.64062600 0.73056100
vt 0.64062600 0.73056100
vt 0.69973400 0.73034400
vt 0.69973400 0.73034400
vt 0.71587000 0.73106000
vt 0.40630700 0.72923300
vt 0.41020400 0.73236100
vt 0.40693400 0.73273300
vt 0.41097700 0.73092000
vt 0.40369100 0.73130200
vt 0.40452000 0.72911600
vt 0.40362700 0.72891600
vt 0.40631000 0.72923700
vt 0.40447700 0.73322200
vt 0.40731500 0.72984500
vt 0.44950000 0.84434900
vt 0.44950000 0.72931800
vt 0.39687200 0.72011400
vt 0.74719200 0.80970700
vt 0.74712300 0.85069500
vt 0.74712300 0.85069500
vt 0.74708000 0.90364300
f 1/1/1 2/2/2 5/5/5
f 7/7/7 4/4/4 10/10/10
f 12/12/12 9/9/9 13/13/13
f 15/15/15 16/16/16 13/13/13
f 9/9/9 12/12/12 8/8/8
f 17/17/17 16/16/16 15/15/15
f 9/9/9 5/5/5 2/2/2
f 18/18/18 9/9/9 2/2/2
f 18/18/18 2/2/2 19/19/19
f 3/3/3 6/6/6 20/20/20
f 25/25/25 21/21/21 26/26/26
f 24/24/24 27/27/27 22/22/22
f 28/28/28 5/5/5 23/23/23
f 29/29/29 30/30/30 31/31/31
f 30/30/30 32/32/32 33/33/33
f 34/34/34 35/35/35 36/36/36
f 33/33/33 37/37/37 34/34/34
f 38/38/38 39/39/39 40/40/40
f 30/30/30 29/29/29 32/32/32
f 39/39/39 38/38/38 36/36/36
f 41/41/41 42/42/42 40/40/40
f 42/42/42 41/41/41 43/43/43
f 42/42/42 43/43/43 44/44/44
f 44/44/44 45/45/45 46/46/46
f 47/47/47 48/48/48 49/49/49
f 46/46/46 50/50/50 51/51/51
f 49/49/49 52/52/52 53/53/53
f 44/44/44 43/43/43 45/45/45
f 47/47/47 51/51/51 48/48/48
f 54/54/54 55/55/55 56/56/56
f 55/55/55 57/57/57 56/56/56
f 58/58/58 59/59/59 60/60/60
f 61/61/61 58/58/58 62/62/62
f 63/63/63 64/64/64 65/65/65
f 66/66/66 67/67/67 68/68/68
f 69/69/69 70/70/70 72/72/72
f 71/71/71 73/73/73 74/74/74
f 75/75/75 76/76/76 67/67/67
f 78/78/78 79/79/79 80/80/80
f 81/81/81 82/82/82 83/83/83
f 84/84/84 85/85/85 86/86/86
f 87/87/87 86/86/86 88/88/88
f 89/89/89 90/90/90 85/85/85
f 91/91/91 83/83/83 92/92/92
f 81/81/81 83/83/83 91/91/91
f 89/89/89 85/85/85 84/84/84
f 87/87/87 84/84/84 86/86/86
f 81/81/81 88/88/88 82/82/82
f 93/93/93 94/94/94 95/95/95
f 93/93/93 95/95/95 96/96/96
f 94/94/94 93/93/93 97/97/97
f 94/94/94 97/97/97 98/98/98
f 90/90/90 89/89/89 96/96/96
f 96/96/96 95/95/95 90/90/90
f 99/99/99 100/100/100 98/98/98
f 101/101/101 102/102/102 103/103/103
f 104/104/104 103/103/103 100/100/100
f 105/105/105 106/106/106 102/102/102
f 107/107/107 108/108/108 106/106/106
f 104/104/104 100/100/100 99/99/99
f 101/101/101 105/105/105 102/102/102
f 103/103/103 104/104/104 101/101/101
f 109/109/109 110/110/110 111/111/111
f 107/107/107 106/106/106 105/105/105
f 111/111/111 110/110/110 108/108/108
f 112/112/112 113/113/113 109/109/109
f 113/113/113 112/112/112 114/114/114
f 113/113/113 114/114/114 115/115/115
f 97/97/97 99/99/99 98/98/98
f 116/116/116 117/117/117 118/118/118
f 120/120/120 510/510/510 118/118/118
f 117/117/117 116/116/116 122/122/122
f 123/123/123 124/124/124 122/122/122
f 126/126/126 128/128/128 125/125/125
f 129/129/129 130/130/130 127/127/127
f 124/124/124 123/123/123 129/129/129
f 132/132/132 126/126/126 133/133/133
f 131/131/131 134/134/134 132/132/132
f 136/136/136 134/134/134 137/137/137
f 140/140/140 141/141/141 139/139/139
f 136/136/136 135/135/135 140/140/140
f 143/143/143 139/139/139 138/138/138
f 146/146/146 142/142/142 145/145/145
f 142/142/142 146/146/146 143/143/143
f 148/148/148 145/145/145 147/147/147
f 149/149/149 150/150/150 148/148/148
f 153/153/153 154/154/154 151/151/151
f 150/150/150 149/149/149 153/153/153
f 151/151/151 156/156/156 155/155/155
f 157/157/157 158/158/158 159/159/159
f 160/160/160 161/161/161 162/162/162
f 163/163/163 164/164/164 165/165/165
f 166/166/166 167/167/167 168/168/168
f 169/169/169 170/170/170 171/171/171
f 172/172/172 173/173/173 174/174/174
f 175/175/175 176/176/176 177/177/177
f 178/178/178 179/179/179 180/180/180
f 181/181/181 182/182/182 183/183/183
f 184/184/184 183/183/183 182/182/182
f 185/185/185 186/186/186 187/187/187
f 188/188/188 191/191/191 185/185/185
f 189/189/189 190/190/190 191/191/191
f 191/191/191 190/190/190 186/186/186
f 192/192/192 193/193/193 188/188/188
f 194/194/194 192/192/192 188/188/188
f 193/193/193 195/195/195 188/188/188
f 195/195/195 193/193/193 196/196/196
f 197/197/197 198/198/198 199/199/199
f 200/200/200 197/197/197 201/201/201
f 202/202/202 203/203/203 204/204/204
f 205/205/205 206/206/206 202/202/202
f 207/207/207 205/205/205 208/208/208
f 208/208/208 205/205/205 209/209/209
f 205/205/205 207/207/207 206/206/206
f 210/210/210 211/211/211 212/212/212
f 211/211/211 213/213/213 212/212/212
f 210/210/210 214/214/214 211/211/211
f 215/215/215 214/214/214 210/210/210
f 210/210/210 216/216/216 215/215/215
f 217/217/217 218/218/218 219/219/219
f 220/220/220 221/221/221 222/222/222
f 221/221/221 220/220/220 223/223/223
f 224/224/224 225/225/225 226/226/226
f 227/227/227 228/228/228 229/229/229
f 230/230/230 229/229/229 231/231/231
f 231/231/231 232/232/232 233/233/233
f 234/234/234 228/228/228 227/227/227
f 235/235/235 236/236/236 234/234/234
f 237/237/237 236/236/236 235/235/235
f 238/238/238 239/239/239 232/232/232
f 240/240/240 232/232/232 239/239/239
f 241/241/241 237/237/237 242/242/242
f 243/243/243 242/242/242 237/237/237
f 235/235/235 243/243/243 237/237/237
f 241/241/241 240/240/240 239/239/239
f 242/242/242 240/240/240 241/241/241
f 244/244/244 245/245/245 246/246/246
f 247/247/247 248/248/248 245/245/245
f 250/250/250 283/283/283 251/251/251
f 252/252/252 250/250/250 249/249/249
f 255/255/255 267/267/267 253/253/253
f 258/258/258 262/262/262 256/256/256
f 261/261/261 263/263/263 259/259/259
f 253/253/253 257/257/257 256/256/256
f 260/260/260 259/259/259 262/262/262
f 263/263/263 264/264/264 265/265/265
f 266/266/266 265/265/265 264/264/264
f 268/268/268 269/269/269 264/264/264
f 268/268/268 263/263/263 261/261/261
f 266/266/266 264/264/264 244/244/244
f 244/244/244 246/246/246 266/266/266
f 264/264/264 263/263/263 268/268/268
f 247/247/247 245/245/245 244/244/244
f 271/271/271 273/273/273 272/272/272
f 273/273/273 280/280/280 274/274/274
f 270/270/270 275/275/275 276/276/276
f 278/278/278 287/287/287 279/279/279
f 280/280/280 287/287/287 278/278/278
f 277/277/277 279/279/279 282/282/282
f 252/252/252 249/249/249 248/248/248
f 252/252/252 248/248/248 247/247/247
f 283/283/283 250/250/250 276/276/276
f 285/285/285 276/276/276 284/284/284
f 285/285/285 270/270/270 276/276/276
f 285/285/285 271/271/271 270/270/270
f 282/282/282 279/279/279 286/286/286
f 289/289/289 295/295/295 288/288/288
f 291/291/291 292/292/292 288/288/288
f 289/289/289 288/288/288 292/292/292
f 290/290/290 293/293/293 288/288/288
f 292/292/292 294/294/294 289/289/289
f 294/294/294 292/292/292 296/296/296
f 297/297/297 298/298/298 299/299/299
f 300/300/300 298/298/298 297/297/297
f 301/301/301 300/300/300 302/302/302
f 303/303/303 304/304/304 301/301/301
f 298/298/298 300/300/300 301/301/301
f 301/301/301 304/304/304 298/298/298
f 305/305/305 306/306/306 307/307/307
f 308/308/308 305/305/305 309/309/309
f 307/307/307 306/306/306 303/303/303
f 305/305/305 307/307/307 309/309/309
f 308/308/308 309/309/309 310/310/310
f 304/304/304 303/303/303 306/306/306
f 311/311/311 312/312/312 313/313/313
f 311/311/311 313/313/313 314/314/314
f 315/315/315 316/316/316 317/317/317
f 318/318/318 319/319/319 316/316/316
f 320/320/320 319/319/319 318/318/318
f 321/321/321 316/316/316 315/315/315
f 322/322/322 342/342/342 324/324/324
f 313/313/313 325/325/325 326/326/326
f 325/325/325 313/313/313 327/327/327
f 312/312/312 328/328/328 329/329/329
f 317/317/317 330/330/330 331/331/331
f 315/315/315 331/331/331 328/328/328
f 312/312/312 329/329/329 327/327/327
f 326/326/326 336/336/336 313/313/313
f 328/328/328 311/311/311 315/315/315
f 317/317/317 331/331/331 315/315/315
f 311/311/311 333/333/333 334/334/334
f 328/328/328 312/312/312 311/311/311
f 317/317/317 335/335/335 330/330/330
f 337/337/337 335/335/335 316/316/316
f 319/319/319 337/337/337 316/316/316
f 316/316/316 335/335/335 317/317/317
f 332/332/332 314/314/314 313/313/313
f 334/334/334 321/321/321 315/315/315
f 338/338/338 332/332/332 336/336/336
f 333/333/333 311/311/311 314/314/314
f 334/334/334 339/339/339 321/321/321
f 339/339/339 340/340/340 321/321/321
f 321/321/321 340/340/340 316/316/316
f 316/316/316 340/340/340 318/318/318
f 341/341/341 323/323/323 342/342/342
f 320/320/320 323/323/323 341/341/341
f 322/322/322 343/343/343 344/344/344
f 322/322/322 345/345/345 343/343/343
f 346/346/346 347/347/347 348/348/348
f 347/347/347 346/346/346 349/349/349
f 346/346/346 348/348/348 345/345/345
f 345/345/345 322/322/322 350/350/350
f 346/346/346 345/345/345 350/350/350
f 351/351/351 352/352/352 349/349/349
f 322/322/322 353/353/353 350/350/350
f 342/342/342 322/322/322 344/344/344
f 354/354/354 323/323/323 355/355/355
f 318/318/318 355/355/355 320/320/320
f 353/353/353 322/322/322 324/324/324
f 349/349/349 346/346/346 350/350/350
f 351/351/351 349/349/349 357/357/357
f 356/356/356 350/350/350 358/358/358
f 359/359/359 324/324/324 354/354/354
f 359/359/359 353/353/353 324/324/324
f 350/350/350 360/360/360 358/358/358
f 323/323/323 354/354/354 324/324/324
f 363/363/363 367/367/367 362/362/362
f 366/366/366 377/377/377 364/364/364
f 367/367/367 366/366/366 365/365/365
f 370/370/370 376/376/376 368/368/368
f 373/373/373 375/375/375 372/372/372
f 375/375/375 535/535/535 371/371/371
f 376/376/376 373/373/373 372/372/372
f 377/377/377 370/370/370 369/369/369
f 379/379/379 536/536/536 380/380/380
f 382/382/382 384/384/384 383/383/383
f 378/378/378 380/380/380 384/384/384
f 386/386/386 394/394/394 387/387/387
f 389/389/389 393/393/393 390/390/390
f 388/388/388 390/390/390 391/391/391
f 385/385/385 387/387/387 393/393/393
f 381/381/381 383/383/383 394/394/394
f 395/395/395 396/396/396 397/397/397
f 398/398/398 396/396/396 395/395/395
f 396/396/396 398/398/398 399/399/399
f 400/400/400 402/402/402 403/403/403
f 405/405/405 406/406/406 407/407/407
f 408/408/408 407/407/407 409/409/409
f 410/410/410 408/408/408 409/409/409
f 407/407/407 406/406/406 409/409/409
f 411/411/411 412/412/412 413/413/413
f 411/411/411 414/414/414 412/412/412
f 415/415/415 414/414/414 416/416/416
f 416/416/416 414/414/414 411/411/411
f 417/417/417 418/418/418 419/419/419
f 420/420/420 419/419/419 418/418/418
f 421/421/421 422/422/422 423/423/423
f 424/424/424 422/422/422 425/425/425
f 424/424/424 423/423/423 422/422/422
f 423/423/423 426/426/426 421/421/421
f 427/427/427 429/429/429 431/431/431
f 432/432/432 433/433/433 434/434/434
f 435/435/435 432/432/432 434/434/434
f 436/436/436 433/433/433 432/432/432
f 436/436/436 437/437/437 433/433/433
f 438/438/438 439/439/439 440/440/440
f 437/437/437 441/441/441 440/440/440
f 438/438/438 440/440/440 441/441/441
f 436/436/436 441/441/441 437/437/437
f 443/443/443 454/454/454 442/442/442
f 445/445/445 442/442/442 444/444/444
f 446/446/446 445/445/445 444/444/444
f 447/447/447 448/448/448 449/449/449
f 449/449/449 450/450/450 447/447/447
f 451/451/451 448/448/448 447/447/447
f 444/444/444 452/452/452 453/453/453
f 452/452/452 444/444/444 454/454/454
f 446/446/446 444/444/444 453/453/453
f 455/455/455 446/446/446 453/453/453
f 455/455/455 456/456/456 445/445/445
f 457/457/457 459/459/459 456/456/456
f 455/455/455 445/445/445 446/446/446
f 458/458/458 462/462/462 459/459/459
f 442/442/442 456/456/456 460/460/460
f 456/456/456 442/442/442 445/445/445
f 443/443/443 442/442/442 460/460/460
f 462/462/462 458/458/458 463/463/463
f 465/465/465 461/461/461 463/463/463
f 466/466/466 467/467/467 468/468/468
f 468/468/468 467/467/467 465/465/465
f 450/450/450 470/470/470 469/469/469
f 471/471/471 466/466/466 470/470/470
f 470/470/470 450/450/450 471/471/471
f 451/451/451 447/447/447 469/469/469
f 472/472/472 451/451/451 469/469/469
f 471/471/471 450/450/450 449/449/449
f 448/448/448 473/473/473 471/471/471
f 471/471/471 467/467/467 466/466/466
f 451/451/451 473/473/473 448/448/448
f 449/449/449 448/448/448 471/471/471
f 474/474/474 475/475/475 476/476/476
f 475/475/475 474/474/474 477/477/477
f 477/477/477 478/478/478 475/475/475
f 479/479/479 480/480/480 481/481/481
f 478/478/478 482/482/482 481/481/481
f 479/479/479 481/481/481 482/482/482
f 477/477/477 482/482/482 478/478/478
f 483/483/483 484/484/484 485/485/485
f 483/483/483 485/485/485 486/486/486
f 487/487/487 488/488/488 489/489/489
f 490/490/490 487/487/487 489/489/489
f 491/491/491 492/492/492 493/493/493
f 494/494/494 495/495/495 496/496/496
f 497/497/497 498/498/498 499/499/499
f 500/500/500 501/501/501 502/502/502
f 503/503/503 14/14/14 11/11/11
f 15/15/15 13/13/13 9/9/9
f 29/29/29 31/31/31 504/504/504
f 32/32/32 37/37/37 33/33/33
f 34/34/34 36/36/36 38/38/38
f 37/37/37 35/35/35 34/34/34
f 39/39/39 505/505/505 40/40/40
f 41/41/41 40/40/40 505/505/505
f 45/45/45 50/50/50 46/46/46
f 48/48/48 52/52/52 49/49/49
f 46/46/46 51/51/51 47/47/47
f 54/54/54 56/56/56 63/63/63
f 57/57/57 62/62/62 56/56/56
f 59/59/59 506/506/506 60/60/60
f 58/58/58 60/60/60 62/62/62
f 507/507/507 508/508/508 77/77/77
f 79/79/79 509/509/509 80/80/80
f 510/510/510 120/120/120 511/511/511
f 116/116/116 118/118/118 119/119/119
f 123/123/123 122/122/122 121/121/121
f 133/133/133 126/126/126 125/125/125
f 137/137/137 134/134/134 131/131/131
f 149/149/149 148/148/148 147/147/147
f 511/511/511 120/120/120 512/512/512
f 157/157/157 159/159/159 513/513/513
f 513/513/513 514/514/514 515/515/515
f 516/516/516 517/517/517 518/518/518
f 175/175/175 177/177/177 519/519/519
f 176/176/176 521/521/521 177/177/177
f 178/178/178 180/180/180 520/520/520
f 179/179/179 522/522/522 180/180/180
f 181/181/181 183/183/183 524/524/524
f 181/181/181 524/524/524 523/523/523
f 197/197/197 199/199/199 201/201/201
f 201/201/201 525/525/525 200/200/200
f 202/202/202 204/204/204 526/526/526
f 209/209/209 205/205/205 202/202/202
f 210/210/210 212/212/212 216/216/216
f 212/212/212 527/527/527 528/528/528
f 213/213/213 527/527/527 212/212/212
f 529/529/529 530/530/530 218/218/218
f 218/218/218 530/530/530 219/219/219
f 531/531/531 530/530/530 529/529/529
f 532/532/532 217/217/217 219/219/219
f 222/222/222 221/221/221 533/533/533
f 224/224/224 226/226/226 534/534/534
f 231/231/231 233/233/233 230/230/230
f 283/283/283 276/276/276 275/275/275
f 291/291/291 288/288/288 293/293/293
f 323/323/323 320/320/320 355/355/355
f 357/357/357 349/349/349 356/356/356
f 313/313/313 312/312/312 327/327/327
f 311/311/311 334/334/334 315/315/315
f 353/353/353 360/360/360 350/350/350
f 401/401/401 404/404/404 537/537/537
f 429/429/429 538/538/538 540/540/540
f 428/428/428 539/539/539 430/430/430
f 498/498/498 541/541/541 499/499/499
f 510/510/510 119/119/119 118/118/118
f 116/116/116 121/121/121 122/122/122
f 128/128/128 127/127/127 125/125/125
f 129/129/129 127/127/127 128/128/128
f 123/123/123 130/130/130 129/129/129
f 132/132/132 133/133/133 131/131/131
f 136/136/136 137/137/137 135/135/135
f 141/141/141 138/138/138 139/139/139
f 135/135/135 141/141/141 140/140/140
f 143/143/143 138/138/138 142/142/142
f 142/142/142 144/144/144 145/145/145
f 145/145/145 144/144/144 147/147/147
f 153/153/153 151/151/151 152/152/152
f 149/149/149 154/154/154 153/153/153
f 151/151/151 155/155/155 152/152/152
f 191/191/191 186/186/186 185/185/185
f 195/195/195 191/191/191 188/188/188
f 250/250/250 251/251/251 249/249/249
f 255/255/255 253/253/253 254/254/254
f 258/258/258 256/256/256 257/257/257
f 261/261/261 259/259/259 260/260/260
f 253/253/253 256/256/256 254/254/254
f 260/260/260 262/262/262 258/258/258
f 264/264/264 269/269/269 244/244/244
f 271/271/271 272/272/272 270/270/270
f 273/273/273 274/274/274 272/272/272
f 278/278/278 279/279/279 277/277/277
f 280/280/280 278/278/278 274/274/274
f 277/277/277 282/282/282 281/281/281
f 250/250/250 284/284/284 276/276/276
f 295/295/295 290/290/290 288/288/288
f 292/292/292 291/291/291 296/296/296
f 342/342/342 323/323/323 324/324/324
f 336/336/336 332/332/332 313/313/313
f 349/349/349 350/350/350 356/356/356
f 367/367/367 361/361/361 362/362/362
f 366/366/366 364/364/364 365/365/365
f 367/367/367 365/365/365 361/361/361
f 370/370/370 368/368/368 369/369/369
f 375/375/375 371/371/371 372/372/372
f 535/535/535 374/374/374 371/371/371
f 376/376/376 372/372/372 368/368/368
f 377/377/377 369/369/369 364/364/364
f 379/379/379 380/380/380 378/378/378
f 382/382/382 383/383/383 381/381/381
f 378/378/378 384/384/384 382/382/382
f 386/386/386 387/387/387 385/385/385
f 389/389/389 390/390/390 388/388/388
f 390/390/390 392/392/392 391/391/391
f 385/385/385 393/393/393 389/389/389
f 381/381/381 394/394/394 386/386/386
f 454/454/454 444/444/444 442/442/442
f 457/457/457 456/456/456 455/455/455
f 458/458/458 459/459/459 457/457/457
f 462/462/462 463/463/463 461/461/461
f 465/465/465 463/463/463 464/464/464
f 468/468/468 465/465/465 464/464/464
f 450/450/450 469/469/469 447/447/447

