mtllib material.mtl
usemtl Material-7024油漆.012
v -0.25013200 -0.02083100 -0.05720900
v -0.25013200 -0.02083100 -0.05720900
v -0.25013200 -0.02083100 -0.05720900
v -0.24458700 -0.01257700 -0.05720900
v -0.24458700 -0.01257700 -0.05720900
v -0.24458700 -0.01257700 -0.05720900
v -0.24325700 -0.01936900 -0.05720900
v -0.24325700 -0.01936900 -0.05720900
v -0.24325700 -0.01936900 -0.05720900
v -0.25188500 -0.01355500 -0.05720900
v -0.25188500 -0.01355500 -0.05720900
v -0.25188500 -0.01355500 -0.05720900
v -0.25013200 -0.02083100 -0.05720800
v -0.25013200 -0.02083100 -0.05720800
v -0.25013200 -0.02083100 -0.05720800
v -0.24458700 -0.01257700 -0.05720800
v -0.24458700 -0.01257700 -0.05720800
v -0.24458700 -0.01257700 -0.05720800
v -0.24325700 -0.01936900 -0.05720800
v -0.24325700 -0.01936900 -0.05720800
v -0.24325700 -0.01936900 -0.05720800
v -0.25188500 -0.01355500 -0.05720800
v -0.25188500 -0.01355500 -0.05720800
v -0.25188500 -0.01355500 -0.05720800
vn 0.00000000 0.00000000 -1.00000000
vn 0.20840000 -0.97800000 0.00000000
vn -0.97210000 -0.23470000 0.00000000
vn 0.98140000 0.19220000 0.00000000
vn 0.00000000 0.00000000 -1.00000000
vn -0.13260000 0.99120000 0.00000000
vn 0.00000000 0.00000000 -1.00000000
vn 0.98140000 0.19220000 0.00000000
vn 0.20840000 -0.97800000 0.00000000
vn -0.13260000 0.99120000 0.00000000
vn -0.97210000 -0.23470000 0.00000000
vn 0.00000000 0.00000000 -1.00000000
vn -0.00000000 0.00000000 1.00000000
vn -0.97210000 -0.23470000 0.00000000
vn 0.20840000 -0.97800000 0.00000000
vn -0.00000000 0.00000000 1.00000000
vn 0.98140000 0.19220000 0.00000000
vn -0.13260000 0.99120000 0.00000000
vn 0.98140000 0.19220000 0.00000000
vn -0.00000000 0.00000000 1.00000000
vn 0.20840000 -0.97800000 0.00000000
vn -0.13260000 0.99120000 0.00000000
vn -0.00000000 0.00000000 1.00000000
vn -0.97210000 -0.23470000 0.00000000
vt 0.03480600 0.77448900
vt 0.03480600 0.77448900
vt 0.03480600 0.77448900
vt 0.93537800 0.17391300
vt 0.93537800 0.17391300
vt 0.93537800 0.17391300
vt 0.19427900 0.02983100
vt 0.19427900 0.02983100
vt 0.19427900 0.02983100
vt 0.82873400 0.96431300
vt 0.82873400 0.96431300
vt 0.82873400 0.96431300
vt 0.03480600 0.77448900
vt 0.03480600 0.77448900
vt 0.03480600 0.77448900
vt 0.93537800 0.17391300
vt 0.93537800 0.17391300
vt 0.93537800 0.17391300
vt 0.19427900 0.02983100
vt 0.19427900 0.02983100
vt 0.19427900 0.02983100
vt 0.82873400 0.96431300
vt 0.82873400 0.96431300
vt 0.82873400 0.96431300
f 1/1/1 12/12/12 5/5/5
f 1/1/1 5/5/5 7/7/7
f 13/13/13 16/16/16 23/23/23
f 13/13/13 20/20/20 16/16/16
f 11/11/11 3/3/3 14/14/14
f 14/14/14 24/24/24 11/11/11
f 2/2/2 9/9/9 21/21/21
f 21/21/21 15/15/15 2/2/2
f 6/6/6 10/10/10 22/22/22
f 22/22/22 18/18/18 6/6/6
f 8/8/8 4/4/4 17/17/17
f 17/17/17 19/19/19 8/8/8

