mtllib material.mtl
usemtl Material-7024油漆.003
v 0.15014900 0.07924900 0.07900000
v 0.15193400 0.08144000 0.07900000
v 0.15209300 0.08118800 0.08027400
v 0.15012500 0.07924900 0.08300000
v 0.14641800 0.08724800 0.08001500
v 0.15193400 0.08144000 0.07900000
v 0.14637400 0.08724800 0.07900000
v 0.15209300 0.08118800 0.08027400
v -0.15521400 0.08120400 0.08025300
v -0.15505400 0.08144400 0.07900000
v -0.15327500 0.07924900 0.07900000
v -0.15328000 0.07924900 0.08300000
v -0.15505400 0.08144400 0.07900000
v -0.14954000 0.08724800 0.08001500
v -0.14949600 0.08724700 0.07900000
v -0.15521400 0.08120400 0.08025300
v 0.14641800 0.08724800 0.08001500
v 0.14369900 0.08574800 0.08300000
v 0.15209300 0.08118800 0.08027400
v 0.13930800 0.08724800 0.08499900
v 0.14063100 0.08574800 0.08499900
v 0.15012500 0.07924900 0.08300000
v -0.15521400 0.08120400 0.08025300
v -0.15328000 0.07924900 0.08300000
v -0.15328000 0.07924900 0.08300000
v -0.14682000 0.08574800 0.08300000
v -0.14682000 0.08574800 0.08300000
v -0.14375500 0.08574800 0.08499800
v -0.14242800 0.08724800 0.08499900
v -0.14954000 0.08724800 0.08001500
v -0.14954000 0.08724800 0.08001500
v -0.14954000 0.08724800 0.08001500
v -0.14242800 0.08724800 0.08499900
v -0.14242800 0.08724800 0.08499900
v -0.14375500 0.08574800 0.08499800
v 0.14063100 0.08574800 0.08499900
v 0.14063100 0.08574800 0.08499900
v -0.14682000 0.08574800 0.08300000
v 0.14369900 0.08574800 0.08300000
v 0.14063100 0.08574800 0.08499900
v -0.14375500 0.08574800 0.08499800
v 0.15012500 0.07924900 0.08300000
v 0.15012500 0.07924900 0.08300000
v -0.15328000 0.07924900 0.08300000
v -0.15327500 0.07924900 0.07900000
v -0.15327500 0.07924900 0.07900000
v 0.14637400 0.08724800 0.07900000
v 0.14637400 0.08724800 0.07900000
v -0.14949600 0.08724700 0.07900000
v -0.14954000 0.08724800 0.08001500
v -0.14954000 0.08724800 0.08001500
v -0.14242800 0.08724800 0.08499900
v 0.14641800 0.08724800 0.08001500
v 0.13930800 0.08724800 0.08499900
v -0.14682000 0.08574800 0.08300000
v 0.15012500 0.07924900 0.08300000
v 0.14369900 0.08574800 0.08300000
v -0.15328000 0.07924900 0.08300000
v 0.15193400 0.08144000 0.07900000
v -0.14949600 0.08724700 0.07900000
v 0.14637400 0.08724800 0.07900000
v -0.15505400 0.08144400 0.07900000
v 0.15014900 0.07924900 0.07900000
v -0.15327500 0.07924900 0.07900000
v 0.13930800 0.08724800 0.08499900
v 0.15014900 0.07924900 0.07900000
vn 0.26370000 -0.96460000 0.00000000
vn 0.99970000 0.02370000 -0.00000000
vn 0.99540000 -0.09530000 -0.00000000
vn 0.24690000 -0.96900000 -0.00000000
vn 0.70710000 0.70710000 -0.00000000
vn 0.70710000 0.70710000 -0.00000000
vn 0.70710000 0.70710000 -0.00000000
vn 0.70710000 0.70710000 -0.00000000
vn -0.99610000 -0.08860000 -0.00000000
vn -0.99970000 0.02530000 0.00000000
vn -0.26560000 -0.96410000 -0.00000000
vn -0.26240000 -0.96500000 0.00000000
vn -0.70710000 0.70710000 0.00000000
vn -0.70710000 0.70710000 0.00000000
vn -0.70710000 0.70710000 0.00000000
vn -0.70710000 0.70710000 0.00000000
vn 0.50000000 0.50000000 0.70710000
vn 0.50000000 0.50000000 0.70710000
vn 0.50000000 0.50000000 0.70710000
vn 0.50000000 0.50000000 0.70710000
vn 0.50000000 0.50000000 0.70710000
vn 0.50000000 0.50000000 0.70710000
vn -0.50000000 0.49990000 0.70710000
vn -0.50000000 0.49990000 0.70710000
vn -0.50010000 0.49990000 0.70710000
vn -0.50010000 0.49990000 0.70710000
vn -0.50000000 0.50000000 0.70710000
vn -0.50000000 0.50000000 0.70710000
vn -0.50000000 0.50000000 0.70710000
vn -0.50000000 0.49990000 0.70710000
vn -0.50000000 0.50000000 0.70710000
vn -0.50010000 0.49990000 0.70710000
vn 0.00000000 0.00010000 1.00000000
vn 0.00000000 0.00000000 1.00000000
vn 0.00000000 0.00010000 1.00000000
vn 0.00000000 0.00010000 1.00000000
vn 0.00000000 0.00000000 1.00000000
vn 0.00000000 -1.00000000 0.00000000
vn 0.00000000 -1.00000000 0.00000000
vn 0.00000000 -1.00000000 0.00000000
vn 0.00000000 -1.00000000 0.00000000
vn 0.00000000 -1.00000000 0.00000000
vn -0.00000000 -1.00000000 0.00020000
vn -0.00000000 -1.00000000 0.00020000
vn 0.00000000 -1.00000000 0.00000000
vn -0.00000000 -1.00000000 0.00020000
vn -0.00000000 1.00000000 -0.00000000
vn 0.00000000 1.00000000 0.00010000
vn 0.00000000 1.00000000 0.00010000
vn -0.00000000 1.00000000 -0.00000000
vn 0.00000000 1.00000000 0.00010000
vn -0.00000000 1.00000000 -0.00000000
vn -0.00000000 1.00000000 -0.00000000
vn -0.00000000 1.00000000 -0.00000000
vn 0.00000000 0.00000000 1.00000000
vn 0.00000000 0.00000000 1.00000000
vn 0.00000000 0.00000000 1.00000000
vn 0.00000000 0.00000000 1.00000000
vn 0.00000000 0.00000000 -1.00000000
vn 0.00000000 0.00000000 -1.00000000
vn 0.00000000 0.00000000 -1.00000000
vn 0.00000000 0.00000000 -1.00000000
vn 0.00000000 0.00000000 -1.00000000
vn 0.00000000 0.00000000 -1.00000000
vn 0.00000000 0.00000000 1.00000000
vn 0.00000000 -1.00000000 0.00000000
vt 0.06027700 0.02338500
vt 0.05596800 0.02338700
vt 0.05621300 0.02697200
vt 0.06031200 0.03498800
vt 0.07140500 0.05302300
vt 0.04679400 0.05007200
vt 0.07150100 0.05007600
vt 0.04589600 0.05362500
vt 0.06596100 0.02691100
vt 0.06619100 0.02338900
vt 0.06188400 0.02338600
vt 0.06189300 0.03498800
vt 0.05603600 0.05007200
vt 0.03143500 0.05302300
vt 0.03134200 0.05007600
vt 0.05690800 0.05357200
vt 0.08932200 0.01804900
vt 0.09197200 0.00580400
vt 0.06381500 0.01695800
vt 0.10477700 -0.00249300
vt 0.09863700 -0.00275400
vt 0.06387800 0.00569600
vt 0.03898900 0.01702400
vt 0.03903500 0.00574600
vt 0.03903500 0.00574600
vt 0.01086800 0.00580400
vt 0.01086800 0.00580400
vt 0.00420800 -0.00275000
vt -0.00193900 -0.00249600
vt 0.01351900 0.01804900
vt 0.01351900 0.01804900
vt 0.01351900 0.01804900
vt 0.05142000 0.84429200
vt 0.05142000 0.84429200
vt 0.05603100 0.84814200
vt 0.05603100 0.02291200
vt 0.05603100 0.02291200
vt 0.94445100 0.01641500
vt 0.05142000 0.01641500
vt 0.06084900 0.02221600
vt 0.93502800 0.02221400
vt 0.06903700 0.02221900
vt 0.06903700 0.02221900
vt 1.00167700 0.02221900
vt 1.00166100 0.01061200
vt 1.00166100 0.01061200
vt 0.05142000 0.02651800
vt 0.05142000 0.02651800
vt 0.05142000 0.88507100
vt 0.05454200 0.88519900
vt 0.05454200 0.88519900
vt 0.06986200 0.86456200
vt 0.05454200 0.02639000
vt 0.06986000 0.04702300
vt 0.05142000 0.88410700
vt 0.07139900 0.02243400
vt 0.05142000 0.04108000
vt 0.07139800 0.90285200
vt 0.07173300 0.11018300
vt 0.05388300 0.98487000
vt 0.05388100 0.12631700
vt 0.07172100 1.00099900
vt 0.07846900 0.11536200
vt 0.07847000 0.99583600
vt 0.05142000 0.02675300
vt 0.06896100 0.01061200
f 1/1/1 2/2/2 3/3/3
f 4/4/4 1/1/1 3/3/3
f 5/5/5 6/6/6 7/7/7
f 8/8/8 6/6/6 5/5/5
f 9/9/9 10/10/10 11/11/11
f 12/12/12 9/9/9 11/11/11
f 13/13/13 14/14/14 15/15/15
f 14/14/14 13/13/13 16/16/16
f 18/18/18 22/22/22 17/17/17
f 18/18/18 20/20/20 21/21/21
f 20/20/20 18/18/18 17/17/17
f 26/26/26 32/32/32 25/25/25
f 27/27/27 28/28/28 29/29/29
f 31/31/31 27/27/27 29/29/29
f 33/33/33 35/35/35 36/36/36
f 38/38/38 39/39/39 40/40/40
f 38/38/38 40/40/40 41/41/41
f 45/45/45 66/66/66 42/42/42
f 48/48/48 49/49/49 51/51/51
f 53/53/53 47/47/47 52/52/52
f 53/53/53 52/52/52 54/54/54
f 55/55/55 56/56/56 57/57/57
f 58/58/58 56/56/56 55/55/55
f 59/59/59 60/60/60 61/61/61
f 59/59/59 63/63/63 60/60/60
f 62/62/62 63/63/63 64/64/64
f 34/34/34 37/37/37 65/65/65
f 22/22/22 19/19/19 17/17/17
f 30/30/30 23/23/23 24/24/24
f 46/46/46 43/43/43 44/44/44
f 47/47/47 50/50/50 52/52/52
f 63/63/63 62/62/62 60/60/60

