mtllib material.mtl
usemtl Material-塑胶__7_
v 0.36408800 0.02663000 -0.02506500
v 0.36344900 0.02773600 -0.02309500
v 0.36651400 0.02644600 -0.02219700
v 0.36651400 0.02508100 -0.02544700
v 0.36421500 0.02868100 -0.01832400
v 0.36366900 0.02924800 -0.01613300
v 0.36651400 0.02786000 -0.01578700
v 0.36651400 0.02734200 -0.01903400
v 0.36403500 0.02816200 -0.02090300
v 0.36214400 0.02915500 -0.02011400
v 0.36215600 0.02957900 -0.01809200
v 0.37047200 0.02528400 -0.01552900
v 0.37047200 0.02400000 -0.02134700
v 0.37406200 0.02209600 -0.01521000
v 0.37406200 0.02097400 -0.02029500
v 0.37705400 0.01851600 -0.01485200
v 0.37705400 0.01757600 -0.01911300
v 0.37951900 0.01448400 -0.01444900
v 0.37951900 0.01374800 -0.01778100
v 0.38144900 0.00985900 -0.01398600
v 0.38144900 0.00935900 -0.01625500
v 0.38262600 0.00499100 -0.01349900
v 0.38262600 0.00473800 -0.01464800
v 0.38302100 0.00000000 -0.01300000
v 0.36431500 0.02906800 -0.01121300
v 0.36366800 0.02905400 -0.00840600
v 0.36651400 0.02768900 -0.00884400
v 0.36651400 0.02799100 -0.01231000
v 0.36401600 0.02923900 -0.01408100
v 0.36215800 0.02983600 -0.00960100
v 0.37047200 0.02512900 -0.00922900
v 0.37406200 0.02196100 -0.00970400
v 0.37705400 0.01840300 -0.01023800
v 0.37951900 0.01439500 -0.01084000
v 0.38144900 0.00979900 -0.01152900
v 0.38262600 0.00496100 -0.01225500
v 0.38302100 0.00000000 -0.01300000
v 0.36410100 0.02760600 -0.00342900
v 0.36406300 0.02668300 -0.00102400
v 0.36651400 0.02592300 -0.00241700
v 0.36651400 0.02699800 -0.00557800
v 0.36441700 0.02828200 -0.00626600
v 0.36221700 0.02923700 -0.00621500
v 0.36213200 0.02841000 -0.00328700
v 0.36215600 0.02727400 -0.00046300
v 0.37047200 0.02352500 -0.00339600
v 0.37406200 0.02056000 -0.00460700
v 0.37705400 0.01722900 -0.00596700
v 0.37951900 0.01347600 -0.00749800
v 0.38144900 0.00917400 -0.00925500
v 0.38262600 0.00464400 -0.01110400
v 0.38302100 0.00000000 -0.01300000
v 0.36651400 0.02447900 0.00059300
v 0.36375700 0.02572400 0.00118800
v 0.36420000 0.02424800 0.00323600
v 0.36651400 0.02268700 0.00341000
v 0.36216500 0.02572500 0.00248400
v 0.36214900 0.02384500 0.00523700
v 0.37047200 0.02058900 0.00189200
v 0.37406200 0.01799300 0.00001500
v 0.37705400 0.01507800 -0.00209400
v 0.37951900 0.01179400 -0.00446900
v 0.38144900 0.00802900 -0.00719300
v 0.38262600 0.00406500 -0.01006000
v 0.38302100 0.00000000 -0.01300000
v 0.36415700 0.02074600 0.00755100
v 0.36380200 0.01911700 0.00927800
v 0.36651400 0.01816500 0.00830700
v 0.36651400 0.02057200 0.00599400
v 0.36386900 0.02266400 0.00561500
v 0.36214900 0.02050300 0.00892200
v 0.37047200 0.01648500 0.00633700
v 0.37406200 0.01440700 0.00389900
v 0.37705400 0.01207300 0.00116100
v 0.37951900 0.00944300 -0.00192300
v 0.38144900 0.00642800 -0.00546000
v 0.38262600 0.00325400 -0.00918300
v 0.38302100 0.00000000 -0.01300000
v 0.36651400 0.01538300 0.01039500
v 0.36376900 0.01591400 0.01168400
v 0.36405800 0.01392000 0.01272500
v 0.36651400 0.01236400 0.01212200
v 0.36437300 0.01745600 0.01026000
v 0.36217800 0.01842000 0.01069700
v 0.37047200 0.01122100 0.00979800
v 0.37406200 0.00980600 0.00692400
v 0.37705400 0.00821700 0.00369600
v 0.37951900 0.00642800 0.00006000
v 0.38144900 0.00437600 -0.00411000
v 0.38262600 0.00221500 -0.00849900
v 0.38302100 0.00000000 -0.01300000
v 0.36399200 0.00779200 0.01521800
v 0.36414200 0.00505100 0.01576600
v 0.36651400 0.00589300 0.01437200
v 0.36651400 0.00919700 0.01344600
v 0.36396400 0.01084300 0.01422000
v 0.36213300 0.01258200 0.01425100
v 0.36215300 0.01045600 0.01513600
v 0.36216600 0.00852300 0.01576800
v 0.37047200 0.00534800 0.01184100
v 0.37406200 0.00467300 0.00870900
v 0.37705400 0.00391600 0.00519200
v 0.37951900 0.00306300 0.00123000
v 0.38144900 0.00208500 -0.00331300
v 0.38262600 0.00105600 -0.00809600
v 0.38302100 0.00000000 -0.01300000
v 0.36651400 0.00255000 0.01488300
v 0.36397400 0.00238400 0.01617600
v 0.36408100 0.00024500 0.01623700
v 0.36651400 -0.00083000 0.01498700
v 0.36219100 0.00383000 0.01677000
v 0.36212100 0.00625300 0.01636300
v 0.36214900 0.00160700 0.01696500
v 0.37047200 -0.00075300 0.01239900
v 0.37406200 -0.00065800 0.00919700
v 0.37705400 -0.00055200 0.00560100
v 0.37951900 -0.00043200 0.00155000
v 0.38144900 -0.00029400 -0.00309600
v 0.38262600 -0.00014900 -0.00798600
v 0.38302100 0.00000000 -0.01300000
v 0.36408200 -0.00532300 0.01574800
v 0.36315900 -0.00780400 0.01559900
v 0.36651400 -0.00742200 0.01399800
v 0.36651400 -0.00415600 0.01468900
v 0.36387300 -0.00251500 0.01621900
v 0.36211100 -0.00064400 0.01701200
v 0.36217100 -0.00606400 0.01638700
v 0.37047200 -0.00673500 0.01150100
v 0.37406200 -0.00588600 0.00841200
v 0.37705400 -0.00493300 0.00494300
v 0.37951900 -0.00385800 0.00103500
v 0.38144900 -0.00262700 -0.00344600
v 0.38262600 -0.00133000 -0.00816300
v 0.38302100 0.00000000 -0.01300000
v 0.36407700 -0.01217700 0.01358400
v 0.36389900 -0.01439800 0.01252800
v 0.36651400 -0.01359300 0.01147900
v 0.36651400 -0.01058300 0.01292300
v 0.36393300 -0.00944700 0.01473400
v 0.37047200 -0.01233600 0.00921500
v 0.37406200 -0.01078100 0.00641400
v 0.37705400 -0.00903400 0.00326900
v 0.37951900 -0.00706700 -0.00027400
v 0.38144900 -0.00481000 -0.00433700
v 0.38262600 -0.00243500 -0.00861400
v 0.38302100 0.00000000 -0.01300000
v 0.36651400 -0.01641000 0.00968700
v 0.36409100 -0.01621900 0.01132200
v 0.36377800 -0.01900700 0.00941500
v 0.36651400 -0.01899400 0.00757200
v 0.36215400 -0.01467500 0.01320000
v 0.36211900 -0.01736200 0.01148700
v 0.37047200 -0.01723700 0.00567000
v 0.37406200 -0.01506400 0.00331600
v 0.37705400 -0.01262300 0.00067300
v 0.37951900 -0.00987400 -0.00230500
v 0.38144900 -0.00672200 -0.00572000
v 0.38264300 -0.00340300 -0.00931400
v 0.38302100 0.00000000 -0.01300000
v 0.36390000 -0.02150800 0.00693600
v 0.36651400 -0.02130700 0.00516500
v 0.36211800 -0.02150200 0.00795000
v 0.36215700 0.02498400 -0.02960700
v 0.36215400 0.02648500 -0.02709100
v 0.36405300 0.02535800 -0.02755900
v 0.36214000 0.02750800 -0.02502000
v 0.36207600 0.02860800 -0.02210300
v 0.36216700 0.02999300 -0.01260500
v 0.36209300 0.02990600 -0.01562500
v 0.36208100 0.02180500 0.00765200
v 0.36656800 0.02329200 -0.02848300
v 0.37062200 0.02106500 -0.02700200
v 0.37729200 0.01521600 -0.02311400
v 0.37422400 0.01835200 -0.02519900
v 0.38155500 0.00797300 -0.01830000
v 0.37975400 0.01173000 -0.02079700
v 0.38302100 0.00000000 -0.01300000
v 0.38265200 0.00403300 -0.01568100
v 0.36215700 0.01660700 0.01198400
v 0.36214900 0.01479700 0.01311500
v 0.36216100 -0.02320000 0.00601900
v 0.36210300 -0.01097300 0.01494000
v 0.36402500 -0.02330500 0.00468000
v 0.36215700 -0.02498400 0.00360700
v 0.36214200 -0.00366500 0.01679300
v 0.36213800 -0.01960400 0.00973000
v 0.37422400 -0.01835200 -0.00080100
v 0.37062200 -0.02106500 0.00100200
v 0.37975400 -0.01173000 -0.00520300
v 0.38155500 -0.00797300 -0.00770000
v 0.37729200 -0.01521600 -0.00288600
v 0.36656800 -0.02329200 0.00248300
v 0.35815600 -0.02124900 0.00816600
v 0.36015700 -0.02317600 0.00604900
v 0.36211800 -0.02150200 0.00795000
v 0.36216100 -0.02320000 0.00601900
v 0.35815700 -0.01669400 0.01191500
v 0.36015600 -0.01887300 0.01031900
v 0.36211900 -0.01736200 0.01148700
v 0.36213800 -0.01960400 0.00973000
v 0.36215400 -0.01467500 0.01320000
v 0.36015700 -0.01389000 0.01359100
v 0.35815600 -0.00589300 0.01640700
v 0.36015700 -0.00847400 0.01577800
v 0.36193900 -0.00775300 0.01599800
v 0.36210300 -0.01097300 0.01494000
v 0.35815700 -0.01156000 0.01467900
v 0.36217100 -0.00606400 0.01638700
v 0.35815700 -0.00005000 0.01699200
v 0.36015500 -0.00276200 0.01687200
v 0.36211100 -0.00064400 0.01701200
v 0.36214200 -0.00366500 0.01679300
v 0.36212100 0.00625300 0.01636300
v 0.36015700 0.00305300 0.01684400
v 0.36219100 0.00383000 0.01677000
v 0.36214900 0.00160700 0.01696500
v 0.35815700 0.01141500 0.01473300
v 0.36014300 0.00874500 0.01569600
v 0.36215300 0.01045600 0.01513600
v 0.36216600 0.00852300 0.01576800
v 0.36014000 0.01410100 0.01347800
v 0.36213300 0.01258200 0.01425100
v 0.36214900 0.01479700 0.01311500
v 0.36215700 -0.01660700 -0.03798400
v 0.36215700 -0.02116200 -0.03426400
v 0.35815700 -0.02116200 -0.03426400
v 0.36215700 -0.02490400 -0.02972700
v 0.35815700 -0.02490400 -0.02972700
v 0.36215700 -0.02768900 -0.02454700
v 0.36215700 -0.02940900 -0.01892300
v 0.35815700 -0.02940900 -0.01892300
v 0.36215700 -0.03000000 -0.01307200
v 0.36215700 -0.02943800 -0.00721800
v 0.35815700 -0.02943800 -0.00721800
v 0.35815700 -0.03000000 -0.01307200
v 0.35815700 -0.02768900 -0.02454700
v 0.35815700 -0.02498400 0.00360700
v 0.36215700 -0.02774400 -0.00158600
v 0.36215700 -0.02498400 0.00360700
v 0.35815700 -0.02774400 -0.00158600
v 0.35815700 0.00578200 0.01643800
v 0.35815700 0.01660700 0.01198400
v 0.36215700 0.01660700 0.01198400
v 0.36015700 0.01904900 0.01017600
v 0.36217800 0.01842000 0.01069700
v 0.36214900 0.02050300 0.00892200
v 0.36208100 0.02180500 0.00765200
v 0.36214900 0.02384500 0.00523700
v 0.36216500 0.02572500 0.00248400
v 0.36015700 0.02511200 0.00341200
v 0.35815900 0.02348000 0.00566000
v 0.35816000 0.02808000 -0.00246200
v 0.35815700 0.02619500 0.00161000
v 0.36215600 0.02727400 -0.00046300
v 0.36015700 0.02877800 -0.00452600
v 0.36213200 0.02841000 -0.00328700
v 0.36221700 0.02923700 -0.00621500
v 0.35815700 0.02941300 -0.00713300
v 0.36215800 0.02983600 -0.00960100
v 0.36015700 0.02940900 -0.01892700
v 0.36209300 0.02990600 -0.01562500
v 0.36215600 0.02957900 -0.01809200
v 0.36015700 0.03000000 -0.01315000
v 0.36216700 0.02999300 -0.01260500
v 0.36207600 0.02860800 -0.02210300
v 0.36214000 0.02750800 -0.02502000
v 0.35815700 0.02736900 -0.02528200
v 0.36214400 0.02915500 -0.02011400
v 0.35815800 0.02490900 -0.02973500
v 0.36015700 0.02647400 -0.02711100
v 0.36215400 0.02648500 -0.02709100
v 0.35865700 -0.00305300 -0.04284400
v 0.35815700 0.00026300 -0.04305100
v 0.36107100 -0.00281300 -0.04287600
v 0.36217000 0.00006600 -0.04299300
v 0.35850800 0.00326100 -0.04283400
v 0.35815600 0.00586400 -0.04241800
v 0.36112100 0.00568300 -0.04245400
v 0.36115700 0.00275400 -0.04287300
v 0.35927600 -0.00611500 -0.04238100
v 0.35815700 0.01660700 0.01198400
v 0.36215700 0.01660700 0.01198400
v 0.35815700 0.02031100 0.00907700
v 0.35815700 0.02997400 -0.01175400
v 0.35815700 0.02979900 -0.01645900
v 0.36215700 0.02126400 -0.03416200
v 0.36215700 0.01672700 -0.03790400
v 0.35815700 0.01862300 -0.03652000
v 0.36215700 0.01154700 -0.04068900
v 0.35983200 0.01128600 -0.04080000
v 0.36215700 0.00592300 -0.04240900
v 0.35815700 0.02889200 -0.02107900
v 0.36215700 0.02498400 -0.02960700
v 0.35815700 0.02207300 -0.03331600
v 0.35980000 0.00835100 -0.04182900
v 0.35815700 0.01044200 -0.04112400
v 0.35815700 0.01471300 -0.03914300
v 0.36215700 -0.00578200 -0.04243800
v 0.36215700 -0.01141400 -0.04074400
v 0.35815700 -0.00863700 -0.04173000
v 0.35815700 -0.01660700 -0.03798400
v 0.36215700 -0.01660700 -0.03798400
v 0.37047200 -0.02485900 -0.01826300
v 0.37047200 -0.02499300 -0.00841700
v 0.36651500 -0.02739200 -0.01879900
v 0.37406200 -0.02172500 -0.01759900
v 0.37406200 -0.02184200 -0.00899400
v 0.37705400 -0.01820500 -0.01685400
v 0.37705400 -0.01830300 -0.00964300
v 0.37951900 -0.01424000 -0.01601500
v 0.37951900 -0.01431700 -0.01037400
v 0.38144900 -0.00969400 -0.01505200
v 0.38144900 -0.00974600 -0.01121300
v 0.38262600 -0.00490800 -0.01403900
v 0.38262600 -0.00493400 -0.01209500
v 0.38302100 0.00000000 -0.01300000
v 0.37047200 -0.02102300 -0.02727100
v 0.36651500 -0.02316600 -0.02872600
v 0.37406200 -0.01837300 -0.02547200
v 0.37705400 -0.01539600 -0.02345200
v 0.37951900 -0.01204300 -0.02117500
v 0.38144900 -0.00819800 -0.01856500
v 0.38262600 -0.00415000 -0.01581700
v 0.38302100 0.00000000 -0.01300000
v 0.37047200 -0.01406600 -0.03416100
v 0.37406200 -0.01229300 -0.03149400
v 0.37705400 -0.01030100 -0.02849700
v 0.37951900 -0.00805800 -0.02512200
v 0.38144900 -0.00548500 -0.02125200
v 0.38262600 -0.00277700 -0.01717800
v 0.38302100 0.00000000 -0.01300000
v 0.37047200 -0.00458300 -0.03799300
v 0.36651500 -0.01550000 -0.03631800
v 0.37406200 -0.00400600 -0.03484200
v 0.37705400 -0.00335700 -0.03130300
v 0.37951900 -0.00262600 -0.02731700
v 0.38144900 -0.00178700 -0.02274600
v 0.38262600 -0.00090500 -0.01793400
v 0.38302100 0.00000000 -0.01300000
v 0.37047200 0.00526300 -0.03785900
v 0.36651500 -0.00505000 -0.04054000
v 0.37406200 0.00459900 -0.03472500
v 0.37705400 0.00385400 -0.03120500
v 0.37951900 0.00301500 -0.02724000
v 0.38144900 0.00205200 -0.02269400
v 0.38262600 0.00103900 -0.01790700
v 0.38302100 0.00000000 -0.01300000
v 0.37047200 0.01427100 -0.03402300
v 0.36651500 0.00579900 -0.04039200
v 0.37406200 0.01247200 -0.03137300
v 0.37705400 0.01045200 -0.02839600
v 0.37951900 0.00817500 -0.02504300
v 0.38144900 0.00556500 -0.02119800
v 0.38262600 0.00281700 -0.01715000
v 0.38302100 0.00000000 -0.01300000
v 0.36656800 -0.02329200 0.00248300
v 0.36215700 -0.02498400 0.00360700
v 0.36215700 -0.02774400 -0.00158600
v 0.36651500 -0.02754000 -0.00795000
v 0.36215700 -0.02943800 -0.00721800
v 0.36215700 -0.03000000 -0.01307200
v 0.36215700 -0.02940900 -0.01892300
v 0.36215700 -0.02768900 -0.02454700
v 0.36215700 -0.02490400 -0.02972700
v 0.36215700 -0.02116200 -0.03426400
v 0.37422400 -0.01835200 -0.00080100
v 0.37062200 -0.02106500 0.00100200
v 0.37729200 -0.01521600 -0.00288600
v 0.38155500 -0.00797300 -0.00770000
v 0.37975400 -0.01173000 -0.00520300
v 0.38302100 0.00000000 -0.01300000
v 0.38264300 -0.00340300 -0.00931400
v 0.36215700 -0.01141400 -0.04074400
v 0.36215700 -0.00578200 -0.04243800
v 0.36217000 0.00006600 -0.04299300
v 0.36215700 -0.01660700 -0.03798400
v 0.36651500 0.01572600 -0.03616600
v 0.36215700 0.01154700 -0.04068900
v 0.36215700 0.01672700 -0.03790400
v 0.36215700 0.02126400 -0.03416200
v 0.36656800 0.02329200 -0.02848300
v 0.36215700 0.02498400 -0.02960700
v 0.36215700 0.00592300 -0.04240900
v 0.37062200 0.02106500 -0.02700200
v 0.37422400 0.01835200 -0.02519900
v 0.37975400 0.01173000 -0.02079700
v 0.38265200 0.00403300 -0.01568100
v 0.38155500 0.00797300 -0.01830000
v 0.37729200 0.01521600 -0.02311400
v 0.35815700 0.01862300 -0.03652000
v 0.35815700 0.01862300 -0.03652000
v 0.35815700 0.01044200 -0.04112400
v 0.35815700 0.01044200 -0.04112400
v 0.35815700 -0.03000000 -0.01307200
v 0.35815700 -0.03000000 -0.01307200
v 0.35815700 -0.02498400 0.00360700
v 0.35815700 -0.02498400 0.00360700
v 0.35815700 -0.02498400 0.00360700
v 0.35815700 -0.01156000 0.01467900
v 0.35815700 -0.01156000 0.01467900
v 0.35815700 0.02619500 0.00161000
v 0.35815700 0.02619500 0.00161000
v 0.35815700 0.02619500 0.00161000
v 0.35815700 0.01471300 -0.03914300
v 0.35815700 0.02736900 -0.02528200
v 0.35815800 0.02490900 -0.02973500
v 0.35815800 0.02490900 -0.02973500
v 0.35815700 0.02207300 -0.03331600
v 0.35815700 0.02979900 -0.01645900
v 0.35815700 0.02979900 -0.01645900
v 0.35815700 0.02979900 -0.01645900
v 0.35815700 0.02889200 -0.02107900
v 0.35815700 0.02941300 -0.00713300
v 0.35815700 0.02941300 -0.00713300
v 0.35815700 0.02941300 -0.00713300
v 0.35815700 0.02997400 -0.01175400
v 0.35815600 0.00586400 -0.04241800
v 0.35815700 0.00026300 -0.04305100
v 0.35815700 0.00026300 -0.04305100
v 0.35816000 0.02808000 -0.00246200
v 0.35815700 -0.00863700 -0.04173000
v 0.35815700 -0.00863700 -0.04173000
v 0.35815700 -0.01660700 -0.03798400
v 0.35815700 -0.02116200 -0.03426400
v 0.35815700 -0.02490400 -0.02972700
v 0.35815700 -0.02768900 -0.02454700
v 0.35815700 -0.02768900 -0.02454700
v 0.35815700 0.01141500 0.01473300
v 0.35815700 0.02031100 0.00907700
v 0.35815900 0.02348000 0.00566000
v 0.35815700 0.01660700 0.01198400
v 0.35815700 -0.02943800 -0.00721800
v 0.35815700 -0.02943800 -0.00721800
v 0.35815700 -0.02774400 -0.00158600
v 0.35815700 -0.00005000 0.01699200
v 0.35815700 0.00578200 0.01643800
v 0.35815700 0.00578200 0.01643800
v 0.35815600 -0.00589300 0.01640700
v 0.35815700 -0.01669400 0.01191500
v 0.35815700 -0.01669400 0.01191500
v 0.35815600 -0.02124900 0.00816600
v 0.35815700 -0.02940900 -0.01892300
v 0.35815700 -0.01660700 -0.03798400
vn 0.40810000 0.83160000 -0.37680000
vn 0.38810000 0.86600000 -0.31520000
vn 0.48420000 0.82640000 -0.28740000
vn 0.48420000 0.78380000 -0.38900000
vn 0.41210000 0.89580000 -0.16630000
vn 0.39500000 0.91340000 -0.09780000
vn 0.48420000 0.87060000 -0.08710000
vn 0.48420000 0.85440000 -0.18860000
vn 0.40650000 0.87970000 -0.24690000
vn 0.34760000 0.91090000 -0.22230000
vn 0.34780000 0.92400000 -0.15910000
vn 0.60790000 0.79010000 -0.07900000
vn 0.60780000 0.75000000 -0.26080000
vn 0.72000000 0.69050000 -0.06910000
vn 0.72000000 0.65550000 -0.22800000
vn 0.81350000 0.57860000 -0.05790000
vn 0.81350000 0.54930000 -0.19100000
vn 0.89060000 0.45260000 -0.04530000
vn 0.89060000 0.42960000 -0.14940000
vn 0.95080000 0.30810000 -0.03080000
vn 0.95090000 0.29250000 -0.10170000
vn 0.98760000 0.15600000 -0.01560000
vn 0.98760000 0.14810000 -0.05150000
vn 1.00000000 0.00000000 0.00000000
vn 0.41530000 0.90800000 0.05580000
vn 0.39500000 0.90740000 0.14350000
vn 0.48420000 0.86530000 0.12990000
vn 0.48410000 0.87470000 0.02150000
vn 0.40590000 0.91330000 -0.03380000
vn 0.34770000 0.93160000 0.10610000
vn 0.60780000 0.78530000 0.11790000
vn 0.72000000 0.68630000 0.10300000
vn 0.81350000 0.57510000 0.08630000
vn 0.89050000 0.44980000 0.06750000
vn 0.95080000 0.30620000 0.04600000
vn 0.98760000 0.15500000 0.02330000
vn 1.00000000 0.00000000 0.00000000
vn 0.40860000 0.86240000 0.29900000
vn 0.40730000 0.83320000 0.37400000
vn 0.48410000 0.81010000 0.33070000
vn 0.48420000 0.84370000 0.23190000
vn 0.41850000 0.88350000 0.21040000
vn 0.34950000 0.91270000 0.21180000
vn 0.34700000 0.88740000 0.30340000
vn 0.34780000 0.85190000 0.39160000
vn 0.60780000 0.73520000 0.30010000
vn 0.72000000 0.64250000 0.26230000
vn 0.81350000 0.53840000 0.21980000
vn 0.89060000 0.42110000 0.17190000
vn 0.95090000 0.28670000 0.11700000
vn 0.98760000 0.14510000 0.05930000
vn 1.00000000 0.00000000 0.00000000
vn 0.48420000 0.76500000 0.42480000
vn 0.39780000 0.80340000 0.44310000
vn 0.41160000 0.75730000 0.50710000
vn 0.48420000 0.70900000 0.51280000
vn 0.34800000 0.80320000 0.48350000
vn 0.34760000 0.74480000 0.56960000
vn 0.60790000 0.64340000 0.46540000
vn 0.72000000 0.56230000 0.40670000
vn 0.81350000 0.47120000 0.34080000
vn 0.89050000 0.36860000 0.26660000
vn 0.95080000 0.25090000 0.18150000
vn 0.98760000 0.12700000 0.09190000
vn 1.00000000 0.00000000 0.00000000
vn 0.41030000 0.64790000 0.64180000
vn 0.39920000 0.59710000 0.69580000
vn 0.48410000 0.56770000 0.66590000
vn 0.48420000 0.64290000 0.59350000
vn 0.40120000 0.70780000 0.58140000
vn 0.34760000 0.64050000 0.68480000
vn 0.60780000 0.51520000 0.60430000
vn 0.72000000 0.45020000 0.52810000
vn 0.81350000 0.37730000 0.44260000
vn 0.89050000 0.29510000 0.34620000
vn 0.95080000 0.20090000 0.23570000
vn 0.98760000 0.10170000 0.11930000
vn 1.00000000 0.00000000 0.00000000
vn 0.48420000 0.48070000 0.73110000
vn 0.39820000 0.49710000 0.77100000
vn 0.40710000 0.43470000 0.80330000
vn 0.48420000 0.38640000 0.78500000
vn 0.41720000 0.54550000 0.72690000
vn 0.34840000 0.57530000 0.74000000
vn 0.60790000 0.35060000 0.71240000
vn 0.72000000 0.30650000 0.62270000
vn 0.81350000 0.25680000 0.52180000
vn 0.89060000 0.20090000 0.40810000
vn 0.95080000 0.13670000 0.27780000
vn 0.98760000 0.06920000 0.14070000
vn 1.00000000 0.00000000 0.00000000
vn 0.40510000 0.24340000 0.88130000
vn 0.40980000 0.15780000 0.89840000
vn 0.48420000 0.18410000 0.85540000
vn 0.48420000 0.28740000 0.82640000
vn 0.40410000 0.33850000 0.84980000
vn 0.34720000 0.39310000 0.85140000
vn 0.34770000 0.32660000 0.87890000
vn 0.34820000 0.26630000 0.89880000
vn 0.60780000 0.16710000 0.77630000
vn 0.72000000 0.14600000 0.67840000
vn 0.81350000 0.12240000 0.56850000
vn 0.89050000 0.09580000 0.44470000
vn 0.95080000 0.06520000 0.30270000
vn 0.98760000 0.03300000 0.15320000
vn 1.00000000 0.00000000 0.00000000
vn 0.48420000 0.07970000 0.87130000
vn 0.40460000 0.07450000 0.91140000
vn 0.40780000 0.00770000 0.91300000
vn 0.48420000 -0.02590000 0.87460000
vn 0.34880000 0.11960000 0.92950000
vn 0.34680000 0.19540000 0.91740000
vn 0.34770000 0.05020000 0.93630000
vn 0.60790000 -0.02350000 0.79370000
vn 0.72000000 -0.02060000 0.69370000
vn 0.81350000 -0.01720000 0.58130000
vn 0.89050000 -0.01350000 0.45470000
vn 0.95090000 -0.00920000 0.30950000
vn 0.98760000 -0.00460000 0.15670000
vn 1.00000000 0.00000000 0.00000000
vn 0.40790000 -0.16620000 0.89780000
vn 0.37890000 -0.24360000 0.89280000
vn 0.48410000 -0.23190000 0.84370000
vn 0.48410000 -0.12990000 0.86530000
vn 0.40140000 -0.07850000 0.91250000
vn 0.34660000 -0.02010000 0.93780000
vn 0.34830000 -0.18940000 0.91800000
vn 0.60790000 -0.21050000 0.76560000
vn 0.72000000 -0.18390000 0.66910000
vn 0.81350000 -0.15420000 0.56080000
vn 0.89060000 -0.12060000 0.43860000
vn 0.95080000 -0.08210000 0.29860000
vn 0.98760000 -0.04160000 0.15120000
vn 1.00000000 0.00000000 0.00000000
vn 0.40770000 -0.38030000 0.83020000
vn 0.40230000 -0.44980000 0.79740000
vn 0.48420000 -0.42480000 0.76490000
vn 0.48420000 -0.33070000 0.81010000
vn 0.40330000 -0.29510000 0.86620000
vn 0.60790000 -0.38550000 0.69420000
vn 0.72000000 -0.33690000 0.60670000
vn 0.81350000 -0.28230000 0.50840000
vn 0.89050000 -0.22080000 0.39770000
vn 0.95090000 -0.15030000 0.27070000
vn 0.98760000 -0.07610000 0.13710000
vn 1.00000000 0.00000000 0.00000000
vn 0.48420000 -0.51280000 0.70900000
vn 0.40820000 -0.50650000 0.75950000
vn 0.39820000 -0.59330000 0.69960000
vn 0.48410000 -0.59350000 0.64290000
vn 0.34760000 -0.45820000 0.81810000
vn 0.34680000 -0.54250000 0.76510000
vn 0.60780000 -0.53870000 0.58340000
vn 0.72000000 -0.47080000 0.50990000
vn 0.81350000 -0.39450000 0.42730000
vn 0.89050000 -0.30860000 0.33420000
vn 0.95090000 -0.21000000 0.22750000
vn 0.98770000 -0.10630000 0.11510000
vn 1.00000000 0.00000000 0.00000000
vn 0.40210000 -0.67150000 0.62240000
vn 0.48420000 -0.66590000 0.56770000
vn 0.34670000 -0.67180000 0.65460000
vn 0.34800000 0.78080000 -0.51900000
vn 0.34790000 0.82770000 -0.44040000
vn 0.40710000 0.79210000 -0.45480000
vn 0.34730000 0.85930000 -0.37550000
vn 0.34560000 0.89420000 -0.28450000
vn 0.34830000 0.93730000 0.01230000
vn 0.34600000 0.93460000 -0.08200000
vn 0.34550000 0.68130000 0.64530000
vn 0.48590000 0.72790000 -0.48380000
vn 0.61250000 0.65830000 -0.43760000
vn 0.82100000 0.47550000 -0.31610000
vn 0.72510000 0.57350000 -0.38120000
vn 0.95420000 0.24920000 -0.16560000
vn 0.89790000 0.36650000 -0.24370000
vn 1.00000000 0.00000000 0.00000000
vn 0.98850000 0.12600000 -0.08380000
vn 0.34800000 0.51900000 0.78080000
vn 0.34760000 0.46220000 0.81580000
vn 0.34810000 -0.72500000 0.59430000
vn 0.34630000 -0.34300000 0.87320000
vn 0.40620000 -0.72800000 0.55230000
vn 0.34800000 -0.78080000 0.51900000
vn 0.34740000 -0.11450000 0.93070000
vn 0.34730000 -0.61250000 0.71010000
vn 0.72510000 -0.57350000 0.38120000
vn 0.61250000 -0.65830000 0.43760000
vn 0.89790000 -0.36660000 0.24360000
vn 0.95420000 -0.24920000 0.16560000
vn 0.82100000 -0.47550000 0.31610000
vn 0.48590000 -0.72790000 0.48380000
vn 0.00000000 -0.70850000 0.70570000
vn 0.00000000 -0.77250000 0.63500000
vn 0.00000000 -0.71630000 0.69780000
vn -0.00000000 -0.77330000 0.63400000
vn -0.00000000 -0.55660000 0.83080000
vn -0.00000000 -0.62910000 0.77730000
vn 0.00000000 -0.57840000 0.81570000
vn -0.00000000 -0.65310000 0.75730000
vn 0.00000000 -0.48870000 0.87250000
vn 0.00000000 -0.46300000 0.88640000
vn -0.00000000 -0.19650000 0.98050000
vn 0.00000000 -0.28250000 0.95930000
vn -0.00000000 -0.25830000 0.96610000
vn -0.00000000 -0.36550000 0.93080000
vn 0.00000000 -0.38540000 0.92280000
vn 0.00000000 -0.20210000 0.97940000
vn -0.00000000 -0.00170000 1.00000000
vn -0.00000000 -0.09210000 0.99580000
vn -0.00000000 -0.02140000 0.99980000
vn 0.00000000 -0.12210000 0.99250000
vn -0.00000000 0.20830000 0.97810000
vn 0.00000000 0.10180000 0.99480000
vn -0.00000000 0.12760000 0.99180000
vn -0.00000000 0.05350000 0.99860000
vn -0.00000000 0.38060000 0.92470000
vn -0.00000000 0.29150000 0.95660000
vn 0.00000000 0.34830000 0.93740000
vn -0.00000000 0.28410000 0.95880000
vn 0.00000000 0.47010000 0.88260000
vn -0.00000000 0.41920000 0.90790000
vn -0.00000000 0.49300000 0.87000000
vn 0.00000000 -0.55360000 -0.83280000
vn 0.00000000 -0.70540000 -0.70880000
vn 0.00000000 -0.70540000 -0.70880000
vn 0.00000000 -0.83010000 -0.55760000
vn 0.00000000 -0.83010000 -0.55760000
vn 0.00000000 -0.92300000 -0.38490000
vn 0.00000000 -0.98030000 -0.19740000
vn 0.00000000 -0.98030000 -0.19740000
vn 0.00000000 -1.00000000 -0.00240000
vn 0.00000000 -0.98130000 0.19270000
vn 0.00000000 -0.98130000 0.19270000
vn 0.00000000 -1.00000000 -0.00240000
vn 0.00000000 -0.92300000 -0.38490000
vn 0.00000000 -0.83280000 0.55360000
vn 0.00000000 -0.92480000 0.38050000
vn -0.00010000 -0.83280000 0.55360000
vn 0.00000000 -0.92480000 0.38050000
vn 0.00000000 0.19270000 0.98130000
vn 0.00000000 0.55360000 0.83280000
vn 0.00000000 0.55360000 0.83280000
vn -0.00000000 0.63500000 0.77250000
vn -0.00000000 0.61370000 0.78950000
vn 0.00000000 0.68310000 0.73030000
vn -0.00000000 0.72600000 0.68770000
vn -0.00010000 0.79430000 0.60750000
vn -0.00000000 0.85680000 0.51570000
vn -0.00000000 0.83710000 0.54710000
vn -0.00000000 0.78290000 0.62220000
vn -0.00000000 0.93620000 0.35140000
vn 0.00000000 0.87340000 0.48710000
vn -0.00000000 0.90860000 0.41760000
vn 0.00000000 0.95930000 0.28250000
vn 0.00000000 0.94620000 0.32350000
vn -0.00000000 0.97410000 0.22600000
vn -0.00000000 0.98070000 0.19560000
vn -0.00000000 0.99360000 0.11320000
vn -0.00000000 0.98030000 -0.19760000
vn 0.00000000 0.99620000 -0.08740000
vn -0.00000000 0.98550000 -0.16970000
vn -0.00000000 1.00000000 -0.00500000
vn -0.00000000 0.99990000 0.01320000
vn -0.00000000 0.95290000 -0.30320000
vn 0.00000000 0.91630000 -0.40040000
vn 0.00000000 0.91240000 -0.40940000
vn 0.00000000 0.97150000 -0.23710000
vn -0.00000000 0.83010000 -0.55770000
vn 0.00000000 0.88250000 -0.47040000
vn -0.00000000 0.88280000 -0.46970000
vn 0.00000000 -0.10170000 -0.99480000
vn 0.00000000 0.00880000 -1.00000000
vn 0.00000000 -0.09370000 -0.99560000
vn 0.00000000 0.00220000 -1.00000000
vn -0.00000000 0.10870000 -0.99410000
vn 0.00000000 0.19550000 -0.98070000
vn -0.00000000 0.18940000 -0.98190000
vn -0.00000000 0.09180000 -0.99580000
vn -0.00000000 -0.20380000 -0.97900000
vn 0.00000000 0.55360000 0.83280000
vn 0.00000000 0.55360000 0.83280000
vn 0.00000000 0.67710000 0.73590000
vn -0.00000000 0.99910000 0.04150000
vn -0.00000000 0.99330000 -0.11530000
vn -0.00000000 0.70880000 -0.70540000
vn 0.00000000 0.55760000 -0.83010000
vn 0.00000000 0.62080000 -0.78400000
vn -0.00000000 0.38490000 -0.92300000
vn -0.00000000 0.37620000 -0.92660000
vn -0.00000000 0.19750000 -0.98030000
vn 0.00000000 0.96310000 -0.26930000
vn -0.00000000 0.83280000 -0.55360000
vn -0.00000000 0.73580000 -0.67720000
vn -0.00000000 0.27830000 -0.96050000
vn 0.00000000 0.34810000 -0.93750000
vn -0.00000000 0.49050000 -0.87150000
vn -0.00000000 -0.19270000 -0.98130000
vn -0.00000000 -0.38050000 -0.92480000
vn -0.00000000 -0.28790000 -0.95770000
vn 0.00000000 -0.55360000 -0.83280000
vn 0.00000000 -0.55360000 -0.83280000
vn 0.60780000 -0.77690000 -0.16450000
vn 0.60780000 -0.78100000 0.14330000
vn 0.48420000 -0.85600000 -0.18120000
vn 0.72000000 -0.67890000 -0.14370000
vn 0.72000000 -0.68260000 0.12520000
vn 0.81350000 -0.56890000 -0.12040000
vn 0.81350000 -0.57200000 0.10490000
vn 0.89050000 -0.44500000 -0.09420000
vn 0.89050000 -0.44740000 0.08210000
vn 0.95080000 -0.30300000 -0.06410000
vn 0.95080000 -0.30460000 0.05590000
vn 0.98760000 -0.15340000 -0.03240000
vn 0.98760000 -0.15420000 0.02830000
vn 1.00000000 0.00000000 0.00000000
vn 0.60780000 -0.65700000 -0.44600000
vn 0.48420000 -0.72390000 -0.49140000
vn 0.72000000 -0.57420000 -0.38980000
vn 0.81350000 -0.48110000 -0.32660000
vn 0.89050000 -0.37640000 -0.25550000
vn 0.95080000 -0.25620000 -0.17390000
vn 0.98760000 -0.12970000 -0.08800000
vn 1.00000000 0.00000000 0.00000000
vn 0.60790000 -0.43960000 -0.66130000
vn 0.72000000 -0.38420000 -0.57790000
vn 0.81350000 -0.32190000 -0.48430000
vn 0.89050000 -0.25180000 -0.37880000
vn 0.95080000 -0.17140000 -0.25790000
vn 0.98760000 -0.08680000 -0.13060000
vn 1.00000000 0.00000000 0.00000000
vn 0.60780000 -0.14320000 -0.78100000
vn 0.48420000 -0.48440000 -0.72870000
vn 0.72000000 -0.12520000 -0.68260000
vn 0.81350000 -0.10490000 -0.57200000
vn 0.89060000 -0.08200000 -0.44740000
vn 0.95090000 -0.05590000 -0.30460000
vn 0.98760000 -0.02830000 -0.15420000
vn 1.00000000 0.00000000 0.00000000
vn 0.60790000 0.16450000 -0.77680000
vn 0.48420000 -0.15780000 -0.86060000
vn 0.72000000 0.14370000 -0.67890000
vn 0.81350000 0.12040000 -0.56890000
vn 0.89060000 0.09420000 -0.44500000
vn 0.95090000 0.06410000 -0.30290000
vn 0.98760000 0.03240000 -0.15340000
vn 1.00000000 0.00000000 0.00000000
vn 0.60790000 0.44600000 -0.65700000
vn 0.48420000 0.18120000 -0.85600000
vn 0.72000000 0.38980000 -0.57420000
vn 0.81350000 0.32660000 -0.48110000
vn 0.89060000 0.25550000 -0.37630000
vn 0.95080000 0.17390000 -0.25620000
vn 0.98760000 0.08810000 -0.12970000
vn 1.00000000 0.00000000 0.00000000
vn 0.48580000 -0.72790000 0.48390000
vn 0.34800000 -0.78070000 0.51900000
vn 0.34800000 -0.86700000 0.35670000
vn 0.48420000 -0.86060000 0.15780000
vn 0.34800000 -0.91990000 0.18070000
vn 0.34800000 -0.93750000 -0.00230000
vn 0.34800000 -0.91900000 -0.18510000
vn 0.34800000 -0.86530000 -0.36080000
vn 0.34800000 -0.77830000 -0.52270000
vn 0.34800000 -0.66130000 -0.66450000
vn 0.72510000 -0.57350000 0.38120000
vn 0.61250000 -0.65830000 0.43760000
vn 0.82100000 -0.47550000 0.31610000
vn 0.95420000 -0.24920000 0.16560000
vn 0.89790000 -0.36660000 0.24370000
vn 1.00000000 0.00000000 0.00000000
vn 0.98760000 -0.10630000 0.11510000
vn 0.34800000 -0.35670000 -0.86700000
vn 0.34800000 -0.18070000 -0.91990000
vn 0.34840000 0.00210000 -0.93730000
vn 0.34800000 -0.51900000 -0.78070000
vn 0.48420000 0.49140000 -0.72390000
vn 0.34800000 0.36080000 -0.86530000
vn 0.34800000 0.52270000 -0.77830000
vn 0.34800000 0.66450000 -0.66130000
vn 0.48590000 0.72790000 -0.48380000
vn 0.34800000 0.78070000 -0.51900000
vn 0.34800000 0.18510000 -0.91910000
vn 0.61250000 0.65830000 -0.43760000
vn 0.72510000 0.57350000 -0.38120000
vn 0.89790000 0.36660000 -0.24360000
vn 0.98850000 0.12610000 -0.08380000
vn 0.95420000 0.24920000 -0.16560000
vn 0.82100000 0.47550000 -0.31610000
vn -1.00000000 0.00000000 0.00000000
vn -1.00000000 -0.00010000 0.00000000
vn -1.00000000 0.00000000 -0.00040000
vn -1.00000000 0.00000000 0.00000000
vn -1.00000000 -0.00010000 0.00000000
vn -1.00000000 0.00000000 0.00000000
vn -1.00000000 0.00000000 0.00000000
vn -1.00000000 0.00010000 0.00000000
vn -1.00000000 -0.00000000 0.00010000
vn -1.00000000 0.00000000 0.00000000
vn -1.00000000 0.00000000 -0.00010000
vn -1.00000000 0.00010000 0.00000000
vn -1.00000000 -0.00010000 0.00000000
vn -1.00000000 0.00000000 0.00000000
vn -1.00000000 0.00000000 0.00000000
vn -1.00000000 0.00000000 0.00000000
vn -1.00000000 -0.00010000 0.00000000
vn -1.00000000 0.00000000 0.00000000
vn -1.00000000 -0.00010000 0.00000000
vn -1.00000000 0.00020000 -0.00000000
vn -1.00000000 0.00000000 0.00000000
vn -1.00000000 0.00010000 0.00000000
vn -1.00000000 0.00000000 0.00000000
vn -1.00000000 0.00010000 0.00000000
vn -1.00000000 0.00020000 -0.00000000
vn -1.00000000 -0.00010000 0.00000000
vn -1.00000000 0.00020000 -0.00000000
vn -1.00000000 0.00000000 0.00000000
vn -1.00000000 0.00000000 -0.00040000
vn -1.00000000 0.00000000 0.00000000
vn -1.00000000 -0.00010000 0.00000000
vn -1.00000000 0.00000000 -0.00040000
vn -1.00000000 0.00000000 0.00000000
vn -1.00000000 0.00000000 0.00000000
vn -1.00000000 0.00000000 0.00000000
vn -1.00000000 0.00000000 0.00000000
vn -1.00000000 0.00000000 0.00000000
vn -1.00000000 -0.00010000 0.00000000
vn -1.00000000 0.00000000 0.00000000
vn -1.00000000 0.00000000 0.00000000
vn -1.00000000 0.00000000 0.00000000
vn -1.00000000 0.00000000 0.00000000
vn -1.00000000 0.00000000 0.00000000
vn -1.00000000 0.00010000 0.00000000
vn -1.00000000 0.00010000 0.00000000
vn -1.00000000 0.00000000 -0.00010000
vn -1.00000000 0.00000000 0.00000000
vn -1.00000000 0.00000000 -0.00010000
vn -1.00000000 0.00000000 -0.00010000
vn -1.00000000 0.00000000 0.00000000
vn -1.00000000 -0.00000000 0.00010000
vn -1.00000000 -0.00000000 0.00010000
vn -1.00000000 -0.00010000 0.00000000
vn 0.00000000 -0.55360000 -0.83280000
vt 0.58720500 0.71799100
vt 0.59781800 0.71264800
vt 0.59981000 0.73881400
vt 0.58236400 0.73881400
vt 0.62071500 0.71908400
vt 0.63138500 0.71448600
vt 0.63235500 0.73881400
vt 0.61608300 0.73881400
vt 0.60826400 0.71754700
vt 0.61302000 0.70194000
vt 0.62254700 0.70200600
vt 0.63235500 0.77508200
vt 0.59981000 0.77508200
vt 0.63235500 0.81197400
vt 0.59981000 0.81197400
vt 0.63235500 0.84785700
vt 0.59981000 0.84785700
vt 0.63235500 0.88423100
vt 0.59981000 0.88423100
vt 0.63235500 0.92282100
vt 0.59981000 0.92282100
vt 0.63235500 0.96141000
vt 0.59981000 0.96141000
vt 0.63235500 1.00000000
vt 0.65462600 0.71992800
vt 0.66789200 0.71447800
vt 0.66679400 0.73881400
vt 0.64957500 0.73881400
vt 0.64103900 0.71738900
vt 0.66191000 0.70202400
vt 0.66679400 0.77508200
vt 0.66679400 0.81197400
vt 0.66679400 0.84785700
vt 0.66679400 0.88423100
vt 0.66679400 0.92282100
vt 0.66679400 0.96141000
vt 0.66679400 1.00000000
vt 0.69239800 0.71811300
vt 0.70454700 0.71778700
vt 0.69984100 0.73881400
vt 0.68331800 0.73881400
vt 0.67856300 0.72080600
vt 0.67770300 0.70249800
vt 0.69177500 0.70185000
vt 0.70581500 0.70202700
vt 0.69984100 0.77508200
vt 0.69984100 0.81197400
vt 0.69984100 0.84785700
vt 0.69984100 0.88423100
vt 0.69984100 0.92282100
vt 0.69984100 0.96141000
vt 0.69984100 1.00000000
vt 0.71636500 0.73881400
vt 0.71596500 0.71523400
vt 0.72790600 0.71894100
vt 0.73288800 0.73881400
vt 0.72118300 0.70210300
vt 0.73660500 0.70198300
vt 0.73288800 0.77508200
vt 0.73288800 0.81197400
vt 0.73288800 0.84785700
vt 0.73288800 0.88423100
vt 0.73288800 0.92282100
vt 0.73288800 0.96141000
vt 0.73288800 1.00000000
vt 0.75425000 0.71857800
vt 0.76548600 0.71560200
vt 0.76593500 0.73881400
vt 0.74941200 0.73881400
vt 0.74139800 0.71614500
vt 0.75956700 0.70197800
vt 0.76593500 0.77508200
vt 0.76593500 0.81197400
vt 0.76593500 0.84785700
vt 0.76593500 0.88423100
vt 0.76593500 0.92282100
vt 0.76593500 0.96141000
vt 0.76593500 1.00000000
vt 0.78315000 0.73881400
vt 0.78440400 0.71532200
vt 0.79505700 0.71774100
vt 0.80036400 0.73881400
vt 0.77454200 0.72042800
vt 0.77217000 0.70218100
vt 0.80036400 0.77508200
vt 0.80036400 0.81197400
vt 0.80036400 0.84785700
vt 0.80036400 0.88423100
vt 0.80036400 0.92282100
vt 0.80036400 0.96141000
vt 0.80036400 1.00000000
vt 0.82641200 0.71718300
vt 0.83959600 0.71846300
vt 0.83433900 0.73881400
vt 0.81735200 0.73881400
vt 0.81121900 0.71695900
vt 0.80379100 0.70184500
vt 0.81444200 0.70201400
vt 0.82381600 0.70210600
vt 0.83433900 0.77508200
vt 0.83433900 0.81197400
vt 0.83433900 0.84785700
vt 0.83433900 0.88423100
vt 0.83433900 0.92282100
vt 0.83433900 0.96141000
vt 0.83433900 1.00000000
vt 0.85107600 0.73881400
vt 0.85242500 0.71705400
vt 0.86256500 0.71794500
vt 0.86781200 0.73881400
vt 0.84598400 0.70228000
vt 0.83465700 0.70176400
vt 0.85628700 0.70198100
vt 0.86781200 0.77508200
vt 0.86781200 0.81197400
vt 0.86781200 0.84785700
vt 0.86781200 0.88423100
vt 0.86781200 0.92282100
vt 0.86781200 0.96141000
vt 0.86781200 1.00000000
vt 0.88902100 0.71795100
vt 0.90061500 0.71021100
vt 0.90085900 0.73881400
vt 0.88433500 0.73881400
vt 0.87559500 0.71617500
vt 0.86667100 0.70167100
vt 0.89188300 0.70216700
vt 0.90085900 0.77508200
vt 0.90085900 0.81197400
vt 0.90085900 0.84785700
vt 0.90085900 0.88423100
vt 0.90085900 0.92282100
vt 0.90085900 0.96141000
vt 0.90085900 1.00000000
vt 0.92317800 0.71790700
vt 0.93483200 0.71641600
vt 0.93390600 0.73881400
vt 0.91738200 0.73881400
vt 0.90917400 0.71668900
vt 0.93390600 0.77508200
vt 0.93390600 0.81197400
vt 0.93390600 0.84785700
vt 0.93390600 0.88423100
vt 0.93390600 0.92282100
vt 0.93390600 0.96141000
vt 0.93390600 1.00000000
vt 0.95042900 0.73881400
vt 0.94517900 0.71802500
vt 0.96113100 0.71538900
vt 0.96695300 0.73881400
vt 0.93441600 0.70201900
vt 0.94911500 0.70173500
vt 0.96695300 0.77508200
vt 0.96695300 0.81197400
vt 0.96695300 0.84785700
vt 0.96695300 0.88423100
vt 0.96695300 0.92282100
vt 0.96695500 0.96143300
vt 0.96695300 1.00000000
vt 0.97775200 0.71641100
vt 0.98347600 0.73881400
vt 0.97428900 0.70172000
vt 0.56491800 0.70204800
vt 0.57844700 0.70202200
vt 0.57400300 0.71770500
vt 0.58910600 0.70191500
vt 0.60348800 0.70139800
vt 0.64798300 0.70213600
vt 0.63403400 0.70152900
vt 0.75118900 0.70143900
vt 0.56491800 0.73929200
vt 0.56491800 0.77653600
vt 0.56491800 0.85102400
vt 0.56491800 0.81378000
vt 0.56491800 0.92551200
vt 0.56491800 0.88826800
vt 0.56491800 1.00000000
vt 0.56491800 0.96275600
vt 0.78245900 0.70204800
vt 0.79231600 0.70198200
vt 0.98614400 0.70207900
vt 0.91552500 0.70160600
vt 0.99134600 0.71747300
vt 1.00000000 0.70204800
vt 0.88066600 0.70192700
vt 0.96227700 0.70189600
vt 1.00000000 0.81378000
vt 1.00000000 0.77653600
vt 1.00000000 0.88826800
vt 1.00000000 0.92551200
vt 1.00000000 0.85102400
vt 1.00000000 0.73929200
vt 0.56327500 0.26354700
vt 0.55088000 0.24822000
vt 0.56184100 0.23320200
vt 0.55071400 0.23287000
vt 0.58885800 0.26354300
vt 0.57716100 0.24823000
vt 0.58542500 0.23319200
vt 0.57309900 0.23304700
vt 0.59921200 0.23292100
vt 0.60300300 0.24822000
vt 0.63982500 0.26354500
vt 0.62832100 0.24822000
vt 0.63158300 0.23456500
vt 0.61691300 0.23331600
vt 0.61413600 0.26354400
vt 0.63908300 0.23280900
vt 0.66528500 0.26354400
vt 0.65353300 0.24823400
vt 0.66271800 0.23325600
vt 0.64961000 0.23301300
vt 0.69274500 0.23317700
vt 0.67873800 0.24822000
vt 0.68211300 0.23263600
vt 0.67245800 0.23295700
vt 0.71620000 0.26354300
vt 0.70390800 0.24832300
vt 0.71169600 0.23292600
vt 0.70289900 0.23283300
vt 0.72903900 0.24834700
vt 0.72166300 0.23308300
vt 0.73243000 0.23296100
vt 0.33378000 0.23289900
vt 0.35927300 0.23289900
vt 0.35927300 0.26354300
vt 0.38476600 0.23289900
vt 0.38476600 0.26354300
vt 0.41025900 0.23289900
vt 0.43575300 0.23289900
vt 0.43575300 0.26354300
vt 0.46124600 0.23289900
vt 0.48673900 0.23289900
vt 0.48673900 0.26354300
vt 0.46124600 0.26354300
vt 0.41025900 0.26354300
vt 0.53772500 0.26354300
vt 0.51223200 0.23289900
vt 0.53772500 0.23289900
vt 0.51223200 0.26354300
vt 0.69068400 0.26354300
vt 0.74167000 0.26354300
vt 0.74167000 0.23289900
vt 0.34693500 0.24822000
vt 0.34340300 0.23274200
vt 0.35524700 0.23296100
vt 0.36310900 0.23348700
vt 0.37678600 0.23295800
vt 0.39121000 0.23283200
vt 0.38640000 0.24822000
vt 0.37437000 0.26352900
vt 0.41494500 0.26352000
vt 0.39550400 0.26354200
vt 0.40561700 0.23290800
vt 0.42437600 0.24822000
vt 0.41878600 0.23308800
vt 0.43195400 0.23243900
vt 0.43599500 0.26354100
vt 0.44682900 0.23289600
vt 0.48738000 0.24822000
vt 0.47292300 0.23339400
vt 0.48369300 0.23291200
vt 0.46220700 0.24822000
vt 0.45984900 0.23281800
vt 0.50155600 0.23352200
vt 0.51504500 0.23302400
vt 0.51632000 0.26354100
vt 0.49262900 0.23299600
vt 0.53836000 0.26353400
vt 0.52513900 0.24822000
vt 0.52504100 0.23292300
vt 0.67873800 0.25971200
vt 0.66436300 0.26354400
vt 0.67768900 0.24121400
vt 0.66521900 0.23279500
vt 0.65136700 0.26085600
vt 0.63995500 0.26354700
vt 0.64075500 0.24083100
vt 0.65356600 0.24055800
vt 0.69214200 0.25496900
vt 0.33378000 0.26354300
vt 0.33378000 0.23289900
vt 0.35417800 0.26354300
vt 0.45616500 0.26354300
vt 0.47656200 0.26354300
vt 0.56321800 0.23289900
vt 0.58871100 0.23289900
vt 0.57854900 0.26354300
vt 0.61420400 0.23289900
vt 0.61543500 0.25071000
vt 0.63969700 0.23289900
vt 0.49696000 0.26354300
vt 0.53772500 0.23289900
vt 0.55815200 0.26354300
vt 0.62889300 0.25095400
vt 0.61934400 0.26354300
vt 0.59894700 0.26354300
vt 0.69068400 0.23289900
vt 0.71617700 0.23289900
vt 0.70342000 0.26354300
vt 0.74167000 0.26354300
vt 0.74167000 0.23289900
vt 0.23997300 0.77508600
vt 0.18596300 0.77508600
vt 0.23997300 0.73881900
vt 0.23997300 0.81197700
vt 0.18596300 0.81197700
vt 0.23997300 0.84786000
vt 0.18596300 0.84786000
vt 0.23997300 0.88423300
vt 0.18596300 0.88423300
vt 0.23997300 0.92282200
vt 0.18596300 0.92282200
vt 0.23997300 0.96141100
vt 0.18596300 0.96141100
vt 0.23997300 1.00000000
vt 0.29367500 0.77508600
vt 0.29367500 0.73881900
vt 0.29367500 0.81197700
vt 0.29367500 0.84786000
vt 0.29367500 0.88423300
vt 0.29367500 0.92282200
vt 0.29367500 0.96141100
vt 0.29367500 1.00000000
vt 0.34737600 0.77508600
vt 0.34737600 0.81197700
vt 0.34737600 0.84786000
vt 0.34737600 0.88423300
vt 0.34737600 0.92282200
vt 0.34737600 0.96141100
vt 0.34737600 1.00000000
vt 0.40350400 0.77508600
vt 0.34737600 0.73881900
vt 0.40350400 0.81197700
vt 0.40350400 0.84786000
vt 0.40350400 0.88423300
vt 0.40350400 0.92282200
vt 0.40350400 0.96141100
vt 0.40350400 1.00000000
vt 0.45751500 0.77508600
vt 0.40350400 0.73881900
vt 0.45751500 0.81197700
vt 0.45751500 0.84786000
vt 0.45751500 0.88423300
vt 0.45751500 0.92282200
vt 0.45751500 0.96141100
vt 0.45751500 1.00000000
vt 0.51121600 0.77508600
vt 0.45751500 0.73881900
vt 0.51121600 0.81197700
vt 0.51121600 0.84786000
vt 0.51121600 0.88423300
vt 0.51121600 0.92282200
vt 0.51121600 0.96141100
vt 0.51121600 1.00000000
vt 0.12983500 0.73929200
vt 0.12983500 0.70204800
vt 0.15702800 0.70204800
vt 0.18596300 0.73881900
vt 0.18422100 0.70204800
vt 0.21141300 0.70204800
vt 0.23860600 0.70204800
vt 0.26579900 0.70204800
vt 0.29299100 0.70204800
vt 0.32018400 0.70204800
vt 0.12983500 0.81378000
vt 0.12983500 0.77653600
vt 0.12983500 0.85102400
vt 0.12983500 0.92551200
vt 0.12983500 0.88826800
vt 0.12983500 1.00000000
vt 0.09622200 0.96434800
vt 0.37456900 0.70204800
vt 0.40176200 0.70204800
vt 0.42892400 0.70216200
vt 0.34737600 0.70204800
vt 0.51121600 0.73881900
vt 0.48334000 0.70204800
vt 0.51053200 0.70204800
vt 0.53772500 0.70204800
vt 0.56491800 0.73929200
vt 0.56491800 0.70204800
vt 0.45614700 0.70204800
vt 0.56491800 0.77653600
vt 0.56491800 0.81378000
vt 0.56491800 0.88826800
vt 0.56491800 0.96275600
vt 0.56491800 0.92551200
vt 0.56491800 0.85102400
vt 0.00636500 0.15875000
vt 0.00636500 0.15875000
vt 0.02482100 0.09468100
vt 0.02482100 0.09468100
vt 0.23778900 0.10214400
vt 0.23778900 0.10214400
vt 0.25967100 0.22983100
vt 0.25967100 0.22983100
vt 0.25967100 0.22983100
vt 0.23781500 0.35740100
vt 0.23781500 0.35740100
vt 0.07042500 0.43413100
vt 0.07042500 0.43413100
vt 0.07042500 0.43413100
vt 0.01417100 0.12543200
vt 0.00176600 0.26754500
vt -0.00003500 0.22870000
vt -0.00003500 0.22870000
vt 0.00160700 0.19382100
vt 0.01414500 0.33413600
vt 0.01414500 0.33413600
vt 0.01414500 0.33413600
vt 0.00634700 0.30081200
vt 0.03787900 0.39200200
vt 0.03787900 0.39200200
vt 0.03787900 0.39200200
vt 0.02478600 0.36489600
vt 0.03821900 0.06700900
vt 0.05689100 0.03921500
vt 0.05689100 0.03921500
vt 0.05387500 0.41614700
vt 0.09213700 0.00990100
vt 0.09213700 0.00990100
vt 0.12983500 0.00000000
vt 0.15516500 0.00441600
vt 0.17952100 0.01749500
vt 0.20196800 0.03873300
vt 0.20196800 0.03873300
vt 0.15513500 0.45518400
vt 0.10952200 0.45682500
vt 0.08991400 0.44845700
vt 0.12983500 0.45966100
vt 0.24978800 0.14187800
vt 0.24978800 0.14187800
vt 0.25717600 0.18499300
vt 0.20187100 0.42097100
vt 0.17952100 0.44216600
vt 0.17952100 0.44216600
vt 0.22152500 0.39245700
vt 0.24969400 0.31799500
vt 0.24969400 0.31799500
vt 0.25713100 0.27475400
vt 0.22164300 0.06731600
vt 0.33378000 0.26354300
f 3/3/3 4/4/4 1/1/1
f 7/7/7 8/8/8 5/5/5
f 9/9/9 5/5/5 8/8/8
f 3/3/3 2/2/2 9/9/9
f 8/8/8 3/3/3 9/9/9
f 10/10/10 11/11/11 5/5/5
f 11/11/11 169/169/169 6/6/6
f 8/8/8 7/7/7 12/12/12
f 13/13/13 3/3/3 8/8/8
f 12/12/12 13/13/13 8/8/8
f 13/13/13 12/12/12 14/14/14
f 15/15/15 14/14/14 16/16/16
f 17/17/17 16/16/16 18/18/18
f 19/19/19 18/18/18 20/20/20
f 23/23/23 21/21/21 20/20/20
f 24/24/24 23/23/23 22/22/22
f 27/27/27 28/28/28 25/25/25
f 29/29/29 25/25/25 28/28/28
f 7/7/7 6/6/6 29/29/29
f 28/28/28 7/7/7 29/29/29
f 26/26/26 25/25/25 30/30/30
f 28/28/28 27/27/27 31/31/31
f 12/12/12 7/7/7 28/28/28
f 31/31/31 12/12/12 28/28/28
f 14/14/14 12/12/12 31/31/31
f 16/16/16 14/14/14 32/32/32
f 16/16/16 33/33/33 34/34/34
f 18/18/18 34/34/34 35/35/35
f 20/20/20 35/35/35 36/36/36
f 37/37/37 22/22/22 36/36/36
f 38/38/38 39/39/39 40/40/40
f 41/41/41 42/42/42 38/38/38
f 40/40/40 41/41/41 38/38/38
f 42/42/42 41/41/41 27/27/27
f 26/26/26 43/43/43 42/42/42
f 43/43/43 44/44/44 38/38/38
f 44/44/44 45/45/45 39/39/39
f 41/41/41 40/40/40 46/46/46
f 31/31/31 27/27/27 41/41/41
f 46/46/46 31/31/31 41/41/41
f 32/32/32 31/31/31 46/46/46
f 32/32/32 47/47/47 48/48/48
f 33/33/33 48/48/48 49/49/49
f 35/35/35 34/34/34 49/49/49
f 35/35/35 50/50/50 51/51/51
f 52/52/52 36/36/36 51/51/51
f 55/55/55 56/56/56 53/53/53
f 53/53/53 40/40/40 39/39/39
f 45/45/45 57/57/57 54/54/54
f 54/54/54 39/39/39 45/45/45
f 55/55/55 54/54/54 57/57/57
f 58/58/58 55/55/55 57/57/57
f 53/53/53 56/56/56 59/59/59
f 46/46/46 40/40/40 53/53/53
f 59/59/59 46/46/46 53/53/53
f 46/46/46 59/59/59 60/60/60
f 47/47/47 60/60/60 61/61/61
f 49/49/49 48/48/48 61/61/61
f 50/50/50 49/49/49 62/62/62
f 51/51/51 50/50/50 63/63/63
f 65/65/65 51/51/51 64/64/64
f 68/68/68 69/69/69 66/66/66
f 70/70/70 66/66/66 69/69/69
f 70/70/70 69/69/69 56/56/56
f 66/66/66 170/170/170 71/71/71
f 69/69/69 68/68/68 72/72/72
f 59/59/59 56/56/56 69/69/69
f 72/72/72 59/59/59 69/69/69
f 59/59/59 72/72/72 73/73/73
f 60/60/60 73/73/73 74/74/74
f 62/62/62 61/61/61 74/74/74
f 62/62/62 75/75/75 76/76/76
f 64/64/64 63/63/63 76/76/76
f 78/78/78 64/64/64 77/77/77
f 81/81/81 82/82/82 79/79/79
f 83/83/83 80/80/80 79/79/79
f 68/68/68 67/67/67 83/83/83
f 79/79/79 68/68/68 83/83/83
f 67/67/67 84/84/84 83/83/83
f 79/79/79 82/82/82 85/85/85
f 72/72/72 68/68/68 79/79/79
f 85/85/85 72/72/72 79/79/79
f 72/72/72 85/85/85 86/86/86
f 74/74/74 73/73/73 86/86/86
f 75/75/75 74/74/74 87/87/87
f 75/75/75 88/88/88 89/89/89
f 76/76/76 89/89/89 90/90/90
f 91/91/91 77/77/77 90/90/90
f 92/92/92 93/93/93 94/94/94
f 95/95/95 96/96/96 92/92/92
f 94/94/94 95/95/95 92/92/92
f 96/96/96 95/95/95 82/82/82
f 96/96/96 97/97/97 98/98/98
f 96/96/96 98/98/98 92/92/92
f 95/95/95 94/94/94 100/100/100
f 85/85/85 82/82/82 95/95/95
f 100/100/100 85/85/85 95/95/95
f 86/86/86 85/85/85 100/100/100
f 86/86/86 101/101/101 102/102/102
f 87/87/87 102/102/102 103/103/103
f 89/89/89 88/88/88 103/103/103
f 90/90/90 89/89/89 104/104/104
f 106/106/106 90/90/90 105/105/105
f 109/109/109 110/110/110 107/107/107
f 107/107/107 94/94/94 93/93/93
f 108/108/108 93/93/93 111/111/111
f 111/111/111 93/93/93 112/112/112
f 111/111/111 113/113/113 108/108/108
f 113/113/113 126/126/126 109/109/109
f 107/107/107 110/110/110 114/114/114
f 100/100/100 94/94/94 107/107/107
f 114/114/114 100/100/100 107/107/107
f 101/101/101 100/100/100 114/114/114
f 102/102/102 101/101/101 115/115/115
f 103/103/103 102/102/102 116/116/116
f 104/104/104 103/103/103 117/117/117
f 104/104/104 118/118/118 119/119/119
f 120/120/120 105/105/105 119/119/119
f 122/122/122 139/139/139 123/123/123
f 123/123/123 124/124/124 121/121/121
f 124/124/124 110/110/110 125/125/125
f 110/110/110 109/109/109 125/125/125
f 125/125/125 109/109/109 126/126/126
f 122/122/122 121/121/121 127/127/127
f 124/124/124 123/123/123 128/128/128
f 114/114/114 110/110/110 124/124/124
f 128/128/128 114/114/114 124/124/124
f 115/115/115 114/114/114 128/128/128
f 115/115/115 129/129/129 130/130/130
f 116/116/116 130/130/130 131/131/131
f 117/117/117 131/131/131 132/132/132
f 119/119/119 118/118/118 132/132/132
f 134/134/134 119/119/119 133/133/133
f 137/137/137 138/138/138 135/135/135
f 139/139/139 135/135/135 138/138/138
f 138/138/138 123/123/123 139/139/139
f 138/138/138 137/137/137 140/140/140
f 128/128/128 123/123/123 138/138/138
f 140/140/140 128/128/128 138/138/138
f 129/129/129 128/128/128 140/140/140
f 129/129/129 141/141/141 142/142/142
f 130/130/130 142/142/142 143/143/143
f 131/131/131 143/143/143 144/144/144
f 133/133/133 132/132/132 144/144/144
f 146/146/146 133/133/133 145/145/145
f 149/149/149 150/150/150 147/147/147
f 148/148/148 147/147/147 137/137/137
f 148/148/148 136/136/136 151/151/151
f 149/149/149 148/148/148 152/152/152
f 147/147/147 150/150/150 153/153/153
f 140/140/140 137/137/137 147/147/147
f 153/153/153 140/140/140 147/147/147
f 141/141/141 140/140/140 153/153/153
f 142/142/142 141/141/141 154/154/154
f 143/143/143 142/142/142 155/155/155
f 144/144/144 143/143/143 156/156/156
f 145/145/145 144/144/144 157/157/157
f 159/159/159 145/145/145 158/158/158
f 160/160/160 161/161/161 150/150/150
f 149/149/149 162/162/162 160/160/160
f 163/163/163 164/164/164 165/165/165
f 1/1/1 165/165/165 164/164/164
f 43/43/43 26/26/26 30/30/30
f 167/167/167 2/2/2 166/166/166
f 168/168/168 29/29/29 169/169/169
f 2/2/2 1/1/1 166/166/166
f 71/71/71 84/84/84 67/67/67
f 170/170/170 70/70/70 58/58/58
f 9/9/9 2/2/2 167/167/167
f 25/25/25 168/168/168 30/30/30
f 6/6/6 169/169/169 29/29/29
f 163/163/163 165/165/165 171/171/171
f 13/13/13 172/172/172 4/4/4
f 165/165/165 1/1/1 4/4/4
f 171/171/171 165/165/165 4/4/4
f 4/4/4 172/172/172 171/171/171
f 174/174/174 15/15/15 17/17/17
f 172/172/172 13/13/13 15/15/15
f 176/176/176 19/19/19 21/21/21
f 177/177/177 178/178/178 23/23/23
f 178/178/178 175/175/175 23/23/23
f 173/173/173 17/17/17 19/19/19
f 13/13/13 4/4/4 3/3/3
f 29/29/29 168/168/168 25/25/25
f 70/70/70 170/170/170 66/66/66
f 180/180/180 81/81/81 80/80/80
f 97/97/97 81/81/81 180/180/180
f 112/112/112 92/92/92 99/99/99
f 112/112/112 93/93/93 92/92/92
f 181/181/181 160/160/160 162/162/162
f 151/151/151 135/135/135 182/182/182
f 148/148/148 151/151/151 152/152/152
f 183/183/183 181/181/181 184/184/184
f 121/121/121 185/185/185 127/127/127
f 80/80/80 83/83/83 179/179/179
f 185/185/185 121/121/121 125/125/125
f 185/185/185 125/125/125 126/126/126
f 182/182/182 135/135/135 139/139/139
f 182/182/182 122/122/122 127/127/127
f 135/135/135 151/151/151 136/136/136
f 186/186/186 162/162/162 149/149/149
f 149/149/149 152/152/152 186/186/186
f 139/139/139 122/122/122 182/182/182
f 161/161/161 153/153/153 150/150/150
f 187/187/187 191/191/191 155/155/155
f 188/188/188 187/187/187 154/154/154
f 189/189/189 190/190/190 157/157/157
f 158/158/158 157/157/157 190/190/190
f 191/191/191 189/189/189 156/156/156
f 192/192/192 161/161/161 183/183/183
f 160/160/160 183/183/183 161/161/161
f 183/183/183 160/160/160 181/181/181
f 153/153/153 161/161/161 188/188/188
f 161/161/161 192/192/192 188/188/188
f 183/183/183 184/184/184 192/192/192
f 193/193/193 194/194/194 195/195/195
f 195/195/195 194/194/194 196/196/196
f 197/197/197 198/198/198 199/199/199
f 200/200/200 198/198/198 195/195/195
f 198/198/198 200/200/200 199/199/199
f 201/201/201 202/202/202 199/199/199
f 205/205/205 208/208/208 204/204/204
f 206/206/206 205/205/205 204/204/204
f 204/204/204 207/207/207 206/206/206
f 209/209/209 210/210/210 211/211/211
f 203/203/203 208/208/208 210/210/210
f 210/210/210 212/212/212 211/211/211
f 213/213/213 214/214/214 215/215/215
f 216/216/216 215/215/215 214/214/214
f 216/216/216 214/214/214 211/211/211
f 217/217/217 218/218/218 219/219/219
f 218/218/218 213/213/213 220/220/220
f 218/218/218 220/220/220 219/219/219
f 217/217/217 219/219/219 222/222/222
f 222/222/222 223/223/223 221/221/221
f 226/226/226 443/443/443 225/225/225
f 228/228/228 226/226/226 225/225/225
f 231/231/231 236/236/236 229/229/229
f 234/234/234 235/235/235 232/232/232
f 235/235/235 231/231/231 230/230/230
f 236/236/236 228/228/228 227/227/227
f 237/237/237 240/240/240 238/238/238
f 240/240/240 234/234/234 233/233/233
f 208/208/208 205/205/205 206/206/206
f 196/196/196 194/194/194 239/239/239
f 198/198/198 197/197/197 193/193/193
f 193/193/193 237/237/237 194/194/194
f 202/202/202 207/207/207 197/197/197
f 203/203/203 207/207/207 204/204/204
f 203/203/203 210/210/210 209/209/209
f 213/213/213 218/218/218 241/241/241
f 214/214/214 213/213/213 241/241/241
f 209/209/209 214/214/214 241/241/241
f 241/241/241 218/218/218 217/217/217
f 223/223/223 243/243/243 221/221/221
f 217/217/217 221/221/221 242/242/242
f 244/244/244 245/245/245 246/246/246
f 247/247/247 244/244/244 246/246/246
f 248/248/248 249/249/249 250/250/250
f 250/250/250 251/251/251 248/248/248
f 251/251/251 283/283/283 247/247/247
f 253/253/253 249/249/249 254/254/254
f 253/253/253 250/250/250 249/249/249
f 255/255/255 256/256/256 257/257/257
f 258/258/258 255/255/255 257/257/257
f 255/255/255 252/252/252 256/256/256
f 252/252/252 254/254/254 256/256/256
f 259/259/259 284/284/284 258/258/258
f 260/260/260 261/261/261 262/262/262
f 263/263/263 264/264/264 261/261/261
f 267/267/267 292/292/292 265/265/265
f 260/260/260 262/262/262 268/268/268
f 265/265/265 260/260/260 268/268/268
f 271/271/271 293/293/293 270/270/270
f 266/266/266 271/271/271 270/270/270
f 270/270/270 267/267/267 266/266/266
f 273/273/273 275/275/275 274/274/274
f 278/278/278 279/279/279 276/276/276
f 273/273/273 276/276/276 279/279/279
f 279/279/279 275/275/275 273/273/273
f 274/274/274 298/298/298 280/280/280
f 245/245/245 244/244/244 282/282/282
f 244/244/244 247/247/247 283/283/283
f 281/281/281 244/244/244 283/283/283
f 253/253/253 251/251/251 250/250/250
f 252/252/252 255/255/255 258/258/258
f 284/284/284 259/259/259 263/263/263
f 263/263/263 261/261/261 285/285/285
f 285/285/285 261/261/261 260/260/260
f 286/286/286 287/287/287 288/288/288
f 290/290/290 297/297/297 289/289/289
f 278/278/278 289/289/289 291/291/291
f 260/260/260 265/265/265 292/292/292
f 286/286/286 294/294/294 293/293/293
f 289/289/289 295/295/295 290/290/290
f 295/295/295 296/296/296 290/290/290
f 289/289/289 278/278/278 295/295/295
f 278/278/278 291/291/291 279/279/279
f 298/298/298 274/274/274 275/275/275
f 299/299/299 300/300/300 298/298/298
f 300/300/300 273/273/273 272/272/272
f 301/301/301 299/299/299 302/302/302
f 279/279/279 291/291/291 275/275/275
f 300/300/300 272/272/272 280/280/280
f 270/270/270 269/269/269 267/267/267
f 296/296/296 297/297/297 290/290/290
f 273/273/273 277/277/277 276/276/276
f 296/296/296 295/295/295 277/277/277
f 288/288/288 287/287/287 297/297/297
f 300/300/300 299/299/299 301/301/301
f 285/285/285 260/260/260 292/292/292
f 304/304/304 359/359/359 305/305/305
f 307/307/307 304/304/304 303/303/303
f 307/307/307 306/306/306 308/308/308
f 311/311/311 309/309/309 308/308/308
f 311/311/311 310/310/310 312/312/312
f 315/315/315 313/313/313 312/312/312
f 316/316/316 315/315/315 314/314/314
f 303/303/303 305/305/305 318/318/318
f 306/306/306 303/303/303 317/317/317
f 306/306/306 319/319/319 320/320/320
f 310/310/310 308/308/308 320/320/320
f 312/312/312 310/310/310 321/321/321
f 314/314/314 312/312/312 322/322/322
f 324/324/324 314/314/314 323/323/323
f 318/318/318 333/333/333 325/325/325
f 319/319/319 317/317/317 325/325/325
f 319/319/319 326/326/326 327/327/327
f 321/321/321 320/320/320 327/327/327
f 321/321/321 328/328/328 329/329/329
f 322/322/322 329/329/329 330/330/330
f 331/331/331 323/323/323 330/330/330
f 333/333/333 341/341/341 332/332/332
f 326/326/326 325/325/325 332/332/332
f 327/327/327 326/326/326 334/334/334
f 327/327/327 335/335/335 336/336/336
f 328/328/328 336/336/336 337/337/337
f 329/329/329 337/337/337 338/338/338
f 339/339/339 330/330/330 338/338/338
f 341/341/341 349/349/349 340/340/340
f 332/332/332 340/340/340 342/342/342
f 334/334/334 342/342/342 343/343/343
f 336/336/336 335/335/335 343/343/343
f 337/337/337 336/336/336 344/344/344
f 337/337/337 345/345/345 346/346/346
f 347/347/347 338/338/338 346/346/346
f 349/349/349 377/377/377 348/348/348
f 342/342/342 340/340/340 348/348/348
f 342/342/342 350/350/350 351/351/351
f 344/344/344 343/343/343 351/351/351
f 344/344/344 352/352/352 353/353/353
f 346/346/346 345/345/345 353/353/353
f 355/355/355 346/346/346 354/354/354
f 356/356/356 357/357/357 358/358/358
f 359/359/359 358/358/358 360/360/360
f 356/356/356 358/358/358 359/359/359
f 361/361/361 359/359/359 360/360/360
f 305/305/305 359/359/359 361/361/361
f 304/304/304 367/367/367 356/356/356
f 305/305/305 362/362/362 363/363/363
f 318/318/318 363/363/363 364/364/364
f 318/318/318 305/305/305 363/363/363
f 333/333/333 318/318/318 365/365/365
f 318/318/318 364/364/364 365/365/365
f 367/367/367 304/304/304 307/307/307
f 366/366/366 307/307/307 309/309/309
f 370/370/370 311/311/311 313/313/313
f 371/371/371 372/372/372 315/315/315
f 369/369/369 313/313/313 315/315/315
f 368/368/368 309/309/309 311/311/311
f 341/341/341 373/373/373 374/374/374
f 341/341/341 374/374/374 375/375/375
f 333/333/333 373/373/373 341/341/341
f 349/349/349 341/341/341 375/375/375
f 376/376/376 373/373/373 333/333/333
f 377/377/377 378/378/378 379/379/379
f 377/377/377 379/379/379 380/380/380
f 377/377/377 349/349/349 378/378/378
f 380/380/380 381/381/381 377/377/377
f 380/380/380 382/382/382 381/381/381
f 383/383/383 378/378/378 349/349/349
f 381/381/381 384/384/384 348/348/348
f 384/384/384 385/385/385 350/350/350
f 385/385/385 389/389/389 351/351/351
f 386/386/386 388/388/388 353/353/353
f 355/355/355 354/354/354 387/387/387
f 388/388/388 387/387/387 354/354/354
f 389/389/389 386/386/386 352/352/352
f 390/390/390 393/393/393 395/395/395
f 396/396/396 403/403/403 395/395/395
f 399/399/399 403/403/403 396/396/396
f 393/393/393 390/390/390 404/404/404
f 390/390/390 405/405/405 407/407/407
f 408/408/408 391/391/391 406/406/406
f 403/403/403 410/410/410 412/412/412
f 412/412/412 405/405/405 403/403/403
f 409/409/409 414/414/414 416/416/416
f 405/405/405 390/390/390 403/403/403
f 393/393/393 417/417/417 419/419/419
f 420/420/420 415/415/415 402/402/402
f 411/411/411 401/401/401 413/413/413
f 393/393/393 422/422/422 423/423/423
f 424/424/424 425/425/425 423/423/423
f 395/395/395 425/425/425 426/426/426
f 421/421/421 392/392/392 418/418/418
f 403/403/403 399/399/399 428/428/428
f 429/429/429 430/430/430 403/403/403
f 428/428/428 431/431/431 429/429/429
f 403/403/403 428/428/428 429/429/429
f 395/395/395 393/393/393 423/423/423
f 432/432/432 396/396/396 395/395/395
f 425/425/425 395/395/395 423/423/423
f 397/397/397 433/433/433 434/434/434
f 435/435/435 437/437/437 400/400/400
f 399/399/399 436/436/436 428/428/428
f 438/438/438 435/435/435 400/400/400
f 439/439/439 399/399/399 396/396/396
f 440/440/440 398/398/398 441/441/441
f 394/394/394 427/427/427 442/442/442
f 55/55/55 58/58/58 70/70/70
f 96/96/96 81/81/81 97/97/97
f 175/175/175 21/21/21 23/23/23
f 207/207/207 202/202/202 206/206/206
f 206/206/206 202/202/202 201/201/201
f 263/263/263 259/259/259 264/264/264
f 277/277/277 295/295/295 278/278/278
f 263/263/263 285/285/285 284/284/284
f 286/286/286 288/288/288 294/294/294
f 305/305/305 361/361/361 362/362/362
f 333/333/333 365/365/365 376/376/376
f 349/349/349 375/375/375 383/383/383
f 3/3/3 1/1/1 2/2/2
f 7/7/7 5/5/5 6/6/6
f 10/10/10 5/5/5 9/9/9
f 11/11/11 6/6/6 5/5/5
f 13/13/13 14/14/14 15/15/15
f 15/15/15 16/16/16 17/17/17
f 17/17/17 18/18/18 19/19/19
f 19/19/19 20/20/20 21/21/21
f 23/23/23 20/20/20 22/22/22
f 27/27/27 25/25/25 26/26/26
f 14/14/14 31/31/31 32/32/32
f 16/16/16 32/32/32 33/33/33
f 16/16/16 34/34/34 18/18/18
f 18/18/18 35/35/35 20/20/20
f 20/20/20 36/36/36 22/22/22
f 42/42/42 27/27/27 26/26/26
f 43/43/43 38/38/38 42/42/42
f 44/44/44 39/39/39 38/38/38
f 32/32/32 46/46/46 47/47/47
f 32/32/32 48/48/48 33/33/33
f 33/33/33 49/49/49 34/34/34
f 35/35/35 49/49/49 50/50/50
f 35/35/35 51/51/51 36/36/36
f 55/55/55 53/53/53 54/54/54
f 53/53/53 39/39/39 54/54/54
f 46/46/46 60/60/60 47/47/47
f 47/47/47 61/61/61 48/48/48
f 49/49/49 61/61/61 62/62/62
f 50/50/50 62/62/62 63/63/63
f 51/51/51 63/63/63 64/64/64
f 68/68/68 66/66/66 67/67/67
f 70/70/70 56/56/56 55/55/55
f 66/66/66 71/71/71 67/67/67
f 59/59/59 73/73/73 60/60/60
f 60/60/60 74/74/74 61/61/61
f 62/62/62 74/74/74 75/75/75
f 62/62/62 76/76/76 63/63/63
f 64/64/64 76/76/76 77/77/77
f 81/81/81 79/79/79 80/80/80
f 72/72/72 86/86/86 73/73/73
f 74/74/74 86/86/86 87/87/87
f 75/75/75 87/87/87 88/88/88
f 75/75/75 89/89/89 76/76/76
f 76/76/76 90/90/90 77/77/77
f 96/96/96 82/82/82 81/81/81
f 98/98/98 99/99/99 92/92/92
f 86/86/86 100/100/100 101/101/101
f 86/86/86 102/102/102 87/87/87
f 87/87/87 103/103/103 88/88/88
f 89/89/89 103/103/103 104/104/104
f 90/90/90 104/104/104 105/105/105
f 109/109/109 107/107/107 108/108/108
f 107/107/107 93/93/93 108/108/108
f 113/113/113 109/109/109 108/108/108
f 101/101/101 114/114/114 115/115/115
f 102/102/102 115/115/115 116/116/116
f 103/103/103 116/116/116 117/117/117
f 104/104/104 117/117/117 118/118/118
f 104/104/104 119/119/119 105/105/105
f 122/122/122 123/123/123 121/121/121
f 124/124/124 125/125/125 121/121/121
f 115/115/115 128/128/128 129/129/129
f 115/115/115 130/130/130 116/116/116
f 116/116/116 131/131/131 117/117/117
f 117/117/117 132/132/132 118/118/118
f 119/119/119 132/132/132 133/133/133
f 137/137/137 135/135/135 136/136/136
f 129/129/129 140/140/140 141/141/141
f 129/129/129 142/142/142 130/130/130
f 130/130/130 143/143/143 131/131/131
f 131/131/131 144/144/144 132/132/132
f 133/133/133 144/144/144 145/145/145
f 149/149/149 147/147/147 148/148/148
f 148/148/148 137/137/137 136/136/136
f 141/141/141 153/153/153 154/154/154
f 142/142/142 154/154/154 155/155/155
f 143/143/143 155/155/155 156/156/156
f 144/144/144 156/156/156 157/157/157
f 145/145/145 157/157/157 158/158/158
f 160/160/160 150/150/150 149/149/149
f 1/1/1 164/164/164 166/166/166
f 9/9/9 167/167/167 10/10/10
f 174/174/174 17/17/17 173/173/173
f 172/172/172 15/15/15 174/174/174
f 176/176/176 21/21/21 175/175/175
f 173/173/173 19/19/19 176/176/176
f 180/180/180 80/80/80 179/179/179
f 83/83/83 84/84/84 179/179/179
f 187/187/187 155/155/155 154/154/154
f 188/188/188 154/154/154 153/153/153
f 189/189/189 157/157/157 156/156/156
f 191/191/191 156/156/156 155/155/155
f 198/198/198 193/193/193 195/195/195
f 202/202/202 197/197/197 199/199/199
f 208/208/208 203/203/203 204/204/204
f 208/208/208 212/212/212 210/210/210
f 214/214/214 209/209/209 211/211/211
f 217/217/217 222/222/222 221/221/221
f 443/443/443 224/224/224 225/225/225
f 228/228/228 225/225/225 227/227/227
f 231/231/231 229/229/229 230/230/230
f 234/234/234 232/232/232 233/233/233
f 235/235/235 230/230/230 232/232/232
f 236/236/236 227/227/227 229/229/229
f 237/237/237 238/238/238 239/239/239
f 240/240/240 233/233/233 238/238/238
f 194/194/194 237/237/237 239/239/239
f 243/243/243 242/242/242 221/221/221
f 251/251/251 247/247/247 248/248/248
f 253/253/253 254/254/254 252/252/252
f 259/259/259 258/258/258 257/257/257
f 267/267/267 265/265/265 266/266/266
f 293/293/293 269/269/269 270/270/270
f 273/273/273 274/274/274 272/272/272
f 278/278/278 276/276/276 277/277/277
f 274/274/274 280/280/280 272/272/272
f 244/244/244 281/281/281 282/282/282
f 297/297/297 287/287/287 289/289/289
f 294/294/294 269/269/269 293/293/293
f 300/300/300 280/280/280 298/298/298
f 304/304/304 305/305/305 303/303/303
f 307/307/307 303/303/303 306/306/306
f 307/307/307 308/308/308 309/309/309
f 311/311/311 308/308/308 310/310/310
f 311/311/311 312/312/312 313/313/313
f 315/315/315 312/312/312 314/314/314
f 303/303/303 318/318/318 317/317/317
f 306/306/306 317/317/317 319/319/319
f 306/306/306 320/320/320 308/308/308
f 310/310/310 320/320/320 321/321/321
f 312/312/312 321/321/321 322/322/322
f 314/314/314 322/322/322 323/323/323
f 318/318/318 325/325/325 317/317/317
f 319/319/319 325/325/325 326/326/326
f 319/319/319 327/327/327 320/320/320
f 321/321/321 327/327/327 328/328/328
f 321/321/321 329/329/329 322/322/322
f 322/322/322 330/330/330 323/323/323
f 333/333/333 332/332/332 325/325/325
f 326/326/326 332/332/332 334/334/334
f 327/327/327 334/334/334 335/335/335
f 327/327/327 336/336/336 328/328/328
f 328/328/328 337/337/337 329/329/329
f 329/329/329 338/338/338 330/330/330
f 341/341/341 340/340/340 332/332/332
f 332/332/332 342/342/342 334/334/334
f 334/334/334 343/343/343 335/335/335
f 336/336/336 343/343/343 344/344/344
f 337/337/337 344/344/344 345/345/345
f 337/337/337 346/346/346 338/338/338
f 349/349/349 348/348/348 340/340/340
f 342/342/342 348/348/348 350/350/350
f 342/342/342 351/351/351 343/343/343
f 344/344/344 351/351/351 352/352/352
f 344/344/344 353/353/353 345/345/345
f 346/346/346 353/353/353 354/354/354
f 304/304/304 356/356/356 359/359/359
f 367/367/367 307/307/307 366/366/366
f 366/366/366 309/309/309 368/368/368
f 370/370/370 313/313/313 369/369/369
f 369/369/369 315/315/315 372/372/372
f 368/368/368 311/311/311 370/370/370
f 381/381/381 348/348/348 377/377/377
f 384/384/384 350/350/350 348/348/348
f 385/385/385 351/351/351 350/350/350
f 386/386/386 353/353/353 352/352/352
f 388/388/388 354/354/354 353/353/353
f 389/389/389 352/352/352 351/351/351
f 403/403/403 390/390/390 395/395/395

