mtllib material.mtl
usemtl Material-7011塑胶.003
v -0.37261400 -0.02557300 0.03590800
v -0.37261400 -0.02557300 0.03590800
v -0.37261400 -0.02557300 0.03590800
v -0.37158800 -0.02780700 0.03415100
v -0.37158800 -0.02780700 0.03415100
v -0.37158800 -0.02780700 0.03415100
v -0.37324300 -0.02307900 0.03698600
v -0.37324300 -0.02307900 0.03698600
v -0.37069400 -0.02908000 0.03261800
v -0.37069400 -0.02908000 0.03261800
v -0.36905600 -0.01128600 0.02979600
v -0.36905600 -0.01128600 0.02979600
v -0.36905600 -0.01128600 0.02979600
v -0.37297300 -0.02436700 0.03652300
v -0.37213800 -0.02675900 0.03509400
v -0.37346800 -0.02115900 0.03736500
v -0.37347700 -0.01280400 0.03737800
v -0.37230100 -0.01275300 0.03536100
v -0.37067000 -0.01235200 0.03256500
v -0.36596300 -0.03362500 0.02451000
v -0.36596300 -0.03362500 0.02451000
v -0.36596300 -0.03362500 0.02451000
v -0.36733000 -0.00914900 0.02683400
v -0.36733000 -0.00914900 0.02683400
v -0.36598100 -0.00612600 0.02451900
v -0.37263700 0.02556800 0.03590800
v -0.37263700 0.02556800 0.03590800
v -0.37263700 0.02556800 0.03590800
v -0.37263700 0.02556800 0.03590800
v -0.37326500 0.02307500 0.03698600
v -0.37326500 0.02307500 0.03698600
v -0.37348600 0.02115700 0.03736700
v -0.37348600 0.02115700 0.03736700
v -0.37161400 0.02780300 0.03415100
v -0.37161400 0.02780300 0.03415100
v -0.37161400 0.02780300 0.03415100
v -0.37247600 0.01271200 0.03564100
v -0.37247600 0.01271200 0.03564100
v -0.37247600 0.01271200 0.03564100
v -0.37348800 0.01273700 0.03737800
v -0.37299600 0.02436300 0.03652300
v -0.37216300 0.02675500 0.03509400
v -0.37095600 0.01246100 0.03303500
v -0.37095600 0.01246100 0.03303500
v -0.36906700 0.01128400 0.02979700
v -0.36734000 0.00915000 0.02683700
v -0.36734000 0.00915000 0.02683700
v -0.36598900 0.00613100 0.02452300
v -0.36600700 0.03360800 0.02453200
v -0.36600700 0.03360800 0.02453200
v -0.37072100 0.02907500 0.03261800
v -0.37072100 0.02907500 0.03261800
v -0.37107700 0.01119500 0.02927300
v -0.36948500 0.01077000 0.02920300
v -0.37070200 0.01179800 0.03131600
v -0.37247600 0.01271200 0.03564100
v -0.37472600 0.01275100 0.03552900
v -0.37302500 0.01243300 0.03261300
v -0.37348800 0.01273700 0.03737800
v -0.37578800 0.01268300 0.03736800
v -0.37184200 0.01243300 0.03351800
v -0.36975000 0.00967400 0.02700000
v -0.36827500 0.00679900 0.02447100
v -0.36726400 0.00721900 0.02541300
v -0.36894300 0.00837900 0.02561600
v -0.36772000 0.00838800 0.02630400
v -0.36644500 0.00476100 0.02405200
v -0.36758000 0.00459700 0.02328600
v -0.36691600 0.00617700 0.02475600
v -0.36860600 0.00970800 0.02770800
v -0.36758000 0.00459700 0.02328600
v -0.36739200 0.00348600 0.02299400
v -0.36642100 0.00340800 0.02361200
v -0.36723800 0.00165000 0.02276700
v -0.36644500 0.00476100 0.02405200
v -0.36644200 -0.00097700 0.02325000
v -0.36645700 0.00106900 0.02326300
v -0.36721000 -0.00094300 0.02272800
v -0.36638200 -0.00346700 0.02362200
v -0.36736400 -0.00342500 0.02295600
v -0.36757700 -0.00470500 0.02328600
v -0.36835400 -0.00712600 0.02461800
v -0.36685600 -0.00626500 0.02478600
v -0.36757700 -0.00470500 0.02328600
v -0.36638900 -0.00463600 0.02399600
v -0.36719100 -0.00730200 0.02544600
v -0.37006200 -0.01018200 0.02755100
v -0.36772200 -0.00866500 0.02650500
v -0.36912500 -0.00880700 0.02594300
v -0.37109100 -0.01126800 0.02931600
v -0.36887700 -0.01029900 0.02843300
v -0.37218700 -0.01206500 0.03119600
v -0.36993700 -0.01138800 0.03025700
v -0.37119100 -0.01233300 0.03279800
v -0.37460300 -0.01281700 0.03534000
v -0.37230100 -0.01275300 0.03536100
v -0.37332500 -0.01257600 0.03314700
v -0.37347700 -0.01280400 0.03737800
v -0.37578500 -0.01275300 0.03737600
v -0.36019200 -0.03720400 0.01790800
v -0.36065100 -0.03711200 0.01874600
v -0.36226900 -0.03691000 0.01863400
v -0.36205200 0.03685300 0.01855500
v -0.36069700 0.03706000 0.01883000
v -0.36019800 0.03707000 0.01791600
v -0.36359000 0.03640300 0.01931600
v -0.37460300 -0.01281700 0.03534000
v -0.37554900 -0.02280300 0.03697000
v -0.37554900 -0.02280300 0.03697000
v -0.37554900 -0.02280300 0.03697000
v -0.37578500 -0.01275300 0.03737600
v -0.37574000 -0.02075100 0.03735400
v -0.37332500 -0.01257600 0.03314700
v -0.37332500 -0.01257600 0.03314700
v -0.37261000 -0.02905900 0.03193400
v -0.37261000 -0.02905900 0.03193400
v -0.37261000 -0.02905900 0.03193400
v -0.37261000 -0.02905900 0.03193400
v -0.37390500 -0.02738200 0.03415400
v -0.37390500 -0.02738200 0.03415400
v -0.37390500 -0.02738200 0.03415400
v -0.37445500 -0.02633000 0.03509600
v -0.37493000 -0.02514000 0.03590900
v -0.37493000 -0.02514000 0.03590900
v -0.37493000 -0.02514000 0.03590900
v -0.37329200 -0.02828700 0.03310300
v -0.37218700 -0.01206500 0.03119600
v -0.37218700 -0.01206500 0.03119600
v -0.37109100 -0.01126800 0.02931600
v -0.37109100 -0.01126800 0.02931600
v -0.36769100 -0.03380600 0.02350200
v -0.36757700 -0.00470500 0.02328600
v -0.36757700 -0.00470500 0.02328600
v -0.36835400 -0.00712600 0.02461800
v -0.36835400 -0.00712600 0.02461800
v -0.36912500 -0.00880700 0.02594300
v -0.37006200 -0.01018200 0.02755100
v -0.37006200 -0.01018200 0.02755100
v -0.36626400 -0.03128300 0.02156500
v -0.36696800 0.00722600 0.02237300
v -0.36630100 0.03084700 0.02158100
v -0.36704900 -0.01015300 0.02250400
v -0.36452700 0.01221300 0.01998000
v -0.36451100 -0.01260000 0.01997200
v -0.36546100 -0.03120700 0.02075600
v -0.36550200 0.03082200 0.02077700
v -0.36449600 0.03403000 0.01995000
v -0.36339300 -0.03271300 0.01922300
v -0.36472600 -0.03584500 0.02013300
v -0.36242900 -0.01296900 0.01873100
v -0.36226900 -0.03691000 0.01863400
v -0.36130600 -0.02497800 0.01826600
v -0.36019200 -0.03720400 0.01790800
v -0.36244200 0.01267300 0.01873800
v -0.36205200 0.03685300 0.01855500
v -0.36019800 0.03707000 0.01791600
v -0.36133900 0.02454600 0.01828300
v -0.36359000 0.03640300 0.01931600
v -0.36757700 -0.00470500 0.02328600
v -0.36736400 -0.00342500 0.02295600
v -0.36769100 -0.03380600 0.02350200
v -0.36721000 -0.00094300 0.02272800
v -0.36723800 0.00165000 0.02276700
v -0.36739200 0.00348600 0.02299400
v -0.36758000 0.00459700 0.02328600
v -0.36773500 0.03378900 0.02352400
v -0.36020800 0.00454700 0.01793900
v -0.36020900 -0.01709100 0.01794000
v -0.36020900 0.01846400 0.01794100
v -0.37495300 0.02513600 0.03590900
v -0.37495300 0.02513600 0.03590900
v -0.37495300 0.02513600 0.03590900
v -0.37472600 0.01275100 0.03552900
v -0.37472600 0.01275100 0.03552900
v -0.37553300 0.02295400 0.03691000
v -0.37553300 0.02295400 0.03691000
v -0.37263700 0.02905400 0.03193400
v -0.37263700 0.02905400 0.03193400
v -0.37263700 0.02905400 0.03193400
v -0.37263700 0.02905400 0.03193400
v -0.37263700 0.02905400 0.03193400
v -0.37263700 0.02905400 0.03193400
v -0.37302500 0.01243300 0.03261300
v -0.37302500 0.01243300 0.03261300
v -0.37302500 0.01243300 0.03261300
v -0.36975000 0.00967400 0.02700000
v -0.37107700 0.01119500 0.02927300
v -0.36894300 0.00837900 0.02561600
v -0.36894300 0.00837900 0.02561600
v -0.36827500 0.00679900 0.02447100
v -0.36827500 0.00679900 0.02447100
v -0.36758000 0.00459700 0.02328600
v -0.36758000 0.00459700 0.02328600
v -0.37393000 0.02737700 0.03415400
v -0.37393000 0.02737700 0.03415400
v -0.37393000 0.02737700 0.03415400
v -0.37447900 0.02632500 0.03509600
v -0.37331800 0.02828200 0.03310300
v -0.36773500 0.03378900 0.02352400
v -0.36478700 -0.00096000 0.02288500
v -0.36515500 -0.00321600 0.02332300
v -0.36517600 -0.02155600 0.02336300
v -0.36411700 -0.01417300 0.02223300
v -0.36484000 0.00130100 0.02293900
v -0.36413600 0.01508300 0.02224300
v -0.36520600 0.02246800 0.02337900
v -0.36515800 0.00321200 0.02332300
v -0.36293200 -0.02148800 0.02130700
v -0.36410800 -0.02880100 0.02222900
v -0.36294200 -0.00686000 0.02131200
v -0.36295200 0.00777100 0.02131700
v -0.36596300 -0.03362500 0.02451000
v -0.36598100 -0.00612600 0.02451900
v -0.36261000 -0.03573600 0.02108500
v -0.36598900 0.00613100 0.02452300
v -0.36600700 0.03360800 0.02453200
v -0.36414600 0.02971100 0.02224800
v -0.36165500 -0.01400500 0.02057900
v -0.36165300 -0.03611700 0.02057500
v -0.36165300 -0.00000000 0.02057500
v -0.36165300 0.01338700 0.02057600
v -0.36296100 0.02239500 0.02132100
v -0.36164000 0.03612800 0.02054900
v -0.36268600 0.03570100 0.02113400
v -0.36165300 0.02257300 0.02057600
v -0.37346800 -0.02115900 0.03736500
v -0.37574000 -0.02075100 0.03735400
v -0.37554900 -0.02280300 0.03697000
v -0.37324300 -0.02307900 0.03698600
v -0.37493000 -0.02514000 0.03590900
v -0.37297300 -0.02436700 0.03652300
v -0.37445500 -0.02633000 0.03509600
v -0.37261400 -0.02557300 0.03590800
v -0.37390500 -0.02738200 0.03415400
v -0.37213800 -0.02675900 0.03509400
v -0.37329200 -0.02828700 0.03310300
v -0.37158800 -0.02780700 0.03415100
v -0.37261000 -0.02905900 0.03193400
v -0.37069400 -0.02908000 0.03261800
v -0.36065100 -0.03711200 0.01874600
v -0.36261000 -0.03573600 0.02108500
v -0.36261000 -0.03573600 0.02108500
v -0.36226900 -0.03691000 0.01863400
v -0.36226900 -0.03691000 0.01863400
v -0.36769100 -0.03380600 0.02350200
v -0.36596300 -0.03362500 0.02451000
v -0.37069400 -0.02908000 0.03261800
v -0.36472600 -0.03584500 0.02013300
v -0.37261000 -0.02905900 0.03193400
v -0.36165300 -0.03611700 0.02057500
v -0.37348600 0.02115700 0.03736700
v -0.37579700 0.02077400 0.03736500
v -0.37578800 0.01268300 0.03736800
v -0.37348800 0.01273700 0.03737800
v -0.37347700 -0.01280400 0.03737800
v -0.37578500 -0.01275300 0.03737600
v -0.37346800 -0.02115900 0.03736500
v -0.37574000 -0.02075100 0.03735400
v -0.36094600 0.02881500 0.01928500
v -0.36094600 0.02881500 0.01928500
v -0.36019800 0.03707000 0.01791600
v -0.36069700 0.03706000 0.01883000
v -0.36069700 0.03706000 0.01883000
v -0.36020800 0.00454700 0.01793900
v -0.36020800 0.00454700 0.01793900
v -0.36020800 0.00454700 0.01793900
v -0.36020900 0.01846400 0.01794100
v -0.36099200 0.01010500 0.01937000
v -0.36099200 0.01010500 0.01937000
v -0.36020900 -0.01709100 0.01794000
v -0.36020900 -0.01709100 0.01794000
v -0.36020900 -0.01709100 0.01794000
v -0.36020900 -0.01709100 0.01794000
v -0.36093000 -0.02703800 0.01925500
v -0.36093000 -0.02703800 0.01925500
v -0.36093000 -0.02703800 0.01925500
v -0.36019200 -0.03720400 0.01790800
v -0.36019200 -0.03720400 0.01790800
v -0.36065100 -0.03711200 0.01874600
v -0.36092900 -0.00413300 0.01925400
v -0.36092900 -0.00413300 0.01925400
v -0.36092900 -0.00413300 0.01925400
v -0.36092900 -0.00413300 0.01925400
v -0.36165300 0.02257300 0.02057600
v -0.36165300 0.02257300 0.02057600
v -0.36164000 0.03612800 0.02054900
v -0.36165300 0.01338700 0.02057600
v -0.36165500 -0.01400500 0.02057900
v -0.36165500 -0.01400500 0.02057900
v -0.36165500 -0.01400500 0.02057900
v -0.36165300 -0.03611700 0.02057500
v -0.36165300 -0.03611700 0.02057500
v -0.36165300 -0.00000000 0.02057500
v -0.36165300 -0.00000000 0.02057500
v -0.37184200 0.01243300 0.03351800
v -0.37095600 0.01246100 0.03303500
v -0.37247600 0.01271200 0.03564100
v -0.37070200 0.01179800 0.03131600
v -0.36906700 0.01128400 0.02979700
v -0.36860600 0.00970800 0.02770800
v -0.36734000 0.00915000 0.02683700
v -0.36948500 0.01077000 0.02920300
v -0.36772000 0.00838800 0.02630400
v -0.36726400 0.00721900 0.02541300
v -0.36598900 0.00613100 0.02452300
v -0.36691600 0.00617700 0.02475600
v -0.36644500 0.00476100 0.02405200
v -0.36515800 0.00321200 0.02332300
v -0.36642100 0.00340800 0.02361200
v -0.36484000 0.00130100 0.02293900
v -0.36645700 0.00106900 0.02326300
v -0.36478700 -0.00096000 0.02288500
v -0.36733000 -0.00914900 0.02683400
v -0.36772200 -0.00866500 0.02650500
v -0.36887700 -0.01029900 0.02843300
v -0.36905600 -0.01128600 0.02979600
v -0.36719100 -0.00730200 0.02544600
v -0.36598100 -0.00612600 0.02451900
v -0.36685600 -0.00626500 0.02478600
v -0.36993700 -0.01138800 0.03025700
v -0.37067000 -0.01235200 0.03256500
v -0.37119100 -0.01233300 0.03279800
v -0.37230100 -0.01275300 0.03536100
v -0.36644200 -0.00097700 0.02325000
v -0.36638900 -0.00463600 0.02399600
v -0.36515500 -0.00321600 0.02332300
v -0.36638200 -0.00346700 0.02362200
v -0.37579700 0.02077400 0.03736500
v -0.37348600 0.02115700 0.03736700
v -0.37553300 0.02295400 0.03691000
v -0.37495300 0.02513600 0.03590900
v -0.37326500 0.02307500 0.03698600
v -0.37299600 0.02436300 0.03652300
v -0.37263700 0.02556800 0.03590800
v -0.37447900 0.02632500 0.03509600
v -0.37393000 0.02737700 0.03415400
v -0.37331800 0.02828200 0.03310300
v -0.37216300 0.02675500 0.03509400
v -0.37161400 0.02780300 0.03415100
v -0.37072100 0.02907500 0.03261800
v -0.37263700 0.02905400 0.03193400
v -0.36359000 0.03640300 0.01931600
v -0.36359000 0.03640300 0.01931600
v -0.36268600 0.03570100 0.02113400
v -0.36069700 0.03706000 0.01883000
v -0.36164000 0.03612800 0.02054900
v -0.36164000 0.03612800 0.02054900
v -0.37263700 0.02905400 0.03193400
v -0.37072100 0.02907500 0.03261800
v -0.36773500 0.03378900 0.02352400
v -0.36600700 0.03360800 0.02453200
v -0.36638900 -0.00463600 0.02399600
v -0.37579700 0.02077400 0.03736500
v -0.37578800 0.01268300 0.03736800
vn 0.86380000 0.00040000 0.50380000
vn 0.86390000 0.00030000 0.50370000
vn 0.86380000 0.00020000 0.50380000
vn 0.86380000 0.00040000 0.50380000
vn 0.86390000 0.00030000 0.50370000
vn 0.86390000 0.00040000 0.50370000
vn 0.86380000 0.00020000 0.50380000
vn 0.86380000 0.00040000 0.50380000
vn 0.86380000 0.00040000 0.50380000
vn 0.86390000 0.00040000 0.50370000
vn 0.86380000 0.00040000 0.50370000
vn 0.86380000 0.00040000 0.50380000
vn 0.86390000 0.00040000 0.50370000
vn 0.86380000 0.00020000 0.50380000
vn 0.86390000 0.00030000 0.50370000
vn 0.86380000 0.00040000 0.50380000
vn 0.86380000 0.00040000 0.50380000
vn 0.86380000 0.00040000 0.50380000
vn 0.86380000 0.00040000 0.50380000
vn 0.86390000 0.00040000 0.50370000
vn 0.86380000 0.00040000 0.50370000
vn 0.86380000 0.00040000 0.50380000
vn 0.86390000 0.00040000 0.50370000
vn 0.86380000 0.00040000 0.50370000
vn 0.86390000 0.00040000 0.50370000
vn 0.86390000 0.00040000 0.50370000
vn 0.86380000 0.00040000 0.50390000
vn 0.86370000 0.00080000 0.50400000
vn 0.86380000 0.00060000 0.50390000
vn 0.86380000 0.00060000 0.50390000
vn 0.86390000 0.00040000 0.50370000
vn 0.86380000 0.00040000 0.50390000
vn 0.86390000 0.00040000 0.50370000
vn 0.86370000 0.00080000 0.50400000
vn 0.86380000 0.00040000 0.50380000
vn 0.86390000 0.00040000 0.50370000
vn 0.86380000 0.00040000 0.50380000
vn 0.86390000 0.00040000 0.50370000
vn 0.86380000 0.00040000 0.50390000
vn 0.86390000 0.00040000 0.50370000
vn 0.86380000 0.00060000 0.50390000
vn 0.86370000 0.00080000 0.50400000
vn 0.86380000 0.00040000 0.50380000
vn 0.86390000 0.00040000 0.50370000
vn 0.86390000 0.00040000 0.50370000
vn 0.86390000 0.00040000 0.50370000
vn 0.86380000 0.00040000 0.50380000
vn 0.86390000 0.00040000 0.50370000
vn 0.86380000 0.00040000 0.50380000
vn 0.86390000 0.00040000 0.50370000
vn 0.86390000 0.00040000 0.50370000
vn 0.86380000 0.00040000 0.50380000
vn -0.20560000 -0.91260000 0.35340000
vn -0.23170000 -0.88760000 0.39810000
vn -0.16020000 -0.94780000 0.27580000
vn -0.03480000 -0.99760000 0.06070000
vn -0.00740000 -0.99990000 0.01370000
vn -0.09680000 -0.98120000 0.16670000
vn 0.01810000 -0.99940000 -0.03010000
vn 0.04840000 -0.99540000 -0.08220000
vn -0.09220000 -0.98300000 0.15880000
vn -0.28860000 -0.81930000 0.49550000
vn -0.40950000 -0.58170000 0.70280000
vn -0.40470000 -0.59460000 0.69470000
vn -0.34360000 -0.73070000 0.58990000
vn -0.34320000 -0.73150000 0.58920000
vn -0.44820000 -0.45650000 0.76860000
vn -0.45180000 -0.44160000 0.77510000
vn -0.41710000 -0.56140000 0.71470000
vn -0.28710000 -0.82130000 0.49300000
vn -0.46880000 -0.44290000 0.76430000
vn -0.53990000 -0.18990000 0.82000000
vn -0.54450000 -0.16270000 0.82280000
vn -0.56750000 -0.09260000 0.81810000
vn -0.47150000 -0.41200000 0.77970000
vn -0.57350000 0.04550000 0.81790000
vn -0.57190000 -0.05480000 0.81850000
vn -0.57260000 0.04840000 0.81840000
vn -0.54590000 0.15440000 0.82350000
vn -0.54460000 0.17630000 0.81990000
vn -0.46700000 0.44950000 0.76150000
vn -0.40780000 0.58770000 0.69880000
vn -0.41870000 0.55810000 0.71640000
vn -0.45370000 0.43420000 0.77820000
vn -0.45450000 0.43100000 0.77950000
vn -0.40530000 0.59420000 0.69480000
vn -0.26810000 0.84700000 0.45900000
vn -0.33450000 0.74800000 0.57320000
vn -0.33030000 0.75540000 0.56600000
vn -0.20490000 0.91380000 0.35070000
vn -0.26230000 0.85410000 0.44910000
vn -0.14210000 0.95940000 0.24340000
vn -0.19760000 0.92010000 0.33820000
vn -0.11730000 0.97260000 0.20060000
vn -0.01320000 0.99970000 0.02180000
vn -0.04330000 0.99640000 0.07340000
vn -0.08050000 0.98720000 0.13740000
vn 0.01820000 0.99930000 -0.03190000
vn 0.04880000 0.99520000 -0.08440000
vn -0.10530000 -0.99410000 0.02400000
vn -0.12380000 -0.99160000 0.03840000
vn -0.17890000 -0.98050000 0.08180000
vn -0.20180000 0.97570000 0.08580000
vn -0.14860000 0.98790000 0.04310000
vn -0.08350000 0.99650000 0.00750000
vn -0.27290000 0.94910000 0.15700000
vn -0.86390000 -0.00040000 -0.50370000
vn -0.86380000 -0.00040000 -0.50380000
vn -0.86390000 -0.00040000 -0.50370000
vn -0.86380000 -0.00040000 -0.50370000
vn -0.86390000 -0.00040000 -0.50370000
vn -0.86380000 -0.00040000 -0.50370000
vn -0.86380000 -0.00040000 -0.50380000
vn -0.86390000 -0.00040000 -0.50370000
vn -0.86380000 -0.00030000 -0.50380000
vn -0.86380000 -0.00040000 -0.50380000
vn -0.86390000 -0.00070000 -0.50370000
vn -0.86390000 -0.00040000 -0.50370000
vn -0.86390000 -0.00070000 -0.50370000
vn -0.86380000 -0.00020000 -0.50390000
vn -0.86390000 -0.00040000 -0.50370000
vn -0.86380000 -0.00020000 -0.50390000
vn -0.86380000 -0.00040000 -0.50380000
vn -0.86380000 -0.00020000 -0.50390000
vn -0.86390000 -0.00040000 -0.50370000
vn -0.86390000 -0.00070000 -0.50370000
vn -0.86380000 -0.00040000 -0.50380000
vn -0.86390000 -0.00040000 -0.50370000
vn -0.86380000 -0.00040000 -0.50380000
vn -0.86390000 -0.00040000 -0.50370000
vn -0.86380000 -0.00030000 -0.50380000
vn -0.86380000 -0.00030000 -0.50380000
vn -0.86380000 -0.00040000 -0.50380000
vn -0.86380000 -0.00040000 -0.50380000
vn -0.86390000 -0.00040000 -0.50370000
vn -0.86390000 -0.00040000 -0.50370000
vn -0.86390000 -0.00040000 -0.50370000
vn -0.86380000 -0.00040000 -0.50380000
vn -0.74040000 -0.00030000 -0.67210000
vn -0.79710000 -0.00030000 -0.60390000
vn -0.74010000 -0.00030000 -0.67250000
vn -0.80570000 -0.00030000 -0.59230000
vn -0.59450000 -0.00010000 -0.80410000
vn -0.59450000 -0.00010000 -0.80410000
vn -0.67330000 -0.00020000 -0.73940000
vn -0.67330000 -0.00020000 -0.73940000
vn -0.59060000 -0.00010000 -0.80700000
vn -0.50440000 -0.00000000 -0.86350000
vn -0.61300000 -0.00020000 -0.79010000
vn -0.42580000 0.00000000 -0.90480000
vn -0.41350000 0.00000000 -0.91050000
vn -0.33480000 0.00010000 -0.94230000
vn -0.24310000 0.00020000 -0.97000000
vn -0.42550000 0.00000000 -0.90500000
vn -0.39230000 0.00000000 -0.91980000
vn -0.23960000 0.00020000 -0.97090000
vn -0.33480000 0.00010000 -0.94230000
vn -0.51600000 -0.00000000 -0.85660000
vn -0.85200000 -0.00040000 -0.52360000
vn -0.83300000 -0.00040000 -0.55330000
vn -0.86390000 -0.00040000 -0.50370000
vn -0.81940000 -0.00030000 -0.57320000
vn -0.82180000 -0.00040000 -0.56980000
vn -0.83520000 -0.00040000 -0.55000000
vn -0.85180000 -0.00040000 -0.52380000
vn -0.86380000 -0.00040000 -0.50380000
vn -0.24220000 0.00020000 -0.97020000
vn -0.24350000 0.00020000 -0.96990000
vn -0.24160000 0.00020000 -0.97040000
vn -0.86390000 -0.00040000 -0.50370000
vn -0.86390000 -0.00030000 -0.50370000
vn -0.86380000 -0.00040000 -0.50370000
vn -0.86390000 -0.00040000 -0.50370000
vn -0.86380000 -0.00040000 -0.50380000
vn -0.86380000 -0.00040000 -0.50380000
vn -0.86390000 -0.00040000 -0.50370000
vn -0.86380000 -0.00050000 -0.50380000
vn -0.86390000 -0.00040000 -0.50370000
vn -0.86380000 -0.00080000 -0.50390000
vn -0.86390000 -0.00030000 -0.50370000
vn -0.86380000 -0.00040000 -0.50370000
vn -0.86380000 -0.00040000 -0.50380000
vn -0.86390000 -0.00040000 -0.50370000
vn -0.86380000 -0.00040000 -0.50370000
vn -0.86380000 -0.00040000 -0.50380000
vn -0.86380000 -0.00040000 -0.50380000
vn -0.86380000 -0.00040000 -0.50380000
vn -0.86390000 -0.00040000 -0.50370000
vn -0.86380000 -0.00040000 -0.50380000
vn -0.86390000 -0.00040000 -0.50370000
vn -0.86380000 -0.00040000 -0.50380000
vn -0.86380000 -0.00050000 -0.50380000
vn -0.86380000 -0.00040000 -0.50380000
vn -0.86390000 -0.00030000 -0.50370000
vn -0.86390000 -0.00040000 -0.50370000
vn -0.86380000 -0.00080000 -0.50390000
vn -0.86390000 -0.00040000 -0.50370000
vn -0.86380000 -0.00080000 -0.50390000
vn -0.86380000 -0.00050000 -0.50380000
vn 0.73740000 0.00020000 0.67550000
vn 0.77590000 0.00030000 0.63090000
vn 0.77960000 0.00030000 0.62630000
vn 0.67250000 0.00020000 0.74010000
vn 0.74250000 0.00030000 0.66980000
vn 0.67250000 0.00020000 0.74010000
vn 0.77970000 0.00030000 0.62610000
vn 0.77570000 0.00030000 0.63110000
vn 0.55740000 0.00010000 0.83030000
vn 0.67250000 0.00020000 0.74010000
vn 0.55740000 0.00010000 0.83030000
vn 0.55740000 0.00000000 0.83020000
vn 0.86430000 0.00040000 0.50300000
vn 0.86430000 0.00040000 0.50300000
vn 0.52620000 0.00010000 0.85040000
vn 0.86430000 0.00040000 0.50300000
vn 0.86430000 0.00040000 0.50300000
vn 0.67250000 0.00020000 0.74010000
vn 0.43330000 -0.00000000 0.90130000
vn 0.43430000 -0.00000000 0.90080000
vn 0.43210000 -0.00000000 0.90180000
vn 0.43120000 -0.00000000 0.90220000
vn 0.55740000 0.00020000 0.83030000
vn 0.42770000 -0.00000000 0.90390000
vn 0.52940000 0.00010000 0.84840000
vn 0.43070000 -0.00000000 0.90250000
vn -0.01620000 -0.08680000 0.99610000
vn -0.01710000 -0.08910000 0.99590000
vn -0.05690000 -0.29810000 0.95280000
vn -0.05270000 -0.28320000 0.95760000
vn -0.10000000 -0.53140000 0.84120000
vn -0.07630000 -0.41290000 0.90760000
vn -0.12070000 -0.64660000 0.75320000
vn -0.09770000 -0.53230000 0.84090000
vn -0.13800000 -0.74630000 0.65120000
vn -0.11780000 -0.64770000 0.75280000
vn -0.15190000 -0.82960000 0.53740000
vn -0.13470000 -0.74740000 0.65060000
vn -0.16260000 -0.89730000 0.41040000
vn -0.15320000 -0.86210000 0.48310000
vn -0.13440000 -0.90020000 0.41430000
vn -0.13890000 -0.89950000 0.41420000
vn -0.13900000 -0.89950000 0.41420000
vn -0.13690000 -0.89950000 0.41500000
vn -0.13690000 -0.89950000 0.41490000
vn -0.14870000 -0.89750000 0.41530000
vn -0.14660000 -0.89830000 0.41430000
vn -0.15940000 -0.89660000 0.41310000
vn -0.14180000 -0.89850000 0.41540000
vn -0.16230000 -0.89570000 0.41410000
vn -0.13710000 -0.89990000 0.41400000
vn -0.00000000 0.00000000 1.00000000
vn -0.00000000 0.00000000 1.00000000
vn -0.00000000 0.00000000 1.00000000
vn -0.00000000 0.00000000 1.00000000
vn -0.00000000 0.00000000 1.00000000
vn -0.00000000 0.00000000 1.00000000
vn -0.00000000 0.00000000 1.00000000
vn -0.00000000 0.00000000 1.00000000
vn 0.87690000 -0.00000000 0.48070000
vn 0.87680000 0.00000000 0.48090000
vn 0.87690000 -0.00000000 0.48070000
vn 0.87690000 -0.00000000 0.48070000
vn 0.87680000 0.00000000 0.48090000
vn 0.87690000 -0.00000000 0.48070000
vn 0.87700000 -0.00000000 0.48060000
vn 0.87690000 0.00000000 0.48060000
vn 0.87690000 -0.00000000 0.48070000
vn 0.87690000 -0.00000000 0.48070000
vn 0.87680000 0.00000000 0.48090000
vn 0.87680000 0.00000000 0.48080000
vn 0.87700000 0.00000000 0.48050000
vn 0.87700000 -0.00000000 0.48060000
vn 0.87690000 -0.00000000 0.48070000
vn 0.87680000 0.00000000 0.48080000
vn 0.87690000 -0.00000000 0.48070000
vn 0.87690000 0.00000000 0.48060000
vn 0.87680000 0.00000000 0.48090000
vn 0.87690000 -0.00000000 0.48070000
vn 0.87690000 -0.00000000 0.48070000
vn 0.87690000 0.00000000 0.48060000
vn 0.87690000 -0.00000000 0.48070000
vn 0.87700000 -0.00000000 0.48060000
vn 0.87700000 0.00000000 0.48050000
vn 0.87690000 -0.00000000 0.48070000
vn 0.87680000 0.00000000 0.48090000
vn 0.87680000 0.00000000 0.48090000
vn 0.87690000 -0.00000000 0.48070000
vn 0.87680000 0.00000000 0.48080000
vn 0.87700000 0.00000000 0.48050000
vn 0.87690000 0.00000000 0.48060000
vn 0.87690000 -0.00000000 0.48070000
vn 0.87690000 0.00000000 0.48060000
vn 0.87690000 0.00000000 0.48060000
vn 0.87690000 -0.00000000 0.48070000
vn 0.20600000 -0.93450000 0.29030000
vn 0.20620000 -0.92400000 0.32200000
vn 0.20680000 -0.96950000 0.13160000
vn 0.20600000 -0.87020000 0.44760000
vn 0.20610000 -0.81230000 0.54570000
vn 0.20600000 -0.69330000 0.69060000
vn 0.20610000 -0.64150000 0.73890000
vn 0.20590000 -0.77930000 0.59180000
vn 0.20590000 -0.59080000 0.78010000
vn 0.20610000 -0.50550000 0.83780000
vn 0.20620000 -0.42120000 0.88320000
vn 0.20600000 -0.43010000 0.87890000
vn 0.20620000 -0.32900000 0.92150000
vn 0.20610000 -0.21800000 0.95390000
vn 0.20570000 -0.23460000 0.95010000
vn 0.20600000 -0.08790000 0.97460000
vn 0.20600000 -0.07350000 0.97580000
vn 0.20580000 0.06490000 0.97640000
vn 0.20610000 0.64130000 0.73910000
vn 0.20580000 0.60990000 0.76530000
vn 0.20610000 0.73870000 0.64180000
vn 0.20620000 0.81220000 0.54570000
vn 0.20610000 0.51080000 0.83460000
vn 0.20610000 0.42090000 0.88340000
vn 0.20610000 0.43590000 0.87610000
vn 0.20580000 0.82960000 0.51900000
vn 0.20610000 0.91180000 0.35520000
vn 0.20560000 0.91730000 0.34090000
vn 0.20620000 0.96650000 0.15280000
vn 0.20590000 0.06770000 0.97620000
vn 0.20610000 0.32030000 0.92460000
vn 0.20610000 0.21830000 0.95390000
vn 0.20580000 0.23900000 0.94890000
vn -0.01790000 0.09250000 0.99560000
vn -0.01640000 0.08700000 0.99610000
vn -0.05980000 0.31400000 0.94750000
vn -0.10010000 0.53140000 0.84120000
vn -0.05270000 0.28320000 0.95760000
vn -0.07630000 0.41290000 0.90760000
vn -0.09770000 0.53220000 0.84090000
vn -0.12070000 0.64670000 0.75320000
vn -0.13800000 0.74630000 0.65120000
vn -0.15190000 0.82960000 0.53740000
vn -0.11790000 0.64760000 0.75280000
vn -0.13480000 0.74740000 0.65060000
vn -0.15320000 0.86200000 0.48320000
vn -0.16260000 0.89730000 0.41050000
vn -0.13940000 0.89900000 0.41520000
vn -0.13940000 0.89900000 0.41530000
vn -0.13910000 0.89950000 0.41420000
vn -0.13460000 0.90020000 0.41410000
vn -0.13710000 0.89990000 0.41400000
vn -0.13700000 0.89990000 0.41400000
vn -0.16230000 0.89570000 0.41410000
vn -0.15950000 0.89660000 0.41310000
vn -0.14880000 0.89740000 0.41530000
vn -0.14660000 0.89820000 0.41430000
vn -0.48420000 0.38480000 0.78580000
vn -0.86380000 -0.00040000 -0.50380000
vn -0.86380000 -0.00040000 -0.50380000
vt 0.02338100 0.04220700
vt 0.02338100 0.04220700
vt 0.02338100 0.04220700
vt 0.04049600 0.03614900
vt 0.04049600 0.03614900
vt 0.04049600 0.03614900
vt 0.01288400 0.04897100
vt 0.01288400 0.04897100
vt 0.05542800 0.03270000
vt 0.05542800 0.03270000
vt 0.08298600 0.08097100
vt 0.08298600 0.08097100
vt 0.08298600 0.08097100
vt 0.01738900 0.04547700
vt 0.03130600 0.03899000
vt 0.00918100 0.05417800
vt 0.00909800 0.07684000
vt 0.02874700 0.07698200
vt 0.05599600 0.07807500
vt 0.13442700 0.02038600
vt 0.13442700 0.02038600
vt 0.13442700 0.02038600
vt 0.11185400 0.08677300
vt 0.11185400 0.08677300
vt 0.13442700 0.09497600
vt 0.02354300 0.18092600
vt 0.02354300 0.18092600
vt 0.02354300 0.18092600
vt 0.02354300 0.18092600
vt 0.01303000 0.17416000
vt 0.01303000 0.17416000
vt 0.00931100 0.16895800
vt 0.00931100 0.16895800
vt 0.04067300 0.18699000
vt 0.04067300 0.18699000
vt 0.04067300 0.18699000
vt 0.02610600 0.14605200
vt 0.02610600 0.14605200
vt 0.02610600 0.14605200
vt 0.00917900 0.14611800
vt 0.01754400 0.17765500
vt 0.03147600 0.18414600
vt 0.05149300 0.14537800
vt 0.05149300 0.14537800
vt 0.08304500 0.14219000
vt 0.11188000 0.13640600
vt 0.11188000 0.13640600
vt 0.13442700 0.12822200
vt 0.13442700 0.20275300
vt 0.13442700 0.20275300
vt 0.05560900 0.19044400
vt 0.05560900 0.19044400
vt 0.21331000 0.00070100
vt 0.22151300 0.00255300
vt 0.19897300 0.00257100
vt 0.15897300 0.00346500
vt 0.15022300 0.00070200
vt 0.17883700 0.00070100
vt 0.14202000 0.00346500
vt 0.13230400 0.00071300
vt 0.17730200 0.00274300
vt 0.23943100 0.00070200
vt 0.27675600 0.00070200
vt 0.27277100 0.00256300
vt 0.25732700 0.00070200
vt 0.25735000 0.00263900
vt 0.29658600 0.00259100
vt 0.29830100 0.00070400
vt 0.28232800 0.00252100
vt 0.23900700 0.00256000
vt 0.13914300 0.00070000
vt 0.15066300 0.00070200
vt 0.15113300 0.00229200
vt 0.16650300 0.00070200
vt 0.13754500 0.00258900
vt 0.19043600 0.00198400
vt 0.17188100 0.00197900
vt 0.19012600 0.00070200
vt 0.21254200 0.00234200
vt 0.21232200 0.00070200
vt 0.22504200 0.00070000
vt 0.15360600 0.00070200
vt 0.14593600 0.00260600
vt 0.12977000 0.00070400
vt 0.12934400 0.00261500
vt 0.15545200 0.00266500
vt 0.19551300 0.00070200
vt 0.17333700 0.00276700
vt 0.17541800 0.00070200
vt 0.21541200 0.00070200
vt 0.19726600 0.00273000
vt 0.23517100 0.00070200
vt 0.21765500 0.00273400
vt 0.24297300 0.00300500
vt 0.27629200 0.00070200
vt 0.26665400 0.00346500
vt 0.25476500 0.00070200
vt 0.28634700 0.00346500
vt 0.29615200 0.00070900
vt 0.21881000 0.00071400
vt 0.21302100 0.00162400
vt 0.20088800 0.00069400
vt 0.16347500 0.00069700
vt 0.15376500 0.00176100
vt 0.14722900 0.00079900
vt 0.17812600 0.00074400
vt 0.01914100 0.07680800
vt 0.00322000 0.04972000
vt 0.00322000 0.04972000
vt 0.00322000 0.04972000
vt -0.00067300 0.07697800
vt -0.00037400 0.05528500
vt 0.04051000 0.07746600
vt 0.04051000 0.07746600
vt 0.05227700 0.03275800
vt 0.05227700 0.03275800
vt 0.05227700 0.03275800
vt 0.05227700 0.03275800
vt 0.03065100 0.03730400
vt 0.03065100 0.03730400
vt 0.03065100 0.03730400
vt 0.02146800 0.04015500
vt 0.01355100 0.04338100
vt 0.01355100 0.04338100
vt 0.01355100 0.04338100
vt 0.04088900 0.03485200
vt 0.05952100 0.07885400
vt 0.05952100 0.07885400
vt 0.07784600 0.08102100
vt 0.07784600 0.08102100
vt 0.13442700 0.01989600
vt 0.13662800 0.09883300
vt 0.13662800 0.09883300
vt 0.12363600 0.09226300
vt 0.12363600 0.09226300
vt 0.11072300 0.08770100
vt 0.09505000 0.08396900
vt 0.09505000 0.08396900
vt 0.15992700 0.02674500
vt 0.14915200 0.13119900
vt 0.15998300 0.19527000
vt 0.14738500 0.08405600
vt 0.18379100 0.14473000
vt 0.18379100 0.07742600
vt 0.17145000 0.02695200
vt 0.17144900 0.19520300
vt 0.18437700 0.20390700
vt 0.19684200 0.02287300
vt 0.18099000 0.01437500
vt 0.20758200 0.07643000
vt 0.20921200 0.01149200
vt 0.21949300 0.04385900
vt 0.23110100 0.01069900
vt 0.20762000 0.14598400
vt 0.21202000 0.21157000
vt 0.23154600 0.21216300
vt 0.21949000 0.17819100
vt 0.19522100 0.21034600
vt 0.13725300 0.09883300
vt 0.14155900 0.10230500
vt 0.13442700 0.01989600
vt 0.14451300 0.10904000
vt 0.14402300 0.11607300
vt 0.14108800 0.12105200
vt 0.13729700 0.12406400
vt 0.13442700 0.20324600
vt 0.23120800 0.12394600
vt 0.23104500 0.06525200
vt 0.23129200 0.16169600
vt 0.01371100 0.17975300
vt 0.01371100 0.17975300
vt 0.01371100 0.17975300
vt 0.01737400 0.14616000
vt 0.01737400 0.14616000
vt 0.00396100 0.17383200
vt 0.00396100 0.17383200
vt 0.05245900 0.19038900
vt 0.05245900 0.19038900
vt 0.05245900 0.19038900
vt 0.05245900 0.19038900
vt 0.05245900 0.19038900
vt 0.05245900 0.19038900
vt 0.04578700 0.14530200
vt 0.04578700 0.14530200
vt 0.04578700 0.14530200
vt 0.10048300 0.13782900
vt 0.07833300 0.14194900
vt 0.11395700 0.13431800
vt 0.11395700 0.13431800
vt 0.12511000 0.13003500
vt 0.12511000 0.13003500
vt 0.13666700 0.12406300
vt 0.13666700 0.12406300
vt 0.03082500 0.18583600
vt 0.03082500 0.18583600
vt 0.03082500 0.18583600
vt 0.02163600 0.18298100
vt 0.04106900 0.18829100
vt 0.13442700 0.20324600
vt 0.16041300 0.10899400
vt 0.15327800 0.10287300
vt 0.15255400 0.05312500
vt 0.17158100 0.07315700
vt 0.15951100 0.11512700
vt 0.17158200 0.15251200
vt 0.15253500 0.17254100
vt 0.15331400 0.12031000
vt 0.18929900 0.05331800
vt 0.17158200 0.03347900
vt 0.18929900 0.09299500
vt 0.18929000 0.13268300
vt 0.13442800 0.02038600
vt 0.13442700 0.09497600
vt 0.19377600 0.01467300
vt 0.13442700 0.12822200
vt 0.13442700 0.20275300
vt 0.17158200 0.19218900
vt 0.20655600 0.07362100
vt 0.20641600 0.01364100
vt 0.20671600 0.11160700
vt 0.20683000 0.14792000
vt 0.18929900 0.17235000
vt 0.20730900 0.20960400
vt 0.19332200 0.20844100
vt 0.20690500 0.17283500
vt 0.14231000 0.00658500
vt 0.14256300 0.00022100
vt 0.16139000 0.00179800
vt 0.15994200 0.00815900
vt 0.18335300 0.00464500
vt 0.17181600 0.00952900
vt 0.19556800 0.00651800
vt 0.18335300 0.01109200
vt 0.20767000 0.00851400
vt 0.19557000 0.01295100
vt 0.21985000 0.01060100
vt 0.20767300 0.01493600
vt 0.23262900 0.01280300
vt 0.22531800 0.01794000
vt 0.64961300 0.96934900
vt 0.62243200 0.97421000
vt 0.62243200 0.97421000
vt 0.64716800 0.97512700
vt 0.64716800 0.97512700
vt 0.58733400 0.98994700
vt 0.58143500 0.98301500
vt 0.49124200 0.99257700
vt 0.62706000 0.98245700
vt 0.49340200 0.99987400
vt 0.62950600 0.97129300
vt 0.12631000 0.00928800
vt 0.12603200 0.00279100
vt 0.20391200 0.00281500
vt 0.20622100 0.00928300
vt 0.44787800 0.00931600
vt 0.45037300 0.00282600
vt 0.52709800 0.00934000
vt 0.52730200 0.00295000
vt 0.34303300 0.08843800
vt 0.34303300 0.08843800
vt 0.33585100 0.07362400
vt 0.34064400 0.07323000
vt 0.34064400 0.07323000
vt 0.33596100 0.13385900
vt 0.33596100 0.13385900
vt 0.33596100 0.13385900
vt 0.33597300 0.10809000
vt 0.34347800 0.12337300
vt 0.34347800 0.12337300
vt 0.33596700 0.17392800
vt 0.33596700 0.17392800
vt 0.33596700 0.17392800
vt 0.33596700 0.17392800
vt 0.34287500 0.19278900
vt 0.34287500 0.19278900
vt 0.34287500 0.19278900
vt 0.33580000 0.21116400
vt 0.33580000 0.21116400
vt 0.34020500 0.21138300
vt 0.34286900 0.15000000
vt 0.34286900 0.15000000
vt 0.34286900 0.15000000
vt 0.34286900 0.15000000
vt 0.34981500 0.09972500
vt 0.34981500 0.09972500
vt 0.34968100 0.07420600
vt 0.34981100 0.11705900
vt 0.34982900 0.16870700
vt 0.34982900 0.16870700
vt 0.34982900 0.16870700
vt 0.34981100 0.21036000
vt 0.34981100 0.21036000
vt 0.34981000 0.14227900
vt 0.34981000 0.14227900
vt 0.15172800 0.17505700
vt 0.15204200 0.17755900
vt 0.15019300 0.17325400
vt 0.15333400 0.17827100
vt 0.15441100 0.18289200
vt 0.15618400 0.18419500
vt 0.15685400 0.18776800
vt 0.15494600 0.18171400
vt 0.15747200 0.18669400
vt 0.15844400 0.18798300
vt 0.15934800 0.19158300
vt 0.15925500 0.18896600
vt 0.16029100 0.19029600
vt 0.16138400 0.19392900
vt 0.16122100 0.19036200
vt 0.16263000 0.19482800
vt 0.16276500 0.19026300
vt 0.16407400 0.19497700
vt 0.17006600 0.18779700
vt 0.16967800 0.18669200
vt 0.17136700 0.18342700
vt 0.17251100 0.18292300
vt 0.16853600 0.18819000
vt 0.16757000 0.19160500
vt 0.16772700 0.18913400
vt 0.17281100 0.18043400
vt 0.17454500 0.17836500
vt 0.17468900 0.17690100
vt 0.17652900 0.17375900
vt 0.16410100 0.19030500
vt 0.16654200 0.19045100
vt 0.16554000 0.19393900
vt 0.16574200 0.19047500
vt 0.14286500 0.00008100
vt 0.14234700 0.00653800
vt 0.16280000 0.00191600
vt 0.18335300 0.00458100
vt 0.15994100 0.00809900
vt 0.17181500 0.00946600
vt 0.18335300 0.01102600
vt 0.19556800 0.00645000
vt 0.20767100 0.00844400
vt 0.21985100 0.01052900
vt 0.19557000 0.01288200
vt 0.20767400 0.01486500
vt 0.22531400 0.01786500
vt 0.23262700 0.01272800
vt 0.63761800 0.97917200
vt 0.63761800 0.97917200
vt 0.62178000 0.97443400
vt 0.64866300 0.96943900
vt 0.62977200 0.97126900
vt 0.62977200 0.97126900
vt 0.49333400 0.99996800
vt 0.49117500 0.99267100
vt 0.58701600 0.99008300
vt 0.58112100 0.98315000
vt 0.22431500 0.00261000
vt -0.00047500 0.16791900
vt -0.00050100 0.14597300
f 1/1/1 4/4/4 8/8/8
f 6/6/6 10/10/10 13/13/13
f 14/14/14 3/3/3 7/7/7
f 15/15/15 5/5/5 2/2/2
f 16/16/16 8/8/8 17/17/17
f 18/18/18 8/8/8 4/4/4
f 19/19/19 18/18/18 4/4/4
f 17/17/17 8/8/8 18/18/18
f 4/4/4 12/12/12 19/19/19
f 9/9/9 22/22/22 12/12/12
f 11/11/11 21/21/21 24/24/24
f 23/23/23 20/20/20 25/25/25
f 26/26/26 31/31/31 33/33/33
f 36/36/36 26/26/26 38/38/38
f 38/38/38 33/33/33 40/40/40
f 39/39/39 27/27/27 32/32/32
f 30/30/30 29/29/29 41/41/41
f 42/42/42 28/28/28 34/34/34
f 43/43/43 35/35/35 37/37/37
f 44/44/44 45/45/45 36/36/36
f 46/46/46 48/48/48 50/50/50
f 45/45/45 46/46/46 36/36/36
f 47/47/47 49/49/49 52/52/52
f 53/53/53 54/54/54 55/55/55
f 56/56/56 57/57/57 58/58/58
f 58/58/58 53/53/53 55/55/55
f 57/57/57 59/59/59 60/60/60
f 56/56/56 58/58/58 61/61/61
f 56/56/56 59/59/59 57/57/57
f 55/55/55 61/61/61 58/58/58
f 62/62/62 54/54/54 53/53/53
f 63/63/63 64/64/64 65/65/65
f 66/66/66 70/70/70 65/65/65
f 67/67/67 69/69/69 68/68/68
f 62/62/62 70/70/70 54/54/54
f 64/64/64 66/66/66 65/65/65
f 63/63/63 69/69/69 64/64/64
f 73/73/73 75/75/75 71/71/71
f 74/74/74 73/73/73 72/72/72
f 74/74/74 78/78/78 77/77/77
f 77/77/77 73/73/73 74/74/74
f 81/81/81 352/352/352 79/79/79
f 80/80/80 79/79/79 76/76/76
f 82/82/82 83/83/83 84/84/84
f 85/85/85 84/84/84 83/83/83
f 86/86/86 83/83/83 82/82/82
f 87/87/87 91/91/91 89/89/89
f 90/90/90 93/93/93 91/91/91
f 88/88/88 86/86/86 89/89/89
f 92/92/92 93/93/93 90/90/90
f 92/92/92 94/94/94 93/93/93
f 95/95/95 96/96/96 97/97/97
f 96/96/96 94/94/94 97/97/97
f 98/98/98 95/95/95 99/99/99
f 96/96/96 95/95/95 98/98/98
f 97/97/97 94/94/94 92/92/92
f 100/100/100 101/101/101 102/102/102
f 103/103/103 104/104/104 105/105/105
f 103/103/103 106/106/106 104/104/104
f 107/107/107 109/109/109 111/111/111
f 111/111/111 110/110/110 112/112/112
f 114/114/114 118/118/118 121/121/121
f 120/120/120 122/122/122 124/124/124
f 121/121/121 125/125/125 114/114/114
f 119/119/119 117/117/117 126/126/126
f 114/114/114 109/109/109 107/107/107
f 116/116/116 113/113/113 127/127/127
f 128/128/128 130/130/130 118/118/118
f 131/131/131 115/115/115 132/132/132
f 134/134/134 133/133/133 116/116/116
f 136/136/136 135/135/135 118/118/118
f 137/137/137 136/136/136 118/118/118
f 141/141/141 145/145/145 140/140/140
f 142/142/142 140/140/140 139/139/139
f 143/143/143 144/144/144 145/145/145
f 146/146/146 145/145/145 141/141/141
f 145/145/145 146/146/146 147/147/147
f 144/144/144 148/148/148 149/149/149
f 150/150/150 148/148/148 144/144/144
f 150/150/150 151/151/151 148/148/148
f 152/152/152 151/151/151 150/150/150
f 152/152/152 153/153/153 151/151/151
f 150/150/150 143/143/143 154/154/154
f 150/150/150 144/144/144 143/143/143
f 155/155/155 156/156/156 157/157/157
f 154/154/154 158/158/158 157/157/157
f 158/158/158 154/154/154 147/147/147
f 159/159/159 160/160/160 142/142/142
f 161/161/161 159/159/159 142/142/142
f 142/142/142 139/139/139 161/161/161
f 140/140/140 142/142/142 162/162/162
f 163/163/163 140/140/140 162/162/162
f 142/142/142 160/160/160 162/162/162
f 148/148/148 151/151/151 149/149/149
f 139/139/139 145/145/145 149/149/149
f 161/161/161 139/139/139 149/149/149
f 164/164/164 165/165/165 140/140/140
f 164/164/164 140/140/140 163/163/163
f 141/141/141 140/140/140 166/166/166
f 165/165/165 166/166/166 140/140/140
f 147/147/147 141/141/141 166/166/166
f 146/146/146 141/141/141 147/147/147
f 166/166/166 158/158/158 147/147/147
f 154/154/154 167/167/167 150/150/150
f 168/168/168 153/153/153 152/152/152
f 168/168/168 152/152/152 150/150/150
f 167/167/167 168/168/168 150/150/150
f 154/154/154 169/169/169 167/167/167
f 157/157/157 169/169/169 154/154/154
f 156/156/156 169/169/169 157/157/157
f 170/170/170 173/173/173 176/176/176
f 181/181/181 184/184/184 172/172/172
f 182/182/182 186/186/186 187/187/187
f 182/182/182 189/189/189 186/186/186
f 185/185/185 182/182/182 187/187/187
f 178/178/178 190/190/190 188/188/188
f 191/191/191 182/182/182 193/193/193
f 180/180/180 171/171/171 194/194/194
f 195/195/195 170/170/170 197/197/197
f 198/198/198 179/179/179 196/196/196
f 199/199/199 192/192/192 177/177/177
f 202/202/202 203/203/203 201/201/201
f 204/204/204 200/200/200 203/203/203
f 204/204/204 203/203/203 205/205/205
f 204/204/204 205/205/205 207/207/207
f 208/208/208 203/203/203 209/209/209
f 210/210/210 211/211/211 203/203/203
f 202/202/202 212/212/212 209/209/209
f 213/213/213 212/212/212 202/202/202
f 209/209/209 203/203/203 202/202/202
f 209/209/209 212/212/212 214/214/214
f 207/207/207 206/206/206 215/215/215
f 215/215/215 206/206/206 216/216/216
f 206/206/206 217/217/217 216/216/216
f 211/211/211 205/205/205 203/203/203
f 218/218/218 210/210/210 203/203/203
f 208/208/208 214/214/214 218/218/218
f 211/211/211 210/210/210 218/218/218
f 218/218/218 203/203/203 208/208/208
f 219/219/219 218/218/218 214/214/214
f 220/220/220 211/211/211 218/218/218
f 221/221/221 211/211/211 220/220/220
f 205/205/205 222/222/222 217/217/217
f 211/211/211 221/221/221 205/205/205
f 222/222/222 225/225/225 224/224/224
f 222/222/222 205/205/205 221/221/221
f 216/216/216 217/217/217 224/224/224
f 222/222/222 221/221/221 225/225/225
f 228/228/228 229/229/229 226/226/226
f 230/230/230 231/231/231 229/229/229
f 230/230/230 229/229/229 228/228/228
f 232/232/232 231/231/231 230/230/230
f 231/231/231 232/232/232 233/233/233
f 234/234/234 233/233/233 232/232/232
f 234/234/234 235/235/235 233/233/233
f 235/235/235 236/236/236 237/237/237
f 236/236/236 235/235/235 234/234/234
f 237/237/237 238/238/238 239/239/239
f 236/236/236 238/238/238 237/237/237
f 240/240/240 250/250/250 243/243/243
f 245/245/245 246/246/246 247/247/247
f 241/241/241 246/246/246 248/248/248
f 245/245/245 248/248/248 246/246/246
f 249/249/249 245/245/245 247/247/247
f 244/244/244 241/241/241 248/248/248
f 253/253/253 254/254/254 252/252/252
f 256/256/256 258/258/258 255/255/255
f 259/259/259 261/261/261 262/262/262
f 264/264/264 267/267/267 268/268/268
f 273/273/273 275/275/275 277/277/277
f 278/278/278 275/275/275 279/279/279
f 265/265/265 282/282/282 272/272/272
f 267/267/267 261/261/261 259/259/259
f 284/284/284 268/268/268 259/259/259
f 259/259/259 268/268/268 267/267/267
f 286/286/286 260/260/260 263/263/263
f 285/285/285 260/260/260 286/286/286
f 284/284/284 287/287/287 268/268/268
f 283/283/283 289/289/289 271/271/271
f 288/288/288 274/274/274 270/270/270
f 291/291/291 279/279/279 275/275/275
f 294/294/294 281/281/281 268/268/268
f 280/280/280 266/266/266 269/269/269
f 292/292/292 276/276/276 290/290/290
f 293/293/293 290/290/290 280/280/280
f 294/294/294 268/268/268 287/287/287
f 295/295/295 296/296/296 297/297/297
f 298/298/298 296/296/296 295/295/295
f 299/299/299 296/296/296 298/298/298
f 300/300/300 301/301/301 299/299/299
f 302/302/302 300/300/300 299/299/299
f 303/303/303 301/301/301 300/300/300
f 298/298/298 302/302/302 299/299/299
f 304/304/304 305/305/305 301/301/301
f 303/303/303 304/304/304 301/301/301
f 306/306/306 305/305/305 304/304/304
f 306/306/306 307/307/307 305/305/305
f 308/308/308 307/307/307 309/309/309
f 305/305/305 307/307/307 308/308/308
f 309/309/309 311/311/311 308/308/308
f 311/311/311 324/324/324 312/312/312
f 313/313/313 314/314/314 315/315/315
f 316/316/316 313/313/313 315/315/315
f 317/317/317 318/318/318 319/319/319
f 317/317/317 314/314/314 313/313/313
f 313/313/313 318/318/318 317/317/317
f 316/316/316 315/315/315 320/320/320
f 321/321/321 322/322/322 323/323/323
f 321/321/321 316/316/316 320/320/320
f 320/320/320 322/322/322 321/321/321
f 318/318/318 325/325/325 319/319/319
f 324/324/324 327/327/327 326/326/326
f 326/326/326 327/327/327 325/325/325
f 318/318/318 326/326/326 325/325/325
f 329/329/329 332/332/332 330/330/330
f 331/331/331 330/330/330 332/332/332
f 333/333/333 331/331/331 332/332/332
f 334/334/334 335/335/335 333/333/333
f 334/334/334 336/336/336 335/335/335
f 335/335/335 331/331/331 333/333/333
f 337/337/337 336/336/336 338/338/338
f 338/338/338 336/336/336 334/334/334
f 339/339/339 337/337/337 338/338/338
f 339/339/339 340/340/340 341/341/341
f 337/337/337 339/339/339 341/341/341
f 344/344/344 346/346/346 343/343/343
f 348/348/348 349/349/349 350/350/350
f 351/351/351 350/350/350 349/349/349
f 342/342/342 350/350/350 351/351/351
f 344/344/344 342/342/342 351/351/351
f 51/51/51 36/36/36 46/46/46
f 113/113/113 123/123/123 108/108/108
f 138/138/138 116/116/116 129/129/129
f 145/145/145 144/144/144 149/149/149
f 145/145/145 147/147/147 143/143/143
f 174/174/174 353/353/353 175/175/175
f 174/174/174 354/354/354 353/353/353
f 217/217/217 206/206/206 205/205/205
f 208/208/208 209/209/209 214/214/214
f 224/224/224 217/217/217 222/222/222
f 213/213/213 202/202/202 201/201/201
f 70/70/70 62/62/62 65/65/65
f 69/69/69 63/63/63 68/68/68
f 73/73/73 71/71/71 72/72/72
f 78/78/78 76/76/76 77/77/77
f 81/81/81 79/79/79 80/80/80
f 80/80/80 76/76/76 78/78/78
f 91/91/91 88/88/88 89/89/89
f 90/90/90 91/91/91 87/87/87
f 86/86/86 82/82/82 89/89/89
f 145/145/145 139/139/139 140/140/140
f 158/158/158 155/155/155 157/157/157
f 154/154/154 143/143/143 147/147/147
f 183/183/183 173/173/173 170/170/170
f 203/203/203 200/200/200 201/201/201
f 205/205/205 206/206/206 207/207/207
f 225/225/225 223/223/223 224/224/224
f 228/228/228 226/226/226 227/227/227
f 250/250/250 242/242/242 244/244/244
f 254/254/254 251/251/251 252/252/252
f 258/258/258 257/257/257 255/255/255
f 311/311/311 310/310/310 308/308/308
f 311/311/311 312/312/312 310/310/310
f 324/324/324 326/326/326 312/312/312
f 329/329/329 330/330/330 328/328/328
f 347/347/347 345/345/345 342/342/342

