mtllib material.mtl
usemtl Material-7011油漆
v -0.06718200 0.01535800 0.07900000
v -0.06718200 0.01535800 0.07900000
v -0.06718200 0.01535800 0.07900000
v -0.06718200 0.01535800 0.07970000
v -0.06718200 0.01535800 0.07970000
v -0.06718200 0.01535800 0.07970000
v -0.07029200 0.01535800 0.07900000
v -0.07029200 0.01535800 0.07900000
v -0.07029200 0.01535800 0.07900000
v -0.07029200 0.01535800 0.07970000
v -0.07029200 0.01535800 0.07970000
v -0.07029200 0.01535800 0.07970000
v -0.07029300 0.01535700 0.07900000
v -0.07029300 0.01535700 0.07900000
v -0.07029300 0.01535700 0.07900000
v -0.07029300 0.01535700 0.07970000
v -0.07029300 0.01535700 0.07970000
v -0.07029300 0.01535700 0.07970000
v -0.07029300 -0.00641400 0.07900000
v -0.07029300 -0.00641400 0.07900000
v -0.07029300 -0.00641400 0.07900000
v -0.07029300 -0.00641400 0.07970000
v -0.07029300 -0.00641400 0.07970000
v -0.07029300 -0.00641400 0.07970000
v -0.07029200 -0.00641500 0.07900000
v -0.07029200 -0.00641500 0.07900000
v -0.07029200 -0.00641500 0.07900000
v -0.07029200 -0.00641500 0.07970000
v -0.07029200 -0.00641500 0.07970000
v -0.07029200 -0.00641500 0.07970000
v -0.06718200 -0.00641500 0.07900000
v -0.06718200 -0.00641500 0.07900000
v -0.06718200 -0.00641500 0.07900000
v -0.06718200 -0.00641500 0.07970000
v -0.06718200 -0.00641500 0.07970000
v -0.06718200 -0.00641500 0.07970000
v -0.06718200 -0.00641400 0.07900000
v -0.06718200 -0.00641400 0.07900000
v -0.06718200 -0.00641400 0.07900000
v -0.06718200 -0.00641400 0.07970000
v -0.06718200 -0.00641400 0.07970000
v -0.06718200 -0.00641400 0.07970000
v -0.06718200 0.01535700 0.07900000
v -0.06718200 0.01535700 0.07900000
v -0.06718200 0.01535700 0.07900000
v -0.06718200 0.01535700 0.07970000
v -0.06718200 0.01535700 0.07970000
v -0.06718200 0.01535700 0.07970000
v -0.06718200 0.01535700 0.07899900
v -0.06718200 0.01535700 0.07899900
v -0.06718200 0.01535700 0.07899900
v -0.07029200 0.01535700 0.07899900
v -0.07029200 0.01535700 0.07899900
v -0.07029200 0.01535700 0.07899900
v -0.07029200 -0.00641400 0.07899900
v -0.07029200 -0.00641400 0.07899900
v -0.07029200 -0.00641400 0.07899900
v -0.06718200 -0.00641400 0.07899900
v -0.06718200 -0.00641400 0.07899900
v -0.06718200 -0.00641400 0.07899900
v -0.06718200 0.01535700 0.07970000
v -0.06718200 0.01535700 0.07970000
v -0.06718200 0.01535700 0.07970000
v -0.07029200 0.01535700 0.07970000
v -0.07029200 0.01535700 0.07970000
v -0.07029200 0.01535700 0.07970000
v -0.07029200 -0.00641400 0.07970000
v -0.07029200 -0.00641400 0.07970000
v -0.07029200 -0.00641400 0.07970000
v -0.06718200 -0.00641400 0.07970000
v -0.06718200 -0.00641400 0.07970000
v -0.06718200 -0.00641400 0.07970000
v -0.06718200 0.01535700 0.07900000
v -0.06718200 0.01535700 0.07900000
v -0.06718200 0.01535700 0.07900000
v -0.06718200 0.01535700 0.07970000
v -0.06718200 0.01535700 0.07970000
v -0.06718200 0.01535700 0.07970000
v -0.07029200 0.01535700 0.07900000
v -0.07029200 0.01535700 0.07900000
v -0.07029200 0.01535700 0.07900000
v -0.07029200 0.01535700 0.07970000
v -0.07029200 0.01535700 0.07970000
v -0.07029200 0.01535700 0.07970000
v -0.07029200 0.01535700 0.07900000
v -0.07029200 0.01535700 0.07900000
v -0.07029200 0.01535700 0.07900000
v -0.07029200 0.01535700 0.07970000
v -0.07029200 0.01535700 0.07970000
v -0.07029200 0.01535700 0.07970000
v -0.07029200 -0.00641400 0.07900000
v -0.07029200 -0.00641400 0.07900000
v -0.07029200 -0.00641400 0.07900000
v -0.07029200 -0.00641400 0.07970000
v -0.07029200 -0.00641400 0.07970000
v -0.07029200 -0.00641400 0.07970000
v -0.07029200 -0.00641400 0.07900000
v -0.07029200 -0.00641400 0.07900000
v -0.07029200 -0.00641400 0.07900000
v -0.07029200 -0.00641400 0.07970000
v -0.07029200 -0.00641400 0.07970000
v -0.07029200 -0.00641400 0.07970000
v -0.06718200 -0.00641400 0.07900000
v -0.06718200 -0.00641400 0.07900000
v -0.06718200 -0.00641400 0.07900000
v -0.06718200 -0.00641400 0.07970000
v -0.06718200 -0.00641400 0.07970000
v -0.06718200 -0.00641400 0.07970000
v -0.06718300 -0.00641400 0.07900000
v -0.06718300 -0.00641400 0.07900000
v -0.06718300 -0.00641400 0.07900000
v -0.06718300 -0.00641400 0.07970000
v -0.06718300 -0.00641400 0.07970000
v -0.06718300 -0.00641400 0.07970000
v -0.06718300 0.01535700 0.07900000
v -0.06718300 0.01535700 0.07900000
v -0.06718300 0.01535700 0.07900000
v -0.06718300 0.01535700 0.07970000
v -0.06718300 0.01535700 0.07970000
v -0.06718300 0.01535700 0.07970000
v -0.06718200 0.01535700 0.07900000
v -0.06718200 0.01535700 0.07900000
v -0.06718200 0.01535700 0.07900000
v -0.07029200 0.01535700 0.07900000
v -0.07029200 0.01535700 0.07900000
v -0.07029200 0.01535700 0.07900000
v -0.07029200 -0.00641400 0.07900000
v -0.07029200 -0.00641400 0.07900000
v -0.07029200 -0.00641400 0.07900000
v -0.06718200 -0.00641400 0.07900000
v -0.06718200 -0.00641400 0.07900000
v -0.06718200 -0.00641400 0.07900000
v -0.06718200 0.01535700 0.07969900
v -0.06718200 0.01535700 0.07969900
v -0.06718200 0.01535700 0.07969900
v -0.07029200 0.01535700 0.07969900
v -0.07029200 0.01535700 0.07969900
v -0.07029200 0.01535700 0.07969900
v -0.07029200 -0.00641400 0.07969900
v -0.07029200 -0.00641400 0.07969900
v -0.07029200 -0.00641400 0.07969900
v -0.06718200 -0.00641400 0.07969900
v -0.06718200 -0.00641400 0.07969900
v -0.06718200 -0.00641400 0.07969900
vn 0.00000000 1.00000000 0.00000000
vn 0.00000000 0.00000000 -1.00000000
vn 1.00000000 0.00000000 0.00000000
vn 1.00000000 0.00000000 0.00000000
vn 0.00000000 0.00000000 1.00000000
vn 0.00000000 1.00000000 0.00000000
vn 0.00000000 1.00000000 0.00000000
vn -1.00000000 0.00000000 0.00000000
vn 0.00000000 0.00000000 -1.00000000
vn 0.00000000 1.00000000 0.00000000
vn 0.00000000 0.00000000 1.00000000
vn -1.00000000 0.00000000 0.00000000
vn 0.00000000 0.00000000 -1.00000000
vn 0.00000000 1.00000000 0.00000000
vn -1.00000000 0.00000000 0.00000000
vn 0.00000000 1.00000000 0.00000000
vn 0.00000000 0.00000000 1.00000000
vn -1.00000000 0.00000000 0.00000000
vn 0.00000000 -1.00000000 0.00000000
vn -1.00000000 0.00000000 0.00000000
vn 0.00000000 0.00000000 -1.00000000
vn 0.00000000 -1.00000000 0.00000000
vn 0.00000000 0.00000000 1.00000000
vn -1.00000000 0.00000000 0.00000000
vn 0.00000000 0.00000000 -1.00000000
vn 0.00000000 -1.00000000 0.00000000
vn -1.00000000 0.00000000 0.00000000
vn 0.00000000 0.00000000 1.00000000
vn -1.00000000 0.00000000 0.00000000
vn 0.00000000 -1.00000000 0.00000000
vn 1.00000000 0.00000000 0.00000000
vn 0.00000000 0.00000000 -1.00000000
vn 0.00000000 -1.00000000 0.00000000
vn 0.00000000 0.00000000 1.00000000
vn 1.00000000 0.00000000 0.00000000
vn 0.00000000 -1.00000000 0.00000000
vn 1.00000000 0.00000000 0.00000000
vn 0.00000000 0.00000000 -1.00000000
vn 0.00000000 -1.00000000 0.00000000
vn 0.00000000 0.00000000 1.00000000
vn 1.00000000 0.00000000 0.00000000
vn 0.00000000 -1.00000000 0.00000000
vn 0.00000000 0.00000000 -1.00000000
vn 0.00000000 1.00000000 0.00000000
vn 1.00000000 0.00000000 0.00000000
vn 0.00000000 0.00000000 1.00000000
vn 0.00000000 1.00000000 0.00000000
vn 1.00000000 0.00000000 0.00000000
vn 1.00000000 0.00000000 0.00000000
vn 0.00000000 0.00000000 -1.00000000
vn 0.00000000 1.00000000 0.00000000
vn 0.00000000 0.00000000 -1.00000000
vn -1.00000000 0.00000000 0.00000000
vn 0.00000000 1.00000000 0.00000000
vn 0.00000000 0.00000000 -1.00000000
vn 0.00000000 -1.00000000 0.00000000
vn -1.00000000 0.00000000 0.00000000
vn 0.00000000 -1.00000000 0.00000000
vn 1.00000000 0.00000000 0.00000000
vn 0.00000000 0.00000000 -1.00000000
vn 0.00000000 0.00000000 1.00000000
vn 1.00000000 0.00000000 0.00000000
vn 0.00000000 1.00000000 0.00000000
vn 0.00000000 1.00000000 0.00000000
vn 0.00000000 0.00000000 1.00000000
vn -1.00000000 0.00000000 0.00000000
vn 0.00000000 -1.00000000 0.00000000
vn 0.00000000 0.00000000 1.00000000
vn -1.00000000 0.00000000 0.00000000
vn 0.00000000 -1.00000000 0.00000000
vn 1.00000000 0.00000000 0.00000000
vn 0.00000000 0.00000000 1.00000000
vn 1.00000000 0.00000000 0.00000000
vn 0.00000000 0.00000000 -1.00000000
vn 0.00000000 -1.00000000 0.00000000
vn 1.00000000 0.00000000 0.00000000
vn 0.00000000 0.00000000 1.00000000
vn 0.00000000 -1.00000000 0.00000000
vn -1.00000000 0.00000000 0.00000000
vn 0.00000000 0.00000000 -1.00000000
vn 0.00000000 -1.00000000 0.00000000
vn 0.00000000 0.00000000 1.00000000
vn -1.00000000 0.00000000 0.00000000
vn 0.00000000 -1.00000000 0.00000000
vn 0.00000000 1.00000000 0.00000000
vn 0.00000000 0.00000000 -1.00000000
vn 1.00000000 0.00000000 0.00000000
vn 0.00000000 1.00000000 0.00000000
vn 0.00000000 0.00000000 1.00000000
vn 1.00000000 0.00000000 0.00000000
vn 1.00000000 0.00000000 0.00000000
vn 0.00000000 -1.00000000 0.00000000
vn 0.00000000 0.00000000 -1.00000000
vn 0.00000000 -1.00000000 0.00000000
vn 0.00000000 0.00000000 1.00000000
vn 1.00000000 0.00000000 0.00000000
vn -1.00000000 0.00000000 0.00000000
vn 0.00000000 0.00000000 -1.00000000
vn 0.00000000 1.00000000 0.00000000
vn 0.00000000 0.00000000 1.00000000
vn -1.00000000 0.00000000 0.00000000
vn 0.00000000 1.00000000 0.00000000
vn 0.00000000 0.00000000 -1.00000000
vn 0.00000000 1.00000000 0.00000000
vn 1.00000000 0.00000000 0.00000000
vn 0.00000000 1.00000000 0.00000000
vn 1.00000000 0.00000000 0.00000000
vn 0.00000000 0.00000000 1.00000000
vn -1.00000000 0.00000000 0.00000000
vn 0.00000000 0.00000000 -1.00000000
vn 0.00000000 -1.00000000 0.00000000
vn 0.00000000 -1.00000000 0.00000000
vn 0.00000000 0.00000000 1.00000000
vn -1.00000000 0.00000000 0.00000000
vn 0.00000000 0.00000000 -1.00000000
vn 0.00000000 1.00000000 0.00000000
vn -1.00000000 0.00000000 0.00000000
vn 0.00000000 1.00000000 0.00000000
vn 0.00000000 0.00000000 1.00000000
vn -1.00000000 0.00000000 0.00000000
vn 1.00000000 0.00000000 0.00000000
vn 0.00000000 0.00000000 1.00000000
vn 0.00000000 1.00000000 0.00000000
vn 0.00000000 0.00000000 1.00000000
vn 0.00000000 1.00000000 0.00000000
vn -1.00000000 0.00000000 0.00000000
vn -1.00000000 0.00000000 0.00000000
vn 0.00000000 -1.00000000 0.00000000
vn 0.00000000 0.00000000 1.00000000
vn 1.00000000 0.00000000 0.00000000
vn 0.00000000 -1.00000000 0.00000000
vn 0.00000000 0.00000000 1.00000000
vn 1.00000000 0.00000000 0.00000000
vn 0.00000000 1.00000000 0.00000000
vn 0.00000000 0.00000000 -1.00000000
vn 0.00000000 1.00000000 0.00000000
vn -1.00000000 0.00000000 0.00000000
vn 0.00000000 0.00000000 -1.00000000
vn -1.00000000 0.00000000 0.00000000
vn 0.00000000 0.00000000 -1.00000000
vn 0.00000000 -1.00000000 0.00000000
vn 0.00000000 0.00000000 -1.00000000
vn 0.00000000 -1.00000000 0.00000000
vn 1.00000000 0.00000000 0.00000000
vt 0.00000000 0.00000000
vt 0.00000000 0.00000000
vt 0.00000000 0.00000000
vt 0.00000000 0.55058200
vt 0.00000000 0.55058200
vt 0.00000000 0.55058200
vt 0.06249100 0.00000000
vt 0.06249100 0.00000000
vt 0.06249100 0.00000000
vt 0.06249100 0.55058200
vt 0.06249100 0.55058200
vt 0.06249100 0.55058200
vt 0.06249100 0.00000000
vt 0.06249100 0.00000000
vt 0.06249100 0.00000000
vt 0.06249100 0.55058200
vt 0.06249100 0.55058200
vt 0.06249100 0.55058200
vt 0.50000000 0.00000000
vt 0.50000000 0.00000000
vt 0.50000000 0.00000000
vt 0.50000000 0.55058200
vt 0.50000000 0.55058200
vt 0.50000000 0.55058200
vt 0.50000000 0.00000000
vt 0.50000000 0.00000000
vt 0.50000000 0.00000000
vt 0.50000000 0.55058200
vt 0.50000000 0.55058200
vt 0.50000000 0.55058200
vt 0.56249100 0.00000000
vt 0.56249100 0.00000000
vt 0.56249100 0.00000000
vt 0.56249100 0.55058200
vt 0.56249100 0.55058200
vt 0.56249100 0.55058200
vt 0.56249100 0.00000000
vt 0.56249100 0.00000000
vt 0.56249100 0.00000000
vt 0.56249100 0.55058200
vt 0.56249100 0.55058200
vt 0.56249100 0.55058200
vt 1.00000000 0.00000000
vt 1.00000000 0.00000000
vt 1.00000000 0.00000000
vt 1.00000000 0.55058200
vt 1.00000000 0.55058200
vt 1.00000000 0.55058200
vt 0.43750900 1.00000000
vt 0.43750900 1.00000000
vt 0.43750900 1.00000000
vt 0.43750900 0.55058200
vt 0.43750900 0.55058200
vt 0.43750900 0.55058200
vt 0.00000000 0.55058200
vt 0.00000000 0.55058200
vt 0.00000000 0.55058200
vt 0.00000000 1.00000000
vt 0.00000000 1.00000000
vt 0.00000000 1.00000000
vt 1.00000000 0.55058200
vt 1.00000000 0.55058200
vt 1.00000000 0.55058200
vt 1.00000000 1.00000000
vt 1.00000000 1.00000000
vt 1.00000000 1.00000000
vt 0.56249100 1.00000000
vt 0.56249100 1.00000000
vt 0.56249100 1.00000000
vt 0.56249100 0.55058200
vt 0.56249100 0.55058200
vt 0.56249100 0.55058200
vt 0.00000000 0.00000000
vt 0.00000000 0.00000000
vt 0.00000000 0.00000000
vt 0.00000000 0.55058200
vt 0.00000000 0.55058200
vt 0.00000000 0.55058200
vt 0.06249100 0.00000000
vt 0.06249100 0.00000000
vt 0.06249100 0.00000000
vt 0.06249100 0.55058200
vt 0.06249100 0.55058200
vt 0.06249100 0.55058200
vt 0.06249100 0.00000000
vt 0.06249100 0.00000000
vt 0.06249100 0.00000000
vt 0.06249100 0.55058200
vt 0.06249100 0.55058200
vt 0.06249100 0.55058200
vt 0.50000000 0.00000000
vt 0.50000000 0.00000000
vt 0.50000000 0.00000000
vt 0.50000000 0.55058200
vt 0.50000000 0.55058200
vt 0.50000000 0.55058200
vt 0.50000000 0.00000000
vt 0.50000000 0.00000000
vt 0.50000000 0.00000000
vt 0.50000000 0.55058200
vt 0.50000000 0.55058200
vt 0.50000000 0.55058200
vt 0.56249100 0.00000000
vt 0.56249100 0.00000000
vt 0.56249100 0.00000000
vt 0.56249100 0.55058200
vt 0.56249100 0.55058200
vt 0.56249100 0.55058200
vt 0.56249100 0.00000000
vt 0.56249100 0.00000000
vt 0.56249100 0.00000000
vt 0.56249100 0.55058200
vt 0.56249100 0.55058200
vt 0.56249100 0.55058200
vt 1.00000000 0.00000000
vt 1.00000000 0.00000000
vt 1.00000000 0.00000000
vt 1.00000000 0.55058200
vt 1.00000000 0.55058200
vt 1.00000000 0.55058200
vt 0.43750900 1.00000000
vt 0.43750900 1.00000000
vt 0.43750900 1.00000000
vt 0.43750900 0.55058200
vt 0.43750900 0.55058200
vt 0.43750900 0.55058200
vt 0.00000000 0.55058200
vt 0.00000000 0.55058200
vt 0.00000000 0.55058200
vt 0.00000000 1.00000000
vt 0.00000000 1.00000000
vt 0.00000000 1.00000000
vt 1.00000000 0.55058200
vt 1.00000000 0.55058200
vt 1.00000000 0.55058200
vt 1.00000000 1.00000000
vt 1.00000000 1.00000000
vt 1.00000000 1.00000000
vt 0.56249100 1.00000000
vt 0.56249100 1.00000000
vt 0.56249100 1.00000000
vt 0.56249100 0.55058200
vt 0.56249100 0.55058200
vt 0.56249100 0.55058200
f 1/1/1 7/7/7 10/10/10
f 15/15/15 20/20/20 24/24/24
f 26/26/26 33/33/33 36/36/36
f 37/37/37 45/45/45 48/48/48
f 50/50/50 60/60/60 55/55/55
f 55/55/55 52/52/52 50/50/50
f 61/61/61 68/68/68 72/72/72
f 68/68/68 61/61/61 65/65/65
f 1/1/1 10/10/10 6/6/6
f 15/15/15 24/24/24 18/18/18
f 26/26/26 36/36/36 30/30/30
f 37/37/37 48/48/48 41/41/41
f 75/75/75 84/84/84 81/81/81
f 87/87/87 96/96/96 91/91/91
f 99/99/99 106/106/106 104/104/104
f 109/109/109 120/120/120 117/117/117
f 122/122/122 129/129/129 132/132/132
f 129/129/129 122/122/122 124/124/124
f 135/135/135 142/142/142 140/140/140
f 140/140/140 138/138/138 135/135/135
f 75/75/75 78/78/78 84/84/84
f 87/87/87 90/90/90 96/96/96
f 99/99/99 102/102/102 106/106/106
f 109/109/109 114/114/114 120/120/120
f 28/28/28 34/34/34 108/108/108
f 108/108/108 100/100/100 28/28/28
f 3/3/3 4/4/4 76/76/76
f 76/76/76 73/73/73 3/3/3
f 9/9/9 2/2/2 74/74/74
f 74/74/74 80/80/80 9/9/9
f 14/14/14 16/16/16 88/88/88
f 88/88/88 85/85/85 14/14/14
f 21/21/21 13/13/13 86/86/86
f 86/86/86 93/93/93 21/21/21
f 35/35/35 31/31/31 105/105/105
f 105/105/105 107/107/107 35/35/35
f 27/27/27 29/29/29 101/101/101
f 101/101/101 97/97/97 27/27/27
f 32/32/32 25/25/25 98/98/98
f 98/98/98 103/103/103 32/32/32
f 17/17/17 23/23/23 95/95/95
f 95/95/95 89/89/89 17/17/17
f 39/39/39 42/42/42 112/112/112
f 112/112/112 111/111/111 39/39/39
f 43/43/43 38/38/38 110/110/110
f 110/110/110 115/115/115 43/43/43
f 51/51/51 54/54/54 125/125/125
f 125/125/125 123/123/123 51/51/51
f 59/59/59 49/49/49 121/121/121
f 121/121/121 130/130/130 59/59/59
f 22/22/22 19/19/19 92/92/92
f 92/92/92 94/94/94 22/22/22
f 64/64/64 63/63/63 134/134/134
f 134/134/134 136/136/136 64/64/64
f 62/62/62 71/71/71 144/144/144
f 144/144/144 133/133/133 62/62/62
f 5/5/5 11/11/11 82/82/82
f 82/82/82 77/77/77 5/5/5
f 12/12/12 8/8/8 79/79/79
f 79/79/79 83/83/83 12/12/12
f 53/53/53 57/57/57 127/127/127
f 127/127/127 126/126/126 53/53/53
f 70/70/70 67/67/67 141/141/141
f 141/141/141 143/143/143 70/70/70
f 56/56/56 58/58/58 131/131/131
f 131/131/131 128/128/128 56/56/56
f 40/40/40 46/46/46 119/119/119
f 119/119/119 113/113/113 40/40/40
f 69/69/69 66/66/66 137/137/137
f 137/137/137 139/139/139 69/69/69
f 47/47/47 44/44/44 116/116/116
f 116/116/116 118/118/118 47/47/47

