mtllib material.mtl
usemtl Material-金属__1_
v -0.31873800 -0.00838100 0.05655500
v -0.31886500 -0.00686800 0.06935100
v -0.32086500 0.00199700 0.06934600
v -0.31200700 -0.01122800 0.05748300
v -0.31144300 -0.01141500 0.06934000
v -0.30289800 -0.01025700 0.05659500
v -0.30258100 -0.00941400 0.06935600
v -0.29696100 0.00018200 0.05619900
v -0.29803500 -0.00199300 0.06934800
v -0.30633700 0.01120400 0.05714500
v -0.30745600 0.01141500 0.06928400
v -0.30003500 0.00686800 0.06935300
v -0.32114500 0.00221600 0.05636200
v -0.32086500 0.00199700 0.06934600
v -0.31631700 0.00941600 0.06935900
v -0.31542200 0.01033500 0.05635500
v -0.29953500 0.00630600 0.05752100
v -0.31200700 -0.01122800 0.05748300
v -0.31873800 -0.00838100 0.05655500
v -0.30289800 -0.01025700 0.05659500
v -0.29696100 0.00018200 0.05619900
v -0.30633700 0.01120400 0.05714500
v -0.29953500 0.00630600 0.05752100
v -0.29803500 -0.00199300 0.06934800
v -0.31144300 -0.01141500 0.06934000
v -0.30258100 -0.00941400 0.06935600
v -0.32086500 0.00199700 0.06934600
v -0.31886500 -0.00686800 0.06935100
v -0.30003500 0.00686800 0.06935300
v -0.31631700 0.00941600 0.06935900
v -0.30745600 0.01141500 0.06928400
v -0.29696100 0.00018200 0.05619900
v -0.30289800 -0.01025700 0.05659500
v -0.32114500 0.00221600 0.05636200
v -0.31542200 0.01033500 0.05635500
v -0.30633700 0.01120400 0.05714500
v -0.31873800 -0.00838100 0.05655500
v -0.32114500 0.00221600 0.05636200
vn -0.75320000 -0.65780000 0.00000000
vn -0.80810000 -0.58910000 0.00000000
vn -0.98650000 0.16360000 -0.00000000
vn -0.22200000 -0.97500000 -0.00000000
vn -0.17190000 -0.98510000 -0.00000000
vn 0.54050000 -0.84140000 0.00000000
vn 0.58960000 -0.80770000 -0.00000000
vn 1.00000000 -0.00830000 -0.00000000
vn 0.98510000 -0.17190000 0.00000000
vn 0.26130000 0.96530000 -0.00000000
vn 0.17200000 0.98510000 0.00000000
vn 0.80780000 0.58950000 -0.00000000
vn -0.98280000 0.18440000 0.00000000
vn -0.98420000 0.17710000 0.00000000
vn -0.58970000 0.80760000 0.00000000
vn -0.50590000 0.86260000 -0.00000000
vn 0.84430000 0.53590000 -0.00000000
vn 0.00000000 -0.00010000 1.00000000
vn 0.00000000 -0.00010000 1.00000000
vn 0.00000000 -0.00010000 1.00000000
vn -0.00000000 -0.00000000 1.00000000
vn -0.00000000 -0.00000000 1.00000000
vn -0.00000000 -0.00000000 1.00000000
vn -0.00000000 -0.00000000 1.00000000
vn -0.00000000 -0.00000000 1.00000000
vn -0.00000000 -0.00000000 1.00000000
vn -0.00000000 -0.00000000 1.00000000
vn -0.00000000 -0.00000000 1.00000000
vn -0.00000000 -0.00000000 1.00000000
vn -0.00000000 -0.00000000 1.00000000
vn -0.00000000 -0.00000000 1.00000000
vn 0.00000000 -0.00000000 -1.00000000
vn 0.00000000 -0.00000000 -1.00000000
vn 0.00000000 -0.00000000 -1.00000000
vn 0.00000000 -0.00000000 -1.00000000
vn 0.00000000 -0.00000000 -1.00000000
vn 0.00000000 -0.00000000 -1.00000000
vn -0.98330000 0.18190000 0.00000000
vt 0.34510800 0.44062000
vt 0.34227400 0.54380300
vt 0.32343300 0.54373400
vt 0.35823900 0.44793900
vt 0.35943900 0.54364000
vt 0.37722400 0.44087800
vt 0.37831800 0.54384200
vt 0.39992300 0.43768200
vt 0.39547800 0.54370100
vt 0.42930400 0.44520600
vt 0.43151500 0.54318800
vt 0.41435600 0.54382400
vt 0.46737800 0.43888900
vt 0.46753700 0.54365000
vt 0.45039400 0.54387600
vt 0.44824700 0.43893700
vt 0.41310200 0.44833700
vt 0.38613600 0.22320200
vt 0.54549900 0.26727700
vt 0.17280300 0.23494900
vt 0.02719100 0.44542100
vt 0.25404100 0.65602600
vt 0.10025200 0.55933700
vt 0.28174900 0.00260900
vt 0.06558000 0.25956600
vt 0.11148800 0.08972900
vt 0.37330900 0.44011000
vt 0.16990000 0.40179300
vt 0.48506700 0.04095000
vt 0.54350900 0.35296700
vt 0.58938000 0.18315400
vt 0.38069500 0.72612500
vt 0.51693100 0.52584800
vt 0.93566700 0.76448100
vt 0.80346200 0.92132600
vt 0.59548600 0.93777500
vt 0.88009100 0.56142100
vt 0.32292100 0.43898700
f 3/3/3 38/38/38 2/2/2
f 4/4/4 5/5/5 2/2/2
f 6/6/6 7/7/7 5/5/5
f 7/7/7 6/6/6 9/9/9
f 10/10/10 11/11/11 12/12/12
f 15/15/15 16/16/16 13/13/13
f 16/16/16 15/15/15 11/11/11
f 17/17/17 12/12/12 9/9/9
f 18/18/18 19/19/19 20/20/20
f 21/21/21 22/22/22 23/23/23
f 24/24/24 25/25/25 26/26/26
f 24/24/24 29/29/29 27/27/27
f 28/28/28 25/25/25 24/24/24
f 30/30/30 29/29/29 31/31/31
f 29/29/29 30/30/30 27/27/27
f 34/34/34 35/35/35 33/33/33
f 32/32/32 35/35/35 36/36/36
f 33/33/33 37/37/37 34/34/34
f 4/4/4 2/2/2 1/1/1
f 6/6/6 5/5/5 4/4/4
f 10/10/10 12/12/12 17/17/17
f 16/16/16 11/11/11 10/10/10
f 17/17/17 9/9/9 8/8/8
f 38/38/38 1/1/1 2/2/2
f 6/6/6 8/8/8 9/9/9
f 15/15/15 13/13/13 14/14/14
f 24/24/24 27/27/27 28/28/28
f 35/35/35 32/32/32 33/33/33

