mtllib material.mtl
usemtl Material-7011油漆.007
v 0.05801100 -0.01574700 0.07900000
v 0.05801100 -0.01574700 0.07900000
v 0.05801100 -0.01574700 0.07900000
v 0.05801100 -0.01574700 0.07970000
v 0.05801100 -0.01574700 0.07970000
v 0.05801100 -0.01574700 0.07970000
v 0.07589500 -0.01574700 0.07900000
v 0.07589500 -0.01574700 0.07900000
v 0.07589500 -0.01574700 0.07900000
v 0.07589500 -0.01574700 0.07970000
v 0.07589500 -0.01574700 0.07970000
v 0.07589500 -0.01574700 0.07970000
v 0.07589600 -0.01574700 0.07900000
v 0.07589600 -0.01574700 0.07900000
v 0.07589600 -0.01574700 0.07900000
v 0.07589600 -0.01574700 0.07970000
v 0.07589600 -0.01574700 0.07970000
v 0.07589600 -0.01574700 0.07970000
v 0.07589600 -0.00952700 0.07900000
v 0.07589600 -0.00952700 0.07900000
v 0.07589600 -0.00952700 0.07900000
v 0.07589600 -0.00952700 0.07970000
v 0.07589600 -0.00952700 0.07970000
v 0.07589600 -0.00952700 0.07970000
v 0.07589500 -0.00952700 0.07900000
v 0.07589500 -0.00952700 0.07900000
v 0.07589500 -0.00952700 0.07900000
v 0.07589500 -0.00952700 0.07970000
v 0.07589500 -0.00952700 0.07970000
v 0.07589500 -0.00952700 0.07970000
v 0.05801100 -0.00952700 0.07900000
v 0.05801100 -0.00952700 0.07900000
v 0.05801100 -0.00952700 0.07900000
v 0.05801100 -0.00952700 0.07970000
v 0.05801100 -0.00952700 0.07970000
v 0.05801100 -0.00952700 0.07970000
v 0.05801100 -0.00952700 0.07900000
v 0.05801100 -0.00952700 0.07900000
v 0.05801100 -0.00952700 0.07900000
v 0.05801100 -0.00952700 0.07970000
v 0.05801100 -0.00952700 0.07970000
v 0.05801100 -0.00952700 0.07970000
v 0.05801100 -0.01574700 0.07900000
v 0.05801100 -0.01574700 0.07900000
v 0.05801100 -0.01574700 0.07900000
v 0.05801100 -0.01574700 0.07970000
v 0.05801100 -0.01574700 0.07970000
v 0.05801100 -0.01574700 0.07970000
v 0.05801100 -0.01574700 0.07899900
v 0.05801100 -0.01574700 0.07899900
v 0.05801100 -0.01574700 0.07899900
v 0.07589500 -0.01574700 0.07899900
v 0.07589500 -0.01574700 0.07899900
v 0.07589500 -0.01574700 0.07899900
v 0.07589500 -0.00952700 0.07899900
v 0.07589500 -0.00952700 0.07899900
v 0.07589500 -0.00952700 0.07899900
v 0.05801100 -0.00952700 0.07899900
v 0.05801100 -0.00952700 0.07899900
v 0.05801100 -0.00952700 0.07899900
v 0.05801100 -0.01574700 0.07970000
v 0.05801100 -0.01574700 0.07970000
v 0.05801100 -0.01574700 0.07970000
v 0.07589500 -0.01574700 0.07970000
v 0.07589500 -0.01574700 0.07970000
v 0.07589500 -0.01574700 0.07970000
v 0.07589500 -0.00952700 0.07970000
v 0.07589500 -0.00952700 0.07970000
v 0.07589500 -0.00952700 0.07970000
v 0.05801100 -0.00952700 0.07970000
v 0.05801100 -0.00952700 0.07970000
v 0.05801100 -0.00952700 0.07970000
v 0.05801100 -0.01574600 0.07900000
v 0.05801100 -0.01574600 0.07900000
v 0.05801100 -0.01574600 0.07900000
v 0.05801100 -0.01574600 0.07970000
v 0.05801100 -0.01574600 0.07970000
v 0.05801100 -0.01574600 0.07970000
v 0.07589500 -0.01574600 0.07900000
v 0.07589500 -0.01574600 0.07900000
v 0.07589500 -0.01574600 0.07900000
v 0.07589500 -0.01574600 0.07970000
v 0.07589500 -0.01574600 0.07970000
v 0.07589500 -0.01574600 0.07970000
v 0.07589500 -0.01574700 0.07900000
v 0.07589500 -0.01574700 0.07900000
v 0.07589500 -0.01574700 0.07900000
v 0.07589500 -0.01574700 0.07970000
v 0.07589500 -0.01574700 0.07970000
v 0.07589500 -0.01574700 0.07970000
v 0.07589500 -0.00952700 0.07900000
v 0.07589500 -0.00952700 0.07900000
v 0.07589500 -0.00952700 0.07900000
v 0.07589500 -0.00952700 0.07970000
v 0.07589500 -0.00952700 0.07970000
v 0.07589500 -0.00952700 0.07970000
v 0.07589500 -0.00952800 0.07900000
v 0.07589500 -0.00952800 0.07900000
v 0.07589500 -0.00952800 0.07900000
v 0.07589500 -0.00952800 0.07970000
v 0.07589500 -0.00952800 0.07970000
v 0.07589500 -0.00952800 0.07970000
v 0.05801100 -0.00952800 0.07900000
v 0.05801100 -0.00952800 0.07900000
v 0.05801100 -0.00952800 0.07900000
v 0.05801100 -0.00952800 0.07970000
v 0.05801100 -0.00952800 0.07970000
v 0.05801100 -0.00952800 0.07970000
v 0.05801200 -0.00952700 0.07900000
v 0.05801200 -0.00952700 0.07900000
v 0.05801200 -0.00952700 0.07900000
v 0.05801200 -0.00952700 0.07970000
v 0.05801200 -0.00952700 0.07970000
v 0.05801200 -0.00952700 0.07970000
v 0.05801200 -0.01574700 0.07900000
v 0.05801200 -0.01574700 0.07900000
v 0.05801200 -0.01574700 0.07900000
v 0.05801200 -0.01574700 0.07970000
v 0.05801200 -0.01574700 0.07970000
v 0.05801200 -0.01574700 0.07970000
v 0.05801100 -0.01574700 0.07900000
v 0.05801100 -0.01574700 0.07900000
v 0.05801100 -0.01574700 0.07900000
v 0.07589500 -0.01574700 0.07900000
v 0.07589500 -0.01574700 0.07900000
v 0.07589500 -0.01574700 0.07900000
v 0.07589500 -0.00952700 0.07900000
v 0.07589500 -0.00952700 0.07900000
v 0.07589500 -0.00952700 0.07900000
v 0.05801100 -0.00952700 0.07900000
v 0.05801100 -0.00952700 0.07900000
v 0.05801100 -0.00952700 0.07900000
v 0.05801100 -0.01574700 0.07969900
v 0.05801100 -0.01574700 0.07969900
v 0.05801100 -0.01574700 0.07969900
v 0.07589500 -0.01574700 0.07969900
v 0.07589500 -0.01574700 0.07969900
v 0.07589500 -0.01574700 0.07969900
v 0.07589500 -0.00952700 0.07969900
v 0.07589500 -0.00952700 0.07969900
v 0.07589500 -0.00952700 0.07969900
v 0.05801100 -0.00952700 0.07969900
v 0.05801100 -0.00952700 0.07969900
v 0.05801100 -0.00952700 0.07969900
vn 0.00000000 -1.00000000 0.00000000
vn 0.00000000 0.00000000 -1.00000000
vn -1.00000000 0.00000000 0.00000000
vn -1.00000000 0.00000000 0.00000000
vn 0.00000000 -1.00000000 0.00000000
vn 0.00000000 0.00000000 1.00000000
vn 1.00000000 0.00000000 0.00000000
vn 0.00000000 -1.00000000 0.00000000
vn 0.00000000 0.00000000 -1.00000000
vn 1.00000000 0.00000000 0.00000000
vn 0.00000000 -1.00000000 0.00000000
vn 0.00000000 0.00000000 1.00000000
vn 0.00000000 0.00000000 -1.00000000
vn 1.00000000 0.00000000 0.00000000
vn 0.00000000 -1.00000000 0.00000000
vn 0.00000000 -1.00000000 0.00000000
vn 0.00000000 0.00000000 1.00000000
vn 1.00000000 0.00000000 0.00000000
vn 1.00000000 0.00000000 0.00000000
vn 0.00000000 0.00000000 -1.00000000
vn 0.00000000 1.00000000 0.00000000
vn 0.00000000 1.00000000 0.00000000
vn 1.00000000 0.00000000 0.00000000
vn 0.00000000 0.00000000 1.00000000
vn 0.00000000 1.00000000 0.00000000
vn 1.00000000 0.00000000 0.00000000
vn 0.00000000 0.00000000 -1.00000000
vn 0.00000000 1.00000000 0.00000000
vn 1.00000000 0.00000000 0.00000000
vn 0.00000000 0.00000000 1.00000000
vn 0.00000000 0.00000000 -1.00000000
vn 0.00000000 1.00000000 0.00000000
vn -1.00000000 0.00000000 0.00000000
vn 0.00000000 0.00000000 1.00000000
vn 0.00000000 1.00000000 0.00000000
vn -1.00000000 0.00000000 0.00000000
vn 0.00000000 1.00000000 0.00000000
vn 0.00000000 0.00000000 -1.00000000
vn -1.00000000 0.00000000 0.00000000
vn -1.00000000 0.00000000 0.00000000
vn 0.00000000 0.00000000 1.00000000
vn 0.00000000 1.00000000 0.00000000
vn 0.00000000 0.00000000 -1.00000000
vn -1.00000000 0.00000000 0.00000000
vn 0.00000000 -1.00000000 0.00000000
vn 0.00000000 -1.00000000 0.00000000
vn -1.00000000 0.00000000 0.00000000
vn 0.00000000 0.00000000 1.00000000
vn -1.00000000 0.00000000 0.00000000
vn 0.00000000 0.00000000 -1.00000000
vn 0.00000000 -1.00000000 0.00000000
vn 1.00000000 0.00000000 0.00000000
vn 0.00000000 0.00000000 -1.00000000
vn 0.00000000 -1.00000000 0.00000000
vn 1.00000000 0.00000000 0.00000000
vn 0.00000000 1.00000000 0.00000000
vn 0.00000000 0.00000000 -1.00000000
vn 0.00000000 0.00000000 -1.00000000
vn -1.00000000 0.00000000 0.00000000
vn 0.00000000 1.00000000 0.00000000
vn 0.00000000 0.00000000 1.00000000
vn -1.00000000 0.00000000 0.00000000
vn 0.00000000 -1.00000000 0.00000000
vn 0.00000000 -1.00000000 0.00000000
vn 1.00000000 0.00000000 0.00000000
vn 0.00000000 0.00000000 1.00000000
vn 1.00000000 0.00000000 0.00000000
vn 0.00000000 1.00000000 0.00000000
vn 0.00000000 0.00000000 1.00000000
vn -1.00000000 0.00000000 0.00000000
vn 0.00000000 0.00000000 1.00000000
vn 0.00000000 1.00000000 0.00000000
vn 0.00000000 1.00000000 0.00000000
vn 0.00000000 0.00000000 -1.00000000
vn -1.00000000 0.00000000 0.00000000
vn 0.00000000 1.00000000 0.00000000
vn -1.00000000 0.00000000 0.00000000
vn 0.00000000 0.00000000 1.00000000
vn 1.00000000 0.00000000 0.00000000
vn 0.00000000 0.00000000 -1.00000000
vn 0.00000000 1.00000000 0.00000000
vn 0.00000000 0.00000000 1.00000000
vn 1.00000000 0.00000000 0.00000000
vn 0.00000000 1.00000000 0.00000000
vn 0.00000000 -1.00000000 0.00000000
vn -1.00000000 0.00000000 0.00000000
vn 0.00000000 0.00000000 -1.00000000
vn 0.00000000 0.00000000 1.00000000
vn 0.00000000 -1.00000000 0.00000000
vn -1.00000000 0.00000000 0.00000000
vn -1.00000000 0.00000000 0.00000000
vn 0.00000000 1.00000000 0.00000000
vn 0.00000000 0.00000000 -1.00000000
vn 0.00000000 1.00000000 0.00000000
vn -1.00000000 0.00000000 0.00000000
vn 0.00000000 0.00000000 1.00000000
vn 0.00000000 0.00000000 -1.00000000
vn 0.00000000 -1.00000000 0.00000000
vn 1.00000000 0.00000000 0.00000000
vn 0.00000000 -1.00000000 0.00000000
vn 0.00000000 0.00000000 1.00000000
vn 1.00000000 0.00000000 0.00000000
vn 0.00000000 0.00000000 -1.00000000
vn 0.00000000 -1.00000000 0.00000000
vn -1.00000000 0.00000000 0.00000000
vn 0.00000000 0.00000000 1.00000000
vn 0.00000000 -1.00000000 0.00000000
vn -1.00000000 0.00000000 0.00000000
vn 1.00000000 0.00000000 0.00000000
vn 0.00000000 0.00000000 -1.00000000
vn 0.00000000 1.00000000 0.00000000
vn 0.00000000 1.00000000 0.00000000
vn 0.00000000 0.00000000 1.00000000
vn 1.00000000 0.00000000 0.00000000
vn 0.00000000 0.00000000 -1.00000000
vn 0.00000000 -1.00000000 0.00000000
vn 1.00000000 0.00000000 0.00000000
vn 0.00000000 -1.00000000 0.00000000
vn 0.00000000 0.00000000 1.00000000
vn 1.00000000 0.00000000 0.00000000
vn -1.00000000 0.00000000 0.00000000
vn 0.00000000 0.00000000 1.00000000
vn 0.00000000 -1.00000000 0.00000000
vn 0.00000000 0.00000000 1.00000000
vn 0.00000000 -1.00000000 0.00000000
vn 1.00000000 0.00000000 0.00000000
vn 1.00000000 0.00000000 0.00000000
vn 0.00000000 1.00000000 0.00000000
vn 0.00000000 0.00000000 1.00000000
vn -1.00000000 0.00000000 0.00000000
vn 0.00000000 1.00000000 0.00000000
vn 0.00000000 0.00000000 1.00000000
vn -1.00000000 0.00000000 0.00000000
vn 0.00000000 -1.00000000 0.00000000
vn 0.00000000 0.00000000 -1.00000000
vn 0.00000000 -1.00000000 0.00000000
vn 1.00000000 0.00000000 0.00000000
vn 0.00000000 0.00000000 -1.00000000
vn 0.00000000 0.00000000 -1.00000000
vn 1.00000000 0.00000000 0.00000000
vn 0.00000000 1.00000000 0.00000000
vn -1.00000000 0.00000000 0.00000000
vn 0.00000000 0.00000000 -1.00000000
vn 0.00000000 1.00000000 0.00000000
vt 0.00000000 0.00000000
vt 0.00000000 0.00000000
vt 0.00000000 0.00000000
vt 0.00000000 0.52663800
vt 0.00000000 0.52663800
vt 0.00000000 0.52663800
vt 0.37098400 0.00000000
vt 0.37098400 0.00000000
vt 0.37098400 0.00000000
vt 0.37098400 0.52663800
vt 0.37098400 0.52663800
vt 0.37098400 0.52663800
vt 0.37098400 0.00000000
vt 0.37098400 0.00000000
vt 0.37098400 0.00000000
vt 0.37098400 0.52663800
vt 0.37098400 0.52663800
vt 0.37098400 0.52663800
vt 0.50000000 0.00000000
vt 0.50000000 0.00000000
vt 0.50000000 0.00000000
vt 0.50000000 0.52663800
vt 0.50000000 0.52663800
vt 0.50000000 0.52663800
vt 0.50000000 0.00000000
vt 0.50000000 0.00000000
vt 0.50000000 0.00000000
vt 0.50000000 0.52663800
vt 0.50000000 0.52663800
vt 0.50000000 0.52663800
vt 0.87098400 0.00000000
vt 0.87098400 0.00000000
vt 0.87098400 0.00000000
vt 0.87098400 0.52663800
vt 0.87098400 0.52663800
vt 0.87098400 0.52663800
vt 0.87098400 0.00000000
vt 0.87098400 0.00000000
vt 0.87098400 0.00000000
vt 0.87098400 0.52663800
vt 0.87098400 0.52663800
vt 0.87098400 0.52663800
vt 1.00000000 0.00000000
vt 1.00000000 0.00000000
vt 1.00000000 0.00000000
vt 1.00000000 0.52663800
vt 1.00000000 0.52663800
vt 1.00000000 0.52663800
vt 0.00000000 1.00000000
vt 0.00000000 1.00000000
vt 0.00000000 1.00000000
vt 0.37098400 1.00000000
vt 0.37098400 1.00000000
vt 0.37098400 1.00000000
vt 0.37098400 0.52663900
vt 0.37098400 0.52663900
vt 0.37098400 0.52663900
vt 0.00000000 0.52663900
vt 0.00000000 0.52663900
vt 0.00000000 0.52663900
vt 0.62901600 0.52663900
vt 0.62901600 0.52663900
vt 0.62901600 0.52663900
vt 1.00000000 0.52663900
vt 1.00000000 0.52663900
vt 1.00000000 0.52663900
vt 1.00000000 1.00000000
vt 1.00000000 1.00000000
vt 1.00000000 1.00000000
vt 0.62901600 1.00000000
vt 0.62901600 1.00000000
vt 0.62901600 1.00000000
vt 0.00000000 0.00000000
vt 0.00000000 0.00000000
vt 0.00000000 0.00000000
vt 0.00000000 0.52663800
vt 0.00000000 0.52663800
vt 0.00000000 0.52663800
vt 0.37098400 0.00000000
vt 0.37098400 0.00000000
vt 0.37098400 0.00000000
vt 0.37098400 0.52663800
vt 0.37098400 0.52663800
vt 0.37098400 0.52663800
vt 0.37098400 0.00000000
vt 0.37098400 0.00000000
vt 0.37098400 0.00000000
vt 0.37098400 0.52663800
vt 0.37098400 0.52663800
vt 0.37098400 0.52663800
vt 0.50000000 0.00000000
vt 0.50000000 0.00000000
vt 0.50000000 0.00000000
vt 0.50000000 0.52663800
vt 0.50000000 0.52663800
vt 0.50000000 0.52663800
vt 0.50000000 0.00000000
vt 0.50000000 0.00000000
vt 0.50000000 0.00000000
vt 0.50000000 0.52663800
vt 0.50000000 0.52663800
vt 0.50000000 0.52663800
vt 0.87098400 0.00000000
vt 0.87098400 0.00000000
vt 0.87098400 0.00000000
vt 0.87098400 0.52663800
vt 0.87098400 0.52663800
vt 0.87098400 0.52663800
vt 0.87098400 0.00000000
vt 0.87098400 0.00000000
vt 0.87098400 0.00000000
vt 0.87098400 0.52663800
vt 0.87098400 0.52663800
vt 0.87098400 0.52663800
vt 1.00000000 0.00000000
vt 1.00000000 0.00000000
vt 1.00000000 0.00000000
vt 1.00000000 0.52663800
vt 1.00000000 0.52663800
vt 1.00000000 0.52663800
vt 0.00000000 1.00000000
vt 0.00000000 1.00000000
vt 0.00000000 1.00000000
vt 0.37098400 1.00000000
vt 0.37098400 1.00000000
vt 0.37098400 1.00000000
vt 0.37098400 0.52663900
vt 0.37098400 0.52663900
vt 0.37098400 0.52663900
vt 0.00000000 0.52663900
vt 0.00000000 0.52663900
vt 0.00000000 0.52663900
vt 0.62901600 0.52663900
vt 0.62901600 0.52663900
vt 0.62901600 0.52663900
vt 1.00000000 0.52663900
vt 1.00000000 0.52663900
vt 1.00000000 0.52663900
vt 1.00000000 1.00000000
vt 1.00000000 1.00000000
vt 1.00000000 1.00000000
vt 0.62901600 1.00000000
vt 0.62901600 1.00000000
vt 0.62901600 1.00000000
f 1/1/1 8/8/8 11/11/11
f 14/14/14 19/19/19 23/23/23
f 25/25/25 32/32/32 35/35/35
f 39/39/39 44/44/44 47/47/47
f 57/57/57 53/53/53 50/50/50
f 50/50/50 58/58/58 57/57/57
f 69/69/69 61/61/61 66/66/66
f 61/61/61 69/69/69 71/71/71
f 1/1/1 11/11/11 5/5/5
f 14/14/14 23/23/23 18/18/18
f 25/25/25 35/35/35 28/28/28
f 39/39/39 47/47/47 40/40/40
f 73/73/73 84/84/84 81/81/81
f 86/86/86 95/95/95 91/91/91
f 98/98/98 107/107/107 104/104/104
f 109/109/109 120/120/120 117/117/117
f 129/129/129 122/122/122 124/124/124
f 122/122/122 129/129/129 132/132/132
f 139/139/139 138/138/138 135/135/135
f 135/135/135 143/143/143 139/139/139
f 73/73/73 76/76/76 84/84/84
f 86/86/86 90/90/90 95/95/95
f 98/98/98 100/100/100 107/107/107
f 109/109/109 114/114/114 120/120/120
f 30/30/30 34/34/34 106/106/106
f 106/106/106 101/101/101 30/30/30
f 3/3/3 4/4/4 77/77/77
f 77/77/77 75/75/75 3/3/3
f 9/9/9 2/2/2 74/74/74
f 74/74/74 80/80/80 9/9/9
f 15/15/15 16/16/16 89/89/89
f 89/89/89 85/85/85 15/15/15
f 20/20/20 13/13/13 87/87/87
f 87/87/87 93/93/93 20/20/20
f 36/36/36 33/33/33 105/105/105
f 105/105/105 108/108/108 36/36/36
f 26/26/26 29/29/29 102/102/102
f 102/102/102 99/99/99 26/26/26
f 31/31/31 27/27/27 97/97/97
f 97/97/97 103/103/103 31/31/31
f 17/17/17 24/24/24 96/96/96
f 96/96/96 88/88/88 17/17/17
f 37/37/37 42/42/42 112/112/112
f 112/112/112 111/111/111 37/37/37
f 43/43/43 38/38/38 110/110/110
f 110/110/110 115/115/115 43/43/43
f 51/51/51 54/54/54 125/125/125
f 125/125/125 123/123/123 51/51/51
f 59/59/59 49/49/49 121/121/121
f 121/121/121 130/130/130 59/59/59
f 22/22/22 21/21/21 92/92/92
f 92/92/92 94/94/94 22/22/22
f 64/64/64 63/63/63 134/134/134
f 134/134/134 136/136/136 64/64/64
f 67/67/67 65/65/65 137/137/137
f 137/137/137 140/140/140 67/67/67
f 62/62/62 70/70/70 142/142/142
f 142/142/142 133/133/133 62/62/62
f 6/6/6 12/12/12 82/82/82
f 82/82/82 78/78/78 6/6/6
f 10/10/10 7/7/7 79/79/79
f 79/79/79 83/83/83 10/10/10
f 52/52/52 55/55/55 127/127/127
f 127/127/127 126/126/126 52/52/52
f 72/72/72 68/68/68 141/141/141
f 141/141/141 144/144/144 72/72/72
f 56/56/56 60/60/60 131/131/131
f 131/131/131 128/128/128 56/56/56
f 41/41/41 48/48/48 119/119/119
f 119/119/119 113/113/113 41/41/41
f 46/46/46 45/45/45 116/116/116
f 116/116/116 118/118/118 46/46/46

