mtllib material.mtl
usemtl Material-7024油漆.009
v -0.23909900 -0.10190600 0.02251100
v -0.23909900 -0.10190600 0.02251100
v -0.23909900 -0.10190600 0.02251100
v -0.23909700 -0.10761200 0.00967800
v -0.23909700 -0.10761200 0.00967800
v -0.23909700 -0.10761200 0.00967800
v -0.23909700 -0.10761200 0.00967800
v -0.23892100 -0.10434500 0.01829500
v -0.23905800 -0.10869400 -0.00190200
v -0.23905800 -0.10869400 -0.00190200
v -0.23909400 -0.10241000 -0.02166500
v -0.23909400 -0.10241000 -0.02166500
v -0.23909400 -0.10241000 -0.02166500
v -0.23909900 -0.07668400 -0.03940400
v -0.23909900 -0.07668400 -0.03940400
v -0.23909900 -0.07668400 -0.03940400
v -0.23910000 -0.06850000 -0.03975000
v -0.23910000 -0.06850000 -0.03975000
v -0.23910000 -0.06850000 -0.03975000
v -0.23902500 -0.08996200 -0.03403700
v -0.23887600 -0.09593200 -0.02944800
v -0.23874800 -0.10512700 -0.01677800
v -0.23895800 -0.10739200 -0.01044500
v -0.23895800 -0.10739200 -0.01044500
v -0.23910000 -0.06850000 0.03975000
v -0.23907100 -0.08771100 0.03535700
v -0.23896400 -0.07827900 0.03903800
v -0.23866800 -0.07342000 0.04000000
v -0.18402500 -0.07661700 -0.03940300
v -0.18467100 -0.06861600 -0.04022700
v -0.18198700 -0.06850000 -0.04025000
v -0.18198700 -0.07965300 -0.03867400
v -0.18198700 -0.09033900 -0.03381000
v -0.18400000 -0.08487100 -0.03677000
v -0.18198700 -0.09926800 -0.02595000
v -0.18198700 -0.10545100 -0.01596000
v -0.18400000 -0.10335800 -0.02012500
v -0.18400000 -0.09215800 -0.03256300
v -0.18198700 -0.10840900 -0.00522500
v -0.18400000 -0.10678000 -0.01243800
v -0.18398400 -0.10852800 0.00421400
v -0.18398200 -0.10852800 -0.00422200
v -0.18198700 -0.10835500 0.00562500
v -0.18400000 -0.10678000 0.01243800
v -0.18198700 -0.10514300 0.01665400
v -0.18198700 -0.09872100 0.02658500
v -0.18400000 -0.10335800 0.02012500
v -0.18198700 -0.08963900 0.03425200
v -0.18198700 -0.07909600 0.03883000
v -0.18404700 -0.08467500 0.03685100
v -0.18400000 -0.09215800 0.03256300
v -0.18224100 -0.06844100 0.04035600
v -0.18402400 -0.07672900 0.03938900
v -0.21559900 -0.09840100 -0.02694700
v -0.21509000 -0.09879000 -0.02584900
v -0.21563500 -0.10162500 -0.02290800
v -0.21559600 -0.10425900 -0.01847900
v -0.21511700 -0.10390000 -0.01838600
v -0.21563800 -0.10633000 -0.01383200
v -0.21509500 -0.10714700 -0.00960900
v -0.21557700 -0.10777300 -0.00881900
v -0.21559000 -0.09318500 -0.03179500
v -0.21505400 -0.08603500 -0.03623500
v -0.21510100 -0.09387300 -0.03064700
v -0.21560300 -0.09598000 -0.02941300
v -0.21506500 -0.10875400 -0.00033600
v -0.21560500 -0.10839700 -0.00533200
v -0.21560600 -0.10592100 0.01484600
v -0.21510300 -0.10539200 0.01503000
v -0.21559500 -0.10439400 0.01821700
v -0.21561800 -0.10746800 0.01024100
v -0.21503900 -0.10839400 0.00523500
v -0.21510000 -0.10092600 0.02320700
v -0.21559600 -0.10259700 0.02139300
v -0.21561800 -0.09931700 0.02595700
v -0.21509900 -0.09532100 0.02941000
v -0.21562700 -0.09184700 0.03283800
v -0.21525400 -0.08805700 0.03516500
v -0.21560300 -0.07346100 0.03996800
v -0.21508700 -0.06850300 0.03975800
v -0.21560000 -0.06850000 0.04025000
v -0.23909900 -0.07668400 -0.03940400
v -0.23910000 -0.06850000 -0.03975000
v -0.23851900 -0.07256700 -0.04009100
v -0.21279000 -0.07572000 0.03953500
v -0.21441700 -0.06852800 0.04046300
v -0.21502500 -0.07793700 0.03911500
v -0.21310000 -0.08156900 0.03806900
v -0.21518400 -0.08340600 0.03743500
v -0.21310000 -0.08765700 0.03539900
v -0.21462500 -0.09151500 0.03306100
v -0.21310000 -0.09811300 0.02726100
v -0.21463400 -0.09636800 0.02910300
v -0.21466600 -0.10216900 0.02230900
v -0.21310000 -0.09322200 0.03176300
v -0.21310000 -0.10536000 0.01616800
v -0.21310000 -0.10219600 0.02201500
v -0.21464300 -0.10633900 0.01393300
v -0.21298600 -0.10761400 0.00943100
v -0.21503900 -0.10839400 0.00523500
v -0.21310000 -0.10860900 0.00333900
v -0.21506500 -0.10875400 -0.00033600
v -0.21297100 -0.10862100 -0.00298500
v -0.21462700 -0.10814500 -0.00711100
v -0.21295400 -0.10762500 -0.00937100
v -0.21456400 -0.10631400 -0.01402200
v -0.21310000 -0.09811300 -0.02726100
v -0.21416500 -0.10249400 -0.02208700
v -0.21416500 -0.10249400 -0.02208700
v -0.21459200 -0.09663400 -0.02883900
v -0.21310000 -0.09322200 -0.03176300
v -0.21460200 -0.09039300 -0.03388100
v -0.21310000 -0.10536000 -0.01616800
v -0.21310000 -0.08765700 -0.03539900
v -0.21505400 -0.08603500 -0.03623500
v -0.21310000 -0.08156900 -0.03806900
v -0.21450600 -0.07610400 -0.03965700
v -0.21185600 -0.07485600 -0.03946800
v -0.21310000 -0.06850000 -0.04025000
v -0.21505700 -0.06850400 -0.04024400
v -0.23858800 -0.09322800 -0.03176400
v -0.23902500 -0.08996200 -0.03403700
v -0.21559200 -0.09021800 -0.03389100
v -0.23887600 -0.09593200 -0.02944800
v -0.21559000 -0.09318500 -0.03179500
v -0.23852900 -0.08564400 -0.03646500
v -0.21505400 -0.08603500 -0.03623500
v -0.23853500 -0.09931100 -0.02596000
v -0.21560300 -0.09598000 -0.02941300
v -0.21559600 -0.10425900 -0.01847900
v -0.23909400 -0.10241000 -0.02166500
v -0.21563500 -0.10162500 -0.02290800
v -0.23858000 -0.10841700 -0.00522200
v -0.23895800 -0.10739200 -0.01044500
v -0.21557700 -0.10777300 -0.00881900
v -0.23874800 -0.10512700 -0.01677800
v -0.21563800 -0.10633000 -0.01383200
v -0.23909700 -0.10761200 0.00967800
v -0.23850400 -0.10864700 0.00324500
v -0.21503900 -0.10839400 0.00523500
v -0.23905800 -0.10869400 -0.00190200
v -0.21560500 -0.10839700 -0.00533200
v -0.23858800 -0.10581600 0.01509200
v -0.21561800 -0.10746800 0.01024100
v -0.23909900 -0.10190600 0.02251100
v -0.23892100 -0.10434500 0.01829500
v -0.21559500 -0.10439400 0.01821700
v -0.21560600 -0.10592100 0.01484600
v -0.23859800 -0.09842800 0.02691700
v -0.21561800 -0.09931700 0.02595700
v -0.21562700 -0.09184700 0.03283800
v -0.23884300 -0.09507600 0.03027000
v -0.21560800 -0.09606200 0.02933800
v -0.23862400 -0.09069900 0.03357600
v -0.23907100 -0.08771100 0.03535700
v -0.21518400 -0.08340600 0.03743500
v -0.21525400 -0.08805700 0.03516500
v -0.23866800 -0.07342000 0.04000000
v -0.23896400 -0.07827900 0.03903800
v -0.21502500 -0.07793700 0.03911500
v -0.23853600 -0.08308600 0.03754600
v -0.21560000 -0.06850000 0.04025000
v -0.23860000 -0.06850000 0.04025000
v -0.21560300 -0.07346100 0.03996800
v -0.23896400 -0.07827900 0.03903800
v -0.23907100 -0.08771100 0.03535700
v -0.23853600 -0.08308600 0.03754600
v -0.23892100 -0.10434500 0.01829500
v -0.23909700 -0.10761200 0.00967800
v -0.23909700 -0.10761200 0.00967800
v -0.23858800 -0.10581600 0.01509200
v -0.23884300 -0.09507600 0.03027000
v -0.23884300 -0.09507600 0.03027000
v -0.23862400 -0.09069900 0.03357600
v -0.23905800 -0.10869400 -0.00190200
v -0.23905800 -0.10869400 -0.00190200
v -0.23850400 -0.10864700 0.00324500
v -0.23895800 -0.10739200 -0.01044500
v -0.23858000 -0.10841700 -0.00522200
v -0.23909400 -0.10241000 -0.02166500
v -0.23887600 -0.09593200 -0.02944800
v -0.23887600 -0.09593200 -0.02944800
v -0.23853500 -0.09931100 -0.02596000
v -0.23902500 -0.08996200 -0.03403700
v -0.23858800 -0.09322800 -0.03176400
v -0.23909900 -0.07668400 -0.03940400
v -0.23852900 -0.08564400 -0.03646500
v -0.21510100 -0.06850000 -0.03975000
v -0.21505700 -0.06850400 -0.04024400
v -0.21510000 -0.07273300 -0.03955900
v -0.21502500 -0.07793700 0.03911500
v -0.21441700 -0.06852800 0.04046300
v -0.21508700 -0.06850300 0.03975800
v -0.21518400 -0.08340600 0.03743500
v -0.21525400 -0.08805700 0.03516500
v -0.21462500 -0.09151500 0.03306100
v -0.21509900 -0.09532100 0.02941000
v -0.21463400 -0.09636800 0.02910300
v -0.21466600 -0.10216900 0.02230900
v -0.21510000 -0.10092600 0.02320700
v -0.21464300 -0.10633900 0.01393300
v -0.21510300 -0.10539200 0.01503000
v -0.21503900 -0.10839400 0.00523500
v -0.21509500 -0.10714700 -0.00960900
v -0.21456400 -0.10631400 -0.01402200
v -0.21462700 -0.10814500 -0.00711100
v -0.21511700 -0.10390000 -0.01838600
v -0.21416500 -0.10249400 -0.02208700
v -0.21509000 -0.09879000 -0.02584900
v -0.21459200 -0.09663400 -0.02883900
v -0.21450600 -0.07610400 -0.03965700
v -0.21510100 -0.09387300 -0.03064700
v -0.21460200 -0.09039300 -0.03388100
v -0.21505400 -0.08603500 -0.03623500
v -0.19206600 -0.10788200 -0.00440100
v -0.18929400 -0.10738900 -0.00358200
v -0.18838200 -0.10790000 -0.00127000
v -0.20394500 -0.10790000 -0.00443600
v -0.19035900 -0.10736400 0.00486800
v -0.19229300 -0.10790000 0.00443500
v -0.18847900 -0.10758400 0.00250100
v -0.20843900 -0.10752100 -0.00211300
v -0.20770400 -0.10788600 0.00147300
v -0.20648400 -0.10758400 -0.00452600
v -0.20548200 -0.10770700 0.00435400
v -0.19052500 -0.10740100 -0.00469900
v -0.20494600 -0.10752500 -0.00515800
v -0.19078400 -0.10782600 -0.00524200
v -0.20394500 -0.10790000 -0.00443600
v -0.20648400 -0.10758400 -0.00452600
v -0.19206600 -0.10788200 -0.00440100
v -0.18929400 -0.10738900 -0.00358200
v -0.19052500 -0.10740100 -0.00469900
v -0.18855000 -0.10787100 -0.00345900
v -0.18817400 -0.10740500 -0.00130200
v -0.18731800 -0.10793700 -0.00145100
v -0.18772600 -0.10773600 0.00216100
v -0.18847900 -0.10758400 0.00250100
v -0.18838200 -0.10790000 -0.00127000
v -0.20823700 -0.10746000 0.00244700
v -0.20548200 -0.10770700 0.00435400
v -0.20588700 -0.10759100 0.00489000
v -0.20770400 -0.10788600 0.00147300
v -0.20843900 -0.10752100 -0.00211300
v -0.20896700 -0.10800400 -0.00015500
v -0.20348100 -0.10790800 0.00548900
v -0.19035900 -0.10736400 0.00486800
v -0.19028900 -0.10789700 0.00503500
v -0.20588700 -0.10759100 0.00489000
v -0.20548200 -0.10770700 0.00435400
v -0.19229300 -0.10790000 0.00443500
v -0.18847900 -0.10758400 0.00250100
v -0.18772600 -0.10773600 0.00216100
v -0.19028900 -0.10789700 0.00503500
v -0.19035900 -0.10736400 0.00486800
v -0.20348100 -0.10790800 0.00548900
v -0.19028900 -0.10789700 0.00503500
v -0.18916400 -0.10819500 0.00535700
v -0.19078400 -0.10782600 -0.00524200
v -0.20494600 -0.10752500 -0.00515800
v -0.20566700 -0.10810200 -0.00527700
v -0.20995600 -0.10788200 0.00004400
v -0.20841000 -0.10819800 -0.00389900
v -0.20836400 -0.10801000 -0.00247400
v -0.20890800 -0.10814700 -0.00000400
v -0.20566700 -0.10810200 -0.00527700
v -0.20532300 -0.10820600 -0.00622400
v -0.19162400 -0.10820300 -0.00624600
v -0.20757300 -0.10803400 0.00392700
v -0.20841500 -0.10821200 0.00416800
v -0.20348100 -0.10790800 0.00548900
v -0.20470400 -0.10820000 0.00625800
v -0.18916400 -0.10819500 0.00535700
v -0.18685600 -0.10787800 -0.00259800
v -0.18731800 -0.10793700 -0.00145100
v -0.18917200 -0.10822100 -0.00518900
v -0.19078400 -0.10782600 -0.00524200
v -0.18621400 -0.10816600 0.00057600
v -0.18793600 -0.10802700 0.00263200
v -0.19028900 -0.10789700 0.00503500
v -0.19242100 -0.10819500 0.00627200
v -0.21295400 -0.10762500 -0.00937100
v -0.20649500 -0.10634300 -0.00560500
v -0.20878900 -0.10729000 -0.00366400
v -0.21297100 -0.10862100 -0.00298500
v -0.20995600 -0.10788200 0.00004400
v -0.21310000 -0.10860900 0.00333900
v -0.20832900 -0.10710000 0.00412300
v -0.21298600 -0.10761400 0.00943100
v -0.20649600 -0.10634200 0.00560900
v -0.20656400 -0.10487200 0.01185000
v -0.21185600 -0.07485600 -0.03946800
v -0.20673700 -0.06850400 -0.03825200
v -0.20660000 -0.07489900 -0.03771100
v -0.20660000 -0.08141400 -0.03600400
v -0.20660000 -0.08772700 -0.03306600
v -0.21310000 -0.08765700 -0.03539900
v -0.20660000 -0.09349400 -0.02895500
v -0.20660000 -0.09840300 -0.02385100
v -0.21310000 -0.09811300 -0.02726100
v -0.21310000 -0.09322200 -0.03176300
v -0.20660000 -0.10223100 -0.01803500
v -0.20973500 -0.10483300 -0.01478500
v -0.20657000 -0.10487300 -0.01184400
v -0.21310000 -0.06850000 -0.04025000
v -0.21310000 -0.08156900 -0.03806900
v -0.21416500 -0.10249400 -0.02208700
v -0.21310000 -0.10536000 -0.01616800
v -0.20660000 -0.10223100 0.01803500
v -0.20967400 -0.10455900 0.01539700
v -0.20660000 -0.09840300 0.02385100
v -0.20660000 -0.09349400 0.02895500
v -0.21310000 -0.09811300 0.02726100
v -0.20660000 -0.08772700 0.03306600
v -0.21310000 -0.09322200 0.03176300
v -0.20660000 -0.07489900 0.03771100
v -0.21279000 -0.07572000 0.03953500
v -0.20660000 -0.08141400 0.03600400
v -0.21310000 -0.08765700 0.03539900
v -0.20660000 -0.06850000 0.03825000
v -0.21108900 -0.06850900 0.03974300
v -0.21310000 -0.10536000 0.01616800
v -0.21310000 -0.10219600 0.02201500
v -0.21441700 -0.06852800 0.04046300
v -0.21310000 -0.08156900 0.03806900
v -0.23860200 -0.07999700 -0.03857200
v -0.23909900 -0.07668400 -0.03940400
v -0.22097500 -0.07635200 -0.03947700
v -0.23860000 -0.06850000 -0.04025000
v -0.21505700 -0.06850400 -0.04024400
v -0.23851900 -0.07256700 -0.04009100
v -0.21803800 -0.08018400 -0.03851700
v -0.21514800 -0.08377300 -0.03725600
v -0.23852900 -0.08564400 -0.03646500
v -0.18198700 -0.06850000 0.03975000
v -0.18224100 -0.06844100 0.04035600
v -0.18198700 -0.07909600 0.03883000
v -0.18198700 -0.06850000 -0.03975000
v -0.18198700 -0.07965300 -0.03867400
v -0.18198700 -0.06850000 -0.04025000
v -0.18198700 -0.09033900 -0.03381000
v -0.18198700 -0.08963900 0.03425200
v -0.18198700 -0.10514300 0.01665400
v -0.18198700 -0.09926800 -0.02595000
v -0.18198700 -0.09872100 0.02658500
v -0.18198700 -0.10835500 0.00562500
v -0.18198700 -0.10545100 -0.01596000
v -0.18198700 -0.10840900 -0.00522500
v -0.18725000 -0.08397500 0.03607000
v -0.18839400 -0.07630800 0.03811000
v -0.18887500 -0.08377800 0.03561100
v -0.18404700 -0.08467500 0.03685100
v -0.19060300 -0.10628300 0.00604500
v -0.18493300 -0.10771300 0.00770000
v -0.18725000 -0.10483600 0.01484100
v -0.18887500 -0.10437300 0.01465200
v -0.18398400 -0.10852800 0.00421400
v -0.18789600 -0.10732100 0.00419700
v -0.18621400 -0.10816600 0.00057600
v -0.18562500 -0.10529900 0.01503000
v -0.18725000 -0.10457000 -0.01547500
v -0.18493700 -0.10764500 -0.00803500
v -0.18871400 -0.10652800 -0.00772800
v -0.18887500 -0.10411100 -0.01527800
v -0.18398200 -0.10852800 -0.00422200
v -0.18685600 -0.10787800 -0.00259800
v -0.18562500 -0.10503000 -0.01567200
v -0.19042800 -0.07523800 -0.03767400
v -0.18724600 -0.08332100 -0.03635400
v -0.18887500 -0.08315200 -0.03587300
v -0.18467100 -0.06861600 -0.04022700
v -0.18402500 -0.07661700 -0.03940300
v -0.19050000 -0.06850000 0.03825000
v -0.19050000 -0.07485500 0.03771800
v -0.19050000 -0.08132400 0.03603600
v -0.19050000 -0.08759400 0.03314300
v -0.19050000 -0.09333100 0.02909500
v -0.19050000 -0.09823100 0.02406500
v -0.19050000 -0.10207300 0.01832700
v -0.18551800 -0.07269500 0.03959600
v -0.18400000 -0.09841200 0.02693300
v -0.19050000 -0.10475100 0.01220300
v -0.18562500 -0.06850000 0.03975000
v -0.18402400 -0.07672900 0.03938900
v -0.18224100 -0.06844100 0.04035600
v -0.18400000 -0.09215800 0.03256300
v -0.18400000 -0.10335800 0.02012500
v -0.18400000 -0.10678000 0.01243800
v -0.19024500 -0.10628100 -0.00600200
v -0.19050000 -0.10475100 -0.01220300
v -0.19050000 -0.10207300 -0.01832700
v -0.19050000 -0.09823100 -0.02406500
v -0.19050000 -0.09333100 -0.02909500
v -0.19050000 -0.08759400 -0.03314300
v -0.19050000 -0.08132400 -0.03603600
v -0.18579100 -0.06849200 -0.03976600
v -0.19050000 -0.06850000 -0.03825000
v -0.18400000 -0.09841200 -0.02693300
v -0.18400000 -0.10678000 -0.01243800
v -0.18400000 -0.08487100 -0.03677000
v -0.18400000 -0.10335800 -0.02012500
v -0.18400000 -0.09215800 -0.03256300
v -0.20657000 -0.10487300 -0.01184400
v -0.19050000 -0.10475100 -0.01220300
v -0.19024500 -0.10628100 -0.00600200
v -0.20660000 -0.09840300 -0.02385100
v -0.19050000 -0.09823100 -0.02406500
v -0.19050000 -0.10207300 -0.01832700
v -0.20660000 -0.10223100 -0.01803500
v -0.20660000 -0.08772700 -0.03306600
v -0.19050000 -0.08759400 -0.03314300
v -0.19050000 -0.09333100 -0.02909500
v -0.20660000 -0.07489900 -0.03771100
v -0.19042800 -0.07523800 -0.03767400
v -0.19050000 -0.08132400 -0.03603600
v -0.20673700 -0.06850400 -0.03825200
v -0.19050000 -0.06850000 -0.03825000
v -0.20660000 -0.08141400 -0.03600400
v -0.20660000 -0.09349400 -0.02895500
v -0.20660000 -0.07489900 0.03771100
v -0.19050000 -0.07485500 0.03771800
v -0.20660000 -0.06850000 0.03825000
v -0.20660000 -0.08772700 0.03306600
v -0.19050000 -0.08759400 0.03314300
v -0.20660000 -0.08141400 0.03600400
v -0.19050000 -0.08132400 0.03603600
v -0.20660000 -0.09840300 0.02385100
v -0.19050000 -0.09823100 0.02406500
v -0.20660000 -0.09349400 0.02895500
v -0.20656400 -0.10487200 0.01185000
v -0.19050000 -0.10475100 0.01220300
v -0.20660000 -0.10223100 0.01803500
v -0.20649600 -0.10634200 0.00560900
v -0.19060300 -0.10628300 0.00604500
v -0.19050000 -0.10207300 0.01832700
v -0.19050000 -0.09333100 0.02909500
v -0.19162400 -0.10820300 -0.00624600
v -0.19211700 -0.10620400 -0.00644500
v -0.19024500 -0.10628100 -0.00600200
v -0.18917200 -0.10822100 -0.00518900
v -0.18685600 -0.10787800 -0.00259800
v -0.20532300 -0.10820600 -0.00622400
v -0.20442200 -0.10620600 -0.00643000
v -0.19211700 -0.10620400 -0.00644500
v -0.20995600 -0.10788200 0.00004400
v -0.20878900 -0.10729000 -0.00366400
v -0.20841000 -0.10819800 -0.00389900
v -0.20649500 -0.10634300 -0.00560500
v -0.20532300 -0.10820600 -0.00622400
v -0.20442200 -0.10620600 -0.00643000
v -0.18621400 -0.10816600 0.00057600
v -0.18789600 -0.10732100 0.00419700
v -0.18916400 -0.10819500 0.00535700
v -0.19060300 -0.10628300 0.00604500
v -0.19212700 -0.10620300 0.00644600
v -0.19242100 -0.10819500 0.00627200
v -0.20440800 -0.10620600 0.00643000
v -0.20470400 -0.10820000 0.00625800
v -0.19212700 -0.10620300 0.00644600
v -0.20832900 -0.10710000 0.00412300
v -0.20841500 -0.10821200 0.00416800
v -0.20649600 -0.10634200 0.00560900
v -0.20470400 -0.10820000 0.00625800
v -0.20440800 -0.10620600 0.00643000
v -0.20995600 -0.10788200 0.00004400
v -0.20673700 -0.06850400 -0.03825200
v -0.21310000 -0.06850000 -0.04025000
v -0.21310000 -0.06850000 -0.04025000
v -0.21510100 -0.06850000 -0.03975000
v -0.21510100 -0.06850000 -0.03975000
v -0.21505700 -0.06850400 -0.04024400
v -0.21505700 -0.06850400 -0.04024400
v -0.23860000 -0.06850000 -0.04025000
v -0.23860000 -0.06850000 -0.04025000
v -0.23910000 -0.03177600 0.01521200
v -0.23910000 -0.03177600 -0.01521200
v -0.23910000 -0.03728400 -0.02461000
v -0.23910000 -0.02875500 -0.00062600
v -0.23910000 -0.04083800 0.02854600
v -0.23910000 -0.04582100 -0.03264500
v -0.23910000 -0.06850000 0.03975000
v -0.23910000 -0.05669600 -0.03795700
v -0.23910000 -0.06850000 -0.03975000
v -0.23910000 -0.05328800 0.03672400
v -0.18874700 -0.06521800 0.03962800
v -0.19642300 -0.06132300 0.03909900
v -0.22467400 -0.06542600 0.03965200
v -0.22482200 -0.06138800 0.03910900
v -0.19626500 -0.06166200 -0.03915700
v -0.18912600 -0.06509100 -0.03960400
v -0.22443700 -0.06140800 -0.03912600
v -0.22504100 -0.06558200 -0.03965700
v -0.23910000 -0.06850000 0.03975000
v -0.21508700 -0.06850300 0.03975800
v -0.21108900 -0.06850900 0.03974300
v -0.18562500 -0.06850000 0.03975000
v -0.23910000 -0.05328800 0.03672400
v -0.18198700 -0.05386800 0.03695900
v -0.23910000 -0.04083800 0.02854600
v -0.18198700 -0.04039300 0.02810700
v -0.23910000 -0.03177600 0.01521200
v -0.18198700 -0.06850000 0.03975000
v -0.18198700 -0.02875000 -0.00000000
v -0.23910000 -0.02875500 -0.00062600
v -0.18198700 -0.03154100 0.01463200
v -0.18198700 -0.03154100 -0.01463200
v -0.23910000 -0.04582100 -0.03264500
v -0.23910000 -0.03728400 -0.02461000
v -0.18198700 -0.04039300 -0.02810700
v -0.23910000 -0.03177600 -0.01521200
v -0.23910000 -0.06850000 -0.03975000
v -0.23910000 -0.05669600 -0.03795700
v -0.18198700 -0.05386800 -0.03695900
v -0.21510100 -0.06850000 -0.03975000
v -0.20673700 -0.06850400 -0.03825200
v -0.18579100 -0.06849200 -0.03976600
v -0.18198700 -0.06850000 -0.03975000
v -0.18198700 -0.03154100 -0.01463200
v -0.18198700 -0.02875000 -0.00000000
v -0.18198700 -0.03154100 0.01463200
v -0.18198700 -0.04039300 -0.02810700
v -0.18198700 -0.04039300 0.02810700
v -0.18198700 -0.06850000 -0.03975000
v -0.18198700 -0.05386800 0.03695900
v -0.18198700 -0.06850000 0.03975000
v -0.18198700 -0.05386800 -0.03695900
v -0.20660000 -0.06850000 0.03825000
v -0.19050000 -0.06850000 0.03825000
v -0.21108900 -0.06850900 0.03974300
v -0.18562500 -0.06850000 0.03975000
v -0.23860000 -0.06850000 0.04025000
v -0.23860000 -0.06850000 0.04025000
v -0.21560000 -0.06850000 0.04025000
v -0.21508700 -0.06850300 0.03975800
v -0.21508700 -0.06850300 0.03975800
v -0.23910000 -0.06850000 0.03975000
v -0.21441700 -0.06852800 0.04046300
v -0.21108900 -0.06850900 0.03974300
v -0.21508700 -0.06850300 0.03975800
v -0.18224100 -0.06844100 0.04035600
v -0.18198700 -0.06850000 0.03975000
v -0.18562500 -0.06850000 0.03975000
v -0.18467100 -0.06861600 -0.04022700
v -0.18579100 -0.06849200 -0.03976600
v -0.18198700 -0.06850000 -0.03975000
v -0.19050000 -0.06850000 -0.03825000
v -0.20673700 -0.06850400 -0.03825200
v -0.18579100 -0.06849200 -0.03976600
v -0.23884300 -0.09507600 0.03027000
v -0.18400000 -0.09841200 -0.02693300
v -0.18400000 -0.09841200 0.02693300
v -0.21514800 -0.08377300 -0.03725600
v -0.21510000 -0.08371200 -0.03672400
v -0.21559200 -0.09021800 -0.03389100
v -0.21560800 -0.09606200 0.02933800
v -0.21502500 -0.07793700 0.03911500
v -0.23860200 -0.07999700 -0.03857200
v -0.23852900 -0.08564400 -0.03646500
v -0.23860000 -0.06850000 -0.04025000
v -0.21559900 -0.09840100 -0.02694700
v -0.21506500 -0.10875400 -0.00033600
v -0.21559600 -0.10259700 0.02139300
v -0.21514800 -0.08377300 -0.03725600
v -0.23910000 -0.06850000 0.03975000
v -0.23866800 -0.07342000 0.04000000
v -0.23860000 -0.06850000 0.04025000
v -0.23909900 -0.10190600 0.02251100
v -0.23859800 -0.09842800 0.02691700
v -0.21509800 -0.07879900 -0.03845300
v -0.21506500 -0.10875400 -0.00033600
v -0.21510000 -0.08371200 -0.03672400
v -0.19206600 -0.10788200 -0.00440100
v -0.19078400 -0.10782600 -0.00524200
v -0.18917200 -0.10822100 -0.00518900
v -0.20649500 -0.10634300 -0.00560500
v -0.19050000 -0.06850000 0.03825000
v -0.19162400 -0.10820300 -0.00624600
v -0.19242100 -0.10819500 0.00627200
v -0.23910000 -0.06850000 -0.03975000
v -0.18198700 -0.06850000 -0.04025000
vn -1.00000000 -0.00010000 0.00000000
vn -1.00000000 0.00010000 0.00010000
vn -1.00000000 0.00000000 0.00000000
vn -1.00000000 -0.00010000 0.00000000
vn -1.00000000 0.00010000 0.00010000
vn -1.00000000 0.00000000 0.00000000
vn -1.00000000 -0.00030000 -0.00010000
vn -1.00000000 -0.00010000 0.00000000
vn -1.00000000 -0.00010000 0.00000000
vn -1.00000000 0.00000000 0.00000000
vn -1.00000000 -0.00010000 0.00000000
vn -1.00000000 0.00000000 0.00000000
vn -1.00000000 -0.00030000 -0.00010000
vn -1.00000000 -0.00010000 0.00000000
vn -1.00000000 0.00000000 0.00000000
vn -1.00000000 -0.00030000 -0.00010000
vn -1.00000000 0.00010000 0.00010000
vn -1.00000000 -0.00010000 0.00000000
vn -1.00000000 0.00000000 0.00000000
vn -1.00000000 0.00000000 0.00000000
vn -1.00000000 0.00000000 0.00000000
vn -1.00000000 0.00000000 0.00000000
vn -1.00000000 0.00000000 0.00000000
vn -1.00000000 -0.00010000 0.00000000
vn -1.00000000 0.00000000 0.00000000
vn -1.00000000 0.00000000 0.00000000
vn -1.00000000 0.00000000 0.00000000
vn -1.00000000 0.00000000 0.00000000
vn 0.00000000 -0.20180000 -0.97940000
vn -0.00000000 -0.00290000 -1.00000000
vn 0.00000000 -0.00000000 -1.00000000
vn 0.00000000 -0.27710000 -0.96080000
vn 0.00000000 -0.54260000 -0.84000000
vn 0.00000000 -0.40670000 -0.91350000
vn -0.00000000 -0.76440000 -0.64470000
vn -0.00000000 -0.91800000 -0.39650000
vn 0.00000000 -0.86600000 -0.50000000
vn 0.00000000 -0.58780000 -0.80900000
vn 0.00000000 -0.99150000 -0.12980000
vn -0.00000000 -0.95110000 -0.30900000
vn 0.00000000 -0.99450000 0.10470000
vn 0.00000000 -0.99450000 -0.10490000
vn 0.00000000 -0.99020000 0.13980000
vn -0.00000000 -0.95110000 0.30900000
vn 0.00000000 -0.91040000 0.41380000
vn -0.00000000 -0.75080000 0.66050000
vn 0.00000000 -0.86600000 0.50000000
vn 0.00000000 -0.52520000 0.85100000
vn -0.00000000 -0.26330000 0.96470000
vn 0.00000000 -0.40190000 0.91570000
vn 0.00000000 -0.58780000 0.80900000
vn -0.00000000 0.00170000 1.00000000
vn 0.00000000 -0.20450000 0.97890000
vn 0.70710000 -0.52530000 -0.47340000
vn 0.70640000 -0.53850000 -0.45940000
vn 0.70700000 -0.58160000 -0.40240000
vn 0.70700000 -0.62830000 -0.32460000
vn 0.70590000 -0.62860000 -0.32640000
vn 0.70690000 -0.66430000 -0.24290000
vn 0.70640000 -0.68690000 -0.17080000
vn 0.70690000 -0.69010000 -0.15490000
vn 0.70700000 -0.43380000 -0.55860000
vn 0.70530000 -0.30900000 -0.63800000
vn 0.70680000 -0.45120000 -0.54490000
vn 0.70710000 -0.48280000 -0.51670000
vn 0.70580000 -0.70840000 -0.00590000
vn 0.70710000 -0.70090000 -0.09370000
vn 0.70700000 -0.65740000 0.26080000
vn 0.70630000 -0.65560000 0.26700000
vn 0.70700000 -0.63070000 0.32000000
vn 0.70680000 -0.68420000 0.17970000
vn 0.70620000 -0.70200000 0.09220000
vn 0.70600000 -0.57590000 0.41220000
vn 0.70700000 -0.59900000 0.37580000
vn 0.70680000 -0.54110000 0.45560000
vn 0.70660000 -0.47690000 0.52280000
vn 0.70690000 -0.40970000 0.57660000
vn 0.70610000 -0.34410000 0.61900000
vn 0.70690000 -0.08730000 0.70190000
vn 0.70650000 -0.00030000 0.70770000
vn 0.70710000 0.00000000 0.70710000
vn -0.70640000 -0.14420000 -0.69300000
vn -0.70710000 -0.00000000 -0.70710000
vn -0.70680000 -0.07150000 -0.70380000
vn -0.00000000 -0.17950000 0.98380000
vn 0.00000000 -0.00060000 1.00000000
vn 0.00000000 -0.23430000 0.97220000
vn -0.00000000 -0.32470000 0.94580000
vn 0.00000000 -0.37000000 0.92900000
vn -0.00000000 -0.47590000 0.87950000
vn -0.00000000 -0.57130000 0.82070000
vn -0.00000000 -0.73570000 0.67730000
vn 0.00000000 -0.69160000 0.72230000
vn -0.00000000 -0.83360000 0.55230000
vn -0.00000000 -0.61420000 0.78910000
vn 0.00000000 -0.91580000 0.40170000
vn -0.00000000 -0.83720000 0.54690000
vn -0.00000000 -0.93840000 0.34550000
vn 0.00000000 -0.97210000 0.23450000
vn 0.00000000 -0.99150000 0.13030000
vn -0.00000000 -0.99660000 0.08290000
vn 0.00000000 -1.00000000 -0.00830000
vn -0.00000000 -0.99720000 -0.07420000
vn 0.00000000 -0.98430000 -0.17660000
vn -0.00000000 -0.97250000 -0.23300000
vn -0.00000000 -0.93760000 -0.34770000
vn 0.00000000 -0.73570000 -0.67730000
vn -0.00000000 -0.83850000 -0.54480000
vn 0.00000000 -0.83850000 -0.54490000
vn -0.00000000 -0.69830000 -0.71580000
vn 0.00000000 -0.61420000 -0.78910000
vn 0.00000000 -0.54280000 -0.83990000
vn -0.00000000 -0.91580000 -0.40170000
vn -0.00000000 -0.47600000 -0.87950000
vn 0.00000000 -0.43520000 -0.90030000
vn -0.00000000 -0.32470000 -0.94580000
vn -0.00000000 -0.18830000 -0.98210000
vn -0.00000000 -0.15910000 -0.98730000
vn 0.00000000 -0.00000000 -1.00000000
vn 0.00000000 -0.00020000 -1.00000000
vn -0.00000000 -0.61430000 -0.78910000
vn 0.00000000 -0.53340000 -0.84590000
vn -0.00000000 -0.53960000 -0.84190000
vn 0.00000000 -0.68160000 -0.73170000
vn -0.00010000 -0.61300000 -0.79010000
vn -0.00000000 -0.42550000 -0.90500000
vn 0.00000000 -0.43570000 -0.90010000
vn 0.00000000 -0.76470000 -0.64430000
vn 0.00000000 -0.68270000 -0.73070000
vn 0.00000000 -0.88840000 -0.45910000
vn -0.00000000 -0.84270000 -0.53840000
vn -0.00000000 -0.82250000 -0.56880000
vn 0.00000000 -0.99160000 -0.12970000
vn -0.00000000 -0.96580000 -0.25940000
vn 0.00000000 -0.97570000 -0.21910000
vn -0.00000000 -0.90920000 -0.41650000
vn 0.00000000 -0.93920000 -0.34340000
vn -0.00000000 -0.97070000 0.24020000
vn -0.00000000 -0.99670000 0.08060000
vn -0.00000000 -0.99150000 0.13010000
vn -0.00000000 -0.99890000 -0.04730000
vn -0.00000000 -0.99120000 -0.13250000
vn -0.00000000 -0.92710000 0.37490000
vn 0.00000000 -0.96710000 0.25420000
vn 0.00000000 -0.82930000 0.55880000
vn -0.00000000 -0.89070000 0.45460000
vn -0.00000000 -0.89160000 0.45280000
vn -0.00000000 -0.92950000 0.36880000
vn -0.00000000 -0.74350000 0.66870000
vn 0.00000000 -0.76480000 0.64420000
vn -0.00000000 -0.57940000 0.81500000
vn 0.00000000 -0.65980000 0.75150000
vn 0.00000000 -0.68470000 0.72880000
vn -0.00000000 -0.55150000 0.83410000
vn -0.00000000 -0.47740000 0.87870000
vn -0.00000000 -0.36990000 0.92910000
vn 0.00000000 -0.48600000 0.87390000
vn 0.00000000 -0.12210000 0.99250000
vn 0.00000000 -0.24310000 0.97000000
vn -0.00000000 -0.23460000 0.97210000
vn -0.00000000 -0.36210000 0.93220000
vn 0.00000000 0.00000000 1.00000000
vn 0.00000000 0.00000000 1.00000000
vn -0.00000000 -0.12320000 0.99240000
vn -0.70600000 -0.17190000 0.68700000
vn -0.70590000 -0.33820000 0.62230000
vn -0.70690000 -0.25620000 0.65930000
vn -0.70630000 -0.63050000 0.32180000
vn -0.70550000 -0.68800000 0.17000000
vn -0.70560000 -0.68790000 0.17010000
vn -0.70720000 -0.65540000 0.26520000
vn -0.70670000 -0.46680000 0.53170000
vn -0.70670000 -0.46670000 0.53170000
vn -0.70680000 -0.39010000 0.59010000
vn -0.70570000 -0.70770000 -0.03360000
vn -0.70580000 -0.70770000 -0.03350000
vn -0.70720000 -0.70480000 0.05690000
vn -0.70650000 -0.68350000 -0.18360000
vn -0.70720000 -0.70100000 -0.09180000
vn -0.70590000 -0.59680000 -0.38150000
vn -0.70640000 -0.48250000 -0.51790000
vn -0.70640000 -0.48240000 -0.51790000
vn -0.70710000 -0.54080000 -0.45560000
vn -0.70620000 -0.37760000 -0.59890000
vn -0.70710000 -0.43450000 -0.55790000
vn -0.69800000 -0.14820000 -0.70060000
vn -0.70710000 -0.30090000 -0.63990000
vn -0.70700000 -0.00760000 -0.70720000
vn -0.70680000 -0.00010000 -0.70740000
vn -0.70670000 -0.07520000 -0.70350000
vn -0.70480000 -0.16630000 0.68960000
vn -0.70600000 -0.00020000 0.70820000
vn -0.70670000 -0.00030000 0.70760000
vn -0.70560000 -0.26240000 0.65830000
vn -0.70590000 -0.34400000 0.61920000
vn -0.70670000 -0.40430000 0.58070000
vn -0.70660000 -0.47670000 0.52290000
vn -0.70660000 -0.48940000 0.51110000
vn -0.70570000 -0.59050000 0.39150000
vn -0.70600000 -0.57590000 0.41220000
vn -0.70630000 -0.66430000 0.24470000
vn -0.70630000 -0.65560000 0.26710000
vn -0.70480000 -0.70340000 0.09260000
vn -0.70650000 -0.68680000 -0.17080000
vn -0.70650000 -0.66350000 -0.24610000
vn -0.70670000 -0.69640000 -0.12500000
vn -0.70580000 -0.62870000 -0.32650000
vn -0.70660000 -0.59340000 -0.38550000
vn -0.70660000 -0.53820000 -0.45940000
vn -0.70680000 -0.49390000 -0.50640000
vn -0.70630000 -0.13330000 -0.69520000
vn -0.70680000 -0.45120000 -0.54490000
vn -0.70630000 -0.38410000 -0.59460000
vn -0.70540000 -0.30870000 -0.63800000
vn 0.00000000 -1.00000000 0.00000000
vn 0.00000000 -1.00000000 0.00000000
vn 0.00000000 -1.00000000 0.00000000
vn 0.00000000 -1.00000000 0.00000000
vn 0.00000000 -1.00000000 0.00000000
vn 0.00000000 -1.00000000 0.00000000
vn 0.00000000 -1.00000000 0.00000000
vn 0.00000000 -1.00000000 0.00000000
vn 0.00000000 -1.00000000 0.00000000
vn 0.00000000 -1.00000000 0.00000000
vn 0.00000000 -1.00000000 0.00000000
vn 0.00000000 -0.90650000 -0.42220000
vn 0.00000000 -0.89430000 0.44740000
vn -0.00000000 -0.56010000 0.82840000
vn -0.00000000 0.00170000 -1.00000000
vn 0.00000000 -0.64480000 -0.76430000
vn -0.00000000 -0.05900000 -0.99830000
vn 0.04760000 -0.99890000 -0.00410000
vn -0.15000000 -0.91630000 0.37140000
vn -0.77490000 -0.08230000 0.62670000
vn 0.38560000 -0.91620000 -0.10900000
vn -0.96340000 -0.06210000 0.26070000
vn -0.28560000 -0.95310000 -0.10030000
vn 0.90770000 -0.29240000 0.30090000
vn 0.93270000 -0.03960000 -0.35840000
vn 0.34920000 -0.92520000 -0.14870000
vn -0.34700000 -0.85870000 0.37700000
vn 0.39840000 -0.52110000 -0.75480000
vn -0.88870000 -0.32850000 0.32000000
vn -0.11930000 -0.99030000 -0.07160000
vn 0.99290000 0.11290000 0.03660000
vn -0.00000000 -0.20460000 -0.97880000
vn -0.00000000 -0.98830000 0.15220000
vn 0.00000000 -0.50430000 -0.86360000
vn -0.00000000 -0.99900000 0.04410000
vn -0.00000000 -0.39490000 0.91870000
vn -0.00000000 0.00140000 1.00000000
vn -0.36390000 -0.91710000 -0.16270000
vn -0.87210000 -0.30760000 -0.38060000
vn -0.42100000 -0.02950000 -0.90660000
vn -0.29400000 -0.77710000 -0.55650000
vn 0.00000000 -0.00000000 -1.00000000
vn 0.00000000 -0.00000000 -1.00000000
vn 0.00010000 -0.00000000 -1.00000000
vn 0.00000000 0.00000000 1.00000000
vn 0.00000000 0.00000000 1.00000000
vn 0.00000000 0.00000000 1.00000000
vn 0.00000000 -1.00000000 0.00000000
vn 0.00000000 -1.00000000 0.00000000
vn 0.00000000 -1.00000000 0.00000000
vn 0.00000000 -1.00000000 0.00000000
vn 0.00000000 -1.00000000 0.00000000
vn 0.00000000 -1.00000000 0.00000000
vn 0.00000000 -1.00000000 0.00000000
vn 0.00000000 -1.00000000 0.00000000
vn 0.00000000 -1.00000000 0.00000000
vn 0.00000000 -1.00000000 0.00000000
vn 0.00000000 -1.00000000 0.00000000
vn 0.00000000 -1.00000000 0.00000000
vn 0.00000000 -1.00000000 0.00000000
vn 0.00000000 -1.00000000 0.00000000
vn 0.00000000 -1.00000000 0.00000000
vn 0.00000000 -1.00000000 0.00000000
vn 0.00000000 -1.00000000 0.00000000
vn 0.00000000 -1.00000000 0.00000000
vn 0.00000000 -1.00000000 0.00000000
vn 0.00000000 -1.00000000 0.00000000
vn 0.29390000 -0.92940000 -0.22320000
vn 0.29370000 -0.94550000 -0.14080000
vn 0.29380000 -0.95160000 -0.09000000
vn 0.29390000 -0.95320000 -0.07110000
vn 0.29400000 -0.95580000 0.00140000
vn 0.29410000 -0.95250000 0.07910000
vn 0.29380000 -0.95040000 0.10180000
vn 0.29390000 -0.92910000 0.22450000
vn 0.29370000 -0.94540000 0.14090000
vn 0.29400000 -0.90890000 0.29580000
vn 0.29340000 -0.15180000 -0.94390000
vn 0.29430000 -0.00080000 -0.95570000
vn 0.29410000 -0.15990000 -0.94230000
vn 0.29410000 -0.32270000 -0.89970000
vn 0.29410000 -0.48040000 -0.82630000
vn 0.29410000 -0.45490000 -0.84060000
vn 0.29410000 -0.62450000 -0.72350000
vn 0.29410000 -0.74720000 -0.59600000
vn 0.29410000 -0.70320000 -0.64730000
vn 0.29410000 -0.58700000 -0.75420000
vn 0.29410000 -0.84290000 -0.45060000
vn 0.29400000 -0.88530000 -0.36040000
vn 0.29400000 -0.90900000 -0.29540000
vn 0.29410000 -0.00000000 -0.95580000
vn 0.29410000 -0.31030000 -0.90400000
vn 0.29390000 -0.80170000 -0.52050000
vn 0.29410000 -0.87530000 -0.38390000
vn 0.29410000 -0.84290000 0.45070000
vn 0.29400000 -0.87900000 0.37550000
vn 0.29410000 -0.74720000 0.59600000
vn 0.29410000 -0.62450000 0.72350000
vn 0.29410000 -0.70320000 0.64730000
vn 0.29410000 -0.48040000 0.82630000
vn 0.29410000 -0.58700000 0.75420000
vn 0.29410000 -0.15990000 0.94230000
vn 0.29390000 -0.17090000 0.94040000
vn 0.29410000 -0.32270000 0.89970000
vn 0.29410000 -0.45490000 0.84060000
vn 0.29410000 0.00000000 0.95580000
vn 0.29330000 -0.00000000 0.95600000
vn 0.29410000 -0.87530000 0.38390000
vn 0.29410000 -0.80010000 0.52280000
vn 0.29450000 -0.00020000 0.95570000
vn 0.29410000 -0.31040000 0.90400000
vn -0.00000000 -0.28570000 -0.95830000
vn -0.00000000 -0.20330000 -0.97910000
vn -0.00000000 -0.19510000 -0.98080000
vn 0.00000000 -0.00000000 -1.00000000
vn 0.00000000 -0.00010000 -1.00000000
vn -0.00000000 -0.10090000 -0.99490000
vn -0.00000000 -0.29030000 -0.95690000
vn 0.00000000 -0.37930000 -0.92530000
vn 0.00000000 -0.42520000 -0.90510000
vn 1.00000000 0.00000000 -0.00000000
vn 1.00000000 0.00000000 -0.00000000
vn 1.00000000 0.00000000 -0.00000000
vn 1.00000000 0.00000000 -0.00000000
vn 1.00000000 0.00000000 -0.00000000
vn 1.00000000 0.00000000 -0.00000000
vn 1.00000000 0.00000000 -0.00000000
vn 1.00000000 0.00000000 -0.00000000
vn 1.00000000 0.00000000 -0.00000000
vn 1.00000000 0.00000000 -0.00000000
vn 1.00000000 0.00000000 -0.00000000
vn 1.00000000 0.00000000 -0.00000000
vn 1.00000000 0.00000000 -0.00000000
vn 1.00000000 0.00000000 -0.00000000
vn -0.29410000 -0.37690000 0.87830000
vn -0.29410000 -0.19240000 0.93620000
vn -0.29410000 -0.37680000 0.87840000
vn -0.29400000 -0.38460000 0.87500000
vn -0.29360000 -0.94370000 0.15240000
vn -0.29410000 -0.93790000 0.18400000
vn -0.29410000 -0.88480000 0.36140000
vn -0.29410000 -0.88480000 0.36140000
vn -0.29410000 -0.95050000 0.10010000
vn -0.29410000 -0.95020000 0.10270000
vn -0.29360000 -0.95580000 0.01370000
vn -0.29410000 -0.88480000 0.36140000
vn -0.29410000 -0.87840000 -0.37680000
vn -0.29410000 -0.93630000 -0.19200000
vn -0.29410000 -0.93660000 -0.19050000
vn -0.29410000 -0.87840000 -0.37680000
vn -0.29410000 -0.95050000 -0.10030000
vn -0.29370000 -0.95380000 -0.06280000
vn -0.29410000 -0.87840000 -0.37680000
vn -0.29400000 -0.16850000 -0.94080000
vn -0.29410000 -0.36070000 -0.88510000
vn -0.29410000 -0.36140000 -0.88480000
vn -0.29290000 -0.00260000 -0.95610000
vn -0.29420000 -0.19260000 -0.93610000
vn -0.29410000 0.00000000 0.95580000
vn -0.29410000 -0.15880000 0.94250000
vn -0.29410000 -0.32040000 0.90050000
vn -0.29410000 -0.47710000 0.82820000
vn -0.29410000 -0.62050000 0.72700000
vn -0.29410000 -0.74290000 0.60130000
vn -0.29410000 -0.83890000 0.45790000
vn -0.29390000 -0.10080000 0.95050000
vn -0.29410000 -0.71030000 0.63950000
vn -0.29410000 -0.90580000 0.30490000
vn -0.29410000 0.00000000 0.95580000
vn -0.29410000 -0.19530000 0.93560000
vn -0.29530000 0.00200000 0.95540000
vn -0.29410000 -0.56180000 0.77330000
vn -0.29410000 -0.82770000 0.47790000
vn -0.29410000 -0.90900000 0.29540000
vn -0.29430000 -0.94390000 -0.14990000
vn -0.29410000 -0.90580000 -0.30490000
vn -0.29410000 -0.83890000 -0.45800000
vn -0.29410000 -0.74290000 -0.60130000
vn -0.29410000 -0.62050000 -0.72700000
vn -0.29410000 -0.47710000 -0.82820000
vn -0.29410000 -0.32040000 -0.90050000
vn -0.29380000 0.00050000 -0.95590000
vn -0.29410000 -0.00000000 -0.95580000
vn -0.29410000 -0.71030000 -0.63950000
vn -0.29410000 -0.90900000 -0.29530000
vn -0.29410000 -0.38870000 -0.87310000
vn -0.29410000 -0.82770000 -0.47790000
vn -0.29410000 -0.56180000 -0.77320000
vn 0.00010000 -0.95090000 -0.30960000
vn -0.00010000 -0.94770000 -0.31920000
vn -0.00020000 -0.98760000 -0.15690000
vn 0.00010000 -0.78180000 -0.62350000
vn -0.00010000 -0.77730000 -0.62910000
vn -0.00010000 -0.87770000 -0.47910000
vn 0.00010000 -0.88190000 -0.47150000
vn -0.00000000 -0.50270000 -0.86450000
vn 0.00000000 -0.49920000 -0.86650000
vn 0.00010000 -0.64920000 -0.76070000
vn -0.00010000 -0.16730000 -0.98590000
vn -0.00000000 -0.17590000 -0.98440000
vn -0.00000000 -0.33530000 -0.94210000
vn 0.00000000 -0.00010000 -1.00000000
vn 0.00000000 -0.00000000 -1.00000000
vn 0.00000000 -0.33760000 -0.94130000
vn -0.00000000 -0.65340000 -0.75700000
vn -0.00000000 -0.16740000 0.98590000
vn 0.00000000 -0.16620000 0.98610000
vn 0.00000000 0.00000000 1.00000000
vn -0.00000000 -0.50270000 0.86450000
vn 0.00000000 -0.49920000 0.86650000
vn 0.00000000 -0.33760000 0.94130000
vn 0.00000000 -0.33530000 0.94210000
vn 0.00010000 -0.78180000 0.62350000
vn -0.00010000 -0.77730000 0.62910000
vn -0.00000000 -0.65340000 0.75700000
vn 0.00010000 -0.95080000 0.30980000
vn -0.00010000 -0.94770000 0.31900000
vn 0.00010000 -0.88190000 0.47150000
vn 0.00020000 -0.98920000 0.14660000
vn -0.00020000 -0.98740000 0.15790000
vn -0.00010000 -0.87770000 0.47910000
vn -0.00010000 -0.64920000 0.76060000
vn 0.18490000 -0.08560000 -0.97900000
vn 0.10680000 -0.08670000 -0.99050000
vn 0.40440000 -0.07970000 -0.91110000
vn 0.57600000 -0.07120000 -0.81430000
vn 0.91700000 -0.03480000 -0.39730000
vn -0.00000000 -0.08720000 -0.99620000
vn -0.00000000 -0.08720000 -0.99620000
vn -0.00000000 -0.08720000 -0.99620000
vn -1.00000000 0.00050000 0.00640000
vn -0.83260000 -0.04830000 -0.55180000
vn -0.78730000 -0.05370000 -0.61420000
vn -0.48960000 -0.07600000 -0.86860000
vn -0.29350000 -0.08330000 -0.95230000
vn -0.15440000 -0.08610000 -0.98430000
vn 0.99630000 -0.00740000 0.08560000
vn 0.76610000 -0.05600000 0.64030000
vn 0.56570000 -0.07190000 0.82150000
vn 0.35310000 -0.08150000 0.93200000
vn 0.10510000 -0.08670000 0.99070000
vn 0.05800000 -0.08700000 0.99450000
vn -0.00000000 -0.08720000 0.99620000
vn -0.00000000 -0.08720000 0.99620000
vn -0.00000000 -0.08720000 0.99620000
vn -0.77310000 -0.05520000 0.63180000
vn -0.76710000 -0.05590000 0.63910000
vn -0.48940000 -0.07600000 0.86870000
vn -0.19830000 -0.08540000 0.97640000
vn -0.15220000 -0.08620000 0.98460000
vn -1.00000000 -0.00080000 0.00840000
vn 0.00000000 1.00000000 0.00010000
vn 0.00000000 1.00000000 0.00000000
vn 0.00000000 1.00000000 0.00010000
vn 0.00000000 1.00000000 0.00010000
vn 0.00000000 1.00000000 0.00000000
vn 0.00000000 1.00000000 0.00010000
vn 0.00000000 1.00000000 0.00000000
vn 0.00000000 1.00000000 0.00010000
vn 0.00000000 1.00000000 0.00000000
vn -1.00000000 0.00000000 0.00000000
vn -1.00000000 0.00000000 0.00000000
vn -1.00000000 0.00000000 0.00000000
vn -1.00000000 0.00000000 0.00000000
vn -1.00000000 0.00000000 0.00000000
vn -1.00000000 0.00000000 0.00000000
vn -1.00000000 0.00000000 0.00000000
vn -1.00000000 0.00000000 0.00000000
vn -1.00000000 0.00000000 0.00000000
vn -1.00000000 0.00000000 0.00000000
vn 0.00000000 0.08250000 0.99660000
vn 0.00000000 0.18060000 0.98360000
vn -0.00000000 0.07730000 0.99700000
vn -0.00000000 0.17890000 0.98390000
vn 0.00000000 0.17210000 -0.98510000
vn 0.00000000 0.08580000 -0.99630000
vn 0.00000000 0.17830000 -0.98400000
vn -0.00000000 0.07340000 -0.99730000
vn 0.00000000 0.00000000 1.00000000
vn -0.00000000 -0.00010000 1.00000000
vn 0.00000000 -0.00020000 1.00000000
vn 0.00000000 0.00000000 1.00000000
vn -0.00000000 0.38270000 0.92390000
vn -0.00000000 0.36810000 0.92980000
vn 0.00000000 0.69590000 0.71820000
vn 0.00000000 0.70710000 0.70710000
vn -0.00000000 0.92390000 0.38270000
vn 0.00000000 0.00000000 1.00000000
vn 0.00000000 1.00000000 0.00000000
vn 0.00000000 0.99990000 -0.01570000
vn -0.00000000 0.92980000 0.36810000
vn 0.00000000 0.92980000 -0.36810000
vn -0.00000000 0.57050000 -0.82130000
vn 0.00000000 0.78530000 -0.61910000
vn -0.00000000 0.70710000 -0.70710000
vn 0.00000000 0.92390000 -0.38270000
vn 0.00000000 -0.00000000 -1.00000000
vn 0.00000000 0.29690000 -0.95490000
vn -0.00000000 0.36810000 -0.92980000
vn 0.00000000 -0.00000000 -1.00000000
vn 0.00000000 -0.01240000 -0.99990000
vn -0.00000000 0.00020000 -1.00000000
vn 0.00000000 -0.00000000 -1.00000000
vn 1.00000000 0.00000000 -0.00000000
vn 1.00000000 0.00000000 -0.00000000
vn 1.00000000 0.00000000 -0.00000000
vn 1.00000000 0.00000000 -0.00000000
vn 1.00000000 0.00000000 -0.00000000
vn 1.00000000 0.00000000 -0.00000000
vn 1.00000000 0.00000000 -0.00000000
vn 1.00000000 0.00000000 -0.00000000
vn 1.00000000 0.00000000 -0.00000000
vn 0.00000000 -1.00000000 0.00000000
vn 0.00000000 -1.00000000 0.00000000
vn 0.00000000 -1.00000000 0.00000000
vn 0.00000000 -1.00000000 0.00000000
vn 0.00010000 1.00000000 -0.00020000
vn 0.00000000 1.00000000 0.00000000
vn 0.00000000 1.00000000 0.00000000
vn 0.00010000 1.00000000 -0.00020000
vn 0.00000000 1.00000000 0.00000000
vn 0.00010000 1.00000000 -0.00020000
vn 0.00000000 1.00000000 0.00000000
vn 0.00000000 1.00000000 0.00000000
vn 0.00000000 1.00000000 0.00000000
vn 0.00000000 1.00000000 0.00000000
vn 0.00000000 1.00000000 0.00000000
vn 0.00000000 1.00000000 0.00000000
vn 0.00000000 1.00000000 0.00000000
vn 0.00000000 1.00000000 0.00000000
vn 0.00000000 1.00000000 0.00000000
vn 0.00000000 -1.00000000 0.00000000
vn 0.00000000 -1.00000000 0.00000000
vn 0.00000000 -1.00000000 0.00000000
vn -1.00000000 0.00000000 0.00000000
vn 0.00000000 -0.74310000 -0.66910000
vn 0.00000000 -0.74310000 0.66910000
vn 0.70700000 -0.26820000 -0.65440000
vn 0.70710000 -0.27060000 -0.65330000
vn 0.70700000 -0.38170000 -0.59540000
vn 0.70710000 -0.48410000 0.51540000
vn 0.70600000 -0.16610000 0.68850000
vn -0.70700000 -0.20200000 -0.67780000
vn -0.70590000 -0.30120000 -0.64100000
vn -0.70710000 -0.00000000 -0.70710000
vn 0.00000000 -0.74290000 -0.66940000
vn 0.00000000 -1.00000000 -0.00830000
vn -0.00000000 -0.84710000 0.53150000
vn 0.00000000 -0.37930000 -0.92530000
vn -0.70710000 -0.00000000 0.70710000
vn -0.70680000 -0.08640000 0.70210000
vn -0.70710000 -0.00000000 0.70710000
vn -0.70590000 -0.58720000 0.39620000
vn -0.70710000 -0.52570000 0.47290000
vn -0.70660000 -0.18320000 -0.68350000
vn -0.70560000 -0.70860000 -0.00590000
vn -0.70710000 -0.27060000 -0.65330000
vn 0.17300000 -0.23740000 -0.95590000
vn -0.35830000 -0.03520000 0.93300000
vn 0.00000000 0.00000000 1.00000000
vn 0.00010000 -0.98920000 -0.14650000
vn 0.00000000 0.00000000 1.00000000
vn -0.00000000 -0.08720000 -0.99620000
vn -0.00000000 -0.08720000 0.99620000
vn 0.00000000 1.00000000 0.00000000
vn 0.00000000 1.00000000 0.00000000
vt 0.26738500 0.75954000
vt 0.26738500 0.75954000
vt 0.26738500 0.75954000
vt 0.23250400 0.74741800
vt 0.23250400 0.74741800
vt 0.23250400 0.74741800
vt 0.23250400 0.74741800
vt 0.25462500 0.75613900
vt 0.21039700 0.73228300
vt 0.21039700 0.73228300
vt 0.19140000 0.69806200
vt 0.19140000 0.69806200
vt 0.19140000 0.69806200
vt 0.22061500 0.64661900
vt 0.22061500 0.64661900
vt 0.22061500 0.64661900
vt 0.23888200 0.63768800
vt 0.23888200 0.63768800
vt 0.23888200 0.63768800
vt 0.19912400 0.66785400
vt 0.19314500 0.68045600
vt 0.19337600 0.70773000
vt 0.19894600 0.71894700
vt 0.19894600 0.71894700
vt 0.37353500 0.74926200
vt 0.32183900 0.76291900
vt 0.34978900 0.75834100
vt 0.36266300 0.75473100
vt 0.56845700 0.73287000
vt 0.54382200 0.73399400
vt 0.54346100 0.72931800
vt 0.57759000 0.72931800
vt 0.61064300 0.72931800
vt 0.59340400 0.73282600
vt 0.64309700 0.72931800
vt 0.67555200 0.72931800
vt 0.66257500 0.73282600
vt 0.61667400 0.73282600
vt 0.70800600 0.72931800
vt 0.68623500 0.73282600
vt 0.73736900 0.73279700
vt 0.71107600 0.73279400
vt 0.74167900 0.72931800
vt 0.76223100 0.73282600
vt 0.77504500 0.72931800
vt 0.80764200 0.72931800
vt 0.78589100 0.73282600
vt 0.84009700 0.72931800
vt 0.87255100 0.72931800
vt 0.85565800 0.73290600
vt 0.83179300 0.73282600
vt 0.90520900 0.72976600
vt 0.87967400 0.73286800
vt 0.45397600 0.72932400
vt 0.45706600 0.73110000
vt 0.46856000 0.72923200
vt 0.48314100 0.72933700
vt 0.48290800 0.73102200
vt 0.49749500 0.72923300
vt 0.50965200 0.73107400
vt 0.51225500 0.72939400
vt 0.43386700 0.72935600
vt 0.41003300 0.73062800
vt 0.43741900 0.73105700
vt 0.44421100 0.72931700
vt 0.53641000 0.73053900
vt 0.52223400 0.72931100
vt 0.58028400 0.72930800
vt 0.58130500 0.73106000
vt 0.59070600 0.72933900
vt 0.56654300 0.72927000
vt 0.55216200 0.73061400
vt 0.60794300 0.73107300
vt 0.60102000 0.72933800
vt 0.61688300 0.72926700
vt 0.63182800 0.73106700
vt 0.64566100 0.72924200
vt 0.65822800 0.73018500
vt 0.70180900 0.72931300
vt 0.71583800 0.73118400
vt 0.71587000 0.72931800
vt 0.62602100 0.82774800
vt 0.65201300 0.82724400
vt 0.63918800 0.82858300
vt 0.60500700 0.73369000
vt 0.58426100 0.73084700
vt 0.61146200 0.72981800
vt 0.62228000 0.73315100
vt 0.62783700 0.72954400
vt 0.64130800 0.73315100
vt 0.65421100 0.73049200
vt 0.67936600 0.73315100
vt 0.67211600 0.73047500
vt 0.69765200 0.73042000
vt 0.66033700 0.73315100
vt 0.71742300 0.73315100
vt 0.69839400 0.73315100
vt 0.72438800 0.73045700
vt 0.73776200 0.73335000
vt 0.74997900 0.72978200
vt 0.75543700 0.73315100
vt 0.76595300 0.72974000
vt 0.77354200 0.73337600
vt 0.78542200 0.73048700
vt 0.79205300 0.73340400
vt 0.80586500 0.73059500
vt 0.85062400 0.73315100
vt 0.83130200 0.73128000
vt 0.83130200 0.73128000
vt 0.85680400 0.73055000
vt 0.86965200 0.73315100
vt 0.87974700 0.73052800
vt 0.81256600 0.73315100
vt 0.88868100 0.73315100
vt 0.89391900 0.72974100
vt 0.90770900 0.73315100
vt 0.92396200 0.73070000
vt 0.92738300 0.73534500
vt 0.94576700 0.73315100
vt 0.94575100 0.72974500
vt 0.61515600 0.77432800
vt 0.60377400 0.77509000
vt 0.60461600 0.73427000
vt 0.62534000 0.77482900
vt 0.61500500 0.73426500
vt 0.58960500 0.77422600
vt 0.59089800 0.73333300
vt 0.63922600 0.77423500
vt 0.62550700 0.73428800
vt 0.66490900 0.73427600
vt 0.65437500 0.77521000
vt 0.65017300 0.73434300
vt 0.70483100 0.77431400
vt 0.68960700 0.77497200
vt 0.69438000 0.73424300
vt 0.67036600 0.77460600
vt 0.67946000 0.73434900
vt 0.74771800 0.77521400
vt 0.72908400 0.77418200
vt 0.73481700 0.73330600
vt 0.71435900 0.77514700
vt 0.70451200 0.73429200
vt 0.76403100 0.77432800
vt 0.74937700 0.73431500
vt 0.78804100 0.77521800
vt 0.77411100 0.77490700
vt 0.77385000 0.73427500
vt 0.76326700 0.73429300
vt 0.80409600 0.77434600
vt 0.80036000 0.73431500
vt 0.82944800 0.73433000
vt 0.81765500 0.77477100
vt 0.81377900 0.73429600
vt 0.83334400 0.77439000
vt 0.84329300 0.77516900
vt 0.85696600 0.73355900
vt 0.84216400 0.73368000
vt 0.88648800 0.77446800
vt 0.87232500 0.77498300
vt 0.87332800 0.73328200
vt 0.85793100 0.77423700
vt 0.90057400 0.73428300
vt 0.90057400 0.77434900
vt 0.88636100 0.73428800
vt 0.68301300 0.82788000
vt 0.71503700 0.82770300
vt 0.69893000 0.82856500
vt 0.79111200 0.82797000
vt 0.82016900 0.82768600
vt 0.82016900 0.82768600
vt 0.80219300 0.82849800
vt 0.74322500 0.82816500
vt 0.74322500 0.82816500
vt 0.72594600 0.82841600
vt 0.85689300 0.82770000
vt 0.85689300 0.82770000
vt 0.84065900 0.82863900
vt 0.88409200 0.82797500
vt 0.86734600 0.82851900
vt 0.92284200 0.82765600
vt 0.95476400 0.82803500
vt 0.95476400 0.82803500
vt 0.93950000 0.82859500
vt 0.97848800 0.82780900
vt 0.96595200 0.82849700
vt 1.02374600 0.82654800
vt 0.99407500 0.82861000
vt 0.76049900 0.73107000
vt 0.76049100 0.73018700
vt 0.74838800 0.73106900
vt 0.43040100 0.73055200
vt 0.40345400 0.72885200
vt 0.40348400 0.73111400
vt 0.44650800 0.73060700
vt 0.46103800 0.73073000
vt 0.47257500 0.72939500
vt 0.48746600 0.73105900
vt 0.49024300 0.72941300
vt 0.51542600 0.72949000
vt 0.51137300 0.73108000
vt 0.54186300 0.72943600
vt 0.53800100 0.73107300
vt 0.56717000 0.73058200
vt 0.60967300 0.73104400
vt 0.62234700 0.72921200
vt 0.60215700 0.72939500
vt 0.63641000 0.73111700
vt 0.64743600 0.72812000
vt 0.66228100 0.73102300
vt 0.67264900 0.72928700
vt 0.73897500 0.72907500
vt 0.68190400 0.73106300
vt 0.69531900 0.72931800
vt 0.70927500 0.73046400
vt 0.41238700 0.71493200
vt 0.40435600 0.71627800
vt 0.40185700 0.72038800
vt 0.44635600 0.71487300
vt 0.40775600 0.73082300
vt 0.41304000 0.73032600
vt 0.40201400 0.72711100
vt 0.45932300 0.71875200
vt 0.45710500 0.72516700
vt 0.45328400 0.71500300
vt 0.45074900 0.73018900
vt 0.40520800 0.73142800
vt 0.40449400 0.72907500
vt 0.40412800 0.73138700
vt 0.40631000 0.72923700
vt 0.40555200 0.72882300
vt 0.40622200 0.73117600
vt 0.40779900 0.73673600
vt 0.40684200 0.73362500
vt 0.40380200 0.73777200
vt 0.40862800 0.74165000
vt 0.40327500 0.74180900
vt 0.40717200 0.74837000
vt 0.41118900 0.74941800
vt 0.41192300 0.74157400
vt 0.40685400 0.73995100
vt 0.40913200 0.73370100
vt 0.40534500 0.73378300
vt 0.41103400 0.74132700
vt 0.40837100 0.74877400
vt 0.40302500 0.74483600
vt 0.40364100 0.73106500
vt 0.40498000 0.72892200
vt 0.40402800 0.72891000
vt 0.40490900 0.73145700
vt 0.40583700 0.73139000
vt 0.40630800 0.72923700
vt 0.40674600 0.73445700
vt 0.40448500 0.73314500
vt 0.40351900 0.73988900
vt 0.40634500 0.73989600
vt 0.37286300 0.72933800
vt 0.41058600 0.72934400
vt 0.41379900 0.72882800
vt 0.36721900 0.72944300
vt 0.40771000 0.72996000
vt 0.40976900 0.72901600
vt 0.32366900 0.72938800
vt 0.32793800 0.72252600
vt 0.32809200 0.72501000
vt 0.32651600 0.72931000
vt 0.33577800 0.72012400
vt 0.33676500 0.71847900
vt 0.37593300 0.71843800
vt 0.33035500 0.73614500
vt 0.32792600 0.73657900
vt 0.34203900 0.73886700
vt 0.33853600 0.74021900
vt 0.38296700 0.73864900
vt 0.38940400 0.72484600
vt 0.38819800 0.72681700
vt 0.38294600 0.72028400
vt 0.37835900 0.72017400
vt 0.39141800 0.73032300
vt 0.38650200 0.73390600
vt 0.37969100 0.73804700
vt 0.37365300 0.74024300
vt 0.77131500 0.96747000
vt 0.78243800 0.95569100
vt 0.78921700 0.95987700
vt 0.79172200 0.96750100
vt 0.80133700 0.96204700
vt 0.81164200 0.96773500
vt 0.81464600 0.95904000
vt 0.83116400 0.96752700
vt 0.81985500 0.95569300
vt 0.84098300 0.95582200
vt 0.62248500 0.96547000
vt 0.60241400 0.95613700
vt 0.62357700 0.95588800
vt 0.64589800 0.95588800
vt 0.66897400 0.95588800
vt 0.66509400 0.96773500
vt 0.69244600 0.95588800
vt 0.71591800 0.95588800
vt 0.70695800 0.96773500
vt 0.68602600 0.96773500
vt 0.73899400 0.95588800
vt 0.75221100 0.96160100
vt 0.76137000 0.95583300
vt 0.60230000 0.96773500
vt 0.64416300 0.96773500
vt 0.72823900 0.96963800
vt 0.74882100 0.96773500
vt 0.86330500 0.95588800
vt 0.85225600 0.96149200
vt 0.88638000 0.95588800
vt 0.90985300 0.95588800
vt 0.89534100 0.96773500
vt 0.93332500 0.95588800
vt 0.91627300 0.96773500
vt 0.97872200 0.95588800
vt 0.97725300 0.96717300
vt 0.95640100 0.95588800
vt 0.93720400 0.96773500
vt 0.99999900 0.95588800
vt 1.00002800 0.96406800
vt 0.85347800 0.96773500
vt 0.87441000 0.96773500
vt 0.99995500 0.97007500
vt 0.95813600 0.96773500
vt 0.93391000 0.77435200
vt 0.92413900 0.77521800
vt 0.92317000 0.74364600
vt 0.90057400 0.77434900
vt 0.90058600 0.73333800
vt 0.91221100 0.77420700
vt 0.93446900 0.73852900
vt 0.94534500 0.73349600
vt 0.95114900 0.77422600
vt 0.56680800 0.88966900
vt 0.56664000 0.88883300
vt 0.59710500 0.89093800
vt 0.56680800 0.99931000
vt 0.59869600 0.99782600
vt 0.56680800 1.00000000
vt 0.62925100 0.99111800
vt 0.62724900 0.89725100
vt 0.67157800 0.92152200
vt 0.65477900 0.98027900
vt 0.65321600 0.90782600
vt 0.68076200 0.93673200
vt 0.67245800 0.96650000
vt 0.68091700 0.95169600
vt 0.65360500 0.96181200
vt 0.62795500 0.95972500
vt 0.65360500 0.95885000
vt 0.65473000 0.96764900
vt 0.78090900 0.95569200
vt 0.77663000 0.96603500
vt 0.75206200 0.96181200
vt 0.75206200 0.95885000
vt 0.78786400 0.96776500
vt 0.78751200 0.96063500
vt 0.79933000 0.96372600
vt 0.75206200 0.96477400
vt 0.85245400 0.96181200
vt 0.82675200 0.96602900
vt 0.82654400 0.95914200
vt 0.85245400 0.95885000
vt 0.81445600 0.96776800
vt 0.80946800 0.96254700
vt 0.85245400 0.96477400
vt 0.97756400 0.95601500
vt 0.95102000 0.96182000
vt 0.95091200 0.95885000
vt 0.99971600 0.96651400
vt 0.97430500 0.96769400
vt 0.60230000 0.95588800
vt 0.62342900 0.95588800
vt 0.64557900 0.95588800
vt 0.66846400 0.95588800
vt 0.69173600 0.95588800
vt 0.71500900 0.95588800
vt 0.73789400 0.95588800
vt 0.61568000 0.96497100
vt 0.70835300 0.96773500
vt 0.76004300 0.95588800
vt 0.60230000 0.96477400
vt 0.62835600 0.96769400
vt 0.60209400 0.97083600
vt 0.68184000 0.96773500
vt 0.73486600 0.96773500
vt 0.76138000 0.96773500
vt 0.82109900 0.95633400
vt 0.84225500 0.95588800
vt 0.86440500 0.95588800
vt 0.88729000 0.95588800
vt 0.91056200 0.95588800
vt 0.93383500 0.95588800
vt 0.95672000 0.95588800
vt 1.00007200 0.96447700
vt 0.99999900 0.95588800
vt 0.89394600 0.96773500
vt 0.84091900 0.96773500
vt 0.94697200 0.96773500
vt 0.86743300 0.96773500
vt 0.92045900 0.96773500
vt 0.40353500 0.74370600
vt 0.44950000 0.74369700
vt 0.45022900 0.72928100
vt 0.40345000 0.77245500
vt 0.44950000 0.77245500
vt 0.44950000 0.75807600
vt 0.40345000 0.75807600
vt 0.40345000 0.80121200
vt 0.44950000 0.80121200
vt 0.44950000 0.78683400
vt 0.40345000 0.82997000
vt 0.44970500 0.82911700
vt 0.44950000 0.81559100
vt 0.40305700 0.84434100
vt 0.44950000 0.84434900
vt 0.40345000 0.81559100
vt 0.40345000 0.78683400
vt 0.40345000 0.74369700
vt 0.44950000 0.74369700
vt 0.40345000 0.72931800
vt 0.40345000 0.77245500
vt 0.44950000 0.77245500
vt 0.40345000 0.75807600
vt 0.44950000 0.75807600
vt 0.40345000 0.80121200
vt 0.44950000 0.80121200
vt 0.40345000 0.78683400
vt 0.40355300 0.82994800
vt 0.44950000 0.82997000
vt 0.40345000 0.81559100
vt 0.40374700 0.84430900
vt 0.44920600 0.84427300
vt 0.44950000 0.81559100
vt 0.44950000 0.78683400
vt 0.41295800 0.74643100
vt 0.41273800 0.74292500
vt 0.41361400 0.74310900
vt 0.41417900 0.74659000
vt 0.41576600 0.74640900
vt 0.40262000 0.72168300
vt 0.39687200 0.72011400
vt 0.39686100 0.69867900
vt 0.40789700 0.74678400
vt 0.40962500 0.74501900
vt 0.40984200 0.74657400
vt 0.41097100 0.74309800
vt 0.41160100 0.74623300
vt 0.41199400 0.74273800
vt 0.40816100 0.74719900
vt 0.40993600 0.74522000
vt 0.41072300 0.74655900
vt 0.41140700 0.74310300
vt 0.41213400 0.74292300
vt 0.41226800 0.74639400
vt 0.41003000 0.72009100
vt 0.40430800 0.72060500
vt 0.41004100 0.69869700
vt 0.41495700 0.74463200
vt 0.41493400 0.74656800
vt 0.41389400 0.74309900
vt 0.41299500 0.74622200
vt 0.41286700 0.74274000
vt 0.41693700 0.74657100
vt 0.74148000 0.86521100
vt 0.74719200 0.85412700
vt 0.74719200 0.85412700
vt 0.74576300 0.85064200
vt 0.74576300 0.85064200
vt 0.74717400 0.85071800
vt 0.74717400 0.85071800
vt 0.74719200 0.80970700
vt 0.74719200 0.80970700
vt 0.25495500 0.81979000
vt 0.25495500 0.76679300
vt 0.27070500 0.75042100
vt 0.24631800 0.79220100
vt 0.28086700 0.84301900
vt 0.29511200 0.73642400
vt 0.35995700 0.86253500
vt 0.32620700 0.72717100
vt 0.35995700 0.72404700
vt 0.31646400 0.85726500
vt 0.00932500 0.81703200
vt 0.02076300 0.80366000
vt 0.00872300 0.75444800
vt 0.02057400 0.75419100
vt 0.33796700 0.80393600
vt 0.34751000 0.81637300
vt 0.33726800 0.75486100
vt 0.34887400 0.75380900
vt -0.00000000 0.72931800
vt -0.00001000 0.77114800
vt -0.00002500 0.77811200
vt -0.00000000 0.82247100
vt 0.04639800 0.72931800
vt 0.04441700 0.82880900
vt 0.09102900 0.72931800
vt 0.09279500 0.82880900
vt 0.13566100 0.72931800
vt 0.00000000 0.82880900
vt 0.17852600 0.82880900
vt 0.18029200 0.72931800
vt 0.13735700 0.82880900
vt 0.22294300 0.82880900
vt 0.29098800 0.72931800
vt 0.25795600 0.72931800
vt 0.27132200 0.82880900
vt 0.22492400 0.72931800
vt 0.35705300 0.72931800
vt 0.32402100 0.72931800
vt 0.31588300 0.82880900
vt 0.35705300 0.77112500
vt 0.35891400 0.78569100
vt 0.35701900 0.82218200
vt 0.35705300 0.82880900
vt 0.46113400 0.96466900
vt 0.45315500 0.94449000
vt 0.46113400 0.92431100
vt 0.48644300 0.98325400
vt 0.48644300 0.90572600
vt 0.56680800 0.99931000
vt 0.52497300 0.89351800
vt 0.56680800 0.88966900
vt 0.52497300 0.99546100
vt 0.51779100 0.13587500
vt 0.56382500 0.13587500
vt 0.50495500 0.13847600
vt 0.57776300 0.13848800
vt 0.51702600 0.80970700
vt 0.51702600 0.80970700
vt 0.51702600 0.84977200
vt 0.51843400 0.85066600
vt 0.51843400 0.85066600
vt 0.51845600 0.80883600
vt 0.51642200 0.85183300
vt 0.51847400 0.85763000
vt 0.51843400 0.85066600
vt 0.51672300 0.90788400
vt 0.51845600 0.90832700
vt 0.51845600 0.90198800
vt 0.74713000 0.90365100
vt 0.74580700 0.90170000
vt 0.74576300 0.90832700
vt 0.56382400 0.00261300
vt 0.51739800 0.00260900
vt 0.57728900 -0.00002700
vt 0.29625800 0.76339500
vt 0.63956100 0.73282600
vt 0.80890500 0.73282600
vt 0.40301600 0.73008300
vt 0.40345200 0.73106000
vt 0.42360400 0.72935300
vt 0.63015800 0.72929500
vt 0.68894400 0.73066400
vt 0.61535400 0.82845400
vt 0.59637500 0.82849200
vt 0.65201300 0.82847600
vt 0.63539100 0.73428200
vt 0.71884000 0.73335100
vt 0.78428700 0.73427500
vt 0.58380100 0.73349600
vt 0.65201300 0.82724400
vt 0.66752400 0.82841600
vt 0.65201300 0.82847600
vt 0.77579200 0.82766400
vt 0.75813700 0.82847900
vt 0.73073500 0.73105600
vt 0.58291500 0.73039600
vt 0.71587000 0.73106000
vt 0.41116400 0.73087600
vt 0.40355300 0.73275100
vt 0.36261100 0.72872900
vt 0.40375100 0.72935000
vt 0.44950000 0.72931800
vt 0.40260500 0.69782000
vt 0.40432600 0.69921000
vt 0.74576300 0.80883600
vt 0.74719200 0.90832700
f 1/1/1 4/4/4 8/8/8
f 10/10/10 6/6/6 12/12/12
f 16/16/16 13/13/13 7/7/7
f 5/5/5 2/2/2 17/17/17
f 20/20/20 12/12/12 15/15/15
f 20/20/20 21/21/21 12/12/12
f 11/11/11 22/22/22 23/23/23
f 9/9/9 11/11/11 24/24/24
f 3/3/3 25/25/25 19/19/19
f 25/25/25 3/3/3 26/26/26
f 25/25/25 27/27/27 28/28/28
f 26/26/26 27/27/27 25/25/25
f 29/29/29 30/30/30 31/31/31
f 32/32/32 33/33/33 34/34/34
f 35/35/35 36/36/36 37/37/37
f 33/33/33 35/35/35 38/38/38
f 36/36/36 39/39/39 40/40/40
f 32/32/32 34/34/34 29/29/29
f 40/40/40 37/37/37 36/36/36
f 41/41/41 42/42/42 39/39/39
f 43/43/43 44/44/44 41/41/41
f 43/43/43 45/45/45 44/44/44
f 45/45/45 46/46/46 47/47/47
f 48/48/48 49/49/49 50/50/50
f 46/46/46 48/48/48 51/51/51
f 49/49/49 52/52/52 53/53/53
f 45/45/45 47/47/47 44/44/44
f 48/48/48 50/50/50 51/51/51
f 54/54/54 55/55/55 56/56/56
f 57/57/57 58/58/58 59/59/59
f 59/59/59 60/60/60 61/61/61
f 56/56/56 58/58/58 57/57/57
f 62/62/62 63/63/63 64/64/64
f 65/65/65 64/64/64 55/55/55
f 66/66/66 67/67/67 60/60/60
f 68/68/68 69/69/69 70/70/70
f 71/71/71 69/69/69 68/68/68
f 69/69/69 71/71/71 72/72/72
f 70/70/70 73/73/73 74/74/74
f 74/74/74 73/73/73 75/75/75
f 75/75/75 73/73/73 76/76/76
f 77/77/77 76/76/76 78/78/78
f 79/79/79 80/80/80 81/81/81
f 70/70/70 69/69/69 73/73/73
f 82/82/82 83/83/83 84/84/84
f 85/85/85 86/86/86 87/87/87
f 88/88/88 87/87/87 89/89/89
f 90/90/90 89/89/89 91/91/91
f 92/92/92 93/93/93 94/94/94
f 95/95/95 91/91/91 93/93/93
f 96/96/96 97/97/97 94/94/94
f 88/88/88 85/85/85 87/87/87
f 90/90/90 88/88/88 89/89/89
f 92/92/92 95/95/95 93/93/93
f 97/97/97 92/92/92 94/94/94
f 90/90/90 91/91/91 95/95/95
f 96/96/96 94/94/94 98/98/98
f 99/99/99 98/98/98 100/100/100
f 96/96/96 98/98/98 99/99/99
f 101/101/101 99/99/99 100/100/100
f 101/101/101 100/100/100 102/102/102
f 103/103/103 102/102/102 104/104/104
f 105/105/105 104/104/104 106/106/106
f 107/107/107 108/108/108 110/110/110
f 111/111/111 110/110/110 112/112/112
f 113/113/113 106/106/106 109/109/109
f 114/114/114 112/112/112 115/115/115
f 116/116/116 114/114/114 115/115/115
f 105/105/105 103/103/103 104/104/104
f 113/113/113 105/105/105 106/106/106
f 112/112/112 114/114/114 111/111/111
f 107/107/107 110/110/110 111/111/111
f 116/116/116 115/115/115 117/117/117
f 116/116/116 117/117/117 118/118/118
f 119/119/119 117/117/117 120/120/120
f 118/118/118 117/117/117 119/119/119
f 101/101/101 102/102/102 103/103/103
f 121/121/121 122/122/122 123/123/123
f 125/125/125 129/129/129 121/121/121
f 123/123/123 122/122/122 126/126/126
f 129/129/129 560/560/560 128/128/128
f 130/130/130 136/136/136 131/131/131
f 131/131/131 128/128/128 132/132/132
f 133/133/133 134/134/134 135/135/135
f 137/137/137 135/135/135 134/134/134
f 140/140/140 144/144/144 139/139/139
f 141/141/141 133/133/133 142/142/142
f 144/144/144 148/148/148 143/143/143
f 147/147/147 562/562/562 146/146/146
f 148/148/148 147/147/147 143/143/143
f 145/145/145 562/562/562 150/150/150
f 151/151/151 154/154/154 152/152/152
f 150/150/150 153/153/153 149/149/149
f 151/151/151 157/157/157 154/154/154
f 156/156/156 161/161/161 157/157/157
f 160/160/160 164/164/164 159/159/159
f 156/156/156 160/160/160 161/161/161
f 158/158/158 164/164/164 163/163/163
f 165/165/165 166/166/166 167/167/167
f 168/168/168 170/170/170 171/171/171
f 166/166/166 172/172/172 174/174/174
f 169/169/169 175/175/175 177/177/177
f 176/176/176 178/178/178 179/179/179
f 180/180/180 181/181/181 183/183/183
f 182/182/182 184/184/184 185/185/185
f 184/184/184 186/186/186 187/187/187
f 188/188/188 189/189/189 190/190/190
f 191/191/191 192/192/192 193/193/193
f 194/194/194 195/195/195 196/196/196
f 197/197/197 198/198/198 196/196/196
f 199/199/199 198/198/198 200/200/200
f 196/196/196 195/195/195 197/197/197
f 198/198/198 197/197/197 200/200/200
f 201/201/201 202/202/202 203/203/203
f 204/204/204 205/205/205 206/206/206
f 205/205/205 207/207/207 208/208/208
f 205/205/205 204/204/204 207/207/207
f 209/209/209 210/210/210 208/208/208
f 189/189/189 211/211/211 190/190/190
f 210/210/210 209/209/209 212/212/212
f 213/213/213 212/212/212 214/214/214
f 215/215/215 216/216/216 217/217/217
f 217/217/217 220/220/220 215/215/215
f 219/219/219 220/220/220 221/221/221
f 220/220/220 217/217/217 221/221/221
f 222/222/222 218/218/218 223/223/223
f 224/224/224 218/218/218 222/222/222
f 220/220/220 225/225/225 218/218/218
f 226/226/226 227/227/227 228/228/228
f 229/229/229 230/230/230 231/231/231
f 232/232/232 233/233/233 234/234/234
f 235/235/235 232/232/232 236/236/236
f 237/237/237 238/238/238 235/235/235
f 235/235/235 236/236/236 237/237/237
f 235/235/235 238/238/238 239/239/239
f 240/240/240 241/241/241 242/242/242
f 243/243/243 241/241/241 240/240/240
f 244/244/244 240/240/240 245/245/245
f 240/240/240 244/244/244 243/243/243
f 246/246/246 247/247/247 248/248/248
f 249/249/249 247/247/247 246/246/246
f 250/250/250 247/247/247 249/249/249
f 251/251/251 247/247/247 250/250/250
f 252/252/252 253/253/253 254/254/254
f 254/254/254 255/255/255 252/252/252
f 256/256/256 257/257/257 258/258/258
f 259/259/259 260/260/260 261/261/261
f 262/262/262 263/263/263 264/264/264
f 262/262/262 264/264/264 265/265/265
f 264/264/264 263/263/263 266/266/266
f 267/267/267 266/266/266 263/263/263
f 266/266/266 267/267/267 268/268/268
f 269/269/269 270/270/270 262/262/262
f 269/269/269 262/262/262 265/265/265
f 271/271/271 272/272/272 269/269/269
f 273/273/273 272/272/272 271/271/271
f 274/274/274 275/275/275 276/276/276
f 277/277/277 276/276/276 275/275/275
f 278/278/278 275/275/275 274/274/274
f 279/279/279 273/273/273 280/280/280
f 272/272/272 273/273/273 281/281/281
f 279/279/279 275/275/275 278/278/278
f 278/278/278 273/273/273 279/279/279
f 282/282/282 283/283/283 284/284/284
f 285/285/285 284/284/284 286/286/286
f 287/287/287 288/288/288 289/289/289
f 290/290/290 291/291/291 289/289/289
f 292/292/292 305/305/305 293/293/293
f 297/297/297 306/306/306 295/295/295
f 300/300/300 301/301/301 298/298/298
f 295/295/295 306/306/306 292/292/292
f 301/301/301 297/297/297 296/296/296
f 299/299/299 302/302/302 303/303/303
f 304/304/304 303/303/303 302/302/302
f 307/307/307 303/303/303 308/308/308
f 307/307/307 300/300/300 299/299/299
f 308/308/308 303/303/303 282/282/282
f 282/282/282 304/304/304 283/283/283
f 303/303/303 307/307/307 299/299/299
f 291/291/291 309/309/309 310/310/310
f 312/312/312 315/315/315 313/313/313
f 314/314/314 319/319/319 315/315/315
f 311/311/311 310/310/310 309/309/309
f 317/317/317 325/325/325 318/318/318
f 318/318/318 325/325/325 319/319/319
f 321/321/321 317/317/317 316/316/316
f 287/287/287 286/286/286 288/288/288
f 287/287/287 285/285/285 286/286/286
f 322/322/322 289/289/289 310/310/310
f 323/323/323 322/322/322 310/310/310
f 323/323/323 310/310/310 311/311/311
f 323/323/323 311/311/311 313/313/313
f 321/321/321 324/324/324 317/317/317
f 326/326/326 327/327/327 328/328/328
f 330/330/330 328/328/328 329/329/329
f 330/330/330 332/332/332 328/328/328
f 331/331/331 328/328/328 327/327/327
f 332/332/332 330/330/330 333/333/333
f 333/333/333 334/334/334 332/332/332
f 335/335/335 336/336/336 337/337/337
f 338/338/338 335/335/335 337/337/337
f 339/339/339 340/340/340 338/338/338
f 341/341/341 339/339/339 342/342/342
f 337/337/337 339/339/339 338/338/338
f 339/339/339 337/337/337 342/342/342
f 343/343/343 344/344/344 345/345/345
f 346/346/346 347/347/347 343/343/343
f 344/344/344 341/341/341 345/345/345
f 343/343/343 347/347/347 344/344/344
f 346/346/346 348/348/348 347/347/347
f 342/342/342 345/345/345 341/341/341
f 349/349/349 350/350/350 351/351/351
f 352/352/352 384/384/384 349/349/349
f 355/355/355 356/356/356 354/354/354
f 357/357/357 358/358/358 359/359/359
f 360/360/360 355/355/355 354/354/354
f 361/361/361 367/367/367 362/362/362
f 364/364/364 361/361/361 363/363/363
f 365/365/365 359/359/359 366/366/366
f 368/368/368 372/372/372 369/369/369
f 371/371/371 372/372/372 368/368/368
f 350/350/350 373/373/373 374/374/374
f 374/374/374 375/375/375 350/350/350
f 351/351/351 376/376/376 377/377/377
f 356/356/356 378/378/378 379/379/379
f 355/355/355 377/377/377 378/378/378
f 351/351/351 375/375/375 376/376/376
f 373/373/373 350/350/350 380/380/380
f 377/377/377 355/355/355 349/349/349
f 356/356/356 355/355/355 378/378/378
f 349/349/349 355/355/355 381/381/381
f 377/377/377 349/349/349 351/351/351
f 356/356/356 379/379/379 382/382/382
f 383/383/383 373/373/373 380/380/380
f 358/358/358 354/354/354 353/353/353
f 353/353/353 356/356/356 382/382/382
f 381/381/381 355/355/355 360/360/360
f 385/385/385 383/383/383 380/380/380
f 384/384/384 385/385/385 380/380/380
f 386/386/386 352/352/352 349/349/349
f 381/381/381 360/360/360 387/387/387
f 387/387/387 360/360/360 388/388/388
f 360/360/360 354/354/354 388/388/388
f 354/354/354 357/357/357 388/388/388
f 389/389/389 390/390/390 363/363/363
f 366/366/366 389/389/389 363/363/363
f 362/362/362 365/365/365 366/366/366
f 390/390/390 364/364/364 363/363/363
f 364/364/364 391/391/391 392/392/392
f 361/361/361 392/392/392 393/393/393
f 370/370/370 394/394/394 395/395/395
f 370/370/370 393/393/393 394/394/394
f 393/393/393 369/369/369 361/361/361
f 370/370/370 369/369/369 393/393/393
f 392/392/392 361/361/361 364/364/364
f 396/396/396 368/368/368 397/397/397
f 361/361/361 369/369/369 398/398/398
f 390/390/390 391/391/391 364/364/364
f 399/399/399 365/365/365 362/362/362
f 357/357/357 359/359/359 365/365/365
f 398/398/398 367/367/367 361/361/361
f 396/396/396 371/371/371 368/368/368
f 372/372/372 400/400/400 369/369/369
f 401/401/401 399/399/399 367/367/367
f 401/401/401 367/367/367 398/398/398
f 369/369/369 400/400/400 402/402/402
f 362/362/362 367/367/367 399/399/399
f 405/405/405 575/575/575 404/404/404
f 408/408/408 409/409/409 406/406/406
f 404/404/404 403/403/403 409/409/409
f 412/412/412 419/419/419 410/410/410
f 415/415/415 418/418/418 414/414/414
f 414/414/414 413/413/413 417/417/417
f 411/411/411 410/410/410 418/418/418
f 407/407/407 406/406/406 419/419/419
f 421/421/421 576/576/576 422/422/422
f 424/424/424 426/426/426 425/425/425
f 426/426/426 421/421/421 420/420/420
f 428/428/428 436/436/436 429/429/429
f 431/431/431 435/435/435 432/432/432
f 434/434/434 431/431/431 430/430/430
f 435/435/435 428/428/428 427/427/427
f 436/436/436 424/424/424 423/423/423
f 437/437/437 438/438/438 439/439/439
f 439/439/439 440/440/440 437/437/437
f 439/439/439 441/441/441 440/440/440
f 442/442/442 443/443/443 444/444/444
f 445/445/445 446/446/446 447/447/447
f 449/449/449 447/447/447 448/448/448
f 450/450/450 449/449/449 448/448/448
f 451/451/451 452/452/452 453/453/453
f 454/454/454 453/453/453 452/452/452
f 455/455/455 456/456/456 454/454/454
f 458/458/458 578/578/578 457/457/457
f 460/460/460 461/461/461 462/462/462
f 463/463/463 464/464/464 462/462/462
f 463/463/463 462/462/462 461/461/461
f 461/461/461 460/460/460 465/465/465
f 466/466/466 468/468/468 469/469/469
f 469/469/469 471/471/471 473/473/473
f 475/475/475 476/476/476 477/477/477
f 478/478/478 476/476/476 475/475/475
f 479/479/479 475/475/475 477/477/477
f 479/479/479 477/477/477 480/480/480
f 481/481/481 482/482/482 483/483/483
f 480/480/480 482/482/482 484/484/484
f 481/481/481 484/484/484 482/482/482
f 479/479/479 480/480/480 484/484/484
f 485/485/485 486/486/486 487/487/487
f 488/488/488 487/487/487 486/486/486
f 489/489/489 490/490/490 491/491/491
f 492/492/492 491/491/491 490/490/490
f 487/487/487 493/493/493 494/494/494
f 487/487/487 494/494/494 495/495/495
f 496/496/496 485/485/485 495/495/495
f 488/488/488 493/493/493 487/487/487
f 497/497/497 493/493/493 488/488/488
f 497/497/497 486/486/486 498/498/498
f 498/498/498 500/500/500 499/499/499
f 497/497/497 488/488/488 486/486/486
f 500/500/500 505/505/505 501/501/501
f 485/485/485 496/496/496 502/502/502
f 485/485/485 502/502/502 498/498/498
f 498/498/498 486/486/486 485/485/485
f 504/504/504 501/501/501 505/505/505
f 506/506/506 510/510/510 504/504/504
f 507/507/507 508/508/508 509/509/509
f 506/506/506 509/509/509 508/508/508
f 511/511/511 512/512/512 491/491/491
f 513/513/513 512/512/512 507/507/507
f 512/512/512 513/513/513 491/491/491
f 492/492/492 514/514/514 511/511/511
f 515/515/515 514/514/514 516/516/516
f 492/492/492 490/490/490 514/514/514
f 513/513/513 489/489/489 491/491/491
f 490/490/490 513/513/513 517/517/517
f 513/513/513 507/507/507 509/509/509
f 516/516/516 490/490/490 517/517/517
f 489/489/489 513/513/513 490/490/490
f 518/518/518 519/519/519 520/520/520
f 520/520/520 521/521/521 518/518/518
f 521/521/521 520/520/520 522/522/522
f 523/523/523 524/524/524 525/525/525
f 522/522/522 524/524/524 526/526/526
f 523/523/523 526/526/526 524/524/524
f 521/521/521 522/522/522 526/526/526
f 527/527/527 528/528/528 529/529/529
f 530/530/530 529/529/529 528/528/528
f 532/532/532 533/533/533 535/535/535
f 536/536/536 531/531/531 534/534/534
f 537/537/537 538/538/538 539/539/539
f 540/540/540 541/541/541 542/542/542
f 543/543/543 544/544/544 545/545/545
f 546/546/546 547/547/547 548/548/548
f 18/18/18 14/14/14 4/4/4
f 26/26/26 3/3/3 549/549/549
f 29/29/29 31/31/31 32/32/32
f 33/33/33 38/38/38 34/34/34
f 35/35/35 37/37/37 550/550/550
f 35/35/35 550/550/550 38/38/38
f 39/39/39 42/42/42 40/40/40
f 41/41/41 39/39/39 43/43/43
f 46/46/46 551/551/551 47/47/47
f 49/49/49 53/53/53 50/50/50
f 46/46/46 51/51/51 551/551/551
f 63/63/63 552/552/552 553/553/553
f 554/554/554 63/63/63 62/62/62
f 65/65/65 55/55/55 54/54/54
f 55/55/55 58/58/58 56/56/56
f 62/62/62 64/64/64 65/65/65
f 58/58/58 60/60/60 59/59/59
f 61/61/61 60/60/60 67/67/67
f 75/75/75 76/76/76 555/555/555
f 555/555/555 76/76/76 77/77/77
f 556/556/556 80/80/80 79/79/79
f 82/82/82 557/557/557 558/558/558
f 83/83/83 559/559/559 84/84/84
f 121/121/121 123/123/123 125/125/125
f 128/128/128 560/560/560 132/132/132
f 136/136/136 130/130/130 137/137/137
f 133/133/133 135/135/135 142/142/142
f 139/139/139 561/561/561 140/140/140
f 141/141/141 142/142/142 561/561/561
f 563/563/563 127/127/127 126/126/126
f 564/564/564 565/565/565 566/566/566
f 567/567/567 568/568/568 173/173/173
f 190/190/190 211/211/211 569/569/569
f 199/199/199 202/202/202 201/201/201
f 200/200/200 202/202/202 199/199/199
f 570/570/570 204/204/204 206/206/206
f 210/210/210 212/212/212 213/213/213
f 214/214/214 569/569/569 211/211/211
f 207/207/207 209/209/209 208/208/208
f 571/571/571 569/569/569 214/214/214
f 230/230/230 227/227/227 226/226/226
f 231/231/231 230/230/230 226/226/226
f 232/232/232 234/234/234 236/236/236
f 572/572/572 233/233/233 232/232/232
f 239/239/239 232/232/232 235/235/235
f 234/234/234 233/233/233 573/573/573
f 259/259/259 261/261/261 574/574/574
f 266/266/266 268/268/268 276/276/276
f 285/285/285 282/282/282 284/284/284
f 326/326/326 328/328/328 332/332/332
f 384/384/384 380/380/380 350/350/350
f 357/357/357 354/354/354 358/358/358
f 375/375/375 351/351/351 350/350/350
f 349/349/349 381/381/381 386/386/386
f 395/395/395 368/368/368 370/370/370
f 369/369/369 402/402/402 398/398/398
f 442/442/442 444/444/444 577/577/577
f 467/467/467 472/472/472 470/470/470
f 470/470/470 474/474/474 579/579/579
f 580/580/580 543/543/543 545/545/545
f 129/129/129 124/124/124 121/121/121
f 123/123/123 126/126/126 127/127/127
f 129/129/129 128/128/128 124/124/124
f 130/130/130 131/131/131 132/132/132
f 137/137/137 134/134/134 136/136/136
f 144/144/144 138/138/138 139/139/139
f 144/144/144 143/143/143 138/138/138
f 562/562/562 145/145/145 146/146/146
f 147/147/147 146/146/146 143/143/143
f 145/145/145 150/150/150 149/149/149
f 151/151/151 152/152/152 153/153/153
f 153/153/153 152/152/152 149/149/149
f 157/157/157 155/155/155 154/154/154
f 161/161/161 155/155/155 157/157/157
f 164/164/164 158/158/158 159/159/159
f 160/160/160 159/159/159 161/161/161
f 164/164/164 162/162/162 163/163/163
f 220/220/220 218/218/218 215/215/215
f 225/225/225 223/223/223 218/218/218
f 272/272/272 270/270/270 269/269/269
f 290/290/290 289/289/289 288/288/288
f 292/292/292 293/293/293 294/294/294
f 297/297/297 295/295/295 296/296/296
f 300/300/300 298/298/298 299/299/299
f 295/295/295 292/292/292 294/294/294
f 301/301/301 296/296/296 298/298/298
f 303/303/303 304/304/304 282/282/282
f 312/312/312 313/313/313 311/311/311
f 314/314/314 315/315/315 312/312/312
f 317/317/317 318/318/318 316/316/316
f 318/318/318 319/319/319 314/314/314
f 321/321/321 316/316/316 320/320/320
f 289/289/289 291/291/291 310/310/310
f 328/328/328 331/331/331 329/329/329
f 334/334/334 326/326/326 332/332/332
f 384/384/384 350/350/350 349/349/349
f 356/356/356 353/353/353 354/354/354
f 361/361/361 362/362/362 363/363/363
f 368/368/368 369/369/369 370/370/370
f 362/362/362 366/366/366 363/363/363
f 575/575/575 403/403/403 404/404/404
f 408/408/408 406/406/406 407/407/407
f 404/404/404 409/409/409 408/408/408
f 412/412/412 410/410/410 411/411/411
f 418/418/418 413/413/413 414/414/414
f 413/413/413 416/416/416 417/417/417
f 411/411/411 418/418/418 415/415/415
f 407/407/407 419/419/419 412/412/412
f 421/421/421 422/422/422 420/420/420
f 424/424/424 425/425/425 423/423/423
f 426/426/426 420/420/420 425/425/425
f 428/428/428 429/429/429 427/427/427
f 431/431/431 432/432/432 430/430/430
f 434/434/434 430/430/430 433/433/433
f 435/435/435 427/427/427 432/432/432
f 436/436/436 423/423/423 429/429/429
f 447/447/447 446/446/446 448/448/448
f 456/456/456 453/453/453 454/454/454
f 578/578/578 459/459/459 457/457/457
f 485/485/485 487/487/487 495/495/495
f 498/498/498 499/499/499 497/497/497
f 500/500/500 501/501/501 499/499/499
f 504/504/504 505/505/505 503/503/503
f 506/506/506 504/504/504 503/503/503
f 506/506/506 508/508/508 510/510/510
f 511/511/511 491/491/491 492/492/492
f 490/490/490 516/516/516 514/514/514
f 141/141/141 561/561/561 139/139/139

