mtllib material.mtl
usemtl Material-7024油漆.008
v 0.23909700 0.09876600 0.02650300
v 0.23909700 0.09876600 0.02650300
v 0.23909900 0.07540300 -0.03964100
v 0.23909900 0.07540300 -0.03964100
v 0.23909900 0.07540300 -0.03964100
v 0.23909900 0.07540300 -0.03964100
v 0.23909900 0.07540300 -0.03964100
v 0.23909900 0.07540300 -0.03964100
v 0.23909900 0.07540300 -0.03964100
v 0.23909600 0.10565000 0.01542000
v 0.23909600 0.10565000 0.01542000
v 0.23909200 0.10839400 -0.00517000
v 0.23909200 0.10839400 -0.00517000
v 0.23909200 0.10839400 -0.00517000
v 0.23909700 0.10696600 0.01176700
v 0.23909700 0.10696600 0.01176700
v 0.23908800 0.09006700 -0.03395500
v 0.23908800 0.09006700 -0.03395500
v 0.23906300 0.09752300 -0.02791200
v 0.23896300 0.08430200 0.03700400
v 0.23909700 0.07357700 0.03996200
v 0.23909700 0.07357700 0.03996200
v 0.23909700 0.07357700 0.03996200
v 0.23910000 0.09148100 0.03251300
v 0.23910000 0.09148100 0.03251300
v 0.23910000 0.09148100 0.03251300
v 0.23902500 0.10487800 -0.01731300
v 0.23902500 0.10487800 -0.01731300
v 0.23882500 0.10155800 -0.02297900
v 0.23892100 0.07942300 -0.03872700
v 0.23880000 0.10867400 0.00287400
v 0.23910000 0.06850000 0.03975000
v 0.23910000 0.06850000 0.03975000
v 0.23910000 0.06850000 -0.03975000
v 0.18400000 0.07686800 -0.03937000
v 0.18400000 0.06850000 -0.04025000
v 0.18198700 0.06850000 -0.04025000
v 0.18198700 0.07965300 -0.03867400
v 0.18198700 0.09033900 -0.03381000
v 0.18400000 0.08487100 -0.03677000
v 0.18198700 0.09926800 -0.02595000
v 0.18198700 0.10545100 -0.01596000
v 0.18400000 0.10335800 -0.02012500
v 0.18400000 0.09215800 -0.03256300
v 0.18198700 0.10840900 -0.00522500
v 0.18400000 0.10678000 -0.01243800
v 0.18400000 0.10853000 0.00419900
v 0.18400000 0.10853000 -0.00420300
v 0.18198700 0.10835500 0.00562500
v 0.18400000 0.10678000 0.01243800
v 0.18198700 0.10514300 0.01665400
v 0.18198700 0.09872100 0.02658500
v 0.18400000 0.10335800 0.02012500
v 0.18198700 0.08963900 0.03425200
v 0.18198700 0.07909600 0.03883000
v 0.18400000 0.08487100 0.03677000
v 0.18400000 0.09215800 0.03256300
v 0.18198700 0.06850000 0.04025000
v 0.18413800 0.07654100 0.03938900
v 0.21509600 0.08382300 -0.03671600
v 0.21573400 0.08807800 -0.03521300
v 0.21511200 0.08393300 -0.03718300
v 0.21510100 0.09698700 -0.02778300
v 0.21562500 0.09951700 -0.02571700
v 0.21562900 0.09585600 -0.02957900
v 0.21509100 0.09190200 -0.03273500
v 0.21501700 0.10088900 -0.02360300
v 0.21564300 0.10272900 -0.02126000
v 0.21509700 0.10417400 -0.01765400
v 0.21558600 0.10512800 -0.01674800
v 0.21559900 0.10666600 -0.01284200
v 0.21510100 0.10648800 -0.01183300
v 0.21562300 0.10801600 -0.00795200
v 0.21510200 0.10788800 -0.00575900
v 0.21563000 0.10873500 -0.00204500
v 0.21561100 0.10871400 0.00207800
v 0.21509900 0.10828900 0.00044700
v 0.21510100 0.10778200 0.00640700
v 0.21509600 0.10624800 0.01262800
v 0.21557700 0.10641900 0.01357700
v 0.21560900 0.10749400 0.01000300
v 0.21559900 0.10475300 0.01753200
v 0.21510000 0.10377400 0.01840900
v 0.21564600 0.10236000 0.02185600
v 0.21555900 0.10827200 0.00634700
v 0.21506300 0.09952800 0.02562800
v 0.21564400 0.08534900 0.03662100
v 0.21563900 0.09066900 0.03364000
v 0.21509900 0.08833100 0.03451100
v 0.21561000 0.08010100 0.03857200
v 0.21510400 0.08297400 0.03706600
v 0.21556700 0.07445800 0.03986800
v 0.21509700 0.07517400 0.03933700
v 0.21561500 0.06850600 0.04027900
v 0.21510000 0.06850000 0.03975000
v 0.23909900 0.07540300 -0.03964100
v 0.23910000 0.06850000 -0.03975000
v 0.23849000 0.06854100 -0.04034400
v 0.21310000 0.08156900 0.03806900
v 0.21458700 0.07539500 0.03973200
v 0.21459900 0.08250800 0.03777700
v 0.21310000 0.08765700 0.03539900
v 0.21464100 0.08905400 0.03468100
v 0.21310000 0.09811300 0.02726100
v 0.21510500 0.09414400 0.03100700
v 0.21506300 0.09952800 0.02562800
v 0.21310000 0.09322200 0.03176300
v 0.21310000 0.10219600 0.02201500
v 0.21463500 0.10456300 0.01801700
v 0.21270700 0.07512800 0.03966100
v 0.21430300 0.06849600 0.04038500
v 0.21272200 0.10534100 0.01595800
v 0.21459400 0.10724600 0.01104300
v 0.21273500 0.10759000 0.00905600
v 0.21423800 0.10883500 0.00338600
v 0.21311800 0.10860100 -0.00344800
v 0.21460700 0.10852300 -0.00473500
v 0.21271700 0.10554900 -0.01545400
v 0.21459400 0.10725800 -0.01099800
v 0.21466300 0.10461400 -0.01791300
v 0.21272900 0.10764600 -0.00882000
v 0.21310000 0.10219600 -0.02201500
v 0.21501700 0.10088900 -0.02360300
v 0.21310000 0.09811300 -0.02726100
v 0.21464800 0.09682700 -0.02868500
v 0.21310000 0.09322200 -0.03176300
v 0.21509100 0.09190200 -0.03273500
v 0.21310000 0.08765700 -0.03539900
v 0.21465700 0.08379100 -0.03733400
v 0.21310000 0.08156900 -0.03806900
v 0.21450100 0.07508500 -0.03979500
v 0.21276500 0.07583600 -0.03953800
v 0.21229400 0.06857000 -0.04016700
v 0.21507000 0.06853200 -0.04023100
v 0.23908800 0.09006700 -0.03395500
v 0.23861900 0.08713200 -0.03567000
v 0.21573400 0.08807800 -0.03521300
v 0.23862100 0.09319400 -0.03177400
v 0.21509100 0.09190200 -0.03273500
v 0.21562900 0.09585600 -0.02957900
v 0.23906300 0.09752300 -0.02791200
v 0.23882500 0.10155800 -0.02297900
v 0.21562500 0.09951700 -0.02571700
v 0.23902500 0.10487800 -0.01731300
v 0.21564300 0.10272900 -0.02126000
v 0.23859300 0.10679800 -0.01236700
v 0.21559900 0.10666600 -0.01284200
v 0.21558600 0.10512800 -0.01674800
v 0.23909200 0.10839400 -0.00517000
v 0.23887400 0.10776200 -0.00878600
v 0.21562300 0.10801600 -0.00795200
v 0.23880000 0.10867400 0.00287400
v 0.23861400 0.10870200 -0.00180600
v 0.21563000 0.10873500 -0.00204500
v 0.23861000 0.10791000 0.00814200
v 0.21555900 0.10827200 0.00634700
v 0.21561100 0.10871400 0.00207800
v 0.23909600 0.10565000 0.01542000
v 0.23909700 0.10696600 0.01176700
v 0.21557700 0.10641900 0.01357700
v 0.21560900 0.10749400 0.01000300
v 0.23859500 0.10423300 0.01850700
v 0.21559900 0.10475300 0.01753200
v 0.21564600 0.10236000 0.02185600
v 0.23861600 0.10167000 0.02284300
v 0.21506300 0.09952800 0.02562800
v 0.23909700 0.09876600 0.02650300
v 0.23865000 0.09214800 0.03259300
v 0.23859800 0.09605000 0.02933300
v 0.21510500 0.09414400 0.03100700
v 0.21560300 0.09664600 0.02880300
v 0.21563900 0.09066900 0.03364000
v 0.21564400 0.08534900 0.03662100
v 0.23860700 0.08776000 0.03533300
v 0.21561000 0.08010100 0.03857200
v 0.23854300 0.07993900 0.03863000
v 0.23896300 0.08430200 0.03700400
v 0.23909700 0.07357700 0.03996200
v 0.21556700 0.07445800 0.03986800
v 0.21561500 0.06850600 0.04027900
v 0.21511200 0.08393300 -0.03718300
v 0.23860400 0.08304300 -0.03755400
v 0.23860000 0.06850000 0.04025000
v 0.23896300 0.08430200 0.03700400
v 0.23910000 0.09148100 0.03251300
v 0.23860700 0.08776000 0.03533300
v 0.23909700 0.07357700 0.03996200
v 0.23854300 0.07993900 0.03863000
v 0.23909700 0.09876600 0.02650300
v 0.23909700 0.09876600 0.02650300
v 0.23865000 0.09214800 0.03259300
v 0.23909600 0.10565000 0.01542000
v 0.23861600 0.10167000 0.02284300
v 0.23880000 0.10867400 0.00287400
v 0.23880000 0.10867400 0.00287400
v 0.23909200 0.10839400 -0.00517000
v 0.23861400 0.10870200 -0.00180600
v 0.23887400 0.10776200 -0.00878600
v 0.23902500 0.10487800 -0.01731300
v 0.23859300 0.10679800 -0.01236700
v 0.23906300 0.09752300 -0.02791200
v 0.23908800 0.09006700 -0.03395500
v 0.23908800 0.09006700 -0.03395500
v 0.23862100 0.09319400 -0.03177400
v 0.23892100 0.07942300 -0.03872700
v 0.23861900 0.08713200 -0.03567000
v 0.21510000 0.06850000 0.03975000
v 0.21509700 0.07517400 0.03933700
v 0.21430300 0.06849600 0.04038500
v 0.21458700 0.07539500 0.03973200
v 0.21459900 0.08250800 0.03777700
v 0.21510400 0.08297400 0.03706600
v 0.21464100 0.08905400 0.03468100
v 0.21459400 0.10724600 0.01104300
v 0.21510100 0.10778200 0.00640700
v 0.21423800 0.10883500 0.00338600
v 0.21463500 0.10456300 0.01801700
v 0.21509600 0.10624800 0.01262800
v 0.21459400 0.10725800 -0.01099800
v 0.21510100 0.10648800 -0.01183300
v 0.21466300 0.10461400 -0.01791300
v 0.21460700 0.10852300 -0.00473500
v 0.21510200 0.10788800 -0.00575900
v 0.21509900 0.10828900 0.00044700
v 0.21465700 0.08379100 -0.03733400
v 0.21509900 0.07791200 -0.03866600
v 0.21450100 0.07508500 -0.03979500
v 0.21507000 0.06853200 -0.04023100
v 0.19206800 0.10788200 -0.00440100
v 0.18929400 0.10738900 -0.00358300
v 0.18838200 0.10790000 -0.00127000
v 0.20394500 0.10790000 -0.00443600
v 0.19026000 0.10748000 0.00457800
v 0.19226600 0.10790000 0.00443000
v 0.18849300 0.10758300 0.00256800
v 0.20400500 0.10790000 0.00443500
v 0.20844100 0.10752200 -0.00211300
v 0.20771500 0.10786600 0.00147900
v 0.20648600 0.10758500 -0.00452500
v 0.20569300 0.10751100 0.00441800
v 0.18929400 0.10738900 -0.00358300
v 0.19052500 0.10740100 -0.00470000
v 0.18855000 0.10787100 -0.00345900
v 0.18817400 0.10740500 -0.00130200
v 0.18751900 0.10769300 -0.00143400
v 0.18730000 0.10801300 0.00011600
v 0.18772700 0.10773500 0.00216600
v 0.18849300 0.10758300 0.00256800
v 0.18838200 0.10790000 -0.00127000
v 0.20736700 0.10738700 0.00320800
v 0.20569300 0.10751100 0.00441800
v 0.20590200 0.10758300 0.00487800
v 0.20846400 0.10736600 0.00114400
v 0.20820300 0.10780800 0.00286700
v 0.20771500 0.10786600 0.00147900
v 0.20896700 0.10800400 -0.00015500
v 0.20844100 0.10752200 -0.00211300
v 0.20569300 0.10751100 0.00441800
v 0.19026000 0.10748000 0.00457800
v 0.20590200 0.10758300 0.00487800
v 0.20400500 0.10790000 0.00443500
v 0.19226600 0.10790000 0.00443000
v 0.18849300 0.10758300 0.00256800
v 0.18772700 0.10773500 0.00216600
v 0.19022800 0.10794400 0.00498200
v 0.19026000 0.10748000 0.00457800
v 0.19138700 0.10745300 0.00518400
v 0.20361500 0.10772700 0.00541400
v 0.19022800 0.10794400 0.00498200
v 0.18906700 0.10820900 0.00530300
v 0.18906700 0.10820900 0.00530300
v 0.20494200 0.10752200 -0.00515600
v 0.20653800 0.10804400 -0.00453100
v 0.20345500 0.10820000 -0.00545000
v 0.19079500 0.10782600 -0.00524700
v 0.20494200 0.10752200 -0.00515600
v 0.20345500 0.10820000 -0.00545000
v 0.20890800 0.10814800 -0.00000400
v 0.21004500 0.10789000 0.00101100
v 0.20885000 0.10817900 -0.00362600
v 0.20836900 0.10800600 -0.00246100
v 0.20653800 0.10804400 -0.00453100
v 0.20493100 0.10820100 -0.00624200
v 0.20345500 0.10820000 -0.00545000
v 0.19136900 0.10820100 -0.00623700
v 0.20757500 0.10803700 0.00392500
v 0.20694600 0.10824400 0.00525300
v 0.18906700 0.10820900 0.00530300
v 0.18906700 0.10820900 0.00530300
v 0.20470100 0.10820000 0.00625800
v 0.18585800 0.10827700 -0.00090100
v 0.18585800 0.10827700 -0.00090100
v 0.18786500 0.10804300 -0.00245700
v 0.18919500 0.10823300 -0.00522900
v 0.19079500 0.10782600 -0.00524700
v 0.18730000 0.10801300 0.00011600
v 0.18794100 0.10802600 0.00263800
v 0.18794100 0.10802600 0.00263800
v 0.19022800 0.10794400 0.00498200
v 0.19206100 0.10820000 0.00626400
v 0.21147500 0.08417200 -0.03653000
v 0.21276500 0.07583600 -0.03953800
v 0.20985000 0.08397500 -0.03607000
v 0.21272900 0.10764600 -0.00882000
v 0.20650400 0.10634200 -0.00560400
v 0.20830900 0.10706800 -0.00418700
v 0.21271700 0.10554900 -0.01545400
v 0.20758800 0.10419900 -0.01456100
v 0.20654800 0.10488400 -0.01181000
v 0.21311800 0.10860100 -0.00344800
v 0.21004500 0.10789000 0.00101100
v 0.20821400 0.10705300 0.00423100
v 0.20646100 0.10634500 0.00561600
v 0.21273500 0.10759000 0.00905600
v 0.20658500 0.10487000 0.01186100
v 0.20766200 0.10398500 0.01514500
v 0.21272200 0.10534100 0.01595800
v 0.20985000 0.09597900 0.02802700
v 0.20893000 0.10065600 0.02199300
v 0.20822500 0.09562800 0.02767000
v 0.20874800 0.07561700 0.03828200
v 0.21147500 0.08353000 0.03679900
v 0.20822500 0.08315200 0.03587300
v 0.20660000 0.07489900 -0.03771100
v 0.20985000 0.07639900 -0.03844700
v 0.20660000 0.06850000 -0.03825000
v 0.20660000 0.08772700 -0.03306600
v 0.20660000 0.08141400 -0.03600400
v 0.20660000 0.09349400 -0.02895500
v 0.20660000 0.09840300 -0.02385100
v 0.20822500 0.09617000 -0.02712800
v 0.20660000 0.10223100 -0.01803500
v 0.20873800 0.10102300 -0.02134400
v 0.21229400 0.06857000 -0.04016700
v 0.21148100 0.06850200 -0.03975200
v 0.20985000 0.09652700 -0.02747900
v 0.21310000 0.09811300 -0.02726100
v 0.21310000 0.09322200 -0.03176300
v 0.21310000 0.08156900 -0.03806900
v 0.21310000 0.08765700 -0.03539900
v 0.21310000 0.10219600 -0.02201500
v 0.21423800 0.10883500 0.00338600
v 0.20660000 0.10223100 0.01803500
v 0.20660000 0.09840300 0.02385100
v 0.20660000 0.09349400 0.02895500
v 0.20660000 0.08772700 0.03306600
v 0.20660000 0.08141400 0.03600400
v 0.20660000 0.07489900 0.03771100
v 0.20660000 0.06850000 0.03825000
v 0.21119400 0.06849700 0.03972900
v 0.21310000 0.10219600 0.02201500
v 0.21310000 0.09811300 0.02726100
v 0.21310000 0.09322200 0.03176300
v 0.21310000 0.08765700 0.03539900
v 0.21270700 0.07512800 0.03966100
v 0.21310000 0.08156900 0.03806900
v 0.21430300 0.06849600 0.04038500
v 0.23860400 0.08304300 -0.03755400
v 0.23892100 0.07942300 -0.03872700
v 0.21988000 0.08072400 -0.03836000
v 0.21507000 0.06853200 -0.04023100
v 0.22868500 0.07493100 -0.03980800
v 0.23849000 0.06854100 -0.04034400
v 0.23909900 0.07540300 -0.03964100
v 0.21511200 0.08393300 -0.03718300
v 0.18198700 0.06850000 0.03975000
v 0.18198700 0.06850000 0.04025000
v 0.18198700 0.07909600 0.03883000
v 0.18198700 0.06850000 -0.03975000
v 0.18198700 0.07965300 -0.03867400
v 0.18198700 0.06850000 -0.04025000
v 0.18198700 0.09033900 -0.03381000
v 0.18198700 0.08963900 0.03425200
v 0.18198700 0.10514300 0.01665400
v 0.18198700 0.09926800 -0.02595000
v 0.18198700 0.09872100 0.02658500
v 0.18198700 0.10835500 0.00562500
v 0.18198700 0.10545100 -0.01596000
v 0.18198700 0.10840900 -0.00522500
v 0.18585800 0.10827700 -0.00090100
v 0.18400000 0.10853000 0.00419900
v 0.18775100 0.10740300 0.00405400
v 0.18562500 0.10750500 0.00765900
v 0.19050100 0.10627600 0.00601800
v 0.18868900 0.10702800 -0.00487100
v 0.19055700 0.10627700 -0.00601300
v 0.18562500 0.10743700 -0.00800000
v 0.18400000 0.10853000 -0.00420300
v 0.18413800 0.07654100 0.03938900
v 0.19050000 0.07485500 0.03771800
v 0.19050000 0.08132400 0.03603600
v 0.19050000 0.08759400 0.03314300
v 0.18400000 0.08487100 0.03677000
v 0.19050000 0.09333100 0.02909500
v 0.19050000 0.09823100 0.02406500
v 0.18400000 0.09841200 0.02693300
v 0.19035000 0.06850000 0.03825400
v 0.18599300 0.07231600 0.03946900
v 0.18562500 0.06850000 0.03975000
v 0.18733900 0.10482100 0.01482600
v 0.19050000 0.10207300 0.01832700
v 0.19053400 0.10479600 0.01208600
v 0.18400000 0.09215800 0.03256300
v 0.18400000 0.10335800 0.02012500
v 0.18400000 0.10678000 0.01243800
v 0.18400000 0.06850000 0.04025000
v 0.18738800 0.10455300 -0.01543400
v 0.19051400 0.10477500 -0.01214000
v 0.19050000 0.10207300 -0.01832700
v 0.19050000 0.09823100 -0.02406500
v 0.19050000 0.08759400 -0.03314300
v 0.18400000 0.09215800 -0.03256300
v 0.19050000 0.09333100 -0.02909500
v 0.19050000 0.08132400 -0.03603600
v 0.18400000 0.08487100 -0.03677000
v 0.18400000 0.10335800 -0.02012500
v 0.18683600 0.07482100 -0.03897000
v 0.19050000 0.07485500 -0.03771800
v 0.19050000 0.06850000 -0.03825000
v 0.18554800 0.06849800 -0.03977300
v 0.18400000 0.09841200 -0.02693300
v 0.18400000 0.10678000 -0.01243800
v 0.18400000 0.06850000 -0.04025000
v 0.18400000 0.07686800 -0.03937000
v 0.20654800 0.10488400 -0.01181000
v 0.19051400 0.10477500 -0.01214000
v 0.19055700 0.10627700 -0.00601300
v 0.20660000 0.09840300 -0.02385100
v 0.19050000 0.09823100 -0.02406500
v 0.19050000 0.10207300 -0.01832700
v 0.20660000 0.10223100 -0.01803500
v 0.20660000 0.08772700 -0.03306600
v 0.19050000 0.08759400 -0.03314300
v 0.19050000 0.09333100 -0.02909500
v 0.20660000 0.07489900 -0.03771100
v 0.19050000 0.07485500 -0.03771800
v 0.19050000 0.08132400 -0.03603600
v 0.20660000 0.06850000 -0.03825000
v 0.19050000 0.06850000 -0.03825000
v 0.20660000 0.08141400 -0.03600400
v 0.20660000 0.09349400 -0.02895500
v 0.20660000 0.07489900 0.03771100
v 0.19050000 0.07485500 0.03771800
v 0.20660000 0.06850000 0.03825000
v 0.20660000 0.08772700 0.03306600
v 0.19050000 0.08759400 0.03314300
v 0.20660000 0.08141400 0.03600400
v 0.19050000 0.08132400 0.03603600
v 0.20660000 0.09840300 0.02385100
v 0.19050000 0.09823100 0.02406500
v 0.20660000 0.09349400 0.02895500
v 0.20658500 0.10487000 0.01186100
v 0.19053400 0.10479600 0.01208600
v 0.20660000 0.10223100 0.01803500
v 0.20646100 0.10634500 0.00561600
v 0.19050100 0.10627600 0.00601800
v 0.19050000 0.10207300 0.01832700
v 0.19050000 0.09333100 0.02909500
v 0.19136900 0.10820100 -0.00623700
v 0.19211300 0.10620400 -0.00644500
v 0.19055700 0.10627700 -0.00601300
v 0.18868900 0.10702800 -0.00487100
v 0.18919500 0.10823300 -0.00522900
v 0.18585800 0.10827700 -0.00090100
v 0.20493100 0.10820100 -0.00624200
v 0.20439700 0.10620500 -0.00642900
v 0.19211300 0.10620400 -0.00644500
v 0.19136900 0.10820100 -0.00623700
v 0.20885000 0.10817900 -0.00362600
v 0.21004500 0.10789000 0.00101100
v 0.20830900 0.10706800 -0.00418700
v 0.20439700 0.10620500 -0.00642900
v 0.20493100 0.10820100 -0.00624200
v 0.20650400 0.10634200 -0.00560400
v 0.18585800 0.10827700 -0.00090100
v 0.18775100 0.10740300 0.00405400
v 0.18906700 0.10820900 0.00530300
v 0.19050100 0.10627600 0.00601800
v 0.19211700 0.10620400 0.00644500
v 0.19206100 0.10820000 0.00626400
v 0.20440800 0.10620600 0.00643000
v 0.20470100 0.10820000 0.00625800
v 0.19211700 0.10620400 0.00644500
v 0.19206100 0.10820000 0.00626400
v 0.20821400 0.10705300 0.00423100
v 0.20694600 0.10824400 0.00525300
v 0.20646100 0.10634500 0.00561600
v 0.20470100 0.10820000 0.00625800
v 0.20440800 0.10620600 0.00643000
v 0.21004500 0.10789000 0.00101100
v 0.21148100 0.06850200 -0.03975200
v 0.21507000 0.06853200 -0.04023100
v 0.23849000 0.06854100 -0.04034400
v 0.23910000 0.03177600 0.01521200
v 0.23910000 0.03177600 -0.01521200
v 0.23910000 0.03728400 -0.02461000
v 0.23910000 0.02875500 -0.00062600
v 0.23910000 0.04083800 0.02854600
v 0.23910000 0.04582100 -0.03264500
v 0.23910000 0.06850000 0.03975000
v 0.23910000 0.05669600 -0.03795700
v 0.23910000 0.06850000 -0.03975000
v 0.23910000 0.05328800 0.03672400
v 0.19642300 0.06132300 0.03909900
v 0.22467400 0.06543900 0.03965400
v 0.18874700 0.06521800 0.03962800
v 0.22482200 0.06138800 0.03910900
v 0.19626500 0.06166200 -0.03915700
v 0.22494000 0.06555700 -0.03965600
v 0.22434000 0.06143500 -0.03913300
v 0.23910000 0.06850000 0.03975000
v 0.21510000 0.06850000 0.03975000
v 0.21119400 0.06849700 0.03972900
v 0.18562500 0.06850000 0.03975000
v 0.23910000 0.05328800 0.03672400
v 0.18198700 0.05386800 0.03695900
v 0.23910000 0.04083800 0.02854600
v 0.18198700 0.04039300 0.02810700
v 0.23910000 0.03177600 0.01521200
v 0.18198700 0.06850000 0.03975000
v 0.18198700 0.02875000 -0.00000000
v 0.23910000 0.02875500 -0.00062600
v 0.18198700 0.03154100 0.01463200
v 0.18198700 0.03154100 -0.01463200
v 0.23910000 0.04582100 -0.03264500
v 0.23910000 0.03728400 -0.02461000
v 0.18198700 0.04039300 -0.02810700
v 0.23910000 0.03177600 -0.01521200
v 0.23910000 0.06850000 -0.03975000
v 0.23910000 0.05669600 -0.03795700
v 0.18198700 0.05386800 -0.03695900
v 0.21148100 0.06850200 -0.03975200
v 0.18554800 0.06849800 -0.03977300
v 0.18912600 0.06509100 -0.03960400
v 0.18198700 0.06850000 -0.03975000
v 0.18198700 0.03154100 -0.01463200
v 0.18198700 0.02875000 -0.00000000
v 0.18198700 0.03154100 0.01463200
v 0.18198700 0.04039300 -0.02810700
v 0.18198700 0.04039300 0.02810700
v 0.18198700 0.06850000 -0.03975000
v 0.18198700 0.05386800 0.03695900
v 0.18198700 0.06850000 0.03975000
v 0.18198700 0.05386800 -0.03695900
v 0.20660000 0.06850000 0.03825000
v 0.19035000 0.06850000 0.03825400
v 0.19035000 0.06850000 0.03825400
v 0.21119400 0.06849700 0.03972900
v 0.21119400 0.06849700 0.03972900
v 0.18562500 0.06850000 0.03975000
v 0.23860000 0.06850000 0.04025000
v 0.21561500 0.06850600 0.04027900
v 0.21510000 0.06850000 0.03975000
v 0.23910000 0.06850000 0.03975000
v 0.21430300 0.06849600 0.04038500
v 0.21119400 0.06849700 0.03972900
v 0.21510000 0.06850000 0.03975000
v 0.18562500 0.06850000 0.03975000
v 0.18400000 0.06850000 0.04025000
v 0.18198700 0.06850000 0.04025000
v 0.18198700 0.06850000 0.03975000
v 0.18198700 0.06850000 -0.03975000
v 0.18198700 0.06850000 -0.04025000
v 0.18554800 0.06849800 -0.03977300
v 0.20660000 0.06850000 -0.03825000
v 0.20660000 0.06850000 -0.03825000
v 0.21148100 0.06850200 -0.03975200
v 0.18554800 0.06849800 -0.03977300
v 0.18554800 0.06849800 -0.03977300
v 0.19050000 0.06850000 -0.03825000
v 0.23887400 0.10776200 -0.00878600
v 0.18400000 0.09841200 -0.02693300
v 0.18400000 0.09841200 0.02693300
v 0.18400000 0.06850000 0.04025000
v 0.21510500 0.09414400 0.03100700
v 0.21560300 0.09664600 0.02880300
v 0.23910000 0.06850000 0.03975000
v 0.23860000 0.06850000 0.04025000
v 0.23859800 0.09605000 0.02933300
v 0.23859500 0.10423300 0.01850700
v 0.23860400 0.08304300 -0.03755400
v 0.23861000 0.10791000 0.00814200
v 0.23909700 0.10696600 0.01176700
v 0.21509900 0.08833100 0.03451100
v 0.21510500 0.09414400 0.03100700
v 0.21506300 0.09952800 0.02562800
v 0.21510000 0.10377400 0.01840900
v 0.21509700 0.10417400 -0.01765400
v 0.21501700 0.10088900 -0.02360300
v 0.21501700 0.10088900 -0.02360300
v 0.21510100 0.09698700 -0.02778300
v 0.21464800 0.09682700 -0.02868500
v 0.21509100 0.09190200 -0.03273500
v 0.21509600 0.08382300 -0.03671600
v 0.19052500 0.10740100 -0.00470000
v 0.20494200 0.10752200 -0.00515600
v 0.19079500 0.10782600 -0.00524700
v 0.20648600 0.10758500 -0.00452500
v 0.19206800 0.10788200 -0.00440100
v 0.20394500 0.10790000 -0.00443600
v 0.19206800 0.10788200 -0.00440100
v 0.19079500 0.10782600 -0.00524700
v 0.19138700 0.10745300 0.00518400
v 0.20361500 0.10772700 0.00541400
v 0.19022800 0.10794400 0.00498200
v 0.20694600 0.10824400 0.00525300
v 0.20361500 0.10772700 0.00541400
v 0.20694600 0.10824400 0.00525300
v 0.20757500 0.10803700 0.00392500
v 0.18919500 0.10823300 -0.00522900
v 0.20650400 0.10634200 -0.00560400
v 0.19035000 0.06850000 0.03825400
v 0.23910000 0.06850000 -0.03975000
v 0.21229400 0.06857000 -0.04016700
v 0.18400000 0.06850000 -0.04025000
vn 1.00000000 0.00010000 -0.00000000
vn 1.00000000 -0.00010000 0.00000000
vn 1.00000000 0.00010000 -0.00000000
vn 1.00000000 -0.00010000 0.00000000
vn 1.00000000 -0.00010000 0.00010000
vn 1.00000000 0.00000000 -0.00000000
vn 1.00000000 -0.00020000 0.00000000
vn 1.00000000 0.00020000 0.00000000
vn 1.00000000 -0.00020000 0.00020000
vn 1.00000000 -0.00020000 0.00020000
vn 1.00000000 0.00010000 -0.00000000
vn 1.00000000 -0.00010000 0.00010000
vn 1.00000000 0.00000000 -0.00000000
vn 1.00000000 -0.00020000 0.00000000
vn 1.00000000 -0.00020000 0.00020000
vn 1.00000000 0.00000000 -0.00000000
vn 1.00000000 -0.00010000 0.00010000
vn 1.00000000 0.00000000 -0.00000000
vn 1.00000000 0.00000000 -0.00000000
vn 1.00000000 0.00000000 -0.00000000
vn 1.00000000 0.00000000 -0.00000000
vn 1.00000000 0.00010000 -0.00000000
vn 1.00000000 -0.00020000 0.00000000
vn 1.00000000 -0.00010000 0.00000000
vn 1.00000000 -0.00020000 0.00000000
vn 1.00000000 0.00000000 -0.00000000
vn 1.00000000 0.00000000 -0.00000000
vn 1.00000000 -0.00020000 0.00000000
vn 1.00000000 0.00000000 -0.00000000
vn 1.00000000 0.00000000 -0.00000000
vn 1.00000000 0.00000000 -0.00000000
vn 1.00000000 0.00020000 0.00000000
vn 1.00000000 0.00010000 -0.00000000
vn 1.00000000 0.00020000 0.00000000
vn -0.00000000 0.20790000 -0.97810000
vn -0.00000000 0.00000000 -1.00000000
vn -0.00000000 0.00000000 -1.00000000
vn -0.00000000 0.27710000 -0.96080000
vn -0.00000000 0.54260000 -0.84000000
vn -0.00000000 0.40670000 -0.91350000
vn 0.00000000 0.76440000 -0.64470000
vn 0.00000000 0.91800000 -0.39650000
vn -0.00000000 0.86600000 -0.50000000
vn -0.00000000 0.58780000 -0.80900000
vn -0.00000000 0.99150000 -0.12980000
vn 0.00000000 0.95110000 -0.30900000
vn 0.00000000 0.99450000 0.10430000
vn -0.00000000 0.99450000 -0.10440000
vn 0.00000000 0.99020000 0.13980000
vn 0.00000000 0.95110000 0.30900000
vn -0.00000000 0.91040000 0.41380000
vn 0.00000000 0.75080000 0.66050000
vn -0.00000000 0.86600000 0.50000000
vn -0.00000000 0.52520000 0.85100000
vn 0.00000000 0.26330000 0.96470000
vn -0.00000000 0.40670000 0.91350000
vn -0.00000000 0.58780000 0.80900000
vn -0.00000000 -0.00000000 1.00000000
vn -0.00000000 0.20000000 0.97980000
vn -0.70640000 0.27280000 -0.65310000
vn -0.70720000 0.34350000 -0.61790000
vn -0.70670000 0.27120000 -0.65350000
vn -0.70670000 0.50640000 -0.49400000
vn -0.70680000 0.54460000 -0.45140000
vn -0.70700000 0.48030000 -0.51920000
vn -0.70590000 0.41180000 -0.57630000
vn -0.70650000 0.57190000 -0.41680000
vn -0.70700000 0.60080000 -0.37320000
vn -0.70660000 0.63420000 -0.31390000
vn -0.70680000 0.64340000 -0.29420000
vn -0.70700000 0.67030000 -0.22560000
vn -0.70680000 0.67540000 -0.21050000
vn -0.70670000 0.69360000 -0.13940000
vn -0.70660000 0.70010000 -0.10240000
vn -0.70700000 0.70630000 -0.03580000
vn -0.70700000 0.70630000 0.03650000
vn -0.70670000 0.70750000 0.00790000
vn -0.70660000 0.69840000 0.11390000
vn -0.70660000 0.67110000 0.22440000
vn -0.70680000 0.66610000 0.23840000
vn -0.70710000 0.68490000 0.17570000
vn -0.70690000 0.63680000 0.30790000
vn -0.70680000 0.62720000 0.32720000
vn -0.70690000 0.59420000 0.38370000
vn -0.70660000 0.69880000 0.11140000
vn -0.70590000 0.54620000 0.45100000
vn -0.70680000 0.29570000 0.64260000
vn -0.70700000 0.38920000 0.59050000
vn -0.70660000 0.35250000 0.61360000
vn -0.70690000 0.20360000 0.67740000
vn -0.70670000 0.25730000 0.65900000
vn -0.70660000 0.10460000 0.69990000
vn -0.70610000 0.11840000 0.69820000
vn -0.70690000 0.00010000 0.70730000
vn -0.70710000 0.00000000 0.70710000
vn 0.70650000 0.12150000 -0.69720000
vn 0.70710000 -0.00000000 -0.70710000
vn 0.70640000 0.00060000 -0.70780000
vn 0.00000000 0.32470000 0.94580000
vn 0.00000000 0.17100000 0.98530000
vn 0.00000000 0.34770000 0.93760000
vn 0.00000000 0.47600000 0.87950000
vn 0.00000000 0.50980000 0.86030000
vn 0.00000000 0.73570000 0.67730000
vn -0.00000000 0.63740000 0.77050000
vn -0.00000000 0.77110000 0.63680000
vn -0.00000000 0.61420000 0.78910000
vn -0.00000000 0.83720000 0.54700000
vn -0.00000000 0.89460000 0.44690000
vn -0.00000000 0.16480000 0.98630000
vn 0.00000000 -0.00030000 1.00000000
vn -0.00000000 0.91760000 0.39750000
vn 0.00000000 0.96170000 0.27410000
vn 0.00000000 0.97410000 0.22590000
vn 0.00000000 0.99650000 0.08370000
vn 0.00000000 0.99630000 -0.08560000
vn 0.00000000 0.99310000 -0.11750000
vn -0.00000000 0.92290000 -0.38510000
vn -0.00000000 0.96200000 -0.27300000
vn -0.00000000 0.89590000 -0.44430000
vn -0.00000000 0.97550000 -0.21990000
vn 0.00000000 0.83720000 -0.54700000
vn -0.00000000 0.80820000 -0.58900000
vn 0.00000000 0.73570000 -0.67730000
vn -0.00000000 0.70260000 -0.71160000
vn 0.00000000 0.61420000 -0.78910000
vn -0.00000000 0.58140000 -0.81360000
vn 0.00000000 0.47590000 -0.87950000
vn 0.00000000 0.37890000 -0.92540000
vn -0.00000000 0.32470000 -0.94580000
vn -0.00000000 0.16320000 -0.98660000
vn -0.00000000 0.18230000 -0.98320000
vn -0.00000000 0.00190000 -1.00000000
vn 0.00000000 0.00080000 -1.00000000
vn 0.00000000 0.53620000 -0.84410000
vn 0.00000000 0.46300000 -0.88640000
vn -0.00000000 0.48590000 -0.87400000
vn 0.00000000 0.61370000 -0.78960000
vn 0.00000000 0.58160000 -0.81350000
vn -0.00000000 0.67900000 -0.73420000
vn 0.00000000 0.72080000 -0.69320000
vn 0.00000000 0.82110000 -0.57080000
vn -0.00000000 0.76980000 -0.63830000
vn 0.00000000 0.90290000 -0.42980000
vn -0.00000000 0.84950000 -0.52760000
vn 0.00000000 0.95160000 -0.30730000
vn 0.00000000 0.94780000 -0.31890000
vn 0.00000000 0.90940000 -0.41590000
vn 0.00000000 0.99170000 -0.12850000
vn 0.00000000 0.97590000 -0.21840000
vn 0.00000000 0.98030000 -0.19730000
vn 0.00000000 0.99750000 0.07140000
vn 0.00010000 0.99900000 -0.04490000
vn -0.00000000 0.99870000 -0.05080000
vn 0.00000000 0.97930000 0.20230000
vn -0.00000000 0.98750000 0.15760000
vn -0.00000000 0.99870000 0.05160000
vn 0.00000000 0.92360000 0.38330000
vn 0.00000000 0.95630000 0.29250000
vn -0.00000000 0.94150000 0.33710000
vn 0.00000000 0.96860000 0.24850000
vn -0.00000000 0.88800000 0.45990000
vn -0.00000000 0.90020000 0.43540000
vn 0.00000000 0.84020000 0.54230000
vn 0.00000000 0.82360000 0.56720000
vn 0.00000000 0.77100000 0.63680000
vn 0.00000000 0.75230000 0.65880000
vn 0.00000000 0.58730000 0.80940000
vn 0.00000000 0.68460000 0.72890000
vn -0.00000000 0.63730000 0.77060000
vn 0.00000000 0.69890000 0.71520000
vn -0.00000000 0.55030000 0.83500000
vn -0.00000000 0.41800000 0.90840000
vn 0.00000000 0.47860000 0.87800000
vn -0.00000000 0.28800000 0.95760000
vn 0.00000000 0.28390000 0.95880000
vn 0.00000000 0.39270000 0.91970000
vn -0.00000000 0.12600000 0.99200000
vn -0.00000000 0.14780000 0.98900000
vn -0.00000000 0.00020000 1.00000000
vn 0.00000000 0.38340000 -0.92360000
vn 0.00000000 0.36120000 -0.93250000
vn -0.00000000 -0.00000000 1.00000000
vn 0.70590000 0.27800000 0.65140000
vn 0.70660000 0.40850000 0.57780000
vn 0.70700000 0.33830000 0.62100000
vn 0.70610000 0.08940000 0.70240000
vn 0.70680000 0.20090000 0.67830000
vn 0.70520000 0.53350000 0.46690000
vn 0.70530000 0.53350000 0.46690000
vn 0.70640000 0.41570000 0.57290000
vn 0.70550000 0.65440000 0.27190000
vn 0.70700000 0.58250000 0.40110000
vn 0.70660000 0.70580000 0.05070000
vn 0.70670000 0.70570000 0.05070000
vn 0.70670000 0.70160000 -0.09090000
vn 0.70700000 0.70650000 -0.03180000
vn 0.70640000 0.69070000 -0.15450000
vn 0.70660000 0.63900000 -0.30380000
vn 0.70710000 0.67300000 -0.21720000
vn 0.70610000 0.51030000 -0.49100000
vn 0.70630000 0.37930000 -0.59770000
vn 0.70630000 0.37940000 -0.59770000
vn 0.70690000 0.43410000 -0.55840000
vn 0.70280000 0.19350000 -0.68460000
vn 0.70700000 0.32740000 -0.62680000
vn 0.70710000 -0.00000000 0.70710000
vn 0.70580000 0.11850000 0.69850000
vn 0.70720000 -0.00020000 0.70700000
vn 0.70650000 0.12100000 0.69730000
vn 0.70680000 0.24610000 0.66330000
vn 0.70670000 0.25740000 0.65900000
vn 0.70630000 0.36080000 0.60910000
vn 0.70680000 0.68030000 0.19390000
vn 0.70670000 0.69830000 0.11390000
vn 0.70680000 0.70490000 0.05920000
vn 0.70630000 0.63330000 0.31640000
vn 0.70670000 0.67100000 0.22450000
vn 0.70680000 0.68050000 -0.19320000
vn 0.70670000 0.67550000 -0.21040000
vn 0.70610000 0.63440000 -0.31460000
vn 0.70660000 0.70270000 -0.08320000
vn 0.70660000 0.70020000 -0.10240000
vn 0.70670000 0.70740000 0.00790000
vn 0.70590000 0.26850000 -0.65550000
vn 0.70680000 0.16740000 -0.68730000
vn 0.70660000 0.11540000 -0.69810000
vn 0.70570000 0.00050000 -0.70850000
vn 0.00000000 1.00000000 0.00000000
vn 0.00000000 1.00000000 0.00000000
vn 0.00000000 1.00000000 0.00000000
vn 0.00000000 1.00000000 0.00000000
vn 0.00000000 1.00000000 0.00000000
vn 0.00000000 1.00000000 0.00000000
vn 0.00000000 1.00000000 0.00000000
vn 0.00000000 1.00000000 0.00000000
vn 0.00000000 1.00000000 0.00000000
vn 0.00000000 1.00000000 0.00000000
vn 0.00000000 1.00000000 0.00000000
vn 0.00000000 1.00000000 0.00000000
vn -0.04760000 0.99890000 -0.00410000
vn 0.15050000 0.91610000 0.37160000
vn 0.77490000 0.08230000 0.62670000
vn -0.38560000 0.91620000 -0.10900000
vn 0.85900000 0.46080000 0.22320000
vn 0.99290000 -0.11710000 -0.01940000
vn 0.28300000 0.95390000 -0.09990000
vn -0.91170000 0.27510000 0.30500000
vn -0.93270000 0.03980000 -0.35840000
vn -0.17510000 0.97720000 -0.12040000
vn 0.14800000 0.96210000 0.22910000
vn -0.39630000 0.53470000 -0.74630000
vn -0.26370000 0.96340000 -0.04900000
vn -0.84730000 0.18960000 -0.49620000
vn 0.88140000 0.34760000 0.31980000
vn -0.99290000 -0.11290000 0.03660000
vn 0.11040000 0.99140000 -0.07040000
vn 0.00000000 0.63210000 0.77490000
vn 0.00000000 0.76440000 0.64480000
vn 0.00000000 0.99740000 0.07240000
vn 0.00000000 -0.00210000 1.00000000
vn -0.00000000 -0.00260000 1.00000000
vn 0.37030000 0.91320000 -0.17000000
vn 0.87050000 0.31230000 -0.38040000
vn 0.46390000 -0.05370000 -0.88430000
vn 0.24640000 0.83530000 -0.49150000
vn 0.17620000 0.64570000 -0.74290000
vn -0.00000000 0.00000000 -1.00000000
vn -0.00000000 0.00000000 -1.00000000
vn -0.00000000 0.00000000 -1.00000000
vn -0.00010000 0.00000000 -1.00000000
vn -0.28180000 -0.00000000 0.95950000
vn -0.56430000 0.00000000 0.82560000
vn -0.00000000 -0.00000000 1.00000000
vn -0.00000000 -0.00000000 1.00000000
vn -0.00000000 -0.00000000 1.00000000
vn -0.00000000 -0.00000000 1.00000000
vn 0.00000000 1.00000000 0.00000000
vn 0.00000000 1.00000000 0.00000000
vn 0.00000000 1.00000000 0.00000000
vn 0.00000000 1.00000000 0.00000000
vn 0.00000000 1.00000000 0.00000000
vn 0.00000000 1.00000000 0.00000000
vn 0.00000000 1.00000000 0.00000000
vn 0.00000000 1.00000000 0.00000000
vn 0.00000000 1.00000000 0.00000000
vn 0.00000000 1.00000000 0.00000000
vn -0.00010000 1.00000000 0.00000000
vn 0.00000000 1.00000000 0.00000000
vn 0.00000000 1.00000000 0.00000000
vn -0.00010000 1.00000000 0.00010000
vn 0.00000000 1.00000000 0.00000000
vn 0.00000000 1.00000000 0.00000000
vn 0.00000000 1.00000000 0.00000000
vn 0.00000000 1.00000000 0.00000000
vn 0.00000000 1.00000000 0.00000000
vn 0.00000000 1.00000000 0.00000000
vn -0.00010000 1.00000000 0.00010000
vn 0.00000000 1.00000000 0.00000000
vn 0.00000000 1.00000000 0.00000000
vn -0.29390000 0.37690000 -0.87840000
vn -0.29370000 0.17390000 -0.94000000
vn -0.29410000 0.37690000 -0.87840000
vn -0.29430000 0.93230000 -0.21010000
vn -0.29380000 0.94550000 -0.14070000
vn -0.29390000 0.95020000 -0.10310000
vn -0.29410000 0.88220000 -0.36780000
vn -0.29410000 0.88490000 -0.36120000
vn -0.29390000 0.90920000 -0.29480000
vn -0.29410000 0.95220000 -0.08190000
vn -0.29370000 0.95560000 0.02450000
vn -0.29380000 0.95020000 0.10410000
vn -0.29360000 0.94550000 0.14120000
vn -0.29430000 0.93100000 0.21590000
vn -0.29390000 0.90880000 0.29620000
vn -0.29410000 0.87900000 0.37530000
vn -0.29410000 0.87710000 0.37980000
vn -0.29410000 0.66910000 0.68250000
vn -0.29420000 0.78890000 0.53950000
vn -0.29410000 0.66910000 0.68250000
vn -0.29390000 0.17490000 0.93970000
vn -0.29410000 0.36140000 0.88480000
vn -0.29410000 0.36140000 0.88480000
vn -0.29410000 0.15990000 -0.94230000
vn -0.29410000 0.19240000 -0.93620000
vn -0.29410000 0.00000000 -0.95580000
vn -0.29410000 0.48040000 -0.82630000
vn -0.29410000 0.32270000 -0.89970000
vn -0.29410000 0.62450000 -0.72350000
vn -0.29410000 0.74720000 -0.59600000
vn -0.29410000 0.68250000 -0.66910000
vn -0.29410000 0.84290000 -0.45070000
vn -0.29420000 0.79910000 -0.52430000
vn -0.29310000 0.00160000 -0.95610000
vn -0.29410000 0.00000000 -0.95580000
vn -0.29410000 0.68250000 -0.66910000
vn -0.29410000 0.70320000 -0.64730000
vn -0.29410000 0.58710000 -0.75420000
vn -0.29410000 0.31030000 -0.90400000
vn -0.29410000 0.45490000 -0.84060000
vn -0.29410000 0.80010000 -0.52280000
vn -0.29430000 0.95240000 0.07990000
vn -0.29410000 0.84290000 0.45070000
vn -0.29410000 0.74720000 0.59600000
vn -0.29410000 0.62450000 0.72350000
vn -0.29410000 0.48040000 0.82620000
vn -0.29410000 0.32270000 0.89970000
vn -0.29410000 0.15990000 0.94230000
vn -0.29410000 0.00000000 0.95580000
vn -0.29390000 -0.00030000 0.95590000
vn -0.29410000 0.80010000 0.52280000
vn -0.29410000 0.70320000 0.64730000
vn -0.29410000 0.58710000 0.75420000
vn -0.29410000 0.45490000 0.84060000
vn -0.29360000 0.15770000 0.94280000
vn -0.29410000 0.31030000 0.90400000
vn -0.29480000 -0.00040000 0.95560000
vn 0.00000000 0.36110000 -0.93250000
vn -0.00000000 0.27140000 -0.96250000
vn -0.00000000 0.30360000 -0.95280000
vn 0.00000000 0.00080000 -1.00000000
vn 0.00000000 0.15950000 -0.98720000
vn -0.00000000 0.00110000 -1.00000000
vn 0.00000000 0.17150000 -0.98520000
vn -0.00000000 0.38330000 -0.92360000
vn -1.00000000 0.00000000 0.00000000
vn -1.00000000 0.00000000 0.00000000
vn -1.00000000 0.00000000 0.00000000
vn -1.00000000 0.00000000 0.00000000
vn -1.00000000 0.00000000 0.00000000
vn -1.00000000 0.00000000 0.00000000
vn -1.00000000 0.00000000 0.00000000
vn -1.00000000 0.00000000 0.00000000
vn -1.00000000 0.00000000 0.00000000
vn -1.00000000 0.00000000 0.00000000
vn -1.00000000 0.00000000 0.00000000
vn -1.00000000 0.00000000 0.00000000
vn -1.00000000 0.00000000 0.00000000
vn -1.00000000 0.00000000 0.00000000
vn 0.29330000 0.95580000 -0.02150000
vn 0.29410000 0.95060000 0.09980000
vn 0.29400000 0.95070000 0.09890000
vn 0.29410000 0.93790000 0.18410000
vn 0.29400000 0.94380000 0.15100000
vn 0.29390000 0.94830000 -0.12020000
vn 0.29390000 0.94390000 -0.15050000
vn 0.29410000 0.93620000 -0.19240000
vn 0.29410000 0.95060000 -0.09990000
vn 0.29420000 0.19030000 0.93660000
vn 0.29410000 0.15880000 0.94250000
vn 0.29410000 0.32040000 0.90050000
vn 0.29410000 0.47710000 0.82820000
vn 0.29410000 0.38880000 0.87320000
vn 0.29410000 0.62050000 0.72700000
vn 0.29410000 0.74290000 0.60130000
vn 0.29410000 0.71030000 0.63950000
vn 0.29440000 0.00080000 0.95570000
vn 0.29400000 0.09190000 0.95140000
vn 0.29410000 -0.00000000 0.95580000
vn 0.29400000 0.88490000 0.36130000
vn 0.29410000 0.83890000 0.45800000
vn 0.29390000 0.90710000 0.30130000
vn 0.29410000 0.56180000 0.77320000
vn 0.29410000 0.82770000 0.47790000
vn 0.29410000 0.90900000 0.29540000
vn 0.29410000 -0.00000000 0.95580000
vn 0.29400000 0.87860000 -0.37620000
vn 0.29400000 0.90650000 -0.30290000
vn 0.29410000 0.83890000 -0.45790000
vn 0.29410000 0.74290000 -0.60130000
vn 0.29410000 0.47710000 -0.82820000
vn 0.29410000 0.56180000 -0.77320000
vn 0.29410000 0.62050000 -0.72700000
vn 0.29410000 0.32040000 -0.90050000
vn 0.29410000 0.38880000 -0.87310000
vn 0.29410000 0.82770000 -0.47790000
vn 0.29330000 0.15310000 -0.94370000
vn 0.29410000 0.15880000 -0.94250000
vn 0.29410000 0.00000000 -0.95580000
vn 0.29410000 -0.00010000 -0.95580000
vn 0.29410000 0.71030000 -0.63950000
vn 0.29410000 0.90900000 -0.29530000
vn 0.29410000 0.00000000 -0.95580000
vn 0.29410000 0.19870000 -0.93490000
vn -0.00010000 0.95120000 -0.30870000
vn 0.00010000 0.94830000 -0.31740000
vn 0.00020000 0.98760000 -0.15720000
vn -0.00010000 0.78180000 -0.62350000
vn 0.00010000 0.77730000 -0.62910000
vn 0.00010000 0.87770000 -0.47920000
vn -0.00010000 0.88190000 -0.47150000
vn 0.00000000 0.50270000 -0.86450000
vn -0.00000000 0.49920000 -0.86650000
vn -0.00010000 0.64920000 -0.76070000
vn 0.00000000 0.16740000 -0.98590000
vn -0.00000000 0.16620000 -0.98610000
vn -0.00000000 0.33530000 -0.94210000
vn -0.00000000 0.00000000 -1.00000000
vn -0.00000000 0.00000000 -1.00000000
vn -0.00000000 0.33760000 -0.94130000
vn 0.00000000 0.65340000 -0.75700000
vn 0.00000000 0.16740000 0.98590000
vn 0.00000000 0.16620000 0.98610000
vn -0.00000000 -0.00000000 1.00000000
vn 0.00000000 0.50270000 0.86450000
vn -0.00000000 0.49920000 0.86650000
vn -0.00000000 0.33760000 0.94130000
vn -0.00000000 0.33530000 0.94210000
vn -0.00010000 0.78180000 0.62350000
vn 0.00010000 0.77730000 0.62910000
vn 0.00000000 0.65340000 0.75700000
vn -0.00010000 0.95070000 0.31000000
vn 0.00010000 0.94880000 0.31590000
vn -0.00010000 0.88190000 0.47150000
vn -0.00010000 0.98920000 0.14670000
vn 0.00010000 0.98750000 0.15730000
vn 0.00010000 0.87770000 0.47920000
vn 0.00010000 0.64920000 0.76060000
vn -0.22440000 0.08490000 -0.97080000
vn -0.10750000 0.08660000 -0.99040000
vn -0.35920000 0.08130000 -0.92970000
vn -0.65300000 0.06600000 -0.75440000
vn -0.57090000 0.07160000 -0.81790000
vn -0.99030000 0.01210000 -0.13840000
vn 0.00000000 0.08720000 -0.99620000
vn 0.00000000 0.08720000 -0.99620000
vn 0.00000000 0.08720000 -0.99620000
vn 0.00000000 0.08720000 -0.99620000
vn 0.83110000 0.04850000 -0.55400000
vn 0.98950000 -0.01260000 0.14410000
vn 0.76690000 0.05590000 -0.63930000
vn 0.15030000 0.08620000 -0.98490000
vn 0.23420000 0.08470000 -0.96850000
vn 0.49060000 0.07600000 -0.86810000
vn -0.99310000 -0.01030000 -0.11700000
vn -0.78550000 0.05390000 0.61650000
vn -0.58250000 0.07080000 0.80980000
vn -0.36580000 0.08110000 0.92710000
vn -0.10680000 0.08670000 0.99050000
vn -0.11540000 0.08660000 0.98950000
vn 0.00000000 0.08710000 0.99620000
vn 0.00000000 0.08710000 0.99620000
vn 0.00000000 0.08710000 0.99620000
vn 0.00000000 0.08710000 0.99620000
vn 0.75670000 0.05700000 0.65130000
vn 0.55970000 0.07220000 0.82550000
vn 0.48470000 0.07620000 0.87140000
vn 0.19800000 0.08540000 0.97650000
vn 0.15210000 0.08610000 0.98460000
vn 0.98750000 0.01370000 0.15720000
vn -0.00000000 -1.00000000 0.00000000
vn -0.00000000 -1.00000000 0.00000000
vn -0.00000000 -1.00000000 0.00000000
vn 1.00000000 0.00000000 -0.00000000
vn 1.00000000 0.00000000 -0.00000000
vn 1.00000000 0.00000000 -0.00000000
vn 1.00000000 0.00000000 -0.00000000
vn 1.00000000 0.00000000 -0.00000000
vn 1.00000000 0.00000000 -0.00000000
vn 1.00000000 0.00000000 -0.00000000
vn 1.00000000 0.00000000 -0.00000000
vn 1.00000000 0.00000000 -0.00000000
vn 1.00000000 0.00000000 -0.00000000
vn -0.00000000 -0.18060000 0.98360000
vn 0.00000000 -0.07700000 0.99700000
vn 0.00000000 -0.08250000 0.99660000
vn -0.00000000 -0.17890000 0.98390000
vn 0.00000000 -0.17200000 -0.98510000
vn 0.00000000 -0.07400000 -0.99730000
vn 0.00000000 -0.17770000 -0.98410000
vn -0.00000000 -0.00000000 1.00000000
vn -0.00000000 -0.00000000 1.00000000
vn -0.00000000 -0.00010000 1.00000000
vn -0.00000000 -0.00000000 1.00000000
vn 0.00000000 -0.38270000 0.92390000
vn 0.00000000 -0.36810000 0.92980000
vn -0.00000000 -0.69590000 0.71820000
vn -0.00000000 -0.70710000 0.70710000
vn 0.00000000 -0.92390000 0.38270000
vn -0.00000000 -0.00000000 1.00000000
vn -0.00000000 -1.00000000 0.00000000
vn -0.00000000 -0.99990000 -0.01570000
vn 0.00000000 -0.92980000 0.36810000
vn -0.00000000 -0.92980000 -0.36810000
vn 0.00000000 -0.57050000 -0.82130000
vn -0.00000000 -0.78530000 -0.61910000
vn 0.00000000 -0.70710000 -0.70710000
vn -0.00000000 -0.92390000 -0.38270000
vn -0.00000000 0.00000000 -1.00000000
vn -0.00000000 -0.29690000 -0.95490000
vn 0.00000000 -0.36810000 -0.92980000
vn -0.00000000 0.00010000 -1.00000000
vn -0.00000000 -0.00010000 -1.00000000
vn -0.00000000 -0.08580000 -0.99630000
vn -0.00000000 0.00000000 -1.00000000
vn -1.00000000 0.00000000 0.00000000
vn -1.00000000 0.00000000 0.00000000
vn -1.00000000 0.00000000 0.00000000
vn -1.00000000 0.00000000 0.00000000
vn -1.00000000 0.00000000 0.00000000
vn -1.00000000 0.00000000 0.00000000
vn -1.00000000 0.00000000 0.00000000
vn -1.00000000 0.00000000 0.00000000
vn -1.00000000 0.00000000 0.00000000
vn 0.00000000 1.00000000 0.00000000
vn 0.00000000 1.00000000 0.00020000
vn 0.00000000 1.00000000 0.00000000
vn 0.00000000 1.00000000 0.00020000
vn 0.00000000 1.00000000 0.00000000
vn 0.00000000 1.00000000 0.00020000
vn -0.00000000 -1.00000000 0.00000000
vn -0.00000000 -1.00000000 0.00000000
vn -0.00000000 -1.00000000 0.00000000
vn -0.00000000 -1.00000000 0.00000000
vn -0.00000000 -1.00000000 0.00000000
vn -0.00000000 -1.00000000 0.00000000
vn -0.00000000 -1.00000000 0.00000000
vn -0.00000000 -1.00000000 0.00000000
vn -0.00000000 -1.00000000 0.00000000
vn -0.00000000 -1.00000000 0.00000000
vn -0.00000000 -1.00000000 0.00000000
vn -0.00000000 -1.00000000 0.00000000
vn -0.00000000 -1.00000000 0.00000000
vn -0.00000000 -1.00000000 0.00000000
vn 0.00000000 1.00000000 -0.00010000
vn 0.00000000 1.00000000 0.00000000
vn 0.00000000 1.00000000 -0.00010000
vn 0.00000000 1.00000000 0.00000000
vn 0.00000000 1.00000000 -0.00010000
vn 0.00000000 1.00000000 0.00000000
vn 1.00000000 -0.00020000 0.00000000
vn -0.00000000 0.74310000 -0.66910000
vn -0.00000000 0.74310000 0.66910000
vn -0.00000000 -0.00000000 1.00000000
vn -0.70650000 0.45110000 0.54530000
vn -0.70690000 0.49440000 0.50580000
vn 0.70710000 -0.00000000 0.70710000
vn 0.70710000 -0.00000000 0.70710000
vn 0.70710000 0.48400000 0.51550000
vn 0.70710000 0.62790000 0.32520000
vn 0.70670000 0.25550000 -0.65980000
vn 0.70700000 0.69260000 0.14310000
vn 0.70640000 0.67680000 0.20700000
vn 0.70670000 0.35260000 0.61340000
vn 0.70690000 0.45110000 0.54480000
vn 0.70590000 0.54610000 0.45110000
vn 0.70680000 0.62720000 0.32730000
vn 0.70660000 0.63420000 -0.31380000
vn 0.70670000 0.57180000 -0.41660000
vn 0.70670000 0.57180000 -0.41670000
vn 0.70670000 0.50640000 -0.49400000
vn 0.70620000 0.49750000 -0.50380000
vn 0.70590000 0.41180000 -0.57630000
vn 0.70670000 0.27250000 -0.65290000
vn -0.00000000 0.90700000 -0.42100000
vn 0.00000000 0.89650000 0.44310000
vn 0.00000000 0.55110000 0.83450000
vn 0.00000000 0.64190000 -0.76680000
vn -0.00000000 0.05880000 -0.99830000
vn -0.00000000 -0.00170000 -1.00000000
vn -0.17270000 0.23750000 -0.95590000
vn 0.35630000 0.03600000 0.93370000
vn 0.00000000 0.88250000 -0.47020000
vn -0.00000000 0.38940000 -0.92110000
vn -0.00000000 0.21810000 -0.97590000
vn -0.00000000 0.00000000 -1.00000000
vn -0.02480000 0.00000000 -0.99970000
vn -0.57650000 -0.00000000 -0.81710000
vn -0.72300000 0.00000000 -0.69090000
vn -0.00000000 -0.00000000 1.00000000
vn -0.00010000 0.98920000 -0.14650000
vn -0.00000000 -0.00000000 1.00000000
vn -0.00000000 -1.00000000 0.00000000
vn -0.00000000 -1.00000000 0.00000000
vn -0.00000000 -1.00000000 0.00000000
vt 0.28137800 0.76190200
vt 0.28137800 0.76190200
vt 0.22316600 0.64496500
vt 0.22316600 0.64496500
vt 0.22316600 0.64496500
vt 0.22316600 0.64496500
vt 0.22316600 0.64496500
vt 0.22316600 0.64496500
vt 0.22316600 0.64496500
vt 0.24674900 0.75345200
vt 0.24674900 0.75345200
vt 0.20555600 0.72738600
vt 0.20555600 0.72738600
vt 0.20555600 0.72738600
vt 0.23752900 0.74968300
vt 0.23752900 0.74968300
vt 0.19901600 0.66807700
vt 0.19901600 0.66807700
vt 0.19208300 0.68425200
vt 0.33248400 0.76171500
vt 0.36219900 0.75479800
vt 0.36219900 0.75479800
vt 0.36219900 0.75479800
vt 0.30833900 0.76282000
vt 0.30833900 0.76282000
vt 0.30833900 0.76282000
vt 0.19308900 0.70671800
vt 0.19308900 0.70671800
vt 0.19110900 0.69534000
vt 0.21545400 0.65039500
vt 0.21852400 0.73897000
vt 0.37353500 0.74926200
vt 0.37353500 0.74926200
vt 0.23888200 0.63768800
vt 0.56921000 0.73282600
vt 0.54346100 0.73282600
vt 0.54346100 0.72931800
vt 0.57759000 0.72931800
vt 0.61064300 0.72931800
vt 0.59340400 0.73282600
vt 0.64309700 0.72931800
vt 0.67555200 0.72931800
vt 0.66257500 0.73282600
vt 0.61667400 0.73282600
vt 0.70800600 0.72931800
vt 0.68623500 0.73282600
vt 0.73732200 0.73282600
vt 0.71113400 0.73282500
vt 0.74167900 0.72931800
vt 0.76223100 0.73282600
vt 0.77504500 0.72931800
vt 0.80764200 0.72931800
vt 0.78589100 0.73282600
vt 0.84009700 0.72931800
vt 0.87255100 0.72931800
vt 0.85506200 0.73282600
vt 0.83179300 0.73282600
vt 0.90500500 0.72931800
vt 0.88022400 0.73306500
vt 0.40377000 0.73113800
vt 0.41649400 0.72894700
vt 0.40351600 0.73026200
vt 0.44948900 0.73105700
vt 0.45868100 0.72925000
vt 0.44366600 0.72922700
vt 0.42934500 0.73049300
vt 0.46576200 0.73074300
vt 0.47417800 0.72918700
vt 0.48510400 0.73107700
vt 0.48859300 0.72936400
vt 0.50045000 0.72932000
vt 0.50301400 0.73105500
vt 0.51479800 0.72924900
vt 0.52083500 0.73105600
vt 0.53159400 0.72922600
vt 0.54320600 0.72928300
vt 0.53860800 0.73106400
vt 0.55571400 0.73106100
vt 0.57402200 0.73108100
vt 0.57640700 0.72938700
vt 0.56588200 0.72929200
vt 0.58853300 0.72932200
vt 0.59199700 0.73105900
vt 0.60251300 0.72918300
vt 0.55529900 0.72944900
vt 0.61579800 0.73055100
vt 0.66685600 0.72919000
vt 0.64964100 0.72919700
vt 0.65660600 0.73106400
vt 0.68267700 0.72929200
vt 0.67356000 0.73104900
vt 0.69899900 0.72939300
vt 0.69678100 0.73101100
vt 0.71585500 0.72927500
vt 0.71587000 0.73106000
vt 0.63015400 0.82776000
vt 0.65201300 0.82724400
vt 0.65192200 0.82863100
vt 0.62228000 0.73315100
vt 0.60399500 0.73056400
vt 0.62508600 0.73054100
vt 0.64130800 0.73315100
vt 0.64579000 0.73046500
vt 0.67936600 0.73315100
vt 0.66375100 0.72967600
vt 0.68554400 0.72973700
vt 0.66033700 0.73315100
vt 0.69839400 0.73315100
vt 0.71167600 0.73047600
vt 0.60327900 0.73383400
vt 0.58418200 0.73105400
vt 0.71795500 0.73381300
vt 0.73304600 0.73055000
vt 0.73877500 0.73379600
vt 0.75535500 0.73116000
vt 0.77486400 0.73311900
vt 0.77854500 0.73052600
vt 0.81047700 0.73382500
vt 0.79681100 0.73055100
vt 0.81798400 0.73042600
vt 0.79050600 0.73380500
vt 0.83159500 0.73315100
vt 0.83747200 0.72981000
vt 0.85062400 0.73315100
vt 0.85609800 0.73045200
vt 0.86965200 0.73315100
vt 0.87434300 0.72969600
vt 0.88868100 0.73315100
vt 0.90103300 0.73043500
vt 0.90770900 0.73315100
vt 0.92689200 0.73071200
vt 0.92466100 0.73373500
vt 0.94554400 0.73455300
vt 0.94567300 0.72971900
vt 0.60415400 0.77519800
vt 0.59442600 0.77438200
vt 0.59742600 0.73451700
vt 0.61506300 0.77438400
vt 0.61045800 0.73339600
vt 0.62492500 0.73433400
vt 0.63166200 0.77515600
vt 0.64989600 0.77474100
vt 0.64013700 0.73432700
vt 0.66868300 0.77508900
vt 0.65583800 0.73435800
vt 0.68385500 0.77433700
vt 0.68245000 0.73428100
vt 0.67044600 0.73425800
vt 0.70497000 0.77520600
vt 0.69446700 0.77482500
vt 0.69695000 0.73432300
vt 0.72802000 0.77469700
vt 0.71463400 0.77437200
vt 0.71395600 0.73433500
vt 0.74324700 0.77436700
vt 0.73801300 0.73421100
vt 0.72574200 0.73430100
vt 0.76507800 0.77521200
vt 0.75396400 0.77521400
vt 0.75937000 0.73424300
vt 0.74869900 0.73429900
vt 0.77479800 0.77434000
vt 0.77164100 0.73428100
vt 0.78576700 0.73436400
vt 0.78920600 0.77437600
vt 0.79925300 0.73334800
vt 0.80257100 0.77521400
vt 0.82833900 0.77443600
vt 0.81379600 0.77434500
vt 0.82105000 0.73342100
vt 0.81151500 0.73428800
vt 0.83351700 0.73435100
vt 0.85094600 0.73436000
vt 0.84313900 0.77436000
vt 0.86695200 0.73430000
vt 0.86744300 0.77425000
vt 0.85412700 0.77498000
vt 0.88603200 0.77521400
vt 0.88350300 0.73422500
vt 0.90056000 0.73431000
vt 0.58430300 0.73343300
vt 0.58155000 0.77435500
vt 0.90057400 0.77434900
vt 0.70308700 0.82785500
vt 0.72991700 0.82724900
vt 0.71516600 0.82845200
vt 0.66801300 0.82775500
vt 0.68847000 0.82855200
vt 0.75983100 0.82758300
vt 0.75983100 0.82758300
vt 0.73145200 0.82833600
vt 0.80105800 0.82762100
vt 0.77450700 0.82845800
vt 0.84178900 0.82820800
vt 0.84178900 0.82820800
vt 0.86719100 0.82776800
vt 0.85655600 0.82843800
vt 0.87872400 0.82802800
vt 0.90707900 0.82790300
vt 0.89038100 0.82848300
vt 0.94780100 0.82776100
vt 0.97808100 0.82772600
vt 0.97808100 0.82772600
vt 0.96605100 0.82841700
vt 1.01499000 0.82746100
vt 0.98876900 0.82842900
vt 0.40345000 0.73106000
vt 0.42254100 0.73103500
vt 0.40341600 0.72854300
vt 0.42297500 0.72927600
vt 0.44382700 0.72931600
vt 0.44577100 0.73107200
vt 0.46424500 0.72944800
vt 0.55041300 0.72930400
vt 0.56360300 0.73105800
vt 0.57245700 0.72834000
vt 0.52931800 0.72943200
vt 0.54527700 0.73104700
vt 0.61341700 0.72929900
vt 0.61630000 0.73106600
vt 0.63430600 0.72951800
vt 0.59537400 0.72933700
vt 0.59848300 0.73106800
vt 0.58070300 0.73105500
vt 0.71632100 0.72949400
vt 0.73334300 0.73103700
vt 0.74187300 0.72909900
vt 0.76047100 0.73043600
vt 0.41239200 0.71493100
vt 0.40435800 0.71627600
vt 0.40185700 0.72038800
vt 0.44635600 0.71487300
vt 0.40745700 0.73031600
vt 0.41296300 0.73031700
vt 0.40205300 0.72722900
vt 0.44652600 0.73032700
vt 0.45932800 0.71875400
vt 0.45714400 0.72517900
vt 0.45329000 0.71500500
vt 0.45144600 0.73039900
vt 0.40779900 0.73673400
vt 0.40684100 0.73362500
vt 0.40380200 0.73777200
vt 0.40862800 0.74165000
vt 0.40505900 0.74174600
vt 0.40301600 0.74448500
vt 0.40718700 0.74838100
vt 0.41125600 0.74955600
vt 0.41192200 0.74157400
vt 0.40733900 0.73789600
vt 0.40830900 0.73386600
vt 0.40540000 0.73381800
vt 0.40716000 0.74237700
vt 0.40411000 0.73929800
vt 0.41095000 0.74132000
vt 0.40302500 0.74483600
vt 0.40835300 0.74877200
vt 0.40554300 0.73142500
vt 0.40537200 0.72890600
vt 0.40493000 0.73145900
vt 0.40631100 0.73114900
vt 0.40630700 0.72923300
vt 0.40673300 0.73457900
vt 0.40450100 0.73315400
vt 0.40325500 0.73978900
vt 0.40654600 0.73945300
vt 0.40588300 0.74174900
vt 0.37248100 0.72961500
vt 0.41074600 0.72890500
vt 0.41407300 0.72873200
vt 0.41407300 0.72873200
vt 0.41162100 0.72829900
vt 0.41072300 0.73018300
vt 0.41243300 0.73106000
vt 0.36725000 0.72946000
vt 0.40770300 0.73001100
vt 0.40345000 0.72879500
vt 0.32651600 0.72931100
vt 0.32339000 0.73106300
vt 0.32669400 0.72300900
vt 0.32808400 0.72503900
vt 0.33329100 0.72142400
vt 0.33788500 0.71844600
vt 0.34210500 0.71982400
vt 0.37666200 0.71845400
vt 0.33034300 0.73614600
vt 0.33211800 0.73847000
vt 0.38324700 0.73855700
vt 0.38324700 0.73855700
vt 0.33854200 0.74022000
vt 0.39232500 0.72780300
vt 0.39232500 0.72780300
vt 0.38664200 0.72505200
vt 0.38288200 0.72021500
vt 0.37833500 0.72016200
vt 0.38832100 0.72953300
vt 0.38647900 0.73391400
vt 0.38647900 0.73391400
vt 0.37988600 0.73796500
vt 0.37468300 0.74023000
vt 0.65360500 0.96477400
vt 0.62544900 0.96712700
vt 0.65360500 0.96181200
vt 0.77307700 0.96706400
vt 0.78245900 0.95570700
vt 0.78746800 0.95900200
vt 0.75113900 0.96704000
vt 0.75208900 0.95768800
vt 0.76146100 0.95579100
vt 0.79028900 0.96776900
vt 0.80440200 0.96218700
vt 0.81496000 0.95883200
vt 0.81990100 0.95562500
vt 0.83000000 0.96707300
vt 0.84103200 0.95585800
vt 0.85222900 0.95782400
vt 0.85288300 0.96704900
vt 0.90182400 0.96181200
vt 0.87709000 0.96013400
vt 0.90182400 0.95885000
vt 0.97670400 0.95980300
vt 0.95091200 0.96477400
vt 0.95091200 0.95885000
vt 0.62357700 0.95588800
vt 0.62795200 0.96181200
vt 0.60230000 0.95588800
vt 0.66897400 0.95588800
vt 0.64589800 0.95588800
vt 0.69244600 0.95588800
vt 0.71591800 0.95588800
vt 0.70297500 0.95885000
vt 0.73899400 0.95588800
vt 0.72764100 0.95978400
vt 0.60246200 0.96626800
vt 0.60230600 0.96478400
vt 0.70297500 0.96181200
vt 0.70695800 0.96773500
vt 0.68602600 0.96773500
vt 0.64416300 0.96773500
vt 0.66509400 0.96773500
vt 0.72788900 0.96773500
vt 0.81175000 0.96976700
vt 0.86330500 0.95588800
vt 0.88638000 0.95588800
vt 0.90985300 0.95588800
vt 0.93332500 0.95588800
vt 0.95640100 0.95588800
vt 0.97872200 0.95588800
vt 0.99999900 0.95588800
vt 1.00004600 0.96426900
vt 0.87441000 0.96773500
vt 0.89534100 0.96773500
vt 0.91627300 0.96773500
vt 0.93720400 0.96773500
vt 0.97901800 0.96702000
vt 0.95813600 0.96773500
vt 1.00002100 0.96985900
vt 0.94309500 0.77435500
vt 0.93221000 0.77490800
vt 0.93607200 0.74173900
vt 0.90067100 0.73335900
vt 0.91900700 0.75707700
vt 0.90068300 0.77415700
vt 0.92041500 0.77521800
vt 0.94585100 0.73343300
vt 0.56680800 0.88966900
vt 0.56680800 0.88897900
vt 0.59710500 0.89093800
vt 0.56680800 0.99931000
vt 0.59869600 0.99782600
vt 0.56680800 1.00000000
vt 0.62925100 0.99111800
vt 0.62724900 0.89725100
vt 0.67157800 0.92152200
vt 0.65477900 0.98027900
vt 0.65321600 0.90782600
vt 0.68076200 0.93673200
vt 0.67245800 0.96650000
vt 0.68091700 0.95169600
vt 0.80398500 0.96435000
vt 0.78791200 0.96773500
vt 0.78803000 0.96090000
vt 0.77660600 0.96477400
vt 0.78107700 0.95587800
vt 0.81710400 0.95918900
vt 0.82115500 0.95577900
vt 0.82680200 0.96477400
vt 0.81439600 0.96773600
vt 0.62767500 0.96748700
vt 0.62342900 0.95588800
vt 0.64557900 0.95588800
vt 0.66846400 0.95588800
vt 0.65532600 0.96773500
vt 0.69173600 0.95588800
vt 0.71500900 0.95588800
vt 0.70835300 0.96773500
vt 0.60241700 0.95615900
vt 0.61449600 0.96410200
vt 0.60230000 0.96477400
vt 0.75208000 0.96164900
vt 0.73789400 0.95588800
vt 0.76054500 0.95582600
vt 0.68184000 0.96773500
vt 0.73486600 0.96773500
vt 0.76138000 0.96773500
vt 0.60230000 0.96773500
vt 0.85236400 0.96156000
vt 0.84197600 0.95586300
vt 0.86440500 0.95588800
vt 0.88729000 0.95588800
vt 0.93383500 0.95588800
vt 0.92045900 0.96773500
vt 0.91056200 0.95588800
vt 0.95672000 0.95588800
vt 0.94697200 0.96773500
vt 0.86743300 0.96773500
vt 0.97964800 0.96256600
vt 0.97886900 0.95588800
vt 0.99999900 0.95588800
vt 1.00000500 0.96491400
vt 0.89394600 0.96773500
vt 0.84091900 0.96773500
vt 0.99999900 0.96773500
vt 0.97348600 0.96773500
vt 0.40359900 0.74362600
vt 0.44946100 0.74355100
vt 0.44933600 0.72932400
vt 0.40345000 0.77245500
vt 0.44950000 0.77245500
vt 0.44950000 0.75807600
vt 0.40345000 0.75807600
vt 0.40345000 0.80121200
vt 0.44950000 0.80121200
vt 0.44950000 0.78683400
vt 0.40345000 0.82997000
vt 0.44950000 0.82997000
vt 0.44950000 0.81559100
vt 0.40345000 0.84434900
vt 0.44950000 0.84434900
vt 0.40345000 0.81559100
vt 0.40345000 0.78683400
vt 0.40345000 0.74369700
vt 0.44950000 0.74369700
vt 0.40345000 0.72931800
vt 0.40345000 0.77245500
vt 0.44950000 0.77245500
vt 0.40345000 0.75807600
vt 0.44950000 0.75807600
vt 0.40345000 0.80121200
vt 0.44950000 0.80121200
vt 0.40345000 0.78683400
vt 0.40349300 0.82992300
vt 0.44940400 0.83024100
vt 0.40345000 0.81559100
vt 0.40384800 0.84429800
vt 0.44949700 0.84433400
vt 0.44950000 0.81559100
vt 0.44950000 0.78683400
vt 0.41307000 0.74642400
vt 0.41274000 0.74292600
vt 0.41348000 0.74312700
vt 0.41446800 0.74459300
vt 0.41416000 0.74663500
vt 0.41664000 0.74739400
vt 0.40260000 0.72100100
vt 0.39686900 0.72007000
vt 0.39686200 0.69867200
vt 0.40260200 0.69737700
vt 0.40963000 0.74656800
vt 0.40745200 0.74659000
vt 0.40993500 0.74455800
vt 0.41200400 0.74273300
vt 0.41177000 0.74621800
vt 0.41096800 0.74310200
vt 0.40749700 0.74790700
vt 0.40984600 0.74537400
vt 0.41067500 0.74659400
vt 0.41136400 0.74311500
vt 0.41212800 0.74292600
vt 0.41210300 0.74641600
vt 0.41003000 0.72009000
vt 0.40430900 0.72060100
vt 0.41004000 0.69868000
vt 0.40430800 0.69858200
vt 0.41488600 0.74453800
vt 0.41411900 0.74646500
vt 0.41387800 0.74310300
vt 0.41299400 0.74622200
vt 0.41286700 0.74274000
vt 0.41652400 0.74661900
vt 0.74576700 0.85694800
vt 0.74713800 0.85069500
vt 0.74746300 0.80989900
vt 0.25495500 0.81979000
vt 0.25495500 0.76679300
vt 0.27070500 0.75042100
vt 0.24631800 0.79220100
vt 0.28086700 0.84301900
vt 0.29511200 0.73642400
vt 0.35995700 0.86253500
vt 0.32620700 0.72717100
vt 0.35995700 0.72404700
vt 0.31646400 0.85726500
vt 0.02076300 0.80366000
vt 0.00868600 0.75444800
vt 0.00932500 0.81703200
vt 0.02057400 0.75419100
vt 0.33796700 0.80393600
vt 0.34880600 0.75398500
vt 0.33734400 0.75503000
vt 0.00000000 0.72931800
vt -0.00000000 0.77112600
vt 0.00001000 0.77792900
vt 0.00000000 0.82247100
vt 0.04639800 0.72931800
vt 0.04441700 0.82880900
vt 0.09102900 0.72931800
vt 0.09279500 0.82880900
vt 0.13566100 0.72931800
vt 0.00000000 0.82880900
vt 0.17852600 0.82880900
vt 0.18029200 0.72931800
vt 0.13735700 0.82880900
vt 0.22294300 0.82880900
vt 0.29098800 0.72931800
vt 0.25795600 0.72931800
vt 0.27132200 0.82880900
vt 0.22492400 0.72931800
vt 0.35705300 0.72931800
vt 0.32402100 0.72931800
vt 0.31588300 0.82880900
vt 0.35705800 0.77743000
vt 0.35703700 0.82260500
vt 0.34751000 0.81637300
vt 0.35705300 0.82880900
vt 0.46113400 0.96466900
vt 0.45315500 0.94449000
vt 0.46113400 0.92431100
vt 0.48644300 0.98325400
vt 0.48644300 0.90572600
vt 0.56680800 0.99931000
vt 0.52497300 0.89351800
vt 0.56680800 0.88966900
vt 0.52497300 0.99546100
vt 0.51779100 0.13587500
vt 0.56425200 0.13588200
vt 0.56425200 0.13588200
vt 0.50465500 0.13845200
vt 0.50465500 0.13845200
vt 0.57776300 0.13848800
vt 0.51702600 0.80970700
vt 0.51694400 0.84974600
vt 0.51845600 0.85064300
vt 0.51845600 0.80883600
vt 0.51664100 0.85203100
vt 0.51851500 0.85744700
vt 0.51845600 0.85064300
vt 0.51845600 0.90198800
vt 0.51702600 0.90481900
vt 0.51702600 0.90832700
vt 0.51845600 0.90832700
vt 0.74576300 0.90832700
vt 0.74719200 0.90832700
vt 0.74582900 0.90212300
vt 0.51779100 0.00261300
vt 0.51779100 0.00261300
vt 0.50383600 -0.00000300
vt 0.57798400 -0.00004100
vt 0.57798400 -0.00004100
vt 0.56382400 0.00261300
vt 0.20089000 0.72165900
vt 0.63956100 0.73282600
vt 0.80890500 0.73282600
vt 0.90500500 0.73282600
vt 0.63731100 0.73041800
vt 0.62789200 0.72931400
vt 0.65201300 0.82724400
vt 0.65201300 0.82847600
vt 0.74746900 0.82846800
vt 0.79036600 0.82846500
vt 1.00294700 0.82843400
vt 0.82506800 0.82844700
vt 0.81327600 0.82771600
vt 0.46273800 0.73105500
vt 0.48206800 0.73023700
vt 0.50349800 0.73037200
vt 0.52731200 0.73106200
vt 0.63419800 0.73105200
vt 0.65354900 0.73043100
vt 0.65354900 0.73043100
vt 0.66982300 0.73106200
vt 0.67194400 0.72947300
vt 0.68997200 0.73041500
vt 0.71557100 0.73106900
vt 0.40520800 0.73142800
vt 0.40449800 0.72907500
vt 0.40412600 0.73138500
vt 0.40555600 0.72882300
vt 0.40622200 0.73117600
vt 0.40631000 0.72923700
vt 0.41116400 0.73087200
vt 0.40355700 0.73273000
vt 0.40453800 0.72909000
vt 0.40390800 0.73108600
vt 0.40369400 0.72890000
vt 0.36295600 0.72872500
vt 0.39455300 0.72881100
vt 0.39625400 0.73272900
vt 0.39680900 0.72941800
vt 0.36267600 0.72871200
vt 0.40372600 0.72934800
vt 0.44992800 0.72931800
vt 0.74576300 0.80883600
vt 0.74695600 0.85553100
vt 0.74719200 0.90481900
f 1/1/1 3/3/3 11/11/11
f 6/6/6 13/13/13 16/16/16
f 18/18/18 19/19/19 13/13/13
f 5/5/5 17/17/17 12/12/12
f 20/20/20 21/21/21 26/26/26
f 4/4/4 2/2/2 24/24/24
f 27/27/27 19/19/19 29/29/29
f 18/18/18 6/6/6 30/30/30
f 31/31/31 16/16/16 13/13/13
f 9/9/9 15/15/15 10/10/10
f 25/25/25 23/23/23 7/7/7
f 32/32/32 34/34/34 8/8/8
f 35/35/35 36/36/36 37/37/37
f 38/38/38 39/39/39 40/40/40
f 41/41/41 42/42/42 43/43/43
f 39/39/39 41/41/41 44/44/44
f 42/42/42 45/45/45 46/46/46
f 38/38/38 40/40/40 35/35/35
f 46/46/46 43/43/43 42/42/42
f 47/47/47 48/48/48 45/45/45
f 49/49/49 50/50/50 47/47/47
f 49/49/49 51/51/51 50/50/50
f 51/51/51 52/52/52 53/53/53
f 54/54/54 55/55/55 56/56/56
f 52/52/52 54/54/54 57/57/57
f 55/55/55 58/58/58 59/59/59
f 51/51/51 53/53/53 50/50/50
f 54/54/54 56/56/56 57/57/57
f 60/60/60 61/61/61 62/62/62
f 63/63/63 64/64/64 65/65/65
f 65/65/65 66/66/66 63/63/63
f 61/61/61 60/60/60 66/66/66
f 67/67/67 68/68/68 64/64/64
f 69/69/69 70/70/70 68/68/68
f 71/71/71 72/72/72 73/73/73
f 68/68/68 67/67/67 69/69/69
f 73/73/73 74/74/74 75/75/75
f 76/76/76 75/75/75 77/77/77
f 64/64/64 63/63/63 67/67/67
f 73/73/73 72/72/72 74/74/74
f 75/75/75 74/74/74 77/77/77
f 76/76/76 77/77/77 78/78/78
f 79/79/79 80/80/80 81/81/81
f 82/82/82 83/83/83 84/84/84
f 85/85/85 78/78/78 79/79/79
f 80/80/80 79/79/79 83/83/83
f 84/84/84 83/83/83 86/86/86
f 87/87/87 88/88/88 89/89/89
f 90/90/90 87/87/87 91/91/91
f 92/92/92 90/90/90 93/93/93
f 93/93/93 95/95/95 92/92/92
f 90/90/90 91/91/91 93/93/93
f 96/96/96 97/97/97 98/98/98
f 99/99/99 100/100/100 101/101/101
f 102/102/102 101/101/101 103/103/103
f 104/104/104 105/105/105 106/106/106
f 107/107/107 103/103/103 105/105/105
f 108/108/108 106/106/106 109/109/109
f 110/110/110 111/111/111 100/100/100
f 99/99/99 110/110/110 100/100/100
f 107/107/107 102/102/102 103/103/103
f 108/108/108 104/104/104 106/106/106
f 107/107/107 105/105/105 104/104/104
f 99/99/99 101/101/101 102/102/102
f 112/112/112 109/109/109 113/113/113
f 114/114/114 113/113/113 115/115/115
f 114/114/114 112/112/112 113/113/113
f 109/109/109 112/112/112 108/108/108
f 116/116/116 115/115/115 117/117/117
f 118/118/118 119/119/119 120/120/120
f 121/121/121 117/117/117 119/119/119
f 122/122/122 120/120/120 123/123/123
f 124/124/124 123/123/123 125/125/125
f 126/126/126 125/125/125 127/127/127
f 128/128/128 127/127/127 129/129/129
f 121/121/121 116/116/116 117/117/117
f 118/118/118 120/120/120 122/122/122
f 119/119/119 118/118/118 121/121/121
f 124/124/124 122/122/122 123/123/123
f 128/128/128 126/126/126 127/127/127
f 124/124/124 125/125/125 126/126/126
f 128/128/128 129/129/129 130/130/130
f 130/130/130 129/129/129 131/131/131
f 132/132/132 130/130/130 131/131/131
f 131/131/131 133/133/133 132/132/132
f 131/131/131 134/134/134 133/133/133
f 135/135/135 136/136/136 137/137/137
f 138/138/138 139/139/139 140/140/140
f 141/141/141 138/138/138 140/140/140
f 135/135/135 137/137/137 138/138/138
f 141/141/141 140/140/140 143/143/143
f 145/145/145 148/148/148 144/144/144
f 145/145/145 142/142/142 143/143/143
f 144/144/144 148/148/148 146/146/146
f 149/149/149 150/150/150 151/151/151
f 146/146/146 147/147/147 151/151/151
f 154/154/154 157/157/157 153/153/153
f 149/149/149 151/151/151 154/154/154
f 152/152/152 157/157/157 156/156/156
f 158/158/158 159/159/159 160/160/160
f 161/161/161 160/160/160 159/159/159
f 155/155/155 156/156/156 161/161/161
f 159/159/159 155/155/155 161/161/161
f 164/164/164 165/165/165 162/162/162
f 163/163/163 162/162/162 158/158/158
f 165/165/165 164/164/164 166/166/166
f 166/166/166 171/171/171 167/167/167
f 170/170/170 172/172/172 168/168/168
f 169/169/169 167/167/167 171/171/171
f 170/170/170 169/169/169 171/171/171
f 174/174/174 168/168/168 172/172/172
f 176/176/176 177/177/177 173/173/173
f 177/177/177 174/174/174 173/173/173
f 176/176/176 175/175/175 179/179/179
f 180/180/180 183/183/183 179/179/179
f 136/136/136 182/182/182 137/137/137
f 184/184/184 185/185/185 186/186/186
f 187/187/187 184/184/184 188/188/188
f 185/185/185 190/190/190 191/191/191
f 189/189/189 192/192/192 193/193/193
f 195/195/195 196/196/196 197/197/197
f 198/198/198 199/199/199 200/200/200
f 201/201/201 202/202/202 204/204/204
f 203/203/203 205/205/205 206/206/206
f 207/207/207 208/208/208 209/209/209
f 209/209/209 208/208/208 210/210/210
f 210/210/210 208/208/208 211/211/211
f 211/211/211 212/212/212 213/213/213
f 214/214/214 215/215/215 216/216/216
f 217/217/217 218/218/218 214/214/214
f 219/219/219 220/220/220 221/221/221
f 222/222/222 223/223/223 219/219/219
f 223/223/223 222/222/222 224/224/224
f 216/216/216 224/224/224 222/222/222
f 225/225/225 226/226/226 227/227/227
f 228/228/228 227/227/227 226/226/226
f 229/229/229 230/230/230 231/231/231
f 231/231/231 232/232/232 229/229/229
f 233/233/233 234/234/234 235/235/235
f 234/234/234 231/231/231 235/235/235
f 236/236/236 232/232/232 234/234/234
f 237/237/237 232/232/232 238/238/238
f 239/239/239 232/232/232 237/237/237
f 232/232/232 236/236/236 238/238/238
f 236/236/236 240/240/240 238/238/238
f 241/241/241 242/242/242 243/243/243
f 244/244/244 241/241/241 245/245/245
f 246/246/246 247/247/247 245/245/245
f 247/247/247 248/248/248 244/244/244
f 244/244/244 245/245/245 247/247/247
f 244/244/244 248/248/248 249/249/249
f 250/250/250 251/251/251 252/252/252
f 253/253/253 250/250/250 254/254/254
f 255/255/255 251/251/251 250/250/250
f 253/253/253 254/254/254 256/256/256
f 257/257/257 253/253/253 256/256/256
f 253/253/253 257/257/257 255/255/255
f 258/258/258 259/259/259 260/260/260
f 259/259/259 261/261/261 262/262/262
f 263/263/263 264/264/264 265/265/265
f 265/265/265 266/266/266 263/263/263
f 266/266/266 265/265/265 267/267/267
f 268/268/268 269/269/269 271/271/271
f 272/272/272 273/273/273 274/274/274
f 275/275/275 276/276/276 277/277/277
f 278/278/278 279/279/279 280/280/280
f 280/280/280 281/281/281 278/278/278
f 281/281/281 280/280/280 282/282/282
f 283/283/283 282/282/282 280/280/280
f 282/282/282 283/283/283 284/284/284
f 284/284/284 283/283/283 285/285/285
f 279/279/279 286/286/286 287/287/287
f 286/286/286 279/279/279 278/278/278
f 289/289/289 290/290/290 287/287/287
f 292/292/292 293/293/293 294/294/294
f 295/295/295 294/294/294 293/293/293
f 296/296/296 293/293/293 292/292/292
f 297/297/297 289/289/289 299/299/299
f 290/290/290 289/289/289 300/300/300
f 297/297/297 296/296/296 292/292/292
f 291/291/291 288/288/288 298/298/298
f 302/302/302 325/325/325 301/301/301
f 304/304/304 305/305/305 306/306/306
f 307/307/307 308/308/308 309/309/309
f 309/309/309 305/305/305 304/304/304
f 310/310/310 306/306/306 311/311/311
f 312/312/312 313/313/313 314/314/314
f 317/317/317 314/314/314 315/315/315
f 318/318/318 352/352/352 320/320/320
f 321/321/321 322/322/322 323/323/323
f 325/325/325 335/335/335 324/324/324
f 327/327/327 303/303/303 328/328/328
f 324/324/324 328/328/328 325/325/325
f 329/329/329 330/330/330 331/331/331
f 308/308/308 332/332/332 309/309/309
f 333/333/333 330/330/330 332/332/332
f 331/331/331 327/327/327 329/329/329
f 333/333/333 332/332/332 308/308/308
f 303/303/303 327/327/327 331/331/331
f 302/302/302 334/334/334 325/325/325
f 335/335/335 325/325/325 334/334/334
f 301/301/301 303/303/303 336/336/336
f 336/336/336 303/303/303 331/331/331
f 333/333/333 341/341/341 337/337/337
f 301/301/301 336/336/336 338/338/338
f 301/301/301 339/339/339 302/302/302
f 338/338/338 340/340/340 301/301/301
f 339/339/339 301/301/301 340/340/340
f 338/338/338 336/336/336 337/337/337
f 333/333/333 308/308/308 307/307/307
f 342/342/342 310/310/310 311/311/311
f 315/315/315 343/343/343 316/316/316
f 344/344/344 345/345/345 320/320/320
f 319/319/319 343/343/343 344/344/344
f 323/323/323 346/346/346 347/347/347
f 321/321/321 348/348/348 349/349/349
f 347/347/347 348/348/348 321/321/321
f 320/320/320 345/345/345 346/346/346
f 323/323/323 320/320/320 346/346/346
f 323/323/323 322/322/322 318/318/318
f 319/319/319 316/316/316 343/343/343
f 350/350/350 355/355/355 321/321/321
f 319/319/319 351/351/351 317/317/317
f 312/312/312 314/314/314 342/342/342
f 352/352/352 351/351/351 319/319/319
f 353/353/353 318/318/318 322/322/322
f 353/353/353 322/322/322 354/354/354
f 322/322/322 321/321/321 355/355/355
f 356/356/356 354/354/354 322/322/322
f 322/322/322 355/355/355 356/356/356
f 355/355/355 350/350/350 357/357/357
f 352/352/352 318/318/318 353/353/353
f 359/359/359 362/362/362 358/358/358
f 361/361/361 362/362/362 363/363/363
f 361/361/361 360/360/360 362/362/362
f 364/364/364 363/363/363 362/362/362
f 359/359/359 364/364/364 362/362/362
f 361/361/361 365/365/365 360/360/360
f 360/360/360 365/365/365 358/358/358
f 366/366/366 367/367/367 368/368/368
f 369/369/369 366/366/366 368/368/368
f 370/370/370 371/371/371 369/369/369
f 372/372/372 370/370/370 373/373/373
f 368/368/368 370/370/370 369/369/369
f 370/370/370 368/368/368 373/373/373
f 374/374/374 375/375/375 376/376/376
f 377/377/377 378/378/378 374/374/374
f 375/375/375 372/372/372 376/376/376
f 374/374/374 378/378/378 375/375/375
f 377/377/377 379/379/379 378/378/378
f 373/373/373 376/376/376 372/372/372
f 380/380/380 381/381/381 382/382/382
f 383/383/383 384/384/384 382/382/382
f 385/385/385 386/386/386 387/387/387
f 387/387/387 388/388/388 380/380/380
f 380/380/380 385/385/385 387/387/387
f 389/389/389 390/390/390 391/391/391
f 392/392/392 393/393/393 391/391/391
f 396/396/396 403/403/403 394/394/394
f 393/393/393 389/389/389 391/391/391
f 397/397/397 390/390/390 398/398/398
f 398/398/398 390/390/390 389/389/389
f 399/399/399 397/397/397 398/398/398
f 400/400/400 401/401/401 402/402/402
f 403/403/403 392/392/392 394/394/394
f 395/395/395 401/401/401 400/400/400
f 404/404/404 395/395/395 400/400/400
f 383/383/383 405/405/405 402/402/402
f 405/405/405 400/400/400 402/402/402
f 406/406/406 399/399/399 398/398/398
f 389/389/389 406/406/406 398/398/398
f 404/404/404 396/396/396 395/395/395
f 383/383/383 381/381/381 405/405/405
f 404/404/404 400/400/400 405/405/405
f 393/393/393 392/392/392 403/403/403
f 383/383/383 382/382/382 381/381/381
f 407/407/407 408/408/408 409/409/409
f 407/407/407 409/409/409 410/410/410
f 411/411/411 412/412/412 413/413/413
f 414/414/414 415/415/415 411/411/411
f 416/416/416 407/407/407 410/410/410
f 408/408/408 422/422/422 387/387/387
f 419/419/419 420/420/420 417/417/417
f 417/417/417 415/415/415 414/414/414
f 413/413/413 412/412/412 421/421/421
f 417/417/417 414/414/414 418/418/418
f 407/407/407 422/422/422 408/408/408
f 410/410/410 421/421/421 416/416/416
f 388/388/388 387/387/387 422/422/422
f 420/420/420 423/423/423 417/417/417
f 416/416/416 422/422/422 407/407/407
f 415/415/415 412/412/412 411/411/411
f 417/417/417 423/423/423 424/424/424
f 424/424/424 415/415/415 417/417/417
f 381/381/381 380/380/380 388/388/388
f 427/427/427 611/611/611 425/425/425
f 430/430/430 431/431/431 428/428/428
f 426/426/426 425/425/425 431/431/431
f 434/434/434 441/441/441 432/432/432
f 437/437/437 440/440/440 435/435/435
f 436/436/436 435/435/435 438/438/438
f 433/433/433 432/432/432 440/440/440
f 429/429/429 428/428/428 441/441/441
f 443/443/443 612/612/612 444/444/444
f 446/446/446 448/448/448 447/447/447
f 448/448/448 443/443/443 442/442/442
f 450/450/450 458/458/458 451/451/451
f 453/453/453 457/457/457 454/454/454
f 456/456/456 453/453/453 452/452/452
f 457/457/457 450/450/450 449/449/449
f 458/458/458 446/446/446 445/445/445
f 459/459/459 460/460/460 461/461/461
f 462/462/462 459/459/459 461/461/461
f 462/462/462 463/463/463 459/459/459
f 462/462/462 464/464/464 463/463/463
f 465/465/465 466/466/466 467/467/467
f 467/467/467 468/468/468 465/465/465
f 469/469/469 470/470/470 471/471/471
f 472/472/472 473/473/473 474/474/474
f 471/471/471 474/474/474 473/473/473
f 473/473/473 469/469/469 471/471/471
f 475/475/475 476/476/476 477/477/477
f 478/478/478 477/477/477 476/476/476
f 479/479/479 480/480/480 478/478/478
f 478/478/478 480/480/480 477/477/477
f 482/482/482 484/484/484 481/481/481
f 485/485/485 486/486/486 487/487/487
f 487/487/487 486/486/486 488/488/488
f 490/490/490 486/486/486 485/485/485
f 491/491/491 492/492/492 493/493/493
f 494/494/494 495/495/495 496/496/496
f 497/497/497 495/495/495 494/494/494
f 498/498/498 494/494/494 496/496/496
f 498/498/498 496/496/496 499/499/499
f 500/500/500 501/501/501 502/502/502
f 499/499/499 501/501/501 503/503/503
f 500/500/500 503/503/503 501/501/501
f 498/498/498 499/499/499 503/503/503
f 504/504/504 505/505/505 506/506/506
f 507/507/507 505/505/505 504/504/504
f 508/508/508 509/509/509 510/510/510
f 505/505/505 511/511/511 512/512/512
f 505/505/505 512/512/512 513/513/513
f 514/514/514 506/506/506 513/513/513
f 507/507/507 511/511/511 505/505/505
f 515/515/515 511/511/511 507/507/507
f 515/515/515 504/504/504 516/516/516
f 516/516/516 518/518/518 517/517/517
f 515/515/515 507/507/507 504/504/504
f 518/518/518 523/523/523 519/519/519
f 506/506/506 514/514/514 520/520/520
f 506/506/506 520/520/520 516/516/516
f 516/516/516 504/504/504 506/506/506
f 522/522/522 519/519/519 523/523/523
f 524/524/524 528/528/528 522/522/522
f 525/525/525 526/526/526 527/527/527
f 524/524/524 527/527/527 526/526/526
f 529/529/529 530/530/530 510/510/510
f 531/531/531 530/530/530 525/525/525
f 530/530/530 531/531/531 510/510/510
f 509/509/509 532/532/532 529/529/529
f 509/509/509 534/534/534 532/532/532
f 534/534/534 509/509/509 508/508/508
f 531/531/531 508/508/508 510/510/510
f 534/534/534 531/531/531 535/535/535
f 531/531/531 525/525/525 527/527/527
f 533/533/533 534/534/534 535/535/535
f 508/508/508 531/531/531 534/534/534
f 536/536/536 537/537/537 538/538/538
f 538/538/538 539/539/539 536/536/536
f 539/539/539 538/538/538 540/540/540
f 541/541/541 542/542/542 543/543/543
f 540/540/540 542/542/542 544/544/544
f 541/541/541 544/544/544 542/542/542
f 539/539/539 540/540/540 544/544/544
f 545/545/545 547/547/547 549/549/549
f 546/546/546 550/550/550 548/548/548
f 551/551/551 552/552/552 553/553/553
f 554/554/554 551/551/551 553/553/553
f 555/555/555 556/556/556 557/557/557
f 560/560/560 561/561/561 559/559/559
f 563/563/563 615/615/615 562/562/562
f 565/565/565 567/567/567 569/569/569
f 570/570/570 566/566/566 568/568/568
f 14/14/14 28/28/28 571/571/571
f 13/13/13 19/19/19 27/27/27
f 35/35/35 37/37/37 38/38/38
f 39/39/39 44/44/44 40/40/40
f 41/41/41 43/43/43 572/572/572
f 41/41/41 572/572/572 44/44/44
f 45/45/45 48/48/48 46/46/46
f 47/47/47 45/45/45 49/49/49
f 52/52/52 573/573/573 53/53/53
f 55/55/55 59/59/59 56/56/56
f 52/52/52 57/57/57 573/573/573
f 58/58/58 574/574/574 59/59/59
f 70/70/70 72/72/72 71/71/71
f 76/76/76 78/78/78 85/85/85
f 72/72/72 70/70/70 69/69/69
f 85/85/85 79/79/79 81/81/81
f 80/80/80 83/83/83 82/82/82
f 575/575/575 89/89/89 88/88/88
f 86/86/86 575/575/575 576/576/576
f 89/89/89 91/91/91 87/87/87
f 577/577/577 187/187/187 578/578/578
f 185/185/185 191/191/191 186/186/186
f 190/190/190 579/579/579 191/191/191
f 192/192/192 580/580/580 193/193/193
f 205/205/205 581/581/581 206/206/206
f 582/582/582 583/583/583 194/194/194
f 208/208/208 212/212/212 211/211/211
f 212/212/212 584/584/584 213/213/213
f 584/584/584 585/585/585 213/213/213
f 586/586/586 587/587/587 217/217/217
f 587/587/587 218/218/218 217/217/217
f 218/218/218 215/215/215 214/214/214
f 215/215/215 224/224/224 216/216/216
f 220/220/220 588/588/588 221/221/221
f 223/223/223 220/220/220 219/219/219
f 590/590/590 591/591/591 592/592/592
f 588/588/588 589/589/589 221/221/221
f 591/591/591 593/593/593 592/592/592
f 593/593/593 594/594/594 225/225/225
f 594/594/594 226/226/226 225/225/225
f 595/595/595 596/596/596 597/597/597
f 598/598/598 596/596/596 595/595/595
f 599/599/599 598/598/598 595/595/595
f 599/599/599 600/600/600 598/598/598
f 241/241/241 243/243/243 245/245/245
f 601/601/601 242/242/242 241/241/241
f 249/249/249 241/241/241 244/244/244
f 243/243/243 242/242/242 602/602/602
f 250/250/250 252/252/252 254/254/254
f 255/255/255 250/250/250 253/253/253
f 260/260/260 603/603/603 604/604/604
f 259/259/259 603/603/603 260/260/260
f 603/603/603 605/605/605 604/604/604
f 258/258/258 261/261/261 259/259/259
f 268/268/268 270/270/270 606/606/606
f 607/607/607 608/608/608 609/609/609
f 275/275/275 277/277/277 610/610/610
f 284/284/284 285/285/285 294/294/294
f 336/336/336 331/331/331 333/333/333
f 310/310/310 304/304/304 306/306/306
f 314/314/314 313/313/313 315/315/315
f 328/328/328 303/303/303 325/325/325
f 330/330/330 333/333/333 331/331/331
f 342/342/342 311/311/311 312/312/312
f 344/344/344 320/320/320 319/319/319
f 347/347/347 321/321/321 323/323/323
f 323/323/323 318/318/318 320/320/320
f 491/491/491 493/493/493 613/613/613
f 614/614/614 492/492/492 491/491/491
f 33/33/33 3/3/3 22/22/22
f 95/95/95 94/94/94 92/92/92
f 137/137/137 139/139/139 138/138/138
f 141/141/141 143/143/143 142/142/142
f 145/145/145 144/144/144 142/142/142
f 148/148/148 147/147/147 146/146/146
f 146/146/146 151/151/151 150/150/150
f 157/157/157 152/152/152 153/153/153
f 149/149/149 154/154/154 153/153/153
f 152/152/152 156/156/156 155/155/155
f 164/164/164 162/162/162 163/163/163
f 163/163/163 158/158/158 160/160/160
f 166/166/166 167/167/167 165/165/165
f 170/170/170 168/168/168 169/169/169
f 174/174/174 172/172/172 173/173/173
f 176/176/176 173/173/173 175/175/175
f 176/176/176 179/179/179 178/178/178
f 183/183/183 178/178/178 179/179/179
f 182/182/182 181/181/181 137/137/137
f 232/232/232 231/231/231 234/234/234
f 325/325/325 303/303/303 301/301/301
f 309/309/309 304/304/304 307/307/307
f 317/317/317 315/315/315 316/316/316
f 352/352/352 319/319/319 320/320/320
f 335/335/335 326/326/326 324/324/324
f 333/333/333 337/337/337 336/336/336
f 333/333/333 307/307/307 341/341/341
f 350/350/350 321/321/321 349/349/349
f 319/319/319 317/317/317 316/316/316
f 362/362/362 360/360/360 358/358/358
f 396/396/396 394/394/394 395/395/395
f 383/383/383 402/402/402 384/384/384
f 408/408/408 387/387/387 386/386/386
f 419/419/419 417/417/417 418/418/418
f 413/413/413 421/421/421 410/410/410
f 427/427/427 425/425/425 426/426/426
f 430/430/430 428/428/428 429/429/429
f 426/426/426 431/431/431 430/430/430
f 434/434/434 432/432/432 433/433/433
f 437/437/437 435/435/435 436/436/436
f 436/436/436 438/438/438 439/439/439
f 433/433/433 440/440/440 437/437/437
f 429/429/429 441/441/441 434/434/434
f 443/443/443 444/444/444 442/442/442
f 446/446/446 447/447/447 445/445/445
f 448/448/448 442/442/442 447/447/447
f 450/450/450 451/451/451 449/449/449
f 453/453/453 454/454/454 452/452/452
f 456/456/456 452/452/452 455/455/455
f 457/457/457 449/449/449 454/454/454
f 458/458/458 445/445/445 451/451/451
f 484/484/484 483/483/483 481/481/481
f 487/487/487 488/488/488 489/489/489
f 506/506/506 505/505/505 513/513/513
f 516/516/516 517/517/517 515/515/515
f 518/518/518 519/519/519 517/517/517
f 522/522/522 523/523/523 521/521/521
f 524/524/524 522/522/522 521/521/521
f 524/524/524 526/526/526 528/528/528
f 529/529/529 510/510/510 509/509/509
f 534/534/534 533/533/533 532/532/532
f 561/561/561 558/558/558 559/559/559
f 615/615/615 564/564/564 562/562/562

