mtllib material.mtl
usemtl Material-7011油漆.018
v -0.07934600 -0.11263200 0.02723000
v -0.08286400 -0.11348800 0.02539300
v -0.08137000 -0.11263200 0.02723000
v -0.08084000 -0.11348800 0.02539300
v -0.08211700 -0.11306000 0.02631100
v -0.08009300 -0.11306000 0.02631100
v -0.08392300 -0.11348800 0.02539300
v -0.08744200 -0.11263200 0.02723000
v -0.08541800 -0.11263200 0.02723000
v -0.08594800 -0.11348800 0.02539300
v -0.08669500 -0.11306000 0.02631100
v -0.08467100 -0.11306000 0.02631100
v -0.08594800 -0.11348800 0.02539300
v -0.08594800 -0.11348800 0.02539300
v -0.08084000 -0.11348800 0.02539300
v -0.08286400 -0.11348800 0.02539300
v -0.08392300 -0.11348800 0.02539300
v -0.08392300 -0.11348800 0.02539300
v -0.08392300 -0.11348800 0.02539300
v -0.08258500 -0.11580400 0.01967700
v -0.08258500 -0.11548500 0.02057400
v -0.08258500 -0.11515200 0.02146700
v -0.08258500 -0.11480400 0.02235400
v -0.08258500 -0.11444300 0.02323500
v -0.08339400 -0.11412200 0.02398700
v -0.08339400 -0.11412200 0.02398700
v -0.08420300 -0.11580400 0.01967700
v -0.08339400 -0.11580400 0.01967700
v -0.08420300 -0.11444300 0.02323500
v -0.08420300 -0.11480400 0.02235400
v -0.08420300 -0.11515200 0.02146700
v -0.08420300 -0.11548500 0.02057400
v -0.08312900 -0.11363900 0.02506700
v -0.08312900 -0.11363900 0.02506700
v -0.08312900 -0.11363900 0.02506700
v -0.08339400 -0.11378800 0.02474100
v -0.08339400 -0.11378800 0.02474100
v -0.08339400 -0.11378800 0.02474100
v -0.08339400 -0.11378800 0.02474100
v -0.08339400 -0.11378800 0.02474100
v -0.08339400 -0.11380900 0.02469300
v -0.08339400 -0.11380900 0.02469300
v -0.08211700 -0.11380900 0.02469300
v -0.08211700 -0.11380900 0.02469300
v -0.08211700 -0.11365000 0.02504300
v -0.08211700 -0.11365000 0.02504300
v -0.08214800 -0.11421300 0.02377800
v -0.08214800 -0.11421300 0.02377800
v -0.08171100 -0.11397700 0.02431800
v -0.08127500 -0.11373500 0.02485600
v -0.08127500 -0.11373500 0.02485600
v -0.08551300 -0.11373500 0.02485600
v -0.08551300 -0.11373500 0.02485600
v -0.08551300 -0.11373500 0.02485600
v -0.08551300 -0.11373500 0.02485600
v -0.08507700 -0.11397700 0.02431800
v -0.08464000 -0.11421300 0.02377800
v -0.08464000 -0.11421300 0.02377800
v -0.08464000 -0.11421300 0.02377800
v -0.08352600 -0.11371400 0.02490400
v -0.08352600 -0.11371400 0.02490400
v -0.08365900 -0.11363900 0.02506700
v -0.08365900 -0.11363900 0.02506700
v -0.08365900 -0.11363900 0.02506700
v -0.08379100 -0.11356400 0.02523000
v -0.08275500 -0.11380900 0.02469300
v -0.08275500 -0.11380900 0.02469300
v -0.08211700 -0.11373000 0.02486800
v -0.08211700 -0.11373000 0.02486800
v -0.08211700 -0.11373000 0.02486800
v -0.08275500 -0.11365000 0.02504300
v -0.08275500 -0.11365000 0.02504300
v -0.08275500 -0.11365000 0.02504300
v -0.08275500 -0.11373000 0.02486800
v -0.08275500 -0.11373000 0.02486800
v -0.08275500 -0.11373000 0.02486800
v -0.08275500 -0.11373000 0.02486800
v -0.08467100 -0.11380900 0.02469300
v -0.08467100 -0.11380900 0.02469300
v -0.08467100 -0.11380900 0.02469300
v -0.08467100 -0.11365000 0.02504300
v -0.08467100 -0.11365000 0.02504300
v -0.08467100 -0.11365000 0.02504300
v -0.08339400 -0.11396700 0.02434100
v -0.08211700 -0.11396700 0.02434100
v -0.08403300 -0.11380900 0.02469300
v -0.08403300 -0.11380900 0.02469300
v -0.08403300 -0.11365000 0.02504300
v -0.08403300 -0.11365000 0.02504300
v -0.08403300 -0.11365000 0.02504300
v -0.08467100 -0.11373000 0.02486800
v -0.08467100 -0.11373000 0.02486800
v -0.08467100 -0.11373000 0.02486800
v -0.08403300 -0.11373000 0.02486800
v -0.08403300 -0.11373000 0.02486800
v -0.08467100 -0.11412200 0.02398700
v -0.08467100 -0.11412200 0.02398700
v -0.08467100 -0.11396700 0.02434100
v -0.08467100 -0.11356900 0.02521800
v -0.08467100 -0.11356900 0.02521800
v -0.08467100 -0.11356900 0.02521800
v -0.08467100 -0.11356900 0.02521800
v -0.08403300 -0.11356900 0.02521800
v -0.08403300 -0.11356900 0.02521800
v -0.08403300 -0.11356900 0.02521800
v -0.08403300 -0.11356900 0.02521800
v -0.07934600 -0.11326600 0.02752600
v -0.08286400 -0.11412300 0.02568900
v -0.08137000 -0.11326600 0.02752600
v -0.08084000 -0.11412300 0.02568900
v -0.08211700 -0.11369400 0.02660700
v -0.08009300 -0.11369400 0.02660700
v -0.08392300 -0.11412300 0.02568900
v -0.08744200 -0.11326600 0.02752600
v -0.08594800 -0.11412300 0.02568900
v -0.08541800 -0.11326600 0.02752600
v -0.08669500 -0.11369400 0.02660700
v -0.08467100 -0.11369400 0.02660700
v -0.08594800 -0.11412300 0.02568900
v -0.08594800 -0.11412300 0.02568900
v -0.08084000 -0.11412300 0.02568900
v -0.08286400 -0.11412300 0.02568900
v -0.08392300 -0.11412300 0.02568900
v -0.08392300 -0.11412300 0.02568900
v -0.08420300 -0.11646500 0.01990600
v -0.08339400 -0.11646500 0.01990600
v -0.08258500 -0.11646500 0.01990600
v -0.08258500 -0.11614200 0.02081700
v -0.08258500 -0.11580400 0.02172100
v -0.08258500 -0.11545300 0.02261800
v -0.08258500 -0.11508900 0.02350600
v -0.08339400 -0.11476400 0.02426600
v -0.08339400 -0.11476400 0.02426600
v -0.08339400 -0.11476400 0.02426600
v -0.08420300 -0.11508900 0.02350600
v -0.08420300 -0.11545300 0.02261800
v -0.08420300 -0.11580400 0.02172100
v -0.08420300 -0.11614200 0.02081700
v -0.08312900 -0.11427500 0.02535900
v -0.08339400 -0.11442600 0.02502900
v -0.08339400 -0.11442600 0.02502900
v -0.08339400 -0.11442600 0.02502900
v -0.08339400 -0.11444700 0.02498000
v -0.08339400 -0.11444700 0.02498000
v -0.08211700 -0.11444700 0.02498000
v -0.08211700 -0.11444700 0.02498000
v -0.08211700 -0.11428600 0.02533500
v -0.08214800 -0.11485500 0.02405500
v -0.08214800 -0.11485500 0.02405500
v -0.08214800 -0.11485500 0.02405500
v -0.08171100 -0.11461700 0.02460100
v -0.08127500 -0.11437300 0.02514600
v -0.08551300 -0.11437300 0.02514600
v -0.08551300 -0.11437300 0.02514600
v -0.08507700 -0.11461700 0.02460100
v -0.08464000 -0.11485500 0.02405500
v -0.08464000 -0.11485500 0.02405500
v -0.08464000 -0.11485500 0.02405500
v -0.08352600 -0.11435100 0.02519400
v -0.08352600 -0.11435100 0.02519400
v -0.08365900 -0.11427500 0.02535900
v -0.08365900 -0.11427500 0.02535900
v -0.08365900 -0.11427500 0.02535900
v -0.08379100 -0.11419900 0.02552400
v -0.08275500 -0.11444700 0.02498000
v -0.08275500 -0.11444700 0.02498000
v -0.08275500 -0.11444700 0.02498000
v -0.08275500 -0.11444700 0.02498000
v -0.08211700 -0.11436700 0.02515800
v -0.08211700 -0.11436700 0.02515800
v -0.08275500 -0.11428600 0.02533500
v -0.08275500 -0.11428600 0.02533500
v -0.08275500 -0.11436700 0.02515800
v -0.08275500 -0.11436700 0.02515800
v -0.08275500 -0.11436700 0.02515800
v -0.08467100 -0.11444700 0.02498000
v -0.08467100 -0.11444700 0.02498000
v -0.08467100 -0.11428600 0.02533500
v -0.08467100 -0.11428600 0.02533500
v -0.08467100 -0.11428600 0.02533500
v -0.08339400 -0.11460700 0.02462400
v -0.08211700 -0.11460700 0.02462400
v -0.08403300 -0.11444700 0.02498000
v -0.08403300 -0.11444700 0.02498000
v -0.08403300 -0.11444700 0.02498000
v -0.08403300 -0.11428600 0.02533500
v -0.08403300 -0.11428600 0.02533500
v -0.08403300 -0.11428600 0.02533500
v -0.08467100 -0.11436700 0.02515800
v -0.08467100 -0.11436700 0.02515800
v -0.08403300 -0.11436700 0.02515800
v -0.08403300 -0.11436700 0.02515800
v -0.08467100 -0.11476400 0.02426600
v -0.08467100 -0.11460700 0.02462400
v -0.08467100 -0.11420500 0.02551200
v -0.08467100 -0.11420500 0.02551200
v -0.08467100 -0.11420500 0.02551200
v -0.08403300 -0.11420500 0.02551200
v -0.08403300 -0.11420500 0.02551200
v -0.08403300 -0.11420500 0.02551200
v -0.08286400 -0.11348800 0.02539300
v -0.08286400 -0.11412300 0.02568900
v -0.08339400 -0.11378800 0.02474100
v -0.08339400 -0.11442600 0.02502900
v -0.08312900 -0.11363900 0.02506700
v -0.08312900 -0.11427500 0.02535900
v -0.08312900 -0.11427500 0.02535900
v -0.08312900 -0.11427500 0.02535900
v -0.08286400 -0.11380600 0.02554100
v -0.08339400 -0.11400000 0.02483700
v -0.08339400 -0.11400000 0.02483700
v -0.08339400 -0.11421300 0.02493300
v -0.08339400 -0.11421300 0.02493300
v -0.08137000 -0.11263200 0.02723000
v -0.08137000 -0.11326600 0.02752600
v -0.08211700 -0.11306000 0.02631100
v -0.08211700 -0.11369400 0.02660700
v -0.08286400 -0.11348800 0.02539300
v -0.08286400 -0.11380600 0.02554100
v -0.08286400 -0.11412300 0.02568900
v -0.07934600 -0.11263200 0.02723000
v -0.07934600 -0.11326600 0.02752600
v -0.08137000 -0.11263200 0.02723000
v -0.08137000 -0.11326600 0.02752600
v -0.08084000 -0.11348800 0.02539300
v -0.08084000 -0.11412300 0.02568900
v -0.08009300 -0.11306000 0.02631100
v -0.08009300 -0.11369400 0.02660700
v -0.07934600 -0.11263200 0.02723000
v -0.07934600 -0.11326600 0.02752600
v -0.08258500 -0.11444300 0.02323500
v -0.08258500 -0.11508900 0.02350600
v -0.08084000 -0.11348800 0.02539300
v -0.08084000 -0.11412300 0.02568900
v -0.08214800 -0.11421300 0.02377800
v -0.08171100 -0.11397700 0.02431800
v -0.08127500 -0.11373500 0.02485600
v -0.08127500 -0.11437300 0.02514600
v -0.08171100 -0.11461700 0.02460100
v -0.08214800 -0.11485500 0.02405500
v -0.08258500 -0.11580400 0.01967700
v -0.08258500 -0.11646500 0.01990600
v -0.08258500 -0.11444300 0.02323500
v -0.08258500 -0.11508900 0.02350600
v -0.08258500 -0.11548500 0.02057400
v -0.08258500 -0.11515200 0.02146700
v -0.08258500 -0.11480400 0.02235400
v -0.08258500 -0.11545300 0.02261800
v -0.08258500 -0.11580400 0.02172100
v -0.08258500 -0.11614200 0.02081700
v -0.08420300 -0.11580400 0.01967700
v -0.08420300 -0.11580400 0.01967700
v -0.08420300 -0.11646500 0.01990600
v -0.08258500 -0.11580400 0.01967700
v -0.08258500 -0.11646500 0.01990600
v -0.08339400 -0.11580400 0.01967700
v -0.08339400 -0.11646500 0.01990600
v -0.08339400 -0.11646500 0.01990600
v -0.08420300 -0.11444300 0.02323500
v -0.08420300 -0.11508900 0.02350600
v -0.08420300 -0.11580400 0.01967700
v -0.08420300 -0.11646500 0.01990600
v -0.08420300 -0.11480400 0.02235400
v -0.08420300 -0.11515200 0.02146700
v -0.08420300 -0.11548500 0.02057400
v -0.08420300 -0.11614200 0.02081700
v -0.08420300 -0.11580400 0.02172100
v -0.08420300 -0.11545300 0.02261800
v -0.08594800 -0.11348800 0.02539300
v -0.08594800 -0.11412300 0.02568900
v -0.08420300 -0.11444300 0.02323500
v -0.08420300 -0.11508900 0.02350600
v -0.08551300 -0.11373500 0.02485600
v -0.08507700 -0.11397700 0.02431800
v -0.08464000 -0.11421300 0.02377800
v -0.08464000 -0.11485500 0.02405500
v -0.08507700 -0.11461700 0.02460100
v -0.08551300 -0.11437300 0.02514600
v -0.08744200 -0.11263200 0.02723000
v -0.08744200 -0.11326600 0.02752600
v -0.08744200 -0.11326600 0.02752600
v -0.08669500 -0.11306000 0.02631100
v -0.08669500 -0.11306000 0.02631100
v -0.08669500 -0.11369400 0.02660700
v -0.08669500 -0.11369400 0.02660700
v -0.08594800 -0.11348800 0.02539300
v -0.08594800 -0.11412300 0.02568900
v -0.08541800 -0.11263200 0.02723000
v -0.08541800 -0.11326600 0.02752600
v -0.08744200 -0.11263200 0.02723000
v -0.08744200 -0.11326600 0.02752600
v -0.08392300 -0.11348800 0.02539300
v -0.08392300 -0.11348800 0.02539300
v -0.08392300 -0.11412300 0.02568900
v -0.08392300 -0.11412300 0.02568900
v -0.08467100 -0.11306000 0.02631100
v -0.08467100 -0.11306000 0.02631100
v -0.08467100 -0.11306000 0.02631100
v -0.08467100 -0.11337700 0.02645900
v -0.08467100 -0.11337700 0.02645900
v -0.08467100 -0.11337700 0.02645900
v -0.08467100 -0.11337700 0.02645900
v -0.08467100 -0.11369400 0.02660700
v -0.08467100 -0.11369400 0.02660700
v -0.08467100 -0.11369400 0.02660700
v -0.08541800 -0.11263200 0.02723000
v -0.08541800 -0.11263200 0.02723000
v -0.08541800 -0.11263200 0.02723000
v -0.08541800 -0.11326600 0.02752600
v -0.08541800 -0.11326600 0.02752600
v -0.08392300 -0.11391100 0.02559000
v -0.08392300 -0.11391100 0.02559000
v -0.08392300 -0.11391100 0.02559000
v -0.08392300 -0.11370000 0.02549100
v -0.08392300 -0.11370000 0.02549100
v -0.08467100 -0.11353600 0.02653300
v -0.08467100 -0.11353600 0.02653300
v -0.08467100 -0.11353600 0.02653300
v -0.08467100 -0.11353600 0.02653300
v -0.08429700 -0.11359100 0.02600000
v -0.08429700 -0.11359100 0.02600000
v -0.08429700 -0.11359100 0.02600000
v -0.08429700 -0.11359100 0.02600000
v -0.08429700 -0.11375000 0.02607400
v -0.08429700 -0.11375000 0.02607400
v -0.08429700 -0.11375000 0.02607400
v -0.08467100 -0.11321900 0.02638500
v -0.08467100 -0.11321900 0.02638500
v -0.08467100 -0.11321900 0.02638500
v -0.08467100 -0.11321900 0.02638500
v -0.08429700 -0.11343300 0.02592600
v -0.08429700 -0.11343300 0.02592600
v -0.08429700 -0.11343300 0.02592600
v -0.08429700 -0.11343300 0.02592600
v -0.08339400 -0.11378800 0.02474100
v -0.08339400 -0.11442600 0.02502900
v -0.08392300 -0.11348800 0.02539300
v -0.08392300 -0.11412300 0.02568900
v -0.08392300 -0.11370000 0.02549100
v -0.08392300 -0.11370000 0.02549100
v -0.08392300 -0.11370000 0.02549100
v -0.08392300 -0.11391100 0.02559000
v -0.08392300 -0.11391100 0.02559000
v -0.08392300 -0.11391100 0.02559000
v -0.08352600 -0.11371400 0.02490400
v -0.08352600 -0.11371400 0.02490400
v -0.08365900 -0.11363900 0.02506700
v -0.08365900 -0.11363900 0.02506700
v -0.08365900 -0.11363900 0.02506700
v -0.08379100 -0.11356400 0.02523000
v -0.08379100 -0.11419900 0.02552400
v -0.08379100 -0.11419900 0.02552400
v -0.08365900 -0.11427500 0.02535900
v -0.08365900 -0.11427500 0.02535900
v -0.08365900 -0.11427500 0.02535900
v -0.08352600 -0.11435100 0.02519400
v -0.08339400 -0.11421300 0.02493300
v -0.08339400 -0.11421300 0.02493300
v -0.08339400 -0.11421300 0.02493300
v -0.08339400 -0.11400000 0.02483700
v -0.08339400 -0.11400000 0.02483700
v -0.08339400 -0.11400000 0.02483700
vn 0.00000000 0.90630000 -0.42260000
vn 0.00000000 0.90630000 -0.42260000
vn 0.00000000 0.90630000 -0.42260000
vn 0.00000000 0.90630000 -0.42260000
vn 0.00000000 0.90630000 -0.42260000
vn 0.00000000 0.90630000 -0.42260000
vn 0.00000000 0.90630000 -0.42260000
vn 0.00000000 0.90630000 -0.42260000
vn 0.00000000 0.90630000 -0.42260000
vn 0.00000000 0.90630000 -0.42260000
vn 0.00000000 0.90630000 -0.42260000
vn 0.00000000 0.90630000 -0.42260000
vn 0.00000000 0.90630000 -0.42260000
vn 0.00000000 0.90630000 -0.42270000
vn 0.00000000 0.90630000 -0.42270000
vn 0.00000000 0.90630000 -0.42260000
vn 0.00000000 0.90630000 -0.42260000
vn -0.00000000 0.90620000 -0.42280000
vn 0.00000000 0.90630000 -0.42270000
vn 0.00000000 0.94490000 -0.32740000
vn 0.00000000 0.93960000 -0.34230000
vn 0.00000000 0.93400000 -0.35720000
vn 0.00000000 0.92820000 -0.37200000
vn 0.00000000 0.92220000 -0.38670000
vn 0.00000000 0.91690000 -0.39920000
vn -0.00000000 0.91680000 -0.39920000
vn 0.00000000 0.94490000 -0.32740000
vn 0.00000000 0.94490000 -0.32740000
vn 0.00000000 0.92240000 -0.38630000
vn 0.00000000 0.92820000 -0.37200000
vn 0.00000000 0.93400000 -0.35720000
vn 0.00000000 0.93960000 -0.34230000
vn -0.00000000 0.90880000 -0.41730000
vn -0.00000000 0.90890000 -0.41700000
vn -0.00000000 0.90880000 -0.41720000
vn 0.00000000 0.91130000 -0.41180000
vn 0.00000000 0.91140000 -0.41150000
vn 0.00000000 0.91130000 -0.41170000
vn 0.00000000 0.91130000 -0.41190000
vn 0.00000000 0.91120000 -0.41190000
vn -0.00000000 0.91170000 -0.41090000
vn -0.00000000 0.91180000 -0.41060000
vn -0.00000000 0.91170000 -0.41090000
vn 0.00000000 0.91160000 -0.41100000
vn 0.00000000 0.90910000 -0.41670000
vn 0.00000000 0.90900000 -0.41680000
vn 0.00000000 0.91830000 -0.39590000
vn 0.00000000 0.91840000 -0.39570000
vn -0.00000000 0.91440000 -0.40480000
vn 0.00000000 0.91040000 -0.41360000
vn -0.00000000 0.91040000 -0.41370000
vn -0.00000000 0.91040000 -0.41380000
vn 0.00000000 0.91050000 -0.41360000
vn 0.00000000 0.91040000 -0.41360000
vn -0.00000000 0.91040000 -0.41370000
vn 0.00000000 0.91440000 -0.40470000
vn -0.00000000 0.91840000 -0.39560000
vn 0.00000000 0.91840000 -0.39570000
vn 0.00000000 0.91830000 -0.39590000
vn -0.00000000 0.91010000 -0.41440000
vn 0.00000000 0.91000000 -0.41460000
vn -0.00000000 0.90880000 -0.41720000
vn 0.00000000 0.90880000 -0.41710000
vn -0.00000000 0.90880000 -0.41730000
vn 0.00000000 0.90760000 -0.41990000
vn -0.00000000 0.91180000 -0.41060000
vn -0.00000000 0.91170000 -0.41090000
vn -0.00000000 0.91040000 -0.41380000
vn 0.00000000 0.91030000 -0.41380000
vn -0.00000000 0.91030000 -0.41390000
vn 0.00000000 0.90910000 -0.41670000
vn 0.00000000 0.90900000 -0.41690000
vn 0.00000000 0.90900000 -0.41680000
vn -0.00000000 0.91030000 -0.41400000
vn 0.00000000 0.91030000 -0.41380000
vn -0.00000000 0.91040000 -0.41380000
vn -0.00000000 0.91030000 -0.41390000
vn -0.00000000 0.91170000 -0.41090000
vn 0.00000000 0.91160000 -0.41100000
vn -0.00000000 0.91170000 -0.41100000
vn 0.00000000 0.90900000 -0.41690000
vn 0.00000000 0.90900000 -0.41680000
vn 0.00000000 0.90910000 -0.41670000
vn 0.00000000 0.91430000 -0.40510000
vn 0.00000000 0.91430000 -0.40510000
vn 0.00000000 0.91160000 -0.41100000
vn -0.00000000 0.91170000 -0.41090000
vn 0.00000000 0.90900000 -0.41680000
vn 0.00000000 0.90900000 -0.41670000
vn 0.00000000 0.90900000 -0.41690000
vn -0.00000000 0.91030000 -0.41390000
vn -0.00000000 0.91040000 -0.41380000
vn -0.00000000 0.91030000 -0.41400000
vn -0.00000000 0.91030000 -0.41390000
vn -0.00000000 0.91040000 -0.41380000
vn 0.00000000 0.91690000 -0.39910000
vn -0.00000000 0.91680000 -0.39920000
vn 0.00000000 0.91430000 -0.40510000
vn 0.00000000 0.90760000 -0.41980000
vn -0.00000000 0.90760000 -0.41970000
vn 0.00000000 0.90770000 -0.41960000
vn 0.00000000 0.90770000 -0.41970000
vn 0.00000000 0.90760000 -0.41980000
vn 0.00000000 0.90770000 -0.41960000
vn 0.00000000 0.90770000 -0.41970000
vn -0.00000000 0.90760000 -0.41970000
vn 0.00000000 -0.90630000 0.42260000
vn 0.00000000 -0.90630000 0.42260000
vn 0.00000000 -0.90630000 0.42260000
vn 0.00000000 -0.90630000 0.42260000
vn 0.00000000 -0.90630000 0.42260000
vn 0.00000000 -0.90630000 0.42260000
vn 0.00000000 -0.90630000 0.42260000
vn 0.00000000 -0.90630000 0.42260000
vn 0.00000000 -0.90630000 0.42260000
vn 0.00000000 -0.90630000 0.42260000
vn 0.00000000 -0.90630000 0.42260000
vn 0.00000000 -0.90630000 0.42260000
vn 0.00000000 -0.90630000 0.42260000
vn 0.00000000 -0.90630000 0.42270000
vn 0.00000000 -0.90630000 0.42260000
vn 0.00000000 -0.90630000 0.42260000
vn 0.00000000 -0.90620000 0.42280000
vn 0.00000000 -0.90630000 0.42270000
vn -0.00000000 -0.94490000 0.32740000
vn -0.00000000 -0.94490000 0.32740000
vn -0.00000000 -0.94490000 0.32740000
vn 0.00000000 -0.93960000 0.34240000
vn 0.00000000 -0.93400000 0.35730000
vn 0.00000000 -0.92820000 0.37200000
vn 0.00000000 -0.92230000 0.38660000
vn -0.00000000 -0.91690000 0.39910000
vn -0.00000000 -0.91680000 0.39930000
vn -0.00000000 -0.91690000 0.39920000
vn 0.00000000 -0.92230000 0.38660000
vn 0.00000000 -0.92820000 0.37200000
vn 0.00000000 -0.93400000 0.35720000
vn 0.00000000 -0.93960000 0.34240000
vn -0.00000000 -0.90880000 0.41720000
vn -0.00000000 -0.91110000 0.41220000
vn -0.00000000 -0.91140000 0.41160000
vn -0.00000000 -0.91130000 0.41180000
vn 0.00000000 -0.91170000 0.41090000
vn 0.00000000 -0.91140000 0.41150000
vn -0.00000000 -0.91160000 0.41100000
vn 0.00000000 -0.91170000 0.41090000
vn -0.00000000 -0.90900000 0.41680000
vn -0.00000000 -0.91840000 0.39570000
vn -0.00000000 -0.91830000 0.39580000
vn 0.00000000 -0.91840000 0.39560000
vn 0.00000000 -0.91440000 0.40480000
vn -0.00000000 -0.91040000 0.41370000
vn -0.00000000 -0.91040000 0.41370000
vn 0.00000000 -0.91050000 0.41350000
vn 0.00000000 -0.91440000 0.40470000
vn 0.00000000 -0.91840000 0.39560000
vn -0.00000000 -0.91840000 0.39570000
vn -0.00000000 -0.91830000 0.39580000
vn -0.00000000 -0.91010000 0.41440000
vn -0.00000000 -0.91000000 0.41460000
vn -0.00000000 -0.90880000 0.41720000
vn 0.00000000 -0.90880000 0.41730000
vn 0.00000000 -0.90890000 0.41710000
vn 0.00000000 -0.90760000 0.41990000
vn 0.00000000 -0.91170000 0.41090000
vn 0.00000000 -0.91170000 0.41080000
vn 0.00000000 -0.91140000 0.41150000
vn -0.00000000 -0.91160000 0.41100000
vn -0.00000000 -0.91030000 0.41390000
vn 0.00000000 -0.91030000 0.41380000
vn -0.00000000 -0.90900000 0.41670000
vn -0.00000000 -0.90900000 0.41680000
vn 0.00000000 -0.91030000 0.41380000
vn -0.00000000 -0.91030000 0.41390000
vn 0.00000000 -0.91040000 0.41380000
vn -0.00000000 -0.91160000 0.41100000
vn 0.00000000 -0.91170000 0.41090000
vn -0.00000000 -0.90900000 0.41680000
vn -0.00000000 -0.90900000 0.41690000
vn -0.00000000 -0.90900000 0.41670000
vn 0.00000000 -0.91430000 0.40510000
vn 0.00000000 -0.91430000 0.40510000
vn 0.00000000 -0.91170000 0.41090000
vn -0.00000000 -0.91160000 0.41100000
vn 0.00000000 -0.91140000 0.41150000
vn -0.00000000 -0.90900000 0.41670000
vn -0.00000000 -0.90900000 0.41690000
vn -0.00000000 -0.90900000 0.41680000
vn 0.00000000 -0.91040000 0.41380000
vn -0.00000000 -0.91030000 0.41390000
vn 0.00000000 -0.91040000 0.41380000
vn -0.00000000 -0.91030000 0.41390000
vn -0.00000000 -0.91690000 0.39910000
vn 0.00000000 -0.91430000 0.40510000
vn -0.00000000 -0.90770000 0.41960000
vn -0.00000000 -0.90770000 0.41970000
vn -0.00000000 -0.90760000 0.41980000
vn -0.00000000 -0.90760000 0.41980000
vn -0.00000000 -0.90770000 0.41970000
vn -0.00000000 -0.90770000 0.41960000
vn -0.80470000 0.25090000 0.53800000
vn -0.80800000 0.24900000 0.53400000
vn -0.80440000 0.24460000 0.54140000
vn -0.80770000 0.24280000 0.53730000
vn -0.80460000 0.24770000 0.53970000
vn -0.80780000 0.24580000 0.53570000
vn -0.80780000 0.24590000 0.53570000
vn -0.80790000 0.24590000 0.53560000
vn -0.80660000 0.24980000 0.53580000
vn -0.80540000 0.24410000 0.54010000
vn -0.80540000 0.24400000 0.54020000
vn -0.80650000 0.24340000 0.53880000
vn -0.80650000 0.24350000 0.53880000
vn -0.80490000 0.25080000 0.53780000
vn -0.80490000 0.25080000 0.53780000
vn -0.80490000 0.25080000 0.53780000
vn -0.80490000 0.25080000 0.53780000
vn -0.80490000 0.25080000 0.53780000
vn -0.80490000 0.25080000 0.53780000
vn -0.80490000 0.25080000 0.53780000
vn 0.00000000 0.42260000 0.90630000
vn 0.00000000 0.42260000 0.90630000
vn 0.00000000 0.42260000 0.90630000
vn 0.00000000 0.42260000 0.90630000
vn 0.80500000 -0.25070000 -0.53760000
vn 0.80500000 -0.25070000 -0.53760000
vn 0.80500000 -0.25070000 -0.53760000
vn 0.80500000 -0.25070000 -0.53760000
vn 0.80500000 -0.25070000 -0.53760000
vn 0.80500000 -0.25070000 -0.53760000
vn 0.80310000 -0.23040000 -0.54950000
vn 0.80640000 -0.22870000 -0.54540000
vn 0.80500000 -0.25070000 -0.53760000
vn 0.80840000 -0.24880000 -0.53340000
vn 0.80350000 -0.23550000 -0.54670000
vn 0.80400000 -0.24060000 -0.54370000
vn 0.80450000 -0.24570000 -0.54070000
vn 0.80780000 -0.24390000 -0.53670000
vn 0.80730000 -0.23880000 -0.53970000
vn 0.80680000 -0.23380000 -0.54260000
vn 1.00000000 0.00000000 0.00000000
vn 1.00000000 0.00000000 0.00000000
vn 1.00000000 0.00000000 0.00000000
vn 1.00000000 0.00000000 0.00000000
vn 1.00000000 0.00000000 0.00000000
vn 1.00000000 0.00000000 0.00000000
vn 1.00000000 0.00000000 0.00000000
vn 1.00000000 0.00000000 0.00000000
vn 1.00000000 0.00000000 0.00000000
vn 1.00000000 0.00000000 0.00000000
vn 0.00000000 -0.32730000 -0.94490000
vn 0.00000000 -0.32740000 -0.94490000
vn 0.00000000 -0.32730000 -0.94490000
vn 0.00000000 -0.32740000 -0.94490000
vn 0.00000000 -0.32740000 -0.94490000
vn 0.00000000 -0.32740000 -0.94490000
vn 0.00000000 -0.32740000 -0.94490000
vn 0.00000000 -0.32730000 -0.94490000
vn -1.00000000 0.00000000 0.00000000
vn -1.00000000 0.00000000 0.00000000
vn -1.00000000 0.00000000 0.00000000
vn -1.00000000 0.00000000 0.00000000
vn -1.00000000 0.00000000 0.00000000
vn -1.00000000 0.00000000 0.00000000
vn -1.00000000 0.00000000 0.00000000
vn -1.00000000 0.00000000 0.00000000
vn -1.00000000 0.00000000 0.00000000
vn -1.00000000 0.00000000 0.00000000
vn -0.80500000 -0.25070000 -0.53760000
vn -0.80830000 -0.24880000 -0.53360000
vn -0.80310000 -0.23040000 -0.54950000
vn -0.80660000 -0.22860000 -0.54510000
vn -0.80450000 -0.24570000 -0.54070000
vn -0.80400000 -0.24060000 -0.54370000
vn -0.80350000 -0.23550000 -0.54670000
vn -0.80680000 -0.23380000 -0.54260000
vn -0.80730000 -0.23880000 -0.53970000
vn -0.80780000 -0.24380000 -0.53670000
vn -0.80500000 -0.25070000 -0.53760000
vn -0.80500000 -0.25070000 -0.53770000
vn -0.80500000 -0.25070000 -0.53760000
vn -0.80500000 -0.25070000 -0.53770000
vn -0.80500000 -0.25070000 -0.53760000
vn -0.80500000 -0.25070000 -0.53770000
vn -0.80500000 -0.25070000 -0.53760000
vn -0.80500000 -0.25070000 -0.53760000
vn -0.80500000 -0.25070000 -0.53760000
vn 0.00000000 0.42260000 0.90630000
vn 0.00000000 0.42260000 0.90630000
vn 0.00000000 0.42260000 0.90630000
vn 0.00000000 0.42260000 0.90630000
vn 0.80480000 0.25080000 0.53790000
vn 0.80490000 0.25070000 0.53790000
vn 0.80490000 0.25080000 0.53780000
vn 0.80490000 0.25090000 0.53790000
vn 0.80490000 0.25070000 0.53790000
vn 0.80480000 0.25080000 0.53790000
vn 0.80490000 0.25080000 0.53790000
vn 0.80480000 0.25080000 0.53790000
vn 0.80490000 0.25080000 0.53780000
vn 0.80490000 0.25080000 0.53790000
vn 0.80490000 0.25090000 0.53780000
vn 0.80490000 0.25090000 0.53790000
vn 0.80490000 0.25080000 0.53780000
vn 0.80490000 0.25080000 0.53790000
vn 0.80480000 0.25080000 0.53790000
vn 0.80490000 0.25080000 0.53790000
vn 0.80490000 0.25090000 0.53780000
vn 0.80480000 0.25080000 0.53790000
vn 0.80490000 0.25080000 0.53790000
vn 0.80490000 0.25080000 0.53780000
vn 0.80480000 0.25080000 0.53790000
vn 0.80490000 0.25080000 0.53790000
vn 0.80490000 0.25090000 0.53780000
vn 0.80480000 0.25080000 0.53790000
vn 0.80480000 0.25080000 0.53790000
vn 0.80490000 0.25090000 0.53780000
vn 0.80490000 0.25080000 0.53780000
vn 0.80490000 0.25080000 0.53790000
vn 0.80490000 0.25090000 0.53780000
vn 0.80490000 0.25080000 0.53780000
vn 0.80480000 0.25080000 0.53790000
vn 0.80490000 0.25080000 0.53790000
vn 0.80490000 0.25080000 0.53790000
vn 0.80490000 0.25080000 0.53780000
vn 0.80490000 0.25090000 0.53790000
vn 0.80480000 0.25080000 0.53790000
vn 0.80490000 0.25090000 0.53780000
vn 0.80490000 0.25080000 0.53780000
vn 0.80490000 0.25080000 0.53790000
vn 0.80480000 0.25080000 0.53790000
vn 0.80490000 0.25080000 0.53790000
vn 0.80490000 0.25090000 0.53780000
vn 0.80490000 0.25070000 0.53790000
vn 0.80430000 0.24460000 0.54150000
vn 0.80760000 0.24280000 0.53740000
vn 0.80480000 0.25090000 0.53800000
vn 0.80820000 0.24890000 0.53370000
vn 0.80600000 0.25010000 0.53650000
vn 0.80590000 0.25020000 0.53650000
vn 0.80600000 0.25020000 0.53650000
vn 0.80710000 0.24960000 0.53510000
vn 0.80710000 0.24950000 0.53510000
vn 0.80700000 0.24960000 0.53520000
vn 0.80440000 0.24620000 0.54070000
vn 0.80440000 0.24610000 0.54070000
vn 0.80460000 0.24780000 0.53970000
vn 0.80450000 0.24780000 0.53980000
vn 0.80460000 0.24770000 0.53970000
vn 0.80470000 0.24930000 0.53880000
vn 0.80800000 0.24750000 0.53470000
vn 0.80800000 0.24750000 0.53460000
vn 0.80770000 0.24590000 0.53580000
vn 0.80790000 0.24600000 0.53560000
vn 0.80780000 0.24580000 0.53570000
vn 0.80770000 0.24430000 0.53660000
vn 0.80650000 0.24340000 0.53880000
vn 0.80650000 0.24350000 0.53880000
vn 0.80640000 0.24350000 0.53890000
vn 0.80530000 0.24410000 0.54020000
vn 0.80530000 0.24410000 0.54030000
vn 0.80530000 0.24400000 0.54030000
vt 0.50858600 0.57947200
vt 0.36514800 0.82951900
vt 0.50858600 0.72330900
vt 0.36514800 0.68563400
vt 0.43686700 0.77641400
vt 0.43686700 0.63255300
vt 0.51005100 0.57947200
vt 0.65348800 0.82951900
vt 0.65348800 0.68569300
vt 0.51005100 0.72336500
vt 0.58176900 0.77644200
vt 0.58176900 0.63258200
vt 0.36368300 0.36514800
vt 0.36368300 0.36514800
vt 0.00000000 0.36514800
vt 0.14413700 0.36514800
vt 0.21952800 0.36514800
vt 0.21952800 0.36514800
vt 0.21952800 0.36514800
vt 0.12421400 0.80617600
vt 0.12421400 0.73853200
vt 0.12421400 0.67073000
vt 0.12421400 0.60276900
vt 0.12421400 0.53464800
vt 0.18184200 0.47605100
vt 0.18184200 0.47605100
vt 0.23946900 0.80617600
vt 0.18184200 0.80617600
vt 0.23946900 0.53464800
vt 0.23946900 0.60276900
vt 0.23946900 0.67073000
vt 0.23946900 0.73853200
vt 0.16297600 0.39099700
vt 0.16297600 0.39099700
vt 0.16297600 0.39099700
vt 0.18182900 0.41680800
vt 0.18182900 0.41680800
vt 0.18182900 0.41680800
vt 0.18182900 0.41680800
vt 0.18182900 0.41680800
vt 0.18184200 0.42060000
vt 0.18184200 0.42060000
vt 0.09092100 0.42060000
vt 0.09092100 0.42060000
vt 0.09092100 0.39287400
vt 0.09092100 0.39287400
vt 0.09311000 0.49241900
vt 0.09311000 0.49241900
vt 0.06203800 0.45009400
vt 0.03100100 0.40767200
vt 0.03100100 0.40767200
vt 0.33268200 0.40767200
vt 0.33268200 0.40767200
vt 0.33268200 0.40767200
vt 0.33268200 0.40767200
vt 0.30164500 0.45009400
vt 0.27057300 0.49241900
vt 0.27057300 0.49241900
vt 0.27057300 0.49241900
vt 0.19125900 0.40390700
vt 0.19125900 0.40390700
vt 0.20068500 0.39099700
vt 0.20068500 0.39099700
vt 0.20068500 0.39099700
vt 0.21010800 0.37807800
vt 0.13638100 0.42060000
vt 0.13638100 0.42060000
vt 0.09092100 0.40673700
vt 0.09092100 0.40673700
vt 0.09092100 0.40673700
vt 0.13638100 0.39287400
vt 0.13638100 0.39287400
vt 0.13638100 0.39287400
vt 0.13638100 0.40673700
vt 0.13638100 0.40673700
vt 0.13638100 0.40673700
vt 0.13638100 0.40673700
vt 0.27276200 0.42060000
vt 0.27276200 0.42060000
vt 0.27276200 0.42060000
vt 0.27276200 0.39287400
vt 0.27276200 0.39287400
vt 0.27276200 0.39287400
vt 0.18184200 0.44832500
vt 0.09092100 0.44832500
vt 0.22730200 0.42060000
vt 0.22730200 0.42060000
vt 0.22730200 0.39287400
vt 0.22730200 0.39287400
vt 0.22730200 0.39287400
vt 0.27276200 0.40673700
vt 0.27276200 0.40673700
vt 0.27276200 0.40673700
vt 0.22730200 0.40673700
vt 0.22730200 0.40673700
vt 0.27276200 0.47605100
vt 0.27276200 0.47605100
vt 0.27276200 0.44832500
vt 0.27276200 0.37901100
vt 0.27276200 0.37901100
vt 0.27276200 0.37901100
vt 0.27276200 0.37901100
vt 0.22730200 0.37901100
vt 0.22730200 0.37901100
vt 0.22730200 0.37901100
vt 0.22730200 0.37901100
vt 0.97542300 0.00000000
vt 0.83052100 0.25149300
vt 0.97542300 0.14466900
vt 0.83052100 0.10677600
vt 0.90297200 0.19808100
vt 0.90297200 0.05338800
vt 0.65495300 0.41547700
vt 0.79839100 0.66698800
vt 0.65495300 0.56021200
vt 0.79839100 0.52231900
vt 0.72667200 0.61360000
vt 0.72667200 0.46889800
vt 0.00000000 0.00000000
vt 0.00000000 0.00000000
vt 0.00000000 0.36368300
vt 0.00000000 0.21954700
vt 0.00000000 0.14415500
vt 0.00000000 0.14415500
vt 0.44617300 0.12421400
vt 0.44617300 0.18184200
vt 0.44617300 0.23946900
vt 0.37749900 0.23946900
vt 0.30882500 0.23946900
vt 0.24015100 0.23946900
vt 0.17147700 0.23946900
vt 0.11219700 0.18184200
vt 0.11219700 0.18184200
vt 0.11219700 0.18184200
vt 0.17147700 0.12421400
vt 0.24015100 0.12421400
vt 0.30882500 0.12421400
vt 0.37749900 0.12421400
vt 0.02615000 0.20070700
vt 0.05226200 0.18185400
vt 0.05226200 0.18185400
vt 0.05226200 0.18185400
vt 0.05609800 0.18184200
vt 0.05609800 0.18184200
vt 0.05609800 0.27276200
vt 0.05609800 0.27276200
vt 0.02804900 0.27276200
vt 0.12875500 0.27057300
vt 0.12875500 0.27057300
vt 0.12875500 0.27057300
vt 0.08593700 0.30164500
vt 0.04302000 0.33268200
vt 0.04302000 0.03100100
vt 0.04302000 0.03100100
vt 0.08593700 0.06203800
vt 0.12875500 0.09311000
vt 0.12875500 0.09311000
vt 0.12875500 0.09311000
vt 0.03921100 0.17242500
vt 0.03921100 0.17242500
vt 0.02615100 0.16299800
vt 0.02615100 0.16299800
vt 0.02615100 0.16299800
vt 0.01308000 0.15357500
vt 0.05609800 0.22730200
vt 0.05609800 0.22730200
vt 0.05609800 0.22730200
vt 0.05609800 0.22730200
vt 0.04207400 0.27276200
vt 0.04207400 0.27276200
vt 0.02804900 0.22730200
vt 0.02804900 0.22730200
vt 0.04207400 0.22730200
vt 0.04207400 0.22730200
vt 0.04207400 0.22730200
vt 0.05609800 0.09092100
vt 0.05609800 0.09092100
vt 0.02804900 0.09092100
vt 0.02804900 0.09092100
vt 0.02804900 0.09092100
vt 0.08414700 0.18184200
vt 0.08414700 0.27276200
vt 0.05609800 0.13638100
vt 0.05609800 0.13638100
vt 0.05609800 0.13638100
vt 0.02804900 0.13638100
vt 0.02804900 0.13638100
vt 0.02804900 0.13638100
vt 0.04207400 0.09092100
vt 0.04207400 0.09092100
vt 0.04207400 0.13638100
vt 0.04207400 0.13638100
vt 0.11219700 0.09092100
vt 0.08414700 0.09092100
vt 0.01402500 0.09092100
vt 0.01402500 0.09092100
vt 0.01402500 0.09092100
vt 0.01402500 0.13638100
vt 0.01402500 0.13638100
vt 0.01402500 0.13638100
vt 0.41518400 0.36514800
vt 0.36514800 0.36514800
vt 0.41518400 0.42789900
vt 0.36514800 0.42789900
vt 0.41518400 0.39652300
vt 0.36514800 0.39652300
vt 0.36514800 0.39652300
vt 0.36514800 0.39652300
vt 0.39016600 0.36514800
vt 0.39850600 0.42789900
vt 0.39850600 0.42789900
vt 0.38182700 0.42789900
vt 0.38182700 0.42789900
vt 0.89846300 0.41547700
vt 0.84989100 0.41547700
vt 0.89846300 0.50548800
vt 0.84989100 0.50548800
vt 0.89846300 0.59549900
vt 0.87417700 0.59549900
vt 0.84989100 0.59549900
vt 0.76351200 0.09037400
vt 0.71347600 0.09037400
vt 0.76351200 0.23504300
vt 0.71347600 0.23504300
vt 0.82203400 0.09037400
vt 0.77199800 0.09037400
vt 0.82203400 0.18037100
vt 0.77199800 0.18037100
vt 0.82203400 0.27036800
vt 0.77199800 0.27036800
vt 0.99853500 0.41547700
vt 0.94996400 0.41547700
vt 0.99853500 0.62681100
vt 0.94996400 0.62681100
vt 0.99853500 0.46831000
vt 0.99853500 0.52114400
vt 0.99853500 0.57397700
vt 0.94996400 0.57397700
vt 0.94996400 0.52114400
vt 0.94996400 0.46831000
vt 0.36514800 0.47940000
vt 0.36514800 0.52797100
vt 0.64070900 0.47940000
vt 0.64070900 0.52797100
vt 0.43403800 0.47940000
vt 0.50292900 0.47940000
vt 0.57181900 0.47940000
vt 0.57206100 0.52797100
vt 0.50325100 0.52797100
vt 0.43428100 0.52797100
vt 0.70498900 0.09037400
vt 0.70498900 0.09037400
vt 0.65495300 0.09037400
vt 0.70498900 0.20609400
vt 0.65495300 0.20609400
vt 0.70498900 0.14823400
vt 0.65495300 0.14823400
vt 0.65495300 0.14823400
vt 0.36514800 0.52943600
vt 0.36514800 0.57800700
vt 0.64070900 0.52943600
vt 0.64070900 0.57800700
vt 0.43403800 0.52943600
vt 0.50292900 0.52943600
vt 0.57181900 0.52943600
vt 0.57157700 0.57800700
vt 0.50260600 0.57800700
vt 0.43379700 0.57800700
vt 0.36514800 0.42936300
vt 0.36514800 0.47793500
vt 0.57648200 0.42936300
vt 0.57648200 0.47793500
vt 0.41798200 0.42936300
vt 0.47081500 0.42936300
vt 0.52364900 0.42936300
vt 0.52364900 0.47793500
vt 0.47081500 0.47793500
vt 0.41798200 0.47793500
vt 0.84842700 0.41547700
vt 0.79985500 0.41547700
vt 0.79985500 0.41547700
vt 0.84842700 0.50547300
vt 0.84842700 0.50547300
vt 0.79985500 0.50547300
vt 0.79985500 0.50547300
vt 0.84842700 0.59547000
vt 0.79985500 0.59547000
vt 0.65495300 0.00000000
vt 0.65495300 0.05003600
vt 0.79962200 0.00000000
vt 0.79962200 0.05003600
vt 0.94849900 0.41547700
vt 0.94849900 0.41547700
vt 0.89992800 0.41547700
vt 0.89992800 0.41547700
vt 0.94849900 0.50549300
vt 0.94849900 0.50549300
vt 0.94849900 0.50549300
vt 0.92421300 0.50549300
vt 0.92421300 0.50549300
vt 0.92421300 0.50549300
vt 0.92421300 0.50549300
vt 0.89992800 0.50549300
vt 0.89992800 0.50549300
vt 0.89992800 0.50549300
vt 0.94849900 0.59551000
vt 0.94849900 0.59551000
vt 0.94849900 0.59551000
vt 0.89992800 0.59551000
vt 0.89992800 0.59551000
vt 0.91611800 0.41547700
vt 0.91611800 0.41547700
vt 0.91611800 0.41547700
vt 0.93230900 0.41547700
vt 0.93230900 0.41547700
vt 0.91207100 0.50549300
vt 0.91207100 0.50549300
vt 0.91207100 0.50549300
vt 0.91207100 0.50549300
vt 0.92421300 0.46048500
vt 0.92421300 0.46048500
vt 0.92421300 0.46048500
vt 0.92421300 0.46048500
vt 0.91207100 0.46048500
vt 0.91207100 0.46048500
vt 0.91207100 0.46048500
vt 0.93635600 0.50549300
vt 0.93635600 0.50549300
vt 0.93635600 0.50549300
vt 0.93635600 0.50549300
vt 0.93635600 0.46048500
vt 0.93635600 0.46048500
vt 0.93635600 0.46048500
vt 0.93635600 0.46048500
vt 0.56008700 0.36514800
vt 0.51005100 0.36514800
vt 0.56008700 0.42789900
vt 0.51005100 0.42789900
vt 0.54340800 0.42789900
vt 0.54340800 0.42789900
vt 0.54340800 0.42789900
vt 0.52672900 0.42789900
vt 0.52672900 0.42789900
vt 0.52672900 0.42789900
vt 0.56008700 0.38083600
vt 0.56008700 0.38083600
vt 0.56008700 0.39652300
vt 0.56008700 0.39652300
vt 0.56008700 0.39652300
vt 0.56008700 0.41221100
vt 0.51005100 0.41221100
vt 0.51005100 0.41221100
vt 0.51005100 0.39652300
vt 0.51005100 0.39652300
vt 0.51005100 0.39652300
vt 0.51005100 0.38083600
vt 0.52672900 0.36514800
vt 0.52672900 0.36514800
vt 0.52672900 0.36514800
vt 0.54340800 0.36514800
vt 0.54340800 0.36514800
vt 0.54340800 0.36514800
f 3/3/3 1/1/1 6/6/6
f 5/5/5 6/6/6 4/4/4
f 4/4/4 2/2/2 5/5/5
f 3/3/3 6/6/6 5/5/5
f 11/11/11 9/9/9 12/12/12
f 10/10/10 12/12/12 7/7/7
f 12/12/12 10/10/10 11/11/11
f 9/9/9 11/11/11 8/8/8
f 67/67/67 84/84/84 41/41/41
f 85/85/85 67/67/67 43/43/43
f 84/84/84 67/67/67 85/85/85
f 43/43/43 67/67/67 76/76/76
f 70/70/70 77/77/77 72/72/72
f 94/94/94 91/91/91 82/82/82
f 87/87/87 78/78/78 92/92/92
f 90/90/90 81/81/81 99/99/99
f 25/25/25 96/96/96 98/98/98
f 87/87/87 98/98/98 80/80/80
f 84/84/84 87/87/87 41/41/41
f 98/98/98 87/87/87 84/84/84
f 19/19/19 99/99/99 14/14/14
f 82/82/82 13/13/13 101/101/101
f 17/17/17 105/105/105 102/102/102
f 103/103/103 18/18/18 65/65/65
f 82/82/82 55/55/55 13/13/13
f 79/79/79 52/52/52 93/93/93
f 56/56/56 54/54/54 80/80/80
f 89/89/89 104/104/104 63/63/63
f 95/95/95 88/88/88 61/61/61
f 53/53/53 83/83/83 92/92/92
f 87/87/87 95/95/95 40/40/40
f 105/105/105 65/65/65 64/64/64
f 76/76/76 34/34/34 71/71/71
f 46/46/46 16/16/16 15/15/15
f 35/35/35 16/16/16 73/73/73
f 73/73/73 16/16/16 46/46/46
f 33/33/33 74/74/74 39/39/39
f 94/94/94 60/60/60 36/36/36
f 50/50/50 68/68/68 46/46/46
f 70/70/70 51/51/51 44/44/44
f 15/15/15 51/51/51 46/46/46
f 75/75/75 67/67/67 38/38/38
f 61/61/61 89/89/89 62/62/62
f 41/41/41 87/87/87 36/36/36
f 96/96/96 56/56/56 98/98/98
f 96/96/96 57/57/57 56/56/56
f 56/56/56 80/80/80 98/98/98
f 29/29/29 58/58/58 24/24/24
f 58/58/58 97/97/97 26/26/26
f 30/30/30 23/23/23 22/22/22
f 31/31/31 22/22/22 21/21/21
f 29/29/29 24/24/24 23/23/23
f 27/27/27 32/32/32 28/28/28
f 25/25/25 84/84/84 85/85/85
f 47/47/47 59/59/59 25/25/25
f 48/48/48 25/25/25 85/85/85
f 49/49/49 85/85/85 43/43/43
f 48/48/48 85/85/85 49/49/49
f 51/51/51 49/49/49 43/43/43
f 58/58/58 48/48/48 24/24/24
f 28/28/28 21/21/21 20/20/20
f 32/32/32 21/21/21 28/28/28
f 37/37/37 66/66/66 42/42/42
f 110/110/110 112/112/112 111/111/111
f 107/107/107 109/109/109 112/112/112
f 110/110/110 111/111/111 108/108/108
f 112/112/112 109/109/109 111/111/111
f 117/117/117 118/118/118 116/116/116
f 115/115/115 113/113/113 118/118/118
f 118/118/118 117/117/117 115/115/115
f 116/116/116 114/114/114 117/117/117
f 165/165/165 143/143/143 181/181/181
f 182/182/182 145/145/145 165/165/165
f 181/181/181 182/182/182 165/165/165
f 146/146/146 169/169/169 174/174/174
f 169/169/169 147/147/147 172/172/172
f 192/192/192 187/187/187 179/179/179
f 183/183/183 192/192/192 190/190/190
f 188/188/188 200/200/200 195/195/195
f 134/134/134 181/181/181 194/194/194
f 183/183/183 177/177/177 194/194/194
f 181/181/181 143/143/143 183/183/183
f 194/194/194 181/181/181 183/183/183
f 124/124/124 120/120/120 197/197/197
f 178/178/178 196/196/196 119/119/119
f 123/123/123 197/197/197 198/198/198
f 199/199/199 164/164/164 124/124/124
f 178/178/178 119/119/119 153/153/153
f 177/177/177 189/189/189 154/154/154
f 155/155/155 177/177/177 153/153/153
f 188/188/188 163/163/163 200/200/200
f 192/192/192 160/160/160 188/188/188
f 153/153/153 189/189/189 178/178/178
f 183/183/183 142/142/142 191/191/191
f 199/199/199 162/162/162 164/164/164
f 175/175/175 172/172/172 139/139/139
f 147/147/147 121/121/121 122/122/122
f 139/139/139 172/172/172 122/122/122
f 172/172/172 147/147/147 122/122/122
f 139/139/139 142/142/142 174/174/174
f 192/192/192 141/141/141 159/159/159
f 152/152/152 147/147/147 169/169/169
f 169/169/169 146/146/146 152/152/152
f 121/121/121 147/147/147 152/152/152
f 175/175/175 141/141/141 166/166/166
f 160/160/160 161/161/161 188/188/188
f 144/144/144 140/140/140 185/185/185
f 193/193/193 194/194/194 155/155/155
f 155/155/155 156/156/156 193/193/193
f 193/193/193 157/157/157 132/132/132
f 155/155/155 194/194/194 177/177/177
f 135/135/135 136/136/136 130/130/130
f 136/136/136 137/137/137 129/129/129
f 126/126/126 138/138/138 125/125/125
f 137/137/137 138/138/138 128/128/128
f 131/131/131 157/157/157 135/135/135
f 128/128/128 138/138/138 126/126/126
f 134/134/134 182/182/182 181/181/181
f 151/151/151 145/145/145 182/182/182
f 182/182/182 148/148/148 151/151/151
f 152/152/152 145/145/145 151/151/151
f 148/148/148 182/182/182 134/134/134
f 131/131/131 150/150/150 157/157/157
f 158/158/158 149/149/149 133/133/133
f 128/128/128 126/126/126 127/127/127
f 140/140/140 144/144/144 167/167/167
f 209/209/209 201/201/201 205/205/205
f 209/209/209 208/208/208 202/202/202
f 210/210/210 209/209/209 205/205/205
f 210/210/210 213/213/213 209/209/209
f 204/204/204 206/206/206 212/212/212
f 213/213/213 207/207/207 209/209/209
f 203/203/203 211/211/211 205/205/205
f 215/215/215 214/214/214 216/216/216
f 216/216/216 219/219/219 217/217/217
f 219/219/219 220/220/220 217/217/217
f 218/218/218 219/219/219 216/216/216
f 222/222/222 221/221/221 223/223/223
f 226/226/226 225/225/225 228/228/228
f 229/229/229 230/230/230 227/227/227
f 231/231/231 235/235/235 240/240/240
f 239/239/239 240/240/240 236/236/236
f 236/236/236 237/237/237 238/238/238
f 234/234/234 238/238/238 233/233/233
f 241/241/241 245/245/245 242/242/242
f 245/245/245 246/246/246 250/250/250
f 247/247/247 243/243/243 248/248/248
f 248/248/248 249/249/249 247/247/247
f 258/258/258 253/253/253 251/251/251
f 256/256/256 254/254/254 255/255/255
f 259/259/259 263/263/263 268/268/268
f 267/267/267 268/268/268 263/263/263
f 264/264/264 265/265/265 266/266/266
f 262/262/262 266/266/266 265/265/265
f 269/269/269 273/273/273 278/278/278
f 273/273/273 274/274/274 278/278/278
f 275/275/275 271/271/271 276/276/276
f 276/276/276 277/277/277 274/274/274
f 281/281/281 279/279/279 283/283/283
f 286/286/286 287/287/287 285/285/285
f 289/289/289 288/288/288 290/290/290
f 300/300/300 321/321/321 329/329/329
f 319/319/319 324/324/324 323/323/323
f 315/315/315 292/292/292 331/331/331
f 296/296/296 334/334/334 293/293/293
f 320/320/320 314/314/314 333/333/333
f 325/325/325 294/294/294 311/311/311
f 313/313/313 323/323/323 324/324/324
f 322/322/322 312/312/312 315/315/315
f 303/303/303 295/295/295 326/326/326
f 327/327/327 297/297/297 306/306/306
f 302/302/302 328/328/328 308/308/308
f 332/332/332 298/298/298 330/330/330
f 309/309/309 316/316/316 299/299/299
f 319/319/319 310/310/310 305/305/305
f 310/310/310 301/301/301 307/307/307
f 325/325/325 318/318/318 304/304/304
f 362/362/362 335/335/335 346/346/346
f 347/347/347 353/353/353 361/361/361
f 356/356/356 336/336/336 358/358/358
f 357/357/357 355/355/355 356/356/356
f 353/353/353 359/359/359 361/361/361
f 349/349/349 360/360/360 345/345/345
f 340/340/340 348/348/348 350/350/350
f 341/341/341 350/350/350 337/337/337
f 354/354/354 342/342/342 352/352/352
f 339/339/339 343/343/343 349/349/349
f 351/351/351 344/344/344 338/338/338
f 347/347/347 344/344/344 353/353/353
f 44/44/44 77/77/77 70/70/70
f 69/69/69 71/71/71 45/45/45
f 95/95/95 82/82/82 88/88/88
f 86/86/86 91/91/91 94/94/94
f 88/88/88 100/100/100 106/106/106
f 25/25/25 98/98/98 84/84/84
f 30/30/30 22/22/22 31/31/31
f 31/31/31 21/21/21 32/32/32
f 29/29/29 23/23/23 30/30/30
f 145/145/145 174/174/174 168/168/168
f 170/170/170 171/171/171 173/173/173
f 191/191/191 178/178/178 189/189/189
f 184/184/184 190/190/190 176/176/176
f 186/186/186 196/196/196 180/180/180
f 134/134/134 194/194/194 193/193/193
f 135/135/135 130/130/130 131/131/131
f 136/136/136 129/129/129 130/130/130
f 137/137/137 128/128/128 129/129/129
f 215/215/215 216/216/216 217/217/217
f 222/222/222 223/223/223 224/224/224
f 225/225/225 227/227/227 228/228/228
f 230/230/230 228/228/228 227/227/227
f 231/231/231 240/240/240 232/232/232
f 240/240/240 235/235/235 236/236/236
f 236/236/236 238/238/238 239/239/239
f 238/238/238 237/237/237 233/233/233
f 245/245/245 250/250/250 242/242/242
f 246/246/246 249/249/249 250/250/250
f 243/243/243 244/244/244 248/248/248
f 249/249/249 246/246/246 247/247/247
f 257/257/257 252/252/252 256/256/256
f 256/256/256 255/255/255 257/257/257
f 259/259/259 268/268/268 260/260/260
f 267/267/267 263/263/263 264/264/264
f 264/264/264 266/266/266 267/267/267
f 262/262/262 265/265/265 261/261/261
f 269/269/269 278/278/278 270/270/270
f 274/274/274 277/277/277 278/278/278
f 271/271/271 272/272/272 276/276/276
f 276/276/276 274/274/274 275/275/275
f 280/280/280 282/282/282 284/284/284
f 286/286/286 285/285/285 283/283/283
f 289/289/289 290/290/290 291/291/291
f 323/323/323 332/332/332 330/330/330
f 317/317/317 320/320/320 302/302/302

