mtllib material.mtl
usemtl Material-塑胶__1_.001
v -0.23651400 -0.00454000 0.07837100
v -0.23651400 -0.00454000 0.07837100
v -0.24015000 -0.00454200 0.07831800
v -0.24015000 -0.00454200 0.07831800
v -0.25832100 -0.00457000 0.07752200
v -0.25832100 -0.00457000 0.07752200
v -0.25832100 -0.00457000 0.07752200
v -0.24490000 -0.00454700 0.07818800
v -0.21300000 -0.00463500 0.07564900
v -0.21300000 -0.00454000 0.07837200
v -0.25192300 -0.00455700 0.07788800
v -0.21300000 -0.00473000 0.07292500
v -0.25800000 -0.00474000 0.07264900
v -0.21300000 -0.00482500 0.07020200
v -0.25901800 0.00446100 0.07749500
v -0.25983700 0.00434500 0.07324300
v -0.25949800 0.00433100 0.07746100
v -0.26135600 0.00328700 0.07384800
v -0.26102000 0.00345200 0.07738600
v -0.26065400 0.00387600 0.07385700
v -0.26025800 0.00399100 0.07742000
v -0.26192500 0.00258100 0.07387200
v -0.26214200 0.00197100 0.07733000
v -0.26183100 0.00250600 0.07734700
v -0.26234900 0.00177600 0.07387200
v -0.26153300 0.00291800 0.07735600
v -0.26260900 0.00090500 0.07387200
v -0.26257300 0.00033100 0.07730800
v -0.26249100 0.00088400 0.07731500
v -0.26269700 -0.00000000 0.07387200
v -0.26238400 0.00133300 0.07731400
v -0.26260100 -0.00094500 0.07387200
v -0.26234800 -0.00146400 0.07731800
v -0.26248300 -0.00092500 0.07731500
v -0.26231600 -0.00185300 0.07386400
v -0.26256000 -0.00044700 0.07730600
v -0.26128800 -0.00335400 0.07387200
v -0.26147400 -0.00299500 0.07736200
v -0.26187700 -0.00265000 0.07390300
v -0.26204600 -0.00215300 0.07732900
v -0.26181300 -0.00252600 0.07735100
v -0.26020400 -0.00401500 0.07742100
v -0.25977600 -0.00434900 0.07387200
v -0.25976900 -0.00422100 0.07745200
v -0.26057800 -0.00392700 0.07383200
v -0.26082500 -0.00361300 0.07739800
v -0.25917500 -0.00442700 0.07747800
v -0.25890600 -0.00460900 0.07385500
v -0.25832100 -0.00457000 0.07752200
v -0.25813100 0.00456900 0.07753300
v -0.25848400 0.00467100 0.07387500
v -0.25855600 0.00453700 0.07751400
v -0.25800000 0.00474000 0.07264900
v -0.25800000 0.00482500 0.07020200
v -0.25895800 0.00466400 0.07203700
v -0.26009400 0.00434800 0.07020200
v -0.26177300 0.00300900 0.07020200
v -0.26270400 0.00107400 0.07020200
v -0.26270400 -0.00107400 0.07020200
v -0.26177300 -0.00300900 0.07020200
v -0.26009400 -0.00434800 0.07020200
v -0.25800000 -0.00474000 0.07264900
v -0.25800000 -0.00482500 0.07020200
v -0.21300000 0.00482500 0.07020200
v -0.25800000 0.00482500 0.07020200
v -0.25800000 0.00474000 0.07264900
v -0.25813100 0.00456900 0.07753300
v -0.25813100 0.00456900 0.07753300
v -0.25813100 0.00456900 0.07753300
v -0.23757800 0.00454000 0.07836800
v -0.23757800 0.00454000 0.07836800
v -0.21300000 0.00473000 0.07292500
v -0.24294700 0.00454400 0.07824900
v -0.24294700 0.00454400 0.07824900
v -0.24823800 0.00455100 0.07805900
v -0.24823800 0.00455100 0.07805900
v -0.21300000 0.00463500 0.07564900
v -0.25412900 0.00456100 0.07776800
v -0.21300000 0.00454000 0.07837200
v -0.21300000 -0.00463500 0.07564900
v -0.21172100 -0.00435600 0.07837200
v -0.21300000 -0.00454000 0.07837200
v -0.21115400 -0.00430300 0.07428700
v -0.21054500 -0.00381900 0.07837200
v -0.20887000 -0.00188600 0.07837200
v -0.20956900 -0.00297300 0.07837200
v -0.20866500 -0.00177100 0.07428700
v -0.20850600 -0.00064600 0.07837200
v -0.21090600 -0.00434800 0.07020200
v -0.21300000 -0.00473000 0.07292500
v -0.21300000 -0.00482500 0.07020200
v -0.20922700 -0.00300900 0.07020200
v -0.20829600 -0.00107400 0.07020200
v -0.20831700 -0.00000000 0.07428700
v -0.20829600 0.00107400 0.07020200
v -0.20869700 0.00184600 0.07428700
v -0.20850600 0.00064600 0.07837200
v -0.20887000 0.00188600 0.07837200
v -0.20956900 0.00297300 0.07837200
v -0.21172100 0.00435600 0.07837200
v -0.21054500 0.00381900 0.07837200
v -0.21122900 0.00433500 0.07428700
v -0.21300000 0.00463500 0.07564900
v -0.21300000 0.00454000 0.07837200
v -0.20972200 0.00334400 0.07428700
v -0.20922700 0.00300900 0.07020200
v -0.21090600 0.00434800 0.07020200
v -0.21300000 0.00473000 0.07292500
v -0.21300000 0.00482500 0.07020200
v -0.24078900 -0.00376400 0.07913500
v -0.24078900 -0.00376400 0.07913500
v -0.24015000 -0.00454200 0.07831800
v -0.23757500 -0.00376100 0.07919000
v -0.23651400 -0.00454000 0.07837100
v -0.23651400 -0.00454000 0.07837100
v -0.25431500 -0.00378100 0.07858900
v -0.25431500 -0.00378100 0.07858900
v -0.25653500 -0.00378800 0.07846200
v -0.25192300 -0.00455700 0.07788800
v -0.25114800 -0.00377800 0.07875300
v -0.25114800 -0.00377800 0.07875300
v -0.24928500 -0.00377400 0.07884000
v -0.24770900 -0.00377300 0.07890900
v -0.24770900 -0.00377300 0.07890900
v -0.24770900 -0.00377300 0.07890900
v -0.24490000 -0.00454700 0.07818800
v -0.24547500 -0.00376900 0.07899600
v -0.24170200 -0.00376300 0.07911300
v -0.24170200 -0.00376300 0.07911300
v -0.24348900 -0.00376600 0.07906200
v -0.23855000 -0.00344000 0.07917800
v -0.25848300 -0.00378100 0.07834600
v -0.25832100 -0.00457000 0.07752200
v -0.23495900 -0.00375800 0.07920400
v -0.23641700 -0.00375700 0.07920000
v -0.23641700 -0.00375700 0.07920000
v -0.21300000 -0.00454000 0.07837200
v -0.21300000 -0.00454000 0.07837200
v -0.23495900 -0.00375800 0.07920400
v -0.23495900 -0.00375800 0.07920400
v -0.23651400 -0.00454000 0.07837100
v -0.21300000 -0.00375800 0.07920400
v -0.25979700 0.00385300 0.07780000
v -0.25946100 0.00352100 0.07828600
v -0.25949800 0.00433100 0.07746100
v -0.26072500 -0.00270600 0.07820600
v -0.26082500 -0.00361300 0.07739800
v -0.26011500 -0.00318400 0.07824700
v -0.25855600 0.00453700 0.07751400
v -0.25901800 0.00446100 0.07749500
v -0.25874400 0.00373200 0.07832900
v -0.26102000 0.00345200 0.07738600
v -0.26064900 0.00328000 0.07779900
v -0.26025800 0.00399100 0.07742000
v -0.26183100 0.00250600 0.07734700
v -0.26214200 0.00197100 0.07733000
v -0.26140200 0.00179100 0.07816800
v -0.26119700 0.00212400 0.07818100
v -0.26153300 0.00291800 0.07735600
v -0.26238400 0.00133300 0.07731400
v -0.26156700 0.00144200 0.07815800
v -0.26177800 0.00074200 0.07814500
v -0.26249100 0.00088400 0.07731500
v -0.26147400 -0.00299500 0.07736200
v -0.26121200 -0.00210600 0.07818000
v -0.26181300 -0.00252600 0.07735100
v -0.26204600 -0.00215300 0.07732900
v -0.26145900 -0.00169500 0.07816500
v -0.26256000 -0.00044700 0.07730600
v -0.26248300 -0.00092500 0.07731500
v -0.26177900 -0.00074000 0.07814500
v -0.26234800 -0.00146400 0.07731800
v -0.26189100 -0.00146200 0.07781100
v -0.25889400 -0.00406900 0.07793900
v -0.25917500 -0.00442700 0.07747800
v -0.25832100 -0.00457000 0.07752200
v -0.26020400 -0.00401500 0.07742100
v -0.26257300 0.00033100 0.07730800
v -0.25976900 -0.00422100 0.07745200
v -0.25969500 -0.00378400 0.07792600
v -0.26185200 0.00000300 0.07814100
v -0.26003500 0.00324800 0.07825100
v -0.26076400 0.00266200 0.07820500
v -0.25829400 0.00378700 0.07835700
v -0.25813100 0.00456900 0.07753300
v -0.25950600 -0.00350500 0.07828400
v -0.25848300 -0.00378100 0.07834600
v -0.23495900 0.00375800 0.07920400
v -0.21300000 0.00375800 0.07920400
v -0.21300000 0.00454000 0.07837200
v -0.23757800 0.00454000 0.07836800
v -0.25537800 0.00378500 0.07852900
v -0.25412900 0.00456100 0.07776800
v -0.25412900 0.00456100 0.07776800
v -0.25653600 0.00378800 0.07846200
v -0.25653600 0.00378800 0.07846200
v -0.25653600 0.00378800 0.07846200
v -0.24823800 0.00455100 0.07805900
v -0.24823800 0.00455100 0.07805900
v -0.25246700 0.00378000 0.07868700
v -0.25246700 0.00378000 0.07868700
v -0.25075700 0.00377700 0.07877100
v -0.25075700 0.00377700 0.07877100
v -0.24294700 0.00454400 0.07824900
v -0.24294700 0.00454400 0.07824900
v -0.24016400 0.00376200 0.07914900
v -0.23757800 0.00454000 0.07836800
v -0.24178800 0.00376300 0.07911100
v -0.24349000 0.00376600 0.07906200
v -0.24497000 0.00376800 0.07901300
v -0.24497000 0.00376800 0.07901300
v -0.24761100 0.00377300 0.07891300
v -0.23635700 0.00375900 0.07919900
v -0.23813600 0.00376100 0.07918200
v -0.25829400 0.00378700 0.07835700
v -0.25813100 0.00456900 0.07753300
v -0.25813100 0.00456900 0.07753300
v -0.23495900 0.00375800 0.07920400
v -0.21300000 -0.00375800 0.07920400
v -0.21300000 -0.00454000 0.07837200
v -0.21172100 -0.00435600 0.07837200
v -0.21058400 -0.00287900 0.07920400
v -0.20956900 -0.00297300 0.07837200
v -0.20974600 -0.00187900 0.07920400
v -0.20887000 -0.00188600 0.07837200
v -0.20929900 -0.00065300 0.07920400
v -0.21171500 -0.00353100 0.07920400
v -0.21054500 -0.00381900 0.07837200
v -0.20850600 -0.00064600 0.07837200
v -0.20850600 0.00064600 0.07837200
v -0.20929900 0.00065300 0.07920400
v -0.20887000 0.00188600 0.07837200
v -0.21058400 0.00287900 0.07920400
v -0.21054500 0.00381900 0.07837200
v -0.21171500 0.00353100 0.07920400
v -0.21172100 0.00435600 0.07837200
v -0.21300000 0.00375800 0.07920400
v -0.20974600 0.00187900 0.07920400
v -0.20956900 0.00297300 0.07837200
v -0.23602400 0.00343800 0.07920200
v -0.23733500 0.00337300 0.07919200
v -0.23609200 0.00295000 0.07920200
v -0.23609200 0.00295000 0.07920200
v -0.23921200 0.00221400 0.07916900
v -0.23921200 0.00221400 0.07916900
v -0.23820500 0.00212900 0.07918400
v -0.23820500 0.00212900 0.07918400
v -0.23815400 0.00266600 0.07918400
v -0.23815400 0.00266600 0.07918400
v -0.23915900 0.00277300 0.07916900
v -0.23915900 0.00277300 0.07916900
v -0.23855600 0.00337300 0.07917700
v -0.23855600 0.00337300 0.07917700
v -0.23855600 0.00337300 0.07917700
v -0.23945400 0.00339600 0.07916200
v -0.23716300 0.00256100 0.07919500
v -0.23716300 0.00256100 0.07919500
v -0.23716300 0.00256100 0.07919500
v -0.23716300 0.00256100 0.07919500
v -0.23721200 0.00204500 0.07919500
v -0.23721200 0.00204500 0.07919500
v -0.24069700 0.00319900 0.07913800
v -0.24069700 0.00319900 0.07913800
v -0.24069700 0.00319900 0.07913800
v -0.24069700 0.00319900 0.07913800
v -0.24023400 0.00230100 0.07914900
v -0.24023400 0.00230100 0.07914900
v -0.24023400 0.00230100 0.07914900
v -0.24017000 0.00295900 0.07914900
v -0.24017000 0.00295900 0.07914900
v -0.24127100 0.00238800 0.07912600
v -0.24127100 0.00238800 0.07912600
v -0.24127100 0.00238800 0.07912600
v -0.24176800 0.00328100 0.07911200
v -0.24176800 0.00328100 0.07911200
v -0.24176800 0.00328100 0.07911200
v -0.24016400 0.00376200 0.07914900
v -0.24016400 0.00376200 0.07914900
v -0.24429600 0.00264600 0.07904000
v -0.24429600 0.00264600 0.07904000
v -0.24429600 0.00264600 0.07904000
v -0.24429600 0.00264600 0.07904000
v -0.24227800 0.00247400 0.07910000
v -0.24323700 0.00320600 0.07907100
v -0.24323700 0.00320600 0.07907100
v -0.24323700 0.00320600 0.07907100
v -0.24323700 0.00320600 0.07907100
v -0.24178800 0.00376300 0.07911100
v -0.24178800 0.00376300 0.07911100
v -0.24560400 0.00296800 0.07899400
v -0.24560400 0.00296800 0.07899400
v -0.24560400 0.00296800 0.07899400
v -0.24424400 0.00331300 0.07903900
v -0.24573800 0.00349700 0.07898700
v -0.24573800 0.00349700 0.07898700
v -0.24761100 0.00377300 0.07891300
v -0.24761100 0.00377300 0.07891300
v -0.24833300 0.00298600 0.07888500
v -0.24833300 0.00298600 0.07888500
v -0.24681700 0.00312400 0.07894700
v -0.24681700 0.00312400 0.07894700
v -0.23727400 0.00101500 0.07920300
v -0.23928300 0.00109900 0.07916900
v -0.23928300 0.00109900 0.07916900
v -0.24134700 0.00118500 0.07912600
v -0.24134700 0.00118500 0.07912600
v -0.24338000 0.00127100 0.07907100
v -0.24338000 0.00127100 0.07907100
v -0.24338000 0.00127100 0.07907100
v -0.24537900 0.00204100 0.07900400
v -0.24537900 0.00204100 0.07900400
v -0.24541500 0.00135600 0.07900400
v -0.24541500 0.00135600 0.07900400
v -0.24745300 0.00144100 0.07892600
v -0.24745300 0.00144100 0.07892600
v -0.24642900 0.00139800 0.07896600
v -0.24642900 0.00139800 0.07896600
v -0.24741400 0.00217000 0.07892600
v -0.24741400 0.00217000 0.07892600
v -0.24741400 0.00217000 0.07892600
v -0.24639100 0.00210500 0.07896600
v -0.24639100 0.00210500 0.07896600
v -0.24639100 0.00210500 0.07896600
v -0.24639100 0.00210500 0.07896600
v -0.24937200 0.00229300 0.07884200
v -0.24937200 0.00229300 0.07884200
v -0.24937200 0.00229300 0.07884200
v -0.24931500 0.00306900 0.07884200
v -0.24931500 0.00306900 0.07884200
v -0.25140600 0.00160700 0.07874700
v -0.25140600 0.00160700 0.07874700
v -0.25140600 0.00160700 0.07874700
v -0.25039300 0.00156200 0.07879700
v -0.25036300 0.00235600 0.07879600
v -0.25036300 0.00235600 0.07879600
v -0.25142900 0.00303200 0.07874200
v -0.25142900 0.00303200 0.07874200
v -0.25207100 0.00259000 0.07871200
v -0.25207100 0.00259000 0.07871200
v -0.25207100 0.00259000 0.07871200
v -0.25207100 0.00259000 0.07871200
v -0.25030400 0.00315300 0.07879600
v -0.25030400 0.00315300 0.07879600
v -0.25030400 0.00315300 0.07879600
v -0.25030400 0.00315300 0.07879600
v -0.25307200 0.00252800 0.07866000
v -0.25307200 0.00252800 0.07866000
v -0.25241700 0.00164800 0.07869700
v -0.25241700 0.00164800 0.07869700
v -0.25241700 0.00164800 0.07869700
v -0.25246700 0.00378000 0.07868700
v -0.25246700 0.00378000 0.07868700
v -0.25548600 0.00177800 0.07853000
v -0.25548600 0.00177800 0.07853000
v -0.25445500 0.00173400 0.07858800
v -0.25445500 0.00173400 0.07858800
v -0.25543900 0.00267600 0.07853000
v -0.25543900 0.00267600 0.07853000
v -0.25543900 0.00267600 0.07853000
v -0.25543900 0.00267600 0.07853000
v -0.25440900 0.00261100 0.07858800
v -0.25440900 0.00261100 0.07858800
v -0.25440900 0.00261100 0.07858800
v -0.25440900 0.00261100 0.07858800
v -0.25537800 0.00378500 0.07852900
v -0.25537800 0.00378500 0.07852900
v -0.25537800 0.00378500 0.07852900
v -0.25333500 0.00313100 0.07864400
v -0.25333500 0.00313100 0.07864400
v -0.25404000 0.00378300 0.07860300
v -0.25404000 0.00378300 0.07860300
v -0.25967700 0.00195300 0.07827900
v -0.25967700 0.00195300 0.07827900
v -0.25860000 0.00191100 0.07834700
v -0.25860000 0.00191100 0.07834700
v -0.25860000 0.00191100 0.07834700
v -0.25856900 0.00287400 0.07834500
v -0.25856900 0.00287400 0.07834500
v -0.25856900 0.00287400 0.07834500
v -0.25856900 0.00287400 0.07834500
v -0.23930600 0.00000000 0.07916900
v -0.23729500 -0.00000000 0.07920200
v -0.24137200 0.00000000 0.07912600
v -0.24340700 0.00000000 0.07907100
v -0.24544300 0.00000000 0.07900400
v -0.24748300 0.00000000 0.07892600
v -0.24944400 0.00000000 0.07884200
v -0.24944400 0.00000000 0.07884200
v -0.25143900 0.00000000 0.07874700
v -0.25143900 0.00000000 0.07874700
v -0.25346600 0.00000000 0.07864300
v -0.25346600 0.00000000 0.07864300
v -0.25346600 0.00000000 0.07864300
v -0.25552300 0.00000000 0.07853000
v -0.25552300 0.00000000 0.07853000
v -0.25760700 0.00000000 0.07840900
v -0.25760700 0.00000000 0.07840900
v -0.25760700 0.00000000 0.07840900
v -0.25970800 0.00097300 0.07827900
v -0.25970800 0.00097300 0.07827900
v -0.25970800 0.00097300 0.07827900
v -0.25971800 0.00000000 0.07827900
v -0.25971800 0.00000000 0.07827900
v -0.25971800 0.00000000 0.07827900
v -0.25971800 0.00000000 0.07827900
v -0.26077100 0.00099500 0.07821100
v -0.26077100 0.00099500 0.07821100
v -0.26077100 0.00099500 0.07821100
v -0.26077100 0.00099500 0.07821100
v -0.26077100 0.00099500 0.07821100
v -0.26077100 0.00099500 0.07821100
v -0.26119700 0.00212400 0.07818100
v -0.26119700 0.00212400 0.07818100
v -0.26078200 0.00000000 0.07821100
v -0.26078200 0.00000000 0.07821100
v -0.26078200 0.00000000 0.07821100
v -0.26078200 0.00000000 0.07821100
v -0.23928200 -0.00111300 0.07916900
v -0.23727300 -0.00102800 0.07920300
v -0.23727300 -0.00102800 0.07920300
v -0.24134600 -0.00120100 0.07912600
v -0.24134600 -0.00120100 0.07912600
v -0.24337900 -0.00128700 0.07907100
v -0.24337900 -0.00128700 0.07907100
v -0.24337900 -0.00128700 0.07907100
v -0.24541400 -0.00137300 0.07900400
v -0.24541400 -0.00137300 0.07900400
v -0.24642800 -0.00141600 0.07896600
v -0.24642800 -0.00141600 0.07896600
v -0.24642800 -0.00141600 0.07896600
v -0.24745200 -0.00146000 0.07892600
v -0.24745200 -0.00146000 0.07892600
v -0.24941100 -0.00154300 0.07884200
v -0.25040400 -0.00158500 0.07879600
v -0.25040400 -0.00158500 0.07879600
v -0.25140500 -0.00162700 0.07874700
v -0.25140500 -0.00162700 0.07874700
v -0.25241300 -0.00167000 0.07869600
v -0.25241300 -0.00167000 0.07869600
v -0.25241300 -0.00167000 0.07869600
v -0.25343000 -0.00171300 0.07864300
v -0.25343000 -0.00171300 0.07864300
v -0.25343000 -0.00171300 0.07864300
v -0.25343000 -0.00171300 0.07864300
v -0.25445400 -0.00175700 0.07858800
v -0.25445400 -0.00175700 0.07858800
v -0.25445400 -0.00175700 0.07858800
v -0.25548500 -0.00180000 0.07853000
v -0.25548500 -0.00180000 0.07853000
v -0.25860100 -0.00193700 0.07834600
v -0.25860100 -0.00193700 0.07834600
v -0.25970700 -0.00098500 0.07827900
v -0.25970700 -0.00098500 0.07827900
v -0.25970700 -0.00098500 0.07827900
v -0.25970700 -0.00098500 0.07827900
v -0.25967600 -0.00197800 0.07827900
v -0.25967600 -0.00197800 0.07827900
v -0.26077100 -0.00100800 0.07821100
v -0.26077100 -0.00100800 0.07821100
v -0.26077100 -0.00100800 0.07821100
v -0.26077100 -0.00100800 0.07821100
v -0.26077100 -0.00100800 0.07821100
v -0.26121200 -0.00210600 0.07818000
v -0.23820500 -0.00212900 0.07918400
v -0.23820500 -0.00212900 0.07918400
v -0.23921200 -0.00221400 0.07916900
v -0.23921200 -0.00221400 0.07916900
v -0.23721200 -0.00204500 0.07919500
v -0.23721200 -0.00204500 0.07919500
v -0.24023400 -0.00230100 0.07914900
v -0.24023400 -0.00230100 0.07914900
v -0.24127100 -0.00238800 0.07912600
v -0.24127100 -0.00238800 0.07912600
v -0.24227800 -0.00247400 0.07910000
v -0.24227800 -0.00247400 0.07910000
v -0.24329900 -0.00256000 0.07907100
v -0.24329900 -0.00256000 0.07907100
v -0.24329900 -0.00256000 0.07907100
v -0.24430800 -0.00264500 0.07903900
v -0.24430800 -0.00264500 0.07903900
v -0.24430800 -0.00264500 0.07903900
v -0.24537800 -0.00205000 0.07900400
v -0.24565600 -0.00299400 0.07899200
v -0.24565600 -0.00299400 0.07899200
v -0.24639100 -0.00211400 0.07896600
v -0.24639100 -0.00211400 0.07896600
v -0.24639100 -0.00211400 0.07896600
v -0.24702900 -0.00304300 0.07893900
v -0.24702900 -0.00304300 0.07893900
v -0.24702900 -0.00304300 0.07893900
v -0.24741400 -0.00217900 0.07892600
v -0.24741400 -0.00217900 0.07892600
v -0.24741400 -0.00217900 0.07892600
v -0.24937100 -0.00230300 0.07884200
v -0.24937100 -0.00230300 0.07884200
v -0.24833300 -0.00298600 0.07888500
v -0.24833300 -0.00298600 0.07888500
v -0.25029000 -0.00315100 0.07879700
v -0.25029000 -0.00315100 0.07879700
v -0.25029000 -0.00315100 0.07879700
v -0.25181100 -0.00283600 0.07872400
v -0.25181100 -0.00283600 0.07872400
v -0.25181100 -0.00283600 0.07872400
v -0.25181100 -0.00283600 0.07872400
v -0.25036300 -0.00236600 0.07879600
v -0.25036300 -0.00236600 0.07879600
v -0.25036300 -0.00236600 0.07879600
v -0.25136200 -0.00243000 0.07874700
v -0.25136200 -0.00243000 0.07874700
v -0.25136200 -0.00243000 0.07874700
v -0.25238700 -0.00341500 0.07869300
v -0.25238700 -0.00341500 0.07869300
v -0.25238700 -0.00341500 0.07869300
v -0.25307200 -0.00282000 0.07865900
v -0.25307200 -0.00282000 0.07865900
v -0.25307200 -0.00282000 0.07865900
v -0.25543800 -0.00268800 0.07853000
v -0.25543800 -0.00268800 0.07853000
v -0.25543800 -0.00268800 0.07853000
v -0.25543800 -0.00268800 0.07853000
v -0.25440800 -0.00262300 0.07858800
v -0.25440800 -0.00262300 0.07858800
v -0.25440800 -0.00262300 0.07858800
v -0.25431500 -0.00378100 0.07858900
v -0.25431500 -0.00378100 0.07858900
v -0.26011500 -0.00318400 0.07824700
v -0.26011500 -0.00318400 0.07824700
v -0.26011500 -0.00318400 0.07824700
v -0.25759000 -0.00283700 0.07840500
v -0.25759000 -0.00283700 0.07840500
v -0.25759000 -0.00283700 0.07840500
v -0.23855000 -0.00344000 0.07917800
v -0.23855000 -0.00344000 0.07917800
v -0.23916000 -0.00276600 0.07916900
v -0.23916000 -0.00276600 0.07916900
v -0.23979400 -0.00342000 0.07915600
v -0.23979400 -0.00342000 0.07915600
v -0.23979400 -0.00342000 0.07915600
v -0.23815400 -0.00266000 0.07918400
v -0.23815400 -0.00266000 0.07918400
v -0.23736200 -0.00323700 0.07919200
v -0.23716400 -0.00255500 0.07919500
v -0.23716400 -0.00255500 0.07919500
v -0.24078900 -0.00376400 0.07913500
v -0.24078900 -0.00376400 0.07913500
v -0.24149000 -0.00307500 0.07911900
v -0.24149000 -0.00307500 0.07911900
v -0.24149000 -0.00307500 0.07911900
v -0.24149000 -0.00307500 0.07911900
v -0.24170200 -0.00376300 0.07911300
v -0.24170200 -0.00376300 0.07911300
v -0.24051900 -0.00298400 0.07914200
v -0.24051900 -0.00298400 0.07914200
v -0.24051900 -0.00298400 0.07914200
v -0.24323800 -0.00319800 0.07907100
v -0.24323800 -0.00319800 0.07907100
v -0.24222200 -0.00326200 0.07910000
v -0.24222200 -0.00326200 0.07910000
v -0.24222200 -0.00326200 0.07910000
v -0.24222200 -0.00326200 0.07910000
v -0.24424500 -0.00330500 0.07903900
v -0.24647900 -0.00333200 0.07896000
v -0.24647900 -0.00333200 0.07896000
v -0.24647900 -0.00333200 0.07896000
v -0.24770900 -0.00377300 0.07890900
v -0.23641700 -0.00375700 0.07920000
v -0.23641700 -0.00375700 0.07920000
v -0.23757500 -0.00376100 0.07919000
v -0.23609400 -0.00293900 0.07920200
v -0.23602500 -0.00343200 0.07920200
v -0.23495900 0.00375800 0.07920400
v -0.23635700 0.00375900 0.07919900
v -0.23510100 0.00280300 0.07920400
v -0.23813600 0.00376100 0.07918200
v -0.23813600 0.00376100 0.07918200
v -0.23520100 0.00185700 0.07920400
v -0.24349000 0.00376600 0.07906200
v -0.24349000 0.00376600 0.07906200
v -0.24497000 0.00376800 0.07901300
v -0.24497000 0.00376800 0.07901300
v -0.24928500 0.00377500 0.07884000
v -0.24928500 0.00377500 0.07884000
v -0.25075700 0.00377700 0.07877100
v -0.25075700 0.00377700 0.07877100
v -0.25075700 0.00377700 0.07877100
v -0.25751900 0.00280800 0.07840900
v -0.25751900 0.00280800 0.07840900
v -0.25751900 0.00280800 0.07840900
v -0.25653600 0.00378800 0.07846200
v -0.25653600 0.00378800 0.07846200
v -0.25829400 0.00378700 0.07835700
v -0.25829400 0.00378700 0.07835700
v -0.25874400 0.00373200 0.07832900
v -0.25874400 0.00373200 0.07832900
v -0.25946100 0.00352100 0.07828600
v -0.25946100 0.00352100 0.07828600
v -0.26076400 0.00266200 0.07820500
v -0.26003500 0.00324800 0.07825100
v -0.26003500 0.00324800 0.07825100
v -0.26140200 0.00179100 0.07816800
v -0.26140200 0.00179100 0.07816800
v -0.26177900 -0.00074000 0.07814500
v -0.26177900 -0.00074000 0.07814500
v -0.26177800 0.00074200 0.07814500
v -0.26156700 0.00144200 0.07815800
v -0.26156700 0.00144200 0.07815800
v -0.26185200 0.00000300 0.07814100
v -0.26185200 0.00000300 0.07814100
v -0.26145900 -0.00169500 0.07816500
v -0.26145900 -0.00169500 0.07816500
v -0.23520100 -0.00185700 0.07920400
v -0.23510100 -0.00280300 0.07920400
v -0.24348900 -0.00376600 0.07906200
v -0.24348900 -0.00376600 0.07906200
v -0.24547500 -0.00376900 0.07899600
v -0.23495900 -0.00375800 0.07920400
v -0.25114800 -0.00377800 0.07875300
v -0.25114800 -0.00377800 0.07875300
v -0.24928500 -0.00377400 0.07884000
v -0.26072500 -0.00270600 0.07820600
v -0.25848300 -0.00378100 0.07834600
v -0.25848300 -0.00378100 0.07834600
v -0.25653500 -0.00378800 0.07846200
v -0.25653500 -0.00378800 0.07846200
v -0.25653500 -0.00378800 0.07846200
v -0.25950600 -0.00350500 0.07828400
v -0.25950600 -0.00350500 0.07828400
v -0.21058400 0.00287900 0.07920400
v -0.21171500 0.00353100 0.07920400
v -0.21300000 0.00375800 0.07920400
v -0.21300000 0.00375800 0.07920400
v -0.20974600 0.00187900 0.07920400
v -0.20974600 0.00187900 0.07920400
v -0.20929900 0.00065300 0.07920400
v -0.20929900 0.00065300 0.07920400
v -0.20929900 0.00065300 0.07920400
v -0.23727400 0.00101500 0.07920300
v -0.23727400 0.00101500 0.07920300
v -0.23510100 0.00280300 0.07920400
v -0.23495900 0.00375800 0.07920400
v -0.23520100 0.00185700 0.07920400
v -0.23729500 -0.00000000 0.07920200
v -0.23729500 -0.00000000 0.07920200
v -0.20974600 -0.00187900 0.07920400
v -0.20974600 -0.00187900 0.07920400
v -0.20929900 -0.00065300 0.07920400
v -0.20929900 -0.00065300 0.07920400
v -0.20929900 -0.00065300 0.07920400
v -0.23727300 -0.00102800 0.07920300
v -0.23727300 -0.00102800 0.07920300
v -0.23727300 -0.00102800 0.07920300
v -0.21300000 -0.00375800 0.07920400
v -0.21300000 -0.00375800 0.07920400
v -0.21171500 -0.00353100 0.07920400
v -0.21058400 -0.00287900 0.07920400
v -0.23520100 -0.00185700 0.07920400
v -0.23510100 -0.00280300 0.07920400
v -0.23495900 -0.00375800 0.07920400
v -0.20922700 -0.00300900 0.07020200
v -0.21090600 -0.00434800 0.07020200
v -0.21300000 -0.00482500 0.07020200
v -0.26177300 -0.00300900 0.07020200
v -0.20829600 -0.00107400 0.07020200
v -0.26270400 -0.00107400 0.07020200
v -0.25800000 -0.00482500 0.07020200
v -0.26009400 -0.00434800 0.07020200
v -0.20829600 0.00107400 0.07020200
v -0.20922700 0.00300900 0.07020200
v -0.26177300 0.00300900 0.07020200
v -0.21300000 0.00482500 0.07020200
v -0.21090600 0.00434800 0.07020200
v -0.25800000 0.00482500 0.07020200
v -0.26270400 0.00107400 0.07020200
v -0.26009400 0.00434800 0.07020200
v -0.25800000 -0.00482500 0.07020200
v -0.25404000 0.00378300 0.07860300
v -0.24928500 0.00377500 0.07884000
v -0.21300000 0.00454000 0.07837200
vn 0.00000000 -0.99940000 0.03450000
vn -0.00000000 -0.99940000 0.03490000
vn 0.00000000 -0.99940000 0.03450000
vn 0.00000000 -0.99940000 0.03480000
vn 0.00000000 -0.99940000 0.03450000
vn 0.00000000 -0.99940000 0.03480000
vn -0.00000000 -0.99940000 0.03490000
vn 0.00000000 -0.99940000 0.03480000
vn -0.00000000 -0.99940000 0.03490000
vn -0.00000000 -0.99940000 0.03490000
vn 0.00000000 -0.99940000 0.03480000
vn -0.00000000 -0.99940000 0.03490000
vn -0.00000000 -0.99940000 0.03490000
vn -0.00000000 -0.99940000 0.03490000
vn -0.22240000 0.97430000 0.03490000
vn -0.38920000 0.92050000 0.03480000
vn -0.32650000 0.94460000 0.03480000
vn -0.71400000 0.69930000 0.03490000
vn -0.65790000 0.75230000 0.03480000
vn -0.56460000 0.82460000 0.03490000
vn -0.49210000 0.86990000 0.03480000
vn -0.83510000 0.54900000 0.03490000
vn -0.90230000 0.42970000 0.03480000
vn -0.83630000 0.54710000 0.03490000
vn -0.92520000 0.37790000 0.03490000
vn -0.77070000 0.63620000 0.03480000
vn -0.98070000 0.19260000 0.03490000
vn -0.99680000 0.07220000 0.03480000
vn -0.98060000 0.19290000 0.03490000
vn -0.99940000 -0.00000000 0.03490000
vn -0.95620000 0.29080000 0.03490000
vn -0.97890000 -0.20110000 0.03490000
vn -0.94720000 -0.31860000 0.03490000
vn -0.97880000 -0.20200000 0.03490000
vn -0.91830000 -0.39430000 0.03490000
vn -0.99460000 -0.09750000 0.03490000
vn -0.69960000 -0.71370000 0.03490000
vn -0.75700000 -0.65250000 0.03480000
vn -0.82500000 -0.56400000 0.03490000
vn -0.88210000 -0.46980000 0.03480000
vn -0.83320000 -0.55190000 0.03490000
vn -0.48080000 -0.87620000 0.03480000
vn -0.37790000 -0.92520000 0.03490000
vn -0.38630000 -0.92170000 0.03490000
vn -0.54840000 -0.83550000 0.03490000
vn -0.61570000 -0.78720000 0.03480000
vn -0.25660000 -0.96590000 0.03470000
vn -0.19270000 -0.98060000 0.03490000
vn -0.06990000 -0.99690000 0.03490000
vn -0.02860000 0.99900000 0.03490000
vn -0.10300000 0.99410000 0.03490000
vn -0.12160000 0.99200000 0.03490000
vn 0.00000000 0.99940000 0.03490000
vn 0.00000000 0.99940000 0.03490000
vn -0.20110000 0.97890000 0.03490000
vn -0.43360000 0.90040000 0.03490000
vn -0.78130000 0.62310000 0.03490000
vn -0.97430000 0.22240000 0.03490000
vn -0.97430000 -0.22240000 0.03490000
vn -0.78140000 -0.62310000 0.03490000
vn -0.43360000 -0.90040000 0.03490000
vn -0.00000000 -0.99940000 0.03490000
vn -0.00000000 -0.99940000 0.03490000
vn 0.00000000 0.99940000 0.03490000
vn 0.00000000 0.99940000 0.03490000
vn 0.00000000 0.99940000 0.03490000
vn 0.00000000 0.99940000 0.03490000
vn 0.00000000 0.99940000 0.03450000
vn -0.00000000 0.99940000 0.03500000
vn -0.00000000 0.99940000 0.03500000
vn 0.00000000 0.99940000 0.03490000
vn 0.00000000 0.99940000 0.03490000
vn -0.00000000 0.99940000 0.03500000
vn 0.00000000 0.99940000 0.03490000
vn 0.00000000 0.99940000 0.03490000
vn 0.00000000 0.99940000 0.03450000
vn 0.00000000 0.99940000 0.03490000
vn 0.00000000 0.99940000 0.03450000
vn 0.00000000 0.99940000 0.03490000
vn -0.00000000 -0.99940000 0.03490000
vn 0.28160000 -0.95890000 0.03490000
vn -0.00000000 -0.99940000 0.03490000
vn 0.39410000 -0.91840000 0.03490000
vn 0.54030000 -0.84070000 0.03490000
vn 0.90910000 -0.41510000 0.03490000
vn 0.75530000 -0.65450000 0.03490000
vn 0.92520000 -0.37790000 0.03490000
vn 0.98920000 -0.14220000 0.03490000
vn 0.43360000 -0.90040000 0.03490000
vn -0.00000000 -0.99940000 0.03490000
vn -0.00000000 -0.99940000 0.03490000
vn 0.78130000 -0.62310000 0.03490000
vn 0.97430000 -0.22240000 0.03490000
vn 0.99940000 0.00000000 0.03490000
vn 0.97430000 0.22240000 0.03490000
vn 0.91840000 0.39400000 0.03490000
vn 0.98920000 0.14220000 0.03490000
vn 0.90910000 0.41520000 0.03490000
vn 0.75530000 0.65450000 0.03490000
vn 0.28160000 0.95890000 0.03490000
vn 0.54030000 0.84070000 0.03490000
vn 0.37790000 0.92520000 0.03490000
vn 0.00000000 0.99940000 0.03490000
vn 0.00000000 0.99940000 0.03490000
vn 0.69970000 0.71360000 0.03490000
vn 0.78140000 0.62310000 0.03490000
vn 0.43360000 0.90040000 0.03490000
vn 0.00000000 0.99940000 0.03490000
vn 0.00000000 0.99940000 0.03490000
vn -0.01470000 -0.72960000 0.68370000
vn -0.01480000 -0.72960000 0.68370000
vn -0.01360000 -0.72950000 0.68380000
vn -0.00710000 -0.72910000 0.68440000
vn -0.00460000 -0.72880000 0.68470000
vn -0.00460000 -0.72890000 0.68470000
vn -0.03610000 -0.73030000 0.68220000
vn -0.03590000 -0.73030000 0.68220000
vn -0.03830000 -0.73040000 0.68200000
vn -0.03330000 -0.73030000 0.68230000
vn -0.03210000 -0.73020000 0.68240000
vn -0.03200000 -0.73020000 0.68250000
vn -0.02950000 -0.73020000 0.68260000
vn -0.02730000 -0.73010000 0.68280000
vn -0.02720000 -0.73010000 0.68280000
vn -0.02730000 -0.73010000 0.68270000
vn -0.02300000 -0.73000000 0.68310000
vn -0.02370000 -0.73000000 0.68300000
vn -0.01660000 -0.72970000 0.68360000
vn -0.01660000 -0.72980000 0.68350000
vn -0.02010000 -0.72990000 0.68330000
vn -0.01290000 -0.72970000 0.68370000
vn -0.04030000 -0.73040000 0.68190000
vn -0.04020000 -0.73040000 0.68190000
vn 0.00050000 -0.72840000 0.68510000
vn -0.00380000 -0.72880000 0.68470000
vn -0.00390000 -0.72880000 0.68470000
vn -0.00000000 -0.72850000 0.68510000
vn 0.00000000 -0.72840000 0.68510000
vn -0.00000000 -0.72850000 0.68510000
vn 0.00000000 -0.72840000 0.68510000
vn -0.00000000 -0.72850000 0.68510000
vn 0.00000000 -0.72840000 0.68510000
vn -0.33840000 0.65890000 0.67180000
vn -0.30810000 0.67230000 0.67320000
vn -0.27050000 0.68760000 0.67390000
vn -0.54450000 -0.51120000 0.66500000
vn -0.47920000 -0.57100000 0.66660000
vn -0.43130000 -0.60540000 0.66890000
vn -0.12190000 0.72370000 0.67930000
vn -0.19270000 0.71110000 0.67620000
vn -0.17160000 0.71530000 0.67750000
vn -0.50840000 0.54630000 0.66560000
vn -0.48570000 0.56510000 0.66690000
vn -0.39060000 0.63130000 0.67000000
vn -0.63670000 0.39540000 0.66200000
vn -0.68430000 0.31020000 0.66000000
vn -0.67020000 0.33760000 0.66100000
vn -0.63290000 0.40110000 0.66230000
vn -0.58940000 0.46060000 0.66370000
vn -0.72200000 0.20980000 0.65930000
vn -0.70050000 0.27150000 0.66000000
vn -0.73940000 0.13960000 0.65870000
vn -0.73940000 0.13930000 0.65870000
vn -0.57950000 -0.47330000 0.66350000
vn -0.63530000 -0.39750000 0.66210000
vn -0.63430000 -0.39890000 0.66220000
vn -0.66930000 -0.33920000 0.66100000
vn -0.67960000 -0.32020000 0.66010000
vn -0.74940000 -0.07040000 0.65830000
vn -0.73810000 -0.14570000 0.65870000
vn -0.73940000 -0.13920000 0.65870000
vn -0.71570000 -0.23170000 0.65890000
vn -0.70740000 -0.25510000 0.65920000
vn -0.18760000 -0.71220000 0.67650000
vn -0.21920000 -0.70410000 0.67540000
vn -0.08280000 -0.72830000 0.68020000
vn -0.38190000 -0.63590000 0.67070000
vn -0.75140000 0.05100000 0.65790000
vn -0.31300000 -0.67050000 0.67270000
vn -0.32760000 -0.66450000 0.67160000
vn -0.75280000 0.00050000 0.65820000
vn -0.41510000 0.61700000 0.66860000
vn -0.55280000 0.50230000 0.66490000
vn -0.08760000 0.72770000 0.68030000
vn -0.05160000 0.72940000 0.68220000
vn -0.31680000 -0.66870000 0.67270000
vn -0.12140000 -0.72440000 0.67860000
vn 0.00000000 0.72840000 0.68510000
vn 0.00000000 0.72840000 0.68510000
vn 0.00000000 0.72840000 0.68510000
vn 0.00000000 0.72840000 0.68510000
vn -0.03710000 0.73030000 0.68210000
vn -0.03590000 0.73030000 0.68220000
vn -0.03580000 0.73030000 0.68220000
vn -0.03840000 0.73030000 0.68200000
vn -0.03830000 0.73030000 0.68200000
vn -0.03830000 0.73040000 0.68200000
vn -0.02830000 0.73020000 0.68270000
vn -0.02830000 0.73010000 0.68270000
vn -0.03380000 0.73030000 0.68230000
vn -0.03370000 0.73030000 0.68230000
vn -0.03150000 0.73030000 0.68250000
vn -0.03160000 0.73030000 0.68240000
vn -0.01930000 0.72990000 0.68330000
vn -0.01940000 0.72980000 0.68340000
vn -0.01340000 0.72950000 0.68380000
vn -0.00760000 0.72910000 0.68440000
vn -0.01680000 0.72970000 0.68360000
vn -0.02010000 0.72990000 0.68330000
vn -0.02280000 0.73000000 0.68310000
vn -0.02280000 0.73000000 0.68300000
vn -0.02710000 0.73010000 0.68280000
vn -0.00370000 0.72880000 0.68470000
vn -0.00850000 0.72920000 0.68430000
vn -0.04010000 0.73040000 0.68190000
vn -0.04000000 0.73030000 0.68190000
vn -0.04000000 0.73040000 0.68190000
vn 0.00050000 0.72840000 0.68510000
vn 0.00000000 -0.72840000 0.68510000
vn 0.00000000 -0.72840000 0.68510000
vn 0.20520000 -0.69890000 0.68510000
vn 0.46820000 -0.55800000 0.68510000
vn 0.55050000 -0.47700000 0.68510000
vn 0.63080000 -0.36420000 0.68510000
vn 0.66260000 -0.30260000 0.68510000
vn 0.71730000 -0.12650000 0.68510000
vn 0.24910000 -0.68450000 0.68510000
vn 0.39380000 -0.61280000 0.68510000
vn 0.72100000 -0.10370000 0.68510000
vn 0.72100000 0.10370000 0.68510000
vn 0.71740000 0.12650000 0.68510000
vn 0.66260000 0.30260000 0.68510000
vn 0.46820000 0.55800000 0.68510000
vn 0.39380000 0.61280000 0.68510000
vn 0.24910000 0.68450000 0.68510000
vn 0.20520000 0.69890000 0.68510000
vn 0.00000000 0.72840000 0.68510000
vn 0.63080000 0.36420000 0.68510000
vn 0.55050000 0.47700000 0.68510000
vn -0.00450000 0.00070000 1.00000000
vn -0.01000000 0.00140000 0.99990000
vn -0.00460000 0.00070000 1.00000000
vn -0.00460000 0.00060000 1.00000000
vn -0.01680000 0.00140000 0.99990000
vn -0.01670000 0.00140000 0.99990000
vn -0.01290000 0.00110000 0.99990000
vn -0.01300000 0.00110000 0.99990000
vn -0.01300000 0.00140000 0.99990000
vn -0.01290000 0.00140000 0.99990000
vn -0.01680000 0.00180000 0.99990000
vn -0.01670000 0.00180000 0.99990000
vn -0.01480000 0.00180000 0.99990000
vn -0.01480000 0.00200000 0.99990000
vn -0.01470000 0.00190000 0.99990000
vn -0.01800000 0.00230000 0.99980000
vn -0.00890000 0.00100000 1.00000000
vn -0.00900000 0.00090000 1.00000000
vn -0.00900000 0.00100000 1.00000000
vn -0.00890000 0.00090000 1.00000000
vn -0.00900000 0.00080000 1.00000000
vn -0.00900000 0.00070000 1.00000000
vn -0.02210000 0.00250000 0.99980000
vn -0.02220000 0.00260000 0.99980000
vn -0.02220000 0.00250000 0.99970000
vn -0.02220000 0.00260000 0.99970000
vn -0.02030000 0.00170000 0.99980000
vn -0.02040000 0.00170000 0.99980000
vn -0.02040000 0.00180000 0.99980000
vn -0.02050000 0.00220000 0.99980000
vn -0.02030000 0.00220000 0.99980000
vn -0.02390000 0.00200000 0.99970000
vn -0.02370000 0.00220000 0.99970000
vn -0.02380000 0.00200000 0.99970000
vn -0.02560000 0.00300000 0.99970000
vn -0.02560000 0.00290000 0.99970000
vn -0.02550000 0.00290000 0.99970000
vn -0.02060000 0.00280000 0.99980000
vn -0.02060000 0.00290000 0.99980000
vn -0.03280000 0.00270000 0.99950000
vn -0.03290000 0.00270000 0.99950000
vn -0.03290000 0.00280000 0.99950000
vn -0.03280000 0.00280000 0.99950000
vn -0.02700000 0.00230000 0.99960000
vn -0.02990000 0.00310000 0.99950000
vn -0.02990000 0.00320000 0.99950000
vn -0.03000000 0.00300000 0.99950000
vn -0.03000000 0.00320000 0.99950000
vn -0.02580000 0.00340000 0.99970000
vn -0.02580000 0.00330000 0.99970000
vn -0.03640000 0.00320000 0.99930000
vn -0.03630000 0.00330000 0.99930000
vn -0.03630000 0.00340000 0.99930000
vn -0.03280000 0.00350000 0.99950000
vn -0.03680000 0.00390000 0.99930000
vn -0.03670000 0.00390000 0.99930000
vn -0.04130000 0.00450000 0.99910000
vn -0.04130000 0.00440000 0.99910000
vn -0.04290000 0.00370000 0.99910000
vn -0.04280000 0.00360000 0.99910000
vn -0.03930000 0.00370000 0.99920000
vn -0.03930000 0.00360000 0.99920000
vn -0.00900000 0.00040000 1.00000000
vn -0.01670000 0.00070000 0.99990000
vn -0.01680000 0.00070000 0.99990000
vn -0.02390000 0.00090000 0.99970000
vn -0.02390000 0.00100000 0.99970000
vn -0.03020000 0.00140000 0.99950000
vn -0.03000000 0.00130000 0.99950000
vn -0.03010000 0.00120000 0.99950000
vn -0.03560000 0.00220000 0.99940000
vn -0.03560000 0.00230000 0.99940000
vn -0.03560000 0.00150000 0.99940000
vn -0.03570000 0.00150000 0.99940000
vn -0.04080000 0.00170000 0.99920000
vn -0.04070000 0.00170000 0.99920000
vn -0.03820000 0.00160000 0.99930000
vn -0.03830000 0.00160000 0.99930000
vn -0.04070000 0.00260000 0.99920000
vn -0.04060000 0.00250000 0.99920000
vn -0.04060000 0.00260000 0.99920000
vn -0.03830000 0.00240000 0.99930000
vn -0.03820000 0.00240000 0.99930000
vn -0.03810000 0.00240000 0.99930000
vn -0.03810000 0.00250000 0.99930000
vn -0.04500000 0.00280000 0.99900000
vn -0.04510000 0.00280000 0.99900000
vn -0.04510000 0.00290000 0.99900000
vn -0.04500000 0.00380000 0.99900000
vn -0.04490000 0.00380000 0.99900000
vn -0.04920000 0.00210000 0.99880000
vn -0.04920000 0.00200000 0.99880000
vn -0.04920000 0.00220000 0.99880000
vn -0.04720000 0.00200000 0.99890000
vn -0.04710000 0.00300000 0.99890000
vn -0.04720000 0.00300000 0.99890000
vn -0.04930000 0.00390000 0.99880000
vn -0.04920000 0.00390000 0.99880000
vn -0.05060000 0.00340000 0.99870000
vn -0.05050000 0.00340000 0.99870000
vn -0.05060000 0.00330000 0.99870000
vn -0.05050000 0.00330000 0.99870000
vn -0.04710000 0.00400000 0.99890000
vn -0.04700000 0.00400000 0.99890000
vn -0.04720000 0.00400000 0.99890000
vn -0.04700000 0.00410000 0.99890000
vn -0.05250000 0.00330000 0.99860000
vn -0.05240000 0.00330000 0.99860000
vn -0.05110000 0.00210000 0.99870000
vn -0.05120000 0.00220000 0.99870000
vn -0.05120000 0.00210000 0.99870000
vn -0.05140000 0.00500000 0.99870000
vn -0.05130000 0.00490000 0.99870000
vn -0.05650000 0.00240000 0.99840000
vn -0.05660000 0.00240000 0.99840000
vn -0.05480000 0.00230000 0.99850000
vn -0.05490000 0.00230000 0.99850000
vn -0.05640000 0.00360000 0.99840000
vn -0.05640000 0.00350000 0.99840000
vn -0.05650000 0.00360000 0.99840000
vn -0.05660000 0.00360000 0.99840000
vn -0.05470000 0.00340000 0.99850000
vn -0.05480000 0.00340000 0.99850000
vn -0.05480000 0.00350000 0.99850000
vn -0.05470000 0.00350000 0.99850000
vn -0.05640000 0.00510000 0.99840000
vn -0.05650000 0.00510000 0.99840000
vn -0.05650000 0.00500000 0.99840000
vn -0.05290000 0.00410000 0.99860000
vn -0.05300000 0.00410000 0.99860000
vn -0.05420000 0.00500000 0.99850000
vn -0.05410000 0.00500000 0.99850000
vn -0.06300000 0.00260000 0.99800000
vn -0.06300000 0.00270000 0.99800000
vn -0.06150000 0.00260000 0.99810000
vn -0.06140000 0.00260000 0.99810000
vn -0.06150000 0.00250000 0.99810000
vn -0.06140000 0.00390000 0.99810000
vn -0.06130000 0.00390000 0.99810000
vn -0.06150000 0.00390000 0.99810000
vn -0.06140000 0.00380000 0.99810000
vn -0.01690000 0.00000000 0.99990000
vn -0.00900000 0.00000000 1.00000000
vn -0.02380000 -0.00000000 0.99970000
vn -0.03010000 -0.00000000 0.99950000
vn -0.03570000 -0.00000000 0.99940000
vn -0.04070000 -0.00000000 0.99920000
vn -0.04520000 0.00000000 0.99900000
vn -0.04510000 0.00000000 0.99900000
vn -0.04920000 -0.00000000 0.99880000
vn -0.04930000 0.00000000 0.99880000
vn -0.05310000 -0.00000000 0.99860000
vn -0.05310000 0.00010000 0.99860000
vn -0.05300000 -0.00000000 0.99860000
vn -0.05650000 0.00000000 0.99840000
vn -0.05660000 -0.00000000 0.99840000
vn -0.05990000 0.00000000 0.99820000
vn -0.05990000 -0.00010000 0.99820000
vn -0.06000000 -0.00000000 0.99820000
vn -0.06310000 0.00120000 0.99800000
vn -0.06310000 0.00130000 0.99800000
vn -0.06300000 0.00130000 0.99800000
vn -0.06310000 0.00010000 0.99800000
vn -0.06300000 0.00000000 0.99800000
vn -0.06310000 -0.00010000 0.99800000
vn -0.06310000 -0.00000000 0.99800000
vn -0.06450000 0.00140000 0.99790000
vn -0.06440000 0.00130000 0.99790000
vn -0.06440000 0.00150000 0.99790000
vn -0.06460000 0.00140000 0.99790000
vn -0.06450000 0.00130000 0.99790000
vn -0.06460000 0.00130000 0.99790000
vn -0.06520000 0.00280000 0.99790000
vn -0.06510000 0.00290000 0.99790000
vn -0.06450000 0.00000000 0.99790000
vn -0.06470000 0.00010000 0.99790000
vn -0.06440000 -0.00010000 0.99790000
vn -0.06460000 -0.00010000 0.99790000
vn -0.01680000 -0.00070000 0.99990000
vn -0.00890000 -0.00040000 1.00000000
vn -0.00900000 -0.00040000 1.00000000
vn -0.02390000 -0.00090000 0.99970000
vn -0.02390000 -0.00100000 0.99970000
vn -0.03020000 -0.00130000 0.99950000
vn -0.03010000 -0.00130000 0.99950000
vn -0.03010000 -0.00120000 0.99950000
vn -0.03570000 -0.00150000 0.99940000
vn -0.03560000 -0.00150000 0.99940000
vn -0.03830000 -0.00160000 0.99930000
vn -0.03820000 -0.00170000 0.99930000
vn -0.03820000 -0.00160000 0.99930000
vn -0.04070000 -0.00170000 0.99920000
vn -0.04080000 -0.00170000 0.99920000
vn -0.04510000 -0.00190000 0.99900000
vn -0.04720000 -0.00190000 0.99890000
vn -0.04720000 -0.00200000 0.99890000
vn -0.04910000 -0.00210000 0.99880000
vn -0.04920000 -0.00210000 0.99880000
vn -0.05110000 -0.00220000 0.99870000
vn -0.05120000 -0.00220000 0.99870000
vn -0.05120000 -0.00230000 0.99870000
vn -0.05300000 -0.00230000 0.99860000
vn -0.05310000 -0.00230000 0.99860000
vn -0.05310000 -0.00220000 0.99860000
vn -0.05300000 -0.00220000 0.99860000
vn -0.05480000 -0.00230000 0.99850000
vn -0.05470000 -0.00240000 0.99850000
vn -0.05480000 -0.00240000 0.99850000
vn -0.05650000 -0.00240000 0.99840000
vn -0.05660000 -0.00240000 0.99840000
vn -0.06150000 -0.00260000 0.99810000
vn -0.06140000 -0.00260000 0.99810000
vn -0.06300000 -0.00150000 0.99800000
vn -0.06310000 -0.00140000 0.99800000
vn -0.06310000 -0.00130000 0.99800000
vn -0.06300000 -0.00130000 0.99800000
vn -0.06300000 -0.00270000 0.99800000
vn -0.06300000 -0.00260000 0.99800000
vn -0.06450000 -0.00140000 0.99790000
vn -0.06450000 -0.00130000 0.99790000
vn -0.06440000 -0.00140000 0.99790000
vn -0.06460000 -0.00140000 0.99790000
vn -0.06440000 -0.00130000 0.99790000
vn -0.06510000 -0.00280000 0.99790000
vn -0.01300000 -0.00110000 0.99990000
vn -0.01290000 -0.00110000 0.99990000
vn -0.01670000 -0.00140000 0.99990000
vn -0.01680000 -0.00140000 0.99990000
vn -0.00900000 -0.00080000 1.00000000
vn -0.00890000 -0.00080000 1.00000000
vn -0.02040000 -0.00170000 0.99980000
vn -0.02030000 -0.00170000 0.99980000
vn -0.02380000 -0.00200000 0.99970000
vn -0.02390000 -0.00200000 0.99970000
vn -0.02710000 -0.00230000 0.99960000
vn -0.02700000 -0.00230000 0.99960000
vn -0.03010000 -0.00250000 0.99950000
vn -0.03000000 -0.00260000 0.99950000
vn -0.03000000 -0.00250000 0.99950000
vn -0.03280000 -0.00280000 0.99950000
vn -0.03290000 -0.00280000 0.99950000
vn -0.03280000 -0.00270000 0.99950000
vn -0.03560000 -0.00230000 0.99940000
vn -0.03640000 -0.00340000 0.99930000
vn -0.03640000 -0.00330000 0.99930000
vn -0.03810000 -0.00260000 0.99930000
vn -0.03810000 -0.00240000 0.99930000
vn -0.03820000 -0.00240000 0.99930000
vn -0.03980000 -0.00360000 0.99920000
vn -0.03990000 -0.00360000 0.99920000
vn -0.03980000 -0.00350000 0.99920000
vn -0.04080000 -0.00260000 0.99920000
vn -0.04070000 -0.00260000 0.99920000
vn -0.04060000 -0.00260000 0.99920000
vn -0.04510000 -0.00290000 0.99900000
vn -0.04500000 -0.00290000 0.99900000
vn -0.04280000 -0.00360000 0.99910000
vn -0.04290000 -0.00370000 0.99910000
vn -0.04710000 -0.00400000 0.99890000
vn -0.04700000 -0.00400000 0.99890000
vn -0.04710000 -0.00390000 0.99890000
vn -0.05000000 -0.00360000 0.99870000
vn -0.05000000 -0.00370000 0.99870000
vn -0.05010000 -0.00360000 0.99870000
vn -0.05000000 -0.00400000 0.99870000
vn -0.04710000 -0.00300000 0.99890000
vn -0.04720000 -0.00300000 0.99890000
vn -0.04720000 -0.00310000 0.99890000
vn -0.04920000 -0.00320000 0.99880000
vn -0.04920000 -0.00310000 0.99880000
vn -0.04910000 -0.00320000 0.99880000
vn -0.05120000 -0.00440000 0.99870000
vn -0.05110000 -0.00440000 0.99870000
vn -0.05120000 -0.00450000 0.99870000
vn -0.05250000 -0.00370000 0.99860000
vn -0.05230000 -0.00360000 0.99860000
vn -0.05240000 -0.00370000 0.99860000
vn -0.05650000 -0.00360000 0.99840000
vn -0.05660000 -0.00360000 0.99840000
vn -0.05640000 -0.00350000 0.99840000
vn -0.05640000 -0.00360000 0.99840000
vn -0.05460000 -0.00340000 0.99850000
vn -0.05480000 -0.00350000 0.99850000
vn -0.05470000 -0.00350000 0.99850000
vn -0.05470000 -0.00500000 0.99850000
vn -0.05460000 -0.00500000 0.99850000
vn -0.06350000 -0.00430000 0.99800000
vn -0.06360000 -0.00420000 0.99800000
vn -0.06360000 -0.00430000 0.99800000
vn -0.06000000 -0.00390000 0.99820000
vn -0.05990000 -0.00380000 0.99820000
vn -0.06000000 -0.00380000 0.99820000
vn -0.01470000 -0.00200000 0.99990000
vn -0.01480000 -0.00200000 0.99990000
vn -0.01660000 -0.00170000 0.99990000
vn -0.01670000 -0.00180000 0.99990000
vn -0.01930000 -0.00250000 0.99980000
vn -0.01920000 -0.00240000 0.99980000
vn -0.01920000 -0.00250000 0.99980000
vn -0.01290000 -0.00140000 0.99990000
vn -0.01290000 -0.00130000 0.99990000
vn -0.01010000 -0.00130000 0.99990000
vn -0.00890000 -0.00090000 1.00000000
vn -0.00900000 -0.00090000 1.00000000
vn -0.02260000 -0.00310000 0.99970000
vn -0.02270000 -0.00300000 0.99970000
vn -0.02460000 -0.00270000 0.99970000
vn -0.02470000 -0.00260000 0.99970000
vn -0.02460000 -0.00260000 0.99970000
vn -0.02470000 -0.00270000 0.99970000
vn -0.02550000 -0.00330000 0.99970000
vn -0.02550000 -0.00340000 0.99970000
vn -0.02150000 -0.00230000 0.99980000
vn -0.02150000 -0.00240000 0.99980000
vn -0.02160000 -0.00230000 0.99980000
vn -0.03000000 -0.00320000 0.99950000
vn -0.02990000 -0.00320000 0.99950000
vn -0.02690000 -0.00300000 0.99960000
vn -0.02710000 -0.00310000 0.99960000
vn -0.02710000 -0.00300000 0.99960000
vn -0.02700000 -0.00300000 0.99960000
vn -0.03280000 -0.00350000 0.99950000
vn -0.03850000 -0.00380000 0.99930000
vn -0.03860000 -0.00390000 0.99920000
vn -0.03860000 -0.00380000 0.99920000
vn -0.04150000 -0.00450000 0.99910000
vn -0.00650000 -0.00100000 1.00000000
vn -0.00640000 -0.00100000 1.00000000
vn -0.01120000 -0.00170000 0.99990000
vn -0.00460000 -0.00060000 1.00000000
vn -0.00450000 -0.00070000 1.00000000
vn -0.00000000 0.00000000 1.00000000
vn -0.00620000 0.00100000 1.00000000
vn -0.00000000 0.00000000 1.00000000
vn -0.01340000 0.00200000 0.99990000
vn -0.01330000 0.00200000 0.99990000
vn -0.00000000 0.00000000 1.00000000
vn -0.03080000 0.00380000 0.99950000
vn -0.03080000 0.00390000 0.99950000
vn -0.03480000 0.00410000 0.99940000
vn -0.03510000 0.00410000 0.99940000
vn -0.04490000 0.00470000 0.99900000
vn -0.04500000 0.00470000 0.99900000
vn -0.04810000 0.00480000 0.99880000
vn -0.04800000 0.00480000 0.99880000
vn -0.04800000 0.00470000 0.99880000
vn -0.05990000 0.00380000 0.99820000
vn -0.06000000 0.00380000 0.99820000
vn -0.05980000 0.00380000 0.99820000
vn -0.05830000 0.00510000 0.99830000
vn -0.05830000 0.00500000 0.99830000
vn -0.06110000 0.00510000 0.99810000
vn -0.06100000 0.00510000 0.99810000
vn -0.06170000 0.00500000 0.99810000
vn -0.06160000 0.00510000 0.99810000
vn -0.06280000 0.00480000 0.99800000
vn -0.06260000 0.00480000 0.99800000
vn -0.06450000 0.00360000 0.99790000
vn -0.06350000 0.00440000 0.99800000
vn -0.06360000 0.00440000 0.99800000
vn -0.06530000 0.00230000 0.99790000
vn -0.06550000 0.00230000 0.99790000
vn -0.06570000 -0.00090000 0.99780000
vn -0.06590000 -0.00100000 0.99780000
vn -0.06590000 0.00100000 0.99780000
vn -0.06560000 0.00200000 0.99780000
vn -0.06560000 0.00190000 0.99780000
vn -0.06590000 -0.00000000 0.99780000
vn -0.06600000 -0.00000000 0.99780000
vn -0.06540000 -0.00230000 0.99790000
vn -0.06550000 -0.00230000 0.99790000
vn -0.00000000 0.00000000 1.00000000
vn -0.00000000 0.00000000 1.00000000
vn -0.03070000 -0.00380000 0.99950000
vn -0.03080000 -0.00380000 0.99950000
vn -0.03610000 -0.00420000 0.99930000
vn -0.00000000 0.00000000 1.00000000
vn -0.04880000 -0.00490000 0.99880000
vn -0.04880000 -0.00480000 0.99880000
vn -0.04500000 -0.00470000 0.99900000
vn -0.06450000 -0.00360000 0.99790000
vn -0.06130000 -0.00510000 0.99810000
vn -0.06130000 -0.00520000 0.99810000
vn -0.05840000 -0.00510000 0.99830000
vn -0.05830000 -0.00500000 0.99830000
vn -0.05830000 -0.00510000 0.99830000
vn -0.06260000 -0.00450000 0.99800000
vn -0.06280000 -0.00470000 0.99800000
vn -0.00000000 0.00000000 1.00000000
vn -0.00000000 0.00000000 1.00000000
vn -0.00000000 -0.00010000 1.00000000
vn -0.00000000 0.00000000 1.00000000
vn -0.00000000 0.00000000 1.00000000
vn -0.00000000 -0.00010000 1.00000000
vn -0.00010000 0.00000000 1.00000000
vn -0.00000000 0.00000000 1.00000000
vn -0.00000000 -0.00010000 1.00000000
vn -0.00000000 -0.00010000 1.00000000
vn -0.00000000 0.00000000 1.00000000
vn -0.00000000 0.00000000 1.00000000
vn -0.00000000 0.00000000 1.00000000
vn -0.00000000 0.00000000 1.00000000
vn -0.00000000 -0.00010000 1.00000000
vn -0.00010000 0.00000000 1.00000000
vn -0.00000000 0.00010000 1.00000000
vn -0.00000000 0.00000000 1.00000000
vn -0.00000000 0.00000000 1.00000000
vn -0.00000000 -0.00010000 1.00000000
vn -0.00010000 0.00000000 1.00000000
vn -0.00000000 -0.00010000 1.00000000
vn -0.00000000 0.00000000 1.00000000
vn -0.00000000 0.00010000 1.00000000
vn -0.00000000 0.00000000 1.00000000
vn -0.00000000 0.00010000 1.00000000
vn -0.00000000 0.00000000 1.00000000
vn -0.00000000 0.00000000 1.00000000
vn -0.00000000 0.00000000 1.00000000
vn -0.00000000 0.00000000 1.00000000
vn -0.00000000 0.00000000 1.00000000
vn -0.00000000 0.00000000 -1.00000000
vn -0.00000000 0.00000000 -1.00000000
vn -0.00000000 0.00000000 -1.00000000
vn -0.00000000 0.00000000 -1.00000000
vn -0.00000000 0.00000000 -1.00000000
vn -0.00000000 0.00000000 -1.00000000
vn -0.00000000 0.00000000 -1.00000000
vn -0.00000000 0.00000000 -1.00000000
vn -0.00000000 0.00000000 -1.00000000
vn -0.00000000 0.00000000 -1.00000000
vn -0.00000000 0.00000000 -1.00000000
vn -0.00000000 0.00000000 -1.00000000
vn -0.00000000 0.00000000 -1.00000000
vn -0.00000000 0.00000000 -1.00000000
vn -0.00000000 0.00000000 -1.00000000
vn -0.00000000 0.00000000 -1.00000000
vn -0.00000000 -0.99940000 0.03490000
vn -0.03560000 0.73030000 0.68220000
vn -0.02950000 0.73020000 0.68260000
vn 0.00000000 0.72840000 0.68510000
vt 0.07970700 0.12490000
vt 0.07970700 0.12490000
vt 0.07982100 0.14421200
vt 0.07982100 0.14421200
vt 0.08154500 0.24073000
vt 0.08154500 0.24073000
vt 0.08154500 0.24073000
vt 0.08010400 0.16944300
vt 0.08560300 0.00000000
vt 0.07970400 0.00000000
vt 0.08075400 0.20674600
vt 0.09150200 0.00000000
vt 0.09210100 0.23902400
vt 0.09740000 0.00000000
vt 0.11211600 0.26973500
vt 0.11249600 0.29233500
vt 0.11235000 0.26991400
vt 0.11335300 0.28911800
vt 0.11318600 0.27031200
vt 0.11293000 0.28907200
vt 0.11274400 0.27013400
vt 0.11377100 0.28899000
vt 0.11406800 0.27061400
vt 0.11377600 0.27052300
vt 0.11419100 0.28899000
vt 0.11353600 0.27047500
vt 0.11461100 0.28899000
vt 0.11487400 0.27072800
vt 0.11461000 0.27069100
vt 0.11503000 0.28899000
vt 0.11439100 0.27069600
vt 0.11546900 0.28899000
vt 0.11573300 0.27067400
vt 0.11547100 0.27069000
vt 0.11590800 0.28903300
vt 0.11524200 0.27074000
vt 0.11675200 0.28899200
vt 0.11657000 0.27044100
vt 0.11632800 0.28882800
vt 0.11608900 0.27061500
vt 0.11629700 0.27049900
vt 0.11734400 0.27012600
vt 0.11759100 0.28899000
vt 0.11757100 0.26996400
vt 0.11717300 0.28920200
vt 0.11699400 0.27025000
vt 0.11786800 0.26982400
vt 0.11801000 0.28907900
vt 0.11827900 0.26959100
vt 0.11169200 0.26953200
vt 0.11185400 0.28897400
vt 0.11189400 0.26963500
vt 0.11163000 0.29549200
vt 0.11163000 0.30849600
vt 0.11206900 0.29874300
vt 0.11260200 0.30849600
vt 0.11357300 0.30849600
vt 0.11454500 0.30849600
vt 0.11551600 0.30849600
vt 0.11648700 0.30849600
vt 0.11745900 0.30849600
vt 0.11843000 0.29549200
vt 0.11843000 0.30849600
vt 0.11906000 0.00000000
vt 0.11906000 0.23902400
vt 0.12435900 0.23902400
vt 0.13493900 0.23972100
vt 0.13493900 0.23972100
vt 0.13493900 0.23972100
vt 0.13674700 0.13055100
vt 0.13674700 0.13055100
vt 0.12495800 0.00000000
vt 0.13648800 0.15906800
vt 0.13648800 0.15906800
vt 0.13607600 0.18717000
vt 0.13607600 0.18717000
vt 0.13085700 0.00000000
vt 0.13544600 0.21846100
vt 0.13675600 0.00000000
vt 0.11163000 0.97105000
vt 0.11224800 0.95657500
vt 0.11163000 0.95657500
vt 0.11250700 0.97828800
vt 0.11286700 0.95657500
vt 0.11410300 0.95657500
vt 0.11348500 0.95657500
vt 0.11419100 0.97828800
vt 0.11472100 0.95657500
vt 0.11260200 1.00000000
vt 0.11163000 0.98552500
vt 0.11163000 1.00000000
vt 0.11357300 1.00000000
vt 0.11454500 1.00000000
vt 0.11503000 0.97828800
vt 0.11551600 1.00000000
vt 0.11590800 0.97828800
vt 0.11533900 0.95657500
vt 0.11595800 0.95657500
vt 0.11657600 0.95657500
vt 0.11781200 0.95657500
vt 0.11719400 0.95657500
vt 0.11759100 0.97828800
vt 0.11843000 0.97105000
vt 0.11843000 0.95657500
vt 0.11675200 0.97828800
vt 0.11648700 1.00000000
vt 0.11745900 1.00000000
vt 0.11843000 0.98552500
vt 0.11843000 1.00000000
vt 0.11069800 0.35740700
vt 0.11069800 0.35740700
vt 0.10823000 0.36071200
vt 0.11069900 0.37447800
vt 0.10823500 0.38006900
vt 0.10823500 0.38006900
vt 0.11070600 0.28548000
vt 0.11070600 0.28548000
vt 0.11070100 0.27365900
vt 0.10823000 0.29798200
vt 0.11070000 0.30234200
vt 0.11070000 0.30234200
vt 0.11070200 0.31224800
vt 0.11069900 0.32063500
vt 0.11069900 0.32063500
vt 0.11069900 0.32063500
vt 0.10823000 0.33541200
vt 0.11070100 0.33251400
vt 0.11070300 0.35256900
vt 0.11070300 0.35256900
vt 0.11070100 0.34306900
vt 0.11076600 0.36930300
vt 0.11071600 0.26328700
vt 0.10823000 0.26387300
vt 0.11070100 0.38834400
vt 0.11070500 0.38061000
vt 0.11070500 0.38061000
vt 0.21646000 0.26558200
vt 0.21646000 0.26558200
vt 0.16892800 0.27164600
vt 0.16892800 0.27164600
vt 0.16556100 0.26557700
vt 0.21646000 0.27164600
vt 0.10928400 0.27606500
vt 0.11069300 0.27482600
vt 0.10821500 0.27367900
vt 0.11068300 0.32302600
vt 0.10822500 0.32584500
vt 0.11069800 0.32802100
vt 0.10822900 0.26854900
vt 0.10824000 0.27096700
vt 0.11069000 0.27002600
vt 0.10821900 0.28301500
vt 0.10942100 0.28195100
vt 0.10820600 0.27813500
vt 0.10822400 0.28971500
vt 0.10822000 0.29298900
vt 0.11069500 0.29184400
vt 0.11069900 0.28935500
vt 0.10820600 0.28699600
vt 0.10821000 0.29662000
vt 0.11069400 0.29432400
vt 0.11069500 0.29900600
vt 0.10823000 0.29906000
vt 0.10821500 0.32114200
vt 0.11069600 0.31808900
vt 0.10823500 0.31802300
vt 0.10820500 0.31568400
vt 0.11069500 0.31506400
vt 0.10821300 0.30617500
vt 0.10822900 0.30873600
vt 0.11069500 0.30855600
vt 0.10821700 0.31174700
vt 0.10967100 0.31262800
vt 0.10955300 0.33691800
vt 0.10821700 0.33570300
vt 0.10821300 0.34034200
vt 0.10820200 0.32979100
vt 0.10822100 0.30207300
vt 0.10822700 0.33236400
vt 0.10964600 0.33194500
vt 0.11069500 0.30378100
vt 0.11069300 0.27889400
vt 0.11068800 0.28496300
vt 0.11069100 0.26717100
vt 0.10821100 0.26620700
vt 0.11069500 0.33243000
vt 0.11068300 0.33927900
vt 0.04753200 0.27164600
vt 0.00000000 0.27164600
vt 0.00000000 0.26558200
vt 0.05320200 0.26556500
vt 0.10822900 0.27982000
vt 0.11070100 0.28622400
vt 0.11070100 0.28622400
vt 0.10823000 0.27365900
vt 0.10823000 0.27365900
vt 0.10823000 0.27365900
vt 0.11070000 0.31762700
vt 0.11070000 0.31762700
vt 0.10823000 0.29531500
vt 0.10823000 0.29531500
vt 0.10823000 0.30442000
vt 0.10823000 0.30442000
vt 0.11070100 0.34581600
vt 0.11070100 0.34581600
vt 0.10822800 0.36073700
vt 0.11069100 0.37440600
vt 0.10822800 0.35210800
vt 0.10822900 0.34306300
vt 0.10823000 0.33520000
vt 0.10823000 0.33520000
vt 0.10823200 0.32115800
vt 0.10823000 0.38093100
vt 0.10823100 0.37149400
vt 0.10822300 0.26429300
vt 0.11070200 0.26488500
vt 0.11070200 0.26488500
vt 0.10823000 0.38834400
vt 0.11163000 0.29471700
vt 0.11163000 0.30078100
vt 0.11224800 0.30078100
vt 0.11314100 0.29471700
vt 0.11348500 0.30078100
vt 0.11389700 0.29471700
vt 0.11410300 0.30078100
vt 0.11465200 0.29471700
vt 0.11238600 0.29471700
vt 0.11286700 0.30078100
vt 0.11472100 0.30078100
vt 0.11533900 0.30078100
vt 0.11540800 0.29471700
vt 0.11595800 0.30078100
vt 0.11691900 0.29471700
vt 0.11719400 0.30078100
vt 0.11767500 0.29471700
vt 0.11781200 0.30078100
vt 0.11843000 0.29471700
vt 0.11616400 0.29471700
vt 0.11657600 0.30078100
vt 0.90801100 0.27216500
vt 0.91099500 0.28047100
vt 0.91400500 0.27216500
vt 0.91400500 0.27216500
vt 0.92627700 0.29141100
vt 0.92627700 0.29141100
vt 0.92627700 0.28507900
vt 0.92627700 0.28507900
vt 0.92014100 0.28507900
vt 0.92014100 0.28507900
vt 0.92014100 0.29141100
vt 0.92014100 0.29141100
vt 0.91282600 0.28812400
vt 0.91282600 0.28812400
vt 0.91282600 0.28812400
vt 0.91384400 0.29368100
vt 0.92014100 0.27874700
vt 0.92014100 0.27874700
vt 0.92014100 0.27874700
vt 0.92014100 0.27874700
vt 0.92627700 0.27874700
vt 0.92627700 0.27874700
vt 0.91744800 0.30109700
vt 0.91744800 0.30109700
vt 0.91744800 0.30109700
vt 0.91744800 0.30109700
vt 0.92627700 0.29774300
vt 0.92627700 0.29774300
vt 0.92627700 0.29774300
vt 0.91932100 0.29772900
vt 0.91932100 0.29772900
vt 0.92627700 0.30407500
vt 0.92627700 0.30407500
vt 0.92627700 0.30407500
vt 0.91785500 0.30759000
vt 0.91785500 0.30759000
vt 0.91785500 0.30759000
vt 0.91103600 0.29831200
vt 0.91103600 0.29831200
vt 0.92626400 0.32210800
vt 0.92626400 0.32210800
vt 0.92626400 0.32210800
vt 0.92626400 0.32210800
vt 0.92627700 0.31015000
vt 0.92014100 0.31622500
vt 0.92014100 0.31622500
vt 0.92014100 0.31622500
vt 0.92014100 0.31622500
vt 0.91318500 0.30806600
vt 0.91318500 0.30806600
vt 0.92441700 0.32980600
vt 0.92441700 0.32980600
vt 0.92441700 0.32980600
vt 0.92014100 0.32216300
vt 0.91992200 0.33087600
vt 0.91992200 0.33087600
vt 0.91931600 0.34163800
vt 0.91931600 0.34163800
vt 0.92627700 0.34523800
vt 0.92627700 0.34523800
vt 0.92401900 0.33678900
vt 0.92401900 0.33678900
vt 0.93864400 0.27872300
vt 0.93864300 0.29141100
vt 0.93864300 0.29141100
vt 0.93864300 0.30407500
vt 0.93864300 0.30407500
vt 0.93864300 0.31622500
vt 0.93864300 0.31622500
vt 0.93864300 0.31622500
vt 0.93246000 0.32810200
vt 0.93246000 0.32810200
vt 0.93864300 0.32810200
vt 0.93864300 0.32810200
vt 0.93864300 0.33974400
vt 0.93864300 0.33974400
vt 0.93864300 0.33392300
vt 0.93864300 0.33392300
vt 0.93246000 0.33974400
vt 0.93246000 0.33974400
vt 0.93246000 0.33974400
vt 0.93246000 0.33392300
vt 0.93246000 0.33392300
vt 0.93246000 0.33392300
vt 0.93246000 0.33392300
vt 0.93246000 0.35073100
vt 0.93246000 0.35073100
vt 0.93246000 0.35073100
vt 0.92627700 0.35073100
vt 0.92627700 0.35073100
vt 0.93864300 0.36171800
vt 0.93864300 0.36171800
vt 0.93864300 0.36171800
vt 0.93866300 0.35618000
vt 0.93246000 0.35622500
vt 0.93246000 0.35622500
vt 0.92787400 0.36231500
vt 0.92787400 0.36231500
vt 0.93151500 0.36562300
vt 0.93151500 0.36562300
vt 0.93151500 0.36562300
vt 0.93151500 0.36562300
vt 0.92627700 0.35622500
vt 0.92627700 0.35622500
vt 0.92627700 0.35622500
vt 0.92627700 0.35622500
vt 0.93245600 0.37101200
vt 0.93245600 0.37101200
vt 0.93864800 0.36723400
vt 0.93864800 0.36723400
vt 0.93864800 0.36723400
vt 0.92306000 0.36828200
vt 0.92306000 0.36828200
vt 0.93864300 0.38369200
vt 0.93864300 0.38369200
vt 0.93864300 0.37819900
vt 0.93864300 0.37819900
vt 0.93246000 0.38369200
vt 0.93246000 0.38369200
vt 0.93246000 0.38369200
vt 0.93246000 0.38369200
vt 0.93246000 0.37819900
vt 0.93246000 0.37819900
vt 0.93246000 0.37819900
vt 0.93246000 0.37819900
vt 0.92489000 0.38381300
vt 0.92489000 0.38381300
vt 0.92489000 0.38381300
vt 0.92826700 0.37265100
vt 0.92826700 0.37265100
vt 0.92408400 0.37670600
vt 0.92408400 0.37670600
vt 0.93864300 0.40566600
vt 0.93864300 0.40566600
vt 0.93862600 0.40008900
vt 0.93862600 0.40008900
vt 0.93862600 0.40008900
vt 0.93246000 0.40017300
vt 0.93246000 0.40017300
vt 0.93246000 0.40017300
vt 0.93246000 0.40017300
vt 0.95100900 0.29141100
vt 0.95100900 0.27872300
vt 0.95100900 0.30407500
vt 0.95100900 0.31622500
vt 0.95100900 0.32810200
vt 0.95100900 0.33974400
vt 0.95100900 0.35073100
vt 0.95100900 0.35073100
vt 0.95100900 0.36171800
vt 0.95100900 0.36171800
vt 0.95100900 0.37270500
vt 0.95100900 0.37270500
vt 0.95100900 0.37270500
vt 0.95100900 0.38369200
vt 0.95100900 0.38369200
vt 0.95100900 0.39467900
vt 0.95100900 0.39467900
vt 0.95100900 0.39467900
vt 0.94482600 0.40566600
vt 0.94482600 0.40566600
vt 0.94482600 0.40566600
vt 0.95100900 0.40566600
vt 0.95100900 0.40566600
vt 0.95100900 0.40566600
vt 0.95100900 0.40566600
vt 0.94482600 0.41116000
vt 0.94482600 0.41116000
vt 0.94482600 0.41116000
vt 0.94482600 0.41116000
vt 0.94482600 0.41116000
vt 0.94482600 0.41116000
vt 0.93796300 0.41353900
vt 0.93796300 0.41353900
vt 0.95100900 0.41116000
vt 0.95100900 0.41116000
vt 0.95100900 0.41116000
vt 0.95100900 0.41116000
vt 0.96353200 0.29141100
vt 0.96353200 0.27872300
vt 0.96353200 0.27872300
vt 0.96353200 0.30407500
vt 0.96353200 0.30407500
vt 0.96353200 0.31622500
vt 0.96353200 0.31622500
vt 0.96353200 0.31622500
vt 0.96353200 0.32810200
vt 0.96353200 0.32810200
vt 0.96353200 0.33392300
vt 0.96353200 0.33392300
vt 0.96353200 0.33392300
vt 0.96353200 0.33974400
vt 0.96353200 0.33974400
vt 0.96353200 0.35073100
vt 0.96353200 0.35622500
vt 0.96353200 0.35622500
vt 0.96353200 0.36171800
vt 0.96353200 0.36171800
vt 0.96353200 0.36721200
vt 0.96353200 0.36721200
vt 0.96353200 0.36721200
vt 0.96353200 0.37270500
vt 0.96353200 0.37270500
vt 0.96353200 0.37270500
vt 0.96353200 0.37270500
vt 0.96353200 0.37819900
vt 0.96353200 0.37819900
vt 0.96353200 0.37819900
vt 0.96353200 0.38369200
vt 0.96353200 0.38369200
vt 0.96356100 0.40009900
vt 0.96356100 0.40009900
vt 0.95727100 0.40566600
vt 0.95727100 0.40566600
vt 0.95727100 0.40566600
vt 0.95727100 0.40566600
vt 0.96353200 0.40566600
vt 0.96353200 0.40566600
vt 0.95727100 0.41116000
vt 0.95727100 0.41116000
vt 0.95727100 0.41116000
vt 0.95727100 0.41116000
vt 0.95727100 0.41116000
vt 0.96392000 0.41361300
vt 0.97574000 0.28507900
vt 0.97574000 0.28507900
vt 0.97574000 0.29141100
vt 0.97574000 0.29141100
vt 0.97574000 0.27874700
vt 0.97574000 0.27874700
vt 0.97574000 0.29774300
vt 0.97574000 0.29774300
vt 0.97574000 0.30407500
vt 0.97574000 0.30407500
vt 0.97574000 0.31015000
vt 0.97574000 0.31015000
vt 0.97574000 0.31622500
vt 0.97574000 0.31622500
vt 0.97574000 0.31622500
vt 0.97574000 0.32216300
vt 0.97574000 0.32216300
vt 0.97574000 0.32216300
vt 0.96963600 0.32810200
vt 0.97779100 0.33011100
vt 0.97779100 0.33011100
vt 0.96963600 0.33392300
vt 0.96963600 0.33392300
vt 0.96963600 0.33392300
vt 0.97717200 0.33794300
vt 0.97717200 0.33794300
vt 0.97717200 0.33794300
vt 0.96963600 0.33974400
vt 0.96963600 0.33974400
vt 0.96963600 0.33974400
vt 0.96963600 0.35073100
vt 0.96963600 0.35073100
vt 0.97574000 0.34523800
vt 0.97574000 0.34523800
vt 0.97573700 0.35615400
vt 0.97573700 0.35615400
vt 0.97573700 0.35615400
vt 0.97245500 0.36430600
vt 0.97245500 0.36430600
vt 0.97245500 0.36430600
vt 0.97245500 0.36430600
vt 0.96963600 0.35622500
vt 0.96963600 0.35622500
vt 0.96963600 0.35622500
vt 0.96963600 0.36171800
vt 0.96963600 0.36171800
vt 0.96963600 0.36171800
vt 0.97635600 0.36768600
vt 0.97635600 0.36768600
vt 0.97635600 0.36768600
vt 0.97168800 0.37111300
vt 0.97168800 0.37111300
vt 0.97168800 0.37111300
vt 0.96963600 0.38369200
vt 0.96963600 0.38369200
vt 0.96963600 0.38369200
vt 0.96963600 0.38369200
vt 0.96963600 0.37819900
vt 0.96963600 0.37819900
vt 0.96963600 0.37819900
vt 0.97774200 0.37817800
vt 0.97774200 0.37817800
vt 0.97089900 0.40827300
vt 0.97089900 0.40827300
vt 0.97089900 0.40827300
vt 0.96972300 0.39507000
vt 0.96972300 0.39507000
vt 0.96972300 0.39507000
vt 0.98992800 0.28813900
vt 0.98992800 0.28813900
vt 0.98180500 0.29141100
vt 0.98180500 0.29141100
vt 0.98796600 0.29578700
vt 0.98796600 0.29578700
vt 0.98796600 0.29578700
vt 0.98180500 0.28507900
vt 0.98180500 0.28507900
vt 0.98942500 0.28052600
vt 0.98180500 0.27874700
vt 0.98180500 0.27874700
vt 0.99014100 0.30208600
vt 0.99014100 0.30208600
vt 0.98240900 0.30578300
vt 0.98240900 0.30578300
vt 0.98240900 0.30578300
vt 0.98240900 0.30578300
vt 0.98894300 0.30753900
vt 0.98894300 0.30753900
vt 0.98258300 0.29987500
vt 0.98258300 0.29987500
vt 0.98258300 0.29987500
vt 0.98180500 0.31622500
vt 0.98180500 0.31622500
vt 0.98346800 0.31027100
vt 0.98346800 0.31027100
vt 0.98346800 0.31027100
vt 0.98346800 0.31027100
vt 0.98180500 0.32216300
vt 0.98002900 0.33499600
vt 0.98002900 0.33499600
vt 0.98002900 0.33499600
vt 0.98262500 0.34218400
vt 0.99706800 0.27499300
vt 0.99706800 0.27499300
vt 0.99502100 0.28234500
vt 0.98787000 0.27216500
vt 0.99393500 0.27216500
vt 0.90201700 0.26558300
vt 0.90481300 0.27461900
vt 0.91426500 0.26558300
vt 0.90795100 0.28585400
vt 0.90795100 0.28585400
vt 0.92651300 0.26558300
vt 0.91520900 0.31808300
vt 0.91520900 0.31808300
vt 0.91679900 0.32664600
vt 0.91679900 0.32664600
vt 0.92071200 0.35093800
vt 0.92071200 0.35093800
vt 0.92184600 0.35901500
vt 0.92184600 0.35901500
vt 0.92184600 0.35901500
vt 0.93246000 0.39467900
vt 0.93246000 0.39467900
vt 0.93246000 0.39467900
vt 0.92556400 0.38991600
vt 0.92556400 0.38991600
vt 0.92653300 0.39909800
vt 0.92653300 0.39909800
vt 0.92712100 0.40140400
vt 0.92712100 0.40140400
vt 0.92878800 0.40502900
vt 0.92878800 0.40502900
vt 0.93459300 0.41145300
vt 0.93071000 0.40787800
vt 0.93071000 0.40787800
vt 0.94006200 0.41451800
vt 0.94006200 0.41451800
vt 0.95552100 0.41630800
vt 0.95552100 0.41630800
vt 0.94648500 0.41630700
vt 0.94221200 0.41530400
vt 0.94221200 0.41530400
vt 0.95099200 0.41665300
vt 0.95099200 0.41665300
vt 0.96136100 0.41478800
vt 0.96136100 0.41478800
vt 0.97550400 0.26558300
vt 0.98775200 0.26558300
vt 0.98681100 0.31807400
vt 0.98681100 0.31807400
vt 0.98470000 0.32955100
vt 1.00000000 0.26558300
vt 0.97988400 0.36116000
vt 0.97988400 0.36116000
vt 0.98130300 0.35093800
vt 0.96770700 0.41126500
vt 0.97534900 0.40007900
vt 0.97534900 0.40007900
vt 0.97645300 0.38991400
vt 0.97645300 0.38991400
vt 0.97645300 0.38991400
vt 0.97310700 0.40525500
vt 0.97310700 0.40525500
vt 0.15109600 0.13205300
vt 0.14968400 0.13805700
vt 0.14919300 0.14488400
vt 0.14919300 0.14488400
vt 0.15326100 0.12759700
vt 0.15326100 0.12759700
vt 0.15591500 0.12522600
vt 0.15591500 0.12522600
vt 0.15591500 0.12522600
vt 0.15513100 0.27381900
vt 0.15513100 0.27381900
vt 0.15126100 0.26227800
vt 0.14919300 0.26152200
vt 0.15330900 0.26280800
vt 0.15732800 0.27393100
vt 0.15732800 0.27393100
vt 0.16139500 0.12759700
vt 0.16139500 0.12759700
vt 0.15874000 0.12522600
vt 0.15874000 0.12522600
vt 0.15874000 0.12522600
vt 0.15955300 0.27381600
vt 0.15955300 0.27381600
vt 0.15955300 0.27381600
vt 0.16546200 0.14488400
vt 0.16546200 0.14488400
vt 0.16497200 0.13805700
vt 0.16355900 0.13205300
vt 0.16134600 0.26280800
vt 0.16339500 0.26227800
vt 0.16546200 0.26152200
vt 0.11216300 0.00651900
vt 0.10926400 0.01543700
vt 0.10823000 0.02655800
vt 0.11216300 0.28562100
vt 0.11635100 0.00157000
vt 0.11635100 0.29057100
vt 0.10823000 0.26558200
vt 0.10926400 0.27670300
vt 0.12099900 0.00157000
vt 0.12518700 0.00651900
vt 0.12518700 0.28562100
vt 0.12912000 0.02655800
vt 0.12808600 0.01543700
vt 0.12912000 0.26558200
vt 0.12099900 0.29057100
vt 0.12808600 0.27670300
vt 0.09740000 0.23902400
vt 0.10822900 0.28694800
vt 0.10823000 0.31224800
vt 0.11843000 0.30078100
f 1/1/1 3/3/3 5/5/5
f 8/8/8 6/6/6 4/4/4
f 9/9/9 10/10/10 2/2/2
f 11/11/11 6/6/6 8/8/8
f 12/12/12 2/2/2 7/7/7
f 13/13/13 675/675/675 14/14/14
f 2/2/2 12/12/12 9/9/9
f 12/12/12 7/7/7 13/13/13
f 15/15/15 16/16/16 17/17/17
f 18/18/18 19/19/19 20/20/20
f 20/20/20 21/21/21 16/16/16
f 16/16/16 21/21/21 17/17/17
f 20/20/20 19/19/19 21/21/21
f 22/22/22 25/25/25 23/23/23
f 26/26/26 22/22/22 24/24/24
f 22/22/22 26/26/26 18/18/18
f 18/18/18 26/26/26 19/19/19
f 27/27/27 30/30/30 28/28/28
f 31/31/31 25/25/25 27/27/27
f 25/25/25 31/31/31 23/23/23
f 32/32/32 35/35/35 33/33/33
f 36/36/36 30/30/30 32/32/32
f 30/30/30 36/36/36 28/28/28
f 37/37/37 38/38/38 39/39/39
f 39/39/39 40/40/40 35/35/35
f 39/39/39 41/41/41 40/40/40
f 35/35/35 40/40/40 33/33/33
f 39/39/39 38/38/38 41/41/41
f 42/42/42 43/43/43 44/44/44
f 43/43/43 42/42/42 45/45/45
f 45/45/45 46/46/46 37/37/37
f 37/37/37 46/46/46 38/38/38
f 45/45/45 42/42/42 46/46/46
f 43/43/43 48/48/48 47/47/47
f 48/48/48 49/49/49 47/47/47
f 50/50/50 51/51/51 52/52/52
f 50/50/50 53/53/53 51/51/51
f 54/54/54 55/55/55 53/53/53
f 55/55/55 15/15/15 51/51/51
f 56/56/56 16/16/16 55/55/55
f 20/20/20 56/56/56 57/57/57
f 16/16/16 56/56/56 20/20/20
f 54/54/54 56/56/56 55/55/55
f 53/53/53 55/55/55 51/51/51
f 22/22/22 18/18/18 57/57/57
f 57/57/57 58/58/58 25/25/25
f 58/58/58 27/27/27 25/25/25
f 27/27/27 58/58/58 30/30/30
f 59/59/59 32/32/32 30/30/30
f 35/35/35 59/59/59 60/60/60
f 32/32/32 59/59/59 35/35/35
f 58/58/58 59/59/59 30/30/30
f 60/60/60 37/37/37 39/39/39
f 60/60/60 61/61/61 45/45/45
f 43/43/43 45/45/45 61/61/61
f 48/48/48 43/43/43 61/61/61
f 48/48/48 62/62/62 49/49/49
f 62/62/62 61/61/61 63/63/63
f 48/48/48 61/61/61 62/62/62
f 66/66/66 72/72/72 64/64/64
f 67/67/67 71/71/71 72/72/72
f 74/74/74 67/67/67 75/75/75
f 77/77/77 72/72/72 71/71/71
f 67/67/67 72/72/72 66/66/66
f 76/76/76 68/68/68 78/78/78
f 69/69/69 73/73/73 70/70/70
f 79/79/79 77/77/77 71/71/71
f 80/80/80 81/81/81 82/82/82
f 81/81/81 80/80/80 83/83/83
f 84/84/84 81/81/81 83/83/83
f 85/85/85 86/86/86 87/87/87
f 86/86/86 84/84/84 83/83/83
f 85/85/85 87/87/87 88/88/88
f 89/89/89 83/83/83 90/90/90
f 80/80/80 90/90/90 83/83/83
f 90/90/90 91/91/91 89/89/89
f 89/89/89 92/92/92 83/83/83
f 93/93/93 94/94/94 87/87/87
f 87/87/87 92/92/92 93/93/93
f 95/95/95 96/96/96 94/94/94
f 83/83/83 92/92/92 87/87/87
f 87/87/87 86/86/86 83/83/83
f 94/94/94 97/97/97 88/88/88
f 96/96/96 98/98/98 97/97/97
f 96/96/96 105/105/105 99/99/99
f 100/100/100 101/101/101 102/102/102
f 100/100/100 103/103/103 104/104/104
f 105/105/105 101/101/101 99/99/99
f 103/103/103 100/100/100 102/102/102
f 96/96/96 95/95/95 106/106/106
f 107/107/107 102/102/102 105/105/105
f 107/107/107 108/108/108 102/102/102
f 103/103/103 102/102/102 108/108/108
f 108/108/108 107/107/107 109/109/109
f 102/102/102 101/101/101 105/105/105
f 110/110/110 112/112/112 113/113/113
f 113/113/113 112/112/112 114/114/114
f 116/116/116 118/118/118 119/119/119
f 117/117/117 119/119/119 120/120/120
f 121/121/121 119/119/119 122/122/122
f 125/125/125 126/126/126 127/127/127
f 126/126/126 128/128/128 130/130/130
f 112/112/112 128/128/128 126/126/126
f 130/130/130 127/127/127 126/126/126
f 113/113/113 131/131/131 110/110/110
f 112/112/112 111/111/111 129/129/129
f 126/126/126 123/123/123 119/119/119
f 132/132/132 133/133/133 118/118/118
f 133/133/133 119/119/119 118/118/118
f 134/134/134 135/135/135 115/115/115
f 136/136/136 113/113/113 114/114/114
f 137/137/137 139/139/139 141/141/141
f 140/140/140 138/138/138 142/142/142
f 143/143/143 144/144/144 145/145/145
f 146/146/146 164/164/164 147/147/147
f 151/151/151 184/184/184 149/149/149
f 152/152/152 153/153/153 154/154/154
f 157/157/157 158/158/158 155/155/155
f 158/158/158 183/183/183 159/159/159
f 154/154/154 143/143/143 145/145/145
f 160/160/160 161/161/161 156/156/156
f 162/162/162 161/161/161 160/160/160
f 164/164/164 146/146/146 165/165/165
f 166/166/166 165/165/165 167/167/167
f 171/171/171 181/181/181 169/169/169
f 172/172/172 173/173/173 170/170/170
f 172/172/172 167/167/167 173/173/173
f 174/174/174 175/175/175 176/176/176
f 147/147/147 177/177/177 148/148/148
f 178/178/178 181/181/181 162/162/162
f 179/179/179 180/180/180 177/177/177
f 169/169/169 181/181/181 178/178/178
f 144/144/144 151/151/151 145/145/145
f 153/153/153 182/182/182 154/154/154
f 159/159/159 183/183/183 152/152/152
f 182/182/182 143/143/143 154/154/154
f 144/144/144 143/143/143 182/182/182
f 182/182/182 153/153/153 183/183/183
f 183/183/183 153/153/153 152/152/152
f 161/161/161 157/157/157 156/156/156
f 168/168/168 171/171/171 173/173/173
f 184/184/184 185/185/185 149/149/149
f 180/180/180 148/148/148 177/177/177
f 180/180/180 179/179/179 175/175/175
f 173/173/173 167/167/167 168/168/168
f 186/186/186 148/148/148 180/180/180
f 186/186/186 180/180/180 174/174/174
f 187/187/187 186/186/186 174/174/174
f 187/187/187 174/174/174 176/176/176
f 188/188/188 189/189/189 190/190/190
f 190/190/190 191/191/191 188/188/188
f 192/192/192 193/193/193 195/195/195
f 198/198/198 201/201/201 203/203/203
f 194/194/194 201/201/201 198/198/198
f 205/205/205 206/206/206 207/207/207
f 205/205/205 208/208/208 206/206/206
f 209/209/209 204/204/204 211/211/211
f 198/198/198 210/210/210 205/205/205
f 210/210/210 198/198/198 212/212/212
f 213/213/213 207/207/207 214/214/214
f 215/215/215 197/197/197 216/216/216
f 193/193/193 217/217/217 196/196/196
f 209/209/209 208/208/208 205/205/205
f 214/214/214 207/207/207 206/206/206
f 218/218/218 207/207/207 213/213/213
f 221/221/221 227/227/227 219/219/219
f 222/222/222 223/223/223 224/224/224
f 225/225/225 229/229/229 226/226/226
f 227/227/227 221/221/221 228/228/228
f 223/223/223 222/222/222 228/228/228
f 230/230/230 231/231/231 226/226/226
f 232/232/232 238/238/238 231/231/231
f 233/233/233 234/234/234 235/235/235
f 236/236/236 678/678/678 237/237/237
f 238/238/238 232/232/232 239/239/239
f 234/234/234 233/233/233 239/239/239
f 241/241/241 258/258/258 242/242/242
f 249/249/249 251/251/251 245/245/245
f 251/251/251 253/253/253 255/255/255
f 248/248/248 252/252/252 251/251/251
f 241/241/241 574/574/574 248/248/248
f 256/256/256 241/241/241 249/249/249
f 259/259/259 249/249/249 246/246/246
f 262/262/262 268/268/268 269/269/269
f 272/272/272 263/263/263 276/276/276
f 267/267/267 263/263/263 273/273/273
f 263/263/263 270/270/270 278/278/278
f 270/270/270 255/255/255 278/278/278
f 270/270/270 251/251/251 255/255/255
f 245/245/245 251/251/251 267/267/267
f 282/282/282 307/307/307 286/286/286
f 289/289/289 275/275/275 264/264/264
f 271/271/271 274/274/274 283/283/283
f 293/293/293 579/579/579 291/291/291
f 293/293/293 291/291/291 281/281/281
f 299/299/299 319/319/319 301/301/301
f 246/246/246 302/302/302 261/261/261
f 303/303/303 247/247/247 245/245/245
f 302/302/302 247/247/247 304/304/304
f 267/267/267 304/304/304 244/244/244
f 306/306/306 267/267/267 273/273/273
f 304/304/304 267/267/267 305/305/305
f 283/283/283 306/306/306 273/273/273
f 305/305/305 283/283/283 309/309/309
f 311/311/311 281/281/281 291/291/291
f 309/309/309 279/279/279 313/313/313
f 316/316/316 321/321/321 318/318/318
f 322/322/322 300/300/300 318/318/318
f 291/291/291 295/295/295 301/301/301
f 311/311/311 290/290/290 323/323/323
f 312/312/312 310/310/310 323/323/323
f 318/318/318 299/299/299 325/325/325
f 325/325/325 299/299/299 329/329/329
f 320/320/320 326/326/326 315/315/315
f 331/331/331 333/333/333 335/335/335
f 341/341/341 332/332/332 336/336/336
f 342/342/342 336/336/336 335/335/335
f 328/328/328 343/343/343 334/334/334
f 347/347/347 349/349/349 339/339/339
f 351/351/351 340/340/340 337/337/337
f 352/352/352 368/368/368 339/339/339
f 331/331/331 341/341/341 348/348/348
f 355/355/355 362/362/362 358/358/358
f 363/363/363 371/371/371 366/366/366
f 369/369/369 364/364/364 346/346/346
f 364/364/364 369/369/369 370/370/370
f 355/355/355 392/392/392 350/350/350
f 373/373/373 374/374/374 379/379/379
f 302/302/302 304/304/304 381/381/381
f 304/304/304 305/305/305 383/383/383
f 383/383/383 305/305/305 309/309/309
f 384/384/384 309/309/309 313/313/313
f 317/317/317 385/385/385 312/312/312
f 386/386/386 316/316/316 315/315/315
f 386/386/386 429/429/429 385/385/385
f 388/388/388 386/386/386 315/315/315
f 389/389/389 333/333/333 330/330/330
f 390/390/390 435/435/435 388/388/388
f 348/348/348 389/389/389 330/330/330
f 393/393/393 438/438/438 389/389/389
f 395/395/395 355/355/355 354/354/354
f 395/395/395 447/447/447 391/391/391
f 398/398/398 395/395/395 354/354/354
f 399/399/399 374/374/374 372/372/372
f 398/398/398 376/376/376 403/403/403
f 401/401/401 372/372/372 411/411/411
f 402/402/402 400/400/400 410/410/410
f 419/419/419 382/382/382 381/381/381
f 381/381/381 383/383/383 421/421/421
f 383/383/383 384/384/384 425/425/425
f 384/384/384 385/385/385 426/426/426
f 430/430/430 386/386/386 431/431/431
f 385/385/385 428/428/428 427/427/427
f 431/431/431 386/386/386 388/388/388
f 434/434/434 389/389/389 437/437/437
f 388/388/388 435/435/435 433/433/433
f 438/438/438 393/393/393 441/441/441
f 389/389/389 439/439/439 437/437/437
f 445/445/445 395/395/395 448/448/448
f 391/391/391 447/447/447 441/441/441
f 450/450/450 530/530/530 397/397/397
f 450/450/450 452/452/452 457/457/457
f 455/455/455 450/450/450 405/405/405
f 403/403/403 415/415/415 461/461/461
f 463/463/463 620/620/620 456/456/456
f 465/465/465 418/418/418 467/467/467
f 420/420/420 464/464/464 468/468/468
f 418/418/418 465/465/465 419/419/419
f 470/470/470 422/422/422 472/472/472
f 418/418/418 470/470/470 467/467/467
f 421/421/421 470/470/470 418/418/418
f 475/475/475 424/424/424 478/478/478
f 422/422/422 475/475/475 472/472/472
f 425/425/425 475/475/475 421/421/421
f 480/480/480 482/482/482 484/484/484
f 482/482/482 480/480/480 426/426/426
f 423/423/423 481/481/481 476/476/476
f 490/490/490 564/564/564 487/487/487
f 492/492/492 490/490/490 487/487/487
f 487/487/487 430/430/430 432/432/432
f 482/482/482 427/427/427 428/428/428
f 487/487/487 483/483/483 482/482/482
f 494/494/494 496/496/496 492/492/492
f 496/496/496 565/565/565 488/488/488
f 499/499/499 619/619/619 494/494/494
f 493/493/493 431/431/431 433/433/433
f 502/502/502 507/507/507 509/509/509
f 512/512/512 618/618/618 504/504/504
f 506/506/506 501/501/501 500/500/500
f 435/435/435 437/437/437 508/508/508
f 433/433/433 435/435/435 505/505/505
f 511/511/511 503/503/503 516/516/516
f 438/438/438 443/443/443 516/516/516
f 437/437/437 503/503/503 510/510/510
f 439/439/439 501/501/501 436/436/436
f 445/445/445 449/449/449 519/519/519
f 523/523/523 516/516/516 444/444/444
f 516/516/516 524/524/524 511/511/511
f 525/525/525 514/514/514 523/523/523
f 526/526/526 626/626/626 451/451/451
f 532/532/532 534/534/534 538/538/538
f 533/533/533 568/568/568 541/541/541
f 535/535/535 532/532/532 539/539/539
f 464/464/464 466/466/466 535/535/535
f 468/468/468 465/465/465 539/539/539
f 540/540/540 541/541/541 543/543/543
f 545/545/545 554/554/554 548/548/548
f 536/536/536 552/552/552 544/544/544
f 552/552/552 472/472/472 549/549/549
f 472/472/472 553/553/553 471/471/471
f 467/467/467 471/471/471 535/535/535
f 537/537/537 535/535/535 552/552/552
f 559/559/559 475/475/475 556/556/556
f 546/546/546 474/474/474 560/560/560
f 475/475/475 547/547/547 473/473/473
f 484/484/484 615/615/615 561/561/561
f 555/555/555 477/477/477 479/479/479
f 562/562/562 488/488/488 565/565/565
f 567/567/567 541/541/541 568/568/568
f 569/569/569 566/566/566 570/570/570
f 569/569/569 542/542/542 541/541/541
f 240/240/240 571/571/571 572/572/572
f 572/572/572 241/241/241 240/240/240
f 240/240/240 242/242/242 573/573/573
f 241/241/241 572/572/572 575/575/575
f 278/278/278 254/254/254 575/575/575
f 256/256/256 260/260/260 243/243/243
f 576/576/576 260/260/260 302/302/302
f 576/576/576 573/573/573 242/242/242
f 577/577/577 579/579/579 293/293/293
f 275/275/275 288/288/288 285/285/285
f 295/295/295 579/579/579 296/296/296
f 287/287/287 578/578/578 293/293/293
f 299/299/299 296/296/296 582/582/582
f 352/352/352 336/336/336 583/583/583
f 345/345/345 582/582/582 584/584/584
f 352/352/352 371/371/371 368/368/368
f 328/328/328 581/581/581 342/342/342
f 344/344/344 585/585/585 336/336/336
f 298/298/298 581/581/581 329/329/329
f 354/354/354 359/359/359 588/588/588
f 590/590/590 588/588/588 360/360/360
f 592/592/592 377/377/377 586/586/586
f 592/592/592 588/588/588 589/589/589
f 593/593/593 379/379/379 591/591/591
f 360/360/360 367/367/367 590/590/590
f 596/596/596 377/377/377 594/594/594
f 597/597/597 372/372/372 598/598/598
f 599/599/599 373/373/373 377/377/377
f 413/413/413 373/373/373 597/597/597
f 601/601/601 410/410/410 412/412/412
f 414/414/414 607/607/607 602/602/602
f 604/604/604 608/608/608 414/414/414
f 605/605/605 407/407/407 600/600/600
f 406/406/406 606/606/606 604/604/604
f 603/603/603 610/610/610 460/460/460
f 611/611/611 569/569/569 612/612/612
f 611/611/611 468/468/468 569/569/569
f 611/611/611 420/420/420 468/468/468
f 570/570/570 616/616/616 612/612/612
f 555/555/555 561/561/561 613/613/613
f 484/484/484 563/563/563 615/615/615
f 614/614/614 558/558/558 556/556/556
f 614/614/614 561/561/561 615/615/615
f 558/558/558 614/614/614 551/551/551
f 616/616/616 570/570/570 567/567/567
f 538/538/538 544/544/544 532/532/532
f 517/517/517 449/449/449 530/530/530
f 513/513/513 525/525/525 617/617/617
f 456/456/456 620/620/620 528/528/528
f 463/463/463 459/459/459 609/609/609
f 531/531/531 621/621/621 623/623/623
f 622/622/622 530/530/530 627/627/627
f 624/624/624 518/518/518 530/530/530
f 517/517/517 625/625/625 525/525/525
f 497/497/497 619/619/619 565/565/565
f 565/565/565 615/615/615 563/563/563
f 499/499/499 618/618/618 619/619/619
f 628/628/628 629/629/629 631/631/631
f 632/632/632 628/628/628 631/631/631
f 635/635/635 632/632/632 638/638/638
f 639/639/639 631/631/631 640/640/640
f 639/639/639 641/641/641 631/631/631
f 638/638/638 631/631/631 641/641/641
f 637/637/637 633/633/633 630/630/630
f 643/643/643 648/648/648 634/634/634
f 645/645/645 646/646/646 650/650/650
f 652/652/652 654/654/654 655/655/655
f 645/645/645 652/652/652 655/655/655
f 653/653/653 644/644/644 651/651/651
f 649/649/649 647/647/647 642/642/642
f 656/656/656 657/657/657 652/652/652
f 652/652/652 650/650/650 656/656/656
f 658/658/658 652/652/652 657/657/657
f 659/659/659 660/660/660 661/661/661
f 662/662/662 659/659/659 661/661/661
f 663/663/663 659/659/659 664/664/664
f 662/662/662 665/665/665 666/666/666
f 661/661/661 665/665/665 662/662/662
f 662/662/662 664/664/664 659/659/659
f 664/664/664 673/673/673 667/667/667
f 668/668/668 667/667/667 669/669/669
f 668/668/668 670/670/670 671/671/671
f 670/670/670 668/668/668 672/672/672
f 669/669/669 667/667/667 673/673/673
f 669/669/669 674/674/674 672/672/672
f 669/669/669 672/672/672 668/668/668
f 15/15/15 52/52/52 51/51/51
f 16/16/16 15/15/15 55/55/55
f 87/87/87 94/94/94 88/88/88
f 95/95/95 94/94/94 93/93/93
f 96/96/96 106/106/106 105/105/105
f 107/107/107 105/105/105 106/106/106
f 122/122/122 119/119/119 124/124/124
f 194/194/194 676/676/676 200/200/200
f 193/193/193 192/192/192 676/676/676
f 199/199/199 677/677/677 212/212/212
f 198/198/198 202/202/202 677/677/677
f 223/223/223 225/225/225 224/224/224
f 227/227/227 228/228/228 222/222/222
f 234/234/234 236/236/236 235/235/235
f 238/238/238 239/239/239 233/233/233
f 255/255/255 253/253/253 277/277/277
f 265/265/265 278/278/278 288/288/288
f 283/283/283 275/275/275 285/285/285
f 282/282/282 287/287/287 293/293/293
f 300/300/300 294/294/294 296/296/296
f 333/333/333 387/387/387 326/326/326
f 333/333/333 325/325/325 334/334/334
f 356/356/356 347/347/347 363/363/363
f 375/375/375 587/587/587 378/378/378
f 354/354/354 588/588/588 396/396/396
f 449/449/449 395/395/395 396/396/396
f 457/457/457 453/453/453 459/459/459
f 499/499/499 495/495/495 505/505/505
f 525/525/525 522/522/522 520/520/520
f 521/521/521 442/442/442 446/446/446
f 527/527/527 450/450/450 457/457/457
f 550/550/550 549/549/549 557/557/557
f 13/13/13 14/14/14 12/12/12
f 22/22/22 23/23/23 24/24/24
f 27/27/27 28/28/28 29/29/29
f 31/31/31 27/27/27 29/29/29
f 32/32/32 33/33/33 34/34/34
f 36/36/36 32/32/32 34/34/34
f 43/43/43 47/47/47 44/44/44
f 20/20/20 57/57/57 18/18/18
f 57/57/57 25/25/25 22/22/22
f 35/35/35 60/60/60 39/39/39
f 60/60/60 45/45/45 37/37/37
f 66/66/66 64/64/64 65/65/65
f 96/96/96 97/97/97 94/94/94
f 96/96/96 99/99/99 98/98/98
f 146/146/146 147/147/147 148/148/148
f 151/151/151 149/149/149 150/150/150
f 157/157/157 155/155/155 156/156/156
f 158/158/158 159/159/159 155/155/155
f 162/162/162 160/160/160 163/163/163
f 164/164/164 165/165/165 166/166/166
f 165/165/165 168/168/168 167/167/167
f 171/171/171 169/169/169 170/170/170
f 173/173/173 171/171/171 170/170/170
f 178/178/178 162/162/162 163/163/163
f 151/151/151 150/150/150 145/145/145
f 180/180/180 175/175/175 174/174/174
f 221/221/221 219/219/219 220/220/220
f 225/225/225 226/226/226 224/224/224
f 230/230/230 226/226/226 229/229/229
f 232/232/232 231/231/231 230/230/230
f 236/236/236 237/237/237 235/235/235
f 241/241/241 242/242/242 240/240/240
f 248/248/248 245/245/245 247/247/247
f 574/574/574 253/253/253 249/249/249
f 257/257/257 246/246/246 260/260/260
f 250/250/250 270/270/270 266/266/266
f 308/308/308 283/283/283 284/284/284
f 580/580/580 295/295/295 292/292/292
f 299/299/299 301/301/301 297/297/297
f 280/280/280 310/310/310 312/312/312
f 316/316/316 318/318/318 314/314/314
f 291/291/291 301/301/301 324/324/324
f 313/313/313 323/323/323 316/316/316
f 331/331/331 334/334/334 336/336/336
f 328/328/328 334/334/334 327/327/327
f 368/368/368 347/347/347 338/338/338
f 355/355/355 358/358/358 353/353/353
f 361/361/361 365/365/365 357/357/357
f 355/355/355 350/350/350 347/347/347
f 302/302/302 381/381/381 382/382/382
f 304/304/304 383/383/383 381/381/381
f 383/383/383 309/309/309 384/384/384
f 384/384/384 313/313/313 385/385/385
f 386/386/386 385/385/385 316/316/316
f 390/390/390 388/388/388 333/333/333
f 393/393/393 389/389/389 350/350/350
f 394/394/394 391/391/391 355/355/355
f 376/376/376 401/401/401 403/403/403
f 372/372/372 413/413/413 411/411/411
f 405/405/405 409/409/409 417/417/417
f 419/419/419 381/381/381 418/418/418
f 381/381/381 421/421/421 418/418/418
f 383/383/383 425/425/425 421/421/421
f 384/384/384 426/426/426 425/425/425
f 431/431/431 388/388/388 433/433/433
f 529/529/529 449/449/449 398/398/398
f 450/450/450 398/398/398 403/403/403
f 404/404/404 462/462/462 454/454/454
f 463/463/463 456/456/456 458/458/458
f 480/480/480 424/424/424 426/426/426
f 562/562/562 484/484/484 485/485/485
f 486/486/486 432/432/432 491/491/491
f 482/482/482 428/428/428 487/487/487
f 496/496/496 489/489/489 493/493/493
f 619/619/619 496/496/496 495/495/495
f 493/493/493 433/433/433 495/495/495
f 617/617/617 498/498/498 502/502/502
f 435/435/435 508/508/508 505/505/505
f 433/433/433 505/505/505 495/495/495
f 440/440/440 515/515/515 503/503/503
f 445/445/445 519/519/519 523/523/523
f 627/627/627 530/530/530 450/450/450
f 533/533/533 541/541/541 539/539/539
f 464/464/464 535/535/535 539/539/539
f 468/468/468 539/539/539 543/543/543
f 544/544/544 549/549/549 550/550/550
f 470/470/470 552/552/552 535/535/535
f 475/475/475 478/478/478 556/556/556
f 484/484/484 561/561/561 480/480/480
f 555/555/555 479/479/479 561/561/561
f 569/569/569 541/541/541 567/567/567
f 240/240/240 573/573/573 571/571/571
f 260/260/260 576/576/576 242/242/242
f 288/288/288 577/577/577 285/285/285
f 599/599/599 380/380/380 595/595/595
f 414/414/414 603/603/603 458/458/458
f 604/604/604 416/416/416 408/408/408
f 469/469/469 542/542/542 569/569/569
f 570/570/570 612/612/612 569/569/569
f 642/642/642 636/636/636 637/637/637
f 664/664/664 667/667/667 663/663/663
f 388/388/388 315/315/315 325/325/325
f 588/588/588 374/374/374 396/396/396

