mtllib material.mtl
usemtl Material-塑胶__7_.001
v -0.36200200 0.02672000 -0.02496400
v -0.36450900 0.02644600 -0.02219700
v -0.36247600 0.02772100 -0.02165100
v -0.36450900 0.02508100 -0.02544700
v -0.36016900 0.02787900 -0.02416600
v -0.36450900 0.02734200 -0.01903400
v -0.36199300 0.02902000 -0.01687000
v -0.36236700 0.02839800 -0.01926700
v -0.36450900 0.02786000 -0.01578700
v -0.36021100 0.02896900 -0.02085200
v -0.36016300 0.02955100 -0.01827300
v -0.36846600 0.02528400 -0.01552900
v -0.36846600 0.02400000 -0.02134700
v -0.37205600 0.02209600 -0.01521000
v -0.37504900 0.01851600 -0.01485200
v -0.37205600 0.02097400 -0.02029500
v -0.37751300 0.01448400 -0.01444900
v -0.37504900 0.01757600 -0.01911300
v -0.37944300 0.00985900 -0.01398600
v -0.37751300 0.01374800 -0.01778100
v -0.38062000 0.00499100 -0.01349900
v -0.38062000 0.00473800 -0.01464800
v -0.38101600 0.00000000 -0.01300000
v -0.36226300 0.02908700 -0.01114100
v -0.36450900 0.02768900 -0.00884400
v -0.36242500 0.02860300 -0.00783300
v -0.36450900 0.02799100 -0.01231000
v -0.36201100 0.02923900 -0.01408000
v -0.36017900 0.02984100 -0.00974800
v -0.36846600 0.02512900 -0.00922900
v -0.37205600 0.02196100 -0.00970400
v -0.37504900 0.01840300 -0.01023800
v -0.37751300 0.01439500 -0.01084000
v -0.37944300 0.00979900 -0.01152900
v -0.38062000 0.00496100 -0.01225500
v -0.38101600 0.00000000 -0.01300000
v -0.36208100 0.02761700 -0.00343900
v -0.36450900 0.02592300 -0.00241700
v -0.36209300 0.02665600 -0.00100900
v -0.36450900 0.02699800 -0.00557800
v -0.36177000 0.02838200 -0.00545600
v -0.36015400 0.02949100 -0.00734700
v -0.36014200 0.02844000 -0.00336900
v -0.36015000 0.02727400 -0.00046300
v -0.36846600 0.02352500 -0.00339600
v -0.37205600 0.02056000 -0.00460700
v -0.37504900 0.01722900 -0.00596700
v -0.37751300 0.01347600 -0.00749800
v -0.37944300 0.00917400 -0.00925500
v -0.38062000 0.00464400 -0.01110400
v -0.38101600 0.00000000 -0.01300000
v -0.36450900 0.02447900 0.00059300
v -0.36219400 0.02424800 0.00323600
v -0.36175200 0.02572400 0.00118800
v -0.36450900 0.02268700 0.00341000
v -0.36016000 0.02572500 0.00248400
v -0.36014400 0.02384500 0.00523700
v -0.36846600 0.02058900 0.00189200
v -0.37205600 0.01799300 0.00001500
v -0.37504900 0.01507800 -0.00209400
v -0.37751300 0.01179400 -0.00446900
v -0.37944300 0.00802900 -0.00719300
v -0.38062000 0.00406500 -0.01006000
v -0.38101600 0.00000000 -0.01300000
v -0.36215100 0.02074600 0.00755100
v -0.36450900 0.01816500 0.00830700
v -0.36179600 0.01911700 0.00927800
v -0.36450900 0.02057200 0.00599400
v -0.36186300 0.02266400 0.00561500
v -0.36846600 0.01648500 0.00633700
v -0.37205600 0.01440700 0.00389900
v -0.37504900 0.01207300 0.00116100
v -0.37751300 0.00944300 -0.00192300
v -0.37944300 0.00642800 -0.00546000
v -0.38062000 0.00325400 -0.00918300
v -0.38101600 0.00000000 -0.01300000
v -0.36450900 0.01538300 0.01039500
v -0.36244600 0.01367800 0.01263500
v -0.36177000 0.01591600 0.01167900
v -0.36450900 0.01236400 0.01212200
v -0.36236700 0.01745600 0.01026000
v -0.36017200 0.01842000 0.01069700
v -0.36018600 0.01468800 0.01317600
v -0.36017700 0.01228300 0.01439400
v -0.36846600 0.01122100 0.00979800
v -0.37205600 0.00980600 0.00692400
v -0.37504900 0.00821700 0.00369600
v -0.37751300 0.00642800 0.00006000
v -0.37944300 0.00437600 -0.00411000
v -0.38062000 0.00221500 -0.00849900
v -0.38101600 0.00000000 -0.01300000
v -0.36450900 0.00919700 0.01344600
v -0.36239900 0.00711400 0.01519600
v -0.36165400 0.00979500 0.01474200
v -0.36450900 0.00589300 0.01437200
v -0.36236700 0.01121900 0.01383100
v -0.36020000 0.00743300 0.01607400
v -0.36018800 0.00589500 0.01643100
v -0.36013400 0.00949300 0.01547600
v -0.36846600 0.00534800 0.01184100
v -0.37205600 0.00467300 0.00870900
v -0.37504900 0.00391600 0.00519200
v -0.37751300 0.00306300 0.00123000
v -0.37944300 0.00208500 -0.00331300
v -0.38062000 0.00105600 -0.00809600
v -0.38101600 0.00000000 -0.01300000
v -0.36450900 0.00255000 0.01488300
v -0.36207700 0.00024300 0.01623700
v -0.36197200 0.00237600 0.01617500
v -0.36450900 -0.00083000 0.01498700
v -0.36236700 0.00439200 0.01574800
v -0.36017000 0.00373800 0.01678400
v -0.36014500 0.00159600 0.01696600
v -0.36846600 -0.00075300 0.01239900
v -0.37205600 -0.00065800 0.00919700
v -0.37504900 -0.00055200 0.00560100
v -0.37751300 -0.00043200 0.00155000
v -0.37944300 -0.00029400 -0.00309600
v -0.38062000 -0.00014900 -0.00798600
v -0.38101600 0.00000000 -0.01300000
v -0.36207600 -0.00532300 0.01574800
v -0.36450900 -0.00742200 0.01399800
v -0.36115300 -0.00780400 0.01559900
v -0.36450900 -0.00415600 0.01468900
v -0.36186600 -0.00251400 0.01622000
v -0.36016500 -0.00606400 0.01638700
v -0.36846600 -0.00673500 0.01150100
v -0.37205600 -0.00588600 0.00841200
v -0.37504900 -0.00493300 0.00494300
v -0.37751300 -0.00385800 0.00103500
v -0.37944300 -0.00262700 -0.00344600
v -0.38062000 -0.00133000 -0.00816300
v -0.38101600 0.00000000 -0.01300000
v -0.36207100 -0.01217700 0.01358400
v -0.36450900 -0.01359300 0.01147900
v -0.36189400 -0.01439500 0.01252900
v -0.36450900 -0.01058300 0.01292300
v -0.36192800 -0.00944700 0.01473300
v -0.36846600 -0.01233600 0.00921500
v -0.37205600 -0.01078100 0.00641400
v -0.37504900 -0.00903400 0.00326900
v -0.37751300 -0.00706700 -0.00027400
v -0.37944300 -0.00481000 -0.00433700
v -0.38062000 -0.00243500 -0.00861400
v -0.38101600 0.00000000 -0.01300000
v -0.36181100 -0.01849600 0.00979900
v -0.36450900 -0.01899400 0.00757200
v -0.36203900 -0.02065300 0.00772200
v -0.36450900 -0.01641000 0.00968700
v -0.36243000 -0.01614600 0.01116200
v -0.36016500 -0.01651700 0.01208400
v -0.36846600 -0.01723700 0.00567000
v -0.37205600 -0.01506400 0.00331600
v -0.37504900 -0.01262300 0.00067300
v -0.37751300 -0.00987400 -0.00230500
v -0.37944300 -0.00672200 -0.00572000
v -0.38063700 -0.00340300 -0.00931400
v -0.38101600 0.00000000 -0.01300000
v -0.36450900 -0.02130700 0.00516500
v -0.36164800 -0.02220500 0.00630300
v -0.36015100 0.02498400 -0.02960700
v -0.36204700 0.02535800 -0.02755900
v -0.36014800 0.02648700 -0.02708800
v -0.36016100 0.02999300 -0.01260900
v -0.36008900 0.02990600 -0.01562100
v -0.36014300 0.02050300 0.00892200
v -0.36007500 0.02180500 0.00765200
v -0.36456300 0.02329200 -0.02848300
v -0.36861700 0.02106500 -0.02700200
v -0.37528700 0.01521600 -0.02311400
v -0.37221900 0.01835200 -0.02519900
v -0.37955000 0.00797300 -0.01830000
v -0.37944300 0.00935900 -0.01625500
v -0.37774900 0.01173000 -0.02079700
v -0.38101600 0.00000000 -0.01300000
v -0.38064600 0.00403300 -0.01568100
v -0.36015100 0.01660700 0.01198400
v -0.36015000 -0.01390400 0.01358400
v -0.36013900 -0.01967900 0.00966700
v -0.36009300 -0.02162900 0.00781400
v -0.36009700 -0.01097200 0.01494000
v -0.36202000 -0.02330500 0.00468100
v -0.36015100 -0.02498400 0.00360700
v -0.36015300 -0.02320700 0.00601100
v -0.36010400 -0.00063800 0.01701200
v -0.36013600 -0.00366400 0.01679400
v -0.37528700 -0.01521600 -0.00288600
v -0.37221900 -0.01835200 -0.00080100
v -0.36861700 -0.02106500 0.00100200
v -0.37955000 -0.00797300 -0.00770000
v -0.37774900 -0.01173000 -0.00520300
v -0.36456300 -0.02329200 0.00248300
v -0.35815100 -0.02317600 0.00604900
v -0.36009300 -0.02162900 0.00781400
v -0.36015300 -0.02320700 0.00601100
v -0.35615100 -0.02124900 0.00816600
v -0.36015100 -0.02498400 0.00360700
v -0.36013900 -0.01967900 0.00966700
v -0.35815000 -0.01887100 0.01032100
v -0.36016500 -0.01651700 0.01208400
v -0.35615100 -0.01155300 0.01468100
v -0.36009700 -0.01097200 0.01494000
v -0.36015000 -0.01390400 0.01358400
v -0.35815100 -0.01389000 0.01359100
v -0.35615100 -0.00589300 0.01640600
v -0.35993400 -0.00775300 0.01599800
v -0.35815100 -0.00847400 0.01577800
v -0.36016500 -0.00606400 0.01638700
v -0.35615100 -0.00005000 0.01699200
v -0.36010400 -0.00063800 0.01701200
v -0.35814800 -0.00276000 0.01687200
v -0.36013600 -0.00366400 0.01679400
v -0.36018800 0.00589500 0.01643100
v -0.36017000 0.00373800 0.01678400
v -0.35815100 0.00305300 0.01684400
v -0.36014500 0.00159600 0.01696600
v -0.36013400 0.00949300 0.01547600
v -0.35615100 0.01140500 0.01473900
v -0.36017700 0.01228300 0.01439400
v -0.35813900 0.00874400 0.01569600
v -0.36020000 0.00743300 0.01607400
v -0.35813500 0.01410100 0.01347800
v -0.36018600 0.01468800 0.01317600
v -0.36015100 -0.01660700 -0.03798400
v -0.35615100 -0.01660700 -0.03798400
v -0.35615100 -0.02116200 -0.03426400
v -0.36015100 -0.02116200 -0.03426400
v -0.35615100 -0.02490400 -0.02972700
v -0.36015100 -0.02768900 -0.02454700
v -0.35615100 -0.02768900 -0.02454700
v -0.35615100 -0.02940900 -0.01892300
v -0.36015100 -0.03000000 -0.01307200
v -0.35615100 -0.03000000 -0.01307200
v -0.35615100 -0.02943800 -0.00721800
v -0.36015100 -0.02940900 -0.01892300
v -0.36015100 -0.02490400 -0.02972700
v -0.36015100 -0.02943800 -0.00721800
v -0.35615100 -0.02774400 -0.00158600
v -0.36015100 -0.02774400 -0.00158600
v -0.35615100 -0.01672700 0.01190400
v -0.35615100 -0.02498400 0.00360700
v -0.35615100 0.00578200 0.01643800
v -0.35615100 0.01660700 0.01198400
v -0.36015100 0.01660700 0.01198400
v -0.35815100 0.01904900 0.01017600
v -0.36014300 0.02050300 0.00892200
v -0.36017200 0.01842000 0.01069700
v -0.36007500 0.02180500 0.00765200
v -0.36014400 0.02384500 0.00523700
v -0.35815100 0.02511200 0.00341200
v -0.36016000 0.02572500 0.00248400
v -0.35615300 0.02348000 0.00566000
v -0.35615100 0.02808400 -0.00247200
v -0.36015000 0.02727400 -0.00046300
v -0.35615100 0.02619500 0.00161000
v -0.35815100 0.02877800 -0.00452600
v -0.36015400 0.02949100 -0.00734700
v -0.36014200 0.02844000 -0.00336900
v -0.35815100 0.03000000 -0.01315000
v -0.36016100 0.02999300 -0.01260900
v -0.36017900 0.02984100 -0.00974800
v -0.35815100 0.02940900 -0.01892700
v -0.36016300 0.02955100 -0.01827300
v -0.36008900 0.02990600 -0.01562100
v -0.35615400 0.02885400 -0.02119900
v -0.36016900 0.02787900 -0.02416600
v -0.36021100 0.02896900 -0.02085200
v -0.35815100 0.02647400 -0.02711100
v -0.36014800 0.02648700 -0.02708800
v -0.35615100 0.00586400 -0.04241800
v -0.35911600 0.00568300 -0.04245400
v -0.35779400 0.00835100 -0.04182900
v -0.36016500 0.00006600 -0.04299300
v -0.35615200 0.00026400 -0.04305100
v -0.35906500 -0.00281100 -0.04287600
v -0.35650700 0.00326900 -0.04283300
v -0.35915200 0.00275400 -0.04287300
v -0.35615100 0.01660700 0.01198400
v -0.36015100 0.01660700 0.01198400
v -0.35615100 0.02031100 0.00907700
v -0.35615100 0.02940900 -0.00708000
v -0.35615100 0.02997400 -0.01175400
v -0.35615100 0.02979900 -0.01645900
v -0.36015100 0.02126400 -0.03416200
v -0.35615100 0.02207300 -0.03331600
v -0.35615100 0.01862300 -0.03652000
v -0.36015100 0.02498400 -0.02960700
v -0.35615500 0.02490900 -0.02973400
v -0.36015100 0.01672700 -0.03790400
v -0.35782600 0.01128600 -0.04080000
v -0.36015100 0.01154700 -0.04068900
v -0.36015100 0.00592300 -0.04240900
v -0.35615100 0.01044200 -0.04112400
v -0.35615100 0.01471300 -0.03914300
v -0.35615100 0.02727100 -0.02550000
v -0.36015100 -0.00578200 -0.04243800
v -0.35727000 -0.00611500 -0.04238100
v -0.36015100 -0.01141400 -0.04074400
v -0.35615100 -0.00863700 -0.04173000
v -0.35665100 -0.00305300 -0.04284400
v -0.35615100 -0.01660700 -0.03798400
v -0.36015100 -0.01660700 -0.03798400
v -0.36846700 -0.02485900 -0.01826300
v -0.36450900 -0.02739200 -0.01879900
v -0.36846700 -0.02499300 -0.00841700
v -0.37205600 -0.02172500 -0.01759900
v -0.37205600 -0.02184200 -0.00899400
v -0.37504900 -0.01820500 -0.01685400
v -0.37751400 -0.01424000 -0.01601500
v -0.37751400 -0.01431700 -0.01037400
v -0.37944300 -0.00969400 -0.01505200
v -0.38062000 -0.00490800 -0.01403900
v -0.38062000 -0.00493400 -0.01209500
v -0.38101600 0.00000000 -0.01300000
v -0.36846700 -0.02102300 -0.02727100
v -0.36450900 -0.02316600 -0.02872600
v -0.37205600 -0.01837300 -0.02547200
v -0.37504900 -0.01539600 -0.02345200
v -0.37751400 -0.01204300 -0.02117500
v -0.37944300 -0.00819800 -0.01856500
v -0.38062000 -0.00415000 -0.01581700
v -0.38101600 0.00000000 -0.01300000
v -0.36846700 -0.01406600 -0.03416100
v -0.36450900 -0.01550000 -0.03631800
v -0.37205600 -0.01229300 -0.03149400
v -0.37504900 -0.01030100 -0.02849700
v -0.37751400 -0.00805800 -0.02512200
v -0.37944300 -0.00548500 -0.02125200
v -0.38062000 -0.00277700 -0.01717800
v -0.38101600 0.00000000 -0.01300000
v -0.36846700 -0.00458300 -0.03799300
v -0.36450900 -0.00505000 -0.04054000
v -0.37205600 -0.00400600 -0.03484200
v -0.37504900 -0.00335700 -0.03130300
v -0.37751400 -0.00262600 -0.02731700
v -0.37944300 -0.00178700 -0.02274600
v -0.38062000 -0.00090500 -0.01793400
v -0.38101600 0.00000000 -0.01300000
v -0.36846700 0.00526300 -0.03785900
v -0.36450900 0.00579900 -0.04039200
v -0.37205600 0.00459900 -0.03472500
v -0.37504900 0.00385400 -0.03120500
v -0.37751400 0.00301500 -0.02724000
v -0.37944300 0.00205200 -0.02269400
v -0.38062000 0.00103900 -0.01790700
v -0.38101600 0.00000000 -0.01300000
v -0.36846700 0.01427100 -0.03402300
v -0.36450900 0.01572600 -0.03616600
v -0.37205600 0.01247200 -0.03137300
v -0.37504900 0.01045200 -0.02839600
v -0.37751400 0.00817500 -0.02504300
v -0.37944300 0.00556500 -0.02119800
v -0.38062000 0.00281700 -0.01715000
v -0.38101600 0.00000000 -0.01300000
v -0.36456300 -0.02329200 0.00248300
v -0.36015100 -0.02774400 -0.00158600
v -0.36015100 -0.02498400 0.00360700
v -0.36450900 -0.02754000 -0.00795000
v -0.36015100 -0.02943800 -0.00721800
v -0.36015100 -0.03000000 -0.01307200
v -0.36015100 -0.02940900 -0.01892300
v -0.36015100 -0.02768900 -0.02454700
v -0.36015100 -0.02490400 -0.02972700
v -0.36015100 -0.01660700 -0.03798400
v -0.36015100 -0.02116200 -0.03426400
v -0.37221900 -0.01835200 -0.00080100
v -0.36861700 -0.02106500 0.00100200
v -0.37528700 -0.01521600 -0.00288600
v -0.37504900 -0.01830300 -0.00964300
v -0.37955000 -0.00797300 -0.00770000
v -0.37944300 -0.00974600 -0.01121300
v -0.37774900 -0.01173000 -0.00520300
v -0.38101600 0.00000000 -0.01300000
v -0.38063700 -0.00340300 -0.00931400
v -0.36015100 -0.00578200 -0.04243800
v -0.36015100 -0.01141400 -0.04074400
v -0.36016500 0.00006600 -0.04299300
v -0.36015100 0.00592300 -0.04240900
v -0.36015100 0.01672700 -0.03790400
v -0.36015100 0.01154700 -0.04068900
v -0.36015100 0.02126400 -0.03416200
v -0.36456300 0.02329200 -0.02848300
v -0.36015100 0.02498400 -0.02960700
v -0.36861700 0.02106500 -0.02700200
v -0.37221900 0.01835200 -0.02519900
v -0.37528700 0.01521600 -0.02311400
v -0.37955000 0.00797300 -0.01830000
v -0.37774900 0.01173000 -0.02079700
v -0.38064600 0.00403300 -0.01568100
v -0.35615100 0.02727100 -0.02550000
v -0.35615100 0.02727100 -0.02550000
v -0.35615100 0.01862300 -0.03652000
v -0.35615100 0.01862300 -0.03652000
v -0.35615100 0.02207300 -0.03331600
v -0.35615100 -0.02490400 -0.02972700
v -0.35615100 0.01044200 -0.04112400
v -0.35615100 0.01044200 -0.04112400
v -0.35615100 -0.02768900 -0.02454700
v -0.35615100 -0.02768900 -0.02454700
v -0.35615100 -0.02774400 -0.00158600
v -0.35615100 -0.02774400 -0.00158600
v -0.35615100 -0.02774400 -0.00158600
v -0.35615100 -0.01155300 0.01468100
v -0.35615100 -0.01155300 0.01468100
v -0.35615100 0.00586400 -0.04241800
v -0.35615200 0.00026400 -0.04305100
v -0.35615100 0.01471300 -0.03914300
v -0.35615500 0.02490900 -0.02973400
v -0.35615400 0.02885400 -0.02119900
v -0.35615100 0.02979900 -0.01645900
v -0.35615100 0.02979900 -0.01645900
v -0.35615100 0.02997400 -0.01175400
v -0.35615100 0.02940900 -0.00708000
v -0.35615100 0.02940900 -0.00708000
v -0.35615100 0.02808400 -0.00247200
v -0.35615100 0.02808400 -0.00247200
v -0.35615100 -0.00863700 -0.04173000
v -0.35615100 -0.01660700 -0.03798400
v -0.35615100 -0.02116200 -0.03426400
v -0.35615100 0.02031100 0.00907700
v -0.35615100 0.02031100 0.00907700
v -0.35615100 0.02619500 0.00161000
v -0.35615100 0.02619500 0.00161000
v -0.35615300 0.02348000 0.00566000
v -0.35615100 0.01660700 0.01198400
v -0.35615100 0.01140500 0.01473900
v -0.35615100 0.00578200 0.01643800
v -0.35615100 0.00578200 0.01643800
v -0.35615100 -0.02943800 -0.00721800
v -0.35615100 -0.02940900 -0.01892300
v -0.35615100 -0.03000000 -0.01307200
v -0.35615100 -0.03000000 -0.01307200
v -0.35615100 -0.02124900 0.00816600
v -0.35615100 -0.02124900 0.00816600
v -0.35615100 -0.02498400 0.00360700
v -0.35615100 -0.00005000 0.01699200
v -0.35615100 -0.00005000 0.01699200
v -0.35615100 -0.00589300 0.01640600
v -0.35615100 -0.01672700 0.01190400
v -0.35615100 -0.01672700 0.01190400
vn -0.40550000 0.83430000 -0.37360000
vn -0.48420000 0.82640000 -0.28740000
vn -0.42050000 0.86610000 -0.27030000
vn -0.48420000 0.78380000 -0.38900000
vn -0.34810000 0.87020000 -0.34850000
vn -0.48410000 0.85440000 -0.18860000
vn -0.40520000 0.90620000 -0.12080000
vn -0.41730000 0.88740000 -0.19580000
vn -0.48410000 0.87060000 -0.08710000
vn -0.34950000 0.90430000 -0.24510000
vn -0.34820000 0.92290000 -0.16470000
vn -0.60780000 0.79010000 -0.07900000
vn -0.60780000 0.75000000 -0.26080000
vn -0.72000000 0.69050000 -0.06910000
vn -0.81350000 0.57860000 -0.05790000
vn -0.72000000 0.65540000 -0.22790000
vn -0.89050000 0.45270000 -0.04530000
vn -0.81350000 0.54930000 -0.19100000
vn -0.95080000 0.30810000 -0.03080000
vn -0.89060000 0.42960000 -0.14940000
vn -0.98760000 0.15600000 -0.01560000
vn -0.98760000 0.14810000 -0.05150000
vn -1.00000000 0.00000000 -0.00000000
vn -0.41380000 0.90850000 0.05800000
vn -0.48410000 0.86530000 0.12990000
vn -0.41890000 0.89360000 0.16140000
vn -0.48420000 0.87470000 0.02150000
vn -0.40590000 0.91330000 -0.03370000
vn -0.34860000 0.93180000 0.10150000
vn -0.60780000 0.78530000 0.11790000
vn -0.72000000 0.68630000 0.10300000
vn -0.81350000 0.57510000 0.08630000
vn -0.89050000 0.44990000 0.06750000
vn -0.95090000 0.30620000 0.04600000
vn -0.98760000 0.15510000 0.02330000
vn -1.00000000 0.00000000 -0.00000000
vn -0.40810000 0.86270000 0.29870000
vn -0.48420000 0.81010000 0.33070000
vn -0.40840000 0.83250000 0.37450000
vn -0.48420000 0.84370000 0.23190000
vn -0.39840000 0.88640000 0.23560000
vn -0.34780000 0.92080000 0.17650000
vn -0.34750000 0.88810000 0.30080000
vn -0.34780000 0.85190000 0.39160000
vn -0.60780000 0.73520000 0.30010000
vn -0.72000000 0.64250000 0.26230000
vn -0.81350000 0.53840000 0.21980000
vn -0.89060000 0.42110000 0.17190000
vn -0.95080000 0.28670000 0.11700000
vn -0.98760000 0.14510000 0.05930000
vn -1.00000000 0.00000000 -0.00000000
vn -0.48420000 0.76490000 0.42480000
vn -0.41160000 0.75730000 0.50710000
vn -0.39770000 0.80340000 0.44310000
vn -0.48420000 0.70900000 0.51280000
vn -0.34800000 0.80320000 0.48350000
vn -0.34760000 0.74480000 0.56960000
vn -0.60790000 0.64340000 0.46540000
vn -0.72000000 0.56230000 0.40670000
vn -0.81350000 0.47120000 0.34080000
vn -0.89050000 0.36860000 0.26660000
vn -0.95080000 0.25090000 0.18150000
vn -0.98760000 0.12700000 0.09190000
vn -1.00000000 0.00000000 -0.00000000
vn -0.41020000 0.64790000 0.64180000
vn -0.48410000 0.56770000 0.66590000
vn -0.39920000 0.59710000 0.69580000
vn -0.48420000 0.64290000 0.59350000
vn -0.40130000 0.70780000 0.58140000
vn -0.60780000 0.51520000 0.60430000
vn -0.72000000 0.45020000 0.52810000
vn -0.81350000 0.37730000 0.44260000
vn -0.89050000 0.29510000 0.34620000
vn -0.95080000 0.20090000 0.23570000
vn -0.98760000 0.10170000 0.11930000
vn -1.00000000 0.00000000 -0.00000000
vn -0.48410000 0.48070000 0.73110000
vn -0.41960000 0.42730000 0.80090000
vn -0.39840000 0.49710000 0.77080000
vn -0.48420000 0.38640000 0.78500000
vn -0.41730000 0.54550000 0.72690000
vn -0.34840000 0.57520000 0.74010000
vn -0.34880000 0.45860000 0.81730000
vn -0.34850000 0.38350000 0.85530000
vn -0.60790000 0.35060000 0.71240000
vn -0.72000000 0.30650000 0.62270000
vn -0.81350000 0.25680000 0.52180000
vn -0.89060000 0.20090000 0.40810000
vn -0.95080000 0.13670000 0.27780000
vn -0.98760000 0.06920000 0.14070000
vn -1.00000000 0.00000000 -0.00000000
vn -0.48420000 0.28740000 0.82640000
vn -0.41810000 0.22220000 0.88080000
vn -0.39470000 0.30590000 0.86640000
vn -0.48420000 0.18410000 0.85540000
vn -0.41720000 0.35060000 0.83840000
vn -0.34930000 0.23210000 0.90780000
vn -0.34880000 0.18410000 0.91890000
vn -0.34740000 0.29660000 0.88960000
vn -0.60780000 0.16710000 0.77630000
vn -0.72000000 0.14610000 0.67840000
vn -0.81350000 0.12240000 0.56850000
vn -0.89050000 0.09570000 0.44470000
vn -0.95080000 0.06520000 0.30270000
vn -0.98760000 0.03300000 0.15320000
vn -1.00000000 0.00000000 -0.00000000
vn -0.48420000 0.07970000 0.87130000
vn -0.40790000 0.00760000 0.91300000
vn -0.40480000 0.07420000 0.91140000
vn -0.48420000 -0.02590000 0.87460000
vn -0.41720000 0.13730000 0.89840000
vn -0.34830000 0.11670000 0.93010000
vn -0.34770000 0.04990000 0.93630000
vn -0.60790000 -0.02350000 0.79370000
vn -0.72000000 -0.02060000 0.69370000
vn -0.81350000 -0.01720000 0.58130000
vn -0.89050000 -0.01350000 0.45470000
vn -0.95090000 -0.00920000 0.30950000
vn -0.98760000 -0.00460000 0.15670000
vn -1.00000000 0.00000000 -0.00000000
vn -0.40790000 -0.16620000 0.89780000
vn -0.48410000 -0.23190000 0.84370000
vn -0.37890000 -0.24360000 0.89280000
vn -0.48420000 -0.12990000 0.86530000
vn -0.40130000 -0.07850000 0.91260000
vn -0.34830000 -0.18940000 0.91800000
vn -0.60790000 -0.21050000 0.76560000
vn -0.72000000 -0.18390000 0.66910000
vn -0.81350000 -0.15410000 0.56080000
vn -0.89060000 -0.12060000 0.43860000
vn -0.95080000 -0.08210000 0.29860000
vn -0.98760000 -0.04160000 0.15120000
vn -1.00000000 0.00000000 -0.00000000
vn -0.40770000 -0.38030000 0.83020000
vn -0.48420000 -0.42480000 0.76500000
vn -0.40230000 -0.44970000 0.79750000
vn -0.48420000 -0.33070000 0.81010000
vn -0.40330000 -0.29510000 0.86620000
vn -0.60790000 -0.38550000 0.69420000
vn -0.72000000 -0.33690000 0.60670000
vn -0.81350000 -0.28230000 0.50840000
vn -0.89050000 -0.22080000 0.39770000
vn -0.95090000 -0.15030000 0.27070000
vn -0.98760000 -0.07610000 0.13710000
vn -1.00000000 0.00000000 -0.00000000
vn -0.39960000 -0.57750000 0.71190000
vn -0.48420000 -0.59350000 0.64290000
vn -0.40670000 -0.64490000 0.64710000
vn -0.48420000 -0.51280000 0.70890000
vn -0.41910000 -0.50450000 0.75490000
vn -0.34800000 -0.51560000 0.78300000
vn -0.60780000 -0.53870000 0.58340000
vn -0.72000000 -0.47080000 0.50990000
vn -0.81350000 -0.39450000 0.42730000
vn -0.89050000 -0.30860000 0.33430000
vn -0.95080000 -0.21010000 0.22750000
vn -0.98770000 -0.10620000 0.11510000
vn -1.00000000 0.00010000 -0.00000000
vn -0.48420000 -0.66580000 0.56770000
vn -0.39450000 -0.69350000 0.60280000
vn -0.34800000 0.78070000 -0.51900000
vn -0.40710000 0.79210000 -0.45480000
vn -0.34790000 0.82770000 -0.44030000
vn -0.34830000 0.93730000 0.01220000
vn -0.34610000 0.93460000 -0.08190000
vn -0.34760000 0.64050000 0.68480000
vn -0.34550000 0.68130000 0.64530000
vn -0.48580000 0.72790000 -0.48390000
vn -0.61250000 0.65830000 -0.43760000
vn -0.82100000 0.47550000 -0.31610000
vn -0.72510000 0.57350000 -0.38120000
vn -0.95420000 0.24920000 -0.16560000
vn -0.95090000 0.29250000 -0.10170000
vn -0.89790000 0.36660000 -0.24370000
vn -1.00000000 0.00000000 -0.00000000
vn -0.98850000 0.12600000 -0.08380000
vn -0.34800000 0.51900000 0.78070000
vn -0.34790000 -0.43450000 0.83070000
vn -0.34740000 -0.61470000 0.70810000
vn -0.34620000 -0.67600000 0.65050000
vn -0.34640000 -0.34290000 0.87320000
vn -0.40620000 -0.72800000 0.55230000
vn -0.34800000 -0.78070000 0.51900000
vn -0.34800000 -0.72520000 0.59410000
vn -0.34650000 -0.01990000 0.93780000
vn -0.34740000 -0.11440000 0.93070000
vn -0.82100000 -0.47550000 0.31610000
vn -0.72510000 -0.57350000 0.38120000
vn -0.61250000 -0.65830000 0.43760000
vn -0.95420000 -0.24920000 0.16560000
vn -0.89790000 -0.36660000 0.24360000
vn -0.48590000 -0.72790000 0.48380000
vn 0.00000000 -0.77250000 0.63500000
vn 0.00000000 -0.72050000 0.69340000
vn -0.00000000 -0.77360000 0.63370000
vn 0.00000000 -0.70850000 0.70570000
vn -0.00000000 -0.83280000 0.55360000
vn 0.00000000 -0.65560000 0.75510000
vn 0.00000000 -0.62910000 0.77740000
vn -0.00000000 -0.54990000 0.83520000
vn -0.00000000 -0.38520000 0.92280000
vn 0.00000000 -0.36550000 0.93080000
vn 0.00000000 -0.46340000 0.88610000
vn -0.00000000 -0.46300000 0.88640000
vn 0.00000000 -0.19650000 0.98050000
vn -0.00000000 -0.25830000 0.96610000
vn 0.00000000 -0.28250000 0.95930000
vn -0.00000000 -0.20210000 0.97940000
vn -0.00000000 -0.00170000 1.00000000
vn 0.00000000 -0.02120000 0.99980000
vn -0.00000000 -0.09200000 0.99580000
vn 0.00000000 -0.12210000 0.99250000
vn 0.00000000 0.19640000 0.98050000
vn 0.00000000 0.12450000 0.99220000
vn 0.00000000 0.10180000 0.99480000
vn -0.00000000 0.05320000 0.99860000
vn 0.00000000 0.31630000 0.94870000
vn 0.00000000 0.38030000 0.92490000
vn 0.00000000 0.40910000 0.91250000
vn 0.00000000 0.29150000 0.95660000
vn -0.00000000 0.24770000 0.96880000
vn 0.00000000 0.47010000 0.88260000
vn -0.00000000 0.48940000 0.87210000
vn 0.00000000 -0.55360000 -0.83280000
vn 0.00000000 -0.55360000 -0.83280000
vn 0.00000000 -0.70540000 -0.70880000
vn 0.00000000 -0.70540000 -0.70880000
vn 0.00000000 -0.83010000 -0.55760000
vn 0.00000000 -0.92300000 -0.38490000
vn 0.00000000 -0.92300000 -0.38490000
vn 0.00000000 -0.98030000 -0.19740000
vn 0.00000000 -1.00000000 -0.00240000
vn 0.00000000 -1.00000000 -0.00240000
vn 0.00000000 -0.98130000 0.19270000
vn 0.00000000 -0.98030000 -0.19740000
vn 0.00000000 -0.83010000 -0.55760000
vn 0.00000000 -0.98130000 0.19270000
vn 0.00000000 -0.92480000 0.38050000
vn 0.00000000 -0.92480000 0.38050000
vn -0.00000000 -0.55760000 0.83010000
vn -0.00000000 -0.83280000 0.55360000
vn 0.00000000 0.19270000 0.98130000
vn -0.00000000 0.55360000 0.83280000
vn -0.00000000 0.55360000 0.83280000
vn 0.00000000 0.63500000 0.77250000
vn 0.00000000 0.68310000 0.73040000
vn 0.00000000 0.61370000 0.78950000
vn 0.00000000 0.72600000 0.68770000
vn 0.00000000 0.79430000 0.60750000
vn 0.00000000 0.83710000 0.54710000
vn -0.00000000 0.85680000 0.51560000
vn 0.00000000 0.78290000 0.62220000
vn -0.00000000 0.93640000 0.35100000
vn -0.00000000 0.90860000 0.41760000
vn 0.00000000 0.87340000 0.48710000
vn 0.00000000 0.95930000 0.28250000
vn 0.00000000 0.98210000 0.18830000
vn -0.00000000 0.94720000 0.32070000
vn -0.00000000 1.00000000 -0.00500000
vn 0.00000000 0.99990000 0.01300000
vn 0.00000000 0.99410000 0.10830000
vn 0.00000000 0.98030000 -0.19760000
vn -0.00000000 0.98450000 -0.17570000
vn -0.00000000 0.99620000 -0.08730000
vn 0.00000000 0.96190000 -0.27330000
vn -0.00000000 0.92830000 -0.37180000
vn 0.00000000 0.96520000 -0.26170000
vn 0.00000000 0.88250000 -0.47040000
vn 0.00000000 0.88290000 -0.46960000
vn -0.00000000 0.19550000 -0.98070000
vn 0.00000000 0.18950000 -0.98190000
vn 0.00000000 0.27820000 -0.96050000
vn 0.00000000 0.00220000 -1.00000000
vn 0.00000000 0.00880000 -1.00000000
vn 0.00000000 -0.09370000 -0.99560000
vn -0.00000000 0.10890000 -0.99410000
vn 0.00000000 0.09180000 -0.99580000
vn -0.00000000 0.55360000 0.83280000
vn -0.00000000 0.55360000 0.83280000
vn -0.00000000 0.67710000 0.73590000
vn 0.00000000 0.98030000 0.19730000
vn -0.00000000 0.99910000 0.04150000
vn -0.00000000 0.99330000 -0.11530000
vn 0.00000000 0.70880000 -0.70540000
vn -0.00000000 0.73580000 -0.67720000
vn -0.00000000 0.62080000 -0.78400000
vn 0.00000000 0.83280000 -0.55360000
vn 0.00000000 0.83010000 -0.55770000
vn -0.00000000 0.55760000 -0.83010000
vn 0.00000000 0.37620000 -0.92660000
vn 0.00000000 0.38490000 -0.92300000
vn 0.00000000 0.19750000 -0.98030000
vn 0.00000000 0.34810000 -0.93750000
vn -0.00000000 0.49040000 -0.87150000
vn 0.00000000 0.90910000 -0.41670000
vn 0.00000000 -0.19270000 -0.98130000
vn 0.00000000 -0.20380000 -0.97900000
vn 0.00000000 -0.38050000 -0.92480000
vn -0.00000000 -0.28790000 -0.95770000
vn 0.00010000 -0.10110000 -0.99490000
vn 0.00000000 -0.55360000 -0.83280000
vn 0.00000000 -0.55360000 -0.83280000
vn -0.60780000 -0.77680000 -0.16450000
vn -0.48420000 -0.85600000 -0.18120000
vn -0.60780000 -0.78110000 0.14330000
vn -0.72000000 -0.67890000 -0.14370000
vn -0.72000000 -0.68260000 0.12520000
vn -0.81350000 -0.56890000 -0.12040000
vn -0.89050000 -0.44500000 -0.09420000
vn -0.89050000 -0.44740000 0.08210000
vn -0.95080000 -0.30290000 -0.06410000
vn -0.98760000 -0.15340000 -0.03240000
vn -0.98760000 -0.15420000 0.02830000
vn -1.00000000 0.00000000 -0.00000000
vn -0.60780000 -0.65700000 -0.44600000
vn -0.48420000 -0.72390000 -0.49140000
vn -0.72000000 -0.57410000 -0.38980000
vn -0.81350000 -0.48110000 -0.32660000
vn -0.89050000 -0.37640000 -0.25550000
vn -0.95080000 -0.25620000 -0.17390000
vn -0.98760000 -0.12970000 -0.08800000
vn -1.00000000 0.00000000 -0.00000000
vn -0.60790000 -0.43960000 -0.66130000
vn -0.48420000 -0.48440000 -0.72870000
vn -0.72000000 -0.38420000 -0.57790000
vn -0.81350000 -0.32190000 -0.48430000
vn -0.89050000 -0.25180000 -0.37880000
vn -0.95080000 -0.17140000 -0.25790000
vn -0.98760000 -0.08680000 -0.13060000
vn -1.00000000 0.00000000 -0.00000000
vn -0.60790000 -0.14320000 -0.78100000
vn -0.48420000 -0.15780000 -0.86060000
vn -0.72000000 -0.12520000 -0.68260000
vn -0.81350000 -0.10490000 -0.57200000
vn -0.89060000 -0.08200000 -0.44740000
vn -0.95090000 -0.05590000 -0.30460000
vn -0.98760000 -0.02830000 -0.15420000
vn -1.00000000 0.00000000 -0.00000000
vn -0.60790000 0.16450000 -0.77680000
vn -0.48420000 0.18120000 -0.85600000
vn -0.72000000 0.14370000 -0.67890000
vn -0.81350000 0.12040000 -0.56890000
vn -0.89060000 0.09420000 -0.44500000
vn -0.95090000 0.06410000 -0.30290000
vn -0.98760000 0.03240000 -0.15340000
vn -1.00000000 0.00000000 -0.00000000
vn -0.60790000 0.44600000 -0.65700000
vn -0.48420000 0.49140000 -0.72390000
vn -0.72000000 0.38980000 -0.57420000
vn -0.81350000 0.32660000 -0.48110000
vn -0.89060000 0.25550000 -0.37630000
vn -0.95090000 0.17390000 -0.25620000
vn -0.98760000 0.08800000 -0.12970000
vn -1.00000000 0.00000000 -0.00000000
vn -0.48580000 -0.72790000 0.48390000
vn -0.34800000 -0.86700000 0.35670000
vn -0.34800000 -0.78070000 0.51900000
vn -0.48420000 -0.86060000 0.15780000
vn -0.34800000 -0.91990000 0.18070000
vn -0.34800000 -0.93750000 -0.00230000
vn -0.34800000 -0.91910000 -0.18510000
vn -0.34800000 -0.86530000 -0.36080000
vn -0.34800000 -0.77830000 -0.52270000
vn -0.34800000 -0.51900000 -0.78070000
vn -0.34800000 -0.66130000 -0.66450000
vn -0.72510000 -0.57350000 0.38120000
vn -0.61250000 -0.65830000 0.43760000
vn -0.82100000 -0.47550000 0.31610000
vn -0.81350000 -0.57200000 0.10490000
vn -0.95420000 -0.24920000 0.16560000
vn -0.95080000 -0.30460000 0.05590000
vn -0.89790000 -0.36660000 0.24370000
vn -1.00000000 0.00000000 -0.00000000
vn -0.98760000 -0.10630000 0.11510000
vn -0.34800000 -0.18070000 -0.91990000
vn -0.34800000 -0.35670000 -0.86700000
vn -0.34840000 0.00210000 -0.93730000
vn -0.34800000 0.18510000 -0.91910000
vn -0.34800000 0.52270000 -0.77820000
vn -0.34800000 0.36080000 -0.86530000
vn -0.34800000 0.66450000 -0.66130000
vn -0.48590000 0.72790000 -0.48380000
vn -0.34800000 0.78080000 -0.51900000
vn -0.61250000 0.65830000 -0.43760000
vn -0.72510000 0.57350000 -0.38120000
vn -0.82100000 0.47550000 -0.31610000
vn -0.95420000 0.24920000 -0.16560000
vn -0.89790000 0.36660000 -0.24360000
vn -0.98850000 0.12600000 -0.08380000
vn 1.00000000 -0.00010000 0.00000000
vn 1.00000000 0.00000000 0.00000000
vn 1.00000000 0.00000000 0.00000000
vn 1.00000000 0.00010000 0.00000000
vn 1.00000000 0.00000000 0.00000000
vn 1.00000000 0.00000000 0.00000000
vn 1.00000000 0.00000000 0.00000000
vn 1.00000000 0.00010000 0.00000000
vn 1.00000000 0.00010000 0.00000000
vn 1.00000000 0.00000000 0.00000000
vn 1.00000000 0.00010000 0.00000000
vn 1.00000000 0.00000000 0.00000000
vn 1.00000000 -0.00010000 0.00000000
vn 1.00000000 0.00000000 0.00000000
vn 1.00000000 0.00000000 -0.00010000
vn 1.00000000 0.00000000 0.00000000
vn 1.00000000 0.00000000 0.00000000
vn 1.00000000 0.00010000 0.00000000
vn 1.00000000 0.00000000 0.00000000
vn 1.00000000 -0.00010000 0.00000000
vn 1.00000000 -0.00010000 0.00000000
vn 1.00000000 0.00000000 0.00000000
vn 1.00000000 0.00000000 0.00000000
vn 1.00000000 0.00000000 0.00000000
vn 1.00000000 -0.00010000 0.00000000
vn 1.00000000 0.00000000 0.00000000
vn 1.00000000 -0.00010000 0.00000000
vn 1.00000000 0.00000000 0.00000000
vn 1.00000000 0.00000000 0.00000000
vn 1.00000000 0.00000000 0.00000000
vn 1.00000000 0.00010000 0.00000000
vn 1.00000000 0.00000000 0.00000000
vn 1.00000000 0.00000000 0.00000000
vn 1.00000000 0.00010000 0.00000000
vn 1.00000000 0.00010000 0.00000000
vn 1.00000000 0.00000000 0.00000000
vn 1.00000000 0.00000000 0.00000000
vn 1.00000000 0.00000000 -0.00010000
vn 1.00000000 0.00000000 0.00000000
vn 1.00000000 0.00000000 0.00000000
vn 1.00000000 0.00010000 0.00000000
vn 1.00000000 0.00000000 0.00000000
vn 1.00000000 0.00010000 0.00000000
vn 1.00000000 0.00010000 0.00000000
vn 1.00000000 -0.00010000 0.00000000
vn 1.00000000 -0.00010000 0.00000000
vn 1.00000000 0.00000000 0.00000000
vn 1.00000000 0.00000000 -0.00010000
vn 1.00000000 0.00000000 0.00000000
vn 1.00000000 0.00010000 0.00000000
vn 1.00000000 0.00000000 0.00000000
vt 0.58782000 0.71733000
vt 0.59981000 0.73881400
vt 0.60423400 0.72134800
vt 0.58236400 0.73881400
vt 0.59338400 0.70215000
vt 0.61608300 0.73881400
vt 0.62784100 0.71725000
vt 0.61608300 0.72042800
vt 0.63235500 0.73881400
vt 0.60951600 0.70248100
vt 0.62172000 0.70209900
vt 0.63235500 0.77508200
vt 0.59981000 0.77508200
vt 0.63235500 0.81197400
vt 0.63235500 0.84785700
vt 0.59981000 0.81197400
vt 0.63235500 0.88423100
vt 0.59981000 0.84785700
vt 0.63235500 0.92282100
vt 0.59981000 0.88423100
vt 0.63235500 0.96141000
vt 0.59981000 0.96141000
vt 0.63235500 1.00000000
vt 0.65496000 0.71953600
vt 0.66679400 0.73881400
vt 0.67087100 0.72092200
vt 0.64957500 0.73881400
vt 0.64104800 0.71739100
vt 0.66121600 0.70222500
vt 0.66679400 0.77508200
vt 0.66679400 0.81197400
vt 0.66679400 0.84785700
vt 0.66679400 0.88423100
vt 0.66679400 0.92282100
vt 0.66679400 0.96141000
vt 0.66679400 1.00000000
vt 0.69233400 0.71798900
vt 0.69984100 0.73881400
vt 0.70466700 0.71808500
vt 0.68331800 0.73881400
vt 0.68214100 0.71537900
vt 0.67240400 0.70202600
vt 0.69137800 0.70197900
vt 0.70581500 0.70202700
vt 0.69984100 0.77508200
vt 0.69984100 0.81197400
vt 0.69984100 0.84785700
vt 0.69984100 0.88423100
vt 0.69984100 0.92282100
vt 0.69984100 0.96141000
vt 0.69984100 1.00000000
vt 0.71636500 0.73881400
vt 0.72790600 0.71894100
vt 0.71596500 0.71523400
vt 0.73288800 0.73881400
vt 0.72118300 0.70210300
vt 0.73660500 0.70198300
vt 0.73288800 0.77508200
vt 0.73288800 0.81197400
vt 0.73288800 0.84785700
vt 0.73288800 0.88423100
vt 0.73288800 0.92282100
vt 0.73288800 0.96141000
vt 0.73288800 1.00000000
vt 0.75425000 0.71857800
vt 0.76593500 0.73881400
vt 0.76548600 0.71560200
vt 0.74941200 0.73881400
vt 0.74139800 0.71614500
vt 0.76593500 0.77508200
vt 0.76593500 0.81197400
vt 0.76593500 0.84785700
vt 0.76593500 0.88423100
vt 0.76593500 0.92282100
vt 0.76593500 0.96141000
vt 0.76593500 1.00000000
vt 0.78315000 0.73881400
vt 0.79586600 0.72109200
vt 0.78437900 0.71537600
vt 0.80036400 0.73881400
vt 0.77454200 0.72042800
vt 0.77217100 0.70218100
vt 0.79286100 0.70227800
vt 0.80534800 0.70221400
vt 0.80036400 0.77508200
vt 0.80036400 0.81197400
vt 0.80036400 0.84785700
vt 0.80036400 0.88423100
vt 0.80036400 0.92282100
vt 0.80036400 0.96141000
vt 0.80036400 1.00000000
vt 0.81735200 0.73881400
vt 0.82950700 0.72069800
vt 0.81669000 0.71441700
vt 0.83433900 0.73881400
vt 0.80885800 0.72042800
vt 0.82905000 0.70239200
vt 0.83631000 0.70229400
vt 0.81914100 0.70190700
vt 0.83433900 0.77508200
vt 0.83433900 0.81197400
vt 0.83433900 0.84785700
vt 0.83433900 0.88423100
vt 0.83433900 0.92282100
vt 0.83433900 0.96141000
vt 0.83433900 1.00000000
vt 0.85107600 0.73881400
vt 0.86257900 0.71795500
vt 0.85246400 0.71708300
vt 0.86781200 0.73881400
vt 0.84270800 0.72042800
vt 0.84641100 0.70215400
vt 0.85634000 0.70198900
vt 0.86781200 0.77508200
vt 0.86781200 0.81197400
vt 0.86781200 0.84785700
vt 0.86781200 0.88423100
vt 0.86781200 0.92282100
vt 0.86781200 0.96141000
vt 0.86781200 1.00000000
vt 0.88902000 0.71795200
vt 0.90085900 0.73881400
vt 0.90061300 0.71021200
vt 0.88433500 0.73881400
vt 0.87558900 0.71616400
vt 0.89188200 0.70216700
vt 0.90085900 0.77508200
vt 0.90085900 0.81197400
vt 0.90085900 0.84785700
vt 0.90085900 0.88423100
vt 0.90085900 0.92282100
vt 0.90085900 0.96141000
vt 0.90085900 1.00000000
vt 0.92317700 0.71790200
vt 0.93390600 0.73881400
vt 0.93481600 0.71642500
vt 0.91738200 0.73881400
vt 0.90917300 0.71669500
vt 0.93390600 0.77508200
vt 0.93390600 0.81197400
vt 0.93390600 0.84785700
vt 0.93390600 0.88423100
vt 0.93390600 0.92282100
vt 0.93390600 0.96141000
vt 0.93390600 1.00000000
vt 0.95807900 0.71570600
vt 0.96695300 0.73881400
vt 0.97221200 0.71762900
vt 0.95042900 0.73881400
vt 0.94532300 0.72096300
vt 0.94433000 0.70211800
vt 0.96695300 0.77508200
vt 0.96695300 0.81197400
vt 0.96695300 0.84785700
vt 0.96695300 0.88423100
vt 0.96695300 0.92282100
vt 0.96695500 0.96143300
vt 0.96695300 1.00000000
vt 0.98347600 0.73881400
vt 0.98213900 0.71435700
vt 0.56491800 0.70204800
vt 0.57400200 0.71770300
vt 0.57846600 0.70201900
vt 0.64796500 0.70212800
vt 0.63405200 0.70154500
vt 0.75956700 0.70197800
vt 0.75118900 0.70143900
vt 0.56491800 0.73929200
vt 0.56491800 0.77653600
vt 0.56491800 0.85102400
vt 0.56491800 0.81378000
vt 0.56491800 0.92551200
vt 0.59981000 0.92282100
vt 0.56491800 0.88826800
vt 0.56491800 1.00000000
vt 0.56491800 0.96275600
vt 0.78245900 0.70204800
vt 0.93044300 0.70203500
vt 0.96271000 0.70194900
vt 0.97513100 0.70157300
vt 0.91551900 0.70160700
vt 0.99134300 0.71747600
vt 1.00000000 0.70204800
vt 0.98619300 0.70206200
vt 0.86664300 0.70166500
vt 0.88065900 0.70192500
vt 1.00000000 0.85102400
vt 1.00000000 0.81378000
vt 1.00000000 0.77653600
vt 1.00000000 0.92551200
vt 1.00000000 0.88826800
vt 1.00000000 0.73929200
vt 0.55088000 0.24822000
vt 0.56103800 0.23334500
vt 0.55066900 0.23288600
vt 0.56327500 0.26354300
vt 0.53772500 0.23289900
vt 0.57267500 0.23299500
vt 0.57717100 0.24823200
vt 0.58990000 0.23279900
vt 0.61416700 0.26354400
vt 0.61691900 0.23331500
vt 0.60293400 0.23291100
vt 0.60300300 0.24822000
vt 0.63982500 0.26354500
vt 0.63158300 0.23456500
vt 0.62832100 0.24822000
vt 0.63908400 0.23280900
vt 0.66528400 0.26354400
vt 0.66274300 0.23326000
vt 0.65354100 0.24824200
vt 0.64961600 0.23301500
vt 0.69116900 0.23262100
vt 0.68171100 0.23275300
vt 0.67873800 0.24822000
vt 0.67240900 0.23295000
vt 0.70727800 0.23303100
vt 0.71614700 0.26354300
vt 0.72022800 0.23270000
vt 0.70390200 0.24831200
vt 0.69799900 0.23252800
vt 0.72903900 0.24834700
vt 0.73189200 0.23263600
vt 0.33378000 0.23289900
vt 0.33378000 0.26354300
vt 0.35927300 0.26354300
vt 0.35927300 0.23289900
vt 0.38476600 0.26354300
vt 0.41025900 0.23289900
vt 0.41025900 0.26354300
vt 0.43575300 0.26354300
vt 0.46124600 0.23289900
vt 0.46124600 0.26354300
vt 0.48673900 0.26354300
vt 0.43575300 0.23289900
vt 0.38476600 0.23289900
vt 0.48673900 0.23289900
vt 0.51223200 0.26354300
vt 0.51223200 0.23289900
vt 0.58871100 0.26354300
vt 0.53772500 0.26354300
vt 0.69068400 0.26354300
vt 0.74167000 0.26354300
vt 0.74167000 0.23289900
vt 0.34693500 0.24822000
vt 0.35524600 0.23296100
vt 0.34340300 0.23274200
vt 0.36310900 0.23348700
vt 0.37678600 0.23295800
vt 0.38640000 0.24822000
vt 0.39121000 0.23283200
vt 0.37437000 0.26352900
vt 0.41499100 0.26354200
vt 0.40561700 0.23290800
vt 0.39550300 0.26354100
vt 0.42437600 0.24822000
vt 0.43696800 0.23288100
vt 0.41916200 0.23296800
vt 0.46220700 0.24822000
vt 0.45986600 0.23282600
vt 0.44746300 0.23268800
vt 0.48738000 0.24822000
vt 0.48448200 0.23280900
vt 0.47290600 0.23337800
vt 0.49750100 0.26352200
vt 0.51101800 0.23276800
vt 0.49592400 0.23244000
vt 0.52513900 0.24822000
vt 0.52502300 0.23292600
vt 0.63995500 0.26354700
vt 0.64075500 0.24083100
vt 0.62889300 0.25095400
vt 0.66521800 0.23279400
vt 0.66435700 0.26354200
vt 0.67768200 0.24122000
vt 0.65133300 0.26081900
vt 0.65356600 0.24055800
vt 0.33378000 0.26354300
vt 0.33378000 0.23289900
vt 0.35417800 0.26354300
vt 0.43576700 0.26354300
vt 0.45616500 0.26354300
vt 0.47656200 0.26354300
vt 0.56321800 0.23289900
vt 0.55815200 0.26354300
vt 0.57854900 0.26354300
vt 0.53772500 0.23289900
vt 0.53835700 0.26351000
vt 0.58871100 0.23289900
vt 0.61543500 0.25071000
vt 0.61420400 0.23289900
vt 0.63969700 0.23289900
vt 0.61934400 0.26354300
vt 0.59894700 0.26354300
vt 0.51735700 0.26354300
vt 0.69068400 0.23289900
vt 0.69214200 0.25496900
vt 0.71617700 0.23289900
vt 0.70342000 0.26354300
vt 0.67873800 0.25971200
vt 0.74167000 0.26354300
vt 0.74167000 0.23289900
vt 0.23997300 0.77508600
vt 0.23997300 0.73881900
vt 0.18596300 0.77508600
vt 0.23997300 0.81197700
vt 0.18596300 0.81197700
vt 0.23997300 0.84786000
vt 0.23997300 0.88423300
vt 0.18596300 0.88423300
vt 0.23997300 0.92282200
vt 0.23997300 0.96141100
vt 0.18596300 0.96141100
vt 0.23997300 1.00000000
vt 0.29367500 0.77508600
vt 0.29367500 0.73881900
vt 0.29367500 0.81197700
vt 0.29367500 0.84786000
vt 0.29367500 0.88423300
vt 0.29367500 0.92282200
vt 0.29367500 0.96141100
vt 0.29367500 1.00000000
vt 0.34737600 0.77508600
vt 0.34737600 0.73881900
vt 0.34737600 0.81197700
vt 0.34737600 0.84786000
vt 0.34737600 0.88423300
vt 0.34737600 0.92282200
vt 0.34737600 0.96141100
vt 0.34737600 1.00000000
vt 0.40350400 0.77508600
vt 0.40350400 0.73881900
vt 0.40350400 0.81197700
vt 0.40350400 0.84786000
vt 0.40350400 0.88423300
vt 0.40350400 0.92282200
vt 0.40350400 0.96141100
vt 0.40350400 1.00000000
vt 0.45751500 0.77508600
vt 0.45751500 0.73881900
vt 0.45751500 0.81197700
vt 0.45751500 0.84786000
vt 0.45751500 0.88423300
vt 0.45751500 0.92282200
vt 0.45751500 0.96141100
vt 0.45751500 1.00000000
vt 0.51121600 0.77508600
vt 0.51121600 0.73881900
vt 0.51121600 0.81197700
vt 0.51121600 0.84786000
vt 0.51121600 0.88423300
vt 0.51121600 0.92282200
vt 0.51121600 0.96141100
vt 0.51121600 1.00000000
vt 0.12983500 0.73929200
vt 0.15702800 0.70204800
vt 0.12983500 0.70204800
vt 0.18596300 0.73881900
vt 0.18422100 0.70204800
vt 0.21141300 0.70204800
vt 0.23860600 0.70204800
vt 0.26579900 0.70204800
vt 0.29299100 0.70204800
vt 0.34737600 0.70204800
vt 0.32018400 0.70204800
vt 0.12983500 0.81378000
vt 0.12983500 0.77653600
vt 0.12983500 0.85102400
vt 0.18596300 0.84786000
vt 0.12983500 0.92551200
vt 0.18596300 0.92282200
vt 0.12983500 0.88826800
vt 0.12983500 1.00000000
vt 0.09622200 0.96434800
vt 0.40176200 0.70204800
vt 0.37456900 0.70204800
vt 0.42892400 0.70216300
vt 0.45614700 0.70204800
vt 0.51053200 0.70204800
vt 0.48334000 0.70204800
vt 0.53772500 0.70204800
vt 0.56491800 0.73929200
vt 0.56491800 0.70204800
vt 0.56491800 0.77653600
vt 0.56491800 0.81378000
vt 0.56491800 0.85102400
vt 0.56491800 0.92551200
vt 0.56491800 0.88826800
vt 0.56491800 0.96275600
vt 0.00159800 0.26573700
vt 0.00159800 0.26573700
vt 0.00636600 0.15875000
vt 0.00636600 0.15875000
vt 0.00160700 0.19382100
vt 0.17952100 0.01749500
vt 0.02482100 0.09468100
vt 0.02482100 0.09468100
vt 0.20196800 0.03873300
vt 0.20196800 0.03873300
vt 0.25717600 0.18499300
vt 0.25717600 0.18499300
vt 0.25717600 0.18499300
vt 0.23779400 0.35744400
vt 0.23779400 0.35744400
vt 0.03821900 0.06700900
vt 0.05688600 0.03922100
vt 0.01417100 0.12543200
vt -0.00003500 0.22870400
vt 0.00619800 0.29989000
vt 0.01414500 0.33413600
vt 0.01414500 0.33413600
vt 0.02478600 0.36489600
vt 0.03802000 0.39232300
vt 0.03802000 0.39232300
vt 0.05383600 0.41610100
vt 0.05383600 0.41610100
vt 0.09213700 0.00990100
vt 0.12983500 0.00000000
vt 0.15516500 0.00441600
vt 0.10952200 0.45682500
vt 0.10952200 0.45682500
vt 0.07042500 0.43413200
vt 0.07042500 0.43413200
vt 0.08991400 0.44845700
vt 0.12983500 0.45966100
vt 0.15518700 0.45517600
vt 0.17952100 0.44216600
vt 0.17952100 0.44216600
vt 0.24978800 0.14187800
vt 0.22164300 0.06731600
vt 0.23778900 0.10214400
vt 0.23778900 0.10214400
vt 0.25713100 0.27475400
vt 0.25713100 0.27475400
vt 0.25967100 0.22983100
vt 0.20187200 0.42097000
vt 0.20187200 0.42097000
vt 0.22152600 0.39245600
vt 0.24978800 0.31778300
vt 0.24978800 0.31778300
f 1/1/1 4/4/4 2/2/2
f 3/3/3 5/5/5 1/1/1
f 6/6/6 9/9/9 7/7/7
f 3/3/3 2/2/2 6/6/6
f 8/8/8 11/11/11 10/10/10
f 7/7/7 11/11/11 8/8/8
f 6/6/6 12/12/12 9/9/9
f 13/13/13 6/6/6 2/2/2
f 12/12/12 6/6/6 13/13/13
f 13/13/13 16/16/16 14/14/14
f 16/16/16 18/18/18 15/15/15
f 18/18/18 20/20/20 17/17/17
f 20/20/20 173/173/173 19/19/19
f 19/19/19 173/173/173 22/22/22
f 23/23/23 21/21/21 22/22/22
f 24/24/24 27/27/27 25/25/25
f 28/28/28 27/27/27 24/24/24
f 9/9/9 28/28/28 7/7/7
f 27/27/27 28/28/28 9/9/9
f 26/26/26 29/29/29 24/24/24
f 27/27/27 30/30/30 25/25/25
f 12/12/12 27/27/27 9/9/9
f 30/30/30 27/27/27 12/12/12
f 30/30/30 12/12/12 14/14/14
f 31/31/31 14/14/14 15/15/15
f 15/15/15 17/17/17 33/33/33
f 17/17/17 19/19/19 34/34/34
f 19/19/19 21/21/21 35/35/35
f 36/36/36 35/35/35 21/21/21
f 37/37/37 38/38/38 39/39/39
f 40/40/40 37/37/37 41/41/41
f 38/38/38 37/37/37 40/40/40
f 26/26/26 25/25/25 40/40/40
f 42/42/42 26/26/26 41/41/41
f 26/26/26 42/42/42 29/29/29
f 39/39/39 44/44/44 43/43/43
f 40/40/40 45/45/45 38/38/38
f 30/30/30 40/40/40 25/25/25
f 45/45/45 40/40/40 30/30/30
f 45/45/45 30/30/30 31/31/31
f 31/31/31 32/32/32 47/47/47
f 32/32/32 33/33/33 48/48/48
f 48/48/48 33/33/33 34/34/34
f 34/34/34 35/35/35 50/50/50
f 51/51/51 50/50/50 35/35/35
f 52/52/52 55/55/55 53/53/53
f 39/39/39 38/38/38 52/52/52
f 44/44/44 54/54/54 56/56/56
f 54/54/54 44/44/44 39/39/39
f 53/53/53 56/56/56 54/54/54
f 57/57/57 56/56/56 53/53/53
f 52/52/52 58/58/58 55/55/55
f 45/45/45 52/52/52 38/38/38
f 58/58/58 52/52/52 45/45/45
f 45/45/45 46/46/46 59/59/59
f 46/46/46 47/47/47 60/60/60
f 60/60/60 47/47/47 48/48/48
f 61/61/61 48/48/48 49/49/49
f 62/62/62 49/49/49 50/50/50
f 64/64/64 63/63/63 50/50/50
f 65/65/65 68/68/68 66/66/66
f 69/69/69 68/68/68 65/65/65
f 55/55/55 68/68/68 69/69/69
f 68/68/68 70/70/70 66/66/66
f 58/58/58 68/68/68 55/55/55
f 70/70/70 68/68/68 58/58/58
f 58/58/58 59/59/59 71/71/71
f 59/59/59 60/60/60 72/72/72
f 72/72/72 60/60/60 61/61/61
f 61/61/61 62/62/62 74/74/74
f 74/74/74 62/62/62 63/63/63
f 76/76/76 75/75/75 63/63/63
f 77/77/77 80/80/80 78/78/78
f 81/81/81 77/77/77 79/79/79
f 66/66/66 81/81/81 67/67/67
f 77/77/77 81/81/81 66/66/66
f 67/67/67 81/81/81 82/82/82
f 78/78/78 96/96/96 84/84/84
f 79/79/79 78/78/78 83/83/83
f 77/77/77 85/85/85 80/80/80
f 70/70/70 77/77/77 66/66/66
f 85/85/85 77/77/77 70/70/70
f 70/70/70 71/71/71 86/86/86
f 86/86/86 71/71/71 72/72/72
f 87/87/87 72/72/72 73/73/73
f 73/73/73 74/74/74 89/89/89
f 74/74/74 75/75/75 90/90/90
f 91/91/91 90/90/90 75/75/75
f 92/92/92 95/95/95 93/93/93
f 96/96/96 92/92/92 94/94/94
f 80/80/80 96/96/96 78/78/78
f 92/92/92 96/96/96 80/80/80
f 96/96/96 94/94/94 84/84/84
f 93/93/93 111/111/111 98/98/98
f 97/97/97 99/99/99 94/94/94
f 92/92/92 100/100/100 95/95/95
f 85/85/85 92/92/92 80/80/80
f 100/100/100 92/92/92 85/85/85
f 100/100/100 85/85/85 86/86/86
f 86/86/86 87/87/87 102/102/102
f 87/87/87 88/88/88 103/103/103
f 103/103/103 88/88/88 89/89/89
f 104/104/104 89/89/89 90/90/90
f 106/106/106 105/105/105 90/90/90
f 107/107/107 110/110/110 108/108/108
f 111/111/111 107/107/107 109/109/109
f 95/95/95 111/111/111 93/93/93
f 107/107/107 111/111/111 95/95/95
f 111/111/111 112/112/112 98/98/98
f 109/109/109 112/112/112 111/111/111
f 112/112/112 109/109/109 113/113/113
f 107/107/107 114/114/114 110/110/110
f 100/100/100 107/107/107 95/95/95
f 114/114/114 107/107/107 100/100/100
f 114/114/114 100/100/100 101/101/101
f 115/115/115 101/101/101 102/102/102
f 116/116/116 102/102/102 103/103/103
f 117/117/117 103/103/103 104/104/104
f 104/104/104 105/105/105 119/119/119
f 120/120/120 119/119/119 105/105/105
f 122/122/122 138/138/138 123/123/123
f 122/122/122 121/121/121 124/124/124
f 125/125/125 110/110/110 124/124/124
f 110/110/110 125/125/125 108/108/108
f 123/123/123 126/126/126 121/121/121
f 124/124/124 127/127/127 122/122/122
f 114/114/114 124/124/124 110/110/110
f 127/127/127 124/124/124 114/114/114
f 127/127/127 114/114/114 115/115/115
f 115/115/115 116/116/116 129/129/129
f 116/116/116 117/117/117 130/130/130
f 117/117/117 118/118/118 131/131/131
f 131/131/131 118/118/118 119/119/119
f 133/133/133 132/132/132 119/119/119
f 134/134/134 137/137/137 135/135/135
f 138/138/138 137/137/137 134/134/134
f 137/137/137 138/138/138 122/122/122
f 137/137/137 139/139/139 135/135/135
f 127/127/127 137/137/137 122/122/122
f 139/139/139 137/137/137 127/127/127
f 139/139/139 127/127/127 128/128/128
f 128/128/128 129/129/129 141/141/141
f 129/129/129 130/130/130 142/142/142
f 130/130/130 131/131/131 143/143/143
f 143/143/143 131/131/131 132/132/132
f 145/145/145 144/144/144 132/132/132
f 146/146/146 149/149/149 147/147/147
f 149/149/149 146/146/146 150/150/150
f 135/135/135 150/150/150 136/136/136
f 149/149/149 150/150/150 135/135/135
f 136/136/136 150/150/150 151/151/151
f 150/150/150 146/146/146 151/151/151
f 149/149/149 152/152/152 147/147/147
f 139/139/139 149/149/149 135/135/135
f 152/152/152 149/149/149 139/139/139
f 152/152/152 139/139/139 140/140/140
f 153/153/153 140/140/140 141/141/141
f 154/154/154 141/141/141 142/142/142
f 155/155/155 142/142/142 143/143/143
f 156/156/156 143/143/143 144/144/144
f 158/158/158 157/157/157 144/144/144
f 148/148/148 147/147/147 159/159/159
f 161/161/161 162/162/162 163/163/163
f 1/1/1 5/5/5 163/163/163
f 164/164/164 165/165/165 28/28/28
f 166/166/166 67/67/67 82/82/82
f 167/167/167 57/57/57 69/69/69
f 24/24/24 29/29/29 164/164/164
f 7/7/7 28/28/28 165/165/165
f 11/11/11 7/7/7 165/165/165
f 42/42/42 41/41/41 43/43/43
f 161/161/161 168/168/168 162/162/162
f 13/13/13 4/4/4 169/169/169
f 162/162/162 4/4/4 1/1/1
f 168/168/168 4/4/4 162/162/162
f 4/4/4 168/168/168 169/169/169
f 18/18/18 16/16/16 171/171/171
f 16/16/16 13/13/13 169/169/169
f 173/173/173 20/20/20 174/174/174
f 175/175/175 22/22/22 176/176/176
f 176/176/176 22/22/22 172/172/172
f 20/20/20 18/18/18 170/170/170
f 13/13/13 2/2/2 4/4/4
f 28/28/28 24/24/24 164/164/164
f 163/163/163 162/162/162 1/1/1
f 43/43/43 41/41/41 37/37/37
f 65/65/65 67/67/67 166/166/166
f 69/69/69 65/65/65 167/167/167
f 177/177/177 79/79/79 83/83/83
f 99/99/99 84/84/84 94/94/94
f 178/178/178 136/136/136 151/151/151
f 179/179/179 148/148/148 180/180/180
f 178/178/178 181/181/181 134/134/134
f 182/182/182 183/183/183 184/184/184
f 113/113/113 109/109/109 108/108/108
f 121/121/121 126/126/126 186/186/186
f 82/82/82 81/81/81 177/177/177
f 186/186/186 125/125/125 121/121/121
f 186/186/186 185/185/185 125/125/125
f 181/181/181 138/138/138 134/134/134
f 181/181/181 126/126/126 123/123/123
f 134/134/134 136/136/136 178/178/178
f 148/148/148 179/179/179 146/146/146
f 146/146/146 179/179/179 151/151/151
f 138/138/138 181/181/181 123/123/123
f 159/159/159 147/147/147 152/152/152
f 188/188/188 153/153/153 154/154/154
f 189/189/189 152/152/152 153/153/153
f 191/191/191 155/155/155 156/156/156
f 187/187/187 154/154/154 155/155/155
f 160/160/160 184/184/184 180/180/180
f 192/192/192 182/182/182 159/159/159
f 160/160/160 159/159/159 182/182/182
f 182/182/182 184/184/184 160/160/160
f 152/152/152 189/189/189 159/159/159
f 159/159/159 189/189/189 192/192/192
f 182/182/182 192/192/192 183/183/183
f 193/193/193 194/194/194 195/195/195
f 196/196/196 194/194/194 193/193/193
f 193/193/193 195/195/195 197/197/197
f 196/196/196 199/199/199 194/194/194
f 199/199/199 200/200/200 198/198/198
f 203/203/203 204/204/204 202/202/202
f 200/200/200 204/204/204 203/203/203
f 205/205/205 208/208/208 207/207/207
f 202/202/202 207/207/207 206/206/206
f 207/207/207 202/202/202 201/201/201
f 209/209/209 210/210/210 211/211/211
f 212/212/212 208/208/208 211/211/211
f 211/211/211 210/210/210 212/212/212
f 213/213/213 214/214/214 215/215/215
f 216/216/216 215/215/215 214/214/214
f 209/209/209 215/215/215 210/210/210
f 217/217/217 220/220/220 219/219/219
f 220/220/220 221/221/221 213/213/213
f 221/221/221 220/220/220 217/217/217
f 222/222/222 219/219/219 218/218/218
f 219/219/219 222/222/222 223/223/223
f 226/226/226 227/227/227 224/224/224
f 228/228/228 236/236/236 227/227/227
f 231/231/231 235/235/235 229/229/229
f 234/234/234 237/237/237 232/232/232
f 233/233/233 232/232/232 235/235/235
f 230/230/230 229/229/229 236/236/236
f 238/238/238 239/239/239 234/234/234
f 208/208/208 202/202/202 206/206/206
f 238/238/238 241/241/241 197/197/197
f 240/240/240 200/200/200 199/199/199
f 199/199/199 196/196/196 240/240/240
f 196/196/196 193/193/193 241/241/241
f 240/240/240 204/204/204 200/200/200
f 204/204/204 240/240/240 201/201/201
f 205/205/205 207/207/207 201/201/201
f 205/205/205 209/209/209 211/211/211
f 213/213/213 242/242/242 220/220/220
f 215/215/215 242/242/242 213/213/213
f 209/209/209 242/242/242 215/215/215
f 242/242/242 218/218/218 220/220/220
f 243/243/243 244/244/244 222/222/222
f 218/218/218 243/243/243 222/222/222
f 245/245/245 246/246/246 247/247/247
f 248/248/248 246/246/246 245/245/245
f 249/249/249 250/250/250 251/251/251
f 250/250/250 249/249/249 252/252/252
f 248/248/248 280/280/280 252/252/252
f 254/254/254 251/251/251 255/255/255
f 255/255/255 251/251/251 250/250/250
f 256/256/256 257/257/257 258/258/258
f 256/256/256 258/258/258 253/253/253
f 253/253/253 258/258/258 254/254/254
f 259/259/259 260/260/260 261/261/261
f 262/262/262 263/263/263 264/264/264
f 259/259/259 264/264/264 260/260/260
f 265/265/265 295/295/295 266/266/266
f 262/262/262 267/267/267 263/263/263
f 265/265/265 267/267/267 262/262/262
f 268/268/268 269/269/269 266/266/266
f 270/270/270 271/271/271 272/272/272
f 274/274/274 300/300/300 275/275/275
f 276/276/276 277/277/277 271/271/271
f 274/274/274 277/277/277 276/276/276
f 277/277/277 274/274/274 273/273/273
f 278/278/278 245/245/245 279/279/279
f 245/245/245 280/280/280 248/248/248
f 278/278/278 280/280/280 245/245/245
f 255/255/255 250/250/250 252/252/252
f 281/281/281 282/282/282 261/261/261
f 256/256/256 281/281/281 257/257/257
f 253/253/253 281/281/281 256/256/256
f 282/282/282 259/259/259 261/261/261
f 259/259/259 282/282/282 283/283/283
f 283/283/283 262/262/262 264/264/264
f 284/284/284 285/285/285 286/286/286
f 288/288/288 285/285/285 287/287/287
f 289/289/289 294/294/294 291/291/291
f 271/271/271 292/292/292 291/291/291
f 288/288/288 287/287/287 268/268/268
f 291/291/291 290/290/290 272/272/272
f 272/272/272 290/290/290 293/293/293
f 295/295/295 268/268/268 266/266/266
f 291/291/291 272/272/272 271/271/271
f 271/271/271 277/277/277 292/292/292
f 296/296/296 273/273/273 275/275/275
f 297/297/297 299/299/299 296/296/296
f 275/275/275 300/300/300 297/297/297
f 299/299/299 300/300/300 274/274/274
f 301/301/301 302/302/302 298/298/298
f 277/277/277 273/273/273 292/292/292
f 299/299/299 297/297/297 300/300/300
f 268/268/268 295/295/295 288/288/288
f 293/293/293 290/290/290 294/294/294
f 274/274/274 276/276/276 270/270/270
f 293/293/293 270/270/270 272/272/272
f 286/286/286 294/294/294 289/289/289
f 299/299/299 301/301/301 298/298/298
f 283/283/283 265/265/265 262/262/262
f 304/304/304 358/358/358 305/305/305
f 303/303/303 305/305/305 307/307/307
f 307/307/307 369/369/369 308/308/308
f 308/308/308 369/369/369 310/310/310
f 310/310/310 371/371/371 311/311/311
f 311/311/311 371/371/371 313/313/313
f 314/314/314 312/312/312 313/313/313
f 316/316/316 304/304/304 303/303/303
f 315/315/315 303/303/303 306/306/306
f 306/306/306 308/308/308 318/318/318
f 318/318/318 308/308/308 309/309/309
f 319/319/319 309/309/309 311/311/311
f 320/320/320 311/311/311 312/312/312
f 322/322/322 321/321/321 312/312/312
f 316/316/316 315/315/315 323/323/323
f 323/323/323 315/315/315 317/317/317
f 317/317/317 318/318/318 326/326/326
f 326/326/326 318/318/318 319/319/319
f 319/319/319 320/320/320 328/328/328
f 320/320/320 321/321/321 329/329/329
f 330/330/330 329/329/329 321/321/321
f 324/324/324 323/323/323 331/331/331
f 331/331/331 323/323/323 325/325/325
f 333/333/333 325/325/325 326/326/326
f 326/326/326 327/327/327 335/335/335
f 327/327/327 328/328/328 336/336/336
f 328/328/328 329/329/329 337/337/337
f 338/338/338 337/337/337 329/329/329
f 332/332/332 331/331/331 339/339/339
f 331/331/331 333/333/333 341/341/341
f 333/333/333 334/334/334 342/342/342
f 342/342/342 334/334/334 335/335/335
f 343/343/343 335/335/335 336/336/336
f 336/336/336 337/337/337 345/345/345
f 346/346/346 345/345/345 337/337/337
f 340/340/340 339/339/339 347/347/347
f 347/347/347 339/339/339 341/341/341
f 341/341/341 342/342/342 350/350/350
f 350/350/350 342/342/342 343/343/343
f 343/343/343 344/344/344 352/352/352
f 352/352/352 344/344/344 345/345/345
f 354/354/354 353/353/353 345/345/345
f 355/355/355 356/356/356 357/357/357
f 358/358/358 359/359/359 356/356/356
f 355/355/355 358/358/358 356/356/356
f 360/360/360 359/359/359 358/358/358
f 304/304/304 361/361/361 360/360/360
f 355/355/355 367/367/367 305/305/305
f 304/304/304 362/362/362 361/361/361
f 316/316/316 363/363/363 362/362/362
f 316/316/316 362/362/362 304/304/304
f 324/324/324 364/364/364 365/365/365
f 316/316/316 365/365/365 363/363/363
f 307/307/307 305/305/305 367/367/367
f 369/369/369 307/307/307 366/366/366
f 371/371/371 310/310/310 372/372/372
f 373/373/373 313/313/313 374/374/374
f 313/313/313 371/371/371 370/370/370
f 310/310/310 369/369/369 368/368/368
f 332/332/332 375/375/375 376/376/376
f 332/332/332 377/377/377 375/375/375
f 324/324/324 332/332/332 376/376/376
f 340/340/340 378/378/378 377/377/377
f 364/364/364 324/324/324 376/376/376
f 348/348/348 379/379/379 380/380/380
f 348/348/348 381/381/381 379/379/379
f 348/348/348 380/380/380 340/340/340
f 381/381/381 348/348/348 382/382/382
f 381/381/381 382/382/382 383/383/383
f 378/378/378 340/340/340 380/380/380
f 382/382/382 348/348/348 347/347/347
f 384/384/384 347/347/347 349/349/349
f 385/385/385 349/349/349 350/350/350
f 388/388/388 351/351/351 352/352/352
f 354/354/354 389/389/389 353/353/353
f 387/387/387 352/352/352 353/353/353
f 386/386/386 350/350/350 351/351/351
f 391/391/391 392/392/392 394/394/394
f 395/395/395 396/396/396 391/391/391
f 391/391/391 403/403/403 399/399/399
f 405/405/405 396/396/396 406/406/406
f 407/407/407 393/393/393 397/397/397
f 394/394/394 408/408/408 391/391/391
f 390/390/390 409/409/409 410/410/410
f 411/411/411 412/412/412 413/413/413
f 416/416/416 390/390/390 414/414/414
f 411/411/411 413/413/413 391/391/391
f 396/396/396 417/417/417 406/406/406
f 418/418/418 396/396/396 395/395/395
f 396/396/396 418/418/418 417/417/417
f 418/418/418 395/395/395 419/419/419
f 420/420/420 423/423/423 424/424/424
f 425/425/425 426/426/426 391/391/391
f 391/391/391 426/426/426 428/428/428
f 391/391/391 421/421/421 425/425/425
f 422/422/422 421/421/421 391/391/391
f 399/399/399 395/395/395 391/391/391
f 415/415/415 422/422/422 391/391/391
f 429/429/429 399/399/399 401/401/401
f 430/430/430 398/398/398 432/432/432
f 429/429/429 431/431/431 399/399/399
f 434/434/434 435/435/435 402/402/402
f 437/437/437 404/404/404 427/427/427
f 403/403/403 391/391/391 428/428/428
f 438/438/438 403/403/403 436/436/436
f 440/440/440 401/401/401 403/403/403
f 439/439/439 433/433/433 400/400/400
f 10/10/10 5/5/5 3/3/3
f 69/69/69 57/57/57 53/53/53
f 125/125/125 185/185/185 108/108/108
f 160/160/160 180/180/180 148/148/148
f 22/22/22 173/173/173 172/172/172
f 157/157/157 190/190/190 156/156/156
f 193/193/193 197/197/197 241/241/241
f 259/259/259 283/283/283 264/264/264
f 284/284/284 286/286/286 289/289/289
f 304/304/304 360/360/360 358/358/358
f 324/324/324 365/365/365 316/316/316
f 340/340/340 377/377/377 332/332/332
f 396/396/396 392/392/392 391/391/391
f 1/1/1 2/2/2 3/3/3
f 6/6/6 7/7/7 8/8/8
f 3/3/3 6/6/6 8/8/8
f 8/8/8 10/10/10 3/3/3
f 13/13/13 14/14/14 12/12/12
f 16/16/16 15/15/15 14/14/14
f 18/18/18 17/17/17 15/15/15
f 20/20/20 19/19/19 17/17/17
f 19/19/19 22/22/22 21/21/21
f 24/24/24 25/25/25 26/26/26
f 30/30/30 14/14/14 31/31/31
f 31/31/31 15/15/15 32/32/32
f 15/15/15 33/33/33 32/32/32
f 17/17/17 34/34/34 33/33/33
f 19/19/19 35/35/35 34/34/34
f 26/26/26 40/40/40 41/41/41
f 39/39/39 43/43/43 37/37/37
f 45/45/45 31/31/31 46/46/46
f 31/31/31 47/47/47 46/46/46
f 32/32/32 48/48/48 47/47/47
f 48/48/48 34/34/34 49/49/49
f 34/34/34 50/50/50 49/49/49
f 52/52/52 53/53/53 54/54/54
f 39/39/39 52/52/52 54/54/54
f 45/45/45 59/59/59 58/58/58
f 46/46/46 60/60/60 59/59/59
f 60/60/60 48/48/48 61/61/61
f 61/61/61 49/49/49 62/62/62
f 62/62/62 50/50/50 63/63/63
f 65/65/65 66/66/66 67/67/67
f 55/55/55 69/69/69 53/53/53
f 58/58/58 71/71/71 70/70/70
f 59/59/59 72/72/72 71/71/71
f 72/72/72 61/61/61 73/73/73
f 61/61/61 74/74/74 73/73/73
f 74/74/74 63/63/63 75/75/75
f 77/77/77 78/78/78 79/79/79
f 78/78/78 84/84/84 83/83/83
f 70/70/70 86/86/86 85/85/85
f 86/86/86 72/72/72 87/87/87
f 87/87/87 73/73/73 88/88/88
f 73/73/73 89/89/89 88/88/88
f 74/74/74 90/90/90 89/89/89
f 92/92/92 93/93/93 94/94/94
f 93/93/93 98/98/98 97/97/97
f 97/97/97 94/94/94 93/93/93
f 100/100/100 86/86/86 101/101/101
f 86/86/86 102/102/102 101/101/101
f 87/87/87 103/103/103 102/102/102
f 103/103/103 89/89/89 104/104/104
f 104/104/104 90/90/90 105/105/105
f 107/107/107 108/108/108 109/109/109
f 114/114/114 101/101/101 115/115/115
f 115/115/115 102/102/102 116/116/116
f 116/116/116 103/103/103 117/117/117
f 117/117/117 104/104/104 118/118/118
f 104/104/104 119/119/119 118/118/118
f 122/122/122 123/123/123 121/121/121
f 125/125/125 124/124/124 121/121/121
f 127/127/127 115/115/115 128/128/128
f 115/115/115 129/129/129 128/128/128
f 116/116/116 130/130/130 129/129/129
f 117/117/117 131/131/131 130/130/130
f 131/131/131 119/119/119 132/132/132
f 134/134/134 135/135/135 136/136/136
f 139/139/139 128/128/128 140/140/140
f 128/128/128 141/141/141 140/140/140
f 129/129/129 142/142/142 141/141/141
f 130/130/130 143/143/143 142/142/142
f 143/143/143 132/132/132 144/144/144
f 146/146/146 147/147/147 148/148/148
f 152/152/152 140/140/140 153/153/153
f 153/153/153 141/141/141 154/154/154
f 154/154/154 142/142/142 155/155/155
f 155/155/155 143/143/143 156/156/156
f 156/156/156 144/144/144 157/157/157
f 148/148/148 159/159/159 160/160/160
f 18/18/18 171/171/171 170/170/170
f 16/16/16 169/169/169 171/171/171
f 173/173/173 174/174/174 172/172/172
f 20/20/20 170/170/170 174/174/174
f 65/65/65 166/166/166 167/167/167
f 113/113/113 108/108/108 185/185/185
f 81/81/81 79/79/79 177/177/177
f 188/188/188 154/154/154 187/187/187
f 189/189/189 153/153/153 188/188/188
f 191/191/191 156/156/156 190/190/190
f 187/187/187 155/155/155 191/191/191
f 199/199/199 198/198/198 194/194/194
f 204/204/204 201/201/201 202/202/202
f 208/208/208 206/206/206 207/207/207
f 208/208/208 205/205/205 211/211/211
f 215/215/215 216/216/216 210/210/210
f 220/220/220 218/218/218 219/219/219
f 226/226/226 224/224/224 225/225/225
f 228/228/228 227/227/227 226/226/226
f 231/231/231 229/229/229 230/230/230
f 234/234/234 232/232/232 233/233/233
f 233/233/233 235/235/235 231/231/231
f 230/230/230 236/236/236 228/228/228
f 239/239/239 237/237/237 234/234/234
f 238/238/238 197/197/197 239/239/239
f 244/244/244 223/223/223 222/222/222
f 248/248/248 252/252/252 249/249/249
f 254/254/254 255/255/255 253/253/253
f 265/265/265 266/266/266 267/267/267
f 274/274/274 275/275/275 273/273/273
f 276/276/276 271/271/271 270/270/270
f 245/245/245 247/247/247 279/279/279
f 281/281/281 261/261/261 257/257/257
f 285/285/285 284/284/284 287/287/287
f 294/294/294 290/290/290 291/291/291
f 287/287/287 269/269/269 268/268/268
f 299/299/299 298/298/298 296/296/296
f 275/275/275 297/297/297 296/296/296
f 304/304/304 305/305/305 303/303/303
f 303/303/303 307/307/307 306/306/306
f 307/307/307 308/308/308 306/306/306
f 308/308/308 310/310/310 309/309/309
f 310/310/310 311/311/311 309/309/309
f 311/311/311 313/313/313 312/312/312
f 316/316/316 303/303/303 315/315/315
f 315/315/315 306/306/306 317/317/317
f 306/306/306 318/318/318 317/317/317
f 318/318/318 309/309/309 319/319/319
f 319/319/319 311/311/311 320/320/320
f 320/320/320 312/312/312 321/321/321
f 316/316/316 323/323/323 324/324/324
f 323/323/323 317/317/317 325/325/325
f 317/317/317 326/326/326 325/325/325
f 326/326/326 319/319/319 327/327/327
f 319/319/319 328/328/328 327/327/327
f 320/320/320 329/329/329 328/328/328
f 324/324/324 331/331/331 332/332/332
f 331/331/331 325/325/325 333/333/333
f 333/333/333 326/326/326 334/334/334
f 326/326/326 335/335/335 334/334/334
f 327/327/327 336/336/336 335/335/335
f 328/328/328 337/337/337 336/336/336
f 332/332/332 339/339/339 340/340/340
f 331/331/331 341/341/341 339/339/339
f 333/333/333 342/342/342 341/341/341
f 342/342/342 335/335/335 343/343/343
f 343/343/343 336/336/336 344/344/344
f 336/336/336 345/345/345 344/344/344
f 340/340/340 347/347/347 348/348/348
f 347/347/347 341/341/341 349/349/349
f 341/341/341 350/350/350 349/349/349
f 350/350/350 343/343/343 351/351/351
f 343/343/343 352/352/352 351/351/351
f 352/352/352 345/345/345 353/353/353
f 355/355/355 305/305/305 358/358/358
f 307/307/307 367/367/367 366/366/366
f 369/369/369 366/366/366 368/368/368
f 371/371/371 372/372/372 370/370/370
f 313/313/313 370/370/370 374/374/374
f 310/310/310 368/368/368 372/372/372
f 382/382/382 347/347/347 384/384/384
f 384/384/384 349/349/349 385/385/385
f 385/385/385 350/350/350 386/386/386
f 388/388/388 352/352/352 387/387/387
f 387/387/387 353/353/353 389/389/389
f 386/386/386 351/351/351 388/388/388
f 403/403/403 401/401/401 399/399/399

