mtllib material.mtl
usemtl Material-塑胶__4_
v -0.30208400 0.01003100 0.07346500
v -0.31119900 0.01214500 0.07348100
v -0.31119900 0.01214500 0.07348100
v -0.31119900 0.01214500 0.07348100
v -0.31119900 0.01214500 0.07348100
v -0.31119900 0.01214500 0.07348100
v -0.29967900 0.00742100 0.07348400
v -0.30467300 0.01156700 0.07342500
v -0.29831300 0.00550900 0.07347300
v -0.30800300 0.01252500 0.07333200
v -0.29741100 0.00243800 0.07348400
v -0.29707400 -0.00090100 0.07348100
v -0.29789800 -0.00421500 0.07348300
v -0.29789800 -0.00421500 0.07348300
v -0.29947200 -0.00713800 0.07348600
v -0.29947200 -0.00713800 0.07348600
v -0.30194300 -0.00977100 0.07348000
v -0.30194300 -0.00977100 0.07348000
v -0.30555000 -0.01166900 0.07348000
v -0.30555000 -0.01166900 0.07348000
v -0.30890400 -0.01225800 0.07348400
v -0.30890400 -0.01225800 0.07348400
v -0.31424100 0.01168600 0.07333100
v -0.31729600 0.00970200 0.07344000
v -0.31946400 0.00713800 0.07348200
v -0.32118300 0.00378500 0.07348800
v -0.32118300 0.00378500 0.07348800
v -0.31110300 -0.01215600 0.07348200
v -0.31110300 -0.01215600 0.07348200
v -0.32149100 -0.00217700 0.07348600
v -0.32059000 -0.00527000 0.07348400
v -0.32059000 -0.00527000 0.07348400
v -0.31861100 -0.00817300 0.07348200
v -0.31861100 -0.00817300 0.07348200
v -0.31421700 -0.01133600 0.07348300
v -0.31421700 -0.01133600 0.07348300
v -0.31714700 -0.00974000 0.07348100
v -0.32245000 0.00000700 0.06873800
v -0.32243600 0.00000800 0.07277600
v -0.32229900 0.00196000 0.07276800
v -0.32132300 0.00529400 0.06498800
v -0.32198600 0.00344100 0.07248800
v -0.32144600 0.00494900 0.07291500
v -0.32070200 0.00646600 0.07297200
v -0.31963600 0.00808600 0.07272900
v -0.31814300 0.00966600 0.06498800
v -0.31848200 0.00935000 0.07248800
v -0.31725700 0.01039100 0.07278800
v -0.31346000 0.01236600 0.06498800
v -0.31574900 0.01137600 0.07274300
v -0.31404700 0.01215500 0.07275900
v -0.31245700 0.01264800 0.07248800
v -0.31087100 0.01292800 0.07276500
v -0.30808400 0.01292800 0.06498800
v -0.30902500 0.01298600 0.07276400
v -0.30709300 0.01278100 0.07278600
v -0.30294400 0.01125500 0.06498800
v -0.30559200 0.01241400 0.07248800
v -0.30405300 0.01182300 0.07275400
v -0.32245000 0.00000700 0.06498800
v -0.30241400 0.01092200 0.07276500
v -0.30037300 0.00933800 0.07276100
v -0.29892900 0.00763500 0.06498800
v -0.29880800 0.00742600 0.07291000
v -0.29780100 0.00577400 0.07274700
v -0.29673300 0.00269600 0.06498800
v -0.29648400 0.00091100 0.07273600
v -0.29670900 0.00258200 0.07248800
v -0.29713000 0.00409100 0.07292700
v -0.29647300 -0.00080500 0.07275600
v -0.29673600 -0.00271000 0.06498800
v -0.29688100 -0.00342100 0.07269800
v -0.29780800 -0.00578900 0.07273600
v -0.29893700 -0.00764700 0.06498800
v -0.29882500 -0.00745300 0.07292100
v -0.29997400 -0.00889600 0.07275000
v -0.30295600 -0.01126200 0.06498800
v -0.30106200 -0.00993200 0.07248800
v -0.30247800 -0.01094600 0.07291300
v -0.30388200 -0.01172000 0.07297300
v -0.30560500 -0.01241800 0.07248800
v -0.30809800 -0.01293000 0.06498800
v -0.30709000 -0.01278000 0.07276300
v -0.30897300 -0.01297000 0.07291600
v -0.31347400 -0.01236200 0.06498800
v -0.31083300 -0.01293100 0.07273300
v -0.31334900 -0.01242700 0.07269800
v -0.31569800 -0.01140500 0.07273800
v -0.31720300 -0.01043000 0.07276600
v -0.31815400 -0.00965600 0.06498800
v -0.31849300 -0.00934000 0.07248800
v -0.31967700 -0.00802900 0.07293000
v -0.32132900 -0.00528100 0.06498800
v -0.32059200 -0.00665400 0.07297700
v -0.32145600 -0.00492300 0.07292600
v -0.32214600 -0.00282000 0.07280100
v -0.32245000 0.00000700 0.06873800
v -0.32243600 0.00000800 0.07277600
v -0.32245000 0.00000700 0.06498800
v -0.29673300 0.00269600 0.06498800
v -0.29779000 0.00341700 0.06498800
v -0.29892900 0.00763500 0.06498800
v -0.29673600 -0.00271000 0.06498800
v -0.29730000 -0.00000700 0.06498800
v -0.29922500 0.00656300 0.06498800
v -0.30771400 0.01202500 0.06498800
v -0.30808400 0.01292800 0.06498800
v -0.30439700 0.01104900 0.06498800
v -0.30294400 0.01125500 0.06498800
v -0.30148800 0.00917800 0.06498800
v -0.29893700 -0.00764700 0.06498800
v -0.29779400 -0.00342900 0.06498800
v -0.30149900 -0.00918700 0.06498800
v -0.29923200 -0.00657400 0.06498800
v -0.30295600 -0.01126200 0.06498800
v -0.30440900 -0.01105500 0.06498800
v -0.30809800 -0.01293000 0.06498800
v -0.30772800 -0.01202700 0.06498800
v -0.31118600 -0.01202500 0.06498800
v -0.31117300 0.01202700 0.06498800
v -0.31346000 0.01236600 0.06498800
v -0.31449100 0.01105500 0.06498800
v -0.31814300 0.00966600 0.06498800
v -0.31966800 0.00657400 0.06498800
v -0.31740200 0.00918700 0.06498800
v -0.32110600 0.00342900 0.06498800
v -0.32132300 0.00529400 0.06498800
v -0.32245000 0.00000700 0.06498800
v -0.31450300 -0.01104900 0.06498800
v -0.31815400 -0.00965600 0.06498800
v -0.31741200 -0.00917800 0.06498800
v -0.31967500 -0.00656300 0.06498800
v -0.31347400 -0.01236200 0.06498800
v -0.32111000 -0.00341700 0.06498800
v -0.32160000 0.00000700 0.06498800
v -0.32132900 -0.00528100 0.06498800
v -0.29730000 -0.00000700 0.06248800
v -0.29779000 0.00341700 0.06248800
v -0.29779000 0.00341700 0.06498800
v -0.29922500 0.00656300 0.06248800
v -0.30148800 0.00917800 0.06248800
v -0.30148800 0.00917800 0.06498800
v -0.30439700 0.01104900 0.06248800
v -0.30439700 0.01104900 0.06498800
v -0.29922500 0.00656300 0.06498800
v -0.30771400 0.01202500 0.06248800
v -0.31117300 0.01202700 0.06248800
v -0.31117300 0.01202700 0.06498800
v -0.31449100 0.01105500 0.06248800
v -0.31449100 0.01105500 0.06498800
v -0.31740200 0.00918700 0.06248800
v -0.31966800 0.00657400 0.06248800
v -0.31966800 0.00657400 0.06498800
v -0.32110600 0.00342900 0.06248800
v -0.32110600 0.00342900 0.06498800
v -0.31740200 0.00918700 0.06498800
v -0.30771400 0.01202500 0.06498800
v -0.32160000 0.00000700 0.06248800
v -0.32160000 0.00000700 0.06498800
v -0.32111000 -0.00341700 0.06248800
v -0.31967500 -0.00656300 0.06248800
v -0.31967500 -0.00656300 0.06498800
v -0.31741200 -0.00917800 0.06248800
v -0.31450300 -0.01104900 0.06248800
v -0.31450300 -0.01104900 0.06498800
v -0.31118600 -0.01202500 0.06248800
v -0.31118600 -0.01202500 0.06498800
v -0.31741200 -0.00917800 0.06498800
v -0.30772800 -0.01202700 0.06248800
v -0.30440900 -0.01105500 0.06248800
v -0.30440900 -0.01105500 0.06498800
v -0.30149900 -0.00918700 0.06248800
v -0.30149900 -0.00918700 0.06498800
v -0.29923200 -0.00657400 0.06248800
v -0.29779400 -0.00342900 0.06248800
v -0.29779400 -0.00342900 0.06498800
v -0.29730000 -0.00000700 0.06248800
v -0.29730000 -0.00000700 0.06498800
v -0.29923200 -0.00657400 0.06498800
v -0.30772800 -0.01202700 0.06498800
v -0.32111000 -0.00341700 0.06498800
v -0.31737400 0.00809100 0.06248800
v -0.31985500 0.00447100 0.06248800
v -0.31966800 0.00657400 0.06248800
v -0.32077500 0.00000600 0.06248800
v -0.32110600 0.00342900 0.06248800
v -0.31740200 0.00918700 0.06248800
v -0.31372600 0.01048700 0.06248800
v -0.31117300 0.01202700 0.06248800
v -0.30944400 0.01132500 0.06248800
v -0.30771400 0.01202500 0.06248800
v -0.31449100 0.01105500 0.06248800
v -0.32111000 -0.00341700 0.06248800
v -0.32160000 0.00000700 0.06248800
v -0.31967500 -0.00656300 0.06248800
v -0.31993700 -0.00427600 0.06248800
v -0.31754100 -0.00792400 0.06248800
v -0.31741200 -0.00917800 0.06248800
v -0.31450300 -0.01104900 0.06248800
v -0.31118600 -0.01202500 0.06248800
v -0.31392100 -0.01040500 0.06248800
v -0.30945600 -0.01132500 0.06248800
v -0.30497900 0.01040500 0.06248800
v -0.30439700 0.01104900 0.06248800
v -0.30148800 0.00917800 0.06248800
v -0.30135900 0.00792400 0.06248800
v -0.29896400 0.00427600 0.06248800
v -0.29922500 0.00656300 0.06248800
v -0.29812500 -0.00000600 0.06248800
v -0.29779000 0.00341700 0.06248800
v -0.29730000 -0.00000700 0.06248800
v -0.30440900 -0.01105500 0.06248800
v -0.30517400 -0.01048700 0.06248800
v -0.30152600 -0.00809100 0.06248800
v -0.30772800 -0.01202700 0.06248800
v -0.30149900 -0.00918700 0.06248800
v -0.29779400 -0.00342900 0.06248800
v -0.29904500 -0.00447100 0.06248800
v -0.29923200 -0.00657400 0.06248800
v -0.32192600 -0.00237800 0.07320200
v -0.32205600 0.00142600 0.07327400
v -0.32243600 0.00000800 0.07277600
v -0.32149100 -0.00217700 0.07348600
v -0.32059000 -0.00527000 0.07348400
v -0.31861100 -0.00817300 0.07348200
v -0.32059200 -0.00665400 0.07297700
v -0.31714700 -0.00974000 0.07348100
v -0.31967700 -0.00802900 0.07293000
v -0.31720300 -0.01043000 0.07276600
v -0.31540500 -0.01121700 0.07320200
v -0.31421700 -0.01133600 0.07348300
v -0.31333400 -0.01209200 0.07320200
v -0.31569800 -0.01140500 0.07273800
v -0.31114000 -0.01258700 0.07320200
v -0.31334900 -0.01242700 0.07269800
v -0.31110300 -0.01215600 0.07348200
v -0.30897300 -0.01297000 0.07291600
v -0.31083300 -0.01293100 0.07273300
v -0.30890400 -0.01225800 0.07348400
v -0.30555000 -0.01166900 0.07348000
v -0.30650700 -0.01235400 0.07320200
v -0.30194300 -0.00977100 0.07348000
v -0.30388200 -0.01172000 0.07297300
v -0.29882500 -0.00745300 0.07292100
v -0.30058600 -0.00909500 0.07320200
v -0.29997400 -0.00889600 0.07275000
v -0.29947200 -0.00713800 0.07348600
v -0.29789800 -0.00421500 0.07348300
v -0.29798000 -0.00545200 0.07320200
v -0.29719800 -0.00334400 0.07320200
v -0.29688100 -0.00342100 0.07269800
v -0.29707400 -0.00090100 0.07348100
v -0.29647300 -0.00080500 0.07275600
v -0.29680600 0.00118800 0.07320200
v -0.29741100 0.00243800 0.07348400
v -0.29831300 0.00550900 0.07347300
v -0.29713000 0.00409100 0.07292700
v -0.29780100 0.00577400 0.07274700
v -0.29880800 0.00742600 0.07291000
v -0.30075700 0.00925900 0.07320200
v -0.30037300 0.00933800 0.07276100
v -0.30208400 0.01003100 0.07346500
v -0.29967900 0.00742100 0.07348400
v -0.30241400 0.01092200 0.07276500
v -0.30467300 0.01156700 0.07342500
v -0.30800300 0.01252500 0.07333200
v -0.30709300 0.01278100 0.07278600
v -0.31125700 0.01257100 0.07320200
v -0.30902500 0.01298600 0.07276400
v -0.31424100 0.01168600 0.07333100
v -0.31087100 0.01292800 0.07276500
v -0.31119900 0.01214500 0.07348100
v -0.31729600 0.00970200 0.07344000
v -0.31574900 0.01137600 0.07274300
v -0.31908500 0.00827500 0.07320200
v -0.31725700 0.01039100 0.07278800
v -0.31946400 0.00713800 0.07348200
v -0.32070200 0.00646600 0.07297200
v -0.31963600 0.00808600 0.07272900
v -0.32118300 0.00378500 0.07348800
v -0.32205600 0.00142600 0.07327400
v -0.32144600 0.00494900 0.07291500
v -0.32229900 0.00196000 0.07276800
v -0.31849300 -0.00934000 0.07248800
v -0.30247800 -0.01094600 0.07291300
v -0.30106200 -0.00993200 0.07248800
v -0.32118300 0.00378500 0.07348800
v -0.29648400 0.00091100 0.07273600
v -0.29670900 0.00258200 0.07248800
v -0.30405300 0.01182300 0.07275400
v -0.30559200 0.01241400 0.07248800
v -0.31404700 0.01215500 0.07275900
v -0.31245700 0.01264800 0.07248800
v -0.31848200 0.00935000 0.07248800
v -0.32198600 0.00344100 0.07248800
v -0.29904500 -0.00447100 0.06248800
v -0.29904500 -0.00447100 0.07152100
v -0.29812500 -0.00000600 0.07152100
v -0.30517400 -0.01048700 0.06248800
v -0.30517400 -0.01048700 0.07152100
v -0.30152600 -0.00809100 0.07152100
v -0.30152600 -0.00809100 0.06248800
v -0.31392100 -0.01040500 0.06248800
v -0.31392100 -0.01040500 0.07152100
v -0.30945600 -0.01132500 0.07152100
v -0.31993700 -0.00427600 0.06248800
v -0.31993700 -0.00427600 0.07152100
v -0.31754100 -0.00792400 0.07152100
v -0.31754100 -0.00792400 0.06248800
v -0.30945600 -0.01132500 0.06248800
v -0.32077500 0.00000600 0.06248800
v -0.32077500 0.00000600 0.07152100
v -0.31737400 0.00809100 0.06248800
v -0.31737400 0.00809100 0.07152100
v -0.31985500 0.00447100 0.07152100
v -0.30944400 0.01132500 0.06248800
v -0.30944400 0.01132500 0.07152100
v -0.31372600 0.01048700 0.07152100
v -0.31372600 0.01048700 0.06248800
v -0.30135900 0.00792400 0.06248800
v -0.30135900 0.00792400 0.07152100
v -0.30497900 0.01040500 0.07152100
v -0.29812500 -0.00000600 0.06248800
v -0.29812500 -0.00000600 0.07152100
v -0.29896400 0.00427600 0.07152100
v -0.29896400 0.00427600 0.06248800
v -0.30497900 0.01040500 0.06248800
v -0.31985500 0.00447100 0.06248800
v -0.31985500 0.00447100 0.07152100
v -0.31737400 0.00809100 0.07152100
v -0.31372600 0.01048700 0.07152100
v -0.30944400 0.01132500 0.07152100
v -0.30135900 0.00792400 0.07152100
v -0.31993700 -0.00427600 0.07152100
v -0.30497900 0.01040500 0.07152100
v -0.29896400 0.00427600 0.07152100
v -0.29812500 -0.00000600 0.07152100
v -0.32077500 0.00000600 0.07152100
v -0.29904500 -0.00447100 0.07152100
v -0.31754100 -0.00792400 0.07152100
v -0.31392100 -0.01040500 0.07152100
v -0.30945600 -0.01132500 0.07152100
v -0.30152600 -0.00809100 0.07152100
v -0.30517400 -0.01048700 0.07152100
v -0.29730000 -0.00000700 0.06498800
v -0.32214600 -0.00282000 0.07280100
v -0.32145600 -0.00492300 0.07292600
v -0.30709000 -0.01278000 0.07276300
v -0.29780800 -0.00578900 0.07273600
v -0.32243600 0.00000800 0.07277600
v -0.30560500 -0.01241800 0.07248800
v -0.29812500 -0.00000600 0.06248800
vn 0.00000000 0.00000000 1.00000000
vn 0.00000000 0.00000000 1.00000000
vn 0.00030000 0.00000000 1.00000000
vn -0.00010000 0.00000000 1.00000000
vn 0.00010000 -0.00000000 1.00000000
vn -0.00010000 -0.00010000 1.00000000
vn 0.00000000 0.00000000 1.00000000
vn 0.00000000 0.00000000 1.00000000
vn 0.00000000 0.00000000 1.00000000
vn 0.00000000 0.00000000 1.00000000
vn 0.00000000 0.00000000 1.00000000
vn 0.00000000 0.00000000 1.00000000
vn -0.00010000 -0.00010000 1.00000000
vn 0.00000000 0.00000000 1.00000000
vn -0.00010000 -0.00010000 1.00000000
vn 0.00000000 0.00000000 1.00000000
vn -0.00010000 -0.00010000 1.00000000
vn 0.00000000 0.00000000 1.00000000
vn 0.00000000 0.00000000 1.00000000
vn -0.00010000 -0.00010000 1.00000000
vn 0.00010000 -0.00000000 1.00000000
vn 0.00000000 0.00000000 1.00000000
vn 0.00000000 0.00000000 1.00000000
vn 0.00000000 0.00000000 1.00000000
vn 0.00000000 0.00000000 1.00000000
vn 0.00000000 0.00000000 1.00000000
vn -0.00010000 0.00000000 1.00000000
vn 0.00030000 0.00000000 1.00000000
vn 0.00010000 -0.00000000 1.00000000
vn -0.00010000 0.00000000 1.00000000
vn -0.00010000 0.00000000 1.00000000
vn 0.00000000 0.00000000 1.00000000
vn 0.00010000 -0.00000000 1.00000000
vn 0.00000000 0.00000000 1.00000000
vn 0.00030000 0.00000000 1.00000000
vn 0.00010000 -0.00000000 1.00000000
vn 0.00010000 -0.00000000 1.00000000
vn -1.00000000 0.00060000 0.00000000
vn -1.00000000 0.00070000 0.00000000
vn -0.98860000 0.15070000 0.00000000
vn -0.91330000 0.40720000 -0.00000000
vn -0.96430000 0.26470000 -0.00000000
vn -0.92440000 0.38150000 0.00000000
vn -0.86700000 0.49840000 0.00000000
vn -0.78320000 0.62170000 0.00000000
vn -0.66870000 0.74350000 -0.00000000
vn -0.69480000 0.71920000 -0.00000000
vn -0.60060000 0.79960000 -0.00000000
vn -0.30850000 0.95120000 -0.00000000
vn -0.48440000 0.87480000 -0.00000000
vn -0.35380000 0.93530000 0.00000000
vn -0.23130000 0.97290000 -0.00000000
vn -0.10920000 0.99400000 -0.00000000
vn 0.10510000 0.99450000 0.00000000
vn 0.03270000 0.99950000 -0.00000000
vn 0.18130000 0.98340000 0.00000000
vn 0.50050000 0.86580000 0.00000000
vn 0.29680000 0.95490000 0.00000000
vn 0.41530000 0.90970000 -0.00000000
vn -1.00000000 0.00060000 0.00000000
vn 0.54160000 0.84070000 -0.00000000
vn 0.69710000 0.71700000 -0.00000000
vn 0.80930000 0.58730000 -0.00000000
vn 0.82010000 0.57220000 -0.00000000
vn 0.89600000 0.44410000 0.00000000
vn 0.97830000 0.20740000 0.00000000
vn 0.99750000 0.07010000 -0.00000000
vn 0.98010000 0.19870000 -0.00000000
vn 0.94900000 0.31520000 0.00000000
vn 0.99810000 -0.06190000 0.00000000
vn 0.97800000 -0.20840000 -0.00000000
vn 0.96490000 -0.26260000 -0.00000000
vn 0.89540000 -0.44520000 -0.00000000
vn 0.80870000 -0.58820000 -0.00000000
vn 0.81870000 -0.57420000 -0.00000000
vn 0.72910000 -0.68440000 -0.00000000
vn 0.49950000 -0.86630000 -0.00000000
vn 0.64520000 -0.76400000 0.00000000
vn 0.53720000 -0.84340000 -0.00000000
vn 0.42910000 -0.90330000 -0.00000000
vn 0.29580000 -0.95530000 0.00000000
vn 0.10400000 -0.99460000 -0.00000000
vn 0.18160000 -0.98340000 -0.00000000
vn 0.03670000 -0.99930000 -0.00000000
vn -0.30950000 -0.95090000 0.00000000
vn -0.10630000 -0.99430000 0.00000000
vn -0.29940000 -0.95410000 0.00000000
vn -0.48040000 -0.87700000 -0.00000000
vn -0.59660000 -0.80260000 0.00000000
vn -0.66950000 -0.74280000 0.00000000
vn -0.69560000 -0.71840000 -0.00000000
vn -0.78660000 -0.61750000 0.00000000
vn -0.91380000 -0.40620000 0.00000000
vn -0.85850000 -0.51270000 0.00000000
vn -0.92520000 -0.37950000 0.00000000
vn -0.97620000 -0.21680000 -0.00000000
vn -1.00000000 0.00060000 0.00000000
vn -1.00000000 0.00060000 0.00000000
vn -1.00000000 0.00050000 0.00000000
vn -0.00000000 0.00000000 -1.00000000
vn -0.00000000 0.00000000 -1.00000000
vn -0.00000000 0.00000000 -1.00000000
vn -0.00000000 0.00000000 -1.00000000
vn -0.00000000 0.00000000 -1.00000000
vn -0.00000000 0.00000000 -1.00000000
vn -0.00000000 0.00000000 -1.00000000
vn -0.00000000 0.00000000 -1.00000000
vn -0.00000000 0.00000000 -1.00000000
vn -0.00000000 0.00000000 -1.00000000
vn -0.00000000 0.00000000 -1.00000000
vn -0.00000000 0.00000000 -1.00000000
vn -0.00000000 0.00000000 -1.00000000
vn -0.00000000 0.00000000 -1.00000000
vn -0.00000000 0.00000000 -1.00000000
vn -0.00000000 0.00000000 -1.00000000
vn -0.00000000 0.00000000 -1.00000000
vn -0.00000000 0.00000000 -1.00000000
vn -0.00000000 0.00000000 -1.00000000
vn -0.00000000 0.00000000 -1.00000000
vn -0.00000000 0.00000000 -1.00000000
vn -0.00000000 0.00000000 -1.00000000
vn -0.00000000 0.00000000 -1.00000000
vn -0.00000000 0.00000000 -1.00000000
vn -0.00000000 0.00000000 -1.00000000
vn -0.00000000 0.00000000 -1.00000000
vn -0.00000000 0.00000000 -1.00000000
vn -0.00000000 0.00000000 -1.00000000
vn -0.00000000 0.00000000 -1.00000000
vn -0.00000000 0.00000000 -1.00000000
vn -0.00000000 0.00000000 -1.00000000
vn -0.00000000 0.00000000 -1.00000000
vn -0.00000000 0.00000000 -1.00000000
vn -0.00000000 0.00000000 -1.00000000
vn -0.00000000 0.00000000 -1.00000000
vn -0.00000000 0.00000000 -1.00000000
vn -0.00000000 0.00000000 -1.00000000
vn 1.00000000 -0.00060000 -0.00000000
vn 0.95960000 0.28120000 0.00000000
vn 0.95960000 0.28120000 0.00000000
vn 0.84150000 0.54020000 0.00000000
vn 0.65530000 0.75540000 0.00000000
vn 0.65530000 0.75540000 0.00000000
vn 0.41590000 0.90940000 0.00000000
vn 0.41590000 0.90940000 0.00000000
vn 0.84150000 0.54020000 0.00000000
vn 0.14290000 0.98970000 0.00000000
vn -0.14180000 0.98990000 0.00000000
vn -0.14180000 0.98990000 0.00000000
vn -0.41490000 0.90990000 0.00000000
vn -0.41490000 0.90990000 0.00000000
vn -0.65440000 0.75610000 0.00000000
vn -0.84100000 0.54110000 0.00000000
vn -0.84100000 0.54110000 0.00000000
vn -0.95930000 0.28230000 0.00000000
vn -0.95930000 0.28230000 0.00000000
vn -0.65440000 0.75610000 0.00000000
vn 0.14290000 0.98970000 0.00000000
vn -1.00000000 0.00050000 0.00000000
vn -1.00000000 0.00060000 0.00000000
vn -0.95960000 -0.28120000 0.00000000
vn -0.84160000 -0.54020000 0.00000000
vn -0.84150000 -0.54020000 0.00000000
vn -0.65530000 -0.75540000 0.00000000
vn -0.41590000 -0.90940000 0.00000000
vn -0.41590000 -0.90940000 0.00000000
vn -0.14290000 -0.98970000 0.00000000
vn -0.14290000 -0.98970000 0.00000000
vn -0.65530000 -0.75540000 0.00000000
vn 0.14180000 -0.98990000 0.00000000
vn 0.41490000 -0.90990000 0.00000000
vn 0.41490000 -0.90990000 0.00000000
vn 0.65440000 -0.75610000 0.00000000
vn 0.65440000 -0.75610000 0.00000000
vn 0.84100000 -0.54110000 0.00000000
vn 0.95930000 -0.28230000 0.00000000
vn 0.95930000 -0.28230000 0.00000000
vn 1.00000000 -0.00050000 -0.00000000
vn 1.00000000 -0.00050000 -0.00000000
vn 0.84100000 -0.54110000 0.00000000
vn 0.14180000 -0.98990000 0.00000000
vn -0.95960000 -0.28120000 0.00000000
vn -0.00000000 0.00000000 -1.00000000
vn -0.00000000 0.00000000 -1.00000000
vn -0.00000000 0.00000000 -1.00000000
vn -0.00000000 0.00000000 -1.00000000
vn -0.00000000 0.00000000 -1.00000000
vn -0.00000000 0.00000000 -1.00000000
vn -0.00000000 0.00000000 -1.00000000
vn -0.00000000 0.00000000 -1.00000000
vn -0.00000000 0.00000000 -1.00000000
vn -0.00000000 0.00000000 -1.00000000
vn -0.00000000 0.00000000 -1.00000000
vn -0.00000000 0.00000000 -1.00000000
vn -0.00000000 0.00000000 -1.00000000
vn -0.00000000 0.00000000 -1.00000000
vn -0.00000000 0.00000000 -1.00000000
vn -0.00000000 0.00000000 -1.00000000
vn -0.00000000 0.00000000 -1.00000000
vn -0.00000000 0.00000000 -1.00000000
vn -0.00000000 0.00000000 -1.00000000
vn -0.00000000 0.00000000 -1.00000000
vn -0.00000000 0.00000000 -1.00000000
vn -0.00000000 0.00000000 -1.00000000
vn -0.00000000 0.00000000 -1.00000000
vn -0.00000000 0.00000000 -1.00000000
vn -0.00000000 0.00000000 -1.00000000
vn -0.00000000 0.00000000 -1.00000000
vn -0.00000000 0.00000000 -1.00000000
vn -0.00000000 0.00000000 -1.00000000
vn -0.00000000 0.00000000 -1.00000000
vn -0.00000000 0.00000000 -1.00000000
vn -0.00000000 0.00000000 -1.00000000
vn -0.00000000 0.00000000 -1.00000000
vn -0.00000000 0.00000000 -1.00000000
vn -0.00000000 0.00000000 -1.00000000
vn -0.00000000 0.00000000 -1.00000000
vn -0.00000000 0.00000000 -1.00000000
vn -0.00000000 0.00000000 -1.00000000
vn -0.00000000 0.00000000 -1.00000000
vn -0.68770000 -0.13100000 0.71410000
vn -0.52790000 0.04010000 0.84830000
vn -0.95920000 -0.00270000 0.28280000
vn -0.21520000 -0.02900000 0.97610000
vn -0.24260000 -0.11650000 0.96310000
vn -0.20040000 -0.18020000 0.96300000
vn -0.76010000 -0.45730000 0.46170000
vn -0.23520000 -0.30720000 0.92210000
vn -0.70390000 -0.56640000 0.42860000
vn -0.57520000 -0.77140000 0.27230000
vn -0.32830000 -0.61840000 0.71400000
vn -0.10650000 -0.23900000 0.96520000
vn -0.21400000 -0.66660000 0.71400000
vn -0.46370000 -0.85130000 0.24550000
vn -0.09320000 -0.69380000 0.71410000
vn -0.29070000 -0.93590000 0.19890000
vn -0.03040000 -0.26010000 0.96510000
vn 0.03130000 -0.91180000 0.40940000
vn -0.10240000 -0.96540000 0.23970000
vn 0.00590000 -0.25590000 0.96670000
vn 0.07770000 -0.25360000 0.96420000
vn 0.16230000 -0.68100000 0.71400000
vn 0.16880000 -0.20290000 0.96460000
vn 0.38300000 -0.79960000 0.46260000
vn 0.74200000 -0.52580000 0.41580000
vn 0.48860000 -0.50130000 0.71410000
vn 0.70530000 -0.66120000 0.25580000
vn 0.21070000 -0.15020000 0.96600000
vn 0.24000000 -0.09500000 0.96610000
vn 0.63230000 -0.30050000 0.71410000
vn 0.67540000 -0.18430000 0.71400000
vn 0.94490000 -0.26020000 0.19850000
vn 0.37650000 -0.02480000 0.92610000
vn 0.96300000 -0.06130000 0.26240000
vn 0.69700000 0.06550000 0.71410000
vn 0.24980000 0.04250000 0.96740000
vn 0.36360000 0.17110000 0.91570000
vn 0.86000000 0.28590000 0.42280000
vn 0.86680000 0.42970000 0.25310000
vn 0.74910000 0.52230000 0.40750000
vn 0.47920000 0.51040000 0.71410000
vn 0.67520000 0.69240000 0.25430000
vn 0.23850000 0.31390000 0.91900000
vn 0.19720000 0.15650000 0.96780000
vn 0.52150000 0.80910000 0.27100000
vn 0.18500000 0.45390000 0.87160000
vn 0.06910000 0.56210000 0.82420000
vn 0.17600000 0.93950000 0.29370000
vn -0.09960000 0.69300000 0.71400000
vn 0.03180000 0.96240000 0.26990000
vn -0.22780000 0.52800000 0.81810000
vn -0.10850000 0.95580000 0.27330000
vn -0.04010000 0.26010000 0.96470000
vn -0.29180000 0.34770000 0.89100000
vn -0.46910000 0.84730000 0.24910000
vn -0.53110000 0.45610000 0.71400000
vn -0.57580000 0.76190000 0.29660000
vn -0.21620000 0.14650000 0.96530000
vn -0.77010000 0.44160000 0.46040000
vn -0.76110000 0.60410000 0.23590000
vn -0.26800000 0.09010000 0.95920000
vn -0.65740000 0.07210000 0.75010000
vn -0.84440000 0.33650000 0.41690000
vn -0.95000000 0.14770000 0.27520000
vn -0.69560000 -0.71840000 -0.00000000
vn 0.49430000 -0.76820000 0.40700000
vn 0.64520000 -0.76400000 0.00000000
vn 0.41800000 0.00190000 0.90840000
vn 0.96690000 0.06960000 0.24540000
vn 0.98010000 0.19860000 0.00000000
vn 0.40030000 0.87810000 0.26210000
vn 0.29680000 0.95500000 -0.00000000
vn -0.34050000 0.90140000 0.26740000
vn -0.23130000 0.97290000 -0.00000000
vn -0.69480000 0.71920000 -0.00000000
vn -0.96430000 0.26470000 -0.00000000
vn -0.91880000 0.39480000 0.00000000
vn -0.91880000 0.39470000 0.00000000
vn -1.00000000 0.00060000 0.00000000
vn -0.37760000 0.92600000 0.00000000
vn -0.37760000 0.92600000 0.00000000
vn -0.69970000 0.71450000 0.00000000
vn -0.69970000 0.71450000 0.00000000
vn 0.39480000 0.91880000 -0.00000000
vn 0.39470000 0.91880000 0.00000000
vn 0.00060000 1.00000000 -0.00000000
vn 0.92600000 0.37760000 0.00000000
vn 0.92600000 0.37760000 0.00000000
vn 0.71450000 0.69960000 0.00000000
vn 0.71450000 0.69960000 0.00000000
vn 0.00060000 1.00000000 -0.00000000
vn 1.00000000 -0.00060000 -0.00000000
vn 1.00000000 -0.00060000 -0.00000000
vn 0.69960000 -0.71450000 0.00000000
vn 0.69960000 -0.71450000 0.00000000
vn 0.91880000 -0.39470000 0.00000000
vn -0.00060000 -1.00000000 0.00000000
vn -0.00060000 -1.00000000 0.00000000
vn 0.37760000 -0.92600000 0.00000000
vn 0.37760000 -0.92600000 0.00000000
vn -0.71450000 -0.69970000 -0.00000000
vn -0.71440000 -0.69970000 0.00000000
vn -0.39470000 -0.91880000 0.00000000
vn -1.00000000 0.00050000 0.00000000
vn -1.00000000 0.00050000 0.00000000
vn -0.92600000 -0.37760000 0.00000000
vn -0.92600000 -0.37760000 0.00000000
vn -0.39480000 -0.91880000 0.00000000
vn 0.91880000 -0.39480000 0.00000000
vn -0.00000000 0.00000000 -1.00000000
vn -0.00000000 0.00000000 -1.00000000
vn -0.00000000 0.00000000 -1.00000000
vn -0.00000000 0.00000000 -1.00000000
vn -0.00000000 0.00000000 -1.00000000
vn -0.00000000 0.00000000 -1.00000000
vn -0.00000000 0.00000000 -1.00000000
vn -0.00000000 0.00000000 -1.00000000
vn -0.00000000 0.00000000 -1.00000000
vn -0.00000000 0.00000000 -1.00000000
vn -0.00000000 0.00000000 -1.00000000
vn -0.00000000 0.00000000 -1.00000000
vn -0.00000000 0.00000000 -1.00000000
vn -0.00000000 0.00000000 -1.00000000
vn -0.00000000 0.00000000 -1.00000000
vn -0.00000000 0.00000000 -1.00000000
vn 1.00000000 -0.00060000 -0.00000000
vn -0.93360000 -0.20690000 0.29250000
vn -0.83780000 -0.35170000 0.41770000
vn 0.17490000 -0.94650000 0.27110000
vn 0.86860000 -0.43120000 0.24420000
vn -0.95920000 0.00370000 0.28270000
vn 0.29570000 -0.95530000 0.00000000
vn -1.00000000 0.00060000 0.00000000
vt 0.06077200 0.35456800
vt 0.16423400 0.29527700
vt 0.16423400 0.29527700
vt 0.16423400 0.29527700
vt 0.16423400 0.29527700
vt 0.16423400 0.29527700
vt 0.03346900 0.42789600
vt 0.09017500 0.31142100
vt 0.01795400 0.48160600
vt 0.12796700 0.28451200
vt 0.00770000 0.56789600
vt 0.00385000 0.66175600
vt 0.01318400 0.75491900
vt 0.01318400 0.75491900
vt 0.03102400 0.83708800
vt 0.03102400 0.83708800
vt 0.05905500 0.91111900
vt 0.05905500 0.91111900
vt 0.09998300 0.96451800
vt 0.09998300 0.96451800
vt 0.13803900 0.98113500
vt 0.13803900 0.98113500
vt 0.19873700 0.30836400
vt 0.23341400 0.36403800
vt 0.25800500 0.43615200
vt 0.27749300 0.53041400
vt 0.27749300 0.53041400
vt 0.16299000 0.97829300
vt 0.16299000 0.97829300
vt 0.28094900 0.69798600
vt 0.27070500 0.78491100
vt 0.27070500 0.78491100
vt 0.24822900 0.86646300
vt 0.24822900 0.86646300
vt 0.19834100 0.95531600
vt 0.19834100 0.95531600
vt 0.23160300 0.91048200
vt 0.14431200 0.76309900
vt 0.14431400 0.64961100
vt 0.14602400 0.64983900
vt 0.14906600 0.86849800
vt 0.14734600 0.65769900
vt 0.14874700 0.64568200
vt 0.15022600 0.64411100
vt 0.15192000 0.65092800
vt 0.15382000 0.86849800
vt 0.15341500 0.65769900
vt 0.15482000 0.64927500
vt 0.15857300 0.86849800
vt 0.15639300 0.65053000
vt 0.15802900 0.65009400
vt 0.15948400 0.65769900
vt 0.16089000 0.64990200
vt 0.16332700 0.86849800
vt 0.16250400 0.64995400
vt 0.16420200 0.64932400
vt 0.16808100 0.86849800
vt 0.16555200 0.65769900
vt 0.16699200 0.65022800
vt 0.14431200 0.86849800
vt 0.16862700 0.64992500
vt 0.17088800 0.65002600
vt 0.17283500 0.86849800
vt 0.17304500 0.64583700
vt 0.17473700 0.65041500
vt 0.17758900 0.86849800
vt 0.17916300 0.65073100
vt 0.17769000 0.65769900
vt 0.17632000 0.64538400
vt 0.18066300 0.65016500
vt 0.18234200 0.86849800
vt 0.18297500 0.65182000
vt 0.18519600 0.65073000
vt 0.18709600 0.86849800
vt 0.18690100 0.64552800
vt 0.18851400 0.65034000
vt 0.19185000 0.86849800
vt 0.18982700 0.65769900
vt 0.19135000 0.64576600
vt 0.19275300 0.64407100
vt 0.19437900 0.65769900
vt 0.19660400 0.86849800
vt 0.19571400 0.64996700
vt 0.19736900 0.64568400
vt 0.20135800 0.86849800
vt 0.19899500 0.65081600
vt 0.20123700 0.65179800
vt 0.20347300 0.65067000
vt 0.20504000 0.64989900
vt 0.20611200 0.86849800
vt 0.20651600 0.65769900
vt 0.20806000 0.64529600
vt 0.21086500 0.86849800
vt 0.20950300 0.64396800
vt 0.21119600 0.64537800
vt 0.21313400 0.64887400
vt 0.21561900 0.76309900
vt 0.21562000 0.64961100
vt 0.21561900 0.86849800
vt 0.00000000 0.56064700
vt 0.01200800 0.54040500
vt 0.02495300 0.42184700
vt 0.00000000 0.71258300
vt 0.00642300 0.63661500
vt 0.02831200 0.45198900
vt 0.12468800 0.29859600
vt 0.12889000 0.27323100
vt 0.08703100 0.32598000
vt 0.07054400 0.32018100
vt 0.05401400 0.37853000
vt 0.02495300 0.85138400
vt 0.01200800 0.73282600
vt 0.05401400 0.89470100
vt 0.02831200 0.82124200
vt 0.07054400 0.95304900
vt 0.08703100 0.94725100
vt 0.12889000 1.00000000
vt 0.12468800 0.97463500
vt 0.16393600 0.97463500
vt 0.16393600 0.29859600
vt 0.18990300 0.28911200
vt 0.20159300 0.32598000
vt 0.24303300 0.36508000
vt 0.26031200 0.45198900
vt 0.23461000 0.37853000
vt 0.27661600 0.54040500
vt 0.27909300 0.48799900
vt 0.29184800 0.63661500
vt 0.20159300 0.94725100
vt 0.24303300 0.90815000
vt 0.23461000 0.89470100
vt 0.26031200 0.82124200
vt 0.18990300 0.98411800
vt 0.27661600 0.73282600
vt 0.28220100 0.63661500
vt 0.27909300 0.78523100
vt 0.14431200 0.64364500
vt 0.14755300 0.64364500
vt 0.14755300 0.71391200
vt 0.15079400 0.64364500
vt 0.15403600 0.64364500
vt 0.15403600 0.71391200
vt 0.15727700 0.64364500
vt 0.15727700 0.71391200
vt 0.15079400 0.71391200
vt 0.16051800 0.64364500
vt 0.16375900 0.64364500
vt 0.16375900 0.71391200
vt 0.16700100 0.64364500
vt 0.16700100 0.71391200
vt 0.17024200 0.64364500
vt 0.17348300 0.64364500
vt 0.17348300 0.71391200
vt 0.17672400 0.64364500
vt 0.17672400 0.71391200
vt 0.17024200 0.71391200
vt 0.16051800 0.71391200
vt 0.17996600 0.64364500
vt 0.17996600 0.71391200
vt 0.18320700 0.64364500
vt 0.18644800 0.64364500
vt 0.18644800 0.71391200
vt 0.18968900 0.64364500
vt 0.19293100 0.64364500
vt 0.19293100 0.71391200
vt 0.19617200 0.64364500
vt 0.19617200 0.71391200
vt 0.18968900 0.71391200
vt 0.19941300 0.64364500
vt 0.20265400 0.64364500
vt 0.20265400 0.71391200
vt 0.20589600 0.64364500
vt 0.20589600 0.71391200
vt 0.20913700 0.64364500
vt 0.21237800 0.64364500
vt 0.21237800 0.71391200
vt 0.21561900 0.64364500
vt 0.21561900 0.71391200
vt 0.20913700 0.71391200
vt 0.19941300 0.71391200
vt 0.18320700 0.71391200
vt 0.05433200 0.40932600
vt 0.02619700 0.51111400
vt 0.02831200 0.45198900
vt 0.01578500 0.63661500
vt 0.01200800 0.54040500
vt 0.05401400 0.37853000
vt 0.09571400 0.34194000
vt 0.12468800 0.29859600
vt 0.14431200 0.31830800
vt 0.16393600 0.29859600
vt 0.08703100 0.32598000
vt 0.01200800 0.73282600
vt 0.00642300 0.63661500
vt 0.02831200 0.82124200
vt 0.02532800 0.75697300
vt 0.05253700 0.85945900
vt 0.05401400 0.89470100
vt 0.08703100 0.94725100
vt 0.12468800 0.97463500
vt 0.09363700 0.92913800
vt 0.14431200 0.95492300
vt 0.19498700 0.34409300
vt 0.20159300 0.32598000
vt 0.23461000 0.37853000
vt 0.23608700 0.41377100
vt 0.26329600 0.51625800
vt 0.26031200 0.45198900
vt 0.27283800 0.63661500
vt 0.27661600 0.54040500
vt 0.28220100 0.63661500
vt 0.20159300 0.94725100
vt 0.19291000 0.93129100
vt 0.23429200 0.86390400
vt 0.16393600 0.97463500
vt 0.23461000 0.89470100
vt 0.27661600 0.73282600
vt 0.26242700 0.76211600
vt 0.26031200 0.82124200
vt 0.17003300 0.65896800
vt 0.12862100 0.66523200
vt 0.14424100 0.64457700
vt 0.16886500 0.67462400
vt 0.20455000 0.67327100
vt 0.24358300 0.67320900
vt 0.21764900 0.64949000
vt 0.26715800 0.67013800
vt 0.23485400 0.64863700
vt 0.27127700 0.64425700
vt 0.29184700 0.65896800
vt 0.30416400 0.67344300
vt 0.31598700 0.65896800
vt 0.29003700 0.64347100
vt 0.34012800 0.65896800
vt 0.31685400 0.64202500
vt 0.33985600 0.67342000
vt 0.36334800 0.64791600
vt 0.34379800 0.64328500
vt 0.36443600 0.67359300
vt 0.40230900 0.67333200
vt 0.39016000 0.65896800
vt 0.44741500 0.67343100
vt 0.41869400 0.64956400
vt 0.48898200 0.64814300
vt 0.46352200 0.65896800
vt 0.46956300 0.64377100
vt 0.48766000 0.67354500
vt 0.52465800 0.67354600
vt 0.51180400 0.65896800
vt 0.53594500 0.65896800
vt 0.53608600 0.64201800
vt 0.56229300 0.67038500
vt 0.56381400 0.64395800
vt 0.58499100 0.65896800
vt 0.59953700 0.67367500
vt 0.63488300 0.66966300
vt 0.61588100 0.64831600
vt 0.63490200 0.64367900
vt 0.65520000 0.64785200
vt 0.68347900 0.65896800
vt 0.68115100 0.64364500
vt 0.69997400 0.66985700
vt 0.66062100 0.67371600
vt 0.70821500 0.64421900
vt 0.73280200 0.66696200
vt 0.77051500 0.66405000
vt 0.76135500 0.64492200
vt 0.80559400 0.65896800
vt 0.78170100 0.64418800
vt 0.83900900 0.66384300
vt 0.80101200 0.64430400
vt 0.80559800 0.67338600
vt 0.87863700 0.66800900
vt 0.85502500 0.64355800
vt 0.90343700 0.65896800
vt 0.87386500 0.64501200
vt 0.91567100 0.67345600
vt 0.92903500 0.64940100
vt 0.90870200 0.64317700
vt 0.95763500 0.67279900
vt 0.98472500 0.66051900
vt 0.94663100 0.64828000
vt 0.97949800 0.64436100
vt 0.25354900 0.63661500
vt 0.43549300 0.64792100
vt 0.45381600 0.63661500
vt 0.10130000 0.69571100
vt 0.58177100 0.64349700
vt 0.59946500 0.63661500
vt 0.72782700 0.64398700
vt 0.74511400 0.63661500
vt 0.83540600 0.64414300
vt 0.81793900 0.63661500
vt 0.89076300 0.63661500
vt 0.96358800 0.63661500
vt 0.19640100 0.63661500
vt 0.19640100 0.89051600
vt 0.14431200 0.89051600
vt 0.29636300 0.63661500
vt 0.29636300 0.89051600
vt 0.24652600 0.89051600
vt 0.24652600 0.63661500
vt 0.39829000 0.63661500
vt 0.39829000 0.89051600
vt 0.34620100 0.89051600
vt 0.49825200 0.63661500
vt 0.49825200 0.89051600
vt 0.44841400 0.89051600
vt 0.44841400 0.63661500
vt 0.34620100 0.63661500
vt 0.54809000 0.63661500
vt 0.54809000 0.89051600
vt 0.65030300 0.63661500
vt 0.65030300 0.89051600
vt 0.60017900 0.89051600
vt 0.74997900 0.63661500
vt 0.74997900 0.89051600
vt 0.70014100 0.89051600
vt 0.70014100 0.63661500
vt 0.85219200 0.63661500
vt 0.85219200 0.89051600
vt 0.80206800 0.89051600
vt 0.95186800 0.63661500
vt 0.95186800 0.89051600
vt 0.90203000 0.89051600
vt 0.90203000 0.63661500
vt 0.80206800 0.63661500
vt 0.60017900 0.63661500
vt 0.09350100 0.02585500
vt 0.05241600 0.09558900
vt 0.02523000 0.19811300
vt 0.01571500 0.31848300
vt 0.05431200 0.54572000
vt 0.19277300 0.02356500
vt 0.02615400 0.44397000
vt 0.09570900 0.61305000
vt 0.14431200 0.63661500
vt 0.14417000 0.00000000
vt 0.19498100 0.61076100
vt 0.23417000 0.09089600
vt 0.26232800 0.19264500
vt 0.27276700 0.31813200
vt 0.23606600 0.54102600
vt 0.26325200 0.43850300
vt 0.14431200 0.71391200
vt 0.17415800 0.64479300
vt 0.19730800 0.64828200
vt 0.38318700 0.64425800
vt 0.50937400 0.64345200
vt 1.00004100 0.64457600
vt 0.39919800 0.63661500
vt 0.14431200 0.63661500
f 1/1/1 2/2/2 7/7/7
f 2/2/2 1/1/1 8/8/8
f 7/7/7 2/2/2 9/9/9
f 10/10/10 2/2/2 8/8/8
f 11/11/11 9/9/9 2/2/2
f 2/2/2 12/12/12 11/11/11
f 14/14/14 12/12/12 2/2/2
f 6/6/6 15/15/15 13/13/13
f 2/2/2 18/18/18 16/16/16
f 6/6/6 20/20/20 17/17/17
f 19/19/19 2/2/2 22/22/22
f 23/23/23 24/24/24 2/2/2
f 2/2/2 24/24/24 25/25/25
f 25/25/25 26/26/26 2/2/2
f 21/21/21 5/5/5 29/29/29
f 27/27/27 30/30/30 4/4/4
f 2/2/2 32/32/32 34/34/34
f 31/31/31 4/4/4 30/30/30
f 35/35/35 28/28/28 3/3/3
f 5/5/5 37/37/37 36/36/36
f 33/33/33 37/37/37 5/5/5
f 38/38/38 39/39/39 40/40/40
f 41/41/41 42/42/42 43/43/43
f 38/38/38 40/40/40 42/42/42
f 45/45/45 46/46/46 41/41/41
f 46/46/46 47/47/47 48/48/48
f 46/46/46 45/45/45 47/47/47
f 41/41/41 43/43/43 44/44/44
f 49/49/49 50/50/50 51/51/51
f 49/49/49 52/52/52 53/53/53
f 49/49/49 51/51/51 52/52/52
f 54/54/54 55/55/55 56/56/56
f 57/57/57 54/54/54 58/58/58
f 54/54/54 56/56/56 58/58/58
f 54/54/54 49/49/49 53/53/53
f 50/50/50 49/49/49 46/46/46
f 41/41/41 60/60/60 38/38/38
f 38/38/38 42/42/42 41/41/41
f 57/57/57 59/59/59 61/61/61
f 62/62/62 63/63/63 57/57/57
f 63/63/63 64/64/64 65/65/65
f 63/63/63 62/62/62 64/64/64
f 65/65/65 69/69/69 66/66/66
f 67/67/67 66/66/66 68/68/68
f 69/69/69 68/68/68 66/66/66
f 70/70/70 71/71/71 66/66/66
f 71/71/71 70/70/70 72/72/72
f 73/73/73 74/74/74 71/71/71
f 74/74/74 75/75/75 76/76/76
f 77/77/77 78/78/78 79/79/79
f 78/78/78 77/77/77 74/74/74
f 74/74/74 73/73/73 75/75/75
f 77/77/77 80/80/80 81/81/81
f 82/82/82 83/83/83 84/84/84
f 82/82/82 81/81/81 83/83/83
f 85/85/85 86/86/86 87/87/87
f 85/85/85 87/87/87 88/88/88
f 82/82/82 84/84/84 86/86/86
f 77/77/77 79/79/79 80/80/80
f 90/90/90 85/85/85 88/88/88
f 91/91/91 90/90/90 89/89/89
f 82/82/82 77/77/77 81/81/81
f 82/82/82 86/86/86 85/85/85
f 90/90/90 91/91/91 92/92/92
f 93/93/93 90/90/90 92/92/92
f 93/93/93 95/95/95 96/96/96
f 93/93/93 94/94/94 95/95/95
f 93/93/93 96/96/96 97/97/97
f 96/96/96 98/98/98 97/97/97
f 93/93/93 97/97/97 99/99/99
f 100/100/100 101/101/101 102/102/102
f 103/103/103 104/104/104 100/100/100
f 101/101/101 100/100/100 104/104/104
f 105/105/105 102/102/102 101/101/101
f 106/106/106 107/107/107 108/108/108
f 109/109/109 108/108/108 107/107/107
f 110/110/110 102/102/102 105/105/105
f 109/109/109 110/110/110 108/108/108
f 109/109/109 102/102/102 110/110/110
f 111/111/111 112/112/112 103/103/103
f 104/104/104 103/103/103 112/112/112
f 113/113/113 114/114/114 111/111/111
f 112/112/112 111/111/111 114/114/114
f 115/115/115 116/116/116 113/113/113
f 115/115/115 117/117/117 116/116/116
f 118/118/118 116/116/116 117/117/117
f 118/118/118 117/117/117 119/119/119
f 111/111/111 115/115/115 113/113/113
f 120/120/120 121/121/121 107/107/107
f 121/121/121 120/120/120 122/122/122
f 122/122/122 123/123/123 121/121/121
f 124/124/124 123/123/123 125/125/125
f 122/122/122 125/125/125 123/123/123
f 126/126/126 127/127/127 124/124/124
f 123/123/123 124/124/124 127/127/127
f 128/128/128 127/127/127 126/126/126
f 129/129/129 130/130/130 131/131/131
f 132/132/132 131/131/131 130/130/130
f 133/133/133 129/129/129 119/119/119
f 130/130/130 129/129/129 133/133/133
f 117/117/117 133/133/133 119/119/119
f 134/134/134 128/128/128 135/135/135
f 126/126/126 135/135/135 128/128/128
f 136/136/136 134/134/134 132/132/132
f 128/128/128 134/134/134 136/136/136
f 130/130/130 136/136/136 132/132/132
f 107/107/107 106/106/106 120/120/120
f 139/139/139 345/345/345 137/137/137
f 142/142/142 145/145/145 140/140/140
f 144/144/144 142/142/142 141/141/141
f 145/145/145 139/139/139 138/138/138
f 148/148/148 157/157/157 146/146/146
f 150/150/150 148/148/148 147/147/147
f 153/153/153 156/156/156 151/151/151
f 155/155/155 153/153/153 152/152/152
f 156/156/156 150/150/150 149/149/149
f 157/157/157 144/144/144 143/143/143
f 159/159/159 155/155/155 154/154/154
f 162/162/162 181/181/181 160/160/160
f 165/165/165 168/168/168 163/163/163
f 167/167/167 165/165/165 164/164/164
f 168/168/168 162/162/162 161/161/161
f 171/171/171 180/180/180 169/169/169
f 173/173/173 171/171/171 170/170/170
f 176/176/176 179/179/179 174/174/174
f 178/178/178 176/176/176 175/175/175
f 179/179/179 173/173/173 172/172/172
f 180/180/180 167/167/167 166/166/166
f 158/158/158 160/160/160 181/181/181
f 182/182/182 183/183/183 184/184/184
f 183/183/183 185/185/185 186/186/186
f 184/184/184 183/183/183 186/186/186
f 182/182/182 184/184/184 187/187/187
f 188/188/188 189/189/189 190/190/190
f 191/191/191 190/190/190 189/189/189
f 188/188/188 182/182/182 192/192/192
f 187/187/187 192/192/192 182/182/182
f 189/189/189 188/188/188 192/192/192
f 193/193/193 194/194/194 185/185/185
f 186/186/186 185/185/185 194/194/194
f 195/195/195 193/193/193 196/196/196
f 185/185/185 196/196/196 193/193/193
f 197/197/197 195/195/195 196/196/196
f 195/195/195 197/197/197 198/198/198
f 199/199/199 198/198/198 197/197/197
f 200/200/200 199/199/199 201/201/201
f 197/197/197 201/201/201 199/199/199
f 200/200/200 201/201/201 202/202/202
f 203/203/203 191/191/191 204/204/204
f 205/205/205 206/206/206 204/204/204
f 203/203/203 204/204/204 206/206/206
f 207/207/207 206/206/206 208/208/208
f 205/205/205 208/208/208 206/206/206
f 209/209/209 207/207/207 210/210/210
f 208/208/208 210/210/210 207/207/207
f 211/211/211 209/209/209 210/210/210
f 212/212/212 213/213/213 214/214/214
f 202/202/202 213/213/213 215/215/215
f 212/212/212 215/215/215 213/213/213
f 200/200/200 202/202/202 215/215/215
f 212/212/212 214/214/214 216/216/216
f 209/209/209 217/217/217 218/218/218
f 216/216/216 214/214/214 219/219/219
f 219/219/219 214/214/214 218/218/218
f 217/217/217 219/219/219 218/218/218
f 217/217/217 209/209/209 211/211/211
f 191/191/191 203/203/203 190/190/190
f 220/220/220 221/221/221 222/222/222
f 223/223/223 221/221/221 220/220/220
f 224/224/224 223/223/223 220/220/220
f 225/225/225 224/224/224 226/226/226
f 227/227/227 228/228/228 229/229/229
f 230/230/230 227/227/227 229/229/229
f 231/231/231 227/227/227 230/230/230
f 232/232/232 230/230/230 233/233/233
f 234/234/234 232/232/232 235/235/235
f 236/236/236 231/231/231 232/232/232
f 237/237/237 234/234/234 238/238/238
f 239/239/239 236/236/236 234/234/234
f 240/240/240 239/239/239 241/241/241
f 242/242/242 240/240/240 243/243/243
f 244/244/244 245/245/245 246/246/246
f 247/247/247 242/242/242 245/245/245
f 248/248/248 247/247/247 249/249/249
f 250/250/250 249/249/249 251/251/251
f 252/252/252 250/250/250 253/253/253
f 252/252/252 248/248/248 250/250/250
f 254/254/254 252/252/252 253/253/253
f 255/255/255 252/252/252 254/254/254
f 256/256/256 257/257/257 258/258/258
f 256/256/256 255/255/255 257/257/257
f 259/259/259 256/256/256 258/258/258
f 260/260/260 259/259/259 261/261/261
f 262/262/262 263/263/263 260/260/260
f 262/262/262 260/260/260 264/264/264
f 265/265/265 262/262/262 264/264/264
f 266/266/266 265/265/265 267/267/267
f 268/268/268 266/266/266 269/269/269
f 270/270/270 268/268/268 271/271/271
f 270/270/270 272/272/272 268/268/268
f 273/273/273 270/270/270 274/274/274
f 275/275/275 273/273/273 276/276/276
f 277/277/277 273/273/273 275/275/275
f 278/278/278 275/275/275 279/279/279
f 280/280/280 277/277/277 278/278/278
f 281/281/281 282/282/282 283/283/283
f 284/284/284 229/229/229 228/228/228
f 246/246/246 285/285/285 286/286/286
f 223/223/223 287/287/287 221/221/221
f 257/257/257 288/288/288 289/289/289
f 267/267/267 290/290/290 291/291/291
f 292/292/292 271/271/271 293/293/293
f 279/279/279 276/276/276 294/294/294
f 295/295/295 283/283/283 282/282/282
f 298/298/298 352/352/352 296/296/296
f 301/301/301 302/302/302 299/299/299
f 297/297/297 296/296/296 302/302/302
f 305/305/305 310/310/310 303/303/303
f 308/308/308 309/309/309 306/306/306
f 304/304/304 303/303/303 309/309/309
f 300/300/300 299/299/299 310/310/310
f 307/307/307 306/306/306 311/311/311
f 315/315/315 328/328/328 313/313/313
f 318/318/318 319/319/319 316/316/316
f 314/314/314 313/313/313 319/319/319
f 322/322/322 327/327/327 320/320/320
f 325/325/325 326/326/326 323/323/323
f 321/321/321 320/320/320 326/326/326
f 317/317/317 316/316/316 327/327/327
f 312/312/312 311/311/311 328/328/328
f 329/329/329 330/330/330 331/331/331
f 332/332/332 329/329/329 331/331/331
f 329/329/329 333/333/333 334/334/334
f 335/335/335 329/329/329 332/332/332
f 333/333/333 329/329/329 335/335/335
f 336/336/336 337/337/337 333/333/333
f 338/338/338 329/329/329 334/334/334
f 340/340/340 334/334/334 339/339/339
f 339/339/339 341/341/341 340/340/340
f 341/341/341 339/339/339 342/342/342
f 337/337/337 339/339/339 333/333/333
f 339/339/339 343/343/343 344/344/344
f 339/339/339 344/344/344 342/342/342
f 220/220/220 222/222/222 346/346/346
f 220/220/220 346/346/346 347/347/347
f 224/224/224 220/220/220 347/347/347
f 224/224/224 347/347/347 226/226/226
f 225/225/225 226/226/226 228/228/228
f 225/225/225 228/228/228 227/227/227
f 230/230/230 229/229/229 233/233/233
f 232/232/232 233/233/233 235/235/235
f 231/231/231 230/230/230 232/232/232
f 234/234/234 235/235/235 238/238/238
f 236/236/236 232/232/232 234/234/234
f 239/239/239 234/234/234 237/237/237
f 241/241/241 237/237/237 348/348/348
f 239/239/239 237/237/237 241/241/241
f 241/241/241 348/348/348 243/243/243
f 240/240/240 241/241/241 243/243/243
f 242/242/242 243/243/243 285/285/285
f 245/245/245 285/285/285 246/246/246
f 242/242/242 285/285/285 245/245/245
f 247/247/247 245/245/245 244/244/244
f 249/249/249 244/244/244 349/349/349
f 247/247/247 244/244/244 249/249/249
f 249/249/249 349/349/349 251/251/251
f 248/248/248 249/249/249 250/250/250
f 250/250/250 251/251/251 253/253/253
f 254/254/254 253/253/253 288/288/288
f 254/254/254 288/288/288 257/257/257
f 255/255/255 254/254/254 257/257/257
f 263/263/263 256/256/256 259/259/259
f 263/263/263 259/259/259 260/260/260
f 260/260/260 261/261/261 264/264/264
f 265/265/265 264/264/264 290/290/290
f 265/265/265 290/290/290 267/267/267
f 266/266/266 267/267/267 269/269/269
f 268/268/268 269/269/269 271/271/271
f 272/272/272 266/266/266 268/268/268
f 270/270/270 271/271/271 292/292/292
f 270/270/270 292/292/292 274/274/274
f 273/273/273 274/274/274 276/276/276
f 275/275/275 276/276/276 279/279/279
f 277/277/277 275/275/275 278/278/278
f 280/280/280 278/278/278 282/282/282
f 280/280/280 282/282/282 281/281/281
f 281/281/281 283/283/283 350/350/350
f 351/351/351 243/243/243 348/348/348
f 45/45/45 41/41/41 44/44/44
f 57/57/57 58/58/58 59/59/59
f 54/54/54 53/53/53 55/55/55
f 50/50/50 46/46/46 48/48/48
f 62/62/62 57/57/57 61/61/61
f 65/65/65 66/66/66 63/63/63
f 70/70/70 66/66/66 67/67/67
f 73/73/73 71/71/71 72/72/72
f 78/78/78 74/74/74 76/76/76
f 90/90/90 88/88/88 89/89/89
f 93/93/93 92/92/92 94/94/94
f 139/139/139 137/137/137 138/138/138
f 142/142/142 140/140/140 141/141/141
f 144/144/144 141/141/141 143/143/143
f 145/145/145 138/138/138 140/140/140
f 148/148/148 146/146/146 147/147/147
f 150/150/150 147/147/147 149/149/149
f 153/153/153 151/151/151 152/152/152
f 155/155/155 152/152/152 154/154/154
f 156/156/156 149/149/149 151/151/151
f 157/157/157 143/143/143 146/146/146
f 159/159/159 154/154/154 158/158/158
f 162/162/162 160/160/160 161/161/161
f 165/165/165 163/163/163 164/164/164
f 167/167/167 164/164/164 166/166/166
f 168/168/168 161/161/161 163/163/163
f 171/171/171 169/169/169 170/170/170
f 173/173/173 170/170/170 172/172/172
f 176/176/176 174/174/174 175/175/175
f 178/178/178 175/175/175 177/177/177
f 179/179/179 172/172/172 174/174/174
f 180/180/180 166/166/166 169/169/169
f 158/158/158 181/181/181 159/159/159
f 298/298/298 296/296/296 297/297/297
f 301/301/301 299/299/299 300/300/300
f 297/297/297 302/302/302 301/301/301
f 305/305/305 303/303/303 304/304/304
f 308/308/308 306/306/306 307/307/307
f 304/304/304 309/309/309 308/308/308
f 300/300/300 310/310/310 305/305/305
f 307/307/307 311/311/311 312/312/312
f 315/315/315 313/313/313 314/314/314
f 318/318/318 316/316/316 317/317/317
f 314/314/314 319/319/319 318/318/318
f 322/322/322 320/320/320 321/321/321
f 325/325/325 323/323/323 324/324/324
f 321/321/321 326/326/326 325/325/325
f 317/317/317 327/327/327 322/322/322
f 312/312/312 328/328/328 315/315/315
f 334/334/334 333/333/333 339/339/339

