mtllib material.mtl
usemtl Material-7011油漆.003
v 0.05567900 -0.00874900 0.07900000
v 0.05567900 -0.00874900 0.07900000
v 0.05567900 -0.00874900 0.07900000
v 0.05567900 -0.00874900 0.07970000
v 0.05567900 -0.00874900 0.07970000
v 0.05567900 -0.00874900 0.07970000
v 0.05567900 0.00291400 0.07900000
v 0.05567900 0.00291400 0.07900000
v 0.05567900 0.00291400 0.07900000
v 0.05567900 0.00291400 0.07970000
v 0.05567900 0.00291400 0.07970000
v 0.05567900 0.00291400 0.07970000
v 0.05567800 0.00291500 0.07900000
v 0.05567800 0.00291500 0.07900000
v 0.05567800 0.00291500 0.07900000
v 0.05567800 0.00291500 0.07970000
v 0.05567800 0.00291500 0.07970000
v 0.05567800 0.00291500 0.07970000
v 0.03779400 0.00291500 0.07900000
v 0.03779400 0.00291500 0.07900000
v 0.03779400 0.00291500 0.07900000
v 0.03779400 0.00291500 0.07970000
v 0.03779400 0.00291500 0.07970000
v 0.03779400 0.00291500 0.07970000
v 0.03779400 0.00291400 0.07900000
v 0.03779400 0.00291400 0.07900000
v 0.03779400 0.00291400 0.07900000
v 0.03779400 0.00291400 0.07970000
v 0.03779400 0.00291400 0.07970000
v 0.03779400 0.00291400 0.07970000
v 0.03779400 -0.00330300 0.07900000
v 0.03779400 -0.00330300 0.07900000
v 0.03779400 -0.00330300 0.07900000
v 0.03779400 -0.00330300 0.07970000
v 0.03779400 -0.00330300 0.07970000
v 0.03779400 -0.00330300 0.07970000
v 0.03779400 -0.00330400 0.07900000
v 0.03779400 -0.00330400 0.07900000
v 0.03779400 -0.00330400 0.07900000
v 0.03779400 -0.00330400 0.07970000
v 0.03779400 -0.00330400 0.07970000
v 0.03779400 -0.00330400 0.07970000
v 0.04945700 -0.00330400 0.07900000
v 0.04945700 -0.00330400 0.07900000
v 0.04945700 -0.00330400 0.07900000
v 0.04945700 -0.00330400 0.07970000
v 0.04945700 -0.00330400 0.07970000
v 0.04945700 -0.00330400 0.07970000
v 0.04945700 -0.00330400 0.07900000
v 0.04945700 -0.00330400 0.07900000
v 0.04945700 -0.00330400 0.07900000
v 0.04945700 -0.00330400 0.07970000
v 0.04945700 -0.00330400 0.07970000
v 0.04945700 -0.00330400 0.07970000
v 0.05567800 -0.00874900 0.07900000
v 0.05567800 -0.00874900 0.07900000
v 0.05567800 -0.00874900 0.07900000
v 0.05567800 -0.00874900 0.07970000
v 0.05567800 -0.00874900 0.07970000
v 0.05567800 -0.00874900 0.07970000
v 0.05567800 -0.00874900 0.07899900
v 0.05567800 -0.00874900 0.07899900
v 0.05567800 -0.00874900 0.07899900
v 0.05567800 0.00291400 0.07899900
v 0.05567800 0.00291400 0.07899900
v 0.05567800 0.00291400 0.07899900
v 0.03779400 0.00291400 0.07899900
v 0.03779400 0.00291400 0.07899900
v 0.03779400 0.00291400 0.07899900
v 0.03779400 -0.00330300 0.07899900
v 0.03779400 -0.00330300 0.07899900
v 0.03779400 -0.00330300 0.07899900
v 0.04945700 -0.00330300 0.07899900
v 0.04945700 -0.00330300 0.07899900
v 0.04945700 -0.00330300 0.07899900
v 0.05567800 -0.00874900 0.07970000
v 0.05567800 -0.00874900 0.07970000
v 0.05567800 -0.00874900 0.07970000
v 0.05567800 0.00291400 0.07970000
v 0.05567800 0.00291400 0.07970000
v 0.05567800 0.00291400 0.07970000
v 0.03779400 0.00291400 0.07970000
v 0.03779400 0.00291400 0.07970000
v 0.03779400 0.00291400 0.07970000
v 0.03779400 -0.00330300 0.07970000
v 0.03779400 -0.00330300 0.07970000
v 0.03779400 -0.00330300 0.07970000
v 0.04945700 -0.00330300 0.07970000
v 0.04945700 -0.00330300 0.07970000
v 0.04945700 -0.00330300 0.07970000
v 0.05567800 -0.00874900 0.07900000
v 0.05567800 -0.00874900 0.07900000
v 0.05567800 -0.00874900 0.07900000
v 0.05567800 -0.00874900 0.07970000
v 0.05567800 -0.00874900 0.07970000
v 0.05567800 -0.00874900 0.07970000
v 0.05567800 0.00291400 0.07900000
v 0.05567800 0.00291400 0.07900000
v 0.05567800 0.00291400 0.07900000
v 0.05567800 0.00291400 0.07970000
v 0.05567800 0.00291400 0.07970000
v 0.05567800 0.00291400 0.07970000
v 0.05567800 0.00291400 0.07900000
v 0.05567800 0.00291400 0.07900000
v 0.05567800 0.00291400 0.07900000
v 0.05567800 0.00291400 0.07970000
v 0.05567800 0.00291400 0.07970000
v 0.05567800 0.00291400 0.07970000
v 0.03779400 0.00291400 0.07900000
v 0.03779400 0.00291400 0.07900000
v 0.03779400 0.00291400 0.07900000
v 0.03779400 0.00291400 0.07970000
v 0.03779400 0.00291400 0.07970000
v 0.03779400 0.00291400 0.07970000
v 0.03779500 0.00291400 0.07900000
v 0.03779500 0.00291400 0.07900000
v 0.03779500 0.00291400 0.07900000
v 0.03779500 0.00291400 0.07970000
v 0.03779500 0.00291400 0.07970000
v 0.03779500 0.00291400 0.07970000
v 0.03779500 -0.00330300 0.07900000
v 0.03779500 -0.00330300 0.07900000
v 0.03779500 -0.00330300 0.07900000
v 0.03779500 -0.00330300 0.07970000
v 0.03779500 -0.00330300 0.07970000
v 0.03779500 -0.00330300 0.07970000
v 0.03779400 -0.00330300 0.07900000
v 0.03779400 -0.00330300 0.07900000
v 0.03779400 -0.00330300 0.07900000
v 0.03779400 -0.00330300 0.07970000
v 0.03779400 -0.00330300 0.07970000
v 0.03779400 -0.00330300 0.07970000
v 0.04945700 -0.00330300 0.07900000
v 0.04945700 -0.00330300 0.07900000
v 0.04945700 -0.00330300 0.07900000
v 0.04945700 -0.00330300 0.07970000
v 0.04945700 -0.00330300 0.07970000
v 0.04945700 -0.00330300 0.07970000
v 0.04945700 -0.00330300 0.07900000
v 0.04945700 -0.00330300 0.07900000
v 0.04945700 -0.00330300 0.07900000
v 0.04945700 -0.00330300 0.07970000
v 0.04945700 -0.00330300 0.07970000
v 0.04945700 -0.00330300 0.07970000
v 0.05567800 -0.00874800 0.07900000
v 0.05567800 -0.00874800 0.07900000
v 0.05567800 -0.00874800 0.07900000
v 0.05567800 -0.00874800 0.07970000
v 0.05567800 -0.00874800 0.07970000
v 0.05567800 -0.00874800 0.07970000
v 0.05567800 -0.00874900 0.07900000
v 0.05567800 -0.00874900 0.07900000
v 0.05567800 -0.00874900 0.07900000
v 0.05567800 0.00291400 0.07900000
v 0.05567800 0.00291400 0.07900000
v 0.05567800 0.00291400 0.07900000
v 0.03779400 0.00291400 0.07900000
v 0.03779400 0.00291400 0.07900000
v 0.03779400 0.00291400 0.07900000
v 0.03779400 -0.00330300 0.07900000
v 0.03779400 -0.00330300 0.07900000
v 0.03779400 -0.00330300 0.07900000
v 0.04945700 -0.00330300 0.07900000
v 0.04945700 -0.00330300 0.07900000
v 0.04945700 -0.00330300 0.07900000
v 0.05567800 -0.00874900 0.07969900
v 0.05567800 -0.00874900 0.07969900
v 0.05567800 -0.00874900 0.07969900
v 0.05567800 0.00291400 0.07969900
v 0.05567800 0.00291400 0.07969900
v 0.05567800 0.00291400 0.07969900
v 0.03779400 0.00291400 0.07969900
v 0.03779400 0.00291400 0.07969900
v 0.03779400 0.00291400 0.07969900
v 0.03779400 -0.00330300 0.07969900
v 0.03779400 -0.00330300 0.07969900
v 0.03779400 -0.00330300 0.07969900
v 0.04945700 -0.00330300 0.07969900
v 0.04945700 -0.00330300 0.07969900
v 0.04945700 -0.00330300 0.07969900
vn 1.00000000 0.00000000 0.00000000
vn 0.00000000 -1.00000000 0.00000000
vn -0.00000000 0.00000000 -1.00000000
vn 0.00000000 0.00000000 1.00000000
vn 0.00000000 -1.00000000 0.00000000
vn 1.00000000 0.00000000 0.00000000
vn 1.00000000 0.00000000 0.00000000
vn 0.00000000 1.00000000 0.00000000
vn -0.00000000 0.00000000 -1.00000000
vn 0.00000000 1.00000000 0.00000000
vn 0.00000000 0.00000000 1.00000000
vn 1.00000000 0.00000000 0.00000000
vn 1.00000000 0.00000000 0.00000000
vn -0.00000000 0.00000000 -1.00000000
vn 0.00000000 1.00000000 0.00000000
vn 1.00000000 0.00000000 0.00000000
vn 0.00000000 1.00000000 0.00000000
vn 0.00000000 0.00000000 1.00000000
vn -0.00000000 0.00000000 -1.00000000
vn 0.00000000 1.00000000 0.00000000
vn -1.00000000 0.00000000 0.00000000
vn 0.00000000 0.00000000 1.00000000
vn 0.00000000 1.00000000 0.00000000
vn -1.00000000 0.00000000 0.00000000
vn -0.00000000 0.00000000 -1.00000000
vn 0.00000000 1.00000000 0.00000000
vn -1.00000000 0.00000000 0.00000000
vn 0.00000000 0.00000000 1.00000000
vn 0.00000000 1.00000000 0.00000000
vn -1.00000000 0.00000000 0.00000000
vn -1.00000000 0.00000000 0.00000000
vn 0.00000000 -1.00000000 0.00000000
vn -0.00000000 0.00000000 -1.00000000
vn -1.00000000 0.00000000 0.00000000
vn 0.00000000 0.00000000 1.00000000
vn 0.00000000 -1.00000000 0.00000000
vn -1.00000000 0.00000000 0.00000000
vn 0.00000000 -1.00000000 0.00000000
vn -0.00000000 0.00000000 -1.00000000
vn 0.00000000 -1.00000000 0.00000000
vn 0.00000000 0.00000000 1.00000000
vn -1.00000000 0.00000000 0.00000000
vn -0.00000000 0.00000000 -1.00000000
vn 0.00000000 -1.00000000 0.00000000
vn 1.00000000 0.00000000 0.00000000
vn 0.00000000 -1.00000000 0.00000000
vn 0.00000000 0.00000000 1.00000000
vn 1.00000000 0.00000000 0.00000000
vn -0.00000000 0.00000000 -1.00000000
vn -0.65860000 -0.75250000 0.00000000
vn -0.75440000 0.65650000 0.00000000
vn 0.00350000 0.00000000 1.00000000
vn -0.75440000 0.65650000 0.00000000
vn -0.65860000 -0.75250000 0.00000000
vn 0.75480000 -0.65600000 0.00000000
vn -0.65860000 -0.75250000 0.00000000
vn -0.00000000 0.00000000 -1.00000000
vn -0.65860000 -0.75250000 0.00000000
vn 0.00350000 0.00000000 1.00000000
vn 0.75480000 -0.65600000 0.00000000
vn -0.00000000 0.00000000 -1.00000000
vn -0.65820000 -0.75280000 0.00000000
vn 1.00000000 0.00000000 0.00000000
vn 0.00000000 1.00000000 0.00000000
vn -0.00000000 0.00000000 -1.00000000
vn 1.00000000 0.00000000 0.00000000
vn 0.00000000 1.00000000 0.00000000
vn -1.00000000 0.00000000 0.00000000
vn -0.00000000 0.00000000 -1.00000000
vn -0.00000000 0.00000000 -1.00000000
vn 0.00000000 -1.00000000 0.00000000
vn -1.00000000 0.00000000 0.00000000
vn 0.00000000 -1.00000000 0.00000000
vn -0.65820000 -0.75280000 0.00000000
vn -0.00000000 0.00000000 -1.00000000
vn -0.65820000 -0.75280000 0.00000000
vn 1.00000000 0.00000000 0.00000000
vn 0.00000000 0.00000000 1.00000000
vn 0.00000000 0.00000000 1.00000000
vn 1.00000000 0.00000000 0.00000000
vn 0.00000000 1.00000000 0.00000000
vn 0.00000000 0.00000000 1.00000000
vn 0.00000000 1.00000000 0.00000000
vn -1.00000000 0.00000000 0.00000000
vn 0.00000000 0.00000000 1.00000000
vn 0.00000000 -1.00000000 0.00000000
vn -1.00000000 0.00000000 0.00000000
vn 0.00000000 0.00000000 1.00000000
vn -0.65820000 -0.75280000 0.00000000
vn 0.00000000 -1.00000000 0.00000000
vn 0.00000000 -1.00000000 0.00000000
vn -1.00000000 0.00000000 0.00000000
vn -0.00000000 0.00000000 -1.00000000
vn 0.00000000 -1.00000000 0.00000000
vn 0.00000000 0.00000000 1.00000000
vn -1.00000000 0.00000000 0.00000000
vn 0.00000000 1.00000000 0.00000000
vn -0.00000000 0.00000000 -1.00000000
vn -1.00000000 0.00000000 0.00000000
vn -1.00000000 0.00000000 0.00000000
vn 0.00000000 1.00000000 0.00000000
vn 0.00000000 0.00000000 1.00000000
vn -0.00000000 0.00000000 -1.00000000
vn 1.00000000 0.00000000 0.00000000
vn 0.00000000 -1.00000000 0.00000000
vn 0.00000000 0.00000000 1.00000000
vn 1.00000000 0.00000000 0.00000000
vn 0.00000000 -1.00000000 0.00000000
vn 0.00000000 -1.00000000 0.00000000
vn -1.00000000 0.00000000 0.00000000
vn -0.00000000 0.00000000 -1.00000000
vn 0.00000000 -1.00000000 0.00000000
vn -1.00000000 0.00000000 0.00000000
vn 0.00000000 0.00000000 1.00000000
vn 1.00000000 0.00000000 0.00000000
vn 0.00000000 1.00000000 0.00000000
vn -0.00000000 0.00000000 -1.00000000
vn 0.00000000 0.00000000 1.00000000
vn 1.00000000 0.00000000 0.00000000
vn 0.00000000 1.00000000 0.00000000
vn 0.00000000 -1.00000000 0.00000000
vn -0.00000000 0.00000000 -1.00000000
vn 1.00000000 0.00000000 0.00000000
vn 0.00000000 0.00000000 1.00000000
vn 1.00000000 0.00000000 0.00000000
vn 0.00000000 -1.00000000 0.00000000
vn -1.00000000 0.00000000 0.00000000
vn 0.00000000 1.00000000 0.00000000
vn -0.00000000 0.00000000 -1.00000000
vn -1.00000000 0.00000000 0.00000000
vn 0.00000000 0.00000000 1.00000000
vn 0.00000000 1.00000000 0.00000000
vn 0.00000000 1.00000000 0.00000000
vn -0.00000000 0.00000000 -1.00000000
vn 1.00000000 0.00000000 0.00000000
vn 1.00000000 0.00000000 0.00000000
vn 0.00000000 0.00000000 1.00000000
vn 0.00000000 1.00000000 0.00000000
vn -0.75440000 0.65650000 0.00000000
vn 0.65860000 0.75250000 0.00000000
vn -0.00000000 0.00000000 -1.00000000
vn -0.75440000 0.65650000 0.00000000
vn 0.65860000 0.75250000 0.00000000
vn 0.00350000 0.00000000 1.00000000
vn 0.65860000 0.75250000 0.00000000
vn 0.75480000 -0.65600000 0.00000000
vn -0.00000000 0.00000000 -1.00000000
vn 0.75480000 -0.65600000 0.00000000
vn 0.00350000 0.00000000 1.00000000
vn 0.65860000 0.75250000 0.00000000
vn 0.00000000 0.00000000 1.00000000
vn 1.00000000 0.00000000 0.00000000
vn -0.65820000 -0.75280000 0.00000000
vn 0.00000000 0.00000000 1.00000000
vn 1.00000000 0.00000000 0.00000000
vn 0.00000000 1.00000000 0.00000000
vn 0.00000000 0.00000000 1.00000000
vn 0.00000000 1.00000000 0.00000000
vn -1.00000000 0.00000000 0.00000000
vn 0.00000000 -1.00000000 0.00000000
vn 0.00000000 0.00000000 1.00000000
vn -1.00000000 0.00000000 0.00000000
vn 0.00000000 0.00000000 1.00000000
vn -0.65820000 -0.75280000 0.00000000
vn 0.00000000 -1.00000000 0.00000000
vn -0.00000000 0.00000000 -1.00000000
vn 1.00000000 0.00000000 0.00000000
vn -0.65820000 -0.75280000 0.00000000
vn 0.00000000 1.00000000 0.00000000
vn -0.00000000 0.00000000 -1.00000000
vn 1.00000000 0.00000000 0.00000000
vn 0.00000000 1.00000000 0.00000000
vn -0.00000000 0.00000000 -1.00000000
vn -1.00000000 0.00000000 0.00000000
vn -0.00000000 0.00000000 -1.00000000
vn -1.00000000 0.00000000 0.00000000
vn 0.00000000 -1.00000000 0.00000000
vn -0.00000000 0.00000000 -1.00000000
vn 0.00000000 -1.00000000 0.00000000
vn -0.65820000 -0.75280000 0.00000000
vt 0.00000000 0.00000000
vt 0.00000000 0.00000000
vt 0.00000000 0.00000000
vt 0.00000000 0.51456700
vt 0.00000000 0.51456700
vt 0.00000000 0.51456700
vt 0.20940300 0.00000000
vt 0.20940300 0.00000000
vt 0.20940300 0.00000000
vt 0.20940300 0.51456700
vt 0.20940300 0.51456700
vt 0.20940300 0.51456700
vt 0.20940300 0.00000000
vt 0.20940300 0.00000000
vt 0.20940300 0.00000000
vt 0.20940300 0.51456700
vt 0.20940300 0.51456700
vt 0.20940300 0.51456700
vt 0.53050700 0.00000000
vt 0.53050700 0.00000000
vt 0.53050700 0.00000000
vt 0.53050700 0.51456700
vt 0.53050700 0.51456700
vt 0.53050700 0.51456700
vt 0.53050700 0.00000000
vt 0.53050700 0.00000000
vt 0.53050700 0.00000000
vt 0.53050700 0.51456700
vt 0.53050700 0.51456700
vt 0.53050700 0.51456700
vt 0.64214400 0.00000000
vt 0.64214400 0.00000000
vt 0.64214400 0.00000000
vt 0.64214400 0.51456700
vt 0.64214400 0.51456700
vt 0.64214400 0.51456700
vt 0.64214400 0.00000000
vt 0.64214400 0.00000000
vt 0.64214400 0.00000000
vt 0.64214400 0.51456700
vt 0.64214400 0.51456700
vt 0.64214400 0.51456700
vt 0.85157800 0.00000000
vt 0.85157800 0.00000000
vt 0.85157800 0.00000000
vt 0.85157800 0.51456700
vt 0.85157800 0.51456700
vt 0.85157800 0.51456700
vt 0.85157800 0.00000000
vt 0.85157800 0.00000000
vt 0.85157800 0.00000000
vt 0.85157800 0.51456700
vt 0.85157800 0.51456700
vt 0.85157800 0.51456700
vt 1.00000000 0.00000000
vt 1.00000000 0.00000000
vt 1.00000000 0.00000000
vt 1.00000000 0.51456700
vt 1.00000000 0.51456700
vt 1.00000000 0.51456700
vt 0.32110700 1.00000000
vt 0.32110700 1.00000000
vt 0.32110700 1.00000000
vt 0.32110700 0.51456800
vt 0.32110700 0.51456800
vt 0.32110700 0.51456800
vt 0.00000000 0.51456800
vt 0.00000000 0.51456800
vt 0.00000000 0.51456800
vt 0.00000000 0.77336200
vt 0.00000000 0.77336200
vt 0.00000000 0.77336200
vt 0.20940500 0.77336200
vt 0.20940500 0.77336200
vt 0.20940500 0.77336200
vt 0.32110700 0.51456800
vt 0.32110700 0.51456800
vt 0.32110700 0.51456800
vt 0.32110700 1.00000000
vt 0.32110700 1.00000000
vt 0.32110700 1.00000000
vt 0.00000000 1.00000000
vt 0.00000000 1.00000000
vt 0.00000000 1.00000000
vt 0.00000000 0.74120600
vt 0.00000000 0.74120600
vt 0.00000000 0.74120600
vt 0.20940500 0.74120600
vt 0.20940500 0.74120600
vt 0.20940500 0.74120600
vt 0.00000000 0.00000000
vt 0.00000000 0.00000000
vt 0.00000000 0.00000000
vt 0.00000000 0.51456700
vt 0.00000000 0.51456700
vt 0.00000000 0.51456700
vt 0.20940300 0.00000000
vt 0.20940300 0.00000000
vt 0.20940300 0.00000000
vt 0.20940300 0.51456700
vt 0.20940300 0.51456700
vt 0.20940300 0.51456700
vt 0.20940300 0.00000000
vt 0.20940300 0.00000000
vt 0.20940300 0.00000000
vt 0.20940300 0.51456700
vt 0.20940300 0.51456700
vt 0.20940300 0.51456700
vt 0.53050700 0.00000000
vt 0.53050700 0.00000000
vt 0.53050700 0.00000000
vt 0.53050700 0.51456700
vt 0.53050700 0.51456700
vt 0.53050700 0.51456700
vt 0.53050700 0.00000000
vt 0.53050700 0.00000000
vt 0.53050700 0.00000000
vt 0.53050700 0.51456700
vt 0.53050700 0.51456700
vt 0.53050700 0.51456700
vt 0.64214400 0.00000000
vt 0.64214400 0.00000000
vt 0.64214400 0.00000000
vt 0.64214400 0.51456700
vt 0.64214400 0.51456700
vt 0.64214400 0.51456700
vt 0.64214400 0.00000000
vt 0.64214400 0.00000000
vt 0.64214400 0.00000000
vt 0.64214400 0.51456700
vt 0.64214400 0.51456700
vt 0.64214400 0.51456700
vt 0.85157800 0.00000000
vt 0.85157800 0.00000000
vt 0.85157800 0.00000000
vt 0.85157800 0.51456700
vt 0.85157800 0.51456700
vt 0.85157800 0.51456700
vt 0.85157800 0.00000000
vt 0.85157800 0.00000000
vt 0.85157800 0.00000000
vt 0.85157800 0.51456700
vt 0.85157800 0.51456700
vt 0.85157800 0.51456700
vt 1.00000000 0.00000000
vt 1.00000000 0.00000000
vt 1.00000000 0.00000000
vt 1.00000000 0.51456700
vt 1.00000000 0.51456700
vt 1.00000000 0.51456700
vt 0.32110700 1.00000000
vt 0.32110700 1.00000000
vt 0.32110700 1.00000000
vt 0.32110700 0.51456800
vt 0.32110700 0.51456800
vt 0.32110700 0.51456800
vt 0.00000000 0.51456800
vt 0.00000000 0.51456800
vt 0.00000000 0.51456800
vt 0.00000000 0.77336200
vt 0.00000000 0.77336200
vt 0.00000000 0.77336200
vt 0.20940500 0.77336200
vt 0.20940500 0.77336200
vt 0.20940500 0.77336200
vt 0.32110700 0.51456800
vt 0.32110700 0.51456800
vt 0.32110700 0.51456800
vt 0.32110700 1.00000000
vt 0.32110700 1.00000000
vt 0.32110700 1.00000000
vt 0.00000000 1.00000000
vt 0.00000000 1.00000000
vt 0.00000000 1.00000000
vt 0.00000000 0.74120600
vt 0.00000000 0.74120600
vt 0.00000000 0.74120600
vt 0.20940500 0.74120600
vt 0.20940500 0.74120600
vt 0.20940500 0.74120600
f 1/1/1 7/7/7 12/12/12
f 15/15/15 20/20/20 23/23/23
f 27/27/27 31/31/31 34/34/34
f 38/38/38 44/44/44 46/46/46
f 50/50/50 56/56/56 58/58/58
f 65/65/65 61/61/61 75/75/75
f 70/70/70 69/69/69 75/75/75
f 65/65/65 75/75/75 69/69/69
f 79/79/79 88/88/88 78/78/78
f 85/85/85 88/88/88 82/82/82
f 79/79/79 82/82/82 88/88/88
f 1/1/1 12/12/12 6/6/6
f 15/15/15 23/23/23 17/17/17
f 27/27/27 34/34/34 30/30/30
f 38/38/38 46/46/46 40/40/40
f 50/50/50 58/58/58 54/54/54
f 92/92/92 100/100/100 99/99/99
f 105/105/105 112/112/112 109/109/109
f 115/115/115 125/125/125 123/123/123
f 128/128/128 138/138/138 133/133/133
f 140/140/140 150/150/150 145/145/145
f 154/154/154 163/163/163 151/151/151
f 161/161/161 163/163/163 157/157/157
f 154/154/154 157/157/157 163/163/163
f 170/170/170 166/166/166 178/178/178
f 175/175/175 173/173/173 178/178/178
f 170/170/170 178/178/178 173/173/173
f 92/92/92 96/96/96 100/100/100
f 105/105/105 108/108/108 112/112/112
f 115/115/115 119/119/119 125/125/125
f 128/128/128 132/132/132 138/138/138
f 140/140/140 143/143/143 150/150/150
f 28/28/28 35/35/35 124/124/124
f 124/124/124 118/118/118 28/28/28
f 2/2/2 5/5/5 94/94/94
f 94/94/94 91/91/91 2/2/2
f 9/9/9 3/3/3 93/93/93
f 93/93/93 98/98/98 9/9/9
f 13/13/13 16/16/16 107/107/107
f 107/107/107 104/104/104 13/13/13
f 19/19/19 14/14/14 103/103/103
f 103/103/103 111/111/111 19/19/19
f 26/26/26 29/29/29 120/120/120
f 120/120/120 116/116/116 26/26/26
f 33/33/33 25/25/25 117/117/117
f 117/117/117 122/122/122 33/33/33
f 36/36/36 32/32/32 121/121/121
f 121/121/121 126/126/126 36/36/36
f 37/37/37 42/42/42 130/130/130
f 130/130/130 127/127/127 37/37/37
f 43/43/43 39/39/39 129/129/129
f 129/129/129 134/134/134 43/43/43
f 51/51/51 53/53/53 142/142/142
f 142/142/142 139/139/139 51/51/51
f 57/57/57 49/49/49 141/141/141
f 141/141/141 147/147/147 57/57/57
f 63/63/63 66/66/66 155/155/155
f 155/155/155 152/152/152 63/63/63
f 64/64/64 67/67/67 158/158/158
f 158/158/158 156/156/156 64/64/64
f 68/68/68 72/72/72 162/162/162
f 162/162/162 159/159/159 68/68/68
f 74/74/74 62/62/62 153/153/153
f 153/153/153 164/164/164 74/74/74
f 80/80/80 77/77/77 167/167/167
f 167/167/167 171/171/171 80/80/80
f 83/83/83 81/81/81 169/169/169
f 169/169/169 172/172/172 83/83/83
f 87/87/87 84/84/84 174/174/174
f 174/174/174 176/176/176 87/87/87
f 76/76/76 89/89/89 180/180/180
f 180/180/180 168/168/168 76/76/76
f 10/10/10 8/8/8 97/97/97
f 97/97/97 101/101/101 10/10/10
f 71/71/71 73/73/73 165/165/165
f 165/165/165 160/160/160 71/71/71
f 41/41/41 47/47/47 137/137/137
f 137/137/137 131/131/131 41/41/41
f 48/48/48 45/45/45 135/135/135
f 135/135/135 136/136/136 48/48/48
f 18/18/18 22/22/22 114/114/114
f 114/114/114 106/106/106 18/18/18
f 24/24/24 21/21/21 110/110/110
f 110/110/110 113/113/113 24/24/24
f 52/52/52 59/59/59 149/149/149
f 149/149/149 144/144/144 52/52/52
f 60/60/60 55/55/55 146/146/146
f 146/146/146 148/148/148 60/60/60
f 90/90/90 86/86/86 177/177/177
f 177/177/177 179/179/179 90/90/90
f 4/4/4 11/11/11 102/102/102
f 102/102/102 95/95/95 4/4/4

