mtllib material.mtl
usemtl Material-7011油漆.019
v -0.07023200 -0.11263200 0.02723000
v -0.07023200 -0.11348800 0.02539300
v -0.07185100 -0.11263200 0.02723000
v -0.07185100 -0.11348800 0.02539300
v -0.07104100 -0.11263200 0.02723000
v -0.07023200 -0.11306000 0.02631100
v -0.07185100 -0.11306000 0.02631100
v -0.07481100 -0.11348800 0.02539300
v -0.07832800 -0.11263200 0.02723000
v -0.07832800 -0.11348800 0.02539300
v -0.07630400 -0.11263200 0.02723000
v -0.07656900 -0.11348800 0.02539300
v -0.07832800 -0.11348800 0.02539300
v -0.07832800 -0.11348800 0.02539300
v -0.07023200 -0.11348800 0.02539300
v -0.07832800 -0.11580400 0.01967700
v -0.07023200 -0.11580400 0.01967700
v -0.07185100 -0.11348800 0.02539300
v -0.07481100 -0.11348800 0.02539300
v -0.07656900 -0.11348800 0.02539300
v -0.07225600 -0.11580400 0.01967700
v -0.07124400 -0.11580400 0.01967700
v -0.07670900 -0.11580400 0.01967700
v -0.07670900 -0.11555400 0.02038300
v -0.07670900 -0.11529600 0.02108600
v -0.07670900 -0.11502900 0.02178600
v -0.07670900 -0.11475300 0.02248300
v -0.07670900 -0.11446800 0.02317600
v -0.07670900 -0.11417500 0.02386600
v -0.07670900 -0.11387300 0.02455100
v -0.07670900 -0.11356300 0.02523300
v -0.07670900 -0.11356300 0.02523300
v -0.07751900 -0.11580400 0.01967700
v -0.07832800 -0.11381000 0.02469200
v -0.07832800 -0.11412200 0.02398700
v -0.07832800 -0.11442500 0.02327800
v -0.07832800 -0.11472000 0.02256400
v -0.07832800 -0.11500500 0.02184800
v -0.07832800 -0.11528000 0.02112700
v -0.07832800 -0.11554700 0.02040400
v -0.07185100 -0.11390300 0.02448400
v -0.07185100 -0.11430200 0.02356900
v -0.07185100 -0.11468600 0.02264700
v -0.07185100 -0.11505500 0.02171900
v -0.07023200 -0.11554700 0.02040400
v -0.07023200 -0.11528000 0.02112700
v -0.07023200 -0.11500500 0.02184800
v -0.07023200 -0.11472000 0.02256400
v -0.07023200 -0.11442500 0.02327800
v -0.07023200 -0.11412200 0.02398700
v -0.07023200 -0.11381000 0.02469200
v -0.07615500 -0.11387400 0.02454900
v -0.07560000 -0.11417600 0.02386300
v -0.07504400 -0.11446900 0.02317300
v -0.07448800 -0.11475400 0.02247900
v -0.07393000 -0.11503000 0.02178300
v -0.07337300 -0.11529700 0.02108400
v -0.07281500 -0.11555500 0.02038200
v -0.07259300 -0.11468700 0.02264600
v -0.07333300 -0.11430300 0.02356700
v -0.07407300 -0.11390300 0.02448300
v -0.07023200 -0.11326600 0.02752600
v -0.07023200 -0.11412300 0.02568900
v -0.07185100 -0.11326600 0.02752600
v -0.07185100 -0.11412300 0.02568900
v -0.07023200 -0.11369400 0.02660700
v -0.07104100 -0.11326600 0.02752600
v -0.07185100 -0.11369400 0.02660700
v -0.07481100 -0.11412300 0.02568900
v -0.07832800 -0.11326600 0.02752600
v -0.07832800 -0.11412300 0.02568900
v -0.07656900 -0.11412300 0.02568900
v -0.07630400 -0.11326600 0.02752600
v -0.07832800 -0.11412300 0.02568900
v -0.07832800 -0.11412300 0.02568900
v -0.07023200 -0.11412300 0.02568900
v -0.07832800 -0.11646500 0.01990600
v -0.07023200 -0.11646500 0.01990600
v -0.07185100 -0.11412300 0.02568900
v -0.07481100 -0.11412300 0.02568900
v -0.07481100 -0.11412300 0.02568900
v -0.07656900 -0.11412300 0.02568900
v -0.07656900 -0.11412300 0.02568900
v -0.07225600 -0.11646500 0.01990600
v -0.07124400 -0.11646500 0.01990600
v -0.07023200 -0.11620300 0.02064600
v -0.07023200 -0.11593200 0.02138200
v -0.07023200 -0.11565300 0.02211300
v -0.07023200 -0.11536400 0.02283900
v -0.07023200 -0.11506600 0.02356000
v -0.07023200 -0.11476000 0.02427500
v -0.07023200 -0.11444600 0.02498500
v -0.07185100 -0.11454000 0.02477300
v -0.07185100 -0.11494400 0.02384900
v -0.07185100 -0.11533300 0.02291500
v -0.07185100 -0.11570700 0.02197200
v -0.07832800 -0.11444600 0.02498500
v -0.07832800 -0.11476000 0.02427500
v -0.07832800 -0.11506600 0.02356000
v -0.07832800 -0.11536400 0.02283900
v -0.07832800 -0.11565300 0.02211300
v -0.07832800 -0.11593200 0.02138200
v -0.07832800 -0.11620300 0.02064600
v -0.07751900 -0.11646500 0.01990600
v -0.07670900 -0.11646500 0.01990600
v -0.07670900 -0.11621100 0.02062500
v -0.07670900 -0.11594800 0.02134000
v -0.07670900 -0.11567700 0.02205000
v -0.07670900 -0.11539700 0.02275600
v -0.07670900 -0.11511000 0.02345600
v -0.07670900 -0.11481400 0.02415200
v -0.07670900 -0.11451000 0.02484200
v -0.07670900 -0.11419800 0.02552700
v -0.07670900 -0.11419800 0.02552700
v -0.07615500 -0.11451300 0.02483500
v -0.07560000 -0.11481800 0.02414100
v -0.07504400 -0.11511500 0.02344300
v -0.07448800 -0.11540300 0.02274100
v -0.07393000 -0.11568200 0.02203700
v -0.07337300 -0.11595200 0.02132900
v -0.07281500 -0.11621300 0.02061900
v -0.07259300 -0.11533500 0.02291000
v -0.07333300 -0.11494700 0.02384200
v -0.07370300 -0.11474700 0.02430600
v -0.07407300 -0.11454300 0.02476800
v -0.07444200 -0.11433500 0.02522900
v -0.07185100 -0.11263200 0.02723000
v -0.07185100 -0.11326600 0.02752600
v -0.07185100 -0.11348800 0.02539300
v -0.07185100 -0.11412300 0.02568900
v -0.07185100 -0.11306000 0.02631100
v -0.07185100 -0.11369400 0.02660700
v -0.07023200 -0.11263200 0.02723000
v -0.07023200 -0.11326600 0.02752600
v -0.07185100 -0.11263200 0.02723000
v -0.07185100 -0.11326600 0.02752600
v -0.07104100 -0.11263200 0.02723000
v -0.07104100 -0.11326600 0.02752600
v -0.07023200 -0.11348800 0.02539300
v -0.07023200 -0.11412300 0.02568900
v -0.07023200 -0.11263200 0.02723000
v -0.07023200 -0.11326600 0.02752600
v -0.07023200 -0.11306000 0.02631100
v -0.07023200 -0.11369400 0.02660700
v -0.07023200 -0.11580400 0.01967700
v -0.07023200 -0.11646500 0.01990600
v -0.07023200 -0.11348800 0.02539300
v -0.07023200 -0.11412300 0.02568900
v -0.07023200 -0.11554700 0.02040400
v -0.07023200 -0.11528000 0.02112700
v -0.07023200 -0.11500500 0.02184800
v -0.07023200 -0.11472000 0.02256400
v -0.07023200 -0.11442500 0.02327800
v -0.07023200 -0.11412200 0.02398700
v -0.07023200 -0.11381000 0.02469200
v -0.07023200 -0.11444600 0.02498500
v -0.07023200 -0.11476000 0.02427500
v -0.07023200 -0.11506600 0.02356000
v -0.07023200 -0.11536400 0.02283900
v -0.07023200 -0.11565300 0.02211300
v -0.07023200 -0.11593200 0.02138200
v -0.07023200 -0.11620300 0.02064600
v -0.07225600 -0.11580400 0.01967700
v -0.07225600 -0.11646500 0.01990600
v -0.07023200 -0.11580400 0.01967700
v -0.07023200 -0.11646500 0.01990600
v -0.07124400 -0.11580400 0.01967700
v -0.07124400 -0.11580400 0.01967700
v -0.07124400 -0.11646500 0.01990600
v -0.07124400 -0.11646500 0.01990600
v -0.07670900 -0.11356300 0.02523300
v -0.07670900 -0.11419800 0.02552700
v -0.07225600 -0.11580400 0.01967700
v -0.07225600 -0.11646500 0.01990600
v -0.07615500 -0.11387400 0.02454900
v -0.07560000 -0.11417600 0.02386300
v -0.07504400 -0.11446900 0.02317300
v -0.07448800 -0.11475400 0.02247900
v -0.07393000 -0.11503000 0.02178300
v -0.07337300 -0.11529700 0.02108400
v -0.07281500 -0.11555500 0.02038200
v -0.07281500 -0.11621300 0.02061900
v -0.07337300 -0.11595200 0.02132900
v -0.07393000 -0.11568200 0.02203700
v -0.07448800 -0.11540300 0.02274100
v -0.07504400 -0.11511500 0.02344300
v -0.07560000 -0.11481800 0.02414100
v -0.07615500 -0.11451300 0.02483500
v -0.07670900 -0.11580400 0.01967700
v -0.07670900 -0.11646500 0.01990600
v -0.07670900 -0.11356300 0.02523300
v -0.07670900 -0.11419800 0.02552700
v -0.07670900 -0.11555400 0.02038300
v -0.07670900 -0.11529600 0.02108600
v -0.07670900 -0.11502900 0.02178600
v -0.07670900 -0.11475300 0.02248300
v -0.07670900 -0.11446800 0.02317600
v -0.07670900 -0.11417500 0.02386600
v -0.07670900 -0.11387300 0.02455100
v -0.07670900 -0.11451000 0.02484200
v -0.07670900 -0.11481400 0.02415200
v -0.07670900 -0.11511000 0.02345600
v -0.07670900 -0.11539700 0.02275600
v -0.07670900 -0.11567700 0.02205000
v -0.07670900 -0.11594800 0.02134000
v -0.07670900 -0.11621100 0.02062500
v -0.07832800 -0.11580400 0.01967700
v -0.07832800 -0.11646500 0.01990600
v -0.07832800 -0.11646500 0.01990600
v -0.07670900 -0.11580400 0.01967700
v -0.07670900 -0.11580400 0.01967700
v -0.07670900 -0.11646500 0.01990600
v -0.07751900 -0.11580400 0.01967700
v -0.07751900 -0.11580400 0.01967700
v -0.07751900 -0.11646500 0.01990600
v -0.07751900 -0.11646500 0.01990600
v -0.07832800 -0.11348800 0.02539300
v -0.07832800 -0.11412300 0.02568900
v -0.07832800 -0.11580400 0.01967700
v -0.07832800 -0.11646500 0.01990600
v -0.07832800 -0.11381000 0.02469200
v -0.07832800 -0.11412200 0.02398700
v -0.07832800 -0.11442500 0.02327800
v -0.07832800 -0.11472000 0.02256400
v -0.07832800 -0.11500500 0.02184800
v -0.07832800 -0.11528000 0.02112700
v -0.07832800 -0.11554700 0.02040400
v -0.07832800 -0.11620300 0.02064600
v -0.07832800 -0.11593200 0.02138200
v -0.07832800 -0.11565300 0.02211300
v -0.07832800 -0.11536400 0.02283900
v -0.07832800 -0.11506600 0.02356000
v -0.07832800 -0.11476000 0.02427500
v -0.07832800 -0.11444600 0.02498500
v -0.07832800 -0.11263200 0.02723000
v -0.07832800 -0.11326600 0.02752600
v -0.07832800 -0.11348800 0.02539300
v -0.07832800 -0.11412300 0.02568900
v -0.07630400 -0.11263200 0.02723000
v -0.07630400 -0.11326600 0.02752600
v -0.07832800 -0.11263200 0.02723000
v -0.07832800 -0.11326600 0.02752600
v -0.07481100 -0.11348800 0.02539300
v -0.07481100 -0.11348800 0.02539300
v -0.07481100 -0.11412300 0.02568900
v -0.07630400 -0.11263200 0.02723000
v -0.07630400 -0.11326600 0.02752600
v -0.07630400 -0.11326600 0.02752600
v -0.07185100 -0.11505500 0.02171900
v -0.07185100 -0.11570700 0.02197200
v -0.07481100 -0.11348800 0.02539300
v -0.07481100 -0.11412300 0.02568900
v -0.07259300 -0.11468700 0.02264600
v -0.07333300 -0.11430300 0.02356700
v -0.07407300 -0.11390300 0.02448300
v -0.07444200 -0.11433500 0.02522900
v -0.07407300 -0.11454300 0.02476800
v -0.07370300 -0.11474700 0.02430600
v -0.07333300 -0.11494700 0.02384200
v -0.07259300 -0.11533500 0.02291000
v -0.07185100 -0.11348800 0.02539300
v -0.07185100 -0.11412300 0.02568900
v -0.07185100 -0.11505500 0.02171900
v -0.07185100 -0.11570700 0.02197200
v -0.07185100 -0.11390300 0.02448400
v -0.07185100 -0.11430200 0.02356900
v -0.07185100 -0.11468600 0.02264700
v -0.07185100 -0.11533300 0.02291500
v -0.07185100 -0.11494400 0.02384900
v -0.07185100 -0.11454000 0.02477300
vn 0.00000000 0.90630000 -0.42260000
vn 0.00000000 0.90630000 -0.42260000
vn 0.00000000 0.90630000 -0.42260000
vn 0.00000000 0.90630000 -0.42260000
vn 0.00000000 0.90630000 -0.42260000
vn 0.00000000 0.90630000 -0.42260000
vn 0.00000000 0.90630000 -0.42260000
vn 0.00000000 0.90630000 -0.42260000
vn 0.00000000 0.90630000 -0.42260000
vn 0.00000000 0.90630000 -0.42260000
vn 0.00000000 0.90630000 -0.42260000
vn 0.00000000 0.90630000 -0.42260000
vn -0.00000000 0.90630000 -0.42270000
vn 0.00000000 0.90630000 -0.42260000
vn 0.00000000 0.90630000 -0.42260000
vn -0.00000000 0.94490000 -0.32740000
vn -0.00000000 0.94490000 -0.32740000
vn 0.00000000 0.90630000 -0.42260000
vn 0.00000000 0.90630000 -0.42260000
vn 0.00000000 0.90630000 -0.42260000
vn 0.00000000 0.94490000 -0.32730000
vn -0.00000000 0.94490000 -0.32740000
vn -0.00000000 0.94490000 -0.32740000
vn -0.00000000 0.94080000 -0.33910000
vn -0.00010000 0.93640000 -0.35080000
vn -0.00010000 0.93200000 -0.36250000
vn -0.00020000 0.92740000 -0.37410000
vn -0.00020000 0.92270000 -0.38560000
vn -0.00030000 0.91780000 -0.39710000
vn -0.00030000 0.91270000 -0.40860000
vn -0.00000000 0.90750000 -0.42000000
vn 0.00000000 0.90760000 -0.41990000
vn -0.00000000 0.94490000 -0.32740000
vn 0.00040000 0.91170000 -0.41090000
vn 0.00030000 0.91690000 -0.39920000
vn -0.00020000 0.92190000 -0.38740000
vn 0.00020000 0.92680000 -0.37550000
vn 0.00020000 0.93160000 -0.36350000
vn 0.00010000 0.93620000 -0.35150000
vn 0.00010000 0.94060000 -0.33940000
vn -0.00000000 0.91320000 -0.40750000
vn -0.00000000 0.91990000 -0.39220000
vn 0.00020000 0.92630000 -0.37680000
vn 0.00000000 0.93240000 -0.36160000
vn 0.00000000 0.94060000 -0.33950000
vn -0.00010000 0.93620000 -0.35140000
vn 0.00000000 0.93150000 -0.36380000
vn 0.00000000 0.92690000 -0.37530000
vn -0.00020000 0.92200000 -0.38720000
vn 0.00000000 0.91690000 -0.39920000
vn 0.00000000 0.91170000 -0.41090000
vn -0.00000000 0.91270000 -0.40860000
vn 0.00000000 0.91770000 -0.39720000
vn 0.00000000 0.92260000 -0.38570000
vn 0.00000000 0.92740000 -0.37400000
vn 0.00000000 0.93200000 -0.36240000
vn 0.00000000 0.93640000 -0.35080000
vn -0.00000000 0.94080000 -0.33910000
vn -0.00000000 0.92630000 -0.37680000
vn -0.00000000 0.91990000 -0.39220000
vn -0.00000000 0.91320000 -0.40740000
vn 0.00000000 -0.90630000 0.42260000
vn 0.00000000 -0.90630000 0.42260000
vn 0.00000000 -0.90630000 0.42260000
vn 0.00000000 -0.90630000 0.42260000
vn 0.00000000 -0.90630000 0.42260000
vn 0.00000000 -0.90630000 0.42260000
vn 0.00000000 -0.90630000 0.42260000
vn 0.00000000 -0.90630000 0.42260000
vn 0.00000000 -0.90630000 0.42260000
vn 0.00000000 -0.90630000 0.42260000
vn 0.00000000 -0.90630000 0.42260000
vn 0.00000000 -0.90630000 0.42260000
vn 0.00000000 -0.90630000 0.42260000
vn 0.00000000 -0.90630000 0.42270000
vn 0.00000000 -0.90630000 0.42260000
vn 0.00000000 -0.94490000 0.32740000
vn 0.00000000 -0.94490000 0.32740000
vn 0.00000000 -0.90630000 0.42260000
vn 0.00000000 -0.90630000 0.42260000
vn 0.00000000 -0.90620000 0.42280000
vn 0.00000000 -0.90630000 0.42270000
vn 0.00000000 -0.90620000 0.42280000
vn 0.00000000 -0.94490000 0.32740000
vn -0.00000000 -0.94490000 0.32730000
vn 0.00010000 -0.94060000 0.33950000
vn 0.00020000 -0.93620000 0.35160000
vn -0.00000000 -0.93140000 0.36400000
vn -0.00000000 -0.92680000 0.37550000
vn 0.00020000 -0.92190000 0.38740000
vn 0.00030000 -0.91680000 0.39940000
vn 0.00010000 -0.91150000 0.41120000
vn 0.00000000 -0.91320000 0.40750000
vn -0.00010000 -0.91980000 0.39230000
vn 0.00000000 -0.92620000 0.37690000
vn -0.00000000 -0.93240000 0.36140000
vn -0.00000000 -0.91160000 0.41100000
vn -0.00030000 -0.91680000 0.39930000
vn -0.00030000 -0.92190000 0.38750000
vn 0.00010000 -0.92680000 0.37570000
vn -0.00020000 -0.93150000 0.36370000
vn -0.00010000 -0.93610000 0.35170000
vn -0.00010000 -0.94060000 0.33950000
vn 0.00000000 -0.94490000 0.32740000
vn -0.00000000 -0.94490000 0.32730000
vn 0.00000000 -0.94070000 0.33920000
vn 0.00010000 -0.93640000 0.35090000
vn 0.00010000 -0.93190000 0.36260000
vn 0.00020000 -0.92730000 0.37430000
vn 0.00020000 -0.92260000 0.38580000
vn -0.00020000 -0.91770000 0.39730000
vn 0.00030000 -0.91270000 0.40860000
vn -0.00000000 -0.90750000 0.42000000
vn -0.00000000 -0.90760000 0.41990000
vn -0.00000000 -0.91270000 0.40860000
vn -0.00000000 -0.91780000 0.39710000
vn -0.00000000 -0.92260000 0.38570000
vn -0.00000000 -0.92740000 0.37410000
vn 0.00000000 -0.93200000 0.36240000
vn 0.00000000 -0.93650000 0.35080000
vn 0.00000000 -0.94070000 0.33910000
vn -0.00000000 -0.92630000 0.37690000
vn 0.00000000 -0.91990000 0.39220000
vn -0.00000000 -0.91660000 0.39980000
vn -0.00000000 -0.91320000 0.40740000
vn 0.00000000 -0.90980000 0.41500000
vn -1.00000000 0.00000000 0.00000000
vn -1.00000000 0.00000000 0.00000000
vn -1.00000000 0.00000000 0.00000000
vn -1.00000000 0.00000000 0.00000000
vn -1.00000000 0.00000000 0.00000000
vn -1.00000000 0.00000000 0.00000000
vn 0.00000000 0.42260000 0.90630000
vn 0.00000000 0.42260000 0.90630000
vn 0.00000000 0.42260000 0.90630000
vn 0.00000000 0.42260000 0.90630000
vn 0.00000000 0.42260000 0.90630000
vn 0.00000000 0.42260000 0.90630000
vn 1.00000000 -0.00000000 0.00000000
vn 1.00000000 -0.00000000 0.00000000
vn 1.00000000 -0.00000000 0.00000000
vn 1.00000000 -0.00000000 0.00000000
vn 1.00000000 -0.00000000 0.00000000
vn 1.00000000 -0.00000000 0.00000000
vn 1.00000000 -0.00000000 0.00000000
vn 1.00000000 -0.00000000 0.00000000
vn 1.00000000 -0.00000000 0.00000000
vn 1.00000000 -0.00000000 0.00000000
vn 1.00000000 -0.00000000 0.00000000
vn 1.00000000 -0.00000000 0.00000000
vn 1.00000000 -0.00000000 0.00000000
vn 1.00000000 -0.00000000 0.00000000
vn 1.00000000 -0.00000000 0.00000000
vn 1.00000000 -0.00000000 0.00000000
vn 1.00000000 -0.00000000 0.00000000
vn 1.00000000 -0.00000000 0.00000000
vn 1.00000000 -0.00000000 0.00000000
vn 1.00000000 -0.00000000 0.00000000
vn 1.00000000 -0.00000000 0.00000000
vn 1.00000000 -0.00000000 0.00000000
vn 1.00000000 -0.00000000 0.00000000
vn 1.00000000 -0.00000000 0.00000000
vn 0.00000000 -0.32730000 -0.94490000
vn 0.00000000 -0.32730000 -0.94490000
vn 0.00000000 -0.32740000 -0.94490000
vn 0.00000000 -0.32740000 -0.94490000
vn 0.00000000 -0.32730000 -0.94490000
vn 0.00000000 -0.32740000 -0.94490000
vn 0.00000000 -0.32740000 -0.94490000
vn 0.00000000 -0.32730000 -0.94490000
vn -0.80500000 -0.24910000 -0.53850000
vn -0.80820000 -0.24730000 -0.53450000
vn -0.80090000 -0.19600000 -0.56580000
vn -0.80430000 -0.19450000 -0.56150000
vn -0.80430000 -0.24280000 -0.54240000
vn -0.80370000 -0.23630000 -0.54610000
vn -0.80310000 -0.22970000 -0.54980000
vn -0.80260000 -0.22310000 -0.55320000
vn -0.80210000 -0.21640000 -0.55660000
vn -0.80170000 -0.20970000 -0.55970000
vn -0.80130000 -0.20280000 -0.56280000
vn -0.80460000 -0.20130000 -0.55860000
vn -0.80500000 -0.20810000 -0.55560000
vn -0.80540000 -0.21480000 -0.55240000
vn -0.80590000 -0.22150000 -0.54910000
vn -0.80640000 -0.22800000 -0.54560000
vn -0.80700000 -0.23450000 -0.54200000
vn -0.80760000 -0.24090000 -0.53830000
vn 1.00000000 -0.00000000 0.00000000
vn 1.00000000 -0.00000000 0.00000000
vn 1.00000000 -0.00000000 0.00000000
vn 1.00000000 -0.00000000 0.00000000
vn 1.00000000 -0.00000000 0.00000000
vn 1.00000000 -0.00000000 0.00000000
vn 1.00000000 -0.00000000 0.00000000
vn 1.00000000 -0.00000000 0.00000000
vn 1.00000000 -0.00000000 0.00000000
vn 1.00000000 -0.00000000 0.00000000
vn 1.00000000 -0.00000000 0.00000000
vn 1.00000000 -0.00000000 0.00000000
vn 1.00000000 -0.00000000 0.00000000
vn 1.00000000 -0.00000000 0.00000000
vn 1.00000000 -0.00000000 0.00000000
vn 1.00000000 -0.00000000 0.00000000
vn 1.00000000 -0.00000000 0.00000000
vn 1.00000000 -0.00000000 0.00000000
vn 0.00000000 -0.32740000 -0.94490000
vn 0.00000000 -0.32730000 -0.94490000
vn 0.00000000 -0.32740000 -0.94490000
vn 0.00000000 -0.32740000 -0.94490000
vn 0.00000000 -0.32730000 -0.94490000
vn 0.00000000 -0.32730000 -0.94490000
vn 0.00000000 -0.32730000 -0.94490000
vn 0.00000000 -0.32740000 -0.94490000
vn 0.00000000 -0.32730000 -0.94490000
vn 0.00000000 -0.32740000 -0.94490000
vn -1.00000000 0.00000000 0.00000000
vn -1.00000000 0.00000000 0.00000000
vn -1.00000000 0.00000000 0.00000000
vn -1.00000000 0.00000000 0.00000000
vn -1.00000000 0.00000000 0.00000000
vn -1.00000000 0.00000000 0.00000000
vn -1.00000000 0.00000000 0.00000000
vn -1.00000000 0.00000000 0.00000000
vn -1.00000000 0.00000000 0.00000000
vn -1.00000000 0.00000000 0.00000000
vn -1.00000000 0.00000000 0.00000000
vn -1.00000000 0.00000000 0.00000000
vn -1.00000000 0.00000000 0.00000000
vn -1.00000000 0.00000000 0.00000000
vn -1.00000000 0.00000000 0.00000000
vn -1.00000000 0.00000000 0.00000000
vn -1.00000000 0.00000000 0.00000000
vn -1.00000000 0.00000000 0.00000000
vn -1.00000000 0.00000000 0.00000000
vn -1.00000000 0.00000000 0.00000000
vn -1.00000000 0.00000000 0.00000000
vn -1.00000000 0.00000000 0.00000000
vn 0.00000000 0.42260000 0.90630000
vn 0.00000000 0.42260000 0.90630000
vn 0.00000000 0.42260000 0.90630000
vn 0.00000000 0.42260000 0.90630000
vn 0.80510000 0.25060000 0.53760000
vn 0.80510000 0.25070000 0.53750000
vn 0.80510000 0.25070000 0.53750000
vn 0.80510000 0.25060000 0.53760000
vn 0.80510000 0.25060000 0.53760000
vn 0.80510000 0.25070000 0.53750000
vn 0.80210000 0.21580000 0.55680000
vn 0.80540000 0.21420000 0.55270000
vn 0.80510000 0.25070000 0.53750000
vn 0.80850000 0.24870000 0.53340000
vn 0.80270000 0.22470000 0.55230000
vn 0.80340000 0.23350000 0.54770000
vn 0.80430000 0.24210000 0.54270000
vn 0.80790000 0.24460000 0.53610000
vn 0.80750000 0.24030000 0.53870000
vn 0.80710000 0.23610000 0.54120000
vn 0.80670000 0.23180000 0.54360000
vn 0.80600000 0.22300000 0.54820000
vn -1.00000000 0.00000000 0.00000000
vn -1.00000000 0.00000000 0.00000000
vn -1.00000000 0.00000000 0.00000000
vn -1.00000000 0.00000000 0.00000000
vn -1.00000000 0.00000000 0.00000000
vn -1.00000000 0.00000000 0.00000000
vn -1.00000000 0.00000000 0.00000000
vn -1.00000000 0.00000000 0.00000000
vn -1.00000000 0.00000000 0.00000000
vn -1.00000000 0.00000000 0.00000000
vt 0.99497500 0.00000000
vt 0.85511400 0.00000000
vt 0.99497500 0.11171800
vt 0.85511400 0.11171800
vt 0.99497500 0.05585900
vt 0.92504500 0.00000000
vt 0.92504500 0.11171800
vt 0.00000000 0.69751400
vt 0.13986100 0.94020500
vt 0.00000000 0.94020500
vt 0.13986100 0.80054600
vt 0.00000000 0.81886000
vt 0.28454500 0.43064900
vt 0.28454500 0.43064900
vt 0.28454500 0.98777400
vt 0.70876400 0.43064900
vt 0.70876400 0.98777400
vt 0.28454500 0.87634900
vt 0.28454500 0.67270400
vt 0.28454500 0.55167700
vt 0.70876400 0.84848100
vt 0.70876400 0.91812800
vt 0.70876400 0.54207400
vt 0.65761500 0.54207400
vt 0.60636600 0.54207400
vt 0.55501700 0.54207400
vt 0.50356700 0.54207400
vt 0.45201700 0.54207400
vt 0.40036600 0.54207400
vt 0.34861300 0.54207400
vt 0.29675800 0.54207400
vt 0.29675800 0.54207400
vt 0.70876400 0.48636200
vt 0.33795000 0.43064900
vt 0.39124600 0.43064900
vt 0.44443300 0.43064900
vt 0.49751400 0.43064900
vt 0.55048600 0.43064900
vt 0.60335200 0.43064900
vt 0.65611100 0.43064900
vt 0.35368500 0.87634900
vt 0.42263200 0.87634900
vt 0.49138900 0.87634900
vt 0.55995500 0.87634900
vt 0.65611100 0.98777400
vt 0.60335200 0.98777400
vt 0.55048600 0.98777400
vt 0.49751400 0.98777400
vt 0.44443300 0.98777400
vt 0.39124600 0.98777400
vt 0.33795000 0.98777400
vt 0.34874700 0.58020800
vt 0.40058300 0.61839900
vt 0.45227300 0.65664200
vt 0.50382400 0.69493300
vt 0.55524200 0.73326700
vt 0.60653400 0.77163900
vt 0.65770500 0.81004500
vt 0.49148000 0.82531300
vt 0.42276300 0.77435200
vt 0.35379000 0.72347900
vt 0.85008900 0.00000000
vt 0.71022900 0.00000000
vt 0.85008900 0.11171800
vt 0.71022900 0.11171800
vt 0.78015900 0.00000000
vt 0.85008900 0.05585900
vt 0.78015900 0.11171800
vt 0.14227300 0.69751400
vt 0.28213300 0.94020500
vt 0.14227300 0.94020500
vt 0.14227300 0.81886000
vt 0.28213300 0.80054600
vt 0.55859000 0.00000000
vt 0.55859000 0.00000000
vt 0.00000000 0.00000000
vt 0.55859000 0.42918500
vt 0.00000000 0.42918500
vt 0.11171800 0.00000000
vt 0.31589900 0.00000000
vt 0.31589900 0.00000000
vt 0.43724400 0.00000000
vt 0.43724400 0.00000000
vt 0.13966000 0.42918500
vt 0.06983000 0.42918500
vt 0.00000000 0.37553700
vt 0.00000000 0.32188800
vt 0.00000000 0.26824000
vt 0.00000000 0.21459200
vt 0.00000000 0.16094400
vt 0.00000000 0.10729600
vt 0.00000000 0.05364800
vt 0.11171800 0.06965800
vt 0.11171800 0.13931700
vt 0.11171800 0.20897500
vt 0.11171800 0.27863400
vt 0.55859000 0.05364800
vt 0.55859000 0.10729600
vt 0.55859000 0.16094400
vt 0.55859000 0.21459200
vt 0.55859000 0.26824000
vt 0.55859000 0.32188800
vt 0.55859000 0.37553700
vt 0.50273100 0.42918500
vt 0.44687200 0.42918500
vt 0.44687200 0.37708100
vt 0.44687200 0.32497700
vt 0.44687200 0.27287400
vt 0.44687200 0.22077000
vt 0.44687200 0.16866600
vt 0.44687200 0.11656300
vt 0.44687200 0.06445900
vt 0.44687200 0.01235600
vt 0.44687200 0.01235600
vt 0.40863800 0.06495300
vt 0.37034700 0.11739600
vt 0.33200300 0.16969100
vt 0.29361200 0.22184500
vt 0.25517700 0.27386500
vt 0.21670400 0.32575800
vt 0.17819600 0.37752900
vt 0.16288900 0.20935700
vt 0.21398300 0.13983600
vt 0.23949800 0.10497900
vt 0.26499000 0.07005600
vt 0.29045700 0.03506300
vt 0.23478500 0.48870200
vt 0.18795500 0.48870200
vt 0.23478500 0.62856300
vt 0.18795500 0.62856300
vt 0.23478500 0.55863300
vt 0.18795500 0.55863300
vt 0.00000000 0.43064900
vt 0.00000000 0.47894500
vt 0.11171800 0.43064900
vt 0.11171800 0.47894500
vt 0.05585900 0.43064900
vt 0.05585900 0.47894500
vt 0.18649000 0.48870200
vt 0.13966000 0.48870200
vt 0.18649000 0.62856300
vt 0.13966000 0.62856300
vt 0.18649000 0.55863300
vt 0.13966000 0.55863300
vt 0.95024000 0.17521200
vt 0.90340900 0.17521200
vt 0.95024000 0.60586100
vt 0.90340900 0.60586100
vt 0.95024000 0.22904300
vt 0.95024000 0.28287400
vt 0.95024000 0.33670500
vt 0.95024000 0.39053600
vt 0.95024000 0.44436800
vt 0.95024000 0.49819900
vt 0.95024000 0.55203000
vt 0.90340900 0.55241000
vt 0.90340900 0.49885100
vt 0.90340900 0.44518400
vt 0.90340900 0.39140900
vt 0.90340900 0.33752400
vt 0.90340900 0.28352900
vt 0.90340900 0.22942600
vt 0.00000000 0.63079800
vt 0.00000000 0.67909300
vt 0.13819500 0.63079800
vt 0.13819500 0.67909300
vt 0.06909700 0.63079800
vt 0.06909700 0.63079800
vt 0.06909700 0.67909300
vt 0.06909700 0.67909300
vt 0.99853500 0.17521200
vt 0.95170500 0.17521200
vt 0.99853500 0.69425000
vt 0.95170500 0.69425000
vt 0.99853500 0.24009100
vt 0.99853500 0.30497100
vt 0.99853500 0.36985100
vt 0.99853500 0.43473100
vt 0.99853500 0.49961000
vt 0.99853500 0.56449000
vt 0.99853500 0.62937000
vt 0.95170500 0.62937000
vt 0.95170500 0.56449000
vt 0.95170500 0.49961000
vt 0.95170500 0.43473100
vt 0.95170500 0.36985100
vt 0.95170500 0.30497100
vt 0.95170500 0.24009100
vt 0.80535400 0.20376600
vt 0.75852400 0.20376600
vt 0.80535400 0.62211900
vt 0.75852400 0.62211900
vt 0.80535400 0.25606000
vt 0.80535400 0.30835400
vt 0.80535400 0.36064800
vt 0.80535400 0.41294200
vt 0.80535400 0.46523700
vt 0.80535400 0.51753100
vt 0.80535400 0.56982500
vt 0.75852400 0.57018200
vt 0.75852400 0.51814400
vt 0.75852400 0.46600400
vt 0.75852400 0.41376200
vt 0.75852400 0.36141700
vt 0.75852400 0.30896900
vt 0.75852400 0.25641900
vt 0.00000000 0.49736600
vt 0.00000000 0.54566100
vt 0.00000000 0.54566100
vt 0.11171800 0.49736600
vt 0.11171800 0.49736600
vt 0.11171800 0.54566100
vt 0.05585900 0.49736600
vt 0.05585900 0.49736600
vt 0.05585900 0.54566100
vt 0.05585900 0.54566100
vt 0.85364900 0.20376600
vt 0.80681900 0.20376600
vt 0.85364900 0.63441500
vt 0.80681900 0.63441500
vt 0.85364900 0.25759700
vt 0.85364900 0.31142800
vt 0.85364900 0.36525900
vt 0.85364900 0.41909000
vt 0.85364900 0.47292100
vt 0.85364900 0.52675300
vt 0.85364900 0.58058400
vt 0.80681900 0.58020100
vt 0.80681900 0.52609700
vt 0.80681900 0.47210300
vt 0.80681900 0.41821800
vt 0.80681900 0.36444200
vt 0.80681900 0.31077500
vt 0.80681900 0.25721600
vt 0.13966000 0.43064900
vt 0.13966000 0.47894500
vt 0.27952000 0.43064900
vt 0.27952000 0.47894500
vt 0.00000000 0.56408200
vt 0.00000000 0.61237700
vt 0.13819500 0.56408200
vt 0.13819500 0.61237700
vt 0.28308100 0.48870200
vt 0.28308100 0.48870200
vt 0.23625000 0.48870200
vt 0.28308100 0.66241600
vt 0.23625000 0.66241600
vt 0.23625000 0.66241600
vt 0.90194500 0.17521200
vt 0.85511400 0.17521200
vt 0.90194500 0.52078500
vt 0.85511400 0.52078500
vt 0.90194500 0.26160500
vt 0.90194500 0.34799800
vt 0.90194500 0.43439100
vt 0.85511400 0.47758800
vt 0.85511400 0.43439100
vt 0.85511400 0.39119500
vt 0.85511400 0.34799800
vt 0.85511400 0.26160500
vt 0.75705900 0.20376600
vt 0.71022900 0.20376600
vt 0.75705900 0.48256800
vt 0.71022900 0.48256800
vt 0.75705900 0.27346600
vt 0.75705900 0.34316700
vt 0.75705900 0.41286700
vt 0.71022900 0.41257600
vt 0.71022900 0.34278000
vt 0.71022900 0.27317600
f 5/5/5 1/1/1 6/6/6
f 2/2/2 4/4/4 7/7/7
f 7/7/7 3/3/3 5/5/5
f 5/5/5 6/6/6 7/7/7
f 12/12/12 11/11/11 8/8/8
f 10/10/10 9/9/9 12/12/12
f 13/13/13 32/32/32 34/34/34
f 20/20/20 19/19/19 32/32/32
f 14/14/14 20/20/20 32/32/32
f 34/34/34 30/30/30 35/35/35
f 35/35/35 29/29/29 36/36/36
f 52/52/52 31/31/31 19/19/19
f 53/53/53 52/52/52 61/61/61
f 61/61/61 52/52/52 19/19/19
f 51/51/51 41/41/41 18/18/18
f 50/50/50 41/41/41 51/51/51
f 59/59/59 54/54/54 60/60/60
f 41/41/41 50/50/50 42/42/42
f 53/53/53 61/61/61 60/60/60
f 50/50/50 49/49/49 42/42/42
f 43/43/43 42/42/42 49/49/49
f 48/48/48 43/43/43 49/49/49
f 53/53/53 60/60/60 54/54/54
f 36/36/36 28/28/28 37/37/37
f 37/37/37 27/27/27 38/38/38
f 38/38/38 26/26/26 39/39/39
f 59/59/59 55/55/55 54/54/54
f 33/33/33 16/16/16 40/40/40
f 24/24/24 33/33/33 40/40/40
f 24/24/24 40/40/40 25/25/25
f 33/33/33 24/24/24 23/23/23
f 59/59/59 44/44/44 55/55/55
f 56/56/56 55/55/55 44/44/44
f 57/57/57 44/44/44 46/46/46
f 43/43/43 48/48/48 47/47/47
f 44/44/44 47/47/47 46/46/46
f 57/57/57 56/56/56 44/44/44
f 45/45/45 58/58/58 46/46/46
f 21/21/21 58/58/58 22/22/22
f 17/17/17 22/22/22 45/45/45
f 58/58/58 45/45/45 22/22/22
f 57/57/57 46/46/46 58/58/58
f 67/67/67 66/66/66 62/62/62
f 63/63/63 66/66/66 68/68/68
f 68/68/68 67/67/67 64/64/64
f 67/67/67 68/68/68 66/66/66
f 72/72/72 69/69/69 73/73/73
f 71/71/71 72/72/72 70/70/70
f 74/74/74 97/97/97 114/114/114
f 82/82/82 75/75/75 113/113/113
f 81/81/81 83/83/83 114/114/114
f 113/113/113 115/115/115 126/126/126
f 97/97/97 98/98/98 112/112/112
f 98/98/98 99/99/99 111/111/111
f 116/116/116 125/125/125 115/115/115
f 99/99/99 100/100/100 110/110/110
f 117/117/117 123/123/123 116/116/116
f 113/113/113 126/126/126 80/80/80
f 92/92/92 76/76/76 79/79/79
f 91/91/91 92/92/92 93/93/93
f 116/116/116 124/124/124 125/125/125
f 116/116/116 123/123/123 124/124/124
f 90/90/90 91/91/91 94/94/94
f 94/94/94 91/91/91 93/93/93
f 122/122/122 123/123/123 117/117/117
f 125/125/125 126/126/126 115/115/115
f 100/100/100 101/101/101 109/109/109
f 101/101/101 102/102/102 108/108/108
f 122/122/122 117/117/117 118/118/118
f 104/104/104 103/103/103 77/77/77
f 106/106/106 103/103/103 104/104/104
f 106/106/106 107/107/107 103/103/103
f 104/104/104 105/105/105 106/106/106
f 94/94/94 95/95/95 90/90/90
f 119/119/119 96/96/96 118/118/118
f 96/96/96 122/122/122 118/118/118
f 88/88/88 89/89/89 95/95/95
f 87/87/87 88/88/88 96/96/96
f 96/96/96 119/119/119 120/120/120
f 121/121/121 86/86/86 120/120/120
f 84/84/84 85/85/85 121/121/121
f 86/86/86 87/87/87 120/120/120
f 86/86/86 85/85/85 78/78/78
f 86/86/86 121/121/121 85/85/85
f 96/96/96 120/120/120 87/87/87
f 132/132/132 128/128/128 131/131/131
f 131/131/131 129/129/129 132/132/132
f 134/134/134 133/133/133 137/137/137
f 135/135/135 136/136/136 138/138/138
f 139/139/139 143/143/143 144/144/144
f 142/142/142 144/144/144 143/143/143
f 145/145/145 149/149/149 146/146/146
f 150/150/150 151/151/151 161/161/161
f 149/149/149 150/150/150 162/162/162
f 159/159/159 160/160/160 152/152/152
f 153/153/153 154/154/154 158/158/158
f 155/155/155 147/147/147 156/156/156
f 154/154/154 155/155/155 157/157/157
f 158/158/158 159/159/159 153/153/153
f 170/170/170 164/164/164 163/163/163
f 168/168/168 165/165/165 166/166/166
f 171/171/171 175/175/175 188/188/188
f 176/176/176 177/177/177 187/187/187
f 175/175/175 176/176/176 188/188/188
f 185/185/185 186/186/186 178/178/178
f 179/179/179 180/180/180 183/183/183
f 173/173/173 174/174/174 181/181/181
f 180/180/180 181/181/181 182/182/182
f 184/184/184 185/185/185 178/178/178
f 189/189/189 193/193/193 190/190/190
f 194/194/194 195/195/195 205/205/205
f 193/193/193 194/194/194 206/206/206
f 203/203/203 204/204/204 196/196/196
f 197/197/197 198/198/198 202/202/202
f 199/199/199 191/191/191 200/200/200
f 198/198/198 199/199/199 201/201/201
f 202/202/202 203/203/203 197/197/197
f 209/209/209 207/207/207 214/214/214
f 211/211/211 212/212/212 215/215/215
f 217/217/217 221/221/221 234/234/234
f 222/222/222 223/223/223 232/232/232
f 221/221/221 222/222/222 233/233/233
f 231/231/231 232/232/232 223/223/223
f 224/224/224 225/225/225 230/230/230
f 226/226/226 227/227/227 228/228/228
f 225/225/225 226/226/226 229/229/229
f 220/220/220 228/228/228 227/227/227
f 236/236/236 235/235/235 237/237/237
f 240/240/240 239/239/239 241/241/241
f 245/245/245 244/244/244 248/248/248
f 249/249/249 253/253/253 250/250/250
f 253/253/253 254/254/254 259/259/259
f 259/259/259 254/254/254 258/258/258
f 255/255/255 257/257/257 258/258/258
f 254/254/254 255/255/255 258/258/258
f 255/255/255 251/251/251 256/256/256
f 255/255/255 256/256/256 257/257/257
f 261/261/261 265/265/265 270/270/270
f 269/269/269 270/270/270 265/265/265
f 266/266/266 267/267/267 268/268/268
f 264/264/264 268/268/268 267/267/267
f 2/2/2 7/7/7 6/6/6
f 9/9/9 11/11/11 12/12/12
f 32/32/32 30/30/30 34/34/34
f 30/30/30 29/29/29 35/35/35
f 29/29/29 28/28/28 36/36/36
f 51/51/51 18/18/18 15/15/15
f 28/28/28 27/27/27 37/37/37
f 27/27/27 26/26/26 38/38/38
f 26/26/26 25/25/25 39/39/39
f 40/40/40 39/39/39 25/25/25
f 43/43/43 47/47/47 44/44/44
f 63/63/63 68/68/68 65/65/65
f 72/72/72 73/73/73 70/70/70
f 97/97/97 112/112/112 114/114/114
f 98/98/98 111/111/111 112/112/112
f 99/99/99 110/110/110 111/111/111
f 100/100/100 109/109/109 110/110/110
f 92/92/92 79/79/79 93/93/93
f 101/101/101 108/108/108 109/109/109
f 102/102/102 107/107/107 108/108/108
f 107/107/107 102/102/102 103/103/103
f 95/95/95 89/89/89 90/90/90
f 88/88/88 95/95/95 96/96/96
f 128/128/128 127/127/127 131/131/131
f 129/129/129 130/130/130 132/132/132
f 134/134/134 137/137/137 138/138/138
f 135/135/135 138/138/138 137/137/137
f 139/139/139 144/144/144 140/140/140
f 142/142/142 143/143/143 141/141/141
f 149/149/149 162/162/162 146/146/146
f 151/151/151 160/160/160 161/161/161
f 150/150/150 161/161/161 162/162/162
f 160/160/160 151/151/151 152/152/152
f 154/154/154 157/157/157 158/158/158
f 147/147/147 148/148/148 156/156/156
f 155/155/155 156/156/156 157/157/157
f 159/159/159 152/152/152 153/153/153
f 170/170/170 163/163/163 167/167/167
f 168/168/168 166/166/166 169/169/169
f 171/171/171 188/188/188 172/172/172
f 177/177/177 186/186/186 187/187/187
f 176/176/176 187/187/187 188/188/188
f 186/186/186 177/177/177 178/178/178
f 179/179/179 183/183/183 184/184/184
f 174/174/174 182/182/182 181/181/181
f 180/180/180 182/182/182 183/183/183
f 184/184/184 178/178/178 179/179/179
f 193/193/193 206/206/206 190/190/190
f 195/195/195 204/204/204 205/205/205
f 194/194/194 205/205/205 206/206/206
f 204/204/204 195/195/195 196/196/196
f 198/198/198 201/201/201 202/202/202
f 191/191/191 192/192/192 200/200/200
f 199/199/199 200/200/200 201/201/201
f 203/203/203 196/196/196 197/197/197
f 208/208/208 213/213/213 215/215/215
f 210/210/210 216/216/216 214/214/214
f 217/217/217 234/234/234 218/218/218
f 222/222/222 232/232/232 233/233/233
f 221/221/221 233/233/233 234/234/234
f 231/231/231 223/223/223 224/224/224
f 224/224/224 230/230/230 231/231/231
f 226/226/226 228/228/228 229/229/229
f 225/225/225 229/229/229 230/230/230
f 220/220/220 227/227/227 219/219/219
f 236/236/236 237/237/237 238/238/238
f 240/240/240 241/241/241 242/242/242
f 243/243/243 246/246/246 247/247/247
f 253/253/253 260/260/260 250/250/250
f 253/253/253 259/259/259 260/260/260
f 251/251/251 252/252/252 256/256/256
f 261/261/261 270/270/270 262/262/262
f 269/269/269 265/265/265 266/266/266
f 266/266/266 268/268/268 269/269/269
f 264/264/264 267/267/267 263/263/263

