mtllib material.mtl
usemtl Material-7011塑胶.002
v 0.37230100 -0.01275300 0.03536100
v 0.37230100 -0.01275300 0.03536100
v 0.37230100 -0.01275300 0.03536100
v 0.37278700 -0.02508100 0.03620600
v 0.37278700 -0.02508100 0.03620600
v 0.37278700 -0.02508100 0.03620600
v 0.37278700 -0.02508100 0.03620600
v 0.37346800 -0.02111400 0.03736900
v 0.37346800 -0.02111400 0.03736900
v 0.37343200 -0.02283800 0.03704100
v 0.37347700 -0.01280400 0.03737800
v 0.37080000 -0.01232200 0.03278500
v 0.37080000 -0.01232200 0.03278500
v 0.37080000 -0.01232200 0.03278500
v 0.37080000 -0.01232200 0.03278500
v 0.37070400 -0.02906700 0.03263600
v 0.37070400 -0.02906700 0.03263600
v 0.37070400 -0.02906700 0.03263600
v 0.37199700 -0.02707900 0.03485100
v 0.37199700 -0.02707900 0.03485100
v 0.36905600 -0.01128600 0.02979600
v 0.36905600 -0.01128600 0.02979600
v 0.36598100 -0.00612600 0.02451900
v 0.36596300 -0.03362500 0.02451000
v 0.36733000 -0.00914900 0.02683400
v 0.37278300 0.02515000 0.03615600
v 0.37278300 0.02515000 0.03615600
v 0.37278300 0.02515000 0.03615600
v 0.37247600 0.01271200 0.03564000
v 0.37247600 0.01271200 0.03564000
v 0.37247600 0.01271200 0.03564000
v 0.37348600 0.02115700 0.03736600
v 0.37072200 0.02907500 0.03261800
v 0.36600700 0.03360800 0.02453200
v 0.36600700 0.03360800 0.02453200
v 0.36600700 0.03360800 0.02453200
v 0.37161400 0.02780300 0.03415100
v 0.37161400 0.02780300 0.03415100
v 0.37161400 0.02780300 0.03415100
v 0.37161400 0.02780300 0.03415100
v 0.37161400 0.02780300 0.03415100
v 0.37348800 0.01273700 0.03737800
v 0.37216300 0.02675500 0.03509400
v 0.37095600 0.01246100 0.03303500
v 0.37095600 0.01246100 0.03303500
v 0.36734000 0.00915000 0.02683700
v 0.36734000 0.00915000 0.02683700
v 0.36906700 0.01128400 0.02979700
v 0.36906700 0.01128400 0.02979700
v 0.36598900 0.00613100 0.02452300
v 0.37107700 0.01119500 0.02927300
v 0.37070200 0.01179800 0.03131600
v 0.36913100 0.01039000 0.02857000
v 0.37247600 0.01271200 0.03564000
v 0.37302500 0.01243300 0.03261300
v 0.37472600 0.01275100 0.03553000
v 0.37579000 0.01268300 0.03736800
v 0.37348800 0.01273700 0.03737800
v 0.37184200 0.01243300 0.03351800
v 0.36919700 0.00889900 0.02605200
v 0.36827500 0.00679900 0.02447100
v 0.36725500 0.00706300 0.02527200
v 0.36644500 0.00476000 0.02405200
v 0.36746200 0.00413300 0.02310700
v 0.36772000 0.00838800 0.02630400
v 0.36719500 0.00064200 0.02266200
v 0.36746200 0.00413300 0.02310700
v 0.36642100 0.00340700 0.02361200
v 0.36644500 0.00476000 0.02405200
v 0.36645700 0.00106900 0.02326300
v 0.36644200 -0.00097700 0.02325000
v 0.36741100 -0.00404800 0.02299900
v 0.36635200 -0.00400000 0.02374000
v 0.36835400 -0.00712600 0.02461800
v 0.36741100 -0.00404800 0.02299900
v 0.36705700 -0.00691900 0.02514500
v 0.36635200 -0.00400000 0.02374000
v 0.37006200 -0.01018200 0.02755100
v 0.36912500 -0.00880700 0.02594300
v 0.36772200 -0.00866500 0.02650500
v 0.37109100 -0.01126800 0.02931600
v 0.36887700 -0.01029900 0.02843300
v 0.37271400 -0.01239100 0.03209900
v 0.36993700 -0.01138800 0.03025700
v 0.37080000 -0.01232200 0.03278500
v 0.37460200 -0.01281700 0.03533800
v 0.37230100 -0.01275300 0.03536100
v 0.37347700 -0.01280400 0.03737800
v 0.37577200 -0.01275200 0.03736600
v 0.36019200 -0.03720400 0.01790800
v 0.36226900 -0.03691000 0.01863400
v 0.36065100 -0.03711200 0.01874700
v 0.36163400 0.03695200 0.01836900
v 0.36020500 0.03703800 0.01792800
v 0.36071800 0.03703700 0.01886900
v 0.36163400 0.03695200 0.01836900
v 0.36071800 0.03703700 0.01886900
v 0.36355200 0.03642100 0.01929300
v 0.37460200 -0.01281700 0.03533800
v 0.37460200 -0.01281700 0.03533800
v 0.37460200 -0.01281700 0.03533800
v 0.37460200 -0.01281700 0.03533800
v 0.37533400 -0.02378300 0.03660100
v 0.37533400 -0.02378300 0.03660100
v 0.37483500 -0.02547600 0.03574900
v 0.37483500 -0.02547600 0.03574900
v 0.37390500 -0.02738200 0.03415400
v 0.37390500 -0.02738200 0.03415400
v 0.37305000 -0.02860600 0.03268900
v 0.37305000 -0.02860600 0.03268900
v 0.37305000 -0.02860600 0.03268900
v 0.37271400 -0.01239100 0.03209900
v 0.37271400 -0.01239100 0.03209900
v 0.37576800 -0.02112800 0.03735200
v 0.37577200 -0.01275200 0.03736600
v 0.37109100 -0.01126800 0.02931600
v 0.37109100 -0.01126800 0.02931600
v 0.37006200 -0.01018200 0.02755100
v 0.37006200 -0.01018200 0.02755100
v 0.36835400 -0.00712600 0.02461800
v 0.36835400 -0.00712600 0.02461800
v 0.36741100 -0.00404800 0.02299900
v 0.36741100 -0.00404800 0.02299900
v 0.36769100 -0.03380600 0.02350200
v 0.36912500 -0.00880700 0.02594300
v 0.36546100 -0.03120700 0.02075600
v 0.36472600 -0.03584500 0.02013300
v 0.36451100 -0.01260000 0.01997200
v 0.36626400 -0.03128300 0.02156500
v 0.36630100 0.03084700 0.02158100
v 0.36719500 0.00064200 0.02266200
v 0.36741100 -0.00404800 0.02299900
v 0.36452700 0.01221300 0.01998000
v 0.36449600 0.03403000 0.01995000
v 0.36339300 -0.03271300 0.01922300
v 0.36242900 -0.01296900 0.01873100
v 0.36226900 -0.03691000 0.01863400
v 0.36130600 -0.02497800 0.01826600
v 0.36019200 -0.03720400 0.01790800
v 0.36244300 0.01285900 0.01873800
v 0.36163400 0.03695200 0.01836900
v 0.36355200 0.03642100 0.01929300
v 0.36769100 -0.03380600 0.02350200
v 0.36773500 0.03378900 0.02352400
v 0.36746200 0.00413300 0.02310700
v 0.36550200 0.03082200 0.02077700
v 0.36020900 -0.01709100 0.01794000
v 0.36021100 0.01434000 0.01794400
v 0.36020500 0.03703800 0.01792800
v 0.37579800 0.02077700 0.03736500
v 0.37579800 0.02077700 0.03736500
v 0.37579800 0.02077700 0.03736500
v 0.37579000 0.01268300 0.03736800
v 0.37472600 0.01275100 0.03553000
v 0.37472600 0.01275100 0.03553000
v 0.37263700 0.02905400 0.03193400
v 0.37263700 0.02905400 0.03193400
v 0.37263700 0.02905400 0.03193400
v 0.37302500 0.01243300 0.03261300
v 0.37302500 0.01243300 0.03261300
v 0.37302500 0.01243300 0.03261300
v 0.37302500 0.01243300 0.03261300
v 0.37302500 0.01243300 0.03261300
v 0.37107700 0.01119500 0.02927300
v 0.37107700 0.01119500 0.02927300
v 0.37553300 0.02295500 0.03691000
v 0.37553300 0.02295500 0.03691000
v 0.36773500 0.03378900 0.02352400
v 0.36773500 0.03378900 0.02352400
v 0.36827500 0.00679900 0.02447100
v 0.36746200 0.00413300 0.02310700
v 0.36919700 0.00889900 0.02605200
v 0.36919700 0.00889900 0.02605200
v 0.36919700 0.00889900 0.02605200
v 0.37485600 0.02548500 0.03574200
v 0.37485600 0.02548500 0.03574200
v 0.37393000 0.02737700 0.03415400
v 0.37393000 0.02737700 0.03415400
v 0.37331800 0.02828200 0.03310300
v 0.36478700 -0.00096000 0.02288500
v 0.36517600 -0.02155600 0.02336300
v 0.36515500 -0.00321600 0.02332300
v 0.36411700 -0.01417300 0.02223300
v 0.36484000 0.00130200 0.02293900
v 0.36413600 0.01508300 0.02224300
v 0.36520700 0.02245800 0.02338100
v 0.36515900 0.00321500 0.02332400
v 0.36293200 -0.02148800 0.02130700
v 0.36261000 -0.03573600 0.02108500
v 0.36410800 -0.02880100 0.02222900
v 0.36295200 0.00777100 0.02131700
v 0.36294200 -0.00686000 0.02131200
v 0.36596300 -0.03362500 0.02451000
v 0.36598100 -0.00612600 0.02451900
v 0.36598900 0.00613100 0.02452300
v 0.36600700 0.03360800 0.02453200
v 0.36414600 0.02971100 0.02224800
v 0.36165500 -0.01400500 0.02057900
v 0.36165300 -0.03611700 0.02057500
v 0.36165300 0.01404600 0.02057600
v 0.36268600 0.03570000 0.02113400
v 0.36296100 0.02239500 0.02132100
v 0.36163900 0.03613100 0.02054900
v 0.37343200 -0.02283800 0.03704100
v 0.37576800 -0.02112800 0.03735200
v 0.37346800 -0.02111400 0.03736900
v 0.37533400 -0.02378300 0.03660100
v 0.37278700 -0.02508100 0.03620600
v 0.37483500 -0.02547600 0.03574900
v 0.37390500 -0.02738200 0.03415400
v 0.37199700 -0.02707900 0.03485100
v 0.37070400 -0.02906700 0.03263600
v 0.37305000 -0.02860600 0.03268900
v 0.36472600 -0.03584500 0.02013300
v 0.36472600 -0.03584500 0.02013300
v 0.36769100 -0.03380600 0.02350200
v 0.36596300 -0.03362500 0.02451000
v 0.36261000 -0.03573600 0.02108500
v 0.36261000 -0.03573600 0.02108500
v 0.37070400 -0.02906700 0.03263600
v 0.37305000 -0.02860600 0.03268900
v 0.36226900 -0.03691000 0.01863400
v 0.36226900 -0.03691000 0.01863400
v 0.36065100 -0.03711200 0.01874700
v 0.36165300 -0.03611700 0.02057500
v 0.37348600 0.02115700 0.03736600
v 0.37579000 0.01268300 0.03736800
v 0.37579800 0.02077700 0.03736500
v 0.37348800 0.01273700 0.03737800
v 0.37577200 -0.01275200 0.03736600
v 0.37347700 -0.01280400 0.03737800
v 0.37346800 -0.02111400 0.03736900
v 0.37576800 -0.02112800 0.03735200
v 0.36094600 0.02881500 0.01928500
v 0.36094600 0.02881500 0.01928500
v 0.36094600 0.02881500 0.01928500
v 0.36094600 0.02881500 0.01928500
v 0.36094600 0.02881500 0.01928500
v 0.36071800 0.03703700 0.01886900
v 0.36071800 0.03703700 0.01886900
v 0.36020500 0.03703800 0.01792800
v 0.36021100 0.01434000 0.01794400
v 0.36021100 0.01434000 0.01794400
v 0.36020900 -0.01709100 0.01794000
v 0.36094900 -0.00056700 0.01929100
v 0.36094900 -0.00056700 0.01929100
v 0.36094900 -0.00056700 0.01929100
v 0.36019200 -0.03720400 0.01790800
v 0.36019200 -0.03720400 0.01790800
v 0.36093000 -0.02703800 0.01925500
v 0.36093000 -0.02703800 0.01925500
v 0.36093000 -0.02703800 0.01925500
v 0.36065100 -0.03711200 0.01874700
v 0.36165300 0.01404600 0.02057600
v 0.36165300 0.01404600 0.02057600
v 0.36165300 0.01404600 0.02057600
v 0.36163900 0.03613100 0.02054900
v 0.36163900 0.03613100 0.02054900
v 0.36165500 -0.01400500 0.02057900
v 0.36165500 -0.01400500 0.02057900
v 0.36165500 -0.01400500 0.02057900
v 0.36165300 -0.03611700 0.02057500
v 0.36165300 -0.03611700 0.02057500
v 0.37184200 0.01243300 0.03351800
v 0.37247600 0.01271200 0.03564000
v 0.37095600 0.01246100 0.03303500
v 0.37070200 0.01179800 0.03131600
v 0.36906700 0.01128400 0.02979700
v 0.36913100 0.01039000 0.02857000
v 0.36734000 0.00915000 0.02683700
v 0.36772000 0.00838800 0.02630400
v 0.36725500 0.00706300 0.02527200
v 0.36598900 0.00613100 0.02452300
v 0.36644500 0.00476000 0.02405200
v 0.36515900 0.00321500 0.02332400
v 0.36642100 0.00340700 0.02361200
v 0.36484000 0.00130200 0.02293900
v 0.36645700 0.00106900 0.02326300
v 0.36478700 -0.00096000 0.02288500
v 0.36733000 -0.00914900 0.02683400
v 0.36887700 -0.01029900 0.02843300
v 0.36772200 -0.00866500 0.02650500
v 0.36905600 -0.01128600 0.02979600
v 0.36705700 -0.00691900 0.02514500
v 0.36598100 -0.00612600 0.02451900
v 0.36993700 -0.01138800 0.03025700
v 0.37080000 -0.01232200 0.03278500
v 0.36644200 -0.00097700 0.02325000
v 0.36635200 -0.00400000 0.02374000
v 0.36515500 -0.00321600 0.02332300
v 0.37579800 0.02077700 0.03736500
v 0.37553300 0.02295500 0.03691000
v 0.37348600 0.02115700 0.03736600
v 0.37485600 0.02548500 0.03574200
v 0.37326500 0.02307500 0.03698600
v 0.37278300 0.02515000 0.03615600
v 0.37393000 0.02737700 0.03415400
v 0.37331800 0.02828200 0.03310300
v 0.37216300 0.02675500 0.03509400
v 0.37161400 0.02780300 0.03415100
v 0.37263700 0.02905400 0.03193400
v 0.37072200 0.02907500 0.03261800
v 0.36268600 0.03570000 0.02113400
v 0.36355200 0.03642100 0.01929300
v 0.36355200 0.03642100 0.01929300
v 0.36355200 0.03642100 0.01929300
v 0.36163900 0.03613100 0.02054900
v 0.36071800 0.03703700 0.01886900
v 0.37263700 0.02905400 0.03193400
v 0.36773500 0.03378900 0.02352400
v 0.37072200 0.02907500 0.03261800
v 0.36600700 0.03360800 0.02453200
v 0.37326500 0.02307500 0.03698600
vn -0.86380000 0.00040000 0.50380000
vn -0.86400000 0.00040000 0.50340000
vn -0.86380000 0.00030000 0.50380000
vn -0.86380000 0.00040000 0.50380000
vn -0.86410000 0.00040000 0.50340000
vn -0.86390000 0.00040000 0.50370000
vn -0.86400000 0.00040000 0.50340000
vn -0.86380000 0.00040000 0.50380000
vn -0.86380000 0.00030000 0.50380000
vn -0.86390000 0.00040000 0.50370000
vn -0.86380000 0.00030000 0.50380000
vn -0.86410000 0.00040000 0.50340000
vn -0.86370000 0.00050000 0.50410000
vn -0.86380000 0.00050000 0.50380000
vn -0.86400000 0.00040000 0.50340000
vn -0.86370000 0.00050000 0.50410000
vn -0.86380000 0.00050000 0.50380000
vn -0.86390000 0.00040000 0.50370000
vn -0.86380000 0.00050000 0.50380000
vn -0.86410000 0.00040000 0.50340000
vn -0.86370000 0.00050000 0.50410000
vn -0.86390000 0.00040000 0.50370000
vn -0.86390000 0.00040000 0.50370000
vn -0.86390000 0.00040000 0.50370000
vn -0.86390000 0.00040000 0.50370000
vn -0.86390000 0.00040000 0.50370000
vn -0.86380000 0.00070000 0.50380000
vn -0.86370000 0.00040000 0.50400000
vn -0.86380000 0.00040000 0.50380000
vn -0.86370000 0.00040000 0.50400000
vn -0.86390000 0.00040000 0.50370000
vn -0.86390000 0.00040000 0.50370000
vn -0.86380000 0.00030000 0.50380000
vn -0.86380000 0.00030000 0.50380000
vn -0.86390000 0.00040000 0.50370000
vn -0.86380000 0.00040000 0.50370000
vn -0.86380000 0.00040000 0.50380000
vn -0.86380000 0.00070000 0.50380000
vn -0.86390000 0.00040000 0.50370000
vn -0.86380000 0.00030000 0.50380000
vn -0.86370000 0.00040000 0.50400000
vn -0.86390000 0.00040000 0.50370000
vn -0.86380000 0.00070000 0.50380000
vn -0.86390000 0.00040000 0.50370000
vn -0.86380000 0.00040000 0.50380000
vn -0.86390000 0.00040000 0.50370000
vn -0.86380000 0.00040000 0.50370000
vn -0.86390000 0.00040000 0.50370000
vn -0.86380000 0.00040000 0.50370000
vn -0.86390000 0.00040000 0.50370000
vn 0.20570000 -0.91260000 0.35340000
vn 0.16030000 -0.94780000 0.27580000
vn 0.25370000 -0.86360000 0.43570000
vn 0.03480000 -0.99760000 0.06070000
vn 0.09680000 -0.98120000 0.16670000
vn 0.00740000 -0.99990000 0.01370000
vn -0.04840000 -0.99540000 -0.08220000
vn -0.01810000 -0.99940000 -0.03020000
vn 0.09220000 -0.98300000 0.15880000
vn 0.32170000 -0.76900000 0.55240000
vn 0.40950000 -0.58170000 0.70280000
vn 0.40600000 -0.59150000 0.69660000
vn 0.44820000 -0.45640000 0.76870000
vn 0.45870000 -0.41290000 0.78680000
vn 0.34320000 -0.73150000 0.58920000
vn 0.57680000 -0.03240000 0.81620000
vn 0.51210000 -0.30600000 0.80260000
vn 0.54450000 -0.16270000 0.82280000
vn 0.47160000 -0.41190000 0.77970000
vn 0.57190000 -0.05480000 0.81850000
vn 0.57350000 0.04550000 0.81790000
vn 0.52950000 0.24150000 0.81320000
vn 0.52920000 0.22840000 0.81720000
vn 0.40780000 0.58770000 0.69880000
vn 0.46410000 0.38800000 0.79630000
vn 0.40860000 0.58660000 0.69920000
vn 0.46490000 0.38320000 0.79810000
vn 0.26810000 0.84700000 0.45900000
vn 0.33030000 0.75540000 0.56600000
vn 0.33450000 0.74810000 0.57320000
vn 0.20490000 0.91380000 0.35070000
vn 0.26230000 0.85410000 0.44910000
vn 0.11260000 0.97480000 0.19260000
vn 0.19760000 0.92010000 0.33820000
vn 0.12270000 0.97000000 0.21000000
vn 0.01320000 0.99970000 0.02190000
vn 0.04330000 0.99640000 0.07340000
vn -0.01820000 0.99930000 -0.03190000
vn -0.04840000 0.99530000 -0.08380000
vn 0.10540000 -0.99410000 0.02400000
vn 0.17890000 -0.98050000 0.08180000
vn 0.12390000 -0.99160000 0.03850000
vn 0.21520000 0.97340000 0.07800000
vn -0.05180000 0.99850000 -0.01910000
vn 0.03550000 0.99930000 0.01250000
vn 0.17170000 0.98280000 0.06740000
vn 0.14140000 0.98900000 0.04260000
vn 0.28890000 0.94470000 0.15510000
vn 0.86390000 -0.00040000 -0.50370000
vn 0.86400000 -0.00040000 -0.50350000
vn 0.86380000 -0.00040000 -0.50380000
vn 0.86370000 -0.00050000 -0.50410000
vn 0.86370000 -0.00050000 -0.50410000
vn 0.86390000 -0.00040000 -0.50370000
vn 0.86370000 -0.00050000 -0.50410000
vn 0.86400000 -0.00040000 -0.50350000
vn 0.86400000 -0.00040000 -0.50350000
vn 0.86380000 -0.00040000 -0.50380000
vn 0.86380000 -0.00040000 -0.50380000
vn 0.86400000 -0.00030000 -0.50360000
vn 0.86390000 -0.00040000 -0.50370000
vn 0.86380000 -0.00040000 -0.50380000
vn 0.86390000 -0.00040000 -0.50370000
vn 0.86390000 -0.00040000 -0.50370000
vn 0.86390000 -0.00040000 -0.50370000
vn 0.86390000 -0.00040000 -0.50370000
vn 0.86380000 -0.00040000 -0.50380000
vn 0.86380000 -0.00040000 -0.50380000
vn 0.86390000 -0.00040000 -0.50370000
vn 0.86390000 -0.00040000 -0.50370000
vn 0.86400000 -0.00030000 -0.50360000
vn 0.86390000 -0.00040000 -0.50370000
vn 0.86400000 -0.00030000 -0.50360000
vn 0.86390000 -0.00040000 -0.50370000
vn 0.86390000 -0.00040000 -0.50370000
vn 0.67330000 -0.00020000 -0.73940000
vn 0.61300000 -0.00010000 -0.79010000
vn 0.59450000 -0.00010000 -0.80410000
vn 0.74040000 -0.00030000 -0.67220000
vn 0.74010000 -0.00030000 -0.67250000
vn 0.81590000 -0.00030000 -0.57820000
vn 0.83580000 -0.00040000 -0.54910000
vn 0.59450000 -0.00010000 -0.80410000
vn 0.59060000 -0.00010000 -0.80700000
vn 0.50440000 -0.00000000 -0.86350000
vn 0.42580000 0.00010000 -0.90480000
vn 0.41350000 -0.00000000 -0.91050000
vn 0.33480000 0.00010000 -0.94230000
vn 0.24310000 0.00020000 -0.97000000
vn 0.42570000 -0.00070000 -0.90490000
vn 0.35780000 -0.00010000 -0.93380000
vn 0.51290000 -0.00000000 -0.85850000
vn 0.86390000 -0.00040000 -0.50370000
vn 0.86390000 -0.00040000 -0.50370000
vn 0.84170000 -0.00040000 -0.53990000
vn 0.67330000 -0.00020000 -0.73940000
vn 0.24350000 0.00020000 -0.96990000
vn 0.24200000 0.00020000 -0.97030000
vn 0.24020000 0.00020000 -0.97070000
vn 0.86400000 -0.00040000 -0.50350000
vn 0.86390000 -0.00040000 -0.50370000
vn 0.86390000 -0.00020000 -0.50370000
vn 0.86390000 -0.00040000 -0.50370000
vn 0.86390000 -0.00020000 -0.50370000
vn 0.86390000 -0.00040000 -0.50370000
vn 0.86380000 -0.00040000 -0.50370000
vn 0.86390000 -0.00040000 -0.50370000
vn 0.86380000 -0.00040000 -0.50380000
vn 0.86390000 -0.00040000 -0.50360000
vn 0.86380000 -0.00040000 -0.50380000
vn 0.86390000 -0.00020000 -0.50370000
vn 0.86390000 -0.00040000 -0.50370000
vn 0.86400000 -0.00040000 -0.50350000
vn 0.86390000 -0.00040000 -0.50370000
vn 0.86380000 -0.00040000 -0.50380000
vn 0.86390000 -0.00040000 -0.50370000
vn 0.86400000 -0.00040000 -0.50350000
vn 0.86380000 -0.00040000 -0.50380000
vn 0.86380000 -0.00040000 -0.50370000
vn 0.86380000 -0.00040000 -0.50380000
vn 0.86380000 -0.00040000 -0.50380000
vn 0.86380000 -0.00040000 -0.50380000
vn 0.86390000 -0.00040000 -0.50370000
vn 0.86380000 -0.00040000 -0.50370000
vn 0.86390000 -0.00040000 -0.50360000
vn 0.86390000 -0.00040000 -0.50370000
vn 0.86390000 -0.00040000 -0.50370000
vn 0.86390000 -0.00040000 -0.50360000
vn 0.86390000 -0.00040000 -0.50370000
vn -0.73730000 0.00030000 0.67550000
vn -0.77960000 0.00030000 0.62630000
vn -0.77590000 0.00030000 0.63090000
vn -0.67250000 0.00020000 0.74010000
vn -0.74250000 0.00030000 0.66980000
vn -0.67250000 0.00020000 0.74010000
vn -0.77990000 0.00030000 0.62590000
vn -0.77580000 0.00030000 0.63100000
vn -0.55730000 0.00010000 0.83030000
vn -0.52620000 0.00010000 0.85040000
vn -0.67250000 0.00020000 0.74010000
vn -0.55740000 0.00010000 0.83020000
vn -0.55730000 0.00020000 0.83030000
vn -0.86430000 0.00040000 0.50310000
vn -0.86430000 0.00040000 0.50300000
vn -0.86430000 0.00040000 0.50310000
vn -0.86430000 0.00040000 0.50300000
vn -0.67250000 0.00020000 0.74010000
vn -0.43330000 -0.00000000 0.90130000
vn -0.43430000 -0.00000000 0.90080000
vn -0.43120000 -0.00000000 0.90230000
vn -0.52940000 0.00010000 0.84840000
vn -0.55740000 0.00010000 0.83030000
vn -0.42770000 -0.00000000 0.90390000
vn 0.04890000 -0.26180000 0.96390000
vn 0.02480000 -0.12850000 0.99140000
vn 0.01540000 -0.08220000 0.99650000
vn 0.07540000 -0.39690000 0.91480000
vn 0.08900000 -0.48300000 0.87110000
vn 0.10570000 -0.56220000 0.82020000
vn 0.13800000 -0.74630000 0.65110000
vn 0.12300000 -0.67750000 0.72520000
vn 0.15300000 -0.86100000 0.48510000
vn 0.15630000 -0.85660000 0.49170000
vn 0.14180000 -0.89850000 0.41540000
vn 0.14210000 -0.89840000 0.41550000
vn 0.14880000 -0.89750000 0.41520000
vn 0.14660000 -0.89830000 0.41430000
vn 0.13900000 -0.89950000 0.41420000
vn 0.13900000 -0.89960000 0.41410000
vn 0.15950000 -0.89660000 0.41310000
vn 0.16350000 -0.89550000 0.41390000
vn 0.13690000 -0.89950000 0.41490000
vn 0.13690000 -0.89950000 0.41500000
vn 0.13440000 -0.90020000 0.41420000
vn 0.13710000 -0.89990000 0.41400000
vn 0.00000000 0.00000000 1.00000000
vn 0.00000000 0.00000000 1.00000000
vn 0.00000000 0.00000000 1.00000000
vn 0.00000000 0.00000000 1.00000000
vn 0.00000000 0.00000000 1.00000000
vn 0.00000000 0.00000000 1.00000000
vn 0.00000000 0.00000000 1.00000000
vn 0.00000000 0.00000000 1.00000000
vn -0.87690000 -0.00000000 0.48070000
vn -0.87700000 0.00000000 0.48050000
vn -0.87680000 0.00010000 0.48080000
vn -0.87670000 0.00000000 0.48100000
vn -0.87710000 -0.00000000 0.48030000
vn -0.87690000 -0.00000000 0.48070000
vn -0.87670000 0.00000000 0.48100000
vn -0.87690000 -0.00000000 0.48070000
vn -0.87690000 -0.00000000 0.48070000
vn -0.87700000 0.00000000 0.48050000
vn -0.87700000 0.00000000 0.48050000
vn -0.87700000 0.00000000 0.48050000
vn -0.87690000 -0.00000000 0.48070000
vn -0.87710000 -0.00000000 0.48030000
vn -0.87690000 -0.00000000 0.48060000
vn -0.87680000 -0.00000000 0.48080000
vn -0.87690000 -0.00000000 0.48070000
vn -0.87690000 -0.00000000 0.48060000
vn -0.87700000 0.00000000 0.48050000
vn -0.87690000 -0.00000000 0.48070000
vn -0.87680000 0.00010000 0.48080000
vn -0.87710000 -0.00000000 0.48040000
vn -0.87710000 -0.00000000 0.48030000
vn -0.87670000 0.00000000 0.48100000
vn -0.87680000 0.00010000 0.48080000
vn -0.87690000 -0.00000000 0.48060000
vn -0.87700000 0.00000000 0.48050000
vn -0.87710000 -0.00000000 0.48040000
vn -0.87690000 -0.00000000 0.48070000
vn -0.87690000 -0.00000000 0.48060000
vn -0.20600000 -0.93450000 0.29030000
vn -0.20680000 -0.96950000 0.13170000
vn -0.20610000 -0.92400000 0.32200000
vn -0.20600000 -0.87020000 0.44760000
vn -0.20610000 -0.81230000 0.54560000
vn -0.20560000 -0.74600000 0.63340000
vn -0.20620000 -0.64150000 0.73890000
vn -0.20590000 -0.59080000 0.78010000
vn -0.20580000 -0.49290000 0.84540000
vn -0.20610000 -0.42120000 0.88320000
vn -0.20610000 -0.32900000 0.92150000
vn -0.20610000 -0.21820000 0.95390000
vn -0.20570000 -0.23460000 0.95010000
vn -0.20600000 -0.08790000 0.97460000
vn -0.20600000 -0.07360000 0.97580000
vn -0.20580000 0.06490000 0.97640000
vn -0.20610000 0.64130000 0.73910000
vn -0.20610000 0.73870000 0.64180000
vn -0.20570000 0.60990000 0.76530000
vn -0.20610000 0.81220000 0.54570000
vn -0.20570000 0.48160000 0.85190000
vn -0.20610000 0.42090000 0.88340000
vn -0.20580000 0.82960000 0.51900000
vn -0.20600000 0.91680000 0.34200000
vn -0.20590000 0.06770000 0.97620000
vn -0.20550000 0.27530000 0.93910000
vn -0.20610000 0.21830000 0.95390000
vn 0.01790000 0.09280000 0.99550000
vn 0.05980000 0.31420000 0.94750000
vn 0.01640000 0.08700000 0.99610000
vn 0.10590000 0.56330000 0.81940000
vn 0.05270000 0.28320000 0.95760000
vn 0.09040000 0.49060000 0.86670000
vn 0.13800000 0.74630000 0.65120000
vn 0.15190000 0.82960000 0.53730000
vn 0.11780000 0.64770000 0.75280000
vn 0.13470000 0.74740000 0.65060000
vn 0.16260000 0.89730000 0.41050000
vn 0.15320000 0.86210000 0.48310000
vn 0.13910000 0.89950000 0.41420000
vn 0.13940000 0.89900000 0.41520000
vn 0.13930000 0.89900000 0.41520000
vn 0.13930000 0.89900000 0.41530000
vn 0.13710000 0.89990000 0.41400000
vn 0.13460000 0.90020000 0.41420000
vn 0.16230000 0.89570000 0.41410000
vn 0.14880000 0.89740000 0.41530000
vn 0.15950000 0.89660000 0.41310000
vn 0.14660000 0.89830000 0.41420000
vn -0.86390000 0.00040000 0.50370000
vt 0.02874600 0.07698200
vt 0.02874600 0.07698200
vt 0.02874600 0.07698200
vt 0.02047800 0.04354100
vt 0.02047800 0.04354100
vt 0.02047800 0.04354100
vt 0.02047800 0.04354100
vt 0.00915700 0.05430000
vt 0.00915700 0.05430000
vt 0.01168400 0.04962300
vt 0.00909800 0.07684000
vt 0.05384800 0.07815500
vt 0.05384800 0.07815500
vt 0.05384800 0.07815500
vt 0.05384800 0.07815500
vt 0.05525300 0.03273500
vt 0.05525300 0.03273500
vt 0.05525300 0.03273500
vt 0.03367000 0.03812200
vt 0.03367000 0.03812200
vt 0.08298600 0.08097100
vt 0.08298600 0.08097100
vt 0.13442700 0.09497600
vt 0.13442700 0.02038600
vt 0.11185400 0.08677300
vt 0.02111700 0.17979000
vt 0.02111700 0.17979000
vt 0.02111700 0.17979000
vt 0.02610600 0.14605200
vt 0.02610600 0.14605200
vt 0.02610600 0.14605200
vt 0.00931300 0.16895700
vt 0.05560700 0.19044300
vt 0.13442700 0.20275300
vt 0.13442700 0.20275300
vt 0.13442700 0.20275300
vt 0.04067300 0.18699000
vt 0.04067300 0.18699000
vt 0.04067300 0.18699000
vt 0.04067300 0.18699000
vt 0.04067300 0.18699000
vt 0.00917900 0.14611800
vt 0.03147600 0.18414600
vt 0.05149300 0.14537800
vt 0.05149300 0.14537800
vt 0.11188000 0.13640600
vt 0.11188000 0.13640600
vt 0.08304500 0.14219000
vt 0.08304500 0.14219000
vt 0.13442700 0.12822200
vt 0.21331000 0.00070100
vt 0.19897300 0.00257100
vt 0.22851300 0.00253600
vt 0.15897300 0.00346500
vt 0.17883400 0.00070100
vt 0.15021500 0.00070200
vt 0.13229500 0.00071200
vt 0.14202000 0.00346500
vt 0.17730200 0.00274300
vt 0.25086200 0.00069900
vt 0.27675600 0.00070200
vt 0.27421400 0.00247500
vt 0.29659100 0.00259100
vt 0.30250100 0.00071900
vt 0.25735000 0.00263900
vt 0.17564800 0.00066900
vt 0.14439300 0.00070600
vt 0.15113800 0.00229200
vt 0.13755100 0.00258900
vt 0.17188200 0.00197900
vt 0.19043600 0.00198400
vt 0.21799500 0.00068300
vt 0.21754600 0.00246600
vt 0.15360600 0.00070200
vt 0.12348100 0.00070000
vt 0.15196500 0.00261800
vt 0.12337900 0.00248700
vt 0.19551300 0.00070200
vt 0.17541800 0.00070200
vt 0.17333700 0.00276700
vt 0.21541200 0.00070200
vt 0.19726600 0.00273000
vt 0.24443000 0.00070300
vt 0.21765500 0.00273400
vt 0.24124300 0.00346300
vt 0.27627300 0.00070200
vt 0.26665400 0.00346500
vt 0.28634700 0.00346500
vt 0.29603000 0.00071700
vt 0.21881000 0.00071400
vt 0.20088900 0.00069400
vt 0.21301800 0.00162400
vt 0.15873600 0.00068200
vt 0.15005700 0.00070200
vt 0.15528700 0.00174100
vt 0.15966100 0.00065900
vt 0.15382500 0.00177200
vt 0.17778200 0.00082400
vt 0.01915900 0.07680800
vt 0.01915900 0.07680800
vt 0.01915900 0.07680800
vt 0.01915900 0.07680800
vt 0.00681500 0.04706100
vt 0.00681500 0.04706100
vt 0.01511500 0.04247000
vt 0.01511500 0.04247000
vt 0.03065100 0.03730400
vt 0.03065100 0.03730400
vt 0.04492000 0.03398700
vt 0.04492000 0.03398700
vt 0.04492000 0.03398700
vt 0.05072200 0.07797000
vt 0.05072200 0.07797000
vt -0.00047300 0.05426200
vt -0.00055200 0.07698100
vt 0.07784600 0.08102100
vt 0.07784600 0.08102100
vt 0.09505000 0.08396900
vt 0.09505000 0.08396900
vt 0.12363600 0.09226300
vt 0.12363600 0.09226300
vt 0.13942500 0.10061600
vt 0.13942500 0.10061600
vt 0.13442700 0.01989600
vt 0.11072300 0.08770100
vt 0.17145000 0.02695200
vt 0.18099000 0.01437500
vt 0.18379100 0.07742600
vt 0.15992700 0.02674500
vt 0.15998300 0.19527000
vt 0.14526500 0.11333700
vt 0.14094400 0.10061600
vt 0.18379100 0.14473000
vt 0.18437700 0.20390700
vt 0.19684200 0.02287300
vt 0.20758200 0.07642900
vt 0.20921300 0.01149200
vt 0.21949300 0.04385900
vt 0.23110100 0.01069900
vt 0.20761400 0.14648700
vt 0.21650700 0.21184100
vt 0.19565300 0.21039600
vt 0.13442700 0.01989600
vt 0.13442700 0.20324600
vt 0.13960500 0.12280700
vt 0.17144900 0.19520300
vt 0.23104500 0.06525200
vt 0.23123400 0.15050800
vt 0.23146700 0.21207600
vt -0.00047700 0.16792700
vt -0.00047700 0.16792700
vt -0.00047700 0.16792700
vt -0.00051000 0.14597300
vt 0.01736600 0.14616000
vt 0.01736600 0.14616000
vt 0.05245900 0.19038900
vt 0.05245900 0.19038900
vt 0.05245900 0.19038900
vt 0.04578500 0.14530200
vt 0.04578500 0.14530200
vt 0.04578500 0.14530200
vt 0.04578500 0.14530200
vt 0.04578500 0.14530200
vt 0.07833300 0.14194900
vt 0.07833300 0.14194900
vt 0.00396400 0.17383700
vt 0.00396400 0.17383700
vt 0.13442700 0.20324600
vt 0.13442700 0.20324600
vt 0.12511000 0.13003500
vt 0.13846200 0.12280700
vt 0.10971400 0.13572900
vt 0.10971400 0.13572900
vt 0.10971400 0.13572900
vt 0.01533700 0.18070100
vt 0.01533700 0.18070100
vt 0.03082500 0.18583600
vt 0.03082500 0.18583600
vt 0.04106900 0.18829100
vt 0.16041300 0.10899500
vt 0.15255400 0.05312500
vt 0.15327800 0.10287300
vt 0.17158100 0.07315700
vt 0.15951000 0.11512900
vt 0.17158100 0.15251100
vt 0.15250400 0.17251100
vt 0.15329700 0.12031700
vt 0.18929900 0.05331800
vt 0.19377700 0.01467300
vt 0.17158200 0.03347900
vt 0.18928900 0.13268300
vt 0.18929900 0.09299500
vt 0.13442700 0.02038600
vt 0.13442700 0.09497600
vt 0.13442700 0.12822200
vt 0.13442700 0.20275300
vt 0.17158200 0.19218900
vt 0.20655600 0.07362100
vt 0.20641600 0.01364100
vt 0.20684100 0.14970700
vt 0.19332100 0.20844000
vt 0.18929900 0.17235000
vt 0.20731000 0.20961000
vt 0.15801500 0.00752200
vt 0.14611300 0.00034300
vt 0.14188300 0.00656200
vt 0.17039800 0.00287400
vt 0.17847900 0.01038300
vt 0.18648600 0.00507200
vt 0.20767000 0.00851400
vt 0.19896000 0.01348500
vt 0.22511700 0.01790600
vt 0.22457100 0.01140500
vt 0.62706000 0.98245700
vt 0.62706000 0.98245700
vt 0.58733400 0.98994700
vt 0.58143500 0.98301500
vt 0.62243100 0.97421000
vt 0.62243100 0.97421000
vt 0.49103800 0.99259400
vt 0.48488100 1.00076200
vt 0.64716700 0.97512700
vt 0.64716700 0.97512700
vt 0.64961000 0.96934900
vt 0.62950600 0.97129300
vt 0.12631400 0.00928900
vt 0.20391000 0.00281100
vt 0.12600100 0.00278800
vt 0.20622100 0.00928300
vt 0.45015600 0.00286000
vt 0.44787800 0.00931600
vt 0.52682300 0.00934000
vt 0.53096300 0.00287200
vt 0.34303100 0.08844000
vt 0.34303100 0.08844000
vt 0.34303100 0.08844000
vt 0.34303100 0.08844000
vt 0.34303100 0.08844000
vt 0.34084700 0.07325500
vt 0.34084700 0.07325500
vt 0.33591300 0.07367900
vt 0.33599100 0.11571500
vt 0.33599100 0.11571500
vt 0.33596700 0.17392800
vt 0.34306000 0.14335300
vt 0.34306000 0.14335300
vt 0.34306000 0.14335300
vt 0.33580000 0.21116400
vt 0.33580000 0.21116400
vt 0.34287500 0.19279000
vt 0.34287500 0.19279000
vt 0.34287500 0.19279000
vt 0.34020700 0.21138300
vt 0.34981100 0.11576300
vt 0.34981100 0.11576300
vt 0.34981100 0.11576300
vt 0.34968100 0.07420100
vt 0.34968100 0.07420100
vt 0.34982900 0.16870700
vt 0.34982900 0.16870700
vt 0.34982900 0.16870700
vt 0.34981100 0.21036000
vt 0.34981100 0.21036000
vt 0.15172800 0.17505700
vt 0.15019300 0.17325400
vt 0.15204200 0.17755900
vt 0.15333400 0.17827100
vt 0.15441100 0.18289200
vt 0.15544900 0.18270300
vt 0.15685400 0.18776800
vt 0.15747200 0.18669400
vt 0.15858200 0.18801100
vt 0.15934800 0.19158300
vt 0.16029100 0.19029600
vt 0.16138200 0.19392600
vt 0.16122200 0.19036200
vt 0.16263000 0.19482800
vt 0.16276500 0.19026300
vt 0.16407400 0.19497700
vt 0.17006600 0.18779700
vt 0.17136700 0.18342700
vt 0.16967800 0.18669200
vt 0.17251100 0.18292300
vt 0.16821600 0.18856800
vt 0.16757000 0.19160500
vt 0.17281100 0.18043400
vt 0.17467900 0.17796100
vt 0.16410100 0.19030500
vt 0.16609700 0.19055700
vt 0.16554000 0.19393900
vt 0.14289500 0.00008000
vt 0.16281700 0.00191600
vt 0.14234400 0.00653900
vt 0.18661600 0.00502200
vt 0.15994100 0.00809900
vt 0.17922100 0.01042700
vt 0.20767100 0.00844400
vt 0.21985100 0.01052900
vt 0.19557000 0.01288200
vt 0.20767400 0.01486500
vt 0.23262700 0.01272800
vt 0.22532200 0.01786000
vt 0.62177800 0.97443400
vt 0.63793800 0.97905900
vt 0.63793800 0.97905900
vt 0.63793800 0.97905900
vt 0.62978200 0.97126800
vt 0.64822700 0.96947900
vt 0.49333400 0.99996800
vt 0.58701600 0.99008300
vt 0.49117800 0.99267800
vt 0.58112100 0.98315000
vt 0.01303000 0.17416000
f 1/1/1 4/4/4 8/8/8
f 10/10/10 8/8/8 6/6/6
f 9/9/9 11/11/11 3/3/3
f 2/2/2 15/15/15 7/7/7
f 14/14/14 17/17/17 19/19/19
f 21/21/21 16/16/16 13/13/13
f 23/23/23 24/24/24 25/25/25
f 22/22/22 25/25/25 24/24/24
f 22/22/22 24/24/24 18/18/18
f 5/5/5 12/12/12 20/20/20
f 26/26/26 31/31/31 32/32/32
f 33/33/33 34/34/34 40/40/40
f 31/31/31 42/42/42 32/32/32
f 43/43/43 38/38/38 27/27/27
f 45/45/45 29/29/29 37/37/37
f 36/36/36 47/47/47 49/49/49
f 44/44/44 39/39/39 48/48/48
f 46/46/46 35/35/35 50/50/50
f 48/48/48 39/39/39 35/35/35
f 51/51/51 52/52/52 53/53/53
f 54/54/54 55/55/55 56/56/56
f 55/55/55 52/52/52 51/51/51
f 56/56/56 57/57/57 58/58/58
f 54/54/54 59/59/59 55/55/55
f 54/54/54 56/56/56 58/58/58
f 52/52/52 55/55/55 59/59/59
f 60/60/60 51/51/51 53/53/53
f 61/61/61 60/60/60 62/62/62
f 63/63/63 64/64/64 61/61/61
f 62/62/62 63/63/63 61/61/61
f 62/62/62 60/60/60 65/65/65
f 53/53/53 65/65/65 60/60/60
f 66/66/66 67/67/67 68/68/68
f 68/68/68 67/67/67 69/69/69
f 66/66/66 70/70/70 71/71/71
f 70/70/70 66/66/66 68/68/68
f 71/71/71 72/72/72 66/66/66
f 73/73/73 72/72/72 71/71/71
f 74/74/74 75/75/75 76/76/76
f 77/77/77 76/76/76 75/75/75
f 80/80/80 82/82/82 79/79/79
f 82/82/82 84/84/84 81/81/81
f 74/74/74 76/76/76 80/80/80
f 84/84/84 85/85/85 83/83/83
f 86/86/86 83/83/83 87/87/87
f 87/87/87 83/83/83 85/85/85
f 88/88/88 89/89/89 86/86/86
f 87/87/87 88/88/88 86/86/86
f 90/90/90 91/91/91 92/92/92
f 93/93/93 94/94/94 95/95/95
f 96/96/96 97/97/97 98/98/98
f 102/102/102 103/103/103 105/105/105
f 101/101/101 108/108/108 109/109/109
f 101/101/101 109/109/109 112/112/112
f 114/114/114 104/104/104 99/99/99
f 114/114/114 99/99/99 115/115/115
f 106/106/106 107/107/107 100/100/100
f 113/113/113 111/111/111 116/116/116
f 117/117/117 109/109/109 118/118/118
f 121/121/121 110/110/110 123/123/123
f 124/124/124 122/122/122 111/111/111
f 125/125/125 111/111/111 120/120/120
f 125/125/125 119/119/119 111/111/111
f 126/126/126 127/127/127 128/128/128
f 129/129/129 126/126/126 131/131/131
f 132/132/132 129/129/129 131/131/131
f 126/126/126 133/133/133 134/134/134
f 128/128/128 127/127/127 135/135/135
f 136/136/136 128/128/128 135/135/135
f 136/136/136 135/135/135 137/137/137
f 138/138/138 136/136/136 137/137/137
f 138/138/138 137/137/137 139/139/139
f 136/136/136 140/140/140 133/133/133
f 136/136/136 133/133/133 128/128/128
f 140/140/140 141/141/141 142/142/142
f 133/133/133 140/140/140 134/134/134
f 132/132/132 143/143/143 129/129/129
f 135/135/135 127/127/127 137/137/137
f 129/129/129 127/127/127 126/126/126
f 143/143/143 127/127/127 129/129/129
f 144/144/144 145/145/145 131/131/131
f 131/131/131 130/130/130 144/144/144
f 134/134/134 144/144/144 130/130/130
f 144/144/144 134/134/134 142/142/142
f 146/146/146 134/134/134 130/130/130
f 138/138/138 147/147/147 136/136/136
f 139/139/139 147/147/147 138/138/138
f 148/148/148 136/136/136 147/147/147
f 140/140/140 136/136/136 148/148/148
f 141/141/141 140/140/140 148/148/148
f 141/141/141 148/148/148 149/149/149
f 151/151/151 153/153/153 155/155/155
f 158/158/158 160/160/160 165/165/165
f 163/163/163 167/167/167 150/150/150
f 168/168/168 170/170/170 171/171/171
f 157/157/157 164/164/164 173/173/173
f 172/172/172 170/170/170 168/168/168
f 176/176/176 166/166/166 162/162/162
f 175/175/175 159/159/159 178/178/178
f 179/179/179 177/177/177 162/162/162
f 162/162/162 157/157/157 179/179/179
f 156/156/156 174/174/174 169/169/169
f 154/154/154 161/161/161 152/152/152
f 180/180/180 183/183/183 182/182/182
f 184/184/184 183/183/183 180/180/180
f 183/183/183 184/184/184 185/185/185
f 186/186/186 185/185/185 187/187/187
f 188/188/188 189/189/189 190/190/190
f 185/185/185 191/191/191 183/183/183
f 192/192/192 183/183/183 191/191/191
f 181/181/181 190/190/190 193/193/193
f 194/194/194 182/182/182 181/181/181
f 190/190/190 181/181/181 183/183/183
f 190/190/190 189/189/189 193/193/193
f 196/196/196 186/186/186 195/195/195
f 186/186/186 196/196/196 197/197/197
f 198/198/198 183/183/183 192/192/192
f 188/188/188 198/198/198 189/189/189
f 191/191/191 198/198/198 192/192/192
f 198/198/198 188/188/188 183/183/183
f 199/199/199 189/189/189 198/198/198
f 200/200/200 198/198/198 191/191/191
f 186/186/186 197/197/197 185/185/185
f 191/191/191 185/185/185 200/200/200
f 197/197/197 201/201/201 202/202/202
f 202/202/202 200/200/200 185/185/185
f 196/196/196 201/201/201 197/197/197
f 203/203/203 200/200/200 202/202/202
f 204/204/204 205/205/205 206/206/206
f 204/204/204 207/207/207 205/205/205
f 208/208/208 209/209/209 204/204/204
f 209/209/209 207/207/207 204/204/204
f 210/210/210 209/209/209 208/208/208
f 208/208/208 211/211/211 210/210/210
f 211/211/211 212/212/212 213/213/213
f 210/210/210 211/211/211 213/213/213
f 215/215/215 216/216/216 217/217/217
f 218/218/218 215/215/215 217/217/217
f 220/220/220 217/217/217 216/216/216
f 216/216/216 221/221/221 220/220/220
f 219/219/219 222/222/222 214/214/214
f 218/218/218 225/225/225 222/222/222
f 226/226/226 229/229/229 228/228/228
f 232/232/232 233/233/233 231/231/231
f 234/234/234 239/239/239 241/241/241
f 241/241/241 242/242/242 234/234/234
f 244/244/244 245/245/245 243/243/243
f 248/248/248 251/251/251 244/244/244
f 249/249/249 253/253/253 250/250/250
f 256/256/256 238/238/238 247/247/247
f 235/235/235 243/243/243 245/245/245
f 237/237/237 257/257/257 240/240/240
f 236/236/236 254/254/254 258/258/258
f 260/260/260 245/245/245 244/244/244
f 260/260/260 244/244/244 252/252/252
f 246/246/246 261/261/261 255/255/255
f 251/251/251 263/263/263 259/259/259
f 264/264/264 265/265/265 266/266/266
f 267/267/267 264/264/264 266/266/266
f 268/268/268 267/267/267 266/266/266
f 269/269/269 268/268/268 270/270/270
f 271/271/271 269/269/269 270/270/270
f 267/267/267 268/268/268 269/269/269
f 272/272/272 270/270/270 273/273/273
f 271/271/271 270/270/270 272/272/272
f 272/272/272 273/273/273 274/274/274
f 275/275/275 276/276/276 274/274/274
f 273/273/273 275/275/275 274/274/274
f 277/277/277 278/278/278 275/275/275
f 279/279/279 288/288/288 278/278/278
f 280/280/280 281/281/281 282/282/282
f 283/283/283 281/281/281 280/280/280
f 284/284/284 280/280/280 282/282/282
f 280/280/280 284/284/284 285/285/285
f 283/283/283 286/286/286 281/281/281
f 287/287/287 286/286/286 283/283/283
f 285/285/285 284/284/284 289/289/289
f 290/290/290 288/288/288 279/279/279
f 289/289/289 288/288/288 290/290/290
f 285/285/285 289/289/289 290/290/290
f 292/292/292 295/295/295 293/293/293
f 294/294/294 296/296/296 295/295/295
f 296/296/296 294/294/294 297/297/297
f 298/298/298 299/299/299 297/297/297
f 299/299/299 296/296/296 297/297/297
f 300/300/300 299/299/299 298/298/298
f 300/300/300 301/301/301 302/302/302
f 298/298/298 301/301/301 300/300/300
f 303/303/303 306/306/306 307/307/307
f 305/305/305 308/308/308 307/307/307
f 309/309/309 310/310/310 311/311/311
f 312/312/312 311/311/311 310/310/310
f 304/304/304 312/312/312 310/310/310
f 303/303/303 312/312/312 304/304/304
f 26/26/26 32/32/32 313/313/313
f 41/41/41 30/30/30 28/28/28
f 133/133/133 126/126/126 128/128/128
f 146/146/146 130/130/130 126/126/126
f 126/126/126 134/134/134 146/146/146
f 188/188/188 190/190/190 183/183/183
f 203/203/203 202/202/202 201/201/201
f 202/202/202 185/185/185 197/197/197
f 194/194/194 181/181/181 193/193/193
f 262/262/262 250/250/250 253/253/253
f 82/82/82 78/78/78 79/79/79
f 82/82/82 81/81/81 78/78/78
f 74/74/74 80/80/80 79/79/79
f 84/84/84 83/83/83 81/81/81
f 126/126/126 130/130/130 131/131/131
f 140/140/140 142/142/142 134/134/134
f 183/183/183 181/181/181 182/182/182
f 185/185/185 184/184/184 187/187/187
f 186/186/186 187/187/187 195/195/195
f 225/225/225 224/224/224 223/223/223
f 229/229/229 227/227/227 228/228/228
f 233/233/233 230/230/230 231/231/231
f 278/278/278 276/276/276 275/275/275
f 279/279/279 278/278/278 277/277/277
f 292/292/292 293/293/293 291/291/291
f 294/294/294 295/295/295 292/292/292

