mtllib material.mtl
usemtl Material-塑胶__导入的_
v 0.07009700 -0.07925200 0.07904400
v 0.07009700 -0.07925200 0.07625600
v -0.09109700 -0.07925200 0.07904400
v -0.09109700 -0.07925200 0.07625600
v -0.09109700 -0.07925200 0.07904400
v -0.09109700 -0.07925200 0.07625600
v -0.09185800 -0.07902500 0.07904400
v -0.09185800 -0.07902500 0.07625600
v -0.09261100 -0.07873100 0.07904400
v -0.09261100 -0.07873100 0.07625600
v -0.09334900 -0.07837000 0.07904400
v -0.09334900 -0.07837000 0.07625600
v -0.09406200 -0.07794300 0.07904400
v -0.09406200 -0.07794300 0.07625600
v -0.09474300 -0.07745300 0.07904400
v -0.09474300 -0.07745300 0.07625600
v -0.09538200 -0.07690400 0.07904400
v -0.09538200 -0.07690400 0.07625600
v -0.09597200 -0.07630000 0.07904400
v -0.09597200 -0.07630000 0.07625600
v -0.09650800 -0.07565000 0.07904400
v -0.09650800 -0.07565000 0.07625600
v -0.09698200 -0.07496100 0.07904400
v -0.09698200 -0.07496100 0.07625600
v -0.09739300 -0.07424100 0.07904400
v -0.09739300 -0.07424100 0.07625600
v -0.09773700 -0.07349800 0.07904400
v -0.09773700 -0.07349800 0.07625600
v -0.09801500 -0.07274200 0.07904400
v -0.09801500 -0.07274200 0.07625600
v -0.09822500 -0.07198200 0.07904400
v -0.09822500 -0.07198200 0.07625600
v -0.09837100 -0.07122400 0.07904400
v -0.09837100 -0.07122400 0.07625600
v -0.09845600 -0.07047700 0.07904400
v -0.09845600 -0.07047700 0.07625600
v -0.09848300 -0.06974600 0.07904400
v -0.09848300 -0.06974600 0.07625600
v -0.09848300 -0.06742200 0.07904400
v -0.09848300 -0.06742200 0.07625600
v -0.09842900 -0.06620700 0.07904400
v -0.09842900 -0.06620700 0.07625600
v -0.09825800 -0.06496000 0.07904400
v -0.09825800 -0.06496000 0.07625600
v -0.09796100 -0.06370000 0.07904400
v -0.09796100 -0.06370000 0.07625600
v -0.09753400 -0.06244200 0.07904400
v -0.09753400 -0.06244200 0.07625600
v -0.09697200 -0.06120900 0.07904400
v -0.09697200 -0.06120900 0.07625600
v -0.09627800 -0.06001900 0.07904400
v -0.09627800 -0.06001900 0.07625600
v -0.09588300 -0.05944800 0.07904400
v -0.09588300 -0.05944800 0.07625600
v -0.09545800 -0.05889500 0.07904400
v -0.09545800 -0.05889500 0.07625600
v -0.09500300 -0.05836400 0.07904400
v -0.09500300 -0.05836400 0.07625600
v -0.09452100 -0.05785600 0.07904400
v -0.09452100 -0.05785600 0.07625600
v -0.09401300 -0.05737400 0.07904400
v -0.09401300 -0.05737400 0.07625600
v -0.09348200 -0.05692000 0.07904400
v -0.09348200 -0.05692000 0.07625600
v -0.09293000 -0.05649400 0.07904400
v -0.09293000 -0.05649400 0.07625600
v -0.09235800 -0.05609900 0.07904400
v -0.09235800 -0.05609900 0.07625600
v -0.09116900 -0.05540500 0.07904400
v -0.09116900 -0.05540500 0.07625600
v -0.08993500 -0.05484400 0.07904400
v -0.08993500 -0.05484400 0.07625600
v -0.08867800 -0.05441600 0.07904400
v -0.08867800 -0.05441600 0.07625600
v -0.08741700 -0.05412000 0.07904400
v -0.08741700 -0.05412000 0.07625600
v -0.08617100 -0.05394900 0.07904400
v -0.08617100 -0.05394900 0.07625600
v -0.08495600 -0.05389400 0.07904400
v -0.08495600 -0.05389400 0.07625600
v 0.06395600 -0.05389400 0.07904400
v 0.06395600 -0.05389400 0.07625600
v 0.06517100 -0.05394900 0.07904400
v 0.06517100 -0.05394900 0.07625600
v 0.06641700 -0.05412000 0.07904400
v 0.06641700 -0.05412000 0.07625600
v 0.06767800 -0.05441600 0.07904400
v 0.06767800 -0.05441600 0.07625600
v 0.06893500 -0.05484400 0.07904400
v 0.06893500 -0.05484400 0.07625600
v 0.07016900 -0.05540500 0.07904400
v 0.07016900 -0.05540500 0.07625600
v 0.07135800 -0.05609900 0.07904400
v 0.07135800 -0.05609900 0.07625600
v 0.07193000 -0.05649400 0.07904400
v 0.07193000 -0.05649400 0.07625600
v 0.07248200 -0.05692000 0.07904400
v 0.07248200 -0.05692000 0.07625600
v 0.07301300 -0.05737400 0.07904400
v 0.07301300 -0.05737400 0.07625600
v 0.07352100 -0.05785600 0.07904400
v 0.07352100 -0.05785600 0.07625600
v 0.07400300 -0.05836400 0.07904400
v 0.07400300 -0.05836400 0.07625600
v 0.07445800 -0.05889500 0.07904400
v 0.07445800 -0.05889500 0.07625600
v 0.07488300 -0.05944800 0.07904400
v 0.07488300 -0.05944800 0.07625600
v 0.07527800 -0.06001900 0.07904400
v 0.07527800 -0.06001900 0.07625600
v 0.07597200 -0.06120900 0.07904400
v 0.07597200 -0.06120900 0.07625600
v 0.07653400 -0.06244200 0.07904400
v 0.07653400 -0.06244200 0.07625600
v 0.07696100 -0.06370000 0.07904400
v 0.07696100 -0.06370000 0.07625600
v 0.07725800 -0.06496000 0.07904400
v 0.07725800 -0.06496000 0.07625600
v 0.07742900 -0.06620700 0.07904400
v 0.07742900 -0.06620700 0.07625600
v 0.07748300 -0.06742200 0.07904400
v 0.07748300 -0.06742200 0.07625600
v 0.07748300 -0.06974600 0.07904400
v 0.07748300 -0.06974600 0.07625600
v 0.07745600 -0.07047700 0.07904400
v 0.07745600 -0.07047700 0.07625600
v 0.07737100 -0.07122400 0.07904400
v 0.07737100 -0.07122400 0.07625600
v 0.07722500 -0.07198200 0.07904400
v 0.07722500 -0.07198200 0.07625600
v 0.07701500 -0.07274200 0.07904400
v 0.07701500 -0.07274200 0.07625600
v 0.07673700 -0.07349800 0.07904400
v 0.07673700 -0.07349800 0.07625600
v 0.07639300 -0.07424100 0.07904400
v 0.07639300 -0.07424100 0.07625600
v 0.07598200 -0.07496100 0.07904400
v 0.07598200 -0.07496100 0.07625600
v 0.07550800 -0.07565000 0.07904400
v 0.07550800 -0.07565000 0.07625600
v 0.07497200 -0.07630000 0.07904400
v 0.07497200 -0.07630000 0.07625600
v 0.07438200 -0.07690400 0.07904400
v 0.07438200 -0.07690400 0.07625600
v 0.07374300 -0.07745300 0.07904400
v 0.07374300 -0.07745300 0.07625600
v 0.07306200 -0.07794300 0.07904400
v 0.07306200 -0.07794300 0.07625600
v 0.07234900 -0.07837000 0.07904400
v 0.07234900 -0.07837000 0.07625600
v 0.07161100 -0.07873100 0.07904400
v 0.07161100 -0.07873100 0.07625600
v 0.07085800 -0.07902500 0.07904400
v 0.07085800 -0.07902500 0.07625600
v 0.07009700 -0.07925200 0.07904400
v 0.07009700 -0.07925200 0.07625600
v 0.07009700 -0.07925200 0.07904400
v -0.09109700 -0.07925200 0.07904400
v -0.09185800 -0.07902500 0.07904400
v -0.09261100 -0.07873100 0.07904400
v -0.09334900 -0.07837000 0.07904400
v -0.09334900 -0.07837000 0.07904400
v -0.09406200 -0.07794300 0.07904400
v -0.09474300 -0.07745300 0.07904400
v -0.09474300 -0.07745300 0.07904400
v -0.09538200 -0.07690400 0.07904400
v -0.09597200 -0.07630000 0.07904400
v -0.09650800 -0.07565000 0.07904400
v -0.09698200 -0.07496100 0.07904400
v -0.09739300 -0.07424100 0.07904400
v -0.09773700 -0.07349800 0.07904400
v -0.09773700 -0.07349800 0.07904400
v -0.09801500 -0.07274200 0.07904400
v -0.09822500 -0.07198200 0.07904400
v -0.09822500 -0.07198200 0.07904400
v -0.09837100 -0.07122400 0.07904400
v -0.09837100 -0.07122400 0.07904400
v -0.09845600 -0.07047700 0.07904400
v -0.09848300 -0.06974600 0.07904400
v -0.09848300 -0.06974600 0.07904400
v -0.09848300 -0.06742200 0.07904400
v -0.09842900 -0.06620700 0.07904400
v -0.09825800 -0.06496000 0.07904400
v -0.09796100 -0.06370000 0.07904400
v -0.09753400 -0.06244200 0.07904400
v -0.09697200 -0.06120900 0.07904400
v -0.09627800 -0.06001900 0.07904400
v -0.09588300 -0.05944800 0.07904400
v -0.09545800 -0.05889500 0.07904400
v -0.09500300 -0.05836400 0.07904400
v -0.09452100 -0.05785600 0.07904400
v -0.09401300 -0.05737400 0.07904400
v -0.09348200 -0.05692000 0.07904400
v -0.09293000 -0.05649400 0.07904400
v -0.09235800 -0.05609900 0.07904400
v -0.09116900 -0.05540500 0.07904400
v -0.08993500 -0.05484400 0.07904400
v -0.08867800 -0.05441600 0.07904400
v -0.08741700 -0.05412000 0.07904400
v -0.08617100 -0.05394900 0.07904400
v -0.08495600 -0.05389400 0.07904400
v 0.06395600 -0.05389400 0.07904400
v 0.06517100 -0.05394900 0.07904400
v 0.06641700 -0.05412000 0.07904400
v 0.06767800 -0.05441600 0.07904400
v 0.06893500 -0.05484400 0.07904400
v 0.07016900 -0.05540500 0.07904400
v 0.07135800 -0.05609900 0.07904400
v 0.07193000 -0.05649400 0.07904400
v 0.07248200 -0.05692000 0.07904400
v 0.07301300 -0.05737400 0.07904400
v 0.07352100 -0.05785600 0.07904400
v 0.07400300 -0.05836400 0.07904400
v 0.07445800 -0.05889500 0.07904400
v 0.07488300 -0.05944800 0.07904400
v 0.07527800 -0.06001900 0.07904400
v 0.07597200 -0.06120900 0.07904400
v 0.07653400 -0.06244200 0.07904400
v 0.07696100 -0.06370000 0.07904400
v 0.07725800 -0.06496000 0.07904400
v 0.07742900 -0.06620700 0.07904400
v 0.07748300 -0.06742200 0.07904400
v 0.07748300 -0.06974600 0.07904400
v 0.07745600 -0.07047700 0.07904400
v 0.07745600 -0.07047700 0.07904400
v 0.07737100 -0.07122400 0.07904400
v 0.07722500 -0.07198200 0.07904400
v 0.07722500 -0.07198200 0.07904400
v 0.07722500 -0.07198200 0.07904400
v 0.07701500 -0.07274200 0.07904400
v 0.07673700 -0.07349800 0.07904400
v 0.07673700 -0.07349800 0.07904400
v 0.07639300 -0.07424100 0.07904400
v 0.07598200 -0.07496100 0.07904400
v 0.07550800 -0.07565000 0.07904400
v 0.07497200 -0.07630000 0.07904400
v 0.07438200 -0.07690400 0.07904400
v 0.07374300 -0.07745300 0.07904400
v 0.07374300 -0.07745300 0.07904400
v 0.07306200 -0.07794300 0.07904400
v 0.07234900 -0.07837000 0.07904400
v 0.07234900 -0.07837000 0.07904400
v 0.07161100 -0.07873100 0.07904400
v 0.07085800 -0.07902500 0.07904400
v 0.07009700 -0.07925200 0.07625600
v -0.09109700 -0.07925200 0.07625600
v -0.09185800 -0.07902500 0.07625600
v -0.09261100 -0.07873100 0.07625600
v -0.09334900 -0.07837000 0.07625600
v -0.09406200 -0.07794300 0.07625600
v -0.09474300 -0.07745300 0.07625600
v -0.09474300 -0.07745300 0.07625600
v -0.09538200 -0.07690400 0.07625600
v -0.09597200 -0.07630000 0.07625600
v -0.09597200 -0.07630000 0.07625600
v -0.09650800 -0.07565000 0.07625600
v -0.09698200 -0.07496100 0.07625600
v -0.09739300 -0.07424100 0.07625600
v -0.09773700 -0.07349800 0.07625600
v -0.09773700 -0.07349800 0.07625600
v -0.09801500 -0.07274200 0.07625600
v -0.09822500 -0.07198200 0.07625600
v -0.09822500 -0.07198200 0.07625600
v -0.09837100 -0.07122400 0.07625600
v -0.09837100 -0.07122400 0.07625600
v -0.09845600 -0.07047700 0.07625600
v -0.09848300 -0.06974600 0.07625600
v -0.09848300 -0.06974600 0.07625600
v -0.09848300 -0.06742200 0.07625600
v -0.09842900 -0.06620700 0.07625600
v -0.09825800 -0.06496000 0.07625600
v -0.09796100 -0.06370000 0.07625600
v -0.09753400 -0.06244200 0.07625600
v -0.09697200 -0.06120900 0.07625600
v -0.09627800 -0.06001900 0.07625600
v -0.09588300 -0.05944800 0.07625600
v -0.09545800 -0.05889500 0.07625600
v -0.09500300 -0.05836400 0.07625600
v -0.09452100 -0.05785600 0.07625600
v -0.09401300 -0.05737400 0.07625600
v -0.09348200 -0.05692000 0.07625600
v -0.09293000 -0.05649400 0.07625600
v -0.09235800 -0.05609900 0.07625600
v -0.09116900 -0.05540500 0.07625600
v -0.08993500 -0.05484400 0.07625600
v -0.08867800 -0.05441600 0.07625600
v -0.08741700 -0.05412000 0.07625600
v -0.08617100 -0.05394900 0.07625600
v -0.08495600 -0.05389400 0.07625600
v 0.06395600 -0.05389400 0.07625600
v 0.06517100 -0.05394900 0.07625600
v 0.06641700 -0.05412000 0.07625600
v 0.06767800 -0.05441600 0.07625600
v 0.06893500 -0.05484400 0.07625600
v 0.07016900 -0.05540500 0.07625600
v 0.07135800 -0.05609900 0.07625600
v 0.07193000 -0.05649400 0.07625600
v 0.07248200 -0.05692000 0.07625600
v 0.07301300 -0.05737400 0.07625600
v 0.07352100 -0.05785600 0.07625600
v 0.07400300 -0.05836400 0.07625600
v 0.07445800 -0.05889500 0.07625600
v 0.07488300 -0.05944800 0.07625600
v 0.07527800 -0.06001900 0.07625600
v 0.07597200 -0.06120900 0.07625600
v 0.07653400 -0.06244200 0.07625600
v 0.07696100 -0.06370000 0.07625600
v 0.07725800 -0.06496000 0.07625600
v 0.07742900 -0.06620700 0.07625600
v 0.07748300 -0.06742200 0.07625600
v 0.07748300 -0.06974600 0.07625600
v 0.07745600 -0.07047700 0.07625600
v 0.07737100 -0.07122400 0.07625600
v 0.07722500 -0.07198200 0.07625600
v 0.07722500 -0.07198200 0.07625600
v 0.07701500 -0.07274200 0.07625600
v 0.07673700 -0.07349800 0.07625600
v 0.07673700 -0.07349800 0.07625600
v 0.07639300 -0.07424100 0.07625600
v 0.07598200 -0.07496100 0.07625600
v 0.07550800 -0.07565000 0.07625600
v 0.07497200 -0.07630000 0.07625600
v 0.07438200 -0.07690400 0.07625600
v 0.07438200 -0.07690400 0.07625600
v 0.07374300 -0.07745300 0.07625600
v 0.07374300 -0.07745300 0.07625600
v 0.07306200 -0.07794300 0.07625600
v 0.07234900 -0.07837000 0.07625600
v 0.07234900 -0.07837000 0.07625600
v 0.07161100 -0.07873100 0.07625600
v 0.07085800 -0.07902500 0.07625600
vn 0.00000000 -1.00000000 0.00000000
vn 0.00000000 -1.00000000 0.00000000
vn 0.00000000 -1.00000000 0.00000000
vn 0.00000000 -1.00000000 0.00000000
vn -0.24710000 -0.96900000 -0.00000000
vn -0.24710000 -0.96900000 -0.00000000
vn -0.32500000 -0.94570000 0.00000000
vn -0.32460000 -0.94580000 0.00000000
vn -0.40170000 -0.91580000 0.00000000
vn -0.40170000 -0.91580000 0.00000000
vn -0.47680000 -0.87900000 0.00000000
vn -0.47680000 -0.87900000 0.00000000
vn -0.54950000 -0.83550000 0.00000000
vn -0.54950000 -0.83550000 0.00000000
vn -0.61880000 -0.78560000 0.00000000
vn -0.61880000 -0.78560000 0.00000000
vn -0.68390000 -0.72960000 0.00000000
vn -0.68390000 -0.72960000 0.00000000
vn -0.74400000 -0.66820000 0.00000000
vn -0.74400000 -0.66820000 0.00000000
vn -0.79850000 -0.60200000 0.00000000
vn -0.79850000 -0.60200000 0.00000000
vn -0.84710000 -0.53140000 0.00000000
vn -0.84690000 -0.53180000 0.00000000
vn -0.88870000 -0.45840000 0.00000000
vn -0.88870000 -0.45840000 0.00000000
vn -0.92380000 -0.38280000 0.00000000
vn -0.92380000 -0.38280000 0.00000000
vn -0.95210000 -0.30590000 0.00000000
vn -0.95220000 -0.30550000 -0.00000000
vn -0.97370000 -0.22800000 0.00000000
vn -0.97360000 -0.22840000 0.00000000
vn -0.98860000 -0.15070000 0.00000000
vn -0.98860000 -0.15070000 0.00000000
vn -0.99720000 -0.07500000 0.00000000
vn -0.99720000 -0.07460000 -0.00000000
vn -1.00000000 0.00000000 -0.00000000
vn -1.00000000 0.00000000 -0.00000000
vn -1.00000000 0.00000000 -0.00000000
vn -1.00000000 0.00000000 -0.00000000
vn -0.99590000 0.08990000 0.00000000
vn -0.99600000 0.08980000 0.00000000
vn -0.98330000 0.18220000 -0.00000000
vn -0.98330000 0.18210000 0.00000000
vn -0.96140000 0.27520000 -0.00000000
vn -0.96140000 0.27510000 0.00000000
vn -0.92960000 0.36860000 0.00000000
vn -0.92960000 0.36860000 0.00000000
vn -0.88810000 0.45970000 0.00000000
vn -0.88810000 0.45960000 0.00000000
vn -0.83700000 0.54720000 0.00000000
vn -0.83700000 0.54720000 0.00000000
vn -0.80780000 0.58950000 0.00000000
vn -0.80780000 0.58950000 0.00000000
vn -0.77630000 0.63030000 0.00000000
vn -0.77630000 0.63030000 0.00000000
vn -0.74270000 0.66960000 0.00000000
vn -0.74270000 0.66960000 0.00000000
vn -0.70710000 0.70710000 0.00000000
vn -0.70710000 0.70710000 0.00000000
vn -0.66960000 0.74270000 0.00000000
vn -0.66960000 0.74270000 0.00000000
vn -0.63030000 0.77630000 0.00000000
vn -0.63030000 0.77630000 0.00000000
vn -0.58950000 0.80780000 0.00000000
vn -0.58950000 0.80780000 0.00000000
vn -0.54720000 0.83700000 0.00000000
vn -0.54720000 0.83700000 0.00000000
vn -0.45960000 0.88810000 0.00000000
vn -0.45960000 0.88810000 0.00000000
vn -0.36860000 0.92960000 0.00000000
vn -0.36860000 0.92960000 0.00000000
vn -0.27530000 0.96140000 0.00000000
vn -0.27520000 0.96140000 -0.00000000
vn -0.18220000 0.98330000 0.00000000
vn -0.18210000 0.98330000 0.00000000
vn -0.08990000 0.99590000 0.00000000
vn -0.09000000 0.99590000 -0.00000000
vn 0.00000000 1.00000000 -0.00000000
vn 0.00000000 1.00000000 -0.00000000
vn 0.00000000 1.00000000 -0.00000000
vn 0.00000000 1.00000000 -0.00000000
vn 0.09000000 0.99590000 0.00000000
vn 0.08990000 0.99590000 0.00000000
vn 0.18210000 0.98330000 0.00000000
vn 0.18200000 0.98330000 0.00000000
vn 0.27510000 0.96140000 0.00000000
vn 0.27520000 0.96140000 0.00000000
vn 0.36860000 0.92960000 0.00000000
vn 0.36860000 0.92960000 0.00000000
vn 0.45960000 0.88810000 0.00000000
vn 0.45960000 0.88810000 0.00000000
vn 0.54720000 0.83700000 0.00000000
vn 0.54720000 0.83700000 0.00000000
vn 0.58950000 0.80780000 0.00000000
vn 0.58950000 0.80780000 0.00000000
vn 0.63030000 0.77630000 0.00000000
vn 0.63030000 0.77630000 0.00000000
vn 0.66960000 0.74270000 0.00000000
vn 0.66960000 0.74270000 0.00000000
vn 0.70710000 0.70710000 0.00000000
vn 0.70710000 0.70710000 0.00000000
vn 0.74270000 0.66960000 0.00000000
vn 0.74270000 0.66960000 0.00000000
vn 0.77630000 0.63030000 0.00000000
vn 0.77630000 0.63030000 0.00000000
vn 0.80780000 0.58950000 0.00000000
vn 0.80780000 0.58950000 0.00000000
vn 0.83700000 0.54720000 0.00000000
vn 0.83700000 0.54720000 0.00000000
vn 0.88830000 0.45930000 0.00000000
vn 0.88830000 0.45930000 0.00000000
vn 0.92960000 0.36860000 0.00000000
vn 0.92960000 0.36860000 0.00000000
vn 0.96140000 0.27510000 0.00000000
vn 0.96140000 0.27520000 -0.00000000
vn 0.98330000 0.18220000 0.00000000
vn 0.98330000 0.18220000 0.00000000
vn 0.99590000 0.08990000 0.00000000
vn 0.99590000 0.08990000 0.00000000
vn 1.00000000 0.00000000 -0.00000000
vn 1.00000000 0.00000000 -0.00000000
vn 1.00000000 0.00000000 -0.00000000
vn 1.00000000 0.00000000 -0.00000000
vn 0.99720000 -0.07470000 0.00000000
vn 0.99720000 -0.07450000 0.00000000
vn 0.98860000 -0.15070000 -0.00000000
vn 0.98860000 -0.15090000 0.00000000
vn 0.97370000 -0.22800000 0.00000000
vn 0.97360000 -0.22840000 0.00000000
vn 0.95220000 -0.30540000 0.00000000
vn 0.95220000 -0.30550000 0.00000000
vn 0.92380000 -0.38280000 0.00000000
vn 0.92380000 -0.38280000 0.00000000
vn 0.88870000 -0.45840000 0.00000000
vn 0.88870000 -0.45840000 0.00000000
vn 0.84690000 -0.53180000 0.00000000
vn 0.84710000 -0.53150000 0.00000000
vn 0.79850000 -0.60200000 0.00000000
vn 0.79870000 -0.60170000 0.00000000
vn 0.74400000 -0.66820000 0.00000000
vn 0.74400000 -0.66820000 0.00000000
vn 0.68390000 -0.72960000 0.00000000
vn 0.68390000 -0.72960000 0.00000000
vn 0.61880000 -0.78560000 0.00000000
vn 0.61880000 -0.78560000 0.00000000
vn 0.54950000 -0.83550000 0.00000000
vn 0.54950000 -0.83550000 0.00000000
vn 0.47680000 -0.87900000 0.00000000
vn 0.47680000 -0.87900000 0.00000000
vn 0.40170000 -0.91580000 0.00000000
vn 0.40170000 -0.91580000 0.00000000
vn 0.32500000 -0.94570000 0.00000000
vn 0.32460000 -0.94580000 0.00000000
vn 0.24710000 -0.96900000 -0.00000000
vn 0.24710000 -0.96900000 -0.00000000
vn 0.00000000 0.00000000 1.00000000
vn 0.00000000 0.00000000 1.00000000
vn 0.00000000 0.00000000 1.00000000
vn 0.00000000 0.00000000 1.00000000
vn 0.00000000 0.00000000 1.00000000
vn 0.00030000 -0.00000000 1.00000000
vn 0.00030000 -0.00000000 1.00000000
vn 0.00000000 0.00000000 1.00000000
vn 0.00030000 -0.00000000 1.00000000
vn 0.00000000 0.00000000 1.00000000
vn 0.00000000 0.00000000 1.00000000
vn 0.00000000 0.00000000 1.00000000
vn 0.00000000 0.00000000 1.00000000
vn 0.00000000 0.00000000 1.00000000
vn 0.00000000 0.00000000 1.00000000
vn -0.00010000 0.00000000 1.00000000
vn -0.00010000 0.00000000 1.00000000
vn -0.00010000 0.00000000 1.00000000
vn 0.00000000 0.00000000 1.00000000
vn 0.00000000 0.00000000 1.00000000
vn 0.00080000 0.00000000 1.00000000
vn 0.00080000 0.00000000 1.00000000
vn 0.00080000 0.00000000 1.00000000
vn 0.00000000 0.00000000 1.00000000
vn 0.00000000 0.00000000 1.00000000
vn 0.00000000 0.00000000 1.00000000
vn 0.00000000 0.00000000 1.00000000
vn 0.00000000 0.00000000 1.00000000
vn 0.00000000 0.00000000 1.00000000
vn 0.00000000 0.00000000 1.00000000
vn 0.00000000 0.00000000 1.00000000
vn 0.00000000 0.00000000 1.00000000
vn 0.00000000 0.00000000 1.00000000
vn 0.00000000 0.00000000 1.00000000
vn 0.00000000 0.00000000 1.00000000
vn 0.00000000 0.00000000 1.00000000
vn 0.00000000 0.00000000 1.00000000
vn 0.00000000 0.00000000 1.00000000
vn 0.00000000 0.00000000 1.00000000
vn 0.00000000 0.00000000 1.00000000
vn 0.00000000 0.00000000 1.00000000
vn 0.00000000 0.00000000 1.00000000
vn 0.00000000 0.00000000 1.00000000
vn 0.00000000 0.00000000 1.00000000
vn 0.00000000 0.00000000 1.00000000
vn 0.00000000 0.00000000 1.00000000
vn 0.00000000 0.00000000 1.00000000
vn 0.00000000 0.00000000 1.00000000
vn 0.00000000 0.00000000 1.00000000
vn 0.00000000 0.00000000 1.00000000
vn 0.00000000 0.00000000 1.00000000
vn 0.00000000 0.00000000 1.00000000
vn 0.00000000 0.00000000 1.00000000
vn 0.00000000 0.00000000 1.00000000
vn 0.00000000 0.00000000 1.00000000
vn 0.00000000 0.00000000 1.00000000
vn 0.00000000 0.00000000 1.00000000
vn 0.00000000 0.00000000 1.00000000
vn 0.00000000 0.00000000 1.00000000
vn 0.00000000 0.00000000 1.00000000
vn 0.00000000 0.00000000 1.00000000
vn 0.00000000 0.00000000 1.00000000
vn 0.00000000 0.00000000 1.00000000
vn 0.00000000 0.00000000 1.00000000
vn 0.00000000 0.00000000 1.00000000
vn 0.00000000 0.00000000 1.00000000
vn 0.00000000 0.00000000 1.00000000
vn 0.00000000 0.00000000 1.00000000
vn -0.00030000 0.00000000 1.00000000
vn -0.00030000 0.00000000 1.00000000
vn 0.00010000 0.00000000 1.00000000
vn 0.00000000 0.00000000 1.00000000
vn -0.00030000 0.00000000 1.00000000
vn 0.00010000 0.00000000 1.00000000
vn 0.00010000 0.00000000 1.00000000
vn 0.00000000 0.00000000 1.00000000
vn 0.00000000 0.00000000 1.00000000
vn 0.00000000 0.00000000 1.00000000
vn 0.00000000 0.00000000 1.00000000
vn 0.00000000 0.00000000 1.00000000
vn 0.00000000 0.00000000 1.00000000
vn 0.00000000 0.00000000 1.00000000
vn -0.00020000 0.00000000 1.00000000
vn -0.00020000 0.00000000 1.00000000
vn -0.00020000 0.00000000 1.00000000
vn 0.00000000 0.00000000 1.00000000
vn 0.00000000 0.00000000 1.00000000
vn 0.00000000 0.00000000 1.00000000
vn -0.00000000 0.00000000 -1.00000000
vn -0.00000000 0.00000000 -1.00000000
vn -0.00000000 0.00000000 -1.00000000
vn -0.00000000 0.00000000 -1.00000000
vn -0.00000000 0.00000000 -1.00000000
vn -0.00000000 0.00000000 -1.00000000
vn -0.00020000 0.00000000 -1.00000000
vn -0.00000000 0.00000000 -1.00000000
vn -0.00020000 0.00000000 -1.00000000
vn -0.00020000 0.00000000 -1.00000000
vn -0.00000000 0.00000000 -1.00000000
vn -0.00000000 0.00000000 -1.00000000
vn -0.00000000 0.00000000 -1.00000000
vn -0.00000000 0.00000000 -1.00000000
vn -0.00000000 0.00000000 -1.00000000
vn 0.00010000 0.00000000 -1.00000000
vn 0.00010000 0.00000000 -1.00000000
vn 0.00010000 0.00000000 -1.00000000
vn -0.00000000 0.00000000 -1.00000000
vn -0.00000000 0.00000000 -1.00000000
vn 0.00050000 0.00000000 -1.00000000
vn 0.00050000 0.00000000 -1.00000000
vn -0.00000000 0.00000000 -1.00000000
vn 0.00050000 0.00000000 -1.00000000
vn -0.00000000 0.00000000 -1.00000000
vn -0.00000000 0.00000000 -1.00000000
vn -0.00000000 0.00000000 -1.00000000
vn -0.00000000 0.00000000 -1.00000000
vn -0.00000000 0.00000000 -1.00000000
vn -0.00000000 0.00000000 -1.00000000
vn -0.00000000 0.00000000 -1.00000000
vn -0.00000000 0.00000000 -1.00000000
vn -0.00000000 0.00000000 -1.00000000
vn -0.00000000 0.00000000 -1.00000000
vn -0.00000000 0.00000000 -1.00000000
vn -0.00000000 0.00000000 -1.00000000
vn -0.00000000 0.00000000 -1.00000000
vn -0.00000000 0.00000000 -1.00000000
vn -0.00000000 0.00000000 -1.00000000
vn -0.00000000 0.00000000 -1.00000000
vn -0.00000000 0.00000000 -1.00000000
vn -0.00000000 0.00000000 -1.00000000
vn -0.00000000 0.00000000 -1.00000000
vn -0.00000000 0.00000000 -1.00000000
vn -0.00000000 0.00000000 -1.00000000
vn -0.00000000 0.00000000 -1.00000000
vn -0.00000000 0.00000000 -1.00000000
vn -0.00000000 0.00000000 -1.00000000
vn -0.00000000 0.00000000 -1.00000000
vn -0.00000000 0.00000000 -1.00000000
vn -0.00000000 0.00000000 -1.00000000
vn -0.00000000 0.00000000 -1.00000000
vn -0.00000000 0.00000000 -1.00000000
vn -0.00000000 0.00000000 -1.00000000
vn -0.00000000 0.00000000 -1.00000000
vn -0.00000000 0.00000000 -1.00000000
vn -0.00000000 0.00000000 -1.00000000
vn -0.00000000 0.00000000 -1.00000000
vn -0.00000000 0.00000000 -1.00000000
vn -0.00000000 0.00000000 -1.00000000
vn -0.00000000 0.00000000 -1.00000000
vn -0.00000000 0.00000000 -1.00000000
vn -0.00000000 0.00000000 -1.00000000
vn -0.00000000 0.00000000 -1.00000000
vn -0.00000000 0.00000000 -1.00000000
vn -0.00000000 0.00000000 -1.00000000
vn -0.00000000 0.00000000 -1.00000000
vn -0.00000000 0.00000000 -1.00000000
vn -0.00000000 0.00000000 -1.00000000
vn -0.00000000 0.00000000 -1.00000000
vn -0.00010000 0.00000000 -1.00000000
vn -0.00010000 0.00000000 -1.00000000
vn -0.00010000 0.00000000 -1.00000000
vn -0.00000000 0.00000000 -1.00000000
vn -0.00000000 0.00000000 -1.00000000
vn -0.00000000 0.00000000 -1.00000000
vn -0.00000000 0.00000000 -1.00000000
vn -0.00000000 0.00000000 -1.00000000
vn -0.00000000 0.00000000 -1.00000000
vn 0.00010000 0.00000000 -1.00000000
vn 0.00010000 0.00000000 -1.00000000
vn -0.00000000 0.00000000 -1.00000000
vn -0.00000000 0.00000000 -1.00000000
vn 0.00010000 0.00000000 -1.00000000
vn -0.00000000 0.00000000 -1.00000000
vn -0.00000000 0.00000000 -1.00000000
vn -0.00000000 0.00000000 -1.00000000
vt 0.00000000 0.00000000
vt 0.00000000 0.52605600
vt 0.40681600 0.00000000
vt 0.40681600 0.52605600
vt 0.40681600 0.00000000
vt 0.40681600 0.52605600
vt 0.40936100 0.00000000
vt 0.40936100 0.52605600
vt 0.41190700 0.00000000
vt 0.41190700 0.52605600
vt 0.41445300 0.00000000
vt 0.41445300 0.52605600
vt 0.41699800 0.00000000
vt 0.41699800 0.52605600
vt 0.41954400 0.00000000
vt 0.41954400 0.52605600
vt 0.42209000 0.00000000
vt 0.42209000 0.52605600
vt 0.42463500 0.00000000
vt 0.42463500 0.52605600
vt 0.42718100 0.00000000
vt 0.42718100 0.52605600
vt 0.42972700 0.00000000
vt 0.42972700 0.52605600
vt 0.43227300 0.00000000
vt 0.43227300 0.52605600
vt 0.43481800 0.00000000
vt 0.43481800 0.52605600
vt 0.43736400 0.00000000
vt 0.43736400 0.52605600
vt 0.43991000 0.00000000
vt 0.43991000 0.52605600
vt 0.44245500 0.00000000
vt 0.44245500 0.52605600
vt 0.44500100 0.00000000
vt 0.44500100 0.52605600
vt 0.44754700 0.00000000
vt 0.44754700 0.52605600
vt 0.45368800 0.00000000
vt 0.45368800 0.52605600
vt 0.45719800 0.00000000
vt 0.45719800 0.52605600
vt 0.46070900 0.00000000
vt 0.46070900 0.52605600
vt 0.46421900 0.00000000
vt 0.46421900 0.52605600
vt 0.46772900 0.00000000
vt 0.46772900 0.52605600
vt 0.47124000 0.00000000
vt 0.47124000 0.52605600
vt 0.47475000 0.00000000
vt 0.47475000 0.52605600
vt 0.47650500 0.00000000
vt 0.47650500 0.52605600
vt 0.47826000 0.00000000
vt 0.47826000 0.52605600
vt 0.48001600 0.00000000
vt 0.48001600 0.52605600
vt 0.48177100 0.00000000
vt 0.48177100 0.52605600
vt 0.48352600 0.00000000
vt 0.48352600 0.52605600
vt 0.48528100 0.00000000
vt 0.48528100 0.52605600
vt 0.48703600 0.00000000
vt 0.48703600 0.52605600
vt 0.48879200 0.00000000
vt 0.48879200 0.52605600
vt 0.49230200 0.00000000
vt 0.49230200 0.52605600
vt 0.49581200 0.00000000
vt 0.49581200 0.52605600
vt 0.49932300 0.00000000
vt 0.49932300 0.52605600
vt 0.50283300 0.00000000
vt 0.50283300 0.52605600
vt 0.50634300 0.00000000
vt 0.50634300 0.52605600
vt 0.50985400 0.00000000
vt 0.50985400 0.52605600
vt 0.90343700 0.00000000
vt 0.90343700 0.52605600
vt 0.90694700 0.00000000
vt 0.90694700 0.52605600
vt 0.91045800 0.00000000
vt 0.91045800 0.52605600
vt 0.91396800 0.00000000
vt 0.91396800 0.52605600
vt 0.91747800 0.00000000
vt 0.91747800 0.52605600
vt 0.92098900 0.00000000
vt 0.92098900 0.52605600
vt 0.92449900 0.00000000
vt 0.92449900 0.52605600
vt 0.92625400 0.00000000
vt 0.92625400 0.52605600
vt 0.92801000 0.00000000
vt 0.92801000 0.52605600
vt 0.92976500 0.00000000
vt 0.92976500 0.52605600
vt 0.93152000 0.00000000
vt 0.93152000 0.52605600
vt 0.93327500 0.00000000
vt 0.93327500 0.52605600
vt 0.93503000 0.00000000
vt 0.93503000 0.52605600
vt 0.93678500 0.00000000
vt 0.93678500 0.52605600
vt 0.93854100 0.00000000
vt 0.93854100 0.52605600
vt 0.94205100 0.00000000
vt 0.94205100 0.52605600
vt 0.94556100 0.00000000
vt 0.94556100 0.52605600
vt 0.94907200 0.00000000
vt 0.94907200 0.52605600
vt 0.95258200 0.00000000
vt 0.95258200 0.52605600
vt 0.95609200 0.00000000
vt 0.95609200 0.52605600
vt 0.95960300 0.00000000
vt 0.95960300 0.52605600
vt 0.96574400 0.00000000
vt 0.96574400 0.52605600
vt 0.96788500 0.00000000
vt 0.96788500 0.52605600
vt 0.97002600 0.00000000
vt 0.97002600 0.52605600
vt 0.97216700 0.00000000
vt 0.97216700 0.52605600
vt 0.97430800 0.00000000
vt 0.97430800 0.52605600
vt 0.97644900 0.00000000
vt 0.97644900 0.52605600
vt 0.97859000 0.00000000
vt 0.97859000 0.52605600
vt 0.98073100 0.00000000
vt 0.98073100 0.52605600
vt 0.98287200 0.00000000
vt 0.98287200 0.52605600
vt 0.98501300 0.00000000
vt 0.98501300 0.52605600
vt 0.98715400 0.00000000
vt 0.98715400 0.52605600
vt 0.98929500 0.00000000
vt 0.98929500 0.52605600
vt 0.99143600 0.00000000
vt 0.99143600 0.52605600
vt 0.99357700 0.00000000
vt 0.99357700 0.52605600
vt 0.99571800 0.00000000
vt 0.99571800 0.52605600
vt 0.99785900 0.00000000
vt 0.99785900 0.52605600
vt 1.00000000 0.00000000
vt 1.00000000 0.52605600
vt 0.01927700 1.00000000
vt 0.43998400 1.00000000
vt 0.44196800 0.99575700
vt 0.44393400 0.99026700
vt 0.44586000 0.98352300
vt 0.44586000 0.98352300
vt 0.44772200 0.97554500
vt 0.44949800 0.96638300
vt 0.44949800 0.96638300
vt 0.45116600 0.95611300
vt 0.45270700 0.94483900
vt 0.45410400 0.93268800
vt 0.45534400 0.91980300
vt 0.45641500 0.90634100
vt 0.45731400 0.89246500
vt 0.45731400 0.89246500
vt 0.45803700 0.87833800
vt 0.45858700 0.86412000
vt 0.45858700 0.86412000
vt 0.45896900 0.84995900
vt 0.45896900 0.84995900
vt 0.45919000 0.83598900
vt 0.45926100 0.82232700
vt 0.45926100 0.82232700
vt 0.45926100 0.77890000
vt 0.45911800 0.75618100
vt 0.45867200 0.73289200
vt 0.45789800 0.70932800
vt 0.45678200 0.68583000
vt 0.45531700 0.66277000
vt 0.45350600 0.64054100
vt 0.45247500 0.62986100
vt 0.45136500 0.61953300
vt 0.45017800 0.60960300
vt 0.44892000 0.60011300
vt 0.44759500 0.59110100
vt 0.44620800 0.58260400
vt 0.44476600 0.57465200
vt 0.44327500 0.56727100
vt 0.44017100 0.55430300
vt 0.43695100 0.54380900
vt 0.43366900 0.53581700
vt 0.43037900 0.53027800
vt 0.42712700 0.52707900
vt 0.42395400 0.52605700
vt 0.03530700 0.52605700
vt 0.03213500 0.52707900
vt 0.02888200 0.53027800
vt 0.02559200 0.53581700
vt 0.02231100 0.54380900
vt 0.01909100 0.55430300
vt 0.01598700 0.56727100
vt 0.01449500 0.57465200
vt 0.01305300 0.58260400
vt 0.01166600 0.59110100
vt 0.01034100 0.60011300
vt 0.00908300 0.60960300
vt 0.00789600 0.61953300
vt 0.00678600 0.62986100
vt 0.00575500 0.64054100
vt 0.00394400 0.66277000
vt 0.00247900 0.68583000
vt 0.00136300 0.70932800
vt 0.00058900 0.73289200
vt 0.00014300 0.75618100
vt 0.00000000 0.77890000
vt 0.00000000 0.82232700
vt 0.00007100 0.83598900
vt 0.00007100 0.83598900
vt 0.00029200 0.84995900
vt 0.00067400 0.86412000
vt 0.00067400 0.86412000
vt 0.00067400 0.86412000
vt 0.00122400 0.87833800
vt 0.00194700 0.89246500
vt 0.00194700 0.89246500
vt 0.00284600 0.90634100
vt 0.00391800 0.91980300
vt 0.00515700 0.93268800
vt 0.00655400 0.94483900
vt 0.00809500 0.95611300
vt 0.00976400 0.96638300
vt 0.00976400 0.96638300
vt 0.01153900 0.97554500
vt 0.01340200 0.98352300
vt 0.01340200 0.98352300
vt 0.01532700 0.99026700
vt 0.01729300 0.99575700
vt 0.01927700 0.52605700
vt 0.43998400 0.52605700
vt 0.44196800 0.53029900
vt 0.44393400 0.53578900
vt 0.44586000 0.54253400
vt 0.44772200 0.55051200
vt 0.44949800 0.55967400
vt 0.44949800 0.55967400
vt 0.45116600 0.56994400
vt 0.45270700 0.58121700
vt 0.45270700 0.58121700
vt 0.45410400 0.59336900
vt 0.45534400 0.60625400
vt 0.45641500 0.61971600
vt 0.45731400 0.63359200
vt 0.45731400 0.63359200
vt 0.45803700 0.64771800
vt 0.45858700 0.66193600
vt 0.45858700 0.66193600
vt 0.45896900 0.67609800
vt 0.45896900 0.67609800
vt 0.45919000 0.69006800
vt 0.45926100 0.70373000
vt 0.45926100 0.70373000
vt 0.45926100 0.74715700
vt 0.45911800 0.76987600
vt 0.45867200 0.79316500
vt 0.45789800 0.81672900
vt 0.45678200 0.84022700
vt 0.45531700 0.86328600
vt 0.45350600 0.88551500
vt 0.45247500 0.89619600
vt 0.45136500 0.90652300
vt 0.45017800 0.91645400
vt 0.44892000 0.92594400
vt 0.44759500 0.93495500
vt 0.44620800 0.94345200
vt 0.44476600 0.95140500
vt 0.44327500 0.95878500
vt 0.44017100 0.97175300
vt 0.43695100 0.98224700
vt 0.43366900 0.99024000
vt 0.43037900 0.99577900
vt 0.42712700 0.99897700
vt 0.42395400 1.00000000
vt 0.03530700 1.00000000
vt 0.03213500 0.99897700
vt 0.02888200 0.99577900
vt 0.02559200 0.99024000
vt 0.02231100 0.98224700
vt 0.01909100 0.97175300
vt 0.01598700 0.95878500
vt 0.01449500 0.95140500
vt 0.01305300 0.94345200
vt 0.01166600 0.93495500
vt 0.01034100 0.92594400
vt 0.00908300 0.91645400
vt 0.00789600 0.90652300
vt 0.00678600 0.89619600
vt 0.00575500 0.88551500
vt 0.00394400 0.86328600
vt 0.00247900 0.84022700
vt 0.00136300 0.81672900
vt 0.00058900 0.79316500
vt 0.00014300 0.76987600
vt 0.00000000 0.74715700
vt 0.00000000 0.70373000
vt 0.00007100 0.69006800
vt 0.00029200 0.67609800
vt 0.00067400 0.66193600
vt 0.00067400 0.66193600
vt 0.00122400 0.64771800
vt 0.00194700 0.63359200
vt 0.00194700 0.63359200
vt 0.00284600 0.61971600
vt 0.00391800 0.60625400
vt 0.00515700 0.59336900
vt 0.00655400 0.58121700
vt 0.00809500 0.56994400
vt 0.00809500 0.56994400
vt 0.00976400 0.55967400
vt 0.00976400 0.55967400
vt 0.01153900 0.55051200
vt 0.01340200 0.54253400
vt 0.01340200 0.54253400
vt 0.01532700 0.53578900
vt 0.01729300 0.53029900
f 1/1/1 3/3/3 4/4/4
f 5/5/5 7/7/7 8/8/8
f 7/7/7 9/9/9 10/10/10
f 9/9/9 11/11/11 12/12/12
f 11/11/11 13/13/13 14/14/14
f 13/13/13 15/15/15 16/16/16
f 15/15/15 17/17/17 18/18/18
f 17/17/17 19/19/19 20/20/20
f 19/19/19 21/21/21 22/22/22
f 21/21/21 23/23/23 24/24/24
f 23/23/23 25/25/25 26/26/26
f 25/25/25 27/27/27 28/28/28
f 27/27/27 29/29/29 30/30/30
f 29/29/29 31/31/31 32/32/32
f 31/31/31 33/33/33 34/34/34
f 33/33/33 35/35/35 36/36/36
f 35/35/35 37/37/37 38/38/38
f 37/37/37 39/39/39 40/40/40
f 39/39/39 41/41/41 42/42/42
f 41/41/41 43/43/43 44/44/44
f 43/43/43 45/45/45 46/46/46
f 45/45/45 47/47/47 48/48/48
f 47/47/47 49/49/49 50/50/50
f 49/49/49 51/51/51 52/52/52
f 51/51/51 53/53/53 54/54/54
f 53/53/53 55/55/55 56/56/56
f 55/55/55 57/57/57 58/58/58
f 57/57/57 59/59/59 60/60/60
f 59/59/59 61/61/61 62/62/62
f 61/61/61 63/63/63 64/64/64
f 63/63/63 65/65/65 66/66/66
f 65/65/65 67/67/67 68/68/68
f 67/67/67 69/69/69 70/70/70
f 69/69/69 71/71/71 72/72/72
f 71/71/71 73/73/73 74/74/74
f 73/73/73 75/75/75 76/76/76
f 75/75/75 77/77/77 78/78/78
f 77/77/77 79/79/79 80/80/80
f 79/79/79 81/81/81 82/82/82
f 81/81/81 83/83/83 84/84/84
f 83/83/83 85/85/85 86/86/86
f 85/85/85 87/87/87 88/88/88
f 87/87/87 89/89/89 90/90/90
f 89/89/89 91/91/91 92/92/92
f 91/91/91 93/93/93 94/94/94
f 93/93/93 95/95/95 96/96/96
f 95/95/95 97/97/97 98/98/98
f 97/97/97 99/99/99 100/100/100
f 99/99/99 101/101/101 102/102/102
f 101/101/101 103/103/103 104/104/104
f 103/103/103 105/105/105 106/106/106
f 105/105/105 107/107/107 108/108/108
f 107/107/107 109/109/109 110/110/110
f 109/109/109 111/111/111 112/112/112
f 111/111/111 113/113/113 114/114/114
f 113/113/113 115/115/115 116/116/116
f 115/115/115 117/117/117 118/118/118
f 117/117/117 119/119/119 120/120/120
f 119/119/119 121/121/121 122/122/122
f 121/121/121 123/123/123 124/124/124
f 123/123/123 125/125/125 126/126/126
f 125/125/125 127/127/127 128/128/128
f 127/127/127 129/129/129 130/130/130
f 129/129/129 131/131/131 132/132/132
f 131/131/131 133/133/133 134/134/134
f 133/133/133 135/135/135 136/136/136
f 135/135/135 137/137/137 138/138/138
f 137/137/137 139/139/139 140/140/140
f 139/139/139 141/141/141 142/142/142
f 141/141/141 143/143/143 144/144/144
f 143/143/143 145/145/145 146/146/146
f 145/145/145 147/147/147 148/148/148
f 147/147/147 149/149/149 150/150/150
f 149/149/149 151/151/151 152/152/152
f 151/151/151 153/153/153 154/154/154
f 153/153/153 155/155/155 156/156/156
f 231/231/231 230/230/230 227/227/227
f 157/157/157 228/228/228 224/224/224
f 157/157/157 232/232/232 228/228/228
f 157/157/157 224/224/224 223/223/223
f 223/223/223 222/222/222 157/157/157
f 157/157/157 222/222/222 221/221/221
f 226/226/226 225/225/225 229/229/229
f 232/232/232 157/157/157 233/233/233
f 241/241/241 240/240/240 239/239/239
f 237/237/237 244/244/244 242/242/242
f 243/243/243 242/242/242 244/244/244
f 244/244/244 237/237/237 157/157/157
f 237/237/237 235/235/235 234/234/234
f 237/237/237 242/242/242 238/238/238
f 236/236/236 235/235/235 237/237/237
f 234/234/234 157/157/157 237/237/237
f 234/234/234 233/233/233 157/157/157
f 220/220/220 157/157/157 221/221/221
f 219/219/219 157/157/157 220/220/220
f 157/157/157 218/218/218 217/217/217
f 219/219/219 218/218/218 157/157/157
f 215/215/215 157/157/157 216/216/216
f 215/215/215 214/214/214 157/157/157
f 212/212/212 157/157/157 213/213/213
f 214/214/214 213/213/213 157/157/157
f 157/157/157 217/217/217 216/216/216
f 212/212/212 211/211/211 157/157/157
f 210/210/210 209/209/209 157/157/157
f 157/157/157 209/209/209 208/208/208
f 210/210/210 157/157/157 211/211/211
f 205/205/205 157/157/157 206/206/206
f 205/205/205 204/204/204 157/157/157
f 207/207/207 157/157/157 208/208/208
f 207/207/207 206/206/206 157/157/157
f 204/204/204 203/203/203 157/157/157
f 203/203/203 202/202/202 157/157/157
f 202/202/202 158/158/158 157/157/157
f 161/161/161 159/159/159 158/158/158
f 159/159/159 161/161/161 160/160/160
f 161/161/161 158/158/158 176/176/176
f 161/161/161 168/168/168 164/164/164
f 164/164/164 168/168/168 167/167/167
f 166/166/166 164/164/164 167/167/167
f 163/163/163 162/162/162 165/165/165
f 168/168/168 161/161/161 176/176/176
f 176/176/176 170/170/170 168/168/168
f 174/174/174 173/173/173 172/172/172
f 176/176/176 171/171/171 170/170/170
f 171/171/171 176/176/176 175/175/175
f 158/158/158 180/180/180 176/176/176
f 158/158/158 182/182/182 181/181/181
f 181/181/181 180/180/180 158/158/158
f 178/178/178 177/177/177 179/179/179
f 169/169/169 168/168/168 170/170/170
f 183/183/183 182/182/182 158/158/158
f 195/195/195 158/158/158 196/196/196
f 158/158/158 195/195/195 194/194/194
f 158/158/158 194/194/194 193/193/193
f 200/200/200 158/158/158 201/201/201
f 197/197/197 196/196/196 158/158/158
f 158/158/158 199/199/199 198/198/198
f 158/158/158 198/198/198 197/197/197
f 158/158/158 200/200/200 199/199/199
f 190/190/190 158/158/158 191/191/191
f 185/185/185 184/184/184 158/158/158
f 158/158/158 186/186/186 185/185/185
f 158/158/158 188/188/188 187/187/187
f 193/193/193 192/192/192 158/158/158
f 190/190/190 189/189/189 158/158/158
f 158/158/158 192/192/192 191/191/191
f 188/188/188 158/158/158 189/189/189
f 158/158/158 187/187/187 186/186/186
f 183/183/183 158/158/158 184/184/184
f 202/202/202 201/201/201 158/158/158
f 317/317/317 315/315/315 316/316/316
f 245/245/245 312/312/312 314/314/314
f 245/245/245 314/314/314 318/318/318
f 245/245/245 311/311/311 312/312/312
f 311/311/311 245/245/245 310/310/310
f 245/245/245 309/309/309 310/310/310
f 313/313/313 314/314/314 312/312/312
f 318/318/318 319/319/319 245/245/245
f 329/329/329 326/326/326 327/327/327
f 323/323/323 329/329/329 331/331/331
f 330/330/330 331/331/331 329/329/329
f 331/331/331 245/245/245 323/323/323
f 323/323/323 320/320/320 321/321/321
f 324/324/324 325/325/325 328/328/328
f 322/322/322 323/323/323 321/321/321
f 320/320/320 323/323/323 245/245/245
f 320/320/320 245/245/245 319/319/319
f 308/308/308 309/309/309 245/245/245
f 307/307/307 308/308/308 245/245/245
f 245/245/245 305/305/305 306/306/306
f 307/307/307 245/245/245 306/306/306
f 303/303/303 304/304/304 245/245/245
f 303/303/303 245/245/245 302/302/302
f 300/300/300 301/301/301 245/245/245
f 302/302/302 245/245/245 301/301/301
f 245/245/245 304/304/304 305/305/305
f 300/300/300 245/245/245 299/299/299
f 298/298/298 245/245/245 297/297/297
f 245/245/245 296/296/296 297/297/297
f 298/298/298 299/299/299 245/245/245
f 293/293/293 294/294/294 245/245/245
f 293/293/293 245/245/245 292/292/292
f 295/295/295 296/296/296 245/245/245
f 295/295/295 245/245/245 294/294/294
f 292/292/292 245/245/245 291/291/291
f 291/291/291 245/245/245 290/290/290
f 290/290/290 245/245/245 246/246/246
f 249/249/249 246/246/246 247/247/247
f 247/247/247 248/248/248 249/249/249
f 249/249/249 264/264/264 246/246/246
f 249/249/249 252/252/252 256/256/256
f 252/252/252 255/255/255 256/256/256
f 253/253/253 254/254/254 251/251/251
f 250/250/250 252/252/252 249/249/249
f 256/256/256 264/264/264 249/249/249
f 264/264/264 256/256/256 258/258/258
f 262/262/262 260/260/260 261/261/261
f 264/264/264 258/258/258 259/259/259
f 259/259/259 263/263/263 264/264/264
f 246/246/246 264/264/264 267/267/267
f 246/246/246 269/269/269 270/270/270
f 269/269/269 246/246/246 267/267/267
f 266/266/266 268/268/268 265/265/265
f 257/257/257 258/258/258 256/256/256
f 271/271/271 246/246/246 270/270/270
f 283/283/283 284/284/284 246/246/246
f 246/246/246 282/282/282 283/283/283
f 246/246/246 281/281/281 282/282/282
f 288/288/288 289/289/289 246/246/246
f 285/285/285 246/246/246 284/284/284
f 246/246/246 286/286/286 287/287/287
f 246/246/246 285/285/285 286/286/286
f 246/246/246 287/287/287 288/288/288
f 278/278/278 279/279/279 246/246/246
f 273/273/273 246/246/246 272/272/272
f 246/246/246 273/273/273 274/274/274
f 246/246/246 275/275/275 276/276/276
f 281/281/281 246/246/246 280/280/280
f 278/278/278 246/246/246 277/277/277
f 246/246/246 279/279/279 280/280/280
f 276/276/276 277/277/277 246/246/246
f 246/246/246 274/274/274 275/275/275
f 271/271/271 272/272/272 246/246/246
f 290/290/290 246/246/246 289/289/289
f 1/1/1 4/4/4 2/2/2
f 5/5/5 8/8/8 6/6/6
f 7/7/7 10/10/10 8/8/8
f 9/9/9 12/12/12 10/10/10
f 11/11/11 14/14/14 12/12/12
f 13/13/13 16/16/16 14/14/14
f 15/15/15 18/18/18 16/16/16
f 17/17/17 20/20/20 18/18/18
f 19/19/19 22/22/22 20/20/20
f 21/21/21 24/24/24 22/22/22
f 23/23/23 26/26/26 24/24/24
f 25/25/25 28/28/28 26/26/26
f 27/27/27 30/30/30 28/28/28
f 29/29/29 32/32/32 30/30/30
f 31/31/31 34/34/34 32/32/32
f 33/33/33 36/36/36 34/34/34
f 35/35/35 38/38/38 36/36/36
f 37/37/37 40/40/40 38/38/38
f 39/39/39 42/42/42 40/40/40
f 41/41/41 44/44/44 42/42/42
f 43/43/43 46/46/46 44/44/44
f 45/45/45 48/48/48 46/46/46
f 47/47/47 50/50/50 48/48/48
f 49/49/49 52/52/52 50/50/50
f 51/51/51 54/54/54 52/52/52
f 53/53/53 56/56/56 54/54/54
f 55/55/55 58/58/58 56/56/56
f 57/57/57 60/60/60 58/58/58
f 59/59/59 62/62/62 60/60/60
f 61/61/61 64/64/64 62/62/62
f 63/63/63 66/66/66 64/64/64
f 65/65/65 68/68/68 66/66/66
f 67/67/67 70/70/70 68/68/68
f 69/69/69 72/72/72 70/70/70
f 71/71/71 74/74/74 72/72/72
f 73/73/73 76/76/76 74/74/74
f 75/75/75 78/78/78 76/76/76
f 77/77/77 80/80/80 78/78/78
f 79/79/79 82/82/82 80/80/80
f 81/81/81 84/84/84 82/82/82
f 83/83/83 86/86/86 84/84/84
f 85/85/85 88/88/88 86/86/86
f 87/87/87 90/90/90 88/88/88
f 89/89/89 92/92/92 90/90/90
f 91/91/91 94/94/94 92/92/92
f 93/93/93 96/96/96 94/94/94
f 95/95/95 98/98/98 96/96/96
f 97/97/97 100/100/100 98/98/98
f 99/99/99 102/102/102 100/100/100
f 101/101/101 104/104/104 102/102/102
f 103/103/103 106/106/106 104/104/104
f 105/105/105 108/108/108 106/106/106
f 107/107/107 110/110/110 108/108/108
f 109/109/109 112/112/112 110/110/110
f 111/111/111 114/114/114 112/112/112
f 113/113/113 116/116/116 114/114/114
f 115/115/115 118/118/118 116/116/116
f 117/117/117 120/120/120 118/118/118
f 119/119/119 122/122/122 120/120/120
f 121/121/121 124/124/124 122/122/122
f 123/123/123 126/126/126 124/124/124
f 125/125/125 128/128/128 126/126/126
f 127/127/127 130/130/130 128/128/128
f 129/129/129 132/132/132 130/130/130
f 131/131/131 134/134/134 132/132/132
f 133/133/133 136/136/136 134/134/134
f 135/135/135 138/138/138 136/136/136
f 137/137/137 140/140/140 138/138/138
f 139/139/139 142/142/142 140/140/140
f 141/141/141 144/144/144 142/142/142
f 143/143/143 146/146/146 144/144/144
f 145/145/145 148/148/148 146/146/146
f 147/147/147 150/150/150 148/148/148
f 149/149/149 152/152/152 150/150/150
f 151/151/151 154/154/154 152/152/152
f 153/153/153 156/156/156 154/154/154

