# Blender v3.6.23 OBJ File: ''
# www.blender.org
mtllib fr_hipx.mtl
o Mesh_mesh-a4987750-0333-4dd9-861d-dcc07e5c54d9
v -0.042371 -0.010550 -0.019873
v -0.033392 -0.010550 -0.032790
v -0.020033 0.007000 -0.042296
v -0.020033 -0.010550 -0.042296
v -0.005100 0.007000 -0.046521
v -0.005100 -0.010550 -0.046521
v 0.009975 0.007000 -0.045725
v 0.009975 -0.010550 -0.045725
v 0.024823 0.007000 -0.039674
v 0.024823 -0.010550 -0.039674
v 0.036945 0.007000 -0.028729
v 0.036945 -0.010550 -0.028729
v 0.044459 0.007000 -0.014615
v 0.044459 -0.010550 -0.014615
v 0.046800 0.007000 -0.000000
v 0.046800 -0.010550 -0.000000
v 0.046800 -0.001775 -0.000000
v -0.041404 -0.005472 -0.021826
v -0.041036 0.000000 -0.022500
v -0.041629 0.007000 -0.021383
v 0.046800 0.007000 -0.000000
v 0.044220 0.007000 0.015324
v 0.036340 0.007000 0.029490
v 0.024003 0.007000 0.040176
v 0.009411 0.007000 0.045844
v -0.005448 0.007000 0.046482
v -0.020497 0.007000 0.042073
v -0.033343 0.007000 0.032840
v -0.041629 0.007000 0.021383
v -0.032148 0.007000 0.021383
v -0.032148 0.007000 -0.021383
v -0.041629 0.007000 -0.021383
v -0.020033 0.007000 -0.042296
v -0.005100 0.007000 -0.046521
v 0.009975 0.007000 -0.045725
v 0.024823 0.007000 -0.039674
v 0.036945 0.007000 -0.028729
v 0.044459 0.007000 -0.014615
v 0.046800 -0.010550 -0.000000
v 0.044220 -0.010550 0.015324
v 0.036340 -0.010550 0.029490
v 0.024003 -0.010550 0.040176
v 0.009411 -0.010550 0.045844
v -0.005448 -0.010550 0.046482
v -0.020497 -0.010550 0.042073
v -0.033343 -0.010550 0.032840
v -0.042371 -0.010550 0.019873
v -0.032148 -0.010550 0.019873
v -0.032148 -0.010550 -0.019873
v -0.042371 -0.010550 -0.019873
v -0.033392 -0.010550 -0.032790
v -0.020033 -0.010550 -0.042296
v -0.005100 -0.010550 -0.046521
v 0.009975 -0.010550 -0.045725
v 0.024823 -0.010550 -0.039674
v 0.036945 -0.010550 -0.028729
v 0.044459 -0.010550 -0.014615
v -0.058950 0.022500 -0.000000
v -0.058950 0.020813 0.008548
v -0.058950 0.015743 0.016075
v -0.058950 0.008178 0.020961
v -0.058950 -0.000000 0.022500
v -0.058950 -0.008548 0.020813
v -0.058950 -0.016075 0.015743
v -0.058950 -0.020961 0.008178
v -0.058950 -0.022500 -0.000000
v -0.058950 -0.020813 -0.008548
v -0.058950 -0.015743 -0.016075
v -0.058950 -0.008178 -0.020961
v -0.058950 0.000000 -0.022500
v -0.058950 0.008548 -0.020813
v -0.058950 0.016075 -0.015743
v -0.058950 0.020961 -0.008178
v -0.032148 0.007000 -0.021383
v -0.032148 0.022500 -0.000000
v -0.032148 0.020813 0.008548
v -0.032148 0.015743 0.016075
v -0.032148 0.007000 0.021383
v -0.032148 0.008548 -0.020813
v -0.032148 0.016075 -0.015743
v -0.032148 0.020961 -0.008178
v 0.046800 0.007000 -0.000000
v 0.046800 -0.010550 -0.000000
v 0.044220 0.007000 0.015324
v 0.044220 -0.010550 0.015324
v 0.036340 0.007000 0.029490
v 0.036340 -0.010550 0.029490
v 0.024003 0.007000 0.040176
v 0.024003 -0.010550 0.040176
v 0.009411 0.007000 0.045844
v 0.009411 -0.010550 0.045844
v -0.005448 0.007000 0.046482
v -0.005448 -0.010550 0.046482
v -0.020497 0.007000 0.042073
v -0.020497 -0.010550 0.042073
v -0.033343 0.007000 0.032840
v -0.033343 -0.010550 0.032840
v -0.042371 -0.010550 0.019873
v -0.041629 0.007000 0.021383
v 0.046800 -0.001775 -0.000000
v -0.041036 -0.000000 0.022500
v -0.041404 -0.005472 0.021826
v -0.058950 0.022500 -0.000000
v -0.032148 0.022500 -0.000000
v -0.058950 0.020813 0.008548
v -0.032148 0.020813 0.008548
v -0.058950 0.015743 0.016075
v -0.032148 0.015743 0.016075
v -0.058950 0.008178 0.020961
v -0.058950 -0.000000 0.022500
v -0.058950 -0.008548 0.020813
v -0.058950 -0.016075 0.015743
v -0.058950 -0.020961 0.008178
v -0.058950 -0.022500 -0.000000
v -0.032148 -0.022500 -0.000000
v -0.058950 -0.020813 -0.008548
v -0.058950 -0.015743 -0.016075
v -0.058950 -0.008178 -0.020961
v -0.058950 0.000000 -0.022500
v -0.058950 0.008548 -0.020813
v -0.032148 0.008548 -0.020813
v -0.058950 0.016075 -0.015743
v -0.032148 0.016075 -0.015743
v -0.058950 0.020961 -0.008178
v -0.032148 0.020961 -0.008178
v -0.058950 0.022500 -0.000000
v -0.032148 0.022500 -0.000000
v -0.032148 0.007000 0.021383
v -0.042371 -0.010550 0.019873
v -0.041404 -0.005472 0.021826
v -0.041036 -0.000000 0.022500
v -0.041629 0.007000 0.021383
v -0.041629 0.007000 -0.021383
v -0.041036 0.000000 -0.022500
v -0.041404 -0.005472 -0.021826
v -0.042371 -0.010550 -0.019873
v -0.045549 0.008548 -0.020813
v -0.032148 0.007000 -0.021383
v -0.032148 -0.010550 0.019873
v -0.032148 -0.010550 -0.019873
v -0.038849 0.008548 -0.020813
v -0.045549 0.012532 -0.018687
v -0.035498 0.008548 -0.020813
v -0.038849 0.007474 -0.021222
v -0.035498 0.007474 -0.021222
v -0.038849 0.012532 -0.018687
v -0.045549 0.010579 -0.019858
v -0.038849 0.010579 -0.019858
v -0.032148 -0.015628 -0.016187
v -0.032148 -0.019498 -0.011229
v -0.032148 -0.019498 0.011229
v -0.032148 -0.015628 0.016187
v -0.032148 -0.010550 0.019873
v -0.032148 -0.010550 -0.019873
v -0.032148 -0.015628 0.016187
v -0.032148 -0.019498 0.011229
v -0.032148 -0.022500 -0.000000
v -0.032148 -0.019498 -0.011229
v -0.032148 -0.015628 -0.016187
vt 0.878230 0.139538
vt 0.847393 0.012929
vt 0.878230 0.007398
vt 0.800918 0.068337
vt 0.878230 0.210979
vt 0.800918 0.210979
vt 0.800918 0.139538
vt 0.878230 0.284473
vt 0.800918 0.000000
vt 0.823286 0.009575
vt 0.878230 0.426900
vt 0.800918 0.426900
vt 0.800918 0.356430
vt 0.839574 0.567839
vt 0.878230 0.497369
vt 0.878230 0.567839
vt 0.800918 0.497369
vt 0.878230 0.356430
vt 0.800918 0.284473
vt 0.010467 0.674509
vt 0.353068 0.704890
vt 0.011538 0.540120
vt 0.353068 0.512922
vt 0.046778 0.476536
vt 0.101952 0.428568
vt 0.000000 0.608906
vt 0.044075 0.737861
vt 0.098284 0.786993
vt 0.164689 0.814151
vt 0.167210 0.403125
vt 0.300963 0.420054
vt 0.233660 0.400263
vt 0.395468 0.512922
vt 0.358413 0.461497
vt 0.232103 0.817727
vt 0.298886 0.798759
vt 0.395468 0.704890
vt 0.298026 0.353079
vt 0.208821 0.000000
vt 0.277607 0.011539
vt 0.341191 0.046779
vt 0.389159 0.101955
vt 0.119615 0.353079
vt 0.143218 0.010468
vt 0.079866 0.044076
vt 0.030734 0.098288
vt 0.003576 0.164694
vt 0.414602 0.167216
vt 0.417465 0.233667
vt 0.397673 0.300973
vt 0.298026 0.398798
vt 0.356230 0.358424
vt 0.018968 0.298896
vt 0.000000 0.232110
vt 0.061635 0.358642
vt 0.119615 0.398798
vt 0.568829 0.430591
vt 0.535288 0.407835
vt 0.497197 0.400263
vt 0.589943 0.539628
vt 0.427042 0.429104
vt 0.590604 0.464552
vt 0.460756 0.407169
vt 0.404451 0.462889
vt 0.597461 0.501259
vt 0.533638 0.595348
vt 0.567352 0.573414
vt 0.459106 0.594682
vt 0.497197 0.602255
vt 0.396933 0.501259
vt 0.403790 0.537966
vt 0.425565 0.571926
vt 0.738104 0.132691
vt 0.731342 0.095984
vt 0.738755 0.057615
vt 0.759576 0.166651
vt 0.761033 0.023829
vt 0.792650 0.189408
vt 0.799453 0.000000
vt 0.799453 0.191968
vt 0.637581 0.400263
vt 0.676237 0.400263
vt 0.676237 0.473920
vt 0.676237 0.615285
vt 0.598925 0.615285
vt 0.598925 0.544998
vt 0.676237 0.685573
vt 0.676237 0.544998
vt 0.598925 0.473920
vt 0.598925 0.400263
vt 0.676237 0.829719
vt 0.598925 0.829719
vt 0.598925 0.757880
vt 0.645401 0.953739
vt 0.676237 0.898177
vt 0.676237 0.959256
vt 0.598925 0.898177
vt 0.676237 0.757880
vt 0.598925 0.685573
vt 0.598925 0.966635
vt 0.621294 0.957084
vt 0.894549 0.516877
vt 0.894549 0.511760
vt 0.909405 0.511760
vt 0.909405 0.526724
vt 0.909405 0.516877
vt 0.939115 0.516877
vt 0.909405 0.536571
vt 0.939115 0.526724
vt 0.998535 0.040933
vt 0.879694 0.040933
vt 0.879694 0.000000
vt 0.998535 0.080321
vt 0.879694 0.080321
vt 0.998535 0.158648
vt 0.921734 0.125077
vt 0.998535 0.119485
vt 0.998535 0.199581
vt 0.920716 0.185000
vt 0.879694 0.236289
vt 0.925022 0.209287
vt 0.998535 0.238969
vt 0.998535 0.278133
vt 0.879694 0.263291
vt 0.998535 0.317296
vt 0.998535 0.358229
vt 0.879694 0.317296
vt 0.998535 0.397617
vt 0.879694 0.371301
vt 0.919105 0.158648
vt 0.879694 0.125077
vt 0.879694 0.209287
vt 0.879694 0.398303
vt 0.925022 0.425305
vt 0.920716 0.449592
vt 0.998535 0.436781
vt 0.998535 0.475944
vt 0.921734 0.509515
vt 0.998535 0.516877
vt 0.919105 0.475944
vt 0.879694 0.556265
vt 0.939115 0.536571
vt 0.998535 0.556265
vt 0.998535 0.595429
vt 0.879694 0.595429
vt 0.998535 0.634592
vt 0.879694 0.634592
vt 0.879694 0.509515
vt 0.879694 0.516877
vt 0.879694 0.425305
vt 0.677702 0.178411
vt 0.677702 0.000000
vt 0.699873 0.016546
vt 0.699873 0.161865
vt 0.716770 0.139607
vt 0.716770 0.038804
vt 0.729878 0.089205
vt 0.800918 0.567839
vt 0.998535 0.000000
vn -0.4281 0.0000 -0.9037
vn -0.8769 -0.0000 -0.4808
vn -0.8895 0.0000 -0.4569
vn -0.7135 0.0000 -0.7006
vn -0.1090 0.0000 -0.9940
vn 0.2131 0.0000 -0.9770
vn -0.9054 -0.0000 -0.4246
vn -0.8846 0.0000 -0.4663
vn 0.7894 0.0000 -0.6139
vn 0.5305 0.0000 -0.8477
vn 1.0000 0.0000 0.0000
vn 0.9500 0.0000 -0.3123
vn 0.5304 -0.0000 -0.8477
vn 0.0000 1.0000 0.0000
vn 0.0000 -1.0000 0.0000
vn -1.0000 -0.0000 0.0000
vn 0.9449 0.0000 0.3275
vn 0.5129 0.0000 0.8584
vn 0.7764 0.0000 0.6302
vn 0.2011 0.0000 0.9796
vn -0.4382 -0.0000 0.8989
vn -0.4380 0.0000 0.8990
vn -0.1164 0.0000 0.9932
vn -0.8768 -0.0000 0.4808
vn -0.7125 -0.0000 0.7017
vn -0.8895 -0.0000 0.4569
vn -0.9054 0.0000 0.4246
vn -0.8846 -0.0000 0.4664
vn 0.0000 0.3799 -0.9250
vn 0.0000 0.3322 -0.9432
vn -0.0000 0.4702 -0.8826
vn 0.0000 0.5570 -0.8305
vn 0.0000 0.9250 0.3799
vn 0.0000 0.6997 0.7144
vn 0.0000 0.0000 1.0000
vn 0.0000 0.3111 0.9504
vn -0.0000 0.3634 0.9316
vn -0.0000 -0.3799 0.9250
vn 0.0000 -0.2432 0.9700
vn -0.0000 -0.6946 0.7194
vn -0.0000 -0.4689 0.8832
vn -0.0000 -0.7144 0.6997
vn -0.0000 -0.9316 0.3635
vn -0.0000 -0.8666 0.4991
vn -0.0000 -0.9250 -0.3799
vn 0.0000 -0.6997 -0.7144
vn -0.0000 -0.8666 -0.4991
vn -0.0000 -0.4689 0.8833
vn 0.0003 -0.6945 -0.7195
vn 0.0000 -0.4689 -0.8833
vn 0.0000 -0.2432 -0.9700
vn 0.0000 -0.3634 -0.9316
vn 0.0000 -0.0000 -1.0000
vn -0.0000 0.3111 -0.9504
vn 0.0000 0.7144 -0.6997
vn 0.0000 0.9316 -0.3635
usemtl Material-7024油漆
s 1
f 3/1/1 19/2/2 20/3/3
f 2/4/4 19/2/2 3/1/1
f 5/5/5 6/6/5 4/7/1
f 6/6/5 5/5/5 7/8/6
f 2/4/4 1/9/7 18/10/8
f 19/2/2 2/4/4 18/10/8
f 4/7/1 2/4/4 3/1/1
f 11/11/9 12/12/9 10/13/10
f 17/14/11 13/15/12 15/16/11
f 13/15/12 14/17/12 12/12/9
f 14/17/12 13/15/12 17/14/11
f 9/18/13 10/13/10 8/19/6
s off
f 38/20/14 31/21/14 22/22/14
f 30/23/14 23/24/14 22/22/14
f 30/23/14 24/25/14 23/24/14
f 38/20/14 22/22/14 21/26/14
f 38/20/14 37/27/14 31/21/14
f 36/28/14 31/21/14 37/27/14
f 35/29/14 31/21/14 36/28/14
f 30/23/14 25/30/14 24/25/14
f 30/23/14 27/31/14 26/32/14
f 29/33/14 28/34/14 30/23/14
f 27/31/14 30/23/14 28/34/14
f 30/23/14 22/22/14 31/21/14
f 31/21/14 34/35/14 33/36/14
f 31/21/14 35/29/14 34/35/14
f 33/36/14 32/37/14 31/21/14
f 26/32/14 25/30/14 30/23/14
f 48/38/15 39/39/15 40/40/15
f 48/38/15 40/40/15 41/41/15
f 48/38/15 41/41/15 42/42/15
f 49/43/15 57/44/15 39/39/15
f 57/44/15 49/43/15 56/45/15
f 55/46/15 56/45/15 49/43/15
f 54/47/15 55/46/15 49/43/15
f 48/38/15 42/42/15 43/48/15
f 48/38/15 44/49/15 45/50/15
f 47/51/15 48/38/15 46/52/15
f 45/50/15 46/52/15 48/38/15
f 48/38/15 49/43/15 39/39/15
f 49/43/15 52/53/15 53/54/15
f 51/55/15 49/43/15 50/56/15
f 52/53/15 49/43/15 51/55/15
f 53/54/15 54/47/15 49/43/15
f 44/49/15 48/38/15 43/48/15
f 60/57/16 59/58/16 58/59/16
f 63/60/16 60/57/16 72/61/16
f 63/60/16 61/62/16 60/57/16
f 72/61/16 58/59/16 73/63/16
f 60/57/16 58/59/16 72/61/16
f 71/64/16 63/60/16 72/61/16
f 62/65/16 61/62/16 63/60/16
f 65/66/16 64/67/16 63/60/16
f 67/68/16 65/66/16 63/60/16
f 66/69/16 65/66/16 67/68/16
f 70/70/16 69/71/16 71/64/16
f 69/71/16 68/72/16 67/68/16
f 69/71/16 67/68/16 63/60/16
f 63/60/16 71/64/16 69/71/16
f 81/73/11 75/74/11 76/75/11
f 76/75/11 80/76/11 81/73/11
f 80/76/11 76/75/11 77/77/11
f 79/78/11 77/77/11 78/79/11
f 78/79/11 74/80/11 79/78/11
f 80/76/11 77/77/11 79/78/11
s 1
f 100/81/11 82/82/11 84/83/17
f 88/84/18 89/85/18 87/86/19
f 89/85/18 88/84/18 90/87/20
f 86/88/19 87/86/19 85/89/17
f 85/89/17 83/90/11 100/81/11
f 84/83/17 85/89/17 100/81/11
f 94/91/21 95/92/22 93/93/23
f 101/94/24 96/95/25 99/96/26
f 96/95/25 97/97/25 95/92/22
f 96/95/25 101/94/24 97/97/25
f 92/98/23 93/93/23 91/99/20
f 98/100/27 97/97/25 102/101/28
f 102/101/28 97/97/25 101/94/24
f 143/102/29 145/103/30 144/104/30
f 148/105/31 141/106/29 137/107/29
f 146/108/32 148/105/31 147/109/31
f 105/110/33 106/111/33 104/112/14
f 107/113/34 108/114/34 106/111/33
f 110/115/35 132/116/36 109/117/37
f 111/118/38 130/119/39 110/115/35
f 109/117/37 132/116/36 107/113/34
f 152/120/40 129/121/41 112/122/42
f 112/122/42 113/123/43 151/124/44
f 114/125/15 116/126/45 115/127/15
f 113/123/43 114/125/15 115/127/15
f 116/126/45 117/128/46 150/129/47
f 111/118/38 112/122/42 129/121/41
f 111/118/38 129/121/41 130/119/39
f 108/114/34 107/113/34 132/116/36
f 131/130/35 132/116/36 110/115/35
f 132/116/36 128/131/36 108/114/34
f 139/132/48 129/121/41 152/120/40
f 131/130/35 110/115/35 130/119/39
f 149/133/49 117/128/46 136/134/50
f 135/135/51 118/136/52 119/137/53
f 133/138/54 119/137/53 120/139/29
f 136/134/50 118/136/52 135/135/51
f 119/137/53 134/140/53 135/135/51
f 133/138/54 134/140/53 119/137/53
f 133/138/54 120/139/29 137/107/29
f 117/128/46 118/136/52 136/134/50
f 123/141/55 142/142/32 122/143/55
f 124/144/56 125/145/56 123/141/55
f 141/106/29 133/138/54 137/107/29
f 147/109/31 137/107/29 120/139/29
f 142/142/32 147/109/31 120/139/29
f 142/142/32 120/139/29 122/143/55
f 126/146/14 127/147/14 125/145/56
f 144/104/30 145/103/30 133/138/54
f 144/104/30 133/138/54 141/106/29
f 138/148/54 133/138/54 145/103/30
f 121/149/29 138/148/54 145/103/30
f 148/105/31 121/149/29 143/102/29
f 141/106/29 148/105/31 143/102/29
f 146/108/32 121/149/29 148/105/31
f 146/108/32 123/141/55 121/149/29
f 123/141/55 146/108/32 142/142/32
f 149/133/49 136/134/50 140/150/50
s off
f 154/151/11 153/152/11 155/153/11
f 159/154/11 154/151/11 155/153/11
f 158/155/11 156/156/11 157/157/11
f 156/156/11 158/155/11 159/154/11
f 155/153/11 156/156/11 159/154/11
s 1
f 5/5/5 4/7/1 3/1/1
f 6/6/5 7/8/6 8/19/6
f 11/11/9 10/13/10 9/18/13
f 13/15/12 12/12/9 11/11/9
f 14/17/12 17/14/11 16/158/11
f 9/18/13 8/19/6 7/8/6
f 88/84/18 87/86/19 86/88/19
f 89/85/18 90/87/20 91/99/20
f 86/88/19 85/89/17 84/83/17
f 94/91/21 93/93/23 92/98/23
f 96/95/25 95/92/22 94/91/21
f 92/98/23 91/99/20 90/87/20
f 143/102/29 144/104/30 141/106/29
f 148/105/31 137/107/29 147/109/31
f 146/108/32 147/109/31 142/142/32
f 105/110/33 104/112/14 103/159/14
f 107/113/34 106/111/33 105/110/33
f 112/122/42 151/124/44 152/120/40
f 116/126/45 150/129/47 115/127/15
f 113/123/43 115/127/15 151/124/44
f 117/128/46 149/133/49 150/129/47
f 124/144/56 123/141/55 122/143/55
f 126/146/14 125/145/56 124/144/56
f 121/149/29 145/103/30 143/102/29
