mtllib material.mtl
usemtl Material-7011油漆.001
v -0.04025400 0.03858000 -0.24900100
v -0.03861700 0.03857700 -0.26138900
v -0.03993700 0.03807600 -0.25529300
v -0.03106700 0.03856700 -0.27560900
v -0.02189700 0.03855400 -0.28376600
v -0.02683400 0.03806000 -0.28006800
v -0.01620900 0.03857800 -0.28685800
v -0.00566200 0.03857500 -0.28982000
v -0.00566200 0.03857500 -0.28982000
v -0.01034100 0.03810400 -0.28892400
v 0.00544900 0.03858000 -0.28988000
v -0.00090400 0.03805900 -0.29027800
v 0.01702000 0.03857500 -0.28647900
v 0.01138800 0.03808000 -0.28864400
v 0.02525600 0.03857200 -0.28136300
v 0.02151200 0.03810000 -0.28401900
v 0.03013500 0.03857400 -0.27672500
v 0.03647900 0.03858500 -0.26697400
v 0.03378000 0.03807200 -0.27193300
v 0.04024700 0.02610000 -0.24943300
v 0.03926700 0.03210000 -0.25884400
v 0.04026300 0.03810800 -0.24985200
v 0.03966500 0.03856100 -0.25647500
v 0.03966600 0.03857800 -0.24295800
v 0.03973700 0.02573800 -0.24291900
v 0.03768700 0.03809700 -0.23577900
v 0.03547100 0.03858900 -0.23101300
v 0.03753800 0.02592600 -0.23539300
v 0.03230300 0.03798200 -0.22583700
v 0.03524500 0.02560100 -0.23063200
v 0.02705100 0.03857500 -0.22020300
v 0.02110300 0.03857100 -0.21561000
v 0.02566400 0.02562200 -0.21902300
v 0.01350600 0.03814300 -0.21204800
v 0.01431400 0.02569000 -0.21226700
v 0.02932800 0.02591900 -0.22241500
v 0.04005100 0.02560400 -0.25382600
v 0.03875100 0.02590800 -0.26096800
v 0.00707300 0.02581300 -0.21035500
v 0.00809400 0.03857700 -0.21057300
v 0.00124000 0.03857300 -0.20973100
v -0.00530200 0.03804700 -0.21005200
v 0.00042300 0.02560500 -0.20973200
v -0.01268800 0.03857500 -0.21174800
v -0.00708400 0.02560700 -0.21032500
v -0.01970200 0.03809800 -0.21485900
v -0.01454500 0.02594200 -0.21242700
v -0.02338300 0.03857700 -0.21727500
v -0.02043700 0.02569800 -0.21528700
v -0.02899400 0.03857600 -0.22198400
v -0.02543900 0.02591500 -0.21879500
v -0.03381600 0.03805400 -0.22808300
v -0.03636500 0.03859100 -0.23286500
v -0.03623400 0.02560100 -0.23252000
v -0.03926500 0.03210000 -0.24115500
v -0.03849000 0.03813100 -0.23800000
v -0.03013000 0.02609300 -0.22323400
v -0.03860400 0.02620100 -0.23831200
v -0.03983800 0.03810000 -0.24426300
v -0.03926500 0.03210000 -0.24115500
v -0.03849000 0.03813100 -0.23800000
v -0.04023900 0.02565700 -0.25177700
v -0.03995600 0.02574600 -0.24522500
v -0.04025400 0.03858000 -0.24900100
v -0.03993700 0.03807600 -0.25529300
v -0.03861700 0.03857700 -0.26138900
v -0.03922100 0.02615300 -0.25922100
v -0.03549900 0.03856800 -0.26915100
v -0.03758300 0.02561900 -0.26435600
v -0.03860400 0.02620100 -0.23831200
v -0.03457500 0.02583000 -0.27069600
v -0.02764300 0.02560700 -0.27928600
v -0.03106700 0.03856700 -0.27560900
v -0.02683400 0.03806000 -0.28006800
v -0.02189700 0.03855400 -0.28376600
v -0.02319600 0.02608800 -0.28289400
v -0.01620900 0.03857800 -0.28685800
v -0.01034100 0.03810400 -0.28892400
v -0.01113100 0.02560100 -0.28876800
v -0.01887000 0.02578400 -0.28557900
v -0.03137900 0.02569300 -0.27515700
v -0.00243600 0.02560800 -0.29021800
v -0.00566200 0.03857500 -0.28982000
v 0.00528600 0.02598300 -0.28997400
v -0.00090400 0.03805900 -0.29027800
v 0.00544900 0.03858000 -0.28988000
v 0.01138800 0.03808000 -0.28864400
v 0.01702000 0.03857500 -0.28647900
v 0.01324800 0.02569200 -0.28807000
v 0.02060000 0.02560900 -0.28461600
v 0.02929000 0.02563000 -0.27765400
v 0.02525600 0.03857200 -0.28136300
v 0.03013500 0.03857400 -0.27672500
v 0.02151200 0.03810000 -0.28401900
v 0.03378000 0.03807200 -0.27193300
v 0.03318600 0.02610200 -0.27277800
v 0.03627700 0.02566900 -0.26751600
v 0.03647900 0.03858500 -0.26697400
v 0.03809000 0.03812500 -0.26311500
v 0.02523700 0.02579800 -0.28133000
v 0.03926700 0.03210000 -0.25884400
v 0.03875100 0.02590800 -0.26096800
v 0.03966500 0.03856100 -0.25647500
v 0.03966500 0.03856100 -0.25647500
v 0.03966600 0.03857800 -0.24295800
v 0.03966600 0.03857800 -0.24295800
v 0.04026300 0.03810800 -0.24985200
v 0.03547100 0.03858900 -0.23101300
v 0.03768700 0.03809700 -0.23577900
v 0.02705100 0.03857500 -0.22020300
v 0.03230300 0.03798200 -0.22583700
v 0.02110300 0.03857100 -0.21561000
v 0.00809400 0.03857700 -0.21057300
v 0.01350600 0.03814300 -0.21204800
v -0.01268800 0.03857500 -0.21174800
v -0.02338300 0.03857700 -0.21727500
v -0.01970200 0.03809800 -0.21485900
v 0.00124000 0.03857300 -0.20973100
v -0.00530200 0.03804700 -0.21005200
v -0.02899400 0.03857600 -0.22198400
v -0.03636500 0.03859100 -0.23286500
v -0.03636500 0.03859100 -0.23286500
v -0.03381600 0.03805400 -0.22808300
v 0.03647900 0.03858500 -0.26697400
v 0.02862900 0.03860000 -0.26590600
v 0.03195000 0.03860000 -0.25719600
v 0.03966500 0.03856100 -0.25647500
v 0.03013500 0.03857400 -0.27672500
v 0.02298800 0.03860000 -0.27332700
v 0.03268400 0.03860000 -0.24790300
v 0.03966600 0.03857800 -0.24295800
v 0.02636200 0.03860000 -0.23056600
v 0.02705100 0.03857500 -0.22020300
v 0.03547100 0.03858900 -0.23101300
v 0.03076900 0.03860000 -0.23878000
v 0.01702000 0.03857500 -0.28647900
v 0.01548400 0.03860000 -0.27885800
v 0.02525600 0.03857200 -0.28136300
v 0.00544900 0.03858000 -0.28988000
v 0.00672700 0.03860000 -0.28205100
v -0.00257600 0.03860000 -0.28264800
v -0.00566200 0.03857500 -0.28982000
v -0.01166900 0.03860000 -0.28059900
v -0.01620900 0.03857800 -0.28685800
v -0.01981800 0.03860000 -0.27607200
v -0.02189700 0.03855400 -0.28376600
v -0.03106700 0.03856700 -0.27560900
v -0.02636100 0.03860000 -0.26943200
v 0.01981900 0.03860000 -0.22392700
v 0.02110300 0.03857100 -0.21561000
v 0.01167100 0.03860000 -0.21939900
v 0.00809400 0.03857700 -0.21057300
v 0.00124000 0.03857300 -0.20973100
v 0.00257700 0.03860000 -0.21735100
v -0.00672500 0.03860000 -0.21794700
v -0.01268800 0.03857500 -0.21174800
v -0.01548300 0.03860000 -0.22114100
v -0.02338300 0.03857700 -0.21727500
v -0.02298600 0.03860000 -0.22667200
v -0.02899400 0.03857600 -0.22198400
v -0.03861700 0.03857700 -0.26138900
v -0.03268200 0.03860000 -0.25209500
v -0.03076800 0.03860000 -0.26121800
v -0.03549900 0.03856800 -0.26915100
v -0.04025400 0.03858000 -0.24900100
v -0.03194900 0.03860000 -0.24280300
v -0.02862700 0.03860000 -0.23409300
v -0.03636500 0.03859100 -0.23286500
v 0.01324800 0.02569200 -0.28807000
v -0.00243600 0.02560800 -0.29021800
v -0.00243600 0.02560800 -0.29021800
v 0.00528600 0.02598300 -0.28997400
v 0.02060000 0.02560900 -0.28461600
v 0.02060000 0.02560900 -0.28461600
v 0.03524500 0.02560100 -0.23063200
v 0.03524500 0.02560100 -0.23063200
v 0.03524500 0.02560100 -0.23063200
v -0.03623400 0.02560100 -0.23252000
v -0.03623400 0.02560100 -0.23252000
v -0.03623400 0.02560100 -0.23252000
v -0.01113100 0.02560100 -0.28876800
v -0.01113100 0.02560100 -0.28876800
v -0.01113100 0.02560100 -0.28876800
v 0.04005100 0.02560400 -0.25382600
v 0.04005100 0.02560400 -0.25382600
v 0.04005100 0.02560400 -0.25382600
v -0.02764300 0.02560700 -0.27928600
v -0.02764300 0.02560700 -0.27928600
v -0.01887000 0.02578400 -0.28557900
v 0.02523700 0.02579800 -0.28133000
v 0.02929000 0.02563000 -0.27765400
v 0.02929000 0.02563000 -0.27765400
v 0.03627700 0.02566900 -0.26751600
v 0.03875100 0.02590800 -0.26096800
v 0.03753800 0.02592600 -0.23539300
v 0.03973700 0.02573800 -0.24291900
v -0.03758300 0.02561900 -0.26435600
v -0.03137900 0.02569300 -0.27515700
v -0.03457500 0.02583000 -0.27069600
v -0.04023900 0.02565700 -0.25177700
v -0.03995600 0.02574600 -0.24522500
v 0.00707300 0.02581300 -0.21035500
v 0.00042300 0.02560500 -0.20973200
v 0.00042300 0.02560500 -0.20973200
v 0.01431400 0.02569000 -0.21226700
v 0.02566400 0.02562200 -0.21902300
v 0.02932800 0.02591900 -0.22241500
v 0.02157100 0.02589500 -0.21600100
v -0.00708400 0.02560700 -0.21032500
v -0.03312800 0.02561500 -0.22716600
v -0.01454500 0.02594200 -0.21242700
v -0.02043700 0.02569800 -0.21528700
v -0.02543900 0.02591500 -0.21879500
v -0.00096900 0.04609100 -0.28284800
v 0.01320100 0.04609500 -0.28005300
v 0.00632400 0.04557300 -0.28217000
v -0.03268200 0.03860000 -0.25209500
v -0.03269200 0.04609900 -0.24849300
v -0.03233900 0.04609100 -0.25559800
v -0.03194900 0.03860000 -0.24280300
v -0.03219000 0.04561500 -0.24367600
v -0.03076800 0.03860000 -0.26121800
v -0.02966400 0.04580500 -0.26403700
v -0.02636100 0.03860000 -0.26943200
v -0.02594100 0.04608100 -0.26997200
v -0.02097100 0.04574300 -0.27531900
v -0.01981800 0.03860000 -0.27607200
v -0.01452800 0.04604100 -0.27938500
v -0.01166900 0.03860000 -0.28059900
v -0.00860900 0.04592500 -0.28161700
v -0.00257600 0.03860000 -0.28264800
v -0.00096900 0.04609100 -0.28284800
v 0.00672700 0.03860000 -0.28205100
v 0.00632400 0.04557300 -0.28217000
v 0.01548400 0.03860000 -0.27885800
v 0.01320100 0.04609500 -0.28005300
v 0.02065200 0.04582400 -0.27550800
v 0.02544400 0.04606200 -0.27058700
v 0.02298800 0.03860000 -0.27332700
v 0.02862900 0.03860000 -0.26590600
v 0.03195000 0.03860000 -0.25719600
v 0.02918300 0.04565000 -0.26513900
v 0.03163300 0.04609900 -0.25848800
v 0.03268400 0.03860000 -0.24790300
v 0.03278000 0.04573100 -0.25217900
v 0.03230400 0.04595700 -0.24374700
v 0.03195000 0.03860000 -0.25719600
v 0.02909300 0.04609000 -0.23464400
v 0.03076900 0.03860000 -0.23878000
v 0.02636200 0.03860000 -0.23056600
v 0.03163300 0.04609900 -0.25848800
v 0.02447500 0.04527100 -0.22809000
v 0.01981900 0.03860000 -0.22392700
v 0.02052700 0.04595300 -0.22441000
v 0.01167100 0.03860000 -0.21939900
v 0.01502900 0.04608200 -0.22081800
v 0.00857800 0.04543400 -0.21827200
v 0.00257700 0.03860000 -0.21735100
v 0.00451900 0.04609400 -0.21759400
v -0.00281800 0.04609400 -0.21724000
v -0.00672500 0.03860000 -0.21794700
v -0.01192700 0.04565900 -0.21933600
v -0.01548300 0.03860000 -0.22114100
v -0.01904000 0.04609700 -0.22324300
v -0.02298600 0.03860000 -0.22667200
v -0.02331600 0.04605400 -0.22703400
v -0.02718700 0.04561000 -0.23151500
v -0.02862700 0.03860000 -0.23409300
v -0.03047500 0.04597900 -0.23781300
v -0.03194900 0.03860000 -0.24280300
v -0.03219000 0.04561500 -0.24367600
v -0.03269200 0.04609900 -0.24849300
v -0.03219000 0.04561500 -0.24367600
v -0.03047500 0.04597900 -0.23781300
v 0.03163300 0.04609900 -0.25848800
v 0.03163300 0.04609900 -0.25848800
v 0.03163300 0.04609900 -0.25848800
v 0.03163300 0.04609900 -0.25848800
v 0.03230400 0.04595700 -0.24374700
v 0.03278000 0.04573100 -0.25217900
v 0.02909300 0.04609000 -0.23464400
v 0.02909300 0.04609000 -0.23464400
v 0.01502900 0.04608200 -0.22081800
v 0.01502900 0.04608200 -0.22081800
v 0.02052700 0.04595300 -0.22441000
v 0.02918300 0.04565000 -0.26513900
v 0.02544400 0.04606200 -0.27058700
v 0.01320100 0.04609500 -0.28005300
v 0.01320100 0.04609500 -0.28005300
v 0.02065200 0.04582400 -0.27550800
v -0.03269200 0.04609900 -0.24849300
v -0.03269200 0.04609900 -0.24849300
v -0.03269200 0.04609900 -0.24849300
v -0.00096900 0.04609100 -0.28284800
v -0.00860900 0.04592500 -0.28161700
v -0.01452800 0.04604100 -0.27938500
v -0.02097100 0.04574300 -0.27531900
v -0.02594100 0.04608100 -0.26997200
v -0.03233900 0.04609100 -0.25559800
v 0.00451900 0.04609400 -0.21759400
v 0.00451900 0.04609400 -0.21759400
v -0.00281800 0.04609400 -0.21724000
v -0.00281800 0.04609400 -0.21724000
v -0.01904000 0.04609700 -0.22324300
v -0.01904000 0.04609700 -0.22324300
v -0.01904000 0.04609700 -0.22324300
v -0.01192700 0.04565900 -0.21933600
v -0.02966400 0.04580500 -0.26403700
v -0.02331600 0.04605400 -0.22703400
v -0.03047500 0.04597900 -0.23781300
v -0.02718700 0.04561000 -0.23151500
v 0.03318600 0.02610200 -0.27277800
v 0.03627700 0.02566900 -0.26751600
v 0.02929000 0.02563000 -0.27765400
v -0.03013000 0.02609300 -0.22323400
v -0.03312800 0.02561500 -0.22716600
v -0.02543900 0.02591500 -0.21879500
v -0.03983800 0.03810000 -0.24426300
v -0.03849000 0.03813100 -0.23800000
v 0.03966500 0.03856100 -0.25647500
v 0.03809000 0.03812500 -0.26311500
v 0.03299100 0.02611900 -0.22686500
v 0.02157100 0.02589500 -0.21600100
v -0.03312800 0.02561500 -0.22716600
v -0.03849000 0.03813100 -0.23800000
v -0.04025400 0.03858000 -0.24900100
v 0.02909300 0.04609000 -0.23464400
v 0.02052700 0.04595300 -0.22441000
v 0.02447500 0.04527100 -0.22809000
v 0.01502900 0.04608200 -0.22081800
v 0.00451900 0.04609400 -0.21759400
v 0.00857800 0.04543400 -0.21827200
v -0.02319600 0.02608800 -0.28289400
v -0.01887000 0.02578400 -0.28557900
v -0.02764300 0.02560700 -0.27928600
v -0.03758300 0.02561900 -0.26435600
v -0.04023900 0.02565700 -0.25177700
v -0.03922100 0.02615300 -0.25922100
v -0.03995600 0.02574600 -0.24522500
v -0.03623400 0.02560100 -0.23252000
v -0.03860400 0.02620100 -0.23831200
v 0.03973700 0.02573800 -0.24291900
v 0.04005100 0.02560400 -0.25382600
v 0.04024700 0.02610000 -0.24943300
v 0.02932800 0.02591900 -0.22241500
v 0.03524500 0.02560100 -0.23063200
v 0.03299100 0.02611900 -0.22686500
vn -0.70820000 0.70580000 0.01780000
vn -0.67960000 0.70570000 -0.20030000
vn -0.70120000 0.70690000 -0.09300000
vn -0.54620000 0.70610000 -0.45060000
vn -0.38530000 0.70630000 -0.59390000
vn -0.47110000 0.70680000 -0.52770000
vn -0.28530000 0.70530000 -0.64900000
vn -0.09970000 0.70600000 -0.70120000
vn -0.09960000 0.70600000 -0.70120000
vn -0.18170000 0.70680000 -0.68360000
vn 0.09600000 0.70510000 -0.70250000
vn -0.01600000 0.70700000 -0.70700000
vn 0.29950000 0.70570000 -0.64210000
vn 0.19980000 0.70690000 -0.67850000
vn 0.44390000 0.70610000 -0.55170000
vn 0.37790000 0.70710000 -0.59770000
vn 0.53010000 0.70580000 -0.47000000
vn 0.64230000 0.70600000 -0.29840000
vn 0.59310000 0.70700000 -0.38520000
vn 0.99990000 0.00000000 0.01410000
vn 0.97560000 -0.00000000 -0.21980000
vn 1.00000000 -0.00000000 0.00370000
vn 0.98700000 0.00000000 -0.16100000
vn 0.98460000 0.00000000 0.17490000
vn 0.98450000 0.00000000 0.17550000
vn 0.93560000 0.00000000 0.35300000
vn 0.88160000 0.00000000 0.47190000
vn 0.93190000 -0.00000000 0.36260000
vn 0.80070000 -0.00000000 0.59900000
vn 0.87640000 0.00000000 0.48150000
vn 0.67220000 0.00000000 0.74040000
vn 0.52300000 0.00000000 0.85230000
vn 0.63790000 -0.00000000 0.77010000
vn 0.33520000 -0.00000000 0.94210000
vn 0.35470000 -0.00000000 0.93500000
vn 0.72840000 -0.00000000 0.68520000
vn 0.99550000 0.00000000 -0.09520000
vn 0.96230000 -0.00000000 -0.27190000
vn 0.17560000 -0.00000000 0.98450000
vn 0.20100000 -0.00000000 0.97960000
vn 0.03080000 0.00000000 0.99950000
vn -0.13160000 0.00000000 0.99130000
vn 0.01050000 -0.00000000 0.99990000
vn -0.31480000 0.00000000 0.94920000
vn -0.17590000 0.00000000 0.98440000
vn -0.48910000 -0.00000000 0.87230000
vn -0.36110000 0.00000000 0.93250000
vn -0.58140000 0.00000000 0.81360000
vn -0.50730000 -0.00000000 0.86170000
vn -0.71920000 0.00000000 0.69480000
vn -0.63190000 -0.00000000 0.77510000
vn -0.83920000 0.00000000 0.54390000
vn -0.90460000 0.00000000 0.42630000
vn -0.90070000 0.00000000 0.43450000
vn -0.97560000 0.00000000 0.21980000
vn -0.95460000 -0.00000000 0.29770000
vn -0.74760000 -0.00010000 0.66410000
vn -0.95710000 -0.00000000 0.28990000
vn -0.98980000 0.00000000 0.14250000
vn -0.97560000 0.00000000 0.21980000
vn -0.95480000 0.00000000 0.29720000
vn -0.99900000 -0.00000000 -0.04420000
vn -0.99290000 -0.00000000 0.11860000
vn -0.99970000 -0.00000000 0.02480000
vn -0.99130000 0.00000000 -0.13140000
vn -0.95920000 -0.00000000 -0.28290000
vn -0.97350000 -0.00000000 -0.22890000
vn -0.88010000 0.00000000 -0.47480000
vn -0.93410000 -0.00000000 -0.35690000
vn -0.95720000 -0.00000000 0.28930000
vn -0.85800000 -0.00000000 -0.51360000
vn -0.68650000 -0.00000000 -0.72720000
vn -0.77170000 0.00000000 -0.63600000
vn -0.66580000 0.00000000 -0.74610000
vn -0.54410000 0.00000000 -0.83900000
vn -0.57630000 0.00000000 -0.81720000
vn -0.40260000 -0.00000000 -0.91540000
vn -0.25680000 0.00000000 -0.96650000
vn -0.27600000 -0.00000000 -0.96120000
vn -0.46850000 -0.00000000 -0.88350000
vn -0.78020000 0.00000000 -0.62550000
vn -0.06040000 0.00000000 -0.99820000
vn -0.14080000 -0.00000000 -0.99000000
vn 0.13110000 -0.00000000 -0.99140000
vn -0.02250000 0.00000000 -0.99970000
vn 0.13530000 0.00000000 -0.99080000
vn 0.28260000 0.00000000 -0.95920000
vn 0.42280000 0.00000000 -0.90620000
vn 0.32860000 0.00000000 -0.94450000
vn 0.51140000 -0.00000000 -0.85940000
vn 0.72710000 0.00000000 -0.68650000
vn 0.62720000 -0.00000000 -0.77890000
vn 0.74810000 0.00000000 -0.66350000
vn 0.53440000 0.00000000 -0.84520000
vn 0.83870000 -0.00000000 -0.54460000
vn 0.82450000 0.00000000 -0.56590000
vn 0.90050000 0.00000000 -0.43480000
vn 0.90660000 -0.00000000 -0.42200000
vn 0.94550000 -0.00000000 -0.32560000
vn 0.62730000 -0.00000000 -0.77880000
vn 0.97560000 -0.00000000 -0.21970000
vn 0.96220000 0.00000000 -0.27240000
vn 0.98690000 -0.00000000 -0.16160000
vn 0.69850000 0.70660000 -0.11370000
vn 0.69810000 0.70530000 0.12360000
vn 0.69810000 0.70530000 0.12370000
vn 0.70760000 0.70660000 0.00270000
vn 0.62600000 0.70400000 0.33540000
vn 0.66180000 0.70680000 0.24980000
vn 0.47610000 0.70600000 0.52430000
vn 0.56660000 0.70670000 0.42380000
vn 0.37040000 0.70590000 0.60370000
vn 0.14280000 0.70550000 0.69420000
vn 0.23730000 0.70650000 0.66680000
vn -0.22300000 0.70510000 0.67310000
vn -0.41170000 0.70570000 0.57650000
vn -0.34610000 0.70680000 0.61700000
vn 0.02160000 0.70570000 0.70820000
vn -0.09290000 0.70710000 0.70100000
vn -0.51000000 0.70530000 0.49240000
vn -0.64150000 0.70520000 0.30210000
vn -0.64140000 0.70520000 0.30210000
vn -0.59350000 0.70700000 0.38450000
vn 0.00000000 1.00000000 -0.00000000
vn 0.00000000 1.00000000 -0.00000000
vn 0.00000000 1.00000000 -0.00000000
vn 0.00000000 1.00000000 -0.00000000
vn 0.00000000 1.00000000 -0.00000000
vn 0.00000000 1.00000000 -0.00000000
vn 0.00000000 1.00000000 -0.00000000
vn 0.00000000 1.00000000 -0.00000000
vn 0.00000000 1.00000000 -0.00000000
vn 0.00000000 1.00000000 -0.00000000
vn 0.00000000 1.00000000 -0.00000000
vn 0.00000000 1.00000000 -0.00000000
vn 0.00000000 1.00000000 -0.00000000
vn 0.00000000 1.00000000 -0.00000000
vn 0.00000000 1.00000000 -0.00000000
vn 0.00000000 1.00000000 -0.00000000
vn 0.00000000 1.00000000 -0.00000000
vn 0.00000000 1.00000000 -0.00000000
vn 0.00000000 1.00000000 -0.00000000
vn 0.00000000 1.00000000 -0.00000000
vn 0.00000000 1.00000000 -0.00000000
vn 0.00000000 1.00000000 -0.00000000
vn 0.00000000 1.00000000 -0.00000000
vn 0.00000000 1.00000000 -0.00000000
vn 0.00000000 1.00000000 -0.00000000
vn 0.00000000 1.00000000 -0.00000000
vn 0.00000000 1.00000000 -0.00000000
vn 0.00000000 1.00000000 -0.00000000
vn 0.00000000 1.00000000 -0.00000000
vn 0.00000000 1.00000000 -0.00000000
vn 0.00000000 1.00000000 -0.00000000
vn 0.00000000 1.00000000 -0.00000000
vn 0.00000000 1.00000000 -0.00000000
vn 0.00000000 1.00000000 -0.00000000
vn 0.00000000 1.00000000 -0.00000000
vn 0.00000000 1.00000000 -0.00000000
vn 0.00000000 1.00000000 -0.00000000
vn 0.00000000 1.00000000 -0.00000000
vn 0.00000000 1.00000000 -0.00000000
vn 0.00000000 1.00000000 -0.00000000
vn 0.00000000 1.00000000 -0.00000000
vn 0.00000000 1.00000000 -0.00000000
vn 0.00000000 1.00000000 -0.00000000
vn 0.00000000 1.00000000 -0.00000000
vn 0.00000000 1.00000000 -0.00000000
vn 0.00000000 -1.00000000 -0.00000000
vn 0.00010000 -1.00000000 -0.00020000
vn 0.00000000 -1.00000000 -0.00000000
vn 0.00000000 -1.00000000 -0.00000000
vn 0.00010000 -1.00000000 -0.00020000
vn 0.00000000 -1.00000000 -0.00000000
vn 0.00000000 -1.00000000 0.00020000
vn 0.00010000 -1.00000000 -0.00010000
vn 0.00000000 -1.00000000 -0.00000000
vn 0.00000000 -1.00000000 0.00020000
vn 0.00010000 -1.00000000 0.00000000
vn 0.00000000 -1.00000000 -0.00000000
vn 0.00010000 -1.00000000 0.00000000
vn 0.00010000 -1.00000000 -0.00010000
vn 0.00000000 -1.00000000 -0.00000000
vn 0.00010000 -1.00000000 -0.00020000
vn 0.00010000 -1.00000000 -0.00010000
vn 0.00000000 -1.00000000 -0.00000000
vn 0.00010000 -1.00000000 0.00000000
vn 0.00000000 -1.00000000 -0.00000000
vn 0.00000000 -1.00000000 -0.00000000
vn 0.00000000 -1.00000000 -0.00000000
vn 0.00010000 -1.00000000 0.00000000
vn 0.00000000 -1.00000000 -0.00000000
vn 0.00000000 -1.00000000 -0.00000000
vn 0.00000000 -1.00000000 -0.00000000
vn 0.00000000 -1.00000000 -0.00000000
vn 0.00000000 -1.00000000 -0.00000000
vn 0.00000000 -1.00000000 -0.00000000
vn 0.00000000 -1.00000000 -0.00000000
vn 0.00000000 -1.00000000 -0.00000000
vn 0.00000000 -1.00000000 -0.00000000
vn 0.00000000 -1.00000000 -0.00000000
vn 0.00000000 -1.00000000 -0.00000000
vn 0.00000000 -1.00000000 -0.00000000
vn 0.00000000 -1.00000000 0.00020000
vn 0.00000000 -1.00000000 -0.00000000
vn 0.00000000 -1.00000000 -0.00000000
vn 0.00000000 -1.00000000 -0.00000000
vn 0.00000000 -1.00000000 -0.00000000
vn 0.00000000 -1.00000000 -0.00000000
vn 0.00000000 -1.00000000 -0.00000000
vn 0.00000000 -1.00000000 -0.00000000
vn 0.00000000 -1.00000000 -0.00000000
vn 0.00000000 -1.00000000 -0.00000000
vn -0.02040000 0.70470000 -0.70920000
vn 0.28550000 0.70090000 -0.65360000
vn 0.13660000 0.70680000 -0.69410000
vn -0.99790000 0.00000000 -0.06400000
vn -0.99890000 -0.00000000 0.04600000
vn -0.98530000 0.00000000 -0.17060000
vn -0.97560000 0.00000000 0.21980000
vn -0.98130000 0.00000000 0.19260000
vn -0.93950000 0.00000000 -0.34260000
vn -0.90390000 -0.00000000 -0.42770000
vn -0.80490000 0.00000000 -0.59340000
vn -0.79240000 0.00000000 -0.61000000
vn -0.63790000 -0.00000000 -0.77010000
vn -0.60510000 0.00000000 -0.79610000
vn -0.44320000 -0.00000000 -0.89640000
vn -0.35630000 -0.00000000 -0.93440000
vn -0.26270000 0.00000000 -0.96490000
vn -0.07870000 -0.00000000 -0.99690000
vn -0.02950000 -0.00000000 -0.99960000
vn 0.20540000 -0.00000000 -0.97870000
vn 0.19290000 -0.00000000 -0.98120000
vn 0.47280000 -0.00000000 -0.88120000
vn 0.40220000 -0.00000000 -0.91550000
vn 0.62920000 0.00000000 -0.77720000
vn 0.77740000 -0.00000000 -0.62900000
vn 0.70190000 -0.00000000 -0.71230000
vn 0.87410000 0.00000000 -0.48570000
vn 0.97560000 -0.00000000 -0.21980000
vn 0.88770000 0.00000000 -0.46040000
vn 0.96580000 -0.00000000 -0.25940000
vn 0.99790000 0.00000000 0.06400000
vn 0.99780000 -0.00000000 -0.06640000
vn 0.98180000 -0.00000000 0.18980000
vn 0.97560000 -0.00000000 -0.21970000
vn 0.88450000 -0.00000000 0.46650000
vn 0.93950000 -0.00000000 0.34260000
vn 0.80490000 0.00000000 0.59340000
vn 0.96590000 -0.00000000 -0.25880000
vn 0.74510000 -0.00000000 0.66700000
vn 0.60510000 -0.00000000 0.79610000
vn 0.62570000 0.00000000 0.78010000
vn 0.35630000 -0.00000000 0.93440000
vn 0.45790000 -0.00000000 0.88900000
vn 0.26100000 0.00000000 0.96540000
vn 0.07870000 0.00000000 0.99690000
vn 0.13810000 0.00000000 0.99040000
vn -0.08590000 -0.00000000 0.99630000
vn -0.20540000 0.00000000 0.97870000
vn -0.36270000 -0.00000000 0.93190000
vn -0.47280000 -0.00000000 0.88120000
vn -0.57990000 -0.00000000 0.81470000
vn -0.70190000 -0.00000000 0.71230000
vn -0.71250000 -0.00000000 0.70170000
vn -0.82700000 0.00000000 0.56220000
vn -0.87410000 0.00000000 0.48570000
vn -0.92850000 0.00000000 0.37130000
vn -0.97560000 0.00000000 0.21970000
vn -0.98120000 0.00000000 0.19300000
vn -0.71510000 0.69820000 0.03450000
vn -0.69520000 0.70580000 0.13630000
vn -0.65720000 0.70630000 0.26310000
vn 0.00010000 1.00000000 0.00020000
vn -0.00000000 1.00000000 -0.00020000
vn 0.00000000 1.00000000 -0.00000000
vn -0.00000000 1.00000000 0.00010000
vn 0.00000000 1.00000000 -0.00000000
vn 0.00000000 1.00000000 -0.00000000
vn 0.00000000 1.00000000 -0.00000000
vn -0.00000000 1.00000000 0.00010000
vn -0.00000000 1.00000000 0.00010000
vn 0.00000000 1.00000000 -0.00000000
vn 0.00000000 1.00000000 -0.00000000
vn 0.00000000 1.00000000 -0.00000000
vn 0.00000000 1.00000000 -0.00000000
vn -0.00000000 1.00000000 -0.00020000
vn 0.00000000 1.00000000 -0.00000000
vn 0.00000000 1.00000000 -0.00000000
vn -0.00000000 1.00000000 0.00010000
vn 0.00000000 1.00000000 -0.00000000
vn -0.00000000 1.00000000 -0.00020000
vn 0.00000000 1.00000000 -0.00000000
vn 0.00000000 1.00000000 -0.00000000
vn 0.00000000 1.00000000 -0.00000000
vn 0.00000000 1.00000000 -0.00000000
vn 0.00000000 1.00000000 -0.00000000
vn 0.00000000 1.00000000 -0.00000000
vn 0.00000000 1.00000000 -0.00000000
vn 0.00010000 1.00000000 0.00020000
vn 0.00010000 1.00000000 0.00020000
vn 0.00000000 1.00000000 -0.00000000
vn 0.00000000 1.00000000 -0.00000000
vn -0.00000000 1.00000000 0.00010000
vn 0.00010000 1.00000000 0.00020000
vn 0.00000000 1.00000000 -0.00000000
vn 0.00000000 1.00000000 -0.00000000
vn 0.00000000 1.00000000 -0.00000000
vn 0.00000000 1.00000000 -0.00000000
vn 0.00000000 1.00000000 -0.00000000
vn 0.58310000 -0.70700000 -0.40030000
vn 0.63970000 -0.70350000 -0.30960000
vn 0.51460000 -0.70670000 -0.48560000
vn -0.52900000 -0.70660000 0.46990000
vn -0.58330000 -0.70560000 0.40240000
vn -0.44710000 -0.70660000 0.54850000
vn -0.69990000 0.70710000 0.10080000
vn -0.67680000 0.70530000 0.21080000
vn 0.69740000 0.70760000 -0.11380000
vn 0.66890000 0.70680000 -0.23030000
vn 0.81880000 0.00000000 0.57410000
vn 0.53570000 -0.00000000 0.84440000
vn -0.82350000 -0.00000000 0.56740000
vn -0.67540000 0.70670000 0.21070000
vn -0.71640000 0.69740000 0.01940000
vn 0.62940000 0.70190000 0.33360000
vn 0.44500000 0.70420000 0.55330000
vn 0.52790000 0.70570000 0.47270000
vn 0.32430000 0.70540000 0.63020000
vn 0.09790000 0.70530000 0.70210000
vn 0.18450000 0.70610000 0.68360000
vn -0.40760000 -0.70690000 -0.57810000
vn -0.33180000 -0.70610000 -0.62560000
vn -0.48600000 -0.70620000 -0.51490000
vn -0.66200000 -0.70570000 -0.25260000
vn -0.70790000 -0.70560000 -0.03140000
vn -0.68860000 -0.70680000 -0.16200000
vn -0.70590000 -0.70320000 0.08450000
vn -0.63800000 -0.70590000 0.30750000
vn -0.67700000 -0.70690000 0.20500000
vn 0.69760000 -0.70560000 0.12440000
vn 0.70460000 -0.70640000 -0.06720000
vn 0.70700000 -0.70710000 0.00990000
vn 0.51550000 -0.70650000 0.48490000
vn 0.62030000 -0.70630000 0.34110000
vn 0.57920000 -0.70680000 0.40610000
vt 0.53755200 0.99625800
vt 0.58658500 0.99620200
vt 0.56223100 1.00024400
vt 0.64976700 0.99667100
vt 0.69783400 0.99673600
vt 0.67372900 1.00041700
vt 0.72309800 0.99601900
vt 0.76598300 0.99629500
vt 0.76598300 0.99629500
vt 0.74735000 0.99995500
vt 0.80947800 0.99577000
vt 0.78459800 1.00043800
vt 0.85669400 0.99633300
vt 0.83310800 1.00021200
vt 0.89453900 0.99662300
vt 0.87668300 1.00000000
vt 0.92083400 0.99642100
vt 0.96649900 0.99621400
vt 0.94433800 1.00029000
vt 0.51794100 0.63043400
vt 0.48430900 0.57966100
vt 0.51645800 0.52881800
vt 0.49285600 0.52500200
vt 0.54101300 0.52484300
vt 0.54109800 0.63349500
vt 0.56743700 0.52891500
vt 0.58608500 0.52475100
vt 0.56890000 0.63190900
vt 0.60760100 0.52988200
vt 0.58765200 0.63465500
vt 0.63492900 0.52486400
vt 0.66158500 0.52489900
vt 0.64139100 0.63448000
vt 0.69134700 0.52852000
vt 0.68839500 0.63390400
vt 0.62367000 0.63196900
vt 0.50233100 0.63460500
vt 0.47657300 0.63207100
vt 0.71494900 0.63285900
vt 0.71125000 0.52484600
vt 0.73575600 0.52488700
vt 0.75898200 0.52933300
vt 0.73864700 0.63462500
vt 0.78586500 0.52486300
vt 0.76536600 0.63460700
vt 0.81308900 0.52890000
vt 0.79287100 0.63177400
vt 0.82870900 0.52485100
vt 0.81609800 0.63383800
vt 0.85470600 0.52485500
vt 0.83777200 0.63199900
vt 0.88227900 0.52927400
vt 0.90150700 0.52473500
vt 0.90019800 0.63465700
vt 0.93273400 0.57966100
vt 0.92122400 0.52865100
vt 0.86068500 0.63049200
vt 0.92239400 0.62954600
vt 0.49551900 0.52888700
vt 0.48430900 0.57966100
vt 0.47280000 0.52861600
vt 0.52223400 0.63418500
vt 0.49895800 0.63343100
vt 0.51239600 0.52482300
vt 0.53474200 0.52909200
vt 0.55687200 0.52485300
vt 0.54889600 0.62999100
vt 0.58655300 0.52492400
vt 0.56801800 0.63450300
vt 0.47397000 0.62958000
vt 0.59292200 0.63272000
vt 0.63215500 0.63460700
vt 0.61433400 0.52493300
vt 0.63614300 0.52922100
vt 0.65802400 0.52504800
vt 0.65247600 0.63053400
vt 0.68100300 0.52484300
vt 0.70307900 0.52885600
vt 0.70023500 0.63465400
vt 0.67053900 0.63310700
vt 0.61239200 0.63387400
vt 0.73151300 0.63459400
vt 0.71998100 0.52486800
vt 0.75890800 0.63141900
vt 0.73693800 0.52923100
vt 0.75952300 0.52482300
vt 0.78104700 0.52905700
vt 0.80245500 0.52486900
vt 0.78794100 0.63388400
vt 0.81676600 0.63458600
vt 0.85634500 0.63441100
vt 0.83691100 0.52489700
vt 0.86079900 0.52487800
vt 0.82062800 0.52888700
vt 0.88215500 0.52912100
vt 0.87849400 0.63041900
vt 0.90014800 0.63408000
vt 0.90218700 0.52478500
vt 0.91702400 0.52867400
vt 0.83693300 0.63298600
vt 0.93273400 0.57966100
vt 0.92498300 0.63206200
vt 0.94122000 0.52497000
vt 0.51614400 0.99669300
vt 0.56904900 0.99619900
vt 0.56904900 0.99619900
vt 0.54213000 0.99975600
vt 0.61866100 0.99481700
vt 0.59819700 1.00003000
vt 0.67240000 0.99644200
vt 0.64233900 1.00090300
vt 0.70169300 0.99674000
vt 0.75634400 0.99606200
vt 0.73447600 0.99952000
vt 0.83840200 0.99618600
vt 0.88557700 0.99610000
vt 0.86841200 1.00001200
vt 0.78330200 0.99638900
vt 0.80884500 1.00056300
vt 0.91417500 0.99624900
vt 0.96558700 0.99534400
vt 0.96558700 0.99534400
vt 0.94452500 1.00048600
vt 0.00691100 0.22183300
vt 0.02927700 0.26241400
vt 0.04278800 0.19042100
vt 0.02525200 0.13994600
vt -0.00163200 0.31813800
vt 0.02481300 0.34057400
vt 0.06425100 0.13042800
vt 0.05914400 0.05905300
vt 0.12357700 0.06451400
vt 0.14783700 -0.00161600
vt 0.09961800 0.01268100
vt 0.09192900 0.08729400
vt 0.00679700 0.45498300
vt 0.02975800 0.41856900
vt -0.00102700 0.37509100
vt 0.02728400 0.54457400
vt 0.04371200 0.49008000
vt 0.06554300 0.54931400
vt 0.05529700 0.61069900
vt 0.09348300 0.59147200
vt 0.08917200 0.65608800
vt 0.12526900 0.61313800
vt 0.11119100 0.67161800
vt 0.15463900 0.67768000
vt 0.15832500 0.61255800
vt 0.15663400 0.06393300
vt 0.17426900 0.00648600
vt 0.18841900 0.08560000
vt 0.21952200 0.05419100
vt 0.23882100 0.09016500
vt 0.21636000 0.12775700
vt 0.23819100 0.18699100
vt 0.26868800 0.18557100
vt 0.25214400 0.25850200
vt 0.28164900 0.28264300
vt 0.25708900 0.33649700
vt 0.28391100 0.34439700
vt 0.20922900 0.63777000
vt 0.21765100 0.54664400
vt 0.18997400 0.58977800
vt 0.18194700 0.66555200
vt 0.24439700 0.57343600
vt 0.23911500 0.48665000
vt 0.25262500 0.41465700
vt 0.27510900 0.45360900
vt 0.25204100 0.18771100
vt 0.28599900 0.08104100
vt 0.28599900 0.08104100
vt 0.26717900 0.12857100
vt 0.24228200 0.25239700
vt 0.24228200 0.25239700
vt 0.34092600 0.66305500
vt 0.34092600 0.66305500
vt 0.34092600 0.66305500
vt 0.51543400 0.22405300
vt 0.51543400 0.22405300
vt 0.51543400 0.22405300
vt 0.31143600 0.03768400
vt 0.31143600 0.03768400
vt 0.31143600 0.03768400
vt 0.27071400 0.55302300
vt 0.27071400 0.55302300
vt 0.27071400 0.55302300
vt 0.37662200 -0.00438300
vt 0.37662200 -0.00438300
vt 0.33886000 0.01057500
vt 0.23889700 0.29980900
vt 0.23795100 0.34605200
vt 0.23795100 0.34605200
vt 0.24584500 0.44853100
vt 0.25607900 0.50250200
vt 0.32322700 0.64835200
vt 0.29888600 0.61634000
vt 0.43898400 0.02548500
vt 0.39634400 -0.00204000
vt 0.41554500 0.00554300
vt 0.47718500 0.08485400
vt 0.49290800 0.12575300
vt 0.46241700 0.61580600
vt 0.48065500 0.57975100
vt 0.48065500 0.57975100
vt 0.43946400 0.64768700
vt 0.39406200 0.67516800
vt 0.37636900 0.67681800
vt 0.41190700 0.66881800
vt 0.49799800 0.53128400
vt 0.52108200 0.27467300
vt 0.51143100 0.47405600
vt 0.51900600 0.42166800
vt 0.52278100 0.37077500
vt 0.68601500 0.90656100
vt 0.74266300 0.90439800
vt 0.71458700 0.91048700
vt 0.47570000 0.58346900
vt 0.46291200 0.52001600
vt 0.48815700 0.52006300
vt 0.44253000 0.58346900
vt 0.44573400 0.52411800
vt 0.50887000 0.58346900
vt 0.51957800 0.52248500
vt 0.54203900 0.58346900
vt 0.54446100 0.52016800
vt 0.57037700 0.52303100
vt 0.57520900 0.58346900
vt 0.59737500 0.52050000
vt 0.60837900 0.58346900
vt 0.61981000 0.52148600
vt 0.64154900 0.58346900
vt 0.64724500 0.52009200
vt 0.67471900 0.58346900
vt 0.67323500 0.52446500
vt 0.70788800 0.58346900
vt 0.69877400 0.52004600
vt 0.72974800 0.52232600
vt 0.75412100 0.52033400
vt 0.74105800 0.58346900
vt 0.77422800 0.58346900
vt 0.80739800 0.58346900
vt 0.77752700 0.52382600
vt 0.80266700 0.52003300
vt 0.47570000 0.58346900
vt 0.46055500 0.52314800
vt 0.49046700 0.52122200
vt 0.44253000 0.58346900
vt 0.52466600 0.52009600
vt 0.50887000 0.58346900
vt 0.54203900 0.58346900
vt 0.43782700 0.52000600
vt 0.55305300 0.52705300
vt 0.57520900 0.58346900
vt 0.57217800 0.52125200
vt 0.60837900 0.58346900
vt 0.59546700 0.52019800
vt 0.62002200 0.52566900
vt 0.64154900 0.58346900
vt 0.63460300 0.52005900
vt 0.66066100 0.52006200
vt 0.67471900 0.58346900
vt 0.69378800 0.52374300
vt 0.70788800 0.58346900
vt 0.72252100 0.52006600
vt 0.74105800 0.58346900
vt 0.74280000 0.52038700
vt 0.76379500 0.52418900
vt 0.77422800 0.58346900
vt 0.78894300 0.52107200
vt 0.80739800 0.58346900
vt 0.81060800 0.52410200
vt 0.88475400 0.90220000
vt 0.86574300 0.90973600
vt 0.84173900 0.90762500
vt 0.06282500 0.23396600
vt 0.06282500 0.23396600
vt 0.06282500 0.23396600
vt 0.06282500 0.23396600
vt 0.09809000 0.14171000
vt 0.07576000 0.18933700
vt 0.12898500 0.10649100
vt 0.12898500 0.10649100
vt 0.19892000 0.10792200
vt 0.19892000 0.10792200
vt 0.17612700 0.09659800
vt 0.05217300 0.28834000
vt 0.04801200 0.34339800
vt 0.05497000 0.47330300
vt 0.05497000 0.47330300
vt 0.04765700 0.40153100
vt 0.24918900 0.55906400
vt 0.24918900 0.55906400
vt 0.24918900 0.55906400
vt 0.08349200 0.57481400
vt 0.10573700 0.61316400
vt 0.12618000 0.63522300
vt 0.15252100 0.64963800
vt 0.17839700 0.64718500
vt 0.23048900 0.59946900
vt 0.23336000 0.15151500
vt 0.23336000 0.15151500
vt 0.25264800 0.19329400
vt 0.25264800 0.19329400
vt 0.27827400 0.32628600
vt 0.27827400 0.32628600
vt 0.27827400 0.32628600
vt 0.27034000 0.26023200
vt 0.20263300 0.63405200
vt 0.27947800 0.37455500
vt 0.27044500 0.48189800
vt 0.27813200 0.42461600
vt 0.31367100 0.51837200
vt 0.29225000 0.52476600
vt 0.33552000 0.52258000
vt 0.33124200 0.51837600
vt 0.31398600 0.52395600
vt 0.35389800 0.52019100
vt 0.51906200 1.00000000
vt 0.49408400 0.99899400
vt 1.00928500 0.99762600
vt 0.98272000 0.99980200
vt 0.60322300 0.63027000
vt 0.65944500 0.63216700
vt 0.87822900 0.63454000
vt 0.98730200 0.99990900
vt 1.03108900 0.99043000
vt 0.55109100 0.90546300
vt 0.60331700 0.90672200
vt 0.58241400 0.91195100
vt 0.62896500 0.90663700
vt 0.67206600 0.90610400
vt 0.65608500 0.91146000
vt 0.53685200 0.51858700
vt 0.51899800 0.52179100
vt 0.55696900 0.52324200
vt 0.62027600 0.52385400
vt 0.66550800 0.52358000
vt 0.63915600 0.51778800
vt 0.24550800 0.52505700
vt 0.29225700 0.52401600
vt 0.27031500 0.51691400
vt 0.64683700 0.52182000
vt 0.68513700 0.52321900
vt 0.66973400 0.51830800
vt 0.56529800 0.52025100
vt 0.60088400 0.52359400
vt 0.58552600 0.51805500
f 1/1/1 2/2/2 3/3/3
f 4/4/4 5/5/5 6/6/6
f 7/7/7 8/8/8 10/10/10
f 9/9/9 11/11/11 12/12/12
f 11/11/11 13/13/13 14/14/14
f 13/13/13 15/15/15 16/16/16
f 17/17/17 18/18/18 19/19/19
f 20/20/20 21/21/21 22/22/22
f 21/21/21 23/23/23 22/22/22
f 25/25/25 20/20/20 24/24/24
f 26/26/26 28/28/28 25/25/25
f 27/27/27 30/30/30 28/28/28
f 29/29/29 322/322/322 27/27/27
f 32/32/32 323/323/323 33/33/33
f 35/35/35 323/323/323 32/32/32
f 29/29/29 31/31/31 36/36/36
f 21/21/21 37/37/37 38/38/38
f 21/21/21 20/20/20 37/37/37
f 35/35/35 34/34/34 39/39/39
f 42/42/42 45/45/45 43/43/43
f 41/41/41 43/43/43 39/39/39
f 44/44/44 47/47/47 45/45/45
f 46/46/46 49/49/49 47/47/47
f 48/48/48 51/51/51 49/49/49
f 50/50/50 57/57/57 51/51/51
f 54/54/54 324/324/324 52/52/52
f 55/55/55 53/53/53 56/56/56
f 52/52/52 324/324/324 57/57/57
f 58/58/58 54/54/54 55/55/55
f 54/54/54 53/53/53 55/55/55
f 59/59/59 60/60/60 61/61/61
f 63/63/63 59/59/59 64/64/64
f 63/63/63 60/60/60 59/59/59
f 65/65/65 66/66/66 67/67/67
f 68/68/68 71/71/71 69/69/69
f 70/70/70 60/60/60 63/63/63
f 66/66/66 69/69/69 67/67/67
f 72/72/72 81/81/81 73/73/73
f 73/73/73 81/81/81 71/71/71
f 76/76/76 72/72/72 74/74/74
f 79/79/79 80/80/80 77/77/77
f 80/80/80 76/76/76 75/75/75
f 79/79/79 78/78/78 83/83/83
f 85/85/85 86/86/86 84/84/84
f 87/87/87 89/89/89 84/84/84
f 88/88/88 89/89/89 87/87/87
f 88/88/88 94/94/94 90/90/90
f 91/91/91 100/100/100 92/92/92
f 92/92/92 100/100/100 94/94/94
f 96/96/96 91/91/91 93/93/93
f 99/99/99 102/102/102 97/97/97
f 97/97/97 96/96/96 95/95/95
f 101/101/101 102/102/102 99/99/99
f 99/99/99 103/103/103 101/101/101
f 104/104/104 106/106/106 107/107/107
f 105/105/105 108/108/108 109/109/109
f 108/108/108 110/110/110 111/111/111
f 112/112/112 113/113/113 114/114/114
f 115/115/115 116/116/116 117/117/117
f 118/118/118 115/115/115 119/119/119
f 120/120/120 121/121/121 123/123/123
f 124/124/124 125/125/125 126/126/126
f 124/124/124 126/126/126 127/127/127
f 128/128/128 125/125/125 124/124/124
f 129/129/129 125/125/125 128/128/128
f 130/130/130 131/131/131 127/127/127
f 132/132/132 133/133/133 134/134/134
f 130/130/130 127/127/127 126/126/126
f 131/131/131 135/135/135 134/134/134
f 132/132/132 134/134/134 135/135/135
f 135/135/135 131/131/131 130/130/130
f 137/137/137 129/129/129 138/138/138
f 129/129/129 128/128/128 138/138/138
f 139/139/139 140/140/140 136/136/136
f 141/141/141 140/140/140 139/139/139
f 136/136/136 140/140/140 137/137/137
f 139/139/139 142/142/142 141/141/141
f 143/143/143 141/141/141 142/142/142
f 144/144/144 146/146/146 143/143/143
f 145/145/145 146/146/146 147/147/147
f 148/148/148 145/145/145 147/147/147
f 133/133/133 149/149/149 150/150/150
f 150/150/150 151/151/151 152/152/152
f 149/149/149 151/151/151 150/150/150
f 153/153/153 152/152/152 154/154/154
f 151/151/151 154/154/154 152/152/152
f 155/155/155 153/153/153 154/154/154
f 153/153/153 155/155/155 156/156/156
f 155/155/155 157/157/157 156/156/156
f 158/158/158 156/156/156 157/157/157
f 159/159/159 160/160/160 158/158/158
f 161/161/161 162/162/162 163/163/163
f 163/163/163 148/148/148 164/164/164
f 161/161/161 165/165/165 162/162/162
f 166/166/166 162/162/162 165/165/165
f 147/147/147 164/164/164 148/148/148
f 164/164/164 161/161/161 163/163/163
f 160/160/160 167/167/167 168/168/168
f 168/168/168 167/167/167 166/166/166
f 159/159/159 167/167/167 160/160/160
f 165/165/165 168/168/168 166/166/166
f 149/149/149 133/133/133 132/132/132
f 169/169/169 171/171/171 172/172/172
f 174/174/174 171/171/171 169/169/169
f 182/182/182 185/185/185 176/176/176
f 171/171/171 186/186/186 183/183/183
f 183/183/183 188/188/188 189/189/189
f 190/190/190 191/191/191 174/174/174
f 193/193/193 186/186/186 192/192/192
f 174/174/174 192/192/192 186/186/186
f 186/186/186 193/193/193 194/194/194
f 195/195/195 177/177/177 196/196/196
f 186/186/186 196/196/196 177/177/177
f 184/184/184 170/170/170 173/173/173
f 197/197/197 198/198/198 188/188/188
f 179/179/179 187/187/187 181/181/181
f 199/199/199 198/198/198 197/197/197
f 188/188/188 180/180/180 197/197/197
f 197/197/197 180/180/180 200/200/200
f 200/200/200 180/180/180 201/201/201
f 202/202/202 203/203/203 205/205/205
f 206/206/206 205/205/205 203/203/203
f 177/177/177 207/207/207 206/206/206
f 206/206/206 208/208/208 205/205/205
f 203/203/203 177/177/177 206/206/206
f 209/209/209 180/180/180 203/203/203
f 180/180/180 209/209/209 210/210/210
f 211/211/211 212/212/212 209/209/209
f 210/210/210 209/209/209 212/212/212
f 210/210/210 212/212/212 213/213/213
f 175/175/175 204/204/204 178/178/178
f 214/214/214 215/215/215 216/216/216
f 217/217/217 218/218/218 219/219/219
f 218/218/218 217/217/217 220/220/220
f 222/222/222 219/219/219 223/223/223
f 224/224/224 223/223/223 225/225/225
f 226/226/226 227/227/227 224/224/224
f 222/222/222 217/217/217 219/219/219
f 224/224/224 222/222/222 223/223/223
f 228/228/228 229/229/229 227/227/227
f 230/230/230 229/229/229 228/228/228
f 231/231/231 229/229/229 230/230/230
f 233/233/233 231/231/231 232/232/232
f 235/235/235 236/236/236 237/237/237
f 236/236/236 235/235/235 233/233/233
f 237/237/237 238/238/238 239/239/239
f 238/238/238 242/242/242 240/240/240
f 239/239/239 235/235/235 237/237/237
f 241/241/241 240/240/240 243/243/243
f 244/244/244 245/245/245 246/246/246
f 244/244/244 247/247/247 245/245/245
f 246/246/246 248/248/248 249/249/249
f 250/250/250 249/249/249 248/248/248
f 244/244/244 246/246/246 249/249/249
f 251/251/251 245/245/245 247/247/247
f 250/250/250 248/248/248 252/252/252
f 253/253/253 252/252/252 254/254/254
f 252/252/252 253/253/253 250/250/250
f 255/255/255 253/253/253 256/256/256
f 255/255/255 256/256/256 257/257/257
f 254/254/254 256/256/256 253/253/253
f 258/258/258 257/257/257 259/259/259
f 258/258/258 260/260/260 261/261/261
f 259/259/259 260/260/260 258/258/258
f 261/261/261 262/262/262 263/263/263
f 262/262/262 264/264/264 263/263/263
f 260/260/260 262/262/262 261/261/261
f 255/255/255 257/257/257 258/258/258
f 265/265/265 263/263/263 264/264/264
f 267/267/267 268/268/268 265/265/265
f 264/264/264 266/266/266 265/265/265
f 268/268/268 267/267/267 269/269/269
f 270/270/270 268/268/268 269/269/269
f 269/269/269 271/271/271 270/270/270
f 272/272/272 273/273/273 274/274/274
f 277/277/277 279/279/279 280/280/280
f 279/279/279 277/277/277 281/281/281
f 283/283/283 282/282/282 278/278/278
f 284/284/284 285/285/285 281/281/281
f 277/277/277 286/286/286 287/287/287
f 289/289/289 277/277/277 287/287/287
f 287/287/287 290/290/290 289/289/289
f 292/292/292 289/289/289 294/294/294
f 295/295/295 296/296/296 294/294/294
f 296/296/296 297/297/297 298/298/298
f 296/296/296 298/298/298 294/294/294
f 298/298/298 299/299/299 294/294/294
f 291/291/291 305/305/305 278/278/278
f 300/300/300 284/284/284 277/277/277
f 302/302/302 275/275/275 306/306/306
f 304/304/304 307/307/307 303/303/303
f 275/275/275 302/302/302 301/301/301
f 308/308/308 299/299/299 298/298/298
f 294/294/294 299/299/299 292/292/292
f 292/292/292 309/309/309 304/304/304
f 292/292/292 310/310/310 309/309/309
f 309/309/309 310/310/310 311/311/311
f 312/312/312 313/313/313 314/314/314
f 315/315/315 316/316/316 317/317/317
f 1/1/1 318/318/318 319/319/319
f 18/18/18 320/320/320 321/321/321
f 29/29/29 36/36/36 322/322/322
f 31/31/31 33/33/33 36/36/36
f 62/62/62 64/64/64 65/65/65
f 65/65/65 67/67/67 62/62/62
f 82/82/82 83/83/83 85/85/85
f 325/325/325 122/122/122 326/326/326
f 327/327/327 328/328/328 329/329/329
f 330/330/330 331/331/331 332/332/332
f 333/333/333 334/334/334 335/335/335
f 336/336/336 337/337/337 338/338/338
f 339/339/339 340/340/340 341/341/341
f 342/342/342 343/343/343 344/344/344
f 345/345/345 346/346/346 347/347/347
f 20/20/20 22/22/22 24/24/24
f 26/26/26 25/25/25 24/24/24
f 27/27/27 28/28/28 26/26/26
f 322/322/322 30/30/30 27/27/27
f 32/32/32 33/33/33 31/31/31
f 35/35/35 32/32/32 34/34/34
f 34/34/34 40/40/40 39/39/39
f 42/42/42 43/43/43 41/41/41
f 41/41/41 39/39/39 40/40/40
f 44/44/44 45/45/45 42/42/42
f 46/46/46 47/47/47 44/44/44
f 48/48/48 49/49/49 46/46/46
f 50/50/50 51/51/51 48/48/48
f 54/54/54 52/52/52 53/53/53
f 52/52/52 57/57/57 50/50/50
f 63/63/63 64/64/64 62/62/62
f 68/68/68 69/69/69 66/66/66
f 72/72/72 73/73/73 74/74/74
f 73/73/73 71/71/71 68/68/68
f 76/76/76 74/74/74 75/75/75
f 79/79/79 77/77/77 78/78/78
f 80/80/80 75/75/75 77/77/77
f 79/79/79 83/83/83 82/82/82
f 85/85/85 84/84/84 82/82/82
f 87/87/87 84/84/84 86/86/86
f 88/88/88 90/90/90 89/89/89
f 91/91/91 92/92/92 93/93/93
f 100/100/100 90/90/90 94/94/94
f 96/96/96 93/93/93 95/95/95
f 99/99/99 97/97/97 98/98/98
f 97/97/97 95/95/95 98/98/98
f 137/137/137 138/138/138 136/136/136
f 143/143/143 142/142/142 144/144/144
f 146/146/146 145/145/145 143/143/143
f 159/159/159 158/158/158 157/157/157
f 183/183/183 177/177/177 180/180/180
f 218/218/218 220/220/220 221/221/221
f 226/226/226 224/224/224 225/225/225
f 228/228/228 227/227/227 226/226/226
f 231/231/231 230/230/230 232/232/232
f 233/233/233 232/232/232 234/234/234
f 236/236/236 233/233/233 234/234/234
f 238/238/238 240/240/240 239/239/239
f 240/240/240 242/242/242 243/243/243
f 267/267/267 265/265/265 266/266/266
f 293/293/293 276/276/276 288/288/288

